*
*
G04 PADS 9.2 Build Number: 406656 generated Gerber (RS-274-X) file*
G04 PC Version=2.1*
*
%IN "17-IES-NGP_rev1-1610.pc"*%
*
%MOIN*%
*
%FSLAX35Y35*%
*
*
*
*
G04 PC Standard Apertures*
*
*
G04 Thermal Relief Aperture macro.*
%AMTER*
1,1,$1,0,0*
1,0,$1-$2,0,0*
21,0,$3,$4,0,0,45*
21,0,$3,$4,0,0,135*
%
*
*
G04 Annular Aperture macro.*
%AMANN*
1,1,$1,0,0*
1,0,$2,0,0*
%
*
*
G04 Odd Aperture macro.*
%AMODD*
1,1,$1,0,0*
1,0,$1-0.005,0,0*
%
*
*
G04 PC Custom Aperture Macros*
*
*
*
*
*
*
G04 PC Aperture Table*
*
%ADD010C,0.01*%
%ADD025C,0.001*%
%ADD115R,0.062X0.062*%
%ADD217R,0.062X0.054*%
%ADD218R,0.054X0.062*%
%ADD219C,0.06106*%
%ADD220C,0.08074*%
%ADD221C,0.052*%
%ADD222C,0.19885*%
%ADD223R,0.022X0.027*%
%ADD224R,0.062X0.052*%
%ADD225R,0.102X0.062*%
%ADD226R,0.127X0.067*%
%ADD227O,0.102X0.102*%
%ADD228R,0.097X0.067*%
%ADD229R,0.034X0.03*%
%ADD230R,0.082X0.09*%
%ADD231R,0.032X0.04*%
%ADD232R,0.04X0.032*%
%ADD234R,0.03062X0.06802*%
%ADD239R,0.03653X0.03259*%
%ADD240R,0.08574X0.03062*%
%ADD241R,0.03456X0.01684*%
%ADD242R,0.01684X0.03456*%
%ADD243R,0.11133X0.1507*%
%ADD244R,0.06802X0.03062*%
%ADD245C,0.04924*%
%ADD246R,0.091X0.058*%
%ADD249R,0.09468X0.09468*%
%ADD250C,0.06448*%
%ADD251R,0.02562X0.08074*%
%ADD252R,0.06917X0.14184*%
%ADD253R,0.14184X0.06917*%
%ADD254R,0.09188X0.06909*%
%ADD257R,0.056X0.046*%
%ADD258R,0.046X0.056*%
%ADD259R,0.06999X0.23141*%
%ADD274R,0.052X0.062*%
%ADD285R,0.01775X0.07062*%
%ADD286C,0.00279*%
%ADD289R,0.01775X0.02169*%
%ADD290R,0.06661X0.01775*%
%ADD291R,0.01775X0.06661*%
%ADD292R,0.01578X0.0335*%
%ADD293R,0.0335X0.01578*%
%ADD294R,0.06106X0.06106*%
%ADD295C,0.202*%
%ADD297C,0.01381*%
%ADD298R,0.01381X0.02169*%
*
*
*
*
G04 PC Circuitry*
G04 Layer Name 17-IES-NGP_rev1-1610.pc - circuitry*
%LPD*%
*
*
G04 PC Custom Flashes*
G04 Layer Name 17-IES-NGP_rev1-1610.pc - flashes*
%LPD*%
*
*
G04 PC Circuitry*
G04 Layer Name 17-IES-NGP_rev1-1610.pc - circuitry*
%LPD*%
*
G54D10*
G01X196434Y173000D02*
X193000Y176434D01*
X189566Y173000*
X193000Y169566*
X196434Y173000*
X190000Y172566D02*
Y173434D01*
X190500Y172066D02*
Y173934D01*
X191000Y171566D02*
Y174434D01*
X191500Y171066D02*
Y174934D01*
X192000Y170566D02*
Y175434D01*
X192500Y170066D02*
Y175934D01*
X193000Y169566D02*
Y176434D01*
X193500Y170066D02*
Y175934D01*
X194000Y170566D02*
Y175434D01*
X194500Y171066D02*
Y174934D01*
X195000Y171566D02*
Y174434D01*
X195500Y172066D02*
Y173934D01*
X196000Y172566D02*
Y173434D01*
X613934Y598000D02*
X610500Y601434D01*
X607066Y598000*
X610500Y594566*
X613934Y598000*
X607500Y597566D02*
Y598434D01*
X608000Y597066D02*
Y598934D01*
X608500Y596566D02*
Y599434D01*
X609000Y596066D02*
Y599934D01*
X609500Y595566D02*
Y600434D01*
X610000Y595066D02*
Y600934D01*
X610500Y594566D02*
Y601434D01*
X611000Y595066D02*
Y600934D01*
X611500Y595566D02*
Y600434D01*
X612000Y596066D02*
Y599934D01*
X612500Y596566D02*
Y599434D01*
X613000Y597066D02*
Y598934D01*
X613500Y597566D02*
Y598434D01*
X156434Y620500D02*
X153000Y623934D01*
X149566Y620500*
X153000Y617066*
X156434Y620500*
X150000Y620066D02*
Y620934D01*
X150500Y619566D02*
Y621434D01*
X151000Y619066D02*
Y621934D01*
X151500Y618566D02*
Y622434D01*
X152000Y618066D02*
Y622934D01*
X152500Y617566D02*
Y623434D01*
X153000Y617066D02*
Y623934D01*
X153500Y617566D02*
Y623434D01*
X154000Y618066D02*
Y622934D01*
X154500Y618566D02*
Y622434D01*
X155000Y619066D02*
Y621934D01*
X155500Y619566D02*
Y621434D01*
X156000Y620066D02*
Y620934D01*
X158509Y788500D02*
X158282Y789063D01*
X158282D02*
X157827Y789625D01*
X157373Y789906*
X156464*
X156009Y789625*
X155555Y789063*
X155555D02*
X155327Y788500D01*
X155100Y787656*
Y786250*
X155327Y785406*
X155555Y784844*
X156009Y784281*
X156464Y784000*
X157373*
X157827Y784281*
X158282Y784844*
X158509Y785406*
X161691Y787938D02*
X161236Y787656D01*
X160782Y787094*
X160555Y786250*
Y785688*
X160555D02*
X160782Y784844D01*
X161236Y784281*
X161691Y784000*
X162373*
X162827Y784281*
X163282Y784844*
X163509Y785688*
X163509D02*
Y786250D01*
X163282Y787094*
X162827Y787656*
X162373Y787938*
X162373D02*
X161691D01*
X165555D02*
Y784000D01*
Y786813D02*
X166236Y787656D01*
X166691Y787938*
X166691D02*
X167373D01*
X167373D02*
X167827Y787656D01*
X168055Y786813*
X168055D02*
Y784000D01*
Y786813D02*
X168736Y787656D01*
X169191Y787938*
X169191D02*
X169873D01*
X169873D02*
X170327Y787656D01*
X170555Y786813*
X170555D02*
Y784000D01*
X172600Y787938D02*
Y782031D01*
Y787094D02*
X173055Y787656D01*
X173509Y787938*
X173509D02*
X174191D01*
X174191D02*
X174645Y787656D01*
X175100Y787094*
X175327Y786250*
Y785688*
X175327D02*
X175100Y784844D01*
X174645Y784281*
X174191Y784000*
X173509*
X173055Y784281*
X172600Y784844*
X177373Y787938D02*
Y784000D01*
Y786250D02*
X177600Y787094D01*
X178055Y787656*
X178509Y787938*
X178509D02*
X179191D01*
X181236Y786250D02*
X183964D01*
Y786813*
X183964D02*
X183736Y787375D01*
X183509Y787656*
X183055Y787938*
X183055D02*
X182373D01*
X182373D02*
X181918Y787656D01*
X181464Y787094*
X181236Y786250*
Y785688*
X181236D02*
X181464Y784844D01*
X181918Y784281*
X182373Y784000*
X183055*
X183509Y784281*
X183964Y784844*
X188509Y787094D02*
X188282Y787656D01*
X187600Y787938*
X187600D02*
X186918D01*
X186918D02*
X186236Y787656D01*
X186009Y787094*
X186236Y786531*
X186691Y786250*
X187827Y785969*
X188282Y785688*
X188282D02*
X188509Y785125D01*
Y784844*
X188282Y784281*
X187600Y784000*
X186918*
X186236Y784281*
X186009Y784844*
X193055Y787094D02*
X192827Y787656D01*
X192145Y787938*
X192145D02*
X191464D01*
X191464D02*
X190782Y787656D01*
X190555Y787094*
X190782Y786531*
X191236Y786250*
X192373Y785969*
X192827Y785688*
X192827D02*
X193055Y785125D01*
Y784844*
X192827Y784281*
X192145Y784000*
X191464*
X190782Y784281*
X190555Y784844*
X196236Y787938D02*
X195782Y787656D01*
X195327Y787094*
X195100Y786250*
Y785688*
X195100D02*
X195327Y784844D01*
X195782Y784281*
X196236Y784000*
X196918*
X197373Y784281*
X197827Y784844*
X198055Y785688*
X198055D02*
Y786250D01*
X197827Y787094*
X197373Y787656*
X196918Y787938*
X196918D02*
X196236D01*
X200100D02*
Y784000D01*
Y786250D02*
X200327Y787094D01*
X200782Y787656*
X201236Y787938*
X201236D02*
X201918D01*
X212600Y788500D02*
X212373Y789063D01*
X212373D02*
X211918Y789625D01*
X211464Y789906*
X210555*
X210100Y789625*
X209645Y789063*
X209645D02*
X209418Y788500D01*
X209191Y787656*
Y786250*
X209418Y785406*
X209645Y784844*
X210100Y784281*
X210555Y784000*
X211464*
X211918Y784281*
X212373Y784844*
X212600Y785406*
X215782Y787938D02*
X215327Y787656D01*
X214873Y787094*
X214645Y786250*
Y785688*
X214645D02*
X214873Y784844D01*
X215327Y784281*
X215782Y784000*
X216464*
X216918Y784281*
X217373Y784844*
X217600Y785688*
X217600D02*
Y786250D01*
X217373Y787094*
X216918Y787656*
X216464Y787938*
X216464D02*
X215782D01*
X219645D02*
Y784000D01*
Y786813D02*
X220327Y787656D01*
X220782Y787938*
X220782D02*
X221464D01*
X221464D02*
X221918Y787656D01*
X222145Y786813*
X222145D02*
Y784000D01*
X224873Y789906D02*
Y785125D01*
X225100Y784281*
X225555Y784000*
X226009*
X224191Y787938D02*
X225782D01*
X228055D02*
Y784000D01*
Y786250D02*
X228282Y787094D01*
X228736Y787656*
X229191Y787938*
X229191D02*
X229873D01*
X233055D02*
X232600Y787656D01*
X232145Y787094*
X231918Y786250*
Y785688*
X231918D02*
X232145Y784844D01*
X232600Y784281*
X233055Y784000*
X233736*
X234191Y784281*
X234645Y784844*
X234873Y785688*
X234873D02*
Y786250D01*
X234645Y787094*
X234191Y787656*
X233736Y787938*
X233736D02*
X233055D01*
X236918Y789906D02*
Y784000D01*
X241464Y787094D02*
X241236Y787656D01*
X240555Y787938*
X240555D02*
X239873D01*
X239873D02*
X239191Y787656D01*
X238964Y787094*
X239191Y786531*
X239645Y786250*
X240782Y785969*
X241236Y785688*
X241236D02*
X241464Y785125D01*
Y784844*
X241236Y784281*
X240555Y784000*
X239873*
X239191Y784281*
X238964Y784844*
X252145Y788500D02*
X251918Y789063D01*
X251918D02*
X251464Y789625D01*
X251009Y789906*
X250100*
X249645Y789625*
X249191Y789063*
X249191D02*
X248964Y788500D01*
X248736Y787656*
Y786250*
X248964Y785406*
X249191Y784844*
X249645Y784281*
X250100Y784000*
X251009*
X251464Y784281*
X251918Y784844*
X252145Y785406*
X255327Y787938D02*
X254873Y787656D01*
X254418Y787094*
X254191Y786250*
Y785688*
X254191D02*
X254418Y784844D01*
X254873Y784281*
X255327Y784000*
X256009*
X256464Y784281*
X256918Y784844*
X257145Y785688*
X257145D02*
Y786250D01*
X256918Y787094*
X256464Y787656*
X256009Y787938*
X256009D02*
X255327D01*
X259191D02*
Y784000D01*
Y786250D02*
X259418Y787094D01*
X259873Y787656*
X260327Y787938*
X260327D02*
X261009D01*
X263055D02*
Y782031D01*
Y787094D02*
X263509Y787656D01*
X263964Y787938*
X263964D02*
X264645D01*
X264645D02*
X265100Y787656D01*
X265555Y787094*
X265782Y786250*
Y785688*
X265782D02*
X265555Y784844D01*
X265100Y784281*
X264645Y784000*
X263964*
X263509Y784281*
X263055Y784844*
X268964Y787938D02*
X268509Y787656D01*
X268055Y787094*
X267827Y786250*
Y785688*
X267827D02*
X268055Y784844D01*
X268509Y784281*
X268964Y784000*
X269645*
X270100Y784281*
X270555Y784844*
X270782Y785688*
X270782D02*
Y786250D01*
X270555Y787094*
X270100Y787656*
X269645Y787938*
X269645D02*
X268964D01*
X272827D02*
Y784000D01*
Y786250D02*
X273055Y787094D01*
X273509Y787656*
X273964Y787938*
X273964D02*
X274645D01*
X279418D02*
Y784000D01*
Y787094D02*
X278964Y787656D01*
X278509Y787938*
X278509D02*
X277827D01*
X277827D02*
X277373Y787656D01*
X276918Y787094*
X276691Y786250*
Y785688*
X276691D02*
X276918Y784844D01*
X277373Y784281*
X277827Y784000*
X278509*
X278964Y784281*
X279418Y784844*
X282145Y789906D02*
Y785125D01*
X282373Y784281*
X282827Y784000*
X283282*
X281464Y787938D02*
X283055D01*
X285327Y789906D02*
X285555Y789625D01*
X285782Y789906*
X285555Y790188*
X285555D02*
X285327Y789906D01*
X285555Y787938D02*
Y784000D01*
X288964Y787938D02*
X288509Y787656D01*
X288055Y787094*
X287827Y786250*
Y785688*
X287827D02*
X288055Y784844D01*
X288509Y784281*
X288964Y784000*
X289645*
X290100Y784281*
X290555Y784844*
X290782Y785688*
X290782D02*
Y786250D01*
X290555Y787094*
X290100Y787656*
X289645Y787938*
X289645D02*
X288964D01*
X292827D02*
Y784000D01*
Y786813D02*
X293509Y787656D01*
X293964Y787938*
X293964D02*
X294645D01*
X294645D02*
X295100Y787656D01*
X295327Y786813*
X295327D02*
Y784000D01*
X302600Y786531D02*
X306691D01*
X308736D02*
X312827D01*
X322373Y789906D02*
Y785406D01*
X322145Y784563*
X322145D02*
X321918Y784281D01*
X321464Y784000*
X321009*
X320555Y784281*
X320327Y784563*
X320327D02*
X320100Y785406D01*
Y785969*
X324418Y787938D02*
Y785125D01*
X324645Y784281*
X325100Y784000*
X325782*
X326236Y784281*
X326918Y785125*
Y787938D02*
Y784000D01*
X328964Y789906D02*
Y784000D01*
X331236Y787938D02*
X332600Y784000D01*
X333964Y787938D02*
X332600Y784000D01*
X332145Y782875*
X331691Y782312*
X331691D02*
X331236Y782031D01*
X331009*
X341236Y788781D02*
X341691Y789063D01*
X341691D02*
X342373Y789906D01*
Y784000*
X346691Y789906D02*
X344418Y785969D01*
X347827*
X346691Y789906D02*
Y784000D01*
X350327Y784281D02*
X350100Y784000D01*
X349873Y784281*
X350100Y784563*
X350100D02*
X350327Y784281D01*
Y783719*
X350100Y783156*
X349873Y782875*
X357827Y788500D02*
Y788781D01*
X358055Y789344*
X358282Y789625*
X358736Y789906*
X359645*
X360100Y789625*
X360327Y789344*
X360555Y788781*
Y788219*
X360327Y787656*
X359873Y786813*
X359873D02*
X357600Y784000D01*
X360782*
X364191Y789906D02*
X363509Y789625D01*
X363055Y788781*
X362827Y787375*
Y786531*
X363055Y785125*
X363509Y784281*
X364191Y784000*
X364645*
X365327Y784281*
X365782Y785125*
X366009Y786531*
Y787375*
X365782Y788781*
X365327Y789625*
X364645Y789906*
X364191*
X368055Y788781D02*
X368509Y789063D01*
X368509D02*
X369191Y789906D01*
Y784000*
X371236Y788781D02*
X371691Y789063D01*
X371691D02*
X372373Y789906D01*
Y784000*
X155100Y776281D02*
X155555Y776563D01*
X155555D02*
X156236Y777406D01*
Y771500*
X161464Y777406D02*
X159191Y771500D01*
X158282Y777406D02*
X161464D01*
X163509Y774031D02*
X167600D01*
X172373Y776563D02*
X172145Y777125D01*
X171464Y777406*
X171009*
X170327Y777125*
X169873Y776281*
X169645Y774875*
Y773469*
X169873Y772344*
X170327Y771781*
X171009Y771500*
X171236*
X171918Y771781*
X172373Y772344*
X172600Y773188*
X172600D02*
Y773469D01*
X172373Y774313*
X172373D02*
X171918Y774875D01*
X171236Y775156*
X171009*
X170327Y774875*
X169873Y774313*
X169873D02*
X169645Y773469D01*
X176009Y777406D02*
X175327Y777125D01*
X174873Y776281*
X174645Y774875*
Y774031*
X174873Y772625*
X175327Y771781*
X176009Y771500*
X176464*
X177145Y771781*
X177600Y772625*
X177827Y774031*
Y774875*
X177600Y776281*
X177145Y777125*
X176464Y777406*
X176009*
X181236D02*
X180555Y777125D01*
X180100Y776281*
X179873Y774875*
Y774031*
X180100Y772625*
X180555Y771781*
X181236Y771500*
X181691*
X182373Y771781*
X182827Y772625*
X183055Y774031*
Y774875*
X182827Y776281*
X182373Y777125*
X181691Y777406*
X181236*
X185555D02*
X188055D01*
X186691Y775156*
X187373*
X187827Y774875*
X188055Y774594*
X188282Y773750*
Y773188*
X188282D02*
X188055Y772344D01*
X187600Y771781*
X186918Y771500*
X186236*
X185555Y771781*
X185327Y772063*
X185327D02*
X185100Y772625D01*
X191691Y777406D02*
X191009Y777125D01*
X190555Y776281*
X190327Y774875*
Y774031*
X190555Y772625*
X191009Y771781*
X191691Y771500*
X192145*
X192827Y771781*
X193282Y772625*
X193509Y774031*
Y774875*
X193282Y776281*
X192827Y777125*
X192145Y777406*
X191691*
X196918D02*
X196236Y777125D01*
X195782Y776281*
X195555Y774875*
Y774031*
X195782Y772625*
X196236Y771781*
X196918Y771500*
X197373*
X198055Y771781*
X198509Y772625*
X198736Y774031*
Y774875*
X198509Y776281*
X198055Y777125*
X197373Y777406*
X196918*
X200782Y774031D02*
X204873D01*
X208282Y777406D02*
X207600Y777125D01*
X207145Y776281*
X206918Y774875*
Y774031*
X207145Y772625*
X207600Y771781*
X208282Y771500*
X208736*
X209418Y771781*
X209873Y772625*
X210100Y774031*
Y774875*
X209873Y776281*
X209418Y777125*
X208736Y777406*
X208282*
X213509D02*
X212827Y777125D01*
X212373Y776281*
X212145Y774875*
Y774031*
X212373Y772625*
X212827Y771781*
X213509Y771500*
X213964*
X214645Y771781*
X215100Y772625*
X215327Y774031*
Y774875*
X215100Y776281*
X214645Y777125*
X213964Y777406*
X213509*
X217373Y776281D02*
X217827Y776563D01*
X217827D02*
X218509Y777406D01*
Y771500*
X225782Y777406D02*
Y771500D01*
Y777406D02*
X227827D01*
X228509Y777125*
X228736Y776844*
X228964Y776281*
Y775719*
X228736Y775156*
X228509Y774875*
X227827Y774594*
X225782*
X227373D02*
X228964Y771500D01*
X231009Y773750D02*
X233736D01*
Y774313*
X233736D02*
X233509Y774875D01*
X233282Y775156*
X232827Y775438*
X232827D02*
X232145D01*
X232145D02*
X231691Y775156D01*
X231236Y774594*
X231009Y773750*
Y773188*
X231009D02*
X231236Y772344D01*
X231691Y771781*
X232145Y771500*
X232827*
X233282Y771781*
X233736Y772344*
X235782Y775438D02*
X237145Y771500D01*
X238509Y775438D02*
X237145Y771500D01*
X240782Y772063D02*
X240555Y771781D01*
X240782Y771500*
X241009Y771781*
X240782Y772063*
X248282Y776281D02*
X248736Y776563D01*
X248736D02*
X249418Y777406D01*
Y771500*
X630500Y725500D02*
X625500Y730500D01*
X150185*
X130500Y710815*
Y494280*
X171839Y130500*
X625500*
X630500Y135500*
Y725500*
X100500Y810500D02*
X690500D01*
Y100500*
X100500*
Y810500*
G54D25*
G54D115*
X503500Y403750D03*
Y417250D03*
X476500Y566250D03*
Y579750D03*
X400000Y654750D03*
Y668250D03*
X396000Y642250D03*
Y628750D03*
X465500Y566250D03*
Y579750D03*
X454000Y566250D03*
Y579750D03*
G54D217*
X395449Y296288D03*
Y288808D03*
X519449Y290288D03*
Y282808D03*
X441449Y224808D03*
Y232288D03*
X368349Y203388D03*
Y195908D03*
X359349Y203388D03*
Y195908D03*
X550000Y238760D03*
Y246240D03*
X422949Y174308D03*
Y181788D03*
X413949Y174308D03*
Y181788D03*
X459449Y224808D03*
Y232288D03*
X386449Y288808D03*
Y296288D03*
X389949Y182308D03*
Y189788D03*
X404449Y296288D03*
Y288808D03*
X537858Y290422D03*
Y282942D03*
X245749Y295988D03*
Y288508D03*
X210749Y224508D03*
Y231988D03*
X302749Y215508D03*
Y222988D03*
X236749Y295988D03*
Y288508D03*
X201749Y265988D03*
Y258508D03*
Y231988D03*
Y224508D03*
X254749Y295988D03*
Y288508D03*
X247749Y425988D03*
Y418508D03*
X229749Y324508D03*
Y331988D03*
X211749Y344508D03*
Y351988D03*
X202749Y344508D03*
Y351988D03*
X256749Y425988D03*
Y418508D03*
X302749Y341508D03*
Y348988D03*
X193749Y334508D03*
Y341988D03*
X201500Y386240D03*
Y378760D03*
X229749Y425988D03*
Y418508D03*
X185249Y378508D03*
Y385988D03*
X246749Y551988D03*
Y544508D03*
X265749Y435508D03*
Y442988D03*
X231749Y460988D03*
Y453508D03*
X210749Y533988D03*
Y526508D03*
X397449Y423288D03*
Y415808D03*
X255749Y551988D03*
Y544508D03*
X303149Y462608D03*
Y470088D03*
X193749Y473508D03*
Y480988D03*
X228749Y551988D03*
Y544508D03*
X201749Y533988D03*
Y526508D03*
Y499988D03*
Y492508D03*
X248749Y681988D03*
Y674508D03*
X418449Y308808D03*
Y316288D03*
X209749Y615988D03*
Y608508D03*
X230749Y589988D03*
Y582508D03*
X209749Y632988D03*
Y625508D03*
X258749Y681988D03*
Y674508D03*
X302749Y593508D03*
Y600988D03*
X201949Y582988D03*
Y575508D03*
X238749Y681988D03*
Y674508D03*
X202549Y667988D03*
Y660508D03*
X200749Y615988D03*
Y608508D03*
X368449Y343288D03*
Y335808D03*
Y352808D03*
Y360288D03*
X406449Y423288D03*
Y415808D03*
X458449Y337808D03*
Y345288D03*
X359449Y335808D03*
Y343288D03*
X388449Y423288D03*
Y415808D03*
X359449Y363808D03*
Y371288D03*
X368449Y369808D03*
Y377288D03*
X558449Y454288D03*
Y446808D03*
X525449Y511288D03*
Y503808D03*
X408449Y556288D03*
Y548808D03*
X399449Y556288D03*
Y548808D03*
X366449Y492808D03*
Y500288D03*
X394500Y446240D03*
Y438760D03*
X414500D03*
Y446240D03*
X357449Y513808D03*
Y521288D03*
X348500Y474760D03*
Y482240D03*
X380449Y556288D03*
Y548808D03*
X458449Y466808D03*
Y474288D03*
X403500Y438760D03*
Y446240D03*
X427449Y308808D03*
Y316288D03*
X264749Y562508D03*
Y569988D03*
X555000Y355760D03*
Y363240D03*
X268749Y178508D03*
Y185988D03*
X263749Y305508D03*
Y312988D03*
X259749Y178508D03*
Y185988D03*
X255749Y562508D03*
Y569988D03*
X256749Y435508D03*
Y442988D03*
X254749Y305508D03*
Y312988D03*
X482740Y279005D03*
Y286485D03*
X501244Y279005D03*
Y286485D03*
X492189Y279005D03*
Y286485D03*
X500089Y544158D03*
Y536678D03*
X546000Y363240D03*
Y355760D03*
X539500Y407760D03*
Y415240D03*
X530500Y407760D03*
Y415240D03*
X537000Y363240D03*
Y355760D03*
X389500Y654760D03*
Y662240D03*
X379000D03*
Y654760D03*
X209749Y643508D03*
Y650988D03*
X368449Y386808D03*
Y394288D03*
X366449Y509808D03*
Y517288D03*
X368349Y254908D03*
Y262388D03*
X210749Y258508D03*
Y265988D03*
X211749Y378508D03*
Y385988D03*
X210749Y509508D03*
Y516988D03*
Y241508D03*
Y248988D03*
X211749Y361008D03*
Y368488D03*
X210749Y492508D03*
Y499988D03*
X428000Y642240D03*
Y634760D03*
X265749Y425988D03*
Y418508D03*
X415449Y423288D03*
Y415808D03*
X263749Y295988D03*
Y288508D03*
X417449Y556288D03*
Y548808D03*
X264749Y551988D03*
Y544508D03*
X413449Y296288D03*
Y288808D03*
X268749Y681988D03*
Y674508D03*
X467449Y345288D03*
Y337808D03*
X146642Y650260D03*
Y657740D03*
X192749Y258508D03*
Y265988D03*
X350449Y371288D03*
Y363808D03*
X238749Y418508D03*
Y425988D03*
X192749Y526508D03*
Y533988D03*
X163500Y442240D03*
Y434760D03*
X193549Y660508D03*
Y667988D03*
X187500Y223740D03*
Y216260D03*
X227749Y288508D03*
Y295988D03*
X467449Y474288D03*
Y466808D03*
X302649Y576588D03*
Y569108D03*
X311749Y222988D03*
Y215508D03*
Y348988D03*
Y341508D03*
X312749Y469988D03*
Y462508D03*
X311749Y600988D03*
Y593508D03*
X545500Y426760D03*
Y434240D03*
X348500Y267240D03*
Y259760D03*
X190000Y492760D03*
Y500240D03*
X197500Y635740D03*
Y628260D03*
X349500Y495760D03*
Y503240D03*
X501000Y502760D03*
Y510240D03*
X159358Y650260D03*
Y657740D03*
X175185Y650260D03*
Y657740D03*
X552000Y414740D03*
Y407260D03*
G54D218*
X547760Y257500D03*
X555240D03*
X488189Y244548D03*
X480709D03*
X542260Y211500D03*
X549740D03*
X360609Y213648D03*
X368089D03*
X360609Y234648D03*
X368089D03*
X441709Y215548D03*
X449189D03*
X293489Y224248D03*
X286009D03*
X210489Y215248D03*
X203009D03*
X233989Y196248D03*
X226509D03*
X293489Y204248D03*
X286009D03*
X293489Y214248D03*
X286009D03*
X243009Y178248D03*
X250489D03*
X293489Y338248D03*
X286009D03*
X238009Y305248D03*
X245489D03*
X211489Y334248D03*
X204009D03*
X293489Y348248D03*
X286009D03*
X203009Y482248D03*
X210489D03*
X293489Y472248D03*
X286009D03*
X210489Y473248D03*
X203009D03*
X293489Y462248D03*
X286009D03*
X246489Y562248D03*
X239009D03*
X293489Y602248D03*
X286009D03*
X293489Y593248D03*
X286009D03*
X449189Y346548D03*
X441709D03*
X449189Y337548D03*
X441709D03*
X408740Y314500D03*
X401260D03*
X549709Y484548D03*
X557189D03*
X487189Y466548D03*
X479709D03*
X441709Y449248D03*
X449189D03*
Y476548D03*
X441709D03*
X557189Y473548D03*
X549709D03*
X557189Y464048D03*
X549709D03*
X449189Y458548D03*
X441709D03*
X247489Y436248D03*
X240009D03*
X202009Y598248D03*
X209489D03*
X358709Y483548D03*
X366189D03*
X449189Y467548D03*
X441709D03*
X462289Y303848D03*
X454809D03*
X400774Y279314D03*
X408254D03*
X425632Y279400D03*
X418152D03*
X462289Y293848D03*
X454809D03*
X462189Y314548D03*
X454709D03*
X462089Y283948D03*
X454609D03*
X500260Y331564D03*
X492780D03*
X551449Y596068D03*
X558929D03*
X525849Y554918D03*
X533329D03*
Y544918D03*
X525849D03*
X509329Y527418D03*
X501849D03*
X476329Y551918D03*
X468849D03*
Y540418D03*
X476329D03*
X247489Y590248D03*
X240009D03*
X412189Y334548D03*
X404709D03*
X386189Y458548D03*
X378709D03*
X400189Y201048D03*
X392709D03*
X234489Y205248D03*
X227009D03*
X266240Y462500D03*
X258760D03*
X246489Y332748D03*
X239009D03*
X263489D03*
X256009D03*
X248240Y462500D03*
X240760D03*
X264489Y590248D03*
X257009D03*
X395189Y334548D03*
X387709D03*
X268489Y205248D03*
X261009D03*
X429189Y334548D03*
X421709D03*
X403189Y458548D03*
X395709D03*
X407760Y642500D03*
X415240D03*
X251489Y205248D03*
X244009D03*
X511189Y214548D03*
X503709D03*
X509189Y439548D03*
X501709D03*
X510890Y342194D03*
X503410D03*
X520733D03*
X528213D03*
X368089Y244648D03*
X360609D03*
X160260Y460000D03*
X167740D03*
X155360Y579300D03*
X162840D03*
X310409Y327048D03*
X317889D03*
X308260Y445500D03*
X315740D03*
X167240Y472000D03*
X159760D03*
X428509Y430648D03*
X435989D03*
X512859Y305186D03*
X520339D03*
X512859Y315816D03*
X520339D03*
X512859Y326446D03*
X520339D03*
X193260Y397000D03*
X200740D03*
X367760Y405000D03*
X375240D03*
X457740Y323500D03*
X450260D03*
G54D219*
X571445Y652035D03*
X579319D03*
X587193D03*
X571445Y628413D03*
X579319D03*
X587193D03*
X602941Y652035D03*
Y628413D03*
X610815Y652035D03*
X618689D03*
X610815Y628413D03*
X618689D03*
G54D220*
X614752Y640224D03*
G54D221*
X433449Y288048D03*
X290749Y670748D03*
X426449Y414548D03*
X438449D03*
X446949Y544548D03*
X457949D03*
X445449Y287548D03*
X277257Y299183D03*
X284749Y294248D03*
X275749Y419248D03*
X286749D03*
X278749Y551248D03*
X290749Y538248D03*
X281249Y671248D03*
X322000Y238000D03*
X321000Y364000D03*
X317500Y496500D03*
X320500Y618000D03*
X472500Y370000D03*
X416000Y687000D03*
X405000D03*
G54D222*
X610815Y171327D03*
X588650D03*
X562587D03*
X610815Y689555D03*
X588650D03*
X562587D03*
G54D223*
X490089Y543918D03*
Y538918D03*
G54D224*
X531949Y204548D03*
X522949D03*
X510489Y204418D03*
X501489D03*
X532439Y428918D03*
X523439D03*
X511439D03*
X502439D03*
G54D225*
X435000Y609750D03*
Y596250D03*
X551900Y555050D03*
Y541550D03*
G54D226*
X471000Y679250D03*
Y653750D03*
G54D227*
X572500Y556500D03*
X419500Y613000D03*
X386500Y686000D03*
G54D228*
X159437Y690343D03*
Y679319D03*
X175185Y690343D03*
Y679319D03*
G54D229*
X146642Y690581D03*
Y679081D03*
G54D230*
X557094Y573500D03*
X568906D03*
X535406Y605000D03*
X523594D03*
G54D231*
X511089Y544018D03*
Y537818D03*
X437000Y634900D03*
Y641100D03*
X430249Y680048D03*
Y686248D03*
X447427Y664921D03*
Y671121D03*
X410000Y663400D03*
Y669600D03*
X549449Y454648D03*
Y448448D03*
X528803Y283582D03*
Y289782D03*
X516449Y503448D03*
Y509648D03*
X308749Y502148D03*
Y508348D03*
Y632148D03*
Y638348D03*
X464449Y377448D03*
Y383648D03*
Y505448D03*
Y511648D03*
Y251448D03*
Y257648D03*
X308749Y254148D03*
Y260348D03*
Y379148D03*
Y385348D03*
X516000Y407600D03*
Y401400D03*
X490500Y407600D03*
Y401400D03*
G54D232*
X479100Y326000D03*
X472900D03*
X509100Y578500D03*
X502900D03*
X519349Y439548D03*
X525549D03*
X550049Y494348D03*
X556249D03*
X487549Y487548D03*
X481349D03*
X487549Y477548D03*
X481349D03*
X487549Y455548D03*
X481349D03*
X487549Y444548D03*
X481349D03*
X521349Y214548D03*
X527549D03*
X548400Y266500D03*
X554600D03*
X541900Y220500D03*
X548100D03*
X488549Y265548D03*
X482349D03*
X488549Y254548D03*
X482349D03*
X488549Y235548D03*
X482349D03*
X488549Y225548D03*
X482349D03*
X551400Y607500D03*
X557600D03*
X188249Y417548D03*
X194449D03*
X188149Y439748D03*
X194349D03*
X211400Y433500D03*
X217600D03*
X211400Y422000D03*
X217600D03*
X298649Y492248D03*
X304849D03*
X286649Y482248D03*
X292849D03*
X297649Y622248D03*
X303849D03*
X286649Y612248D03*
X292849D03*
X453349Y365548D03*
X459549D03*
X442349Y356548D03*
X448549D03*
X454349Y495548D03*
X460549D03*
X442349Y485548D03*
X448549D03*
X299900Y243000D03*
X306100D03*
X286649Y234248D03*
X292849D03*
X301400Y369500D03*
X307600D03*
X286649Y358248D03*
X292849D03*
G54D234*
X300233Y275878D03*
X295233D03*
X290233D03*
X285233D03*
Y254618D03*
X290233D03*
X295233D03*
X300233D03*
Y399878D03*
X295233D03*
X290233D03*
X285233D03*
Y378618D03*
X290233D03*
X295233D03*
X300233D03*
Y523878D03*
X295233D03*
X290233D03*
X285233D03*
Y502618D03*
X290233D03*
X295233D03*
X300233D03*
Y653878D03*
X295233D03*
X290233D03*
X285233D03*
Y632618D03*
X290233D03*
X295233D03*
X300233D03*
X455933Y397178D03*
X450933D03*
X445933D03*
X440933D03*
Y375918D03*
X445933D03*
X450933D03*
X455933D03*
Y527178D03*
X450933D03*
X445933D03*
X440933D03*
Y505918D03*
X445933D03*
X450933D03*
X455933D03*
Y273178D03*
X450933D03*
X445933D03*
X440933D03*
Y251918D03*
X445933D03*
X450933D03*
X455933D03*
G54D239*
X289308Y370217D03*
X284190D03*
Y366280D03*
X289308D03*
Y245217D03*
X284190D03*
Y241280D03*
X289308D03*
Y494217D03*
X284190D03*
Y490280D03*
X289308D03*
Y624217D03*
X284190D03*
Y620280D03*
X289308D03*
X445008Y367517D03*
X439890D03*
Y363580D03*
X445008D03*
Y497517D03*
X439890D03*
Y493580D03*
X445008D03*
Y244517D03*
X439890D03*
Y240580D03*
X445008D03*
G54D240*
X490140Y568918D03*
Y563918D03*
Y558918D03*
Y553918D03*
X509038D03*
Y558918D03*
Y563918D03*
Y568918D03*
G54D241*
X436407Y655600D03*
Y657568D03*
Y659537D03*
Y661505D03*
Y663474D03*
Y665442D03*
X421446D03*
Y663474D03*
Y661505D03*
Y659537D03*
Y657568D03*
Y655600D03*
G54D242*
X431880Y669970D03*
X429911D03*
X427943D03*
X425974D03*
Y651072D03*
X427943D03*
X429911D03*
X431880D03*
G54D243*
X428927Y660521D03*
G54D244*
X507279Y627664D03*
Y632664D03*
Y637664D03*
Y642664D03*
X486019D03*
Y637664D03*
Y632664D03*
Y627664D03*
X506679Y665664D03*
Y670664D03*
Y675664D03*
Y680664D03*
X485419D03*
Y675664D03*
Y670664D03*
Y665664D03*
X450870Y642484D03*
Y637484D03*
Y632484D03*
Y627484D03*
X472130D03*
Y632484D03*
Y637484D03*
Y642484D03*
G54D245*
X622232Y221366D03*
X622626Y229240D03*
X622232Y237114D03*
X622626Y244988D03*
X622232Y252862D03*
X622626Y260736D03*
X622232Y268610D03*
X622626Y276484D03*
X616720Y221366D03*
X617114Y229240D03*
X616720Y237114D03*
X617114Y244988D03*
X616720Y252862D03*
X617114Y260736D03*
X616720Y268610D03*
X617114Y276484D03*
X611209Y221366D03*
X605697D03*
X600185D03*
X594673D03*
X589161D03*
X583649D03*
X578137D03*
X611602Y229240D03*
X611209Y237114D03*
X611602Y244988D03*
X611209Y252862D03*
X611602Y260736D03*
X611209Y268610D03*
X611602Y276484D03*
X606090Y229240D03*
X605697Y237114D03*
X606090Y244988D03*
X605697Y252862D03*
X606090Y260736D03*
X605697Y268610D03*
X606090Y276484D03*
X600578Y229240D03*
X600185Y237114D03*
X600578Y244988D03*
X600185Y252862D03*
X600578Y260736D03*
X600185Y268610D03*
X600578Y276484D03*
X595066Y229240D03*
X594673Y237114D03*
X595066Y244988D03*
X594673Y252862D03*
X595066Y260736D03*
X594673Y268610D03*
X595066Y276484D03*
X589554Y229240D03*
X589161Y237114D03*
X589554Y244988D03*
X589161Y252862D03*
X589554Y260736D03*
X589161Y268610D03*
X589554Y276484D03*
X584042Y229240D03*
X583649Y237114D03*
X584042Y244988D03*
X583649Y252862D03*
X584042Y260736D03*
X583649Y268610D03*
X584042Y276484D03*
X578530Y229240D03*
X578137Y237114D03*
X578530Y244988D03*
X578137Y252862D03*
X578530Y260736D03*
X578137Y268610D03*
X578530Y276484D03*
X622232Y368295D03*
X622626Y376169D03*
X622232Y384043D03*
X622626Y391917D03*
X622232Y399791D03*
X622626Y407665D03*
X622232Y415539D03*
X622626Y423413D03*
X616720Y368295D03*
X617114Y376169D03*
X616720Y384043D03*
X617114Y391917D03*
X616720Y399791D03*
X617114Y407665D03*
X616720Y415539D03*
X617114Y423413D03*
X611209Y368295D03*
X605697D03*
X600185D03*
X594673D03*
X589161D03*
X583649D03*
X578137D03*
X611602Y376169D03*
X611209Y384043D03*
X611602Y391917D03*
X611209Y399791D03*
X611602Y407665D03*
X611209Y415539D03*
X611602Y423413D03*
X606090Y376169D03*
X605697Y384043D03*
X606090Y391917D03*
X605697Y399791D03*
X606090Y407665D03*
X605697Y415539D03*
X606090Y423413D03*
X600578Y376169D03*
X600185Y384043D03*
X600578Y391917D03*
X600185Y399791D03*
X600578Y407665D03*
X600185Y415539D03*
X600578Y423413D03*
X595066Y376169D03*
X594673Y384043D03*
X595066Y391917D03*
X594673Y399791D03*
X595066Y407665D03*
X594673Y415539D03*
X595066Y423413D03*
X589554Y376169D03*
X589161Y384043D03*
X589554Y391917D03*
X589161Y399791D03*
X589554Y407665D03*
X589161Y415539D03*
X589554Y423413D03*
X584042Y376169D03*
X583649Y384043D03*
X584042Y391917D03*
X583649Y399791D03*
X584042Y407665D03*
X583649Y415539D03*
X584042Y423413D03*
X578530Y376169D03*
X578137Y384043D03*
X578530Y391917D03*
X578137Y399791D03*
X578530Y407665D03*
X578137Y415539D03*
X578530Y423413D03*
G54D246*
X518500Y667700D03*
Y678300D03*
X520500Y628200D03*
Y638800D03*
G54D249*
X491402Y308335D03*
G54D250*
X170618Y239004D03*
Y249004D03*
X164004Y297626D03*
Y307626D03*
X161799Y317232D03*
Y327232D03*
X157390Y356366D03*
Y366366D03*
X155185Y375894D03*
Y385894D03*
X144122Y473689D03*
Y483689D03*
X168413Y258571D03*
Y268571D03*
X166209Y278098D03*
Y288098D03*
X159594Y336799D03*
Y346799D03*
X152941Y395461D03*
Y405461D03*
X150736Y414988D03*
Y424988D03*
X148531Y434594D03*
Y444594D03*
X146327Y454161D03*
Y464161D03*
X172862Y219437D03*
Y229437D03*
X138610Y578020D03*
Y588020D03*
G54D251*
X485713Y352824D03*
X490713D03*
X495713D03*
X500713D03*
X505713D03*
X510713D03*
X515713D03*
X520713D03*
Y388257D03*
X515713D03*
X510713D03*
X505713D03*
X500713D03*
X495713D03*
X490713D03*
X485713D03*
G54D252*
X450843Y610004D03*
X470134D03*
G54D253*
X536196Y628543D03*
Y647834D03*
X534396Y665843D03*
Y685134D03*
G54D254*
X501481Y590218D03*
X485497D03*
G54D257*
X311500Y482000D03*
X304500D03*
X466500Y355500D03*
X459500D03*
X310000Y234500D03*
X303000D03*
X310500Y358500D03*
X303500D03*
X309500Y612500D03*
X302500D03*
X185500Y233500D03*
X192500D03*
X193249Y248248D03*
X200249D03*
X225249Y278248D03*
X232249D03*
X300000Y327000D03*
X293000D03*
X235249Y408248D03*
X228249D03*
X194500Y515500D03*
X201500D03*
X194000Y650000D03*
X201000D03*
X466949Y484548D03*
X459949D03*
X298000Y445500D03*
X291000D03*
X292000Y577000D03*
X285000D03*
X351500Y382000D03*
X358500D03*
G54D258*
X349349Y237148D03*
Y244148D03*
X440500Y320500D03*
Y327500D03*
X425500Y440500D03*
Y447500D03*
G54D259*
X520479Y575918D03*
X538589D03*
G54D274*
X535500Y712500D03*
Y703500D03*
G54D285*
X507622Y230013D03*
X509591D03*
X511559D03*
X513528D03*
X515496D03*
X517465D03*
X519433D03*
X521402D03*
X523370D03*
X525339D03*
X527307D03*
X529276D03*
Y263083D03*
X527307D03*
X525339D03*
X523370D03*
X521402D03*
X519433D03*
X517465D03*
X515496D03*
X513528D03*
X511559D03*
X509591D03*
X507622D03*
Y454163D03*
X509591D03*
X511559D03*
X513528D03*
X515496D03*
X517465D03*
X519433D03*
X521402D03*
X523370D03*
X525339D03*
X527307D03*
X529276D03*
Y487233D03*
X527307D03*
X525339D03*
X523370D03*
X521402D03*
X519433D03*
X517465D03*
X515496D03*
X513528D03*
X511559D03*
X509591D03*
X507622D03*
G54D286*
X538376Y236469D02*
Y234973D01*
X531593*
Y236469*
X538376*
X531593Y235028D02*
X538376D01*
X531593Y235306D02*
X538376D01*
X531593Y235585D02*
X538376D01*
X531593Y235864D02*
X538376D01*
X531593Y236143D02*
X538376D01*
X531593Y236421D02*
X538376D01*
X531607Y234973D02*
Y236469D01*
X531886Y234973D02*
Y236469D01*
X532165Y234973D02*
Y236469D01*
X532443Y234973D02*
Y236469D01*
X532722Y234973D02*
Y236469D01*
X533001Y234973D02*
Y236469D01*
X533280Y234973D02*
Y236469D01*
X533558Y234973D02*
Y236469D01*
X533837Y234973D02*
Y236469D01*
X534116Y234973D02*
Y236469D01*
X534394Y234973D02*
Y236469D01*
X534673Y234973D02*
Y236469D01*
X534952Y234973D02*
Y236469D01*
X535231Y234973D02*
Y236469D01*
X535509Y234973D02*
Y236469D01*
X535788Y234973D02*
Y236469D01*
X536067Y234973D02*
Y236469D01*
X536346Y234973D02*
Y236469D01*
X536624Y234973D02*
Y236469D01*
X536903Y234973D02*
Y236469D01*
X537182Y234973D02*
Y236469D01*
X537461Y234973D02*
Y236469D01*
X537739Y234973D02*
Y236469D01*
X538018Y234973D02*
Y236469D01*
X538297Y234973D02*
Y236469D01*
X538376Y238438D02*
Y236942D01*
X531593*
Y238438*
X538376*
X531593Y236979D02*
X538376D01*
X531593Y237257D02*
X538376D01*
X531593Y237536D02*
X538376D01*
X531593Y237815D02*
X538376D01*
X531593Y238094D02*
X538376D01*
X531593Y238372D02*
X538376D01*
X531607Y236942D02*
Y238438D01*
X531886Y236942D02*
Y238438D01*
X532165Y236942D02*
Y238438D01*
X532443Y236942D02*
Y238438D01*
X532722Y236942D02*
Y238438D01*
X533001Y236942D02*
Y238438D01*
X533280Y236942D02*
Y238438D01*
X533558Y236942D02*
Y238438D01*
X533837Y236942D02*
Y238438D01*
X534116Y236942D02*
Y238438D01*
X534394Y236942D02*
Y238438D01*
X534673Y236942D02*
Y238438D01*
X534952Y236942D02*
Y238438D01*
X535231Y236942D02*
Y238438D01*
X535509Y236942D02*
Y238438D01*
X535788Y236942D02*
Y238438D01*
X536067Y236942D02*
Y238438D01*
X536346Y236942D02*
Y238438D01*
X536624Y236942D02*
Y238438D01*
X536903Y236942D02*
Y238438D01*
X537182Y236942D02*
Y238438D01*
X537461Y236942D02*
Y238438D01*
X537739Y236942D02*
Y238438D01*
X538018Y236942D02*
Y238438D01*
X538297Y236942D02*
Y238438D01*
X538376Y240406D02*
Y238910D01*
X531593*
Y240406*
X538376*
X531593Y238930D02*
X538376D01*
X531593Y239209D02*
X538376D01*
X531593Y239487D02*
X538376D01*
X531593Y239766D02*
X538376D01*
X531593Y240045D02*
X538376D01*
X531593Y240324D02*
X538376D01*
X531607Y238910D02*
Y240406D01*
X531886Y238910D02*
Y240406D01*
X532165Y238910D02*
Y240406D01*
X532443Y238910D02*
Y240406D01*
X532722Y238910D02*
Y240406D01*
X533001Y238910D02*
Y240406D01*
X533280Y238910D02*
Y240406D01*
X533558Y238910D02*
Y240406D01*
X533837Y238910D02*
Y240406D01*
X534116Y238910D02*
Y240406D01*
X534394Y238910D02*
Y240406D01*
X534673Y238910D02*
Y240406D01*
X534952Y238910D02*
Y240406D01*
X535231Y238910D02*
Y240406D01*
X535509Y238910D02*
Y240406D01*
X535788Y238910D02*
Y240406D01*
X536067Y238910D02*
Y240406D01*
X536346Y238910D02*
Y240406D01*
X536624Y238910D02*
Y240406D01*
X536903Y238910D02*
Y240406D01*
X537182Y238910D02*
Y240406D01*
X537461Y238910D02*
Y240406D01*
X537739Y238910D02*
Y240406D01*
X538018Y238910D02*
Y240406D01*
X538297Y238910D02*
Y240406D01*
X538376Y242375D02*
Y240879D01*
X531593*
Y242375*
X538376*
X531593Y240881D02*
X538376D01*
X531593Y241160D02*
X538376D01*
X531593Y241439D02*
X538376D01*
X531593Y241717D02*
X538376D01*
X531593Y241996D02*
X538376D01*
X531593Y242275D02*
X538376D01*
X531607Y240879D02*
Y242375D01*
X531886Y240879D02*
Y242375D01*
X532165Y240879D02*
Y242375D01*
X532443Y240879D02*
Y242375D01*
X532722Y240879D02*
Y242375D01*
X533001Y240879D02*
Y242375D01*
X533280Y240879D02*
Y242375D01*
X533558Y240879D02*
Y242375D01*
X533837Y240879D02*
Y242375D01*
X534116Y240879D02*
Y242375D01*
X534394Y240879D02*
Y242375D01*
X534673Y240879D02*
Y242375D01*
X534952Y240879D02*
Y242375D01*
X535231Y240879D02*
Y242375D01*
X535509Y240879D02*
Y242375D01*
X535788Y240879D02*
Y242375D01*
X536067Y240879D02*
Y242375D01*
X536346Y240879D02*
Y242375D01*
X536624Y240879D02*
Y242375D01*
X536903Y240879D02*
Y242375D01*
X537182Y240879D02*
Y242375D01*
X537461Y240879D02*
Y242375D01*
X537739Y240879D02*
Y242375D01*
X538018Y240879D02*
Y242375D01*
X538297Y240879D02*
Y242375D01*
X538376Y244343D02*
Y242847D01*
X531593*
Y244343*
X538376*
X531593Y243111D02*
X538376D01*
X531593Y243390D02*
X538376D01*
X531593Y243669D02*
X538376D01*
X531593Y243947D02*
X538376D01*
X531593Y244226D02*
X538376D01*
X531607Y242847D02*
Y244343D01*
X531886Y242847D02*
Y244343D01*
X532165Y242847D02*
Y244343D01*
X532443Y242847D02*
Y244343D01*
X532722Y242847D02*
Y244343D01*
X533001Y242847D02*
Y244343D01*
X533280Y242847D02*
Y244343D01*
X533558Y242847D02*
Y244343D01*
X533837Y242847D02*
Y244343D01*
X534116Y242847D02*
Y244343D01*
X534394Y242847D02*
Y244343D01*
X534673Y242847D02*
Y244343D01*
X534952Y242847D02*
Y244343D01*
X535231Y242847D02*
Y244343D01*
X535509Y242847D02*
Y244343D01*
X535788Y242847D02*
Y244343D01*
X536067Y242847D02*
Y244343D01*
X536346Y242847D02*
Y244343D01*
X536624Y242847D02*
Y244343D01*
X536903Y242847D02*
Y244343D01*
X537182Y242847D02*
Y244343D01*
X537461Y242847D02*
Y244343D01*
X537739Y242847D02*
Y244343D01*
X538018Y242847D02*
Y244343D01*
X538297Y242847D02*
Y244343D01*
X538376Y246312D02*
Y244816D01*
X531593*
Y246312*
X538376*
X531593Y245062D02*
X538376D01*
X531593Y245341D02*
X538376D01*
X531593Y245620D02*
X538376D01*
X531593Y245898D02*
X538376D01*
X531593Y246177D02*
X538376D01*
X531607Y244816D02*
Y246312D01*
X531886Y244816D02*
Y246312D01*
X532165Y244816D02*
Y246312D01*
X532443Y244816D02*
Y246312D01*
X532722Y244816D02*
Y246312D01*
X533001Y244816D02*
Y246312D01*
X533280Y244816D02*
Y246312D01*
X533558Y244816D02*
Y246312D01*
X533837Y244816D02*
Y246312D01*
X534116Y244816D02*
Y246312D01*
X534394Y244816D02*
Y246312D01*
X534673Y244816D02*
Y246312D01*
X534952Y244816D02*
Y246312D01*
X535231Y244816D02*
Y246312D01*
X535509Y244816D02*
Y246312D01*
X535788Y244816D02*
Y246312D01*
X536067Y244816D02*
Y246312D01*
X536346Y244816D02*
Y246312D01*
X536624Y244816D02*
Y246312D01*
X536903Y244816D02*
Y246312D01*
X537182Y244816D02*
Y246312D01*
X537461Y244816D02*
Y246312D01*
X537739Y244816D02*
Y246312D01*
X538018Y244816D02*
Y246312D01*
X538297Y244816D02*
Y246312D01*
X538376Y248280D02*
Y246784D01*
X531593*
Y248280*
X538376*
X531593Y247013D02*
X538376D01*
X531593Y247292D02*
X538376D01*
X531593Y247571D02*
X538376D01*
X531593Y247850D02*
X538376D01*
X531593Y248128D02*
X538376D01*
X531607Y246784D02*
Y248280D01*
X531886Y246784D02*
Y248280D01*
X532165Y246784D02*
Y248280D01*
X532443Y246784D02*
Y248280D01*
X532722Y246784D02*
Y248280D01*
X533001Y246784D02*
Y248280D01*
X533280Y246784D02*
Y248280D01*
X533558Y246784D02*
Y248280D01*
X533837Y246784D02*
Y248280D01*
X534116Y246784D02*
Y248280D01*
X534394Y246784D02*
Y248280D01*
X534673Y246784D02*
Y248280D01*
X534952Y246784D02*
Y248280D01*
X535231Y246784D02*
Y248280D01*
X535509Y246784D02*
Y248280D01*
X535788Y246784D02*
Y248280D01*
X536067Y246784D02*
Y248280D01*
X536346Y246784D02*
Y248280D01*
X536624Y246784D02*
Y248280D01*
X536903Y246784D02*
Y248280D01*
X537182Y246784D02*
Y248280D01*
X537461Y246784D02*
Y248280D01*
X537739Y246784D02*
Y248280D01*
X538018Y246784D02*
Y248280D01*
X538297Y246784D02*
Y248280D01*
X538376Y250249D02*
Y248753D01*
X531593*
Y250249*
X538376*
X531593Y248965D02*
X538376D01*
X531593Y249243D02*
X538376D01*
X531593Y249522D02*
X538376D01*
X531593Y249801D02*
X538376D01*
X531593Y250080D02*
X538376D01*
X531607Y248753D02*
Y250249D01*
X531886Y248753D02*
Y250249D01*
X532165Y248753D02*
Y250249D01*
X532443Y248753D02*
Y250249D01*
X532722Y248753D02*
Y250249D01*
X533001Y248753D02*
Y250249D01*
X533280Y248753D02*
Y250249D01*
X533558Y248753D02*
Y250249D01*
X533837Y248753D02*
Y250249D01*
X534116Y248753D02*
Y250249D01*
X534394Y248753D02*
Y250249D01*
X534673Y248753D02*
Y250249D01*
X534952Y248753D02*
Y250249D01*
X535231Y248753D02*
Y250249D01*
X535509Y248753D02*
Y250249D01*
X535788Y248753D02*
Y250249D01*
X536067Y248753D02*
Y250249D01*
X536346Y248753D02*
Y250249D01*
X536624Y248753D02*
Y250249D01*
X536903Y248753D02*
Y250249D01*
X537182Y248753D02*
Y250249D01*
X537461Y248753D02*
Y250249D01*
X537739Y248753D02*
Y250249D01*
X538018Y248753D02*
Y250249D01*
X538297Y248753D02*
Y250249D01*
X538376Y252217D02*
Y250721D01*
X531593*
Y252217*
X538376*
X531593Y250916D02*
X538376D01*
X531593Y251194D02*
X538376D01*
X531593Y251473D02*
X538376D01*
X531593Y251752D02*
X538376D01*
X531593Y252031D02*
X538376D01*
X531607Y250721D02*
Y252217D01*
X531886Y250721D02*
Y252217D01*
X532165Y250721D02*
Y252217D01*
X532443Y250721D02*
Y252217D01*
X532722Y250721D02*
Y252217D01*
X533001Y250721D02*
Y252217D01*
X533280Y250721D02*
Y252217D01*
X533558Y250721D02*
Y252217D01*
X533837Y250721D02*
Y252217D01*
X534116Y250721D02*
Y252217D01*
X534394Y250721D02*
Y252217D01*
X534673Y250721D02*
Y252217D01*
X534952Y250721D02*
Y252217D01*
X535231Y250721D02*
Y252217D01*
X535509Y250721D02*
Y252217D01*
X535788Y250721D02*
Y252217D01*
X536067Y250721D02*
Y252217D01*
X536346Y250721D02*
Y252217D01*
X536624Y250721D02*
Y252217D01*
X536903Y250721D02*
Y252217D01*
X537182Y250721D02*
Y252217D01*
X537461Y250721D02*
Y252217D01*
X537739Y250721D02*
Y252217D01*
X538018Y250721D02*
Y252217D01*
X538297Y250721D02*
Y252217D01*
X538376Y254186D02*
Y252690D01*
X531593*
Y254186*
X538376*
X531593Y252867D02*
X538376D01*
X531593Y253146D02*
X538376D01*
X531593Y253424D02*
X538376D01*
X531593Y253703D02*
X538376D01*
X531593Y253982D02*
X538376D01*
X531607Y252690D02*
Y254186D01*
X531886Y252690D02*
Y254186D01*
X532165Y252690D02*
Y254186D01*
X532443Y252690D02*
Y254186D01*
X532722Y252690D02*
Y254186D01*
X533001Y252690D02*
Y254186D01*
X533280Y252690D02*
Y254186D01*
X533558Y252690D02*
Y254186D01*
X533837Y252690D02*
Y254186D01*
X534116Y252690D02*
Y254186D01*
X534394Y252690D02*
Y254186D01*
X534673Y252690D02*
Y254186D01*
X534952Y252690D02*
Y254186D01*
X535231Y252690D02*
Y254186D01*
X535509Y252690D02*
Y254186D01*
X535788Y252690D02*
Y254186D01*
X536067Y252690D02*
Y254186D01*
X536346Y252690D02*
Y254186D01*
X536624Y252690D02*
Y254186D01*
X536903Y252690D02*
Y254186D01*
X537182Y252690D02*
Y254186D01*
X537461Y252690D02*
Y254186D01*
X537739Y252690D02*
Y254186D01*
X538018Y252690D02*
Y254186D01*
X538297Y252690D02*
Y254186D01*
X538376Y256154D02*
Y254658D01*
X531593*
Y256154*
X538376*
X531593Y254818D02*
X538376D01*
X531593Y255097D02*
X538376D01*
X531593Y255376D02*
X538376D01*
X531593Y255654D02*
X538376D01*
X531593Y255933D02*
X538376D01*
X531607Y254658D02*
Y256154D01*
X531886Y254658D02*
Y256154D01*
X532165Y254658D02*
Y256154D01*
X532443Y254658D02*
Y256154D01*
X532722Y254658D02*
Y256154D01*
X533001Y254658D02*
Y256154D01*
X533280Y254658D02*
Y256154D01*
X533558Y254658D02*
Y256154D01*
X533837Y254658D02*
Y256154D01*
X534116Y254658D02*
Y256154D01*
X534394Y254658D02*
Y256154D01*
X534673Y254658D02*
Y256154D01*
X534952Y254658D02*
Y256154D01*
X535231Y254658D02*
Y256154D01*
X535509Y254658D02*
Y256154D01*
X535788Y254658D02*
Y256154D01*
X536067Y254658D02*
Y256154D01*
X536346Y254658D02*
Y256154D01*
X536624Y254658D02*
Y256154D01*
X536903Y254658D02*
Y256154D01*
X537182Y254658D02*
Y256154D01*
X537461Y254658D02*
Y256154D01*
X537739Y254658D02*
Y256154D01*
X538018Y254658D02*
Y256154D01*
X538297Y254658D02*
Y256154D01*
X538376Y258123D02*
Y256627D01*
X531593*
Y258123*
X538376*
X531593Y256769D02*
X538376D01*
X531593Y257048D02*
X538376D01*
X531593Y257327D02*
X538376D01*
X531593Y257606D02*
X538376D01*
X531593Y257884D02*
X538376D01*
X531607Y256627D02*
Y258123D01*
X531886Y256627D02*
Y258123D01*
X532165Y256627D02*
Y258123D01*
X532443Y256627D02*
Y258123D01*
X532722Y256627D02*
Y258123D01*
X533001Y256627D02*
Y258123D01*
X533280Y256627D02*
Y258123D01*
X533558Y256627D02*
Y258123D01*
X533837Y256627D02*
Y258123D01*
X534116Y256627D02*
Y258123D01*
X534394Y256627D02*
Y258123D01*
X534673Y256627D02*
Y258123D01*
X534952Y256627D02*
Y258123D01*
X535231Y256627D02*
Y258123D01*
X535509Y256627D02*
Y258123D01*
X535788Y256627D02*
Y258123D01*
X536067Y256627D02*
Y258123D01*
X536346Y256627D02*
Y258123D01*
X536624Y256627D02*
Y258123D01*
X536903Y256627D02*
Y258123D01*
X537182Y256627D02*
Y258123D01*
X537461Y256627D02*
Y258123D01*
X537739Y256627D02*
Y258123D01*
X538018Y256627D02*
Y258123D01*
X538297Y256627D02*
Y258123D01*
X505305D02*
Y256627D01*
X498522*
Y258123*
X505305*
X498522Y256769D02*
X505305D01*
X498522Y257048D02*
X505305D01*
X498522Y257327D02*
X505305D01*
X498522Y257606D02*
X505305D01*
X498522Y257884D02*
X505305D01*
X498716Y256627D02*
Y258123D01*
X498994Y256627D02*
Y258123D01*
X499273Y256627D02*
Y258123D01*
X499552Y256627D02*
Y258123D01*
X499831Y256627D02*
Y258123D01*
X500109Y256627D02*
Y258123D01*
X500388Y256627D02*
Y258123D01*
X500667Y256627D02*
Y258123D01*
X500946Y256627D02*
Y258123D01*
X501224Y256627D02*
Y258123D01*
X501503Y256627D02*
Y258123D01*
X501782Y256627D02*
Y258123D01*
X502061Y256627D02*
Y258123D01*
X502339Y256627D02*
Y258123D01*
X502618Y256627D02*
Y258123D01*
X502897Y256627D02*
Y258123D01*
X503176Y256627D02*
Y258123D01*
X503454Y256627D02*
Y258123D01*
X503733Y256627D02*
Y258123D01*
X504012Y256627D02*
Y258123D01*
X504291Y256627D02*
Y258123D01*
X504569Y256627D02*
Y258123D01*
X504848Y256627D02*
Y258123D01*
X505127Y256627D02*
Y258123D01*
X505305Y256154D02*
Y254658D01*
X498522*
Y256154*
X505305*
X498522Y254818D02*
X505305D01*
X498522Y255097D02*
X505305D01*
X498522Y255376D02*
X505305D01*
X498522Y255654D02*
X505305D01*
X498522Y255933D02*
X505305D01*
X498716Y254658D02*
Y256154D01*
X498994Y254658D02*
Y256154D01*
X499273Y254658D02*
Y256154D01*
X499552Y254658D02*
Y256154D01*
X499831Y254658D02*
Y256154D01*
X500109Y254658D02*
Y256154D01*
X500388Y254658D02*
Y256154D01*
X500667Y254658D02*
Y256154D01*
X500946Y254658D02*
Y256154D01*
X501224Y254658D02*
Y256154D01*
X501503Y254658D02*
Y256154D01*
X501782Y254658D02*
Y256154D01*
X502061Y254658D02*
Y256154D01*
X502339Y254658D02*
Y256154D01*
X502618Y254658D02*
Y256154D01*
X502897Y254658D02*
Y256154D01*
X503176Y254658D02*
Y256154D01*
X503454Y254658D02*
Y256154D01*
X503733Y254658D02*
Y256154D01*
X504012Y254658D02*
Y256154D01*
X504291Y254658D02*
Y256154D01*
X504569Y254658D02*
Y256154D01*
X504848Y254658D02*
Y256154D01*
X505127Y254658D02*
Y256154D01*
X505305Y254186D02*
Y252690D01*
X498522*
Y254186*
X505305*
X498522Y252867D02*
X505305D01*
X498522Y253146D02*
X505305D01*
X498522Y253424D02*
X505305D01*
X498522Y253703D02*
X505305D01*
X498522Y253982D02*
X505305D01*
X498716Y252690D02*
Y254186D01*
X498994Y252690D02*
Y254186D01*
X499273Y252690D02*
Y254186D01*
X499552Y252690D02*
Y254186D01*
X499831Y252690D02*
Y254186D01*
X500109Y252690D02*
Y254186D01*
X500388Y252690D02*
Y254186D01*
X500667Y252690D02*
Y254186D01*
X500946Y252690D02*
Y254186D01*
X501224Y252690D02*
Y254186D01*
X501503Y252690D02*
Y254186D01*
X501782Y252690D02*
Y254186D01*
X502061Y252690D02*
Y254186D01*
X502339Y252690D02*
Y254186D01*
X502618Y252690D02*
Y254186D01*
X502897Y252690D02*
Y254186D01*
X503176Y252690D02*
Y254186D01*
X503454Y252690D02*
Y254186D01*
X503733Y252690D02*
Y254186D01*
X504012Y252690D02*
Y254186D01*
X504291Y252690D02*
Y254186D01*
X504569Y252690D02*
Y254186D01*
X504848Y252690D02*
Y254186D01*
X505127Y252690D02*
Y254186D01*
X505305Y252217D02*
Y250721D01*
X498522*
Y252217*
X505305*
X498522Y250916D02*
X505305D01*
X498522Y251194D02*
X505305D01*
X498522Y251473D02*
X505305D01*
X498522Y251752D02*
X505305D01*
X498522Y252031D02*
X505305D01*
X498716Y250721D02*
Y252217D01*
X498994Y250721D02*
Y252217D01*
X499273Y250721D02*
Y252217D01*
X499552Y250721D02*
Y252217D01*
X499831Y250721D02*
Y252217D01*
X500109Y250721D02*
Y252217D01*
X500388Y250721D02*
Y252217D01*
X500667Y250721D02*
Y252217D01*
X500946Y250721D02*
Y252217D01*
X501224Y250721D02*
Y252217D01*
X501503Y250721D02*
Y252217D01*
X501782Y250721D02*
Y252217D01*
X502061Y250721D02*
Y252217D01*
X502339Y250721D02*
Y252217D01*
X502618Y250721D02*
Y252217D01*
X502897Y250721D02*
Y252217D01*
X503176Y250721D02*
Y252217D01*
X503454Y250721D02*
Y252217D01*
X503733Y250721D02*
Y252217D01*
X504012Y250721D02*
Y252217D01*
X504291Y250721D02*
Y252217D01*
X504569Y250721D02*
Y252217D01*
X504848Y250721D02*
Y252217D01*
X505127Y250721D02*
Y252217D01*
X505305Y250249D02*
Y248753D01*
X498522*
Y250249*
X505305*
X498522Y248965D02*
X505305D01*
X498522Y249243D02*
X505305D01*
X498522Y249522D02*
X505305D01*
X498522Y249801D02*
X505305D01*
X498522Y250080D02*
X505305D01*
X498716Y248753D02*
Y250249D01*
X498994Y248753D02*
Y250249D01*
X499273Y248753D02*
Y250249D01*
X499552Y248753D02*
Y250249D01*
X499831Y248753D02*
Y250249D01*
X500109Y248753D02*
Y250249D01*
X500388Y248753D02*
Y250249D01*
X500667Y248753D02*
Y250249D01*
X500946Y248753D02*
Y250249D01*
X501224Y248753D02*
Y250249D01*
X501503Y248753D02*
Y250249D01*
X501782Y248753D02*
Y250249D01*
X502061Y248753D02*
Y250249D01*
X502339Y248753D02*
Y250249D01*
X502618Y248753D02*
Y250249D01*
X502897Y248753D02*
Y250249D01*
X503176Y248753D02*
Y250249D01*
X503454Y248753D02*
Y250249D01*
X503733Y248753D02*
Y250249D01*
X504012Y248753D02*
Y250249D01*
X504291Y248753D02*
Y250249D01*
X504569Y248753D02*
Y250249D01*
X504848Y248753D02*
Y250249D01*
X505127Y248753D02*
Y250249D01*
X505305Y248280D02*
Y246784D01*
X498522*
Y248280*
X505305*
X498522Y247013D02*
X505305D01*
X498522Y247292D02*
X505305D01*
X498522Y247571D02*
X505305D01*
X498522Y247850D02*
X505305D01*
X498522Y248128D02*
X505305D01*
X498716Y246784D02*
Y248280D01*
X498994Y246784D02*
Y248280D01*
X499273Y246784D02*
Y248280D01*
X499552Y246784D02*
Y248280D01*
X499831Y246784D02*
Y248280D01*
X500109Y246784D02*
Y248280D01*
X500388Y246784D02*
Y248280D01*
X500667Y246784D02*
Y248280D01*
X500946Y246784D02*
Y248280D01*
X501224Y246784D02*
Y248280D01*
X501503Y246784D02*
Y248280D01*
X501782Y246784D02*
Y248280D01*
X502061Y246784D02*
Y248280D01*
X502339Y246784D02*
Y248280D01*
X502618Y246784D02*
Y248280D01*
X502897Y246784D02*
Y248280D01*
X503176Y246784D02*
Y248280D01*
X503454Y246784D02*
Y248280D01*
X503733Y246784D02*
Y248280D01*
X504012Y246784D02*
Y248280D01*
X504291Y246784D02*
Y248280D01*
X504569Y246784D02*
Y248280D01*
X504848Y246784D02*
Y248280D01*
X505127Y246784D02*
Y248280D01*
X505305Y246312D02*
Y244816D01*
X498522*
Y246312*
X505305*
X498522Y245062D02*
X505305D01*
X498522Y245341D02*
X505305D01*
X498522Y245620D02*
X505305D01*
X498522Y245898D02*
X505305D01*
X498522Y246177D02*
X505305D01*
X498716Y244816D02*
Y246312D01*
X498994Y244816D02*
Y246312D01*
X499273Y244816D02*
Y246312D01*
X499552Y244816D02*
Y246312D01*
X499831Y244816D02*
Y246312D01*
X500109Y244816D02*
Y246312D01*
X500388Y244816D02*
Y246312D01*
X500667Y244816D02*
Y246312D01*
X500946Y244816D02*
Y246312D01*
X501224Y244816D02*
Y246312D01*
X501503Y244816D02*
Y246312D01*
X501782Y244816D02*
Y246312D01*
X502061Y244816D02*
Y246312D01*
X502339Y244816D02*
Y246312D01*
X502618Y244816D02*
Y246312D01*
X502897Y244816D02*
Y246312D01*
X503176Y244816D02*
Y246312D01*
X503454Y244816D02*
Y246312D01*
X503733Y244816D02*
Y246312D01*
X504012Y244816D02*
Y246312D01*
X504291Y244816D02*
Y246312D01*
X504569Y244816D02*
Y246312D01*
X504848Y244816D02*
Y246312D01*
X505127Y244816D02*
Y246312D01*
X505305Y244343D02*
Y242847D01*
X498522*
Y244343*
X505305*
X498522Y243111D02*
X505305D01*
X498522Y243390D02*
X505305D01*
X498522Y243669D02*
X505305D01*
X498522Y243947D02*
X505305D01*
X498522Y244226D02*
X505305D01*
X498716Y242847D02*
Y244343D01*
X498994Y242847D02*
Y244343D01*
X499273Y242847D02*
Y244343D01*
X499552Y242847D02*
Y244343D01*
X499831Y242847D02*
Y244343D01*
X500109Y242847D02*
Y244343D01*
X500388Y242847D02*
Y244343D01*
X500667Y242847D02*
Y244343D01*
X500946Y242847D02*
Y244343D01*
X501224Y242847D02*
Y244343D01*
X501503Y242847D02*
Y244343D01*
X501782Y242847D02*
Y244343D01*
X502061Y242847D02*
Y244343D01*
X502339Y242847D02*
Y244343D01*
X502618Y242847D02*
Y244343D01*
X502897Y242847D02*
Y244343D01*
X503176Y242847D02*
Y244343D01*
X503454Y242847D02*
Y244343D01*
X503733Y242847D02*
Y244343D01*
X504012Y242847D02*
Y244343D01*
X504291Y242847D02*
Y244343D01*
X504569Y242847D02*
Y244343D01*
X504848Y242847D02*
Y244343D01*
X505127Y242847D02*
Y244343D01*
X505305Y242375D02*
Y240879D01*
X498522*
Y242375*
X505305*
X498522Y240881D02*
X505305D01*
X498522Y241160D02*
X505305D01*
X498522Y241439D02*
X505305D01*
X498522Y241717D02*
X505305D01*
X498522Y241996D02*
X505305D01*
X498522Y242275D02*
X505305D01*
X498716Y240879D02*
Y242375D01*
X498994Y240879D02*
Y242375D01*
X499273Y240879D02*
Y242375D01*
X499552Y240879D02*
Y242375D01*
X499831Y240879D02*
Y242375D01*
X500109Y240879D02*
Y242375D01*
X500388Y240879D02*
Y242375D01*
X500667Y240879D02*
Y242375D01*
X500946Y240879D02*
Y242375D01*
X501224Y240879D02*
Y242375D01*
X501503Y240879D02*
Y242375D01*
X501782Y240879D02*
Y242375D01*
X502061Y240879D02*
Y242375D01*
X502339Y240879D02*
Y242375D01*
X502618Y240879D02*
Y242375D01*
X502897Y240879D02*
Y242375D01*
X503176Y240879D02*
Y242375D01*
X503454Y240879D02*
Y242375D01*
X503733Y240879D02*
Y242375D01*
X504012Y240879D02*
Y242375D01*
X504291Y240879D02*
Y242375D01*
X504569Y240879D02*
Y242375D01*
X504848Y240879D02*
Y242375D01*
X505127Y240879D02*
Y242375D01*
X505305Y240406D02*
Y238910D01*
X498522*
Y240406*
X505305*
X498522Y238930D02*
X505305D01*
X498522Y239209D02*
X505305D01*
X498522Y239487D02*
X505305D01*
X498522Y239766D02*
X505305D01*
X498522Y240045D02*
X505305D01*
X498522Y240324D02*
X505305D01*
X498716Y238910D02*
Y240406D01*
X498994Y238910D02*
Y240406D01*
X499273Y238910D02*
Y240406D01*
X499552Y238910D02*
Y240406D01*
X499831Y238910D02*
Y240406D01*
X500109Y238910D02*
Y240406D01*
X500388Y238910D02*
Y240406D01*
X500667Y238910D02*
Y240406D01*
X500946Y238910D02*
Y240406D01*
X501224Y238910D02*
Y240406D01*
X501503Y238910D02*
Y240406D01*
X501782Y238910D02*
Y240406D01*
X502061Y238910D02*
Y240406D01*
X502339Y238910D02*
Y240406D01*
X502618Y238910D02*
Y240406D01*
X502897Y238910D02*
Y240406D01*
X503176Y238910D02*
Y240406D01*
X503454Y238910D02*
Y240406D01*
X503733Y238910D02*
Y240406D01*
X504012Y238910D02*
Y240406D01*
X504291Y238910D02*
Y240406D01*
X504569Y238910D02*
Y240406D01*
X504848Y238910D02*
Y240406D01*
X505127Y238910D02*
Y240406D01*
X505305Y238438D02*
Y236942D01*
X498522*
Y238438*
X505305*
X498522Y236979D02*
X505305D01*
X498522Y237257D02*
X505305D01*
X498522Y237536D02*
X505305D01*
X498522Y237815D02*
X505305D01*
X498522Y238094D02*
X505305D01*
X498522Y238372D02*
X505305D01*
X498716Y236942D02*
Y238438D01*
X498994Y236942D02*
Y238438D01*
X499273Y236942D02*
Y238438D01*
X499552Y236942D02*
Y238438D01*
X499831Y236942D02*
Y238438D01*
X500109Y236942D02*
Y238438D01*
X500388Y236942D02*
Y238438D01*
X500667Y236942D02*
Y238438D01*
X500946Y236942D02*
Y238438D01*
X501224Y236942D02*
Y238438D01*
X501503Y236942D02*
Y238438D01*
X501782Y236942D02*
Y238438D01*
X502061Y236942D02*
Y238438D01*
X502339Y236942D02*
Y238438D01*
X502618Y236942D02*
Y238438D01*
X502897Y236942D02*
Y238438D01*
X503176Y236942D02*
Y238438D01*
X503454Y236942D02*
Y238438D01*
X503733Y236942D02*
Y238438D01*
X504012Y236942D02*
Y238438D01*
X504291Y236942D02*
Y238438D01*
X504569Y236942D02*
Y238438D01*
X504848Y236942D02*
Y238438D01*
X505127Y236942D02*
Y238438D01*
X505305Y236469D02*
Y234973D01*
X498522*
Y236469*
X505305*
X498522Y235028D02*
X505305D01*
X498522Y235306D02*
X505305D01*
X498522Y235585D02*
X505305D01*
X498522Y235864D02*
X505305D01*
X498522Y236143D02*
X505305D01*
X498522Y236421D02*
X505305D01*
X498716Y234973D02*
Y236469D01*
X498994Y234973D02*
Y236469D01*
X499273Y234973D02*
Y236469D01*
X499552Y234973D02*
Y236469D01*
X499831Y234973D02*
Y236469D01*
X500109Y234973D02*
Y236469D01*
X500388Y234973D02*
Y236469D01*
X500667Y234973D02*
Y236469D01*
X500946Y234973D02*
Y236469D01*
X501224Y234973D02*
Y236469D01*
X501503Y234973D02*
Y236469D01*
X501782Y234973D02*
Y236469D01*
X502061Y234973D02*
Y236469D01*
X502339Y234973D02*
Y236469D01*
X502618Y234973D02*
Y236469D01*
X502897Y234973D02*
Y236469D01*
X503176Y234973D02*
Y236469D01*
X503454Y234973D02*
Y236469D01*
X503733Y234973D02*
Y236469D01*
X504012Y234973D02*
Y236469D01*
X504291Y234973D02*
Y236469D01*
X504569Y234973D02*
Y236469D01*
X504848Y234973D02*
Y236469D01*
X505127Y234973D02*
Y236469D01*
X538376Y460619D02*
Y459123D01*
X531593*
Y460619*
X538376*
X531593Y459135D02*
X538376D01*
X531593Y459413D02*
X538376D01*
X531593Y459692D02*
X538376D01*
X531593Y459971D02*
X538376D01*
X531593Y460250D02*
X538376D01*
X531593Y460528D02*
X538376D01*
X531607Y459123D02*
Y460619D01*
X531886Y459123D02*
Y460619D01*
X532165Y459123D02*
Y460619D01*
X532443Y459123D02*
Y460619D01*
X532722Y459123D02*
Y460619D01*
X533001Y459123D02*
Y460619D01*
X533280Y459123D02*
Y460619D01*
X533558Y459123D02*
Y460619D01*
X533837Y459123D02*
Y460619D01*
X534116Y459123D02*
Y460619D01*
X534394Y459123D02*
Y460619D01*
X534673Y459123D02*
Y460619D01*
X534952Y459123D02*
Y460619D01*
X535231Y459123D02*
Y460619D01*
X535509Y459123D02*
Y460619D01*
X535788Y459123D02*
Y460619D01*
X536067Y459123D02*
Y460619D01*
X536346Y459123D02*
Y460619D01*
X536624Y459123D02*
Y460619D01*
X536903Y459123D02*
Y460619D01*
X537182Y459123D02*
Y460619D01*
X537461Y459123D02*
Y460619D01*
X537739Y459123D02*
Y460619D01*
X538018Y459123D02*
Y460619D01*
X538297Y459123D02*
Y460619D01*
X538376Y462588D02*
Y461092D01*
X531593*
Y462588*
X538376*
X531593Y461365D02*
X538376D01*
X531593Y461643D02*
X538376D01*
X531593Y461922D02*
X538376D01*
X531593Y462201D02*
X538376D01*
X531593Y462480D02*
X538376D01*
X531607Y461092D02*
Y462588D01*
X531886Y461092D02*
Y462588D01*
X532165Y461092D02*
Y462588D01*
X532443Y461092D02*
Y462588D01*
X532722Y461092D02*
Y462588D01*
X533001Y461092D02*
Y462588D01*
X533280Y461092D02*
Y462588D01*
X533558Y461092D02*
Y462588D01*
X533837Y461092D02*
Y462588D01*
X534116Y461092D02*
Y462588D01*
X534394Y461092D02*
Y462588D01*
X534673Y461092D02*
Y462588D01*
X534952Y461092D02*
Y462588D01*
X535231Y461092D02*
Y462588D01*
X535509Y461092D02*
Y462588D01*
X535788Y461092D02*
Y462588D01*
X536067Y461092D02*
Y462588D01*
X536346Y461092D02*
Y462588D01*
X536624Y461092D02*
Y462588D01*
X536903Y461092D02*
Y462588D01*
X537182Y461092D02*
Y462588D01*
X537461Y461092D02*
Y462588D01*
X537739Y461092D02*
Y462588D01*
X538018Y461092D02*
Y462588D01*
X538297Y461092D02*
Y462588D01*
X538376Y464556D02*
Y463060D01*
X531593*
Y464556*
X538376*
X531593Y463316D02*
X538376D01*
X531593Y463594D02*
X538376D01*
X531593Y463873D02*
X538376D01*
X531593Y464152D02*
X538376D01*
X531593Y464431D02*
X538376D01*
X531607Y463060D02*
Y464556D01*
X531886Y463060D02*
Y464556D01*
X532165Y463060D02*
Y464556D01*
X532443Y463060D02*
Y464556D01*
X532722Y463060D02*
Y464556D01*
X533001Y463060D02*
Y464556D01*
X533280Y463060D02*
Y464556D01*
X533558Y463060D02*
Y464556D01*
X533837Y463060D02*
Y464556D01*
X534116Y463060D02*
Y464556D01*
X534394Y463060D02*
Y464556D01*
X534673Y463060D02*
Y464556D01*
X534952Y463060D02*
Y464556D01*
X535231Y463060D02*
Y464556D01*
X535509Y463060D02*
Y464556D01*
X535788Y463060D02*
Y464556D01*
X536067Y463060D02*
Y464556D01*
X536346Y463060D02*
Y464556D01*
X536624Y463060D02*
Y464556D01*
X536903Y463060D02*
Y464556D01*
X537182Y463060D02*
Y464556D01*
X537461Y463060D02*
Y464556D01*
X537739Y463060D02*
Y464556D01*
X538018Y463060D02*
Y464556D01*
X538297Y463060D02*
Y464556D01*
X538376Y466525D02*
Y465029D01*
X531593*
Y466525*
X538376*
X531593Y465267D02*
X538376D01*
X531593Y465546D02*
X538376D01*
X531593Y465824D02*
X538376D01*
X531593Y466103D02*
X538376D01*
X531593Y466382D02*
X538376D01*
X531607Y465029D02*
Y466525D01*
X531886Y465029D02*
Y466525D01*
X532165Y465029D02*
Y466525D01*
X532443Y465029D02*
Y466525D01*
X532722Y465029D02*
Y466525D01*
X533001Y465029D02*
Y466525D01*
X533280Y465029D02*
Y466525D01*
X533558Y465029D02*
Y466525D01*
X533837Y465029D02*
Y466525D01*
X534116Y465029D02*
Y466525D01*
X534394Y465029D02*
Y466525D01*
X534673Y465029D02*
Y466525D01*
X534952Y465029D02*
Y466525D01*
X535231Y465029D02*
Y466525D01*
X535509Y465029D02*
Y466525D01*
X535788Y465029D02*
Y466525D01*
X536067Y465029D02*
Y466525D01*
X536346Y465029D02*
Y466525D01*
X536624Y465029D02*
Y466525D01*
X536903Y465029D02*
Y466525D01*
X537182Y465029D02*
Y466525D01*
X537461Y465029D02*
Y466525D01*
X537739Y465029D02*
Y466525D01*
X538018Y465029D02*
Y466525D01*
X538297Y465029D02*
Y466525D01*
X538376Y468493D02*
Y466997D01*
X531593*
Y468493*
X538376*
X531593Y467218D02*
X538376D01*
X531593Y467497D02*
X538376D01*
X531593Y467776D02*
X538376D01*
X531593Y468054D02*
X538376D01*
X531593Y468333D02*
X538376D01*
X531607Y466997D02*
Y468493D01*
X531886Y466997D02*
Y468493D01*
X532165Y466997D02*
Y468493D01*
X532443Y466997D02*
Y468493D01*
X532722Y466997D02*
Y468493D01*
X533001Y466997D02*
Y468493D01*
X533280Y466997D02*
Y468493D01*
X533558Y466997D02*
Y468493D01*
X533837Y466997D02*
Y468493D01*
X534116Y466997D02*
Y468493D01*
X534394Y466997D02*
Y468493D01*
X534673Y466997D02*
Y468493D01*
X534952Y466997D02*
Y468493D01*
X535231Y466997D02*
Y468493D01*
X535509Y466997D02*
Y468493D01*
X535788Y466997D02*
Y468493D01*
X536067Y466997D02*
Y468493D01*
X536346Y466997D02*
Y468493D01*
X536624Y466997D02*
Y468493D01*
X536903Y466997D02*
Y468493D01*
X537182Y466997D02*
Y468493D01*
X537461Y466997D02*
Y468493D01*
X537739Y466997D02*
Y468493D01*
X538018Y466997D02*
Y468493D01*
X538297Y466997D02*
Y468493D01*
X538376Y470462D02*
Y468966D01*
X531593*
Y470462*
X538376*
X531593Y469169D02*
X538376D01*
X531593Y469448D02*
X538376D01*
X531593Y469727D02*
X538376D01*
X531593Y470006D02*
X538376D01*
X531593Y470284D02*
X538376D01*
X531607Y468966D02*
Y470462D01*
X531886Y468966D02*
Y470462D01*
X532165Y468966D02*
Y470462D01*
X532443Y468966D02*
Y470462D01*
X532722Y468966D02*
Y470462D01*
X533001Y468966D02*
Y470462D01*
X533280Y468966D02*
Y470462D01*
X533558Y468966D02*
Y470462D01*
X533837Y468966D02*
Y470462D01*
X534116Y468966D02*
Y470462D01*
X534394Y468966D02*
Y470462D01*
X534673Y468966D02*
Y470462D01*
X534952Y468966D02*
Y470462D01*
X535231Y468966D02*
Y470462D01*
X535509Y468966D02*
Y470462D01*
X535788Y468966D02*
Y470462D01*
X536067Y468966D02*
Y470462D01*
X536346Y468966D02*
Y470462D01*
X536624Y468966D02*
Y470462D01*
X536903Y468966D02*
Y470462D01*
X537182Y468966D02*
Y470462D01*
X537461Y468966D02*
Y470462D01*
X537739Y468966D02*
Y470462D01*
X538018Y468966D02*
Y470462D01*
X538297Y468966D02*
Y470462D01*
X538376Y472430D02*
Y470934D01*
X531593*
Y472430*
X538376*
X531593Y471120D02*
X538376D01*
X531593Y471399D02*
X538376D01*
X531593Y471678D02*
X538376D01*
X531593Y471957D02*
X538376D01*
X531593Y472235D02*
X538376D01*
X531607Y470934D02*
Y472430D01*
X531886Y470934D02*
Y472430D01*
X532165Y470934D02*
Y472430D01*
X532443Y470934D02*
Y472430D01*
X532722Y470934D02*
Y472430D01*
X533001Y470934D02*
Y472430D01*
X533280Y470934D02*
Y472430D01*
X533558Y470934D02*
Y472430D01*
X533837Y470934D02*
Y472430D01*
X534116Y470934D02*
Y472430D01*
X534394Y470934D02*
Y472430D01*
X534673Y470934D02*
Y472430D01*
X534952Y470934D02*
Y472430D01*
X535231Y470934D02*
Y472430D01*
X535509Y470934D02*
Y472430D01*
X535788Y470934D02*
Y472430D01*
X536067Y470934D02*
Y472430D01*
X536346Y470934D02*
Y472430D01*
X536624Y470934D02*
Y472430D01*
X536903Y470934D02*
Y472430D01*
X537182Y470934D02*
Y472430D01*
X537461Y470934D02*
Y472430D01*
X537739Y470934D02*
Y472430D01*
X538018Y470934D02*
Y472430D01*
X538297Y470934D02*
Y472430D01*
X538376Y474399D02*
Y472903D01*
X531593*
Y474399*
X538376*
X531593Y473072D02*
X538376D01*
X531593Y473350D02*
X538376D01*
X531593Y473629D02*
X538376D01*
X531593Y473908D02*
X538376D01*
X531593Y474187D02*
X538376D01*
X531607Y472903D02*
Y474399D01*
X531886Y472903D02*
Y474399D01*
X532165Y472903D02*
Y474399D01*
X532443Y472903D02*
Y474399D01*
X532722Y472903D02*
Y474399D01*
X533001Y472903D02*
Y474399D01*
X533280Y472903D02*
Y474399D01*
X533558Y472903D02*
Y474399D01*
X533837Y472903D02*
Y474399D01*
X534116Y472903D02*
Y474399D01*
X534394Y472903D02*
Y474399D01*
X534673Y472903D02*
Y474399D01*
X534952Y472903D02*
Y474399D01*
X535231Y472903D02*
Y474399D01*
X535509Y472903D02*
Y474399D01*
X535788Y472903D02*
Y474399D01*
X536067Y472903D02*
Y474399D01*
X536346Y472903D02*
Y474399D01*
X536624Y472903D02*
Y474399D01*
X536903Y472903D02*
Y474399D01*
X537182Y472903D02*
Y474399D01*
X537461Y472903D02*
Y474399D01*
X537739Y472903D02*
Y474399D01*
X538018Y472903D02*
Y474399D01*
X538297Y472903D02*
Y474399D01*
X538376Y476367D02*
Y474871D01*
X531593*
Y476367*
X538376*
X531593Y475023D02*
X538376D01*
X531593Y475302D02*
X538376D01*
X531593Y475580D02*
X538376D01*
X531593Y475859D02*
X538376D01*
X531593Y476138D02*
X538376D01*
X531607Y474871D02*
Y476367D01*
X531886Y474871D02*
Y476367D01*
X532165Y474871D02*
Y476367D01*
X532443Y474871D02*
Y476367D01*
X532722Y474871D02*
Y476367D01*
X533001Y474871D02*
Y476367D01*
X533280Y474871D02*
Y476367D01*
X533558Y474871D02*
Y476367D01*
X533837Y474871D02*
Y476367D01*
X534116Y474871D02*
Y476367D01*
X534394Y474871D02*
Y476367D01*
X534673Y474871D02*
Y476367D01*
X534952Y474871D02*
Y476367D01*
X535231Y474871D02*
Y476367D01*
X535509Y474871D02*
Y476367D01*
X535788Y474871D02*
Y476367D01*
X536067Y474871D02*
Y476367D01*
X536346Y474871D02*
Y476367D01*
X536624Y474871D02*
Y476367D01*
X536903Y474871D02*
Y476367D01*
X537182Y474871D02*
Y476367D01*
X537461Y474871D02*
Y476367D01*
X537739Y474871D02*
Y476367D01*
X538018Y474871D02*
Y476367D01*
X538297Y474871D02*
Y476367D01*
X538376Y478336D02*
Y476840D01*
X531593*
Y478336*
X538376*
X531593Y476974D02*
X538376D01*
X531593Y477253D02*
X538376D01*
X531593Y477531D02*
X538376D01*
X531593Y477810D02*
X538376D01*
X531593Y478089D02*
X538376D01*
X531607Y476840D02*
Y478336D01*
X531886Y476840D02*
Y478336D01*
X532165Y476840D02*
Y478336D01*
X532443Y476840D02*
Y478336D01*
X532722Y476840D02*
Y478336D01*
X533001Y476840D02*
Y478336D01*
X533280Y476840D02*
Y478336D01*
X533558Y476840D02*
Y478336D01*
X533837Y476840D02*
Y478336D01*
X534116Y476840D02*
Y478336D01*
X534394Y476840D02*
Y478336D01*
X534673Y476840D02*
Y478336D01*
X534952Y476840D02*
Y478336D01*
X535231Y476840D02*
Y478336D01*
X535509Y476840D02*
Y478336D01*
X535788Y476840D02*
Y478336D01*
X536067Y476840D02*
Y478336D01*
X536346Y476840D02*
Y478336D01*
X536624Y476840D02*
Y478336D01*
X536903Y476840D02*
Y478336D01*
X537182Y476840D02*
Y478336D01*
X537461Y476840D02*
Y478336D01*
X537739Y476840D02*
Y478336D01*
X538018Y476840D02*
Y478336D01*
X538297Y476840D02*
Y478336D01*
X538376Y480304D02*
Y478808D01*
X531593*
Y480304*
X538376*
X531593Y478925D02*
X538376D01*
X531593Y479204D02*
X538376D01*
X531593Y479483D02*
X538376D01*
X531593Y479761D02*
X538376D01*
X531593Y480040D02*
X538376D01*
X531607Y478808D02*
Y480304D01*
X531886Y478808D02*
Y480304D01*
X532165Y478808D02*
Y480304D01*
X532443Y478808D02*
Y480304D01*
X532722Y478808D02*
Y480304D01*
X533001Y478808D02*
Y480304D01*
X533280Y478808D02*
Y480304D01*
X533558Y478808D02*
Y480304D01*
X533837Y478808D02*
Y480304D01*
X534116Y478808D02*
Y480304D01*
X534394Y478808D02*
Y480304D01*
X534673Y478808D02*
Y480304D01*
X534952Y478808D02*
Y480304D01*
X535231Y478808D02*
Y480304D01*
X535509Y478808D02*
Y480304D01*
X535788Y478808D02*
Y480304D01*
X536067Y478808D02*
Y480304D01*
X536346Y478808D02*
Y480304D01*
X536624Y478808D02*
Y480304D01*
X536903Y478808D02*
Y480304D01*
X537182Y478808D02*
Y480304D01*
X537461Y478808D02*
Y480304D01*
X537739Y478808D02*
Y480304D01*
X538018Y478808D02*
Y480304D01*
X538297Y478808D02*
Y480304D01*
X538376Y482273D02*
Y480777D01*
X531593*
Y482273*
X538376*
X531593Y480876D02*
X538376D01*
X531593Y481155D02*
X538376D01*
X531593Y481434D02*
X538376D01*
X531593Y481713D02*
X538376D01*
X531593Y481991D02*
X538376D01*
X531593Y482270D02*
X538376D01*
X531607Y480777D02*
Y482273D01*
X531886Y480777D02*
Y482273D01*
X532165Y480777D02*
Y482273D01*
X532443Y480777D02*
Y482273D01*
X532722Y480777D02*
Y482273D01*
X533001Y480777D02*
Y482273D01*
X533280Y480777D02*
Y482273D01*
X533558Y480777D02*
Y482273D01*
X533837Y480777D02*
Y482273D01*
X534116Y480777D02*
Y482273D01*
X534394Y480777D02*
Y482273D01*
X534673Y480777D02*
Y482273D01*
X534952Y480777D02*
Y482273D01*
X535231Y480777D02*
Y482273D01*
X535509Y480777D02*
Y482273D01*
X535788Y480777D02*
Y482273D01*
X536067Y480777D02*
Y482273D01*
X536346Y480777D02*
Y482273D01*
X536624Y480777D02*
Y482273D01*
X536903Y480777D02*
Y482273D01*
X537182Y480777D02*
Y482273D01*
X537461Y480777D02*
Y482273D01*
X537739Y480777D02*
Y482273D01*
X538018Y480777D02*
Y482273D01*
X538297Y480777D02*
Y482273D01*
X505305D02*
Y480777D01*
X498522*
Y482273*
X505305*
X498522Y480876D02*
X505305D01*
X498522Y481155D02*
X505305D01*
X498522Y481434D02*
X505305D01*
X498522Y481713D02*
X505305D01*
X498522Y481991D02*
X505305D01*
X498522Y482270D02*
X505305D01*
X498716Y480777D02*
Y482273D01*
X498994Y480777D02*
Y482273D01*
X499273Y480777D02*
Y482273D01*
X499552Y480777D02*
Y482273D01*
X499831Y480777D02*
Y482273D01*
X500109Y480777D02*
Y482273D01*
X500388Y480777D02*
Y482273D01*
X500667Y480777D02*
Y482273D01*
X500946Y480777D02*
Y482273D01*
X501224Y480777D02*
Y482273D01*
X501503Y480777D02*
Y482273D01*
X501782Y480777D02*
Y482273D01*
X502061Y480777D02*
Y482273D01*
X502339Y480777D02*
Y482273D01*
X502618Y480777D02*
Y482273D01*
X502897Y480777D02*
Y482273D01*
X503176Y480777D02*
Y482273D01*
X503454Y480777D02*
Y482273D01*
X503733Y480777D02*
Y482273D01*
X504012Y480777D02*
Y482273D01*
X504291Y480777D02*
Y482273D01*
X504569Y480777D02*
Y482273D01*
X504848Y480777D02*
Y482273D01*
X505127Y480777D02*
Y482273D01*
X505305Y480304D02*
Y478808D01*
X498522*
Y480304*
X505305*
X498522Y478925D02*
X505305D01*
X498522Y479204D02*
X505305D01*
X498522Y479483D02*
X505305D01*
X498522Y479761D02*
X505305D01*
X498522Y480040D02*
X505305D01*
X498716Y478808D02*
Y480304D01*
X498994Y478808D02*
Y480304D01*
X499273Y478808D02*
Y480304D01*
X499552Y478808D02*
Y480304D01*
X499831Y478808D02*
Y480304D01*
X500109Y478808D02*
Y480304D01*
X500388Y478808D02*
Y480304D01*
X500667Y478808D02*
Y480304D01*
X500946Y478808D02*
Y480304D01*
X501224Y478808D02*
Y480304D01*
X501503Y478808D02*
Y480304D01*
X501782Y478808D02*
Y480304D01*
X502061Y478808D02*
Y480304D01*
X502339Y478808D02*
Y480304D01*
X502618Y478808D02*
Y480304D01*
X502897Y478808D02*
Y480304D01*
X503176Y478808D02*
Y480304D01*
X503454Y478808D02*
Y480304D01*
X503733Y478808D02*
Y480304D01*
X504012Y478808D02*
Y480304D01*
X504291Y478808D02*
Y480304D01*
X504569Y478808D02*
Y480304D01*
X504848Y478808D02*
Y480304D01*
X505127Y478808D02*
Y480304D01*
X505305Y478336D02*
Y476840D01*
X498522*
Y478336*
X505305*
X498522Y476974D02*
X505305D01*
X498522Y477253D02*
X505305D01*
X498522Y477531D02*
X505305D01*
X498522Y477810D02*
X505305D01*
X498522Y478089D02*
X505305D01*
X498716Y476840D02*
Y478336D01*
X498994Y476840D02*
Y478336D01*
X499273Y476840D02*
Y478336D01*
X499552Y476840D02*
Y478336D01*
X499831Y476840D02*
Y478336D01*
X500109Y476840D02*
Y478336D01*
X500388Y476840D02*
Y478336D01*
X500667Y476840D02*
Y478336D01*
X500946Y476840D02*
Y478336D01*
X501224Y476840D02*
Y478336D01*
X501503Y476840D02*
Y478336D01*
X501782Y476840D02*
Y478336D01*
X502061Y476840D02*
Y478336D01*
X502339Y476840D02*
Y478336D01*
X502618Y476840D02*
Y478336D01*
X502897Y476840D02*
Y478336D01*
X503176Y476840D02*
Y478336D01*
X503454Y476840D02*
Y478336D01*
X503733Y476840D02*
Y478336D01*
X504012Y476840D02*
Y478336D01*
X504291Y476840D02*
Y478336D01*
X504569Y476840D02*
Y478336D01*
X504848Y476840D02*
Y478336D01*
X505127Y476840D02*
Y478336D01*
X505305Y476367D02*
Y474871D01*
X498522*
Y476367*
X505305*
X498522Y475023D02*
X505305D01*
X498522Y475302D02*
X505305D01*
X498522Y475580D02*
X505305D01*
X498522Y475859D02*
X505305D01*
X498522Y476138D02*
X505305D01*
X498716Y474871D02*
Y476367D01*
X498994Y474871D02*
Y476367D01*
X499273Y474871D02*
Y476367D01*
X499552Y474871D02*
Y476367D01*
X499831Y474871D02*
Y476367D01*
X500109Y474871D02*
Y476367D01*
X500388Y474871D02*
Y476367D01*
X500667Y474871D02*
Y476367D01*
X500946Y474871D02*
Y476367D01*
X501224Y474871D02*
Y476367D01*
X501503Y474871D02*
Y476367D01*
X501782Y474871D02*
Y476367D01*
X502061Y474871D02*
Y476367D01*
X502339Y474871D02*
Y476367D01*
X502618Y474871D02*
Y476367D01*
X502897Y474871D02*
Y476367D01*
X503176Y474871D02*
Y476367D01*
X503454Y474871D02*
Y476367D01*
X503733Y474871D02*
Y476367D01*
X504012Y474871D02*
Y476367D01*
X504291Y474871D02*
Y476367D01*
X504569Y474871D02*
Y476367D01*
X504848Y474871D02*
Y476367D01*
X505127Y474871D02*
Y476367D01*
X505305Y474399D02*
Y472903D01*
X498522*
Y474399*
X505305*
X498522Y473072D02*
X505305D01*
X498522Y473350D02*
X505305D01*
X498522Y473629D02*
X505305D01*
X498522Y473908D02*
X505305D01*
X498522Y474187D02*
X505305D01*
X498716Y472903D02*
Y474399D01*
X498994Y472903D02*
Y474399D01*
X499273Y472903D02*
Y474399D01*
X499552Y472903D02*
Y474399D01*
X499831Y472903D02*
Y474399D01*
X500109Y472903D02*
Y474399D01*
X500388Y472903D02*
Y474399D01*
X500667Y472903D02*
Y474399D01*
X500946Y472903D02*
Y474399D01*
X501224Y472903D02*
Y474399D01*
X501503Y472903D02*
Y474399D01*
X501782Y472903D02*
Y474399D01*
X502061Y472903D02*
Y474399D01*
X502339Y472903D02*
Y474399D01*
X502618Y472903D02*
Y474399D01*
X502897Y472903D02*
Y474399D01*
X503176Y472903D02*
Y474399D01*
X503454Y472903D02*
Y474399D01*
X503733Y472903D02*
Y474399D01*
X504012Y472903D02*
Y474399D01*
X504291Y472903D02*
Y474399D01*
X504569Y472903D02*
Y474399D01*
X504848Y472903D02*
Y474399D01*
X505127Y472903D02*
Y474399D01*
X505305Y472430D02*
Y470934D01*
X498522*
Y472430*
X505305*
X498522Y471120D02*
X505305D01*
X498522Y471399D02*
X505305D01*
X498522Y471678D02*
X505305D01*
X498522Y471957D02*
X505305D01*
X498522Y472235D02*
X505305D01*
X498716Y470934D02*
Y472430D01*
X498994Y470934D02*
Y472430D01*
X499273Y470934D02*
Y472430D01*
X499552Y470934D02*
Y472430D01*
X499831Y470934D02*
Y472430D01*
X500109Y470934D02*
Y472430D01*
X500388Y470934D02*
Y472430D01*
X500667Y470934D02*
Y472430D01*
X500946Y470934D02*
Y472430D01*
X501224Y470934D02*
Y472430D01*
X501503Y470934D02*
Y472430D01*
X501782Y470934D02*
Y472430D01*
X502061Y470934D02*
Y472430D01*
X502339Y470934D02*
Y472430D01*
X502618Y470934D02*
Y472430D01*
X502897Y470934D02*
Y472430D01*
X503176Y470934D02*
Y472430D01*
X503454Y470934D02*
Y472430D01*
X503733Y470934D02*
Y472430D01*
X504012Y470934D02*
Y472430D01*
X504291Y470934D02*
Y472430D01*
X504569Y470934D02*
Y472430D01*
X504848Y470934D02*
Y472430D01*
X505127Y470934D02*
Y472430D01*
X505305Y470462D02*
Y468966D01*
X498522*
Y470462*
X505305*
X498522Y469169D02*
X505305D01*
X498522Y469448D02*
X505305D01*
X498522Y469727D02*
X505305D01*
X498522Y470006D02*
X505305D01*
X498522Y470284D02*
X505305D01*
X498716Y468966D02*
Y470462D01*
X498994Y468966D02*
Y470462D01*
X499273Y468966D02*
Y470462D01*
X499552Y468966D02*
Y470462D01*
X499831Y468966D02*
Y470462D01*
X500109Y468966D02*
Y470462D01*
X500388Y468966D02*
Y470462D01*
X500667Y468966D02*
Y470462D01*
X500946Y468966D02*
Y470462D01*
X501224Y468966D02*
Y470462D01*
X501503Y468966D02*
Y470462D01*
X501782Y468966D02*
Y470462D01*
X502061Y468966D02*
Y470462D01*
X502339Y468966D02*
Y470462D01*
X502618Y468966D02*
Y470462D01*
X502897Y468966D02*
Y470462D01*
X503176Y468966D02*
Y470462D01*
X503454Y468966D02*
Y470462D01*
X503733Y468966D02*
Y470462D01*
X504012Y468966D02*
Y470462D01*
X504291Y468966D02*
Y470462D01*
X504569Y468966D02*
Y470462D01*
X504848Y468966D02*
Y470462D01*
X505127Y468966D02*
Y470462D01*
X505305Y468493D02*
Y466997D01*
X498522*
Y468493*
X505305*
X498522Y467218D02*
X505305D01*
X498522Y467497D02*
X505305D01*
X498522Y467776D02*
X505305D01*
X498522Y468054D02*
X505305D01*
X498522Y468333D02*
X505305D01*
X498716Y466997D02*
Y468493D01*
X498994Y466997D02*
Y468493D01*
X499273Y466997D02*
Y468493D01*
X499552Y466997D02*
Y468493D01*
X499831Y466997D02*
Y468493D01*
X500109Y466997D02*
Y468493D01*
X500388Y466997D02*
Y468493D01*
X500667Y466997D02*
Y468493D01*
X500946Y466997D02*
Y468493D01*
X501224Y466997D02*
Y468493D01*
X501503Y466997D02*
Y468493D01*
X501782Y466997D02*
Y468493D01*
X502061Y466997D02*
Y468493D01*
X502339Y466997D02*
Y468493D01*
X502618Y466997D02*
Y468493D01*
X502897Y466997D02*
Y468493D01*
X503176Y466997D02*
Y468493D01*
X503454Y466997D02*
Y468493D01*
X503733Y466997D02*
Y468493D01*
X504012Y466997D02*
Y468493D01*
X504291Y466997D02*
Y468493D01*
X504569Y466997D02*
Y468493D01*
X504848Y466997D02*
Y468493D01*
X505127Y466997D02*
Y468493D01*
X505305Y466525D02*
Y465029D01*
X498522*
Y466525*
X505305*
X498522Y465267D02*
X505305D01*
X498522Y465546D02*
X505305D01*
X498522Y465824D02*
X505305D01*
X498522Y466103D02*
X505305D01*
X498522Y466382D02*
X505305D01*
X498716Y465029D02*
Y466525D01*
X498994Y465029D02*
Y466525D01*
X499273Y465029D02*
Y466525D01*
X499552Y465029D02*
Y466525D01*
X499831Y465029D02*
Y466525D01*
X500109Y465029D02*
Y466525D01*
X500388Y465029D02*
Y466525D01*
X500667Y465029D02*
Y466525D01*
X500946Y465029D02*
Y466525D01*
X501224Y465029D02*
Y466525D01*
X501503Y465029D02*
Y466525D01*
X501782Y465029D02*
Y466525D01*
X502061Y465029D02*
Y466525D01*
X502339Y465029D02*
Y466525D01*
X502618Y465029D02*
Y466525D01*
X502897Y465029D02*
Y466525D01*
X503176Y465029D02*
Y466525D01*
X503454Y465029D02*
Y466525D01*
X503733Y465029D02*
Y466525D01*
X504012Y465029D02*
Y466525D01*
X504291Y465029D02*
Y466525D01*
X504569Y465029D02*
Y466525D01*
X504848Y465029D02*
Y466525D01*
X505127Y465029D02*
Y466525D01*
X505305Y464556D02*
Y463060D01*
X498522*
Y464556*
X505305*
X498522Y463316D02*
X505305D01*
X498522Y463594D02*
X505305D01*
X498522Y463873D02*
X505305D01*
X498522Y464152D02*
X505305D01*
X498522Y464431D02*
X505305D01*
X498716Y463060D02*
Y464556D01*
X498994Y463060D02*
Y464556D01*
X499273Y463060D02*
Y464556D01*
X499552Y463060D02*
Y464556D01*
X499831Y463060D02*
Y464556D01*
X500109Y463060D02*
Y464556D01*
X500388Y463060D02*
Y464556D01*
X500667Y463060D02*
Y464556D01*
X500946Y463060D02*
Y464556D01*
X501224Y463060D02*
Y464556D01*
X501503Y463060D02*
Y464556D01*
X501782Y463060D02*
Y464556D01*
X502061Y463060D02*
Y464556D01*
X502339Y463060D02*
Y464556D01*
X502618Y463060D02*
Y464556D01*
X502897Y463060D02*
Y464556D01*
X503176Y463060D02*
Y464556D01*
X503454Y463060D02*
Y464556D01*
X503733Y463060D02*
Y464556D01*
X504012Y463060D02*
Y464556D01*
X504291Y463060D02*
Y464556D01*
X504569Y463060D02*
Y464556D01*
X504848Y463060D02*
Y464556D01*
X505127Y463060D02*
Y464556D01*
X505305Y462588D02*
Y461092D01*
X498522*
Y462588*
X505305*
X498522Y461365D02*
X505305D01*
X498522Y461643D02*
X505305D01*
X498522Y461922D02*
X505305D01*
X498522Y462201D02*
X505305D01*
X498522Y462480D02*
X505305D01*
X498716Y461092D02*
Y462588D01*
X498994Y461092D02*
Y462588D01*
X499273Y461092D02*
Y462588D01*
X499552Y461092D02*
Y462588D01*
X499831Y461092D02*
Y462588D01*
X500109Y461092D02*
Y462588D01*
X500388Y461092D02*
Y462588D01*
X500667Y461092D02*
Y462588D01*
X500946Y461092D02*
Y462588D01*
X501224Y461092D02*
Y462588D01*
X501503Y461092D02*
Y462588D01*
X501782Y461092D02*
Y462588D01*
X502061Y461092D02*
Y462588D01*
X502339Y461092D02*
Y462588D01*
X502618Y461092D02*
Y462588D01*
X502897Y461092D02*
Y462588D01*
X503176Y461092D02*
Y462588D01*
X503454Y461092D02*
Y462588D01*
X503733Y461092D02*
Y462588D01*
X504012Y461092D02*
Y462588D01*
X504291Y461092D02*
Y462588D01*
X504569Y461092D02*
Y462588D01*
X504848Y461092D02*
Y462588D01*
X505127Y461092D02*
Y462588D01*
X505305Y460619D02*
Y459123D01*
X498522*
Y460619*
X505305*
X498522Y459135D02*
X505305D01*
X498522Y459413D02*
X505305D01*
X498522Y459692D02*
X505305D01*
X498522Y459971D02*
X505305D01*
X498522Y460250D02*
X505305D01*
X498522Y460528D02*
X505305D01*
X498716Y459123D02*
Y460619D01*
X498994Y459123D02*
Y460619D01*
X499273Y459123D02*
Y460619D01*
X499552Y459123D02*
Y460619D01*
X499831Y459123D02*
Y460619D01*
X500109Y459123D02*
Y460619D01*
X500388Y459123D02*
Y460619D01*
X500667Y459123D02*
Y460619D01*
X500946Y459123D02*
Y460619D01*
X501224Y459123D02*
Y460619D01*
X501503Y459123D02*
Y460619D01*
X501782Y459123D02*
Y460619D01*
X502061Y459123D02*
Y460619D01*
X502339Y459123D02*
Y460619D01*
X502618Y459123D02*
Y460619D01*
X502897Y459123D02*
Y460619D01*
X503176Y459123D02*
Y460619D01*
X503454Y459123D02*
Y460619D01*
X503733Y459123D02*
Y460619D01*
X504012Y459123D02*
Y460619D01*
X504291Y459123D02*
Y460619D01*
X504569Y459123D02*
Y460619D01*
X504848Y459123D02*
Y460619D01*
X505127Y459123D02*
Y460619D01*
G54D289*
X407996Y193438D03*
Y189698D03*
X413902Y193438D03*
Y189698D03*
X418996Y193438D03*
Y189698D03*
X424902Y193438D03*
Y189698D03*
X259796Y325138D03*
Y321398D03*
X265702Y325138D03*
Y321398D03*
X396996Y193438D03*
Y189698D03*
X402902Y193438D03*
Y189698D03*
X270702Y193358D03*
Y197098D03*
X264796Y193358D03*
Y197098D03*
X259702Y193358D03*
Y197098D03*
X253796Y193358D03*
Y197098D03*
X242796Y197138D03*
Y193398D03*
X248702Y197138D03*
Y193398D03*
X254702Y321358D03*
Y325098D03*
X248796Y321358D03*
Y325098D03*
X243702Y321358D03*
Y325098D03*
X237796Y321358D03*
Y325098D03*
X261796Y454138D03*
Y450398D03*
X267702Y454138D03*
Y450398D03*
X250796Y454138D03*
Y450398D03*
X256702Y454138D03*
Y450398D03*
X245702Y450358D03*
Y454098D03*
X239796Y450358D03*
Y454098D03*
X260796Y582138D03*
Y578398D03*
X266702Y582138D03*
Y578398D03*
X249796Y582138D03*
Y578398D03*
X255702Y582138D03*
Y578398D03*
X244702Y578358D03*
Y582098D03*
X238796Y578358D03*
Y582098D03*
X410496Y460438D03*
Y456698D03*
X416402Y460438D03*
Y456698D03*
X429402Y323658D03*
Y327398D03*
X423496Y323658D03*
Y327398D03*
X407402Y323658D03*
Y327398D03*
X401496Y323658D03*
Y327398D03*
X396402Y323658D03*
Y327398D03*
X390496Y323658D03*
Y327398D03*
X412496Y327438D03*
Y323698D03*
X418402Y327438D03*
Y323698D03*
X427402Y456658D03*
Y460398D03*
X421496Y456658D03*
Y460398D03*
G54D290*
X499906Y304497D03*
Y307056D03*
Y309615D03*
Y312174D03*
X482898D03*
Y309615D03*
Y307056D03*
Y304497D03*
G54D291*
X495240Y316839D03*
X492681D03*
X490122D03*
X487563D03*
Y299832D03*
X490122D03*
X492681D03*
X495240D03*
G54D292*
X548053Y392806D03*
X546084D03*
X544116D03*
X542147D03*
Y380994D03*
X544116D03*
X546084D03*
X548053D03*
G54D293*
X539194Y389853D03*
Y387884D03*
Y385916D03*
Y383947D03*
X551006D03*
Y385916D03*
Y387884D03*
Y389853D03*
G54D294*
X545100Y386900D03*
G54D295*
X193000Y173000D03*
X193000D03*
X610500Y598000D03*
X610500D03*
X153000Y620500D03*
X153000D03*
X193000Y173000D03*
X193000D03*
X153000Y620500D03*
X153000D03*
X610500Y598000D03*
X610500D03*
G54D297*
X420772Y225225D03*
X417622D03*
X414473D03*
X411323D03*
X408173D03*
X405024D03*
X401874D03*
X398725D03*
X395575D03*
X392425D03*
X389276D03*
X386126D03*
X420772Y228375D03*
X417622D03*
X414473D03*
X411323D03*
X408173D03*
X405024D03*
X401874D03*
X398725D03*
X395575D03*
X392425D03*
X389276D03*
X386126D03*
X420772Y231524D03*
X417622D03*
X414473D03*
X411323D03*
X408173D03*
X405024D03*
X401874D03*
X398725D03*
X395575D03*
X392425D03*
X389276D03*
X386126D03*
X420772Y234674D03*
X417622D03*
X414473D03*
X411323D03*
X408173D03*
X405024D03*
X401874D03*
X398725D03*
X395575D03*
X392425D03*
X389276D03*
X386126D03*
X420772Y237824D03*
X417622D03*
X414473D03*
X411323D03*
X395575D03*
X392425D03*
X389276D03*
X386126D03*
X420772Y240973D03*
X417622D03*
X414473D03*
X411323D03*
X395575D03*
X392425D03*
X389276D03*
X386126D03*
X420772Y244123D03*
X417622D03*
X414473D03*
X411323D03*
X395575D03*
X392425D03*
X389276D03*
X386126D03*
X420772Y247272D03*
X417622D03*
X414473D03*
X411323D03*
X395575D03*
X392425D03*
X389276D03*
X386126D03*
X420772Y250422D03*
X417622D03*
X414473D03*
X411323D03*
X408173D03*
X405024D03*
X401874D03*
X398725D03*
X395575D03*
X392425D03*
X389276D03*
X386126D03*
X420772Y253572D03*
X417622D03*
X414473D03*
X411323D03*
X408173D03*
X405024D03*
X401874D03*
X398725D03*
X395575D03*
X392425D03*
X389276D03*
X386126D03*
X420772Y256721D03*
X417622D03*
X414473D03*
X411323D03*
X408173D03*
X405024D03*
X401874D03*
X398725D03*
X395575D03*
X392425D03*
X389276D03*
X386126D03*
X420772Y259871D03*
X417622D03*
X414473D03*
X411323D03*
X408173D03*
X405024D03*
X401874D03*
X398725D03*
X395575D03*
X392425D03*
X389276D03*
X386126D03*
X266572Y351925D03*
X263422D03*
X260273D03*
X257123D03*
X253973D03*
X250824D03*
X247674D03*
X244525D03*
X241375D03*
X238225D03*
X235076D03*
X231926D03*
X266572Y355075D03*
X263422D03*
X260273D03*
X257123D03*
X253973D03*
X250824D03*
X247674D03*
X244525D03*
X241375D03*
X238225D03*
X235076D03*
X231926D03*
X266572Y358224D03*
X263422D03*
X260273D03*
X257123D03*
X253973D03*
X250824D03*
X247674D03*
X244525D03*
X241375D03*
X238225D03*
X235076D03*
X231926D03*
X266572Y361374D03*
X263422D03*
X260273D03*
X257123D03*
X253973D03*
X250824D03*
X247674D03*
X244525D03*
X241375D03*
X238225D03*
X235076D03*
X231926D03*
X266572Y364524D03*
X263422D03*
X260273D03*
X257123D03*
X241375D03*
X238225D03*
X235076D03*
X231926D03*
X266572Y367673D03*
X263422D03*
X260273D03*
X257123D03*
X241375D03*
X238225D03*
X235076D03*
X231926D03*
X266572Y370823D03*
X263422D03*
X260273D03*
X257123D03*
X241375D03*
X238225D03*
X235076D03*
X231926D03*
X266572Y373972D03*
X263422D03*
X260273D03*
X257123D03*
X241375D03*
X238225D03*
X235076D03*
X231926D03*
X266572Y377122D03*
X263422D03*
X260273D03*
X257123D03*
X253973D03*
X250824D03*
X247674D03*
X244525D03*
X241375D03*
X238225D03*
X235076D03*
X231926D03*
X266572Y380272D03*
X263422D03*
X260273D03*
X257123D03*
X253973D03*
X250824D03*
X247674D03*
X244525D03*
X241375D03*
X238225D03*
X235076D03*
X231926D03*
X266572Y383421D03*
X263422D03*
X260273D03*
X257123D03*
X253973D03*
X250824D03*
X247674D03*
X244525D03*
X241375D03*
X238225D03*
X235076D03*
X231926D03*
X266572Y386571D03*
X263422D03*
X260273D03*
X257123D03*
X253973D03*
X250824D03*
X247674D03*
X244525D03*
X241375D03*
X238225D03*
X235076D03*
X231926D03*
X266572Y224755D03*
X263422D03*
X260273D03*
X257123D03*
X253973D03*
X250824D03*
X247674D03*
X244525D03*
X241375D03*
X238225D03*
X235076D03*
X231926D03*
X266572Y227905D03*
X263422D03*
X260273D03*
X257123D03*
X253973D03*
X250824D03*
X247674D03*
X244525D03*
X241375D03*
X238225D03*
X235076D03*
X231926D03*
X266572Y231054D03*
X263422D03*
X260273D03*
X257123D03*
X253973D03*
X250824D03*
X247674D03*
X244525D03*
X241375D03*
X238225D03*
X235076D03*
X231926D03*
X266572Y234204D03*
X263422D03*
X260273D03*
X257123D03*
X253973D03*
X250824D03*
X247674D03*
X244525D03*
X241375D03*
X238225D03*
X235076D03*
X231926D03*
X266572Y237354D03*
X263422D03*
X260273D03*
X257123D03*
X241375D03*
X238225D03*
X235076D03*
X231926D03*
X266572Y240503D03*
X263422D03*
X260273D03*
X257123D03*
X241375D03*
X238225D03*
X235076D03*
X231926D03*
X266572Y243653D03*
X263422D03*
X260273D03*
X257123D03*
X241375D03*
X238225D03*
X235076D03*
X231926D03*
X266572Y246802D03*
X263422D03*
X260273D03*
X257123D03*
X241375D03*
X238225D03*
X235076D03*
X231926D03*
X266572Y249952D03*
X263422D03*
X260273D03*
X257123D03*
X253973D03*
X250824D03*
X247674D03*
X244525D03*
X241375D03*
X238225D03*
X235076D03*
X231926D03*
X266572Y253102D03*
X263422D03*
X260273D03*
X257123D03*
X253973D03*
X250824D03*
X247674D03*
X244525D03*
X241375D03*
X238225D03*
X235076D03*
X231926D03*
X266572Y256251D03*
X263422D03*
X260273D03*
X257123D03*
X253973D03*
X250824D03*
X247674D03*
X244525D03*
X241375D03*
X238225D03*
X235076D03*
X231926D03*
X266572Y259401D03*
X263422D03*
X260273D03*
X257123D03*
X253973D03*
X250824D03*
X247674D03*
X244525D03*
X241375D03*
X238225D03*
X235076D03*
X231926D03*
X420772Y481725D03*
X417622D03*
X414473D03*
X411323D03*
X408173D03*
X405024D03*
X401874D03*
X398725D03*
X395575D03*
X392425D03*
X389276D03*
X386126D03*
X420772Y484875D03*
X417622D03*
X414473D03*
X411323D03*
X408173D03*
X405024D03*
X401874D03*
X398725D03*
X395575D03*
X392425D03*
X389276D03*
X386126D03*
X420772Y488024D03*
X417622D03*
X414473D03*
X411323D03*
X408173D03*
X405024D03*
X401874D03*
X398725D03*
X395575D03*
X392425D03*
X389276D03*
X386126D03*
X420772Y491174D03*
X417622D03*
X414473D03*
X411323D03*
X408173D03*
X405024D03*
X401874D03*
X398725D03*
X395575D03*
X392425D03*
X389276D03*
X386126D03*
X420772Y494324D03*
X417622D03*
X414473D03*
X411323D03*
X395575D03*
X392425D03*
X389276D03*
X386126D03*
X420772Y497473D03*
X417622D03*
X414473D03*
X411323D03*
X395575D03*
X392425D03*
X389276D03*
X386126D03*
X420772Y500623D03*
X417622D03*
X414473D03*
X411323D03*
X395575D03*
X392425D03*
X389276D03*
X386126D03*
X420772Y503772D03*
X417622D03*
X414473D03*
X411323D03*
X395575D03*
X392425D03*
X389276D03*
X386126D03*
X420772Y506922D03*
X417622D03*
X414473D03*
X411323D03*
X408173D03*
X405024D03*
X401874D03*
X398725D03*
X395575D03*
X392425D03*
X389276D03*
X386126D03*
X420772Y510072D03*
X417622D03*
X414473D03*
X411323D03*
X408173D03*
X405024D03*
X401874D03*
X398725D03*
X395575D03*
X392425D03*
X389276D03*
X386126D03*
X420772Y513221D03*
X417622D03*
X414473D03*
X411323D03*
X408173D03*
X405024D03*
X401874D03*
X398725D03*
X395575D03*
X392425D03*
X389276D03*
X386126D03*
X420772Y516371D03*
X417622D03*
X414473D03*
X411323D03*
X408173D03*
X405024D03*
X401874D03*
X398725D03*
X395575D03*
X392425D03*
X389276D03*
X386126D03*
X266572Y481925D03*
X263422D03*
X260273D03*
X257123D03*
X253973D03*
X250824D03*
X247674D03*
X244525D03*
X241375D03*
X238225D03*
X235076D03*
X231926D03*
X266572Y485075D03*
X263422D03*
X260273D03*
X257123D03*
X253973D03*
X250824D03*
X247674D03*
X244525D03*
X241375D03*
X238225D03*
X235076D03*
X231926D03*
X266572Y488224D03*
X263422D03*
X260273D03*
X257123D03*
X253973D03*
X250824D03*
X247674D03*
X244525D03*
X241375D03*
X238225D03*
X235076D03*
X231926D03*
X266572Y491374D03*
X263422D03*
X260273D03*
X257123D03*
X253973D03*
X250824D03*
X247674D03*
X244525D03*
X241375D03*
X238225D03*
X235076D03*
X231926D03*
X266572Y494524D03*
X263422D03*
X260273D03*
X257123D03*
X241375D03*
X238225D03*
X235076D03*
X231926D03*
X266572Y497673D03*
X263422D03*
X260273D03*
X257123D03*
X241375D03*
X238225D03*
X235076D03*
X231926D03*
X266572Y500823D03*
X263422D03*
X260273D03*
X257123D03*
X241375D03*
X238225D03*
X235076D03*
X231926D03*
X266572Y503972D03*
X263422D03*
X260273D03*
X257123D03*
X241375D03*
X238225D03*
X235076D03*
X231926D03*
X266572Y507122D03*
X263422D03*
X260273D03*
X257123D03*
X253973D03*
X250824D03*
X247674D03*
X244525D03*
X241375D03*
X238225D03*
X235076D03*
X231926D03*
X266572Y510272D03*
X263422D03*
X260273D03*
X257123D03*
X253973D03*
X250824D03*
X247674D03*
X244525D03*
X241375D03*
X238225D03*
X235076D03*
X231926D03*
X266572Y513421D03*
X263422D03*
X260273D03*
X257123D03*
X253973D03*
X250824D03*
X247674D03*
X244525D03*
X241375D03*
X238225D03*
X235076D03*
X231926D03*
X266572Y516571D03*
X263422D03*
X260273D03*
X257123D03*
X253973D03*
X250824D03*
X247674D03*
X244525D03*
X241375D03*
X238225D03*
X235076D03*
X231926D03*
X266572Y608425D03*
X263422D03*
X260273D03*
X257123D03*
X253973D03*
X250824D03*
X247674D03*
X244525D03*
X241375D03*
X238225D03*
X235076D03*
X231926D03*
X266572Y611575D03*
X263422D03*
X260273D03*
X257123D03*
X253973D03*
X250824D03*
X247674D03*
X244525D03*
X241375D03*
X238225D03*
X235076D03*
X231926D03*
X266572Y614724D03*
X263422D03*
X260273D03*
X257123D03*
X253973D03*
X250824D03*
X247674D03*
X244525D03*
X241375D03*
X238225D03*
X235076D03*
X231926D03*
X266572Y617874D03*
X263422D03*
X260273D03*
X257123D03*
X253973D03*
X250824D03*
X247674D03*
X244525D03*
X241375D03*
X238225D03*
X235076D03*
X231926D03*
X266572Y621024D03*
X263422D03*
X260273D03*
X257123D03*
X241375D03*
X238225D03*
X235076D03*
X231926D03*
X266572Y624173D03*
X263422D03*
X260273D03*
X257123D03*
X241375D03*
X238225D03*
X235076D03*
X231926D03*
X266572Y627323D03*
X263422D03*
X260273D03*
X257123D03*
X241375D03*
X238225D03*
X235076D03*
X231926D03*
X266572Y630472D03*
X263422D03*
X260273D03*
X257123D03*
X241375D03*
X238225D03*
X235076D03*
X231926D03*
X266572Y633622D03*
X263422D03*
X260273D03*
X257123D03*
X253973D03*
X250824D03*
X247674D03*
X244525D03*
X241375D03*
X238225D03*
X235076D03*
X231926D03*
X266572Y636772D03*
X263422D03*
X260273D03*
X257123D03*
X253973D03*
X250824D03*
X247674D03*
X244525D03*
X241375D03*
X238225D03*
X235076D03*
X231926D03*
X266572Y639921D03*
X263422D03*
X260273D03*
X257123D03*
X253973D03*
X250824D03*
X247674D03*
X244525D03*
X241375D03*
X238225D03*
X235076D03*
X231926D03*
X266572Y643071D03*
X263422D03*
X260273D03*
X257123D03*
X253973D03*
X250824D03*
X247674D03*
X244525D03*
X241375D03*
X238225D03*
X235076D03*
X231926D03*
X420772Y355225D03*
X417622D03*
X414473D03*
X411323D03*
X408173D03*
X405024D03*
X401874D03*
X398725D03*
X395575D03*
X392425D03*
X389276D03*
X386126D03*
X420772Y358375D03*
X417622D03*
X414473D03*
X411323D03*
X408173D03*
X405024D03*
X401874D03*
X398725D03*
X395575D03*
X392425D03*
X389276D03*
X386126D03*
X420772Y361524D03*
X417622D03*
X414473D03*
X411323D03*
X408173D03*
X405024D03*
X401874D03*
X398725D03*
X395575D03*
X392425D03*
X389276D03*
X386126D03*
X420772Y364674D03*
X417622D03*
X414473D03*
X411323D03*
X408173D03*
X405024D03*
X401874D03*
X398725D03*
X395575D03*
X392425D03*
X389276D03*
X386126D03*
X420772Y367824D03*
X417622D03*
X414473D03*
X411323D03*
X395575D03*
X392425D03*
X389276D03*
X386126D03*
X420772Y370973D03*
X417622D03*
X414473D03*
X411323D03*
X395575D03*
X392425D03*
X389276D03*
X386126D03*
X420772Y374123D03*
X417622D03*
X414473D03*
X411323D03*
X395575D03*
X392425D03*
X389276D03*
X386126D03*
X420772Y377272D03*
X417622D03*
X414473D03*
X411323D03*
X395575D03*
X392425D03*
X389276D03*
X386126D03*
X420772Y380422D03*
X417622D03*
X414473D03*
X411323D03*
X408173D03*
X405024D03*
X401874D03*
X398725D03*
X395575D03*
X392425D03*
X389276D03*
X386126D03*
X420772Y383572D03*
X417622D03*
X414473D03*
X411323D03*
X408173D03*
X405024D03*
X401874D03*
X398725D03*
X395575D03*
X392425D03*
X389276D03*
X386126D03*
X420772Y386721D03*
X417622D03*
X414473D03*
X411323D03*
X408173D03*
X405024D03*
X401874D03*
X398725D03*
X395575D03*
X392425D03*
X389276D03*
X386126D03*
X420772Y389871D03*
X417622D03*
X414473D03*
X411323D03*
X408173D03*
X405024D03*
X401874D03*
X398725D03*
X395575D03*
X392425D03*
X389276D03*
X386126D03*
G54D298*
X409965Y193438D03*
Y189698D03*
X411933Y193438D03*
Y189698D03*
X420965Y193438D03*
Y189698D03*
X422933Y193438D03*
Y189698D03*
X261765Y325138D03*
Y321398D03*
X263733Y325138D03*
Y321398D03*
X398965Y193438D03*
Y189698D03*
X400933Y193438D03*
Y189698D03*
X268733Y193358D03*
Y197098D03*
X266765Y193358D03*
Y197098D03*
X257733Y193358D03*
Y197098D03*
X255765Y193358D03*
Y197098D03*
X244765Y197138D03*
Y193398D03*
X246733Y197138D03*
Y193398D03*
X252733Y321358D03*
Y325098D03*
X250765Y321358D03*
Y325098D03*
X241733Y321358D03*
Y325098D03*
X239765Y321358D03*
Y325098D03*
X263765Y454138D03*
Y450398D03*
X265733Y454138D03*
Y450398D03*
X252765Y454138D03*
Y450398D03*
X254733Y454138D03*
Y450398D03*
X243733Y450358D03*
Y454098D03*
X241765Y450358D03*
Y454098D03*
X262765Y582138D03*
Y578398D03*
X264733Y582138D03*
Y578398D03*
X251765Y582138D03*
Y578398D03*
X253733Y582138D03*
Y578398D03*
X242733Y578358D03*
Y582098D03*
X240765Y578358D03*
Y582098D03*
X412465Y460438D03*
Y456698D03*
X414433Y460438D03*
Y456698D03*
X427433Y323658D03*
Y327398D03*
X425465Y323658D03*
Y327398D03*
X405433Y323658D03*
Y327398D03*
X403465Y323658D03*
Y327398D03*
X394433Y323658D03*
Y327398D03*
X392465Y323658D03*
Y327398D03*
X414465Y327438D03*
Y323698D03*
X416433Y327438D03*
Y323698D03*
X425433Y456658D03*
Y460398D03*
X423465Y456658D03*
Y460398D03*
X0Y0D02*
M02*
