0
SECTION
2
HEADER
999
*** POWERPCB  HEADER ***
9
$EXTMIN
10
-0.0127
20
-0.0127
9
$EXTMAX
10
81.2882553333
20
68.59397
9
$FILLMODE
70
0
9
$GRIDMODE
70
1
9
$GRIDUNIT
10
0.254
20
0.254
9
$INSBASE
10
144.9896753333
20
82.4949953333
9
$LIMCHECK
70
0
9
$PLINEWID
40
0.0254
9
$SNAPMODE
70
1
9
$SNAPUNIT
10
0.635
20
0.635
9
$TEXTSIZE
40
1.524
9
$TEXTSTYLE
7
W0$127
9
$USERI1
70
101
9
$USERI2
70
0
9
$USERI5
70
150
9
$VIEWCTR
10
59.9596986667
20
42.642096
0
ENDSEC
0
SECTION
2
TABLES
999
*** POWERPCB  LAYER ***
0
TABLE
2
LAYER
70
30
0
LAYER
2
DBLAYERS
70
1
62
-255
6
CONTINUOUS
0
LAYER
2
BOARD_OUTLINE_00
70
0
62
255
6
CONTINUOUS
0
LAYER
2
LABEL_INFO
70
1
62
-255
6
CONTINUOUS
0
LAYER
2
LABEL_ATTRIBUTE
70
1
62
-255
6
CONTINUOUS
0
LAYER
2
PART_NAME_30
70
1
62
-250
6
CONTINUOUS
0
LAYER
2
PART_TYPE_29
70
1
62
-250
6
CONTINUOUS
0
LAYER
2
PART_NAME_29
70
0
62
254
6
CONTINUOUS
0
LAYER
2
PART_INFO
70
1
62
-255
6
CONTINUOUS
0
LAYER
2
PART_PTS
70
1
62
-255
6
CONTINUOUS
0
LAYER
2
SYM_NAME
70
1
62
-255
6
CONTINUOUS
0
LAYER
2
SYM_PART_NAME_27
70
1
62
-255
6
CONTINUOUS
0
LAYER
2
SYM_PART_TYPE_26
70
1
62
-255
6
CONTINUOUS
0
LAYER
2
SYM_PART_NAME_26
70
1
62
-255
6
CONTINUOUS
0
LAYER
2
SYM_TERMINAL
70
1
62
-255
6
CONTINUOUS
0
LAYER
2
PKG_INFO
70
1
62
-255
6
CONTINUOUS
0
LAYER
2
PART_BOT_2DLINE_26
70
1
62
-1
6
CONTINUOUS
0
LAYER
2
PART_BOT_2DLINE_27
70
1
62
-2
6
CONTINUOUS
0
LAYER
2
DRIL_PLTE_THRU_01
70
1
62
-16
6
CONTINUOUS
0
LAYER
2
DRIL_PLTE_THRU_02
70
1
62
-1
6
CONTINUOUS
0
LAYER
2
DRIL_PLTE_THRU_03
70
1
62
-1
6
CONTINUOUS
0
LAYER
2
DRIL_PLTE_THRU_04
70
0
62
176
6
CONTINUOUS
0
LAYER
2
PADS_INNER
70
0
62
5
6
CONTINUOUS
0
LAYER
2
PADS_BOT
70
0
62
5
6
CONTINUOUS
0
LAYER
2
PADS_TOP
70
1
62
-1
6
CONTINUOUS
0
LAYER
2
DRIL_NPLTE_THRU_01
70
1
62
-16
6
CONTINUOUS
0
LAYER
2
DRIL_NPLTE_THRU_02
70
1
62
-1
6
CONTINUOUS
0
LAYER
2
DRIL_NPLTE_THRU_03
70
1
62
-1
6
CONTINUOUS
0
LAYER
2
DRIL_NPLTE_THRU_04
70
0
62
176
6
CONTINUOUS
0
LAYER
2
PCB_PARAMS
70
1
62
-255
6
CONTINUOUS
0
LAYER
2
DRIL_SYMBOL
70
0
62
255
6
CONTINUOUS
0
ENDTAB
999
*** POWERPCB  TEXT STYLE ***
0
TABLE
2
STYLE
70
4
0
STYLE
2
W0$2032
70
64
40
0
41
0.75
42
0
50
0
71
0
3
simplex
0
STYLE
2
W0$1524
70
64
40
0
41
0.75
42
0
50
0
71
0
3
simplex
0
STYLE
2
W0$2032R0
70
64
40
0
41
0.75
42
0
50
0
71
0
3
simplex
0
STYLE
2
W0$127
70
64
40
0
41
0.75
42
0
50
0
71
0
3
simplex
0
ENDTAB
0
ENDSEC
0
SECTION
2
BLOCKS
999
*** POWERPCB  DBLAYER ***
0
BLOCK
2
DBLAYERS
8
0
10
0
20
0
3
DBLAYERS
70
64
0
TEXT
8
DBLAYERS
10
0
20
-3.048
40
1.778
1
__It__Is__Job__Name__:=CCCNGP_ECAT_REV1.0.pcb
999
 *  1.Number             2.Type                  3.RouteColor
999
 *  4.ViaColor           5.PadColor              6.CopperColor
999
 *  7.2DLineColor        8.TextColor             9.ErrorColor
999
 * 10.TopComponentColor 11.BottomComponentColor 12.RoutingDirection
999
 * 13.LayerThickness    14.CopperThickness      15.Dielectric
999
 * 16.IsRouteable       17.IsVisible            18.IsSelectable
999
 * 19.IsPrepreg         20.AssSilkScreen        21.AssPasteMask
999
 * 22.AssSolderMask     23.AssAssembly
0
TEXT
8
DBLAYERS
10
0
20
-6.096
40
1.778
1
Bottom:=4 1 9 9 9 9 9 9 14 0 20 1 0 51435 3.2999999523 1 1 1 0 29 22 28 30 0 0 1 8 0 0 16 
0
TEXT
8
DBLAYERS
10
0
20
-9.144
40
1.778
1
Silkscreen Bottom:=29 3 10 10 10 10 10 10 10 10 10 2 0 0 3.2999999523 0 1 1 0 -1 -1 -1 -1 0 0 0 8 0 0 0 
0
ENDBLK
999
*** POWERPCB  BOARD ***
0
BLOCK
2
BOARD_1
8
0
10
0
20
0
3
BOARD_1
70
64
0
POLYLINE
8
BOARD_OUTLINE_00
66
1
40
0.0254
41
0.0254
70
1
0
VERTEX
8
BOARD_OUTLINE_00
10
0
20
0
0
VERTEX
8
BOARD_OUTLINE_00
10
0
20
66.04762
0
VERTEX
8
BOARD_OUTLINE_00
10
2.53365
20
68.58127
0
VERTEX
8
BOARD_OUTLINE_00
10
78.73238
20
68.58127
0
VERTEX
8
BOARD_OUTLINE_00
10
81.2755553333
20
66.0380953333
0
VERTEX
8
BOARD_OUTLINE_00
10
81.2755553333
20
0
0
SEQEND
0
INSERT
2
SMOOTH_0$0254
8
BOARD_OUTLINE_00
10
0
20
0
0
INSERT
2
SMOOTH_0$0254
8
BOARD_OUTLINE_00
10
0
20
66.04762
0
INSERT
2
SMOOTH_0$0254
8
BOARD_OUTLINE_00
10
2.53365
20
68.58127
0
INSERT
2
SMOOTH_0$0254
8
BOARD_OUTLINE_00
10
78.73238
20
68.58127
0
INSERT
2
SMOOTH_0$0254
8
BOARD_OUTLINE_00
10
81.2755553333
20
66.0380953333
0
INSERT
2
SMOOTH_0$0254
8
BOARD_OUTLINE_00
10
81.2755553333
20
0
0
ENDBLK
999
*** POWERPCB  COMPONENT ***
0
BLOCK
2
PART_BOT_1
8
0
10
0
20
0
3
PART_BOT_1
70
64
0
INSERT
2
SYM_BOT_5
8
0
10
0
20
0
0
INSERT
2
PKG_2
8
0
10
0
20
0
41
-1
0
TEXT
8
LABEL_INFO
10
-1.5
20
-0.5
40
1.0668
1
0 0 0 0 0 1
41
0.75
7
W0$2032
0
TEXT
8
LABEL_ATTRIBUTE
10
-1.5
20
-0.5
40
1.0668
1
Ref.Des.
41
0.75
7
W0$2032
0
TEXT
8
PART_NAME_30
10
-1.5
20
-0.5
40
1.0668
1
R1
41
0.75
7
W0$2032
0
TEXT
8
LABEL_INFO
10
-1.5
20
-1
40
1.0668
1
0 0 0 2 0 1
73
2
11
-1.5
21
-1
41
0.75
7
W0$2032
0
TEXT
8
LABEL_ATTRIBUTE
10
-1.5
20
-1
40
1.0668
1
PartType
73
2
11
-1.5
21
-1
41
0.75
7
W0$2032
0
TEXT
8
PART_TYPE_29
10
-1.5
20
-1
40
1.0668
1
RES-75E-0805-1%-0.125W
73
3
11
-1.5
21
-1
41
0.75
7
W0$2032
0
TEXT
8
LABEL_INFO
10
3.937
20
-0.5079993333
40
1.4224
1
0 162000000 0 0 0 1
50
90
41
0.75
7
W0$2032
0
TEXT
8
LABEL_ATTRIBUTE
10
3.937
20
-0.5079993333
40
1.4224
1
Ref.Des.
50
90
41
0.75
7
W0$2032
0
TEXT
8
PART_NAME_29
10
3.937
20
-0.5079993333
40
1.4224
1
R1
50
90
41
0.75
7
W0$2032
0
TEXT
8
PART_INFO
10
3.937
20
-2.5399993333
40
1.4224
1
000000
71
2
50
90
41
0.75
7
W0$2032
0
TEXT
8
PART_PTS
10
3.937
20
-4.5719993333
40
1.4224
1
1 2 
71
2
50
90
41
0.75
7
W0$2032
0
ENDBLK
0
BLOCK
2
PART_BOT_2
8
0
10
0
20
0
3
PART_BOT_2
70
64
0
INSERT
2
SYM_BOT_5
8
0
10
0
20
0
0
INSERT
2
PKG_2
8
0
10
0
20
0
41
-1
0
TEXT
8
LABEL_INFO
10
-1.5
20
-0.5
40
1.0668
1
0 0 0 0 0 1
41
0.75
7
W0$2032
0
TEXT
8
LABEL_ATTRIBUTE
10
-1.5
20
-0.5
40
1.0668
1
Ref.Des.
41
0.75
7
W0$2032
0
TEXT
8
PART_NAME_30
10
-1.5
20
-0.5
40
1.0668
1
R2
41
0.75
7
W0$2032
0
TEXT
8
LABEL_INFO
10
-1.5
20
-1
40
1.0668
1
0 0 0 2 0 1
73
2
11
-1.5
21
-1
41
0.75
7
W0$2032
0
TEXT
8
LABEL_ATTRIBUTE
10
-1.5
20
-1
40
1.0668
1
PartType
73
2
11
-1.5
21
-1
41
0.75
7
W0$2032
0
TEXT
8
PART_TYPE_29
10
-1.5
20
-1
40
1.0668
1
RES-75E-0805-1%-0.125W
73
3
11
-1.5
21
-1
41
0.75
7
W0$2032
0
TEXT
8
LABEL_INFO
10
3.81
20
-0.7619993333
40
1.4224
1
0 162000000 0 0 0 1
50
90
41
0.75
7
W0$2032
0
TEXT
8
LABEL_ATTRIBUTE
10
3.81
20
-0.7619993333
40
1.4224
1
Ref.Des.
50
90
41
0.75
7
W0$2032
0
TEXT
8
PART_NAME_29
10
3.81
20
-0.7619993333
40
1.4224
1
R2
50
90
41
0.75
7
W0$2032
0
TEXT
8
PART_INFO
10
3.81
20
-2.7939993333
40
1.4224
1
000000
71
2
50
90
41
0.75
7
W0$2032
0
TEXT
8
PART_PTS
10
3.81
20
-4.8259993333
40
1.4224
1
1 2 
71
2
50
90
41
0.75
7
W0$2032
0
ENDBLK
0
BLOCK
2
PART_BOT_3
8
0
10
0
20
0
3
PART_BOT_3
70
64
0
INSERT
2
SYM_BOT_6
8
0
10
0
20
0
0
INSERT
2
PKG_3
8
0
10
0
20
0
41
-1
0
TEXT
8
LABEL_INFO
10
4.572
20
-1.1429993333
40
1.4224
1
0 162000000 0 0 0 1
50
90
41
0.75
7
W0$2032
0
TEXT
8
LABEL_ATTRIBUTE
10
4.572
20
-1.1429993333
40
1.4224
1
Ref.Des.
50
90
41
0.75
7
W0$2032
0
TEXT
8
PART_NAME_29
10
4.572
20
-1.1429993333
40
1.4224
1
C3
50
90
41
0.75
7
W0$2032
0
TEXT
8
LABEL_INFO
10
-1.5
20
-1.25
40
1.0668
1
0 0 0 2 0 1
73
2
11
-1.5
21
-1.25
41
0.75
7
W0$2032
0
TEXT
8
LABEL_ATTRIBUTE
10
-1.5
20
-1.25
40
1.0668
1
PartType
73
2
11
-1.5
21
-1.25
41
0.75
7
W0$2032
0
TEXT
8
PART_TYPE_29
10
-1.5
20
-1.25
40
1.0668
1
CAPC-1NF-1206-10%-2KV-X7R
73
3
11
-1.5
21
-1.25
41
0.75
7
W0$2032
0
TEXT
8
LABEL_INFO
10
-1.5
20
-0.5
40
1.0668
1
0 0 0 0 0 1
41
0.75
7
W0$2032
0
TEXT
8
LABEL_ATTRIBUTE
10
-1.5
20
-0.5
40
1.0668
1
Ref.Des.
41
0.75
7
W0$2032
0
TEXT
8
PART_NAME_30
10
-1.5
20
-0.5
40
1.0668
1
C3
41
0.75
7
W0$2032
0
TEXT
8
PART_INFO
10
-1.5
20
-2.024
40
1.0668
1
000000
71
2
41
0.75
7
W0$2032
0
TEXT
8
PART_PTS
10
-1.5
20
-3.548
40
1.0668
1
1 2 
71
2
41
0.75
7
W0$2032
0
ENDBLK
0
BLOCK
2
PART_BOT_4
8
0
10
0
20
0
3
PART_BOT_4
70
64
0
INSERT
2
SYM_BOT_7
8
0
10
0
20
0
0
INSERT
2
PKG_4
8
0
10
0
20
0
41
-1
0
TEXT
8
LABEL_INFO
10
-1.5
20
-0.5
40
1.0668
1
0 0 0 0 0 1
41
0.75
7
W0$2032
0
TEXT
8
LABEL_ATTRIBUTE
10
-1.5
20
-0.5
40
1.0668
1
Ref.Des.
41
0.75
7
W0$2032
0
TEXT
8
PART_NAME_30
10
-1.5
20
-0.5
40
1.0668
1
R12
41
0.75
7
W0$2032
0
TEXT
8
LABEL_INFO
10
-1.5
20
-1.25
40
1.0668
1
0 0 0 2 0 1
73
2
11
-1.5
21
-1.25
41
0.75
7
W0$2032
0
TEXT
8
LABEL_ATTRIBUTE
10
-1.5
20
-1.25
40
1.0668
1
PartType
73
2
11
-1.5
21
-1.25
41
0.75
7
W0$2032
0
TEXT
8
PART_TYPE_29
10
-1.5
20
-1.25
40
1.0668
1
RES-1M
73
3
11
-1.5
21
-1.25
41
0.75
7
W0$2032
0
TEXT
8
LABEL_INFO
10
-4.572
20
1.1429993333
40
1.4224
1
0 486000000 0 0 0 1
50
270
41
0.75
7
W0$2032
0
TEXT
8
LABEL_ATTRIBUTE
10
-4.572
20
1.1429993333
40
1.4224
1
Ref.Des.
50
270
41
0.75
7
W0$2032
0
TEXT
8
PART_NAME_29
10
-4.572
20
1.1429993333
40
1.4224
1
R12
50
270
41
0.75
7
W0$2032
0
TEXT
8
PART_INFO
10
-4.572
20
-0.8890006667
40
1.4224
1
000000
71
2
50
270
41
0.75
7
W0$2032
0
TEXT
8
PART_PTS
10
-4.572
20
-2.9210006667
40
1.4224
1
1 2 
71
2
50
270
41
0.75
7
W0$2032
0
ENDBLK
0
BLOCK
2
PART_BOT_6
8
0
10
0
20
0
3
PART_BOT_6
70
64
0
INSERT
2
SYM_BOT_5
8
0
10
0
20
0
0
INSERT
2
PKG_2
8
0
10
0
20
0
41
-1
0
TEXT
8
LABEL_INFO
10
-1.5
20
-0.5
40
1.0668
1
0 0 0 0 0 1
41
0.75
7
W0$2032
0
TEXT
8
LABEL_ATTRIBUTE
10
-1.5
20
-0.5
40
1.0668
1
Ref.Des.
41
0.75
7
W0$2032
0
TEXT
8
PART_NAME_30
10
-1.5
20
-0.5
40
1.0668
1
R4
41
0.75
7
W0$2032
0
TEXT
8
LABEL_INFO
10
-1.5
20
-1
40
1.0668
1
0 0 0 2 0 1
73
2
11
-1.5
21
-1
41
0.75
7
W0$2032
0
TEXT
8
LABEL_ATTRIBUTE
10
-1.5
20
-1
40
1.0668
1
PartType
73
2
11
-1.5
21
-1
41
0.75
7
W0$2032
0
TEXT
8
PART_TYPE_29
10
-1.5
20
-1
40
1.0668
1
RES-75E-0805-1%-0.125W
73
3
11
-1.5
21
-1
41
0.75
7
W0$2032
0
TEXT
8
LABEL_INFO
10
4.572
20
-0.7619993333
40
1.4224
1
0 162000000 0 0 0 1
50
90
41
0.75
7
W0$2032
0
TEXT
8
LABEL_ATTRIBUTE
10
4.572
20
-0.7619993333
40
1.4224
1
Ref.Des.
50
90
41
0.75
7
W0$2032
0
TEXT
8
PART_NAME_29
10
4.572
20
-0.7619993333
40
1.4224
1
R4
50
90
41
0.75
7
W0$2032
0
TEXT
8
PART_INFO
10
4.572
20
-2.7939993333
40
1.4224
1
000000
71
2
50
90
41
0.75
7
W0$2032
0
TEXT
8
PART_PTS
10
4.572
20
-4.8259993333
40
1.4224
1
1 2 
71
2
50
90
41
0.75
7
W0$2032
0
ENDBLK
0
BLOCK
2
PART_BOT_7
8
0
10
0
20
0
3
PART_BOT_7
70
64
0
INSERT
2
SYM_BOT_5
8
0
10
0
20
0
0
INSERT
2
PKG_2
8
0
10
0
20
0
41
-1
0
TEXT
8
LABEL_INFO
10
-1.5
20
-0.5
40
1.0668
1
0 0 0 0 0 1
41
0.75
7
W0$2032
0
TEXT
8
LABEL_ATTRIBUTE
10
-1.5
20
-0.5
40
1.0668
1
Ref.Des.
41
0.75
7
W0$2032
0
TEXT
8
PART_NAME_30
10
-1.5
20
-0.5
40
1.0668
1
R5
41
0.75
7
W0$2032
0
TEXT
8
LABEL_INFO
10
-1.5
20
-1
40
1.0668
1
0 0 0 2 0 1
73
2
11
-1.5
21
-1
41
0.75
7
W0$2032
0
TEXT
8
LABEL_ATTRIBUTE
10
-1.5
20
-1
40
1.0668
1
PartType
73
2
11
-1.5
21
-1
41
0.75
7
W0$2032
0
TEXT
8
PART_TYPE_29
10
-1.5
20
-1
40
1.0668
1
RES-75E-0805-1%-0.125W
73
3
11
-1.5
21
-1
41
0.75
7
W0$2032
0
TEXT
8
LABEL_INFO
10
4.191
20
-1.0159993333
40
1.4224
1
0 162000000 0 0 0 1
50
90
41
0.75
7
W0$2032
0
TEXT
8
LABEL_ATTRIBUTE
10
4.191
20
-1.0159993333
40
1.4224
1
Ref.Des.
50
90
41
0.75
7
W0$2032
0
TEXT
8
PART_NAME_29
10
4.191
20
-1.0159993333
40
1.4224
1
R5
50
90
41
0.75
7
W0$2032
0
TEXT
8
PART_INFO
10
4.191
20
-3.0479993333
40
1.4224
1
000000
71
2
50
90
41
0.75
7
W0$2032
0
TEXT
8
PART_PTS
10
4.191
20
-5.0799993333
40
1.4224
1
1 2 
71
2
50
90
41
0.75
7
W0$2032
0
ENDBLK
0
BLOCK
2
PART_BOT_8
8
0
10
0
20
0
3
PART_BOT_8
70
64
0
INSERT
2
SYM_BOT_6
8
0
10
0
20
0
0
INSERT
2
PKG_3
8
0
10
0
20
0
41
-1
0
TEXT
8
LABEL_INFO
10
4.445
20
-0.8889993333
40
1.4224
1
0 162000000 0 0 0 1
50
90
41
0.75
7
W0$2032
0
TEXT
8
LABEL_ATTRIBUTE
10
4.445
20
-0.8889993333
40
1.4224
1
Ref.Des.
50
90
41
0.75
7
W0$2032
0
TEXT
8
PART_NAME_29
10
4.445
20
-0.8889993333
40
1.4224
1
C6
50
90
41
0.75
7
W0$2032
0
TEXT
8
LABEL_INFO
10
-1.5
20
-1.25
40
1.0668
1
0 0 0 2 0 1
73
2
11
-1.5
21
-1.25
41
0.75
7
W0$2032
0
TEXT
8
LABEL_ATTRIBUTE
10
-1.5
20
-1.25
40
1.0668
1
PartType
73
2
11
-1.5
21
-1.25
41
0.75
7
W0$2032
0
TEXT
8
PART_TYPE_29
10
-1.5
20
-1.25
40
1.0668
1
CAPC-1NF-1206-10%-2KV-X7R
73
3
11
-1.5
21
-1.25
41
0.75
7
W0$2032
0
TEXT
8
LABEL_INFO
10
-1.5
20
-0.5
40
1.0668
1
0 0 0 0 0 1
41
0.75
7
W0$2032
0
TEXT
8
LABEL_ATTRIBUTE
10
-1.5
20
-0.5
40
1.0668
1
Ref.Des.
41
0.75
7
W0$2032
0
TEXT
8
PART_NAME_30
10
-1.5
20
-0.5
40
1.0668
1
C6
41
0.75
7
W0$2032
0
TEXT
8
PART_INFO
10
-1.5
20
-2.024
40
1.0668
1
000000
71
2
41
0.75
7
W0$2032
0
TEXT
8
PART_PTS
10
-1.5
20
-3.548
40
1.0668
1
1 2 
71
2
41
0.75
7
W0$2032
0
ENDBLK
0
BLOCK
2
PART_BOT_9
8
0
10
0
20
0
3
PART_BOT_9
70
64
0
INSERT
2
SYM_BOT_7
8
0
10
0
20
0
0
INSERT
2
PKG_4
8
0
10
0
20
0
41
-1
0
TEXT
8
LABEL_INFO
10
-1.5
20
-0.5
40
1.0668
1
0 0 0 0 0 1
41
0.75
7
W0$2032
0
TEXT
8
LABEL_ATTRIBUTE
10
-1.5
20
-0.5
40
1.0668
1
Ref.Des.
41
0.75
7
W0$2032
0
TEXT
8
PART_NAME_30
10
-1.5
20
-0.5
40
1.0668
1
R6
41
0.75
7
W0$2032
0
TEXT
8
LABEL_INFO
10
-1.5
20
-1.25
40
1.0668
1
0 0 0 2 0 1
73
2
11
-1.5
21
-1.25
41
0.75
7
W0$2032
0
TEXT
8
LABEL_ATTRIBUTE
10
-1.5
20
-1.25
40
1.0668
1
PartType
73
2
11
-1.5
21
-1.25
41
0.75
7
W0$2032
0
TEXT
8
PART_TYPE_29
10
-1.5
20
-1.25
40
1.0668
1
RES-1M
73
3
11
-1.5
21
-1.25
41
0.75
7
W0$2032
0
TEXT
8
LABEL_INFO
10
-4.445
20
1.2699993333
40
1.4224
1
0 486000000 0 0 0 1
50
270
41
0.75
7
W0$2032
0
TEXT
8
LABEL_ATTRIBUTE
10
-4.445
20
1.2699993333
40
1.4224
1
Ref.Des.
50
270
41
0.75
7
W0$2032
0
TEXT
8
PART_NAME_29
10
-4.445
20
1.2699993333
40
1.4224
1
R6
50
270
41
0.75
7
W0$2032
0
TEXT
8
PART_INFO
10
-4.445
20
-0.7620006667
40
1.4224
1
000000
71
2
50
270
41
0.75
7
W0$2032
0
TEXT
8
PART_PTS
10
-4.445
20
-2.7940006667
40
1.4224
1
1 2 
71
2
50
270
41
0.75
7
W0$2032
0
ENDBLK
0
BLOCK
2
PART_BOT_11
8
0
10
0
20
0
3
PART_BOT_11
70
64
0
INSERT
2
SYM_BOT_5
8
0
10
0
20
0
0
INSERT
2
PKG_2
8
0
10
0
20
0
41
-1
0
TEXT
8
LABEL_INFO
10
-1.5
20
-0.5
40
1.0668
1
0 0 0 0 0 1
41
0.75
7
W0$2032
0
TEXT
8
LABEL_ATTRIBUTE
10
-1.5
20
-0.5
40
1.0668
1
Ref.Des.
41
0.75
7
W0$2032
0
TEXT
8
PART_NAME_30
10
-1.5
20
-0.5
40
1.0668
1
R7
41
0.75
7
W0$2032
0
TEXT
8
LABEL_INFO
10
-1.5
20
-1
40
1.0668
1
0 0 0 2 0 1
73
2
11
-1.5
21
-1
41
0.75
7
W0$2032
0
TEXT
8
LABEL_ATTRIBUTE
10
-1.5
20
-1
40
1.0668
1
PartType
73
2
11
-1.5
21
-1
41
0.75
7
W0$2032
0
TEXT
8
PART_TYPE_29
10
-1.5
20
-1
40
1.0668
1
RES-75E-0805-1%-0.125W
73
3
11
-1.5
21
-1
41
0.75
7
W0$2032
0
TEXT
8
LABEL_INFO
10
3.937
20
-0.8889993333
40
1.4224
1
0 162000000 0 0 0 1
50
90
41
0.75
7
W0$2032
0
TEXT
8
LABEL_ATTRIBUTE
10
3.937
20
-0.8889993333
40
1.4224
1
Ref.Des.
50
90
41
0.75
7
W0$2032
0
TEXT
8
PART_NAME_29
10
3.937
20
-0.8889993333
40
1.4224
1
R7
50
90
41
0.75
7
W0$2032
0
TEXT
8
PART_INFO
10
3.937
20
-2.9209993333
40
1.4224
1
000000
71
2
50
90
41
0.75
7
W0$2032
0
TEXT
8
PART_PTS
10
3.937
20
-4.9529993333
40
1.4224
1
1 2 
71
2
50
90
41
0.75
7
W0$2032
0
ENDBLK
0
BLOCK
2
PART_BOT_12
8
0
10
0
20
0
3
PART_BOT_12
70
64
0
INSERT
2
SYM_BOT_5
8
0
10
0
20
0
0
INSERT
2
PKG_2
8
0
10
0
20
0
41
-1
0
TEXT
8
LABEL_INFO
10
-1.5
20
-0.5
40
1.0668
1
0 0 0 0 0 1
41
0.75
7
W0$2032
0
TEXT
8
LABEL_ATTRIBUTE
10
-1.5
20
-0.5
40
1.0668
1
Ref.Des.
41
0.75
7
W0$2032
0
TEXT
8
PART_NAME_30
10
-1.5
20
-0.5
40
1.0668
1
R8
41
0.75
7
W0$2032
0
TEXT
8
LABEL_INFO
10
-1.5
20
-1
40
1.0668
1
0 0 0 2 0 1
73
2
11
-1.5
21
-1
41
0.75
7
W0$2032
0
TEXT
8
LABEL_ATTRIBUTE
10
-1.5
20
-1
40
1.0668
1
PartType
73
2
11
-1.5
21
-1
41
0.75
7
W0$2032
0
TEXT
8
PART_TYPE_29
10
-1.5
20
-1
40
1.0668
1
RES-75E-0805-1%-0.125W
73
3
11
-1.5
21
-1
41
0.75
7
W0$2032
0
TEXT
8
LABEL_INFO
10
4.064
20
-0.7619993333
40
1.4224
1
0 162000000 0 0 0 1
50
90
41
0.75
7
W0$2032
0
TEXT
8
LABEL_ATTRIBUTE
10
4.064
20
-0.7619993333
40
1.4224
1
Ref.Des.
50
90
41
0.75
7
W0$2032
0
TEXT
8
PART_NAME_29
10
4.064
20
-0.7619993333
40
1.4224
1
R8
50
90
41
0.75
7
W0$2032
0
TEXT
8
PART_INFO
10
4.064
20
-2.7939993333
40
1.4224
1
000000
71
2
50
90
41
0.75
7
W0$2032
0
TEXT
8
PART_PTS
10
4.064
20
-4.8259993333
40
1.4224
1
1 2 
71
2
50
90
41
0.75
7
W0$2032
0
ENDBLK
0
BLOCK
2
PART_BOT_13
8
0
10
0
20
0
3
PART_BOT_13
70
64
0
INSERT
2
SYM_BOT_6
8
0
10
0
20
0
0
INSERT
2
PKG_3
8
0
10
0
20
0
41
-1
0
TEXT
8
LABEL_INFO
10
4.572
20
-0.6349993333
40
1.4224
1
0 162000000 0 0 0 1
50
90
41
0.75
7
W0$2032
0
TEXT
8
LABEL_ATTRIBUTE
10
4.572
20
-0.6349993333
40
1.4224
1
Ref.Des.
50
90
41
0.75
7
W0$2032
0
TEXT
8
PART_NAME_29
10
4.572
20
-0.6349993333
40
1.4224
1
C9
50
90
41
0.75
7
W0$2032
0
TEXT
8
LABEL_INFO
10
-1.5
20
-1.25
40
1.0668
1
0 0 0 2 0 1
73
2
11
-1.5
21
-1.25
41
0.75
7
W0$2032
0
TEXT
8
LABEL_ATTRIBUTE
10
-1.5
20
-1.25
40
1.0668
1
PartType
73
2
11
-1.5
21
-1.25
41
0.75
7
W0$2032
0
TEXT
8
PART_TYPE_29
10
-1.5
20
-1.25
40
1.0668
1
CAPC-1NF-1206-10%-2KV-X7R
73
3
11
-1.5
21
-1.25
41
0.75
7
W0$2032
0
TEXT
8
LABEL_INFO
10
-1.5
20
-0.5
40
1.0668
1
0 0 0 0 0 1
41
0.75
7
W0$2032
0
TEXT
8
LABEL_ATTRIBUTE
10
-1.5
20
-0.5
40
1.0668
1
Ref.Des.
41
0.75
7
W0$2032
0
TEXT
8
PART_NAME_30
10
-1.5
20
-0.5
40
1.0668
1
C9
41
0.75
7
W0$2032
0
TEXT
8
PART_INFO
10
-1.5
20
-2.024
40
1.0668
1
000000
71
2
41
0.75
7
W0$2032
0
TEXT
8
PART_PTS
10
-1.5
20
-3.548
40
1.0668
1
1 2 
71
2
41
0.75
7
W0$2032
0
ENDBLK
0
BLOCK
2
PART_BOT_14
8
0
10
0
20
0
3
PART_BOT_14
70
64
0
INSERT
2
SYM_BOT_7
8
0
10
0
20
0
0
INSERT
2
PKG_4
8
0
10
0
20
0
41
-1
0
TEXT
8
LABEL_INFO
10
-1.5
20
-0.5
40
1.0668
1
0 0 0 0 0 1
41
0.75
7
W0$2032
0
TEXT
8
LABEL_ATTRIBUTE
10
-1.5
20
-0.5
40
1.0668
1
Ref.Des.
41
0.75
7
W0$2032
0
TEXT
8
PART_NAME_30
10
-1.5
20
-0.5
40
1.0668
1
R9
41
0.75
7
W0$2032
0
TEXT
8
LABEL_INFO
10
-1.5
20
-1.25
40
1.0668
1
0 0 0 2 0 1
73
2
11
-1.5
21
-1.25
41
0.75
7
W0$2032
0
TEXT
8
LABEL_ATTRIBUTE
10
-1.5
20
-1.25
40
1.0668
1
PartType
73
2
11
-1.5
21
-1.25
41
0.75
7
W0$2032
0
TEXT
8
PART_TYPE_29
10
-1.5
20
-1.25
40
1.0668
1
RES-1M
73
3
11
-1.5
21
-1.25
41
0.75
7
W0$2032
0
TEXT
8
LABEL_INFO
10
-4.318
20
0.8889993333
40
1.4224
1
0 486000000 0 0 0 1
50
270
41
0.75
7
W0$2032
0
TEXT
8
LABEL_ATTRIBUTE
10
-4.318
20
0.8889993333
40
1.4224
1
Ref.Des.
50
270
41
0.75
7
W0$2032
0
TEXT
8
PART_NAME_29
10
-4.318
20
0.8889993333
40
1.4224
1
R9
50
270
41
0.75
7
W0$2032
0
TEXT
8
PART_INFO
10
-4.318
20
-1.1430006667
40
1.4224
1
000000
71
2
50
270
41
0.75
7
W0$2032
0
TEXT
8
PART_PTS
10
-4.318
20
-3.1750006667
40
1.4224
1
1 2 
71
2
50
270
41
0.75
7
W0$2032
0
ENDBLK
0
BLOCK
2
PART_BOT_16
8
0
10
0
20
0
3
PART_BOT_16
70
64
0
INSERT
2
SYM_BOT_5
8
0
10
0
20
0
0
INSERT
2
PKG_2
8
0
10
0
20
0
41
-1
0
TEXT
8
LABEL_INFO
10
-1.5
20
-0.5
40
1.0668
1
0 0 0 0 0 1
41
0.75
7
W0$2032
0
TEXT
8
LABEL_ATTRIBUTE
10
-1.5
20
-0.5
40
1.0668
1
Ref.Des.
41
0.75
7
W0$2032
0
TEXT
8
PART_NAME_30
10
-1.5
20
-0.5
40
1.0668
1
R10
41
0.75
7
W0$2032
0
TEXT
8
LABEL_INFO
10
-1.5
20
-1
40
1.0668
1
0 0 0 2 0 1
73
2
11
-1.5
21
-1
41
0.75
7
W0$2032
0
TEXT
8
LABEL_ATTRIBUTE
10
-1.5
20
-1
40
1.0668
1
PartType
73
2
11
-1.5
21
-1
41
0.75
7
W0$2032
0
TEXT
8
PART_TYPE_29
10
-1.5
20
-1
40
1.0668
1
RES-75E-0805-1%-0.125W
73
3
11
-1.5
21
-1
41
0.75
7
W0$2032
0
TEXT
8
LABEL_INFO
10
4.064
20
-1.3969993333
40
1.4224
1
0 162000000 0 0 0 1
50
90
41
0.75
7
W0$2032
0
TEXT
8
LABEL_ATTRIBUTE
10
4.064
20
-1.3969993333
40
1.4224
1
Ref.Des.
50
90
41
0.75
7
W0$2032
0
TEXT
8
PART_NAME_29
10
4.064
20
-1.3969993333
40
1.4224
1
R10
50
90
41
0.75
7
W0$2032
0
TEXT
8
PART_INFO
10
4.064
20
-3.4289993333
40
1.4224
1
000000
71
2
50
90
41
0.75
7
W0$2032
0
TEXT
8
PART_PTS
10
4.064
20
-5.4609993333
40
1.4224
1
1 2 
71
2
50
90
41
0.75
7
W0$2032
0
ENDBLK
0
BLOCK
2
PART_BOT_17
8
0
10
0
20
0
3
PART_BOT_17
70
64
0
INSERT
2
SYM_BOT_5
8
0
10
0
20
0
0
INSERT
2
PKG_2
8
0
10
0
20
0
41
-1
0
TEXT
8
LABEL_INFO
10
-1.5
20
-0.5
40
1.0668
1
0 0 0 0 0 1
41
0.75
7
W0$2032
0
TEXT
8
LABEL_ATTRIBUTE
10
-1.5
20
-0.5
40
1.0668
1
Ref.Des.
41
0.75
7
W0$2032
0
TEXT
8
PART_NAME_30
10
-1.5
20
-0.5
40
1.0668
1
R11
41
0.75
7
W0$2032
0
TEXT
8
LABEL_INFO
10
-1.5
20
-1
40
1.0668
1
0 0 0 2 0 1
73
2
11
-1.5
21
-1
41
0.75
7
W0$2032
0
TEXT
8
LABEL_ATTRIBUTE
10
-1.5
20
-1
40
1.0668
1
PartType
73
2
11
-1.5
21
-1
41
0.75
7
W0$2032
0
TEXT
8
PART_TYPE_29
10
-1.5
20
-1
40
1.0668
1
RES-75E-0805-1%-0.125W
73
3
11
-1.5
21
-1
41
0.75
7
W0$2032
0
TEXT
8
LABEL_INFO
10
4.064
20
-1.0159993333
40
1.4224
1
0 162000000 0 0 0 1
50
90
41
0.75
7
W0$2032
0
TEXT
8
LABEL_ATTRIBUTE
10
4.064
20
-1.0159993333
40
1.4224
1
Ref.Des.
50
90
41
0.75
7
W0$2032
0
TEXT
8
PART_NAME_29
10
4.064
20
-1.0159993333
40
1.4224
1
R11
50
90
41
0.75
7
W0$2032
0
TEXT
8
PART_INFO
10
4.064
20
-3.0479993333
40
1.4224
1
000000
71
2
50
90
41
0.75
7
W0$2032
0
TEXT
8
PART_PTS
10
4.064
20
-5.0799993333
40
1.4224
1
1 2 
71
2
50
90
41
0.75
7
W0$2032
0
ENDBLK
0
BLOCK
2
PART_BOT_18
8
0
10
0
20
0
3
PART_BOT_18
70
64
0
INSERT
2
SYM_BOT_6
8
0
10
0
20
0
0
INSERT
2
PKG_3
8
0
10
0
20
0
41
-1
0
TEXT
8
LABEL_INFO
10
4.572
20
-1.6509993333
40
1.4224
1
0 162000000 0 0 0 1
50
90
41
0.75
7
W0$2032
0
TEXT
8
LABEL_ATTRIBUTE
10
4.572
20
-1.6509993333
40
1.4224
1
Ref.Des.
50
90
41
0.75
7
W0$2032
0
TEXT
8
PART_NAME_29
10
4.572
20
-1.6509993333
40
1.4224
1
C12
50
90
41
0.75
7
W0$2032
0
TEXT
8
LABEL_INFO
10
-1.5
20
-1.25
40
1.0668
1
0 0 0 2 0 1
73
2
11
-1.5
21
-1.25
41
0.75
7
W0$2032
0
TEXT
8
LABEL_ATTRIBUTE
10
-1.5
20
-1.25
40
1.0668
1
PartType
73
2
11
-1.5
21
-1.25
41
0.75
7
W0$2032
0
TEXT
8
PART_TYPE_29
10
-1.5
20
-1.25
40
1.0668
1
CAPC-1NF-1206-10%-2KV-X7R
73
3
11
-1.5
21
-1.25
41
0.75
7
W0$2032
0
TEXT
8
LABEL_INFO
10
-1.5
20
-0.5
40
1.0668
1
0 0 0 0 0 1
41
0.75
7
W0$2032
0
TEXT
8
LABEL_ATTRIBUTE
10
-1.5
20
-0.5
40
1.0668
1
Ref.Des.
41
0.75
7
W0$2032
0
TEXT
8
PART_NAME_30
10
-1.5
20
-0.5
40
1.0668
1
C12
41
0.75
7
W0$2032
0
TEXT
8
PART_INFO
10
-1.5
20
-2.024
40
1.0668
1
000000
71
2
41
0.75
7
W0$2032
0
TEXT
8
PART_PTS
10
-1.5
20
-3.548
40
1.0668
1
1 2 
71
2
41
0.75
7
W0$2032
0
ENDBLK
0
BLOCK
2
PART_BOT_19
8
0
10
0
20
0
3
PART_BOT_19
70
64
0
INSERT
2
SYM_BOT_7
8
0
10
0
20
0
0
INSERT
2
PKG_4
8
0
10
0
20
0
41
-1
0
TEXT
8
LABEL_INFO
10
-1.5
20
-0.5
40
1.0668
1
0 0 0 0 0 1
41
0.75
7
W0$2032
0
TEXT
8
LABEL_ATTRIBUTE
10
-1.5
20
-0.5
40
1.0668
1
Ref.Des.
41
0.75
7
W0$2032
0
TEXT
8
PART_NAME_30
10
-1.5
20
-0.5
40
1.0668
1
R3
41
0.75
7
W0$2032
0
TEXT
8
LABEL_INFO
10
-1.5
20
-1.25
40
1.0668
1
0 0 0 2 0 1
73
2
11
-1.5
21
-1.25
41
0.75
7
W0$2032
0
TEXT
8
LABEL_ATTRIBUTE
10
-1.5
20
-1.25
40
1.0668
1
PartType
73
2
11
-1.5
21
-1.25
41
0.75
7
W0$2032
0
TEXT
8
PART_TYPE_29
10
-1.5
20
-1.25
40
1.0668
1
RES-1M
73
3
11
-1.5
21
-1.25
41
0.75
7
W0$2032
0
TEXT
8
LABEL_INFO
10
-4.318
20
0.6349993333
40
1.4224
1
0 486000000 0 0 0 1
50
270
41
0.75
7
W0$2032
0
TEXT
8
LABEL_ATTRIBUTE
10
-4.318
20
0.6349993333
40
1.4224
1
Ref.Des.
50
270
41
0.75
7
W0$2032
0
TEXT
8
PART_NAME_29
10
-4.318
20
0.6349993333
40
1.4224
1
R3
50
270
41
0.75
7
W0$2032
0
TEXT
8
PART_INFO
10
-4.318
20
-1.3970006667
40
1.4224
1
000000
71
2
50
270
41
0.75
7
W0$2032
0
TEXT
8
PART_PTS
10
-4.318
20
-3.4290006667
40
1.4224
1
1 2 
71
2
50
270
41
0.75
7
W0$2032
0
ENDBLK
0
BLOCK
2
PART_BOT_31
8
0
10
0
20
0
3
PART_BOT_31
70
64
0
INSERT
2
SYM_BOT_12
8
0
10
0
20
0
0
INSERT
2
PKG_11
8
0
10
0
20
0
41
-1
0
TEXT
8
LABEL_INFO
10
-1.5
20
-0.324
40
1.0668
1
0 0 0 0 0 1
41
0.75
7
W0$2032
0
TEXT
8
LABEL_ATTRIBUTE
10
-1.5
20
-0.324
40
1.0668
1
Ref.Des.
41
0.75
7
W0$2032
0
TEXT
8
PART_NAME_30
10
-1.5
20
-0.324
40
1.0668
1
R14
41
0.75
7
W0$2032
0
TEXT
8
LABEL_INFO
10
-1.5
20
-1.05
40
1.0668
1
0 0 0 2 0 1
73
2
11
-1.5
21
-1.05
41
0.75
7
W0$2032
0
TEXT
8
LABEL_ATTRIBUTE
10
-1.5
20
-1.05
40
1.0668
1
PartType
73
2
11
-1.5
21
-1.05
41
0.75
7
W0$2032
0
TEXT
8
PART_TYPE_29
10
-1.5
20
-1.05
40
1.0668
1
RES-10K
73
3
11
-1.5
21
-1.05
41
0.75
7
W0$2032
0
TEXT
8
LABEL_INFO
10
4.318
20
0.635
40
1.4224
1
0 324000000 0 0 0 1
50
180
41
0.75
7
W0$2032
0
TEXT
8
LABEL_ATTRIBUTE
10
4.318
20
0.635
40
1.4224
1
Ref.Des.
50
180
41
0.75
7
W0$2032
0
TEXT
8
PART_NAME_29
10
4.318
20
0.635
40
1.4224
1
R14
50
180
41
0.75
7
W0$2032
0
TEXT
8
PART_INFO
10
4.318
20
-1.397
40
1.4224
1
000000
71
2
50
180
41
0.75
7
W0$2032
0
TEXT
8
PART_PTS
10
4.318
20
-3.429
40
1.4224
1
1 2 
71
2
50
180
41
0.75
7
W0$2032
0
ENDBLK
0
BLOCK
2
PART_BOT_32
8
0
10
0
20
0
3
PART_BOT_32
70
64
0
INSERT
2
SYM_BOT_12
8
0
10
0
20
0
0
INSERT
2
PKG_11
8
0
10
0
20
0
41
-1
0
TEXT
8
LABEL_INFO
10
-1.5
20
-0.324
40
1.0668
1
0 0 0 0 0 1
41
0.75
7
W0$2032
0
TEXT
8
LABEL_ATTRIBUTE
10
-1.5
20
-0.324
40
1.0668
1
Ref.Des.
41
0.75
7
W0$2032
0
TEXT
8
PART_NAME_30
10
-1.5
20
-0.324
40
1.0668
1
R15
41
0.75
7
W0$2032
0
TEXT
8
LABEL_INFO
10
-1.5
20
-1.05
40
1.0668
1
0 0 0 2 0 1
73
2
11
-1.5
21
-1.05
41
0.75
7
W0$2032
0
TEXT
8
LABEL_ATTRIBUTE
10
-1.5
20
-1.05
40
1.0668
1
PartType
73
2
11
-1.5
21
-1.05
41
0.75
7
W0$2032
0
TEXT
8
PART_TYPE_29
10
-1.5
20
-1.05
40
1.0668
1
RES-10K
73
3
11
-1.5
21
-1.05
41
0.75
7
W0$2032
0
TEXT
8
LABEL_INFO
10
2.667
20
0.635
40
1.4224
1
0 486000000 0 0 0 1
50
270
41
0.75
7
W0$2032
0
TEXT
8
LABEL_ATTRIBUTE
10
2.667
20
0.635
40
1.4224
1
Ref.Des.
50
270
41
0.75
7
W0$2032
0
TEXT
8
PART_NAME_29
10
2.667
20
0.635
40
1.4224
1
R15
50
270
41
0.75
7
W0$2032
0
TEXT
8
PART_INFO
10
2.667
20
-1.397
40
1.4224
1
000000
71
2
50
270
41
0.75
7
W0$2032
0
TEXT
8
PART_PTS
10
2.667
20
-3.429
40
1.4224
1
1 2 
71
2
50
270
41
0.75
7
W0$2032
0
ENDBLK
0
BLOCK
2
PART_BOT_33
8
0
10
0
20
0
3
PART_BOT_33
70
64
0
INSERT
2
SYM_BOT_4
8
0
10
0
20
0
0
INSERT
2
PKG_1
8
0
10
0
20
0
41
-1
0
TEXT
8
LABEL_INFO
10
-1.5
20
-0.5
40
1.0668
1
0 0 0 0 0 1
41
0.75
7
W0$2032
0
TEXT
8
LABEL_ATTRIBUTE
10
-1.5
20
-0.5
40
1.0668
1
Ref.Des.
41
0.75
7
W0$2032
0
TEXT
8
PART_NAME_30
10
-1.5
20
-0.5
40
1.0668
1
C13
41
0.75
7
W0$2032
0
TEXT
8
LABEL_INFO
10
-1.5
20
-1
40
1.0668
1
0 0 0 2 0 1
73
2
11
-1.5
21
-1
41
0.75
7
W0$2032
0
TEXT
8
LABEL_ATTRIBUTE
10
-1.5
20
-1
40
1.0668
1
PartType
73
2
11
-1.5
21
-1
41
0.75
7
W0$2032
0
TEXT
8
PART_TYPE_29
10
-1.5
20
-1
40
1.0668
1
CAP_100NF_50V_0803
73
3
11
-1.5
21
-1
41
0.75
7
W0$2032
0
TEXT
8
LABEL_INFO
10
2.921
20
1.143
40
1.4224
1
0 486000000 0 0 0 1
50
270
41
0.75
7
W0$2032
0
TEXT
8
LABEL_ATTRIBUTE
10
2.921
20
1.143
40
1.4224
1
Ref.Des.
50
270
41
0.75
7
W0$2032
0
TEXT
8
PART_NAME_29
10
2.921
20
1.143
40
1.4224
1
C13
50
270
41
0.75
7
W0$2032
0
TEXT
8
PART_INFO
10
2.921
20
-0.889
40
1.4224
1
000000
71
2
50
270
41
0.75
7
W0$2032
0
TEXT
8
PART_PTS
10
2.921
20
-2.921
40
1.4224
1
1 2 
71
2
50
270
41
0.75
7
W0$2032
0
ENDBLK
0
BLOCK
2
PART_BOT_34
8
0
10
0
20
0
3
PART_BOT_34
70
64
0
INSERT
2
SYM_BOT_4
8
0
10
0
20
0
0
INSERT
2
PKG_1
8
0
10
0
20
0
41
-1
0
TEXT
8
LABEL_INFO
10
-1.5
20
-0.5
40
1.0668
1
0 0 0 0 0 1
41
0.75
7
W0$2032
0
TEXT
8
LABEL_ATTRIBUTE
10
-1.5
20
-0.5
40
1.0668
1
Ref.Des.
41
0.75
7
W0$2032
0
TEXT
8
PART_NAME_30
10
-1.5
20
-0.5
40
1.0668
1
C14
41
0.75
7
W0$2032
0
TEXT
8
LABEL_INFO
10
-1.5
20
-1
40
1.0668
1
0 0 0 2 0 1
73
2
11
-1.5
21
-1
41
0.75
7
W0$2032
0
TEXT
8
LABEL_ATTRIBUTE
10
-1.5
20
-1
40
1.0668
1
PartType
73
2
11
-1.5
21
-1
41
0.75
7
W0$2032
0
TEXT
8
PART_TYPE_29
10
-1.5
20
-1
40
1.0668
1
CAP_100NF_50V_0803
73
3
11
-1.5
21
-1
41
0.75
7
W0$2032
0
TEXT
8
LABEL_INFO
10
2.794
20
-0.635
40
1.4224
1
0 0 0 0 0 1
41
0.75
7
W0$2032
0
TEXT
8
LABEL_ATTRIBUTE
10
2.794
20
-0.635
40
1.4224
1
Ref.Des.
41
0.75
7
W0$2032
0
TEXT
8
PART_NAME_29
10
2.794
20
-0.635
40
1.4224
1
C14
41
0.75
7
W0$2032
0
TEXT
8
PART_INFO
10
2.794
20
-2.667
40
1.4224
1
000000
71
2
41
0.75
7
W0$2032
0
TEXT
8
PART_PTS
10
2.794
20
-4.699
40
1.4224
1
1 2 
71
2
41
0.75
7
W0$2032
0
ENDBLK
0
BLOCK
2
PART_BOT_39
8
0
10
0
20
0
3
PART_BOT_39
70
64
0
INSERT
2
SYM_BOT_15
8
0
10
0
20
0
0
INSERT
2
PKG_15
8
0
10
0
20
0
41
-1
0
TEXT
8
LABEL_INFO
10
-1.5
20
-0.5
40
1.0668
1
0 0 0 0 0 1
41
0.75
7
W0$2032
0
TEXT
8
LABEL_ATTRIBUTE
10
-1.5
20
-0.5
40
1.0668
1
Ref.Des.
41
0.75
7
W0$2032
0
TEXT
8
PART_NAME_30
10
-1.5
20
-0.5
40
1.0668
1
FB1
41
0.75
7
W0$2032
0
TEXT
8
LABEL_INFO
10
-1.5
20
-1
40
1.0668
1
0 0 0 2 0 1
73
2
11
-1.5
21
-1
41
0.75
7
W0$2032
0
TEXT
8
LABEL_ATTRIBUTE
10
-1.5
20
-1
40
1.0668
1
PartType
73
2
11
-1.5
21
-1
41
0.75
7
W0$2032
0
TEXT
8
PART_TYPE_29
10
-1.5
20
-1
40
1.0668
1
FB-120E-100MHZ-0805
73
3
11
-1.5
21
-1
41
0.75
7
W0$2032
0
TEXT
8
LABEL_INFO
10
2.0319993333
20
2.54
40
1.0668
1
0 324000000 0 0 0 1
50
180
41
0.75
7
W0$1524
0
TEXT
8
LABEL_ATTRIBUTE
10
2.0319993333
20
2.54
40
1.0668
1
Ref.Des.
50
180
41
0.75
7
W0$1524
0
TEXT
8
PART_NAME_29
10
2.0319993333
20
2.54
40
1.0668
1
FB1
50
180
41
0.75
7
W0$1524
0
TEXT
8
PART_INFO
10
2.0319993333
20
1.016
40
1.0668
1
000000
71
2
50
180
41
0.75
7
W0$1524
0
TEXT
8
PART_PTS
10
2.0319993333
20
-0.508
40
1.0668
1
1 2 
71
2
50
180
41
0.75
7
W0$1524
0
ENDBLK
0
BLOCK
2
PART_BOT_42
8
0
10
0
20
0
3
PART_BOT_42
70
64
0
INSERT
2
SYM_BOT_4
8
0
10
0
20
0
0
INSERT
2
PKG_18
8
0
10
0
20
0
41
-1
0
TEXT
8
LABEL_INFO
10
-1.5
20
-0.5
40
1.0668
1
0 0 0 0 0 1
41
0.75
7
W0$2032
0
TEXT
8
LABEL_ATTRIBUTE
10
-1.5
20
-0.5
40
1.0668
1
Ref.Des.
41
0.75
7
W0$2032
0
TEXT
8
PART_NAME_30
10
-1.5
20
-0.5
40
1.0668
1
C1
41
0.75
7
W0$2032
0
TEXT
8
LABEL_INFO
10
-1.5
20
-1
40
1.0668
1
0 0 0 2 0 1
73
2
11
-1.5
21
-1
41
0.75
7
W0$2032
0
TEXT
8
LABEL_ATTRIBUTE
10
-1.5
20
-1
40
1.0668
1
PartType
73
2
11
-1.5
21
-1
41
0.75
7
W0$2032
0
TEXT
8
PART_TYPE_29
10
-1.5
20
-1
40
1.0668
1
CAPC-0.01UF-0805-5%-50V-X7R
73
3
11
-1.5
21
-1
41
0.75
7
W0$2032
0
TEXT
8
LABEL_INFO
10
-2.794
20
0.7619993333
40
1.4224
1
0 324000000 0 0 0 1
50
180
41
0.75
7
W0$2032
0
TEXT
8
LABEL_ATTRIBUTE
10
-2.794
20
0.7619993333
40
1.4224
1
Ref.Des.
50
180
41
0.75
7
W0$2032
0
TEXT
8
PART_NAME_29
10
-2.794
20
0.7619993333
40
1.4224
1
C1
50
180
41
0.75
7
W0$2032
0
TEXT
8
PART_INFO
10
-2.794
20
-1.2700006667
40
1.4224
1
000000
71
2
50
180
41
0.75
7
W0$2032
0
TEXT
8
PART_PTS
10
-2.794
20
-3.3020006667
40
1.4224
1
1 2 
71
2
50
180
41
0.75
7
W0$2032
0
ENDBLK
0
BLOCK
2
PART_BOT_43
8
0
10
0
20
0
3
PART_BOT_43
70
64
0
INSERT
2
SYM_BOT_4
8
0
10
0
20
0
0
INSERT
2
PKG_18
8
0
10
0
20
0
41
-1
0
TEXT
8
LABEL_INFO
10
-1.5
20
-0.5
40
1.0668
1
0 0 0 0 0 1
41
0.75
7
W0$2032
0
TEXT
8
LABEL_ATTRIBUTE
10
-1.5
20
-0.5
40
1.0668
1
Ref.Des.
41
0.75
7
W0$2032
0
TEXT
8
PART_NAME_30
10
-1.5
20
-0.5
40
1.0668
1
C10
41
0.75
7
W0$2032
0
TEXT
8
LABEL_INFO
10
-1.5
20
-1
40
1.0668
1
0 0 0 2 0 1
73
2
11
-1.5
21
-1
41
0.75
7
W0$2032
0
TEXT
8
LABEL_ATTRIBUTE
10
-1.5
20
-1
40
1.0668
1
PartType
73
2
11
-1.5
21
-1
41
0.75
7
W0$2032
0
TEXT
8
PART_TYPE_29
10
-1.5
20
-1
40
1.0668
1
CAPC-0.01UF-0805-5%-50V-X7R
73
3
11
-1.5
21
-1
41
0.75
7
W0$2032
0
TEXT
8
LABEL_INFO
10
1.27
20
-1.6509993333
40
1.4224
1
0 324000000 0 0 0 1
50
180
41
0.75
7
W0$2032
0
TEXT
8
LABEL_ATTRIBUTE
10
1.27
20
-1.6509993333
40
1.4224
1
Ref.Des.
50
180
41
0.75
7
W0$2032
0
TEXT
8
PART_NAME_29
10
1.27
20
-1.6509993333
40
1.4224
1
C10
50
180
41
0.75
7
W0$2032
0
TEXT
8
PART_INFO
10
1.27
20
-3.6829993333
40
1.4224
1
000000
71
2
50
180
41
0.75
7
W0$2032
0
TEXT
8
PART_PTS
10
1.27
20
-5.7149993333
40
1.4224
1
1 2 
71
2
50
180
41
0.75
7
W0$2032
0
ENDBLK
0
BLOCK
2
PART_BOT_44
8
0
10
0
20
0
3
PART_BOT_44
70
64
0
INSERT
2
SYM_BOT_4
8
0
10
0
20
0
0
INSERT
2
PKG_18
8
0
10
0
20
0
41
-1
0
TEXT
8
LABEL_INFO
10
-1.5
20
-0.5
40
1.0668
1
0 0 0 0 0 1
41
0.75
7
W0$2032
0
TEXT
8
LABEL_ATTRIBUTE
10
-1.5
20
-0.5
40
1.0668
1
Ref.Des.
41
0.75
7
W0$2032
0
TEXT
8
PART_NAME_30
10
-1.5
20
-0.5
40
1.0668
1
C11
41
0.75
7
W0$2032
0
TEXT
8
LABEL_INFO
10
-1.5
20
-1
40
1.0668
1
0 0 0 2 0 1
73
2
11
-1.5
21
-1
41
0.75
7
W0$2032
0
TEXT
8
LABEL_ATTRIBUTE
10
-1.5
20
-1
40
1.0668
1
PartType
73
2
11
-1.5
21
-1
41
0.75
7
W0$2032
0
TEXT
8
PART_TYPE_29
10
-1.5
20
-1
40
1.0668
1
CAPC-0.01UF-0805-5%-50V-X7R
73
3
11
-1.5
21
-1
41
0.75
7
W0$2032
0
TEXT
8
LABEL_INFO
10
-1.016
20
1.524
40
1.4224
1
0 0 0 0 0 1
41
0.75
7
W0$2032
0
TEXT
8
LABEL_ATTRIBUTE
10
-1.016
20
1.524
40
1.4224
1
Ref.Des.
41
0.75
7
W0$2032
0
TEXT
8
PART_NAME_29
10
-1.016
20
1.524
40
1.4224
1
C11
41
0.75
7
W0$2032
0
TEXT
8
PART_INFO
10
-1.016
20
-0.508
40
1.4224
1
000000
71
2
41
0.75
7
W0$2032
0
TEXT
8
PART_PTS
10
-1.016
20
-2.54
40
1.4224
1
1 2 
71
2
41
0.75
7
W0$2032
0
ENDBLK
0
BLOCK
2
PART_BOT_47
8
0
10
0
20
0
3
PART_BOT_47
70
64
0
INSERT
2
SYM_BOT_4
8
0
10
0
20
0
0
INSERT
2
PKG_18
8
0
10
0
20
0
41
-1
0
TEXT
8
LABEL_INFO
10
-1.5
20
-0.5
40
1.0668
1
0 0 0 0 0 1
41
0.75
7
W0$2032
0
TEXT
8
LABEL_ATTRIBUTE
10
-1.5
20
-0.5
40
1.0668
1
Ref.Des.
41
0.75
7
W0$2032
0
TEXT
8
PART_NAME_30
10
-1.5
20
-0.5
40
1.0668
1
C2
41
0.75
7
W0$2032
0
TEXT
8
LABEL_INFO
10
-1.5
20
-1
40
1.0668
1
0 0 0 2 0 1
73
2
11
-1.5
21
-1
41
0.75
7
W0$2032
0
TEXT
8
LABEL_ATTRIBUTE
10
-1.5
20
-1
40
1.0668
1
PartType
73
2
11
-1.5
21
-1
41
0.75
7
W0$2032
0
TEXT
8
PART_TYPE_29
10
-1.5
20
-1
40
1.0668
1
CAPC-0.01UF-0805-5%-50V-X7R
73
3
11
-1.5
21
-1
41
0.75
7
W0$2032
0
TEXT
8
LABEL_INFO
10
0.762
20
-1.651
40
1.4224
1
0 324000000 0 0 0 1
50
180
41
0.75
7
W0$2032
0
TEXT
8
LABEL_ATTRIBUTE
10
0.762
20
-1.651
40
1.4224
1
Ref.Des.
50
180
41
0.75
7
W0$2032
0
TEXT
8
PART_NAME_29
10
0.762
20
-1.651
40
1.4224
1
C2
50
180
41
0.75
7
W0$2032
0
TEXT
8
PART_INFO
10
0.762
20
-3.683
40
1.4224
1
000000
71
2
50
180
41
0.75
7
W0$2032
0
TEXT
8
PART_PTS
10
0.762
20
-5.715
40
1.4224
1
1 2 
71
2
50
180
41
0.75
7
W0$2032
0
ENDBLK
0
BLOCK
2
PART_BOT_48
8
0
10
0
20
0
3
PART_BOT_48
70
64
0
INSERT
2
SYM_BOT_4
8
0
10
0
20
0
0
INSERT
2
PKG_18
8
0
10
0
20
0
41
-1
0
TEXT
8
LABEL_INFO
10
-1.5
20
-0.5
40
1.0668
1
0 0 0 0 0 1
41
0.75
7
W0$2032
0
TEXT
8
LABEL_ATTRIBUTE
10
-1.5
20
-0.5
40
1.0668
1
Ref.Des.
41
0.75
7
W0$2032
0
TEXT
8
PART_NAME_30
10
-1.5
20
-0.5
40
1.0668
1
C4
41
0.75
7
W0$2032
0
TEXT
8
LABEL_INFO
10
-1.5
20
-1
40
1.0668
1
0 0 0 2 0 1
73
2
11
-1.5
21
-1
41
0.75
7
W0$2032
0
TEXT
8
LABEL_ATTRIBUTE
10
-1.5
20
-1
40
1.0668
1
PartType
73
2
11
-1.5
21
-1
41
0.75
7
W0$2032
0
TEXT
8
PART_TYPE_29
10
-1.5
20
-1
40
1.0668
1
CAPC-0.01UF-0805-5%-50V-X7R
73
3
11
-1.5
21
-1
41
0.75
7
W0$2032
0
TEXT
8
LABEL_INFO
10
-4.826
20
-0.635
40
1.4224
1
0 0 0 0 0 1
41
0.75
7
W0$2032
0
TEXT
8
LABEL_ATTRIBUTE
10
-4.826
20
-0.635
40
1.4224
1
Ref.Des.
41
0.75
7
W0$2032
0
TEXT
8
PART_NAME_29
10
-4.826
20
-0.635
40
1.4224
1
C4
41
0.75
7
W0$2032
0
TEXT
8
PART_INFO
10
-4.826
20
-2.667
40
1.4224
1
000000
71
2
41
0.75
7
W0$2032
0
TEXT
8
PART_PTS
10
-4.826
20
-4.699
40
1.4224
1
1 2 
71
2
41
0.75
7
W0$2032
0
ENDBLK
0
BLOCK
2
PART_BOT_49
8
0
10
0
20
0
3
PART_BOT_49
70
64
0
INSERT
2
SYM_BOT_4
8
0
10
0
20
0
0
INSERT
2
PKG_18
8
0
10
0
20
0
41
-1
0
TEXT
8
LABEL_INFO
10
-1.5
20
-0.5
40
1.0668
1
0 0 0 0 0 1
41
0.75
7
W0$2032
0
TEXT
8
LABEL_ATTRIBUTE
10
-1.5
20
-0.5
40
1.0668
1
Ref.Des.
41
0.75
7
W0$2032
0
TEXT
8
PART_NAME_30
10
-1.5
20
-0.5
40
1.0668
1
C5
41
0.75
7
W0$2032
0
TEXT
8
LABEL_INFO
10
-1.5
20
-1
40
1.0668
1
0 0 0 2 0 1
73
2
11
-1.5
21
-1
41
0.75
7
W0$2032
0
TEXT
8
LABEL_ATTRIBUTE
10
-1.5
20
-1
40
1.0668
1
PartType
73
2
11
-1.5
21
-1
41
0.75
7
W0$2032
0
TEXT
8
PART_TYPE_29
10
-1.5
20
-1
40
1.0668
1
CAPC-0.01UF-0805-5%-50V-X7R
73
3
11
-1.5
21
-1
41
0.75
7
W0$2032
0
TEXT
8
LABEL_INFO
10
0.8889993333
20
4.318
40
1.4224
1
0 324000000 0 0 0 1
50
180
41
0.75
7
W0$2032
0
TEXT
8
LABEL_ATTRIBUTE
10
0.8889993333
20
4.318
40
1.4224
1
Ref.Des.
50
180
41
0.75
7
W0$2032
0
TEXT
8
PART_NAME_29
10
0.8889993333
20
4.318
40
1.4224
1
C5
50
180
41
0.75
7
W0$2032
0
TEXT
8
PART_INFO
10
0.8889993333
20
2.286
40
1.4224
1
000000
71
2
50
180
41
0.75
7
W0$2032
0
TEXT
8
PART_PTS
10
0.8889993333
20
0.254
40
1.4224
1
1 2 
71
2
50
180
41
0.75
7
W0$2032
0
ENDBLK
0
BLOCK
2
PART_BOT_50
8
0
10
0
20
0
3
PART_BOT_50
70
64
0
INSERT
2
SYM_BOT_4
8
0
10
0
20
0
0
INSERT
2
PKG_18
8
0
10
0
20
0
41
-1
0
TEXT
8
LABEL_INFO
10
-1.5
20
-0.5
40
1.0668
1
0 0 0 0 0 1
41
0.75
7
W0$2032
0
TEXT
8
LABEL_ATTRIBUTE
10
-1.5
20
-0.5
40
1.0668
1
Ref.Des.
41
0.75
7
W0$2032
0
TEXT
8
PART_NAME_30
10
-1.5
20
-0.5
40
1.0668
1
C7
41
0.75
7
W0$2032
0
TEXT
8
LABEL_INFO
10
-1.5
20
-1
40
1.0668
1
0 0 0 2 0 1
73
2
11
-1.5
21
-1
41
0.75
7
W0$2032
0
TEXT
8
LABEL_ATTRIBUTE
10
-1.5
20
-1
40
1.0668
1
PartType
73
2
11
-1.5
21
-1
41
0.75
7
W0$2032
0
TEXT
8
PART_TYPE_29
10
-1.5
20
-1
40
1.0668
1
CAPC-0.01UF-0805-5%-50V-X7R
73
3
11
-1.5
21
-1
41
0.75
7
W0$2032
0
TEXT
8
LABEL_INFO
10
0.762
20
-1.651
40
1.4224
1
0 324000000 0 0 0 1
50
180
41
0.75
7
W0$2032
0
TEXT
8
LABEL_ATTRIBUTE
10
0.762
20
-1.651
40
1.4224
1
Ref.Des.
50
180
41
0.75
7
W0$2032
0
TEXT
8
PART_NAME_29
10
0.762
20
-1.651
40
1.4224
1
C7
50
180
41
0.75
7
W0$2032
0
TEXT
8
PART_INFO
10
0.762
20
-3.683
40
1.4224
1
000000
71
2
50
180
41
0.75
7
W0$2032
0
TEXT
8
PART_PTS
10
0.762
20
-5.715
40
1.4224
1
1 2 
71
2
50
180
41
0.75
7
W0$2032
0
ENDBLK
0
BLOCK
2
PART_BOT_51
8
0
10
0
20
0
3
PART_BOT_51
70
64
0
INSERT
2
SYM_BOT_4
8
0
10
0
20
0
0
INSERT
2
PKG_18
8
0
10
0
20
0
41
-1
0
TEXT
8
LABEL_INFO
10
-1.5
20
-0.5
40
1.0668
1
0 0 0 0 0 1
41
0.75
7
W0$2032
0
TEXT
8
LABEL_ATTRIBUTE
10
-1.5
20
-0.5
40
1.0668
1
Ref.Des.
41
0.75
7
W0$2032
0
TEXT
8
PART_NAME_30
10
-1.5
20
-0.5
40
1.0668
1
C8
41
0.75
7
W0$2032
0
TEXT
8
LABEL_INFO
10
-1.5
20
-1
40
1.0668
1
0 0 0 2 0 1
73
2
11
-1.5
21
-1
41
0.75
7
W0$2032
0
TEXT
8
LABEL_ATTRIBUTE
10
-1.5
20
-1
40
1.0668
1
PartType
73
2
11
-1.5
21
-1
41
0.75
7
W0$2032
0
TEXT
8
PART_TYPE_29
10
-1.5
20
-1
40
1.0668
1
CAPC-0.01UF-0805-5%-50V-X7R
73
3
11
-1.5
21
-1
41
0.75
7
W0$2032
0
TEXT
8
LABEL_INFO
10
-1.016
20
1.778
40
1.4224
1
0 0 0 0 0 1
41
0.75
7
W0$2032
0
TEXT
8
LABEL_ATTRIBUTE
10
-1.016
20
1.778
40
1.4224
1
Ref.Des.
41
0.75
7
W0$2032
0
TEXT
8
PART_NAME_29
10
-1.016
20
1.778
40
1.4224
1
C8
41
0.75
7
W0$2032
0
TEXT
8
PART_INFO
10
-1.016
20
-0.254
40
1.4224
1
000000
71
2
41
0.75
7
W0$2032
0
TEXT
8
PART_PTS
10
-1.016
20
-2.286
40
1.4224
1
1 2 
71
2
41
0.75
7
W0$2032
0
ENDBLK
0
BLOCK
2
SYM_BOT_5
8
0
10
0
20
0
3
SYM_BOT_5
70
64
0
TEXT
8
SYM_NAME
10
0
20
0
40
1.4224
1
R0805
41
0.75
0
TEXT
8
SYM_PART_NAME_27
10
-1.5
20
-0.5
40
1.0668
1
 
41
0.75
7
W0$2032R0
0
TEXT
8
SYM_PART_TYPE_26
10
-1.5
20
-1
40
1.0668
1
 
73
2
11
-1.5
21
-1
41
0.75
7
W0$2032R0
0
TEXT
8
SYM_PART_NAME_26
10
-1.5
20
1.5
40
1.0668
1
 
41
0.75
7
W0$2032R0
0
INSERT
2
PART_BODY_BOT_4
8
0
10
0
20
0
0
INSERT
2
STK_BOT_6
8
0
10
-0.95
20
0
0
TEXT
8
SYM_TERMINAL
10
0
20
-3.048
40
1.778
1
1
0
INSERT
2
STK_BOT_6
8
0
10
0.95
20
0
0
TEXT
8
SYM_TERMINAL
10
0
20
-6.096
40
1.778
1
2
0
ENDBLK
0
BLOCK
2
PKG_2
8
0
10
0
20
0
3
PKG_2
70
64
0
TEXT
8
PKG_INFO
10
0
20
0
40
1.778
1
*SYM:= 5
0
TEXT
8
PKG_INFO
10
0
20
-3.048
40
1.778
1
*PKG:= 0 RES-75E-0805-1%-0.125W RES
0
TEXT
8
PKG_INFO
10
0
20
-6.096
40
1.778
1
*GATE:=1
0
TEXT
8
PKG_INFO
10
0
20
-9.144
40
1.778
1
*GATEPIN:= 1 9 1 <>
0
TEXT
8
PKG_INFO
10
0
20
-12.192
40
1.778
1
*GATEPIN:= 1 9 2 <>
0
ENDBLK
0
BLOCK
2
SYM_BOT_6
8
0
10
0
20
0
3
SYM_BOT_6
70
64
0
TEXT
8
SYM_NAME
10
0
20
0
40
1.4224
1
C1206
41
0.75
0
TEXT
8
SYM_PART_NAME_26
10
-1.5
20
1.5
40
1.0668
1
 
41
0.75
7
W0$2032R0
0
TEXT
8
SYM_PART_TYPE_26
10
-1.5
20
-1.25
40
1.0668
1
 
73
2
11
-1.5
21
-1.25
41
0.75
7
W0$2032R0
0
TEXT
8
SYM_PART_NAME_27
10
-1.5
20
-0.5
40
1.0668
1
 
41
0.75
7
W0$2032R0
0
INSERT
2
PART_BODY_BOT_5
8
0
10
0
20
0
0
INSERT
2
STK_BOT_7
8
0
10
-1.4
20
0
0
TEXT
8
SYM_TERMINAL
10
0
20
-3.048
40
1.778
1
1
0
INSERT
2
STK_BOT_7
8
0
10
1.4
20
0
0
TEXT
8
SYM_TERMINAL
10
0
20
-6.096
40
1.778
1
2
0
ENDBLK
0
BLOCK
2
PKG_3
8
0
10
0
20
0
3
PKG_3
70
64
0
TEXT
8
PKG_INFO
10
0
20
0
40
1.778
1
*SYM:= 6
0
TEXT
8
PKG_INFO
10
0
20
-3.048
40
1.778
1
*PKG:= 0 CAPC-1NF-1206-10%-2KV-X7R CAP
0
TEXT
8
PKG_INFO
10
0
20
-6.096
40
1.778
1
*GATE:=0
0
TEXT
8
PKG_INFO
10
0
20
-9.144
40
1.778
1
*GATEPIN:= 0 9 1 <>
0
TEXT
8
PKG_INFO
10
0
20
-12.192
40
1.778
1
*GATEPIN:= 0 9 2 <>
0
ENDBLK
0
BLOCK
2
SYM_BOT_7
8
0
10
0
20
0
3
SYM_BOT_7
70
64
0
TEXT
8
SYM_NAME
10
0
20
0
40
1.4224
1
R1206
41
0.75
0
TEXT
8
SYM_PART_NAME_27
10
-1.5
20
-0.5
40
1.0668
1
 
41
0.75
7
W0$2032R0
0
TEXT
8
SYM_PART_TYPE_26
10
-1.5
20
-1.25
40
1.0668
1
 
73
2
11
-1.5
21
-1.25
41
0.75
7
W0$2032R0
0
TEXT
8
SYM_PART_NAME_26
10
-1.5
20
1.5
40
1.0668
1
 
41
0.75
7
W0$2032R0
0
INSERT
2
PART_BODY_BOT_6
8
0
10
0
20
0
0
INSERT
2
STK_BOT_7
8
0
10
-1.4
20
0
0
TEXT
8
SYM_TERMINAL
10
0
20
-3.048
40
1.778
1
1
0
INSERT
2
STK_BOT_7
8
0
10
1.4
20
0
0
TEXT
8
SYM_TERMINAL
10
0
20
-6.096
40
1.778
1
2
0
ENDBLK
0
BLOCK
2
PKG_4
8
0
10
0
20
0
3
PKG_4
70
64
0
TEXT
8
PKG_INFO
10
0
20
0
40
1.778
1
*SYM:= 7
0
TEXT
8
PKG_INFO
10
0
20
-3.048
40
1.778
1
*PKG:= 0 RES-1M RES
0
TEXT
8
PKG_INFO
10
0
20
-6.096
40
1.778
1
*GATE:=1
0
TEXT
8
PKG_INFO
10
0
20
-9.144
40
1.778
1
*GATEPIN:= 1 9 1 <>
0
TEXT
8
PKG_INFO
10
0
20
-12.192
40
1.778
1
*GATEPIN:= 1 9 2 <>
0
ENDBLK
0
BLOCK
2
SYM_BOT_12
8
0
10
0
20
0
3
SYM_BOT_12
70
64
0
TEXT
8
SYM_NAME
10
0
20
0
40
1.4224
1
R0603
41
0.75
0
TEXT
8
SYM_PART_NAME_26
10
-1.5
20
1.2
40
1.0668
1
 
41
0.75
7
W0$2032R0
0
TEXT
8
SYM_PART_TYPE_26
10
-1.5
20
-1.05
40
1.0668
1
 
73
2
11
-1.5
21
-1.05
41
0.75
7
W0$2032R0
0
TEXT
8
SYM_PART_NAME_27
10
-1.5
20
-0.324
40
1.0668
1
 
41
0.75
7
W0$2032R0
0
INSERT
2
PART_BODY_BOT_11
8
0
10
0
20
0
0
INSERT
2
STK_BOT_19
8
0
10
-0.75
20
0
0
TEXT
8
SYM_TERMINAL
10
0
20
-3.048
40
1.778
1
1
0
INSERT
2
STK_BOT_20
8
0
10
0.75
20
0
0
TEXT
8
SYM_TERMINAL
10
0
20
-6.096
40
1.778
1
2
0
ENDBLK
0
BLOCK
2
PKG_11
8
0
10
0
20
0
3
PKG_11
70
64
0
TEXT
8
PKG_INFO
10
0
20
0
40
1.778
1
*SYM:= 12
0
TEXT
8
PKG_INFO
10
0
20
-3.048
40
1.778
1
*PKG:= 0 RES-10K RES
0
TEXT
8
PKG_INFO
10
0
20
-6.096
40
1.778
1
*GATE:=1
0
TEXT
8
PKG_INFO
10
0
20
-9.144
40
1.778
1
*GATEPIN:= 1 9 1 <>
0
TEXT
8
PKG_INFO
10
0
20
-12.192
40
1.778
1
*GATEPIN:= 1 9 2 <>
0
ENDBLK
0
BLOCK
2
SYM_BOT_4
8
0
10
0
20
0
3
SYM_BOT_4
70
64
0
TEXT
8
SYM_NAME
10
0
20
0
40
1.4224
1
C0805
41
0.75
0
TEXT
8
SYM_PART_NAME_26
10
-1.5
20
1.5
40
1.0668
1
 
41
0.75
7
W0$2032R0
0
TEXT
8
SYM_PART_TYPE_26
10
-1.5
20
-1
40
1.0668
1
 
73
2
11
-1.5
21
-1
41
0.75
7
W0$2032R0
0
TEXT
8
SYM_PART_NAME_27
10
-1.5
20
-0.5
40
1.0668
1
 
41
0.75
7
W0$2032R0
0
INSERT
2
PART_BODY_BOT_3
8
0
10
0
20
0
0
INSERT
2
STK_BOT_6
8
0
10
-0.95
20
0
0
TEXT
8
SYM_TERMINAL
10
0
20
-3.048
40
1.778
1
1
0
INSERT
2
STK_BOT_6
8
0
10
0.95
20
0
0
TEXT
8
SYM_TERMINAL
10
0
20
-6.096
40
1.778
1
2
0
ENDBLK
0
BLOCK
2
PKG_1
8
0
10
0
20
0
3
PKG_1
70
64
0
TEXT
8
PKG_INFO
10
0
20
0
40
1.778
1
*SYM:= 4
0
TEXT
8
PKG_INFO
10
0
20
-3.048
40
1.778
1
*PKG:= 0 CAP_100NF_50V_0803 CAP
0
TEXT
8
PKG_INFO
10
0
20
-6.096
40
1.778
1
*GATE:=1
0
TEXT
8
PKG_INFO
10
0
20
-9.144
40
1.778
1
*GATEPIN:= 0 1 1 <>
0
TEXT
8
PKG_INFO
10
0
20
-12.192
40
1.778
1
*GATEPIN:= 0 1 2 <>
0
ENDBLK
0
BLOCK
2
SYM_BOT_15
8
0
10
0
20
0
3
SYM_BOT_15
70
64
0
TEXT
8
SYM_NAME
10
0
20
0
40
1.4224
1
F0805
41
0.75
0
TEXT
8
SYM_PART_NAME_26
10
-1.5
20
1.5
40
1.0668
1
 
41
0.75
7
W0$2032R0
0
TEXT
8
SYM_PART_TYPE_26
10
-1.5
20
-1
40
1.0668
1
 
73
2
11
-1.5
21
-1
41
0.75
7
W0$2032R0
0
TEXT
8
SYM_PART_NAME_27
10
-1.5
20
-0.5
40
1.0668
1
 
41
0.75
7
W0$2032R0
0
INSERT
2
PART_BODY_BOT_14
8
0
10
0
20
0
0
INSERT
2
STK_BOT_6
8
0
10
-0.95
20
0
0
TEXT
8
SYM_TERMINAL
10
0
20
-3.048
40
1.778
1
1
0
INSERT
2
STK_BOT_6
8
0
10
0.95
20
0
0
TEXT
8
SYM_TERMINAL
10
0
20
-6.096
40
1.778
1
2
0
ENDBLK
0
BLOCK
2
PKG_15
8
0
10
0
20
0
3
PKG_15
70
64
0
TEXT
8
PKG_INFO
10
0
20
0
40
1.778
1
*SYM:= 15
0
TEXT
8
PKG_INFO
10
0
20
-3.048
40
1.778
1
*PKG:= 0 FB-120E-100MHZ-0805 UND
0
TEXT
8
PKG_INFO
10
0
20
-6.096
40
1.778
1
*GATE:=0
0
TEXT
8
PKG_INFO
10
0
20
-9.144
40
1.778
1
*GATEPIN:= 0 9 1 <>
0
TEXT
8
PKG_INFO
10
0
20
-12.192
40
1.778
1
*GATEPIN:= 0 9 2 <>
0
ENDBLK
0
BLOCK
2
PKG_18
8
0
10
0
20
0
3
PKG_18
70
64
0
TEXT
8
PKG_INFO
10
0
20
0
40
1.778
1
*SYM:= 4
0
TEXT
8
PKG_INFO
10
0
20
-3.048
40
1.778
1
*PKG:= 0 CAPC-0.01UF-0805-5%-50V-X7R CAP
0
TEXT
8
PKG_INFO
10
0
20
-6.096
40
1.778
1
*GATE:=0
0
TEXT
8
PKG_INFO
10
0
20
-9.144
40
1.778
1
*GATEPIN:= 0 9 1 <>
0
TEXT
8
PKG_INFO
10
0
20
-12.192
40
1.778
1
*GATEPIN:= 0 9 2 <>
0
ENDBLK
0
BLOCK
2
PART_BODY_BOT_4
8
0
10
0
20
0
3
PART_BODY_BOT_4
70
64
0
POLYLINE
8
PART_BOT_2DLINE_26
66
1
40
0.2032
41
0.2032
0
VERTEX
8
PART_BOT_2DLINE_26
10
-2
20
-1
0
VERTEX
8
PART_BOT_2DLINE_26
10
2
20
-1
0
VERTEX
8
PART_BOT_2DLINE_26
10
2
20
1
0
VERTEX
8
PART_BOT_2DLINE_26
10
-2
20
1
0
VERTEX
8
PART_BOT_2DLINE_26
10
-2
20
-1
0
SEQEND
0
INSERT
2
SMOOTH_0$2032
8
PART_BOT_2DLINE_26
10
-2
20
-1
0
INSERT
2
SMOOTH_0$2032
8
PART_BOT_2DLINE_26
10
2
20
-1
0
INSERT
2
SMOOTH_0$2032
8
PART_BOT_2DLINE_26
10
2
20
1
0
INSERT
2
SMOOTH_0$2032
8
PART_BOT_2DLINE_26
10
-2
20
1
0
INSERT
2
SMOOTH_0$2032
8
PART_BOT_2DLINE_26
10
-2
20
-1
0
POLYLINE
8
PART_BOT_2DLINE_27
66
1
40
0.2032
41
0.2032
0
VERTEX
8
PART_BOT_2DLINE_27
10
-2
20
-1
0
VERTEX
8
PART_BOT_2DLINE_27
10
2
20
-1
0
VERTEX
8
PART_BOT_2DLINE_27
10
2
20
1
0
VERTEX
8
PART_BOT_2DLINE_27
10
-2
20
1
0
VERTEX
8
PART_BOT_2DLINE_27
10
-2
20
-1
0
SEQEND
0
INSERT
2
SMOOTH_0$2032
8
PART_BOT_2DLINE_27
10
-2
20
-1
0
INSERT
2
SMOOTH_0$2032
8
PART_BOT_2DLINE_27
10
2
20
-1
0
INSERT
2
SMOOTH_0$2032
8
PART_BOT_2DLINE_27
10
2
20
1
0
INSERT
2
SMOOTH_0$2032
8
PART_BOT_2DLINE_27
10
-2
20
1
0
INSERT
2
SMOOTH_0$2032
8
PART_BOT_2DLINE_27
10
-2
20
-1
0
ENDBLK
0
BLOCK
2
STK_BOT_6
8
0
10
0
20
0
3
STK_BOT_6
70
64
0
INSERT
2
DRIL_HOLE_0
8
DRIL_PLTE_THRU_01
10
0
20
0
0
INSERT
2
DRIL_HOLE_0
8
DRIL_PLTE_THRU_02
10
0
20
0
0
INSERT
2
DRIL_HOLE_0
8
DRIL_PLTE_THRU_03
10
0
20
0
0
INSERT
2
DRIL_HOLE_0
8
DRIL_PLTE_THRU_04
10
0
20
0
0
INSERT
2
PAD_0
8
PADS_INNER
10
0
20
0
0
INSERT
2
PAD_1
8
PADS_BOT
10
0
20
0
50
90
0
INSERT
2
PAD_0
8
PADS_TOP
10
0
20
0
0
ENDBLK
0
BLOCK
2
PART_BODY_BOT_5
8
0
10
0
20
0
3
PART_BODY_BOT_5
70
64
0
POLYLINE
8
PART_BOT_2DLINE_26
66
1
40
0.2032
41
0.2032
0
VERTEX
8
PART_BOT_2DLINE_26
10
-2.5
20
-1.1
0
VERTEX
8
PART_BOT_2DLINE_26
10
2.5
20
-1.1
0
VERTEX
8
PART_BOT_2DLINE_26
10
2.5
20
1.1
0
VERTEX
8
PART_BOT_2DLINE_26
10
-2.5
20
1.1
0
VERTEX
8
PART_BOT_2DLINE_26
10
-2.5
20
-1.1
0
SEQEND
0
INSERT
2
SMOOTH_0$2032
8
PART_BOT_2DLINE_26
10
-2.5
20
-1.1
0
INSERT
2
SMOOTH_0$2032
8
PART_BOT_2DLINE_26
10
2.5
20
-1.1
0
INSERT
2
SMOOTH_0$2032
8
PART_BOT_2DLINE_26
10
2.5
20
1.1
0
INSERT
2
SMOOTH_0$2032
8
PART_BOT_2DLINE_26
10
-2.5
20
1.1
0
INSERT
2
SMOOTH_0$2032
8
PART_BOT_2DLINE_26
10
-2.5
20
-1.1
0
POLYLINE
8
PART_BOT_2DLINE_27
66
1
40
0.2032
41
0.2032
0
VERTEX
8
PART_BOT_2DLINE_27
10
-2.5
20
-1.1
0
VERTEX
8
PART_BOT_2DLINE_27
10
2.5
20
-1.1
0
VERTEX
8
PART_BOT_2DLINE_27
10
2.5
20
1.1
0
VERTEX
8
PART_BOT_2DLINE_27
10
-2.5
20
1.1
0
VERTEX
8
PART_BOT_2DLINE_27
10
-2.5
20
-1.1
0
SEQEND
0
INSERT
2
SMOOTH_0$2032
8
PART_BOT_2DLINE_27
10
-2.5
20
-1.1
0
INSERT
2
SMOOTH_0$2032
8
PART_BOT_2DLINE_27
10
2.5
20
-1.1
0
INSERT
2
SMOOTH_0$2032
8
PART_BOT_2DLINE_27
10
2.5
20
1.1
0
INSERT
2
SMOOTH_0$2032
8
PART_BOT_2DLINE_27
10
-2.5
20
1.1
0
INSERT
2
SMOOTH_0$2032
8
PART_BOT_2DLINE_27
10
-2.5
20
-1.1
0
ENDBLK
0
BLOCK
2
STK_BOT_7
8
0
10
0
20
0
3
STK_BOT_7
70
64
0
INSERT
2
DRIL_HOLE_0
8
DRIL_PLTE_THRU_01
10
0
20
0
0
INSERT
2
DRIL_HOLE_0
8
DRIL_PLTE_THRU_02
10
0
20
0
0
INSERT
2
DRIL_HOLE_0
8
DRIL_PLTE_THRU_03
10
0
20
0
0
INSERT
2
DRIL_HOLE_0
8
DRIL_PLTE_THRU_04
10
0
20
0
0
INSERT
2
PAD_0
8
PADS_INNER
10
0
20
0
0
INSERT
2
PAD_2
8
PADS_BOT
10
0
20
0
50
90
0
INSERT
2
PAD_0
8
PADS_TOP
10
0
20
0
0
ENDBLK
0
BLOCK
2
PART_BODY_BOT_6
8
0
10
0
20
0
3
PART_BODY_BOT_6
70
64
0
POLYLINE
8
PART_BOT_2DLINE_26
66
1
40
0.2032
41
0.2032
0
VERTEX
8
PART_BOT_2DLINE_26
10
-2.5
20
-1.1
0
VERTEX
8
PART_BOT_2DLINE_26
10
2.5
20
-1.1
0
VERTEX
8
PART_BOT_2DLINE_26
10
2.5
20
1.1
0
VERTEX
8
PART_BOT_2DLINE_26
10
-2.5
20
1.1
0
VERTEX
8
PART_BOT_2DLINE_26
10
-2.5
20
-1.1
0
SEQEND
0
INSERT
2
SMOOTH_0$2032
8
PART_BOT_2DLINE_26
10
-2.5
20
-1.1
0
INSERT
2
SMOOTH_0$2032
8
PART_BOT_2DLINE_26
10
2.5
20
-1.1
0
INSERT
2
SMOOTH_0$2032
8
PART_BOT_2DLINE_26
10
2.5
20
1.1
0
INSERT
2
SMOOTH_0$2032
8
PART_BOT_2DLINE_26
10
-2.5
20
1.1
0
INSERT
2
SMOOTH_0$2032
8
PART_BOT_2DLINE_26
10
-2.5
20
-1.1
0
POLYLINE
8
PART_BOT_2DLINE_27
66
1
40
0.2032
41
0.2032
0
VERTEX
8
PART_BOT_2DLINE_27
10
-2.5
20
-1.1
0
VERTEX
8
PART_BOT_2DLINE_27
10
2.5
20
-1.1
0
VERTEX
8
PART_BOT_2DLINE_27
10
2.5
20
1.1
0
VERTEX
8
PART_BOT_2DLINE_27
10
-2.5
20
1.1
0
VERTEX
8
PART_BOT_2DLINE_27
10
-2.5
20
-1.1
0
SEQEND
0
INSERT
2
SMOOTH_0$2032
8
PART_BOT_2DLINE_27
10
-2.5
20
-1.1
0
INSERT
2
SMOOTH_0$2032
8
PART_BOT_2DLINE_27
10
2.5
20
-1.1
0
INSERT
2
SMOOTH_0$2032
8
PART_BOT_2DLINE_27
10
2.5
20
1.1
0
INSERT
2
SMOOTH_0$2032
8
PART_BOT_2DLINE_27
10
-2.5
20
1.1
0
INSERT
2
SMOOTH_0$2032
8
PART_BOT_2DLINE_27
10
-2.5
20
-1.1
0
ENDBLK
0
BLOCK
2
PART_BODY_BOT_11
8
0
10
0
20
0
3
PART_BODY_BOT_11
70
64
0
POLYLINE
8
PART_BOT_2DLINE_26
66
1
40
0.2032
41
0.2032
0
VERTEX
8
PART_BOT_2DLINE_26
10
-1.45
20
-0.75
0
VERTEX
8
PART_BOT_2DLINE_26
10
1.45
20
-0.75
0
VERTEX
8
PART_BOT_2DLINE_26
10
1.45
20
0.75
0
VERTEX
8
PART_BOT_2DLINE_26
10
-1.45
20
0.75
0
VERTEX
8
PART_BOT_2DLINE_26
10
-1.45
20
-0.75
0
SEQEND
0
INSERT
2
SMOOTH_0$2032
8
PART_BOT_2DLINE_26
10
-1.45
20
-0.75
0
INSERT
2
SMOOTH_0$2032
8
PART_BOT_2DLINE_26
10
1.45
20
-0.75
0
INSERT
2
SMOOTH_0$2032
8
PART_BOT_2DLINE_26
10
1.45
20
0.75
0
INSERT
2
SMOOTH_0$2032
8
PART_BOT_2DLINE_26
10
-1.45
20
0.75
0
INSERT
2
SMOOTH_0$2032
8
PART_BOT_2DLINE_26
10
-1.45
20
-0.75
0
POLYLINE
8
PART_BOT_2DLINE_27
66
1
40
0.2032
41
0.2032
0
VERTEX
8
PART_BOT_2DLINE_27
10
-1.45
20
-0.75
0
VERTEX
8
PART_BOT_2DLINE_27
10
1.45
20
-0.75
0
VERTEX
8
PART_BOT_2DLINE_27
10
1.45
20
0.75
0
VERTEX
8
PART_BOT_2DLINE_27
10
-1.45
20
0.75
0
VERTEX
8
PART_BOT_2DLINE_27
10
-1.45
20
-0.75
0
SEQEND
0
INSERT
2
SMOOTH_0$2032
8
PART_BOT_2DLINE_27
10
-1.45
20
-0.75
0
INSERT
2
SMOOTH_0$2032
8
PART_BOT_2DLINE_27
10
1.45
20
-0.75
0
INSERT
2
SMOOTH_0$2032
8
PART_BOT_2DLINE_27
10
1.45
20
0.75
0
INSERT
2
SMOOTH_0$2032
8
PART_BOT_2DLINE_27
10
-1.45
20
0.75
0
INSERT
2
SMOOTH_0$2032
8
PART_BOT_2DLINE_27
10
-1.45
20
-0.75
0
ENDBLK
0
BLOCK
2
STK_BOT_19
8
0
10
0
20
0
3
STK_BOT_19
70
64
0
INSERT
2
DRIL_HOLE_0
8
DRIL_NPLTE_THRU_01
10
0
20
0
0
INSERT
2
DRIL_HOLE_0
8
DRIL_NPLTE_THRU_02
10
0
20
0
0
INSERT
2
DRIL_HOLE_0
8
DRIL_NPLTE_THRU_03
10
0
20
0
0
INSERT
2
DRIL_HOLE_0
8
DRIL_NPLTE_THRU_04
10
0
20
0
0
INSERT
2
PAD_0
8
PADS_INNER
10
0
20
0
0
INSERT
2
PAD_3
8
PADS_BOT
10
0
20
0
50
90
0
INSERT
2
PAD_0
8
PADS_TOP
10
0
20
0
0
ENDBLK
0
BLOCK
2
STK_BOT_20
8
0
10
0
20
0
3
STK_BOT_20
70
64
0
INSERT
2
DRIL_HOLE_0
8
DRIL_NPLTE_THRU_01
10
0
20
0
0
INSERT
2
DRIL_HOLE_0
8
DRIL_NPLTE_THRU_02
10
0
20
0
0
INSERT
2
DRIL_HOLE_0
8
DRIL_NPLTE_THRU_03
10
0
20
0
0
INSERT
2
DRIL_HOLE_0
8
DRIL_NPLTE_THRU_04
10
0
20
0
0
INSERT
2
PAD_0
8
PADS_INNER
10
0
20
0
0
INSERT
2
PAD_3
8
PADS_BOT
10
0
20
0
50
90
0
INSERT
2
PAD_4
8
PADS_TOP
10
0
20
0
0
ENDBLK
0
BLOCK
2
PART_BODY_BOT_3
8
0
10
0
20
0
3
PART_BODY_BOT_3
70
64
0
POLYLINE
8
PART_BOT_2DLINE_26
66
1
40
0.2032
41
0.2032
0
VERTEX
8
PART_BOT_2DLINE_26
10
-2
20
-1
0
VERTEX
8
PART_BOT_2DLINE_26
10
2
20
-1
0
VERTEX
8
PART_BOT_2DLINE_26
10
2
20
1
0
VERTEX
8
PART_BOT_2DLINE_26
10
-2
20
1
0
VERTEX
8
PART_BOT_2DLINE_26
10
-2
20
-1
0
SEQEND
0
INSERT
2
SMOOTH_0$2032
8
PART_BOT_2DLINE_26
10
-2
20
-1
0
INSERT
2
SMOOTH_0$2032
8
PART_BOT_2DLINE_26
10
2
20
-1
0
INSERT
2
SMOOTH_0$2032
8
PART_BOT_2DLINE_26
10
2
20
1
0
INSERT
2
SMOOTH_0$2032
8
PART_BOT_2DLINE_26
10
-2
20
1
0
INSERT
2
SMOOTH_0$2032
8
PART_BOT_2DLINE_26
10
-2
20
-1
0
POLYLINE
8
PART_BOT_2DLINE_27
66
1
40
0.2032
41
0.2032
0
VERTEX
8
PART_BOT_2DLINE_27
10
-2
20
-1
0
VERTEX
8
PART_BOT_2DLINE_27
10
2
20
-1
0
VERTEX
8
PART_BOT_2DLINE_27
10
2
20
1
0
VERTEX
8
PART_BOT_2DLINE_27
10
-2
20
1
0
VERTEX
8
PART_BOT_2DLINE_27
10
-2
20
-1
0
SEQEND
0
INSERT
2
SMOOTH_0$2032
8
PART_BOT_2DLINE_27
10
-2
20
-1
0
INSERT
2
SMOOTH_0$2032
8
PART_BOT_2DLINE_27
10
2
20
-1
0
INSERT
2
SMOOTH_0$2032
8
PART_BOT_2DLINE_27
10
2
20
1
0
INSERT
2
SMOOTH_0$2032
8
PART_BOT_2DLINE_27
10
-2
20
1
0
INSERT
2
SMOOTH_0$2032
8
PART_BOT_2DLINE_27
10
-2
20
-1
0
ENDBLK
0
BLOCK
2
PART_BODY_BOT_14
8
0
10
0
20
0
3
PART_BODY_BOT_14
70
64
0
POLYLINE
8
PART_BOT_2DLINE_26
66
1
40
0.2032
41
0.2032
0
VERTEX
8
PART_BOT_2DLINE_26
10
-2
20
-1
0
VERTEX
8
PART_BOT_2DLINE_26
10
2
20
-1
0
VERTEX
8
PART_BOT_2DLINE_26
10
2
20
1
0
VERTEX
8
PART_BOT_2DLINE_26
10
-2
20
1
0
VERTEX
8
PART_BOT_2DLINE_26
10
-2
20
-1
0
SEQEND
0
INSERT
2
SMOOTH_0$2032
8
PART_BOT_2DLINE_26
10
-2
20
-1
0
INSERT
2
SMOOTH_0$2032
8
PART_BOT_2DLINE_26
10
2
20
-1
0
INSERT
2
SMOOTH_0$2032
8
PART_BOT_2DLINE_26
10
2
20
1
0
INSERT
2
SMOOTH_0$2032
8
PART_BOT_2DLINE_26
10
-2
20
1
0
INSERT
2
SMOOTH_0$2032
8
PART_BOT_2DLINE_26
10
-2
20
-1
0
POLYLINE
8
PART_BOT_2DLINE_27
66
1
40
0.2032
41
0.2032
0
VERTEX
8
PART_BOT_2DLINE_27
10
-2
20
-1
0
VERTEX
8
PART_BOT_2DLINE_27
10
2
20
-1
0
VERTEX
8
PART_BOT_2DLINE_27
10
2
20
1
0
VERTEX
8
PART_BOT_2DLINE_27
10
-2
20
1
0
VERTEX
8
PART_BOT_2DLINE_27
10
-2
20
-1
0
SEQEND
0
INSERT
2
SMOOTH_0$2032
8
PART_BOT_2DLINE_27
10
-2
20
-1
0
INSERT
2
SMOOTH_0$2032
8
PART_BOT_2DLINE_27
10
2
20
-1
0
INSERT
2
SMOOTH_0$2032
8
PART_BOT_2DLINE_27
10
2
20
1
0
INSERT
2
SMOOTH_0$2032
8
PART_BOT_2DLINE_27
10
-2
20
1
0
INSERT
2
SMOOTH_0$2032
8
PART_BOT_2DLINE_27
10
-2
20
-1
0
ENDBLK
999
*** POWERPCB  PCB PARAMETER ***
0
BLOCK
2
PCB_PARAMS
8
0
10
0
20
0
3
PCB_PARAMS
70
64
999
 *  1.Job name           2.Backupfile name       3.CursorType
999
 *  4.TearDropFlag       5.HighlighNetsFlag      6.HatchDisplayFlag
999
 *  7.PadsFlag           8.TracksFlag            9.ViasFlag
999
 * 10.CopperFlag        11.LinesFlag            12.TextFlag
999
 * 13.TopComponentFlag  14.BottomComponentFlag
0
TEXT
8
PCB_PARAMS
10
0
20
-3.048
40
1.778
1
A:=CCCNGP_ECAT_REV1.0.pcb <> 0 1 1 1 1 0 0 0 1 1 0 1 0
999
 *  1.RefDesHeight       2.RefDesWidth           3.DefaultWidth
999
 *  4.VGX                5.VGY                   6.OVR
999
 *  7.HatchGrid
0
TEXT
8
PCB_PARAMS
10
0
20
-6.096
40
1.778
1
B:=2.032 0.254 0.254 0.635 0.635 0.0762 0.0762
999
 *  1.ScaleFactor        2.NetAttributeFlags     3.BackupInterval
999
 *  4.WorkingLevel       5.HatchMode             6.HatchDirection
999
 *  7.ConnectionColor    8.BackgroundColor       9.ForegroundColor
999
 * 10.BoardOutlineColor
0
TEXT
8
PCB_PARAMS
10
0
20
-9.144
40
1.778
1
C:=10.0304927826 10002 3 4 0 0 0 0 15 15
999
 * MitreAngle0 - MitreAngle6
0
TEXT
8
PCB_PARAMS
10
0
20
-12.192
40
1.778
1
D:=324000000 324000000 324000000 324000000 324000000 324000000 324000000
999
 * Hatch & Keepout Parameters
0
TEXT
8
PCB_PARAMS
10
0
20
-15.24
40
1.778
1
E:=0.5 0 0 2.54 0 0
999
 * Fanout Parameters
0
TEXT
8
PCB_PARAMS
10
0
20
-18.288
40
1.778
1
F:=0.000254 0.000254 6.35 1 2 0 1 1 0 0 1 1 1 1
999
 * Pad Entry Parameters
0
TEXT
8
PCB_PARAMS
10
0
20
-21.336
40
1.778
1
P:= 1 1 1 1
999
 * DFF Parameters
0
TEXT
8
PCB_PARAMS
10
0
20
-24.384
40
1.778
1
Q:=45 3587 114300 114300 114300 5 4 114300 114300 114300 114300 1 114300 1 114300 1 114300 0
0
ENDBLK
0
BLOCK
2
DRIL_SYMBOL_0
8
0
10
0
20
0
3
DRIL_SYMBOL_0
70
64
0
ENDBLK
999
*** POWERPCB  SMOOTH CIRCLE ***
0
BLOCK
2
SMOOTH_0$0254
8
0
10
0
20
0
3
SMOOTH_0$0254
70
64
0
POLYLINE
8
0
66
1
40
0.0127
41
0.0127
70
1
0
VERTEX
8
0
10
-0.00635
20
0
42
1
0
VERTEX
8
0
10
0.00635
20
0
42
1
0
SEQEND
0
ENDBLK
0
BLOCK
2
SMOOTH_0$2032
8
0
10
0
20
0
3
SMOOTH_0$2032
70
64
0
POLYLINE
8
0
66
1
40
0.1016
41
0.1016
70
1
0
VERTEX
8
0
10
-0.0508
20
0
42
1
0
VERTEX
8
0
10
0.0508
20
0
42
1
0
SEQEND
0
ENDBLK
0
BLOCK
2
PAD_0
8
0
10
0
20
0
3
PAD_0
70
64
0
POLYLINE
8
0
70
1
66
1
0
VERTEX
8
0
10
0
20
0
42
1
0
VERTEX
8
0
10
0
20
0
42
1
0
SEQEND
0
ENDBLK
0
BLOCK
2
PAD_1
8
0
10
0
20
0
3
PAD_1
70
64
0
POLYLINE
8
0
66
1
40
1.3208
41
1.3208
0
VERTEX
8
0
10
-0.762
20
0
0
VERTEX
8
0
10
0.762
20
0
0
SEQEND
0
ENDBLK
0
BLOCK
2
PAD_2
8
0
10
0
20
0
3
PAD_2
70
64
0
POLYLINE
8
0
66
1
40
1.6002
41
1.6002
0
VERTEX
8
0
10
-0.9017
20
0
0
VERTEX
8
0
10
0.9017
20
0
0
SEQEND
0
ENDBLK
0
BLOCK
2
PAD_3
8
0
10
0
20
0
3
PAD_3
70
64
0
POLYLINE
8
0
66
1
40
0.9144
41
0.9144
0
VERTEX
8
0
10
-0.4826
20
0
0
VERTEX
8
0
10
0.4826
20
0
0
SEQEND
0
ENDBLK
0
BLOCK
2
PAD_4
8
0
10
0
20
0
3
PAD_4
70
64
0
POLYLINE
8
0
66
1
0
VERTEX
8
0
10
0
20
0
0
VERTEX
8
0
10
0
20
0
0
SEQEND
0
ENDBLK
999
*** POWERPCB  DRILL HOLE ***
0
BLOCK
2
DRIL_HOLE_0
8
0
10
0
20
0
3
DRIL_HOLE_0
70
64
0
POLYLINE
8
0
66
1
70
1
0
VERTEX
8
0
10
0
20
0
42
1
0
VERTEX
8
0
10
0
20
0
42
1
0
SEQEND
0
INSERT
2
DRIL_SYMBOL_0
8
0
10
0
20
0
0
ENDBLK
0
ENDSEC
0
SECTION
2
ENTITIES
999
*** POWERPCB  DBLAYER ***
0
INSERT
2
DBLAYERS
8
0
10
0
20
0
999
*** POWERPCB  BOARD ***
0
INSERT
2
BOARD_1
8
0
10
0
20
0
999
*** POWERPCB  COMPONENT ***
0
INSERT
2
PART_BOT_1
8
0
10
19.05
20
17.145
50
-270
41
-1
0
INSERT
2
PART_BOT_2
8
0
10
12.7
20
17.145
50
-270
41
-1
0
INSERT
2
PART_BOT_3
8
0
10
24.765
20
16.51
50
-270
41
-1
0
INSERT
2
PART_BOT_4
8
0
10
22.225
20
16.51
50
-90
41
-1
0
INSERT
2
PART_BOT_6
8
0
10
36.83
20
17.145
50
-270
41
-1
0
INSERT
2
PART_BOT_7
8
0
10
30.48
20
17.145
50
-270
41
-1
0
INSERT
2
PART_BOT_8
8
0
10
40.005
20
16.51
50
-270
41
-1
0
INSERT
2
PART_BOT_9
8
0
10
42.545
20
16.51
50
-90
41
-1
0
INSERT
2
PART_BOT_11
8
0
10
54.61
20
17.145
50
-270
41
-1
0
INSERT
2
PART_BOT_12
8
0
10
48.26
20
17.145
50
-270
41
-1
0
INSERT
2
PART_BOT_13
8
0
10
58.42
20
16.51
50
-270
41
-1
0
INSERT
2
PART_BOT_14
8
0
10
60.96
20
16.51
50
-90
41
-1
0
INSERT
2
PART_BOT_16
8
0
10
72.39
20
17.145
50
-270
41
-1
0
INSERT
2
PART_BOT_17
8
0
10
66.04
20
17.145
50
-270
41
-1
0
INSERT
2
PART_BOT_18
8
0
10
78.74
20
16.51
50
-270
41
-1
0
INSERT
2
PART_BOT_19
8
0
10
76.2
20
16.51
50
-90
41
-1
0
INSERT
2
PART_BOT_31
8
0
10
24.13
20
36.83
50
-180
41
-1
0
INSERT
2
PART_BOT_32
8
0
10
37.465
20
36.83
50
-90
41
-1
0
INSERT
2
PART_BOT_33
8
0
10
33.02
20
37.465
50
-90
41
-1
0
INSERT
2
PART_BOT_34
8
0
10
13.97
20
36.195
41
-1
0
INSERT
2
PART_BOT_39
8
0
10
13.335
20
57.785
50
-180
41
-1
0
INSERT
2
PART_BOT_42
8
0
10
13.97
20
33.655
50
-180
41
-1
0
INSERT
2
PART_BOT_43
8
0
10
73.66
20
33.655
50
-180
41
-1
0
INSERT
2
PART_BOT_44
8
0
10
64.77
20
33.655
41
-1
0
INSERT
2
PART_BOT_47
8
0
10
20.32
20
33.655
50
-180
41
-1
0
INSERT
2
PART_BOT_48
8
0
10
36.195
20
33.655
41
-1
0
INSERT
2
PART_BOT_49
8
0
10
31.115
20
33.655
50
-180
41
-1
0
INSERT
2
PART_BOT_50
8
0
10
55.88
20
33.655
50
-180
41
-1
0
INSERT
2
PART_BOT_51
8
0
10
46.99
20
33.655
41
-1
999
*** POWERPCB  PCB PARAMETER ***
0
INSERT
2
PCB_PARAMS
8
0
10
0
20
0
0
ENDSEC
0
EOF
