*
*
G04 PADS 9.2.1 Build Number: 428821 generated Gerber (RS-274-X) file*
G04 PC Version=2.1*
*
%IN "IOP_Analog_Rev3_28FEB.p"*%
*
%MOIN*%
*
%FSLAX35Y35*%
*
*
*
*
G04 PC Standard Apertures*
*
*
G04 Thermal Relief Aperture macro.*
%AMTER*
1,1,$1,0,0*
1,0,$1-$2,0,0*
21,0,$3,$4,0,0,45*
21,0,$3,$4,0,0,135*
%
*
*
G04 Annular Aperture macro.*
%AMANN*
1,1,$1,0,0*
1,0,$2,0,0*
%
*
*
G04 Odd Aperture macro.*
%AMODD*
1,1,$1,0,0*
1,0,$1-0.005,0,0*
%
*
*
G04 PC Custom Aperture Macros*
*
*
*
*
*
*
G04 PC Aperture Table*
*
%ADD010C,0.001*%
%ADD011R,0.01181X0.05906*%
%ADD012R,0.05906X0.01181*%
%ADD013C,0.03937*%
%ADD014R,0.036X0.038*%
%ADD015R,0.071X0.063*%
%ADD016R,0.087X0.024*%
%ADD017R,0.05118X0.05118*%
%ADD018R,0.05118X0.07874*%
%ADD019R,0.055X0.045*%
%ADD020R,0.063X0.071*%
%ADD021R,0.038X0.036*%
%ADD022R,0.06X0.052*%
%ADD023R,0.052X0.06*%
%ADD024R,0.108X0.085*%
%ADD025R,0.056X0.04*%
%ADD026R,0.04X0.056*%
%ADD031R,0.071X0.127*%
%ADD032R,0.071X0.126*%
%ADD033R,0.06299X0.11811*%
%ADD034R,0.22835X0.24409*%
%ADD035C,0.05*%
%ADD036R,0.09449X0.11811*%
%ADD038R,0.01772X0.05906*%
%ADD039R,0.09449X0.0748*%
%ADD040R,0.01378X0.03937*%
%ADD041R,0.03937X0.01378*%
%ADD043R,0.024X0.087*%
%ADD044R,0.05709X0.04528*%
%ADD047R,0.048X0.08*%
%ADD048R,0.01772X0.05512*%
%ADD054R,0.01811X0.05709*%
%ADD055R,0.1X0.0252*%
%ADD056R,0.18504X0.0252*%
%ADD058R,0.063X0.107*%
%ADD059R,0.06X0.015*%
%ADD060R,0.015X0.06*%
%ADD061R,0.016X0.04*%
%ADD063R,0.09449X0.06417*%
%ADD064R,0.0315X0.02756*%
%ADD067R,0.096X0.103*%
%ADD069R,0.04331X0.04724*%
%ADD070R,0.04724X0.04331*%
%ADD071R,0.063X0.118*%
%ADD072R,0.228X0.244*%
%ADD073R,0.072X0.1*%
%ADD074R,0.024X0.065*%
%ADD075R,0.012X0.06*%
%ADD076R,0.25X0.14*%
%ADD077C,0.02*%
%ADD078R,0.028X0.036*%
%ADD080R,0.065X0.024*%
%ADD081R,0.103X0.096*%
%ADD082R,0.08X0.088*%
%ADD083R,0.048X0.064*%
%ADD085C,0.01*%
%ADD086C,0.008*%
%ADD120R,0.04X0.016*%
*
*
*
*
G04 PC Circuitry*
G04 Layer Name IOP_Analog_Rev3_28FEB.p - circuitry*
%LPD*%
*
*
G04 PC Custom Flashes*
G04 Layer Name IOP_Analog_Rev3_28FEB.p - flashes*
%LPD*%
*
*
G04 PC Circuitry*
G04 Layer Name IOP_Analog_Rev3_28FEB.p - circuitry*
%LPD*%
*
G54D10*
G01X1155462Y1500837D02*
Y1505462D01*
X1150050*
Y1500837*
X1155462*
X1150050D02*
Y1505462D01*
X1150100Y1500837D02*
Y1505462D01*
X1150150Y1500837D02*
Y1505462D01*
X1150200Y1500837D02*
Y1505462D01*
X1150250Y1500837D02*
Y1505462D01*
X1150300Y1500837D02*
Y1505462D01*
X1150350Y1500837D02*
Y1505462D01*
X1150400Y1500837D02*
Y1505462D01*
X1150450Y1500837D02*
Y1505462D01*
X1150500Y1500837D02*
Y1505462D01*
X1150550Y1500837D02*
Y1505462D01*
X1150600Y1500837D02*
Y1505462D01*
X1150650Y1500837D02*
Y1505462D01*
X1150700Y1500837D02*
Y1505462D01*
X1150750Y1500837D02*
Y1505462D01*
X1150800Y1500837D02*
Y1505462D01*
X1150850Y1500837D02*
Y1505462D01*
X1150900Y1500837D02*
Y1505462D01*
X1150950Y1500837D02*
Y1505462D01*
X1151000Y1500837D02*
Y1505462D01*
X1151050Y1500837D02*
Y1505462D01*
X1151100Y1500837D02*
Y1505462D01*
X1151150Y1500837D02*
Y1505462D01*
X1151200Y1500837D02*
Y1505462D01*
X1151250Y1500837D02*
Y1505462D01*
X1151300Y1500837D02*
Y1505462D01*
X1151350Y1500837D02*
Y1505462D01*
X1151400Y1500837D02*
Y1505462D01*
X1151450Y1500837D02*
Y1505462D01*
X1151500Y1500837D02*
Y1505462D01*
X1151550Y1500837D02*
Y1505462D01*
X1151600Y1500837D02*
Y1505462D01*
X1151650Y1500837D02*
Y1505462D01*
X1151700Y1500837D02*
Y1505462D01*
X1151750Y1500837D02*
Y1505462D01*
X1151800Y1500837D02*
Y1505462D01*
X1151850Y1500837D02*
Y1505462D01*
X1151900Y1500837D02*
Y1505462D01*
X1151950Y1500837D02*
Y1505462D01*
X1152000Y1500837D02*
Y1505462D01*
X1152050Y1500837D02*
Y1505462D01*
X1152100Y1500837D02*
Y1505462D01*
X1152150Y1500837D02*
Y1505462D01*
X1152200Y1500837D02*
Y1505462D01*
X1152250Y1500837D02*
Y1505462D01*
X1152300Y1500837D02*
Y1505462D01*
X1152350Y1500837D02*
Y1505462D01*
X1152400Y1500837D02*
Y1505462D01*
X1152450Y1500837D02*
Y1505462D01*
X1152500Y1500837D02*
Y1505462D01*
X1152550Y1500837D02*
Y1505462D01*
X1152600Y1500837D02*
Y1505462D01*
X1152650Y1500837D02*
Y1505462D01*
X1152700Y1500837D02*
Y1505462D01*
X1152750Y1500837D02*
Y1505462D01*
X1152800Y1500837D02*
Y1505462D01*
X1152850Y1500837D02*
Y1505462D01*
X1152900Y1500837D02*
Y1505462D01*
X1152950Y1500837D02*
Y1505462D01*
X1153000Y1500837D02*
Y1505462D01*
X1153050Y1500837D02*
Y1505462D01*
X1153100Y1500837D02*
Y1505462D01*
X1153150Y1500837D02*
Y1505462D01*
X1153200Y1500837D02*
Y1505462D01*
X1153250Y1500837D02*
Y1505462D01*
X1153300Y1500837D02*
Y1505462D01*
X1153350Y1500837D02*
Y1505462D01*
X1153400Y1500837D02*
Y1505462D01*
X1153450Y1500837D02*
Y1505462D01*
X1153500Y1500837D02*
Y1505462D01*
X1153550Y1500837D02*
Y1505462D01*
X1153600Y1500837D02*
Y1505462D01*
X1153650Y1500837D02*
Y1505462D01*
X1153700Y1500837D02*
Y1505462D01*
X1153750Y1500837D02*
Y1505462D01*
X1153800Y1500837D02*
Y1505462D01*
X1153850Y1500837D02*
Y1505462D01*
X1153900Y1500837D02*
Y1505462D01*
X1153950Y1500837D02*
Y1505462D01*
X1154000Y1500837D02*
Y1505462D01*
X1154050Y1500837D02*
Y1505462D01*
X1154100Y1500837D02*
Y1505462D01*
X1154150Y1500837D02*
Y1505462D01*
X1154200Y1500837D02*
Y1505462D01*
X1154250Y1500837D02*
Y1505462D01*
X1154300Y1500837D02*
Y1505462D01*
X1154350Y1500837D02*
Y1505462D01*
X1154400Y1500837D02*
Y1505462D01*
X1154450Y1500837D02*
Y1505462D01*
X1154500Y1500837D02*
Y1505462D01*
X1154550Y1500837D02*
Y1505462D01*
X1154600Y1500837D02*
Y1505462D01*
X1154650Y1500837D02*
Y1505462D01*
X1154700Y1500837D02*
Y1505462D01*
X1154750Y1500837D02*
Y1505462D01*
X1154800Y1500837D02*
Y1505462D01*
X1154850Y1500837D02*
Y1505462D01*
X1154900Y1500837D02*
Y1505462D01*
X1154950Y1500837D02*
Y1505462D01*
X1155000Y1500837D02*
Y1505462D01*
X1155050Y1500837D02*
Y1505462D01*
X1155100Y1500837D02*
Y1505462D01*
X1155150Y1500837D02*
Y1505462D01*
X1155200Y1500837D02*
Y1505462D01*
X1155250Y1500837D02*
Y1505462D01*
X1155300Y1500837D02*
Y1505462D01*
X1155350Y1500837D02*
Y1505462D01*
X1155400Y1500837D02*
Y1505462D01*
X1155450Y1500837D02*
Y1505462D01*
X1155462Y1494538D02*
Y1499556D01*
X1150050*
Y1494538*
X1155462*
X1150050D02*
Y1499556D01*
X1150100Y1494538D02*
Y1499556D01*
X1150150Y1494538D02*
Y1499556D01*
X1150200Y1494538D02*
Y1499556D01*
X1150250Y1494538D02*
Y1499556D01*
X1150300Y1494538D02*
Y1499556D01*
X1150350Y1494538D02*
Y1499556D01*
X1150400Y1494538D02*
Y1499556D01*
X1150450Y1494538D02*
Y1499556D01*
X1150500Y1494538D02*
Y1499556D01*
X1150550Y1494538D02*
Y1499556D01*
X1150600Y1494538D02*
Y1499556D01*
X1150650Y1494538D02*
Y1499556D01*
X1150700Y1494538D02*
Y1499556D01*
X1150750Y1494538D02*
Y1499556D01*
X1150800Y1494538D02*
Y1499556D01*
X1150850Y1494538D02*
Y1499556D01*
X1150900Y1494538D02*
Y1499556D01*
X1150950Y1494538D02*
Y1499556D01*
X1151000Y1494538D02*
Y1499556D01*
X1151050Y1494538D02*
Y1499556D01*
X1151100Y1494538D02*
Y1499556D01*
X1151150Y1494538D02*
Y1499556D01*
X1151200Y1494538D02*
Y1499556D01*
X1151250Y1494538D02*
Y1499556D01*
X1151300Y1494538D02*
Y1499556D01*
X1151350Y1494538D02*
Y1499556D01*
X1151400Y1494538D02*
Y1499556D01*
X1151450Y1494538D02*
Y1499556D01*
X1151500Y1494538D02*
Y1499556D01*
X1151550Y1494538D02*
Y1499556D01*
X1151600Y1494538D02*
Y1499556D01*
X1151650Y1494538D02*
Y1499556D01*
X1151700Y1494538D02*
Y1499556D01*
X1151750Y1494538D02*
Y1499556D01*
X1151800Y1494538D02*
Y1499556D01*
X1151850Y1494538D02*
Y1499556D01*
X1151900Y1494538D02*
Y1499556D01*
X1151950Y1494538D02*
Y1499556D01*
X1152000Y1494538D02*
Y1499556D01*
X1152050Y1494538D02*
Y1499556D01*
X1152100Y1494538D02*
Y1499556D01*
X1152150Y1494538D02*
Y1499556D01*
X1152200Y1494538D02*
Y1499556D01*
X1152250Y1494538D02*
Y1499556D01*
X1152300Y1494538D02*
Y1499556D01*
X1152350Y1494538D02*
Y1499556D01*
X1152400Y1494538D02*
Y1499556D01*
X1152450Y1494538D02*
Y1499556D01*
X1152500Y1494538D02*
Y1499556D01*
X1152550Y1494538D02*
Y1499556D01*
X1152600Y1494538D02*
Y1499556D01*
X1152650Y1494538D02*
Y1499556D01*
X1152700Y1494538D02*
Y1499556D01*
X1152750Y1494538D02*
Y1499556D01*
X1152800Y1494538D02*
Y1499556D01*
X1152850Y1494538D02*
Y1499556D01*
X1152900Y1494538D02*
Y1499556D01*
X1152950Y1494538D02*
Y1499556D01*
X1153000Y1494538D02*
Y1499556D01*
X1153050Y1494538D02*
Y1499556D01*
X1153100Y1494538D02*
Y1499556D01*
X1153150Y1494538D02*
Y1499556D01*
X1153200Y1494538D02*
Y1499556D01*
X1153250Y1494538D02*
Y1499556D01*
X1153300Y1494538D02*
Y1499556D01*
X1153350Y1494538D02*
Y1499556D01*
X1153400Y1494538D02*
Y1499556D01*
X1153450Y1494538D02*
Y1499556D01*
X1153500Y1494538D02*
Y1499556D01*
X1153550Y1494538D02*
Y1499556D01*
X1153600Y1494538D02*
Y1499556D01*
X1153650Y1494538D02*
Y1499556D01*
X1153700Y1494538D02*
Y1499556D01*
X1153750Y1494538D02*
Y1499556D01*
X1153800Y1494538D02*
Y1499556D01*
X1153850Y1494538D02*
Y1499556D01*
X1153900Y1494538D02*
Y1499556D01*
X1153950Y1494538D02*
Y1499556D01*
X1154000Y1494538D02*
Y1499556D01*
X1154050Y1494538D02*
Y1499556D01*
X1154100Y1494538D02*
Y1499556D01*
X1154150Y1494538D02*
Y1499556D01*
X1154200Y1494538D02*
Y1499556D01*
X1154250Y1494538D02*
Y1499556D01*
X1154300Y1494538D02*
Y1499556D01*
X1154350Y1494538D02*
Y1499556D01*
X1154400Y1494538D02*
Y1499556D01*
X1154450Y1494538D02*
Y1499556D01*
X1154500Y1494538D02*
Y1499556D01*
X1154550Y1494538D02*
Y1499556D01*
X1154600Y1494538D02*
Y1499556D01*
X1154650Y1494538D02*
Y1499556D01*
X1154700Y1494538D02*
Y1499556D01*
X1154750Y1494538D02*
Y1499556D01*
X1154800Y1494538D02*
Y1499556D01*
X1154850Y1494538D02*
Y1499556D01*
X1154900Y1494538D02*
Y1499556D01*
X1154950Y1494538D02*
Y1499556D01*
X1155000Y1494538D02*
Y1499556D01*
X1155050Y1494538D02*
Y1499556D01*
X1155100Y1494538D02*
Y1499556D01*
X1155150Y1494538D02*
Y1499556D01*
X1155200Y1494538D02*
Y1499556D01*
X1155250Y1494538D02*
Y1499556D01*
X1155300Y1494538D02*
Y1499556D01*
X1155350Y1494538D02*
Y1499556D01*
X1155400Y1494538D02*
Y1499556D01*
X1155450Y1494538D02*
Y1499556D01*
X1148769Y1500837D02*
Y1505462D01*
X1144144*
Y1500837*
X1148769*
X1144150D02*
Y1505462D01*
X1144200Y1500837D02*
Y1505462D01*
X1144250Y1500837D02*
Y1505462D01*
X1144300Y1500837D02*
Y1505462D01*
X1144350Y1500837D02*
Y1505462D01*
X1144400Y1500837D02*
Y1505462D01*
X1144450Y1500837D02*
Y1505462D01*
X1144500Y1500837D02*
Y1505462D01*
X1144550Y1500837D02*
Y1505462D01*
X1144600Y1500837D02*
Y1505462D01*
X1144650Y1500837D02*
Y1505462D01*
X1144700Y1500837D02*
Y1505462D01*
X1144750Y1500837D02*
Y1505462D01*
X1144800Y1500837D02*
Y1505462D01*
X1144850Y1500837D02*
Y1505462D01*
X1144900Y1500837D02*
Y1505462D01*
X1144950Y1500837D02*
Y1505462D01*
X1145000Y1500837D02*
Y1505462D01*
X1145050Y1500837D02*
Y1505462D01*
X1145100Y1500837D02*
Y1505462D01*
X1145150Y1500837D02*
Y1505462D01*
X1145200Y1500837D02*
Y1505462D01*
X1145250Y1500837D02*
Y1505462D01*
X1145300Y1500837D02*
Y1505462D01*
X1145350Y1500837D02*
Y1505462D01*
X1145400Y1500837D02*
Y1505462D01*
X1145450Y1500837D02*
Y1505462D01*
X1145500Y1500837D02*
Y1505462D01*
X1145550Y1500837D02*
Y1505462D01*
X1145600Y1500837D02*
Y1505462D01*
X1145650Y1500837D02*
Y1505462D01*
X1145700Y1500837D02*
Y1505462D01*
X1145750Y1500837D02*
Y1505462D01*
X1145800Y1500837D02*
Y1505462D01*
X1145850Y1500837D02*
Y1505462D01*
X1145900Y1500837D02*
Y1505462D01*
X1145950Y1500837D02*
Y1505462D01*
X1146000Y1500837D02*
Y1505462D01*
X1146050Y1500837D02*
Y1505462D01*
X1146100Y1500837D02*
Y1505462D01*
X1146150Y1500837D02*
Y1505462D01*
X1146200Y1500837D02*
Y1505462D01*
X1146250Y1500837D02*
Y1505462D01*
X1146300Y1500837D02*
Y1505462D01*
X1146350Y1500837D02*
Y1505462D01*
X1146400Y1500837D02*
Y1505462D01*
X1146450Y1500837D02*
Y1505462D01*
X1146500Y1500837D02*
Y1505462D01*
X1146550Y1500837D02*
Y1505462D01*
X1146600Y1500837D02*
Y1505462D01*
X1146650Y1500837D02*
Y1505462D01*
X1146700Y1500837D02*
Y1505462D01*
X1146750Y1500837D02*
Y1505462D01*
X1146800Y1500837D02*
Y1505462D01*
X1146850Y1500837D02*
Y1505462D01*
X1146900Y1500837D02*
Y1505462D01*
X1146950Y1500837D02*
Y1505462D01*
X1147000Y1500837D02*
Y1505462D01*
X1147050Y1500837D02*
Y1505462D01*
X1147100Y1500837D02*
Y1505462D01*
X1147150Y1500837D02*
Y1505462D01*
X1147200Y1500837D02*
Y1505462D01*
X1147250Y1500837D02*
Y1505462D01*
X1147300Y1500837D02*
Y1505462D01*
X1147350Y1500837D02*
Y1505462D01*
X1147400Y1500837D02*
Y1505462D01*
X1147450Y1500837D02*
Y1505462D01*
X1147500Y1500837D02*
Y1505462D01*
X1147550Y1500837D02*
Y1505462D01*
X1147600Y1500837D02*
Y1505462D01*
X1147650Y1500837D02*
Y1505462D01*
X1147700Y1500837D02*
Y1505462D01*
X1147750Y1500837D02*
Y1505462D01*
X1147800Y1500837D02*
Y1505462D01*
X1147850Y1500837D02*
Y1505462D01*
X1147900Y1500837D02*
Y1505462D01*
X1147950Y1500837D02*
Y1505462D01*
X1148000Y1500837D02*
Y1505462D01*
X1148050Y1500837D02*
Y1505462D01*
X1148100Y1500837D02*
Y1505462D01*
X1148150Y1500837D02*
Y1505462D01*
X1148200Y1500837D02*
Y1505462D01*
X1148250Y1500837D02*
Y1505462D01*
X1148300Y1500837D02*
Y1505462D01*
X1148350Y1500837D02*
Y1505462D01*
X1148400Y1500837D02*
Y1505462D01*
X1148450Y1500837D02*
Y1505462D01*
X1148500Y1500837D02*
Y1505462D01*
X1148550Y1500837D02*
Y1505462D01*
X1148600Y1500837D02*
Y1505462D01*
X1148650Y1500837D02*
Y1505462D01*
X1148700Y1500837D02*
Y1505462D01*
X1148750Y1500837D02*
Y1505462D01*
X1148769Y1494538D02*
Y1499556D01*
X1144144*
Y1494538*
X1148769*
X1144150D02*
Y1499556D01*
X1144200Y1494538D02*
Y1499556D01*
X1144250Y1494538D02*
Y1499556D01*
X1144300Y1494538D02*
Y1499556D01*
X1144350Y1494538D02*
Y1499556D01*
X1144400Y1494538D02*
Y1499556D01*
X1144450Y1494538D02*
Y1499556D01*
X1144500Y1494538D02*
Y1499556D01*
X1144550Y1494538D02*
Y1499556D01*
X1144600Y1494538D02*
Y1499556D01*
X1144650Y1494538D02*
Y1499556D01*
X1144700Y1494538D02*
Y1499556D01*
X1144750Y1494538D02*
Y1499556D01*
X1144800Y1494538D02*
Y1499556D01*
X1144850Y1494538D02*
Y1499556D01*
X1144900Y1494538D02*
Y1499556D01*
X1144950Y1494538D02*
Y1499556D01*
X1145000Y1494538D02*
Y1499556D01*
X1145050Y1494538D02*
Y1499556D01*
X1145100Y1494538D02*
Y1499556D01*
X1145150Y1494538D02*
Y1499556D01*
X1145200Y1494538D02*
Y1499556D01*
X1145250Y1494538D02*
Y1499556D01*
X1145300Y1494538D02*
Y1499556D01*
X1145350Y1494538D02*
Y1499556D01*
X1145400Y1494538D02*
Y1499556D01*
X1145450Y1494538D02*
Y1499556D01*
X1145500Y1494538D02*
Y1499556D01*
X1145550Y1494538D02*
Y1499556D01*
X1145600Y1494538D02*
Y1499556D01*
X1145650Y1494538D02*
Y1499556D01*
X1145700Y1494538D02*
Y1499556D01*
X1145750Y1494538D02*
Y1499556D01*
X1145800Y1494538D02*
Y1499556D01*
X1145850Y1494538D02*
Y1499556D01*
X1145900Y1494538D02*
Y1499556D01*
X1145950Y1494538D02*
Y1499556D01*
X1146000Y1494538D02*
Y1499556D01*
X1146050Y1494538D02*
Y1499556D01*
X1146100Y1494538D02*
Y1499556D01*
X1146150Y1494538D02*
Y1499556D01*
X1146200Y1494538D02*
Y1499556D01*
X1146250Y1494538D02*
Y1499556D01*
X1146300Y1494538D02*
Y1499556D01*
X1146350Y1494538D02*
Y1499556D01*
X1146400Y1494538D02*
Y1499556D01*
X1146450Y1494538D02*
Y1499556D01*
X1146500Y1494538D02*
Y1499556D01*
X1146550Y1494538D02*
Y1499556D01*
X1146600Y1494538D02*
Y1499556D01*
X1146650Y1494538D02*
Y1499556D01*
X1146700Y1494538D02*
Y1499556D01*
X1146750Y1494538D02*
Y1499556D01*
X1146800Y1494538D02*
Y1499556D01*
X1146850Y1494538D02*
Y1499556D01*
X1146900Y1494538D02*
Y1499556D01*
X1146950Y1494538D02*
Y1499556D01*
X1147000Y1494538D02*
Y1499556D01*
X1147050Y1494538D02*
Y1499556D01*
X1147100Y1494538D02*
Y1499556D01*
X1147150Y1494538D02*
Y1499556D01*
X1147200Y1494538D02*
Y1499556D01*
X1147250Y1494538D02*
Y1499556D01*
X1147300Y1494538D02*
Y1499556D01*
X1147350Y1494538D02*
Y1499556D01*
X1147400Y1494538D02*
Y1499556D01*
X1147450Y1494538D02*
Y1499556D01*
X1147500Y1494538D02*
Y1499556D01*
X1147550Y1494538D02*
Y1499556D01*
X1147600Y1494538D02*
Y1499556D01*
X1147650Y1494538D02*
Y1499556D01*
X1147700Y1494538D02*
Y1499556D01*
X1147750Y1494538D02*
Y1499556D01*
X1147800Y1494538D02*
Y1499556D01*
X1147850Y1494538D02*
Y1499556D01*
X1147900Y1494538D02*
Y1499556D01*
X1147950Y1494538D02*
Y1499556D01*
X1148000Y1494538D02*
Y1499556D01*
X1148050Y1494538D02*
Y1499556D01*
X1148100Y1494538D02*
Y1499556D01*
X1148150Y1494538D02*
Y1499556D01*
X1148200Y1494538D02*
Y1499556D01*
X1148250Y1494538D02*
Y1499556D01*
X1148300Y1494538D02*
Y1499556D01*
X1148350Y1494538D02*
Y1499556D01*
X1148400Y1494538D02*
Y1499556D01*
X1148450Y1494538D02*
Y1499556D01*
X1148500Y1494538D02*
Y1499556D01*
X1148550Y1494538D02*
Y1499556D01*
X1148600Y1494538D02*
Y1499556D01*
X1148650Y1494538D02*
Y1499556D01*
X1148700Y1494538D02*
Y1499556D01*
X1148750Y1494538D02*
Y1499556D01*
X1105462Y1500837D02*
Y1505462D01*
X1100050*
Y1500837*
X1105462*
X1100050D02*
Y1505462D01*
X1100100Y1500837D02*
Y1505462D01*
X1100150Y1500837D02*
Y1505462D01*
X1100200Y1500837D02*
Y1505462D01*
X1100250Y1500837D02*
Y1505462D01*
X1100300Y1500837D02*
Y1505462D01*
X1100350Y1500837D02*
Y1505462D01*
X1100400Y1500837D02*
Y1505462D01*
X1100450Y1500837D02*
Y1505462D01*
X1100500Y1500837D02*
Y1505462D01*
X1100550Y1500837D02*
Y1505462D01*
X1100600Y1500837D02*
Y1505462D01*
X1100650Y1500837D02*
Y1505462D01*
X1100700Y1500837D02*
Y1505462D01*
X1100750Y1500837D02*
Y1505462D01*
X1100800Y1500837D02*
Y1505462D01*
X1100850Y1500837D02*
Y1505462D01*
X1100900Y1500837D02*
Y1505462D01*
X1100950Y1500837D02*
Y1505462D01*
X1101000Y1500837D02*
Y1505462D01*
X1101050Y1500837D02*
Y1505462D01*
X1101100Y1500837D02*
Y1505462D01*
X1101150Y1500837D02*
Y1505462D01*
X1101200Y1500837D02*
Y1505462D01*
X1101250Y1500837D02*
Y1505462D01*
X1101300Y1500837D02*
Y1505462D01*
X1101350Y1500837D02*
Y1505462D01*
X1101400Y1500837D02*
Y1505462D01*
X1101450Y1500837D02*
Y1505462D01*
X1101500Y1500837D02*
Y1505462D01*
X1101550Y1500837D02*
Y1505462D01*
X1101600Y1500837D02*
Y1505462D01*
X1101650Y1500837D02*
Y1505462D01*
X1101700Y1500837D02*
Y1505462D01*
X1101750Y1500837D02*
Y1505462D01*
X1101800Y1500837D02*
Y1505462D01*
X1101850Y1500837D02*
Y1505462D01*
X1101900Y1500837D02*
Y1505462D01*
X1101950Y1500837D02*
Y1505462D01*
X1102000Y1500837D02*
Y1505462D01*
X1102050Y1500837D02*
Y1505462D01*
X1102100Y1500837D02*
Y1505462D01*
X1102150Y1500837D02*
Y1505462D01*
X1102200Y1500837D02*
Y1505462D01*
X1102250Y1500837D02*
Y1505462D01*
X1102300Y1500837D02*
Y1505462D01*
X1102350Y1500837D02*
Y1505462D01*
X1102400Y1500837D02*
Y1505462D01*
X1102450Y1500837D02*
Y1505462D01*
X1102500Y1500837D02*
Y1505462D01*
X1102550Y1500837D02*
Y1505462D01*
X1102600Y1500837D02*
Y1505462D01*
X1102650Y1500837D02*
Y1505462D01*
X1102700Y1500837D02*
Y1505462D01*
X1102750Y1500837D02*
Y1505462D01*
X1102800Y1500837D02*
Y1505462D01*
X1102850Y1500837D02*
Y1505462D01*
X1102900Y1500837D02*
Y1505462D01*
X1102950Y1500837D02*
Y1505462D01*
X1103000Y1500837D02*
Y1505462D01*
X1103050Y1500837D02*
Y1505462D01*
X1103100Y1500837D02*
Y1505462D01*
X1103150Y1500837D02*
Y1505462D01*
X1103200Y1500837D02*
Y1505462D01*
X1103250Y1500837D02*
Y1505462D01*
X1103300Y1500837D02*
Y1505462D01*
X1103350Y1500837D02*
Y1505462D01*
X1103400Y1500837D02*
Y1505462D01*
X1103450Y1500837D02*
Y1505462D01*
X1103500Y1500837D02*
Y1505462D01*
X1103550Y1500837D02*
Y1505462D01*
X1103600Y1500837D02*
Y1505462D01*
X1103650Y1500837D02*
Y1505462D01*
X1103700Y1500837D02*
Y1505462D01*
X1103750Y1500837D02*
Y1505462D01*
X1103800Y1500837D02*
Y1505462D01*
X1103850Y1500837D02*
Y1505462D01*
X1103900Y1500837D02*
Y1505462D01*
X1103950Y1500837D02*
Y1505462D01*
X1104000Y1500837D02*
Y1505462D01*
X1104050Y1500837D02*
Y1505462D01*
X1104100Y1500837D02*
Y1505462D01*
X1104150Y1500837D02*
Y1505462D01*
X1104200Y1500837D02*
Y1505462D01*
X1104250Y1500837D02*
Y1505462D01*
X1104300Y1500837D02*
Y1505462D01*
X1104350Y1500837D02*
Y1505462D01*
X1104400Y1500837D02*
Y1505462D01*
X1104450Y1500837D02*
Y1505462D01*
X1104500Y1500837D02*
Y1505462D01*
X1104550Y1500837D02*
Y1505462D01*
X1104600Y1500837D02*
Y1505462D01*
X1104650Y1500837D02*
Y1505462D01*
X1104700Y1500837D02*
Y1505462D01*
X1104750Y1500837D02*
Y1505462D01*
X1104800Y1500837D02*
Y1505462D01*
X1104850Y1500837D02*
Y1505462D01*
X1104900Y1500837D02*
Y1505462D01*
X1104950Y1500837D02*
Y1505462D01*
X1105000Y1500837D02*
Y1505462D01*
X1105050Y1500837D02*
Y1505462D01*
X1105100Y1500837D02*
Y1505462D01*
X1105150Y1500837D02*
Y1505462D01*
X1105200Y1500837D02*
Y1505462D01*
X1105250Y1500837D02*
Y1505462D01*
X1105300Y1500837D02*
Y1505462D01*
X1105350Y1500837D02*
Y1505462D01*
X1105400Y1500837D02*
Y1505462D01*
X1105450Y1500837D02*
Y1505462D01*
X1105462Y1494538D02*
Y1499556D01*
X1100050*
Y1494538*
X1105462*
X1100050D02*
Y1499556D01*
X1100100Y1494538D02*
Y1499556D01*
X1100150Y1494538D02*
Y1499556D01*
X1100200Y1494538D02*
Y1499556D01*
X1100250Y1494538D02*
Y1499556D01*
X1100300Y1494538D02*
Y1499556D01*
X1100350Y1494538D02*
Y1499556D01*
X1100400Y1494538D02*
Y1499556D01*
X1100450Y1494538D02*
Y1499556D01*
X1100500Y1494538D02*
Y1499556D01*
X1100550Y1494538D02*
Y1499556D01*
X1100600Y1494538D02*
Y1499556D01*
X1100650Y1494538D02*
Y1499556D01*
X1100700Y1494538D02*
Y1499556D01*
X1100750Y1494538D02*
Y1499556D01*
X1100800Y1494538D02*
Y1499556D01*
X1100850Y1494538D02*
Y1499556D01*
X1100900Y1494538D02*
Y1499556D01*
X1100950Y1494538D02*
Y1499556D01*
X1101000Y1494538D02*
Y1499556D01*
X1101050Y1494538D02*
Y1499556D01*
X1101100Y1494538D02*
Y1499556D01*
X1101150Y1494538D02*
Y1499556D01*
X1101200Y1494538D02*
Y1499556D01*
X1101250Y1494538D02*
Y1499556D01*
X1101300Y1494538D02*
Y1499556D01*
X1101350Y1494538D02*
Y1499556D01*
X1101400Y1494538D02*
Y1499556D01*
X1101450Y1494538D02*
Y1499556D01*
X1101500Y1494538D02*
Y1499556D01*
X1101550Y1494538D02*
Y1499556D01*
X1101600Y1494538D02*
Y1499556D01*
X1101650Y1494538D02*
Y1499556D01*
X1101700Y1494538D02*
Y1499556D01*
X1101750Y1494538D02*
Y1499556D01*
X1101800Y1494538D02*
Y1499556D01*
X1101850Y1494538D02*
Y1499556D01*
X1101900Y1494538D02*
Y1499556D01*
X1101950Y1494538D02*
Y1499556D01*
X1102000Y1494538D02*
Y1499556D01*
X1102050Y1494538D02*
Y1499556D01*
X1102100Y1494538D02*
Y1499556D01*
X1102150Y1494538D02*
Y1499556D01*
X1102200Y1494538D02*
Y1499556D01*
X1102250Y1494538D02*
Y1499556D01*
X1102300Y1494538D02*
Y1499556D01*
X1102350Y1494538D02*
Y1499556D01*
X1102400Y1494538D02*
Y1499556D01*
X1102450Y1494538D02*
Y1499556D01*
X1102500Y1494538D02*
Y1499556D01*
X1102550Y1494538D02*
Y1499556D01*
X1102600Y1494538D02*
Y1499556D01*
X1102650Y1494538D02*
Y1499556D01*
X1102700Y1494538D02*
Y1499556D01*
X1102750Y1494538D02*
Y1499556D01*
X1102800Y1494538D02*
Y1499556D01*
X1102850Y1494538D02*
Y1499556D01*
X1102900Y1494538D02*
Y1499556D01*
X1102950Y1494538D02*
Y1499556D01*
X1103000Y1494538D02*
Y1499556D01*
X1103050Y1494538D02*
Y1499556D01*
X1103100Y1494538D02*
Y1499556D01*
X1103150Y1494538D02*
Y1499556D01*
X1103200Y1494538D02*
Y1499556D01*
X1103250Y1494538D02*
Y1499556D01*
X1103300Y1494538D02*
Y1499556D01*
X1103350Y1494538D02*
Y1499556D01*
X1103400Y1494538D02*
Y1499556D01*
X1103450Y1494538D02*
Y1499556D01*
X1103500Y1494538D02*
Y1499556D01*
X1103550Y1494538D02*
Y1499556D01*
X1103600Y1494538D02*
Y1499556D01*
X1103650Y1494538D02*
Y1499556D01*
X1103700Y1494538D02*
Y1499556D01*
X1103750Y1494538D02*
Y1499556D01*
X1103800Y1494538D02*
Y1499556D01*
X1103850Y1494538D02*
Y1499556D01*
X1103900Y1494538D02*
Y1499556D01*
X1103950Y1494538D02*
Y1499556D01*
X1104000Y1494538D02*
Y1499556D01*
X1104050Y1494538D02*
Y1499556D01*
X1104100Y1494538D02*
Y1499556D01*
X1104150Y1494538D02*
Y1499556D01*
X1104200Y1494538D02*
Y1499556D01*
X1104250Y1494538D02*
Y1499556D01*
X1104300Y1494538D02*
Y1499556D01*
X1104350Y1494538D02*
Y1499556D01*
X1104400Y1494538D02*
Y1499556D01*
X1104450Y1494538D02*
Y1499556D01*
X1104500Y1494538D02*
Y1499556D01*
X1104550Y1494538D02*
Y1499556D01*
X1104600Y1494538D02*
Y1499556D01*
X1104650Y1494538D02*
Y1499556D01*
X1104700Y1494538D02*
Y1499556D01*
X1104750Y1494538D02*
Y1499556D01*
X1104800Y1494538D02*
Y1499556D01*
X1104850Y1494538D02*
Y1499556D01*
X1104900Y1494538D02*
Y1499556D01*
X1104950Y1494538D02*
Y1499556D01*
X1105000Y1494538D02*
Y1499556D01*
X1105050Y1494538D02*
Y1499556D01*
X1105100Y1494538D02*
Y1499556D01*
X1105150Y1494538D02*
Y1499556D01*
X1105200Y1494538D02*
Y1499556D01*
X1105250Y1494538D02*
Y1499556D01*
X1105300Y1494538D02*
Y1499556D01*
X1105350Y1494538D02*
Y1499556D01*
X1105400Y1494538D02*
Y1499556D01*
X1105450Y1494538D02*
Y1499556D01*
X1098769Y1500837D02*
Y1505462D01*
X1094144*
Y1500837*
X1098769*
X1094150D02*
Y1505462D01*
X1094200Y1500837D02*
Y1505462D01*
X1094250Y1500837D02*
Y1505462D01*
X1094300Y1500837D02*
Y1505462D01*
X1094350Y1500837D02*
Y1505462D01*
X1094400Y1500837D02*
Y1505462D01*
X1094450Y1500837D02*
Y1505462D01*
X1094500Y1500837D02*
Y1505462D01*
X1094550Y1500837D02*
Y1505462D01*
X1094600Y1500837D02*
Y1505462D01*
X1094650Y1500837D02*
Y1505462D01*
X1094700Y1500837D02*
Y1505462D01*
X1094750Y1500837D02*
Y1505462D01*
X1094800Y1500837D02*
Y1505462D01*
X1094850Y1500837D02*
Y1505462D01*
X1094900Y1500837D02*
Y1505462D01*
X1094950Y1500837D02*
Y1505462D01*
X1095000Y1500837D02*
Y1505462D01*
X1095050Y1500837D02*
Y1505462D01*
X1095100Y1500837D02*
Y1505462D01*
X1095150Y1500837D02*
Y1505462D01*
X1095200Y1500837D02*
Y1505462D01*
X1095250Y1500837D02*
Y1505462D01*
X1095300Y1500837D02*
Y1505462D01*
X1095350Y1500837D02*
Y1505462D01*
X1095400Y1500837D02*
Y1505462D01*
X1095450Y1500837D02*
Y1505462D01*
X1095500Y1500837D02*
Y1505462D01*
X1095550Y1500837D02*
Y1505462D01*
X1095600Y1500837D02*
Y1505462D01*
X1095650Y1500837D02*
Y1505462D01*
X1095700Y1500837D02*
Y1505462D01*
X1095750Y1500837D02*
Y1505462D01*
X1095800Y1500837D02*
Y1505462D01*
X1095850Y1500837D02*
Y1505462D01*
X1095900Y1500837D02*
Y1505462D01*
X1095950Y1500837D02*
Y1505462D01*
X1096000Y1500837D02*
Y1505462D01*
X1096050Y1500837D02*
Y1505462D01*
X1096100Y1500837D02*
Y1505462D01*
X1096150Y1500837D02*
Y1505462D01*
X1096200Y1500837D02*
Y1505462D01*
X1096250Y1500837D02*
Y1505462D01*
X1096300Y1500837D02*
Y1505462D01*
X1096350Y1500837D02*
Y1505462D01*
X1096400Y1500837D02*
Y1505462D01*
X1096450Y1500837D02*
Y1505462D01*
X1096500Y1500837D02*
Y1505462D01*
X1096550Y1500837D02*
Y1505462D01*
X1096600Y1500837D02*
Y1505462D01*
X1096650Y1500837D02*
Y1505462D01*
X1096700Y1500837D02*
Y1505462D01*
X1096750Y1500837D02*
Y1505462D01*
X1096800Y1500837D02*
Y1505462D01*
X1096850Y1500837D02*
Y1505462D01*
X1096900Y1500837D02*
Y1505462D01*
X1096950Y1500837D02*
Y1505462D01*
X1097000Y1500837D02*
Y1505462D01*
X1097050Y1500837D02*
Y1505462D01*
X1097100Y1500837D02*
Y1505462D01*
X1097150Y1500837D02*
Y1505462D01*
X1097200Y1500837D02*
Y1505462D01*
X1097250Y1500837D02*
Y1505462D01*
X1097300Y1500837D02*
Y1505462D01*
X1097350Y1500837D02*
Y1505462D01*
X1097400Y1500837D02*
Y1505462D01*
X1097450Y1500837D02*
Y1505462D01*
X1097500Y1500837D02*
Y1505462D01*
X1097550Y1500837D02*
Y1505462D01*
X1097600Y1500837D02*
Y1505462D01*
X1097650Y1500837D02*
Y1505462D01*
X1097700Y1500837D02*
Y1505462D01*
X1097750Y1500837D02*
Y1505462D01*
X1097800Y1500837D02*
Y1505462D01*
X1097850Y1500837D02*
Y1505462D01*
X1097900Y1500837D02*
Y1505462D01*
X1097950Y1500837D02*
Y1505462D01*
X1098000Y1500837D02*
Y1505462D01*
X1098050Y1500837D02*
Y1505462D01*
X1098100Y1500837D02*
Y1505462D01*
X1098150Y1500837D02*
Y1505462D01*
X1098200Y1500837D02*
Y1505462D01*
X1098250Y1500837D02*
Y1505462D01*
X1098300Y1500837D02*
Y1505462D01*
X1098350Y1500837D02*
Y1505462D01*
X1098400Y1500837D02*
Y1505462D01*
X1098450Y1500837D02*
Y1505462D01*
X1098500Y1500837D02*
Y1505462D01*
X1098550Y1500837D02*
Y1505462D01*
X1098600Y1500837D02*
Y1505462D01*
X1098650Y1500837D02*
Y1505462D01*
X1098700Y1500837D02*
Y1505462D01*
X1098750Y1500837D02*
Y1505462D01*
X1098769Y1494538D02*
Y1499556D01*
X1094144*
Y1494538*
X1098769*
X1094150D02*
Y1499556D01*
X1094200Y1494538D02*
Y1499556D01*
X1094250Y1494538D02*
Y1499556D01*
X1094300Y1494538D02*
Y1499556D01*
X1094350Y1494538D02*
Y1499556D01*
X1094400Y1494538D02*
Y1499556D01*
X1094450Y1494538D02*
Y1499556D01*
X1094500Y1494538D02*
Y1499556D01*
X1094550Y1494538D02*
Y1499556D01*
X1094600Y1494538D02*
Y1499556D01*
X1094650Y1494538D02*
Y1499556D01*
X1094700Y1494538D02*
Y1499556D01*
X1094750Y1494538D02*
Y1499556D01*
X1094800Y1494538D02*
Y1499556D01*
X1094850Y1494538D02*
Y1499556D01*
X1094900Y1494538D02*
Y1499556D01*
X1094950Y1494538D02*
Y1499556D01*
X1095000Y1494538D02*
Y1499556D01*
X1095050Y1494538D02*
Y1499556D01*
X1095100Y1494538D02*
Y1499556D01*
X1095150Y1494538D02*
Y1499556D01*
X1095200Y1494538D02*
Y1499556D01*
X1095250Y1494538D02*
Y1499556D01*
X1095300Y1494538D02*
Y1499556D01*
X1095350Y1494538D02*
Y1499556D01*
X1095400Y1494538D02*
Y1499556D01*
X1095450Y1494538D02*
Y1499556D01*
X1095500Y1494538D02*
Y1499556D01*
X1095550Y1494538D02*
Y1499556D01*
X1095600Y1494538D02*
Y1499556D01*
X1095650Y1494538D02*
Y1499556D01*
X1095700Y1494538D02*
Y1499556D01*
X1095750Y1494538D02*
Y1499556D01*
X1095800Y1494538D02*
Y1499556D01*
X1095850Y1494538D02*
Y1499556D01*
X1095900Y1494538D02*
Y1499556D01*
X1095950Y1494538D02*
Y1499556D01*
X1096000Y1494538D02*
Y1499556D01*
X1096050Y1494538D02*
Y1499556D01*
X1096100Y1494538D02*
Y1499556D01*
X1096150Y1494538D02*
Y1499556D01*
X1096200Y1494538D02*
Y1499556D01*
X1096250Y1494538D02*
Y1499556D01*
X1096300Y1494538D02*
Y1499556D01*
X1096350Y1494538D02*
Y1499556D01*
X1096400Y1494538D02*
Y1499556D01*
X1096450Y1494538D02*
Y1499556D01*
X1096500Y1494538D02*
Y1499556D01*
X1096550Y1494538D02*
Y1499556D01*
X1096600Y1494538D02*
Y1499556D01*
X1096650Y1494538D02*
Y1499556D01*
X1096700Y1494538D02*
Y1499556D01*
X1096750Y1494538D02*
Y1499556D01*
X1096800Y1494538D02*
Y1499556D01*
X1096850Y1494538D02*
Y1499556D01*
X1096900Y1494538D02*
Y1499556D01*
X1096950Y1494538D02*
Y1499556D01*
X1097000Y1494538D02*
Y1499556D01*
X1097050Y1494538D02*
Y1499556D01*
X1097100Y1494538D02*
Y1499556D01*
X1097150Y1494538D02*
Y1499556D01*
X1097200Y1494538D02*
Y1499556D01*
X1097250Y1494538D02*
Y1499556D01*
X1097300Y1494538D02*
Y1499556D01*
X1097350Y1494538D02*
Y1499556D01*
X1097400Y1494538D02*
Y1499556D01*
X1097450Y1494538D02*
Y1499556D01*
X1097500Y1494538D02*
Y1499556D01*
X1097550Y1494538D02*
Y1499556D01*
X1097600Y1494538D02*
Y1499556D01*
X1097650Y1494538D02*
Y1499556D01*
X1097700Y1494538D02*
Y1499556D01*
X1097750Y1494538D02*
Y1499556D01*
X1097800Y1494538D02*
Y1499556D01*
X1097850Y1494538D02*
Y1499556D01*
X1097900Y1494538D02*
Y1499556D01*
X1097950Y1494538D02*
Y1499556D01*
X1098000Y1494538D02*
Y1499556D01*
X1098050Y1494538D02*
Y1499556D01*
X1098100Y1494538D02*
Y1499556D01*
X1098150Y1494538D02*
Y1499556D01*
X1098200Y1494538D02*
Y1499556D01*
X1098250Y1494538D02*
Y1499556D01*
X1098300Y1494538D02*
Y1499556D01*
X1098350Y1494538D02*
Y1499556D01*
X1098400Y1494538D02*
Y1499556D01*
X1098450Y1494538D02*
Y1499556D01*
X1098500Y1494538D02*
Y1499556D01*
X1098550Y1494538D02*
Y1499556D01*
X1098600Y1494538D02*
Y1499556D01*
X1098650Y1494538D02*
Y1499556D01*
X1098700Y1494538D02*
Y1499556D01*
X1098750Y1494538D02*
Y1499556D01*
X1252962Y1500837D02*
Y1505462D01*
X1247550*
Y1500837*
X1252962*
X1247550D02*
Y1505462D01*
X1247600Y1500837D02*
Y1505462D01*
X1247650Y1500837D02*
Y1505462D01*
X1247700Y1500837D02*
Y1505462D01*
X1247750Y1500837D02*
Y1505462D01*
X1247800Y1500837D02*
Y1505462D01*
X1247850Y1500837D02*
Y1505462D01*
X1247900Y1500837D02*
Y1505462D01*
X1247950Y1500837D02*
Y1505462D01*
X1248000Y1500837D02*
Y1505462D01*
X1248050Y1500837D02*
Y1505462D01*
X1248100Y1500837D02*
Y1505462D01*
X1248150Y1500837D02*
Y1505462D01*
X1248200Y1500837D02*
Y1505462D01*
X1248250Y1500837D02*
Y1505462D01*
X1248300Y1500837D02*
Y1505462D01*
X1248350Y1500837D02*
Y1505462D01*
X1248400Y1500837D02*
Y1505462D01*
X1248450Y1500837D02*
Y1505462D01*
X1248500Y1500837D02*
Y1505462D01*
X1248550Y1500837D02*
Y1505462D01*
X1248600Y1500837D02*
Y1505462D01*
X1248650Y1500837D02*
Y1505462D01*
X1248700Y1500837D02*
Y1505462D01*
X1248750Y1500837D02*
Y1505462D01*
X1248800Y1500837D02*
Y1505462D01*
X1248850Y1500837D02*
Y1505462D01*
X1248900Y1500837D02*
Y1505462D01*
X1248950Y1500837D02*
Y1505462D01*
X1249000Y1500837D02*
Y1505462D01*
X1249050Y1500837D02*
Y1505462D01*
X1249100Y1500837D02*
Y1505462D01*
X1249150Y1500837D02*
Y1505462D01*
X1249200Y1500837D02*
Y1505462D01*
X1249250Y1500837D02*
Y1505462D01*
X1249300Y1500837D02*
Y1505462D01*
X1249350Y1500837D02*
Y1505462D01*
X1249400Y1500837D02*
Y1505462D01*
X1249450Y1500837D02*
Y1505462D01*
X1249500Y1500837D02*
Y1505462D01*
X1249550Y1500837D02*
Y1505462D01*
X1249600Y1500837D02*
Y1505462D01*
X1249650Y1500837D02*
Y1505462D01*
X1249700Y1500837D02*
Y1505462D01*
X1249750Y1500837D02*
Y1505462D01*
X1249800Y1500837D02*
Y1505462D01*
X1249850Y1500837D02*
Y1505462D01*
X1249900Y1500837D02*
Y1505462D01*
X1249950Y1500837D02*
Y1505462D01*
X1250000Y1500837D02*
Y1505462D01*
X1250050Y1500837D02*
Y1505462D01*
X1250100Y1500837D02*
Y1505462D01*
X1250150Y1500837D02*
Y1505462D01*
X1250200Y1500837D02*
Y1505462D01*
X1250250Y1500837D02*
Y1505462D01*
X1250300Y1500837D02*
Y1505462D01*
X1250350Y1500837D02*
Y1505462D01*
X1250400Y1500837D02*
Y1505462D01*
X1250450Y1500837D02*
Y1505462D01*
X1250500Y1500837D02*
Y1505462D01*
X1250550Y1500837D02*
Y1505462D01*
X1250600Y1500837D02*
Y1505462D01*
X1250650Y1500837D02*
Y1505462D01*
X1250700Y1500837D02*
Y1505462D01*
X1250750Y1500837D02*
Y1505462D01*
X1250800Y1500837D02*
Y1505462D01*
X1250850Y1500837D02*
Y1505462D01*
X1250900Y1500837D02*
Y1505462D01*
X1250950Y1500837D02*
Y1505462D01*
X1251000Y1500837D02*
Y1505462D01*
X1251050Y1500837D02*
Y1505462D01*
X1251100Y1500837D02*
Y1505462D01*
X1251150Y1500837D02*
Y1505462D01*
X1251200Y1500837D02*
Y1505462D01*
X1251250Y1500837D02*
Y1505462D01*
X1251300Y1500837D02*
Y1505462D01*
X1251350Y1500837D02*
Y1505462D01*
X1251400Y1500837D02*
Y1505462D01*
X1251450Y1500837D02*
Y1505462D01*
X1251500Y1500837D02*
Y1505462D01*
X1251550Y1500837D02*
Y1505462D01*
X1251600Y1500837D02*
Y1505462D01*
X1251650Y1500837D02*
Y1505462D01*
X1251700Y1500837D02*
Y1505462D01*
X1251750Y1500837D02*
Y1505462D01*
X1251800Y1500837D02*
Y1505462D01*
X1251850Y1500837D02*
Y1505462D01*
X1251900Y1500837D02*
Y1505462D01*
X1251950Y1500837D02*
Y1505462D01*
X1252000Y1500837D02*
Y1505462D01*
X1252050Y1500837D02*
Y1505462D01*
X1252100Y1500837D02*
Y1505462D01*
X1252150Y1500837D02*
Y1505462D01*
X1252200Y1500837D02*
Y1505462D01*
X1252250Y1500837D02*
Y1505462D01*
X1252300Y1500837D02*
Y1505462D01*
X1252350Y1500837D02*
Y1505462D01*
X1252400Y1500837D02*
Y1505462D01*
X1252450Y1500837D02*
Y1505462D01*
X1252500Y1500837D02*
Y1505462D01*
X1252550Y1500837D02*
Y1505462D01*
X1252600Y1500837D02*
Y1505462D01*
X1252650Y1500837D02*
Y1505462D01*
X1252700Y1500837D02*
Y1505462D01*
X1252750Y1500837D02*
Y1505462D01*
X1252800Y1500837D02*
Y1505462D01*
X1252850Y1500837D02*
Y1505462D01*
X1252900Y1500837D02*
Y1505462D01*
X1252950Y1500837D02*
Y1505462D01*
X1252962Y1494538D02*
Y1499556D01*
X1247550*
Y1494538*
X1252962*
X1247550D02*
Y1499556D01*
X1247600Y1494538D02*
Y1499556D01*
X1247650Y1494538D02*
Y1499556D01*
X1247700Y1494538D02*
Y1499556D01*
X1247750Y1494538D02*
Y1499556D01*
X1247800Y1494538D02*
Y1499556D01*
X1247850Y1494538D02*
Y1499556D01*
X1247900Y1494538D02*
Y1499556D01*
X1247950Y1494538D02*
Y1499556D01*
X1248000Y1494538D02*
Y1499556D01*
X1248050Y1494538D02*
Y1499556D01*
X1248100Y1494538D02*
Y1499556D01*
X1248150Y1494538D02*
Y1499556D01*
X1248200Y1494538D02*
Y1499556D01*
X1248250Y1494538D02*
Y1499556D01*
X1248300Y1494538D02*
Y1499556D01*
X1248350Y1494538D02*
Y1499556D01*
X1248400Y1494538D02*
Y1499556D01*
X1248450Y1494538D02*
Y1499556D01*
X1248500Y1494538D02*
Y1499556D01*
X1248550Y1494538D02*
Y1499556D01*
X1248600Y1494538D02*
Y1499556D01*
X1248650Y1494538D02*
Y1499556D01*
X1248700Y1494538D02*
Y1499556D01*
X1248750Y1494538D02*
Y1499556D01*
X1248800Y1494538D02*
Y1499556D01*
X1248850Y1494538D02*
Y1499556D01*
X1248900Y1494538D02*
Y1499556D01*
X1248950Y1494538D02*
Y1499556D01*
X1249000Y1494538D02*
Y1499556D01*
X1249050Y1494538D02*
Y1499556D01*
X1249100Y1494538D02*
Y1499556D01*
X1249150Y1494538D02*
Y1499556D01*
X1249200Y1494538D02*
Y1499556D01*
X1249250Y1494538D02*
Y1499556D01*
X1249300Y1494538D02*
Y1499556D01*
X1249350Y1494538D02*
Y1499556D01*
X1249400Y1494538D02*
Y1499556D01*
X1249450Y1494538D02*
Y1499556D01*
X1249500Y1494538D02*
Y1499556D01*
X1249550Y1494538D02*
Y1499556D01*
X1249600Y1494538D02*
Y1499556D01*
X1249650Y1494538D02*
Y1499556D01*
X1249700Y1494538D02*
Y1499556D01*
X1249750Y1494538D02*
Y1499556D01*
X1249800Y1494538D02*
Y1499556D01*
X1249850Y1494538D02*
Y1499556D01*
X1249900Y1494538D02*
Y1499556D01*
X1249950Y1494538D02*
Y1499556D01*
X1250000Y1494538D02*
Y1499556D01*
X1250050Y1494538D02*
Y1499556D01*
X1250100Y1494538D02*
Y1499556D01*
X1250150Y1494538D02*
Y1499556D01*
X1250200Y1494538D02*
Y1499556D01*
X1250250Y1494538D02*
Y1499556D01*
X1250300Y1494538D02*
Y1499556D01*
X1250350Y1494538D02*
Y1499556D01*
X1250400Y1494538D02*
Y1499556D01*
X1250450Y1494538D02*
Y1499556D01*
X1250500Y1494538D02*
Y1499556D01*
X1250550Y1494538D02*
Y1499556D01*
X1250600Y1494538D02*
Y1499556D01*
X1250650Y1494538D02*
Y1499556D01*
X1250700Y1494538D02*
Y1499556D01*
X1250750Y1494538D02*
Y1499556D01*
X1250800Y1494538D02*
Y1499556D01*
X1250850Y1494538D02*
Y1499556D01*
X1250900Y1494538D02*
Y1499556D01*
X1250950Y1494538D02*
Y1499556D01*
X1251000Y1494538D02*
Y1499556D01*
X1251050Y1494538D02*
Y1499556D01*
X1251100Y1494538D02*
Y1499556D01*
X1251150Y1494538D02*
Y1499556D01*
X1251200Y1494538D02*
Y1499556D01*
X1251250Y1494538D02*
Y1499556D01*
X1251300Y1494538D02*
Y1499556D01*
X1251350Y1494538D02*
Y1499556D01*
X1251400Y1494538D02*
Y1499556D01*
X1251450Y1494538D02*
Y1499556D01*
X1251500Y1494538D02*
Y1499556D01*
X1251550Y1494538D02*
Y1499556D01*
X1251600Y1494538D02*
Y1499556D01*
X1251650Y1494538D02*
Y1499556D01*
X1251700Y1494538D02*
Y1499556D01*
X1251750Y1494538D02*
Y1499556D01*
X1251800Y1494538D02*
Y1499556D01*
X1251850Y1494538D02*
Y1499556D01*
X1251900Y1494538D02*
Y1499556D01*
X1251950Y1494538D02*
Y1499556D01*
X1252000Y1494538D02*
Y1499556D01*
X1252050Y1494538D02*
Y1499556D01*
X1252100Y1494538D02*
Y1499556D01*
X1252150Y1494538D02*
Y1499556D01*
X1252200Y1494538D02*
Y1499556D01*
X1252250Y1494538D02*
Y1499556D01*
X1252300Y1494538D02*
Y1499556D01*
X1252350Y1494538D02*
Y1499556D01*
X1252400Y1494538D02*
Y1499556D01*
X1252450Y1494538D02*
Y1499556D01*
X1252500Y1494538D02*
Y1499556D01*
X1252550Y1494538D02*
Y1499556D01*
X1252600Y1494538D02*
Y1499556D01*
X1252650Y1494538D02*
Y1499556D01*
X1252700Y1494538D02*
Y1499556D01*
X1252750Y1494538D02*
Y1499556D01*
X1252800Y1494538D02*
Y1499556D01*
X1252850Y1494538D02*
Y1499556D01*
X1252900Y1494538D02*
Y1499556D01*
X1252950Y1494538D02*
Y1499556D01*
X1246269Y1500837D02*
Y1505462D01*
X1241644*
Y1500837*
X1246269*
X1241650D02*
Y1505462D01*
X1241700Y1500837D02*
Y1505462D01*
X1241750Y1500837D02*
Y1505462D01*
X1241800Y1500837D02*
Y1505462D01*
X1241850Y1500837D02*
Y1505462D01*
X1241900Y1500837D02*
Y1505462D01*
X1241950Y1500837D02*
Y1505462D01*
X1242000Y1500837D02*
Y1505462D01*
X1242050Y1500837D02*
Y1505462D01*
X1242100Y1500837D02*
Y1505462D01*
X1242150Y1500837D02*
Y1505462D01*
X1242200Y1500837D02*
Y1505462D01*
X1242250Y1500837D02*
Y1505462D01*
X1242300Y1500837D02*
Y1505462D01*
X1242350Y1500837D02*
Y1505462D01*
X1242400Y1500837D02*
Y1505462D01*
X1242450Y1500837D02*
Y1505462D01*
X1242500Y1500837D02*
Y1505462D01*
X1242550Y1500837D02*
Y1505462D01*
X1242600Y1500837D02*
Y1505462D01*
X1242650Y1500837D02*
Y1505462D01*
X1242700Y1500837D02*
Y1505462D01*
X1242750Y1500837D02*
Y1505462D01*
X1242800Y1500837D02*
Y1505462D01*
X1242850Y1500837D02*
Y1505462D01*
X1242900Y1500837D02*
Y1505462D01*
X1242950Y1500837D02*
Y1505462D01*
X1243000Y1500837D02*
Y1505462D01*
X1243050Y1500837D02*
Y1505462D01*
X1243100Y1500837D02*
Y1505462D01*
X1243150Y1500837D02*
Y1505462D01*
X1243200Y1500837D02*
Y1505462D01*
X1243250Y1500837D02*
Y1505462D01*
X1243300Y1500837D02*
Y1505462D01*
X1243350Y1500837D02*
Y1505462D01*
X1243400Y1500837D02*
Y1505462D01*
X1243450Y1500837D02*
Y1505462D01*
X1243500Y1500837D02*
Y1505462D01*
X1243550Y1500837D02*
Y1505462D01*
X1243600Y1500837D02*
Y1505462D01*
X1243650Y1500837D02*
Y1505462D01*
X1243700Y1500837D02*
Y1505462D01*
X1243750Y1500837D02*
Y1505462D01*
X1243800Y1500837D02*
Y1505462D01*
X1243850Y1500837D02*
Y1505462D01*
X1243900Y1500837D02*
Y1505462D01*
X1243950Y1500837D02*
Y1505462D01*
X1244000Y1500837D02*
Y1505462D01*
X1244050Y1500837D02*
Y1505462D01*
X1244100Y1500837D02*
Y1505462D01*
X1244150Y1500837D02*
Y1505462D01*
X1244200Y1500837D02*
Y1505462D01*
X1244250Y1500837D02*
Y1505462D01*
X1244300Y1500837D02*
Y1505462D01*
X1244350Y1500837D02*
Y1505462D01*
X1244400Y1500837D02*
Y1505462D01*
X1244450Y1500837D02*
Y1505462D01*
X1244500Y1500837D02*
Y1505462D01*
X1244550Y1500837D02*
Y1505462D01*
X1244600Y1500837D02*
Y1505462D01*
X1244650Y1500837D02*
Y1505462D01*
X1244700Y1500837D02*
Y1505462D01*
X1244750Y1500837D02*
Y1505462D01*
X1244800Y1500837D02*
Y1505462D01*
X1244850Y1500837D02*
Y1505462D01*
X1244900Y1500837D02*
Y1505462D01*
X1244950Y1500837D02*
Y1505462D01*
X1245000Y1500837D02*
Y1505462D01*
X1245050Y1500837D02*
Y1505462D01*
X1245100Y1500837D02*
Y1505462D01*
X1245150Y1500837D02*
Y1505462D01*
X1245200Y1500837D02*
Y1505462D01*
X1245250Y1500837D02*
Y1505462D01*
X1245300Y1500837D02*
Y1505462D01*
X1245350Y1500837D02*
Y1505462D01*
X1245400Y1500837D02*
Y1505462D01*
X1245450Y1500837D02*
Y1505462D01*
X1245500Y1500837D02*
Y1505462D01*
X1245550Y1500837D02*
Y1505462D01*
X1245600Y1500837D02*
Y1505462D01*
X1245650Y1500837D02*
Y1505462D01*
X1245700Y1500837D02*
Y1505462D01*
X1245750Y1500837D02*
Y1505462D01*
X1245800Y1500837D02*
Y1505462D01*
X1245850Y1500837D02*
Y1505462D01*
X1245900Y1500837D02*
Y1505462D01*
X1245950Y1500837D02*
Y1505462D01*
X1246000Y1500837D02*
Y1505462D01*
X1246050Y1500837D02*
Y1505462D01*
X1246100Y1500837D02*
Y1505462D01*
X1246150Y1500837D02*
Y1505462D01*
X1246200Y1500837D02*
Y1505462D01*
X1246250Y1500837D02*
Y1505462D01*
X1246269Y1494538D02*
Y1499556D01*
X1241644*
Y1494538*
X1246269*
X1241650D02*
Y1499556D01*
X1241700Y1494538D02*
Y1499556D01*
X1241750Y1494538D02*
Y1499556D01*
X1241800Y1494538D02*
Y1499556D01*
X1241850Y1494538D02*
Y1499556D01*
X1241900Y1494538D02*
Y1499556D01*
X1241950Y1494538D02*
Y1499556D01*
X1242000Y1494538D02*
Y1499556D01*
X1242050Y1494538D02*
Y1499556D01*
X1242100Y1494538D02*
Y1499556D01*
X1242150Y1494538D02*
Y1499556D01*
X1242200Y1494538D02*
Y1499556D01*
X1242250Y1494538D02*
Y1499556D01*
X1242300Y1494538D02*
Y1499556D01*
X1242350Y1494538D02*
Y1499556D01*
X1242400Y1494538D02*
Y1499556D01*
X1242450Y1494538D02*
Y1499556D01*
X1242500Y1494538D02*
Y1499556D01*
X1242550Y1494538D02*
Y1499556D01*
X1242600Y1494538D02*
Y1499556D01*
X1242650Y1494538D02*
Y1499556D01*
X1242700Y1494538D02*
Y1499556D01*
X1242750Y1494538D02*
Y1499556D01*
X1242800Y1494538D02*
Y1499556D01*
X1242850Y1494538D02*
Y1499556D01*
X1242900Y1494538D02*
Y1499556D01*
X1242950Y1494538D02*
Y1499556D01*
X1243000Y1494538D02*
Y1499556D01*
X1243050Y1494538D02*
Y1499556D01*
X1243100Y1494538D02*
Y1499556D01*
X1243150Y1494538D02*
Y1499556D01*
X1243200Y1494538D02*
Y1499556D01*
X1243250Y1494538D02*
Y1499556D01*
X1243300Y1494538D02*
Y1499556D01*
X1243350Y1494538D02*
Y1499556D01*
X1243400Y1494538D02*
Y1499556D01*
X1243450Y1494538D02*
Y1499556D01*
X1243500Y1494538D02*
Y1499556D01*
X1243550Y1494538D02*
Y1499556D01*
X1243600Y1494538D02*
Y1499556D01*
X1243650Y1494538D02*
Y1499556D01*
X1243700Y1494538D02*
Y1499556D01*
X1243750Y1494538D02*
Y1499556D01*
X1243800Y1494538D02*
Y1499556D01*
X1243850Y1494538D02*
Y1499556D01*
X1243900Y1494538D02*
Y1499556D01*
X1243950Y1494538D02*
Y1499556D01*
X1244000Y1494538D02*
Y1499556D01*
X1244050Y1494538D02*
Y1499556D01*
X1244100Y1494538D02*
Y1499556D01*
X1244150Y1494538D02*
Y1499556D01*
X1244200Y1494538D02*
Y1499556D01*
X1244250Y1494538D02*
Y1499556D01*
X1244300Y1494538D02*
Y1499556D01*
X1244350Y1494538D02*
Y1499556D01*
X1244400Y1494538D02*
Y1499556D01*
X1244450Y1494538D02*
Y1499556D01*
X1244500Y1494538D02*
Y1499556D01*
X1244550Y1494538D02*
Y1499556D01*
X1244600Y1494538D02*
Y1499556D01*
X1244650Y1494538D02*
Y1499556D01*
X1244700Y1494538D02*
Y1499556D01*
X1244750Y1494538D02*
Y1499556D01*
X1244800Y1494538D02*
Y1499556D01*
X1244850Y1494538D02*
Y1499556D01*
X1244900Y1494538D02*
Y1499556D01*
X1244950Y1494538D02*
Y1499556D01*
X1245000Y1494538D02*
Y1499556D01*
X1245050Y1494538D02*
Y1499556D01*
X1245100Y1494538D02*
Y1499556D01*
X1245150Y1494538D02*
Y1499556D01*
X1245200Y1494538D02*
Y1499556D01*
X1245250Y1494538D02*
Y1499556D01*
X1245300Y1494538D02*
Y1499556D01*
X1245350Y1494538D02*
Y1499556D01*
X1245400Y1494538D02*
Y1499556D01*
X1245450Y1494538D02*
Y1499556D01*
X1245500Y1494538D02*
Y1499556D01*
X1245550Y1494538D02*
Y1499556D01*
X1245600Y1494538D02*
Y1499556D01*
X1245650Y1494538D02*
Y1499556D01*
X1245700Y1494538D02*
Y1499556D01*
X1245750Y1494538D02*
Y1499556D01*
X1245800Y1494538D02*
Y1499556D01*
X1245850Y1494538D02*
Y1499556D01*
X1245900Y1494538D02*
Y1499556D01*
X1245950Y1494538D02*
Y1499556D01*
X1246000Y1494538D02*
Y1499556D01*
X1246050Y1494538D02*
Y1499556D01*
X1246100Y1494538D02*
Y1499556D01*
X1246150Y1494538D02*
Y1499556D01*
X1246200Y1494538D02*
Y1499556D01*
X1246250Y1494538D02*
Y1499556D01*
X1210462Y1500837D02*
Y1505462D01*
X1205050*
Y1500837*
X1210462*
X1205050D02*
Y1505462D01*
X1205100Y1500837D02*
Y1505462D01*
X1205150Y1500837D02*
Y1505462D01*
X1205200Y1500837D02*
Y1505462D01*
X1205250Y1500837D02*
Y1505462D01*
X1205300Y1500837D02*
Y1505462D01*
X1205350Y1500837D02*
Y1505462D01*
X1205400Y1500837D02*
Y1505462D01*
X1205450Y1500837D02*
Y1505462D01*
X1205500Y1500837D02*
Y1505462D01*
X1205550Y1500837D02*
Y1505462D01*
X1205600Y1500837D02*
Y1505462D01*
X1205650Y1500837D02*
Y1505462D01*
X1205700Y1500837D02*
Y1505462D01*
X1205750Y1500837D02*
Y1505462D01*
X1205800Y1500837D02*
Y1505462D01*
X1205850Y1500837D02*
Y1505462D01*
X1205900Y1500837D02*
Y1505462D01*
X1205950Y1500837D02*
Y1505462D01*
X1206000Y1500837D02*
Y1505462D01*
X1206050Y1500837D02*
Y1505462D01*
X1206100Y1500837D02*
Y1505462D01*
X1206150Y1500837D02*
Y1505462D01*
X1206200Y1500837D02*
Y1505462D01*
X1206250Y1500837D02*
Y1505462D01*
X1206300Y1500837D02*
Y1505462D01*
X1206350Y1500837D02*
Y1505462D01*
X1206400Y1500837D02*
Y1505462D01*
X1206450Y1500837D02*
Y1505462D01*
X1206500Y1500837D02*
Y1505462D01*
X1206550Y1500837D02*
Y1505462D01*
X1206600Y1500837D02*
Y1505462D01*
X1206650Y1500837D02*
Y1505462D01*
X1206700Y1500837D02*
Y1505462D01*
X1206750Y1500837D02*
Y1505462D01*
X1206800Y1500837D02*
Y1505462D01*
X1206850Y1500837D02*
Y1505462D01*
X1206900Y1500837D02*
Y1505462D01*
X1206950Y1500837D02*
Y1505462D01*
X1207000Y1500837D02*
Y1505462D01*
X1207050Y1500837D02*
Y1505462D01*
X1207100Y1500837D02*
Y1505462D01*
X1207150Y1500837D02*
Y1505462D01*
X1207200Y1500837D02*
Y1505462D01*
X1207250Y1500837D02*
Y1505462D01*
X1207300Y1500837D02*
Y1505462D01*
X1207350Y1500837D02*
Y1505462D01*
X1207400Y1500837D02*
Y1505462D01*
X1207450Y1500837D02*
Y1505462D01*
X1207500Y1500837D02*
Y1505462D01*
X1207550Y1500837D02*
Y1505462D01*
X1207600Y1500837D02*
Y1505462D01*
X1207650Y1500837D02*
Y1505462D01*
X1207700Y1500837D02*
Y1505462D01*
X1207750Y1500837D02*
Y1505462D01*
X1207800Y1500837D02*
Y1505462D01*
X1207850Y1500837D02*
Y1505462D01*
X1207900Y1500837D02*
Y1505462D01*
X1207950Y1500837D02*
Y1505462D01*
X1208000Y1500837D02*
Y1505462D01*
X1208050Y1500837D02*
Y1505462D01*
X1208100Y1500837D02*
Y1505462D01*
X1208150Y1500837D02*
Y1505462D01*
X1208200Y1500837D02*
Y1505462D01*
X1208250Y1500837D02*
Y1505462D01*
X1208300Y1500837D02*
Y1505462D01*
X1208350Y1500837D02*
Y1505462D01*
X1208400Y1500837D02*
Y1505462D01*
X1208450Y1500837D02*
Y1505462D01*
X1208500Y1500837D02*
Y1505462D01*
X1208550Y1500837D02*
Y1505462D01*
X1208600Y1500837D02*
Y1505462D01*
X1208650Y1500837D02*
Y1505462D01*
X1208700Y1500837D02*
Y1505462D01*
X1208750Y1500837D02*
Y1505462D01*
X1208800Y1500837D02*
Y1505462D01*
X1208850Y1500837D02*
Y1505462D01*
X1208900Y1500837D02*
Y1505462D01*
X1208950Y1500837D02*
Y1505462D01*
X1209000Y1500837D02*
Y1505462D01*
X1209050Y1500837D02*
Y1505462D01*
X1209100Y1500837D02*
Y1505462D01*
X1209150Y1500837D02*
Y1505462D01*
X1209200Y1500837D02*
Y1505462D01*
X1209250Y1500837D02*
Y1505462D01*
X1209300Y1500837D02*
Y1505462D01*
X1209350Y1500837D02*
Y1505462D01*
X1209400Y1500837D02*
Y1505462D01*
X1209450Y1500837D02*
Y1505462D01*
X1209500Y1500837D02*
Y1505462D01*
X1209550Y1500837D02*
Y1505462D01*
X1209600Y1500837D02*
Y1505462D01*
X1209650Y1500837D02*
Y1505462D01*
X1209700Y1500837D02*
Y1505462D01*
X1209750Y1500837D02*
Y1505462D01*
X1209800Y1500837D02*
Y1505462D01*
X1209850Y1500837D02*
Y1505462D01*
X1209900Y1500837D02*
Y1505462D01*
X1209950Y1500837D02*
Y1505462D01*
X1210000Y1500837D02*
Y1505462D01*
X1210050Y1500837D02*
Y1505462D01*
X1210100Y1500837D02*
Y1505462D01*
X1210150Y1500837D02*
Y1505462D01*
X1210200Y1500837D02*
Y1505462D01*
X1210250Y1500837D02*
Y1505462D01*
X1210300Y1500837D02*
Y1505462D01*
X1210350Y1500837D02*
Y1505462D01*
X1210400Y1500837D02*
Y1505462D01*
X1210450Y1500837D02*
Y1505462D01*
X1210462Y1494538D02*
Y1499556D01*
X1205050*
Y1494538*
X1210462*
X1205050D02*
Y1499556D01*
X1205100Y1494538D02*
Y1499556D01*
X1205150Y1494538D02*
Y1499556D01*
X1205200Y1494538D02*
Y1499556D01*
X1205250Y1494538D02*
Y1499556D01*
X1205300Y1494538D02*
Y1499556D01*
X1205350Y1494538D02*
Y1499556D01*
X1205400Y1494538D02*
Y1499556D01*
X1205450Y1494538D02*
Y1499556D01*
X1205500Y1494538D02*
Y1499556D01*
X1205550Y1494538D02*
Y1499556D01*
X1205600Y1494538D02*
Y1499556D01*
X1205650Y1494538D02*
Y1499556D01*
X1205700Y1494538D02*
Y1499556D01*
X1205750Y1494538D02*
Y1499556D01*
X1205800Y1494538D02*
Y1499556D01*
X1205850Y1494538D02*
Y1499556D01*
X1205900Y1494538D02*
Y1499556D01*
X1205950Y1494538D02*
Y1499556D01*
X1206000Y1494538D02*
Y1499556D01*
X1206050Y1494538D02*
Y1499556D01*
X1206100Y1494538D02*
Y1499556D01*
X1206150Y1494538D02*
Y1499556D01*
X1206200Y1494538D02*
Y1499556D01*
X1206250Y1494538D02*
Y1499556D01*
X1206300Y1494538D02*
Y1499556D01*
X1206350Y1494538D02*
Y1499556D01*
X1206400Y1494538D02*
Y1499556D01*
X1206450Y1494538D02*
Y1499556D01*
X1206500Y1494538D02*
Y1499556D01*
X1206550Y1494538D02*
Y1499556D01*
X1206600Y1494538D02*
Y1499556D01*
X1206650Y1494538D02*
Y1499556D01*
X1206700Y1494538D02*
Y1499556D01*
X1206750Y1494538D02*
Y1499556D01*
X1206800Y1494538D02*
Y1499556D01*
X1206850Y1494538D02*
Y1499556D01*
X1206900Y1494538D02*
Y1499556D01*
X1206950Y1494538D02*
Y1499556D01*
X1207000Y1494538D02*
Y1499556D01*
X1207050Y1494538D02*
Y1499556D01*
X1207100Y1494538D02*
Y1499556D01*
X1207150Y1494538D02*
Y1499556D01*
X1207200Y1494538D02*
Y1499556D01*
X1207250Y1494538D02*
Y1499556D01*
X1207300Y1494538D02*
Y1499556D01*
X1207350Y1494538D02*
Y1499556D01*
X1207400Y1494538D02*
Y1499556D01*
X1207450Y1494538D02*
Y1499556D01*
X1207500Y1494538D02*
Y1499556D01*
X1207550Y1494538D02*
Y1499556D01*
X1207600Y1494538D02*
Y1499556D01*
X1207650Y1494538D02*
Y1499556D01*
X1207700Y1494538D02*
Y1499556D01*
X1207750Y1494538D02*
Y1499556D01*
X1207800Y1494538D02*
Y1499556D01*
X1207850Y1494538D02*
Y1499556D01*
X1207900Y1494538D02*
Y1499556D01*
X1207950Y1494538D02*
Y1499556D01*
X1208000Y1494538D02*
Y1499556D01*
X1208050Y1494538D02*
Y1499556D01*
X1208100Y1494538D02*
Y1499556D01*
X1208150Y1494538D02*
Y1499556D01*
X1208200Y1494538D02*
Y1499556D01*
X1208250Y1494538D02*
Y1499556D01*
X1208300Y1494538D02*
Y1499556D01*
X1208350Y1494538D02*
Y1499556D01*
X1208400Y1494538D02*
Y1499556D01*
X1208450Y1494538D02*
Y1499556D01*
X1208500Y1494538D02*
Y1499556D01*
X1208550Y1494538D02*
Y1499556D01*
X1208600Y1494538D02*
Y1499556D01*
X1208650Y1494538D02*
Y1499556D01*
X1208700Y1494538D02*
Y1499556D01*
X1208750Y1494538D02*
Y1499556D01*
X1208800Y1494538D02*
Y1499556D01*
X1208850Y1494538D02*
Y1499556D01*
X1208900Y1494538D02*
Y1499556D01*
X1208950Y1494538D02*
Y1499556D01*
X1209000Y1494538D02*
Y1499556D01*
X1209050Y1494538D02*
Y1499556D01*
X1209100Y1494538D02*
Y1499556D01*
X1209150Y1494538D02*
Y1499556D01*
X1209200Y1494538D02*
Y1499556D01*
X1209250Y1494538D02*
Y1499556D01*
X1209300Y1494538D02*
Y1499556D01*
X1209350Y1494538D02*
Y1499556D01*
X1209400Y1494538D02*
Y1499556D01*
X1209450Y1494538D02*
Y1499556D01*
X1209500Y1494538D02*
Y1499556D01*
X1209550Y1494538D02*
Y1499556D01*
X1209600Y1494538D02*
Y1499556D01*
X1209650Y1494538D02*
Y1499556D01*
X1209700Y1494538D02*
Y1499556D01*
X1209750Y1494538D02*
Y1499556D01*
X1209800Y1494538D02*
Y1499556D01*
X1209850Y1494538D02*
Y1499556D01*
X1209900Y1494538D02*
Y1499556D01*
X1209950Y1494538D02*
Y1499556D01*
X1210000Y1494538D02*
Y1499556D01*
X1210050Y1494538D02*
Y1499556D01*
X1210100Y1494538D02*
Y1499556D01*
X1210150Y1494538D02*
Y1499556D01*
X1210200Y1494538D02*
Y1499556D01*
X1210250Y1494538D02*
Y1499556D01*
X1210300Y1494538D02*
Y1499556D01*
X1210350Y1494538D02*
Y1499556D01*
X1210400Y1494538D02*
Y1499556D01*
X1210450Y1494538D02*
Y1499556D01*
X1203769Y1500837D02*
Y1505462D01*
X1199144*
Y1500837*
X1203769*
X1199150D02*
Y1505462D01*
X1199200Y1500837D02*
Y1505462D01*
X1199250Y1500837D02*
Y1505462D01*
X1199300Y1500837D02*
Y1505462D01*
X1199350Y1500837D02*
Y1505462D01*
X1199400Y1500837D02*
Y1505462D01*
X1199450Y1500837D02*
Y1505462D01*
X1199500Y1500837D02*
Y1505462D01*
X1199550Y1500837D02*
Y1505462D01*
X1199600Y1500837D02*
Y1505462D01*
X1199650Y1500837D02*
Y1505462D01*
X1199700Y1500837D02*
Y1505462D01*
X1199750Y1500837D02*
Y1505462D01*
X1199800Y1500837D02*
Y1505462D01*
X1199850Y1500837D02*
Y1505462D01*
X1199900Y1500837D02*
Y1505462D01*
X1199950Y1500837D02*
Y1505462D01*
X1200000Y1500837D02*
Y1505462D01*
X1200050Y1500837D02*
Y1505462D01*
X1200100Y1500837D02*
Y1505462D01*
X1200150Y1500837D02*
Y1505462D01*
X1200200Y1500837D02*
Y1505462D01*
X1200250Y1500837D02*
Y1505462D01*
X1200300Y1500837D02*
Y1505462D01*
X1200350Y1500837D02*
Y1505462D01*
X1200400Y1500837D02*
Y1505462D01*
X1200450Y1500837D02*
Y1505462D01*
X1200500Y1500837D02*
Y1505462D01*
X1200550Y1500837D02*
Y1505462D01*
X1200600Y1500837D02*
Y1505462D01*
X1200650Y1500837D02*
Y1505462D01*
X1200700Y1500837D02*
Y1505462D01*
X1200750Y1500837D02*
Y1505462D01*
X1200800Y1500837D02*
Y1505462D01*
X1200850Y1500837D02*
Y1505462D01*
X1200900Y1500837D02*
Y1505462D01*
X1200950Y1500837D02*
Y1505462D01*
X1201000Y1500837D02*
Y1505462D01*
X1201050Y1500837D02*
Y1505462D01*
X1201100Y1500837D02*
Y1505462D01*
X1201150Y1500837D02*
Y1505462D01*
X1201200Y1500837D02*
Y1505462D01*
X1201250Y1500837D02*
Y1505462D01*
X1201300Y1500837D02*
Y1505462D01*
X1201350Y1500837D02*
Y1505462D01*
X1201400Y1500837D02*
Y1505462D01*
X1201450Y1500837D02*
Y1505462D01*
X1201500Y1500837D02*
Y1505462D01*
X1201550Y1500837D02*
Y1505462D01*
X1201600Y1500837D02*
Y1505462D01*
X1201650Y1500837D02*
Y1505462D01*
X1201700Y1500837D02*
Y1505462D01*
X1201750Y1500837D02*
Y1505462D01*
X1201800Y1500837D02*
Y1505462D01*
X1201850Y1500837D02*
Y1505462D01*
X1201900Y1500837D02*
Y1505462D01*
X1201950Y1500837D02*
Y1505462D01*
X1202000Y1500837D02*
Y1505462D01*
X1202050Y1500837D02*
Y1505462D01*
X1202100Y1500837D02*
Y1505462D01*
X1202150Y1500837D02*
Y1505462D01*
X1202200Y1500837D02*
Y1505462D01*
X1202250Y1500837D02*
Y1505462D01*
X1202300Y1500837D02*
Y1505462D01*
X1202350Y1500837D02*
Y1505462D01*
X1202400Y1500837D02*
Y1505462D01*
X1202450Y1500837D02*
Y1505462D01*
X1202500Y1500837D02*
Y1505462D01*
X1202550Y1500837D02*
Y1505462D01*
X1202600Y1500837D02*
Y1505462D01*
X1202650Y1500837D02*
Y1505462D01*
X1202700Y1500837D02*
Y1505462D01*
X1202750Y1500837D02*
Y1505462D01*
X1202800Y1500837D02*
Y1505462D01*
X1202850Y1500837D02*
Y1505462D01*
X1202900Y1500837D02*
Y1505462D01*
X1202950Y1500837D02*
Y1505462D01*
X1203000Y1500837D02*
Y1505462D01*
X1203050Y1500837D02*
Y1505462D01*
X1203100Y1500837D02*
Y1505462D01*
X1203150Y1500837D02*
Y1505462D01*
X1203200Y1500837D02*
Y1505462D01*
X1203250Y1500837D02*
Y1505462D01*
X1203300Y1500837D02*
Y1505462D01*
X1203350Y1500837D02*
Y1505462D01*
X1203400Y1500837D02*
Y1505462D01*
X1203450Y1500837D02*
Y1505462D01*
X1203500Y1500837D02*
Y1505462D01*
X1203550Y1500837D02*
Y1505462D01*
X1203600Y1500837D02*
Y1505462D01*
X1203650Y1500837D02*
Y1505462D01*
X1203700Y1500837D02*
Y1505462D01*
X1203750Y1500837D02*
Y1505462D01*
X1203769Y1494538D02*
Y1499556D01*
X1199144*
Y1494538*
X1203769*
X1199150D02*
Y1499556D01*
X1199200Y1494538D02*
Y1499556D01*
X1199250Y1494538D02*
Y1499556D01*
X1199300Y1494538D02*
Y1499556D01*
X1199350Y1494538D02*
Y1499556D01*
X1199400Y1494538D02*
Y1499556D01*
X1199450Y1494538D02*
Y1499556D01*
X1199500Y1494538D02*
Y1499556D01*
X1199550Y1494538D02*
Y1499556D01*
X1199600Y1494538D02*
Y1499556D01*
X1199650Y1494538D02*
Y1499556D01*
X1199700Y1494538D02*
Y1499556D01*
X1199750Y1494538D02*
Y1499556D01*
X1199800Y1494538D02*
Y1499556D01*
X1199850Y1494538D02*
Y1499556D01*
X1199900Y1494538D02*
Y1499556D01*
X1199950Y1494538D02*
Y1499556D01*
X1200000Y1494538D02*
Y1499556D01*
X1200050Y1494538D02*
Y1499556D01*
X1200100Y1494538D02*
Y1499556D01*
X1200150Y1494538D02*
Y1499556D01*
X1200200Y1494538D02*
Y1499556D01*
X1200250Y1494538D02*
Y1499556D01*
X1200300Y1494538D02*
Y1499556D01*
X1200350Y1494538D02*
Y1499556D01*
X1200400Y1494538D02*
Y1499556D01*
X1200450Y1494538D02*
Y1499556D01*
X1200500Y1494538D02*
Y1499556D01*
X1200550Y1494538D02*
Y1499556D01*
X1200600Y1494538D02*
Y1499556D01*
X1200650Y1494538D02*
Y1499556D01*
X1200700Y1494538D02*
Y1499556D01*
X1200750Y1494538D02*
Y1499556D01*
X1200800Y1494538D02*
Y1499556D01*
X1200850Y1494538D02*
Y1499556D01*
X1200900Y1494538D02*
Y1499556D01*
X1200950Y1494538D02*
Y1499556D01*
X1201000Y1494538D02*
Y1499556D01*
X1201050Y1494538D02*
Y1499556D01*
X1201100Y1494538D02*
Y1499556D01*
X1201150Y1494538D02*
Y1499556D01*
X1201200Y1494538D02*
Y1499556D01*
X1201250Y1494538D02*
Y1499556D01*
X1201300Y1494538D02*
Y1499556D01*
X1201350Y1494538D02*
Y1499556D01*
X1201400Y1494538D02*
Y1499556D01*
X1201450Y1494538D02*
Y1499556D01*
X1201500Y1494538D02*
Y1499556D01*
X1201550Y1494538D02*
Y1499556D01*
X1201600Y1494538D02*
Y1499556D01*
X1201650Y1494538D02*
Y1499556D01*
X1201700Y1494538D02*
Y1499556D01*
X1201750Y1494538D02*
Y1499556D01*
X1201800Y1494538D02*
Y1499556D01*
X1201850Y1494538D02*
Y1499556D01*
X1201900Y1494538D02*
Y1499556D01*
X1201950Y1494538D02*
Y1499556D01*
X1202000Y1494538D02*
Y1499556D01*
X1202050Y1494538D02*
Y1499556D01*
X1202100Y1494538D02*
Y1499556D01*
X1202150Y1494538D02*
Y1499556D01*
X1202200Y1494538D02*
Y1499556D01*
X1202250Y1494538D02*
Y1499556D01*
X1202300Y1494538D02*
Y1499556D01*
X1202350Y1494538D02*
Y1499556D01*
X1202400Y1494538D02*
Y1499556D01*
X1202450Y1494538D02*
Y1499556D01*
X1202500Y1494538D02*
Y1499556D01*
X1202550Y1494538D02*
Y1499556D01*
X1202600Y1494538D02*
Y1499556D01*
X1202650Y1494538D02*
Y1499556D01*
X1202700Y1494538D02*
Y1499556D01*
X1202750Y1494538D02*
Y1499556D01*
X1202800Y1494538D02*
Y1499556D01*
X1202850Y1494538D02*
Y1499556D01*
X1202900Y1494538D02*
Y1499556D01*
X1202950Y1494538D02*
Y1499556D01*
X1203000Y1494538D02*
Y1499556D01*
X1203050Y1494538D02*
Y1499556D01*
X1203100Y1494538D02*
Y1499556D01*
X1203150Y1494538D02*
Y1499556D01*
X1203200Y1494538D02*
Y1499556D01*
X1203250Y1494538D02*
Y1499556D01*
X1203300Y1494538D02*
Y1499556D01*
X1203350Y1494538D02*
Y1499556D01*
X1203400Y1494538D02*
Y1499556D01*
X1203450Y1494538D02*
Y1499556D01*
X1203500Y1494538D02*
Y1499556D01*
X1203550Y1494538D02*
Y1499556D01*
X1203600Y1494538D02*
Y1499556D01*
X1203650Y1494538D02*
Y1499556D01*
X1203700Y1494538D02*
Y1499556D01*
X1203750Y1494538D02*
Y1499556D01*
X1041339Y1000000D02*
X1460630D01*
Y1062992*
X1500000*
Y1595000*
X1495000Y1600000*
X1019685*
X1000000Y1580315*
Y1363779*
X1041339Y1000000*
G54D11*
X1260827Y1134035D03*
X1258858D03*
X1256890D03*
X1254921D03*
X1252953D03*
X1250984D03*
X1249016D03*
X1247047D03*
X1245079D03*
X1243110D03*
X1241142D03*
X1239173D03*
Y1100965D03*
X1241142D03*
X1243110D03*
X1245079D03*
X1247047D03*
X1249016D03*
X1250984D03*
X1252953D03*
X1254921D03*
X1256890D03*
X1258858D03*
X1260827D03*
G54D12*
X1233465Y1128327D03*
Y1126358D03*
Y1124390D03*
Y1122421D03*
Y1120453D03*
Y1118484D03*
Y1116516D03*
Y1114547D03*
Y1112579D03*
Y1110610D03*
Y1108642D03*
Y1106673D03*
X1266535D03*
Y1108642D03*
Y1110610D03*
Y1112579D03*
Y1114547D03*
Y1116516D03*
Y1118484D03*
Y1120453D03*
Y1122421D03*
Y1124390D03*
Y1126358D03*
Y1128327D03*
G54D13*
X1287500Y1362500D03*
X1142000Y1071000D03*
X1142500Y1062500D03*
X1124549Y1147171D03*
G54D14*
X1282953Y1117500D03*
X1277047D03*
X1331953Y1122000D03*
X1326047D03*
X1095453Y1462500D03*
X1089547D03*
X1077047D03*
X1082953D03*
X1147953Y1463000D03*
X1142047D03*
X1129547D03*
X1135453D03*
X1202953Y1462500D03*
X1197047D03*
X1184547D03*
X1190453D03*
X1262953D03*
X1257047D03*
X1244547D03*
X1250453D03*
X1082953Y1052500D03*
X1077047D03*
X1094547Y1090000D03*
X1100453D03*
X1064547Y1052500D03*
X1070453D03*
X1373047Y1150000D03*
X1378953D03*
X1386047D03*
X1391953D03*
X1387047Y1122500D03*
X1392953D03*
X1387547Y1178000D03*
X1393453D03*
X1404547Y1064000D03*
X1410453D03*
X1407047Y1036000D03*
X1412953D03*
X1387547Y1095000D03*
X1393453D03*
X1053547Y1431500D03*
X1059453D03*
X1277047Y1125000D03*
X1282953D03*
X1127047Y1110000D03*
X1132953D03*
X1165453Y1445000D03*
X1159547D03*
X1165453Y1437500D03*
X1159547D03*
X1220453Y1442500D03*
X1214547D03*
X1220453Y1435500D03*
X1214547D03*
X1277953Y1445000D03*
X1272047D03*
X1277953Y1437500D03*
X1272047D03*
X1057047Y1557500D03*
X1062953D03*
X1187453Y1208500D03*
X1181547D03*
X1231547Y1209500D03*
X1237453D03*
X1254953Y1208500D03*
X1249047D03*
X1320547Y1209000D03*
X1326453D03*
X1300047Y1208500D03*
X1305953D03*
X1219047Y1220000D03*
X1224953D03*
X1111953Y1452000D03*
X1106047D03*
X1160047Y1453000D03*
X1165953D03*
X1219953Y1451000D03*
X1214047D03*
X1272047Y1454000D03*
X1277953D03*
X1326047Y1129000D03*
X1331953D03*
X1057953Y1585000D03*
X1052047D03*
X1053047Y1438500D03*
X1058953D03*
X1299953Y1393500D03*
X1294047D03*
X1277047Y1142500D03*
X1282953D03*
Y1136000D03*
X1277047D03*
Y1150500D03*
X1282953D03*
Y1157500D03*
X1277047D03*
X1037953Y1335000D03*
X1032047D03*
X1046047D03*
X1051953D03*
X1421953Y1249000D03*
X1416047D03*
X1421953Y1241500D03*
X1416047D03*
X1421953Y1256500D03*
X1416047D03*
X1421953Y1264000D03*
X1416047D03*
X1407953Y1249000D03*
X1402047D03*
X1407953Y1256500D03*
X1402047D03*
X1407953Y1241500D03*
X1402047D03*
X1407953Y1264000D03*
X1402047D03*
X1419453Y1299500D03*
X1413547D03*
X1400953Y1281000D03*
X1395047D03*
Y1273500D03*
X1400953D03*
G54D15*
X1280000Y1109512D03*
Y1098488D03*
X1212500Y1330512D03*
Y1319488D03*
X1374000Y1331012D03*
Y1319988D03*
X1295000Y1331012D03*
Y1319988D03*
G54D16*
X1342264Y1157500D03*
Y1152500D03*
Y1147500D03*
Y1142500D03*
Y1137500D03*
Y1132500D03*
Y1127500D03*
Y1122500D03*
X1362736D03*
Y1127500D03*
Y1132500D03*
Y1137500D03*
Y1142500D03*
Y1147500D03*
Y1152500D03*
Y1157500D03*
X1342333Y1115000D03*
Y1110000D03*
Y1105000D03*
Y1100000D03*
X1362667D03*
Y1105000D03*
Y1110000D03*
Y1115000D03*
X1299833Y1110000D03*
Y1105000D03*
Y1100000D03*
Y1095000D03*
X1320167D03*
Y1100000D03*
Y1105000D03*
Y1110000D03*
X1420167Y1015000D03*
Y1020000D03*
Y1025000D03*
Y1030000D03*
X1399833D03*
Y1025000D03*
Y1020000D03*
Y1015000D03*
X1402667Y1073000D03*
Y1078000D03*
Y1083000D03*
Y1088000D03*
X1382333D03*
Y1083000D03*
Y1078000D03*
Y1073000D03*
X1401667Y1128500D03*
Y1133500D03*
Y1138500D03*
Y1143500D03*
X1381333D03*
Y1138500D03*
Y1133500D03*
Y1128500D03*
X1420167Y1042500D03*
Y1047500D03*
Y1052500D03*
Y1057500D03*
X1399833D03*
Y1052500D03*
Y1047500D03*
Y1042500D03*
X1401167Y1156500D03*
Y1161500D03*
Y1166500D03*
Y1171500D03*
X1380833D03*
Y1166500D03*
Y1161500D03*
Y1156500D03*
X1402167Y1101000D03*
Y1106000D03*
Y1111000D03*
Y1116000D03*
X1381833D03*
Y1111000D03*
Y1106000D03*
Y1101000D03*
X1172333Y1330000D03*
Y1325000D03*
Y1320000D03*
Y1315000D03*
X1192667D03*
Y1320000D03*
Y1325000D03*
Y1330000D03*
X1334833Y1332500D03*
Y1327500D03*
Y1322500D03*
Y1317500D03*
X1355167D03*
Y1322500D03*
Y1327500D03*
Y1332500D03*
X1254833D03*
Y1327500D03*
Y1322500D03*
Y1317500D03*
X1275167D03*
Y1322500D03*
Y1327500D03*
Y1332500D03*
X1257667Y1142500D03*
Y1147500D03*
Y1152500D03*
Y1157500D03*
X1237333D03*
Y1152500D03*
Y1147500D03*
Y1142500D03*
G54D17*
X1318327Y1152028D03*
Y1142972D03*
G54D18*
X1296673Y1147500D03*
G54D19*
X1127972Y1096457D03*
X1137028D03*
Y1103543D03*
X1127972D03*
G54D20*
X1135512Y1130000D03*
X1124488D03*
X1300512Y1509000D03*
X1289488D03*
G54D21*
X1080000Y1507953D03*
Y1502047D03*
X1132500Y1510453D03*
Y1504547D03*
X1080000Y1489547D03*
Y1495453D03*
X1132500Y1492047D03*
Y1497953D03*
X1187500Y1510453D03*
Y1504547D03*
X1229500Y1508453D03*
Y1502547D03*
X1187500Y1492047D03*
Y1497953D03*
X1229500Y1490547D03*
Y1496453D03*
X1100000Y1105453D03*
Y1099547D03*
X1372500Y1083547D03*
Y1089453D03*
Y1103953D03*
Y1098047D03*
X1372000Y1161547D03*
Y1167453D03*
X1389500Y1047453D03*
Y1041547D03*
X1390000Y1020047D03*
Y1025953D03*
X1043000Y1347047D03*
Y1352953D03*
X1087500Y1357953D03*
Y1352047D03*
Y1552047D03*
Y1557953D03*
X1120000Y1552047D03*
Y1557953D03*
X1160000Y1557853D03*
Y1551947D03*
X1087500Y1373953D03*
Y1368047D03*
X1100000Y1122953D03*
Y1117047D03*
X1290000Y1105453D03*
Y1099547D03*
X1332500Y1109547D03*
Y1115453D03*
X1164000Y1329953D03*
Y1324047D03*
X1325500Y1332953D03*
Y1327047D03*
X1202500Y1330453D03*
Y1324547D03*
X1365500Y1332453D03*
Y1326547D03*
X1120000Y1475453D03*
Y1469547D03*
X1240000Y1477953D03*
Y1472047D03*
X1232500D03*
Y1477953D03*
X1070000Y1476453D03*
Y1470547D03*
X1063000D03*
Y1476453D03*
X1064000Y1452453D03*
Y1446547D03*
X1127500Y1469547D03*
Y1475453D03*
X1184000Y1472047D03*
Y1477953D03*
X1177000D03*
Y1472047D03*
X1112500Y1437047D03*
Y1442953D03*
X1105000Y1437047D03*
Y1442953D03*
X1142000Y1208547D03*
Y1214453D03*
X1135000Y1208547D03*
Y1214453D03*
X1165500Y1208047D03*
Y1213953D03*
X1231500Y1216047D03*
Y1221953D03*
X1301000Y1215547D03*
Y1221453D03*
X1165000Y1170453D03*
Y1164547D03*
X1187500Y1170453D03*
Y1164547D03*
X1322500Y1170453D03*
Y1164547D03*
X1300000Y1170453D03*
Y1164547D03*
X1277500Y1170453D03*
Y1164547D03*
X1255000Y1170453D03*
Y1164547D03*
X1232500Y1170453D03*
Y1164547D03*
X1210000Y1172453D03*
Y1166547D03*
X1134000Y1170453D03*
Y1164547D03*
X1142500Y1170453D03*
Y1164547D03*
X1372500Y1131953D03*
Y1126047D03*
Y1076953D03*
Y1071047D03*
X1159000Y1227047D03*
Y1232953D03*
X1364000Y1217953D03*
Y1212047D03*
X1287000Y1229953D03*
Y1224047D03*
X1304000Y1320953D03*
Y1315047D03*
X1237000Y1331047D03*
Y1336953D03*
X1390000Y1313953D03*
Y1308047D03*
X1319000Y1327047D03*
Y1332953D03*
X1222000Y1331047D03*
Y1336953D03*
X1155000Y1332047D03*
Y1337953D03*
X1142000Y1332047D03*
Y1337953D03*
X1072000Y1323047D03*
Y1328953D03*
X1304000Y1332953D03*
Y1327047D03*
X1237000Y1318047D03*
Y1323953D03*
X1390000Y1326953D03*
Y1321047D03*
X1319000Y1314047D03*
Y1319953D03*
X1222000Y1318047D03*
Y1323953D03*
X1155000Y1319047D03*
Y1324953D03*
X1142000Y1319047D03*
Y1324953D03*
X1072000Y1310047D03*
Y1315953D03*
X1095000Y1357953D03*
Y1352047D03*
X1094500Y1373953D03*
Y1368047D03*
X1095000Y1552047D03*
Y1557953D03*
X1127500Y1552047D03*
Y1557953D03*
X1152500Y1552047D03*
Y1557953D03*
X1050500Y1347047D03*
Y1352953D03*
X1332500Y1102953D03*
Y1097047D03*
G54D22*
X1330500Y1136760D03*
Y1144240D03*
X1268000Y1142760D03*
Y1150240D03*
X1285000Y1331240D03*
Y1323760D03*
X1245000Y1576240D03*
Y1568760D03*
X1400000Y1348740D03*
Y1341260D03*
X1092500Y1098760D03*
Y1106240D03*
X1080000Y1108740D03*
Y1101260D03*
X1097500Y1073760D03*
Y1081240D03*
X1092500Y1116260D03*
Y1123740D03*
X1054500Y1149740D03*
Y1142260D03*
X1071000Y1498760D03*
Y1506240D03*
X1055000Y1481240D03*
Y1473760D03*
X1049500Y1198760D03*
Y1206240D03*
X1045000Y1176240D03*
Y1168760D03*
X1040000Y1577240D03*
Y1569760D03*
X1030000Y1577240D03*
Y1569760D03*
X1017500Y1577240D03*
Y1569760D03*
X1245000Y1331240D03*
Y1323760D03*
X1161500Y1402240D03*
Y1394760D03*
X1204000Y1349340D03*
Y1341860D03*
X1213600Y1349340D03*
Y1341860D03*
X1049500Y1218760D03*
Y1226240D03*
X1040000Y1218760D03*
Y1226240D03*
X1039500Y1307740D03*
Y1300260D03*
X1052000Y1307740D03*
Y1300260D03*
X1055000Y1463740D03*
Y1456260D03*
G54D23*
X1133740Y1120000D03*
X1126260D03*
X1208760Y1252500D03*
X1216240D03*
Y1242500D03*
X1208760D03*
X1348760Y1240000D03*
X1356240D03*
Y1250000D03*
X1348760D03*
X1281260Y1242500D03*
X1288740D03*
X1288760Y1253000D03*
X1296240D03*
X1306260Y1555000D03*
X1313740D03*
X1288760D03*
X1296240D03*
X1466260Y1420000D03*
X1473740D03*
X1431240Y1395500D03*
X1423760D03*
X1111240Y1480000D03*
X1103760D03*
X1168740D03*
X1161260D03*
Y1470000D03*
X1168740D03*
X1103760D03*
X1111240D03*
X1218240Y1476000D03*
X1210760D03*
X1278740Y1480000D03*
X1271260D03*
Y1470000D03*
X1278740D03*
X1210760Y1467000D03*
X1218240D03*
X1298740Y1479000D03*
X1291260D03*
X1048260Y1398000D03*
X1055740D03*
X1048260Y1389000D03*
X1055740D03*
X1048260Y1407000D03*
X1055740D03*
X1048260Y1371500D03*
X1055740D03*
X1048260Y1380000D03*
X1055740D03*
X1028760Y1410000D03*
X1036240D03*
X1413760Y1232500D03*
X1421240D03*
X1111240Y1400000D03*
X1103760D03*
X1069760Y1387000D03*
X1077240D03*
X1048260Y1363000D03*
X1055740D03*
X1062240Y1506000D03*
X1054760D03*
X1291260Y1470000D03*
X1298740D03*
G54D24*
X1440000Y1036201D03*
Y1018799D03*
X1417500Y1090201D03*
Y1072799D03*
X1440000Y1066201D03*
Y1048799D03*
X1417500Y1150201D03*
Y1132799D03*
Y1120201D03*
Y1102799D03*
Y1180201D03*
Y1162799D03*
G54D25*
X1123169Y1343740D03*
Y1336260D03*
X1131831Y1340000D03*
X1123169Y1326240D03*
Y1318760D03*
X1131831Y1322500D03*
X1079831Y1368260D03*
Y1375740D03*
X1071169Y1372000D03*
X1079831Y1351760D03*
Y1359240D03*
X1071169Y1355500D03*
G54D26*
X1191240Y1304331D03*
X1183760D03*
X1187500Y1295669D03*
X1173740Y1304331D03*
X1166260D03*
X1170000Y1295669D03*
X1338740Y1304331D03*
X1331260D03*
X1335000Y1295669D03*
X1321240Y1304331D03*
X1313760D03*
X1317500Y1295669D03*
X1266240Y1304331D03*
X1258760D03*
X1262500Y1295669D03*
X1246240Y1304331D03*
X1238760D03*
X1242500Y1295669D03*
X1026760Y1345169D03*
X1034240D03*
X1030500Y1353831D03*
X1078740Y1556831D03*
X1071260D03*
X1075000Y1548169D03*
X1111240Y1556831D03*
X1103760D03*
X1107500Y1548169D03*
X1143740Y1556831D03*
X1136260D03*
X1140000Y1548169D03*
X1060240Y1423831D03*
X1052760D03*
X1056500Y1415169D03*
X1058740Y1577831D03*
X1051260D03*
X1055000Y1569169D03*
G54D31*
X1311024Y1495000D03*
G54D32*
X1288976D03*
G54D33*
X1278496Y1554134D03*
X1260504D03*
G54D34*
X1269500Y1525866D03*
G54D35*
X1247500Y1584500D03*
X1157500Y1052500D03*
X1150000D03*
X1142500D03*
G54D36*
X1422067Y1472500D03*
X1402933D03*
X1467933D03*
X1487067D03*
X1435433D03*
X1454567D03*
G54D38*
X1149075Y1453917D03*
X1146516D03*
X1143957D03*
X1141398D03*
X1138839D03*
X1136280D03*
X1133720D03*
X1131161D03*
X1128602D03*
X1126043D03*
X1123484D03*
X1120925D03*
Y1431083D03*
X1123484D03*
X1126043D03*
X1128602D03*
X1131161D03*
X1133720D03*
X1136280D03*
X1138839D03*
X1141398D03*
X1143957D03*
X1146516D03*
X1149075D03*
X1099075Y1453917D03*
X1096516D03*
X1093957D03*
X1091398D03*
X1088839D03*
X1086280D03*
X1083720D03*
X1081161D03*
X1078602D03*
X1076043D03*
X1073484D03*
X1070925D03*
Y1431083D03*
X1073484D03*
X1076043D03*
X1078602D03*
X1081161D03*
X1083720D03*
X1086280D03*
X1088839D03*
X1091398D03*
X1093957D03*
X1096516D03*
X1099075D03*
X1261575Y1453917D03*
X1259016D03*
X1256457D03*
X1253898D03*
X1251339D03*
X1248780D03*
X1246220D03*
X1243661D03*
X1241102D03*
X1238543D03*
X1235984D03*
X1233425D03*
Y1431083D03*
X1235984D03*
X1238543D03*
X1241102D03*
X1243661D03*
X1246220D03*
X1248780D03*
X1251339D03*
X1253898D03*
X1256457D03*
X1259016D03*
X1261575D03*
X1206575Y1453917D03*
X1204016D03*
X1201457D03*
X1198898D03*
X1196339D03*
X1193780D03*
X1191220D03*
X1188661D03*
X1186102D03*
X1183543D03*
X1180984D03*
X1178425D03*
Y1431083D03*
X1180984D03*
X1183543D03*
X1186102D03*
X1188661D03*
X1191220D03*
X1193780D03*
X1196339D03*
X1198898D03*
X1201457D03*
X1204016D03*
X1206575D03*
X1060925Y1061083D03*
X1063484D03*
X1066043D03*
X1068602D03*
X1071161D03*
X1073720D03*
X1076280D03*
X1078839D03*
X1081398D03*
X1083957D03*
X1086516D03*
X1089075D03*
Y1083917D03*
X1086516D03*
X1083957D03*
X1081398D03*
X1078839D03*
X1076280D03*
X1073720D03*
X1071161D03*
X1068602D03*
X1066043D03*
X1063484D03*
X1060925D03*
G54D39*
X1117500Y1519232D03*
X1137500D03*
Y1535768D03*
X1117500D03*
X1067500Y1519232D03*
X1087500D03*
Y1535768D03*
X1067500D03*
X1217500Y1519232D03*
X1237500D03*
Y1535768D03*
X1217500D03*
X1167500Y1519232D03*
X1187500D03*
Y1535768D03*
X1167500D03*
G54D40*
X1155118Y1509252D03*
X1152559D03*
X1150000D03*
X1147441D03*
X1144882D03*
Y1490748D03*
X1147441D03*
X1150000D03*
X1152559D03*
X1155118D03*
X1105118Y1509252D03*
X1102559D03*
X1100000D03*
X1097441D03*
X1094882D03*
Y1490748D03*
X1097441D03*
X1100000D03*
X1102559D03*
X1105118D03*
X1252618Y1509252D03*
X1250059D03*
X1247500D03*
X1244941D03*
X1242382D03*
Y1490748D03*
X1244941D03*
X1247500D03*
X1250059D03*
X1252618D03*
X1210118Y1509252D03*
X1207559D03*
X1205000D03*
X1202441D03*
X1199882D03*
Y1490748D03*
X1202441D03*
X1205000D03*
X1207559D03*
X1210118D03*
G54D41*
X1140748Y1505118D03*
Y1502559D03*
Y1500000D03*
Y1497441D03*
Y1494882D03*
X1159252D03*
Y1497441D03*
Y1500000D03*
Y1502559D03*
Y1505118D03*
X1090748D03*
Y1502559D03*
Y1500000D03*
Y1497441D03*
Y1494882D03*
X1109252D03*
Y1497441D03*
Y1500000D03*
Y1502559D03*
Y1505118D03*
X1238248D03*
Y1502559D03*
Y1500000D03*
Y1497441D03*
Y1494882D03*
X1256752D03*
Y1497441D03*
Y1500000D03*
Y1502559D03*
Y1505118D03*
X1195748D03*
Y1502559D03*
Y1500000D03*
Y1497441D03*
Y1494882D03*
X1214252D03*
Y1497441D03*
Y1500000D03*
Y1502559D03*
Y1505118D03*
G54D43*
X1119700Y1399833D03*
X1124700D03*
X1129700D03*
X1134700D03*
Y1420167D03*
X1129700D03*
X1124700D03*
X1119700D03*
X1070000Y1399833D03*
X1075000D03*
X1080000D03*
X1085000D03*
Y1420167D03*
X1080000D03*
X1075000D03*
X1070000D03*
X1235000Y1399833D03*
X1240000D03*
X1245000D03*
X1250000D03*
Y1420167D03*
X1245000D03*
X1240000D03*
X1235000D03*
X1172500Y1399833D03*
X1177500D03*
X1182500D03*
X1187500D03*
Y1420167D03*
X1182500D03*
X1177500D03*
X1172500D03*
G54D44*
X1080000Y1123543D03*
Y1116457D03*
G54D47*
X1055500Y1127512D03*
Y1116488D03*
G54D48*
X1133839Y1073661D03*
X1131280D03*
X1128720D03*
X1126161D03*
Y1056339D03*
X1128720D03*
X1131280D03*
X1133839D03*
G54D54*
X1111614Y1383898D03*
Y1359567D03*
X1114764Y1383898D03*
Y1359567D03*
X1117913Y1383898D03*
Y1359567D03*
X1121063Y1383898D03*
Y1359567D03*
X1124213Y1383898D03*
Y1359567D03*
X1127362Y1383898D03*
Y1359567D03*
X1130512Y1383898D03*
Y1359567D03*
X1133661Y1383898D03*
Y1359567D03*
X1136811Y1383898D03*
Y1359567D03*
X1139961Y1383898D03*
Y1359567D03*
X1143110Y1383898D03*
Y1359567D03*
X1146260Y1383898D03*
Y1359567D03*
X1149409Y1383898D03*
Y1359567D03*
X1152559Y1383898D03*
Y1359567D03*
X1155709Y1383898D03*
Y1359567D03*
X1158858Y1383898D03*
Y1359567D03*
X1162008Y1383898D03*
Y1359567D03*
X1165157Y1383898D03*
Y1359567D03*
X1168307Y1383898D03*
Y1359567D03*
X1171457Y1383898D03*
Y1359567D03*
X1190354Y1383898D03*
Y1359567D03*
X1193504Y1383898D03*
Y1359567D03*
X1196654Y1383898D03*
Y1359567D03*
X1199803Y1383898D03*
Y1359567D03*
X1202953Y1383898D03*
Y1359567D03*
X1206102Y1383898D03*
Y1359567D03*
X1209252Y1383898D03*
Y1359567D03*
X1212402Y1383898D03*
Y1359567D03*
X1215551Y1383898D03*
Y1359567D03*
X1218701Y1383898D03*
Y1359567D03*
X1221850Y1383898D03*
Y1359567D03*
X1225000Y1383898D03*
Y1359567D03*
X1228150Y1383898D03*
Y1359567D03*
X1231299Y1383898D03*
Y1359567D03*
X1234449Y1383898D03*
Y1359567D03*
X1237598Y1383898D03*
Y1359567D03*
X1240748Y1383898D03*
Y1359567D03*
X1243898Y1383898D03*
Y1359567D03*
X1247047Y1383898D03*
Y1359567D03*
X1250197Y1383898D03*
Y1359567D03*
X1297756Y1015787D03*
Y1040118D03*
X1294606Y1015787D03*
Y1040118D03*
X1291457Y1015787D03*
Y1040118D03*
X1288307Y1015787D03*
Y1040118D03*
X1285157Y1015787D03*
Y1040118D03*
X1282008Y1015787D03*
Y1040118D03*
X1278858Y1015787D03*
Y1040118D03*
X1275709Y1015787D03*
Y1040118D03*
X1272559Y1015787D03*
Y1040118D03*
X1269409Y1015787D03*
Y1040118D03*
X1266260Y1015787D03*
Y1040118D03*
X1263110Y1015787D03*
Y1040118D03*
X1259961Y1015787D03*
Y1040118D03*
X1256811Y1015787D03*
Y1040118D03*
X1253661Y1015787D03*
Y1040118D03*
X1250512Y1015787D03*
Y1040118D03*
X1247362Y1015787D03*
Y1040118D03*
X1244213Y1015787D03*
Y1040118D03*
X1241063Y1015787D03*
Y1040118D03*
X1237913Y1015787D03*
Y1040118D03*
X1219016Y1015787D03*
Y1040118D03*
X1215866Y1015787D03*
Y1040118D03*
X1212717Y1015787D03*
Y1040118D03*
X1209567Y1015787D03*
Y1040118D03*
X1206417Y1015787D03*
Y1040118D03*
X1203268Y1015787D03*
Y1040118D03*
X1200118Y1015787D03*
Y1040118D03*
X1196969Y1015787D03*
Y1040118D03*
X1193819Y1015787D03*
Y1040118D03*
X1190669Y1015787D03*
Y1040118D03*
X1187520Y1015787D03*
Y1040118D03*
X1184370Y1015787D03*
Y1040118D03*
X1181220Y1015787D03*
Y1040118D03*
X1178071Y1015787D03*
Y1040118D03*
X1174921Y1015787D03*
Y1040118D03*
X1171772Y1015787D03*
Y1040118D03*
X1168622Y1015787D03*
Y1040118D03*
X1165472Y1015787D03*
Y1040118D03*
X1162323Y1015787D03*
Y1040118D03*
X1159173Y1015787D03*
Y1040118D03*
G54D55*
X1108287Y1371732D03*
X1174783D03*
X1187028D03*
X1253524D03*
X1301083Y1027953D03*
X1234587D03*
X1222343D03*
X1155846D03*
G54D56*
X1129035Y1371732D03*
X1154035D03*
X1207776D03*
X1232776D03*
X1280335Y1027953D03*
X1255335D03*
X1201594D03*
X1176594D03*
G54D58*
X1353012Y1085000D03*
X1341988D03*
Y1072500D03*
X1353012D03*
X1316988Y1030000D03*
X1328012D03*
Y1017500D03*
X1316988D03*
X1341988Y1058500D03*
X1353012D03*
Y1045000D03*
X1341988D03*
X1339988Y1030500D03*
X1351012D03*
Y1017500D03*
X1339988D03*
X1378012Y1045000D03*
X1366988D03*
Y1057500D03*
X1378012D03*
X1328012D03*
X1316988D03*
Y1045000D03*
X1328012D03*
Y1072500D03*
X1316988D03*
Y1085000D03*
X1328012D03*
G54D59*
X1281417Y1050866D03*
Y1053425D03*
Y1055984D03*
Y1058543D03*
Y1061102D03*
Y1063661D03*
Y1066220D03*
Y1068780D03*
Y1071339D03*
Y1073898D03*
Y1076457D03*
Y1079016D03*
Y1081575D03*
Y1084134D03*
X1258583D03*
Y1081575D03*
Y1079016D03*
Y1076457D03*
Y1073898D03*
Y1071339D03*
Y1068780D03*
Y1066220D03*
Y1063661D03*
Y1061102D03*
Y1058543D03*
Y1055984D03*
Y1053425D03*
Y1050866D03*
G54D60*
X1215866Y1053583D03*
X1218425D03*
X1220984D03*
X1223543D03*
X1226102D03*
X1228661D03*
X1231220D03*
X1233780D03*
X1236339D03*
X1238898D03*
X1241457D03*
X1244016D03*
X1246575D03*
X1249134D03*
Y1076417D03*
X1246575D03*
X1244016D03*
X1241457D03*
X1238898D03*
X1236339D03*
X1233780D03*
X1231220D03*
X1228661D03*
X1226102D03*
X1223543D03*
X1220984D03*
X1218425D03*
X1215866D03*
G54D61*
X1055441Y1491563D03*
X1058000D03*
X1060559D03*
Y1499437D03*
X1055441D03*
X1040429Y1328567D03*
X1037870D03*
X1035311D03*
Y1320693D03*
X1040429D03*
X1052929Y1328567D03*
X1050370D03*
X1047811D03*
Y1320693D03*
X1052929D03*
G54D63*
X1028937Y1548878D03*
Y1559783D03*
X1044685Y1548878D03*
Y1559783D03*
G54D64*
X1016142Y1548622D03*
Y1560039D03*
G54D67*
X1272500Y1362402D03*
Y1387598D03*
X1127500Y1250098D03*
Y1224902D03*
X1166000Y1257402D03*
Y1282598D03*
X1315000Y1257402D03*
Y1282598D03*
X1242500Y1257402D03*
Y1282598D03*
X1392500Y1230098D03*
Y1204902D03*
G54D69*
X1191850Y1478937D03*
Y1471063D03*
X1198150D03*
Y1478937D03*
X1251850D03*
Y1471063D03*
X1258150D03*
Y1478937D03*
X1135850Y1478437D03*
Y1470563D03*
X1142150D03*
Y1478437D03*
X1081850Y1478937D03*
Y1471063D03*
X1088150D03*
Y1478937D03*
G54D70*
X1083937Y1043150D03*
X1076063D03*
Y1036850D03*
X1083937D03*
G54D71*
X1221500Y1302461D03*
X1203500D03*
X1296500D03*
X1278500D03*
X1369000Y1301461D03*
X1351000D03*
X1141500Y1302461D03*
X1123500D03*
G54D72*
X1212500Y1274114D03*
X1287500D03*
X1360000Y1273114D03*
X1132500Y1274114D03*
G54D73*
X1262500Y1282774D03*
Y1267026D03*
X1147500Y1229626D03*
Y1245374D03*
X1187900Y1282774D03*
Y1267026D03*
X1335000Y1282874D03*
Y1267126D03*
G54D74*
X1135000Y1200730D03*
X1130000D03*
X1125000D03*
X1120000D03*
Y1179270D03*
X1125000D03*
X1130000D03*
X1135000D03*
X1187500D03*
X1192500D03*
X1197500D03*
X1202500D03*
Y1200730D03*
X1197500D03*
X1192500D03*
X1187500D03*
X1322500Y1179270D03*
X1327500D03*
X1332500D03*
X1337500D03*
Y1200730D03*
X1332500D03*
X1327500D03*
X1322500D03*
X1255000Y1179270D03*
X1260000D03*
X1265000D03*
X1270000D03*
Y1200730D03*
X1265000D03*
X1260000D03*
X1255000D03*
X1142500Y1179270D03*
X1147500D03*
X1152500D03*
X1157500D03*
Y1200730D03*
X1152500D03*
X1147500D03*
X1142500D03*
X1210000Y1179270D03*
X1215000D03*
X1220000D03*
X1225000D03*
Y1200730D03*
X1220000D03*
X1215000D03*
X1210000D03*
X1277500Y1179270D03*
X1282500D03*
X1287500D03*
X1292500D03*
Y1200730D03*
X1287500D03*
X1282500D03*
X1277500D03*
X1165000Y1179270D03*
X1170000D03*
X1175000D03*
X1180000D03*
Y1200730D03*
X1175000D03*
X1170000D03*
X1165000D03*
X1300000Y1179270D03*
X1305000D03*
X1310000D03*
X1315000D03*
Y1200730D03*
X1310000D03*
X1305000D03*
X1300000D03*
X1232500Y1179270D03*
X1237500D03*
X1242500D03*
X1247500D03*
Y1200730D03*
X1242500D03*
X1237500D03*
X1232500D03*
X1310000Y1543230D03*
X1305000D03*
X1300000D03*
X1295000D03*
Y1521770D03*
X1300000D03*
X1305000D03*
X1310000D03*
G54D75*
X1168425Y1221035D03*
X1170984D03*
X1173543D03*
X1176102D03*
X1178661D03*
X1181220D03*
X1183780D03*
X1186339D03*
X1188898D03*
X1191457D03*
X1194016D03*
X1196575D03*
Y1243965D03*
X1194016D03*
X1191457D03*
X1188898D03*
X1186339D03*
X1183780D03*
X1181220D03*
X1178661D03*
X1176102D03*
X1173543D03*
X1170984D03*
X1168425D03*
X1308425Y1221035D03*
X1310984D03*
X1313543D03*
X1316102D03*
X1318661D03*
X1321220D03*
X1323780D03*
X1326339D03*
X1328898D03*
X1331457D03*
X1334016D03*
X1336575D03*
Y1243965D03*
X1334016D03*
X1331457D03*
X1328898D03*
X1326339D03*
X1323780D03*
X1321220D03*
X1318661D03*
X1316102D03*
X1313543D03*
X1310984D03*
X1308425D03*
X1238425Y1221035D03*
X1240984D03*
X1243543D03*
X1246102D03*
X1248661D03*
X1251220D03*
X1253780D03*
X1256339D03*
X1258898D03*
X1261457D03*
X1264016D03*
X1266575D03*
Y1243965D03*
X1264016D03*
X1261457D03*
X1258898D03*
X1256339D03*
X1253780D03*
X1251220D03*
X1248661D03*
X1246102D03*
X1243543D03*
X1240984D03*
X1238425D03*
G54D76*
X1182500Y1232500D03*
X1322500D03*
X1252500D03*
G54D77*
X1208661Y1090551D03*
X1204724D03*
X1200787D03*
X1196850D03*
X1192913D03*
X1188976D03*
X1185039D03*
X1181102D03*
X1177165D03*
X1173228D03*
X1169291D03*
X1165354D03*
X1161417D03*
X1157480D03*
X1153543D03*
X1149606D03*
X1208661Y1094488D03*
X1204724D03*
X1200787D03*
X1196850D03*
X1192913D03*
X1188976D03*
X1185039D03*
X1181102D03*
X1177165D03*
X1173228D03*
X1169291D03*
X1165354D03*
X1161417D03*
X1157480D03*
X1153543D03*
X1149606D03*
X1208661Y1098425D03*
X1204724D03*
X1200787D03*
X1196850D03*
X1192913D03*
X1188976D03*
X1185039D03*
X1181102D03*
X1177165D03*
X1173228D03*
X1169291D03*
X1165354D03*
X1161417D03*
X1157480D03*
X1153543D03*
X1149606D03*
X1208661Y1102362D03*
X1204724D03*
X1200787D03*
X1196850D03*
X1192913D03*
X1188976D03*
X1185039D03*
X1181102D03*
X1177165D03*
X1173228D03*
X1169291D03*
X1165354D03*
X1161417D03*
X1157480D03*
X1153543D03*
X1149606D03*
X1208661Y1106299D03*
X1204724D03*
X1200787D03*
X1196850D03*
X1192913D03*
X1188976D03*
X1185039D03*
X1181102D03*
X1177165D03*
X1173228D03*
X1169291D03*
X1165354D03*
X1161417D03*
X1157480D03*
X1153543D03*
X1149606D03*
X1208661Y1110236D03*
X1204724D03*
X1200787D03*
X1196850D03*
X1192913D03*
X1188976D03*
X1185039D03*
X1181102D03*
X1177165D03*
X1173228D03*
X1169291D03*
X1165354D03*
X1161417D03*
X1157480D03*
X1153543D03*
X1149606D03*
X1208661Y1114173D03*
X1204724D03*
X1200787D03*
X1196850D03*
X1192913D03*
X1188976D03*
X1185039D03*
X1181102D03*
X1177165D03*
X1173228D03*
X1169291D03*
X1165354D03*
X1161417D03*
X1157480D03*
X1153543D03*
X1149606D03*
X1208661Y1118110D03*
X1204724D03*
X1200787D03*
X1196850D03*
X1192913D03*
X1188976D03*
X1185039D03*
X1181102D03*
X1177165D03*
X1173228D03*
X1169291D03*
X1165354D03*
X1161417D03*
X1157480D03*
X1153543D03*
X1149606D03*
X1208661Y1122047D03*
X1204724D03*
X1200787D03*
X1196850D03*
X1192913D03*
X1188976D03*
X1185039D03*
X1181102D03*
X1177165D03*
X1173228D03*
X1169291D03*
X1165354D03*
X1161417D03*
X1157480D03*
X1153543D03*
X1149606D03*
X1208661Y1125984D03*
X1204724D03*
X1200787D03*
X1196850D03*
X1192913D03*
X1188976D03*
X1185039D03*
X1181102D03*
X1177165D03*
X1173228D03*
X1169291D03*
X1165354D03*
X1161417D03*
X1157480D03*
X1153543D03*
X1149606D03*
X1208661Y1129921D03*
X1204724D03*
X1200787D03*
X1196850D03*
X1192913D03*
X1188976D03*
X1185039D03*
X1181102D03*
X1177165D03*
X1173228D03*
X1169291D03*
X1165354D03*
X1161417D03*
X1157480D03*
X1153543D03*
X1149606D03*
X1208661Y1133858D03*
X1204724D03*
X1200787D03*
X1196850D03*
X1192913D03*
X1188976D03*
X1185039D03*
X1181102D03*
X1177165D03*
X1173228D03*
X1169291D03*
X1165354D03*
X1161417D03*
X1157480D03*
X1153543D03*
X1149606D03*
X1208661Y1137795D03*
X1204724D03*
X1200787D03*
X1196850D03*
X1192913D03*
X1188976D03*
X1185039D03*
X1181102D03*
X1177165D03*
X1173228D03*
X1169291D03*
X1165354D03*
X1161417D03*
X1157480D03*
X1153543D03*
X1149606D03*
X1208661Y1141732D03*
X1204724D03*
X1200787D03*
X1196850D03*
X1192913D03*
X1188976D03*
X1185039D03*
X1181102D03*
X1177165D03*
X1173228D03*
X1169291D03*
X1165354D03*
X1161417D03*
X1157480D03*
X1153543D03*
X1149606D03*
X1208661Y1145669D03*
X1204724D03*
X1200787D03*
X1196850D03*
X1192913D03*
X1188976D03*
X1185039D03*
X1181102D03*
X1177165D03*
X1173228D03*
X1169291D03*
X1165354D03*
X1161417D03*
X1157480D03*
X1153543D03*
X1149606D03*
X1208661Y1149606D03*
X1204724D03*
X1200787D03*
X1196850D03*
X1192913D03*
X1188976D03*
X1185039D03*
X1181102D03*
X1177165D03*
X1173228D03*
X1169291D03*
X1165354D03*
X1161417D03*
X1157480D03*
X1153543D03*
X1149606D03*
G54D78*
X1156500Y1070059D03*
Y1064941D03*
G54D80*
X1318230Y1120000D03*
Y1125000D03*
Y1130000D03*
Y1135000D03*
X1296770D03*
Y1130000D03*
Y1125000D03*
Y1120000D03*
G54D81*
X1457402Y1405000D03*
X1482598D03*
X1387598Y1347500D03*
X1362402D03*
X1435098Y1412500D03*
X1409902D03*
G54D82*
X1305906Y1442500D03*
X1294094D03*
X1305906Y1425000D03*
X1294094D03*
G54D83*
X1257500Y1568307D03*
Y1581693D03*
G54D85*
X1122000Y1729063D02*
Y1722500D01*
Y1729063D02*
X1124045D01*
X1124045D02*
X1124727Y1728750D01*
X1124955Y1728438*
X1124955D02*
X1125182Y1727813D01*
X1125182D02*
Y1727188D01*
X1125182D02*
X1124955Y1726563D01*
X1124955D02*
X1124727Y1726250D01*
X1124045Y1725938*
X1122000D02*
X1124045D01*
X1124045D02*
X1124727Y1725625D01*
X1124955Y1725313*
X1124955D02*
X1125182Y1724688D01*
X1125182D02*
Y1723750D01*
X1124955Y1723125*
X1124727Y1722813*
X1124727D02*
X1124045Y1722500D01*
X1122000*
X1128591Y1729063D02*
X1128136Y1728750D01*
X1127682Y1728125*
X1127455Y1727500*
X1127227Y1726563*
X1127227D02*
Y1725000D01*
X1127455Y1724063*
X1127455D02*
X1127682Y1723438D01*
X1127682D02*
X1128136Y1722813D01*
X1128136D02*
X1128591Y1722500D01*
X1129500*
X1129955Y1722813*
X1129955D02*
X1130409Y1723438D01*
X1130409D02*
X1130636Y1724063D01*
X1130636D02*
X1130864Y1725000D01*
Y1726563*
X1130864D02*
X1130636Y1727500D01*
X1130409Y1728125*
X1129955Y1728750*
X1129500Y1729063*
X1129500D02*
X1128591D01*
X1134727D02*
X1132909Y1722500D01*
X1134727Y1729063D02*
X1136545Y1722500D01*
X1133591Y1724688D02*
X1135864D01*
X1138591Y1729063D02*
Y1722500D01*
Y1729063D02*
X1140636D01*
X1140636D02*
X1141318Y1728750D01*
X1141545Y1728438*
X1141545D02*
X1141773Y1727813D01*
X1141773D02*
Y1727188D01*
X1141773D02*
X1141545Y1726563D01*
X1141545D02*
X1141318Y1726250D01*
X1140636Y1725938*
X1140636D02*
X1138591D01*
X1140182D02*
X1141773Y1722500D01*
X1143818Y1729063D02*
Y1722500D01*
Y1729063D02*
X1145409D01*
X1145409D02*
X1146091Y1728750D01*
X1146545Y1728125*
X1146773Y1727500*
X1147000Y1726563*
X1147000D02*
Y1725000D01*
X1146773Y1724063*
X1146773D02*
X1146545Y1723438D01*
X1146545D02*
X1146091Y1722813D01*
X1146091D02*
X1145409Y1722500D01*
X1143818*
X1159500Y1729063D02*
Y1722500D01*
Y1729063D02*
X1162682Y1722500D01*
Y1729063D02*
Y1722500D01*
X1166545Y1729063D02*
X1164727Y1722500D01*
X1166545Y1729063D02*
X1168364Y1722500D01*
X1165409Y1724688D02*
X1167682D01*
X1170409Y1729063D02*
Y1722500D01*
Y1729063D02*
X1172227Y1722500D01*
X1174045Y1729063D02*
X1172227Y1722500D01*
X1174045Y1729063D02*
Y1722500D01*
X1176091Y1729063D02*
Y1722500D01*
Y1729063D02*
X1179045D01*
X1176091Y1725938D02*
X1177909D01*
X1176091Y1722500D02*
X1179045D01*
X1186318Y1725313D02*
X1190409D01*
X1122000Y1701563D02*
Y1695000D01*
Y1701563D02*
X1123591D01*
X1123591D02*
X1124273Y1701250D01*
X1124727Y1700625*
X1124955Y1700000*
X1125182Y1699063*
X1125182D02*
Y1697500D01*
X1124955Y1696563*
X1124955D02*
X1124727Y1695938D01*
X1124727D02*
X1124273Y1695313D01*
X1124273D02*
X1123591Y1695000D01*
X1122000*
X1128591Y1701563D02*
X1128136Y1701250D01*
X1127682Y1700625*
X1127455Y1700000*
X1127227Y1699063*
X1127227D02*
Y1697500D01*
X1127455Y1696563*
X1127455D02*
X1127682Y1695938D01*
X1127682D02*
X1128136Y1695313D01*
X1128136D02*
X1128591Y1695000D01*
X1129500*
X1129955Y1695313*
X1129955D02*
X1130409Y1695938D01*
X1130409D02*
X1130636Y1696563D01*
X1130636D02*
X1130864Y1697500D01*
Y1699063*
X1130864D02*
X1130636Y1700000D01*
X1130409Y1700625*
X1129955Y1701250*
X1129500Y1701563*
X1129500D02*
X1128591D01*
X1136318Y1700000D02*
X1136091Y1700625D01*
X1135636Y1701250*
X1135182Y1701563*
X1135182D02*
X1134273D01*
X1134273D02*
X1133818Y1701250D01*
X1133364Y1700625*
X1133136Y1700000*
X1132909Y1699063*
X1132909D02*
Y1697500D01*
X1133136Y1696563*
X1133136D02*
X1133364Y1695938D01*
X1133364D02*
X1133818Y1695313D01*
X1133818D02*
X1134273Y1695000D01*
X1135182*
X1135636Y1695313*
X1135636D02*
X1136091Y1695938D01*
X1136091D02*
X1136318Y1696563D01*
X1138364Y1701563D02*
Y1696875D01*
X1138591Y1695938*
X1138591D02*
X1139045Y1695313D01*
X1139045D02*
X1139727Y1695000D01*
X1140182*
X1140864Y1695313*
X1140864D02*
X1141318Y1695938D01*
X1141318D02*
X1141545Y1696875D01*
Y1701563*
X1143591D02*
Y1695000D01*
Y1701563D02*
X1145409Y1695000D01*
X1147227Y1701563D02*
X1145409Y1695000D01*
X1147227Y1701563D02*
Y1695000D01*
X1149273Y1701563D02*
Y1695000D01*
Y1701563D02*
X1152227D01*
X1149273Y1698438D02*
X1151091D01*
X1149273Y1695000D02*
X1152227D01*
X1154273Y1701563D02*
Y1695000D01*
Y1701563D02*
X1157455Y1695000D01*
Y1701563D02*
Y1695000D01*
X1161091Y1701563D02*
Y1695000D01*
X1159500Y1701563D02*
X1162682D01*
X1169955D02*
Y1695000D01*
Y1701563D02*
X1173136Y1695000D01*
Y1701563D02*
Y1695000D01*
X1177000Y1701563D02*
X1175182Y1695000D01*
X1177000Y1701563D02*
X1178818Y1695000D01*
X1175864Y1697188D02*
X1178136D01*
X1180864Y1701563D02*
Y1695000D01*
Y1701563D02*
X1182682Y1695000D01*
X1184500Y1701563D02*
X1182682Y1695000D01*
X1184500Y1701563D02*
Y1695000D01*
X1186545Y1701563D02*
Y1695000D01*
Y1701563D02*
X1189500D01*
X1186545Y1698438D02*
X1188364D01*
X1186545Y1695000D02*
X1189500D01*
X1191545Y1697813D02*
X1195636D01*
X1312000Y1701563D02*
Y1695000D01*
Y1701563D02*
X1314045D01*
X1314045D02*
X1314727Y1701250D01*
X1314955Y1700938*
X1314955D02*
X1315182Y1700313D01*
X1315182D02*
Y1699688D01*
X1315182D02*
X1314955Y1699063D01*
X1314955D02*
X1314727Y1698750D01*
X1314045Y1698438*
X1314045D02*
X1312000D01*
X1313591D02*
X1315182Y1695000D01*
X1317227Y1701563D02*
Y1695000D01*
Y1701563D02*
X1320182D01*
X1317227Y1698438D02*
X1319045D01*
X1317227Y1695000D02*
X1320182D01*
X1322227Y1701563D02*
X1324045Y1695000D01*
X1325864Y1701563D02*
X1324045Y1695000D01*
X1333136Y1697813D02*
X1337227D01*
X1344955Y1701563D02*
X1347455D01*
X1347455D02*
X1346091Y1699063D01*
X1346091D02*
X1346773D01*
X1346773D02*
X1347227Y1698750D01*
X1347455Y1698438*
X1347455D02*
X1347682Y1697500D01*
Y1696875*
X1347455Y1695938*
X1347455D02*
X1347000Y1695313D01*
X1347000D02*
X1346318Y1695000D01*
X1345636*
X1344955Y1695313*
X1344955D02*
X1344727Y1695625D01*
X1344500Y1696250*
X1202000Y1729063D02*
Y1722500D01*
X1205409Y1729063D02*
X1204955Y1728750D01*
X1204500Y1728125*
X1204273Y1727500*
X1204045Y1726563*
X1204045D02*
Y1725000D01*
X1204273Y1724063*
X1204273D02*
X1204500Y1723438D01*
X1204500D02*
X1204955Y1722813D01*
X1204955D02*
X1205409Y1722500D01*
X1206318*
X1206773Y1722813*
X1206773D02*
X1207227Y1723438D01*
X1207227D02*
X1207455Y1724063D01*
X1207455D02*
X1207682Y1725000D01*
Y1726563*
X1207682D02*
X1207455Y1727500D01*
X1207227Y1728125*
X1206773Y1728750*
X1206318Y1729063*
X1206318D02*
X1205409D01*
X1209727D02*
Y1722500D01*
Y1729063D02*
X1211773D01*
X1211773D02*
X1212455Y1728750D01*
X1212682Y1728438*
X1212682D02*
X1212909Y1727813D01*
X1212909D02*
Y1726875D01*
X1212682Y1726250*
X1212455Y1725938*
X1212455D02*
X1211773Y1725625D01*
X1209727*
X1214955Y1725313D02*
X1219045D01*
X1222909Y1729063D02*
X1221091Y1722500D01*
X1222909Y1729063D02*
X1224727Y1722500D01*
X1221773Y1724688D02*
X1224045D01*
X1226773Y1729063D02*
Y1722500D01*
Y1729063D02*
X1228591Y1722500D01*
X1230409Y1729063D02*
X1228591Y1722500D01*
X1230409Y1729063D02*
Y1722500D01*
X1232455Y1727813D02*
X1232909Y1728125D01*
X1233591Y1729063*
X1233591D02*
Y1722500D01*
X1244273Y1727500D02*
X1244045Y1728125D01*
X1243591Y1728750*
X1243136Y1729063*
X1243136D02*
X1242227D01*
X1242227D02*
X1241773Y1728750D01*
X1241318Y1728125*
X1241091Y1727500*
X1240864Y1726563*
X1240864D02*
Y1725000D01*
X1241091Y1724063*
X1241091D02*
X1241318Y1723438D01*
X1241318D02*
X1241773Y1722813D01*
X1241773D02*
X1242227Y1722500D01*
X1243136*
X1243591Y1722813*
X1243591D02*
X1244045Y1723438D01*
X1244045D02*
X1244273Y1724063D01*
X1248136Y1729063D02*
X1246318Y1722500D01*
X1248136Y1729063D02*
X1249955Y1722500D01*
X1247000Y1724688D02*
X1249273D01*
X1252000Y1729063D02*
Y1722500D01*
Y1729063D02*
X1254045D01*
X1254045D02*
X1254727Y1728750D01*
X1254955Y1728438*
X1254955D02*
X1255182Y1727813D01*
X1255182D02*
Y1727188D01*
X1255182D02*
X1254955Y1726563D01*
X1254955D02*
X1254727Y1726250D01*
X1254045Y1725938*
X1254045D02*
X1252000D01*
X1253591D02*
X1255182Y1722500D01*
X1257227Y1729063D02*
Y1722500D01*
Y1729063D02*
X1258818D01*
X1258818D02*
X1259500Y1728750D01*
X1259955Y1728125*
X1260182Y1727500*
X1260409Y1726563*
X1260409D02*
Y1725000D01*
X1260182Y1724063*
X1260182D02*
X1259955Y1723438D01*
X1259955D02*
X1259500Y1722813D01*
X1259500D02*
X1258818Y1722500D01*
X1257227*
X1170409Y1745000D02*
X1170182Y1745625D01*
X1169727Y1746250*
X1169273Y1746563*
X1169273D02*
X1168364D01*
X1168364D02*
X1167909Y1746250D01*
X1167455Y1745625*
X1167227Y1745000*
X1167000Y1744063*
X1167000D02*
Y1742500D01*
X1167227Y1741563*
X1167227D02*
X1167455Y1740938D01*
X1167455D02*
X1167909Y1740313D01*
X1167909D02*
X1168364Y1740000D01*
X1169273*
X1169727Y1740313*
X1169727D02*
X1170182Y1740938D01*
X1170182D02*
X1170409Y1741563D01*
X1173818Y1746563D02*
X1173364Y1746250D01*
X1172909Y1745625*
X1172682Y1745000*
X1172455Y1744063*
X1172455D02*
Y1742500D01*
X1172682Y1741563*
X1172682D02*
X1172909Y1740938D01*
X1172909D02*
X1173364Y1740313D01*
X1173364D02*
X1173818Y1740000D01*
X1174727*
X1175182Y1740313*
X1175182D02*
X1175636Y1740938D01*
X1175636D02*
X1175864Y1741563D01*
X1175864D02*
X1176091Y1742500D01*
Y1744063*
X1176091D02*
X1175864Y1745000D01*
X1175636Y1745625*
X1175182Y1746250*
X1174727Y1746563*
X1174727D02*
X1173818D01*
X1178136D02*
Y1740000D01*
Y1746563D02*
X1179955Y1740000D01*
X1181773Y1746563D02*
X1179955Y1740000D01*
X1181773Y1746563D02*
Y1740000D01*
X1183818Y1746563D02*
Y1740000D01*
Y1746563D02*
X1185864D01*
X1185864D02*
X1186545Y1746250D01*
X1186773Y1745938*
X1186773D02*
X1187000Y1745313D01*
X1187000D02*
Y1744375D01*
X1186773Y1743750*
X1186545Y1743438*
X1186545D02*
X1185864Y1743125D01*
X1183818*
X1189045Y1746563D02*
Y1740000D01*
Y1746563D02*
X1191091D01*
X1191091D02*
X1191773Y1746250D01*
X1192000Y1745938*
X1192000D02*
X1192227Y1745313D01*
X1192227D02*
Y1744688D01*
X1192227D02*
X1192000Y1744063D01*
X1192000D02*
X1191773Y1743750D01*
X1191091Y1743438*
X1191091D02*
X1189045D01*
X1190636D02*
X1192227Y1740000D01*
X1194273Y1746563D02*
Y1740000D01*
Y1746563D02*
X1197227D01*
X1194273Y1743438D02*
X1196091D01*
X1194273Y1740000D02*
X1197227D01*
X1202455Y1745625D02*
X1202000Y1746250D01*
X1201318Y1746563*
X1201318D02*
X1200409D01*
X1200409D02*
X1199727Y1746250D01*
X1199273Y1745625*
Y1745000*
X1199500Y1744375*
X1199727Y1744063*
X1199727D02*
X1200182Y1743750D01*
X1201545Y1743125*
X1202000Y1742813*
X1202000D02*
X1202227Y1742500D01*
X1202455Y1741875*
Y1740938*
X1202455D02*
X1202000Y1740313D01*
X1202000D02*
X1201318Y1740000D01*
X1200409*
X1199727Y1740313*
X1199727D02*
X1199273Y1740938D01*
X1207682Y1745625D02*
X1207227Y1746250D01*
X1206545Y1746563*
X1206545D02*
X1205636D01*
X1205636D02*
X1204955Y1746250D01*
X1204500Y1745625*
Y1745000*
X1204727Y1744375*
X1204955Y1744063*
X1204955D02*
X1205409Y1743750D01*
X1206773Y1743125*
X1207227Y1742813*
X1207227D02*
X1207455Y1742500D01*
X1207682Y1741875*
Y1740938*
X1207682D02*
X1207227Y1740313D01*
X1207227D02*
X1206545Y1740000D01*
X1205636*
X1204955Y1740313*
X1204955D02*
X1204500Y1740938D01*
X1211091Y1746563D02*
X1210636Y1746250D01*
X1210182Y1745625*
X1209955Y1745000*
X1209727Y1744063*
X1209727D02*
Y1742500D01*
X1209955Y1741563*
X1209955D02*
X1210182Y1740938D01*
X1210182D02*
X1210636Y1740313D01*
X1210636D02*
X1211091Y1740000D01*
X1212000*
X1212455Y1740313*
X1212455D02*
X1212909Y1740938D01*
X1212909D02*
X1213136Y1741563D01*
X1213136D02*
X1213364Y1742500D01*
Y1744063*
X1213364D02*
X1213136Y1745000D01*
X1212909Y1745625*
X1212455Y1746250*
X1212000Y1746563*
X1212000D02*
X1211091D01*
X1215409D02*
Y1740000D01*
Y1746563D02*
X1217455D01*
X1217455D02*
X1218136Y1746250D01*
X1218364Y1745938*
X1218364D02*
X1218591Y1745313D01*
X1218591D02*
Y1744688D01*
X1218591D02*
X1218364Y1744063D01*
X1218364D02*
X1218136Y1743750D01*
X1217455Y1743438*
X1217455D02*
X1215409D01*
X1217000D02*
X1218591Y1740000D01*
X1229273Y1745000D02*
X1229045Y1745625D01*
X1228591Y1746250*
X1228136Y1746563*
X1228136D02*
X1227227D01*
X1227227D02*
X1226773Y1746250D01*
X1226318Y1745625*
X1226091Y1745000*
X1225864Y1744063*
X1225864D02*
Y1742500D01*
X1226091Y1741563*
X1226091D02*
X1226318Y1740938D01*
X1226318D02*
X1226773Y1740313D01*
X1226773D02*
X1227227Y1740000D01*
X1228136*
X1228591Y1740313*
X1228591D02*
X1229045Y1740938D01*
X1229045D02*
X1229273Y1741563D01*
X1232682Y1746563D02*
X1232227Y1746250D01*
X1231773Y1745625*
X1231545Y1745000*
X1231318Y1744063*
X1231318D02*
Y1742500D01*
X1231545Y1741563*
X1231545D02*
X1231773Y1740938D01*
X1231773D02*
X1232227Y1740313D01*
X1232227D02*
X1232682Y1740000D01*
X1233591*
X1234045Y1740313*
X1234045D02*
X1234500Y1740938D01*
X1234500D02*
X1234727Y1741563D01*
X1234727D02*
X1234955Y1742500D01*
Y1744063*
X1234955D02*
X1234727Y1745000D01*
X1234500Y1745625*
X1234045Y1746250*
X1233591Y1746563*
X1233591D02*
X1232682D01*
X1237000D02*
Y1740000D01*
Y1746563D02*
X1240182Y1740000D01*
Y1746563D02*
Y1740000D01*
X1243818Y1746563D02*
Y1740000D01*
X1242227Y1746563D02*
X1245409D01*
X1247455D02*
Y1740000D01*
Y1746563D02*
X1249500D01*
X1249500D02*
X1250182Y1746250D01*
X1250409Y1745938*
X1250409D02*
X1250636Y1745313D01*
X1250636D02*
Y1744688D01*
X1250636D02*
X1250409Y1744063D01*
X1250409D02*
X1250182Y1743750D01*
X1249500Y1743438*
X1249500D02*
X1247455D01*
X1249045D02*
X1250636Y1740000D01*
X1254045Y1746563D02*
X1253591Y1746250D01*
X1253136Y1745625*
X1252909Y1745000*
X1252682Y1744063*
X1252682D02*
Y1742500D01*
X1252909Y1741563*
X1252909D02*
X1253136Y1740938D01*
X1253136D02*
X1253591Y1740313D01*
X1253591D02*
X1254045Y1740000D01*
X1254955*
X1255409Y1740313*
X1255409D02*
X1255864Y1740938D01*
X1255864D02*
X1256091Y1741563D01*
X1256091D02*
X1256318Y1742500D01*
Y1744063*
X1256318D02*
X1256091Y1745000D01*
X1255864Y1745625*
X1255409Y1746250*
X1254955Y1746563*
X1254955D02*
X1254045D01*
X1258364D02*
Y1740000D01*
X1261091*
X1266318Y1745625D02*
X1265864Y1746250D01*
X1265182Y1746563*
X1265182D02*
X1264273D01*
X1264273D02*
X1263591Y1746250D01*
X1263136Y1745625*
Y1745000*
X1263364Y1744375*
X1263591Y1744063*
X1263591D02*
X1264045Y1743750D01*
X1265409Y1743125*
X1265864Y1742813*
X1265864D02*
X1266091Y1742500D01*
X1266318Y1741875*
Y1740938*
X1266318D02*
X1265864Y1740313D01*
X1265864D02*
X1265182Y1740000D01*
X1264273*
X1263591Y1740313*
X1263591D02*
X1263136Y1740938D01*
X1277000Y1745000D02*
X1276773Y1745625D01*
X1276318Y1746250*
X1275864Y1746563*
X1275864D02*
X1274955D01*
X1274955D02*
X1274500Y1746250D01*
X1274045Y1745625*
X1273818Y1745000*
X1273591Y1744063*
X1273591D02*
Y1742500D01*
X1273818Y1741563*
X1273818D02*
X1274045Y1740938D01*
X1274045D02*
X1274500Y1740313D01*
X1274500D02*
X1274955Y1740000D01*
X1275864*
X1276318Y1740313*
X1276318D02*
X1276773Y1740938D01*
X1276773D02*
X1277000Y1741563D01*
X1280409Y1746563D02*
X1279955Y1746250D01*
X1279500Y1745625*
X1279273Y1745000*
X1279045Y1744063*
X1279045D02*
Y1742500D01*
X1279273Y1741563*
X1279273D02*
X1279500Y1740938D01*
X1279500D02*
X1279955Y1740313D01*
X1279955D02*
X1280409Y1740000D01*
X1281318*
X1281773Y1740313*
X1281773D02*
X1282227Y1740938D01*
X1282227D02*
X1282455Y1741563D01*
X1282455D02*
X1282682Y1742500D01*
Y1744063*
X1282682D02*
X1282455Y1745000D01*
X1282227Y1745625*
X1281773Y1746250*
X1281318Y1746563*
X1281318D02*
X1280409D01*
X1284727D02*
Y1740000D01*
Y1746563D02*
X1286773D01*
X1286773D02*
X1287455Y1746250D01*
X1287682Y1745938*
X1287682D02*
X1287909Y1745313D01*
X1287909D02*
Y1744688D01*
X1287909D02*
X1287682Y1744063D01*
X1287682D02*
X1287455Y1743750D01*
X1286773Y1743438*
X1286773D02*
X1284727D01*
X1286318D02*
X1287909Y1740000D01*
X1289955Y1746563D02*
Y1740000D01*
Y1746563D02*
X1292000D01*
X1292000D02*
X1292682Y1746250D01*
X1292909Y1745938*
X1292909D02*
X1293136Y1745313D01*
X1293136D02*
Y1744375D01*
X1292909Y1743750*
X1292682Y1743438*
X1292682D02*
X1292000Y1743125D01*
X1289955*
X1296545Y1746563D02*
X1296091Y1746250D01*
X1295636Y1745625*
X1295409Y1745000*
X1295182Y1744063*
X1295182D02*
Y1742500D01*
X1295409Y1741563*
X1295409D02*
X1295636Y1740938D01*
X1295636D02*
X1296091Y1740313D01*
X1296091D02*
X1296545Y1740000D01*
X1297455*
X1297909Y1740313*
X1297909D02*
X1298364Y1740938D01*
X1298364D02*
X1298591Y1741563D01*
X1298591D02*
X1298818Y1742500D01*
Y1744063*
X1298818D02*
X1298591Y1745000D01*
X1298364Y1745625*
X1297909Y1746250*
X1297455Y1746563*
X1297455D02*
X1296545D01*
X1300864D02*
Y1740000D01*
Y1746563D02*
X1302909D01*
X1302909D02*
X1303591Y1746250D01*
X1303818Y1745938*
X1303818D02*
X1304045Y1745313D01*
X1304045D02*
Y1744688D01*
X1304045D02*
X1303818Y1744063D01*
X1303818D02*
X1303591Y1743750D01*
X1302909Y1743438*
X1302909D02*
X1300864D01*
X1302455D02*
X1304045Y1740000D01*
X1307909Y1746563D02*
X1306091Y1740000D01*
X1307909Y1746563D02*
X1309727Y1740000D01*
X1306773Y1742188D02*
X1309045D01*
X1313364Y1746563D02*
Y1740000D01*
X1311773Y1746563D02*
X1314955D01*
X1317000D02*
Y1740000D01*
X1320409Y1746563D02*
X1319955Y1746250D01*
X1319500Y1745625*
X1319273Y1745000*
X1319045Y1744063*
X1319045D02*
Y1742500D01*
X1319273Y1741563*
X1319273D02*
X1319500Y1740938D01*
X1319500D02*
X1319955Y1740313D01*
X1319955D02*
X1320409Y1740000D01*
X1321318*
X1321773Y1740313*
X1321773D02*
X1322227Y1740938D01*
X1322227D02*
X1322455Y1741563D01*
X1322455D02*
X1322682Y1742500D01*
Y1744063*
X1322682D02*
X1322455Y1745000D01*
X1322227Y1745625*
X1321773Y1746250*
X1321318Y1746563*
X1321318D02*
X1320409D01*
X1324727D02*
Y1740000D01*
Y1746563D02*
X1327909Y1740000D01*
Y1746563D02*
Y1740000D01*
X1162000Y1715313D02*
X1162455Y1715625D01*
X1163136Y1716563*
X1163136D02*
Y1710000D01*
X1168364Y1716563D02*
X1166091Y1710000D01*
X1165182Y1716563D02*
X1168364D01*
X1170409Y1712813D02*
X1174500D01*
X1179273Y1715625D02*
X1179045Y1716250D01*
X1178364Y1716563*
X1178364D02*
X1177909D01*
X1177909D02*
X1177227Y1716250D01*
X1176773Y1715313*
X1176773D02*
X1176545Y1713750D01*
Y1712188*
X1176545D02*
X1176773Y1710938D01*
X1176773D02*
X1177227Y1710313D01*
X1177227D02*
X1177909Y1710000D01*
X1178136*
X1178818Y1710313*
X1178818D02*
X1179273Y1710938D01*
X1179273D02*
X1179500Y1711875D01*
Y1712188*
X1179500D02*
X1179273Y1713125D01*
X1178818Y1713750*
X1178136Y1714063*
X1178136D02*
X1177909D01*
X1177909D02*
X1177227Y1713750D01*
X1176773Y1713125*
X1176545Y1712188*
X1182909Y1716563D02*
X1182227Y1716250D01*
X1181773Y1715313*
X1181773D02*
X1181545Y1713750D01*
Y1712813*
X1181545D02*
X1181773Y1711250D01*
X1182227Y1710313*
X1182227D02*
X1182909Y1710000D01*
X1183364*
X1184045Y1710313*
X1184045D02*
X1184500Y1711250D01*
X1184727Y1712813*
X1184727D02*
Y1713750D01*
X1184500Y1715313*
X1184500D02*
X1184045Y1716250D01*
X1183364Y1716563*
X1183364D02*
X1182909D01*
X1188136D02*
X1187455Y1716250D01*
X1187000Y1715313*
X1187000D02*
X1186773Y1713750D01*
Y1712813*
X1186773D02*
X1187000Y1711250D01*
X1187455Y1710313*
X1187455D02*
X1188136Y1710000D01*
X1188591*
X1189273Y1710313*
X1189273D02*
X1189727Y1711250D01*
X1189955Y1712813*
X1189955D02*
Y1713750D01*
X1189727Y1715313*
X1189727D02*
X1189273Y1716250D01*
X1188591Y1716563*
X1188591D02*
X1188136D01*
X1194955D02*
X1192682D01*
X1192682D02*
X1192455Y1713750D01*
X1192682Y1714063*
X1192682D02*
X1193364Y1714375D01*
X1194045*
X1194727Y1714063*
X1194727D02*
X1195182Y1713438D01*
X1195182D02*
X1195409Y1712500D01*
X1195182Y1711875*
X1194955Y1710938*
X1194955D02*
X1194500Y1710313D01*
X1194500D02*
X1193818Y1710000D01*
X1193136*
X1192455Y1710313*
X1192455D02*
X1192227Y1710625D01*
X1192000Y1711250*
X1199727Y1716563D02*
X1197455Y1712188D01*
X1197455D02*
X1200864D01*
X1199727Y1716563D02*
Y1710000D01*
X1204273Y1716563D02*
X1203591Y1716250D01*
X1203136Y1715313*
X1203136D02*
X1202909Y1713750D01*
Y1712813*
X1202909D02*
X1203136Y1711250D01*
X1203591Y1710313*
X1203591D02*
X1204273Y1710000D01*
X1204727*
X1205409Y1710313*
X1205409D02*
X1205864Y1711250D01*
X1206091Y1712813*
X1206091D02*
Y1713750D01*
X1205864Y1715313*
X1205864D02*
X1205409Y1716250D01*
X1204727Y1716563*
X1204727D02*
X1204273D01*
X1208136Y1712813D02*
X1212227D01*
X1215636Y1716563D02*
X1214955Y1716250D01*
X1214500Y1715313*
X1214500D02*
X1214273Y1713750D01*
Y1712813*
X1214273D02*
X1214500Y1711250D01*
X1214955Y1710313*
X1214955D02*
X1215636Y1710000D01*
X1216091*
X1216773Y1710313*
X1216773D02*
X1217227Y1711250D01*
X1217455Y1712813*
X1217455D02*
Y1713750D01*
X1217227Y1715313*
X1217227D02*
X1216773Y1716250D01*
X1216091Y1716563*
X1216091D02*
X1215636D01*
X1220864D02*
X1220182Y1716250D01*
X1219727Y1715313*
X1219727D02*
X1219500Y1713750D01*
Y1712813*
X1219500D02*
X1219727Y1711250D01*
X1220182Y1710313*
X1220182D02*
X1220864Y1710000D01*
X1221318*
X1222000Y1710313*
X1222000D02*
X1222455Y1711250D01*
X1222682Y1712813*
X1222682D02*
Y1713750D01*
X1222455Y1715313*
X1222455D02*
X1222000Y1716250D01*
X1221318Y1716563*
X1221318D02*
X1220864D01*
X1224727Y1715313D02*
X1225182Y1715625D01*
X1225864Y1716563*
X1225864D02*
Y1710000D01*
X1122000Y1716563D02*
Y1710000D01*
Y1716563D02*
X1124045D01*
X1124045D02*
X1124727Y1716250D01*
X1124955Y1715938*
X1124955D02*
X1125182Y1715313D01*
X1125182D02*
Y1714375D01*
X1124955Y1713750*
X1124727Y1713438*
X1124727D02*
X1124045Y1713125D01*
X1122000*
X1131318Y1717813D02*
X1127227Y1707812D01*
X1133364Y1716563D02*
Y1710000D01*
Y1716563D02*
X1136545Y1710000D01*
Y1716563D02*
Y1710000D01*
X1143818Y1712813D02*
X1147909D01*
X1275000Y1717563D02*
Y1711000D01*
Y1717563D02*
X1277955D01*
X1275000Y1714438D02*
X1276818D01*
X1280000Y1713500D02*
X1282727D01*
Y1714125*
X1282500Y1714750*
X1282273Y1715063*
X1282273D02*
X1281818Y1715375D01*
X1281136*
X1280682Y1715063*
X1280682D02*
X1280227Y1714438D01*
X1280227D02*
X1280000Y1713500D01*
Y1712875*
X1280227Y1711938*
X1280227D02*
X1280682Y1711313D01*
X1280682D02*
X1281136Y1711000D01*
X1281818*
X1282273Y1711313*
X1282273D02*
X1282727Y1711938D01*
X1284773Y1717563D02*
Y1711000D01*
Y1714438D02*
X1285227Y1715063D01*
X1285227D02*
X1285682Y1715375D01*
X1286364*
X1286818Y1715063*
X1286818D02*
X1287273Y1714438D01*
X1287273D02*
X1287500Y1713500D01*
Y1712875*
X1287273Y1711938*
X1287273D02*
X1286818Y1711313D01*
X1286818D02*
X1286364Y1711000D01*
X1285682*
X1285227Y1711313*
X1285227D02*
X1284773Y1711938D01*
X1289545Y1715375D02*
Y1711000D01*
Y1713500D02*
X1289773Y1714438D01*
X1289773D02*
X1290227Y1715063D01*
X1290227D02*
X1290682Y1715375D01*
X1291364*
X1293409D02*
Y1712250D01*
X1293636Y1711313*
X1293636D02*
X1294091Y1711000D01*
X1294773*
X1295227Y1711313*
X1295227D02*
X1295909Y1712250D01*
Y1715375D02*
Y1711000D01*
X1300682Y1715375D02*
Y1711000D01*
Y1714438D02*
X1300227Y1715063D01*
X1300227D02*
X1299773Y1715375D01*
X1299091*
X1298636Y1715063*
X1298636D02*
X1298182Y1714438D01*
X1298182D02*
X1297955Y1713500D01*
Y1712875*
X1298182Y1711938*
X1298182D02*
X1298636Y1711313D01*
X1298636D02*
X1299091Y1711000D01*
X1299773*
X1300227Y1711313*
X1300227D02*
X1300682Y1711938D01*
X1302727Y1715375D02*
Y1711000D01*
Y1713500D02*
X1302955Y1714438D01*
X1302955D02*
X1303409Y1715063D01*
X1303409D02*
X1303864Y1715375D01*
X1304545*
X1306818D02*
X1308182Y1711000D01*
X1309545Y1715375D02*
X1308182Y1711000D01*
X1307727Y1709750*
X1307273Y1709125*
X1306818Y1708812*
X1306818D02*
X1306591D01*
X1317045Y1716000D02*
Y1716313D01*
X1317045D02*
X1317273Y1716938D01*
X1317273D02*
X1317500Y1717250D01*
X1317955Y1717563*
X1317955D02*
X1318864D01*
X1318864D02*
X1319318Y1717250D01*
X1319545Y1716938*
X1319545D02*
X1319773Y1716313D01*
X1319773D02*
Y1715688D01*
X1319773D02*
X1319545Y1715063D01*
X1319545D02*
X1319091Y1714125D01*
X1316818Y1711000*
X1320000*
X1323182Y1717563D02*
X1322500Y1717250D01*
X1322273Y1716625*
Y1716000*
X1322500Y1715375*
X1322955Y1715063*
X1322955D02*
X1323864Y1714750D01*
X1324545Y1714438*
X1324545D02*
X1325000Y1713813D01*
X1325000D02*
X1325227Y1713188D01*
X1325227D02*
Y1712250D01*
X1325000Y1711625*
X1324773Y1711313*
X1324773D02*
X1324091Y1711000D01*
X1323182*
X1322500Y1711313*
X1322500D02*
X1322273Y1711625D01*
X1322045Y1712250*
Y1713188*
X1322045D02*
X1322273Y1713813D01*
X1322273D02*
X1322727Y1714438D01*
X1322727D02*
X1323409Y1714750D01*
X1324318Y1715063*
X1324318D02*
X1324773Y1715375D01*
X1325000Y1716000*
Y1716625*
X1324773Y1717250*
X1324091Y1717563*
X1324091D02*
X1323182D01*
X1327727Y1711313D02*
X1327500Y1711000D01*
X1327273Y1711313*
X1327273D02*
X1327500Y1711625D01*
X1327727Y1711313*
X1327727D02*
Y1710687D01*
X1327727D02*
X1327500Y1710062D01*
X1327500D02*
X1327273Y1709750D01*
X1335227Y1716000D02*
Y1716313D01*
X1335227D02*
X1335455Y1716938D01*
X1335455D02*
X1335682Y1717250D01*
X1336136Y1717563*
X1336136D02*
X1337045D01*
X1337045D02*
X1337500Y1717250D01*
X1337727Y1716938*
X1337727D02*
X1337955Y1716313D01*
X1337955D02*
Y1715688D01*
X1337955D02*
X1337727Y1715063D01*
X1337727D02*
X1337273Y1714125D01*
X1335000Y1711000*
X1338182*
X1341591Y1717563D02*
X1340909Y1717250D01*
X1340455Y1716313*
X1340455D02*
X1340227Y1714750D01*
Y1713813*
X1340227D02*
X1340455Y1712250D01*
X1340909Y1711313*
X1340909D02*
X1341591Y1711000D01*
X1342045*
X1342727Y1711313*
X1342727D02*
X1343182Y1712250D01*
X1343409Y1713813*
X1343409D02*
Y1714750D01*
X1343182Y1716313*
X1343182D02*
X1342727Y1717250D01*
X1342045Y1717563*
X1342045D02*
X1341591D01*
X1345455Y1716313D02*
X1345909Y1716625D01*
X1346591Y1717563*
X1346591D02*
Y1711000D01*
X1348864Y1716000D02*
Y1716313D01*
X1348864D02*
X1349091Y1716938D01*
X1349091D02*
X1349318Y1717250D01*
X1349773Y1717563*
X1349773D02*
X1350682D01*
X1350682D02*
X1351136Y1717250D01*
X1351364Y1716938*
X1351364D02*
X1351591Y1716313D01*
X1351591D02*
Y1715688D01*
X1351591D02*
X1351364Y1715063D01*
X1351364D02*
X1350909Y1714125D01*
X1348636Y1711000*
X1351818*
X1219091Y1701563D02*
Y1695000D01*
X1217500Y1701563D02*
X1220682D01*
X1224091D02*
X1223636Y1701250D01*
X1223182Y1700625*
X1222955Y1700000*
X1222727Y1699063*
X1222727D02*
Y1697500D01*
X1222955Y1696563*
X1222955D02*
X1223182Y1695938D01*
X1223182D02*
X1223636Y1695313D01*
X1223636D02*
X1224091Y1695000D01*
X1225000*
X1225455Y1695313*
X1225455D02*
X1225909Y1695938D01*
X1225909D02*
X1226136Y1696563D01*
X1226136D02*
X1226364Y1697500D01*
Y1699063*
X1226364D02*
X1226136Y1700000D01*
X1225909Y1700625*
X1225455Y1701250*
X1225000Y1701563*
X1225000D02*
X1224091D01*
X1228409D02*
Y1695000D01*
Y1701563D02*
X1230455D01*
X1230455D02*
X1231136Y1701250D01*
X1231364Y1700938*
X1231364D02*
X1231591Y1700313D01*
X1231591D02*
Y1699375D01*
X1231364Y1698750*
X1231136Y1698438*
X1231136D02*
X1230455Y1698125D01*
X1228409*
X1238864Y1701563D02*
Y1695000D01*
Y1701563D02*
X1240909D01*
X1240909D02*
X1241591Y1701250D01*
X1241818Y1700938*
X1241818D02*
X1242045Y1700313D01*
X1242045D02*
Y1699375D01*
X1241818Y1698750*
X1241591Y1698438*
X1241591D02*
X1240909Y1698125D01*
X1238864*
X1245909Y1701563D02*
X1244091Y1695000D01*
X1245909Y1701563D02*
X1247727Y1695000D01*
X1244773Y1697188D02*
X1247045D01*
X1252955Y1700625D02*
X1252500Y1701250D01*
X1251818Y1701563*
X1251818D02*
X1250909D01*
X1250909D02*
X1250227Y1701250D01*
X1249773Y1700625*
Y1700000*
X1250000Y1699375*
X1250227Y1699063*
X1250227D02*
X1250682Y1698750D01*
X1252045Y1698125*
X1252500Y1697813*
X1252500D02*
X1252727Y1697500D01*
X1252955Y1696875*
Y1695938*
X1252955D02*
X1252500Y1695313D01*
X1252500D02*
X1251818Y1695000D01*
X1250909*
X1250227Y1695313*
X1250227D02*
X1249773Y1695938D01*
X1256591Y1701563D02*
Y1695000D01*
X1255000Y1701563D02*
X1258182D01*
X1260227D02*
Y1695000D01*
Y1701563D02*
X1263182D01*
X1260227Y1698438D02*
X1262045D01*
X1260227Y1695000D02*
X1263182D01*
G54D86*
X1117000Y1752500D02*
X1354500D01*
Y1688172*
X1117000*
Y1752500*
G54D120*
X1410063Y1290559D03*
Y1288000D03*
Y1285441D03*
X1417937D03*
Y1290559D03*
X1410063Y1276559D03*
Y1274000D03*
Y1271441D03*
X1417937D03*
Y1276559D03*
X0Y0D02*
M02*
