*
*
G04 PADS 9.5 Build Number: 522968 generated Gerber (RS-274-X) file*
G04 PC Version=2.1*
*
%IN "17-600551-112_REVA_DI_T"*%
*
%MOIN*%
*
%FSLAX35Y35*%
*
*
*
*
G04 PC Standard Apertures*
*
*
G04 Thermal Relief Aperture macro.*
%AMTER*
1,1,$1,0,0*
1,0,$1-$2,0,0*
21,0,$3,$4,0,0,45*
21,0,$3,$4,0,0,135*
%
*
*
G04 Annular Aperture macro.*
%AMANN*
1,1,$1,0,0*
1,0,$2,0,0*
%
*
*
G04 Odd Aperture macro.*
%AMODD*
1,1,$1,0,0*
1,0,$1-0.005,0,0*
%
*
*
G04 PC Custom Aperture Macros*
*
*
*
*
*
*
G04 PC Aperture Table*
*
%ADD010C,0.001*%
%ADD011C,0.008*%
%ADD012C,0.00394*%
%ADD013C,0.01*%
%ADD014C,0.005*%
%ADD015C,0.015*%
%ADD111C,0.00591*%
*
*
*
*
G04 PC Circuitry*
G04 Layer Name 17-600551-112_REVA_DI_T - circuitry*
%LPD*%
*
*
G04 PC Custom Flashes*
G04 Layer Name 17-600551-112_REVA_DI_T - flashes*
%LPD*%
*
*
G04 PC Circuitry*
G04 Layer Name 17-600551-112_REVA_DI_T - circuitry*
%LPD*%
*
G54D10*
G54D11*
G01X1175610Y1054236D02*
Y1083764D01*
X1189390*
Y1054236*
X1175610*
Y1054900D02*
X1189390D01*
X1080610Y1134236D02*
Y1163764D01*
X1094390*
Y1134236*
X1080610*
Y1134900D02*
X1094390D01*
X1175610Y1214236D02*
Y1243764D01*
X1189390*
Y1214236*
X1175610*
Y1214900D02*
X1189390D01*
X1080610Y1054236D02*
Y1083764D01*
X1094390*
Y1054236*
X1080610*
Y1054900D02*
X1094390D01*
X1175610Y1134236D02*
Y1163764D01*
X1189390*
Y1134236*
X1175610*
Y1134900D02*
X1189390D01*
X1175610Y1294236D02*
Y1323764D01*
X1189390*
Y1294236*
X1175610*
Y1294900D02*
X1189390D01*
X1080610Y1294236D02*
Y1323764D01*
X1094390*
Y1294236*
X1080610*
Y1294900D02*
X1094390D01*
X1080610Y1214236D02*
Y1243764D01*
X1094390*
Y1214236*
X1080610*
Y1214900D02*
X1094390D01*
X1085203Y1303094D02*
X1088484D01*
X1085203D02*
Y1303890D01*
X1085359Y1304231*
X1085672Y1304458*
X1085984Y1304572*
X1086453Y1304685*
X1087234*
X1087703Y1304572*
X1088016Y1304458*
X1088016D02*
X1088328Y1304231D01*
X1088484Y1303890*
Y1303094*
X1085203Y1307299D02*
X1088484Y1306163D01*
X1085203Y1305708D02*
Y1307299D01*
Y1223094D02*
X1088484D01*
X1085203D02*
Y1223890D01*
X1085359Y1224231*
X1085672Y1224458*
X1085984Y1224572*
X1086453Y1224685*
X1087234*
X1087703Y1224572*
X1088016Y1224458*
X1088016D02*
X1088328Y1224231D01*
X1088484Y1223890*
Y1223094*
X1085203Y1227185D02*
Y1226049D01*
X1086609Y1225935*
X1086453Y1226049*
X1086297Y1226390*
Y1226731*
X1086453Y1227072*
X1086766Y1227299*
X1086766D02*
X1087234Y1227413D01*
X1087547Y1227299*
X1088016Y1227185*
X1088016D02*
X1088328Y1226958D01*
X1088484Y1226617*
Y1226276*
X1088328Y1225935*
X1088172Y1225822*
X1087859Y1225708*
G54D12*
X1135802Y1393327D02*
Y1401673D01*
X1130998*
Y1393327*
X1135802*
X1130998*
X1135802Y1393720D02*
X1130998D01*
X1135802Y1394114D02*
X1130998D01*
X1135802Y1394508D02*
X1130998D01*
X1135802Y1394902D02*
X1130998D01*
X1135802Y1395295D02*
X1130998D01*
G54D13*
X1231598Y1029000D02*
Y1429000D01*
X1197637*
X1197638Y1029000*
X1231598*
X1237098Y1059149D02*
G75*
G03X1237098I-2000J0D01*
G01X1036118Y1429000D02*
Y1029000D01*
X1070079*
Y1429000*
X1036118*
X1034618Y1398851D02*
G03X1034618I-2000J0D01*
G01X987110Y1573123D02*
Y1566560D01*
Y1573123D02*
X988701D01*
X988701D02*
X989383Y1572810D01*
X989837Y1572185*
X990065Y1571560*
X990292Y1570623*
X990292D02*
Y1569060D01*
X990065Y1568123*
X990065D02*
X989837Y1567498D01*
X989837D02*
X989383Y1566873D01*
X989383D02*
X988701Y1566560D01*
X987110*
X994155Y1573123D02*
X992337Y1566560D01*
X994155Y1573123D02*
X995974Y1566560D01*
X993019Y1568748D02*
X995292D01*
X999610Y1573123D02*
Y1566560D01*
X998019Y1573123D02*
X1001201D01*
X1003246D02*
Y1566560D01*
Y1573123D02*
X1006201D01*
X1003246Y1569998D02*
X1005065D01*
X1003246Y1566560D02*
X1006201D01*
X1008474Y1570935D02*
X1008246Y1570623D01*
X1008246D02*
X1008474Y1570310D01*
X1008701Y1570623*
X1008701D02*
X1008474Y1570935D01*
Y1567185D02*
X1008246Y1566873D01*
X1008246D02*
X1008474Y1566560D01*
X1008701Y1566873*
X1008701D02*
X1008474Y1567185D01*
X1017337Y1573123D02*
X1016655Y1572810D01*
X1016201Y1571873*
X1016201D02*
X1015974Y1570310D01*
Y1569373*
X1015974D02*
X1016201Y1567810D01*
X1016655Y1566873*
X1016655D02*
X1017337Y1566560D01*
X1017792*
X1018474Y1566873*
X1018474D02*
X1018928Y1567810D01*
X1019155Y1569373*
X1019155D02*
Y1570310D01*
X1018928Y1571873*
X1018928D02*
X1018474Y1572810D01*
X1017792Y1573123*
X1017792D02*
X1017337D01*
X1021655D02*
X1024155D01*
X1024155D02*
X1022792Y1570623D01*
X1022792D02*
X1023474D01*
X1023474D02*
X1023928Y1570310D01*
X1024155Y1569998*
X1024155D02*
X1024383Y1569060D01*
Y1568435*
X1024155Y1567498*
X1024155D02*
X1023701Y1566873D01*
X1023701D02*
X1023019Y1566560D01*
X1022337*
X1021655Y1566873*
X1021655D02*
X1021428Y1567185D01*
X1021201Y1567810*
X1026428Y1569373D02*
X1030519D01*
X1032565Y1571873D02*
X1033019Y1572185D01*
X1033701Y1573123*
X1033701D02*
Y1566560D01*
X1036201Y1573123D02*
X1038701D01*
X1038701D02*
X1037337Y1570623D01*
X1037337D02*
X1038019D01*
X1038019D02*
X1038474Y1570310D01*
X1038701Y1569998*
X1038701D02*
X1038928Y1569060D01*
Y1568435*
X1038701Y1567498*
X1038701D02*
X1038246Y1566873D01*
X1038246D02*
X1037565Y1566560D01*
X1036883*
X1036201Y1566873*
X1036201D02*
X1035974Y1567185D01*
X1035746Y1567810*
X1040974Y1569373D02*
X1045065D01*
X1047110Y1571873D02*
X1047565Y1572185D01*
X1048246Y1573123*
X1048246D02*
Y1566560D01*
X1052565Y1573123D02*
X1050292Y1568748D01*
X1050292D02*
X1053701D01*
X1052565Y1573123D02*
Y1566560D01*
X1246170Y1572813D02*
X1246625Y1573125D01*
X1247306Y1574063*
X1247306D02*
Y1567500D01*
X1252534Y1574063D02*
X1250261Y1567500D01*
X1249352Y1574063D02*
X1252534D01*
X1254579Y1570313D02*
X1258670D01*
X1263443Y1573125D02*
X1263215Y1573750D01*
X1262534Y1574063*
X1262534D02*
X1262079D01*
X1262079D02*
X1261397Y1573750D01*
X1260943Y1572813*
X1260943D02*
X1260715Y1571250D01*
Y1569688*
X1260715D02*
X1260943Y1568438D01*
X1260943D02*
X1261397Y1567813D01*
X1261397D02*
X1262079Y1567500D01*
X1262306*
X1262988Y1567813*
X1262988D02*
X1263443Y1568438D01*
X1263443D02*
X1263670Y1569375D01*
Y1569688*
X1263670D02*
X1263443Y1570625D01*
X1262988Y1571250*
X1262306Y1571563*
X1262306D02*
X1262079D01*
X1262079D02*
X1261397Y1571250D01*
X1260943Y1570625*
X1260715Y1569688*
X1267079Y1574063D02*
X1266397Y1573750D01*
X1265943Y1572813*
X1265943D02*
X1265715Y1571250D01*
Y1570313*
X1265715D02*
X1265943Y1568750D01*
X1266397Y1567813*
X1266397D02*
X1267079Y1567500D01*
X1267534*
X1268215Y1567813*
X1268215D02*
X1268670Y1568750D01*
X1268897Y1570313*
X1268897D02*
Y1571250D01*
X1268670Y1572813*
X1268670D02*
X1268215Y1573750D01*
X1267534Y1574063*
X1267534D02*
X1267079D01*
X1272306D02*
X1271625Y1573750D01*
X1271170Y1572813*
X1271170D02*
X1270943Y1571250D01*
Y1570313*
X1270943D02*
X1271170Y1568750D01*
X1271625Y1567813*
X1271625D02*
X1272306Y1567500D01*
X1272761*
X1273443Y1567813*
X1273443D02*
X1273897Y1568750D01*
X1274125Y1570313*
X1274125D02*
Y1571250D01*
X1273897Y1572813*
X1273897D02*
X1273443Y1573750D01*
X1272761Y1574063*
X1272761D02*
X1272306D01*
X1279125D02*
X1276852D01*
X1276852D02*
X1276625Y1571250D01*
X1276852Y1571563*
X1276852D02*
X1277534Y1571875D01*
X1278215*
X1278897Y1571563*
X1278897D02*
X1279352Y1570938D01*
X1279352D02*
X1279579Y1570000D01*
X1279352Y1569375*
X1279125Y1568438*
X1279125D02*
X1278670Y1567813D01*
X1278670D02*
X1277988Y1567500D01*
X1277306*
X1276625Y1567813*
X1276625D02*
X1276397Y1568125D01*
X1276170Y1568750*
X1284579Y1574063D02*
X1282306D01*
X1282306D02*
X1282079Y1571250D01*
X1282306Y1571563*
X1282306D02*
X1282988Y1571875D01*
X1283670*
X1284352Y1571563*
X1284352D02*
X1284806Y1570938D01*
X1284806D02*
X1285034Y1570000D01*
X1284806Y1569375*
X1284579Y1568438*
X1284579D02*
X1284125Y1567813D01*
X1284125D02*
X1283443Y1567500D01*
X1282761*
X1282079Y1567813*
X1282079D02*
X1281852Y1568125D01*
X1281625Y1568750*
X1287079Y1572813D02*
X1287534Y1573125D01*
X1288215Y1574063*
X1288215D02*
Y1567500D01*
X1290261Y1570313D02*
X1294352D01*
X1296397Y1572813D02*
X1296852Y1573125D01*
X1297534Y1574063*
X1297534D02*
Y1567500D01*
X1299579Y1572813D02*
X1300034Y1573125D01*
X1300715Y1574063*
X1300715D02*
Y1567500D01*
X1302988Y1572500D02*
Y1572813D01*
X1302988D02*
X1303215Y1573438D01*
X1303215D02*
X1303443Y1573750D01*
X1303897Y1574063*
X1303897D02*
X1304806D01*
X1304806D02*
X1305261Y1573750D01*
X1305488Y1573438*
X1305488D02*
X1305715Y1572813D01*
X1305715D02*
Y1572188D01*
X1305715D02*
X1305488Y1571563D01*
X1305488D02*
X1305034Y1570625D01*
X1302761Y1567500*
X1305943*
X1237306Y1587406D02*
X1235670Y1581500D01*
X1237306Y1587406D02*
X1238943Y1581500D01*
X1236284Y1583469D02*
X1238329D01*
X1243647Y1586563D02*
X1243238Y1587125D01*
X1242625Y1587406*
X1241806*
X1241193Y1587125*
X1240784Y1586563*
X1240784D02*
Y1586000D01*
X1240988Y1585438*
X1240988D02*
X1241193Y1585156D01*
X1241602Y1584875*
X1242829Y1584313*
X1242829D02*
X1243238Y1584031D01*
X1243443Y1583750*
X1243647Y1583188*
X1243647D02*
Y1582344D01*
X1243238Y1581781*
X1242625Y1581500*
X1241806*
X1241193Y1581781*
X1240784Y1582344*
X1248352Y1586563D02*
X1247943Y1587125D01*
X1247329Y1587406*
X1246511*
X1245897Y1587125*
X1245488Y1586563*
X1245488D02*
Y1586000D01*
X1245693Y1585438*
X1245693D02*
X1245897Y1585156D01*
X1246306Y1584875*
X1247534Y1584313*
X1247534D02*
X1247943Y1584031D01*
X1248147Y1583750*
X1248352Y1583188*
X1248352D02*
Y1582344D01*
X1247943Y1581781*
X1247329Y1581500*
X1246511*
X1245897Y1581781*
X1245488Y1582344*
X1250193Y1587406D02*
Y1581500D01*
Y1587406D02*
X1252852D01*
X1250193Y1584594D02*
X1251829D01*
X1250193Y1581500D02*
X1252852D01*
X1254693Y1587406D02*
Y1581500D01*
Y1587406D02*
X1256329Y1581500D01*
X1257965Y1587406D02*
X1256329Y1581500D01*
X1257965Y1587406D02*
Y1581500D01*
X1259806Y1587406D02*
Y1581500D01*
Y1587406D02*
X1261647D01*
X1262261Y1587125*
X1262465Y1586844*
X1262670Y1586281*
Y1585719*
X1262465Y1585156*
X1262261Y1584875*
X1261647Y1584594*
X1259806D02*
X1261647D01*
X1262261Y1584313*
X1262261D02*
X1262465Y1584031D01*
X1262670Y1583469*
Y1582625*
X1262465Y1582063*
X1262465D02*
X1262261Y1581781D01*
X1261647Y1581500*
X1259806*
X1264511Y1587406D02*
Y1581500D01*
X1266965*
X1268806Y1587406D02*
X1270443Y1584594D01*
Y1581500*
X1272079Y1587406D02*
X1270443Y1584594D01*
X1278625Y1587406D02*
Y1581500D01*
Y1587406D02*
X1280056D01*
X1280670Y1587125*
X1281079Y1586563*
X1281079D02*
X1281284Y1586000D01*
X1281488Y1585156*
Y1583750*
X1281284Y1582906*
X1281079Y1582344*
X1280670Y1581781*
X1280056Y1581500*
X1278625*
X1283329Y1587406D02*
Y1581500D01*
Y1587406D02*
X1285170D01*
X1285784Y1587125*
X1285988Y1586844*
X1286193Y1586281*
Y1585719*
X1285988Y1585156*
X1285784Y1584875*
X1285170Y1584594*
X1283329*
X1284761D02*
X1286193Y1581500D01*
X1289670Y1587406D02*
X1288034Y1581500D01*
X1289670Y1587406D02*
X1291306Y1581500D01*
X1288647Y1583469D02*
X1290693D01*
X1293147Y1587406D02*
X1294170Y1581500D01*
X1295193Y1587406D02*
X1294170Y1581500D01*
X1295193Y1587406D02*
X1296215Y1581500D01*
X1297238Y1587406D02*
X1296215Y1581500D01*
X1299079Y1587406D02*
Y1581500D01*
X1300920Y1587406D02*
Y1581500D01*
Y1587406D02*
X1303784Y1581500D01*
Y1587406D02*
Y1581500D01*
X1308693Y1586000D02*
X1308488Y1586563D01*
X1308488D02*
X1308079Y1587125D01*
X1307670Y1587406*
X1306852*
X1306443Y1587125*
X1306034Y1586563*
X1306034D02*
X1305829Y1586000D01*
X1305625Y1585156*
Y1583750*
X1305829Y1582906*
X1306034Y1582344*
X1306443Y1581781*
X1306852Y1581500*
X1307670*
X1308079Y1581781*
X1308488Y1582344*
X1308693Y1582906*
Y1583750*
X1307670D02*
X1308693D01*
X1316670Y1587406D02*
Y1581500D01*
X1315238Y1587406D02*
X1318102D01*
X1321170D02*
X1320761Y1587125D01*
X1320352Y1586563*
X1320352D02*
X1320147Y1586000D01*
X1319943Y1585156*
Y1583750*
X1320147Y1582906*
X1320352Y1582344*
X1320761Y1581781*
X1321170Y1581500*
X1321988*
X1322397Y1581781*
X1322806Y1582344*
X1323011Y1582906*
X1323215Y1583750*
Y1585156*
X1323011Y1586000*
X1322806Y1586563*
X1322806D02*
X1322397Y1587125D01*
X1321988Y1587406*
X1321170*
X1325056D02*
Y1581500D01*
Y1587406D02*
X1326897D01*
X1327511Y1587125*
X1327715Y1586844*
X1327920Y1586281*
Y1585438*
X1327920D02*
X1327715Y1584875D01*
X1327511Y1584594*
X1326897Y1584313*
X1326897D02*
X1325056D01*
X989519Y1598560D02*
X989292Y1599185D01*
X988837Y1599810*
X988383Y1600123*
X988383D02*
X987474D01*
X987474D02*
X987019Y1599810D01*
X986565Y1599185*
X986337Y1598560*
X986110Y1597623*
X986110D02*
Y1596060D01*
X986337Y1595123*
X986337D02*
X986565Y1594498D01*
X986565D02*
X987019Y1593873D01*
X987019D02*
X987474Y1593560D01*
X988383*
X988837Y1593873*
X988837D02*
X989292Y1594498D01*
X989292D02*
X989519Y1595123D01*
X992928Y1600123D02*
X992474Y1599810D01*
X992019Y1599185*
X991792Y1598560*
X991565Y1597623*
X991565D02*
Y1596060D01*
X991792Y1595123*
X991792D02*
X992019Y1594498D01*
X992019D02*
X992474Y1593873D01*
X992474D02*
X992928Y1593560D01*
X993837*
X994292Y1593873*
X994292D02*
X994746Y1594498D01*
X994746D02*
X994974Y1595123D01*
X994974D02*
X995201Y1596060D01*
Y1597623*
X995201D02*
X994974Y1598560D01*
X994746Y1599185*
X994292Y1599810*
X993837Y1600123*
X993837D02*
X992928D01*
X997246D02*
Y1593560D01*
Y1600123D02*
X999065Y1593560D01*
X1000883Y1600123D02*
X999065Y1593560D01*
X1000883Y1600123D02*
Y1593560D01*
X1002928Y1600123D02*
Y1593560D01*
Y1600123D02*
X1004974D01*
X1004974D02*
X1005655Y1599810D01*
X1005883Y1599498*
X1005883D02*
X1006110Y1598873D01*
X1006110D02*
Y1597935D01*
X1005883Y1597310*
X1005655Y1596998*
X1005655D02*
X1004974Y1596685D01*
X1002928*
X1008155Y1600123D02*
Y1593560D01*
Y1600123D02*
X1010201D01*
X1010201D02*
X1010883Y1599810D01*
X1011110Y1599498*
X1011110D02*
X1011337Y1598873D01*
X1011337D02*
Y1598248D01*
X1011337D02*
X1011110Y1597623D01*
X1011110D02*
X1010883Y1597310D01*
X1010201Y1596998*
X1010201D02*
X1008155D01*
X1009746D02*
X1011337Y1593560D01*
X1013383Y1600123D02*
Y1593560D01*
Y1600123D02*
X1016337D01*
X1013383Y1596998D02*
X1015201D01*
X1013383Y1593560D02*
X1016337D01*
X1021565Y1599185D02*
X1021110Y1599810D01*
X1020428Y1600123*
X1020428D02*
X1019519D01*
X1019519D02*
X1018837Y1599810D01*
X1018383Y1599185*
Y1598560*
X1018610Y1597935*
X1018837Y1597623*
X1018837D02*
X1019292Y1597310D01*
X1020655Y1596685*
X1021110Y1596373*
X1021110D02*
X1021337Y1596060D01*
X1021565Y1595435*
Y1594498*
X1021565D02*
X1021110Y1593873D01*
X1021110D02*
X1020428Y1593560D01*
X1019519*
X1018837Y1593873*
X1018837D02*
X1018383Y1594498D01*
X1026792Y1599185D02*
X1026337Y1599810D01*
X1025655Y1600123*
X1025655D02*
X1024746D01*
X1024746D02*
X1024065Y1599810D01*
X1023610Y1599185*
Y1598560*
X1023837Y1597935*
X1024065Y1597623*
X1024065D02*
X1024519Y1597310D01*
X1025883Y1596685*
X1026337Y1596373*
X1026337D02*
X1026565Y1596060D01*
X1026792Y1595435*
Y1594498*
X1026792D02*
X1026337Y1593873D01*
X1026337D02*
X1025655Y1593560D01*
X1024746*
X1024065Y1593873*
X1024065D02*
X1023610Y1594498D01*
X1030201Y1600123D02*
X1029746Y1599810D01*
X1029292Y1599185*
X1029065Y1598560*
X1028837Y1597623*
X1028837D02*
Y1596060D01*
X1029065Y1595123*
X1029065D02*
X1029292Y1594498D01*
X1029292D02*
X1029746Y1593873D01*
X1029746D02*
X1030201Y1593560D01*
X1031110*
X1031565Y1593873*
X1031565D02*
X1032019Y1594498D01*
X1032019D02*
X1032246Y1595123D01*
X1032246D02*
X1032474Y1596060D01*
Y1597623*
X1032474D02*
X1032246Y1598560D01*
X1032019Y1599185*
X1031565Y1599810*
X1031110Y1600123*
X1031110D02*
X1030201D01*
X1034519D02*
Y1593560D01*
Y1600123D02*
X1036565D01*
X1036565D02*
X1037246Y1599810D01*
X1037474Y1599498*
X1037474D02*
X1037701Y1598873D01*
X1037701D02*
Y1598248D01*
X1037701D02*
X1037474Y1597623D01*
X1037474D02*
X1037246Y1597310D01*
X1036565Y1596998*
X1036565D02*
X1034519D01*
X1036110D02*
X1037701Y1593560D01*
X1048383Y1598560D02*
X1048155Y1599185D01*
X1047701Y1599810*
X1047246Y1600123*
X1047246D02*
X1046337D01*
X1046337D02*
X1045883Y1599810D01*
X1045428Y1599185*
X1045201Y1598560*
X1044974Y1597623*
X1044974D02*
Y1596060D01*
X1045201Y1595123*
X1045201D02*
X1045428Y1594498D01*
X1045428D02*
X1045883Y1593873D01*
X1045883D02*
X1046337Y1593560D01*
X1047246*
X1047701Y1593873*
X1047701D02*
X1048155Y1594498D01*
X1048155D02*
X1048383Y1595123D01*
X1051792Y1600123D02*
X1051337Y1599810D01*
X1050883Y1599185*
X1050655Y1598560*
X1050428Y1597623*
X1050428D02*
Y1596060D01*
X1050655Y1595123*
X1050655D02*
X1050883Y1594498D01*
X1050883D02*
X1051337Y1593873D01*
X1051337D02*
X1051792Y1593560D01*
X1052701*
X1053155Y1593873*
X1053155D02*
X1053610Y1594498D01*
X1053610D02*
X1053837Y1595123D01*
X1053837D02*
X1054065Y1596060D01*
Y1597623*
X1054065D02*
X1053837Y1598560D01*
X1053610Y1599185*
X1053155Y1599810*
X1052701Y1600123*
X1052701D02*
X1051792D01*
X1056110D02*
Y1593560D01*
Y1600123D02*
X1059292Y1593560D01*
Y1600123D02*
Y1593560D01*
X1062928Y1600123D02*
Y1593560D01*
X1061337Y1600123D02*
X1064519D01*
X1066565D02*
Y1593560D01*
Y1600123D02*
X1068610D01*
X1068610D02*
X1069292Y1599810D01*
X1069519Y1599498*
X1069519D02*
X1069746Y1598873D01*
X1069746D02*
Y1598248D01*
X1069746D02*
X1069519Y1597623D01*
X1069519D02*
X1069292Y1597310D01*
X1068610Y1596998*
X1068610D02*
X1066565D01*
X1068155D02*
X1069746Y1593560D01*
X1073155Y1600123D02*
X1072701Y1599810D01*
X1072246Y1599185*
X1072019Y1598560*
X1071792Y1597623*
X1071792D02*
Y1596060D01*
X1072019Y1595123*
X1072019D02*
X1072246Y1594498D01*
X1072246D02*
X1072701Y1593873D01*
X1072701D02*
X1073155Y1593560D01*
X1074065*
X1074519Y1593873*
X1074519D02*
X1074974Y1594498D01*
X1074974D02*
X1075201Y1595123D01*
X1075201D02*
X1075428Y1596060D01*
Y1597623*
X1075428D02*
X1075201Y1598560D01*
X1074974Y1599185*
X1074519Y1599810*
X1074065Y1600123*
X1074065D02*
X1073155D01*
X1077474D02*
Y1593560D01*
X1080201*
X1085428Y1599185D02*
X1084974Y1599810D01*
X1084292Y1600123*
X1084292D02*
X1083383D01*
X1083383D02*
X1082701Y1599810D01*
X1082246Y1599185*
Y1598560*
X1082474Y1597935*
X1082701Y1597623*
X1082701D02*
X1083155Y1597310D01*
X1084519Y1596685*
X1084974Y1596373*
X1084974D02*
X1085201Y1596060D01*
X1085428Y1595435*
Y1594498*
X1085428D02*
X1084974Y1593873D01*
X1084974D02*
X1084292Y1593560D01*
X1083383*
X1082701Y1593873*
X1082701D02*
X1082246Y1594498D01*
X1096110Y1598560D02*
X1095883Y1599185D01*
X1095428Y1599810*
X1094974Y1600123*
X1094974D02*
X1094065D01*
X1094065D02*
X1093610Y1599810D01*
X1093155Y1599185*
X1092928Y1598560*
X1092701Y1597623*
X1092701D02*
Y1596060D01*
X1092928Y1595123*
X1092928D02*
X1093155Y1594498D01*
X1093155D02*
X1093610Y1593873D01*
X1093610D02*
X1094065Y1593560D01*
X1094974*
X1095428Y1593873*
X1095428D02*
X1095883Y1594498D01*
X1095883D02*
X1096110Y1595123D01*
X1099519Y1600123D02*
X1099065Y1599810D01*
X1098610Y1599185*
X1098383Y1598560*
X1098155Y1597623*
X1098155D02*
Y1596060D01*
X1098383Y1595123*
X1098383D02*
X1098610Y1594498D01*
X1098610D02*
X1099065Y1593873D01*
X1099065D02*
X1099519Y1593560D01*
X1100428*
X1100883Y1593873*
X1100883D02*
X1101337Y1594498D01*
X1101337D02*
X1101565Y1595123D01*
X1101565D02*
X1101792Y1596060D01*
Y1597623*
X1101792D02*
X1101565Y1598560D01*
X1101337Y1599185*
X1100883Y1599810*
X1100428Y1600123*
X1100428D02*
X1099519D01*
X1103837D02*
Y1593560D01*
Y1600123D02*
X1105883D01*
X1105883D02*
X1106565Y1599810D01*
X1106792Y1599498*
X1106792D02*
X1107019Y1598873D01*
X1107019D02*
Y1598248D01*
X1107019D02*
X1106792Y1597623D01*
X1106792D02*
X1106565Y1597310D01*
X1105883Y1596998*
X1105883D02*
X1103837D01*
X1105428D02*
X1107019Y1593560D01*
X1109065Y1600123D02*
Y1593560D01*
Y1600123D02*
X1111110D01*
X1111110D02*
X1111792Y1599810D01*
X1112019Y1599498*
X1112019D02*
X1112246Y1598873D01*
X1112246D02*
Y1597935D01*
X1112019Y1597310*
X1111792Y1596998*
X1111792D02*
X1111110Y1596685D01*
X1109065*
X1115655Y1600123D02*
X1115201Y1599810D01*
X1114746Y1599185*
X1114519Y1598560*
X1114292Y1597623*
X1114292D02*
Y1596060D01*
X1114519Y1595123*
X1114519D02*
X1114746Y1594498D01*
X1114746D02*
X1115201Y1593873D01*
X1115201D02*
X1115655Y1593560D01*
X1116565*
X1117019Y1593873*
X1117019D02*
X1117474Y1594498D01*
X1117474D02*
X1117701Y1595123D01*
X1117701D02*
X1117928Y1596060D01*
Y1597623*
X1117928D02*
X1117701Y1598560D01*
X1117474Y1599185*
X1117019Y1599810*
X1116565Y1600123*
X1116565D02*
X1115655D01*
X1119974D02*
Y1593560D01*
Y1600123D02*
X1122019D01*
X1122019D02*
X1122701Y1599810D01*
X1122928Y1599498*
X1122928D02*
X1123155Y1598873D01*
X1123155D02*
Y1598248D01*
X1123155D02*
X1122928Y1597623D01*
X1122928D02*
X1122701Y1597310D01*
X1122019Y1596998*
X1122019D02*
X1119974D01*
X1121565D02*
X1123155Y1593560D01*
X1127019Y1600123D02*
X1125201Y1593560D01*
X1127019Y1600123D02*
X1128837Y1593560D01*
X1125883Y1595748D02*
X1128155D01*
X1132474Y1600123D02*
Y1593560D01*
X1130883Y1600123D02*
X1134065D01*
X1136110D02*
Y1593560D01*
X1139519Y1600123D02*
X1139065Y1599810D01*
X1138610Y1599185*
X1138383Y1598560*
X1138155Y1597623*
X1138155D02*
Y1596060D01*
X1138383Y1595123*
X1138383D02*
X1138610Y1594498D01*
X1138610D02*
X1139065Y1593873D01*
X1139065D02*
X1139519Y1593560D01*
X1140428*
X1140883Y1593873*
X1140883D02*
X1141337Y1594498D01*
X1141337D02*
X1141565Y1595123D01*
X1141565D02*
X1141792Y1596060D01*
Y1597623*
X1141792D02*
X1141565Y1598560D01*
X1141337Y1599185*
X1140883Y1599810*
X1140428Y1600123*
X1140428D02*
X1139519D01*
X1143837D02*
Y1593560D01*
Y1600123D02*
X1147019Y1593560D01*
Y1600123D02*
Y1593560D01*
X1186170Y1589063D02*
Y1582500D01*
X1188897*
X1192761Y1589063D02*
X1190943Y1582500D01*
X1192761Y1589063D02*
X1194579Y1582500D01*
X1191625Y1584688D02*
X1193897D01*
X1196625Y1589063D02*
X1198443Y1585938D01*
X1198443D02*
Y1582500D01*
X1200261Y1589063D02*
X1198443Y1585938D01*
X1202306Y1589063D02*
Y1582500D01*
Y1589063D02*
X1205261D01*
X1202306Y1585938D02*
X1204125D01*
X1202306Y1582500D02*
X1205261D01*
X1207306Y1589063D02*
Y1582500D01*
Y1589063D02*
X1209352D01*
X1209352D02*
X1210034Y1588750D01*
X1210261Y1588438*
X1210261D02*
X1210488Y1587813D01*
X1210488D02*
Y1587188D01*
X1210488D02*
X1210261Y1586563D01*
X1210261D02*
X1210034Y1586250D01*
X1209352Y1585938*
X1209352D02*
X1207306D01*
X1208897D02*
X1210488Y1582500D01*
X1186170Y1574063D02*
Y1567500D01*
Y1574063D02*
X1188215D01*
X1188215D02*
X1188897Y1573750D01*
X1189125Y1573438*
X1189125D02*
X1189352Y1572813D01*
X1189352D02*
Y1571875D01*
X1189125Y1571250*
X1188897Y1570938*
X1188897D02*
X1188215Y1570625D01*
X1186170*
X1193215Y1574063D02*
X1191397Y1567500D01*
X1193215Y1574063D02*
X1195034Y1567500D01*
X1192079Y1569688D02*
X1194352D01*
X1197079Y1574063D02*
Y1567500D01*
Y1574063D02*
X1199125D01*
X1199125D02*
X1199806Y1573750D01*
X1200034Y1573438*
X1200034D02*
X1200261Y1572813D01*
X1200261D02*
Y1572188D01*
X1200261D02*
X1200034Y1571563D01*
X1200034D02*
X1199806Y1571250D01*
X1199125Y1570938*
X1199125D02*
X1197079D01*
X1198670D02*
X1200261Y1567500D01*
X1203897Y1574063D02*
Y1567500D01*
X1202306Y1574063D02*
X1205488D01*
X1212761D02*
Y1567500D01*
Y1574063D02*
X1215943Y1567500D01*
Y1574063D02*
Y1567500D01*
X1219352Y1574063D02*
X1218897Y1573750D01*
X1218443Y1573125*
X1218215Y1572500*
X1217988Y1571563*
X1217988D02*
Y1570000D01*
X1218215Y1569063*
X1218215D02*
X1218443Y1568438D01*
X1218443D02*
X1218897Y1567813D01*
X1218897D02*
X1219352Y1567500D01*
X1220261*
X1220715Y1567813*
X1220715D02*
X1221170Y1568438D01*
X1221170D02*
X1221397Y1569063D01*
X1221397D02*
X1221625Y1570000D01*
Y1571563*
X1221625D02*
X1221397Y1572500D01*
X1221170Y1573125*
X1220715Y1573750*
X1220261Y1574063*
X1220261D02*
X1219352D01*
X1186170Y1559063D02*
Y1552500D01*
Y1559063D02*
X1188215D01*
X1188215D02*
X1188897Y1558750D01*
X1189125Y1558438*
X1189125D02*
X1189352Y1557813D01*
X1189352D02*
Y1557188D01*
X1189352D02*
X1189125Y1556563D01*
X1189125D02*
X1188897Y1556250D01*
X1188215Y1555938*
X1188215D02*
X1186170D01*
X1187761D02*
X1189352Y1552500D01*
X1191397Y1559063D02*
Y1552500D01*
Y1559063D02*
X1194352D01*
X1191397Y1555938D02*
X1193215D01*
X1191397Y1552500D02*
X1194352D01*
X1196397Y1559063D02*
X1198215Y1552500D01*
X1200034Y1559063D02*
X1198215Y1552500D01*
X1272988Y1559063D02*
X1271170Y1552500D01*
X1272988Y1559063D02*
X1274806Y1552500D01*
X1271852Y1554688D02*
X1274125D01*
X1185170Y1543563D02*
Y1537000D01*
Y1543563D02*
X1186761D01*
X1186761D02*
X1187443Y1543250D01*
X1187897Y1542625*
X1188125Y1542000*
X1188352Y1541063*
X1188352D02*
Y1539500D01*
X1188125Y1538563*
X1188125D02*
X1187897Y1537938D01*
X1187897D02*
X1187443Y1537313D01*
X1187443D02*
X1186761Y1537000D01*
X1185170*
X1192215Y1543563D02*
X1190397Y1537000D01*
X1192215Y1543563D02*
X1194034Y1537000D01*
X1191079Y1539188D02*
X1193352D01*
X1197670Y1543563D02*
Y1537000D01*
X1196079Y1543563D02*
X1199261D01*
X1201306D02*
Y1537000D01*
Y1543563D02*
X1204261D01*
X1201306Y1540438D02*
X1203125D01*
X1201306Y1537000D02*
X1204261D01*
X985610Y1584873D02*
X986065Y1585185D01*
X986746Y1586123*
X986746D02*
Y1579560D01*
X991974Y1586123D02*
X989701Y1579560D01*
X988792Y1586123D02*
X991974D01*
X994019Y1582373D02*
X998110D01*
X1002883Y1585185D02*
X1002655Y1585810D01*
X1001974Y1586123*
X1001974D02*
X1001519D01*
X1001519D02*
X1000837Y1585810D01*
X1000383Y1584873*
X1000383D02*
X1000155Y1583310D01*
Y1581748*
X1000155D02*
X1000383Y1580498D01*
X1000383D02*
X1000837Y1579873D01*
X1000837D02*
X1001519Y1579560D01*
X1001746*
X1002428Y1579873*
X1002428D02*
X1002883Y1580498D01*
X1002883D02*
X1003110Y1581435D01*
Y1581748*
X1003110D02*
X1002883Y1582685D01*
X1002428Y1583310*
X1001746Y1583623*
X1001746D02*
X1001519D01*
X1001519D02*
X1000837Y1583310D01*
X1000383Y1582685*
X1000155Y1581748*
X1006519Y1586123D02*
X1005837Y1585810D01*
X1005383Y1584873*
X1005383D02*
X1005155Y1583310D01*
Y1582373*
X1005155D02*
X1005383Y1580810D01*
X1005837Y1579873*
X1005837D02*
X1006519Y1579560D01*
X1006974*
X1007655Y1579873*
X1007655D02*
X1008110Y1580810D01*
X1008337Y1582373*
X1008337D02*
Y1583310D01*
X1008110Y1584873*
X1008110D02*
X1007655Y1585810D01*
X1006974Y1586123*
X1006974D02*
X1006519D01*
X1011746D02*
X1011065Y1585810D01*
X1010610Y1584873*
X1010610D02*
X1010383Y1583310D01*
Y1582373*
X1010383D02*
X1010610Y1580810D01*
X1011065Y1579873*
X1011065D02*
X1011746Y1579560D01*
X1012201*
X1012883Y1579873*
X1012883D02*
X1013337Y1580810D01*
X1013565Y1582373*
X1013565D02*
Y1583310D01*
X1013337Y1584873*
X1013337D02*
X1012883Y1585810D01*
X1012201Y1586123*
X1012201D02*
X1011746D01*
X1018565D02*
X1016292D01*
X1016292D02*
X1016065Y1583310D01*
X1016292Y1583623*
X1016292D02*
X1016974Y1583935D01*
X1017655*
X1018337Y1583623*
X1018337D02*
X1018792Y1582998D01*
X1018792D02*
X1019019Y1582060D01*
X1018792Y1581435*
X1018565Y1580498*
X1018565D02*
X1018110Y1579873D01*
X1018110D02*
X1017428Y1579560D01*
X1016746*
X1016065Y1579873*
X1016065D02*
X1015837Y1580185D01*
X1015610Y1580810*
X1024019Y1586123D02*
X1021746D01*
X1021746D02*
X1021519Y1583310D01*
X1021746Y1583623*
X1021746D02*
X1022428Y1583935D01*
X1023110*
X1023792Y1583623*
X1023792D02*
X1024246Y1582998D01*
X1024246D02*
X1024474Y1582060D01*
X1024246Y1581435*
X1024019Y1580498*
X1024019D02*
X1023565Y1579873D01*
X1023565D02*
X1022883Y1579560D01*
X1022201*
X1021519Y1579873*
X1021519D02*
X1021292Y1580185D01*
X1021065Y1580810*
X1026519Y1584873D02*
X1026974Y1585185D01*
X1027655Y1586123*
X1027655D02*
Y1579560D01*
X1029701Y1582373D02*
X1033792D01*
X1035837Y1584873D02*
X1036292Y1585185D01*
X1036974Y1586123*
X1036974D02*
Y1579560D01*
X1039019Y1584873D02*
X1039474Y1585185D01*
X1040155Y1586123*
X1040155D02*
Y1579560D01*
X1042428Y1584560D02*
Y1584873D01*
X1042428D02*
X1042655Y1585498D01*
X1042655D02*
X1042883Y1585810D01*
X1043337Y1586123*
X1043337D02*
X1044246D01*
X1044246D02*
X1044701Y1585810D01*
X1044928Y1585498*
X1044928D02*
X1045155Y1584873D01*
X1045155D02*
Y1584248D01*
X1045155D02*
X1044928Y1583623D01*
X1044928D02*
X1044474Y1582685D01*
X1042201Y1579560*
X1045383*
X1052655Y1586123D02*
Y1579560D01*
Y1586123D02*
X1054701D01*
X1054701D02*
X1055383Y1585810D01*
X1055610Y1585498*
X1055610D02*
X1055837Y1584873D01*
X1055837D02*
Y1584248D01*
X1055837D02*
X1055610Y1583623D01*
X1055610D02*
X1055383Y1583310D01*
X1054701Y1582998*
X1054701D02*
X1052655D01*
X1054246D02*
X1055837Y1579560D01*
X1057883Y1586123D02*
Y1579560D01*
Y1586123D02*
X1060837D01*
X1057883Y1582998D02*
X1059701D01*
X1057883Y1579560D02*
X1060837D01*
X1062883Y1586123D02*
X1064701Y1579560D01*
X1066519Y1586123D02*
X1064701Y1579560D01*
X1075610Y1586123D02*
X1073792Y1579560D01*
X1075610Y1586123D02*
X1077428Y1579560D01*
X1074474Y1581748D02*
X1076746D01*
X1246170Y1542313D02*
X1246625Y1542625D01*
X1247306Y1543563*
X1247306D02*
Y1537000D01*
X1249806Y1543563D02*
X1252306D01*
X1252306D02*
X1250943Y1541063D01*
X1250943D02*
X1251625D01*
X1251625D02*
X1252079Y1540750D01*
X1252306Y1540438*
X1252306D02*
X1252534Y1539500D01*
Y1538875*
X1252306Y1537938*
X1252306D02*
X1251852Y1537313D01*
X1251852D02*
X1251170Y1537000D01*
X1250488*
X1249806Y1537313*
X1249806D02*
X1249579Y1537625D01*
X1249352Y1538250*
X1265034Y1543563D02*
Y1537000D01*
Y1543563D02*
X1266852Y1537000D01*
X1268670Y1543563D02*
X1266852Y1537000D01*
X1268670Y1543563D02*
Y1537000D01*
X1273443Y1541375D02*
Y1537000D01*
Y1540438D02*
X1272988Y1541063D01*
X1272988D02*
X1272534Y1541375D01*
X1271852*
X1271397Y1541063*
X1271397D02*
X1270943Y1540438D01*
X1270943D02*
X1270715Y1539500D01*
Y1538875*
X1270943Y1537938*
X1270943D02*
X1271397Y1537313D01*
X1271397D02*
X1271852Y1537000D01*
X1272534*
X1272988Y1537313*
X1272988D02*
X1273443Y1537938D01*
X1275488Y1541375D02*
Y1537000D01*
Y1539500D02*
X1275715Y1540438D01*
X1275715D02*
X1276170Y1541063D01*
X1276170D02*
X1276625Y1541375D01*
X1277306*
X1282079Y1540438D02*
X1281625Y1541063D01*
X1281625D02*
X1281170Y1541375D01*
X1280488*
X1280034Y1541063*
X1280034D02*
X1279579Y1540438D01*
X1279579D02*
X1279352Y1539500D01*
Y1538875*
X1279579Y1537938*
X1279579D02*
X1280034Y1537313D01*
X1280034D02*
X1280488Y1537000D01*
X1281170*
X1281625Y1537313*
X1281625D02*
X1282079Y1537938D01*
X1284125Y1543563D02*
Y1537000D01*
Y1540125D02*
X1284806Y1541063D01*
X1284806D02*
X1285261Y1541375D01*
X1285943*
X1286397Y1541063*
X1286397D02*
X1286625Y1540125D01*
Y1537000*
X1294125Y1542000D02*
Y1542313D01*
X1294125D02*
X1294352Y1542938D01*
X1294352D02*
X1294579Y1543250D01*
X1295034Y1543563*
X1295034D02*
X1295943D01*
X1295943D02*
X1296397Y1543250D01*
X1296625Y1542938*
X1296625D02*
X1296852Y1542313D01*
X1296852D02*
Y1541688D01*
X1296852D02*
X1296625Y1541063D01*
X1296625D02*
X1296170Y1540125D01*
X1293897Y1537000*
X1297079*
X1300488Y1543563D02*
X1299806Y1543250D01*
X1299352Y1542313*
X1299352D02*
X1299125Y1540750D01*
Y1539813*
X1299125D02*
X1299352Y1538250D01*
X1299806Y1537313*
X1299806D02*
X1300488Y1537000D01*
X1300943*
X1301625Y1537313*
X1301625D02*
X1302079Y1538250D01*
X1302306Y1539813*
X1302306D02*
Y1540750D01*
X1302079Y1542313*
X1302079D02*
X1301625Y1543250D01*
X1300943Y1543563*
X1300943D02*
X1300488D01*
X1304352Y1542313D02*
X1304806Y1542625D01*
X1305488Y1543563*
X1305488D02*
Y1537000D01*
X1309806Y1543563D02*
X1307534Y1539188D01*
X1307534D02*
X1310943D01*
X1309806Y1543563D02*
Y1537000D01*
X1237306Y1587406D02*
X1235670Y1581500D01*
X1237306Y1587406D02*
X1238943Y1581500D01*
X1236284Y1583469D02*
X1238329D01*
X1243647Y1586563D02*
X1243238Y1587125D01*
X1242625Y1587406*
X1241806*
X1241193Y1587125*
X1240784Y1586563*
X1240784D02*
Y1586000D01*
X1240988Y1585438*
X1240988D02*
X1241193Y1585156D01*
X1241602Y1584875*
X1242829Y1584313*
X1242829D02*
X1243238Y1584031D01*
X1243443Y1583750*
X1243647Y1583188*
X1243647D02*
Y1582344D01*
X1243238Y1581781*
X1242625Y1581500*
X1241806*
X1241193Y1581781*
X1240784Y1582344*
X1248352Y1586563D02*
X1247943Y1587125D01*
X1247329Y1587406*
X1246511*
X1245897Y1587125*
X1245488Y1586563*
X1245488D02*
Y1586000D01*
X1245693Y1585438*
X1245693D02*
X1245897Y1585156D01*
X1246306Y1584875*
X1247534Y1584313*
X1247534D02*
X1247943Y1584031D01*
X1248147Y1583750*
X1248352Y1583188*
X1248352D02*
Y1582344D01*
X1247943Y1581781*
X1247329Y1581500*
X1246511*
X1245897Y1581781*
X1245488Y1582344*
X1250193Y1587406D02*
Y1581500D01*
Y1587406D02*
X1252852D01*
X1250193Y1584594D02*
X1251829D01*
X1250193Y1581500D02*
X1252852D01*
X1254693Y1587406D02*
Y1581500D01*
Y1587406D02*
X1256329Y1581500D01*
X1257965Y1587406D02*
X1256329Y1581500D01*
X1257965Y1587406D02*
Y1581500D01*
X1259806Y1587406D02*
Y1581500D01*
Y1587406D02*
X1261647D01*
X1262261Y1587125*
X1262465Y1586844*
X1262670Y1586281*
Y1585719*
X1262465Y1585156*
X1262261Y1584875*
X1261647Y1584594*
X1259806D02*
X1261647D01*
X1262261Y1584313*
X1262261D02*
X1262465Y1584031D01*
X1262670Y1583469*
Y1582625*
X1262465Y1582063*
X1262465D02*
X1262261Y1581781D01*
X1261647Y1581500*
X1259806*
X1264511Y1587406D02*
Y1581500D01*
X1266965*
X1268806Y1587406D02*
X1270443Y1584594D01*
Y1581500*
X1272079Y1587406D02*
X1270443Y1584594D01*
X1278625Y1587406D02*
Y1581500D01*
Y1587406D02*
X1280056D01*
X1280670Y1587125*
X1281079Y1586563*
X1281079D02*
X1281284Y1586000D01*
X1281488Y1585156*
Y1583750*
X1281284Y1582906*
X1281079Y1582344*
X1280670Y1581781*
X1280056Y1581500*
X1278625*
X1283329Y1587406D02*
Y1581500D01*
Y1587406D02*
X1285170D01*
X1285784Y1587125*
X1285988Y1586844*
X1286193Y1586281*
Y1585719*
X1285988Y1585156*
X1285784Y1584875*
X1285170Y1584594*
X1283329*
X1284761D02*
X1286193Y1581500D01*
X1289670Y1587406D02*
X1288034Y1581500D01*
X1289670Y1587406D02*
X1291306Y1581500D01*
X1288647Y1583469D02*
X1290693D01*
X1293147Y1587406D02*
X1294170Y1581500D01*
X1295193Y1587406D02*
X1294170Y1581500D01*
X1295193Y1587406D02*
X1296215Y1581500D01*
X1297238Y1587406D02*
X1296215Y1581500D01*
X1299079Y1587406D02*
Y1581500D01*
X1300920Y1587406D02*
Y1581500D01*
Y1587406D02*
X1303784Y1581500D01*
Y1587406D02*
Y1581500D01*
X1308693Y1586000D02*
X1308488Y1586563D01*
X1308488D02*
X1308079Y1587125D01*
X1307670Y1587406*
X1306852*
X1306443Y1587125*
X1306034Y1586563*
X1306034D02*
X1305829Y1586000D01*
X1305625Y1585156*
Y1583750*
X1305829Y1582906*
X1306034Y1582344*
X1306443Y1581781*
X1306852Y1581500*
X1307670*
X1308079Y1581781*
X1308488Y1582344*
X1308693Y1582906*
Y1583750*
X1307670D02*
X1308693D01*
X1316670Y1587406D02*
Y1581500D01*
X1315238Y1587406D02*
X1318102D01*
X1321170D02*
X1320761Y1587125D01*
X1320352Y1586563*
X1320352D02*
X1320147Y1586000D01*
X1319943Y1585156*
Y1583750*
X1320147Y1582906*
X1320352Y1582344*
X1320761Y1581781*
X1321170Y1581500*
X1321988*
X1322397Y1581781*
X1322806Y1582344*
X1323011Y1582906*
X1323215Y1583750*
Y1585156*
X1323011Y1586000*
X1322806Y1586563*
X1322806D02*
X1322397Y1587125D01*
X1321988Y1587406*
X1321170*
X1325056D02*
Y1581500D01*
Y1587406D02*
X1326897D01*
X1327511Y1587125*
X1327715Y1586844*
X1327920Y1586281*
Y1585438*
X1327920D02*
X1327715Y1584875D01*
X1327511Y1584594*
X1326897Y1584313*
X1326897D02*
X1325056D01*
X1000000Y1000000D02*
X1267717D01*
Y1458000*
X1000000*
Y1000000*
X1176170Y1612500D02*
X1336170D01*
Y1532500*
X1176170*
Y1612500*
Y1592500D02*
X1336170D01*
X1176170Y1577500D02*
X1336170D01*
X1176170Y1562500D02*
X1336170D01*
X1226170Y1592500D02*
Y1532500D01*
X1176170Y1547500D02*
X1336170D01*
G54D14*
X1161280Y1367657D02*
X1183720D01*
Y1387343*
X1161280*
Y1367657*
X1191442Y1396500D02*
X1191286Y1396727D01*
X1190817Y1397068*
X1194098*
X1190817Y1398659D02*
X1190973Y1398318D01*
X1191286Y1398205*
X1191598*
X1191911Y1398318*
X1192067Y1398545*
X1192223Y1399000*
X1192380Y1399341*
X1192692Y1399568*
X1193005Y1399682*
X1193473*
X1193786Y1399568*
X1193942Y1399455*
X1194098Y1399114*
Y1398659*
X1193942Y1398318*
X1193786Y1398205*
X1193473Y1398091*
X1193005*
X1192692Y1398205*
X1192380Y1398432*
X1192223Y1398773*
X1192067Y1399227*
X1191911Y1399455*
X1191598Y1399568*
X1191286*
X1190973Y1399455*
X1190817Y1399114*
Y1398659*
X1190442Y1058000D02*
X1190286Y1058227D01*
X1189817Y1058568*
X1193098*
X1161870Y1392795D02*
X1183130D01*
Y1412205*
X1161870*
Y1392795*
X1076274Y1061500D02*
X1076431Y1061273D01*
X1076899Y1060932*
X1073618*
X1076899Y1059341D02*
X1076743Y1059682D01*
X1076431Y1059795*
X1076118*
X1075806Y1059682*
X1075649Y1059455*
X1075493Y1059000*
X1075337Y1058659*
X1075024Y1058432*
X1074712Y1058318*
X1074243*
X1073931Y1058432*
X1073774Y1058545*
X1073618Y1058886*
Y1059341*
X1073774Y1059682*
X1073931Y1059795*
X1074243Y1059909*
X1074712*
X1075024Y1059795*
X1075337Y1059568*
X1075493Y1059227*
X1075649Y1058773*
X1075806Y1058545*
X1076118Y1058432*
X1076431*
X1076743Y1058545*
X1076899Y1058886*
Y1059341*
X1077274Y1400000D02*
X1077431Y1399773D01*
X1077899Y1399432*
X1074618*
X1105720Y1387343D02*
X1083280D01*
Y1367657*
X1105720*
Y1387343*
X1082870Y1392795D02*
X1104130D01*
Y1412205*
X1082870*
Y1392795*
X1171068Y1377594D02*
X1170955Y1377906D01*
X1170727Y1378219*
X1170500Y1378375*
X1170045*
X1169818Y1378219*
X1169591Y1377906*
X1169477Y1377594*
X1169364Y1377125*
Y1376344*
X1169477Y1375875*
X1169591Y1375562*
X1169591D02*
X1169818Y1375250D01*
X1170045Y1375094*
X1170500*
X1170727Y1375250*
X1170955Y1375562*
X1170955D02*
X1171068Y1375875D01*
X1172205Y1377594D02*
Y1377750D01*
X1172318Y1378062*
X1172318D02*
X1172432Y1378219D01*
X1172659Y1378375*
X1173114*
X1173341Y1378219*
X1173455Y1378062*
X1173455D02*
X1173568Y1377750D01*
Y1377437*
X1173568D02*
X1173455Y1377125D01*
X1173227Y1376656*
X1172091Y1375094*
X1173682*
X1211716Y1182078D02*
Y1178797D01*
X1210920Y1182078D02*
X1212511D01*
X1213648Y1181297D02*
Y1181453D01*
X1213761Y1181766*
X1213875Y1181922*
X1214102Y1182078*
X1214557*
X1214784Y1181922*
X1214898Y1181766*
X1215011Y1181453*
Y1181141*
X1214898Y1180828*
X1214670Y1180359*
X1213534Y1178797*
X1215125*
X1179406Y1069956D02*
Y1066675D01*
Y1069956D02*
X1180202D01*
X1180543Y1069800*
X1180770Y1069488*
X1180770D02*
X1180884Y1069175D01*
X1180997Y1068706*
Y1067925*
X1180884Y1067456*
X1180770Y1067144*
X1180543Y1066831*
X1180202Y1066675*
X1179406*
X1183497Y1068863D02*
X1183384Y1068394D01*
X1183156Y1068081*
X1182815Y1067925*
X1182702*
X1182361Y1068081*
X1182134Y1068394*
X1182020Y1068863*
X1182020D02*
Y1069019D01*
X1182134Y1069488*
X1182134D02*
X1182361Y1069800D01*
X1182702Y1069956*
X1182815*
X1183156Y1069800*
X1183384Y1069488*
X1183384D02*
X1183497Y1068863D01*
X1183497D02*
Y1068081D01*
X1183384Y1067300*
X1183156Y1066831*
X1182815Y1066675*
X1182588*
X1182247Y1066831*
X1182134Y1067144*
X1170469Y1400227D02*
X1173750D01*
X1170469D02*
Y1401705D01*
X1172031Y1400227D02*
Y1401136D01*
X1171250Y1402841D02*
X1171094D01*
X1170781Y1402955*
X1170625Y1403068*
X1170469Y1403295*
Y1403750*
X1170625Y1403977*
X1170781Y1404091*
X1171094Y1404205*
X1171406*
X1171719Y1404091*
X1172187Y1403864*
X1172187D02*
X1173750Y1402727D01*
Y1404318*
X1052977Y1325531D02*
Y1322250D01*
X1052182Y1325531D02*
X1053773D01*
X1054795Y1324906D02*
X1055023Y1325063D01*
X1055023D02*
X1055364Y1325531D01*
Y1322250*
X1084986Y1157075D02*
Y1153794D01*
Y1157075D02*
X1085782D01*
X1086123Y1156919*
X1086350Y1156606*
X1086464Y1156294*
X1086577Y1155825*
Y1155044*
X1086464Y1154575*
X1086350Y1154263*
X1086350D02*
X1086123Y1153950D01*
X1085782Y1153794*
X1084986*
X1087827Y1157075D02*
X1089077D01*
X1088395Y1155825*
X1088736*
X1088964Y1155669*
X1089077Y1155513*
X1089077D02*
X1089191Y1155044D01*
Y1154731*
X1089077Y1154263*
X1089077D02*
X1088850Y1153950D01*
X1088509Y1153794*
X1088168*
X1087827Y1153950*
X1087714Y1154106*
X1087600Y1154419*
X1187719Y1226213D02*
X1191000D01*
X1187719D02*
Y1227008D01*
X1187875Y1227349*
X1188187Y1227576*
X1188187D02*
X1188500Y1227690D01*
X1188969Y1227804*
X1189750*
X1190219Y1227690*
X1190531Y1227576*
X1190844Y1227349*
X1191000Y1227008*
Y1226213*
X1188344Y1228826D02*
X1188187Y1229054D01*
X1188187D02*
X1187719Y1229394D01*
X1191000*
X1187719Y1230644D02*
Y1231894D01*
X1188969Y1231213*
Y1231554*
X1189125Y1231781*
X1189281Y1231894*
X1189750Y1232008*
X1190062*
X1190062D02*
X1190531Y1231894D01*
X1190844Y1231667*
X1191000Y1231326*
Y1230985*
X1190844Y1230644*
X1190687Y1230531*
X1190687D02*
X1190375Y1230417D01*
X1085500Y1077781D02*
Y1074500D01*
Y1077781D02*
X1086295D01*
X1086636Y1077625*
X1086864Y1077313*
X1086864D02*
X1086977Y1077000D01*
X1087091Y1076531*
Y1075750*
X1086977Y1075281*
X1086864Y1074969*
X1086636Y1074656*
X1086295Y1074500*
X1085500*
X1088114Y1077156D02*
X1088341Y1077313D01*
X1088341D02*
X1088682Y1077781D01*
Y1074500*
X1180725Y1154236D02*
X1184006D01*
X1180725D02*
Y1155032D01*
X1180881Y1155373*
X1181194Y1155600*
X1181506Y1155714*
X1181975Y1155827*
X1182756*
X1183225Y1155714*
X1183538Y1155600*
X1183538D02*
X1183850Y1155373D01*
X1184006Y1155032*
Y1154236*
X1181350Y1156850D02*
X1181194Y1157077D01*
X1180725Y1157418*
X1184006*
X1181350Y1158441D02*
X1181194Y1158668D01*
X1180725Y1159009*
X1184006*
X1180714Y1315216D02*
X1183995D01*
X1180714D02*
Y1316012D01*
X1180870Y1316353*
X1181182Y1316580*
X1181495Y1316694*
X1181964Y1316807*
X1182745*
X1183214Y1316694*
X1183526Y1316580*
X1183839Y1316353*
X1183995Y1316012*
Y1315216*
X1181339Y1317830D02*
X1181182Y1318057D01*
X1180714Y1318398*
X1183995*
X1180714Y1320898D02*
Y1319762D01*
X1182120Y1319648*
X1181964Y1319762*
X1181807Y1320103*
Y1320444*
X1181964Y1320785*
X1182276Y1321012*
X1182745Y1321125*
X1183057Y1321012*
X1183526Y1320898*
X1183839Y1320671*
X1183995Y1320330*
Y1319989*
X1183839Y1319648*
X1183682Y1319535*
X1183370Y1319421*
G54D15*
X1230670Y1607844D02*
Y1598000D01*
Y1607844D02*
X1235102D01*
X1230670Y1603156D02*
X1233397D01*
X1240556Y1607844D02*
Y1598000D01*
X1238170Y1607844D02*
X1242943D01*
X1248738D02*
X1246011Y1598000D01*
X1248738Y1607844D02*
X1251465Y1598000D01*
X1247034Y1601281D02*
X1250443D01*
X1254534Y1602219D02*
X1260670D01*
X1263738Y1607844D02*
Y1598000D01*
Y1607844D02*
X1266125D01*
X1267147Y1607375*
X1267829Y1606438*
X1267829D02*
X1268170Y1605500D01*
X1268511Y1604094*
Y1601750*
X1268170Y1600344*
X1267829Y1599406*
X1267147Y1598469*
X1266125Y1598000*
X1263738*
X1271579Y1607844D02*
Y1598000D01*
X1274647Y1605969D02*
X1275329Y1606438D01*
X1275329D02*
X1276352Y1607844D01*
Y1598000*
X1279420Y1605969D02*
X1280102Y1606438D01*
X1280102D02*
X1281125Y1607844D01*
Y1598000*
G54D111*
X1137520Y1395435D02*
X1141396D01*
X1137520D02*
Y1396375D01*
X1137705Y1396777*
X1138074Y1397046*
X1138443Y1397180*
X1138997Y1397314*
X1139919*
X1140473Y1397180*
X1140842Y1397046*
X1141211Y1396777*
X1141396Y1396375*
Y1395435*
X1138259Y1398522D02*
X1138074Y1398790D01*
X1137520Y1399193*
X1141396*
X1137520Y1402280D02*
X1141396Y1400938D01*
X1137520Y1400401D02*
Y1402280D01*
X1094003Y1378146D02*
X1093869Y1378515D01*
X1093601Y1378884*
X1093332Y1379069*
X1092795*
X1092527Y1378884*
X1092259Y1378515*
X1092124Y1378146*
X1091990Y1377592*
Y1376670*
X1092124Y1376116*
X1092259Y1375747*
X1092527Y1375378*
X1092795Y1375193*
X1093332*
X1093601Y1375378*
X1093869Y1375747*
X1094003Y1376116*
X1095211Y1378330D02*
X1095480Y1378515D01*
X1095882Y1379069*
Y1375193*
X1091615Y1406315D02*
Y1402439D01*
Y1406315D02*
X1093360D01*
X1091615Y1404469D02*
X1092689D01*
X1094568Y1405576D02*
X1094836Y1405761D01*
X1095239Y1406315*
Y1402439*
G74*
X0Y0D02*
M02*
