*
*
G04 PADS 9.3 Build Number: 433611 generated Gerber (RS-274-X) file*
G04 PC Version=2.1*
*
%IN "IES_Rev-B.pcb"*%
*
%MOIN*%
*
%FSLAX35Y35*%
*
*
*
*
G04 PC Standard Apertures*
*
*
G04 Thermal Relief Aperture macro.*
%AMTER*
1,1,$1,0,0*
1,0,$1-$2,0,0*
21,0,$3,$4,0,0,45*
21,0,$3,$4,0,0,135*
%
*
*
G04 Annular Aperture macro.*
%AMANN*
1,1,$1,0,0*
1,0,$2,0,0*
%
*
*
G04 Odd Aperture macro.*
%AMODD*
1,1,$1,0,0*
1,0,$1-0.005,0,0*
%
*
*
G04 PC Custom Aperture Macros*
*
*
*
*
*
*
G04 PC Aperture Table*
*
%ADD010C,0.001*%
%ADD029C,0.05906*%
%ADD030C,0.07874*%
%ADD051R,0.06X0.06*%
%ADD052C,0.06*%
%ADD053C,0.19685*%
%ADD077C,0.02*%
%ADD085C,0.01*%
%ADD086C,0.008*%
%ADD087C,0.006*%
%ADD088C,0.025*%
%ADD090C,0.012*%
%ADD091C,0.015*%
%ADD093C,0.036*%
%ADD097C,0.024*%
%ADD098C,0.06299*%
%ADD103C,0.005*%
%ADD104C,0.035*%
%ADD143R,0.06X0.05*%
%ADD174R,0.065X0.065*%
%ADD175C,0.065*%
%ADD242C,0.018*%
%ADD243R,0.05X0.06*%
%ADD251R,0.03937X0.0374*%
%ADD252R,0.0374X0.03937*%
%ADD253R,0.02441X0.02441*%
%ADD256R,0.02362X0.06102*%
%ADD262R,0.02244X0.02441*%
%ADD273R,0.02441X0.02244*%
%ADD281R,0.04724X0.05709*%
%ADD287R,0.055X0.265*%
%ADD289R,0.08858X0.07087*%
%ADD290R,0.07087X0.08858*%
%ADD291R,0.01772X0.05709*%
%ADD299C,0.0042*%
%ADD300C,0.00393*%
%ADD303C,0.004*%
%ADD304R,0.04921X0.07087*%
%ADD305R,0.07087X0.04921*%
%ADD306R,0.05709X0.04724*%
%ADD307R,0.04331X0.02165*%
%ADD308C,0.03937*%
%ADD382C,0.1378*%
%ADD390R,0.05512X0.07087*%
*
*
*
*
G04 PC Circuitry*
G04 Layer Name IES_Rev-B.pcb - circuitry*
%LPD*%
*
*
G04 PC Custom Flashes*
G04 Layer Name IES_Rev-B.pcb - flashes*
%LPD*%
*
*
G04 PC Circuitry*
G04 Layer Name IES_Rev-B.pcb - circuitry*
%LPD*%
*
G54D10*
G54D29*
G01X1578032Y1421535D03*
X1585906D03*
X1593780D03*
X1578032Y1397913D03*
X1585906D03*
X1593780D03*
X1609528Y1421535D03*
Y1397913D03*
X1617402Y1421535D03*
X1625276D03*
X1617402Y1397913D03*
X1625276D03*
G54D30*
X1621339Y1409724D03*
G54D51*
X1559250Y1150500D03*
X1545750D03*
X1015984Y1392795D03*
Y1410512D03*
Y1445945D03*
G54D52*
Y1402795D03*
Y1420512D03*
X1072900Y1478500D03*
X1527500Y1482000D03*
X1526500Y1015500D03*
X1015984Y1455945D03*
G54D53*
X1617402Y1040906D03*
X1595237D03*
X1569174D03*
X1617402Y1459055D03*
X1595237D03*
X1569174D03*
G54D77*
X1297000Y1020200D02*
X1297247Y1020500D01*
X1079618Y1038000D02*
Y1046638D01*
X1175500Y1416500D02*
X1175276D01*
X1175259Y1416483*
X1175500Y1416500*
X1313000D02*
X1312776D01*
X1312759Y1416483*
X1313000Y1416500*
X1498499Y1425498D02*
X1508999D01*
X1514499Y1430998*
Y1452998*
X1481980Y1061340D03*
X1178500Y1092200D03*
X1483200Y1074500D03*
X1471700Y1084000D03*
X1470340Y1068720D03*
X1114000Y1134000D03*
X1116000Y1137000D03*
X1118000Y1134000D03*
X1120000Y1137000D03*
X1118800Y1122600D03*
X1115100Y1122700D03*
X1130400Y1122600D03*
X1126600D03*
X1137200Y1145000D03*
X1132200D03*
X1151600Y1122600D03*
X1155400D03*
X1152500Y1145000D03*
X1157000D03*
X1289280Y1136540D03*
X1363900Y1131200D03*
Y1127200D03*
Y1143700D03*
Y1139700D03*
X1414900Y1124200D03*
X1412900Y1134200D03*
X1483000Y1122000D03*
X1097500Y1186500D03*
X1096500Y1181500D03*
X1132500Y1154600D03*
X1121500Y1167500D03*
Y1172500D03*
Y1186500D03*
X1137300Y1154800D03*
X1111500Y1186500D03*
Y1167500D03*
Y1172500D03*
X1144000Y1153000D03*
X1147000D03*
X1157000Y1154500D03*
X1152500D03*
X1169000Y1182500D03*
X1170000Y1173000D03*
X1206500Y1162500D03*
X1202500Y1160500D03*
X1178000Y1165500D03*
Y1161000D03*
X1184500Y1178500D03*
Y1169000D03*
X1394900Y1167200D03*
X1396900Y1157200D03*
X1411000Y1185500D03*
X1405100Y1185100D03*
X1404900Y1167200D03*
X1412600Y1167600D03*
X1400900Y1167200D03*
X1415400Y1156700D03*
X1402900Y1157200D03*
X1410900Y1157300D03*
X1425900Y1154700D03*
X1057000Y1215500D03*
X1078500Y1227500D03*
X1082000Y1224500D03*
Y1216000D03*
X1062300Y1223800D03*
X1124400Y1216400D03*
X1121500Y1191000D03*
X1111500D03*
X1146000Y1219500D03*
X1150500D03*
X1346380Y1228170D03*
X1396400Y1191700D03*
X1421900Y1192100D03*
X1468800Y1199800D03*
X1458600Y1199600D03*
X1078500Y1238900D03*
X1082000Y1257000D03*
X1081500Y1263000D03*
X1091500Y1245500D03*
X1114000Y1254000D03*
X1120000Y1257000D03*
X1118000Y1254000D03*
X1116000Y1257000D03*
X1130400Y1242600D03*
X1126600D03*
X1118800D03*
X1115100Y1242700D03*
X1137000Y1265000D03*
X1117000Y1235500D03*
X1132500Y1265000D03*
X1151600Y1242600D03*
X1155400D03*
X1152500Y1265000D03*
X1157000D03*
X1207600Y1249300D03*
X1202500Y1249400D03*
X1197600Y1249200D03*
X1192500D03*
X1251500Y1254000D03*
X1257500Y1257000D03*
X1253500D03*
X1255500Y1254000D03*
X1256300Y1242600D03*
X1252600Y1242700D03*
X1288000Y1254000D03*
X1267900Y1242600D03*
X1264100D03*
X1289100D03*
X1292900D03*
X1274500Y1265000D03*
X1294500D03*
X1269300D03*
X1455500Y1238000D03*
X1491500Y1254000D03*
X1491000Y1246000D03*
X1497500Y1267800D03*
X1473116Y1238384D03*
Y1234616D03*
X1473500Y1251000D03*
X1491500Y1250500D03*
X1461700Y1266500D03*
X1467400Y1267300D03*
X1501000Y1252000D03*
Y1242300D03*
X1097500Y1289500D03*
Y1293500D03*
X1100500Y1291500D03*
X1132500Y1274500D03*
X1137000Y1274800D03*
X1121500Y1306500D03*
Y1292500D03*
Y1287500D03*
X1112000Y1306500D03*
X1111500Y1287500D03*
Y1292500D03*
X1144000Y1273000D03*
X1169000Y1302500D03*
Y1307000D03*
X1152500Y1274500D03*
X1157000D03*
X1170500Y1291500D03*
X1179000Y1302500D03*
X1178000Y1285500D03*
X1179000Y1307000D03*
X1178000Y1281000D03*
X1184500Y1298500D03*
Y1289000D03*
X1192000Y1287000D03*
X1235000Y1293500D03*
Y1289500D03*
Y1306500D03*
X1237500Y1291500D03*
X1249000Y1306500D03*
Y1287500D03*
Y1292500D03*
X1284500Y1273000D03*
X1281500D03*
X1290000Y1274500D03*
X1294500D03*
X1269800D03*
X1259000Y1287500D03*
Y1292500D03*
X1274500Y1275000D03*
X1259000Y1306500D03*
X1306500Y1302500D03*
Y1307000D03*
X1308000Y1292000D03*
Y1295000D03*
X1316500Y1307000D03*
X1323900Y1288800D03*
X1323700Y1298000D03*
X1315500Y1285500D03*
Y1281000D03*
X1328500Y1287500D03*
X1380000Y1306000D03*
X1469000Y1307000D03*
X1126500Y1342000D03*
X1130500D03*
X1121500Y1311000D03*
X1111500Y1312500D03*
X1168000Y1338500D03*
X1172500D03*
X1174500Y1342000D03*
X1176500Y1338500D03*
X1148500Y1342000D03*
X1150500Y1338500D03*
X1238000Y1308500D03*
X1249000Y1311000D03*
X1283500Y1338500D03*
X1286000Y1342000D03*
X1288000Y1338500D03*
X1290000Y1342000D03*
X1261500Y1338500D03*
X1264000Y1342000D03*
X1266000Y1338000D03*
X1268000Y1342000D03*
X1259000Y1311000D03*
X1305500Y1338500D03*
X1308000Y1342000D03*
X1312000D03*
X1314000Y1338500D03*
X1447000Y1331000D03*
X1448000Y1325000D03*
X1445000Y1338000D03*
X1448000D03*
X1442000Y1308900D03*
X1434000Y1328000D03*
X1464000D03*
X1476000Y1332500D03*
X1458000Y1328000D03*
X1475000Y1337000D03*
X1491000Y1325500D03*
X1524500Y1319000D03*
X1530000Y1313500D03*
X1534500Y1319000D03*
X1114000Y1377000D03*
X1120000Y1380000D03*
X1116000D03*
X1118000Y1377000D03*
X1131500Y1365000D03*
X1120000Y1365500D03*
X1137500Y1388000D03*
X1117000Y1355500D03*
X1132200Y1388000D03*
X1151600Y1365600D03*
X1155400D03*
X1152500Y1388000D03*
X1157000D03*
X1251500Y1377000D03*
X1253500Y1380000D03*
X1255500Y1377000D03*
X1257500Y1380000D03*
X1256300Y1365600D03*
X1252600Y1365700D03*
X1254500Y1355500D03*
X1267900Y1365600D03*
X1264100D03*
X1289100D03*
X1292900D03*
X1290000Y1388000D03*
X1273900Y1388100D03*
X1294500Y1388000D03*
X1270000D03*
X1417500Y1367000D03*
X1439500Y1355500D03*
X1434400Y1356300D03*
X1454000Y1351500D03*
X1451000Y1349000D03*
X1447000Y1353000D03*
X1451000D03*
X1451600Y1375600D03*
X1446600Y1375500D03*
X1423000Y1356900D03*
X1457000Y1368500D03*
X1458000Y1350500D03*
X1491000Y1354000D03*
X1461600Y1353000D03*
X1462200Y1368300D03*
X1470000Y1375400D03*
X1476200Y1368800D03*
X1510240Y1360630D03*
X1535400Y1365000D03*
X1530000Y1369900D03*
X1096500Y1424500D03*
X1097500Y1416500D03*
Y1412500D03*
X1100500Y1414500D03*
X1137000Y1397500D03*
X1132000D03*
X1121500Y1410500D03*
X1121000Y1416000D03*
X1111500Y1410500D03*
Y1415500D03*
X1144000Y1396000D03*
X1147000D03*
X1170000Y1416500D03*
X1169000Y1425500D03*
X1157600Y1397400D03*
X1187000Y1424000D03*
X1178000Y1408500D03*
Y1404000D03*
X1184500Y1421500D03*
Y1412000D03*
X1192000Y1410000D03*
X1238000Y1427500D03*
X1234000Y1424500D03*
X1235000Y1416500D03*
X1238000Y1414500D03*
X1235000Y1412500D03*
X1249000Y1410500D03*
Y1415500D03*
X1294500Y1397500D03*
X1270500D03*
X1259000Y1410500D03*
X1290500Y1397500D03*
X1259000Y1415500D03*
X1274500Y1398000D03*
X1306500Y1425500D03*
X1313000Y1421000D03*
X1307500Y1416500D03*
X1316500Y1425500D03*
X1315500Y1408500D03*
Y1404000D03*
X1322000Y1421500D03*
Y1412000D03*
X1329500Y1410000D03*
X1444450Y1427090D03*
X1097500Y1429500D03*
X1126500Y1465000D03*
X1128500Y1461500D03*
X1130500Y1465000D03*
X1100500Y1431500D03*
X1124000Y1461500D03*
X1121500Y1429500D03*
Y1434000D03*
X1134500Y1445000D03*
X1111500Y1429500D03*
Y1434000D03*
X1134500Y1455000D03*
X1170500Y1465000D03*
X1172500Y1461500D03*
X1174500Y1465000D03*
X1176500Y1461500D03*
X1146000D03*
X1148500Y1465000D03*
X1150500Y1461500D03*
X1152500Y1465000D03*
X1169000Y1430000D03*
X1139500Y1445000D03*
Y1455000D03*
X1179000Y1430000D03*
X1202500Y1443500D03*
X1238000Y1431500D03*
X1249000Y1429500D03*
Y1434000D03*
X1283500Y1461500D03*
X1286000Y1465000D03*
X1288000Y1461500D03*
X1290000Y1465000D03*
X1261500Y1461000D03*
X1259000Y1429500D03*
Y1434000D03*
X1277000Y1444700D03*
X1272000Y1444500D03*
Y1455000D03*
X1277000D03*
X1305500Y1461500D03*
X1308000Y1465000D03*
X1310000Y1461500D03*
X1306500Y1430000D03*
X1316500D03*
X1340000Y1443500D03*
X1467880Y1459170D03*
X1532500Y1459000D03*
X1530000Y1468100D03*
X1117000Y1478500D03*
X1254500D03*
X1524500Y1469500D03*
G54D85*
X1301900Y1647463D02*
Y1640900D01*
X1304627*
X1307809Y1647463D02*
X1307127Y1647150D01*
X1306900Y1646525*
Y1645900*
X1307127Y1645275*
X1307582Y1644963*
X1307582D02*
X1308491Y1644650D01*
X1309173Y1644338*
X1309173D02*
X1309627Y1643713D01*
X1309627D02*
X1309855Y1643088D01*
X1309855D02*
Y1642150D01*
X1309627Y1641525*
X1309400Y1641213*
X1309400D02*
X1308718Y1640900D01*
X1307809*
X1307127Y1641213*
X1307127D02*
X1306900Y1641525D01*
X1306673Y1642150*
Y1643088*
X1306673D02*
X1306900Y1643713D01*
X1306900D02*
X1307355Y1644338D01*
X1307355D02*
X1308036Y1644650D01*
X1308945Y1644963*
X1308945D02*
X1309400Y1645275D01*
X1309627Y1645900*
Y1646525*
X1309400Y1647150*
X1308718Y1647463*
X1308718D02*
X1307809D01*
X1317127D02*
Y1640900D01*
Y1647463D02*
X1319173D01*
X1319173D02*
X1319855Y1647150D01*
X1320082Y1646838*
X1320082D02*
X1320309Y1646213D01*
X1320309D02*
Y1645588D01*
X1320309D02*
X1320082Y1644963D01*
X1320082D02*
X1319855Y1644650D01*
X1319173Y1644338*
X1317127D02*
X1319173D01*
X1319173D02*
X1319855Y1644025D01*
X1320082Y1643713*
X1320082D02*
X1320309Y1643088D01*
X1320309D02*
Y1642150D01*
X1320082Y1641525*
X1319855Y1641213*
X1319855D02*
X1319173Y1640900D01*
X1317127*
X1323718Y1647463D02*
X1323264Y1647150D01*
X1322809Y1646525*
X1322582Y1645900*
X1322355Y1644963*
X1322355D02*
Y1643400D01*
X1322582Y1642463*
X1322582D02*
X1322809Y1641838D01*
X1322809D02*
X1323264Y1641213D01*
X1323264D02*
X1323718Y1640900D01*
X1324627*
X1325082Y1641213*
X1325082D02*
X1325536Y1641838D01*
X1325536D02*
X1325764Y1642463D01*
X1325764D02*
X1325991Y1643400D01*
Y1644963*
X1325991D02*
X1325764Y1645900D01*
X1325536Y1646525*
X1325082Y1647150*
X1324627Y1647463*
X1324627D02*
X1323718D01*
X1329627D02*
Y1640900D01*
X1328036Y1647463D02*
X1331218D01*
X1334855D02*
Y1640900D01*
X1333264Y1647463D02*
X1336445D01*
X1339855D02*
X1339400Y1647150D01*
X1338945Y1646525*
X1338718Y1645900*
X1338491Y1644963*
X1338491D02*
Y1643400D01*
X1338718Y1642463*
X1338718D02*
X1338945Y1641838D01*
X1338945D02*
X1339400Y1641213D01*
X1339400D02*
X1339855Y1640900D01*
X1340764*
X1341218Y1641213*
X1341218D02*
X1341673Y1641838D01*
X1341673D02*
X1341900Y1642463D01*
X1341900D02*
X1342127Y1643400D01*
Y1644963*
X1342127D02*
X1341900Y1645900D01*
X1341673Y1646525*
X1341218Y1647150*
X1340764Y1647463*
X1340764D02*
X1339855D01*
X1344173D02*
Y1640900D01*
Y1647463D02*
X1345991Y1640900D01*
X1347809Y1647463D02*
X1345991Y1640900D01*
X1347809Y1647463D02*
Y1640900D01*
X1244570Y1026320D02*
X1245740Y1025150D01*
X1250500*
X1244570D02*
X1245740D01*
X1244570Y1024000D02*
X1244590D01*
X1245740Y1025150*
X1266000Y1016650D02*
Y1020450D01*
X1265930Y1020520*
X1266000Y1010350D02*
X1268861D01*
X1272270Y1013760*
X1273685*
X1257870Y1020596D02*
Y1023699D01*
X1256420Y1025150*
X1250500*
X1079618Y1046638D02*
X1079700Y1046720D01*
Y1052800*
X1083600Y1056700*
X1121100*
X1123200Y1058800*
X1134390*
X1143900Y1068310*
Y1089100*
X1095410Y1060790D02*
X1098650Y1064030D01*
Y1069900*
X1110000Y1042272D02*
Y1046400D01*
X1114890Y1038228D02*
Y1038850D01*
X1213000Y1057000D02*
X1216850D01*
Y1063500*
X1232600Y1055400D02*
X1235850D01*
Y1055498*
X1251004Y1041504D02*
Y1041709D01*
X1247999*
Y1041728*
Y1045272D02*
Y1045286D01*
X1251004*
Y1045441*
X1257272Y1038500D02*
X1256954D01*
X1258800Y1040346*
Y1041300*
X1253728Y1038500D02*
X1253800Y1038572D01*
Y1040363*
X1254941Y1041504*
X1262815Y1057252D02*
Y1057479D01*
X1266228*
Y1057500*
X1262815Y1061189D02*
X1265487D01*
X1266228Y1061930*
Y1062000*
X1269772Y1057500D02*
X1270178D01*
X1271678Y1059000*
X1273000*
X1269772Y1062000D02*
X1269611D01*
Y1062161*
X1272576Y1065126*
X1274626*
X1325890Y1065500D02*
X1329000D01*
X1325890Y1061000D02*
X1329000D01*
X1471661Y1061339D02*
Y1067400D01*
X1470341Y1068720*
X1072000Y1103500D02*
X1075850D01*
X1071500Y1073000D02*
X1075850D01*
X1071200Y1087500D02*
X1075850D01*
X1134613Y1100361D02*
Y1100500D01*
X1134850*
X1134613Y1100361D02*
X1131737Y1103237D01*
X1102000Y1086068D02*
X1105902Y1089970D01*
X1117860*
X1122200Y1094310*
Y1108200*
X1127700Y1113700*
X1172200*
X1210000Y1151500*
Y1177500*
X1098650Y1069900D02*
X1098590Y1069960D01*
X1131500Y1103000D02*
X1131737Y1103237D01*
X1102000Y1093970D02*
Y1099730D01*
X1104410Y1102140*
Y1108940*
X1108300Y1093970D02*
Y1094068D01*
X1110931Y1096700*
X1115100*
X1098590Y1077460D02*
X1094760Y1081290D01*
X1092850*
X1143900Y1089100D02*
X1137000Y1096000D01*
X1160000Y1105000D02*
X1161000Y1106000D01*
X1164350*
X1160900Y1098800D02*
X1164350D01*
Y1099000*
X1148000Y1095500D02*
Y1100500D01*
X1147850*
X1154150D02*
Y1101100D01*
X1158400*
X1141150Y1107000D02*
X1144500D01*
X1170650Y1106000D02*
Y1099000D01*
X1174000*
X1213500Y1076500D02*
X1216850D01*
Y1070000*
X1242150Y1075124D02*
Y1077602D01*
X1240772Y1078980*
Y1081000*
X1242137Y1075111D02*
X1242150Y1075124D01*
X1251004Y1100559D02*
X1249563Y1102000D01*
X1251004Y1080874D02*
X1250828Y1081050D01*
X1251004Y1104496D02*
X1251209D01*
Y1108000*
X1251228*
X1232500Y1075000D02*
X1235850D01*
X1242150D02*
X1242137D01*
Y1075111*
X1242150Y1075000D02*
Y1075124D01*
X1240772Y1100998D02*
X1245198D01*
X1246200Y1102000*
X1249563*
X1240772Y1100998D02*
Y1103200D01*
X1242150Y1104578*
Y1106998*
X1240772Y1081000D02*
X1243920D01*
X1270100Y1085700D02*
X1267000D01*
Y1085709*
X1278500Y1088272D02*
X1278400D01*
Y1092700*
X1329000Y1089600D02*
X1325890D01*
Y1090000*
Y1081000D02*
X1327920D01*
X1329000Y1082080*
Y1082100*
X1325890Y1076500D02*
X1329000D01*
X1325890Y1085500D02*
X1329000D01*
X1325772Y1094500D02*
X1328500D01*
X1299000Y1088272D02*
X1298248Y1089024D01*
Y1092685*
X1325772Y1099000D02*
X1328500D01*
X1483200Y1074500D02*
X1483160Y1074460D01*
X1479959*
X1479339Y1075080*
Y1078661*
X1463000Y1099500D02*
X1469610D01*
X1469630Y1099520*
X1487000Y1071650D02*
X1487130Y1071780D01*
Y1082720*
X1482500Y1087350*
X1487000Y1071650D02*
X1484150Y1074500D01*
X1483200*
X1475500Y1093650D02*
X1469630Y1099520D01*
X1489850Y1105500D02*
Y1112500D01*
X1560920Y1074230D02*
X1555330D01*
X1561000Y1088650D02*
X1560730Y1088920D01*
X1555520*
X1110650Y1108902D02*
Y1109000D01*
Y1109098D02*
X1111551Y1110000D01*
X1115500*
X1110650Y1109098D02*
X1111551Y1110000D01*
X1104410Y1108940D02*
X1104350Y1109000D01*
X1099920Y1108970D02*
X1104320D01*
X1104350Y1109000*
X1108000Y1123500D02*
Y1126610D01*
X1111551Y1110000D02*
X1110650Y1109000D01*
Y1110000*
X1111551*
X1159586Y1123914D02*
X1162342Y1126670D01*
X1162500*
X1159586Y1123914D02*
X1159500Y1124000D01*
X1172500Y1122000D02*
Y1124050D01*
X1175231Y1126781*
X1175500*
Y1126610*
X1162500D02*
Y1126670D01*
X1290000Y1145100D02*
Y1148228D01*
X1275000Y1145100D02*
Y1148228D01*
X1274500*
X1294500Y1145100D02*
Y1148228D01*
X1270000Y1145000D02*
Y1148228D01*
X1299500Y1126500D02*
Y1126610D01*
X1303000*
X1413320Y1148290D02*
Y1158720D01*
X1413850Y1159250*
Y1163000*
X1413320Y1148290D02*
X1414930Y1146680D01*
X1420330*
X1420500Y1146850*
X1390350Y1130000D02*
Y1132890D01*
X1392400Y1134940*
Y1135000*
X1492940Y1117560D02*
X1493000Y1117500D01*
Y1126000*
X1490940*
X1489850Y1127090*
Y1131000*
Y1112500D02*
X1489860Y1112510D01*
Y1116540*
X1490880Y1117560*
X1492940*
X1489850Y1131000D02*
Y1138500D01*
X1135479Y1169123D02*
X1138292Y1171936D01*
Y1172000*
X1138228*
X1135551Y1175350D02*
X1137079D01*
X1138228Y1176500*
X1111500Y1186500D02*
X1114728D01*
X1111500Y1167500D02*
X1114728D01*
X1119500Y1178500D02*
X1122728D01*
X1111500Y1172500D02*
X1114728D01*
X1118272Y1186500D02*
X1121500D01*
X1134272Y1178500D02*
Y1180370D01*
X1135551Y1181650*
X1118272Y1167500D02*
X1121500D01*
X1126272Y1178500D02*
X1130728D01*
X1118272Y1172500D02*
X1121500D01*
X1145000Y1167772D02*
Y1167315D01*
X1143264Y1169051*
X1141850*
X1142807Y1187949D02*
X1144543Y1189685D01*
X1145000*
X1142807Y1187949D02*
X1141850D01*
X1151622Y1172017D02*
Y1176500D01*
X1151772*
X1151622Y1172013D02*
X1151572Y1172017D01*
X1151622*
Y1172013D02*
Y1172017D01*
X1144500Y1184000D02*
X1142729D01*
X1141772Y1184957*
Y1185000*
X1148150Y1169051D02*
X1148039D01*
Y1172000*
X1148228*
X1148000Y1156000D02*
Y1156209D01*
X1145000*
Y1156228*
X1151772Y1172000D02*
X1151622Y1172017D01*
X1154449*
X1151622Y1172013D02*
X1151772Y1172000D01*
X1151622*
Y1172013*
X1151772Y1172000D02*
X1151622Y1172017D01*
X1141772Y1176500D02*
Y1172000D01*
Y1172043*
X1144543*
X1145000Y1172500*
X1138228Y1185000D02*
X1138269D01*
Y1187949*
X1138701*
X1145000Y1159772D02*
Y1164228D01*
X1143524*
X1141850Y1165902*
X1145000Y1164228D02*
X1146476D01*
X1148150Y1165902*
X1141772Y1176500D02*
Y1181000D01*
X1138228D02*
X1137528Y1181700D01*
X1135551*
X1141772Y1181000D02*
Y1185000D01*
X1185390Y1165543D02*
X1187543D01*
X1188000Y1166000*
X1191850Y1154500D02*
Y1157290D01*
X1192500Y1157940*
Y1160000*
X1198150Y1154500D02*
Y1157590D01*
X1197500Y1158240*
Y1160000*
X1249500Y1172500D02*
X1252228D01*
X1249000Y1186500D02*
X1252228D01*
X1249500Y1167500D02*
X1252228D01*
X1256500Y1178500D02*
X1259728D01*
X1255772Y1172500D02*
X1256772Y1173500D01*
X1258500*
X1255772Y1186500D02*
X1258500D01*
X1255772Y1167500D02*
X1258500D01*
X1289272Y1172017D02*
X1291949D01*
Y1172201*
X1289272Y1172017D02*
Y1176500D01*
X1282700Y1164228D02*
X1282428Y1164500D01*
X1280752*
X1279350Y1165902*
X1282700Y1164228D02*
X1282500D01*
X1283000Y1184500D02*
Y1184957D01*
X1279272*
Y1185000*
X1295098Y1169051D02*
X1291949Y1172201D01*
Y1184799D02*
X1289272D01*
Y1185000*
X1285650Y1169051D02*
X1285722D01*
Y1172000*
X1285728*
X1291949Y1175350D02*
X1292699Y1176100D01*
Y1177470*
X1293728Y1178500*
X1270000Y1175500D02*
X1271272Y1176772D01*
Y1178500*
X1279350Y1187949D02*
X1280764D01*
X1282043Y1189228*
X1282500*
Y1176500D02*
X1285728D01*
X1279500Y1156000D02*
Y1156209D01*
X1282500*
Y1156228*
X1279272Y1176500D02*
Y1172000D01*
Y1172043*
X1282043*
X1282500Y1172500*
X1297272Y1178500D02*
X1301728D01*
X1267728D02*
Y1179600D01*
X1269778Y1181650*
X1285728Y1172000D02*
Y1176500D01*
X1290000Y1151772D02*
X1289844D01*
Y1154700*
X1289600*
X1274500Y1151772D02*
X1274600D01*
Y1154500*
X1285728Y1181000D02*
Y1185000D01*
X1289272Y1181000D02*
Y1185000D01*
X1263272Y1178500D02*
X1267728D01*
X1285728Y1176500D02*
Y1181000D01*
X1282500Y1167772D02*
X1281587D01*
X1280307Y1169051*
X1279350*
X1282500Y1164228D02*
X1283976D01*
X1285650Y1165902*
X1279272Y1176500D02*
Y1181000D01*
Y1185000*
Y1181000D02*
X1282500D01*
Y1159772D02*
Y1164228D01*
X1294500Y1151772D02*
Y1154500D01*
X1270000Y1151772D02*
Y1154500D01*
X1285728Y1185000D02*
X1285722D01*
Y1187949*
X1285650*
X1306500Y1182500D02*
X1309228D01*
X1306500Y1165500D02*
X1309228D01*
X1306500Y1161000D02*
X1309228D01*
X1315900Y1165400D02*
X1312772D01*
Y1165500*
X1329350Y1154500D02*
Y1157390D01*
X1330000Y1158040*
Y1159800*
X1335650Y1154500D02*
Y1157190D01*
X1334500Y1158340*
Y1159900*
X1312772Y1182500D02*
Y1187000D01*
X1305272Y1178500D02*
X1308500D01*
X1312772Y1187000D02*
X1316000D01*
X1309228D02*
Y1187043D01*
X1306500*
Y1187500*
X1312772Y1161000D02*
X1316000D01*
X1402350Y1182350D02*
X1405100Y1185100D01*
X1407850*
X1408250Y1185500*
X1411000*
X1404900Y1167200D02*
X1402350Y1169750D01*
Y1182350*
X1404900Y1167200D02*
X1408550D01*
X1408950Y1167600*
X1412600*
X1415400Y1156700D02*
X1417770D01*
X1420150Y1159080*
Y1163000*
X1387500Y1150850D02*
X1387360Y1150990D01*
X1384910*
X1383780Y1152120*
Y1157100*
X1380850Y1160030*
Y1164000*
X1387500Y1150850D02*
X1390980D01*
X1392360Y1152230*
X1399852Y1163259D02*
Y1166040D01*
X1400900Y1167088*
Y1167200*
X1413850Y1163000D02*
X1413591Y1163259D01*
X1406152*
X1413850Y1163000D02*
Y1166600D01*
X1412850Y1167600*
X1412600*
X1420500Y1153150D02*
X1424390D01*
X1425900Y1154660*
Y1154700*
X1550500Y1163020D02*
Y1167360D01*
X1554350Y1171210*
Y1174000*
X1545750Y1150500D02*
Y1154550D01*
X1550500Y1159300*
Y1163020*
X1087500Y1213500D02*
X1088504D01*
X1089758Y1214754*
X1090000Y1194000D02*
X1090110Y1194110D01*
Y1197500*
X1087000Y1210000D02*
X1090110D01*
X1087500Y1223890D02*
X1085471D01*
X1084860Y1224500*
X1082000*
X1131500Y1208748D02*
X1134500D01*
Y1208772*
Y1202500D02*
Y1205228D01*
X1111500Y1191000D02*
X1114728D01*
X1118272D02*
X1121500D01*
X1148150Y1191098D02*
X1146476Y1192772D01*
X1145000*
X1141850Y1191098D02*
X1143524Y1192772D01*
X1145000*
X1139000Y1202000D02*
Y1205228D01*
Y1208772D02*
Y1212000D01*
X1145000Y1189228D02*
Y1189685D01*
Y1192772D02*
Y1197228D01*
X1175272Y1191500D02*
X1179000D01*
X1145000Y1200772D02*
Y1203500D01*
X1225500Y1210000D02*
X1228110D01*
X1223000Y1191500D02*
X1228110D01*
X1225000Y1204000D02*
X1228110D01*
X1249000Y1191000D02*
X1252228D01*
X1228110Y1210000D02*
Y1214500D01*
X1272009Y1202700D02*
Y1205228D01*
X1272000*
X1285650Y1191098D02*
X1283976Y1192772D01*
X1282500*
X1279350Y1191098D02*
X1281024Y1192772D01*
X1282500*
X1277000Y1202700D02*
Y1205228D01*
X1258400Y1190700D02*
X1255772D01*
Y1191000*
X1272000Y1208772D02*
Y1208834D01*
X1269666*
X1269000Y1209500*
X1282500Y1192772D02*
Y1197228D01*
Y1200772D02*
Y1203500D01*
X1277000Y1208772D02*
Y1208791D01*
X1280000*
X1306500Y1196000D02*
X1309228D01*
X1306500Y1191500D02*
X1309228D01*
X1312772Y1196000D02*
X1316000D01*
X1312772Y1191500D02*
X1316000D01*
X1351060Y1225360D02*
X1349190D01*
X1346380Y1228170*
X1416000Y1216000D02*
Y1219228D01*
X1400500Y1216000D02*
Y1219228D01*
X1392500Y1212500D02*
Y1215728D01*
X1396000Y1219228*
X1405500Y1227000D02*
Y1227209D01*
X1408500*
Y1227228*
X1416000Y1222772D02*
Y1225500D01*
X1400500Y1222772D02*
X1401100D01*
Y1225600*
X1396000Y1222772D02*
Y1225500D01*
X1437500Y1192500D02*
Y1197610D01*
X1420500Y1216000D02*
Y1219228D01*
X1455350Y1226000D02*
Y1228710D01*
X1456000Y1229360*
Y1231000*
X1420500Y1222772D02*
Y1225500D01*
X1461650Y1226000D02*
Y1228990D01*
X1461000Y1229640*
Y1231000*
X1513960Y1218980D02*
Y1220510D01*
X1513350Y1221120*
Y1224000*
X1519580Y1216310D02*
Y1216312D01*
X1519650Y1216381*
Y1224000*
X1057500Y1229350D02*
X1060220D01*
X1060870Y1230000*
X1062000*
X1057000Y1250850D02*
X1061850D01*
X1062000Y1251000*
Y1235500D02*
X1061850Y1235650D01*
X1057500*
X1082000Y1235500D02*
X1082762Y1236262D01*
X1086671*
X1062000Y1257000D02*
X1061850Y1257150D01*
X1057000*
X1086671Y1229962D02*
X1089670D01*
X1090570Y1230862*
X1091862*
X1092000Y1231000*
X1086700Y1256450D02*
X1082750D01*
X1082200Y1257000*
X1082000*
X1086700Y1262750D02*
X1087000Y1263050D01*
Y1268500*
X1108000Y1246494D02*
X1105238D01*
X1104200Y1247532*
Y1250600*
X1102500Y1235500D02*
X1102375Y1235625D01*
X1110500Y1230390D02*
Y1232800D01*
X1112000Y1234300*
X1106000Y1230390D02*
X1110500D01*
X1098500Y1231500D02*
Y1231750D01*
X1102375Y1235625*
X1175500Y1242000D02*
Y1246610D01*
X1165500Y1242000D02*
Y1244050D01*
X1162769Y1246781*
X1162500Y1246610D02*
Y1246781D01*
X1162769*
X1245500Y1243000D02*
Y1246610D01*
X1290000Y1265000D02*
Y1268228D01*
X1274500Y1265000D02*
Y1268228D01*
X1294500Y1265000D02*
Y1268228D01*
X1269300Y1265000D02*
Y1268228D01*
X1270000*
X1300000Y1242000D02*
Y1246610D01*
X1315700Y1242200D02*
X1313000Y1244900D01*
Y1246610*
X1375000Y1257500D02*
X1378228D01*
X1375000Y1238500D02*
X1378228D01*
X1375000Y1262000D02*
X1378228D01*
X1375000Y1243500D02*
X1378228D01*
X1401728Y1247500D02*
X1400512Y1246283D01*
X1399051*
Y1246350*
X1416242Y1243000D02*
X1415272D01*
X1411650Y1262098D02*
X1410048Y1263700D01*
X1408572*
X1408500Y1263772*
X1405350Y1262098D02*
X1407024Y1263772D01*
X1408500*
Y1255500D02*
Y1255957D01*
X1405272*
Y1256000*
X1384500Y1261700D02*
X1381772D01*
Y1262000*
X1411650Y1240051D02*
X1411722D01*
Y1243000*
X1411728*
X1399051Y1240051D02*
X1398979Y1240123D01*
X1401792Y1242936*
Y1243000*
X1401728*
X1395902Y1246350D02*
X1397272Y1247720D01*
Y1249500*
X1399051Y1255799D02*
Y1255983D01*
X1401728*
Y1256000*
X1405350Y1258949D02*
X1407221D01*
X1408500Y1260228*
Y1252000D02*
X1411728D01*
X1381772Y1257500D02*
X1384500D01*
X1393728Y1249500D02*
Y1250600D01*
X1395778Y1252650*
X1411728Y1243000D02*
Y1247500D01*
X1415272Y1243000D02*
Y1243017D01*
X1417949*
X1415272Y1243000D02*
Y1247500D01*
X1381772Y1238500D02*
X1384500D01*
X1411728Y1252000D02*
Y1256000D01*
X1415272Y1252000D02*
Y1256000D01*
X1405272Y1247500D02*
Y1243000D01*
X1408500*
Y1263772D02*
Y1268228D01*
Y1238772D02*
X1407221Y1240051D01*
X1405350*
X1408500Y1235228D02*
X1409976D01*
X1411650Y1236902*
X1408500Y1235228D02*
X1408428Y1235300D01*
X1406952*
X1405350Y1236902*
X1378238Y1252880D02*
Y1257490D01*
X1378228Y1257500*
X1381782Y1252880D02*
Y1257490D01*
X1381772Y1257500*
X1411728Y1247500D02*
Y1252000D01*
X1415272Y1247500D02*
Y1252000D01*
X1381772Y1243500D02*
Y1243700D01*
X1384600*
X1411728Y1256000D02*
X1411722D01*
Y1258949*
X1408500Y1230772D02*
Y1235228D01*
X1405272Y1252000D02*
Y1247500D01*
X1408500*
X1401728Y1252000D02*
Y1252056D01*
X1399051*
Y1252650*
X1405272Y1252000D02*
Y1256000D01*
X1417949Y1255983D02*
X1415272D01*
Y1256000*
X1434200Y1249483D02*
X1431272D01*
Y1249500*
X1421098Y1246350D02*
X1421222D01*
X1423272Y1248400*
Y1249500*
X1428000Y1246500D02*
X1427752Y1246748D01*
Y1249500*
X1427728*
X1432500Y1267000D02*
X1435228D01*
X1432500Y1236500D02*
X1435228D01*
X1432500Y1262500D02*
X1435228D01*
X1432500Y1232000D02*
X1435228D01*
X1432500Y1258000D02*
X1435228D01*
X1417949Y1246350D02*
X1418699Y1247100D01*
Y1248470*
X1419728Y1249500*
X1441500Y1262000D02*
Y1262457D01*
X1438772*
Y1262500*
Y1267000D02*
X1442000D01*
X1438772Y1253500D02*
Y1258000D01*
X1435228Y1253500D02*
Y1258000D01*
X1438772Y1236500D02*
X1441500D01*
X1423272Y1249500D02*
X1427728D01*
X1438772Y1258000D02*
X1442000D01*
X1438772Y1232000D02*
X1441500D01*
X1486000Y1263000D02*
Y1264600D01*
X1484250Y1266350*
X1481500*
X1497500Y1267800D02*
X1497480Y1267820D01*
X1494520*
X1491350Y1270990*
Y1274500*
X1496500Y1247850D02*
X1496380Y1247970D01*
X1494030*
X1491500Y1250500*
X1496500Y1254150D02*
Y1259580D01*
X1486160Y1269920*
Y1271780*
X1485260Y1272680*
X1537000Y1251700D02*
Y1252600D01*
X1535750Y1253850*
X1533000*
X1501000Y1252000D02*
X1498850Y1254150D01*
X1496500*
X1524700Y1231500D02*
Y1233130D01*
X1525650Y1234080*
Y1236500*
X1520400Y1231500D02*
Y1233050D01*
X1519350Y1234100*
Y1236500*
X1508100Y1258000D02*
Y1259600D01*
X1507350Y1260350*
X1503500*
X1533000Y1260150D02*
Y1263030D01*
X1533030*
X1534000Y1264000*
X1135479Y1289123D02*
X1138292Y1291936D01*
Y1292000*
X1138228*
X1135551Y1295350D02*
X1137079D01*
X1138228Y1296500*
X1112000Y1306500D02*
X1114728D01*
X1111500Y1287500D02*
X1114728D01*
X1120000Y1298500D02*
X1122712D01*
X1111500Y1292500D02*
X1114728D01*
X1118272Y1306500D02*
X1121500D01*
X1134272Y1298500D02*
Y1300370D01*
X1135551Y1301650*
X1130728Y1298500D02*
Y1299976D01*
X1132402Y1301650*
X1118272Y1287500D02*
X1121500D01*
X1126256Y1298500D02*
X1130728D01*
X1118272Y1292500D02*
X1121500D01*
X1142733Y1307874D02*
X1144087Y1309228D01*
X1145000*
X1142733Y1307874D02*
X1141925D01*
X1141850Y1307949*
X1154449Y1304983D02*
X1151672D01*
X1151772Y1305000*
X1151622Y1292017D02*
Y1296500D01*
X1151772*
X1151622Y1292017D02*
X1154449D01*
X1159272Y1298500D02*
X1159256D01*
X1157598Y1295350D02*
X1159272Y1297024D01*
Y1298500*
X1145000Y1304500D02*
X1144543Y1304957D01*
X1141772*
Y1305000*
X1169000Y1302500D02*
X1171728D01*
X1169000Y1307000D02*
X1171728D01*
X1168500Y1285500D02*
X1171728D01*
X1168500Y1281000D02*
X1171728D01*
X1148150Y1289051D02*
X1148039D01*
Y1292000*
X1148228*
X1145500Y1301000D02*
X1148228D01*
X1148000Y1276000D02*
Y1276209D01*
X1145000*
Y1276228*
X1145500Y1296500D02*
X1148228D01*
X1141772D02*
Y1292000D01*
Y1292043*
X1144543*
X1145000Y1292500*
X1155712Y1298500D02*
X1155199D01*
Y1300900*
X1154449Y1301650*
X1159256Y1298500D02*
X1163728D01*
X1138228Y1305000D02*
X1138269D01*
Y1307949*
X1138701*
X1145000Y1287772D02*
X1143721Y1289051D01*
X1141850*
X1145000Y1284228D02*
X1146476D01*
X1148150Y1285902*
X1145000Y1284228D02*
X1143524D01*
X1141850Y1285902*
X1175272Y1302500D02*
X1179000D01*
X1175272Y1285500D02*
X1178000D01*
X1151772Y1301000D02*
X1151672D01*
Y1305000*
X1151772*
X1148228D02*
X1148150D01*
Y1307949*
X1145000Y1279772D02*
Y1284228D01*
X1141772Y1296500D02*
Y1301000D01*
X1167272Y1298500D02*
X1173960D01*
X1175370Y1299910*
Y1302402*
X1175272Y1302500*
X1138228Y1301000D02*
X1137528Y1301700D01*
X1135551*
X1141772Y1301000D02*
Y1305000D01*
X1175272Y1307000D02*
X1179000D01*
X1175272Y1281000D02*
X1178000D01*
X1191350Y1275000D02*
Y1278850D01*
X1192500Y1280000*
X1197650Y1275000D02*
Y1279850D01*
X1197500Y1280000*
X1185390Y1285500D02*
X1188500D01*
X1249000Y1306500D02*
X1252228D01*
X1249000Y1287500D02*
X1252228D01*
X1257000Y1298500D02*
X1259728D01*
X1249000Y1292500D02*
X1252228D01*
X1255772Y1306500D02*
X1259000D01*
X1255772Y1287500D02*
X1259000D01*
X1255772Y1292500D02*
X1259000D01*
X1282500Y1287772D02*
X1282177Y1287638D01*
X1280764Y1289051*
X1279350*
X1280307Y1307949D02*
X1281587Y1309228D01*
X1282500*
X1280307Y1307949D02*
X1279350D01*
X1291949Y1304983D02*
X1289172D01*
X1289272Y1305000*
X1285539Y1289051D02*
Y1292000D01*
X1285728*
X1291949Y1292017D02*
X1289122D01*
Y1296500*
X1289272*
X1282500Y1304500D02*
X1282043Y1304957D01*
X1279272*
Y1305000*
X1291949Y1295350D02*
X1292699Y1296100D01*
Y1297470*
X1293728Y1298500*
X1273051Y1295350D02*
X1274220D01*
X1275369Y1296500*
X1275728*
X1283000Y1301000D02*
X1285728D01*
X1283000Y1296500D02*
X1285728D01*
X1285500Y1276000D02*
Y1276209D01*
X1282500*
Y1276228*
X1271272Y1298500D02*
X1271772Y1300370D01*
X1273051Y1301650*
X1290000Y1271772D02*
Y1274500D01*
X1274500Y1271772D02*
Y1275000D01*
X1297272Y1298500D02*
X1301728D01*
X1275728Y1305000D02*
X1275769D01*
Y1307949*
X1276201*
X1282500Y1284228D02*
X1283976D01*
X1285650Y1285902*
X1282500Y1284228D02*
X1281024D01*
X1279350Y1285902*
X1289272Y1301000D02*
X1289172D01*
Y1305000*
X1289272*
X1263272Y1298500D02*
X1267728D01*
X1294500Y1271772D02*
Y1274500D01*
X1270000Y1271772D02*
X1269800D01*
Y1274500*
X1282500Y1279772D02*
Y1284228D01*
X1275728Y1301000D02*
X1275028Y1301700D01*
X1273051*
X1279272Y1301000D02*
Y1305000D01*
X1285728D02*
X1285650D01*
Y1307949*
X1275728Y1292000D02*
Y1292017D01*
X1273051*
X1279272Y1296500D02*
Y1292000D01*
Y1292043*
X1282043*
X1282500Y1292500*
X1306500Y1302500D02*
X1309228D01*
X1306500Y1307000D02*
X1309228D01*
X1306000Y1285500D02*
X1309228D01*
X1306000Y1281000D02*
X1309228D01*
X1329350Y1275000D02*
Y1277670D01*
X1330000Y1278320*
Y1280000*
X1335650Y1275000D02*
Y1278000D01*
X1335040Y1278610*
Y1279960*
X1335000Y1280000*
X1322890Y1285500D02*
X1326000D01*
X1312772Y1302500D02*
Y1307000D01*
Y1285500D02*
X1315500D01*
X1312772Y1307000D02*
X1316500D01*
X1309228D02*
Y1311500D01*
X1312772Y1281000D02*
X1315500D01*
X1365920Y1278720D02*
X1363240D01*
X1362000Y1279960*
Y1282500*
X1403000Y1273500D02*
Y1276228D01*
X1398000Y1273500D02*
Y1276228D01*
X1403000Y1279772D02*
Y1283000D01*
X1398000Y1279772D02*
Y1283000D01*
X1408500Y1271772D02*
Y1274500D01*
X1426630Y1306270D02*
X1423000Y1309900D01*
Y1315350*
X1469300Y1300200D02*
X1473000Y1303900D01*
Y1308850*
X1469300Y1300200D02*
X1446960D01*
X1441810Y1305350*
X1437500*
X1481500Y1272650D02*
X1485230D01*
X1485260Y1272680*
X1497650Y1274500D02*
Y1277470D01*
X1496010Y1279110*
X1494770*
X1493540Y1280340*
Y1283950*
X1521850Y1269000D02*
Y1274600D01*
X1521720Y1274730*
X1521580*
X1087000Y1330000D02*
X1090110D01*
X1087000Y1334500D02*
X1090110D01*
X1134500Y1322500D02*
Y1325228D01*
Y1328772D02*
Y1331500D01*
X1114728Y1311000D02*
X1114322D01*
X1112822Y1312500*
X1111500*
X1118272Y1311000D02*
X1121500D01*
X1148150Y1311098D02*
X1146476Y1312772D01*
X1145000*
X1141850Y1311098D02*
X1143600Y1312848D01*
X1139000Y1322500D02*
Y1325228D01*
X1169000Y1316000D02*
X1171728D01*
X1145000Y1317228D02*
Y1312772D01*
X1143676*
X1143600Y1312848*
X1175272Y1316000D02*
X1179000D01*
X1145000Y1320772D02*
X1145043D01*
Y1323543*
X1145500Y1324000*
X1175272Y1311500D02*
X1179000D01*
X1171728D02*
Y1316000D01*
X1139000Y1328772D02*
Y1331500D01*
X1224500Y1334500D02*
X1227610D01*
X1228900Y1313800D02*
X1227610Y1315090D01*
Y1317500*
X1224500Y1330000D02*
X1227610D01*
X1249000Y1311000D02*
X1252228D01*
X1255772D02*
X1259000D01*
X1285650Y1311098D02*
X1283976Y1312772D01*
X1282500*
X1279350Y1311098D02*
X1281024Y1312772D01*
X1282500*
X1272000Y1321500D02*
Y1325228D01*
X1277000Y1321500D02*
Y1325228D01*
X1282500Y1312772D02*
Y1317228D01*
X1272000Y1328772D02*
Y1332000D01*
X1282500Y1320772D02*
X1282509D01*
Y1324700*
X1282600*
X1277000Y1328772D02*
Y1332000D01*
X1312772Y1316000D02*
Y1311500D01*
X1316500*
X1309228D02*
Y1316000D01*
X1436863Y1330889D02*
X1436850Y1331000D01*
X1434000Y1328000D02*
X1433987Y1328013D01*
X1436863Y1330889*
X1430500Y1315350D02*
X1433420D01*
X1438000Y1319930*
Y1321600*
X1108000Y1365500D02*
Y1369610D01*
X1137500Y1388000D02*
X1137043D01*
Y1391228*
X1137000*
X1132200Y1388000D02*
Y1391228D01*
X1132500*
X1106000Y1350390D02*
Y1353500D01*
X1110500Y1350390D02*
Y1353500D01*
X1162500Y1364500D02*
Y1369610D01*
X1175500Y1364500D02*
Y1369610D01*
X1152500Y1388000D02*
Y1391228D01*
X1157000Y1388000D02*
Y1391228D01*
X1248009Y1350390D02*
Y1354500D01*
X1248100*
X1246500Y1366300D02*
X1245400Y1367400D01*
Y1369610*
X1245500*
X1243500Y1350390D02*
Y1354600D01*
X1290000Y1388000D02*
Y1391228D01*
X1273900Y1388100D02*
X1274266D01*
Y1391228*
X1274500*
X1294500Y1388000D02*
Y1391228D01*
X1270000Y1388000D02*
Y1391228D01*
X1300000Y1365000D02*
Y1369610D01*
X1313000Y1364500D02*
Y1369610D01*
X1135479Y1412123D02*
X1138292Y1414936D01*
Y1415000*
X1138228*
X1135551Y1418350D02*
X1136720D01*
X1137869Y1419500*
X1138228*
X1111500Y1410500D02*
X1114728D01*
X1119500Y1421500D02*
X1122728D01*
X1111500Y1415500D02*
X1114728D01*
X1134272Y1421500D02*
Y1423370D01*
X1135551Y1424650*
X1130728Y1421500D02*
Y1422976D01*
X1132402Y1424650*
X1118272Y1410500D02*
X1121500D01*
X1137000Y1394772D02*
Y1397500D01*
X1118272Y1415500D02*
Y1415543D01*
X1121000*
Y1416000*
X1132500Y1394772D02*
X1132457D01*
Y1397043*
X1132000Y1397500*
X1154449Y1427983D02*
X1151672D01*
Y1428000*
X1154449Y1415017D02*
X1151622D01*
Y1419500*
X1151672*
X1157598Y1418350D02*
X1159272Y1420024D01*
Y1421500*
X1145000Y1427500D02*
X1144543Y1427957D01*
X1141772*
X1169000Y1425500D02*
X1171728D01*
X1148150Y1412051D02*
X1148039D01*
Y1415000*
X1148028*
X1145000Y1424000D02*
X1148128D01*
X1145000Y1419500D02*
X1148128D01*
X1147800Y1399200D02*
X1145000D01*
Y1399228*
X1152500Y1394772D02*
X1157000D01*
X1175272Y1425500D02*
Y1430000D01*
X1151672Y1424000D02*
Y1428000D01*
X1141772Y1419500D02*
Y1415000D01*
Y1415043*
X1144543*
X1145000Y1415500*
X1155728Y1421500D02*
Y1423370D01*
X1154449Y1424650*
X1159272Y1421500D02*
X1163728D01*
X1138228Y1428000D02*
X1138269D01*
Y1430949*
X1138701*
X1145000Y1410772D02*
X1143721Y1412051D01*
X1141850*
X1145000Y1407228D02*
X1146476D01*
X1148150Y1408902*
X1145000Y1407228D02*
X1143524D01*
X1141850Y1408902*
X1157000Y1394772D02*
X1157234D01*
Y1397400*
X1157600*
X1148128Y1428000D02*
X1148150D01*
Y1430949*
X1145000Y1402772D02*
Y1407228D01*
X1141772Y1419500D02*
Y1424000D01*
X1167272Y1421500D02*
X1174150D01*
X1175290Y1422640*
Y1425500*
X1175272*
X1138228Y1424000D02*
X1137528Y1424700D01*
X1135551*
X1141772Y1424000D02*
Y1427957D01*
X1191850Y1398000D02*
Y1400670D01*
X1192530Y1401350*
Y1402970*
X1192500Y1403000*
X1198150Y1398000D02*
Y1400720D01*
X1197500Y1401370*
Y1403000*
X1249000Y1410500D02*
X1252228D01*
X1257000Y1421500D02*
X1259728D01*
Y1421558*
X1249000Y1415500D02*
X1252228D01*
X1255772Y1410500D02*
X1259000D01*
X1255772Y1415500D02*
X1259000D01*
X1291949Y1427983D02*
X1289172D01*
X1289272Y1428000*
X1285539Y1412051D02*
Y1415000D01*
X1285728*
X1272979Y1412123D02*
X1275792Y1414936D01*
Y1415000*
X1275728*
X1291949Y1415017D02*
X1289122D01*
Y1419500*
X1289272*
X1289122Y1415013D02*
X1289072Y1415017D01*
X1289122*
X1282500Y1427500D02*
X1282043Y1427957D01*
X1279272*
Y1428000*
X1273051Y1418350D02*
X1274579D01*
X1275728Y1419500*
X1282500D02*
X1282600Y1419600D01*
X1271272Y1421548D02*
X1272301Y1422578D01*
Y1423900*
X1273051Y1424650*
X1267728Y1421548D02*
Y1421558D01*
X1263272*
X1267728Y1421548D02*
Y1422648D01*
X1269730Y1424650*
X1290000Y1394772D02*
X1290043D01*
Y1397500*
X1290500*
X1274500Y1394772D02*
Y1398000D01*
X1289272Y1424000D02*
X1289172D01*
Y1428000*
X1289272*
X1279272Y1419500D02*
Y1415000D01*
Y1415043*
X1282043*
X1282500Y1415500*
X1293728Y1421418D02*
Y1422870D01*
X1291949Y1424650*
X1297272Y1421418D02*
X1301728D01*
X1275728Y1428000D02*
X1275769D01*
Y1430949*
X1276201*
X1282500Y1410772D02*
X1281221Y1412051D01*
X1279350*
X1282500Y1407228D02*
X1283976D01*
X1285650Y1408902*
X1282500Y1407228D02*
X1281024D01*
X1279350Y1408902*
X1285728Y1424000D02*
Y1419500D01*
X1282700*
X1282600Y1419600*
X1289272Y1419500D02*
Y1424000D01*
X1294500Y1394772D02*
Y1397500D01*
X1270000Y1394772D02*
X1270043D01*
Y1397500*
X1270500*
X1285728Y1428000D02*
X1285650D01*
Y1430949*
X1282500Y1399228D02*
Y1399500D01*
X1285300*
X1282500Y1402772D02*
Y1407228D01*
X1279272Y1419500D02*
Y1424000D01*
X1275728D02*
X1275028Y1424700D01*
X1273051*
X1279272Y1428000D02*
Y1424000D01*
X1282500*
X1305272Y1421500D02*
X1308000D01*
X1306500Y1425500D02*
X1309228D01*
X1306000Y1408500D02*
X1309228D01*
X1306000Y1404000D02*
X1309228D01*
X1329350Y1398000D02*
Y1400610D01*
X1330000Y1401260*
Y1403000*
X1335650Y1398000D02*
Y1400870D01*
X1335020Y1401500*
Y1402980*
X1335000Y1403000*
X1322890Y1408500D02*
X1326000D01*
X1312772Y1425500D02*
X1316500D01*
X1312772Y1408500D02*
X1315500D01*
X1312772Y1404000D02*
X1315500D01*
X1437500Y1401000D02*
Y1408350D01*
X1437350Y1408500*
X1443650D02*
X1450200D01*
X1450300Y1408600*
X1507669Y1398828D02*
X1507647Y1398850D01*
X1501000*
X1535889Y1406398D02*
X1535787Y1406500D01*
X1530650*
X1501000Y1405150D02*
X1503670D01*
X1504600Y1406080*
Y1406158*
X1506949*
X1524350Y1406500D02*
X1514642Y1416208D01*
X1509199*
X1134500Y1445000D02*
Y1448228D01*
X1111500Y1429500D02*
X1114728D01*
X1111500Y1434000D02*
X1114728D01*
X1118272Y1429500D02*
X1121500D01*
X1118272Y1434000D02*
X1121500D01*
X1134500Y1451772D02*
Y1455000D01*
X1148150Y1434098D02*
X1146476Y1435772D01*
X1145000*
X1141850Y1434098D02*
X1143524Y1435772D01*
X1145000*
X1169000Y1430000D02*
X1171728D01*
X1139500Y1445000D02*
Y1448228D01*
X1141850Y1430949D02*
X1143721D01*
X1145000Y1432228*
X1171728Y1439000D02*
Y1440600D01*
X1172600Y1441472*
Y1441700*
X1139500Y1451772D02*
Y1455000D01*
X1145000Y1435772D02*
Y1440228D01*
X1175272Y1439000D02*
Y1434500D01*
X1179000*
X1171728D02*
Y1439000D01*
X1175272Y1430000D02*
X1179000D01*
X1145000Y1443772D02*
Y1447000D01*
X1227500Y1437000D02*
X1227610Y1437110D01*
Y1440500*
X1224500Y1453000D02*
X1227610D01*
X1249000Y1429500D02*
X1252228D01*
X1249000Y1434000D02*
X1252228D01*
X1227610Y1453000D02*
Y1457500D01*
X1255772Y1429500D02*
X1259000D01*
X1255772Y1434000D02*
X1259000D01*
X1282500Y1432228D02*
X1281183Y1430911D01*
X1279388*
X1279350Y1430949*
X1285650Y1434098D02*
X1283976Y1435772D01*
X1282500*
X1279350Y1434098D02*
X1281024Y1435772D01*
X1282500*
X1277000Y1444700D02*
Y1448228D01*
X1272000Y1444500D02*
Y1448228D01*
Y1451772D02*
Y1455000D01*
X1282500Y1435772D02*
Y1440228D01*
X1277000Y1451772D02*
Y1455000D01*
X1282500Y1443772D02*
Y1443800D01*
X1285200*
X1306500Y1430000D02*
X1309228D01*
X1306500Y1439000D02*
X1309228D01*
X1312772D02*
X1316500D01*
X1312772Y1434500D02*
X1316500D01*
X1309228D02*
Y1439000D01*
X1312772Y1430000D02*
X1316500D01*
X1247974Y1473390D02*
Y1477200D01*
X1247700*
X1248000Y1473390D02*
X1247974D01*
X1243500*
X1361000Y1096500D02*
Y1080000D01*
X1372500*
Y1087207*
X1374000Y1088707*
Y1096500*
X1361000*
Y1096199D02*
X1374000D01*
X1361000Y1095299D02*
X1374000D01*
X1361000Y1094399D02*
X1374000D01*
X1361000Y1093499D02*
X1374000D01*
X1361000Y1092599D02*
X1374000D01*
X1361000Y1091699D02*
X1374000D01*
X1361000Y1090799D02*
X1374000D01*
X1361000Y1089899D02*
X1374000D01*
X1361000Y1088999D02*
X1374000D01*
X1361000Y1088099D02*
X1373392D01*
X1361000Y1087199D02*
X1372500D01*
X1361000Y1086299D02*
X1372500D01*
X1361000Y1085399D02*
X1372500D01*
X1361000Y1084499D02*
X1372500D01*
X1361000Y1083599D02*
X1372500D01*
X1361000Y1082699D02*
X1372500D01*
X1361000Y1081799D02*
X1372500D01*
X1361000Y1080899D02*
X1372500D01*
X1632087Y1000000D02*
X1637087Y1005000D01*
Y1495000*
X1632087Y1500000*
X1019685*
X1000000Y1480315*
Y1462288*
X1000000*
Y1310659*
X1000252Y1300215*
X1000452Y1291902*
X1000698Y1281714*
X1000898Y1273395*
X1001318Y1256004*
X1001397Y1255492*
X1003077Y1244686*
X1004285Y1236911*
X1005919Y1226402*
X1007127Y1218626*
X1008761Y1208117*
X1009969Y1200342*
X1011603Y1189833*
X1012811Y1182058*
X1013278Y1179055*
X1014415Y1171795*
X1015712Y1163524*
X1020208Y1134831*
X1021512Y1126516*
X1021512D02*
X1023106Y1116339D01*
X1024412Y1108011*
X1026555Y1094331*
X1028911Y1079301*
X1030211Y1071004*
X1031840Y1060610*
X1031863Y1060462*
X1033509Y1052483*
X1041533Y1013583*
X1041905Y1011778*
X1055711Y1000000*
X1122000*
Y1028015*
X1134500D02*
G75*
G03X1122000I-6250J-0D01*
G01X1134500D02*
Y1000000D01*
X1210000*
Y1028214*
X1222000D02*
G03X1210000I-6000J-126D01*
G01X1222000D02*
Y1000000D01*
X1632087*
G54D86*
X1384000Y1492484D02*
X1383659Y1492719D01*
X1383148Y1493422*
Y1488500*
X1379227Y1493422D02*
X1380932Y1488500D01*
X1381614Y1493422D02*
X1379227D01*
X1377693Y1490609D02*
X1374625D01*
X1371045Y1492719D02*
X1371216Y1493188D01*
X1371216D02*
X1371727Y1493422D01*
X1372068*
X1372580Y1493188*
X1372580D02*
X1372920Y1492484D01*
X1373091Y1491313*
X1373091D02*
Y1490141D01*
X1372920Y1489203*
X1372580Y1488734*
X1372068Y1488500*
X1371898*
X1371386Y1488734*
X1371045Y1489203*
X1370875Y1489906*
Y1490141*
X1371045Y1490844*
X1371386Y1491313*
X1371386D02*
X1371898Y1491547D01*
X1372068*
X1372580Y1491313*
X1372580D02*
X1372920Y1490844D01*
X1373091Y1490141*
X1368318Y1493422D02*
X1368830Y1493188D01*
X1368830D02*
X1369170Y1492484D01*
X1369341Y1491313*
X1369341D02*
Y1490609D01*
X1369170Y1489438*
X1369170D02*
X1368830Y1488734D01*
X1368318Y1488500*
X1367977*
X1367466Y1488734*
X1367125Y1489438*
X1367125D02*
X1366955Y1490609D01*
Y1491313*
X1366955D02*
X1367125Y1492484D01*
X1367466Y1493188*
X1367466D02*
X1367977Y1493422D01*
X1368318*
X1364398D02*
X1364909Y1493188D01*
X1364909D02*
X1365250Y1492484D01*
X1365420Y1491313*
X1365420D02*
Y1490609D01*
X1365250Y1489438*
X1365250D02*
X1364909Y1488734D01*
X1364398Y1488500*
X1364057*
X1363545Y1488734*
X1363205Y1489438*
X1363205D02*
X1363034Y1490609D01*
Y1491313*
X1363034D02*
X1363205Y1492484D01*
X1363545Y1493188*
X1363545D02*
X1364057Y1493422D01*
X1364398*
X1361159D02*
X1359284D01*
X1360307Y1491547*
X1359795*
X1359455Y1491313*
X1359455D02*
X1359284Y1491078D01*
X1359114Y1490375*
Y1489906*
X1359284Y1489203*
X1359625Y1488734*
X1360136Y1488500*
X1360648*
X1361159Y1488734*
X1361330Y1488969*
X1361500Y1489438*
X1356557Y1493422D02*
X1357068Y1493188D01*
X1357068D02*
X1357409Y1492484D01*
X1357580Y1491313*
X1357580D02*
Y1490609D01*
X1357409Y1489438*
X1357409D02*
X1357068Y1488734D01*
X1356557Y1488500*
X1356216*
X1355705Y1488734*
X1355364Y1489438*
X1355364D02*
X1355193Y1490609D01*
Y1491313*
X1355193D02*
X1355364Y1492484D01*
X1355705Y1493188*
X1355705D02*
X1356216Y1493422D01*
X1356557*
X1352636D02*
X1353148Y1493188D01*
X1353148D02*
X1353489Y1492484D01*
X1353659Y1491313*
X1353659D02*
Y1490609D01*
X1353489Y1489438*
X1353489D02*
X1353148Y1488734D01*
X1352636Y1488500*
X1352295*
X1351784Y1488734*
X1351443Y1489438*
X1351443D02*
X1351273Y1490609D01*
Y1491313*
X1351273D02*
X1351443Y1492484D01*
X1351784Y1493188*
X1351784D02*
X1352295Y1493422D01*
X1352636*
X1349739Y1490609D02*
X1346670D01*
X1344114Y1493422D02*
X1344625Y1493188D01*
X1344625D02*
X1344966Y1492484D01*
X1345136Y1491313*
X1345136D02*
Y1490609D01*
X1344966Y1489438*
X1344966D02*
X1344625Y1488734D01*
X1344114Y1488500*
X1343773*
X1343261Y1488734*
X1342920Y1489438*
X1342920D02*
X1342750Y1490609D01*
Y1491313*
X1342750D02*
X1342920Y1492484D01*
X1343261Y1493188*
X1343261D02*
X1343773Y1493422D01*
X1344114*
X1340193D02*
X1340705Y1493188D01*
X1340705D02*
X1341045Y1492484D01*
X1341216Y1491313*
X1341216D02*
Y1490609D01*
X1341045Y1489438*
X1341045D02*
X1340705Y1488734D01*
X1340193Y1488500*
X1339852*
X1339341Y1488734*
X1339000Y1489438*
X1339000D02*
X1338830Y1490609D01*
Y1491313*
X1338830D02*
X1339000Y1492484D01*
X1339341Y1493188*
X1339341D02*
X1339852Y1493422D01*
X1340193*
X1337295Y1492484D02*
X1336955Y1492719D01*
X1336443Y1493422*
Y1488500*
X1327068Y1493422D02*
Y1488500D01*
Y1493422D02*
X1325534D01*
X1325023Y1493188*
X1325023D02*
X1324852Y1492953D01*
X1324682Y1492484*
Y1492016*
X1324852Y1491547*
X1325023Y1491313*
X1325023D02*
X1325534Y1491078D01*
X1327068*
X1325875D02*
X1324682Y1488500D01*
X1323148Y1493422D02*
Y1488500D01*
Y1493422D02*
X1320932D01*
X1323148Y1491078D02*
X1321784D01*
X1323148Y1488500D02*
X1320932D01*
X1319398Y1493422D02*
X1318034Y1488500D01*
X1316670Y1493422D02*
X1318034Y1488500D01*
X1311216Y1493422D02*
Y1488500D01*
Y1493422D02*
X1309682D01*
X1309170Y1493188*
X1309170D02*
X1309000Y1492953D01*
X1308830Y1492484*
Y1492016*
X1309000Y1491547*
X1309170Y1491313*
X1309170D02*
X1309682Y1491078D01*
X1311216D02*
X1309682D01*
X1309170Y1490844*
X1309000Y1490609*
X1308830Y1490141*
Y1489438*
X1308830D02*
X1309000Y1488969D01*
X1309170Y1488734*
X1309682Y1488500*
X1311216*
X1297477Y1493422D02*
X1297989Y1493188D01*
X1297989D02*
X1298330Y1492484D01*
X1298500Y1491313*
X1298500D02*
Y1490609D01*
X1298330Y1489438*
X1298330D02*
X1297989Y1488734D01*
X1297477Y1488500*
X1297136*
X1296625Y1488734*
X1296284Y1489438*
X1296284D02*
X1296114Y1490609D01*
Y1491313*
X1296114D02*
X1296284Y1492484D01*
X1296625Y1493188*
X1296625D02*
X1297136Y1493422D01*
X1297477*
X1294239D02*
X1292364D01*
X1293386Y1491547*
X1292875*
X1292534Y1491313*
X1292534D02*
X1292364Y1491078D01*
X1292193Y1490375*
Y1489906*
X1292364Y1489203*
X1292705Y1488734*
X1293216Y1488500*
X1293727*
X1294239Y1488734*
X1294409Y1488969*
X1294580Y1489438*
X1287591Y1494359D02*
X1290659Y1486859D01*
X1285886Y1492250D02*
Y1492484D01*
X1285716Y1492953*
X1285545Y1493188*
X1285545D02*
X1285205Y1493422D01*
X1284523*
X1284182Y1493188*
X1284182D02*
X1284011Y1492953D01*
X1283841Y1492484*
Y1492016*
X1284011Y1491547*
X1284352Y1490844*
X1286057Y1488500*
X1283670*
X1279920Y1491781D02*
X1280091Y1491078D01*
X1280432Y1490609*
X1280943Y1490375*
X1281114*
X1281625Y1490609*
X1281966Y1491078*
X1282136Y1491781*
Y1492016*
X1281966Y1492719*
X1281625Y1493188*
X1281625D02*
X1281114Y1493422D01*
X1280943*
X1280432Y1493188*
X1280432D02*
X1280091Y1492719D01*
X1279920Y1491781*
Y1490609*
X1280091Y1489438*
X1280091D02*
X1280432Y1488734D01*
X1280943Y1488500*
X1281284*
X1281795Y1488734*
X1281966Y1489203*
X1275318Y1494359D02*
X1278386Y1486859D01*
X1273614Y1492250D02*
Y1492484D01*
X1273443Y1492953*
X1273273Y1493188*
X1273273D02*
X1272932Y1493422D01*
X1272250*
X1271909Y1493188*
X1271909D02*
X1271739Y1492953D01*
X1271568Y1492484*
Y1492016*
X1271739Y1491547*
X1272080Y1490844*
X1273784Y1488500*
X1271398*
X1268841Y1493422D02*
X1269352Y1493188D01*
X1269352D02*
X1269693Y1492484D01*
X1269864Y1491313*
X1269864D02*
Y1490609D01*
X1269693Y1489438*
X1269693D02*
X1269352Y1488734D01*
X1268841Y1488500*
X1268500*
X1267989Y1488734*
X1267648Y1489438*
X1267648D02*
X1267477Y1490609D01*
Y1491313*
X1267477D02*
X1267648Y1492484D01*
X1267989Y1493188*
X1267989D02*
X1268500Y1493422D01*
X1268841*
X1265943Y1492484D02*
X1265602Y1492719D01*
X1265091Y1493422*
Y1488500*
X1263216Y1493422D02*
X1261341D01*
X1262364Y1491547*
X1261852*
X1261511Y1491313*
X1261511D02*
X1261341Y1491078D01*
X1261170Y1490375*
Y1489906*
X1261341Y1489203*
X1261682Y1488734*
X1262193Y1488500*
X1262705*
X1263216Y1488734*
X1263386Y1488969*
X1263557Y1489438*
X1255443Y1492250D02*
X1255614Y1492719D01*
X1255955Y1493188*
X1255955D02*
X1256295Y1493422D01*
X1256977*
X1257318Y1493188*
X1257318D02*
X1257659Y1492719D01*
X1257830Y1492250*
X1258000Y1491547*
Y1490375*
X1257830Y1489672*
X1257659Y1489203*
X1257318Y1488734*
X1256977Y1488500*
X1256295*
X1255955Y1488734*
X1255614Y1489203*
X1255443Y1489672*
X1252886Y1493422D02*
X1253227Y1493188D01*
X1253227D02*
X1253568Y1492719D01*
X1253739Y1492250*
X1253909Y1491547*
Y1490375*
X1253739Y1489672*
X1253568Y1489203*
X1253227Y1488734*
X1252886Y1488500*
X1252205*
X1251864Y1488734*
X1251523Y1489203*
X1251352Y1489672*
X1251182Y1490375*
Y1491547*
X1251352Y1492250*
X1251523Y1492719*
X1251864Y1493188*
X1251864D02*
X1252205Y1493422D01*
X1252886*
X1249648D02*
Y1488500D01*
Y1493422D02*
X1248284Y1488500D01*
X1246920Y1493422D02*
X1248284Y1488500D01*
X1246920Y1493422D02*
Y1488500D01*
X1245386Y1493422D02*
Y1488500D01*
Y1493422D02*
X1243852D01*
X1243341Y1493188*
X1243341D02*
X1243170Y1492953D01*
X1243000Y1492484*
Y1491781*
X1243170Y1491313*
X1243170D02*
X1243341Y1491078D01*
X1243852Y1490844*
X1245386*
X1241466Y1493422D02*
Y1488500D01*
Y1493422D02*
X1239932D01*
X1239420Y1493188*
X1239420D02*
X1239250Y1492953D01*
X1239080Y1492484*
Y1492016*
X1239250Y1491547*
X1239420Y1491313*
X1239420D02*
X1239932Y1491078D01*
X1241466*
X1240273D02*
X1239080Y1488500D01*
X1237545Y1493422D02*
Y1488500D01*
Y1493422D02*
X1235330D01*
X1237545Y1491078D02*
X1236182D01*
X1237545Y1488500D02*
X1235330D01*
X1231409Y1492719D02*
X1231750Y1493188D01*
X1231750D02*
X1232261Y1493422D01*
X1232943*
X1233455Y1493188*
X1233455D02*
X1233795Y1492719D01*
Y1492250*
X1233625Y1491781*
X1233455Y1491547*
X1233114Y1491313*
X1233114D02*
X1232091Y1490844D01*
X1231750Y1490609*
X1231580Y1490375*
X1231409Y1489906*
Y1489203*
X1231750Y1488734*
X1232261Y1488500*
X1232943*
X1233455Y1488734*
X1233795Y1489203*
X1227489Y1492719D02*
X1227830Y1493188D01*
X1227830D02*
X1228341Y1493422D01*
X1229023*
X1229534Y1493188*
X1229534D02*
X1229875Y1492719D01*
Y1492250*
X1229705Y1491781*
X1229534Y1491547*
X1229193Y1491313*
X1229193D02*
X1228170Y1490844D01*
X1227830Y1490609*
X1227659Y1490375*
X1227489Y1489906*
Y1489203*
X1227830Y1488734*
X1228341Y1488500*
X1229023*
X1229534Y1488734*
X1229875Y1489203*
X1224932Y1493422D02*
X1225273Y1493188D01*
X1225273D02*
X1225614Y1492719D01*
X1225784Y1492250*
X1225955Y1491547*
Y1490375*
X1225784Y1489672*
X1225614Y1489203*
X1225273Y1488734*
X1224932Y1488500*
X1224250*
X1223909Y1488734*
X1223568Y1489203*
X1223398Y1489672*
X1223227Y1490375*
Y1491547*
X1223398Y1492250*
X1223568Y1492719*
X1223909Y1493188*
X1223909D02*
X1224250Y1493422D01*
X1224932*
X1221693D02*
Y1488500D01*
Y1493422D02*
X1220159D01*
X1219648Y1493188*
X1219648D02*
X1219477Y1492953D01*
X1219307Y1492484*
Y1492016*
X1219477Y1491547*
X1219648Y1491313*
X1219648D02*
X1220159Y1491078D01*
X1221693*
X1220500D02*
X1219307Y1488500D01*
X1211295Y1492250D02*
X1211466Y1492719D01*
X1211807Y1493188*
X1211807D02*
X1212148Y1493422D01*
X1212830*
X1213170Y1493188*
X1213170D02*
X1213511Y1492719D01*
X1213682Y1492250*
X1213852Y1491547*
Y1490375*
X1213682Y1489672*
X1213511Y1489203*
X1213170Y1488734*
X1212830Y1488500*
X1212148*
X1211807Y1488734*
X1211466Y1489203*
X1211295Y1489672*
X1208739Y1493422D02*
X1209080Y1493188D01*
X1209080D02*
X1209420Y1492719D01*
X1209591Y1492250*
X1209761Y1491547*
Y1490375*
X1209591Y1489672*
X1209420Y1489203*
X1209080Y1488734*
X1208739Y1488500*
X1208057*
X1207716Y1488734*
X1207375Y1489203*
X1207205Y1489672*
X1207034Y1490375*
Y1491547*
X1207205Y1492250*
X1207375Y1492719*
X1207716Y1493188*
X1207716D02*
X1208057Y1493422D01*
X1208739*
X1205500D02*
Y1488500D01*
Y1493422D02*
X1203114Y1488500D01*
Y1493422D02*
Y1488500D01*
X1200386Y1493422D02*
Y1488500D01*
X1201580Y1493422D02*
X1199193D01*
X1197659D02*
Y1488500D01*
Y1493422D02*
X1196125D01*
X1195614Y1493188*
X1195614D02*
X1195443Y1492953D01*
X1195273Y1492484*
Y1492016*
X1195443Y1491547*
X1195614Y1491313*
X1195614D02*
X1196125Y1491078D01*
X1197659*
X1196466D02*
X1195273Y1488500D01*
X1192716Y1493422D02*
X1193057Y1493188D01*
X1193057D02*
X1193398Y1492719D01*
X1193568Y1492250*
X1193739Y1491547*
Y1490375*
X1193568Y1489672*
X1193398Y1489203*
X1193057Y1488734*
X1192716Y1488500*
X1192034*
X1191693Y1488734*
X1191352Y1489203*
X1191182Y1489672*
X1191011Y1490375*
Y1491547*
X1191182Y1492250*
X1191352Y1492719*
X1191693Y1493188*
X1191693D02*
X1192034Y1493422D01*
X1192716*
X1189477D02*
Y1488500D01*
X1187432*
X1183511Y1492719D02*
X1183852Y1493188D01*
X1183852D02*
X1184364Y1493422D01*
X1185045*
X1185557Y1493188*
X1185557D02*
X1185898Y1492719D01*
Y1492250*
X1185727Y1491781*
X1185557Y1491547*
X1185216Y1491313*
X1185216D02*
X1184193Y1490844D01*
X1183852Y1490609*
X1183682Y1490375*
X1183511Y1489906*
Y1489203*
X1183852Y1488734*
X1184364Y1488500*
X1185045*
X1185557Y1488734*
X1185898Y1489203*
X1175500Y1492250D02*
X1175670Y1492719D01*
X1176011Y1493188*
X1176011D02*
X1176352Y1493422D01*
X1177034*
X1177375Y1493188*
X1177375D02*
X1177716Y1492719D01*
X1177886Y1492250*
X1178057Y1491547*
Y1490375*
X1177886Y1489672*
X1177716Y1489203*
X1177375Y1488734*
X1177034Y1488500*
X1176352*
X1176011Y1488734*
X1175670Y1489203*
X1175500Y1489672*
X1172943Y1493422D02*
X1173284Y1493188D01*
X1173284D02*
X1173625Y1492719D01*
X1173795Y1492250*
X1173966Y1491547*
Y1490375*
X1173795Y1489672*
X1173625Y1489203*
X1173284Y1488734*
X1172943Y1488500*
X1172261*
X1171920Y1488734*
X1171580Y1489203*
X1171409Y1489672*
X1171239Y1490375*
Y1491547*
X1171409Y1492250*
X1171580Y1492719*
X1171920Y1493188*
X1171920D02*
X1172261Y1493422D01*
X1172943*
X1169705D02*
Y1488500D01*
Y1493422D02*
X1168170D01*
X1167659Y1493188*
X1167659D02*
X1167489Y1492953D01*
X1167318Y1492484*
Y1492016*
X1167489Y1491547*
X1167659Y1491313*
X1167659D02*
X1168170Y1491078D01*
X1169705*
X1168511D02*
X1167318Y1488500D01*
X1165784Y1493422D02*
Y1488500D01*
Y1493422D02*
X1164250D01*
X1163739Y1493188*
X1163739D02*
X1163568Y1492953D01*
X1163398Y1492484*
Y1491781*
X1163568Y1491313*
X1163568D02*
X1163739Y1491078D01*
X1164250Y1490844*
X1165784*
X1160841Y1493422D02*
X1161182Y1493188D01*
X1161182D02*
X1161523Y1492719D01*
X1161693Y1492250*
X1161864Y1491547*
Y1490375*
X1161693Y1489672*
X1161523Y1489203*
X1161182Y1488734*
X1160841Y1488500*
X1160159*
X1159818Y1488734*
X1159477Y1489203*
X1159307Y1489672*
X1159136Y1490375*
Y1491547*
X1159307Y1492250*
X1159477Y1492719*
X1159818Y1493188*
X1159818D02*
X1160159Y1493422D01*
X1160841*
X1157602D02*
Y1488500D01*
Y1493422D02*
X1156068D01*
X1155557Y1493188*
X1155557D02*
X1155386Y1492953D01*
X1155216Y1492484*
Y1492016*
X1155386Y1491547*
X1155557Y1491313*
X1155557D02*
X1156068Y1491078D01*
X1157602*
X1156409D02*
X1155216Y1488500D01*
X1152318Y1493422D02*
X1153682Y1488500D01*
X1152318Y1493422D02*
X1150955Y1488500D01*
X1153170Y1490141D02*
X1151466D01*
X1148227Y1493422D02*
Y1488500D01*
X1149420Y1493422D02*
X1147034D01*
X1145500D02*
Y1488500D01*
X1142943Y1493422D02*
X1143284Y1493188D01*
X1143284D02*
X1143625Y1492719D01*
X1143795Y1492250*
X1143966Y1491547*
Y1490375*
X1143795Y1489672*
X1143625Y1489203*
X1143284Y1488734*
X1142943Y1488500*
X1142261*
X1141920Y1488734*
X1141580Y1489203*
X1141409Y1489672*
X1141239Y1490375*
Y1491547*
X1141409Y1492250*
X1141580Y1492719*
X1141920Y1493188*
X1141920D02*
X1142261Y1493422D01*
X1142943*
X1139705D02*
Y1488500D01*
Y1493422D02*
X1137318Y1488500D01*
Y1493422D02*
Y1488500D01*
X1130000Y1493422D02*
Y1488500D01*
Y1493422D02*
X1128636Y1488500D01*
X1127273Y1493422D02*
X1128636Y1488500D01*
X1127273Y1493422D02*
Y1488500D01*
X1124375Y1493422D02*
X1125739Y1488500D01*
X1124375Y1493422D02*
X1123011Y1488500D01*
X1125227Y1490141D02*
X1123523D01*
X1121477Y1493422D02*
Y1488500D01*
Y1493422D02*
X1120284D01*
X1119773Y1493188*
X1119773D02*
X1119432Y1492719D01*
X1119261Y1492250*
X1119091Y1491547*
Y1490375*
X1119261Y1489672*
X1119432Y1489203*
X1119773Y1488734*
X1120284Y1488500*
X1121477*
X1117557Y1493422D02*
Y1488500D01*
Y1493422D02*
X1115341D01*
X1117557Y1491078D02*
X1116193D01*
X1117557Y1488500D02*
X1115341D01*
X1109886Y1493422D02*
Y1488500D01*
X1108352Y1493422D02*
Y1488500D01*
Y1493422D02*
X1105966Y1488500D01*
Y1493422D02*
Y1488500D01*
X1100511Y1493422D02*
Y1489906D01*
X1100341Y1489203*
X1100000Y1488734*
X1099489Y1488500*
X1099148*
X1098636Y1488734*
X1098295Y1489203*
X1098125Y1489906*
Y1493422*
X1096420Y1488969D02*
X1096591Y1488734D01*
X1096420Y1488500*
X1096250Y1488734*
X1096420Y1488969*
X1092330Y1492719D02*
X1092670Y1493188D01*
X1092670D02*
X1093182Y1493422D01*
X1093864*
X1094375Y1493188*
X1094375D02*
X1094716Y1492719D01*
Y1492250*
X1094545Y1491781*
X1094375Y1491547*
X1094034Y1491313*
X1094034D02*
X1093011Y1490844D01*
X1092670Y1490609*
X1092500Y1490375*
X1092330Y1489906*
Y1489203*
X1092670Y1488734*
X1093182Y1488500*
X1093864*
X1094375Y1488734*
X1094716Y1489203*
X1090625Y1488969D02*
X1090795Y1488734D01*
X1090625Y1488500*
X1090455Y1488734*
X1090625Y1488969*
X1087557Y1493422D02*
X1088920Y1488500D01*
X1087557Y1493422D02*
X1086193Y1488500D01*
X1088409Y1490141D02*
X1086705D01*
X1084489Y1488969D02*
X1084659Y1488734D01*
X1084489Y1488500*
X1084318Y1488734*
X1084489Y1488969*
X1162500Y1014800D02*
Y1032950D01*
X1172550Y1043000*
X1204800*
X1209300Y1047500*
X1253063*
X1258878Y1053315*
X1250650Y1013960D02*
Y1018700D01*
X1250500Y1018850*
X1274450Y1021200D02*
X1275850Y1022600D01*
Y1034590*
X1276910Y1035650*
X1279500*
X1274450Y1021200D02*
X1274410Y1021240D01*
X1273685*
X1297300Y1024300D02*
X1296400Y1025200D01*
Y1038637*
X1295600Y1039437*
Y1042793*
X1266000Y1010350D02*
X1265947Y1010404D01*
X1261980*
X1258480Y1013904*
X1257870*
X1306500Y1028000D02*
Y1030726D01*
X1311000Y1028000D02*
Y1030726D01*
X1110000Y1035270D02*
Y1037350D01*
X1116000Y1064000D02*
Y1067390D01*
X1113430Y1069960*
X1104890*
X1116000Y1064000D02*
X1120850D01*
X1110000Y1037350D02*
Y1038728D01*
X1174500Y1060850D02*
X1170750Y1057100D01*
X1167100*
X1165500Y1058700*
Y1060870*
X1161000Y1034500D02*
Y1039050D01*
X1146600Y1053450*
Y1089800*
X1141150Y1095250*
Y1100500*
X1226000Y1051800D02*
X1234900Y1060700D01*
X1239960*
X1242280Y1063020*
Y1065868*
X1226000Y1051800D02*
X1212000D01*
X1205000Y1058800*
Y1060500*
X1242280Y1065868D02*
X1242150Y1065998D01*
X1251004Y1053315D02*
X1248153D01*
X1245970Y1055498*
X1242150*
X1226500Y1063500D02*
Y1067086D01*
X1230600Y1071186*
Y1081300*
X1233700Y1084400*
X1246214*
X1248614Y1086800*
X1252952*
X1226700Y1057700D02*
X1228800Y1059800D01*
Y1067038*
X1233262Y1071500*
X1245400*
X1247100Y1073200*
Y1075437*
X1250363Y1078700*
X1251900*
X1253000Y1079800*
Y1082000*
X1253800Y1082800*
X1256000*
X1256800Y1083600*
Y1086889*
X1223150Y1063500D02*
X1226500D01*
X1223150Y1057000D02*
Y1057700D01*
X1226700*
X1242150Y1065998D02*
X1246998D01*
X1253000Y1072000*
Y1075541*
X1254941Y1077482*
Y1080874*
X1295600Y1042793D02*
X1298248Y1045441D01*
X1286400Y1035650D02*
Y1039043D01*
X1286437Y1039080*
Y1041504*
X1293000Y1035650D02*
Y1042815D01*
X1290374Y1045441*
X1279500Y1035650D02*
X1286400D01*
X1313996Y1045286D02*
X1317000D01*
X1311000Y1034270D02*
Y1037000D01*
X1302428Y1056928D02*
X1299064Y1060292D01*
X1313996Y1049698D02*
X1317000D01*
X1314000Y1041709D02*
X1317000D01*
X1299000Y1063791D02*
X1295500D01*
X1333070Y1044800D02*
X1334600Y1046330D01*
Y1061950*
X1340052Y1067402*
X1345110*
Y1067500*
X1329730Y1037130D02*
X1330850Y1038250D01*
Y1064560*
X1341800Y1075510*
X1305999Y1034270D02*
X1310999D01*
X1299999Y1035648D02*
Y1039999D01*
X1301500Y1041500*
X1317000Y1053272D02*
X1316372Y1053900D01*
X1314100*
X1348890Y1067500D02*
Y1067552D01*
X1350600*
X1351149Y1068100*
X1352800*
X1382480Y1063950D02*
X1392360Y1073830D01*
Y1093230*
X1382480Y1063950D02*
X1346070D01*
X1345110Y1064910*
Y1067500*
X1487060Y1065290D02*
X1487000Y1065350D01*
X1479340Y1067420D02*
X1475160Y1071600D01*
X1470400*
X1465500Y1076500*
Y1093600*
X1477400Y1055000D02*
X1480571D01*
X1487060Y1061489*
Y1065290*
X1477400Y1055000D02*
Y1057106D01*
X1476821Y1057684*
Y1061339*
X1476780*
X1479339D02*
X1479340Y1061340D01*
Y1067420*
X1568340Y1067770D02*
X1575190Y1074620D01*
Y1088720*
X1581470Y1095000*
X1590000*
X1590630Y1095630*
X1568340Y1067770D02*
X1568260Y1067850D01*
X1561000*
X1087000Y1071100D02*
X1085100Y1073000D01*
X1082150*
Y1103500D02*
X1086000D01*
X1082150Y1087500D02*
X1086500D01*
X1115330Y1084920D02*
X1114280Y1085970D01*
X1108300*
X1131000Y1106000D02*
X1134850D01*
Y1107000*
X1141150Y1100500D02*
Y1100598D01*
X1150951Y1110400*
X1159300*
X1204500Y1077000D02*
X1220400Y1092900D01*
Y1177400*
X1251772Y1096510D02*
X1254941D01*
X1248209Y1096500D02*
Y1099500D01*
X1254786Y1104714D02*
Y1108000D01*
X1256800Y1086889D02*
X1254941Y1088748D01*
X1223000Y1080000D02*
Y1083200D01*
X1232485Y1092685*
X1254941*
X1226500Y1070000D02*
X1228100Y1071600D01*
Y1081900*
X1233200Y1087000*
X1245000*
X1249000Y1091000*
X1252000*
X1254941Y1084811D02*
X1252952Y1086800D01*
X1237300Y1098100D02*
Y1100998D01*
X1237228*
X1234500Y1089500D02*
X1237228D01*
X1233500Y1081000D02*
X1237228D01*
X1223150Y1076500D02*
X1223000D01*
Y1080000*
X1223150Y1070000D02*
X1226500D01*
X1240772Y1089500D02*
X1244000D01*
X1263000Y1096709D02*
X1266500D01*
X1266979Y1089272D02*
Y1092685D01*
X1262736Y1104496D02*
Y1108000D01*
X1294027Y1088272D02*
Y1092685D01*
X1286437Y1081479D02*
X1289500Y1084542D01*
X1290314Y1080935D02*
X1294054Y1084675D01*
X1266500Y1100291D02*
X1270500D01*
X1296572Y1082428D02*
X1298936Y1084792D01*
X1266248Y1108000D02*
Y1111000D01*
X1258878Y1088748D02*
X1257026Y1090600D01*
X1252400*
X1252000Y1091000*
X1294311Y1092685D02*
Y1096622D01*
X1278563Y1080874D02*
Y1084728D01*
X1290374Y1076937D02*
X1292300D01*
X1292815Y1077452*
X1295228*
X1289500Y1088272D02*
X1294000D01*
X1310214Y1104496D02*
Y1108000D01*
X1298781Y1077491D02*
X1302175Y1080884D01*
X1313791Y1104496D02*
Y1108000D01*
X1319500Y1094500D02*
X1322228D01*
X1319500Y1099000D02*
X1322228D01*
X1352000Y1075300D02*
X1348890D01*
Y1075500*
X1345110D02*
X1341810D01*
X1341800Y1075510*
X1383670Y1072650D02*
X1390050Y1079030D01*
Y1093700*
X1383670Y1072650D02*
X1345570D01*
X1345110Y1073110*
Y1075500*
X1392360Y1093230D02*
X1376090Y1109500D01*
X1368500*
X1390050Y1093700D02*
X1376980Y1106770D01*
X1367880*
X1366180Y1108470*
Y1111680*
X1482500Y1082500D02*
X1482490Y1082490D01*
X1481330*
X1478810Y1085010*
Y1092870*
X1479590Y1093650*
X1482500*
X1476537Y1082737D02*
X1478810Y1085010D01*
X1474680Y1073840D02*
Y1078202D01*
X1474221Y1078661*
X1476780D02*
X1476537D01*
Y1082737*
X1561000Y1082350D02*
X1564450D01*
X1570890Y1088790*
Y1092380*
X1581010Y1102500*
X1591634*
X1595748Y1106614*
X1590630Y1095630D02*
Y1098740D01*
X1114000Y1134000D02*
Y1142038D01*
X1129864Y1157902*
X1132902*
X1116000Y1137000D02*
Y1141046D01*
X1131454Y1156500*
X1135000*
X1137000Y1158500*
X1118000Y1134000D02*
Y1138000D01*
X1122500Y1142500*
X1138100*
X1139500Y1143900*
Y1157000*
X1120000Y1137000D02*
X1123000Y1140000D01*
X1138000*
X1140950Y1142950*
Y1153862*
X1141850Y1154763*
Y1159602*
X1137200Y1145000D02*
Y1148228D01*
X1137000*
X1132200Y1145000D02*
Y1148228D01*
X1132500*
X1108000Y1130390D02*
Y1139000D01*
X1126820Y1157820*
Y1159070*
X1165700Y1138200D02*
Y1164300D01*
X1163500Y1166500*
X1160200*
X1162500Y1135000D02*
X1165700Y1138200D01*
X1156500Y1134000D02*
X1162300Y1139800D01*
Y1158000*
X1154500Y1137000D02*
X1160700Y1143200D01*
Y1156700*
X1147000Y1133500D02*
X1149700Y1136200D01*
Y1154300*
X1150260Y1154860*
Y1157340*
X1152500Y1145000D02*
Y1148228D01*
X1157000Y1145000D02*
Y1148228D01*
X1175500Y1130390D02*
Y1135000D01*
X1162500Y1130390D02*
Y1135000D01*
X1235000Y1142000D02*
Y1146900D01*
X1238600Y1150500*
X1253500*
X1263000Y1160000*
Y1162150*
X1266752Y1165902*
X1294400Y1131000D02*
X1298400Y1135000D01*
Y1155000*
X1294400Y1131000D02*
X1256400D01*
X1243400Y1144000*
X1239000*
X1279500Y1133500D02*
Y1135200D01*
X1277800Y1136900*
Y1154400*
X1275200Y1157000*
X1273450*
X1272890Y1157560*
X1260000Y1133500D02*
X1264300Y1137800D01*
Y1160300*
X1266752Y1162752*
X1259000Y1110000D02*
Y1113228D01*
Y1116772D02*
Y1120000D01*
X1303000Y1135000D02*
Y1148000D01*
X1304000Y1149000*
Y1166456*
X1303000Y1130390D02*
Y1135000D01*
X1366180Y1111680D02*
X1368500Y1114000D01*
X1393100Y1124300D02*
X1393790D01*
X1396650Y1127160*
Y1130000*
X1396460Y1135410D02*
X1399250Y1138200D01*
X1421800*
X1431900Y1148300*
Y1155690*
X1554350Y1137000D02*
X1554290Y1137060D01*
X1547640Y1110000D02*
X1553330Y1115690D01*
Y1117381*
X1553350Y1117402*
Y1119500*
X1547580Y1135000D02*
X1549110D01*
X1551170Y1137060*
X1554290*
X1560150Y1137000D02*
Y1143970D01*
X1559280Y1144840*
Y1150470*
X1559250Y1150500*
X1559650Y1119500D02*
X1560150Y1120000D01*
Y1137000*
X1612677Y1130236D02*
X1608914Y1134000D01*
X1582420*
X1580410Y1136010*
Y1166520*
X1572920Y1174010*
X1097500Y1149000D02*
X1097500D01*
X1112800*
X1124600Y1160800*
X1096500Y1181500D02*
X1123000D01*
X1124500Y1183000*
X1097000Y1171500D02*
X1105400D01*
X1109600Y1175700*
X1121900*
X1097000Y1162000D02*
X1121500D01*
X1123500Y1164000*
X1124500Y1186374D02*
X1122126Y1184000D01*
X1106000*
X1103500Y1186500*
X1097500*
X1124200Y1167200D02*
X1120500Y1163500D01*
X1110800*
X1106800Y1167500*
X1097500*
X1124400Y1174000D02*
X1123600D01*
X1121900Y1175700*
X1099500Y1169500D02*
X1107100D01*
X1107600Y1170000*
X1122500*
X1123200Y1170700*
X1124100*
X1137000Y1151772D02*
X1137300D01*
Y1154800*
X1132500Y1151772D02*
Y1154600D01*
X1157471Y1151772D02*
X1157000Y1152242D01*
Y1154500*
X1154449Y1184983D02*
X1151672D01*
Y1181000D02*
Y1185000D01*
X1155199Y1178500D02*
Y1180900D01*
X1154449Y1181650*
X1148150Y1185000D02*
Y1187949D01*
X1160700Y1156700D02*
X1159400Y1158000D01*
X1150260Y1157340D02*
X1149700Y1157900D01*
X1139500Y1157000D02*
X1139080Y1157420D01*
X1160748Y1187949D02*
X1165049D01*
X1168500Y1191400*
Y1201939*
X1176500Y1209939*
Y1221500*
X1157598Y1175350D02*
X1159272Y1177024D01*
Y1178500*
X1157598Y1169051D02*
X1154449Y1172201D01*
X1157598Y1181650D02*
X1154449Y1184799D01*
X1157598Y1187949*
X1169000Y1182500D02*
X1171728D01*
X1168500Y1165500D02*
X1171728D01*
X1168500Y1161000D02*
X1171728D01*
X1145500Y1181000D02*
X1148228D01*
X1145500Y1176500D02*
X1148228D01*
X1152500Y1151772D02*
Y1154500D01*
X1175272Y1182500D02*
Y1187000D01*
X1171728Y1182500D02*
Y1187000D01*
X1175272Y1165500D02*
X1178000D01*
X1159272Y1178500D02*
X1163728D01*
X1175272Y1187000D02*
Y1191500D01*
X1171728Y1187000D02*
Y1191500D01*
X1175272Y1161000D02*
X1178000D01*
X1167272Y1178500D02*
X1174060D01*
X1175510Y1179950*
Y1182500*
X1181610Y1165500D02*
Y1165598D01*
X1179109Y1168100*
X1168700*
X1166100Y1170700*
X1165000*
X1220400Y1177400D02*
X1218400Y1179400D01*
Y1211200*
X1236500Y1179500D02*
X1239500Y1182500D01*
X1260500*
X1261000Y1183000*
X1235500Y1154500D02*
X1253500D01*
X1261500Y1162500*
X1223000Y1179500D02*
X1220500Y1182000D01*
Y1211200*
X1238500Y1156500D02*
X1253000D01*
X1261902Y1165402*
Y1169902*
X1235500Y1158500D02*
X1253160D01*
X1260500Y1165840*
Y1172000*
X1262000Y1173500*
X1295150Y1175350D02*
X1295570D01*
X1297272Y1177052*
Y1178500*
X1272979Y1169123D02*
X1275792Y1171936D01*
X1275728Y1181056D02*
X1273645D01*
X1273051Y1181650*
Y1184983D02*
X1275728D01*
X1273051Y1175350D02*
X1274220D01*
X1275369Y1176500*
X1298400Y1155000D02*
X1297000Y1156400D01*
X1304000Y1166456D02*
X1303146Y1167310D01*
X1394900Y1167200D02*
Y1180430D01*
X1402580Y1188110*
X1447300*
X1387150Y1164000D02*
X1393140D01*
X1394900Y1165760*
Y1167200*
X1387500Y1157150D02*
Y1163650D01*
X1387150Y1164000*
X1431900Y1155690D02*
X1430550Y1157040D01*
Y1166470*
X1465850Y1169560D02*
X1447300Y1188110D01*
X1560650Y1174000D02*
X1572910D01*
X1572920Y1174010*
X1559250Y1150500D02*
X1559500Y1150750D01*
Y1163020*
X1091188Y1207200D02*
X1093890Y1209902D01*
Y1210000*
X1091188Y1207200D02*
X1083200D01*
X1074800Y1215600*
Y1246300*
X1078000Y1249500*
X1078500Y1227500D02*
Y1230700D01*
X1077500Y1231700*
Y1234200*
X1079000Y1221500D02*
Y1224900D01*
X1080760Y1226660*
X1089300*
X1090240Y1227600*
X1092100*
X1094450Y1229950*
Y1234230*
X1098170Y1237950*
X1177980*
X1215280Y1275250*
X1227680*
X1229930Y1277500*
X1234500*
X1094000Y1219000D02*
Y1221300D01*
X1095200Y1222500*
X1098500*
X1094000Y1219000D02*
X1091500D01*
X1090390Y1220110*
X1087500*
X1093890Y1197500D02*
X1099000D01*
X1093890Y1210000D02*
X1099000D01*
X1129900Y1200000D02*
X1110500Y1219400D01*
Y1226610*
X1124895Y1195780D02*
X1106175Y1214500D01*
X1093890*
X1123500Y1193800D02*
X1107300Y1210000D01*
X1099000*
X1126400Y1189500D02*
X1125960D01*
X1117660Y1197800*
X1133795Y1199555D02*
X1117000Y1216349D01*
Y1221500*
X1129252Y1194248D02*
X1124990Y1198510D01*
Y1201010*
X1106000Y1220000*
Y1226610*
X1099000Y1197500D02*
Y1197800D01*
X1117660*
X1160798Y1194298D02*
Y1213798D01*
X1168500Y1221500*
X1160798Y1194298D02*
X1160796Y1194300D01*
X1160700*
X1162900Y1193100D02*
X1164900Y1195100D01*
Y1213900*
X1172500Y1221500*
X1155979Y1201000D02*
Y1214021D01*
X1150500Y1219500*
X1155979Y1200358D02*
Y1201000D01*
X1148300Y1217800D02*
Y1220400D01*
X1149400Y1221500*
X1152500*
X1160748Y1191098D02*
X1164398D01*
X1166600Y1193300*
Y1211100*
X1174500Y1219000*
X1151299Y1194248D02*
Y1209701D01*
X1146000Y1215000*
Y1219500*
X1157598Y1194248D02*
Y1199198D01*
X1158500Y1200100*
Y1221500*
X1148150Y1194248D02*
Y1209850D01*
X1136500Y1221500*
X1154449Y1194248D02*
Y1211651D01*
X1148300Y1217800*
X1175272Y1191500D02*
Y1196000D01*
X1171728Y1191500D02*
Y1196000D01*
X1218400Y1211200D02*
X1231700Y1224500D01*
X1284600*
X1220500Y1211200D02*
X1231300Y1222000D01*
X1254000*
X1237500Y1189000D02*
X1235000Y1191500D01*
X1231890*
X1242000Y1189500D02*
X1246500Y1194000D01*
X1258000*
X1239800Y1203900D02*
X1238000D01*
X1237900Y1204000*
X1231890*
X1268000Y1199500D02*
X1253000Y1214500D01*
X1231890*
X1262000Y1190000D02*
X1258000Y1194000D01*
X1261500Y1196700D02*
X1248200Y1210000D01*
X1247700*
X1247700*
X1231890*
X1282200Y1207600D02*
Y1213900D01*
X1279000Y1217100*
Y1222000*
X1279350Y1194248D02*
Y1204750D01*
X1282200Y1207600*
X1285650Y1194248D02*
Y1219850D01*
X1283500Y1222000*
X1273051Y1194248D02*
Y1198449D01*
X1264800Y1206700*
Y1215200*
X1258000Y1222000*
X1276201Y1194248D02*
Y1198172D01*
X1274500Y1199872*
Y1213500*
X1266000Y1222000*
X1262000*
X1266752Y1191098D02*
X1262902D01*
X1250100Y1203900*
X1239800*
X1314500Y1226000D02*
Y1231500D01*
X1343000Y1260000*
Y1300000*
X1300380Y1196380D02*
Y1208720D01*
X1284600Y1224500*
X1298248Y1194248D02*
X1300380Y1196380D01*
X1375000Y1192500D02*
X1354500D01*
X1336500Y1210500*
X1330000*
X1314500Y1226000*
X1354840Y1225360D02*
X1359880D01*
X1360030Y1225510*
X1427500Y1215900D02*
X1429300Y1217700D01*
Y1238700*
X1427949Y1240051*
X1424248*
X1437500Y1206500D02*
Y1215600D01*
X1430600Y1222500*
Y1239600*
X1426999Y1243201*
X1424248*
X1427600Y1206300D02*
Y1215800D01*
X1427500Y1215900*
X1418500Y1206300D02*
Y1208500D01*
X1437500Y1201390D02*
Y1206500D01*
X1568020Y1220120D02*
Y1246820D01*
X1586000Y1264800*
X1607165Y1212599D02*
X1603265Y1216500D01*
X1571640*
X1568020Y1220120*
X1077500Y1234200D02*
X1083100Y1239800D01*
X1177400*
X1181900Y1244300*
Y1273000*
X1196500Y1287600*
Y1291700*
X1231390Y1326590*
Y1330000*
X1077500Y1268000D02*
X1080500Y1271000D01*
Y1319500*
X1085500Y1324500*
X1091500*
X1093890Y1326890*
Y1330000*
X1080500Y1242500D02*
Y1253500D01*
X1077500Y1256500*
Y1268000*
X1078500Y1238900D02*
X1080036Y1240436D01*
X1081236*
X1093100Y1252300*
Y1273600*
X1097000Y1277500*
X1114000Y1254000D02*
Y1262038D01*
X1129864Y1277902*
X1130930*
X1120000Y1257000D02*
X1123000Y1260000D01*
X1137700*
X1140950Y1263250*
Y1273862*
X1141850Y1274763*
Y1279602*
X1118000Y1254000D02*
Y1258000D01*
X1122500Y1262500*
X1137700*
X1139500Y1264300*
Y1277731*
X1116000Y1257000D02*
Y1261046D01*
X1131454Y1276500*
X1135000*
X1137000Y1278500*
X1108000Y1250390D02*
Y1260100D01*
X1126300Y1278400*
X1175500Y1255000D02*
X1166200Y1264300D01*
Y1283951*
X1163898Y1286254*
Y1289051*
X1156500Y1254000D02*
X1162300Y1259800D01*
Y1278000*
X1175500Y1250390D02*
Y1255000D01*
X1162500Y1250390D02*
Y1255000D01*
X1251500Y1254000D02*
Y1263900D01*
X1265502Y1277902*
X1268802*
X1269616Y1278716*
X1257500Y1257000D02*
X1260500Y1260000D01*
X1274500*
X1278450Y1263950*
Y1273862*
X1279350Y1274763*
Y1279602*
X1253500Y1257000D02*
Y1262700D01*
X1267300Y1276500*
X1272500*
X1274500Y1278500*
X1255500Y1254000D02*
Y1258000D01*
X1260000Y1262500*
X1274800*
X1277000Y1264700*
Y1277000*
X1277776Y1277776*
Y1278470*
X1245500Y1250390D02*
Y1260800D01*
X1264000Y1279300*
X1266450*
X1269902Y1282752*
X1294000Y1254000D02*
X1299800Y1259800D01*
Y1278000*
X1292000Y1257000D02*
X1298200Y1263200D01*
Y1276700*
X1300000Y1255000D02*
X1303450Y1258450D01*
Y1284201*
X1300000Y1250390D02*
Y1255000D01*
X1365500Y1243500D02*
X1369898D01*
X1372898Y1246500*
X1389500*
X1384250Y1234900D02*
X1387150Y1237800D01*
X1388390*
X1384250Y1234900D02*
X1367100D01*
X1362500Y1239500*
X1387000Y1235000D02*
X1383000Y1231000D01*
X1367500*
X1364000Y1234500*
X1390701Y1257399D02*
X1386600Y1261500D01*
Y1262304*
X1383704Y1265200*
X1362900*
X1358200Y1269900*
X1390400Y1260500D02*
X1382900Y1268000D01*
X1363000*
X1390000Y1267300D02*
Y1269000D01*
X1373000Y1286000*
Y1293100*
X1403922Y1266676D02*
Y1271422D01*
X1406000Y1273500*
X1414799Y1265248D02*
Y1279401D01*
X1409500Y1284700*
Y1293000*
X1399051Y1265248D02*
Y1269449D01*
X1388000Y1280500*
Y1292500*
X1402201Y1265248D02*
Y1270299D01*
X1400500Y1272000*
Y1284000*
X1399500Y1285000*
X1392500*
X1390000Y1287500*
Y1289500*
X1405350Y1265248D02*
X1403922Y1266676D01*
X1411650Y1265248D02*
Y1279850D01*
X1402000Y1289500*
X1394000*
X1392752Y1265248D02*
Y1269248D01*
X1376100Y1285900*
Y1291300*
X1426000Y1264000D02*
X1427500Y1265500D01*
Y1283000*
X1434000Y1289500*
X1424248Y1265248D02*
X1425948Y1266948D01*
Y1286948*
X1432000Y1293000*
X1424248Y1262098D02*
X1426031D01*
X1429000Y1265068*
Y1280000*
X1436000Y1287000*
Y1293000*
X1424248Y1258949D02*
X1425774Y1260475D01*
X1426246*
X1430500Y1264729*
Y1278000*
X1438000Y1285500*
Y1289500*
X1417949Y1265248D02*
Y1278951D01*
X1412000Y1284900*
Y1290000*
X1421098Y1265248D02*
Y1270598D01*
X1422500Y1272000*
X1421098Y1240051D02*
X1417949Y1243201D01*
X1421098Y1252650D02*
X1417949Y1255799D01*
X1421098Y1258949*
X1503500Y1266650D02*
Y1271060D01*
X1504000Y1271560*
Y1274500*
X1586000Y1264800D02*
Y1338200D01*
X1565200Y1359000*
X1516890*
X1500820Y1375070*
X1495800*
X1464600Y1406270*
Y1406300*
X1097000Y1299000D02*
X1099500Y1301500D01*
X1105500*
X1097000Y1282000D02*
X1121900D01*
X1124800Y1284900*
X1128250*
X1129252Y1285902*
X1097000Y1273000D02*
X1115700D01*
X1125452Y1282752*
X1129252*
X1078000Y1275500D02*
X1074600Y1278900D01*
Y1334600*
X1077500Y1280500D02*
Y1333500D01*
X1096500Y1352500*
X1097500Y1293500D02*
X1107500D01*
X1108621Y1294620*
X1122880*
X1124600Y1306000D02*
X1122000Y1303400D01*
X1106400*
X1103300Y1306500*
X1098000*
X1124500Y1303000D02*
X1122500Y1301000D01*
X1106000*
X1105500Y1301500*
X1121600Y1283900D02*
X1124600Y1286900D01*
X1127101*
X1129252Y1289051*
X1121600Y1283900D02*
X1107600D01*
X1102000Y1289500*
X1097500*
X1123500Y1294000D02*
X1122880Y1294620D01*
X1139500Y1277731D02*
X1138701Y1278530D01*
Y1279320*
X1160748Y1307949D02*
X1164600D01*
X1166900Y1310249*
Y1320339*
X1176500Y1329939*
Y1338500*
X1157598Y1289051D02*
X1154449Y1292201D01*
X1157598Y1301650D02*
X1154449Y1304799D01*
X1157598Y1307949*
X1181610Y1285500D02*
Y1285598D01*
X1235000Y1293500D02*
X1239900D01*
X1241800Y1295400*
X1259600*
X1234500Y1273000D02*
X1255450D01*
X1263627Y1281177*
X1234000Y1299000D02*
X1237400Y1302400D01*
X1242100*
X1234500Y1282000D02*
X1259000D01*
X1261000Y1284000*
X1262000Y1287500D02*
X1259100Y1284600D01*
X1244400*
X1239500Y1289500*
X1235000*
X1262000Y1303000D02*
X1260000Y1301000D01*
X1243500*
X1242100Y1302400*
X1262000Y1306374D02*
X1258926Y1303300D01*
X1244200*
X1241000Y1306500*
X1235000*
X1261000Y1294000D02*
X1259600Y1295400D01*
X1295098Y1295350D02*
X1295620D01*
X1297272Y1297002*
Y1298500*
X1295098Y1289051D02*
X1291949Y1292201D01*
X1295098Y1301650D02*
X1291949Y1304799D01*
X1295098Y1307949*
X1267728Y1298500D02*
Y1300070D01*
X1269308Y1301650*
X1269902*
X1298200Y1276700D02*
X1296900Y1278000D01*
X1303450Y1284201D02*
X1301398Y1286254D01*
Y1289051*
X1298248Y1307949D02*
X1302919D01*
X1306500Y1311530*
Y1324700*
X1314000Y1332200*
Y1338500*
X1319110Y1285500D02*
Y1285598D01*
X1343000Y1300000D02*
X1324000Y1319000D01*
Y1344000*
X1316500Y1351500*
X1254500*
X1247500Y1358500*
X1105500*
X1101500Y1362500*
Y1372000*
X1096500Y1377000*
X1074000*
X1358200Y1269900D02*
Y1286720D01*
X1360480Y1289000*
X1362500*
X1365920Y1282500D02*
Y1285580D01*
X1362500Y1289000*
X1395000Y1271000D02*
X1380500Y1285500D01*
Y1292000*
X1406000Y1273500D02*
Y1283000D01*
X1401700Y1287300*
X1393300*
X1392000Y1288600*
Y1292500*
X1419500Y1270500D02*
Y1281000D01*
X1414000Y1286500*
Y1293000*
X1422500Y1272000D02*
Y1283500D01*
X1416000Y1290000*
X1504000Y1274500D02*
Y1276770D01*
X1504500Y1277270*
Y1283900*
X1523550Y1277130D02*
X1523740D01*
X1527980Y1281370*
X1504500Y1283900D02*
X1504450Y1283950D01*
X1493540*
X1074600Y1334600D02*
X1097000Y1357000D01*
X1093890Y1317500D02*
Y1317598D01*
X1096291Y1320000*
X1098000*
X1093890Y1330000D02*
X1097500D01*
X1123900Y1316100D02*
Y1317100D01*
X1106500Y1334500*
X1093890*
X1121900Y1316000D02*
Y1316100D01*
X1108000Y1330000*
X1097500*
X1134600Y1318320D02*
Y1318749D01*
X1117000Y1336349*
Y1341500*
X1127100Y1318600D02*
Y1319500D01*
X1106000Y1340600*
Y1346610*
X1130600Y1319100D02*
X1110500Y1339200D01*
Y1346610*
X1121000Y1313500D02*
X1114500Y1320000D01*
X1098000*
X1162300Y1312900D02*
X1163300Y1313900D01*
Y1329300*
X1172500Y1338500*
X1156700Y1339300D02*
X1154500Y1341500D01*
X1160748Y1314248D02*
Y1331248D01*
X1168000Y1338500*
X1160748Y1311098D02*
X1163900D01*
X1165200Y1312398*
Y1326200*
X1174500Y1335500*
Y1342000*
X1151299Y1314248D02*
X1148500Y1317047D01*
Y1342000*
X1154449Y1314248D02*
Y1334551D01*
X1150500Y1338500*
X1154449Y1311098D02*
X1156700Y1313350D01*
Y1339300*
X1243600Y1342500D02*
Y1346610D01*
X1243500*
X1235500Y1319500D02*
X1237100Y1321100D01*
X1251900*
X1231390Y1317500D02*
Y1317598D01*
X1233291Y1319500*
X1235500*
X1231390Y1330000D02*
X1234500D01*
X1267900Y1319400D02*
X1248000Y1339300D01*
Y1346610*
X1263670Y1319230D02*
Y1320330D01*
X1249500Y1334500*
X1231390*
X1261500Y1314000D02*
X1245500Y1330000D01*
X1234500*
X1261500Y1310000D02*
Y1311500D01*
X1251900Y1321100*
X1290400Y1319300D02*
Y1324900D01*
X1286000Y1329300*
Y1342000*
X1274600Y1319000D02*
Y1335600D01*
X1272200Y1338000*
X1266000*
X1271500Y1318980D02*
Y1319349D01*
X1267849Y1323000*
Y1328151*
X1254500Y1341500*
X1288799Y1314248D02*
Y1323201D01*
X1283500Y1328500*
Y1338500*
X1291949Y1314248D02*
Y1334551D01*
X1288000Y1338500*
X1295098Y1314248D02*
Y1336902D01*
X1290000Y1342000*
X1299630Y1321507D02*
Y1332630D01*
X1305500Y1338500*
X1303300Y1312900D02*
X1303900D01*
X1304500Y1313500*
Y1331000*
X1312000Y1338500*
Y1342000*
X1298248Y1314248D02*
X1299927D01*
X1302279Y1316600*
Y1331500*
X1308000Y1337221*
Y1342000*
X1453000Y1328000D02*
X1456000Y1331000D01*
X1468500*
X1453000Y1328000D02*
X1451600D01*
X1450000Y1329600*
Y1332600*
X1447150Y1335450*
X1441300*
X1438800Y1337950*
X1343150*
X1320400Y1360700*
X1108300*
X1104000Y1365000*
Y1374500*
X1098500Y1380000*
X1018000*
X1015984Y1382016*
Y1392795*
X1448000Y1338000D02*
Y1342700D01*
X1434400Y1356300*
X1423000Y1321650D02*
X1430500D01*
X1433920*
X1437220Y1324950*
X1447950*
X1448000Y1325000*
X1437500Y1311650D02*
X1441320Y1315470D01*
X1448820*
X1448830Y1315480*
X1452980*
X1453000Y1315500*
Y1321000*
X1458000Y1326000*
Y1328000*
X1443150Y1331000D02*
X1447000D01*
X1473000Y1315150D02*
X1473500D01*
X1473150Y1315500*
X1464000*
X1470500Y1329000D02*
X1468500Y1331000D01*
X1475000Y1337000D02*
X1486600Y1348600D01*
X1488600*
X1491000Y1351000*
Y1354000*
X1464000Y1315500D02*
Y1328000D01*
X1480350Y1325500D02*
Y1330590D01*
X1478440Y1332500*
X1476000*
X1114000Y1377000D02*
Y1385038D01*
X1128630Y1399668*
X1120000Y1380000D02*
X1123000Y1383000D01*
X1138100*
X1140950Y1385850*
Y1396862*
X1141850Y1397763*
Y1402602*
X1116000Y1380000D02*
Y1384700D01*
X1130800Y1399500*
X1135000*
X1137000Y1401500*
X1118000Y1377000D02*
Y1381000D01*
X1122500Y1385500*
X1138200*
X1139500Y1386800*
Y1398800*
X1108000Y1373390D02*
Y1384000D01*
X1126000Y1402000*
X1162000Y1378000D02*
Y1380100D01*
X1166100Y1384200*
Y1407051*
X1156500Y1377000D02*
Y1378800D01*
X1163680Y1385980*
Y1399680*
X1162360Y1401000*
X1162300*
X1154500Y1380000D02*
X1162100Y1387600D01*
Y1398300*
X1152500Y1377000D02*
Y1380680D01*
X1160300Y1388480*
Y1397750*
X1162500Y1373390D02*
Y1375600D01*
X1162000Y1376100*
Y1378000*
X1175500Y1373390D02*
Y1378000D01*
X1251500Y1377000D02*
Y1385038D01*
X1267262Y1400800*
X1268600*
X1253500Y1380000D02*
Y1384046D01*
X1268854Y1399400*
X1272400*
X1274500Y1401500*
X1255500Y1377000D02*
Y1381000D01*
X1260000Y1385500*
X1275100*
X1277000Y1387400*
Y1400000*
X1257500Y1380000D02*
X1260500Y1383000D01*
X1274500*
X1278450Y1386950*
Y1398700*
X1279350Y1399600*
Y1402602*
X1245500Y1373390D02*
Y1382000D01*
X1264120Y1400620*
Y1401870*
X1294000Y1377000D02*
X1299800Y1382800D01*
Y1401000*
X1284500Y1376500D02*
X1287200Y1379200D01*
Y1400608*
X1292000Y1380000D02*
X1298200Y1386200D01*
Y1399700*
X1300000Y1378000D02*
X1303400Y1381400D01*
Y1407251*
X1300000Y1373390D02*
Y1378000D01*
X1313000Y1373390D02*
Y1378000D01*
X1461600Y1353000D02*
X1461289D01*
Y1354800*
X1460909Y1355180*
Y1357850*
X1460000*
X1494499Y1385498D02*
Y1389898D01*
X1517369Y1383398D02*
X1510749D01*
X1508649Y1385498*
X1503499*
X1517469Y1383498D02*
X1517369Y1383398D01*
X1528690*
X1528790Y1383498*
X1015984Y1392795D02*
X1025795D01*
X1031000Y1398000*
Y1422000*
X1037000Y1428000*
X1042000*
X1096500Y1424500D02*
X1099800D01*
X1100800Y1425500*
X1104699*
X1097500Y1416500D02*
X1104100D01*
X1105800Y1418200*
X1122300*
X1097000Y1405000D02*
X1121500D01*
X1123500Y1407000*
X1097000Y1396000D02*
X1116500D01*
X1124500Y1404000*
X1071000Y1418150D02*
Y1422500D01*
X1061000Y1416500D02*
Y1422740D01*
X1062000Y1423740*
Y1428850*
X1061000Y1416500D02*
X1065500D01*
X1067150Y1418150*
X1071000*
X1124430Y1429304D02*
X1122126Y1427000D01*
X1106000*
X1103500Y1429500*
X1097500*
X1124500Y1426000D02*
X1123000Y1424500D01*
X1105699*
X1104699Y1425500*
X1124000Y1413651D02*
X1123349Y1413000D01*
X1108500*
X1107000Y1414500*
X1100500*
X1121200Y1407200D02*
X1124000Y1410000D01*
X1125000*
X1121200Y1407200D02*
X1102800D01*
X1097500Y1412500*
X1123500Y1417000D02*
X1122300Y1418200D01*
X1126272Y1421500D02*
X1130728D01*
X1162100Y1398300D02*
X1159400Y1401000D01*
X1139500Y1398800D02*
X1138701Y1399599D01*
Y1401009*
X1160300Y1397750D02*
X1156950Y1401100D01*
X1166100Y1407051D02*
X1163898Y1409254D01*
Y1412051*
X1157598D02*
X1154449Y1415201D01*
X1157598Y1424650D02*
X1154449Y1427799D01*
X1157598Y1430949*
X1168500Y1408500D02*
X1171728D01*
X1168500Y1404000D02*
X1171728D01*
X1175272Y1408500D02*
X1178000D01*
X1175272Y1404000D02*
X1178000D01*
X1184000Y1397000D02*
Y1398300D01*
X1198000Y1412300*
Y1416100*
X1231390Y1449490*
Y1453000*
X1185390Y1408500D02*
X1188500D01*
X1234000Y1424500D02*
X1260500D01*
X1262000Y1426000*
X1235000Y1416500D02*
Y1418800D01*
X1236200Y1420000*
X1252100*
X1234500Y1405000D02*
X1259000D01*
X1261000Y1407000*
X1234500Y1396000D02*
Y1396800D01*
X1240100Y1402400*
X1261102*
X1262902Y1404200*
X1262000Y1429000D02*
X1259600Y1426600D01*
X1246200*
X1245300Y1427500*
X1238000*
X1259500Y1413000D02*
X1260151Y1413651D01*
X1261500*
X1259500Y1413000D02*
X1246000D01*
X1244500Y1414500*
X1238000*
X1262000Y1410500D02*
X1258500Y1407000D01*
X1245000*
X1239500Y1412500*
X1235000*
X1261000Y1417000D02*
X1259400Y1418600D01*
X1253500*
X1252100Y1420000*
X1295098Y1418350D02*
X1295640D01*
X1297272Y1419982*
Y1421418*
X1295098Y1412051D02*
X1291949Y1415201D01*
X1295098Y1424650D02*
X1291949Y1427799D01*
X1295098Y1430949*
X1298200Y1399700D02*
X1296900Y1401000D01*
X1303400Y1407251D02*
X1301398Y1409254D01*
Y1412051*
X1319110Y1408500D02*
Y1408598D01*
X1316009Y1411700*
X1305700*
X1303800Y1413600*
X1443670Y1408520D02*
Y1414680D01*
X1431365Y1426985*
Y1456590*
X1431250*
X1450300Y1414900D02*
Y1421130D01*
X1443650Y1408500D02*
X1443670Y1408520D01*
X1499189Y1410638D02*
X1510049Y1421498D01*
X1529999*
X1084800Y1439200D02*
X1086250Y1440650D01*
X1090110*
X1087000Y1453000D02*
X1090110D01*
X1087000Y1457500D02*
X1090110D01*
X1069000Y1435150D02*
Y1435200D01*
X1072800*
X1069000Y1428850D02*
Y1429000D01*
X1073500*
X1062000Y1435150D02*
X1069000D01*
X1093890Y1453000D02*
X1097500D01*
X1122600Y1438200D02*
Y1438512D01*
X1108112Y1453000*
X1097500*
X1134910Y1440570D02*
Y1441439D01*
X1130349Y1446000*
Y1451151*
X1117000Y1464500*
X1124200Y1438400D02*
Y1440500D01*
X1109200Y1455500*
X1097912*
X1095912Y1457500*
X1093890*
X1130500Y1442400D02*
X1121347Y1451553D01*
X1120501*
X1110500Y1461554*
Y1469610*
X1126940Y1441130D02*
Y1442060D01*
X1106000Y1463000*
Y1469610*
X1098500Y1438500D02*
X1096500Y1440500D01*
X1093890*
X1162130Y1444507D02*
Y1457730D01*
X1167200Y1462800*
X1164779Y1444008D02*
Y1456500D01*
X1170500Y1462221*
Y1465000*
X1166569Y1449468D02*
Y1455569D01*
X1172500Y1461500*
X1169389Y1449268D02*
X1174500Y1454379D01*
Y1465000*
X1155979Y1444000D02*
Y1456021D01*
X1150500Y1461500*
X1155979Y1443358D02*
Y1444000D01*
X1159129Y1443778D02*
Y1458371D01*
X1152500Y1465000*
X1151299Y1437248D02*
Y1446201D01*
X1146000Y1451500*
Y1461500*
X1154449Y1437248D02*
Y1447951D01*
X1148500Y1453900*
Y1465000*
X1256400Y1440800D02*
X1244200Y1453000D01*
X1231390*
Y1440500D02*
X1236500D01*
X1264400Y1441020D02*
Y1442100D01*
X1243500Y1463000*
Y1469610*
X1261600Y1438500D02*
Y1439400D01*
X1243500Y1457500*
X1231390*
X1258200Y1436500D02*
X1254200Y1440500D01*
X1236500*
X1293479Y1444000D02*
Y1456021D01*
X1288000Y1461500*
X1293479Y1443358D02*
Y1444000D01*
X1271500Y1441500D02*
X1267849Y1445151D01*
Y1451151*
X1254500Y1464500*
X1266100Y1443900D02*
X1248000Y1462000D01*
Y1469610*
X1288799Y1437248D02*
Y1446201D01*
X1283500Y1451500*
Y1461500*
X1291949Y1437248D02*
Y1449951D01*
X1286000Y1455900*
Y1465000*
X1299630Y1444507D02*
Y1455630D01*
X1305500Y1461500*
X1298248Y1437248D02*
Y1437400D01*
X1299948*
X1301200Y1438652*
Y1452000*
X1308000Y1458800*
Y1465000*
X1298248Y1434098D02*
X1300198D01*
X1302800Y1436700*
Y1449000*
X1310000Y1456200*
Y1461500*
X1298248Y1430949D02*
X1303802D01*
X1304600Y1431747*
Y1444348*
X1312000Y1451748*
Y1465000*
X1409112Y1467071D02*
X1409040Y1467143D01*
X1106000Y1473390D02*
Y1476500D01*
X1110500Y1473390D02*
Y1476500D01*
X1435760Y1471440D02*
Y1473480D01*
X1436980Y1474700*
X1454020*
X1457280Y1477960*
Y1482000*
X1459200Y1007800D02*
Y1015300D01*
X1454200Y1007800D02*
Y1015300D01*
X1449200Y1007800D02*
Y1015300D01*
X1444200Y1007800D02*
Y1015300D01*
X1439200Y1007800D02*
Y1015300D01*
X1434200Y1007800D02*
Y1015300D01*
X1429200Y1007800D02*
Y1015300D01*
X1424200Y1007800D02*
Y1015300D01*
X1419200Y1007800D02*
X1464000D01*
Y1015300*
X1419200*
Y1007800*
G54D87*
X1188000Y1045200D02*
Y1051040D01*
X1184500Y1054540*
Y1061350*
X1184490Y1061360*
X1180450*
X1178760Y1063050*
Y1065950*
X1177560Y1067150*
X1174500*
X1248110Y1061970D02*
X1249290Y1063150D01*
X1252200*
X1252970Y1063920*
Y1067092*
X1258878Y1073000*
X1248120Y1058960D02*
Y1061960D01*
X1248110Y1061970*
X1310059Y1061189D02*
X1314470Y1065600D01*
X1322010*
X1322110Y1065500D02*
X1322010Y1065600D01*
X1322110Y1061000D02*
X1321921Y1061189D01*
X1313996*
X1429700Y1068200D02*
X1379300Y1118600D01*
X1474221Y1061339D02*
Y1069290D01*
X1474220*
X1526990Y1061024D02*
Y1061122D01*
X1523342Y1064770*
X1520880*
X1331500Y1106900D02*
X1334300D01*
X1349400Y1122000*
Y1157020*
X1322110Y1081000D02*
X1318200D01*
X1316400Y1082800*
X1308133*
X1306122Y1084811*
X1322110Y1076500D02*
X1310496D01*
X1306122Y1080874*
X1322110Y1090000D02*
X1316681D01*
X1313996Y1092685*
X1322110Y1085500D02*
X1317900D01*
X1316600Y1086800*
X1312007*
X1310059Y1088748*
X1337800Y1103800D02*
X1352600Y1118600D01*
X1379300*
X1519950Y1070920D02*
X1522649Y1073619D01*
X1522998*
X1526930Y1077552*
Y1077650*
X1150500Y1133500D02*
X1152200Y1135200D01*
Y1139200*
X1154800Y1141800*
Y1156010*
X1155290Y1156500*
X1607165Y1114488D02*
X1610947Y1118270D01*
X1631260*
X1632690Y1119700*
Y1274810*
X1602000Y1305500*
Y1346100*
X1552110Y1395990*
Y1422390*
X1545000Y1429500*
X1521710*
X1517810Y1433400*
Y1455200*
X1516690Y1456320*
X1479230*
X1466950Y1468600*
X1129252Y1187949D02*
X1123582D01*
X1122830Y1188700*
X1101900*
X1100100Y1190500*
X1098000*
X1245300Y1187800D02*
X1246121Y1188620D01*
X1259880*
X1245300Y1187800D02*
X1238700D01*
X1237500Y1189000*
X1262190Y1187539D02*
X1260961D01*
X1259880Y1188620*
X1349400Y1157020D02*
X1341940Y1164480D01*
X1341920Y1164500*
X1337150*
X1360030Y1225510D02*
X1381510D01*
X1389000Y1233000*
X1431900Y1206200D02*
X1426500Y1200800D01*
X1362498*
X1359499Y1203799*
X1344600Y1218670*
X1327730*
X1318300Y1228100*
X1418500Y1208500D02*
X1423400Y1213400D01*
Y1226100*
X1421500Y1228000*
X1417000*
X1416500Y1228500*
X1423200Y1206500D02*
Y1209900D01*
X1425500Y1212200*
Y1227000*
X1150500Y1254000D02*
Y1258900D01*
X1153300Y1261700*
X1157400*
X1159500Y1263800*
Y1275800*
X1157500Y1277800*
Y1279311*
X1157598Y1279409*
Y1282752*
X1147000Y1253500D02*
X1148800Y1255300D01*
Y1259800*
X1149700Y1260700*
Y1277900*
X1152500Y1257000D02*
X1154680D01*
X1160800Y1263120*
Y1276130*
X1202990Y1242490D02*
X1222455D01*
X1222495Y1242530*
X1241960*
X1203290Y1235670D02*
X1225970D01*
X1225980Y1235680*
X1248560*
X1288500Y1260919D02*
X1287200Y1262219D01*
Y1277900*
X1288000Y1254000D02*
X1289800Y1255800D01*
Y1260100*
X1292121Y1262420*
Y1276920*
X1293400Y1278200*
X1284500Y1253500D02*
X1288500Y1257500D01*
Y1260919*
X1313000Y1250390D02*
Y1255000D01*
X1392752Y1252650D02*
X1389782Y1249680D01*
X1375530*
X1354200Y1271010*
X1384950Y1241200D02*
X1388450Y1244700D01*
X1391253*
X1384950Y1241200D02*
X1363300D01*
X1362000Y1242500*
X1388710Y1264490D02*
X1388000Y1265200D01*
Y1266000*
X1374177Y1279823*
Y1280823*
X1364050Y1290950*
X1362350*
X1361600Y1291700*
Y1293400*
X1360000Y1295000*
X1392752Y1243201D02*
X1391253Y1244700D01*
X1471000Y1231500D02*
X1458400Y1244100D01*
Y1249400*
X1456600Y1251200*
X1433800*
X1432350Y1252650*
X1424248*
X1466000Y1231500D02*
X1463200Y1234300D01*
X1448600*
X1443400Y1239500*
X1433900*
X1429000Y1244400*
X1426198*
X1424248Y1246350*
X1126000Y1307949D02*
X1126051Y1308000D01*
X1129201*
X1126000Y1307949D02*
X1123172D01*
X1122500Y1308620*
X1122000Y1290000D02*
X1122651Y1290651D01*
X1124000*
X1122000Y1290000D02*
X1108500D01*
X1107000Y1291500*
X1100500*
X1129252Y1307949D02*
X1129201Y1308000D01*
X1160800Y1276130D02*
X1158800Y1278130D01*
Y1279600*
X1160748Y1289051D02*
X1162897Y1291200D01*
X1166600*
X1181610Y1285598D02*
Y1287420D01*
X1180531Y1288500*
X1169300*
X1166600Y1291200*
X1263500Y1307949D02*
X1263551Y1308000D01*
X1266701*
X1263500Y1307949D02*
X1260672D01*
X1260000Y1308620*
X1261500Y1290651D02*
X1261149Y1290300D01*
X1245400*
X1244200Y1291500*
X1237500*
X1266752Y1307949D02*
X1266701Y1308000D01*
X1319110Y1285598D02*
X1316009Y1288700D01*
X1305800*
X1303500Y1291000*
X1298248Y1289051D02*
X1300197Y1291000D01*
X1303500*
X1354200Y1271010D02*
Y1293745D01*
X1357460Y1297005*
X1364005Y1295900D02*
X1362900Y1297005D01*
X1357460*
X1364000Y1293300D02*
X1364005Y1293305D01*
Y1295900*
X1103000Y1308500D02*
X1107657D01*
X1107778Y1308620*
X1122500*
X1238000Y1308500D02*
X1245157D01*
X1245278Y1308620*
X1260000*
X1150800Y1386400D02*
X1149700Y1387500D01*
Y1400040*
X1149080Y1400660*
Y1401410*
X1147000Y1376500D02*
X1150800Y1380300D01*
Y1386400*
X1288000Y1377000D02*
X1289800Y1378800D01*
Y1383100*
X1292400Y1385700*
Y1387780*
X1292380Y1387800*
Y1399150*
X1293700Y1400470*
X1160748Y1412051D02*
X1162497Y1413800D01*
X1167700*
X1181610Y1408500D02*
Y1408598D01*
X1178309Y1411900*
X1169600*
X1167700Y1413800*
X1120800Y1436600D02*
X1120500Y1436900D01*
X1100100*
X1098500Y1438500*
X1129252Y1430949D02*
X1129201Y1431000D01*
X1123121*
X1122500Y1431620*
X1100500Y1431500D02*
X1107657D01*
X1107778Y1431620*
X1122500*
X1169909Y1446348D02*
X1176500Y1452939D01*
Y1461500*
X1238000Y1431500D02*
X1245157D01*
X1245278Y1431620*
X1260000*
X1296629Y1443778D02*
Y1458371D01*
X1290000Y1465000*
X1266752Y1430949D02*
X1266701Y1431000D01*
X1260621*
X1260000Y1431620*
G54D88*
X1468750Y1259700D02*
X1473200D01*
X1475800Y1262300*
Y1268200*
X1468750Y1259700D02*
Y1261160D01*
X1468780Y1261190*
X1475790Y1268200D02*
X1475800Y1268210D01*
Y1291680*
X1488870Y1304750*
X1530700*
X1555800Y1329850*
Y1345900*
X1555900*
X1558400Y1348400*
X1563000*
X1475800Y1268200D02*
X1475790D01*
X1468750Y1258600D02*
Y1259700D01*
X1563000Y1350000D02*
Y1348400D01*
Y1347000*
G54D90*
X1072850Y1026000D02*
X1069000D01*
X1067500Y1027500*
X1079150Y1026000D02*
X1079380Y1026230D01*
X1086664*
X1079150Y1026000D02*
X1079618Y1026469D01*
Y1038000*
X1142500Y1014800D02*
Y1060000D01*
X1284245Y1017570D02*
X1281190D01*
X1280010Y1018750*
Y1020290*
X1297247Y1020500D02*
X1293000Y1024747D01*
Y1029350*
X1280010Y1020290D02*
X1280960Y1021240D01*
X1284315*
Y1017500D02*
X1295830D01*
X1297160Y1018830*
Y1020340*
X1299999Y1027600D02*
X1303500D01*
X1150500Y1067080D02*
X1155090Y1071670D01*
X1174940*
X1178310Y1075040*
X1184350*
X1184500Y1067650D02*
Y1074950D01*
X1293000Y1029350D02*
X1286400D01*
X1279500*
X1506500Y1032500D02*
X1499400D01*
X1497600Y1034252*
X1482441*
X1165450Y1075240D02*
X1172680D01*
X1178810Y1081370*
X1184380*
X1235850Y1106998D02*
Y1114498D01*
X1242150Y1106998D02*
Y1114498D01*
X1237228Y1100998D02*
Y1103218D01*
X1236417Y1104029*
Y1106998*
X1235850*
X1533340Y1077760D02*
Y1081370D01*
Y1085010*
X1529940Y1088410*
X1515340*
X1144100Y1133500D02*
Y1139000D01*
X1145000*
Y1148000D02*
X1144000D01*
Y1153000*
X1145000Y1148000D02*
X1147000D01*
Y1153000*
X1235654Y1129500D02*
X1235500D01*
Y1134500*
X1226000Y1111000D02*
Y1115654D01*
X1231500Y1129500D02*
X1235500D01*
X1226000Y1122346D02*
X1224000D01*
Y1127000*
X1226000Y1122346D02*
X1228000D01*
Y1127000*
X1242150Y1114498D02*
Y1121458D01*
X1242346Y1121655*
Y1129500*
X1235850Y1114498D02*
X1231995D01*
X1230840Y1115654*
X1226000*
X1235850Y1114498D02*
Y1121500D01*
X1282500Y1134500D02*
Y1139000D01*
X1286500*
X1282500Y1148000D02*
X1283100D01*
Y1152400*
X1170000Y1173000D02*
X1175500D01*
Y1173500*
X1184500Y1169000D02*
Y1173500D01*
Y1178500*
X1313000Y1173500D02*
X1312900D01*
Y1177500*
X1308500Y1173500D02*
X1312900D01*
X1322000D02*
Y1178500D01*
X1203290Y1235660D02*
Y1235670D01*
X1202990Y1242490D02*
X1202700Y1242530D01*
X1282500Y1259000D02*
X1286500D01*
X1282500Y1268000D02*
X1284500D01*
Y1273000*
X1282500Y1268000D02*
X1281500D01*
Y1273000*
X1434500Y1244500D02*
X1439000D01*
X1448000Y1240500D02*
Y1244500D01*
Y1249000*
X1439000Y1244500D02*
Y1248500D01*
X1170500Y1291500D02*
X1173500D01*
X1175500Y1293500*
X1184500Y1289000D02*
Y1293500D01*
Y1298500*
X1322500Y1293500D02*
Y1296800D01*
X1323700Y1298000*
X1308000Y1292000D02*
X1313000D01*
Y1293500*
X1323900Y1288800D02*
Y1292100D01*
X1322500Y1293500*
X1322000D02*
X1322500D01*
X1313000D02*
Y1294464D01*
X1308000*
Y1295000*
X1305272Y1298500D02*
X1311790D01*
X1313020Y1299730*
Y1302500*
X1487790Y1420800D02*
X1487760Y1420830D01*
X1485167*
X1443814Y1462183*
X1414000*
X1409112Y1467071*
X1409040Y1467143D02*
Y1474230D01*
X1101600Y1036650D02*
Y1033100D01*
X1117252*
X1117900Y1033749*
Y1039751*
X1117252Y1040400*
X1115249*
X1114100Y1039251*
Y1036751*
X1113249Y1035900*
X1106252*
X1105502Y1036650*
X1101600*
X1114427Y1039579D02*
X1117900D01*
X1114100Y1038499D02*
X1117900D01*
X1114100Y1037419D02*
X1117900D01*
X1113687Y1036339D02*
X1117900D01*
X1101600Y1035259D02*
X1117900D01*
X1101600Y1034179D02*
X1117900D01*
X1101600Y1036339D02*
X1105813D01*
G54D91*
X1096000Y1013000D02*
X1100000D01*
X1093356Y1026230D02*
Y1036882D01*
X1152500Y1014800D02*
Y1029940D01*
X1154820Y1032260*
X1156930*
X1182500Y1014800D02*
Y1032430D01*
X1192500Y1014800D02*
Y1033680D01*
X1202500Y1014800D02*
Y1032940D01*
X1200640Y1034800*
X1246650Y1006800D02*
X1378800D01*
X1406252Y1034252*
X1472441*
X1246650Y1006800D02*
X1244570Y1008880D01*
Y1024000*
Y1026320D02*
Y1025150D01*
Y1024000*
Y1026320D02*
Y1031800D01*
X1234680Y1041690*
X1210620*
X1297000Y1020200D02*
X1297160Y1020340D01*
X1273000Y1025500D02*
X1272500Y1026000D01*
X1272499*
Y1029348*
X1284315Y1017500D02*
X1284245Y1017570D01*
X1299999Y1027600D02*
Y1029348D01*
X1069000Y1033000D02*
Y1038000D01*
X1069382*
X1093000Y1036882D02*
X1093356D01*
X1110000Y1046400D02*
X1112400D01*
X1112500Y1046500*
X1103530Y1045500D02*
X1102030Y1047000D01*
X1093118*
X1093000Y1047118*
X1103530Y1045500D02*
Y1046800D01*
X1112200*
X1101600Y1034942D02*
X1098960D01*
X1097020Y1036882*
X1093356*
X1101600Y1034942D02*
X1103205D01*
X1103532Y1035269*
X1110000Y1035270D02*
X1110552D01*
X1110640Y1035358*
X1114888*
X1114890Y1035360*
X1103532Y1035269D02*
X1103530Y1035270D01*
X1112500Y1046500D02*
X1112200Y1046800D01*
X1103530Y1035270D02*
X1110000D01*
X1103530Y1041570D02*
Y1045500D01*
X1127150Y1064000D02*
X1131840D01*
X1150500Y1060870D02*
Y1067080D01*
X1191380Y1034800D02*
X1192500Y1033680D01*
X1193590Y1034770*
Y1034800*
X1200640*
X1179580Y1035350D02*
X1182500Y1032430D01*
X1184870Y1034800*
X1191380*
X1235850Y1065998D02*
Y1066000D01*
X1232500*
X1295500Y1063791D02*
Y1064000D01*
X1268500Y1034000D02*
Y1035700D01*
X1268850Y1036050*
X1272499*
Y1035648*
X1313996Y1045286D02*
Y1045441D01*
X1302428Y1056928D02*
X1302500Y1057000D01*
X1317000Y1049698D02*
Y1049728D01*
Y1041709D02*
Y1041728D01*
X1306500Y1030726D02*
X1305999D01*
X1311000D02*
X1310999D01*
X1313996Y1049378D02*
Y1049698D01*
X1314000Y1041500D02*
Y1041709D01*
X1317000Y1045272D02*
Y1045286D01*
X1310999Y1034270D02*
X1311000D01*
X1299000Y1063772D02*
Y1063791D01*
Y1060228D02*
Y1060292D01*
X1299064*
X1515500Y1032500D02*
X1520500D01*
X1533290Y1061024D02*
Y1065910D01*
X1530344Y1068856*
X1515280Y1067420D02*
X1526220D01*
X1527656Y1068856*
X1530344*
X1101980Y1082090D02*
X1102000Y1082110D01*
Y1085970*
X1104890Y1077460D02*
X1108160D01*
X1110150Y1079450*
X1102000Y1085970D02*
Y1086068D01*
X1165450Y1075240D02*
Y1077730D01*
X1165500Y1077780*
Y1082130*
X1150500Y1075960D02*
Y1082130D01*
X1184500Y1074950D02*
X1184380Y1075070D01*
X1184350Y1075040*
X1250828Y1081050D02*
X1250788Y1081090D01*
X1244010*
X1243920Y1081000D02*
X1244010Y1081090D01*
X1254941Y1096510D02*
Y1096622D01*
X1248209Y1099500D02*
X1248000D01*
X1254941Y1104496D02*
X1254786D01*
Y1104714*
X1254772Y1108000D02*
X1254786D01*
X1248228Y1096500D02*
X1248209D01*
X1251772D02*
Y1096510D01*
X1266500Y1096709D02*
Y1096728D01*
X1266979Y1092685D02*
X1266752D01*
X1262736Y1108000D02*
X1262728D01*
X1294027Y1092685D02*
X1294311D01*
X1278563Y1084728D02*
X1278500D01*
X1289500Y1084542D02*
Y1084728D01*
X1294054Y1084675D02*
X1294000D01*
Y1084728*
X1295228Y1077452D02*
Y1077500D01*
X1270500Y1100291D02*
Y1100500D01*
X1296572Y1082428D02*
X1296500Y1082500D01*
X1267000Y1085709D02*
Y1085728D01*
X1263000Y1096709D02*
Y1096500D01*
X1254786Y1104714*
X1262815Y1104496D02*
X1262736D01*
X1286437Y1080874D02*
Y1081479D01*
X1290374Y1080874D02*
X1290314Y1080935D01*
X1294000Y1088272D02*
X1294027D01*
X1266500Y1100272D02*
Y1100291D01*
X1266272Y1108000D02*
X1266248D01*
X1267000Y1089272D02*
X1266979D01*
X1310214Y1108000D02*
X1310228D01*
X1298781Y1077491D02*
Y1077500D01*
X1298772*
X1313791Y1108000D02*
X1313772D01*
X1298935Y1088272D02*
X1299000D01*
X1310214Y1104496D02*
X1310059D01*
X1306122Y1100559*
X1298248Y1092685D02*
Y1092748D01*
X1301555Y1096055*
X1302185Y1096622D02*
X1306122Y1100559D01*
X1302185Y1080874D02*
X1302175Y1080884D01*
X1313996Y1104496D02*
X1313791D01*
X1299000Y1084728D02*
Y1084792D01*
X1298936*
X1371350Y1082650D02*
Y1082500D01*
X1371200Y1082650*
X1371350D02*
Y1093031D01*
X1370882Y1093500*
X1372500Y1082650D02*
X1371350D01*
X1371200*
X1365260*
X1361400Y1086510*
X1376850Y1082500D02*
X1376700Y1082650D01*
X1372500*
X1386900Y1093300D02*
X1381118D01*
Y1093500*
X1383150Y1082500D02*
Y1088011D01*
X1381130Y1090030*
Y1093000*
X1381118Y1093012*
Y1093300*
X1470341Y1068720D02*
X1470340D01*
X1471700Y1084000D02*
X1472150D01*
X1475500Y1087350*
X1530344Y1068856D02*
X1533230Y1071743D01*
Y1077650*
X1533340Y1077760*
X1561000Y1074150D02*
X1560920Y1074230D01*
X1235850Y1121650D02*
X1235700Y1121800D01*
X1235850Y1121500*
X1266248Y1111000D02*
X1266000D01*
X1135551Y1169051D02*
X1135479Y1169123D01*
X1135551Y1181650D02*
Y1181700D01*
X1130728Y1178500D02*
Y1179976D01*
X1132402Y1181650*
X1154449Y1172017D02*
Y1172201D01*
X1151672Y1184983D02*
X1151772Y1185000D01*
X1151672*
X1175510Y1182500D02*
X1175272D01*
X1154449Y1184799D02*
Y1184983D01*
X1151772Y1181000D02*
X1151672D01*
X1155728Y1178500D02*
X1155199D01*
X1157000Y1151772D02*
X1157471D01*
X1148228Y1185000D02*
X1148150D01*
X1185390Y1165500D02*
Y1165543D01*
X1295150Y1175350D02*
X1295100Y1175401D01*
Y1175500*
X1269778Y1181650D02*
X1269902D01*
X1275792Y1171936D02*
Y1172000D01*
X1275728*
X1275369Y1176500D02*
X1275728D01*
Y1184983D02*
Y1185000D01*
X1273051Y1169051D02*
X1272979Y1169123D01*
X1273051Y1184799D02*
Y1184983D01*
X1289272Y1172000D02*
Y1172017D01*
X1275728Y1181000D02*
Y1181056D01*
X1326000Y1160000D02*
X1325974Y1160026D01*
X1330738Y1164790*
X1330850Y1164500D02*
X1330738D01*
Y1164790*
X1540500Y1150500D02*
X1545750D01*
X1090110Y1214500D02*
X1089758D01*
Y1214754*
X1131500Y1208500D02*
Y1208748D01*
X1280000Y1208791D02*
Y1209000D01*
X1272100Y1202700D02*
X1272009D01*
X1403900Y1207600D02*
X1406100D01*
X1408500Y1210000*
Y1211800*
X1403500*
X1408500Y1219000D02*
X1412500D01*
X1108000Y1246494D02*
Y1246610D01*
X1137000Y1265000D02*
Y1268228D01*
X1132500Y1265000D02*
Y1268228D01*
X1152500Y1265000D02*
Y1268228D01*
X1157000Y1265000D02*
Y1268228D01*
X1144000Y1254000D02*
Y1259000D01*
X1145000*
Y1268000D02*
X1144000D01*
Y1273000*
X1395778Y1252650D02*
X1395902D01*
X1411722Y1258949D02*
X1411650D01*
X1417949Y1243017D02*
Y1243201D01*
Y1255799D02*
Y1255983D01*
X1434200Y1249300D02*
Y1249483D01*
X1508000Y1248900D02*
X1512000D01*
Y1249000*
X1508100Y1258000D02*
X1512000D01*
X1516400Y1256400D02*
X1512000D01*
Y1258000*
X1524500Y1262000D02*
X1524870D01*
X1528150Y1265280*
Y1269000*
X1512000Y1249000D02*
X1516500D01*
X1135551Y1289051D02*
X1135479Y1289123D01*
X1135551Y1301650D02*
Y1301700D01*
X1137000Y1271772D02*
Y1274800D01*
X1132500Y1271772D02*
Y1274500D01*
X1154449Y1292017D02*
Y1292201D01*
X1151622Y1292013D02*
X1151572Y1292017D01*
X1151622*
Y1292013D02*
Y1292017D01*
X1154449Y1304799D02*
Y1304983D01*
X1151772Y1292000D02*
X1151622D01*
Y1292013*
X1151772Y1292000*
X1151622Y1292017*
X1152500Y1271772D02*
Y1274500D01*
X1157000Y1271772D02*
Y1274500D01*
X1291949Y1292017D02*
Y1292201D01*
X1273051Y1292017D02*
Y1292201D01*
X1289122Y1292013D02*
X1289072Y1292017D01*
X1289122*
Y1292013D02*
Y1292017D01*
X1291949Y1304799D02*
Y1304983D01*
X1285650Y1289051D02*
X1285539D01*
X1273051Y1301650D02*
Y1301700D01*
X1289122Y1292017D02*
X1289272Y1292000D01*
X1289122Y1292013*
X1289272Y1292000D02*
X1289122D01*
Y1292013*
X1313020Y1302500D02*
X1312772D01*
X1453000Y1306500D02*
X1464000D01*
X1468690*
X1469000Y1306810*
Y1307000*
X1493540Y1292950D02*
Y1293300D01*
X1488800*
X1510100Y1281700D02*
X1513500Y1285100D01*
Y1292900*
X1511800Y1275200D02*
X1510100Y1276900D01*
Y1281700*
X1527980Y1290370D02*
X1528800D01*
Y1295400*
X1504500Y1292900D02*
X1513500D01*
X1090000Y1314000D02*
X1090110Y1314110D01*
Y1317500*
X1436863Y1330889D02*
Y1331000D01*
X1436850*
X1476720Y1310180D02*
Y1327210D01*
X1470400Y1333530*
Y1342990*
X1467000Y1346390*
Y1351000*
X1473000Y1308850D02*
X1475390D01*
X1476720Y1310180*
X1486650Y1325500D02*
X1491000D01*
X1145000Y1382000D02*
X1149000D01*
X1248000Y1350390D02*
X1248009D01*
X1282000Y1376200D02*
Y1382000D01*
X1282500*
X1447000Y1353000D02*
Y1358291D01*
X1449000*
X1451000Y1353000D02*
Y1358291D01*
X1449000*
Y1369709D02*
X1451600D01*
Y1375600*
X1449000Y1369709D02*
X1446600D01*
Y1375500*
X1460594Y1363654D02*
X1462200Y1365259D01*
Y1368300*
X1460594Y1363654D02*
X1460000D01*
Y1364150*
X1469500Y1353000D02*
Y1358291D01*
X1470000*
X1476200Y1368800D02*
X1470000D01*
Y1369709*
Y1375400*
X1558099Y1383398D02*
X1557999Y1383498D01*
X1540208*
X1050300Y1404900D02*
Y1424700D01*
X1047500Y1427500*
Y1446100*
X1034000Y1459600*
X1022200*
X1018300Y1463500*
X1071000Y1407500D02*
Y1411850D01*
X1061000Y1407500D02*
X1066000D01*
X1135551Y1412051D02*
X1135479Y1412123D01*
X1135551Y1424650D02*
Y1424700D01*
X1154449Y1415017D02*
Y1415201D01*
X1141772Y1427957D02*
Y1428000D01*
X1154449Y1427799D02*
Y1427983D01*
X1170000Y1416500D02*
X1175276D01*
X1151572Y1415000D02*
Y1415017D01*
X1151622*
X1151572Y1415000D02*
X1151622D01*
Y1415017*
X1145000Y1391000D02*
X1144000D01*
Y1396000*
X1145000Y1391000D02*
X1147000D01*
Y1396000*
X1184500Y1412000D02*
Y1416500D01*
Y1421500*
X1269730Y1424650D02*
X1269902D01*
X1291949Y1415017D02*
Y1415201D01*
X1289122Y1415013D02*
Y1415017D01*
X1291949Y1427799D02*
Y1427983D01*
X1285650Y1412051D02*
X1285539D01*
X1273051D02*
X1272979Y1412123D01*
X1273051Y1424650D02*
Y1424700D01*
X1289122Y1415017D02*
X1289272Y1415000D01*
X1289122Y1415013*
X1289272Y1415000D02*
X1289122D01*
Y1415013*
X1282500Y1391000D02*
Y1395900D01*
X1301728Y1421418D02*
Y1421438D01*
X1307500Y1416500D02*
X1312776D01*
X1322000Y1412000D02*
Y1416500D01*
X1305272Y1421438D02*
Y1421500D01*
X1322000Y1416500D02*
Y1421500D01*
X1313000Y1416500D02*
Y1421000D01*
X1417570Y1405930D02*
X1400000Y1423500D01*
Y1482000*
X1444450Y1427090D02*
X1450260D01*
X1450300Y1427430*
X1494499Y1427498D02*
Y1432498D01*
X1495499Y1408498D02*
Y1410998D01*
X1493999Y1412498*
X1489999*
X1487609Y1394988D02*
X1489999Y1397378D01*
Y1403498*
X1538999Y1414198D02*
Y1421498D01*
X1018300Y1463500D02*
Y1475500D01*
X1021816Y1479016*
X1026929*
X1082376Y1466500D02*
X1098876Y1483000D01*
X1399000*
X1082376Y1466500D02*
X1059445D01*
X1046929Y1479016*
X1090110Y1440500D02*
Y1440650D01*
X1454500Y1468000D02*
X1463000Y1476500D01*
X1484500*
X1454500Y1468000D02*
X1422000D01*
X1407000Y1483000*
X1401000*
X1493800Y1460400D02*
X1498900Y1465500D01*
X1509500*
X1493800Y1460400D02*
X1482710D01*
X1477362Y1465748*
X1487362D02*
Y1471500D01*
Y1473638*
X1484500Y1476500*
X1524499Y1432998D02*
Y1447789D01*
X1532500Y1459000D02*
X1532293Y1459207D01*
X1524499*
X1532500Y1459000D02*
X1537185D01*
X1537685Y1459500*
X1503499Y1432498D02*
X1508999D01*
X1046929Y1479016D02*
X1036929D01*
X1026929*
X1401000Y1483000D02*
X1400000Y1482000D01*
X1399000Y1483000*
X1400000Y1482000D02*
Y1483000D01*
X1399000*
X1400000D02*
X1401000D01*
X1509500Y1474500D02*
X1514400D01*
G54D93*
X1210000Y1185000D03*
Y1177500D03*
X1212500Y1215000D03*
X1220000Y1220000D03*
X1213000Y1267000D03*
X1220000D03*
X1352000Y1347500D03*
X1465000Y1336500D03*
X1361500Y1378000D03*
X1356500Y1372000D03*
X1365500D03*
X1517469Y1383498D03*
X1558099Y1383398D03*
X1050300Y1404900D03*
X1417570Y1405930D03*
X1487609Y1394988D03*
X1506949Y1406158D03*
X1511999Y1411678D03*
X1538999Y1414198D03*
G54D97*
X1067500Y1027500D03*
X1089380Y1015900D03*
X1087500Y1013000D03*
X1094030Y1015900D03*
X1091500Y1013000D03*
X1096000D03*
X1104500D03*
X1100000D03*
X1098270Y1015900D03*
X1102750D03*
X1079700Y1046720D03*
X1095410Y1060790D03*
X1075850Y1060300D03*
X1070000Y1045000D03*
X1069000Y1033000D03*
X1112500Y1046500D03*
X1114890Y1038850D03*
Y1035360D03*
X1126380Y1055390D03*
X1150500Y1067080D03*
X1157040Y1036630D03*
X1164600Y1052300D03*
X1156930Y1032260D03*
X1157000Y1052500D03*
X1210620Y1041690D03*
X1179580Y1035350D03*
X1365420Y1060230D03*
X1359120Y1060470D03*
X1429700Y1068200D03*
X1505180Y1038960D03*
X1512230Y1042380D03*
X1087000Y1071100D03*
X1092850Y1081290D03*
X1071370Y1083020D03*
X1071500Y1073000D03*
X1069500Y1106000D03*
X1071200Y1087500D03*
X1115330Y1084920D03*
X1127000Y1104500D03*
X1132040Y1078000D03*
X1115100Y1096700D03*
X1110150Y1079450D03*
X1165450Y1075240D03*
X1150500Y1075960D03*
X1217500Y1107100D03*
X1401880Y1091270D03*
X1481000Y1098570D03*
X1463000Y1099500D03*
X1555330Y1074230D03*
X1555520Y1088920D03*
X1099920Y1108970D03*
X1202600Y1110500D03*
X1197500Y1128500D03*
X1182300Y1115500D03*
X1207500Y1128500D03*
X1202500D03*
X1335000D03*
X1330000D03*
X1345000D03*
X1340000D03*
X1403600Y1113500D03*
X1403500Y1109900D03*
X1449990Y1127950D03*
X1443470Y1124570D03*
X1368060Y1165440D03*
X1392360Y1152230D03*
X1345000Y1247410D03*
X1471000Y1231500D03*
X1466000D03*
X1207500Y1280500D03*
X1202500D03*
X1333500Y1283000D03*
X1338000Y1284000D03*
X1563000Y1347000D03*
X1567500D03*
X1572000Y1346050D03*
X1578100Y1322000D03*
X1207500Y1371500D03*
X1202500D03*
X1197500D03*
X1192500D03*
X1335000D03*
X1330000D03*
X1376710Y1370020D03*
X1372980D03*
X1345000Y1371500D03*
X1340000D03*
X1380660Y1369980D03*
X1567500Y1350000D03*
X1563000D03*
X1044260Y1395250D03*
X1207500Y1403500D03*
X1202500D03*
X1345000D03*
X1340000D03*
X1487790Y1420800D03*
X1498499Y1425498D03*
X1535889Y1406398D03*
X1524499Y1432998D03*
X1514499Y1452998D03*
X1496500Y1474500D03*
G54D98*
X1477362Y1465748D03*
X1487362D03*
X1482441Y1034252D03*
X1472441D03*
G54D103*
X1422500Y1013281D02*
Y1010000D01*
X1421136*
X1461932Y1013281D02*
X1462273Y1013125D01*
X1462386Y1012813*
X1462386D02*
Y1012500D01*
X1462273Y1012188*
X1462273D02*
X1462045Y1012031D01*
X1461591Y1011875*
X1461250Y1011719*
X1461023Y1011406*
X1460909Y1011094*
Y1010625*
X1461023Y1010313*
X1461023D02*
X1461136Y1010156D01*
X1461477Y1010000*
X1461932*
X1462273Y1010156*
X1462386Y1010313*
X1462386D02*
X1462500Y1010625D01*
Y1011094*
X1462386Y1011406*
X1462159Y1011719*
X1461818Y1011875*
X1461364Y1012031*
X1461136Y1012188*
X1461136D02*
X1461023Y1012500D01*
Y1012813*
X1461023D02*
X1461136Y1013125D01*
X1461477Y1013281*
X1461932*
X1270433Y1083700D02*
X1272500Y1085767D01*
Y1093133*
X1289467Y1110100*
X1319510*
X1270433Y1083700D02*
X1265527D01*
X1260800Y1088427*
Y1090763*
X1258878Y1092685*
X1322380Y1107230D02*
X1319510Y1110100D01*
X1287240Y1143010D02*
Y1161193D01*
X1288799Y1162752*
X1289280Y1136540D02*
Y1140970D01*
X1287240Y1143010*
X1376600Y1128200D02*
X1388900Y1140500D01*
X1395500*
X1129252Y1172201D02*
X1127702Y1170651D01*
X1124805*
X1124756Y1170700*
X1124100*
X1126820Y1159070D02*
Y1160137D01*
X1127860Y1161177*
X1130827*
X1132402Y1162752*
X1124500Y1186374D02*
X1124980Y1186854D01*
Y1186890*
X1127161*
X1124500Y1183000D02*
X1124700Y1183200D01*
X1127702*
X1124400Y1174000D02*
X1127902D01*
X1129252Y1175350*
X1124200Y1167200D02*
X1124500Y1167500D01*
X1127701*
X1129252Y1169051*
X1132902Y1157902D02*
X1133878D01*
X1134610Y1158635*
Y1160370*
X1134000Y1160980*
Y1164303*
X1132402Y1165902*
X1124600Y1160800D02*
X1126552Y1162752D01*
X1129252*
X1137000Y1158500D02*
X1137151Y1158651D01*
X1123500Y1164000D02*
X1123827Y1164327D01*
X1127677*
X1129252Y1165902*
X1137151Y1158651D02*
Y1161152D01*
X1135551Y1162752*
X1132402Y1184799D02*
X1130827Y1186374D01*
Y1189000*
X1130327Y1189500*
X1126400*
X1129252Y1184799D02*
X1127161Y1186890D01*
X1129252Y1181650D02*
X1127702Y1183200D01*
X1132402Y1169051D02*
X1130827Y1170626D01*
Y1176249*
X1130728Y1176348*
Y1178500*
X1132402Y1181650D02*
X1133952Y1183200D01*
Y1186399*
X1132402Y1187949*
X1133953Y1189500*
X1137102*
X1138701Y1191098*
X1160200Y1166500D02*
X1159198Y1167502D01*
Y1170651*
X1162300Y1158000D02*
Y1161200D01*
X1160748Y1162752*
X1159400Y1158000D02*
X1159173Y1158227D01*
Y1161177*
X1157598Y1162752*
X1155290Y1156500D02*
X1156630Y1157840D01*
Y1160620*
X1156000Y1161250*
Y1164303*
X1157598Y1165902*
X1149700Y1157900D02*
X1149017Y1158583D01*
Y1160470*
X1139080Y1157420D02*
X1138701Y1157799D01*
Y1162752*
X1149017Y1160470D02*
X1151299Y1162752D01*
X1159198Y1170651D02*
X1160748Y1172201D01*
Y1169051D02*
X1162323Y1170626D01*
X1164720*
X1164794Y1170700*
X1165000*
X1151299Y1165902D02*
X1152898Y1167500D01*
X1156047*
X1157598Y1169051*
X1138701Y1165902D02*
X1137102Y1167500D01*
X1133953*
X1132402Y1169051*
X1272890Y1157560D02*
X1272280Y1158170D01*
Y1160374*
X1269902Y1162752*
X1261000Y1183000D02*
X1261200Y1183200D01*
X1265202*
X1261500Y1162500D02*
X1264000Y1165000D01*
Y1166299*
X1266752Y1169051*
X1297000Y1156400D02*
X1296698Y1156702D01*
Y1167501*
X1261902Y1169902D02*
X1262648Y1170648D01*
X1265199*
X1266752Y1172201*
X1262000Y1173500D02*
X1262276Y1173776D01*
X1265177*
X1266752Y1175350*
X1296698Y1167501D02*
X1298248Y1169051D01*
X1269902Y1184799D02*
X1268327Y1186374D01*
X1264880*
X1263715Y1187539*
X1262190*
X1266752Y1181650D02*
X1265202Y1183200D01*
X1288800Y1165800D02*
X1288799Y1165902D01*
X1290500Y1167602*
Y1170200*
X1290242Y1170458*
Y1172000*
X1289272*
X1288800Y1165800D02*
X1288830Y1165830D01*
X1288871*
X1276201Y1165902D02*
X1274602Y1167500D01*
X1271453*
X1269902Y1169051*
Y1181650D02*
X1271452Y1183200D01*
Y1186399*
X1269902Y1187949*
X1294500Y1154500D02*
Y1157250D01*
X1290374Y1161376*
Y1164327*
X1288871Y1165830*
X1303146Y1167310D02*
X1299427Y1171029D01*
X1299419*
X1298248Y1172201*
X1134000Y1192650D02*
Y1195980D01*
X1134780Y1196760*
Y1198600*
X1133825Y1199555*
X1133795*
X1132402Y1194248D02*
X1130827Y1195823D01*
Y1199073*
X1129900Y1200000*
X1132402Y1191098D02*
X1130827Y1192673D01*
X1127995*
X1127443Y1193226*
Y1193233*
X1124895Y1195780*
X1129252Y1191098D02*
X1126202D01*
X1123500Y1193800*
X1135551Y1191098D02*
X1134000Y1192650D01*
X1155999Y1200980D02*
X1155979Y1201000D01*
X1157598Y1191098D02*
X1159173Y1192673D01*
X1162473*
X1162900Y1193100*
X1154449Y1191098D02*
X1155999Y1192648D01*
Y1200980*
X1138701Y1191098D02*
X1140251Y1192648D01*
Y1197045*
X1139000Y1198295*
Y1202000*
X1138701Y1191098D02*
X1137126Y1192673D01*
Y1199874*
X1134500Y1202500*
X1273051Y1191098D02*
X1271453Y1189500D01*
X1262500*
X1262000Y1190000*
X1263777Y1195800D02*
X1263800Y1195823D01*
X1265177*
X1263777Y1195800D02*
X1262400D01*
X1261500Y1196700*
X1269902Y1191098D02*
X1268327Y1192673D01*
Y1199173*
X1268000Y1199500*
X1266752Y1194248D02*
X1265177Y1195823D01*
X1276201Y1191098D02*
X1277751Y1192648D01*
Y1198449*
X1277000Y1199200*
Y1202700*
X1360600Y1211500D02*
X1370500D01*
X1392752Y1233752*
X1360500Y1207400D02*
X1372400D01*
X1394327Y1229327*
Y1232177*
X1395902Y1233752*
X1401100Y1225600D02*
Y1228107D01*
X1400626Y1228581*
Y1235327*
X1402201Y1236902*
X1425500Y1227000D02*
Y1229202D01*
X1425798Y1229500*
X1390400Y1260500D02*
X1396500D01*
X1397452Y1261452*
Y1262740*
X1388390Y1237800D02*
X1390501D01*
X1392752Y1240051*
X1387000Y1235000D02*
X1390850D01*
X1392752Y1236902*
X1416500Y1228500D02*
X1416374Y1228626D01*
Y1232177*
X1414799Y1233752*
X1395955Y1258895D02*
X1396805D01*
X1398430Y1260520*
X1400622*
X1402201Y1262098*
X1395955Y1258895D02*
X1395902Y1258949D01*
Y1262098D02*
X1396353D01*
X1394803Y1263648*
X1391492*
X1390000Y1265140*
Y1267300*
X1397452Y1262740D02*
X1395902Y1264290D01*
Y1265248*
Y1255799D02*
X1394302Y1257399D01*
X1390701*
X1399051Y1262098D02*
Y1263056D01*
X1397476Y1264631*
Y1268524*
X1395000Y1271000*
X1392752Y1262098D02*
X1391102D01*
X1388710Y1264490*
X1414799Y1236902D02*
X1416349Y1238452D01*
Y1240751*
X1416242Y1240858*
Y1243000*
X1402201Y1236902D02*
X1400602Y1238500D01*
X1397453*
X1395902Y1240051*
X1394327Y1241626*
Y1247303*
X1393728Y1247902*
Y1249500*
X1395902Y1252650D02*
X1397452Y1254200D01*
Y1257399*
X1395955Y1258895*
X1425798Y1229500D02*
Y1234394D01*
X1424865Y1235327*
X1422673*
X1421098Y1236902*
Y1262098D02*
X1422673Y1263673D01*
X1425673*
X1426000Y1264000*
X1417949Y1262098D02*
X1419500Y1263650D01*
Y1270500*
X1129252Y1295350D02*
X1127702Y1293800D01*
X1123700*
X1123500Y1294000*
X1126300Y1278400D02*
Y1280100D01*
X1127400Y1281200*
X1130850*
X1132402Y1282752*
X1124600Y1306000D02*
X1125000Y1306400D01*
X1127651*
X1124500Y1303000D02*
X1124700Y1303200D01*
X1127702*
X1130930Y1277902D02*
X1134052D01*
X1134490Y1278340*
Y1280580*
X1134000Y1281070*
Y1284303*
X1132402Y1285902*
X1137000Y1278500D02*
X1137151Y1278651D01*
X1124000Y1290651D02*
X1127702D01*
X1129252Y1292201*
X1137151Y1278651D02*
Y1281152D01*
X1135551Y1282752*
X1129252Y1304799D02*
X1127651Y1306400D01*
X1129252Y1301650D02*
X1127702Y1303200D01*
X1132402Y1304799D02*
X1130827Y1306374D01*
Y1309000*
X1130327Y1309500*
X1125500*
X1121900Y1313100*
X1121400*
X1121000Y1313500*
X1132402Y1307949D02*
X1133953Y1309500D01*
X1137102*
X1138701Y1311098*
X1132402Y1301650D02*
X1133952Y1303200D01*
Y1306399*
X1132402Y1307949*
X1149700Y1277900D02*
Y1278917D01*
X1149367Y1279250*
Y1280820*
X1158800Y1279600D02*
Y1280700D01*
X1159148Y1281048*
X1162300Y1278000D02*
Y1281200D01*
X1160748Y1282752*
X1138701Y1279320D02*
Y1282752D01*
X1149367Y1280820D02*
X1151299Y1282752D01*
X1159148Y1281048D02*
Y1284352D01*
X1157598Y1285902*
X1151299D02*
X1152849Y1287452D01*
Y1289751*
X1152742Y1289858*
Y1292000*
X1151772*
X1152500Y1274500D02*
Y1277381D01*
X1152849Y1277730*
Y1284352*
X1151299Y1285902*
X1266752Y1295350D02*
X1265202Y1293800D01*
X1261200*
X1261000Y1294000*
X1293400Y1278200D02*
X1294170Y1278970D01*
Y1280700*
X1293500Y1281370*
Y1284303*
X1295098Y1285902*
X1262000Y1287500D02*
X1265201D01*
X1266752Y1289051*
X1269616Y1278716D02*
X1271500Y1280600D01*
Y1284303*
X1269902Y1285902*
X1263627Y1281177D02*
X1265202Y1282752D01*
X1266752*
X1262000Y1303000D02*
X1262200Y1303200D01*
X1265202*
X1287200Y1277900D02*
Y1278710D01*
X1286720Y1279190*
Y1280673*
X1261000Y1284000D02*
X1261327Y1284327D01*
X1265177*
X1266752Y1285902*
X1296900Y1278000D02*
X1296673Y1278227D01*
Y1281177*
X1295098Y1282752*
X1261500Y1290651D02*
X1265202D01*
X1266752Y1292201*
X1274500Y1278500D02*
X1274651Y1278651D01*
X1277776Y1278470D02*
Y1281177D01*
X1276201Y1282752*
X1286720Y1280673D02*
X1288799Y1282752D01*
X1274651Y1278651D02*
Y1281152D01*
X1273051Y1282752*
X1269902Y1304799D02*
X1268327Y1306374D01*
Y1309000*
X1267827Y1309500*
X1262000*
X1261500Y1310000*
X1266752Y1301650D02*
X1265202Y1303200D01*
X1266752Y1304799D02*
X1265177Y1306374D01*
X1262000*
X1288799Y1285902D02*
X1289702D01*
X1291300Y1287500*
X1293547*
X1295098Y1289051*
X1288799Y1285902D02*
Y1286850D01*
X1290349Y1288400*
Y1289751*
X1290242Y1289858*
Y1292000*
X1289272*
X1276201Y1285902D02*
X1274602Y1287500D01*
X1271453*
X1269902Y1289051*
X1268327Y1290626*
Y1295999*
X1267728Y1296598*
Y1298500*
X1269902Y1301650D02*
X1271452Y1303200D01*
Y1306399*
X1269902Y1307949*
X1271453Y1309500*
X1274334*
X1276067Y1311232*
X1299800Y1278000D02*
Y1281200D01*
X1298248Y1282752*
X1134000Y1312650D02*
Y1315680D01*
X1134600Y1316280*
Y1318320*
X1132402Y1311098D02*
X1130827Y1312673D01*
X1125485*
X1123900Y1314258*
Y1316100*
X1129252Y1311098D02*
X1125646D01*
X1121900Y1314844*
Y1316000*
X1135551Y1311098D02*
X1134000Y1312650D01*
X1129252Y1314248D02*
X1127100Y1316400D01*
Y1318600*
X1132402Y1314248D02*
X1130827Y1315823D01*
Y1318873*
X1130600Y1319100*
X1157598Y1311098D02*
X1159173Y1312673D01*
X1162073*
X1162300Y1312900*
X1276067Y1311232D02*
X1274626Y1312673D01*
Y1316225*
X1273000Y1317851*
Y1320500*
X1272000Y1321500*
X1290399Y1312648D02*
Y1318099D01*
X1290400Y1318100*
Y1319300*
X1271500Y1312650D02*
Y1316320D01*
X1271820Y1316640*
Y1317890*
X1271500Y1318210*
Y1318980*
X1269902Y1314248D02*
X1268327Y1315823D01*
Y1318973*
X1267900Y1319400*
X1266752Y1314248D02*
X1263670Y1317330D01*
Y1319230*
X1266752Y1311098D02*
X1265250Y1312600D01*
X1262900*
X1261500Y1314000*
X1295098Y1311098D02*
X1296648Y1312648D01*
Y1316233*
X1299630Y1319215*
Y1321507*
X1291949Y1311098D02*
X1290399Y1312648D01*
X1276201Y1314248D02*
Y1316225D01*
X1274626Y1317800*
Y1318494*
X1274600Y1318520*
Y1319000*
X1273051Y1311098D02*
X1271500Y1312650D01*
X1276201Y1311098D02*
X1277751Y1312648D01*
Y1316225*
X1277000Y1316976*
Y1321500*
X1276201Y1311098D02*
X1276067Y1311232D01*
X1298248Y1311098D02*
X1300050Y1312900D01*
X1303300*
X1129252Y1418350D02*
X1127702Y1416800D01*
X1123700*
X1123500Y1417000*
X1126000Y1402000D02*
X1128177Y1404177D01*
X1130827*
X1132402Y1405752*
X1124500Y1426000D02*
X1124700Y1426200D01*
X1127702*
X1124000Y1413651D02*
X1127702D01*
X1129252Y1415201*
X1125000Y1410000D02*
X1127201D01*
X1129252Y1412051*
X1123500Y1407000D02*
X1123827Y1407327D01*
X1127677*
X1129252Y1408902*
X1128630Y1399668D02*
X1129864Y1400902D01*
X1133770*
X1134378Y1401510*
Y1404080*
X1134000Y1404458*
Y1407303*
X1132402Y1408902*
X1124500Y1404000D02*
X1126252Y1405752D01*
X1129252*
X1137000Y1401500D02*
X1137151Y1401651D01*
Y1404152*
X1135551Y1405752*
X1132402Y1427799D02*
X1130827Y1429374D01*
Y1432000*
X1130327Y1432500*
X1124500*
X1123600Y1433400*
Y1434500*
X1121500Y1436600*
X1120800*
X1129252Y1427799D02*
X1127327Y1429724D01*
X1129252Y1424650D02*
X1127702Y1426200D01*
X1132402Y1412051D02*
X1130827Y1413626D01*
Y1419249*
X1130728Y1419348*
Y1421500*
X1132402Y1424650D02*
X1133952Y1426200D01*
Y1429399*
X1132402Y1430949*
X1162300Y1401000D02*
Y1404200D01*
X1160748Y1405752*
X1159400Y1401000D02*
X1159173Y1401227D01*
Y1404177*
X1157598Y1405752*
X1156950Y1401100D02*
X1156060Y1401990D01*
X1156040*
Y1407343*
X1149080Y1401410D02*
Y1403533D01*
X1151299Y1405752*
X1138701Y1401009D02*
Y1405752D01*
X1156040Y1407343D02*
X1157598Y1408902D01*
X1151299D02*
X1152849Y1410452D01*
Y1413722*
X1151572Y1415000*
X1138701Y1408902D02*
X1137102Y1410500D01*
X1133953*
X1132402Y1412051*
X1266752Y1418350D02*
X1265202Y1416800D01*
X1261200*
X1261000Y1417000*
X1264120Y1401870D02*
Y1403247D01*
X1265050Y1404177*
X1268327*
X1269902Y1405752*
X1293700Y1400470D02*
Y1403100D01*
X1293548Y1403252*
Y1407352*
X1295098Y1408902*
X1262000Y1426000D02*
X1262200Y1426200D01*
X1265202*
X1261500Y1413651D02*
X1265202D01*
X1266752Y1415201*
X1262000Y1410500D02*
X1265201D01*
X1266752Y1412051*
X1261000Y1407000D02*
X1261327Y1407327D01*
X1265177*
X1266752Y1408902*
X1268600Y1400800D02*
X1270600D01*
X1271910Y1402110*
Y1403510*
X1271500Y1403920*
Y1407303*
X1269902Y1408902*
X1262902Y1404200D02*
X1264454Y1405752D01*
X1266752*
X1274500Y1401500D02*
X1274651Y1401651D01*
X1277000Y1400000D02*
Y1400829D01*
X1277021Y1400851*
X1287200Y1400608D02*
Y1401370D01*
X1286687Y1401883*
Y1403640*
X1296900Y1401000D02*
X1296673Y1401227D01*
Y1404177*
X1295025Y1405825*
X1295100Y1405900*
X1286687Y1403640D02*
X1288799Y1405752D01*
X1277021Y1400851D02*
Y1404931D01*
X1276201Y1405752*
X1274651Y1401651D02*
Y1404152D01*
X1273051Y1405752*
X1269902Y1427799D02*
X1268327Y1429374D01*
Y1432000*
X1267827Y1432500*
X1262000*
X1261100Y1433400*
Y1434500*
X1259100Y1436500*
X1258200*
X1266752Y1427799D02*
X1264601Y1429950D01*
X1266752Y1424650D02*
X1265202Y1426200D01*
X1288799Y1408902D02*
X1290349Y1410452D01*
Y1412751*
X1290242Y1412858*
Y1415000*
X1289272*
X1276201Y1408902D02*
X1274602Y1410500D01*
X1271453*
X1269902Y1412051*
X1268327Y1413626*
Y1419273*
X1267728Y1419872*
Y1421548*
X1269902Y1424650D02*
X1271452Y1426200D01*
Y1429399*
X1269902Y1430949*
X1290500Y1397500D02*
X1290374Y1397626D01*
Y1407327*
X1288799Y1408902*
X1303800Y1413600D02*
X1303400Y1414000D01*
X1299800Y1401000D02*
Y1404200D01*
X1298248Y1405752*
Y1412051D02*
X1300197Y1414000D01*
X1303400*
X1124430Y1429304D02*
X1124850Y1429724D01*
X1127327*
X1134000Y1435650D02*
Y1438510D01*
X1134910Y1439420*
Y1440570*
X1129252Y1434098D02*
X1125629D01*
X1122600Y1437127*
Y1438200*
X1135551Y1434098D02*
X1134000Y1435650D01*
X1132402Y1434098D02*
X1130827Y1435673D01*
X1126107*
X1124210Y1437570*
X1124200*
Y1438400*
X1132402Y1437248D02*
X1130827Y1438823D01*
Y1442073*
X1130500Y1442400*
X1129252Y1437248D02*
X1126940Y1439560D01*
Y1441130*
X1132402Y1430949D02*
X1133953Y1432500D01*
X1137102*
X1138701Y1434098*
X1155999Y1443980D02*
X1155979Y1444000D01*
X1159148Y1441852D02*
X1159129Y1441871D01*
Y1443778*
X1157598Y1434098D02*
X1159148Y1435648D01*
Y1438800*
X1162130Y1441781*
Y1444507*
X1154449Y1434098D02*
X1155999Y1435648D01*
Y1443980*
X1157598Y1437248D02*
Y1440302D01*
X1159148Y1441852*
X1262000Y1429000D02*
X1262950Y1429950D01*
X1264601*
X1293499Y1443980D02*
X1293479Y1444000D01*
X1296648Y1441852D02*
X1296629Y1441871D01*
Y1443778*
X1266752Y1437248D02*
X1264400Y1439600D01*
Y1441020*
X1269902Y1434098D02*
X1268327Y1435673D01*
X1262927*
X1261600Y1437000*
Y1438500*
X1295098Y1434098D02*
X1296648Y1435648D01*
Y1438900*
X1299630Y1441881*
Y1444507*
X1291949Y1434098D02*
X1293499Y1435648D01*
Y1443980*
X1295098Y1437248D02*
Y1440302D01*
X1296648Y1441852*
X1273051Y1434098D02*
X1271500Y1435650D01*
Y1441500*
X1269902Y1437248D02*
X1268327Y1438823D01*
Y1441673*
X1266100Y1443900*
X1266752Y1434098D02*
X1263082D01*
X1259800Y1437380*
Y1437541*
X1256541Y1440800*
X1256400*
X1269902Y1430949D02*
X1271453Y1432500D01*
X1274602*
X1276201Y1434098*
X1277751Y1435648*
Y1440095*
X1277000Y1440845*
Y1444700*
X1276201Y1434098D02*
X1274626Y1435673D01*
Y1441874*
X1272000Y1444500*
G54D104*
X1569174Y1459055D02*
X1569173D01*
X1568728Y1459500*
X1548315*
G54D143*
X1175500Y1173500D03*
X1184500D03*
X1503499Y1385498D03*
X1494499D03*
Y1432498D03*
X1503499D03*
X1529999Y1421498D03*
X1538999D03*
X1175500Y1293500D03*
X1184500D03*
X1175500Y1416500D03*
X1184500D03*
X1313000D03*
X1322000D03*
X1313000Y1173500D03*
X1322000D03*
X1439000Y1244500D03*
X1448000D03*
X1550500Y1163020D03*
X1559500D03*
X1313000Y1293500D03*
X1322000D03*
X1506500Y1032500D03*
X1515500D03*
G54D174*
X1026929Y1469016D03*
G54D175*
Y1479016D03*
X1036929Y1469016D03*
Y1479016D03*
X1046929Y1469016D03*
Y1479016D03*
G54D242*
X1250650Y1013960D03*
X1297300Y1024300D03*
X1265930Y1020520D03*
X1297000Y1020200D03*
X1273000Y1025500D03*
X1309000Y1019500D03*
X1303500Y1027600D03*
X1306500Y1028000D03*
X1311000D03*
X1049000Y1062500D03*
X1053000Y1029500D03*
X1054500Y1045000D03*
X1116000Y1064000D03*
X1131840D03*
X1169000Y1052140D03*
X1142500Y1060000D03*
X1161000Y1034500D03*
X1182100Y1055200D03*
X1193700Y1056300D03*
X1197700D03*
X1205000Y1060500D03*
X1188000Y1045200D03*
X1213000Y1057000D03*
X1212900Y1062900D03*
X1251004Y1053315D03*
Y1049378D03*
X1254700Y1057400D03*
X1226500Y1063500D03*
X1226700Y1057700D03*
X1248120Y1058960D03*
X1251004Y1061189D03*
X1254941Y1065126D03*
X1251004D03*
Y1045441D03*
X1254941Y1041504D03*
X1232600Y1055400D03*
X1232500Y1066000D03*
X1251004Y1041504D03*
X1254941Y1045441D03*
X1290374D03*
X1294500Y1053300D03*
X1258878Y1053315D03*
Y1061189D03*
X1286437Y1041504D03*
X1258878Y1057252D03*
X1286437Y1045441D03*
X1274626Y1041504D03*
X1262815Y1065126D03*
X1294311Y1049378D03*
X1258878Y1065126D03*
X1270689Y1053315D03*
X1274626D03*
X1278563D03*
X1286000Y1053500D03*
X1290000D03*
X1263000Y1049500D03*
X1267000D03*
X1271000D03*
X1274500D03*
X1278500D03*
X1286437Y1049378D03*
X1290374D03*
X1266752Y1045441D03*
X1274626D03*
X1278563D03*
X1294311D03*
X1266752Y1041504D03*
X1270689D03*
X1290374D03*
X1297500Y1041500D03*
X1266752Y1053315D03*
X1268500Y1034000D03*
X1270689Y1045441D03*
X1262815Y1057252D03*
Y1061189D03*
X1274626Y1065126D03*
X1278563D03*
X1286437D03*
X1290374D03*
X1262815Y1053315D03*
X1258878Y1049378D03*
X1273000Y1059000D03*
X1295500Y1064000D03*
X1258800Y1041300D03*
X1333070Y1044800D03*
X1310059Y1065126D03*
X1329730Y1037130D03*
X1306122Y1061189D03*
X1306200Y1057400D03*
X1325000Y1028500D03*
X1298248Y1045441D03*
X1302185D03*
Y1049378D03*
Y1061189D03*
X1317000Y1029000D03*
X1310059Y1061189D03*
X1336500Y1061300D03*
X1313996Y1061189D03*
X1302000Y1065000D03*
X1332700Y1057700D03*
X1337400Y1050200D03*
X1336600Y1043000D03*
X1298248Y1053315D03*
X1313996Y1045441D03*
X1310059Y1049378D03*
X1311000Y1037000D03*
X1306122Y1053315D03*
X1302500Y1057000D03*
X1310000Y1053500D03*
X1298248Y1049378D03*
X1306122Y1045441D03*
Y1041504D03*
X1310059D03*
X1301500Y1041500D03*
X1314100Y1053900D03*
X1329000Y1065500D03*
Y1061000D03*
X1313996Y1049378D03*
X1314000Y1041500D03*
X1301900Y1053200D03*
X1306122Y1049378D03*
X1310059Y1045441D03*
X1338000Y1032500D03*
X1340000Y1035600D03*
X1349600Y1030500D03*
X1351400Y1054800D03*
X1351900Y1041200D03*
X1352800Y1068100D03*
X1352300Y1061200D03*
X1445000Y1062000D03*
X1443800Y1059400D03*
X1481830Y1044460D03*
X1477900Y1046400D03*
X1479340Y1067420D03*
X1496310Y1065410D03*
Y1068050D03*
X1477400Y1055000D03*
X1515520Y1059120D03*
Y1056540D03*
X1536550Y1067480D03*
X1500060Y1063760D03*
X1536550Y1064900D03*
X1520880Y1064770D03*
X1531450Y1045000D03*
X1520500Y1032500D03*
X1043000Y1099500D03*
X1046000Y1081000D03*
X1086500Y1087500D03*
X1086000Y1103500D03*
X1069950Y1095500D03*
X1072100Y1080000D03*
X1075850Y1099410D03*
X1088000Y1101000D03*
X1072000Y1103500D03*
X1130790Y1091500D03*
X1131270Y1070970D03*
X1101980Y1082090D03*
X1137000Y1096000D03*
X1131000Y1106000D03*
X1131500Y1103000D03*
X1160000Y1105000D03*
X1160900Y1098800D03*
X1169500Y1092200D03*
X1158400Y1101100D03*
X1144500Y1107000D03*
X1174000Y1099000D03*
X1174500Y1104500D03*
X1148000Y1095500D03*
X1204500Y1077000D03*
X1213500Y1076500D03*
X1213300Y1070200D03*
X1254941Y1092685D03*
X1223000Y1080000D03*
X1251004Y1100559D03*
X1226500Y1070000D03*
X1251000Y1076500D03*
X1254941Y1084811D03*
Y1088748D03*
Y1080874D03*
Y1073000D03*
X1251004Y1080874D03*
X1244010Y1081090D03*
X1251004Y1084811D03*
X1251100Y1088600D03*
X1237300Y1098100D03*
X1254941Y1104496D03*
Y1096622D03*
X1244000Y1089500D03*
X1251004Y1104496D03*
X1254941Y1100559D03*
X1232500Y1075000D03*
X1248000Y1099500D03*
X1234500Y1089500D03*
X1233500Y1081000D03*
X1258878Y1080874D03*
Y1076937D03*
X1290374Y1104496D03*
X1270500Y1092700D03*
X1274500Y1092800D03*
X1258878Y1088748D03*
Y1092685D03*
X1294311Y1100559D03*
X1290374Y1092685D03*
X1294311Y1104496D03*
X1290374Y1096622D03*
X1262815Y1100559D03*
X1258878Y1073000D03*
X1262815Y1076937D03*
Y1088748D03*
X1270689Y1096622D03*
X1263000Y1096500D03*
X1258500Y1100500D03*
X1294311Y1096622D03*
Y1092685D03*
X1262815Y1104496D03*
X1266752Y1092685D03*
X1278400Y1092700D03*
X1278563Y1080874D03*
X1286437D03*
X1290374D03*
Y1076937D03*
X1258878Y1096622D03*
X1262815Y1092685D03*
X1274626Y1080874D03*
Y1076937D03*
X1278563D03*
X1286437D03*
X1274500Y1069000D03*
X1278563Y1069063D03*
X1286437D03*
X1290374D03*
X1270500Y1100500D03*
X1296500Y1082500D03*
X1270100Y1085700D03*
X1266700Y1104700D03*
X1302185Y1104496D03*
X1298248Y1100559D03*
X1322380Y1107230D03*
X1298248Y1104496D03*
Y1096622D03*
X1331500Y1106900D03*
X1306122Y1080874D03*
X1310059Y1088748D03*
X1306122Y1073000D03*
X1310200Y1084900D03*
X1336600Y1094100D03*
X1314300Y1073200D03*
X1310059Y1080874D03*
X1306122Y1084811D03*
X1313996Y1092685D03*
X1310059Y1073000D03*
X1334400Y1076000D03*
X1302185Y1073000D03*
X1306122Y1069063D03*
X1302185D03*
X1310059Y1104496D03*
X1306122Y1100559D03*
X1319500Y1094500D03*
X1298248Y1092685D03*
X1302185Y1096622D03*
X1319500Y1099000D03*
X1302185Y1080874D03*
X1329000Y1076500D03*
Y1085500D03*
Y1089600D03*
Y1082100D03*
X1313996Y1104496D03*
X1310059Y1100559D03*
X1306000Y1096000D03*
X1302185Y1092685D03*
X1328500Y1094500D03*
Y1099000D03*
X1338300Y1089700D03*
X1338100Y1082700D03*
X1337700Y1068800D03*
X1337800Y1103800D03*
X1367500Y1086500D03*
X1364500D03*
X1370000D03*
X1361400Y1086510D03*
X1351300Y1101000D03*
X1352000Y1075300D03*
X1351700Y1090100D03*
X1351800Y1082900D03*
X1352000Y1097200D03*
X1412810Y1076630D03*
X1398100Y1079000D03*
X1402700Y1079100D03*
X1413110Y1094020D03*
X1404870Y1070720D03*
X1390500Y1103500D03*
X1417500Y1083400D03*
X1386900Y1093300D03*
X1440300Y1094000D03*
X1438630Y1078250D03*
X1441200Y1069100D03*
X1457000Y1104350D03*
X1482270Y1079640D03*
X1465500Y1093600D03*
X1474680Y1073840D03*
X1474220Y1069290D03*
X1462000Y1084500D03*
X1460190Y1078290D03*
X1482500Y1082500D03*
X1457900Y1070300D03*
X1460500Y1074370D03*
X1501410Y1105000D03*
X1510930Y1076880D03*
Y1079460D03*
X1500030Y1078760D03*
X1519950Y1070920D03*
X1533340Y1081370D03*
X1030000Y1136500D03*
X1040000Y1118000D03*
X1075000Y1114000D03*
X1075600Y1119800D03*
X1125500Y1134000D03*
X1127500Y1137000D03*
X1129500Y1134000D03*
X1131400Y1136200D03*
X1134610Y1135110D03*
X1115500Y1110000D03*
X1131000Y1109000D03*
X1108000Y1123500D03*
X1136500D03*
X1175500Y1135000D03*
X1162500D03*
X1156500Y1134000D03*
X1154500Y1137000D03*
X1150500Y1133500D03*
X1147000D03*
X1171000Y1135300D03*
X1167000D03*
X1159300Y1110400D03*
X1138390Y1135110D03*
X1175000Y1111500D03*
X1172500Y1122000D03*
X1145600Y1123200D03*
X1159500Y1124000D03*
X1141000Y1123200D03*
X1169000Y1122000D03*
X1144100Y1133500D03*
X1182000Y1136000D03*
X1235000Y1142000D03*
X1239000Y1144000D03*
X1226000Y1111000D03*
X1235500Y1134500D03*
X1231500Y1129500D03*
X1255000Y1123500D03*
X1224500Y1144000D03*
X1224000Y1127000D03*
X1228000D03*
X1250100Y1123600D03*
X1279500Y1133500D03*
X1260000D03*
X1292000Y1119500D03*
X1272000Y1135000D03*
X1276000D03*
X1259000Y1110000D03*
X1260000Y1123500D03*
X1259000Y1120000D03*
X1266000Y1111000D03*
X1292500Y1123500D03*
X1283500D03*
X1288000D03*
X1279000D03*
X1290000Y1145100D03*
X1275000D03*
X1294500D03*
X1270000Y1145000D03*
X1286500Y1139000D03*
X1282500Y1134500D03*
X1303000Y1135000D03*
X1299500Y1126500D03*
X1309500Y1135500D03*
X1368500Y1109500D03*
Y1114000D03*
X1338000Y1124110D03*
X1346780Y1123950D03*
X1377500Y1147500D03*
X1376600Y1128200D03*
X1352100Y1112000D03*
X1378500Y1134000D03*
X1402900Y1124000D03*
X1407000Y1124500D03*
X1397500Y1124000D03*
X1405300Y1121500D03*
X1393000Y1138000D03*
X1392500Y1146500D03*
X1395500Y1140500D03*
X1400700Y1122100D03*
X1393100Y1124300D03*
X1396460Y1135410D03*
X1414930Y1146680D03*
X1379000Y1111500D03*
X1382400Y1144700D03*
X1411410Y1110420D03*
X1392400Y1135000D03*
Y1142700D03*
X1426500Y1138800D03*
X1439900Y1136700D03*
X1493000Y1117500D03*
Y1126000D03*
X1501410Y1130000D03*
Y1140000D03*
Y1115000D03*
X1547640Y1110000D03*
X1547580Y1135000D03*
X1031500Y1173000D03*
X1034500Y1154500D03*
X1097000Y1171500D03*
X1097500Y1167500D03*
Y1149000D03*
X1097000Y1162000D03*
X1086500Y1179000D03*
Y1148500D03*
Y1153000D03*
Y1168500D03*
Y1172500D03*
Y1185500D03*
X1087000Y1157500D03*
Y1162000D03*
X1132402Y1162752D03*
Y1184799D03*
X1135551Y1165902D03*
X1129252Y1187949D03*
Y1184799D03*
Y1181650D03*
Y1175350D03*
Y1172201D03*
X1099500Y1169500D03*
X1129252Y1169051D03*
X1132402Y1165902D03*
X1129252Y1162752D03*
X1135551D03*
X1129252Y1165902D03*
X1101500Y1177500D03*
Y1173500D03*
X1132402Y1159602D03*
X1126102Y1184799D03*
Y1181650D03*
X1132402Y1169051D03*
Y1181650D03*
Y1187949D03*
X1129252Y1159602D03*
X1135551Y1169051D03*
Y1172201D03*
X1132402D03*
X1135551Y1175350D03*
X1132500Y1175500D03*
X1135551Y1181650D03*
Y1184799D03*
Y1187949D03*
X1119500Y1178500D03*
X1160748Y1169051D03*
Y1172201D03*
Y1181650D03*
Y1175350D03*
Y1187949D03*
Y1162752D03*
X1157598D03*
Y1165902D03*
X1151299Y1162752D03*
X1141850D03*
X1154449D03*
X1163898D03*
X1138701D03*
X1141850Y1159602D03*
X1148150Y1165902D03*
X1141850D03*
X1157598Y1175350D03*
X1145000Y1172500D03*
X1144500Y1184000D03*
X1154449Y1159602D03*
X1151299D03*
Y1165902D03*
X1138701D03*
X1157598Y1169051D03*
X1154449Y1172201D03*
X1157598Y1181650D03*
X1154449Y1184799D03*
X1157598Y1187949D03*
X1168500Y1165500D03*
Y1161000D03*
X1154449Y1165902D03*
Y1169051D03*
X1151299D03*
X1148150D03*
X1141850D03*
X1138701D03*
X1157598Y1172201D03*
X1154449Y1175350D03*
Y1181650D03*
X1157598Y1184799D03*
X1154449Y1187949D03*
X1151299D03*
X1148150D03*
X1141850D03*
X1138701D03*
X1145500Y1181000D03*
X1148000Y1156000D03*
X1145500Y1176500D03*
X1192500Y1160000D03*
X1197500D03*
X1191000Y1177000D03*
X1188000Y1166000D03*
X1192000Y1167500D03*
X1236800Y1169500D03*
X1235000Y1167500D03*
X1236500Y1179500D03*
X1235500Y1154500D03*
X1223000Y1179500D03*
X1238500Y1156500D03*
X1235500Y1158500D03*
X1239000Y1162000D03*
Y1166000D03*
X1224500Y1172500D03*
Y1155500D03*
X1249500Y1172500D03*
X1249000Y1186500D03*
X1249500Y1167500D03*
X1256500Y1178500D03*
X1236900Y1185900D03*
X1269902Y1184799D03*
Y1162752D03*
X1266752D03*
Y1187949D03*
Y1184799D03*
Y1181650D03*
Y1169051D03*
Y1165902D03*
X1295000Y1159500D03*
X1288799Y1159602D03*
X1285650D03*
X1291500Y1157900D03*
X1285650Y1162752D03*
X1295098D03*
Y1165902D03*
X1291949Y1162752D03*
X1288799D03*
X1263602Y1181650D03*
Y1184799D03*
X1285650Y1165902D03*
X1279350D03*
X1295100Y1175500D03*
X1283000Y1184500D03*
X1282500Y1172500D03*
Y1181000D03*
X1283100Y1152400D03*
X1269902Y1159602D03*
X1266752D03*
Y1172201D03*
Y1175350D03*
X1288800Y1165800D03*
X1276201Y1165902D03*
X1295098Y1169051D03*
X1269902D03*
X1291949Y1172201D03*
X1295098Y1181650D03*
X1269902D03*
X1291949Y1184799D03*
X1295098Y1187949D03*
X1269902D03*
X1258500Y1167500D03*
X1270000Y1154500D03*
X1258500Y1186500D03*
X1294500Y1154500D03*
X1274600D03*
X1258500Y1173500D03*
X1289600Y1154700D03*
X1279350Y1159602D03*
Y1162752D03*
X1276201D03*
X1273051D03*
X1291949Y1165902D03*
X1273051D03*
X1269902D03*
X1292200Y1169100D03*
X1288800Y1169200D03*
X1285650Y1169051D03*
X1279350D03*
X1276201D03*
X1273051D03*
X1295100Y1172100D03*
X1273051Y1172201D03*
X1269902D03*
X1291949Y1175350D03*
X1273051D03*
X1270000Y1175500D03*
X1291949Y1181650D03*
X1273051D03*
X1295000Y1184500D03*
X1273051Y1184799D03*
X1291949Y1187949D03*
X1288799D03*
X1279350D03*
X1276201D03*
X1273051D03*
X1285650D03*
X1282500Y1176500D03*
X1279500Y1156000D03*
X1301398Y1187949D03*
Y1172201D03*
X1298248Y1175350D03*
Y1181650D03*
Y1169051D03*
Y1172201D03*
X1301600Y1159500D03*
X1298248Y1165902D03*
X1301398D03*
Y1162752D03*
X1298248D03*
X1298400Y1159500D03*
X1332000Y1173000D03*
X1298000Y1188000D03*
X1326000Y1160000D03*
X1312900Y1177500D03*
X1308500Y1173500D03*
X1306500Y1182500D03*
Y1165500D03*
Y1161000D03*
Y1187500D03*
X1330000Y1159800D03*
X1327500Y1172800D03*
X1316000Y1187000D03*
X1334500Y1159900D03*
X1325900Y1164600D03*
X1315900Y1165400D03*
X1308500Y1178500D03*
X1316000Y1161000D03*
X1322000Y1178500D03*
X1341940Y1164480D03*
X1340000Y1170200D03*
X1355400Y1154200D03*
X1390590Y1168600D03*
X1381500Y1148500D03*
Y1154500D03*
X1378000Y1157000D03*
X1379500Y1152000D03*
X1404500Y1171600D03*
X1411000D03*
X1430550Y1166470D03*
X1429400Y1148700D03*
Y1151200D03*
X1465850Y1169560D03*
X1540500Y1150500D03*
X1024000Y1228000D03*
X1018300Y1209700D03*
X1029000Y1191500D03*
X1079000Y1221500D03*
X1062500Y1218200D03*
X1091500Y1225500D03*
X1058200Y1212100D03*
X1094000Y1219000D03*
X1086500Y1189500D03*
X1087500Y1213500D03*
X1090000Y1194000D03*
X1087000Y1210000D03*
X1132402Y1194248D03*
X1129252D03*
X1132402Y1191098D03*
X1129252D03*
X1099000Y1210000D03*
Y1197500D03*
X1135551Y1194248D03*
X1128500Y1220000D03*
X1132500Y1221000D03*
X1136500Y1221500D03*
X1135551Y1191098D03*
X1117000Y1221500D03*
X1098000Y1190500D03*
X1132402Y1197398D03*
X1129252D03*
X1101610Y1195890D03*
Y1192110D03*
X1134500Y1202500D03*
X1131500Y1208500D03*
X1099000Y1204000D03*
X1160700Y1194300D03*
X1168500Y1221500D03*
X1157598Y1191098D03*
X1172500Y1221500D03*
X1160748Y1191098D03*
X1174500Y1219000D03*
X1176500Y1221500D03*
X1151299Y1194248D03*
X1157598D03*
X1158500Y1221500D03*
X1138701Y1194248D03*
X1141850D03*
X1148150D03*
X1154449Y1191098D03*
Y1194248D03*
X1152500Y1221500D03*
X1148150Y1191098D03*
X1141850D03*
X1138701D03*
X1139000Y1202000D03*
X1151299Y1191098D03*
X1139000Y1212000D03*
X1145000Y1203500D03*
X1203500Y1205500D03*
X1179000Y1191500D03*
X1203500Y1191000D03*
X1202500Y1200500D03*
X1237500Y1189000D03*
X1242000Y1189500D03*
X1254000Y1222000D03*
X1239800Y1203900D03*
X1239110Y1197288D03*
Y1193508D03*
X1225500Y1210000D03*
X1223000Y1191500D03*
X1225000Y1204000D03*
X1249000Y1191000D03*
X1222900Y1198000D03*
X1269902Y1191098D03*
X1279350Y1194248D03*
X1279000Y1222000D03*
X1285650Y1194248D03*
X1283500Y1222000D03*
X1292100Y1197400D03*
X1273051Y1194248D03*
X1258000Y1222000D03*
X1276201Y1194248D03*
X1262000Y1222000D03*
X1291949Y1191098D03*
X1273051D03*
X1291949Y1194248D03*
X1288799D03*
X1288600Y1197600D03*
X1295098Y1194248D03*
X1295200Y1197400D03*
X1266752Y1197398D03*
X1269902D03*
X1285650Y1191098D03*
X1279350D03*
X1266752Y1194248D03*
Y1191098D03*
X1276201D03*
X1272100Y1202700D03*
X1277000D03*
X1258400Y1190700D03*
X1288799Y1191098D03*
X1269902Y1194248D03*
X1269000Y1209500D03*
X1282500Y1203500D03*
X1280000Y1209000D03*
X1298000Y1197500D03*
X1301398Y1194248D03*
X1298248D03*
X1301398Y1191098D03*
X1318300Y1228100D03*
X1298248Y1191098D03*
X1306500Y1196000D03*
Y1191500D03*
X1316000Y1196000D03*
Y1191500D03*
X1360030Y1225510D03*
X1360600Y1211500D03*
X1360500Y1207400D03*
X1375000Y1192500D03*
X1348490Y1208680D03*
X1342600Y1194400D03*
X1412500Y1219000D03*
X1385500Y1206000D03*
X1389500D03*
X1416000Y1225500D03*
X1396000D03*
X1401100Y1225600D03*
X1413900Y1193100D03*
X1409500Y1193300D03*
X1416000Y1216000D03*
X1400500D03*
X1392500Y1212500D03*
X1405500Y1227000D03*
X1403500Y1211800D03*
X1403900Y1207600D03*
X1437500Y1206500D03*
X1427600Y1206300D03*
X1423200Y1206500D03*
X1418500Y1206300D03*
X1431900Y1206200D03*
X1420500Y1225500D03*
X1430200Y1192600D03*
X1418500Y1192900D03*
X1437500Y1192500D03*
X1420500Y1216000D03*
X1444000Y1206500D03*
X1492300Y1218300D03*
X1488500Y1219500D03*
X1529000Y1228000D03*
X1532500D03*
X1500000Y1216000D03*
X1513960Y1218980D03*
X1519580Y1216310D03*
X1538500Y1218500D03*
X1020000Y1266000D03*
X1021000Y1246500D03*
X1092500Y1242000D03*
X1080500Y1242500D03*
X1078000Y1249500D03*
X1092500Y1236500D03*
X1080000Y1233000D03*
X1062000Y1230000D03*
Y1251000D03*
X1092000Y1231000D03*
X1062000Y1235500D03*
X1082000D03*
X1062000Y1257000D03*
Y1245500D03*
Y1263000D03*
X1127500Y1257500D03*
X1129500Y1254000D03*
X1131500Y1257000D03*
X1125500Y1254500D03*
X1134700Y1255100D03*
X1102500Y1235500D03*
X1121870Y1235270D03*
X1104200Y1250600D03*
X1136500Y1243000D03*
X1112000Y1234300D03*
X1175500Y1255000D03*
X1162500D03*
X1150500Y1254000D03*
X1147000Y1253500D03*
X1152500Y1257000D03*
X1156500Y1254000D03*
X1167000Y1255500D03*
X1170900Y1255300D03*
X1138300D03*
X1141130Y1235270D03*
X1143870D03*
X1163130D03*
X1165870D03*
X1175500Y1242000D03*
X1165500D03*
X1172500Y1249000D03*
X1144000Y1254000D03*
X1202990Y1242490D03*
X1203290Y1235670D03*
X1185130Y1235270D03*
X1179200Y1255600D03*
X1241960Y1242530D03*
X1248560Y1235680D03*
X1255370Y1235270D03*
X1245500Y1243000D03*
X1294000Y1254000D03*
X1263000D03*
X1265000Y1257000D03*
X1268100Y1257300D03*
X1267000Y1254000D03*
X1284500Y1253500D03*
X1292000Y1257000D03*
X1272000Y1255000D03*
X1275500D03*
X1276870Y1235270D03*
X1274000Y1242600D03*
X1290000Y1265000D03*
X1286500Y1259000D03*
X1313000Y1255000D03*
X1300000D03*
X1304500Y1255500D03*
X1308400Y1255400D03*
X1300000Y1242000D03*
X1315700Y1242200D03*
X1319500Y1255000D03*
X1310000Y1252500D03*
X1363000Y1268000D03*
X1365500Y1243500D03*
X1362500Y1246500D03*
Y1239500D03*
X1364000Y1234500D03*
X1362000Y1250500D03*
X1365500Y1247500D03*
X1362000Y1242500D03*
X1365000Y1257000D03*
Y1253000D03*
X1347600Y1235600D03*
X1348000Y1255200D03*
X1375000Y1257500D03*
Y1238500D03*
Y1262000D03*
Y1243500D03*
X1389000Y1233000D03*
X1395902Y1255799D03*
X1414799Y1265248D03*
X1399051D03*
X1402201D03*
X1405350D03*
X1411650D03*
X1395902D03*
Y1262098D03*
X1399051D03*
X1389500Y1246500D03*
X1392752Y1246350D03*
Y1240051D03*
Y1236902D03*
Y1233752D03*
X1395902D03*
X1392752Y1258949D03*
Y1255799D03*
Y1262098D03*
Y1243201D03*
Y1265248D03*
Y1252650D03*
X1411500Y1230500D03*
X1411650Y1233752D03*
X1414799D03*
Y1230602D03*
X1411650Y1236902D03*
X1405350D03*
X1411650Y1262098D03*
X1405350D03*
X1408500Y1255500D03*
Y1243000D03*
Y1247500D03*
X1389602Y1252650D03*
Y1255799D03*
X1392752Y1230602D03*
X1395902D03*
X1414799Y1236902D03*
X1402201D03*
X1395902Y1240051D03*
Y1252650D03*
Y1258949D03*
X1402201Y1262098D03*
X1384500Y1238500D03*
Y1257500D03*
Y1261700D03*
X1384600Y1243700D03*
X1405350Y1230602D03*
Y1233752D03*
X1402201D03*
X1399051D03*
Y1236902D03*
X1395902D03*
X1414799Y1240051D03*
X1411650D03*
X1405350D03*
X1402201D03*
X1399051D03*
Y1243201D03*
X1395902D03*
X1399051Y1246350D03*
X1395902D03*
X1399051Y1252650D03*
Y1255799D03*
X1414799Y1258949D03*
X1411650D03*
X1405350D03*
X1402201D03*
X1399051D03*
X1414799Y1262098D03*
X1408500Y1252000D03*
X1424248Y1243201D03*
Y1265248D03*
X1421098Y1262098D03*
X1424248D03*
Y1258949D03*
Y1240051D03*
X1417949Y1265248D03*
Y1262098D03*
X1421098Y1265248D03*
X1427398Y1230602D03*
Y1233752D03*
X1424248D03*
X1427398Y1236902D03*
X1424248D03*
X1421098D03*
Y1233752D03*
X1417949Y1230602D03*
Y1233752D03*
X1424000Y1230500D03*
X1424248Y1252650D03*
Y1246350D03*
X1421098Y1230602D03*
Y1246350D03*
X1428000Y1246500D03*
X1421098Y1240051D03*
X1417949Y1243201D03*
X1421098Y1252650D03*
X1417949Y1255799D03*
X1421098Y1258949D03*
X1432500Y1267000D03*
Y1236500D03*
Y1262500D03*
Y1232000D03*
Y1258000D03*
X1434500Y1244500D03*
X1439000Y1248500D03*
X1456000Y1231000D03*
X1417949Y1236902D03*
Y1240051D03*
X1421098Y1243201D03*
X1417949Y1246350D03*
Y1252650D03*
X1421098Y1255799D03*
X1417949Y1258949D03*
X1442000Y1258000D03*
X1455000Y1247500D03*
X1442000Y1267000D03*
X1441500Y1236500D03*
Y1262000D03*
Y1232000D03*
X1434200Y1249300D03*
X1448000Y1249000D03*
Y1240500D03*
X1486500Y1248500D03*
X1484500Y1254500D03*
X1486000Y1251500D03*
Y1263000D03*
X1485000Y1260000D03*
X1480500Y1242000D03*
X1488000Y1242500D03*
X1484500Y1246000D03*
X1488000Y1236000D03*
X1484500Y1237500D03*
X1468780Y1261190D03*
X1468750Y1258600D03*
X1477000Y1243500D03*
X1461000Y1231000D03*
X1473500Y1247000D03*
X1515570Y1229490D03*
X1508000Y1241500D03*
X1524500Y1246000D03*
X1513500Y1231500D03*
X1509500D03*
X1511740Y1241700D03*
X1517670Y1243830D03*
X1534000Y1241000D03*
X1520550Y1244490D03*
X1537000Y1251700D03*
X1502000Y1231500D03*
X1516500Y1249000D03*
X1508000Y1248900D03*
X1524700Y1231500D03*
X1534000Y1264000D03*
X1520400Y1231500D03*
X1508100Y1258000D03*
X1516400Y1256400D03*
X1524500Y1262000D03*
X1508500Y1264700D03*
X1538500Y1255500D03*
Y1258500D03*
X1573000Y1233000D03*
X1575000Y1235000D03*
X1018500Y1290000D03*
X1097000Y1299000D03*
Y1282000D03*
Y1277500D03*
Y1273000D03*
X1078000Y1275500D03*
X1077500Y1280500D03*
X1087000Y1273000D03*
Y1268500D03*
X1086500Y1299000D03*
Y1288500D03*
Y1292500D03*
Y1305500D03*
X1087000Y1277500D03*
Y1282000D03*
X1132402Y1282752D03*
X1129252Y1304799D03*
X1098000Y1306500D03*
X1129252Y1301650D03*
Y1289051D03*
Y1285902D03*
X1132402D03*
X1129252Y1282752D03*
Y1307949D03*
X1132402Y1304799D03*
X1129252Y1279602D03*
X1132402D03*
X1135551Y1285902D03*
Y1282752D03*
X1129252Y1295350D03*
Y1292201D03*
X1101500Y1299500D03*
Y1295500D03*
X1126102Y1304799D03*
Y1301650D03*
X1132402Y1289051D03*
Y1307949D03*
Y1301650D03*
X1135551Y1289051D03*
Y1292201D03*
X1132402D03*
X1135551Y1295350D03*
X1132402D03*
X1135551Y1301650D03*
Y1304799D03*
Y1307949D03*
X1120000Y1298500D03*
X1160748Y1289051D03*
X1163898D03*
X1160748Y1292201D03*
Y1301650D03*
Y1295350D03*
Y1307949D03*
X1157598Y1282752D03*
X1151299D03*
X1141850D03*
X1154449D03*
X1163898D03*
X1141850Y1279602D03*
X1151299D03*
X1154449D03*
X1148150Y1285902D03*
X1141850D03*
X1157598Y1295350D03*
X1145000Y1304500D03*
Y1292500D03*
X1157598Y1285902D03*
X1160748Y1282752D03*
X1138701D03*
X1151299Y1285902D03*
X1138701D03*
X1157598Y1289051D03*
X1154449Y1292201D03*
X1157598Y1301650D03*
X1154449Y1304799D03*
X1157598Y1307949D03*
X1168500Y1285500D03*
Y1281000D03*
X1154449Y1285902D03*
Y1289051D03*
X1151299D03*
X1148150D03*
X1141850D03*
X1138701D03*
X1157598Y1292201D03*
X1154449Y1295350D03*
Y1301650D03*
X1157598Y1304799D03*
X1154449Y1307949D03*
X1151299D03*
X1148150D03*
X1141850D03*
X1138701D03*
X1145500Y1301000D03*
X1148000Y1276000D03*
X1145500Y1296500D03*
X1192500Y1280000D03*
X1197500D03*
X1191000Y1296500D03*
X1188500Y1285500D03*
X1234500Y1277500D03*
Y1273000D03*
Y1268500D03*
X1234000Y1299000D03*
X1234500Y1282000D03*
X1239000Y1299500D03*
Y1295500D03*
X1224500Y1273000D03*
Y1268500D03*
X1224000Y1299000D03*
X1224500Y1288500D03*
X1224000Y1292500D03*
Y1305500D03*
X1224500Y1277500D03*
Y1282000D03*
X1257000Y1298500D03*
X1269902Y1282752D03*
Y1304799D03*
X1295098Y1285902D03*
X1273051D03*
X1279350Y1282752D03*
X1266752Y1295350D03*
Y1289051D03*
X1269902Y1285902D03*
X1266752Y1282752D03*
X1279350Y1279602D03*
X1266752Y1301650D03*
Y1304799D03*
Y1307949D03*
X1291949Y1282752D03*
X1288799D03*
X1266752Y1285902D03*
X1285650D03*
X1279350D03*
X1295098Y1295350D03*
X1282500Y1292500D03*
Y1304500D03*
X1266500Y1272500D03*
Y1269500D03*
X1295098Y1282752D03*
X1266752Y1292201D03*
X1288799Y1279602D03*
X1291949D03*
X1263602Y1304799D03*
Y1301650D03*
X1273051Y1282752D03*
X1276201D03*
X1288799Y1285902D03*
X1276201D03*
X1295098Y1289051D03*
X1269902D03*
X1291949Y1292201D03*
X1295098Y1301650D03*
X1269902D03*
X1291949Y1304799D03*
X1295098Y1307949D03*
X1269902D03*
X1291949Y1285902D03*
Y1289051D03*
X1288799D03*
X1285650D03*
X1279350D03*
X1276201D03*
X1273051D03*
X1295098Y1292201D03*
X1273051D03*
X1269902D03*
X1291949Y1295350D03*
X1273051D03*
X1269902D03*
X1291949Y1301650D03*
X1273051D03*
X1295098Y1304799D03*
X1273051D03*
X1291949Y1307949D03*
X1288799D03*
X1285650D03*
X1279350D03*
X1276201D03*
X1273051D03*
X1283000Y1301000D03*
Y1296500D03*
X1285500Y1276000D03*
X1298248Y1289051D03*
Y1292201D03*
X1301398Y1289051D03*
X1298248Y1301650D03*
Y1295350D03*
Y1307949D03*
Y1282752D03*
X1301398D03*
X1306000Y1285500D03*
Y1281000D03*
X1330000Y1280000D03*
X1335000D03*
X1329300Y1297200D03*
X1326000Y1285500D03*
X1362500Y1289000D03*
X1373000Y1293100D03*
X1360000Y1295000D03*
X1376100Y1291300D03*
X1364000Y1293300D03*
X1360700Y1302500D03*
X1348730Y1279130D03*
X1362000Y1282500D03*
X1347100Y1295000D03*
X1374000Y1304500D03*
X1409500Y1293000D03*
X1412000Y1290000D03*
X1414000Y1293000D03*
X1416000Y1290000D03*
X1388000Y1292500D03*
X1390000Y1289500D03*
X1392000Y1292500D03*
X1394000Y1289500D03*
X1380500Y1292000D03*
X1403000Y1273500D03*
X1398000D03*
X1385900Y1306270D03*
X1404630D03*
X1407870D03*
X1403000Y1283000D03*
X1398000D03*
X1408500Y1274500D03*
X1432000Y1293000D03*
X1434000Y1289500D03*
X1436000Y1293000D03*
X1438000Y1289500D03*
X1426630Y1306270D03*
X1429320D03*
X1488800Y1293300D03*
X1504000Y1274500D03*
X1523550Y1277130D03*
X1521580Y1274730D03*
X1511800Y1275200D03*
X1513500Y1292900D03*
X1510400Y1295500D03*
X1518000Y1278000D03*
X1515000D03*
X1528800Y1295400D03*
X1508400Y1274900D03*
X1097500Y1330000D03*
X1086500Y1309500D03*
X1090000Y1314000D03*
X1087000Y1330000D03*
Y1334500D03*
X1132402Y1311098D03*
X1129252D03*
X1135551D03*
X1117000Y1341500D03*
X1135551Y1314248D03*
X1129252D03*
X1132402D03*
X1103000Y1308500D03*
X1098000Y1320000D03*
X1101500Y1314000D03*
X1129252Y1317398D03*
X1132402D03*
X1101500Y1318000D03*
X1134500Y1322500D03*
Y1331500D03*
X1099000Y1324000D03*
X1160748Y1314248D03*
X1157598Y1311098D03*
X1160748D03*
X1151299Y1314248D03*
X1154449D03*
Y1311098D03*
X1154500Y1341500D03*
X1158500D03*
X1138701Y1314248D03*
X1148150Y1311098D03*
X1141850D03*
X1138701D03*
X1139000Y1322500D03*
X1169000Y1316000D03*
X1151299Y1311098D03*
X1145500Y1324000D03*
X1139000Y1331500D03*
X1203500Y1311000D03*
X1179000Y1316000D03*
Y1311500D03*
X1202500Y1320500D03*
X1243600Y1342500D03*
X1234500Y1330000D03*
X1235500Y1319500D03*
X1254500Y1341500D03*
X1239000Y1318000D03*
Y1314000D03*
X1224000Y1309500D03*
X1224500Y1334500D03*
X1228900Y1313800D03*
X1224500Y1330000D03*
X1236500Y1324000D03*
X1269902Y1314248D03*
Y1311098D03*
X1266752Y1314248D03*
Y1311098D03*
X1295098D03*
X1288799Y1314248D03*
X1291949Y1311098D03*
Y1314248D03*
X1295098D03*
X1273051D03*
X1279350D03*
X1276201D03*
X1285650D03*
X1273051Y1311098D03*
X1285650D03*
X1279350D03*
X1269902Y1317398D03*
X1266752D03*
X1276201Y1311098D03*
X1272000Y1321500D03*
X1277000D03*
X1288799Y1311098D03*
X1272000Y1332000D03*
X1282600Y1324700D03*
X1277000Y1332000D03*
X1298248Y1314248D03*
Y1311098D03*
X1316500Y1311500D03*
X1340000Y1315000D03*
X1392000Y1313500D03*
X1386500Y1319500D03*
X1453000Y1328000D03*
X1438000Y1321600D03*
X1470500Y1329000D03*
X1580500Y1327300D03*
X1097000Y1357000D03*
X1096500Y1352500D03*
X1074000Y1377000D03*
X1125500D03*
X1129500D03*
X1131500Y1380000D03*
X1127500D03*
X1134500Y1378300D03*
X1121870Y1355270D03*
X1108000Y1365500D03*
X1136500D03*
X1106000Y1353500D03*
X1110500D03*
X1175500Y1378000D03*
X1162000D03*
X1156500Y1377000D03*
X1154500Y1380000D03*
X1152500Y1377000D03*
X1147000Y1376500D03*
X1138500Y1378300D03*
X1165000Y1378000D03*
X1169000D03*
X1141130Y1355270D03*
X1143870D03*
X1163130D03*
X1162500Y1364500D03*
X1175500D03*
X1145500Y1365500D03*
X1141000D03*
X1172500Y1377500D03*
X1149000Y1382000D03*
X1185130Y1355270D03*
X1185500Y1374500D03*
X1246500Y1366300D03*
X1248100Y1354500D03*
X1243500Y1354600D03*
X1288000Y1377000D03*
X1263000D03*
X1261100Y1380200D03*
X1266000Y1380500D03*
X1267000Y1377000D03*
X1294000D03*
X1284500Y1376500D03*
X1272000Y1378000D03*
X1276000D03*
X1292000Y1380000D03*
X1259370Y1355270D03*
X1278630D03*
X1281370D03*
X1283100Y1366200D03*
X1278500Y1366000D03*
X1274000D03*
X1282000Y1376200D03*
X1300000Y1378000D03*
X1313000D03*
X1304500Y1378500D03*
X1308500D03*
X1300630Y1355270D03*
X1303370D03*
X1300000Y1365000D03*
X1313000Y1364500D03*
X1319500Y1378000D03*
X1456900Y1353800D03*
X1463510Y1350730D03*
X1475450Y1350780D03*
X1473500Y1353000D03*
X1470500Y1350000D03*
X1469500Y1353000D03*
X1467000Y1351000D03*
X1523800Y1362500D03*
X1043000Y1424000D03*
X1042000Y1428000D03*
X1056000Y1416500D03*
X1097000Y1405000D03*
Y1400500D03*
Y1396000D03*
Y1391500D03*
X1061500Y1400000D03*
X1071000Y1407500D03*
X1087000Y1396000D03*
Y1391500D03*
X1086500Y1422000D03*
X1061500Y1390000D03*
X1066000Y1407500D03*
X1086500Y1411500D03*
Y1415500D03*
X1087000Y1400500D03*
Y1405000D03*
X1071000Y1422500D03*
X1132402Y1405752D03*
Y1427799D03*
X1135551Y1408902D03*
X1129252Y1427799D03*
Y1424650D03*
Y1418350D03*
Y1415201D03*
Y1412051D03*
Y1408902D03*
X1132402D03*
X1129252Y1405752D03*
Y1402602D03*
X1132402D03*
X1101500Y1419000D03*
Y1423000D03*
X1135551Y1405752D03*
X1126102Y1427799D03*
Y1424650D03*
X1132402Y1412051D03*
Y1424650D03*
X1135551Y1412051D03*
Y1415201D03*
X1132402D03*
X1135551Y1418350D03*
X1132402D03*
X1135551Y1424650D03*
Y1427799D03*
X1119500Y1421500D03*
X1160748Y1412051D03*
Y1415201D03*
X1163898Y1412051D03*
X1160748Y1424650D03*
Y1418350D03*
Y1405752D03*
X1157598D03*
Y1408902D03*
X1154449Y1405752D03*
X1163898D03*
X1141850Y1402602D03*
X1151299Y1405752D03*
X1148150Y1408902D03*
X1141850D03*
X1157598Y1418350D03*
X1145000Y1427500D03*
Y1415500D03*
X1151299Y1402602D03*
X1154449D03*
X1141850Y1405752D03*
X1138701D03*
X1151299Y1408902D03*
X1138701D03*
X1157598Y1412051D03*
X1154449Y1415201D03*
X1157598Y1424650D03*
X1154449Y1427799D03*
X1168500Y1408500D03*
Y1404000D03*
X1154449Y1408902D03*
Y1412051D03*
X1151299D03*
X1148150D03*
X1141850D03*
X1138701D03*
X1157598Y1415201D03*
X1154449Y1418350D03*
Y1424650D03*
X1157598Y1427799D03*
X1145000Y1424000D03*
Y1419500D03*
X1147800Y1399200D03*
X1184000Y1397000D03*
X1215000Y1425000D03*
Y1417500D03*
Y1421500D03*
X1192500Y1403000D03*
X1197500D03*
X1188500Y1408500D03*
X1234500Y1405000D03*
Y1396000D03*
Y1400500D03*
X1239000Y1422000D03*
Y1418000D03*
X1224500Y1396000D03*
Y1391500D03*
X1224000Y1422000D03*
Y1411500D03*
Y1415500D03*
X1224500Y1400500D03*
Y1405000D03*
X1257000Y1421500D03*
X1269902Y1405752D03*
Y1427799D03*
X1295098Y1408902D03*
X1279350Y1405752D03*
X1273051Y1408902D03*
X1266752Y1427799D03*
Y1424650D03*
Y1418350D03*
Y1415201D03*
Y1412051D03*
Y1408902D03*
X1269902D03*
X1266752Y1405752D03*
X1273051D03*
X1276201D03*
X1279350Y1402602D03*
X1291949Y1405752D03*
X1288799D03*
X1269902Y1402602D03*
X1266752D03*
X1291949D03*
X1288799D03*
X1285650Y1408902D03*
X1295098Y1418350D03*
X1282500Y1415500D03*
Y1427500D03*
Y1424000D03*
X1279350Y1408902D03*
X1282500Y1395900D03*
X1263602Y1427799D03*
Y1424650D03*
X1295100Y1405900D03*
X1288799Y1408902D03*
X1276201D03*
X1295098Y1412051D03*
X1269902D03*
X1291949Y1415201D03*
X1295098Y1424650D03*
X1269902D03*
X1291949Y1427799D03*
Y1408902D03*
Y1412051D03*
X1288799D03*
X1285650D03*
X1279350D03*
X1276201D03*
X1273051D03*
X1295098Y1415201D03*
X1273051D03*
X1269902D03*
X1291949Y1418350D03*
X1273051D03*
X1269902D03*
X1291949Y1424650D03*
X1273051D03*
X1295098Y1427799D03*
X1273051D03*
X1282500Y1419500D03*
X1285300Y1399500D03*
X1298248Y1412051D03*
X1301398D03*
X1298248Y1424650D03*
Y1418350D03*
X1301398Y1405752D03*
X1298248D03*
X1306000Y1408500D03*
Y1404000D03*
X1330000Y1403000D03*
X1335000D03*
X1329000Y1420000D03*
X1326000Y1408500D03*
X1308000Y1421500D03*
X1437500Y1401000D03*
X1494499Y1427498D03*
Y1389898D03*
X1495499Y1408498D03*
X1464600Y1406300D03*
X1509199Y1416208D03*
X1499189Y1410638D03*
X1507669Y1398828D03*
X1072800Y1435200D03*
X1097500Y1453000D03*
X1073500Y1429000D03*
X1069000Y1447000D03*
Y1461300D03*
X1072000Y1443000D03*
X1086500Y1428500D03*
Y1432500D03*
X1084800Y1439200D03*
X1087000Y1453000D03*
Y1457500D03*
X1129252Y1434098D03*
X1098500Y1438500D03*
X1129252Y1430949D03*
X1135551Y1434098D03*
X1117000Y1464500D03*
X1132402Y1434098D03*
Y1437248D03*
X1135551D03*
X1129252D03*
Y1440398D03*
X1132402D03*
X1101500Y1441000D03*
Y1444500D03*
X1132402Y1430949D03*
X1135551D03*
X1099000Y1447000D03*
X1157598Y1434098D03*
X1167200Y1462800D03*
X1160748Y1437248D03*
Y1434098D03*
X1163898Y1430949D03*
X1160748D03*
X1151299Y1437248D03*
X1154449D03*
Y1434098D03*
X1157598Y1437248D03*
X1138701D03*
X1141850D03*
X1148150D03*
Y1434098D03*
X1141850D03*
X1157598Y1430949D03*
X1138701Y1434098D03*
X1172600Y1441700D03*
X1154449Y1430949D03*
X1151299D03*
X1148150D03*
X1141850D03*
X1138701D03*
X1151299Y1434098D03*
X1145000Y1447000D03*
X1215000Y1430000D03*
X1179000Y1434500D03*
X1203000Y1433000D03*
X1236500Y1440500D03*
X1254500Y1464500D03*
X1239000Y1447000D03*
Y1443000D03*
X1224000Y1428500D03*
Y1432500D03*
X1227500Y1437000D03*
X1224500Y1453000D03*
X1236500Y1449000D03*
X1266752Y1437248D03*
X1269902Y1434098D03*
X1295098D03*
X1288799Y1437248D03*
X1291949D03*
Y1434098D03*
X1295098Y1437248D03*
X1276201D03*
X1266000Y1461500D03*
X1279350Y1437248D03*
X1268000Y1464000D03*
X1285650Y1437248D03*
X1270000Y1461500D03*
X1273051Y1434098D03*
X1266752Y1430949D03*
X1269902Y1437248D03*
X1273051D03*
X1266752Y1434098D03*
X1269902Y1440398D03*
X1266752D03*
X1285650Y1434098D03*
X1279350D03*
X1295098Y1430949D03*
X1269902D03*
X1276201Y1434098D03*
X1291949Y1430949D03*
X1288799D03*
X1285650D03*
X1279350D03*
X1276201D03*
X1273051D03*
X1288799Y1434098D03*
X1285200Y1443800D03*
X1298248Y1437248D03*
Y1434098D03*
Y1430949D03*
X1312000Y1465000D03*
X1306500Y1439000D03*
X1335500Y1437500D03*
X1316500Y1439000D03*
Y1434500D03*
X1416000Y1467000D03*
X1431250Y1456590D03*
X1508999Y1432498D03*
X1069000Y1469000D03*
X1121870Y1478270D03*
X1106000Y1476500D03*
X1110500D03*
X1141130Y1478270D03*
X1143870D03*
X1163130D03*
X1165870D03*
X1185130D03*
X1247700Y1477200D03*
X1259370Y1478270D03*
X1278630D03*
X1281370D03*
X1300630D03*
X1303370D03*
X1322630D03*
X1416000Y1488500D03*
X1411000Y1488000D03*
X1413500Y1491000D03*
X1409040Y1474230D03*
X1400000Y1483000D03*
X1418500Y1491000D03*
X1421000Y1488500D03*
X1457280Y1482000D03*
X1435760Y1471440D03*
X1452000Y1477000D03*
X1439500Y1471500D03*
X1466950Y1468600D03*
X1517500Y1490000D03*
X1520000Y1492500D03*
X1522500Y1490000D03*
X1514400Y1474500D03*
G54D243*
X1504500Y1292900D03*
Y1283900D03*
X1512000Y1249000D03*
Y1258000D03*
X1493540Y1283950D03*
Y1292950D03*
X1145000Y1148000D03*
Y1139000D03*
X1527980Y1281370D03*
Y1290370D03*
X1464000Y1306500D03*
Y1315500D03*
X1453000D03*
Y1306500D03*
X1489999Y1403498D03*
Y1412498D03*
X1098500Y1222500D03*
Y1231500D03*
X1145000Y1268000D03*
Y1259000D03*
Y1391000D03*
Y1382000D03*
X1282500Y1391000D03*
Y1382000D03*
Y1268000D03*
Y1259000D03*
Y1148000D03*
Y1139000D03*
X1408500Y1219000D03*
Y1210000D03*
X1509500Y1465500D03*
Y1474500D03*
X1061000Y1416500D03*
Y1407500D03*
G54D251*
X1450300Y1421130D03*
Y1427430D03*
X1515280Y1073720D03*
Y1067420D03*
X1515340Y1082110D03*
Y1088410D03*
X1272499Y1035648D03*
Y1029348D03*
X1299999Y1035648D03*
Y1029348D03*
X1279500Y1035650D03*
Y1029350D03*
X1174500Y1067150D03*
Y1060850D03*
X1103530Y1041570D03*
Y1035270D03*
X1561000Y1082350D03*
Y1088650D03*
X1110000Y1037350D03*
Y1043650D03*
X1496500Y1254150D03*
Y1247850D03*
X1503500Y1266650D03*
Y1260350D03*
X1533000Y1253850D03*
Y1260150D03*
X1086700Y1262750D03*
Y1256450D03*
X1086671Y1229962D03*
Y1236262D03*
X1057000Y1250850D03*
Y1257150D03*
X1057500Y1229350D03*
Y1235650D03*
X1475500Y1093650D03*
Y1087350D03*
X1266000Y1010350D03*
Y1016650D03*
X1250500Y1025150D03*
Y1018850D03*
X1420500Y1146850D03*
Y1153150D03*
X1387500Y1157150D03*
Y1150850D03*
X1437500Y1305350D03*
Y1311650D03*
X1473000Y1308850D03*
Y1315150D03*
X1501000Y1398850D03*
Y1405150D03*
X1430500Y1315350D03*
Y1321650D03*
X1423000D03*
Y1315350D03*
X1450300Y1408600D03*
Y1414900D03*
X1481500Y1272650D03*
Y1266350D03*
X1561000Y1074150D03*
Y1067850D03*
X1487000Y1071650D03*
Y1065350D03*
X1482500Y1087350D03*
Y1093650D03*
X1184380Y1081370D03*
Y1075070D03*
X1184500Y1061350D03*
Y1067650D03*
X1293000Y1035650D03*
Y1029350D03*
X1460000Y1357850D03*
Y1364150D03*
X1286400Y1035650D03*
Y1029350D03*
X1062000Y1428850D03*
Y1435150D03*
X1069000Y1428850D03*
Y1435150D03*
X1071000Y1411850D03*
Y1418150D03*
G54D252*
X1480350Y1325500D03*
X1486650D03*
X1436850Y1331000D03*
X1443150D03*
X1526990Y1061024D03*
X1533290D03*
X1526930Y1077650D03*
X1533230D03*
X1496150Y1131000D03*
X1489850D03*
X1496150Y1112500D03*
X1489850D03*
X1496150Y1105500D03*
X1489850D03*
X1496150Y1138500D03*
X1489850D03*
X1559650Y1119500D03*
X1553350D03*
X1560150Y1137000D03*
X1553850D03*
X1170650Y1099000D03*
X1164350D03*
X1098590Y1069960D03*
X1104890D03*
X1102000Y1085970D03*
X1108300D03*
X1075850Y1087500D03*
X1082150D03*
X1164350Y1106000D03*
X1170650D03*
X1082150Y1103500D03*
X1075850D03*
X1104890Y1077460D03*
X1098590D03*
X1079150Y1026000D03*
X1072850D03*
X1242150Y1121500D03*
X1235850D03*
X1242150Y1075000D03*
X1235850D03*
X1108300Y1093970D03*
X1102000D03*
X1110650Y1109000D03*
X1104350D03*
X1235850Y1114498D03*
X1242150D03*
Y1055498D03*
X1235850D03*
X1141150Y1100500D03*
X1134850D03*
X1242150Y1065998D03*
X1235850D03*
X1075850Y1073000D03*
X1082150D03*
X1127150Y1064000D03*
X1120850D03*
X1223150Y1057000D03*
X1216850D03*
X1223150Y1070000D03*
X1216850D03*
X1223150Y1076500D03*
X1216850D03*
X1223150Y1063500D03*
X1216850D03*
X1242150Y1106998D03*
X1235850D03*
X1383150Y1082500D03*
X1376850D03*
X1198150Y1398000D03*
X1191850D03*
X1335650D03*
X1329350D03*
X1335650Y1275000D03*
X1329350D03*
X1525650Y1236500D03*
X1519350D03*
X1513350Y1224000D03*
X1519650D03*
X1521850Y1269000D03*
X1528150D03*
X1497650Y1274500D03*
X1491350D03*
X1461650Y1226000D03*
X1455350D03*
X1413850Y1163000D03*
X1420150D03*
X1406152Y1163259D03*
X1399852D03*
X1396650Y1130000D03*
X1390350D03*
X1387150Y1164000D03*
X1380850D03*
X1335650Y1154500D03*
X1329350D03*
X1198150D03*
X1191850D03*
X1197650Y1275000D03*
X1191350D03*
X1560650Y1174000D03*
X1554350D03*
X1524350Y1406500D03*
X1530650D03*
X1437350Y1408500D03*
X1443650D03*
X1134850Y1107000D03*
X1141150D03*
X1147850Y1100500D03*
X1154150D03*
X1330850Y1164500D03*
X1337150D03*
G54D253*
X1279272Y1292000D03*
X1275728D03*
X1171728Y1281000D03*
X1175272D03*
X1139000Y1325228D03*
Y1328772D03*
X1171728Y1307000D03*
X1175272D03*
X1132500Y1271772D03*
Y1268228D03*
X1171728Y1311500D03*
X1175272D03*
X1157000Y1271772D03*
Y1268228D03*
X1118272Y1292500D03*
X1114728D03*
X1151772Y1296500D03*
X1148228D03*
X1126256Y1298500D03*
X1122712D03*
X1118272Y1311000D03*
X1114728D03*
X1289272Y1305000D03*
X1285728D03*
X1145000Y1440228D03*
Y1443772D03*
X1141772Y1424000D03*
X1138228D03*
X1163728Y1421500D03*
X1167272D03*
X1309228Y1281000D03*
X1312772D03*
X1141772Y1419500D03*
X1138228D03*
X1145000Y1402772D03*
Y1399228D03*
X1151672Y1428000D03*
X1148128D03*
X1171728Y1404000D03*
X1175272D03*
X1134500Y1448228D03*
Y1451772D03*
X1171728Y1430000D03*
X1175272D03*
X1277000Y1325228D03*
Y1328772D03*
X1132500Y1394772D03*
Y1391228D03*
X1171728Y1434500D03*
X1175272D03*
X1157000Y1394772D03*
Y1391228D03*
X1118272Y1415500D03*
X1114728D03*
X1151672Y1419500D03*
X1148128D03*
X1126272Y1421500D03*
X1122728D03*
X1118272Y1434000D03*
X1114728D03*
X1309228Y1307000D03*
X1312772D03*
X1289272Y1185000D03*
X1285728D03*
X1282500Y1440228D03*
Y1443772D03*
X1279272Y1424000D03*
X1275728D03*
X1301728Y1421438D03*
X1305272D03*
X1279272Y1419500D03*
X1275728D03*
X1282500Y1402772D03*
Y1399228D03*
X1309228Y1161000D03*
X1312772D03*
X1289272Y1428000D03*
X1285728D03*
X1309228Y1404000D03*
X1312772D03*
X1277000Y1448228D03*
Y1451772D03*
X1309228Y1430000D03*
X1312772D03*
X1270000Y1394772D03*
Y1391228D03*
X1309228Y1434500D03*
X1312772D03*
X1294500Y1394772D03*
Y1391228D03*
X1277000Y1205228D03*
Y1208772D03*
X1255772Y1415500D03*
X1252228D03*
X1289272Y1419500D03*
X1285728D03*
X1263272Y1421558D03*
X1259728D03*
X1255772Y1434000D03*
X1252228D03*
X1309228Y1187000D03*
X1312772D03*
X1270000Y1151772D03*
Y1148228D03*
X1408500Y1268228D03*
Y1271772D03*
X1405272Y1252000D03*
X1401728D03*
X1427728Y1249500D03*
X1431272D03*
X1405272Y1247500D03*
X1401728D03*
X1408500Y1230772D03*
Y1227228D03*
X1309228Y1191500D03*
X1312772D03*
X1415272Y1256000D03*
X1411728D03*
X1435228Y1232000D03*
X1438772D03*
X1398000Y1276228D03*
Y1279772D03*
X1435228Y1258000D03*
X1438772D03*
X1396000Y1222772D03*
Y1219228D03*
X1435228Y1262500D03*
X1438772D03*
X1420500Y1222772D03*
Y1219228D03*
X1381772Y1243500D03*
X1378228D03*
X1415272Y1247500D03*
X1411728D03*
X1381782Y1252880D03*
X1378238D03*
X1294500Y1151772D03*
Y1148228D03*
X1381772Y1262000D03*
X1378228D03*
X1282500Y1317228D03*
Y1320772D03*
X1279272Y1301000D03*
X1275728D03*
X1301728Y1298500D03*
X1305272D03*
X1279272Y1296500D03*
X1275728D03*
X1282500Y1279772D03*
Y1276228D03*
X1270000Y1271772D03*
Y1268228D03*
X1309228Y1311500D03*
X1312772D03*
X1294500Y1271772D03*
Y1268228D03*
X1255772Y1292500D03*
X1252228D03*
X1289272Y1296500D03*
X1285728D03*
X1263272Y1298500D03*
X1259728D03*
X1255772Y1311000D03*
X1252228D03*
X1289272Y1301000D03*
X1285728D03*
X1309228Y1285500D03*
X1312772D03*
X1272000Y1325228D03*
Y1328772D03*
X1309228Y1302500D03*
X1312772D03*
X1282500Y1197228D03*
Y1200772D03*
Y1159772D03*
Y1156228D03*
X1145000Y1197228D03*
Y1200772D03*
X1141772Y1181000D03*
X1138228D03*
X1163728Y1178500D03*
X1167272D03*
X1141772Y1176500D03*
X1138228D03*
X1279272Y1181000D03*
X1275728D03*
X1145000Y1164228D03*
Y1167772D03*
X1151772Y1185000D03*
X1148228D03*
X1171728Y1161000D03*
X1175272D03*
X1134500Y1205228D03*
Y1208772D03*
X1171728Y1187000D03*
X1175272D03*
X1132500Y1151772D03*
Y1148228D03*
X1301728Y1178500D03*
X1305272D03*
X1171728Y1191500D03*
X1175272D03*
X1157000Y1151772D03*
Y1148228D03*
X1118272Y1172500D03*
X1114728D03*
X1151772Y1176500D03*
X1148228D03*
X1126272Y1178500D03*
X1122728D03*
X1118272Y1191000D03*
X1114728D03*
X1145000Y1317228D03*
Y1320772D03*
X1141772Y1301000D03*
X1138228D03*
X1163728Y1298500D03*
X1167272D03*
X1141772Y1296500D03*
X1138228D03*
X1145000Y1279772D03*
Y1276228D03*
X1151772Y1305000D03*
X1148228D03*
X1279272Y1176500D03*
X1275728D03*
X1282500Y1164228D03*
Y1167772D03*
X1151772Y1301000D03*
X1148228D03*
X1171728Y1285500D03*
X1175272D03*
X1134500Y1325228D03*
Y1328772D03*
X1171728Y1302500D03*
X1175272D03*
X1137000Y1271772D03*
Y1268228D03*
X1171728Y1316000D03*
X1175272D03*
X1152500Y1271772D03*
Y1268228D03*
X1118272Y1287500D03*
X1114728D03*
X1151772Y1292000D03*
X1148228D03*
X1130728Y1298500D03*
X1134272D03*
X1118272Y1306500D03*
X1114728D03*
X1145000Y1407228D03*
Y1410772D03*
Y1435772D03*
Y1432228D03*
X1141772Y1428000D03*
X1138228D03*
X1159272Y1421500D03*
X1155728D03*
X1141772Y1415000D03*
X1138228D03*
X1151672Y1424000D03*
X1148128D03*
X1171728Y1408500D03*
X1175272D03*
X1139500Y1448228D03*
Y1451772D03*
X1171728Y1425500D03*
X1175272D03*
X1137000Y1394772D03*
Y1391228D03*
X1171728Y1439000D03*
X1175272D03*
X1152500Y1394772D03*
Y1391228D03*
X1118272Y1410500D03*
X1114728D03*
X1151572Y1415000D03*
X1148028D03*
X1130728Y1421500D03*
X1134272D03*
X1118272Y1429500D03*
X1114728D03*
X1282500Y1407228D03*
Y1410772D03*
Y1435772D03*
Y1432228D03*
X1279272Y1428000D03*
X1275728D03*
X1297272Y1421418D03*
X1293728D03*
X1279272Y1415000D03*
X1275728D03*
X1289272Y1424000D03*
X1285728D03*
X1309228Y1408500D03*
X1312772D03*
X1272000Y1448228D03*
Y1451772D03*
X1309228Y1425500D03*
X1312772D03*
X1274500Y1394772D03*
Y1391228D03*
X1309228Y1439000D03*
X1312772D03*
X1290000Y1394772D03*
Y1391228D03*
X1255772Y1410500D03*
X1252228D03*
X1289272Y1415000D03*
X1285728D03*
X1267728Y1421548D03*
X1271272D03*
X1255772Y1429500D03*
X1252228D03*
X1282500Y1192772D03*
Y1189228D03*
X1408500Y1235228D03*
Y1238772D03*
Y1263772D03*
Y1260228D03*
X1405272Y1256000D03*
X1401728D03*
X1423272Y1249500D03*
X1419728D03*
X1405272Y1243000D03*
X1401728D03*
X1415272Y1252000D03*
X1411728D03*
X1435228Y1236500D03*
X1438772D03*
X1403000Y1276228D03*
Y1279772D03*
X1435228Y1253500D03*
X1438772D03*
X1400500Y1222772D03*
Y1219228D03*
X1435228Y1267000D03*
X1438772D03*
X1416000Y1222772D03*
Y1219228D03*
X1381772Y1238500D03*
X1378228D03*
X1415272Y1243000D03*
X1411728D03*
X1289272Y1176500D03*
X1285728D03*
X1393728Y1249500D03*
X1397272D03*
X1381772Y1257500D03*
X1378228D03*
X1282500Y1284228D03*
Y1287772D03*
X1263272Y1178500D03*
X1259728D03*
X1282500Y1312772D03*
Y1309228D03*
X1279272Y1305000D03*
X1275728D03*
X1297272Y1298500D03*
X1293728D03*
X1255772Y1191000D03*
X1252228D03*
X1289272Y1181000D03*
X1285728D03*
X1309228Y1165500D03*
X1312772D03*
X1279272Y1185000D03*
X1275728D03*
X1272000Y1205228D03*
Y1208772D03*
X1274500Y1271772D03*
Y1268228D03*
X1309228Y1316000D03*
X1312772D03*
X1290000Y1271772D03*
Y1268228D03*
X1255772Y1287500D03*
X1252228D03*
X1289272Y1292000D03*
X1285728D03*
X1267728Y1298500D03*
X1271272D03*
X1309228Y1182500D03*
X1312772D03*
X1255772Y1306500D03*
X1252228D03*
X1274500Y1151772D03*
Y1148228D03*
X1309228Y1196000D03*
X1312772D03*
X1290000Y1151772D03*
Y1148228D03*
X1255772Y1167500D03*
X1252228D03*
X1289272Y1172000D03*
X1285728D03*
X1267728Y1178500D03*
X1271272D03*
X1255772Y1186500D03*
X1252228D03*
X1145000Y1159772D03*
Y1156228D03*
Y1192772D03*
Y1189228D03*
X1141772Y1185000D03*
X1138228D03*
X1159272Y1178500D03*
X1155728D03*
X1141772Y1172000D03*
X1138228D03*
X1151772Y1181000D03*
X1148228D03*
X1171728Y1165500D03*
X1175272D03*
X1139000Y1205228D03*
Y1208772D03*
X1171728Y1182500D03*
X1175272D03*
X1297272Y1178500D03*
X1293728D03*
X1137000Y1151772D03*
Y1148228D03*
X1171728Y1196000D03*
X1175272D03*
X1152500Y1151772D03*
Y1148228D03*
X1118272Y1167500D03*
X1114728D03*
X1151772Y1172000D03*
X1148228D03*
X1130728Y1178500D03*
X1134272D03*
X1118272Y1186500D03*
X1114728D03*
X1279272Y1172000D03*
X1275728D03*
X1145000Y1284228D03*
Y1287772D03*
Y1312772D03*
Y1309228D03*
X1141772Y1305000D03*
X1138228D03*
X1159256Y1298500D03*
X1155712D03*
X1141772Y1292000D03*
X1138228D03*
X1255772Y1172500D03*
X1252228D03*
X1253728Y1038500D03*
X1257272D03*
X1247999Y1045272D03*
Y1041728D03*
X1278500Y1088272D03*
Y1084728D03*
X1317000Y1053272D03*
Y1049728D03*
X1299000Y1060228D03*
Y1063772D03*
X1310999Y1034270D03*
Y1030726D03*
X1240772Y1081000D03*
X1237228D03*
X1240772Y1100998D03*
X1237228D03*
X1240772Y1089500D03*
X1237228D03*
X1266228Y1062000D03*
X1269772D03*
X1266228Y1057500D03*
X1269772D03*
X1251772Y1096500D03*
X1248228D03*
X1267000Y1089272D03*
Y1085728D03*
X1289500Y1088272D03*
Y1084728D03*
X1262728Y1108000D03*
X1266272D03*
X1298772Y1077500D03*
X1295228D03*
X1322228Y1099000D03*
X1325772D03*
X1299000Y1088272D03*
Y1084728D03*
X1266500Y1096728D03*
Y1100272D03*
X1259000Y1113228D03*
Y1116772D03*
X1254772Y1108000D03*
X1251228D03*
X1322228Y1094500D03*
X1325772D03*
X1317000Y1045272D03*
Y1041728D03*
X1310228Y1108000D03*
X1313772D03*
X1305999Y1034270D03*
Y1030726D03*
X1294000Y1088272D03*
Y1084728D03*
G54D256*
X1165500Y1060870D03*
X1160500D03*
X1155500D03*
X1150500D03*
Y1082130D03*
X1155500D03*
X1160500D03*
X1165500D03*
G54D262*
X1228110Y1204000D03*
X1231890D03*
X1322890Y1285500D03*
X1319110D03*
X1228110Y1210000D03*
X1231890D03*
X1227610Y1330000D03*
X1231390D03*
X1227610Y1317500D03*
X1231390D03*
X1351060Y1225360D03*
X1354840D03*
X1185390Y1165500D03*
X1181610D03*
X1090110Y1210000D03*
X1093890D03*
X1090110Y1197500D03*
X1093890D03*
X1090110Y1214500D03*
X1093890D03*
X1185390Y1285500D03*
X1181610D03*
X1090110Y1334500D03*
X1093890D03*
X1090110Y1330000D03*
X1093890D03*
X1090110Y1317500D03*
X1093890D03*
X1228110Y1191500D03*
X1231890D03*
X1185390Y1408500D03*
X1181610D03*
X1090110Y1457500D03*
X1093890D03*
X1090110Y1453000D03*
X1093890D03*
X1228110Y1214500D03*
X1231890D03*
X1090110Y1440500D03*
X1093890D03*
X1227610Y1334500D03*
X1231390D03*
X1322890Y1408500D03*
X1319110D03*
X1227610Y1457500D03*
X1231390D03*
X1227610Y1453000D03*
X1231390D03*
X1227610Y1440500D03*
X1231390D03*
X1322110Y1061000D03*
X1325890D03*
X1322110Y1065500D03*
X1325890D03*
X1322110Y1085500D03*
X1325890D03*
X1322110Y1090000D03*
X1325890D03*
X1322110Y1076500D03*
X1325890D03*
X1322110Y1081000D03*
X1325890D03*
X1345110Y1075500D03*
X1348890D03*
X1345110Y1067500D03*
X1348890D03*
G54D273*
X1245500Y1246610D03*
Y1250390D03*
X1313000Y1246610D03*
Y1250390D03*
X1243500Y1350390D03*
Y1346610D03*
X1300000Y1246610D03*
Y1250390D03*
X1303000Y1126610D03*
Y1130390D03*
X1106000Y1230390D03*
Y1226610D03*
X1162500Y1126610D03*
Y1130390D03*
X1437500Y1197610D03*
Y1201390D03*
X1365920Y1278720D03*
Y1282500D03*
X1087500Y1223890D03*
Y1220110D03*
X1110500Y1230390D03*
Y1226610D03*
Y1350390D03*
Y1346610D03*
Y1473390D03*
Y1469610D03*
X1248000Y1473390D03*
Y1469610D03*
Y1350390D03*
Y1346610D03*
X1175500Y1126610D03*
Y1130390D03*
X1108000Y1126610D03*
Y1130390D03*
X1106000Y1350390D03*
Y1346610D03*
X1108000Y1246610D03*
Y1250390D03*
X1162500Y1246610D03*
Y1250390D03*
X1175500Y1246610D03*
Y1250390D03*
X1106000Y1473390D03*
Y1469610D03*
X1108000Y1369610D03*
Y1373390D03*
X1175500Y1369610D03*
Y1373390D03*
X1162500Y1369610D03*
Y1373390D03*
X1243500Y1473390D03*
Y1469610D03*
X1245500Y1369610D03*
Y1373390D03*
X1313000Y1369610D03*
Y1373390D03*
X1300000Y1369610D03*
Y1373390D03*
G54D281*
X1242346Y1129500D03*
X1235654D03*
X1093356Y1026230D03*
X1086664D03*
G54D287*
X1202500Y1014800D03*
X1192500D03*
X1182500D03*
X1172500D03*
X1162500D03*
X1152500D03*
X1142500D03*
G54D289*
X1524499Y1447789D03*
Y1459207D03*
X1470000Y1358291D03*
Y1369709D03*
X1449000Y1358291D03*
Y1369709D03*
G54D290*
X1528790Y1383498D03*
X1540208D03*
G54D291*
X1479339Y1061339D03*
X1476780D03*
X1474221D03*
X1471661D03*
Y1078661D03*
X1474221D03*
X1476780D03*
X1479339D03*
G54D299*
X1500060Y1063760D02*
Y1069631D01*
X1499040Y1070651*
X1493374*
X1491271Y1072753*
Y1082897*
X1536550Y1064900D02*
X1538200D01*
X1538900Y1065601*
X1540497*
X1541900Y1067004*
Y1084004*
X1553136Y1095239*
X1566397*
X1580657Y1109500*
X1587100*
X1588400Y1110800*
Y1112258*
X1590630Y1114488*
X1540000Y1066799D02*
X1540701Y1067501D01*
Y1084501*
X1552639Y1096438*
X1565900*
X1580161Y1110699*
X1586603*
X1587200Y1111296*
Y1112253*
X1540000Y1066799D02*
X1538700D01*
X1538020Y1067480*
X1536550*
X1493870Y1071849D02*
X1492470Y1073250D01*
Y1082400*
X1493870Y1071849D02*
X1499040D01*
X1500030Y1072839*
Y1078760*
X1491271Y1082897D02*
X1503773Y1095399D01*
X1541425*
X1550125Y1104099*
X1563503*
X1572865Y1113461*
Y1123990*
X1575995Y1127120*
X1592760*
X1492470Y1082400D02*
X1504270Y1094200D01*
X1541922*
X1550622Y1102900*
X1564000*
X1574064Y1112964*
Y1123484*
X1576430Y1125850*
X1592180*
X1501410Y1105000D02*
X1501000D01*
X1500500Y1105500*
X1496150*
X1510930Y1079460D02*
X1512690D01*
X1515340Y1082110*
X1515280Y1073720D02*
X1512120Y1076880D01*
X1512120*
X1510930*
X1496150Y1138500D02*
X1499910D01*
X1501410Y1140000*
X1496150Y1112500D02*
X1500700D01*
X1501430Y1113230*
Y1114980*
X1496150Y1131000D02*
X1500310D01*
X1500360Y1131050*
X1501430Y1114980D02*
X1501410Y1115000D01*
Y1130000D02*
X1500360Y1131050D01*
X1590236Y1122209D02*
X1592580Y1124553D01*
X1595748Y1122209D02*
X1593830Y1124127D01*
Y1126050*
X1592760Y1127120*
X1592580Y1124553D02*
Y1125450D01*
X1592180Y1125850*
X1587200Y1112253D02*
X1585118Y1114335D01*
X1612284Y1220473D02*
X1612162Y1220352D01*
X1610017Y1222497*
Y1223817*
X1608708Y1225126*
X1583742*
X1576100Y1232768*
Y1233900*
X1575000Y1235000*
X1612146Y1220335D02*
X1612162Y1220352D01*
X1608791Y1222490D02*
Y1223309D01*
X1608200Y1223900*
X1583050*
X1574990Y1231960*
X1574040*
X1573000Y1233000*
X1606772Y1220473D02*
X1608595Y1222296D01*
X1608597*
X1608791Y1222490*
G54D300*
X1589842Y1180749D02*
X1592341Y1183248D01*
Y1186873*
X1589842Y1180749D02*
X1572477D01*
X1550430Y1202797*
Y1230178*
X1517099Y1263509*
X1590338Y1179551D02*
X1593540Y1182752D01*
Y1186768*
X1595748Y1188977*
X1590338Y1179551D02*
X1571980D01*
X1549231Y1202300*
Y1229682*
X1515900Y1263012*
X1592341Y1186873D02*
X1590236Y1188977D01*
X1620346Y1199007D02*
Y1200170D01*
X1620115Y1200401*
X1568821*
X1559301Y1209921*
Y1251643*
X1554644Y1256300*
X1618189Y1196851D02*
X1620346Y1199007D01*
X1623701Y1196851D02*
X1621545Y1199007D01*
Y1200709*
X1620654Y1201600*
X1569318*
X1560500Y1210418*
Y1252140*
X1555100Y1257540*
X1540960*
X1540000Y1258500*
X1538500*
X1517099Y1263509D02*
Y1267299D01*
X1517100Y1267300*
Y1275599*
X1518000Y1276500*
Y1278000*
X1515900Y1263012D02*
Y1267796D01*
X1515901Y1267797*
Y1275599*
X1515000Y1276500*
Y1278000*
X1538500Y1255500D02*
X1540200D01*
X1541000Y1256300*
X1554644*
G54D303*
X1164800Y1429300D02*
X1169000Y1433500D01*
Y1445439*
X1169909Y1446348*
X1164800Y1429300D02*
X1162397D01*
X1160748Y1430949*
Y1437248D02*
X1162869D01*
X1164779Y1439158*
Y1444008*
X1160748Y1434098D02*
X1162323Y1435673D01*
X1164444*
X1166569Y1437798*
Y1449468*
X1163898Y1430949D02*
X1167900Y1434951D01*
Y1447779*
X1169389Y1449268*
X1091583Y1051800D02*
X1090700Y1050917D01*
Y1047183*
X1092583Y1045300*
X1113517*
X1115900Y1047683*
Y1050917*
X1115017Y1051800*
X1091583*
X1084000Y1015917D02*
X1085483Y1017400D01*
X1107717*
X1109200Y1015917*
Y1007383*
X1107717Y1005900*
X1085483*
X1084000Y1007383*
Y1015917*
X1090700Y1050699D02*
X1115900D01*
X1090700Y1050339D02*
X1115900D01*
X1090700Y1049979D02*
X1115900D01*
X1090700Y1049619D02*
X1115900D01*
X1090700Y1049259D02*
X1115900D01*
X1090700Y1048899D02*
X1115900D01*
X1090700Y1048539D02*
X1115900D01*
X1090700Y1048179D02*
X1115900D01*
X1090700Y1047819D02*
X1115900D01*
X1090842Y1051059D02*
X1115759D01*
X1090700Y1047459D02*
X1115676D01*
X1091202Y1051419D02*
X1115399D01*
X1090784Y1047099D02*
X1115316D01*
X1091562Y1051779D02*
X1115039D01*
X1091144Y1046739D02*
X1114956D01*
X1091504Y1046379D02*
X1114596D01*
X1091864Y1046019D02*
X1114236D01*
X1092224Y1045659D02*
X1113876D01*
X1599549Y1397914D02*
Y1407832D01*
G03X1599490Y1407974I-200J0*
G01X1597100Y1410364*
G03X1596958Y1410423I-142J-141*
G01X1562665*
G03X1562523Y1410364I-0J-200*
G01X1562258Y1410099*
G03X1562199Y1409957I141J-142*
G01Y1395664*
G03X1562258Y1395522I200J-0*
G01X1563023Y1394757*
G03X1563165Y1394698I142J141*
G01X1596333*
G03X1596475Y1394757I0J200*
G01X1599490Y1397772*
G03X1599549Y1397914I-141J142*
G01X1475800Y1353166D02*
Y1360834D01*
G03X1475741Y1360976I-200J0*
G01X1474976Y1361741*
G03X1474834Y1361800I-142J-141*
G01X1465400*
G03X1465200Y1361600I0J-200*
G01Y1350925*
X1465200D02*
G03X1465201Y1350904I200J-0D01*
G01Y1350556D02*
G03Y1350904I-1691J174D01*
G01Y1350556D02*
G03X1465200Y1350535I199J-21D01*
G01X1465200D02*
Y1349666D01*
G03X1465259Y1349524I200J-0*
G01X1467024Y1347759*
G03X1467166Y1347700I142J141*
G01X1470334*
G03X1470476Y1347759I0J200*
G01X1473728Y1351011*
G03X1473783Y1351113I-141J141*
G01X1475117Y1352447D02*
G03X1473783Y1351113I333J-1667D01*
G01X1475117Y1352447D02*
G03X1475219Y1352502I-39J196D01*
G01X1475741Y1353024*
G03X1475800Y1353166I-141J142*
G01X1454800Y1350166D02*
Y1360334D01*
G03X1454741Y1360476I-200J0*
G01X1452976Y1362241*
G03X1452834Y1362300I-142J-141*
G01X1443666*
G03X1443524Y1362241I-0J-200*
G01X1443259Y1361976*
G03X1443200Y1361834I141J-142*
G01Y1349666*
G03X1443259Y1349524I200J-0*
G01X1445524Y1347259*
G03X1445666Y1347200I142J141*
G01X1451834*
G03X1451976Y1347259I0J200*
G01X1454741Y1350024*
G03X1454800Y1350166I-141J142*
G01X1454550Y1366916D02*
Y1375834D01*
G03X1454491Y1375976I-200J0*
G01X1452851Y1377616*
G03X1452709Y1377675I-142J-141*
G01X1441166*
G03X1441024Y1377616I-0J-200*
G01X1439571Y1376163*
G03X1439513Y1376022I142J-141*
G01Y1366666*
G03X1439571Y1366524I200J-0*
G01X1439931Y1366165*
G03X1440072Y1366106I141J141*
G01X1444131*
G03X1444300Y1366200I-0J200*
G01X1453834*
G03X1453976Y1366259I0J200*
G01X1454491Y1366774*
G03X1454550Y1366916I-141J142*
G01X1599464Y1416469D02*
Y1423667D01*
G03X1599405Y1423809I-200J0*
G01X1596475Y1426739*
G03X1596333Y1426798I-142J-141*
G01X1562309*
G03X1562109Y1426598I0J-200*
G01Y1414914*
G03X1562168Y1414772I200J-0*
G01X1563083Y1413857*
G03X1563225Y1413798I142J141*
G01X1596793*
G03X1596935Y1413857I0J200*
G01X1599405Y1416327*
G03X1599464Y1416469I-141J142*
G01X1562199Y1407657D02*
X1599549D01*
X1562199Y1407297D02*
X1599549D01*
X1562199Y1406937D02*
X1599549D01*
X1562199Y1406577D02*
X1599549D01*
X1562199Y1406217D02*
X1599549D01*
X1562199Y1405857D02*
X1599549D01*
X1562199Y1405497D02*
X1599549D01*
X1562199Y1405137D02*
X1599549D01*
X1562199Y1404777D02*
X1599549D01*
X1562199Y1404417D02*
X1599549D01*
X1562199Y1404057D02*
X1599549D01*
X1562199Y1403697D02*
X1599549D01*
X1562199Y1403337D02*
X1599549D01*
X1562199Y1402977D02*
X1599549D01*
X1562199Y1402617D02*
X1599549D01*
X1562199Y1402257D02*
X1599549D01*
X1562199Y1401897D02*
X1599549D01*
X1562199Y1401537D02*
X1599549D01*
X1562199Y1401177D02*
X1599549D01*
X1562199Y1400817D02*
X1599549D01*
X1562199Y1400457D02*
X1599549D01*
X1562199Y1400097D02*
X1599549D01*
X1562199Y1399737D02*
X1599549D01*
X1562199Y1399377D02*
X1599549D01*
X1562199Y1399017D02*
X1599549D01*
X1562199Y1398657D02*
X1599549D01*
X1562199Y1398297D02*
X1599549D01*
X1562199Y1397937D02*
X1599549D01*
X1562199Y1408017D02*
X1599448D01*
X1562199Y1397577D02*
X1599295D01*
X1562199Y1408377D02*
X1599088D01*
X1562199Y1397217D02*
X1598935D01*
X1562199Y1408737D02*
X1598728D01*
X1562199Y1396857D02*
X1598575D01*
X1562199Y1409097D02*
X1598368D01*
X1562199Y1396497D02*
X1598215D01*
X1562199Y1409457D02*
X1598008D01*
X1562199Y1396137D02*
X1597855D01*
X1562199Y1409817D02*
X1597648D01*
X1562199Y1395777D02*
X1597495D01*
X1562336Y1410177D02*
X1597288D01*
X1562363Y1395417D02*
X1597135D01*
X1562723Y1395057D02*
X1596775D01*
X1465200Y1360659D02*
X1475800D01*
X1465200Y1360299D02*
X1475800D01*
X1465200Y1359939D02*
X1475800D01*
X1465200Y1359579D02*
X1475800D01*
X1465200Y1359219D02*
X1475800D01*
X1465200Y1358859D02*
X1475800D01*
X1465200Y1358499D02*
X1475800D01*
X1465200Y1358139D02*
X1475800D01*
X1465200Y1357779D02*
X1475800D01*
X1465200Y1357419D02*
X1475800D01*
X1465200Y1357059D02*
X1475800D01*
X1465200Y1356699D02*
X1475800D01*
X1465200Y1356339D02*
X1475800D01*
X1465200Y1355979D02*
X1475800D01*
X1465200Y1355619D02*
X1475800D01*
X1465200Y1355259D02*
X1475800D01*
X1465200Y1354899D02*
X1475800D01*
X1465200Y1354539D02*
X1475800D01*
X1465200Y1354179D02*
X1475800D01*
X1465200Y1353819D02*
X1475800D01*
X1465200Y1353459D02*
X1475800D01*
X1465200Y1353099D02*
X1475788D01*
X1465200Y1361019D02*
X1475699D01*
X1465200Y1352739D02*
X1475456D01*
X1465200Y1361379D02*
X1475339D01*
X1465256Y1361739D02*
X1474979D01*
X1465200Y1352379D02*
X1474872D01*
X1465200Y1352019D02*
X1474286D01*
X1465200Y1351659D02*
X1473995D01*
X1465200Y1351299D02*
X1473831D01*
X1465200Y1350939D02*
X1473656D01*
X1465203Y1350579D02*
X1473296D01*
X1465200Y1350219D02*
X1472936D01*
X1465200Y1349859D02*
X1472576D01*
X1465284Y1349499D02*
X1472216D01*
X1465644Y1349139D02*
X1471856D01*
X1466004Y1348779D02*
X1471496D01*
X1466364Y1348419D02*
X1471136D01*
X1466724Y1348059D02*
X1470776D01*
X1443200Y1360159D02*
X1454800D01*
X1443200Y1359799D02*
X1454800D01*
X1443200Y1359439D02*
X1454800D01*
X1443200Y1359079D02*
X1454800D01*
X1443200Y1358719D02*
X1454800D01*
X1443200Y1358359D02*
X1454800D01*
X1443200Y1357999D02*
X1454800D01*
X1443200Y1357639D02*
X1454800D01*
X1443200Y1357279D02*
X1454800D01*
X1443200Y1356919D02*
X1454800D01*
X1443200Y1356559D02*
X1454800D01*
X1443200Y1356199D02*
X1454800D01*
X1443200Y1355839D02*
X1454800D01*
X1443200Y1355479D02*
X1454800D01*
X1443200Y1355119D02*
X1454800D01*
X1443200Y1354759D02*
X1454800D01*
X1443200Y1354399D02*
X1454800D01*
X1443200Y1354039D02*
X1454800D01*
X1443200Y1353679D02*
X1454800D01*
X1443200Y1353319D02*
X1454800D01*
X1443200Y1352959D02*
X1454800D01*
X1443200Y1352599D02*
X1454800D01*
X1443200Y1352239D02*
X1454800D01*
X1443200Y1351879D02*
X1454800D01*
X1443200Y1351519D02*
X1454800D01*
X1443200Y1351159D02*
X1454800D01*
X1443200Y1350799D02*
X1454800D01*
X1443200Y1350439D02*
X1454800D01*
X1443200Y1350079D02*
X1454780D01*
X1443200Y1360519D02*
X1454699D01*
X1443200Y1349719D02*
X1454436D01*
X1443200Y1360879D02*
X1454339D01*
X1443424Y1349359D02*
X1454076D01*
X1443200Y1361239D02*
X1453979D01*
X1443784Y1348999D02*
X1453716D01*
X1443200Y1361599D02*
X1453619D01*
X1444144Y1348639D02*
X1453356D01*
X1443243Y1361959D02*
X1453259D01*
X1444504Y1348279D02*
X1452996D01*
X1444864Y1347919D02*
X1452636D01*
X1445224Y1347559D02*
X1452276D01*
X1439513Y1375825D02*
X1454550D01*
X1439513Y1375465D02*
X1454550D01*
X1439513Y1375105D02*
X1454550D01*
X1439513Y1374745D02*
X1454550D01*
X1439513Y1374385D02*
X1454550D01*
X1439513Y1374025D02*
X1454550D01*
X1439513Y1373665D02*
X1454550D01*
X1439513Y1373305D02*
X1454550D01*
X1439513Y1372945D02*
X1454550D01*
X1439513Y1372585D02*
X1454550D01*
X1439513Y1372225D02*
X1454550D01*
X1439513Y1371865D02*
X1454550D01*
X1439513Y1371505D02*
X1454550D01*
X1439513Y1371145D02*
X1454550D01*
X1439513Y1370785D02*
X1454550D01*
X1439513Y1370425D02*
X1454550D01*
X1439513Y1370065D02*
X1454550D01*
X1439513Y1369705D02*
X1454550D01*
X1439513Y1369345D02*
X1454550D01*
X1439513Y1368985D02*
X1454550D01*
X1439513Y1368625D02*
X1454550D01*
X1439513Y1368265D02*
X1454550D01*
X1439513Y1367905D02*
X1454550D01*
X1439513Y1367545D02*
X1454550D01*
X1439513Y1367185D02*
X1454550D01*
X1439513Y1366825D02*
X1454528D01*
X1439593Y1376185D02*
X1454282D01*
X1439630Y1366465D02*
X1454182D01*
X1439953Y1376545D02*
X1453922D01*
X1440313Y1376905D02*
X1453562D01*
X1440673Y1377265D02*
X1453202D01*
X1441033Y1377625D02*
X1452842D01*
X1562109Y1423517D02*
X1599464D01*
X1562109Y1423157D02*
X1599464D01*
X1562109Y1422797D02*
X1599464D01*
X1562109Y1422437D02*
X1599464D01*
X1562109Y1422077D02*
X1599464D01*
X1562109Y1421717D02*
X1599464D01*
X1562109Y1421357D02*
X1599464D01*
X1562109Y1420997D02*
X1599464D01*
X1562109Y1420637D02*
X1599464D01*
X1562109Y1420277D02*
X1599464D01*
X1562109Y1419917D02*
X1599464D01*
X1562109Y1419557D02*
X1599464D01*
X1562109Y1419197D02*
X1599464D01*
X1562109Y1418837D02*
X1599464D01*
X1562109Y1418477D02*
X1599464D01*
X1562109Y1418117D02*
X1599464D01*
X1562109Y1417757D02*
X1599464D01*
X1562109Y1417397D02*
X1599464D01*
X1562109Y1417037D02*
X1599464D01*
X1562109Y1416677D02*
X1599464D01*
X1562109Y1416317D02*
X1599395D01*
X1562109Y1423877D02*
X1599338D01*
X1562109Y1415957D02*
X1599035D01*
X1562109Y1424237D02*
X1598978D01*
X1562109Y1415597D02*
X1598675D01*
X1562109Y1424597D02*
X1598618D01*
X1562109Y1415237D02*
X1598315D01*
X1562109Y1424957D02*
X1598258D01*
X1562112Y1414877D02*
X1597955D01*
X1562109Y1425317D02*
X1597898D01*
X1562423Y1414517D02*
X1597595D01*
X1562109Y1425677D02*
X1597538D01*
X1562783Y1414157D02*
X1597235D01*
X1562109Y1426037D02*
X1597178D01*
X1562109Y1426397D02*
X1596818D01*
X1562187Y1426757D02*
X1596455D01*
X1085200Y1017117D02*
X1108000D01*
X1084800Y1016717D02*
X1108400D01*
X1084400Y1016317D02*
X1108800D01*
X1084000Y1015917D02*
X1109200D01*
X1084000Y1015517D02*
X1109200D01*
X1084000Y1015117D02*
X1109200D01*
X1084000Y1014717D02*
X1109200D01*
X1084000Y1014317D02*
X1109200D01*
X1084000Y1013917D02*
X1109200D01*
X1084000Y1013517D02*
X1109200D01*
X1084000Y1013117D02*
X1109200D01*
X1084000Y1012717D02*
X1109200D01*
X1084000Y1012317D02*
X1109200D01*
X1084000Y1011917D02*
X1109200D01*
X1084000Y1011517D02*
X1109200D01*
X1084000Y1011117D02*
X1109200D01*
X1084000Y1010717D02*
X1109200D01*
X1084000Y1010317D02*
X1109200D01*
X1084000Y1009917D02*
X1109200D01*
X1084000Y1009517D02*
X1109200D01*
X1084000Y1009117D02*
X1109200D01*
X1084000Y1008717D02*
X1109200D01*
X1084000Y1008317D02*
X1109200D01*
X1084000Y1007917D02*
X1109200D01*
X1084000Y1007517D02*
X1109200D01*
X1084266Y1007117D02*
X1108934D01*
X1084666Y1006717D02*
X1108534D01*
X1085066Y1006317D02*
X1108134D01*
X1085466Y1005917D02*
X1107734D01*
X1084000Y1007383D02*
Y1015917D01*
X1084400Y1006983D02*
Y1016317D01*
X1084800Y1006583D02*
Y1016717D01*
X1085200Y1006183D02*
Y1017117D01*
X1085600Y1005900D02*
Y1017400D01*
X1086000Y1005900D02*
Y1017400D01*
X1086400Y1005900D02*
Y1017400D01*
X1086800Y1005900D02*
Y1017400D01*
X1087200Y1005900D02*
Y1017400D01*
X1087600Y1005900D02*
Y1017400D01*
X1088000Y1005900D02*
Y1017400D01*
X1088400Y1005900D02*
Y1017400D01*
X1088800Y1005900D02*
Y1017400D01*
X1089200Y1005900D02*
Y1017400D01*
X1089600Y1005900D02*
Y1017400D01*
X1090000Y1005900D02*
Y1017400D01*
X1090400Y1005900D02*
Y1017400D01*
X1090800Y1005900D02*
Y1017400D01*
X1091200Y1005900D02*
Y1017400D01*
X1091600Y1005900D02*
Y1017400D01*
X1092000Y1005900D02*
Y1017400D01*
X1092400Y1005900D02*
Y1017400D01*
X1092800Y1005900D02*
Y1017400D01*
X1093200Y1005900D02*
Y1017400D01*
X1093600Y1005900D02*
Y1017400D01*
X1094000Y1005900D02*
Y1017400D01*
X1094400Y1005900D02*
Y1017400D01*
X1094800Y1005900D02*
Y1017400D01*
X1095200Y1005900D02*
Y1017400D01*
X1095600Y1005900D02*
Y1017400D01*
X1096000Y1005900D02*
Y1017400D01*
X1096400Y1005900D02*
Y1017400D01*
X1096800Y1005900D02*
Y1017400D01*
X1097200Y1005900D02*
Y1017400D01*
X1097600Y1005900D02*
Y1017400D01*
X1098000Y1005900D02*
Y1017400D01*
X1098400Y1005900D02*
Y1017400D01*
X1098800Y1005900D02*
Y1017400D01*
X1099200Y1005900D02*
Y1017400D01*
X1099600Y1005900D02*
Y1017400D01*
X1100000Y1005900D02*
Y1017400D01*
X1100400Y1005900D02*
Y1017400D01*
X1100800Y1005900D02*
Y1017400D01*
X1101200Y1005900D02*
Y1017400D01*
X1101600Y1005900D02*
Y1017400D01*
X1102000Y1005900D02*
Y1017400D01*
X1102400Y1005900D02*
Y1017400D01*
X1102800Y1005900D02*
Y1017400D01*
X1103200Y1005900D02*
Y1017400D01*
X1103600Y1005900D02*
Y1017400D01*
X1104000Y1005900D02*
Y1017400D01*
X1104400Y1005900D02*
Y1017400D01*
X1104800Y1005900D02*
Y1017400D01*
X1105200Y1005900D02*
Y1017400D01*
X1105600Y1005900D02*
Y1017400D01*
X1106000Y1005900D02*
Y1017400D01*
X1106400Y1005900D02*
Y1017400D01*
X1106800Y1005900D02*
Y1017400D01*
X1107200Y1005900D02*
Y1017400D01*
X1107600Y1005900D02*
Y1017400D01*
X1108000Y1006183D02*
Y1017117D01*
X1108400Y1006583D02*
Y1016717D01*
X1108800Y1006983D02*
Y1016317D01*
G54D304*
X1093000Y1036882D03*
Y1047118D03*
G54D305*
X1079618Y1038000D03*
X1069382D03*
X1370882Y1093500D03*
X1381118D03*
G54D306*
X1226000Y1115654D03*
Y1122346D03*
X1257870Y1013904D03*
Y1020596D03*
G54D307*
X1284315Y1021240D03*
Y1017500D03*
Y1013760D03*
X1273685D03*
Y1017500D03*
Y1021240D03*
G54D308*
X1628819Y1188977D03*
X1629213Y1196851D03*
X1628819Y1204725D03*
X1629213Y1212599D03*
X1628819Y1220473D03*
X1629213Y1228347D03*
X1628819Y1236221D03*
X1629213Y1244095D03*
X1623307Y1188977D03*
X1623701Y1196851D03*
X1623307Y1204725D03*
X1623701Y1212599D03*
X1623307Y1220473D03*
X1623701Y1228347D03*
X1623307Y1236221D03*
X1623701Y1244095D03*
X1617795Y1188977D03*
X1618189Y1196851D03*
X1617795Y1204725D03*
X1618189Y1212599D03*
X1617795Y1220473D03*
X1618189Y1228347D03*
X1617795Y1236221D03*
X1618189Y1244095D03*
X1612284Y1188977D03*
X1612677Y1196851D03*
X1612284Y1204725D03*
X1612677Y1212599D03*
X1612284Y1220473D03*
X1612677Y1228347D03*
X1612284Y1236221D03*
X1612677Y1244095D03*
X1606772Y1188977D03*
X1607165Y1196851D03*
X1606772Y1204725D03*
X1607165Y1212599D03*
X1606772Y1220473D03*
X1607165Y1228347D03*
X1606772Y1236221D03*
X1607165Y1244095D03*
X1601260Y1188977D03*
X1601654Y1196851D03*
X1601260Y1204725D03*
X1601654Y1212599D03*
X1601260Y1220473D03*
X1601654Y1228347D03*
X1601260Y1236221D03*
X1601654Y1244095D03*
X1595748Y1188977D03*
X1596142Y1196851D03*
X1595748Y1204725D03*
X1596142Y1212599D03*
X1595748Y1220473D03*
X1596142Y1228347D03*
X1595748Y1236221D03*
X1596142Y1244095D03*
X1590236Y1188977D03*
X1590630Y1196851D03*
X1590236Y1204725D03*
X1590630Y1212599D03*
X1590236Y1220473D03*
X1590630Y1228347D03*
X1590236Y1236221D03*
X1590630Y1244095D03*
X1584725Y1188977D03*
X1585118Y1196851D03*
X1584725Y1204725D03*
X1585118Y1212599D03*
X1584725Y1220473D03*
X1585118Y1228347D03*
X1584725Y1236221D03*
X1585118Y1244095D03*
X1628819Y1090866D03*
X1629213Y1098740D03*
X1628819Y1106614D03*
X1629213Y1114488D03*
X1628819Y1122362D03*
X1629213Y1130236D03*
X1628819Y1138110D03*
X1629213Y1145984D03*
X1623307Y1090866D03*
X1623701Y1098740D03*
X1623307Y1106614D03*
X1623701Y1114488D03*
X1623307Y1122362D03*
X1623701Y1130236D03*
X1623307Y1138110D03*
X1623701Y1145984D03*
X1617795Y1090866D03*
X1618189Y1098740D03*
X1617795Y1106614D03*
X1618189Y1114488D03*
X1617795Y1122362D03*
X1618189Y1130236D03*
X1617795Y1138110D03*
X1618189Y1145984D03*
X1612284Y1090866D03*
X1612677Y1098740D03*
X1612284Y1106614D03*
X1612677Y1114488D03*
X1612284Y1122362D03*
X1612677Y1130236D03*
X1612284Y1138110D03*
X1612677Y1145984D03*
X1606772Y1090866D03*
X1607165Y1098740D03*
X1606772Y1106614D03*
X1607165Y1114488D03*
X1606772Y1122362D03*
X1607165Y1130236D03*
X1606772Y1138110D03*
X1607165Y1145984D03*
X1601260Y1090866D03*
X1601654Y1098740D03*
X1601260Y1106614D03*
X1601654Y1114488D03*
X1601260Y1122362D03*
X1601654Y1130236D03*
X1601260Y1138110D03*
X1601654Y1145984D03*
X1595748Y1090866D03*
X1596142Y1098740D03*
X1595748Y1106614D03*
X1596142Y1114488D03*
X1595748Y1122362D03*
X1596142Y1130236D03*
X1595748Y1138110D03*
X1596142Y1145984D03*
X1590236Y1090866D03*
X1590630Y1098740D03*
X1590236Y1106614D03*
X1590630Y1114488D03*
X1590236Y1122362D03*
X1590630Y1130236D03*
X1590236Y1138110D03*
X1590630Y1145984D03*
X1584725Y1090866D03*
X1585118Y1098740D03*
X1584725Y1106614D03*
X1585118Y1114488D03*
X1584725Y1122362D03*
X1585118Y1130236D03*
X1584725Y1138110D03*
X1585118Y1145984D03*
G54D382*
X1434331Y1483937D03*
X1406772Y1016220D03*
G54D390*
X1537685Y1459500D03*
X1548315D03*
G74*
X0Y0D02*
M02*
