*
*
G04 PADS 9.5 Build Number: 522968 generated Gerber (RS-274-X) file*
G04 PC Version=2.1*
*
%IN "IOP-AI1_REVA.pcb"*%
*
%MOIN*%
*
%FSLAX35Y35*%
*
*
*
*
G04 PC Standard Apertures*
*
*
G04 Thermal Relief Aperture macro.*
%AMTER*
1,1,$1,0,0*
1,0,$1-$2,0,0*
21,0,$3,$4,0,0,45*
21,0,$3,$4,0,0,135*
%
*
*
G04 Annular Aperture macro.*
%AMANN*
1,1,$1,0,0*
1,0,$2,0,0*
%
*
*
G04 Odd Aperture macro.*
%AMODD*
1,1,$1,0,0*
1,0,$1-0.005,0,0*
%
*
*
G04 PC Custom Aperture Macros*
*
*
*
*
*
*
G04 PC Aperture Table*
*
%ADD010C,0.001*%
%ADD013C,0.03937*%
%ADD029C,0.05906*%
%ADD030C,0.07874*%
%ADD052C,0.06*%
%ADD053C,0.19685*%
%ADD068C,0.04*%
%ADD077C,0.02*%
%ADD079C,0.096*%
%ADD085C,0.01*%
%ADD086C,0.008*%
%ADD087C,0.006*%
%ADD088C,0.025*%
%ADD090C,0.012*%
%ADD091C,0.015*%
%ADD092C,0.03*%
%ADD097C,0.024*%
%ADD103C,0.005*%
%ADD174R,0.065X0.065*%
%ADD175C,0.065*%
%ADD248C,0.07*%
%ADD258C,0.11*%
%ADD293C,0.08268*%
%ADD301C,0.004*%
%ADD449R,0.05512X0.05512*%
%ADD450C,0.05512*%
%ADD454C,0.14*%
*
*
*
*
G04 PC Circuitry*
G04 Layer Name IOP-AI1_REVA.pcb - circuitry*
%LPD*%
*
*
G04 PC Custom Flashes*
G04 Layer Name IOP-AI1_REVA.pcb - flashes*
%LPD*%
*
*
G04 PC Circuitry*
G04 Layer Name IOP-AI1_REVA.pcb - circuitry*
%LPD*%
*
G54D10*
G54D13*
G01X1628800Y1090900D03*
X1629194Y1098774D03*
X1628800Y1106648D03*
X1629194Y1114522D03*
X1628800Y1122396D03*
X1629194Y1130270D03*
X1628800Y1138144D03*
X1629194Y1146018D03*
X1623288Y1090900D03*
X1623682Y1098774D03*
X1623288Y1106648D03*
X1623682Y1114522D03*
X1623288Y1122396D03*
X1623682Y1130270D03*
X1623288Y1138144D03*
X1623682Y1146018D03*
X1617777Y1090900D03*
X1618170Y1098774D03*
X1617777Y1106648D03*
X1618170Y1114522D03*
X1617777Y1122396D03*
X1618170Y1130270D03*
X1617777Y1138144D03*
X1618170Y1146018D03*
X1612265Y1090900D03*
X1612659Y1098774D03*
X1612265Y1106648D03*
X1612659Y1114522D03*
X1612265Y1122396D03*
X1612659Y1130270D03*
X1612265Y1138144D03*
X1612659Y1146018D03*
X1606753Y1090900D03*
X1607147Y1098774D03*
X1606753Y1106648D03*
X1607147Y1114522D03*
X1606753Y1122396D03*
X1607147Y1130270D03*
X1606753Y1138144D03*
X1607147Y1146018D03*
X1601241Y1090900D03*
X1601635Y1098774D03*
X1601241Y1106648D03*
X1601635Y1114522D03*
X1601241Y1122396D03*
X1601635Y1130270D03*
X1601241Y1138144D03*
X1601635Y1146018D03*
X1595729Y1090900D03*
X1596123Y1098774D03*
X1595729Y1106648D03*
X1596123Y1114522D03*
X1595729Y1122396D03*
X1596123Y1130270D03*
X1595729Y1138144D03*
X1596123Y1146018D03*
X1590218Y1090900D03*
X1590611Y1098774D03*
X1590218Y1106648D03*
X1590611Y1114522D03*
X1590218Y1122396D03*
X1590611Y1130270D03*
X1590218Y1138144D03*
X1590611Y1146018D03*
X1584706Y1090900D03*
X1585099Y1098774D03*
X1584706Y1106648D03*
X1585099Y1114522D03*
X1584706Y1122396D03*
X1585099Y1130270D03*
X1584706Y1138144D03*
X1585099Y1146018D03*
X1629000Y1189000D03*
X1629394Y1196874D03*
X1629000Y1204748D03*
X1629394Y1212622D03*
X1629000Y1220496D03*
X1629394Y1228370D03*
X1629000Y1236244D03*
X1629394Y1244118D03*
X1623488Y1189000D03*
X1623882Y1196874D03*
X1623488Y1204748D03*
X1623882Y1212622D03*
X1623488Y1220496D03*
X1623882Y1228370D03*
X1623488Y1236244D03*
X1623882Y1244118D03*
X1617977Y1189000D03*
X1618370Y1196874D03*
X1617977Y1204748D03*
X1618370Y1212622D03*
X1617977Y1220496D03*
X1618370Y1228370D03*
X1617977Y1236244D03*
X1618370Y1244118D03*
X1612465Y1189000D03*
X1612859Y1196874D03*
X1612465Y1204748D03*
X1612859Y1212622D03*
X1612465Y1220496D03*
X1612859Y1228370D03*
X1612465Y1236244D03*
X1612859Y1244118D03*
X1606953Y1189000D03*
X1607347Y1196874D03*
X1606953Y1204748D03*
X1607347Y1212622D03*
X1606953Y1220496D03*
X1607347Y1228370D03*
X1606953Y1236244D03*
X1607347Y1244118D03*
X1601441Y1189000D03*
X1601835Y1196874D03*
X1601441Y1204748D03*
X1601835Y1212622D03*
X1601441Y1220496D03*
X1601835Y1228370D03*
X1601441Y1236244D03*
X1601835Y1244118D03*
X1595929Y1189000D03*
X1596323Y1196874D03*
X1595929Y1204748D03*
X1596323Y1212622D03*
X1595929Y1220496D03*
X1596323Y1228370D03*
X1595929Y1236244D03*
X1596323Y1244118D03*
X1590418Y1189000D03*
X1590811Y1196874D03*
X1590418Y1204748D03*
X1590811Y1212622D03*
X1590418Y1220496D03*
X1590811Y1228370D03*
X1590418Y1236244D03*
X1590811Y1244118D03*
X1584906Y1189000D03*
X1585299Y1196874D03*
X1584906Y1204748D03*
X1585299Y1212622D03*
X1584906Y1220496D03*
X1585299Y1228370D03*
X1584906Y1236244D03*
X1585299Y1244118D03*
G54D29*
X1578032Y1421535D03*
X1585906D03*
X1593780D03*
X1578032Y1397913D03*
X1585906D03*
X1593780D03*
X1609528Y1421535D03*
Y1397913D03*
X1617402Y1421535D03*
X1625276D03*
X1617402Y1397913D03*
X1625276D03*
X1578032Y1374291D03*
X1585906D03*
X1593780D03*
X1609528D03*
X1617402D03*
X1625276D03*
G54D30*
X1589843Y1386102D03*
G54D52*
X1055118Y1181417D03*
Y1171417D03*
Y1161417D03*
Y1151417D03*
Y1141417D03*
X1016457Y1340276D03*
X1026457D03*
X1036457D03*
X1046457D03*
X1016457Y1316654D03*
X1026457D03*
X1036457D03*
X1046457D03*
G54D53*
X1617402Y1459055D03*
X1595236D03*
X1569173D03*
G54D68*
X1586500Y1269000D03*
Y1263000D03*
Y1275000D03*
X1119100Y1476000D03*
X1125440Y1469070D03*
G54D77*
X1298740Y1052090D02*
X1304704Y1046126D01*
X1311579*
X1315079Y1049626*
Y1063079*
X1320626Y1068626*
X1043079Y1018126D03*
X1068900Y1059700D03*
X1093640Y1069600D03*
X1074579Y1059626D03*
X1063830Y1046290D03*
X1069579Y1055626D03*
X1095320Y1057960D03*
X1094530Y1054970D03*
X1069579Y1038626D03*
X1094579Y1045126D03*
X1080579Y1050626D03*
X1041079Y1028126D03*
X1038579Y1038126D03*
X1036579Y1048126D03*
X1034579Y1058126D03*
X1033079Y1068126D03*
X1031579Y1078126D03*
X1030079Y1088126D03*
X1028579Y1098126D03*
X1087079Y1050626D03*
X1095079Y1048626D03*
X1066360Y1038180D03*
X1083079Y1051626D03*
X1169174Y1058278D03*
X1137700Y1066100D03*
X1177200Y1078000D03*
X1176900Y1062200D03*
X1165200Y1054200D03*
X1165000Y1058300D03*
X1157500Y1054300D03*
X1141600Y1062200D03*
X1173100Y1058300D03*
X1149500Y1054300D03*
X1147300Y1049300D03*
X1137700Y1070100D03*
X1141560Y1054170D03*
X1120700Y1053700D03*
X1173200Y1093800D03*
X1111630Y1052160D03*
X1145552Y1085837D03*
X1104060Y1054500D03*
X1177048Y1085837D03*
X1145600Y1054200D03*
X1110579Y1049626D03*
X1143300Y1049030D03*
X1116579Y1049626D03*
X1153600Y1058300D03*
X1141600Y1058100D03*
X1137600Y1074100D03*
X1141615Y1097648D03*
Y1093711D03*
X1145300Y1062200D03*
X1157474Y1058400D03*
X1137700Y1054300D03*
X1137600Y1062100D03*
X1145700Y1066200D03*
X1145600Y1058100D03*
X1157400Y1097800D03*
X1171500Y1030700D03*
X1177100Y1097600D03*
X1177000Y1101600D03*
X1173100Y1054400D03*
X1165237Y1050404D03*
X1173111D03*
X1137700Y1089700D03*
X1137678Y1097648D03*
Y1101585D03*
X1137700Y1078200D03*
X1149500Y1062400D03*
X1137678Y1093711D03*
X1169000Y1054400D03*
X1141615Y1101585D03*
X1141700Y1074200D03*
X1153600Y1054300D03*
X1152000Y1049100D03*
X1155400Y1049300D03*
X1149600Y1058400D03*
X1151490Y1036410D03*
X1153500Y1093800D03*
X1149489Y1089774D03*
X1165237Y1085837D03*
Y1089774D03*
X1157363D03*
X1153426Y1085837D03*
X1157400Y1078100D03*
X1169174Y1077963D03*
X1153426Y1074026D03*
X1157200Y1074100D03*
X1165237Y1074026D03*
X1169300Y1070200D03*
X1173300Y1074000D03*
X1133700Y1054300D03*
X1153426Y1089774D03*
X1169174D03*
X1169300Y1074100D03*
X1129100Y1051100D03*
X1112579Y1046126D03*
X1157500Y1093800D03*
X1165300D03*
X1149489Y1085837D03*
X1157363D03*
X1173111D03*
X1149500Y1078100D03*
X1165200D03*
X1173200Y1078000D03*
X1153400Y1070000D03*
X1157300Y1070100D03*
X1165237Y1070089D03*
X1137600Y1050300D03*
X1099400Y1057200D03*
X1169300Y1093800D03*
X1173111Y1089774D03*
X1169174Y1085837D03*
X1153400Y1078100D03*
X1149489Y1074026D03*
X1129110Y1060250D03*
X1170700Y1040230D03*
X1169174Y1050404D03*
X1137600Y1085700D03*
X1180963Y1066189D03*
X1205900Y1062000D03*
X1192774Y1070126D03*
X1254079Y1051126D03*
X1188859Y1089774D03*
X1248079Y1045626D03*
X1184922Y1085837D03*
X1192774Y1074063D03*
X1188837Y1070126D03*
X1192774Y1078000D03*
X1250079Y1082626D03*
X1188900Y1058300D03*
X1185100D03*
X1192700Y1054200D03*
X1188859Y1050404D03*
X1184900Y1062300D03*
X1185100Y1054300D03*
X1208020Y1045990D03*
X1181000Y1054300D03*
X1180985Y1050404D03*
X1184922Y1101585D03*
X1204900Y1094100D03*
X1180985Y1101600D03*
X1184900Y1070126D03*
X1192900Y1062200D03*
X1188900Y1062300D03*
X1184900Y1074063D03*
X1253079Y1081626D03*
X1184922Y1093711D03*
X1254079Y1063626D03*
X1192796Y1093711D03*
X1184922Y1089774D03*
X1254579Y1059626D03*
X1188859Y1097648D03*
X1193100Y1097700D03*
X1216800Y1055500D03*
X1216750Y1050800D03*
X1180900Y1062300D03*
X1216570Y1065030D03*
X1218600Y1062800D03*
X1181000Y1097600D03*
X1188837Y1078000D03*
X1181100Y1058300D03*
X1188837Y1066189D03*
X1184900D03*
X1192800Y1085900D03*
X1184900Y1078000D03*
X1188859Y1085837D03*
X1256579Y1041126D03*
X1188837Y1074063D03*
X1181500Y1032500D03*
X1214250Y1043240D03*
X1184922Y1097648D03*
X1180985Y1093711D03*
X1225900Y1076000D03*
X1250079Y1093626D03*
X1258079Y1094126D03*
X1254579Y1032626D03*
X1230079Y1059126D03*
X1188900Y1054300D03*
X1188859Y1101585D03*
Y1093711D03*
X1254079Y1048126D03*
X1192796Y1089774D03*
X1254079Y1093626D03*
X1246079Y1094126D03*
X1192900Y1058000D03*
X1184922Y1050404D03*
X1299000Y1092500D03*
X1335700Y1096050D03*
X1297500Y1095000D03*
X1292500Y1096000D03*
X1299500Y1100000D03*
X1279853Y1032391D03*
X1265079Y1030626D03*
X1272000Y1030000D03*
X1263579Y1081626D03*
X1277955Y1042538D03*
X1271579Y1060626D03*
X1281820Y1065630D03*
X1283790Y1032391D03*
X1280680Y1042440D03*
X1292579Y1076626D03*
X1311079Y1051626D03*
X1271100Y1064600D03*
X1268579Y1060126D03*
X1334079Y1091126D03*
X1288000Y1062500D03*
X1269800Y1042100D03*
X1268579Y1046126D03*
X1273948Y1042538D03*
X1300000Y1089500D03*
X1285759Y1042538D03*
X1268500Y1076500D03*
X1261079Y1079626D03*
X1302079Y1060626D03*
X1266900Y1062200D03*
X1298740Y1052090D03*
X1292500Y1100000D03*
X1287000Y1045100D03*
X1343750Y1099600D03*
X1373000Y1091500D03*
X1350079Y1066626D03*
X1349500Y1099000D03*
X1349000Y1094000D03*
X1342079Y1086126D03*
X1340500Y1094000D03*
X1356000Y1090500D03*
X1346500Y1087500D03*
X1468600Y1099400D03*
X1466300Y1062561D03*
X1462500Y1093561D03*
X1466000D03*
X1462800Y1062561D03*
X1542800Y1068200D03*
X1524000Y1058000D03*
X1514000Y1076000D03*
X1532500Y1047600D03*
X1527500Y1095000D03*
X1531000Y1084500D03*
X1518800Y1095300D03*
X1528000Y1058000D03*
X1548300Y1086200D03*
X1566600Y1066500D03*
X1542600Y1052800D03*
X1534900Y1076000D03*
X1508800Y1090900D03*
X1017579Y1168126D03*
X1016079Y1178126D03*
X1093650Y1136460D03*
X1060900Y1156500D03*
X1059400Y1112300D03*
X1027079Y1108126D03*
X1025579Y1118126D03*
X1024079Y1128126D03*
X1022579Y1138126D03*
X1020579Y1148126D03*
X1019079Y1158126D03*
X1157363Y1105522D03*
X1153426D03*
X1165289Y1105474D03*
X1165790Y1166770D03*
X1166070Y1171130D03*
X1177100Y1105474D03*
X1173163D03*
X1169174Y1105522D03*
X1145552D03*
X1130300Y1113400D03*
X1176500Y1171500D03*
Y1177500D03*
Y1174500D03*
X1133741Y1109459D03*
X1139600Y1114000D03*
X1129200Y1103500D03*
X1253800Y1138100D03*
X1184922Y1105522D03*
X1236200Y1170800D03*
X1252200Y1150700D03*
X1248800Y1152000D03*
X1223000Y1127800D03*
X1220700Y1130800D03*
X1188859Y1105522D03*
X1200590Y1105470D03*
X1180985Y1105522D03*
X1224000Y1171000D03*
X1192796Y1113396D03*
X1179500Y1171500D03*
X1223999Y1173996D03*
X1182500Y1171500D03*
X1221000Y1171000D03*
Y1168000D03*
X1227000Y1171000D03*
X1182500Y1174500D03*
Y1177500D03*
X1224000Y1168000D03*
X1227000D03*
X1179500Y1174500D03*
X1188859Y1109459D03*
X1186290Y1162000D03*
X1226999Y1173996D03*
X1220999D03*
X1179500Y1177500D03*
X1219500Y1103100D03*
X1184922Y1113396D03*
X1192856Y1105522D03*
X1180280Y1159500D03*
X1184922Y1109459D03*
X1338100Y1122600D03*
X1310400Y1161000D03*
X1300200Y1158700D03*
X1269079Y1115126D03*
X1299300Y1154700D03*
X1329600Y1175600D03*
X1323100Y1178900D03*
X1339000Y1128500D03*
X1373500Y1103000D03*
X1359000Y1125500D03*
X1348000Y1179400D03*
X1351500Y1107500D03*
X1347500Y1119500D03*
X1350000Y1132000D03*
X1342200Y1132200D03*
X1343500Y1118500D03*
X1367500Y1103000D03*
X1366500Y1118000D03*
X1348500Y1107000D03*
X1350700Y1119100D03*
X1356600Y1135020D03*
X1466000Y1124161D03*
X1466070Y1154000D03*
X1462570D03*
X1462500Y1124161D03*
X1468600Y1103800D03*
Y1164052D03*
Y1159652D03*
Y1134800D03*
Y1130400D03*
X1513900Y1113300D03*
X1554400Y1107400D03*
X1535000Y1114000D03*
X1564800Y1108200D03*
X1014579Y1188126D03*
X1013079Y1198126D03*
X1011579Y1208126D03*
X1010079Y1218126D03*
X1008579Y1228126D03*
X1007079Y1238126D03*
X1005579Y1248126D03*
X1004079Y1258126D03*
X1094300Y1217000D03*
X1062953Y1254091D03*
X1065453Y1252091D03*
X1062950Y1225500D03*
X1057180Y1216570D03*
X1056000Y1197500D03*
X1052960Y1230500D03*
X1060000Y1193500D03*
X1068040Y1209690D03*
X1069600Y1204500D03*
X1049000Y1200000D03*
X1045300Y1227840D03*
X1093600Y1207600D03*
X1062000Y1190500D03*
X1047860Y1230550D03*
X1069440Y1220200D03*
X1070000Y1186500D03*
X1070500Y1190000D03*
X1065450Y1228300D03*
X1093900Y1211400D03*
X1093600Y1201300D03*
X1062200Y1249300D03*
X1166450Y1219030D03*
X1166700Y1223500D03*
X1104710Y1204450D03*
X1104120Y1213870D03*
X1176500Y1223000D03*
Y1226000D03*
Y1229000D03*
X1169570Y1187000D03*
Y1238000D03*
X1175580Y1189540D03*
Y1240540D03*
X1227800Y1213500D03*
X1236200Y1224400D03*
X1179500Y1226000D03*
X1227000Y1228000D03*
X1223999Y1224996D03*
Y1221996D03*
X1226999Y1224996D03*
X1220999D03*
Y1221996D03*
X1223999Y1227996D03*
X1182500Y1229000D03*
Y1226000D03*
X1179500Y1223000D03*
X1182500D03*
X1226999Y1221996D03*
X1179500Y1229000D03*
X1186290Y1213000D03*
X1221000Y1228000D03*
X1187860Y1187000D03*
Y1238000D03*
X1180280Y1210500D03*
X1181850Y1189540D03*
Y1240540D03*
X1320650Y1225700D03*
X1368000Y1254500D03*
Y1258000D03*
X1357900Y1186100D03*
X1488910Y1237160D03*
X1490500Y1190900D03*
X1491500Y1184700D03*
X1483500Y1209000D03*
X1462200Y1183803D03*
X1466000Y1183800D03*
X1483750Y1248660D03*
X1484940Y1241130D03*
X1468500Y1224565D03*
Y1220165D03*
X1490000Y1187000D03*
X1468500Y1190365D03*
Y1194765D03*
X1466000Y1244200D03*
X1462100Y1244261D03*
X1468600Y1249903D03*
Y1254303D03*
X1462200Y1210803D03*
X1466000D03*
X1476300Y1182900D03*
X1476200Y1197800D03*
X1491500Y1254000D03*
X1492500Y1237000D03*
X1556800Y1227000D03*
X1552400Y1227600D03*
X1507100Y1200400D03*
X1559600Y1243200D03*
X1566000Y1231700D03*
X1515400Y1240500D03*
X1518600Y1236100D03*
X1512900Y1217800D03*
X1558800Y1251900D03*
X1559300Y1235600D03*
X1536600Y1255300D03*
X1521400Y1233900D03*
X1516100Y1237900D03*
X1531000Y1225900D03*
X1541900Y1237100D03*
X1574000Y1228600D03*
X1571600Y1245900D03*
X1573500Y1219200D03*
X1526600Y1231700D03*
X1580000Y1235500D03*
X1003879Y1268126D03*
Y1278126D03*
Y1288126D03*
Y1298126D03*
X1003579Y1308126D03*
Y1318126D03*
Y1328126D03*
Y1338126D03*
X1060453Y1264591D03*
X1074453Y1294591D03*
X1065520Y1310290D03*
X1042000Y1265000D03*
X1040079Y1325126D03*
X1150079Y1290126D03*
X1165100Y1272900D03*
X1147053Y1287591D03*
X1165300Y1277400D03*
X1176500Y1276000D03*
Y1282000D03*
Y1333000D03*
Y1279000D03*
Y1330000D03*
Y1336000D03*
X1169570Y1291000D03*
X1175580Y1293540D03*
X1120000Y1330000D03*
X1219500Y1324300D03*
X1228300Y1325000D03*
X1188500Y1270800D03*
X1227600Y1266000D03*
X1221000Y1334000D03*
X1224000Y1337000D03*
X1221000Y1274500D03*
Y1280500D03*
X1224000Y1277500D03*
Y1274500D03*
X1182500Y1279000D03*
X1179500Y1336000D03*
X1182500Y1330000D03*
X1179500Y1276000D03*
X1227000Y1334000D03*
X1182500Y1336000D03*
X1227000Y1274500D03*
X1182500Y1333000D03*
X1224000Y1334000D03*
Y1280500D03*
X1227000Y1277500D03*
X1182500Y1282000D03*
X1227000Y1337000D03*
X1179500Y1282000D03*
Y1330000D03*
X1221000Y1277500D03*
Y1337000D03*
X1224000Y1340000D03*
X1179500Y1333000D03*
Y1279000D03*
X1182500Y1276000D03*
X1187860Y1291000D03*
X1186290Y1267000D03*
X1227000Y1280500D03*
X1186290Y1321000D03*
X1227000Y1340000D03*
X1221000D03*
X1181840Y1293540D03*
X1180280Y1264500D03*
Y1318500D03*
X1285600Y1276500D03*
X1296700Y1309400D03*
X1318400Y1292500D03*
X1282900Y1296600D03*
X1286100Y1292900D03*
X1340000Y1288500D03*
X1415800Y1274600D03*
X1414800Y1263100D03*
X1354300Y1297300D03*
X1496300Y1294200D03*
X1462800Y1268700D03*
X1465600D03*
X1468000Y1284400D03*
Y1281600D03*
X1481390Y1271460D03*
X1496000Y1341000D03*
X1495000Y1336500D03*
X1522000Y1313000D03*
X1541400Y1325900D03*
X1525940Y1274030D03*
X1505600Y1298800D03*
X1522200Y1277400D03*
X1523000Y1334200D03*
X1537350Y1308680D03*
X1537180Y1311830D03*
X1525940Y1277180D03*
X1499600Y1291900D03*
X1525940Y1267731D03*
X1501700Y1300700D03*
X1514000Y1327600D03*
X1526900Y1334300D03*
X1538500Y1332300D03*
X1500560Y1330380D03*
X1513700Y1312900D03*
X1576360Y1298850D03*
X1003579Y1348126D03*
Y1358126D03*
Y1368126D03*
Y1378126D03*
Y1388126D03*
Y1398126D03*
Y1408126D03*
Y1418126D03*
X1058490Y1347570D03*
X1178710Y1343200D03*
X1163000Y1363000D03*
X1169550Y1344960D03*
X1175560Y1347500D03*
X1252500Y1395000D03*
Y1392500D03*
X1257500Y1397500D03*
Y1392500D03*
X1255000Y1397500D03*
X1252500D03*
X1257500Y1395000D03*
X1255000Y1392500D03*
Y1394900D03*
X1187900Y1344880D03*
X1181860Y1347500D03*
X1410900Y1381100D03*
X1471100Y1401300D03*
X1464600Y1411000D03*
X1468700Y1411400D03*
X1457800Y1412200D03*
X1498000Y1343500D03*
X1522800Y1345400D03*
X1003579Y1428126D03*
Y1438126D03*
Y1448126D03*
Y1458126D03*
Y1468126D03*
X1003879Y1478126D03*
X1326700Y1434400D03*
X1474300Y1436600D03*
X1466500Y1429500D03*
X1474700Y1449700D03*
G54D79*
X1055118Y1206417D03*
G54D85*
X1195600Y1723063D02*
Y1716500D01*
Y1723063D02*
X1197646D01*
X1198328Y1722750*
X1198555Y1722438*
X1198782Y1721813*
Y1721188*
X1198555Y1720563*
X1198328Y1720250*
X1197646Y1719938*
X1195600D02*
X1197646D01*
X1198328Y1719625*
X1198555Y1719313*
X1198782Y1718688*
Y1717750*
X1198555Y1717125*
X1198328Y1716813*
X1197646Y1716500*
X1195600*
X1202191Y1723063D02*
X1201737Y1722750D01*
X1201282Y1722125*
X1201055Y1721500*
X1200828Y1720563*
Y1719000*
X1201055Y1718063*
X1201282Y1717438*
X1201737Y1716813*
X1202191Y1716500*
X1203100*
X1203555Y1716813*
X1204009Y1717438*
X1204237Y1718063*
X1204464Y1719000*
Y1720563*
X1204237Y1721500*
X1204009Y1722125*
X1203555Y1722750*
X1203100Y1723063*
X1202191*
X1208328D02*
X1206509Y1716500D01*
X1208328Y1723063D02*
X1210146Y1716500D01*
X1207191Y1718688D02*
X1209464D01*
X1212191Y1723063D02*
Y1716500D01*
Y1723063D02*
X1214237D01*
X1214918Y1722750*
X1215146Y1722438*
X1215373Y1721813*
Y1721188*
X1215146Y1720563*
X1214918Y1720250*
X1214237Y1719938*
X1212191*
X1213782D02*
X1215373Y1716500D01*
X1217418Y1723063D02*
Y1716500D01*
Y1723063D02*
X1219009D01*
X1219691Y1722750*
X1220146Y1722125*
X1220373Y1721500*
X1220600Y1720563*
Y1719000*
X1220373Y1718063*
X1220146Y1717438*
X1219691Y1716813*
X1219009Y1716500*
X1217418*
X1233100Y1723063D02*
Y1716500D01*
Y1723063D02*
X1236282Y1716500D01*
Y1723063D02*
Y1716500D01*
X1240146Y1723063D02*
X1238328Y1716500D01*
X1240146Y1723063D02*
X1241964Y1716500D01*
X1239009Y1718688D02*
X1241282D01*
X1244009Y1723063D02*
Y1716500D01*
Y1723063D02*
X1245828Y1716500D01*
X1247646Y1723063D02*
X1245828Y1716500D01*
X1247646Y1723063D02*
Y1716500D01*
X1249691Y1723063D02*
Y1716500D01*
Y1723063D02*
X1252646D01*
X1249691Y1719938D02*
X1251509D01*
X1249691Y1716500D02*
X1252646D01*
X1259918Y1719313D02*
X1264009D01*
X1195600Y1695563D02*
Y1689000D01*
Y1695563D02*
X1197191D01*
X1197873Y1695250*
X1198328Y1694625*
X1198555Y1694000*
X1198782Y1693063*
Y1691500*
X1198555Y1690563*
X1198328Y1689938*
X1197873Y1689313*
X1197191Y1689000*
X1195600*
X1202191Y1695563D02*
X1201737Y1695250D01*
X1201282Y1694625*
X1201055Y1694000*
X1200828Y1693063*
Y1691500*
X1201055Y1690563*
X1201282Y1689938*
X1201737Y1689313*
X1202191Y1689000*
X1203100*
X1203555Y1689313*
X1204009Y1689938*
X1204237Y1690563*
X1204464Y1691500*
Y1693063*
X1204237Y1694000*
X1204009Y1694625*
X1203555Y1695250*
X1203100Y1695563*
X1202191*
X1209918Y1694000D02*
X1209691Y1694625D01*
X1209237Y1695250*
X1208782Y1695563*
X1207873*
X1207418Y1695250*
X1206964Y1694625*
X1206737Y1694000*
X1206509Y1693063*
Y1691500*
X1206737Y1690563*
X1206964Y1689938*
X1207418Y1689313*
X1207873Y1689000*
X1208782*
X1209237Y1689313*
X1209691Y1689938*
X1209918Y1690563*
X1211964Y1695563D02*
Y1690875D01*
X1212191Y1689938*
X1212646Y1689313*
X1213328Y1689000*
X1213782*
X1214464Y1689313*
X1214918Y1689938*
X1215146Y1690875*
Y1695563*
X1217191D02*
Y1689000D01*
Y1695563D02*
X1219009Y1689000D01*
X1220828Y1695563D02*
X1219009Y1689000D01*
X1220828Y1695563D02*
Y1689000D01*
X1222873Y1695563D02*
Y1689000D01*
Y1695563D02*
X1225828D01*
X1222873Y1692438D02*
X1224691D01*
X1222873Y1689000D02*
X1225828D01*
X1227873Y1695563D02*
Y1689000D01*
Y1695563D02*
X1231055Y1689000D01*
Y1695563D02*
Y1689000D01*
X1234691Y1695563D02*
Y1689000D01*
X1233100Y1695563D02*
X1236282D01*
X1243555D02*
Y1689000D01*
Y1695563D02*
X1246737Y1689000D01*
Y1695563D02*
Y1689000D01*
X1250600Y1695563D02*
X1248782Y1689000D01*
X1250600Y1695563D02*
X1252418Y1689000D01*
X1249464Y1691188D02*
X1251737D01*
X1254464Y1695563D02*
Y1689000D01*
Y1695563D02*
X1256282Y1689000D01*
X1258100Y1695563D02*
X1256282Y1689000D01*
X1258100Y1695563D02*
Y1689000D01*
X1260146Y1695563D02*
Y1689000D01*
Y1695563D02*
X1263100D01*
X1260146Y1692438D02*
X1261964D01*
X1260146Y1689000D02*
X1263100D01*
X1265146Y1691813D02*
X1269237D01*
X1385600Y1695563D02*
Y1689000D01*
Y1695563D02*
X1387646D01*
X1388328Y1695250*
X1388555Y1694938*
X1388782Y1694313*
Y1693688*
X1388555Y1693063*
X1388328Y1692750*
X1387646Y1692438*
X1385600*
X1387191D02*
X1388782Y1689000D01*
X1390828Y1695563D02*
Y1689000D01*
Y1695563D02*
X1393782D01*
X1390828Y1692438D02*
X1392646D01*
X1390828Y1689000D02*
X1393782D01*
X1395828Y1695563D02*
X1397646Y1689000D01*
X1399464Y1695563D02*
X1397646Y1689000D01*
X1406737Y1691813D02*
X1410828D01*
X1419918Y1695563D02*
X1418100Y1689000D01*
X1419918Y1695563D02*
X1421737Y1689000D01*
X1418782Y1691188D02*
X1421055D01*
X1275600Y1723063D02*
Y1716500D01*
X1279009Y1723063D02*
X1278555Y1722750D01*
X1278100Y1722125*
X1277873Y1721500*
X1277646Y1720563*
Y1719000*
X1277873Y1718063*
X1278100Y1717438*
X1278555Y1716813*
X1279009Y1716500*
X1279918*
X1280373Y1716813*
X1280828Y1717438*
X1281055Y1718063*
X1281282Y1719000*
Y1720563*
X1281055Y1721500*
X1280828Y1722125*
X1280373Y1722750*
X1279918Y1723063*
X1279009*
X1283328D02*
Y1716500D01*
Y1723063D02*
X1285373D01*
X1286055Y1722750*
X1286282Y1722438*
X1286509Y1721813*
Y1720875*
X1286282Y1720250*
X1286055Y1719938*
X1285373Y1719625*
X1283328*
X1288555Y1719313D02*
X1292646D01*
X1296509Y1723063D02*
X1294691Y1716500D01*
X1296509Y1723063D02*
X1298328Y1716500D01*
X1295373Y1718688D02*
X1297646D01*
X1300373Y1723063D02*
Y1716500D01*
X1302418Y1721813D02*
X1302873Y1722125D01*
X1303555Y1723063*
Y1716500*
X1314237Y1721500D02*
X1314009Y1722125D01*
X1313555Y1722750*
X1313100Y1723063*
X1312191*
X1311737Y1722750*
X1311282Y1722125*
X1311055Y1721500*
X1310828Y1720563*
Y1719000*
X1311055Y1718063*
X1311282Y1717438*
X1311737Y1716813*
X1312191Y1716500*
X1313100*
X1313555Y1716813*
X1314009Y1717438*
X1314237Y1718063*
X1318100Y1723063D02*
X1316282Y1716500D01*
X1318100Y1723063D02*
X1319918Y1716500D01*
X1316964Y1718688D02*
X1319237D01*
X1321964Y1723063D02*
Y1716500D01*
Y1723063D02*
X1324009D01*
X1324691Y1722750*
X1324918Y1722438*
X1325146Y1721813*
Y1721188*
X1324918Y1720563*
X1324691Y1720250*
X1324009Y1719938*
X1321964*
X1323555D02*
X1325146Y1716500D01*
X1327191Y1723063D02*
Y1716500D01*
Y1723063D02*
X1328782D01*
X1329464Y1722750*
X1329918Y1722125*
X1330146Y1721500*
X1330373Y1720563*
Y1719000*
X1330146Y1718063*
X1329918Y1717438*
X1329464Y1716813*
X1328782Y1716500*
X1327191*
X1244009Y1739000D02*
X1243782Y1739625D01*
X1243328Y1740250*
X1242873Y1740563*
X1241964*
X1241509Y1740250*
X1241055Y1739625*
X1240828Y1739000*
X1240600Y1738063*
Y1736500*
X1240828Y1735563*
X1241055Y1734938*
X1241509Y1734313*
X1241964Y1734000*
X1242873*
X1243328Y1734313*
X1243782Y1734938*
X1244009Y1735563*
X1247418Y1740563D02*
X1246964Y1740250D01*
X1246509Y1739625*
X1246282Y1739000*
X1246055Y1738063*
Y1736500*
X1246282Y1735563*
X1246509Y1734938*
X1246964Y1734313*
X1247418Y1734000*
X1248328*
X1248782Y1734313*
X1249237Y1734938*
X1249464Y1735563*
X1249691Y1736500*
Y1738063*
X1249464Y1739000*
X1249237Y1739625*
X1248782Y1740250*
X1248328Y1740563*
X1247418*
X1251737D02*
Y1734000D01*
Y1740563D02*
X1253555Y1734000D01*
X1255373Y1740563D02*
X1253555Y1734000D01*
X1255373Y1740563D02*
Y1734000D01*
X1257418Y1740563D02*
Y1734000D01*
Y1740563D02*
X1259464D01*
X1260146Y1740250*
X1260373Y1739938*
X1260600Y1739313*
Y1738375*
X1260373Y1737750*
X1260146Y1737438*
X1259464Y1737125*
X1257418*
X1262646Y1740563D02*
Y1734000D01*
Y1740563D02*
X1264691D01*
X1265373Y1740250*
X1265600Y1739938*
X1265828Y1739313*
Y1738688*
X1265600Y1738063*
X1265373Y1737750*
X1264691Y1737438*
X1262646*
X1264237D02*
X1265828Y1734000D01*
X1267873Y1740563D02*
Y1734000D01*
Y1740563D02*
X1270828D01*
X1267873Y1737438D02*
X1269691D01*
X1267873Y1734000D02*
X1270828D01*
X1276055Y1739625D02*
X1275600Y1740250D01*
X1274918Y1740563*
X1274009*
X1273328Y1740250*
X1272873Y1739625*
Y1739000*
X1273100Y1738375*
X1273328Y1738063*
X1273782Y1737750*
X1275146Y1737125*
X1275600Y1736813*
X1275828Y1736500*
X1276055Y1735875*
Y1734938*
X1275600Y1734313*
X1274918Y1734000*
X1274009*
X1273328Y1734313*
X1272873Y1734938*
X1281282Y1739625D02*
X1280828Y1740250D01*
X1280146Y1740563*
X1279237*
X1278555Y1740250*
X1278100Y1739625*
Y1739000*
X1278328Y1738375*
X1278555Y1738063*
X1279009Y1737750*
X1280373Y1737125*
X1280828Y1736813*
X1281055Y1736500*
X1281282Y1735875*
Y1734938*
X1280828Y1734313*
X1280146Y1734000*
X1279237*
X1278555Y1734313*
X1278100Y1734938*
X1284691Y1740563D02*
X1284237Y1740250D01*
X1283782Y1739625*
X1283555Y1739000*
X1283328Y1738063*
Y1736500*
X1283555Y1735563*
X1283782Y1734938*
X1284237Y1734313*
X1284691Y1734000*
X1285600*
X1286055Y1734313*
X1286509Y1734938*
X1286737Y1735563*
X1286964Y1736500*
Y1738063*
X1286737Y1739000*
X1286509Y1739625*
X1286055Y1740250*
X1285600Y1740563*
X1284691*
X1289009D02*
Y1734000D01*
Y1740563D02*
X1291055D01*
X1291737Y1740250*
X1291964Y1739938*
X1292191Y1739313*
Y1738688*
X1291964Y1738063*
X1291737Y1737750*
X1291055Y1737438*
X1289009*
X1290600D02*
X1292191Y1734000D01*
X1302873Y1739000D02*
X1302646Y1739625D01*
X1302191Y1740250*
X1301737Y1740563*
X1300828*
X1300373Y1740250*
X1299918Y1739625*
X1299691Y1739000*
X1299464Y1738063*
Y1736500*
X1299691Y1735563*
X1299918Y1734938*
X1300373Y1734313*
X1300828Y1734000*
X1301737*
X1302191Y1734313*
X1302646Y1734938*
X1302873Y1735563*
X1306282Y1740563D02*
X1305828Y1740250D01*
X1305373Y1739625*
X1305146Y1739000*
X1304918Y1738063*
Y1736500*
X1305146Y1735563*
X1305373Y1734938*
X1305828Y1734313*
X1306282Y1734000*
X1307191*
X1307646Y1734313*
X1308100Y1734938*
X1308328Y1735563*
X1308555Y1736500*
Y1738063*
X1308328Y1739000*
X1308100Y1739625*
X1307646Y1740250*
X1307191Y1740563*
X1306282*
X1310600D02*
Y1734000D01*
Y1740563D02*
X1313782Y1734000D01*
Y1740563D02*
Y1734000D01*
X1317418Y1740563D02*
Y1734000D01*
X1315828Y1740563D02*
X1319009D01*
X1321055D02*
Y1734000D01*
Y1740563D02*
X1323100D01*
X1323782Y1740250*
X1324009Y1739938*
X1324237Y1739313*
Y1738688*
X1324009Y1738063*
X1323782Y1737750*
X1323100Y1737438*
X1321055*
X1322646D02*
X1324237Y1734000D01*
X1327646Y1740563D02*
X1327191Y1740250D01*
X1326737Y1739625*
X1326509Y1739000*
X1326282Y1738063*
Y1736500*
X1326509Y1735563*
X1326737Y1734938*
X1327191Y1734313*
X1327646Y1734000*
X1328555*
X1329009Y1734313*
X1329464Y1734938*
X1329691Y1735563*
X1329918Y1736500*
Y1738063*
X1329691Y1739000*
X1329464Y1739625*
X1329009Y1740250*
X1328555Y1740563*
X1327646*
X1331964D02*
Y1734000D01*
X1334691*
X1339918Y1739625D02*
X1339464Y1740250D01*
X1338782Y1740563*
X1337873*
X1337191Y1740250*
X1336737Y1739625*
Y1739000*
X1336964Y1738375*
X1337191Y1738063*
X1337646Y1737750*
X1339009Y1737125*
X1339464Y1736813*
X1339691Y1736500*
X1339918Y1735875*
Y1734938*
X1339464Y1734313*
X1338782Y1734000*
X1337873*
X1337191Y1734313*
X1336737Y1734938*
X1350600Y1739000D02*
X1350373Y1739625D01*
X1349918Y1740250*
X1349464Y1740563*
X1348555*
X1348100Y1740250*
X1347646Y1739625*
X1347418Y1739000*
X1347191Y1738063*
Y1736500*
X1347418Y1735563*
X1347646Y1734938*
X1348100Y1734313*
X1348555Y1734000*
X1349464*
X1349918Y1734313*
X1350373Y1734938*
X1350600Y1735563*
X1354009Y1740563D02*
X1353555Y1740250D01*
X1353100Y1739625*
X1352873Y1739000*
X1352646Y1738063*
Y1736500*
X1352873Y1735563*
X1353100Y1734938*
X1353555Y1734313*
X1354009Y1734000*
X1354918*
X1355373Y1734313*
X1355828Y1734938*
X1356055Y1735563*
X1356282Y1736500*
Y1738063*
X1356055Y1739000*
X1355828Y1739625*
X1355373Y1740250*
X1354918Y1740563*
X1354009*
X1358328D02*
Y1734000D01*
Y1740563D02*
X1360373D01*
X1361055Y1740250*
X1361282Y1739938*
X1361509Y1739313*
Y1738688*
X1361282Y1738063*
X1361055Y1737750*
X1360373Y1737438*
X1358328*
X1359918D02*
X1361509Y1734000D01*
X1363555Y1740563D02*
Y1734000D01*
Y1740563D02*
X1365600D01*
X1366282Y1740250*
X1366509Y1739938*
X1366737Y1739313*
Y1738375*
X1366509Y1737750*
X1366282Y1737438*
X1365600Y1737125*
X1363555*
X1370146Y1740563D02*
X1369691Y1740250D01*
X1369237Y1739625*
X1369009Y1739000*
X1368782Y1738063*
Y1736500*
X1369009Y1735563*
X1369237Y1734938*
X1369691Y1734313*
X1370146Y1734000*
X1371055*
X1371509Y1734313*
X1371964Y1734938*
X1372191Y1735563*
X1372418Y1736500*
Y1738063*
X1372191Y1739000*
X1371964Y1739625*
X1371509Y1740250*
X1371055Y1740563*
X1370146*
X1374464D02*
Y1734000D01*
Y1740563D02*
X1376509D01*
X1377191Y1740250*
X1377418Y1739938*
X1377646Y1739313*
Y1738688*
X1377418Y1738063*
X1377191Y1737750*
X1376509Y1737438*
X1374464*
X1376055D02*
X1377646Y1734000D01*
X1381509Y1740563D02*
X1379691Y1734000D01*
X1381509Y1740563D02*
X1383328Y1734000D01*
X1380373Y1736188D02*
X1382646D01*
X1386964Y1740563D02*
Y1734000D01*
X1385373Y1740563D02*
X1388555D01*
X1390600D02*
Y1734000D01*
X1394009Y1740563D02*
X1393555Y1740250D01*
X1393100Y1739625*
X1392873Y1739000*
X1392646Y1738063*
Y1736500*
X1392873Y1735563*
X1393100Y1734938*
X1393555Y1734313*
X1394009Y1734000*
X1394918*
X1395373Y1734313*
X1395828Y1734938*
X1396055Y1735563*
X1396282Y1736500*
Y1738063*
X1396055Y1739000*
X1395828Y1739625*
X1395373Y1740250*
X1394918Y1740563*
X1394009*
X1398328D02*
Y1734000D01*
Y1740563D02*
X1401509Y1734000D01*
Y1740563D02*
Y1734000D01*
X1235600Y1709313D02*
X1236055Y1709625D01*
X1236737Y1710563*
Y1704000*
X1241964Y1710563D02*
X1239691Y1704000D01*
X1238782Y1710563D02*
X1241964D01*
X1244009Y1706813D02*
X1248100D01*
X1252873Y1709625D02*
X1252646Y1710250D01*
X1251964Y1710563*
X1251509*
X1250828Y1710250*
X1250373Y1709313*
X1250146Y1707750*
Y1706188*
X1250373Y1704938*
X1250828Y1704313*
X1251509Y1704000*
X1251737*
X1252418Y1704313*
X1252873Y1704938*
X1253100Y1705875*
Y1706188*
X1252873Y1707125*
X1252418Y1707750*
X1251737Y1708063*
X1251509*
X1250828Y1707750*
X1250373Y1707125*
X1250146Y1706188*
X1256509Y1710563D02*
X1255828Y1710250D01*
X1255373Y1709313*
X1255146Y1707750*
Y1706813*
X1255373Y1705250*
X1255828Y1704313*
X1256509Y1704000*
X1256964*
X1257646Y1704313*
X1258100Y1705250*
X1258328Y1706813*
Y1707750*
X1258100Y1709313*
X1257646Y1710250*
X1256964Y1710563*
X1256509*
X1261737D02*
X1261055Y1710250D01*
X1260600Y1709313*
X1260373Y1707750*
Y1706813*
X1260600Y1705250*
X1261055Y1704313*
X1261737Y1704000*
X1262191*
X1262873Y1704313*
X1263328Y1705250*
X1263555Y1706813*
Y1707750*
X1263328Y1709313*
X1262873Y1710250*
X1262191Y1710563*
X1261737*
X1268555D02*
X1266282D01*
X1266055Y1707750*
X1266282Y1708063*
X1266964Y1708375*
X1267646*
X1268328Y1708063*
X1268782Y1707438*
X1269009Y1706500*
X1268782Y1705875*
X1268555Y1704938*
X1268100Y1704313*
X1267418Y1704000*
X1266737*
X1266055Y1704313*
X1265828Y1704625*
X1265600Y1705250*
X1273328Y1710563D02*
X1271055Y1706188D01*
X1274464*
X1273328Y1710563D02*
Y1704000D01*
X1276509Y1709313D02*
X1276964Y1709625D01*
X1277646Y1710563*
Y1704000*
X1279691Y1706813D02*
X1283782D01*
X1285828Y1709313D02*
X1286282Y1709625D01*
X1286964Y1710563*
Y1704000*
X1290373Y1710563D02*
X1289691Y1710250D01*
X1289237Y1709313*
X1289009Y1707750*
Y1706813*
X1289237Y1705250*
X1289691Y1704313*
X1290373Y1704000*
X1290828*
X1291509Y1704313*
X1291964Y1705250*
X1292191Y1706813*
Y1707750*
X1291964Y1709313*
X1291509Y1710250*
X1290828Y1710563*
X1290373*
X1295600D02*
X1294918Y1710250D01*
X1294464Y1709313*
X1294237Y1707750*
Y1706813*
X1294464Y1705250*
X1294918Y1704313*
X1295600Y1704000*
X1296055*
X1296737Y1704313*
X1297191Y1705250*
X1297418Y1706813*
Y1707750*
X1297191Y1709313*
X1296737Y1710250*
X1296055Y1710563*
X1295600*
X1195600D02*
Y1704000D01*
Y1710563D02*
X1197646D01*
X1198328Y1710250*
X1198555Y1709938*
X1198782Y1709313*
Y1708375*
X1198555Y1707750*
X1198328Y1707438*
X1197646Y1707125*
X1195600*
X1204918Y1711813D02*
X1200828Y1701813D01*
X1206964Y1710563D02*
Y1704000D01*
Y1710563D02*
X1210146Y1704000D01*
Y1710563D02*
Y1704000D01*
X1217418Y1706813D02*
X1221509D01*
X1345818Y1712063D02*
X1344000Y1705500D01*
X1345818Y1712063D02*
X1347637Y1705500D01*
X1344682Y1707688D02*
X1346955D01*
X1349682Y1709875D02*
Y1703313D01*
Y1708938D02*
X1350137Y1709563D01*
X1350591Y1709875*
X1351273*
X1351728Y1709563*
X1352182Y1708938*
X1352409Y1708000*
Y1707375*
X1352182Y1706438*
X1351728Y1705813*
X1351273Y1705500*
X1350591*
X1350137Y1705813*
X1349682Y1706438*
X1354455Y1709875D02*
Y1705500D01*
Y1708000D02*
X1354682Y1708938D01*
X1355137Y1709563*
X1355591Y1709875*
X1356273*
X1358318Y1712063D02*
X1358546Y1711750D01*
X1358773Y1712063*
X1358546Y1712375*
X1358318Y1712063*
X1358546Y1709875D02*
Y1705500D01*
X1360818Y1712063D02*
Y1705500D01*
X1368091Y1710813D02*
X1368546Y1711125D01*
X1369228Y1712063*
Y1705500*
X1371728Y1705813D02*
X1371500Y1705500D01*
X1371273Y1705813*
X1371500Y1706125*
X1371728Y1705813*
Y1705188*
X1371500Y1704563*
X1371273Y1704250*
X1379228Y1710500D02*
Y1710813D01*
X1379455Y1711438*
X1379682Y1711750*
X1380137Y1712063*
X1381046*
X1381500Y1711750*
X1381728Y1711438*
X1381955Y1710813*
Y1710188*
X1381728Y1709563*
X1381273Y1708625*
X1379000Y1705500*
X1382182*
X1385591Y1712063D02*
X1384909Y1711750D01*
X1384455Y1710813*
X1384228Y1709250*
Y1708313*
X1384455Y1706750*
X1384909Y1705813*
X1385591Y1705500*
X1386046*
X1386728Y1705813*
X1387182Y1706750*
X1387409Y1708313*
Y1709250*
X1387182Y1710813*
X1386728Y1711750*
X1386046Y1712063*
X1385591*
X1389455Y1710813D02*
X1389909Y1711125D01*
X1390591Y1712063*
Y1705500*
X1394909Y1712063D02*
X1392637Y1707688D01*
X1396046*
X1394909Y1712063D02*
Y1705500D01*
X1284400Y1695463D02*
Y1688900D01*
X1287128*
X1289628Y1695463D02*
X1292128D01*
X1290764Y1692963*
X1291446*
X1291900Y1692650*
X1292128Y1692338*
X1292355Y1691400*
Y1690775*
X1292128Y1689838*
X1291673Y1689213*
X1290991Y1688900*
X1290309*
X1289628Y1689213*
X1289400Y1689525*
X1289173Y1690150*
X1302809Y1694525D02*
X1302355Y1695150D01*
X1301673Y1695463*
X1300764*
X1300082Y1695150*
X1299628Y1694525*
Y1693900*
X1299855Y1693275*
X1300082Y1692963*
X1300537Y1692650*
X1301900Y1692025*
X1302355Y1691713*
X1302582Y1691400*
X1302809Y1690775*
Y1689838*
X1302355Y1689213*
X1301673Y1688900*
X1300764*
X1300082Y1689213*
X1299628Y1689838*
X1304855Y1695463D02*
Y1688900D01*
X1310309Y1693900D02*
X1310082Y1694525D01*
X1309628Y1695150*
X1309173Y1695463*
X1308264*
X1307809Y1695150*
X1307355Y1694525*
X1307128Y1693900*
X1306900Y1692963*
Y1691400*
X1307128Y1690463*
X1307355Y1689838*
X1307809Y1689213*
X1308264Y1688900*
X1309173*
X1309628Y1689213*
X1310082Y1689838*
X1310309Y1690463*
Y1691400*
X1309173D02*
X1310309D01*
X1312355Y1695463D02*
Y1688900D01*
Y1695463D02*
X1315537Y1688900D01*
Y1695463D02*
Y1688900D01*
X1319400Y1695463D02*
X1317582Y1688900D01*
X1319400Y1695463D02*
X1321218Y1688900D01*
X1318264Y1691088D02*
X1320537D01*
X1323264Y1695463D02*
Y1688900D01*
X1325991*
X1333264Y1694213D02*
X1333718Y1694525D01*
X1334400Y1695463*
Y1688900*
X1000000Y1462862D02*
Y1480316D01*
X1019685Y1500000*
X1632087*
X1637087Y1495000*
Y1062992*
X1599685*
G75*
G03X1597717Y1061024I0J-1968D01*
G01Y1000000*
X1203000*
Y1029077*
Y1029080D02*
G03X1191000Y1029070I-6000J-251D01*
G01Y1029077D02*
Y1000000D01*
X1132000*
Y1029000*
Y1028998D02*
G03X1119500Y1028758I-6253J32D01*
G01Y1028750D02*
Y1000000D01*
X1055314*
X1041684Y1012615*
X1031863Y1060462*
X1013278Y1179056*
X1001318Y1256005*
X1000000Y1310659*
Y1462862*
X1000000*
G54D86*
X1535000Y1490438D02*
Y1486500D01*
X1536637*
X1550773Y1490438D02*
X1552273D01*
X1551455Y1488938*
X1551864*
X1552137Y1488750*
X1552273Y1488563*
X1552409Y1488000*
Y1487625*
X1552273Y1487063*
X1552000Y1486688*
X1551591Y1486500*
X1551182*
X1550773Y1486688*
X1550637Y1486875*
X1550500Y1487250*
X1046500Y1059547D02*
X1050079Y1063126D01*
Y1076547*
X1046500Y1059547D02*
Y1046000D01*
X1062000Y1030500*
X1063830Y1046290D02*
X1087743D01*
X1092079Y1050626*
X1097935*
X1105935Y1042626*
X1163599*
X1164599Y1043626*
X1207500*
X1216500Y1034626*
Y1029874*
X1094579Y1045126D02*
X1099079Y1040626D01*
X1132814*
X1138814Y1034626*
X1145672*
X1147456Y1036410*
X1151490*
X1157375Y1097800D02*
X1157400D01*
X1142850Y1036950D02*
X1145400Y1039500D01*
X1155700*
X1158300Y1036900*
X1175900*
X1180900Y1041900*
X1205700*
X1211400Y1036200*
Y1022700*
X1212200Y1021900*
X1216500*
X1290300Y1095089D02*
Y1107579D01*
X1290579Y1107858*
Y1116626*
X1290300Y1095089D02*
X1302763Y1082626D01*
X1319590*
X1320590Y1081626*
X1358520*
X1362079Y1085185*
Y1147871*
X1299000Y1092500D02*
X1324879D01*
X1326005Y1093626*
X1337079*
X1339079Y1091626*
X1341526*
X1343750Y1093850*
Y1099600*
X1297500Y1095000D02*
X1299600Y1097100D01*
X1330700*
X1331750Y1096050*
X1335700*
X1292500Y1096000D02*
X1295700Y1099200D01*
Y1108900*
X1309500Y1122700*
Y1129300*
X1315300Y1135100*
X1323700*
X1327200Y1131600*
X1335900*
X1339000Y1128500*
X1299500Y1100000D02*
X1303200Y1103700D01*
Y1113100*
X1311100Y1121000*
Y1128500*
X1316300Y1133700*
X1322800*
X1333900Y1122600*
X1338100*
X1292579Y1076626D02*
X1311079Y1058126D01*
Y1051626*
X1373000Y1091500D02*
X1384000Y1102500D01*
Y1161800*
X1453400Y1091500D02*
X1456300Y1088600D01*
X1461750*
X1463450Y1090300*
Y1092611*
X1453400Y1091500D02*
Y1134400D01*
X1462400Y1143400*
X1482400*
X1484400Y1141400*
X1608300*
X1608600Y1141100*
X1451800Y1090800D02*
X1455600Y1087000D01*
X1462450*
X1465050Y1089600*
Y1092611*
X1466000Y1093561*
X1451800Y1090800D02*
Y1135100D01*
X1461700Y1145000*
X1483100*
X1485100Y1143000*
X1608963*
X1610200Y1141763*
Y1140322*
X1612322Y1138201*
X1462500Y1093561D02*
X1463450Y1092611D01*
X1031579Y1173717D02*
X1036500Y1178638D01*
Y1212240*
X1047860Y1223600*
Y1230550*
X1031579Y1173717D02*
Y1169965D01*
X1038179Y1163365*
Y1112147*
X1046500Y1103826*
Y1080126*
X1050079Y1076547*
X1052879Y1125526D02*
X1065400Y1138047D01*
Y1224100*
X1109900Y1268600*
Y1328500*
X1152400Y1371000*
X1206100*
X1223500Y1353600*
X1322600*
X1356700Y1319500*
X1408800*
X1410300Y1318000*
X1142300Y1145700D02*
X1157363Y1130637D01*
Y1105522*
X1142300Y1145700D02*
Y1245000D01*
X1152680Y1255380*
X1183480*
X1205500Y1277400*
Y1287700*
X1212800Y1295000*
X1251600*
X1259000Y1302400*
X1288400*
X1296100Y1294700*
X1302500*
X1303900Y1296100*
X1308400*
X1139900Y1141600D02*
X1153426Y1128074D01*
Y1105522*
X1139900Y1141600D02*
Y1247800D01*
X1153910Y1261810*
X1184410*
X1198700Y1276100*
Y1284900*
X1211400Y1297600*
X1249700*
X1257100Y1305000*
X1290100*
X1297200Y1297900*
X1200590Y1105470D02*
X1224079D01*
X1249923Y1079626*
X1255579*
X1261579Y1073626*
X1279579*
X1284579Y1078626*
X1293579*
X1298615Y1073590*
X1326079*
X1342543Y1057126*
X1414300*
X1432579Y1075405*
Y1183190*
X1456015Y1206626*
X1505385*
X1527659Y1228900*
X1537300*
X1544079Y1235679*
Y1237750*
X1298079Y1150626D02*
X1292700Y1156005D01*
Y1245100*
X1299900Y1252300*
X1305600*
X1333200Y1279900*
X1288579Y1120126D02*
X1288553Y1120100D01*
X1303700*
X1307000Y1123400*
Y1129100*
X1326000Y1148100*
X1307600Y1143600D02*
X1309600Y1141600D01*
Y1135800*
X1307600Y1143600D02*
Y1164840D01*
X1314300Y1171540*
Y1196300*
X1317500Y1199500*
X1335900Y1152450D02*
X1338900Y1155450D01*
Y1158900*
X1335900Y1152450D02*
Y1143900D01*
X1337200Y1142600*
Y1138500*
X1335900Y1110700D02*
Y1118600D01*
X1337200Y1119900*
X1338800*
X1342500Y1123600*
X1335900Y1110700D02*
X1346500Y1100100D01*
Y1091334*
X1350334Y1087500*
X1355000*
X1358000Y1084500*
X1301300Y1170000D02*
X1303400Y1167900D01*
Y1141900*
X1301300Y1170000D02*
Y1243900D01*
X1329700Y1272300*
X1297579Y1146626D02*
X1290700Y1153505D01*
Y1246100*
X1299600Y1255000*
X1304838*
X1322600Y1272763*
Y1280100*
X1338700Y1117200D02*
X1345300Y1123800D01*
Y1132600*
X1299000Y1125000D02*
X1301600D01*
X1303200Y1126600*
Y1136700*
X1305600Y1139100*
Y1166200*
X1312680Y1173280*
X1288079Y1120126D02*
X1288579D01*
X1322350Y1172850D02*
Y1163200D01*
X1326000Y1159550*
Y1148100*
X1290500Y1124000D02*
X1292300Y1122200D01*
X1302900*
X1305100Y1124400*
Y1131300*
X1309600Y1135800*
X1317100Y1131200D02*
Y1129400D01*
X1333500Y1113000*
X1299000Y1137500D02*
X1303400Y1141900D01*
X1342400Y1141500D02*
X1344100Y1143200D01*
Y1161700*
X1342400Y1141500D02*
Y1135500D01*
X1345300Y1132600*
X1340100Y1131000D02*
Y1141463D01*
X1342400Y1143763*
X1340100Y1131000D02*
X1342500Y1128600D01*
Y1123600*
X1414500Y1132500D02*
X1411500Y1135500D01*
Y1148000*
X1421200Y1157700*
Y1188300*
X1428700Y1195800*
X1339500Y1114000D02*
X1350200D01*
X1354500Y1118300*
Y1140000*
X1359300Y1144800*
X1414600Y1136500D02*
X1422800Y1144700D01*
Y1187200*
X1432100Y1196500*
X1414900Y1166500D02*
X1417700Y1169300D01*
Y1190200*
X1418600Y1191100*
X1414500Y1161500D02*
X1419300Y1166300D01*
Y1188800*
X1421200Y1190700*
X1369400Y1115300D02*
X1370600Y1116500D01*
Y1122886*
X1344800Y1136900D02*
X1350900Y1143000D01*
X1373500Y1103000D02*
X1380700Y1110200D01*
Y1161500*
X1344100Y1172400D02*
X1352500Y1164000D01*
Y1157450*
X1362079Y1147871*
X1466000Y1124161D02*
X1465050Y1123211D01*
Y1120500*
X1466150Y1119400*
X1587200*
X1588500Y1118100*
Y1116633*
X1590611Y1114522*
X1458100Y1105431D02*
Y1104769D01*
X1462069Y1100800*
X1467200*
X1468600Y1099400*
X1458100Y1105431D02*
Y1131631D01*
X1465669Y1139200*
X1479032*
X1483132Y1135100*
X1587000*
X1588200Y1133900*
X1459700Y1105431D02*
X1462732Y1102400D01*
X1467200*
X1468600Y1103800*
X1459700Y1105431D02*
Y1130969D01*
X1466332Y1137600*
X1478369*
X1482469Y1133500*
X1585600*
X1462500Y1124161D02*
X1463450Y1123211D01*
Y1119800*
X1465450Y1117800*
X1586500*
X1586900Y1117400*
X1588200Y1133900D02*
X1588500Y1133600D01*
Y1132381*
X1590611Y1130270*
X1585600Y1133500D02*
X1586338D01*
X1586900Y1132937*
X1585099Y1130270D02*
X1586900Y1132071D01*
Y1132937*
X1585099Y1114522D02*
X1586900Y1116323D01*
Y1117400*
X1606753Y1138144D02*
X1608600Y1139991D01*
Y1141100*
X1612265Y1138144D02*
X1612322Y1138201D01*
X1022453Y1223591D02*
Y1211591D01*
X1030479Y1203565*
Y1197226*
X1022453Y1223591D02*
X1054953Y1256091D01*
X1060953*
X1062953Y1254091*
X1029000Y1221467D02*
X1045953Y1238420D01*
X1055255*
X1065453Y1248565*
Y1252091*
X1029000Y1221467D02*
Y1211638D01*
X1030977Y1209661*
Y1209614*
X1033500Y1207091*
Y1199500*
X1031500Y1216000D02*
X1034862D01*
X1038953Y1220091*
Y1227091*
X1047453Y1235591*
X1056953*
X1068953Y1247591*
Y1256091*
X1080480Y1182400D02*
Y1168600D01*
X1136500Y1112580*
Y1111746*
X1145446Y1102800*
X1158600*
X1163800Y1097600*
X1177100*
X1144900Y1242038D02*
X1155252Y1252390D01*
X1191690*
X1210309Y1271009*
Y1276470*
X1224439Y1290600*
X1251300*
X1260900Y1300200*
X1284400*
X1286800Y1297800*
X1144900Y1242038D02*
Y1153100D01*
X1165289Y1132711*
Y1105474*
X1153453Y1235153D02*
X1162710Y1244410D01*
X1243010*
X1257100Y1258500*
X1304900*
X1319600Y1273200*
Y1284900*
X1323700Y1289000*
Y1294900*
X1153453Y1235153D02*
Y1210447D01*
X1161500Y1202400*
Y1157543*
X1177100Y1141943*
Y1105474*
X1151100Y1237738D02*
X1160432Y1247070D01*
X1200570*
X1213700Y1260200*
X1303700*
X1315400Y1271900*
X1151100Y1237738D02*
Y1206500D01*
X1158500Y1199100*
Y1154500*
X1173163Y1139837*
Y1105474*
X1148400Y1240538D02*
X1157482Y1249620D01*
X1199920*
X1212800Y1262500*
X1303300*
X1313400Y1272600*
Y1295700*
X1148400Y1240538D02*
Y1156600D01*
X1169174Y1135826*
Y1105522*
X1315000Y1250809D02*
X1320391Y1256200D01*
X1333900*
X1315000Y1250809D02*
Y1206700D01*
X1322200Y1199500*
Y1186100*
X1325300Y1183000*
Y1168500*
X1326500Y1167300*
Y1163500*
X1320400Y1209700D02*
X1327000Y1203100D01*
Y1194300*
X1328900Y1192400*
X1335500*
X1338250Y1189650*
Y1169850*
X1345700Y1162400*
Y1151600*
X1346900Y1150400*
Y1145900*
X1320400Y1209700D02*
Y1221500D01*
X1327100Y1228200*
Y1235600*
X1333500Y1242000*
Y1252500*
X1333600Y1197500D02*
X1339850Y1191250D01*
Y1171250*
X1350900Y1160200*
Y1143000*
X1333600Y1197500D02*
Y1210600D01*
X1336600Y1213600*
X1316950Y1225550D02*
X1324600Y1233200D01*
Y1238700*
X1329600Y1243700*
X1316950Y1225550D02*
Y1207500D01*
X1323800Y1200650*
Y1186800*
X1326900Y1183700*
Y1170900*
X1338900Y1158900*
X1318650Y1209000D02*
Y1223700D01*
X1320650Y1225700*
X1318650Y1209000D02*
X1325400Y1202250D01*
Y1187800*
X1327450Y1185750*
X1329650*
X1332350Y1183050*
Y1169350*
X1342400Y1159300*
Y1143763*
X1332000Y1188650D02*
Y1185800D01*
X1333950Y1183850*
Y1171850*
X1344100Y1161700*
X1312050Y1210100D02*
X1312680Y1209470D01*
Y1173280*
X1366500Y1240700D02*
X1369300Y1237900D01*
X1412000*
X1418600Y1231300*
Y1191100*
X1366500Y1240700D02*
Y1249100D01*
X1366600Y1249200*
X1358850Y1211950D02*
X1373950Y1196850D01*
Y1185350*
X1391800Y1167500*
Y1093300*
X1410100Y1075000*
X1414800*
X1358850Y1211950D02*
Y1220480D01*
X1360900Y1222530*
X1363100Y1249600D02*
X1365500Y1252000D01*
X1384600*
X1387500Y1249100*
X1407300*
X1409600Y1251400*
X1415000*
X1363100Y1249600D02*
Y1239400D01*
X1365400Y1237100*
Y1217300*
X1355100Y1240100D02*
X1361000Y1246000D01*
Y1255900*
X1366400Y1261300*
X1396900*
X1401800Y1256400*
X1414700*
Y1256600*
X1355100Y1240100D02*
Y1234400D01*
X1358900Y1230600*
X1357250Y1223800D02*
X1358900Y1225450D01*
Y1230600*
X1357250Y1223800D02*
Y1210370D01*
X1369620Y1198000*
Y1183170*
X1352450Y1208350D02*
X1366990Y1193810D01*
Y1181860*
X1388400Y1160450*
Y1092200*
X1410600Y1070000*
X1415000*
X1352450Y1208350D02*
Y1241750D01*
X1358300Y1247600*
Y1251700*
X1350850Y1253950D02*
X1356000Y1259100D01*
Y1289638*
X1361262Y1294900*
X1384500*
X1401700Y1277700*
X1417400*
X1350850Y1253950D02*
Y1207650D01*
X1355300Y1203200*
Y1196050*
X1364750Y1186600*
Y1181050*
X1384000Y1161800*
X1344900Y1255400D02*
X1353800Y1264300D01*
Y1290938*
X1359962Y1297100*
X1398900*
X1414500Y1281500*
X1344900Y1255400D02*
Y1208600D01*
X1353200Y1200300*
Y1193950*
X1361500Y1185650*
Y1180700*
X1380700Y1161500*
X1358590Y1235750D02*
X1360900Y1233440D01*
Y1222530*
X1368900Y1245500D02*
X1385000D01*
X1390100Y1240400*
X1413000*
X1421200Y1232200*
Y1190700*
X1375670Y1218400D02*
X1382500D01*
X1404400Y1196500*
X1414500*
X1361700Y1217100D02*
Y1212900D01*
X1397100Y1177500*
Y1118600*
X1409700Y1106000*
X1414500*
X1368900Y1217100D02*
X1378300Y1226500D01*
X1415400*
X1376350Y1187200D02*
X1394500Y1169050D01*
Y1117600*
X1411100Y1101000*
X1415500*
X1490500Y1190900D02*
X1488000Y1188400D01*
Y1184500*
X1490100Y1182400*
X1522600*
X1541200Y1201000*
X1597693*
X1601441Y1204748*
X1491500Y1184700D02*
X1515100D01*
X1538900Y1208500*
X1592201*
X1596323Y1212622*
X1499500Y1252700D02*
X1501000Y1254200D01*
Y1272300*
X1499500Y1252700D02*
Y1247900D01*
X1503500Y1243900*
X1556800Y1227000D02*
X1559300Y1224500D01*
X1614500*
X1618370Y1228370*
X1552400Y1227600D02*
X1554300Y1229500D01*
X1568800*
X1570700Y1231400*
X1609829*
X1612859Y1228370*
X1500162Y1229941D02*
X1503500Y1233279D01*
Y1243900*
X1501700Y1249000D02*
X1503700Y1251000D01*
X1500162Y1233090D02*
Y1235462D01*
X1501800Y1237100*
X1526300Y1240900D02*
X1540929D01*
X1544079Y1237750*
X1056740Y1312803D02*
X1058364Y1311180D01*
X1061822*
X1063882Y1313240*
X1068900*
X1056740Y1312803D02*
Y1317378D01*
X1061200Y1321838*
X1060453Y1264591D02*
X1068953Y1256091D01*
X1059840Y1314070D02*
X1062840Y1317070D01*
X1124600Y1335470D02*
X1152130Y1363000D01*
X1163000*
X1124600Y1335470D02*
Y1135252D01*
X1145552Y1114300*
Y1105522*
X1295500Y1330400D02*
X1303600Y1338500D01*
X1307900*
X1309700Y1340300*
Y1342900*
X1295500Y1330400D02*
Y1319100D01*
X1307100Y1307500*
X1311100*
X1323700Y1294900*
X1292100Y1332500D02*
Y1317200D01*
X1306200Y1303100*
X1310600*
X1315400Y1298300*
Y1271900*
X1292100Y1332500D02*
X1301600Y1342000D01*
X1306800*
X1297300D02*
X1288400Y1333100D01*
Y1313000*
X1300300Y1301100*
X1308000*
X1313400Y1295700*
X1305800Y1329300D02*
X1303200Y1326700D01*
Y1316614*
X1306114Y1313700*
X1338000*
X1349300Y1302400*
Y1301500*
X1298600Y1329300D02*
X1301200Y1326700D01*
Y1315786*
X1305286Y1311700*
X1337100*
X1347300Y1301500*
X1333100Y1288600D02*
X1333200Y1288500D01*
Y1279900*
X1339600Y1282014D02*
X1347300Y1289714D01*
Y1301500*
X1339600Y1282014D02*
Y1198400D01*
X1347900Y1190100*
Y1183000*
X1350700Y1180200*
Y1173400*
X1364600Y1159500*
Y1128886*
X1370600Y1122886*
X1341600Y1281186D02*
X1349300Y1288886D01*
Y1301500*
X1341600Y1281186D02*
Y1199300D01*
X1349900Y1191000*
Y1183900*
X1352700Y1181100*
Y1174300*
X1366600Y1160400*
Y1129714*
X1372600Y1123714*
Y1117100*
X1373800Y1115900*
X1362800Y1292500D02*
X1371500D01*
X1394800Y1269200*
X1415700*
X1432100Y1252800*
Y1196500*
X1361700Y1281700D02*
X1375900Y1267500D01*
X1413600*
X1428700Y1252400*
Y1195800*
X1496420Y1308320D02*
X1500000D01*
X1517300Y1325620*
Y1332900*
X1521200Y1336800*
X1529700*
X1534200Y1332300*
X1538500*
X1568700Y1280000D02*
Y1243400D01*
X1572200Y1239900*
X1597785*
X1601441Y1236244*
X1568700Y1280000D02*
X1585900Y1297200D01*
X1588300*
X1594200Y1303100*
X1566800Y1280100D02*
Y1238400D01*
X1572400Y1232800*
X1603509*
X1606953Y1236244*
X1566800Y1280100D02*
X1585900Y1299200D01*
X1587800*
X1592800Y1304200*
X1531500Y1291100D02*
X1519200Y1303400D01*
Y1330400*
X1523000Y1334200*
X1542300Y1319200D02*
X1546700D01*
X1554800Y1311100*
X1589500*
X1592800Y1307800*
Y1304200*
X1538440Y1275730D02*
X1540900Y1278190D01*
X1536500Y1318000D02*
Y1316500D01*
X1540900Y1312100*
Y1278190*
X1515800Y1267000D02*
X1517800Y1265000D01*
X1528100*
X1531500Y1268400*
Y1291100*
X1538500Y1332300D02*
X1557400Y1313400D01*
X1589600*
X1594200Y1308800*
Y1303100*
X1025100Y1401700D02*
X1032200Y1408800D01*
X1207120*
X1234920Y1381000*
X1248700*
X1254700Y1375000*
X1307400*
X1307500Y1374900*
X1315100Y1382500*
X1346400*
X1371400Y1357500*
X1422900*
X1434300Y1346100*
X1516900*
X1518600Y1347800*
X1529000*
X1530300Y1346500*
X1537000*
X1025100Y1401700D02*
Y1357500D01*
X1027900Y1354700*
X1047300*
X1048600Y1353400*
X1027000Y1358500D02*
X1029200Y1356300D01*
X1056500*
X1061200Y1351600*
Y1321838*
X1027000Y1358500D02*
Y1399900D01*
X1030200Y1403100*
X1051500*
X1053800Y1405400*
X1208540*
X1234440Y1379500*
X1246600*
X1252600Y1373500*
X1309000*
X1309010Y1373490*
X1312520Y1377000*
X1345000*
X1367900Y1354100*
X1421200*
X1436800Y1338500*
X1514200*
X1515700Y1340000*
X1537500*
X1028900Y1360100D02*
X1031000Y1358000D01*
X1058044*
X1062840Y1353203*
Y1317070*
X1028900Y1360100D02*
Y1397800D01*
X1032000Y1400900*
X1058100*
X1060700Y1403500*
X1185595*
X1194320Y1394775*
Y1394665*
X1213635*
X1232850Y1375450*
X1247250*
X1250700Y1372000*
X1309500*
X1313000Y1375500*
X1342000*
X1372000Y1345500*
X1417000*
X1428000Y1334500*
X1514500*
X1518300Y1338300*
X1534960*
X1537570Y1335690*
X1023200Y1403000D02*
Y1356170D01*
X1031800Y1347570*
X1058490*
X1023200Y1403000D02*
X1032200Y1412000D01*
X1205900*
X1235400Y1382500*
X1251000*
X1256500Y1377000*
X1306416*
X1313876Y1384460*
X1349100*
X1374160Y1359400*
X1424300*
X1428900Y1354800*
X1526700*
X1532000Y1349500*
X1538500*
X1032200Y1397300D02*
X1039000Y1390500D01*
X1061700*
X1070700Y1381500*
X1212600*
X1234800Y1359300*
X1327600*
X1353800Y1333100*
X1405500*
X1433300Y1305300*
X1460300*
X1498000Y1267600*
Y1245400*
X1045800Y1397800D02*
X1057400D01*
X1059800Y1400200*
X1185350*
X1194000Y1391550*
X1214050*
X1235100Y1370500*
X1339212*
X1365912Y1343800*
X1408900*
X1434600Y1318100*
X1461400*
X1490400Y1289100*
X1494500*
X1506200Y1277400*
Y1240000*
X1512400Y1233800*
X1036400Y1398000D02*
X1038800Y1395600D01*
X1180950*
X1192550Y1384000*
X1212600*
X1235500Y1361100*
X1333300*
X1358600Y1335800*
X1405700*
X1434200Y1307300*
X1466000*
X1501000Y1272300*
X1060800Y1398000D02*
Y1398200D01*
X1182950*
X1194650Y1386500*
X1216800*
X1234380Y1368920*
X1245780*
X1249700Y1365000*
X1337380*
X1360880Y1341500*
X1406700*
X1434600Y1313600*
X1462600*
X1503700Y1272500*
Y1251000*
X1034500Y1371000D02*
X1044500Y1361000D01*
X1111000*
X1125900Y1375900*
X1216100*
X1234600Y1357400*
X1325700*
X1352100Y1331000*
X1404700*
X1432200Y1303500*
X1459260*
X1494900Y1267860*
Y1244600*
X1496700Y1242800*
X1499812*
X1501800Y1240811*
Y1237100*
X1031700Y1361600D02*
X1033800Y1359500D01*
X1112500*
X1126600Y1373600*
X1206400*
X1224400Y1355600*
X1324600*
X1351700Y1328500*
X1403700*
X1430700Y1301500*
X1458300*
X1493500Y1266300*
Y1242800*
X1495700Y1240600*
X1498900*
X1163000Y1363000D02*
X1209800D01*
X1223400Y1349400*
X1319600*
X1354500Y1314500*
X1402500*
X1235900Y1392050D02*
X1244994D01*
X1253049Y1383995*
X1275485*
X1279100Y1380380*
Y1380100*
X1204000Y1367000D02*
X1208000D01*
X1223500Y1351500*
X1321900*
X1356427Y1316974*
X1356453Y1317000*
X1400000*
X1181100Y1359500D02*
X1210400D01*
X1222500Y1347400*
X1318600*
X1366700Y1299300*
X1457800*
X1489740Y1267360*
Y1264420*
X1220600Y1379300D02*
X1220700Y1379400D01*
X1232900Y1367200*
X1244400*
X1248300Y1363300*
X1334300*
X1358400Y1339200*
X1404900*
X1434100Y1310000*
X1454700*
X1286200Y1342400D02*
X1291500D01*
X1293800Y1344700*
X1307900*
X1309700Y1342900*
X1190600Y1746500D02*
X1428100D01*
Y1682172*
X1190600*
Y1746500*
X1538500Y1492000D02*
Y1484500D01*
X1543500Y1492000D02*
Y1484500D01*
X1548500Y1492000D02*
Y1484500D01*
X1553500Y1492000D02*
Y1484500D01*
X1558500Y1492000D02*
Y1484500D01*
X1563500Y1492000D02*
Y1484500D01*
X1568500Y1492000D02*
Y1484500D01*
X1573500Y1492000D02*
Y1484500D01*
X1533500Y1492000D02*
X1578500D01*
Y1484500*
X1533500*
Y1492000*
G54D87*
X1079480Y1086880D02*
X1080100Y1087500D01*
Y1090600*
X1079480Y1086880D02*
Y1081600D01*
X1085000Y1076000*
X1095835*
X1097435Y1077600*
X1112500*
X1114600Y1075500*
X1135500*
X1136100Y1076100*
X1159800*
X1163850Y1072050*
X1165970*
X1167300Y1070720*
Y1068972*
X1178067Y1058205*
Y1057233*
X1181000Y1054300*
X1096700Y1068500D02*
X1098700Y1070500D01*
X1102112*
X1104050Y1068561*
Y1066600*
X1107050Y1063600*
X1128500*
X1134900Y1057200*
X1138650*
X1139650Y1056200*
X1141300*
X1141300*
X1142387*
X1143600Y1057413*
Y1058787*
X1144913Y1060100*
X1148000*
X1148400Y1060500*
X1150850*
X1152350Y1062000*
X1158690*
X1161600Y1059090*
Y1054972*
X1163270Y1053302*
Y1049680*
X1165950Y1047000*
X1187600*
X1188859Y1048259*
Y1050404*
X1094100Y1087000D02*
X1123500D01*
X1126900Y1083600*
X1166230*
X1171190Y1078640*
Y1077320*
X1172410Y1076100*
X1173890*
X1178490Y1071500*
Y1065970*
X1180220Y1064240*
X1182000*
X1183940Y1062300*
X1184900*
X1082700Y1088300D02*
Y1086100D01*
X1085500Y1083300*
X1124950*
X1126350Y1081900*
X1164090*
X1167180Y1078810*
Y1077270*
X1168420Y1076030*
X1170060*
X1171300Y1074790*
Y1072950*
X1176400Y1067850*
Y1065810*
X1178900Y1063310*
Y1061472*
X1180072Y1060300*
X1181929*
X1183100Y1059129*
Y1056300*
X1185100Y1054300*
X1082000Y1083200D02*
X1084078Y1081122D01*
X1113778*
X1116600Y1078300*
X1124432*
X1126332Y1080200*
X1158270*
X1162540Y1075930*
X1166020*
X1167270Y1074680*
Y1073440*
X1168560Y1072150*
X1170040*
X1171300Y1070890*
Y1067800*
X1176900Y1062200*
X1081800Y1070000D02*
X1084400Y1072600D01*
X1102080*
X1103780Y1070900*
X1127800*
X1134500Y1064200*
X1138710*
X1142610Y1068100*
X1148470*
X1150570Y1066000*
X1159990*
X1167000Y1058990*
Y1057610*
X1168260Y1056350*
X1169740*
X1171050Y1055040*
Y1053760*
X1172480Y1052330*
X1175070*
X1176996Y1050404*
X1180985*
X1066900Y1067500D02*
X1076800D01*
X1078100Y1066200*
X1098600*
X1103900Y1060900*
X1121700*
X1125800Y1056800*
Y1050500*
X1127900Y1048400*
X1139185*
X1141785Y1051000*
X1144544*
X1145544Y1052000*
X1154000*
X1155500Y1053500*
Y1056426*
X1157474Y1058400*
X1091900Y1078200D02*
X1094700D01*
X1095700Y1079200*
X1114000*
X1116300Y1076900*
X1124730*
X1126030Y1078200*
X1137700*
X1080100Y1094200D02*
X1119700D01*
X1128200Y1085700*
X1137600*
X1174600Y1101887D02*
X1176249Y1103536D01*
X1177859*
X1179049Y1104726*
Y1113626*
X1207619Y1142196*
X1298926*
X1301900Y1145170*
Y1157000*
X1174600Y1101887D02*
Y1100700D01*
X1175700Y1099600*
X1177787*
X1179787Y1097600*
X1181000*
X1106900Y1068800D02*
X1127100D01*
X1135800Y1060100*
X1138429*
X1139600Y1061272*
Y1063029*
X1140872Y1064300*
X1158370*
X1163000Y1059670*
Y1057472*
X1164222Y1056250*
X1165979*
X1167100Y1055129*
Y1053600*
X1168300Y1052400*
X1169865*
X1171100Y1051165*
Y1049500*
X1172196Y1048404*
X1186400*
X1186859Y1048863*
Y1051232*
X1188027Y1052400*
X1189796*
X1190800Y1053404*
Y1056400*
X1104300Y1075400D02*
X1109000D01*
X1110100Y1074300*
X1134300*
X1136540Y1072060*
X1160170*
X1168040Y1064190*
X1169900*
X1175100Y1058990*
Y1057510*
X1180210Y1052400*
X1186130*
X1187000Y1053270*
Y1056400*
X1101200Y1068300D02*
Y1066500D01*
X1105300Y1062400*
X1124194*
X1131600Y1054994*
Y1053713*
X1133043Y1052270*
X1142347*
X1143490Y1053413*
Y1054777*
X1144913Y1056200*
X1150090*
X1151600Y1057710*
Y1059000*
X1152900Y1060300*
X1158270*
X1159900Y1058670*
Y1053720*
X1162010Y1051610*
Y1049240*
X1165450Y1045800*
X1187600*
X1187600*
X1188467*
X1190900Y1048233*
Y1051000*
X1192700Y1052800*
Y1054200*
X1109800Y1065700D02*
X1128200D01*
X1135200Y1058700*
X1139500*
X1141581Y1060781*
Y1062181*
X1141600Y1062200*
X1173100Y1054400D02*
Y1055096D01*
X1173106Y1055102*
X1099000Y1074700D02*
X1101885D01*
X1103785Y1072800*
X1127600*
X1132300Y1068100*
X1139580*
X1141080Y1069600*
X1149830*
X1151430Y1068000*
X1162200*
X1171100Y1059100*
Y1057108*
X1173106Y1055102*
X1235378Y1061922D02*
X1236674Y1060626D01*
X1216570Y1065030D02*
X1214779Y1063239D01*
Y1048901*
X1216579Y1047101*
Y1039926*
X1223079Y1033426*
Y1026126*
X1232579Y1016626*
X1376200*
X1400100Y1040526*
X1427079*
X1446279Y1059726*
Y1170569*
X1462210Y1186500*
X1481099*
X1487725Y1193126*
X1513620*
X1556079Y1235585*
Y1271217*
X1586816Y1301954*
X1587354*
X1590400Y1305000*
X1235375Y1061922D02*
X1240579Y1056718D01*
Y1042626*
X1244079Y1039126*
X1252279*
X1253779Y1037626*
X1265326*
X1269800Y1042100*
X1235375Y1061922D02*
X1235378D01*
X1179085Y1100715D02*
X1180200Y1099600D01*
X1181700*
X1182900Y1098400*
Y1095626*
X1179085Y1100715D02*
Y1102387D01*
X1180298Y1103600*
X1181900*
X1183000Y1104700*
Y1106287*
X1184213Y1107500*
X1185650*
X1186900Y1108750*
Y1110300*
X1188000Y1111400*
X1235305*
X1248579Y1098126*
X1257079*
X1261079Y1094126*
Y1079626*
X1192774Y1070126D02*
X1216374D01*
X1225079Y1061421*
Y1043126*
X1231579Y1036626*
Y1030626*
X1238079Y1024126*
X1264079*
X1267779Y1027826*
X1275288*
X1279853Y1032391*
X1188859Y1089774D02*
X1189708D01*
X1191608Y1091674*
X1223376*
X1249629Y1065421*
Y1055576*
X1254079Y1051126*
X1184922Y1085837D02*
X1186885Y1087800D01*
X1188500*
X1188505Y1087796*
X1188596*
X1188600Y1087800*
X1223536*
X1232579Y1078757*
Y1073126*
X1246579Y1059126*
Y1047126*
X1248079Y1045626*
X1192774Y1074063D02*
X1216134D01*
X1228079Y1062118*
Y1044626*
X1236079Y1036626*
Y1031626*
X1240079Y1027626*
X1262079*
X1265079Y1030626*
X1188837Y1070126D02*
X1190801Y1072090D01*
X1216410*
X1226579Y1061921*
Y1043626*
X1233079Y1037126*
Y1031626*
X1239079Y1025626*
X1263579*
X1267953Y1030000*
X1272000*
X1192774Y1078000D02*
X1215900D01*
X1237579Y1056321*
Y1041821*
X1243274Y1036126*
X1250579*
X1252079Y1034626*
X1273079*
X1277955Y1039502*
Y1042538*
X1188900Y1058300D02*
X1190800Y1056400D01*
X1185100Y1058300D02*
X1187000Y1056400D01*
X1184900Y1070126D02*
X1186100D01*
X1188006Y1068220*
X1216280*
X1223579Y1060921*
Y1042126*
X1230079Y1035626*
Y1029626*
X1237079Y1022626*
X1264579*
X1268579Y1026626*
X1278025*
X1283790Y1032391*
X1184900Y1074063D02*
X1186877Y1076040D01*
X1189570*
X1190810Y1077280*
Y1078730*
X1192080Y1080000*
X1215600*
X1239079Y1056521*
Y1042126*
X1243579Y1037626*
X1251279*
X1252779Y1036126*
X1270579*
X1276055Y1041602*
Y1043325*
X1277356Y1044626*
X1279815*
X1280680Y1043761*
Y1042440*
X1184922Y1093711D02*
X1186900Y1095689D01*
Y1102313*
X1188087Y1103500*
X1189700*
X1189928Y1103737*
X1190900Y1104710*
Y1106300*
X1192100Y1107500*
X1225205*
X1247079Y1085626*
X1250418*
X1253079Y1082965*
Y1081626*
X1192796Y1093711D02*
X1196579D01*
X1198868Y1096000*
X1211079*
X1213368Y1093711*
X1223994*
X1254079Y1063626*
X1184922Y1089774D02*
X1186848Y1091700D01*
X1189535*
X1190800Y1092965*
Y1094402*
X1192098Y1095700*
X1195079*
X1197005Y1097626*
X1212579*
X1214505Y1095700*
X1225079*
X1255979Y1064800*
Y1061026*
X1254579Y1059626D02*
X1255979Y1061026D01*
X1188859Y1097648D02*
Y1098898D01*
X1193087Y1103126*
X1216174*
X1218400Y1100900*
X1226079*
X1248853Y1078126*
X1254079*
X1267605Y1064600*
X1271100*
X1193100Y1097700D02*
Y1097600D01*
X1194800Y1099300*
X1213079*
X1214679Y1097700*
X1225079*
X1262653Y1060126*
X1268579*
X1216800Y1055500D02*
X1219579Y1052721D01*
Y1041347*
X1227079Y1033847*
Y1027626*
X1235079Y1019626*
X1265800*
X1270074Y1023900*
X1283079*
X1291905Y1032726*
X1384700*
X1396974Y1045000*
X1425340*
X1442579Y1062239*
Y1177017*
X1458162Y1192600*
X1480500*
X1484000Y1196100*
X1513000*
X1525066Y1208166*
Y1214635*
X1530931Y1220500*
X1537600*
X1553200Y1236100*
Y1279300*
X1578900Y1305000*
X1216750Y1050800D02*
X1218079Y1049471D01*
Y1040426*
X1225079Y1033426*
Y1027126*
X1234079Y1018126*
X1373600*
X1398200Y1042726*
X1426579*
X1444079Y1060226*
Y1170066*
X1462213Y1188200*
X1479600*
X1486126Y1194726*
X1513523*
X1554479Y1235682*
Y1272579*
X1586900Y1305000*
X1180900Y1062300D02*
X1182000D01*
X1184000Y1060300*
X1198079*
X1211579Y1046800*
Y1042421*
X1221079Y1032921*
Y1024126*
X1230079Y1015126*
X1387579*
X1410753Y1038300*
X1431410*
X1448461Y1055351*
Y1141762*
X1456900Y1150200*
X1504180*
X1520020Y1166040*
X1218600Y1062800D02*
X1220079Y1061401D01*
X1221079Y1060401*
Y1042647*
X1228579Y1035147*
Y1028126*
X1235579Y1021126*
X1265079*
X1269079Y1025126*
X1282079*
X1291779Y1034826*
X1383500*
X1396074Y1047400*
X1424960*
X1441000Y1063440*
Y1178800*
X1458900Y1196700*
X1472700*
X1473500Y1195900*
X1480200*
X1482000Y1197700*
X1511300*
X1523800Y1210200*
Y1215067*
X1530434Y1221700*
X1536800*
X1551600Y1236500*
Y1283300*
X1575800Y1307500*
X1580400*
X1582900Y1305000*
X1188837Y1078000D02*
Y1079910D01*
X1190427Y1081500*
X1215800*
X1235378Y1061922*
X1192800Y1085900D02*
X1222805D01*
X1231079Y1077626*
Y1072126*
X1245079Y1058126*
Y1045626*
X1247079Y1043626*
X1264579*
X1267079Y1046126*
X1268579*
X1184900Y1078000D02*
X1189600Y1082700D01*
X1216297*
X1242079Y1056918*
Y1043626*
X1245079Y1040626*
X1253079*
X1254579Y1039126*
X1262579*
X1267579Y1044126*
X1272359*
X1273948Y1042538*
X1188859Y1085837D02*
X1190696Y1084000D01*
X1222079*
X1229100Y1076979*
Y1071594*
X1243579Y1057115*
Y1045126*
X1246579Y1042126*
X1255579*
X1256579Y1041126*
X1188837Y1074063D02*
X1189683D01*
X1191650Y1076030*
X1216167*
X1232579Y1059618*
Y1043126*
X1237579Y1038126*
Y1032400*
X1239353Y1030626*
X1261579*
X1263579Y1032626*
X1275847*
X1285759Y1042538*
X1180985Y1093711D02*
X1182900Y1095626D01*
X1188859Y1093711D02*
Y1094961D01*
X1190900Y1097002*
Y1098287*
X1193739Y1101126*
X1213953*
X1215779Y1099300*
X1225579*
X1262679Y1062200*
X1266900*
X1192796Y1089774D02*
X1223579D01*
X1234410Y1078943*
Y1073295*
X1248079Y1059626*
Y1054126*
X1254079Y1048126*
X1271100Y1064600D02*
X1271153D01*
X1358000Y1069500D02*
X1360000Y1067500D01*
X1416200*
X1427700Y1079000*
Y1188400*
X1476100Y1236800*
Y1266170*
X1481390Y1271460*
X1045379Y1127626D02*
X1053879Y1119126D01*
X1057979*
X1071779Y1105326*
X1115900*
X1129500Y1091726*
X1169909*
X1171179Y1090456*
Y1085082*
X1174335Y1081926*
X1175961*
X1182279Y1075608*
Y1070060*
X1184213Y1068126*
X1185650*
X1186879Y1066897*
Y1065460*
X1188113Y1064226*
X1190874*
X1192900Y1062200*
X1045379Y1127626D02*
Y1157991D01*
X1050900Y1163512*
X1044179Y1125626D02*
Y1160631D01*
X1049700Y1166152*
X1044179Y1125626D02*
X1052179Y1117626D01*
X1056761*
X1072261Y1102126*
X1113800*
X1128200Y1087726*
X1141584*
X1141684Y1087826*
X1165935*
X1167179Y1086582*
Y1085145*
X1170398Y1081926*
X1171961*
X1175179Y1078708*
Y1076921*
X1180379Y1071721*
Y1069862*
X1182979Y1067262*
Y1065423*
X1184176Y1064226*
X1185661*
X1187587Y1062300*
X1188900*
X1042979Y1124726D02*
X1050979Y1116726D01*
Y1108030*
X1060779Y1098230*
Y1070652*
X1067205Y1064226*
X1098850*
X1104050Y1059026*
X1118061*
X1123579Y1053508*
Y1051024*
X1127477Y1047126*
X1150026*
X1152000Y1049100*
X1042979Y1124726D02*
Y1163879D01*
X1047600Y1168500*
X1041779Y1123912D02*
X1047479Y1118212D01*
Y1108030*
X1057179Y1098330*
Y1071365*
X1066218Y1062326*
X1099023*
X1103523Y1057826*
X1114244*
X1118679Y1053391*
Y1053034*
X1125787Y1045926*
X1152026*
X1155400Y1049300*
X1041779Y1123912D02*
Y1172279D01*
X1048000Y1178500*
X1034500Y1172000D02*
X1039979Y1166521D01*
Y1112726*
X1053579Y1099126*
Y1072334*
X1068287Y1057626*
X1080906*
X1083406Y1060126*
X1099495*
X1102995Y1056626*
X1109851*
X1113579Y1052898*
Y1049134*
X1118587Y1044126*
X1152913*
X1157500Y1048713*
Y1054300*
X1052879Y1125526D02*
X1057779Y1120626D01*
X1059753*
X1071779Y1108600*
X1115900*
X1128860Y1095640*
X1139686*
X1141615Y1093711*
X1048000Y1175000D02*
X1050900Y1172100D01*
Y1163512*
X1048000Y1171500D02*
X1049700Y1169800D01*
Y1166152*
X1165790Y1166770D02*
Y1166850D01*
X1173200Y1174260*
X1183022Y1102372D02*
X1184150Y1103500D01*
X1185587*
X1186900Y1104813*
Y1106400*
X1188000Y1107500*
X1190200*
X1191500Y1108800*
X1227579*
X1245253Y1091126*
X1248918*
X1257579Y1082465*
Y1080126*
X1261205Y1076500*
X1268500*
X1183022Y1102372D02*
Y1100700D01*
X1184922Y1098800*
Y1097648*
X1180985Y1105522D02*
Y1112146D01*
X1185965Y1117126*
X1254579*
X1267079Y1104626*
X1278079*
X1301579Y1081126*
X1318579*
X1320579Y1079126*
X1331579*
X1346579Y1064126*
X1405200*
X1406700Y1065626*
X1416023*
X1429079Y1078682*
Y1186676*
X1459029Y1216626*
X1470139*
X1479139Y1225626*
X1500973*
X1506973Y1231626*
X1522600*
X1524079Y1233105*
Y1236800*
X1525179Y1237900*
X1531500*
X1533774Y1235626*
X1540426*
X1541900Y1237100*
X1184922Y1109459D02*
Y1110364D01*
X1189854Y1115296*
X1247079*
X1270249Y1092126*
X1288079*
X1300579Y1079626*
X1312079*
X1315079Y1076626*
X1327079*
X1342079Y1061626*
X1409374*
X1410800Y1060200*
X1415000*
X1431000Y1076200*
Y1185938*
X1459126Y1214065*
X1475885*
X1483265Y1221444*
X1500304*
X1508002Y1229142*
X1524042*
X1526600Y1231700*
X1328500Y1143900D02*
Y1160500D01*
X1331200Y1163200*
X1328500Y1143900D02*
X1331500Y1140900D01*
Y1137300*
X1330600Y1145300D02*
X1334000Y1141900D01*
Y1134200*
X1330600Y1145300D02*
Y1156000D01*
X1334200Y1159600*
X1300200Y1158700D02*
X1301900Y1157000D01*
X1069600Y1204500D02*
X1068100Y1203000D01*
Y1168400*
X1136900Y1099600*
X1149190*
X1152990Y1095800*
X1169987*
X1171200Y1094587*
Y1093113*
X1172513Y1091800*
X1173772*
X1177048Y1088524*
Y1085837*
X1067500Y1213600D02*
Y1222130D01*
X1114800Y1269430*
Y1330300*
X1151500Y1367000*
X1204000*
X1067500Y1213600D02*
X1076000Y1205100D01*
Y1163263*
X1137678Y1101585*
X1069440Y1220200D02*
X1078120Y1211520D01*
Y1168700*
X1134100Y1112720*
Y1112100*
X1144700Y1101500*
X1153675*
X1157375Y1097800*
X1162100Y1208800D02*
X1166070Y1204830D01*
Y1171130*
X1162100Y1208800D02*
Y1218900D01*
X1166700Y1223500*
X1166450Y1219030D02*
X1169800Y1216500D01*
Y1190490*
X1169840Y1190450*
Y1190340*
X1173200Y1186980*
Y1174260*
X1490000Y1187000D02*
X1513400D01*
X1537200Y1210800*
X1541200*
X1546991Y1216591*
X1597866*
X1601835Y1212622*
X1507900Y1241700D02*
Y1270200D01*
X1512000Y1274300*
X1523060*
X1525940Y1277180*
X1507900Y1241700D02*
X1515700Y1233900D01*
X1521400*
X1516100Y1237900D02*
X1517300Y1239100D01*
Y1247400*
X1496300Y1294200D02*
Y1289947D01*
X1508847Y1277400*
X1522200*
X1509100Y1268738D02*
Y1242200D01*
X1515500Y1235800*
X1518300*
X1518600Y1236100*
X1509100Y1268738D02*
X1512462Y1272100D01*
X1524010*
X1525940Y1274030*
X1510300Y1266938D02*
Y1254400D01*
X1517300Y1247400*
X1510300Y1266938D02*
X1512462Y1269100D01*
X1518600*
X1519969Y1267731*
X1525940*
Y1274030D02*
X1527840Y1275930D01*
X1505600Y1298800D02*
X1510600D01*
X1527840Y1281560*
Y1275930*
X1499600Y1291900D02*
Y1291730D01*
X1514900*
X1525940Y1280690*
Y1277180*
Y1267731D02*
X1529500Y1271291D01*
X1501700Y1300700D02*
X1512100D01*
X1529500Y1283300*
Y1271291*
G54D88*
X1139000Y1447500D02*
Y1457500D01*
G54D90*
X1268300Y1295500D02*
X1277400Y1286400D01*
Y1284700*
X1285600Y1276500*
G54D91*
X1269579Y1053126D02*
X1271579D01*
X1277579Y1047126*
X1284718*
X1285718Y1048126*
X1292079*
X1298079Y1042126*
X1314020*
X1323994Y1052100*
X1419700*
X1439000Y1071400*
Y1184700*
X1457500Y1203200*
X1512200*
X1521100Y1212100*
Y1214700*
X1529900Y1223500*
X1535500*
X1546900Y1234900*
X1526900Y1334300D02*
X1531000Y1330200D01*
Y1308500*
X1534800Y1304700*
Y1261400*
X1546900Y1249300*
Y1234900*
G54D92*
X1121000Y1080800D03*
X1129000Y1054200D03*
X1311500Y1026500D03*
X1339000Y1146000D03*
X1098000Y1313630D03*
X1092500Y1315000D03*
Y1320000D03*
X1102000Y1313630D03*
X1150000Y1331500D03*
X1149500Y1322000D03*
X1283500Y1285000D03*
X1285900Y1332400D03*
X1318900Y1332700D03*
X1525500Y1304000D03*
G54D97*
X1088079Y1004126D03*
X1078079D03*
X1068079D03*
X1058079D03*
X1059579Y1016126D03*
X1108079Y1004126D03*
X1214079D03*
X1224079D03*
X1234079D03*
X1244079D03*
X1254079D03*
X1264079D03*
X1274079D03*
X1284079D03*
X1294079D03*
X1304079D03*
X1314079D03*
X1324079D03*
X1334079D03*
X1281000Y1021100D03*
X1272400Y1021800D03*
X1344079Y1004126D03*
X1354079D03*
X1364079D03*
X1374079D03*
X1384079D03*
X1394079D03*
X1404079D03*
X1414079D03*
X1424079D03*
X1434079D03*
X1444079D03*
X1454079D03*
X1464079D03*
X1474079D03*
X1484079D03*
X1494079D03*
X1574079D03*
X1564079D03*
X1554079D03*
X1544079D03*
X1534079D03*
X1524079D03*
X1514079D03*
X1504079D03*
X1594079D03*
X1584079D03*
X1096700Y1068500D03*
X1094100Y1087000D03*
X1082700Y1088300D03*
X1080100Y1090600D03*
X1082000Y1083200D03*
X1081800Y1070000D03*
X1064500Y1049900D03*
X1064600Y1053900D03*
X1062000Y1030500D03*
X1066900Y1067500D03*
X1091900Y1078200D03*
X1092600Y1097900D03*
X1087100Y1069700D03*
Y1086200D03*
X1069300Y1049400D03*
X1075579Y1050626D03*
X1076079Y1038126D03*
X1053000Y1032300D03*
X1049700Y1050700D03*
X1046579Y1069126D03*
X1043579Y1087126D03*
X1072579Y1053126D03*
X1080100Y1094200D03*
X1106900Y1068800D03*
X1104300Y1075400D03*
X1101200Y1068300D03*
X1109800Y1065700D03*
X1103900Y1049800D03*
X1107300Y1050000D03*
X1142850Y1036950D03*
X1099000Y1074700D03*
X1116400Y1052700D03*
X1146200Y1032400D03*
X1174300Y1033000D03*
X1166000Y1032400D03*
X1164600Y1040330D03*
X1177800Y1032800D03*
X1237079Y1073626D03*
X1235079Y1048126D03*
X1249579Y1033626D03*
X1255079Y1074126D03*
X1252079Y1057626D03*
X1240079Y1033626D03*
X1243079D03*
X1246079D03*
X1255579Y1056626D03*
X1185900Y1033100D03*
X1193080Y1050120D03*
X1204900Y1058300D03*
X1258579Y1100126D03*
X1282579Y1062126D03*
X1269579Y1053126D03*
X1270579Y1049626D03*
X1278900Y1076600D03*
X1274579Y1076626D03*
X1275000Y1057500D03*
X1281400Y1058000D03*
X1303579Y1076626D03*
X1290500Y1024300D03*
X1278500Y1056800D03*
X1283000Y1050000D03*
X1300000Y1076500D03*
X1265579Y1047626D03*
X1266700Y1055300D03*
X1321579Y1068626D03*
X1314579Y1087126D03*
X1285079Y1086626D03*
X1308500Y1049000D03*
X1334000Y1100000D03*
X1292579Y1081126D03*
X1336000Y1071500D03*
X1334000Y1023500D03*
X1323079Y1065126D03*
X1325000Y1044500D03*
X1329500D03*
X1321579Y1084626D03*
X1317800Y1099900D03*
X1325579Y1087626D03*
X1320000Y1044500D03*
X1309500Y1076000D03*
X1319500Y1053000D03*
X1305000Y1029000D03*
X1287900Y1065600D03*
X1300000Y1045500D03*
X1287500Y1051500D03*
X1308000Y1065500D03*
X1365900Y1075600D03*
X1372900Y1083300D03*
X1414800Y1075000D03*
X1415500Y1101000D03*
X1365900Y1072000D03*
X1369300Y1083300D03*
X1415000Y1070000D03*
X1358000Y1069500D03*
X1353000Y1042000D03*
X1358000Y1037500D03*
Y1084500D03*
X1340750Y1100000D03*
X1403500Y1071000D03*
X1403710Y1100980D03*
X1405500Y1092000D03*
Y1083500D03*
X1405000Y1059500D03*
X1343579Y1075626D03*
X1414800Y1080000D03*
X1414500Y1095000D03*
Y1063000D03*
X1365420Y1091040D03*
X1359000Y1024500D03*
X1487000Y1095500D03*
X1478800Y1070500D03*
X1483300Y1058190D03*
X1481300Y1082800D03*
X1478200Y1057800D03*
X1488200Y1058100D03*
X1491400Y1094700D03*
X1435400Y1082000D03*
Y1093400D03*
Y1061300D03*
X1425000Y1081500D03*
X1425500Y1094300D03*
Y1062900D03*
X1516900Y1086300D03*
X1560700Y1090900D03*
X1508900Y1054300D03*
X1557100Y1052700D03*
X1542900Y1061600D03*
X1544100Y1097500D03*
X1034500Y1172000D03*
X1034100Y1163200D03*
X1047500Y1151000D03*
X1052879Y1125526D03*
X1048000Y1175000D03*
Y1171500D03*
X1047500Y1155000D03*
X1054300Y1115000D03*
X1059779Y1123026D03*
X1056779Y1126126D03*
X1053379Y1130726D03*
X1049979Y1129226D03*
X1047600Y1168500D03*
X1048000Y1178500D03*
X1093500Y1132000D03*
X1040579Y1104626D03*
X1043079Y1119326D03*
X1050479Y1135526D03*
X1032979Y1159626D03*
X1030800Y1180500D03*
X1165500Y1162540D03*
X1149800Y1119400D03*
X1154900Y1178800D03*
X1152780Y1164660D03*
X1146400Y1119300D03*
X1152680Y1175260D03*
X1173250Y1152680D03*
X1152680Y1170960D03*
X1234200Y1163700D03*
X1220079Y1159786D03*
X1193300Y1176900D03*
X1237300Y1164800D03*
X1192600Y1180600D03*
X1233300Y1159200D03*
X1190200Y1166600D03*
X1213600Y1125300D03*
X1252400Y1180400D03*
X1248400Y1167800D03*
X1235779Y1178956D03*
X1247600Y1174700D03*
X1208000Y1175500D03*
X1235849Y1175386D03*
X1225600Y1149300D03*
X1216600Y1149400D03*
X1252300Y1176800D03*
X1248200Y1163200D03*
X1200600Y1164500D03*
X1244286Y1173047D03*
X1188500Y1134000D03*
X1305600Y1180500D03*
X1324000Y1138000D03*
X1326500Y1163500D03*
X1338700Y1117200D03*
X1295100Y1134600D03*
X1310200Y1110000D03*
X1279579Y1107626D03*
X1298079Y1150626D03*
X1299000Y1125000D03*
X1288079Y1120126D03*
X1322350Y1172850D03*
X1290500Y1124000D03*
X1315900Y1106100D03*
X1333500Y1113000D03*
X1317100Y1131200D03*
X1337200Y1138500D03*
X1269400Y1178300D03*
X1298000Y1180600D03*
X1299000Y1137500D03*
X1297579Y1146626D03*
X1285579Y1110626D03*
X1307200Y1137000D03*
X1295500Y1114000D03*
X1284000Y1171700D03*
X1334000Y1134200D03*
X1334200Y1159600D03*
X1298000Y1171961D03*
X1305600Y1171761D03*
X1317880Y1171700D03*
X1285500Y1177900D03*
X1331200Y1163200D03*
X1331500Y1137300D03*
X1328000Y1112500D03*
X1295800Y1162500D03*
X1299500Y1103500D03*
Y1128500D03*
X1283800Y1181700D03*
X1290579Y1116626D03*
X1334500Y1126000D03*
X1333500Y1151000D03*
X1315600Y1118400D03*
X1316300Y1144200D03*
X1280579Y1123126D03*
X1268079Y1102126D03*
X1334500Y1129000D03*
X1336500Y1156500D03*
X1319000D03*
X1320100Y1131300D03*
X1319000Y1106000D03*
X1334000Y1103500D03*
X1323000Y1114000D03*
X1292000Y1127500D03*
X1322400Y1140900D03*
X1317500Y1124500D03*
Y1150500D03*
X1333500Y1155000D03*
X1367500Y1163000D03*
X1375000Y1150400D03*
X1370500Y1133000D03*
X1375500Y1129500D03*
X1359300Y1144800D03*
X1339500Y1114000D03*
X1414600Y1136500D03*
X1414900Y1166500D03*
X1346900Y1145900D03*
X1414500Y1161500D03*
Y1106000D03*
X1371400Y1150400D03*
X1369400Y1115300D03*
X1344800Y1136900D03*
X1377500Y1117800D03*
X1367500Y1167000D03*
X1414500Y1132500D03*
X1370000Y1138000D03*
X1373800Y1115900D03*
X1370100Y1108900D03*
X1370300Y1104600D03*
X1348500Y1153000D03*
X1360300Y1160300D03*
X1344100Y1172400D03*
X1403500Y1162500D03*
Y1133500D03*
X1405500Y1174500D03*
X1340200Y1153300D03*
X1369000Y1142000D03*
X1405500Y1145300D03*
Y1153600D03*
Y1123000D03*
Y1114500D03*
X1354900Y1160900D03*
X1415000Y1171500D03*
X1414500Y1141500D03*
X1414400Y1111000D03*
X1414500Y1155000D03*
X1415000Y1125000D03*
X1371500Y1129600D03*
X1358600Y1171700D03*
X1481700Y1108100D03*
X1435400Y1113200D03*
Y1153000D03*
Y1122800D03*
Y1144600D03*
Y1173800D03*
X1425100Y1114500D03*
X1425400Y1144200D03*
X1425200Y1173500D03*
X1425600Y1154900D03*
X1425500Y1125000D03*
X1520020Y1166040D03*
X1533000Y1163980D03*
X1536000Y1161420D03*
X1533000Y1158860D03*
X1505500Y1168000D03*
X1547500Y1176000D03*
Y1169500D03*
X1505500Y1172000D03*
X1030000Y1248500D03*
X1035500Y1232500D03*
X1031500Y1216000D03*
X1030479Y1197226D03*
X1033500Y1199500D03*
X1059400Y1252400D03*
X1080480Y1182400D03*
X1053700Y1248700D03*
X1081000Y1195500D03*
X1081500Y1200500D03*
X1032000Y1255700D03*
X1087000Y1190500D03*
Y1215500D03*
X1048400Y1246100D03*
X1087000Y1231500D03*
X1070200Y1201400D03*
X1080500Y1192000D03*
X1047600Y1182700D03*
X1045700Y1185900D03*
X1034100Y1220300D03*
X1037950Y1244200D03*
X1025979Y1197626D03*
X1026279Y1215526D03*
X1020979Y1234526D03*
X1019779Y1253026D03*
X1178710Y1236000D03*
Y1184900D03*
X1158700Y1231600D03*
X1173250Y1258880D03*
Y1205480D03*
X1156200Y1228000D03*
X1156300Y1219000D03*
X1156200Y1223500D03*
X1220099Y1213496D03*
X1219300Y1200500D03*
X1225200Y1254100D03*
X1233300Y1212800D03*
X1189700Y1219100D03*
X1193400Y1221900D03*
X1234200Y1217300D03*
X1195600Y1233600D03*
X1193300Y1229900D03*
X1192100Y1184500D03*
X1196400Y1227500D03*
X1237300Y1218400D03*
X1239700Y1195100D03*
X1252100Y1235700D03*
X1212239Y1200276D03*
X1213400Y1249700D03*
X1248100Y1222800D03*
X1250900Y1193300D03*
X1250800Y1246700D03*
X1235000Y1233700D03*
X1247600Y1228000D03*
X1234800Y1200500D03*
X1240300Y1254500D03*
X1211900Y1227800D03*
X1217500Y1183000D03*
X1236100Y1227700D03*
X1227700Y1203900D03*
X1218700Y1204000D03*
X1218400Y1257400D03*
X1227400D03*
X1216900Y1236800D03*
X1253400Y1229200D03*
X1248200Y1218300D03*
X1244400Y1226900D03*
X1203859Y1218276D03*
X1212300Y1235500D03*
X1209000Y1182700D03*
X1287500Y1192900D03*
X1298300Y1184400D03*
X1305600Y1223774D03*
Y1228874D03*
X1305300Y1236400D03*
X1333900Y1256200D03*
X1333500Y1252500D03*
X1332000Y1188650D03*
X1312050Y1210100D03*
X1317500Y1199500D03*
X1336600Y1213600D03*
X1329600Y1243700D03*
X1305300Y1184500D03*
X1296600Y1244400D03*
X1287100Y1244500D03*
X1269600Y1234200D03*
X1309800Y1193700D03*
X1296100Y1193100D03*
X1298000Y1223974D03*
X1298200Y1228874D03*
X1269300Y1190400D03*
X1298300Y1236374D03*
X1269200Y1242600D03*
X1284700Y1223800D03*
X1310100Y1220300D03*
X1269000Y1182800D03*
X1279400Y1236800D03*
X1285600Y1231000D03*
X1296800Y1213800D03*
X1269400Y1186100D03*
X1270100Y1238600D03*
X1285900Y1184600D03*
X1282700Y1233200D03*
X1285900Y1236500D03*
X1331100Y1208100D03*
X1329400Y1247200D03*
X1329300Y1182750D03*
X1337400Y1238600D03*
X1329600Y1196600D03*
X1318300Y1184500D03*
X1329500Y1216800D03*
X1318500Y1236000D03*
X1333600Y1229400D03*
X1322150Y1182750D03*
X1324700Y1215600D03*
X1320500Y1233000D03*
X1335300Y1187300D03*
X1337100Y1209000D03*
Y1230100D03*
X1318250Y1190150D03*
X1337200Y1252700D03*
X1318200Y1240600D03*
X1331050Y1211400D03*
X1328500Y1188100D03*
X1329500Y1232950D03*
X1329400Y1200200D03*
X1322200Y1251600D03*
X1284400Y1191600D03*
X1285800Y1188600D03*
X1329900Y1222300D03*
X1323550Y1220450D03*
X1282700Y1243400D03*
X1285800Y1239900D03*
X1321200Y1239000D03*
X1375100Y1241600D03*
X1415000Y1191000D03*
X1366600Y1249200D03*
X1358590Y1235750D03*
X1368900Y1245500D03*
X1414500Y1196500D03*
X1375670Y1218400D03*
X1361700Y1217100D03*
X1415400Y1226500D03*
X1368900Y1217100D03*
X1415000Y1251400D03*
X1365400Y1217300D03*
X1414700Y1256600D03*
X1369620Y1183170D03*
X1376350Y1187200D03*
X1415000Y1221000D03*
X1371500Y1241600D03*
X1358300Y1251700D03*
X1371700Y1211000D03*
X1375300D03*
X1348100Y1200400D03*
X1348000Y1222500D03*
Y1245300D03*
Y1253300D03*
X1345700Y1186400D03*
X1348000Y1208700D03*
Y1230000D03*
X1403500Y1252500D03*
Y1222500D03*
Y1192000D03*
X1405500Y1204900D03*
Y1183600D03*
Y1234900D03*
Y1213000D03*
Y1243000D03*
X1414400Y1231500D03*
X1414500Y1201500D03*
Y1184500D03*
Y1215000D03*
Y1244500D03*
X1359600Y1196300D03*
X1356900Y1207300D03*
X1354850Y1213500D03*
X1355750Y1228500D03*
X1359420Y1240450D03*
X1354600Y1252300D03*
X1486100Y1214700D03*
X1490500Y1214500D03*
X1498000Y1245400D03*
X1495500Y1229500D03*
X1435400Y1211600D03*
Y1182900D03*
Y1204700D03*
Y1241500D03*
Y1234500D03*
X1425000Y1203800D03*
X1424800Y1234000D03*
X1425400Y1185400D03*
X1424300Y1211500D03*
X1425000Y1247300D03*
X1425300Y1216500D03*
X1424200Y1241600D03*
X1500400Y1218500D03*
X1512400Y1233800D03*
X1500162Y1229941D03*
X1501700Y1249000D03*
X1500162Y1233090D03*
X1549500Y1249200D03*
Y1252900D03*
X1513900Y1258100D03*
X1518500Y1214000D03*
X1509600Y1215000D03*
X1498900Y1240600D03*
X1526300Y1240900D03*
X1558700Y1219400D03*
X1526600Y1235400D03*
X1526100Y1244400D03*
X1522600Y1256100D03*
X1558900Y1232200D03*
X1558500Y1246300D03*
X1528300Y1214400D03*
X1522000Y1187020D03*
X1522100Y1219400D03*
X1547500Y1196500D03*
X1541800Y1245900D03*
X1538700Y1238100D03*
X1547500Y1182500D03*
Y1189500D03*
X1539100Y1215400D03*
X1018579Y1271326D03*
X1018600Y1289800D03*
X1068900Y1313240D03*
X1051900Y1269400D03*
X1031979Y1267726D03*
X1059840Y1314070D03*
X1035679Y1268926D03*
X1068500Y1294500D03*
X1052500Y1299500D03*
X1056300Y1332900D03*
X1074800Y1330100D03*
X1045800Y1294800D03*
X1036200Y1295000D03*
X1039600Y1272600D03*
X1038900Y1291100D03*
X1049860Y1286380D03*
X1041200Y1307300D03*
X1040200Y1303500D03*
X1044300Y1272800D03*
X1178710Y1289200D03*
X1117000Y1341500D03*
X1155000Y1287900D03*
Y1340200D03*
X1154300Y1272900D03*
Y1277300D03*
X1155200Y1322000D03*
Y1326500D03*
X1154300Y1268400D03*
Y1281900D03*
X1155200Y1331000D03*
X1173130Y1313130D03*
X1134500Y1312000D03*
Y1315000D03*
X1130000Y1312000D03*
Y1315000D03*
X1119500Y1320000D03*
X1191400Y1336900D03*
X1237100Y1337400D03*
X1235100Y1329900D03*
X1196500Y1340300D03*
X1192600Y1329100D03*
X1232100Y1325000D03*
X1189200Y1326100D03*
X1195300Y1334700D03*
X1238400Y1332700D03*
X1227900Y1306300D03*
X1234900Y1270800D03*
X1194200Y1285900D03*
X1232100Y1266400D03*
X1190100Y1284600D03*
X1239000Y1279100D03*
X1237700Y1273200D03*
X1190900Y1281200D03*
X1220300Y1266100D03*
X1190200Y1275100D03*
X1240000Y1306100D03*
X1220800Y1306300D03*
X1247300Y1301400D03*
X1244700Y1267600D03*
X1238500Y1286600D03*
X1211900Y1285800D03*
X1249400Y1331200D03*
X1249000Y1284000D03*
X1228200Y1315100D03*
X1235600Y1340000D03*
X1235900Y1280900D03*
X1219200Y1315200D03*
X1216800Y1288600D03*
X1249400Y1335300D03*
X1247100Y1277900D03*
X1206300Y1271500D03*
X1238900Y1282700D03*
X1239100Y1340600D03*
X1212200Y1289900D03*
X1204800Y1337300D03*
X1308400Y1296100D03*
X1305700Y1281787D03*
Y1285400D03*
X1305900Y1320200D03*
Y1325300D03*
X1297200Y1297900D03*
X1286800Y1297800D03*
X1268900Y1331300D03*
X1284000Y1320000D03*
X1264700Y1287000D03*
X1298200Y1281800D03*
X1298600Y1329300D03*
X1333100Y1288600D03*
X1298100Y1285500D03*
X1268300Y1295500D03*
X1298300Y1325200D03*
Y1320400D03*
X1329700Y1272300D03*
X1322600Y1280100D03*
X1298400Y1289287D03*
X1305500Y1289500D03*
X1305800Y1329300D03*
X1261500Y1332700D03*
Y1289500D03*
X1310400Y1273600D03*
X1284600Y1325700D03*
X1286000Y1281500D03*
X1267800Y1290900D03*
X1269100Y1334800D03*
X1310400Y1316600D03*
X1261100Y1284400D03*
X1261500Y1329000D03*
X1261900Y1296700D03*
X1297000Y1265900D03*
X1265200Y1323700D03*
X1286100Y1289400D03*
X1282100Y1329200D03*
X1318700Y1289100D03*
X1333600Y1272500D03*
X1329300Y1284300D03*
X1329200Y1292000D03*
X1329400Y1263200D03*
X1321500Y1291700D03*
X1318600Y1336600D03*
X1336900Y1272800D03*
X1282500Y1339400D03*
X1286000Y1335900D03*
X1320500Y1339300D03*
X1320900Y1303100D03*
X1329100Y1288000D03*
X1336700Y1280300D03*
X1329100Y1295200D03*
X1328800Y1267700D03*
X1374900Y1280000D03*
X1362800Y1292500D03*
X1410300Y1318000D03*
X1400000Y1317000D03*
X1371300Y1280000D03*
X1361700Y1281700D03*
X1417400Y1277700D03*
X1414500Y1281500D03*
X1402500Y1314500D03*
X1375500Y1322500D03*
Y1326000D03*
X1348000Y1265300D03*
Y1272000D03*
X1344400Y1300500D03*
X1403600Y1280700D03*
X1405500Y1273500D03*
Y1264800D03*
Y1295200D03*
X1414800Y1291500D03*
X1340800Y1300500D03*
X1358500Y1322500D03*
Y1325500D03*
X1358300Y1262000D03*
X1358400Y1270400D03*
X1345900Y1281450D03*
X1497400Y1271400D03*
X1489740Y1264420D03*
X1454700Y1310000D03*
X1496420Y1308320D03*
X1444400Y1328300D03*
X1438900Y1328200D03*
X1494100Y1274900D03*
X1493530Y1286210D03*
X1487790Y1303100D03*
X1483400Y1303000D03*
X1484940Y1264240D03*
X1482810Y1314470D03*
X1435900Y1291500D03*
X1435400Y1273900D03*
Y1264600D03*
X1425000Y1276500D03*
X1424800Y1293900D03*
X1424500Y1264400D03*
X1537500Y1340000D03*
X1542300Y1319200D03*
X1549400Y1262500D03*
X1538440Y1275730D03*
X1536500Y1318000D03*
X1537570Y1335690D03*
X1515800Y1267000D03*
X1542900Y1315100D03*
X1512490Y1264670D03*
X1522500Y1322000D03*
X1524430Y1294940D03*
X1531500Y1301500D03*
X1526500Y1322100D03*
X1514700Y1285400D03*
X1537800Y1279900D03*
X1539600Y1267000D03*
X1499860Y1319450D03*
X1536210Y1327950D03*
X1597480Y1305840D03*
X1581000Y1287000D03*
X1580600Y1316900D03*
X1587800Y1317220D03*
X1578900Y1305000D03*
X1586900D03*
X1590400D03*
X1582900D03*
X1582480Y1333940D03*
X1593460Y1333830D03*
X1594390Y1316840D03*
X1596800Y1294100D03*
X1599810Y1295950D03*
X1048600Y1353400D03*
X1066500Y1357000D03*
X1046048Y1416953D03*
Y1380953D03*
Y1363453D03*
X1079000Y1342500D03*
X1032200Y1397300D03*
X1045800Y1397800D03*
X1036400Y1398000D03*
X1060800D03*
X1034500Y1371000D03*
X1031700Y1361600D03*
X1056500Y1367130D03*
X1041000Y1352100D03*
X1092500Y1346500D03*
X1040900Y1370400D03*
Y1405900D03*
X1068000Y1347000D03*
X1056500Y1350130D03*
Y1421630D03*
Y1403130D03*
X1175079Y1415126D03*
X1173500Y1384500D03*
X1192700Y1420700D03*
X1224000Y1364800D03*
X1237500Y1365000D03*
X1235900Y1392050D03*
X1204000Y1367000D03*
X1181100Y1359500D03*
X1220600Y1379300D03*
X1217800Y1365500D03*
X1227500Y1403500D03*
X1187800Y1378800D03*
X1182500Y1385500D03*
X1238600Y1343900D03*
X1247900Y1342400D03*
X1211800Y1349800D03*
X1242500Y1373000D03*
X1197400Y1378800D03*
X1201800Y1419400D03*
X1242700Y1363300D03*
X1190620Y1402710D03*
X1217600Y1347800D03*
X1196500Y1399000D03*
X1211900Y1345900D03*
X1246160Y1385400D03*
X1236000Y1386000D03*
X1279100Y1380100D03*
X1334500Y1356300D03*
X1286200Y1342400D03*
X1306800Y1342000D03*
X1297300D03*
X1288500Y1398000D03*
X1279500D03*
X1282500D03*
X1285500D03*
X1284000Y1395500D03*
X1291500Y1398000D03*
X1281000Y1395500D03*
X1290000D03*
X1287000D03*
X1285000Y1417500D03*
Y1410000D03*
X1264700Y1343400D03*
X1305200Y1380100D03*
X1314000Y1373200D03*
X1304600Y1368300D03*
X1305300Y1393000D03*
X1305100Y1387500D03*
X1280700Y1389100D03*
X1265810Y1379750D03*
X1353400Y1395100D03*
X1377000Y1367400D03*
X1387500Y1376900D03*
X1388100Y1351300D03*
X1341500Y1365100D03*
X1339500Y1380000D03*
X1341100Y1372100D03*
X1376800Y1348100D03*
X1381800Y1367200D03*
X1413900Y1386200D03*
X1359300Y1409900D03*
X1373600Y1350800D03*
X1410000Y1396000D03*
X1408600Y1401300D03*
X1465800Y1417300D03*
X1442700Y1409400D03*
X1440200Y1367300D03*
X1450000Y1368500D03*
X1429800Y1367500D03*
X1457500Y1364500D03*
X1472500Y1412500D03*
X1452500Y1342100D03*
X1423900Y1342400D03*
X1462200Y1416100D03*
X1486500Y1413700D03*
X1476900Y1412300D03*
X1486700Y1407500D03*
X1539400Y1369400D03*
X1537000Y1346500D03*
X1538360Y1343160D03*
X1501800Y1359100D03*
X1523620Y1367930D03*
X1513470Y1360430D03*
X1538500Y1349500D03*
X1572500Y1405000D03*
X1575000Y1407500D03*
X1577500Y1405000D03*
X1514400Y1349000D03*
X1509600Y1421200D03*
Y1415600D03*
X1525200Y1343400D03*
X1519330Y1379000D03*
X1502500Y1368500D03*
Y1365350D03*
X1526500Y1362500D03*
X1513000Y1352500D03*
X1529100Y1380200D03*
X1513500Y1342000D03*
X1538310Y1354540D03*
X1590000Y1407500D03*
X1585000D03*
X1582500Y1405000D03*
X1592500D03*
X1595000Y1407500D03*
X1587500Y1405000D03*
X1580000Y1407500D03*
X1012079Y1486126D03*
X1046048Y1452953D03*
Y1434953D03*
X1020079Y1494126D03*
X1030079Y1496126D03*
X1040079D03*
X1050079D03*
X1060079D03*
X1070079D03*
X1080079D03*
X1090079D03*
X1056500Y1439130D03*
X1040900Y1441400D03*
Y1424500D03*
X1040800Y1457700D03*
X1050500Y1442300D03*
X1096400Y1447500D03*
Y1457500D03*
X1100079Y1496126D03*
X1110079D03*
X1120079D03*
X1130079D03*
X1140079D03*
X1150079D03*
X1160079D03*
X1170079D03*
X1175200Y1423500D03*
X1225500Y1450500D03*
X1222900Y1467500D03*
X1180079Y1496126D03*
X1190079D03*
X1200079D03*
X1210079D03*
X1220079D03*
X1230079D03*
X1240079D03*
X1250079D03*
X1182500Y1451000D03*
X1214000Y1449000D03*
X1212600Y1472300D03*
X1257500Y1435000D03*
X1252500D03*
X1250000Y1442500D03*
X1257500Y1440000D03*
Y1445000D03*
X1255000Y1447500D03*
X1250000D03*
X1255000Y1442500D03*
Y1437500D03*
X1250000D03*
X1252500Y1440000D03*
Y1445000D03*
X1200500Y1472100D03*
X1318000Y1425900D03*
X1294500Y1437900D03*
X1305600Y1441600D03*
X1293500Y1442600D03*
X1325900Y1444400D03*
X1314500Y1441900D03*
X1260079Y1496126D03*
X1270079D03*
X1280079D03*
X1290079D03*
X1300079D03*
X1310079D03*
X1320079D03*
X1330079D03*
X1285400Y1471700D03*
X1294300Y1434200D03*
X1285000Y1425000D03*
Y1432500D03*
Y1440000D03*
X1310900Y1434200D03*
X1308100Y1471500D03*
X1292800D03*
X1315500D03*
X1300400D03*
X1260000Y1447500D03*
Y1442500D03*
Y1437500D03*
X1294200Y1446300D03*
X1416500Y1448000D03*
X1406200Y1428400D03*
X1413600Y1428200D03*
X1410000Y1424600D03*
X1402300Y1424700D03*
X1340079Y1496126D03*
X1350079D03*
X1360079D03*
X1370079D03*
X1380079D03*
X1390079D03*
X1400079D03*
X1410079D03*
X1365900Y1424400D03*
X1374000Y1432000D03*
X1358400Y1432100D03*
X1392000Y1440700D03*
X1382600Y1441000D03*
X1366000Y1457800D03*
X1373800Y1449000D03*
X1357800D03*
X1478800Y1428300D03*
X1472800Y1429100D03*
X1463600Y1431200D03*
X1420079Y1496126D03*
X1430079D03*
X1440079D03*
X1450079D03*
X1460079D03*
X1470079D03*
X1480079D03*
X1490079D03*
X1500079D03*
X1510079D03*
X1520079D03*
X1530079D03*
X1540079D03*
X1550079D03*
X1560079D03*
X1570079D03*
X1572500Y1427500D03*
X1577500D03*
X1575000Y1430000D03*
X1509600Y1427000D03*
X1527200Y1452600D03*
X1630079Y1496126D03*
X1620079D03*
X1610079D03*
X1600079D03*
X1590079D03*
X1580079D03*
X1582500Y1427500D03*
X1580000Y1430000D03*
X1585000D03*
X1590000D03*
X1595000D03*
X1592500Y1427500D03*
X1587500D03*
G54D103*
X1570250Y1431016D02*
X1571704Y1432470D01*
X1595797*
X1597250Y1431016*
Y1419204*
X1595797Y1417750*
X1571704*
X1570250Y1419204*
Y1431016*
X1596910Y1333830D02*
G03X1596910I-3450J0D01*
G01X1585930Y1333940D02*
G03X1585930I-3450J0D01*
G01X1542850Y1369400D02*
G03X1542850I-3450J0D01*
G01X1532550Y1380200D02*
G03X1532550I-3450J0D01*
G01X1522780Y1379000D02*
G03X1522780I-3450J0D01*
G01X1474350Y1401300D02*
G03X1474350I-3250J0D01*
G01X1477550Y1436600D02*
G03X1477550I-3250J0D01*
G01X1446150Y1409400D02*
G03X1446150I-3450J0D01*
G01X1419950Y1448000D02*
G03X1419950I-3450J0D01*
G01X1390950Y1376900D02*
G03X1390950I-3450J0D01*
G01X1395450Y1440700D02*
G03X1395450I-3450J0D01*
G01X1386050Y1441000D02*
G03X1386050I-3450J0D01*
G01X1377450Y1432000D02*
G03X1377450I-3450J0D01*
G01X1362750Y1409900D02*
G03X1362750I-3450J0D01*
G01X1369350Y1424400D02*
G03X1369350I-3450J0D01*
G01X1361850Y1432100D02*
G03X1361850I-3450J0D01*
G01X1632212Y1251960D02*
G03X1632285Y1252137I-177J177D01*
G01Y1360486*
G03X1632266Y1360582I-250J0*
G01X1632050Y1361105*
G03X1631995Y1361186I-231J-95*
G01X1627454Y1365728*
G03X1627373Y1365782I-176J-177*
G01X1626850Y1365999*
G03X1626754Y1366018I-96J-231*
G01X1581365*
X1581365*
X1580566Y1366349*
X1580566*
X1577890Y1369025*
G03X1577727Y1369097I-177J-177*
G01X1572838Y1373987D02*
G03X1577727Y1369097I5194J304D01*
G01X1572838Y1373987D02*
G03X1572765Y1374149I-250J-15D01*
G01X1556457Y1390457*
X1536965Y1409949*
X1536634Y1410748*
Y1436986*
G03X1536615Y1437082I-250J0*
G01X1536398Y1437605*
G03X1536344Y1437686I-231J-95*
G01X1524100Y1449930*
G03X1524054Y1449967I-176J-177*
G01X1523518Y1450294*
G03X1523388Y1450331I-130J-213*
G01X1478179*
G03X1477931Y1450054I0J-250*
G01X1471470D02*
G03X1477931I3230J-354D01*
G01X1471470D02*
G03X1471221Y1450331I-249J27D01*
G01X1422208*
X1397118Y1464578*
G03X1396994Y1464611I-124J-217*
G01X1354018*
G03X1353855Y1464550I-0J-250*
G01X1350540Y1461694*
G03X1350453Y1461505I163J-189*
G01X1350453*
X1350500Y1403263*
G03X1350519Y1403168I250J1*
G01X1350736Y1402645*
G03X1350790Y1402564I231J96*
G01X1355569Y1397785*
G03X1355587Y1397768I177J177*
G01X1356068Y1397287D02*
G03X1355587Y1397768I-2668J-2187D01*
G01X1356069Y1397287D02*
G03X1356085Y1397269I193J159D01*
G01X1381564Y1371790*
G03X1381645Y1371736I177J177*
G01X1382168Y1371519*
G03X1382264Y1371500I96J231*
G01X1448232*
G03X1448351Y1371530I-0J250*
G01X1451649D02*
G03X1448351I-1649J-3030D01*
G01X1451649D02*
G03X1451769Y1371500I120J220D01*
G01X1500732*
G03X1500851Y1371530I-0J250*
G01X1504149D02*
G03X1500851I-1649J-3030D01*
G01X1504149D02*
G03X1504269Y1371500I120J220D01*
G01X1507666*
G03X1507854Y1371916I0J250*
G01X1514745D02*
G03X1507854I-3446J3045D01*
G01X1514745D02*
G03X1514933Y1371500I188J-166D01*
G01X1522636*
X1522636*
X1522978Y1371358*
G03X1523110Y1371342I95J231*
G01X1527060Y1367667D02*
G03X1523110Y1371342I-3440J263D01*
G01X1527060Y1367667D02*
G03X1527133Y1367471I250J-19D01*
G01X1536792Y1357812*
G03X1537060Y1357755I177J176*
G01X1541526Y1353289D02*
G03X1537060Y1357755I-3216J1251D01*
G01X1541526Y1353289D02*
G03X1541582Y1353022I233J-90D01*
G01X1565689Y1328915*
G03X1565770Y1328861I177J177*
G01X1566293Y1328644*
G03X1566389Y1328625I96J231*
G01X1594136*
X1594136*
X1594935Y1328294*
X1594935*
X1603615Y1319614*
X1605857Y1317372*
X1605857*
X1606188Y1316573*
Y1292365*
X1605857Y1291566*
X1605857*
X1595154Y1280862*
X1594355Y1280531*
X1582014*
G03X1581918Y1280512I-0J-250*
G01X1581395Y1280295*
G03X1581314Y1280241I96J-230*
G01X1578400Y1277327*
G03X1578345Y1277246I176J-177*
G01X1578129Y1276723*
G03X1578110Y1276627I231J-96*
G01Y1256014*
G03X1578129Y1255918I250J-0*
G01X1578345Y1255395*
G03X1578400Y1255314I231J95*
G01X1582244Y1251470*
G03X1582325Y1251416I176J176*
G01X1582848Y1251199*
G03X1582944Y1251180I96J231*
G01X1631328*
G03X1631505Y1251253I0J250*
G01X1632212Y1251960*
X1596910Y1333830D02*
G03X1596910I-3450J0D01*
G01X1585930Y1333940D02*
G03X1585930I-3450J0D01*
G01X1542850Y1369400D02*
G03X1542850I-3450J0D01*
G01X1532550Y1380200D02*
G03X1532550I-3450J0D01*
G01X1522780Y1379000D02*
G03X1522780I-3450J0D01*
G01X1511743Y1424296D02*
G03X1507458I-2143J2704D01*
G01X1511743D02*
G03Y1423904I155J-196D01*
G01X1511856Y1418589D02*
G03X1511743Y1423904I-2256J2611D01*
G01X1511856Y1418589D02*
G03Y1418211I163J-189D01*
G01X1507345D02*
G03X1511856I2255J-2611D01*
G01X1507345D02*
G03Y1418589I-163J189D01*
G01X1507458Y1423904D02*
G03X1507345Y1418589I2142J-2704D01*
G01X1507458Y1423904D02*
G03Y1424296I-156J196D01*
G01X1484727Y1410330D02*
G03X1488487Y1410451I1973J-2830D01*
G01X1484727Y1410330D02*
G03X1484713Y1410749I-143J205D01*
G01X1488474Y1410870D02*
G03X1484713Y1410749I-1974J2830D01*
G01X1488474Y1410870D02*
G03X1488487Y1410451I143J-205D01*
G01X1474350Y1401300D02*
G03X1474350I-3250J0D01*
G01X1474723Y1409624D02*
G03X1474975Y1415163I2177J2676D01*
G01X1474723Y1409624D02*
G03X1474426Y1409637I-158J-194D01*
G01X1471344Y1409249D02*
G03X1474426Y1409637I1156J3251D01*
G01X1471344Y1409249D02*
G03X1471078Y1409184I-83J-235D01*
G01X1467052Y1408599D02*
G03X1471078Y1409184I1648J2801D01*
G01X1467052Y1408599D02*
G03X1466759Y1408570I-127J-215D01*
G01X1461350Y1411032D02*
G03X1466759Y1408570I3250J-32D01*
G01X1461350Y1411032D02*
G03X1460865Y1411117I-250J2D01*
G01X1458479Y1415378D02*
G03X1460865Y1411117I-679J-3178D01*
G01X1458479Y1415378D02*
G03X1458779Y1415655I52J245D01*
G01X1462942Y1419469D02*
G03X1458779Y1415655I-742J-3369D01*
G01X1462942Y1419469D02*
G03X1463185Y1419550I54J245D01*
G01X1468425Y1415061D02*
G03X1463185Y1419550I-2625J2239D01*
G01X1468425Y1415061D02*
G03X1468622Y1414649I190J-162D01*
G01X1469527Y1414543D02*
G03X1468622Y1414649I-827J-3143D01*
G01X1469527Y1414543D02*
G03X1469787Y1414631I63J242D01*
G01X1474677Y1415176D02*
G03X1469787Y1414631I-2177J-2676D01*
G01X1474678Y1415176D02*
G03X1474975Y1415163I157J194D01*
G01X1475741Y1426706D02*
G03X1476265Y1430640I3059J1594D01*
G01X1475741Y1426706D02*
G03X1475335Y1426760I-222J-116D01*
G01X1469655Y1427683D02*
G03X1475335Y1426760I3145J1417D01*
G01X1469655Y1427683D02*
G03X1469218Y1427717I-228J-103D01*
G01X1463833Y1427643D02*
G03X1469218Y1427717I2667J1857D01*
G01X1463833Y1427643D02*
G03X1463626Y1427750I-205J-143D01*
G01X1466623Y1432863D02*
G03X1463626Y1427750I-3023J-1663D01*
G01X1466623Y1432863D02*
G03X1466818Y1432734I219J120D01*
G01X1469421Y1430925D02*
G03X1466818Y1432734I-2921J-1425D01*
G01X1469421Y1430925D02*
G03X1469859Y1430904I225J109D01*
G01X1475860Y1430694D02*
G03X1469859Y1430904I-3060J-1594D01*
G01X1475860Y1430694D02*
G03X1476265Y1430640I222J116D01*
G01X1477550Y1436600D02*
G03X1477550I-3250J0D01*
G01X1446150Y1409400D02*
G03X1446150I-3450J0D01*
G01X1414092Y1382755D02*
G03X1410796Y1384694I-192J3445D01*
G01X1414092Y1382755D02*
G03X1413877Y1382405I14J-249D01*
G01X1410595Y1384336D02*
G03X1413877Y1382405I305J-3236D01*
G01X1410595Y1384336D02*
G03X1410796Y1384694I-23J249D01*
G01X1407107Y1397879D02*
G03X1411588Y1399063I2893J-1879D01*
G01X1407107Y1397879D02*
G03X1407012Y1398237I-210J136D01*
G01X1411494Y1399421D02*
G03X1407012Y1398237I-2894J1879D01*
G01X1411494Y1399421D02*
G03X1411588Y1399063I209J-136D01*
G01X1413692Y1424751D02*
G03X1410151Y1428292I-92J3449D01*
G01X1413692Y1424751D02*
G03X1413449Y1424508I7J-250D01*
G01X1406552Y1424695D02*
G03X1413449Y1424508I3448J-95D01*
G01X1406552Y1424695D02*
G03X1406295Y1424951I-250J6D01*
G01X1406014Y1424955D02*
G03X1406295Y1424951I186J3445D01*
G01X1406014Y1424955D02*
G03X1405750Y1424705I-14J-250D01*
G01X1405750*
Y1424700*
X1402487Y1428145D02*
G03X1405750Y1424700I-187J-3445D01*
G01X1402487Y1428145D02*
G03X1402750Y1428395I13J250D01*
G01X1402750*
Y1428400*
X1409649Y1428306D02*
G03X1402750Y1428400I-3449J94D01*
G01X1409649Y1428305D02*
G03X1409906Y1428049I250J-6D01*
G01X1409908D02*
G03X1409906I92J-3449D01*
G01X1409908D02*
G03X1410151Y1428292I-6J250D01*
G01X1419950Y1448000D02*
G03X1419950I-3450J0D01*
G01X1390950Y1376900D02*
G03X1390950I-3450J0D01*
G01X1395450Y1440700D02*
G03X1395450I-3450J0D01*
G01X1386050Y1441000D02*
G03X1386050I-3450J0D01*
G01X1377450Y1432000D02*
G03X1377450I-3450J0D01*
G01X1362750Y1409900D02*
G03X1362750I-3450J0D01*
G01X1369350Y1424400D02*
G03X1369350I-3450J0D01*
G01X1361850Y1432100D02*
G03X1361850I-3450J0D01*
G01X1581185Y1252528D02*
X1632285D01*
X1580735Y1252978D02*
X1632285D01*
X1580285Y1253428D02*
X1632285D01*
X1579835Y1253878D02*
X1632285D01*
X1579385Y1254328D02*
X1632285D01*
X1578935Y1254778D02*
X1632285D01*
X1578485Y1255228D02*
X1632285D01*
X1578228Y1255678D02*
X1632285D01*
X1578110Y1256128D02*
X1632285D01*
X1578110Y1256578D02*
X1632285D01*
X1578110Y1257028D02*
X1632285D01*
X1578110Y1257478D02*
X1632285D01*
X1578110Y1257928D02*
X1632285D01*
X1578110Y1258378D02*
X1632285D01*
X1578110Y1258828D02*
X1632285D01*
X1578110Y1259278D02*
X1632285D01*
X1578110Y1259728D02*
X1632285D01*
X1578110Y1260178D02*
X1632285D01*
X1578110Y1260628D02*
X1632285D01*
X1578110Y1261078D02*
X1632285D01*
X1578110Y1261528D02*
X1632285D01*
X1578110Y1261978D02*
X1632285D01*
X1578110Y1262428D02*
X1632285D01*
X1578110Y1262878D02*
X1632285D01*
X1578110Y1263328D02*
X1632285D01*
X1578110Y1263778D02*
X1632285D01*
X1578110Y1264228D02*
X1632285D01*
X1578110Y1264678D02*
X1632285D01*
X1578110Y1265128D02*
X1632285D01*
X1578110Y1265578D02*
X1632285D01*
X1578110Y1266028D02*
X1632285D01*
X1578110Y1266478D02*
X1632285D01*
X1578110Y1266928D02*
X1632285D01*
X1578110Y1267378D02*
X1632285D01*
X1578110Y1267828D02*
X1632285D01*
X1578110Y1268278D02*
X1632285D01*
X1578110Y1268728D02*
X1632285D01*
X1578110Y1269178D02*
X1632285D01*
X1578110Y1269628D02*
X1632285D01*
X1578110Y1270078D02*
X1632285D01*
X1578110Y1270528D02*
X1632285D01*
X1578110Y1270978D02*
X1632285D01*
X1578110Y1271428D02*
X1632285D01*
X1578110Y1271878D02*
X1632285D01*
X1578110Y1272328D02*
X1632285D01*
X1578110Y1272778D02*
X1632285D01*
X1578110Y1273228D02*
X1632285D01*
X1578110Y1273678D02*
X1632285D01*
X1578110Y1274128D02*
X1632285D01*
X1578110Y1274578D02*
X1632285D01*
X1578110Y1275028D02*
X1632285D01*
X1578110Y1275478D02*
X1632285D01*
X1578110Y1275928D02*
X1632285D01*
X1578110Y1276378D02*
X1632285D01*
X1578172Y1276828D02*
X1632285D01*
X1578362Y1277278D02*
X1632285D01*
X1578801Y1277728D02*
X1632285D01*
X1579251Y1278178D02*
X1632285D01*
X1579701Y1278628D02*
X1632285D01*
X1580151Y1279078D02*
X1632285D01*
X1580601Y1279528D02*
X1632285D01*
X1581051Y1279978D02*
X1632285D01*
X1581716Y1280428D02*
X1632285D01*
X1595170Y1280878D02*
X1632285D01*
X1595620Y1281328D02*
X1632285D01*
X1596070Y1281778D02*
X1632285D01*
X1596520Y1282228D02*
X1632285D01*
X1596970Y1282678D02*
X1632285D01*
X1597420Y1283128D02*
X1632285D01*
X1597870Y1283578D02*
X1632285D01*
X1598320Y1284028D02*
X1632285D01*
X1598770Y1284478D02*
X1632285D01*
X1599220Y1284928D02*
X1632285D01*
X1599670Y1285378D02*
X1632285D01*
X1600120Y1285828D02*
X1632285D01*
X1600570Y1286278D02*
X1632285D01*
X1601020Y1286728D02*
X1632285D01*
X1601470Y1287178D02*
X1632285D01*
X1601920Y1287628D02*
X1632285D01*
X1602370Y1288078D02*
X1632285D01*
X1602820Y1288528D02*
X1632285D01*
X1603270Y1288978D02*
X1632285D01*
X1603720Y1289428D02*
X1632285D01*
X1604170Y1289878D02*
X1632285D01*
X1604620Y1290328D02*
X1632285D01*
X1605070Y1290778D02*
X1632285D01*
X1605520Y1291228D02*
X1632285D01*
X1605904Y1291678D02*
X1632285D01*
X1606090Y1292128D02*
X1632285D01*
X1606188Y1292578D02*
X1632285D01*
X1606188Y1293028D02*
X1632285D01*
X1606188Y1293478D02*
X1632285D01*
X1606188Y1293928D02*
X1632285D01*
X1606188Y1294378D02*
X1632285D01*
X1606188Y1294828D02*
X1632285D01*
X1606188Y1295278D02*
X1632285D01*
X1606188Y1295728D02*
X1632285D01*
X1606188Y1296178D02*
X1632285D01*
X1606188Y1296628D02*
X1632285D01*
X1606188Y1297078D02*
X1632285D01*
X1606188Y1297528D02*
X1632285D01*
X1606188Y1297978D02*
X1632285D01*
X1606188Y1298428D02*
X1632285D01*
X1606188Y1298878D02*
X1632285D01*
X1606188Y1299328D02*
X1632285D01*
X1606188Y1299778D02*
X1632285D01*
X1606188Y1300228D02*
X1632285D01*
X1606188Y1300678D02*
X1632285D01*
X1606188Y1301128D02*
X1632285D01*
X1606188Y1301578D02*
X1632285D01*
X1606188Y1302028D02*
X1632285D01*
X1606188Y1302478D02*
X1632285D01*
X1606188Y1302928D02*
X1632285D01*
X1606188Y1303378D02*
X1632285D01*
X1606188Y1303828D02*
X1632285D01*
X1606188Y1304278D02*
X1632285D01*
X1606188Y1304728D02*
X1632285D01*
X1606188Y1305178D02*
X1632285D01*
X1606188Y1305628D02*
X1632285D01*
X1606188Y1306078D02*
X1632285D01*
X1606188Y1306528D02*
X1632285D01*
X1606188Y1306978D02*
X1632285D01*
X1606188Y1307428D02*
X1632285D01*
X1606188Y1307878D02*
X1632285D01*
X1606188Y1308328D02*
X1632285D01*
X1606188Y1308778D02*
X1632285D01*
X1606188Y1309228D02*
X1632285D01*
X1606188Y1309678D02*
X1632285D01*
X1606188Y1310128D02*
X1632285D01*
X1606188Y1310578D02*
X1632285D01*
X1606188Y1311028D02*
X1632285D01*
X1606188Y1311478D02*
X1632285D01*
X1606188Y1311928D02*
X1632285D01*
X1606188Y1312378D02*
X1632285D01*
X1606188Y1312828D02*
X1632285D01*
X1606188Y1313278D02*
X1632285D01*
X1606188Y1313728D02*
X1632285D01*
X1606188Y1314178D02*
X1632285D01*
X1606188Y1314628D02*
X1632285D01*
X1606188Y1315078D02*
X1632285D01*
X1606188Y1315528D02*
X1632285D01*
X1606188Y1315978D02*
X1632285D01*
X1606188Y1316428D02*
X1632285D01*
X1606061Y1316878D02*
X1632285D01*
X1605875Y1317328D02*
X1632285D01*
X1605450Y1317778D02*
X1632285D01*
X1605000Y1318228D02*
X1632285D01*
X1604550Y1318678D02*
X1632285D01*
X1604100Y1319128D02*
X1632285D01*
X1603650Y1319578D02*
X1632285D01*
X1603200Y1320028D02*
X1632285D01*
X1602750Y1320478D02*
X1632285D01*
X1602300Y1320928D02*
X1632285D01*
X1601850Y1321378D02*
X1632285D01*
X1601400Y1321828D02*
X1632285D01*
X1600950Y1322278D02*
X1632285D01*
X1600500Y1322728D02*
X1632285D01*
X1600050Y1323178D02*
X1632285D01*
X1599600Y1323628D02*
X1632285D01*
X1599150Y1324078D02*
X1632285D01*
X1598700Y1324528D02*
X1632285D01*
X1598250Y1324978D02*
X1632285D01*
X1597800Y1325428D02*
X1632285D01*
X1597350Y1325878D02*
X1632285D01*
X1596900Y1326328D02*
X1632285D01*
X1596450Y1326778D02*
X1632285D01*
X1596000Y1327228D02*
X1632285D01*
X1595550Y1327678D02*
X1632285D01*
X1595100Y1328128D02*
X1632285D01*
X1594248Y1328578D02*
X1632285D01*
X1565575Y1329028D02*
X1632285D01*
X1565125Y1329478D02*
X1632285D01*
X1564675Y1329928D02*
X1632285D01*
X1564225Y1330378D02*
X1632285D01*
X1595161Y1330828D02*
X1632285D01*
X1595782Y1331278D02*
X1632285D01*
X1596196Y1331728D02*
X1632285D01*
X1596489Y1332178D02*
X1632285D01*
X1596694Y1332628D02*
X1632285D01*
X1596827Y1333078D02*
X1632285D01*
X1596897Y1333528D02*
X1632285D01*
X1596907Y1333978D02*
X1632285D01*
X1596858Y1334428D02*
X1632285D01*
X1596747Y1334878D02*
X1632285D01*
X1596568Y1335328D02*
X1632285D01*
X1596307Y1335778D02*
X1632285D01*
X1595940Y1336228D02*
X1632285D01*
X1595407Y1336678D02*
X1632285D01*
X1594472Y1337128D02*
X1632285D01*
X1557025Y1337578D02*
X1632285D01*
X1556575Y1338028D02*
X1632285D01*
X1556125Y1338478D02*
X1632285D01*
X1555675Y1338928D02*
X1632285D01*
X1555225Y1339378D02*
X1632285D01*
X1554775Y1339828D02*
X1632285D01*
X1554325Y1340278D02*
X1632285D01*
X1553875Y1340728D02*
X1632285D01*
X1553425Y1341178D02*
X1632285D01*
X1552975Y1341628D02*
X1632285D01*
X1552525Y1342078D02*
X1632285D01*
X1552075Y1342528D02*
X1632285D01*
X1551625Y1342978D02*
X1632285D01*
X1551175Y1343428D02*
X1632285D01*
X1550725Y1343878D02*
X1632285D01*
X1550275Y1344328D02*
X1632285D01*
X1549825Y1344778D02*
X1632285D01*
X1549375Y1345228D02*
X1632285D01*
X1548925Y1345678D02*
X1632285D01*
X1548475Y1346128D02*
X1632285D01*
X1548025Y1346578D02*
X1632285D01*
X1547575Y1347028D02*
X1632285D01*
X1547125Y1347478D02*
X1632285D01*
X1546675Y1347928D02*
X1632285D01*
X1546225Y1348378D02*
X1632285D01*
X1545775Y1348828D02*
X1632285D01*
X1545325Y1349278D02*
X1632285D01*
X1544875Y1349728D02*
X1632285D01*
X1544425Y1350178D02*
X1632285D01*
X1543975Y1350628D02*
X1632285D01*
X1543525Y1351078D02*
X1632285D01*
X1543075Y1351528D02*
X1632285D01*
X1542625Y1351978D02*
X1632285D01*
X1542175Y1352428D02*
X1632285D01*
X1541725Y1352878D02*
X1632285D01*
X1541541Y1353328D02*
X1632285D01*
X1541675Y1353778D02*
X1632285D01*
X1541746Y1354228D02*
X1632285D01*
X1541758Y1354678D02*
X1632285D01*
X1541710Y1355128D02*
X1632285D01*
X1541600Y1355578D02*
X1632285D01*
X1541423Y1356028D02*
X1632285D01*
X1541164Y1356478D02*
X1632285D01*
X1540800Y1356928D02*
X1632285D01*
X1540271Y1357378D02*
X1632285D01*
X1539354Y1357828D02*
X1632285D01*
X1536325Y1358278D02*
X1632285D01*
X1535875Y1358728D02*
X1632285D01*
X1535425Y1359178D02*
X1632285D01*
X1534975Y1359628D02*
X1632285D01*
X1534525Y1360078D02*
X1632285D01*
X1534075Y1360528D02*
X1632282D01*
X1581635Y1252078D02*
X1632279D01*
X1533625Y1360978D02*
X1632102D01*
X1582085Y1251628D02*
X1631881D01*
X1533175Y1361428D02*
X1631754D01*
X1532725Y1361878D02*
X1631304D01*
X1532275Y1362328D02*
X1630854D01*
X1531825Y1362778D02*
X1630404D01*
X1531375Y1363228D02*
X1629954D01*
X1530925Y1363678D02*
X1629503D01*
X1530475Y1364128D02*
X1629053D01*
X1530025Y1364578D02*
X1628603D01*
X1529575Y1365028D02*
X1628153D01*
X1529125Y1365478D02*
X1627703D01*
X1528675Y1365928D02*
X1627019D01*
X1583798Y1337128D02*
X1592449D01*
X1583970Y1330828D02*
X1591759D01*
X1584579Y1336678D02*
X1591514D01*
X1584675Y1331278D02*
X1591138D01*
X1585062Y1336228D02*
X1590980D01*
X1585128Y1331728D02*
X1590724D01*
X1585400Y1335778D02*
X1590613D01*
X1585447Y1332178D02*
X1590431D01*
X1585639Y1335328D02*
X1590353D01*
X1585671Y1332628D02*
X1590226D01*
X1585800Y1334878D02*
X1590173D01*
X1585821Y1333078D02*
X1590093D01*
X1585896Y1334428D02*
X1590063D01*
X1585906Y1333528D02*
X1590023D01*
X1585930Y1333978D02*
X1590013D01*
X1557475Y1337128D02*
X1581162D01*
X1563775Y1330828D02*
X1580990D01*
X1541065Y1366378D02*
X1580536D01*
X1557925Y1336678D02*
X1580382D01*
X1563325Y1331278D02*
X1580285D01*
X1541700Y1366828D02*
X1580086D01*
X1558375Y1336228D02*
X1579898D01*
X1562875Y1331728D02*
X1579832D01*
X1542121Y1367278D02*
X1579636D01*
X1558825Y1335778D02*
X1579561D01*
X1562425Y1332178D02*
X1579514D01*
X1559275Y1335328D02*
X1579322D01*
X1561975Y1332628D02*
X1579289D01*
X1542418Y1367728D02*
X1579186D01*
X1559725Y1334878D02*
X1579160D01*
X1561525Y1333078D02*
X1579140D01*
X1560175Y1334428D02*
X1579065D01*
X1561075Y1333528D02*
X1579055D01*
X1560625Y1333978D02*
X1579030D01*
X1542627Y1368178D02*
X1578736D01*
X1542763Y1368628D02*
X1578286D01*
X1542835Y1369078D02*
X1577810D01*
X1542848Y1369528D02*
X1575938D01*
X1542801Y1369978D02*
X1575122D01*
X1542693Y1370428D02*
X1574547D01*
X1542517Y1370878D02*
X1574105D01*
X1542261Y1371328D02*
X1573755D01*
X1541899Y1371778D02*
X1573476D01*
X1541376Y1372228D02*
X1573255D01*
X1540475Y1372678D02*
X1573085D01*
X1515517Y1373128D02*
X1572961D01*
X1515685Y1373578D02*
X1572878D01*
X1515803Y1374028D02*
X1572832D01*
X1515873Y1374478D02*
X1572436D01*
X1515898Y1374928D02*
X1571986D01*
X1515879Y1375378D02*
X1571536D01*
X1520688Y1375828D02*
X1571086D01*
X1521451Y1376278D02*
X1570636D01*
X1521927Y1376728D02*
X1570186D01*
X1530765Y1377178D02*
X1569736D01*
X1531400Y1377628D02*
X1569286D01*
X1531821Y1378078D02*
X1568836D01*
X1532118Y1378528D02*
X1568386D01*
X1532327Y1378978D02*
X1567936D01*
X1532463Y1379428D02*
X1567486D01*
X1532535Y1379878D02*
X1567036D01*
X1532548Y1380328D02*
X1566586D01*
X1532501Y1380778D02*
X1566136D01*
X1532393Y1381228D02*
X1565686D01*
X1532217Y1381678D02*
X1565236D01*
X1531961Y1382128D02*
X1564786D01*
X1531599Y1382578D02*
X1564336D01*
X1531076Y1383028D02*
X1563886D01*
X1530175Y1383478D02*
X1563436D01*
X1416497Y1383928D02*
X1562986D01*
X1416830Y1384378D02*
X1562536D01*
X1417066Y1384828D02*
X1562086D01*
X1417225Y1385278D02*
X1561636D01*
X1417318Y1385728D02*
X1561186D01*
X1417350Y1386178D02*
X1560736D01*
X1417324Y1386628D02*
X1560286D01*
X1417237Y1387078D02*
X1559836D01*
X1417084Y1387528D02*
X1559386D01*
X1416857Y1387978D02*
X1558936D01*
X1416534Y1388428D02*
X1558486D01*
X1416075Y1388878D02*
X1558036D01*
X1415355Y1389328D02*
X1557586D01*
X1363575Y1389778D02*
X1557136D01*
X1363125Y1390228D02*
X1556686D01*
X1362675Y1390678D02*
X1556236D01*
X1362225Y1391128D02*
X1555786D01*
X1361775Y1391578D02*
X1555336D01*
X1361325Y1392028D02*
X1554886D01*
X1360875Y1392478D02*
X1554436D01*
X1411571Y1392928D02*
X1553986D01*
X1412243Y1393378D02*
X1553536D01*
X1412681Y1393828D02*
X1553086D01*
X1412990Y1394278D02*
X1552636D01*
X1413207Y1394728D02*
X1552186D01*
X1413351Y1395178D02*
X1551736D01*
X1413430Y1395628D02*
X1551286D01*
X1413449Y1396078D02*
X1550836D01*
X1413410Y1396528D02*
X1550386D01*
X1413309Y1396978D02*
X1549936D01*
X1413141Y1397428D02*
X1549486D01*
X1412894Y1397878D02*
X1549036D01*
X1472416Y1398328D02*
X1548586D01*
X1473151Y1398778D02*
X1548136D01*
X1473604Y1399228D02*
X1547686D01*
X1473917Y1399678D02*
X1547236D01*
X1474132Y1400128D02*
X1546786D01*
X1474269Y1400578D02*
X1546336D01*
X1474339Y1401028D02*
X1545886D01*
X1474345Y1401478D02*
X1545436D01*
X1474289Y1401928D02*
X1544986D01*
X1474166Y1402378D02*
X1544536D01*
X1473968Y1402828D02*
X1544086D01*
X1473679Y1403278D02*
X1543636D01*
X1473260Y1403728D02*
X1543186D01*
X1487633Y1404178D02*
X1542736D01*
X1488612Y1404628D02*
X1542286D01*
X1489158Y1405078D02*
X1541836D01*
X1489531Y1405528D02*
X1541386D01*
X1489797Y1405978D02*
X1540936D01*
X1489980Y1406428D02*
X1540486D01*
X1490094Y1406878D02*
X1540036D01*
X1490146Y1407328D02*
X1539586D01*
X1490139Y1407778D02*
X1539136D01*
X1490073Y1408228D02*
X1538686D01*
X1515292Y1372678D02*
X1538326D01*
X1489943Y1408678D02*
X1538236D01*
X1489742Y1409128D02*
X1537786D01*
X1528225Y1366378D02*
X1537735D01*
X1514998Y1372228D02*
X1537425D01*
X1489454Y1409578D02*
X1537336D01*
X1536775Y1357828D02*
X1537267D01*
X1527775Y1366828D02*
X1537100D01*
X1489048Y1410028D02*
X1536932D01*
X1514684Y1371778D02*
X1536901D01*
X1488450Y1410478D02*
X1536746D01*
X1527325Y1367278D02*
X1536680D01*
X1477550Y1436578D02*
X1536634D01*
X1477516Y1436128D02*
X1536634D01*
X1477417Y1435678D02*
X1536634D01*
X1477247Y1435228D02*
X1536634D01*
X1476992Y1434778D02*
X1536634D01*
X1476625Y1434328D02*
X1536634D01*
X1476077Y1433878D02*
X1536634D01*
X1475010Y1433428D02*
X1536634D01*
X1466557Y1432978D02*
X1536634D01*
X1473186Y1432528D02*
X1536634D01*
X1474541Y1432078D02*
X1536634D01*
X1479708Y1431628D02*
X1536634D01*
X1480702Y1431178D02*
X1536634D01*
X1481251Y1430728D02*
X1536634D01*
X1510675Y1430278D02*
X1536634D01*
X1511576Y1429828D02*
X1536634D01*
X1512099Y1429378D02*
X1536634D01*
X1512461Y1428928D02*
X1536634D01*
X1512717Y1428478D02*
X1536634D01*
X1512893Y1428028D02*
X1536634D01*
X1513001Y1427578D02*
X1536634D01*
X1513048Y1427128D02*
X1536634D01*
X1513035Y1426678D02*
X1536634D01*
X1512963Y1426228D02*
X1536634D01*
X1512827Y1425778D02*
X1536634D01*
X1512618Y1425328D02*
X1536634D01*
X1512321Y1424878D02*
X1536634D01*
X1511900Y1424428D02*
X1536634D01*
X1511680Y1423978D02*
X1536634D01*
X1512146Y1423528D02*
X1536634D01*
X1512494Y1423078D02*
X1536634D01*
X1512741Y1422628D02*
X1536634D01*
X1512909Y1422178D02*
X1536634D01*
X1513010Y1421728D02*
X1536634D01*
X1513049Y1421278D02*
X1536634D01*
X1513030Y1420828D02*
X1536634D01*
X1512951Y1420378D02*
X1536634D01*
X1512807Y1419928D02*
X1536634D01*
X1512590Y1419478D02*
X1536634D01*
X1512281Y1419028D02*
X1536634D01*
X1511844Y1418578D02*
X1536634D01*
X1511948Y1418128D02*
X1536634D01*
X1512354Y1417678D02*
X1536634D01*
X1512642Y1417228D02*
X1536634D01*
X1512843Y1416778D02*
X1536634D01*
X1512973Y1416328D02*
X1536634D01*
X1513039Y1415878D02*
X1536634D01*
X1513046Y1415428D02*
X1536634D01*
X1512994Y1414978D02*
X1536634D01*
X1512880Y1414528D02*
X1536634D01*
X1512697Y1414078D02*
X1536634D01*
X1512431Y1413628D02*
X1536634D01*
X1512058Y1413178D02*
X1536634D01*
X1511512Y1412728D02*
X1536634D01*
X1510533Y1412278D02*
X1536634D01*
X1489398Y1411828D02*
X1536634D01*
X1489052Y1411378D02*
X1536634D01*
X1488555Y1410928D02*
X1536634D01*
X1477522Y1437028D02*
X1536630D01*
X1524215Y1371328D02*
X1536539D01*
X1477429Y1437478D02*
X1536451D01*
X1527064Y1367728D02*
X1536382D01*
X1525412Y1370878D02*
X1536283D01*
X1527061Y1368178D02*
X1536174D01*
X1525999Y1370428D02*
X1536107D01*
X1477266Y1437928D02*
X1536102D01*
X1526999Y1368628D02*
X1536038D01*
X1526396Y1369978D02*
X1535999D01*
X1526874Y1369078D02*
X1535965D01*
X1526678Y1369528D02*
X1535953D01*
X1477021Y1438378D02*
X1535652D01*
X1476666Y1438828D02*
X1535202D01*
X1476141Y1439278D02*
X1534752D01*
X1475181Y1439728D02*
X1534302D01*
X1395411Y1440178D02*
X1533852D01*
X1395450Y1440628D02*
X1533402D01*
X1395429Y1441078D02*
X1532952D01*
X1395349Y1441528D02*
X1532502D01*
X1395205Y1441978D02*
X1532052D01*
X1394986Y1442428D02*
X1531602D01*
X1394676Y1442878D02*
X1531152D01*
X1394235Y1443328D02*
X1530702D01*
X1393558Y1443778D02*
X1530252D01*
X1383817Y1444228D02*
X1529802D01*
X1417433Y1444678D02*
X1529352D01*
X1418412Y1445128D02*
X1528902D01*
X1418958Y1445578D02*
X1528452D01*
X1416021Y1383478D02*
X1528026D01*
X1419331Y1446028D02*
X1528002D01*
X1475129Y1446478D02*
X1527552D01*
X1522260Y1377178D02*
X1527435D01*
X1415258Y1383028D02*
X1527125D01*
X1476398Y1446928D02*
X1527102D01*
X1522496Y1377628D02*
X1526800D01*
X1476975Y1447378D02*
X1526652D01*
X1413866Y1382578D02*
X1526601D01*
X1522655Y1378078D02*
X1526380D01*
X1520785Y1382128D02*
X1526239D01*
X1477357Y1447828D02*
X1526202D01*
X1522748Y1378528D02*
X1526082D01*
X1521505Y1381678D02*
X1525983D01*
X1522780Y1378978D02*
X1525874D01*
X1521964Y1381228D02*
X1525807D01*
X1477623Y1448278D02*
X1525752D01*
X1522754Y1379428D02*
X1525738D01*
X1522287Y1380778D02*
X1525699D01*
X1522667Y1379878D02*
X1525665D01*
X1522514Y1380328D02*
X1525653D01*
X1477802Y1448728D02*
X1525302D01*
X1477908Y1449178D02*
X1524852D01*
X1477949Y1449628D02*
X1524402D01*
X1477929Y1450078D02*
X1523871D01*
X1515815Y1375828D02*
X1517972D01*
X1413983Y1382128D02*
X1517876D01*
X1515705Y1376278D02*
X1517210D01*
X1414098Y1381678D02*
X1517156D01*
X1515545Y1376728D02*
X1516734D01*
X1414148Y1381228D02*
X1516696D01*
X1515328Y1377178D02*
X1516400D01*
X1414134Y1380778D02*
X1516374D01*
X1515045Y1377628D02*
X1516165D01*
X1414057Y1380328D02*
X1516146D01*
X1514680Y1378078D02*
X1516006D01*
X1413912Y1379878D02*
X1515994D01*
X1514201Y1378528D02*
X1515913D01*
X1512389Y1379428D02*
X1515907D01*
X1513537Y1378978D02*
X1515880D01*
X1413687Y1379428D02*
X1510210D01*
X1413362Y1378978D02*
X1509062D01*
X1489644Y1412278D02*
X1508668D01*
X1481627Y1430278D02*
X1508526D01*
X1412888Y1378528D02*
X1508398D01*
X1412097Y1378078D02*
X1507919D01*
X1503575Y1371778D02*
X1507915D01*
X1489811Y1412728D02*
X1507688D01*
X1481893Y1429828D02*
X1507625D01*
X1381125Y1372228D02*
X1507601D01*
X1390873Y1377628D02*
X1507554D01*
X1413394Y1423978D02*
X1507521D01*
X1469005Y1418578D02*
X1507357D01*
X1380675Y1372678D02*
X1507307D01*
X1413446Y1424428D02*
X1507300D01*
X1390939Y1377178D02*
X1507271D01*
X1469149Y1418128D02*
X1507253D01*
X1489911Y1413178D02*
X1507143D01*
X1482077Y1429378D02*
X1507101D01*
X1380225Y1373128D02*
X1507082D01*
X1413280Y1423528D02*
X1507054D01*
X1390946Y1376728D02*
X1507054D01*
X1468786Y1419028D02*
X1506919D01*
X1388433Y1373578D02*
X1506914D01*
X1390894Y1376278D02*
X1506894D01*
X1479242Y1424878D02*
X1506880D01*
X1469229Y1417678D02*
X1506847D01*
X1389412Y1374028D02*
X1506796D01*
X1390780Y1375828D02*
X1506783D01*
X1489950Y1413628D02*
X1506769D01*
X1482193Y1428928D02*
X1506739D01*
X1389958Y1374478D02*
X1506726D01*
X1390597Y1375378D02*
X1506720D01*
X1413097Y1423078D02*
X1506706D01*
X1390331Y1374928D02*
X1506701D01*
X1468476Y1419478D02*
X1506610D01*
X1480553Y1425328D02*
X1506582D01*
X1469250Y1417228D02*
X1506559D01*
X1489929Y1414078D02*
X1506504D01*
X1482246Y1428478D02*
X1506483D01*
X1412831Y1422628D02*
X1506460D01*
X1468035Y1419928D02*
X1506393D01*
X1481155Y1425778D02*
X1506374D01*
X1488058Y1416778D02*
X1506358D01*
X1489849Y1414528D02*
X1506321D01*
X1482240Y1428028D02*
X1506307D01*
X1412458Y1422178D02*
X1506292D01*
X1467358Y1420378D02*
X1506249D01*
X1481559Y1426228D02*
X1506238D01*
X1488735Y1416328D02*
X1506228D01*
X1489705Y1414978D02*
X1506207D01*
X1482174Y1427578D02*
X1506199D01*
X1411912Y1421728D02*
X1506191D01*
X1350486Y1420828D02*
X1506170D01*
X1481845Y1426678D02*
X1506165D01*
X1489176Y1415878D02*
X1506161D01*
X1489486Y1415428D02*
X1506155D01*
X1482045Y1427128D02*
X1506153D01*
X1410933Y1421278D02*
X1506151D01*
X1451075Y1371778D02*
X1501426D01*
X1472609Y1404178D02*
X1485768D01*
X1469211Y1416778D02*
X1484943D01*
X1479830Y1410478D02*
X1484827D01*
X1409508Y1404628D02*
X1484788D01*
X1480066Y1410928D02*
X1484446D01*
X1479497Y1410028D02*
X1484353D01*
X1469111Y1416328D02*
X1484265D01*
X1350498Y1405078D02*
X1484243D01*
X1480225Y1411378D02*
X1483948D01*
X1479021Y1409578D02*
X1483947D01*
X1350498Y1405528D02*
X1483869D01*
X1473200Y1415878D02*
X1483825D01*
X1478258Y1409128D02*
X1483659D01*
X1443142Y1405978D02*
X1483604D01*
X1480318Y1411828D02*
X1483602D01*
X1478355Y1415428D02*
X1483514D01*
X1470477Y1408678D02*
X1483458D01*
X1444453Y1406428D02*
X1483421D01*
X1480350Y1412278D02*
X1483357D01*
X1469410Y1408228D02*
X1483328D01*
X1445055Y1406878D02*
X1483307D01*
X1479075Y1414978D02*
X1483296D01*
X1465029Y1407778D02*
X1483261D01*
X1445459Y1407328D02*
X1483255D01*
X1480324Y1412728D02*
X1483190D01*
X1479534Y1414528D02*
X1483151D01*
X1480237Y1413178D02*
X1483090D01*
X1479857Y1414078D02*
X1483071D01*
X1480084Y1413628D02*
X1483051D01*
X1414533Y1424878D02*
X1478358D01*
X1475148Y1431628D02*
X1477892D01*
X1415512Y1425328D02*
X1477047D01*
X1475554Y1431178D02*
X1476898D01*
X1473733Y1425778D02*
X1476446D01*
X1475842Y1430728D02*
X1476350D01*
X1474712Y1426228D02*
X1476041D01*
X1475258Y1426678D02*
X1475755D01*
X1473232Y1409128D02*
X1475542D01*
X1474324Y1415428D02*
X1475446D01*
X1474335Y1409578D02*
X1474780D01*
X1419597Y1446478D02*
X1474271D01*
X1466234Y1433428D02*
X1473591D01*
X1395311Y1439728D02*
X1473419D01*
X1419780Y1446928D02*
X1473003D01*
X1465775Y1433878D02*
X1472524D01*
X1395144Y1439278D02*
X1472459D01*
X1419894Y1447378D02*
X1472426D01*
X1467680Y1432528D02*
X1472415D01*
X1419946Y1447828D02*
X1472043D01*
X1465055Y1434328D02*
X1471976D01*
X1394898Y1438828D02*
X1471934D01*
X1416058Y1425778D02*
X1471868D01*
X1468944Y1415878D02*
X1471801D01*
X1419939Y1448278D02*
X1471778D01*
X1471025Y1409128D02*
X1471769D01*
X1376046Y1434778D02*
X1471609D01*
X1419873Y1448728D02*
X1471599D01*
X1394552Y1438378D02*
X1471580D01*
X1419743Y1449178D02*
X1471492D01*
X1419254Y1450078D02*
X1471471D01*
X1419542Y1449628D02*
X1471451D01*
X1375217Y1435228D02*
X1471354D01*
X1394055Y1437928D02*
X1471334D01*
X1350474Y1435678D02*
X1471184D01*
X1393235Y1437478D02*
X1471171D01*
X1350473Y1436128D02*
X1471085D01*
X1350473Y1437028D02*
X1471079D01*
X1468479Y1432078D02*
X1471059D01*
X1350473Y1436578D02*
X1471050D01*
X1416431Y1426228D02*
X1470888D01*
X1468698Y1415428D02*
X1470676D01*
X1468956Y1431628D02*
X1470453D01*
X1468113Y1426678D02*
X1470343D01*
X1468378Y1414978D02*
X1470100D01*
X1469283Y1431178D02*
X1470047D01*
X1468722Y1427128D02*
X1469969D01*
X1412546Y1398328D02*
X1469784D01*
X1469121Y1427578D02*
X1469704D01*
X1410502Y1404178D02*
X1469591D01*
X1412046Y1398778D02*
X1469050D01*
X1411051Y1403728D02*
X1468940D01*
X1411460Y1399228D02*
X1468596D01*
X1411427Y1403278D02*
X1468522D01*
X1411645Y1399678D02*
X1468284D01*
X1411693Y1402828D02*
X1468232D01*
X1411845Y1400128D02*
X1468069D01*
X1411877Y1402378D02*
X1468034D01*
X1466298Y1408228D02*
X1467991D01*
X1411974Y1400578D02*
X1467931D01*
X1411993Y1401928D02*
X1467912D01*
X1412040Y1401028D02*
X1467862D01*
X1412046Y1401478D02*
X1467855D01*
X1416697Y1426678D02*
X1464887D01*
X1416880Y1427128D02*
X1464278D01*
X1350486Y1420378D02*
X1464243D01*
X1445745Y1407778D02*
X1464171D01*
X1416994Y1427578D02*
X1463879D01*
X1350486Y1419928D02*
X1463565D01*
X1462900Y1419478D02*
X1463081D01*
X1445945Y1408228D02*
X1462903D01*
X1446074Y1408678D02*
X1462326D01*
X1417046Y1428028D02*
X1462242D01*
X1376546Y1434328D02*
X1462146D01*
X1458862Y1409128D02*
X1461943D01*
X1459721Y1409578D02*
X1461678D01*
X1350487Y1419478D02*
X1461501D01*
X1460218Y1410028D02*
X1461499D01*
X1417039Y1428478D02*
X1461480D01*
X1376894Y1433878D02*
X1461426D01*
X1460557Y1410478D02*
X1461392D01*
X1460791Y1410928D02*
X1461351D01*
X1416973Y1428928D02*
X1461004D01*
X1377141Y1433428D02*
X1460966D01*
X1416843Y1429378D02*
X1460670D01*
X1377309Y1432978D02*
X1460644D01*
X1416642Y1429828D02*
X1460435D01*
X1377410Y1432528D02*
X1460416D01*
X1350487Y1419028D02*
X1460376D01*
X1416354Y1430278D02*
X1460276D01*
X1377449Y1432078D02*
X1460264D01*
X1415948Y1430728D02*
X1460183D01*
X1413986Y1431628D02*
X1460177D01*
X1415341Y1431178D02*
X1460150D01*
X1350488Y1418578D02*
X1459800D01*
X1350488Y1418128D02*
X1459410D01*
X1350488Y1417678D02*
X1459132D01*
X1350489Y1417228D02*
X1458940D01*
X1350489Y1416778D02*
X1458818D01*
X1350489Y1416328D02*
X1458758D01*
X1350490Y1415878D02*
X1458757D01*
X1458175Y1415428D02*
X1458688D01*
X1350490D02*
X1457426D01*
X1446140Y1409128D02*
X1456738D01*
X1350490Y1414978D02*
X1456114D01*
X1446146Y1409578D02*
X1455879D01*
X1350491Y1414528D02*
X1455533D01*
X1446093Y1410028D02*
X1455382D01*
X1350491Y1414078D02*
X1455148D01*
X1445977Y1410478D02*
X1455044D01*
X1350492Y1413628D02*
X1454881D01*
X1445793Y1410928D02*
X1454809D01*
X1360375Y1413178D02*
X1454701D01*
X1445527Y1411378D02*
X1454656D01*
X1443608Y1412728D02*
X1454593D01*
X1445151Y1411828D02*
X1454572D01*
X1444602Y1412278D02*
X1454551D01*
X1381576Y1371778D02*
X1448926D01*
X1350498Y1405978D02*
X1442258D01*
X1361276Y1412728D02*
X1441792D01*
X1350497Y1406428D02*
X1440947D01*
X1361799Y1412278D02*
X1440798D01*
X1360965Y1406878D02*
X1440346D01*
X1362161Y1411828D02*
X1440250D01*
X1361600Y1407328D02*
X1439941D01*
X1362417Y1411378D02*
X1439874D01*
X1362021Y1407778D02*
X1439655D01*
X1362593Y1410928D02*
X1439607D01*
X1362318Y1408228D02*
X1439455D01*
X1362701Y1410478D02*
X1439423D01*
X1362527Y1408678D02*
X1439327D01*
X1362748Y1410028D02*
X1439308D01*
X1362663Y1409128D02*
X1439261D01*
X1362735Y1409578D02*
X1439255D01*
X1418848Y1450528D02*
X1421861D01*
X1418241Y1450978D02*
X1421068D01*
X1416886Y1451428D02*
X1420276D01*
X1350461Y1451878D02*
X1419483D01*
X1350460Y1452328D02*
X1418691D01*
X1350460Y1452778D02*
X1417898D01*
X1350460Y1453228D02*
X1417106D01*
X1350459Y1453678D02*
X1416313D01*
X1350461Y1451428D02*
X1416115D01*
X1350467Y1444678D02*
X1415568D01*
X1350459Y1454128D02*
X1415521D01*
X1350462Y1450978D02*
X1414759D01*
X1350459Y1454578D02*
X1414728D01*
X1350466Y1445128D02*
X1414588D01*
X1350462Y1450528D02*
X1414153D01*
X1350466Y1445578D02*
X1414043D01*
X1350458Y1455028D02*
X1413936D01*
X1350462Y1450078D02*
X1413747D01*
X1350465Y1446028D02*
X1413669D01*
X1350463Y1449628D02*
X1413459D01*
X1350465Y1446478D02*
X1413404D01*
X1350463Y1449178D02*
X1413258D01*
X1350465Y1446928D02*
X1413221D01*
X1407417Y1431628D02*
X1413215D01*
X1350458Y1455478D02*
X1413143D01*
X1350463Y1448728D02*
X1413128D01*
X1350464Y1447378D02*
X1413107D01*
X1350464Y1448278D02*
X1413061D01*
X1350464Y1447828D02*
X1413055D01*
X1364025Y1389328D02*
X1412446D01*
X1350458Y1455928D02*
X1412351D01*
X1408246Y1431178D02*
X1411859D01*
X1364475Y1388878D02*
X1411726D01*
X1350457Y1456378D02*
X1411558D01*
X1364925Y1388428D02*
X1411266D01*
X1408746Y1430728D02*
X1411253D01*
X1365375Y1387978D02*
X1410944D01*
X1409094Y1430278D02*
X1410847D01*
X1350457Y1456828D02*
X1410766D01*
X1368525Y1384828D02*
X1410735D01*
X1365825Y1387528D02*
X1410716D01*
X1368975Y1384378D02*
X1410713D01*
X1368075Y1385278D02*
X1410576D01*
X1366275Y1387078D02*
X1410564D01*
X1409341Y1429828D02*
X1410559D01*
X1367625Y1385728D02*
X1410483D01*
X1366725Y1386628D02*
X1410477D01*
X1367175Y1386178D02*
X1410450D01*
X1409509Y1429378D02*
X1410358D01*
X1409610Y1428928D02*
X1410228D01*
X1409649Y1428478D02*
X1410161D01*
X1350456Y1457278D02*
X1409973D01*
X1390743Y1378078D02*
X1409703D01*
X1369425Y1383928D02*
X1409299D01*
X1350456Y1457728D02*
X1409181D01*
X1402742Y1421278D02*
X1409068D01*
X1390542Y1378528D02*
X1408913D01*
X1369875Y1383478D02*
X1408685D01*
X1390254Y1378978D02*
X1408438D01*
X1360425Y1392928D02*
X1408429D01*
X1350456Y1458178D02*
X1408388D01*
X1370325Y1383028D02*
X1408284D01*
X1389848Y1379428D02*
X1408113D01*
X1404053Y1421728D02*
X1408088D01*
X1370775Y1382578D02*
X1408006D01*
X1389241Y1379878D02*
X1407889D01*
X1371225Y1382128D02*
X1407817D01*
X1359975Y1393378D02*
X1407758D01*
X1387886Y1380328D02*
X1407743D01*
X1371675Y1381678D02*
X1407702D01*
X1350499Y1404628D02*
X1407692D01*
X1372575Y1380778D02*
X1407666D01*
X1372125Y1381228D02*
X1407653D01*
X1350455Y1458628D02*
X1407596D01*
X1404655Y1422178D02*
X1407543D01*
X1359525Y1393828D02*
X1407319D01*
X1405059Y1422628D02*
X1407169D01*
X1355475Y1397878D02*
X1407106D01*
X1359075Y1394278D02*
X1407010D01*
X1405345Y1423078D02*
X1406904D01*
X1355946Y1397428D02*
X1406860D01*
X1355025Y1398328D02*
X1406847D01*
X1350455Y1459078D02*
X1406804D01*
X1358625Y1394728D02*
X1406793D01*
X1405545Y1423528D02*
X1406721D01*
X1350499Y1404178D02*
X1406698D01*
X1356375Y1396978D02*
X1406692D01*
X1358175Y1395178D02*
X1406649D01*
X1405674Y1423978D02*
X1406607D01*
X1356825Y1396528D02*
X1406591D01*
X1357725Y1395628D02*
X1406570D01*
X1405740Y1424428D02*
X1406555D01*
X1357275Y1396078D02*
X1406551D01*
X1405820Y1424878D02*
X1406478D01*
X1354575Y1398778D02*
X1406246D01*
X1350499Y1403728D02*
X1406150D01*
X1350455Y1459528D02*
X1406011D01*
X1354125Y1399228D02*
X1405841D01*
X1350500Y1403278D02*
X1405774D01*
X1353675Y1399678D02*
X1405555D01*
X1350660Y1402828D02*
X1405507D01*
X1353225Y1400128D02*
X1405355D01*
X1350975Y1402378D02*
X1405323D01*
X1352775Y1400578D02*
X1405227D01*
X1350454Y1459978D02*
X1405219D01*
X1351425Y1401928D02*
X1405208D01*
X1352325Y1401028D02*
X1405161D01*
X1351875Y1401478D02*
X1405155D01*
X1377430Y1431628D02*
X1404984D01*
X1350454Y1460428D02*
X1404426D01*
X1377351Y1431178D02*
X1404155D01*
X1377207Y1430728D02*
X1403654D01*
X1350454Y1460878D02*
X1403634D01*
X1376990Y1430278D02*
X1403306D01*
X1376681Y1429828D02*
X1403060D01*
X1376243Y1429378D02*
X1402892D01*
X1350453Y1461328D02*
X1402841D01*
X1375571Y1428928D02*
X1402791D01*
X1350480Y1428478D02*
X1402751D01*
X1350637Y1461778D02*
X1402049D01*
X1367369Y1421278D02*
X1401858D01*
X1350480Y1428028D02*
X1401392D01*
X1351160Y1462228D02*
X1401256D01*
X1368083Y1421728D02*
X1400547D01*
X1351682Y1462678D02*
X1400464D01*
X1367242Y1427578D02*
X1400398D01*
X1368540Y1422178D02*
X1399946D01*
X1368012Y1427128D02*
X1399850D01*
X1352204Y1463128D02*
X1399671D01*
X1368861Y1422628D02*
X1399541D01*
X1368491Y1426678D02*
X1399474D01*
X1369087Y1423078D02*
X1399255D01*
X1368826Y1426228D02*
X1399207D01*
X1369238Y1423528D02*
X1399055D01*
X1369063Y1425778D02*
X1399023D01*
X1369324Y1423978D02*
X1398927D01*
X1369223Y1425328D02*
X1398908D01*
X1352727Y1463578D02*
X1398879D01*
X1369350Y1424428D02*
X1398861D01*
X1369317Y1424878D02*
X1398855D01*
X1353249Y1464028D02*
X1398086D01*
X1353771Y1464478D02*
X1397294D01*
X1350472Y1437478D02*
X1390766D01*
X1384646Y1443778D02*
X1390443D01*
X1384171Y1437928D02*
X1389946D01*
X1385146Y1443328D02*
X1389765D01*
X1384843Y1438378D02*
X1389448D01*
X1385494Y1442878D02*
X1389325D01*
X1385281Y1438828D02*
X1389102D01*
X1385741Y1442428D02*
X1389014D01*
X1385590Y1439278D02*
X1388857D01*
X1385909Y1441978D02*
X1388796D01*
X1385807Y1439728D02*
X1388690D01*
X1386010Y1441528D02*
X1388651D01*
X1385951Y1440178D02*
X1388590D01*
X1386049Y1441078D02*
X1388571D01*
X1386030Y1440628D02*
X1388551D01*
X1373025Y1380328D02*
X1387115D01*
X1379775Y1373578D02*
X1386568D01*
X1373475Y1379878D02*
X1385759D01*
X1379325Y1374028D02*
X1385588D01*
X1373925Y1379428D02*
X1385153D01*
X1378875Y1374478D02*
X1385043D01*
X1374375Y1378978D02*
X1384747D01*
X1378425Y1374928D02*
X1384669D01*
X1374825Y1378528D02*
X1384459D01*
X1377975Y1375378D02*
X1384404D01*
X1375275Y1378078D02*
X1384258D01*
X1377525Y1375828D02*
X1384221D01*
X1375725Y1377628D02*
X1384128D01*
X1377075Y1376278D02*
X1384107D01*
X1376175Y1377178D02*
X1384061D01*
X1376625Y1376728D02*
X1384055D01*
X1350467Y1444228D02*
X1381384D01*
X1350472Y1437928D02*
X1381029D01*
X1350467Y1443778D02*
X1380555D01*
X1350472Y1438378D02*
X1380358D01*
X1350468Y1443328D02*
X1380054D01*
X1350471Y1438828D02*
X1379919D01*
X1350468Y1442878D02*
X1379706D01*
X1350471Y1439278D02*
X1379610D01*
X1350468Y1442428D02*
X1379460D01*
X1350471Y1439728D02*
X1379393D01*
X1350469Y1441978D02*
X1379292D01*
X1350470Y1440178D02*
X1379249D01*
X1350469Y1441528D02*
X1379191D01*
X1350470Y1440628D02*
X1379170D01*
X1350469Y1441078D02*
X1379151D01*
X1359855Y1435228D02*
X1372784D01*
X1359758Y1428928D02*
X1372429D01*
X1360575Y1434778D02*
X1371955D01*
X1360521Y1429378D02*
X1371758D01*
X1361034Y1434328D02*
X1371454D01*
X1360997Y1429828D02*
X1371319D01*
X1361357Y1433878D02*
X1371106D01*
X1361330Y1430278D02*
X1371010D01*
X1361584Y1433428D02*
X1370860D01*
X1361566Y1430728D02*
X1370793D01*
X1361737Y1432978D02*
X1370692D01*
X1361725Y1431178D02*
X1370649D01*
X1361824Y1432528D02*
X1370591D01*
X1361818Y1431628D02*
X1370570D01*
X1361850Y1432078D02*
X1370551D01*
X1350480Y1427578D02*
X1364558D01*
X1350485Y1421278D02*
X1364431D01*
X1350481Y1427128D02*
X1363789D01*
X1350485Y1421728D02*
X1363717D01*
X1350481Y1426678D02*
X1363310D01*
X1350485Y1422178D02*
X1363261D01*
X1350481Y1426228D02*
X1362975D01*
X1350484Y1422628D02*
X1362940D01*
X1350482Y1425778D02*
X1362738D01*
X1350484Y1423078D02*
X1362713D01*
X1350482Y1425328D02*
X1362577D01*
X1350484Y1423528D02*
X1362562D01*
X1350482Y1424878D02*
X1362484D01*
X1350483Y1423978D02*
X1362476D01*
X1350483Y1424428D02*
X1362450D01*
X1350492Y1413178D02*
X1358226D01*
X1350497Y1406878D02*
X1357635D01*
X1350492Y1412728D02*
X1357325D01*
X1350479Y1428928D02*
X1357042D01*
X1350497Y1407328D02*
X1357000D01*
X1350474Y1435228D02*
X1356946D01*
X1350493Y1412278D02*
X1356801D01*
X1350496Y1407778D02*
X1356580D01*
X1350493Y1411828D02*
X1356439D01*
X1350496Y1408228D02*
X1356282D01*
X1350479Y1429378D02*
X1356280D01*
X1350475Y1434778D02*
X1356226D01*
X1350493Y1411378D02*
X1356183D01*
X1350495Y1408678D02*
X1356074D01*
X1350494Y1410928D02*
X1356007D01*
X1350495Y1409128D02*
X1355938D01*
X1350494Y1410478D02*
X1355899D01*
X1350495Y1409578D02*
X1355865D01*
X1350494Y1410028D02*
X1355853D01*
X1350479Y1429828D02*
X1355804D01*
X1350475Y1434328D02*
X1355766D01*
X1350478Y1430278D02*
X1355470D01*
X1350475Y1433878D02*
X1355444D01*
X1350478Y1430728D02*
X1355235D01*
X1350476Y1433428D02*
X1355216D01*
X1350477Y1431178D02*
X1355076D01*
X1350476Y1432978D02*
X1355064D01*
X1350477Y1431628D02*
X1354983D01*
X1350476Y1432528D02*
X1354977D01*
X1350477Y1432078D02*
X1354950D01*
X1571250Y1432016D02*
X1596250D01*
X1570750Y1431516D02*
X1596750D01*
X1570250Y1431016D02*
X1597250D01*
X1570250Y1430516D02*
X1597250D01*
X1570250Y1430016D02*
X1597250D01*
X1570250Y1429516D02*
X1597250D01*
X1570250Y1429016D02*
X1597250D01*
X1570250Y1428516D02*
X1597250D01*
X1570250Y1428016D02*
X1597250D01*
X1570250Y1427516D02*
X1597250D01*
X1570250Y1427016D02*
X1597250D01*
X1570250Y1426516D02*
X1597250D01*
X1570250Y1426016D02*
X1597250D01*
X1570250Y1425516D02*
X1597250D01*
X1570250Y1425016D02*
X1597250D01*
X1570250Y1424516D02*
X1597250D01*
X1570250Y1424016D02*
X1597250D01*
X1570250Y1423516D02*
X1597250D01*
X1570250Y1423016D02*
X1597250D01*
X1570250Y1422516D02*
X1597250D01*
X1570250Y1422016D02*
X1597250D01*
X1570250Y1421516D02*
X1597250D01*
X1570250Y1421016D02*
X1597250D01*
X1570250Y1420516D02*
X1597250D01*
X1570250Y1420016D02*
X1597250D01*
X1570250Y1419516D02*
X1597250D01*
X1570437Y1419016D02*
X1597063D01*
X1570937Y1418516D02*
X1596563D01*
X1571437Y1418016D02*
X1596063D01*
X1570250Y1419204D02*
Y1431016D01*
X1570750Y1418704D02*
Y1431516D01*
X1571250Y1418204D02*
Y1432016D01*
X1571750Y1417750D02*
Y1432470D01*
X1572250Y1417750D02*
Y1432470D01*
X1572750Y1417750D02*
Y1432470D01*
X1573250Y1417750D02*
Y1432470D01*
X1573750Y1417750D02*
Y1432470D01*
X1574250Y1417750D02*
Y1432470D01*
X1574750Y1417750D02*
Y1432470D01*
X1575250Y1417750D02*
Y1432470D01*
X1575750Y1417750D02*
Y1432470D01*
X1576250Y1417750D02*
Y1432470D01*
X1576750Y1417750D02*
Y1432470D01*
X1577250Y1417750D02*
Y1432470D01*
X1577750Y1417750D02*
Y1432470D01*
X1578250Y1417750D02*
Y1432470D01*
X1578750Y1417750D02*
Y1432470D01*
X1579250Y1417750D02*
Y1432470D01*
X1579750Y1417750D02*
Y1432470D01*
X1580250Y1417750D02*
Y1432470D01*
X1580750Y1417750D02*
Y1432470D01*
X1581250Y1417750D02*
Y1432470D01*
X1581750Y1417750D02*
Y1432470D01*
X1582250Y1417750D02*
Y1432470D01*
X1582750Y1417750D02*
Y1432470D01*
X1583250Y1417750D02*
Y1432470D01*
X1583750Y1417750D02*
Y1432470D01*
X1584250Y1417750D02*
Y1432470D01*
X1584750Y1417750D02*
Y1432470D01*
X1585250Y1417750D02*
Y1432470D01*
X1585750Y1417750D02*
Y1432470D01*
X1586250Y1417750D02*
Y1432470D01*
X1586750Y1417750D02*
Y1432470D01*
X1587250Y1417750D02*
Y1432470D01*
X1587750Y1417750D02*
Y1432470D01*
X1588250Y1417750D02*
Y1432470D01*
X1588750Y1417750D02*
Y1432470D01*
X1589250Y1417750D02*
Y1432470D01*
X1589750Y1417750D02*
Y1432470D01*
X1590250Y1417750D02*
Y1432470D01*
X1590750Y1417750D02*
Y1432470D01*
X1591250Y1417750D02*
Y1432470D01*
X1591750Y1417750D02*
Y1432470D01*
X1592250Y1417750D02*
Y1432470D01*
X1592750Y1417750D02*
Y1432470D01*
X1593250Y1417750D02*
Y1432470D01*
X1593750Y1417750D02*
Y1432470D01*
X1594250Y1417750D02*
Y1432470D01*
X1594750Y1417750D02*
Y1432470D01*
X1595250Y1417750D02*
Y1432470D01*
X1595750Y1417750D02*
Y1432470D01*
X1596250Y1418204D02*
Y1432016D01*
X1596750Y1418704D02*
Y1431516D01*
G54D174*
X1026929Y1469016D03*
G54D175*
Y1479016D03*
X1036929Y1469016D03*
Y1479016D03*
X1046929Y1469016D03*
Y1479016D03*
G54D248*
X1079000Y1457500D03*
Y1447500D03*
X1139000Y1387500D03*
Y1367500D03*
Y1457500D03*
Y1447500D03*
X1079000Y1387500D03*
Y1367500D03*
X1015985Y1357362D03*
Y1367362D03*
Y1445945D03*
Y1455945D03*
Y1375079D03*
Y1385079D03*
Y1392795D03*
Y1402795D03*
Y1428228D03*
Y1438228D03*
Y1410512D03*
Y1420512D03*
G54D258*
X1406772Y1020126D03*
X1434331Y1475126D03*
G54D293*
X1621339Y1409724D03*
G54D301*
X1605200Y1419083D02*
X1606083Y1418200D01*
X1628917*
X1629800Y1419083*
Y1423917*
X1628917Y1424800*
X1606083*
X1605200Y1423917*
Y1419083*
Y1400417D02*
X1607083Y1402300D01*
X1627917*
X1629800Y1400417*
Y1394583*
X1627917Y1392700*
X1607083*
X1605200Y1394583*
Y1400417*
X1597300Y1408417D02*
X1595917Y1409800D01*
X1572083*
X1570200Y1407917*
Y1395533*
X1572083Y1393650*
X1579158*
X1596417*
X1597300Y1394533*
Y1408417*
X1605200Y1419083D02*
X1606083Y1418200D01*
X1628917*
X1629800Y1419083*
Y1423917*
X1628917Y1424800*
X1606083*
X1605200Y1423917*
Y1419083*
Y1400417D02*
X1607083Y1402300D01*
X1627917*
X1629800Y1400417*
Y1394583*
X1627917Y1392700*
X1607083*
X1605200Y1394583*
Y1400417*
X1605966Y1424683D02*
X1629035D01*
X1605566Y1424283D02*
X1629435D01*
X1605200Y1423883D02*
X1629800D01*
X1605200Y1423483D02*
X1629800D01*
X1605200Y1423083D02*
X1629800D01*
X1605200Y1422683D02*
X1629800D01*
X1605200Y1422283D02*
X1629800D01*
X1605200Y1421883D02*
X1629800D01*
X1605200Y1421483D02*
X1629800D01*
X1605200Y1421083D02*
X1629800D01*
X1605200Y1420683D02*
X1629800D01*
X1605200Y1420283D02*
X1629800D01*
X1605200Y1419883D02*
X1629800D01*
X1605200Y1419483D02*
X1629800D01*
X1605200Y1419083D02*
X1629800D01*
X1605600Y1418683D02*
X1629400D01*
X1606000Y1418283D02*
X1629000D01*
X1605200Y1419083D02*
Y1423917D01*
X1605600Y1418683D02*
Y1424317D01*
X1606000Y1418283D02*
Y1424717D01*
X1606400Y1418200D02*
Y1424800D01*
X1606800Y1418200D02*
Y1424800D01*
X1607200Y1418200D02*
Y1424800D01*
X1607600Y1418200D02*
Y1424800D01*
X1608000Y1418200D02*
Y1424800D01*
X1608400Y1418200D02*
Y1424800D01*
X1608800Y1418200D02*
Y1424800D01*
X1609200Y1418200D02*
Y1424800D01*
X1609600Y1418200D02*
Y1424800D01*
X1610000Y1418200D02*
Y1424800D01*
X1610400Y1418200D02*
Y1424800D01*
X1610800Y1418200D02*
Y1424800D01*
X1611200Y1418200D02*
Y1424800D01*
X1611600Y1418200D02*
Y1424800D01*
X1612000Y1418200D02*
Y1424800D01*
X1612400Y1418200D02*
Y1424800D01*
X1612800Y1418200D02*
Y1424800D01*
X1613200Y1418200D02*
Y1424800D01*
X1613600Y1418200D02*
Y1424800D01*
X1614000Y1418200D02*
Y1424800D01*
X1614400Y1418200D02*
Y1424800D01*
X1614800Y1418200D02*
Y1424800D01*
X1615200Y1418200D02*
Y1424800D01*
X1615600Y1418200D02*
Y1424800D01*
X1616000Y1418200D02*
Y1424800D01*
X1616400Y1418200D02*
Y1424800D01*
X1616800Y1418200D02*
Y1424800D01*
X1617200Y1418200D02*
Y1424800D01*
X1617600Y1418200D02*
Y1424800D01*
X1618000Y1418200D02*
Y1424800D01*
X1618400Y1418200D02*
Y1424800D01*
X1618800Y1418200D02*
Y1424800D01*
X1619200Y1418200D02*
Y1424800D01*
X1619600Y1418200D02*
Y1424800D01*
X1620000Y1418200D02*
Y1424800D01*
X1620400Y1418200D02*
Y1424800D01*
X1620800Y1418200D02*
Y1424800D01*
X1621200Y1418200D02*
Y1424800D01*
X1621600Y1418200D02*
Y1424800D01*
X1622000Y1418200D02*
Y1424800D01*
X1622400Y1418200D02*
Y1424800D01*
X1622800Y1418200D02*
Y1424800D01*
X1623200Y1418200D02*
Y1424800D01*
X1623600Y1418200D02*
Y1424800D01*
X1624000Y1418200D02*
Y1424800D01*
X1624400Y1418200D02*
Y1424800D01*
X1624800Y1418200D02*
Y1424800D01*
X1625200Y1418200D02*
Y1424800D01*
X1625600Y1418200D02*
Y1424800D01*
X1626000Y1418200D02*
Y1424800D01*
X1626400Y1418200D02*
Y1424800D01*
X1626800Y1418200D02*
Y1424800D01*
X1627200Y1418200D02*
Y1424800D01*
X1627600Y1418200D02*
Y1424800D01*
X1628000Y1418200D02*
Y1424800D01*
X1628400Y1418200D02*
Y1424800D01*
X1628800Y1418200D02*
Y1424800D01*
X1629200Y1418483D02*
Y1424517D01*
X1629600Y1418883D02*
Y1424117D01*
X1606800Y1402017D02*
X1628200D01*
X1606400Y1401617D02*
X1628600D01*
X1606000Y1401217D02*
X1629000D01*
X1605600Y1400817D02*
X1629400D01*
X1605200Y1400417D02*
X1629800D01*
X1605200Y1400017D02*
X1629800D01*
X1605200Y1399617D02*
X1629800D01*
X1605200Y1399217D02*
X1629800D01*
X1605200Y1398817D02*
X1629800D01*
X1605200Y1398417D02*
X1629800D01*
X1605200Y1398017D02*
X1629800D01*
X1605200Y1397617D02*
X1629800D01*
X1605200Y1397217D02*
X1629800D01*
X1605200Y1396817D02*
X1629800D01*
X1605200Y1396417D02*
X1629800D01*
X1605200Y1396017D02*
X1629800D01*
X1605200Y1395617D02*
X1629800D01*
X1605200Y1395217D02*
X1629800D01*
X1605200Y1394817D02*
X1629800D01*
X1605366Y1394417D02*
X1629635D01*
X1605766Y1394017D02*
X1629235D01*
X1606166Y1393617D02*
X1628835D01*
X1606566Y1393217D02*
X1628435D01*
X1606966Y1392817D02*
X1628035D01*
X1605200Y1394583D02*
Y1400417D01*
X1605600Y1394183D02*
Y1400817D01*
X1606000Y1393783D02*
Y1401217D01*
X1606400Y1393383D02*
Y1401617D01*
X1606800Y1392983D02*
Y1402017D01*
X1607200Y1392700D02*
Y1402300D01*
X1607600Y1392700D02*
Y1402300D01*
X1608000Y1392700D02*
Y1402300D01*
X1608400Y1392700D02*
Y1402300D01*
X1608800Y1392700D02*
Y1402300D01*
X1609200Y1392700D02*
Y1402300D01*
X1609600Y1392700D02*
Y1402300D01*
X1610000Y1392700D02*
Y1402300D01*
X1610400Y1392700D02*
Y1402300D01*
X1610800Y1392700D02*
Y1402300D01*
X1611200Y1392700D02*
Y1402300D01*
X1611600Y1392700D02*
Y1402300D01*
X1612000Y1392700D02*
Y1402300D01*
X1612400Y1392700D02*
Y1402300D01*
X1612800Y1392700D02*
Y1402300D01*
X1613200Y1392700D02*
Y1402300D01*
X1613600Y1392700D02*
Y1402300D01*
X1614000Y1392700D02*
Y1402300D01*
X1614400Y1392700D02*
Y1402300D01*
X1614800Y1392700D02*
Y1402300D01*
X1615200Y1392700D02*
Y1402300D01*
X1615600Y1392700D02*
Y1402300D01*
X1616000Y1392700D02*
Y1402300D01*
X1616400Y1392700D02*
Y1402300D01*
X1616800Y1392700D02*
Y1402300D01*
X1617200Y1392700D02*
Y1402300D01*
X1617600Y1392700D02*
Y1402300D01*
X1618000Y1392700D02*
Y1402300D01*
X1618400Y1392700D02*
Y1402300D01*
X1618800Y1392700D02*
Y1402300D01*
X1619200Y1392700D02*
Y1402300D01*
X1619600Y1392700D02*
Y1402300D01*
X1620000Y1392700D02*
Y1402300D01*
X1620400Y1392700D02*
Y1402300D01*
X1620800Y1392700D02*
Y1402300D01*
X1621200Y1392700D02*
Y1402300D01*
X1621600Y1392700D02*
Y1402300D01*
X1622000Y1392700D02*
Y1402300D01*
X1622400Y1392700D02*
Y1402300D01*
X1622800Y1392700D02*
Y1402300D01*
X1623200Y1392700D02*
Y1402300D01*
X1623600Y1392700D02*
Y1402300D01*
X1624000Y1392700D02*
Y1402300D01*
X1624400Y1392700D02*
Y1402300D01*
X1624800Y1392700D02*
Y1402300D01*
X1625200Y1392700D02*
Y1402300D01*
X1625600Y1392700D02*
Y1402300D01*
X1626000Y1392700D02*
Y1402300D01*
X1626400Y1392700D02*
Y1402300D01*
X1626800Y1392700D02*
Y1402300D01*
X1627200Y1392700D02*
Y1402300D01*
X1627600Y1392700D02*
Y1402300D01*
X1628000Y1392783D02*
Y1402217D01*
X1628400Y1393183D02*
Y1401817D01*
X1628800Y1393583D02*
Y1401417D01*
X1629200Y1393983D02*
Y1401017D01*
X1629600Y1394383D02*
Y1400617D01*
X1571900Y1409617D02*
X1596100D01*
X1571500Y1409217D02*
X1596500D01*
X1571100Y1408817D02*
X1596900D01*
X1570700Y1408417D02*
X1597300D01*
X1570300Y1408017D02*
X1597300D01*
X1570200Y1407617D02*
X1597300D01*
X1570200Y1407217D02*
X1597300D01*
X1570200Y1406817D02*
X1597300D01*
X1570200Y1406417D02*
X1597300D01*
X1570200Y1406017D02*
X1597300D01*
X1570200Y1405617D02*
X1597300D01*
X1570200Y1405217D02*
X1597300D01*
X1570200Y1404817D02*
X1597300D01*
X1570200Y1404417D02*
X1597300D01*
X1570200Y1404017D02*
X1597300D01*
X1570200Y1403617D02*
X1597300D01*
X1570200Y1403217D02*
X1597300D01*
X1570200Y1402817D02*
X1597300D01*
X1570200Y1402417D02*
X1597300D01*
X1570200Y1402017D02*
X1597300D01*
X1570200Y1401617D02*
X1597300D01*
X1570200Y1401217D02*
X1597300D01*
X1570200Y1400817D02*
X1597300D01*
X1570200Y1400417D02*
X1597300D01*
X1570200Y1400017D02*
X1597300D01*
X1570200Y1399617D02*
X1597300D01*
X1570200Y1399217D02*
X1597300D01*
X1570200Y1398817D02*
X1597300D01*
X1570200Y1398417D02*
X1597300D01*
X1570200Y1398017D02*
X1597300D01*
X1570200Y1397617D02*
X1597300D01*
X1570200Y1397217D02*
X1597300D01*
X1570200Y1396817D02*
X1597300D01*
X1570200Y1396417D02*
X1597300D01*
X1570200Y1396017D02*
X1597300D01*
X1570200Y1395617D02*
X1597300D01*
X1570516Y1395217D02*
X1597300D01*
X1570916Y1394817D02*
X1597300D01*
X1571316Y1394417D02*
X1597185D01*
X1571716Y1394017D02*
X1596785D01*
X1570500Y1395233D02*
Y1408217D01*
X1570900Y1394833D02*
Y1408617D01*
X1571300Y1394433D02*
Y1409017D01*
X1571700Y1394033D02*
Y1409417D01*
X1572100Y1393650D02*
Y1409800D01*
X1572500Y1393650D02*
Y1409800D01*
X1572900Y1393650D02*
Y1409800D01*
X1573300Y1393650D02*
Y1409800D01*
X1573700Y1393650D02*
Y1409800D01*
X1574100Y1393650D02*
Y1409800D01*
X1574500Y1393650D02*
Y1409800D01*
X1574900Y1393650D02*
Y1409800D01*
X1575300Y1393650D02*
Y1409800D01*
X1575700Y1393650D02*
Y1409800D01*
X1576100Y1393650D02*
Y1409800D01*
X1576500Y1393650D02*
Y1409800D01*
X1576900Y1393650D02*
Y1409800D01*
X1577300Y1393650D02*
Y1409800D01*
X1577700Y1393650D02*
Y1409800D01*
X1578100Y1393650D02*
Y1409800D01*
X1578500Y1393650D02*
Y1409800D01*
X1578900Y1393650D02*
Y1409800D01*
X1579300Y1393650D02*
Y1409800D01*
X1579700Y1393650D02*
Y1409800D01*
X1580100Y1393650D02*
Y1409800D01*
X1580500Y1393650D02*
Y1409800D01*
X1580900Y1393650D02*
Y1409800D01*
X1581300Y1393650D02*
Y1409800D01*
X1581700Y1393650D02*
Y1409800D01*
X1582100Y1393650D02*
Y1409800D01*
X1582500Y1393650D02*
Y1409800D01*
X1582900Y1393650D02*
Y1409800D01*
X1583300Y1393650D02*
Y1409800D01*
X1583700Y1393650D02*
Y1409800D01*
X1584100Y1393650D02*
Y1409800D01*
X1584500Y1393650D02*
Y1409800D01*
X1584900Y1393650D02*
Y1409800D01*
X1585300Y1393650D02*
Y1409800D01*
X1585700Y1393650D02*
Y1409800D01*
X1586100Y1393650D02*
Y1409800D01*
X1586500Y1393650D02*
Y1409800D01*
X1586900Y1393650D02*
Y1409800D01*
X1587300Y1393650D02*
Y1409800D01*
X1587700Y1393650D02*
Y1409800D01*
X1588100Y1393650D02*
Y1409800D01*
X1588500Y1393650D02*
Y1409800D01*
X1588900Y1393650D02*
Y1409800D01*
X1589300Y1393650D02*
Y1409800D01*
X1589700Y1393650D02*
Y1409800D01*
X1590100Y1393650D02*
Y1409800D01*
X1590500Y1393650D02*
Y1409800D01*
X1590900Y1393650D02*
Y1409800D01*
X1591300Y1393650D02*
Y1409800D01*
X1591700Y1393650D02*
Y1409800D01*
X1592100Y1393650D02*
Y1409800D01*
X1592500Y1393650D02*
Y1409800D01*
X1592900Y1393650D02*
Y1409800D01*
X1593300Y1393650D02*
Y1409800D01*
X1593700Y1393650D02*
Y1409800D01*
X1594100Y1393650D02*
Y1409800D01*
X1594500Y1393650D02*
Y1409800D01*
X1594900Y1393650D02*
Y1409800D01*
X1595300Y1393650D02*
Y1409800D01*
X1595700Y1393650D02*
Y1409800D01*
X1596100Y1393650D02*
Y1409617D01*
X1596500Y1393733D02*
Y1409217D01*
X1596900Y1394133D02*
Y1408817D01*
X1605966Y1424683D02*
X1629035D01*
X1605566Y1424283D02*
X1629435D01*
X1605200Y1423883D02*
X1629800D01*
X1605200Y1423483D02*
X1629800D01*
X1605200Y1423083D02*
X1629800D01*
X1605200Y1422683D02*
X1629800D01*
X1605200Y1422283D02*
X1629800D01*
X1605200Y1421883D02*
X1629800D01*
X1605200Y1421483D02*
X1629800D01*
X1605200Y1421083D02*
X1629800D01*
X1605200Y1420683D02*
X1629800D01*
X1605200Y1420283D02*
X1629800D01*
X1605200Y1419883D02*
X1629800D01*
X1605200Y1419483D02*
X1629800D01*
X1605200Y1419083D02*
X1629800D01*
X1605600Y1418683D02*
X1629400D01*
X1606000Y1418283D02*
X1629000D01*
X1605200Y1419083D02*
Y1423917D01*
X1605600Y1418683D02*
Y1424317D01*
X1606000Y1418283D02*
Y1424717D01*
X1606400Y1418200D02*
Y1424800D01*
X1606800Y1418200D02*
Y1424800D01*
X1607200Y1418200D02*
Y1424800D01*
X1607600Y1418200D02*
Y1424800D01*
X1608000Y1418200D02*
Y1424800D01*
X1608400Y1418200D02*
Y1424800D01*
X1608800Y1418200D02*
Y1424800D01*
X1609200Y1418200D02*
Y1424800D01*
X1609600Y1418200D02*
Y1424800D01*
X1610000Y1418200D02*
Y1424800D01*
X1610400Y1418200D02*
Y1424800D01*
X1610800Y1418200D02*
Y1424800D01*
X1611200Y1418200D02*
Y1424800D01*
X1611600Y1418200D02*
Y1424800D01*
X1612000Y1418200D02*
Y1424800D01*
X1612400Y1418200D02*
Y1424800D01*
X1612800Y1418200D02*
Y1424800D01*
X1613200Y1418200D02*
Y1424800D01*
X1613600Y1418200D02*
Y1424800D01*
X1614000Y1418200D02*
Y1424800D01*
X1614400Y1418200D02*
Y1424800D01*
X1614800Y1418200D02*
Y1424800D01*
X1615200Y1418200D02*
Y1424800D01*
X1615600Y1418200D02*
Y1424800D01*
X1616000Y1418200D02*
Y1424800D01*
X1616400Y1418200D02*
Y1424800D01*
X1616800Y1418200D02*
Y1424800D01*
X1617200Y1418200D02*
Y1424800D01*
X1617600Y1418200D02*
Y1424800D01*
X1618000Y1418200D02*
Y1424800D01*
X1618400Y1418200D02*
Y1424800D01*
X1618800Y1418200D02*
Y1424800D01*
X1619200Y1418200D02*
Y1424800D01*
X1619600Y1418200D02*
Y1424800D01*
X1620000Y1418200D02*
Y1424800D01*
X1620400Y1418200D02*
Y1424800D01*
X1620800Y1418200D02*
Y1424800D01*
X1621200Y1418200D02*
Y1424800D01*
X1621600Y1418200D02*
Y1424800D01*
X1622000Y1418200D02*
Y1424800D01*
X1622400Y1418200D02*
Y1424800D01*
X1622800Y1418200D02*
Y1424800D01*
X1623200Y1418200D02*
Y1424800D01*
X1623600Y1418200D02*
Y1424800D01*
X1624000Y1418200D02*
Y1424800D01*
X1624400Y1418200D02*
Y1424800D01*
X1624800Y1418200D02*
Y1424800D01*
X1625200Y1418200D02*
Y1424800D01*
X1625600Y1418200D02*
Y1424800D01*
X1626000Y1418200D02*
Y1424800D01*
X1626400Y1418200D02*
Y1424800D01*
X1626800Y1418200D02*
Y1424800D01*
X1627200Y1418200D02*
Y1424800D01*
X1627600Y1418200D02*
Y1424800D01*
X1628000Y1418200D02*
Y1424800D01*
X1628400Y1418200D02*
Y1424800D01*
X1628800Y1418200D02*
Y1424800D01*
X1629200Y1418483D02*
Y1424517D01*
X1629600Y1418883D02*
Y1424117D01*
X1606800Y1402017D02*
X1628200D01*
X1606400Y1401617D02*
X1628600D01*
X1606000Y1401217D02*
X1629000D01*
X1605600Y1400817D02*
X1629400D01*
X1605200Y1400417D02*
X1629800D01*
X1605200Y1400017D02*
X1629800D01*
X1605200Y1399617D02*
X1629800D01*
X1605200Y1399217D02*
X1629800D01*
X1605200Y1398817D02*
X1629800D01*
X1605200Y1398417D02*
X1629800D01*
X1605200Y1398017D02*
X1629800D01*
X1605200Y1397617D02*
X1629800D01*
X1605200Y1397217D02*
X1629800D01*
X1605200Y1396817D02*
X1629800D01*
X1605200Y1396417D02*
X1629800D01*
X1605200Y1396017D02*
X1629800D01*
X1605200Y1395617D02*
X1629800D01*
X1605200Y1395217D02*
X1629800D01*
X1605200Y1394817D02*
X1629800D01*
X1605366Y1394417D02*
X1629635D01*
X1605766Y1394017D02*
X1629235D01*
X1606166Y1393617D02*
X1628835D01*
X1606566Y1393217D02*
X1628435D01*
X1606966Y1392817D02*
X1628035D01*
X1605200Y1394583D02*
Y1400417D01*
X1605600Y1394183D02*
Y1400817D01*
X1606000Y1393783D02*
Y1401217D01*
X1606400Y1393383D02*
Y1401617D01*
X1606800Y1392983D02*
Y1402017D01*
X1607200Y1392700D02*
Y1402300D01*
X1607600Y1392700D02*
Y1402300D01*
X1608000Y1392700D02*
Y1402300D01*
X1608400Y1392700D02*
Y1402300D01*
X1608800Y1392700D02*
Y1402300D01*
X1609200Y1392700D02*
Y1402300D01*
X1609600Y1392700D02*
Y1402300D01*
X1610000Y1392700D02*
Y1402300D01*
X1610400Y1392700D02*
Y1402300D01*
X1610800Y1392700D02*
Y1402300D01*
X1611200Y1392700D02*
Y1402300D01*
X1611600Y1392700D02*
Y1402300D01*
X1612000Y1392700D02*
Y1402300D01*
X1612400Y1392700D02*
Y1402300D01*
X1612800Y1392700D02*
Y1402300D01*
X1613200Y1392700D02*
Y1402300D01*
X1613600Y1392700D02*
Y1402300D01*
X1614000Y1392700D02*
Y1402300D01*
X1614400Y1392700D02*
Y1402300D01*
X1614800Y1392700D02*
Y1402300D01*
X1615200Y1392700D02*
Y1402300D01*
X1615600Y1392700D02*
Y1402300D01*
X1616000Y1392700D02*
Y1402300D01*
X1616400Y1392700D02*
Y1402300D01*
X1616800Y1392700D02*
Y1402300D01*
X1617200Y1392700D02*
Y1402300D01*
X1617600Y1392700D02*
Y1402300D01*
X1618000Y1392700D02*
Y1402300D01*
X1618400Y1392700D02*
Y1402300D01*
X1618800Y1392700D02*
Y1402300D01*
X1619200Y1392700D02*
Y1402300D01*
X1619600Y1392700D02*
Y1402300D01*
X1620000Y1392700D02*
Y1402300D01*
X1620400Y1392700D02*
Y1402300D01*
X1620800Y1392700D02*
Y1402300D01*
X1621200Y1392700D02*
Y1402300D01*
X1621600Y1392700D02*
Y1402300D01*
X1622000Y1392700D02*
Y1402300D01*
X1622400Y1392700D02*
Y1402300D01*
X1622800Y1392700D02*
Y1402300D01*
X1623200Y1392700D02*
Y1402300D01*
X1623600Y1392700D02*
Y1402300D01*
X1624000Y1392700D02*
Y1402300D01*
X1624400Y1392700D02*
Y1402300D01*
X1624800Y1392700D02*
Y1402300D01*
X1625200Y1392700D02*
Y1402300D01*
X1625600Y1392700D02*
Y1402300D01*
X1626000Y1392700D02*
Y1402300D01*
X1626400Y1392700D02*
Y1402300D01*
X1626800Y1392700D02*
Y1402300D01*
X1627200Y1392700D02*
Y1402300D01*
X1627600Y1392700D02*
Y1402300D01*
X1628000Y1392783D02*
Y1402217D01*
X1628400Y1393183D02*
Y1401817D01*
X1628800Y1393583D02*
Y1401417D01*
X1629200Y1393983D02*
Y1401017D01*
X1629600Y1394383D02*
Y1400617D01*
G54D449*
X1216500Y1021900D03*
G54D450*
Y1029874D03*
G54D454*
X1098425Y1023622D03*
X1511811D03*
Y1476378D03*
X1077953Y1275591D03*
G74*
X0Y0D02*
M02*
