*
*
G04 PADS 9.4.1 Build Number: 494907 generated Gerber (RS-274-X) file*
G04 PC Version=2.1*
*
%IN "IBS_REV_C_muthu.pcb"*%
*
%MOIN*%
*
%FSLAX35Y35*%
*
*
*
*
G04 PC Standard Apertures*
*
*
G04 Thermal Relief Aperture macro.*
%AMTER*
1,1,$1,0,0*
1,0,$1-$2,0,0*
21,0,$3,$4,0,0,45*
21,0,$3,$4,0,0,135*
%
*
*
G04 Annular Aperture macro.*
%AMANN*
1,1,$1,0,0*
1,0,$2,0,0*
%
*
*
G04 Odd Aperture macro.*
%AMODD*
1,1,$1,0,0*
1,0,$1-0.005,0,0*
%
*
*
G04 PC Custom Aperture Macros*
*
*
*
*
*
*
G04 PC Aperture Table*
*
%ADD010C,0.001*%
%ADD085C,0.01*%
%ADD086C,0.008*%
%ADD153C,0.06406*%
%ADD154C,0.08374*%
%ADD174R,0.065X0.065*%
%ADD175C,0.065*%
%ADD176C,0.20185*%
%ADD241C,0.125*%
%ADD302C,0.07*%
%ADD309R,0.055X0.065*%
%ADD312R,0.065X0.055*%
%ADD323C,0.06799*%
%ADD324R,0.06X0.27*%
%ADD332R,0.04437X0.0424*%
%ADD333R,0.0424X0.04437*%
%ADD334R,0.02941X0.02941*%
%ADD337R,0.02862X0.06602*%
%ADD339R,0.02744X0.02941*%
%ADD349R,0.02941X0.02744*%
%ADD357R,0.05224X0.06209*%
%ADD362R,0.09358X0.07587*%
%ADD363R,0.07587X0.09358*%
%ADD364R,0.02272X0.06209*%
%ADD367C,0.04437*%
%ADD368R,0.05421X0.07587*%
%ADD369R,0.07587X0.05421*%
%ADD370R,0.06209X0.05224*%
%ADD371R,0.04831X0.02665*%
%ADD383C,0.1428*%
%ADD384R,0.06799X0.06799*%
%ADD391R,0.06012X0.07587*%
%ADD401R,0.07X0.07*%
*
*
*
*
G04 PC Circuitry*
G04 Layer Name IBS_REV_C_muthu.pcb - circuitry*
%LPD*%
*
*
G04 PC Custom Flashes*
G04 Layer Name IBS_REV_C_muthu.pcb - flashes*
%LPD*%
*
*
G04 PC Circuitry*
G04 Layer Name IBS_REV_C_muthu.pcb - circuitry*
%LPD*%
*
G54D10*
G54D85*
G01X1267500Y1646563D02*
Y1640000D01*
Y1646563D02*
X1269545D01*
X1269545D02*
X1270227Y1646250D01*
X1270455Y1645938*
X1270455D02*
X1270682Y1645313D01*
X1270682D02*
Y1644688D01*
X1270682D02*
X1270455Y1644063D01*
X1270455D02*
X1270227Y1643750D01*
X1269545Y1643438*
X1267500D02*
X1269545D01*
X1269545D02*
X1270227Y1643125D01*
X1270455Y1642813*
X1270455D02*
X1270682Y1642188D01*
X1270682D02*
Y1641250D01*
X1270455Y1640625*
X1270227Y1640313*
X1270227D02*
X1269545Y1640000D01*
X1267500*
X1274091Y1646563D02*
X1273636Y1646250D01*
X1273182Y1645625*
X1272955Y1645000*
X1272727Y1644063*
X1272727D02*
Y1642500D01*
X1272955Y1641563*
X1272955D02*
X1273182Y1640938D01*
X1273182D02*
X1273636Y1640313D01*
X1273636D02*
X1274091Y1640000D01*
X1275000*
X1275455Y1640313*
X1275455D02*
X1275909Y1640938D01*
X1275909D02*
X1276136Y1641563D01*
X1276136D02*
X1276364Y1642500D01*
Y1644063*
X1276364D02*
X1276136Y1645000D01*
X1275909Y1645625*
X1275455Y1646250*
X1275000Y1646563*
X1275000D02*
X1274091D01*
X1280000D02*
Y1640000D01*
X1278409Y1646563D02*
X1281591D01*
X1285227D02*
Y1640000D01*
X1283636Y1646563D02*
X1286818D01*
X1290227D02*
X1289773Y1646250D01*
X1289318Y1645625*
X1289091Y1645000*
X1288864Y1644063*
X1288864D02*
Y1642500D01*
X1289091Y1641563*
X1289091D02*
X1289318Y1640938D01*
X1289318D02*
X1289773Y1640313D01*
X1289773D02*
X1290227Y1640000D01*
X1291136*
X1291591Y1640313*
X1291591D02*
X1292045Y1640938D01*
X1292045D02*
X1292273Y1641563D01*
X1292273D02*
X1292500Y1642500D01*
Y1644063*
X1292500D02*
X1292273Y1645000D01*
X1292045Y1645625*
X1291591Y1646250*
X1291136Y1646563*
X1291136D02*
X1290227D01*
X1294545D02*
Y1640000D01*
Y1646563D02*
X1296364Y1640000D01*
X1298182Y1646563D02*
X1296364Y1640000D01*
X1298182Y1646563D02*
Y1640000D01*
X1308636Y1645625D02*
X1308182Y1646250D01*
X1307500Y1646563*
X1307500D02*
X1306591D01*
X1306591D02*
X1305909Y1646250D01*
X1305455Y1645625*
Y1645000*
X1305682Y1644375*
X1305909Y1644063*
X1305909D02*
X1306364Y1643750D01*
X1307727Y1643125*
X1308182Y1642813*
X1308182D02*
X1308409Y1642500D01*
X1308636Y1641875*
Y1640938*
X1308636D02*
X1308182Y1640313D01*
X1308182D02*
X1307500Y1640000D01*
X1306591*
X1305909Y1640313*
X1305909D02*
X1305455Y1640938D01*
X1312045Y1646563D02*
X1311591Y1646250D01*
X1311136Y1645625*
X1310909Y1645000*
X1310682Y1644063*
X1310682D02*
Y1642500D01*
X1310909Y1641563*
X1310909D02*
X1311136Y1640938D01*
X1311136D02*
X1311591Y1640313D01*
X1311591D02*
X1312045Y1640000D01*
X1312955*
X1313409Y1640313*
X1313409D02*
X1313864Y1640938D01*
X1313864D02*
X1314091Y1641563D01*
X1314091D02*
X1314318Y1642500D01*
Y1644063*
X1314318D02*
X1314091Y1645000D01*
X1313864Y1645625*
X1313409Y1646250*
X1312955Y1646563*
X1312955D02*
X1312045D01*
X1316364D02*
Y1640000D01*
X1319091*
X1321136Y1646563D02*
Y1640000D01*
Y1646563D02*
X1322727D01*
X1322727D02*
X1323409Y1646250D01*
X1323864Y1645625*
X1324091Y1645000*
X1324318Y1644063*
X1324318D02*
Y1642500D01*
X1324091Y1641563*
X1324091D02*
X1323864Y1640938D01*
X1323864D02*
X1323409Y1640313D01*
X1323409D02*
X1322727Y1640000D01*
X1321136*
X1326364Y1646563D02*
Y1640000D01*
Y1646563D02*
X1329318D01*
X1326364Y1643438D02*
X1328182D01*
X1326364Y1640000D02*
X1329318D01*
X1331364Y1646563D02*
Y1640000D01*
Y1646563D02*
X1333409D01*
X1333409D02*
X1334091Y1646250D01*
X1334318Y1645938*
X1334318D02*
X1334545Y1645313D01*
X1334545D02*
Y1644688D01*
X1334545D02*
X1334318Y1644063D01*
X1334318D02*
X1334091Y1643750D01*
X1333409Y1643438*
X1333409D02*
X1331364D01*
X1332955D02*
X1334545Y1640000D01*
X1341818Y1646563D02*
Y1640000D01*
Y1646563D02*
X1343636Y1640000D01*
X1345455Y1646563D02*
X1343636Y1640000D01*
X1345455Y1646563D02*
Y1640000D01*
X1349318Y1646563D02*
X1347500Y1640000D01*
X1349318Y1646563D02*
X1351136Y1640000D01*
X1348182Y1642188D02*
X1350455D01*
X1356364Y1645625D02*
X1355909Y1646250D01*
X1355227Y1646563*
X1355227D02*
X1354318D01*
X1354318D02*
X1353636Y1646250D01*
X1353182Y1645625*
Y1645000*
X1353409Y1644375*
X1353636Y1644063*
X1353636D02*
X1354091Y1643750D01*
X1355455Y1643125*
X1355909Y1642813*
X1355909D02*
X1356136Y1642500D01*
X1356364Y1641875*
Y1640938*
X1356364D02*
X1355909Y1640313D01*
X1355909D02*
X1355227Y1640000D01*
X1354318*
X1353636Y1640313*
X1353636D02*
X1353182Y1640938D01*
X1358409Y1646563D02*
Y1640000D01*
X1361591Y1646563D02*
X1358409Y1642188D01*
X1359545Y1643750D02*
X1361591Y1640000D01*
X1186600Y1674563D02*
Y1668000D01*
Y1674563D02*
X1188645D01*
X1189327Y1674250*
X1189555Y1673938*
X1189782Y1673313*
Y1672688*
X1189555Y1672063*
X1189327Y1671750*
X1188645Y1671438*
X1186600D02*
X1188645D01*
X1189327Y1671125*
X1189555Y1670813*
X1189782Y1670188*
Y1669250*
X1189555Y1668625*
X1189327Y1668313*
X1188645Y1668000*
X1186600*
X1193191Y1674563D02*
X1192736Y1674250D01*
X1192282Y1673625*
X1192055Y1673000*
X1191827Y1672063*
Y1670500*
X1192055Y1669563*
X1192282Y1668938*
X1192736Y1668313*
X1193191Y1668000*
X1194100*
X1194555Y1668313*
X1195009Y1668938*
X1195236Y1669563*
X1195464Y1670500*
Y1672063*
X1195236Y1673000*
X1195009Y1673625*
X1194555Y1674250*
X1194100Y1674563*
X1193191*
X1199327D02*
X1197509Y1668000D01*
X1199327Y1674563D02*
X1201145Y1668000D01*
X1198191Y1670188D02*
X1200464D01*
X1203191Y1674563D02*
Y1668000D01*
Y1674563D02*
X1205236D01*
X1205918Y1674250*
X1206145Y1673938*
X1206373Y1673313*
Y1672688*
X1206145Y1672063*
X1205918Y1671750*
X1205236Y1671438*
X1203191*
X1204782D02*
X1206373Y1668000D01*
X1208418Y1674563D02*
Y1668000D01*
Y1674563D02*
X1210009D01*
X1210691Y1674250*
X1211145Y1673625*
X1211373Y1673000*
X1211600Y1672063*
Y1670500*
X1211373Y1669563*
X1211145Y1668938*
X1210691Y1668313*
X1210009Y1668000*
X1208418*
X1224100Y1674563D02*
Y1668000D01*
Y1674563D02*
X1227282Y1668000D01*
Y1674563D02*
Y1668000D01*
X1231145Y1674563D02*
X1229327Y1668000D01*
X1231145Y1674563D02*
X1232964Y1668000D01*
X1230009Y1670188D02*
X1232282D01*
X1235009Y1674563D02*
Y1668000D01*
Y1674563D02*
X1236827Y1668000D01*
X1238645Y1674563D02*
X1236827Y1668000D01*
X1238645Y1674563D02*
Y1668000D01*
X1240691Y1674563D02*
Y1668000D01*
Y1674563D02*
X1243645D01*
X1240691Y1671438D02*
X1242509D01*
X1240691Y1668000D02*
X1243645D01*
X1250918Y1670813D02*
X1255009D01*
X1186600Y1647063D02*
Y1640500D01*
Y1647063D02*
X1188191D01*
X1188873Y1646750*
X1189327Y1646125*
X1189555Y1645500*
X1189782Y1644563*
Y1643000*
X1189555Y1642063*
X1189327Y1641438*
X1188873Y1640813*
X1188191Y1640500*
X1186600*
X1193191Y1647063D02*
X1192736Y1646750D01*
X1192282Y1646125*
X1192055Y1645500*
X1191827Y1644563*
Y1643000*
X1192055Y1642063*
X1192282Y1641438*
X1192736Y1640813*
X1193191Y1640500*
X1194100*
X1194555Y1640813*
X1195009Y1641438*
X1195236Y1642063*
X1195464Y1643000*
Y1644563*
X1195236Y1645500*
X1195009Y1646125*
X1194555Y1646750*
X1194100Y1647063*
X1193191*
X1200918Y1645500D02*
X1200691Y1646125D01*
X1200236Y1646750*
X1199782Y1647063*
X1198873*
X1198418Y1646750*
X1197964Y1646125*
X1197736Y1645500*
X1197509Y1644563*
Y1643000*
X1197736Y1642063*
X1197964Y1641438*
X1198418Y1640813*
X1198873Y1640500*
X1199782*
X1200236Y1640813*
X1200691Y1641438*
X1200918Y1642063*
X1202964Y1647063D02*
Y1642375D01*
X1203191Y1641438*
X1203645Y1640813*
X1204327Y1640500*
X1204782*
X1205464Y1640813*
X1205918Y1641438*
X1206145Y1642375*
Y1647063*
X1208191D02*
Y1640500D01*
Y1647063D02*
X1210009Y1640500D01*
X1211827Y1647063D02*
X1210009Y1640500D01*
X1211827Y1647063D02*
Y1640500D01*
X1213873Y1647063D02*
Y1640500D01*
Y1647063D02*
X1216827D01*
X1213873Y1643938D02*
X1215691D01*
X1213873Y1640500D02*
X1216827D01*
X1218873Y1647063D02*
Y1640500D01*
Y1647063D02*
X1222055Y1640500D01*
Y1647063D02*
Y1640500D01*
X1225691Y1647063D02*
Y1640500D01*
X1224100Y1647063D02*
X1227282D01*
X1234555D02*
Y1640500D01*
Y1647063D02*
X1237736Y1640500D01*
Y1647063D02*
Y1640500D01*
X1241600Y1647063D02*
X1239782Y1640500D01*
X1241600Y1647063D02*
X1243418Y1640500D01*
X1240464Y1642688D02*
X1242736D01*
X1245464Y1647063D02*
Y1640500D01*
Y1647063D02*
X1247282Y1640500D01*
X1249100Y1647063D02*
X1247282Y1640500D01*
X1249100Y1647063D02*
Y1640500D01*
X1251145Y1647063D02*
Y1640500D01*
Y1647063D02*
X1254100D01*
X1251145Y1643938D02*
X1252964D01*
X1251145Y1640500D02*
X1254100D01*
X1256145Y1643313D02*
X1260236D01*
X1376600Y1647063D02*
Y1640500D01*
Y1647063D02*
X1378645D01*
X1379327Y1646750*
X1379555Y1646438*
X1379782Y1645813*
Y1645188*
X1379555Y1644563*
X1379327Y1644250*
X1378645Y1643938*
X1376600*
X1378191D02*
X1379782Y1640500D01*
X1381827Y1647063D02*
Y1640500D01*
Y1647063D02*
X1384782D01*
X1381827Y1643938D02*
X1383645D01*
X1381827Y1640500D02*
X1384782D01*
X1386827Y1647063D02*
X1388645Y1640500D01*
X1390464Y1647063D02*
X1388645Y1640500D01*
X1397736Y1643313D02*
X1401827D01*
X1412509Y1645500D02*
X1412282Y1646125D01*
X1411827Y1646750*
X1411373Y1647063*
X1410464*
X1410009Y1646750*
X1409555Y1646125*
X1409327Y1645500*
X1409100Y1644563*
Y1643000*
X1409327Y1642063*
X1409555Y1641438*
X1410009Y1640813*
X1410464Y1640500*
X1411373*
X1411827Y1640813*
X1412282Y1641438*
X1412509Y1642063*
X1266600Y1674563D02*
Y1668000D01*
X1268645Y1674563D02*
Y1668000D01*
Y1674563D02*
X1270691D01*
X1271373Y1674250*
X1271600Y1673938*
X1271827Y1673313*
Y1672688*
X1271600Y1672063*
X1271373Y1671750*
X1270691Y1671438*
X1268645D02*
X1270691D01*
X1271373Y1671125*
X1271600Y1670813*
X1271827Y1670188*
Y1669250*
X1271600Y1668625*
X1271373Y1668313*
X1270691Y1668000*
X1268645*
X1277055Y1673625D02*
X1276600Y1674250D01*
X1275918Y1674563*
X1275009*
X1274327Y1674250*
X1273873Y1673625*
Y1673000*
X1274100Y1672375*
X1274327Y1672063*
X1274782Y1671750*
X1276145Y1671125*
X1276600Y1670813*
X1276827Y1670500*
X1277055Y1669875*
Y1668938*
X1276600Y1668313*
X1275918Y1668000*
X1275009*
X1274327Y1668313*
X1273873Y1668938*
X1287736Y1673000D02*
X1287509Y1673625D01*
X1287055Y1674250*
X1286600Y1674563*
X1285691*
X1285236Y1674250*
X1284782Y1673625*
X1284555Y1673000*
X1284327Y1672063*
Y1670500*
X1284555Y1669563*
X1284782Y1668938*
X1285236Y1668313*
X1285691Y1668000*
X1286600*
X1287055Y1668313*
X1287509Y1668938*
X1287736Y1669563*
X1291600Y1674563D02*
X1289782Y1668000D01*
X1291600Y1674563D02*
X1293418Y1668000D01*
X1290464Y1670188D02*
X1292736D01*
X1295464Y1674563D02*
Y1668000D01*
Y1674563D02*
X1297509D01*
X1298191Y1674250*
X1298418Y1673938*
X1298645Y1673313*
Y1672688*
X1298418Y1672063*
X1298191Y1671750*
X1297509Y1671438*
X1295464*
X1297055D02*
X1298645Y1668000D01*
X1300691Y1674563D02*
Y1668000D01*
Y1674563D02*
X1302282D01*
X1302964Y1674250*
X1303418Y1673625*
X1303645Y1673000*
X1303873Y1672063*
Y1670500*
X1303645Y1669563*
X1303418Y1668938*
X1302964Y1668313*
X1302282Y1668000*
X1300691*
X1235009Y1690500D02*
X1234782Y1691125D01*
X1234327Y1691750*
X1233873Y1692063*
X1232964*
X1232509Y1691750*
X1232055Y1691125*
X1231827Y1690500*
X1231600Y1689563*
Y1688000*
X1231827Y1687063*
X1232055Y1686438*
X1232509Y1685813*
X1232964Y1685500*
X1233873*
X1234327Y1685813*
X1234782Y1686438*
X1235009Y1687063*
X1238418Y1692063D02*
X1237964Y1691750D01*
X1237509Y1691125*
X1237282Y1690500*
X1237055Y1689563*
Y1688000*
X1237282Y1687063*
X1237509Y1686438*
X1237964Y1685813*
X1238418Y1685500*
X1239327*
X1239782Y1685813*
X1240236Y1686438*
X1240464Y1687063*
X1240691Y1688000*
Y1689563*
X1240464Y1690500*
X1240236Y1691125*
X1239782Y1691750*
X1239327Y1692063*
X1238418*
X1242736D02*
Y1685500D01*
Y1692063D02*
X1244555Y1685500D01*
X1246373Y1692063D02*
X1244555Y1685500D01*
X1246373Y1692063D02*
Y1685500D01*
X1248418Y1692063D02*
Y1685500D01*
Y1692063D02*
X1250464D01*
X1251145Y1691750*
X1251373Y1691438*
X1251600Y1690813*
Y1689875*
X1251373Y1689250*
X1251145Y1688938*
X1250464Y1688625*
X1248418*
X1253645Y1692063D02*
Y1685500D01*
Y1692063D02*
X1255691D01*
X1256373Y1691750*
X1256600Y1691438*
X1256827Y1690813*
Y1690188*
X1256600Y1689563*
X1256373Y1689250*
X1255691Y1688938*
X1253645*
X1255236D02*
X1256827Y1685500D01*
X1258873Y1692063D02*
Y1685500D01*
Y1692063D02*
X1261827D01*
X1258873Y1688938D02*
X1260691D01*
X1258873Y1685500D02*
X1261827D01*
X1267055Y1691125D02*
X1266600Y1691750D01*
X1265918Y1692063*
X1265009*
X1264327Y1691750*
X1263873Y1691125*
Y1690500*
X1264100Y1689875*
X1264327Y1689563*
X1264782Y1689250*
X1266145Y1688625*
X1266600Y1688313*
X1266827Y1688000*
X1267055Y1687375*
Y1686438*
X1266600Y1685813*
X1265918Y1685500*
X1265009*
X1264327Y1685813*
X1263873Y1686438*
X1272282Y1691125D02*
X1271827Y1691750D01*
X1271145Y1692063*
X1270236*
X1269555Y1691750*
X1269100Y1691125*
Y1690500*
X1269327Y1689875*
X1269555Y1689563*
X1270009Y1689250*
X1271373Y1688625*
X1271827Y1688313*
X1272055Y1688000*
X1272282Y1687375*
Y1686438*
X1271827Y1685813*
X1271145Y1685500*
X1270236*
X1269555Y1685813*
X1269100Y1686438*
X1275691Y1692063D02*
X1275236Y1691750D01*
X1274782Y1691125*
X1274555Y1690500*
X1274327Y1689563*
Y1688000*
X1274555Y1687063*
X1274782Y1686438*
X1275236Y1685813*
X1275691Y1685500*
X1276600*
X1277055Y1685813*
X1277509Y1686438*
X1277736Y1687063*
X1277964Y1688000*
Y1689563*
X1277736Y1690500*
X1277509Y1691125*
X1277055Y1691750*
X1276600Y1692063*
X1275691*
X1280009D02*
Y1685500D01*
Y1692063D02*
X1282055D01*
X1282736Y1691750*
X1282964Y1691438*
X1283191Y1690813*
Y1690188*
X1282964Y1689563*
X1282736Y1689250*
X1282055Y1688938*
X1280009*
X1281600D02*
X1283191Y1685500D01*
X1293873Y1690500D02*
X1293645Y1691125D01*
X1293191Y1691750*
X1292736Y1692063*
X1291827*
X1291373Y1691750*
X1290918Y1691125*
X1290691Y1690500*
X1290464Y1689563*
Y1688000*
X1290691Y1687063*
X1290918Y1686438*
X1291373Y1685813*
X1291827Y1685500*
X1292736*
X1293191Y1685813*
X1293645Y1686438*
X1293873Y1687063*
X1297282Y1692063D02*
X1296827Y1691750D01*
X1296373Y1691125*
X1296145Y1690500*
X1295918Y1689563*
Y1688000*
X1296145Y1687063*
X1296373Y1686438*
X1296827Y1685813*
X1297282Y1685500*
X1298191*
X1298645Y1685813*
X1299100Y1686438*
X1299327Y1687063*
X1299555Y1688000*
Y1689563*
X1299327Y1690500*
X1299100Y1691125*
X1298645Y1691750*
X1298191Y1692063*
X1297282*
X1301600D02*
Y1685500D01*
Y1692063D02*
X1304782Y1685500D01*
Y1692063D02*
Y1685500D01*
X1308418Y1692063D02*
Y1685500D01*
X1306827Y1692063D02*
X1310009D01*
X1312055D02*
Y1685500D01*
Y1692063D02*
X1314100D01*
X1314782Y1691750*
X1315009Y1691438*
X1315236Y1690813*
Y1690188*
X1315009Y1689563*
X1314782Y1689250*
X1314100Y1688938*
X1312055*
X1313645D02*
X1315236Y1685500D01*
X1318645Y1692063D02*
X1318191Y1691750D01*
X1317736Y1691125*
X1317509Y1690500*
X1317282Y1689563*
Y1688000*
X1317509Y1687063*
X1317736Y1686438*
X1318191Y1685813*
X1318645Y1685500*
X1319555*
X1320009Y1685813*
X1320464Y1686438*
X1320691Y1687063*
X1320918Y1688000*
Y1689563*
X1320691Y1690500*
X1320464Y1691125*
X1320009Y1691750*
X1319555Y1692063*
X1318645*
X1322964D02*
Y1685500D01*
X1325691*
X1330918Y1691125D02*
X1330464Y1691750D01*
X1329782Y1692063*
X1328873*
X1328191Y1691750*
X1327736Y1691125*
Y1690500*
X1327964Y1689875*
X1328191Y1689563*
X1328645Y1689250*
X1330009Y1688625*
X1330464Y1688313*
X1330691Y1688000*
X1330918Y1687375*
Y1686438*
X1330464Y1685813*
X1329782Y1685500*
X1328873*
X1328191Y1685813*
X1327736Y1686438*
X1341600Y1690500D02*
X1341373Y1691125D01*
X1340918Y1691750*
X1340464Y1692063*
X1339555*
X1339100Y1691750*
X1338645Y1691125*
X1338418Y1690500*
X1338191Y1689563*
Y1688000*
X1338418Y1687063*
X1338645Y1686438*
X1339100Y1685813*
X1339555Y1685500*
X1340464*
X1340918Y1685813*
X1341373Y1686438*
X1341600Y1687063*
X1345009Y1692063D02*
X1344555Y1691750D01*
X1344100Y1691125*
X1343873Y1690500*
X1343645Y1689563*
Y1688000*
X1343873Y1687063*
X1344100Y1686438*
X1344555Y1685813*
X1345009Y1685500*
X1345918*
X1346373Y1685813*
X1346827Y1686438*
X1347055Y1687063*
X1347282Y1688000*
Y1689563*
X1347055Y1690500*
X1346827Y1691125*
X1346373Y1691750*
X1345918Y1692063*
X1345009*
X1349327D02*
Y1685500D01*
Y1692063D02*
X1351373D01*
X1352055Y1691750*
X1352282Y1691438*
X1352509Y1690813*
Y1690188*
X1352282Y1689563*
X1352055Y1689250*
X1351373Y1688938*
X1349327*
X1350918D02*
X1352509Y1685500D01*
X1354555Y1692063D02*
Y1685500D01*
Y1692063D02*
X1356600D01*
X1357282Y1691750*
X1357509Y1691438*
X1357736Y1690813*
Y1689875*
X1357509Y1689250*
X1357282Y1688938*
X1356600Y1688625*
X1354555*
X1361145Y1692063D02*
X1360691Y1691750D01*
X1360236Y1691125*
X1360009Y1690500*
X1359782Y1689563*
Y1688000*
X1360009Y1687063*
X1360236Y1686438*
X1360691Y1685813*
X1361145Y1685500*
X1362055*
X1362509Y1685813*
X1362964Y1686438*
X1363191Y1687063*
X1363418Y1688000*
Y1689563*
X1363191Y1690500*
X1362964Y1691125*
X1362509Y1691750*
X1362055Y1692063*
X1361145*
X1365464D02*
Y1685500D01*
Y1692063D02*
X1367509D01*
X1368191Y1691750*
X1368418Y1691438*
X1368645Y1690813*
Y1690188*
X1368418Y1689563*
X1368191Y1689250*
X1367509Y1688938*
X1365464*
X1367055D02*
X1368645Y1685500D01*
X1372509Y1692063D02*
X1370691Y1685500D01*
X1372509Y1692063D02*
X1374327Y1685500D01*
X1371373Y1687688D02*
X1373645D01*
X1377964Y1692063D02*
Y1685500D01*
X1376373Y1692063D02*
X1379555D01*
X1381600D02*
Y1685500D01*
X1385009Y1692063D02*
X1384555Y1691750D01*
X1384100Y1691125*
X1383873Y1690500*
X1383645Y1689563*
Y1688000*
X1383873Y1687063*
X1384100Y1686438*
X1384555Y1685813*
X1385009Y1685500*
X1385918*
X1386373Y1685813*
X1386827Y1686438*
X1387055Y1687063*
X1387282Y1688000*
Y1689563*
X1387055Y1690500*
X1386827Y1691125*
X1386373Y1691750*
X1385918Y1692063*
X1385009*
X1389327D02*
Y1685500D01*
Y1692063D02*
X1392509Y1685500D01*
Y1692063D02*
Y1685500D01*
X1226600Y1660813D02*
X1227055Y1661125D01*
X1227736Y1662063*
Y1655500*
X1232964Y1662063D02*
X1230691Y1655500D01*
X1229782Y1662063D02*
X1232964D01*
X1235009Y1658313D02*
X1239100D01*
X1243873Y1661125D02*
X1243645Y1661750D01*
X1242964Y1662063*
X1242509*
X1241827Y1661750*
X1241373Y1660813*
X1241145Y1659250*
Y1657688*
X1241373Y1656438*
X1241827Y1655813*
X1242509Y1655500*
X1242736*
X1243418Y1655813*
X1243873Y1656438*
X1244100Y1657375*
Y1657688*
X1243873Y1658625*
X1243418Y1659250*
X1242736Y1659563*
X1242509*
X1241827Y1659250*
X1241373Y1658625*
X1241145Y1657688*
X1247509Y1662063D02*
X1246827Y1661750D01*
X1246373Y1660813*
X1246145Y1659250*
Y1658313*
X1246373Y1656750*
X1246827Y1655813*
X1247509Y1655500*
X1247964*
X1248645Y1655813*
X1249100Y1656750*
X1249327Y1658313*
Y1659250*
X1249100Y1660813*
X1248645Y1661750*
X1247964Y1662063*
X1247509*
X1252736D02*
X1252055Y1661750D01*
X1251600Y1660813*
X1251373Y1659250*
Y1658313*
X1251600Y1656750*
X1252055Y1655813*
X1252736Y1655500*
X1253191*
X1253873Y1655813*
X1254327Y1656750*
X1254555Y1658313*
Y1659250*
X1254327Y1660813*
X1253873Y1661750*
X1253191Y1662063*
X1252736*
X1257055D02*
X1259555D01*
X1258191Y1659563*
X1258873*
X1259327Y1659250*
X1259555Y1658938*
X1259782Y1658000*
Y1657375*
X1259555Y1656438*
X1259100Y1655813*
X1258418Y1655500*
X1257736*
X1257055Y1655813*
X1256827Y1656125*
X1256600Y1656750*
X1263191Y1662063D02*
X1262509Y1661750D01*
X1262055Y1660813*
X1261827Y1659250*
Y1658313*
X1262055Y1656750*
X1262509Y1655813*
X1263191Y1655500*
X1263645*
X1264327Y1655813*
X1264782Y1656750*
X1265009Y1658313*
Y1659250*
X1264782Y1660813*
X1264327Y1661750*
X1263645Y1662063*
X1263191*
X1268418D02*
X1267736Y1661750D01*
X1267282Y1660813*
X1267055Y1659250*
Y1658313*
X1267282Y1656750*
X1267736Y1655813*
X1268418Y1655500*
X1268873*
X1269555Y1655813*
X1270009Y1656750*
X1270236Y1658313*
Y1659250*
X1270009Y1660813*
X1269555Y1661750*
X1268873Y1662063*
X1268418*
X1272282Y1658313D02*
X1276373D01*
X1279782Y1662063D02*
X1279100Y1661750D01*
X1278645Y1660813*
X1278418Y1659250*
Y1658313*
X1278645Y1656750*
X1279100Y1655813*
X1279782Y1655500*
X1280236*
X1280918Y1655813*
X1281373Y1656750*
X1281600Y1658313*
Y1659250*
X1281373Y1660813*
X1280918Y1661750*
X1280236Y1662063*
X1279782*
X1285009D02*
X1284327Y1661750D01*
X1283873Y1660813*
X1283645Y1659250*
Y1658313*
X1283873Y1656750*
X1284327Y1655813*
X1285009Y1655500*
X1285464*
X1286145Y1655813*
X1286600Y1656750*
X1286827Y1658313*
Y1659250*
X1286600Y1660813*
X1286145Y1661750*
X1285464Y1662063*
X1285009*
X1288873Y1660813D02*
X1289327Y1661125D01*
X1290009Y1662063*
Y1655500*
X1186600Y1662063D02*
Y1655500D01*
Y1662063D02*
X1188645D01*
X1189327Y1661750*
X1189555Y1661438*
X1189782Y1660813*
Y1659875*
X1189555Y1659250*
X1189327Y1658938*
X1188645Y1658625*
X1186600*
X1195918Y1663313D02*
X1191827Y1653313D01*
X1197964Y1662063D02*
Y1655500D01*
Y1662063D02*
X1201145Y1655500D01*
Y1662063D02*
Y1655500D01*
X1208418Y1658313D02*
X1212509D01*
X1320000Y1664063D02*
Y1657500D01*
Y1664063D02*
X1321591D01*
X1321591D02*
X1322273Y1663750D01*
X1322727Y1663125*
X1322955Y1662500*
X1323182Y1661563*
X1323182D02*
Y1660000D01*
X1322955Y1659063*
X1322955D02*
X1322727Y1658438D01*
X1322727D02*
X1322273Y1657813D01*
X1322273D02*
X1321591Y1657500D01*
X1320000*
X1325227Y1660000D02*
X1327955D01*
Y1660625*
X1327727Y1661250*
X1327500Y1661563*
X1327500D02*
X1327045Y1661875D01*
X1326364*
X1325909Y1661563*
X1325909D02*
X1325455Y1660938D01*
X1325455D02*
X1325227Y1660000D01*
Y1659375*
X1325455Y1658438*
X1325455D02*
X1325909Y1657813D01*
X1325909D02*
X1326364Y1657500D01*
X1327045*
X1327500Y1657813*
X1327500D02*
X1327955Y1658438D01*
X1332727Y1660938D02*
X1332273Y1661563D01*
X1332273D02*
X1331818Y1661875D01*
X1331136*
X1330682Y1661563*
X1330682D02*
X1330227Y1660938D01*
X1330227D02*
X1330000Y1660000D01*
Y1659375*
X1330227Y1658438*
X1330227D02*
X1330682Y1657813D01*
X1330682D02*
X1331136Y1657500D01*
X1331818*
X1332273Y1657813*
X1332273D02*
X1332727Y1658438D01*
X1334773Y1660000D02*
X1337500D01*
Y1660625*
X1337273Y1661250*
X1337045Y1661563*
X1337045D02*
X1336591Y1661875D01*
X1335909*
X1335455Y1661563*
X1335455D02*
X1335000Y1660938D01*
X1335000D02*
X1334773Y1660000D01*
Y1659375*
X1335000Y1658438*
X1335000D02*
X1335455Y1657813D01*
X1335455D02*
X1335909Y1657500D01*
X1336591*
X1337045Y1657813*
X1337045D02*
X1337500Y1658438D01*
X1339545Y1661875D02*
Y1657500D01*
Y1660625D02*
X1340227Y1661563D01*
X1340227D02*
X1340682Y1661875D01*
X1341364*
X1341818Y1661563*
X1341818D02*
X1342045Y1660625D01*
Y1657500*
Y1660625D02*
X1342727Y1661563D01*
X1342727D02*
X1343182Y1661875D01*
X1343864*
X1344318Y1661563*
X1344318D02*
X1344545Y1660625D01*
Y1657500*
X1346591Y1664063D02*
Y1657500D01*
Y1660938D02*
X1347045Y1661563D01*
X1347045D02*
X1347500Y1661875D01*
X1348182*
X1348636Y1661563*
X1348636D02*
X1349091Y1660938D01*
X1349091D02*
X1349318Y1660000D01*
Y1659375*
X1349091Y1658438*
X1349091D02*
X1348636Y1657813D01*
X1348636D02*
X1348182Y1657500D01*
X1347500*
X1347045Y1657813*
X1347045D02*
X1346591Y1658438D01*
X1351364Y1660000D02*
X1354091D01*
Y1660625*
X1353864Y1661250*
X1353636Y1661563*
X1353636D02*
X1353182Y1661875D01*
X1352500*
X1352045Y1661563*
X1352045D02*
X1351591Y1660938D01*
X1351591D02*
X1351364Y1660000D01*
Y1659375*
X1351591Y1658438*
X1351591D02*
X1352045Y1657813D01*
X1352045D02*
X1352500Y1657500D01*
X1353182*
X1353636Y1657813*
X1353636D02*
X1354091Y1658438D01*
X1356136Y1661875D02*
Y1657500D01*
Y1660000D02*
X1356364Y1660938D01*
X1356364D02*
X1356818Y1661563D01*
X1356818D02*
X1357273Y1661875D01*
X1357955*
X1365455Y1662500D02*
Y1662813D01*
X1365455D02*
X1365682Y1663438D01*
X1365682D02*
X1365909Y1663750D01*
X1366364Y1664063*
X1366364D02*
X1367273D01*
X1367273D02*
X1367727Y1663750D01*
X1367955Y1663438*
X1367955D02*
X1368182Y1662813D01*
X1368182D02*
Y1662188D01*
X1368182D02*
X1367955Y1661563D01*
X1367955D02*
X1367500Y1660625D01*
X1365227Y1657500*
X1368409*
X1371818Y1664063D02*
X1371136Y1663750D01*
X1370682Y1662813*
X1370682D02*
X1370455Y1661250D01*
Y1660313*
X1370455D02*
X1370682Y1658750D01*
X1371136Y1657813*
X1371136D02*
X1371818Y1657500D01*
X1372273*
X1372955Y1657813*
X1372955D02*
X1373409Y1658750D01*
X1373636Y1660313*
X1373636D02*
Y1661250D01*
X1373409Y1662813*
X1373409D02*
X1372955Y1663750D01*
X1372273Y1664063*
X1372273D02*
X1371818D01*
X1376136Y1657813D02*
X1375909Y1657500D01*
X1375682Y1657813*
X1375682D02*
X1375909Y1658125D01*
X1376136Y1657813*
X1376136D02*
Y1657187D01*
X1376136D02*
X1375909Y1656562D01*
X1375909D02*
X1375682Y1656250D01*
X1383636Y1662500D02*
Y1662813D01*
X1383636D02*
X1383864Y1663438D01*
X1383864D02*
X1384091Y1663750D01*
X1384545Y1664063*
X1384545D02*
X1385455D01*
X1385455D02*
X1385909Y1663750D01*
X1386136Y1663438*
X1386136D02*
X1386364Y1662813D01*
X1386364D02*
Y1662188D01*
X1386364D02*
X1386136Y1661563D01*
X1386136D02*
X1385682Y1660625D01*
X1383409Y1657500*
X1386591*
X1390000Y1664063D02*
X1389318Y1663750D01*
X1388864Y1662813*
X1388864D02*
X1388636Y1661250D01*
Y1660313*
X1388636D02*
X1388864Y1658750D01*
X1389318Y1657813*
X1389318D02*
X1390000Y1657500D01*
X1390455*
X1391136Y1657813*
X1391136D02*
X1391591Y1658750D01*
X1391818Y1660313*
X1391818D02*
Y1661250D01*
X1391591Y1662813*
X1391591D02*
X1391136Y1663750D01*
X1390455Y1664063*
X1390455D02*
X1390000D01*
X1393864Y1662813D02*
X1394318Y1663125D01*
X1395000Y1664063*
X1395000D02*
Y1657500D01*
X1397500Y1664063D02*
X1400000D01*
X1400000D02*
X1398636Y1661563D01*
X1398636D02*
X1399318D01*
X1399318D02*
X1399773Y1661250D01*
X1400000Y1660938*
X1400000D02*
X1400227Y1660000D01*
Y1659375*
X1400000Y1658438*
X1400000D02*
X1399545Y1657813D01*
X1399545D02*
X1398864Y1657500D01*
X1398182*
X1397500Y1657813*
X1397500D02*
X1397273Y1658125D01*
X1397045Y1658750*
X1632087Y1000000D02*
X1637087Y1005000D01*
Y1495000*
X1632087Y1500000*
X1019685*
X1000000Y1480315*
Y1462288*
X1000000*
Y1310659*
X1000252Y1300215*
X1000452Y1291902*
X1000698Y1281714*
X1000898Y1273395*
X1001318Y1256004*
X1001397Y1255492*
X1003077Y1244686*
X1004285Y1236911*
X1005919Y1226402*
X1007127Y1218626*
X1008761Y1208117*
X1009969Y1200342*
X1011603Y1189833*
X1012811Y1182058*
X1013278Y1179055*
X1014415Y1171795*
X1015712Y1163524*
X1020208Y1134831*
X1021512Y1126516*
X1021512D02*
X1023106Y1116339D01*
X1024412Y1108011*
X1026555Y1094331*
X1028911Y1079301*
X1030211Y1071004*
X1031840Y1060610*
X1031863Y1060462*
X1033509Y1052483*
X1041533Y1013583*
X1041905Y1011778*
X1055711Y1000000*
X1122000*
Y1028015*
X1134500D02*
G75*
G03X1122000I-6250J-0D01*
G01X1134500D02*
Y1000000D01*
X1210000*
Y1028214*
X1222000D02*
G03X1210000I-6000J-126D01*
G01X1222000D02*
Y1000000D01*
X1632087*
G54D86*
X1181600Y1698000D02*
X1419100D01*
Y1633672*
X1181600*
Y1698000*
G54D153*
X1578032Y1421535D03*
X1585906D03*
X1593780D03*
X1578032Y1397913D03*
X1585906D03*
X1593780D03*
X1609528Y1421535D03*
Y1397913D03*
X1617402Y1421535D03*
X1625276D03*
X1617402Y1397913D03*
X1625276D03*
G54D154*
X1621339Y1409724D03*
G54D174*
X1559250Y1150500D03*
X1545750D03*
G54D175*
X1015984Y1402795D03*
Y1455945D03*
Y1420512D03*
Y1438228D03*
Y1385079D03*
Y1367362D03*
G54D176*
X1617402Y1040906D03*
X1595237D03*
X1569174D03*
X1617402Y1459055D03*
X1595237D03*
X1569174D03*
G54D241*
X1072900Y1478500D03*
X1527500Y1482000D03*
X1526500Y1015500D03*
G54D302*
X1026929Y1479016D03*
X1036929Y1469016D03*
Y1479016D03*
X1046929Y1469016D03*
Y1479016D03*
G54D309*
X1504500Y1292900D03*
Y1283900D03*
X1512000Y1249000D03*
Y1258000D03*
X1493540Y1283950D03*
Y1292950D03*
X1145000Y1148000D03*
Y1139000D03*
X1527980Y1281370D03*
Y1290370D03*
X1464000Y1306500D03*
Y1315500D03*
X1453000D03*
Y1306500D03*
X1489999Y1403498D03*
Y1412498D03*
X1070000Y1408000D03*
Y1417000D03*
X1145000Y1268000D03*
Y1259000D03*
Y1391000D03*
Y1382000D03*
X1282500Y1391000D03*
Y1382000D03*
Y1268000D03*
Y1259000D03*
Y1148000D03*
Y1139000D03*
X1408500Y1219000D03*
Y1210000D03*
X1509500Y1465500D03*
Y1474500D03*
X1082500Y1451000D03*
Y1460000D03*
X1069500Y1386000D03*
Y1395000D03*
X1082500Y1429000D03*
Y1438000D03*
G54D312*
X1175500Y1173500D03*
X1184500D03*
X1175500Y1293500D03*
X1184500D03*
X1175500Y1416500D03*
X1184500D03*
X1313000D03*
X1322000D03*
X1313000Y1173500D03*
X1322000D03*
X1439000Y1244500D03*
X1448000D03*
X1550500Y1163020D03*
X1559500D03*
X1313000Y1293500D03*
X1322000D03*
X1506500Y1032500D03*
X1515500D03*
X1529999Y1421498D03*
X1538999D03*
X1503499Y1385498D03*
X1494499D03*
Y1432498D03*
X1503499D03*
G54D323*
X1477362Y1465748D03*
X1487362D03*
X1482441Y1034252D03*
X1472441D03*
G54D324*
X1202500Y1014800D03*
X1192500D03*
X1182500D03*
X1172500D03*
X1162500D03*
X1152500D03*
X1142500D03*
G54D332*
X1515280Y1073720D03*
Y1067420D03*
X1515340Y1082110D03*
Y1088410D03*
X1272499Y1035648D03*
Y1029348D03*
X1299999Y1035648D03*
Y1029348D03*
X1279500Y1035650D03*
Y1029350D03*
X1174500Y1067150D03*
Y1060850D03*
X1103000Y1041570D03*
Y1035270D03*
X1561000Y1082350D03*
Y1088650D03*
X1110000Y1037350D03*
Y1043650D03*
X1496500Y1254150D03*
Y1247850D03*
X1503500Y1266650D03*
Y1260350D03*
X1533000Y1253850D03*
Y1260150D03*
X1086700Y1262750D03*
Y1256450D03*
X1086671Y1229962D03*
Y1236262D03*
X1057000Y1250850D03*
Y1257150D03*
X1057500Y1229350D03*
Y1235650D03*
X1475500Y1093650D03*
Y1087350D03*
X1266000Y1010350D03*
Y1016650D03*
X1250500Y1025150D03*
Y1018850D03*
X1420500Y1146850D03*
Y1153150D03*
X1387500Y1157150D03*
Y1150850D03*
X1437500Y1305350D03*
Y1311650D03*
X1473000Y1308850D03*
Y1315150D03*
X1501000Y1398850D03*
Y1405150D03*
X1430500Y1315350D03*
Y1321650D03*
X1423000D03*
Y1315350D03*
X1450300Y1408600D03*
Y1414900D03*
X1481500Y1272650D03*
Y1266350D03*
X1561000Y1074150D03*
Y1067850D03*
X1060000Y1415650D03*
Y1409350D03*
X1035500Y1387350D03*
Y1393650D03*
X1487000Y1071650D03*
Y1065350D03*
X1482500Y1087350D03*
Y1093650D03*
X1184380Y1081370D03*
Y1075070D03*
X1184500Y1061350D03*
Y1067650D03*
X1293000Y1035650D03*
Y1029350D03*
X1460000Y1357850D03*
Y1364150D03*
X1286400Y1035650D03*
Y1029350D03*
X1032100Y1453550D03*
Y1447250D03*
X1060000Y1458650D03*
Y1452350D03*
X1066500Y1458650D03*
Y1452350D03*
X1046800Y1441850D03*
Y1448150D03*
X1450300Y1421130D03*
Y1427430D03*
X1283500Y1118650D03*
Y1112350D03*
X1276000Y1118150D03*
Y1111850D03*
X1073500Y1458650D03*
Y1452350D03*
X1035500Y1409350D03*
Y1415650D03*
Y1436650D03*
Y1430350D03*
X1066500D03*
Y1436650D03*
X1042000D03*
Y1430350D03*
Y1393650D03*
Y1387350D03*
Y1415650D03*
Y1409350D03*
X1061000Y1393650D03*
Y1387350D03*
X1060000Y1436650D03*
Y1430350D03*
X1073500Y1436650D03*
Y1430350D03*
X1054800Y1387350D03*
Y1393650D03*
X1053500Y1409350D03*
Y1415650D03*
X1053600Y1452350D03*
Y1446050D03*
X1048500Y1387350D03*
Y1393650D03*
X1053500Y1430350D03*
Y1436650D03*
G54D333*
X1480350Y1325500D03*
X1486650D03*
X1436850Y1331000D03*
X1443150D03*
X1526990Y1061024D03*
X1533290D03*
X1526930Y1077650D03*
X1533230D03*
X1496150Y1131000D03*
X1489850D03*
X1496150Y1112500D03*
X1489850D03*
X1496150Y1105500D03*
X1489850D03*
X1496150Y1138500D03*
X1489850D03*
X1559650Y1119500D03*
X1553350D03*
X1560150Y1137000D03*
X1553850D03*
X1170650Y1099000D03*
X1164350D03*
X1098590Y1069960D03*
X1104890D03*
X1102000Y1085970D03*
X1108300D03*
X1075850Y1087500D03*
X1082150D03*
X1164350Y1106000D03*
X1170650D03*
X1082150Y1103500D03*
X1075850D03*
X1104890Y1077460D03*
X1098590D03*
X1079150Y1026000D03*
X1072850D03*
X1242150Y1121500D03*
X1235850D03*
X1242150Y1075000D03*
X1235850D03*
X1108300Y1093970D03*
X1102000D03*
X1110650Y1109000D03*
X1104350D03*
X1235850Y1114498D03*
X1242150D03*
Y1055498D03*
X1235850D03*
X1141150Y1100500D03*
X1134850D03*
X1242150Y1065998D03*
X1235850D03*
X1075850Y1073000D03*
X1082150D03*
X1127150Y1064000D03*
X1120850D03*
X1223150Y1057000D03*
X1216850D03*
X1223150Y1070000D03*
X1216850D03*
X1223150Y1076500D03*
X1216850D03*
X1223150Y1063500D03*
X1216850D03*
X1242150Y1106998D03*
X1235850D03*
X1383150Y1082500D03*
X1376850D03*
X1198150Y1398000D03*
X1191850D03*
X1335650D03*
X1329350D03*
X1335650Y1275000D03*
X1329350D03*
X1525650Y1236500D03*
X1519350D03*
X1513350Y1224000D03*
X1519650D03*
X1521850Y1269000D03*
X1528150D03*
X1497650Y1274500D03*
X1491350D03*
X1461650Y1226000D03*
X1455350D03*
X1413850Y1163000D03*
X1420150D03*
X1406152Y1163259D03*
X1399852D03*
X1396650Y1130000D03*
X1390350D03*
X1387150Y1164000D03*
X1380850D03*
X1335650Y1154500D03*
X1329350D03*
X1198150D03*
X1191850D03*
X1197650Y1275000D03*
X1191350D03*
X1560650Y1174000D03*
X1554350D03*
X1524350Y1406500D03*
X1530650D03*
X1437350Y1408500D03*
X1443650D03*
X1134850Y1107000D03*
X1141150D03*
X1147850Y1100500D03*
X1154150D03*
X1330850Y1164500D03*
X1337150D03*
X1040550Y1453600D03*
X1046850D03*
X1067350Y1468000D03*
X1073650D03*
G54D334*
X1279272Y1292000D03*
X1275728D03*
X1171728Y1281000D03*
X1175272D03*
X1139000Y1325228D03*
Y1328772D03*
X1171728Y1307000D03*
X1175272D03*
X1132500Y1271772D03*
Y1268228D03*
X1171728Y1311500D03*
X1175272D03*
X1157000Y1271772D03*
Y1268228D03*
X1118272Y1292500D03*
X1114728D03*
X1151772Y1296500D03*
X1148228D03*
X1126256Y1298500D03*
X1122712D03*
X1118272Y1311000D03*
X1114728D03*
X1289272Y1305000D03*
X1285728D03*
X1145000Y1440228D03*
Y1443772D03*
X1141772Y1424000D03*
X1138228D03*
X1163728Y1421500D03*
X1167272D03*
X1309228Y1281000D03*
X1312772D03*
X1141772Y1419500D03*
X1138228D03*
X1145000Y1402772D03*
Y1399228D03*
X1151672Y1428000D03*
X1148128D03*
X1171728Y1404000D03*
X1175272D03*
X1134500Y1448228D03*
Y1451772D03*
X1171728Y1430000D03*
X1175272D03*
X1277000Y1325228D03*
Y1328772D03*
X1132500Y1394772D03*
Y1391228D03*
X1171728Y1434500D03*
X1175272D03*
X1157000Y1394772D03*
Y1391228D03*
X1118272Y1415500D03*
X1114728D03*
X1151672Y1419500D03*
X1148128D03*
X1126272Y1421500D03*
X1122728D03*
X1118272Y1434000D03*
X1114728D03*
X1309228Y1307000D03*
X1312772D03*
X1289272Y1185000D03*
X1285728D03*
X1282500Y1440228D03*
Y1443772D03*
X1279272Y1424000D03*
X1275728D03*
X1301728Y1421438D03*
X1305272D03*
X1279272Y1419500D03*
X1275728D03*
X1282500Y1402772D03*
Y1399228D03*
X1309228Y1161000D03*
X1312772D03*
X1289272Y1428000D03*
X1285728D03*
X1309228Y1404000D03*
X1312772D03*
X1277000Y1448228D03*
Y1451772D03*
X1309228Y1430000D03*
X1312772D03*
X1270000Y1394772D03*
Y1391228D03*
X1309228Y1434500D03*
X1312772D03*
X1294500Y1394772D03*
Y1391228D03*
X1277000Y1205228D03*
Y1208772D03*
X1255772Y1415500D03*
X1252228D03*
X1289272Y1419500D03*
X1285728D03*
X1263272Y1421558D03*
X1259728D03*
X1255772Y1434000D03*
X1252228D03*
X1309228Y1187000D03*
X1312772D03*
X1270000Y1151772D03*
Y1148228D03*
X1408500Y1268228D03*
Y1271772D03*
X1405272Y1252000D03*
X1401728D03*
X1427728Y1249500D03*
X1431272D03*
X1405272Y1247500D03*
X1401728D03*
X1408500Y1230772D03*
Y1227228D03*
X1309228Y1191500D03*
X1312772D03*
X1415272Y1256000D03*
X1411728D03*
X1435228Y1232000D03*
X1438772D03*
X1398000Y1276228D03*
Y1279772D03*
X1435228Y1258000D03*
X1438772D03*
X1396000Y1222772D03*
Y1219228D03*
X1435228Y1262500D03*
X1438772D03*
X1420500Y1222772D03*
Y1219228D03*
X1381772Y1243500D03*
X1378228D03*
X1415272Y1247500D03*
X1411728D03*
X1381782Y1252880D03*
X1378238D03*
X1294500Y1151772D03*
Y1148228D03*
X1381772Y1262000D03*
X1378228D03*
X1282500Y1317228D03*
Y1320772D03*
X1279272Y1301000D03*
X1275728D03*
X1301728Y1298500D03*
X1305272D03*
X1279272Y1296500D03*
X1275728D03*
X1282500Y1279772D03*
Y1276228D03*
X1270000Y1271772D03*
Y1268228D03*
X1309228Y1311500D03*
X1312772D03*
X1294500Y1271772D03*
Y1268228D03*
X1255772Y1292500D03*
X1252228D03*
X1289272Y1296500D03*
X1285728D03*
X1263272Y1298500D03*
X1259728D03*
X1255772Y1311000D03*
X1252228D03*
X1289272Y1301000D03*
X1285728D03*
X1309228Y1285500D03*
X1312772D03*
X1272000Y1325228D03*
Y1328772D03*
X1309228Y1302500D03*
X1312772D03*
X1282500Y1197228D03*
Y1200772D03*
Y1159772D03*
Y1156228D03*
X1145000Y1197228D03*
Y1200772D03*
X1141772Y1181000D03*
X1138228D03*
X1163728Y1178500D03*
X1167272D03*
X1141772Y1176500D03*
X1138228D03*
X1279272Y1181000D03*
X1275728D03*
X1145000Y1164228D03*
Y1167772D03*
X1151772Y1185000D03*
X1148228D03*
X1171728Y1161000D03*
X1175272D03*
X1134500Y1205228D03*
Y1208772D03*
X1171728Y1187000D03*
X1175272D03*
X1132500Y1151772D03*
Y1148228D03*
X1301728Y1178500D03*
X1305272D03*
X1171728Y1191500D03*
X1175272D03*
X1157000Y1151772D03*
Y1148228D03*
X1118272Y1172500D03*
X1114728D03*
X1151772Y1176500D03*
X1148228D03*
X1126272Y1178500D03*
X1122728D03*
X1118272Y1191000D03*
X1114728D03*
X1145000Y1317228D03*
Y1320772D03*
X1141772Y1301000D03*
X1138228D03*
X1163728Y1298500D03*
X1167272D03*
X1141772Y1296500D03*
X1138228D03*
X1145000Y1279772D03*
Y1276228D03*
X1151772Y1305000D03*
X1148228D03*
X1279272Y1176500D03*
X1275728D03*
X1282500Y1164228D03*
Y1167772D03*
X1151772Y1301000D03*
X1148228D03*
X1171728Y1285500D03*
X1175272D03*
X1134500Y1325228D03*
Y1328772D03*
X1171728Y1302500D03*
X1175272D03*
X1137000Y1271772D03*
Y1268228D03*
X1171728Y1316000D03*
X1175272D03*
X1152500Y1271772D03*
Y1268228D03*
X1118272Y1287500D03*
X1114728D03*
X1151772Y1292000D03*
X1148228D03*
X1130728Y1298500D03*
X1134272D03*
X1118272Y1306500D03*
X1114728D03*
X1145000Y1407228D03*
Y1410772D03*
Y1435772D03*
Y1432228D03*
X1141772Y1428000D03*
X1138228D03*
X1159272Y1421500D03*
X1155728D03*
X1141772Y1415000D03*
X1138228D03*
X1151672Y1424000D03*
X1148128D03*
X1171728Y1408500D03*
X1175272D03*
X1139500Y1448228D03*
Y1451772D03*
X1171728Y1425500D03*
X1175272D03*
X1137000Y1394772D03*
Y1391228D03*
X1171728Y1439000D03*
X1175272D03*
X1152500Y1394772D03*
Y1391228D03*
X1118272Y1410500D03*
X1114728D03*
X1151572Y1415000D03*
X1148028D03*
X1130728Y1421500D03*
X1134272D03*
X1118272Y1429500D03*
X1114728D03*
X1282500Y1407228D03*
Y1410772D03*
Y1435772D03*
Y1432228D03*
X1279272Y1428000D03*
X1275728D03*
X1297272Y1421418D03*
X1293728D03*
X1279272Y1415000D03*
X1275728D03*
X1289272Y1424000D03*
X1285728D03*
X1309228Y1408500D03*
X1312772D03*
X1272000Y1448228D03*
Y1451772D03*
X1309228Y1425500D03*
X1312772D03*
X1274500Y1394772D03*
Y1391228D03*
X1309228Y1439000D03*
X1312772D03*
X1290000Y1394772D03*
Y1391228D03*
X1255772Y1410500D03*
X1252228D03*
X1289272Y1415000D03*
X1285728D03*
X1267728Y1421548D03*
X1271272D03*
X1255772Y1429500D03*
X1252228D03*
X1282500Y1192772D03*
Y1189228D03*
X1408500Y1235228D03*
Y1238772D03*
Y1263772D03*
Y1260228D03*
X1405272Y1256000D03*
X1401728D03*
X1423272Y1249500D03*
X1419728D03*
X1405272Y1243000D03*
X1401728D03*
X1415272Y1252000D03*
X1411728D03*
X1435228Y1236500D03*
X1438772D03*
X1403000Y1276228D03*
Y1279772D03*
X1435228Y1253500D03*
X1438772D03*
X1400500Y1222772D03*
Y1219228D03*
X1435228Y1267000D03*
X1438772D03*
X1416000Y1222772D03*
Y1219228D03*
X1381772Y1238500D03*
X1378228D03*
X1415272Y1243000D03*
X1411728D03*
X1289272Y1176500D03*
X1285728D03*
X1393728Y1249500D03*
X1397272D03*
X1381772Y1257500D03*
X1378228D03*
X1282500Y1284228D03*
Y1287772D03*
X1263272Y1178500D03*
X1259728D03*
X1282500Y1312772D03*
Y1309228D03*
X1279272Y1305000D03*
X1275728D03*
X1297272Y1298500D03*
X1293728D03*
X1255772Y1191000D03*
X1252228D03*
X1289272Y1181000D03*
X1285728D03*
X1309228Y1165500D03*
X1312772D03*
X1279272Y1185000D03*
X1275728D03*
X1272000Y1205228D03*
Y1208772D03*
X1274500Y1271772D03*
Y1268228D03*
X1309228Y1316000D03*
X1312772D03*
X1290000Y1271772D03*
Y1268228D03*
X1255772Y1287500D03*
X1252228D03*
X1289272Y1292000D03*
X1285728D03*
X1267728Y1298500D03*
X1271272D03*
X1309228Y1182500D03*
X1312772D03*
X1255772Y1306500D03*
X1252228D03*
X1274500Y1151772D03*
Y1148228D03*
X1309228Y1196000D03*
X1312772D03*
X1290000Y1151772D03*
Y1148228D03*
X1255772Y1167500D03*
X1252228D03*
X1289272Y1172000D03*
X1285728D03*
X1267728Y1178500D03*
X1271272D03*
X1255772Y1186500D03*
X1252228D03*
X1145000Y1159772D03*
Y1156228D03*
Y1192772D03*
Y1189228D03*
X1141772Y1185000D03*
X1138228D03*
X1159272Y1178500D03*
X1155728D03*
X1141772Y1172000D03*
X1138228D03*
X1151772Y1181000D03*
X1148228D03*
X1171728Y1165500D03*
X1175272D03*
X1139000Y1205228D03*
Y1208772D03*
X1171728Y1182500D03*
X1175272D03*
X1297272Y1178500D03*
X1293728D03*
X1137000Y1151772D03*
Y1148228D03*
X1171728Y1196000D03*
X1175272D03*
X1152500Y1151772D03*
Y1148228D03*
X1118272Y1167500D03*
X1114728D03*
X1151772Y1172000D03*
X1148228D03*
X1130728Y1178500D03*
X1134272D03*
X1118272Y1186500D03*
X1114728D03*
X1279272Y1172000D03*
X1275728D03*
X1145000Y1284228D03*
Y1287772D03*
Y1312772D03*
Y1309228D03*
X1141772Y1305000D03*
X1138228D03*
X1159256Y1298500D03*
X1155712D03*
X1141772Y1292000D03*
X1138228D03*
X1255772Y1172500D03*
X1252228D03*
X1253728Y1038500D03*
X1257272D03*
X1247999Y1045272D03*
Y1041728D03*
X1278500Y1088272D03*
Y1084728D03*
X1317000Y1053272D03*
Y1049728D03*
X1299000Y1060228D03*
Y1063772D03*
X1310999Y1034270D03*
Y1030726D03*
X1240772Y1081000D03*
X1237228D03*
X1240772Y1100998D03*
X1237228D03*
X1240772Y1089500D03*
X1237228D03*
X1266228Y1062000D03*
X1269772D03*
X1266228Y1057500D03*
X1269772D03*
X1251772Y1096500D03*
X1248228D03*
X1267000Y1089272D03*
Y1085728D03*
X1289500Y1088272D03*
Y1084728D03*
X1262728Y1108000D03*
X1266272D03*
X1298772Y1077500D03*
X1295228D03*
X1322228Y1099000D03*
X1325772D03*
X1299000Y1088272D03*
Y1084728D03*
X1266500Y1096728D03*
Y1100272D03*
X1259000Y1113228D03*
Y1116772D03*
X1254772Y1108000D03*
X1251228D03*
X1322228Y1094500D03*
X1325772D03*
X1317000Y1045272D03*
Y1041728D03*
X1310228Y1108000D03*
X1313772D03*
X1305999Y1034270D03*
Y1030726D03*
X1294000Y1088272D03*
Y1084728D03*
G54D337*
X1165500Y1060870D03*
X1160500D03*
X1155500D03*
X1150500D03*
Y1082130D03*
X1155500D03*
X1160500D03*
X1165500D03*
G54D339*
X1228110Y1204000D03*
X1231890D03*
X1322890Y1285500D03*
X1319110D03*
X1228110Y1210000D03*
X1231890D03*
X1227610Y1330000D03*
X1231390D03*
X1227610Y1317500D03*
X1231390D03*
X1351060Y1225360D03*
X1354840D03*
X1185390Y1165500D03*
X1181610D03*
X1090110Y1210000D03*
X1093890D03*
X1090110Y1197500D03*
X1093890D03*
X1090110Y1214500D03*
X1093890D03*
X1185390Y1285500D03*
X1181610D03*
X1090110Y1334500D03*
X1093890D03*
X1090110Y1330000D03*
X1093890D03*
X1090110Y1317500D03*
X1093890D03*
X1228110Y1191500D03*
X1231890D03*
X1185390Y1408500D03*
X1181610D03*
X1090110Y1457500D03*
X1093890D03*
X1090110Y1453000D03*
X1093890D03*
X1228110Y1214500D03*
X1231890D03*
X1090110Y1440500D03*
X1093890D03*
X1227610Y1334500D03*
X1231390D03*
X1322890Y1408500D03*
X1319110D03*
X1227610Y1457500D03*
X1231390D03*
X1227610Y1453000D03*
X1231390D03*
X1227610Y1440500D03*
X1231390D03*
X1322110Y1061000D03*
X1325890D03*
X1322110Y1065500D03*
X1325890D03*
X1322110Y1085500D03*
X1325890D03*
X1322110Y1090000D03*
X1325890D03*
X1322110Y1076500D03*
X1325890D03*
X1322110Y1081000D03*
X1325890D03*
X1345110Y1075500D03*
X1348890D03*
X1345110Y1067500D03*
X1348890D03*
G54D349*
X1245500Y1246610D03*
Y1250390D03*
X1313000Y1246610D03*
Y1250390D03*
X1243500Y1350390D03*
Y1346610D03*
X1300000Y1246610D03*
Y1250390D03*
X1303000Y1126610D03*
Y1130390D03*
X1106000Y1230390D03*
Y1226610D03*
X1162500Y1126610D03*
Y1130390D03*
X1437500Y1197610D03*
Y1201390D03*
X1365920Y1278720D03*
Y1282500D03*
X1110500Y1230390D03*
Y1226610D03*
Y1350390D03*
Y1346610D03*
Y1473390D03*
Y1469610D03*
X1248000Y1473390D03*
Y1469610D03*
Y1350390D03*
Y1346610D03*
X1175500Y1126610D03*
Y1130390D03*
X1108000Y1126610D03*
Y1130390D03*
X1106000Y1350390D03*
Y1346610D03*
X1108000Y1246610D03*
Y1250390D03*
X1162500Y1246610D03*
Y1250390D03*
X1175500Y1246610D03*
Y1250390D03*
X1106000Y1473390D03*
Y1469610D03*
X1108000Y1369610D03*
Y1373390D03*
X1175500Y1369610D03*
Y1373390D03*
X1162500Y1369610D03*
Y1373390D03*
X1243500Y1473390D03*
Y1469610D03*
X1245500Y1369610D03*
Y1373390D03*
X1313000Y1369610D03*
Y1373390D03*
X1300000Y1369610D03*
Y1373390D03*
G54D357*
X1242346Y1129500D03*
X1235654D03*
X1093356Y1026230D03*
X1086664D03*
G54D362*
X1524499Y1447789D03*
Y1459207D03*
X1470000Y1358291D03*
Y1369709D03*
X1449000Y1358291D03*
Y1369709D03*
G54D363*
X1528790Y1383498D03*
X1540208D03*
G54D364*
X1479339Y1061339D03*
X1476780D03*
X1474221D03*
X1471661D03*
Y1078661D03*
X1474221D03*
X1476780D03*
X1479339D03*
G54D367*
X1628819Y1188977D03*
X1629213Y1196851D03*
X1628819Y1204725D03*
X1629213Y1212599D03*
X1628819Y1220473D03*
X1629213Y1228347D03*
X1628819Y1236221D03*
X1629213Y1244095D03*
X1623307Y1188977D03*
X1623701Y1196851D03*
X1623307Y1204725D03*
X1623701Y1212599D03*
X1623307Y1220473D03*
X1623701Y1228347D03*
X1623307Y1236221D03*
X1623701Y1244095D03*
X1617795Y1188977D03*
X1618189Y1196851D03*
X1617795Y1204725D03*
X1618189Y1212599D03*
X1617795Y1220473D03*
X1618189Y1228347D03*
X1617795Y1236221D03*
X1618189Y1244095D03*
X1612284Y1188977D03*
X1612677Y1196851D03*
X1612284Y1204725D03*
X1612677Y1212599D03*
X1612284Y1220473D03*
X1612677Y1228347D03*
X1612284Y1236221D03*
X1612677Y1244095D03*
X1606772Y1188977D03*
X1607165Y1196851D03*
X1606772Y1204725D03*
X1607165Y1212599D03*
X1606772Y1220473D03*
X1607165Y1228347D03*
X1606772Y1236221D03*
X1607165Y1244095D03*
X1601260Y1188977D03*
X1601654Y1196851D03*
X1601260Y1204725D03*
X1601654Y1212599D03*
X1601260Y1220473D03*
X1601654Y1228347D03*
X1601260Y1236221D03*
X1601654Y1244095D03*
X1595748Y1188977D03*
X1596142Y1196851D03*
X1595748Y1204725D03*
X1596142Y1212599D03*
X1595748Y1220473D03*
X1596142Y1228347D03*
X1595748Y1236221D03*
X1596142Y1244095D03*
X1590236Y1188977D03*
X1590630Y1196851D03*
X1590236Y1204725D03*
X1590630Y1212599D03*
X1590236Y1220473D03*
X1590630Y1228347D03*
X1590236Y1236221D03*
X1590630Y1244095D03*
X1584725Y1188977D03*
X1585118Y1196851D03*
X1584725Y1204725D03*
X1585118Y1212599D03*
X1584725Y1220473D03*
X1585118Y1228347D03*
X1584725Y1236221D03*
X1585118Y1244095D03*
X1628819Y1090866D03*
X1629213Y1098740D03*
X1628819Y1106614D03*
X1629213Y1114488D03*
X1628819Y1122362D03*
X1629213Y1130236D03*
X1628819Y1138110D03*
X1629213Y1145984D03*
X1623307Y1090866D03*
X1623701Y1098740D03*
X1623307Y1106614D03*
X1623701Y1114488D03*
X1623307Y1122362D03*
X1623701Y1130236D03*
X1623307Y1138110D03*
X1623701Y1145984D03*
X1617795Y1090866D03*
X1618189Y1098740D03*
X1617795Y1106614D03*
X1618189Y1114488D03*
X1617795Y1122362D03*
X1618189Y1130236D03*
X1617795Y1138110D03*
X1618189Y1145984D03*
X1612284Y1090866D03*
X1612677Y1098740D03*
X1612284Y1106614D03*
X1612677Y1114488D03*
X1612284Y1122362D03*
X1612677Y1130236D03*
X1612284Y1138110D03*
X1612677Y1145984D03*
X1606772Y1090866D03*
X1607165Y1098740D03*
X1606772Y1106614D03*
X1607165Y1114488D03*
X1606772Y1122362D03*
X1607165Y1130236D03*
X1606772Y1138110D03*
X1607165Y1145984D03*
X1601260Y1090866D03*
X1601654Y1098740D03*
X1601260Y1106614D03*
X1601654Y1114488D03*
X1601260Y1122362D03*
X1601654Y1130236D03*
X1601260Y1138110D03*
X1601654Y1145984D03*
X1595748Y1090866D03*
X1596142Y1098740D03*
X1595748Y1106614D03*
X1596142Y1114488D03*
X1595748Y1122362D03*
X1596142Y1130236D03*
X1595748Y1138110D03*
X1596142Y1145984D03*
X1590236Y1090866D03*
X1590630Y1098740D03*
X1590236Y1106614D03*
X1590630Y1114488D03*
X1590236Y1122362D03*
X1590630Y1130236D03*
X1590236Y1138110D03*
X1590630Y1145984D03*
X1584725Y1090866D03*
X1585118Y1098740D03*
X1584725Y1106614D03*
X1585118Y1114488D03*
X1584725Y1122362D03*
X1585118Y1130236D03*
X1584725Y1138110D03*
X1585118Y1145984D03*
G54D368*
X1093000Y1036882D03*
Y1047118D03*
G54D369*
X1079618Y1038000D03*
X1069382D03*
X1370882Y1093500D03*
X1381118D03*
G54D370*
X1226000Y1115654D03*
Y1122346D03*
X1257870Y1013904D03*
Y1020596D03*
G54D371*
X1284315Y1021240D03*
Y1017500D03*
Y1013760D03*
X1273685D03*
Y1017500D03*
Y1021240D03*
G54D383*
X1434331Y1483937D03*
X1406772Y1016220D03*
G54D384*
X1015984Y1392795D03*
Y1445945D03*
Y1410512D03*
Y1428228D03*
Y1375079D03*
Y1357362D03*
G54D391*
X1537685Y1459500D03*
X1548315D03*
G54D401*
X1026929Y1469016D03*
G74*
X0Y0D02*
M02*
