*
*
G04 PADS 9.5 Build Number: 522968 generated Gerber (RS-274-X) file*
G04 PC Version=2.1*
*
%IN "IOP-AI1_REVB.pcb"*%
*
%MOIN*%
*
%FSLAX35Y35*%
*
*
*
*
G04 PC Standard Apertures*
*
*
G04 Thermal Relief Aperture macro.*
%AMTER*
1,1,$1,0,0*
1,0,$1-$2,0,0*
21,0,$3,$4,0,0,45*
21,0,$3,$4,0,0,135*
%
*
*
G04 Annular Aperture macro.*
%AMANN*
1,1,$1,0,0*
1,0,$2,0,0*
%
*
*
G04 Odd Aperture macro.*
%AMODD*
1,1,$1,0,0*
1,0,$1-0.005,0,0*
%
*
*
G04 PC Custom Aperture Macros*
*
*
*
*
*
*
G04 PC Aperture Table*
*
%ADD010C,0.001*%
%ADD013C,0.03937*%
%ADD029C,0.05906*%
%ADD035C,0.05*%
%ADD037R,0.05906X0.05906*%
%ADD068C,0.04*%
%ADD077C,0.02*%
%ADD085C,0.01*%
%ADD086C,0.008*%
%ADD087C,0.006*%
%ADD088C,0.025*%
%ADD090C,0.012*%
%ADD091C,0.015*%
%ADD097C,0.024*%
%ADD103C,0.005*%
%ADD248C,0.07*%
%ADD301C,0.004*%
%ADD451R,0.05512X0.05512*%
%ADD452C,0.05512*%
*
*
*
*
G04 PC Circuitry*
G04 Layer Name IOP-AI1_REVB.pcb - circuitry*
%LPD*%
*
*
G04 PC Custom Flashes*
G04 Layer Name IOP-AI1_REVB.pcb - flashes*
%LPD*%
*
*
G04 PC Circuitry*
G04 Layer Name IOP-AI1_REVB.pcb - circuitry*
%LPD*%
*
G54D10*
G54D13*
G01X1612265Y1138144D03*
X1606753D03*
X1590611Y1114522D03*
Y1130270D03*
X1585099Y1114522D03*
Y1130270D03*
X1607347Y1228370D03*
X1606953Y1236244D03*
X1601835Y1228370D03*
X1601441Y1236244D03*
G54D29*
X1585906Y1421535D03*
X1593780D03*
X1578032Y1397913D03*
X1585906D03*
X1593780D03*
X1609528Y1421535D03*
Y1397913D03*
X1617402Y1421535D03*
X1625276D03*
X1617402Y1397913D03*
X1625276D03*
G54D35*
X1189500Y1028500D03*
G54D37*
X1578032Y1421535D03*
G54D68*
X1586500Y1275000D03*
Y1269000D03*
Y1263000D03*
G54D77*
X1058200Y1054300D03*
X1072900Y1051700D03*
X1177048Y1085837D03*
X1141615Y1093711D03*
X1157400Y1097800D03*
X1177100Y1097600D03*
X1137678Y1101585D03*
X1151490Y1036410D03*
X1192774Y1070126D03*
X1188859Y1089774D03*
X1254079Y1051126D03*
X1184922Y1085837D03*
X1248000Y1047500D03*
X1192774Y1074063D03*
X1188837Y1070126D03*
X1192774Y1078000D03*
X1184900Y1070126D03*
Y1074063D03*
X1184922Y1093711D03*
X1253000Y1083500D03*
X1192796Y1093711D03*
X1252500Y1065300D03*
X1184922Y1089774D03*
X1254579Y1059626D03*
X1188859Y1097648D03*
X1193100Y1097700D03*
X1216800Y1055500D03*
X1216750Y1050800D03*
X1180900Y1062300D03*
X1216570Y1065030D03*
X1218600Y1062800D03*
X1181000Y1097600D03*
X1188837Y1078000D03*
X1192800Y1085900D03*
X1184900Y1078000D03*
X1188859Y1085837D03*
X1254000Y1042500D03*
X1188837Y1074063D03*
X1184922Y1097648D03*
X1180985Y1093711D03*
X1257000Y1098500D03*
X1188859Y1093711D03*
X1192796Y1089774D03*
X1254079Y1048126D03*
X1299000Y1092500D03*
X1335700Y1096050D03*
X1297500Y1095000D03*
X1292500Y1096000D03*
X1299500Y1100000D03*
X1279853Y1032391D03*
X1264500Y1031500D03*
X1272000D03*
X1277955Y1042538D03*
X1283790Y1032391D03*
X1280680Y1042440D03*
X1311079Y1051626D03*
X1292579Y1076626D03*
X1270600Y1065700D03*
X1268600Y1061000D03*
X1269800Y1042100D03*
X1266000Y1044000D03*
X1273948Y1042538D03*
X1285759D03*
X1260500Y1096500D03*
X1265800Y1063400D03*
X1343750Y1099600D03*
X1373000Y1091500D03*
X1468600Y1099400D03*
X1462500Y1093561D03*
X1466000D03*
X1157363Y1105522D03*
X1153426D03*
X1165289Y1105474D03*
X1165790Y1166770D03*
X1166070Y1171130D03*
X1177100Y1105474D03*
X1173163D03*
X1169174Y1105522D03*
X1145601Y1125298D03*
X1200590Y1105470D03*
X1180985Y1105522D03*
X1184922Y1109459D03*
X1338100Y1122600D03*
X1300200Y1158700D03*
X1339000Y1128500D03*
X1373500Y1103000D03*
X1466000Y1124161D03*
X1462500D03*
X1468600Y1103800D03*
X1062953Y1254091D03*
X1065453Y1252091D03*
X1069600Y1204500D03*
X1047860Y1230550D03*
X1070470Y1220290D03*
X1166450Y1219030D03*
X1166700Y1223500D03*
X1308900Y1241600D03*
X1488580Y1236630D03*
X1482530Y1218710D03*
X1490000Y1187000D03*
X1518600Y1236100D03*
X1521400Y1233900D03*
X1516100Y1237900D03*
X1541900Y1237100D03*
X1526600Y1231700D03*
X1060453Y1264591D03*
X1285600Y1276500D03*
X1496300Y1294200D03*
X1481390Y1271460D03*
X1525940Y1274030D03*
X1505600Y1298800D03*
X1522200Y1277400D03*
X1523000Y1334200D03*
X1525940Y1277180D03*
X1499600Y1291900D03*
X1525940Y1267731D03*
X1501700Y1300700D03*
X1538500Y1332300D03*
X1526900Y1334300D03*
X1058490Y1347570D03*
X1163000Y1363000D03*
G54D85*
X1195600Y1723063D02*
Y1716500D01*
Y1723063D02*
X1197646D01*
X1198328Y1722750*
X1198555Y1722438*
X1198782Y1721813*
Y1721188*
X1198555Y1720563*
X1198328Y1720250*
X1197646Y1719938*
X1195600D02*
X1197646D01*
X1198328Y1719625*
X1198555Y1719313*
X1198782Y1718688*
Y1717750*
X1198555Y1717125*
X1198328Y1716813*
X1197646Y1716500*
X1195600*
X1202191Y1723063D02*
X1201737Y1722750D01*
X1201282Y1722125*
X1201055Y1721500*
X1200828Y1720563*
Y1719000*
X1201055Y1718063*
X1201282Y1717438*
X1201737Y1716813*
X1202191Y1716500*
X1203100*
X1203555Y1716813*
X1204009Y1717438*
X1204237Y1718063*
X1204464Y1719000*
Y1720563*
X1204237Y1721500*
X1204009Y1722125*
X1203555Y1722750*
X1203100Y1723063*
X1202191*
X1208328D02*
X1206509Y1716500D01*
X1208328Y1723063D02*
X1210146Y1716500D01*
X1207191Y1718688D02*
X1209464D01*
X1212191Y1723063D02*
Y1716500D01*
Y1723063D02*
X1214237D01*
X1214918Y1722750*
X1215146Y1722438*
X1215373Y1721813*
Y1721188*
X1215146Y1720563*
X1214918Y1720250*
X1214237Y1719938*
X1212191*
X1213782D02*
X1215373Y1716500D01*
X1217418Y1723063D02*
Y1716500D01*
Y1723063D02*
X1219009D01*
X1219691Y1722750*
X1220146Y1722125*
X1220373Y1721500*
X1220600Y1720563*
Y1719000*
X1220373Y1718063*
X1220146Y1717438*
X1219691Y1716813*
X1219009Y1716500*
X1217418*
X1233100Y1723063D02*
Y1716500D01*
Y1723063D02*
X1236282Y1716500D01*
Y1723063D02*
Y1716500D01*
X1240146Y1723063D02*
X1238328Y1716500D01*
X1240146Y1723063D02*
X1241964Y1716500D01*
X1239009Y1718688D02*
X1241282D01*
X1244009Y1723063D02*
Y1716500D01*
Y1723063D02*
X1245828Y1716500D01*
X1247646Y1723063D02*
X1245828Y1716500D01*
X1247646Y1723063D02*
Y1716500D01*
X1249691Y1723063D02*
Y1716500D01*
Y1723063D02*
X1252646D01*
X1249691Y1719938D02*
X1251509D01*
X1249691Y1716500D02*
X1252646D01*
X1259918Y1719313D02*
X1264009D01*
X1195600Y1695563D02*
Y1689000D01*
Y1695563D02*
X1197191D01*
X1197873Y1695250*
X1198328Y1694625*
X1198555Y1694000*
X1198782Y1693063*
Y1691500*
X1198555Y1690563*
X1198328Y1689938*
X1197873Y1689313*
X1197191Y1689000*
X1195600*
X1202191Y1695563D02*
X1201737Y1695250D01*
X1201282Y1694625*
X1201055Y1694000*
X1200828Y1693063*
Y1691500*
X1201055Y1690563*
X1201282Y1689938*
X1201737Y1689313*
X1202191Y1689000*
X1203100*
X1203555Y1689313*
X1204009Y1689938*
X1204237Y1690563*
X1204464Y1691500*
Y1693063*
X1204237Y1694000*
X1204009Y1694625*
X1203555Y1695250*
X1203100Y1695563*
X1202191*
X1209918Y1694000D02*
X1209691Y1694625D01*
X1209237Y1695250*
X1208782Y1695563*
X1207873*
X1207418Y1695250*
X1206964Y1694625*
X1206737Y1694000*
X1206509Y1693063*
Y1691500*
X1206737Y1690563*
X1206964Y1689938*
X1207418Y1689313*
X1207873Y1689000*
X1208782*
X1209237Y1689313*
X1209691Y1689938*
X1209918Y1690563*
X1211964Y1695563D02*
Y1690875D01*
X1212191Y1689938*
X1212646Y1689313*
X1213328Y1689000*
X1213782*
X1214464Y1689313*
X1214918Y1689938*
X1215146Y1690875*
Y1695563*
X1217191D02*
Y1689000D01*
Y1695563D02*
X1219009Y1689000D01*
X1220828Y1695563D02*
X1219009Y1689000D01*
X1220828Y1695563D02*
Y1689000D01*
X1222873Y1695563D02*
Y1689000D01*
Y1695563D02*
X1225828D01*
X1222873Y1692438D02*
X1224691D01*
X1222873Y1689000D02*
X1225828D01*
X1227873Y1695563D02*
Y1689000D01*
Y1695563D02*
X1231055Y1689000D01*
Y1695563D02*
Y1689000D01*
X1234691Y1695563D02*
Y1689000D01*
X1233100Y1695563D02*
X1236282D01*
X1243555D02*
Y1689000D01*
Y1695563D02*
X1246737Y1689000D01*
Y1695563D02*
Y1689000D01*
X1250600Y1695563D02*
X1248782Y1689000D01*
X1250600Y1695563D02*
X1252418Y1689000D01*
X1249464Y1691188D02*
X1251737D01*
X1254464Y1695563D02*
Y1689000D01*
Y1695563D02*
X1256282Y1689000D01*
X1258100Y1695563D02*
X1256282Y1689000D01*
X1258100Y1695563D02*
Y1689000D01*
X1260146Y1695563D02*
Y1689000D01*
Y1695563D02*
X1263100D01*
X1260146Y1692438D02*
X1261964D01*
X1260146Y1689000D02*
X1263100D01*
X1265146Y1691813D02*
X1269237D01*
X1385600Y1695563D02*
Y1689000D01*
Y1695563D02*
X1387646D01*
X1388328Y1695250*
X1388555Y1694938*
X1388782Y1694313*
Y1693688*
X1388555Y1693063*
X1388328Y1692750*
X1387646Y1692438*
X1385600*
X1387191D02*
X1388782Y1689000D01*
X1390828Y1695563D02*
Y1689000D01*
Y1695563D02*
X1393782D01*
X1390828Y1692438D02*
X1392646D01*
X1390828Y1689000D02*
X1393782D01*
X1395828Y1695563D02*
X1397646Y1689000D01*
X1399464Y1695563D02*
X1397646Y1689000D01*
X1406737Y1691813D02*
X1410828D01*
X1418100Y1695563D02*
Y1689000D01*
Y1695563D02*
X1420146D01*
X1420828Y1695250*
X1421055Y1694938*
X1421282Y1694313*
Y1693688*
X1421055Y1693063*
X1420828Y1692750*
X1420146Y1692438*
X1418100D02*
X1420146D01*
X1420828Y1692125*
X1421055Y1691813*
X1421282Y1691188*
Y1690250*
X1421055Y1689625*
X1420828Y1689313*
X1420146Y1689000*
X1418100*
X1275600Y1723063D02*
Y1716500D01*
X1279009Y1723063D02*
X1278555Y1722750D01*
X1278100Y1722125*
X1277873Y1721500*
X1277646Y1720563*
Y1719000*
X1277873Y1718063*
X1278100Y1717438*
X1278555Y1716813*
X1279009Y1716500*
X1279918*
X1280373Y1716813*
X1280828Y1717438*
X1281055Y1718063*
X1281282Y1719000*
Y1720563*
X1281055Y1721500*
X1280828Y1722125*
X1280373Y1722750*
X1279918Y1723063*
X1279009*
X1283328D02*
Y1716500D01*
Y1723063D02*
X1285373D01*
X1286055Y1722750*
X1286282Y1722438*
X1286509Y1721813*
Y1720875*
X1286282Y1720250*
X1286055Y1719938*
X1285373Y1719625*
X1283328*
X1288555Y1719313D02*
X1292646D01*
X1296509Y1723063D02*
X1294691Y1716500D01*
X1296509Y1723063D02*
X1298328Y1716500D01*
X1295373Y1718688D02*
X1297646D01*
X1300373Y1723063D02*
Y1716500D01*
X1302418Y1721813D02*
X1302873Y1722125D01*
X1303555Y1723063*
Y1716500*
X1314237Y1721500D02*
X1314009Y1722125D01*
X1313555Y1722750*
X1313100Y1723063*
X1312191*
X1311737Y1722750*
X1311282Y1722125*
X1311055Y1721500*
X1310828Y1720563*
Y1719000*
X1311055Y1718063*
X1311282Y1717438*
X1311737Y1716813*
X1312191Y1716500*
X1313100*
X1313555Y1716813*
X1314009Y1717438*
X1314237Y1718063*
X1318100Y1723063D02*
X1316282Y1716500D01*
X1318100Y1723063D02*
X1319918Y1716500D01*
X1316964Y1718688D02*
X1319237D01*
X1321964Y1723063D02*
Y1716500D01*
Y1723063D02*
X1324009D01*
X1324691Y1722750*
X1324918Y1722438*
X1325146Y1721813*
Y1721188*
X1324918Y1720563*
X1324691Y1720250*
X1324009Y1719938*
X1321964*
X1323555D02*
X1325146Y1716500D01*
X1327191Y1723063D02*
Y1716500D01*
Y1723063D02*
X1328782D01*
X1329464Y1722750*
X1329918Y1722125*
X1330146Y1721500*
X1330373Y1720563*
Y1719000*
X1330146Y1718063*
X1329918Y1717438*
X1329464Y1716813*
X1328782Y1716500*
X1327191*
X1244009Y1739000D02*
X1243782Y1739625D01*
X1243328Y1740250*
X1242873Y1740563*
X1241964*
X1241509Y1740250*
X1241055Y1739625*
X1240828Y1739000*
X1240600Y1738063*
Y1736500*
X1240828Y1735563*
X1241055Y1734938*
X1241509Y1734313*
X1241964Y1734000*
X1242873*
X1243328Y1734313*
X1243782Y1734938*
X1244009Y1735563*
X1247418Y1740563D02*
X1246964Y1740250D01*
X1246509Y1739625*
X1246282Y1739000*
X1246055Y1738063*
Y1736500*
X1246282Y1735563*
X1246509Y1734938*
X1246964Y1734313*
X1247418Y1734000*
X1248328*
X1248782Y1734313*
X1249237Y1734938*
X1249464Y1735563*
X1249691Y1736500*
Y1738063*
X1249464Y1739000*
X1249237Y1739625*
X1248782Y1740250*
X1248328Y1740563*
X1247418*
X1251737D02*
Y1734000D01*
Y1740563D02*
X1253555Y1734000D01*
X1255373Y1740563D02*
X1253555Y1734000D01*
X1255373Y1740563D02*
Y1734000D01*
X1257418Y1740563D02*
Y1734000D01*
Y1740563D02*
X1259464D01*
X1260146Y1740250*
X1260373Y1739938*
X1260600Y1739313*
Y1738375*
X1260373Y1737750*
X1260146Y1737438*
X1259464Y1737125*
X1257418*
X1262646Y1740563D02*
Y1734000D01*
Y1740563D02*
X1264691D01*
X1265373Y1740250*
X1265600Y1739938*
X1265828Y1739313*
Y1738688*
X1265600Y1738063*
X1265373Y1737750*
X1264691Y1737438*
X1262646*
X1264237D02*
X1265828Y1734000D01*
X1267873Y1740563D02*
Y1734000D01*
Y1740563D02*
X1270828D01*
X1267873Y1737438D02*
X1269691D01*
X1267873Y1734000D02*
X1270828D01*
X1276055Y1739625D02*
X1275600Y1740250D01*
X1274918Y1740563*
X1274009*
X1273328Y1740250*
X1272873Y1739625*
Y1739000*
X1273100Y1738375*
X1273328Y1738063*
X1273782Y1737750*
X1275146Y1737125*
X1275600Y1736813*
X1275828Y1736500*
X1276055Y1735875*
Y1734938*
X1275600Y1734313*
X1274918Y1734000*
X1274009*
X1273328Y1734313*
X1272873Y1734938*
X1281282Y1739625D02*
X1280828Y1740250D01*
X1280146Y1740563*
X1279237*
X1278555Y1740250*
X1278100Y1739625*
Y1739000*
X1278328Y1738375*
X1278555Y1738063*
X1279009Y1737750*
X1280373Y1737125*
X1280828Y1736813*
X1281055Y1736500*
X1281282Y1735875*
Y1734938*
X1280828Y1734313*
X1280146Y1734000*
X1279237*
X1278555Y1734313*
X1278100Y1734938*
X1284691Y1740563D02*
X1284237Y1740250D01*
X1283782Y1739625*
X1283555Y1739000*
X1283328Y1738063*
Y1736500*
X1283555Y1735563*
X1283782Y1734938*
X1284237Y1734313*
X1284691Y1734000*
X1285600*
X1286055Y1734313*
X1286509Y1734938*
X1286737Y1735563*
X1286964Y1736500*
Y1738063*
X1286737Y1739000*
X1286509Y1739625*
X1286055Y1740250*
X1285600Y1740563*
X1284691*
X1289009D02*
Y1734000D01*
Y1740563D02*
X1291055D01*
X1291737Y1740250*
X1291964Y1739938*
X1292191Y1739313*
Y1738688*
X1291964Y1738063*
X1291737Y1737750*
X1291055Y1737438*
X1289009*
X1290600D02*
X1292191Y1734000D01*
X1302873Y1739000D02*
X1302646Y1739625D01*
X1302191Y1740250*
X1301737Y1740563*
X1300828*
X1300373Y1740250*
X1299918Y1739625*
X1299691Y1739000*
X1299464Y1738063*
Y1736500*
X1299691Y1735563*
X1299918Y1734938*
X1300373Y1734313*
X1300828Y1734000*
X1301737*
X1302191Y1734313*
X1302646Y1734938*
X1302873Y1735563*
X1306282Y1740563D02*
X1305828Y1740250D01*
X1305373Y1739625*
X1305146Y1739000*
X1304918Y1738063*
Y1736500*
X1305146Y1735563*
X1305373Y1734938*
X1305828Y1734313*
X1306282Y1734000*
X1307191*
X1307646Y1734313*
X1308100Y1734938*
X1308328Y1735563*
X1308555Y1736500*
Y1738063*
X1308328Y1739000*
X1308100Y1739625*
X1307646Y1740250*
X1307191Y1740563*
X1306282*
X1310600D02*
Y1734000D01*
Y1740563D02*
X1313782Y1734000D01*
Y1740563D02*
Y1734000D01*
X1317418Y1740563D02*
Y1734000D01*
X1315828Y1740563D02*
X1319009D01*
X1321055D02*
Y1734000D01*
Y1740563D02*
X1323100D01*
X1323782Y1740250*
X1324009Y1739938*
X1324237Y1739313*
Y1738688*
X1324009Y1738063*
X1323782Y1737750*
X1323100Y1737438*
X1321055*
X1322646D02*
X1324237Y1734000D01*
X1327646Y1740563D02*
X1327191Y1740250D01*
X1326737Y1739625*
X1326509Y1739000*
X1326282Y1738063*
Y1736500*
X1326509Y1735563*
X1326737Y1734938*
X1327191Y1734313*
X1327646Y1734000*
X1328555*
X1329009Y1734313*
X1329464Y1734938*
X1329691Y1735563*
X1329918Y1736500*
Y1738063*
X1329691Y1739000*
X1329464Y1739625*
X1329009Y1740250*
X1328555Y1740563*
X1327646*
X1331964D02*
Y1734000D01*
X1334691*
X1339918Y1739625D02*
X1339464Y1740250D01*
X1338782Y1740563*
X1337873*
X1337191Y1740250*
X1336737Y1739625*
Y1739000*
X1336964Y1738375*
X1337191Y1738063*
X1337646Y1737750*
X1339009Y1737125*
X1339464Y1736813*
X1339691Y1736500*
X1339918Y1735875*
Y1734938*
X1339464Y1734313*
X1338782Y1734000*
X1337873*
X1337191Y1734313*
X1336737Y1734938*
X1350600Y1739000D02*
X1350373Y1739625D01*
X1349918Y1740250*
X1349464Y1740563*
X1348555*
X1348100Y1740250*
X1347646Y1739625*
X1347418Y1739000*
X1347191Y1738063*
Y1736500*
X1347418Y1735563*
X1347646Y1734938*
X1348100Y1734313*
X1348555Y1734000*
X1349464*
X1349918Y1734313*
X1350373Y1734938*
X1350600Y1735563*
X1354009Y1740563D02*
X1353555Y1740250D01*
X1353100Y1739625*
X1352873Y1739000*
X1352646Y1738063*
Y1736500*
X1352873Y1735563*
X1353100Y1734938*
X1353555Y1734313*
X1354009Y1734000*
X1354918*
X1355373Y1734313*
X1355828Y1734938*
X1356055Y1735563*
X1356282Y1736500*
Y1738063*
X1356055Y1739000*
X1355828Y1739625*
X1355373Y1740250*
X1354918Y1740563*
X1354009*
X1358328D02*
Y1734000D01*
Y1740563D02*
X1360373D01*
X1361055Y1740250*
X1361282Y1739938*
X1361509Y1739313*
Y1738688*
X1361282Y1738063*
X1361055Y1737750*
X1360373Y1737438*
X1358328*
X1359918D02*
X1361509Y1734000D01*
X1363555Y1740563D02*
Y1734000D01*
Y1740563D02*
X1365600D01*
X1366282Y1740250*
X1366509Y1739938*
X1366737Y1739313*
Y1738375*
X1366509Y1737750*
X1366282Y1737438*
X1365600Y1737125*
X1363555*
X1370146Y1740563D02*
X1369691Y1740250D01*
X1369237Y1739625*
X1369009Y1739000*
X1368782Y1738063*
Y1736500*
X1369009Y1735563*
X1369237Y1734938*
X1369691Y1734313*
X1370146Y1734000*
X1371055*
X1371509Y1734313*
X1371964Y1734938*
X1372191Y1735563*
X1372418Y1736500*
Y1738063*
X1372191Y1739000*
X1371964Y1739625*
X1371509Y1740250*
X1371055Y1740563*
X1370146*
X1374464D02*
Y1734000D01*
Y1740563D02*
X1376509D01*
X1377191Y1740250*
X1377418Y1739938*
X1377646Y1739313*
Y1738688*
X1377418Y1738063*
X1377191Y1737750*
X1376509Y1737438*
X1374464*
X1376055D02*
X1377646Y1734000D01*
X1381509Y1740563D02*
X1379691Y1734000D01*
X1381509Y1740563D02*
X1383328Y1734000D01*
X1380373Y1736188D02*
X1382646D01*
X1386964Y1740563D02*
Y1734000D01*
X1385373Y1740563D02*
X1388555D01*
X1390600D02*
Y1734000D01*
X1394009Y1740563D02*
X1393555Y1740250D01*
X1393100Y1739625*
X1392873Y1739000*
X1392646Y1738063*
Y1736500*
X1392873Y1735563*
X1393100Y1734938*
X1393555Y1734313*
X1394009Y1734000*
X1394918*
X1395373Y1734313*
X1395828Y1734938*
X1396055Y1735563*
X1396282Y1736500*
Y1738063*
X1396055Y1739000*
X1395828Y1739625*
X1395373Y1740250*
X1394918Y1740563*
X1394009*
X1398328D02*
Y1734000D01*
Y1740563D02*
X1401509Y1734000D01*
Y1740563D02*
Y1734000D01*
X1235600Y1709313D02*
X1236055Y1709625D01*
X1236737Y1710563*
Y1704000*
X1241964Y1710563D02*
X1239691Y1704000D01*
X1238782Y1710563D02*
X1241964D01*
X1244009Y1706813D02*
X1248100D01*
X1252873Y1709625D02*
X1252646Y1710250D01*
X1251964Y1710563*
X1251509*
X1250828Y1710250*
X1250373Y1709313*
X1250146Y1707750*
Y1706188*
X1250373Y1704938*
X1250828Y1704313*
X1251509Y1704000*
X1251737*
X1252418Y1704313*
X1252873Y1704938*
X1253100Y1705875*
Y1706188*
X1252873Y1707125*
X1252418Y1707750*
X1251737Y1708063*
X1251509*
X1250828Y1707750*
X1250373Y1707125*
X1250146Y1706188*
X1256509Y1710563D02*
X1255828Y1710250D01*
X1255373Y1709313*
X1255146Y1707750*
Y1706813*
X1255373Y1705250*
X1255828Y1704313*
X1256509Y1704000*
X1256964*
X1257646Y1704313*
X1258100Y1705250*
X1258328Y1706813*
Y1707750*
X1258100Y1709313*
X1257646Y1710250*
X1256964Y1710563*
X1256509*
X1261737D02*
X1261055Y1710250D01*
X1260600Y1709313*
X1260373Y1707750*
Y1706813*
X1260600Y1705250*
X1261055Y1704313*
X1261737Y1704000*
X1262191*
X1262873Y1704313*
X1263328Y1705250*
X1263555Y1706813*
Y1707750*
X1263328Y1709313*
X1262873Y1710250*
X1262191Y1710563*
X1261737*
X1268555D02*
X1266282D01*
X1266055Y1707750*
X1266282Y1708063*
X1266964Y1708375*
X1267646*
X1268328Y1708063*
X1268782Y1707438*
X1269009Y1706500*
X1268782Y1705875*
X1268555Y1704938*
X1268100Y1704313*
X1267418Y1704000*
X1266737*
X1266055Y1704313*
X1265828Y1704625*
X1265600Y1705250*
X1273328Y1710563D02*
X1271055Y1706188D01*
X1274464*
X1273328Y1710563D02*
Y1704000D01*
X1276509Y1709313D02*
X1276964Y1709625D01*
X1277646Y1710563*
Y1704000*
X1279691Y1706813D02*
X1283782D01*
X1285828Y1709313D02*
X1286282Y1709625D01*
X1286964Y1710563*
Y1704000*
X1290373Y1710563D02*
X1289691Y1710250D01*
X1289237Y1709313*
X1289009Y1707750*
Y1706813*
X1289237Y1705250*
X1289691Y1704313*
X1290373Y1704000*
X1290828*
X1291509Y1704313*
X1291964Y1705250*
X1292191Y1706813*
Y1707750*
X1291964Y1709313*
X1291509Y1710250*
X1290828Y1710563*
X1290373*
X1295600D02*
X1294918Y1710250D01*
X1294464Y1709313*
X1294237Y1707750*
Y1706813*
X1294464Y1705250*
X1294918Y1704313*
X1295600Y1704000*
X1296055*
X1296737Y1704313*
X1297191Y1705250*
X1297418Y1706813*
Y1707750*
X1297191Y1709313*
X1296737Y1710250*
X1296055Y1710563*
X1295600*
X1195600D02*
Y1704000D01*
Y1710563D02*
X1197646D01*
X1198328Y1710250*
X1198555Y1709938*
X1198782Y1709313*
Y1708375*
X1198555Y1707750*
X1198328Y1707438*
X1197646Y1707125*
X1195600*
X1204918Y1711813D02*
X1200828Y1701813D01*
X1206964Y1710563D02*
Y1704000D01*
Y1710563D02*
X1210146Y1704000D01*
Y1710563D02*
Y1704000D01*
X1217418Y1706813D02*
X1221509D01*
X1346273Y1712063D02*
Y1707063D01*
X1346046Y1706125*
X1345818Y1705813*
X1345364Y1705500*
X1344909*
X1344455Y1705813*
X1344228Y1706125*
X1344000Y1707063*
Y1707688*
X1351046Y1709875D02*
Y1705500D01*
Y1708938D02*
X1350591Y1709563D01*
X1350137Y1709875*
X1349455*
X1349000Y1709563*
X1348546Y1708938*
X1348318Y1708000*
Y1707375*
X1348546Y1706438*
X1349000Y1705813*
X1349455Y1705500*
X1350137*
X1350591Y1705813*
X1351046Y1706438*
X1353091Y1709875D02*
Y1705500D01*
Y1708625D02*
X1353773Y1709563D01*
X1354228Y1709875*
X1354909*
X1355364Y1709563*
X1355591Y1708625*
Y1705500*
X1357637Y1709875D02*
Y1706750D01*
X1357864Y1705813*
X1358318Y1705500*
X1359000*
X1359455Y1705813*
X1360137Y1706750*
Y1709875D02*
Y1705500D01*
X1364909Y1709875D02*
Y1705500D01*
Y1708938D02*
X1364455Y1709563D01*
X1364000Y1709875*
X1363318*
X1362864Y1709563*
X1362409Y1708938*
X1362182Y1708000*
Y1707375*
X1362409Y1706438*
X1362864Y1705813*
X1363318Y1705500*
X1364000*
X1364455Y1705813*
X1364909Y1706438*
X1366955Y1709875D02*
Y1705500D01*
Y1708000D02*
X1367182Y1708938D01*
X1367637Y1709563*
X1368091Y1709875*
X1368773*
X1371046D02*
X1372409Y1705500D01*
X1373773Y1709875D02*
X1372409Y1705500D01*
X1371955Y1704250*
X1371500Y1703625*
X1371046Y1703313*
X1370818*
X1381273Y1710500D02*
Y1710813D01*
X1381500Y1711438*
X1381728Y1711750*
X1382182Y1712063*
X1383091*
X1383546Y1711750*
X1383773Y1711438*
X1384000Y1710813*
Y1710188*
X1383773Y1709563*
X1383318Y1708625*
X1381046Y1705500*
X1384228*
X1387637Y1712063D02*
X1386955Y1711750D01*
X1386500Y1710813*
X1386273Y1709250*
Y1708313*
X1386500Y1706750*
X1386955Y1705813*
X1387637Y1705500*
X1388091*
X1388773Y1705813*
X1389228Y1706750*
X1389455Y1708313*
Y1709250*
X1389228Y1710813*
X1388773Y1711750*
X1388091Y1712063*
X1387637*
X1391955Y1705813D02*
X1391728Y1705500D01*
X1391500Y1705813*
X1391728Y1706125*
X1391955Y1705813*
Y1705188*
X1391728Y1704563*
X1391500Y1704250*
X1399455Y1710500D02*
Y1710813D01*
X1399682Y1711438*
X1399909Y1711750*
X1400364Y1712063*
X1401273*
X1401728Y1711750*
X1401955Y1711438*
X1402182Y1710813*
Y1710188*
X1401955Y1709563*
X1401500Y1708625*
X1399228Y1705500*
X1402409*
X1405818Y1712063D02*
X1405137Y1711750D01*
X1404682Y1710813*
X1404455Y1709250*
Y1708313*
X1404682Y1706750*
X1405137Y1705813*
X1405818Y1705500*
X1406273*
X1406955Y1705813*
X1407409Y1706750*
X1407637Y1708313*
Y1709250*
X1407409Y1710813*
X1406955Y1711750*
X1406273Y1712063*
X1405818*
X1409682Y1710813D02*
X1410137Y1711125D01*
X1410818Y1712063*
Y1705500*
X1415818Y1712063D02*
X1413546D01*
X1413318Y1709250*
X1413546Y1709563*
X1414228Y1709875*
X1414909*
X1415591Y1709563*
X1416046Y1708938*
X1416273Y1708000*
X1416046Y1707375*
X1415818Y1706438*
X1415364Y1705813*
X1414682Y1705500*
X1414000*
X1413318Y1705813*
X1413091Y1706125*
X1412864Y1706750*
X1284400Y1695463D02*
Y1688900D01*
X1287128*
X1289628Y1695463D02*
X1292128D01*
X1290764Y1692963*
X1291446*
X1291900Y1692650*
X1292128Y1692338*
X1292355Y1691400*
Y1690775*
X1292128Y1689838*
X1291673Y1689213*
X1290991Y1688900*
X1290309*
X1289628Y1689213*
X1289400Y1689525*
X1289173Y1690150*
X1302809Y1694525D02*
X1302355Y1695150D01*
X1301673Y1695463*
X1300764*
X1300082Y1695150*
X1299628Y1694525*
Y1693900*
X1299855Y1693275*
X1300082Y1692963*
X1300537Y1692650*
X1301900Y1692025*
X1302355Y1691713*
X1302582Y1691400*
X1302809Y1690775*
Y1689838*
X1302355Y1689213*
X1301673Y1688900*
X1300764*
X1300082Y1689213*
X1299628Y1689838*
X1304855Y1695463D02*
Y1688900D01*
X1310309Y1693900D02*
X1310082Y1694525D01*
X1309628Y1695150*
X1309173Y1695463*
X1308264*
X1307809Y1695150*
X1307355Y1694525*
X1307128Y1693900*
X1306900Y1692963*
Y1691400*
X1307128Y1690463*
X1307355Y1689838*
X1307809Y1689213*
X1308264Y1688900*
X1309173*
X1309628Y1689213*
X1310082Y1689838*
X1310309Y1690463*
Y1691400*
X1309173D02*
X1310309D01*
X1312355Y1695463D02*
Y1688900D01*
Y1695463D02*
X1315537Y1688900D01*
Y1695463D02*
Y1688900D01*
X1319400Y1695463D02*
X1317582Y1688900D01*
X1319400Y1695463D02*
X1321218Y1688900D01*
X1318264Y1691088D02*
X1320537D01*
X1323264Y1695463D02*
Y1688900D01*
X1325991*
X1333264Y1694213D02*
X1333718Y1694525D01*
X1334400Y1695463*
Y1688900*
X1000000Y1462862D02*
Y1480316D01*
X1019685Y1500000*
X1632087*
X1637087Y1495000*
Y1062992*
X1599685*
G75*
G03X1597717Y1061024I0J-1968D01*
G01Y1000000*
X1055314*
X1041684Y1012615*
X1031863Y1060462*
X1013278Y1179056*
X1001318Y1256005*
X1000000Y1310659*
Y1462862*
X1000000*
G54D86*
X1535000Y1490438D02*
Y1486500D01*
X1536637*
X1550773Y1490438D02*
X1552273D01*
X1551455Y1488938*
X1551864*
X1552137Y1488750*
X1552273Y1488563*
X1552409Y1488000*
Y1487625*
X1552273Y1487063*
X1552000Y1486688*
X1551591Y1486500*
X1551182*
X1550773Y1486688*
X1550637Y1486875*
X1550500Y1487250*
X1058200Y1054300D02*
X1095500D01*
X1106880Y1042920*
X1203454*
X1216500Y1029874*
X1072900Y1051700D02*
X1078678Y1045922D01*
X1100611*
X1105900Y1040633*
Y1040626*
X1132814*
X1138311Y1035129*
X1150209*
X1151490Y1036410*
X1157375Y1097800D02*
X1157400D01*
X1143000Y1038500D02*
X1144755Y1040255D01*
X1159619*
X1162064Y1037810*
X1181690*
X1185000Y1034500*
Y1033000*
X1189500Y1028500*
X1196100Y1021900*
X1216500*
X1299000Y1092500D02*
X1327900D01*
X1332100Y1088300*
X1339500*
X1343750Y1092550*
Y1099600*
X1297500Y1095000D02*
X1298550Y1096050D01*
X1335700*
X1292500Y1096000D02*
X1295700Y1099200D01*
Y1108900*
X1309500Y1122700*
Y1129300*
X1315300Y1135100*
X1323700*
X1327200Y1131600*
X1335900*
X1339000Y1128500*
X1299500Y1100000D02*
X1303200Y1103700D01*
Y1113100*
X1311100Y1121000*
Y1128500*
X1316300Y1133700*
X1322800*
X1333900Y1122600*
X1338100*
X1292579Y1076626D02*
X1311079Y1058126D01*
Y1051626*
X1373000Y1091500D02*
X1384000Y1102500D01*
Y1161800*
X1452600Y1092300D02*
Y1133600D01*
X1462400Y1143400*
X1482400*
X1484400Y1141400*
X1608300*
X1608600Y1141100*
X1452600Y1092300D02*
X1456300Y1088600D01*
X1461750*
X1463450Y1090300*
Y1092611*
X1451000Y1091600D02*
Y1134300D01*
X1461700Y1145000*
X1483100*
X1485100Y1143000*
X1608963*
X1610200Y1141763*
Y1140322*
X1612322Y1138201*
X1451000Y1091600D02*
X1455600Y1087000D01*
X1462450*
X1465050Y1089600*
Y1092611*
X1466000Y1093561*
X1462500D02*
X1463450Y1092611D01*
X1142300Y1151200D02*
Y1245000D01*
X1152680Y1255380*
X1190372*
X1202181Y1267189*
Y1283669*
X1212705Y1294193*
X1250793*
X1259000Y1302400*
X1288400*
X1296100Y1294700*
X1302500*
X1303900Y1296100*
X1308400*
X1142300Y1151200D02*
X1157363Y1136137D01*
Y1105522*
X1139900Y1149100D02*
Y1247800D01*
X1153910Y1261810*
X1187681*
X1195156Y1269285*
Y1282851*
X1209905Y1297600*
X1249700*
X1257100Y1305000*
X1290100*
X1297200Y1297900*
X1139900Y1149100D02*
X1153426Y1135574D01*
Y1105522*
X1144900Y1153100D02*
Y1242038D01*
X1155252Y1252390*
X1197221*
X1211659Y1266828*
Y1276759*
X1225500Y1290600*
X1251300*
X1260900Y1300200*
X1284400*
X1286800Y1297800*
X1144900Y1153100D02*
X1160817Y1137183D01*
Y1109946*
X1165289Y1105474*
X1148400Y1156600D02*
Y1240538D01*
X1157482Y1249620*
X1199920*
X1212800Y1262500*
X1303300*
X1313400Y1272600*
X1148400Y1156600D02*
X1164586Y1140414D01*
Y1117591*
X1169174Y1113003*
Y1105522*
X1177100Y1105474D02*
Y1115524D01*
X1178298Y1116722*
X1173163Y1105474D02*
Y1110451D01*
X1174244Y1111532*
X1200590Y1105470D02*
X1224079D01*
X1257385Y1072164*
X1280092*
X1286828Y1078900*
X1313000*
X1318310Y1073590*
X1326079*
X1342543Y1057126*
X1414300*
X1432579Y1075405*
Y1183190*
X1456015Y1206626*
X1508006*
X1519020Y1217640*
Y1219442*
X1533300Y1233722*
X1542613*
X1544136Y1235245*
X1292700Y1156005D02*
Y1245100D01*
X1299900Y1252300*
X1305600*
X1333200Y1279900*
X1292700Y1156005D02*
X1298079Y1150626D01*
X1288553Y1120100D02*
X1303700D01*
X1307000Y1123400*
Y1129100*
X1312800Y1134900*
Y1155700*
X1322350Y1165250*
Y1172850*
X1288553Y1120100D02*
X1288579Y1120126D01*
X1335900Y1152450D02*
Y1143900D01*
X1337200Y1142600*
Y1138500*
X1335900Y1152450D02*
X1338900Y1155450D01*
Y1158900*
X1290700Y1153505D02*
Y1246100D01*
X1299600Y1255000*
X1304838*
X1322600Y1272763*
Y1280100*
X1290700Y1153505D02*
X1297579Y1146626D01*
X1335900Y1112355D02*
Y1118700D01*
X1337100Y1119900*
X1338900*
X1342500Y1123500*
X1335900Y1112355D02*
X1346452Y1101803D01*
Y1091382*
X1353334Y1084500*
X1358000*
X1288734Y1106013D02*
Y1096655D01*
X1301089Y1084300*
X1317916*
X1320590Y1081626*
X1359387*
X1362079Y1084318*
X1288734Y1106013D02*
X1290579Y1107858D01*
Y1116626*
X1338700Y1117200D02*
X1345300Y1123800D01*
Y1132600*
X1299000Y1125000D02*
X1301600D01*
X1303200Y1126600*
Y1136700*
X1305600Y1139100*
Y1166200*
X1312680Y1173280*
X1288079Y1120126D02*
X1288579D01*
X1290500Y1124000D02*
X1292300Y1122200D01*
X1302900*
X1305100Y1124400*
Y1131300*
X1309600Y1135800*
Y1156100*
X1314300Y1160800*
Y1196300*
X1317500Y1199500*
X1317100Y1131200D02*
Y1129400D01*
X1333500Y1113000*
X1299000Y1137500D02*
X1303400Y1141900D01*
Y1167900*
X1342400Y1141500D02*
Y1135500D01*
X1345300Y1132600*
X1342400Y1141500D02*
X1344100Y1143200D01*
Y1160250*
X1411500Y1135500D02*
Y1148000D01*
X1421200Y1157700*
Y1188300*
X1428700Y1195800*
X1411500Y1135500D02*
X1414500Y1132500D01*
X1340100Y1131000D02*
Y1141463D01*
X1342400Y1143763*
X1340100Y1131000D02*
X1342500Y1128600D01*
Y1123500*
X1414600Y1136500D02*
X1422800Y1144700D01*
Y1187200*
X1432100Y1196500*
X1414900Y1166500D02*
X1417700Y1169300D01*
Y1190200*
X1418850Y1191350*
X1414500Y1161500D02*
X1419300Y1166300D01*
Y1188800*
X1420787Y1190287*
X1369400Y1115300D02*
X1370600Y1116500D01*
Y1122886*
X1344800Y1136900D02*
X1350900Y1143000D01*
X1373500Y1103000D02*
X1380700Y1110200D01*
Y1161500*
X1344100Y1172400D02*
Y1168672D01*
X1352600Y1160172*
Y1122866*
X1362079Y1113387*
Y1084318*
X1465050Y1123211D02*
Y1120500D01*
X1466150Y1119400*
X1587200*
X1588500Y1118100*
Y1116633*
X1590611Y1114522*
X1465050Y1123211D02*
X1466000Y1124161D01*
X1457690Y1105179D02*
Y1131221D01*
X1465669Y1139200*
X1479032*
X1483132Y1135100*
X1587000*
X1588200Y1133900*
X1457690Y1105179D02*
X1462069Y1100800D01*
X1467200*
X1468600Y1099400*
X1459290Y1105842D02*
Y1130558D01*
X1466332Y1137600*
X1478369*
X1482469Y1133500*
X1585600*
X1459290Y1105842D02*
X1462732Y1102400D01*
X1467200*
X1468600Y1103800*
X1462500Y1124161D02*
X1463450Y1123211D01*
Y1119800*
X1465450Y1117800*
X1586500*
X1586900Y1117400*
X1588200Y1133900D02*
X1588500Y1133600D01*
Y1132381*
X1590611Y1130270*
X1585600Y1133500D02*
X1586338D01*
X1586900Y1132937*
X1585099Y1130270D02*
X1586900Y1132071D01*
Y1132937*
X1585099Y1114522D02*
X1586900Y1116323D01*
Y1117400*
X1606753Y1138144D02*
X1608600Y1139991D01*
Y1141100*
X1612265Y1138144D02*
X1612322Y1138201D01*
X1030479Y1212400D02*
Y1231617D01*
X1054953Y1256091*
X1060953*
X1062953Y1254091*
X1033100Y1225567D02*
Y1214700D01*
X1039800Y1208000*
Y1177300*
X1033100Y1225567D02*
X1045953Y1238420D01*
X1055255*
X1065453Y1248565*
Y1252091*
X1066040Y1224740D02*
Y1158448D01*
X1087900Y1136588*
Y1112007*
X1091307Y1108600*
X1115900*
X1132789Y1091711*
X1139615*
X1141615Y1093711*
X1066040Y1224740D02*
X1109900Y1268600D01*
Y1328500*
X1152400Y1371000*
X1206100*
X1223500Y1353600*
X1322600*
X1356700Y1319500*
X1405715*
X1407215Y1318000*
X1410300*
X1039000Y1213600D02*
Y1227138D01*
X1047453Y1235591*
X1056953*
X1068953Y1247591*
Y1256091*
X1047860Y1230550D02*
Y1161840D01*
X1050079Y1159621*
Y1055921*
X1062000Y1044000*
Y1030500*
X1080480Y1182400D02*
Y1168600D01*
X1146280Y1102800*
X1169590*
X1174790Y1097600*
X1177100*
X1153453Y1210447D02*
Y1235153D01*
X1162710Y1244410*
X1243010*
X1257100Y1258500*
X1304900*
X1319600Y1273200*
Y1284900*
X1323700Y1289000*
X1153453Y1210447D02*
X1161500Y1202400D01*
Y1157543*
X1170832Y1148212*
Y1128740*
X1178298Y1121274*
Y1116722*
X1151100Y1206500D02*
Y1237738D01*
X1160432Y1247070*
X1200570*
X1213700Y1260200*
X1303700*
X1315400Y1271900*
X1151100Y1206500D02*
X1158500Y1199100D01*
Y1154500*
X1167387Y1145613*
Y1122815*
X1174244Y1115958*
Y1111532*
X1136000Y1252000D02*
Y1134899D01*
X1145601Y1125298*
X1136000Y1252000D02*
X1141500Y1257500D01*
Y1341500*
X1163000Y1363000*
X1302900Y1223080D02*
Y1242700D01*
X1316400Y1256200*
X1333900*
X1302900Y1223080D02*
X1304180Y1221800D01*
X1304200*
X1314700Y1211300*
Y1207000*
X1322200Y1199500*
Y1186100*
X1325300Y1183000*
Y1168500*
X1326500Y1167300*
Y1163500*
X1320700Y1213900D02*
Y1229200D01*
X1333500Y1242000*
Y1252500*
X1320700Y1213900D02*
X1332200Y1202400D01*
Y1194500*
X1338250Y1188450*
Y1168900*
X1345700Y1161450*
Y1151600*
X1346900Y1150400*
Y1145900*
X1334400Y1195100D02*
Y1211400D01*
X1336600Y1213600*
X1334400Y1195100D02*
X1339850Y1189650D01*
Y1170000*
X1350900Y1158950*
Y1143000*
X1306700Y1244100D02*
Y1239600D01*
X1316600Y1229700*
Y1207850*
X1323800Y1200650*
Y1186800*
X1326900Y1183700*
Y1170900*
X1338900Y1158900*
X1306700Y1244100D02*
X1308300Y1245700D01*
X1321800*
X1323800Y1243700*
X1329600*
X1301300Y1243900D02*
Y1170000D01*
X1303400Y1167900*
X1301300Y1243900D02*
X1329700Y1272300D01*
X1332000Y1188650D02*
Y1185800D01*
X1333950Y1183850*
Y1170400*
X1344100Y1160250*
X1312050Y1210100D02*
X1312680Y1209470D01*
Y1173280*
X1308900Y1241600D02*
X1318800Y1231700D01*
Y1208850*
X1325400Y1202250*
Y1187800*
X1327450Y1185750*
X1329650*
X1332350Y1183050*
Y1169350*
X1342400Y1159300*
Y1143763*
X1366500Y1240700D02*
Y1249100D01*
X1366600Y1249200*
X1366500Y1240700D02*
X1369300Y1237900D01*
X1412000*
X1418850Y1231050*
Y1191350*
X1358850Y1211950D02*
Y1220480D01*
X1360900Y1222530*
X1358850Y1211950D02*
X1373950Y1196850D01*
Y1185350*
X1391800Y1167500*
Y1093300*
X1410100Y1075000*
X1414800*
X1363100Y1249600D02*
Y1239400D01*
X1365400Y1237100*
Y1217300*
X1363100Y1249600D02*
X1365500Y1252000D01*
X1384600*
X1387500Y1249100*
X1407300*
X1409600Y1251400*
X1415000*
X1355100Y1240100D02*
Y1234400D01*
X1358900Y1230600*
X1355100Y1240100D02*
X1361000Y1246000D01*
Y1255900*
X1366400Y1261300*
X1396900*
X1401800Y1256400*
X1414700*
Y1256600*
X1357250Y1223800D02*
Y1210370D01*
X1369620Y1198000*
Y1183170*
X1357250Y1223800D02*
X1358900Y1225450D01*
Y1230600*
X1352450Y1208350D02*
Y1241750D01*
X1358300Y1247600*
Y1251700*
X1352450Y1208350D02*
X1366990Y1193810D01*
Y1181860*
X1388400Y1160450*
Y1092200*
X1410600Y1070000*
X1415000*
X1350850Y1253950D02*
Y1207650D01*
X1355300Y1203200*
Y1197050*
X1364750Y1187600*
Y1181050*
X1384000Y1161800*
X1350850Y1253950D02*
X1356000Y1259100D01*
Y1289638*
X1361262Y1294900*
X1384500*
X1401700Y1277700*
X1417400*
X1344900Y1255400D02*
Y1208600D01*
X1353200Y1200300*
Y1196700*
X1361500Y1188400*
Y1180700*
X1380700Y1161500*
X1344900Y1255400D02*
X1353800Y1264300D01*
Y1290938*
X1359962Y1297100*
X1398900*
X1414500Y1281500*
X1358590Y1235750D02*
X1360900Y1233440D01*
Y1222530*
X1368900Y1245500D02*
X1385000D01*
X1390100Y1240400*
X1413000*
X1420787Y1232613*
Y1190287*
X1375670Y1218400D02*
X1382500D01*
X1404400Y1196500*
X1414500*
X1361700Y1217100D02*
Y1212900D01*
X1397100Y1177500*
Y1118600*
X1409700Y1106000*
X1414500*
X1368900Y1217100D02*
X1378300Y1226500D01*
X1415400*
X1376350Y1187200D02*
X1394500Y1169050D01*
Y1117600*
X1411100Y1101000*
X1415500*
X1482530Y1218710D02*
X1488580Y1224760D01*
Y1236630*
X1490000Y1187000D02*
Y1187260D01*
X1510950*
X1533080Y1209390*
X1499500Y1252700D02*
Y1247900D01*
X1503500Y1243900*
X1499500Y1252700D02*
X1501000Y1254200D01*
Y1272300*
X1573780Y1243190D02*
Y1241226D01*
X1581826Y1233180*
X1602537*
X1607347Y1228370*
X1558080Y1258370D02*
X1562430Y1254020D01*
Y1237340*
X1567990Y1231780*
X1598425*
X1601835Y1228370*
X1500162Y1229941D02*
X1503500Y1233279D01*
Y1243900*
X1501700Y1249000D02*
X1503700Y1251000D01*
X1500162Y1233090D02*
Y1235462D01*
X1501800Y1237100*
X1526300Y1240900D02*
X1528445Y1243045D01*
X1539888*
X1544136Y1238797*
Y1235245*
X1056740Y1317378D02*
Y1312803D01*
X1058364Y1311180*
X1061822*
X1063882Y1313240*
X1068900*
X1056740Y1317378D02*
X1061200Y1321838D01*
Y1351600*
X1060453Y1264591D02*
X1068953Y1256091D01*
X1059840Y1314070D02*
X1062840Y1317070D01*
Y1353203*
X1294300Y1315300D02*
Y1331500D01*
X1301300Y1338500*
X1307900*
X1309700Y1340300*
X1294300Y1315300D02*
X1304200Y1305400D01*
X1313200*
X1323700Y1294900*
Y1289000*
X1292100Y1310300D02*
Y1332500D01*
X1301600Y1342000*
X1306800*
X1292100Y1310300D02*
X1299300Y1303100D01*
X1310600*
X1315400Y1298300*
Y1271900*
X1288400Y1310200D02*
Y1333100D01*
X1297300Y1342000*
X1288400Y1310200D02*
X1297500Y1301100D01*
X1308000*
X1313400Y1295700*
Y1272600*
X1303200Y1326700D02*
Y1316614D01*
X1306846Y1312968*
X1345540*
X1349300Y1309208*
X1303200Y1326700D02*
X1305800Y1329300D01*
X1298600D02*
X1301200Y1326700D01*
Y1315786*
X1306715Y1310271*
X1344672*
X1347300Y1307643*
X1333100Y1288600D02*
X1333200Y1288500D01*
Y1279900*
X1339600Y1282014D02*
Y1198400D01*
X1350700Y1187300*
Y1173400*
X1363500Y1160600*
Y1129986*
X1370600Y1122886*
X1339600Y1282014D02*
X1347300Y1289714D01*
Y1307643*
X1341600Y1281186D02*
Y1199300D01*
X1352700Y1188200*
Y1174300*
X1365500Y1161500*
Y1130814*
X1372600Y1123714*
Y1117100*
X1373800Y1115900*
X1341600Y1281186D02*
X1349300Y1288886D01*
Y1309208*
X1362800Y1292500D02*
X1371500D01*
X1394800Y1269200*
X1415700*
X1432100Y1252800*
Y1196500*
X1361700Y1281700D02*
X1375900Y1267500D01*
X1413600*
X1428700Y1252400*
Y1195800*
X1576220Y1285340D02*
Y1248590D01*
X1583670Y1241140*
X1602057*
X1606953Y1236244*
X1576220Y1285340D02*
X1595060Y1304180D01*
Y1308928*
X1534390Y1315890D02*
Y1307280D01*
X1540900Y1300770*
X1534390Y1315890D02*
X1536500Y1318000D01*
X1519200Y1330400D02*
Y1305584D01*
X1531500Y1293284*
X1519200Y1330400D02*
X1523000Y1334200D01*
X1574180Y1285661D02*
Y1246750D01*
X1581450Y1239480*
X1598205*
X1601441Y1236244*
X1574180Y1285661D02*
X1592995Y1304476D01*
Y1306505*
X1542300Y1319200D02*
X1548834Y1312666D01*
X1591322*
X1595060Y1308928*
X1538440Y1275730D02*
X1540900Y1278190D01*
Y1300770*
X1515800Y1267000D02*
X1517800Y1265000D01*
X1528100*
X1531500Y1268400*
Y1293284*
X1538500Y1332300D02*
Y1329452D01*
X1539195Y1328757*
Y1313958*
X1542303Y1310850*
X1588650*
X1592995Y1306505*
X1025100Y1401700D02*
Y1357500D01*
X1027900Y1354700*
X1047300*
X1048600Y1353400*
X1025100Y1401700D02*
X1032200Y1408800D01*
X1206174*
X1234394Y1380580*
X1249120*
X1254700Y1375000*
X1307400*
X1307500Y1374900*
X1315100Y1382500*
X1346400*
X1371400Y1357500*
X1422900*
X1434300Y1346100*
X1516900*
X1520172Y1349372*
X1534128*
X1537000Y1346500*
X1027000Y1399900D02*
Y1358500D01*
X1029200Y1356300*
X1056500*
X1061200Y1351600*
X1027000Y1399900D02*
X1030200Y1403100D01*
X1047043*
X1049343Y1405400*
X1206921*
X1233606Y1378715*
X1247385*
X1252600Y1373500*
X1309000*
X1309010Y1373490*
X1312520Y1377000*
X1345000*
X1367900Y1354100*
X1407816*
X1429535Y1332381*
X1508570*
X1516189Y1340000*
X1537500*
X1028900Y1397800D02*
Y1360100D01*
X1031000Y1358000*
X1058044*
X1062840Y1353203*
X1028900Y1397800D02*
X1032000Y1400900D01*
X1058100*
X1060700Y1403500*
X1205726*
X1233776Y1375450*
X1247250*
X1250700Y1372000*
X1309500*
X1313000Y1375500*
X1342000*
X1372000Y1345500*
X1411329*
X1434042Y1322787*
X1502787*
X1518300Y1338300*
X1534960*
X1537570Y1335690*
X1023200Y1403000D02*
Y1356170D01*
X1031800Y1347570*
X1058490*
X1023200Y1403000D02*
X1032200Y1412000D01*
X1205900*
X1235400Y1382500*
X1251000*
X1256500Y1377000*
X1306416*
X1313876Y1384460*
X1349100*
X1374160Y1359400*
X1424300*
X1428900Y1354800*
X1533200*
X1538500Y1349500*
X1032200Y1397300D02*
X1039000Y1390500D01*
X1061700*
X1070700Y1381500*
X1212600*
X1234800Y1359300*
X1327600*
X1353800Y1333100*
X1405500*
X1433300Y1305300*
X1460300*
X1498000Y1267600*
Y1245400*
X1045800Y1397800D02*
X1057400D01*
X1059800Y1400200*
X1206021*
X1235721Y1370500*
X1339212*
X1365912Y1343800*
X1408900*
X1434600Y1318100*
X1461991*
X1490991Y1289100*
X1494500*
X1506200Y1277400*
Y1240000*
X1512400Y1233800*
X1036400Y1398000D02*
X1038800Y1395600D01*
X1180950*
X1192550Y1384000*
X1212600*
X1235500Y1361100*
X1333300*
X1358600Y1335800*
X1405700*
X1434200Y1307300*
X1466000*
X1501000Y1272300*
X1060800Y1398000D02*
Y1398200D01*
X1182950*
X1194650Y1386500*
X1216800*
X1234380Y1368920*
X1245780*
X1249700Y1365000*
X1337380*
X1360880Y1341500*
X1406700*
X1434600Y1313600*
X1462539*
X1503700Y1272439*
Y1251000*
X1034500Y1371000D02*
X1044500Y1361000D01*
X1111000*
X1125900Y1375900*
X1205664*
X1207084Y1377320*
X1214680*
X1234600Y1357400*
X1325700*
X1352100Y1331000*
X1404700*
X1432200Y1303500*
X1459260*
X1494900Y1267860*
Y1245022*
X1497122Y1242800*
X1499812*
X1501800Y1240811*
Y1237100*
X1031700Y1361600D02*
X1033800Y1359500D01*
X1112500*
X1126600Y1373600*
X1206400*
X1224400Y1355600*
X1324600*
X1351700Y1328500*
X1403700*
X1430700Y1301500*
X1458300*
X1493500Y1266300*
Y1243474*
X1496374Y1240600*
X1498900*
X1163000Y1363000D02*
X1209800D01*
X1223400Y1349400*
X1319600*
X1354500Y1314500*
X1402500*
X1235900Y1392050D02*
X1244994D01*
X1253049Y1383995*
X1275485*
X1279100Y1380380*
Y1380100*
X1203000Y1367000D02*
X1208000D01*
X1223500Y1351500*
X1321900*
X1356427Y1316974*
X1356453Y1317000*
X1400000*
X1181100Y1359500D02*
X1210400D01*
X1222500Y1347400*
X1318600*
X1354829Y1311171*
X1416947*
X1428818Y1299300*
X1457800*
X1489740Y1267360*
Y1264420*
X1220600Y1379300D02*
X1232700Y1367200D01*
X1244400*
X1248300Y1363300*
X1334300*
X1358400Y1339200*
X1404900*
X1434100Y1310000*
X1454700*
X1286200Y1342400D02*
X1291500D01*
X1293800Y1344700*
X1307900*
X1309700Y1342900*
Y1340300*
X1190600Y1746500D02*
X1428100D01*
Y1682172*
X1190600*
Y1746500*
X1538500Y1492000D02*
Y1484500D01*
X1543500Y1492000D02*
Y1484500D01*
X1548500Y1492000D02*
Y1484500D01*
X1553500Y1492000D02*
Y1484500D01*
X1558500Y1492000D02*
Y1484500D01*
X1563500Y1492000D02*
Y1484500D01*
X1568500Y1492000D02*
Y1484500D01*
X1573500Y1492000D02*
Y1484500D01*
X1533500Y1492000D02*
X1578500D01*
Y1484500*
X1533500*
Y1492000*
G54D87*
X1174600Y1100700D02*
Y1101887D01*
X1176249Y1103536*
X1177859*
X1179049Y1104726*
Y1113582*
X1186187Y1120720*
X1204649*
X1226125Y1142196*
X1298926*
X1301900Y1145170*
X1174600Y1100700D02*
X1175700Y1099600D01*
X1177787*
X1179787Y1097600*
X1181000*
X1214348Y1062808D02*
Y1049431D01*
X1216510Y1047269*
Y1040500*
X1240310Y1016700*
X1386847*
X1418039Y1047892*
X1431003*
X1443210Y1060099*
Y1168110*
X1462360Y1187260*
X1484170*
X1491810Y1194900*
X1515610*
X1532310Y1211600*
X1541666*
X1542966Y1212900*
X1553103*
X1555210Y1215007*
Y1269810*
X1590400Y1305000*
X1214348Y1062808D02*
X1216570Y1065030D01*
X1235375Y1061922D02*
X1239000Y1058297D01*
Y1044205*
X1244705Y1038500*
X1266200*
X1269800Y1042100*
X1235375Y1061922D02*
X1235378D01*
X1183022Y1100700D02*
Y1102372D01*
X1184150Y1103500*
X1185587*
X1186900Y1104813*
Y1106400*
X1188000Y1107500*
X1190200*
X1191500Y1108800*
X1227579*
X1239879Y1096500*
X1260500*
X1183022Y1100700D02*
X1184922Y1098800D01*
Y1097648*
X1179085Y1100715D02*
Y1102387D01*
X1180298Y1103600*
X1181900*
X1183000Y1104700*
Y1106287*
X1184213Y1107500*
X1185650*
X1186900Y1108750*
Y1110300*
X1188000Y1111400*
X1248000*
X1257000Y1102400*
Y1098500*
X1179085Y1100715D02*
X1180200Y1099600D01*
X1181700*
X1182900Y1098400*
Y1095626*
X1192774Y1070126D02*
X1216374D01*
X1225079Y1061421*
Y1044400*
X1242479Y1027000*
X1266500*
X1269100Y1029600*
X1277062*
X1279853Y1032391*
X1188859Y1089774D02*
X1189708D01*
X1191608Y1091674*
X1223376*
X1249629Y1065421*
Y1055576*
X1254079Y1051126*
X1184922Y1085837D02*
X1186885Y1087800D01*
X1188500*
X1188505Y1087796*
X1188596*
X1188600Y1087800*
X1223536*
X1246579Y1064757*
Y1048921*
X1248000Y1047500*
X1192774Y1074063D02*
X1216134D01*
X1228900Y1061297*
Y1044679*
X1242079Y1031500*
X1264500*
X1188837Y1070126D02*
X1190801Y1072090D01*
X1216410*
X1226579Y1061921*
Y1044900*
X1242979Y1028500*
X1265500*
X1268500Y1031500*
X1272000*
X1192774Y1078000D02*
X1215900D01*
X1233000Y1060900*
Y1046400*
X1244400Y1035000*
X1273453*
X1277955Y1039502*
Y1042538*
X1184900Y1070126D02*
X1186806Y1068220D01*
X1216280*
X1223579Y1060921*
Y1044000*
X1242579Y1025000*
X1266800*
X1270200Y1028400*
X1279799*
X1283790Y1032391*
X1184900Y1074063D02*
X1186877Y1076040D01*
X1189570*
X1190810Y1077280*
Y1078730*
X1192080Y1080000*
X1215600*
X1237500Y1058100*
Y1043705*
X1244705Y1036500*
X1270953*
X1275950Y1041497*
Y1043510*
X1277066Y1044626*
X1279815*
X1280680Y1043761*
Y1042440*
X1184922Y1093711D02*
X1186900Y1095689D01*
Y1102313*
X1188087Y1103500*
X1189700*
X1189928Y1103737*
X1190900Y1104710*
Y1106300*
X1192100Y1107500*
X1225205*
X1244005Y1088700*
X1250000*
X1253000Y1085700*
Y1083500*
X1192796Y1093711D02*
X1196579D01*
X1198868Y1096000*
X1202800*
X1205600Y1093200*
X1224505*
X1252453Y1065253*
X1252453D02*
X1252500Y1065300D01*
X1184922Y1089774D02*
X1186848Y1091700D01*
X1189535*
X1190800Y1092965*
Y1094402*
X1192098Y1095700*
X1195079*
X1197005Y1097626*
X1205000*
X1206926Y1095700*
X1225079*
X1254579Y1066200*
Y1059626*
X1188859Y1097648D02*
Y1098898D01*
X1193087Y1103126*
X1207100*
X1209326Y1100900*
X1226079*
X1261229Y1065750*
X1270650*
X1193100Y1097700D02*
Y1097600D01*
X1194800Y1099300*
X1205500*
X1207100Y1097700*
X1225079*
X1261779Y1061000*
X1268600*
X1216800Y1055500D02*
X1220000Y1052300D01*
Y1043100*
X1241100Y1022000*
X1267900*
X1270900Y1025000*
X1283000*
X1290650Y1032650*
X1398291*
X1416715Y1051074*
X1430776*
X1440810Y1061108*
Y1169580*
X1463790Y1192560*
X1486070*
X1490810Y1197300*
X1514610*
X1531510Y1214200*
X1534900*
X1552810Y1232110*
Y1278910*
X1578900Y1305000*
X1216750Y1050800D02*
X1218500Y1049050D01*
Y1042900*
X1240900Y1020500*
X1268800*
X1272000Y1023700*
X1285990*
X1289690Y1020000*
X1388176*
X1417842Y1049666*
X1431070*
X1442010Y1060606*
Y1168790*
X1461680Y1188460*
X1483670*
X1491310Y1196100*
X1515110*
X1531810Y1212800*
X1541130*
X1542430Y1214100*
X1551561*
X1554010Y1216549*
Y1272110*
X1586900Y1305000*
X1180900Y1062300D02*
X1196079D01*
X1211579Y1046800*
Y1043000*
X1239379Y1015200*
X1387653*
X1418576Y1046123*
X1430940*
X1444410Y1059593*
Y1147119*
X1447345Y1150054*
X1504034*
X1520020Y1166040*
X1218600Y1062800D02*
Y1058650D01*
X1221500Y1055750*
Y1043900*
X1241900Y1023500*
X1267700*
X1271400Y1027200*
X1281300*
X1287950Y1033850*
X1397351*
X1416095Y1052594*
X1430589*
X1439610Y1061615*
Y1170340*
X1469495Y1200225*
X1485990*
X1487715Y1198500*
X1513392*
X1525314Y1210422*
Y1214388*
X1530586Y1219660*
X1538663*
X1551610Y1232607*
Y1282452*
X1576946Y1307788*
X1580112*
X1582900Y1305000*
X1188837Y1078000D02*
Y1079910D01*
X1190427Y1081500*
X1215800*
X1235378Y1061922*
X1192800Y1085900D02*
X1222805D01*
X1245079Y1063626*
Y1046817*
X1246896Y1045000*
X1259160*
X1260160Y1044000*
X1266000*
X1184900Y1078000D02*
X1189600Y1082700D01*
X1216500*
X1241000Y1058200*
Y1044705*
X1245205Y1040500*
X1265374*
X1269000Y1044126*
X1272359*
X1273948Y1042538*
X1188859Y1085837D02*
X1190696Y1084000D01*
X1222079*
X1243000Y1063079*
Y1045705*
X1246205Y1042500*
X1254000*
X1188837Y1074063D02*
X1189683D01*
X1191650Y1076030*
X1216167*
X1231200Y1060997*
Y1044505*
X1242205Y1033500*
X1276721*
X1285759Y1042538*
X1180985Y1093711D02*
X1182900Y1095626D01*
X1188859Y1093711D02*
Y1094961D01*
X1190900Y1097002*
Y1098287*
X1193739Y1101126*
X1206600*
X1208426Y1099300*
X1225579*
X1261479Y1063400*
X1265800*
X1192796Y1089774D02*
X1223579D01*
X1248079Y1065274*
Y1054126*
X1254079Y1048126*
X1270600Y1065700D02*
X1270650Y1065750D01*
X1358000Y1069500D02*
X1360000Y1067500D01*
X1416200*
X1427700Y1079000*
Y1188400*
X1476100Y1236800*
Y1266170*
X1481390Y1271460*
X1165790Y1166770D02*
X1167640D01*
X1172235Y1171365*
X1180985Y1105522D02*
Y1112146D01*
X1185965Y1117126*
X1196874*
X1198900Y1115100*
X1250100*
X1272700Y1092500*
X1290205*
X1300405Y1082300*
X1317405*
X1320579Y1079126*
X1331579*
X1346579Y1064126*
X1405200*
X1406700Y1065626*
X1417291*
X1429079Y1077414*
Y1186676*
X1457713Y1215310*
X1482038*
X1489378Y1222650*
X1499045*
X1508095Y1231700*
X1522674*
X1524079Y1233105*
Y1236800*
X1525179Y1237900*
X1531500*
X1533774Y1235626*
X1540426*
X1541900Y1237100*
X1184922Y1109459D02*
Y1110364D01*
X1189854Y1115296*
X1195600*
X1197096Y1113800*
X1249700*
X1272800Y1090700*
X1289505*
X1299405Y1080800*
X1315100*
X1319274Y1076626*
X1327079*
X1342079Y1061626*
X1409374*
X1410800Y1060200*
X1415000*
X1431000Y1076200*
Y1185938*
X1459126Y1214065*
X1482490*
X1489870Y1221444*
X1499601*
X1508655Y1230498*
X1525398*
X1526600Y1231700*
X1330600Y1156000D02*
Y1145300D01*
X1334000Y1141900*
Y1134200*
X1330600Y1156000D02*
X1334200Y1159600D01*
X1328500Y1143900D02*
Y1160500D01*
X1331200Y1163200*
X1328500Y1143900D02*
X1331500Y1140900D01*
Y1137300*
X1300200Y1158700D02*
X1301900Y1157000D01*
Y1145170*
X1030479Y1212400D02*
X1034100Y1208779D01*
Y1198300*
X1068100Y1203000D02*
Y1168400D01*
X1136817Y1099683*
X1142273*
X1150156Y1091800*
X1173772*
X1177048Y1088524*
Y1085837*
X1068100Y1203000D02*
X1069600Y1204500D01*
X1068495Y1212605D02*
Y1223125D01*
X1114800Y1269430*
Y1330300*
X1151500Y1367000*
X1203000*
X1203000*
X1068495Y1212605D02*
X1076000Y1205100D01*
Y1163263*
X1137678Y1101585*
X1070470Y1220290D02*
X1078120Y1212640D01*
Y1168700*
X1145662Y1101158*
X1154017*
X1157375Y1097800*
X1162100Y1208800D02*
Y1218900D01*
X1166700Y1223500*
X1162100Y1208800D02*
X1166070Y1204830D01*
Y1171130*
X1166450Y1219030D02*
X1169800Y1215680D01*
Y1202508*
X1172235Y1200073*
Y1171365*
X1516100Y1237900D02*
X1517911Y1239711D01*
Y1246789*
X1496300Y1294200D02*
Y1291734D01*
X1510634Y1277400*
X1522200*
X1509100Y1268738D02*
Y1242200D01*
X1515500Y1235800*
X1518300*
X1518600Y1236100*
X1509100Y1268738D02*
X1512462Y1272100D01*
X1524010*
X1525940Y1274030*
X1507900Y1270200D02*
Y1241700D01*
X1515700Y1233900*
X1521400*
X1507900Y1270200D02*
X1512000Y1274300D01*
X1523060*
X1525940Y1277180*
X1510300Y1266938D02*
Y1254400D01*
X1517911Y1246789*
X1510300Y1266938D02*
X1512462Y1269100D01*
X1518600*
X1519969Y1267731*
X1525940*
Y1274030D02*
X1527840Y1275930D01*
X1505600Y1298800D02*
X1510600D01*
X1527840Y1281560*
Y1275930*
X1499600Y1291900D02*
Y1291730D01*
X1514900*
X1525940Y1280690*
Y1277180*
Y1267731D02*
X1529500Y1271291D01*
X1501700Y1300700D02*
X1512100D01*
X1529500Y1283300*
Y1271291*
G54D88*
X1139000Y1447500D02*
Y1457500D01*
G54D90*
X1268300Y1295500D02*
X1273129D01*
X1277400Y1291229*
Y1280607*
X1281507Y1276500*
X1285600*
G54D91*
X1269579Y1053126D02*
X1274094D01*
X1279770Y1047450*
X1285040*
X1285050Y1047460*
X1291200*
X1296407Y1042253*
X1313253*
X1326370Y1055370*
X1422780*
X1437960Y1070550*
Y1172000*
X1468720Y1202760*
X1514601*
X1523326Y1211485*
Y1216436*
X1528200Y1221310*
X1537110*
X1546900Y1231100*
Y1249300*
X1526900Y1334300D02*
X1531000Y1330200D01*
Y1306350*
X1534800Y1302550*
Y1261400*
X1546900Y1249300*
G54D97*
X1062000Y1030500D03*
X1143000Y1038500D03*
X1269579Y1053126D03*
X1414800Y1075000D03*
X1415500Y1101000D03*
X1415000Y1070000D03*
X1358000Y1069500D03*
Y1084500D03*
X1501000Y1060500D03*
X1536000Y1058500D03*
X1501000Y1096500D03*
X1510000Y1095000D03*
X1532500D03*
X1510000Y1057500D03*
X1039800Y1177300D03*
X1326500Y1163500D03*
X1338700Y1117200D03*
X1298079Y1150626D03*
X1299000Y1125000D03*
X1288079Y1120126D03*
X1322350Y1172850D03*
X1290500Y1124000D03*
X1333500Y1113000D03*
X1317100Y1131200D03*
X1337200Y1138500D03*
X1299000Y1137500D03*
X1297579Y1146626D03*
X1334200Y1159600D03*
X1334000Y1134200D03*
X1331200Y1163200D03*
X1331500Y1137300D03*
X1290579Y1116626D03*
X1414600Y1136500D03*
X1414900Y1166500D03*
X1346900Y1145900D03*
X1414500Y1161500D03*
Y1106000D03*
X1369400Y1115300D03*
X1344800Y1136900D03*
X1414500Y1132500D03*
X1373800Y1115900D03*
X1344100Y1172400D03*
X1520020Y1166040D03*
X1039000Y1213600D03*
X1034100Y1198300D03*
X1080480Y1182400D03*
X1333900Y1256200D03*
X1333500Y1252500D03*
X1332000Y1188650D03*
X1312050Y1210100D03*
X1317500Y1199500D03*
X1336600Y1213600D03*
X1329600Y1243700D03*
X1366600Y1249200D03*
X1358590Y1235750D03*
X1368900Y1245500D03*
X1414500Y1196500D03*
X1375670Y1218400D03*
X1361700Y1217100D03*
X1415400Y1226500D03*
X1368900Y1217100D03*
X1415000Y1251400D03*
X1365400Y1217300D03*
X1414700Y1256600D03*
X1369620Y1183170D03*
X1376350Y1187200D03*
X1358300Y1251700D03*
X1498000Y1245400D03*
X1573780Y1243190D03*
X1558080Y1258370D03*
X1533080Y1209390D03*
X1512400Y1233800D03*
X1500162Y1229941D03*
X1501700Y1249000D03*
X1500162Y1233090D03*
X1498900Y1240600D03*
X1526300Y1240900D03*
X1068900Y1313240D03*
X1059840Y1314070D03*
X1308400Y1296100D03*
X1297200Y1297900D03*
X1286800Y1297800D03*
X1298600Y1329300D03*
X1333100Y1288600D03*
X1268300Y1295500D03*
X1329700Y1272300D03*
X1322600Y1280100D03*
X1305800Y1329300D03*
X1362800Y1292500D03*
X1410300Y1318000D03*
X1400000Y1317000D03*
X1361700Y1281700D03*
X1417400Y1277700D03*
X1414500Y1281500D03*
X1402500Y1314500D03*
X1489740Y1264420D03*
X1454700Y1310000D03*
X1537500Y1340000D03*
X1542300Y1319200D03*
X1536500Y1318000D03*
X1538440Y1275730D03*
X1537570Y1335690D03*
X1515800Y1267000D03*
X1578900Y1305000D03*
X1586900D03*
X1590400D03*
X1582900D03*
X1048600Y1353400D03*
X1032200Y1397300D03*
X1045800Y1397800D03*
X1036400Y1398000D03*
X1060800D03*
X1034500Y1371000D03*
X1031700Y1361600D03*
X1235900Y1392050D03*
X1203000Y1367000D03*
X1181100Y1359500D03*
X1220600Y1379300D03*
X1279100Y1380100D03*
X1286200Y1342400D03*
X1306800Y1342000D03*
X1297300D03*
X1537000Y1346500D03*
X1538500Y1349500D03*
X1572500Y1405000D03*
X1575000Y1407500D03*
X1577500Y1405000D03*
X1587500D03*
X1595000Y1407500D03*
X1592500Y1405000D03*
X1582500D03*
X1585000Y1407500D03*
X1590000D03*
X1580000D03*
X1366000Y1457800D03*
X1373800Y1449000D03*
X1357800D03*
X1572500Y1427500D03*
X1577500D03*
X1575000Y1430000D03*
X1582500Y1427500D03*
X1580000Y1430000D03*
X1585000D03*
X1590000D03*
X1595000D03*
X1592500Y1427500D03*
X1587500D03*
G54D103*
X1541100Y1081000D02*
G03X1541100I-1600J0D01*
G01X1511600Y1072000D02*
G03X1511600I-1600J0D01*
G01X1595260Y1333830D02*
G03X1595260I-1800J0D01*
G01X1584280Y1333940D02*
G03X1584280I-1800J0D01*
G01X1541000Y1369400D02*
G03X1541000I-1600J0D01*
G01X1530900Y1380200D02*
G03X1530900I-1800J0D01*
G01X1521130Y1379000D02*
G03X1521130I-1800J0D01*
G01X1511400Y1415600D02*
G03X1511400I-1800J0D01*
G01Y1421200D02*
G03X1511400I-1800J0D01*
G01Y1427000D02*
G03X1511400I-1800J0D01*
G01X1499600Y1395900D02*
G03X1499600I-1600J0D01*
G01X1499500Y1441600D02*
G03X1499500I-1600J0D01*
G01X1483300Y1396000D02*
G03X1483300I-1800J0D01*
G01X1484100Y1401700D02*
G03X1484100I-1600J0D01*
G01X1484300Y1417400D02*
G03X1484300I-1800J0D01*
G01X1483600Y1432800D02*
G03X1483600I-1600J0D01*
G01X1477100Y1385000D02*
G03X1477100I-1600J0D01*
G01X1479400Y1423000D02*
G03X1479400I-1800J0D01*
G01X1472600Y1401300D02*
G03X1472600I-1500J0D01*
G01X1474300Y1412500D02*
G03X1474300I-1800J0D01*
G01X1473900Y1429100D02*
G03X1473900I-1600J0D01*
G01X1475800Y1436600D02*
G03X1475800I-1500J0D01*
G01X1475900Y1442500D02*
G03X1475900I-1600J0D01*
G01X1467500Y1412000D02*
G03X1467500I-1500J0D01*
G01X1467400Y1417300D02*
G03X1467400I-1600J0D01*
G01X1468000Y1429500D02*
G03X1468000I-1500J0D01*
G01X1464000Y1411500D02*
G03X1464000I-1500J0D01*
G01X1462800Y1417500D02*
G03X1462800I-1800J0D01*
G01X1465200Y1431200D02*
G03X1465200I-1600J0D01*
G01X1456000Y1430800D02*
G03X1456000I-1600J0D01*
G01X1452700Y1418100D02*
G03X1452700I-1800J0D01*
G01X1448100Y1403500D02*
G03X1448100I-1600J0D01*
G01X1423000Y1407000D02*
G03X1423000I-1800J0D01*
G01X1423200Y1433300D02*
G03X1423200I-1800J0D01*
G01X1412400Y1381100D02*
G03X1412400I-1500J0D01*
G01X1415700Y1386200D02*
G03X1415700I-1800J0D01*
G01X1411800Y1396000D02*
G03X1411800I-1800J0D01*
G01X1412200Y1403800D02*
G03X1412200I-1800J0D01*
G01X1415300Y1434600D02*
G03X1415300I-1800J0D01*
G01X1418100Y1448000D02*
G03X1418100I-1600J0D01*
G01X1411100Y1435900D02*
G03X1411100I-1800J0D01*
G01X1393800Y1440700D02*
G03X1393800I-1800J0D01*
G01X1389100Y1376900D02*
G03X1389100I-1600J0D01*
G01X1384400Y1441000D02*
G03X1384400I-1800J0D01*
G01X1375800Y1432000D02*
G03X1375800I-1800J0D01*
G01X1367700Y1424400D02*
G03X1367700I-1800J0D01*
G01X1360200Y1432100D02*
G03X1360200I-1800J0D01*
G01X1543500Y1055604D02*
Y1094646D01*
X1537396Y1100750*
X1501604*
X1495812Y1094959*
X1495812D02*
Y1054666D01*
X1495812D02*
X1498104Y1052375D01*
X1540271*
X1543500Y1055604*
X1597250Y1419204D02*
Y1431016D01*
X1595797Y1432470*
X1571704*
X1570250Y1431016*
Y1419204*
X1571704Y1417750*
X1595797*
X1597250Y1419204*
X1631432Y1251180D02*
X1632285Y1252033D01*
Y1360536*
X1632031Y1361151*
X1627419Y1365763*
X1626804Y1366018*
X1581365*
X1580566Y1366349*
X1556457Y1390457*
X1536965Y1409949*
X1536634Y1410748*
Y1437036*
X1536379Y1437651*
X1524079Y1449951*
X1523458Y1450331*
X1476061*
X1473339D02*
G03X1476061I1361J-631D01*
G01X1473339D02*
X1422208D01*
X1397060Y1464611*
X1353925*
X1350453Y1461619*
X1350500Y1403214*
X1350755Y1402599*
X1381599Y1371755*
X1382214Y1371500*
X1508271*
X1514328D02*
G03X1508271I-3029J3461D01*
G01X1514328D02*
X1522636D01*
X1523435Y1371169*
X1538264Y1356339*
X1540110Y1354494D02*
G03X1538264Y1356339I-1800J46D01*
G01X1540110Y1354494D02*
X1565724Y1328880D01*
X1566339Y1328625*
X1594136*
X1594935Y1328294*
X1603615Y1319614*
X1605857Y1317372*
X1606188Y1316573*
Y1292365*
X1605857Y1291566*
X1595154Y1280862*
X1594355Y1280531*
X1581964*
X1581349Y1280276*
X1578870Y1277797*
Y1254843*
X1582279Y1251435*
X1582894Y1251180*
X1631432*
X1541100Y1081000D02*
G03X1541100I-1600J0D01*
G01X1511600Y1072000D02*
G03X1511600I-1600J0D01*
G01X1595260Y1333830D02*
G03X1595260I-1800J0D01*
G01X1584280Y1333940D02*
G03X1584280I-1800J0D01*
G01X1541000Y1369400D02*
G03X1541000I-1600J0D01*
G01X1530900Y1380200D02*
G03X1530900I-1800J0D01*
G01X1521130Y1379000D02*
G03X1521130I-1800J0D01*
G01X1511400Y1415600D02*
G03X1511400I-1800J0D01*
G01Y1421200D02*
G03X1511400I-1800J0D01*
G01Y1427000D02*
G03X1511400I-1800J0D01*
G01X1499600Y1395900D02*
G03X1499600I-1600J0D01*
G01X1499500Y1441600D02*
G03X1499500I-1600J0D01*
G01X1483300Y1396000D02*
G03X1483300I-1800J0D01*
G01X1484100Y1401700D02*
G03X1484100I-1600J0D01*
G01X1484300Y1417400D02*
G03X1484300I-1800J0D01*
G01X1483600Y1432800D02*
G03X1483600I-1600J0D01*
G01X1477100Y1385000D02*
G03X1477100I-1600J0D01*
G01X1479400Y1423000D02*
G03X1479400I-1800J0D01*
G01X1472600Y1401300D02*
G03X1472600I-1500J0D01*
G01X1474300Y1412500D02*
G03X1474300I-1800J0D01*
G01X1473900Y1429100D02*
G03X1473900I-1600J0D01*
G01X1475800Y1436600D02*
G03X1475800I-1500J0D01*
G01X1475900Y1442500D02*
G03X1475900I-1600J0D01*
G01X1467500Y1412000D02*
G03X1467500I-1500J0D01*
G01X1467400Y1417300D02*
G03X1467400I-1600J0D01*
G01X1468000Y1429500D02*
G03X1468000I-1500J0D01*
G01X1464000Y1411500D02*
G03X1464000I-1500J0D01*
G01X1462800Y1417500D02*
G03X1462800I-1800J0D01*
G01X1465200Y1431200D02*
G03X1465200I-1600J0D01*
G01X1456000Y1430800D02*
G03X1456000I-1600J0D01*
G01X1452700Y1418100D02*
G03X1452700I-1800J0D01*
G01X1448100Y1403500D02*
G03X1448100I-1600J0D01*
G01X1423000Y1407000D02*
G03X1423000I-1800J0D01*
G01X1423200Y1433300D02*
G03X1423200I-1800J0D01*
G01X1412400Y1381100D02*
G03X1412400I-1500J0D01*
G01X1415700Y1386200D02*
G03X1415700I-1800J0D01*
G01X1411800Y1396000D02*
G03X1411800I-1800J0D01*
G01X1412200Y1403800D02*
G03X1412200I-1800J0D01*
G01X1415300Y1434600D02*
G03X1415300I-1800J0D01*
G01X1418100Y1448000D02*
G03X1418100I-1600J0D01*
G01X1411100Y1435900D02*
G03X1411100I-1800J0D01*
G01X1393800Y1440700D02*
G03X1393800I-1800J0D01*
G01X1389100Y1376900D02*
G03X1389100I-1600J0D01*
G01X1384400Y1441000D02*
G03X1384400I-1800J0D01*
G01X1375800Y1432000D02*
G03X1375800I-1800J0D01*
G01X1367700Y1424400D02*
G03X1367700I-1800J0D01*
G01X1360200Y1432100D02*
G03X1360200I-1800J0D01*
G01X1495812Y1094224D02*
X1543500D01*
X1495812Y1093774D02*
X1543500D01*
X1495812Y1093324D02*
X1543500D01*
X1495812Y1092874D02*
X1543500D01*
X1495812Y1092424D02*
X1543500D01*
X1495812Y1091974D02*
X1543500D01*
X1495812Y1091524D02*
X1543500D01*
X1495812Y1091074D02*
X1543500D01*
X1495812Y1090624D02*
X1543500D01*
X1495812Y1090174D02*
X1543500D01*
X1495812Y1089724D02*
X1543500D01*
X1495812Y1089274D02*
X1543500D01*
X1495812Y1088824D02*
X1543500D01*
X1495812Y1088374D02*
X1543500D01*
X1495812Y1087924D02*
X1543500D01*
X1495812Y1087474D02*
X1543500D01*
X1495812Y1087024D02*
X1543500D01*
X1495812Y1086574D02*
X1543500D01*
X1495812Y1086124D02*
X1543500D01*
X1495812Y1085674D02*
X1543500D01*
X1495812Y1085224D02*
X1543500D01*
X1495812Y1084774D02*
X1543500D01*
X1495812Y1084324D02*
X1543500D01*
X1495812Y1083874D02*
X1543500D01*
X1495812Y1083424D02*
X1543500D01*
X1495812Y1082974D02*
X1543500D01*
X1539988Y1082524D02*
X1543500D01*
X1540686Y1082074D02*
X1543500D01*
X1540973Y1081624D02*
X1543500D01*
X1541091Y1081174D02*
X1543500D01*
X1541076Y1080724D02*
X1543500D01*
X1540926Y1080274D02*
X1543500D01*
X1540585Y1079824D02*
X1543500D01*
X1495812Y1079374D02*
X1543500D01*
X1495812Y1078924D02*
X1543500D01*
X1495812Y1078474D02*
X1543500D01*
X1495812Y1078024D02*
X1543500D01*
X1495812Y1077574D02*
X1543500D01*
X1495812Y1077124D02*
X1543500D01*
X1495812Y1076674D02*
X1543500D01*
X1495812Y1076224D02*
X1543500D01*
X1495812Y1075774D02*
X1543500D01*
X1495812Y1075324D02*
X1543500D01*
X1495812Y1074874D02*
X1543500D01*
X1495812Y1074424D02*
X1543500D01*
X1495812Y1073974D02*
X1543500D01*
X1510488Y1073524D02*
X1543500D01*
X1511186Y1073074D02*
X1543500D01*
X1511473Y1072624D02*
X1543500D01*
X1511591Y1072174D02*
X1543500D01*
X1511576Y1071724D02*
X1543500D01*
X1511426Y1071274D02*
X1543500D01*
X1511085Y1070824D02*
X1543500D01*
X1495812Y1070374D02*
X1543500D01*
X1495812Y1069924D02*
X1543500D01*
X1495812Y1069474D02*
X1543500D01*
X1495812Y1069024D02*
X1543500D01*
X1495812Y1068574D02*
X1543500D01*
X1495812Y1068124D02*
X1543500D01*
X1495812Y1067674D02*
X1543500D01*
X1495812Y1067224D02*
X1543500D01*
X1495812Y1066774D02*
X1543500D01*
X1495812Y1066324D02*
X1543500D01*
X1495812Y1065874D02*
X1543500D01*
X1495812Y1065424D02*
X1543500D01*
X1495812Y1064974D02*
X1543500D01*
X1495812Y1064524D02*
X1543500D01*
X1495812Y1064074D02*
X1543500D01*
X1495812Y1063624D02*
X1543500D01*
X1495812Y1063174D02*
X1543500D01*
X1495812Y1062724D02*
X1543500D01*
X1495812Y1062274D02*
X1543500D01*
X1495812Y1061824D02*
X1543500D01*
X1495812Y1061374D02*
X1543500D01*
X1495812Y1060924D02*
X1543500D01*
X1495812Y1060474D02*
X1543500D01*
X1495812Y1060024D02*
X1543500D01*
X1495812Y1059574D02*
X1543500D01*
X1495812Y1059124D02*
X1543500D01*
X1495812Y1058674D02*
X1543500D01*
X1495812Y1058224D02*
X1543500D01*
X1495812Y1057774D02*
X1543500D01*
X1495812Y1057324D02*
X1543500D01*
X1495812Y1056874D02*
X1543500D01*
X1495812Y1056424D02*
X1543500D01*
X1495812Y1055974D02*
X1543500D01*
X1495812Y1094674D02*
X1543473D01*
X1495812Y1055524D02*
X1543420D01*
X1495977Y1095124D02*
X1543023D01*
X1495812Y1055074D02*
X1542970D01*
X1496427Y1095574D02*
X1542573D01*
X1495855Y1054624D02*
X1542520D01*
X1496877Y1096024D02*
X1542123D01*
X1496305Y1054174D02*
X1542070D01*
X1497327Y1096474D02*
X1541673D01*
X1496755Y1053724D02*
X1541620D01*
X1497777Y1096924D02*
X1541223D01*
X1497205Y1053274D02*
X1541170D01*
X1498227Y1097374D02*
X1540773D01*
X1497655Y1052824D02*
X1540720D01*
X1498677Y1097824D02*
X1540323D01*
X1499127Y1098274D02*
X1539873D01*
X1499577Y1098724D02*
X1539423D01*
X1495812Y1082524D02*
X1539012D01*
X1500027Y1099174D02*
X1538973D01*
X1500477Y1099624D02*
X1538523D01*
X1495812Y1079824D02*
X1538415D01*
X1495812Y1082074D02*
X1538314D01*
X1495812Y1080274D02*
X1538074D01*
X1500927Y1100074D02*
X1538073D01*
X1495812Y1081624D02*
X1538027D01*
X1495812Y1080724D02*
X1537924D01*
X1495812Y1081174D02*
X1537909D01*
X1501377Y1100524D02*
X1537623D01*
X1495812Y1073524D02*
X1509512D01*
X1495812Y1070824D02*
X1508915D01*
X1495812Y1073074D02*
X1508814D01*
X1495812Y1071274D02*
X1508574D01*
X1495812Y1072624D02*
X1508527D01*
X1495812Y1071724D02*
X1508424D01*
X1495812Y1072174D02*
X1508409D01*
X1570250Y1430799D02*
X1597250D01*
X1570250Y1430349D02*
X1597250D01*
X1570250Y1429899D02*
X1597250D01*
X1570250Y1429449D02*
X1597250D01*
X1570250Y1428999D02*
X1597250D01*
X1570250Y1428549D02*
X1597250D01*
X1570250Y1428099D02*
X1597250D01*
X1570250Y1427649D02*
X1597250D01*
X1570250Y1427199D02*
X1597250D01*
X1570250Y1426749D02*
X1597250D01*
X1570250Y1426299D02*
X1597250D01*
X1570250Y1425849D02*
X1597250D01*
X1570250Y1425399D02*
X1597250D01*
X1570250Y1424949D02*
X1597250D01*
X1570250Y1424499D02*
X1597250D01*
X1570250Y1424049D02*
X1597250D01*
X1570250Y1423599D02*
X1597250D01*
X1570250Y1423149D02*
X1597250D01*
X1570250Y1422699D02*
X1597250D01*
X1570250Y1422249D02*
X1597250D01*
X1570250Y1421799D02*
X1597250D01*
X1570250Y1421349D02*
X1597250D01*
X1570250Y1420899D02*
X1597250D01*
X1570250Y1420449D02*
X1597250D01*
X1570250Y1419999D02*
X1597250D01*
X1570250Y1419549D02*
X1597250D01*
X1570355Y1419099D02*
X1597145D01*
X1570482Y1431249D02*
X1597018D01*
X1570805Y1418649D02*
X1596695D01*
X1570932Y1431699D02*
X1596568D01*
X1571255Y1418199D02*
X1596245D01*
X1571382Y1432149D02*
X1596118D01*
X1581635Y1252078D02*
X1632285D01*
X1581185Y1252528D02*
X1632285D01*
X1580735Y1252978D02*
X1632285D01*
X1580285Y1253428D02*
X1632285D01*
X1579835Y1253878D02*
X1632285D01*
X1579385Y1254328D02*
X1632285D01*
X1578935Y1254778D02*
X1632285D01*
X1578870Y1255228D02*
X1632285D01*
X1578870Y1255678D02*
X1632285D01*
X1578870Y1256128D02*
X1632285D01*
X1578870Y1256578D02*
X1632285D01*
X1578870Y1257028D02*
X1632285D01*
X1578870Y1257478D02*
X1632285D01*
X1578870Y1257928D02*
X1632285D01*
X1578870Y1258378D02*
X1632285D01*
X1578870Y1258828D02*
X1632285D01*
X1578870Y1259278D02*
X1632285D01*
X1578870Y1259728D02*
X1632285D01*
X1578870Y1260178D02*
X1632285D01*
X1578870Y1260628D02*
X1632285D01*
X1578870Y1261078D02*
X1632285D01*
X1578870Y1261528D02*
X1632285D01*
X1578870Y1261978D02*
X1632285D01*
X1578870Y1262428D02*
X1632285D01*
X1578870Y1262878D02*
X1632285D01*
X1578870Y1263328D02*
X1632285D01*
X1578870Y1263778D02*
X1632285D01*
X1578870Y1264228D02*
X1632285D01*
X1578870Y1264678D02*
X1632285D01*
X1578870Y1265128D02*
X1632285D01*
X1578870Y1265578D02*
X1632285D01*
X1578870Y1266028D02*
X1632285D01*
X1578870Y1266478D02*
X1632285D01*
X1578870Y1266928D02*
X1632285D01*
X1578870Y1267378D02*
X1632285D01*
X1578870Y1267828D02*
X1632285D01*
X1578870Y1268278D02*
X1632285D01*
X1578870Y1268728D02*
X1632285D01*
X1578870Y1269178D02*
X1632285D01*
X1578870Y1269628D02*
X1632285D01*
X1578870Y1270078D02*
X1632285D01*
X1578870Y1270528D02*
X1632285D01*
X1578870Y1270978D02*
X1632285D01*
X1578870Y1271428D02*
X1632285D01*
X1578870Y1271878D02*
X1632285D01*
X1578870Y1272328D02*
X1632285D01*
X1578870Y1272778D02*
X1632285D01*
X1578870Y1273228D02*
X1632285D01*
X1578870Y1273678D02*
X1632285D01*
X1578870Y1274128D02*
X1632285D01*
X1578870Y1274578D02*
X1632285D01*
X1578870Y1275028D02*
X1632285D01*
X1578870Y1275478D02*
X1632285D01*
X1578870Y1275928D02*
X1632285D01*
X1578870Y1276378D02*
X1632285D01*
X1578870Y1276828D02*
X1632285D01*
X1578870Y1277278D02*
X1632285D01*
X1578870Y1277728D02*
X1632285D01*
X1579251Y1278178D02*
X1632285D01*
X1579701Y1278628D02*
X1632285D01*
X1580151Y1279078D02*
X1632285D01*
X1580601Y1279528D02*
X1632285D01*
X1581051Y1279978D02*
X1632285D01*
X1581716Y1280428D02*
X1632285D01*
X1595170Y1280878D02*
X1632285D01*
X1595620Y1281328D02*
X1632285D01*
X1596070Y1281778D02*
X1632285D01*
X1596520Y1282228D02*
X1632285D01*
X1596970Y1282678D02*
X1632285D01*
X1597420Y1283128D02*
X1632285D01*
X1597870Y1283578D02*
X1632285D01*
X1598320Y1284028D02*
X1632285D01*
X1598770Y1284478D02*
X1632285D01*
X1599220Y1284928D02*
X1632285D01*
X1599670Y1285378D02*
X1632285D01*
X1600120Y1285828D02*
X1632285D01*
X1600570Y1286278D02*
X1632285D01*
X1601020Y1286728D02*
X1632285D01*
X1601470Y1287178D02*
X1632285D01*
X1601920Y1287628D02*
X1632285D01*
X1602370Y1288078D02*
X1632285D01*
X1602820Y1288528D02*
X1632285D01*
X1603270Y1288978D02*
X1632285D01*
X1603720Y1289428D02*
X1632285D01*
X1604170Y1289878D02*
X1632285D01*
X1604620Y1290328D02*
X1632285D01*
X1605070Y1290778D02*
X1632285D01*
X1605520Y1291228D02*
X1632285D01*
X1605904Y1291678D02*
X1632285D01*
X1606090Y1292128D02*
X1632285D01*
X1606188Y1292578D02*
X1632285D01*
X1606188Y1293028D02*
X1632285D01*
X1606188Y1293478D02*
X1632285D01*
X1606188Y1293928D02*
X1632285D01*
X1606188Y1294378D02*
X1632285D01*
X1606188Y1294828D02*
X1632285D01*
X1606188Y1295278D02*
X1632285D01*
X1606188Y1295728D02*
X1632285D01*
X1606188Y1296178D02*
X1632285D01*
X1606188Y1296628D02*
X1632285D01*
X1606188Y1297078D02*
X1632285D01*
X1606188Y1297528D02*
X1632285D01*
X1606188Y1297978D02*
X1632285D01*
X1606188Y1298428D02*
X1632285D01*
X1606188Y1298878D02*
X1632285D01*
X1606188Y1299328D02*
X1632285D01*
X1606188Y1299778D02*
X1632285D01*
X1606188Y1300228D02*
X1632285D01*
X1606188Y1300678D02*
X1632285D01*
X1606188Y1301128D02*
X1632285D01*
X1606188Y1301578D02*
X1632285D01*
X1606188Y1302028D02*
X1632285D01*
X1606188Y1302478D02*
X1632285D01*
X1606188Y1302928D02*
X1632285D01*
X1606188Y1303378D02*
X1632285D01*
X1606188Y1303828D02*
X1632285D01*
X1606188Y1304278D02*
X1632285D01*
X1606188Y1304728D02*
X1632285D01*
X1606188Y1305178D02*
X1632285D01*
X1606188Y1305628D02*
X1632285D01*
X1606188Y1306078D02*
X1632285D01*
X1606188Y1306528D02*
X1632285D01*
X1606188Y1306978D02*
X1632285D01*
X1606188Y1307428D02*
X1632285D01*
X1606188Y1307878D02*
X1632285D01*
X1606188Y1308328D02*
X1632285D01*
X1606188Y1308778D02*
X1632285D01*
X1606188Y1309228D02*
X1632285D01*
X1606188Y1309678D02*
X1632285D01*
X1606188Y1310128D02*
X1632285D01*
X1606188Y1310578D02*
X1632285D01*
X1606188Y1311028D02*
X1632285D01*
X1606188Y1311478D02*
X1632285D01*
X1606188Y1311928D02*
X1632285D01*
X1606188Y1312378D02*
X1632285D01*
X1606188Y1312828D02*
X1632285D01*
X1606188Y1313278D02*
X1632285D01*
X1606188Y1313728D02*
X1632285D01*
X1606188Y1314178D02*
X1632285D01*
X1606188Y1314628D02*
X1632285D01*
X1606188Y1315078D02*
X1632285D01*
X1606188Y1315528D02*
X1632285D01*
X1606188Y1315978D02*
X1632285D01*
X1606188Y1316428D02*
X1632285D01*
X1606061Y1316878D02*
X1632285D01*
X1605875Y1317328D02*
X1632285D01*
X1605450Y1317778D02*
X1632285D01*
X1605000Y1318228D02*
X1632285D01*
X1604550Y1318678D02*
X1632285D01*
X1604100Y1319128D02*
X1632285D01*
X1603650Y1319578D02*
X1632285D01*
X1603200Y1320028D02*
X1632285D01*
X1602750Y1320478D02*
X1632285D01*
X1602300Y1320928D02*
X1632285D01*
X1601850Y1321378D02*
X1632285D01*
X1601400Y1321828D02*
X1632285D01*
X1600950Y1322278D02*
X1632285D01*
X1600500Y1322728D02*
X1632285D01*
X1600050Y1323178D02*
X1632285D01*
X1599600Y1323628D02*
X1632285D01*
X1599150Y1324078D02*
X1632285D01*
X1598700Y1324528D02*
X1632285D01*
X1598250Y1324978D02*
X1632285D01*
X1597800Y1325428D02*
X1632285D01*
X1597350Y1325878D02*
X1632285D01*
X1596900Y1326328D02*
X1632285D01*
X1596450Y1326778D02*
X1632285D01*
X1596000Y1327228D02*
X1632285D01*
X1595550Y1327678D02*
X1632285D01*
X1595100Y1328128D02*
X1632285D01*
X1594248Y1328578D02*
X1632285D01*
X1565575Y1329028D02*
X1632285D01*
X1565125Y1329478D02*
X1632285D01*
X1564675Y1329928D02*
X1632285D01*
X1564225Y1330378D02*
X1632285D01*
X1563775Y1330828D02*
X1632285D01*
X1563325Y1331278D02*
X1632285D01*
X1562875Y1331728D02*
X1632285D01*
X1594176Y1332178D02*
X1632285D01*
X1594800Y1332628D02*
X1632285D01*
X1595096Y1333078D02*
X1632285D01*
X1595235Y1333528D02*
X1632285D01*
X1595254Y1333978D02*
X1632285D01*
X1595158Y1334428D02*
X1632285D01*
X1594923Y1334878D02*
X1632285D01*
X1594458Y1335328D02*
X1632285D01*
X1558825Y1335778D02*
X1632285D01*
X1558375Y1336228D02*
X1632285D01*
X1557925Y1336678D02*
X1632285D01*
X1557475Y1337128D02*
X1632285D01*
X1557025Y1337578D02*
X1632285D01*
X1556575Y1338028D02*
X1632285D01*
X1556125Y1338478D02*
X1632285D01*
X1555675Y1338928D02*
X1632285D01*
X1555225Y1339378D02*
X1632285D01*
X1554775Y1339828D02*
X1632285D01*
X1554325Y1340278D02*
X1632285D01*
X1553875Y1340728D02*
X1632285D01*
X1553425Y1341178D02*
X1632285D01*
X1552975Y1341628D02*
X1632285D01*
X1552525Y1342078D02*
X1632285D01*
X1552075Y1342528D02*
X1632285D01*
X1551625Y1342978D02*
X1632285D01*
X1551175Y1343428D02*
X1632285D01*
X1550725Y1343878D02*
X1632285D01*
X1550275Y1344328D02*
X1632285D01*
X1549825Y1344778D02*
X1632285D01*
X1549375Y1345228D02*
X1632285D01*
X1548925Y1345678D02*
X1632285D01*
X1548475Y1346128D02*
X1632285D01*
X1548025Y1346578D02*
X1632285D01*
X1547575Y1347028D02*
X1632285D01*
X1547125Y1347478D02*
X1632285D01*
X1546675Y1347928D02*
X1632285D01*
X1546225Y1348378D02*
X1632285D01*
X1545775Y1348828D02*
X1632285D01*
X1545325Y1349278D02*
X1632285D01*
X1544875Y1349728D02*
X1632285D01*
X1544425Y1350178D02*
X1632285D01*
X1543975Y1350628D02*
X1632285D01*
X1543525Y1351078D02*
X1632285D01*
X1543075Y1351528D02*
X1632285D01*
X1542625Y1351978D02*
X1632285D01*
X1542175Y1352428D02*
X1632285D01*
X1541725Y1352878D02*
X1632285D01*
X1541275Y1353328D02*
X1632285D01*
X1540825Y1353778D02*
X1632285D01*
X1540375Y1354228D02*
X1632285D01*
X1540105Y1354678D02*
X1632285D01*
X1540011Y1355128D02*
X1632285D01*
X1539781Y1355578D02*
X1632285D01*
X1539323Y1356028D02*
X1632285D01*
X1538125Y1356478D02*
X1632285D01*
X1537675Y1356928D02*
X1632285D01*
X1537225Y1357378D02*
X1632285D01*
X1536775Y1357828D02*
X1632285D01*
X1536325Y1358278D02*
X1632285D01*
X1535875Y1358728D02*
X1632285D01*
X1535425Y1359178D02*
X1632285D01*
X1534975Y1359628D02*
X1632285D01*
X1534525Y1360078D02*
X1632285D01*
X1534075Y1360528D02*
X1632285D01*
X1533625Y1360978D02*
X1632102D01*
X1582085Y1251628D02*
X1631881D01*
X1533175Y1361428D02*
X1631754D01*
X1532725Y1361878D02*
X1631304D01*
X1532275Y1362328D02*
X1630854D01*
X1531825Y1362778D02*
X1630404D01*
X1531375Y1363228D02*
X1629954D01*
X1530925Y1363678D02*
X1629503D01*
X1530475Y1364128D02*
X1629053D01*
X1530025Y1364578D02*
X1628603D01*
X1529575Y1365028D02*
X1628153D01*
X1529125Y1365478D02*
X1627703D01*
X1528675Y1365928D02*
X1627019D01*
X1582850Y1332178D02*
X1592745D01*
X1583626Y1335328D02*
X1592463D01*
X1583713Y1332628D02*
X1592120D01*
X1584016Y1334878D02*
X1591997D01*
X1584061Y1333078D02*
X1591825D01*
X1584213Y1334428D02*
X1591763D01*
X1584233Y1333528D02*
X1591686D01*
X1584280Y1333978D02*
X1591666D01*
X1562425Y1332178D02*
X1582110D01*
X1559275Y1335328D02*
X1581335D01*
X1561975Y1332628D02*
X1581247D01*
X1559725Y1334878D02*
X1580944D01*
X1561525Y1333078D02*
X1580900D01*
X1560175Y1334428D02*
X1580748D01*
X1561075Y1333528D02*
X1580728D01*
X1560625Y1333978D02*
X1580681D01*
X1528225Y1366378D02*
X1580536D01*
X1527775Y1366828D02*
X1580086D01*
X1527325Y1367278D02*
X1579636D01*
X1526875Y1367728D02*
X1579186D01*
X1540434Y1368178D02*
X1578736D01*
X1540802Y1368628D02*
X1578286D01*
X1540968Y1369078D02*
X1577836D01*
X1540995Y1369528D02*
X1577386D01*
X1540892Y1369978D02*
X1576936D01*
X1540626Y1370428D02*
X1576486D01*
X1540012Y1370878D02*
X1576036D01*
X1523050Y1371328D02*
X1575586D01*
X1514619Y1371778D02*
X1575136D01*
X1514998Y1372228D02*
X1574686D01*
X1515292Y1372678D02*
X1574236D01*
X1515517Y1373128D02*
X1573786D01*
X1515685Y1373578D02*
X1573336D01*
X1515803Y1374028D02*
X1572886D01*
X1515873Y1374478D02*
X1572436D01*
X1515898Y1374928D02*
X1571986D01*
X1515879Y1375378D02*
X1571536D01*
X1515815Y1375828D02*
X1571086D01*
X1515705Y1376278D02*
X1570636D01*
X1515545Y1376728D02*
X1570186D01*
X1515328Y1377178D02*
X1569736D01*
X1520496Y1377628D02*
X1569286D01*
X1520876Y1378078D02*
X1568836D01*
X1529768Y1378528D02*
X1568386D01*
X1530422Y1378978D02*
X1567936D01*
X1530727Y1379428D02*
X1567486D01*
X1530871Y1379878D02*
X1567036D01*
X1530896Y1380328D02*
X1566586D01*
X1530805Y1380778D02*
X1566136D01*
X1530578Y1381228D02*
X1565686D01*
X1530127Y1381678D02*
X1565236D01*
X1411992Y1382128D02*
X1564786D01*
X1411154Y1382578D02*
X1564336D01*
X1370325Y1383028D02*
X1563886D01*
X1475995Y1383478D02*
X1563436D01*
X1476688Y1383928D02*
X1562986D01*
X1476974Y1384378D02*
X1562536D01*
X1477091Y1384828D02*
X1562086D01*
X1477076Y1385278D02*
X1561636D01*
X1476925Y1385728D02*
X1561186D01*
X1476582Y1386178D02*
X1560736D01*
X1415649Y1386628D02*
X1560286D01*
X1415471Y1387078D02*
X1559836D01*
X1415115Y1387528D02*
X1559386D01*
X1414178Y1387978D02*
X1558936D01*
X1364925Y1388428D02*
X1558486D01*
X1364475Y1388878D02*
X1558036D01*
X1364025Y1389328D02*
X1557586D01*
X1363575Y1389778D02*
X1557136D01*
X1363125Y1390228D02*
X1556686D01*
X1362675Y1390678D02*
X1556236D01*
X1362225Y1391128D02*
X1555786D01*
X1361775Y1391578D02*
X1555336D01*
X1361325Y1392028D02*
X1554886D01*
X1360875Y1392478D02*
X1554436D01*
X1360425Y1392928D02*
X1553986D01*
X1359975Y1393378D02*
X1553536D01*
X1359525Y1393828D02*
X1553086D01*
X1482026Y1394278D02*
X1552636D01*
X1499090Y1394728D02*
X1552186D01*
X1499428Y1395178D02*
X1551736D01*
X1499577Y1395628D02*
X1551286D01*
X1499590Y1396078D02*
X1550836D01*
X1499471Y1396528D02*
X1550386D01*
X1499182Y1396978D02*
X1549936D01*
X1498473Y1397428D02*
X1549486D01*
X1355475Y1397878D02*
X1549036D01*
X1355025Y1398328D02*
X1548586D01*
X1354575Y1398778D02*
X1548136D01*
X1354125Y1399228D02*
X1547686D01*
X1353675Y1399678D02*
X1547236D01*
X1482800Y1400128D02*
X1546786D01*
X1483641Y1400578D02*
X1546336D01*
X1483952Y1401028D02*
X1545886D01*
X1484085Y1401478D02*
X1545436D01*
X1484084Y1401928D02*
X1544986D01*
X1483949Y1402378D02*
X1544536D01*
X1483634Y1402828D02*
X1544086D01*
X1482762Y1403278D02*
X1543636D01*
X1448084Y1403728D02*
X1543186D01*
X1447949Y1404178D02*
X1542736D01*
X1447634Y1404628D02*
X1542286D01*
X1446762Y1405078D02*
X1541836D01*
X1422237Y1405528D02*
X1541386D01*
X1422682Y1405978D02*
X1540936D01*
X1422907Y1406428D02*
X1540486D01*
X1422996Y1406878D02*
X1540036D01*
X1422970Y1407328D02*
X1539586D01*
X1422823Y1407778D02*
X1539136D01*
X1523725Y1370878D02*
X1538788D01*
X1422516Y1408228D02*
X1538686D01*
X1526425Y1368178D02*
X1538367D01*
X1421850Y1408678D02*
X1538236D01*
X1524175Y1370428D02*
X1538175D01*
X1525975Y1368628D02*
X1537999D01*
X1524625Y1369978D02*
X1537908D01*
X1525525Y1369078D02*
X1537833D01*
X1525075Y1369528D02*
X1537805D01*
X1350495Y1409128D02*
X1537786D01*
X1350495Y1409578D02*
X1537336D01*
X1462791Y1410028D02*
X1536932D01*
X1463598Y1410478D02*
X1536746D01*
X1475738Y1437028D02*
X1536634D01*
X1475800Y1436578D02*
X1536634D01*
X1475724Y1436128D02*
X1536634D01*
X1475484Y1435678D02*
X1536634D01*
X1474908Y1435228D02*
X1536634D01*
X1422427Y1434778D02*
X1536634D01*
X1482473Y1434328D02*
X1536634D01*
X1483182Y1433878D02*
X1536634D01*
X1483471Y1433428D02*
X1536634D01*
X1483590Y1432978D02*
X1536634D01*
X1483577Y1432528D02*
X1536634D01*
X1483428Y1432078D02*
X1536634D01*
X1483090Y1431628D02*
X1536634D01*
X1465200Y1431178D02*
X1536634D01*
X1467361Y1430728D02*
X1536634D01*
X1473382Y1430278D02*
X1536634D01*
X1473725Y1429828D02*
X1536634D01*
X1473876Y1429378D02*
X1536634D01*
X1473891Y1428928D02*
X1536634D01*
X1510627Y1428478D02*
X1536634D01*
X1511078Y1428028D02*
X1536634D01*
X1511305Y1427578D02*
X1536634D01*
X1511396Y1427128D02*
X1536634D01*
X1511371Y1426678D02*
X1536634D01*
X1511227Y1426228D02*
X1536634D01*
X1510922Y1425778D02*
X1536634D01*
X1510268Y1425328D02*
X1536634D01*
X1367636Y1424878D02*
X1536634D01*
X1478695Y1424428D02*
X1536634D01*
X1479111Y1423978D02*
X1536634D01*
X1479321Y1423528D02*
X1536634D01*
X1479398Y1423078D02*
X1536634D01*
X1510696Y1422628D02*
X1536634D01*
X1511111Y1422178D02*
X1536634D01*
X1511321Y1421728D02*
X1536634D01*
X1511399Y1421278D02*
X1536634D01*
X1511362Y1420828D02*
X1536634D01*
X1511202Y1420378D02*
X1536634D01*
X1510874Y1419928D02*
X1536634D01*
X1510126Y1419478D02*
X1536634D01*
X1483267Y1419028D02*
X1536634D01*
X1483861Y1418578D02*
X1536634D01*
X1484146Y1418128D02*
X1536634D01*
X1484278Y1417678D02*
X1536634D01*
X1510367Y1417228D02*
X1536634D01*
X1510961Y1416778D02*
X1536634D01*
X1511246Y1416328D02*
X1536634D01*
X1511379Y1415878D02*
X1536634D01*
X1511392Y1415428D02*
X1536634D01*
X1511290Y1414978D02*
X1536634D01*
X1511047Y1414528D02*
X1536634D01*
X1510562Y1414078D02*
X1536634D01*
X1473903Y1413628D02*
X1536634D01*
X1474168Y1413178D02*
X1536634D01*
X1474286Y1412728D02*
X1536634D01*
X1474287Y1412278D02*
X1536634D01*
X1474170Y1411828D02*
X1536634D01*
X1473908Y1411378D02*
X1536634D01*
X1473378Y1410928D02*
X1536634D01*
X1475516Y1437478D02*
X1536451D01*
X1474997Y1437928D02*
X1536102D01*
X1350472Y1438378D02*
X1535652D01*
X1350471Y1438828D02*
X1535202D01*
X1393104Y1439278D02*
X1534752D01*
X1393516Y1439728D02*
X1534302D01*
X1498634Y1440178D02*
X1533852D01*
X1499171Y1440628D02*
X1533402D01*
X1499413Y1441078D02*
X1532952D01*
X1499498Y1441528D02*
X1532502D01*
X1499455Y1441978D02*
X1532052D01*
X1499269Y1442428D02*
X1531602D01*
X1498862Y1442878D02*
X1531152D01*
X1475669Y1443328D02*
X1530702D01*
X1475262Y1443778D02*
X1530252D01*
X1350467Y1444228D02*
X1529802D01*
X1350467Y1444678D02*
X1529352D01*
X1350466Y1445128D02*
X1528902D01*
X1350466Y1445578D02*
X1528452D01*
X1521067Y1378528D02*
X1528433D01*
X1412284Y1381678D02*
X1528073D01*
X1350465Y1446028D02*
X1528002D01*
X1521130Y1378978D02*
X1527778D01*
X1412395Y1381228D02*
X1527623D01*
X1416995Y1446478D02*
X1527552D01*
X1521079Y1379428D02*
X1527474D01*
X1519608Y1380778D02*
X1527396D01*
X1520901Y1379878D02*
X1527329D01*
X1520545Y1380328D02*
X1527305D01*
X1417688Y1446928D02*
X1527102D01*
X1417975Y1447378D02*
X1526652D01*
X1418091Y1447828D02*
X1526202D01*
X1475179Y1448278D02*
X1525752D01*
X1475843Y1448728D02*
X1525302D01*
X1476107Y1449178D02*
X1524852D01*
X1476199Y1449628D02*
X1524402D01*
X1476152Y1450078D02*
X1523871D01*
X1412365Y1380778D02*
X1519052D01*
X1515045Y1377628D02*
X1518165D01*
X1412187Y1380328D02*
X1518116D01*
X1514680Y1378078D02*
X1517784D01*
X1411771Y1379878D02*
X1517759D01*
X1514201Y1378528D02*
X1517593D01*
X1512389Y1379428D02*
X1517582D01*
X1513537Y1378978D02*
X1517530D01*
X1373925Y1379428D02*
X1510210D01*
X1452058Y1419478D02*
X1509075D01*
X1374375Y1378978D02*
X1509062D01*
X1367442Y1425328D02*
X1508933D01*
X1484292Y1417228D02*
X1508833D01*
X1473366Y1414078D02*
X1508639D01*
X1473774Y1428478D02*
X1508573D01*
X1479361Y1422628D02*
X1508505D01*
X1374825Y1378528D02*
X1508398D01*
X1350486Y1419928D02*
X1508326D01*
X1367058Y1425778D02*
X1508278D01*
X1484189Y1416778D02*
X1508240D01*
X1350491Y1414528D02*
X1508154D01*
X1473488Y1428028D02*
X1508123D01*
X1479202Y1422178D02*
X1508089D01*
X1350486Y1420378D02*
X1507999D01*
X1381575Y1371778D02*
X1507980D01*
X1350481Y1426228D02*
X1507974D01*
X1483946Y1416328D02*
X1507954D01*
X1388583Y1378078D02*
X1507919D01*
X1350490Y1414978D02*
X1507911D01*
X1472795Y1427578D02*
X1507896D01*
X1478874Y1421728D02*
X1507880D01*
X1350486Y1420828D02*
X1507839D01*
X1350481Y1426678D02*
X1507829D01*
X1483462Y1415878D02*
X1507822D01*
X1350490Y1415428D02*
X1507808D01*
X1350481Y1427128D02*
X1507805D01*
X1478126Y1421278D02*
X1507802D01*
X1381125Y1372228D02*
X1507601D01*
X1388925Y1377628D02*
X1507554D01*
X1380675Y1372678D02*
X1507307D01*
X1389076Y1377178D02*
X1507271D01*
X1380225Y1373128D02*
X1507082D01*
X1389091Y1376728D02*
X1507054D01*
X1379775Y1373578D02*
X1506914D01*
X1388975Y1376278D02*
X1506894D01*
X1379325Y1374028D02*
X1506796D01*
X1388688Y1375828D02*
X1506783D01*
X1378875Y1374478D02*
X1506726D01*
X1387995Y1375378D02*
X1506720D01*
X1378425Y1374928D02*
X1506701D01*
X1482595Y1397428D02*
X1497527D01*
X1393723Y1440178D02*
X1497166D01*
X1475855Y1442878D02*
X1496938D01*
X1482774Y1394728D02*
X1496910D01*
X1483011Y1396978D02*
X1496818D01*
X1393799Y1440628D02*
X1496629D01*
X1483102Y1395178D02*
X1496572D01*
X1475898Y1442428D02*
X1496531D01*
X1483221Y1396528D02*
X1496529D01*
X1483261Y1395628D02*
X1496423D01*
X1483298Y1396078D02*
X1496410D01*
X1475034Y1441078D02*
X1496387D01*
X1475813Y1441978D02*
X1496345D01*
X1475571Y1441528D02*
X1496302D01*
X1448085Y1403278D02*
X1482238D01*
X1472037Y1400128D02*
X1482200D01*
X1461951Y1419028D02*
X1481733D01*
X1466534Y1415878D02*
X1481538D01*
X1422877Y1434328D02*
X1481527D01*
X1447952Y1402828D02*
X1481366D01*
X1472415Y1400578D02*
X1481359D01*
X1466762Y1418578D02*
X1481139D01*
X1467071Y1416328D02*
X1481054D01*
X1472143Y1402378D02*
X1481051D01*
X1472575Y1401028D02*
X1481048D01*
X1410526Y1394278D02*
X1480974D01*
X1472462Y1401928D02*
X1480916D01*
X1472590Y1401478D02*
X1480915D01*
X1465142Y1431628D02*
X1480910D01*
X1467169Y1418128D02*
X1480854D01*
X1423105Y1433878D02*
X1480818D01*
X1467313Y1416778D02*
X1480811D01*
X1467355Y1417678D02*
X1480722D01*
X1467399Y1417228D02*
X1480708D01*
X1464938Y1432078D02*
X1480572D01*
X1423195Y1433428D02*
X1480529D01*
X1464492Y1432528D02*
X1480423D01*
X1423171Y1432978D02*
X1480410D01*
X1411096Y1397428D02*
X1480405D01*
X1411274Y1394728D02*
X1480226D01*
X1411511Y1396978D02*
X1479989D01*
X1411602Y1395178D02*
X1479898D01*
X1411721Y1396528D02*
X1479779D01*
X1411762Y1395628D02*
X1479739D01*
X1411799Y1396078D02*
X1479702D01*
X1350485Y1421278D02*
X1477074D01*
X1367700Y1424428D02*
X1476505D01*
X1350485Y1421728D02*
X1476326D01*
X1367650Y1423978D02*
X1476089D01*
X1350485Y1422178D02*
X1475998D01*
X1367475Y1423528D02*
X1475879D01*
X1366219Y1422628D02*
X1475839D01*
X1367122Y1423078D02*
X1475802D01*
X1369875Y1383478D02*
X1475005D01*
X1415700Y1386178D02*
X1474418D01*
X1369425Y1383928D02*
X1474312D01*
X1418076Y1448278D02*
X1474222D01*
X1415637Y1385728D02*
X1474075D01*
X1368975Y1384378D02*
X1474026D01*
X1415446Y1385278D02*
X1473924D01*
X1415066Y1384828D02*
X1473909D01*
X1415187Y1435228D02*
X1473693D01*
X1350472Y1437928D02*
X1473604D01*
X1393760Y1441078D02*
X1473566D01*
X1417925Y1448728D02*
X1473557D01*
X1350467Y1443778D02*
X1473338D01*
X1417583Y1449178D02*
X1473294D01*
X1350462Y1450078D02*
X1473249D01*
X1350463Y1449628D02*
X1473202D01*
X1414941Y1435678D02*
X1473117D01*
X1410165Y1437478D02*
X1473084D01*
X1393598Y1441528D02*
X1473029D01*
X1350468Y1443328D02*
X1472931D01*
X1414451Y1436128D02*
X1472876D01*
X1410702Y1437028D02*
X1472863D01*
X1410967Y1436578D02*
X1472800D01*
X1393267Y1441978D02*
X1472787D01*
X1350468Y1442878D02*
X1472745D01*
X1392503Y1442428D02*
X1472702D01*
X1350480Y1427578D02*
X1471805D01*
X1350491Y1414078D02*
X1471635D01*
X1467050Y1410928D02*
X1471623D01*
X1467783Y1430278D02*
X1471218D01*
X1466791Y1428028D02*
X1471112D01*
X1350492Y1413628D02*
X1471098D01*
X1467365Y1411378D02*
X1471092D01*
X1467964Y1429828D02*
X1470875D01*
X1466928Y1413178D02*
X1470833D01*
X1467490Y1411828D02*
X1470830D01*
X1467599Y1428478D02*
X1470826D01*
X1467995Y1429378D02*
X1470724D01*
X1467311Y1412728D02*
X1470715D01*
X1467474Y1412278D02*
X1470714D01*
X1467887Y1428928D02*
X1470709D01*
X1353225Y1400128D02*
X1470164D01*
X1447641Y1402378D02*
X1470058D01*
X1352775Y1400578D02*
X1469785D01*
X1446800Y1401928D02*
X1469738D01*
X1352325Y1401028D02*
X1469625D01*
X1351875Y1401478D02*
X1469611D01*
X1350480Y1428028D02*
X1466210D01*
X1465129Y1430728D02*
X1465639D01*
X1350480Y1428478D02*
X1465402D01*
X1464908Y1430278D02*
X1465218D01*
X1350479Y1428928D02*
X1465113D01*
X1350492Y1413178D02*
X1465072D01*
X1461781Y1415878D02*
X1465066D01*
X1464424Y1429828D02*
X1465037D01*
X1455134Y1429378D02*
X1465005D01*
X1463887Y1410928D02*
X1464950D01*
X1462441Y1418578D02*
X1464838D01*
X1463361Y1412728D02*
X1464689D01*
X1463995Y1411378D02*
X1464635D01*
X1462367Y1416328D02*
X1464529D01*
X1463782Y1412278D02*
X1464526D01*
X1463964Y1411828D02*
X1464510D01*
X1462687Y1418128D02*
X1464431D01*
X1462649Y1416778D02*
X1464288D01*
X1462791Y1417678D02*
X1464246D01*
X1462779Y1417228D02*
X1464202D01*
X1455671Y1429828D02*
X1462776D01*
X1423026Y1432528D02*
X1462708D01*
X1455913Y1430278D02*
X1462292D01*
X1455362Y1432078D02*
X1462263D01*
X1350494Y1410028D02*
X1462209D01*
X1455998Y1430728D02*
X1462071D01*
X1455769Y1431628D02*
X1462059D01*
X1455955Y1431178D02*
X1462000D01*
X1350492Y1412728D02*
X1461639D01*
X1350494Y1410478D02*
X1461402D01*
X1350493Y1412278D02*
X1461218D01*
X1350494Y1410928D02*
X1461113D01*
X1350493Y1411828D02*
X1461036D01*
X1350493Y1411378D02*
X1461005D01*
X1350490Y1415878D02*
X1460219D01*
X1452442Y1419028D02*
X1460049D01*
X1451219Y1416328D02*
X1459633D01*
X1452635Y1418578D02*
X1459559D01*
X1452122Y1416778D02*
X1459351D01*
X1452700Y1418128D02*
X1459313D01*
X1452475Y1417228D02*
X1459221D01*
X1452650Y1417678D02*
X1459209D01*
X1350479Y1429378D02*
X1453666D01*
X1422722Y1432078D02*
X1453438D01*
X1350479Y1429828D02*
X1453129D01*
X1422068Y1431628D02*
X1453031D01*
X1374526Y1430278D02*
X1452887D01*
X1375602Y1431178D02*
X1452845D01*
X1375274Y1430728D02*
X1452802D01*
X1350489Y1416328D02*
X1450581D01*
X1350487Y1419478D02*
X1449742D01*
X1350489Y1416778D02*
X1449678D01*
X1350487Y1419028D02*
X1449358D01*
X1350489Y1417228D02*
X1449325D01*
X1350488Y1418578D02*
X1449165D01*
X1350488Y1417678D02*
X1449150D01*
X1350488Y1418128D02*
X1449100D01*
X1411667Y1405078D02*
X1446238D01*
X1351425Y1401928D02*
X1446200D01*
X1411998Y1404628D02*
X1445366D01*
X1411504Y1402378D02*
X1445359D01*
X1412160Y1404178D02*
X1445051D01*
X1411915Y1402828D02*
X1445048D01*
X1412199Y1403728D02*
X1444916D01*
X1412123Y1403278D02*
X1444915D01*
X1350462Y1450528D02*
X1421861D01*
X1350462Y1450978D02*
X1421068D01*
X1375762Y1431628D02*
X1420732D01*
X1350495Y1408678D02*
X1420550D01*
X1415291Y1434778D02*
X1420373D01*
X1350461Y1451428D02*
X1420276D01*
X1410903Y1405528D02*
X1420163D01*
X1375799Y1432078D02*
X1420078D01*
X1415279Y1434328D02*
X1419923D01*
X1350496Y1408228D02*
X1419884D01*
X1375721Y1432528D02*
X1419774D01*
X1350498Y1405978D02*
X1419718D01*
X1415149Y1433878D02*
X1419695D01*
X1414281Y1432978D02*
X1419629D01*
X1414867Y1433428D02*
X1419605D01*
X1350496Y1407778D02*
X1419577D01*
X1350497Y1406428D02*
X1419493D01*
X1350461Y1451878D02*
X1419483D01*
X1350497Y1407328D02*
X1419430D01*
X1350497Y1406878D02*
X1419404D01*
X1350460Y1452328D02*
X1418691D01*
X1350460Y1452778D02*
X1417898D01*
X1350460Y1453228D02*
X1417106D01*
X1350459Y1453678D02*
X1416313D01*
X1350465Y1446478D02*
X1416006D01*
X1350459Y1454128D02*
X1415521D01*
X1350463Y1449178D02*
X1415418D01*
X1350465Y1446928D02*
X1415312D01*
X1350463Y1448728D02*
X1415076D01*
X1350464Y1447378D02*
X1415026D01*
X1350464Y1448278D02*
X1414925D01*
X1350464Y1447828D02*
X1414909D01*
X1350459Y1454578D02*
X1414728D01*
X1350458Y1455028D02*
X1413936D01*
X1365375Y1387978D02*
X1413622D01*
X1350458Y1455478D02*
X1413143D01*
X1368525Y1384828D02*
X1412735D01*
X1375511Y1432978D02*
X1412719D01*
X1365825Y1387528D02*
X1412686D01*
X1411085Y1436128D02*
X1412549D01*
X1368075Y1385278D02*
X1412354D01*
X1350458Y1455928D02*
X1412351D01*
X1366275Y1387078D02*
X1412329D01*
X1367625Y1385728D02*
X1412163D01*
X1366725Y1386628D02*
X1412152D01*
X1375096Y1433428D02*
X1412133D01*
X1367175Y1386178D02*
X1412100D01*
X1411086Y1435678D02*
X1412059D01*
X1358678Y1433878D02*
X1411851D01*
X1410970Y1435228D02*
X1411813D01*
X1410178Y1434328D02*
X1411721D01*
X1410708Y1434778D02*
X1411709D01*
X1350457Y1456378D02*
X1411558D01*
X1350457Y1456828D02*
X1410766D01*
X1370775Y1382578D02*
X1410646D01*
X1373475Y1379878D02*
X1410030D01*
X1350456Y1457278D02*
X1409973D01*
X1350498Y1405528D02*
X1409897D01*
X1371225Y1382128D02*
X1409808D01*
X1373025Y1380328D02*
X1409614D01*
X1371675Y1381678D02*
X1409516D01*
X1359075Y1394278D02*
X1409475D01*
X1372575Y1380778D02*
X1409435D01*
X1372125Y1381228D02*
X1409406D01*
X1350975Y1402378D02*
X1409296D01*
X1350456Y1457728D02*
X1409181D01*
X1350498Y1405078D02*
X1409133D01*
X1355925Y1397428D02*
X1408905D01*
X1350660Y1402828D02*
X1408885D01*
X1350499Y1404628D02*
X1408802D01*
X1358625Y1394728D02*
X1408726D01*
X1350500Y1403278D02*
X1408677D01*
X1350499Y1404178D02*
X1408640D01*
X1350499Y1403728D02*
X1408601D01*
X1356375Y1396978D02*
X1408489D01*
X1350472Y1437478D02*
X1408435D01*
X1350475Y1434328D02*
X1408422D01*
X1358175Y1395178D02*
X1408399D01*
X1350456Y1458178D02*
X1408388D01*
X1356825Y1396528D02*
X1408280D01*
X1357725Y1395628D02*
X1408239D01*
X1357275Y1396078D02*
X1408202D01*
X1350473Y1437028D02*
X1407898D01*
X1350475Y1434778D02*
X1407892D01*
X1350473Y1436578D02*
X1407633D01*
X1350474Y1435228D02*
X1407630D01*
X1350455Y1458628D02*
X1407596D01*
X1350473Y1436128D02*
X1407515D01*
X1350474Y1435678D02*
X1407514D01*
X1350455Y1459078D02*
X1406804D01*
X1350455Y1459528D02*
X1406011D01*
X1350454Y1459978D02*
X1405219D01*
X1350454Y1460428D02*
X1404426D01*
X1350454Y1460878D02*
X1403634D01*
X1350453Y1461328D02*
X1402841D01*
X1350637Y1461778D02*
X1402049D01*
X1351160Y1462228D02*
X1401256D01*
X1351682Y1462678D02*
X1400464D01*
X1352204Y1463128D02*
X1399671D01*
X1352727Y1463578D02*
X1398879D01*
X1353249Y1464028D02*
X1398086D01*
X1353771Y1464478D02*
X1397294D01*
X1383696Y1442428D02*
X1391498D01*
X1383126Y1439278D02*
X1390896D01*
X1384111Y1441978D02*
X1390733D01*
X1383874Y1439728D02*
X1390485D01*
X1384321Y1441528D02*
X1390402D01*
X1384202Y1440178D02*
X1390277D01*
X1384399Y1441078D02*
X1390240D01*
X1384362Y1440628D02*
X1390202D01*
X1377975Y1375378D02*
X1387006D01*
X1375275Y1378078D02*
X1386418D01*
X1377525Y1375828D02*
X1386312D01*
X1375725Y1377628D02*
X1386076D01*
X1377075Y1376278D02*
X1386026D01*
X1376175Y1377178D02*
X1385925D01*
X1376625Y1376728D02*
X1385909D01*
X1350471Y1439278D02*
X1382075D01*
X1350468Y1442428D02*
X1381505D01*
X1350471Y1439728D02*
X1381326D01*
X1350469Y1441978D02*
X1381089D01*
X1350470Y1440178D02*
X1380999D01*
X1350469Y1441528D02*
X1380880D01*
X1350470Y1440628D02*
X1380839D01*
X1350469Y1441078D02*
X1380802D01*
X1350478Y1430278D02*
X1373475D01*
X1359615Y1433428D02*
X1372905D01*
X1359566Y1430728D02*
X1372726D01*
X1359971Y1432978D02*
X1372489D01*
X1359946Y1431178D02*
X1372399D01*
X1360149Y1432528D02*
X1372280D01*
X1360137Y1431628D02*
X1372239D01*
X1360200Y1432078D02*
X1372202D01*
X1350484Y1422628D02*
X1365582D01*
X1350482Y1425778D02*
X1364743D01*
X1350484Y1423078D02*
X1364678D01*
X1350482Y1425328D02*
X1364358D01*
X1350484Y1423528D02*
X1364325D01*
X1350482Y1424878D02*
X1364165D01*
X1350483Y1423978D02*
X1364150D01*
X1350483Y1424428D02*
X1364100D01*
X1350475Y1433878D02*
X1358122D01*
X1350478Y1430728D02*
X1357235D01*
X1350476Y1433428D02*
X1357186D01*
X1350477Y1431178D02*
X1356854D01*
X1350476Y1432978D02*
X1356829D01*
X1350477Y1431628D02*
X1356663D01*
X1350476Y1432528D02*
X1356652D01*
X1350477Y1432078D02*
X1356600D01*
G54D248*
X1139000Y1457500D03*
Y1447500D03*
G54D301*
X1597300Y1394533D02*
Y1408417D01*
X1595917Y1409800*
X1572083*
X1570200Y1407917*
Y1395533*
X1572083Y1393650*
X1579158*
X1596417*
X1597300Y1394533*
X1629800Y1419083D02*
Y1423917D01*
X1628917Y1424800*
X1606083*
X1605200Y1423917*
Y1419083*
X1606083Y1418200*
X1628917*
X1629800Y1419083*
Y1423917*
X1628917Y1424800*
X1606083*
X1605200Y1423917*
Y1419083*
X1606083Y1418200*
X1628917*
X1629800Y1419083*
Y1394583D02*
Y1400417D01*
X1627917Y1402300*
X1607083*
X1605200Y1400417*
Y1394583*
X1607083Y1392700*
X1627917*
X1629800Y1394583*
Y1400417*
X1627917Y1402300*
X1607083*
X1605200Y1400417*
Y1394583*
X1607083Y1392700*
X1627917*
X1629800Y1394583*
X1570692Y1408409D02*
X1597300D01*
X1570332Y1408049D02*
X1597300D01*
X1570200Y1407689D02*
X1597300D01*
X1570200Y1407329D02*
X1597300D01*
X1570200Y1406969D02*
X1597300D01*
X1570200Y1406609D02*
X1597300D01*
X1570200Y1406249D02*
X1597300D01*
X1570200Y1405889D02*
X1597300D01*
X1570200Y1405529D02*
X1597300D01*
X1570200Y1405169D02*
X1597300D01*
X1570200Y1404809D02*
X1597300D01*
X1570200Y1404449D02*
X1597300D01*
X1570200Y1404089D02*
X1597300D01*
X1570200Y1403729D02*
X1597300D01*
X1570200Y1403369D02*
X1597300D01*
X1570200Y1403009D02*
X1597300D01*
X1570200Y1402649D02*
X1597300D01*
X1570200Y1402289D02*
X1597300D01*
X1570200Y1401929D02*
X1597300D01*
X1570200Y1401569D02*
X1597300D01*
X1570200Y1401209D02*
X1597300D01*
X1570200Y1400849D02*
X1597300D01*
X1570200Y1400489D02*
X1597300D01*
X1570200Y1400129D02*
X1597300D01*
X1570200Y1399769D02*
X1597300D01*
X1570200Y1399409D02*
X1597300D01*
X1570200Y1399049D02*
X1597300D01*
X1570200Y1398689D02*
X1597300D01*
X1570200Y1398329D02*
X1597300D01*
X1570200Y1397969D02*
X1597300D01*
X1570200Y1397609D02*
X1597300D01*
X1570200Y1397249D02*
X1597300D01*
X1570200Y1396889D02*
X1597300D01*
X1570200Y1396529D02*
X1597300D01*
X1570200Y1396169D02*
X1597300D01*
X1570200Y1395809D02*
X1597300D01*
X1570284Y1395449D02*
X1597300D01*
X1570644Y1395089D02*
X1597300D01*
X1571004Y1394729D02*
X1597300D01*
X1571364Y1394369D02*
X1597136D01*
X1571052Y1408769D02*
X1596949D01*
X1571724Y1394009D02*
X1596776D01*
X1571412Y1409129D02*
X1596589D01*
X1571772Y1409489D02*
X1596229D01*
X1605200Y1423599D02*
X1629800D01*
X1605200Y1423239D02*
X1629800D01*
X1605200Y1422879D02*
X1629800D01*
X1605200Y1422519D02*
X1629800D01*
X1605200Y1422159D02*
X1629800D01*
X1605200Y1421799D02*
X1629800D01*
X1605200Y1421439D02*
X1629800D01*
X1605200Y1421079D02*
X1629800D01*
X1605200Y1420719D02*
X1629800D01*
X1605200Y1420359D02*
X1629800D01*
X1605200Y1419999D02*
X1629800D01*
X1605200Y1419639D02*
X1629800D01*
X1605200Y1419279D02*
X1629800D01*
X1605242Y1423959D02*
X1629759D01*
X1605364Y1418919D02*
X1629636D01*
X1605602Y1424319D02*
X1629399D01*
X1605724Y1418559D02*
X1629276D01*
X1605962Y1424679D02*
X1629039D01*
X1605200Y1423599D02*
X1629800D01*
X1605200Y1423239D02*
X1629800D01*
X1605200Y1422879D02*
X1629800D01*
X1605200Y1422519D02*
X1629800D01*
X1605200Y1422159D02*
X1629800D01*
X1605200Y1421799D02*
X1629800D01*
X1605200Y1421439D02*
X1629800D01*
X1605200Y1421079D02*
X1629800D01*
X1605200Y1420719D02*
X1629800D01*
X1605200Y1420359D02*
X1629800D01*
X1605200Y1419999D02*
X1629800D01*
X1605200Y1419639D02*
X1629800D01*
X1605200Y1419279D02*
X1629800D01*
X1605242Y1423959D02*
X1629759D01*
X1605364Y1418919D02*
X1629636D01*
X1605602Y1424319D02*
X1629399D01*
X1605724Y1418559D02*
X1629276D01*
X1605962Y1424679D02*
X1629039D01*
X1605200Y1400259D02*
X1629800D01*
X1605200Y1399899D02*
X1629800D01*
X1605200Y1399539D02*
X1629800D01*
X1605200Y1399179D02*
X1629800D01*
X1605200Y1398819D02*
X1629800D01*
X1605200Y1398459D02*
X1629800D01*
X1605200Y1398099D02*
X1629800D01*
X1605200Y1397739D02*
X1629800D01*
X1605200Y1397379D02*
X1629800D01*
X1605200Y1397019D02*
X1629800D01*
X1605200Y1396659D02*
X1629800D01*
X1605200Y1396299D02*
X1629800D01*
X1605200Y1395939D02*
X1629800D01*
X1605200Y1395579D02*
X1629800D01*
X1605200Y1395219D02*
X1629800D01*
X1605200Y1394859D02*
X1629800D01*
X1605284Y1394499D02*
X1629716D01*
X1605402Y1400619D02*
X1629599D01*
X1605644Y1394139D02*
X1629356D01*
X1605762Y1400979D02*
X1629239D01*
X1606004Y1393779D02*
X1628996D01*
X1606122Y1401339D02*
X1628879D01*
X1606364Y1393419D02*
X1628636D01*
X1606482Y1401699D02*
X1628519D01*
X1606724Y1393059D02*
X1628276D01*
X1606842Y1402059D02*
X1628159D01*
X1605200Y1400259D02*
X1629800D01*
X1605200Y1399899D02*
X1629800D01*
X1605200Y1399539D02*
X1629800D01*
X1605200Y1399179D02*
X1629800D01*
X1605200Y1398819D02*
X1629800D01*
X1605200Y1398459D02*
X1629800D01*
X1605200Y1398099D02*
X1629800D01*
X1605200Y1397739D02*
X1629800D01*
X1605200Y1397379D02*
X1629800D01*
X1605200Y1397019D02*
X1629800D01*
X1605200Y1396659D02*
X1629800D01*
X1605200Y1396299D02*
X1629800D01*
X1605200Y1395939D02*
X1629800D01*
X1605200Y1395579D02*
X1629800D01*
X1605200Y1395219D02*
X1629800D01*
X1605200Y1394859D02*
X1629800D01*
X1605284Y1394499D02*
X1629716D01*
X1605402Y1400619D02*
X1629599D01*
X1605644Y1394139D02*
X1629356D01*
X1605762Y1400979D02*
X1629239D01*
X1606004Y1393779D02*
X1628996D01*
X1606122Y1401339D02*
X1628879D01*
X1606364Y1393419D02*
X1628636D01*
X1606482Y1401699D02*
X1628519D01*
X1606724Y1393059D02*
X1628276D01*
X1606842Y1402059D02*
X1628159D01*
G54D451*
X1216500Y1021900D03*
G54D452*
Y1029874D03*
G74*
X0Y0D02*
M02*
