%
T1C.01F095S3
X103658Y104813
X103858Y103813
X104108Y102813
X104308Y101813
X10729Y10517
X10887Y10489
X109508Y104863
X111058Y104963
X111258Y104613
X111658Y104963
X11207Y10537
X11291Y10511
X11376Y10503
X11433Y104903
X11473Y10493
X115149Y103641
X116524Y10504
X116917Y10504
X116922Y103304
X11707Y104023
X117311Y10504
X118099Y10504
X118149Y103352
X118492Y10504
X120802Y104599
X121425Y104324
X121675Y10508
X1248Y10475
X1254Y10425
X125408Y104813
X125408Y105113
X12645Y10315
X1266Y1044
X12698Y10421
X1272Y10315
X127395Y104254
X127795Y104254
X127985Y103239
X128068Y104244
X128379Y103239
X128576Y104254
X1287Y10451
X129874Y105209
X131108Y105163
X14663Y106256
X14628Y106256
X135008Y106663
X1299Y1059
X129258Y107663
X12884Y10622
X128182Y106563
X12713Y10629
X12706Y10657
X12686Y1061
X12658Y10634
X125458Y105963
X12525Y10653
X12259Y1076
X12186Y10628
X12168Y10555
X121657Y106503
X12059Y1062
X11929Y1058
X119277Y107013
X119277Y107406
X119277Y1078
X11889Y10543
X118884Y107013
X118884Y1078
X118884Y106619
X118884Y107406
X11851Y10543
X11849Y107013
X11849Y107406
X11849Y106619
X11849Y1078
X11811Y10583
X1181Y10543
X118096Y106619
X11809Y10623
X11772Y1078
X11769Y10622
X11733Y1074
X11732Y1078
X11731Y10583
X11693Y10741
X11693Y10702
X116917Y107796
X116917Y105828
X1169Y10544
X116524Y107403
X116524Y107009
X11652Y10542
X11652Y10781
X1165Y10583
X115747Y10584
X11574Y10781
X11573Y10701
X11572Y10741
X11536Y10543
X11536Y10583
X115343Y107403
X11534Y107
X11534Y10781
X11495Y10781
X11495Y10624
X11495Y10543
X114949Y107403
X11456Y10542
X11417Y10742
X114156Y105417
X11377Y10782
X11377Y10701
X11377Y10661
X11376Y10741
X11337Y10543
X112911Y106025
X11076Y10685
X11022Y1075
X10962Y10683
X10922Y10704
X10582Y10543
X103458Y105813
X103308Y106813
X103158Y107813
X102858Y109813
X103008Y108813
X10541Y11012
X10657Y11021
X10686Y10943
X1082Y1096
X10919Y10989
X10921Y11025
X11292Y11035
X11376Y10857
X113768Y109765
X113768Y110159
X113768Y109371
X11377Y10897
X114162Y110159
X114162Y109765
X114162Y109371
X114555Y108584
X114949Y108584
X114949Y108977
X115343Y108977
X115343Y108584
X11535Y10938
X115736Y108977
X115736Y108584
X11574Y10978
X11575Y10938
X116524Y108584
X116524Y108977
X11653Y10938
X116917Y108977
X116917Y108584
X11693Y10938
X117311Y108977
X117311Y108584
X11732Y10938
X1177Y11016
X117705Y108584
X11771Y10976
X118099Y11016
X118099Y109371
X1181Y10976
X118492Y108584
X118492Y108977
X118492Y109765
X118492Y110159
X118492Y109371
X118886Y110159
X118886Y108977
X118886Y109371
X118886Y108584
X118886Y109765
X11928Y108977
X11928Y109371
X11928Y10859
X11931Y10977
X11999Y10939
X1218Y1103
X12428Y10935
X12496Y10833
X125Y1093
X1253Y10835
X12543Y10927
X1257Y10985
X12583Y10928
X12605Y10965
X12615Y10835
X12925Y11
X12925Y1096
X12975Y1095
X1299Y10925
X12995Y11
X13Y10895
X133408Y109113
X13357Y109605
X13405Y1094
X134208Y108613
X134375Y10996
X13465Y10875
X1349Y1094
X13495Y1099
X1356Y10905
X13675Y1103
X1373Y10915
X13735Y1103
X14625Y109356
X1466Y109356
X14686Y10994
X14686Y11038
X1466Y112416
X14625Y112416
X13665Y1118
X1359Y11255
X13515Y11075
X13507Y11191
X13485Y1107
X13475Y11195
X13435Y11185
X1339Y11285
X13381Y11226
X12705Y1114
X120059Y110547
X119286Y110552
X11928Y11134
X118886Y110946
X118886Y110552
X118492Y110552
X118492Y11134
X118492Y110946
X118099Y110552
X11771Y110547
X117508Y1119
X117316Y110547
X117114Y111511
X116917Y110552
X116721Y1119
X116529Y110547
X116327Y111511
X115736Y110552
X115343Y110552
X11456Y11253
X11396Y1114
X113374Y110946
X11303Y11134
X10921Y11136
X1092Y11235
X10835Y11131
X10803Y11289
X10797Y1114
X107Y11135
X10681Y11106
X10539Y11047
X102708Y110813
X102558Y111813
X102408Y112813
X101608Y117813
X101758Y116813
X101908Y115813
X102058Y114813
X102258Y113813
X10834Y11327
X109365Y113646
X116579Y116677
X116607Y117113
X11765Y11715
X11765Y11745
X11765Y11775
X11795Y11745
X11795Y11775
X11795Y11715
X118028Y11595
X11825Y11715
X11825Y11745
X11825Y11775
X118629Y1162
X1192Y1134
X11955Y11315
X1221Y1174
X1221Y1171
X1221Y1168
X1224Y1174
X1224Y1171
X1224Y1168
X1227Y1174
X1227Y1168
X1227Y1171
X12362Y11708
X125Y1155
X12535Y11545
X12545Y1151
X12993Y11547
X13002Y11587
X13104Y1161
X13231Y11789
X13296Y11756
X13422Y11322
X135Y1132
X13566Y113502
X14585Y1154
X14615Y1154
X14657Y11597
X14658Y11639
X14686Y11304
X14686Y11348
X1574Y12286
X157321Y12208
X15395Y12273
X1531Y12259
X15129Y12178
X15071Y12004
X14915Y11847
X14905Y11909
X149Y1187
X148253Y121871
X14811Y122157
X14763Y11829
X14762Y11978
X14685Y122456
X14685Y122016
X146771Y119039
X146767Y119466
X1466Y11838
X1466Y12108
X14622Y11838
X14622Y12108
X13579Y11861
X1348Y11794
X12362Y12244
X12278Y12135
X1227Y1228
X1227Y1222
X1227Y1225
X1224Y1225
X1224Y1228
X1224Y1222
X1221Y1228
X1221Y1225
X1221Y1222
X118786Y1187
X118629Y1213
X11825Y1223
X11825Y1226
X11825Y1229
X118185Y118954
X118028Y12105
X11795Y1229
X11795Y1226
X11795Y1223
X11765Y1229
X11765Y1226
X11765Y1223
X117558Y118954
X116957Y1187
X11667Y12235
X116645Y121903
X110471Y120445
X110412Y121387
X10943Y1217
X10939Y12114
X10936Y12076
X10936Y12013
X10705Y119
X107047Y122029
X107Y11865
X10696Y12045
X106804Y120969
X106545Y12283
X106295Y12255
X1062Y11905
X10589Y11929
X105718Y121657
X10566Y11961
X105487Y121424
X10453Y122784
X101458Y118813
X101308Y119813
X101158Y120813
X101008Y121813
X100858Y122813
X100558Y124813
X100708Y123813
X104786Y123055
X10622Y12493
X106295Y125409
X106545Y125209
X116957Y1238
X117558Y124054
X118185Y124054
X118786Y1238
X13089Y12416
X14621Y124426
X1466Y12442
X14686Y12499
X148274Y123077
X148356Y124501
X148375Y124866
X148494Y124113
X148858Y123663
X14915Y1254
X14925Y1237
X15154Y12405
X15161Y12379
X15186Y12361
X15214Y12339
X15266Y12317
X15419Y12371
X15588Y12519
X15596Y12432
X15716Y12459
X15366Y12553
X152594Y127403
X152594Y127718
X152594Y126773
X15222Y12774
X148139Y127146
X148072Y125473
X14686Y12543
X14656Y12687
X14628Y12687
X14158Y12746
X14148Y12631
X1368Y12545
X1368Y1258
X12856Y12765
X12276Y1266
X1227Y12745
X1227Y12775
X1224Y12775
X1224Y12745
X1221Y12775
X1221Y12745
X11885Y12708
X118629Y1267
X11825Y1276
X11825Y1279
X118028Y12645
X11795Y1279
X11795Y1276
X11765Y1276
X11765Y1279
X11653Y12774
X11651Y12729
X106045Y126459
X1042Y1265
X100408Y125813
X100388Y127813
X100388Y126813
X100388Y129813
X100388Y128813
X107445Y129459
X114705Y128759
X115008Y129013
X116957Y1291
X117558Y129354
X11765Y1282
X11795Y1282
X118184Y129354
X11825Y1282
X118786Y1291
X1221Y12805
X1224Y12805
X1227Y12805
X12829Y12966
X12861Y12929
X13184Y12925
X134Y12885
X13543Y12973
X1468Y12816
X1468Y12844
X14963Y12942
X14996Y12919
X15017Y13007
X15056Y12988
X157636Y129885
X15414Y13259
X15385Y13323
X153735Y130868
X153718Y131183
X15269Y13343
X1523Y13342
X15228Y13454
X1522Y1313
X1514Y13276
X15137Y13129
X150056Y133038
X1498Y13435
X1496Y1341
X1495Y13365
X12967Y13094
X12283Y1325
X1227Y134
X1227Y1334
X1227Y1337
X1224Y1337
X1224Y134
X1224Y1334
X1221Y134
X1221Y1334
X1221Y1337
X12195Y13243
X11879Y134488
X118629Y1321
X11825Y1333
X11825Y133
X11825Y1336
X118186Y13475
X118028Y13185
X11795Y1333
X11795Y133
X11795Y1336
X117871Y13432
X11765Y133
X11765Y1336
X11765Y1333
X117556Y13475
X116955Y134496
X112Y133
X106552Y131029
X105849Y134757
X100358Y134813
X100358Y133813
X100358Y130813
X100358Y131813
X100358Y132813
X100358Y136813
X100358Y137813
X100358Y135813
X100358Y138813
X100358Y139813
X1163Y1363
X121Y13745
X12525Y13975
X12525Y13925
X12525Y1395
X1255Y13975
X1255Y13949
X1255Y13925
X12575Y13925
X12575Y13975
X12575Y1395
X14109Y13811
X14711Y14013
X14747Y14497
X14743Y14366
X14665Y14295
X1466Y1412
X14625Y14115
X116443Y143528
X100388Y147813
X100358Y143813
X100358Y140813
X100358Y141813
X100358Y142813
X100358Y146813
X100358Y144813
X100358Y145813
T2C.012F095S3
X105808Y100413
X105958Y101613
X106808Y100413
X107808Y100413
X108808Y100413
X110808Y100413
X121408Y100413
X122408Y100413
X123408Y100413
X124408Y100413
X125408Y100413
X126408Y100413
X127408Y100413
X1275Y10215
X1281Y10211
X128408Y100413
X12905Y10243
X129408Y100413
X130408Y100413
X1305Y1029
X131408Y100413
X132408Y100413
X1334Y10235
X133408Y100413
X134408Y100413
X135408Y100413
X1359Y102505
X136408Y100413
X137408Y100413
X138408Y100413
X139408Y100413
X140408Y100413
X141408Y100413
X142408Y100413
X143408Y100413
X144408Y100413
X145408Y100413
X146408Y100413
X147408Y100413
X148408Y100413
X149408Y100413
X150408Y100413
X151408Y100413
X152408Y100413
X153408Y100413
X154408Y100413
X155408Y100413
X156408Y100413
X157408Y100413
X158408Y100413
X159408Y100413
X15545Y10515
X1358Y10375
X1353Y1042
X13295Y10445
X1325Y10445
X132Y10445
X13195Y1053
X13085Y1049
X13Y10455
X12875Y10515
X1283Y105
X127058Y104963
X126958Y105313
X126558Y104763
X119308Y105012
X1188Y10365
X117778Y1034
X117399Y10335
X11646Y104033
X1143Y10385
X11164Y10527
X11073Y105
X11039Y10498
X1062Y10305
X1053Y10323
X10497Y10507
X104658Y106913
X10871Y10697
X12049Y10583
X125558Y105663
X12667Y10553
X1275Y10575
X12755Y1076
X12785Y10568
X12789Y10766
X12814Y1058
X128258Y106213
X12873Y1065
X13Y10765
X130358Y107663
X1308Y10655
X13095Y1076
X132158Y106863
X132308Y106513
X1336Y10715
X134358Y107563
X1358Y10695
X13659Y10756
X13659Y1072
X14035Y1071
X1405Y10595
X14145Y1063
X14148Y1075
X1415Y107
X14255Y10629
X14354Y10613
X14782Y10578
X14788Y10705
X14833Y105819
X14882Y10581
X1501Y10605
X151Y10575
X151Y1072
X1536Y10585
X1559Y10585
X15585Y1098
X1555Y10905
X1554Y1083
X15395Y1081
X15325Y1095
X151Y1095
X1501Y10965
X14914Y10947
X1487Y10955
X14813Y10828
X14354Y10934
X14354Y1082
X14255Y10943
X1425Y10815
X14155Y1101
X14148Y108
X14145Y1095
X14055Y10835
X14055Y1092
X140371Y110098
X13729Y10833
X13693Y10833
X136542Y109104
X1358Y10845
X134075Y11
X1334Y11
X1334Y11035
X132558Y108763
X132158Y108463
X13178Y10999
X131458Y108713
X12995Y11035
X129258Y108113
X128508Y108663
X10871Y10862
X104358Y108713
X104058Y110463
X104308Y111933
X10629Y11107
X10835Y11236
X114904Y112641
X11965Y1128
X12185Y1128
X12185Y11248
X12185Y11215
X12185Y11182
X12685Y11045
X127958Y110763
X128058Y112313
X128558Y111063
X128808Y112013
X12905Y1124
X129058Y111663
X1292Y11275
X12955Y1114
X1299Y1125
X12995Y11285
X13102Y111
X13156Y11184
X13159Y11061
X13175Y11245
X1319Y1106
X1323Y1114
X1328Y11125
X13335Y1113
X13345Y1129
X13345Y1126
X13387Y11172
X13395Y1114
X13694Y11153
X13701Y11089
X13703Y11046
X13738Y11159
X13775Y11178
X14055Y11145
X14055Y1123
X14144Y1111
X14145Y1106
X1415Y1125
X14251Y11145
X14255Y1125
X14354Y11132
X14354Y11228
X14817Y11081
X151Y11095
X15315Y1109
X1554Y1109
X14354Y1153
X14354Y11446
X14254Y11442
X14146Y11365
X14145Y11325
X14145Y11415
X14055Y11453
X14055Y11536
X14035Y11335
X13755Y11295
X1375Y11504
X13715Y11296
X13714Y11504
X13705Y1133
X137Y1138
X1369Y1142
X13593Y11448
X13485Y1153
X13469Y11459
X13448Y11369
X13402Y11533
X13372Y11385
X1334Y11342
X13335Y1151
X13315Y11373
X1324Y1138
X13224Y11409
X13201Y11313
X13175Y11505
X13171Y11312
X13163Y11442
X13072Y1137
X1299Y11375
X129808Y115063
X129758Y114663
X12951Y11346
X12725Y11375
X12695Y11345
X12695Y11375
X12256Y11493
X12166Y11494
X11855Y1134
X117325Y115268
X114297Y113379
X10935Y1132
X10408Y11428
X103298Y115963
X10398Y11773
X115268Y117526
X115268Y117096
X115278Y116466
X11549Y11788
X11655Y116254
X11902Y11666
X11933Y11769
X12006Y11645
X1208Y11755
X122008Y115979
X1231Y11595
X12342Y11637
X123578Y117896
X123585Y117539
X12373Y11648
X124429Y117305
X12476Y11747
X12482Y11632
X12484Y11678
X12523Y11768
X12694Y11783
X1284Y11717
X12855Y11779
X12958Y11625
X1298Y117196
X13056Y117176
X131788Y11717
X1319Y11565
X132235Y117285
X13265Y11635
X13312Y11632
X13335Y1155
X13342Y11596
X13365Y11565
X13441Y11724
X13549Y11609
X13586Y11717
X13603Y11603
X13675Y1167
X13675Y1163
X14035Y11625
X14055Y11745
X14145Y11615
X14145Y1155
X14149Y11665
X1415Y11715
X14252Y11735
X14256Y11549
X14354Y11738
X148055Y117491
X15055Y1172
X15055Y1168
X152002Y116604
X1533Y116398
X1533Y115886
X1536Y116142
X15475Y11695
X15475Y1176
X15475Y11825
X15475Y11895
X15475Y11965
X1522Y118702
X149226Y118088
X14354Y11829
X14254Y11854
X1425Y12038
X1415Y1191
X14145Y11965
X14145Y11845
X14145Y12015
X14055Y11836
X14035Y1192
X137635Y11872
X136962Y118317
X13596Y11963
X13481Y12004
X13457Y11864
X13353Y11873
X1332Y118865
X13296Y11966
X13294Y12002
X13293Y118275
X13285Y11881
X132215Y118275
X13183Y11845
X131825Y119015
X13175Y11995
X13098Y11937
X13056Y11805
X13053Y11845
X12983Y11844
X1298Y11806
X12961Y11931
X12875Y11929
X12859Y11846
X12858Y11886
X12844Y11916
X12838Y11817
X12694Y11861
X12693Y11904
X1269Y11828
X12524Y11804
X12509Y11933
X12397Y11951
X12348Y12005
X12277Y12039
X12193Y12005
X12187Y1204
X12175Y1183
X121224Y120028
X1209Y11827
X11926Y11806
X11921Y11845
X117871Y11849
X1087Y11905
X10815Y12005
X1081Y11955
X10805Y1192
X108048Y11824
X10702Y12014
X10341Y11983
X10308Y11805
X102598Y119763
X102628Y121553
X10355Y12189
X1039Y12136
X1087Y12155
X11562Y1228
X11562Y12235
X11563Y1219
X117325Y120548
X11897Y12191
X11934Y12219
X11964Y12275
X120386Y121828
X12119Y12278
X12201Y12135
X12333Y12128
X12342Y12173
X12361Y12277
X12373Y12184
X12444Y12269
X12476Y1228
X12481Y12228
X12482Y12183
X12847Y12238
X12968Y12138
X1298Y122397
X12982Y122887
X13056Y122887
X13056Y122377
X13101Y12203
X131205Y12101
X132355Y122045
X13247Y12156
X13295Y12168
X13299Y12223
X133105Y12114
X13311Y12081
X13366Y12136
X13371Y1209
X1348Y12225
X1348Y12087
X135485Y12135
X135575Y12285
X13569Y12073
X13617Y12171
X13654Y12173
X13689Y12171
X13717Y1211
X13753Y1211
X137567Y12184
X14035Y12225
X14055Y1213
X14055Y12049
X14145Y1215
X1415Y1221
X14154Y12265
X14243Y12115
X14253Y12165
X14354Y12047
X14354Y12116
X148241Y121172
X14861Y12147
X14905Y12145
X15004Y12185
X15096Y1215
X151583Y121769
X15185Y1214
X15221Y12194
X15283Y12144
X153308Y120939
X15391Y12154
X154597Y121074
X154964Y12163
X154976Y122557
X155Y12215
X15587Y12194
X1573Y120562
X157378Y124319
X15589Y12322
X15585Y12463
X15495Y12492
X15495Y12529
X15418Y12459
X15387Y12381
X15266Y12354
X15263Y12409
X15261Y12444
X15124Y12338
X15017Y1249
X150016Y122994
X150016Y123309
X14989Y12406
X1498Y12454
X14955Y12295
X14354Y12415
X14354Y12345
X1425Y12473
X14248Y1234
X14242Y12416
X1415Y12514
X14145Y12445
X14144Y12315
X14055Y12349
X14055Y1243
X14035Y12525
X13751Y12416
X13715Y12416
X13689Y12455
X13666Y12492
X135942Y124045
X135859Y123575
X13583Y12517
X13546Y12523
X1348Y12533
X1348Y123
X1348Y12453
X13374Y12386
X13372Y12527
X13371Y12301
X13336Y12294
X13335Y12525
X13296Y12437
X13295Y123295
X13294Y12472
X13222Y12516
X13212Y1239
X13185Y1236
X13182Y12406
X13053Y12364
X12983Y123637
X12966Y12444
X12871Y12445
X12859Y12365
X12858Y12399
X12856Y1231
X12827Y12332
X12827Y12434
X12794Y12368
X12701Y12386
X12696Y12342
X12692Y12426
X12534Y12292
X12521Y12357
X12508Y12467
X1235Y12337
X12252Y12541
X12169Y12368
X12134Y12497
X12123Y12355
X11956Y12336
X11933Y12299
X117871Y1236
X11587Y12316
X1087Y12315
X10594Y12524
X10537Y12487
X10484Y12461
X103795Y12442
X10355Y12325
X103Y12485
X102098Y123453
X101978Y125303
X101858Y127133
X103198Y126773
X1032Y12557
X103568Y126893
X10396Y12726
X10443Y12728
X10519Y12694
X11543Y12729
X11543Y12684
X11543Y12773
X117325Y125888
X11902Y12751
X12063Y12715
X12184Y12574
X12203Y12661
X12274Y12574
X12321Y12664
X12349Y12708
X12377Y12732
X1239Y12791
X12403Y12545
X12447Y12676
X12471Y12779
X1297Y12659
X13104Y12736
X13288Y12677
X13294Y12632
X13297Y12723
X13336Y12725
X13339Y12562
X13369Y12728
X1348Y12653
X1348Y1272
X13583Y1262
X13584Y12704
X14055Y12648
X14055Y12735
X14147Y12566
X14174Y12777
X14245Y12644
X1425Y12765
X14354Y12646
X14354Y12739
X148494Y126424
X148974Y126442
X14941Y12749
X14974Y12714
X151249Y126467
X15139Y12581
X15158Y1267
X15226Y12561
X153844Y127573
X15396Y1267
X154055Y126397
X15494Y12625
X155808Y125837
X159981Y129595
X15968Y12941
X1581Y1287
X15378Y12799
X15315Y13015
X152443Y129494
X15147Y12854
X149353Y128621
X148779Y13031
X14834Y1303
X14359Y12915
X14248Y12939
X14148Y12915
X14145Y12815
X14055Y12952
X14036Y12807
X13749Y128
X13713Y128
X13628Y12925
X13617Y12817
X13459Y128145
X13444Y13005
X13408Y13005
X13367Y12803
X13331Y12886
X13293Y12843
X13292Y1292
X13291Y12952
X13291Y1288
X13226Y12801
X13215Y12917
X13209Y13031
X13187Y12891
X13084Y12961
X13057Y128179
X13057Y12854
X13055Y12895
X12984Y128929
X12982Y12818
X12981Y12855
X12972Y12979
X12868Y12978
X12861Y12894
X1286Y12815
X12683Y12955
X12678Y12909
X12647Y1287
X12619Y12967
X12615Y12895
X12611Y12844
X1249Y1284
X12473Y13014
X12389Y12827
X12385Y12866
X12359Y12809
X12168Y12886
X12122Y12899
X12119Y12858
X11942Y12859
X11909Y12812
X11901Y12846
X117871Y12892
X1155Y12879
X11543Y12819
X10685Y12945
X10525Y12995
X104986Y128638
X104453Y129075
X103993Y130325
X103893Y129945
X10389Y12911
X103493Y129095
X10186Y12898
X105636Y132389
X105984Y131407
X10689Y131324
X11195Y132
X113Y1312
X113Y1315
X11345Y1312
X11345Y1315
X11552Y1322
X11552Y13265
X117313Y131313
X11892Y13261
X11926Y13291
X12192Y13152
X12208Y13063
X12279Y13063
X12282Y13151
X12321Y1325
X124Y13061
X12615Y1329
X12652Y13237
X1284Y132
X12846Y13257
X12983Y13252
X12983Y13204
X13059Y13202
X13059Y13253
X13104Y13166
X13585Y13225
X13585Y13255
X13755Y13225
X13755Y1326
X14Y1317
X14025Y13145
X14103Y1318
X14389Y13282
X14444Y13283
X14547Y131
X148281Y131447
X149986Y131945
X15225Y1322
X15265Y13221
X153621Y132795
X15365Y1318
X15423Y13192
X15429Y13151
X15789Y1305
X15806Y13169
X15829Y1305
X15869Y1305
X15878Y131722
X15904Y1305
X159439Y131684
X159748Y130584
X159346Y133383
X158248Y133394
X15385Y13495
X153836Y134316
X153757Y133569
X15375Y134
X1537Y13465
X15252Y13434
X15144Y1349
X15135Y1342
X1513Y13525
X14525Y13421
X14239Y13424
X13881Y13513
X13768Y13481
X13736Y13508
X13205Y13393
X13186Y13366
X13068Y1342
X13058Y13293
X12986Y13293
X12973Y1342
X12862Y13424
X1286Y13359
X12825Y13394
X12821Y13292
X12691Y13348
X12689Y13313
X12647Y13434
X12615Y13327
X12494Y13312
X12494Y13353
X12479Y13424
X12391Y13406
X12386Y13439
X12384Y13327
X12371Y13374
X12356Y134
X12351Y13299
X12176Y13478
X12119Y13459
X12118Y13498
X12048Y13373
X11965Y13403
X11953Y13347
X11914Y13369
X11552Y1331
X1155Y13402
X1117Y13415
X1079Y13425
X10748Y13301
X1068Y1347
X10565Y135013
X10563Y13329
X10486Y13534
X1041Y13521
X10317Y13616
X10345Y1371
X10409Y13704
X104605Y136345
X10565Y136713
X10665Y1357
X11811Y13595
X11878Y13788
X11974Y13788
X1203Y1367
X12135Y1373
X12178Y13655
X1224Y13648
X12375Y1365
X12425Y1373
X12427Y13633
X13046Y13683
X1314Y13732
X13345Y13563
X13411Y13721
X13415Y13651
X1377Y13674
X13818Y13672
X13875Y13769
X14298Y13675
X14402Y13673
X145Y13685
X14575Y13645
X15018Y13591
X15025Y13685
X15025Y136535
X151347Y136043
X151933Y1379
X152362Y136793
X15265Y13625
X153831Y135454
X15394Y13694
X15291Y13802
X1498Y13959
X14825Y14017
X14815Y1396
X14755Y1385
X14465Y14035
X14139Y13862
X14104Y14038
X141Y1396
X13475Y1401
X13395Y138
X13053Y1393
X13052Y13801
X13051Y13875
X12915Y1398
X129Y13955
X12885Y1398
X1287Y13955
X12855Y1398
X1284Y13955
X12825Y1398
X1281Y13955
X12807Y13891
X12795Y1398
X12791Y13801
X126581Y137975
X124616Y13854
X1236Y1386
X12359Y139205
X12245Y13985
X12206Y13793
X12125Y1389
X12055Y13915
X1202Y13945
X11825Y13855
X10608Y1398
X10565Y140313
X104605Y138095
X10458Y13978
X10364Y1398
X10322Y13973
X10409Y14059
X10409Y14245
X104605Y141695
X10565Y142163
X11752Y14235
X1178Y1428
X12018Y14194
X1214Y1409
X1285Y14175
X1285Y141
X1285Y1425
X13659Y14244
X14212Y1407
X14509Y14181
X1461Y14175
X14658Y14173
X14723Y14291
X14725Y14125
X14776Y1423
X14825Y14174
X15096Y14212
X15096Y14156
X15096Y1427
X15725Y1405
X15725Y14275
X1575Y14075
X15775Y1405
X15775Y14275
X158Y14075
X15825Y1405
X15825Y14275
X1585Y14075
X15875Y1405
X15875Y14275
X159Y14075
X15925Y14275
X15925Y1405
X1595Y14075
X1595Y143
X159Y143
X1585Y143
X158Y143
X1575Y143
X14979Y14416
X1482Y14328
X14743Y14425
X14636Y14312
X14544Y14308
X14214Y14333
X14165Y1448
X14135Y14346
X14093Y14359
X1392Y14407
X13826Y1441
X1374Y1432
X13738Y1449
X13584Y14321
X13578Y1449
X13079Y14462
X12959Y14436
X12917Y1442
X12854Y1446
X1285Y144
X1285Y14325
X12835Y14515
X126Y14515
X126Y14455
X12575Y14485
X12545Y14515
X12545Y14455
X1252Y14485
X125Y14455
X125Y14515
X12095Y1452
X12074Y14355
X11756Y14538
X11696Y1453
X10964Y14475
X10565Y143913
X10505Y14423
X104605Y145295
X104605Y143495
X10409Y14414
X101208Y148613
X102008Y149413
X103008Y149613
X104008Y149613
X10408Y14577
X105008Y149613
X106008Y149613
X107008Y149613
X108008Y149613
X109008Y149613
X10964Y14575
X110008Y149613
X111008Y149613
X112008Y149613
X113008Y149613
X114008Y149613
X115008Y149613
X116008Y149613
X11652Y14665
X117008Y149613
X118008Y149613
X119008Y149613
X120008Y149613
X121008Y149613
X122008Y149613
X12245Y14653
X123008Y149613
X124008Y149613
X125Y14575
X125008Y149613
X1252Y14545
X12545Y14575
X12575Y14545
X126Y14575
X126008Y149613
X127008Y149613
X128008Y149613
X12832Y1459
X129008Y149613
X12978Y14674
X130008Y149613
X1309Y14715
X131008Y149613
X1316Y14715
X132008Y149613
X13245Y14566
X133008Y149613
X134008Y149613
X135008Y149613
X136008Y149613
X1366Y14578
X137008Y149613
X138008Y149613
X139008Y149613
X140008Y149613
X141008Y149613
X142008Y149613
X143008Y149613
X144008Y149613
X145008Y149613
X146008Y149613
X147008Y149613
X148008Y149613
X149008Y149613
X150008Y149613
X151008Y149613
X152008Y149613
X153008Y149613
X154008Y149613
X155008Y149613
X156008Y149613
X157008Y149613
X158008Y149613
X159008Y149613
X160008Y149613
X161008Y149613
X162008Y149613
X163008Y149613
T3C.016F095S3
X1121Y10808
X1129Y10542
X13115Y10265
X1339Y1146
X15255Y1304
X12835Y1285
X11495Y1322
X1102Y131363
X1098Y131363
X10925Y132
X10925Y1315
X115Y13315
X12859Y13324
X13189Y13327
T4C.01969F095S3
X158471Y10909
X15851Y109877
X159022Y10909
X159061Y109877
X159573Y10909
X159612Y109877
X160124Y10909
X160163Y109877
X160675Y10909
X160715Y109877
X161226Y10909
X161266Y109877
X161778Y10909
X161817Y109877
X162329Y10909
X162368Y109877
X16288Y10909
X162919Y109877
X162919Y111452
X16288Y110665
X16288Y11224
X162368Y111452
X162329Y110665
X162329Y11224
X161817Y111452
X161778Y110665
X161778Y11224
X161266Y111452
X161226Y110665
X161226Y11224
X160715Y111452
X160675Y11224
X160675Y110665
X160163Y111452
X160124Y110665
X160124Y11224
X159612Y111452
X159573Y11224
X159573Y110665
X159061Y111452
X159022Y11224
X159022Y110665
X15851Y111452
X158471Y110665
X158471Y11224
X158471Y113814
X15851Y113027
X15851Y114602
X159022Y113814
X159061Y113027
X159061Y114602
X159573Y113814
X159612Y113027
X159612Y114602
X160124Y113814
X160163Y113027
X160163Y114602
X160675Y113814
X160715Y114602
X160715Y113027
X161226Y113814
X161266Y113027
X161266Y114602
X161778Y113814
X161817Y113027
X161817Y114602
X162329Y113814
X162368Y114602
X162368Y113027
X16288Y113814
X162919Y113027
X162919Y114602
X162939Y119687
X1629Y1189
X162388Y119687
X162349Y1189
X161837Y119687
X161798Y1189
X161286Y119687
X161246Y1189
X160735Y119687
X160695Y1189
X160183Y119687
X160144Y1189
X159632Y119687
X159593Y1189
X159081Y119687
X159042Y1189
X15853Y119687
X158491Y1189
X158491Y120475
X158491Y12205
X15853Y121262
X15853Y122837
X159042Y120475
X159042Y12205
X159081Y121262
X159081Y122837
X159593Y120475
X159593Y12205
X159632Y121262
X159632Y122837
X160144Y120475
X160144Y12205
X160183Y121262
X160183Y122837
X160695Y12205
X160695Y120475
X160735Y122837
X160735Y121262
X161246Y120475
X161246Y12205
X161286Y121262
X161286Y122837
X161798Y120475
X161798Y12205
X161837Y121262
X161837Y122837
X162349Y120475
X162349Y12205
X162388Y121262
X162388Y122837
X1629Y12205
X1629Y120475
X162939Y121262
X162939Y122837
X162939Y124412
X1629Y123624
X162388Y124412
X162349Y123624
X161837Y124412
X161798Y123624
X161286Y124412
X161246Y123624
X160735Y124412
X160695Y123624
X160183Y124412
X160144Y123624
X159632Y124412
X159593Y123624
X159081Y124412
X159042Y123624
X15853Y124412
X158491Y123624
T5C.02F197S55
X15865Y1275
X15865Y1269
X15865Y1263
X112544Y146907
X11191Y1476
T6C.025F197S55
X11395Y10285
X11495Y10285
X11595Y10285
X11695Y10285
X11795Y10285
X11895Y10285
T7C.028F197S55
X1527Y1452
T8C.02953F197S55
X157803Y137429
X158591Y137429
X159378Y137429
X160953Y137429
X16174Y137429
X162528Y137429
X162528Y139791
X162528Y142154
X16174Y139791
X16174Y142154
X160953Y139791
X160953Y142154
X159378Y142154
X159378Y139791
X158591Y139791
X158591Y142154
X157803Y142154
X157803Y139791
T9C.0315F197S55
X12165Y10219
X12165Y102987
T10C.03543F197S55
X101646Y131665
X102646Y131665
X103646Y131665
X104646Y131665
X104646Y134028
X103646Y134028
X102646Y134028
X101646Y134028
T11C.04F139S55
X1079Y13675
X1139Y13675
X1139Y13875
X1139Y14475
X1139Y14575
X1079Y14475
X1079Y14575
X1079Y13875
T12C.04016F139S55
X107906Y107516
X107906Y122665
X15113Y122346
X15113Y137496
T13C.044F139S55
X101598Y135736
X101598Y136736
X101598Y137508
X104693Y146902
X104693Y147902
X103693Y147902
X103693Y146902
X102693Y147902
X102693Y146902
X101598Y144594
X101598Y143823
X101598Y14028
X101598Y138508
X101598Y13928
X101598Y141051
X101598Y142823
X101598Y145594
X101598Y142051
T14C.08268F074S55
X158984Y13861
X162134Y140972
T15C.1F069S658
X140677Y101622
X143433Y148394
T16C.15748F035S9
X156917Y145906
X159524Y145906
X16174Y145906
T17C.16614F035S1033
X107795Y127559
X109843Y102362
X151181Y102362
X151181Y147638
M30
