%
T1C.01F095S3
X1123Y1081
X11233Y10689
X11432Y10813
X11435Y10603
X11422Y11272
X1123Y11265
X1123Y1112
X1123Y11575
X1123Y11715
X1123Y1216
X11235Y1202
X11424Y12163
X11436Y11951
X1143Y12612
X11427Y13062
X11264Y12933
X1123Y12475
X1123Y1261
T2C.012F095S3
X10111Y10691
X1096Y1041
X1096Y1034
X11043Y10598
X1123Y10726
X11285Y1041
X11285Y1032
X11431Y10726
X12633Y10714
X12249Y10894
X11537Y11001
X11431Y10902
X1143Y1119
X11429Y11061
X11428Y1136
X1123Y11177
X112281Y108996
X112281Y113496
X11143Y10976
X10388Y10892
X10391Y11449
X11145Y11425
X112281Y117996
X112281Y116264
X11417Y11714
X11422Y118
X11426Y11499
X11426Y11626
X11521Y11454
X12257Y11448
X12263Y11858
X12267Y12246
X11521Y11889
X11505Y12353
X11433Y1225
X11429Y12076
X112281Y120764
X112281Y122496
X1115Y11874
X11148Y12325
X10389Y11907
X10351Y1243
X10352Y12843
X11146Y12776
X112281Y125264
X112281Y126996
X11412Y124
X11414Y1285
X11427Y127
X11432Y12526
X11503Y12793
X12258Y12703
X12252Y13067
X1151Y13248
X11431Y1315
X11428Y12976
X11408Y13301
X11264Y13004
X112281Y13063
X112281Y131496
X11145Y13227
X10349Y1324
X10385Y13553
X10386Y13806
X11145Y13679
X112281Y135996
X1123Y13515
X1123Y13811
X11234Y13426
X1124Y13386
X11413Y13516
X11423Y13426
X11427Y1375
X11433Y136
X11449Y13693
X12251Y13529
X12269Y1378
X11433Y13876
X11433Y1405
X11428Y13965
X11343Y1411
X11232Y13877
X1123Y1405
X1123Y13965
T3C.03937F197S55
X10181Y10605
X10181Y10505
X10281Y10605
X10281Y10505
X12392Y10605
X12392Y10505
X12492Y10505
X12492Y10605
X12492Y14081
X12492Y13981
X12392Y14081
X12392Y13981
X10281Y14081
X10281Y13981
X10181Y14081
X10181Y13981
T4C.04F139S55
X106386Y102183
X106386Y101183
X107386Y102183
X107386Y101183
X108386Y102183
X108386Y101183
X109386Y102183
X109386Y101183
X110386Y102183
X110386Y101183
X111386Y102183
X111386Y101183
X112386Y102183
X112386Y101183
X113386Y102183
X113386Y101183
X114386Y102183
X114386Y101183
X115386Y102183
X115386Y101183
X116386Y102183
X116386Y101183
X117386Y102183
X117386Y101183
X118386Y102183
X118386Y101183
X119386Y102183
X119386Y101183
X120386Y102183
X120386Y101183
X120386Y143617
X119386Y143617
X118386Y143617
X117386Y143617
X116386Y143617
X115386Y143617
X114386Y143617
X113386Y143617
X112386Y143617
X111386Y143617
X110386Y143617
X109386Y143617
X108386Y143617
X107386Y143617
X106386Y143617
X106386Y144617
X107386Y144617
X108386Y144617
X109386Y144617
X110386Y144617
X111386Y144617
X112386Y144617
X113386Y144617
X114386Y144617
X115386Y144617
X116386Y144617
X117386Y144617
X118386Y144617
X119386Y144617
X120386Y144617
T5C.05512F107S55
X105512Y1059
X105512Y1079
X12126Y1059
X12126Y1079
X12126Y1099
X12126Y1119
X12126Y1139
X12126Y1159
X105512Y1159
X105512Y1139
X105512Y1119
X105512Y1099
X105512Y1179
X105512Y1199
X105512Y1219
X12126Y1199
X12126Y1179
X12126Y1219
X12126Y1239
X12126Y1259
X12126Y1279
X105512Y1239
X105512Y1279
X105512Y1259
X105512Y1299
X105512Y1319
X105512Y1359
X105512Y1339
X12126Y1339
X12126Y1299
X12126Y1319
X12126Y1359
X12126Y1379
X12126Y1399
X105512Y1399
X105512Y1379
T6C.09449F066S55
X105512Y1039
X12126Y1039
X12126Y1419
X105512Y1419
T7C.26896F0S0
X102165Y102165
X124606Y102165
X124606Y143634
X102165Y143634
M30
