*
*
G04 PADS 9.3 Build Number: 433611 generated Gerber (RS-274-X) file*
G04 PC Version=2.1*
*
%IN "EEC-NGP_Rev_A.pcb"*%
*
%MOIN*%
*
%FSLAX35Y35*%
*
*
*
*
G04 PC Standard Apertures*
*
*
G04 Thermal Relief Aperture macro.*
%AMTER*
1,1,$1,0,0*
1,0,$1-$2,0,0*
21,0,$3,$4,0,0,45*
21,0,$3,$4,0,0,135*
%
*
*
G04 Annular Aperture macro.*
%AMANN*
1,1,$1,0,0*
1,0,$2,0,0*
%
*
*
G04 Odd Aperture macro.*
%AMODD*
1,1,$1,0,0*
1,0,$1-0.005,0,0*
%
*
*
G04 PC Custom Aperture Macros*
*
*
*
*
*
*
G04 PC Aperture Table*
*
%ADD010C,0.001*%
%ADD019C,0.01*%
%ADD020C,0.015*%
%ADD055R,0.02756X0.0689*%
*
*
*
*
G04 PC Circuitry*
G04 Layer Name EEC-NGP_Rev_A.pcb - circuitry*
%LPD*%
*
*
G04 PC Custom Flashes*
G04 Layer Name EEC-NGP_Rev_A.pcb - flashes*
%LPD*%
*
*
G04 PC Circuitry*
G04 Layer Name EEC-NGP_Rev_A.pcb - circuitry*
%LPD*%
*
G54D10*
G01X99997Y100000D02*
Y359992D01*
X109997Y369992*
X409979*
X419989Y359983*
Y100000*
X99997*
G54D19*
X98909Y499400D02*
X98682Y500025D01*
X98227Y500650*
X97773Y500963*
X97773D02*
X96864D01*
X96864D02*
X96409Y500650D01*
X95955Y500025*
X95727Y499400*
X95500Y498463*
X95500D02*
Y496900D01*
X95727Y495963*
X95727D02*
X95955Y495338D01*
X95955D02*
X96409Y494713D01*
X96409D02*
X96864Y494400D01*
X97773*
X98227Y494713*
X98227D02*
X98682Y495338D01*
X98682D02*
X98909Y495963D01*
X102318Y500963D02*
X101864Y500650D01*
X101409Y500025*
X101182Y499400*
X100955Y498463*
X100955D02*
Y496900D01*
X101182Y495963*
X101182D02*
X101409Y495338D01*
X101409D02*
X101864Y494713D01*
X101864D02*
X102318Y494400D01*
X103227*
X103682Y494713*
X103682D02*
X104136Y495338D01*
X104136D02*
X104364Y495963D01*
X104364D02*
X104591Y496900D01*
Y498463*
X104591D02*
X104364Y499400D01*
X104136Y500025*
X103682Y500650*
X103227Y500963*
X103227D02*
X102318D01*
X106636D02*
Y494400D01*
Y500963D02*
X108455Y494400D01*
X110273Y500963D02*
X108455Y494400D01*
X110273Y500963D02*
Y494400D01*
X112318Y500963D02*
Y494400D01*
Y500963D02*
X114364D01*
X114364D02*
X115045Y500650D01*
X115273Y500338*
X115273D02*
X115500Y499713D01*
X115500D02*
Y498775D01*
X115273Y498150*
X115045Y497838*
X115045D02*
X114364Y497525D01*
X112318*
X117545Y500963D02*
Y494400D01*
Y500963D02*
X119591D01*
X119591D02*
X120273Y500650D01*
X120500Y500338*
X120500D02*
X120727Y499713D01*
X120727D02*
Y499088D01*
X120727D02*
X120500Y498463D01*
X120500D02*
X120273Y498150D01*
X119591Y497838*
X119591D02*
X117545D01*
X119136D02*
X120727Y494400D01*
X122773Y500963D02*
Y494400D01*
Y500963D02*
X125727D01*
X122773Y497838D02*
X124591D01*
X122773Y494400D02*
X125727D01*
X130955Y500025D02*
X130500Y500650D01*
X129818Y500963*
X129818D02*
X128909D01*
X128909D02*
X128227Y500650D01*
X127773Y500025*
Y499400*
X128000Y498775*
X128227Y498463*
X128227D02*
X128682Y498150D01*
X130045Y497525*
X130500Y497213*
X130500D02*
X130727Y496900D01*
X130955Y496275*
Y495338*
X130955D02*
X130500Y494713D01*
X130500D02*
X129818Y494400D01*
X128909*
X128227Y494713*
X128227D02*
X127773Y495338D01*
X136182Y500025D02*
X135727Y500650D01*
X135045Y500963*
X135045D02*
X134136D01*
X134136D02*
X133455Y500650D01*
X133000Y500025*
Y499400*
X133227Y498775*
X133455Y498463*
X133455D02*
X133909Y498150D01*
X135273Y497525*
X135727Y497213*
X135727D02*
X135955Y496900D01*
X136182Y496275*
Y495338*
X136182D02*
X135727Y494713D01*
X135727D02*
X135045Y494400D01*
X134136*
X133455Y494713*
X133455D02*
X133000Y495338D01*
X139591Y500963D02*
X139136Y500650D01*
X138682Y500025*
X138455Y499400*
X138227Y498463*
X138227D02*
Y496900D01*
X138455Y495963*
X138455D02*
X138682Y495338D01*
X138682D02*
X139136Y494713D01*
X139136D02*
X139591Y494400D01*
X140500*
X140955Y494713*
X140955D02*
X141409Y495338D01*
X141409D02*
X141636Y495963D01*
X141636D02*
X141864Y496900D01*
Y498463*
X141864D02*
X141636Y499400D01*
X141409Y500025*
X140955Y500650*
X140500Y500963*
X140500D02*
X139591D01*
X143909D02*
Y494400D01*
Y500963D02*
X145955D01*
X145955D02*
X146636Y500650D01*
X146864Y500338*
X146864D02*
X147091Y499713D01*
X147091D02*
Y499088D01*
X147091D02*
X146864Y498463D01*
X146864D02*
X146636Y498150D01*
X145955Y497838*
X145955D02*
X143909D01*
X145500D02*
X147091Y494400D01*
X157773Y499400D02*
X157545Y500025D01*
X157091Y500650*
X156636Y500963*
X156636D02*
X155727D01*
X155727D02*
X155273Y500650D01*
X154818Y500025*
X154591Y499400*
X154364Y498463*
X154364D02*
Y496900D01*
X154591Y495963*
X154591D02*
X154818Y495338D01*
X154818D02*
X155273Y494713D01*
X155273D02*
X155727Y494400D01*
X156636*
X157091Y494713*
X157091D02*
X157545Y495338D01*
X157545D02*
X157773Y495963D01*
X161182Y500963D02*
X160727Y500650D01*
X160273Y500025*
X160045Y499400*
X159818Y498463*
X159818D02*
Y496900D01*
X160045Y495963*
X160045D02*
X160273Y495338D01*
X160273D02*
X160727Y494713D01*
X160727D02*
X161182Y494400D01*
X162091*
X162545Y494713*
X162545D02*
X163000Y495338D01*
X163000D02*
X163227Y495963D01*
X163227D02*
X163455Y496900D01*
Y498463*
X163455D02*
X163227Y499400D01*
X163000Y500025*
X162545Y500650*
X162091Y500963*
X162091D02*
X161182D01*
X165500D02*
Y494400D01*
Y500963D02*
X168682Y494400D01*
Y500963D02*
Y494400D01*
X172318Y500963D02*
Y494400D01*
X170727Y500963D02*
X173909D01*
X175955D02*
Y494400D01*
Y500963D02*
X178000D01*
X178000D02*
X178682Y500650D01*
X178909Y500338*
X178909D02*
X179136Y499713D01*
X179136D02*
Y499088D01*
X179136D02*
X178909Y498463D01*
X178909D02*
X178682Y498150D01*
X178000Y497838*
X178000D02*
X175955D01*
X177545D02*
X179136Y494400D01*
X182545Y500963D02*
X182091Y500650D01*
X181636Y500025*
X181409Y499400*
X181182Y498463*
X181182D02*
Y496900D01*
X181409Y495963*
X181409D02*
X181636Y495338D01*
X181636D02*
X182091Y494713D01*
X182091D02*
X182545Y494400D01*
X183455*
X183909Y494713*
X183909D02*
X184364Y495338D01*
X184364D02*
X184591Y495963D01*
X184591D02*
X184818Y496900D01*
Y498463*
X184818D02*
X184591Y499400D01*
X184364Y500025*
X183909Y500650*
X183455Y500963*
X183455D02*
X182545D01*
X186864D02*
Y494400D01*
X189591*
X194818Y500025D02*
X194364Y500650D01*
X193682Y500963*
X193682D02*
X192773D01*
X192773D02*
X192091Y500650D01*
X191636Y500025*
Y499400*
X191864Y498775*
X192091Y498463*
X192091D02*
X192545Y498150D01*
X193909Y497525*
X194364Y497213*
X194364D02*
X194591Y496900D01*
X194818Y496275*
Y495338*
X194818D02*
X194364Y494713D01*
X194364D02*
X193682Y494400D01*
X192773*
X192091Y494713*
X192091D02*
X191636Y495338D01*
X205500Y499400D02*
X205273Y500025D01*
X204818Y500650*
X204364Y500963*
X204364D02*
X203455D01*
X203455D02*
X203000Y500650D01*
X202545Y500025*
X202318Y499400*
X202091Y498463*
X202091D02*
Y496900D01*
X202318Y495963*
X202318D02*
X202545Y495338D01*
X202545D02*
X203000Y494713D01*
X203000D02*
X203455Y494400D01*
X204364*
X204818Y494713*
X204818D02*
X205273Y495338D01*
X205273D02*
X205500Y495963D01*
X208909Y500963D02*
X208455Y500650D01*
X208000Y500025*
X207773Y499400*
X207545Y498463*
X207545D02*
Y496900D01*
X207773Y495963*
X207773D02*
X208000Y495338D01*
X208000D02*
X208455Y494713D01*
X208455D02*
X208909Y494400D01*
X209818*
X210273Y494713*
X210273D02*
X210727Y495338D01*
X210727D02*
X210955Y495963D01*
X210955D02*
X211182Y496900D01*
Y498463*
X211182D02*
X210955Y499400D01*
X210727Y500025*
X210273Y500650*
X209818Y500963*
X209818D02*
X208909D01*
X213227D02*
Y494400D01*
Y500963D02*
X215273D01*
X215273D02*
X215955Y500650D01*
X216182Y500338*
X216182D02*
X216409Y499713D01*
X216409D02*
Y499088D01*
X216409D02*
X216182Y498463D01*
X216182D02*
X215955Y498150D01*
X215273Y497838*
X215273D02*
X213227D01*
X214818D02*
X216409Y494400D01*
X218455Y500963D02*
Y494400D01*
Y500963D02*
X220500D01*
X220500D02*
X221182Y500650D01*
X221409Y500338*
X221409D02*
X221636Y499713D01*
X221636D02*
Y498775D01*
X221409Y498150*
X221182Y497838*
X221182D02*
X220500Y497525D01*
X218455*
X225045Y500963D02*
X224591Y500650D01*
X224136Y500025*
X223909Y499400*
X223682Y498463*
X223682D02*
Y496900D01*
X223909Y495963*
X223909D02*
X224136Y495338D01*
X224136D02*
X224591Y494713D01*
X224591D02*
X225045Y494400D01*
X225955*
X226409Y494713*
X226409D02*
X226864Y495338D01*
X226864D02*
X227091Y495963D01*
X227091D02*
X227318Y496900D01*
Y498463*
X227318D02*
X227091Y499400D01*
X226864Y500025*
X226409Y500650*
X225955Y500963*
X225955D02*
X225045D01*
X229364D02*
Y494400D01*
Y500963D02*
X231409D01*
X231409D02*
X232091Y500650D01*
X232318Y500338*
X232318D02*
X232545Y499713D01*
X232545D02*
Y499088D01*
X232545D02*
X232318Y498463D01*
X232318D02*
X232091Y498150D01*
X231409Y497838*
X231409D02*
X229364D01*
X230955D02*
X232545Y494400D01*
X236409Y500963D02*
X234591Y494400D01*
X236409Y500963D02*
X238227Y494400D01*
X235273Y496588D02*
X237545D01*
X241864Y500963D02*
Y494400D01*
X240273Y500963D02*
X243455D01*
X245500D02*
Y494400D01*
X248909Y500963D02*
X248455Y500650D01*
X248000Y500025*
X247773Y499400*
X247545Y498463*
X247545D02*
Y496900D01*
X247773Y495963*
X247773D02*
X248000Y495338D01*
X248000D02*
X248455Y494713D01*
X248455D02*
X248909Y494400D01*
X249818*
X250273Y494713*
X250273D02*
X250727Y495338D01*
X250727D02*
X250955Y495963D01*
X250955D02*
X251182Y496900D01*
Y498463*
X251182D02*
X250955Y499400D01*
X250727Y500025*
X250273Y500650*
X249818Y500963*
X249818D02*
X248909D01*
X253227D02*
Y494400D01*
Y500963D02*
X256409Y494400D01*
Y500963D02*
Y494400D01*
X95000Y485713D02*
X95455Y486025D01*
X96136Y486963*
X96136D02*
Y480400D01*
X101364Y486963D02*
X99091Y480400D01*
X98182Y486963D02*
X101364D01*
X103409Y483213D02*
X107500D01*
X112273Y486025D02*
X112045Y486650D01*
X111364Y486963*
X111364D02*
X110909D01*
X110909D02*
X110227Y486650D01*
X109773Y485713*
X109773D02*
X109545Y484150D01*
Y482588*
X109545D02*
X109773Y481338D01*
X109773D02*
X110227Y480713D01*
X110227D02*
X110909Y480400D01*
X111136*
X111818Y480713*
X111818D02*
X112273Y481338D01*
X112273D02*
X112500Y482275D01*
Y482588*
X112500D02*
X112273Y483525D01*
X111818Y484150*
X111136Y484463*
X111136D02*
X110909D01*
X110909D02*
X110227Y484150D01*
X109773Y483525*
X109545Y482588*
X115909Y486963D02*
X115227Y486650D01*
X114773Y485713*
X114773D02*
X114545Y484150D01*
Y483213*
X114545D02*
X114773Y481650D01*
X115227Y480713*
X115227D02*
X115909Y480400D01*
X116364*
X117045Y480713*
X117045D02*
X117500Y481650D01*
X117727Y483213*
X117727D02*
Y484150D01*
X117500Y485713*
X117500D02*
X117045Y486650D01*
X116364Y486963*
X116364D02*
X115909D01*
X121136D02*
X120455Y486650D01*
X120000Y485713*
X120000D02*
X119773Y484150D01*
Y483213*
X119773D02*
X120000Y481650D01*
X120455Y480713*
X120455D02*
X121136Y480400D01*
X121591*
X122273Y480713*
X122273D02*
X122727Y481650D01*
X122955Y483213*
X122955D02*
Y484150D01*
X122727Y485713*
X122727D02*
X122273Y486650D01*
X121591Y486963*
X121591D02*
X121136D01*
X127273D02*
X125000Y482588D01*
X125000D02*
X128409D01*
X127273Y486963D02*
Y480400D01*
X130455Y485713D02*
X130909Y486025D01*
X131591Y486963*
X131591D02*
Y480400D01*
X135000Y486963D02*
X134318Y486650D01*
X133864Y485713*
X133864D02*
X133636Y484150D01*
Y483213*
X133636D02*
X133864Y481650D01*
X134318Y480713*
X134318D02*
X135000Y480400D01*
X135455*
X136136Y480713*
X136136D02*
X136591Y481650D01*
X136818Y483213*
X136818D02*
Y484150D01*
X136591Y485713*
X136591D02*
X136136Y486650D01*
X135455Y486963*
X135455D02*
X135000D01*
X138864Y483213D02*
X142955D01*
X146364Y486963D02*
X145682Y486650D01*
X145227Y485713*
X145227D02*
X145000Y484150D01*
Y483213*
X145000D02*
X145227Y481650D01*
X145682Y480713*
X145682D02*
X146364Y480400D01*
X146818*
X147500Y480713*
X147500D02*
X147955Y481650D01*
X148182Y483213*
X148182D02*
Y484150D01*
X147955Y485713*
X147955D02*
X147500Y486650D01*
X146818Y486963*
X146818D02*
X146364D01*
X151591D02*
X150909Y486650D01*
X150455Y485713*
X150455D02*
X150227Y484150D01*
Y483213*
X150227D02*
X150455Y481650D01*
X150909Y480713*
X150909D02*
X151591Y480400D01*
X152045*
X152727Y480713*
X152727D02*
X153182Y481650D01*
X153409Y483213*
X153409D02*
Y484150D01*
X153182Y485713*
X153182D02*
X152727Y486650D01*
X152045Y486963*
X152045D02*
X151591D01*
X155455Y485713D02*
X155909Y486025D01*
X156591Y486963*
X156591D02*
Y480400D01*
X163864Y486963D02*
Y480400D01*
Y486963D02*
X165909D01*
X165909D02*
X166591Y486650D01*
X166818Y486338*
X166818D02*
X167045Y485713D01*
X167045D02*
Y485088D01*
X167045D02*
X166818Y484463D01*
X166818D02*
X166591Y484150D01*
X165909Y483838*
X165909D02*
X163864D01*
X165455D02*
X167045Y480400D01*
X169091Y486963D02*
Y480400D01*
Y486963D02*
X172045D01*
X169091Y483838D02*
X170909D01*
X169091Y480400D02*
X172045D01*
X174091Y486963D02*
X175909Y480400D01*
X177727Y486963D02*
X175909Y480400D01*
X186818Y486963D02*
X185000Y480400D01*
X186818Y486963D02*
X188636Y480400D01*
X185682Y482588D02*
X187955D01*
X96500Y473963D02*
Y467400D01*
Y473963D02*
X98091D01*
X98091D02*
X98773Y473650D01*
X99227Y473025*
X99455Y472400*
X99682Y471463*
X99682D02*
Y469900D01*
X99455Y468963*
X99455D02*
X99227Y468338D01*
X99227D02*
X98773Y467713D01*
X98773D02*
X98091Y467400D01*
X96500*
X103545Y473963D02*
X101727Y467400D01*
X103545Y473963D02*
X105364Y467400D01*
X102409Y469588D02*
X104682D01*
X109000Y473963D02*
Y467400D01*
X107409Y473963D02*
X110591D01*
X112636D02*
Y467400D01*
Y473963D02*
X115591D01*
X112636Y470838D02*
X114455D01*
X112636Y467400D02*
X115591D01*
X117864Y471775D02*
X117636Y471463D01*
X117636D02*
X117864Y471150D01*
X118091Y471463*
X118091D02*
X117864Y471775D01*
Y468025D02*
X117636Y467713D01*
X117636D02*
X117864Y467400D01*
X118091Y467713*
X118091D02*
X117864Y468025D01*
X125364Y472713D02*
X125818Y473025D01*
X126500Y473963*
X126500D02*
Y467400D01*
X128545Y472713D02*
X129000Y473025D01*
X129682Y473963*
X129682D02*
Y467400D01*
X131727Y470213D02*
X135818D01*
X137864Y472713D02*
X138318Y473025D01*
X139000Y473963*
X139000D02*
Y467400D01*
X144000Y471775D02*
X143773Y470838D01*
X143773D02*
X143318Y470213D01*
X143318D02*
X142636Y469900D01*
X142409*
X141727Y470213*
X141727D02*
X141273Y470838D01*
X141273D02*
X141045Y471775D01*
Y472088*
X141045D02*
X141273Y473025D01*
X141727Y473650*
X142409Y473963*
X142409D02*
X142636D01*
X142636D02*
X143318Y473650D01*
X143773Y473025*
X144000Y471775*
Y470213*
X144000D02*
X143773Y468650D01*
X143318Y467713*
X143318D02*
X142636Y467400D01*
X142182*
X141500Y467713*
X141500D02*
X141273Y468338D01*
X146045Y470213D02*
X150136D01*
X152182Y472713D02*
X152636Y473025D01*
X153318Y473963*
X153318D02*
Y467400D01*
X155591Y472400D02*
Y472713D01*
X155591D02*
X155818Y473338D01*
X155818D02*
X156045Y473650D01*
X156500Y473963*
X156500D02*
X157409D01*
X157409D02*
X157864Y473650D01*
X158091Y473338*
X158091D02*
X158318Y472713D01*
X158318D02*
Y472088D01*
X158318D02*
X158091Y471463D01*
X158091D02*
X157636Y470525D01*
X155364Y467400*
X158545*
X289000Y478463D02*
Y471900D01*
X291727*
X295591Y478463D02*
X293773Y471900D01*
X295591Y478463D02*
X297409Y471900D01*
X294455Y474088D02*
X296727D01*
X299455Y478463D02*
X301273Y475338D01*
X301273D02*
Y471900D01*
X303091Y478463D02*
X301273Y475338D01*
X305136Y478463D02*
Y471900D01*
Y478463D02*
X308091D01*
X305136Y475338D02*
X306955D01*
X305136Y471900D02*
X308091D01*
X310136Y478463D02*
Y471900D01*
Y478463D02*
X312182D01*
X312182D02*
X312864Y478150D01*
X313091Y477838*
X313091D02*
X313318Y477213D01*
X313318D02*
Y476588D01*
X313318D02*
X313091Y475963D01*
X313091D02*
X312864Y475650D01*
X312182Y475338*
X312182D02*
X310136D01*
X311727D02*
X313318Y471900D01*
X289000Y463463D02*
Y456900D01*
Y463463D02*
X291045D01*
X291045D02*
X291727Y463150D01*
X291955Y462838*
X291955D02*
X292182Y462213D01*
X292182D02*
Y461275D01*
X291955Y460650*
X291727Y460338*
X291727D02*
X291045Y460025D01*
X289000*
X296045Y463463D02*
X294227Y456900D01*
X296045Y463463D02*
X297864Y456900D01*
X294909Y459088D02*
X297182D01*
X299909Y463463D02*
Y456900D01*
Y463463D02*
X301955D01*
X301955D02*
X302636Y463150D01*
X302864Y462838*
X302864D02*
X303091Y462213D01*
X303091D02*
Y461588D01*
X303091D02*
X302864Y460963D01*
X302864D02*
X302636Y460650D01*
X301955Y460338*
X301955D02*
X299909D01*
X301500D02*
X303091Y456900D01*
X306727Y463463D02*
Y456900D01*
X305136Y463463D02*
X308318D01*
X315591D02*
Y456900D01*
Y463463D02*
X318773Y456900D01*
Y463463D02*
Y456900D01*
X322182Y463463D02*
X321727Y463150D01*
X321273Y462525*
X321045Y461900*
X320818Y460963*
X320818D02*
Y459400D01*
X321045Y458463*
X321045D02*
X321273Y457838D01*
X321273D02*
X321727Y457213D01*
X321727D02*
X322182Y456900D01*
X323091*
X323545Y457213*
X323545D02*
X324000Y457838D01*
X324000D02*
X324227Y458463D01*
X324227D02*
X324455Y459400D01*
Y460963*
X324455D02*
X324227Y461900D01*
X324000Y462525*
X323545Y463150*
X323091Y463463*
X323091D02*
X322182D01*
X289000Y448463D02*
Y441900D01*
Y448463D02*
X291045D01*
X291045D02*
X291727Y448150D01*
X291955Y447838*
X291955D02*
X292182Y447213D01*
X292182D02*
Y446588D01*
X292182D02*
X291955Y445963D01*
X291955D02*
X291727Y445650D01*
X291045Y445338*
X291045D02*
X289000D01*
X290591D02*
X292182Y441900D01*
X294227Y448463D02*
Y441900D01*
Y448463D02*
X297182D01*
X294227Y445338D02*
X296045D01*
X294227Y441900D02*
X297182D01*
X299227Y448463D02*
X301045Y441900D01*
X302864Y448463D02*
X301045Y441900D01*
X344400Y478963D02*
Y472400D01*
Y478963D02*
X346445D01*
X346445D02*
X347127Y478650D01*
X347355Y478338*
X347355D02*
X347582Y477713D01*
X347582D02*
Y476775D01*
X347355Y476150*
X347127Y475838*
X347127D02*
X346445Y475525D01*
X344400*
X351445Y478963D02*
X349627Y472400D01*
X351445Y478963D02*
X353264Y472400D01*
X350309Y474588D02*
X352582D01*
X358491Y478025D02*
X358036Y478650D01*
X357355Y478963*
X357355D02*
X356445D01*
X356445D02*
X355764Y478650D01*
X355309Y478025*
Y477400*
X355536Y476775*
X355764Y476463*
X355764D02*
X356218Y476150D01*
X357582Y475525*
X358036Y475213*
X358036D02*
X358264Y474900D01*
X358491Y474275*
Y473338*
X358491D02*
X358036Y472713D01*
X358036D02*
X357355Y472400D01*
X356445*
X355764Y472713*
X355764D02*
X355309Y473338D01*
X362127Y478963D02*
Y472400D01*
X360536Y478963D02*
X363718D01*
X365764D02*
Y472400D01*
Y478963D02*
X368718D01*
X365764Y475838D02*
X367582D01*
X365764Y472400D02*
X368718D01*
X370764Y478963D02*
Y472400D01*
Y478963D02*
X372582Y472400D01*
X374400Y478963D02*
X372582Y472400D01*
X374400Y478963D02*
Y472400D01*
X378264Y478963D02*
X376445Y472400D01*
X378264Y478963D02*
X380082Y472400D01*
X377127Y474588D02*
X379400D01*
X385309Y478025D02*
X384855Y478650D01*
X384173Y478963*
X384173D02*
X383264D01*
X383264D02*
X382582Y478650D01*
X382127Y478025*
Y477400*
X382355Y476775*
X382582Y476463*
X382582D02*
X383036Y476150D01*
X384400Y475525*
X384855Y475213*
X384855D02*
X385082Y474900D01*
X385309Y474275*
Y473338*
X385309D02*
X384855Y472713D01*
X384855D02*
X384173Y472400D01*
X383264*
X382582Y472713*
X382582D02*
X382127Y473338D01*
X387355Y478963D02*
Y472400D01*
X390536Y478963D02*
X387355Y474588D01*
X388491Y476150D02*
X390536Y472400D01*
X399400Y478963D02*
Y472400D01*
X397809Y478963D02*
X400991D01*
X404400D02*
X403945Y478650D01*
X403491Y478025*
X403264Y477400*
X403036Y476463*
X403036D02*
Y474900D01*
X403264Y473963*
X403264D02*
X403491Y473338D01*
X403491D02*
X403945Y472713D01*
X403945D02*
X404400Y472400D01*
X405309*
X405764Y472713*
X405764D02*
X406218Y473338D01*
X406218D02*
X406445Y473963D01*
X406445D02*
X406673Y474900D01*
Y476463*
X406673D02*
X406445Y477400D01*
X406218Y478025*
X405764Y478650*
X405309Y478963*
X405309D02*
X404400D01*
X408718D02*
Y472400D01*
Y478963D02*
X410764D01*
X410764D02*
X411445Y478650D01*
X411673Y478338*
X411673D02*
X411900Y477713D01*
X411900D02*
Y476775D01*
X411673Y476150*
X411445Y475838*
X411445D02*
X410764Y475525D01*
X408718*
X349000Y462213D02*
X349455Y462525D01*
X350136Y463463*
X350136D02*
Y456900D01*
X355364Y463463D02*
X353091Y456900D01*
X352182Y463463D02*
X355364D01*
X357409Y459713D02*
X361500D01*
X366273Y462525D02*
X366045Y463150D01*
X365364Y463463*
X365364D02*
X364909D01*
X364909D02*
X364227Y463150D01*
X363773Y462213*
X363773D02*
X363545Y460650D01*
Y459088*
X363545D02*
X363773Y457838D01*
X363773D02*
X364227Y457213D01*
X364227D02*
X364909Y456900D01*
X365136*
X365818Y457213*
X365818D02*
X366273Y457838D01*
X366273D02*
X366500Y458775D01*
Y459088*
X366500D02*
X366273Y460025D01*
X365818Y460650*
X365136Y460963*
X365136D02*
X364909D01*
X364909D02*
X364227Y460650D01*
X363773Y460025*
X363545Y459088*
X369909Y463463D02*
X369227Y463150D01*
X368773Y462213*
X368773D02*
X368545Y460650D01*
Y459713*
X368545D02*
X368773Y458150D01*
X369227Y457213*
X369227D02*
X369909Y456900D01*
X370364*
X371045Y457213*
X371045D02*
X371500Y458150D01*
X371727Y459713*
X371727D02*
Y460650D01*
X371500Y462213*
X371500D02*
X371045Y463150D01*
X370364Y463463*
X370364D02*
X369909D01*
X375136D02*
X374455Y463150D01*
X374000Y462213*
X374000D02*
X373773Y460650D01*
Y459713*
X373773D02*
X374000Y458150D01*
X374455Y457213*
X374455D02*
X375136Y456900D01*
X375591*
X376273Y457213*
X376273D02*
X376727Y458150D01*
X376955Y459713*
X376955D02*
Y460650D01*
X376727Y462213*
X376727D02*
X376273Y463150D01*
X375591Y463463*
X375591D02*
X375136D01*
X381273D02*
X379000Y459088D01*
X379000D02*
X382409D01*
X381273Y463463D02*
Y456900D01*
X384455Y462213D02*
X384909Y462525D01*
X385591Y463463*
X385591D02*
Y456900D01*
X389000Y463463D02*
X388318Y463150D01*
X387864Y462213*
X387864D02*
X387636Y460650D01*
Y459713*
X387636D02*
X387864Y458150D01*
X388318Y457213*
X388318D02*
X389000Y456900D01*
X389455*
X390136Y457213*
X390136D02*
X390591Y458150D01*
X390818Y459713*
X390818D02*
Y460650D01*
X390591Y462213*
X390591D02*
X390136Y463150D01*
X389455Y463463*
X389455D02*
X389000D01*
X392864Y459713D02*
X396955D01*
X400364Y463463D02*
X399682Y463150D01*
X399227Y462213*
X399227D02*
X399000Y460650D01*
Y459713*
X399000D02*
X399227Y458150D01*
X399682Y457213*
X399682D02*
X400364Y456900D01*
X400818*
X401500Y457213*
X401500D02*
X401955Y458150D01*
X402182Y459713*
X402182D02*
Y460650D01*
X401955Y462213*
X401955D02*
X401500Y463150D01*
X400818Y463463*
X400818D02*
X400364D01*
X405591D02*
X404909Y463150D01*
X404455Y462213*
X404455D02*
X404227Y460650D01*
Y459713*
X404227D02*
X404455Y458150D01*
X404909Y457213*
X404909D02*
X405591Y456900D01*
X406045*
X406727Y457213*
X406727D02*
X407182Y458150D01*
X407409Y459713*
X407409D02*
Y460650D01*
X407182Y462213*
X407182D02*
X406727Y463150D01*
X406045Y463463*
X406045D02*
X405591D01*
X409455Y462213D02*
X409909Y462525D01*
X410591Y463463*
X410591D02*
Y456900D01*
X375818Y448463D02*
X374000Y441900D01*
X375818Y448463D02*
X377636Y441900D01*
X374682Y444088D02*
X376955D01*
X288000Y432963D02*
Y426400D01*
Y432963D02*
X289591D01*
X289591D02*
X290273Y432650D01*
X290727Y432025*
X290955Y431400*
X291182Y430463*
X291182D02*
Y428900D01*
X290955Y427963*
X290955D02*
X290727Y427338D01*
X290727D02*
X290273Y426713D01*
X290273D02*
X289591Y426400D01*
X288000*
X295045Y432963D02*
X293227Y426400D01*
X295045Y432963D02*
X296864Y426400D01*
X293909Y428588D02*
X296182D01*
X300500Y432963D02*
Y426400D01*
X298909Y432963D02*
X302091D01*
X304136D02*
Y426400D01*
Y432963D02*
X307091D01*
X304136Y429838D02*
X305955D01*
X304136Y426400D02*
X307091D01*
X349000Y431713D02*
X349455Y432025D01*
X350136Y432963*
X350136D02*
Y426400D01*
X355136Y430775D02*
X354909Y429838D01*
X354909D02*
X354455Y429213D01*
X354455D02*
X353773Y428900D01*
X353545*
X352864Y429213*
X352864D02*
X352409Y429838D01*
X352409D02*
X352182Y430775D01*
Y431088*
X352182D02*
X352409Y432025D01*
X352864Y432650*
X353545Y432963*
X353545D02*
X353773D01*
X353773D02*
X354455Y432650D01*
X354909Y432025*
X355136Y430775*
Y429213*
X355136D02*
X354909Y427650D01*
X354455Y426713*
X354455D02*
X353773Y426400D01*
X353318*
X352636Y426713*
X352636D02*
X352409Y427338D01*
X362409Y432963D02*
Y426400D01*
Y432963D02*
X365591Y426400D01*
Y432963D02*
Y426400D01*
X368773Y430775D02*
X368318Y430463D01*
X368318D02*
X367864Y429838D01*
X367864D02*
X367636Y428900D01*
Y428275*
X367864Y427338*
X367864D02*
X368318Y426713D01*
X368318D02*
X368773Y426400D01*
X369455*
X369909Y426713*
X369909D02*
X370364Y427338D01*
X370364D02*
X370591Y428275D01*
Y428900*
X370364Y429838*
X370364D02*
X369909Y430463D01*
X369909D02*
X369455Y430775D01*
X368773*
X372636D02*
X374000Y426400D01*
X375364Y430775D02*
X374000Y426400D01*
X377409Y428900D02*
X380136D01*
Y429525*
X379909Y430150*
X379682Y430463*
X379682D02*
X379227Y430775D01*
X378545*
X378091Y430463*
X378091D02*
X377636Y429838D01*
X377636D02*
X377409Y428900D01*
Y428275*
X377636Y427338*
X377636D02*
X378091Y426713D01*
X378091D02*
X378545Y426400D01*
X379227*
X379682Y426713*
X379682D02*
X380136Y427338D01*
X382182Y430775D02*
Y426400D01*
Y429525D02*
X382864Y430463D01*
X382864D02*
X383318Y430775D01*
X384000*
X384455Y430463*
X384455D02*
X384682Y429525D01*
Y426400*
Y429525D02*
X385364Y430463D01*
X385364D02*
X385818Y430775D01*
X386500*
X386955Y430463*
X386955D02*
X387182Y429525D01*
Y426400*
X389227Y432963D02*
Y426400D01*
Y429838D02*
X389682Y430463D01*
X389682D02*
X390136Y430775D01*
X390818*
X391273Y430463*
X391273D02*
X391727Y429838D01*
X391727D02*
X391955Y428900D01*
Y428275*
X391727Y427338*
X391727D02*
X391273Y426713D01*
X391273D02*
X390818Y426400D01*
X390136*
X389682Y426713*
X389682D02*
X389227Y427338D01*
X394000Y428900D02*
X396727D01*
Y429525*
X396500Y430150*
X396273Y430463*
X396273D02*
X395818Y430775D01*
X395136*
X394682Y430463*
X394682D02*
X394227Y429838D01*
X394227D02*
X394000Y428900D01*
Y428275*
X394227Y427338*
X394227D02*
X394682Y426713D01*
X394682D02*
X395136Y426400D01*
X395818*
X396273Y426713*
X396273D02*
X396727Y427338D01*
X398773Y430775D02*
Y426400D01*
Y428900D02*
X399000Y429838D01*
X399000D02*
X399455Y430463D01*
X399455D02*
X399909Y430775D01*
X400591*
X408091Y431400D02*
Y431713D01*
X408091D02*
X408318Y432338D01*
X408318D02*
X408545Y432650D01*
X409000Y432963*
X409000D02*
X409909D01*
X409909D02*
X410364Y432650D01*
X410591Y432338*
X410591D02*
X410818Y431713D01*
X410818D02*
Y431088D01*
X410818D02*
X410591Y430463D01*
X410591D02*
X410136Y429525D01*
X407864Y426400*
X411045*
X414455Y432963D02*
X413773Y432650D01*
X413318Y431713*
X413318D02*
X413091Y430150D01*
Y429213*
X413091D02*
X413318Y427650D01*
X413773Y426713*
X413773D02*
X414455Y426400D01*
X414909*
X415591Y426713*
X415591D02*
X416045Y427650D01*
X416273Y429213*
X416273D02*
Y430150D01*
X416045Y431713*
X416045D02*
X415591Y432650D01*
X414909Y432963*
X414909D02*
X414455D01*
X418318Y431713D02*
X418773Y432025D01*
X419455Y432963*
X419455D02*
Y426400D01*
X421500Y431713D02*
X421955Y432025D01*
X422636Y432963*
X422636D02*
Y426400D01*
X279000Y501900D02*
X439000D01*
Y421900*
X279000*
Y501900*
Y481900D02*
X439000D01*
X279000Y466900D02*
X439000D01*
X279000Y451900D02*
X439000D01*
X329000Y481900D02*
Y421900D01*
X279000Y436900D02*
X439000D01*
G54D20*
X312814Y494300D02*
X312473Y495238D01*
X312473D02*
X311791Y496175D01*
X311109Y496644*
X309745*
X309064Y496175*
X308382Y495238*
X308382D02*
X308041Y494300D01*
X307700Y492894*
Y490550*
X308041Y489144*
X308382Y488206*
X309064Y487269*
X309745Y486800*
X311109*
X311791Y487269*
X312473Y488206*
X312814Y489144*
X318609Y496644D02*
X315882Y486800D01*
X318609Y496644D02*
X321336Y486800D01*
X316905Y490081D02*
X320314D01*
X329518Y494300D02*
X329177Y495238D01*
X329177D02*
X328495Y496175D01*
X327814Y496644*
X326450*
X325768Y496175*
X325086Y495238*
X325086D02*
X324745Y494300D01*
X324405Y492894*
Y490550*
X324745Y489144*
X325086Y488206*
X325768Y487269*
X326450Y486800*
X327814*
X328495Y487269*
X329177Y488206*
X329518Y489144*
X340427Y491019D02*
X346564D01*
X357473Y496644D02*
Y486800D01*
Y496644D02*
X361905D01*
X357473Y491956D02*
X360200D01*
X357473Y486800D02*
X361905D01*
X364973Y496644D02*
Y486800D01*
Y496644D02*
X369745Y486800D01*
Y496644D02*
Y486800D01*
X372814Y496644D02*
Y486800D01*
Y496644D02*
X377245D01*
X372814Y491956D02*
X375541D01*
X372814Y486800D02*
X377245D01*
X382700Y496644D02*
Y486800D01*
X380314Y496644D02*
X385086D01*
X395995D02*
Y486800D01*
Y496644D02*
X400427D01*
X395995Y491956D02*
X398723D01*
X395995Y486800D02*
X400427D01*
X403495Y496644D02*
Y486800D01*
Y496644D02*
X407927D01*
X403495Y491956D02*
X406223D01*
X403495Y486800D02*
X407927D01*
X416109Y494300D02*
X415768Y495238D01*
X415768D02*
X415086Y496175D01*
X414405Y496644*
X413041*
X412359Y496175*
X411677Y495238*
X411677D02*
X411336Y494300D01*
X410995Y492894*
Y490550*
X411336Y489144*
X411677Y488206*
X412359Y487269*
X413041Y486800*
X414405*
X415086Y487269*
X415768Y488206*
X416109Y489144*
G54D55*
X175000Y227126D03*
X170000D03*
X165000D03*
X160000D03*
X155000D03*
X150000D03*
X145000D03*
X140000D03*
Y192874D03*
X145000D03*
X150000D03*
X155000D03*
X160000D03*
X165000D03*
X170000D03*
X175000D03*
X385000Y227126D03*
X380000D03*
X375000D03*
X370000D03*
X365000D03*
X360000D03*
X355000D03*
X350000D03*
Y192874D03*
X355000D03*
X360000D03*
X365000D03*
X370000D03*
X375000D03*
X380000D03*
X385000D03*
X245000Y227126D03*
X240000D03*
X235000D03*
X230000D03*
X225000D03*
X220000D03*
X215000D03*
X210000D03*
Y192874D03*
X215000D03*
X220000D03*
X225000D03*
X230000D03*
X235000D03*
X240000D03*
X245000D03*
X315000Y227126D03*
X310000D03*
X305000D03*
X300000D03*
X295000D03*
X290000D03*
X285000D03*
X280000D03*
Y192874D03*
X285000D03*
X290000D03*
X295000D03*
X300000D03*
X305000D03*
X310000D03*
X315000D03*
X0Y0D02*
M02*
