*
*
G04 PADS 9.5 Build Number: 522968 generated Gerber (RS-274-X) file*
G04 PC Version=2.1*
*
%IN "CCCNGP_MPC5534_PCB_REV_"*%
*
%MOIN*%
*
%FSLAX35Y35*%
*
*
*
*
G04 PC Standard Apertures*
*
*
G04 Thermal Relief Aperture macro.*
%AMTER*
1,1,$1,0,0*
1,0,$1-$2,0,0*
21,0,$3,$4,0,0,45*
21,0,$3,$4,0,0,135*
%
*
*
G04 Annular Aperture macro.*
%AMANN*
1,1,$1,0,0*
1,0,$2,0,0*
%
*
*
G04 Odd Aperture macro.*
%AMODD*
1,1,$1,0,0*
1,0,$1-0.005,0,0*
%
*
*
G04 PC Custom Aperture Macros*
*
*
*
*
*
*
G04 PC Aperture Table*
*
%ADD010C,0.001*%
%ADD014C,0.06*%
%ADD015C,0.096*%
%ADD022C,0.04016*%
%ADD027R,0.05512X0.05512*%
%ADD028C,0.05512*%
%ADD041R,0.065X0.065*%
%ADD042C,0.065*%
%ADD043C,0.01*%
%ADD044C,0.006*%
%ADD045C,0.0059*%
%ADD048C,0.007*%
%ADD051C,0.005*%
%ADD052C,0.02*%
%ADD053C,0.008*%
%ADD054C,0.024*%
%ADD057C,0.0145*%
*
*
*
*
G04 PC Circuitry*
G04 Layer Name CCCNGP_MPC5534_PCB_REV_ - circuitry*
%LPD*%
*
*
G04 PC Custom Flashes*
G04 Layer Name CCCNGP_MPC5534_PCB_REV_ - flashes*
%LPD*%
*
*
G04 PC Circuitry*
G04 Layer Name CCCNGP_MPC5534_PCB_REV_ - circuitry*
%LPD*%
*
G54D10*
G54D14*
G01X1236000Y1272089D03*
Y1262089D03*
Y1252089D03*
Y1242089D03*
Y1232089D03*
X1123000Y1036500D03*
Y1046500D03*
Y1056500D03*
Y1066500D03*
Y1076500D03*
G54D15*
X1236000Y1297089D03*
X1123000Y1011500D03*
G54D22*
X1468683Y1208406D03*
Y1366398D03*
X1036557Y1060032D03*
Y1218024D03*
G54D27*
X1422600Y1044000D03*
G54D28*
X1414626D03*
G54D41*
X1400800Y1028189D03*
G54D42*
X1390800D03*
X1380800D03*
X1370800D03*
X1360800D03*
X1350800D03*
G54D43*
X1162500Y1562251D02*
Y1555689D01*
X1165227*
X1169545Y1562251D02*
X1167273Y1557876D01*
X1170682*
X1169545Y1562251D02*
Y1555689D01*
X1181136Y1561314D02*
X1180682Y1561939D01*
X1180000Y1562251*
X1179091*
X1178409Y1561939*
X1177955Y1561314*
Y1560689*
X1178182Y1560064*
X1178409Y1559751*
X1178864Y1559439*
X1180227Y1558814*
X1180682Y1558501*
X1180909Y1558189*
X1181136Y1557564*
Y1556626*
X1180682Y1556001*
X1180000Y1555689*
X1179091*
X1178409Y1556001*
X1177955Y1556626*
X1183182Y1562251D02*
Y1555689D01*
X1188636Y1560689D02*
X1188409Y1561314D01*
X1187955Y1561939*
X1187500Y1562251*
X1186591*
X1186136Y1561939*
X1185682Y1561314*
X1185455Y1560689*
X1185227Y1559751*
Y1558189*
X1185455Y1557251*
X1185682Y1556626*
X1186136Y1556001*
X1186591Y1555689*
X1187500*
X1187955Y1556001*
X1188409Y1556626*
X1188636Y1557251*
Y1558189*
X1187500D02*
X1188636D01*
X1190682Y1562251D02*
Y1555689D01*
Y1562251D02*
X1193864Y1555689D01*
Y1562251D02*
Y1555689D01*
X1197727Y1562251D02*
X1195909Y1555689D01*
X1197727Y1562251D02*
X1199545Y1555689D01*
X1196591Y1557876D02*
X1198864D01*
X1201591Y1562251D02*
Y1555689D01*
X1204318*
X1211818Y1560689D02*
Y1561001D01*
X1212045Y1561626*
X1212273Y1561939*
X1212727Y1562251*
X1213636*
X1214091Y1561939*
X1214318Y1561626*
X1214545Y1561001*
Y1560376*
X1214318Y1559751*
X1213864Y1558814*
X1211591Y1555689*
X1214773*
X1082778Y1590825D02*
Y1584263D01*
Y1590825D02*
X1084823D01*
X1085505Y1590513*
X1085733Y1590200*
X1085960Y1589575*
Y1588950*
X1085733Y1588325*
X1085505Y1588013*
X1084823Y1587700*
X1082778D02*
X1084823D01*
X1085505Y1587388*
X1085733Y1587075*
X1085960Y1586450*
Y1585513*
X1085733Y1584888*
X1085505Y1584575*
X1084823Y1584263*
X1082778*
X1089369Y1590825D02*
X1088914Y1590513D01*
X1088460Y1589888*
X1088233Y1589263*
X1088005Y1588325*
Y1586763*
X1088233Y1585825*
X1088460Y1585200*
X1088914Y1584575*
X1089369Y1584263*
X1090278*
X1090733Y1584575*
X1091187Y1585200*
X1091414Y1585825*
X1091642Y1586763*
Y1588325*
X1091414Y1589263*
X1091187Y1589888*
X1090733Y1590513*
X1090278Y1590825*
X1089369*
X1095505D02*
X1093687Y1584263D01*
X1095505Y1590825D02*
X1097323Y1584263D01*
X1094369Y1586450D02*
X1096642D01*
X1099369Y1590825D02*
Y1584263D01*
Y1590825D02*
X1101414D01*
X1102096Y1590513*
X1102323Y1590200*
X1102551Y1589575*
Y1588950*
X1102323Y1588325*
X1102096Y1588013*
X1101414Y1587700*
X1099369*
X1100960D02*
X1102551Y1584263D01*
X1104596Y1590825D02*
Y1584263D01*
Y1590825D02*
X1106187D01*
X1106869Y1590513*
X1107323Y1589888*
X1107551Y1589263*
X1107778Y1588325*
Y1586763*
X1107551Y1585825*
X1107323Y1585200*
X1106869Y1584575*
X1106187Y1584263*
X1104596*
X1120278Y1590825D02*
Y1584263D01*
Y1590825D02*
X1123460Y1584263D01*
Y1590825D02*
Y1584263D01*
X1127323Y1590825D02*
X1125505Y1584263D01*
X1127323Y1590825D02*
X1129142Y1584263D01*
X1126187Y1586450D02*
X1128460D01*
X1131187Y1590825D02*
Y1584263D01*
Y1590825D02*
X1133005Y1584263D01*
X1134823Y1590825D02*
X1133005Y1584263D01*
X1134823Y1590825D02*
Y1584263D01*
X1136869Y1590825D02*
Y1584263D01*
Y1590825D02*
X1139823D01*
X1136869Y1587700D02*
X1138687D01*
X1136869Y1584263D02*
X1139823D01*
X1147096Y1587075D02*
X1151187D01*
X1082500Y1562251D02*
Y1555689D01*
Y1562251D02*
X1084091D01*
X1084773Y1561939*
X1085227Y1561314*
X1085455Y1560689*
X1085682Y1559751*
Y1558189*
X1085455Y1557251*
X1085227Y1556626*
X1084773Y1556001*
X1084091Y1555689*
X1082500*
X1089091Y1562251D02*
X1088636Y1561939D01*
X1088182Y1561314*
X1087955Y1560689*
X1087727Y1559751*
Y1558189*
X1087955Y1557251*
X1088182Y1556626*
X1088636Y1556001*
X1089091Y1555689*
X1090000*
X1090455Y1556001*
X1090909Y1556626*
X1091136Y1557251*
X1091364Y1558189*
Y1559751*
X1091136Y1560689*
X1090909Y1561314*
X1090455Y1561939*
X1090000Y1562251*
X1089091*
X1096818Y1560689D02*
X1096591Y1561314D01*
X1096136Y1561939*
X1095682Y1562251*
X1094773*
X1094318Y1561939*
X1093864Y1561314*
X1093636Y1560689*
X1093409Y1559751*
Y1558189*
X1093636Y1557251*
X1093864Y1556626*
X1094318Y1556001*
X1094773Y1555689*
X1095682*
X1096136Y1556001*
X1096591Y1556626*
X1096818Y1557251*
X1098864Y1562251D02*
Y1557564D01*
X1099091Y1556626*
X1099545Y1556001*
X1100227Y1555689*
X1100682*
X1101364Y1556001*
X1101818Y1556626*
X1102045Y1557564*
Y1562251*
X1104091D02*
Y1555689D01*
Y1562251D02*
X1105909Y1555689D01*
X1107727Y1562251D02*
X1105909Y1555689D01*
X1107727Y1562251D02*
Y1555689D01*
X1109773Y1562251D02*
Y1555689D01*
Y1562251D02*
X1112727D01*
X1109773Y1559126D02*
X1111591D01*
X1109773Y1555689D02*
X1112727D01*
X1114773Y1562251D02*
Y1555689D01*
Y1562251D02*
X1117955Y1555689D01*
Y1562251D02*
Y1555689D01*
X1121591Y1562251D02*
Y1555689D01*
X1120000Y1562251D02*
X1123182D01*
X1130455D02*
Y1555689D01*
Y1562251D02*
X1133636Y1555689D01*
Y1562251D02*
Y1555689D01*
X1137500Y1562251D02*
X1135682Y1555689D01*
X1137500Y1562251D02*
X1139318Y1555689D01*
X1136364Y1557876D02*
X1138636D01*
X1141364Y1562251D02*
Y1555689D01*
Y1562251D02*
X1143182Y1555689D01*
X1145000Y1562251D02*
X1143182Y1555689D01*
X1145000Y1562251D02*
Y1555689D01*
X1147045Y1562251D02*
Y1555689D01*
Y1562251D02*
X1150000D01*
X1147045Y1559126D02*
X1148864D01*
X1147045Y1555689D02*
X1150000D01*
X1152045Y1558501D02*
X1156136D01*
X1131187Y1606763D02*
X1130960Y1607388D01*
X1130505Y1608013*
X1130051Y1608325*
X1129142*
X1128687Y1608013*
X1128233Y1607388*
X1128005Y1606763*
X1127778Y1605825*
Y1604263*
X1128005Y1603325*
X1128233Y1602700*
X1128687Y1602075*
X1129142Y1601763*
X1130051*
X1130505Y1602075*
X1130960Y1602700*
X1131187Y1603325*
X1134596Y1608325D02*
X1134142Y1608013D01*
X1133687Y1607388*
X1133460Y1606763*
X1133233Y1605825*
Y1604263*
X1133460Y1603325*
X1133687Y1602700*
X1134142Y1602075*
X1134596Y1601763*
X1135505*
X1135960Y1602075*
X1136414Y1602700*
X1136642Y1603325*
X1136869Y1604263*
Y1605825*
X1136642Y1606763*
X1136414Y1607388*
X1135960Y1608013*
X1135505Y1608325*
X1134596*
X1138914D02*
Y1601763D01*
Y1608325D02*
X1140733Y1601763D01*
X1142551Y1608325D02*
X1140733Y1601763D01*
X1142551Y1608325D02*
Y1601763D01*
X1144596Y1608325D02*
Y1601763D01*
Y1608325D02*
X1146642D01*
X1147323Y1608013*
X1147551Y1607700*
X1147778Y1607075*
Y1606138*
X1147551Y1605513*
X1147323Y1605200*
X1146642Y1604888*
X1144596*
X1149823Y1608325D02*
Y1601763D01*
Y1608325D02*
X1151869D01*
X1152551Y1608013*
X1152778Y1607700*
X1153005Y1607075*
Y1606450*
X1152778Y1605825*
X1152551Y1605513*
X1151869Y1605200*
X1149823*
X1151414D02*
X1153005Y1601763D01*
X1155051Y1608325D02*
Y1601763D01*
Y1608325D02*
X1158005D01*
X1155051Y1605200D02*
X1156869D01*
X1155051Y1601763D02*
X1158005D01*
X1163233Y1607388D02*
X1162778Y1608013D01*
X1162096Y1608325*
X1161187*
X1160505Y1608013*
X1160051Y1607388*
Y1606763*
X1160278Y1606138*
X1160505Y1605825*
X1160960Y1605513*
X1162323Y1604888*
X1162778Y1604575*
X1163005Y1604263*
X1163233Y1603638*
Y1602700*
X1162778Y1602075*
X1162096Y1601763*
X1161187*
X1160505Y1602075*
X1160051Y1602700*
X1168460Y1607388D02*
X1168005Y1608013D01*
X1167323Y1608325*
X1166414*
X1165733Y1608013*
X1165278Y1607388*
Y1606763*
X1165505Y1606138*
X1165733Y1605825*
X1166187Y1605513*
X1167551Y1604888*
X1168005Y1604575*
X1168233Y1604263*
X1168460Y1603638*
Y1602700*
X1168005Y1602075*
X1167323Y1601763*
X1166414*
X1165733Y1602075*
X1165278Y1602700*
X1171869Y1608325D02*
X1171414Y1608013D01*
X1170960Y1607388*
X1170733Y1606763*
X1170505Y1605825*
Y1604263*
X1170733Y1603325*
X1170960Y1602700*
X1171414Y1602075*
X1171869Y1601763*
X1172778*
X1173233Y1602075*
X1173687Y1602700*
X1173914Y1603325*
X1174142Y1604263*
Y1605825*
X1173914Y1606763*
X1173687Y1607388*
X1173233Y1608013*
X1172778Y1608325*
X1171869*
X1176187D02*
Y1601763D01*
Y1608325D02*
X1178233D01*
X1178914Y1608013*
X1179142Y1607700*
X1179369Y1607075*
Y1606450*
X1179142Y1605825*
X1178914Y1605513*
X1178233Y1605200*
X1176187*
X1177778D02*
X1179369Y1601763D01*
X1190051Y1606763D02*
X1189823Y1607388D01*
X1189369Y1608013*
X1188914Y1608325*
X1188005*
X1187551Y1608013*
X1187096Y1607388*
X1186869Y1606763*
X1186642Y1605825*
Y1604263*
X1186869Y1603325*
X1187096Y1602700*
X1187551Y1602075*
X1188005Y1601763*
X1188914*
X1189369Y1602075*
X1189823Y1602700*
X1190051Y1603325*
X1193460Y1608325D02*
X1193005Y1608013D01*
X1192551Y1607388*
X1192323Y1606763*
X1192096Y1605825*
Y1604263*
X1192323Y1603325*
X1192551Y1602700*
X1193005Y1602075*
X1193460Y1601763*
X1194369*
X1194823Y1602075*
X1195278Y1602700*
X1195505Y1603325*
X1195733Y1604263*
Y1605825*
X1195505Y1606763*
X1195278Y1607388*
X1194823Y1608013*
X1194369Y1608325*
X1193460*
X1197778D02*
Y1601763D01*
Y1608325D02*
X1200960Y1601763D01*
Y1608325D02*
Y1601763D01*
X1204596Y1608325D02*
Y1601763D01*
X1203005Y1608325D02*
X1206187D01*
X1208233D02*
Y1601763D01*
Y1608325D02*
X1210278D01*
X1210960Y1608013*
X1211187Y1607700*
X1211414Y1607075*
Y1606450*
X1211187Y1605825*
X1210960Y1605513*
X1210278Y1605200*
X1208233*
X1209823D02*
X1211414Y1601763D01*
X1214823Y1608325D02*
X1214369Y1608013D01*
X1213914Y1607388*
X1213687Y1606763*
X1213460Y1605825*
Y1604263*
X1213687Y1603325*
X1213914Y1602700*
X1214369Y1602075*
X1214823Y1601763*
X1215733*
X1216187Y1602075*
X1216642Y1602700*
X1216869Y1603325*
X1217096Y1604263*
Y1605825*
X1216869Y1606763*
X1216642Y1607388*
X1216187Y1608013*
X1215733Y1608325*
X1214823*
X1219142D02*
Y1601763D01*
X1221869*
X1227096Y1607388D02*
X1226642Y1608013D01*
X1225960Y1608325*
X1225051*
X1224369Y1608013*
X1223914Y1607388*
Y1606763*
X1224142Y1606138*
X1224369Y1605825*
X1224823Y1605513*
X1226187Y1604888*
X1226642Y1604575*
X1226869Y1604263*
X1227096Y1603638*
Y1602700*
X1226642Y1602075*
X1225960Y1601763*
X1225051*
X1224369Y1602075*
X1223914Y1602700*
X1237778Y1606763D02*
X1237551Y1607388D01*
X1237096Y1608013*
X1236642Y1608325*
X1235733*
X1235278Y1608013*
X1234823Y1607388*
X1234596Y1606763*
X1234369Y1605825*
Y1604263*
X1234596Y1603325*
X1234823Y1602700*
X1235278Y1602075*
X1235733Y1601763*
X1236642*
X1237096Y1602075*
X1237551Y1602700*
X1237778Y1603325*
X1241187Y1608325D02*
X1240733Y1608013D01*
X1240278Y1607388*
X1240051Y1606763*
X1239823Y1605825*
Y1604263*
X1240051Y1603325*
X1240278Y1602700*
X1240733Y1602075*
X1241187Y1601763*
X1242096*
X1242551Y1602075*
X1243005Y1602700*
X1243233Y1603325*
X1243460Y1604263*
Y1605825*
X1243233Y1606763*
X1243005Y1607388*
X1242551Y1608013*
X1242096Y1608325*
X1241187*
X1245505D02*
Y1601763D01*
Y1608325D02*
X1247551D01*
X1248233Y1608013*
X1248460Y1607700*
X1248687Y1607075*
Y1606450*
X1248460Y1605825*
X1248233Y1605513*
X1247551Y1605200*
X1245505*
X1247096D02*
X1248687Y1601763D01*
X1250733Y1608325D02*
Y1601763D01*
Y1608325D02*
X1252778D01*
X1253460Y1608013*
X1253687Y1607700*
X1253914Y1607075*
Y1606138*
X1253687Y1605513*
X1253460Y1605200*
X1252778Y1604888*
X1250733*
X1257323Y1608325D02*
X1256869Y1608013D01*
X1256414Y1607388*
X1256187Y1606763*
X1255960Y1605825*
Y1604263*
X1256187Y1603325*
X1256414Y1602700*
X1256869Y1602075*
X1257323Y1601763*
X1258233*
X1258687Y1602075*
X1259142Y1602700*
X1259369Y1603325*
X1259596Y1604263*
Y1605825*
X1259369Y1606763*
X1259142Y1607388*
X1258687Y1608013*
X1258233Y1608325*
X1257323*
X1261642D02*
Y1601763D01*
Y1608325D02*
X1263687D01*
X1264369Y1608013*
X1264596Y1607700*
X1264823Y1607075*
Y1606450*
X1264596Y1605825*
X1264369Y1605513*
X1263687Y1605200*
X1261642*
X1263233D02*
X1264823Y1601763D01*
X1268687Y1608325D02*
X1266869Y1601763D01*
X1268687Y1608325D02*
X1270505Y1601763D01*
X1267551Y1603950D02*
X1269823D01*
X1274142Y1608325D02*
Y1601763D01*
X1272551Y1608325D02*
X1275733D01*
X1277778D02*
Y1601763D01*
X1281187Y1608325D02*
X1280733Y1608013D01*
X1280278Y1607388*
X1280051Y1606763*
X1279823Y1605825*
Y1604263*
X1280051Y1603325*
X1280278Y1602700*
X1280733Y1602075*
X1281187Y1601763*
X1282096*
X1282551Y1602075*
X1283005Y1602700*
X1283233Y1603325*
X1283460Y1604263*
Y1605825*
X1283233Y1606763*
X1283005Y1607388*
X1282551Y1608013*
X1282096Y1608325*
X1281187*
X1285505D02*
Y1601763D01*
Y1608325D02*
X1288687Y1601763D01*
Y1608325D02*
Y1601763D01*
X1122778Y1577075D02*
X1123233Y1577388D01*
X1123914Y1578325*
Y1571763*
X1129142Y1578325D02*
X1126869Y1571763D01*
X1125960Y1578325D02*
X1129142D01*
X1131187Y1574575D02*
X1135278D01*
X1140051Y1577388D02*
X1139823Y1578013D01*
X1139142Y1578325*
X1138687*
X1138005Y1578013*
X1137551Y1577075*
X1137323Y1575513*
Y1573950*
X1137551Y1572700*
X1138005Y1572075*
X1138687Y1571763*
X1138914*
X1139596Y1572075*
X1140051Y1572700*
X1140278Y1573638*
Y1573950*
X1140051Y1574888*
X1139596Y1575513*
X1138914Y1575825*
X1138687*
X1138005Y1575513*
X1137551Y1574888*
X1137323Y1573950*
X1143687Y1578325D02*
X1143005Y1578013D01*
X1142551Y1577075*
X1142323Y1575513*
Y1574575*
X1142551Y1573013*
X1143005Y1572075*
X1143687Y1571763*
X1144142*
X1144823Y1572075*
X1145278Y1573013*
X1145505Y1574575*
Y1575513*
X1145278Y1577075*
X1144823Y1578013*
X1144142Y1578325*
X1143687*
X1148914D02*
X1148233Y1578013D01*
X1147778Y1577075*
X1147551Y1575513*
Y1574575*
X1147778Y1573013*
X1148233Y1572075*
X1148914Y1571763*
X1149369*
X1150051Y1572075*
X1150505Y1573013*
X1150733Y1574575*
Y1575513*
X1150505Y1577075*
X1150051Y1578013*
X1149369Y1578325*
X1148914*
X1155733D02*
X1153460D01*
X1153233Y1575513*
X1153460Y1575825*
X1154142Y1576138*
X1154823*
X1155505Y1575825*
X1155960Y1575200*
X1156187Y1574263*
X1155960Y1573638*
X1155733Y1572700*
X1155278Y1572075*
X1154596Y1571763*
X1153914*
X1153233Y1572075*
X1153005Y1572388*
X1152778Y1573013*
X1159596Y1578325D02*
X1158914Y1578013D01*
X1158460Y1577075*
X1158233Y1575513*
Y1574575*
X1158460Y1573013*
X1158914Y1572075*
X1159596Y1571763*
X1160051*
X1160733Y1572075*
X1161187Y1573013*
X1161414Y1574575*
Y1575513*
X1161187Y1577075*
X1160733Y1578013*
X1160051Y1578325*
X1159596*
X1164823D02*
X1164142Y1578013D01*
X1163687Y1577075*
X1163460Y1575513*
Y1574575*
X1163687Y1573013*
X1164142Y1572075*
X1164823Y1571763*
X1165278*
X1165960Y1572075*
X1166414Y1573013*
X1166642Y1574575*
Y1575513*
X1166414Y1577075*
X1165960Y1578013*
X1165278Y1578325*
X1164823*
X1168687Y1574575D02*
X1172778D01*
X1176187Y1578325D02*
X1175505Y1578013D01*
X1175051Y1577075*
X1174823Y1575513*
Y1574575*
X1175051Y1573013*
X1175505Y1572075*
X1176187Y1571763*
X1176642*
X1177323Y1572075*
X1177778Y1573013*
X1178005Y1574575*
Y1575513*
X1177778Y1577075*
X1177323Y1578013*
X1176642Y1578325*
X1176187*
X1181414D02*
X1180733Y1578013D01*
X1180278Y1577075*
X1180051Y1575513*
Y1574575*
X1180278Y1573013*
X1180733Y1572075*
X1181414Y1571763*
X1181869*
X1182551Y1572075*
X1183005Y1573013*
X1183233Y1574575*
Y1575513*
X1183005Y1577075*
X1182551Y1578013*
X1181869Y1578325*
X1181414*
X1185278Y1577075D02*
X1185733Y1577388D01*
X1186414Y1578325*
Y1571763*
X1082778Y1578325D02*
Y1571763D01*
Y1578325D02*
X1084823D01*
X1085505Y1578013*
X1085733Y1577700*
X1085960Y1577075*
Y1576138*
X1085733Y1575513*
X1085505Y1575200*
X1084823Y1574888*
X1082778*
X1092096Y1579575D02*
X1088005Y1569575D01*
X1094142Y1578325D02*
Y1571763D01*
Y1578325D02*
X1097323Y1571763D01*
Y1578325D02*
Y1571763D01*
X1104596Y1574575D02*
X1108687D01*
X1162778Y1590825D02*
Y1584263D01*
Y1590825D02*
X1164596Y1584263D01*
X1166414Y1590825D02*
X1164596Y1584263D01*
X1166414Y1590825D02*
Y1584263D01*
X1168460Y1590825D02*
Y1584263D01*
Y1590825D02*
X1170505D01*
X1171187Y1590513*
X1171414Y1590200*
X1171642Y1589575*
Y1588638*
X1171414Y1588013*
X1171187Y1587700*
X1170505Y1587388*
X1168460*
X1177096Y1589263D02*
X1176869Y1589888D01*
X1176414Y1590513*
X1175960Y1590825*
X1175051*
X1174596Y1590513*
X1174142Y1589888*
X1173914Y1589263*
X1173687Y1588325*
Y1586763*
X1173914Y1585825*
X1174142Y1585200*
X1174596Y1584575*
X1175051Y1584263*
X1175960*
X1176414Y1584575*
X1176869Y1585200*
X1177096Y1585825*
X1182096Y1590825D02*
X1179823D01*
X1179596Y1588013*
X1179823Y1588325*
X1180505Y1588638*
X1181187*
X1181869Y1588325*
X1182323Y1587700*
X1182551Y1586763*
X1182323Y1586138*
X1182096Y1585200*
X1181642Y1584575*
X1180960Y1584263*
X1180278*
X1179596Y1584575*
X1179369Y1584888*
X1179142Y1585513*
X1187551Y1590825D02*
X1185278D01*
X1185051Y1588013*
X1185278Y1588325*
X1185960Y1588638*
X1186642*
X1187323Y1588325*
X1187778Y1587700*
X1188005Y1586763*
X1187778Y1586138*
X1187551Y1585200*
X1187096Y1584575*
X1186414Y1584263*
X1185733*
X1185051Y1584575*
X1184823Y1584888*
X1184596Y1585513*
X1190505Y1590825D02*
X1193005D01*
X1191642Y1588325*
X1192323*
X1192778Y1588013*
X1193005Y1587700*
X1193233Y1586763*
Y1586138*
X1193005Y1585200*
X1192551Y1584575*
X1191869Y1584263*
X1191187*
X1190505Y1584575*
X1190278Y1584888*
X1190051Y1585513*
X1197551Y1590825D02*
X1195278Y1586450D01*
X1198687*
X1197551Y1590825D02*
Y1584263D01*
X1200733Y1583013D02*
X1205505D01*
X1206869Y1590825D02*
Y1584263D01*
Y1590825D02*
X1208914D01*
X1209596Y1590513*
X1209823Y1590200*
X1210051Y1589575*
Y1588950*
X1209823Y1588325*
X1209596Y1588013*
X1208914Y1587700*
X1206869D02*
X1208914D01*
X1209596Y1587388*
X1209823Y1587075*
X1210051Y1586450*
Y1585513*
X1209823Y1584888*
X1209596Y1584575*
X1208914Y1584263*
X1206869*
X1213460Y1590825D02*
X1213005Y1590513D01*
X1212551Y1589888*
X1212323Y1589263*
X1212096Y1588325*
Y1586763*
X1212323Y1585825*
X1212551Y1585200*
X1213005Y1584575*
X1213460Y1584263*
X1214369*
X1214823Y1584575*
X1215278Y1585200*
X1215505Y1585825*
X1215733Y1586763*
Y1588325*
X1215505Y1589263*
X1215278Y1589888*
X1214823Y1590513*
X1214369Y1590825*
X1213460*
X1219596D02*
X1217778Y1584263D01*
X1219596Y1590825D02*
X1221414Y1584263D01*
X1218460Y1586450D02*
X1220733D01*
X1223460Y1590825D02*
Y1584263D01*
Y1590825D02*
X1225505D01*
X1226187Y1590513*
X1226414Y1590200*
X1226642Y1589575*
Y1588950*
X1226414Y1588325*
X1226187Y1588013*
X1225505Y1587700*
X1223460*
X1225051D02*
X1226642Y1584263D01*
X1228687Y1590825D02*
Y1584263D01*
Y1590825D02*
X1230278D01*
X1230960Y1590513*
X1231414Y1589888*
X1231642Y1589263*
X1231869Y1588325*
Y1586763*
X1231642Y1585825*
X1231414Y1585200*
X1230960Y1584575*
X1230278Y1584263*
X1228687*
X1228500Y1579063D02*
Y1572500D01*
Y1579063D02*
X1231682Y1572500D01*
Y1579063D02*
Y1572500D01*
X1234864Y1576875D02*
X1234409Y1576563D01*
X1234409D02*
X1233955Y1575938D01*
X1233955D02*
X1233727Y1575000D01*
Y1574375*
X1233955Y1573438*
X1233955D02*
X1234409Y1572813D01*
X1234409D02*
X1234864Y1572500D01*
X1235545*
X1236000Y1572813*
X1236000D02*
X1236455Y1573438D01*
X1236455D02*
X1236682Y1574375D01*
Y1575000*
X1236455Y1575938*
X1236455D02*
X1236000Y1576563D01*
X1236000D02*
X1235545Y1576875D01*
X1234864*
X1238727D02*
X1240091Y1572500D01*
X1241455Y1576875D02*
X1240091Y1572500D01*
X1243500Y1575000D02*
X1246227D01*
Y1575625*
X1246000Y1576250*
X1245773Y1576563*
X1245773D02*
X1245318Y1576875D01*
X1244636*
X1244182Y1576563*
X1244182D02*
X1243727Y1575938D01*
X1243727D02*
X1243500Y1575000D01*
Y1574375*
X1243727Y1573438*
X1243727D02*
X1244182Y1572813D01*
X1244182D02*
X1244636Y1572500D01*
X1245318*
X1245773Y1572813*
X1245773D02*
X1246227Y1573438D01*
X1248273Y1576875D02*
Y1572500D01*
Y1575625D02*
X1248955Y1576563D01*
X1248955D02*
X1249409Y1576875D01*
X1250091*
X1250545Y1576563*
X1250545D02*
X1250773Y1575625D01*
Y1572500*
Y1575625D02*
X1251455Y1576563D01*
X1251455D02*
X1251909Y1576875D01*
X1252591*
X1253045Y1576563*
X1253045D02*
X1253273Y1575625D01*
Y1572500*
X1255318Y1579063D02*
Y1572500D01*
Y1575938D02*
X1255773Y1576563D01*
X1255773D02*
X1256227Y1576875D01*
X1256909*
X1257364Y1576563*
X1257364D02*
X1257818Y1575938D01*
X1257818D02*
X1258045Y1575000D01*
Y1574375*
X1257818Y1573438*
X1257818D02*
X1257364Y1572813D01*
X1257364D02*
X1256909Y1572500D01*
X1256227*
X1255773Y1572813*
X1255773D02*
X1255318Y1573438D01*
X1260091Y1575000D02*
X1262818D01*
Y1575625*
X1262591Y1576250*
X1262364Y1576563*
X1262364D02*
X1261909Y1576875D01*
X1261227*
X1260773Y1576563*
X1260773D02*
X1260318Y1575938D01*
X1260318D02*
X1260091Y1575000D01*
Y1574375*
X1260318Y1573438*
X1260318D02*
X1260773Y1572813D01*
X1260773D02*
X1261227Y1572500D01*
X1261909*
X1262364Y1572813*
X1262364D02*
X1262818Y1573438D01*
X1264864Y1576875D02*
Y1572500D01*
Y1575000D02*
X1265091Y1575938D01*
X1265091D02*
X1265545Y1576563D01*
X1265545D02*
X1266000Y1576875D01*
X1266682*
X1275318Y1579063D02*
X1274636Y1578750D01*
X1274182Y1577813*
X1274182D02*
X1273955Y1576250D01*
Y1575313*
X1273955D02*
X1274182Y1573750D01*
X1274636Y1572813*
X1274636D02*
X1275318Y1572500D01*
X1275773*
X1276455Y1572813*
X1276455D02*
X1276909Y1573750D01*
X1277136Y1575313*
X1277136D02*
Y1576250D01*
X1276909Y1577813*
X1276909D02*
X1276455Y1578750D01*
X1275773Y1579063*
X1275773D02*
X1275318D01*
X1281455D02*
X1279182Y1574688D01*
X1279182D02*
X1282591D01*
X1281455Y1579063D02*
Y1572500D01*
X1285091Y1572813D02*
X1284864Y1572500D01*
X1284636Y1572813*
X1284636D02*
X1284864Y1573125D01*
X1285091Y1572813*
X1285091D02*
Y1572187D01*
X1285091D02*
X1284864Y1571562D01*
X1284864D02*
X1284636Y1571250D01*
X1292591Y1577500D02*
Y1577813D01*
X1292591D02*
X1292818Y1578438D01*
X1292818D02*
X1293045Y1578750D01*
X1293500Y1579063*
X1293500D02*
X1294409D01*
X1294409D02*
X1294864Y1578750D01*
X1295091Y1578438*
X1295091D02*
X1295318Y1577813D01*
X1295318D02*
Y1577188D01*
X1295318D02*
X1295091Y1576563D01*
X1295091D02*
X1294636Y1575625D01*
X1292364Y1572500*
X1295545*
X1298955Y1579063D02*
X1298273Y1578750D01*
X1297818Y1577813*
X1297818D02*
X1297591Y1576250D01*
Y1575313*
X1297591D02*
X1297818Y1573750D01*
X1298273Y1572813*
X1298273D02*
X1298955Y1572500D01*
X1299409*
X1300091Y1572813*
X1300091D02*
X1300545Y1573750D01*
X1300773Y1575313*
X1300773D02*
Y1576250D01*
X1300545Y1577813*
X1300545D02*
X1300091Y1578750D01*
X1299409Y1579063*
X1299409D02*
X1298955D01*
X1302818Y1577813D02*
X1303273Y1578125D01*
X1303955Y1579063*
X1303955D02*
Y1572500D01*
X1308273Y1579063D02*
X1306000Y1574688D01*
X1306000D02*
X1309409D01*
X1308273Y1579063D02*
Y1572500D01*
X1272778Y1563325D02*
Y1556763D01*
Y1563325D02*
X1274823D01*
X1275505Y1563013*
X1275733Y1562700*
X1275960Y1562075*
Y1561450*
X1275733Y1560825*
X1275505Y1560513*
X1274823Y1560200*
X1272778*
X1274369D02*
X1275960Y1556763D01*
X1278005Y1563325D02*
Y1556763D01*
Y1563325D02*
X1280960D01*
X1278005Y1560200D02*
X1279823D01*
X1278005Y1556763D02*
X1280960D01*
X1283005Y1563325D02*
X1284823Y1556763D01*
X1286642Y1563325D02*
X1284823Y1556763D01*
X1293914Y1559575D02*
X1298005D01*
X1308687Y1561763D02*
X1308460Y1562388D01*
X1308005Y1563013*
X1307551Y1563325*
X1306642*
X1306187Y1563013*
X1305733Y1562388*
X1305505Y1561763*
X1305278Y1560825*
Y1559263*
X1305505Y1558325*
X1305733Y1557700*
X1306187Y1557075*
X1306642Y1556763*
X1307551*
X1308005Y1557075*
X1308460Y1557700*
X1308687Y1558325*
X1480252Y995300D02*
Y980300D01*
G54D44*
X1061936Y1298970D02*
X1060800Y1296783D01*
X1062505*
X1061936Y1298970D02*
Y1295689D01*
X1040700Y1298970D02*
Y1295689D01*
X1042064*
X1061936Y1298970D02*
X1060800Y1296783D01*
X1062505*
X1061936Y1298970D02*
Y1295689D01*
X1040700Y1298970D02*
Y1295689D01*
X1042064*
X1061936Y1298970D02*
X1060800Y1296783D01*
X1062505*
X1061936Y1298970D02*
Y1295689D01*
X1040700Y1298970D02*
Y1295689D01*
X1042064*
X1061936Y1298970D02*
X1060800Y1296783D01*
X1062505*
X1061936Y1298970D02*
Y1295689D01*
X1040700Y1298970D02*
Y1295689D01*
X1042064*
X1206000Y1094000D02*
Y1106756D01*
X1206000D02*
X1206600Y1107356D01*
X1206600D02*
Y1119671D01*
X1208622Y1121693*
X1149567D02*
X1151974Y1124100D01*
X1165900*
X1178900Y1137100*
X1213200*
X1262600Y1115900D02*
X1258000D01*
X1241900Y1132000*
X1220700*
X1217200Y1135500*
X1214800*
X1213200Y1137100*
X1278600Y1135600D02*
X1281800Y1138800D01*
Y1140400*
X1278600Y1135600D02*
X1256300D01*
X1254911Y1136989*
X1243600*
X1301400Y1144300D02*
X1306476Y1149376D01*
X1313576*
X1317800Y1153600*
X1358211*
X1378755Y1148055D02*
X1382500Y1151800D01*
X1446300*
X1378755Y1148055D02*
X1363755D01*
X1358211Y1153600*
X1450500Y1147600D02*
X1446300Y1151800D01*
X1339447Y1188464D02*
X1340798Y1189815D01*
X1341952*
X1344937Y1192800*
X1385100*
X1339447Y1188464D02*
X1329755D01*
X1322919Y1195300*
X1312056*
X1308700Y1198656*
Y1201300*
X1304600Y1205400*
X1340200Y1165200D02*
X1343600Y1168600D01*
X1348800*
X1340200Y1165200D02*
X1323302D01*
X1316800Y1171702*
Y1176100*
X1315175Y1167327D02*
Y1177162D01*
X1316800Y1178787*
Y1180600*
X1330575Y1174600D02*
Y1178775D01*
X1332400Y1180600*
X1318375Y1176627D02*
Y1178875D01*
X1320000Y1180500*
X1333900Y1175800D02*
Y1179100D01*
X1335400Y1180600*
X1335600Y1176900D02*
X1337500Y1178800D01*
X1344111*
X1344311Y1179000*
X1350270*
X1352570Y1181300*
X1367500*
X1360500Y1175000D02*
X1362500Y1177000D01*
X1368797*
X1360500Y1175000D02*
X1334700D01*
X1333900Y1175800*
X1361900Y1173800D02*
X1363900Y1175800D01*
X1368300*
X1361900Y1173800D02*
X1333600D01*
X1332200Y1175200*
Y1177100*
X1360500Y1187500D02*
X1358500Y1189500D01*
X1355500*
X1404800Y1159500D02*
X1407800Y1162500D01*
X1418400*
X1404800Y1159500D02*
X1371100D01*
X1368900Y1161700*
X1361592*
X1359292Y1164000*
X1318502*
X1315175Y1167327*
X1395200Y1174000D02*
X1399000Y1177800D01*
X1428200*
X1395200Y1174000D02*
X1374800D01*
X1367500Y1181300*
X1395000Y1163400D02*
X1398400Y1166800D01*
X1436600*
X1395000Y1163400D02*
X1384800D01*
X1382600Y1165600*
X1366800*
X1362200Y1170200*
X1321800*
X1319200Y1172800*
Y1175802*
X1318375Y1176627*
X1394900Y1160700D02*
X1399800Y1165600D01*
X1421200*
X1394900Y1160700D02*
X1371600D01*
X1369000Y1163300*
X1361700*
X1359500Y1165500*
X1351900*
X1348800Y1168600*
X1431000Y1172800D02*
X1431500Y1173300D01*
X1442700*
X1442900Y1173500*
X1431000Y1172800D02*
X1372997D01*
X1368797Y1177000*
X1445500Y1171900D02*
X1444500Y1170900D01*
X1373200*
X1368300Y1175800*
X1438500Y1164900D02*
X1436600Y1166800D01*
X1440800Y1166600D02*
X1439400Y1168000D01*
X1371300*
X1369200Y1170100*
X1365000*
X1363700Y1171400*
X1325900*
X1320000Y1177300*
X1445100Y1168800D02*
X1442200D01*
X1441800Y1169200*
X1372500*
X1370400Y1171300*
X1365600*
X1364300Y1172600*
X1332575*
X1330575Y1174600*
X1442900Y1173300D02*
Y1173500D01*
X1440800Y1176700D02*
X1429300D01*
X1428200Y1177800*
X1436800Y1158800D02*
X1422100D01*
X1418400Y1162500*
X1437900Y1161400D02*
X1425400D01*
X1421200Y1165600*
X1276000Y1197800D02*
X1284000Y1205800D01*
X1289200*
X1302200Y1218800*
X1349800*
X1276100Y1197700D02*
X1276000Y1197800D01*
X1270900Y1200100D02*
X1277800Y1207000D01*
X1287900*
X1300900Y1220000*
X1351400*
X1369300Y1215300D02*
X1370500Y1216500D01*
X1396700*
X1400100Y1219900*
X1404400*
X1369300Y1215300D02*
X1353300D01*
X1349800Y1218800*
X1368500Y1216500D02*
X1371100Y1219100D01*
X1380100*
X1384000Y1223000*
X1411200*
X1368500Y1216500D02*
X1354900D01*
X1351400Y1220000*
X1388200Y1189700D02*
X1385100Y1192800D01*
X1436800Y1216000D02*
X1450000Y1229200D01*
Y1308900*
X1454700Y1313600*
X1474600*
X1478100Y1317100*
Y1320000*
X1436800Y1216000D02*
X1408300D01*
X1404400Y1219900*
X1436100Y1217200D02*
X1448000Y1229100D01*
Y1310400*
X1456100Y1318500*
X1475900*
X1436100Y1217200D02*
X1417000D01*
X1411200Y1223000*
X1075100Y1249000D02*
Y1250100D01*
X1310300Y1290600D02*
X1336600D01*
X1371500Y1325500*
X1451100*
X1460300Y1334700*
X1476300*
X1478100Y1320000D02*
X1476000Y1322100D01*
X1401500Y1444500D02*
Y1450500D01*
X1394500Y1457500*
X1362500*
X1003937Y1308584D02*
X1000000Y1304647D01*
Y1004000*
X1004000Y1000000*
X1146000*
Y1032500*
X1158000D02*
G75*
G03X1146000I-6000J0D01*
G01X1158000D02*
Y1015000D01*
X1217000*
Y1032500*
X1223000Y1038500D02*
G03X1217000Y1032500I0J-6000D01*
G01X1223000Y1038500D02*
X1238000D01*
X1244000Y1032500D02*
G03X1238000Y1038500I-6000J0D01*
G01X1244000Y1032500D02*
Y1015000D01*
X1323000*
Y1032500*
X1335000D02*
G03X1323000I-6000J0D01*
G01X1335000D02*
Y1000000D01*
X1480252*
X1484252Y1004000*
Y1472378*
X1480252Y1476378*
X1340842*
X1336842Y1472378*
Y1312521*
X1332905Y1308584D02*
G03X1336842Y1312521I0J3937D01*
G01X1332905Y1308584D02*
X1003937D01*
X1000000Y995300D02*
Y980300D01*
X1004000Y995300D02*
Y980300D01*
X991000Y1000000D02*
X999200D01*
X991000Y1004000D02*
X998800D01*
X990000Y1308584D02*
X997800D01*
X990000Y1304647D02*
X998200D01*
X1487600Y1004000D02*
X1495400D01*
X1487600Y1000000D02*
X1495800D01*
X1491600Y1472378D02*
X1499800D01*
X1491600Y1476378D02*
X1499400D01*
X1000000Y1313200D02*
Y1321000D01*
X1003937Y1313200D02*
Y1321400D01*
X1336842Y1480200D02*
Y1488000D01*
X1340842Y1480200D02*
Y1488400D01*
X1480252Y1481200D02*
Y1489000D01*
X1484252Y1481200D02*
Y1489400D01*
X1330200Y1472378D02*
X1322400D01*
X1330200Y1476378D02*
X1322000D01*
G54D45*
X1070400Y1028689D02*
X1067900Y1031189D01*
Y1046400*
X1073600Y1027089D02*
Y1034079D01*
X1074510Y1034989*
Y1056500*
X1077000Y1024500D02*
Y1031700D01*
X1075700Y1033000*
Y1059289*
X1068400Y1066589*
X1062900Y1049689D02*
X1056400Y1056189D01*
Y1094289*
X1061000Y1048389D02*
X1054400Y1054989D01*
Y1130789*
X1050500Y1134689*
X1058300Y1030689D02*
Y1039189D01*
X1062900Y1043789*
Y1049689*
X1069300Y1035600D02*
Y1045209D01*
X1070105Y1046014*
Y1056484*
X1069400Y1057189*
X1074510Y1056500D02*
X1070521Y1060489D01*
X1067000*
X1064200Y1063289*
Y1072689*
X1068400Y1066589D02*
Y1080689D01*
X1070900Y1083189*
X1074100*
X1068700Y1055189D02*
X1062805Y1061084D01*
Y1080994*
X1067900Y1046400D02*
X1068700Y1047200D01*
Y1055189*
X1098100Y1043100D02*
Y1058200D01*
X1105700Y1065800*
Y1094700*
X1065500Y1048189D02*
Y1051504D01*
X1061615Y1055389*
Y1084115*
X1070000Y1034900D02*
X1069300Y1035600D01*
X1085000Y1032100D02*
Y1046289D01*
X1078500Y1052789*
Y1065489*
X1072200Y1071789*
X1086800Y1040489D02*
Y1047789D01*
X1080000Y1054589*
Y1067089*
X1074100Y1072989*
X1083100Y1035100D02*
Y1046089D01*
X1077200Y1051989*
Y1064589*
X1070700Y1071089*
X1088600Y1037500D02*
Y1049589D01*
X1085500Y1052689*
X1099100Y1037400D02*
X1091789D01*
X1090100Y1039089*
Y1052589*
X1085000Y1057689*
X1101200Y1050500D02*
X1114300Y1063600D01*
Y1120989*
X1092500Y1039989D02*
Y1053500D01*
X1089318Y1056682*
Y1072871*
X1086400Y1075789*
X1115000Y1035000D02*
X1111000Y1039000D01*
X1102200*
X1098100Y1043100*
X1289100Y1041300D02*
X1282500Y1047900D01*
Y1052100*
X1269100Y1065500*
Y1070200*
X1262700Y1076600*
X1251500*
X1247100Y1081000*
Y1088473*
X1234989Y1100584*
Y1110511*
X1229700Y1115800*
X1227583*
X1226300Y1117083*
Y1118506*
X1224370Y1120436*
Y1121693*
X1062805Y1080994D02*
X1070400Y1088589D01*
X1074200*
X1061615Y1084115D02*
X1064200Y1086700D01*
Y1110800*
X1090000Y1136600*
Y1224883*
X1038400Y1101089D02*
Y1187789D01*
X1043500Y1192889*
X1056400Y1094289D02*
X1058800Y1096689D01*
X1030200Y1098389D02*
Y1119489D01*
X1032100Y1121389*
Y1193689*
X1043500Y1205100*
X1045500Y1093989D02*
X1038400Y1101089D01*
X1064200Y1072689D02*
X1066500Y1074989D01*
Y1081189*
X1071100Y1085789*
X1074100*
X1070700Y1071089D02*
Y1078989D01*
X1072300Y1080589*
X1074100*
X1072200Y1071789D02*
Y1075989D01*
X1074000Y1077789*
X1339300Y1083789D02*
X1340200Y1084689D01*
Y1089389*
X1339300Y1083789D02*
X1284811D01*
X1264900Y1103700*
Y1118500*
X1259200Y1124200*
Y1128600*
X1348000Y1095189D02*
Y1103189D01*
X1345200Y1105989*
X1279211*
X1270200Y1115000*
Y1121989*
X1264000Y1128189*
X1345055Y1093497D02*
X1346308D01*
X1348000Y1095189*
X1060100Y1137600D02*
Y1161089D01*
X1062900Y1163889*
X1050500Y1134689D02*
Y1146500D01*
X1051100Y1147100*
Y1164600*
X1068600Y1135289D02*
X1062411D01*
X1060100Y1137600*
X1114300Y1120989D02*
X1111000Y1124289D01*
Y1131689*
X1114000Y1131289D02*
Y1132789D01*
X1104000Y1142789*
Y1219689*
X1081700Y1241989*
X1117700Y1128789D02*
Y1131989D01*
X1105500Y1144189*
Y1215235*
X1282800Y1116189D02*
X1307905D01*
X1310409Y1118693*
X1264000Y1128189D02*
X1258089Y1134100D01*
X1221094*
X1218500Y1136694*
Y1159059*
X1216496Y1161063*
X1058800Y1173389D02*
Y1266300D01*
X1067047Y1274547*
X1073642*
X1051100Y1164600D02*
X1056200Y1169700D01*
Y1267589*
X1068011Y1279400*
X1080400*
X1067000Y1177189D02*
Y1224400D01*
X1065200Y1226200*
Y1263500*
X1084400Y1189189D02*
Y1227800D01*
X1072000Y1240200*
X1084000Y1186289D02*
X1080800Y1189489D01*
Y1228810*
X1070810Y1238800*
X1065000Y1172189D02*
X1063500Y1173689D01*
Y1222400*
X1060900Y1225000*
X1067500Y1167889D02*
X1064300D01*
X1058800Y1173389*
X1084000Y1182600D02*
X1077400Y1189200D01*
Y1229600*
X1069200Y1237800*
X1072900Y1180189D02*
Y1219839D01*
X1072900*
X1072900D02*
Y1231000D01*
X1072900D02*
X1067600Y1236300D01*
X1067600D02*
Y1258229D01*
X1065900Y1174689D02*
X1064900Y1175689D01*
Y1223400*
X1063100Y1225200*
X1128883Y1186889D02*
X1131300Y1189306D01*
Y1193452*
X1155537Y1217689*
X1191000*
X1199200Y1225889*
X1216700*
X1220600Y1229789*
Y1268789*
X1128883Y1186889D02*
X1111200D01*
X1109400Y1188689*
X1128100Y1188289D02*
X1129500Y1189689D01*
Y1195386*
X1153703Y1219589*
X1190100*
X1197917Y1227406*
X1215900*
X1218700Y1230206*
Y1266889*
X1128100Y1188289D02*
X1112900D01*
X1111500Y1189689*
X1109400Y1188689D02*
Y1192089D01*
X1110200Y1192889*
X1111500*
X1117314Y1177075D02*
X1120727Y1180489D01*
X1149567*
X1117400Y1176989D02*
X1117314Y1177075D01*
X1141693Y1165000D02*
X1136504Y1170189D01*
X1123000*
X1119500Y1173689*
X1141693Y1168937D02*
X1138641Y1171989D01*
X1124700*
X1123000Y1173689*
X1125800Y1176689D02*
X1128011D01*
X1128511Y1177189*
X1141100*
X1147547Y1157989D02*
X1148647Y1159089D01*
X1151526*
X1153500Y1161063*
X1147547Y1157989D02*
X1127200D01*
X1119300Y1165889*
Y1167989*
X1145630Y1165000D02*
X1143700Y1166930D01*
Y1170189*
X1140700Y1173189*
X1126600*
X1122800Y1176989*
X1121500*
X1145630Y1168937D02*
Y1172659D01*
X1141100Y1177189*
X1258000Y1161700D02*
X1262800Y1166500D01*
X1281800*
X1253400Y1162400D02*
X1259000Y1168000D01*
X1292090*
X1312800Y1151300D02*
X1316300Y1154800D01*
X1359200*
X1312800Y1151300D02*
X1295300D01*
X1292000Y1154600*
X1277289*
X1269700Y1162189*
X1261400*
X1442800Y1153200D02*
X1456700Y1167100D01*
Y1182400*
X1442800Y1153200D02*
X1360800D01*
X1359200Y1154800*
X1441300Y1156000D02*
X1446100Y1160800D01*
Y1166800*
X1447400Y1168100*
Y1220300*
X1459000Y1231900*
Y1257000*
X1467400Y1265400*
X1475400*
X1441300Y1156000D02*
X1362800D01*
X1361500Y1157300*
X1345300*
X1341400Y1161200*
X1298890*
X1292090Y1168000*
X1441900Y1154500D02*
X1447400Y1160000D01*
Y1166090*
X1448900Y1167590*
Y1219800*
X1460400Y1231300*
Y1255200*
X1467200Y1262000*
X1475400*
X1441900Y1154500D02*
X1362000D01*
X1360410Y1156090*
X1302317*
X1296407Y1162000*
X1286300*
X1281800Y1166500*
X1453300Y1185800D02*
Y1221800D01*
X1469600Y1238100*
Y1253600*
X1471900Y1255900*
X1475500*
X1456700Y1182400D02*
X1453300Y1185800D01*
X1439800Y1179400D02*
X1428300D01*
X1428000Y1179700*
X1378394*
X1371094Y1187000*
X1361000*
X1360500Y1187500*
X1060900Y1225000D02*
Y1265500D01*
X1066994Y1271594*
X1073642*
X1063100Y1225200D02*
Y1264700D01*
X1067689Y1269289*
X1074289*
X1076594Y1271594*
X1043500Y1205089D02*
Y1205100D01*
X1090000Y1224883D02*
X1075100Y1239783D01*
Y1245834*
X1116056Y1194994D02*
X1114705Y1196345D01*
Y1218277*
X1116056Y1194994D02*
X1117805D01*
X1119500Y1196689*
X1105500Y1215235D02*
X1136099Y1245834D01*
X1113500Y1219389D02*
X1137000Y1242889D01*
X1144300*
X1173606Y1272195*
X1125500Y1209389D02*
X1129500Y1213389D01*
X1139700*
X1150797Y1224486*
Y1234586*
X1174600Y1258389*
X1179473*
X1114705Y1218277D02*
X1137107Y1240679D01*
X1144990*
X1176799Y1272488*
X1181551*
X1112000Y1219789D02*
X1136600Y1244389D01*
X1142600*
X1176998Y1278787*
X1181551*
X1122500Y1197189D02*
Y1222389D01*
X1138100Y1237989*
X1147775*
X1173606Y1263820*
X1121500Y1190689D02*
X1116300D01*
X1112000Y1194989*
Y1219789*
X1126900Y1190289D02*
X1125500Y1191689D01*
Y1209389*
X1116800Y1196789D02*
Y1208289D01*
X1119900Y1211389*
Y1221789*
X1137600Y1239489*
X1146300*
X1173606Y1266795*
X1123493Y1193748D02*
X1115248D01*
X1113500Y1195496*
Y1219389*
X1174200Y1213839D02*
X1176216Y1215855D01*
X1191928*
X1198062Y1221989*
X1217310*
X1224300Y1228979*
Y1270989*
X1237100Y1283789*
X1333700*
X1373300Y1323389*
X1432500*
X1179000Y1197689D02*
Y1203989D01*
X1174200Y1208789*
Y1213839*
X1074000Y1264500D02*
X1076594Y1267094D01*
Y1268642*
X1074000Y1264500D02*
X1070939D01*
X1069939Y1265500*
X1090478Y1266491D02*
X1090980Y1266994D01*
X1097062*
X1090478Y1266491D02*
X1087603D01*
X1085453Y1268642*
X1075100Y1250100D02*
Y1251769D01*
X1065200Y1263500D02*
X1067200Y1265500D01*
X1069939*
X1069200Y1237800D02*
Y1257863D01*
X1072626Y1261289*
X1072605*
X1072620Y1261304*
X1081700Y1241989D02*
Y1256209D01*
X1082700Y1257209*
X1070810Y1238800D02*
Y1256952D01*
X1073642Y1259783*
X1067600Y1258229D02*
X1072107Y1262736D01*
X1076594*
X1072000Y1240200D02*
Y1255189D01*
X1073642Y1256831*
X1088406Y1262736D02*
X1091258Y1265589D01*
X1096500*
X1076594Y1259783D02*
X1075074Y1261304D01*
X1072620*
X1124739Y1262489D02*
X1126539Y1264289D01*
X1139353*
X1124739Y1262489D02*
X1099600D01*
X1096500Y1265589*
X1133579Y1247200D02*
X1138051Y1251673D01*
Y1253780*
X1133579Y1247200D02*
X1089253D01*
X1085453Y1251000*
Y1253878*
X1132955Y1250600D02*
X1135030Y1252675D01*
Y1254544*
X1137317Y1256831*
X1137953*
X1132955Y1250600D02*
X1093969D01*
X1089604Y1254965*
X1132578Y1252259D02*
X1133668Y1253349D01*
Y1254298*
X1132578Y1252259D02*
X1095971D01*
X1091400Y1256830*
X1133196Y1248800D02*
X1136373Y1251977D01*
Y1252967*
X1133196Y1248800D02*
X1093482D01*
X1088406Y1253877*
X1123533Y1255356D02*
X1122167Y1253989D01*
X1096900*
X1092600Y1258289*
X1092112*
X1117201Y1260800D02*
X1117662Y1261261D01*
X1124746*
X1117201Y1260800D02*
X1095489D01*
X1093200Y1263089*
X1092005*
X1135606Y1269297D02*
X1133298Y1266989D01*
X1128430*
X1123824Y1271594*
X1091358*
X1137953Y1268642D02*
X1135000Y1265689D01*
X1125480*
X1124279Y1266890*
X1118867Y1264132D02*
X1121625Y1266890D01*
X1124279*
X1118867Y1264132D02*
X1115801D01*
X1115801D02*
X1113032Y1266900D01*
X1107398Y1264296D02*
X1110002Y1266900D01*
X1113032*
X1107398Y1264296D02*
X1099760D01*
X1097062Y1266994*
X1124500Y1258308D02*
X1096156D01*
X1093200Y1261264*
X1092152*
X1136099Y1245834D02*
X1142679Y1252414D01*
Y1255110*
X1137931Y1259783D02*
X1137953D01*
X1134656Y1262197D02*
X1135196Y1262736D01*
X1137953*
X1137800Y1234189D02*
X1140200Y1236589D01*
X1149350*
X1173606Y1260845*
X1142679Y1255110D02*
X1141000Y1256789D01*
X1140906Y1262736D02*
X1139353Y1264289D01*
X1152900Y1266989D02*
X1169312Y1283401D01*
X1183788*
X1152900Y1266989D02*
X1142558D01*
X1140906Y1268642*
X1173606Y1260845D02*
X1174325Y1261564D01*
X1182275*
X1183200Y1262489*
Y1268679*
X1180000Y1245645D02*
Y1245689D01*
X1179091Y1246598*
Y1253880*
X1177500Y1245645D02*
Y1255189D01*
X1179150Y1256839*
X1181650*
X1173606Y1263820D02*
X1173775Y1263989D01*
X1180798*
X1173606Y1266795D02*
X1176150Y1269339D01*
X1181551*
X1179091Y1253880D02*
X1180426Y1255215D01*
X1182176*
X1183224Y1256263*
Y1257533*
X1184799Y1259108*
Y1259988*
X1181650Y1263138D02*
X1180798Y1263989D01*
X1204994Y1246095D02*
Y1246089D01*
X1204200Y1246889*
X1195400*
X1190800Y1251489*
Y1256349*
X1187949Y1259200*
Y1259988*
X1208394Y1250089D02*
X1195451D01*
X1194051Y1251489*
Y1253689*
X1208394Y1250089D02*
X1209400D01*
X1211500Y1252189*
X1215000*
X1205444Y1245645D02*
X1204994Y1246095D01*
X1184944Y1245645D02*
X1183226Y1247363D01*
X1183200Y1259880D02*
Y1260689D01*
X1184100Y1261589*
X1185500*
X1186400Y1262489*
Y1265090*
X1186330Y1259372D02*
Y1260727D01*
X1187949Y1262345*
Y1263138*
X1191044Y1245645D02*
X1186405Y1250284D01*
Y1255325*
X1186393Y1255338*
X1204475Y1251489D02*
X1206500D01*
X1209700Y1254689*
X1212000*
X1204475Y1251489D02*
X1196600D01*
X1195600Y1252489*
Y1255290*
X1194051Y1256839*
X1183226Y1247363D02*
Y1254416D01*
X1184799Y1255989*
Y1256839*
X1183200Y1268679D02*
X1183180Y1268699D01*
Y1270967*
X1220600Y1268789D02*
X1215370Y1274019D01*
X1208394*
X1186400Y1265090D02*
X1184701Y1266789D01*
Y1269339*
X1218700Y1266889D02*
X1215900Y1269689D01*
X1208394*
X1207194Y1270889*
X1198850*
X1212500Y1244689D02*
X1206400D01*
X1205444Y1245645*
X1212500Y1234689D02*
X1206100D01*
X1200900Y1239889*
X1190700*
X1184944Y1245645*
X1216000Y1232189D02*
X1206100D01*
X1200300Y1237989*
X1187656*
X1180000Y1245645*
X1212500Y1229689D02*
X1206000D01*
X1199600Y1236089*
X1185500*
X1177500Y1244089*
Y1245645*
X1215000Y1237189D02*
X1206200D01*
X1201800Y1241589*
X1191900*
X1184799Y1248690*
Y1253689*
X1197201D02*
X1198728Y1255216D01*
X1202027*
X1209000Y1262189*
X1214500*
X1197201Y1263138D02*
X1201252Y1267189D01*
X1214500*
X1212500Y1239689D02*
X1206200D01*
X1202700Y1243189*
X1193500*
X1191044Y1245645*
X1215000Y1242189D02*
X1206200D01*
X1203400Y1244989*
X1194500*
X1194000Y1245489*
X1193439Y1246040*
X1189200Y1250279*
Y1252438*
X1187949Y1253689*
X1194051Y1256839D02*
X1192461D01*
X1189700Y1259600*
Y1264389*
X1186300Y1267789*
Y1280889*
X1183788Y1283401*
X1197201Y1259988D02*
X1195600Y1261589D01*
Y1266780*
X1192400Y1269980*
Y1284689*
X1188900Y1288189*
X1197201Y1256839D02*
X1195625Y1258414D01*
X1193475*
X1191310Y1260579*
Y1266396*
X1189810Y1267896*
Y1281834*
X1189620Y1282024*
Y1282069*
X1186600Y1285089*
X1197201Y1256839D02*
X1198651Y1258289D01*
X1202200*
X1208600Y1264689*
X1211500*
X1194051Y1259988D02*
X1192500Y1261539D01*
Y1266889*
X1191000Y1268389*
Y1283189*
X1187600Y1286589*
X1088406Y1274547D02*
X1087603D01*
X1086081Y1276069*
X1083731*
X1080400Y1279400*
X1093900Y1274589D02*
X1120600D01*
X1125900Y1279889*
X1132500*
X1088406Y1274547D02*
X1093326Y1279468D01*
X1116064*
X1120761Y1284165*
X1132238*
X1085400Y1277589D02*
Y1279800D01*
X1093738Y1288138*
X1135403*
X1135895Y1276605D02*
X1135108Y1277392D01*
Y1281295*
X1132238Y1284165*
X1142539Y1270275D02*
X1143858Y1271594D01*
X1135335Y1273754D02*
X1133600Y1275489D01*
Y1278789*
X1132500Y1279889*
X1137953Y1277500D02*
Y1285588D01*
X1135403Y1288138*
X1173606Y1272195D02*
X1175810Y1274399D01*
X1180312*
X1181551Y1275638*
X1144849Y1273071D02*
X1147182D01*
X1160700Y1286589*
X1187600*
X1183180Y1270967D02*
X1184701Y1272488D01*
X1143858Y1274547D02*
X1157500Y1288189D01*
X1188900*
X1143858Y1271594D02*
X1151700D01*
X1165194Y1285089*
X1186600*
X1194051Y1272390D02*
X1195652Y1270789D01*
X1198750*
X1198850Y1270889*
X1208394Y1274019D02*
X1198721D01*
X1197201Y1275539*
G54D48*
X1046500Y1036189D02*
Y1062389D01*
X1051300Y1067189*
Y1096389*
X1046000Y1101689*
Y1127200*
X1040600Y1132600*
X1046000Y1065189D02*
Y1079589D01*
X1037000Y1088589*
X1043400Y1033789D02*
Y1077889D01*
X1035400Y1085889*
Y1190889*
X1051100Y1031589D02*
X1046500Y1036189D01*
X1116400Y1048300D02*
Y1055100D01*
X1118400Y1057100*
Y1078400*
X1125200Y1085200*
X1114900Y1038500D02*
X1117700Y1041300D01*
X1126600*
X1137200Y1051900*
Y1081000*
X1181000Y1041500D02*
X1184500Y1045000D01*
Y1062800*
X1167300Y1080000*
X1144000*
X1137000Y1087000*
X1188600Y1056400D02*
Y1061500D01*
X1168100Y1082000*
X1145500*
X1137000Y1090500*
X1262000Y1041300D02*
X1254300D01*
X1248000Y1047600*
X1238200*
X1232500Y1053300*
Y1093900*
X1216600Y1109800*
Y1121789*
X1214500Y1123889*
X1299500Y1046200D02*
X1271400Y1074300D01*
Y1082100*
X1264600Y1088900*
X1262600*
X1247000Y1104500*
Y1111993*
X1237300Y1121693*
X1228307*
X1299500Y1041500D02*
X1294600Y1046400D01*
Y1048300*
X1264600Y1078300*
X1254100*
X1252100Y1080300*
Y1092100*
X1236700Y1107500*
Y1112121*
X1229121Y1119700*
X1228500*
Y1119724*
X1227518*
X1226339Y1120904*
Y1123661*
X1224370Y1125630*
X1287500Y1061500D02*
Y1064998D01*
X1274000Y1078498*
Y1084000*
X1263700Y1094300*
Y1097689*
X1253500Y1107889*
Y1109500*
X1233433Y1129567*
X1224370*
X1268500Y1051600D02*
X1256300Y1063800D01*
X1250600*
X1243700Y1070700*
Y1087627*
X1226339Y1104989*
X1226339D02*
Y1110678D01*
X1226339D02*
X1225178Y1111839D01*
X1219655*
X1218200Y1113294*
X1268600Y1056200D02*
Y1060000D01*
X1263100Y1065500*
Y1069900*
X1258800Y1074200*
X1249700*
X1245400Y1078500*
Y1088000*
X1232600Y1100800*
Y1109100*
X1229868Y1111832*
X1227529*
X1226350Y1113011*
Y1114597*
X1225147Y1115800*
X1223568*
X1222400Y1116968*
Y1127600*
X1220433Y1129567*
X1037000Y1088589D02*
Y1189189D01*
X1043500Y1195689*
X1029900Y1087389D02*
X1027950Y1089339D01*
Y1119289*
X1030500Y1090589D02*
X1033800Y1093889D01*
Y1192489*
X1043500Y1202200*
X1125200Y1085200D02*
Y1123000D01*
X1122700Y1125500*
Y1130789*
X1108200Y1145289*
Y1150289*
X1137200Y1081000D02*
X1129200Y1089000D01*
Y1149600*
X1163500Y1105839D02*
Y1111719D01*
X1165600Y1113819*
X1176400Y1109289D02*
X1176380Y1109309D01*
X1169500Y1094500D02*
Y1102430D01*
X1176380Y1109309*
X1207000Y1071189D02*
X1190989Y1087200D01*
X1173700*
X1166500Y1094400*
Y1102839*
X1163500Y1105839*
X1027950Y1119289D02*
X1030500Y1121839D01*
Y1195289*
X1043500Y1208289*
X1040600Y1132600D02*
Y1186589D01*
X1043500Y1189489*
X1149567Y1129567D02*
X1147598Y1131536D01*
X1143468*
X1141500Y1133504*
X1218200Y1113294D02*
Y1123397D01*
X1220433Y1125630*
X1214500Y1123889D02*
Y1131508D01*
X1216496Y1133504*
X1310409Y1121843D02*
X1305063Y1127189D01*
X1282800*
X1313559Y1121843D02*
X1305813Y1129589D01*
X1296211*
X1289500Y1136300*
X1129200Y1149600D02*
X1134000Y1154400D01*
X1154800*
X1156400Y1156000*
Y1163600*
X1161600Y1168800*
X1203200*
X1221400Y1170889D02*
X1225511Y1175000D01*
X1235100*
X1221400Y1170889D02*
X1190796D01*
X1177000Y1184685*
X1212400Y1165000D02*
X1214350Y1166950D01*
X1222420*
X1212400Y1165000D02*
X1207000D01*
X1203200Y1168800*
X1210800Y1173589D02*
X1212050Y1174839D01*
X1221452*
X1222402Y1175789*
Y1177601*
X1223580Y1178779*
X1233890*
X1237000Y1181889*
X1254200*
X1257800Y1185489*
Y1193830*
X1272770Y1208800*
X1281111*
X1293711Y1221400*
X1363000*
X1210800Y1173589D02*
X1191311D01*
X1186500Y1178400*
X1213000Y1178389D02*
X1213391Y1178779D01*
X1213391D02*
X1221222D01*
X1222402Y1179959*
X1222402D02*
Y1181537D01*
X1222402D02*
X1223573Y1182709D01*
X1225400*
X1213000Y1178389D02*
X1190900D01*
X1188826Y1180463*
X1212470Y1179889D02*
X1215298Y1182716D01*
X1215298D02*
X1221085D01*
X1222330Y1183961*
Y1185403*
X1223576Y1186649*
X1225600*
X1226451Y1187500*
X1240711*
X1272250Y1219039*
X1274800*
X1212470Y1179889D02*
X1192900D01*
X1190900Y1181889*
X1211862Y1181289D02*
X1214500Y1183927D01*
Y1185447*
X1215161Y1186108*
X1215162*
X1215690Y1186635*
X1221234*
X1222329Y1187731*
Y1189339*
X1223579Y1190589*
X1226350*
X1228861Y1193100*
X1230142*
X1230642Y1193600*
X1233089*
X1211862Y1181289D02*
X1194174D01*
X1192874Y1182589*
Y1184685*
X1209700Y1182689D02*
X1210550Y1183539D01*
Y1185493*
X1211711Y1186653*
X1211711D02*
X1213495D01*
X1213495D02*
X1215930Y1189089D01*
X1217680*
X1218500Y1189909*
Y1193500*
X1219489Y1194489*
X1220280*
X1220380Y1194589*
X1222100*
X1226100Y1198589*
X1242800*
X1269800Y1225589*
X1277389*
X1279900Y1228100*
X1291011*
X1293550Y1230639*
X1401500*
X1403661Y1232800*
X1429800*
X1433800Y1236800*
Y1250800*
X1439600Y1256600*
Y1262789*
X1209700Y1182689D02*
X1199600D01*
X1198700Y1183589*
Y1186922*
X1197000Y1188622*
X1186500Y1178400D02*
Y1186185D01*
X1188937Y1188622*
X1188826Y1180463D02*
Y1184615D01*
X1188937Y1184685*
X1190900Y1181889D02*
Y1186648D01*
X1192874Y1188622*
X1204533D02*
X1206500Y1190589D01*
X1209410*
X1210600Y1191779*
Y1196389*
X1214400Y1200189*
X1223400*
X1229400Y1206189*
X1244700*
X1261500Y1222989*
Y1226789*
X1269200Y1234489*
X1274500*
X1278300Y1238289*
X1338300*
X1341800Y1241789*
X1383000*
X1386211Y1245000*
X1412500*
X1200796Y1184685D02*
X1202783Y1186672D01*
X1209208*
X1210400Y1187864*
Y1189347*
X1211642Y1190589*
X1213347*
X1214509Y1191751*
Y1194444*
X1230600Y1181200D02*
X1234689Y1185289D01*
X1242200*
X1270850Y1213939*
X1283500*
X1292561Y1223000*
X1359661*
X1362950Y1226289*
X1414211*
X1230600Y1181200D02*
X1226909D01*
X1225400Y1182709*
X1224370Y1176811D02*
X1236611D01*
X1240000Y1180200*
X1257600*
X1261000Y1183600*
X1265900*
X1277500Y1195200*
X1288700*
X1291700Y1198200*
Y1203200*
X1294900Y1206400*
X1296700*
X1302700Y1212400*
X1307985*
X1309685Y1214100*
X1325458*
X1328258Y1216900*
X1347000*
X1224370Y1165000D02*
X1222420Y1166950D01*
X1407500Y1159500D02*
X1405300Y1157300D01*
X1371500*
X1368500Y1160300*
X1360600*
X1358300Y1162600*
X1300500*
X1289700Y1173400*
X1236700*
X1235100Y1175000*
X1035400Y1190889D02*
X1043500Y1198989D01*
Y1202189D02*
Y1202200D01*
X1181063Y1192559D02*
Y1197189D01*
X1190850Y1206976*
Y1212939*
X1198600Y1220689*
X1219500*
X1226800Y1227989*
Y1270489*
X1237800Y1281489*
X1339300*
X1379000Y1321189*
X1436100*
X1199775Y1199609D02*
Y1201295D01*
X1203044Y1204564*
X1221500*
X1225500Y1208564*
Y1212689*
X1227500Y1214689*
X1237800*
X1205409Y1203251D02*
X1222500D01*
X1228037Y1208789*
X1228037D02*
X1243623D01*
X1258800Y1223966*
Y1228689*
X1267300Y1237189*
X1270700*
X1280500Y1246989*
X1313756*
X1316956Y1250189*
X1387500*
X1402500Y1265189*
X1435200*
X1213900Y1197247D02*
X1215342Y1198689D01*
X1223800*
X1229900Y1204789*
X1246500*
X1268800Y1227089*
X1276000*
X1279111Y1230200*
X1291211*
X1293500Y1232489*
X1400600*
X1402711Y1234600*
X1429200*
X1431600Y1237000*
Y1251400*
X1437600Y1257400*
Y1267014*
X1438000Y1267414*
Y1271189*
X1214509Y1194444D02*
X1213900Y1195054D01*
Y1197247*
X1184900Y1192559D02*
Y1197727D01*
X1202362Y1215189*
X1210000*
X1214100Y1219289*
X1220500*
X1225900Y1224689*
X1237300*
X1246900Y1234289*
Y1254489*
X1261600Y1269189*
X1333689*
X1338100Y1273600*
X1376211*
X1418100Y1315489*
X1435800*
X1188600Y1196489D02*
Y1199589D01*
X1201100Y1212089*
X1215400*
X1226500Y1223189*
X1244100*
X1248600Y1227689*
Y1253089*
X1262300Y1266789*
X1337089*
X1341800Y1271500*
X1377211*
X1418400Y1312689*
X1439300*
X1188937Y1192559D02*
X1191400Y1195022D01*
Y1200548*
X1201641Y1210789*
X1216100*
X1227000Y1221689*
X1245000*
X1250300Y1226989*
Y1247089*
X1260200Y1256989*
X1307600*
X1314711Y1264100*
X1372811*
X1418200Y1309489*
X1435900*
X1192874Y1192559D02*
X1195550Y1195235D01*
Y1201021*
X1202718Y1208189*
X1219500*
X1222500Y1211189*
Y1213366*
X1227623Y1218489*
X1246800*
X1253800Y1225489*
Y1245489*
X1262400Y1254089*
X1309700*
X1313260Y1257649*
X1371700*
X1410940Y1296889*
X1435800*
X1193600Y1196989D02*
Y1200910D01*
X1202179Y1209489*
X1216785*
X1227485Y1220189*
X1245800*
X1252100Y1226489*
Y1246189*
X1261500Y1255589*
X1309000*
X1312385Y1258974*
X1370500*
X1414915Y1303389*
X1435700*
X1197000Y1192559D02*
Y1195339D01*
X1197477Y1195816*
X1197500Y1198489D02*
Y1200866D01*
X1203523Y1206889*
X1220400*
X1224000Y1210489*
Y1213027*
X1227162Y1216189*
X1238138*
X1200800Y1196389D02*
X1201500Y1197089D01*
Y1200207*
X1208600Y1196489D02*
X1213800Y1201689D01*
X1223000*
X1228800Y1207489*
X1244162*
X1260100Y1223427*
Y1227689*
X1268200Y1235789*
X1273000*
X1277400Y1240189*
X1311000*
X1319500Y1248689*
X1412000*
X1244885Y1211889D02*
X1257100Y1224104D01*
Y1229066*
X1266923Y1238889*
X1270500*
X1279950Y1248339*
X1313265*
X1316615Y1251689*
X1385000*
X1401500Y1268189*
X1435600*
Y1268389*
X1244885Y1211889D02*
X1240600D01*
X1237800Y1214689*
X1244300Y1213189D02*
X1255800Y1224689D01*
Y1229604*
X1266935Y1240739*
X1269300*
X1281250Y1252689*
X1310500*
X1314157Y1256346*
X1372900*
X1391343Y1274789*
X1439500*
X1244300Y1213189D02*
X1241138D01*
X1238138Y1216189*
X1244100Y1193589D02*
X1270900Y1220389D01*
X1274700*
X1281111Y1226800*
X1291911*
X1294450Y1229339*
X1402500*
X1404561Y1231400*
X1430600*
X1442000Y1242800*
Y1275189*
X1244100Y1193589D02*
X1233100D01*
X1233089Y1193600*
X1276300Y1219000D02*
X1282200Y1224900D01*
X1292261*
X1295400Y1228039*
X1418700*
X1276300Y1219000D02*
X1274839D01*
X1274800Y1219039*
X1378300Y1220900D02*
X1381900Y1224500D01*
X1412200*
X1378300Y1220900D02*
X1363500D01*
X1363000Y1221400*
X1431200Y1206800D02*
X1453600Y1229200D01*
Y1246400*
X1431200Y1206800D02*
X1385889D01*
X1384500Y1208189*
X1375150*
X1374139Y1209200*
X1354700*
X1347000Y1216900*
X1446300Y1231000D02*
X1434300Y1219000D01*
X1417700*
X1412200Y1224500*
X1432900Y1220900D02*
X1444800Y1232800D01*
Y1297989*
X1432900Y1220900D02*
X1419600D01*
X1414211Y1226289*
X1435100Y1226800D02*
X1443300Y1235000D01*
Y1276989*
X1435100Y1226800D02*
X1419939D01*
X1418700Y1228039*
X1420000Y1237500D02*
X1412500Y1245000D01*
X1421500Y1244800D02*
X1415889D01*
X1412000Y1248689*
X1446300Y1231000D02*
Y1299789D01*
X1439800Y1306289*
X1442000Y1275189D02*
X1438500Y1278689D01*
Y1284789*
X1440000Y1286289*
Y1299989*
X1437700Y1307539D02*
X1441550Y1311389D01*
Y1316639*
X1444800Y1297989D02*
X1437700Y1305089D01*
Y1307539*
X1443300Y1276989D02*
X1440600Y1279689D01*
X1441550Y1316639D02*
X1439400Y1318789D01*
G54D51*
X1340200Y1089389D02*
Y1091792D01*
X1341905Y1093497*
X1375100Y1078484D02*
X1376029Y1079413D01*
Y1082360*
X1375100Y1078484D02*
X1373178D01*
X1371895Y1079767*
X1376300Y1075694D02*
X1378819Y1078213D01*
Y1082208*
X1380000Y1083389*
X1376300Y1075694D02*
X1372022D01*
X1369105Y1078611*
X1376029Y1082360D02*
X1375000Y1083389D01*
X1371895Y1079767D02*
Y1086911D01*
X1378195Y1093211*
Y1136467*
X1372073Y1142589*
X1369105Y1078611D02*
Y1088067D01*
X1375405Y1094367*
Y1135311*
X1370627Y1140089*
X1265822Y1143384D02*
X1268822Y1146384D01*
X1285600*
X1265822Y1143384D02*
X1257478D01*
X1253678Y1147184*
X1244378*
X1237095Y1154467*
Y1156720*
X1230826Y1162989*
X1222555*
X1220489Y1165056*
X1266978Y1140594D02*
X1269978Y1143594D01*
X1285000*
X1266978Y1140594D02*
X1256400D01*
X1252600Y1144394*
X1243222*
X1234305Y1153311*
Y1155564*
X1230780Y1159089*
X1222349*
X1220404Y1161034*
X1303200Y1140800D02*
X1304989Y1142589D01*
X1372073*
X1303200Y1140800D02*
X1291184D01*
X1285600Y1146384*
X1304200Y1138400D02*
X1305889Y1140089D01*
X1370627*
X1304200Y1138400D02*
X1290194D01*
X1285000Y1143594*
X1220404Y1161034D02*
X1220433Y1161063D01*
Y1165000D02*
X1220489Y1165056D01*
X1339038Y1182100D02*
X1340200Y1183262D01*
Y1187216*
X1341384Y1188400*
X1349625*
X1350725Y1189500*
X1355500*
X1339038Y1182100D02*
X1337000D01*
X1335400Y1183700*
X1197477Y1195816D02*
X1199775Y1198114D01*
Y1199609*
X1201500Y1200207D02*
Y1201106D01*
X1203646Y1203251*
X1203646D02*
X1205409D01*
X1089061Y1261261D02*
X1090889Y1263089D01*
X1092005*
X1089061Y1261261D02*
X1086928D01*
X1085453Y1262736*
X1075100Y1251769D02*
X1075118Y1251787D01*
Y1255354*
X1076594Y1256831*
X1089604Y1254965D02*
X1089215Y1255354D01*
X1086929*
X1085453Y1256831*
X1082700Y1257209D02*
X1083797Y1258306D01*
X1086200*
X1092112Y1258289D02*
X1092094Y1258307D01*
X1087761*
X1086285Y1259783*
X1085453*
X1075100Y1245834D02*
Y1249000D01*
X1088406Y1259783D02*
X1089183D01*
X1090664Y1261264*
X1092152*
X1088406Y1256830D02*
X1087676D01*
X1086200Y1258306*
X1128994Y1258308D02*
X1128994D01*
X1132829*
X1135780Y1261259*
X1139430*
X1128994Y1258308D02*
X1127120D01*
X1127120*
X1124500*
X1133668Y1254298D02*
Y1254809D01*
X1137165Y1258306*
X1142383*
X1136373Y1252967D02*
Y1254187D01*
X1137441Y1255255*
X1139528*
X1123533Y1255356D02*
X1132659D01*
X1137086Y1259783*
X1137931*
X1124746Y1261261D02*
X1133721D01*
X1134656Y1262197*
X1135606Y1269297D02*
X1136427Y1270118D01*
X1142382*
X1142539Y1270275*
X1136300Y1232689D02*
X1137800Y1234189D01*
X1140906Y1259783D02*
X1139430Y1261259D01*
X1141004Y1253780D02*
X1139528Y1255255D01*
X1182203Y1258314D02*
X1183200Y1259311D01*
Y1259880*
X1182203Y1258314D02*
X1179548D01*
X1179473Y1258389*
X1143858Y1256831D02*
X1142383Y1258306D01*
X1186393Y1255338D02*
X1186330Y1255400D01*
Y1259372*
X1088406Y1271594D02*
X1089882Y1273071D01*
X1092382*
X1093900Y1274589*
X1140900D02*
X1139466Y1276023D01*
X1136477*
X1135895Y1276605*
X1140906Y1271594D02*
X1139428Y1273072D01*
X1136017*
X1135335Y1273754*
X1140906Y1271594D02*
X1142382Y1273071D01*
X1144849*
G54D52*
X1070400Y1028689D03*
X1073600Y1027089D03*
X1077000Y1024500D03*
X1116000Y1029000D03*
X1061000Y1048389D03*
X1058300Y1030689D03*
X1046000Y1065189D03*
X1043400Y1033789D03*
X1051100Y1031589D03*
X1095400Y1050000D03*
X1064600Y1038789D03*
X1066900Y1052689D03*
X1065500Y1045189D03*
X1095600Y1058300D03*
X1065500Y1048189D03*
X1092400Y1057800D03*
X1067100Y1063989D03*
X1069400Y1057189D03*
X1070000Y1034900D03*
X1094100Y1031200D03*
X1070800Y1067989D03*
X1085000Y1032100D03*
X1086800Y1040489D03*
X1083100Y1035100D03*
X1085500Y1052689D03*
X1088600Y1037500D03*
X1085000Y1057689D03*
X1099100Y1037400D03*
X1101500Y1053900D03*
X1094400Y1045289D03*
X1072000Y1040689D03*
X1082500Y1063589D03*
X1087000Y1061300D03*
X1101200Y1050500D03*
X1084000Y1060689D03*
X1092500Y1039989D03*
X1065800Y1055389D03*
X1091800Y1068000D03*
X1099100Y1033000D03*
X1102400Y1032600D03*
X1129500Y1029889D03*
Y1061200D03*
X1131500Y1054000D03*
X1127600Y1050700D03*
X1131500Y1050300D03*
X1128400Y1067400D03*
X1116400Y1048300D03*
X1114900Y1038500D03*
X1115000Y1035000D03*
X1129400Y1064500D03*
X1143800Y1061500D03*
X1143500Y1046500D03*
Y1051000D03*
X1143300Y1056400D03*
X1166500Y1049600D03*
X1143400Y1068400D03*
X1165500Y1062500D03*
Y1065500D03*
Y1068500D03*
X1181000Y1041500D03*
X1169500Y1031500D03*
X1217400Y1062400D03*
X1204500Y1059000D03*
X1199700Y1041300D03*
X1188600Y1056400D03*
X1191500Y1048600D03*
X1200000Y1032000D03*
X1209500Y1031300D03*
X1191000Y1043000D03*
X1241100Y1051989D03*
X1246300Y1051889D03*
X1243600Y1050600D03*
X1228900Y1051900D03*
X1262000Y1041300D03*
X1254300Y1048700D03*
X1254200Y1044200D03*
X1251000Y1068189D03*
X1260500Y1065500D03*
X1261000Y1031300D03*
X1237600Y1051689D03*
X1299500Y1046200D03*
Y1041500D03*
X1289100Y1041300D03*
X1287500Y1061500D03*
X1268500Y1051600D03*
X1273600Y1045100D03*
X1268600Y1056200D03*
X1272600Y1055900D03*
X1265800Y1031400D03*
X1283000Y1066089D03*
X1264400Y1045000D03*
X1296000Y1031500D03*
X1301500D03*
X1310000D03*
X1309500Y1043000D03*
X1312500Y1066189D03*
X1415500Y1060500D03*
X1410500Y1063500D03*
X1421000Y1066500D03*
X1397500Y1064800D03*
X1405000Y1048600D03*
X1415500Y1055500D03*
X1430000Y1055000D03*
X1429500Y1060000D03*
X1447500Y1036189D03*
X1452000Y1054689D03*
X1454500Y1036689D03*
X1447500Y1050489D03*
X1456300Y1052600D03*
X1435000Y1051500D03*
X1442500Y1065189D03*
X1449400Y1066189D03*
X1467500Y1056189D03*
Y1051689D03*
X1021000Y1095000D03*
Y1098200D03*
Y1101200D03*
Y1104400D03*
Y1107600D03*
X1058800Y1096689D03*
X1029900Y1087389D03*
X1030200Y1098389D03*
X1030500Y1090589D03*
X1045500Y1093989D03*
X1049300Y1094289D03*
X1070300Y1108989D03*
X1074200Y1088589D03*
X1072800Y1105689D03*
X1074100Y1085789D03*
X1074000Y1077789D03*
X1074100Y1072989D03*
Y1080589D03*
Y1083189D03*
X1099000Y1099000D03*
X1074700Y1097089D03*
X1086400Y1075789D03*
X1067100Y1103289D03*
X1064700Y1077689D03*
X1091900Y1071000D03*
X1100700Y1070000D03*
X1092500Y1078800D03*
X1100200Y1086300D03*
X1129100Y1075100D03*
X1128600Y1079400D03*
X1131000Y1071900D03*
X1111000Y1086500D03*
X1122000Y1099189D03*
X1130000Y1082500D03*
X1137000Y1090500D03*
X1123100Y1090900D03*
X1137000Y1087000D03*
X1105700Y1094700D03*
X1105300Y1101389D03*
X1120500Y1085000D03*
X1122500Y1101900D03*
X1118100Y1091600D03*
X1108100Y1090800D03*
X1110100Y1096289D03*
X1176400Y1109289D03*
X1169500Y1094500D03*
X1180600Y1109189D03*
X1172100Y1108889D03*
X1177500Y1105189D03*
X1164500Y1099189D03*
X1150000Y1090500D03*
X1153500D03*
X1146000D03*
X1153200Y1085600D03*
X1153400Y1073000D03*
X1209000Y1107500D03*
X1207500Y1078000D03*
X1211000Y1103389D03*
X1206000Y1094000D03*
X1186000Y1091500D03*
X1209500Y1096000D03*
X1207000Y1071189D03*
X1191600Y1070600D03*
Y1074200D03*
Y1077400D03*
X1220600Y1109289D03*
X1212500Y1083500D03*
X1239000Y1071989D03*
X1254900Y1092389D03*
X1259000Y1081689D03*
X1262500D03*
X1238600Y1086300D03*
X1241200Y1083489D03*
X1226500Y1083189D03*
X1256000Y1081600D03*
X1296000Y1080189D03*
X1300000Y1085689D03*
X1267500Y1081189D03*
X1271500Y1091189D03*
X1326700Y1080400D03*
X1353000Y1095000D03*
X1375000Y1083389D03*
X1380000D03*
X1355000Y1107689D03*
X1356600Y1084800D03*
X1366500Y1100689D03*
X1369500Y1105189D03*
X1393500Y1077300D03*
X1407400Y1085200D03*
X1409200Y1087400D03*
Y1091600D03*
X1419500Y1104100D03*
X1410400Y1096000D03*
X1404000Y1080400D03*
X1387700Y1107400D03*
X1420500Y1077500D03*
X1411400Y1089400D03*
X1389700Y1091400D03*
X1386700Y1091100D03*
X1406200Y1082400D03*
X1390400Y1083400D03*
X1397600Y1079500D03*
X1387600Y1083400D03*
X1411300Y1075000D03*
X1397734Y1106243D03*
X1424800Y1087689D03*
X1425400Y1108989D03*
X1429500Y1082300D03*
X1429600Y1104889D03*
X1449000Y1081200D03*
X1452000Y1099089D03*
X1443600Y1101800D03*
X1444900Y1080200D03*
X1449500Y1071500D03*
X1429000Y1088800D03*
X1467500Y1070189D03*
X1463500Y1082689D03*
Y1099689D03*
X1467500Y1092689D03*
X1021000Y1126400D03*
Y1110600D03*
Y1113800D03*
Y1117000D03*
Y1120000D03*
Y1123200D03*
Y1129600D03*
Y1148400D03*
X1050500Y1134689D03*
X1061400Y1123789D03*
X1063100Y1142189D03*
X1061900Y1116189D03*
X1043500Y1120689D03*
X1063300Y1121689D03*
X1083300Y1110989D03*
X1085300Y1114289D03*
X1083200Y1123489D03*
X1067300Y1147289D03*
X1068200Y1142689D03*
X1063700Y1147889D03*
X1068600Y1135289D03*
X1072600Y1134789D03*
X1098500Y1119400D03*
X1083200Y1120489D03*
X1118500Y1109500D03*
X1114000Y1131289D03*
X1117700Y1128789D03*
X1111000Y1131689D03*
X1141500Y1137441D03*
Y1141378D03*
Y1145689D03*
X1111000Y1146689D03*
X1113000Y1148689D03*
X1115800Y1147989D03*
X1141693Y1121693D03*
Y1117756D03*
X1141500Y1133504D03*
X1141693Y1129567D03*
Y1125630D03*
X1103600Y1123589D03*
X1126000Y1127000D03*
X1141693Y1113819D03*
X1123000Y1109689D03*
X1141693Y1109882D03*
X1149567Y1121693D03*
X1145630Y1125630D03*
X1149567Y1141378D03*
X1145630Y1137441D03*
Y1133504D03*
Y1141378D03*
Y1145315D03*
Y1149252D03*
X1149567Y1145315D03*
Y1149252D03*
X1153500D03*
Y1145315D03*
Y1141378D03*
X1149567Y1137441D03*
Y1133504D03*
X1153504D03*
Y1129567D03*
X1173189Y1121693D03*
X1177126Y1113819D03*
X1181063Y1117756D03*
X1145630Y1129567D03*
Y1121693D03*
Y1117756D03*
X1165600Y1109889D03*
X1165396Y1121693D03*
X1173267Y1117756D03*
X1165396D03*
X1173267Y1113819D03*
X1153504D03*
X1169252Y1109882D03*
Y1113819D03*
Y1121693D03*
X1177126D03*
X1181063D03*
X1157441Y1117756D03*
X1161378Y1113819D03*
Y1121693D03*
X1177126Y1117756D03*
X1157441Y1113818D03*
X1161378Y1117756D03*
X1149567Y1129567D03*
Y1125630D03*
X1169252Y1117756D03*
X1165600Y1113819D03*
X1161100Y1109689D03*
X1157441Y1121693D03*
X1145600Y1109989D03*
X1153504Y1117756D03*
X1149567Y1113819D03*
X1153500Y1137441D03*
X1177126Y1149252D03*
X1153504Y1121693D03*
X1159000Y1145689D03*
X1181063Y1149252D03*
X1173189D03*
X1181063Y1145315D03*
X1177126D03*
X1173189D03*
X1181063Y1141378D03*
X1177126D03*
X1173189D03*
X1149567Y1117756D03*
X1145630Y1113819D03*
X1149567Y1109882D03*
X1212400Y1113900D03*
X1184800Y1113819D03*
X1188937Y1121693D03*
X1216496Y1145315D03*
X1220433Y1113819D03*
X1212559Y1117756D03*
X1216496Y1149252D03*
X1220433D03*
X1212600Y1109589D03*
X1220433Y1145315D03*
X1208600Y1117800D03*
X1220433Y1141378D03*
X1208622Y1121693D03*
X1188937Y1117756D03*
X1196000Y1109889D03*
X1196370Y1113819D03*
X1192433Y1117756D03*
X1187500Y1109389D03*
X1191800Y1109489D03*
X1192700Y1113900D03*
X1188937Y1125489D03*
X1200748Y1109889D03*
X1204685Y1113819D03*
X1196811Y1117756D03*
X1204685D03*
X1196811Y1121693D03*
X1204685D03*
X1200748Y1113819D03*
X1204685Y1109789D03*
X1220433Y1137441D03*
X1216496Y1141378D03*
X1200748Y1121693D03*
Y1117756D03*
X1220433Y1125630D03*
X1216496Y1133504D03*
X1220433Y1129567D03*
X1192874Y1141378D03*
X1216496Y1137441D03*
Y1125630D03*
Y1129567D03*
X1220433Y1121693D03*
X1196811Y1149252D03*
X1212441Y1125630D03*
X1220433Y1117756D03*
X1209500Y1141689D03*
X1192874Y1149252D03*
X1188937D03*
X1192874Y1145315D03*
X1188937D03*
Y1141378D03*
X1185000D03*
X1224370Y1149252D03*
X1262600Y1115900D03*
X1230000Y1139189D03*
X1259200Y1128600D03*
X1238000Y1137189D03*
X1224370Y1145315D03*
Y1141378D03*
X1228307Y1149252D03*
X1230800Y1146989D03*
X1224370Y1137441D03*
X1228307Y1117756D03*
Y1125630D03*
Y1121693D03*
X1224370Y1125630D03*
Y1121693D03*
Y1129567D03*
X1228300Y1113819D03*
X1224370Y1109889D03*
Y1117756D03*
X1257500Y1131689D03*
X1232500Y1125689D03*
X1243600Y1136989D03*
X1238500Y1113800D03*
X1228307Y1109882D03*
X1238500Y1117689D03*
X1224370Y1113819D03*
X1263500Y1133689D03*
X1282800Y1116189D03*
Y1127189D03*
Y1132689D03*
X1289500Y1136300D03*
X1270200Y1139989D03*
X1299900Y1124800D03*
X1264000Y1128189D03*
X1301400Y1144300D03*
X1267500Y1120189D03*
X1278500Y1139689D03*
X1281800Y1140400D03*
X1289500Y1146689D03*
X1318618Y1133289D03*
X1321400Y1133389D03*
X1339000Y1148989D03*
X1342273Y1134503D03*
X1304800Y1134500D03*
X1382400Y1145100D03*
X1353500Y1114100D03*
X1345711Y1134592D03*
X1370399Y1136992D03*
X1371100Y1122989D03*
X1370400Y1120289D03*
X1356500Y1127989D03*
Y1111189D03*
X1367600Y1129689D03*
X1349100Y1112389D03*
X1366500Y1111189D03*
X1393300Y1146500D03*
X1384516Y1132568D03*
X1415400Y1146200D03*
X1420200Y1148500D03*
X1403200Y1140300D03*
X1402000Y1119400D03*
X1393000Y1113000D03*
X1415000Y1122200D03*
X1446900Y1144900D03*
X1424300Y1113200D03*
X1436700Y1142400D03*
X1452500Y1132700D03*
X1450500Y1147600D03*
X1448500Y1122800D03*
X1466800Y1139900D03*
X1466900Y1146300D03*
X1465000Y1136400D03*
X1021000Y1151600D03*
Y1154800D03*
Y1158000D03*
Y1161000D03*
Y1167400D03*
Y1173600D03*
Y1183200D03*
Y1176800D03*
X1021200Y1186200D03*
X1021000Y1164200D03*
Y1180000D03*
X1051100Y1164600D03*
X1062900Y1163889D03*
X1067000Y1177189D03*
X1068100Y1150089D03*
X1070000Y1152589D03*
X1070600Y1155589D03*
X1071800Y1157989D03*
X1084400Y1189189D03*
X1084000Y1186289D03*
X1065000Y1172189D03*
X1067500Y1167889D03*
X1084000Y1182600D03*
X1072900Y1180189D03*
X1065900Y1174689D03*
X1109000Y1153289D03*
X1118500D03*
X1113000Y1152689D03*
X1124400Y1153189D03*
X1121200Y1153289D03*
X1127100Y1153389D03*
X1115900Y1153289D03*
X1141500Y1149689D03*
X1108200Y1150289D03*
X1111100Y1173589D03*
X1113500Y1176989D03*
X1114500Y1169389D03*
X1115500Y1174689D03*
X1116700Y1167889D03*
X1117400Y1176989D03*
X1119300Y1167989D03*
X1119500Y1173689D03*
X1141693Y1165000D03*
X1121500Y1176989D03*
X1121900Y1167889D03*
X1123000Y1173689D03*
X1141693Y1168937D03*
X1124600Y1167989D03*
X1125800Y1176689D03*
X1130500Y1168189D03*
X1140500Y1187689D03*
X1132800Y1175189D03*
X1110300Y1167789D03*
X1153500Y1157189D03*
X1149567Y1172874D03*
Y1157189D03*
Y1176689D03*
Y1161063D03*
X1153500Y1176689D03*
X1145630Y1161063D03*
X1149567Y1180489D03*
X1153500Y1161063D03*
X1145630Y1165000D03*
X1149567Y1184685D03*
X1145630Y1168937D03*
X1153500Y1180489D03*
X1161378Y1188622D03*
X1165315D03*
X1169252D03*
X1173189Y1184685D03*
X1177000Y1180189D03*
Y1188622D03*
X1181063Y1184685D03*
Y1188622D03*
X1149567Y1165000D03*
X1177000Y1184685D03*
X1157441D03*
X1153504Y1188622D03*
X1169252Y1184685D03*
X1181063Y1165000D03*
X1153500D03*
X1177126Y1157126D03*
X1173189D03*
X1157441Y1188622D03*
X1165315Y1184685D03*
X1161378D03*
X1145630D03*
X1149567Y1168937D03*
X1181063Y1161063D03*
X1153504Y1184685D03*
X1173189Y1188622D03*
X1162400Y1164589D03*
X1167500Y1174689D03*
X1149567Y1188622D03*
X1177126Y1165000D03*
X1173189D03*
X1177126Y1161063D03*
X1173189D03*
X1181063Y1157126D03*
X1216496Y1165000D03*
X1220433Y1168937D03*
X1216600Y1157100D03*
X1220400D03*
X1220433Y1165000D03*
Y1161063D03*
X1200800Y1188622D03*
X1192874Y1184685D03*
X1197000Y1188622D03*
X1204533D03*
X1204600Y1184685D03*
X1208400Y1188622D03*
X1220433Y1176811D03*
X1216496Y1168937D03*
Y1172874D03*
X1220433D03*
X1200796Y1184685D03*
X1216496Y1161063D03*
X1188937Y1184685D03*
X1192874Y1188622D03*
X1206500Y1175689D03*
X1220296Y1184685D03*
X1216496Y1180748D03*
X1188937Y1188622D03*
X1208600Y1184685D03*
X1196500Y1184189D03*
X1216496Y1176811D03*
X1212433Y1188622D03*
X1188937Y1165000D03*
Y1157126D03*
X1192200Y1176200D03*
X1212500Y1184685D03*
X1211000Y1167389D03*
X1200000Y1176189D03*
X1220296Y1188622D03*
X1216496Y1184685D03*
X1196811Y1165000D03*
X1192874D03*
X1196811Y1161063D03*
X1192874D03*
X1188937D03*
X1196811Y1157126D03*
X1192874D03*
X1196811Y1153189D03*
X1224370Y1161063D03*
X1260500Y1158400D03*
X1224370Y1157019D03*
Y1180748D03*
X1228300Y1165000D03*
X1228307Y1172874D03*
X1253900Y1168189D03*
X1228307Y1184685D03*
X1224370Y1176811D03*
Y1165000D03*
X1258000Y1161700D03*
X1261400Y1162189D03*
X1253400Y1162400D03*
X1228307Y1168937D03*
X1224370D03*
X1229400Y1155500D03*
X1224370Y1188622D03*
X1244200Y1177700D03*
X1228307Y1161063D03*
X1224370Y1184685D03*
X1248500Y1188800D03*
X1233500Y1168100D03*
X1241100Y1176800D03*
X1275500Y1159800D03*
X1269900Y1164200D03*
X1269700Y1176100D03*
X1267000Y1180189D03*
X1291800Y1149700D03*
X1295500Y1187189D03*
Y1181689D03*
X1275200Y1162700D03*
X1280100Y1164400D03*
X1328600Y1175000D03*
X1324000Y1167189D03*
X1329500D03*
X1313000Y1154189D03*
X1339000Y1151689D03*
X1335500Y1167189D03*
X1312500D03*
X1318000D03*
X1305500D03*
X1367100Y1158000D03*
X1377800Y1151000D03*
X1363800Y1165400D03*
X1344600Y1166500D03*
X1372600Y1162600D03*
X1412900Y1157900D03*
X1406500Y1182900D03*
X1406400Y1175000D03*
X1418400Y1175400D03*
X1416000Y1183400D03*
X1420500Y1163300D03*
X1413000Y1183400D03*
X1403800Y1162300D03*
X1387400Y1184300D03*
X1418200Y1158400D03*
X1415200Y1159200D03*
X1407500Y1159500D03*
X1388400Y1165500D03*
X1410100Y1158000D03*
X1392700Y1185600D03*
X1429500Y1164600D03*
X1451600Y1174500D03*
X1438500Y1164900D03*
X1440800Y1166600D03*
X1445100Y1168800D03*
X1445500Y1171900D03*
X1442900Y1173300D03*
X1440800Y1176700D03*
X1439800Y1179400D03*
X1436800Y1158800D03*
X1437900Y1161400D03*
X1452400Y1179500D03*
X1432000Y1182800D03*
X1437300Y1182100D03*
X1442900Y1164200D03*
X1425700Y1174900D03*
X1464500Y1173000D03*
X1466700Y1188200D03*
X1464400Y1160700D03*
X1465400Y1157500D03*
X1465000Y1154000D03*
X1467500Y1165500D03*
X1021000Y1195800D03*
Y1199000D03*
Y1202000D03*
Y1208400D03*
Y1205189D03*
X1021200Y1189400D03*
X1043500Y1208289D03*
Y1205089D03*
Y1202189D03*
Y1195689D03*
Y1198989D03*
Y1189489D03*
Y1192889D03*
X1101500Y1217000D03*
X1111500Y1189689D03*
Y1192889D03*
X1122500Y1197189D03*
X1121500Y1190689D03*
X1126900Y1190289D03*
X1119500Y1196689D03*
X1116800Y1196789D03*
X1116600Y1212189D03*
X1141693Y1192559D03*
X1123493Y1193748D03*
X1142500Y1196589D03*
X1178600Y1227889D03*
X1181500Y1224589D03*
X1175600Y1197789D03*
X1176900Y1211689D03*
X1179600Y1210089D03*
X1183000Y1210889D03*
X1181063Y1192559D03*
X1179000Y1197689D03*
X1165315Y1192559D03*
X1146800Y1196589D03*
X1149567Y1192559D03*
X1177000D03*
X1161378D03*
X1153504D03*
X1150400Y1196489D03*
X1153500Y1203189D03*
X1145630Y1192559D03*
X1172300Y1202489D03*
X1183500Y1226589D03*
X1185500Y1224589D03*
X1204800Y1196589D03*
X1200800Y1192559D03*
X1214900Y1223989D03*
X1185004Y1209062D03*
X1187200Y1210889D03*
X1188900Y1208589D03*
X1192800Y1209689D03*
X1194100Y1212189D03*
X1184900Y1192559D03*
X1188600Y1196489D03*
X1188937Y1192559D03*
X1192874D03*
X1193600Y1196989D03*
X1197000Y1192559D03*
X1197500Y1198489D03*
X1200800Y1196389D03*
X1212559Y1192559D03*
X1208600Y1196489D03*
X1208622Y1192559D03*
X1215000Y1217189D03*
X1220600Y1192559D03*
X1216100Y1196689D03*
X1204685Y1192559D03*
X1219900Y1196489D03*
X1216496Y1192559D03*
X1210500Y1218689D03*
X1209900Y1201189D03*
X1235500Y1212689D03*
X1228000Y1212189D03*
X1235500Y1202689D03*
X1252900Y1190189D03*
X1237000Y1196500D03*
X1231400Y1191589D03*
X1229400Y1189689D03*
X1229500Y1195189D03*
X1224370Y1192559D03*
X1276100Y1197700D03*
X1270900Y1200100D03*
X1286600Y1222400D03*
X1295500Y1198189D03*
X1297400Y1201300D03*
X1295500Y1209189D03*
Y1203689D03*
Y1192689D03*
X1268300Y1199600D03*
X1265900Y1205000D03*
X1339000Y1225689D03*
X1313000Y1226089D03*
X1305000Y1225700D03*
X1315491Y1225828D03*
X1306000Y1209689D03*
X1321062Y1225671D03*
X1321121Y1216828D03*
X1327244Y1225332D03*
X1318382Y1225671D03*
X1318478Y1216884D03*
X1304600Y1205400D03*
X1305700Y1199100D03*
X1355500Y1189500D03*
X1350400Y1201800D03*
X1354500Y1213189D03*
X1371500Y1211689D03*
Y1214389D03*
X1344570Y1225689D03*
X1376400Y1223000D03*
X1391300Y1200700D03*
X1410100Y1219300D03*
X1391300Y1204600D03*
X1412100Y1193300D03*
X1423000Y1229300D03*
X1391300Y1211900D03*
X1396600Y1195800D03*
X1400100Y1217200D03*
X1405200Y1209900D03*
X1386300Y1200100D03*
X1422700Y1193500D03*
X1415100Y1196100D03*
X1407100Y1221100D03*
X1419000Y1195000D03*
X1405200Y1195800D03*
X1414900Y1193300D03*
X1441900Y1208300D03*
X1426400Y1199500D03*
X1434000Y1204400D03*
X1444300Y1194800D03*
X1426200Y1195900D03*
X1440800Y1204500D03*
X1475400Y1227500D03*
X1463400Y1218189D03*
Y1221289D03*
X1101500Y1231000D03*
X1095500Y1263689D03*
X1071500Y1266689D03*
X1094800Y1268889D03*
X1069500Y1263189D03*
X1136300Y1232689D03*
X1138600Y1229689D03*
X1142500D03*
X1140600Y1233689D03*
X1122100Y1264489D03*
X1116500Y1231000D03*
X1111800Y1264389D03*
X1146400Y1229389D03*
X1164000Y1229689D03*
X1162000Y1232689D03*
X1160100Y1229689D03*
X1148400Y1232689D03*
X1157800D03*
X1144500D03*
X1152800Y1230789D03*
X1166000Y1234989D03*
X1174500Y1234689D03*
X1171800Y1236589D03*
X1168500Y1232689D03*
X1147000Y1264189D03*
X1215000Y1252189D03*
X1189800Y1229789D03*
X1212500Y1244689D03*
Y1234689D03*
X1216000Y1232189D03*
X1212500Y1229689D03*
X1215000Y1247189D03*
Y1237189D03*
X1214500Y1262189D03*
Y1267189D03*
X1212500Y1239689D03*
X1215000Y1242189D03*
Y1257189D03*
X1192300Y1233689D03*
X1212000Y1254689D03*
X1211500Y1259689D03*
Y1264689D03*
X1213400Y1249589D03*
X1198900Y1232689D03*
X1240500Y1237189D03*
X1241500Y1257189D03*
Y1262189D03*
Y1267189D03*
X1242000Y1242189D03*
X1242500Y1239189D03*
Y1247189D03*
Y1252189D03*
X1244500Y1244689D03*
Y1249689D03*
Y1254689D03*
Y1259689D03*
Y1264689D03*
X1258500Y1259189D03*
Y1246189D03*
X1282500Y1250689D03*
X1268500Y1245889D03*
X1271100D03*
X1298000Y1244689D03*
X1265800Y1245889D03*
X1263400Y1243189D03*
X1283900Y1233500D03*
X1288500Y1244689D03*
X1309900Y1250289D03*
X1336000Y1242389D03*
X1310000Y1242989D03*
X1325774Y1246562D03*
X1329074D03*
X1313000Y1251689D03*
X1333400Y1261300D03*
X1318676Y1241022D03*
X1321600Y1261089D03*
X1326700Y1261189D03*
X1329900Y1261089D03*
X1373600Y1239600D03*
X1346300Y1267989D03*
X1366000Y1239589D03*
X1420000Y1237500D03*
X1421500Y1244800D03*
X1397000Y1251000D03*
X1399600Y1235900D03*
X1438700Y1235000D03*
X1440400Y1237500D03*
X1437500Y1250200D03*
X1434300Y1258000D03*
X1439600Y1262789D03*
X1435600Y1268389D03*
X1435200Y1265189D03*
X1424500Y1247000D03*
X1453600Y1246400D03*
X1436000Y1245800D03*
X1429400Y1238100D03*
X1437100Y1241000D03*
X1426900Y1239900D03*
X1456900Y1248289D03*
X1475500Y1230600D03*
X1463600Y1246389D03*
X1475400Y1262000D03*
X1475500Y1259089D03*
X1475400Y1240200D03*
X1463600Y1249589D03*
X1475400Y1237200D03*
X1475500Y1255900D03*
X1475400Y1265400D03*
X1475300Y1252700D03*
X1463600Y1243200D03*
X1475500Y1233800D03*
X1114100Y1284889D03*
X1122200Y1269389D03*
X1112200Y1269689D03*
X1147000D03*
X1160000Y1291289D03*
X1213900Y1271889D03*
X1209900Y1286089D03*
X1260800Y1277489D03*
X1244000Y1269689D03*
X1244400Y1273289D03*
X1226500Y1278989D03*
X1244400Y1276589D03*
X1273300Y1277889D03*
X1263300Y1278589D03*
X1270400Y1277989D03*
X1290900Y1278289D03*
X1310300Y1290600D03*
X1340392Y1277689D03*
X1316600Y1271689D03*
X1319000Y1295689D03*
X1328500Y1271189D03*
X1332300Y1295889D03*
X1312800Y1277289D03*
X1314500Y1295689D03*
X1329500D03*
X1325000Y1271189D03*
X1344500Y1291189D03*
X1388500Y1293689D03*
Y1298189D03*
X1440000Y1299989D03*
X1435800Y1296889D03*
X1435700Y1303389D03*
X1439500Y1274789D03*
X1438000Y1271189D03*
X1440600Y1279689D03*
X1439800Y1306289D03*
X1458000Y1302689D03*
X1475400Y1274900D03*
Y1271700D03*
X1463400Y1302889D03*
X1463500Y1296689D03*
Y1300189D03*
X1392800Y1336700D03*
X1397900Y1334400D03*
X1436100Y1321189D03*
X1435800Y1315489D03*
X1439300Y1312689D03*
X1435900Y1309489D03*
X1432500Y1323389D03*
X1439400Y1318789D03*
X1476000Y1322100D03*
X1475900Y1318500D03*
X1463200Y1315700D03*
X1476300Y1334700D03*
X1463500Y1337589D03*
Y1328289D03*
Y1325300D03*
X1352500Y1372000D03*
Y1362500D03*
X1358000D03*
Y1358000D03*
X1352500D03*
X1347000D03*
Y1372000D03*
Y1367500D03*
X1352500D03*
X1358000D03*
Y1372000D03*
X1347000Y1362500D03*
X1452000Y1369000D03*
Y1364000D03*
X1447500Y1369000D03*
X1442500D03*
X1438000Y1364000D03*
X1442500Y1372500D03*
X1438000D03*
Y1369000D03*
X1442500Y1364000D03*
X1447500D03*
X1401000Y1415689D03*
X1398800Y1420889D03*
X1389500Y1421500D03*
X1413600Y1421189D03*
X1405100Y1421089D03*
X1362500Y1450500D03*
Y1457500D03*
X1390200Y1445800D03*
X1388000Y1434000D03*
Y1437000D03*
X1401500Y1444500D03*
X1395000Y1445500D03*
X1415000Y1436489D03*
X1416500Y1434000D03*
X1394500Y1459500D03*
X1398000Y1444000D03*
G54D53*
X1088600Y1293489D02*
Y1300989D01*
X1083600Y1293489D02*
Y1300989D01*
X1078600Y1293489D02*
Y1300989D01*
X1073600Y1293489D02*
Y1300989D01*
X1068600Y1293489D02*
Y1300989D01*
X1063600Y1293489D02*
Y1300989D01*
X1058600Y1293489D02*
Y1300989D01*
X1053600Y1293489D02*
Y1300989D01*
X1048600Y1293489D02*
Y1300989D01*
X1043600Y1293489D02*
Y1300989D01*
X1038600Y1293489D02*
X1093600D01*
Y1300989*
X1038600*
Y1293489*
X1077778Y1614263D02*
X1315278D01*
Y1549935*
X1077778*
Y1614263*
G54D54*
X1050200Y1061889D03*
X1049500Y1058189D03*
X1028700Y1061300D03*
X1083500Y1055189D03*
X1072200Y1037589D03*
X1131900Y1036200D03*
X1132400Y1030900D03*
X1181000Y1045500D03*
X1170400Y1056500D03*
X1173600Y1062400D03*
X1178200Y1066000D03*
X1173600D03*
X1178200Y1062400D03*
X1211500Y1062300D03*
X1196500Y1063500D03*
X1226500Y1062200D03*
X1258500Y1053700D03*
X1253900Y1053900D03*
X1235500Y1058689D03*
X1257500Y1066689D03*
X1289200Y1045000D03*
X1272500Y1066189D03*
X1266000Y1066789D03*
X1300500Y1067189D03*
X1339000D03*
X1318000Y1067789D03*
X1324000D03*
X1334200Y1067189D03*
X1329400D03*
X1307000D03*
X1358000Y1067800D03*
X1365500Y1065689D03*
X1343600Y1067189D03*
X1348500D03*
X1404900Y1067000D03*
X1448000Y1054189D03*
X1446000Y1056689D03*
X1444000Y1054189D03*
X1439500D03*
X1432200Y1035789D03*
X1451500Y1036689D03*
X1460500Y1036889D03*
X1466900Y1037889D03*
X1061100Y1087989D03*
X1025900Y1075489D03*
X1083800Y1086889D03*
X1095700Y1090689D03*
X1083900Y1072289D03*
X1084700Y1100789D03*
X1153700Y1107189D03*
X1166100Y1085100D03*
X1196500Y1070000D03*
X1192000Y1104189D03*
X1249500Y1085800D03*
X1247100Y1093100D03*
X1259000Y1096189D03*
X1295500Y1096689D03*
Y1102689D03*
Y1091689D03*
X1296000Y1108189D03*
X1303000Y1078189D03*
X1286500Y1097089D03*
Y1102700D03*
X1286000Y1091689D03*
X1286500Y1108189D03*
X1286100Y1070089D03*
Y1075289D03*
X1286000Y1086189D03*
X1286200Y1080689D03*
X1267000Y1096189D03*
X1324000Y1078189D03*
X1329500D03*
X1339000Y1077989D03*
X1318000Y1078189D03*
X1307000D03*
X1343400Y1077989D03*
X1365500Y1075689D03*
X1356500Y1090100D03*
Y1094689D03*
X1366600Y1083400D03*
X1366000Y1094689D03*
X1389900Y1098489D03*
X1400600Y1079000D03*
X1385400Y1093600D03*
X1385000Y1083389D03*
X1390500Y1094200D03*
X1421200Y1083689D03*
Y1088689D03*
Y1093689D03*
X1421100Y1098789D03*
X1383600Y1098589D03*
X1443500Y1089189D03*
X1442990Y1076189D03*
X1463130D03*
X1462900Y1088700D03*
X1429050Y1076219D03*
X1452200Y1094289D03*
X1432000Y1094689D03*
X1446000Y1070289D03*
X1449400Y1076189D03*
X1428700Y1069589D03*
X1448800Y1108000D03*
X1463200Y1069589D03*
X1019200Y1143100D03*
X1050800Y1124689D03*
X1049800Y1120789D03*
X1026000Y1137989D03*
Y1123189D03*
X1083300Y1142589D03*
X1119000Y1119689D03*
X1109300D03*
X1171500Y1135800D03*
X1242800Y1123689D03*
X1258500Y1137789D03*
X1234600Y1146189D03*
X1233200Y1138989D03*
X1295500Y1119189D03*
Y1113689D03*
X1285700Y1123600D03*
X1273200Y1121689D03*
X1286500Y1119189D03*
X1286100Y1113689D03*
X1273200Y1116189D03*
Y1127189D03*
Y1132689D03*
X1263600Y1123689D03*
X1264200Y1146700D03*
X1312292Y1135505D03*
X1336500Y1136189D03*
X1315668Y1135542D03*
X1324400Y1135289D03*
X1312700Y1145489D03*
X1321493Y1145179D03*
X1318500Y1145189D03*
X1339000Y1145389D03*
X1350000Y1135989D03*
X1365000Y1134589D03*
X1356500Y1122189D03*
X1355900Y1135989D03*
X1356500Y1116689D03*
X1360000Y1145589D03*
X1382000Y1120189D03*
X1344500Y1145389D03*
X1366000Y1122189D03*
X1381900Y1123889D03*
X1350000Y1145389D03*
X1356000D03*
X1366500Y1116689D03*
X1423000Y1133900D03*
X1385000Y1139000D03*
X1385678Y1125739D03*
X1405500Y1148500D03*
X1383600Y1110500D03*
X1384000Y1129189D03*
X1407700Y1138000D03*
X1385200Y1147300D03*
X1442900Y1111300D03*
X1442500Y1119500D03*
X1440800Y1133500D03*
X1430400Y1134400D03*
X1427500Y1115000D03*
X1448500Y1120000D03*
X1428500Y1118500D03*
X1449000Y1116500D03*
X1428000Y1111500D03*
X1464500Y1111689D03*
X1463220Y1120089D03*
X1466600Y1122700D03*
X1026000Y1177689D03*
Y1154800D03*
X1062900Y1157389D03*
X1073500Y1164673D03*
X1069600Y1170189D03*
X1248300Y1151800D03*
X1244500Y1160989D03*
X1253900Y1186700D03*
X1250700Y1161089D03*
X1286500Y1187189D03*
Y1181689D03*
X1286200Y1170689D03*
Y1159689D03*
Y1165089D03*
Y1176289D03*
X1298700Y1154200D03*
X1335500Y1158289D03*
X1312500Y1158189D03*
X1318000D03*
X1305500D03*
X1341400Y1158200D03*
X1324000Y1158189D03*
X1329500D03*
X1381000Y1183189D03*
X1372500Y1179500D03*
X1356500Y1179000D03*
Y1184689D03*
X1356000Y1168000D03*
X1368600Y1167700D03*
X1358000Y1159489D03*
X1347000Y1159500D03*
X1352500Y1159489D03*
X1366500Y1173689D03*
Y1179189D03*
Y1184689D03*
X1384000Y1185689D03*
Y1188689D03*
X1425500Y1149700D03*
X1450100Y1164600D03*
X1425600Y1164400D03*
X1474400Y1176900D03*
X1040500Y1229000D03*
X1061400Y1189789D03*
X1025900Y1217489D03*
X1026000Y1202200D03*
X1138000Y1197189D03*
X1117000Y1217000D03*
X1132400Y1217489D03*
X1132600Y1226089D03*
X1127700Y1203289D03*
X1212500Y1214289D03*
X1242400Y1216289D03*
X1231000Y1202000D03*
X1262500D03*
X1242630Y1225489D03*
X1231900Y1212289D03*
X1273200Y1211689D03*
X1297243Y1225738D03*
X1286500Y1198189D03*
X1273200Y1206189D03*
Y1216889D03*
Y1222689D03*
X1263600Y1216189D03*
X1263800Y1225689D03*
X1286500Y1209189D03*
Y1203689D03*
Y1192689D03*
X1329500Y1197689D03*
X1325900Y1201789D03*
X1328000Y1193189D03*
X1356500Y1201189D03*
X1366100Y1223089D03*
X1356000Y1225689D03*
X1367000Y1213189D03*
X1356500Y1206189D03*
X1350000Y1225689D03*
X1356500Y1218689D03*
X1366500Y1201189D03*
Y1189500D03*
X1381500Y1213689D03*
X1366500Y1206189D03*
Y1218689D03*
X1369500Y1195089D03*
X1388200Y1189700D03*
X1396200Y1219200D03*
X1407800Y1198000D03*
X1383906Y1219165D03*
X1391100Y1209000D03*
X1423100Y1199300D03*
X1423000Y1204500D03*
Y1209400D03*
X1383600Y1210389D03*
X1383500Y1205989D03*
X1383600Y1201700D03*
X1428400Y1223800D03*
X1423400Y1212600D03*
X1423700Y1223300D03*
X1457900Y1223289D03*
X1463300Y1224400D03*
X1019400Y1229600D03*
X1040400Y1243989D03*
X1034600Y1240000D03*
X1053543Y1260236D03*
X1256400Y1233789D03*
X1272100Y1229800D03*
X1297500Y1259189D03*
X1292500Y1264189D03*
X1274600Y1262789D03*
X1273500Y1260189D03*
X1268500Y1230189D03*
X1275600D03*
X1287200Y1234500D03*
X1299500Y1263189D03*
X1266600Y1262989D03*
X1265900Y1259889D03*
X1279900Y1243200D03*
X1304500Y1243689D03*
X1305400Y1259189D03*
X1339000Y1235689D03*
X1313000Y1235189D03*
X1338500Y1254189D03*
X1333000D03*
X1318500Y1235689D03*
X1356000D03*
X1344500D03*
X1344000Y1254189D03*
X1350000Y1235689D03*
X1417100Y1249900D03*
X1400300Y1259200D03*
X1396600Y1240200D03*
X1398700Y1256000D03*
X1462800Y1268500D03*
X1053543Y1270472D03*
X1165300Y1276189D03*
X1254500Y1294689D03*
X1258500D03*
X1266500Y1294189D03*
X1292500D03*
X1274500D03*
X1276200Y1277489D03*
X1300500Y1294189D03*
X1305200Y1277489D03*
X1458000Y1287189D03*
Y1272189D03*
X1420500Y1330189D03*
X1462900Y1347189D03*
X1458100Y1325689D03*
X1462900Y1343989D03*
X1440500Y1344189D03*
Y1340689D03*
Y1337689D03*
X1378000Y1388500D03*
Y1383500D03*
Y1378000D03*
X1383000Y1388500D03*
Y1383500D03*
Y1378000D03*
X1420500Y1388500D03*
Y1383000D03*
Y1377500D03*
X1462800Y1356589D03*
X1426000Y1388500D03*
Y1383000D03*
Y1377500D03*
X1458100Y1365489D03*
X1458300Y1350889D03*
X1440500Y1356689D03*
Y1353589D03*
X1462800Y1350389D03*
X1476000Y1353589D03*
X1378000Y1393500D03*
X1383000D03*
X1392500Y1398189D03*
X1410000D03*
X1420500Y1394500D03*
X1417000Y1416000D03*
X1402500Y1429000D03*
X1385000Y1415689D03*
X1407500Y1429000D03*
X1397500D03*
X1426000Y1394500D03*
X1370500Y1445000D03*
X1377500D03*
X1409900Y1459700D03*
X1406500Y1445500D03*
X1401500Y1460100D03*
X1414500Y1459300D03*
X1385500Y1462000D03*
X1400500Y1432500D03*
X1409000Y1443000D03*
X1420500Y1445000D03*
X1384000D03*
X1407500Y1435689D03*
X1402500D03*
X1397500D03*
X1405000Y1432500D03*
X1427500Y1445000D03*
X1434500D03*
G54D57*
X1320000Y1090500D03*
X1320100Y1087400D03*
X1332300Y1090400D03*
X1335400Y1090600D03*
X1335700Y1085800D03*
X1335400Y1093700D03*
X1316800Y1090400D03*
X1329307Y1090347D03*
X1341905Y1093497D03*
X1310409D03*
X1313700Y1093789D03*
X1316708Y1093497D03*
X1338600Y1090389D03*
X1338300Y1086000D03*
X1341905Y1096646D03*
X1338755Y1109245D03*
X1329307Y1093497D03*
X1323007D03*
X1341905Y1099796D03*
X1313559Y1102945D03*
X1335700Y1099789D03*
X1338500Y1103189D03*
X1338800Y1096589D03*
X1313700Y1096789D03*
X1319858Y1093497D03*
X1321000Y1103189D03*
X1332000Y1086300D03*
X1341905Y1109245D03*
X1316400Y1087100D03*
X1341800Y1103000D03*
X1335606Y1109245D03*
X1316708D03*
X1310409D03*
X1335500Y1103189D03*
X1329307Y1096646D03*
X1323500Y1086689D03*
X1313559Y1109245D03*
X1317000Y1103189D03*
X1338800Y1099789D03*
X1316708Y1099796D03*
X1335500Y1096589D03*
X1332100Y1096689D03*
X1323000D03*
X1319858Y1096646D03*
X1316708D03*
X1338600Y1093589D03*
X1332456Y1093497D03*
X1306800Y1093989D03*
X1341800Y1090589D03*
X1310400Y1090289D03*
X1307259D03*
X1345000Y1090589D03*
X1345500Y1096189D03*
X1345055Y1093497D03*
X1345500Y1099689D03*
X1310409Y1118693D03*
Y1121843D03*
X1313559D03*
X1318618Y1125689D03*
X1321098D03*
X1329307Y1121843D03*
X1329900Y1125589D03*
X1332456Y1121843D03*
X1341905Y1115544D03*
X1307100Y1118400D03*
X1323007Y1118693D03*
X1329307D03*
X1335606Y1112394D03*
X1332456Y1118693D03*
X1319858D03*
X1338755Y1115544D03*
X1313559D03*
X1325853Y1126214D03*
X1329307Y1115544D03*
X1338755Y1124993D03*
X1341905Y1121843D03*
X1338755D03*
X1335606D03*
X1323007D03*
X1319858D03*
X1316708D03*
X1338755Y1118693D03*
X1335606D03*
X1316708D03*
X1313559D03*
X1335606Y1115544D03*
X1332456D03*
X1323007D03*
X1319858D03*
X1316708D03*
X1310409D03*
X1338755Y1112394D03*
X1316708D03*
X1313559D03*
X1310409D03*
X1345100Y1121843D03*
X1320000Y1180500D03*
Y1177300D03*
X1332400Y1180600D03*
X1332200Y1177100D03*
X1335400Y1180600D03*
X1335600Y1176900D03*
X1335400Y1183700D03*
X1316800Y1180600D03*
Y1176100D03*
X1329307Y1180347D03*
Y1183497D03*
X1323007D03*
X1310409D03*
X1316708D03*
X1313559D03*
X1338500Y1180489D03*
X1341900Y1183589D03*
Y1186689D03*
X1338300Y1177100D03*
X1338400Y1186789D03*
X1313600Y1186889D03*
X1319900Y1183389D03*
X1329307Y1186646D03*
X1335600D03*
X1332456D03*
X1323200Y1186889D03*
X1319800D03*
X1316800D03*
X1338400Y1183689D03*
X1332456Y1183497D03*
X1307300Y1183689D03*
X1341800Y1180489D03*
X1310409Y1180347D03*
X1307100Y1180189D03*
X1323007Y1177197D03*
X1346400Y1180689D03*
X1346500Y1177189D03*
X1346000Y1186189D03*
X1345500Y1183489D03*
X1341905Y1192889D03*
Y1199245D03*
X1329307Y1208693D03*
X1323007D03*
X1338755Y1199245D03*
X1307100Y1214989D03*
X1310500Y1189789D03*
Y1211689D03*
X1310600Y1208389D03*
X1313559Y1211843D03*
X1313600Y1189789D03*
X1329307Y1211843D03*
Y1214993D03*
X1332456Y1211843D03*
X1335606Y1214993D03*
X1341905D03*
Y1205544D03*
X1338700Y1192889D03*
X1335606Y1202394D03*
X1313600Y1193089D03*
X1335400Y1190089D03*
X1320600Y1192889D03*
X1332456Y1208693D03*
X1319858D03*
X1338755Y1205544D03*
X1313559D03*
X1335600Y1192889D03*
X1324852Y1216449D03*
X1316708Y1199245D03*
X1338755Y1214993D03*
X1341905Y1211843D03*
X1338755D03*
X1335606D03*
X1323007D03*
X1319858D03*
X1316708D03*
X1338755Y1208693D03*
X1335606D03*
X1316708D03*
X1313559D03*
X1335606Y1205544D03*
X1332456D03*
X1323007D03*
X1319858D03*
X1316708D03*
X1310409D03*
X1338755Y1202394D03*
X1316708D03*
X1313559D03*
X1310409D03*
X1313559Y1199245D03*
X1310409D03*
X1316800Y1192989D03*
X1338500Y1190189D03*
X1316800Y1189789D03*
X1345055Y1214993D03*
X1345000Y1189989D03*
X1345055Y1211843D03*
X1073642Y1253878D03*
X1076594Y1256831D03*
Y1268642D03*
X1079547Y1259783D03*
X1088406Y1262736D03*
X1085453Y1253878D03*
X1091400Y1259789D03*
X1079547Y1262736D03*
X1088406Y1259783D03*
X1085453Y1256831D03*
X1091400Y1256830D03*
X1085453Y1268642D03*
X1073642Y1256831D03*
Y1259783D03*
X1076594D03*
Y1262736D03*
X1079547Y1253878D03*
X1088406Y1253877D03*
Y1256830D03*
X1076594Y1253878D03*
X1085453Y1259783D03*
Y1262736D03*
X1079547Y1256831D03*
X1088406Y1268642D03*
X1126043Y1253780D03*
X1128996Y1256831D03*
X1129094Y1268642D03*
X1132047Y1259783D03*
X1140906Y1262736D03*
X1138051Y1253780D03*
X1132047Y1262736D03*
X1140906Y1259783D03*
X1137953Y1256831D03*
Y1268642D03*
X1126142Y1256831D03*
Y1259783D03*
X1129094D03*
Y1262736D03*
X1131949Y1253780D03*
X1141004D03*
X1141000Y1256789D03*
X1129094Y1253878D03*
X1132047Y1268642D03*
X1137953Y1259783D03*
Y1262736D03*
X1132047Y1256831D03*
X1140906Y1268642D03*
X1143858Y1259783D03*
Y1256831D03*
X1181650Y1256839D03*
Y1263138D03*
X1181551Y1259890D03*
Y1253591D03*
X1194051Y1253689D03*
X1197201Y1269240D03*
X1187949Y1259988D03*
X1184799Y1256839D03*
Y1259988D03*
Y1263138D03*
Y1253689D03*
X1197201D03*
Y1263138D03*
X1187949D03*
Y1253689D03*
X1194051Y1263138D03*
X1200449Y1263039D03*
Y1256740D03*
Y1259890D03*
X1194051Y1256839D03*
X1197201Y1259988D03*
Y1256839D03*
X1194051Y1259988D03*
X1187949Y1256839D03*
X1200449Y1253591D03*
X1088406Y1274547D03*
X1073642Y1277500D03*
X1085400Y1277589D03*
X1079547Y1277500D03*
X1073642Y1271594D03*
Y1274547D03*
X1085453D03*
X1088406Y1277500D03*
X1079547Y1271594D03*
X1085453D03*
X1076594D03*
X1079547Y1274547D03*
X1091358D03*
Y1271594D03*
X1088406D03*
X1076596Y1277500D03*
X1140900Y1274589D03*
X1137953Y1277500D03*
X1132047D03*
X1126142Y1271594D03*
Y1274547D03*
X1137953D03*
X1140906Y1277500D03*
X1132047Y1271594D03*
X1137953D03*
X1129094D03*
X1126000Y1277598D03*
X1132047Y1274547D03*
X1140906Y1271594D03*
X1129094Y1277500D03*
X1181551Y1278787D03*
Y1272488D03*
Y1269339D03*
X1143957Y1277598D03*
X1181551Y1275638D03*
X1143858Y1274547D03*
Y1271594D03*
X1194051Y1272390D03*
X1184701Y1272488D03*
Y1278787D03*
X1187850D03*
X1200449Y1269339D03*
X1197201Y1275539D03*
X1200350D03*
X1184701Y1269339D03*
X1200449Y1272488D03*
X1197201Y1272390D03*
Y1278689D03*
X1200350D03*
X1188000Y1281189D03*
X1184701Y1275638D03*
X1194150D03*
G74*
X0Y0D02*
M02*
