%
T1C.008F0S0
X13068Y109399
X130726Y109029
X13104Y109029
X131041Y10935
X131041Y110924
X131356Y110294
X131356Y110924
X13137Y109379
X13137Y109679
X13164Y10871
X131671Y10935
X131671Y110924
X131671Y10998
X131671Y109665
X13168Y10904
X1317Y110319
X131986Y10935
X131986Y109665
X132Y10905
X13201Y10874
X1321Y110319
X1323Y109669
X132301Y10935
X13235Y108669
X132931Y10935
X132931Y109035
X132931Y109665
X1332Y10863
X13321Y109669
X13323Y10904
X133246Y10935
X13354Y10906
X13354Y10937
X13355Y110319
X13355Y109659
X133561Y110924
X13357Y109979
X13357Y10858
X13383Y1086
X13385Y110319
X13386Y109039
X13386Y109359
X133876Y110924
X13388Y109659
X13388Y109979
X13418Y1103
X13418Y109059
X134191Y109665
X134191Y10935
X134191Y110925
X134191Y10998
X1345Y109059
X134506Y10935
X13455Y109619
X13455Y109969
X13451Y112184
X134191Y111554
X134191Y112184
X133876Y111554
X133876Y112499
X133876Y112184
X133876Y111869
X133876Y111239
X133561Y111239
X133561Y112184
X133561Y111869
X133561Y111554
X133246Y111869
X133246Y111554
X133246Y112184
X13299Y112559
X132931Y111554
X132931Y112184
X132931Y111869
X132585Y112621
X132301Y112184
X132301Y111869
X132301Y111554
X13211Y112569
X131986Y112184
X131986Y111554
X131986Y111869
X131862Y112569
X131671Y111869
X131671Y112184
X131671Y111554
X131671Y111239
X131356Y111869
X131356Y111554
X131356Y112184
X131356Y111239
X131041Y112184
X131041Y111554
X131041Y111239
X131041Y111869
X13071Y11184
X13071Y118019
X13073Y118369
X131041Y11835
X131041Y118035
X131356Y11835
X131671Y11835
X13168Y11806
X13168Y11761
X13199Y118339
X132Y11773
X132Y11805
X132301Y11835
X132301Y11772
X132931Y118035
X132931Y11835
X13322Y11771
X13324Y11806
X133246Y11835
X13354Y11837
X13354Y11806
X13356Y11769
X13383Y11771
X13384Y118369
X13385Y118049
X13418Y118049
X13419Y118359
X13455Y118349
X1346Y118619
X13464Y118069
X13465Y117719
X1345Y118999
X134191Y119289
X134191Y119925
X134191Y120554
X13419Y118669
X133876Y119924
X133876Y120554
X133876Y120869
X133876Y120239
X13387Y119289
X13385Y119019
X13384Y118679
X133561Y120239
X133561Y120869
X133561Y120554
X13356Y119289
X13356Y118665
X13354Y119009
X133246Y118665
X133246Y120869
X133246Y120554
X132931Y118665
X132931Y120869
X13232Y118689
X132301Y120554
X132301Y120869
X13206Y119289
X131986Y120869
X131986Y120554
X13198Y118689
X13168Y119299
X13168Y118979
X13168Y118689
X131671Y119924
X131671Y120554
X131671Y120239
X131671Y120869
X13136Y119309
X13136Y118689
X13136Y118979
X131356Y120239
X131356Y119924
X131356Y120554
X131356Y120869
X13106Y120839
X13105Y118979
X131041Y120554
X131041Y120239
X131041Y119924
X107364Y125388
X107364Y125683
X107364Y125978
X107659Y125683
X107659Y125978
X107659Y125388
X107955Y125978
X107955Y125388
X107955Y125683
X108545Y125388
X108545Y125683
X108545Y125978
X108841Y125978
X108841Y125388
X108841Y125683
X10914Y125979
X10914Y125683
X112604Y125378
X112614Y125683
X112614Y125978
X1129Y125683
X112909Y125978
X112909Y125388
X113195Y125378
X113205Y125978
X113205Y125683
X113795Y125683
X113795Y125978
X113805Y125378
X114091Y125978
X1141Y125679
X1141Y125378
X114386Y125978
X114386Y125683
X118155Y125989
X118155Y125359
X118165Y125684
X11848Y125684
X11848Y125999
X11848Y125369
X118795Y125999
X118795Y125369
X118795Y125684
X119405Y125369
X119405Y125684
X119405Y125999
X11972Y125369
X11972Y125999
X11972Y125684
X120045Y125674
X120045Y125989
X120045Y125359
X13071Y121499
X13105Y121169
X131356Y121184
X131671Y121184
X131986Y121184
X132301Y121184
X132485Y121645
X132931Y121499
X132931Y121184
X133246Y121184
X133561Y121184
X133561Y121499
X133876Y121184
X133876Y121499
X134191Y121499
X134191Y121184
X134506Y121499
X134506Y121184
X120045Y126304
X120045Y126934
X120045Y127249
X120035Y127554
X120035Y127869
X11972Y126314
X11972Y127554
X11972Y126924
X11972Y127239
X11972Y127869
X119415Y127564
X119405Y126314
X119405Y127239
X1188Y128119
X118795Y126314
X118785Y127879
X11848Y126314
X11847Y127249
X11847Y127879
X11847Y126934
X11847Y127564
X118165Y126314
X118155Y127879
X118155Y127249
X118155Y126934
X118155Y127564
X114396Y12776
X114386Y127455
X114386Y127159
X114091Y12775
X114091Y127159
X114091Y126864
X114091Y126274
X11409Y127459
X113795Y12775
X113795Y127455
X113795Y127159
X113795Y126864
X113795Y126274
X113205Y12775
X113205Y127159
X113205Y127455
X113205Y126274
X113205Y126864
X112909Y127159
X112909Y12775
X112909Y126274
X112909Y126864
X112614Y127159
X112614Y127455
X1126Y12776
X109136Y127455
X109136Y127159
X108841Y127159
X108841Y12775
X108841Y126864
X108841Y127455
X108841Y126274
X108545Y127455
X108545Y126864
X108545Y126274
X108545Y127159
X10854Y127759
X107955Y127159
X107955Y12775
X107955Y126274
X107955Y127455
X10766Y12775
X107659Y126274
X107659Y127159
X107659Y126864
X107364Y127455
X107364Y12775
X107364Y127159
T2C.01F0S0
X10434Y103379
X10511Y103159
X10583Y103069
X107Y10349
X10704Y102869
X10736Y102709
X1077Y10245
X10831Y10351
X1085Y10321
X10941Y10312
X10991Y1033
X11024Y10326
X1115Y1035
X1116Y1029
X11295Y102989
X11695Y10315
X12Y1032
X12095Y10313
X1261Y10313
X12658Y10314
X1296Y10315
X13015Y10315
X131Y10315
X14475Y103619
X14675Y105619
X14675Y105169
X14563Y10526
X14545Y103669
X1452Y105469
X14475Y105049
X1435Y10515
X143Y1055
X14295Y106
X14155Y10605
X14155Y10555
X1405Y10486
X13095Y1043
X12995Y10462
X12995Y10415
X12891Y10413
X12736Y10451
X12726Y10559
X12686Y10562
X12685Y10516
X12644Y1045
X1262Y10413
X12543Y10487
X12542Y10442
X12463Y105189
X12436Y10506
X12411Y105199
X12376Y105169
X12289Y10519
X12045Y1059
X11997Y10413
X11915Y10486
X1191Y1043
X11886Y10564
X1181Y10415
X11665Y10496
X11435Y10465
X11435Y1051
X11433Y10564
X11315Y1054
X11315Y10503
X11295Y10612
X11276Y10507
X11164Y10483
X11149Y10385
X11015Y10539
X11012Y10505
X10991Y10374
X10956Y10583
X10954Y105
X10944Y104529
X10925Y103999
X10924Y10578
X10886Y10375
X1087Y10613
X10868Y104049
X10855Y105269
X1085Y105769
X1084Y106069
X1072Y104069
X10694Y105719
X10669Y105269
X10658Y105539
X10655Y104519
X10655Y104819
X10646Y103879
X1061Y104839
X1046Y106519
X10647Y107769
X10671Y106399
X10708Y106799
X1074Y107779
X10741Y108579
X10741Y107299
X10741Y108059
X10741Y108319
X10825Y106359
X10864Y107579
X10918Y1068
X10919Y1071
X10925Y10788
X11002Y10863
X11007Y107
X11205Y1085
X11284Y10674
X11286Y10794
X11291Y10751
X11294Y10645
X113Y10825
X1131Y10719
X11434Y10684
X11438Y10615
X11532Y10856
X11534Y1073
X11655Y10625
X11655Y10685
X11655Y10655
X11916Y10706
X11916Y10742
X11916Y10774
X1207Y107119
X12075Y1078
X12125Y10835
X12174Y10624
X12265Y108319
X12386Y10863
X1239Y107199
X12412Y108349
X1251Y106819
X1256Y10816
X1259Y108169
X12605Y10655
X12625Y108169
X12675Y108119
X1283Y106609
X12875Y10615
X1296Y108019
X13Y108569
X13125Y106619
X13267Y10804
X13566Y10848
X1375Y108339
X138Y108339
X13876Y10834
X13904Y10834
X13935Y10773
X13975Y10648
X13976Y10795
X1404Y10804
X14062Y10824
X14074Y10852
X14105Y10635
X14113Y1075
X14205Y10775
X1421Y10665
X14295Y10823
X14425Y106519
X14449Y10802
X1449Y10812
X14494Y106619
X14495Y10715
X14635Y108269
X14675Y107019
X14675Y109269
X14635Y109969
X1452Y109909
X14436Y11018
X14296Y110489
X1429Y10888
X14254Y110899
X14248Y108769
X14195Y11041
X14114Y10894
X14104Y1096
X14092Y10874
X14092Y10916
X139773Y110624
X13897Y10914
X13877Y11074
X13867Y10911
X13695Y110519
X13665Y110069
X13665Y111119
X13565Y111119
X1355Y110769
X1353Y1095
X12715Y109119
X12549Y109239
X122831Y110988
X122437Y110989
X12206Y110929
X12126Y110959
X1211Y110339
X12095Y1096
X1209Y11075
X1206Y1094
X120469Y110979
X120075Y110989
X1196Y110989
X11918Y110949
X11875Y110939
X1186Y10915
X11806Y110919
X11775Y110519
X11764Y110929
X11721Y110889
X11695Y10945
X116925Y110988
X11656Y110989
X11645Y109919
X11611Y110969
X11535Y10905
X115Y10905
X114957Y110988
X1146Y10905
X11456Y110999
X114169Y110988
X1137Y1087
X1137Y10905
X11231Y10909
X1123Y110969
X11225Y11019
X1122Y109919
X11185Y11095
X11181Y10916
X1111Y10865
X11101Y109629
X11081Y10908
X11057Y10947
X11053Y110139
X1099Y1099
X10833Y111099
X10747Y109709
X10742Y108859
X10728Y110569
X10703Y110899
X10671Y110329
X10588Y109669
X10493Y109429
X10455Y109399
X10305Y109059
X10302Y109839
X10299Y108739
X1021Y11106
X1021Y11076
X1021Y10982
X1021Y11044
X1021Y11012
X1021Y1095
X1021Y11138
X1021Y1117
X1021Y112
X1021Y11232
X1021Y11296
X1021Y11264
X10435Y112069
X10505Y113469
X10614Y112379
X10619Y111619
X10633Y112169
X10686Y113529
X10726Y113479
X10832Y112049
X10832Y112349
X10853Y111429
X10985Y11194
X11036Y112359
X1111Y113169
X1114Y113129
X11177Y112879
X1126Y1127
X11415Y11335
X114169Y112563
X114169Y112957
X114169Y112169
X114169Y111776
X114169Y111382
X114563Y112169
X114563Y111776
X114563Y11335
X114563Y112957
X114563Y111382
X114563Y112563
X114957Y112563
X114957Y112957
X114957Y112169
X114957Y111382
X114957Y111776
X114957Y11335
X11535Y111382
X11535Y111776
X11535Y112169
X11535Y112957
X11535Y11335
X115744Y111382
X115744Y112169
X115744Y111776
X116138Y111776
X116138Y111382
X116138Y112169
X11654Y111776
X11654Y112169
X11656Y111382
X116925Y111382
X116925Y111776
X116925Y112169
X117319Y112169
X117327Y111382
X117327Y111776
X117713Y111776
X117713Y111382
X117713Y112169
X118106Y111776
X118106Y112169
X11848Y111382
X118894Y111776
X118894Y112169
X118894Y112549
X119243Y111776
X11927Y11139
X119637Y111382
X119681Y111776
X119681Y112169
X120075Y112169
X120075Y111776
X120075Y111382
X120468Y111776
X120468Y112169
X120468Y111382
X12086Y11178
X120862Y112169
X12124Y11139
X121244Y112563
X121256Y111776
X12165Y11335
X12165Y112563
X12165Y112957
X122043Y112563
X122043Y112169
X122043Y112957
X122043Y111776
X122043Y111382
X122437Y112563
X122437Y112169
X122437Y112957
X122437Y111776
X122437Y111382
X12283Y111382
X122831Y112563
X122831Y111776
X122831Y112169
X12325Y112569
X12385Y11138
X12385Y111769
X12575Y113169
X12592Y11286
X12626Y11159
X12635Y113369
X1264Y112819
X12675Y112019
X12828Y113269
X12828Y111619
X12828Y112719
X12895Y11363
X12999Y11248
X13048Y11345
X131862Y113329
X13214Y113339
X134227Y11345
X134571Y113459
X13491Y111239
X13535Y11141
X13565Y112799
X13676Y112969
X13704Y112029
X13711Y112299
X138452Y113257
X1393Y1113
X1402Y11194
X1415Y11222
X14243Y11132
X14485Y11228
X14525Y11327
X1465Y11364
X14669Y11463
X14668Y11399
X14654Y11575
X1465Y1154
X14644Y11607
X14505Y11476
X14469Y11449
X14379Y11614
X14368Y11588
X14367Y11424
X14202Y11485
X14182Y11584
X14154Y11462
X14152Y11592
X14129Y11579
X14101Y1158
X14075Y11595
X14032Y11403
X13933Y11465
X13824Y11451
X13778Y1151
X13704Y113699
X13671Y1158
X1339Y114899
X1339Y115169
X1313Y115419
X13014Y11443
X12918Y11497
X12895Y114669
X12818Y11404
X12785Y113969
X12755Y11598
X12702Y113999
X12605Y11584
X12436Y113699
X1238Y113719
X12308Y114699
X123Y113919
X12294Y11555
X122831Y116106
X122831Y114925
X122437Y114138
X122437Y114531
X122437Y116106
X122437Y115702
X122437Y113744
X122437Y114925
X122043Y114925
X122043Y114138
X122043Y114531
X122043Y116106
X122043Y113744
X12204Y11571
X12166Y11571
X12165Y113744
X12165Y114531
X12165Y116106
X12165Y114925
X12165Y114138
X12095Y114169
X119681Y114925
X119681Y116106
X119681Y115713
X119681Y115319
X119287Y114925
X119287Y114531
X119287Y114138
X119287Y116106
X119287Y115713
X118894Y114531
X118894Y114925
X118894Y115713
X118894Y116106
X118894Y114138
X1185Y114138
X118106Y116106
X118106Y115713
X118106Y114531
X118106Y114925
X118106Y114138
X117713Y115713
X117713Y116106
X117713Y114138
X117713Y114531
X117713Y114925
X117319Y115713
X117319Y116106
X117319Y114138
X117319Y114925
X117319Y114531
X1159Y114569
X11535Y115719
X11535Y116106
X11535Y114531
X11535Y114925
X11535Y113744
X11535Y114138
X114957Y114138
X114957Y113744
X114957Y114531
X114957Y115719
X114957Y114925
X114957Y116106
X114563Y113744
X114563Y114531
X114563Y114925
X114563Y114138
X114563Y116106
X11415Y113744
X11415Y114969
X11415Y114569
X11415Y114138
X11271Y115339
X11244Y115319
X11212Y115329
X11185Y115329
X11159Y115329
X11158Y114799
X1113Y114869
X1113Y115269
X1111Y114669
X1109Y115329
X11082Y115029
X10718Y115799
X10706Y115559
X107Y115259
X10682Y114269
X10681Y115009
X10673Y114729
X10637Y114789
X10631Y114219
X1021Y1158
X1021Y11548
X1021Y1161
X1021Y11516
X1021Y11484
X1021Y11642
X1021Y118
X1021Y11674
X1021Y11736
X1021Y11832
X1021Y11768
X10212Y11862
X10511Y11646
X10629Y116389
X1065Y117219
X10659Y117469
X1067Y117719
X10675Y116789
X10729Y118019
X1084Y11826
X1084Y118629
X11103Y116779
X11111Y117359
X11135Y117699
X11145Y116939
X11155Y117469
X11167Y116789
X11174Y117699
X11193Y116799
X11195Y117369
X11215Y117699
X11219Y116789
X1123Y117369
X11246Y116799
X11258Y117669
X11305Y116819
X11328Y117519
X114169Y1165
X114169Y116894
X114563Y1165
X114563Y116894
X114563Y118468
X114957Y118469
X114957Y116894
X114957Y118049
X114957Y117287
X114957Y117669
X114957Y1165
X11535Y118049
X11535Y1165
X11535Y117669
X11535Y118468
X115744Y118468
X116138Y118468
X11624Y116459
X116532Y118468
X11675Y117469
X116925Y118468
X117319Y1165
X117319Y118468
X1177Y118468
X1177Y118019
X117713Y1165
X118106Y118468
X118106Y1165
X118894Y1165
X118894Y118468
X11922Y11762
X119287Y118468
X119287Y1165
X11965Y118419
X119681Y1165
X12Y117619
X12008Y118468
X12046Y118468
X12065Y117569
X12086Y118468
X1211Y116739
X12125Y118468
X12165Y118468
X12165Y116894
X12165Y1165
X12165Y117287
X12165Y117681
X12165Y118075
X12203Y118468
X122043Y116894
X122043Y117681
X122043Y1165
X122043Y117287
X122437Y116894
X122437Y1165
X122437Y118075
X122437Y117681
X122437Y118468
X12283Y1165
X122831Y118468
X122831Y117287
X122831Y116894
X12335Y11681
X12411Y11768
X12442Y11777
X12534Y11624
X12539Y116819
X1258Y11617
X12614Y116219
X1267Y118019
X12697Y11761
X12699Y11642
X12752Y11627
X12801Y11644
X12955Y118169
X13055Y116719
X13125Y116719
X1318Y116719
X1324Y116719
X13286Y1175
X13295Y116719
X13355Y116719
X13446Y11665
X13638Y11654
X13726Y11626
X13874Y11843
X13884Y11655
X13927Y11856
X14038Y11623
X14064Y1175
X14065Y11829
X1413Y11834
X1416Y11834
X14184Y11754
X14205Y11633
X14257Y11749
X14295Y11646
X1432Y11828
X14373Y11821
X14385Y11649
X14398Y11794
X14408Y11767
X14408Y11666
X14429Y11642
X14429Y11733
X14451Y11688
X14455Y11719
X14516Y11745
X14524Y11795
X14645Y1173
X14675Y11655
X14667Y11882
X14443Y11948
X14419Y12083
X14408Y12045
X1434Y12044
X14264Y11995
X14262Y11959
X14227Y11935
X1419Y1195
X14151Y11961
X14149Y11933
X14121Y11933
X14052Y12099
X14052Y11958
X13966Y11958
X13913Y12007
X13913Y12046
X13863Y12001
X13555Y11895
X13504Y12018
X1306Y120969
X13057Y11991
X13046Y12054
X12974Y12013
X12955Y119819
X12955Y120919
X12955Y120369
X12955Y119269
X12955Y118719
X12761Y11977
X12709Y12001
X12683Y11996
X12659Y1205
X12529Y119019
X12485Y11888
X1237Y11965
X12355Y120269
X12314Y119159
X12295Y119519
X12294Y118969
X122437Y119256
X122437Y118862
X12206Y119256
X12203Y118862
X12199Y119649
X12165Y119256
X12161Y119669
X121256Y119256
X121243Y118862
X12099Y120119
X120862Y119256
X12086Y119649
X12084Y118862
X12048Y119659
X120468Y119256
X120453Y118862
X12008Y119256
X12008Y119639
X12008Y118862
X11975Y119849
X1197Y119256
X1197Y118862
X11936Y119699
X119287Y119256
X119287Y118862
X11928Y120969
X118894Y119256
X118894Y118862
X11889Y120859
X11886Y119649
X11872Y121089
X1185Y120906
X11849Y119256
X1183Y121089
X118106Y119256
X118106Y118862
X11796Y121009
X1179Y119769
X1177Y119256
X1177Y118862
X11756Y119779
X117319Y118862
X11723Y120249
X116925Y118862
X116532Y118862
X116532Y119256
X116138Y118862
X116138Y119256
X115744Y118862
X11535Y119256
X11535Y118862
X11535Y120319
X11504Y119649
X114957Y119256
X114957Y118862
X11468Y119659
X114563Y119256
X11425Y119659
X114169Y119256
X11405Y118769
X11269Y119029
X112349Y119375
X11225Y119719
X11215Y119069
X11195Y119669
X11168Y119679
X11115Y119289
X11115Y118969
X10844Y118919
X10435Y119569
X10435Y119899
X10435Y120219
X10435Y120829
X10435Y119289
X10435Y118949
X10435Y120509
X10212Y11894
X1021Y11958
X1021Y12084
X1021Y120519
X1021Y1202
X1021Y1199
X11015Y1217
X11015Y1231
X11165Y1231
X11166Y121219
X11363Y123269
X11386Y122969
X11406Y123369
X11425Y122969
X11445Y123269
X11464Y122939
X11484Y123269
X11528Y123079
X11578Y123269
X11601Y122969
X1162Y123269
X1164Y122969
X1166Y123499
X11685Y123269
X11745Y123469
X11769Y121169
X11786Y122789
X11815Y122459
X11835Y122659
X11855Y122459
X11898Y122979
X11923Y123369
X11941Y121219
X11989Y123269
X12105Y121869
X12125Y123469
X12125Y122969
X12149Y122399
X1215Y121719
X1216Y123219
X1228Y121219
X12355Y121269
X12839Y12335
X12866Y12224
X1305Y12257
X1313Y122609
X131549Y122583
X131838Y122567
X131848Y121688
X132106Y122567
X132112Y121683
X132724Y122533
X1339Y122569
X134457Y122569
X13545Y121319
X13715Y121439
X13715Y121169
X13764Y1223
X13913Y12119
X13996Y12359
X14001Y12172
X14071Y12211
X14101Y12193
X1423Y12293
X14387Y1235
X14634Y121819
X14634Y122129
X14754Y12275
X14755Y12306
X14755Y12338
X14755Y125909
X14755Y12559
X14754Y12402
X14754Y12372
X14753Y12527
X14636Y124639
X14636Y124959
X14636Y12432
X14569Y124829
X14536Y12464
X14404Y12375
X14375Y12502
X14371Y1241
X1436Y12458
X14343Y1258
X14294Y12381
X14269Y12399
X14245Y1247
X14215Y12448
X142Y12375
X1397Y1251
X13736Y12396
X1366Y123959
X1336Y124239
X13334Y12613
X13299Y126109
X132907Y124656
X13267Y126119
X132577Y124656
X13216Y126109
X131868Y124102
X1313Y125169
X131Y124299
X13099Y125029
X1298Y124469
X12885Y124469
X12825Y125069
X12711Y124589
X12685Y124589
X12658Y124589
X12634Y124319
X12585Y125919
X12585Y124619
X12445Y125969
X12445Y125469
X12445Y124469
X12445Y124969
X12425Y125219
X12425Y124719
X12425Y123919
X1242Y124219
X12415Y125719
X12405Y123719
X1215Y125219
X1215Y124719
X1215Y124219
X1215Y123719
X1215Y125719
X12134Y124959
X12125Y123969
X12125Y124469
X1212Y125469
X12115Y125969
X11718Y123659
X10695Y126319
X10715Y126669
X10948Y126889
X10955Y126369
X11118Y126439
X11122Y126969
X11141Y128489
X11221Y126449
X11222Y126939
X1147Y126419
X1147Y126969
X12099Y128609
X12115Y126469
X12139Y127189
X12145Y126719
X12145Y126219
X12265Y127899
X12415Y126719
X12415Y126219
X1244Y126969
X12444Y127329
X12444Y127659
X12445Y126469
X12608Y127749
X12633Y127859
X12704Y127799
X12733Y127789
X12909Y127829
X13128Y127729
X13166Y127169
X1325Y127119
X13285Y127119
X134039Y127769
X13463Y126799
X14352Y126519
X14356Y126839
X1438Y127119
X14395Y127479
X14396Y126279
X14406Y127969
X14754Y1262
X14754Y12654
X14754Y12749
X14754Y12717
X14763Y13347
X1476Y13221
X14759Y13185
X14635Y129669
X14635Y130019
X14635Y132829
X14635Y13253
X14634Y130289
X14632Y13157
X1458Y130269
X144Y129999
X14398Y130629
X14394Y131879
X14393Y131269
X14361Y132119
X14359Y130949
X14358Y131549
X14358Y129689
X14357Y130339
X14325Y132339
X13979Y13344
X13885Y129369
X13885Y129819
X13445Y129119
X13323Y129589
X13295Y129569
X1319Y129569
X13145Y129569
X13103Y12906
X116Y129129
X1347Y1358
X1347Y1372
X1347Y13675
X1347Y13625
X13525Y1372
X13525Y13625
X13525Y13675
X13525Y1358
X1358Y1358
X1358Y13675
X1358Y1372
X1358Y13625
X13928Y13367
X1438Y1364
X1438Y13725
X1438Y1369
X14425Y1369
X14425Y13725
X14425Y1364
X14475Y1369
X14475Y1364
X1452Y1364
X1452Y1369
X14635Y133759
X14165Y1434
X1415Y143649
X14136Y142119
X14051Y142109
X14015Y14445
X1401Y141569
X13988Y142089
X1398Y1444
X1395Y14455
X13945Y14595
X13902Y14458
X13895Y14215
X1388Y1437
X1388Y1434
X13625Y14575
X13625Y14505
T3C.012F0S0
X10287Y10613
X10495Y105819
X10722Y103759
X10835Y105519
X11319Y10362
X11324Y10309
X11704Y10565
X1181Y10455
X12355Y105869
X12539Y10539
X12585Y10537
X12892Y1045
X14322Y103579
X14395Y105419
X1444Y105419
X1446Y105669
X1448Y105419
X14515Y103669
X14605Y103689
X14669Y103789
X14632Y106959
X146313Y107619
X14494Y107619
X1446Y107029
X144299Y107619
X142905Y107622
X14287Y106959
X14212Y108369
X14049Y1067
X14006Y1079
X1385Y108339
X13666Y10834
X13655Y107569
X13655Y106569
X1358Y10678
X13485Y106719
X13436Y106719
X13434Y107799
X1339Y107799
X1339Y106719
X13342Y106719
X13295Y107819
X13294Y106719
X1324Y107819
X1324Y106779
X1318Y107819
X1318Y106779
X1307Y107819
X1307Y106719
X1303Y107819
X13005Y106719
X12862Y108069
X12861Y107009
X12861Y107529
X1286Y108619
X12725Y106619
X1266Y106679
X12575Y106669
X12495Y10858
X12265Y10622
X12115Y10623
X11965Y10635
X11965Y107
X11782Y10624
X11782Y1066
X11736Y10624
X11736Y1066
X11661Y10851
X10839Y107229
X10502Y106189
X10259Y107549
X10611Y108799
X10838Y108689
X10847Y110079
X10957Y109069
X11537Y110719
X1192Y110419
X12471Y10931
X1259Y109619
X1267Y109619
X1286Y109169
X12865Y109709
X12865Y11027
X12865Y110819
X12955Y109169
X12955Y110269
X12955Y109669
X1296Y110819
X13565Y109469
X13565Y10901
X1366Y109469
X13836Y109859
X13836Y11105
X13854Y10936
X13899Y109849
X13905Y10942
X14211Y109879
X14212Y109369
X14212Y108869
X1432Y109469
X14429Y11113
X14435Y108919
X14488Y1108
X14522Y109429
X14629Y10887
X14666Y11227
X14645Y111169
X146322Y112009
X1449Y11165
X14485Y112
X14425Y11195
X14408Y11335
X14304Y11344
X14285Y11185
X1428Y11115
X14275Y1115
X1423Y11339
X138568Y112574
X1384Y112919
X1382Y112019
X13819Y112389
X13665Y111669
X1366Y112219
X1365Y113459
X13565Y112219
X13565Y111669
X13559Y113599
X135Y113599
X13365Y113619
X13244Y113529
X131567Y113554
X131229Y11355
X12955Y111919
X12955Y111369
X12865Y111919
X12861Y111369
X12857Y11236
X12732Y113269
X12732Y111619
X12732Y112719
X12732Y112169
X12636Y112369
X12428Y112369
X11715Y11358
X1119Y111969
X11093Y111969
X10508Y112469
X10498Y112079
X1026Y112319
X10192Y11431
X1026Y113799
X1026Y11548
X10629Y115739
X10833Y114259
X12332Y113899
X12346Y114619
X12445Y116099
X12483Y11518
X12507Y116109
X12585Y113779
X12642Y11467
X12862Y115969
X12987Y11542
X13055Y115819
X13125Y115819
X13127Y114549
X1318Y115819
X13185Y114519
X132149Y114518
X1324Y115819
X13295Y115819
X13355Y115829
X1339Y114539
X13414Y11582
X13445Y114539
X1347Y11595
X135Y114539
X13525Y115949
X1356Y114539
X1358Y115949
X136Y114559
X1385Y1139
X13852Y11473
X14055Y11485
X14077Y1138
X14255Y11497
X14744Y11769
X14501Y11646
X14256Y11644
X1384Y118569
X1381Y118319
X13725Y11795
X13686Y11677
X13665Y117369
X13665Y117919
X13665Y118469
X13565Y118469
X13565Y1179
X1356Y1168
X12865Y118169
X12862Y116509
X12862Y117069
X12862Y117629
X10735Y116467
X10696Y117019
X1026Y117769
X1026Y12022
X10614Y118979
X11277Y120329
X1138Y119719
X1231Y1202
X12539Y11867
X12625Y1202
X12732Y120619
X12865Y118719
X12865Y119819
X12865Y120919
X12865Y120369
X12865Y119269
X13259Y120179
X1328Y119319
X13295Y119769
X13565Y120119
X13565Y120619
X13665Y120119
X13665Y11895
X13665Y120619
X13695Y119509
X13835Y120599
X13836Y121039
X13836Y12017
X1384Y118869
X13882Y11897
X13911Y1209
X14078Y1198
X1423Y12045
X1423Y12094
X14231Y11993
X14633Y12244
X14579Y122329
X14284Y12238
X14237Y12233
X14234Y12126
X13962Y12192
X138391Y121916
X13815Y121369
X1367Y121319
X13665Y121869
X13661Y122309
X13565Y121869
X1356Y122569
X1356Y123569
X135Y122569
X135Y123569
X13445Y123569
X1339Y123569
X13185Y123569
X1313Y123519
X129724Y122574
X12872Y12345
X12756Y123019
X12732Y121689
X12732Y121169
X12732Y122269
X12721Y12298
X12685Y123019
X12638Y122569
X12636Y121619
X12564Y123379
X124263Y122549
X12424Y121629
X12319Y121229
X12125Y121429
X11326Y122609
X11324Y121749
X1117Y1217
X10405Y1229
X10259Y121749
X10194Y12296
X10346Y124
X10404Y124399
X105354Y126024
X105354Y127047
X11653Y127619
X12659Y125989
X12666Y126299
X12735Y126019
X12746Y126279
X12762Y127749
X12799Y12432
X12925Y126419
X12975Y125919
X12995Y126319
X13045Y124369
X13052Y127749
X13054Y125919
X1333Y125419
X13385Y125419
X1344Y125419
X13966Y12402
X13987Y1256
X14003Y12592
X14171Y12499
X1458Y127219
X14628Y12685
X1476Y135359
X14629Y134719
X14629Y134399
X14628Y135659
X14628Y135039
X14583Y135089
X14581Y132569
X1458Y128719
X14405Y134419
X14405Y134069
X14405Y133769
X14405Y135669
X14405Y135359
X14205Y133019
X13005Y129419
X12925Y129419
X12745Y129419
X12665Y129419
X12585Y129469
X12545Y129469
X1378Y13835
X1378Y1378
X1378Y13885
X1378Y13935
X1383Y13835
X1383Y1378
X1383Y13885
X1383Y13935
X13925Y139819
X141Y139819
X14205Y13775
X14205Y13885
X14205Y1383
X14205Y13945
X1426Y13885
X1426Y1383
X1426Y13775
X1426Y13945
X14581Y136549
X14345Y1445
X14275Y1445
X14205Y1445
X1417Y1416
X14145Y14593
X14099Y14597
X1409Y1443
X14075Y143569
X14075Y1429
X14065Y14455
X1405Y14325
X14025Y143569
X14025Y1429
X14015Y14601
X14005Y14325
X13975Y1429
X13975Y143569
X1385Y141569
X1384Y1445
X13775Y1445
X13705Y1445
X13855Y1462
T4C.0315F0S0
X141463Y1044
X14226Y1044
T5C.034F0S0
X1123Y10365
X1123Y10465
X1123Y10565
X1123Y10665
X1123Y10765
X1236Y123209
X1236Y125209
X1236Y124209
X1236Y126209
X1236Y127209
T6C.04F0S0
X103656Y106003
X103656Y121802
X146868Y120841
X146868Y13664
T7C.04F0S0
X13508Y102819
X13608Y102819
X13708Y102819
X13808Y102819
X13908Y102819
X14008Y102819
T8C.096F0S0
X1123Y10115
X1236Y129709
T9C.16614F0S0
X103728Y101172
X145066Y101172
X145066Y146448
X101681Y126369
M30
