*
*
G04 PADS 9.5 Build Number: 522968 generated Gerber (RS-274-X) file*
G04 PC Version=2.1*
*
%IN "CCCNGP_MPC5534_PCB_REV_"*%
*
%MOIN*%
*
%FSLAX35Y35*%
*
*
*
*
G04 PC Standard Apertures*
*
*
G04 Thermal Relief Aperture macro.*
%AMTER*
1,1,$1,0,0*
1,0,$1-$2,0,0*
21,0,$3,$4,0,0,45*
21,0,$3,$4,0,0,135*
%
*
*
G04 Annular Aperture macro.*
%AMANN*
1,1,$1,0,0*
1,0,$2,0,0*
%
*
*
G04 Odd Aperture macro.*
%AMODD*
1,1,$1,0,0*
1,0,$1-0.005,0,0*
%
*
*
G04 PC Custom Aperture Macros*
*
*
*
*
*
*
G04 PC Aperture Table*
*
%ADD010C,0.001*%
%ADD043C,0.01*%
%ADD044C,0.006*%
%ADD048C,0.007*%
%ADD051C,0.005*%
%ADD053C,0.008*%
%ADD056C,0.004*%
%ADD087C,0.00787*%
%ADD151C,0.00984*%
%ADD153C,0.00598*%
*
*
*
*
G04 PC Circuitry*
G04 Layer Name CCCNGP_MPC5534_PCB_REV_ - circuitry*
%LPD*%
*
*
G04 PC Custom Flashes*
G04 Layer Name CCCNGP_MPC5534_PCB_REV_ - flashes*
%LPD*%
*
*
G04 PC Circuitry*
G04 Layer Name CCCNGP_MPC5534_PCB_REV_ - circuitry*
%LPD*%
*
G54D10*
G54D43*
G01X1391300Y1134378D02*
G75*
G03X1391300I-500J0D01*
G01X1162500Y1562251D02*
Y1555689D01*
Y1562251D02*
X1164545D01*
X1165227Y1561939*
X1165455Y1561626*
X1165682Y1561001*
Y1560376*
X1165455Y1559751*
X1165227Y1559439*
X1164545Y1559126*
X1162500D02*
X1164545D01*
X1165227Y1558814*
X1165455Y1558501*
X1165682Y1557876*
Y1556939*
X1165455Y1556314*
X1165227Y1556001*
X1164545Y1555689*
X1162500*
X1169091Y1562251D02*
X1168636Y1561939D01*
X1168182Y1561314*
X1167955Y1560689*
X1167727Y1559751*
Y1558189*
X1167955Y1557251*
X1168182Y1556626*
X1168636Y1556001*
X1169091Y1555689*
X1170000*
X1170455Y1556001*
X1170909Y1556626*
X1171136Y1557251*
X1171364Y1558189*
Y1559751*
X1171136Y1560689*
X1170909Y1561314*
X1170455Y1561939*
X1170000Y1562251*
X1169091*
X1175000D02*
Y1555689D01*
X1173409Y1562251D02*
X1176591D01*
X1180227D02*
Y1555689D01*
X1178636Y1562251D02*
X1181818D01*
X1185227D02*
X1184773Y1561939D01*
X1184318Y1561314*
X1184091Y1560689*
X1183864Y1559751*
Y1558189*
X1184091Y1557251*
X1184318Y1556626*
X1184773Y1556001*
X1185227Y1555689*
X1186136*
X1186591Y1556001*
X1187045Y1556626*
X1187273Y1557251*
X1187500Y1558189*
Y1559751*
X1187273Y1560689*
X1187045Y1561314*
X1186591Y1561939*
X1186136Y1562251*
X1185227*
X1189545D02*
Y1555689D01*
Y1562251D02*
X1191364Y1555689D01*
X1193182Y1562251D02*
X1191364Y1555689D01*
X1193182Y1562251D02*
Y1555689D01*
X1203636Y1561314D02*
X1203182Y1561939D01*
X1202500Y1562251*
X1201591*
X1200909Y1561939*
X1200455Y1561314*
Y1560689*
X1200682Y1560064*
X1200909Y1559751*
X1201364Y1559439*
X1202727Y1558814*
X1203182Y1558501*
X1203409Y1558189*
X1203636Y1557564*
Y1556626*
X1203182Y1556001*
X1202500Y1555689*
X1201591*
X1200909Y1556001*
X1200455Y1556626*
X1205682Y1562251D02*
Y1555689D01*
X1207727Y1562251D02*
Y1555689D01*
X1210455*
X1212500Y1562251D02*
Y1555689D01*
X1215682Y1562251D02*
X1212500Y1557876D01*
X1213636Y1559439D02*
X1215682Y1555689D01*
X1220909Y1561314D02*
X1220455Y1561939D01*
X1219773Y1562251*
X1218864*
X1218182Y1561939*
X1217727Y1561314*
Y1560689*
X1217955Y1560064*
X1218182Y1559751*
X1218636Y1559439*
X1220000Y1558814*
X1220455Y1558501*
X1220682Y1558189*
X1220909Y1557564*
Y1556626*
X1220455Y1556001*
X1219773Y1555689*
X1218864*
X1218182Y1556001*
X1217727Y1556626*
X1226364Y1560689D02*
X1226136Y1561314D01*
X1225682Y1561939*
X1225227Y1562251*
X1224318*
X1223864Y1561939*
X1223409Y1561314*
X1223182Y1560689*
X1222955Y1559751*
Y1558189*
X1223182Y1557251*
X1223409Y1556626*
X1223864Y1556001*
X1224318Y1555689*
X1225227*
X1225682Y1556001*
X1226136Y1556626*
X1226364Y1557251*
X1228409Y1562251D02*
Y1555689D01*
Y1562251D02*
X1230455D01*
X1231136Y1561939*
X1231364Y1561626*
X1231591Y1561001*
Y1560376*
X1231364Y1559751*
X1231136Y1559439*
X1230455Y1559126*
X1228409*
X1230000D02*
X1231591Y1555689D01*
X1233636Y1562251D02*
Y1555689D01*
Y1562251D02*
X1236591D01*
X1233636Y1559126D02*
X1235455D01*
X1233636Y1555689D02*
X1236591D01*
X1238636Y1562251D02*
Y1555689D01*
Y1562251D02*
X1241591D01*
X1238636Y1559126D02*
X1240455D01*
X1238636Y1555689D02*
X1241591D01*
X1243636Y1562251D02*
Y1555689D01*
Y1562251D02*
X1246818Y1555689D01*
Y1562251D02*
Y1555689D01*
X1082778Y1590825D02*
Y1584263D01*
Y1590825D02*
X1084823D01*
X1085505Y1590513*
X1085733Y1590200*
X1085960Y1589575*
Y1588950*
X1085733Y1588325*
X1085505Y1588013*
X1084823Y1587700*
X1082778D02*
X1084823D01*
X1085505Y1587388*
X1085733Y1587075*
X1085960Y1586450*
Y1585513*
X1085733Y1584888*
X1085505Y1584575*
X1084823Y1584263*
X1082778*
X1089369Y1590825D02*
X1088914Y1590513D01*
X1088460Y1589888*
X1088233Y1589263*
X1088005Y1588325*
Y1586763*
X1088233Y1585825*
X1088460Y1585200*
X1088914Y1584575*
X1089369Y1584263*
X1090278*
X1090733Y1584575*
X1091187Y1585200*
X1091414Y1585825*
X1091642Y1586763*
Y1588325*
X1091414Y1589263*
X1091187Y1589888*
X1090733Y1590513*
X1090278Y1590825*
X1089369*
X1095505D02*
X1093687Y1584263D01*
X1095505Y1590825D02*
X1097323Y1584263D01*
X1094369Y1586450D02*
X1096642D01*
X1099369Y1590825D02*
Y1584263D01*
Y1590825D02*
X1101414D01*
X1102096Y1590513*
X1102323Y1590200*
X1102551Y1589575*
Y1588950*
X1102323Y1588325*
X1102096Y1588013*
X1101414Y1587700*
X1099369*
X1100960D02*
X1102551Y1584263D01*
X1104596Y1590825D02*
Y1584263D01*
Y1590825D02*
X1106187D01*
X1106869Y1590513*
X1107323Y1589888*
X1107551Y1589263*
X1107778Y1588325*
Y1586763*
X1107551Y1585825*
X1107323Y1585200*
X1106869Y1584575*
X1106187Y1584263*
X1104596*
X1120278Y1590825D02*
Y1584263D01*
Y1590825D02*
X1123460Y1584263D01*
Y1590825D02*
Y1584263D01*
X1127323Y1590825D02*
X1125505Y1584263D01*
X1127323Y1590825D02*
X1129142Y1584263D01*
X1126187Y1586450D02*
X1128460D01*
X1131187Y1590825D02*
Y1584263D01*
Y1590825D02*
X1133005Y1584263D01*
X1134823Y1590825D02*
X1133005Y1584263D01*
X1134823Y1590825D02*
Y1584263D01*
X1136869Y1590825D02*
Y1584263D01*
Y1590825D02*
X1139823D01*
X1136869Y1587700D02*
X1138687D01*
X1136869Y1584263D02*
X1139823D01*
X1147096Y1587075D02*
X1151187D01*
X1082500Y1562251D02*
Y1555689D01*
Y1562251D02*
X1084091D01*
X1084773Y1561939*
X1085227Y1561314*
X1085455Y1560689*
X1085682Y1559751*
Y1558189*
X1085455Y1557251*
X1085227Y1556626*
X1084773Y1556001*
X1084091Y1555689*
X1082500*
X1089091Y1562251D02*
X1088636Y1561939D01*
X1088182Y1561314*
X1087955Y1560689*
X1087727Y1559751*
Y1558189*
X1087955Y1557251*
X1088182Y1556626*
X1088636Y1556001*
X1089091Y1555689*
X1090000*
X1090455Y1556001*
X1090909Y1556626*
X1091136Y1557251*
X1091364Y1558189*
Y1559751*
X1091136Y1560689*
X1090909Y1561314*
X1090455Y1561939*
X1090000Y1562251*
X1089091*
X1096818Y1560689D02*
X1096591Y1561314D01*
X1096136Y1561939*
X1095682Y1562251*
X1094773*
X1094318Y1561939*
X1093864Y1561314*
X1093636Y1560689*
X1093409Y1559751*
Y1558189*
X1093636Y1557251*
X1093864Y1556626*
X1094318Y1556001*
X1094773Y1555689*
X1095682*
X1096136Y1556001*
X1096591Y1556626*
X1096818Y1557251*
X1098864Y1562251D02*
Y1557564D01*
X1099091Y1556626*
X1099545Y1556001*
X1100227Y1555689*
X1100682*
X1101364Y1556001*
X1101818Y1556626*
X1102045Y1557564*
Y1562251*
X1104091D02*
Y1555689D01*
Y1562251D02*
X1105909Y1555689D01*
X1107727Y1562251D02*
X1105909Y1555689D01*
X1107727Y1562251D02*
Y1555689D01*
X1109773Y1562251D02*
Y1555689D01*
Y1562251D02*
X1112727D01*
X1109773Y1559126D02*
X1111591D01*
X1109773Y1555689D02*
X1112727D01*
X1114773Y1562251D02*
Y1555689D01*
Y1562251D02*
X1117955Y1555689D01*
Y1562251D02*
Y1555689D01*
X1121591Y1562251D02*
Y1555689D01*
X1120000Y1562251D02*
X1123182D01*
X1130455D02*
Y1555689D01*
Y1562251D02*
X1133636Y1555689D01*
Y1562251D02*
Y1555689D01*
X1137500Y1562251D02*
X1135682Y1555689D01*
X1137500Y1562251D02*
X1139318Y1555689D01*
X1136364Y1557876D02*
X1138636D01*
X1141364Y1562251D02*
Y1555689D01*
Y1562251D02*
X1143182Y1555689D01*
X1145000Y1562251D02*
X1143182Y1555689D01*
X1145000Y1562251D02*
Y1555689D01*
X1147045Y1562251D02*
Y1555689D01*
Y1562251D02*
X1150000D01*
X1147045Y1559126D02*
X1148864D01*
X1147045Y1555689D02*
X1150000D01*
X1152045Y1558501D02*
X1156136D01*
X1131187Y1606763D02*
X1130960Y1607388D01*
X1130505Y1608013*
X1130051Y1608325*
X1129142*
X1128687Y1608013*
X1128233Y1607388*
X1128005Y1606763*
X1127778Y1605825*
Y1604263*
X1128005Y1603325*
X1128233Y1602700*
X1128687Y1602075*
X1129142Y1601763*
X1130051*
X1130505Y1602075*
X1130960Y1602700*
X1131187Y1603325*
X1134596Y1608325D02*
X1134142Y1608013D01*
X1133687Y1607388*
X1133460Y1606763*
X1133233Y1605825*
Y1604263*
X1133460Y1603325*
X1133687Y1602700*
X1134142Y1602075*
X1134596Y1601763*
X1135505*
X1135960Y1602075*
X1136414Y1602700*
X1136642Y1603325*
X1136869Y1604263*
Y1605825*
X1136642Y1606763*
X1136414Y1607388*
X1135960Y1608013*
X1135505Y1608325*
X1134596*
X1138914D02*
Y1601763D01*
Y1608325D02*
X1140733Y1601763D01*
X1142551Y1608325D02*
X1140733Y1601763D01*
X1142551Y1608325D02*
Y1601763D01*
X1144596Y1608325D02*
Y1601763D01*
Y1608325D02*
X1146642D01*
X1147323Y1608013*
X1147551Y1607700*
X1147778Y1607075*
Y1606138*
X1147551Y1605513*
X1147323Y1605200*
X1146642Y1604888*
X1144596*
X1149823Y1608325D02*
Y1601763D01*
Y1608325D02*
X1151869D01*
X1152551Y1608013*
X1152778Y1607700*
X1153005Y1607075*
Y1606450*
X1152778Y1605825*
X1152551Y1605513*
X1151869Y1605200*
X1149823*
X1151414D02*
X1153005Y1601763D01*
X1155051Y1608325D02*
Y1601763D01*
Y1608325D02*
X1158005D01*
X1155051Y1605200D02*
X1156869D01*
X1155051Y1601763D02*
X1158005D01*
X1163233Y1607388D02*
X1162778Y1608013D01*
X1162096Y1608325*
X1161187*
X1160505Y1608013*
X1160051Y1607388*
Y1606763*
X1160278Y1606138*
X1160505Y1605825*
X1160960Y1605513*
X1162323Y1604888*
X1162778Y1604575*
X1163005Y1604263*
X1163233Y1603638*
Y1602700*
X1162778Y1602075*
X1162096Y1601763*
X1161187*
X1160505Y1602075*
X1160051Y1602700*
X1168460Y1607388D02*
X1168005Y1608013D01*
X1167323Y1608325*
X1166414*
X1165733Y1608013*
X1165278Y1607388*
Y1606763*
X1165505Y1606138*
X1165733Y1605825*
X1166187Y1605513*
X1167551Y1604888*
X1168005Y1604575*
X1168233Y1604263*
X1168460Y1603638*
Y1602700*
X1168005Y1602075*
X1167323Y1601763*
X1166414*
X1165733Y1602075*
X1165278Y1602700*
X1171869Y1608325D02*
X1171414Y1608013D01*
X1170960Y1607388*
X1170733Y1606763*
X1170505Y1605825*
Y1604263*
X1170733Y1603325*
X1170960Y1602700*
X1171414Y1602075*
X1171869Y1601763*
X1172778*
X1173233Y1602075*
X1173687Y1602700*
X1173914Y1603325*
X1174142Y1604263*
Y1605825*
X1173914Y1606763*
X1173687Y1607388*
X1173233Y1608013*
X1172778Y1608325*
X1171869*
X1176187D02*
Y1601763D01*
Y1608325D02*
X1178233D01*
X1178914Y1608013*
X1179142Y1607700*
X1179369Y1607075*
Y1606450*
X1179142Y1605825*
X1178914Y1605513*
X1178233Y1605200*
X1176187*
X1177778D02*
X1179369Y1601763D01*
X1190051Y1606763D02*
X1189823Y1607388D01*
X1189369Y1608013*
X1188914Y1608325*
X1188005*
X1187551Y1608013*
X1187096Y1607388*
X1186869Y1606763*
X1186642Y1605825*
Y1604263*
X1186869Y1603325*
X1187096Y1602700*
X1187551Y1602075*
X1188005Y1601763*
X1188914*
X1189369Y1602075*
X1189823Y1602700*
X1190051Y1603325*
X1193460Y1608325D02*
X1193005Y1608013D01*
X1192551Y1607388*
X1192323Y1606763*
X1192096Y1605825*
Y1604263*
X1192323Y1603325*
X1192551Y1602700*
X1193005Y1602075*
X1193460Y1601763*
X1194369*
X1194823Y1602075*
X1195278Y1602700*
X1195505Y1603325*
X1195733Y1604263*
Y1605825*
X1195505Y1606763*
X1195278Y1607388*
X1194823Y1608013*
X1194369Y1608325*
X1193460*
X1197778D02*
Y1601763D01*
Y1608325D02*
X1200960Y1601763D01*
Y1608325D02*
Y1601763D01*
X1204596Y1608325D02*
Y1601763D01*
X1203005Y1608325D02*
X1206187D01*
X1208233D02*
Y1601763D01*
Y1608325D02*
X1210278D01*
X1210960Y1608013*
X1211187Y1607700*
X1211414Y1607075*
Y1606450*
X1211187Y1605825*
X1210960Y1605513*
X1210278Y1605200*
X1208233*
X1209823D02*
X1211414Y1601763D01*
X1214823Y1608325D02*
X1214369Y1608013D01*
X1213914Y1607388*
X1213687Y1606763*
X1213460Y1605825*
Y1604263*
X1213687Y1603325*
X1213914Y1602700*
X1214369Y1602075*
X1214823Y1601763*
X1215733*
X1216187Y1602075*
X1216642Y1602700*
X1216869Y1603325*
X1217096Y1604263*
Y1605825*
X1216869Y1606763*
X1216642Y1607388*
X1216187Y1608013*
X1215733Y1608325*
X1214823*
X1219142D02*
Y1601763D01*
X1221869*
X1227096Y1607388D02*
X1226642Y1608013D01*
X1225960Y1608325*
X1225051*
X1224369Y1608013*
X1223914Y1607388*
Y1606763*
X1224142Y1606138*
X1224369Y1605825*
X1224823Y1605513*
X1226187Y1604888*
X1226642Y1604575*
X1226869Y1604263*
X1227096Y1603638*
Y1602700*
X1226642Y1602075*
X1225960Y1601763*
X1225051*
X1224369Y1602075*
X1223914Y1602700*
X1237778Y1606763D02*
X1237551Y1607388D01*
X1237096Y1608013*
X1236642Y1608325*
X1235733*
X1235278Y1608013*
X1234823Y1607388*
X1234596Y1606763*
X1234369Y1605825*
Y1604263*
X1234596Y1603325*
X1234823Y1602700*
X1235278Y1602075*
X1235733Y1601763*
X1236642*
X1237096Y1602075*
X1237551Y1602700*
X1237778Y1603325*
X1241187Y1608325D02*
X1240733Y1608013D01*
X1240278Y1607388*
X1240051Y1606763*
X1239823Y1605825*
Y1604263*
X1240051Y1603325*
X1240278Y1602700*
X1240733Y1602075*
X1241187Y1601763*
X1242096*
X1242551Y1602075*
X1243005Y1602700*
X1243233Y1603325*
X1243460Y1604263*
Y1605825*
X1243233Y1606763*
X1243005Y1607388*
X1242551Y1608013*
X1242096Y1608325*
X1241187*
X1245505D02*
Y1601763D01*
Y1608325D02*
X1247551D01*
X1248233Y1608013*
X1248460Y1607700*
X1248687Y1607075*
Y1606450*
X1248460Y1605825*
X1248233Y1605513*
X1247551Y1605200*
X1245505*
X1247096D02*
X1248687Y1601763D01*
X1250733Y1608325D02*
Y1601763D01*
Y1608325D02*
X1252778D01*
X1253460Y1608013*
X1253687Y1607700*
X1253914Y1607075*
Y1606138*
X1253687Y1605513*
X1253460Y1605200*
X1252778Y1604888*
X1250733*
X1257323Y1608325D02*
X1256869Y1608013D01*
X1256414Y1607388*
X1256187Y1606763*
X1255960Y1605825*
Y1604263*
X1256187Y1603325*
X1256414Y1602700*
X1256869Y1602075*
X1257323Y1601763*
X1258233*
X1258687Y1602075*
X1259142Y1602700*
X1259369Y1603325*
X1259596Y1604263*
Y1605825*
X1259369Y1606763*
X1259142Y1607388*
X1258687Y1608013*
X1258233Y1608325*
X1257323*
X1261642D02*
Y1601763D01*
Y1608325D02*
X1263687D01*
X1264369Y1608013*
X1264596Y1607700*
X1264823Y1607075*
Y1606450*
X1264596Y1605825*
X1264369Y1605513*
X1263687Y1605200*
X1261642*
X1263233D02*
X1264823Y1601763D01*
X1268687Y1608325D02*
X1266869Y1601763D01*
X1268687Y1608325D02*
X1270505Y1601763D01*
X1267551Y1603950D02*
X1269823D01*
X1274142Y1608325D02*
Y1601763D01*
X1272551Y1608325D02*
X1275733D01*
X1277778D02*
Y1601763D01*
X1281187Y1608325D02*
X1280733Y1608013D01*
X1280278Y1607388*
X1280051Y1606763*
X1279823Y1605825*
Y1604263*
X1280051Y1603325*
X1280278Y1602700*
X1280733Y1602075*
X1281187Y1601763*
X1282096*
X1282551Y1602075*
X1283005Y1602700*
X1283233Y1603325*
X1283460Y1604263*
Y1605825*
X1283233Y1606763*
X1283005Y1607388*
X1282551Y1608013*
X1282096Y1608325*
X1281187*
X1285505D02*
Y1601763D01*
Y1608325D02*
X1288687Y1601763D01*
Y1608325D02*
Y1601763D01*
X1122778Y1577075D02*
X1123233Y1577388D01*
X1123914Y1578325*
Y1571763*
X1129142Y1578325D02*
X1126869Y1571763D01*
X1125960Y1578325D02*
X1129142D01*
X1131187Y1574575D02*
X1135278D01*
X1140051Y1577388D02*
X1139823Y1578013D01*
X1139142Y1578325*
X1138687*
X1138005Y1578013*
X1137551Y1577075*
X1137323Y1575513*
Y1573950*
X1137551Y1572700*
X1138005Y1572075*
X1138687Y1571763*
X1138914*
X1139596Y1572075*
X1140051Y1572700*
X1140278Y1573638*
Y1573950*
X1140051Y1574888*
X1139596Y1575513*
X1138914Y1575825*
X1138687*
X1138005Y1575513*
X1137551Y1574888*
X1137323Y1573950*
X1143687Y1578325D02*
X1143005Y1578013D01*
X1142551Y1577075*
X1142323Y1575513*
Y1574575*
X1142551Y1573013*
X1143005Y1572075*
X1143687Y1571763*
X1144142*
X1144823Y1572075*
X1145278Y1573013*
X1145505Y1574575*
Y1575513*
X1145278Y1577075*
X1144823Y1578013*
X1144142Y1578325*
X1143687*
X1148914D02*
X1148233Y1578013D01*
X1147778Y1577075*
X1147551Y1575513*
Y1574575*
X1147778Y1573013*
X1148233Y1572075*
X1148914Y1571763*
X1149369*
X1150051Y1572075*
X1150505Y1573013*
X1150733Y1574575*
Y1575513*
X1150505Y1577075*
X1150051Y1578013*
X1149369Y1578325*
X1148914*
X1155733D02*
X1153460D01*
X1153233Y1575513*
X1153460Y1575825*
X1154142Y1576138*
X1154823*
X1155505Y1575825*
X1155960Y1575200*
X1156187Y1574263*
X1155960Y1573638*
X1155733Y1572700*
X1155278Y1572075*
X1154596Y1571763*
X1153914*
X1153233Y1572075*
X1153005Y1572388*
X1152778Y1573013*
X1159596Y1578325D02*
X1158914Y1578013D01*
X1158460Y1577075*
X1158233Y1575513*
Y1574575*
X1158460Y1573013*
X1158914Y1572075*
X1159596Y1571763*
X1160051*
X1160733Y1572075*
X1161187Y1573013*
X1161414Y1574575*
Y1575513*
X1161187Y1577075*
X1160733Y1578013*
X1160051Y1578325*
X1159596*
X1164823D02*
X1164142Y1578013D01*
X1163687Y1577075*
X1163460Y1575513*
Y1574575*
X1163687Y1573013*
X1164142Y1572075*
X1164823Y1571763*
X1165278*
X1165960Y1572075*
X1166414Y1573013*
X1166642Y1574575*
Y1575513*
X1166414Y1577075*
X1165960Y1578013*
X1165278Y1578325*
X1164823*
X1168687Y1574575D02*
X1172778D01*
X1176187Y1578325D02*
X1175505Y1578013D01*
X1175051Y1577075*
X1174823Y1575513*
Y1574575*
X1175051Y1573013*
X1175505Y1572075*
X1176187Y1571763*
X1176642*
X1177323Y1572075*
X1177778Y1573013*
X1178005Y1574575*
Y1575513*
X1177778Y1577075*
X1177323Y1578013*
X1176642Y1578325*
X1176187*
X1181414D02*
X1180733Y1578013D01*
X1180278Y1577075*
X1180051Y1575513*
Y1574575*
X1180278Y1573013*
X1180733Y1572075*
X1181414Y1571763*
X1181869*
X1182551Y1572075*
X1183005Y1573013*
X1183233Y1574575*
Y1575513*
X1183005Y1577075*
X1182551Y1578013*
X1181869Y1578325*
X1181414*
X1185278Y1577075D02*
X1185733Y1577388D01*
X1186414Y1578325*
Y1571763*
X1082778Y1578325D02*
Y1571763D01*
Y1578325D02*
X1084823D01*
X1085505Y1578013*
X1085733Y1577700*
X1085960Y1577075*
Y1576138*
X1085733Y1575513*
X1085505Y1575200*
X1084823Y1574888*
X1082778*
X1092096Y1579575D02*
X1088005Y1569575D01*
X1094142Y1578325D02*
Y1571763D01*
Y1578325D02*
X1097323Y1571763D01*
Y1578325D02*
Y1571763D01*
X1104596Y1574575D02*
X1108687D01*
X1162778Y1590825D02*
Y1584263D01*
Y1590825D02*
X1164596Y1584263D01*
X1166414Y1590825D02*
X1164596Y1584263D01*
X1166414Y1590825D02*
Y1584263D01*
X1168460Y1590825D02*
Y1584263D01*
Y1590825D02*
X1170505D01*
X1171187Y1590513*
X1171414Y1590200*
X1171642Y1589575*
Y1588638*
X1171414Y1588013*
X1171187Y1587700*
X1170505Y1587388*
X1168460*
X1177096Y1589263D02*
X1176869Y1589888D01*
X1176414Y1590513*
X1175960Y1590825*
X1175051*
X1174596Y1590513*
X1174142Y1589888*
X1173914Y1589263*
X1173687Y1588325*
Y1586763*
X1173914Y1585825*
X1174142Y1585200*
X1174596Y1584575*
X1175051Y1584263*
X1175960*
X1176414Y1584575*
X1176869Y1585200*
X1177096Y1585825*
X1182096Y1590825D02*
X1179823D01*
X1179596Y1588013*
X1179823Y1588325*
X1180505Y1588638*
X1181187*
X1181869Y1588325*
X1182323Y1587700*
X1182551Y1586763*
X1182323Y1586138*
X1182096Y1585200*
X1181642Y1584575*
X1180960Y1584263*
X1180278*
X1179596Y1584575*
X1179369Y1584888*
X1179142Y1585513*
X1187551Y1590825D02*
X1185278D01*
X1185051Y1588013*
X1185278Y1588325*
X1185960Y1588638*
X1186642*
X1187323Y1588325*
X1187778Y1587700*
X1188005Y1586763*
X1187778Y1586138*
X1187551Y1585200*
X1187096Y1584575*
X1186414Y1584263*
X1185733*
X1185051Y1584575*
X1184823Y1584888*
X1184596Y1585513*
X1190505Y1590825D02*
X1193005D01*
X1191642Y1588325*
X1192323*
X1192778Y1588013*
X1193005Y1587700*
X1193233Y1586763*
Y1586138*
X1193005Y1585200*
X1192551Y1584575*
X1191869Y1584263*
X1191187*
X1190505Y1584575*
X1190278Y1584888*
X1190051Y1585513*
X1197551Y1590825D02*
X1195278Y1586450D01*
X1198687*
X1197551Y1590825D02*
Y1584263D01*
X1200733Y1583013D02*
X1205505D01*
X1206869Y1590825D02*
Y1584263D01*
Y1590825D02*
X1208914D01*
X1209596Y1590513*
X1209823Y1590200*
X1210051Y1589575*
Y1588950*
X1209823Y1588325*
X1209596Y1588013*
X1208914Y1587700*
X1206869D02*
X1208914D01*
X1209596Y1587388*
X1209823Y1587075*
X1210051Y1586450*
Y1585513*
X1209823Y1584888*
X1209596Y1584575*
X1208914Y1584263*
X1206869*
X1213460Y1590825D02*
X1213005Y1590513D01*
X1212551Y1589888*
X1212323Y1589263*
X1212096Y1588325*
Y1586763*
X1212323Y1585825*
X1212551Y1585200*
X1213005Y1584575*
X1213460Y1584263*
X1214369*
X1214823Y1584575*
X1215278Y1585200*
X1215505Y1585825*
X1215733Y1586763*
Y1588325*
X1215505Y1589263*
X1215278Y1589888*
X1214823Y1590513*
X1214369Y1590825*
X1213460*
X1219596D02*
X1217778Y1584263D01*
X1219596Y1590825D02*
X1221414Y1584263D01*
X1218460Y1586450D02*
X1220733D01*
X1223460Y1590825D02*
Y1584263D01*
Y1590825D02*
X1225505D01*
X1226187Y1590513*
X1226414Y1590200*
X1226642Y1589575*
Y1588950*
X1226414Y1588325*
X1226187Y1588013*
X1225505Y1587700*
X1223460*
X1225051D02*
X1226642Y1584263D01*
X1228687Y1590825D02*
Y1584263D01*
Y1590825D02*
X1230278D01*
X1230960Y1590513*
X1231414Y1589888*
X1231642Y1589263*
X1231869Y1588325*
Y1586763*
X1231642Y1585825*
X1231414Y1585200*
X1230960Y1584575*
X1230278Y1584263*
X1228687*
X1228500Y1579063D02*
Y1572500D01*
Y1579063D02*
X1231682Y1572500D01*
Y1579063D02*
Y1572500D01*
X1234864Y1576875D02*
X1234409Y1576563D01*
X1234409D02*
X1233955Y1575938D01*
X1233955D02*
X1233727Y1575000D01*
Y1574375*
X1233955Y1573438*
X1233955D02*
X1234409Y1572813D01*
X1234409D02*
X1234864Y1572500D01*
X1235545*
X1236000Y1572813*
X1236000D02*
X1236455Y1573438D01*
X1236455D02*
X1236682Y1574375D01*
Y1575000*
X1236455Y1575938*
X1236455D02*
X1236000Y1576563D01*
X1236000D02*
X1235545Y1576875D01*
X1234864*
X1238727D02*
X1240091Y1572500D01*
X1241455Y1576875D02*
X1240091Y1572500D01*
X1243500Y1575000D02*
X1246227D01*
Y1575625*
X1246000Y1576250*
X1245773Y1576563*
X1245773D02*
X1245318Y1576875D01*
X1244636*
X1244182Y1576563*
X1244182D02*
X1243727Y1575938D01*
X1243727D02*
X1243500Y1575000D01*
Y1574375*
X1243727Y1573438*
X1243727D02*
X1244182Y1572813D01*
X1244182D02*
X1244636Y1572500D01*
X1245318*
X1245773Y1572813*
X1245773D02*
X1246227Y1573438D01*
X1248273Y1576875D02*
Y1572500D01*
Y1575625D02*
X1248955Y1576563D01*
X1248955D02*
X1249409Y1576875D01*
X1250091*
X1250545Y1576563*
X1250545D02*
X1250773Y1575625D01*
Y1572500*
Y1575625D02*
X1251455Y1576563D01*
X1251455D02*
X1251909Y1576875D01*
X1252591*
X1253045Y1576563*
X1253045D02*
X1253273Y1575625D01*
Y1572500*
X1255318Y1579063D02*
Y1572500D01*
Y1575938D02*
X1255773Y1576563D01*
X1255773D02*
X1256227Y1576875D01*
X1256909*
X1257364Y1576563*
X1257364D02*
X1257818Y1575938D01*
X1257818D02*
X1258045Y1575000D01*
Y1574375*
X1257818Y1573438*
X1257818D02*
X1257364Y1572813D01*
X1257364D02*
X1256909Y1572500D01*
X1256227*
X1255773Y1572813*
X1255773D02*
X1255318Y1573438D01*
X1260091Y1575000D02*
X1262818D01*
Y1575625*
X1262591Y1576250*
X1262364Y1576563*
X1262364D02*
X1261909Y1576875D01*
X1261227*
X1260773Y1576563*
X1260773D02*
X1260318Y1575938D01*
X1260318D02*
X1260091Y1575000D01*
Y1574375*
X1260318Y1573438*
X1260318D02*
X1260773Y1572813D01*
X1260773D02*
X1261227Y1572500D01*
X1261909*
X1262364Y1572813*
X1262364D02*
X1262818Y1573438D01*
X1264864Y1576875D02*
Y1572500D01*
Y1575000D02*
X1265091Y1575938D01*
X1265091D02*
X1265545Y1576563D01*
X1265545D02*
X1266000Y1576875D01*
X1266682*
X1275318Y1579063D02*
X1274636Y1578750D01*
X1274182Y1577813*
X1274182D02*
X1273955Y1576250D01*
Y1575313*
X1273955D02*
X1274182Y1573750D01*
X1274636Y1572813*
X1274636D02*
X1275318Y1572500D01*
X1275773*
X1276455Y1572813*
X1276455D02*
X1276909Y1573750D01*
X1277136Y1575313*
X1277136D02*
Y1576250D01*
X1276909Y1577813*
X1276909D02*
X1276455Y1578750D01*
X1275773Y1579063*
X1275773D02*
X1275318D01*
X1281455D02*
X1279182Y1574688D01*
X1279182D02*
X1282591D01*
X1281455Y1579063D02*
Y1572500D01*
X1285091Y1572813D02*
X1284864Y1572500D01*
X1284636Y1572813*
X1284636D02*
X1284864Y1573125D01*
X1285091Y1572813*
X1285091D02*
Y1572187D01*
X1285091D02*
X1284864Y1571562D01*
X1284864D02*
X1284636Y1571250D01*
X1292591Y1577500D02*
Y1577813D01*
X1292591D02*
X1292818Y1578438D01*
X1292818D02*
X1293045Y1578750D01*
X1293500Y1579063*
X1293500D02*
X1294409D01*
X1294409D02*
X1294864Y1578750D01*
X1295091Y1578438*
X1295091D02*
X1295318Y1577813D01*
X1295318D02*
Y1577188D01*
X1295318D02*
X1295091Y1576563D01*
X1295091D02*
X1294636Y1575625D01*
X1292364Y1572500*
X1295545*
X1298955Y1579063D02*
X1298273Y1578750D01*
X1297818Y1577813*
X1297818D02*
X1297591Y1576250D01*
Y1575313*
X1297591D02*
X1297818Y1573750D01*
X1298273Y1572813*
X1298273D02*
X1298955Y1572500D01*
X1299409*
X1300091Y1572813*
X1300091D02*
X1300545Y1573750D01*
X1300773Y1575313*
X1300773D02*
Y1576250D01*
X1300545Y1577813*
X1300545D02*
X1300091Y1578750D01*
X1299409Y1579063*
X1299409D02*
X1298955D01*
X1302818Y1577813D02*
X1303273Y1578125D01*
X1303955Y1579063*
X1303955D02*
Y1572500D01*
X1308273Y1579063D02*
X1306000Y1574688D01*
X1306000D02*
X1309409D01*
X1308273Y1579063D02*
Y1572500D01*
X1272778Y1563325D02*
Y1556763D01*
Y1563325D02*
X1274823D01*
X1275505Y1563013*
X1275733Y1562700*
X1275960Y1562075*
Y1561450*
X1275733Y1560825*
X1275505Y1560513*
X1274823Y1560200*
X1272778*
X1274369D02*
X1275960Y1556763D01*
X1278005Y1563325D02*
Y1556763D01*
Y1563325D02*
X1280960D01*
X1278005Y1560200D02*
X1279823D01*
X1278005Y1556763D02*
X1280960D01*
X1283005Y1563325D02*
X1284823Y1556763D01*
X1286642Y1563325D02*
X1284823Y1556763D01*
X1293914Y1559575D02*
X1298005D01*
X1308687Y1561763D02*
X1308460Y1562388D01*
X1308005Y1563013*
X1307551Y1563325*
X1306642*
X1306187Y1563013*
X1305733Y1562388*
X1305505Y1561763*
X1305278Y1560825*
Y1559263*
X1305505Y1558325*
X1305733Y1557700*
X1306187Y1557075*
X1306642Y1556763*
X1307551*
X1308005Y1557075*
X1308460Y1557700*
X1308687Y1558325*
X1480252Y995300D02*
Y980300D01*
G54D44*
X1247677Y1206126D02*
X1261063D01*
Y1198252*
X1247677*
Y1206126*
X1391961Y1426283D02*
Y1424118D01*
X1394126*
X1409874D02*
X1412039D01*
Y1426283*
Y1438094D02*
Y1440260D01*
X1409874*
X1391961Y1438094D02*
Y1439079D01*
X1393142Y1440260*
X1394126*
X1472443Y1359843D02*
Y1366930D01*
X1469293Y1370079*
X1443939*
Y1359843*
X1472443Y1214961D02*
Y1207874D01*
X1469293Y1204725*
X1443939*
Y1214961*
X1441262Y1218111D02*
X1439293Y1214961D01*
Y1221260*
X1441262Y1218111*
X1462128Y1208702D02*
Y1285702D01*
X1454254*
Y1208702*
X1462128*
Y1289102D02*
Y1364174D01*
X1454254*
Y1289102*
X1462128*
X1454254Y1281496D02*
X1446380D01*
Y1279528*
X1454254Y1293307D02*
X1446380D01*
Y1295276*
X1454254Y1360237D02*
X1446380D01*
Y1358268*
X1462128Y1360237D02*
X1470002D01*
Y1358268*
X1462128Y1293307D02*
X1470002D01*
Y1295276*
X1462128Y1281496D02*
X1470002D01*
Y1279528*
X1454254Y1214567D02*
X1446380D01*
Y1216536*
X1462128Y1214567D02*
X1470002D01*
Y1216536*
X1472443Y1279922D02*
Y1294882D01*
X1443939Y1279922D02*
Y1294882D01*
X1040317Y1211469D02*
Y1218556D01*
X1037167Y1221705*
X1011813*
Y1211469*
X1040317Y1066587D02*
Y1059500D01*
X1037167Y1056351*
X1011813*
Y1066587*
X1009136Y1069737D02*
X1007167Y1066587D01*
Y1072886*
X1009136Y1069737*
X1030002Y1060328D02*
Y1137328D01*
X1022128*
Y1060328*
X1030002*
Y1140728D02*
Y1215800D01*
X1022128*
Y1140728*
X1030002*
X1022128Y1133122D02*
X1014254D01*
Y1131154*
X1022128Y1144933D02*
X1014254D01*
Y1146902*
X1022128Y1211863D02*
X1014254D01*
Y1209894*
X1030002Y1211863D02*
X1037876D01*
Y1209894*
X1030002Y1144933D02*
X1037876D01*
Y1146902*
X1030002Y1133122D02*
X1037876D01*
Y1131154*
X1022128Y1066193D02*
X1014254D01*
Y1068162*
X1030002Y1066193D02*
X1037876D01*
Y1068162*
X1040317Y1131548D02*
Y1146508D01*
X1011813Y1131548D02*
Y1146508D01*
X1003937Y1308584D02*
X1000000Y1304647D01*
Y1004000*
X1004000Y1000000*
X1146000*
Y1032500*
X1158000D02*
G03X1146000I-6000J0D01*
G01X1158000D02*
Y1015000D01*
X1217000*
Y1032500*
X1223000Y1038500D02*
G03X1217000Y1032500I0J-6000D01*
G01X1223000Y1038500D02*
X1238000D01*
X1244000Y1032500D02*
G03X1238000Y1038500I-6000J0D01*
G01X1244000Y1032500D02*
Y1015000D01*
X1323000*
Y1032500*
X1335000D02*
G03X1323000I-6000J0D01*
G01X1335000D02*
Y1000000D01*
X1480252*
X1484252Y1004000*
Y1472378*
X1480252Y1476378*
X1340842*
X1336842Y1472378*
Y1312521*
X1332905Y1308584D02*
G03X1336842Y1312521I0J3937D01*
G01X1332905Y1308584D02*
X1003937D01*
X1223000Y1278189D02*
X1219500D01*
Y1229689*
X1227000*
X1248500Y1271689D02*
X1254000D01*
Y1231689*
X1240801Y1281689D02*
G03X1240801I-4301J0D01*
G01X1369500Y1295189D02*
X1364500D01*
Y1243500*
X1373500*
X1383301Y1296189D02*
G03X1383301I-4301J0D01*
G01X1405500Y1286689D02*
X1411000D01*
Y1246689*
X1000000Y995300D02*
Y980300D01*
X1004000Y995300D02*
Y980300D01*
X991000Y1000000D02*
X999200D01*
X991000Y1004000D02*
X998800D01*
X990000Y1308584D02*
X997800D01*
X990000Y1304647D02*
X998200D01*
X1487600Y1004000D02*
X1495400D01*
X1487600Y1000000D02*
X1495800D01*
X1491600Y1472378D02*
X1499800D01*
X1491600Y1476378D02*
X1499400D01*
X1000000Y1313200D02*
Y1321000D01*
X1003937Y1313200D02*
Y1321400D01*
X1336842Y1480200D02*
Y1488000D01*
X1340842Y1480200D02*
Y1488400D01*
X1480252Y1481200D02*
Y1489000D01*
X1484252Y1481200D02*
Y1489400D01*
X1330200Y1472378D02*
X1322400D01*
X1330200Y1476378D02*
X1322000D01*
G54D48*
X1159983Y1058465D02*
X1160139Y1058692D01*
X1160608Y1059033*
X1157327*
X1160214Y1091369D02*
Y1092619D01*
X1158964Y1091937*
Y1092278*
X1158808Y1092505*
X1158652Y1092619*
X1158183Y1092733*
X1157871*
X1157402Y1092619*
X1157089Y1092392*
X1156933Y1092051*
Y1091710*
X1157089Y1091369*
X1157246Y1091255*
X1157558Y1091142*
G54D51*
X1371403Y1459352D02*
Y1447648D01*
X1365997*
Y1459352*
X1371403*
X1430203Y1458352D02*
Y1446648D01*
X1424797*
Y1458352*
X1430203*
X1362260Y1386376D02*
X1375540D01*
Y1379002*
X1362260*
Y1386376*
X1442640Y1379013D02*
X1429360D01*
Y1386387*
X1442640*
Y1379013*
X1461852Y1073486D02*
X1450148D01*
Y1078892*
X1461852*
Y1073486*
Y1110986D02*
X1450148D01*
Y1116392*
X1461852*
Y1110986*
X1441852Y1065986D02*
X1430148D01*
Y1071392*
X1441852*
Y1065986*
X1093703Y1076825D02*
Y1088530D01*
X1099108*
Y1076825*
X1093703*
X1441852Y1116797D02*
X1430148D01*
Y1122203*
X1441852*
Y1116797*
X1112703Y1109041D02*
Y1097337D01*
X1107297*
Y1109041*
X1112703*
X1386797Y1136148D02*
Y1147852D01*
X1392203*
Y1136148*
X1386797*
X1391252Y1166697D02*
X1379548D01*
Y1172103*
X1391252*
Y1166697*
X1388503Y1430441D02*
Y1418737D01*
X1383097*
Y1430441*
X1388503*
X1420903D02*
Y1418737D01*
X1415497*
Y1430441*
X1420903*
X1264297Y1083337D02*
Y1095041D01*
X1269703*
Y1083337*
X1264297*
X1370648Y1101292D02*
X1382352D01*
Y1095886*
X1370648*
Y1101292*
X1370448Y1119392D02*
X1382152D01*
Y1113986*
X1370448*
Y1119392*
X1370848Y1190792D02*
X1382552D01*
Y1185386*
X1370848*
Y1190792*
X1370648Y1209392D02*
X1382352D01*
Y1203986*
X1370648*
Y1209392*
X1254648Y1170892D02*
X1266352D01*
Y1165486*
X1254648*
Y1170892*
Y1192892D02*
X1266352D01*
Y1187486*
X1254648*
Y1192892*
X1378858Y1089453D02*
X1371142D01*
Y1093547*
X1378858*
Y1089453*
X1371142Y1089047D02*
X1378858D01*
Y1084953*
X1371142*
Y1089047*
X1367642Y1173047D02*
X1375358D01*
Y1168953*
X1367642*
Y1173047*
X1375358Y1173953D02*
X1367642D01*
Y1178047*
X1375358*
Y1173953*
X1405004Y1118922D02*
Y1107217D01*
X1399599*
Y1118922*
X1405004*
X1402816Y1134516D02*
X1405316Y1132016D01*
X1454784*
Y1183984*
X1402816*
Y1134516*
X1393800Y1152094D02*
X1391800D01*
X1393800Y1170094D02*
X1391800D01*
X1413052Y1193000D02*
Y1195000D01*
X1432737Y1193000D02*
Y1195000D01*
X1452422Y1193000D02*
Y1195000D01*
X1463800Y1163906D02*
X1465800D01*
X1463800Y1143906D02*
X1465800D01*
X1444548Y1123000D02*
Y1121000D01*
X1424863Y1123000D02*
Y1121000D01*
X1405178Y1123000D02*
Y1121000D01*
X1471703Y1185852D02*
Y1174148D01*
X1466297*
Y1185852*
X1471703*
X1467297Y1147648D02*
Y1159352D01*
X1472703*
Y1147648*
X1467297*
X1228611Y1210476D02*
X1235741D01*
Y1206890*
X1228611*
Y1210476*
X1363793Y1068065D02*
Y1060935D01*
X1360207*
Y1068065*
X1363793*
X1245007Y1084124D02*
Y1091254D01*
X1248593*
Y1084124*
X1245007*
X1441852Y1073486D02*
X1430148D01*
Y1078892*
X1441852*
Y1073486*
X1461852Y1065986D02*
X1450148D01*
Y1071392*
X1461852*
Y1065986*
Y1117386D02*
X1450148D01*
Y1122792*
X1461852*
Y1117386*
X1441852Y1110297D02*
X1430148D01*
Y1115703*
X1441852*
Y1110297*
X1144813Y1061360D02*
Y1074640D01*
X1152187*
Y1061360*
X1144813*
X1152187Y1089140D02*
Y1075860D01*
X1144813*
Y1089140*
X1152187*
X1281136Y1197188D02*
X1279705Y1194234D01*
Y1197188D02*
X1281136Y1194234D01*
X1278784Y1196625D02*
X1278580Y1196766D01*
X1278273Y1197188*
X1278273D02*
Y1194234D01*
X1368199Y1199188D02*
X1367381Y1197781D01*
Y1196234*
X1366562Y1199188D02*
X1367381Y1197781D01*
X1365437Y1199188D02*
X1364312D01*
X1364312D02*
X1364926Y1198063D01*
X1364619*
X1364415Y1197922*
X1364312Y1197781*
X1364312D02*
X1364210Y1197359D01*
Y1197078*
X1364312Y1196656*
X1364312D02*
X1364517Y1196375D01*
X1364824Y1196234*
X1365131*
X1365437Y1196375*
X1365437D02*
X1365540Y1196516D01*
X1365642Y1196797*
X1188000Y1206142D02*
Y1204033D01*
X1187898Y1203611*
X1187693Y1203330*
X1187386Y1203189*
X1187182*
X1186875Y1203330*
X1186670Y1203611*
X1186568Y1204033*
Y1206142*
X1185648Y1205580D02*
X1185443Y1205720D01*
X1185136Y1206142*
Y1203189*
X1408400Y1104953D02*
Y1102844D01*
X1408298Y1102422*
X1408093Y1102141*
X1407786Y1102000*
X1407582*
X1407275Y1102141*
X1407070Y1102422*
X1406968Y1102844*
Y1104953*
X1406048Y1104391D02*
X1405843Y1104531D01*
X1405536Y1104953*
Y1102000*
X1403184Y1104953D02*
X1404207Y1102000D01*
X1404616Y1104953D02*
X1403184D01*
X1328500Y1132142D02*
Y1130033D01*
X1328398Y1129611*
X1328193Y1129330*
X1327886Y1129189*
X1327682*
X1327375Y1129330*
X1327170Y1129611*
X1327068Y1130033*
Y1132142*
X1326148Y1131580D02*
X1325943Y1131720D01*
X1325636Y1132142*
Y1129189*
X1323386Y1131158D02*
X1323489Y1130736D01*
X1323693Y1130455*
X1324000Y1130314*
X1324102*
X1324409Y1130455*
X1324614Y1130736*
X1324716Y1131158*
Y1131298*
X1324614Y1131720*
X1324409Y1132001*
X1324102Y1132142*
X1324000*
X1323693Y1132001*
X1323489Y1131720*
X1323386Y1131158*
Y1130455*
X1323489Y1129751*
X1323693Y1129330*
X1324000Y1129189*
X1324205*
X1324511Y1129330*
X1324614Y1129611*
X1246500Y1204953D02*
Y1202000D01*
X1245273*
X1244352Y1204391D02*
X1244148Y1204531D01*
X1243841Y1204953*
Y1202000*
X1139000Y1088953D02*
Y1086000D01*
Y1088953D02*
X1138080D01*
X1137773Y1088813*
X1137773D02*
X1137670Y1088672D01*
X1137568Y1088391*
Y1088109*
X1137670Y1087828*
X1137773Y1087688*
X1137773D02*
X1138080Y1087547D01*
X1139000*
X1138284D02*
X1137568Y1086000D01*
X1135216Y1088953D02*
X1136239Y1086000D01*
X1136648Y1088953D02*
X1135216D01*
X1134295Y1088391D02*
X1134091Y1088531D01*
X1133784Y1088953*
Y1086000*
X1410053Y1461900D02*
X1407100D01*
X1410053D02*
Y1462820D01*
X1409913Y1463127*
X1409772Y1463230*
X1409491Y1463332*
X1409209*
X1408928Y1463230*
X1408788Y1463127*
X1408647Y1462820*
Y1461900*
Y1462616D02*
X1407100Y1463332D01*
X1409491Y1464252D02*
X1409631Y1464457D01*
X1410053Y1464764*
X1407100*
X1410053Y1465889D02*
Y1467014D01*
X1408928Y1466400*
Y1466707*
X1408788Y1466911*
X1408647Y1467014*
X1408225Y1467116*
X1407944*
X1407522Y1467014*
X1407241Y1466809*
X1407100Y1466502*
Y1466195*
X1407241Y1465889*
X1407381Y1465786*
X1407663Y1465684*
X1410053Y1469059D02*
X1408084Y1468036D01*
Y1469570*
X1410053Y1469059D02*
X1407100D01*
X1395553Y1461500D02*
X1392600D01*
X1395553D02*
Y1462420D01*
X1395413Y1462727*
X1395272Y1462830*
X1394991Y1462932*
X1394709*
X1394428Y1462830*
X1394288Y1462727*
X1394147Y1462420*
Y1461500*
Y1462216D02*
X1392600Y1462932D01*
X1394569Y1465182D02*
X1394147Y1465080D01*
X1393866Y1464875*
X1393725Y1464568*
Y1464466*
X1393866Y1464159*
X1394147Y1463955*
X1394569Y1463852*
X1394709*
X1395131Y1463955*
X1395413Y1464159*
X1395553Y1464466*
Y1464568*
X1395413Y1464875*
X1395131Y1465080*
X1394569Y1465182*
X1393866*
X1393163Y1465080*
X1392741Y1464875*
X1392600Y1464568*
Y1464364*
X1392741Y1464057*
X1393022Y1463955*
X1415953Y1461000D02*
X1413000D01*
X1415953D02*
Y1461920D01*
X1415813Y1462227*
X1415672Y1462330*
X1415391Y1462432*
X1415109*
X1414828Y1462330*
X1414688Y1462227*
X1414547Y1461920*
Y1461000*
Y1461716D02*
X1413000Y1462432D01*
X1415250Y1463455D02*
X1415391D01*
X1415672Y1463557*
X1415813Y1463659*
X1415953Y1463864*
Y1464273*
X1415813Y1464477*
X1415672Y1464580*
X1415391Y1464682*
X1415109*
X1414828Y1464580*
X1414406Y1464375*
X1413000Y1463352*
Y1464784*
X1415953Y1467136D02*
X1413000Y1466114D01*
X1415953Y1465705D02*
Y1467136D01*
Y1469080D02*
X1413984Y1468057D01*
Y1469591*
X1415953Y1469080D02*
X1413000D01*
X1465453Y1381000D02*
X1462500D01*
X1465453D02*
Y1381920D01*
X1465313Y1382227*
X1465313D02*
X1465172Y1382330D01*
X1464891Y1382432*
X1464609*
X1464328Y1382330*
X1464188Y1382227*
X1464188D02*
X1464047Y1381920D01*
Y1381000*
Y1381716D02*
X1462500Y1382432D01*
X1464891Y1383352D02*
X1465031Y1383557D01*
X1465453Y1383864*
X1462500*
X1464750Y1384886D02*
X1464891D01*
X1465172Y1384989*
X1465313Y1385091*
X1465313D02*
X1465453Y1385295D01*
Y1385705*
X1465313Y1385909*
X1465313D02*
X1465172Y1386011D01*
X1464891Y1386114*
X1464609*
X1464328Y1386011*
X1463906Y1385807*
X1462500Y1384784*
Y1386216*
X1465453Y1388466D02*
Y1387443D01*
X1464188Y1387341*
X1464188D02*
X1464328Y1387443D01*
X1464469Y1387750*
Y1388057*
X1464328Y1388364*
X1464047Y1388568*
X1463625Y1388670*
X1463344Y1388568*
X1462922Y1388466*
X1462641Y1388261*
X1462500Y1387955*
Y1387648*
X1462641Y1387341*
X1462781Y1387239*
X1463063Y1387136*
X1421953Y1459000D02*
X1419000D01*
X1421953D02*
Y1459920D01*
X1421813Y1460227*
X1421672Y1460330*
X1421391Y1460432*
X1421109*
X1420828Y1460330*
X1420688Y1460227*
X1420547Y1459920*
Y1459000*
Y1459716D02*
X1419000Y1460432D01*
X1421531Y1462580D02*
X1421813Y1462477D01*
X1421953Y1462170*
Y1461966*
X1421813Y1461659*
X1421391Y1461455*
X1420688Y1461352*
X1419984*
X1419422Y1461455*
X1419141Y1461659*
X1419000Y1461966*
Y1462068*
X1419141Y1462375*
X1419422Y1462580*
X1419844Y1462682*
X1419984*
X1420406Y1462580*
X1420688Y1462375*
X1420828Y1462068*
Y1461966*
X1420688Y1461659*
X1420406Y1461455*
X1419984Y1461352*
X1386953Y1464000D02*
X1384000D01*
X1386953D02*
Y1464920D01*
X1386813Y1465227*
X1386672Y1465330*
X1386391Y1465432*
X1386109*
X1385828Y1465330*
X1385688Y1465227*
X1385547Y1464920*
Y1464000*
Y1464716D02*
X1384000Y1465432D01*
X1386953Y1466557D02*
Y1467682D01*
X1385828Y1467068*
Y1467375*
X1385688Y1467580*
X1385547Y1467682*
X1385125Y1467784*
X1384844*
X1384422Y1467682*
X1384141Y1467477*
X1384000Y1467170*
Y1466864*
X1384141Y1466557*
X1384281Y1466455*
X1384563Y1466352*
X1378200Y1463453D02*
Y1460500D01*
Y1463453D02*
X1377280D01*
X1376973Y1463313*
X1376973D02*
X1376870Y1463172D01*
X1376768Y1462891*
Y1462609*
X1376870Y1462328*
X1376973Y1462188*
X1376973D02*
X1377280Y1462047D01*
X1378200*
X1377484D02*
X1376768Y1460500D01*
X1374518Y1463453D02*
X1375541D01*
X1375643Y1462188*
X1375643D02*
X1375541Y1462328D01*
X1375234Y1462469*
X1374927*
X1374620Y1462328*
X1374416Y1462047*
X1374314Y1461625*
X1374416Y1461344*
X1374518Y1460922*
X1374723Y1460641*
X1375030Y1460500*
X1375336*
X1375643Y1460641*
X1375745Y1460781*
X1375848Y1461063*
X1369750Y1462534D02*
X1370031Y1462432D01*
X1370313Y1462227*
X1370453Y1462023*
Y1461614*
X1370313Y1461409*
X1370031Y1461205*
X1369750Y1461102*
X1369328Y1461000*
X1368625*
X1368203Y1461102*
X1367922Y1461205*
X1367641Y1461409*
X1367500Y1461614*
Y1462023*
X1367641Y1462227*
X1367922Y1462432*
X1368203Y1462534*
X1370453Y1463659D02*
Y1464784D01*
X1369328Y1464170*
Y1464477*
X1369188Y1464682*
X1369047Y1464784*
X1368625Y1464886*
X1368344*
X1367922Y1464784*
X1367641Y1464580*
X1367500Y1464273*
Y1463966*
X1367641Y1463659*
X1367781Y1463557*
X1368063Y1463455*
X1369750Y1465909D02*
X1369891D01*
X1370172Y1466011*
X1370313Y1466114*
X1370453Y1466318*
Y1466727*
X1370313Y1466932*
X1370172Y1467034*
X1369891Y1467136*
X1369609*
X1369328Y1467034*
X1368906Y1466830*
X1367500Y1465807*
Y1467239*
X1370453Y1468364D02*
Y1469489D01*
X1369328Y1468875*
Y1469182*
X1369188Y1469386*
X1369047Y1469489*
X1368625Y1469591*
X1368344*
X1367922Y1469489*
X1367641Y1469284*
X1367500Y1468977*
Y1468670*
X1367641Y1468364*
X1367781Y1468261*
X1368063Y1468159*
X1402953Y1462000D02*
X1400000D01*
X1402953D02*
Y1462920D01*
X1402813Y1463227*
X1402672Y1463330*
X1402391Y1463432*
X1402109*
X1401828Y1463330*
X1401688Y1463227*
X1401547Y1462920*
Y1462000*
Y1462716D02*
X1400000Y1463432D01*
X1402250Y1464455D02*
X1402391D01*
X1402672Y1464557*
X1402813Y1464659*
X1402953Y1464864*
Y1465273*
X1402813Y1465477*
X1402672Y1465580*
X1402391Y1465682*
X1402109*
X1401828Y1465580*
X1401406Y1465375*
X1400000Y1464352*
Y1465784*
X1402953Y1468136D02*
X1400000Y1467114D01*
X1402953Y1466705D02*
Y1468136D01*
Y1470386D02*
Y1469364D01*
X1401688Y1469261*
X1401828Y1469364*
X1401969Y1469670*
Y1469977*
X1401828Y1470284*
X1401547Y1470489*
X1401125Y1470591*
X1400844Y1470489*
X1400422Y1470386*
X1400141Y1470182*
X1400000Y1469875*
Y1469568*
X1400141Y1469261*
X1400281Y1469159*
X1400563Y1469057*
X1428250Y1461534D02*
X1428531Y1461432D01*
X1428813Y1461227*
X1428953Y1461023*
Y1460614*
X1428813Y1460409*
X1428531Y1460205*
X1428250Y1460102*
X1427828Y1460000*
X1427125*
X1426703Y1460102*
X1426422Y1460205*
X1426141Y1460409*
X1426000Y1460614*
Y1461023*
X1426141Y1461227*
X1426422Y1461432*
X1426703Y1461534*
X1428953Y1462659D02*
Y1463784D01*
X1427828Y1463170*
Y1463477*
X1427688Y1463682*
X1427547Y1463784*
X1427125Y1463886*
X1426844*
X1426422Y1463784*
X1426141Y1463580*
X1426000Y1463273*
Y1462966*
X1426141Y1462659*
X1426281Y1462557*
X1426563Y1462455*
X1428250Y1464909D02*
X1428391D01*
X1428672Y1465011*
X1428813Y1465114*
X1428953Y1465318*
Y1465727*
X1428813Y1465932*
X1428672Y1466034*
X1428391Y1466136*
X1428109*
X1427828Y1466034*
X1427406Y1465830*
X1426000Y1464807*
Y1466239*
X1428953Y1468182D02*
X1426984Y1467159D01*
Y1468693*
X1428953Y1468182D02*
X1426000D01*
X1384000Y1437253D02*
Y1435144D01*
X1383898Y1434722*
X1383693Y1434441*
X1383386Y1434300*
X1383182*
X1382875Y1434441*
X1382670Y1434722*
X1382568Y1435144*
Y1437253*
X1381545Y1436550D02*
Y1436691D01*
X1381443Y1436972*
X1381341Y1437113*
X1381341D02*
X1381136Y1437253D01*
X1380727*
X1380523Y1437113*
X1380523D02*
X1380420Y1436972D01*
X1380318Y1436691*
Y1436409*
X1380420Y1436128*
X1380625Y1435706*
X1381648Y1434300*
X1380216*
X1050453Y1242500D02*
X1047500D01*
X1050453D02*
Y1243420D01*
X1050313Y1243727*
X1050172Y1243830*
X1049891Y1243932*
X1049609*
X1049328Y1243830*
X1049188Y1243727*
X1049047Y1243420*
Y1242500*
Y1243216D02*
X1047500Y1243932D01*
X1050453Y1246284D02*
X1047500Y1245261D01*
X1050453Y1244852D02*
Y1246284D01*
Y1247818D02*
X1050313Y1247511D01*
X1049891Y1247307*
X1049188Y1247205*
X1048766*
X1048063Y1247307*
X1047641Y1247511*
X1047500Y1247818*
Y1248023*
X1047641Y1248330*
X1048063Y1248534*
X1048766Y1248636*
X1049188*
X1049891Y1248534*
X1050313Y1248330*
X1050453Y1248023*
Y1247818*
X1179000Y1059653D02*
Y1057544D01*
X1178898Y1057122*
X1178693Y1056841*
X1178386Y1056700*
X1178182*
X1177875Y1056841*
X1177670Y1057122*
X1177568Y1057544*
Y1059653*
X1176648Y1059091D02*
X1176443Y1059231D01*
X1176136Y1059653*
Y1056700*
X1175011Y1059653D02*
X1173886D01*
X1174500Y1058528*
X1174193*
X1173989Y1058388*
X1173989D02*
X1173886Y1058247D01*
X1173784Y1057825*
Y1057544*
X1173886Y1057122*
X1174091Y1056841*
X1174398Y1056700*
X1174705*
X1175011Y1056841*
X1175114Y1056981*
X1175216Y1057263*
X1090000Y1178142D02*
Y1176033D01*
X1089898Y1175611*
X1089693Y1175330*
X1089386Y1175189*
X1089182*
X1088875Y1175330*
X1088670Y1175611*
X1088568Y1176033*
Y1178142*
X1087545Y1177439D02*
Y1177580D01*
X1087443Y1177861*
X1087341Y1178001*
X1087136Y1178142*
X1086727*
X1086523Y1178001*
X1086420Y1177861*
X1086318Y1177580*
Y1177298*
X1086420Y1177017*
X1086625Y1176595*
X1087648Y1175189*
X1086216*
X1084068Y1177720D02*
X1084170Y1178001D01*
X1084477Y1178142*
X1084682*
X1084989Y1178001*
X1085193Y1177580*
X1085295Y1176876*
Y1176173*
X1085193Y1175611*
X1084989Y1175330*
X1084682Y1175189*
X1084580*
X1084273Y1175330*
X1084068Y1175611*
X1083966Y1176033*
Y1176173*
X1084068Y1176595*
X1084273Y1176876*
X1084580Y1177017*
X1084682*
X1084989Y1176876*
X1085193Y1176595*
X1085295Y1176173*
X1436670Y1255578D02*
Y1253328D01*
X1436773Y1252906*
X1436875Y1252766*
X1437080Y1252625*
X1437284*
X1437489Y1252766*
X1437591Y1252906*
X1437693Y1253328*
Y1253609*
X1434420Y1255578D02*
X1435443D01*
X1435545Y1254313*
X1435545D02*
X1435443Y1254453D01*
X1435136Y1254594*
X1434830*
X1434523Y1254453*
X1434318Y1254172*
X1434216Y1253750*
X1434318Y1253469*
X1434420Y1253047*
X1434625Y1252766*
X1434932Y1252625*
X1435239*
X1435545Y1252766*
X1435648Y1252906*
X1435750Y1253188*
X1355256Y1408681D02*
X1355358Y1408962D01*
X1355562Y1409244*
X1355562D02*
X1355767Y1409384D01*
X1356176*
X1356381Y1409244*
X1356585Y1408962*
X1356687Y1408681*
X1356687D02*
X1356790Y1408259D01*
Y1407556*
X1356687Y1407134*
X1356687D02*
X1356585Y1406853D01*
X1356381Y1406572*
X1356176Y1406431*
X1355767*
X1355562Y1406572*
X1355562D02*
X1355358Y1406853D01*
X1355256Y1407134*
X1354131Y1409384D02*
X1353006D01*
X1353619Y1408259*
X1353312*
X1353312D02*
X1353108Y1408119D01*
X1353006Y1407978*
X1352903Y1407556*
Y1407275*
X1353006Y1406853*
X1353210Y1406572*
X1353517Y1406431*
X1353824*
X1354131Y1406572*
X1354233Y1406712*
X1354335Y1406994*
X1351778Y1409384D02*
X1350653D01*
X1351267Y1408259*
X1350960*
X1350756Y1408119*
X1350653Y1407978*
X1350551Y1407556*
Y1407275*
X1350653Y1406853*
X1350858Y1406572*
X1351165Y1406431*
X1351472*
X1351778Y1406572*
X1351881Y1406712*
X1351983Y1406994*
X1349631Y1408822D02*
X1349426Y1408962D01*
X1349119Y1409384*
Y1406431*
X1355966Y1397992D02*
X1356068Y1398273D01*
X1356273Y1398555*
X1356477Y1398695*
X1356886*
X1357091Y1398555*
X1357295Y1398273*
X1357398Y1397992*
X1357500Y1397570*
Y1396867*
X1357398Y1396445*
X1357295Y1396164*
X1357091Y1395883*
X1356886Y1395742*
X1356477*
X1356273Y1395883*
X1356068Y1396164*
X1355966Y1396445*
X1354841Y1398695D02*
X1353716D01*
X1354330Y1397570*
X1354023*
X1353818Y1397430*
X1353716Y1397289*
X1353614Y1396867*
Y1396586*
X1353716Y1396164*
X1353920Y1395883*
X1354227Y1395742*
X1354534*
X1354841Y1395883*
X1354943Y1396023*
X1355045Y1396305*
X1352591Y1397992D02*
Y1398133D01*
X1352489Y1398414*
X1352386Y1398555*
X1352182Y1398695*
X1351773*
X1351568Y1398555*
X1351466Y1398414*
X1351364Y1398133*
Y1397852*
X1351466Y1397570*
X1351670Y1397148*
X1352693Y1395742*
X1351261*
X1348909Y1398695D02*
X1349932Y1395742D01*
X1350341Y1398695D02*
X1348909D01*
X1371866Y1376439D02*
X1371968Y1376720D01*
X1372173Y1377002*
X1372173D02*
X1372377Y1377142D01*
X1372786*
X1372991Y1377002*
X1372991D02*
X1373195Y1376720D01*
X1373298Y1376439*
X1373400Y1376017*
Y1375314*
X1373298Y1374892*
X1373195Y1374611*
X1372991Y1374330*
X1372786Y1374189*
X1372377*
X1372173Y1374330*
X1371968Y1374611*
X1371866Y1374892*
X1370741Y1377142D02*
X1369616D01*
X1370230Y1376017*
X1369923*
X1369718Y1375877*
X1369718D02*
X1369616Y1375736D01*
X1369514Y1375314*
Y1375033*
X1369616Y1374611*
X1369820Y1374330*
X1370127Y1374189*
X1370434*
X1370741Y1374330*
X1370843Y1374470*
X1370945Y1374752*
X1368491Y1376439D02*
Y1376580D01*
X1368389Y1376861*
X1368286Y1377002*
X1368286D02*
X1368082Y1377142D01*
X1367673*
X1367468Y1377002*
X1367468D02*
X1367366Y1376861D01*
X1367264Y1376580*
Y1376298*
X1367366Y1376017*
X1367570Y1375595*
X1368593Y1374189*
X1367161*
X1364911Y1376158D02*
X1365014Y1375736D01*
X1365218Y1375455*
X1365525Y1375314*
X1365627*
X1365934Y1375455*
X1366139Y1375736*
X1366241Y1376158*
Y1376298*
X1366139Y1376720*
X1365934Y1377002*
X1365934D02*
X1365627Y1377142D01*
X1365525*
X1365218Y1377002*
X1365218D02*
X1365014Y1376720D01*
X1364911Y1376158*
Y1375455*
X1365014Y1374752*
X1365014D02*
X1365218Y1374330D01*
X1365525Y1374189*
X1365730*
X1366036Y1374330*
X1366139Y1374611*
X1456966Y1397992D02*
X1457068Y1398273D01*
X1457273Y1398555*
X1457477Y1398695*
X1457886*
X1458091Y1398555*
X1458295Y1398273*
X1458398Y1397992*
X1458500Y1397570*
Y1396867*
X1458398Y1396445*
X1458295Y1396164*
X1458091Y1395883*
X1457886Y1395742*
X1457477*
X1457273Y1395883*
X1457068Y1396164*
X1456966Y1396445*
X1455841Y1398695D02*
X1454716D01*
X1455330Y1397570*
X1455023*
X1454818Y1397430*
X1454716Y1397289*
X1454614Y1396867*
Y1396586*
X1454716Y1396164*
X1454920Y1395883*
X1455227Y1395742*
X1455534*
X1455841Y1395883*
X1455943Y1396023*
X1456045Y1396305*
X1453591Y1397992D02*
Y1398133D01*
X1453489Y1398414*
X1453386Y1398555*
X1453182Y1398695*
X1452773*
X1452568Y1398555*
X1452466Y1398414*
X1452364Y1398133*
Y1397852*
X1452466Y1397570*
X1452670Y1397148*
X1453693Y1395742*
X1452261*
X1450830Y1398695D02*
X1451136Y1398555D01*
X1451239Y1398273*
Y1397992*
X1451136Y1397711*
X1450932Y1397570*
X1450523Y1397430*
X1450216Y1397289*
X1450011Y1397008*
X1449909Y1396727*
Y1396305*
X1450011Y1396023*
X1450114Y1395883*
X1450420Y1395742*
X1450830*
X1451136Y1395883*
X1451239Y1396023*
X1451341Y1396305*
Y1396727*
X1451239Y1397008*
X1451034Y1397289*
X1450727Y1397430*
X1450318Y1397570*
X1450114Y1397711*
X1450011Y1397992*
Y1398273*
X1450114Y1398555*
X1450420Y1398695*
X1450830*
X1455716Y1408692D02*
X1455818Y1408973D01*
X1456023Y1409255*
X1456227Y1409395*
X1456636*
X1456841Y1409255*
X1457045Y1408973*
X1457148Y1408692*
X1457250Y1408270*
Y1407567*
X1457148Y1407145*
X1457045Y1406864*
X1456841Y1406583*
X1456636Y1406442*
X1456227*
X1456023Y1406583*
X1455818Y1406864*
X1455716Y1407145*
X1454591Y1409395D02*
X1453466D01*
X1454080Y1408270*
X1453773*
X1453568Y1408130*
X1453466Y1407989*
X1453364Y1407567*
Y1407286*
X1453466Y1406864*
X1453670Y1406583*
X1453977Y1406442*
X1454284*
X1454591Y1406583*
X1454693Y1406723*
X1454795Y1407005*
X1452239Y1409395D02*
X1451114D01*
X1451727Y1408270*
X1451420*
X1451216Y1408130*
X1451114Y1407989*
X1451011Y1407567*
Y1407286*
X1451114Y1406864*
X1451318Y1406583*
X1451625Y1406442*
X1451932*
X1452239Y1406583*
X1452341Y1406723*
X1452443Y1407005*
X1449477Y1409395D02*
X1449784Y1409255D01*
X1449989Y1408833*
X1450091Y1408130*
Y1407708*
X1449989Y1407005*
X1449784Y1406583*
X1449477Y1406442*
X1449273*
X1448966Y1406583*
X1448761Y1407005*
X1448659Y1407708*
Y1408130*
X1448761Y1408833*
X1448966Y1409255*
X1449273Y1409395*
X1449477*
X1435466Y1377250D02*
X1435568Y1377531D01*
X1435773Y1377813*
X1435773D02*
X1435977Y1377953D01*
X1436386*
X1436591Y1377813*
X1436591D02*
X1436795Y1377531D01*
X1436898Y1377250*
X1437000Y1376828*
Y1376125*
X1436898Y1375703*
X1436795Y1375422*
X1436591Y1375141*
X1436386Y1375000*
X1435977*
X1435773Y1375141*
X1435568Y1375422*
X1435466Y1375703*
X1434341Y1377953D02*
X1433216D01*
X1433830Y1376828*
X1433523*
X1433318Y1376688*
X1433318D02*
X1433216Y1376547D01*
X1433114Y1376125*
Y1375844*
X1433216Y1375422*
X1433420Y1375141*
X1433727Y1375000*
X1434034*
X1434341Y1375141*
X1434443Y1375281*
X1434545Y1375563*
X1431989Y1377953D02*
X1430864D01*
X1431477Y1376828*
X1431170*
X1430966Y1376688*
X1430966D02*
X1430864Y1376547D01*
X1430761Y1376125*
Y1375844*
X1430864Y1375422*
X1431068Y1375141*
X1431375Y1375000*
X1431682*
X1431989Y1375141*
X1432091Y1375281*
X1432193Y1375563*
X1429739Y1377250D02*
Y1377391D01*
X1429636Y1377672*
X1429534Y1377813*
X1429534D02*
X1429330Y1377953D01*
X1428920*
X1428716Y1377813*
X1428716D02*
X1428614Y1377672D01*
X1428511Y1377391*
Y1377109*
X1428614Y1376828*
X1428818Y1376406*
X1429841Y1375000*
X1428409*
X1383000Y1289642D02*
Y1286689D01*
X1381773*
X1380034Y1289642D02*
X1380852Y1286689D01*
X1380034Y1289642D02*
X1379216Y1286689D01*
X1380545Y1287673D02*
X1379523D01*
X1378295Y1286126D02*
X1376148D01*
X1374818Y1289642D02*
Y1286689D01*
X1375534Y1289642D02*
X1374102D01*
X1373182D02*
Y1286689D01*
Y1289642D02*
X1372261D01*
X1371955Y1289501*
X1371852Y1289361*
X1371750Y1289080*
Y1288658*
X1371852Y1288376*
X1371955Y1288236*
X1372261Y1288095*
X1373182*
X1370830Y1289080D02*
X1370625Y1289220D01*
X1370318Y1289642*
Y1286689*
X1408000Y1257142D02*
Y1254189D01*
X1406773*
X1405034Y1257142D02*
X1405852Y1254189D01*
X1405034Y1257142D02*
X1404216Y1254189D01*
X1405545Y1255173D02*
X1404523D01*
X1403295Y1253626D02*
X1401148D01*
X1399818Y1257142D02*
Y1254189D01*
X1400534Y1257142D02*
X1399102D01*
X1398182D02*
Y1254189D01*
Y1257142D02*
X1397261D01*
X1396955Y1257001*
X1396852Y1256861*
X1396750Y1256580*
Y1256158*
X1396852Y1255876*
X1396955Y1255736*
X1397261Y1255595*
X1398182*
X1395830Y1256580D02*
X1395625Y1256720D01*
X1395318Y1257142*
Y1254189*
X1393784Y1257142D02*
X1394091Y1257001D01*
X1394295Y1256580*
X1394398Y1255876*
Y1255455*
X1394295Y1254751*
X1394091Y1254330*
X1393784Y1254189*
X1393580*
X1393273Y1254330*
X1393068Y1254751*
X1392966Y1255455*
Y1255876*
X1393068Y1256580*
X1393273Y1257001*
X1393580Y1257142*
X1393784*
X1408000Y1250642D02*
Y1247689D01*
X1406773*
X1405034Y1250642D02*
X1405852Y1247689D01*
X1405034Y1250642D02*
X1404216Y1247689D01*
X1405545Y1248673D02*
X1404523D01*
X1403295Y1247126D02*
X1401148D01*
X1399818Y1250642D02*
Y1247689D01*
X1400534Y1250642D02*
X1399102D01*
X1398182D02*
Y1247689D01*
Y1250642D02*
X1397261D01*
X1396955Y1250501*
X1396852Y1250361*
X1396750Y1250080*
Y1249658*
X1396852Y1249376*
X1396955Y1249236*
X1397261Y1249095*
X1398182*
X1395830Y1250080D02*
X1395625Y1250220D01*
X1395318Y1250642*
Y1247689*
X1394398Y1250080D02*
X1394193Y1250220D01*
X1393886Y1250642*
Y1247689*
X1381500Y1255953D02*
Y1253000D01*
X1380273*
X1378534Y1255953D02*
X1379352Y1253000D01*
X1378534Y1255953D02*
X1377716Y1253000D01*
X1379045Y1253984D02*
X1378023D01*
X1376795Y1252437D02*
X1374648D01*
X1373318Y1255953D02*
Y1253000D01*
X1374034Y1255953D02*
X1372602D01*
X1371682D02*
Y1253000D01*
Y1255953D02*
X1370761D01*
X1370455Y1255812*
X1370455D02*
X1370352Y1255672D01*
X1370250Y1255391*
Y1254969*
X1370352Y1254687*
X1370352D02*
X1370455Y1254547D01*
X1370761Y1254406*
X1371682*
X1369330Y1255391D02*
X1369125Y1255531D01*
X1368818Y1255953*
Y1253000*
X1367795Y1255250D02*
Y1255391D01*
X1367693Y1255672*
X1367591Y1255812*
X1367591D02*
X1367386Y1255953D01*
X1366977*
X1366773Y1255812*
X1366773D02*
X1366670Y1255672D01*
X1366568Y1255391*
Y1255109*
X1366670Y1254828*
X1366875Y1254406*
X1367898Y1253000*
X1366466*
X1385800Y1247953D02*
Y1245000D01*
X1384573*
X1382834Y1247953D02*
X1383652Y1245000D01*
X1382834Y1247953D02*
X1382016Y1245000D01*
X1383345Y1245984D02*
X1382323D01*
X1381095Y1244437D02*
X1378948D01*
X1377618Y1247953D02*
Y1245000D01*
X1378334Y1247953D02*
X1376902D01*
X1375982D02*
Y1245000D01*
Y1247953D02*
X1375061D01*
X1374755Y1247812*
X1374755D02*
X1374652Y1247672D01*
X1374550Y1247391*
Y1246969*
X1374652Y1246687*
X1374652D02*
X1374755Y1246547D01*
X1375061Y1246406*
X1375982*
X1373630Y1247391D02*
X1373425Y1247531D01*
X1373118Y1247953*
Y1245000*
X1371993Y1247953D02*
X1370868D01*
X1371482Y1246828*
X1371175*
X1370970Y1246687*
X1370970D02*
X1370868Y1246547D01*
X1370766Y1246125*
Y1245844*
X1370868Y1245422*
X1371073Y1245141*
X1371380Y1245000*
X1371686*
X1371993Y1245141*
X1372095Y1245281*
X1372198Y1245562*
X1383500Y1282953D02*
Y1280000D01*
X1382273*
X1380534Y1282953D02*
X1381352Y1280000D01*
X1380534Y1282953D02*
X1379716Y1280000D01*
X1381045Y1280984D02*
X1380023D01*
X1378795Y1279437D02*
X1376648D01*
X1375318Y1282953D02*
Y1280000D01*
X1376034Y1282953D02*
X1374602D01*
X1373682D02*
Y1280000D01*
Y1282953D02*
X1372761D01*
X1372455Y1282812*
X1372455D02*
X1372352Y1282672D01*
X1372250Y1282391*
Y1281969*
X1372352Y1281687*
X1372352D02*
X1372455Y1281547D01*
X1372761Y1281406*
X1373682*
X1371227Y1282250D02*
Y1282391D01*
X1371125Y1282672*
X1371023Y1282812*
X1371023D02*
X1370818Y1282953D01*
X1370409*
X1370205Y1282812*
X1370205D02*
X1370102Y1282672D01*
X1370000Y1282391*
Y1282109*
X1370102Y1281828*
X1370307Y1281406*
X1371330Y1280000*
X1369898*
X1383500Y1275453D02*
Y1272500D01*
X1382273*
X1380534Y1275453D02*
X1381352Y1272500D01*
X1380534Y1275453D02*
X1379716Y1272500D01*
X1381045Y1273484D02*
X1380023D01*
X1378795Y1271937D02*
X1376648D01*
X1375318Y1275453D02*
Y1272500D01*
X1376034Y1275453D02*
X1374602D01*
X1373682D02*
Y1272500D01*
Y1275453D02*
X1372761D01*
X1372455Y1275312*
X1372455D02*
X1372352Y1275172D01*
X1372250Y1274891*
Y1274469*
X1372352Y1274187*
X1372352D02*
X1372455Y1274047D01*
X1372761Y1273906*
X1373682*
X1371125Y1275453D02*
X1370000D01*
X1370614Y1274328*
X1370307*
X1370102Y1274187*
X1370102D02*
X1370000Y1274047D01*
X1369898Y1273625*
Y1273344*
X1370000Y1272922*
X1370205Y1272641*
X1370511Y1272500*
X1370818*
X1371125Y1272641*
X1371227Y1272781*
X1371330Y1273062*
X1383000Y1268953D02*
Y1266000D01*
X1381773*
X1380034Y1268953D02*
X1380852Y1266000D01*
X1380034Y1268953D02*
X1379216Y1266000D01*
X1380545Y1266984D02*
X1379523D01*
X1378295Y1265437D02*
X1376148D01*
X1374818Y1268953D02*
Y1266000D01*
X1375534Y1268953D02*
X1374102D01*
X1373182D02*
Y1266000D01*
Y1268953D02*
X1372261D01*
X1371955Y1268812*
X1371955D02*
X1371852Y1268672D01*
X1371750Y1268391*
Y1267969*
X1371852Y1267687*
X1371852D02*
X1371955Y1267547D01*
X1372261Y1267406*
X1373182*
X1369807Y1268953D02*
X1370830Y1266984D01*
X1369295*
X1369807Y1268953D02*
Y1266000D01*
X1387000Y1261953D02*
Y1259000D01*
X1385773*
X1384034Y1261953D02*
X1384852Y1259000D01*
X1384034Y1261953D02*
X1383216Y1259000D01*
X1384545Y1259984D02*
X1383523D01*
X1382295Y1258437D02*
X1380148D01*
X1378818Y1261953D02*
Y1259000D01*
X1379534Y1261953D02*
X1378102D01*
X1377182D02*
Y1259000D01*
Y1261953D02*
X1376261D01*
X1375955Y1261812*
X1375955D02*
X1375852Y1261672D01*
X1375750Y1261391*
Y1260969*
X1375852Y1260687*
X1375852D02*
X1375955Y1260547D01*
X1376261Y1260406*
X1377182*
X1373500Y1261953D02*
X1374523D01*
X1374625Y1260687*
X1374625D02*
X1374523Y1260828D01*
X1374216Y1260969*
X1373909*
X1373602Y1260828*
X1373398Y1260547*
X1373295Y1260125*
X1373398Y1259844*
X1373500Y1259422*
X1373705Y1259141*
X1374011Y1259000*
X1374318*
X1374625Y1259141*
X1374727Y1259281*
X1374830Y1259562*
X1407000Y1286453D02*
Y1283500D01*
X1405773*
X1404034Y1286453D02*
X1404852Y1283500D01*
X1404034Y1286453D02*
X1403216Y1283500D01*
X1404545Y1284484D02*
X1403523D01*
X1402295Y1282937D02*
X1400148D01*
X1398818Y1286453D02*
Y1283500D01*
X1399534Y1286453D02*
X1398102D01*
X1397182D02*
Y1283500D01*
Y1286453D02*
X1396261D01*
X1395955Y1286312*
X1395955D02*
X1395852Y1286172D01*
X1395750Y1285891*
Y1285469*
X1395852Y1285187*
X1395852D02*
X1395955Y1285047D01*
X1396261Y1284906*
X1397182*
X1393602Y1286031D02*
X1393705Y1286312D01*
X1393705D02*
X1394011Y1286453D01*
X1394216*
X1394523Y1286312*
X1394523D02*
X1394727Y1285891D01*
X1394830Y1285187*
X1394830D02*
Y1284484D01*
X1394727Y1283922*
X1394523Y1283641*
X1394216Y1283500*
X1394114*
X1393807Y1283641*
X1393602Y1283922*
X1393500Y1284344*
Y1284484*
X1393602Y1284906*
X1393807Y1285187*
X1393807D02*
X1394114Y1285328D01*
X1394216*
X1394523Y1285187*
X1394523D02*
X1394727Y1284906D01*
X1394830Y1284484*
X1408500Y1279453D02*
Y1276500D01*
X1407273*
X1405534Y1279453D02*
X1406352Y1276500D01*
X1405534Y1279453D02*
X1404716Y1276500D01*
X1406045Y1277484D02*
X1405023D01*
X1403795Y1275937D02*
X1401648D01*
X1400318Y1279453D02*
Y1276500D01*
X1401034Y1279453D02*
X1399602D01*
X1398682D02*
Y1276500D01*
Y1279453D02*
X1397761D01*
X1397455Y1279312*
X1397455D02*
X1397352Y1279172D01*
X1397250Y1278891*
Y1278469*
X1397352Y1278187*
X1397352D02*
X1397455Y1278047D01*
X1397761Y1277906*
X1398682*
X1394898Y1279453D02*
X1395920Y1276500D01*
X1396330Y1279453D02*
X1394898D01*
X1408500Y1271953D02*
Y1269000D01*
X1407273*
X1405534Y1271953D02*
X1406352Y1269000D01*
X1405534Y1271953D02*
X1404716Y1269000D01*
X1406045Y1269984D02*
X1405023D01*
X1403795Y1268437D02*
X1401648D01*
X1400318Y1271953D02*
Y1269000D01*
X1401034Y1271953D02*
X1399602D01*
X1398682D02*
Y1269000D01*
Y1271953D02*
X1397761D01*
X1397455Y1271812*
X1397455D02*
X1397352Y1271672D01*
X1397250Y1271391*
Y1270969*
X1397352Y1270687*
X1397352D02*
X1397455Y1270547D01*
X1397761Y1270406*
X1398682*
X1395818Y1271953D02*
X1396125Y1271812D01*
X1396125D02*
X1396227Y1271531D01*
Y1271250*
X1396125Y1270969*
X1395920Y1270828*
X1395511Y1270687*
X1395511D02*
X1395205Y1270547D01*
X1395000Y1270266*
X1394898Y1269984*
Y1269562*
X1394898D02*
X1395000Y1269281D01*
X1395102Y1269141*
X1395409Y1269000*
X1395818*
X1396125Y1269141*
X1396227Y1269281*
X1396330Y1269562*
X1396330D02*
Y1269984D01*
X1396227Y1270266*
X1396023Y1270547*
X1395716Y1270687*
X1395716D02*
X1395307Y1270828D01*
X1395102Y1270969*
X1395000Y1271250*
Y1271531*
X1395102Y1271812*
X1395102D02*
X1395409Y1271953D01*
X1395818*
X1407500Y1264142D02*
Y1261189D01*
X1406273*
X1404534Y1264142D02*
X1405352Y1261189D01*
X1404534Y1264142D02*
X1403716Y1261189D01*
X1405045Y1262173D02*
X1404023D01*
X1402795Y1260626D02*
X1400648D01*
X1399318Y1264142D02*
Y1261189D01*
X1400034Y1264142D02*
X1398602D01*
X1397682D02*
Y1261189D01*
Y1264142D02*
X1396761D01*
X1396455Y1264001*
X1396352Y1263861*
X1396250Y1263580*
Y1263158*
X1396352Y1262876*
X1396455Y1262736*
X1396761Y1262595*
X1397682*
X1394000Y1263158D02*
X1394102Y1262736D01*
X1394307Y1262455*
X1394614Y1262314*
X1394716*
X1395023Y1262455*
X1395227Y1262736*
X1395330Y1263158*
Y1263298*
X1395227Y1263720*
X1395023Y1264001*
X1394716Y1264142*
X1394614*
X1394307Y1264001*
X1394102Y1263720*
X1394000Y1263158*
Y1262455*
X1394102Y1261751*
X1394307Y1261330*
X1394614Y1261189*
X1394818*
X1395125Y1261330*
X1395227Y1261611*
X1471466Y1076439D02*
X1471568Y1076720D01*
X1471773Y1077001*
X1471977Y1077142*
X1472386*
X1472591Y1077001*
X1472795Y1076720*
X1472898Y1076439*
X1473000Y1076017*
Y1075314*
X1472898Y1074892*
X1472795Y1074611*
X1472591Y1074330*
X1472386Y1074189*
X1471977*
X1471773Y1074330*
X1471568Y1074611*
X1471466Y1074892*
X1470545Y1076580D02*
X1470341Y1076720D01*
X1470034Y1077142*
Y1074189*
X1467784Y1077142D02*
X1468807D01*
X1468909Y1075876*
X1468807Y1076017*
X1468500Y1076158*
X1468193*
X1467886Y1076017*
X1467682Y1075736*
X1467580Y1075314*
X1467682Y1075033*
X1467784Y1074611*
X1467989Y1074330*
X1468295Y1074189*
X1468602*
X1468909Y1074330*
X1469011Y1074470*
X1469114Y1074751*
X1465227Y1077142D02*
X1466250Y1074189D01*
X1466659Y1077142D02*
X1465227D01*
X1472205Y1115375D02*
X1472307Y1115656D01*
X1472511Y1115938*
X1472511D02*
X1472716Y1116078D01*
X1473125*
X1473330Y1115938*
X1473330D02*
X1473534Y1115656D01*
X1473636Y1115375*
X1473739Y1114953*
Y1114250*
X1473636Y1113828*
X1473534Y1113547*
X1473330Y1113266*
X1473125Y1113125*
X1472716*
X1472511Y1113266*
X1472307Y1113547*
X1472205Y1113828*
X1471284Y1115516D02*
X1471080Y1115656D01*
X1470773Y1116078*
Y1113125*
X1468523Y1115094D02*
X1468625Y1114672D01*
X1468830Y1114391*
X1469136Y1114250*
X1469239*
X1469545Y1114391*
X1469750Y1114672*
X1469852Y1115094*
Y1115234*
X1469750Y1115656*
X1469545Y1115938*
X1469545D02*
X1469239Y1116078D01*
X1469136*
X1468830Y1115938*
X1468830D02*
X1468625Y1115656D01*
X1468523Y1115094*
Y1114391*
X1468625Y1113688*
X1468625D02*
X1468830Y1113266D01*
X1469136Y1113125*
X1469341*
X1469648Y1113266*
X1469750Y1113547*
X1467500Y1115375D02*
Y1115516D01*
X1467398Y1115797*
X1467295Y1115938*
X1467295D02*
X1467091Y1116078D01*
X1466682*
X1466477Y1115938*
X1466477D02*
X1466375Y1115797D01*
X1466273Y1115516*
Y1115234*
X1466375Y1114953*
X1466580Y1114531*
X1467602Y1113125*
X1466170*
X1425266Y1070250D02*
X1425368Y1070531D01*
X1425573Y1070813*
X1425573D02*
X1425777Y1070953D01*
X1426186*
X1426391Y1070813*
X1426391D02*
X1426595Y1070531D01*
X1426698Y1070250*
X1426800Y1069828*
Y1069125*
X1426698Y1068703*
X1426595Y1068422*
X1426391Y1068141*
X1426186Y1068000*
X1425777*
X1425573Y1068141*
X1425368Y1068422*
X1425266Y1068703*
X1424345Y1070391D02*
X1424141Y1070531D01*
X1423834Y1070953*
Y1068000*
X1421584Y1070953D02*
X1422607D01*
X1422709Y1069688*
X1422709D02*
X1422607Y1069828D01*
X1422300Y1069969*
X1421993*
X1421686Y1069828*
X1421482Y1069547*
X1421380Y1069125*
X1421482Y1068844*
X1421584Y1068422*
X1421789Y1068141*
X1422095Y1068000*
X1422402*
X1422709Y1068141*
X1422811Y1068281*
X1422914Y1068563*
X1420357Y1070250D02*
Y1070391D01*
X1420255Y1070672*
X1420152Y1070813*
X1420152D02*
X1419948Y1070953D01*
X1419539*
X1419334Y1070813*
X1419334D02*
X1419232Y1070672D01*
X1419130Y1070391*
Y1070109*
X1419232Y1069828*
X1419436Y1069406*
X1420459Y1068000*
X1419027*
X1091375Y1083784D02*
X1091656Y1083682D01*
X1091938Y1083477*
X1091938D02*
X1092078Y1083273D01*
Y1082864*
X1091938Y1082659*
X1091938D02*
X1091656Y1082455D01*
X1091375Y1082352*
X1090953Y1082250*
X1090250*
X1089828Y1082352*
X1089547Y1082455*
X1089266Y1082659*
X1089125Y1082864*
Y1083273*
X1089266Y1083477*
X1089547Y1083682*
X1089828Y1083784*
X1091375Y1084807D02*
X1091516D01*
X1091797Y1084909*
X1091938Y1085011*
X1091938D02*
X1092078Y1085216D01*
Y1085625*
X1091938Y1085830*
X1091938D02*
X1091797Y1085932D01*
X1091516Y1086034*
X1091234*
X1090953Y1085932*
X1090531Y1085727*
X1089125Y1084705*
Y1086136*
X1092078Y1087670D02*
X1091938Y1087364D01*
X1091938D02*
X1091516Y1087159D01*
X1090813Y1087057*
X1090813D02*
X1090391D01*
X1089688Y1087159*
X1089688D02*
X1089266Y1087364D01*
X1089125Y1087670*
Y1087875*
X1089266Y1088182*
X1089688Y1088386*
X1089688D02*
X1090391Y1088489D01*
X1090813*
X1090813D02*
X1091516Y1088386D01*
X1091938Y1088182*
X1091938D02*
X1092078Y1087875D01*
Y1087670*
Y1090841D02*
X1089125Y1089818D01*
X1092078Y1089409D02*
Y1090841D01*
X1424307Y1118875D02*
X1424409Y1119156D01*
X1424614Y1119438*
X1424614D02*
X1424818Y1119578D01*
X1425227*
X1425432Y1119438*
X1425432D02*
X1425636Y1119156D01*
X1425739Y1118875*
X1425841Y1118453*
Y1117750*
X1425739Y1117328*
X1425636Y1117047*
X1425432Y1116766*
X1425227Y1116625*
X1424818*
X1424614Y1116766*
X1424409Y1117047*
X1424307Y1117328*
X1423284Y1118875D02*
Y1119016D01*
X1423182Y1119297*
X1423080Y1119438*
X1423080D02*
X1422875Y1119578D01*
X1422466*
X1422261Y1119438*
X1422261D02*
X1422159Y1119297D01*
X1422057Y1119016*
Y1118734*
X1422159Y1118453*
X1422364Y1118031*
X1423386Y1116625*
X1421955*
X1421034Y1119016D02*
X1420830Y1119156D01*
X1420523Y1119578*
Y1116625*
X1418273Y1119578D02*
X1419295D01*
X1419398Y1118313*
X1419398D02*
X1419295Y1118453D01*
X1418989Y1118594*
X1418682*
X1418375Y1118453*
X1418170Y1118172*
X1418068Y1117750*
X1418170Y1117469*
X1418273Y1117047*
X1418477Y1116766*
X1418784Y1116625*
X1419091*
X1419398Y1116766*
X1419500Y1116906*
X1419602Y1117188*
X1111466Y1095250D02*
X1111568Y1095531D01*
X1111773Y1095813*
X1111773D02*
X1111977Y1095953D01*
X1112386*
X1112591Y1095813*
X1112591D02*
X1112795Y1095531D01*
X1112898Y1095250*
X1113000Y1094828*
Y1094125*
X1112898Y1093703*
X1112795Y1093422*
X1112591Y1093141*
X1112386Y1093000*
X1111977*
X1111773Y1093141*
X1111568Y1093422*
X1111466Y1093703*
X1110341Y1095953D02*
X1109216D01*
X1109830Y1094828*
X1109523*
X1109318Y1094688*
X1109318D02*
X1109216Y1094547D01*
X1109114Y1094125*
Y1093844*
X1109216Y1093422*
X1109420Y1093141*
X1109727Y1093000*
X1110034*
X1110341Y1093141*
X1110443Y1093281*
X1110545Y1093563*
X1107170Y1095953D02*
X1108193Y1093984D01*
X1106659*
X1107170Y1095953D02*
Y1093000D01*
X1388375Y1129909D02*
X1388656Y1129807D01*
X1388938Y1129602*
X1388938D02*
X1389078Y1129398D01*
Y1128989*
X1388938Y1128784*
X1388938D02*
X1388656Y1128580D01*
X1388375Y1128477*
X1387953Y1128375*
X1387250*
X1386828Y1128477*
X1386547Y1128580*
X1386266Y1128784*
X1386125Y1128989*
Y1129398*
X1386266Y1129602*
X1386547Y1129807*
X1386828Y1129909*
X1389078Y1131852D02*
X1387109Y1130830D01*
Y1132364*
X1389078Y1131852D02*
X1386125D01*
X1389078Y1133489D02*
Y1134614D01*
X1387953Y1134000*
Y1134307*
X1387813Y1134511*
X1387813D02*
X1387672Y1134614D01*
X1387250Y1134716*
X1386969*
X1386547Y1134614*
X1386266Y1134409*
X1386125Y1134102*
Y1133795*
X1386266Y1133489*
X1386406Y1133386*
X1386688Y1133284*
X1387392Y1175484D02*
X1387494Y1175766D01*
X1387699Y1176047*
X1387903Y1176188*
X1387903D02*
X1388313D01*
X1388313D02*
X1388517Y1176047D01*
X1388722Y1175766*
X1388824Y1175484*
X1388926Y1175063*
X1388926D02*
Y1174359D01*
X1388824Y1173938*
X1388824D02*
X1388722Y1173656D01*
X1388517Y1173375*
X1388313Y1173234*
X1388313D02*
X1387903D01*
X1387699Y1173375*
X1387494Y1173656*
X1387392Y1173938*
X1385449Y1176188D02*
X1386472Y1174219D01*
X1384938*
X1385449Y1176188D02*
Y1173234D01*
X1382994Y1176188D02*
X1384017Y1174219D01*
X1382483*
X1382994Y1176188D02*
Y1173234D01*
X1380250Y1421534D02*
X1380531Y1421432D01*
X1380813Y1421227*
X1380813D02*
X1380953Y1421023D01*
Y1420614*
X1380813Y1420409*
X1380813D02*
X1380531Y1420205D01*
X1380250Y1420102*
X1379828Y1420000*
X1379125*
X1378703Y1420102*
X1378422Y1420205*
X1378141Y1420409*
X1378000Y1420614*
Y1421023*
X1378141Y1421227*
X1378422Y1421432*
X1378703Y1421534*
X1380250Y1422557D02*
X1380391D01*
X1380672Y1422659*
X1380813Y1422761*
X1380813D02*
X1380953Y1422966D01*
Y1423375*
X1380813Y1423580*
X1380813D02*
X1380672Y1423682D01*
X1380391Y1423784*
X1380109*
X1379828Y1423682*
X1379406Y1423477*
X1378000Y1422455*
Y1423886*
X1380953Y1426136D02*
Y1425114D01*
X1379688Y1425011*
X1379688D02*
X1379828Y1425114D01*
X1379969Y1425420*
Y1425727*
X1379828Y1426034*
X1379547Y1426239*
X1379125Y1426341*
X1378844Y1426239*
X1378422Y1426136*
X1378141Y1425932*
X1378000Y1425625*
Y1425318*
X1378141Y1425011*
X1378281Y1424909*
X1378563Y1424807*
X1380953Y1428693D02*
X1378000Y1427670D01*
X1380953Y1427261D02*
Y1428693D01*
X1424250Y1422534D02*
X1424531Y1422432D01*
X1424812Y1422227*
X1424812D02*
X1424953Y1422023D01*
Y1421614*
X1424812Y1421409*
X1424812D02*
X1424531Y1421205D01*
X1424250Y1421102*
X1423828Y1421000*
X1423125*
X1422703Y1421102*
X1422422Y1421205*
X1422141Y1421409*
X1422000Y1421614*
Y1422023*
X1422141Y1422227*
X1422422Y1422432*
X1422703Y1422534*
X1424953Y1424477D02*
X1422984Y1423455D01*
Y1424989*
X1424953Y1424477D02*
X1422000D01*
X1424953Y1426523D02*
X1424812Y1426216D01*
X1424812D02*
X1424391Y1426011D01*
X1423687Y1425909*
X1423687D02*
X1423266D01*
X1422562Y1426011*
X1422562D02*
X1422141Y1426216D01*
X1422000Y1426523*
Y1426727*
X1422141Y1427034*
X1422562Y1427239*
X1422562D02*
X1423266Y1427341D01*
X1423687*
X1423687D02*
X1424391Y1427239D01*
X1424812Y1427034*
X1424812D02*
X1424953Y1426727D01*
Y1426523*
Y1428875D02*
X1424812Y1428568D01*
X1424812D02*
X1424391Y1428364D01*
X1423687Y1428261*
X1423687D02*
X1423266D01*
X1422562Y1428364*
X1422562D02*
X1422141Y1428568D01*
X1422000Y1428875*
Y1429080*
X1422141Y1429386*
X1422562Y1429591*
X1422562D02*
X1423266Y1429693D01*
X1423687*
X1423687D02*
X1424391Y1429591D01*
X1424812Y1429386*
X1424812D02*
X1424953Y1429080D01*
Y1428875*
X1239966Y1222939D02*
X1240068Y1223220D01*
X1240273Y1223501*
X1240477Y1223642*
X1240886*
X1241091Y1223501*
X1241295Y1223220*
X1241398Y1222939*
X1241500Y1222517*
Y1221814*
X1241398Y1221392*
X1241295Y1221111*
X1241091Y1220830*
X1240886Y1220689*
X1240477*
X1240273Y1220830*
X1240068Y1221111*
X1239966Y1221392*
X1239045Y1223080D02*
X1238841Y1223220D01*
X1238534Y1223642*
Y1220689*
X1237511Y1222939D02*
Y1223080D01*
X1237409Y1223361*
X1237307Y1223501*
X1237102Y1223642*
X1236693*
X1236489Y1223501*
X1236386Y1223361*
X1236284Y1223080*
Y1222798*
X1236386Y1222517*
X1236591Y1222095*
X1237614Y1220689*
X1236182*
X1233932Y1222658D02*
X1234034Y1222236D01*
X1234239Y1221955*
X1234545Y1221814*
X1234648*
X1234955Y1221955*
X1235159Y1222236*
X1235261Y1222658*
Y1222798*
X1235159Y1223220*
X1234955Y1223501*
X1234648Y1223642*
X1234545*
X1234239Y1223501*
X1234034Y1223220*
X1233932Y1222658*
Y1221955*
X1234034Y1221251*
X1234239Y1220830*
X1234545Y1220689*
X1234750*
X1235057Y1220830*
X1235159Y1221111*
X1206366Y1238139D02*
X1206468Y1238420D01*
X1206673Y1238701*
X1206877Y1238842*
X1207286*
X1207491Y1238701*
X1207695Y1238420*
X1207798Y1238139*
X1207900Y1237717*
Y1237014*
X1207798Y1236592*
X1207695Y1236311*
X1207491Y1236030*
X1207286Y1235889*
X1206877*
X1206673Y1236030*
X1206468Y1236311*
X1206366Y1236592*
X1205445Y1238280D02*
X1205241Y1238420D01*
X1204934Y1238842*
Y1235889*
X1203809Y1238842D02*
X1202684D01*
X1203298Y1237717*
X1202991*
X1202786Y1237576*
X1202684Y1237436*
X1202582Y1237014*
Y1236733*
X1202684Y1236311*
X1202889Y1236030*
X1203195Y1235889*
X1203502*
X1203809Y1236030*
X1203911Y1236170*
X1204014Y1236451*
X1201048Y1238842D02*
X1201355Y1238701D01*
X1201559Y1238280*
X1201661Y1237576*
Y1237155*
X1201559Y1236451*
X1201355Y1236030*
X1201048Y1235889*
X1200843*
X1200536Y1236030*
X1200332Y1236451*
X1200230Y1237155*
Y1237576*
X1200332Y1238280*
X1200536Y1238701*
X1200843Y1238842*
X1201048*
X1238966Y1217439D02*
X1239068Y1217720D01*
X1239273Y1218001*
X1239477Y1218142*
X1239886*
X1240091Y1218001*
X1240295Y1217720*
X1240398Y1217439*
X1240500Y1217017*
Y1216314*
X1240398Y1215892*
X1240295Y1215611*
X1240091Y1215330*
X1239886Y1215189*
X1239477*
X1239273Y1215330*
X1239068Y1215611*
X1238966Y1215892*
X1238045Y1217580D02*
X1237841Y1217720D01*
X1237534Y1218142*
Y1215189*
X1236102Y1218142D02*
X1236409Y1218001D01*
X1236511Y1217720*
Y1217439*
X1236409Y1217158*
X1236205Y1217017*
X1235795Y1216876*
X1235489Y1216736*
X1235284Y1216455*
X1235182Y1216173*
Y1215751*
X1235284Y1215470*
X1235386Y1215330*
X1235693Y1215189*
X1236102*
X1236409Y1215330*
X1236511Y1215470*
X1236614Y1215751*
Y1216173*
X1236511Y1216455*
X1236307Y1216736*
X1236000Y1216876*
X1235591Y1217017*
X1235386Y1217158*
X1235284Y1217439*
Y1217720*
X1235386Y1218001*
X1235693Y1218142*
X1236102*
X1232932D02*
X1233955D01*
X1234057Y1216876*
X1233955Y1217017*
X1233648Y1217158*
X1233341*
X1233034Y1217017*
X1232830Y1216736*
X1232727Y1216314*
X1232830Y1216033*
X1232932Y1215611*
X1233136Y1215330*
X1233443Y1215189*
X1233750*
X1234057Y1215330*
X1234159Y1215470*
X1234261Y1215751*
X1253653Y1140375D02*
X1253756Y1140656D01*
X1253960Y1140938*
X1253960D02*
X1254165Y1141078D01*
X1254574*
X1254778Y1140938*
X1254778D02*
X1254983Y1140656D01*
X1255085Y1140375*
X1255187Y1139953*
Y1139250*
X1255085Y1138828*
X1254983Y1138547*
X1254778Y1138266*
X1254574Y1138125*
X1254165*
X1253960Y1138266*
X1253756Y1138547*
X1253653Y1138828*
X1252733Y1140516D02*
X1252528Y1140656D01*
X1252222Y1141078*
Y1138125*
X1249972Y1140094D02*
X1250074Y1139672D01*
X1250278Y1139391*
X1250585Y1139250*
X1250687*
X1250994Y1139391*
X1251199Y1139672*
X1251301Y1140094*
Y1140234*
X1251199Y1140656*
X1250994Y1140938*
X1250994D02*
X1250687Y1141078D01*
X1250585*
X1250278Y1140938*
X1250278D02*
X1250074Y1140656D01*
X1249972Y1140094*
Y1139391*
X1250074Y1138688*
X1250074D02*
X1250278Y1138266D01*
X1250585Y1138125*
X1250790*
X1251097Y1138266*
X1251199Y1138547*
X1247722Y1140094D02*
X1247824Y1139672D01*
X1248028Y1139391*
X1248335Y1139250*
X1248437*
X1248744Y1139391*
X1248949Y1139672*
X1249051Y1140094*
Y1140234*
X1248949Y1140656*
X1248744Y1140938*
X1248744D02*
X1248437Y1141078D01*
X1248335*
X1248028Y1140938*
X1248028D02*
X1247824Y1140656D01*
X1247722Y1140094*
Y1139391*
X1247824Y1138688*
X1247824D02*
X1248028Y1138266D01*
X1248335Y1138125*
X1248540*
X1248847Y1138266*
X1248949Y1138547*
X1254966Y1116850D02*
X1255068Y1117131D01*
X1255273Y1117413*
X1255273D02*
X1255477Y1117553D01*
X1255886*
X1256091Y1117413*
X1256091D02*
X1256295Y1117131D01*
X1256398Y1116850*
X1256500Y1116428*
Y1115725*
X1256398Y1115303*
X1256295Y1115022*
X1256091Y1114741*
X1255886Y1114600*
X1255477*
X1255273Y1114741*
X1255068Y1115022*
X1254966Y1115303*
X1253943Y1116850D02*
Y1116991D01*
X1253841Y1117272*
X1253739Y1117413*
X1253739D02*
X1253534Y1117553D01*
X1253125*
X1252920Y1117413*
X1252920D02*
X1252818Y1117272D01*
X1252716Y1116991*
Y1116709*
X1252818Y1116428*
X1253023Y1116006*
X1254045Y1114600*
X1252614*
X1251080Y1117553D02*
X1251386Y1117413D01*
X1251386D02*
X1251591Y1116991D01*
X1251693Y1116288*
X1251693D02*
Y1115866D01*
X1251591Y1115163*
X1251591D02*
X1251386Y1114741D01*
X1251080Y1114600*
X1250875*
X1250568Y1114741*
X1250364Y1115163*
X1250364D02*
X1250261Y1115866D01*
Y1116288*
X1250261D02*
X1250364Y1116991D01*
X1250568Y1117413*
X1250568D02*
X1250875Y1117553D01*
X1251080*
X1248727D02*
X1249034Y1117413D01*
X1249034D02*
X1249239Y1116991D01*
X1249341Y1116288*
X1249341D02*
Y1115866D01*
X1249239Y1115163*
X1249239D02*
X1249034Y1114741D01*
X1248727Y1114600*
X1248523*
X1248216Y1114741*
X1248011Y1115163*
X1248011D02*
X1247909Y1115866D01*
Y1116288*
X1247909D02*
X1248011Y1116991D01*
X1248216Y1117413*
X1248216D02*
X1248523Y1117553D01*
X1248727*
X1129866Y1236339D02*
X1129968Y1236620D01*
X1130173Y1236901*
X1130377Y1237042*
X1130786*
X1130991Y1236901*
X1131195Y1236620*
X1131298Y1236339*
X1131400Y1235917*
Y1235214*
X1131298Y1234792*
X1131195Y1234511*
X1130991Y1234230*
X1130786Y1234089*
X1130377*
X1130173Y1234230*
X1129968Y1234511*
X1129866Y1234792*
X1128843Y1236339D02*
Y1236480D01*
X1128741Y1236761*
X1128639Y1236901*
X1128434Y1237042*
X1128025*
X1127820Y1236901*
X1127718Y1236761*
X1127616Y1236480*
Y1236198*
X1127718Y1235917*
X1127923Y1235495*
X1128945Y1234089*
X1127514*
X1125980Y1237042D02*
X1126286Y1236901D01*
X1126491Y1236480*
X1126593Y1235776*
Y1235355*
X1126491Y1234651*
X1126286Y1234230*
X1125980Y1234089*
X1125775*
X1125468Y1234230*
X1125264Y1234651*
X1125161Y1235355*
Y1235776*
X1125264Y1236480*
X1125468Y1236901*
X1125775Y1237042*
X1125980*
X1124241Y1236480D02*
X1124036Y1236620D01*
X1123730Y1237042*
Y1234089*
X1118216Y1124875D02*
X1118318Y1125156D01*
X1118523Y1125438*
X1118523D02*
X1118727Y1125578D01*
X1119136*
X1119341Y1125438*
X1119341D02*
X1119545Y1125156D01*
X1119648Y1124875*
X1119750Y1124453*
Y1123750*
X1119648Y1123328*
X1119545Y1123047*
X1119341Y1122766*
X1119136Y1122625*
X1118727*
X1118523Y1122766*
X1118318Y1123047*
X1118216Y1123328*
X1117193Y1124875D02*
Y1125016D01*
X1117091Y1125297*
X1116989Y1125438*
X1116989D02*
X1116784Y1125578D01*
X1116375*
X1116170Y1125438*
X1116170D02*
X1116068Y1125297D01*
X1115966Y1125016*
Y1124734*
X1116068Y1124453*
X1116273Y1124031*
X1117295Y1122625*
X1115864*
X1114330Y1125578D02*
X1114636Y1125438D01*
X1114636D02*
X1114841Y1125016D01*
X1114943Y1124313*
X1114943D02*
Y1123891D01*
X1114841Y1123188*
X1114841D02*
X1114636Y1122766D01*
X1114330Y1122625*
X1114125*
X1113818Y1122766*
X1113614Y1123188*
X1113614D02*
X1113511Y1123891D01*
Y1124313*
X1113511D02*
X1113614Y1125016D01*
X1113818Y1125438*
X1113818D02*
X1114125Y1125578D01*
X1114330*
X1112489Y1124875D02*
Y1125016D01*
X1112386Y1125297*
X1112284Y1125438*
X1112284D02*
X1112080Y1125578D01*
X1111670*
X1111466Y1125438*
X1111466D02*
X1111364Y1125297D01*
X1111261Y1125016*
Y1124734*
X1111364Y1124453*
X1111568Y1124031*
X1112591Y1122625*
X1111159*
X1267850Y1099334D02*
X1268131Y1099232D01*
X1268413Y1099027*
X1268553Y1098823*
Y1098414*
X1268413Y1098209*
X1268131Y1098005*
X1267850Y1097902*
X1267428Y1097800*
X1266725*
X1266303Y1097902*
X1266022Y1098005*
X1265741Y1098209*
X1265600Y1098414*
Y1098823*
X1265741Y1099027*
X1266022Y1099232*
X1266303Y1099334*
X1268553Y1100459D02*
Y1101584D01*
X1267428Y1100970*
Y1101277*
X1267288Y1101482*
X1267147Y1101584*
X1266725Y1101686*
X1266444*
X1266022Y1101584*
X1265741Y1101380*
X1265600Y1101073*
Y1100766*
X1265741Y1100459*
X1265881Y1100357*
X1266163Y1100255*
X1268553Y1103936D02*
Y1102914D01*
X1267288Y1102811*
X1267428Y1102914*
X1267569Y1103220*
Y1103527*
X1267428Y1103834*
X1267147Y1104039*
X1266725Y1104141*
X1266444Y1104039*
X1266022Y1103936*
X1265741Y1103732*
X1265600Y1103425*
Y1103118*
X1265741Y1102811*
X1265881Y1102709*
X1266163Y1102607*
X1366540Y1098375D02*
X1366642Y1098656D01*
X1366847Y1098938*
X1367051Y1099078*
X1367460*
X1367665Y1098938*
X1367869Y1098656*
X1367972Y1098375*
X1368074Y1097953*
Y1097250*
X1367972Y1096828*
X1367869Y1096547*
X1367665Y1096266*
X1367460Y1096125*
X1367051*
X1366847Y1096266*
X1366642Y1096547*
X1366540Y1096828*
X1365415Y1099078D02*
X1364290D01*
X1364903Y1097953*
X1364597*
X1364392Y1097813*
X1364290Y1097672*
X1364187Y1097250*
X1364187D02*
Y1096969D01*
X1364187D02*
X1364290Y1096547D01*
X1364494Y1096266*
X1364801Y1096125*
X1365108*
X1365415Y1096266*
X1365517Y1096406*
X1365619Y1096688*
X1361835Y1099078D02*
X1362858Y1096125D01*
X1363267Y1099078D02*
X1361835D01*
X1388466Y1117439D02*
X1388568Y1117720D01*
X1388773Y1118001*
X1388977Y1118142*
X1389386*
X1389591Y1118001*
X1389795Y1117720*
X1389898Y1117439*
X1390000Y1117017*
Y1116314*
X1389898Y1115892*
X1389795Y1115611*
X1389591Y1115330*
X1389386Y1115189*
X1388977*
X1388773Y1115330*
X1388568Y1115611*
X1388466Y1115892*
X1387341Y1118142D02*
X1386216D01*
X1386830Y1117017*
X1386523*
X1386318Y1116876*
X1386216Y1116736*
X1386114Y1116314*
Y1116033*
X1386216Y1115611*
X1386420Y1115330*
X1386727Y1115189*
X1387034*
X1387341Y1115330*
X1387443Y1115470*
X1387545Y1115751*
X1384682Y1118142D02*
X1384989Y1118001D01*
X1385091Y1117720*
Y1117439*
X1384989Y1117158*
X1384784Y1117017*
X1384375Y1116876*
X1384068Y1116736*
X1383864Y1116455*
X1383761Y1116173*
Y1115751*
X1383864Y1115470*
X1383966Y1115330*
X1384273Y1115189*
X1384682*
X1384989Y1115330*
X1385091Y1115470*
X1385193Y1115751*
Y1116173*
X1385091Y1116455*
X1384886Y1116736*
X1384580Y1116876*
X1384170Y1117017*
X1383966Y1117158*
X1383864Y1117439*
Y1117720*
X1383966Y1118001*
X1384273Y1118142*
X1384682*
X1376892Y1183984D02*
X1376994Y1184266D01*
X1377199Y1184547*
X1377403Y1184688*
X1377403D02*
X1377812D01*
X1377812D02*
X1378017Y1184547D01*
X1378222Y1184266*
X1378324Y1183984*
X1378426Y1183563*
X1378426D02*
Y1182859D01*
X1378324Y1182438*
X1378324D02*
X1378222Y1182156D01*
X1378017Y1181875*
X1377812Y1181734*
X1377812D02*
X1377403D01*
X1377199Y1181875*
X1376994Y1182156*
X1376892Y1182438*
X1374949Y1184688D02*
X1375972Y1182719D01*
X1374437*
X1374949Y1184688D02*
Y1181734D01*
X1372187Y1184688D02*
X1373210D01*
X1373210D02*
X1373312Y1183422D01*
X1373312D02*
X1373210Y1183563D01*
X1373210D02*
X1372903Y1183703D01*
X1372597*
X1372290Y1183563*
X1372290D02*
X1372085Y1183281D01*
X1371983Y1182859*
X1372085Y1182578*
X1372187Y1182156*
X1372187D02*
X1372392Y1181875D01*
X1372699Y1181734*
X1373006*
X1373312Y1181875*
X1373312D02*
X1373415Y1182016D01*
X1373517Y1182297*
X1377966Y1212439D02*
X1378068Y1212720D01*
X1378273Y1213001*
X1378477Y1213142*
X1378886*
X1379091Y1213001*
X1379295Y1212720*
X1379398Y1212439*
X1379500Y1212017*
Y1211314*
X1379398Y1210892*
X1379295Y1210611*
X1379091Y1210330*
X1378886Y1210189*
X1378477*
X1378273Y1210330*
X1378068Y1210611*
X1377966Y1210892*
X1376023Y1213142D02*
X1377045Y1211173D01*
X1375511*
X1376023Y1213142D02*
Y1210189D01*
X1373364Y1212720D02*
X1373466Y1213001D01*
X1373773Y1213142*
X1373977*
X1374284Y1213001*
X1374489Y1212580*
X1374591Y1211876*
Y1211173*
X1374489Y1210611*
X1374284Y1210330*
X1373977Y1210189*
X1373875*
X1373568Y1210330*
X1373364Y1210611*
X1373261Y1211033*
Y1211173*
X1373364Y1211595*
X1373568Y1211876*
X1373875Y1212017*
X1373977*
X1374284Y1211876*
X1374489Y1211595*
X1374591Y1211173*
X1265466Y1162939D02*
X1265568Y1163220D01*
X1265773Y1163501*
X1265977Y1163642*
X1266386*
X1266591Y1163501*
X1266795Y1163220*
X1266898Y1162939*
X1267000Y1162517*
Y1161814*
X1266898Y1161392*
X1266795Y1161111*
X1266591Y1160830*
X1266386Y1160689*
X1265977*
X1265773Y1160830*
X1265568Y1161111*
X1265466Y1161392*
X1263216Y1163642D02*
X1264239D01*
X1264341Y1162376*
X1264239Y1162517*
X1263932Y1162658*
X1263625*
X1263318Y1162517*
X1263114Y1162236*
X1263011Y1161814*
X1263114Y1161533*
X1263216Y1161111*
X1263420Y1160830*
X1263727Y1160689*
X1264034*
X1264341Y1160830*
X1264443Y1160970*
X1264545Y1161251*
X1263966Y1196250D02*
X1264068Y1196531D01*
X1264273Y1196812*
X1264273D02*
X1264477Y1196953D01*
X1264886*
X1265091Y1196812*
X1265091D02*
X1265295Y1196531D01*
X1265398Y1196250*
X1265500Y1195828*
Y1195125*
X1265398Y1194703*
X1265295Y1194422*
X1265091Y1194141*
X1264886Y1194000*
X1264477*
X1264273Y1194141*
X1264068Y1194422*
X1263966Y1194703*
X1261818Y1196531D02*
X1261920Y1196812D01*
X1261920D02*
X1262227Y1196953D01*
X1262432*
X1262739Y1196812*
X1262739D02*
X1262943Y1196391D01*
X1263045Y1195687*
X1263045D02*
Y1194984D01*
X1262943Y1194422*
X1262739Y1194141*
X1262432Y1194000*
X1262330*
X1262023Y1194141*
X1261818Y1194422*
X1261716Y1194844*
Y1194984*
X1261818Y1195406*
X1262023Y1195687*
X1262023D02*
X1262330Y1195828D01*
X1262432*
X1262739Y1195687*
X1262739D02*
X1262943Y1195406D01*
X1263045Y1194984*
X1301953Y1296189D02*
X1299000D01*
X1301953D02*
Y1297109D01*
X1301813Y1297416*
X1301672Y1297519*
X1301391Y1297621*
X1301109*
X1300828Y1297519*
X1300688Y1297416*
X1300547Y1297109*
Y1296189*
Y1296905D02*
X1299000Y1297621D01*
X1301391Y1298541D02*
X1301531Y1298746D01*
X1301953Y1299053*
X1299000*
X1301391Y1299973D02*
X1301531Y1300178D01*
X1301953Y1300484*
X1299000*
X1301953Y1302734D02*
Y1301712D01*
X1300688Y1301609*
X1300828Y1301712*
X1300969Y1302019*
Y1302325*
X1300828Y1302632*
X1300547Y1302837*
X1300125Y1302939*
X1299844Y1302837*
X1299422Y1302734*
X1299141Y1302530*
X1299000Y1302223*
Y1301916*
X1299141Y1301609*
X1299281Y1301507*
X1299563Y1301405*
X1294500Y1235642D02*
Y1232689D01*
Y1235642D02*
X1293580D01*
X1293273Y1235501*
X1293170Y1235361*
X1293068Y1235080*
Y1234798*
X1293170Y1234517*
X1293273Y1234376*
X1293580Y1234236*
X1294500*
X1293784D02*
X1293068Y1232689D01*
X1290818Y1235642D02*
X1291841D01*
X1291943Y1234376*
X1291841Y1234517*
X1291534Y1234658*
X1291227*
X1290920Y1234517*
X1290716Y1234236*
X1290614Y1233814*
X1290716Y1233533*
X1290818Y1233111*
X1291023Y1232830*
X1291330Y1232689*
X1291636*
X1291943Y1232830*
X1292045Y1232970*
X1292148Y1233251*
X1288364Y1234658D02*
X1288466Y1234236D01*
X1288670Y1233955*
X1288977Y1233814*
X1289080*
X1289386Y1233955*
X1289591Y1234236*
X1289693Y1234658*
Y1234798*
X1289591Y1235220*
X1289386Y1235501*
X1289080Y1235642*
X1288977*
X1288670Y1235501*
X1288466Y1235220*
X1288364Y1234658*
Y1233955*
X1288466Y1233251*
X1288670Y1232830*
X1288977Y1232689*
X1289182*
X1289489Y1232830*
X1289591Y1233111*
X1260553Y1097700D02*
X1257600D01*
X1260553D02*
Y1098620D01*
X1260413Y1098927*
X1260272Y1099030*
X1259991Y1099132*
X1259709*
X1259428Y1099030*
X1259288Y1098927*
X1259147Y1098620*
Y1097700*
Y1098416D02*
X1257600Y1099132D01*
X1260553Y1100564D02*
X1260413Y1100257D01*
X1260131Y1100155*
X1259850*
X1259569Y1100257*
X1259428Y1100461*
X1259288Y1100870*
X1259147Y1101177*
X1258866Y1101382*
X1258584Y1101484*
X1258163*
X1257881Y1101382*
X1257741Y1101280*
X1257600Y1100973*
Y1100564*
X1257741Y1100257*
X1257881Y1100155*
X1258163Y1100052*
X1258584*
X1258866Y1100155*
X1259147Y1100359*
X1259288Y1100666*
X1259428Y1101075*
X1259569Y1101280*
X1259850Y1101382*
X1260131*
X1260413Y1101280*
X1260553Y1100973*
Y1100564*
Y1102609D02*
Y1103734D01*
X1259428Y1103120*
Y1103427*
X1259288Y1103632*
X1259147Y1103734*
X1258725Y1103836*
X1258444*
X1258022Y1103734*
X1257741Y1103530*
X1257600Y1103223*
Y1102916*
X1257741Y1102609*
X1257881Y1102507*
X1258163Y1102405*
X1250670Y1168688D02*
Y1165734D01*
Y1168688D02*
X1249750D01*
X1249443Y1168547*
X1249341Y1168406*
X1249239Y1168125*
Y1167844*
X1249341Y1167563*
X1249443Y1167422*
X1249750Y1167281*
X1250670*
X1249955D02*
X1249239Y1165734D01*
X1246989Y1167703D02*
X1247091Y1167281D01*
X1247295Y1167000*
X1247602Y1166859*
X1247705*
X1248011Y1167000*
X1248216Y1167281*
X1248318Y1167703*
Y1167844*
X1248216Y1168266*
X1248011Y1168547*
X1247705Y1168688*
X1247602*
X1247295Y1168547*
X1247091Y1168266*
X1246989Y1167703*
Y1167000*
X1247091Y1166297*
X1247295Y1165875*
X1247602Y1165734*
X1247807*
X1248114Y1165875*
X1248216Y1166156*
X1244739Y1167703D02*
X1244841Y1167281D01*
X1245045Y1167000*
X1245352Y1166859*
X1245455*
X1245761Y1167000*
X1245966Y1167281*
X1246068Y1167703*
Y1167844*
X1245966Y1168266*
X1245761Y1168547*
X1245455Y1168688*
X1245352*
X1245045Y1168547*
X1244841Y1168266*
X1244739Y1167703*
Y1167000*
X1244841Y1166297*
X1245045Y1165875*
X1245352Y1165734*
X1245557*
X1245864Y1165875*
X1245966Y1166156*
X1168000Y1217142D02*
Y1214189D01*
Y1217142D02*
X1167080D01*
X1166773Y1217001*
X1166670Y1216861*
X1166568Y1216580*
Y1216298*
X1166670Y1216017*
X1166773Y1215876*
X1167080Y1215736*
X1168000*
X1167284D02*
X1166568Y1214189D01*
X1165648Y1216580D02*
X1165443Y1216720D01*
X1165136Y1217142*
Y1214189*
X1163602Y1217142D02*
X1163909Y1217001D01*
X1164114Y1216580*
X1164216Y1215876*
Y1215455*
X1164114Y1214751*
X1163909Y1214330*
X1163602Y1214189*
X1163398*
X1163091Y1214330*
X1162886Y1214751*
X1162784Y1215455*
Y1215876*
X1162886Y1216580*
X1163091Y1217001*
X1163398Y1217142*
X1163602*
X1161864Y1216580D02*
X1161659Y1216720D01*
X1161352Y1217142*
Y1214189*
X1196276Y1227753D02*
Y1224800D01*
Y1227753D02*
X1195356D01*
X1195049Y1227612*
X1194946Y1227472*
X1194844Y1227191*
Y1226909*
X1194946Y1226628*
X1195049Y1226487*
X1195356Y1226347*
X1196276*
X1195560D02*
X1194844Y1224800D01*
X1193924Y1227191D02*
X1193719Y1227331D01*
X1193412Y1227753*
Y1224800*
X1191878Y1227753D02*
X1192185Y1227612D01*
X1192390Y1227191*
X1192492Y1226487*
Y1226066*
X1192390Y1225362*
X1192185Y1224941*
X1191878Y1224800*
X1191674*
X1191367Y1224941*
X1191162Y1225362*
X1191060Y1226066*
Y1226487*
X1191162Y1227191*
X1191367Y1227612*
X1191674Y1227753*
X1191878*
X1190037Y1227050D02*
Y1227191D01*
X1189935Y1227472*
X1189833Y1227612*
X1189628Y1227753*
X1189219*
X1189015Y1227612*
X1188912Y1227472*
X1188810Y1227191*
Y1226909*
X1188912Y1226628*
X1189117Y1226206*
X1190140Y1224800*
X1188708*
X1107000Y1184642D02*
Y1181689D01*
Y1184642D02*
X1106080D01*
X1105773Y1184501*
X1105670Y1184361*
X1105568Y1184080*
Y1183798*
X1105670Y1183517*
X1105773Y1183376*
X1106080Y1183236*
X1107000*
X1106284D02*
X1105568Y1181689D01*
X1104648Y1184080D02*
X1104443Y1184220D01*
X1104136Y1184642*
Y1181689*
X1102602Y1184642D02*
X1102909Y1184501D01*
X1103114Y1184080*
X1103216Y1183376*
Y1182955*
X1103114Y1182251*
X1102909Y1181830*
X1102602Y1181689*
X1102398*
X1102091Y1181830*
X1101886Y1182251*
X1101784Y1182955*
Y1183376*
X1101886Y1184080*
X1102091Y1184501*
X1102398Y1184642*
X1102602*
X1100659D02*
X1099534D01*
X1100148Y1183517*
X1099841*
X1099636Y1183376*
X1099534Y1183236*
X1099432Y1182814*
Y1182533*
X1099534Y1182111*
X1099739Y1181830*
X1100045Y1181689*
X1100352*
X1100659Y1181830*
X1100761Y1181970*
X1100864Y1182251*
X1147000Y1217142D02*
Y1214189D01*
Y1217142D02*
X1146080D01*
X1145773Y1217001*
X1145670Y1216861*
X1145568Y1216580*
Y1216298*
X1145670Y1216017*
X1145773Y1215876*
X1146080Y1215736*
X1147000*
X1146284D02*
X1145568Y1214189D01*
X1144648Y1216580D02*
X1144443Y1216720D01*
X1144136Y1217142*
Y1214189*
X1142602Y1217142D02*
X1142909Y1217001D01*
X1143114Y1216580*
X1143216Y1215876*
Y1215455*
X1143114Y1214751*
X1142909Y1214330*
X1142602Y1214189*
X1142398*
X1142091Y1214330*
X1141886Y1214751*
X1141784Y1215455*
Y1215876*
X1141886Y1216580*
X1142091Y1217001*
X1142398Y1217142*
X1142602*
X1139841D02*
X1140864Y1215173D01*
X1139330*
X1139841Y1217142D02*
Y1214189D01*
X1107000Y1161642D02*
Y1158689D01*
Y1161642D02*
X1106080D01*
X1105773Y1161501*
X1105670Y1161361*
X1105568Y1161080*
Y1160798*
X1105670Y1160517*
X1105773Y1160376*
X1106080Y1160236*
X1107000*
X1106284D02*
X1105568Y1158689D01*
X1104648Y1161080D02*
X1104443Y1161220D01*
X1104136Y1161642*
Y1158689*
X1102602Y1161642D02*
X1102909Y1161501D01*
X1103114Y1161080*
X1103216Y1160376*
Y1159955*
X1103114Y1159251*
X1102909Y1158830*
X1102602Y1158689*
X1102398*
X1102091Y1158830*
X1101886Y1159251*
X1101784Y1159955*
Y1160376*
X1101886Y1161080*
X1102091Y1161501*
X1102398Y1161642*
X1102602*
X1099534D02*
X1100557D01*
X1100659Y1160376*
X1100557Y1160517*
X1100250Y1160658*
X1099943*
X1099636Y1160517*
X1099432Y1160236*
X1099330Y1159814*
X1099432Y1159533*
X1099534Y1159111*
X1099739Y1158830*
X1100045Y1158689*
X1100352*
X1100659Y1158830*
X1100761Y1158970*
X1100864Y1159251*
X1379400Y1227353D02*
Y1224400D01*
Y1227353D02*
X1378480D01*
X1378173Y1227213*
X1378173D02*
X1378070Y1227072D01*
X1377968Y1226791*
Y1226509*
X1378070Y1226228*
X1378173Y1226088*
X1378173D02*
X1378480Y1225947D01*
X1379400*
X1378684D02*
X1377968Y1224400D01*
X1376025Y1227353D02*
X1377048Y1225384D01*
X1375514*
X1376025Y1227353D02*
Y1224400D01*
X1374082Y1227353D02*
X1374389Y1227213D01*
X1374389D02*
X1374491Y1226931D01*
Y1226650*
X1374389Y1226369*
X1374184Y1226228*
X1373775Y1226088*
X1373775D02*
X1373468Y1225947D01*
X1373264Y1225666*
X1373161Y1225384*
Y1224963*
X1373161D02*
X1373264Y1224681D01*
X1373366Y1224541*
X1373673Y1224400*
X1374082*
X1374389Y1224541*
X1374491Y1224681*
X1374593Y1224963*
X1374593D02*
Y1225384D01*
X1374491Y1225666*
X1374286Y1225947*
X1373980Y1226088*
X1373980D02*
X1373570Y1226228D01*
X1373366Y1226369*
X1373264Y1226650*
Y1226931*
X1373366Y1227213*
X1373366D02*
X1373673Y1227353D01*
X1374082*
X1379972Y1136078D02*
Y1133125D01*
Y1136078D02*
X1379051D01*
X1378744Y1135937*
X1378744D02*
X1378642Y1135797D01*
X1378540Y1135516*
Y1135234*
X1378642Y1134953*
X1378744Y1134812*
X1378744D02*
X1379051Y1134672D01*
X1379972*
X1379256D02*
X1378540Y1133125D01*
X1376392Y1135656D02*
X1376494Y1135937D01*
X1376494D02*
X1376801Y1136078D01*
X1377006*
X1377312Y1135937*
X1377312D02*
X1377517Y1135516D01*
X1377619Y1134812*
X1377619D02*
Y1134109D01*
X1377517Y1133547*
X1377312Y1133266*
X1377312D02*
X1377006Y1133125D01*
X1376903*
X1376597Y1133266*
X1376392Y1133547*
X1376290Y1133969*
Y1134109*
X1376392Y1134531*
X1376597Y1134812*
X1376597D02*
X1376903Y1134953D01*
X1377006*
X1377312Y1134812*
X1377312D02*
X1377517Y1134531D01*
X1377619Y1134109*
X1375165Y1136078D02*
X1374040D01*
X1374653Y1134953*
X1374347*
X1374142Y1134812*
X1374142D02*
X1374040Y1134672D01*
X1373937Y1134250*
X1373937D02*
Y1133969D01*
X1373937D02*
X1374040Y1133547D01*
X1374244Y1133266*
X1374551Y1133125*
X1374858*
X1375165Y1133266*
X1375267Y1133406*
X1375369Y1133687*
X1096000Y1239453D02*
Y1236500D01*
Y1239453D02*
X1095080D01*
X1094773Y1239313*
X1094773D02*
X1094670Y1239172D01*
X1094568Y1238891*
Y1238609*
X1094670Y1238328*
X1094773Y1238188*
X1094773D02*
X1095080Y1238047D01*
X1096000*
X1095284D02*
X1094568Y1236500D01*
X1093648Y1238891D02*
X1093443Y1239031D01*
X1093136Y1239453*
Y1236500*
X1092216Y1238891D02*
X1092011Y1239031D01*
X1091705Y1239453*
Y1236500*
X1225065Y1218506D02*
X1222112D01*
X1225065D02*
Y1219426D01*
X1224925Y1219733*
X1224925D02*
X1224784Y1219836D01*
X1224503Y1219938*
X1224221*
X1223940Y1219836*
X1223800Y1219733*
X1223800D02*
X1223659Y1219426D01*
Y1218506*
Y1219222D02*
X1222112Y1219938D01*
X1224503Y1220858D02*
X1224643Y1221063D01*
X1225065Y1221370*
X1222112*
X1225065Y1223313D02*
X1223096Y1222290D01*
Y1223824*
X1225065Y1223313D02*
X1222112D01*
X1280453Y1224189D02*
X1277500D01*
X1280453D02*
Y1225109D01*
X1280312Y1225416*
X1280312D02*
X1280172Y1225519D01*
X1279891Y1225621*
X1279609*
X1279328Y1225519*
X1279187Y1225416*
X1279187D02*
X1279047Y1225109D01*
Y1224189*
Y1224905D02*
X1277500Y1225621D01*
X1280453Y1227973D02*
X1277500Y1226950D01*
X1280453Y1226541D02*
Y1227973D01*
X1280031Y1230121D02*
X1280312Y1230019D01*
X1280312D02*
X1280453Y1229712D01*
Y1229507*
X1280312Y1229200*
X1280312D02*
X1279891Y1228996D01*
X1279187Y1228894*
X1279187D02*
X1278484D01*
X1277922Y1228996*
X1277641Y1229200*
X1277500Y1229507*
Y1229609*
X1277641Y1229916*
X1277922Y1230121*
X1278344Y1230223*
X1278484*
X1278906Y1230121*
X1279187Y1229916*
X1279187D02*
X1279328Y1229609D01*
Y1229507*
X1279187Y1229200*
X1279187D02*
X1278906Y1228996D01*
X1278484Y1228894*
X1275953Y1296189D02*
X1273000D01*
X1275953D02*
Y1297109D01*
X1275813Y1297416*
X1275672Y1297519*
X1275391Y1297621*
X1275109*
X1274828Y1297519*
X1274688Y1297416*
X1274547Y1297109*
Y1296189*
Y1296905D02*
X1273000Y1297621D01*
X1275953Y1299973D02*
X1273000Y1298950D01*
X1275953Y1298541D02*
Y1299973D01*
Y1302325D02*
X1273000Y1301303D01*
X1275953Y1300894D02*
Y1302325D01*
X1293953Y1296189D02*
X1291000D01*
X1293953D02*
Y1297109D01*
X1293813Y1297416*
X1293672Y1297519*
X1293391Y1297621*
X1293109*
X1292828Y1297519*
X1292688Y1297416*
X1292547Y1297109*
Y1296189*
Y1296905D02*
X1291000Y1297621D01*
X1293953Y1299973D02*
X1291000Y1298950D01*
X1293953Y1298541D02*
Y1299973D01*
Y1301405D02*
X1293813Y1301098D01*
X1293531Y1300996*
X1293250*
X1292969Y1301098*
X1292828Y1301303*
X1292688Y1301712*
X1292547Y1302019*
X1292266Y1302223*
X1291984Y1302325*
X1291563*
X1291281Y1302223*
X1291141Y1302121*
X1291000Y1301814*
Y1301405*
X1291141Y1301098*
X1291281Y1300996*
X1291563Y1300894*
X1291984*
X1292266Y1300996*
X1292547Y1301200*
X1292688Y1301507*
X1292828Y1301916*
X1292969Y1302121*
X1293250Y1302223*
X1293531*
X1293813Y1302121*
X1293953Y1301814*
Y1301405*
X1317578Y1250028D02*
X1314625D01*
X1317578D02*
Y1250949D01*
X1317438Y1251256*
X1317438D02*
X1317297Y1251358D01*
X1317016Y1251460*
X1316734*
X1316453Y1251358*
X1316313Y1251256*
X1316313D02*
X1316172Y1250949D01*
Y1250028*
Y1250744D02*
X1314625Y1251460D01*
X1317578Y1253813D02*
X1314625Y1252790D01*
X1317578Y1252381D02*
Y1253813D01*
X1316594Y1256063D02*
X1316172Y1255960D01*
X1315891Y1255756*
X1315750Y1255449*
Y1255347*
X1315891Y1255040*
X1316172Y1254835*
X1316594Y1254733*
X1316734*
X1317156Y1254835*
X1317438Y1255040*
X1317438D02*
X1317578Y1255347D01*
Y1255449*
X1317438Y1255756*
X1317438D02*
X1317156Y1255960D01*
X1316594Y1256063*
X1316594D02*
X1315891D01*
X1315891D02*
X1315188Y1255960D01*
X1315188D02*
X1314766Y1255756D01*
X1314625Y1255449*
Y1255244*
X1314766Y1254938*
X1314766D02*
X1315047Y1254835D01*
X1305000Y1236142D02*
Y1233189D01*
Y1236142D02*
X1304080D01*
X1303773Y1236001*
X1303670Y1235861*
X1303568Y1235580*
Y1235298*
X1303670Y1235017*
X1303773Y1234876*
X1304080Y1234736*
X1305000*
X1304284D02*
X1303568Y1233189D01*
X1302136Y1236142D02*
X1302443Y1236001D01*
X1302545Y1235720*
Y1235439*
X1302443Y1235158*
X1302239Y1235017*
X1301830Y1234876*
X1301523Y1234736*
X1301318Y1234455*
X1301216Y1234173*
Y1233751*
X1301318Y1233470*
X1301420Y1233330*
X1301727Y1233189*
X1302136*
X1302443Y1233330*
X1302545Y1233470*
X1302648Y1233751*
Y1234173*
X1302545Y1234455*
X1302341Y1234736*
X1302034Y1234876*
X1301625Y1235017*
X1301420Y1235158*
X1301318Y1235439*
Y1235720*
X1301420Y1236001*
X1301727Y1236142*
X1302136*
X1300295Y1235580D02*
X1300091Y1235720D01*
X1299784Y1236142*
Y1233189*
X1267453Y1296189D02*
X1264500D01*
X1267453D02*
Y1297109D01*
X1267313Y1297416*
X1267172Y1297519*
X1266891Y1297621*
X1266609*
X1266328Y1297519*
X1266188Y1297416*
X1266047Y1297109*
Y1296189*
Y1296905D02*
X1264500Y1297621D01*
X1267453Y1299053D02*
X1267313Y1298746D01*
X1267031Y1298644*
X1266750*
X1266469Y1298746*
X1266328Y1298950*
X1266188Y1299359*
X1266047Y1299666*
X1265766Y1299871*
X1265484Y1299973*
X1265063*
X1264781Y1299871*
X1264641Y1299769*
X1264500Y1299462*
Y1299053*
X1264641Y1298746*
X1264781Y1298644*
X1265063Y1298541*
X1265484*
X1265766Y1298644*
X1266047Y1298848*
X1266188Y1299155*
X1266328Y1299564*
X1266469Y1299769*
X1266750Y1299871*
X1267031*
X1267313Y1299769*
X1267453Y1299462*
Y1299053*
Y1302223D02*
Y1301200D01*
X1266188Y1301098*
X1266328Y1301200*
X1266469Y1301507*
Y1301814*
X1266328Y1302121*
X1266047Y1302325*
X1265625Y1302428*
X1265344Y1302325*
X1264922Y1302223*
X1264641Y1302019*
X1264500Y1301712*
Y1301405*
X1264641Y1301098*
X1264781Y1300996*
X1265063Y1300894*
X1243972Y1133078D02*
Y1130125D01*
Y1133078D02*
X1243051D01*
X1242744Y1132938*
X1242642Y1132797*
X1242540Y1132516*
Y1132234*
X1242642Y1131953*
X1242744Y1131813*
X1243051Y1131672*
X1243972*
X1243256D02*
X1242540Y1130125D01*
X1240290Y1132094D02*
X1240392Y1131672D01*
X1240597Y1131391*
X1240903Y1131250*
X1241006*
X1241312Y1131391*
X1241312D02*
X1241517Y1131672D01*
X1241619Y1132094*
Y1132234*
X1241517Y1132656*
X1241312Y1132938*
X1241312D02*
X1241006Y1133078D01*
X1240903*
X1240597Y1132938*
X1240392Y1132656*
X1240290Y1132094*
Y1131391*
X1240392Y1130688*
X1240597Y1130266*
X1240903Y1130125*
X1241108*
X1241415Y1130266*
X1241517Y1130547*
X1238756Y1133078D02*
X1239062Y1132938D01*
X1239062D02*
X1239267Y1132516D01*
X1239369Y1131813*
Y1131391*
X1239267Y1130688*
X1239062Y1130266*
X1239062D02*
X1238756Y1130125D01*
X1238551*
X1238244Y1130266*
X1238040Y1130688*
X1237937Y1131391*
X1237937D02*
Y1131813D01*
X1237937D02*
X1238040Y1132516D01*
X1238244Y1132938*
X1238551Y1133078*
X1238756*
X1343453Y1380500D02*
X1340500D01*
X1343453D02*
Y1381420D01*
X1343313Y1381727*
X1343313D02*
X1343172Y1381830D01*
X1342891Y1381932*
X1342609*
X1342328Y1381830*
X1342188Y1381727*
X1342188D02*
X1342047Y1381420D01*
Y1380500*
Y1381216D02*
X1340500Y1381932D01*
X1342891Y1382852D02*
X1343031Y1383057D01*
X1343453Y1383364*
X1340500*
X1342750Y1384386D02*
X1342891D01*
X1343172Y1384489*
X1343313Y1384591*
X1343313D02*
X1343453Y1384795D01*
Y1385205*
X1343313Y1385409*
X1343313D02*
X1343172Y1385511D01*
X1342891Y1385614*
X1342609*
X1342328Y1385511*
X1341906Y1385307*
X1340500Y1384284*
Y1385716*
X1343031Y1387864D02*
X1343313Y1387761D01*
X1343313D02*
X1343453Y1387455D01*
Y1387250*
X1343313Y1386943*
X1343313D02*
X1342891Y1386739D01*
X1342188Y1386636*
X1342188D02*
X1341484D01*
X1340922Y1386739*
X1340641Y1386943*
X1340500Y1387250*
Y1387352*
X1340641Y1387659*
X1340922Y1387864*
X1341344Y1387966*
X1341484*
X1341906Y1387864*
X1342188Y1387659*
X1342188D02*
X1342328Y1387352D01*
Y1387250*
X1342188Y1386943*
X1342188D02*
X1341906Y1386739D01*
X1341484Y1386636*
X1349278Y1045078D02*
Y1042125D01*
Y1045078D02*
X1348358D01*
X1348051Y1044938*
X1348051D02*
X1347949Y1044797D01*
X1347847Y1044516*
Y1044234*
X1347949Y1043953*
X1348051Y1043813*
X1348051D02*
X1348358Y1043672D01*
X1349278*
X1348563D02*
X1347847Y1042125D01*
X1346926Y1044516D02*
X1346722Y1044656D01*
X1346415Y1045078*
Y1042125*
X1345290Y1045078D02*
X1344165D01*
X1344778Y1043953*
X1344472*
X1344267Y1043813*
X1344267D02*
X1344165Y1043672D01*
X1344063Y1043250*
X1344063D02*
Y1042969D01*
X1344063D02*
X1344165Y1042547D01*
X1344369Y1042266*
X1344676Y1042125*
X1344983*
X1345290Y1042266*
X1345392Y1042406*
X1345494Y1042688*
X1343142Y1044516D02*
X1342938Y1044656D01*
X1342938D02*
X1342631Y1045078D01*
Y1042125*
X1400239Y1045078D02*
Y1042125D01*
Y1045078D02*
X1399318D01*
X1399011Y1044938*
X1399011D02*
X1398909Y1044797D01*
X1398807Y1044516*
Y1044234*
X1398909Y1043953*
X1399011Y1043813*
X1399011D02*
X1399318Y1043672D01*
X1400239*
X1399523D02*
X1398807Y1042125D01*
X1397886Y1044516D02*
X1397682Y1044656D01*
X1397375Y1045078*
Y1042125*
X1396250Y1045078D02*
X1395125D01*
X1395739Y1043953*
X1395432*
X1395227Y1043813*
X1395227D02*
X1395125Y1043672D01*
X1395023Y1043250*
Y1042969*
X1395125Y1042547*
X1395330Y1042266*
X1395636Y1042125*
X1395943*
X1396250Y1042266*
X1396352Y1042406*
X1396455Y1042688*
X1394000Y1044375D02*
Y1044516D01*
X1393898Y1044797*
X1393795Y1044938*
X1393795D02*
X1393591Y1045078D01*
X1393182*
X1392977Y1044938*
X1392977D02*
X1392875Y1044797D01*
X1392773Y1044516*
Y1044234*
X1392875Y1043953*
X1393080Y1043531*
X1394102Y1042125*
X1392670*
X1248097Y1193188D02*
Y1190234D01*
Y1193188D02*
X1247176D01*
X1247176D02*
X1246869Y1193047D01*
X1246767Y1192906*
X1246665Y1192625*
Y1192344*
X1246767Y1192063*
X1246767D02*
X1246869Y1191922D01*
X1247176Y1191781*
X1248097*
X1247381D02*
X1246665Y1190234D01*
X1245233Y1193188D02*
X1245540Y1193047D01*
X1245642Y1192766*
Y1192484*
X1245540Y1192203*
X1245335Y1192063*
X1245335D02*
X1244926Y1191922D01*
X1244619Y1191781*
X1244415Y1191500*
X1244312Y1191219*
X1244312D02*
Y1190797D01*
X1244312D02*
X1244415Y1190516D01*
X1244517Y1190375*
X1244824Y1190234*
X1245233*
X1245540Y1190375*
X1245642Y1190516*
X1245744Y1190797*
Y1191219*
X1245642Y1191500*
X1245437Y1191781*
X1245437D02*
X1245131Y1191922D01*
X1244722Y1192063*
X1244722D02*
X1244517Y1192203D01*
X1244415Y1192484*
Y1192766*
X1244517Y1193047*
X1244824Y1193188*
X1244824D02*
X1245233D01*
X1193500Y1286642D02*
Y1284533D01*
X1193398Y1284111*
X1193193Y1283830*
X1192886Y1283689*
X1192682*
X1192375Y1283830*
X1192170Y1284111*
X1192068Y1284533*
Y1286642*
X1191148Y1286080D02*
X1190943Y1286220D01*
X1190636Y1286642*
Y1283689*
X1189102Y1286642D02*
X1189409Y1286501D01*
X1189614Y1286080*
X1189716Y1285376*
Y1284955*
X1189614Y1284251*
X1189409Y1283830*
X1189102Y1283689*
X1188898*
X1188591Y1283830*
X1188386Y1284251*
X1188284Y1284955*
Y1285376*
X1188386Y1286080*
X1188591Y1286501*
X1188898Y1286642*
X1189102*
X1085000Y1285642D02*
Y1283533D01*
X1084898Y1283111*
X1084693Y1282830*
X1084386Y1282689*
X1084182*
X1083875Y1282830*
X1083670Y1283111*
X1083568Y1283533*
Y1285642*
X1082648Y1285080D02*
X1082443Y1285220D01*
X1082136Y1285642*
Y1282689*
X1081216Y1285080D02*
X1081011Y1285220D01*
X1080705Y1285642*
Y1282689*
X1089062Y1049078D02*
Y1046969D01*
X1089062D02*
X1088960Y1046547D01*
X1088756Y1046266*
X1088449Y1046125*
X1088244*
X1087937Y1046266*
X1087937D02*
X1087733Y1046547D01*
X1087631Y1046969*
Y1049078*
X1086710Y1048516D02*
X1086506Y1048656D01*
X1086199Y1049078*
Y1046125*
X1085176Y1048375D02*
Y1048516D01*
X1085074Y1048797*
X1084972Y1048938*
X1084972D02*
X1084767Y1049078D01*
X1084358*
X1084153Y1048938*
X1084153D02*
X1084051Y1048797D01*
X1083949Y1048516*
Y1048234*
X1084051Y1047953*
X1084256Y1047531*
X1085278Y1046125*
X1083847*
X1089062Y1119078D02*
Y1116969D01*
X1089062D02*
X1088960Y1116547D01*
X1088756Y1116266*
X1088449Y1116125*
X1088244*
X1087937Y1116266*
X1087937D02*
X1087733Y1116547D01*
X1087631Y1116969*
Y1119078*
X1086710Y1118516D02*
X1086506Y1118656D01*
X1086199Y1119078*
Y1116125*
X1084767Y1119078D02*
X1085074Y1118938D01*
X1085074D02*
X1085176Y1118656D01*
Y1118375*
X1085074Y1118094*
X1084869Y1117953*
X1084460Y1117813*
X1084460D02*
X1084153Y1117672D01*
X1083949Y1117391*
X1083847Y1117109*
Y1116688*
X1083847D02*
X1083949Y1116406D01*
X1084051Y1116266*
X1084358Y1116125*
X1084767*
X1085074Y1116266*
X1085176Y1116406*
X1085278Y1116688*
X1085278D02*
Y1117109D01*
X1085176Y1117391*
X1084972Y1117672*
X1084665Y1117813*
X1084665D02*
X1084256Y1117953D01*
X1084051Y1118094*
X1083949Y1118375*
Y1118656*
X1084051Y1118938*
X1084051D02*
X1084358Y1119078D01*
X1084767*
X1089523Y1081078D02*
Y1078969D01*
X1089420Y1078547*
X1089216Y1078266*
X1088909Y1078125*
X1088705*
X1088398Y1078266*
X1088193Y1078547*
X1088091Y1078969*
Y1081078*
X1087068Y1080375D02*
Y1080516D01*
X1086966Y1080797*
X1086864Y1080938*
X1086864D02*
X1086659Y1081078D01*
X1086250*
X1086045Y1080938*
X1086045D02*
X1085943Y1080797D01*
X1085841Y1080516*
Y1080234*
X1085943Y1079953*
X1086148Y1079531*
X1087170Y1078125*
X1085739*
X1083386Y1081078D02*
X1084409Y1078125D01*
X1084818Y1081078D02*
X1083386D01*
X1089500Y1150642D02*
Y1148533D01*
X1089398Y1148111*
X1089193Y1147830*
X1088886Y1147689*
X1088682*
X1088375Y1147830*
X1088170Y1148111*
X1088068Y1148533*
Y1150642*
X1086636D02*
X1086943Y1150501D01*
X1087045Y1150220*
Y1149939*
X1086943Y1149658*
X1086739Y1149517*
X1086330Y1149376*
X1086023Y1149236*
X1085818Y1148955*
X1085716Y1148673*
Y1148251*
X1085818Y1147970*
X1085920Y1147830*
X1086227Y1147689*
X1086636*
X1086943Y1147830*
X1087045Y1147970*
X1087148Y1148251*
Y1148673*
X1087045Y1148955*
X1086841Y1149236*
X1086534Y1149376*
X1086125Y1149517*
X1085920Y1149658*
X1085818Y1149939*
Y1150220*
X1085920Y1150501*
X1086227Y1150642*
X1086636*
X1084591D02*
X1083466D01*
X1084080Y1149517*
X1083773*
X1083568Y1149376*
X1083466Y1149236*
X1083364Y1148814*
Y1148533*
X1083466Y1148111*
X1083670Y1147830*
X1083977Y1147689*
X1084284*
X1084591Y1147830*
X1084693Y1147970*
X1084795Y1148251*
X1329000Y1223153D02*
Y1221044D01*
X1328898Y1220622*
X1328693Y1220341*
X1328386Y1220200*
X1328182*
X1327875Y1220341*
X1327670Y1220622*
X1327568Y1221044*
Y1223153*
X1326648Y1222591D02*
X1326443Y1222731D01*
X1326136Y1223153*
Y1220200*
X1323886Y1223153D02*
X1324909D01*
X1325011Y1221888*
X1325011D02*
X1324909Y1222028D01*
X1324602Y1222169*
X1324295*
X1323989Y1222028*
X1323784Y1221747*
X1323682Y1221325*
X1323784Y1221044*
X1323886Y1220622*
X1324091Y1220341*
X1324398Y1220200*
X1324705*
X1325011Y1220341*
X1325114Y1220481*
X1325216Y1220763*
X1446153Y1045000D02*
X1444044D01*
X1443622Y1045102*
X1443341Y1045307*
X1443200Y1045614*
Y1045818*
X1443341Y1046125*
X1443622Y1046330*
X1444044Y1046432*
X1446153*
X1445450Y1047455D02*
X1445591D01*
X1445872Y1047557*
X1446013Y1047659*
X1446013D02*
X1446153Y1047864D01*
Y1048273*
X1446013Y1048477*
X1446013D02*
X1445872Y1048580D01*
X1445591Y1048682*
X1445309*
X1445028Y1048580*
X1444606Y1048375*
X1443200Y1047352*
Y1048784*
X1446153Y1050318D02*
X1446013Y1050011D01*
X1446013D02*
X1445591Y1049807D01*
X1444888Y1049705*
X1444888D02*
X1444466D01*
X1443763Y1049807*
X1443763D02*
X1443341Y1050011D01*
X1443200Y1050318*
Y1050523*
X1443341Y1050830*
X1443763Y1051034*
X1443763D02*
X1444466Y1051136D01*
X1444888*
X1444888D02*
X1445591Y1051034D01*
X1446013Y1050830*
X1446013D02*
X1446153Y1050523D01*
Y1050318*
X1465953Y1046900D02*
X1463844D01*
X1463422Y1047002*
X1463141Y1047207*
X1463000Y1047514*
Y1047718*
X1463141Y1048025*
X1463422Y1048230*
X1463844Y1048332*
X1465953*
X1465250Y1049355D02*
X1465391D01*
X1465672Y1049457*
X1465813Y1049559*
X1465813D02*
X1465953Y1049764D01*
Y1050173*
X1465813Y1050377*
X1465813D02*
X1465672Y1050480D01*
X1465391Y1050582*
X1465109*
X1464828Y1050480*
X1464406Y1050275*
X1463000Y1049252*
Y1050684*
X1465391Y1051605D02*
X1465531Y1051809D01*
X1465953Y1052116*
X1463000*
X1446153Y1091900D02*
X1444044D01*
X1443622Y1092002*
X1443341Y1092207*
X1443200Y1092514*
Y1092718*
X1443341Y1093025*
X1443622Y1093230*
X1444044Y1093332*
X1446153*
X1445450Y1094355D02*
X1445591D01*
X1445872Y1094457*
X1446013Y1094559*
X1446013D02*
X1446153Y1094764D01*
Y1095173*
X1446013Y1095377*
X1446013D02*
X1445872Y1095480D01*
X1445591Y1095582*
X1445309*
X1445028Y1095480*
X1444606Y1095275*
X1443200Y1094252*
Y1095684*
X1446153Y1097627D02*
X1444184Y1096605D01*
Y1098139*
X1446153Y1097627D02*
X1443200D01*
X1466253Y1091900D02*
X1464144D01*
X1463722Y1092002*
X1463441Y1092207*
X1463300Y1092514*
Y1092718*
X1463441Y1093025*
X1463722Y1093230*
X1464144Y1093332*
X1466253*
X1465550Y1094355D02*
X1465691D01*
X1465972Y1094457*
X1466113Y1094559*
X1466113D02*
X1466253Y1094764D01*
Y1095173*
X1466113Y1095377*
X1466113D02*
X1465972Y1095480D01*
X1465691Y1095582*
X1465409*
X1465128Y1095480*
X1464706Y1095275*
X1463300Y1094252*
Y1095684*
X1466253Y1097934D02*
Y1096911D01*
X1464988Y1096809*
X1464988D02*
X1465128Y1096911D01*
X1465269Y1097218*
Y1097525*
X1465128Y1097832*
X1464847Y1098036*
X1464425Y1098139*
X1464144Y1098036*
X1463722Y1097934*
X1463441Y1097730*
X1463300Y1097423*
Y1097116*
X1463441Y1096809*
X1463581Y1096707*
X1463863Y1096605*
X1098000Y1216142D02*
Y1214033D01*
X1097898Y1213611*
X1097693Y1213330*
X1097386Y1213189*
X1097182*
X1096875Y1213330*
X1096670Y1213611*
X1096568Y1214033*
Y1216142*
X1095545Y1215439D02*
Y1215580D01*
X1095443Y1215861*
X1095341Y1216001*
X1095136Y1216142*
X1094727*
X1094523Y1216001*
X1094420Y1215861*
X1094318Y1215580*
Y1215298*
X1094420Y1215017*
X1094625Y1214595*
X1095648Y1213189*
X1094216*
X1093091Y1216142D02*
X1091966D01*
X1092580Y1215017*
X1092273*
X1092068Y1214876*
X1091966Y1214736*
X1091864Y1214314*
Y1214033*
X1091966Y1213611*
X1092170Y1213330*
X1092477Y1213189*
X1092784*
X1093091Y1213330*
X1093193Y1213470*
X1093295Y1213751*
X1404261Y1222188D02*
Y1220078D01*
X1404159Y1219656*
X1403955Y1219375*
X1403648Y1219234*
X1403443*
X1403136Y1219375*
X1402932Y1219656*
X1402830Y1220078*
Y1222188*
X1401909Y1221625D02*
X1401705Y1221766D01*
X1401398Y1222188*
X1401398D02*
Y1219234D01*
X1399250Y1221766D02*
X1399352Y1222047D01*
X1399659Y1222188*
X1399659D02*
X1399864D01*
X1399864D02*
X1400170Y1222047D01*
X1400375Y1221625*
X1400477Y1220922*
Y1220219*
X1400375Y1219656*
X1400170Y1219375*
X1399864Y1219234*
X1399761*
X1399455Y1219375*
X1399250Y1219656*
X1399148Y1220078*
Y1220219*
X1399250Y1220641*
X1399455Y1220922*
X1399761Y1221063*
X1399761D02*
X1399864D01*
X1399864D02*
X1400170Y1220922D01*
X1400375Y1220641*
X1400477Y1220219*
X1267023Y1051078D02*
Y1048969D01*
X1266920Y1048547*
X1266716Y1048266*
X1266409Y1048125*
X1266205*
X1265898Y1048266*
X1265693Y1048547*
X1265591Y1048969*
Y1051078*
X1264568Y1050375D02*
Y1050516D01*
X1264466Y1050797*
X1264364Y1050938*
X1264364D02*
X1264159Y1051078D01*
X1263750*
X1263545Y1050938*
X1263545D02*
X1263443Y1050797D01*
X1263341Y1050516*
Y1050234*
X1263443Y1049953*
X1263648Y1049531*
X1264670Y1048125*
X1263239*
X1261807Y1051078D02*
X1262114Y1050938D01*
X1262114D02*
X1262216Y1050656D01*
Y1050375*
X1262114Y1050094*
X1261909Y1049953*
X1261500Y1049813*
X1261500D02*
X1261193Y1049672D01*
X1260989Y1049391*
X1260886Y1049109*
Y1048688*
X1260886D02*
X1260989Y1048406D01*
X1261091Y1048266*
X1261398Y1048125*
X1261807*
X1262114Y1048266*
X1262216Y1048406*
X1262318Y1048688*
X1262318D02*
Y1049109D01*
X1262216Y1049391*
X1262011Y1049672*
X1261705Y1049813*
X1261705D02*
X1261295Y1049953D01*
X1261091Y1050094*
X1260989Y1050375*
Y1050656*
X1261091Y1050938*
X1261091D02*
X1261398Y1051078D01*
X1261807*
X1283500Y1263142D02*
Y1261033D01*
X1283398Y1260611*
X1283193Y1260330*
X1282886Y1260189*
X1282682*
X1282375Y1260330*
X1282170Y1260611*
X1282068Y1261033*
Y1263142*
X1280943D02*
X1279818D01*
X1280432Y1262017*
X1280125*
X1279920Y1261876*
X1279818Y1261736*
X1279716Y1261314*
Y1261033*
X1279818Y1260611*
X1280023Y1260330*
X1280330Y1260189*
X1280636*
X1280943Y1260330*
X1281045Y1260470*
X1281148Y1260751*
X1313000Y1263642D02*
Y1261533D01*
X1312898Y1261111*
X1312693Y1260830*
X1312386Y1260689*
X1312182*
X1311875Y1260830*
X1311670Y1261111*
X1311568Y1261533*
Y1263642*
X1309625D02*
X1310648Y1261673D01*
X1309114*
X1309625Y1263642D02*
Y1260689D01*
X1221000Y1086142D02*
Y1084033D01*
X1220898Y1083611*
X1220693Y1083330*
X1220386Y1083189*
X1220182*
X1219875Y1083330*
X1219670Y1083611*
X1219568Y1084033*
Y1086142*
X1217318D02*
X1218341D01*
X1218443Y1084876*
X1218341Y1085017*
X1218034Y1085158*
X1217727*
X1217420Y1085017*
X1217216Y1084736*
X1217114Y1084314*
X1217216Y1084033*
X1217318Y1083611*
X1217523Y1083330*
X1217830Y1083189*
X1218136*
X1218443Y1083330*
X1218545Y1083470*
X1218648Y1083751*
X1244000Y1049142D02*
Y1047033D01*
X1243898Y1046611*
X1243693Y1046330*
X1243386Y1046189*
X1243182*
X1242875Y1046330*
X1242670Y1046611*
X1242568Y1047033*
Y1049142*
X1240216D02*
X1241239Y1046189D01*
X1241648Y1049142D02*
X1240216D01*
X1108347Y1074078D02*
Y1071969D01*
X1108244Y1071547*
X1108040Y1071266*
X1107733Y1071125*
X1107528*
X1107222Y1071266*
X1107017Y1071547*
X1106915Y1071969*
Y1074078*
X1105483D02*
X1105790Y1073938D01*
X1105790D02*
X1105892Y1073656D01*
Y1073375*
X1105790Y1073094*
X1105585Y1072953*
X1105176Y1072813*
X1105176D02*
X1104869Y1072672D01*
X1104665Y1072391*
X1104562Y1072109*
Y1071688*
X1104562D02*
X1104665Y1071406D01*
X1104767Y1071266*
X1105074Y1071125*
X1105483*
X1105790Y1071266*
X1105892Y1071406*
X1105994Y1071688*
X1105994D02*
Y1072109D01*
X1105892Y1072391*
X1105687Y1072672*
X1105381Y1072813*
X1105381D02*
X1104972Y1072953D01*
X1104767Y1073094*
X1104665Y1073375*
Y1073656*
X1104767Y1073938*
X1104767D02*
X1105074Y1074078D01*
X1105483*
X1388489Y1112078D02*
X1387670Y1110672D01*
Y1109125*
X1386852Y1112078D02*
X1387670Y1110672D01*
X1385932Y1111516D02*
X1385727Y1111656D01*
X1385420Y1112078*
Y1109125*
X1138000Y1289642D02*
Y1287533D01*
X1137898Y1287111*
X1137693Y1286830*
X1137386Y1286689*
X1137182*
X1136875Y1286830*
X1136670Y1287111*
X1136568Y1287533*
Y1289642*
X1135648Y1289080D02*
X1135443Y1289220D01*
X1135136Y1289642*
Y1286689*
X1133193Y1289642D02*
X1134216Y1287673D01*
X1132682*
X1133193Y1289642D02*
Y1286689D01*
X1284353Y1045600D02*
X1281400D01*
X1284353D02*
Y1046520D01*
X1284213Y1046827*
X1284213D02*
X1284072Y1046930D01*
X1283791Y1047032*
X1283509*
X1283228Y1046930*
X1283088Y1046827*
X1283088D02*
X1282947Y1046520D01*
Y1045600*
Y1046316D02*
X1281400Y1047032D01*
X1283791Y1047952D02*
X1283931Y1048157D01*
X1284353Y1048464*
X1281400*
X1284353Y1049589D02*
Y1050714D01*
X1283228Y1050100*
Y1050407*
X1283088Y1050611*
X1283088D02*
X1282947Y1050714D01*
X1282525Y1050816*
X1282244*
X1281822Y1050714*
X1281541Y1050509*
X1281400Y1050202*
Y1049895*
X1281541Y1049589*
X1281681Y1049486*
X1281963Y1049384*
X1283931Y1052964D02*
X1284213Y1052861D01*
X1284213D02*
X1284353Y1052555D01*
Y1052350*
X1284213Y1052043*
X1284213D02*
X1283791Y1051839D01*
X1283088Y1051736*
X1283088D02*
X1282384D01*
X1281822Y1051839*
X1281541Y1052043*
X1281400Y1052350*
Y1052452*
X1281541Y1052759*
X1281822Y1052964*
X1282244Y1053066*
X1282384*
X1282806Y1052964*
X1283088Y1052759*
X1283088D02*
X1283228Y1052452D01*
Y1052350*
X1283088Y1052043*
X1283088D02*
X1282806Y1051839D01*
X1282384Y1051736*
X1369400Y1092753D02*
Y1089800D01*
Y1092753D02*
X1368480D01*
X1368173Y1092613*
X1368173D02*
X1368070Y1092472D01*
X1367968Y1092191*
Y1091909*
X1368070Y1091628*
X1368173Y1091488*
X1368173D02*
X1368480Y1091347D01*
X1369400*
X1368684D02*
X1367968Y1089800D01*
X1367048Y1092191D02*
X1366843Y1092331D01*
X1366536Y1092753*
Y1089800*
X1364286Y1092753D02*
X1365309D01*
X1365411Y1091488*
X1365411D02*
X1365309Y1091628D01*
X1365002Y1091769*
X1364695*
X1364389Y1091628*
X1364184Y1091347*
X1364082Y1090925*
X1364184Y1090644*
X1364286Y1090222*
X1364491Y1089941*
X1364798Y1089800*
X1365105*
X1365411Y1089941*
X1365514Y1090081*
X1365616Y1090363*
X1363161Y1092191D02*
X1362957Y1092331D01*
X1362650Y1092753*
Y1089800*
X1370000Y1088353D02*
Y1085400D01*
Y1088353D02*
X1369080D01*
X1368773Y1088213*
X1368670Y1088072*
X1368568Y1087791*
Y1087509*
X1368670Y1087228*
X1368773Y1087088*
X1369080Y1086947*
X1370000*
X1369284D02*
X1368568Y1085400D01*
X1367648Y1087791D02*
X1367443Y1087931D01*
X1367136Y1088353*
Y1085400*
X1364886Y1088353D02*
X1365909D01*
X1366011Y1087088*
X1365909Y1087228*
X1365602Y1087369*
X1365295*
X1364989Y1087228*
X1364784Y1086947*
X1364682Y1086525*
X1364784Y1086244*
X1364886Y1085822*
X1365091Y1085541*
X1365398Y1085400*
X1365705*
X1366011Y1085541*
X1366114Y1085681*
X1366216Y1085963*
X1363659Y1087650D02*
Y1087791D01*
X1363557Y1088072*
X1363455Y1088213*
X1363250Y1088353*
X1362841*
X1362636Y1088213*
X1362534Y1088072*
X1362432Y1087791*
Y1087509*
X1362534Y1087228*
X1362739Y1086806*
X1363761Y1085400*
X1362330*
X1365375Y1171794D02*
Y1168841D01*
Y1171794D02*
X1364455D01*
X1364148Y1171653*
X1364045Y1171513*
X1363943Y1171232*
Y1170950*
X1364045Y1170669*
X1364148Y1170528*
X1364455Y1170388*
X1365375*
X1364659D02*
X1363943Y1168841D01*
X1363023Y1171232D02*
X1362818Y1171372D01*
X1362511Y1171794*
Y1168841*
X1360261Y1171794D02*
X1361284D01*
X1361386Y1170528*
X1361284Y1170669*
X1360977Y1170810*
X1360670*
X1360364Y1170669*
X1360159Y1170388*
X1360057Y1169966*
X1360159Y1169685*
X1360261Y1169263*
X1360466Y1168982*
X1360773Y1168841*
X1361080*
X1361386Y1168982*
X1361489Y1169122*
X1361591Y1169403*
X1358114Y1171794D02*
X1359136Y1169825D01*
X1357602*
X1358114Y1171794D02*
Y1168841D01*
X1364739Y1177078D02*
Y1174125D01*
Y1177078D02*
X1363818D01*
X1363511Y1176938*
X1363511D02*
X1363409Y1176797D01*
X1363307Y1176516*
Y1176234*
X1363409Y1175953*
X1363511Y1175813*
X1363511D02*
X1363818Y1175672D01*
X1364739*
X1364023D02*
X1363307Y1174125D01*
X1362386Y1176516D02*
X1362182Y1176656D01*
X1361875Y1177078*
Y1174125*
X1359625Y1177078D02*
X1360648D01*
X1360750Y1175813*
X1360750D02*
X1360648Y1175953D01*
X1360341Y1176094*
X1360034*
X1359727Y1175953*
X1359523Y1175672*
X1359420Y1175250*
X1359523Y1174969*
X1359625Y1174547*
X1359830Y1174266*
X1360136Y1174125*
X1360443*
X1360750Y1174266*
X1360852Y1174406*
X1360955Y1174688*
X1357273Y1176656D02*
X1357375Y1176938D01*
X1357375D02*
X1357682Y1177078D01*
X1357886*
X1358193Y1176938*
X1358193D02*
X1358398Y1176516D01*
X1358500Y1175813*
X1358500D02*
Y1175109D01*
X1358398Y1174547*
X1358193Y1174266*
X1357886Y1174125*
X1357784*
X1357477Y1174266*
X1357273Y1174547*
X1357170Y1174969*
Y1175109*
X1357273Y1175531*
X1357477Y1175813*
X1357477D02*
X1357784Y1175953D01*
X1357886*
X1358193Y1175813*
X1358193D02*
X1358398Y1175531D01*
X1358500Y1175109*
X1413256Y1416181D02*
X1413358Y1416462D01*
X1413563Y1416744*
X1413563D02*
X1413767Y1416884D01*
X1414176*
X1414381Y1416744*
X1414585Y1416462*
X1414688Y1416181*
X1414688D02*
X1414790Y1415759D01*
Y1415056*
X1414688Y1414634*
X1414688D02*
X1414585Y1414353D01*
X1414381Y1414072*
X1414176Y1413931*
X1413767*
X1413563Y1414072*
X1413563D02*
X1413358Y1414353D01*
X1413256Y1414634*
X1412131Y1416884D02*
X1411006D01*
X1411619Y1415759*
X1411313*
X1411313D02*
X1411108Y1415619D01*
X1411006Y1415478*
X1410903Y1415056*
Y1414775*
X1411006Y1414353*
X1411210Y1414072*
X1411517Y1413931*
X1411824*
X1412131Y1414072*
X1412233Y1414212*
X1412335Y1414494*
X1409881Y1416181D02*
Y1416322D01*
X1409778Y1416603*
X1409676Y1416744*
X1409472Y1416884*
X1409063*
X1409063D02*
X1408858Y1416744D01*
X1408756Y1416603*
X1408653Y1416322*
Y1416041*
X1408756Y1415759*
X1408960Y1415337*
X1409983Y1413931*
X1408551*
X1407631Y1416322D02*
X1407426Y1416462D01*
X1407119Y1416884*
Y1413931*
X1395216Y1416181D02*
X1395318Y1416462D01*
X1395523Y1416744*
X1395727Y1416884*
X1396136*
X1396341Y1416744*
X1396545Y1416462*
X1396648Y1416181*
X1396750Y1415759*
Y1415056*
X1396648Y1414634*
X1396545Y1414353*
X1396341Y1414072*
X1396136Y1413931*
X1395727*
X1395523Y1414072*
X1395318Y1414353*
X1395216Y1414634*
X1394091Y1416884D02*
X1392966D01*
X1393580Y1415759*
X1393273*
X1393068Y1415619*
X1392966Y1415478*
X1392864Y1415056*
Y1414775*
X1392966Y1414353*
X1393170Y1414072*
X1393477Y1413931*
X1393784*
X1394091Y1414072*
X1394193Y1414212*
X1394295Y1414494*
X1391841Y1416181D02*
Y1416322D01*
X1391739Y1416603*
X1391636Y1416744*
X1391432Y1416884*
X1391023*
X1390818Y1416744*
X1390716Y1416603*
X1390614Y1416322*
Y1416041*
X1390716Y1415759*
X1390920Y1415337*
X1391943Y1413931*
X1390511*
X1389489Y1416181D02*
Y1416322D01*
X1389386Y1416603*
X1389284Y1416744*
X1389080Y1416884*
X1388670*
X1388466Y1416744*
X1388364Y1416603*
X1388261Y1416322*
Y1416041*
X1388364Y1415759*
X1388568Y1415337*
X1389591Y1413931*
X1388159*
X1331078Y1249426D02*
X1328125D01*
X1331078D02*
Y1250347D01*
X1330938Y1250653*
X1330797Y1250756*
X1330516Y1250858*
X1330234*
X1329953Y1250756*
X1329813Y1250653*
X1329672Y1250347*
Y1249426*
Y1250142D02*
X1328125Y1250858D01*
X1331078Y1253210D02*
X1328125Y1252188D01*
X1331078Y1251778D02*
Y1253210D01*
Y1255153D02*
X1329109Y1254131D01*
Y1255665*
X1331078Y1255153D02*
X1328125D01*
X1324578Y1249426D02*
X1321625D01*
X1324578D02*
Y1250347D01*
X1324438Y1250653*
X1324297Y1250756*
X1324016Y1250858*
X1323734*
X1323453Y1250756*
X1323313Y1250653*
X1323172Y1250347*
Y1249426*
Y1250142D02*
X1321625Y1250858D01*
X1324578Y1253210D02*
X1321625Y1252188D01*
X1324578Y1251778D02*
Y1253210D01*
Y1255460D02*
Y1254438D01*
X1324578D02*
X1323313Y1254335D01*
X1323453Y1254438*
X1323453D02*
X1323594Y1254744D01*
Y1255051*
X1323453Y1255358*
X1323172Y1255563*
X1323172D02*
X1322750Y1255665D01*
X1322469Y1255563*
X1322469D02*
X1322047Y1255460D01*
X1321766Y1255256*
X1321625Y1254949*
Y1254642*
X1321766Y1254335*
X1321906Y1254233*
X1322188Y1254131*
X1324546Y1150224D02*
Y1147271D01*
Y1150224D02*
X1323625D01*
X1323319Y1150083*
X1323216Y1149943*
X1323114Y1149661*
Y1149380*
X1323216Y1149099*
X1323319Y1148958*
X1323625Y1148818*
X1324546*
X1323830D02*
X1323114Y1147271D01*
X1320864Y1149239D02*
X1320966Y1148818D01*
X1321171Y1148536*
X1321478Y1148396*
X1321580*
X1321887Y1148536*
X1322091Y1148818*
X1322194Y1149239*
Y1149380*
X1322091Y1149802*
X1321887Y1150083*
X1321580Y1150224*
X1321478*
X1321171Y1150083*
X1320966Y1149802*
X1320864Y1149239*
Y1148536*
X1320966Y1147833*
X1321171Y1147411*
X1321478Y1147271*
X1321682*
X1321989Y1147411*
X1322091Y1147693*
X1319944Y1149661D02*
X1319739Y1149802D01*
X1319432Y1150224*
Y1147271*
X1325000Y1155642D02*
Y1152689D01*
Y1155642D02*
X1324080D01*
X1323773Y1155501*
X1323670Y1155361*
X1323568Y1155080*
Y1154798*
X1323670Y1154517*
X1323773Y1154376*
X1324080Y1154236*
X1325000*
X1324284D02*
X1323568Y1152689D01*
X1321318Y1154658D02*
X1321420Y1154236D01*
X1321625Y1153955*
X1321932Y1153814*
X1322034*
X1322341Y1153955*
X1322545Y1154236*
X1322648Y1154658*
Y1154798*
X1322545Y1155220*
X1322341Y1155501*
X1322034Y1155642*
X1321932*
X1321625Y1155501*
X1321420Y1155220*
X1321318Y1154658*
Y1153955*
X1321420Y1153251*
X1321625Y1152830*
X1321932Y1152689*
X1322136*
X1322443Y1152830*
X1322545Y1153111*
X1320295Y1154939D02*
Y1155080D01*
X1320193Y1155361*
X1320091Y1155501*
X1319886Y1155642*
X1319477*
X1319273Y1155501*
X1319170Y1155361*
X1319068Y1155080*
Y1154798*
X1319170Y1154517*
X1319375Y1154095*
X1320398Y1152689*
X1318966*
X1327562Y1299508D02*
Y1297398D01*
X1327562D02*
X1327460Y1296977D01*
X1327256Y1296695*
X1326949Y1296555*
X1326744*
X1326437Y1296695*
X1326437D02*
X1326233Y1296977D01*
X1326131Y1297398*
Y1299508*
X1325006D02*
X1323881D01*
X1324494Y1298383*
X1324187*
X1324187D02*
X1323983Y1298242D01*
X1323881Y1298102*
X1323778Y1297680*
Y1297398*
X1323881Y1296977*
X1324085Y1296695*
X1324392Y1296555*
X1324699*
X1325006Y1296695*
X1325108Y1296836*
X1325210Y1297117*
X1322858Y1298945D02*
X1322653Y1299086D01*
X1322347Y1299508*
Y1296555*
X1108023Y1141634D02*
Y1138681D01*
Y1141634D02*
X1107102D01*
X1106795Y1141494*
X1106693Y1141353*
X1106591Y1141072*
Y1140791*
X1106693Y1140509*
X1106795Y1140369*
X1107102Y1140228*
X1108023*
X1107307D02*
X1106591Y1138681D01*
X1105159Y1141634D02*
X1105466Y1141494D01*
X1105568Y1141212*
Y1140931*
X1105466Y1140650*
X1105261Y1140509*
X1104852Y1140369*
X1104545Y1140228*
X1104341Y1139947*
X1104239Y1139666*
Y1139244*
X1104341Y1138962*
X1104443Y1138822*
X1104750Y1138681*
X1105159*
X1105466Y1138822*
X1105568Y1138962*
X1105670Y1139244*
Y1139666*
X1105568Y1139947*
X1105364Y1140228*
X1105057Y1140369*
X1104648Y1140509*
X1104443Y1140650*
X1104341Y1140931*
Y1141212*
X1104443Y1141494*
X1104750Y1141634*
X1105159*
X1101886D02*
X1102909Y1138681D01*
X1103318Y1141634D02*
X1101886D01*
X1135500Y1100953D02*
Y1098844D01*
X1135398Y1098422*
X1135193Y1098141*
X1134886Y1098000*
X1134682*
X1134375Y1098141*
X1134170Y1098422*
X1134068Y1098844*
Y1100953*
X1133045Y1100250D02*
Y1100391D01*
X1132943Y1100672*
X1132841Y1100813*
X1132841D02*
X1132636Y1100953D01*
X1132227*
X1132023Y1100813*
X1132023D02*
X1131920Y1100672D01*
X1131818Y1100391*
Y1100109*
X1131920Y1099828*
X1132125Y1099406*
X1133148Y1098000*
X1131716*
X1130693Y1100250D02*
Y1100391D01*
X1130591Y1100672*
X1130489Y1100813*
X1130489D02*
X1130284Y1100953D01*
X1129875*
X1129670Y1100813*
X1129670D02*
X1129568Y1100672D01*
X1129466Y1100391*
Y1100109*
X1129568Y1099828*
X1129773Y1099406*
X1130795Y1098000*
X1129364*
X1039000Y1249142D02*
Y1247033D01*
X1038898Y1246611*
X1038693Y1246330*
X1038386Y1246189*
X1038182*
X1037875Y1246330*
X1037670Y1246611*
X1037568Y1247033*
Y1249142*
X1036443D02*
X1035318D01*
X1035932Y1248017*
X1035625*
X1035420Y1247876*
X1035318Y1247736*
X1035216Y1247314*
Y1247033*
X1035318Y1246611*
X1035523Y1246330*
X1035830Y1246189*
X1036136*
X1036443Y1246330*
X1036545Y1246470*
X1036648Y1246751*
X1033682Y1249142D02*
X1033989Y1249001D01*
X1034193Y1248580*
X1034295Y1247876*
Y1247455*
X1034193Y1246751*
X1033989Y1246330*
X1033682Y1246189*
X1033477*
X1033170Y1246330*
X1032966Y1246751*
X1032864Y1247455*
Y1247876*
X1032966Y1248580*
X1033170Y1249001*
X1033477Y1249142*
X1033682*
X1102000Y1111453D02*
Y1109344D01*
X1101898Y1108922*
X1101693Y1108641*
X1101386Y1108500*
X1101182*
X1100875Y1108641*
X1100670Y1108922*
X1100568Y1109344*
Y1111453*
X1099545Y1110750D02*
Y1110891D01*
X1099443Y1111172*
X1099341Y1111313*
X1099341D02*
X1099136Y1111453D01*
X1098727*
X1098523Y1111313*
X1098523D02*
X1098420Y1111172D01*
X1098318Y1110891*
Y1110609*
X1098420Y1110328*
X1098625Y1109906*
X1099648Y1108500*
X1098216*
X1095966Y1110469D02*
X1096068Y1110047D01*
X1096273Y1109766*
X1096580Y1109625*
X1096682*
X1096989Y1109766*
X1097193Y1110047*
X1097295Y1110469*
Y1110609*
X1097193Y1111031*
X1096989Y1111313*
X1096989D02*
X1096682Y1111453D01*
X1096580*
X1096273Y1111313*
X1096273D02*
X1096068Y1111031D01*
X1095966Y1110469*
Y1109766*
X1096068Y1109063*
X1096068D02*
X1096273Y1108641D01*
X1096580Y1108500*
X1096784*
X1097091Y1108641*
X1097193Y1108922*
X1398273Y1111659D02*
X1398554Y1111557D01*
X1398835Y1111352*
X1398976Y1111148*
Y1110739*
X1398835Y1110534*
X1398554Y1110330*
X1398273Y1110227*
X1397851Y1110125*
X1397148*
X1396726Y1110227*
X1396445Y1110330*
X1396163Y1110534*
X1396023Y1110739*
Y1111148*
X1396163Y1111352*
X1396445Y1111557*
X1396726Y1111659*
X1398273Y1112682D02*
X1398413D01*
X1398695Y1112784*
X1398835Y1112886*
X1398976Y1113091*
Y1113500*
X1398835Y1113705*
X1398695Y1113807*
X1398413Y1113909*
X1398132*
X1397851Y1113807*
X1397429Y1113602*
X1396023Y1112580*
Y1114011*
X1398554Y1116159D02*
X1398835Y1116057D01*
X1398976Y1115750*
Y1115545*
X1398835Y1115239*
X1398413Y1115034*
X1397710Y1114932*
X1397007*
X1396445Y1115034*
X1396163Y1115239*
X1396023Y1115545*
Y1115648*
X1396163Y1115955*
X1396445Y1116159*
X1396866Y1116261*
X1397007*
X1397429Y1116159*
X1397710Y1115955*
X1397851Y1115648*
Y1115545*
X1397710Y1115239*
X1397429Y1115034*
X1397007Y1114932*
X1047568Y1216578D02*
Y1214328D01*
X1047670Y1213906*
X1047773Y1213766*
X1047977Y1213625*
X1048182*
X1048386Y1213766*
X1048489Y1213906*
X1048591Y1214328*
Y1214609*
X1045420Y1216156D02*
X1045523Y1216438D01*
X1045523D02*
X1045830Y1216578D01*
X1046034*
X1046341Y1216438*
X1046341D02*
X1046545Y1216016D01*
X1046648Y1215313*
X1046648D02*
Y1214609D01*
X1046545Y1214047*
X1046341Y1213766*
X1046034Y1213625*
X1045932*
X1045625Y1213766*
X1045420Y1214047*
X1045318Y1214469*
Y1214609*
X1045420Y1215031*
X1045625Y1215313*
X1045625D02*
X1045932Y1215453D01*
X1046034*
X1046341Y1215313*
X1046341D02*
X1046545Y1215031D01*
X1046648Y1214609*
X1459500Y1190953D02*
Y1188844D01*
X1459398Y1188422*
X1459193Y1188141*
X1458886Y1188000*
X1458682*
X1458375Y1188141*
X1458170Y1188422*
X1458068Y1188844*
Y1190953*
X1455818Y1189969D02*
X1455920Y1189547D01*
X1456125Y1189266*
X1456432Y1189125*
X1456534*
X1456841Y1189266*
X1457045Y1189547*
X1457148Y1189969*
Y1190109*
X1457045Y1190531*
X1456841Y1190812*
X1456841D02*
X1456534Y1190953D01*
X1456432*
X1456125Y1190812*
X1456125D02*
X1455920Y1190531D01*
X1455818Y1189969*
Y1189266*
X1455920Y1188562*
X1455920D02*
X1456125Y1188141D01*
X1456432Y1188000*
X1456636*
X1456943Y1188141*
X1457045Y1188422*
X1471388Y1189248D02*
X1471669Y1189145D01*
X1471950Y1188941*
X1472091Y1188736*
Y1188327*
X1471950Y1188123*
X1471669Y1187918*
X1471388Y1187816*
X1471388D02*
X1470966Y1187714D01*
X1470263*
X1470263D02*
X1469841Y1187816D01*
X1469559Y1187918*
X1469278Y1188123*
X1469138Y1188327*
X1469138D02*
Y1188736D01*
X1469138D02*
X1469278Y1188941D01*
X1469559Y1189145*
X1469841Y1189248*
X1471528Y1190168D02*
X1471669Y1190373D01*
X1472091Y1190680*
X1469138*
X1471388Y1191702D02*
X1471528D01*
X1471809Y1191805*
X1471950Y1191907*
X1472091Y1192111*
Y1192520*
X1471950Y1192725*
X1471809Y1192827*
X1471528Y1192930*
X1471247*
X1470966Y1192827*
X1470544Y1192623*
X1469138Y1191600*
X1469138D02*
Y1193032D01*
X1472091Y1194157D02*
Y1195282D01*
X1470966Y1194668*
Y1194975*
X1470825Y1195180*
X1470684Y1195282*
X1470263Y1195384*
X1470263D02*
X1469981D01*
X1469559Y1195282*
X1469278Y1195077*
X1469138Y1194770*
X1469138D02*
Y1194464D01*
X1469138D02*
X1469278Y1194157D01*
X1469419Y1194055*
X1469700Y1193952*
X1476974Y1149129D02*
X1477256Y1149026D01*
X1477537Y1148822*
X1477678Y1148617*
Y1148208*
X1477537Y1148004*
X1477256Y1147799*
X1476974Y1147697*
X1476553Y1147594*
X1475849*
X1475428Y1147697*
X1475146Y1147799*
X1474865Y1148004*
X1474724Y1148208*
Y1148617*
X1474865Y1148822*
X1475146Y1149026*
X1475428Y1149129*
X1477115Y1150049D02*
X1477256Y1150254D01*
X1477678Y1150560*
X1474724*
X1476974Y1151583D02*
X1477115D01*
X1477396Y1151685*
X1477537Y1151788*
X1477678Y1151992*
Y1152401*
X1477537Y1152606*
X1477396Y1152708*
X1477115Y1152810*
X1476834*
X1476553Y1152708*
X1476131Y1152504*
X1474724Y1151481*
Y1152913*
X1477678Y1154856D02*
X1475709Y1153833D01*
Y1155367*
X1477678Y1154856D02*
X1474724D01*
X1363739Y1151078D02*
Y1148125D01*
Y1151078D02*
X1362818D01*
X1362511Y1150938*
X1362511D02*
X1362409Y1150797D01*
X1362307Y1150516*
Y1150234*
X1362409Y1149953*
X1362511Y1149813*
X1362511D02*
X1362818Y1149672D01*
X1363739*
X1363023D02*
X1362307Y1148125D01*
X1361386Y1150516D02*
X1361182Y1150656D01*
X1360875Y1151078*
Y1148125*
X1358523Y1151078D02*
X1359545Y1148125D01*
X1359955Y1151078D02*
X1358523D01*
X1356170D02*
X1357193Y1148125D01*
X1357602Y1151078D02*
X1356170D01*
X1363239Y1142578D02*
Y1139625D01*
Y1142578D02*
X1362318D01*
X1362011Y1142438*
X1362011D02*
X1361909Y1142297D01*
X1361807Y1142016*
Y1141734*
X1361909Y1141453*
X1362011Y1141313*
X1362011D02*
X1362318Y1141172D01*
X1363239*
X1362523D02*
X1361807Y1139625D01*
X1360886Y1142016D02*
X1360682Y1142156D01*
X1360375Y1142578*
Y1139625*
X1358023Y1142578D02*
X1359045Y1139625D01*
X1359455Y1142578D02*
X1358023D01*
X1356591D02*
X1356898Y1142438D01*
X1356898D02*
X1357000Y1142156D01*
Y1141875*
X1356898Y1141594*
X1356693Y1141453*
X1356284Y1141313*
X1356284D02*
X1355977Y1141172D01*
X1355773Y1140891*
X1355670Y1140609*
Y1140188*
X1355670D02*
X1355773Y1139906D01*
X1355875Y1139766*
X1356182Y1139625*
X1356591*
X1356898Y1139766*
X1357000Y1139906*
X1357102Y1140188*
X1357102D02*
Y1140609D01*
X1357000Y1140891*
X1356795Y1141172*
X1356489Y1141313*
X1356489D02*
X1356080Y1141453D01*
X1355875Y1141594*
X1355773Y1141875*
Y1142156*
X1355875Y1142438*
X1355875D02*
X1356182Y1142578D01*
X1356591*
X1244734Y1183680D02*
Y1180727D01*
Y1183680D02*
X1243814D01*
X1243507Y1183540*
X1243405Y1183399*
X1243303Y1183118*
Y1182837*
X1243405Y1182555*
X1243507Y1182415*
X1243814Y1182274*
X1244734*
X1244018D02*
X1243303Y1180727D01*
X1241053Y1182696D02*
X1241155Y1182274D01*
X1241359Y1181993*
X1241666Y1181852*
X1241768*
X1242075Y1181993*
X1242280Y1182274*
X1242382Y1182696*
Y1182837*
X1242280Y1183259*
X1242075Y1183540*
X1241768Y1183680*
X1241666*
X1241359Y1183540*
X1241155Y1183259*
X1241053Y1182696*
Y1181993*
X1241155Y1181290*
X1241359Y1180868*
X1241666Y1180727*
X1241871*
X1242178Y1180868*
X1242280Y1181149*
X1239109Y1183680D02*
X1240132Y1181712D01*
X1238598*
X1239109Y1183680D02*
Y1180727D01*
X1019453Y1233000D02*
X1016500D01*
X1019453D02*
Y1233920D01*
X1019313Y1234227*
X1019313D02*
X1019172Y1234330D01*
X1018891Y1234432*
X1018609*
X1018328Y1234330*
X1018188Y1234227*
X1018188D02*
X1018047Y1233920D01*
Y1233000*
Y1233716D02*
X1016500Y1234432D01*
X1018891Y1235352D02*
X1019031Y1235557D01*
X1019453Y1235864*
X1016500*
X1019453Y1236989D02*
Y1238114D01*
X1018328Y1237500*
Y1237807*
X1018188Y1238011*
X1018188D02*
X1018047Y1238114D01*
X1017625Y1238216*
X1017344*
X1016922Y1238114*
X1016641Y1237909*
X1016500Y1237602*
Y1237295*
X1016641Y1236989*
X1016781Y1236886*
X1017063Y1236784*
X1019453Y1239341D02*
Y1240466D01*
X1018328Y1239852*
Y1240159*
X1018188Y1240364*
X1018188D02*
X1018047Y1240466D01*
X1017625Y1240568*
X1017344*
X1016922Y1240466*
X1016641Y1240261*
X1016500Y1239955*
Y1239648*
X1016641Y1239341*
X1016781Y1239239*
X1017063Y1239136*
X1102353Y1061200D02*
X1099400D01*
X1102353D02*
Y1062120D01*
X1102212Y1062427*
X1102212D02*
X1102072Y1062530D01*
X1101791Y1062632*
X1101509*
X1101228Y1062530*
X1101087Y1062427*
X1101087D02*
X1100947Y1062120D01*
Y1061200*
Y1061916D02*
X1099400Y1062632D01*
X1101791Y1063552D02*
X1101931Y1063757D01*
X1102353Y1064064*
X1099400*
X1102353Y1065189D02*
Y1066314D01*
X1101228Y1065700*
Y1066007*
X1101087Y1066211*
X1101087D02*
X1100947Y1066314D01*
X1100525Y1066416*
X1100244*
X1099822Y1066314*
X1099541Y1066109*
X1099400Y1065802*
Y1065495*
X1099541Y1065189*
X1099681Y1065086*
X1099962Y1064984*
X1102353Y1068768D02*
X1099400Y1067745D01*
X1102353Y1067336D02*
Y1068768D01*
X1270453Y1222689D02*
X1267500D01*
X1270453D02*
Y1223609D01*
X1270313Y1223916*
X1270313D02*
X1270172Y1224019D01*
X1269891Y1224121*
X1269609*
X1269328Y1224019*
X1269188Y1223916*
X1269188D02*
X1269047Y1223609D01*
Y1222689*
Y1223405D02*
X1267500Y1224121D01*
X1269891Y1225041D02*
X1270031Y1225246D01*
X1270453Y1225553*
X1267500*
X1270031Y1227700D02*
X1270313Y1227598D01*
X1270313D02*
X1270453Y1227291D01*
Y1227087*
X1270313Y1226780*
X1270313D02*
X1269891Y1226575D01*
X1269188Y1226473*
X1269188D02*
X1268484D01*
X1267922Y1226575*
X1267641Y1226780*
X1267500Y1227087*
Y1227189*
X1267641Y1227496*
X1267922Y1227700*
X1268344Y1227803*
X1268484*
X1268906Y1227700*
X1269188Y1227496*
X1269188D02*
X1269328Y1227189D01*
Y1227087*
X1269188Y1226780*
X1269188D02*
X1268906Y1226575D01*
X1268484Y1226473*
X1265953Y1234189D02*
X1263000D01*
X1265953D02*
Y1235109D01*
X1265812Y1235416*
X1265812D02*
X1265672Y1235519D01*
X1265391Y1235621*
X1265109*
X1264828Y1235519*
X1264687Y1235416*
X1264687D02*
X1264547Y1235109D01*
Y1234189*
Y1234905D02*
X1263000Y1235621D01*
X1265391Y1236541D02*
X1265531Y1236746D01*
X1265953Y1237053*
X1263000*
X1265953Y1239405D02*
X1263000Y1238382D01*
X1265953Y1237973D02*
Y1239405D01*
X1394290Y1157578D02*
Y1154625D01*
Y1157578D02*
X1393369D01*
X1393062Y1157438*
X1393062D02*
X1392960Y1157297D01*
X1392858Y1157016*
Y1156734*
X1392960Y1156453*
X1393062Y1156313*
X1393062D02*
X1393369Y1156172D01*
X1394290*
X1393574D02*
X1392858Y1154625D01*
X1391937Y1157016D02*
X1391733Y1157156D01*
X1391426Y1157578*
Y1154625*
X1389994Y1157578D02*
X1390301Y1157438D01*
X1390301D02*
X1390403Y1157156D01*
Y1156875*
X1390301Y1156594*
X1390097Y1156453*
X1389687Y1156313*
X1389687D02*
X1389381Y1156172D01*
X1389176Y1155891*
X1389074Y1155609*
Y1155188*
X1389074D02*
X1389176Y1154906D01*
X1389278Y1154766*
X1389585Y1154625*
X1389994*
X1390301Y1154766*
X1390403Y1154906*
X1390506Y1155188*
X1390506D02*
Y1155609D01*
X1390403Y1155891*
X1390199Y1156172*
X1389892Y1156313*
X1389892D02*
X1389483Y1156453D01*
X1389278Y1156594*
X1389176Y1156875*
Y1157156*
X1389278Y1157438*
X1389278D02*
X1389585Y1157578D01*
X1389994*
X1387131D02*
X1388153Y1155609D01*
X1386619*
X1387131Y1157578D02*
Y1154625D01*
X1394790Y1163578D02*
Y1160625D01*
Y1163578D02*
X1393869D01*
X1393562Y1163438*
X1393562D02*
X1393460Y1163297D01*
X1393358Y1163016*
Y1162734*
X1393460Y1162453*
X1393562Y1162313*
X1393562D02*
X1393869Y1162172D01*
X1394790*
X1394074D02*
X1393358Y1160625D01*
X1392437Y1163016D02*
X1392233Y1163156D01*
X1391926Y1163578*
Y1160625*
X1390494Y1163578D02*
X1390801Y1163438D01*
X1390801D02*
X1390903Y1163156D01*
Y1162875*
X1390801Y1162594*
X1390597Y1162453*
X1390187Y1162313*
X1390187D02*
X1389881Y1162172D01*
X1389676Y1161891*
X1389574Y1161609*
Y1161188*
X1389574D02*
X1389676Y1160906D01*
X1389778Y1160766*
X1390085Y1160625*
X1390494*
X1390801Y1160766*
X1390903Y1160906*
X1391006Y1161188*
X1391006D02*
Y1161609D01*
X1390903Y1161891*
X1390699Y1162172*
X1390392Y1162313*
X1390392D02*
X1389983Y1162453D01*
X1389778Y1162594*
X1389676Y1162875*
Y1163156*
X1389778Y1163438*
X1389778D02*
X1390085Y1163578D01*
X1390494*
X1387324D02*
X1388347D01*
X1388449Y1162313*
X1388449D02*
X1388347Y1162453D01*
X1388040Y1162594*
X1387733*
X1387426Y1162453*
X1387222Y1162172*
X1387119Y1161750*
X1387222Y1161469*
X1387324Y1161047*
X1387528Y1160766*
X1387835Y1160625*
X1388142*
X1388449Y1160766*
X1388551Y1160906*
X1388653Y1161188*
X1259953Y1297189D02*
X1257000D01*
X1259953D02*
Y1298109D01*
X1259813Y1298416*
X1259672Y1298519*
X1259391Y1298621*
X1259109*
X1258828Y1298519*
X1258688Y1298416*
X1258547Y1298109*
Y1297189*
Y1297905D02*
X1257000Y1298621D01*
X1259250Y1299644D02*
X1259391D01*
X1259672Y1299746*
X1259813Y1299848*
X1259953Y1300053*
Y1300462*
X1259813Y1300666*
X1259672Y1300769*
X1259391Y1300871*
X1259109*
X1258828Y1300769*
X1258406Y1300564*
X1257000Y1299541*
Y1300973*
X1259391Y1301894D02*
X1259531Y1302098D01*
X1259953Y1302405*
X1257000*
X1116578Y1068926D02*
X1113625D01*
X1116578D02*
Y1069847D01*
X1116438Y1070153*
X1116438D02*
X1116297Y1070256D01*
X1116016Y1070358*
X1115734*
X1115453Y1070256*
X1115313Y1070153*
X1115313D02*
X1115172Y1069847D01*
Y1068926*
Y1069642D02*
X1113625Y1070358D01*
X1116578Y1072608D02*
Y1071585D01*
X1115313Y1071483*
X1115313D02*
X1115453Y1071585D01*
X1115594Y1071892*
Y1072199*
X1115453Y1072506*
X1115172Y1072710*
X1114750Y1072813*
X1114750D02*
X1114469Y1072710D01*
X1114047Y1072608*
X1113766Y1072403*
X1113625Y1072097*
Y1071790*
X1113766Y1071483*
X1113906Y1071381*
X1114188Y1071278*
X1116578Y1074347D02*
X1116438Y1074040D01*
X1116438D02*
X1116016Y1073835D01*
X1115313Y1073733*
X1115313D02*
X1114891D01*
X1114188Y1073835*
X1114188D02*
X1113766Y1074040D01*
X1113625Y1074347*
Y1074551*
X1113766Y1074858*
X1114188Y1075063*
X1114188D02*
X1114891Y1075165D01*
X1115313*
X1115313D02*
X1116016Y1075063D01*
X1116016D02*
X1116438Y1074858D01*
X1116438D02*
X1116578Y1074551D01*
Y1074347*
X1225464Y1209670D02*
X1225566Y1209951D01*
X1225771Y1210232*
X1225975Y1210373*
X1226384*
X1226589Y1210232*
X1226793Y1209951*
X1226896Y1209670*
X1226998Y1209248*
Y1208545*
X1226896Y1208123*
X1226793Y1207842*
X1226589Y1207561*
X1226384Y1207420*
X1225975*
X1225771Y1207561*
X1225566Y1207842*
X1225464Y1208123*
X1224543Y1209811D02*
X1224339Y1209951D01*
X1224032Y1210373*
Y1207420*
X1222907Y1210373D02*
X1221782D01*
X1222396Y1209248*
X1222089*
X1221884Y1209107*
X1221782Y1208967*
X1221680Y1208545*
Y1208264*
X1221782Y1207842*
X1221987Y1207561*
X1222293Y1207420*
X1222600*
X1222907Y1207561*
X1223009Y1207701*
X1223112Y1207982*
X1220248Y1210373D02*
X1220555Y1210232D01*
X1220657Y1209951*
Y1209670*
X1220555Y1209389*
X1220350Y1209248*
X1219941Y1209107*
X1219634Y1208967*
X1219430Y1208686*
X1219328Y1208404*
Y1207982*
X1219430Y1207701*
X1219532Y1207561*
X1219839Y1207420*
X1220248*
X1220555Y1207561*
X1220657Y1207701*
X1220759Y1207982*
Y1208404*
X1220657Y1208686*
X1220453Y1208967*
X1220146Y1209107*
X1219737Y1209248*
X1219532Y1209389*
X1219430Y1209670*
Y1209951*
X1219532Y1210232*
X1219839Y1210373*
X1220248*
X1362875Y1054960D02*
X1363156Y1054858D01*
X1363438Y1054653*
X1363438D02*
X1363578Y1054449D01*
Y1054040*
X1363438Y1053835*
X1363438D02*
X1363156Y1053631D01*
X1362875Y1053528*
X1362453Y1053426*
X1361750*
X1361328Y1053528*
X1361047Y1053631*
X1360766Y1053835*
X1360625Y1054040*
Y1054449*
X1360766Y1054653*
X1361047Y1054858*
X1361328Y1054960*
X1363578Y1056085D02*
Y1057210D01*
X1362453Y1056597*
Y1056903*
X1362313Y1057108*
X1362313D02*
X1362172Y1057210D01*
X1361750Y1057313*
X1361750D02*
X1361469D01*
X1361469D02*
X1361047Y1057210D01*
X1360766Y1057006*
X1360625Y1056699*
Y1056392*
X1360766Y1056085*
X1360906Y1055983*
X1361188Y1055881*
X1362875Y1058335D02*
X1363016D01*
X1363297Y1058438*
X1363297D02*
X1363438Y1058540D01*
X1363438D02*
X1363578Y1058744D01*
Y1059153*
X1363438Y1059358*
X1363438D02*
X1363297Y1059460D01*
X1363016Y1059563*
X1363016D02*
X1362734D01*
X1362734D02*
X1362453Y1059460D01*
X1362031Y1059256*
X1360625Y1058233*
Y1059665*
X1247850Y1096434D02*
X1248131Y1096332D01*
X1248413Y1096127*
X1248553Y1095923*
Y1095514*
X1248413Y1095309*
X1248131Y1095105*
X1247850Y1095002*
X1247428Y1094900*
X1246725*
X1246303Y1095002*
X1246022Y1095105*
X1245741Y1095309*
X1245600Y1095514*
Y1095923*
X1245741Y1096127*
X1246022Y1096332*
X1246303Y1096434*
X1248553Y1098377D02*
X1246584Y1097355D01*
Y1098889*
X1248553Y1098377D02*
X1245600D01*
X1248553Y1100423D02*
X1248413Y1100116D01*
X1247991Y1099911*
X1247288Y1099809*
X1246866*
X1246163Y1099911*
X1245741Y1100116*
X1245600Y1100423*
Y1100627*
X1245741Y1100934*
X1246163Y1101139*
X1246866Y1101241*
X1247288*
X1247991Y1101139*
X1248413Y1100934*
X1248553Y1100627*
Y1100423*
X1438307Y1081875D02*
X1438409Y1082156D01*
X1438614Y1082438*
X1438614D02*
X1438818Y1082578D01*
X1439227*
X1439432Y1082438*
X1439432D02*
X1439636Y1082156D01*
X1439739Y1081875*
X1439841Y1081453*
Y1080750*
X1439739Y1080328*
X1439636Y1080047*
X1439432Y1079766*
X1439227Y1079625*
X1438818*
X1438614Y1079766*
X1438409Y1080047*
X1438307Y1080328*
X1437386Y1082016D02*
X1437182Y1082156D01*
X1436875Y1082578*
Y1079625*
X1434625Y1082578D02*
X1435648D01*
X1435750Y1081313*
X1435750D02*
X1435648Y1081453D01*
X1435341Y1081594*
X1435034*
X1434727Y1081453*
X1434523Y1081172*
X1434420Y1080750*
X1434523Y1080469*
X1434625Y1080047*
X1434830Y1079766*
X1435136Y1079625*
X1435443*
X1435750Y1079766*
X1435852Y1079906*
X1435955Y1080188*
X1433295Y1082578D02*
X1432170D01*
X1432784Y1081453*
X1432477*
X1432273Y1081313*
X1432273D02*
X1432170Y1081172D01*
X1432068Y1080750*
Y1080469*
X1432170Y1080047*
X1432375Y1079766*
X1432682Y1079625*
X1432989*
X1433295Y1079766*
X1433398Y1079906*
X1433500Y1080188*
X1470966Y1067439D02*
X1471068Y1067720D01*
X1471273Y1068001*
X1471477Y1068142*
X1471886*
X1472091Y1068001*
X1472295Y1067720*
X1472398Y1067439*
X1472500Y1067017*
Y1066314*
X1472398Y1065892*
X1472295Y1065611*
X1472091Y1065330*
X1471886Y1065189*
X1471477*
X1471273Y1065330*
X1471068Y1065611*
X1470966Y1065892*
X1470045Y1067580D02*
X1469841Y1067720D01*
X1469534Y1068142*
Y1065189*
X1467284Y1067158D02*
X1467386Y1066736D01*
X1467591Y1066455*
X1467898Y1066314*
X1468000*
X1468307Y1066455*
X1468511Y1066736*
X1468614Y1067158*
Y1067298*
X1468511Y1067720*
X1468307Y1068001*
X1468000Y1068142*
X1467898*
X1467591Y1068001*
X1467386Y1067720*
X1467284Y1067158*
Y1066455*
X1467386Y1065751*
X1467591Y1065330*
X1467898Y1065189*
X1468102*
X1468409Y1065330*
X1468511Y1065611*
X1466364Y1067580D02*
X1466159Y1067720D01*
X1465852Y1068142*
Y1065189*
X1472205Y1119875D02*
X1472307Y1120156D01*
X1472511Y1120438*
X1472511D02*
X1472716Y1120578D01*
X1473125*
X1473330Y1120438*
X1473330D02*
X1473534Y1120156D01*
X1473636Y1119875*
X1473739Y1119453*
Y1118750*
X1473636Y1118328*
X1473534Y1118047*
X1473330Y1117766*
X1473125Y1117625*
X1472716*
X1472511Y1117766*
X1472307Y1118047*
X1472205Y1118328*
X1471284Y1120016D02*
X1471080Y1120156D01*
X1470773Y1120578*
Y1117625*
X1468523Y1119594D02*
X1468625Y1119172D01*
X1468830Y1118891*
X1469136Y1118750*
X1469239*
X1469545Y1118891*
X1469750Y1119172*
X1469852Y1119594*
Y1119734*
X1469750Y1120156*
X1469545Y1120438*
X1469545D02*
X1469239Y1120578D01*
X1469136*
X1468830Y1120438*
X1468830D02*
X1468625Y1120156D01*
X1468523Y1119594*
Y1118891*
X1468625Y1118188*
X1468625D02*
X1468830Y1117766D01*
X1469136Y1117625*
X1469341*
X1469648Y1117766*
X1469750Y1118047*
X1467398Y1120578D02*
X1466273D01*
X1466886Y1119453*
X1466580*
X1466375Y1119313*
X1466375D02*
X1466273Y1119172D01*
X1466170Y1118750*
Y1118469*
X1466273Y1118047*
X1466477Y1117766*
X1466784Y1117625*
X1467091*
X1467398Y1117766*
X1467500Y1117906*
X1467602Y1118188*
X1422205Y1111875D02*
X1422307Y1112156D01*
X1422511Y1112438*
X1422511D02*
X1422716Y1112578D01*
X1423125*
X1423330Y1112438*
X1423330D02*
X1423534Y1112156D01*
X1423636Y1111875*
X1423739Y1111453*
Y1110750*
X1423636Y1110328*
X1423534Y1110047*
X1423330Y1109766*
X1423125Y1109625*
X1422716*
X1422511Y1109766*
X1422307Y1110047*
X1422205Y1110328*
X1421182Y1111875D02*
Y1112016D01*
X1421080Y1112297*
X1420977Y1112438*
X1420977D02*
X1420773Y1112578D01*
X1420364*
X1420159Y1112438*
X1420159D02*
X1420057Y1112297D01*
X1419955Y1112016*
Y1111734*
X1420057Y1111453*
X1420261Y1111031*
X1421284Y1109625*
X1419852*
X1418932Y1112016D02*
X1418727Y1112156D01*
X1418420Y1112578*
Y1109625*
X1416273Y1112156D02*
X1416375Y1112438D01*
X1416375D02*
X1416682Y1112578D01*
X1416886*
X1417193Y1112438*
X1417193D02*
X1417398Y1112016D01*
X1417500Y1111313*
X1417500D02*
Y1110609D01*
X1417398Y1110047*
X1417193Y1109766*
X1416886Y1109625*
X1416784*
X1416477Y1109766*
X1416273Y1110047*
X1416170Y1110469*
Y1110609*
X1416273Y1111031*
X1416477Y1111313*
X1416477D02*
X1416784Y1111453D01*
X1416886*
X1417193Y1111313*
X1417193D02*
X1417398Y1111031D01*
X1417500Y1110609*
X1392800Y1069753D02*
Y1067644D01*
X1392698Y1067222*
X1392493Y1066941*
X1392186Y1066800*
X1391982*
X1391675Y1066941*
X1391470Y1067222*
X1391368Y1067644*
Y1069753*
X1389220Y1069331D02*
X1389323Y1069613D01*
X1389323D02*
X1389630Y1069753D01*
X1389834*
X1390141Y1069613*
X1390141D02*
X1390345Y1069191D01*
X1390448Y1068488*
X1390448D02*
Y1067784D01*
X1390345Y1067222*
X1390141Y1066941*
X1389834Y1066800*
X1389732*
X1389425Y1066941*
X1389220Y1067222*
X1389118Y1067644*
Y1067784*
X1389220Y1068206*
X1389425Y1068488*
X1389425D02*
X1389732Y1068628D01*
X1389834*
X1390141Y1068488*
X1390141D02*
X1390345Y1068206D01*
X1390448Y1067784*
X1140850Y1066734D02*
X1141131Y1066632D01*
X1141413Y1066427*
X1141413D02*
X1141553Y1066223D01*
Y1065814*
X1141413Y1065609*
X1141413D02*
X1141131Y1065405D01*
X1140850Y1065302*
X1140428Y1065200*
X1139725*
X1139303Y1065302*
X1139022Y1065405*
X1138741Y1065609*
X1138600Y1065814*
Y1066223*
X1138741Y1066427*
X1139022Y1066632*
X1139303Y1066734*
X1140991Y1067655D02*
X1141131Y1067859D01*
X1141553Y1068166*
X1138600*
X1141553Y1070518D02*
X1138600Y1069495D01*
X1141553Y1069086D02*
Y1070518D01*
X1141750Y1080034D02*
X1142031Y1079932D01*
X1142313Y1079727*
X1142313D02*
X1142453Y1079523D01*
Y1079114*
X1142313Y1078909*
X1142313D02*
X1142031Y1078705D01*
X1141750Y1078602*
X1141328Y1078500*
X1140625*
X1140203Y1078602*
X1139922Y1078705*
X1139641Y1078909*
X1139500Y1079114*
Y1079523*
X1139641Y1079727*
X1139922Y1079932*
X1140203Y1080034*
X1141891Y1080955D02*
X1142031Y1081159D01*
X1142453Y1081466*
X1139500*
X1142031Y1083614D02*
X1142313Y1083511D01*
X1142313D02*
X1142453Y1083205D01*
Y1083000*
X1142313Y1082693*
X1142313D02*
X1141891Y1082489D01*
X1141188Y1082386*
X1141188D02*
X1140484D01*
X1139922Y1082489*
X1139641Y1082693*
X1139500Y1083000*
Y1083102*
X1139641Y1083409*
X1139922Y1083614*
X1140344Y1083716*
X1140484*
X1140906Y1083614*
X1141188Y1083409*
X1141188D02*
X1141328Y1083102D01*
Y1083000*
X1141188Y1082693*
X1141188D02*
X1140906Y1082489D01*
X1140484Y1082386*
X1457494Y1430195D02*
Y1427242D01*
X1456267*
X1455244Y1429492D02*
Y1429633D01*
X1455142Y1429914*
X1455040Y1430055*
X1454835Y1430195*
X1454426*
X1454222Y1430055*
X1454119Y1429914*
X1454017Y1429633*
Y1429352*
X1454119Y1429070*
X1454324Y1428648*
X1455347Y1427242*
X1453915*
X1351000Y1429453D02*
Y1426500D01*
X1349773*
X1348648Y1429453D02*
X1347523D01*
X1348136Y1428328*
X1347830*
X1347625Y1428188*
X1347523Y1428047*
X1347420Y1427625*
Y1427344*
X1347523Y1426922*
X1347727Y1426641*
X1348034Y1426500*
X1348341*
X1348648Y1426641*
X1348750Y1426781*
X1348852Y1427063*
X1313698Y1032450D02*
Y1032591D01*
X1313595Y1032872*
X1313493Y1033013*
X1313493D02*
X1313289Y1033153D01*
X1312880*
X1312675Y1033013*
X1312675D02*
X1312573Y1032872D01*
X1312470Y1032591*
Y1032309*
X1312573Y1032028*
X1312777Y1031606*
X1313800Y1030200*
X1312368*
X1254600Y1033591D02*
X1254395Y1033731D01*
X1254089Y1034153*
Y1031200*
X1252145Y1034153D02*
X1253168Y1032184D01*
X1251634*
X1252145Y1034153D02*
Y1031200D01*
X1208898Y1034850D02*
Y1034991D01*
X1208795Y1035272*
X1208693Y1035413*
X1208693D02*
X1208489Y1035553D01*
X1208080*
X1207875Y1035413*
X1207875D02*
X1207773Y1035272D01*
X1207670Y1034991*
Y1034709*
X1207773Y1034428*
X1207977Y1034006*
X1209000Y1032600*
X1207568*
X1166200Y1033791D02*
X1165995Y1033931D01*
X1165689Y1034353*
Y1031400*
X1164155Y1034353D02*
X1164461Y1034213D01*
X1164461D02*
X1164666Y1033791D01*
X1164768Y1033088*
X1164768D02*
Y1032666D01*
X1164666Y1031963*
X1164666D02*
X1164461Y1031541D01*
X1164155Y1031400*
X1163950*
X1163643Y1031541*
X1163439Y1031963*
X1163439D02*
X1163336Y1032666D01*
Y1033088*
X1163336D02*
X1163439Y1033791D01*
X1163643Y1034213*
X1163643D02*
X1163950Y1034353D01*
X1164155*
X1066043Y1255737D02*
X1066861Y1252784D01*
X1066043Y1255737D02*
X1065225Y1252784D01*
X1066554Y1253768D02*
X1065531D01*
X1075894Y1248448D02*
X1075689Y1248588D01*
X1075383Y1249010*
Y1246057*
X1089382Y1248430D02*
X1089484Y1248711D01*
X1089791Y1248852*
X1089995*
X1090302Y1248711*
X1090507Y1248290*
X1090609Y1247586*
Y1246883*
X1090507Y1246321*
X1090302Y1246040*
X1089995Y1245899*
X1089893*
X1089586Y1246040*
X1089382Y1246321*
X1089279Y1246743*
Y1246883*
X1089382Y1247305*
X1089586Y1247586*
X1089893Y1247727*
X1089995*
X1090302Y1247586*
X1090507Y1247305*
X1090609Y1246883*
X1069225Y1277495D02*
Y1274542D01*
X1067793Y1277495D02*
Y1274542D01*
X1069225Y1276089D02*
X1067793D01*
X1113019Y1253406D02*
X1113837Y1250453D01*
X1113019Y1253406D02*
X1112201Y1250453D01*
X1113530Y1251437D02*
X1112507D01*
X1128343Y1244133D02*
X1128138Y1244273D01*
X1127832Y1244695*
Y1241742*
X1142316Y1244343D02*
X1142418Y1244624D01*
X1142725Y1244765*
X1142929*
X1143236Y1244624*
X1143441Y1244203*
X1143543Y1243499*
Y1242796*
X1143441Y1242234*
X1143236Y1241953*
X1142929Y1241812*
X1142827*
X1142520Y1241953*
X1142316Y1242234*
X1142213Y1242656*
Y1242796*
X1142316Y1243218*
X1142520Y1243499*
X1142827Y1243640*
X1142929*
X1143236Y1243499*
X1143441Y1243218*
X1143543Y1242796*
X1112965Y1277474D02*
Y1274521D01*
X1111533Y1277474D02*
Y1274521D01*
X1112965Y1276068D02*
X1111533D01*
X1208160Y1278776D02*
X1208978Y1275823D01*
X1208160Y1278776D02*
X1207342Y1275823D01*
X1208671Y1276807D02*
X1207648D01*
X1199676Y1285805D02*
X1199471Y1285945D01*
X1199165Y1286367*
Y1283414*
X1182816Y1286084D02*
X1182918Y1286365D01*
X1183225Y1286506*
X1183429*
X1183736Y1286365*
X1183941Y1285944*
X1184043Y1285240*
Y1284537*
X1183941Y1283975*
X1183736Y1283694*
X1183429Y1283553*
X1183327*
X1183020Y1283694*
X1182816Y1283975*
X1182713Y1284397*
Y1284537*
X1182816Y1284959*
X1183020Y1285240*
X1183327Y1285381*
X1183429*
X1183736Y1285240*
X1183941Y1284959*
X1184043Y1284537*
X1206342Y1256723D02*
Y1253770D01*
X1204910Y1256723D02*
Y1253770D01*
X1206342Y1255317D02*
X1204910D01*
X1134497Y1113261D02*
X1135315Y1110308D01*
X1134497Y1113261D02*
X1133679Y1110308D01*
X1135008Y1111292D02*
X1133985D01*
X1144421Y1105729D02*
X1144216Y1105869D01*
X1143910Y1106291*
Y1103338*
X1227252Y1105487D02*
Y1105628D01*
X1227149Y1105909*
X1227047Y1106049*
X1226843Y1106190*
X1226434*
X1226229Y1106049*
X1226127Y1105909*
X1226024Y1105628*
Y1105346*
X1226127Y1105065*
X1226331Y1104643*
X1227354Y1103237*
X1225922*
X1224899Y1105487D02*
Y1105628D01*
X1224797Y1105909*
X1224695Y1106049*
X1224490Y1106190*
X1224081*
X1223877Y1106049*
X1223774Y1105909*
X1223672Y1105628*
Y1105346*
X1223774Y1105065*
X1223979Y1104643*
X1225002Y1103237*
X1223570*
X1136100Y1195601D02*
X1136918Y1192648D01*
X1136100Y1195601D02*
X1135282Y1192648D01*
X1136611Y1193632D02*
X1135588D01*
X1134361Y1195601D02*
Y1192648D01*
Y1195601D02*
X1133441D01*
X1133134Y1195460*
X1133032Y1195320*
X1132929Y1195039*
Y1194757*
X1133032Y1194476*
X1133134Y1194335*
X1133441Y1194195*
X1134361D02*
X1133441D01*
X1133134Y1194054*
X1133032Y1193914*
X1132929Y1193632*
Y1193210*
X1133032Y1192929*
X1133134Y1192789*
X1133441Y1192648*
X1134361*
X1302089Y1180209D02*
X1302907Y1177256D01*
X1302089Y1180209D02*
X1301271Y1177256D01*
X1302600Y1178240D02*
X1301577D01*
X1309595Y1173076D02*
X1309390Y1173216D01*
X1309084Y1173638*
Y1170685*
X1344233Y1172947D02*
X1344028Y1173087D01*
X1343722Y1173509*
Y1170556*
X1342699Y1172806D02*
Y1172947D01*
X1342597Y1173228*
X1342494Y1173368*
X1342290Y1173509*
X1341881*
X1341676Y1173368*
X1341574Y1173228*
X1341472Y1172947*
Y1172665*
X1341574Y1172384*
X1341778Y1171962*
X1342801Y1170556*
X1341369*
X1303036Y1214960D02*
Y1212007D01*
Y1214960D02*
X1302218Y1212007D01*
X1301400Y1214960D02*
X1302218Y1212007D01*
X1301400Y1214960D02*
Y1212007D01*
X1302142Y1089952D02*
X1302960Y1086999D01*
X1302142Y1089952D02*
X1301324Y1086999D01*
X1302653Y1087983D02*
X1301630D01*
X1309809Y1083187D02*
X1309604Y1083327D01*
X1309298Y1083749*
Y1080796*
X1344386Y1082913D02*
X1344181Y1083053D01*
X1343875Y1083475*
Y1080522*
X1342852Y1082772D02*
Y1082913D01*
X1342750Y1083194*
X1342647Y1083334*
X1342443Y1083475*
X1342034*
X1341829Y1083334*
X1341727Y1083194*
X1341625Y1082913*
Y1082631*
X1341727Y1082350*
X1341931Y1081928*
X1342954Y1080522*
X1341522*
X1302925Y1125119D02*
Y1122166D01*
Y1125119D02*
X1302107Y1122166D01*
X1301289Y1125119D02*
X1302107Y1122166D01*
X1301289Y1125119D02*
Y1122166D01*
X1175177Y1034153D02*
Y1031903D01*
X1175280Y1031481*
X1175382Y1031341*
X1175586Y1031200*
X1175791*
X1175995Y1031341*
X1176098Y1031481*
X1176200Y1031903*
Y1032184*
X1172825Y1034153D02*
X1173848Y1031200D01*
X1174257Y1034153D02*
X1172825D01*
X1267577Y1033953D02*
Y1031703D01*
X1267680Y1031281*
X1267782Y1031141*
X1267986Y1031000*
X1268191*
X1268395Y1031141*
X1268498Y1031281*
X1268600Y1031703*
Y1031984*
X1266452Y1033953D02*
X1265327D01*
X1265941Y1032828*
X1265634*
X1265430Y1032688*
X1265430D02*
X1265327Y1032547D01*
X1265225Y1032125*
Y1031844*
X1265327Y1031422*
X1265532Y1031141*
X1265839Y1031000*
X1266145*
X1266452Y1031141*
X1266555Y1031281*
X1266657Y1031563*
X1394300Y1444291D02*
X1394095Y1444431D01*
X1393789Y1444853*
Y1441900*
X1411489Y1445553D02*
X1411795Y1445413D01*
X1411795D02*
X1411898Y1445131D01*
Y1444850*
X1411795Y1444569*
X1411591Y1444428*
X1411182Y1444288*
X1411182D02*
X1410875Y1444147D01*
X1410670Y1443866*
X1410568Y1443584*
Y1443163*
X1410568D02*
X1410670Y1442881D01*
X1410773Y1442741*
X1411080Y1442600*
X1411489*
X1411795Y1442741*
X1411898Y1442881*
X1412000Y1443163*
X1412000D02*
Y1443584D01*
X1411898Y1443866*
X1411693Y1444147*
X1411386Y1444288*
X1411386D02*
X1410977Y1444428D01*
X1410773Y1444569*
X1410670Y1444850*
Y1445131*
X1410773Y1445413*
X1410773D02*
X1411080Y1445553D01*
X1411489*
X1388798Y1440650D02*
Y1440791D01*
X1388695Y1441072*
X1388593Y1441213*
X1388593D02*
X1388389Y1441353D01*
X1387980*
X1387775Y1441213*
X1387775D02*
X1387673Y1441072D01*
X1387570Y1440791*
Y1440509*
X1387673Y1440228*
X1387877Y1439806*
X1388900Y1438400*
X1387468*
X1386036Y1441353D02*
X1386343Y1441213D01*
X1386343D02*
X1386445Y1440931D01*
Y1440650*
X1386343Y1440369*
X1386139Y1440228*
X1385730Y1440088*
X1385730D02*
X1385423Y1439947D01*
X1385218Y1439666*
X1385116Y1439384*
Y1438963*
X1385116D02*
X1385218Y1438681D01*
X1385320Y1438541*
X1385627Y1438400*
X1386036*
X1386343Y1438541*
X1386445Y1438681*
X1386548Y1438963*
X1386548D02*
Y1439384D01*
X1386445Y1439666*
X1386241Y1439947*
X1385934Y1440088*
X1385934D02*
X1385525Y1440228D01*
X1385320Y1440369*
X1385218Y1440650*
Y1440931*
X1385320Y1441213*
X1385320D02*
X1385627Y1441353D01*
X1386036*
X1396398Y1420850D02*
Y1420991D01*
X1396295Y1421272*
X1396193Y1421413*
X1396193D02*
X1395989Y1421553D01*
X1395580*
X1395375Y1421413*
X1395375D02*
X1395273Y1421272D01*
X1395170Y1420991*
Y1420709*
X1395273Y1420428*
X1395477Y1420006*
X1396500Y1418600*
X1395068*
X1394045Y1420850D02*
Y1420991D01*
X1393943Y1421272*
X1393841Y1421413*
X1393841D02*
X1393636Y1421553D01*
X1393227*
X1393023Y1421413*
X1393023D02*
X1392920Y1421272D01*
X1392818Y1420991*
Y1420709*
X1392920Y1420428*
X1393125Y1420006*
X1394148Y1418600*
X1392716*
X1411400Y1421691D02*
X1411195Y1421831D01*
X1410889Y1422253*
Y1419300*
X1408639Y1422253D02*
X1409661D01*
X1409764Y1420988*
X1409764D02*
X1409661Y1421128D01*
X1409355Y1421269*
X1409048*
X1408741Y1421128*
X1408536Y1420847*
X1408434Y1420425*
X1408536Y1420144*
X1408639Y1419722*
X1408843Y1419441*
X1409150Y1419300*
X1409457*
X1409764Y1419441*
X1409866Y1419581*
X1409968Y1419863*
G54D53*
X1189413Y1061811D02*
Y1088189D01*
X1153587*
Y1061811*
X1189413*
X1227541Y1272689D02*
G03X1227541I-3041J0D01*
G01X1252541Y1240189D02*
G03X1252541I-3041J0D01*
G01Y1233189D02*
G03X1252541I-3041J0D01*
G01X1226541Y1238500D02*
G03X1226541I-3041J0D01*
G01X1231041Y1233000D02*
G03X1231041I-3041J0D01*
G01X1227541Y1265500D02*
G03X1227541I-3041J0D01*
G01Y1258500D02*
G03X1227541I-3041J0D01*
G01Y1251500D02*
G03X1227541I-3041J0D01*
G01X1231041Y1244500D02*
G03X1231041I-3041J0D01*
G01X1252041Y1269000D02*
G03X1252041I-3041J0D01*
G01X1253541Y1262000D02*
G03X1253541I-3041J0D01*
G01Y1255000D02*
G03X1253541I-3041J0D01*
G01X1252541Y1247189D02*
G03X1252541I-3041J0D01*
G01X1430100Y1417200D02*
Y1438800D01*
X1450900*
Y1417200*
X1430100*
X1352500D02*
Y1438800D01*
X1373300*
Y1417200*
X1352500*
X1195614Y1034300D02*
X1195773Y1034738D01*
X1195773D02*
X1196091Y1035175D01*
X1196409Y1035394*
X1197045*
X1197364Y1035175*
X1197682Y1034738*
X1197682D02*
X1197841Y1034300D01*
X1198000Y1033644*
Y1032550*
X1197841Y1031894*
X1197682Y1031456*
X1197364Y1031019*
X1197045Y1030800*
X1196409*
X1196091Y1031019*
X1195773Y1031456*
X1195614Y1031894*
X1194182Y1035394D02*
Y1030800D01*
Y1035394D02*
X1192750D01*
X1192273Y1035175*
X1192114Y1034956*
X1191955Y1034519*
Y1033863*
X1191955D02*
X1192114Y1033425D01*
X1192273Y1033206*
X1192750Y1032988*
X1192750D02*
X1194182D01*
X1190523Y1035394D02*
Y1030800D01*
X1188614*
X1187182Y1035394D02*
Y1030800D01*
Y1035394D02*
X1186068D01*
X1185591Y1035175*
X1185273Y1034738*
X1185273D02*
X1185114Y1034300D01*
X1184955Y1033644*
Y1032550*
X1185114Y1031894*
X1185273Y1031456*
X1185591Y1031019*
X1186068Y1030800*
X1187182*
X1290332Y1036594D02*
X1291923D01*
X1292082Y1034625*
X1291923Y1034844*
X1291445Y1035063*
X1291445D02*
X1290968D01*
X1290968D02*
X1290491Y1034844D01*
X1290173Y1034406*
X1290014Y1033750*
X1290173Y1033313*
X1290173D02*
X1290332Y1032656D01*
X1290650Y1032219*
X1291127Y1032000*
X1291605*
X1292082Y1032219*
X1292241Y1032438*
X1292241D02*
X1292400Y1032875D01*
X1286514Y1036594D02*
X1288105D01*
X1288264Y1034625*
X1288105Y1034844*
X1287627Y1035063*
X1287627D02*
X1287150D01*
X1287150D02*
X1286673Y1034844D01*
X1286355Y1034406*
X1286195Y1033750*
X1286355Y1033313*
X1286355D02*
X1286514Y1032656D01*
X1286832Y1032219*
X1287309Y1032000*
X1287786*
X1288264Y1032219*
X1288423Y1032438*
X1288423D02*
X1288582Y1032875D01*
X1284445Y1036594D02*
X1282695D01*
X1283650Y1034844*
X1283173*
X1282855Y1034625*
X1282695Y1034406*
X1282536Y1033750*
Y1033313*
X1282536D02*
X1282695Y1032656D01*
X1283014Y1032219*
X1283491Y1032000*
X1283968*
X1284445Y1032219*
X1284605Y1032438*
X1284605D02*
X1284764Y1032875D01*
X1279514Y1036594D02*
X1281105Y1033531D01*
X1278718*
X1279514Y1036594D02*
Y1032000D01*
X1236545Y1284939D02*
X1238000Y1279689D01*
X1236545Y1284939D02*
X1235091Y1279689D01*
X1237455Y1281439D02*
X1235636D01*
X1379045Y1298939D02*
X1380500Y1293689D01*
X1379045Y1298939D02*
X1377591Y1293689D01*
X1379955Y1295439D02*
X1378136D01*
X1077778Y1614263D02*
X1315278D01*
Y1549935*
X1077778*
Y1614263*
G54D56*
X1254500Y1184689D02*
X1248844Y1190344D01*
X1255000Y1173189D02*
X1251000Y1169189D01*
G54D87*
X1283390Y1191000D02*
Y1167378D01*
X1269610Y1191000D02*
Y1167378D01*
X1139724Y1198465D02*
Y1107913D01*
X1230276*
Y1198465*
X1139724*
X1140512Y1107913D02*
X1139724Y1108701D01*
X1141299Y1107913D02*
X1139724Y1109488D01*
X1142087Y1107913D02*
X1139724Y1110276D01*
X1142874Y1107913D02*
X1139724Y1111063D01*
X1143661Y1107913D02*
X1139724Y1111850D01*
X1412299Y1081543D02*
X1399701D01*
Y1100835*
X1412299*
Y1081543*
X1304503Y1127749D02*
Y1084441D01*
X1347811*
Y1127749*
X1304503*
X1305291Y1084441D02*
X1304503Y1085229D01*
X1306078Y1084441D02*
X1304503Y1086016D01*
X1306866Y1084441D02*
X1304503Y1086804D01*
X1307653Y1084441D02*
X1304503Y1087591D01*
X1308440Y1084441D02*
X1304503Y1088378D01*
X1128000Y1085819D02*
Y1088181D01*
X1407319Y1452500D02*
X1409681D01*
X1393319Y1452900D02*
X1395681D01*
X1413319Y1452500D02*
X1415681D01*
X1459921Y1385854D02*
Y1381524D01*
X1450079Y1385854D02*
Y1381524D01*
X1422181Y1452500D02*
X1419819D01*
X1387865Y1453500D02*
X1383535D01*
X1378865D02*
X1374535D01*
X1403665Y1452500D02*
X1399335D01*
X1050081Y1236100D02*
X1047719D01*
X1059815Y1188984D02*
X1074185D01*
Y1163394*
X1059815*
Y1188984*
X1364335Y1413110D02*
X1368665D01*
X1364335Y1403268D02*
X1368665D01*
X1364335Y1399110D02*
X1368665D01*
X1364335Y1389268D02*
X1368665D01*
X1441165Y1389279D02*
X1436835D01*
X1441165Y1399121D02*
X1436835D01*
X1441165Y1403279D02*
X1436835D01*
X1441165Y1413121D02*
X1436835D01*
X1253500Y1228445D02*
Y1222933D01*
X1203244Y1223189D02*
X1208756D01*
X1253370Y1218945D02*
Y1213433D01*
Y1149445D02*
Y1143933D01*
Y1126445D02*
Y1120933D01*
X1125244Y1223189D02*
X1130756D01*
X1115000Y1111433D02*
Y1116945D01*
X1301681Y1287689D02*
X1299319D01*
X1289100Y1240870D02*
Y1238508D01*
X1260181Y1089189D02*
X1257819D01*
X1260500Y1176870D02*
Y1174508D01*
X1377000Y1220370D02*
Y1218008D01*
Y1130370D02*
Y1128008D01*
X1103200Y1236719D02*
Y1239081D01*
X1217519Y1220689D02*
X1219881D01*
X1277681Y1236689D02*
X1275319D01*
X1273319Y1287689D02*
X1275681D01*
X1291319D02*
X1293681D01*
X1314731Y1242832D02*
X1312369D01*
X1301700Y1240970D02*
Y1238608D01*
X1265319Y1287689D02*
X1267681D01*
X1251000Y1132870D02*
Y1130508D01*
X1345579Y1381535D02*
Y1385865D01*
X1355421Y1381535D02*
Y1385865D01*
X1356700Y1042508D02*
Y1044870D01*
X1386100Y1042508D02*
Y1044870D01*
X1260500Y1184370D02*
Y1182008D01*
X1203205Y1250047D02*
X1178795D01*
Y1282331*
X1203205*
Y1250047*
X1202417Y1282331D02*
X1203205Y1281543D01*
X1201630Y1282331D02*
X1203205Y1280756D01*
X1200843Y1282331D02*
X1203205Y1279969D01*
X1200055Y1282331D02*
X1203205Y1279181D01*
X1199268Y1282331D02*
X1203205Y1278394D01*
X1070689Y1281437D02*
X1094311D01*
Y1249941*
X1070689*
Y1281437*
X1071476Y1249941D02*
X1070689Y1250728D01*
X1072264Y1249941D02*
X1070689Y1251516D01*
X1073051Y1249941D02*
X1070689Y1252303D01*
X1073839Y1249941D02*
X1070689Y1253091D01*
X1074626Y1249941D02*
X1070689Y1253878D01*
X1074185Y1036394D02*
X1059815D01*
Y1061984*
X1074185*
Y1036394*
Y1099394D02*
X1059815D01*
Y1124984*
X1074185*
Y1099394*
Y1069394D02*
X1059815D01*
Y1094984*
X1074185*
Y1069394*
X1059815Y1158984D02*
X1074185D01*
Y1133394*
X1059815*
Y1158984*
X1304503Y1217749D02*
Y1174441D01*
X1347811*
Y1217749*
X1304503*
X1305291Y1174441D02*
X1304503Y1175229D01*
X1306078Y1174441D02*
X1304503Y1176016D01*
X1306866Y1174441D02*
X1304503Y1176804D01*
X1307653Y1174441D02*
X1304503Y1177591D01*
X1308440Y1174441D02*
X1304503Y1178378D01*
X1430094Y1046661D02*
Y1055717D01*
X1441906*
Y1046661*
X1430094*
X1441906Y1047449D02*
X1441118Y1046661D01*
X1441906Y1048236D02*
X1440331Y1046661D01*
X1441906Y1049024D02*
X1439543Y1046661D01*
X1441906Y1049811D02*
X1438756Y1046661D01*
X1441906Y1050598D02*
X1437969Y1046661D01*
X1450094D02*
Y1055717D01*
X1461906*
Y1046661*
X1450094*
X1461906Y1047449D02*
X1461118Y1046661D01*
X1461906Y1048236D02*
X1460331Y1046661D01*
X1461906Y1049024D02*
X1459543Y1046661D01*
X1461906Y1049811D02*
X1458756Y1046661D01*
X1461906Y1050598D02*
X1457969Y1046661D01*
X1430094Y1091661D02*
Y1100717D01*
X1441906*
Y1091661*
X1430094*
X1441906Y1092449D02*
X1441118Y1091661D01*
X1441906Y1093236D02*
X1440331Y1091661D01*
X1441906Y1094024D02*
X1439543Y1091661D01*
X1441906Y1094811D02*
X1438756Y1091661D01*
X1441906Y1095598D02*
X1437969Y1091661D01*
X1450094D02*
Y1100717D01*
X1461906*
Y1091661*
X1450094*
X1461906Y1092449D02*
X1461118Y1091661D01*
X1461906Y1093236D02*
X1460331Y1091661D01*
X1461906Y1094024D02*
X1459543Y1091661D01*
X1461906Y1094811D02*
X1458756Y1091661D01*
X1461906Y1095598D02*
X1457969Y1091661D01*
X1118646Y1221488D02*
Y1208890D01*
X1099354*
Y1221488*
X1118646*
X1413299Y1197354D02*
X1400701D01*
Y1216646*
X1413299*
Y1197354*
X1256094Y1062661D02*
Y1071717D01*
X1267906*
Y1062661*
X1256094*
X1267906Y1063449D02*
X1267118Y1062661D01*
X1267906Y1064236D02*
X1266331Y1062661D01*
X1267906Y1065024D02*
X1265543Y1062661D01*
X1267906Y1065811D02*
X1264756Y1062661D01*
X1267906Y1066598D02*
X1263969Y1062661D01*
X1278343Y1268972D02*
Y1254406D01*
X1258657*
Y1268972*
X1278343*
X1307343D02*
Y1254406D01*
X1287657*
Y1268972*
X1307343*
X1228646Y1073988D02*
Y1061390D01*
X1209354*
Y1073988*
X1228646*
X1236594Y1060406D02*
Y1074972D01*
X1248406*
Y1060406*
X1236594*
X1248406Y1061193D02*
X1247618Y1060406D01*
X1248406Y1061980D02*
X1246831Y1060406D01*
X1248406Y1062768D02*
X1246043Y1060406D01*
X1248406Y1063555D02*
X1245256Y1060406D01*
X1248406Y1064343D02*
X1244469Y1060406D01*
X1109843Y1083858D02*
Y1081496D01*
X1101969*
Y1083858*
X1109843*
X1115315Y1285374D02*
Y1246004D01*
X1154685*
Y1285374*
X1115315*
X1116102Y1246004D02*
X1115315Y1246791D01*
X1116890Y1246004D02*
X1115315Y1247579D01*
X1117677Y1246004D02*
X1115315Y1248366D01*
X1118465Y1246004D02*
X1115315Y1249154D01*
X1119252Y1246004D02*
X1115315Y1249941D01*
X1284181Y1059189D02*
X1281819D01*
X1415000Y1410807D02*
Y1400571D01*
X1387500D02*
Y1410807D01*
X1332641Y1240086D02*
X1330278D01*
X1325141D02*
X1322778D01*
X1331800Y1145508D02*
Y1147870D01*
Y1153008D02*
Y1155370D01*
X1315549Y1270799D02*
Y1284579D01*
X1335235*
Y1270799*
X1315549*
X1116291Y1098516D02*
Y1101862D01*
X1127709*
Y1098516*
X1116291*
X1033727Y1242098D02*
X1037073D01*
Y1230680*
X1033727*
Y1242098*
X1093291Y1098516D02*
Y1101862D01*
X1104709*
Y1098516*
X1093291*
X1370500Y1147319D02*
Y1149681D01*
Y1140819D02*
Y1143181D01*
X1246835Y1179189D02*
X1251165D01*
X1024181Y1233000D02*
X1021819D01*
X1097554Y1070108D02*
X1095191D01*
X1269681Y1236689D02*
X1267319D01*
X1259319D02*
X1261681D01*
X1381000Y1157181D02*
Y1154819D01*
Y1163681D02*
Y1161319D01*
X1259681Y1287689D02*
X1257319D01*
X1116087Y1082677D02*
X1113724D01*
X1387146Y1074488D02*
Y1061890D01*
X1367854*
Y1074488*
X1387146*
G54D151*
X1384142Y1195193D02*
G03X1384142I-492J0D01*
G01X1137854Y1111850D02*
G03X1137854I-492J0D01*
G01X1419091Y1102016D02*
G03X1419091I-493J0D01*
G01X1302633Y1085623D02*
G03X1302633I-492J0D01*
G01X1054106Y1161819D02*
G03X1054106I-492J0D01*
G01X1242673Y1225667D02*
G03X1242673I-492J0D01*
G01X1206514Y1211870D02*
G03X1206514I-492J0D01*
G01X1242543Y1216167D02*
G03X1242543I-492J0D01*
G01Y1146667D02*
G03X1242543I-492J0D01*
G01Y1123667D02*
G03X1242543I-492J0D01*
G01X1128514Y1211870D02*
G03X1128514I-492J0D01*
G01X1126811Y1114211D02*
G03X1126811I-492J0D01*
G01X1155453Y1228701D02*
G03X1155453I-492J0D01*
G01X1176953Y1223701D02*
G03X1176953I-492J0D01*
G01X1108853Y1188701D02*
G03X1108853I-492J0D01*
G01X1133953Y1228701D02*
G03X1133953I-492J0D01*
G01X1128931Y1155177D02*
G03X1128931I-492J0D01*
G01X1206059Y1277213D02*
G03X1206059I-492J0D01*
G01X1068819Y1255256D02*
G03X1068819I-492J0D01*
G01X1080878Y1063559D02*
G03X1080878I-492J0D01*
G01Y1126559D02*
G03X1080878I-492J0D01*
G01Y1096559D02*
G03X1080878I-492J0D01*
G01X1054106Y1131819D02*
G03X1054106I-492J0D01*
G01X1302633Y1175623D02*
G03X1302633I-492J0D01*
G01X1443185Y1040756D02*
G03X1443185I-492J0D01*
G01X1463185D02*
G03X1463185I-492J0D01*
G01X1443185Y1085756D02*
G03X1443185I-492J0D01*
G01X1463185D02*
G03X1463185I-492J0D01*
G01X1098665Y1227787D02*
G03X1098665I-492J0D01*
G01X1420091Y1217827D02*
G03X1420091I-493J0D01*
G01X1268988Y1056756D02*
G03X1268988I-492J0D01*
G01X1258362Y1274878D02*
G03X1258362I-492J0D01*
G01X1287362D02*
G03X1287362I-492J0D01*
G01X1208665Y1080287D02*
G03X1208665I-492J0D01*
G01X1249685Y1054500D02*
G03X1249685I-492J0D01*
G01X1101083Y1087795D02*
G03X1101083I-492J0D01*
G01X1384142Y1105193D02*
G03X1384142I-492J0D01*
G01X1113445Y1255256D02*
G03X1113445I-492J0D01*
G01X1404272Y1405689D02*
G03X1404272I-492J0D01*
G01X1399213D02*
G03X1399213I-493J0D01*
G01X1337695Y1264106D02*
G03X1337695I-492J0D01*
G01X1108853Y1145701D02*
G03X1108853I-492J0D01*
G01X1129382Y1093890D02*
G03X1129382I-492J0D01*
G01X1029593Y1229499D02*
G03X1029593I-492J0D01*
G01X1106382Y1093890D02*
G03X1106382I-492J0D01*
G01X1367165Y1080787D02*
G03X1367165I-492J0D01*
G54D153*
G01X1243854Y1230217D02*
X1263146D01*
Y1221161*
X1243854*
Y1230217*
X1201472Y1213543D02*
Y1232835D01*
X1210528*
Y1213543*
X1201472*
X1243724Y1220717D02*
X1263016D01*
Y1211661*
X1243724*
Y1220717*
Y1151217D02*
X1263016D01*
Y1142161*
X1243724*
Y1151217*
Y1128217D02*
X1263016D01*
Y1119161*
X1243724*
Y1128217*
X1123472Y1213543D02*
Y1232835D01*
X1132528*
Y1213543*
X1123472*
X1124646Y1109661D02*
X1105354D01*
Y1118717*
X1124646*
Y1109661*
X1404764Y1412579D02*
X1425236D01*
Y1398799*
X1404764*
Y1412579*
X1397736Y1398799D02*
X1377264D01*
Y1412579*
X1397736*
Y1398799*
G74*
X0Y0D02*
M02*
