*
*
G04 PADS 9.3 Build Number: 433611 generated Gerber (RS-274-X) file*
G04 PC Version=2.1*
*
%IN "ECAT-NGP-REV-B.pcb"*%
*
%MOIN*%
*
%FSLAX35Y35*%
*
*
*
*
G04 PC Standard Apertures*
*
*
G04 Thermal Relief Aperture macro.*
%AMTER*
1,1,$1,0,0*
1,0,$1-$2,0,0*
21,0,$3,$4,0,0,45*
21,0,$3,$4,0,0,135*
%
*
*
G04 Annular Aperture macro.*
%AMANN*
1,1,$1,0,0*
1,0,$2,0,0*
%
*
*
G04 Odd Aperture macro.*
%AMODD*
1,1,$1,0,0*
1,0,$1-0.005,0,0*
%
*
*
G04 PC Custom Aperture Macros*
*
*
*
*
*
*
G04 PC Aperture Table*
*
%ADD010C,0.001*%
%ADD012C,0.09843*%
%ADD013C,0.11811*%
%ADD014C,0.1378*%
%ADD015C,0.04724*%
%ADD016R,0.071X0.063*%
%ADD019R,0.06X0.052*%
%ADD025C,0.19685*%
%ADD027C,0.01*%
%ADD028C,0.015*%
%ADD029C,0.004*%
%ADD030C,0.008*%
%ADD031C,0.02*%
%ADD033C,0.04*%
%ADD034C,0.024*%
%ADD035C,0.03937*%
%ADD038R,0.052X0.06*%
%ADD039C,0.007*%
%ADD081C,0.06*%
%ADD082C,0.025*%
%ADD083C,0.00598*%
%ADD084R,0.05512X0.07087*%
*
*
*
*
G04 PC Circuitry*
G04 Layer Name ECAT-NGP-REV-B.pcb - circuitry*
%LPD*%
*
*
G04 PC Custom Flashes*
G04 Layer Name ECAT-NGP-REV-B.pcb - flashes*
%LPD*%
*
*
G04 PC Circuitry*
G04 Layer Name ECAT-NGP-REV-B.pcb - circuitry*
%LPD*%
*
G54D10*
G54D12*
G01X135315Y142520D03*
X149488D03*
Y128346D03*
X135315D03*
X292795Y142520D03*
X306969D03*
Y128346D03*
X292795D03*
X214055Y142520D03*
X228228D03*
Y128346D03*
X214055D03*
X371535Y142520D03*
X385709D03*
Y128346D03*
X371535D03*
G54D13*
X112874Y135433D03*
X171929D03*
X270354D03*
X329409D03*
X191614D03*
X250669D03*
X349094D03*
X408150D03*
G54D14*
X112795Y119764D03*
X171929D03*
X270276D03*
X329409D03*
X191535D03*
X250669D03*
X349016D03*
X408150D03*
G54D15*
X142402Y119685D03*
X299882D03*
X221142D03*
X378622D03*
G54D16*
X410000Y170512D03*
Y159488D03*
X197500Y170512D03*
Y159488D03*
X257500Y170512D03*
Y159488D03*
X330000Y170512D03*
Y159488D03*
X187500D03*
Y170512D03*
X400000Y159488D03*
Y170512D03*
X267500Y159488D03*
Y170512D03*
X340000Y159488D03*
Y170512D03*
G54D19*
X175000Y171240D03*
Y163760D03*
X385000Y171240D03*
Y163760D03*
X360000Y171240D03*
Y163760D03*
X150000Y171240D03*
Y163760D03*
X245000Y171240D03*
Y163760D03*
X220000Y171240D03*
Y163760D03*
X315000Y171240D03*
Y163760D03*
X290000Y171240D03*
Y163760D03*
G54D25*
X130984Y350315D03*
Y328150D03*
Y302087D03*
G54D27*
X262300Y455163D02*
Y448600D01*
X265027*
X268891Y455163D02*
X267073Y448600D01*
X268891Y455163D02*
X270709Y448600D01*
X267755Y450788D02*
X270027D01*
X272755Y455163D02*
X274573Y452038D01*
X274573D02*
Y448600D01*
X276391Y455163D02*
X274573Y452038D01*
X278436Y455163D02*
Y448600D01*
Y455163D02*
X281391D01*
X278436Y452038D02*
X280255D01*
X278436Y448600D02*
X281391D01*
X283436Y455163D02*
Y448600D01*
Y455163D02*
X285482D01*
X285482D02*
X286164Y454850D01*
X286391Y454538*
X286391D02*
X286618Y453913D01*
X286618D02*
Y453288D01*
X286618D02*
X286391Y452663D01*
X286391D02*
X286164Y452350D01*
X285482Y452038*
X285482D02*
X283436D01*
X285027D02*
X286618Y448600D01*
X262300Y440163D02*
Y433600D01*
Y440163D02*
X264345D01*
X264345D02*
X265027Y439850D01*
X265255Y439538*
X265255D02*
X265482Y438913D01*
X265482D02*
Y437975D01*
X265255Y437350*
X265027Y437038*
X265027D02*
X264345Y436725D01*
X262300*
X269345Y440163D02*
X267527Y433600D01*
X269345Y440163D02*
X271164Y433600D01*
X268209Y435788D02*
X270482D01*
X273209Y440163D02*
Y433600D01*
Y440163D02*
X275255D01*
X275255D02*
X275936Y439850D01*
X276164Y439538*
X276164D02*
X276391Y438913D01*
X276391D02*
Y438288D01*
X276391D02*
X276164Y437663D01*
X276164D02*
X275936Y437350D01*
X275255Y437038*
X275255D02*
X273209D01*
X274800D02*
X276391Y433600D01*
X280027Y440163D02*
Y433600D01*
X278436Y440163D02*
X281618D01*
X288891D02*
Y433600D01*
Y440163D02*
X292073Y433600D01*
Y440163D02*
Y433600D01*
X295482Y440163D02*
X295027Y439850D01*
X294573Y439225*
X294345Y438600*
X294118Y437663*
X294118D02*
Y436100D01*
X294345Y435163*
X294345D02*
X294573Y434538D01*
X294573D02*
X295027Y433913D01*
X295027D02*
X295482Y433600D01*
X296391*
X296845Y433913*
X296845D02*
X297300Y434538D01*
X297300D02*
X297527Y435163D01*
X297527D02*
X297755Y436100D01*
Y437663*
X297755D02*
X297527Y438600D01*
X297300Y439225*
X296845Y439850*
X296391Y440163*
X296391D02*
X295482D01*
X262300Y425163D02*
Y418600D01*
Y425163D02*
X264345D01*
X264345D02*
X265027Y424850D01*
X265255Y424538*
X265255D02*
X265482Y423913D01*
X265482D02*
Y423288D01*
X265482D02*
X265255Y422663D01*
X265255D02*
X265027Y422350D01*
X264345Y422038*
X264345D02*
X262300D01*
X263891D02*
X265482Y418600D01*
X267527Y425163D02*
Y418600D01*
Y425163D02*
X270482D01*
X267527Y422038D02*
X269345D01*
X267527Y418600D02*
X270482D01*
X272527Y425163D02*
X274345Y418600D01*
X276164Y425163D02*
X274345Y418600D01*
X401218Y453625D02*
X401673Y454250D01*
X402355Y454563*
X402355D02*
X403264D01*
X403264D02*
X403945Y454250D01*
X404400Y453625*
Y453000*
X404173Y452375*
X403945Y452063*
X403945D02*
X403491Y451750D01*
X402127Y451125*
X401673Y450813*
X401673D02*
X401445Y450500D01*
X401218Y449875*
Y448938*
X401218D02*
X401673Y448313D01*
X401673D02*
X402355Y448000D01*
X403264*
X403945Y448313*
X403945D02*
X404400Y448938D01*
X397809Y454563D02*
X398264Y454250D01*
X398718Y453625*
X398945Y453000*
X399173Y452063*
X399173D02*
Y450500D01*
X398945Y449563*
X398945D02*
X398718Y448938D01*
X398718D02*
X398264Y448313D01*
X398264D02*
X397809Y448000D01*
X396900*
X396445Y448313*
X396445D02*
X395991Y448938D01*
X395991D02*
X395764Y449563D01*
X395764D02*
X395536Y450500D01*
Y452063*
X395536D02*
X395764Y453000D01*
X395991Y453625*
X396445Y454250*
X396900Y454563*
X396900D02*
X397809D01*
X393491D02*
Y448000D01*
X390764*
X388718Y454563D02*
Y448000D01*
Y454563D02*
X387127D01*
X387127D02*
X386445Y454250D01*
X385991Y453625*
X385764Y453000*
X385536Y452063*
X385536D02*
Y450500D01*
X385764Y449563*
X385764D02*
X385991Y448938D01*
X385991D02*
X386445Y448313D01*
X386445D02*
X387127Y448000D01*
X388718*
X383491Y454563D02*
Y448000D01*
Y454563D02*
X380536D01*
X383491Y451438D02*
X381673D01*
X383491Y448000D02*
X380536D01*
X378491Y454563D02*
Y448000D01*
Y454563D02*
X376445D01*
X376445D02*
X375764Y454250D01*
X375536Y453938*
X375536D02*
X375309Y453313D01*
X375309D02*
Y452688D01*
X375309D02*
X375536Y452063D01*
X375536D02*
X375764Y451750D01*
X376445Y451438*
X376445D02*
X378491D01*
X376900D02*
X375309Y448000D01*
X366445Y455813D02*
X366900Y455188D01*
X366900D02*
X367355Y454250D01*
X367809Y453000*
X368036Y451438*
X368036D02*
Y450188D01*
X368036D02*
X367809Y448625D01*
X367355Y447375*
X366900Y446437*
X366900D02*
X366445Y445812D01*
X364400Y454563D02*
Y448000D01*
Y454563D02*
X362355D01*
X362355D02*
X361673Y454250D01*
X361445Y453938*
X361445D02*
X361218Y453313D01*
X361218D02*
Y452688D01*
X361218D02*
X361445Y452063D01*
X361445D02*
X361673Y451750D01*
X362355Y451438*
X364400D02*
X362355D01*
X362355D02*
X361673Y451125D01*
X361445Y450813*
X361445D02*
X361218Y450188D01*
X361218D02*
Y449250D01*
X361445Y448625*
X361673Y448313*
X361673D02*
X362355Y448000D01*
X364400*
X357809Y454563D02*
X358264Y454250D01*
X358718Y453625*
X358945Y453000*
X359173Y452063*
X359173D02*
Y450500D01*
X358945Y449563*
X358945D02*
X358718Y448938D01*
X358718D02*
X358264Y448313D01*
X358264D02*
X357809Y448000D01*
X356900*
X356445Y448313*
X356445D02*
X355991Y448938D01*
X355991D02*
X355764Y449563D01*
X355764D02*
X355536Y450500D01*
Y452063*
X355536D02*
X355764Y453000D01*
X355991Y453625*
X356445Y454250*
X356900Y454563*
X356900D02*
X357809D01*
X351900D02*
Y448000D01*
X353491Y454563D02*
X350309D01*
X346673D02*
Y448000D01*
X348264Y454563D02*
X345082D01*
X341673D02*
X342127Y454250D01*
X342582Y453625*
X342809Y453000*
X343036Y452063*
X343036D02*
Y450500D01*
X342809Y449563*
X342809D02*
X342582Y448938D01*
X342582D02*
X342127Y448313D01*
X342127D02*
X341673Y448000D01*
X340764*
X340309Y448313*
X340309D02*
X339855Y448938D01*
X339855D02*
X339627Y449563D01*
X339627D02*
X339400Y450500D01*
Y452063*
X339400D02*
X339627Y453000D01*
X339855Y453625*
X340309Y454250*
X340764Y454563*
X340764D02*
X341673D01*
X337355D02*
Y448000D01*
Y454563D02*
X335536Y448000D01*
X333718Y454563D02*
X335536Y448000D01*
X333718Y454563D02*
Y448000D01*
X331673Y455813D02*
X331218Y455188D01*
X331218D02*
X330764Y454250D01*
X330309Y453000*
X330082Y451438*
X330082D02*
Y450188D01*
X330082D02*
X330309Y448625D01*
X330764Y447375*
X331218Y446437*
X331218D02*
X331673Y445812D01*
X319627Y453625D02*
X320082Y454250D01*
X320764Y454563*
X320764D02*
X321673D01*
X321673D02*
X322355Y454250D01*
X322809Y453625*
Y453000*
X322582Y452375*
X322355Y452063*
X322355D02*
X321900Y451750D01*
X320536Y451125*
X320082Y450813*
X320082D02*
X319855Y450500D01*
X319627Y449875*
Y448938*
X319627D02*
X320082Y448313D01*
X320082D02*
X320764Y448000D01*
X321673*
X322355Y448313*
X322355D02*
X322809Y448938D01*
X317582Y454563D02*
Y448000D01*
X315536Y454563D02*
Y448000D01*
Y454563D02*
X313945D01*
X313945D02*
X313264Y454250D01*
X312809Y453625*
X312582Y453000*
X312355Y452063*
X312355D02*
Y450500D01*
X312582Y449563*
X312582D02*
X312809Y448938D01*
X312809D02*
X313264Y448313D01*
X313264D02*
X313945Y448000D01*
X315536*
X310309Y454563D02*
Y448000D01*
Y454563D02*
X307355D01*
X310309Y451438D02*
X308491D01*
X310309Y448000D02*
X307355D01*
X322300Y438913D02*
X322755Y439225D01*
X323436Y440163*
X323436D02*
Y433600D01*
X328664Y440163D02*
X326391Y433600D01*
X325482Y440163D02*
X328664D01*
X330709Y436413D02*
X334800D01*
X339573Y439225D02*
X339345Y439850D01*
X338664Y440163*
X338664D02*
X338209D01*
X338209D02*
X337527Y439850D01*
X337073Y438913*
X337073D02*
X336845Y437350D01*
Y435788*
X336845D02*
X337073Y434538D01*
X337073D02*
X337527Y433913D01*
X337527D02*
X338209Y433600D01*
X338436*
X339118Y433913*
X339118D02*
X339573Y434538D01*
X339573D02*
X339800Y435475D01*
Y435788*
X339800D02*
X339573Y436725D01*
X339118Y437350*
X338436Y437663*
X338436D02*
X338209D01*
X338209D02*
X337527Y437350D01*
X337073Y436725*
X336845Y435788*
X343209Y440163D02*
X342527Y439850D01*
X342073Y438913*
X342073D02*
X341845Y437350D01*
Y436413*
X341845D02*
X342073Y434850D01*
X342527Y433913*
X342527D02*
X343209Y433600D01*
X343664*
X344345Y433913*
X344345D02*
X344800Y434850D01*
X345027Y436413*
X345027D02*
Y437350D01*
X344800Y438913*
X344800D02*
X344345Y439850D01*
X343664Y440163*
X343664D02*
X343209D01*
X348436D02*
X347755Y439850D01*
X347300Y438913*
X347300D02*
X347073Y437350D01*
Y436413*
X347073D02*
X347300Y434850D01*
X347755Y433913*
X347755D02*
X348436Y433600D01*
X348891*
X349573Y433913*
X349573D02*
X350027Y434850D01*
X350255Y436413*
X350255D02*
Y437350D01*
X350027Y438913*
X350027D02*
X349573Y439850D01*
X348891Y440163*
X348891D02*
X348436D01*
X354573D02*
X352300Y435788D01*
X352300D02*
X355709D01*
X354573Y440163D02*
Y433600D01*
X357755Y438913D02*
X358209Y439225D01*
X358891Y440163*
X358891D02*
Y433600D01*
X360936Y438913D02*
X361391Y439225D01*
X362073Y440163*
X362073D02*
Y433600D01*
X364118Y436413D02*
X368209D01*
X371618Y440163D02*
X370936Y439850D01*
X370482Y438913*
X370482D02*
X370255Y437350D01*
Y436413*
X370255D02*
X370482Y434850D01*
X370936Y433913*
X370936D02*
X371618Y433600D01*
X372073*
X372755Y433913*
X372755D02*
X373209Y434850D01*
X373436Y436413*
X373436D02*
Y437350D01*
X373209Y438913*
X373209D02*
X372755Y439850D01*
X372073Y440163*
X372073D02*
X371618D01*
X376845D02*
X376164Y439850D01*
X375709Y438913*
X375709D02*
X375482Y437350D01*
Y436413*
X375482D02*
X375709Y434850D01*
X376164Y433913*
X376164D02*
X376845Y433600D01*
X377300*
X377982Y433913*
X377982D02*
X378436Y434850D01*
X378664Y436413*
X378664D02*
Y437350D01*
X378436Y438913*
X378436D02*
X377982Y439850D01*
X377300Y440163*
X377300D02*
X376845D01*
X380709Y438913D02*
X381164Y439225D01*
X381845Y440163*
X381845D02*
Y433600D01*
X347300Y425163D02*
Y418600D01*
Y425163D02*
X349345D01*
X349345D02*
X350027Y424850D01*
X350255Y424538*
X350255D02*
X350482Y423913D01*
X350482D02*
Y423288D01*
X350482D02*
X350255Y422663D01*
X350255D02*
X350027Y422350D01*
X349345Y422038*
X347300D02*
X349345D01*
X349345D02*
X350027Y421725D01*
X350255Y421413*
X350255D02*
X350482Y420788D01*
X350482D02*
Y419850D01*
X350255Y419225*
X350027Y418913*
X350027D02*
X349345Y418600D01*
X347300*
X261300Y409663D02*
Y403100D01*
Y409663D02*
X262891D01*
X262891D02*
X263573Y409350D01*
X264027Y408725*
X264255Y408100*
X264482Y407163*
X264482D02*
Y405600D01*
X264255Y404663*
X264255D02*
X264027Y404038D01*
X264027D02*
X263573Y403413D01*
X263573D02*
X262891Y403100D01*
X261300*
X268345Y409663D02*
X266527Y403100D01*
X268345Y409663D02*
X270164Y403100D01*
X267209Y405288D02*
X269482D01*
X273800Y409663D02*
Y403100D01*
X272209Y409663D02*
X275391D01*
X277436D02*
Y403100D01*
Y409663D02*
X280391D01*
X277436Y406538D02*
X279255D01*
X277436Y403100D02*
X280391D01*
X322300Y408413D02*
X322755Y408725D01*
X323436Y409663*
X323436D02*
Y403100D01*
X327755Y409663D02*
X325482Y405288D01*
X325482D02*
X328891D01*
X327755Y409663D02*
Y403100D01*
X336164Y409663D02*
Y403100D01*
Y409663D02*
X339118D01*
X336164Y406538D02*
X337982D01*
X341164Y405600D02*
X343891D01*
Y406225*
X343664Y406850*
X343436Y407163*
X343436D02*
X342982Y407475D01*
X342300*
X341845Y407163*
X341845D02*
X341391Y406538D01*
X341391D02*
X341164Y405600D01*
Y404975*
X341391Y404038*
X341391D02*
X341845Y403413D01*
X341845D02*
X342300Y403100D01*
X342982*
X343436Y403413*
X343436D02*
X343891Y404038D01*
X345936Y409663D02*
Y403100D01*
Y406538D02*
X346391Y407163D01*
X346391D02*
X346845Y407475D01*
X347527*
X347982Y407163*
X347982D02*
X348436Y406538D01*
X348436D02*
X348664Y405600D01*
Y404975*
X348436Y404038*
X348436D02*
X347982Y403413D01*
X347982D02*
X347527Y403100D01*
X346845*
X346391Y403413*
X346391D02*
X345936Y404038D01*
X356164Y408100D02*
Y408413D01*
X356164D02*
X356391Y409038D01*
X356391D02*
X356618Y409350D01*
X357073Y409663*
X357073D02*
X357982D01*
X357982D02*
X358436Y409350D01*
X358664Y409038*
X358664D02*
X358891Y408413D01*
X358891D02*
Y407788D01*
X358891D02*
X358664Y407163D01*
X358664D02*
X358209Y406225D01*
X355936Y403100*
X359118*
X362527Y409663D02*
X361845Y409350D01*
X361391Y408413*
X361391D02*
X361164Y406850D01*
Y405913*
X361164D02*
X361391Y404350D01*
X361845Y403413*
X361845D02*
X362527Y403100D01*
X362982*
X363664Y403413*
X363664D02*
X364118Y404350D01*
X364345Y405913*
X364345D02*
Y406850D01*
X364118Y408413*
X364118D02*
X363664Y409350D01*
X362982Y409663*
X362982D02*
X362527D01*
X366391Y408413D02*
X366845Y408725D01*
X367527Y409663*
X367527D02*
Y403100D01*
X370027Y409663D02*
X372527D01*
X372527D02*
X371164Y407163D01*
X371164D02*
X371845D01*
X371845D02*
X372300Y406850D01*
X372527Y406538*
X372527D02*
X372755Y405600D01*
Y404975*
X372527Y404038*
X372527D02*
X372073Y403413D01*
X372073D02*
X371391Y403100D01*
X370709*
X370027Y403413*
X370027D02*
X369800Y403725D01*
X369573Y404350*
X88409Y477000D02*
X88182Y477625D01*
X87727Y478250*
X87273Y478563*
X87273D02*
X86364D01*
X86364D02*
X85909Y478250D01*
X85455Y477625*
X85227Y477000*
X85000Y476063*
X85000D02*
Y474500D01*
X85227Y473563*
X85227D02*
X85455Y472938D01*
X85455D02*
X85909Y472313D01*
X85909D02*
X86364Y472000D01*
X87273*
X87727Y472313*
X87727D02*
X88182Y472938D01*
X88182D02*
X88409Y473563D01*
X91818Y478563D02*
X91364Y478250D01*
X90909Y477625*
X90682Y477000*
X90455Y476063*
X90455D02*
Y474500D01*
X90682Y473563*
X90682D02*
X90909Y472938D01*
X90909D02*
X91364Y472313D01*
X91364D02*
X91818Y472000D01*
X92727*
X93182Y472313*
X93182D02*
X93636Y472938D01*
X93636D02*
X93864Y473563D01*
X93864D02*
X94091Y474500D01*
Y476063*
X94091D02*
X93864Y477000D01*
X93636Y477625*
X93182Y478250*
X92727Y478563*
X92727D02*
X91818D01*
X96136D02*
Y472000D01*
Y478563D02*
X97955Y472000D01*
X99773Y478563D02*
X97955Y472000D01*
X99773Y478563D02*
Y472000D01*
X101818Y478563D02*
Y472000D01*
Y478563D02*
X103864D01*
X103864D02*
X104545Y478250D01*
X104773Y477938*
X104773D02*
X105000Y477313D01*
X105000D02*
Y476375D01*
X104773Y475750*
X104545Y475438*
X104545D02*
X103864Y475125D01*
X101818*
X107045Y478563D02*
Y472000D01*
Y478563D02*
X109091D01*
X109091D02*
X109773Y478250D01*
X110000Y477938*
X110000D02*
X110227Y477313D01*
X110227D02*
Y476688D01*
X110227D02*
X110000Y476063D01*
X110000D02*
X109773Y475750D01*
X109091Y475438*
X109091D02*
X107045D01*
X108636D02*
X110227Y472000D01*
X112273Y478563D02*
Y472000D01*
Y478563D02*
X115227D01*
X112273Y475438D02*
X114091D01*
X112273Y472000D02*
X115227D01*
X120455Y477625D02*
X120000Y478250D01*
X119318Y478563*
X119318D02*
X118409D01*
X118409D02*
X117727Y478250D01*
X117273Y477625*
Y477000*
X117500Y476375*
X117727Y476063*
X117727D02*
X118182Y475750D01*
X119545Y475125*
X120000Y474813*
X120000D02*
X120227Y474500D01*
X120455Y473875*
Y472938*
X120455D02*
X120000Y472313D01*
X120000D02*
X119318Y472000D01*
X118409*
X117727Y472313*
X117727D02*
X117273Y472938D01*
X125682Y477625D02*
X125227Y478250D01*
X124545Y478563*
X124545D02*
X123636D01*
X123636D02*
X122955Y478250D01*
X122500Y477625*
Y477000*
X122727Y476375*
X122955Y476063*
X122955D02*
X123409Y475750D01*
X124773Y475125*
X125227Y474813*
X125227D02*
X125455Y474500D01*
X125682Y473875*
Y472938*
X125682D02*
X125227Y472313D01*
X125227D02*
X124545Y472000D01*
X123636*
X122955Y472313*
X122955D02*
X122500Y472938D01*
X129091Y478563D02*
X128636Y478250D01*
X128182Y477625*
X127955Y477000*
X127727Y476063*
X127727D02*
Y474500D01*
X127955Y473563*
X127955D02*
X128182Y472938D01*
X128182D02*
X128636Y472313D01*
X128636D02*
X129091Y472000D01*
X130000*
X130455Y472313*
X130455D02*
X130909Y472938D01*
X130909D02*
X131136Y473563D01*
X131136D02*
X131364Y474500D01*
Y476063*
X131364D02*
X131136Y477000D01*
X130909Y477625*
X130455Y478250*
X130000Y478563*
X130000D02*
X129091D01*
X133409D02*
Y472000D01*
Y478563D02*
X135455D01*
X135455D02*
X136136Y478250D01*
X136364Y477938*
X136364D02*
X136591Y477313D01*
X136591D02*
Y476688D01*
X136591D02*
X136364Y476063D01*
X136364D02*
X136136Y475750D01*
X135455Y475438*
X135455D02*
X133409D01*
X135000D02*
X136591Y472000D01*
X147273Y477000D02*
X147045Y477625D01*
X146591Y478250*
X146136Y478563*
X146136D02*
X145227D01*
X145227D02*
X144773Y478250D01*
X144318Y477625*
X144091Y477000*
X143864Y476063*
X143864D02*
Y474500D01*
X144091Y473563*
X144091D02*
X144318Y472938D01*
X144318D02*
X144773Y472313D01*
X144773D02*
X145227Y472000D01*
X146136*
X146591Y472313*
X146591D02*
X147045Y472938D01*
X147045D02*
X147273Y473563D01*
X150682Y478563D02*
X150227Y478250D01*
X149773Y477625*
X149545Y477000*
X149318Y476063*
X149318D02*
Y474500D01*
X149545Y473563*
X149545D02*
X149773Y472938D01*
X149773D02*
X150227Y472313D01*
X150227D02*
X150682Y472000D01*
X151591*
X152045Y472313*
X152045D02*
X152500Y472938D01*
X152500D02*
X152727Y473563D01*
X152727D02*
X152955Y474500D01*
Y476063*
X152955D02*
X152727Y477000D01*
X152500Y477625*
X152045Y478250*
X151591Y478563*
X151591D02*
X150682D01*
X155000D02*
Y472000D01*
Y478563D02*
X158182Y472000D01*
Y478563D02*
Y472000D01*
X161818Y478563D02*
Y472000D01*
X160227Y478563D02*
X163409D01*
X165455D02*
Y472000D01*
Y478563D02*
X167500D01*
X167500D02*
X168182Y478250D01*
X168409Y477938*
X168409D02*
X168636Y477313D01*
X168636D02*
Y476688D01*
X168636D02*
X168409Y476063D01*
X168409D02*
X168182Y475750D01*
X167500Y475438*
X167500D02*
X165455D01*
X167045D02*
X168636Y472000D01*
X172045Y478563D02*
X171591Y478250D01*
X171136Y477625*
X170909Y477000*
X170682Y476063*
X170682D02*
Y474500D01*
X170909Y473563*
X170909D02*
X171136Y472938D01*
X171136D02*
X171591Y472313D01*
X171591D02*
X172045Y472000D01*
X172955*
X173409Y472313*
X173409D02*
X173864Y472938D01*
X173864D02*
X174091Y473563D01*
X174091D02*
X174318Y474500D01*
Y476063*
X174318D02*
X174091Y477000D01*
X173864Y477625*
X173409Y478250*
X172955Y478563*
X172955D02*
X172045D01*
X176364D02*
Y472000D01*
X179091*
X184318Y477625D02*
X183864Y478250D01*
X183182Y478563*
X183182D02*
X182273D01*
X182273D02*
X181591Y478250D01*
X181136Y477625*
Y477000*
X181364Y476375*
X181591Y476063*
X181591D02*
X182045Y475750D01*
X183409Y475125*
X183864Y474813*
X183864D02*
X184091Y474500D01*
X184318Y473875*
Y472938*
X184318D02*
X183864Y472313D01*
X183864D02*
X183182Y472000D01*
X182273*
X181591Y472313*
X181591D02*
X181136Y472938D01*
X195000Y477000D02*
X194773Y477625D01*
X194318Y478250*
X193864Y478563*
X193864D02*
X192955D01*
X192955D02*
X192500Y478250D01*
X192045Y477625*
X191818Y477000*
X191591Y476063*
X191591D02*
Y474500D01*
X191818Y473563*
X191818D02*
X192045Y472938D01*
X192045D02*
X192500Y472313D01*
X192500D02*
X192955Y472000D01*
X193864*
X194318Y472313*
X194318D02*
X194773Y472938D01*
X194773D02*
X195000Y473563D01*
X198409Y478563D02*
X197955Y478250D01*
X197500Y477625*
X197273Y477000*
X197045Y476063*
X197045D02*
Y474500D01*
X197273Y473563*
X197273D02*
X197500Y472938D01*
X197500D02*
X197955Y472313D01*
X197955D02*
X198409Y472000D01*
X199318*
X199773Y472313*
X199773D02*
X200227Y472938D01*
X200227D02*
X200455Y473563D01*
X200455D02*
X200682Y474500D01*
Y476063*
X200682D02*
X200455Y477000D01*
X200227Y477625*
X199773Y478250*
X199318Y478563*
X199318D02*
X198409D01*
X202727D02*
Y472000D01*
Y478563D02*
X204773D01*
X204773D02*
X205455Y478250D01*
X205682Y477938*
X205682D02*
X205909Y477313D01*
X205909D02*
Y476688D01*
X205909D02*
X205682Y476063D01*
X205682D02*
X205455Y475750D01*
X204773Y475438*
X204773D02*
X202727D01*
X204318D02*
X205909Y472000D01*
X207955Y478563D02*
Y472000D01*
Y478563D02*
X210000D01*
X210000D02*
X210682Y478250D01*
X210909Y477938*
X210909D02*
X211136Y477313D01*
X211136D02*
Y476375D01*
X210909Y475750*
X210682Y475438*
X210682D02*
X210000Y475125D01*
X207955*
X214545Y478563D02*
X214091Y478250D01*
X213636Y477625*
X213409Y477000*
X213182Y476063*
X213182D02*
Y474500D01*
X213409Y473563*
X213409D02*
X213636Y472938D01*
X213636D02*
X214091Y472313D01*
X214091D02*
X214545Y472000D01*
X215455*
X215909Y472313*
X215909D02*
X216364Y472938D01*
X216364D02*
X216591Y473563D01*
X216591D02*
X216818Y474500D01*
Y476063*
X216818D02*
X216591Y477000D01*
X216364Y477625*
X215909Y478250*
X215455Y478563*
X215455D02*
X214545D01*
X218864D02*
Y472000D01*
Y478563D02*
X220909D01*
X220909D02*
X221591Y478250D01*
X221818Y477938*
X221818D02*
X222045Y477313D01*
X222045D02*
Y476688D01*
X222045D02*
X221818Y476063D01*
X221818D02*
X221591Y475750D01*
X220909Y475438*
X220909D02*
X218864D01*
X220455D02*
X222045Y472000D01*
X225909Y478563D02*
X224091Y472000D01*
X225909Y478563D02*
X227727Y472000D01*
X224773Y474188D02*
X227045D01*
X231364Y478563D02*
Y472000D01*
X229773Y478563D02*
X232955D01*
X235000D02*
Y472000D01*
X238409Y478563D02*
X237955Y478250D01*
X237500Y477625*
X237273Y477000*
X237045Y476063*
X237045D02*
Y474500D01*
X237273Y473563*
X237273D02*
X237500Y472938D01*
X237500D02*
X237955Y472313D01*
X237955D02*
X238409Y472000D01*
X239318*
X239773Y472313*
X239773D02*
X240227Y472938D01*
X240227D02*
X240455Y473563D01*
X240455D02*
X240682Y474500D01*
Y476063*
X240682D02*
X240455Y477000D01*
X240227Y477625*
X239773Y478250*
X239318Y478563*
X239318D02*
X238409D01*
X242727D02*
Y472000D01*
Y478563D02*
X245909Y472000D01*
Y478563D02*
Y472000D01*
X84500Y463313D02*
X84955Y463625D01*
X85636Y464563*
X85636D02*
Y458000D01*
X90864Y464563D02*
X88591Y458000D01*
X87682Y464563D02*
X90864D01*
X92909Y460813D02*
X97000D01*
X101773Y463625D02*
X101545Y464250D01*
X100864Y464563*
X100864D02*
X100409D01*
X100409D02*
X99727Y464250D01*
X99273Y463313*
X99273D02*
X99045Y461750D01*
Y460188*
X99045D02*
X99273Y458938D01*
X99273D02*
X99727Y458313D01*
X99727D02*
X100409Y458000D01*
X100636*
X101318Y458313*
X101318D02*
X101773Y458938D01*
X101773D02*
X102000Y459875D01*
Y460188*
X102000D02*
X101773Y461125D01*
X101318Y461750*
X100636Y462063*
X100636D02*
X100409D01*
X100409D02*
X99727Y461750D01*
X99273Y461125*
X99045Y460188*
X105409Y464563D02*
X104727Y464250D01*
X104273Y463313*
X104273D02*
X104045Y461750D01*
Y460813*
X104045D02*
X104273Y459250D01*
X104727Y458313*
X104727D02*
X105409Y458000D01*
X105864*
X106545Y458313*
X106545D02*
X107000Y459250D01*
X107227Y460813*
X107227D02*
Y461750D01*
X107000Y463313*
X107000D02*
X106545Y464250D01*
X105864Y464563*
X105864D02*
X105409D01*
X110636D02*
X109955Y464250D01*
X109500Y463313*
X109500D02*
X109273Y461750D01*
Y460813*
X109273D02*
X109500Y459250D01*
X109955Y458313*
X109955D02*
X110636Y458000D01*
X111091*
X111773Y458313*
X111773D02*
X112227Y459250D01*
X112455Y460813*
X112455D02*
Y461750D01*
X112227Y463313*
X112227D02*
X111773Y464250D01*
X111091Y464563*
X111091D02*
X110636D01*
X116773D02*
X114500Y460188D01*
X114500D02*
X117909D01*
X116773Y464563D02*
Y458000D01*
X119955Y463313D02*
X120409Y463625D01*
X121091Y464563*
X121091D02*
Y458000D01*
X123136Y463313D02*
X123591Y463625D01*
X124273Y464563*
X124273D02*
Y458000D01*
X126318Y460813D02*
X130409D01*
X133818Y464563D02*
X133136Y464250D01*
X132682Y463313*
X132682D02*
X132455Y461750D01*
Y460813*
X132455D02*
X132682Y459250D01*
X133136Y458313*
X133136D02*
X133818Y458000D01*
X134273*
X134955Y458313*
X134955D02*
X135409Y459250D01*
X135636Y460813*
X135636D02*
Y461750D01*
X135409Y463313*
X135409D02*
X134955Y464250D01*
X134273Y464563*
X134273D02*
X133818D01*
X139045D02*
X138364Y464250D01*
X137909Y463313*
X137909D02*
X137682Y461750D01*
Y460813*
X137682D02*
X137909Y459250D01*
X138364Y458313*
X138364D02*
X139045Y458000D01*
X139500*
X140182Y458313*
X140182D02*
X140636Y459250D01*
X140864Y460813*
X140864D02*
Y461750D01*
X140636Y463313*
X140636D02*
X140182Y464250D01*
X139500Y464563*
X139500D02*
X139045D01*
X142909Y463313D02*
X143364Y463625D01*
X144045Y464563*
X144045D02*
Y458000D01*
X151318Y464563D02*
Y458000D01*
Y464563D02*
X153364D01*
X153364D02*
X154045Y464250D01*
X154273Y463938*
X154273D02*
X154500Y463313D01*
X154500D02*
Y462688D01*
X154500D02*
X154273Y462063D01*
X154273D02*
X154045Y461750D01*
X153364Y461438*
X153364D02*
X151318D01*
X152909D02*
X154500Y458000D01*
X156545Y464563D02*
Y458000D01*
Y464563D02*
X159500D01*
X156545Y461438D02*
X158364D01*
X156545Y458000D02*
X159500D01*
X161545Y464563D02*
X163364Y458000D01*
X165182Y464563D02*
X163364Y458000D01*
X172455Y464563D02*
Y458000D01*
Y464563D02*
X174500D01*
X174500D02*
X175182Y464250D01*
X175409Y463938*
X175409D02*
X175636Y463313D01*
X175636D02*
Y462688D01*
X175636D02*
X175409Y462063D01*
X175409D02*
X175182Y461750D01*
X174500Y461438*
X172455D02*
X174500D01*
X174500D02*
X175182Y461125D01*
X175409Y460813*
X175409D02*
X175636Y460188D01*
X175636D02*
Y459250D01*
X175409Y458625*
X175182Y458313*
X175182D02*
X174500Y458000D01*
X172455*
X86000Y451563D02*
Y445000D01*
Y451563D02*
X87591D01*
X87591D02*
X88273Y451250D01*
X88727Y450625*
X88955Y450000*
X89182Y449063*
X89182D02*
Y447500D01*
X88955Y446563*
X88955D02*
X88727Y445938D01*
X88727D02*
X88273Y445313D01*
X88273D02*
X87591Y445000D01*
X86000*
X93045Y451563D02*
X91227Y445000D01*
X93045Y451563D02*
X94864Y445000D01*
X91909Y447188D02*
X94182D01*
X98500Y451563D02*
Y445000D01*
X96909Y451563D02*
X100091D01*
X102136D02*
Y445000D01*
Y451563D02*
X105091D01*
X102136Y448438D02*
X103955D01*
X102136Y445000D02*
X105091D01*
X107364Y449375D02*
X107136Y449063D01*
X107136D02*
X107364Y448750D01*
X107591Y449063*
X107591D02*
X107364Y449375D01*
Y445625D02*
X107136Y445313D01*
X107136D02*
X107364Y445000D01*
X107591Y445313*
X107591D02*
X107364Y445625D01*
X116227Y451563D02*
X115545Y451250D01*
X115091Y450313*
X115091D02*
X114864Y448750D01*
Y447813*
X114864D02*
X115091Y446250D01*
X115545Y445313*
X115545D02*
X116227Y445000D01*
X116682*
X117364Y445313*
X117364D02*
X117818Y446250D01*
X118045Y447813*
X118045D02*
Y448750D01*
X117818Y450313*
X117818D02*
X117364Y451250D01*
X116682Y451563*
X116682D02*
X116227D01*
X120318Y450000D02*
Y450313D01*
X120318D02*
X120545Y450938D01*
X120545D02*
X120773Y451250D01*
X121227Y451563*
X121227D02*
X122136D01*
X122136D02*
X122591Y451250D01*
X122818Y450938*
X122818D02*
X123045Y450313D01*
X123045D02*
Y449688D01*
X123045D02*
X122818Y449063D01*
X122818D02*
X122364Y448125D01*
X120091Y445000*
X123273*
X125318Y447813D02*
X129409D01*
X131455Y450313D02*
X131909Y450625D01*
X132591Y451563*
X132591D02*
Y445000D01*
X136909Y451563D02*
X134636Y447188D01*
X134636D02*
X138045D01*
X136909Y451563D02*
Y445000D01*
X140091Y447813D02*
X144182D01*
X146227Y450313D02*
X146682Y450625D01*
X147364Y451563*
X147364D02*
Y445000D01*
X149864Y451563D02*
X152364D01*
X152364D02*
X151000Y449063D01*
X151000D02*
X151682D01*
X151682D02*
X152136Y448750D01*
X152364Y448438*
X152364D02*
X152591Y447500D01*
Y446875*
X152364Y445938*
X152364D02*
X151909Y445313D01*
X151909D02*
X151227Y445000D01*
X150545*
X149864Y445313*
X149864D02*
X149636Y445625D01*
X149409Y446250*
X293800Y366074D02*
X294797Y364377D01*
X294295Y365579*
X295497Y365077*
X293800Y366074*
X294431Y365000D02*
X294537D01*
X293843Y366000D02*
X293926D01*
X294000Y365734D02*
Y365957D01*
X295000Y365285D02*
Y365369D01*
X258169Y366513D02*
X260342D01*
X261272Y367443*
X292431*
X294134Y365748D02*
X295497Y364385D01*
Y364377*
X292431Y367443*
X252300Y478600D02*
X412300D01*
Y398600*
X252300*
Y478600*
Y458600D02*
X412300D01*
X252300Y443600D02*
X412300D01*
X252300Y428600D02*
X412300D01*
X302300Y458600D02*
Y398600D01*
X252300Y413600D02*
X412300D01*
X407500Y222500D02*
X417500D01*
Y182500*
X407500*
Y222500*
Y192500D02*
X417500D01*
X407500Y202500D02*
X417500D01*
X407500Y212500D02*
X417500D01*
G54D28*
X286114Y471000D02*
X285773Y471938D01*
X285773D02*
X285091Y472875D01*
X284409Y473344*
X283045*
X282364Y472875*
X281682Y471938*
X281682D02*
X281341Y471000D01*
X281000Y469594*
Y467250*
X281341Y465844*
X281682Y464906*
X282364Y463969*
X283045Y463500*
X284409*
X285091Y463969*
X285773Y464906*
X286114Y465844*
X291909Y473344D02*
X289182Y463500D01*
X291909Y473344D02*
X294636Y463500D01*
X290205Y466781D02*
X293614D01*
X302818Y471000D02*
X302477Y471938D01*
X302477D02*
X301795Y472875D01*
X301114Y473344*
X299750*
X299068Y472875*
X298386Y471938*
X298386D02*
X298045Y471000D01*
X297705Y469594*
Y467250*
X298045Y465844*
X298386Y464906*
X299068Y463969*
X299750Y463500*
X301114*
X301795Y463969*
X302477Y464906*
X302818Y465844*
X313727Y467719D02*
X319864D01*
X330773Y473344D02*
Y463500D01*
Y473344D02*
X335205D01*
X330773Y468656D02*
X333500D01*
X330773Y463500D02*
X335205D01*
X343386Y471000D02*
X343045Y471938D01*
X343045D02*
X342364Y472875D01*
X341682Y473344*
X340318*
X339636Y472875*
X338955Y471938*
X338955D02*
X338614Y471000D01*
X338273Y469594*
Y467250*
X338614Y465844*
X338955Y464906*
X339636Y463969*
X340318Y463500*
X341682*
X342364Y463969*
X343045Y464906*
X343386Y465844*
X349182Y473344D02*
X346455Y463500D01*
X349182Y473344D02*
X351909Y463500D01*
X347477Y466781D02*
X350886D01*
X357364Y473344D02*
Y463500D01*
X354977Y473344D02*
X359750D01*
X370659D02*
Y463500D01*
Y473344D02*
X375091D01*
X370659Y468656D02*
X373386D01*
X370659Y463500D02*
X375091D01*
X378159Y473344D02*
Y463500D01*
Y473344D02*
X382591D01*
X378159Y468656D02*
X380886D01*
X378159Y463500D02*
X382591D01*
X390773Y471000D02*
X390432Y471938D01*
X390432D02*
X389750Y472875D01*
X389068Y473344*
X387705*
X387023Y472875*
X386341Y471938*
X386341D02*
X386000Y471000D01*
X385659Y469594*
Y467250*
X386000Y465844*
X386341Y464906*
X387023Y463969*
X387705Y463500*
X389068*
X389750Y463969*
X390432Y464906*
X390773Y465844*
X250849Y306517D02*
X248768Y306835D01*
X250399Y306517*
X248768Y306199*
X250849Y306517*
X250000Y306387D02*
Y306439D01*
Y306595D02*
Y306647D01*
X261457Y326182D02*
X263937Y327443D01*
X262015Y326739*
X262719Y328661*
X261457Y326182*
X261619Y326500D02*
X262083D01*
X262382Y328000D02*
X262476D01*
X262000Y326458D02*
Y327249D01*
X263500Y327221D02*
Y327283D01*
X248449Y306517D02*
X258252D01*
X259866Y308132*
Y324591*
X263937Y328661*
G54D29*
X143294Y134540D02*
X144767Y128346D01*
X145867Y131968*
X149488Y133068*
X143294Y134540*
X144754Y128400D02*
X144783D01*
X144659Y128800D02*
X144905D01*
X144564Y129200D02*
X145026D01*
X144469Y129600D02*
X145148D01*
X144374Y130000D02*
X145269D01*
X144279Y130400D02*
X145391D01*
X144184Y130800D02*
X145512D01*
X144088Y131200D02*
X145634D01*
X143993Y131600D02*
X145755D01*
X143898Y132000D02*
X145973D01*
X143803Y132400D02*
X147290D01*
X143708Y132800D02*
X148607D01*
X143613Y133200D02*
X148932D01*
X143518Y133600D02*
X147249D01*
X143423Y134000D02*
X145567D01*
X143328Y134400D02*
X143885D01*
X143600Y133254D02*
Y134468D01*
X144000Y131572D02*
Y134373D01*
X144400Y129890D02*
Y134277D01*
X144800Y128455D02*
Y134182D01*
X145200Y129772D02*
Y134087D01*
X145600Y131089D02*
Y133992D01*
X146000Y132008D02*
Y133897D01*
X146400Y132130D02*
Y133802D01*
X146800Y132251D02*
Y133707D01*
X147200Y132373D02*
Y133612D01*
X147600Y132494D02*
Y133517D01*
X148000Y132616D02*
Y133422D01*
X148400Y132737D02*
Y133326D01*
X148800Y132859D02*
Y133231D01*
X149200Y132980D02*
Y133136D01*
X221965Y134610D02*
X223507Y128346D01*
X224607Y131968*
X228228Y133068*
X221965Y134610*
X223494Y128400D02*
X223523D01*
X223395Y128800D02*
X223645D01*
X223297Y129200D02*
X223766D01*
X223198Y129600D02*
X223888D01*
X223100Y130000D02*
X224009D01*
X223002Y130400D02*
X224131D01*
X222903Y130800D02*
X224252D01*
X222805Y131200D02*
X224374D01*
X222706Y131600D02*
X224495D01*
X222608Y132000D02*
X224713D01*
X222509Y132400D02*
X226030D01*
X222411Y132800D02*
X227347D01*
X222312Y133200D02*
X227691D01*
X222214Y133600D02*
X226066D01*
X222115Y134000D02*
X224441D01*
X222017Y134400D02*
X222816D01*
X222000Y134468D02*
Y134601D01*
X222400Y132844D02*
Y134503D01*
X222800Y131219D02*
Y134404D01*
X223200Y129594D02*
Y134306D01*
X223600Y128652D02*
Y134207D01*
X224000Y129969D02*
Y134109D01*
X224400Y131286D02*
Y134010D01*
X224800Y132026D02*
Y133912D01*
X225200Y132148D02*
Y133813D01*
X225600Y132269D02*
Y133715D01*
X226000Y132391D02*
Y133616D01*
X226400Y132512D02*
Y133518D01*
X226800Y132634D02*
Y133419D01*
X227200Y132755D02*
Y133321D01*
X227600Y132877D02*
Y133222D01*
X228000Y132998D02*
Y133124D01*
X300539Y134776D02*
X302247Y128346D01*
X303347Y131968*
X306969Y133068*
X300539Y134776*
X302233Y128400D02*
X302264D01*
X302127Y128800D02*
X302385D01*
X302020Y129200D02*
X302507D01*
X301914Y129600D02*
X302628D01*
X301808Y130000D02*
X302750D01*
X301702Y130400D02*
X302871D01*
X301595Y130800D02*
X302993D01*
X301489Y131200D02*
X303114D01*
X301383Y131600D02*
X303236D01*
X301277Y132000D02*
X303453D01*
X301170Y132400D02*
X304770D01*
X301064Y132800D02*
X306087D01*
X300958Y133200D02*
X306471D01*
X300852Y133600D02*
X304965D01*
X300745Y134000D02*
X303459D01*
X300639Y134400D02*
X301953D01*
X300800Y133794D02*
Y134706D01*
X301200Y132289D02*
Y134600D01*
X301600Y130783D02*
Y134494D01*
X302000Y129277D02*
Y134388D01*
X302400Y128849D02*
Y134281D01*
X302800Y130166D02*
Y134175D01*
X303200Y131483D02*
Y134069D01*
X303600Y132045D02*
Y133963D01*
X304000Y132166D02*
Y133856D01*
X304400Y132288D02*
Y133750D01*
X304800Y132409D02*
Y133644D01*
X305200Y132531D02*
Y133538D01*
X305600Y132652D02*
Y133431D01*
X306000Y132774D02*
Y133325D01*
X306400Y132895D02*
Y133219D01*
X306800Y133017D02*
Y133112D01*
X379741Y134314D02*
X380987Y128346D01*
X382087Y131968*
X385709Y133068*
X379741Y134314*
X380976Y128400D02*
X381004D01*
X380893Y128800D02*
X381125D01*
X380809Y129200D02*
X381247D01*
X380726Y129600D02*
X381368D01*
X380642Y130000D02*
X381490D01*
X380559Y130400D02*
X381611D01*
X380475Y130800D02*
X381733D01*
X380392Y131200D02*
X381854D01*
X380308Y131600D02*
X381976D01*
X380224Y132000D02*
X382194D01*
X380141Y132400D02*
X383510D01*
X380057Y132800D02*
X384827D01*
X379974Y133200D02*
X385075D01*
X379890Y133600D02*
X383160D01*
X379807Y134000D02*
X381244D01*
X380000Y133075D02*
Y134260D01*
X380400Y131159D02*
Y134176D01*
X380800Y129244D02*
Y134093D01*
X381200Y129046D02*
Y134009D01*
X381600Y130363D02*
Y133926D01*
X382000Y131680D02*
Y133842D01*
X382400Y132063D02*
Y133759D01*
X382800Y132184D02*
Y133675D01*
X383200Y132306D02*
Y133592D01*
X383600Y132427D02*
Y133508D01*
X384000Y132549D02*
Y133425D01*
X384400Y132670D02*
Y133341D01*
X384800Y132792D02*
Y133257D01*
X385200Y132913D02*
Y133174D01*
X385600Y133035D02*
Y133090D01*
X171599Y227638D02*
X169902Y226941D01*
X170892Y226931*
X170902Y225941*
X171599Y227638*
X170901Y226000D02*
X170926D01*
X170897Y226400D02*
X171091D01*
X170893Y226800D02*
X171255D01*
X170533Y227200D02*
X171419D01*
X171507Y227600D02*
X171584D01*
X170000Y226940D02*
Y226981D01*
X170400Y226936D02*
Y227145D01*
X170800Y226932D02*
Y227310D01*
X171200Y226666D02*
Y227474D01*
X178341Y227564D02*
X179038Y225867D01*
X179048Y226857*
X180038Y226867*
X178341Y227564*
X178983Y226000D02*
X179039D01*
X178819Y226400D02*
X179043D01*
X178655Y226800D02*
X179047D01*
X178490Y227200D02*
X179227D01*
X178400Y227420D02*
Y227540D01*
X178800Y226446D02*
Y227375D01*
X179200Y226858D02*
Y227211D01*
X179600Y226863D02*
Y227047D01*
X180000Y226867D02*
Y226883D01*
X254345Y354896D02*
X255474Y354947D01*
X254530Y355081*
X254396Y356025*
X254345Y354896*
X254359Y355200D02*
X254513D01*
X254377Y355600D02*
X254456D01*
X254395Y356000D02*
X254399D01*
X254400Y354899D02*
Y355994D01*
X254800Y354917D02*
Y355042D01*
X255200Y354935D02*
Y354986D01*
X246428Y359972D02*
X247640Y360051D01*
X246656Y360199*
X246508Y361183*
X246428Y359972*
X246430Y360000D02*
X246859D01*
X246457Y360400D02*
X246625D01*
X246483Y360800D02*
X246565D01*
X246800Y359996D02*
Y360177D01*
X247200Y360022D02*
Y360117D01*
X247600Y360049D02*
Y360057D01*
X254328Y236255D02*
X256025Y236952D01*
X255035Y236962*
X255025Y237952*
X254328Y236255*
X254388Y236400D02*
X254681D01*
X254552Y236800D02*
X255655D01*
X254716Y237200D02*
X255033D01*
X254880Y237600D02*
X255029D01*
X254400Y236285D02*
Y236430D01*
X254800Y236449D02*
Y237404D01*
X255200Y236613D02*
Y236960D01*
X255600Y236777D02*
Y236956D01*
X256000Y236942D02*
Y236952D01*
X256187Y235717D02*
X257867Y235010D01*
X257174Y235717*
X257867Y236424*
X256187Y235717*
X257415Y235200D02*
X257681D01*
X256465Y235600D02*
X257289D01*
X256859Y236000D02*
X257451D01*
X257810Y236400D02*
X257843D01*
X256400Y235627D02*
Y235807D01*
X256800Y235459D02*
Y235975D01*
X257200Y235291D02*
Y235690D01*
Y235744D02*
Y236143D01*
X257600Y235122D02*
Y235282D01*
Y236152D02*
Y236312D01*
X309883Y256194D02*
X308611Y255852D01*
X309533Y255844*
X309541Y254922*
X309883Y256194*
X309538Y255200D02*
X309615D01*
X309535Y255600D02*
X309723D01*
X309162Y256000D02*
X309831D01*
X308800Y255850D02*
Y255902D01*
X309200Y255847D02*
Y256010D01*
X309600Y255143D02*
Y256118D01*
X311975Y255962D02*
X312219Y254904D01*
X312214Y255723*
X313033Y255718*
X311975Y255962*
X312150Y255200D02*
X312217D01*
X312058Y255600D02*
X312215D01*
X312000Y255853D02*
Y255956D01*
X312400Y255722D02*
Y255864D01*
X312800Y255720D02*
Y255772D01*
X159922Y275538D02*
X158229Y276245D01*
X158922Y275538*
X158229Y274831*
X159922Y275538*
X158590Y275200D02*
X159112D01*
X158861Y275600D02*
X159774D01*
X158469Y276000D02*
X158817D01*
X158400Y274903D02*
Y275006D01*
Y276071D02*
Y276174D01*
X158800Y275070D02*
Y275414D01*
Y275663D02*
Y276007D01*
X159200Y275237D02*
Y275840D01*
X159600Y275404D02*
Y275673D01*
X164981Y264645D02*
X163288Y265352D01*
X163981Y264645*
X163288Y263938*
X164981Y264645*
X163349Y264000D02*
X163437D01*
X163741Y264400D02*
X164394D01*
X163829Y264800D02*
X164610D01*
X163437Y265200D02*
X163652D01*
X163600Y264068D02*
Y264256D01*
Y265034D02*
Y265222D01*
X164000Y264235D02*
Y265055D01*
X164400Y264402D02*
Y264888D01*
X164800Y264569D02*
Y264721D01*
X238707Y338471D02*
X239623Y338451D01*
X238782Y338545*
X238687Y339387*
X238707Y338471*
X238700Y338800D02*
X238753D01*
X238691Y339200D02*
X238708D01*
X238800Y338469D02*
Y338543D01*
X239200Y338460D02*
Y338499D01*
X239600Y338452D02*
Y338454D01*
X175057Y264328D02*
X176750Y263621D01*
X176057Y264328*
X176750Y265035*
X175057Y264328*
X175842Y264000D02*
X176378D01*
X175229Y264400D02*
X176128D01*
X176187Y264800D02*
X176520D01*
X175200Y264268D02*
Y264388D01*
X175600Y264101D02*
Y264555D01*
X176000Y263934D02*
Y264722D01*
X176400Y263767D02*
Y263978D01*
Y264678D02*
Y264889D01*
X259717Y275777D02*
X258024Y276484D01*
X258717Y275777*
X258024Y275070*
X259717Y275777*
X258152Y275200D02*
X258336D01*
X258544Y275600D02*
X259293D01*
X258498Y276000D02*
X259183D01*
X258107Y276400D02*
X258225D01*
X258400Y275227D02*
Y275453D01*
Y276101D02*
Y276327D01*
X258800Y275394D02*
Y276160D01*
X259200Y275561D02*
Y275993D01*
X259600Y275728D02*
Y275826D01*
X265691Y359979D02*
X265616Y361177D01*
X265470Y360199*
X264493Y360053*
X265691Y359979*
X265349Y360000D02*
X265689D01*
X265500Y360400D02*
X265664D01*
X265560Y360800D02*
X265639D01*
X264800Y360034D02*
Y360099D01*
X265200Y360009D02*
Y360159D01*
X265600Y359984D02*
Y361069D01*
X269969Y264587D02*
X271662Y263880D01*
X270969Y264587*
X271662Y265294*
X269969Y264587*
X271374Y264000D02*
X271544D01*
X270417Y264400D02*
X271152D01*
X270479Y264800D02*
X271178D01*
X271437Y265200D02*
X271570D01*
X270000Y264574D02*
Y264600D01*
X270400Y264407D02*
Y264767D01*
X270800Y264240D02*
Y264934D01*
X271200Y264073D02*
Y264351D01*
Y264823D02*
Y265101D01*
X271600Y263906D02*
Y263943D01*
Y265231D02*
Y265268D01*
X259897Y264392D02*
X258204Y265099D01*
X258897Y264392*
X258204Y263685*
X259897Y264392*
X258513Y264000D02*
X258959D01*
X258889Y264400D02*
X259878D01*
X258497Y264800D02*
X258920D01*
X258400Y263767D02*
Y263885D01*
Y264899D02*
Y265017D01*
X258800Y263934D02*
Y264293D01*
Y264491D02*
Y264850D01*
X259200Y264101D02*
Y264683D01*
X259600Y264268D02*
Y264516D01*
X238499Y336382D02*
X238618Y335063D01*
X238618D02*
X238782Y336100D01*
X239818Y336264*
X238499Y336382*
X238605Y335200D02*
X238639D01*
X238570Y335600D02*
X238702D01*
X238534Y336000D02*
X238766D01*
X238800Y336103D02*
Y336356D01*
X239200Y336166D02*
Y336320D01*
X239600Y336230D02*
Y336284D01*
X273497Y338393D02*
X273468Y339460D01*
X273344Y338545*
X272430Y338422*
X273497Y338393*
X273232Y338400D02*
X273497D01*
X273379Y338800D02*
X273486D01*
X273433Y339200D02*
X273475D01*
X272800Y338412D02*
Y338472D01*
X273200Y338401D02*
Y338526D01*
X273546Y336302D02*
X272384Y336240D01*
X273344Y336100*
X273484Y335140*
X273546Y336302*
X273475Y335200D02*
X273487D01*
X273417Y335600D02*
X273509D01*
X273359Y336000D02*
X273530D01*
X272400Y336238D02*
Y336241D01*
X272800Y336180D02*
Y336262D01*
X273200Y336121D02*
Y336284D01*
X254358Y352808D02*
X254400Y351703D01*
X254530Y352636*
X255462Y352766*
X254358Y352808*
X254388Y352000D02*
X254441D01*
X254373Y352400D02*
X254497D01*
X254358Y352800D02*
X254558D01*
X254400Y351705D02*
Y352806D01*
X254800Y352673D02*
Y352791D01*
X255200Y352729D02*
Y352776D01*
X246534Y357875D02*
X246544Y356869D01*
X246656Y357754*
X247541Y357866*
X246534Y357875*
X246540Y357200D02*
X246586D01*
X246537Y357600D02*
X246636D01*
X246800Y357772D02*
Y357873D01*
X247200Y357823D02*
Y357869D01*
X265601Y357884D02*
X264577Y357869D01*
X265470Y357754*
X265586Y356860*
X265601Y357884*
X265542Y357200D02*
X265591D01*
X265490Y357600D02*
X265597D01*
X264800Y357840D02*
Y357872D01*
X265200Y357789D02*
Y357878D01*
X265600Y357830D02*
Y357884D01*
X141099Y136161D02*
X141625Y136687D01*
Y149753*
X146771Y154899*
X141099Y136161D02*
X139128D01*
X135315Y139974*
Y142520*
X149488Y128346D02*
X142870Y134965D01*
Y149244*
X219754Y136674D02*
X220280Y137200D01*
Y152534*
X222033Y154287*
X231957*
X232957Y155287*
X234657*
X219754Y136674D02*
X215874D01*
X214055Y138493*
Y142520*
X228228Y128346D02*
X221541Y135034D01*
Y152024*
X297453Y135976D02*
X298874Y137397D01*
Y150737*
X301721Y153584*
X308443*
X309443Y154584*
X311143*
X297453Y135976D02*
X295108D01*
X292795Y138289*
Y142520*
X306969Y128346D02*
X300115Y135200D01*
Y150211*
X377010Y136370D02*
X378055Y137415D01*
Y151467*
X380901Y154312*
X377010Y136370D02*
X373853D01*
X371535Y138688*
Y142520*
X385709Y128346D02*
X379317Y134738D01*
Y150972*
X155532Y154899D02*
X156532Y155899D01*
X158232*
X155532Y154899D02*
X146771D01*
X142870Y149244D02*
X147285Y153659D01*
X155532*
X158232Y152659D02*
X156532D01*
X155532Y153659*
X221541Y152024D02*
X222564Y153047D01*
X231957*
X234657Y152047D02*
X232957D01*
X231957Y153047*
X300115Y150211D02*
X302248Y152344D01*
X308443*
X311143Y151344D02*
X309443D01*
X308443Y152344*
X383992Y154312D02*
X384992Y155312D01*
X386692*
X383992Y154312D02*
X380901D01*
X379317Y150972D02*
X381417Y153072D01*
X383992*
X386692Y152072D02*
X384992D01*
X383992Y153072*
X159141Y259939D02*
Y266757D01*
X163000Y270616*
X160381Y260472D02*
Y266239D01*
X164240Y270098*
Y274004*
X165872Y275635*
X172613*
X172123Y228162D02*
Y229623D01*
X169760Y231986*
Y249320*
X159141Y259939*
X169902Y225941D02*
X172123Y228162D01*
X180038Y225867D02*
X177405Y228500D01*
X175000*
X171000Y232500*
Y249853*
X160381Y260472*
X242883Y253682D02*
Y305913D01*
X252397Y315427*
Y352776*
X252853Y353232*
X241632Y253179D02*
Y306420D01*
X251157Y315946*
Y353292*
X252338Y354472*
X253921*
X256063Y356614*
X237569Y248732D02*
Y308876D01*
X244740Y316047*
Y357959*
X245080Y358299*
X236327Y248220D02*
Y309399D01*
X243500Y316572*
Y358475*
X244572Y359548*
X246004*
X248189Y361732*
X239946Y225718D02*
X239963Y225735D01*
X279132Y252434D02*
X284640Y257943D01*
X309997*
X279132Y252434D02*
X253140D01*
X250854Y254720*
X253654Y253674D02*
X253654D01*
X278618*
X284127Y259183*
X310513*
X253654Y253674D02*
X253654D01*
X252094Y255234*
X246312Y225554D02*
X253836Y233078D01*
Y235763*
X256025Y237952*
X246312Y225554D02*
X240144D01*
X239963Y225735*
X250854Y254720D02*
Y266951D01*
X253009Y269106*
X259321*
X262476Y272261*
X252094Y255234D02*
Y266437D01*
X253523Y267866*
X259835*
X263722Y271753*
Y275105*
X264526Y275909*
X250090Y225708D02*
Y227578D01*
X255076Y232564*
Y235207*
X255587Y235717*
X258574*
X310308Y256619D02*
Y257632D01*
X309997Y257943*
X308543Y254854D02*
X310308Y256619D01*
X313204Y254733D02*
X311551Y256386D01*
Y258146*
X310513Y259183*
X358943Y238740D02*
X359401Y239198D01*
Y241099*
X358943Y238740D02*
X348002D01*
X344514Y242228*
X244073*
X237569Y248732*
X359483Y237500D02*
X360642Y238659D01*
Y241142*
X362000Y242500*
X359483Y237500D02*
X347488D01*
X344000Y240988*
X243559*
X236327Y248220*
X359401Y241099D02*
X358000Y242500D01*
X383720Y239051D02*
X384372Y239703D01*
Y241128*
X383720Y239051D02*
X379007D01*
X370712Y247346*
X370712D02*
X249219D01*
X242883Y253682*
X384232Y237800D02*
X385612Y239181D01*
Y241112*
X387000Y242500*
X384232Y237800D02*
X378496D01*
X370190Y246106*
X370190D02*
X248706D01*
X248706D02*
X241632Y253179D01*
X384372Y241128D02*
X383000Y242500D01*
X163000Y270616D02*
Y274197D01*
X161659Y275538*
X157522*
X162581Y264645D02*
X167791D01*
X168721Y265575*
Y269160*
X169872Y270311*
X223219*
X230873Y277965*
Y335474*
X233446Y338047*
X238283*
X240315Y340079*
X169961Y268619D02*
X170413Y269071D01*
X180434*
X172613Y275635D02*
X172573Y275637D01*
X177457Y264328D02*
X171011D01*
X169961Y265378*
Y268619*
X223764Y269070D02*
X232124Y277430D01*
Y334931*
X234000Y336807*
X238075*
X223764Y269070D02*
X180435D01*
X180434Y269071*
X277481Y267319D02*
X276442Y268358D01*
Y269489*
X275384Y270547*
X277481Y267319D02*
X283441D01*
X285967Y269845*
X278000Y268559D02*
X277683Y268876D01*
Y269623*
X278000Y268559D02*
X282907D01*
X284723Y270375*
X262476Y272261D02*
Y274912D01*
X261611Y275777*
X257317*
X265314Y265446D02*
Y267800D01*
X265913Y268399*
X270107*
X276037Y274329*
Y298999*
X268833Y306204*
Y358328*
X267606Y359554*
X266115*
X263937Y361732*
X274797Y298469D02*
X267592Y305674D01*
Y357801*
X267085Y358309*
X266025*
X277683Y269623D02*
X278746Y270685D01*
X284723Y270375D02*
Y363528D01*
X283548Y364702*
X272596Y275907D02*
X272594Y275909D01*
X264526*
X272369Y264587D02*
X266173D01*
X265314Y265446*
X257497Y264392D02*
X263071D01*
X264074Y265396*
Y268347*
X265379Y269652*
X269573*
X274797Y274876*
Y298469*
X285967Y269845D02*
Y364070D01*
X284094Y365943*
X240315Y334567D02*
X238075Y336807D01*
X274838Y337968D02*
X275355Y338485D01*
Y364626*
X276672Y365943*
X284094*
X274838Y337968D02*
X273921D01*
X271811Y340079*
Y334567D02*
X273971Y336727D01*
X275377*
X276595Y337945*
Y364060*
X277236Y364702*
X283548*
X256063Y351102D02*
X253933Y353232D01*
X252853*
X248189Y356220D02*
X246110Y358299D01*
X245080*
X263937Y356220D02*
X266025Y358309D01*
G54D30*
X416346Y280922D02*
X415982Y281172D01*
X415437Y281922*
Y276672*
X411255Y281922D02*
X413073Y276672D01*
X413801Y281922D02*
X411255D01*
X409619Y278922D02*
X406346D01*
X402528Y281172D02*
X402710Y281672D01*
X403255Y281922*
X403619*
X404164Y281672*
X404528Y280922*
X404710Y279672*
Y278422*
X404528Y277422*
X404164Y276922*
X403619Y276672*
X403437*
X402891Y276922*
X402528Y277422*
X402346Y278172*
Y278422*
X402528Y279172*
X402891Y279672*
X403437Y279922*
X403619*
X404164Y279672*
X404528Y279172*
X404710Y278422*
X399619Y281922D02*
X400164Y281672D01*
X400528Y280922*
X400710Y279672*
Y278922*
X400528Y277672*
X400164Y276922*
X399619Y276672*
X399255*
X398710Y276922*
X398346Y277672*
X398164Y278922*
Y279672*
X398346Y280922*
X398710Y281672*
X399255Y281922*
X399619*
X395437D02*
X395982Y281672D01*
X396346Y280922*
X396528Y279672*
Y278922*
X396346Y277672*
X395982Y276922*
X395437Y276672*
X395073*
X394528Y276922*
X394164Y277672*
X393982Y278922*
Y279672*
X394164Y280922*
X394528Y281672*
X395073Y281922*
X395437*
X390528D02*
X392346Y278422D01*
X389619*
X390528Y281922D02*
Y276672D01*
X387982Y280922D02*
X387619Y281172D01*
X387073Y281922*
Y276672*
X385437Y280922D02*
X385073Y281172D01*
X384528Y281922*
Y276672*
X382891Y278922D02*
X379619D01*
X376891Y281922D02*
X377437Y281672D01*
X377801Y280922*
X377982Y279672*
Y278922*
X377801Y277672*
X377437Y276922*
X376891Y276672*
X376528*
X375982Y276922*
X375619Y277672*
X375437Y278922*
Y279672*
X375619Y280922*
X375982Y281672*
X376528Y281922*
X376891*
X372710D02*
X373255Y281672D01*
X373619Y280922*
X373801Y279672*
Y278922*
X373619Y277672*
X373255Y276922*
X372710Y276672*
X372346*
X371801Y276922*
X371437Y277672*
X371255Y278922*
Y279672*
X371437Y280922*
X371801Y281672*
X372346Y281922*
X372710*
X369619Y280922D02*
X369255Y281172D01*
X368710Y281922*
Y276672*
X358710Y281922D02*
Y276672D01*
Y281922D02*
X357073D01*
X356528Y281672*
X356346Y281422*
X356164Y280922*
Y280422*
X356346Y279922*
X356528Y279672*
X357073Y279422*
X358710*
X357437D02*
X356164Y276672D01*
X354528Y281922D02*
Y276672D01*
Y281922D02*
X352164D01*
X354528Y279422D02*
X353073D01*
X354528Y276672D02*
X352164D01*
X350528Y281922D02*
X349073Y276672D01*
X347619Y281922D02*
X349073Y276672D01*
X341801Y281922D02*
Y276672D01*
Y281922D02*
X340164D01*
X339619Y281672*
X339437Y281422*
X339255Y280922*
Y280422*
X339437Y279922*
X339619Y279672*
X340164Y279422*
X341801D02*
X340164D01*
X339619Y279172*
X339437Y278922*
X339255Y278422*
Y277672*
X339437Y277172*
X339619Y276922*
X340164Y276672*
X341801*
X415650Y268566D02*
Y263316D01*
Y268566D02*
X414195Y263316D01*
X412741Y268566D02*
X414195Y263316D01*
X412741Y268566D02*
Y263316D01*
X409650Y268566D02*
X411105Y263316D01*
X409650Y268566D02*
X408195Y263316D01*
X410559Y265066D02*
X408741D01*
X406559Y268566D02*
Y263316D01*
Y268566D02*
X405286D01*
X404741Y268316*
X404377Y267816*
X404195Y267316*
X404014Y266566*
Y265316*
X404195Y264566*
X404377Y264066*
X404741Y263566*
X405286Y263316*
X406559*
X402377Y268566D02*
Y263316D01*
Y268566D02*
X400014D01*
X402377Y266066D02*
X400923D01*
X402377Y263316D02*
X400014D01*
X394195Y268566D02*
Y263316D01*
X392559Y268566D02*
Y263316D01*
Y268566D02*
X390014Y263316D01*
Y268566D02*
Y263316D01*
X384195Y268566D02*
Y264816D01*
X384014Y264066*
X383650Y263566*
X383105Y263316*
X382741*
X382195Y263566*
X381832Y264066*
X381650Y264816*
Y268566*
X379832Y263816D02*
X380014Y263566D01*
X379832Y263316*
X379650Y263566*
X379832Y263816*
X375468Y267816D02*
X375832Y268316D01*
X376377Y268566*
X377105*
X377650Y268316*
X378014Y267816*
Y267316*
X377832Y266816*
X377650Y266566*
X377286Y266316*
X376195Y265816*
X375832Y265566*
X375650Y265316*
X375468Y264816*
Y264066*
X375832Y263566*
X376377Y263316*
X377105*
X377650Y263566*
X378014Y264066*
X373650Y263816D02*
X373832Y263566D01*
X373650Y263316*
X373468Y263566*
X373650Y263816*
X370377Y268566D02*
X371832Y263316D01*
X370377Y268566D02*
X368923Y263316D01*
X371286Y265066D02*
X369468D01*
X367105Y263816D02*
X367286Y263566D01*
X367105Y263316*
X366923Y263566*
X367105Y263816*
X410250Y217182D02*
X413750Y219000D01*
Y216273*
X410250Y217182D02*
X415500D01*
X226220Y232500D02*
X226240D01*
X295497Y364377D02*
X295407Y364475D01*
G54D31*
X191614Y142895D02*
X189398Y139809D01*
X191614Y142339*
X193831Y139809*
X191614Y142895*
X189535Y140000D02*
X189565D01*
X193664D02*
X193694D01*
X190971Y142000D02*
X191317D01*
X191911D02*
X192257D01*
X190000Y140497D02*
Y140648D01*
X192000Y141898D02*
Y142358D01*
X250669Y143669D02*
X248015Y139558D01*
X250669Y142339*
X253324Y139558*
X250669Y143669*
X248300Y140000D02*
X248437D01*
X252902D02*
X253039D01*
X249591Y142000D02*
X250346D01*
X250993D02*
X251747D01*
X250000Y141638D02*
Y142633D01*
X252000Y140945D02*
Y141608D01*
X270354Y145146D02*
X266946Y138961D01*
X270354Y142339*
X273763Y138961*
X270354Y145146*
X267519Y140000D02*
X267994D01*
X272714D02*
X273190D01*
X268621Y142000D02*
X270013D01*
X270696D02*
X272088D01*
X269723Y144000D02*
X270986D01*
X268000Y140006D02*
Y140874D01*
X270000Y141987D02*
Y144503D01*
X272000Y140708D02*
Y142160D01*
X342121Y142406D02*
X344189Y135433D01*
X344212Y140316*
X349094Y140339*
X342121Y142406*
X344021Y136000D02*
X344192D01*
X343428Y138000D02*
X344201D01*
X342835Y140000D02*
X344210D01*
X342242Y142000D02*
X343491D01*
X344000Y136070D02*
Y141849D01*
X346000Y140324D02*
Y141256D01*
X348000Y140334D02*
Y140663D01*
X329409Y145543D02*
X325941Y138902D01*
X329409Y142339*
X332878Y138902*
X329409Y145543*
X326514Y140000D02*
X327049D01*
X331770D02*
X332305D01*
X327559Y142000D02*
X329068D01*
X329751D02*
X331260D01*
X328603Y144000D02*
X330215D01*
X326000Y138961D02*
Y139015D01*
X328000Y140942D02*
Y142845D01*
X330000Y141753D02*
Y144412D01*
X332000Y139772D02*
Y140583D01*
X408150Y144913D02*
X404852Y139065D01*
X408150Y142339*
X411447Y139065*
X408150Y144913*
X405379Y140000D02*
X405794D01*
X410505D02*
X410920D01*
X406507Y142000D02*
X407809D01*
X408491D02*
X409792D01*
X407635Y144000D02*
X408665D01*
X406000Y140205D02*
Y141101D01*
X408000Y142190D02*
Y144648D01*
X410000Y140502D02*
Y141631D01*
X214000Y233000D02*
X210707Y233707D01*
X213000Y233000*
X210707Y232293*
X214000Y233000*
X212000Y232571D02*
Y232692D01*
Y233308D02*
Y233429D01*
X214000Y233000D02*
X214000D01*
X278260Y232500D02*
X275393Y233207D01*
X277686Y232500*
X275393Y231793*
X278260Y232500*
X276065Y232000D02*
X276233D01*
X276000Y231943D02*
Y231980D01*
Y233020D02*
Y233057D01*
X278000Y232436D02*
Y232564D01*
X313260Y232532D02*
X310900Y233178D01*
X313137Y232532*
X310900Y231886*
X313260Y232532*
X311296Y232000D02*
X311317D01*
X312000Y232187D02*
Y232203D01*
Y232861D02*
Y232877D01*
X326740Y232442D02*
X329662Y231735D01*
X327369Y232442*
X329662Y233149*
X326740Y232442*
X328566Y232000D02*
X328802D01*
X328000Y232137D02*
Y232247D01*
Y232637D02*
Y232747D01*
X347436Y232038D02*
X344143Y232745D01*
X346436Y232038*
X344143Y231331*
X347436Y232038*
X346313Y232000D02*
X347259D01*
X346000Y231730D02*
Y231904D01*
Y232172D02*
Y232346D01*
X361988Y232557D02*
X365281Y231850D01*
X362988Y232557*
X365281Y233264*
X361988Y232557*
X364582Y232000D02*
X364794D01*
X362000Y232554D02*
Y232560D01*
X364000Y232125D02*
Y232245D01*
Y232869D02*
Y232989D01*
X396740Y232443D02*
X399415Y231736D01*
X397122Y232443*
X399415Y233150*
X396740Y232443*
X398416Y232000D02*
X398558D01*
X398000Y232110D02*
Y232172D01*
Y232714D02*
Y232776D01*
X191614Y135433D02*
Y145895D01*
X197500Y151781*
Y159488*
X171929Y135433D02*
Y144317D01*
X187100Y159488*
X187500*
X250669Y135433D02*
Y146669D01*
X257500Y153500*
Y159488*
X270354Y135433D02*
Y148146D01*
X267500Y151000*
Y159488*
X349094Y135433D02*
X340000Y144528D01*
Y159488*
X329409Y135433D02*
Y148543D01*
X330000Y149134*
Y159488*
X408150Y135433D02*
Y147913D01*
X410000Y149764*
Y159488*
X150000Y163760D02*
X175000D01*
X150000Y171240D02*
Y178996D01*
X175000Y163760D02*
X177000D01*
X181045Y167805*
Y169363*
X182781Y171099*
X187500*
X175000Y171240D02*
Y178970D01*
X197500Y170512D02*
X187500D01*
Y171099*
X220000Y163760D02*
X245000D01*
X220000Y171240D02*
Y179028D01*
X245000Y163760D02*
X246591D01*
X253343Y170512*
X257500*
X245000Y171240D02*
Y178861D01*
X257500Y170512D02*
X267500D01*
X319374Y163374D02*
X321000Y165000D01*
Y168000*
X323512Y170512*
X330000*
X319374Y163374D02*
X315000D01*
Y163760*
X290000D02*
X315000D01*
X290000Y171240D02*
Y179000D01*
X315000Y171240D02*
Y179000D01*
X360000Y163760D02*
X385000D01*
X360000Y171240D02*
Y179147D01*
X330000Y170512D02*
X340000D01*
X385000Y163760D02*
X386688D01*
X393440Y170512*
X400000*
X385000Y171240D02*
Y178757D01*
X400000Y170512D02*
X410000D01*
X400000Y159488D02*
X410000D01*
X164760Y232500D02*
X164705Y232555D01*
X164272*
X150000Y226013D02*
Y232500D01*
X151260*
X158740D02*
X164760D01*
X233000Y228000D02*
X230720D01*
X226220Y232500*
X220000Y225889D02*
Y232500D01*
X218760*
X244892Y227949D02*
X245000D01*
Y232500*
X246240*
X218760D02*
Y233000D01*
X210000*
X238760Y232500D02*
X235500D01*
X233000Y235000*
X274686Y232500D02*
X281260D01*
X294981Y232428D02*
X290000D01*
Y232500*
X288740*
X290000Y232428D02*
X288740D01*
Y232500*
X315000Y225996D02*
Y232500D01*
X316260*
X290000Y225980D02*
Y232428D01*
X316260Y232500D02*
Y232532D01*
X310137*
X330369Y232442D02*
X323740D01*
Y232500*
X343436Y232038D02*
X351260D01*
Y232500*
X360000Y225927D02*
Y232500D01*
X358740*
Y232557*
X365988*
X385000Y232490D02*
X386260D01*
Y232500*
X385000Y232490D02*
Y232500D01*
X386260*
X400122Y232443D02*
X393740D01*
Y232500*
X380102Y232490D02*
X385000D01*
Y225716*
X130984Y327500D02*
X148185D01*
X148191Y327506D02*
Y332809D01*
X146500Y334500*
Y320000D02*
X148185Y321685D01*
Y327500*
X164429D02*
X158815D01*
Y332315*
X162000Y335500*
X148185Y327500D02*
X148191Y327506D01*
X279685Y323150D02*
X275945D01*
X275551Y323543*
X271811*
X288908Y324472D02*
Y354139D01*
X295407Y360638*
Y364475*
X198555Y350697D02*
X214371Y366513D01*
X258169*
G54D33*
X130984Y321500D02*
X125439Y307632D01*
X130984Y313929*
X136530Y307632*
X130984Y321500*
X125586Y308000D02*
X125763D01*
X136206D02*
X136383D01*
X127185Y312000D02*
X129285D01*
X132683D02*
X134783D01*
X128785Y316000D02*
X133184D01*
X130384Y320000D02*
X131584D01*
X128000Y310540D02*
Y314037D01*
X132000Y312776D02*
Y318960D01*
X136000Y308234D02*
Y308957D01*
X130984Y344315D02*
X125545Y333800D01*
X130984Y339992*
X136423Y333800*
X130984Y344315*
X126683Y336000D02*
X127478D01*
X134491D02*
X135285D01*
X128752Y340000D02*
X133216D01*
X130821Y344000D02*
X131147D01*
X128000Y336594D02*
Y338545D01*
X132000Y338836D02*
Y342351D01*
X136000Y334281D02*
Y334618D01*
X130984Y334150D02*
X136423Y344665D01*
X130984Y338472*
X125545Y344665*
X130984Y334150*
X130027Y336000D02*
X131941D01*
X127958Y340000D02*
X129643D01*
X132326D02*
X134010D01*
X125889Y344000D02*
X126129D01*
X135839D02*
X136079D01*
X128000Y339919D02*
Y341870D01*
X132000Y336113D02*
Y339629D01*
X136000Y343847D02*
Y344183D01*
X130984Y328150D02*
Y327500D01*
Y302087*
Y328150D02*
Y350315D01*
X164272Y232555D03*
X194500Y232500D03*
X233000Y228000D03*
Y235000D03*
X210000Y233000D03*
X274686Y232500D03*
X310137Y232532D03*
X294981Y232428D03*
X330369Y232442D03*
X343436Y232038D03*
X400122Y232443D03*
X365988Y232557D03*
X380102Y232490D03*
X341000Y296500D03*
X325620Y299420D03*
X179500Y308500D03*
X197500Y316000D03*
X318650Y335090D03*
X307500Y308500D03*
X341000Y327000D03*
Y338500D03*
Y332500D03*
Y303000D03*
G54D34*
X150000Y178996D03*
X158232Y152659D03*
Y155899D03*
X175000Y178970D03*
X220000Y179028D03*
X245000Y178861D03*
X234657Y155287D03*
Y152047D03*
X290000Y179000D03*
X315000D03*
X311143Y154584D03*
Y151344D03*
X360000Y179147D03*
X385000Y178757D03*
X386692Y155312D03*
Y152072D03*
X150000Y226013D03*
X169902Y225941D03*
X180038Y225867D03*
X181500Y244500D03*
X196000Y250500D03*
X193000Y259500D03*
X175000Y226000D03*
X239946Y225718D03*
X220000Y225889D03*
X244892Y227949D03*
X256025Y237952D03*
X258574Y235717D03*
X250090Y225708D03*
X308543Y254854D03*
X313204Y254733D03*
X315000Y225996D03*
X290000Y225980D03*
X358000Y242500D03*
X362000D03*
X360000Y225927D03*
X383000Y242500D03*
X387000D03*
X385000Y225716D03*
X162581Y264645D03*
X157522Y275538D03*
X177457Y264328D03*
X172573Y275637D03*
X169500Y298000D03*
X193500Y282500D03*
X257317Y275777D03*
X272596Y275907D03*
X272369Y264587D03*
X257497Y264392D03*
X275384Y270547D03*
X278746Y270685D03*
X282500Y265000D03*
X252500Y286129D03*
X287500Y265000D03*
X146500Y334500D03*
Y320000D03*
X164429Y327500D03*
X162000Y335500D03*
X248449Y306517D03*
X288908Y324472D03*
X307500Y305000D03*
X330000Y339000D03*
X361000Y322000D03*
X373000Y320500D03*
X367500D03*
X373000Y325500D03*
X198555Y350697D03*
X258169Y366513D03*
X295497Y364377D03*
X341000Y346500D03*
X330000D03*
X356500Y345500D03*
X366000Y341000D03*
Y345500D03*
G54D35*
X279685Y361732D03*
X271811Y362126D03*
X263937Y361732D03*
X256063Y362126D03*
X248189Y361732D03*
X240315Y362126D03*
X279685Y356220D03*
X271811Y356614D03*
X263937Y356220D03*
X256063Y356614D03*
X248189Y356220D03*
X240315Y356614D03*
X279685Y350709D03*
X271811Y351102D03*
X263937Y350709D03*
X256063Y351102D03*
X248189Y350709D03*
X240315Y351102D03*
X279685Y345197D03*
X271811Y345591D03*
X263937Y345197D03*
X256063Y345591D03*
X248189Y345197D03*
X240315Y345591D03*
X279685Y339685D03*
X271811Y340079D03*
X263937Y339685D03*
X256063Y340079D03*
X248189Y339685D03*
X240315Y340079D03*
X279685Y334173D03*
X271811Y334567D03*
X263937Y334173D03*
X256063Y334567D03*
X248189Y334173D03*
X240315Y334567D03*
X279685Y328661D03*
X271811Y329055D03*
X263937Y328661D03*
X256063Y329055D03*
X248189Y328661D03*
X240315Y329055D03*
X279685Y323150D03*
X271811Y323543D03*
X263937Y323150D03*
X256063Y323543D03*
X248189Y323150D03*
X240315Y323543D03*
X279685Y317638D03*
X271811Y318031D03*
X263937Y317638D03*
X256063Y318031D03*
X248189Y317638D03*
X240315Y318031D03*
G54D38*
X151260Y232500D03*
X158740D03*
X386260D03*
X393740D03*
X358740D03*
X351260D03*
X178760D03*
X186240D03*
X246240D03*
X238760D03*
X218760D03*
X226240D03*
X316260D03*
X323740D03*
X288740D03*
X281260D03*
G54D39*
X413821Y290606D02*
X413980Y291044D01*
X413980D02*
X414298Y291481D01*
X414616Y291700*
X415252*
X415571Y291481*
X415889Y291044*
X415889D02*
X416048Y290606D01*
X416207Y289950*
Y288856*
X416048Y288200*
X415889Y287762*
X415571Y287325*
X415252Y287106*
X414616*
X414298Y287325*
X413980Y287762*
X413821Y288200*
X411434Y291700D02*
X411752Y291481D01*
X412071Y291044*
X412071D02*
X412230Y290606D01*
X412389Y289950*
Y288856*
X412230Y288200*
X412071Y287762*
X411752Y287325*
X411434Y287106*
X410798*
X410480Y287325*
X410162Y287762*
X410002Y288200*
X409843Y288856*
Y289950*
X410002Y290606*
X410162Y291044*
X410162D02*
X410480Y291481D01*
X410798Y291700*
X411434*
X408412D02*
Y287106D01*
Y291700D02*
X407139Y287106D01*
X405866Y291700D02*
X407139Y287106D01*
X405866Y291700D02*
Y287106D01*
X404434Y291700D02*
Y287106D01*
Y291700D02*
X403002D01*
X402525Y291481*
X402366Y291262*
X402207Y290825*
Y290169*
X402207D02*
X402366Y289731D01*
X402525Y289512*
X403002Y289294*
X403002D02*
X404434D01*
X400775Y291700D02*
Y287106D01*
Y291700D02*
X399343D01*
X398866Y291481*
X398707Y291262*
X398548Y290825*
Y290387*
X398707Y289950*
X398866Y289731*
X399343Y289512*
X400775*
X399662D02*
X398548Y287106D01*
X397116Y291700D02*
Y287106D01*
Y291700D02*
X395048D01*
X397116Y289512D02*
X395843D01*
X397116Y287106D02*
X395048D01*
X391389Y291044D02*
X391707Y291481D01*
X392184Y291700*
X392821*
X393298Y291481*
X393616Y291044*
X393616D02*
Y290606D01*
X393457Y290169*
X393457D02*
X393298Y289950D01*
X392980Y289731*
X392025Y289294*
X392025D02*
X391707Y289075D01*
X391548Y288856*
X391389Y288419*
X391389D02*
Y287762D01*
X391707Y287325*
X392184Y287106*
X392821*
X393298Y287325*
X393616Y287762*
X387730Y291044D02*
X388048Y291481D01*
X388525Y291700*
X389162*
X389639Y291481*
X389957Y291044*
X389957D02*
Y290606D01*
X389798Y290169*
X389798D02*
X389639Y289950D01*
X389321Y289731*
X388366Y289294*
X388366D02*
X388048Y289075D01*
X387889Y288856*
X387730Y288419*
X387730D02*
Y287762D01*
X388048Y287325*
X388525Y287106*
X389162*
X389639Y287325*
X389957Y287762*
X385343Y291700D02*
X385662Y291481D01*
X385980Y291044*
X385980D02*
X386139Y290606D01*
X386298Y289950*
Y288856*
X386139Y288200*
X385980Y287762*
X385662Y287325*
X385343Y287106*
X384707*
X384389Y287325*
X384071Y287762*
X383912Y288200*
X383752Y288856*
Y289950*
X383912Y290606*
X384071Y291044*
X384071D02*
X384389Y291481D01*
X384707Y291700*
X385343*
X382321D02*
Y287106D01*
Y291700D02*
X380889D01*
X380412Y291481*
X380252Y291262*
X380093Y290825*
Y290387*
X380252Y289950*
X380412Y289731*
X380889Y289512*
X382321*
X381207D02*
X380093Y287106D01*
X372616Y290606D02*
X372775Y291044D01*
X372775D02*
X373093Y291481D01*
X373412Y291700*
X374048*
X374366Y291481*
X374684Y291044*
X374684D02*
X374843Y290606D01*
X375002Y289950*
Y288856*
X374843Y288200*
X374684Y287762*
X374366Y287325*
X374048Y287106*
X373412*
X373093Y287325*
X372775Y287762*
X372616Y288200*
X370230Y291700D02*
X370548Y291481D01*
X370866Y291044*
X370866D02*
X371025Y290606D01*
X371184Y289950*
Y288856*
X371025Y288200*
X370866Y287762*
X370548Y287325*
X370230Y287106*
X369593*
X369275Y287325*
X368957Y287762*
X368798Y288200*
X368639Y288856*
Y289950*
X368798Y290606*
X368957Y291044*
X368957D02*
X369275Y291481D01*
X369593Y291700*
X370230*
X367207D02*
Y287106D01*
Y291700D02*
X364980Y287106D01*
Y291700D02*
Y287106D01*
X362434Y291700D02*
Y287106D01*
X363548Y291700D02*
X361321D01*
X359889D02*
Y287106D01*
Y291700D02*
X358457D01*
X357980Y291481*
X357821Y291262*
X357662Y290825*
Y290387*
X357821Y289950*
X357980Y289731*
X358457Y289512*
X359889*
X358775D02*
X357662Y287106D01*
X355275Y291700D02*
X355593Y291481D01*
X355912Y291044*
X355912D02*
X356071Y290606D01*
X356230Y289950*
Y288856*
X356071Y288200*
X355912Y287762*
X355593Y287325*
X355275Y287106*
X354639*
X354321Y287325*
X354002Y287762*
X353843Y288200*
X353684Y288856*
Y289950*
X353843Y290606*
X354002Y291044*
X354002D02*
X354321Y291481D01*
X354639Y291700*
X355275*
X352252D02*
Y287106D01*
X350343*
X346684Y291044D02*
X347002Y291481D01*
X347480Y291700*
X348116*
X348593Y291481*
X348912Y291044*
X348912D02*
Y290606D01*
X348752Y290169*
X348752D02*
X348593Y289950D01*
X348275Y289731*
X347321Y289294*
X347321D02*
X347002Y289075D01*
X346843Y288856*
X346684Y288419*
X346684D02*
Y287762D01*
X347002Y287325*
X347480Y287106*
X348116*
X348593Y287325*
X348912Y287762*
X339207Y290606D02*
X339366Y291044D01*
X339366D02*
X339684Y291481D01*
X340002Y291700*
X340639*
X340957Y291481*
X341275Y291044*
X341275D02*
X341434Y290606D01*
X341593Y289950*
Y288856*
X341434Y288200*
X341275Y287762*
X340957Y287325*
X340639Y287106*
X340002*
X339684Y287325*
X339366Y287762*
X339207Y288200*
X336821Y291700D02*
X337139Y291481D01*
X337457Y291044*
X337457D02*
X337616Y290606D01*
X337775Y289950*
Y288856*
X337616Y288200*
X337457Y287762*
X337139Y287325*
X336821Y287106*
X336184*
X335866Y287325*
X335548Y287762*
X335389Y288200*
X335230Y288856*
Y289950*
X335389Y290606*
X335548Y291044*
X335548D02*
X335866Y291481D01*
X336184Y291700*
X336821*
X333798D02*
Y287106D01*
Y291700D02*
X332366D01*
X331889Y291481*
X331730Y291262*
X331571Y290825*
Y290387*
X331730Y289950*
X331889Y289731*
X332366Y289512*
X333798*
X332684D02*
X331571Y287106D01*
X330139Y291700D02*
Y287106D01*
Y291700D02*
X328707D01*
X328230Y291481*
X328071Y291262*
X327912Y290825*
Y290169*
X327912D02*
X328071Y289731D01*
X328230Y289512*
X328707Y289294*
X328707D02*
X330139D01*
X325525Y291700D02*
X325843Y291481D01*
X326162Y291044*
X326162D02*
X326321Y290606D01*
X326480Y289950*
Y288856*
X326321Y288200*
X326162Y287762*
X325843Y287325*
X325525Y287106*
X324889*
X324571Y287325*
X324252Y287762*
X324093Y288200*
X323934Y288856*
Y289950*
X324093Y290606*
X324252Y291044*
X324252D02*
X324571Y291481D01*
X324889Y291700*
X325525*
X322502D02*
Y287106D01*
Y291700D02*
X321071D01*
X320593Y291481*
X320434Y291262*
X320275Y290825*
Y290387*
X320434Y289950*
X320593Y289731*
X321071Y289512*
X322502*
X321389D02*
X320275Y287106D01*
X317571Y291700D02*
X318843Y287106D01*
X317571Y291700D02*
X316298Y287106D01*
X318366Y288637D02*
X316775D01*
X313752Y291700D02*
Y287106D01*
X314866Y291700D02*
X312639D01*
X311207D02*
Y287106D01*
X308821Y291700D02*
X309139Y291481D01*
X309457Y291044*
X309457D02*
X309616Y290606D01*
X309775Y289950*
Y288856*
X309616Y288200*
X309457Y287762*
X309139Y287325*
X308821Y287106*
X308184*
X307866Y287325*
X307548Y287762*
X307389Y288200*
X307230Y288856*
Y289950*
X307389Y290606*
X307548Y291044*
X307548D02*
X307866Y291481D01*
X308184Y291700*
X308821*
X305798D02*
Y287106D01*
Y291700D02*
X303571Y287106D01*
Y291700D02*
Y287106D01*
G54D81*
X410000Y350000D03*
X110000Y165000D03*
Y275000D03*
G54D82*
X190500Y232500D02*
X193970Y231970D01*
X191250Y232500*
X193970Y233030*
X190500Y232500*
X191250*
X192500Y232194D02*
Y232256D01*
Y232744D02*
Y232806D01*
X206000Y233000D02*
X209470Y232470D01*
X206750Y233000*
X209470Y233530*
X206000Y233000*
X209271Y232500D02*
X209314D01*
X207500Y232771D02*
Y232854D01*
Y233146D02*
Y233229D01*
X186240Y232500D02*
X194500D01*
X178760D02*
Y237500D01*
X179760Y238500*
X194500*
X210000Y233000D02*
X200000D01*
X194500Y238500*
G54D83*
X100000Y100000D02*
Y360030D01*
X109975Y370005*
X409970*
X419983Y359993*
X419983D02*
Y100000D01*
X419983D02*
X100000D01*
G54D84*
X148185Y327500D03*
X158815D03*
X0Y0D02*
M02*
