%
T1C.012F0S0
X015823Y015266
X015823Y01559
X015Y0179
X015Y022601
X016258Y026465
X015752Y027554
X01465Y032
X01465Y03345
X0162Y03355
X019856Y03507
X016443Y03275
X01695Y0298
X01935Y02825
X017257Y027564
X017746Y026433
X0193Y02595
X0196Y02505
X01815Y02445
X0175Y0226
X01699Y022594
X018004Y022587
X0175Y017897
X023466Y015205
X023466Y015529
X0245Y017886
X022Y017903
X025009Y022571
X023995Y022572
X022Y022589
X024489Y022795
X025857Y023572
X025603Y023795
X02575Y026439
X025732Y027578
X02525Y028613
X024845Y030652
X025817Y036651
X02955Y036438
X028891Y032447
X03075Y0305
X02726Y027591
X027875Y027069
X027538Y027055
X02875Y0265
X02825Y0265
X027237Y026459
X030854Y025485
X029Y022598
X029Y0179
X031114Y015458
X031114Y015134
X0315Y0179
X036Y017915
X036Y022593
X0315Y0226
X0358Y02425
X0362Y02425
X03132Y025473
X0361Y0322
X033Y0339
X03565Y03455
X033Y03465
X0341Y03465
X0366Y03455
X0366Y0341
X0373Y03255
X03675Y03205
X0373Y03205
X0387Y02425
X0383Y02425
X0385Y022572
X0385Y017876
X038669Y015531
X038669Y015207
T2C.0197F0S0
X024819Y031764
X025606Y031803
X024031Y031803
X024819Y032315
X025606Y032354
X024031Y032354
X024819Y032866
X025606Y032906
X024031Y032906
X024819Y033417
X025606Y033457
X024031Y033457
X024819Y033969
X025606Y034008
X024031Y034008
X024819Y03452
X025606Y034559
X024031Y034559
X024819Y035071
X025606Y03511
X024031Y03511
X024819Y035622
X025606Y035661
X024031Y035661
X024819Y036173
X025606Y036213
X024031Y036213
X027181Y036213
X027969Y036173
X026394Y036173
X027181Y035661
X027969Y035622
X026394Y035622
X027181Y03511
X027969Y035071
X026394Y035071
X027181Y034559
X027969Y03452
X026394Y03452
X027181Y034008
X027969Y033969
X026394Y033969
X027181Y033457
X027969Y033417
X026394Y033417
X027181Y032906
X027969Y032866
X026394Y032866
X027181Y032354
X027969Y032315
X026394Y032315
X027181Y031803
X027969Y031764
X026394Y031764
T3C.02F0S0
X01945Y02325
X016427Y023256
X021Y0233
X01795Y03085
X01975Y0316
X03075Y03085
X0233Y0235
X031014Y023253
X027469Y02325
X029498Y023243
X0233Y0228
X034344Y023204
X033037Y023244
X0341Y02965
X032562Y029942
X0341Y0303
X0341Y0327
X0341Y03325
X031865Y033509
X0341Y03385
X036599Y023256
X03801Y023249
X040012Y023244
T4C.05118F0S0
X01424Y011969
X022114Y011969
X029988Y011969
X037862Y011969
T5C.05906F0S0
X013531Y012835
X014949Y012835
X013531Y014252
X014949Y014252
X021406Y014252
X022823Y014252
X022823Y012835
X021406Y012835
X030697Y012835
X02928Y012835
X02928Y014252
X030697Y014252
X037154Y014252
X038571Y014252
X038571Y012835
X037154Y012835
T6C.09843F0S0
X011287Y013543
X017193Y013543
X019161Y013543
X025067Y013543
X027035Y013543
X032941Y013543
X034909Y013543
X040815Y013543
T7C.11811F0S0
X01128Y011976
X017193Y011976
X019154Y011976
X025067Y011976
X027028Y011976
X032941Y011976
X034902Y011976
X040815Y011976
T8C.15748F0S0
X013098Y030209
X013098Y032815
X013098Y035031
M30
