*
*
G04 PADS 9.3 Build Number: 433611 generated Gerber (RS-274-X) file*
G04 PC Version=2.1*
*
%IN "ECAT-NGP-REV-B.pcb"*%
*
%MOIN*%
*
%FSLAX35Y35*%
*
*
*
*
G04 PC Standard Apertures*
*
*
G04 Thermal Relief Aperture macro.*
%AMTER*
1,1,$1,0,0*
1,0,$1-$2,0,0*
21,0,$3,$4,0,0,45*
21,0,$3,$4,0,0,135*
%
*
*
G04 Annular Aperture macro.*
%AMANN*
1,1,$1,0,0*
1,0,$2,0,0*
%
*
*
G04 Odd Aperture macro.*
%AMODD*
1,1,$1,0,0*
1,0,$1-0.005,0,0*
%
*
*
G04 PC Custom Aperture Macros*
*
*
*
*
*
*
G04 PC Aperture Table*
*
%ADD010C,0.001*%
%ADD027C,0.01*%
%ADD028C,0.015*%
%ADD047C,0.10343*%
%ADD048C,0.12311*%
%ADD049C,0.1428*%
%ADD050C,0.05224*%
%ADD052R,0.143X0.085*%
%ADD053C,0.055*%
%ADD054R,0.065X0.057*%
%ADD055R,0.04043X0.06012*%
%ADD056R,0.09161X0.06012*%
%ADD057O,0.08374X0.02862*%
%ADD058R,0.135X0.135*%
%ADD059C,0.20185*%
%ADD060C,0.04437*%
%ADD061R,0.02862X0.08374*%
%ADD083C,0.00598*%
%ADD085R,0.068X0.076*%
%ADD086R,0.057X0.065*%
%ADD087R,0.085X0.143*%
%ADD088R,0.041X0.043*%
%ADD089R,0.02862X0.06799*%
%ADD090C,0.125*%
%ADD091C,0.005*%
*
*
*
*
G04 PC Circuitry*
G04 Layer Name ECAT-NGP-REV-B.pcb - circuitry*
%LPD*%
*
*
G04 PC Custom Flashes*
G04 Layer Name ECAT-NGP-REV-B.pcb - flashes*
%LPD*%
*
*
G04 PC Circuitry*
G04 Layer Name ECAT-NGP-REV-B.pcb - circuitry*
%LPD*%
*
G54D10*
G54D27*
G01X262300Y455163D02*
Y448600D01*
X265027*
X268891Y455163D02*
X267073Y448600D01*
X268891Y455163D02*
X270709Y448600D01*
X267755Y450788D02*
X270027D01*
X272755Y455163D02*
X274573Y452038D01*
X274573D02*
Y448600D01*
X276391Y455163D02*
X274573Y452038D01*
X278436Y455163D02*
Y448600D01*
Y455163D02*
X281391D01*
X278436Y452038D02*
X280255D01*
X278436Y448600D02*
X281391D01*
X283436Y455163D02*
Y448600D01*
Y455163D02*
X285482D01*
X285482D02*
X286164Y454850D01*
X286391Y454538*
X286391D02*
X286618Y453913D01*
X286618D02*
Y453288D01*
X286618D02*
X286391Y452663D01*
X286391D02*
X286164Y452350D01*
X285482Y452038*
X285482D02*
X283436D01*
X285027D02*
X286618Y448600D01*
X262300Y440163D02*
Y433600D01*
Y440163D02*
X264345D01*
X264345D02*
X265027Y439850D01*
X265255Y439538*
X265255D02*
X265482Y438913D01*
X265482D02*
Y437975D01*
X265255Y437350*
X265027Y437038*
X265027D02*
X264345Y436725D01*
X262300*
X269345Y440163D02*
X267527Y433600D01*
X269345Y440163D02*
X271164Y433600D01*
X268209Y435788D02*
X270482D01*
X273209Y440163D02*
Y433600D01*
Y440163D02*
X275255D01*
X275255D02*
X275936Y439850D01*
X276164Y439538*
X276164D02*
X276391Y438913D01*
X276391D02*
Y438288D01*
X276391D02*
X276164Y437663D01*
X276164D02*
X275936Y437350D01*
X275255Y437038*
X275255D02*
X273209D01*
X274800D02*
X276391Y433600D01*
X280027Y440163D02*
Y433600D01*
X278436Y440163D02*
X281618D01*
X288891D02*
Y433600D01*
Y440163D02*
X292073Y433600D01*
Y440163D02*
Y433600D01*
X295482Y440163D02*
X295027Y439850D01*
X294573Y439225*
X294345Y438600*
X294118Y437663*
X294118D02*
Y436100D01*
X294345Y435163*
X294345D02*
X294573Y434538D01*
X294573D02*
X295027Y433913D01*
X295027D02*
X295482Y433600D01*
X296391*
X296845Y433913*
X296845D02*
X297300Y434538D01*
X297300D02*
X297527Y435163D01*
X297527D02*
X297755Y436100D01*
Y437663*
X297755D02*
X297527Y438600D01*
X297300Y439225*
X296845Y439850*
X296391Y440163*
X296391D02*
X295482D01*
X262300Y425163D02*
Y418600D01*
Y425163D02*
X264345D01*
X264345D02*
X265027Y424850D01*
X265255Y424538*
X265255D02*
X265482Y423913D01*
X265482D02*
Y423288D01*
X265482D02*
X265255Y422663D01*
X265255D02*
X265027Y422350D01*
X264345Y422038*
X264345D02*
X262300D01*
X263891D02*
X265482Y418600D01*
X267527Y425163D02*
Y418600D01*
Y425163D02*
X270482D01*
X267527Y422038D02*
X269345D01*
X267527Y418600D02*
X270482D01*
X272527Y425163D02*
X274345Y418600D01*
X276164Y425163D02*
X274345Y418600D01*
X320482Y454225D02*
X320027Y454850D01*
X319345Y455163*
X319345D02*
X318436D01*
X318436D02*
X317755Y454850D01*
X317300Y454225*
Y453600*
X317527Y452975*
X317755Y452663*
X317755D02*
X318209Y452350D01*
X319573Y451725*
X320027Y451413*
X320027D02*
X320255Y451100D01*
X320482Y450475*
Y449538*
X320482D02*
X320027Y448913D01*
X320027D02*
X319345Y448600D01*
X318436*
X317755Y448913*
X317755D02*
X317300Y449538D01*
X323891Y455163D02*
X323436Y454850D01*
X322982Y454225*
X322755Y453600*
X322527Y452663*
X322527D02*
Y451100D01*
X322755Y450163*
X322755D02*
X322982Y449538D01*
X322982D02*
X323436Y448913D01*
X323436D02*
X323891Y448600D01*
X324800*
X325255Y448913*
X325255D02*
X325709Y449538D01*
X325709D02*
X325936Y450163D01*
X325936D02*
X326164Y451100D01*
Y452663*
X326164D02*
X325936Y453600D01*
X325709Y454225*
X325255Y454850*
X324800Y455163*
X324800D02*
X323891D01*
X328209D02*
Y448600D01*
X330936*
X332982Y455163D02*
Y448600D01*
Y455163D02*
X334573D01*
X334573D02*
X335255Y454850D01*
X335709Y454225*
X335936Y453600*
X336164Y452663*
X336164D02*
Y451100D01*
X335936Y450163*
X335936D02*
X335709Y449538D01*
X335709D02*
X335255Y448913D01*
X335255D02*
X334573Y448600D01*
X332982*
X338209Y455163D02*
Y448600D01*
Y455163D02*
X341164D01*
X338209Y452038D02*
X340027D01*
X338209Y448600D02*
X341164D01*
X343209Y455163D02*
Y448600D01*
Y455163D02*
X345255D01*
X345255D02*
X345936Y454850D01*
X346164Y454538*
X346164D02*
X346391Y453913D01*
X346391D02*
Y453288D01*
X346391D02*
X346164Y452663D01*
X346164D02*
X345936Y452350D01*
X345255Y452038*
X345255D02*
X343209D01*
X344800D02*
X346391Y448600D01*
X348436Y455163D02*
Y448600D01*
Y455163D02*
X350255Y448600D01*
X352073Y455163D02*
X350255Y448600D01*
X352073Y455163D02*
Y448600D01*
X355936Y455163D02*
X354118Y448600D01*
X355936Y455163D02*
X357755Y448600D01*
X354800Y450788D02*
X357073D01*
X362982Y454225D02*
X362527Y454850D01*
X361845Y455163*
X361845D02*
X360936D01*
X360936D02*
X360255Y454850D01*
X359800Y454225*
Y453600*
X360027Y452975*
X360255Y452663*
X360255D02*
X360709Y452350D01*
X362073Y451725*
X362527Y451413*
X362527D02*
X362755Y451100D01*
X362982Y450475*
Y449538*
X362982D02*
X362527Y448913D01*
X362527D02*
X361845Y448600D01*
X360936*
X360255Y448913*
X360255D02*
X359800Y449538D01*
X365027Y455163D02*
Y448600D01*
X368209Y455163D02*
X365027Y450788D01*
X366164Y452350D02*
X368209Y448600D01*
X377073Y455163D02*
Y448600D01*
X375482Y455163D02*
X378664D01*
X382073D02*
X381618Y454850D01*
X381164Y454225*
X380936Y453600*
X380709Y452663*
X380709D02*
Y451100D01*
X380936Y450163*
X380936D02*
X381164Y449538D01*
X381164D02*
X381618Y448913D01*
X381618D02*
X382073Y448600D01*
X382982*
X383436Y448913*
X383436D02*
X383891Y449538D01*
X383891D02*
X384118Y450163D01*
X384118D02*
X384345Y451100D01*
Y452663*
X384345D02*
X384118Y453600D01*
X383891Y454225*
X383436Y454850*
X382982Y455163*
X382982D02*
X382073D01*
X386391D02*
Y448600D01*
Y455163D02*
X388436D01*
X388436D02*
X389118Y454850D01*
X389345Y454538*
X389345D02*
X389573Y453913D01*
X389573D02*
Y452975D01*
X389345Y452350*
X389118Y452038*
X389118D02*
X388436Y451725D01*
X386391*
X322300Y438913D02*
X322755Y439225D01*
X323436Y440163*
X323436D02*
Y433600D01*
X328664Y440163D02*
X326391Y433600D01*
X325482Y440163D02*
X328664D01*
X330709Y436413D02*
X334800D01*
X339573Y439225D02*
X339345Y439850D01*
X338664Y440163*
X338664D02*
X338209D01*
X338209D02*
X337527Y439850D01*
X337073Y438913*
X337073D02*
X336845Y437350D01*
Y435788*
X336845D02*
X337073Y434538D01*
X337073D02*
X337527Y433913D01*
X337527D02*
X338209Y433600D01*
X338436*
X339118Y433913*
X339118D02*
X339573Y434538D01*
X339573D02*
X339800Y435475D01*
Y435788*
X339800D02*
X339573Y436725D01*
X339118Y437350*
X338436Y437663*
X338436D02*
X338209D01*
X338209D02*
X337527Y437350D01*
X337073Y436725*
X336845Y435788*
X343209Y440163D02*
X342527Y439850D01*
X342073Y438913*
X342073D02*
X341845Y437350D01*
Y436413*
X341845D02*
X342073Y434850D01*
X342527Y433913*
X342527D02*
X343209Y433600D01*
X343664*
X344345Y433913*
X344345D02*
X344800Y434850D01*
X345027Y436413*
X345027D02*
Y437350D01*
X344800Y438913*
X344800D02*
X344345Y439850D01*
X343664Y440163*
X343664D02*
X343209D01*
X348436D02*
X347755Y439850D01*
X347300Y438913*
X347300D02*
X347073Y437350D01*
Y436413*
X347073D02*
X347300Y434850D01*
X347755Y433913*
X347755D02*
X348436Y433600D01*
X348891*
X349573Y433913*
X349573D02*
X350027Y434850D01*
X350255Y436413*
X350255D02*
Y437350D01*
X350027Y438913*
X350027D02*
X349573Y439850D01*
X348891Y440163*
X348891D02*
X348436D01*
X354573D02*
X352300Y435788D01*
X352300D02*
X355709D01*
X354573Y440163D02*
Y433600D01*
X357755Y438913D02*
X358209Y439225D01*
X358891Y440163*
X358891D02*
Y433600D01*
X360936Y438913D02*
X361391Y439225D01*
X362073Y440163*
X362073D02*
Y433600D01*
X364118Y436413D02*
X368209D01*
X371618Y440163D02*
X370936Y439850D01*
X370482Y438913*
X370482D02*
X370255Y437350D01*
Y436413*
X370255D02*
X370482Y434850D01*
X370936Y433913*
X370936D02*
X371618Y433600D01*
X372073*
X372755Y433913*
X372755D02*
X373209Y434850D01*
X373436Y436413*
X373436D02*
Y437350D01*
X373209Y438913*
X373209D02*
X372755Y439850D01*
X372073Y440163*
X372073D02*
X371618D01*
X376845D02*
X376164Y439850D01*
X375709Y438913*
X375709D02*
X375482Y437350D01*
Y436413*
X375482D02*
X375709Y434850D01*
X376164Y433913*
X376164D02*
X376845Y433600D01*
X377300*
X377982Y433913*
X377982D02*
X378436Y434850D01*
X378664Y436413*
X378664D02*
Y437350D01*
X378436Y438913*
X378436D02*
X377982Y439850D01*
X377300Y440163*
X377300D02*
X376845D01*
X380709Y438913D02*
X381164Y439225D01*
X381845Y440163*
X381845D02*
Y433600D01*
X347300Y425163D02*
Y418600D01*
Y425163D02*
X349345D01*
X349345D02*
X350027Y424850D01*
X350255Y424538*
X350255D02*
X350482Y423913D01*
X350482D02*
Y423288D01*
X350482D02*
X350255Y422663D01*
X350255D02*
X350027Y422350D01*
X349345Y422038*
X347300D02*
X349345D01*
X349345D02*
X350027Y421725D01*
X350255Y421413*
X350255D02*
X350482Y420788D01*
X350482D02*
Y419850D01*
X350255Y419225*
X350027Y418913*
X350027D02*
X349345Y418600D01*
X347300*
X261300Y409663D02*
Y403100D01*
Y409663D02*
X262891D01*
X262891D02*
X263573Y409350D01*
X264027Y408725*
X264255Y408100*
X264482Y407163*
X264482D02*
Y405600D01*
X264255Y404663*
X264255D02*
X264027Y404038D01*
X264027D02*
X263573Y403413D01*
X263573D02*
X262891Y403100D01*
X261300*
X268345Y409663D02*
X266527Y403100D01*
X268345Y409663D02*
X270164Y403100D01*
X267209Y405288D02*
X269482D01*
X273800Y409663D02*
Y403100D01*
X272209Y409663D02*
X275391D01*
X277436D02*
Y403100D01*
Y409663D02*
X280391D01*
X277436Y406538D02*
X279255D01*
X277436Y403100D02*
X280391D01*
X322300Y408413D02*
X322755Y408725D01*
X323436Y409663*
X323436D02*
Y403100D01*
X327755Y409663D02*
X325482Y405288D01*
X325482D02*
X328891D01*
X327755Y409663D02*
Y403100D01*
X336164Y409663D02*
Y403100D01*
Y409663D02*
X339118D01*
X336164Y406538D02*
X337982D01*
X341164Y405600D02*
X343891D01*
Y406225*
X343664Y406850*
X343436Y407163*
X343436D02*
X342982Y407475D01*
X342300*
X341845Y407163*
X341845D02*
X341391Y406538D01*
X341391D02*
X341164Y405600D01*
Y404975*
X341391Y404038*
X341391D02*
X341845Y403413D01*
X341845D02*
X342300Y403100D01*
X342982*
X343436Y403413*
X343436D02*
X343891Y404038D01*
X345936Y409663D02*
Y403100D01*
Y406538D02*
X346391Y407163D01*
X346391D02*
X346845Y407475D01*
X347527*
X347982Y407163*
X347982D02*
X348436Y406538D01*
X348436D02*
X348664Y405600D01*
Y404975*
X348436Y404038*
X348436D02*
X347982Y403413D01*
X347982D02*
X347527Y403100D01*
X346845*
X346391Y403413*
X346391D02*
X345936Y404038D01*
X356164Y408100D02*
Y408413D01*
X356164D02*
X356391Y409038D01*
X356391D02*
X356618Y409350D01*
X357073Y409663*
X357073D02*
X357982D01*
X357982D02*
X358436Y409350D01*
X358664Y409038*
X358664D02*
X358891Y408413D01*
X358891D02*
Y407788D01*
X358891D02*
X358664Y407163D01*
X358664D02*
X358209Y406225D01*
X355936Y403100*
X359118*
X362527Y409663D02*
X361845Y409350D01*
X361391Y408413*
X361391D02*
X361164Y406850D01*
Y405913*
X361164D02*
X361391Y404350D01*
X361845Y403413*
X361845D02*
X362527Y403100D01*
X362982*
X363664Y403413*
X363664D02*
X364118Y404350D01*
X364345Y405913*
X364345D02*
Y406850D01*
X364118Y408413*
X364118D02*
X363664Y409350D01*
X362982Y409663*
X362982D02*
X362527D01*
X366391Y408413D02*
X366845Y408725D01*
X367527Y409663*
X367527D02*
Y403100D01*
X370027Y409663D02*
X372527D01*
X372527D02*
X371164Y407163D01*
X371164D02*
X371845D01*
X371845D02*
X372300Y406850D01*
X372527Y406538*
X372527D02*
X372755Y405600D01*
Y404975*
X372527Y404038*
X372527D02*
X372073Y403413D01*
X372073D02*
X371391Y403100D01*
X370709*
X370027Y403413*
X370027D02*
X369800Y403725D01*
X369573Y404350*
X88409Y477000D02*
X88182Y477625D01*
X87727Y478250*
X87273Y478563*
X87273D02*
X86364D01*
X86364D02*
X85909Y478250D01*
X85455Y477625*
X85227Y477000*
X85000Y476063*
X85000D02*
Y474500D01*
X85227Y473563*
X85227D02*
X85455Y472938D01*
X85455D02*
X85909Y472313D01*
X85909D02*
X86364Y472000D01*
X87273*
X87727Y472313*
X87727D02*
X88182Y472938D01*
X88182D02*
X88409Y473563D01*
X91818Y478563D02*
X91364Y478250D01*
X90909Y477625*
X90682Y477000*
X90455Y476063*
X90455D02*
Y474500D01*
X90682Y473563*
X90682D02*
X90909Y472938D01*
X90909D02*
X91364Y472313D01*
X91364D02*
X91818Y472000D01*
X92727*
X93182Y472313*
X93182D02*
X93636Y472938D01*
X93636D02*
X93864Y473563D01*
X93864D02*
X94091Y474500D01*
Y476063*
X94091D02*
X93864Y477000D01*
X93636Y477625*
X93182Y478250*
X92727Y478563*
X92727D02*
X91818D01*
X96136D02*
Y472000D01*
Y478563D02*
X97955Y472000D01*
X99773Y478563D02*
X97955Y472000D01*
X99773Y478563D02*
Y472000D01*
X101818Y478563D02*
Y472000D01*
Y478563D02*
X103864D01*
X103864D02*
X104545Y478250D01*
X104773Y477938*
X104773D02*
X105000Y477313D01*
X105000D02*
Y476375D01*
X104773Y475750*
X104545Y475438*
X104545D02*
X103864Y475125D01*
X101818*
X107045Y478563D02*
Y472000D01*
Y478563D02*
X109091D01*
X109091D02*
X109773Y478250D01*
X110000Y477938*
X110000D02*
X110227Y477313D01*
X110227D02*
Y476688D01*
X110227D02*
X110000Y476063D01*
X110000D02*
X109773Y475750D01*
X109091Y475438*
X109091D02*
X107045D01*
X108636D02*
X110227Y472000D01*
X112273Y478563D02*
Y472000D01*
Y478563D02*
X115227D01*
X112273Y475438D02*
X114091D01*
X112273Y472000D02*
X115227D01*
X120455Y477625D02*
X120000Y478250D01*
X119318Y478563*
X119318D02*
X118409D01*
X118409D02*
X117727Y478250D01*
X117273Y477625*
Y477000*
X117500Y476375*
X117727Y476063*
X117727D02*
X118182Y475750D01*
X119545Y475125*
X120000Y474813*
X120000D02*
X120227Y474500D01*
X120455Y473875*
Y472938*
X120455D02*
X120000Y472313D01*
X120000D02*
X119318Y472000D01*
X118409*
X117727Y472313*
X117727D02*
X117273Y472938D01*
X125682Y477625D02*
X125227Y478250D01*
X124545Y478563*
X124545D02*
X123636D01*
X123636D02*
X122955Y478250D01*
X122500Y477625*
Y477000*
X122727Y476375*
X122955Y476063*
X122955D02*
X123409Y475750D01*
X124773Y475125*
X125227Y474813*
X125227D02*
X125455Y474500D01*
X125682Y473875*
Y472938*
X125682D02*
X125227Y472313D01*
X125227D02*
X124545Y472000D01*
X123636*
X122955Y472313*
X122955D02*
X122500Y472938D01*
X129091Y478563D02*
X128636Y478250D01*
X128182Y477625*
X127955Y477000*
X127727Y476063*
X127727D02*
Y474500D01*
X127955Y473563*
X127955D02*
X128182Y472938D01*
X128182D02*
X128636Y472313D01*
X128636D02*
X129091Y472000D01*
X130000*
X130455Y472313*
X130455D02*
X130909Y472938D01*
X130909D02*
X131136Y473563D01*
X131136D02*
X131364Y474500D01*
Y476063*
X131364D02*
X131136Y477000D01*
X130909Y477625*
X130455Y478250*
X130000Y478563*
X130000D02*
X129091D01*
X133409D02*
Y472000D01*
Y478563D02*
X135455D01*
X135455D02*
X136136Y478250D01*
X136364Y477938*
X136364D02*
X136591Y477313D01*
X136591D02*
Y476688D01*
X136591D02*
X136364Y476063D01*
X136364D02*
X136136Y475750D01*
X135455Y475438*
X135455D02*
X133409D01*
X135000D02*
X136591Y472000D01*
X147273Y477000D02*
X147045Y477625D01*
X146591Y478250*
X146136Y478563*
X146136D02*
X145227D01*
X145227D02*
X144773Y478250D01*
X144318Y477625*
X144091Y477000*
X143864Y476063*
X143864D02*
Y474500D01*
X144091Y473563*
X144091D02*
X144318Y472938D01*
X144318D02*
X144773Y472313D01*
X144773D02*
X145227Y472000D01*
X146136*
X146591Y472313*
X146591D02*
X147045Y472938D01*
X147045D02*
X147273Y473563D01*
X150682Y478563D02*
X150227Y478250D01*
X149773Y477625*
X149545Y477000*
X149318Y476063*
X149318D02*
Y474500D01*
X149545Y473563*
X149545D02*
X149773Y472938D01*
X149773D02*
X150227Y472313D01*
X150227D02*
X150682Y472000D01*
X151591*
X152045Y472313*
X152045D02*
X152500Y472938D01*
X152500D02*
X152727Y473563D01*
X152727D02*
X152955Y474500D01*
Y476063*
X152955D02*
X152727Y477000D01*
X152500Y477625*
X152045Y478250*
X151591Y478563*
X151591D02*
X150682D01*
X155000D02*
Y472000D01*
Y478563D02*
X158182Y472000D01*
Y478563D02*
Y472000D01*
X161818Y478563D02*
Y472000D01*
X160227Y478563D02*
X163409D01*
X165455D02*
Y472000D01*
Y478563D02*
X167500D01*
X167500D02*
X168182Y478250D01*
X168409Y477938*
X168409D02*
X168636Y477313D01*
X168636D02*
Y476688D01*
X168636D02*
X168409Y476063D01*
X168409D02*
X168182Y475750D01*
X167500Y475438*
X167500D02*
X165455D01*
X167045D02*
X168636Y472000D01*
X172045Y478563D02*
X171591Y478250D01*
X171136Y477625*
X170909Y477000*
X170682Y476063*
X170682D02*
Y474500D01*
X170909Y473563*
X170909D02*
X171136Y472938D01*
X171136D02*
X171591Y472313D01*
X171591D02*
X172045Y472000D01*
X172955*
X173409Y472313*
X173409D02*
X173864Y472938D01*
X173864D02*
X174091Y473563D01*
X174091D02*
X174318Y474500D01*
Y476063*
X174318D02*
X174091Y477000D01*
X173864Y477625*
X173409Y478250*
X172955Y478563*
X172955D02*
X172045D01*
X176364D02*
Y472000D01*
X179091*
X184318Y477625D02*
X183864Y478250D01*
X183182Y478563*
X183182D02*
X182273D01*
X182273D02*
X181591Y478250D01*
X181136Y477625*
Y477000*
X181364Y476375*
X181591Y476063*
X181591D02*
X182045Y475750D01*
X183409Y475125*
X183864Y474813*
X183864D02*
X184091Y474500D01*
X184318Y473875*
Y472938*
X184318D02*
X183864Y472313D01*
X183864D02*
X183182Y472000D01*
X182273*
X181591Y472313*
X181591D02*
X181136Y472938D01*
X195000Y477000D02*
X194773Y477625D01*
X194318Y478250*
X193864Y478563*
X193864D02*
X192955D01*
X192955D02*
X192500Y478250D01*
X192045Y477625*
X191818Y477000*
X191591Y476063*
X191591D02*
Y474500D01*
X191818Y473563*
X191818D02*
X192045Y472938D01*
X192045D02*
X192500Y472313D01*
X192500D02*
X192955Y472000D01*
X193864*
X194318Y472313*
X194318D02*
X194773Y472938D01*
X194773D02*
X195000Y473563D01*
X198409Y478563D02*
X197955Y478250D01*
X197500Y477625*
X197273Y477000*
X197045Y476063*
X197045D02*
Y474500D01*
X197273Y473563*
X197273D02*
X197500Y472938D01*
X197500D02*
X197955Y472313D01*
X197955D02*
X198409Y472000D01*
X199318*
X199773Y472313*
X199773D02*
X200227Y472938D01*
X200227D02*
X200455Y473563D01*
X200455D02*
X200682Y474500D01*
Y476063*
X200682D02*
X200455Y477000D01*
X200227Y477625*
X199773Y478250*
X199318Y478563*
X199318D02*
X198409D01*
X202727D02*
Y472000D01*
Y478563D02*
X204773D01*
X204773D02*
X205455Y478250D01*
X205682Y477938*
X205682D02*
X205909Y477313D01*
X205909D02*
Y476688D01*
X205909D02*
X205682Y476063D01*
X205682D02*
X205455Y475750D01*
X204773Y475438*
X204773D02*
X202727D01*
X204318D02*
X205909Y472000D01*
X207955Y478563D02*
Y472000D01*
Y478563D02*
X210000D01*
X210000D02*
X210682Y478250D01*
X210909Y477938*
X210909D02*
X211136Y477313D01*
X211136D02*
Y476375D01*
X210909Y475750*
X210682Y475438*
X210682D02*
X210000Y475125D01*
X207955*
X214545Y478563D02*
X214091Y478250D01*
X213636Y477625*
X213409Y477000*
X213182Y476063*
X213182D02*
Y474500D01*
X213409Y473563*
X213409D02*
X213636Y472938D01*
X213636D02*
X214091Y472313D01*
X214091D02*
X214545Y472000D01*
X215455*
X215909Y472313*
X215909D02*
X216364Y472938D01*
X216364D02*
X216591Y473563D01*
X216591D02*
X216818Y474500D01*
Y476063*
X216818D02*
X216591Y477000D01*
X216364Y477625*
X215909Y478250*
X215455Y478563*
X215455D02*
X214545D01*
X218864D02*
Y472000D01*
Y478563D02*
X220909D01*
X220909D02*
X221591Y478250D01*
X221818Y477938*
X221818D02*
X222045Y477313D01*
X222045D02*
Y476688D01*
X222045D02*
X221818Y476063D01*
X221818D02*
X221591Y475750D01*
X220909Y475438*
X220909D02*
X218864D01*
X220455D02*
X222045Y472000D01*
X225909Y478563D02*
X224091Y472000D01*
X225909Y478563D02*
X227727Y472000D01*
X224773Y474188D02*
X227045D01*
X231364Y478563D02*
Y472000D01*
X229773Y478563D02*
X232955D01*
X235000D02*
Y472000D01*
X238409Y478563D02*
X237955Y478250D01*
X237500Y477625*
X237273Y477000*
X237045Y476063*
X237045D02*
Y474500D01*
X237273Y473563*
X237273D02*
X237500Y472938D01*
X237500D02*
X237955Y472313D01*
X237955D02*
X238409Y472000D01*
X239318*
X239773Y472313*
X239773D02*
X240227Y472938D01*
X240227D02*
X240455Y473563D01*
X240455D02*
X240682Y474500D01*
Y476063*
X240682D02*
X240455Y477000D01*
X240227Y477625*
X239773Y478250*
X239318Y478563*
X239318D02*
X238409D01*
X242727D02*
Y472000D01*
Y478563D02*
X245909Y472000D01*
Y478563D02*
Y472000D01*
X84500Y463313D02*
X84955Y463625D01*
X85636Y464563*
X85636D02*
Y458000D01*
X90864Y464563D02*
X88591Y458000D01*
X87682Y464563D02*
X90864D01*
X92909Y460813D02*
X97000D01*
X101773Y463625D02*
X101545Y464250D01*
X100864Y464563*
X100864D02*
X100409D01*
X100409D02*
X99727Y464250D01*
X99273Y463313*
X99273D02*
X99045Y461750D01*
Y460188*
X99045D02*
X99273Y458938D01*
X99273D02*
X99727Y458313D01*
X99727D02*
X100409Y458000D01*
X100636*
X101318Y458313*
X101318D02*
X101773Y458938D01*
X101773D02*
X102000Y459875D01*
Y460188*
X102000D02*
X101773Y461125D01*
X101318Y461750*
X100636Y462063*
X100636D02*
X100409D01*
X100409D02*
X99727Y461750D01*
X99273Y461125*
X99045Y460188*
X105409Y464563D02*
X104727Y464250D01*
X104273Y463313*
X104273D02*
X104045Y461750D01*
Y460813*
X104045D02*
X104273Y459250D01*
X104727Y458313*
X104727D02*
X105409Y458000D01*
X105864*
X106545Y458313*
X106545D02*
X107000Y459250D01*
X107227Y460813*
X107227D02*
Y461750D01*
X107000Y463313*
X107000D02*
X106545Y464250D01*
X105864Y464563*
X105864D02*
X105409D01*
X110636D02*
X109955Y464250D01*
X109500Y463313*
X109500D02*
X109273Y461750D01*
Y460813*
X109273D02*
X109500Y459250D01*
X109955Y458313*
X109955D02*
X110636Y458000D01*
X111091*
X111773Y458313*
X111773D02*
X112227Y459250D01*
X112455Y460813*
X112455D02*
Y461750D01*
X112227Y463313*
X112227D02*
X111773Y464250D01*
X111091Y464563*
X111091D02*
X110636D01*
X116773D02*
X114500Y460188D01*
X114500D02*
X117909D01*
X116773Y464563D02*
Y458000D01*
X119955Y463313D02*
X120409Y463625D01*
X121091Y464563*
X121091D02*
Y458000D01*
X123136Y463313D02*
X123591Y463625D01*
X124273Y464563*
X124273D02*
Y458000D01*
X126318Y460813D02*
X130409D01*
X133818Y464563D02*
X133136Y464250D01*
X132682Y463313*
X132682D02*
X132455Y461750D01*
Y460813*
X132455D02*
X132682Y459250D01*
X133136Y458313*
X133136D02*
X133818Y458000D01*
X134273*
X134955Y458313*
X134955D02*
X135409Y459250D01*
X135636Y460813*
X135636D02*
Y461750D01*
X135409Y463313*
X135409D02*
X134955Y464250D01*
X134273Y464563*
X134273D02*
X133818D01*
X139045D02*
X138364Y464250D01*
X137909Y463313*
X137909D02*
X137682Y461750D01*
Y460813*
X137682D02*
X137909Y459250D01*
X138364Y458313*
X138364D02*
X139045Y458000D01*
X139500*
X140182Y458313*
X140182D02*
X140636Y459250D01*
X140864Y460813*
X140864D02*
Y461750D01*
X140636Y463313*
X140636D02*
X140182Y464250D01*
X139500Y464563*
X139500D02*
X139045D01*
X142909Y463313D02*
X143364Y463625D01*
X144045Y464563*
X144045D02*
Y458000D01*
X151318Y464563D02*
Y458000D01*
Y464563D02*
X153364D01*
X153364D02*
X154045Y464250D01*
X154273Y463938*
X154273D02*
X154500Y463313D01*
X154500D02*
Y462688D01*
X154500D02*
X154273Y462063D01*
X154273D02*
X154045Y461750D01*
X153364Y461438*
X153364D02*
X151318D01*
X152909D02*
X154500Y458000D01*
X156545Y464563D02*
Y458000D01*
Y464563D02*
X159500D01*
X156545Y461438D02*
X158364D01*
X156545Y458000D02*
X159500D01*
X161545Y464563D02*
X163364Y458000D01*
X165182Y464563D02*
X163364Y458000D01*
X172455Y464563D02*
Y458000D01*
Y464563D02*
X174500D01*
X174500D02*
X175182Y464250D01*
X175409Y463938*
X175409D02*
X175636Y463313D01*
X175636D02*
Y462688D01*
X175636D02*
X175409Y462063D01*
X175409D02*
X175182Y461750D01*
X174500Y461438*
X172455D02*
X174500D01*
X174500D02*
X175182Y461125D01*
X175409Y460813*
X175409D02*
X175636Y460188D01*
X175636D02*
Y459250D01*
X175409Y458625*
X175182Y458313*
X175182D02*
X174500Y458000D01*
X172455*
X86000Y451563D02*
Y445000D01*
Y451563D02*
X87591D01*
X87591D02*
X88273Y451250D01*
X88727Y450625*
X88955Y450000*
X89182Y449063*
X89182D02*
Y447500D01*
X88955Y446563*
X88955D02*
X88727Y445938D01*
X88727D02*
X88273Y445313D01*
X88273D02*
X87591Y445000D01*
X86000*
X93045Y451563D02*
X91227Y445000D01*
X93045Y451563D02*
X94864Y445000D01*
X91909Y447188D02*
X94182D01*
X98500Y451563D02*
Y445000D01*
X96909Y451563D02*
X100091D01*
X102136D02*
Y445000D01*
Y451563D02*
X105091D01*
X102136Y448438D02*
X103955D01*
X102136Y445000D02*
X105091D01*
X107364Y449375D02*
X107136Y449063D01*
X107136D02*
X107364Y448750D01*
X107591Y449063*
X107591D02*
X107364Y449375D01*
Y445625D02*
X107136Y445313D01*
X107136D02*
X107364Y445000D01*
X107591Y445313*
X107591D02*
X107364Y445625D01*
X116227Y451563D02*
X115545Y451250D01*
X115091Y450313*
X115091D02*
X114864Y448750D01*
Y447813*
X114864D02*
X115091Y446250D01*
X115545Y445313*
X115545D02*
X116227Y445000D01*
X116682*
X117364Y445313*
X117364D02*
X117818Y446250D01*
X118045Y447813*
X118045D02*
Y448750D01*
X117818Y450313*
X117818D02*
X117364Y451250D01*
X116682Y451563*
X116682D02*
X116227D01*
X120318Y450000D02*
Y450313D01*
X120318D02*
X120545Y450938D01*
X120545D02*
X120773Y451250D01*
X121227Y451563*
X121227D02*
X122136D01*
X122136D02*
X122591Y451250D01*
X122818Y450938*
X122818D02*
X123045Y450313D01*
X123045D02*
Y449688D01*
X123045D02*
X122818Y449063D01*
X122818D02*
X122364Y448125D01*
X120091Y445000*
X123273*
X125318Y447813D02*
X129409D01*
X131455Y450313D02*
X131909Y450625D01*
X132591Y451563*
X132591D02*
Y445000D01*
X136909Y451563D02*
X134636Y447188D01*
X134636D02*
X138045D01*
X136909Y451563D02*
Y445000D01*
X140091Y447813D02*
X144182D01*
X146227Y450313D02*
X146682Y450625D01*
X147364Y451563*
X147364D02*
Y445000D01*
X149864Y451563D02*
X152364D01*
X152364D02*
X151000Y449063D01*
X151000D02*
X151682D01*
X151682D02*
X152136Y448750D01*
X152364Y448438*
X152364D02*
X152591Y447500D01*
Y446875*
X152364Y445938*
X152364D02*
X151909Y445313D01*
X151909D02*
X151227Y445000D01*
X150545*
X149864Y445313*
X149864D02*
X149636Y445625D01*
X149409Y446250*
X252300Y478600D02*
X412300D01*
Y398600*
X252300*
Y478600*
Y458600D02*
X412300D01*
X252300Y443600D02*
X412300D01*
X252300Y428600D02*
X412300D01*
X302300Y458600D02*
Y398600D01*
X252300Y413600D02*
X412300D01*
G54D28*
X286114Y471000D02*
X285773Y471938D01*
X285773D02*
X285091Y472875D01*
X284409Y473344*
X283045*
X282364Y472875*
X281682Y471938*
X281682D02*
X281341Y471000D01*
X281000Y469594*
Y467250*
X281341Y465844*
X281682Y464906*
X282364Y463969*
X283045Y463500*
X284409*
X285091Y463969*
X285773Y464906*
X286114Y465844*
X291909Y473344D02*
X289182Y463500D01*
X291909Y473344D02*
X294636Y463500D01*
X290205Y466781D02*
X293614D01*
X302818Y471000D02*
X302477Y471938D01*
X302477D02*
X301795Y472875D01*
X301114Y473344*
X299750*
X299068Y472875*
X298386Y471938*
X298386D02*
X298045Y471000D01*
X297705Y469594*
Y467250*
X298045Y465844*
X298386Y464906*
X299068Y463969*
X299750Y463500*
X301114*
X301795Y463969*
X302477Y464906*
X302818Y465844*
X313727Y467719D02*
X319864D01*
X330773Y473344D02*
Y463500D01*
Y473344D02*
X335205D01*
X330773Y468656D02*
X333500D01*
X330773Y463500D02*
X335205D01*
X343386Y471000D02*
X343045Y471938D01*
X343045D02*
X342364Y472875D01*
X341682Y473344*
X340318*
X339636Y472875*
X338955Y471938*
X338955D02*
X338614Y471000D01*
X338273Y469594*
Y467250*
X338614Y465844*
X338955Y464906*
X339636Y463969*
X340318Y463500*
X341682*
X342364Y463969*
X343045Y464906*
X343386Y465844*
X349182Y473344D02*
X346455Y463500D01*
X349182Y473344D02*
X351909Y463500D01*
X347477Y466781D02*
X350886D01*
X357364Y473344D02*
Y463500D01*
X354977Y473344D02*
X359750D01*
X370659D02*
Y463500D01*
Y473344D02*
X375091D01*
X370659Y468656D02*
X373386D01*
X370659Y463500D02*
X375091D01*
X378159Y473344D02*
Y463500D01*
Y473344D02*
X382591D01*
X378159Y468656D02*
X380886D01*
X378159Y463500D02*
X382591D01*
X390773Y471000D02*
X390432Y471938D01*
X390432D02*
X389750Y472875D01*
X389068Y473344*
X387705*
X387023Y472875*
X386341Y471938*
X386341D02*
X386000Y471000D01*
X385659Y469594*
Y467250*
X386000Y465844*
X386341Y464906*
X387023Y463969*
X387705Y463500*
X389068*
X389750Y463969*
X390432Y464906*
X390773Y465844*
G54D47*
X135315Y142520D03*
X149488D03*
Y128346D03*
X135315D03*
X292795Y142520D03*
X306969D03*
Y128346D03*
X292795D03*
X214055Y142520D03*
X228228D03*
Y128346D03*
X214055D03*
X371535Y142520D03*
X385709D03*
Y128346D03*
X371535D03*
G54D48*
X112874Y135433D03*
X171929D03*
X270354D03*
X329409D03*
X191614D03*
X250669D03*
X349094D03*
X408150D03*
G54D49*
X112795Y119764D03*
X171929D03*
X270276D03*
X329409D03*
X191535D03*
X250669D03*
X349016D03*
X408150D03*
G54D50*
X142402Y119685D03*
X299882D03*
X221142D03*
X378622D03*
G54D52*
X221017Y313276D03*
Y333876D03*
G54D53*
X207500Y308500D03*
G54D54*
X318720Y299420D03*
Y306900D03*
X318650Y322010D03*
Y329490D03*
X366000Y326760D03*
Y334240D03*
X307710Y322000D03*
Y314520D03*
G54D55*
X209020Y325000D03*
X174980D03*
G54D56*
X198980D03*
X185020D03*
G54D57*
X353500Y307000D03*
Y312000D03*
Y317000D03*
Y322000D03*
X328900D03*
Y317000D03*
Y312000D03*
Y307000D03*
G54D58*
X341100Y314500D03*
G54D59*
X130984Y350315D03*
Y328150D03*
Y302087D03*
G54D60*
X279685Y361732D03*
X271811Y362126D03*
X263937Y361732D03*
X256063Y362126D03*
X248189Y361732D03*
X240315Y362126D03*
X279685Y356220D03*
X271811Y356614D03*
X263937Y356220D03*
X256063Y356614D03*
X248189Y356220D03*
X240315Y356614D03*
X279685Y350709D03*
X271811Y351102D03*
X263937Y350709D03*
X256063Y351102D03*
X248189Y350709D03*
X240315Y351102D03*
X279685Y345197D03*
X271811Y345591D03*
X263937Y345197D03*
X256063Y345591D03*
X248189Y345197D03*
X240315Y345591D03*
X279685Y339685D03*
X271811Y340079D03*
X263937Y339685D03*
X256063Y340079D03*
X248189Y339685D03*
X240315Y340079D03*
X279685Y334173D03*
X271811Y334567D03*
X263937Y334173D03*
X256063Y334567D03*
X248189Y334173D03*
X240315Y334567D03*
X279685Y328661D03*
X271811Y329055D03*
X263937Y328661D03*
X256063Y329055D03*
X248189Y328661D03*
X240315Y329055D03*
X279685Y323150D03*
X271811Y323543D03*
X263937Y323150D03*
X256063Y323543D03*
X248189Y323150D03*
X240315Y323543D03*
X279685Y317638D03*
X271811Y318031D03*
X263937Y317638D03*
X256063Y318031D03*
X248189Y317638D03*
X240315Y318031D03*
G54D61*
X180000Y220217D03*
X175000D03*
X170000D03*
X165000D03*
X160000D03*
X155000D03*
X150000D03*
X145000D03*
Y184783D03*
X150000D03*
X155000D03*
X160000D03*
X165000D03*
X170000D03*
X175000D03*
X180000D03*
X250000Y220217D03*
X245000D03*
X240000D03*
X235000D03*
X230000D03*
X225000D03*
X220000D03*
X215000D03*
Y184783D03*
X220000D03*
X225000D03*
X230000D03*
X235000D03*
X240000D03*
X245000D03*
X250000D03*
X320000Y220217D03*
X315000D03*
X310000D03*
X305000D03*
X300000D03*
X295000D03*
X290000D03*
X285000D03*
Y184783D03*
X290000D03*
X295000D03*
X300000D03*
X305000D03*
X310000D03*
X315000D03*
X320000D03*
X390000Y220217D03*
X385000D03*
X380000D03*
X375000D03*
X370000D03*
X365000D03*
X360000D03*
X355000D03*
Y184783D03*
X360000D03*
X365000D03*
X370000D03*
X375000D03*
X380000D03*
X385000D03*
X390000D03*
G54D83*
X100000Y100000D02*
Y360030D01*
X109975Y370005*
X409970*
X419983Y359993*
X419983D02*
Y100000D01*
X419983D02*
X100000D01*
G54D85*
X197512Y308500D03*
X186488D03*
G54D86*
X288740Y250500D03*
X281260D03*
X188740D03*
X181260D03*
G54D87*
X198555Y339573D03*
X177955D03*
G54D88*
X187547Y288500D03*
X193453D03*
X287547Y289000D03*
X293453D03*
G54D89*
X187500Y280630D03*
X182500D03*
X177500D03*
X172500D03*
X167500D03*
X162500D03*
X157500D03*
X152500D03*
Y259370D03*
X157500D03*
X162500D03*
X167500D03*
X172500D03*
X177500D03*
X182500D03*
X187500D03*
X287500Y280630D03*
X282500D03*
X277500D03*
X272500D03*
X267500D03*
X262500D03*
X257500D03*
X252500D03*
Y259370D03*
X257500D03*
X262500D03*
X267500D03*
X272500D03*
X277500D03*
X282500D03*
X287500D03*
G54D90*
X410000Y350000D03*
X110000Y165000D03*
Y275000D03*
G54D91*
X414750Y350000D02*
G75*
G03X414750I-4750J0D01*
G01X114750Y165000D02*
G03X114750I-4750J0D01*
G01Y275000D02*
G03X114750I-4750J0D01*
G01X414750Y350000D02*
G03X414750I-4750J0D01*
G01X114750Y165000D02*
G03X114750I-4750J0D01*
G01Y275000D02*
G03X114750I-4750J0D01*
G01X405254Y350199D02*
X414746D01*
X405257Y349749D02*
X414743D01*
X405295Y350649D02*
X414705D01*
X405302Y349299D02*
X414698D01*
X405379Y351099D02*
X414621D01*
X405392Y348849D02*
X414608D01*
X405510Y351549D02*
X414490D01*
X405528Y348399D02*
X414472D01*
X405691Y351999D02*
X414309D01*
X405716Y347949D02*
X414284D01*
X405930Y352449D02*
X414070D01*
X405962Y347499D02*
X414038D01*
X406237Y352899D02*
X413763D01*
X406278Y347049D02*
X413722D01*
X406631Y353349D02*
X413369D01*
X406684Y346599D02*
X413316D01*
X407148Y353799D02*
X412852D01*
X407220Y346149D02*
X412780D01*
X407876Y354249D02*
X412124D01*
X407985Y345699D02*
X412015D01*
X409304Y354699D02*
X410696D01*
X105254Y165199D02*
X114746D01*
X105257Y164749D02*
X114743D01*
X105295Y165649D02*
X114705D01*
X105302Y164299D02*
X114698D01*
X105379Y166099D02*
X114621D01*
X105392Y163849D02*
X114608D01*
X105510Y166549D02*
X114490D01*
X105528Y163399D02*
X114472D01*
X105691Y166999D02*
X114309D01*
X105716Y162949D02*
X114284D01*
X105930Y167449D02*
X114070D01*
X105962Y162499D02*
X114038D01*
X106237Y167899D02*
X113763D01*
X106278Y162049D02*
X113722D01*
X106631Y168349D02*
X113369D01*
X106684Y161599D02*
X113316D01*
X107148Y168799D02*
X112852D01*
X107220Y161149D02*
X112780D01*
X107876Y169249D02*
X112124D01*
X107985Y160699D02*
X112015D01*
X109304Y169699D02*
X110696D01*
X105254Y275199D02*
X114746D01*
X105257Y274749D02*
X114743D01*
X105295Y275649D02*
X114705D01*
X105302Y274299D02*
X114698D01*
X105379Y276099D02*
X114621D01*
X105392Y273849D02*
X114608D01*
X105510Y276549D02*
X114490D01*
X105528Y273399D02*
X114472D01*
X105691Y276999D02*
X114309D01*
X105716Y272949D02*
X114284D01*
X105930Y277449D02*
X114070D01*
X105962Y272499D02*
X114038D01*
X106237Y277899D02*
X113763D01*
X106278Y272049D02*
X113722D01*
X106631Y278349D02*
X113369D01*
X106684Y271599D02*
X113316D01*
X107148Y278799D02*
X112852D01*
X107220Y271149D02*
X112780D01*
X107876Y279249D02*
X112124D01*
X107985Y270699D02*
X112015D01*
X109304Y279699D02*
X110696D01*
G74*
X0Y0D02*
M02*
