*
*
G04 PADS 9.3 Build Number: 433611 generated Gerber (RS-274-X) file*
G04 PC Version=2.1*
*
%IN "17-600552-111_REVA_DO.p"*%
*
%MOIN*%
*
%FSLAX35Y35*%
*
*
*
*
G04 PC Standard Apertures*
*
*
G04 Thermal Relief Aperture macro.*
%AMTER*
1,1,$1,0,0*
1,0,$1-$2,0,0*
21,0,$3,$4,0,0,45*
21,0,$3,$4,0,0,135*
%
*
*
G04 Annular Aperture macro.*
%AMANN*
1,1,$1,0,0*
1,0,$2,0,0*
%
*
*
G04 Odd Aperture macro.*
%AMODD*
1,1,$1,0,0*
1,0,$1-0.005,0,0*
%
*
*
G04 PC Custom Aperture Macros*
*
*
*
*
*
*
G04 PC Aperture Table*
*
%ADD010C,0.001*%
%ADD026C,0.06*%
%ADD049R,0.07X0.07*%
%ADD050C,0.07*%
%ADD085C,0.01*%
%ADD087C,0.015*%
%ADD088C,0.005*%
%ADD089C,0.012*%
%ADD091C,0.02*%
%ADD092C,0.008*%
%ADD100C,0.03*%
%ADD102C,0.036*%
%ADD110C,0.025*%
%ADD125C,0.04*%
%ADD126C,0.024*%
%ADD245R,0.06102X0.2126*%
%ADD246R,0.1X0.072*%
%ADD247R,0.091X0.1*%
%ADD248R,0.1X0.091*%
%ADD249R,0.01575X0.03543*%
%ADD250R,0.18504X0.06102*%
%ADD251R,0.05512X0.04134*%
%ADD252R,0.03937X0.0315*%
%ADD253R,0.036X0.036*%
%ADD271C,0.17717*%
%ADD272C,0.325*%
%ADD276R,0.2126X0.06102*%
%ADD277R,0.04134X0.05512*%
%ADD278R,0.05709X0.01181*%
%ADD279R,0.0689X0.04724*%
%ADD280R,0.04724X0.0689*%
%ADD281R,0.03937X0.0374*%
%ADD282R,0.0374X0.03937*%
%ADD283R,0.087X0.024*%
%ADD284R,0.0315X0.03937*%
%ADD285C,0.011*%
*
*
*
*
G04 PC Circuitry*
G04 Layer Name 17-600552-111_REVA_DO.p - circuitry*
%LPD*%
*
*
G04 PC Custom Flashes*
G04 Layer Name 17-600552-111_REVA_DO.p - flashes*
%LPD*%
*
*
G04 PC Circuitry*
G04 Layer Name 17-600552-111_REVA_DO.p - circuitry*
%LPD*%
*
G54D10*
G54D26*
G01X1010000Y1347500D03*
X1220000Y1417500D03*
X1223100Y1049800D03*
X1063858Y1011826D03*
Y1021826D03*
X1073858Y1011826D03*
Y1021826D03*
X1083858Y1011826D03*
Y1021826D03*
X1093858Y1011826D03*
Y1021826D03*
X1103858Y1011826D03*
Y1021826D03*
X1113858Y1011826D03*
Y1021826D03*
X1123858Y1011826D03*
Y1021826D03*
X1133858Y1011826D03*
Y1021826D03*
X1143858Y1011826D03*
Y1021826D03*
X1153858Y1011826D03*
Y1021826D03*
X1163858Y1011826D03*
Y1021826D03*
X1173858Y1011826D03*
Y1021826D03*
X1183858Y1011826D03*
Y1021826D03*
X1193858Y1011826D03*
Y1021826D03*
X1203858Y1011826D03*
Y1021826D03*
X1063858Y1436174D03*
Y1446174D03*
X1073858Y1436174D03*
Y1446174D03*
X1083858Y1436174D03*
Y1446174D03*
X1093858Y1436174D03*
Y1446174D03*
X1103858Y1436174D03*
Y1446174D03*
X1113858Y1436174D03*
Y1446174D03*
X1123858Y1436174D03*
Y1446174D03*
X1133858Y1436174D03*
Y1446174D03*
X1143858Y1436174D03*
Y1446174D03*
X1153858Y1436174D03*
Y1446174D03*
X1163858Y1436174D03*
Y1446174D03*
X1173858Y1436174D03*
Y1446174D03*
X1183858Y1436174D03*
Y1446174D03*
X1193858Y1436174D03*
Y1446174D03*
X1203858Y1436174D03*
Y1446174D03*
X1045438Y1102267D02*
X1045439Y1111500D01*
X1065100Y1131161*
Y1159500*
X1082600Y1177000*
X1097897*
X1118000Y1197103*
Y1202031*
X1118012*
X1124868Y1101267D02*
X1189967D01*
X1203100Y1114400*
Y1160700*
X1118012Y1202031D02*
Y1207543D01*
X1125886Y1202425D02*
X1152311Y1176000D01*
X1187800*
X1203100Y1160700*
X1125886Y1202425D02*
Y1207937D01*
G54D49*
X1018100Y1408100D03*
X1239200D03*
X1018100Y1060500D03*
X1249200D03*
G54D50*
X1018100Y1398100D03*
X1028100Y1408100D03*
Y1398100D03*
X1239200D03*
X1249200Y1408100D03*
Y1398100D03*
X1018100Y1050500D03*
X1028100Y1060500D03*
Y1050500D03*
X1239200Y1060500D03*
X1249200Y1050500D03*
X1239200D03*
G54D85*
X996409Y1607811D02*
X996182Y1608436D01*
X995727Y1609061*
X995273Y1609374*
X994364*
X993909Y1609061*
X993455Y1608436*
X993227Y1607811*
X993000Y1606874*
Y1605311*
X993227Y1604374*
X993455Y1603749*
X993909Y1603124*
X994364Y1602811*
X995273*
X995727Y1603124*
X996182Y1603749*
X996409Y1604374*
X999818Y1609374D02*
X999364Y1609061D01*
X998909Y1608436*
X998682Y1607811*
X998455Y1606874*
Y1605311*
X998682Y1604374*
X998909Y1603749*
X999364Y1603124*
X999818Y1602811*
X1000727*
X1001182Y1603124*
X1001636Y1603749*
X1001864Y1604374*
X1002091Y1605311*
Y1606874*
X1001864Y1607811*
X1001636Y1608436*
X1001182Y1609061*
X1000727Y1609374*
X999818*
X1004136D02*
Y1602811D01*
Y1609374D02*
X1005955Y1602811D01*
X1007773Y1609374D02*
X1005955Y1602811D01*
X1007773Y1609374D02*
Y1602811D01*
X1009818Y1609374D02*
Y1602811D01*
Y1609374D02*
X1011864D01*
X1012545Y1609061*
X1012773Y1608749*
X1013000Y1608124*
Y1607186*
X1012773Y1606561*
X1012545Y1606249*
X1011864Y1605936*
X1009818*
X1015045Y1609374D02*
Y1602811D01*
Y1609374D02*
X1017091D01*
X1017773Y1609061*
X1018000Y1608749*
X1018227Y1608124*
Y1607499*
X1018000Y1606874*
X1017773Y1606561*
X1017091Y1606249*
X1015045*
X1016636D02*
X1018227Y1602811D01*
X1020273Y1609374D02*
Y1602811D01*
Y1609374D02*
X1023227D01*
X1020273Y1606249D02*
X1022091D01*
X1020273Y1602811D02*
X1023227D01*
X1028455Y1608436D02*
X1028000Y1609061D01*
X1027318Y1609374*
X1026409*
X1025727Y1609061*
X1025273Y1608436*
Y1607811*
X1025500Y1607186*
X1025727Y1606874*
X1026182Y1606561*
X1027545Y1605936*
X1028000Y1605624*
X1028227Y1605311*
X1028455Y1604686*
Y1603749*
X1028000Y1603124*
X1027318Y1602811*
X1026409*
X1025727Y1603124*
X1025273Y1603749*
X1033682Y1608436D02*
X1033227Y1609061D01*
X1032545Y1609374*
X1031636*
X1030955Y1609061*
X1030500Y1608436*
Y1607811*
X1030727Y1607186*
X1030955Y1606874*
X1031409Y1606561*
X1032773Y1605936*
X1033227Y1605624*
X1033455Y1605311*
X1033682Y1604686*
Y1603749*
X1033227Y1603124*
X1032545Y1602811*
X1031636*
X1030955Y1603124*
X1030500Y1603749*
X1037091Y1609374D02*
X1036636Y1609061D01*
X1036182Y1608436*
X1035955Y1607811*
X1035727Y1606874*
Y1605311*
X1035955Y1604374*
X1036182Y1603749*
X1036636Y1603124*
X1037091Y1602811*
X1038000*
X1038455Y1603124*
X1038909Y1603749*
X1039136Y1604374*
X1039364Y1605311*
Y1606874*
X1039136Y1607811*
X1038909Y1608436*
X1038455Y1609061*
X1038000Y1609374*
X1037091*
X1041409D02*
Y1602811D01*
Y1609374D02*
X1043455D01*
X1044136Y1609061*
X1044364Y1608749*
X1044591Y1608124*
Y1607499*
X1044364Y1606874*
X1044136Y1606561*
X1043455Y1606249*
X1041409*
X1043000D02*
X1044591Y1602811D01*
X1055273Y1607811D02*
X1055045Y1608436D01*
X1054591Y1609061*
X1054136Y1609374*
X1053227*
X1052773Y1609061*
X1052318Y1608436*
X1052091Y1607811*
X1051864Y1606874*
Y1605311*
X1052091Y1604374*
X1052318Y1603749*
X1052773Y1603124*
X1053227Y1602811*
X1054136*
X1054591Y1603124*
X1055045Y1603749*
X1055273Y1604374*
X1058682Y1609374D02*
X1058227Y1609061D01*
X1057773Y1608436*
X1057545Y1607811*
X1057318Y1606874*
Y1605311*
X1057545Y1604374*
X1057773Y1603749*
X1058227Y1603124*
X1058682Y1602811*
X1059591*
X1060045Y1603124*
X1060500Y1603749*
X1060727Y1604374*
X1060955Y1605311*
Y1606874*
X1060727Y1607811*
X1060500Y1608436*
X1060045Y1609061*
X1059591Y1609374*
X1058682*
X1063000D02*
Y1602811D01*
Y1609374D02*
X1066182Y1602811D01*
Y1609374D02*
Y1602811D01*
X1069818Y1609374D02*
Y1602811D01*
X1068227Y1609374D02*
X1071409D01*
X1073455D02*
Y1602811D01*
Y1609374D02*
X1075500D01*
X1076182Y1609061*
X1076409Y1608749*
X1076636Y1608124*
Y1607499*
X1076409Y1606874*
X1076182Y1606561*
X1075500Y1606249*
X1073455*
X1075045D02*
X1076636Y1602811D01*
X1080045Y1609374D02*
X1079591Y1609061D01*
X1079136Y1608436*
X1078909Y1607811*
X1078682Y1606874*
Y1605311*
X1078909Y1604374*
X1079136Y1603749*
X1079591Y1603124*
X1080045Y1602811*
X1080955*
X1081409Y1603124*
X1081864Y1603749*
X1082091Y1604374*
X1082318Y1605311*
Y1606874*
X1082091Y1607811*
X1081864Y1608436*
X1081409Y1609061*
X1080955Y1609374*
X1080045*
X1084364D02*
Y1602811D01*
X1087091*
X1092318Y1608436D02*
X1091864Y1609061D01*
X1091182Y1609374*
X1090273*
X1089591Y1609061*
X1089136Y1608436*
Y1607811*
X1089364Y1607186*
X1089591Y1606874*
X1090045Y1606561*
X1091409Y1605936*
X1091864Y1605624*
X1092091Y1605311*
X1092318Y1604686*
Y1603749*
X1091864Y1603124*
X1091182Y1602811*
X1090273*
X1089591Y1603124*
X1089136Y1603749*
X1103000Y1607811D02*
X1102773Y1608436D01*
X1102318Y1609061*
X1101864Y1609374*
X1100955*
X1100500Y1609061*
X1100045Y1608436*
X1099818Y1607811*
X1099591Y1606874*
Y1605311*
X1099818Y1604374*
X1100045Y1603749*
X1100500Y1603124*
X1100955Y1602811*
X1101864*
X1102318Y1603124*
X1102773Y1603749*
X1103000Y1604374*
X1106409Y1609374D02*
X1105955Y1609061D01*
X1105500Y1608436*
X1105273Y1607811*
X1105045Y1606874*
Y1605311*
X1105273Y1604374*
X1105500Y1603749*
X1105955Y1603124*
X1106409Y1602811*
X1107318*
X1107773Y1603124*
X1108227Y1603749*
X1108455Y1604374*
X1108682Y1605311*
Y1606874*
X1108455Y1607811*
X1108227Y1608436*
X1107773Y1609061*
X1107318Y1609374*
X1106409*
X1110727D02*
Y1602811D01*
Y1609374D02*
X1112773D01*
X1113455Y1609061*
X1113682Y1608749*
X1113909Y1608124*
Y1607499*
X1113682Y1606874*
X1113455Y1606561*
X1112773Y1606249*
X1110727*
X1112318D02*
X1113909Y1602811D01*
X1115955Y1609374D02*
Y1602811D01*
Y1609374D02*
X1118000D01*
X1118682Y1609061*
X1118909Y1608749*
X1119136Y1608124*
Y1607186*
X1118909Y1606561*
X1118682Y1606249*
X1118000Y1605936*
X1115955*
X1122545Y1609374D02*
X1122091Y1609061D01*
X1121636Y1608436*
X1121409Y1607811*
X1121182Y1606874*
Y1605311*
X1121409Y1604374*
X1121636Y1603749*
X1122091Y1603124*
X1122545Y1602811*
X1123455*
X1123909Y1603124*
X1124364Y1603749*
X1124591Y1604374*
X1124818Y1605311*
Y1606874*
X1124591Y1607811*
X1124364Y1608436*
X1123909Y1609061*
X1123455Y1609374*
X1122545*
X1126864D02*
Y1602811D01*
Y1609374D02*
X1128909D01*
X1129591Y1609061*
X1129818Y1608749*
X1130045Y1608124*
Y1607499*
X1129818Y1606874*
X1129591Y1606561*
X1128909Y1606249*
X1126864*
X1128455D02*
X1130045Y1602811D01*
X1133909Y1609374D02*
X1132091Y1602811D01*
X1133909Y1609374D02*
X1135727Y1602811D01*
X1132773Y1604999D02*
X1135045D01*
X1139364Y1609374D02*
Y1602811D01*
X1137773Y1609374D02*
X1140955D01*
X1143000D02*
Y1602811D01*
X1146409Y1609374D02*
X1145955Y1609061D01*
X1145500Y1608436*
X1145273Y1607811*
X1145045Y1606874*
Y1605311*
X1145273Y1604374*
X1145500Y1603749*
X1145955Y1603124*
X1146409Y1602811*
X1147318*
X1147773Y1603124*
X1148227Y1603749*
X1148455Y1604374*
X1148682Y1605311*
Y1606874*
X1148455Y1607811*
X1148227Y1608436*
X1147773Y1609061*
X1147318Y1609374*
X1146409*
X1150727D02*
Y1602811D01*
Y1609374D02*
X1153909Y1602811D01*
Y1609374D02*
Y1602811D01*
X992500Y1594124D02*
X992955Y1594436D01*
X993636Y1595374*
Y1588811*
X998864Y1595374D02*
X996591Y1588811D01*
X995682Y1595374D02*
X998864D01*
X1000909Y1591624D02*
X1005000D01*
X1009773Y1594436D02*
X1009545Y1595061D01*
X1008864Y1595374*
X1008409*
X1007727Y1595061*
X1007273Y1594124*
X1007045Y1592561*
Y1590999*
X1007273Y1589749*
X1007727Y1589124*
X1008409Y1588811*
X1008636*
X1009318Y1589124*
X1009773Y1589749*
X1010000Y1590686*
Y1590999*
X1009773Y1591936*
X1009318Y1592561*
X1008636Y1592874*
X1008409*
X1007727Y1592561*
X1007273Y1591936*
X1007045Y1590999*
X1013409Y1595374D02*
X1012727Y1595061D01*
X1012273Y1594124*
X1012045Y1592561*
Y1591624*
X1012273Y1590061*
X1012727Y1589124*
X1013409Y1588811*
X1013864*
X1014545Y1589124*
X1015000Y1590061*
X1015227Y1591624*
Y1592561*
X1015000Y1594124*
X1014545Y1595061*
X1013864Y1595374*
X1013409*
X1018636D02*
X1017955Y1595061D01*
X1017500Y1594124*
X1017273Y1592561*
Y1591624*
X1017500Y1590061*
X1017955Y1589124*
X1018636Y1588811*
X1019091*
X1019773Y1589124*
X1020227Y1590061*
X1020455Y1591624*
Y1592561*
X1020227Y1594124*
X1019773Y1595061*
X1019091Y1595374*
X1018636*
X1025455D02*
X1023182D01*
X1022955Y1592561*
X1023182Y1592874*
X1023864Y1593186*
X1024545*
X1025227Y1592874*
X1025682Y1592249*
X1025909Y1591311*
X1025682Y1590686*
X1025455Y1589749*
X1025000Y1589124*
X1024318Y1588811*
X1023636*
X1022955Y1589124*
X1022727Y1589436*
X1022500Y1590061*
X1030909Y1595374D02*
X1028636D01*
X1028409Y1592561*
X1028636Y1592874*
X1029318Y1593186*
X1030000*
X1030682Y1592874*
X1031136Y1592249*
X1031364Y1591311*
X1031136Y1590686*
X1030909Y1589749*
X1030455Y1589124*
X1029773Y1588811*
X1029091*
X1028409Y1589124*
X1028182Y1589436*
X1027955Y1590061*
X1033636Y1593811D02*
Y1594124D01*
X1033864Y1594749*
X1034091Y1595061*
X1034545Y1595374*
X1035455*
X1035909Y1595061*
X1036136Y1594749*
X1036364Y1594124*
Y1593499*
X1036136Y1592874*
X1035682Y1591936*
X1033409Y1588811*
X1036591*
X1038636Y1591624D02*
X1042727D01*
X1044773Y1594124D02*
X1045227Y1594436D01*
X1045909Y1595374*
Y1588811*
X1047955Y1594124D02*
X1048409Y1594436D01*
X1049091Y1595374*
Y1588811*
X1051136Y1594124D02*
X1051591Y1594436D01*
X1052273Y1595374*
Y1588811*
X1059545Y1595374D02*
Y1588811D01*
Y1595374D02*
X1061591D01*
X1062273Y1595061*
X1062500Y1594749*
X1062727Y1594124*
Y1593499*
X1062500Y1592874*
X1062273Y1592561*
X1061591Y1592249*
X1059545*
X1061136D02*
X1062727Y1588811D01*
X1064773Y1595374D02*
Y1588811D01*
Y1595374D02*
X1067727D01*
X1064773Y1592249D02*
X1066591D01*
X1064773Y1588811D02*
X1067727D01*
X1069773Y1595374D02*
X1071591Y1588811D01*
X1073409Y1595374D02*
X1071591Y1588811D01*
X1082500Y1595374D02*
X1080682Y1588811D01*
X1082500Y1595374D02*
X1084318Y1588811D01*
X1081364Y1590999D02*
X1083636D01*
X994000Y1582374D02*
Y1575811D01*
Y1582374D02*
X995591D01*
X996273Y1582061*
X996727Y1581436*
X996955Y1580811*
X997182Y1579874*
Y1578311*
X996955Y1577374*
X996727Y1576749*
X996273Y1576124*
X995591Y1575811*
X994000*
X1001045Y1582374D02*
X999227Y1575811D01*
X1001045Y1582374D02*
X1002864Y1575811D01*
X999909Y1577999D02*
X1002182D01*
X1006500Y1582374D02*
Y1575811D01*
X1004909Y1582374D02*
X1008091D01*
X1010136D02*
Y1575811D01*
Y1582374D02*
X1013091D01*
X1010136Y1579249D02*
X1011955D01*
X1010136Y1575811D02*
X1013091D01*
X1015364Y1580186D02*
X1015136Y1579874D01*
X1015364Y1579561*
X1015591Y1579874*
X1015364Y1580186*
Y1576436D02*
X1015136Y1576124D01*
X1015364Y1575811*
X1015591Y1576124*
X1015364Y1576436*
X1024227Y1582374D02*
X1023545Y1582061D01*
X1023091Y1581124*
X1022864Y1579561*
Y1578624*
X1023091Y1577061*
X1023545Y1576124*
X1024227Y1575811*
X1024682*
X1025364Y1576124*
X1025818Y1577061*
X1026045Y1578624*
Y1579561*
X1025818Y1581124*
X1025364Y1582061*
X1024682Y1582374*
X1024227*
X1030364D02*
X1028091Y1577999D01*
X1031500*
X1030364Y1582374D02*
Y1575811D01*
X1033545Y1578624D02*
X1037636D01*
X1039682Y1581124D02*
X1040136Y1581436D01*
X1040818Y1582374*
Y1575811*
X1044227Y1582374D02*
X1043545Y1582061D01*
X1043091Y1581124*
X1042864Y1579561*
Y1578624*
X1043091Y1577061*
X1043545Y1576124*
X1044227Y1575811*
X1044682*
X1045364Y1576124*
X1045818Y1577061*
X1046045Y1578624*
Y1579561*
X1045818Y1581124*
X1045364Y1582061*
X1044682Y1582374*
X1044227*
X1048091Y1578624D02*
X1052182D01*
X1054227Y1581124D02*
X1054682Y1581436D01*
X1055364Y1582374*
Y1575811*
X1059682Y1582374D02*
X1057409Y1577999D01*
X1060818*
X1059682Y1582374D02*
Y1575811D01*
X1194000Y1589374D02*
Y1582811D01*
X1196727*
X1200591Y1589374D02*
X1198773Y1582811D01*
X1200591Y1589374D02*
X1202409Y1582811D01*
X1199455Y1584999D02*
X1201727D01*
X1204455Y1589374D02*
X1206273Y1586249D01*
Y1582811*
X1208091Y1589374D02*
X1206273Y1586249D01*
X1210136Y1589374D02*
Y1582811D01*
Y1589374D02*
X1213091D01*
X1210136Y1586249D02*
X1211955D01*
X1210136Y1582811D02*
X1213091D01*
X1215136Y1589374D02*
Y1582811D01*
Y1589374D02*
X1217182D01*
X1217864Y1589061*
X1218091Y1588749*
X1218318Y1588124*
Y1587499*
X1218091Y1586874*
X1217864Y1586561*
X1217182Y1586249*
X1215136*
X1216727D02*
X1218318Y1582811D01*
X1194000Y1574374D02*
Y1567811D01*
Y1574374D02*
X1196045D01*
X1196727Y1574061*
X1196955Y1573749*
X1197182Y1573124*
Y1572186*
X1196955Y1571561*
X1196727Y1571249*
X1196045Y1570936*
X1194000*
X1201045Y1574374D02*
X1199227Y1567811D01*
X1201045Y1574374D02*
X1202864Y1567811D01*
X1199909Y1569999D02*
X1202182D01*
X1204909Y1574374D02*
Y1567811D01*
Y1574374D02*
X1206955D01*
X1207636Y1574061*
X1207864Y1573749*
X1208091Y1573124*
Y1572499*
X1207864Y1571874*
X1207636Y1571561*
X1206955Y1571249*
X1204909*
X1206500D02*
X1208091Y1567811D01*
X1211727Y1574374D02*
Y1567811D01*
X1210136Y1574374D02*
X1213318D01*
X1220591D02*
Y1567811D01*
Y1574374D02*
X1223773Y1567811D01*
Y1574374D02*
Y1567811D01*
X1227182Y1574374D02*
X1226727Y1574061D01*
X1226273Y1573436*
X1226045Y1572811*
X1225818Y1571874*
Y1570311*
X1226045Y1569374*
X1226273Y1568749*
X1226727Y1568124*
X1227182Y1567811*
X1228091*
X1228545Y1568124*
X1229000Y1568749*
X1229227Y1569374*
X1229455Y1570311*
Y1571874*
X1229227Y1572811*
X1229000Y1573436*
X1228545Y1574061*
X1228091Y1574374*
X1227182*
X1194000Y1559374D02*
Y1552811D01*
Y1559374D02*
X1196045D01*
X1196727Y1559061*
X1196955Y1558749*
X1197182Y1558124*
Y1557499*
X1196955Y1556874*
X1196727Y1556561*
X1196045Y1556249*
X1194000*
X1195591D02*
X1197182Y1552811D01*
X1199227Y1559374D02*
Y1552811D01*
Y1559374D02*
X1202182D01*
X1199227Y1556249D02*
X1201045D01*
X1199227Y1552811D02*
X1202182D01*
X1204227Y1559374D02*
X1206045Y1552811D01*
X1207864Y1559374D02*
X1206045Y1552811D01*
X1242409Y1586811D02*
X1242182Y1587436D01*
X1241727Y1588061*
X1241273Y1588374*
X1240364*
X1239909Y1588061*
X1239455Y1587436*
X1239227Y1586811*
X1239000Y1585874*
Y1584311*
X1239227Y1583374*
X1239455Y1582749*
X1239909Y1582124*
X1240364Y1581811*
X1241273*
X1241727Y1582124*
X1242182Y1582749*
X1242409Y1583374*
X1245818Y1588374D02*
X1245364Y1588061D01*
X1244909Y1587436*
X1244682Y1586811*
X1244455Y1585874*
Y1584311*
X1244682Y1583374*
X1244909Y1582749*
X1245364Y1582124*
X1245818Y1581811*
X1246727*
X1247182Y1582124*
X1247636Y1582749*
X1247864Y1583374*
X1248091Y1584311*
Y1585874*
X1247864Y1586811*
X1247636Y1587436*
X1247182Y1588061*
X1246727Y1588374*
X1245818*
X1250136D02*
Y1581811D01*
Y1588374D02*
X1251955Y1581811D01*
X1253773Y1588374D02*
X1251955Y1581811D01*
X1253773Y1588374D02*
Y1581811D01*
X1255818Y1588374D02*
Y1581811D01*
Y1588374D02*
X1257864D01*
X1258545Y1588061*
X1258773Y1587749*
X1259000Y1587124*
Y1586186*
X1258773Y1585561*
X1258545Y1585249*
X1257864Y1584936*
X1255818*
X1262409Y1588374D02*
X1261955Y1588061D01*
X1261500Y1587436*
X1261273Y1586811*
X1261045Y1585874*
Y1584311*
X1261273Y1583374*
X1261500Y1582749*
X1261955Y1582124*
X1262409Y1581811*
X1263318*
X1263773Y1582124*
X1264227Y1582749*
X1264455Y1583374*
X1264682Y1584311*
Y1585874*
X1264455Y1586811*
X1264227Y1587436*
X1263773Y1588061*
X1263318Y1588374*
X1262409*
X1266727D02*
Y1581811D01*
Y1588374D02*
X1269909Y1581811D01*
Y1588374D02*
Y1581811D01*
X1271955Y1588374D02*
Y1581811D01*
Y1588374D02*
X1274909D01*
X1271955Y1585249D02*
X1273773D01*
X1271955Y1581811D02*
X1274909D01*
X1276955Y1588374D02*
Y1581811D01*
Y1588374D02*
X1280136Y1581811D01*
Y1588374D02*
Y1581811D01*
X1283773Y1588374D02*
Y1581811D01*
X1282182Y1588374D02*
X1285364D01*
X1294227Y1589624D02*
X1293773Y1588999D01*
X1293318Y1588061*
X1292864Y1586811*
X1292636Y1585249*
Y1583999*
X1292864Y1582436*
X1293318Y1581186*
X1293773Y1580249*
X1294227Y1579624*
X1297864Y1588374D02*
Y1581811D01*
X1296273Y1588374D02*
X1299455D01*
X1302864D02*
X1302409Y1588061D01*
X1301955Y1587436*
X1301727Y1586811*
X1301500Y1585874*
Y1584311*
X1301727Y1583374*
X1301955Y1582749*
X1302409Y1582124*
X1302864Y1581811*
X1303773*
X1304227Y1582124*
X1304682Y1582749*
X1304909Y1583374*
X1305136Y1584311*
Y1585874*
X1304909Y1586811*
X1304682Y1587436*
X1304227Y1588061*
X1303773Y1588374*
X1302864*
X1307182D02*
Y1581811D01*
Y1588374D02*
X1309227D01*
X1309909Y1588061*
X1310136Y1587749*
X1310364Y1587124*
Y1586186*
X1310136Y1585561*
X1309909Y1585249*
X1309227Y1584936*
X1307182*
X1312409Y1589624D02*
X1312864Y1588999D01*
X1313318Y1588061*
X1313773Y1586811*
X1314000Y1585249*
Y1583999*
X1313773Y1582436*
X1313318Y1581186*
X1312864Y1580249*
X1312409Y1579624*
X1324455Y1587436D02*
X1324000Y1588061D01*
X1323318Y1588374*
X1322409*
X1321727Y1588061*
X1321273Y1587436*
Y1586811*
X1321500Y1586186*
X1321727Y1585874*
X1322182Y1585561*
X1323545Y1584936*
X1324000Y1584624*
X1324227Y1584311*
X1324455Y1583686*
Y1582749*
X1324000Y1582124*
X1323318Y1581811*
X1322409*
X1321727Y1582124*
X1321273Y1582749*
X1326500Y1588374D02*
Y1581811D01*
X1328545Y1588374D02*
Y1581811D01*
Y1588374D02*
X1330136D01*
X1330818Y1588061*
X1331273Y1587436*
X1331500Y1586811*
X1331727Y1585874*
Y1584311*
X1331500Y1583374*
X1331273Y1582749*
X1330818Y1582124*
X1330136Y1581811*
X1328545*
X1333773Y1588374D02*
Y1581811D01*
Y1588374D02*
X1336727D01*
X1333773Y1585249D02*
X1335591D01*
X1333773Y1581811D02*
X1336727D01*
X1254000Y1573124D02*
X1254455Y1573436D01*
X1255136Y1574374*
Y1567811*
X1260364Y1574374D02*
X1258091Y1567811D01*
X1257182Y1574374D02*
X1260364D01*
X1262409Y1570624D02*
X1266500D01*
X1271273Y1573436D02*
X1271045Y1574061D01*
X1270364Y1574374*
X1269909*
X1269227Y1574061*
X1268773Y1573124*
X1268545Y1571561*
Y1569999*
X1268773Y1568749*
X1269227Y1568124*
X1269909Y1567811*
X1270136*
X1270818Y1568124*
X1271273Y1568749*
X1271500Y1569686*
Y1569999*
X1271273Y1570936*
X1270818Y1571561*
X1270136Y1571874*
X1269909*
X1269227Y1571561*
X1268773Y1570936*
X1268545Y1569999*
X1274909Y1574374D02*
X1274227Y1574061D01*
X1273773Y1573124*
X1273545Y1571561*
Y1570624*
X1273773Y1569061*
X1274227Y1568124*
X1274909Y1567811*
X1275364*
X1276045Y1568124*
X1276500Y1569061*
X1276727Y1570624*
Y1571561*
X1276500Y1573124*
X1276045Y1574061*
X1275364Y1574374*
X1274909*
X1280136D02*
X1279455Y1574061D01*
X1279000Y1573124*
X1278773Y1571561*
Y1570624*
X1279000Y1569061*
X1279455Y1568124*
X1280136Y1567811*
X1280591*
X1281273Y1568124*
X1281727Y1569061*
X1281955Y1570624*
Y1571561*
X1281727Y1573124*
X1281273Y1574061*
X1280591Y1574374*
X1280136*
X1286955D02*
X1284682D01*
X1284455Y1571561*
X1284682Y1571874*
X1285364Y1572186*
X1286045*
X1286727Y1571874*
X1287182Y1571249*
X1287409Y1570311*
X1287182Y1569686*
X1286955Y1568749*
X1286500Y1568124*
X1285818Y1567811*
X1285136*
X1284455Y1568124*
X1284227Y1568436*
X1284000Y1569061*
X1292409Y1574374D02*
X1290136D01*
X1289909Y1571561*
X1290136Y1571874*
X1290818Y1572186*
X1291500*
X1292182Y1571874*
X1292636Y1571249*
X1292864Y1570311*
X1292636Y1569686*
X1292409Y1568749*
X1291955Y1568124*
X1291273Y1567811*
X1290591*
X1289909Y1568124*
X1289682Y1568436*
X1289455Y1569061*
X1295136Y1572811D02*
Y1573124D01*
X1295364Y1573749*
X1295591Y1574061*
X1296045Y1574374*
X1296955*
X1297409Y1574061*
X1297636Y1573749*
X1297864Y1573124*
Y1572499*
X1297636Y1571874*
X1297182Y1570936*
X1294909Y1567811*
X1298091*
X1300136Y1570624D02*
X1304227D01*
X1306273Y1573124D02*
X1306727Y1573436D01*
X1307409Y1574374*
Y1567811*
X1309455Y1573124D02*
X1309909Y1573436D01*
X1310591Y1574374*
Y1567811*
X1312636Y1573124D02*
X1313091Y1573436D01*
X1313773Y1574374*
Y1567811*
X1280818Y1559374D02*
X1279000Y1552811D01*
X1280818Y1559374D02*
X1282636Y1552811D01*
X1279682Y1554999D02*
X1281955D01*
X1193000Y1543874D02*
Y1537311D01*
Y1543874D02*
X1194591D01*
X1195273Y1543561*
X1195727Y1542936*
X1195955Y1542311*
X1196182Y1541374*
Y1539811*
X1195955Y1538874*
X1195727Y1538249*
X1195273Y1537624*
X1194591Y1537311*
X1193000*
X1200045Y1543874D02*
X1198227Y1537311D01*
X1200045Y1543874D02*
X1201864Y1537311D01*
X1198909Y1539499D02*
X1201182D01*
X1205500Y1543874D02*
Y1537311D01*
X1203909Y1543874D02*
X1207091D01*
X1209136D02*
Y1537311D01*
Y1543874D02*
X1212091D01*
X1209136Y1540749D02*
X1210955D01*
X1209136Y1537311D02*
X1212091D01*
X1255818Y1543874D02*
X1254000Y1537311D01*
X1255818Y1543874D02*
X1257636Y1537311D01*
X1254682Y1539499D02*
X1256955D01*
X1259682Y1541686D02*
Y1535124D01*
Y1540749D02*
X1260136Y1541374D01*
X1260591Y1541686*
X1261273*
X1261727Y1541374*
X1262182Y1540749*
X1262409Y1539811*
Y1539186*
X1262182Y1538249*
X1261727Y1537624*
X1261273Y1537311*
X1260591*
X1260136Y1537624*
X1259682Y1538249*
X1264455Y1541686D02*
Y1537311D01*
Y1539811D02*
X1264682Y1540749D01*
X1265136Y1541374*
X1265591Y1541686*
X1266273*
X1268318Y1543874D02*
X1268545Y1543561D01*
X1268773Y1543874*
X1268545Y1544186*
X1268318Y1543874*
X1268545Y1541686D02*
Y1537311D01*
X1270818Y1543874D02*
Y1537311D01*
X1278091Y1542624D02*
X1278545Y1542936D01*
X1279227Y1543874*
Y1537311*
X1282636Y1543874D02*
X1281955Y1543561D01*
X1281500Y1542624*
X1281273Y1541061*
Y1540124*
X1281500Y1538561*
X1281955Y1537624*
X1282636Y1537311*
X1283091*
X1283773Y1537624*
X1284227Y1538561*
X1284455Y1540124*
Y1541061*
X1284227Y1542624*
X1283773Y1543561*
X1283091Y1543874*
X1282636*
X1291955Y1542311D02*
Y1542624D01*
X1292182Y1543249*
X1292409Y1543561*
X1292864Y1543874*
X1293773*
X1294227Y1543561*
X1294455Y1543249*
X1294682Y1542624*
Y1541999*
X1294455Y1541374*
X1294000Y1540436*
X1291727Y1537311*
X1294909*
X1298318Y1543874D02*
X1297636Y1543561D01*
X1297182Y1542624*
X1296955Y1541061*
Y1540124*
X1297182Y1538561*
X1297636Y1537624*
X1298318Y1537311*
X1298773*
X1299455Y1537624*
X1299909Y1538561*
X1300136Y1540124*
Y1541061*
X1299909Y1542624*
X1299455Y1543561*
X1298773Y1543874*
X1298318*
X1302182Y1542624D02*
X1302636Y1542936D01*
X1303318Y1543874*
Y1537311*
X1307636Y1543874D02*
X1305364Y1539499D01*
X1308773*
X1307636Y1543874D02*
Y1537311D01*
X996409Y1607811D02*
X996182Y1608436D01*
X995727Y1609061*
X995273Y1609374*
X994364*
X993909Y1609061*
X993455Y1608436*
X993227Y1607811*
X993000Y1606874*
Y1605311*
X993227Y1604374*
X993455Y1603749*
X993909Y1603124*
X994364Y1602811*
X995273*
X995727Y1603124*
X996182Y1603749*
X996409Y1604374*
X999818Y1609374D02*
X999364Y1609061D01*
X998909Y1608436*
X998682Y1607811*
X998455Y1606874*
Y1605311*
X998682Y1604374*
X998909Y1603749*
X999364Y1603124*
X999818Y1602811*
X1000727*
X1001182Y1603124*
X1001636Y1603749*
X1001864Y1604374*
X1002091Y1605311*
Y1606874*
X1001864Y1607811*
X1001636Y1608436*
X1001182Y1609061*
X1000727Y1609374*
X999818*
X1004136D02*
Y1602811D01*
Y1609374D02*
X1005955Y1602811D01*
X1007773Y1609374D02*
X1005955Y1602811D01*
X1007773Y1609374D02*
Y1602811D01*
X1009818Y1609374D02*
Y1602811D01*
Y1609374D02*
X1011864D01*
X1012545Y1609061*
X1012773Y1608749*
X1013000Y1608124*
Y1607186*
X1012773Y1606561*
X1012545Y1606249*
X1011864Y1605936*
X1009818*
X1015045Y1609374D02*
Y1602811D01*
Y1609374D02*
X1017091D01*
X1017773Y1609061*
X1018000Y1608749*
X1018227Y1608124*
Y1607499*
X1018000Y1606874*
X1017773Y1606561*
X1017091Y1606249*
X1015045*
X1016636D02*
X1018227Y1602811D01*
X1020273Y1609374D02*
Y1602811D01*
Y1609374D02*
X1023227D01*
X1020273Y1606249D02*
X1022091D01*
X1020273Y1602811D02*
X1023227D01*
X1028455Y1608436D02*
X1028000Y1609061D01*
X1027318Y1609374*
X1026409*
X1025727Y1609061*
X1025273Y1608436*
Y1607811*
X1025500Y1607186*
X1025727Y1606874*
X1026182Y1606561*
X1027545Y1605936*
X1028000Y1605624*
X1028227Y1605311*
X1028455Y1604686*
Y1603749*
X1028000Y1603124*
X1027318Y1602811*
X1026409*
X1025727Y1603124*
X1025273Y1603749*
X1033682Y1608436D02*
X1033227Y1609061D01*
X1032545Y1609374*
X1031636*
X1030955Y1609061*
X1030500Y1608436*
Y1607811*
X1030727Y1607186*
X1030955Y1606874*
X1031409Y1606561*
X1032773Y1605936*
X1033227Y1605624*
X1033455Y1605311*
X1033682Y1604686*
Y1603749*
X1033227Y1603124*
X1032545Y1602811*
X1031636*
X1030955Y1603124*
X1030500Y1603749*
X1037091Y1609374D02*
X1036636Y1609061D01*
X1036182Y1608436*
X1035955Y1607811*
X1035727Y1606874*
Y1605311*
X1035955Y1604374*
X1036182Y1603749*
X1036636Y1603124*
X1037091Y1602811*
X1038000*
X1038455Y1603124*
X1038909Y1603749*
X1039136Y1604374*
X1039364Y1605311*
Y1606874*
X1039136Y1607811*
X1038909Y1608436*
X1038455Y1609061*
X1038000Y1609374*
X1037091*
X1041409D02*
Y1602811D01*
Y1609374D02*
X1043455D01*
X1044136Y1609061*
X1044364Y1608749*
X1044591Y1608124*
Y1607499*
X1044364Y1606874*
X1044136Y1606561*
X1043455Y1606249*
X1041409*
X1043000D02*
X1044591Y1602811D01*
X1055273Y1607811D02*
X1055045Y1608436D01*
X1054591Y1609061*
X1054136Y1609374*
X1053227*
X1052773Y1609061*
X1052318Y1608436*
X1052091Y1607811*
X1051864Y1606874*
Y1605311*
X1052091Y1604374*
X1052318Y1603749*
X1052773Y1603124*
X1053227Y1602811*
X1054136*
X1054591Y1603124*
X1055045Y1603749*
X1055273Y1604374*
X1058682Y1609374D02*
X1058227Y1609061D01*
X1057773Y1608436*
X1057545Y1607811*
X1057318Y1606874*
Y1605311*
X1057545Y1604374*
X1057773Y1603749*
X1058227Y1603124*
X1058682Y1602811*
X1059591*
X1060045Y1603124*
X1060500Y1603749*
X1060727Y1604374*
X1060955Y1605311*
Y1606874*
X1060727Y1607811*
X1060500Y1608436*
X1060045Y1609061*
X1059591Y1609374*
X1058682*
X1063000D02*
Y1602811D01*
Y1609374D02*
X1066182Y1602811D01*
Y1609374D02*
Y1602811D01*
X1069818Y1609374D02*
Y1602811D01*
X1068227Y1609374D02*
X1071409D01*
X1073455D02*
Y1602811D01*
Y1609374D02*
X1075500D01*
X1076182Y1609061*
X1076409Y1608749*
X1076636Y1608124*
Y1607499*
X1076409Y1606874*
X1076182Y1606561*
X1075500Y1606249*
X1073455*
X1075045D02*
X1076636Y1602811D01*
X1080045Y1609374D02*
X1079591Y1609061D01*
X1079136Y1608436*
X1078909Y1607811*
X1078682Y1606874*
Y1605311*
X1078909Y1604374*
X1079136Y1603749*
X1079591Y1603124*
X1080045Y1602811*
X1080955*
X1081409Y1603124*
X1081864Y1603749*
X1082091Y1604374*
X1082318Y1605311*
Y1606874*
X1082091Y1607811*
X1081864Y1608436*
X1081409Y1609061*
X1080955Y1609374*
X1080045*
X1084364D02*
Y1602811D01*
X1087091*
X1092318Y1608436D02*
X1091864Y1609061D01*
X1091182Y1609374*
X1090273*
X1089591Y1609061*
X1089136Y1608436*
Y1607811*
X1089364Y1607186*
X1089591Y1606874*
X1090045Y1606561*
X1091409Y1605936*
X1091864Y1605624*
X1092091Y1605311*
X1092318Y1604686*
Y1603749*
X1091864Y1603124*
X1091182Y1602811*
X1090273*
X1089591Y1603124*
X1089136Y1603749*
X1103000Y1607811D02*
X1102773Y1608436D01*
X1102318Y1609061*
X1101864Y1609374*
X1100955*
X1100500Y1609061*
X1100045Y1608436*
X1099818Y1607811*
X1099591Y1606874*
Y1605311*
X1099818Y1604374*
X1100045Y1603749*
X1100500Y1603124*
X1100955Y1602811*
X1101864*
X1102318Y1603124*
X1102773Y1603749*
X1103000Y1604374*
X1106409Y1609374D02*
X1105955Y1609061D01*
X1105500Y1608436*
X1105273Y1607811*
X1105045Y1606874*
Y1605311*
X1105273Y1604374*
X1105500Y1603749*
X1105955Y1603124*
X1106409Y1602811*
X1107318*
X1107773Y1603124*
X1108227Y1603749*
X1108455Y1604374*
X1108682Y1605311*
Y1606874*
X1108455Y1607811*
X1108227Y1608436*
X1107773Y1609061*
X1107318Y1609374*
X1106409*
X1110727D02*
Y1602811D01*
Y1609374D02*
X1112773D01*
X1113455Y1609061*
X1113682Y1608749*
X1113909Y1608124*
Y1607499*
X1113682Y1606874*
X1113455Y1606561*
X1112773Y1606249*
X1110727*
X1112318D02*
X1113909Y1602811D01*
X1115955Y1609374D02*
Y1602811D01*
Y1609374D02*
X1118000D01*
X1118682Y1609061*
X1118909Y1608749*
X1119136Y1608124*
Y1607186*
X1118909Y1606561*
X1118682Y1606249*
X1118000Y1605936*
X1115955*
X1122545Y1609374D02*
X1122091Y1609061D01*
X1121636Y1608436*
X1121409Y1607811*
X1121182Y1606874*
Y1605311*
X1121409Y1604374*
X1121636Y1603749*
X1122091Y1603124*
X1122545Y1602811*
X1123455*
X1123909Y1603124*
X1124364Y1603749*
X1124591Y1604374*
X1124818Y1605311*
Y1606874*
X1124591Y1607811*
X1124364Y1608436*
X1123909Y1609061*
X1123455Y1609374*
X1122545*
X1126864D02*
Y1602811D01*
Y1609374D02*
X1128909D01*
X1129591Y1609061*
X1129818Y1608749*
X1130045Y1608124*
Y1607499*
X1129818Y1606874*
X1129591Y1606561*
X1128909Y1606249*
X1126864*
X1128455D02*
X1130045Y1602811D01*
X1133909Y1609374D02*
X1132091Y1602811D01*
X1133909Y1609374D02*
X1135727Y1602811D01*
X1132773Y1604999D02*
X1135045D01*
X1139364Y1609374D02*
Y1602811D01*
X1137773Y1609374D02*
X1140955D01*
X1143000D02*
Y1602811D01*
X1146409Y1609374D02*
X1145955Y1609061D01*
X1145500Y1608436*
X1145273Y1607811*
X1145045Y1606874*
Y1605311*
X1145273Y1604374*
X1145500Y1603749*
X1145955Y1603124*
X1146409Y1602811*
X1147318*
X1147773Y1603124*
X1148227Y1603749*
X1148455Y1604374*
X1148682Y1605311*
Y1606874*
X1148455Y1607811*
X1148227Y1608436*
X1147773Y1609061*
X1147318Y1609374*
X1146409*
X1150727D02*
Y1602811D01*
Y1609374D02*
X1153909Y1602811D01*
Y1609374D02*
Y1602811D01*
X992500Y1594124D02*
X992955Y1594436D01*
X993636Y1595374*
Y1588811*
X998864Y1595374D02*
X996591Y1588811D01*
X995682Y1595374D02*
X998864D01*
X1000909Y1591624D02*
X1005000D01*
X1009773Y1594436D02*
X1009545Y1595061D01*
X1008864Y1595374*
X1008409*
X1007727Y1595061*
X1007273Y1594124*
X1007045Y1592561*
Y1590999*
X1007273Y1589749*
X1007727Y1589124*
X1008409Y1588811*
X1008636*
X1009318Y1589124*
X1009773Y1589749*
X1010000Y1590686*
Y1590999*
X1009773Y1591936*
X1009318Y1592561*
X1008636Y1592874*
X1008409*
X1007727Y1592561*
X1007273Y1591936*
X1007045Y1590999*
X1013409Y1595374D02*
X1012727Y1595061D01*
X1012273Y1594124*
X1012045Y1592561*
Y1591624*
X1012273Y1590061*
X1012727Y1589124*
X1013409Y1588811*
X1013864*
X1014545Y1589124*
X1015000Y1590061*
X1015227Y1591624*
Y1592561*
X1015000Y1594124*
X1014545Y1595061*
X1013864Y1595374*
X1013409*
X1018636D02*
X1017955Y1595061D01*
X1017500Y1594124*
X1017273Y1592561*
Y1591624*
X1017500Y1590061*
X1017955Y1589124*
X1018636Y1588811*
X1019091*
X1019773Y1589124*
X1020227Y1590061*
X1020455Y1591624*
Y1592561*
X1020227Y1594124*
X1019773Y1595061*
X1019091Y1595374*
X1018636*
X1025455D02*
X1023182D01*
X1022955Y1592561*
X1023182Y1592874*
X1023864Y1593186*
X1024545*
X1025227Y1592874*
X1025682Y1592249*
X1025909Y1591311*
X1025682Y1590686*
X1025455Y1589749*
X1025000Y1589124*
X1024318Y1588811*
X1023636*
X1022955Y1589124*
X1022727Y1589436*
X1022500Y1590061*
X1030909Y1595374D02*
X1028636D01*
X1028409Y1592561*
X1028636Y1592874*
X1029318Y1593186*
X1030000*
X1030682Y1592874*
X1031136Y1592249*
X1031364Y1591311*
X1031136Y1590686*
X1030909Y1589749*
X1030455Y1589124*
X1029773Y1588811*
X1029091*
X1028409Y1589124*
X1028182Y1589436*
X1027955Y1590061*
X1033636Y1593811D02*
Y1594124D01*
X1033864Y1594749*
X1034091Y1595061*
X1034545Y1595374*
X1035455*
X1035909Y1595061*
X1036136Y1594749*
X1036364Y1594124*
Y1593499*
X1036136Y1592874*
X1035682Y1591936*
X1033409Y1588811*
X1036591*
X1038636Y1591624D02*
X1042727D01*
X1044773Y1594124D02*
X1045227Y1594436D01*
X1045909Y1595374*
Y1588811*
X1047955Y1594124D02*
X1048409Y1594436D01*
X1049091Y1595374*
Y1588811*
X1051136Y1594124D02*
X1051591Y1594436D01*
X1052273Y1595374*
Y1588811*
X1059545Y1595374D02*
Y1588811D01*
Y1595374D02*
X1061591D01*
X1062273Y1595061*
X1062500Y1594749*
X1062727Y1594124*
Y1593499*
X1062500Y1592874*
X1062273Y1592561*
X1061591Y1592249*
X1059545*
X1061136D02*
X1062727Y1588811D01*
X1064773Y1595374D02*
Y1588811D01*
Y1595374D02*
X1067727D01*
X1064773Y1592249D02*
X1066591D01*
X1064773Y1588811D02*
X1067727D01*
X1069773Y1595374D02*
X1071591Y1588811D01*
X1073409Y1595374D02*
X1071591Y1588811D01*
X1082500Y1595374D02*
X1080682Y1588811D01*
X1082500Y1595374D02*
X1084318Y1588811D01*
X1081364Y1590999D02*
X1083636D01*
X1194000Y1589374D02*
Y1582811D01*
X1196727*
X1200591Y1589374D02*
X1198773Y1582811D01*
X1200591Y1589374D02*
X1202409Y1582811D01*
X1199455Y1584999D02*
X1201727D01*
X1204455Y1589374D02*
X1206273Y1586249D01*
Y1582811*
X1208091Y1589374D02*
X1206273Y1586249D01*
X1210136Y1589374D02*
Y1582811D01*
Y1589374D02*
X1213091D01*
X1210136Y1586249D02*
X1211955D01*
X1210136Y1582811D02*
X1213091D01*
X1215136Y1589374D02*
Y1582811D01*
Y1589374D02*
X1217182D01*
X1217864Y1589061*
X1218091Y1588749*
X1218318Y1588124*
Y1587499*
X1218091Y1586874*
X1217864Y1586561*
X1217182Y1586249*
X1215136*
X1216727D02*
X1218318Y1582811D01*
X1194000Y1574374D02*
Y1567811D01*
Y1574374D02*
X1196045D01*
X1196727Y1574061*
X1196955Y1573749*
X1197182Y1573124*
Y1572186*
X1196955Y1571561*
X1196727Y1571249*
X1196045Y1570936*
X1194000*
X1201045Y1574374D02*
X1199227Y1567811D01*
X1201045Y1574374D02*
X1202864Y1567811D01*
X1199909Y1569999D02*
X1202182D01*
X1204909Y1574374D02*
Y1567811D01*
Y1574374D02*
X1206955D01*
X1207636Y1574061*
X1207864Y1573749*
X1208091Y1573124*
Y1572499*
X1207864Y1571874*
X1207636Y1571561*
X1206955Y1571249*
X1204909*
X1206500D02*
X1208091Y1567811D01*
X1211727Y1574374D02*
Y1567811D01*
X1210136Y1574374D02*
X1213318D01*
X1220591D02*
Y1567811D01*
Y1574374D02*
X1223773Y1567811D01*
Y1574374D02*
Y1567811D01*
X1227182Y1574374D02*
X1226727Y1574061D01*
X1226273Y1573436*
X1226045Y1572811*
X1225818Y1571874*
Y1570311*
X1226045Y1569374*
X1226273Y1568749*
X1226727Y1568124*
X1227182Y1567811*
X1228091*
X1228545Y1568124*
X1229000Y1568749*
X1229227Y1569374*
X1229455Y1570311*
Y1571874*
X1229227Y1572811*
X1229000Y1573436*
X1228545Y1574061*
X1228091Y1574374*
X1227182*
X1194000Y1559374D02*
Y1552811D01*
Y1559374D02*
X1196045D01*
X1196727Y1559061*
X1196955Y1558749*
X1197182Y1558124*
Y1557499*
X1196955Y1556874*
X1196727Y1556561*
X1196045Y1556249*
X1194000*
X1195591D02*
X1197182Y1552811D01*
X1199227Y1559374D02*
Y1552811D01*
Y1559374D02*
X1202182D01*
X1199227Y1556249D02*
X1201045D01*
X1199227Y1552811D02*
X1202182D01*
X1204227Y1559374D02*
X1206045Y1552811D01*
X1207864Y1559374D02*
X1206045Y1552811D01*
X1242409Y1586811D02*
X1242182Y1587436D01*
X1241727Y1588061*
X1241273Y1588374*
X1240364*
X1239909Y1588061*
X1239455Y1587436*
X1239227Y1586811*
X1239000Y1585874*
Y1584311*
X1239227Y1583374*
X1239455Y1582749*
X1239909Y1582124*
X1240364Y1581811*
X1241273*
X1241727Y1582124*
X1242182Y1582749*
X1242409Y1583374*
X1245818Y1588374D02*
X1245364Y1588061D01*
X1244909Y1587436*
X1244682Y1586811*
X1244455Y1585874*
Y1584311*
X1244682Y1583374*
X1244909Y1582749*
X1245364Y1582124*
X1245818Y1581811*
X1246727*
X1247182Y1582124*
X1247636Y1582749*
X1247864Y1583374*
X1248091Y1584311*
Y1585874*
X1247864Y1586811*
X1247636Y1587436*
X1247182Y1588061*
X1246727Y1588374*
X1245818*
X1250136D02*
Y1581811D01*
Y1588374D02*
X1251955Y1581811D01*
X1253773Y1588374D02*
X1251955Y1581811D01*
X1253773Y1588374D02*
Y1581811D01*
X1255818Y1588374D02*
Y1581811D01*
Y1588374D02*
X1257864D01*
X1258545Y1588061*
X1258773Y1587749*
X1259000Y1587124*
Y1586186*
X1258773Y1585561*
X1258545Y1585249*
X1257864Y1584936*
X1255818*
X1262409Y1588374D02*
X1261955Y1588061D01*
X1261500Y1587436*
X1261273Y1586811*
X1261045Y1585874*
Y1584311*
X1261273Y1583374*
X1261500Y1582749*
X1261955Y1582124*
X1262409Y1581811*
X1263318*
X1263773Y1582124*
X1264227Y1582749*
X1264455Y1583374*
X1264682Y1584311*
Y1585874*
X1264455Y1586811*
X1264227Y1587436*
X1263773Y1588061*
X1263318Y1588374*
X1262409*
X1266727D02*
Y1581811D01*
Y1588374D02*
X1269909Y1581811D01*
Y1588374D02*
Y1581811D01*
X1271955Y1588374D02*
Y1581811D01*
Y1588374D02*
X1274909D01*
X1271955Y1585249D02*
X1273773D01*
X1271955Y1581811D02*
X1274909D01*
X1276955Y1588374D02*
Y1581811D01*
Y1588374D02*
X1280136Y1581811D01*
Y1588374D02*
Y1581811D01*
X1283773Y1588374D02*
Y1581811D01*
X1282182Y1588374D02*
X1285364D01*
X1294227Y1589624D02*
X1293773Y1588999D01*
X1293318Y1588061*
X1292864Y1586811*
X1292636Y1585249*
Y1583999*
X1292864Y1582436*
X1293318Y1581186*
X1293773Y1580249*
X1294227Y1579624*
X1297864Y1588374D02*
Y1581811D01*
X1296273Y1588374D02*
X1299455D01*
X1302864D02*
X1302409Y1588061D01*
X1301955Y1587436*
X1301727Y1586811*
X1301500Y1585874*
Y1584311*
X1301727Y1583374*
X1301955Y1582749*
X1302409Y1582124*
X1302864Y1581811*
X1303773*
X1304227Y1582124*
X1304682Y1582749*
X1304909Y1583374*
X1305136Y1584311*
Y1585874*
X1304909Y1586811*
X1304682Y1587436*
X1304227Y1588061*
X1303773Y1588374*
X1302864*
X1307182D02*
Y1581811D01*
Y1588374D02*
X1309227D01*
X1309909Y1588061*
X1310136Y1587749*
X1310364Y1587124*
Y1586186*
X1310136Y1585561*
X1309909Y1585249*
X1309227Y1584936*
X1307182*
X1312409Y1589624D02*
X1312864Y1588999D01*
X1313318Y1588061*
X1313773Y1586811*
X1314000Y1585249*
Y1583999*
X1313773Y1582436*
X1313318Y1581186*
X1312864Y1580249*
X1312409Y1579624*
X1324455Y1587436D02*
X1324000Y1588061D01*
X1323318Y1588374*
X1322409*
X1321727Y1588061*
X1321273Y1587436*
Y1586811*
X1321500Y1586186*
X1321727Y1585874*
X1322182Y1585561*
X1323545Y1584936*
X1324000Y1584624*
X1324227Y1584311*
X1324455Y1583686*
Y1582749*
X1324000Y1582124*
X1323318Y1581811*
X1322409*
X1321727Y1582124*
X1321273Y1582749*
X1326500Y1588374D02*
Y1581811D01*
X1328545Y1588374D02*
Y1581811D01*
Y1588374D02*
X1330136D01*
X1330818Y1588061*
X1331273Y1587436*
X1331500Y1586811*
X1331727Y1585874*
Y1584311*
X1331500Y1583374*
X1331273Y1582749*
X1330818Y1582124*
X1330136Y1581811*
X1328545*
X1333773Y1588374D02*
Y1581811D01*
Y1588374D02*
X1336727D01*
X1333773Y1585249D02*
X1335591D01*
X1333773Y1581811D02*
X1336727D01*
X1254000Y1573124D02*
X1254455Y1573436D01*
X1255136Y1574374*
Y1567811*
X1260364Y1574374D02*
X1258091Y1567811D01*
X1257182Y1574374D02*
X1260364D01*
X1262409Y1570624D02*
X1266500D01*
X1271273Y1573436D02*
X1271045Y1574061D01*
X1270364Y1574374*
X1269909*
X1269227Y1574061*
X1268773Y1573124*
X1268545Y1571561*
Y1569999*
X1268773Y1568749*
X1269227Y1568124*
X1269909Y1567811*
X1270136*
X1270818Y1568124*
X1271273Y1568749*
X1271500Y1569686*
Y1569999*
X1271273Y1570936*
X1270818Y1571561*
X1270136Y1571874*
X1269909*
X1269227Y1571561*
X1268773Y1570936*
X1268545Y1569999*
X1274909Y1574374D02*
X1274227Y1574061D01*
X1273773Y1573124*
X1273545Y1571561*
Y1570624*
X1273773Y1569061*
X1274227Y1568124*
X1274909Y1567811*
X1275364*
X1276045Y1568124*
X1276500Y1569061*
X1276727Y1570624*
Y1571561*
X1276500Y1573124*
X1276045Y1574061*
X1275364Y1574374*
X1274909*
X1280136D02*
X1279455Y1574061D01*
X1279000Y1573124*
X1278773Y1571561*
Y1570624*
X1279000Y1569061*
X1279455Y1568124*
X1280136Y1567811*
X1280591*
X1281273Y1568124*
X1281727Y1569061*
X1281955Y1570624*
Y1571561*
X1281727Y1573124*
X1281273Y1574061*
X1280591Y1574374*
X1280136*
X1286955D02*
X1284682D01*
X1284455Y1571561*
X1284682Y1571874*
X1285364Y1572186*
X1286045*
X1286727Y1571874*
X1287182Y1571249*
X1287409Y1570311*
X1287182Y1569686*
X1286955Y1568749*
X1286500Y1568124*
X1285818Y1567811*
X1285136*
X1284455Y1568124*
X1284227Y1568436*
X1284000Y1569061*
X1292409Y1574374D02*
X1290136D01*
X1289909Y1571561*
X1290136Y1571874*
X1290818Y1572186*
X1291500*
X1292182Y1571874*
X1292636Y1571249*
X1292864Y1570311*
X1292636Y1569686*
X1292409Y1568749*
X1291955Y1568124*
X1291273Y1567811*
X1290591*
X1289909Y1568124*
X1289682Y1568436*
X1289455Y1569061*
X1295136Y1572811D02*
Y1573124D01*
X1295364Y1573749*
X1295591Y1574061*
X1296045Y1574374*
X1296955*
X1297409Y1574061*
X1297636Y1573749*
X1297864Y1573124*
Y1572499*
X1297636Y1571874*
X1297182Y1570936*
X1294909Y1567811*
X1298091*
X1300136Y1570624D02*
X1304227D01*
X1306273Y1573124D02*
X1306727Y1573436D01*
X1307409Y1574374*
Y1567811*
X1309455Y1573124D02*
X1309909Y1573436D01*
X1310591Y1574374*
Y1567811*
X1312636Y1573124D02*
X1313091Y1573436D01*
X1313773Y1574374*
Y1567811*
X1280818Y1559374D02*
X1279000Y1552811D01*
X1280818Y1559374D02*
X1282636Y1552811D01*
X1279682Y1554999D02*
X1281955D01*
X1193000Y1543874D02*
Y1537311D01*
Y1543874D02*
X1194591D01*
X1195273Y1543561*
X1195727Y1542936*
X1195955Y1542311*
X1196182Y1541374*
Y1539811*
X1195955Y1538874*
X1195727Y1538249*
X1195273Y1537624*
X1194591Y1537311*
X1193000*
X1200045Y1543874D02*
X1198227Y1537311D01*
X1200045Y1543874D02*
X1201864Y1537311D01*
X1198909Y1539499D02*
X1201182D01*
X1205500Y1543874D02*
Y1537311D01*
X1203909Y1543874D02*
X1207091D01*
X1209136D02*
Y1537311D01*
Y1543874D02*
X1212091D01*
X1209136Y1540749D02*
X1210955D01*
X1209136Y1537311D02*
X1212091D01*
X1074500Y1043500D02*
Y1045331D01*
X1075231Y1046063*
X1078839*
X1097500Y1075000D02*
X1100000Y1077500D01*
X1107667*
X1097500Y1075000D02*
Y1059500D01*
X1101000Y1056000*
X1071000Y1066500D02*
X1072000Y1067500D01*
X1075906*
X1071000Y1066500D02*
Y1059500D01*
X1074000Y1056500*
Y1055134*
X1075197Y1053937*
X1078839*
X1064094Y1067500D02*
X1068000D01*
X1069000Y1066500*
Y1058000*
X1072000Y1055000*
Y1053500*
X1073531Y1051969*
X1078839*
X1096161Y1053937D02*
X1100316D01*
X1101000Y1054621*
Y1056000*
X1055020Y1229590D02*
X1057890D01*
X1059000Y1230700*
Y1297654*
X1020300Y1305846D02*
X1025927Y1300220D01*
X1026401Y1299695*
X1020300Y1305846D02*
Y1329415D01*
X1021731Y1330846*
X1025000*
X1032500Y1324154D02*
X1059000Y1297654D01*
X1032500Y1330846D02*
X1032894D01*
X1036487Y1334440*
X1042900*
X1025000Y1324154D02*
X1049400Y1299754D01*
Y1259100*
X1051351Y1257149*
X1055020*
X1045604Y1354000D02*
X1046278Y1354674D01*
X1055839*
X1045000Y1362406D02*
Y1358500D01*
X1046858Y1356642*
X1055839*
Y1348768D02*
X1056000D01*
Y1344500*
X1213900Y1387700D02*
X1212100Y1385900D01*
Y1383737*
X1212900Y1382937*
X1217161*
X1000000Y1414685D02*
Y1043315D01*
X1021654*
X1043311Y1021657D02*
G75*
G03X1021654Y1043315I-21657J0D01*
G01X1043311Y1021657D02*
Y1000000D01*
X1224406*
Y1021657*
X1246063Y1043315D02*
G03X1224406Y1021657I-0J-21658D01*
G01X1246063Y1043315D02*
X1267717D01*
Y1414685*
X1246063*
X1224406Y1436343D02*
G03X1246063Y1414685I21657J-0D01*
G01X1224406Y1436343D02*
Y1458000D01*
X1043311*
Y1436343*
X1021654Y1414685D02*
G03X1043311Y1436343I-0J21658D01*
G01X1021654Y1414685D02*
X1000000D01*
X1184000Y1612811D02*
X1344000D01*
Y1532811*
X1184000*
Y1612811*
Y1592811D02*
X1344000D01*
X1184000Y1577811D02*
X1344000D01*
X1184000Y1562811D02*
X1344000D01*
X1234000Y1592811D02*
Y1532811D01*
X1184000Y1547811D02*
X1344000D01*
G54D87*
X1238500Y1608155D02*
Y1598311D01*
Y1608155D02*
X1242932D01*
X1238500Y1603467D02*
X1241227D01*
X1248386Y1608155D02*
Y1598311D01*
X1246000Y1608155D02*
X1250773D01*
X1258955Y1605811D02*
X1258614Y1606749D01*
X1257932Y1607686*
X1257250Y1608155*
X1255886*
X1255205Y1607686*
X1254523Y1606749*
X1254182Y1605811*
X1253841Y1604405*
Y1602061*
X1254182Y1600655*
X1254523Y1599717*
X1255205Y1598780*
X1255886Y1598311*
X1257250*
X1257932Y1598780*
X1258614Y1599717*
X1258955Y1600655*
X1262023Y1602530D02*
X1268159D01*
X1271227Y1608155D02*
Y1598311D01*
Y1608155D02*
X1273614D01*
X1274636Y1607686*
X1275318Y1606749*
X1275659Y1605811*
X1276000Y1604405*
Y1602061*
X1275659Y1600655*
X1275318Y1599717*
X1274636Y1598780*
X1273614Y1598311*
X1271227*
X1281114Y1608155D02*
X1280432Y1607686D01*
X1279750Y1606749*
X1279409Y1605811*
X1279068Y1604405*
Y1602061*
X1279409Y1600655*
X1279750Y1599717*
X1280432Y1598780*
X1281114Y1598311*
X1282477*
X1283159Y1598780*
X1283841Y1599717*
X1284182Y1600655*
X1284523Y1602061*
Y1604405*
X1284182Y1605811*
X1283841Y1606749*
X1283159Y1607686*
X1282477Y1608155*
X1281114*
X1287591Y1606280D02*
X1288273Y1606749D01*
X1289295Y1608155*
Y1598311*
X1238500Y1608155D02*
Y1598311D01*
Y1608155D02*
X1242932D01*
X1238500Y1603467D02*
X1241227D01*
X1248386Y1608155D02*
Y1598311D01*
X1246000Y1608155D02*
X1250773D01*
X1258955Y1605811D02*
X1258614Y1606749D01*
X1257932Y1607686*
X1257250Y1608155*
X1255886*
X1255205Y1607686*
X1254523Y1606749*
X1254182Y1605811*
X1253841Y1604405*
Y1602061*
X1254182Y1600655*
X1254523Y1599717*
X1255205Y1598780*
X1255886Y1598311*
X1257250*
X1257932Y1598780*
X1258614Y1599717*
X1258955Y1600655*
X1262023Y1602530D02*
X1268159D01*
X1271227Y1608155D02*
Y1598311D01*
Y1608155D02*
X1273614D01*
X1274636Y1607686*
X1275318Y1606749*
X1275659Y1605811*
X1276000Y1604405*
Y1602061*
X1275659Y1600655*
X1275318Y1599717*
X1274636Y1598780*
X1273614Y1598311*
X1271227*
X1281114Y1608155D02*
X1280432Y1607686D01*
X1279750Y1606749*
X1279409Y1605811*
X1279068Y1604405*
Y1602061*
X1279409Y1600655*
X1279750Y1599717*
X1280432Y1598780*
X1281114Y1598311*
X1282477*
X1283159Y1598780*
X1283841Y1599717*
X1284182Y1600655*
X1284523Y1602061*
Y1604405*
X1284182Y1605811*
X1283841Y1606749*
X1283159Y1607686*
X1282477Y1608155*
X1281114*
X1287591Y1606280D02*
X1288273Y1606749D01*
X1289295Y1608155*
Y1598311*
X1074500Y1043500D02*
X1074524D01*
Y1037500*
X1079921*
Y1033079*
X1081000Y1032000*
X1097854*
X1099489Y1033635*
Y1037500*
X1241883Y1127505D02*
Y1127500D01*
X1248000*
X1241883Y1118313D02*
Y1118500D01*
X1248000*
X1241699Y1144970D02*
Y1145000D01*
X1248000*
X1242067Y1136146D02*
Y1136000D01*
X1248000*
X1241883Y1155081D02*
Y1155000D01*
X1248000*
X1010400Y1245400D02*
X1013500Y1248500D01*
X1021500*
X1010400Y1245400D02*
Y1237894D01*
X1013626*
Y1243500*
X1014626Y1244500*
X1021500*
X1013674Y1255394D02*
X1016606D01*
X1017500Y1254500*
X1013674Y1255394D02*
Y1269500D01*
X1017174Y1273000*
X1021500*
X1013674Y1255394D02*
X1017000Y1258720D01*
Y1263500*
X1021500Y1268000*
X1054500Y1330654D02*
Y1324100D01*
X1055900Y1322700*
X1073600*
X1076000Y1325100*
Y1330850*
X1079850*
X1082000Y1333000*
Y1343154*
X1050500Y1335614D02*
Y1331654D01*
X1051500Y1330654*
X1054500*
X1050500Y1335614D02*
Y1341500D01*
X1053500Y1344500*
X1056000*
X1188500Y1400000D02*
X1187000Y1398500D01*
Y1400000*
Y1398500D02*
Y1388500D01*
X1188154Y1387346*
X1192000*
X1188500Y1400000D02*
X1187000D01*
Y1401500*
X1188500Y1400000D02*
X1195000D01*
Y1400150*
X1188500Y1400000D02*
X1187000Y1401500D01*
Y1403500*
X1190500Y1407000*
X1212000*
X1214500Y1404500*
Y1399846*
X1213900Y1387700D02*
X1217400D01*
X1219000Y1389300*
X1214500Y1399846D02*
X1218400D01*
X1219000Y1399246*
Y1389300*
G54D88*
X1007344Y1118750D02*
X1007187Y1118977D01*
X1007187D02*
X1006719Y1119318D01*
X1010000*
X1147908Y1021826D02*
G03X1147908I-4050J0D01*
G01X1137908D02*
G03X1137908I-4050J0D01*
G01X1107450Y1320407D02*
Y1336593D01*
G03X1107377Y1336770I-250J-0*
G01X1106470Y1337677*
G03X1106293Y1337750I-177J-177*
G01X1087707*
G03X1087530Y1337677I0J-250*
G01X1086623Y1336770*
G03X1086550Y1336593I177J-177*
G01Y1320307*
G03X1086623Y1320130I250J0*
G01X1087430Y1319323*
G03X1087607Y1319250I177J177*
G01X1106293*
G03X1106470Y1319323I-0J250*
G01X1107377Y1320230*
G03X1107450Y1320407I-177J177*
G01X1131450Y1320907D02*
Y1336593D01*
G03X1131377Y1336770I-250J-0*
G01X1130470Y1337677*
G03X1130293Y1337750I-177J-177*
G01X1111707*
G03X1111530Y1337677I0J-250*
G01X1110223Y1336370*
G03X1110150Y1336193I177J-177*
G01Y1321007*
G03X1110223Y1320830I250J0*
G01X1111730Y1319323*
G03X1111907Y1319250I177J177*
G01X1129793*
G03X1129970Y1319323I-0J250*
G01X1131377Y1320730*
G03X1131450Y1320907I-177J177*
G01X1157750Y1321207D02*
Y1336293D01*
G03X1157677Y1336470I-250J-0*
G01X1156470Y1337677*
G03X1156293Y1337750I-177J-177*
G01X1139707*
G03X1139530Y1337677I0J-250*
G01X1138323Y1336470*
G03X1138250Y1336293I177J-177*
G01Y1321207*
G03X1138323Y1321030I250J0*
G01X1140030Y1319323*
G03X1140207Y1319250I177J177*
G01X1155793*
G03X1155970Y1319323I-0J250*
G01X1157677Y1321030*
G03X1157750Y1321207I-177J177*
G01X1182250D02*
Y1336793D01*
G03X1182177Y1336970I-250J-0*
G01X1181470Y1337677*
G03X1181293Y1337750I-177J-177*
G01X1163707*
G03X1163530Y1337677I0J-250*
G01X1162823Y1336970*
G03X1162750Y1336793I177J-177*
G01Y1321207*
G03X1162823Y1321030I250J0*
G01X1164530Y1319323*
G03X1164707Y1319250I177J177*
G01X1180293*
G03X1180470Y1319323I-0J250*
G01X1182177Y1321030*
G03X1182250Y1321207I-177J177*
G01X1092000Y1060207D02*
Y1078043D01*
G03X1091927Y1078220I-250J-0*
G01X1090970Y1079177*
G03X1090793Y1079250I-177J-177*
G01X1080707*
G03X1080530Y1079177I0J-250*
G01X1073323Y1071970*
G03X1073250Y1071793I177J-177*
G01Y1063750*
G03X1073187Y1063585I187J-165*
G01X1073187D02*
Y1060145D01*
X1073187D02*
G03X1073261Y1059968I250J-0D01*
G01X1074030Y1059198*
G03X1074207Y1059125I177J177*
G01X1090918*
G03X1091095Y1059198I-0J250*
G01X1091927Y1060030*
G03X1092000Y1060207I-177J177*
G01X1112875Y1096707D02*
Y1106668D01*
G03X1112802Y1106845I-250J-0*
G01X1111970Y1107677*
G03X1111793Y1107750I-177J-177*
G01X1058207*
G03X1058030Y1107677I0J-250*
G01X1057292Y1106938*
G03X1057219Y1106762I177J-176*
G01Y1063207*
G03X1057292Y1063030I250J0*
G01X1058015Y1062308*
G03X1058191Y1062234I176J176*
G01X1065793*
G03X1065970Y1062308I-0J250*
G01X1066404Y1062742*
X1066500*
G03X1066750Y1062992I0J250*
G01Y1077604*
X1084896Y1095750*
X1111918*
G03X1112095Y1095823I-0J250*
G01X1112802Y1096530*
G03X1112875Y1096707I-177J177*
G01X1230250Y1346500D02*
Y1372500D01*
G03X1230000Y1372750I-250J0*
G01X1223707*
G03X1223530Y1372677I0J-250*
G01X1214823Y1363970*
G03X1214750Y1363793I177J-177*
G01Y1347207*
G03X1214823Y1347030I250J0*
G01X1215530Y1346323*
G03X1215707Y1346250I177J177*
G01X1230000*
G03X1230250Y1346500I0J250*
G01X1201250Y1351500D02*
Y1363293D01*
G03X1201177Y1363470I-250J-0*
G01X1200970Y1363677*
G03X1200793Y1363750I-177J-177*
G01X1192896*
X1179462Y1377185*
G03X1179285Y1377258I-177J-177*
G01X1139207*
G03X1139030Y1377185I0J-250*
G01X1137323Y1375477*
G03X1137250Y1375301I177J-176*
G01Y1369200*
G03X1137300Y1369050I250J0*
G01Y1366350D02*
G03Y1369050I-1800J1350D01*
G01Y1366350D02*
G03X1137250Y1366200I200J-150D01*
G01Y1355705*
G03X1137323Y1355528I250J0*
G01X1139030Y1353821*
G03X1139207Y1353748I177J177*
G01X1162219*
G03X1162250Y1353750I-0J250*
G01X1190104*
X1192530Y1351323*
G03X1192707Y1351250I177J177*
G01X1201000*
G03X1201250Y1351500I0J250*
G01X1236950Y1379707D02*
Y1394002D01*
G03X1236830Y1394216I-250J0*
G01X1236190Y1394688D02*
G03X1236830Y1394216I3010J3412D01*
G01X1236190Y1394687D02*
G03X1236025Y1394750I-165J-187D01*
G01X1231254*
G03X1231064Y1394663I-0J-250*
G01X1230874Y1394575D02*
G03X1231064Y1394663I0J250D01*
G01X1230874Y1394575D02*
X1225532D01*
G03X1225356Y1394502I0J-250*
G01X1225356D02*
X1224073Y1393220D01*
G03X1224000Y1393043I177J-177*
G01Y1389300*
X1223762Y1387775D02*
G03X1224000Y1389300I-4762J1525D01*
G01X1223762Y1387775D02*
G03X1223750Y1387699I238J-76D01*
G01Y1385619*
G03X1223779Y1385503I250J0*
G01X1224266Y1383528D02*
G03X1223779Y1385503I-4250J-0D01*
G01X1224266Y1383528D02*
Y1382346D01*
X1223779Y1380371D02*
G03X1224266Y1382346I-3763J1975D01*
G01X1223779Y1380371D02*
G03X1223750Y1380255I221J-116D01*
G01Y1379707*
G03X1223823Y1379530I250J0*
G01X1224030Y1379323*
G03X1224207Y1379250I177J177*
G01X1236493*
G03X1236670Y1379323I-0J250*
G01X1236877Y1379530*
G03X1236950Y1379707I-177J177*
G01X1148750Y1396600D02*
Y1400418D01*
G03X1148677Y1400595I-250J-0*
G01X1147970Y1401302*
G03X1147793Y1401375I-177J-177*
G01X1118707*
G03X1118530Y1401302I0J-250*
G01X1118076Y1400848*
G03X1118038Y1400544I177J-177*
G01X1117810Y1397938D02*
G03X1118038Y1400544I-1710J1462D01*
G01X1117810Y1397938D02*
G03X1117750Y1397775I190J-163D01*
G01Y1383707*
G03X1117823Y1383530I250J0*
G01X1118530Y1382823*
G03X1118707Y1382750I177J177*
G01X1147793*
G03X1147970Y1382823I-0J250*
G01X1148677Y1383530*
G03X1148750Y1383707I-177J177*
G01Y1395200*
G03X1148740Y1395270I-250J-0*
G01Y1396530D02*
G03Y1395270I2160J-630D01*
G01Y1396530D02*
G03X1148750Y1396600I-240J70D01*
G01X1127750Y1357707D02*
Y1374293D01*
G03X1127677Y1374470I-250J-0*
G01X1126470Y1375677*
G03X1126293Y1375750I-177J-177*
G01X1123900*
G03X1123750Y1375700I0J-250*
G01X1121050D02*
G03X1123750I1350J1800D01*
G01X1121050D02*
G03X1120900Y1375750I-150J-200D01*
G01X1086396*
X1074970Y1387177*
G03X1074793Y1387250I-177J-177*
G01X1067000*
G03X1066750Y1387000I0J-250*
G01Y1375500*
G03X1067000Y1375250I250J0*
G01X1070604*
X1081750Y1364104*
Y1360207*
G03X1081823Y1360030I250J0*
G01X1086280Y1355573*
G03X1086457Y1355500I177J177*
G01X1125543*
G03X1125720Y1355573I-0J250*
G01X1127677Y1357530*
G03X1127750Y1357707I-177J177*
G01X1055750Y1362707D02*
Y1393793D01*
G03X1055677Y1393970I-250J-0*
G01X1053970Y1395677*
G03X1053793Y1395750I-177J-177*
G01X1042707*
G03X1042530Y1395677I0J-250*
G01X1040823Y1393970*
G03X1040750Y1393793I177J-177*
G01Y1375657*
G03X1040790Y1375521I250J-0*
G01Y1373079D02*
G03Y1375521I-1890J1221D01*
G01Y1373079D02*
G03X1040750Y1372943I210J-136D01*
G01Y1363707*
G03X1040823Y1363530I250J0*
G01X1043030Y1361323*
G03X1043207Y1361250I177J177*
G01X1054293*
G03X1054470Y1361323I-0J250*
G01X1055677Y1362530*
G03X1055750Y1362707I-177J177*
G01X1048250Y1346425D02*
Y1353500D01*
G03X1048000Y1353750I-250J0*
G01X1040707*
G03X1040530Y1353677I0J-250*
G01X1040323Y1353470*
G03X1040250Y1353293I177J-177*
G01Y1332775*
G03X1040500Y1332525I250J-0*
G01X1045250*
G03X1045500Y1332775I-0J250*
G01Y1335614*
Y1341500*
X1046964Y1345036D02*
G03X1045500Y1341500I3536J-3536D01*
G01X1046964Y1345036D02*
X1048177Y1346248D01*
G03X1048250Y1346425I-177J177*
G01X1042750Y1255707D02*
Y1299293D01*
G03X1042677Y1299470I-250J-0*
G01X1041470Y1300677*
G03X1041293Y1300750I-177J-177*
G01X1026207*
G03X1026030Y1300677I0J-250*
G01X1024323Y1298970*
G03X1024250Y1298793I177J-177*
G01Y1279600*
G03X1024397Y1279373I250J0*
G01X1028071Y1270586D02*
G03X1024397Y1279373I-6571J2414D01*
G01X1028071Y1270586D02*
G03Y1270414I234J-86D01*
G01X1024397Y1261627D02*
G03X1028071Y1270414I-2897J6373D01*
G01X1024397Y1261627D02*
G03X1024250Y1261400I103J-227D01*
G01Y1255100*
G03X1024397Y1254873I250J0*
G01X1026988Y1252845D02*
G03X1024397Y1254873I-5488J-4345D01*
G01X1026988Y1252845D02*
G03X1027184Y1252750I196J155D01*
G01X1039793*
G03X1039970Y1252823I-0J250*
G01X1042677Y1255530*
G03X1042750Y1255707I-177J177*
G01X1044250Y1193507D02*
Y1211293D01*
G03X1044177Y1211470I-250J-0*
G01X1035500Y1220146*
Y1240043*
G03X1035427Y1240220I-250J-0*
G01X1034970Y1240677*
G03X1034793Y1240750I-177J-177*
G01X1027547*
G03X1027338Y1240638I-0J-250*
G01X1023431Y1237772D02*
G03X1027338Y1240638I-1931J6728D01*
G01X1023431Y1237772D02*
G03X1023250Y1237531I69J-241D01*
G01Y1236871*
G03X1023281Y1236750I250J0*
G01Y1193476*
G03X1023354Y1193299I250J-0*
G01X1025530Y1191123*
G03X1025707Y1191050I177J177*
G01X1041793*
G03X1041970Y1191123I-0J250*
G01X1044177Y1193330*
G03X1044250Y1193507I-177J177*
G01X1151250Y1052207D02*
Y1076793D01*
G03X1151177Y1076970I-250J-0*
G01X1149720Y1078427*
G03X1149543Y1078500I-177J-177*
G01X1138707*
G03X1138530Y1078427I0J-250*
G01X1138198Y1078095*
G03X1138125Y1077918I177J-177*
G01Y1050707*
G03X1138198Y1050530I250J0*
G01X1138405Y1050323*
G03X1138582Y1050250I177J177*
G01X1149293*
G03X1149470Y1050323I-0J250*
G01X1151177Y1052030*
G03X1151250Y1052207I-177J177*
G01X1053350Y1072457D02*
Y1086519D01*
G03X1053102Y1086769I-250J-0*
G01X1040402Y1086862*
G03X1040150Y1086612I-2J-250*
G01Y1073157*
G03X1040223Y1072980I250J0*
G01X1041380Y1071823*
G03X1041557Y1071750I177J177*
G01X1052643*
G03X1052820Y1071823I-0J250*
G01X1053277Y1072280*
G03X1053350Y1072457I-177J177*
G01X1183250Y1389207D02*
Y1402093D01*
G03X1183177Y1402270I-250J-0*
G01X1181970Y1403477*
G03X1181793Y1403550I-177J-177*
G01X1162208*
G03X1162070Y1403509I-0J-250*
G01X1161049Y1403124D02*
G03X1162070Y1403509I-349J2476D01*
G01X1161049Y1403124D02*
G03X1160907Y1403054I35J-247D01*
G01X1160323Y1402470*
G03X1160250Y1402293I177J-177*
G01Y1400476*
G03X1160309Y1400314I250J-0*
G01Y1397086D02*
G03Y1400314I-1909J1614D01*
G01Y1397086D02*
G03X1160250Y1396924I191J-162D01*
G01Y1389707*
G03X1160323Y1389530I250J0*
G01X1162280Y1387573*
G03X1162457Y1387500I177J177*
G01X1181543*
G03X1181720Y1387573I-0J250*
G01X1183177Y1389030*
G03X1183250Y1389207I-177J177*
G01X1107750Y1382207D02*
Y1400393D01*
G03X1107677Y1400570I-250J-0*
G01X1105670Y1402577*
G03X1105493Y1402650I-177J-177*
G01X1104888*
G03X1104707Y1402573I0J-250*
G01X1101093D02*
G03X1104707I1807J1727D01*
G01X1101093D02*
G03X1100912Y1402650I-181J-173D01*
G01X1082707*
G03X1082530Y1402577I0J-250*
G01X1080823Y1400870*
G03X1080750Y1400693I177J-177*
G01Y1389207*
G03X1080823Y1389030I250J0*
G01X1089530Y1380323*
G03X1089707Y1380250I177J177*
G01X1105793*
G03X1105970Y1380323I-0J250*
G01X1107677Y1382030*
G03X1107750Y1382207I-177J177*
G01X1151375Y1025146D02*
Y1025918D01*
G03X1151302Y1026095I-250J-0*
G01X1127000Y1050396*
Y1070043*
G03X1126927Y1070220I-250J-0*
G01X1123470Y1073677*
G03X1123293Y1073750I-177J-177*
G01X1106364*
G03X1106250Y1073723I-0J-250*
G01X1104734*
G03X1104558Y1073649I0J-250*
G01X1104378Y1073470*
G03X1104305Y1073293I177J-177*
G01Y1060762*
G03X1104378Y1060585I250J-0*
G01X1108859Y1056104*
Y1039816*
G03X1108933Y1039640I250J0*
G01X1122729Y1025843*
G03X1122961Y1025776I177J177*
G01X1126224Y1018540D02*
G03X1122961Y1025776I-2366J3286D01*
G01X1126224Y1018540D02*
G03X1126194Y1018160I146J-203D01*
G01X1128530Y1015823*
G03X1128707Y1015750I177J177*
G01X1131104*
G03X1131242Y1015791I0J250*
G01X1136474D02*
G03X1131242I-2616J-3965D01*
G01X1136474D02*
G03X1136612Y1015750I138J209D01*
G01X1141104*
G03X1141242Y1015791I0J250*
G01X1146474D02*
G03X1141242I-2616J-3965D01*
G01X1146474D02*
G03X1146612Y1015750I138J209D01*
G01X1148793*
G03X1148970Y1015823I-0J250*
G01X1151302Y1018155*
G03X1151375Y1018332I-177J177*
G01Y1018507*
G03X1151284Y1018700I-250J-0*
G01Y1024953D02*
G03Y1018700I2574J-3127D01*
G01Y1024953D02*
G03X1151375Y1025146I-159J193D01*
G01X1147908Y1021826D02*
G03X1147908I-4050J0D01*
G01X1137908D02*
G03X1137908I-4050J0D01*
G01X1086550Y1336349D02*
X1107450D01*
X1086550Y1335899D02*
X1107450D01*
X1086550Y1335449D02*
X1107450D01*
X1086550Y1334999D02*
X1107450D01*
X1086550Y1334549D02*
X1107450D01*
X1086550Y1334099D02*
X1107450D01*
X1086550Y1333649D02*
X1107450D01*
X1086550Y1333199D02*
X1107450D01*
X1086550Y1332749D02*
X1107450D01*
X1086550Y1332299D02*
X1107450D01*
X1086550Y1331849D02*
X1107450D01*
X1086550Y1331399D02*
X1107450D01*
X1086550Y1330949D02*
X1107450D01*
X1086550Y1330499D02*
X1107450D01*
X1086550Y1330049D02*
X1107450D01*
X1086550Y1329599D02*
X1107450D01*
X1086550Y1329149D02*
X1107450D01*
X1086550Y1328699D02*
X1107450D01*
X1086550Y1328249D02*
X1107450D01*
X1086550Y1327799D02*
X1107450D01*
X1086550Y1327349D02*
X1107450D01*
X1086550Y1326899D02*
X1107450D01*
X1086550Y1326449D02*
X1107450D01*
X1086550Y1325999D02*
X1107450D01*
X1086550Y1325549D02*
X1107450D01*
X1086550Y1325099D02*
X1107450D01*
X1086550Y1324649D02*
X1107450D01*
X1086550Y1324199D02*
X1107450D01*
X1086550Y1323749D02*
X1107450D01*
X1086550Y1323299D02*
X1107450D01*
X1086550Y1322849D02*
X1107450D01*
X1086550Y1322399D02*
X1107450D01*
X1086550Y1321949D02*
X1107450D01*
X1086550Y1321499D02*
X1107450D01*
X1086550Y1321049D02*
X1107450D01*
X1086550Y1320599D02*
X1107450D01*
X1086652Y1336799D02*
X1107348D01*
X1086607Y1320149D02*
X1107295D01*
X1087102Y1337249D02*
X1106898D01*
X1087055Y1319699D02*
X1106845D01*
X1087555Y1337699D02*
X1106445D01*
X1110204Y1336349D02*
X1131450D01*
X1110150Y1335899D02*
X1131450D01*
X1110150Y1335449D02*
X1131450D01*
X1110150Y1334999D02*
X1131450D01*
X1110150Y1334549D02*
X1131450D01*
X1110150Y1334099D02*
X1131450D01*
X1110150Y1333649D02*
X1131450D01*
X1110150Y1333199D02*
X1131450D01*
X1110150Y1332749D02*
X1131450D01*
X1110150Y1332299D02*
X1131450D01*
X1110150Y1331849D02*
X1131450D01*
X1110150Y1331399D02*
X1131450D01*
X1110150Y1330949D02*
X1131450D01*
X1110150Y1330499D02*
X1131450D01*
X1110150Y1330049D02*
X1131450D01*
X1110150Y1329599D02*
X1131450D01*
X1110150Y1329149D02*
X1131450D01*
X1110150Y1328699D02*
X1131450D01*
X1110150Y1328249D02*
X1131450D01*
X1110150Y1327799D02*
X1131450D01*
X1110150Y1327349D02*
X1131450D01*
X1110150Y1326899D02*
X1131450D01*
X1110150Y1326449D02*
X1131450D01*
X1110150Y1325999D02*
X1131450D01*
X1110150Y1325549D02*
X1131450D01*
X1110150Y1325099D02*
X1131450D01*
X1110150Y1324649D02*
X1131450D01*
X1110150Y1324199D02*
X1131450D01*
X1110150Y1323749D02*
X1131450D01*
X1110150Y1323299D02*
X1131450D01*
X1110150Y1322849D02*
X1131450D01*
X1110150Y1322399D02*
X1131450D01*
X1110150Y1321949D02*
X1131450D01*
X1110150Y1321499D02*
X1131450D01*
X1110150Y1321049D02*
X1131450D01*
X1110652Y1336799D02*
X1131348D01*
X1110455Y1320599D02*
X1131245D01*
X1111102Y1337249D02*
X1130898D01*
X1110905Y1320149D02*
X1130795D01*
X1111555Y1337699D02*
X1130445D01*
X1111355Y1319699D02*
X1130345D01*
X1138250Y1335899D02*
X1157750D01*
X1138250Y1335449D02*
X1157750D01*
X1138250Y1334999D02*
X1157750D01*
X1138250Y1334549D02*
X1157750D01*
X1138250Y1334099D02*
X1157750D01*
X1138250Y1333649D02*
X1157750D01*
X1138250Y1333199D02*
X1157750D01*
X1138250Y1332749D02*
X1157750D01*
X1138250Y1332299D02*
X1157750D01*
X1138250Y1331849D02*
X1157750D01*
X1138250Y1331399D02*
X1157750D01*
X1138250Y1330949D02*
X1157750D01*
X1138250Y1330499D02*
X1157750D01*
X1138250Y1330049D02*
X1157750D01*
X1138250Y1329599D02*
X1157750D01*
X1138250Y1329149D02*
X1157750D01*
X1138250Y1328699D02*
X1157750D01*
X1138250Y1328249D02*
X1157750D01*
X1138250Y1327799D02*
X1157750D01*
X1138250Y1327349D02*
X1157750D01*
X1138250Y1326899D02*
X1157750D01*
X1138250Y1326449D02*
X1157750D01*
X1138250Y1325999D02*
X1157750D01*
X1138250Y1325549D02*
X1157750D01*
X1138250Y1325099D02*
X1157750D01*
X1138250Y1324649D02*
X1157750D01*
X1138250Y1324199D02*
X1157750D01*
X1138250Y1323749D02*
X1157750D01*
X1138250Y1323299D02*
X1157750D01*
X1138250Y1322849D02*
X1157750D01*
X1138250Y1322399D02*
X1157750D01*
X1138250Y1321949D02*
X1157750D01*
X1138250Y1321499D02*
X1157750D01*
X1138256Y1336349D02*
X1157744D01*
X1138307Y1321049D02*
X1157693D01*
X1138652Y1336799D02*
X1157348D01*
X1138755Y1320599D02*
X1157245D01*
X1139102Y1337249D02*
X1156898D01*
X1139205Y1320149D02*
X1156795D01*
X1139555Y1337699D02*
X1156445D01*
X1139655Y1319699D02*
X1156345D01*
X1162750Y1336349D02*
X1182250D01*
X1162750Y1335899D02*
X1182250D01*
X1162750Y1335449D02*
X1182250D01*
X1162750Y1334999D02*
X1182250D01*
X1162750Y1334549D02*
X1182250D01*
X1162750Y1334099D02*
X1182250D01*
X1162750Y1333649D02*
X1182250D01*
X1162750Y1333199D02*
X1182250D01*
X1162750Y1332749D02*
X1182250D01*
X1162750Y1332299D02*
X1182250D01*
X1162750Y1331849D02*
X1182250D01*
X1162750Y1331399D02*
X1182250D01*
X1162750Y1330949D02*
X1182250D01*
X1162750Y1330499D02*
X1182250D01*
X1162750Y1330049D02*
X1182250D01*
X1162750Y1329599D02*
X1182250D01*
X1162750Y1329149D02*
X1182250D01*
X1162750Y1328699D02*
X1182250D01*
X1162750Y1328249D02*
X1182250D01*
X1162750Y1327799D02*
X1182250D01*
X1162750Y1327349D02*
X1182250D01*
X1162750Y1326899D02*
X1182250D01*
X1162750Y1326449D02*
X1182250D01*
X1162750Y1325999D02*
X1182250D01*
X1162750Y1325549D02*
X1182250D01*
X1162750Y1325099D02*
X1182250D01*
X1162750Y1324649D02*
X1182250D01*
X1162750Y1324199D02*
X1182250D01*
X1162750Y1323749D02*
X1182250D01*
X1162750Y1323299D02*
X1182250D01*
X1162750Y1322849D02*
X1182250D01*
X1162750Y1322399D02*
X1182250D01*
X1162750Y1321949D02*
X1182250D01*
X1162750Y1321499D02*
X1182250D01*
X1162750Y1336799D02*
X1182250D01*
X1162807Y1321049D02*
X1182193D01*
X1163102Y1337249D02*
X1181898D01*
X1163255Y1320599D02*
X1181745D01*
X1163555Y1337699D02*
X1181445D01*
X1163705Y1320149D02*
X1181295D01*
X1164155Y1319699D02*
X1180845D01*
X1079377Y1078024D02*
X1092000D01*
X1078927Y1077574D02*
X1092000D01*
X1078477Y1077124D02*
X1092000D01*
X1078027Y1076674D02*
X1092000D01*
X1077577Y1076224D02*
X1092000D01*
X1077127Y1075774D02*
X1092000D01*
X1076677Y1075324D02*
X1092000D01*
X1076227Y1074874D02*
X1092000D01*
X1075777Y1074424D02*
X1092000D01*
X1075327Y1073974D02*
X1092000D01*
X1074877Y1073524D02*
X1092000D01*
X1074427Y1073074D02*
X1092000D01*
X1073977Y1072624D02*
X1092000D01*
X1073527Y1072174D02*
X1092000D01*
X1073250Y1071724D02*
X1092000D01*
X1073250Y1071274D02*
X1092000D01*
X1073250Y1070824D02*
X1092000D01*
X1073250Y1070374D02*
X1092000D01*
X1073250Y1069924D02*
X1092000D01*
X1073250Y1069474D02*
X1092000D01*
X1073250Y1069024D02*
X1092000D01*
X1073250Y1068574D02*
X1092000D01*
X1073250Y1068124D02*
X1092000D01*
X1073250Y1067674D02*
X1092000D01*
X1073250Y1067224D02*
X1092000D01*
X1073250Y1066774D02*
X1092000D01*
X1073250Y1066324D02*
X1092000D01*
X1073250Y1065874D02*
X1092000D01*
X1073250Y1065424D02*
X1092000D01*
X1073250Y1064974D02*
X1092000D01*
X1073250Y1064524D02*
X1092000D01*
X1073250Y1064074D02*
X1092000D01*
X1073191Y1063624D02*
X1092000D01*
X1073187Y1063174D02*
X1092000D01*
X1073187Y1062724D02*
X1092000D01*
X1073187Y1062274D02*
X1092000D01*
X1073187Y1061824D02*
X1092000D01*
X1073187Y1061374D02*
X1092000D01*
X1073187Y1060924D02*
X1092000D01*
X1073187Y1060474D02*
X1092000D01*
X1073219Y1060024D02*
X1091920D01*
X1079827Y1078474D02*
X1091673D01*
X1073655Y1059574D02*
X1091470D01*
X1080277Y1078924D02*
X1091223D01*
X1057219Y1106333D02*
X1112875D01*
X1057219Y1105883D02*
X1112875D01*
X1057219Y1105433D02*
X1112875D01*
X1057219Y1104983D02*
X1112875D01*
X1057219Y1104533D02*
X1112875D01*
X1057219Y1104083D02*
X1112875D01*
X1057219Y1103633D02*
X1112875D01*
X1057219Y1103183D02*
X1112875D01*
X1057219Y1102733D02*
X1112875D01*
X1057219Y1102283D02*
X1112875D01*
X1057219Y1101833D02*
X1112875D01*
X1057219Y1101383D02*
X1112875D01*
X1057219Y1100933D02*
X1112875D01*
X1057219Y1100483D02*
X1112875D01*
X1057219Y1100033D02*
X1112875D01*
X1057219Y1099583D02*
X1112875D01*
X1057219Y1099133D02*
X1112875D01*
X1057219Y1098683D02*
X1112875D01*
X1057219Y1098233D02*
X1112875D01*
X1057219Y1097783D02*
X1112875D01*
X1057219Y1097333D02*
X1112875D01*
X1057219Y1096883D02*
X1112875D01*
X1057220Y1106783D02*
X1112847D01*
X1057219Y1096433D02*
X1112705D01*
X1057587Y1107233D02*
X1112413D01*
X1057219Y1095983D02*
X1112255D01*
X1058037Y1107683D02*
X1111963D01*
X1057219Y1095533D02*
X1084680D01*
X1057219Y1095083D02*
X1084230D01*
X1057219Y1094633D02*
X1083780D01*
X1057219Y1094183D02*
X1083330D01*
X1057219Y1093733D02*
X1082880D01*
X1057219Y1093283D02*
X1082430D01*
X1057219Y1092833D02*
X1081980D01*
X1057219Y1092383D02*
X1081530D01*
X1057219Y1091933D02*
X1081080D01*
X1057219Y1091483D02*
X1080630D01*
X1057219Y1091033D02*
X1080180D01*
X1057219Y1090583D02*
X1079730D01*
X1057219Y1090133D02*
X1079280D01*
X1057219Y1089683D02*
X1078830D01*
X1057219Y1089233D02*
X1078380D01*
X1057219Y1088783D02*
X1077930D01*
X1057219Y1088333D02*
X1077480D01*
X1057219Y1087883D02*
X1077030D01*
X1057219Y1087433D02*
X1076580D01*
X1057219Y1086983D02*
X1076130D01*
X1057219Y1086533D02*
X1075680D01*
X1057219Y1086083D02*
X1075230D01*
X1057219Y1085633D02*
X1074780D01*
X1057219Y1085183D02*
X1074330D01*
X1057219Y1084733D02*
X1073880D01*
X1057219Y1084283D02*
X1073430D01*
X1057219Y1083833D02*
X1072980D01*
X1057219Y1083383D02*
X1072530D01*
X1057219Y1082933D02*
X1072080D01*
X1057219Y1082483D02*
X1071630D01*
X1057219Y1082033D02*
X1071180D01*
X1057219Y1081583D02*
X1070730D01*
X1057219Y1081133D02*
X1070280D01*
X1057219Y1080683D02*
X1069830D01*
X1057219Y1080233D02*
X1069380D01*
X1057219Y1079783D02*
X1068930D01*
X1057219Y1079333D02*
X1068480D01*
X1057219Y1078883D02*
X1068030D01*
X1057219Y1078433D02*
X1067580D01*
X1057219Y1077983D02*
X1067130D01*
X1057219Y1077533D02*
X1066750D01*
X1057219Y1077083D02*
X1066750D01*
X1057219Y1076633D02*
X1066750D01*
X1057219Y1076183D02*
X1066750D01*
X1057219Y1075733D02*
X1066750D01*
X1057219Y1075283D02*
X1066750D01*
X1057219Y1074833D02*
X1066750D01*
X1057219Y1074383D02*
X1066750D01*
X1057219Y1073933D02*
X1066750D01*
X1057219Y1073483D02*
X1066750D01*
X1057219Y1073033D02*
X1066750D01*
X1057219Y1072583D02*
X1066750D01*
X1057219Y1072133D02*
X1066750D01*
X1057219Y1071683D02*
X1066750D01*
X1057219Y1071233D02*
X1066750D01*
X1057219Y1070783D02*
X1066750D01*
X1057219Y1070333D02*
X1066750D01*
X1057219Y1069883D02*
X1066750D01*
X1057219Y1069433D02*
X1066750D01*
X1057219Y1068983D02*
X1066750D01*
X1057219Y1068533D02*
X1066750D01*
X1057219Y1068083D02*
X1066750D01*
X1057219Y1067633D02*
X1066750D01*
X1057219Y1067183D02*
X1066750D01*
X1057219Y1066733D02*
X1066750D01*
X1057219Y1066283D02*
X1066750D01*
X1057219Y1065833D02*
X1066750D01*
X1057219Y1065383D02*
X1066750D01*
X1057219Y1064933D02*
X1066750D01*
X1057219Y1064483D02*
X1066750D01*
X1057219Y1064033D02*
X1066750D01*
X1057219Y1063583D02*
X1066750D01*
X1057230Y1063133D02*
X1066750D01*
X1057639Y1062683D02*
X1066345D01*
X1223202Y1372349D02*
X1230250D01*
X1222752Y1371899D02*
X1230250D01*
X1222302Y1371449D02*
X1230250D01*
X1221852Y1370999D02*
X1230250D01*
X1221402Y1370549D02*
X1230250D01*
X1220952Y1370099D02*
X1230250D01*
X1220502Y1369649D02*
X1230250D01*
X1220052Y1369199D02*
X1230250D01*
X1219602Y1368749D02*
X1230250D01*
X1219152Y1368299D02*
X1230250D01*
X1218702Y1367849D02*
X1230250D01*
X1218252Y1367399D02*
X1230250D01*
X1217802Y1366949D02*
X1230250D01*
X1217352Y1366499D02*
X1230250D01*
X1216902Y1366049D02*
X1230250D01*
X1216452Y1365599D02*
X1230250D01*
X1216002Y1365149D02*
X1230250D01*
X1215552Y1364699D02*
X1230250D01*
X1215102Y1364249D02*
X1230250D01*
X1214750Y1363799D02*
X1230250D01*
X1214750Y1363349D02*
X1230250D01*
X1214750Y1362899D02*
X1230250D01*
X1214750Y1362449D02*
X1230250D01*
X1214750Y1361999D02*
X1230250D01*
X1214750Y1361549D02*
X1230250D01*
X1214750Y1361099D02*
X1230250D01*
X1214750Y1360649D02*
X1230250D01*
X1214750Y1360199D02*
X1230250D01*
X1214750Y1359749D02*
X1230250D01*
X1214750Y1359299D02*
X1230250D01*
X1214750Y1358849D02*
X1230250D01*
X1214750Y1358399D02*
X1230250D01*
X1214750Y1357949D02*
X1230250D01*
X1214750Y1357499D02*
X1230250D01*
X1214750Y1357049D02*
X1230250D01*
X1214750Y1356599D02*
X1230250D01*
X1214750Y1356149D02*
X1230250D01*
X1214750Y1355699D02*
X1230250D01*
X1214750Y1355249D02*
X1230250D01*
X1214750Y1354799D02*
X1230250D01*
X1214750Y1354349D02*
X1230250D01*
X1214750Y1353899D02*
X1230250D01*
X1214750Y1353449D02*
X1230250D01*
X1214750Y1352999D02*
X1230250D01*
X1214750Y1352549D02*
X1230250D01*
X1214750Y1352099D02*
X1230250D01*
X1214750Y1351649D02*
X1230250D01*
X1214750Y1351199D02*
X1230250D01*
X1214750Y1350749D02*
X1230250D01*
X1214750Y1350299D02*
X1230250D01*
X1214750Y1349849D02*
X1230250D01*
X1214750Y1349399D02*
X1230250D01*
X1214750Y1348949D02*
X1230250D01*
X1214750Y1348499D02*
X1230250D01*
X1214750Y1348049D02*
X1230250D01*
X1214750Y1347599D02*
X1230250D01*
X1214757Y1347149D02*
X1230250D01*
X1215155Y1346699D02*
X1230250D01*
X1137250Y1362949D02*
X1201250D01*
X1137250Y1362499D02*
X1201250D01*
X1137250Y1362049D02*
X1201250D01*
X1137250Y1361599D02*
X1201250D01*
X1137250Y1361149D02*
X1201250D01*
X1137250Y1360699D02*
X1201250D01*
X1137250Y1360249D02*
X1201250D01*
X1137250Y1359799D02*
X1201250D01*
X1137250Y1359349D02*
X1201250D01*
X1137250Y1358899D02*
X1201250D01*
X1137250Y1358449D02*
X1201250D01*
X1137250Y1357999D02*
X1201250D01*
X1137250Y1357549D02*
X1201250D01*
X1137250Y1357099D02*
X1201250D01*
X1137250Y1356649D02*
X1201250D01*
X1137250Y1356199D02*
X1201250D01*
X1137250Y1355749D02*
X1201250D01*
X1137553Y1355299D02*
X1201250D01*
X1138003Y1354849D02*
X1201250D01*
X1138453Y1354399D02*
X1201250D01*
X1138903Y1353949D02*
X1201250D01*
X1190355Y1353499D02*
X1201250D01*
X1190805Y1353049D02*
X1201250D01*
X1191255Y1352599D02*
X1201250D01*
X1191705Y1352149D02*
X1201250D01*
X1192155Y1351699D02*
X1201250D01*
X1137250Y1363399D02*
X1201227D01*
X1137250Y1363849D02*
X1192798D01*
X1137250Y1364299D02*
X1192348D01*
X1137250Y1364749D02*
X1191898D01*
X1137250Y1365199D02*
X1191448D01*
X1137250Y1365649D02*
X1190998D01*
X1137250Y1366099D02*
X1190548D01*
X1137433Y1366549D02*
X1190098D01*
X1137638Y1366999D02*
X1189648D01*
X1137736Y1367449D02*
X1189198D01*
X1137741Y1367899D02*
X1188748D01*
X1137654Y1368349D02*
X1188298D01*
X1137464Y1368799D02*
X1187848D01*
X1137250Y1369249D02*
X1187398D01*
X1137250Y1369699D02*
X1186948D01*
X1137250Y1370149D02*
X1186498D01*
X1137250Y1370599D02*
X1186048D01*
X1137250Y1371049D02*
X1185598D01*
X1137250Y1371499D02*
X1185148D01*
X1137250Y1371949D02*
X1184698D01*
X1137250Y1372399D02*
X1184248D01*
X1137250Y1372849D02*
X1183798D01*
X1137250Y1373299D02*
X1183348D01*
X1137250Y1373749D02*
X1182898D01*
X1137250Y1374199D02*
X1182448D01*
X1137250Y1374649D02*
X1181998D01*
X1137250Y1375099D02*
X1181548D01*
X1137394Y1375549D02*
X1181098D01*
X1137844Y1375999D02*
X1180648D01*
X1138294Y1376449D02*
X1180198D01*
X1138744Y1376899D02*
X1179748D01*
X1224502Y1393649D02*
X1236950D01*
X1224054Y1393199D02*
X1236950D01*
X1224000Y1392749D02*
X1236950D01*
X1224000Y1392299D02*
X1236950D01*
X1224000Y1391849D02*
X1236950D01*
X1224000Y1391399D02*
X1236950D01*
X1224000Y1390949D02*
X1236950D01*
X1224000Y1390499D02*
X1236950D01*
X1224000Y1390049D02*
X1236950D01*
X1224000Y1389599D02*
X1236950D01*
X1223998Y1389149D02*
X1236950D01*
X1223964Y1388699D02*
X1236950D01*
X1223888Y1388249D02*
X1236950D01*
X1223769Y1387799D02*
X1236950D01*
X1223750Y1387349D02*
X1236950D01*
X1223750Y1386899D02*
X1236950D01*
X1223750Y1386449D02*
X1236950D01*
X1223750Y1385999D02*
X1236950D01*
X1223760Y1385549D02*
X1236950D01*
X1223965Y1385099D02*
X1236950D01*
X1224115Y1384649D02*
X1236950D01*
X1224212Y1384199D02*
X1236950D01*
X1224260Y1383749D02*
X1236950D01*
X1224266Y1383299D02*
X1236950D01*
X1224266Y1382849D02*
X1236950D01*
X1224266Y1382399D02*
X1236950D01*
X1224247Y1381949D02*
X1236950D01*
X1224180Y1381499D02*
X1236950D01*
X1224063Y1381049D02*
X1236950D01*
X1223890Y1380599D02*
X1236950D01*
X1223750Y1380149D02*
X1236950D01*
X1223750Y1379699D02*
X1236950D01*
X1224952Y1394099D02*
X1236931D01*
X1225420Y1394549D02*
X1236356D01*
X1118163Y1400299D02*
X1148750D01*
X1118305Y1399849D02*
X1148750D01*
X1118350Y1399399D02*
X1148750D01*
X1118304Y1398949D02*
X1148750D01*
X1118162Y1398499D02*
X1148750D01*
X1117899Y1398049D02*
X1148750D01*
X1117750Y1397599D02*
X1148750D01*
X1117750Y1397149D02*
X1148750D01*
X1117750Y1396699D02*
X1148750D01*
X1117750Y1394899D02*
X1148750D01*
X1117750Y1394449D02*
X1148750D01*
X1117750Y1393999D02*
X1148750D01*
X1117750Y1393549D02*
X1148750D01*
X1117750Y1393099D02*
X1148750D01*
X1117750Y1392649D02*
X1148750D01*
X1117750Y1392199D02*
X1148750D01*
X1117750Y1391749D02*
X1148750D01*
X1117750Y1391299D02*
X1148750D01*
X1117750Y1390849D02*
X1148750D01*
X1117750Y1390399D02*
X1148750D01*
X1117750Y1389949D02*
X1148750D01*
X1117750Y1389499D02*
X1148750D01*
X1117750Y1389049D02*
X1148750D01*
X1117750Y1388599D02*
X1148750D01*
X1117750Y1388149D02*
X1148750D01*
X1117750Y1387699D02*
X1148750D01*
X1117750Y1387249D02*
X1148750D01*
X1117750Y1386799D02*
X1148750D01*
X1117750Y1386349D02*
X1148750D01*
X1117750Y1385899D02*
X1148750D01*
X1117750Y1385449D02*
X1148750D01*
X1117750Y1384999D02*
X1148750D01*
X1117750Y1384549D02*
X1148750D01*
X1117750Y1384099D02*
X1148750D01*
X1117757Y1383649D02*
X1148743D01*
X1117750Y1395349D02*
X1148719D01*
X1117750Y1396249D02*
X1148677D01*
X1117750Y1395799D02*
X1148652D01*
X1118015Y1400749D02*
X1148523D01*
X1118155Y1383199D02*
X1148345D01*
X1118427Y1401199D02*
X1148073D01*
X1071905Y1373949D02*
X1127750D01*
X1072355Y1373499D02*
X1127750D01*
X1072805Y1373049D02*
X1127750D01*
X1073255Y1372599D02*
X1127750D01*
X1073705Y1372149D02*
X1127750D01*
X1074155Y1371699D02*
X1127750D01*
X1074605Y1371249D02*
X1127750D01*
X1075055Y1370799D02*
X1127750D01*
X1075505Y1370349D02*
X1127750D01*
X1075955Y1369899D02*
X1127750D01*
X1076405Y1369449D02*
X1127750D01*
X1076855Y1368999D02*
X1127750D01*
X1077305Y1368549D02*
X1127750D01*
X1077755Y1368099D02*
X1127750D01*
X1078205Y1367649D02*
X1127750D01*
X1078655Y1367199D02*
X1127750D01*
X1079105Y1366749D02*
X1127750D01*
X1079555Y1366299D02*
X1127750D01*
X1080005Y1365849D02*
X1127750D01*
X1080455Y1365399D02*
X1127750D01*
X1080905Y1364949D02*
X1127750D01*
X1081355Y1364499D02*
X1127750D01*
X1081750Y1364049D02*
X1127750D01*
X1081750Y1363599D02*
X1127750D01*
X1081750Y1363149D02*
X1127750D01*
X1081750Y1362699D02*
X1127750D01*
X1081750Y1362249D02*
X1127750D01*
X1081750Y1361799D02*
X1127750D01*
X1081750Y1361349D02*
X1127750D01*
X1081750Y1360899D02*
X1127750D01*
X1081750Y1360449D02*
X1127750D01*
X1081855Y1359999D02*
X1127750D01*
X1082305Y1359549D02*
X1127750D01*
X1082755Y1359099D02*
X1127750D01*
X1083205Y1358649D02*
X1127750D01*
X1083655Y1358199D02*
X1127750D01*
X1084105Y1357749D02*
X1127750D01*
X1071455Y1374399D02*
X1127727D01*
X1084555Y1357299D02*
X1127445D01*
X1071005Y1374849D02*
X1127298D01*
X1085005Y1356849D02*
X1126995D01*
X1122866Y1375299D02*
X1126848D01*
X1085455Y1356399D02*
X1126545D01*
X1123874Y1375749D02*
X1126318D01*
X1085905Y1355949D02*
X1126095D01*
X1066852Y1375299D02*
X1121934D01*
X1066750Y1375749D02*
X1120926D01*
X1066750Y1376199D02*
X1085948D01*
X1066750Y1376649D02*
X1085498D01*
X1066750Y1377099D02*
X1085048D01*
X1066750Y1377549D02*
X1084598D01*
X1066750Y1377999D02*
X1084148D01*
X1066750Y1378449D02*
X1083698D01*
X1066750Y1378899D02*
X1083248D01*
X1066750Y1379349D02*
X1082798D01*
X1066750Y1379799D02*
X1082348D01*
X1066750Y1380249D02*
X1081898D01*
X1066750Y1380699D02*
X1081448D01*
X1066750Y1381149D02*
X1080998D01*
X1066750Y1381599D02*
X1080548D01*
X1066750Y1382049D02*
X1080098D01*
X1066750Y1382499D02*
X1079648D01*
X1066750Y1382949D02*
X1079198D01*
X1066750Y1383399D02*
X1078748D01*
X1066750Y1383849D02*
X1078298D01*
X1066750Y1384299D02*
X1077848D01*
X1066750Y1384749D02*
X1077398D01*
X1066750Y1385199D02*
X1076948D01*
X1066750Y1385649D02*
X1076498D01*
X1066750Y1386099D02*
X1076048D01*
X1066750Y1386549D02*
X1075598D01*
X1066750Y1386999D02*
X1075148D01*
X1040750Y1393649D02*
X1055750D01*
X1040750Y1393199D02*
X1055750D01*
X1040750Y1392749D02*
X1055750D01*
X1040750Y1392299D02*
X1055750D01*
X1040750Y1391849D02*
X1055750D01*
X1040750Y1391399D02*
X1055750D01*
X1040750Y1390949D02*
X1055750D01*
X1040750Y1390499D02*
X1055750D01*
X1040750Y1390049D02*
X1055750D01*
X1040750Y1389599D02*
X1055750D01*
X1040750Y1389149D02*
X1055750D01*
X1040750Y1388699D02*
X1055750D01*
X1040750Y1388249D02*
X1055750D01*
X1040750Y1387799D02*
X1055750D01*
X1040750Y1387349D02*
X1055750D01*
X1040750Y1386899D02*
X1055750D01*
X1040750Y1386449D02*
X1055750D01*
X1040750Y1385999D02*
X1055750D01*
X1040750Y1385549D02*
X1055750D01*
X1040750Y1385099D02*
X1055750D01*
X1040750Y1384649D02*
X1055750D01*
X1040750Y1384199D02*
X1055750D01*
X1040750Y1383749D02*
X1055750D01*
X1040750Y1383299D02*
X1055750D01*
X1040750Y1382849D02*
X1055750D01*
X1040750Y1382399D02*
X1055750D01*
X1040750Y1381949D02*
X1055750D01*
X1040750Y1381499D02*
X1055750D01*
X1040750Y1381049D02*
X1055750D01*
X1040750Y1380599D02*
X1055750D01*
X1040750Y1380149D02*
X1055750D01*
X1040750Y1379699D02*
X1055750D01*
X1040750Y1379249D02*
X1055750D01*
X1040750Y1378799D02*
X1055750D01*
X1040750Y1378349D02*
X1055750D01*
X1040750Y1377899D02*
X1055750D01*
X1040750Y1377449D02*
X1055750D01*
X1040750Y1376999D02*
X1055750D01*
X1040750Y1376549D02*
X1055750D01*
X1040750Y1376099D02*
X1055750D01*
X1040750Y1375649D02*
X1055750D01*
X1040963Y1375199D02*
X1055750D01*
X1041105Y1374749D02*
X1055750D01*
X1041150Y1374299D02*
X1055750D01*
X1041104Y1373849D02*
X1055750D01*
X1040962Y1373399D02*
X1055750D01*
X1040750Y1372949D02*
X1055750D01*
X1040750Y1372499D02*
X1055750D01*
X1040750Y1372049D02*
X1055750D01*
X1040750Y1371599D02*
X1055750D01*
X1040750Y1371149D02*
X1055750D01*
X1040750Y1370699D02*
X1055750D01*
X1040750Y1370249D02*
X1055750D01*
X1040750Y1369799D02*
X1055750D01*
X1040750Y1369349D02*
X1055750D01*
X1040750Y1368899D02*
X1055750D01*
X1040750Y1368449D02*
X1055750D01*
X1040750Y1367999D02*
X1055750D01*
X1040750Y1367549D02*
X1055750D01*
X1040750Y1367099D02*
X1055750D01*
X1040750Y1366649D02*
X1055750D01*
X1040750Y1366199D02*
X1055750D01*
X1040750Y1365749D02*
X1055750D01*
X1040750Y1365299D02*
X1055750D01*
X1040750Y1364849D02*
X1055750D01*
X1040750Y1364399D02*
X1055750D01*
X1040750Y1363949D02*
X1055750D01*
X1040855Y1363499D02*
X1055750D01*
X1041305Y1363049D02*
X1055750D01*
X1041755Y1362599D02*
X1055725D01*
X1040952Y1394099D02*
X1055548D01*
X1042205Y1362149D02*
X1055295D01*
X1041402Y1394549D02*
X1055098D01*
X1042655Y1361699D02*
X1054845D01*
X1041852Y1394999D02*
X1054648D01*
X1042302Y1395449D02*
X1054198D01*
X1040273Y1353399D02*
X1048250D01*
X1040250Y1352949D02*
X1048250D01*
X1040250Y1352499D02*
X1048250D01*
X1040250Y1352049D02*
X1048250D01*
X1040250Y1351599D02*
X1048250D01*
X1040250Y1351149D02*
X1048250D01*
X1040250Y1350699D02*
X1048250D01*
X1040250Y1350249D02*
X1048250D01*
X1040250Y1349799D02*
X1048250D01*
X1040250Y1349349D02*
X1048250D01*
X1040250Y1348899D02*
X1048250D01*
X1040250Y1348449D02*
X1048250D01*
X1040250Y1347999D02*
X1048250D01*
X1040250Y1347549D02*
X1048250D01*
X1040250Y1347099D02*
X1048250D01*
X1040250Y1346649D02*
X1048250D01*
X1040250Y1346199D02*
X1048128D01*
X1040250Y1345749D02*
X1047678D01*
X1040250Y1345299D02*
X1047228D01*
X1040250Y1344849D02*
X1046787D01*
X1040250Y1344399D02*
X1046426D01*
X1040250Y1343949D02*
X1046141D01*
X1040250Y1343499D02*
X1045917D01*
X1040250Y1343049D02*
X1045746D01*
X1040250Y1342599D02*
X1045622D01*
X1040250Y1342149D02*
X1045542D01*
X1040250Y1341699D02*
X1045504D01*
X1040250Y1341249D02*
X1045500D01*
X1040250Y1340799D02*
X1045500D01*
X1040250Y1340349D02*
X1045500D01*
X1040250Y1339899D02*
X1045500D01*
X1040250Y1339449D02*
X1045500D01*
X1040250Y1338999D02*
X1045500D01*
X1040250Y1338549D02*
X1045500D01*
X1040250Y1338099D02*
X1045500D01*
X1040250Y1337649D02*
X1045500D01*
X1040250Y1337199D02*
X1045500D01*
X1040250Y1336749D02*
X1045500D01*
X1040250Y1336299D02*
X1045500D01*
X1040250Y1335849D02*
X1045500D01*
X1040250Y1335399D02*
X1045500D01*
X1040250Y1334949D02*
X1045500D01*
X1040250Y1334499D02*
X1045500D01*
X1040250Y1334049D02*
X1045500D01*
X1040250Y1333599D02*
X1045500D01*
X1040250Y1333149D02*
X1045500D01*
X1040262Y1332699D02*
X1045488D01*
X1024452Y1299099D02*
X1042750D01*
X1024250Y1298649D02*
X1042750D01*
X1024250Y1298199D02*
X1042750D01*
X1024250Y1297749D02*
X1042750D01*
X1024250Y1297299D02*
X1042750D01*
X1024250Y1296849D02*
X1042750D01*
X1024250Y1296399D02*
X1042750D01*
X1024250Y1295949D02*
X1042750D01*
X1024250Y1295499D02*
X1042750D01*
X1024250Y1295049D02*
X1042750D01*
X1024250Y1294599D02*
X1042750D01*
X1024250Y1294149D02*
X1042750D01*
X1024250Y1293699D02*
X1042750D01*
X1024250Y1293249D02*
X1042750D01*
X1024250Y1292799D02*
X1042750D01*
X1024250Y1292349D02*
X1042750D01*
X1024250Y1291899D02*
X1042750D01*
X1024250Y1291449D02*
X1042750D01*
X1024250Y1290999D02*
X1042750D01*
X1024250Y1290549D02*
X1042750D01*
X1024250Y1290099D02*
X1042750D01*
X1024250Y1289649D02*
X1042750D01*
X1024250Y1289199D02*
X1042750D01*
X1024250Y1288749D02*
X1042750D01*
X1024250Y1288299D02*
X1042750D01*
X1024250Y1287849D02*
X1042750D01*
X1024250Y1287399D02*
X1042750D01*
X1024250Y1286949D02*
X1042750D01*
X1024250Y1286499D02*
X1042750D01*
X1024250Y1286049D02*
X1042750D01*
X1024250Y1285599D02*
X1042750D01*
X1024250Y1285149D02*
X1042750D01*
X1024250Y1284699D02*
X1042750D01*
X1024250Y1284249D02*
X1042750D01*
X1024250Y1283799D02*
X1042750D01*
X1024250Y1283349D02*
X1042750D01*
X1024250Y1282899D02*
X1042750D01*
X1024250Y1282449D02*
X1042750D01*
X1024250Y1281999D02*
X1042750D01*
X1024250Y1281549D02*
X1042750D01*
X1024250Y1281099D02*
X1042750D01*
X1024250Y1280649D02*
X1042750D01*
X1024250Y1280199D02*
X1042750D01*
X1024250Y1279749D02*
X1042750D01*
X1024554Y1279299D02*
X1042750D01*
X1025346Y1278849D02*
X1042750D01*
X1025956Y1278399D02*
X1042750D01*
X1026451Y1277949D02*
X1042750D01*
X1026863Y1277499D02*
X1042750D01*
X1027210Y1277049D02*
X1042750D01*
X1027504Y1276599D02*
X1042750D01*
X1027752Y1276149D02*
X1042750D01*
X1027959Y1275699D02*
X1042750D01*
X1028129Y1275249D02*
X1042750D01*
X1028265Y1274799D02*
X1042750D01*
X1028369Y1274349D02*
X1042750D01*
X1028442Y1273899D02*
X1042750D01*
X1028486Y1273449D02*
X1042750D01*
X1028500Y1272999D02*
X1042750D01*
X1028485Y1272549D02*
X1042750D01*
X1028442Y1272099D02*
X1042750D01*
X1028368Y1271649D02*
X1042750D01*
X1028264Y1271199D02*
X1042750D01*
X1028128Y1270749D02*
X1042750D01*
X1028112Y1270299D02*
X1042750D01*
X1028251Y1269849D02*
X1042750D01*
X1028359Y1269399D02*
X1042750D01*
X1028435Y1268949D02*
X1042750D01*
X1028482Y1268499D02*
X1042750D01*
X1028500Y1268049D02*
X1042750D01*
X1028489Y1267599D02*
X1042750D01*
X1028448Y1267149D02*
X1042750D01*
X1028378Y1266699D02*
X1042750D01*
X1028277Y1266249D02*
X1042750D01*
X1028145Y1265799D02*
X1042750D01*
X1027978Y1265349D02*
X1042750D01*
X1027776Y1264899D02*
X1042750D01*
X1027532Y1264449D02*
X1042750D01*
X1027244Y1263999D02*
X1042750D01*
X1026902Y1263549D02*
X1042750D01*
X1026498Y1263099D02*
X1042750D01*
X1026013Y1262649D02*
X1042750D01*
X1025417Y1262199D02*
X1042750D01*
X1024650Y1261749D02*
X1042750D01*
X1024250Y1261299D02*
X1042750D01*
X1024250Y1260849D02*
X1042750D01*
X1024250Y1260399D02*
X1042750D01*
X1024250Y1259949D02*
X1042750D01*
X1024250Y1259499D02*
X1042750D01*
X1024250Y1259049D02*
X1042750D01*
X1024250Y1258599D02*
X1042750D01*
X1024250Y1258149D02*
X1042750D01*
X1024250Y1257699D02*
X1042750D01*
X1024250Y1257249D02*
X1042750D01*
X1024250Y1256799D02*
X1042750D01*
X1024250Y1256349D02*
X1042750D01*
X1024250Y1255899D02*
X1042750D01*
X1024902Y1299549D02*
X1042598D01*
X1024250Y1255449D02*
X1042595D01*
X1025352Y1299999D02*
X1042148D01*
X1024272Y1254999D02*
X1042145D01*
X1025802Y1300449D02*
X1041698D01*
X1025023Y1254549D02*
X1041695D01*
X1025702Y1254099D02*
X1041245D01*
X1026243Y1253649D02*
X1040795D01*
X1026689Y1253199D02*
X1040345D01*
X1023281Y1210849D02*
X1044250D01*
X1023281Y1210399D02*
X1044250D01*
X1023281Y1209949D02*
X1044250D01*
X1023281Y1209499D02*
X1044250D01*
X1023281Y1209049D02*
X1044250D01*
X1023281Y1208599D02*
X1044250D01*
X1023281Y1208149D02*
X1044250D01*
X1023281Y1207699D02*
X1044250D01*
X1023281Y1207249D02*
X1044250D01*
X1023281Y1206799D02*
X1044250D01*
X1023281Y1206349D02*
X1044250D01*
X1023281Y1205899D02*
X1044250D01*
X1023281Y1205449D02*
X1044250D01*
X1023281Y1204999D02*
X1044250D01*
X1023281Y1204549D02*
X1044250D01*
X1023281Y1204099D02*
X1044250D01*
X1023281Y1203649D02*
X1044250D01*
X1023281Y1203199D02*
X1044250D01*
X1023281Y1202749D02*
X1044250D01*
X1023281Y1202299D02*
X1044250D01*
X1023281Y1201849D02*
X1044250D01*
X1023281Y1201399D02*
X1044250D01*
X1023281Y1200949D02*
X1044250D01*
X1023281Y1200499D02*
X1044250D01*
X1023281Y1200049D02*
X1044250D01*
X1023281Y1199599D02*
X1044250D01*
X1023281Y1199149D02*
X1044250D01*
X1023281Y1198699D02*
X1044250D01*
X1023281Y1198249D02*
X1044250D01*
X1023281Y1197799D02*
X1044250D01*
X1023281Y1197349D02*
X1044250D01*
X1023281Y1196899D02*
X1044250D01*
X1023281Y1196449D02*
X1044250D01*
X1023281Y1195999D02*
X1044250D01*
X1023281Y1195549D02*
X1044250D01*
X1023281Y1195099D02*
X1044250D01*
X1023281Y1194649D02*
X1044250D01*
X1023281Y1194199D02*
X1044250D01*
X1023281Y1193749D02*
X1044250D01*
X1023281Y1211299D02*
X1044250D01*
X1023355Y1193299D02*
X1044145D01*
X1023281Y1211749D02*
X1043898D01*
X1023805Y1192849D02*
X1043695D01*
X1023281Y1212199D02*
X1043448D01*
X1024255Y1192399D02*
X1043245D01*
X1023281Y1212649D02*
X1042998D01*
X1024705Y1191949D02*
X1042795D01*
X1023281Y1213099D02*
X1042548D01*
X1025155Y1191499D02*
X1042345D01*
X1023281Y1213549D02*
X1042098D01*
X1023281Y1213999D02*
X1041648D01*
X1023281Y1214449D02*
X1041198D01*
X1023281Y1214899D02*
X1040748D01*
X1023281Y1215349D02*
X1040298D01*
X1023281Y1215799D02*
X1039848D01*
X1023281Y1216249D02*
X1039398D01*
X1023281Y1216699D02*
X1038948D01*
X1023281Y1217149D02*
X1038498D01*
X1023281Y1217599D02*
X1038048D01*
X1023281Y1218049D02*
X1037598D01*
X1023281Y1218499D02*
X1037148D01*
X1023281Y1218949D02*
X1036698D01*
X1023281Y1219399D02*
X1036248D01*
X1023281Y1219849D02*
X1035798D01*
X1026546Y1239649D02*
X1035500D01*
X1026071Y1239199D02*
X1035500D01*
X1025490Y1238749D02*
X1035500D01*
X1024747Y1238299D02*
X1035500D01*
X1023682Y1237849D02*
X1035500D01*
X1023250Y1237399D02*
X1035500D01*
X1023250Y1236949D02*
X1035500D01*
X1023281Y1236499D02*
X1035500D01*
X1023281Y1236049D02*
X1035500D01*
X1023281Y1235599D02*
X1035500D01*
X1023281Y1235149D02*
X1035500D01*
X1023281Y1234699D02*
X1035500D01*
X1023281Y1234249D02*
X1035500D01*
X1023281Y1233799D02*
X1035500D01*
X1023281Y1233349D02*
X1035500D01*
X1023281Y1232899D02*
X1035500D01*
X1023281Y1232449D02*
X1035500D01*
X1023281Y1231999D02*
X1035500D01*
X1023281Y1231549D02*
X1035500D01*
X1023281Y1231099D02*
X1035500D01*
X1023281Y1230649D02*
X1035500D01*
X1023281Y1230199D02*
X1035500D01*
X1023281Y1229749D02*
X1035500D01*
X1023281Y1229299D02*
X1035500D01*
X1023281Y1228849D02*
X1035500D01*
X1023281Y1228399D02*
X1035500D01*
X1023281Y1227949D02*
X1035500D01*
X1023281Y1227499D02*
X1035500D01*
X1023281Y1227049D02*
X1035500D01*
X1023281Y1226599D02*
X1035500D01*
X1023281Y1226149D02*
X1035500D01*
X1023281Y1225699D02*
X1035500D01*
X1023281Y1225249D02*
X1035500D01*
X1023281Y1224799D02*
X1035500D01*
X1023281Y1224349D02*
X1035500D01*
X1023281Y1223899D02*
X1035500D01*
X1023281Y1223449D02*
X1035500D01*
X1023281Y1222999D02*
X1035500D01*
X1023281Y1222549D02*
X1035500D01*
X1023281Y1222099D02*
X1035500D01*
X1023281Y1221649D02*
X1035500D01*
X1023281Y1221199D02*
X1035500D01*
X1023281Y1220749D02*
X1035500D01*
X1023281Y1220299D02*
X1035500D01*
X1026943Y1240099D02*
X1035494D01*
X1027278Y1240549D02*
X1035098D01*
X1138125Y1076349D02*
X1151250D01*
X1138125Y1075899D02*
X1151250D01*
X1138125Y1075449D02*
X1151250D01*
X1138125Y1074999D02*
X1151250D01*
X1138125Y1074549D02*
X1151250D01*
X1138125Y1074099D02*
X1151250D01*
X1138125Y1073649D02*
X1151250D01*
X1138125Y1073199D02*
X1151250D01*
X1138125Y1072749D02*
X1151250D01*
X1138125Y1072299D02*
X1151250D01*
X1138125Y1071849D02*
X1151250D01*
X1138125Y1071399D02*
X1151250D01*
X1138125Y1070949D02*
X1151250D01*
X1138125Y1070499D02*
X1151250D01*
X1138125Y1070049D02*
X1151250D01*
X1138125Y1069599D02*
X1151250D01*
X1138125Y1069149D02*
X1151250D01*
X1138125Y1068699D02*
X1151250D01*
X1138125Y1068249D02*
X1151250D01*
X1138125Y1067799D02*
X1151250D01*
X1138125Y1067349D02*
X1151250D01*
X1138125Y1066899D02*
X1151250D01*
X1138125Y1066449D02*
X1151250D01*
X1138125Y1065999D02*
X1151250D01*
X1138125Y1065549D02*
X1151250D01*
X1138125Y1065099D02*
X1151250D01*
X1138125Y1064649D02*
X1151250D01*
X1138125Y1064199D02*
X1151250D01*
X1138125Y1063749D02*
X1151250D01*
X1138125Y1063299D02*
X1151250D01*
X1138125Y1062849D02*
X1151250D01*
X1138125Y1062399D02*
X1151250D01*
X1138125Y1061949D02*
X1151250D01*
X1138125Y1061499D02*
X1151250D01*
X1138125Y1061049D02*
X1151250D01*
X1138125Y1060599D02*
X1151250D01*
X1138125Y1060149D02*
X1151250D01*
X1138125Y1059699D02*
X1151250D01*
X1138125Y1059249D02*
X1151250D01*
X1138125Y1058799D02*
X1151250D01*
X1138125Y1058349D02*
X1151250D01*
X1138125Y1057899D02*
X1151250D01*
X1138125Y1057449D02*
X1151250D01*
X1138125Y1056999D02*
X1151250D01*
X1138125Y1056549D02*
X1151250D01*
X1138125Y1056099D02*
X1151250D01*
X1138125Y1055649D02*
X1151250D01*
X1138125Y1055199D02*
X1151250D01*
X1138125Y1054749D02*
X1151250D01*
X1138125Y1054299D02*
X1151250D01*
X1138125Y1053849D02*
X1151250D01*
X1138125Y1053399D02*
X1151250D01*
X1138125Y1052949D02*
X1151250D01*
X1138125Y1052499D02*
X1151250D01*
X1138125Y1076799D02*
X1151250D01*
X1138125Y1052049D02*
X1151193D01*
X1138125Y1077249D02*
X1150898D01*
X1138125Y1051599D02*
X1150745D01*
X1138125Y1077699D02*
X1150448D01*
X1138125Y1051149D02*
X1150295D01*
X1138252Y1078149D02*
X1149998D01*
X1138125Y1050699D02*
X1149845D01*
X1040150Y1086149D02*
X1053350D01*
X1040150Y1085699D02*
X1053350D01*
X1040150Y1085249D02*
X1053350D01*
X1040150Y1084799D02*
X1053350D01*
X1040150Y1084349D02*
X1053350D01*
X1040150Y1083899D02*
X1053350D01*
X1040150Y1083449D02*
X1053350D01*
X1040150Y1082999D02*
X1053350D01*
X1040150Y1082549D02*
X1053350D01*
X1040150Y1082099D02*
X1053350D01*
X1040150Y1081649D02*
X1053350D01*
X1040150Y1081199D02*
X1053350D01*
X1040150Y1080749D02*
X1053350D01*
X1040150Y1080299D02*
X1053350D01*
X1040150Y1079849D02*
X1053350D01*
X1040150Y1079399D02*
X1053350D01*
X1040150Y1078949D02*
X1053350D01*
X1040150Y1078499D02*
X1053350D01*
X1040150Y1078049D02*
X1053350D01*
X1040150Y1077599D02*
X1053350D01*
X1040150Y1077149D02*
X1053350D01*
X1040150Y1076699D02*
X1053350D01*
X1040150Y1076249D02*
X1053350D01*
X1040150Y1075799D02*
X1053350D01*
X1040150Y1075349D02*
X1053350D01*
X1040150Y1074899D02*
X1053350D01*
X1040150Y1074449D02*
X1053350D01*
X1040150Y1073999D02*
X1053350D01*
X1040150Y1073549D02*
X1053350D01*
X1040157Y1073099D02*
X1053350D01*
X1040555Y1072649D02*
X1053350D01*
X1040150Y1086599D02*
X1053337D01*
X1041005Y1072199D02*
X1053195D01*
X1160250Y1401899D02*
X1183250D01*
X1160250Y1401449D02*
X1183250D01*
X1160250Y1400999D02*
X1183250D01*
X1160250Y1400549D02*
X1183250D01*
X1160472Y1400099D02*
X1183250D01*
X1160713Y1399649D02*
X1183250D01*
X1160850Y1399199D02*
X1183250D01*
X1160900Y1398749D02*
X1183250D01*
X1160868Y1398299D02*
X1183250D01*
X1160751Y1397849D02*
X1183250D01*
X1160535Y1397399D02*
X1183250D01*
X1160251Y1396949D02*
X1183250D01*
X1160250Y1396499D02*
X1183250D01*
X1160250Y1396049D02*
X1183250D01*
X1160250Y1395599D02*
X1183250D01*
X1160250Y1395149D02*
X1183250D01*
X1160250Y1394699D02*
X1183250D01*
X1160250Y1394249D02*
X1183250D01*
X1160250Y1393799D02*
X1183250D01*
X1160250Y1393349D02*
X1183250D01*
X1160250Y1392899D02*
X1183250D01*
X1160250Y1392449D02*
X1183250D01*
X1160250Y1391999D02*
X1183250D01*
X1160250Y1391549D02*
X1183250D01*
X1160250Y1391099D02*
X1183250D01*
X1160250Y1390649D02*
X1183250D01*
X1160250Y1390199D02*
X1183250D01*
X1160250Y1389749D02*
X1183250D01*
X1160555Y1389299D02*
X1183250D01*
X1160256Y1402349D02*
X1183098D01*
X1161005Y1388849D02*
X1182995D01*
X1160652Y1402799D02*
X1182648D01*
X1161455Y1388399D02*
X1182545D01*
X1161549Y1403249D02*
X1182198D01*
X1161905Y1387949D02*
X1182095D01*
X1080750Y1400049D02*
X1107750D01*
X1080750Y1399599D02*
X1107750D01*
X1080750Y1399149D02*
X1107750D01*
X1080750Y1398699D02*
X1107750D01*
X1080750Y1398249D02*
X1107750D01*
X1080750Y1397799D02*
X1107750D01*
X1080750Y1397349D02*
X1107750D01*
X1080750Y1396899D02*
X1107750D01*
X1080750Y1396449D02*
X1107750D01*
X1080750Y1395999D02*
X1107750D01*
X1080750Y1395549D02*
X1107750D01*
X1080750Y1395099D02*
X1107750D01*
X1080750Y1394649D02*
X1107750D01*
X1080750Y1394199D02*
X1107750D01*
X1080750Y1393749D02*
X1107750D01*
X1080750Y1393299D02*
X1107750D01*
X1080750Y1392849D02*
X1107750D01*
X1080750Y1392399D02*
X1107750D01*
X1080750Y1391949D02*
X1107750D01*
X1080750Y1391499D02*
X1107750D01*
X1080750Y1391049D02*
X1107750D01*
X1080750Y1390599D02*
X1107750D01*
X1080750Y1390149D02*
X1107750D01*
X1080750Y1389699D02*
X1107750D01*
X1080750Y1389249D02*
X1107750D01*
X1081055Y1388799D02*
X1107750D01*
X1081505Y1388349D02*
X1107750D01*
X1081955Y1387899D02*
X1107750D01*
X1082405Y1387449D02*
X1107750D01*
X1082855Y1386999D02*
X1107750D01*
X1083305Y1386549D02*
X1107750D01*
X1083755Y1386099D02*
X1107750D01*
X1084205Y1385649D02*
X1107750D01*
X1084655Y1385199D02*
X1107750D01*
X1085105Y1384749D02*
X1107750D01*
X1085555Y1384299D02*
X1107750D01*
X1086005Y1383849D02*
X1107750D01*
X1086455Y1383399D02*
X1107750D01*
X1086905Y1382949D02*
X1107750D01*
X1087355Y1382499D02*
X1107750D01*
X1080750Y1400499D02*
X1107727D01*
X1087805Y1382049D02*
X1107693D01*
X1080902Y1400949D02*
X1107298D01*
X1088255Y1381599D02*
X1107245D01*
X1081352Y1401399D02*
X1106848D01*
X1088705Y1381149D02*
X1106795D01*
X1103391Y1401849D02*
X1106398D01*
X1089155Y1380699D02*
X1106345D01*
X1104398Y1402299D02*
X1105948D01*
X1081802Y1401849D02*
X1102409D01*
X1082252Y1402299D02*
X1101402D01*
X1145197Y1025649D02*
X1151375D01*
X1146101Y1025199D02*
X1151375D01*
X1146093Y1018449D02*
X1151375D01*
X1122474Y1026099D02*
X1151298D01*
X1145181Y1017999D02*
X1151145D01*
X1146656Y1018899D02*
X1151060D01*
X1146662Y1024749D02*
X1151054D01*
X1122024Y1026549D02*
X1150848D01*
X1126805Y1017549D02*
X1150695D01*
X1147062Y1019349D02*
X1150654D01*
X1147066Y1024299D02*
X1150650D01*
X1121574Y1026999D02*
X1150398D01*
X1147364Y1019799D02*
X1150352D01*
X1147367Y1023849D02*
X1150349D01*
X1127255Y1017099D02*
X1150245D01*
X1147588Y1020249D02*
X1150128D01*
X1147590Y1023399D02*
X1150126D01*
X1147748Y1020699D02*
X1149968D01*
X1147749Y1022949D02*
X1149967D01*
X1121124Y1027449D02*
X1149948D01*
X1147851Y1021149D02*
X1149865D01*
X1147852Y1022499D02*
X1149864D01*
X1147902Y1021599D02*
X1149814D01*
X1147902Y1022049D02*
X1149814D01*
X1127705Y1016649D02*
X1149795D01*
X1120674Y1027899D02*
X1149498D01*
X1145715Y1016199D02*
X1149345D01*
X1120224Y1028349D02*
X1149048D01*
X1119774Y1028799D02*
X1148598D01*
X1119324Y1029249D02*
X1148148D01*
X1118874Y1029699D02*
X1147698D01*
X1118424Y1030149D02*
X1147248D01*
X1117974Y1030599D02*
X1146798D01*
X1117524Y1031049D02*
X1146348D01*
X1117074Y1031499D02*
X1145898D01*
X1116624Y1031949D02*
X1145448D01*
X1116174Y1032399D02*
X1144998D01*
X1115724Y1032849D02*
X1144548D01*
X1115274Y1033299D02*
X1144098D01*
X1114824Y1033749D02*
X1143648D01*
X1114374Y1034199D02*
X1143198D01*
X1113924Y1034649D02*
X1142748D01*
X1135181Y1017999D02*
X1142535D01*
X1135197Y1025649D02*
X1142519D01*
X1113474Y1035099D02*
X1142298D01*
X1135715Y1016199D02*
X1142001D01*
X1113024Y1035549D02*
X1141848D01*
X1136093Y1018449D02*
X1141623D01*
X1136101Y1025199D02*
X1141615D01*
X1112574Y1035999D02*
X1141398D01*
X1136656Y1018899D02*
X1141060D01*
X1136662Y1024749D02*
X1141054D01*
X1112124Y1036449D02*
X1140948D01*
X1137062Y1019349D02*
X1140654D01*
X1137066Y1024299D02*
X1140650D01*
X1111674Y1036899D02*
X1140498D01*
X1137364Y1019799D02*
X1140352D01*
X1137367Y1023849D02*
X1140349D01*
X1137588Y1020249D02*
X1140128D01*
X1137590Y1023399D02*
X1140126D01*
X1111224Y1037349D02*
X1140048D01*
X1137748Y1020699D02*
X1139968D01*
X1137749Y1022949D02*
X1139967D01*
X1137851Y1021149D02*
X1139865D01*
X1137852Y1022499D02*
X1139864D01*
X1137902Y1021599D02*
X1139814D01*
X1137902Y1022049D02*
X1139814D01*
X1110774Y1037799D02*
X1139598D01*
X1110324Y1038249D02*
X1139148D01*
X1109874Y1038699D02*
X1138698D01*
X1109424Y1039149D02*
X1138248D01*
X1108974Y1039599D02*
X1137798D01*
X1108859Y1040049D02*
X1137348D01*
X1108859Y1040499D02*
X1136898D01*
X1108859Y1040949D02*
X1136448D01*
X1108859Y1041399D02*
X1135998D01*
X1108859Y1041849D02*
X1135548D01*
X1108859Y1042299D02*
X1135098D01*
X1108859Y1042749D02*
X1134648D01*
X1108859Y1043199D02*
X1134198D01*
X1108859Y1043649D02*
X1133748D01*
X1108859Y1044099D02*
X1133298D01*
X1108859Y1044549D02*
X1132848D01*
X1126355Y1017999D02*
X1132535D01*
X1125197Y1025649D02*
X1132519D01*
X1108859Y1044999D02*
X1132398D01*
X1128155Y1016199D02*
X1132001D01*
X1108859Y1045449D02*
X1131948D01*
X1126147Y1018449D02*
X1131623D01*
X1126101Y1025199D02*
X1131615D01*
X1108859Y1045899D02*
X1131498D01*
X1126656Y1018899D02*
X1131060D01*
X1126662Y1024749D02*
X1131054D01*
X1108859Y1046349D02*
X1131048D01*
X1127062Y1019349D02*
X1130654D01*
X1127066Y1024299D02*
X1130650D01*
X1108859Y1046799D02*
X1130598D01*
X1127364Y1019799D02*
X1130352D01*
X1127367Y1023849D02*
X1130349D01*
X1108859Y1047249D02*
X1130148D01*
X1127588Y1020249D02*
X1130128D01*
X1127590Y1023399D02*
X1130126D01*
X1127748Y1020699D02*
X1129968D01*
X1127749Y1022949D02*
X1129967D01*
X1127851Y1021149D02*
X1129865D01*
X1127852Y1022499D02*
X1129864D01*
X1127902Y1021599D02*
X1129814D01*
X1127902Y1022049D02*
X1129814D01*
X1108859Y1047699D02*
X1129698D01*
X1108859Y1048149D02*
X1129248D01*
X1108859Y1048599D02*
X1128798D01*
X1108859Y1049049D02*
X1128348D01*
X1108859Y1049499D02*
X1127898D01*
X1108859Y1049949D02*
X1127448D01*
X1104305Y1069749D02*
X1127000D01*
X1104305Y1069299D02*
X1127000D01*
X1104305Y1068849D02*
X1127000D01*
X1104305Y1068399D02*
X1127000D01*
X1104305Y1067949D02*
X1127000D01*
X1104305Y1067499D02*
X1127000D01*
X1104305Y1067049D02*
X1127000D01*
X1104305Y1066599D02*
X1127000D01*
X1104305Y1066149D02*
X1127000D01*
X1104305Y1065699D02*
X1127000D01*
X1104305Y1065249D02*
X1127000D01*
X1104305Y1064799D02*
X1127000D01*
X1104305Y1064349D02*
X1127000D01*
X1104305Y1063899D02*
X1127000D01*
X1104305Y1063449D02*
X1127000D01*
X1104305Y1062999D02*
X1127000D01*
X1104305Y1062549D02*
X1127000D01*
X1104305Y1062099D02*
X1127000D01*
X1104305Y1061649D02*
X1127000D01*
X1104305Y1061199D02*
X1127000D01*
X1104305Y1060749D02*
X1127000D01*
X1104664Y1060299D02*
X1127000D01*
X1105114Y1059849D02*
X1127000D01*
X1105564Y1059399D02*
X1127000D01*
X1106014Y1058949D02*
X1127000D01*
X1106464Y1058499D02*
X1127000D01*
X1106914Y1058049D02*
X1127000D01*
X1107364Y1057599D02*
X1127000D01*
X1107814Y1057149D02*
X1127000D01*
X1108264Y1056699D02*
X1127000D01*
X1108714Y1056249D02*
X1127000D01*
X1108859Y1055799D02*
X1127000D01*
X1108859Y1055349D02*
X1127000D01*
X1108859Y1054899D02*
X1127000D01*
X1108859Y1054449D02*
X1127000D01*
X1108859Y1053999D02*
X1127000D01*
X1108859Y1053549D02*
X1127000D01*
X1108859Y1053099D02*
X1127000D01*
X1108859Y1052649D02*
X1127000D01*
X1108859Y1052199D02*
X1127000D01*
X1108859Y1051749D02*
X1127000D01*
X1108859Y1051299D02*
X1127000D01*
X1108859Y1050849D02*
X1127000D01*
X1108859Y1050399D02*
X1127000D01*
X1104305Y1070199D02*
X1126946D01*
X1104305Y1070649D02*
X1126498D01*
X1104305Y1071099D02*
X1126048D01*
X1104305Y1071549D02*
X1125598D01*
X1104305Y1071999D02*
X1125148D01*
X1104305Y1072449D02*
X1124698D01*
X1104305Y1072899D02*
X1124248D01*
X1104311Y1073349D02*
X1123798D01*
G54D89*
X1096161Y1051969D02*
X1101969D01*
X1104000Y1054000*
X1101000Y1060500D02*
X1104000Y1057500D01*
Y1054000*
X1101000Y1060500D02*
Y1071500D01*
X1102000Y1072500*
X1107667*
X1108000*
X1038200Y1322700D02*
Y1326300D01*
X1038860Y1326960*
X1042900*
X1064000Y1369000D02*
X1067000Y1366000D01*
X1072500*
X1078000Y1360500*
Y1355500*
X1064000Y1369000D02*
Y1384269D01*
X1065232Y1385501*
X1070686*
X1073161Y1354674D02*
X1077174D01*
X1078000Y1355500*
X1197833Y1352500D02*
X1204100D01*
X1205600Y1354000*
Y1364200*
X1193900Y1375700D02*
X1195300Y1377100D01*
X1199770*
X1199839Y1377031*
X1193900Y1375700D02*
Y1368300D01*
X1195300Y1366900*
X1202900*
X1205600Y1364200*
G54D91*
X1146722Y1024690D02*
X1145979Y1023948D01*
X1140994Y1024690D02*
X1141737Y1023948D01*
X1140994Y1018963D02*
X1141737Y1019705D01*
X1146722Y1018963D02*
X1145979Y1019705D01*
X1136722Y1024690D02*
X1135979Y1023948D01*
X1130994Y1024690D02*
X1131737Y1023948D01*
X1130994Y1018963D02*
X1131737Y1019705D01*
X1136722Y1018963D02*
X1135979Y1019705D01*
G54D92*
X1052500Y1046000D02*
Y1051260D01*
X1028100Y1050500D02*
X1032600Y1055000D01*
Y1065800*
X1061654Y1044000D02*
Y1047169D01*
X1062485Y1048000*
X1067500*
X1068000Y1048500*
Y1052500*
X1068346*
X1052500Y1051260D02*
X1057047D01*
X1058287Y1052500*
X1061654*
X1090500Y1044000D02*
X1092563Y1046063D01*
X1096161*
X1090500Y1044000D02*
Y1040189D01*
X1093189Y1037500*
X1068346Y1052500D02*
X1070846Y1050000D01*
X1078839*
X1068346Y1044000D02*
X1072378Y1048031D01*
X1078839*
X1067832Y1037500D02*
X1068089D01*
Y1044000*
X1068346*
X1086613Y1037500D02*
Y1043613D01*
X1091131Y1048131*
X1096161*
Y1048031*
X1249200Y1050500D02*
X1255600D01*
X1263136Y1058036*
Y1087700*
X1007800Y1088999D02*
X1009941Y1091140D01*
Y1092116*
X1007800Y1088999D02*
Y1060800D01*
X1018100Y1050500*
X1017510Y1087790D02*
X1014949Y1085228D01*
Y1084134*
X1015059*
X1017400Y1087900D02*
X1017510Y1087790D01*
X1020500Y1084100D02*
X1023691D01*
Y1084134*
X1009941Y1092116D02*
Y1094741D01*
X1010800Y1095600*
X1014259*
X1015059Y1094800*
Y1092116*
Y1075866D02*
Y1070568D01*
X1018100Y1067527*
Y1060500*
X1009941Y1075866D02*
Y1078541D01*
X1010700Y1079300*
X1014597*
X1015059Y1078838*
Y1075866*
X1009941Y1084134D02*
Y1088000D01*
X1010200*
X1038100Y1065200D02*
X1038700Y1065300D01*
X1043700*
Y1065346*
X1025800Y1088200D02*
X1025979Y1088379D01*
X1029024Y1085333*
X1028809Y1092116D02*
Y1088391D01*
X1030900Y1086300*
Y1067500*
X1032600Y1065800*
X1023691Y1092116D02*
Y1095088D01*
X1024203Y1095600*
X1028297*
X1028809Y1095088*
Y1092116*
X1023691Y1075866D02*
Y1070000D01*
X1028100Y1065591*
Y1060500*
X1023691Y1075866D02*
Y1078391D01*
X1024100Y1078800*
X1028300*
X1028809Y1078291*
Y1075866*
Y1084134D02*
X1029024D01*
Y1085333*
X1043700Y1058654D02*
X1047313D01*
X1047400Y1058740*
X1052500*
X1120567Y1063000D02*
X1120600Y1062967D01*
X1253800Y1084960D02*
X1255740Y1086900D01*
X1262336*
X1263136Y1087700*
X1233200Y1090100D02*
X1235334D01*
X1236300Y1089134*
X1241191*
X1233200Y1086700D02*
X1237600D01*
X1238300Y1086000*
X1245836*
X1246536Y1086700*
X1241191Y1080866D02*
Y1083700D01*
X1241691Y1084200*
X1245947*
X1246309Y1083838*
Y1080866*
Y1089134D02*
X1246536D01*
Y1086700*
X1261309Y1082116D02*
Y1082600D01*
X1261400Y1082691*
Y1084400*
X1256191Y1082116D02*
Y1084491D01*
X1256700Y1085000*
X1260800*
X1261400Y1084400*
X1261309Y1090384D02*
X1261536D01*
Y1092764*
X1239200Y1060500D02*
Y1069300D01*
X1246309Y1076409*
Y1080866*
X1249200Y1060500D02*
Y1067400D01*
X1256191Y1074391*
Y1082116*
X1009900Y1104600D02*
X1009941D01*
Y1100384*
X1020900Y1095300D02*
Y1099584D01*
X1021700Y1100384*
X1023691*
X1015059D02*
Y1104400D01*
X1015200*
X1028809Y1100384D02*
Y1099300D01*
X1029809Y1098300*
X1031700*
X1087700Y1125500D02*
X1089559D01*
X1090059Y1126000*
Y1129134*
X1097500Y1117000D02*
X1101665D01*
X1102559Y1117894*
Y1120866*
X1072500Y1117000D02*
X1076665D01*
X1077559Y1117894*
Y1120866*
X1085000Y1117000D02*
X1089165D01*
X1090059Y1117894*
Y1120866*
X1084941Y1129134D02*
Y1133400D01*
X1085000*
X1084941Y1120866D02*
Y1117000D01*
X1085000*
X1072441Y1129134D02*
X1072497D01*
Y1132803*
X1077559Y1129134D02*
Y1133059D01*
X1078500Y1134000*
X1072441Y1120866D02*
Y1117000D01*
X1072500*
X1097441Y1120866D02*
Y1117000D01*
X1097500*
X1140057Y1126339D02*
X1140696Y1125700D01*
X1142500*
X1140057Y1126339D02*
Y1129134D01*
X1140059*
X1122300Y1125000D02*
X1122441D01*
Y1129134*
X1110000Y1117000D02*
X1114165D01*
X1115059Y1117894*
Y1120866*
X1135000Y1117000D02*
X1139165D01*
X1140059Y1117894*
Y1120866*
X1122500Y1117000D02*
X1126665D01*
X1127559Y1117894*
Y1120866*
X1134941Y1129134D02*
Y1133100D01*
X1135000*
Y1133000*
X1134941Y1120866D02*
Y1117000D01*
X1135000*
X1127559Y1129134D02*
Y1129100D01*
X1130700*
X1132100Y1129000*
X1122441Y1120866D02*
Y1117000D01*
X1122500*
X1115059Y1129134D02*
Y1131959D01*
X1116200Y1133100*
X1116500Y1132800*
X1109941Y1120866D02*
Y1117000D01*
X1110000*
X1173800Y1134300D02*
X1172103Y1132603D01*
Y1129134*
X1172441*
X1172500Y1117000D02*
X1176665D01*
X1177559Y1117894*
Y1120866*
X1147500Y1117000D02*
X1151665D01*
X1152559Y1117894*
Y1120866*
X1160000Y1117000D02*
X1164165D01*
X1165059Y1117894*
Y1120866*
X1177559Y1129134D02*
Y1129100D01*
X1181000*
X1172441Y1120866D02*
Y1117000D01*
X1172500*
X1147441Y1120866D02*
Y1117000D01*
X1147500*
X1159941Y1120866D02*
Y1117000D01*
X1160000*
X1220000Y1127500D02*
Y1127505D01*
X1234403*
X1220000Y1118500D02*
X1234216D01*
X1234403Y1118313*
X1185000Y1117000D02*
X1189165D01*
X1190059Y1117894*
Y1120866*
Y1129134D02*
Y1132159D01*
X1194500Y1136600*
Y1151500*
X1184941Y1120866D02*
Y1117000D01*
X1185000*
X1229000Y1094966D02*
X1232400Y1098366D01*
X1241191*
X1229000Y1094966D02*
Y1060700D01*
X1239200Y1050500*
X1235500Y1109700D02*
X1235100D01*
Y1109800*
X1247461*
X1250627Y1106634*
X1256191*
X1236000Y1095900D02*
X1239000D01*
X1239800Y1095100*
X1259200*
X1261536Y1092764*
X1226600Y1109800D02*
X1229766Y1106634D01*
X1241191*
X1224600Y1103000D02*
X1245647D01*
X1246309Y1103662*
Y1106634*
X1238000Y1113600D02*
X1255781D01*
X1261536Y1107845*
X1233000Y1093300D02*
X1233080Y1093060D01*
X1233200Y1093100*
X1248900*
X1251616Y1090384*
X1256191*
X1241191Y1098366D02*
Y1100591D01*
X1241900Y1101300*
X1245800*
X1246309Y1100791*
Y1098366*
X1261309D02*
Y1096800D01*
X1263136Y1094973*
Y1087700*
X1256191Y1098366D02*
Y1101391D01*
X1256800Y1102000*
X1260647*
X1261309Y1101338*
Y1098366*
Y1106634D02*
X1261536D01*
Y1107845*
X1090000Y1147200D02*
Y1147700D01*
X1090059*
Y1151634*
X1084300Y1155600D02*
X1084941Y1155500D01*
Y1151634*
X1101800Y1133400D02*
X1102559Y1132641D01*
Y1129134*
X1094100Y1132700D02*
X1096542D01*
X1097441Y1131801*
Y1129134*
X1070800Y1134500D02*
X1072497Y1132803D01*
X1097500Y1139500D02*
X1101665D01*
X1102559Y1140394*
Y1143366*
X1072500Y1139500D02*
X1076665D01*
X1077559Y1140394*
Y1143366*
X1085000Y1139500D02*
X1089165D01*
X1090059Y1140394*
Y1143366*
X1076500Y1147700D02*
X1077100Y1148300D01*
Y1151175*
X1077559Y1151634*
X1072441D02*
Y1154598D01*
X1073343Y1155500*
X1075800*
X1072441Y1143366D02*
Y1139500D01*
X1072500*
X1084941Y1143366D02*
Y1139500D01*
X1085000*
X1097441Y1151634D02*
Y1154800D01*
X1099341Y1156700*
X1102900*
X1102559Y1151634D02*
X1103827D01*
X1104200Y1151261*
X1105800*
Y1151000*
X1097441Y1143366D02*
Y1139500D01*
X1097500*
X1109900Y1133000D02*
X1109941Y1133500D01*
Y1129134*
X1110100Y1158200D02*
X1119300D01*
X1122441Y1155059*
Y1151634*
X1108900Y1147200D02*
X1109941Y1148241D01*
Y1151634*
X1131000Y1149800D02*
X1132834Y1151634D01*
X1134941*
X1110000Y1139200D02*
X1114100D01*
X1115320Y1140420*
X1122100Y1139200D02*
Y1139400D01*
X1122441*
Y1143366*
X1122100Y1139200D02*
X1126405D01*
X1127805Y1140600*
X1135000Y1139500D02*
X1139165D01*
X1140059Y1140394*
Y1143366*
X1105800Y1151000D02*
X1106200D01*
X1106300Y1150900*
X1127500Y1161600D02*
X1127559Y1161541D01*
Y1151634*
Y1143366D02*
X1127805D01*
Y1140600*
X1140059Y1151634D02*
X1140446D01*
Y1156600*
X1142146Y1158300*
X1148400*
X1134941Y1143366D02*
Y1139500D01*
X1135000*
X1115059Y1151634D02*
Y1152600D01*
X1115659Y1153200*
X1118200*
X1115059Y1143366D02*
X1115320D01*
Y1140420*
X1109941Y1143366D02*
Y1139200D01*
X1110000*
X1146700Y1135600D02*
X1146600Y1135500D01*
Y1132800*
X1147441Y1131959*
Y1129134*
X1172400Y1156600D02*
X1172441D01*
Y1151634*
X1144500Y1148800D02*
Y1148662D01*
X1146003*
X1147441Y1150100*
Y1151634*
X1165000Y1133500D02*
X1165059D01*
Y1129134*
X1156300Y1133600D02*
X1158700D01*
X1159941Y1132359*
Y1129134*
X1156400Y1151600D02*
X1159941D01*
Y1151634*
X1149900Y1139400D02*
Y1139500D01*
X1151665*
X1152559Y1140394*
Y1143366*
X1159900Y1139500D02*
X1164165D01*
X1165059Y1140394*
Y1143366*
X1159900Y1139500D02*
X1159941Y1139459D01*
Y1143366*
X1172500Y1139500D02*
X1176665D01*
X1177559Y1140394*
Y1143366*
X1151500Y1133200D02*
X1152559Y1132141D01*
Y1129134*
X1159700Y1155700D02*
Y1155800D01*
X1163600*
X1165059Y1154341*
Y1151634*
X1152559D02*
Y1156000D01*
X1154859Y1158300*
X1160900*
X1161300Y1157900*
X1166900*
X1147441Y1143366D02*
Y1139859D01*
X1147900Y1139400*
X1149900*
X1177559Y1151634D02*
Y1156600D01*
X1177600*
X1172441Y1143366D02*
Y1139500D01*
X1172500*
X1190000Y1156300D02*
X1190059D01*
Y1151634*
X1184800Y1156000D02*
X1184941D01*
Y1151634*
X1184900Y1133000D02*
X1184941D01*
Y1129134*
X1185000Y1139500D02*
X1189165D01*
X1190059Y1140394*
Y1143366*
X1217700Y1155100D02*
X1220000Y1155000D01*
X1234322*
X1234322D02*
X1234403Y1155081D01*
X1220000Y1145000D02*
X1234219D01*
Y1144970*
X1220000Y1136000D02*
X1220146Y1136146D01*
X1234586*
X1184941Y1143366D02*
Y1139500D01*
X1185000*
X1189075Y1224079D02*
X1192200Y1227204D01*
Y1324200*
X1212400Y1344400*
X1232700*
X1234000Y1345700*
Y1363700*
X1245059Y1374759*
Y1377116*
X1189075Y1218567D02*
X1193800Y1223292D01*
Y1323500*
X1213000Y1342700*
X1239200*
X1246309Y1349809*
Y1358366*
X1060500Y1330654D02*
X1063669D01*
X1064500Y1331485*
Y1336500*
X1065346Y1337346*
X1068000*
X1102596Y1325600D02*
X1103600D01*
X1091794D02*
X1092000D01*
X1068000Y1330654D02*
Y1327800D01*
X1069200Y1326600*
X1070800*
X1127659Y1325600D02*
X1128200D01*
X1114600D02*
X1114841D01*
X1143300D02*
X1143400D01*
X1179059D02*
X1179400D01*
X1167000D02*
X1167241D01*
X1010976Y1358417D02*
X1020293Y1349100D01*
X1033200*
X1010976Y1358417D02*
Y1359616D01*
X1011191*
X1008100Y1368200D02*
X1008416Y1367884D01*
X1011191*
X1008100Y1368200D02*
Y1398100D01*
X1018100Y1408100*
X1022300Y1368700D02*
X1023116Y1367884D01*
X1024941*
X1022300Y1368700D02*
Y1391100D01*
X1023154Y1391954*
Y1403154*
X1028100Y1408100*
X1011191Y1367884D02*
Y1365200D01*
X1011991Y1364400*
X1015409*
X1016309Y1365300*
Y1367884*
Y1359616D02*
Y1355991D01*
X1020000Y1352300*
X1030400*
X1024941Y1367884D02*
Y1370400D01*
X1025741Y1371200*
X1029300*
X1030059Y1370441*
Y1367884*
Y1359616D02*
X1034800D01*
X1036600Y1357816*
Y1353100*
X1024941Y1359616D02*
Y1356100D01*
X1025641Y1355400*
X1033200*
X1054500Y1337346D02*
X1060500D01*
X1055839Y1350736D02*
X1059893D01*
X1060500Y1350129*
Y1337346*
X1055839Y1352705D02*
X1064295D01*
X1068000Y1349000*
Y1337346*
X1073161Y1350736D02*
X1081110D01*
X1082000Y1349846*
X1073161Y1348768D02*
Y1344839D01*
X1076000Y1342000*
Y1337150*
X1248800Y1370000D02*
X1248600Y1370200D01*
Y1375300*
X1250416Y1377116*
X1253691*
X1253800Y1372000D02*
Y1371900D01*
X1257400*
X1258809Y1373309*
Y1377116*
X1257500Y1353800D02*
X1257559D01*
Y1358366*
X1250200Y1351000D02*
X1252441Y1353241D01*
Y1358366*
X1236900Y1358000D02*
X1241191D01*
Y1358366*
X1235100Y1370900D02*
X1238400D01*
X1239941Y1372441*
Y1377116*
X1252441Y1366634D02*
Y1363662D01*
X1252903Y1363200*
X1257200*
X1257559Y1363559*
Y1366634*
Y1367618*
X1262196Y1372256*
Y1393900*
X1241191Y1366634D02*
Y1363662D01*
X1242153Y1362700*
X1245347*
X1246309Y1363662*
Y1366634*
Y1373300*
X1246900Y1373891*
Y1379700*
X1248300Y1381100*
Y1390126*
X1011191Y1386634D02*
Y1384109D01*
X1012000Y1383300*
X1015800*
X1016300Y1383800*
Y1386625*
X1016309Y1386634*
Y1390709*
X1018100Y1392500*
Y1398100*
X1016309Y1378366D02*
X1019500D01*
X1020300Y1377566*
Y1367220*
X1022717Y1364803*
X1032003*
X1033700Y1366500*
X1011191Y1378366D02*
Y1375109D01*
X1011600Y1374700*
X1016200*
X1018300Y1372600*
Y1365200*
X1020800Y1362700*
X1036500*
X1038400Y1364600*
X1024941Y1386634D02*
Y1383662D01*
X1025403Y1383200*
X1029400*
X1030000Y1383800*
Y1386575*
X1030059Y1386634*
Y1378366D02*
X1034834D01*
X1038900Y1374300*
X1024941Y1378366D02*
Y1375087D01*
X1025628Y1374400*
X1032500*
X1038100Y1368800*
X1028100Y1398100D02*
Y1392359D01*
X1030059Y1390400*
Y1386634*
X1068500Y1410900D02*
X1068559Y1410959D01*
Y1415366*
X1124900Y1411300D02*
Y1411100D01*
X1124941*
Y1415366*
X1128100Y1409200D02*
Y1409700D01*
X1130059Y1411659*
Y1415366*
X1137400Y1410900D02*
X1137441Y1410941D01*
Y1415366*
X1111000Y1411600D02*
X1112441Y1413041D01*
Y1415366*
X1123152Y1387043D02*
Y1396902D01*
X1123750Y1397500*
X1180000Y1411400D02*
X1180059D01*
Y1415366*
X1144900Y1387065D02*
Y1397500D01*
X1145000*
X1186000Y1411500D02*
X1187441Y1412941D01*
Y1415366*
X1208400Y1410100D02*
X1223800D01*
X1228000Y1405900*
Y1400140*
X1201500Y1393154D02*
Y1391000D01*
X1206300Y1386200*
Y1381700*
X1209000Y1379000*
X1217161*
X1201500Y1393154D02*
X1204500D01*
X1205015Y1393669*
Y1399000*
X1205861Y1399846*
X1208500*
X1201500D02*
Y1404000D01*
X1214500Y1393154D02*
X1208500D01*
Y1384100*
X1211631Y1380969*
X1217161*
X1192000Y1380654D02*
Y1380969D01*
X1199839*
X1195000Y1393850D02*
Y1390000D01*
X1199839Y1385161*
Y1382937*
X1253691Y1385384D02*
Y1382412D01*
X1254303Y1381800*
X1258100*
X1258809Y1382509*
Y1385384*
X1239941D02*
Y1382412D01*
X1240353Y1382000*
X1244600*
X1244800Y1382200*
X1244847*
X1245059Y1382412*
Y1385384*
X1249200Y1398100D02*
X1253691Y1393609D01*
Y1385384*
X1249200Y1408100D02*
X1262196Y1395104D01*
Y1393900*
X1239200Y1398100D02*
Y1392000D01*
X1239941Y1391259*
Y1385384*
X1239200Y1408100D02*
X1244200Y1403100D01*
Y1394226*
X1248300Y1390126*
X1085200Y1419200D02*
X1086941Y1417459D01*
Y1415366*
X1080059D02*
Y1411500D01*
X1080200*
X1074941Y1415366D02*
Y1411300D01*
X1075100*
X1074941Y1423634D02*
Y1421000D01*
X1075941Y1420000*
X1079000*
X1080059Y1421059*
Y1423634*
Y1426700*
X1081759Y1428400*
X1086084*
X1093858Y1436174*
X1063441Y1415366D02*
Y1410400D01*
X1063500*
X1063441Y1423634D02*
X1063500Y1423500D01*
Y1420866*
X1064500Y1419866*
X1067559*
X1068618Y1420925*
Y1423500*
X1068559Y1423634*
Y1424800*
X1074359Y1430600*
X1084800*
X1089000Y1434800*
Y1441316*
X1093858Y1446174*
X1099941Y1415366D02*
Y1410800D01*
X1100000*
X1099941Y1423634D02*
X1100000Y1423500D01*
Y1420866*
X1101000Y1419866*
X1104059*
X1105118Y1420925*
Y1423500*
X1092059Y1415366D02*
Y1411000D01*
X1092100*
X1086941Y1423634D02*
X1087000Y1423500D01*
Y1420866*
X1087466Y1420400*
X1091593*
X1092118Y1420925*
Y1423500*
X1092059Y1423634D02*
Y1424618D01*
X1103736Y1436296*
X1103858Y1436174*
X1092059Y1423634D02*
X1092118Y1423500D01*
X1142559Y1415366D02*
Y1410800D01*
X1142600*
X1137441Y1423634D02*
X1137500Y1424000D01*
Y1421366*
X1138500Y1420366*
X1141559*
X1142618Y1421425*
X1142559Y1423634D02*
X1142618Y1424000D01*
Y1421425*
X1105059Y1415366D02*
X1107334D01*
X1108700Y1414000*
X1105118Y1423500D02*
X1105059Y1423634D01*
Y1424500*
X1108500Y1427941*
Y1441532*
X1133858Y1446174D02*
X1138500Y1441532D01*
Y1432900*
X1142000Y1429400*
X1145341*
X1149941Y1424800*
Y1423634*
X1133858Y1436174D02*
Y1428383D01*
X1137441Y1424800*
Y1423634*
X1113858Y1446174D02*
X1119100Y1440932D01*
Y1430541*
X1124941Y1424700*
Y1423634*
X1103858Y1446174D02*
X1108500Y1441532D01*
X1117559Y1415366D02*
Y1412441D01*
X1118800Y1411200*
X1112441Y1423634D02*
Y1428581D01*
X1113858Y1429998*
Y1436174*
X1112441Y1423634D02*
X1112500Y1423500D01*
Y1420866*
X1113500Y1419866*
X1116559*
X1117618Y1420925*
Y1423500*
X1117559Y1423634D02*
X1117618Y1423500D01*
X1124941Y1423634D02*
X1125000Y1423500D01*
Y1420866*
X1126000Y1419866*
X1129059*
X1130118Y1420925*
Y1423500*
X1130059Y1423634D02*
X1130118Y1423500D01*
X1162441Y1423634D02*
X1162164D01*
Y1421500*
X1163064Y1420600*
X1166863*
X1167836Y1421573*
X1174941Y1415366D02*
Y1413200D01*
X1175800Y1412341*
Y1410700*
X1174941Y1423634D02*
Y1421000D01*
X1175941Y1420000*
X1179000*
X1180059Y1421059*
Y1423634*
X1167559Y1415366D02*
X1170234D01*
X1170700Y1414900*
Y1413300*
X1162441Y1415366D02*
Y1411600D01*
X1163100Y1410941*
Y1408900*
X1167559Y1423634D02*
X1167836D01*
Y1421573*
X1155059Y1415366D02*
Y1416700D01*
X1156259Y1417900*
X1157700*
X1149941Y1415366D02*
Y1410800D01*
X1150000*
X1149941Y1423634D02*
X1150000Y1423500D01*
Y1420866*
X1151000Y1419866*
X1154059*
X1155118Y1420925*
X1155059Y1423634D02*
X1155118Y1423500D01*
Y1420925*
X1153858Y1446174D02*
X1158732Y1441300D01*
X1185800*
X1188900Y1438200*
Y1432100*
X1192100Y1428900*
X1195659*
X1199941Y1424618*
Y1423634*
X1153858Y1436174D02*
X1157532Y1432500D01*
X1160000*
X1161500Y1431000*
X1181141*
X1187441Y1424700*
Y1423634*
X1143858Y1446174D02*
X1148600Y1441432D01*
Y1435775*
X1153875Y1430500*
X1159175*
X1161475Y1428200*
X1171359*
X1174941Y1424618*
Y1423634*
X1143858Y1436174D02*
X1151532Y1428500D01*
X1158559*
X1162441Y1424618*
Y1423634*
X1192559Y1415366D02*
Y1411400D01*
X1192600*
X1187441Y1423634D02*
Y1421000D01*
X1188441Y1420000*
X1191500*
X1192559Y1421059*
Y1423634*
X1205059Y1415366D02*
Y1411400D01*
X1205100*
X1199941Y1415366D02*
Y1411500D01*
X1200000*
X1199941Y1423634D02*
Y1421000D01*
X1200941Y1420000*
X1204000*
X1205059Y1421059*
Y1423634*
X1005000Y1156811D02*
X1012000D01*
Y1114811*
X1005000*
Y1156811*
Y1121811D02*
X1012000D01*
X1005000Y1128811D02*
X1012000D01*
X1005000Y1135811D02*
X1012000D01*
X1005000Y1142811D02*
X1012000D01*
X1005000Y1149811D02*
X1012000D01*
G54D100*
X1052500Y1058740D02*
Y1064500D01*
X1055393Y1067393*
X1058761*
X1095820Y1390677D02*
X1099500D01*
Y1397500*
G54D102*
X1110138Y1202425D03*
X1102264Y1202031D03*
X1094390Y1202425D03*
X1086516Y1202031D03*
X1078642Y1202425D03*
X1070768Y1202031D03*
X1062894Y1202425D03*
X1110138Y1207937D03*
X1102264Y1207543D03*
X1094390Y1207937D03*
X1086516Y1207543D03*
X1078642Y1207937D03*
X1070768Y1207543D03*
X1062894Y1207937D03*
X1055020Y1207543D03*
X1110138Y1213449D03*
Y1218960D03*
Y1224472D03*
Y1229984D03*
Y1235496D03*
Y1241008D03*
Y1246519D03*
X1102264Y1213055D03*
X1094390Y1213449D03*
X1086516Y1213055D03*
X1078642Y1213449D03*
X1070768Y1213055D03*
X1062894Y1213449D03*
X1055020Y1213055D03*
X1102264Y1218567D03*
X1094390Y1218960D03*
X1086516Y1218567D03*
X1078642Y1218960D03*
X1070768Y1218567D03*
X1062894Y1218960D03*
X1055020Y1218567D03*
X1102264Y1224079D03*
X1094390Y1224472D03*
X1086516Y1224079D03*
X1078642Y1224472D03*
X1070768Y1224079D03*
X1062894Y1224472D03*
X1055020Y1224079D03*
X1102264Y1229590D03*
X1094390Y1229984D03*
X1086516Y1229590D03*
X1078642Y1229984D03*
X1070768Y1229590D03*
X1062894Y1229984D03*
X1055020Y1229590D03*
X1102264Y1235102D03*
X1094390Y1235496D03*
X1086516Y1235102D03*
X1078642Y1235496D03*
X1070768Y1235102D03*
X1062894Y1235496D03*
X1055020Y1235102D03*
X1102264Y1240614D03*
X1094390Y1241008D03*
X1086516Y1240614D03*
X1078642Y1241008D03*
X1070768Y1240614D03*
X1062894Y1241008D03*
X1055020Y1240614D03*
X1102264Y1246126D03*
X1094390Y1246519D03*
X1086516Y1246126D03*
X1078642Y1246519D03*
X1070768Y1246126D03*
X1062894Y1246519D03*
X1055020Y1246126D03*
X1110138Y1252031D03*
X1102264Y1251638D03*
X1094390Y1252031D03*
X1086516Y1251638D03*
X1078642Y1252031D03*
X1070768Y1251638D03*
X1062894Y1252031D03*
X1055020Y1251638D03*
X1110138Y1257543D03*
X1102264Y1257149D03*
X1094390Y1257543D03*
X1086516Y1257149D03*
X1078642Y1257543D03*
X1070768Y1257149D03*
X1062894Y1257543D03*
X1055020Y1257149D03*
X1110138Y1263055D03*
X1102264Y1262661D03*
X1094390Y1263055D03*
X1086516Y1262661D03*
X1078642Y1263055D03*
X1070768Y1262661D03*
X1062894Y1263055D03*
X1055020Y1262661D03*
Y1268173D03*
Y1273685D03*
Y1279197D03*
X1118012Y1202031D03*
X1055020D03*
X1118012Y1207543D03*
Y1213055D03*
Y1218567D03*
Y1224079D03*
Y1229590D03*
Y1235102D03*
Y1240614D03*
Y1246126D03*
Y1251638D03*
Y1257149D03*
Y1262661D03*
Y1268173D03*
Y1273685D03*
Y1279197D03*
X1125886Y1207937D03*
Y1213449D03*
Y1218960D03*
Y1224472D03*
Y1229984D03*
Y1235496D03*
Y1241008D03*
Y1246519D03*
Y1252031D03*
Y1257543D03*
Y1263055D03*
Y1268567D03*
Y1274079D03*
Y1279590D03*
X1062894Y1268567D03*
Y1274079D03*
Y1279590D03*
X1070768Y1268173D03*
Y1273685D03*
Y1279197D03*
X1078642Y1268567D03*
Y1274079D03*
Y1279590D03*
X1086516Y1268173D03*
Y1273685D03*
Y1279197D03*
X1094390Y1268567D03*
Y1274079D03*
Y1279590D03*
X1102264Y1268173D03*
Y1273685D03*
Y1279197D03*
X1110138Y1268567D03*
Y1274079D03*
Y1279590D03*
X1196949Y1202425D03*
X1189075Y1202031D03*
X1181201Y1202425D03*
X1173327Y1202031D03*
X1165453Y1202425D03*
X1157579Y1202031D03*
X1149705Y1202425D03*
X1196949Y1207937D03*
X1189075Y1207543D03*
X1181201Y1207937D03*
X1173327Y1207543D03*
X1165453Y1207937D03*
X1157579Y1207543D03*
X1149705Y1207937D03*
X1141831Y1207543D03*
X1196949Y1213449D03*
Y1218961D03*
Y1224472D03*
Y1229984D03*
Y1235496D03*
Y1241008D03*
Y1246520D03*
X1189075Y1213055D03*
X1181201Y1213449D03*
X1173327Y1213055D03*
X1165453Y1213449D03*
X1157579Y1213055D03*
X1149705Y1213449D03*
X1141831Y1213055D03*
X1189075Y1218567D03*
X1181201Y1218961D03*
X1173327Y1218567D03*
X1165453Y1218961D03*
X1157579Y1218567D03*
X1149705Y1218961D03*
X1141831Y1218567D03*
X1189075Y1224079D03*
X1181201Y1224472D03*
X1173327Y1224079D03*
X1165453Y1224472D03*
X1157579Y1224079D03*
X1149705Y1224472D03*
X1141831Y1224079D03*
X1189075Y1229591D03*
X1181201Y1229984D03*
X1173327Y1229591D03*
X1165453Y1229984D03*
X1157579Y1229591D03*
X1149705Y1229984D03*
X1141831Y1229591D03*
X1189075Y1235102D03*
X1181201Y1235496D03*
X1173327Y1235102D03*
X1165453Y1235496D03*
X1157579Y1235102D03*
X1149705Y1235496D03*
X1141831Y1235102D03*
X1189075Y1240614D03*
X1181201Y1241008D03*
X1173327Y1240614D03*
X1165453Y1241008D03*
X1157579Y1240614D03*
X1149705Y1241008D03*
X1141831Y1240614D03*
X1189075Y1246126D03*
X1181201Y1246520D03*
X1173327Y1246126D03*
X1165453Y1246520D03*
X1157579Y1246126D03*
X1149705Y1246520D03*
X1141831Y1246126D03*
X1196949Y1252031D03*
X1189075Y1251638D03*
X1181201Y1252031D03*
X1173327Y1251638D03*
X1165453Y1252031D03*
X1157579Y1251638D03*
X1149705Y1252031D03*
X1141831Y1251638D03*
X1196949Y1257543D03*
X1189075Y1257150D03*
X1181201Y1257543D03*
X1173327Y1257150D03*
X1165453Y1257543D03*
X1157579Y1257150D03*
X1149705Y1257543D03*
X1141831Y1257150D03*
X1196949Y1263055D03*
X1189075Y1262661D03*
X1181201Y1263055D03*
X1173327Y1262661D03*
X1165453Y1263055D03*
X1157579Y1262661D03*
X1149705Y1263055D03*
X1141831Y1262661D03*
Y1268173D03*
Y1273685D03*
Y1279197D03*
X1204823Y1202031D03*
X1141831D03*
X1204823Y1207543D03*
Y1213055D03*
Y1218567D03*
Y1224079D03*
Y1229591D03*
Y1235102D03*
Y1240614D03*
Y1246126D03*
Y1251638D03*
Y1257150D03*
Y1262661D03*
Y1268173D03*
Y1273685D03*
Y1279197D03*
X1212697Y1207937D03*
Y1213449D03*
Y1218961D03*
Y1224472D03*
Y1229984D03*
Y1235496D03*
Y1241008D03*
Y1246520D03*
Y1252031D03*
Y1257543D03*
Y1263055D03*
Y1268567D03*
Y1274079D03*
Y1279591D03*
X1149705Y1268567D03*
Y1274079D03*
Y1279591D03*
X1157579Y1268173D03*
Y1273685D03*
Y1279197D03*
X1165453Y1268567D03*
Y1274079D03*
Y1279591D03*
X1173327Y1268173D03*
Y1273685D03*
Y1279197D03*
X1181201Y1268567D03*
Y1274079D03*
Y1279591D03*
X1189075Y1268173D03*
Y1273685D03*
Y1279197D03*
X1196949Y1268567D03*
Y1274079D03*
Y1279591D03*
G54D110*
X1042300Y1073500D02*
Y1073600D01*
X1042000Y1073900*
Y1079300*
X1045200Y1082500*
X1047126*
X1050600Y1079026*
Y1073900*
X1141433Y1063000D02*
Y1058000D01*
X1147200*
X1147428Y1057938*
X1147500Y1058200*
X1141433Y1063000D02*
Y1072500D01*
X1147100*
X1147524Y1072402*
X1147500Y1072300*
G54D125*
X1042300Y1073600D03*
X1050600Y1073900D03*
X1147500Y1058200D03*
Y1072300D03*
X1031100Y1192800D03*
X1039000Y1193000D03*
X1032500Y1269000D03*
Y1278500D03*
X1092000Y1325600D03*
X1128200D03*
X1114600D03*
X1103600D03*
X1143300D03*
X1179400D03*
X1167000D03*
X1154500D03*
X1042200Y1342100D03*
X1056000Y1344500D03*
X1088000Y1397500D03*
X1099500D03*
X1123750D03*
X1145000D03*
X1164500Y1397000D03*
X1177500D03*
X1213900Y1387700D03*
X1234200Y1391500D03*
X1233500Y1384300D03*
G54D126*
X1052500Y1046000D03*
X1074500Y1043500D03*
X1010200Y1088000D03*
X1017400Y1087900D03*
X1020500Y1084100D03*
X1038100Y1065200D03*
X1025800Y1088200D03*
X1233200Y1090100D03*
Y1086700D03*
X1009900Y1104600D03*
X1015200Y1104400D03*
X1020900Y1095300D03*
X1031700Y1098300D03*
X1087700Y1125500D03*
X1081600Y1124900D03*
X1097500Y1117000D03*
X1072500D03*
X1085000D03*
X1122300Y1125000D03*
X1110000Y1117000D03*
X1135000D03*
X1122500D03*
X1130200Y1125100D03*
X1142500Y1125700D03*
X1132100Y1129000D03*
X1172500Y1117000D03*
X1147500D03*
X1160000D03*
X1181000Y1129100D03*
X1220000Y1127500D03*
Y1118500D03*
X1185000Y1117000D03*
X1236000Y1095900D03*
X1226600Y1109800D03*
X1224600Y1103000D03*
X1238000Y1113600D03*
X1248000Y1127500D03*
Y1118500D03*
X1230800Y1131800D03*
X1235500Y1109700D03*
X1233000Y1093300D03*
X1099300Y1162600D03*
X1089700Y1136700D03*
X1090000Y1147200D03*
X1084300Y1155600D03*
X1102900Y1156700D03*
X1085000Y1133400D03*
X1089800Y1161100D03*
X1094800Y1146100D03*
X1083400Y1147800D03*
X1101800Y1133400D03*
X1094100Y1132700D03*
X1070800Y1134500D03*
X1075800Y1155500D03*
X1084500Y1162600D03*
X1086100Y1167200D03*
X1092800Y1157000D03*
X1097500Y1139500D03*
X1072500D03*
X1085000D03*
X1078500Y1134000D03*
X1100200Y1147500D03*
X1076500Y1147700D03*
X1109200Y1167200D03*
X1135000Y1133000D03*
X1109900D03*
X1110100Y1158200D03*
X1106100Y1155800D03*
X1136600Y1156800D03*
X1129400Y1132800D03*
X1136000Y1147500D03*
X1108900Y1147200D03*
X1131000Y1149800D03*
X1143100Y1154300D03*
X1110000Y1139200D03*
X1122100D03*
X1135000Y1139500D03*
X1105800Y1151000D03*
X1127500Y1161600D03*
X1118200Y1153200D03*
X1116500Y1132800D03*
X1140900Y1137700D03*
X1172400Y1156600D03*
X1173800Y1134300D03*
X1166900Y1157900D03*
X1144500Y1148800D03*
X1144400Y1141300D03*
X1165000Y1133500D03*
X1156300Y1133600D03*
X1156400Y1151600D03*
X1149900Y1139400D03*
X1159900Y1139500D03*
X1172500D03*
X1146700Y1135600D03*
X1152700Y1160800D03*
X1148400Y1158300D03*
X1163200Y1160300D03*
X1151500Y1133200D03*
X1159700Y1155700D03*
X1177600Y1156600D03*
X1190000Y1156300D03*
X1184800Y1156000D03*
X1184900Y1133000D03*
X1185000Y1139500D03*
X1217700Y1155100D03*
X1220000Y1145000D03*
Y1136000D03*
X1194500Y1151500D03*
X1248000Y1136000D03*
Y1155000D03*
Y1145000D03*
X1231000Y1140300D03*
X1223700Y1148300D03*
X1172900Y1185500D03*
X1176500Y1191000D03*
X1177900Y1185300D03*
X1180900Y1188900D03*
X1172700Y1194300D03*
X1204100Y1187400D03*
X1190700Y1192000D03*
X1188700Y1197200D03*
X1021500Y1248500D03*
Y1244500D03*
Y1273000D03*
Y1268000D03*
X1038200Y1322700D03*
X1070800Y1326600D03*
X1030400Y1352300D03*
X1033200Y1349100D03*
X1033700Y1366500D03*
X1038400Y1364600D03*
X1036600Y1353100D03*
X1033200Y1355400D03*
X1038100Y1368800D03*
X1132400Y1345800D03*
X1133200Y1357300D03*
X1132700Y1340500D03*
X1137300Y1352100D03*
X1135500Y1367700D03*
X1199000Y1336700D03*
X1195900Y1341400D03*
X1189900Y1349400D03*
X1253800Y1372000D03*
X1257500Y1353800D03*
X1250200Y1351000D03*
X1236900Y1358000D03*
X1235100Y1370900D03*
X1248800Y1370000D03*
X1038900Y1374300D03*
X1075100Y1411300D03*
X1080200Y1411500D03*
X1092100Y1411000D03*
X1100000Y1410800D03*
X1102900Y1404300D03*
X1068500Y1410900D03*
X1063500Y1410400D03*
X1124900Y1411300D03*
X1106200Y1410700D03*
X1128100Y1409200D03*
X1113500Y1402300D03*
X1133000Y1405300D03*
X1122400Y1377500D03*
X1136700Y1379700D03*
X1110400Y1396000D03*
X1118800Y1411200D03*
X1137400Y1410900D03*
X1116100Y1399400D03*
X1142600Y1410800D03*
X1133300Y1376100D03*
X1111000Y1411600D03*
X1171000Y1408800D03*
X1163100Y1408900D03*
X1182800Y1378600D03*
X1150900Y1395900D03*
X1175800Y1410700D03*
X1180000Y1411400D03*
X1150000Y1410800D03*
X1158400Y1398700D03*
X1160700Y1405600D03*
X1155200Y1399000D03*
X1186000Y1411500D03*
X1192600Y1411400D03*
X1184900Y1405700D03*
X1187800Y1378000D03*
X1187900Y1382900D03*
X1200000Y1411500D03*
X1205100Y1411400D03*
X1208400Y1410100D03*
X1201500Y1404000D03*
X1085200Y1419200D03*
X1071400Y1416700D03*
X1082900Y1424200D03*
X1096000Y1423400D03*
X1095100Y1415600D03*
X1121700Y1413700D03*
X1133100Y1420700D03*
X1108700Y1414000D03*
X1170700Y1413300D03*
X1159600Y1422700D03*
X1172000Y1417500D03*
X1157700Y1417900D03*
G54D245*
X1120567Y1063000D03*
X1141433D03*
G54D246*
X1029374Y1237894D03*
X1013626D03*
X1062874Y1082500D03*
X1047126D03*
X1029422Y1255394D03*
X1013674D03*
G54D247*
X1144900Y1387065D03*
Y1370135D03*
X1123152Y1387043D03*
Y1370113D03*
G54D248*
X1107939Y1101267D03*
X1124868D03*
X1062368Y1102267D03*
X1045438D03*
G54D249*
X1097441Y1120866D03*
X1100000D03*
X1102559D03*
Y1129134D03*
X1097441D03*
X1072441Y1120866D03*
X1075000D03*
X1077559D03*
Y1129134D03*
X1072441D03*
X1159941Y1143366D03*
X1162500D03*
X1165059D03*
Y1151634D03*
X1159941D03*
X1109941Y1143366D03*
X1112500D03*
X1115059D03*
Y1151634D03*
X1109941D03*
X1172441Y1143366D03*
X1175000D03*
X1177559D03*
Y1151634D03*
X1172441D03*
X1205059Y1423634D03*
X1202500D03*
X1199941D03*
Y1415366D03*
X1205059D03*
X1092059Y1423634D03*
X1089500D03*
X1086941D03*
Y1415366D03*
X1092059D03*
X1109941Y1120866D03*
X1112500D03*
X1115059D03*
Y1129134D03*
X1109941D03*
X1130059Y1423634D03*
X1127500D03*
X1124941D03*
Y1415366D03*
X1130059D03*
X1122441Y1120866D03*
X1125000D03*
X1127559D03*
Y1129134D03*
X1122441D03*
X1097441Y1143366D03*
X1100000D03*
X1102559D03*
Y1151634D03*
X1097441D03*
X1147441Y1143366D03*
X1150000D03*
X1152559D03*
Y1151634D03*
X1147441D03*
X1084941Y1143366D03*
X1087500D03*
X1090059D03*
Y1151634D03*
X1084941D03*
X1117559Y1423634D03*
X1115000D03*
X1112441D03*
Y1415366D03*
X1117559D03*
X1134941Y1143366D03*
X1137500D03*
X1140059D03*
Y1151634D03*
X1134941D03*
X1159941Y1120866D03*
X1162500D03*
X1165059D03*
Y1129134D03*
X1159941D03*
X1084941Y1120866D03*
X1087500D03*
X1090059D03*
Y1129134D03*
X1084941D03*
X1105059Y1423634D03*
X1102500D03*
X1099941D03*
Y1415366D03*
X1105059D03*
X1122441Y1143366D03*
X1125000D03*
X1127559D03*
Y1151634D03*
X1122441D03*
X1147441Y1120866D03*
X1150000D03*
X1152559D03*
Y1129134D03*
X1147441D03*
X1072441Y1143366D03*
X1075000D03*
X1077559D03*
Y1151634D03*
X1072441D03*
X1142559Y1423634D03*
X1140000D03*
X1137441D03*
Y1415366D03*
X1142559D03*
X1155059Y1423634D03*
X1152500D03*
X1149941D03*
Y1415366D03*
X1155059D03*
X1134941Y1120866D03*
X1137500D03*
X1140059D03*
Y1129134D03*
X1134941D03*
X1167559Y1423634D03*
X1165000D03*
X1162441D03*
Y1415366D03*
X1167559D03*
X1180059Y1423634D03*
X1177500D03*
X1174941D03*
Y1415366D03*
X1180059D03*
X1192559Y1423634D03*
X1190000D03*
X1187441D03*
Y1415366D03*
X1192559D03*
X1172441Y1120866D03*
X1175000D03*
X1177559D03*
Y1129134D03*
X1172441D03*
X1068559Y1423634D03*
X1066000D03*
X1063441D03*
Y1415366D03*
X1068559D03*
X1184941Y1120866D03*
X1187500D03*
X1190059D03*
Y1129134D03*
X1184941D03*
X1080059Y1423634D03*
X1077500D03*
X1074941D03*
Y1415366D03*
X1080059D03*
X1184941Y1143366D03*
X1187500D03*
X1190059D03*
Y1151634D03*
X1184941D03*
X1015059Y1084134D03*
X1012500D03*
X1009941D03*
Y1075866D03*
X1015059D03*
Y1100384D03*
X1012500D03*
X1009941D03*
Y1092116D03*
X1015059D03*
X1028809Y1084134D03*
X1026250D03*
X1023691D03*
Y1075866D03*
X1028809D03*
Y1100384D03*
X1026250D03*
X1023691D03*
Y1092116D03*
X1028809D03*
X1024941Y1378366D03*
X1027500D03*
X1030059D03*
Y1386634D03*
X1024941D03*
Y1359616D03*
X1027500D03*
X1030059D03*
Y1367884D03*
X1024941D03*
X1011191Y1378366D03*
X1013750D03*
X1016309D03*
Y1386634D03*
X1011191D03*
Y1359616D03*
X1013750D03*
X1016309D03*
Y1367884D03*
X1011191D03*
X1261309Y1090384D03*
X1258750D03*
X1256191D03*
Y1082116D03*
X1261309D03*
Y1106634D03*
X1258750D03*
X1256191D03*
Y1098366D03*
X1261309D03*
X1246309Y1089134D03*
X1243750D03*
X1241191D03*
Y1080866D03*
X1246309D03*
Y1106634D03*
X1243750D03*
X1241191D03*
Y1098366D03*
X1246309D03*
X1241191Y1358366D03*
X1243750D03*
X1246309D03*
Y1366634D03*
X1241191D03*
X1239941Y1377116D03*
X1242500D03*
X1245059D03*
Y1385384D03*
X1239941D03*
X1252441Y1358366D03*
X1255000D03*
X1257559D03*
Y1366634D03*
X1252441D03*
X1253691Y1377116D03*
X1256250D03*
X1258809D03*
Y1385384D03*
X1253691D03*
G54D250*
X1148100Y1357641D03*
Y1337759D03*
X1172500Y1357641D03*
Y1337759D03*
X1096945Y1357633D03*
Y1337751D03*
X1120700Y1357641D03*
Y1337759D03*
G54D251*
X1042900Y1326960D03*
Y1334440D03*
X1228000Y1400140D03*
Y1392660D03*
X1052500Y1051260D03*
Y1058740D03*
G54D252*
X1192000Y1380654D03*
Y1387346D03*
X1082000Y1349846D03*
Y1343154D03*
X1214500Y1393154D03*
Y1399846D03*
X1054500Y1337346D03*
Y1330654D03*
X1208500Y1399846D03*
Y1393154D03*
X1060500Y1330654D03*
Y1337346D03*
X1068000Y1330654D03*
Y1337346D03*
X1201500Y1399846D03*
Y1393154D03*
X1025000Y1330846D03*
Y1324154D03*
X1032500Y1330846D03*
Y1324154D03*
X1043700Y1058654D03*
Y1065346D03*
G54D253*
X1125886Y1202425D03*
X1212697D03*
G54D271*
X1189454Y1080546D03*
G54D272*
X1228347Y1317598D03*
X1039371Y1164055D03*
G54D276*
X1095820Y1369811D03*
Y1390677D03*
X1171700Y1369767D03*
Y1390633D03*
G54D277*
X1234403Y1155081D03*
X1241883D03*
X1234403Y1118313D03*
X1241883D03*
X1234403Y1127505D03*
X1241883D03*
X1234586Y1136146D03*
X1242067D03*
X1234219Y1144970D03*
X1241699D03*
G54D278*
X1217161Y1375063D03*
Y1377031D03*
Y1379000D03*
Y1380969D03*
Y1382937D03*
X1199839D03*
Y1380969D03*
Y1379000D03*
Y1377031D03*
Y1375063D03*
X1055839Y1356642D03*
Y1354674D03*
Y1352705D03*
Y1350736D03*
Y1348768D03*
X1073161D03*
Y1350736D03*
Y1352705D03*
Y1354674D03*
Y1356642D03*
X1078839Y1053937D03*
Y1051969D03*
Y1050000D03*
Y1048031D03*
Y1046063D03*
X1096161D03*
Y1048031D03*
Y1050000D03*
Y1051969D03*
Y1053937D03*
G54D279*
X1045000Y1350594D03*
Y1362406D03*
X1227000Y1381406D03*
Y1369594D03*
G54D280*
X1064094Y1067500D03*
X1075906D03*
G54D281*
X1195000Y1393850D03*
Y1400150D03*
X1076000Y1337150D03*
Y1330850D03*
G54D282*
X1093189Y1037500D03*
X1099489D03*
G54D283*
X1197833Y1362500D03*
Y1357500D03*
Y1352500D03*
Y1347500D03*
X1218167D03*
Y1352500D03*
Y1357500D03*
Y1362500D03*
X1070686Y1375501D03*
Y1380501D03*
Y1385501D03*
Y1390501D03*
X1050352D03*
Y1385501D03*
Y1380501D03*
Y1375501D03*
X1107667Y1062500D03*
Y1067500D03*
Y1072500D03*
Y1077500D03*
X1087333D03*
Y1072500D03*
Y1067500D03*
Y1062500D03*
G54D284*
X1086613Y1037500D03*
X1079921D03*
X1067832D03*
X1074524D03*
X1061654Y1044000D03*
X1068346D03*
X1061654Y1052500D03*
X1068346D03*
G54D285*
X1197833Y1347500D02*
X1205500D01*
X1209000Y1351000*
X1061000Y1387000D02*
X1064501Y1390501D01*
X1070686*
X1061000Y1387000D02*
Y1360500D01*
X1064858Y1356642*
X1073161*
X1199839Y1375063D02*
X1206337D01*
X1209000Y1372400*
Y1351000*
X1217161Y1377031D02*
X1226031D01*
X1227000Y1378000*
Y1381406*
X1217161Y1375063D02*
X1226000D01*
X1227000Y1374063*
Y1369594*
G74*
X0Y0D02*
M02*
