0
SECTION
2
HEADER
999
*** POWERPCB  HEADER ***
9
$EXTMIN
10
-96.470518
20
-224.799192
9
$EXTMAX
10
68.6866486667
20
79.407
9
$FILLMODE
70
0
9
$GRIDMODE
70
1
9
$GRIDUNIT
10
0.254
20
0.254
9
$INSBASE
10
95.8166813333
20
213.8896166667
9
$LIMCHECK
70
0
9
$PLINEWID
40
0.0254
9
$SNAPMODE
70
1
9
$SNAPUNIT
10
0.127
20
0.127
9
$TEXTSIZE
40
1.524
9
$TEXTSTYLE
7
W0$127
9
$USERI1
70
101
9
$USERI2
70
0
9
$USERI5
70
150
9
$VIEWCTR
10
43.911522
20
40.9588826667
0
ENDSEC
0
SECTION
2
TABLES
999
*** POWERPCB  LTYPE ***
0
TABLE
2
LTYPE
70
2
0
LTYPE
2
CONTINUOUS
70
64
3
---
72
65
73
0
40
0
0
LTYPE
2
TRMIDX_4
70
64
3
---
72
65
73
2
40
2
49
1
49
1
0
LTYPE
2
KEEPOUT_00011110$0
70
64
3
---
72
65
73
2
40
2
49
1
49
1
0
ENDTAB
999
*** POWERPCB  LAYER ***
0
TABLE
2
LAYER
70
51
0
LAYER
2
DBLAYERS
70
1
62
-254
6
CONTINUOUS
0
LAYER
2
BOARD_OUTLINE_00
70
0
62
254
6
CONTINUOUS
0
LAYER
2
LABEL_INFO
70
1
62
-254
6
CONTINUOUS
0
LAYER
2
LABEL_ATTRIBUTE
70
1
62
-254
6
CONTINUOUS
0
LAYER
2
PART_NAME_26
70
0
62
5
6
CONTINUOUS
0
LAYER
2
PART_TYPE_26
70
1
62
-176
6
CONTINUOUS
0
LAYER
2
PART_NAME_27
70
1
62
-5
6
CONTINUOUS
0
LAYER
2
PART_INFO
70
1
62
-254
6
CONTINUOUS
0
LAYER
2
PART_PTS
70
1
62
-254
6
CONTINUOUS
0
LAYER
2
PART_TYPE_01
70
1
62
-176
6
CONTINUOUS
0
LAYER
2
PART_NAME_TOP
70
1
62
-250
6
CONTINUOUS
0
LAYER
2
PART_TYPE_TOP
70
1
62
-250
6
CONTINUOUS
0
LAYER
2
SYM_NAME
70
1
62
-254
6
CONTINUOUS
0
LAYER
2
SYM_PART_NAME_26
70
1
62
-254
6
CONTINUOUS
0
LAYER
2
SYM_PART_TYPE_26
70
1
62
-254
6
CONTINUOUS
0
LAYER
2
SYM_PART_NAME_27
70
1
62
-254
6
CONTINUOUS
0
LAYER
2
SYM_TERMINAL
70
1
62
-254
6
CONTINUOUS
0
LAYER
2
PKG_INFO
70
1
62
-254
6
CONTINUOUS
0
LAYER
2
SYM_PART_TYPE_01
70
1
62
-254
6
CONTINUOUS
0
LAYER
2
SYM_PART_NAME_01
70
1
62
-254
6
CONTINUOUS
0
LAYER
2
PART_TOP_2DLINE_26
70
0
62
1
6
CONTINUOUS
0
LAYER
2
PART_TOP_2DLINE_27
70
1
62
-2
6
CONTINUOUS
0
LAYER
2
DRIL_PLTE_THRU_01
70
0
62
3
6
CONTINUOUS
0
LAYER
2
DRIL_PLTE_THRU_02
70
1
62
-96
6
CONTINUOUS
0
LAYER
2
DRIL_PLTE_THRU_03
70
1
62
-96
6
CONTINUOUS
0
LAYER
2
DRIL_PLTE_THRU_04
70
1
62
-2
6
CONTINUOUS
0
LAYER
2
PADS_INNER
70
0
62
106
6
CONTINUOUS
0
LAYER
2
PADS_BOT
70
1
62
-56
6
CONTINUOUS
0
LAYER
2
PADS_TOP
70
0
62
106
6
CONTINUOUS
0
LAYER
2
DRIL_NPLTE_THRU_01
70
0
62
3
6
CONTINUOUS
0
LAYER
2
DRIL_NPLTE_THRU_02
70
1
62
-96
6
CONTINUOUS
0
LAYER
2
DRIL_NPLTE_THRU_03
70
1
62
-96
6
CONTINUOUS
0
LAYER
2
DRIL_NPLTE_THRU_04
70
1
62
-2
6
CONTINUOUS
0
LAYER
2
PART_TOP_TEXT_26
70
0
62
1
6
CONTINUOUS
0
LAYER
2
PART_TOP_COPPER_27
70
1
62
-2
6
CONTINUOUS
0
LAYER
2
PART_TOP_COPPER_26
70
0
62
1
6
CONTINUOUS
0
LAYER
2
PART_TOP_COPPER_23
70
1
62
-4
6
CONTINUOUS
0
LAYER
2
PART_TOP_COPPER_22
70
1
62
-6
6
CONTINUOUS
0
LAYER
2
PART_TOP_2DLINE_01
70
0
62
5
6
CONTINUOUS
0
LAYER
2
PART_TOP_COPPER_01
70
0
62
5
6
CONTINUOUS
0
LAYER
2
PART_TOP_COPPER_21
70
1
62
-56
6
CONTINUOUS
0
LAYER
2
PART_TOP_2DLINE_25
70
1
62
-56
6
CONTINUOUS
0
LAYER
2
PART_TOP_2DLINE_20
70
1
62
-56
6
CONTINUOUS
0
LAYER
2
PADS_XR_21
70
1
62
-56
6
CONTINUOUS
0
LAYER
2
PADS_XR_23
70
1
62
-4
6
CONTINUOUS
0
LAYER
2
KEEPOUT_01
70
1
62
-1
6
CONTINUOUS
0
LAYER
2
KEEPOUT_-1
70
0
62
254
6
CONTINUOUS
0
LAYER
2
PADS_XR_22
70
1
62
-6
6
CONTINUOUS
0
LAYER
2
PADS_XR_28
70
1
62
-4
6
CONTINUOUS
0
LAYER
2
PCB_PARAMS
70
1
62
-254
6
CONTINUOUS
0
LAYER
2
DRIL_SYMBOL
70
0
62
254
6
CONTINUOUS
0
ENDTAB
999
*** POWERPCB  TEXT STYLE ***
0
TABLE
2
STYLE
70
10
0
STYLE
2
W0$2032
70
64
40
0
41
0.75
42
0
50
0
71
0
3
simplex
0
STYLE
2
W0$1524
70
64
40
0
41
0.75
42
0
50
0
71
0
3
simplex
0
STYLE
2
W0$127
70
64
40
0
41
0.75
42
0
50
0
71
0
3
simplex
0
STYLE
2
W0$254
70
64
40
0
41
0.75
42
0
50
0
71
0
3
simplex
0
STYLE
2
W0$1524R0
70
64
40
0
41
0.75
42
0
50
0
71
0
3
simplex
0
STYLE
2
W0$2032R0
70
64
40
0
41
0.75
42
0
50
0
71
0
3
simplex
0
STYLE
2
W0$127R0
70
64
40
0
41
0.75
42
0
50
0
71
0
3
simplex
0
STYLE
2
W0$254R0
70
64
40
0
41
0.75
42
0
50
0
71
0
3
simplex
0
STYLE
2
W0$15R1
70
64
40
0
41
0.75
42
0
50
0
71
0
3
simplex
0
STYLE
2
W0$2032R1
70
64
40
0
41
0.75
42
0
50
0
71
0
3
simplex
0
ENDTAB
0
ENDSEC
0
SECTION
2
BLOCKS
999
*** POWERPCB  DBLAYER ***
0
BLOCK
2
DBLAYERS
8
0
10
0
20
0
3
DBLAYERS
70
64
0
TEXT
8
DBLAYERS
10
0
20
-3.048
40
1.778
1
__It__Is__Job__Name__:=CCCNGP_MODBUS_REV1.0.pcb
999
 *  1.Number             2.Type                  3.RouteColor
999
 *  4.ViaColor           5.PadColor              6.CopperColor
999
 *  7.2DLineColor        8.TextColor             9.ErrorColor
999
 * 10.TopComponentColor 11.BottomComponentColor 12.RoutingDirection
999
 * 13.LayerThickness    14.CopperThickness      15.Dielectric
999
 * 16.IsRouteable       17.IsVisible            18.IsSelectable
999
 * 19.IsPrepreg         20.AssSilkScreen        21.AssPasteMask
999
 * 22.AssSolderMask     23.AssAssembly
0
TEXT
8
DBLAYERS
10
0
20
-6.096
40
1.778
1
Top:=1 1 18 2 18 29 12 10 14 9 23 0 381000 51435 4.3000001907 1 1 1 0 26 23 21 27 0 0 1 9 1 0 12 
0
TEXT
8
DBLAYERS
10
0
20
-9.144
40
1.778
1
Silkscreen Top:=26 3 12 12 12 12 12 12 12 12 12 2 0 0 3.2999999523 0 1 1 0 -1 -1 -1 -1 0 0 0 9 1 0 0 
0
ENDBLK
999
*** POWERPCB  BOARD ***
0
BLOCK
2
BOARD_1
8
0
10
0
20
0
3
BOARD_1
70
64
0
POLYLINE
8
BOARD_OUTLINE_00
66
1
40
0.2032
41
0.2032
70
1
0
VERTEX
8
BOARD_OUTLINE_00
10
0
20
0.0075053333
0
VERTEX
8
BOARD_OUTLINE_00
10
0
20
66.0444333333
0
VERTEX
8
BOARD_OUTLINE_00
10
2.5346513333
20
68.5790846667
0
VERTEX
8
BOARD_OUTLINE_00
10
66.032714
20
68.5790846667
0
VERTEX
8
BOARD_OUTLINE_00
10
68.57452
20
66.0372786667
0
VERTEX
8
BOARD_OUTLINE_00
10
68.57452
20
0.0075053333
0
SEQEND
0
INSERT
2
SMOOTH_0$2032
8
BOARD_OUTLINE_00
10
0
20
0.0075053333
0
INSERT
2
SMOOTH_0$2032
8
BOARD_OUTLINE_00
10
0
20
66.0444333333
0
INSERT
2
SMOOTH_0$2032
8
BOARD_OUTLINE_00
10
2.5346513333
20
68.5790846667
0
INSERT
2
SMOOTH_0$2032
8
BOARD_OUTLINE_00
10
66.032714
20
68.5790846667
0
INSERT
2
SMOOTH_0$2032
8
BOARD_OUTLINE_00
10
68.57452
20
66.0372786667
0
INSERT
2
SMOOTH_0$2032
8
BOARD_OUTLINE_00
10
68.57452
20
0.0075053333
0
ENDBLK
999
*** POWERPCB  COMPONENT ***
0
BLOCK
2
PART_TOP_0
8
0
10
0
20
0
3
PART_TOP_0
70
64
0
INSERT
2
SYM_TOP_3
8
0
10
0
20
0
0
INSERT
2
PKG_0
8
0
10
0
20
0
0
TEXT
8
LABEL_INFO
10
0.6527793333
20
17.50314
40
1.4224
1
0 324000000 0 0 0 1
50
180
41
0.75
7
W0$2032
0
TEXT
8
LABEL_ATTRIBUTE
10
0.6527793333
20
17.50314
40
1.4224
1
Ref.Des.
50
180
41
0.75
7
W0$2032
0
TEXT
8
PART_NAME_26
10
0.6527793333
20
17.50314
40
1.4224
1
U1
50
180
41
0.75
7
W0$2032
0
TEXT
8
LABEL_INFO
10
2.04
20
-2.4
40
1.0668
1
0 0 0 2 0 1
73
2
11
2.04
21
-2.4
41
0.75
7
W0$1524
0
TEXT
8
LABEL_ATTRIBUTE
10
2.04
20
-2.4
40
1.0668
1
PartType
73
2
11
2.04
21
-2.4
41
0.75
7
W0$1524
0
TEXT
8
PART_TYPE_26
10
2.04
20
-2.4
40
1.0668
1
MIC2937
73
3
11
2.04
21
-2.4
41
0.75
7
W0$1524
0
TEXT
8
LABEL_INFO
10
1.04
20
4.85
40
1.0668
1
0 0 0 0 0 1
41
0.75
7
W0$2032
0
TEXT
8
LABEL_ATTRIBUTE
10
1.04
20
4.85
40
1.0668
1
Ref.Des.
41
0.75
7
W0$2032
0
TEXT
8
PART_NAME_27
10
1.04
20
4.85
40
1.0668
1
U1
41
0.75
7
W0$2032
0
TEXT
8
PART_INFO
10
1.04
20
3.326
40
1.0668
1
000000
41
0.75
7
W0$2032
0
TEXT
8
PART_PTS
10
1.04
20
1.802
40
1.0668
1
1 2 3 
41
0.75
7
W0$2032
0
ENDBLK
0
BLOCK
2
PART_TOP_1
8
0
10
0
20
0
3
PART_TOP_1
70
64
0
INSERT
2
SYM_TOP_4
8
0
10
0
20
0
0
INSERT
2
PKG_1
8
0
10
0
20
0
0
TEXT
8
LABEL_INFO
10
5.715
20
4.8
40
0.889
1
0 0 0 2 0 1
73
2
11
5.715
21
4.8
41
0.75
7
W0$127
0
TEXT
8
LABEL_ATTRIBUTE
10
5.715
20
4.8
40
0.889
1
PartType
73
2
11
5.715
21
4.8
41
0.75
7
W0$127
0
TEXT
8
PART_TYPE_01
10
5.715
20
4.8
40
0.889
1
ADM2582_NEW
73
3
11
5.715
21
4.8
41
0.75
7
W0$127
0
TEXT
8
LABEL_INFO
10
-3.4544
20
2.2606
40
1.4224
1
0 0 0 0 0 1
41
0.75
7
W0$2032
0
TEXT
8
LABEL_ATTRIBUTE
10
-3.4544
20
2.2606
40
1.4224
1
Ref.Des.
41
0.75
7
W0$2032
0
TEXT
8
PART_NAME_26
10
-3.4544
20
2.2606
40
1.4224
1
U2
41
0.75
7
W0$2032
0
TEXT
8
PART_INFO
10
-3.4544
20
0.2286
40
1.4224
1
000000
41
0.75
7
W0$2032
0
TEXT
8
PART_PTS
10
-3.4544
20
-1.8034
40
1.4224
1
1 2 3 4 5 6 7 8 9 10 11 12 13 14 15 16 17 18 19 20 
41
0.75
7
W0$2032
0
ENDBLK
0
BLOCK
2
PART_TOP_2
8
0
10
0
20
0
3
PART_TOP_2
70
64
0
INSERT
2
SYM_TOP_5
8
0
10
0
20
0
0
INSERT
2
PKG_2
8
0
10
0
20
0
0
TEXT
8
LABEL_INFO
10
-8.22706
20
-2.50444
40
1.4224
1
0 0 0 0 0 1
41
0.75
7
W0$2032
0
TEXT
8
LABEL_ATTRIBUTE
10
-8.22706
20
-2.50444
40
1.4224
1
Ref.Des.
41
0.75
7
W0$2032
0
TEXT
8
PART_NAME_26
10
-8.22706
20
-2.50444
40
1.4224
1
TP_+3P3AV
41
0.75
7
W0$2032
0
TEXT
8
LABEL_INFO
10
-1.143
20
-1.524
40
0.889
1
0 0 0 2 0 1
73
2
11
-1.143
21
-1.524
41
0.75
7
W0$2032
0
TEXT
8
LABEL_ATTRIBUTE
10
-1.143
20
-1.524
40
0.889
1
PartType
73
2
11
-1.143
21
-1.524
41
0.75
7
W0$2032
0
TEXT
8
PART_TYPE_26
10
-1.143
20
-1.524
40
0.889
1
TESTPOINT
73
3
11
-1.143
21
-1.524
41
0.75
7
W0$2032
0
TEXT
8
LABEL_INFO
10
-1.397
20
0
40
0.889
1
0 0 0 0 0 1
41
0.75
7
W0$2032
0
TEXT
8
LABEL_ATTRIBUTE
10
-1.397
20
0
40
0.889
1
Ref.Des.
41
0.75
7
W0$2032
0
TEXT
8
PART_NAME_27
10
-1.397
20
0
40
0.889
1
TP_+3P3AV
41
0.75
7
W0$2032
0
TEXT
8
PART_INFO
10
-1.397
20
-1.27
40
0.889
1
000000
41
0.75
7
W0$2032
0
TEXT
8
PART_PTS
10
-1.397
20
-2.54
40
0.889
1
1 
41
0.75
7
W0$2032
0
ENDBLK
0
BLOCK
2
PART_TOP_3
8
0
10
0
20
0
3
PART_TOP_3
70
64
0
INSERT
2
SYM_TOP_5
8
0
10
0
20
0
0
INSERT
2
PKG_2
8
0
10
0
20
0
0
TEXT
8
LABEL_INFO
10
-1.02362
20
1.72974
40
1.4224
1
0 0 0 0 0 1
41
0.75
7
W0$2032
0
TEXT
8
LABEL_ATTRIBUTE
10
-1.02362
20
1.72974
40
1.4224
1
Ref.Des.
41
0.75
7
W0$2032
0
TEXT
8
PART_NAME_26
10
-1.02362
20
1.72974
40
1.4224
1
TP_+6V5
41
0.75
7
W0$2032
0
TEXT
8
LABEL_INFO
10
-1.143
20
-1.524
40
0.889
1
0 0 0 2 0 1
73
2
11
-1.143
21
-1.524
41
0.75
7
W0$2032
0
TEXT
8
LABEL_ATTRIBUTE
10
-1.143
20
-1.524
40
0.889
1
PartType
73
2
11
-1.143
21
-1.524
41
0.75
7
W0$2032
0
TEXT
8
PART_TYPE_26
10
-1.143
20
-1.524
40
0.889
1
TESTPOINT
73
3
11
-1.143
21
-1.524
41
0.75
7
W0$2032
0
TEXT
8
LABEL_INFO
10
-1.397
20
0
40
0.889
1
0 0 0 0 0 1
41
0.75
7
W0$2032
0
TEXT
8
LABEL_ATTRIBUTE
10
-1.397
20
0
40
0.889
1
Ref.Des.
41
0.75
7
W0$2032
0
TEXT
8
PART_NAME_27
10
-1.397
20
0
40
0.889
1
TP_+6V5
41
0.75
7
W0$2032
0
TEXT
8
PART_INFO
10
-1.397
20
-1.27
40
0.889
1
000000
41
0.75
7
W0$2032
0
TEXT
8
PART_PTS
10
-1.397
20
-2.54
40
0.889
1
1 
41
0.75
7
W0$2032
0
ENDBLK
0
BLOCK
2
PART_TOP_4
8
0
10
0
20
0
3
PART_TOP_4
70
64
0
INSERT
2
SYM_TOP_7
8
0
10
0
20
0
0
INSERT
2
PKG_3
8
0
10
0
20
0
0
TEXT
8
LABEL_INFO
10
3.126994
20
-5.2324
40
1.778
1
0 0 0 2 0 1
73
2
11
3.126994
21
-5.2324
41
0.75
7
W0$254
0
TEXT
8
LABEL_ATTRIBUTE
10
3.126994
20
-5.2324
40
1.778
1
PartType
73
2
11
3.126994
21
-5.2324
41
0.75
7
W0$254
0
TEXT
8
PART_TYPE_01
10
3.126994
20
-5.2324
40
1.778
1
CON-DB9
73
3
11
3.126994
21
-5.2324
41
0.75
7
W0$254
0
TEXT
8
LABEL_INFO
10
2.999994
20
-7.2644
40
1.778
1
0 0 0 0 0 1
41
0.75
7
W0$254
0
TEXT
8
LABEL_ATTRIBUTE
10
2.999994
20
-7.2644
40
1.778
1
Ref.Des.
41
0.75
7
W0$254
0
TEXT
8
PART_NAME_27
10
2.999994
20
-7.2644
40
1.778
1
J3
41
0.75
7
W0$254
0
TEXT
8
LABEL_INFO
10
12.558
20
2.169
40
1.4224
1
0 0 0 0 0 1
41
0.75
7
W0$2032
0
TEXT
8
LABEL_ATTRIBUTE
10
12.558
20
2.169
40
1.4224
1
Ref.Des.
41
0.75
7
W0$2032
0
TEXT
8
PART_NAME_26
10
12.558
20
2.169
40
1.4224
1
J3
41
0.75
7
W0$2032
0
TEXT
8
PART_INFO
10
12.558
20
0.137
40
1.4224
1
000000
41
0.75
7
W0$2032
0
TEXT
8
PART_PTS
10
12.558
20
-1.895
40
1.4224
1
1 2 3 4 5 10 11 
41
0.75
7
W0$2032
0
ENDBLK
0
BLOCK
2
PART_TOP_5
8
0
10
0
20
0
3
PART_TOP_5
70
64
0
INSERT
2
SYM_TOP_6
8
0
10
0
20
0
0
INSERT
2
PKG_4
8
0
10
0
20
0
0
TEXT
8
LABEL_INFO
10
-1.5
20
-0.5
40
1.0668
1
0 0 0 0 0 1
41
0.75
7
W0$2032
0
TEXT
8
LABEL_ATTRIBUTE
10
-1.5
20
-0.5
40
1.0668
1
Ref.Des.
41
0.75
7
W0$2032
0
TEXT
8
PART_NAME_27
10
-1.5
20
-0.5
40
1.0668
1
R7
41
0.75
7
W0$2032
0
TEXT
8
LABEL_INFO
10
-1.5
20
-1
40
1.0668
1
0 0 0 2 0 1
73
2
11
-1.5
21
-1
41
0.75
7
W0$2032
0
TEXT
8
LABEL_ATTRIBUTE
10
-1.5
20
-1
40
1.0668
1
PartType
73
2
11
-1.5
21
-1
41
0.75
7
W0$2032
0
TEXT
8
PART_TYPE_26
10
-1.5
20
-1
40
1.0668
1
RES-64.2K
73
3
11
-1.5
21
-1
41
0.75
7
W0$2032
0
TEXT
8
LABEL_INFO
10
-0.762
20
1.27
40
1.4224
1
0 0 0 0 0 1
41
0.75
7
W0$2032
0
TEXT
8
LABEL_ATTRIBUTE
10
-0.762
20
1.27
40
1.4224
1
Ref.Des.
41
0.75
7
W0$2032
0
TEXT
8
PART_NAME_26
10
-0.762
20
1.27
40
1.4224
1
R7
41
0.75
7
W0$2032
0
TEXT
8
PART_INFO
10
-0.762
20
-0.762
40
1.4224
1
000000
41
0.75
7
W0$2032
0
TEXT
8
PART_PTS
10
-0.762
20
-2.794
40
1.4224
1
1 2 
41
0.75
7
W0$2032
0
ENDBLK
0
BLOCK
2
PART_TOP_6
8
0
10
0
20
0
3
PART_TOP_6
70
64
0
INSERT
2
SYM_TOP_8
8
0
10
0
20
0
0
INSERT
2
PKG_5
8
0
10
0
20
0
0
TEXT
8
LABEL_INFO
10
-1.5
20
-0.324
40
1.0668
1
0 0 0 0 0 1
41
0.75
7
W0$2032
0
TEXT
8
LABEL_ATTRIBUTE
10
-1.5
20
-0.324
40
1.0668
1
Ref.Des.
41
0.75
7
W0$2032
0
TEXT
8
PART_NAME_27
10
-1.5
20
-0.324
40
1.0668
1
C11
41
0.75
7
W0$2032
0
TEXT
8
LABEL_INFO
10
-1.5
20
-1.05
40
1.0668
1
0 0 0 2 0 1
73
2
11
-1.5
21
-1.05
41
0.75
7
W0$2032
0
TEXT
8
LABEL_ATTRIBUTE
10
-1.5
20
-1.05
40
1.0668
1
PartType
73
2
11
-1.5
21
-1.05
41
0.75
7
W0$2032
0
TEXT
8
PART_TYPE_26
10
-1.5
20
-1.05
40
1.0668
1
CAP-0.1UF
73
3
11
-1.5
21
-1.05
41
0.75
7
W0$2032
0
TEXT
8
LABEL_INFO
10
0.9194793333
20
2.50698
40
1.4224
1
0 324000000 0 0 0 1
50
180
41
0.75
7
W0$2032
0
TEXT
8
LABEL_ATTRIBUTE
10
0.9194793333
20
2.50698
40
1.4224
1
Ref.Des.
50
180
41
0.75
7
W0$2032
0
TEXT
8
PART_NAME_26
10
0.9194793333
20
2.50698
40
1.4224
1
C11
50
180
41
0.75
7
W0$2032
0
TEXT
8
PART_INFO
10
0.9194793333
20
0.47498
40
1.4224
1
000000
50
180
41
0.75
7
W0$2032
0
TEXT
8
PART_PTS
10
0.9194793333
20
-1.55702
40
1.4224
1
1 2 
50
180
41
0.75
7
W0$2032
0
ENDBLK
0
BLOCK
2
PART_TOP_9
8
0
10
0
20
0
3
PART_TOP_9
70
64
0
INSERT
2
SYM_TOP_4
8
0
10
0
20
0
0
INSERT
2
PKG_1
8
0
10
0
20
0
0
TEXT
8
LABEL_INFO
10
5.715
20
4.8
40
0.889
1
0 0 0 2 0 1
73
2
11
5.715
21
4.8
41
0.75
7
W0$127
0
TEXT
8
LABEL_ATTRIBUTE
10
5.715
20
4.8
40
0.889
1
PartType
73
2
11
5.715
21
4.8
41
0.75
7
W0$127
0
TEXT
8
PART_TYPE_01
10
5.715
20
4.8
40
0.889
1
ADM2582_NEW
73
3
11
5.715
21
4.8
41
0.75
7
W0$127
0
TEXT
8
LABEL_INFO
10
12.90574
20
2.46126
40
1.4224
1
0 0 0 0 0 1
41
0.75
7
W0$2032
0
TEXT
8
LABEL_ATTRIBUTE
10
12.90574
20
2.46126
40
1.4224
1
Ref.Des.
41
0.75
7
W0$2032
0
TEXT
8
PART_NAME_26
10
12.90574
20
2.46126
40
1.4224
1
U5
41
0.75
7
W0$2032
0
TEXT
8
PART_INFO
10
12.90574
20
0.42926
40
1.4224
1
000000
41
0.75
7
W0$2032
0
TEXT
8
PART_PTS
10
12.90574
20
-1.60274
40
1.4224
1
1 2 3 4 5 6 7 8 9 10 11 12 13 14 15 16 17 18 19 20 
41
0.75
7
W0$2032
0
ENDBLK
0
BLOCK
2
PART_TOP_10
8
0
10
0
20
0
3
PART_TOP_10
70
64
0
INSERT
2
SYM_TOP_8
8
0
10
0
20
0
0
INSERT
2
PKG_5
8
0
10
0
20
0
0
TEXT
8
LABEL_INFO
10
-1.5
20
-0.324
40
1.0668
1
0 0 0 0 0 1
41
0.75
7
W0$2032
0
TEXT
8
LABEL_ATTRIBUTE
10
-1.5
20
-0.324
40
1.0668
1
Ref.Des.
41
0.75
7
W0$2032
0
TEXT
8
PART_NAME_27
10
-1.5
20
-0.324
40
1.0668
1
C13
41
0.75
7
W0$2032
0
TEXT
8
LABEL_INFO
10
-1.5
20
-1.05
40
1.0668
1
0 0 0 2 0 1
73
2
11
-1.5
21
-1.05
41
0.75
7
W0$2032
0
TEXT
8
LABEL_ATTRIBUTE
10
-1.5
20
-1.05
40
1.0668
1
PartType
73
2
11
-1.5
21
-1.05
41
0.75
7
W0$2032
0
TEXT
8
PART_TYPE_26
10
-1.5
20
-1.05
40
1.0668
1
CAP-0.1UF
73
3
11
-1.5
21
-1.05
41
0.75
7
W0$2032
0
TEXT
8
LABEL_INFO
10
-1.40462
20
-2.4765
40
1.4224
1
0 0 0 0 0 1
41
0.75
7
W0$2032
0
TEXT
8
LABEL_ATTRIBUTE
10
-1.40462
20
-2.4765
40
1.4224
1
Ref.Des.
41
0.75
7
W0$2032
0
TEXT
8
PART_NAME_26
10
-1.40462
20
-2.4765
40
1.4224
1
C13
41
0.75
7
W0$2032
0
TEXT
8
PART_INFO
10
-1.40462
20
-4.5085
40
1.4224
1
000000
41
0.75
7
W0$2032
0
TEXT
8
PART_PTS
10
-1.40462
20
-6.5405
40
1.4224
1
1 2 
41
0.75
7
W0$2032
0
ENDBLK
0
BLOCK
2
PART_TOP_11
8
0
10
0
20
0
3
PART_TOP_11
70
64
0
INSERT
2
SYM_TOP_8
8
0
10
0
20
0
0
INSERT
2
PKG_5
8
0
10
0
20
0
0
TEXT
8
LABEL_INFO
10
-1.5
20
-0.324
40
1.0668
1
0 0 0 0 0 1
41
0.75
7
W0$2032
0
TEXT
8
LABEL_ATTRIBUTE
10
-1.5
20
-0.324
40
1.0668
1
Ref.Des.
41
0.75
7
W0$2032
0
TEXT
8
PART_NAME_27
10
-1.5
20
-0.324
40
1.0668
1
C43
41
0.75
7
W0$2032
0
TEXT
8
LABEL_INFO
10
-1.5
20
-1.05
40
1.0668
1
0 0 0 2 0 1
73
2
11
-1.5
21
-1.05
41
0.75
7
W0$2032
0
TEXT
8
LABEL_ATTRIBUTE
10
-1.5
20
-1.05
40
1.0668
1
PartType
73
2
11
-1.5
21
-1.05
41
0.75
7
W0$2032
0
TEXT
8
PART_TYPE_26
10
-1.5
20
-1.05
40
1.0668
1
CAP-0.1UF
73
3
11
-1.5
21
-1.05
41
0.75
7
W0$2032
0
TEXT
8
LABEL_INFO
10
-3.4417
20
1.21666
40
1.4224
1
0 0 0 0 0 1
41
0.75
7
W0$2032
0
TEXT
8
LABEL_ATTRIBUTE
10
-3.4417
20
1.21666
40
1.4224
1
Ref.Des.
41
0.75
7
W0$2032
0
TEXT
8
PART_NAME_26
10
-3.4417
20
1.21666
40
1.4224
1
C43
41
0.75
7
W0$2032
0
TEXT
8
PART_INFO
10
-3.4417
20
-0.81534
40
1.4224
1
000000
41
0.75
7
W0$2032
0
TEXT
8
PART_PTS
10
-3.4417
20
-2.84734
40
1.4224
1
1 2 
41
0.75
7
W0$2032
0
ENDBLK
0
BLOCK
2
PART_TOP_12
8
0
10
0
20
0
3
PART_TOP_12
70
64
0
INSERT
2
SYM_TOP_8
8
0
10
0
20
0
0
INSERT
2
PKG_5
8
0
10
0
20
0
0
TEXT
8
LABEL_INFO
10
-1.5
20
-0.324
40
1.0668
1
0 0 0 0 0 1
41
0.75
7
W0$2032
0
TEXT
8
LABEL_ATTRIBUTE
10
-1.5
20
-0.324
40
1.0668
1
Ref.Des.
41
0.75
7
W0$2032
0
TEXT
8
PART_NAME_27
10
-1.5
20
-0.324
40
1.0668
1
C15
41
0.75
7
W0$2032
0
TEXT
8
LABEL_INFO
10
-1.5
20
-1.05
40
1.0668
1
0 0 0 2 0 1
73
2
11
-1.5
21
-1.05
41
0.75
7
W0$2032
0
TEXT
8
LABEL_ATTRIBUTE
10
-1.5
20
-1.05
40
1.0668
1
PartType
73
2
11
-1.5
21
-1.05
41
0.75
7
W0$2032
0
TEXT
8
PART_TYPE_26
10
-1.5
20
-1.05
40
1.0668
1
CAP-0.1UF
73
3
11
-1.5
21
-1.05
41
0.75
7
W0$2032
0
TEXT
8
LABEL_INFO
10
0.11176
20
1.19126
40
1.4224
1
0 0 0 0 0 1
41
0.75
7
W0$2032
0
TEXT
8
LABEL_ATTRIBUTE
10
0.11176
20
1.19126
40
1.4224
1
Ref.Des.
41
0.75
7
W0$2032
0
TEXT
8
PART_NAME_26
10
0.11176
20
1.19126
40
1.4224
1
C15
41
0.75
7
W0$2032
0
TEXT
8
PART_INFO
10
0.11176
20
-0.84074
40
1.4224
1
000000
41
0.75
7
W0$2032
0
TEXT
8
PART_PTS
10
0.11176
20
-2.87274
40
1.4224
1
1 2 
41
0.75
7
W0$2032
0
ENDBLK
0
BLOCK
2
PART_TOP_21
8
0
10
0
20
0
3
PART_TOP_21
70
64
0
INSERT
2
SYM_TOP_8
8
0
10
0
20
0
0
INSERT
2
PKG_5
8
0
10
0
20
0
0
TEXT
8
LABEL_INFO
10
-1.5
20
-0.324
40
1.0668
1
0 0 0 0 0 1
41
0.75
7
W0$2032
0
TEXT
8
LABEL_ATTRIBUTE
10
-1.5
20
-0.324
40
1.0668
1
Ref.Des.
41
0.75
7
W0$2032
0
TEXT
8
PART_NAME_27
10
-1.5
20
-0.324
40
1.0668
1
C29
41
0.75
7
W0$2032
0
TEXT
8
LABEL_INFO
10
-1.5
20
-1.05
40
1.0668
1
0 0 0 2 0 1
73
2
11
-1.5
21
-1.05
41
0.75
7
W0$2032
0
TEXT
8
LABEL_ATTRIBUTE
10
-1.5
20
-1.05
40
1.0668
1
PartType
73
2
11
-1.5
21
-1.05
41
0.75
7
W0$2032
0
TEXT
8
PART_TYPE_26
10
-1.5
20
-1.05
40
1.0668
1
CAP-0.1UF
73
3
11
-1.5
21
-1.05
41
0.75
7
W0$2032
0
TEXT
8
LABEL_INFO
10
-2.26314
20
0.6934193333
40
1.4224
1
0 324000000 0 0 0 1
50
180
41
0.75
7
W0$2032
0
TEXT
8
LABEL_ATTRIBUTE
10
-2.26314
20
0.6934193333
40
1.4224
1
Ref.Des.
50
180
41
0.75
7
W0$2032
0
TEXT
8
PART_NAME_26
10
-2.26314
20
0.6934193333
40
1.4224
1
C29
50
180
41
0.75
7
W0$2032
0
TEXT
8
PART_INFO
10
-2.26314
20
-1.3385806667
40
1.4224
1
000000
50
180
41
0.75
7
W0$2032
0
TEXT
8
PART_PTS
10
-2.26314
20
-3.3705806667
40
1.4224
1
1 2 
50
180
41
0.75
7
W0$2032
0
ENDBLK
0
BLOCK
2
PART_TOP_22
8
0
10
0
20
0
3
PART_TOP_22
70
64
0
INSERT
2
SYM_TOP_8
8
0
10
0
20
0
0
INSERT
2
PKG_5
8
0
10
0
20
0
0
TEXT
8
LABEL_INFO
10
-1.5
20
-0.324
40
1.0668
1
0 0 0 0 0 1
41
0.75
7
W0$2032
0
TEXT
8
LABEL_ATTRIBUTE
10
-1.5
20
-0.324
40
1.0668
1
Ref.Des.
41
0.75
7
W0$2032
0
TEXT
8
PART_NAME_27
10
-1.5
20
-0.324
40
1.0668
1
C38
41
0.75
7
W0$2032
0
TEXT
8
LABEL_INFO
10
-1.5
20
-1.05
40
1.0668
1
0 0 0 2 0 1
73
2
11
-1.5
21
-1.05
41
0.75
7
W0$2032
0
TEXT
8
LABEL_ATTRIBUTE
10
-1.5
20
-1.05
40
1.0668
1
PartType
73
2
11
-1.5
21
-1.05
41
0.75
7
W0$2032
0
TEXT
8
PART_TYPE_26
10
-1.5
20
-1.05
40
1.0668
1
CAP-0.1UF
73
3
11
-1.5
21
-1.05
41
0.75
7
W0$2032
0
TEXT
8
LABEL_INFO
10
-1.11252
20
-2.39776
40
1.4224
1
0 0 0 0 0 1
41
0.75
7
W0$2032
0
TEXT
8
LABEL_ATTRIBUTE
10
-1.11252
20
-2.39776
40
1.4224
1
Ref.Des.
41
0.75
7
W0$2032
0
TEXT
8
PART_NAME_26
10
-1.11252
20
-2.39776
40
1.4224
1
C38
41
0.75
7
W0$2032
0
TEXT
8
PART_INFO
10
-1.11252
20
-4.42976
40
1.4224
1
000000
41
0.75
7
W0$2032
0
TEXT
8
PART_PTS
10
-1.11252
20
-6.46176
40
1.4224
1
1 2 
41
0.75
7
W0$2032
0
ENDBLK
0
BLOCK
2
PART_TOP_23
8
0
10
0
20
0
3
PART_TOP_23
70
64
0
INSERT
2
SYM_TOP_8
8
0
10
0
20
0
0
INSERT
2
PKG_5
8
0
10
0
20
0
0
TEXT
8
LABEL_INFO
10
-1.5
20
-0.324
40
1.0668
1
0 0 0 0 0 1
41
0.75
7
W0$2032
0
TEXT
8
LABEL_ATTRIBUTE
10
-1.5
20
-0.324
40
1.0668
1
Ref.Des.
41
0.75
7
W0$2032
0
TEXT
8
PART_NAME_27
10
-1.5
20
-0.324
40
1.0668
1
C35
41
0.75
7
W0$2032
0
TEXT
8
LABEL_INFO
10
-1.5
20
-1.05
40
1.0668
1
0 0 0 2 0 1
73
2
11
-1.5
21
-1.05
41
0.75
7
W0$2032
0
TEXT
8
LABEL_ATTRIBUTE
10
-1.5
20
-1.05
40
1.0668
1
PartType
73
2
11
-1.5
21
-1.05
41
0.75
7
W0$2032
0
TEXT
8
PART_TYPE_26
10
-1.5
20
-1.05
40
1.0668
1
CAP-0.1UF
73
3
11
-1.5
21
-1.05
41
0.75
7
W0$2032
0
TEXT
8
LABEL_INFO
10
-1.4605
20
1.22174
40
1.4224
1
0 0 0 0 0 1
41
0.75
7
W0$2032
0
TEXT
8
LABEL_ATTRIBUTE
10
-1.4605
20
1.22174
40
1.4224
1
Ref.Des.
41
0.75
7
W0$2032
0
TEXT
8
PART_NAME_26
10
-1.4605
20
1.22174
40
1.4224
1
C35
41
0.75
7
W0$2032
0
TEXT
8
PART_INFO
10
-1.4605
20
-0.81026
40
1.4224
1
000000
41
0.75
7
W0$2032
0
TEXT
8
PART_PTS
10
-1.4605
20
-2.84226
40
1.4224
1
1 2 
41
0.75
7
W0$2032
0
ENDBLK
0
BLOCK
2
PART_TOP_24
8
0
10
0
20
0
3
PART_TOP_24
70
64
0
INSERT
2
SYM_TOP_8
8
0
10
0
20
0
0
INSERT
2
PKG_5
8
0
10
0
20
0
0
TEXT
8
LABEL_INFO
10
-1.5
20
-0.324
40
1.0668
1
0 0 0 0 0 1
41
0.75
7
W0$2032
0
TEXT
8
LABEL_ATTRIBUTE
10
-1.5
20
-0.324
40
1.0668
1
Ref.Des.
41
0.75
7
W0$2032
0
TEXT
8
PART_NAME_27
10
-1.5
20
-0.324
40
1.0668
1
C36
41
0.75
7
W0$2032
0
TEXT
8
LABEL_INFO
10
-1.5
20
-1.05
40
1.0668
1
0 0 0 2 0 1
73
2
11
-1.5
21
-1.05
41
0.75
7
W0$2032
0
TEXT
8
LABEL_ATTRIBUTE
10
-1.5
20
-1.05
40
1.0668
1
PartType
73
2
11
-1.5
21
-1.05
41
0.75
7
W0$2032
0
TEXT
8
PART_TYPE_26
10
-1.5
20
-1.05
40
1.0668
1
CAP-0.1UF
73
3
11
-1.5
21
-1.05
41
0.75
7
W0$2032
0
TEXT
8
LABEL_INFO
10
-1.4859
20
1.10744
40
1.4224
1
0 0 0 0 0 1
41
0.75
7
W0$2032
0
TEXT
8
LABEL_ATTRIBUTE
10
-1.4859
20
1.10744
40
1.4224
1
Ref.Des.
41
0.75
7
W0$2032
0
TEXT
8
PART_NAME_26
10
-1.4859
20
1.10744
40
1.4224
1
C36
41
0.75
7
W0$2032
0
TEXT
8
PART_INFO
10
-1.4859
20
-0.92456
40
1.4224
1
000000
41
0.75
7
W0$2032
0
TEXT
8
PART_PTS
10
-1.4859
20
-2.95656
40
1.4224
1
1 2 
41
0.75
7
W0$2032
0
ENDBLK
0
BLOCK
2
PART_TOP_25
8
0
10
0
20
0
3
PART_TOP_25
70
64
0
INSERT
2
SYM_TOP_6
8
0
10
0
20
0
0
INSERT
2
PKG_6
8
0
10
0
20
0
0
TEXT
8
LABEL_INFO
10
-1.5
20
-0.5
40
1.0668
1
0 0 0 0 0 1
41
0.75
7
W0$2032
0
TEXT
8
LABEL_ATTRIBUTE
10
-1.5
20
-0.5
40
1.0668
1
Ref.Des.
41
0.75
7
W0$2032
0
TEXT
8
PART_NAME_27
10
-1.5
20
-0.5
40
1.0668
1
R8
41
0.75
7
W0$2032
0
TEXT
8
LABEL_INFO
10
-1.5
20
-1
40
1.0668
1
0 0 0 2 0 1
73
2
11
-1.5
21
-1
41
0.75
7
W0$2032
0
TEXT
8
LABEL_ATTRIBUTE
10
-1.5
20
-1
40
1.0668
1
PartType
73
2
11
-1.5
21
-1
41
0.75
7
W0$2032
0
TEXT
8
PART_TYPE_26
10
-1.5
20
-1
40
1.0668
1
RES-20K
73
3
11
-1.5
21
-1
41
0.75
7
W0$2032
0
TEXT
8
LABEL_INFO
10
1.905
20
0.889
40
1.4224
1
0 486000000 0 0 0 1
50
270
41
0.75
7
W0$2032
0
TEXT
8
LABEL_ATTRIBUTE
10
1.905
20
0.889
40
1.4224
1
Ref.Des.
50
270
41
0.75
7
W0$2032
0
TEXT
8
PART_NAME_26
10
1.905
20
0.889
40
1.4224
1
R8
50
270
41
0.75
7
W0$2032
0
TEXT
8
PART_INFO
10
1.905
20
-1.143
40
1.4224
1
000000
50
270
41
0.75
7
W0$2032
0
TEXT
8
PART_PTS
10
1.905
20
-3.175
40
1.4224
1
1 2 
50
270
41
0.75
7
W0$2032
0
ENDBLK
0
BLOCK
2
PART_TOP_26
8
0
10
0
20
0
3
PART_TOP_26
70
64
0
INSERT
2
SYM_TOP_6
8
0
10
0
20
0
0
INSERT
2
PKG_7
8
0
10
0
20
0
0
TEXT
8
LABEL_INFO
10
-1.5
20
-0.5
40
1.0668
1
0 0 0 0 0 1
41
0.75
7
W0$2032
0
TEXT
8
LABEL_ATTRIBUTE
10
-1.5
20
-0.5
40
1.0668
1
Ref.Des.
41
0.75
7
W0$2032
0
TEXT
8
PART_NAME_27
10
-1.5
20
-0.5
40
1.0668
1
R9
41
0.75
7
W0$2032
0
TEXT
8
LABEL_INFO
10
-1.5
20
-1
40
1.0668
1
0 0 0 2 0 1
73
2
11
-1.5
21
-1
41
0.75
7
W0$2032
0
TEXT
8
LABEL_ATTRIBUTE
10
-1.5
20
-1
40
1.0668
1
PartType
73
2
11
-1.5
21
-1
41
0.75
7
W0$2032
0
TEXT
8
PART_TYPE_26
10
-1.5
20
-1
40
1.0668
1
RES-47E
73
3
11
-1.5
21
-1
41
0.75
7
W0$2032
0
TEXT
8
LABEL_INFO
10
-2.1589993333
20
-1.016
40
1.4224
1
0 162000000 0 0 0 1
50
90
41
0.75
7
W0$2032
0
TEXT
8
LABEL_ATTRIBUTE
10
-2.1589993333
20
-1.016
40
1.4224
1
Ref.Des.
50
90
41
0.75
7
W0$2032
0
TEXT
8
PART_NAME_26
10
-2.1589993333
20
-1.016
40
1.4224
1
R9
50
90
41
0.75
7
W0$2032
0
TEXT
8
PART_INFO
10
-2.1589993333
20
-3.048
40
1.4224
1
000000
50
90
41
0.75
7
W0$2032
0
TEXT
8
PART_PTS
10
-2.1589993333
20
-5.08
40
1.4224
1
1 2 
50
90
41
0.75
7
W0$2032
0
ENDBLK
0
BLOCK
2
PART_TOP_27
8
0
10
0
20
0
3
PART_TOP_27
70
64
0
INSERT
2
SYM_TOP_10
8
0
10
0
20
0
0
INSERT
2
PKG_8
8
0
10
0
20
0
0
TEXT
8
LABEL_INFO
10
-0.5079993333
20
-3.048
40
1.4224
1
0 324000000 0 0 0 1
50
180
41
0.75
7
W0$2032
0
TEXT
8
LABEL_ATTRIBUTE
10
-0.5079993333
20
-3.048
40
1.4224
1
Ref.Des.
50
180
41
0.75
7
W0$2032
0
TEXT
8
PART_NAME_26
10
-0.5079993333
20
-3.048
40
1.4224
1
R10
50
180
41
0.75
7
W0$2032
0
TEXT
8
LABEL_INFO
10
-1.25
20
-2.15
40
1.0668
1
0 0 0 2 0 1
73
2
11
-1.25
21
-2.15
41
0.75
7
W0$2032
0
TEXT
8
LABEL_ATTRIBUTE
10
-1.25
20
-2.15
40
1.0668
1
PartType
73
2
11
-1.25
21
-2.15
41
0.75
7
W0$2032
0
TEXT
8
PART_TYPE_26
10
-1.25
20
-2.15
40
1.0668
1
RES-0.0095E
73
3
11
-1.25
21
-2.15
41
0.75
7
W0$2032
0
TEXT
8
LABEL_INFO
10
-1.5
20
-0.5
40
1.0668
1
0 0 0 0 0 1
41
0.75
7
W0$2032
0
TEXT
8
LABEL_ATTRIBUTE
10
-1.5
20
-0.5
40
1.0668
1
Ref.Des.
41
0.75
7
W0$2032
0
TEXT
8
PART_NAME_27
10
-1.5
20
-0.5
40
1.0668
1
R10
41
0.75
7
W0$2032
0
TEXT
8
PART_INFO
10
-1.5
20
-2.024
40
1.0668
1
000000
41
0.75
7
W0$2032
0
TEXT
8
PART_PTS
10
-1.5
20
-3.548
40
1.0668
1
1 2 
41
0.75
7
W0$2032
0
ENDBLK
0
BLOCK
2
PART_TOP_28
8
0
10
0
20
0
3
PART_TOP_28
70
64
0
INSERT
2
SYM_TOP_6
8
0
10
0
20
0
0
INSERT
2
PKG_9
8
0
10
0
20
0
0
TEXT
8
LABEL_INFO
10
-1.5
20
-0.5
40
1.0668
1
0 0 0 0 0 1
41
0.75
7
W0$2032
0
TEXT
8
LABEL_ATTRIBUTE
10
-1.5
20
-0.5
40
1.0668
1
Ref.Des.
41
0.75
7
W0$2032
0
TEXT
8
PART_NAME_27
10
-1.5
20
-0.5
40
1.0668
1
R11
41
0.75
7
W0$2032
0
TEXT
8
LABEL_INFO
10
-1.5
20
-1
40
1.0668
1
0 0 0 2 0 1
73
2
11
-1.5
21
-1
41
0.75
7
W0$2032
0
TEXT
8
LABEL_ATTRIBUTE
10
-1.5
20
-1
40
1.0668
1
PartType
73
2
11
-1.5
21
-1
41
0.75
7
W0$2032
0
TEXT
8
PART_TYPE_26
10
-1.5
20
-1
40
1.0668
1
RES-10E
73
3
11
-1.5
21
-1
41
0.75
7
W0$2032
0
TEXT
8
LABEL_INFO
10
2.286
20
0.127
40
1.4224
1
0 486000000 0 0 0 1
50
270
41
0.75
7
W0$2032
0
TEXT
8
LABEL_ATTRIBUTE
10
2.286
20
0.127
40
1.4224
1
Ref.Des.
50
270
41
0.75
7
W0$2032
0
TEXT
8
PART_NAME_26
10
2.286
20
0.127
40
1.4224
1
R11
50
270
41
0.75
7
W0$2032
0
TEXT
8
PART_INFO
10
2.286
20
-1.905
40
1.4224
1
000000
50
270
41
0.75
7
W0$2032
0
TEXT
8
PART_PTS
10
2.286
20
-3.937
40
1.4224
1
1 2 
50
270
41
0.75
7
W0$2032
0
ENDBLK
0
BLOCK
2
PART_TOP_29
8
0
10
0
20
0
3
PART_TOP_29
70
64
0
INSERT
2
SYM_TOP_7
8
0
10
0
20
0
0
INSERT
2
PKG_3
8
0
10
0
20
0
0
TEXT
8
LABEL_INFO
10
3.126994
20
-5.2324
40
1.778
1
0 0 0 2 0 1
73
2
11
3.126994
21
-5.2324
41
0.75
7
W0$254
0
TEXT
8
LABEL_ATTRIBUTE
10
3.126994
20
-5.2324
40
1.778
1
PartType
73
2
11
3.126994
21
-5.2324
41
0.75
7
W0$254
0
TEXT
8
PART_TYPE_01
10
3.126994
20
-5.2324
40
1.778
1
CON-DB9
73
3
11
3.126994
21
-5.2324
41
0.75
7
W0$254
0
TEXT
8
LABEL_INFO
10
2.999994
20
-7.2644
40
1.778
1
0 0 0 0 0 1
41
0.75
7
W0$254
0
TEXT
8
LABEL_ATTRIBUTE
10
2.999994
20
-7.2644
40
1.778
1
Ref.Des.
41
0.75
7
W0$254
0
TEXT
8
PART_NAME_27
10
2.999994
20
-7.2644
40
1.778
1
J4
41
0.75
7
W0$254
0
TEXT
8
LABEL_INFO
10
-10.683
20
2.55
40
1.4224
1
0 0 0 0 0 1
41
0.75
7
W0$2032
0
TEXT
8
LABEL_ATTRIBUTE
10
-10.683
20
2.55
40
1.4224
1
Ref.Des.
41
0.75
7
W0$2032
0
TEXT
8
PART_NAME_26
10
-10.683
20
2.55
40
1.4224
1
J4
41
0.75
7
W0$2032
0
TEXT
8
PART_INFO
10
-10.683
20
0.518
40
1.4224
1
000000
41
0.75
7
W0$2032
0
TEXT
8
PART_PTS
10
-10.683
20
-1.514
40
1.4224
1
1 2 3 4 5 10 11 
41
0.75
7
W0$2032
0
ENDBLK
0
BLOCK
2
PART_TOP_30
8
0
10
0
20
0
3
PART_TOP_30
70
64
0
INSERT
2
SYM_TOP_5
8
0
10
0
20
0
0
INSERT
2
PKG_2
8
0
10
0
20
0
0
TEXT
8
LABEL_INFO
10
-1.397
20
0
40
0.889
1
0 0 0 0 0 1
41
0.75
7
W0$2032
0
TEXT
8
LABEL_ATTRIBUTE
10
-1.397
20
0
40
0.889
1
Ref.Des.
41
0.75
7
W0$2032
0
TEXT
8
PART_NAME_27
10
-1.397
20
0
40
0.889
1
TP_GND
41
0.75
7
W0$2032
0
TEXT
8
LABEL_INFO
10
-1.143
20
-1.524
40
0.889
1
0 0 0 2 0 1
73
2
11
-1.143
21
-1.524
41
0.75
7
W0$2032
0
TEXT
8
LABEL_ATTRIBUTE
10
-1.143
20
-1.524
40
0.889
1
PartType
73
2
11
-1.143
21
-1.524
41
0.75
7
W0$2032
0
TEXT
8
PART_TYPE_26
10
-1.143
20
-1.524
40
0.889
1
TESTPOINT
73
3
11
-1.143
21
-1.524
41
0.75
7
W0$2032
0
TEXT
8
LABEL_INFO
10
-7.5946
20
-0.6096
40
1.4224
1
0 0 0 0 0 1
41
0.75
7
W0$2032
0
TEXT
8
LABEL_ATTRIBUTE
10
-7.5946
20
-0.6096
40
1.4224
1
Ref.Des.
41
0.75
7
W0$2032
0
TEXT
8
PART_NAME_26
10
-7.5946
20
-0.6096
40
1.4224
1
TP_GND
41
0.75
7
W0$2032
0
TEXT
8
PART_INFO
10
-7.5946
20
-2.6416
40
1.4224
1
000000
41
0.75
7
W0$2032
0
TEXT
8
PART_PTS
10
-7.5946
20
-4.6736
40
1.4224
1
1 
41
0.75
7
W0$2032
0
ENDBLK
0
BLOCK
2
PART_TOP_31
8
0
10
0
20
0
3
PART_TOP_31
70
64
0
INSERT
2
SYM_TOP_5
8
0
10
0
20
0
0
INSERT
2
PKG_2
8
0
10
0
20
0
0
TEXT
8
LABEL_INFO
10
-1.397
20
0
40
0.889
1
0 0 0 0 0 1
41
0.75
7
W0$2032
0
TEXT
8
LABEL_ATTRIBUTE
10
-1.397
20
0
40
0.889
1
Ref.Des.
41
0.75
7
W0$2032
0
TEXT
8
PART_NAME_27
10
-1.397
20
0
40
0.889
1
TP_GND1
41
0.75
7
W0$2032
0
TEXT
8
LABEL_INFO
10
-1.143
20
-1.524
40
0.889
1
0 0 0 2 0 1
73
2
11
-1.143
21
-1.524
41
0.75
7
W0$2032
0
TEXT
8
LABEL_ATTRIBUTE
10
-1.143
20
-1.524
40
0.889
1
PartType
73
2
11
-1.143
21
-1.524
41
0.75
7
W0$2032
0
TEXT
8
PART_TYPE_26
10
-1.143
20
-1.524
40
0.889
1
TESTPOINT
73
3
11
-1.143
21
-1.524
41
0.75
7
W0$2032
0
TEXT
8
LABEL_INFO
10
-7.96036
20
0.05588
40
1.4224
1
0 0 0 0 0 1
41
0.75
7
W0$2032
0
TEXT
8
LABEL_ATTRIBUTE
10
-7.96036
20
0.05588
40
1.4224
1
Ref.Des.
41
0.75
7
W0$2032
0
TEXT
8
PART_NAME_26
10
-7.96036
20
0.05588
40
1.4224
1
TP_GND1
41
0.75
7
W0$2032
0
TEXT
8
PART_INFO
10
-7.96036
20
-1.97612
40
1.4224
1
000000
41
0.75
7
W0$2032
0
TEXT
8
PART_PTS
10
-7.96036
20
-4.00812
40
1.4224
1
1 
41
0.75
7
W0$2032
0
ENDBLK
0
BLOCK
2
PART_TOP_32
8
0
10
0
20
0
3
PART_TOP_32
70
64
0
INSERT
2
SYM_TOP_5
8
0
10
0
20
0
0
INSERT
2
PKG_2
8
0
10
0
20
0
0
TEXT
8
LABEL_INFO
10
-1.397
20
0
40
0.889
1
0 0 0 0 0 1
41
0.75
7
W0$2032
0
TEXT
8
LABEL_ATTRIBUTE
10
-1.397
20
0
40
0.889
1
Ref.Des.
41
0.75
7
W0$2032
0
TEXT
8
PART_NAME_27
10
-1.397
20
0
40
0.889
1
TP_GND2
41
0.75
7
W0$2032
0
TEXT
8
LABEL_INFO
10
-1.143
20
-1.524
40
0.889
1
0 0 0 2 0 1
73
2
11
-1.143
21
-1.524
41
0.75
7
W0$2032
0
TEXT
8
LABEL_ATTRIBUTE
10
-1.143
20
-1.524
40
0.889
1
PartType
73
2
11
-1.143
21
-1.524
41
0.75
7
W0$2032
0
TEXT
8
PART_TYPE_26
10
-1.143
20
-1.524
40
0.889
1
TESTPOINT
73
3
11
-1.143
21
-1.524
41
0.75
7
W0$2032
0
TEXT
8
LABEL_INFO
10
-2.413
20
1.397
40
1.4224
1
0 0 0 0 0 1
41
0.75
7
W0$2032
0
TEXT
8
LABEL_ATTRIBUTE
10
-2.413
20
1.397
40
1.4224
1
Ref.Des.
41
0.75
7
W0$2032
0
TEXT
8
PART_NAME_26
10
-2.413
20
1.397
40
1.4224
1
TP_GND2
41
0.75
7
W0$2032
0
TEXT
8
PART_INFO
10
-2.413
20
-0.635
40
1.4224
1
000000
41
0.75
7
W0$2032
0
TEXT
8
PART_PTS
10
-2.413
20
-2.667
40
1.4224
1
1 
41
0.75
7
W0$2032
0
ENDBLK
0
BLOCK
2
PART_TOP_33
8
0
10
0
20
0
3
PART_TOP_33
70
64
0
INSERT
2
SYM_TOP_11
8
0
10
0
20
0
0
INSERT
2
PKG_10
8
0
10
0
20
0
0
TEXT
8
LABEL_INFO
10
9.56818
20
-3.7134793333
40
1.4224
1
0 486000000 0 0 0 1
50
270
41
0.75
7
W0$2032
0
TEXT
8
LABEL_ATTRIBUTE
10
9.56818
20
-3.7134793333
40
1.4224
1
Ref.Des.
50
270
41
0.75
7
W0$2032
0
TEXT
8
PART_NAME_26
10
9.56818
20
-3.7134793333
40
1.4224
1
S1
50
270
41
0.75
7
W0$2032
0
TEXT
8
LABEL_INFO
10
0
20
0
40
0.889
1
0 0 0 2 0 1
73
2
11
0
21
0
41
0.75
7
W0$127
0
TEXT
8
LABEL_ATTRIBUTE
10
0
20
0
40
0.889
1
PartType
73
2
11
0
21
0
41
0.75
7
W0$127
0
TEXT
8
PART_TYPE_01
10
0
20
0
40
0.889
1
SW_SLIDE-DPST_2P
73
3
11
0
21
0
41
0.75
7
W0$127
0
TEXT
8
LABEL_INFO
10
2.032
20
-11.938
40
1.4224
1
0 0 0 0 0 1
41
0.75
7
W0$2032
0
TEXT
8
LABEL_ATTRIBUTE
10
2.032
20
-11.938
40
1.4224
1
Ref.Des.
41
0.75
7
W0$2032
0
TEXT
8
PART_NAME_27
10
2.032
20
-11.938
40
1.4224
1
S1
41
0.75
7
W0$2032
0
TEXT
8
PART_INFO
10
2.032
20
-13.97
40
1.4224
1
000000
41
0.75
7
W0$2032
0
TEXT
8
PART_PTS
10
2.032
20
-16.002
40
1.4224
1
1 2 3 4 
41
0.75
7
W0$2032
0
ENDBLK
0
BLOCK
2
PART_TOP_34
8
0
10
0
20
0
3
PART_TOP_34
70
64
0
INSERT
2
SYM_TOP_11
8
0
10
0
20
0
0
INSERT
2
PKG_10
8
0
10
0
20
0
0
TEXT
8
LABEL_INFO
10
4.11988
20
-5.27812
40
1.4224
1
0 486000000 0 0 0 1
50
270
41
0.75
7
W0$2032
0
TEXT
8
LABEL_ATTRIBUTE
10
4.11988
20
-5.27812
40
1.4224
1
Ref.Des.
50
270
41
0.75
7
W0$2032
0
TEXT
8
PART_NAME_26
10
4.11988
20
-5.27812
40
1.4224
1
S2
50
270
41
0.75
7
W0$2032
0
TEXT
8
LABEL_INFO
10
0
20
0
40
0.889
1
0 0 0 2 0 1
73
2
11
0
21
0
41
0.75
7
W0$127
0
TEXT
8
LABEL_ATTRIBUTE
10
0
20
0
40
0.889
1
PartType
73
2
11
0
21
0
41
0.75
7
W0$127
0
TEXT
8
PART_TYPE_01
10
0
20
0
40
0.889
1
SW_SLIDE-DPST_2P
73
3
11
0
21
0
41
0.75
7
W0$127
0
TEXT
8
LABEL_INFO
10
1.87
20
-7.01
40
1.4224
1
0 0 0 0 0 1
41
0.75
7
W0$2032
0
TEXT
8
LABEL_ATTRIBUTE
10
1.87
20
-7.01
40
1.4224
1
Ref.Des.
41
0.75
7
W0$2032
0
TEXT
8
PART_NAME_27
10
1.87
20
-7.01
40
1.4224
1
S2
41
0.75
7
W0$2032
0
TEXT
8
PART_INFO
10
1.87
20
-9.042
40
1.4224
1
000000
41
0.75
7
W0$2032
0
TEXT
8
PART_PTS
10
1.87
20
-11.074
40
1.4224
1
1 2 3 4 
41
0.75
7
W0$2032
0
ENDBLK
0
BLOCK
2
PART_TOP_35
8
0
10
0
20
0
3
PART_TOP_35
70
64
0
INSERT
2
SYM_TOP_12
8
0
10
0
20
0
0
INSERT
2
PKG_11
8
0
10
0
20
0
0
TEXT
8
LABEL_INFO
10
-1.5
20
-0.5
40
1.0668
1
0 0 0 0 0 1
41
0.75
7
W0$2032
0
TEXT
8
LABEL_ATTRIBUTE
10
-1.5
20
-0.5
40
1.0668
1
Ref.Des.
41
0.75
7
W0$2032
0
TEXT
8
PART_NAME_27
10
-1.5
20
-0.5
40
1.0668
1
C7
41
0.75
7
W0$2032
0
TEXT
8
LABEL_INFO
10
-1.1
20
-2.8
40
1.0668
1
0 0 0 2 0 1
73
2
11
-1.1
21
-2.8
41
0.75
7
W0$2032
0
TEXT
8
LABEL_ATTRIBUTE
10
-1.1
20
-2.8
40
1.0668
1
PartType
73
2
11
-1.1
21
-2.8
41
0.75
7
W0$2032
0
TEXT
8
PART_TYPE_26
10
-1.1
20
-2.8
40
1.0668
1
CAP-100UF-TANTALUM
73
3
11
-1.1
21
-2.8
41
0.75
7
W0$2032
0
TEXT
8
LABEL_INFO
10
8.001
20
0.635
40
1.4224
1
0 162000000 0 0 0 1
50
90
41
0.75
7
W0$2032
0
TEXT
8
LABEL_ATTRIBUTE
10
8.001
20
0.635
40
1.4224
1
Ref.Des.
50
90
41
0.75
7
W0$2032
0
TEXT
8
PART_NAME_26
10
8.001
20
0.635
40
1.4224
1
C7
50
90
41
0.75
7
W0$2032
0
TEXT
8
PART_INFO
10
8.001
20
-1.397
40
1.4224
1
000000
50
90
41
0.75
7
W0$2032
0
TEXT
8
PART_PTS
10
8.001
20
-3.429
40
1.4224
1
1 2 
50
90
41
0.75
7
W0$2032
0
ENDBLK
0
BLOCK
2
PART_TOP_36
8
0
10
0
20
0
3
PART_TOP_36
70
64
0
INSERT
2
SYM_TOP_9
8
0
10
0
20
0
0
INSERT
2
PKG_12
8
0
10
0
20
0
0
TEXT
8
LABEL_INFO
10
2.667
20
0.508
40
1.4224
1
0 486000000 0 0 0 1
50
270
41
0.75
7
W0$2032
0
TEXT
8
LABEL_ATTRIBUTE
10
2.667
20
0.508
40
1.4224
1
Ref.Des.
50
270
41
0.75
7
W0$2032
0
TEXT
8
PART_NAME_26
10
2.667
20
0.508
40
1.4224
1
C1
50
270
41
0.75
7
W0$2032
0
TEXT
8
LABEL_INFO
10
-1.5
20
-1.25
40
1.0668
1
0 0 0 2 0 1
73
2
11
-1.5
21
-1.25
41
0.75
7
W0$2032
0
TEXT
8
LABEL_ATTRIBUTE
10
-1.5
20
-1.25
40
1.0668
1
PartType
73
2
11
-1.5
21
-1.25
41
0.75
7
W0$2032
0
TEXT
8
PART_TYPE_26
10
-1.5
20
-1.25
40
1.0668
1
CAP-10UF
73
3
11
-1.5
21
-1.25
41
0.75
7
W0$2032
0
TEXT
8
LABEL_INFO
10
-1.5
20
-0.5
40
1.0668
1
0 0 0 0 0 1
41
0.75
7
W0$2032
0
TEXT
8
LABEL_ATTRIBUTE
10
-1.5
20
-0.5
40
1.0668
1
Ref.Des.
41
0.75
7
W0$2032
0
TEXT
8
PART_NAME_27
10
-1.5
20
-0.5
40
1.0668
1
C1
41
0.75
7
W0$2032
0
TEXT
8
PART_INFO
10
-1.5
20
-2.024
40
1.0668
1
000000
41
0.75
7
W0$2032
0
TEXT
8
PART_PTS
10
-1.5
20
-3.548
40
1.0668
1
1 2 
41
0.75
7
W0$2032
0
ENDBLK
0
BLOCK
2
PART_TOP_37
8
0
10
0
20
0
3
PART_TOP_37
70
64
0
INSERT
2
SYM_TOP_9
8
0
10
0
20
0
0
INSERT
2
PKG_12
8
0
10
0
20
0
0
TEXT
8
LABEL_INFO
10
5.37718
20
-0.9017
40
1.4224
1
0 162000000 0 0 0 1
50
90
41
0.75
7
W0$2032
0
TEXT
8
LABEL_ATTRIBUTE
10
5.37718
20
-0.9017
40
1.4224
1
Ref.Des.
50
90
41
0.75
7
W0$2032
0
TEXT
8
PART_NAME_26
10
5.37718
20
-0.9017
40
1.4224
1
C10
50
90
41
0.75
7
W0$2032
0
TEXT
8
LABEL_INFO
10
-1.5
20
-1.25
40
1.0668
1
0 0 0 2 0 1
73
2
11
-1.5
21
-1.25
41
0.75
7
W0$2032
0
TEXT
8
LABEL_ATTRIBUTE
10
-1.5
20
-1.25
40
1.0668
1
PartType
73
2
11
-1.5
21
-1.25
41
0.75
7
W0$2032
0
TEXT
8
PART_TYPE_26
10
-1.5
20
-1.25
40
1.0668
1
CAP-10UF
73
3
11
-1.5
21
-1.25
41
0.75
7
W0$2032
0
TEXT
8
LABEL_INFO
10
-1.5
20
-0.5
40
1.0668
1
0 0 0 0 0 1
41
0.75
7
W0$2032
0
TEXT
8
LABEL_ATTRIBUTE
10
-1.5
20
-0.5
40
1.0668
1
Ref.Des.
41
0.75
7
W0$2032
0
TEXT
8
PART_NAME_27
10
-1.5
20
-0.5
40
1.0668
1
C10
41
0.75
7
W0$2032
0
TEXT
8
PART_INFO
10
-1.5
20
-2.024
40
1.0668
1
000000
41
0.75
7
W0$2032
0
TEXT
8
PART_PTS
10
-1.5
20
-3.548
40
1.0668
1
1 2 
41
0.75
7
W0$2032
0
ENDBLK
0
BLOCK
2
PART_TOP_38
8
0
10
0
20
0
3
PART_TOP_38
70
64
0
INSERT
2
SYM_TOP_9
8
0
10
0
20
0
0
INSERT
2
PKG_12
8
0
10
0
20
0
0
TEXT
8
LABEL_INFO
10
6.02488
20
0.64516
40
1.4224
1
0 324000000 0 0 0 1
50
180
41
0.75
7
W0$2032
0
TEXT
8
LABEL_ATTRIBUTE
10
6.02488
20
0.64516
40
1.4224
1
Ref.Des.
50
180
41
0.75
7
W0$2032
0
TEXT
8
PART_NAME_26
10
6.02488
20
0.64516
40
1.4224
1
C12
50
180
41
0.75
7
W0$2032
0
TEXT
8
LABEL_INFO
10
-1.5
20
-1.25
40
1.0668
1
0 0 0 2 0 1
73
2
11
-1.5
21
-1.25
41
0.75
7
W0$2032
0
TEXT
8
LABEL_ATTRIBUTE
10
-1.5
20
-1.25
40
1.0668
1
PartType
73
2
11
-1.5
21
-1.25
41
0.75
7
W0$2032
0
TEXT
8
PART_TYPE_26
10
-1.5
20
-1.25
40
1.0668
1
CAP-10UF
73
3
11
-1.5
21
-1.25
41
0.75
7
W0$2032
0
TEXT
8
LABEL_INFO
10
-1.5
20
-0.5
40
1.0668
1
0 0 0 0 0 1
41
0.75
7
W0$2032
0
TEXT
8
LABEL_ATTRIBUTE
10
-1.5
20
-0.5
40
1.0668
1
Ref.Des.
41
0.75
7
W0$2032
0
TEXT
8
PART_NAME_27
10
-1.5
20
-0.5
40
1.0668
1
C12
41
0.75
7
W0$2032
0
TEXT
8
PART_INFO
10
-1.5
20
-2.024
40
1.0668
1
000000
41
0.75
7
W0$2032
0
TEXT
8
PART_PTS
10
-1.5
20
-3.548
40
1.0668
1
1 2 
41
0.75
7
W0$2032
0
ENDBLK
0
BLOCK
2
PART_TOP_39
8
0
10
0
20
0
3
PART_TOP_39
70
64
0
INSERT
2
SYM_TOP_9
8
0
10
0
20
0
0
INSERT
2
PKG_12
8
0
10
0
20
0
0
TEXT
8
LABEL_INFO
10
4.79806
20
0.5207
40
1.4224
1
0 324000000 0 0 0 1
50
180
41
0.75
7
W0$2032
0
TEXT
8
LABEL_ATTRIBUTE
10
4.79806
20
0.5207
40
1.4224
1
Ref.Des.
50
180
41
0.75
7
W0$2032
0
TEXT
8
PART_NAME_26
10
4.79806
20
0.5207
40
1.4224
1
C14
50
180
41
0.75
7
W0$2032
0
TEXT
8
LABEL_INFO
10
-1.5
20
-1.25
40
1.0668
1
0 0 0 2 0 1
73
2
11
-1.5
21
-1.25
41
0.75
7
W0$2032
0
TEXT
8
LABEL_ATTRIBUTE
10
-1.5
20
-1.25
40
1.0668
1
PartType
73
2
11
-1.5
21
-1.25
41
0.75
7
W0$2032
0
TEXT
8
PART_TYPE_26
10
-1.5
20
-1.25
40
1.0668
1
CAP-10UF
73
3
11
-1.5
21
-1.25
41
0.75
7
W0$2032
0
TEXT
8
LABEL_INFO
10
-1.5
20
-0.5
40
1.0668
1
0 0 0 0 0 1
41
0.75
7
W0$2032
0
TEXT
8
LABEL_ATTRIBUTE
10
-1.5
20
-0.5
40
1.0668
1
Ref.Des.
41
0.75
7
W0$2032
0
TEXT
8
PART_NAME_27
10
-1.5
20
-0.5
40
1.0668
1
C14
41
0.75
7
W0$2032
0
TEXT
8
PART_INFO
10
-1.5
20
-2.024
40
1.0668
1
000000
41
0.75
7
W0$2032
0
TEXT
8
PART_PTS
10
-1.5
20
-3.548
40
1.0668
1
1 2 
41
0.75
7
W0$2032
0
ENDBLK
0
BLOCK
2
PART_TOP_40
8
0
10
0
20
0
3
PART_TOP_40
70
64
0
INSERT
2
SYM_TOP_9
8
0
10
0
20
0
0
INSERT
2
PKG_12
8
0
10
0
20
0
0
TEXT
8
LABEL_INFO
10
-5.03936
20
-0.17018
40
1.4224
1
0 0 0 0 0 1
41
0.75
7
W0$2032
0
TEXT
8
LABEL_ATTRIBUTE
10
-5.03936
20
-0.17018
40
1.4224
1
Ref.Des.
41
0.75
7
W0$2032
0
TEXT
8
PART_NAME_26
10
-5.03936
20
-0.17018
40
1.4224
1
C16
41
0.75
7
W0$2032
0
TEXT
8
LABEL_INFO
10
-1.5
20
-1.25
40
1.0668
1
0 0 0 2 0 1
73
2
11
-1.5
21
-1.25
41
0.75
7
W0$2032
0
TEXT
8
LABEL_ATTRIBUTE
10
-1.5
20
-1.25
40
1.0668
1
PartType
73
2
11
-1.5
21
-1.25
41
0.75
7
W0$2032
0
TEXT
8
PART_TYPE_26
10
-1.5
20
-1.25
40
1.0668
1
CAP-10UF
73
3
11
-1.5
21
-1.25
41
0.75
7
W0$2032
0
TEXT
8
LABEL_INFO
10
-1.5
20
-0.5
40
1.0668
1
0 0 0 0 0 1
41
0.75
7
W0$2032
0
TEXT
8
LABEL_ATTRIBUTE
10
-1.5
20
-0.5
40
1.0668
1
Ref.Des.
41
0.75
7
W0$2032
0
TEXT
8
PART_NAME_27
10
-1.5
20
-0.5
40
1.0668
1
C16
41
0.75
7
W0$2032
0
TEXT
8
PART_INFO
10
-1.5
20
-2.024
40
1.0668
1
000000
41
0.75
7
W0$2032
0
TEXT
8
PART_PTS
10
-1.5
20
-3.548
40
1.0668
1
1 2 
41
0.75
7
W0$2032
0
ENDBLK
0
BLOCK
2
PART_TOP_49
8
0
10
0
20
0
3
PART_TOP_49
70
64
0
INSERT
2
SYM_TOP_9
8
0
10
0
20
0
0
INSERT
2
PKG_12
8
0
10
0
20
0
0
TEXT
8
LABEL_INFO
10
-2.94386
20
0.4698993333
40
1.4224
1
0 324000000 0 0 0 1
50
180
41
0.75
7
W0$2032
0
TEXT
8
LABEL_ATTRIBUTE
10
-2.94386
20
0.4698993333
40
1.4224
1
Ref.Des.
50
180
41
0.75
7
W0$2032
0
TEXT
8
PART_NAME_26
10
-2.94386
20
0.4698993333
40
1.4224
1
C34
50
180
41
0.75
7
W0$2032
0
TEXT
8
LABEL_INFO
10
-1.5
20
-1.25
40
1.0668
1
0 0 0 2 0 1
73
2
11
-1.5
21
-1.25
41
0.75
7
W0$2032
0
TEXT
8
LABEL_ATTRIBUTE
10
-1.5
20
-1.25
40
1.0668
1
PartType
73
2
11
-1.5
21
-1.25
41
0.75
7
W0$2032
0
TEXT
8
PART_TYPE_26
10
-1.5
20
-1.25
40
1.0668
1
CAP-10UF
73
3
11
-1.5
21
-1.25
41
0.75
7
W0$2032
0
TEXT
8
LABEL_INFO
10
-1.5
20
-0.5
40
1.0668
1
0 0 0 0 0 1
41
0.75
7
W0$2032
0
TEXT
8
LABEL_ATTRIBUTE
10
-1.5
20
-0.5
40
1.0668
1
Ref.Des.
41
0.75
7
W0$2032
0
TEXT
8
PART_NAME_27
10
-1.5
20
-0.5
40
1.0668
1
C34
41
0.75
7
W0$2032
0
TEXT
8
PART_INFO
10
-1.5
20
-2.024
40
1.0668
1
000000
41
0.75
7
W0$2032
0
TEXT
8
PART_PTS
10
-1.5
20
-3.548
40
1.0668
1
1 2 
41
0.75
7
W0$2032
0
ENDBLK
0
BLOCK
2
PART_TOP_50
8
0
10
0
20
0
3
PART_TOP_50
70
64
0
INSERT
2
SYM_TOP_9
8
0
10
0
20
0
0
INSERT
2
PKG_12
8
0
10
0
20
0
0
TEXT
8
LABEL_INFO
10
-3.66522
20
1.6636993333
40
1.4224
1
0 486000000 0 0 0 1
50
270
41
0.75
7
W0$2032
0
TEXT
8
LABEL_ATTRIBUTE
10
-3.66522
20
1.6636993333
40
1.4224
1
Ref.Des.
50
270
41
0.75
7
W0$2032
0
TEXT
8
PART_NAME_26
10
-3.66522
20
1.6636993333
40
1.4224
1
C37
50
270
41
0.75
7
W0$2032
0
TEXT
8
LABEL_INFO
10
-1.5
20
-1.25
40
1.0668
1
0 0 0 2 0 1
73
2
11
-1.5
21
-1.25
41
0.75
7
W0$2032
0
TEXT
8
LABEL_ATTRIBUTE
10
-1.5
20
-1.25
40
1.0668
1
PartType
73
2
11
-1.5
21
-1.25
41
0.75
7
W0$2032
0
TEXT
8
PART_TYPE_26
10
-1.5
20
-1.25
40
1.0668
1
CAP-10UF
73
3
11
-1.5
21
-1.25
41
0.75
7
W0$2032
0
TEXT
8
LABEL_INFO
10
-1.5
20
-0.5
40
1.0668
1
0 0 0 0 0 1
41
0.75
7
W0$2032
0
TEXT
8
LABEL_ATTRIBUTE
10
-1.5
20
-0.5
40
1.0668
1
Ref.Des.
41
0.75
7
W0$2032
0
TEXT
8
PART_NAME_27
10
-1.5
20
-0.5
40
1.0668
1
C37
41
0.75
7
W0$2032
0
TEXT
8
PART_INFO
10
-1.5
20
-2.024
40
1.0668
1
000000
41
0.75
7
W0$2032
0
TEXT
8
PART_PTS
10
-1.5
20
-3.548
40
1.0668
1
1 2 
41
0.75
7
W0$2032
0
ENDBLK
0
BLOCK
2
PART_TOP_51
8
0
10
0
20
0
3
PART_TOP_51
70
64
0
INSERT
2
SYM_TOP_9
8
0
10
0
20
0
0
INSERT
2
PKG_12
8
0
10
0
20
0
0
TEXT
8
LABEL_INFO
10
2.75082
20
0.75946
40
1.4224
1
0 0 0 0 0 1
41
0.75
7
W0$2032
0
TEXT
8
LABEL_ATTRIBUTE
10
2.75082
20
0.75946
40
1.4224
1
Ref.Des.
41
0.75
7
W0$2032
0
TEXT
8
PART_NAME_26
10
2.75082
20
0.75946
40
1.4224
1
C39
41
0.75
7
W0$2032
0
TEXT
8
LABEL_INFO
10
-1.5
20
-1.25
40
1.0668
1
0 0 0 2 0 1
73
2
11
-1.5
21
-1.25
41
0.75
7
W0$2032
0
TEXT
8
LABEL_ATTRIBUTE
10
-1.5
20
-1.25
40
1.0668
1
PartType
73
2
11
-1.5
21
-1.25
41
0.75
7
W0$2032
0
TEXT
8
PART_TYPE_26
10
-1.5
20
-1.25
40
1.0668
1
CAP-10UF
73
3
11
-1.5
21
-1.25
41
0.75
7
W0$2032
0
TEXT
8
LABEL_INFO
10
-1.5
20
-0.5
40
1.0668
1
0 0 0 0 0 1
41
0.75
7
W0$2032
0
TEXT
8
LABEL_ATTRIBUTE
10
-1.5
20
-0.5
40
1.0668
1
Ref.Des.
41
0.75
7
W0$2032
0
TEXT
8
PART_NAME_27
10
-1.5
20
-0.5
40
1.0668
1
C39
41
0.75
7
W0$2032
0
TEXT
8
PART_INFO
10
-1.5
20
-2.024
40
1.0668
1
000000
41
0.75
7
W0$2032
0
TEXT
8
PART_PTS
10
-1.5
20
-3.548
40
1.0668
1
1 2 
41
0.75
7
W0$2032
0
ENDBLK
0
BLOCK
2
PART_TOP_52
8
0
10
0
20
0
3
PART_TOP_52
70
64
0
INSERT
2
SYM_TOP_9
8
0
10
0
20
0
0
INSERT
2
PKG_12
8
0
10
0
20
0
0
TEXT
8
LABEL_INFO
10
-2.7305
20
-0.00254
40
1.4224
1
0 162000000 0 0 0 1
50
90
41
0.75
7
W0$2032
0
TEXT
8
LABEL_ATTRIBUTE
10
-2.7305
20
-0.00254
40
1.4224
1
Ref.Des.
50
90
41
0.75
7
W0$2032
0
TEXT
8
PART_NAME_26
10
-2.7305
20
-0.00254
40
1.4224
1
C40
50
90
41
0.75
7
W0$2032
0
TEXT
8
LABEL_INFO
10
-1.5
20
-1.25
40
1.0668
1
0 0 0 2 0 1
73
2
11
-1.5
21
-1.25
41
0.75
7
W0$2032
0
TEXT
8
LABEL_ATTRIBUTE
10
-1.5
20
-1.25
40
1.0668
1
PartType
73
2
11
-1.5
21
-1.25
41
0.75
7
W0$2032
0
TEXT
8
PART_TYPE_26
10
-1.5
20
-1.25
40
1.0668
1
CAP-10UF
73
3
11
-1.5
21
-1.25
41
0.75
7
W0$2032
0
TEXT
8
LABEL_INFO
10
-1.5
20
-0.5
40
1.0668
1
0 0 0 0 0 1
41
0.75
7
W0$2032
0
TEXT
8
LABEL_ATTRIBUTE
10
-1.5
20
-0.5
40
1.0668
1
Ref.Des.
41
0.75
7
W0$2032
0
TEXT
8
PART_NAME_27
10
-1.5
20
-0.5
40
1.0668
1
C40
41
0.75
7
W0$2032
0
TEXT
8
PART_INFO
10
-1.5
20
-2.024
40
1.0668
1
000000
41
0.75
7
W0$2032
0
TEXT
8
PART_PTS
10
-1.5
20
-3.548
40
1.0668
1
1 2 
41
0.75
7
W0$2032
0
ENDBLK
0
BLOCK
2
PART_TOP_61
8
0
10
0
20
0
3
PART_TOP_61
70
64
0
INSERT
2
SYM_TOP_6
8
0
10
0
20
0
0
INSERT
2
PKG_15
8
0
10
0
20
0
0
TEXT
8
LABEL_INFO
10
3.81
20
-0.7619993333
40
1.4224
1
0 162000000 0 0 0 1
50
90
41
0.75
7
W0$2032
0
TEXT
8
LABEL_ATTRIBUTE
10
3.81
20
-0.7619993333
40
1.4224
1
Ref.Des.
50
90
41
0.75
7
W0$2032
0
TEXT
8
PART_NAME_26
10
3.81
20
-0.7619993333
40
1.4224
1
R12
50
90
41
0.75
7
W0$2032
0
TEXT
8
LABEL_INFO
10
-1.5
20
-1
40
1.0668
1
0 0 0 2 0 1
73
2
11
-1.5
21
-1
41
0.75
7
W0$2032
0
TEXT
8
LABEL_ATTRIBUTE
10
-1.5
20
-1
40
1.0668
1
PartType
73
2
11
-1.5
21
-1
41
0.75
7
W0$2032
0
TEXT
8
PART_TYPE_26
10
-1.5
20
-1
40
1.0668
1
RES-0E-0805-J-1/8W
73
3
11
-1.5
21
-1
41
0.75
7
W0$2032
0
TEXT
8
LABEL_INFO
10
-1.5
20
-0.5
40
1.0668
1
0 0 0 0 0 1
41
0.75
7
W0$2032
0
TEXT
8
LABEL_ATTRIBUTE
10
-1.5
20
-0.5
40
1.0668
1
Ref.Des.
41
0.75
7
W0$2032
0
TEXT
8
PART_NAME_27
10
-1.5
20
-0.5
40
1.0668
1
R12
41
0.75
7
W0$2032
0
TEXT
8
PART_INFO
10
-1.5
20
-2.024
40
1.0668
1
000000
41
0.75
7
W0$2032
0
TEXT
8
PART_PTS
10
-1.5
20
-3.548
40
1.0668
1
1 2 
41
0.75
7
W0$2032
0
ENDBLK
0
BLOCK
2
PART_TOP_62
8
0
10
0
20
0
3
PART_TOP_62
70
64
0
INSERT
2
SYM_TOP_6
8
0
10
0
20
0
0
INSERT
2
PKG_15
8
0
10
0
20
0
0
TEXT
8
LABEL_INFO
10
-1.27
20
1.1938
40
1.4224
1
0 0 0 0 0 1
41
0.75
7
W0$2032
0
TEXT
8
LABEL_ATTRIBUTE
10
-1.27
20
1.1938
40
1.4224
1
Ref.Des.
41
0.75
7
W0$2032
0
TEXT
8
PART_NAME_26
10
-1.27
20
1.1938
40
1.4224
1
R13
41
0.75
7
W0$2032
0
TEXT
8
LABEL_INFO
10
-1.5
20
-1
40
1.0668
1
0 0 0 2 0 1
73
2
11
-1.5
21
-1
41
0.75
7
W0$2032
0
TEXT
8
LABEL_ATTRIBUTE
10
-1.5
20
-1
40
1.0668
1
PartType
73
2
11
-1.5
21
-1
41
0.75
7
W0$2032
0
TEXT
8
PART_TYPE_26
10
-1.5
20
-1
40
1.0668
1
RES-0E-0805-J-1/8W
73
3
11
-1.5
21
-1
41
0.75
7
W0$2032
0
TEXT
8
LABEL_INFO
10
-1.5
20
-0.5
40
1.0668
1
0 0 0 0 0 1
41
0.75
7
W0$2032
0
TEXT
8
LABEL_ATTRIBUTE
10
-1.5
20
-0.5
40
1.0668
1
Ref.Des.
41
0.75
7
W0$2032
0
TEXT
8
PART_NAME_27
10
-1.5
20
-0.5
40
1.0668
1
R13
41
0.75
7
W0$2032
0
TEXT
8
PART_INFO
10
-1.5
20
-2.024
40
1.0668
1
000000
41
0.75
7
W0$2032
0
TEXT
8
PART_PTS
10
-1.5
20
-3.548
40
1.0668
1
1 2 
41
0.75
7
W0$2032
0
ENDBLK
0
BLOCK
2
PART_TOP_64
8
0
10
0
20
0
3
PART_TOP_64
70
64
0
INSERT
2
SYM_TOP_6
8
0
10
0
20
0
0
INSERT
2
PKG_15
8
0
10
0
20
0
0
TEXT
8
LABEL_INFO
10
-0.7619993333
20
-1.8542
40
1.4224
1
0 486000000 0 0 0 1
50
270
41
0.75
7
W0$2032
0
TEXT
8
LABEL_ATTRIBUTE
10
-0.7619993333
20
-1.8542
40
1.4224
1
Ref.Des.
50
270
41
0.75
7
W0$2032
0
TEXT
8
PART_NAME_26
10
-0.7619993333
20
-1.8542
40
1.4224
1
R15
50
270
41
0.75
7
W0$2032
0
TEXT
8
LABEL_INFO
10
-1.5
20
-1
40
1.0668
1
0 0 0 2 0 1
73
2
11
-1.5
21
-1
41
0.75
7
W0$2032
0
TEXT
8
LABEL_ATTRIBUTE
10
-1.5
20
-1
40
1.0668
1
PartType
73
2
11
-1.5
21
-1
41
0.75
7
W0$2032
0
TEXT
8
PART_TYPE_26
10
-1.5
20
-1
40
1.0668
1
RES-0E-0805-J-1/8W
73
3
11
-1.5
21
-1
41
0.75
7
W0$2032
0
TEXT
8
LABEL_INFO
10
-1.5
20
-0.5
40
1.0668
1
0 0 0 0 0 1
41
0.75
7
W0$2032
0
TEXT
8
LABEL_ATTRIBUTE
10
-1.5
20
-0.5
40
1.0668
1
Ref.Des.
41
0.75
7
W0$2032
0
TEXT
8
PART_NAME_27
10
-1.5
20
-0.5
40
1.0668
1
R15
41
0.75
7
W0$2032
0
TEXT
8
PART_INFO
10
-1.5
20
-2.024
40
1.0668
1
000000
41
0.75
7
W0$2032
0
TEXT
8
PART_PTS
10
-1.5
20
-3.548
40
1.0668
1
1 2 
41
0.75
7
W0$2032
0
ENDBLK
0
BLOCK
2
PART_TOP_65
8
0
10
0
20
0
3
PART_TOP_65
70
64
0
INSERT
2
SYM_TOP_6
8
0
10
0
20
0
0
INSERT
2
PKG_15
8
0
10
0
20
0
0
TEXT
8
LABEL_INFO
10
1.49352
20
-1.5239993333
40
1.4224
1
0 324000000 0 0 0 1
50
180
41
0.75
7
W0$2032
0
TEXT
8
LABEL_ATTRIBUTE
10
1.49352
20
-1.5239993333
40
1.4224
1
Ref.Des.
50
180
41
0.75
7
W0$2032
0
TEXT
8
PART_NAME_26
10
1.49352
20
-1.5239993333
40
1.4224
1
R16
50
180
41
0.75
7
W0$2032
0
TEXT
8
LABEL_INFO
10
-1.55
20
-1.55
40
1.0668
1
0 0 0 2 0 1
73
2
11
-1.55
21
-1.55
41
0.75
7
W0$2032
0
TEXT
8
LABEL_ATTRIBUTE
10
-1.55
20
-1.55
40
1.0668
1
PartType
73
2
11
-1.55
21
-1.55
41
0.75
7
W0$2032
0
TEXT
8
PART_TYPE_26
10
-1.55
20
-1.55
40
1.0668
1
RES-0E-0805-J-1/8W
73
3
11
-1.55
21
-1.55
41
0.75
7
W0$2032
0
TEXT
8
LABEL_INFO
10
-1.5
20
-0.5
40
1.0668
1
0 0 0 0 0 1
41
0.75
7
W0$2032
0
TEXT
8
LABEL_ATTRIBUTE
10
-1.5
20
-0.5
40
1.0668
1
Ref.Des.
41
0.75
7
W0$2032
0
TEXT
8
PART_NAME_27
10
-1.5
20
-0.5
40
1.0668
1
R16
41
0.75
7
W0$2032
0
TEXT
8
PART_INFO
10
-1.5
20
-2.024
40
1.0668
1
000000
41
0.75
7
W0$2032
0
TEXT
8
PART_PTS
10
-1.5
20
-3.548
40
1.0668
1
1 2 
41
0.75
7
W0$2032
0
ENDBLK
0
BLOCK
2
PART_TOP_66
8
0
10
0
20
0
3
PART_TOP_66
70
64
0
INSERT
2
SYM_TOP_6
8
0
10
0
20
0
0
INSERT
2
PKG_14
8
0
10
0
20
0
0
TEXT
8
LABEL_INFO
10
4.65328
20
0.69596
40
1.4224
1
0 324000000 0 0 0 1
50
180
41
0.75
7
W0$2032
0
TEXT
8
LABEL_ATTRIBUTE
10
4.65328
20
0.69596
40
1.4224
1
Ref.Des.
50
180
41
0.75
7
W0$2032
0
TEXT
8
PART_NAME_26
10
4.65328
20
0.69596
40
1.4224
1
R17
50
180
41
0.75
7
W0$2032
0
TEXT
8
LABEL_INFO
10
-1.5
20
-1
40
1.0668
1
0 0 0 2 0 1
73
2
11
-1.5
21
-1
41
0.75
7
W0$2032
0
TEXT
8
LABEL_ATTRIBUTE
10
-1.5
20
-1
40
1.0668
1
PartType
73
2
11
-1.5
21
-1
41
0.75
7
W0$2032
0
TEXT
8
PART_TYPE_26
10
-1.5
20
-1
40
1.0668
1
RES-4.7K-0805-1%-0.125W
73
3
11
-1.5
21
-1
41
0.75
7
W0$2032
0
TEXT
8
LABEL_INFO
10
-1.5
20
-0.5
40
1.0668
1
0 0 0 0 0 1
41
0.75
7
W0$2032
0
TEXT
8
LABEL_ATTRIBUTE
10
-1.5
20
-0.5
40
1.0668
1
Ref.Des.
41
0.75
7
W0$2032
0
TEXT
8
PART_NAME_27
10
-1.5
20
-0.5
40
1.0668
1
R17
41
0.75
7
W0$2032
0
TEXT
8
PART_INFO
10
-1.5
20
-2.024
40
1.0668
1
000000
41
0.75
7
W0$2032
0
TEXT
8
PART_PTS
10
-1.5
20
-3.548
40
1.0668
1
1 2 
41
0.75
7
W0$2032
0
ENDBLK
0
BLOCK
2
PART_TOP_67
8
0
10
0
20
0
3
PART_TOP_67
70
64
0
INSERT
2
SYM_TOP_6
8
0
10
0
20
0
0
INSERT
2
PKG_14
8
0
10
0
20
0
0
TEXT
8
LABEL_INFO
10
-0.8128
20
2.2606
40
1.4224
1
0 0 0 0 0 1
41
0.75
7
W0$2032
0
TEXT
8
LABEL_ATTRIBUTE
10
-0.8128
20
2.2606
40
1.4224
1
Ref.Des.
41
0.75
7
W0$2032
0
TEXT
8
PART_NAME_26
10
-0.8128
20
2.2606
40
1.4224
1
R18
41
0.75
7
W0$2032
0
TEXT
8
LABEL_INFO
10
-1.5
20
-1
40
1.0668
1
0 0 0 2 0 1
73
2
11
-1.5
21
-1
41
0.75
7
W0$2032
0
TEXT
8
LABEL_ATTRIBUTE
10
-1.5
20
-1
40
1.0668
1
PartType
73
2
11
-1.5
21
-1
41
0.75
7
W0$2032
0
TEXT
8
PART_TYPE_26
10
-1.5
20
-1
40
1.0668
1
RES-4.7K-0805-1%-0.125W
73
3
11
-1.5
21
-1
41
0.75
7
W0$2032
0
TEXT
8
LABEL_INFO
10
-1.5
20
-0.5
40
1.0668
1
0 0 0 0 0 1
41
0.75
7
W0$2032
0
TEXT
8
LABEL_ATTRIBUTE
10
-1.5
20
-0.5
40
1.0668
1
Ref.Des.
41
0.75
7
W0$2032
0
TEXT
8
PART_NAME_27
10
-1.5
20
-0.5
40
1.0668
1
R18
41
0.75
7
W0$2032
0
TEXT
8
PART_INFO
10
-1.5
20
-2.024
40
1.0668
1
000000
41
0.75
7
W0$2032
0
TEXT
8
PART_PTS
10
-1.5
20
-3.548
40
1.0668
1
1 2 
41
0.75
7
W0$2032
0
ENDBLK
0
BLOCK
2
PART_TOP_70
8
0
10
0
20
0
3
PART_TOP_70
70
64
0
INSERT
2
SYM_TOP_6
8
0
10
0
20
0
0
INSERT
2
PKG_14
8
0
10
0
20
0
0
TEXT
8
LABEL_INFO
10
-1.7272
20
1.3969993333
40
1.4224
1
0 162000000 0 0 0 1
50
90
41
0.75
7
W0$2032
0
TEXT
8
LABEL_ATTRIBUTE
10
-1.7272
20
1.3969993333
40
1.4224
1
Ref.Des.
50
90
41
0.75
7
W0$2032
0
TEXT
8
PART_NAME_26
10
-1.7272
20
1.3969993333
40
1.4224
1
R20
50
90
41
0.75
7
W0$2032
0
TEXT
8
LABEL_INFO
10
-1.5
20
-1
40
1.0668
1
0 0 0 2 0 1
73
2
11
-1.5
21
-1
41
0.75
7
W0$2032
0
TEXT
8
LABEL_ATTRIBUTE
10
-1.5
20
-1
40
1.0668
1
PartType
73
2
11
-1.5
21
-1
41
0.75
7
W0$2032
0
TEXT
8
PART_TYPE_26
10
-1.5
20
-1
40
1.0668
1
RES-4.7K-0805-1%-0.125W
73
3
11
-1.5
21
-1
41
0.75
7
W0$2032
0
TEXT
8
LABEL_INFO
10
-1.5
20
-0.5
40
1.0668
1
0 0 0 0 0 1
41
0.75
7
W0$2032
0
TEXT
8
LABEL_ATTRIBUTE
10
-1.5
20
-0.5
40
1.0668
1
Ref.Des.
41
0.75
7
W0$2032
0
TEXT
8
PART_NAME_27
10
-1.5
20
-0.5
40
1.0668
1
R20
41
0.75
7
W0$2032
0
TEXT
8
PART_INFO
10
-1.5
20
-2.024
40
1.0668
1
000000
41
0.75
7
W0$2032
0
TEXT
8
PART_PTS
10
-1.5
20
-3.548
40
1.0668
1
1 2 
41
0.75
7
W0$2032
0
ENDBLK
0
BLOCK
2
PART_TOP_74
8
0
10
0
20
0
3
PART_TOP_74
70
64
0
INSERT
2
SYM_TOP_8
8
0
10
0
20
0
0
INSERT
2
PKG_5
8
0
10
0
20
0
0
TEXT
8
LABEL_INFO
10
3.9624
20
0.66294
40
1.4224
1
0 324000000 0 0 0 1
50
180
41
0.75
7
W0$2032
0
TEXT
8
LABEL_ATTRIBUTE
10
3.9624
20
0.66294
40
1.4224
1
Ref.Des.
50
180
41
0.75
7
W0$2032
0
TEXT
8
PART_NAME_26
10
3.9624
20
0.66294
40
1.4224
1
C8
50
180
41
0.75
7
W0$2032
0
TEXT
8
LABEL_INFO
10
-1.5
20
-1.05
40
1.0668
1
0 0 0 2 0 1
73
2
11
-1.5
21
-1.05
41
0.75
7
W0$2032
0
TEXT
8
LABEL_ATTRIBUTE
10
-1.5
20
-1.05
40
1.0668
1
PartType
73
2
11
-1.5
21
-1.05
41
0.75
7
W0$2032
0
TEXT
8
PART_TYPE_26
10
-1.5
20
-1.05
40
1.0668
1
CAP-0.1UF
73
3
11
-1.5
21
-1.05
41
0.75
7
W0$2032
0
TEXT
8
LABEL_INFO
10
-1.5
20
-0.324
40
1.0668
1
0 0 0 0 0 1
41
0.75
7
W0$2032
0
TEXT
8
LABEL_ATTRIBUTE
10
-1.5
20
-0.324
40
1.0668
1
Ref.Des.
41
0.75
7
W0$2032
0
TEXT
8
PART_NAME_27
10
-1.5
20
-0.324
40
1.0668
1
C8
41
0.75
7
W0$2032
0
TEXT
8
PART_INFO
10
-1.5
20
-1.848
40
1.0668
1
000000
41
0.75
7
W0$2032
0
TEXT
8
PART_PTS
10
-1.5
20
-3.372
40
1.0668
1
1 2 
41
0.75
7
W0$2032
0
ENDBLK
0
BLOCK
2
PART_TOP_75
8
0
10
0
20
0
3
PART_TOP_75
70
64
0
INSERT
2
SYM_TOP_9
8
0
10
0
20
0
0
INSERT
2
PKG_17
8
0
10
0
20
0
0
TEXT
8
LABEL_INFO
10
-4.318
20
-0.635
40
1.4224
1
0 0 0 0 0 1
41
0.75
7
W0$2032
0
TEXT
8
LABEL_ATTRIBUTE
10
-4.318
20
-0.635
40
1.4224
1
Ref.Des.
41
0.75
7
W0$2032
0
TEXT
8
PART_NAME_26
10
-4.318
20
-0.635
40
1.4224
1
C2
41
0.75
7
W0$2032
0
TEXT
8
LABEL_INFO
10
-1.5
20
-1
40
1.0668
1
0 0 0 2 0 1
73
2
11
-1.5
21
-1
41
0.75
7
W0$2032
0
TEXT
8
LABEL_ATTRIBUTE
10
-1.5
20
-1
40
1.0668
1
PartType
73
2
11
-1.5
21
-1
41
0.75
7
W0$2032
0
TEXT
8
PART_TYPE_26
10
-1.5
20
-1
40
1.0668
1
CAP_10NF_50V_0603
73
3
11
-1.5
21
-1
41
0.75
7
W0$2032
0
TEXT
8
LABEL_INFO
10
-1.5
20
-0.5
40
1.0668
1
0 0 0 0 0 1
41
0.75
7
W0$2032
0
TEXT
8
LABEL_ATTRIBUTE
10
-1.5
20
-0.5
40
1.0668
1
Ref.Des.
41
0.75
7
W0$2032
0
TEXT
8
PART_NAME_27
10
-1.5
20
-0.5
40
1.0668
1
C2
41
0.75
7
W0$2032
0
TEXT
8
PART_INFO
10
-1.5
20
-2.024
40
1.0668
1
000000
41
0.75
7
W0$2032
0
TEXT
8
PART_PTS
10
-1.5
20
-3.548
40
1.0668
1
1 2 
41
0.75
7
W0$2032
0
ENDBLK
0
BLOCK
2
PART_TOP_86
8
0
10
0
20
0
3
PART_TOP_86
70
64
0
INSERT
2
SYM_TOP_15
8
0
10
0
20
0
0
INSERT
2
PKG_21
8
0
10
0
20
0
0
TEXT
8
LABEL_INFO
10
-1.7
20
8.4
40
1.0668
1
0 0 0 0 0 1
41
0.75
7
W0$1524
0
TEXT
8
LABEL_ATTRIBUTE
10
-1.7
20
8.4
40
1.0668
1
Ref.Des.
41
0.75
7
W0$1524
0
TEXT
8
PART_NAME_27
10
-1.7
20
8.4
40
1.0668
1
J2
41
0.75
7
W0$1524
0
TEXT
8
LABEL_INFO
10
0
20
0
40
0.889
1
0 0 0 2 0 1
73
2
11
0
21
0
41
0.75
7
W0$127
0
TEXT
8
LABEL_ATTRIBUTE
10
0
20
0
40
0.889
1
PartType
73
2
11
0
21
0
41
0.75
7
W0$127
0
TEXT
8
PART_TYPE_01
10
0
20
0
40
0.889
1
GUIDE
73
3
11
0
21
0
41
0.75
7
W0$127
0
TEXT
8
LABEL_INFO
10
-2.397
20
17.86
40
1.4224
1
0 324000000 0 0 0 1
50
180
41
0.75
7
W0$2032
0
TEXT
8
LABEL_ATTRIBUTE
10
-2.397
20
17.86
40
1.4224
1
Ref.Des.
50
180
41
0.75
7
W0$2032
0
TEXT
8
PART_NAME_26
10
-2.397
20
17.86
40
1.4224
1
J2
50
180
41
0.75
7
W0$2032
0
TEXT
8
PART_INFO
10
-2.397
20
15.828
40
1.4224
1
000000
50
180
41
0.75
7
W0$2032
0
TEXT
8
PART_PTS
10
-2.397
20
13.796
40
1.4224
1
1 2 3 
50
180
41
0.75
7
W0$2032
0
ENDBLK
0
BLOCK
2
PART_TOP_87
8
0
10
0
20
0
3
PART_TOP_87
70
64
0
INSERT
2
SYM_TOP_9
8
0
10
0
20
0
0
INSERT
2
PKG_18
8
0
10
0
20
0
0
TEXT
8
LABEL_INFO
10
-0.127
20
-2.667
40
1.4224
1
0 0 0 0 0 1
41
0.75
7
W0$2032
0
TEXT
8
LABEL_ATTRIBUTE
10
-0.127
20
-2.667
40
1.4224
1
Ref.Des.
41
0.75
7
W0$2032
0
TEXT
8
PART_NAME_26
10
-0.127
20
-2.667
40
1.4224
1
C3
41
0.75
7
W0$2032
0
TEXT
8
LABEL_INFO
10
-1.5
20
-1
40
1.0668
1
0 0 0 2 0 1
73
2
11
-1.5
21
-1
41
0.75
7
W0$2032
0
TEXT
8
LABEL_ATTRIBUTE
10
-1.5
20
-1
40
1.0668
1
PartType
73
2
11
-1.5
21
-1
41
0.75
7
W0$2032
0
TEXT
8
PART_TYPE_26
10
-1.5
20
-1
40
1.0668
1
CAP-0.1UF_0805
73
3
11
-1.5
21
-1
41
0.75
7
W0$2032
0
TEXT
8
LABEL_INFO
10
-1.5
20
-0.5
40
1.0668
1
0 0 0 0 0 1
41
0.75
7
W0$2032
0
TEXT
8
LABEL_ATTRIBUTE
10
-1.5
20
-0.5
40
1.0668
1
Ref.Des.
41
0.75
7
W0$2032
0
TEXT
8
PART_NAME_27
10
-1.5
20
-0.5
40
1.0668
1
C3
41
0.75
7
W0$2032
0
TEXT
8
PART_INFO
10
-1.5
20
-2.024
40
1.0668
1
000100
41
0.75
7
W0$2032
0
TEXT
8
PART_PTS
10
-1.5
20
-3.548
40
1.0668
1
1 2 
41
0.75
7
W0$2032
0
ENDBLK
0
BLOCK
2
PART_TOP_88
8
0
10
0
20
0
3
PART_TOP_88
70
64
0
INSERT
2
SYM_TOP_9
8
0
10
0
20
0
0
INSERT
2
PKG_18
8
0
10
0
20
0
0
TEXT
8
LABEL_INFO
10
0.889
20
-3.302
40
1.4224
1
0 162000000 0 0 0 1
50
90
41
0.75
7
W0$2032
0
TEXT
8
LABEL_ATTRIBUTE
10
0.889
20
-3.302
40
1.4224
1
Ref.Des.
50
90
41
0.75
7
W0$2032
0
TEXT
8
PART_NAME_26
10
0.889
20
-3.302
40
1.4224
1
C4
50
90
41
0.75
7
W0$2032
0
TEXT
8
LABEL_INFO
10
-1.5
20
-1
40
1.0668
1
0 0 0 2 0 1
73
2
11
-1.5
21
-1
41
0.75
7
W0$2032
0
TEXT
8
LABEL_ATTRIBUTE
10
-1.5
20
-1
40
1.0668
1
PartType
73
2
11
-1.5
21
-1
41
0.75
7
W0$2032
0
TEXT
8
PART_TYPE_26
10
-1.5
20
-1
40
1.0668
1
CAP-0.1UF_0805
73
3
11
-1.5
21
-1
41
0.75
7
W0$2032
0
TEXT
8
LABEL_INFO
10
-1.5
20
-0.5
40
1.0668
1
0 0 0 0 0 1
41
0.75
7
W0$2032
0
TEXT
8
LABEL_ATTRIBUTE
10
-1.5
20
-0.5
40
1.0668
1
Ref.Des.
41
0.75
7
W0$2032
0
TEXT
8
PART_NAME_27
10
-1.5
20
-0.5
40
1.0668
1
C4
41
0.75
7
W0$2032
0
TEXT
8
PART_INFO
10
-1.5
20
-2.024
40
1.0668
1
000100
41
0.75
7
W0$2032
0
TEXT
8
PART_PTS
10
-1.5
20
-3.548
40
1.0668
1
1 2 
41
0.75
7
W0$2032
0
ENDBLK
0
BLOCK
2
PART_TOP_89
8
0
10
0
20
0
3
PART_TOP_89
70
64
0
INSERT
2
SYM_TOP_9
8
0
10
0
20
0
0
INSERT
2
PKG_18
8
0
10
0
20
0
0
TEXT
8
LABEL_INFO
10
-4.318
20
-2.032
40
1.4224
1
0 0 0 0 0 1
41
0.75
7
W0$2032
0
TEXT
8
LABEL_ATTRIBUTE
10
-4.318
20
-2.032
40
1.4224
1
Ref.Des.
41
0.75
7
W0$2032
0
TEXT
8
PART_NAME_26
10
-4.318
20
-2.032
40
1.4224
1
C5
41
0.75
7
W0$2032
0
TEXT
8
LABEL_INFO
10
-1.5
20
-1
40
1.0668
1
0 0 0 2 0 1
73
2
11
-1.5
21
-1
41
0.75
7
W0$2032
0
TEXT
8
LABEL_ATTRIBUTE
10
-1.5
20
-1
40
1.0668
1
PartType
73
2
11
-1.5
21
-1
41
0.75
7
W0$2032
0
TEXT
8
PART_TYPE_26
10
-1.5
20
-1
40
1.0668
1
CAP-0.1UF_0805
73
3
11
-1.5
21
-1
41
0.75
7
W0$2032
0
TEXT
8
LABEL_INFO
10
-1.5
20
-0.5
40
1.0668
1
0 0 0 0 0 1
41
0.75
7
W0$2032
0
TEXT
8
LABEL_ATTRIBUTE
10
-1.5
20
-0.5
40
1.0668
1
Ref.Des.
41
0.75
7
W0$2032
0
TEXT
8
PART_NAME_27
10
-1.5
20
-0.5
40
1.0668
1
C5
41
0.75
7
W0$2032
0
TEXT
8
PART_INFO
10
-1.5
20
-2.024
40
1.0668
1
000100
41
0.75
7
W0$2032
0
TEXT
8
PART_PTS
10
-1.5
20
-3.548
40
1.0668
1
1 2 
41
0.75
7
W0$2032
0
ENDBLK
0
BLOCK
2
PART_TOP_90
8
0
10
0
20
0
3
PART_TOP_90
70
64
0
INSERT
2
SYM_TOP_9
8
0
10
0
20
0
0
INSERT
2
PKG_18
8
0
10
0
20
0
0
TEXT
8
LABEL_INFO
10
-2.1589993333
20
-0.889
40
1.4224
1
0 162000000 0 0 0 1
50
90
41
0.75
7
W0$2032
0
TEXT
8
LABEL_ATTRIBUTE
10
-2.1589993333
20
-0.889
40
1.4224
1
Ref.Des.
50
90
41
0.75
7
W0$2032
0
TEXT
8
PART_NAME_26
10
-2.1589993333
20
-0.889
40
1.4224
1
C6
50
90
41
0.75
7
W0$2032
0
TEXT
8
LABEL_INFO
10
-1.5
20
-1
40
1.0668
1
0 0 0 2 0 1
73
2
11
-1.5
21
-1
41
0.75
7
W0$2032
0
TEXT
8
LABEL_ATTRIBUTE
10
-1.5
20
-1
40
1.0668
1
PartType
73
2
11
-1.5
21
-1
41
0.75
7
W0$2032
0
TEXT
8
PART_TYPE_26
10
-1.5
20
-1
40
1.0668
1
CAP-0.1UF_0805
73
3
11
-1.5
21
-1
41
0.75
7
W0$2032
0
TEXT
8
LABEL_INFO
10
-1.5
20
-0.5
40
1.0668
1
0 0 0 0 0 1
41
0.75
7
W0$2032
0
TEXT
8
LABEL_ATTRIBUTE
10
-1.5
20
-0.5
40
1.0668
1
Ref.Des.
41
0.75
7
W0$2032
0
TEXT
8
PART_NAME_27
10
-1.5
20
-0.5
40
1.0668
1
C6
41
0.75
7
W0$2032
0
TEXT
8
PART_INFO
10
-1.5
20
-2.024
40
1.0668
1
000100
41
0.75
7
W0$2032
0
TEXT
8
PART_PTS
10
-1.5
20
-3.548
40
1.0668
1
1 2 
41
0.75
7
W0$2032
0
ENDBLK
0
BLOCK
2
PART_TOP_91
8
0
10
0
20
0
3
PART_TOP_91
70
64
0
INSERT
2
SYM_TOP_16
8
0
10
0
20
0
0
INSERT
2
PKG_22
8
0
10
0
20
0
0
TEXT
8
LABEL_INFO
10
-7.874
20
-6.35
40
0.889
1
0 0 0 2 0 1
73
2
11
-7.874
21
-6.35
41
0.75
7
W0$127
0
TEXT
8
LABEL_ATTRIBUTE
10
-7.874
20
-6.35
40
0.889
1
PartType
73
2
11
-7.874
21
-6.35
41
0.75
7
W0$127
0
TEXT
8
PART_TYPE_01
10
-7.874
20
-6.35
40
0.889
1
CON-54_AIRMAX_NEW
73
3
11
-7.874
21
-6.35
41
0.75
7
W0$127
0
TEXT
8
LABEL_INFO
10
6.028
20
-14.017
40
1.4224
1
0 162000000 0 0 0 1
50
90
41
0.75
7
W0$2032
0
TEXT
8
LABEL_ATTRIBUTE
10
6.028
20
-14.017
40
1.4224
1
Ref.Des.
50
90
41
0.75
7
W0$2032
0
TEXT
8
PART_NAME_26
10
6.028
20
-14.017
40
1.4224
1
J1
50
90
41
0.75
7
W0$2032
0
TEXT
8
PART_INFO
10
6.028
20
-16.049
40
1.4224
1
000000
50
90
41
0.75
7
W0$2032
0
TEXT
8
PART_PTS
10
6.028
20
-18.081
40
1.4224
1
1 2 3 4 5 6 7 8 9 10 11 12 13 14 15 16 17 18 19 20 21 22 23 24 25 26 27 28 29 30 31 32 33 34 35 36 37 38 39 40 41 42 43 44 45 46 47 48 49 50 51 52 53 54 
50
90
41
0.75
7
W0$2032
0
ENDBLK
0
BLOCK
2
PART_TOP_92
8
0
10
0
20
0
3
PART_TOP_92
70
64
0
INSERT
2
SYM_TOP_19
8
0
10
0
20
0
0
INSERT
2
PKG_23
8
0
10
0
20
0
0
TEXT
8
LABEL_INFO
10
-1.905
20
-0.508
40
1.4224
1
0 0 0 0 0 1
41
0.75
7
W0$2032
0
TEXT
8
LABEL_ATTRIBUTE
10
-1.905
20
-0.508
40
1.4224
1
Ref.Des.
41
0.75
7
W0$2032
0
TEXT
8
PART_NAME_27
10
-1.905
20
-0.508
40
1.4224
1
Q1
41
0.75
7
W0$2032
0
TEXT
8
LABEL_INFO
10
0
20
0
40
0.889
1
0 0 0 2 0 1
73
2
11
0
21
0
41
0.75
7
W0$127
0
TEXT
8
LABEL_ATTRIBUTE
10
0
20
0
40
0.889
1
PartType
73
2
11
0
21
0
41
0.75
7
W0$127
0
TEXT
8
PART_TYPE_01
10
0
20
0
40
0.889
1
FET-N-SO8-SIR462DP
73
3
11
0
21
0
41
0.75
7
W0$127
0
TEXT
8
LABEL_INFO
10
4.445
20
0.381
40
1.4224
1
0 162000000 0 0 0 1
50
90
41
0.75
7
W0$2032
0
TEXT
8
LABEL_ATTRIBUTE
10
4.445
20
0.381
40
1.4224
1
Ref.Des.
50
90
41
0.75
7
W0$2032
0
TEXT
8
PART_NAME_26
10
4.445
20
0.381
40
1.4224
1
Q1
50
90
41
0.75
7
W0$2032
0
TEXT
8
PART_INFO
10
4.445
20
-1.651
40
1.4224
1
000000
50
90
41
0.75
7
W0$2032
0
TEXT
8
PART_PTS
10
4.445
20
-3.683
40
1.4224
1
1 2 3 4 5 6 7 8 
50
90
41
0.75
7
W0$2032
0
ENDBLK
0
BLOCK
2
PART_TOP_93
8
0
10
0
20
0
3
PART_TOP_93
70
64
0
INSERT
2
SYM_TOP_19
8
0
10
0
20
0
0
INSERT
2
PKG_23
8
0
10
0
20
0
0
TEXT
8
LABEL_INFO
10
-1.905
20
-0.508
40
1.4224
1
0 0 0 0 0 1
41
0.75
7
W0$2032
0
TEXT
8
LABEL_ATTRIBUTE
10
-1.905
20
-0.508
40
1.4224
1
Ref.Des.
41
0.75
7
W0$2032
0
TEXT
8
PART_NAME_27
10
-1.905
20
-0.508
40
1.4224
1
Q2
41
0.75
7
W0$2032
0
TEXT
8
LABEL_INFO
10
0
20
0
40
0.889
1
0 0 0 2 0 1
73
2
11
0
21
0
41
0.75
7
W0$127
0
TEXT
8
LABEL_ATTRIBUTE
10
0
20
0
40
0.889
1
PartType
73
2
11
0
21
0
41
0.75
7
W0$127
0
TEXT
8
PART_TYPE_01
10
0
20
0
40
0.889
1
FET-N-SO8-SIR462DP
73
3
11
0
21
0
41
0.75
7
W0$127
0
TEXT
8
LABEL_INFO
10
-1.651
20
4.064
40
1.4224
1
0 162000000 0 0 0 1
50
90
41
0.75
7
W0$2032
0
TEXT
8
LABEL_ATTRIBUTE
10
-1.651
20
4.064
40
1.4224
1
Ref.Des.
50
90
41
0.75
7
W0$2032
0
TEXT
8
PART_NAME_26
10
-1.651
20
4.064
40
1.4224
1
Q2
50
90
41
0.75
7
W0$2032
0
TEXT
8
PART_INFO
10
-1.651
20
2.032
40
1.4224
1
000000
50
90
41
0.75
7
W0$2032
0
TEXT
8
PART_PTS
10
-1.651
20
0
40
1.4224
1
1 2 3 4 5 6 7 8 
50
90
41
0.75
7
W0$2032
0
ENDBLK
0
BLOCK
2
PART_TOP_94
8
0
10
0
20
0
3
PART_TOP_94
70
64
0
INSERT
2
SYM_TOP_19
8
0
10
0
20
0
0
INSERT
2
PKG_24
8
0
10
0
20
0
0
TEXT
8
LABEL_INFO
10
-1.905
20
-0.508
40
1.4224
1
0 0 0 0 0 1
41
0.75
7
W0$2032
0
TEXT
8
LABEL_ATTRIBUTE
10
-1.905
20
-0.508
40
1.4224
1
Ref.Des.
41
0.75
7
W0$2032
0
TEXT
8
PART_NAME_27
10
-1.905
20
-0.508
40
1.4224
1
Q3
41
0.75
7
W0$2032
0
TEXT
8
LABEL_INFO
10
0
20
0
40
0.889
1
0 0 0 2 0 1
73
2
11
0
21
0
41
0.75
7
W0$127
0
TEXT
8
LABEL_ATTRIBUTE
10
0
20
0
40
0.889
1
PartType
73
2
11
0
21
0
41
0.75
7
W0$127
0
TEXT
8
PART_TYPE_01
10
0
20
0
40
0.889
1
FET-N-SO8-SI7336ADP-T1-E3
73
3
11
0
21
0
41
0.75
7
W0$127
0
TEXT
8
LABEL_INFO
10
-1.143
20
4.572
40
1.4224
1
0 0 0 0 0 1
41
0.75
7
W0$2032
0
TEXT
8
LABEL_ATTRIBUTE
10
-1.143
20
4.572
40
1.4224
1
Ref.Des.
41
0.75
7
W0$2032
0
TEXT
8
PART_NAME_26
10
-1.143
20
4.572
40
1.4224
1
Q3
41
0.75
7
W0$2032
0
TEXT
8
PART_INFO
10
-1.143
20
2.54
40
1.4224
1
000000
41
0.75
7
W0$2032
0
TEXT
8
PART_PTS
10
-1.143
20
0.508
40
1.4224
1
1 2 3 4 5 6 7 8 
41
0.75
7
W0$2032
0
ENDBLK
0
BLOCK
2
PART_TOP_95
8
0
10
0
20
0
3
PART_TOP_95
70
64
0
INSERT
2
SYM_TOP_17
8
0
10
0
20
0
0
INSERT
2
PKG_25
8
0
10
0
20
0
0
TEXT
8
LABEL_INFO
10
1.905
20
2.667
40
1.4224
1
0 0 0 0 0 1
41
0.75
7
W0$2032
0
TEXT
8
LABEL_ATTRIBUTE
10
1.905
20
2.667
40
1.4224
1
Ref.Des.
41
0.75
7
W0$2032
0
TEXT
8
PART_NAME_26
10
1.905
20
2.667
40
1.4224
1
U6
41
0.75
7
W0$2032
0
TEXT
8
LABEL_INFO
10
0.5334
20
-0.6096
40
0.889
1
0 0 0 2 0 1
73
2
11
0.5334
21
-0.6096
41
0.75
7
W0$127
0
TEXT
8
LABEL_ATTRIBUTE
10
0.5334
20
-0.6096
40
0.889
1
PartType
73
2
11
0.5334
21
-0.6096
41
0.75
7
W0$127
0
TEXT
8
PART_TYPE_01
10
0.5334
20
-0.6096
40
0.889
1
LT4227
73
3
11
0.5334
21
-0.6096
41
0.75
7
W0$127
0
TEXT
8
PART_INFO
10
0.5334
20
-1.8796
40
0.889
1
000000
73
3
11
0.5334
21
-1.8796
41
0.75
7
W0$127
0
TEXT
8
PART_PTS
10
0.5334
20
-3.1496
40
0.889
1
1 2 3 4 5 6 7 8 9 10 11 12 13 14 15 16 17 18 19 20 21 
73
3
11
0.5334
21
-3.1496
41
0.75
7
W0$127
0
ENDBLK
0
BLOCK
2
PART_TOP_98
8
0
10
0
20
0
3
PART_TOP_98
70
64
0
INSERT
2
SYM_TOP_20
8
0
10
0
20
0
0
INSERT
2
PKG_27
8
0
10
0
20
0
0
TEXT
8
PART_NAME_TOP
10
0
20
0
40
1.4224
1
FB10
73
3
11
0
21
0
41
0.75
7
W0$254
0
TEXT
8
PART_TYPE_TOP
10
0
20
-2.032
40
1.4224
1
FID
73
3
11
0
21
-2.032
41
0.75
7
W0$254
0
TEXT
8
PART_INFO
10
0
20
-4.064
40
1.4224
1
000000
73
3
11
0
21
-4.064
41
0.75
7
W0$254
0
TEXT
8
PART_PTS
10
0
20
-6.096
40
1.4224
1
1 
73
3
11
0
21
-6.096
41
0.75
7
W0$254
0
ENDBLK
0
BLOCK
2
PART_TOP_99
8
0
10
0
20
0
3
PART_TOP_99
70
64
0
INSERT
2
SYM_TOP_20
8
0
10
0
20
0
0
INSERT
2
PKG_27
8
0
10
0
20
0
0
TEXT
8
PART_NAME_TOP
10
0
20
0
40
1.4224
1
FB11
73
3
11
0
21
0
41
0.75
7
W0$254
0
TEXT
8
PART_TYPE_TOP
10
0
20
-2.032
40
1.4224
1
FID
73
3
11
0
21
-2.032
41
0.75
7
W0$254
0
TEXT
8
PART_INFO
10
0
20
-4.064
40
1.4224
1
000000
73
3
11
0
21
-4.064
41
0.75
7
W0$254
0
TEXT
8
PART_PTS
10
0
20
-6.096
40
1.4224
1
1 
73
3
11
0
21
-6.096
41
0.75
7
W0$254
0
ENDBLK
0
BLOCK
2
PART_TOP_100
8
0
10
0
20
0
3
PART_TOP_100
70
64
0
INSERT
2
SYM_TOP_20
8
0
10
0
20
0
0
INSERT
2
PKG_27
8
0
10
0
20
0
0
TEXT
8
PART_NAME_TOP
10
0
20
0
40
1.4224
1
FB12
73
3
11
0
21
0
41
0.75
7
W0$254
0
TEXT
8
PART_TYPE_TOP
10
0
20
-2.032
40
1.4224
1
FID
73
3
11
0
21
-2.032
41
0.75
7
W0$254
0
TEXT
8
PART_INFO
10
0
20
-4.064
40
1.4224
1
000000
73
3
11
0
21
-4.064
41
0.75
7
W0$254
0
TEXT
8
PART_PTS
10
0
20
-6.096
40
1.4224
1
1 
73
3
11
0
21
-6.096
41
0.75
7
W0$254
0
ENDBLK
0
BLOCK
2
PART_TOP_101
8
0
10
0
20
0
3
PART_TOP_101
70
64
0
INSERT
2
SYM_TOP_21
8
0
10
0
20
0
0
INSERT
2
PKG_28
8
0
10
0
20
0
0
TEXT
8
LABEL_INFO
10
0
20
0
40
0.889
1
0 0 0 2 0 1
73
2
11
0
21
0
41
0.75
7
W0$127
0
TEXT
8
LABEL_ATTRIBUTE
10
0
20
0
40
0.889
1
PartType
73
2
11
0
21
0
41
0.75
7
W0$127
0
TEXT
8
PART_TYPE_01
10
0
20
0
40
0.889
1
TVS_BI-DIR_SMBJ400CA
73
3
11
0
21
0
41
0.75
7
W0$127
0
TEXT
8
LABEL_INFO
10
1.2899993333
20
3.85
40
1.4224
1
0 324000000 0 0 0 1
50
180
41
0.75
7
W0$2032
0
TEXT
8
LABEL_ATTRIBUTE
10
1.2899993333
20
3.85
40
1.4224
1
Ref.Des.
50
180
41
0.75
7
W0$2032
0
TEXT
8
PART_NAME_26
10
1.2899993333
20
3.85
40
1.4224
1
D10
50
180
41
0.75
7
W0$2032
0
TEXT
8
PART_INFO
10
1.2899993333
20
1.818
40
1.4224
1
000000
50
180
41
0.75
7
W0$2032
0
TEXT
8
PART_PTS
10
1.2899993333
20
-0.214
40
1.4224
1
1 2 
50
180
41
0.75
7
W0$2032
0
ENDBLK
0
BLOCK
2
PART_TOP_102
8
0
10
0
20
0
3
PART_TOP_102
70
64
0
INSERT
2
SYM_TOP_21
8
0
10
0
20
0
0
INSERT
2
PKG_28
8
0
10
0
20
0
0
TEXT
8
LABEL_INFO
10
0
20
0
40
0.889
1
0 0 0 2 0 1
73
2
11
0
21
0
41
0.75
7
W0$127
0
TEXT
8
LABEL_ATTRIBUTE
10
0
20
0
40
0.889
1
PartType
73
2
11
0
21
0
41
0.75
7
W0$127
0
TEXT
8
PART_TYPE_01
10
0
20
0
40
0.889
1
TVS_BI-DIR_SMBJ400CA
73
3
11
0
21
0
41
0.75
7
W0$127
0
TEXT
8
LABEL_INFO
10
3.26
20
-3.6999993333
40
1.4224
1
0 324000000 0 0 0 1
50
180
41
0.75
7
W0$2032
0
TEXT
8
LABEL_ATTRIBUTE
10
3.26
20
-3.6999993333
40
1.4224
1
Ref.Des.
50
180
41
0.75
7
W0$2032
0
TEXT
8
PART_NAME_26
10
3.26
20
-3.6999993333
40
1.4224
1
D11
50
180
41
0.75
7
W0$2032
0
TEXT
8
PART_INFO
10
3.26
20
-5.7319993333
40
1.4224
1
000000
50
180
41
0.75
7
W0$2032
0
TEXT
8
PART_PTS
10
3.26
20
-7.7639993333
40
1.4224
1
1 2 
50
180
41
0.75
7
W0$2032
0
ENDBLK
0
BLOCK
2
SYM_TOP_3
8
0
10
0
20
0
3
SYM_TOP_3
70
64
0
TEXT
8
SYM_NAME
10
0
20
0
40
1.4224
1
TO_263_3P
41
0.75
0
TEXT
8
SYM_PART_NAME_26
10
1.04
20
15.85
40
1.0668
1
 
41
0.75
7
W0$1524R0
0
TEXT
8
SYM_PART_TYPE_26
10
2.04
20
-2.4
40
1.0668
1
 
73
2
11
2.04
21
-2.4
41
0.75
7
W0$1524R0
0
TEXT
8
SYM_PART_NAME_27
10
1.04
20
4.85
40
1.0668
1
 
41
0.75
7
W0$2032R0
0
INSERT
2
PART_BODY_TOP_2
8
0
10
0
20
0
0
INSERT
2
STK_TOP_4
8
0
10
0
20
0
0
TEXT
8
SYM_TERMINAL
10
0
20
-3.048
40
1.778
1
1
0
INSERT
2
STK_TOP_4
8
0
10
2.54
20
0
0
TEXT
8
SYM_TERMINAL
10
0
20
-6.096
40
1.778
1
2
0
INSERT
2
STK_TOP_4
8
0
10
5.08
20
0
0
TEXT
8
SYM_TERMINAL
10
0
20
-9.144
40
1.778
1
3
0
INSERT
2
STK_TOP_5
8
0
10
2.54
20
10.6
0
TEXT
8
SYM_TERMINAL
10
0
20
-12.192
40
1.778
1
4
0
ENDBLK
0
BLOCK
2
PKG_0
8
0
10
0
20
0
3
PKG_0
70
64
0
TEXT
8
PKG_INFO
10
0
20
0
40
1.778
1
*SYM:= 3
0
TEXT
8
PKG_INFO
10
0
20
-3.048
40
1.778
1
*PKG:= 0 MIC2937 UND
0
TEXT
8
PKG_INFO
10
0
20
-6.096
40
1.778
1
*GATE:=0
0
TEXT
8
PKG_INFO
10
0
20
-9.144
40
1.778
1
*GATEPIN:= 0 7 1 IN
0
TEXT
8
PKG_INFO
10
0
20
-12.192
40
1.778
1
*GATEPIN:= 0 8 2 GND
0
TEXT
8
PKG_INFO
10
0
20
-15.24
40
1.778
1
*GATEPIN:= 0 7 3 OUT
0
ENDBLK
0
BLOCK
2
SYM_TOP_4
8
0
10
0
20
0
3
SYM_TOP_4
70
64
0
TEXT
8
SYM_NAME
10
0
20
0
40
1.4224
1
SOIC_20
41
0.75
0
TEXT
8
SYM_PART_TYPE_01
10
5.715
20
4.8
40
0.889
1
 
73
2
11
5.715
21
4.8
41
0.75
7
W0$127R0
0
TEXT
8
SYM_PART_NAME_01
10
5.715
20
4.8
40
0.889
1
 
41
0.75
7
W0$127R0
0
INSERT
2
PART_BODY_TOP_3
8
0
10
0
20
0
0
INSERT
2
STK_TOP_10
8
0
10
0
20
0
0
TEXT
8
SYM_TERMINAL
10
0
20
-3.048
40
1.778
1
1
0
INSERT
2
STK_TOP_10
8
0
10
1.27
20
0
0
TEXT
8
SYM_TERMINAL
10
0
20
-6.096
40
1.778
1
2
0
INSERT
2
STK_TOP_10
8
0
10
2.54
20
0
0
TEXT
8
SYM_TERMINAL
10
0
20
-9.144
40
1.778
1
3
0
INSERT
2
STK_TOP_10
8
0
10
3.81
20
0
0
TEXT
8
SYM_TERMINAL
10
0
20
-12.192
40
1.778
1
4
0
INSERT
2
STK_TOP_10
8
0
10
5.08
20
0
0
TEXT
8
SYM_TERMINAL
10
0
20
-15.24
40
1.778
1
5
0
INSERT
2
STK_TOP_10
8
0
10
6.35
20
0
0
TEXT
8
SYM_TERMINAL
10
0
20
-18.288
40
1.778
1
6
0
INSERT
2
STK_TOP_10
8
0
10
7.62
20
0
0
TEXT
8
SYM_TERMINAL
10
0
20
-21.336
40
1.778
1
7
0
INSERT
2
STK_TOP_10
8
0
10
8.89
20
0
0
TEXT
8
SYM_TERMINAL
10
0
20
-24.384
40
1.778
1
8
0
INSERT
2
STK_TOP_10
8
0
10
10.16
20
0
0
TEXT
8
SYM_TERMINAL
10
0
20
-27.432
40
1.778
1
9
0
INSERT
2
STK_TOP_10
8
0
10
11.43
20
0
0
TEXT
8
SYM_TERMINAL
10
0
20
-30.48
40
1.778
1
10
0
INSERT
2
STK_TOP_10
8
0
10
11.43
20
9.6
0
TEXT
8
SYM_TERMINAL
10
0
20
-33.528
40
1.778
1
11
0
INSERT
2
STK_TOP_10
8
0
10
10.16
20
9.6
0
TEXT
8
SYM_TERMINAL
10
0
20
-36.576
40
1.778
1
12
0
INSERT
2
STK_TOP_10
8
0
10
8.89
20
9.6
0
TEXT
8
SYM_TERMINAL
10
0
20
-39.624
40
1.778
1
13
0
INSERT
2
STK_TOP_10
8
0
10
7.62
20
9.6
0
TEXT
8
SYM_TERMINAL
10
0
20
-42.672
40
1.778
1
14
0
INSERT
2
STK_TOP_10
8
0
10
6.35
20
9.6
0
TEXT
8
SYM_TERMINAL
10
0
20
-45.72
40
1.778
1
15
0
INSERT
2
STK_TOP_10
8
0
10
5.08
20
9.6
0
TEXT
8
SYM_TERMINAL
10
0
20
-48.768
40
1.778
1
16
0
INSERT
2
STK_TOP_10
8
0
10
3.81
20
9.6
0
TEXT
8
SYM_TERMINAL
10
0
20
-51.816
40
1.778
1
17
0
INSERT
2
STK_TOP_10
8
0
10
2.54
20
9.6
0
TEXT
8
SYM_TERMINAL
10
0
20
-54.864
40
1.778
1
18
0
INSERT
2
STK_TOP_10
8
0
10
1.27
20
9.6
0
TEXT
8
SYM_TERMINAL
10
0
20
-57.912
40
1.778
1
19
0
INSERT
2
STK_TOP_10
8
0
10
0
20
9.6
0
TEXT
8
SYM_TERMINAL
10
0
20
-60.96
40
1.778
1
20
0
ENDBLK
0
BLOCK
2
PKG_1
8
0
10
0
20
0
3
PKG_1
70
64
0
TEXT
8
PKG_INFO
10
0
20
0
40
1.778
1
*SYM:= 4
0
TEXT
8
PKG_INFO
10
0
20
-3.048
40
1.778
1
*PKG:= 0 ADM2582_NEW TTL
0
TEXT
8
PKG_INFO
10
0
20
-6.096
40
1.778
1
*GATE:=0
0
TEXT
8
PKG_INFO
10
0
20
-9.144
40
1.778
1
*GATEPIN:= 0 0 4 RXD
0
TEXT
8
PKG_INFO
10
0
20
-12.192
40
1.778
1
*GATEPIN:= 0 5 5 RE#
0
TEXT
8
PKG_INFO
10
0
20
-15.24
40
1.778
1
*GATEPIN:= 0 5 6 DE
0
TEXT
8
PKG_INFO
10
0
20
-18.288
40
1.778
1
*GATEPIN:= 0 5 7 TXD
0
TEXT
8
PKG_INFO
10
0
20
-21.336
40
1.778
1
*GATEPIN:= 0 7 2 VDD_1_1
0
TEXT
8
PKG_INFO
10
0
20
-24.384
40
1.778
1
*GATEPIN:= 0 7 8 VDD_1_2
0
TEXT
8
PKG_INFO
10
0
20
-27.432
40
1.778
1
*GATEPIN:= 0 8 1 GND_1_1
0
TEXT
8
PKG_INFO
10
0
20
-30.48
40
1.778
1
*GATEPIN:= 0 8 3 GND_1_2
0
TEXT
8
PKG_INFO
10
0
20
-33.528
40
1.778
1
*GATEPIN:= 0 8 9 GND_1_3
0
TEXT
8
PKG_INFO
10
0
20
-36.576
40
1.778
1
*GATEPIN:= 0 8 10 GND_1_4
0
TEXT
8
PKG_INFO
10
0
20
-39.624
40
1.778
1
*GATEPIN:= 0 8 20 GND_2_4
0
TEXT
8
PKG_INFO
10
0
20
-42.672
40
1.778
1
*GATEPIN:= 0 8 16 GND_2_3
0
TEXT
8
PKG_INFO
10
0
20
-45.72
40
1.778
1
*GATEPIN:= 0 8 14 GND_2_2
0
TEXT
8
PKG_INFO
10
0
20
-48.768
40
1.778
1
*GATEPIN:= 0 8 11 GND_2_1
0
TEXT
8
PKG_INFO
10
0
20
-51.816
40
1.778
1
*GATEPIN:= 0 7 12 VISO_OUT
0
TEXT
8
PKG_INFO
10
0
20
-54.864
40
1.778
1
*GATEPIN:= 0 7 19 VISO_IN
0
TEXT
8
PKG_INFO
10
0
20
-57.912
40
1.778
1
*GATEPIN:= 0 1 13 Y
0
TEXT
8
PKG_INFO
10
0
20
-60.96
40
1.778
1
*GATEPIN:= 0 1 15 Z
0
TEXT
8
PKG_INFO
10
0
20
-64.008
40
1.778
1
*GATEPIN:= 0 1 17 B
0
TEXT
8
PKG_INFO
10
0
20
-67.056
40
1.778
1
*GATEPIN:= 0 1 18 A
0
ENDBLK
0
BLOCK
2
SYM_TOP_5
8
0
10
0
20
0
3
SYM_TOP_5
70
64
0
TEXT
8
SYM_NAME
10
0
20
0
40
1.4224
1
TP_40_SM
41
0.75
0
TEXT
8
SYM_PART_NAME_26
10
-1.397
20
1.905
40
0.889
1
 
41
0.75
7
W0$2032R0
0
TEXT
8
SYM_PART_TYPE_26
10
-1.143
20
-1.524
40
0.889
1
 
73
2
11
-1.143
21
-1.524
41
0.75
7
W0$2032R0
0
TEXT
8
SYM_PART_NAME_27
10
-1.397
20
0
40
0.889
1
 
41
0.75
7
W0$2032R0
0
INSERT
2
PART_BODY_TOP_4
8
0
10
0
20
0
0
INSERT
2
STK_TOP_11
8
0
10
0
20
0
0
TEXT
8
SYM_TERMINAL
10
0
20
-3.048
40
1.778
1
1
0
ENDBLK
0
BLOCK
2
PKG_2
8
0
10
0
20
0
3
PKG_2
70
64
0
TEXT
8
PKG_INFO
10
0
20
0
40
1.778
1
*SYM:= 5
0
TEXT
8
PKG_INFO
10
0
20
-3.048
40
1.778
1
*PKG:= 0 TESTPOINT UND
0
TEXT
8
PKG_INFO
10
0
20
-6.096
40
1.778
1
*GATE:=0
0
TEXT
8
PKG_INFO
10
0
20
-9.144
40
1.778
1
*GATEPIN:= 0 5 1 1
0
ENDBLK
0
BLOCK
2
SYM_TOP_7
8
0
10
0
20
0
3
SYM_TOP_7
70
64
0
TEXT
8
SYM_NAME
10
0
20
0
40
1.4224
1
DB9_FEMALE
41
0.75
0
TEXT
8
SYM_PART_TYPE_01
10
3.126994
20
-5.2324
40
1.778
1
 
73
2
11
3.126994
21
-5.2324
41
0.75
7
W0$254R0
0
TEXT
8
SYM_PART_NAME_26
10
2.491994
20
3.7846
40
1.778
1
 
41
0.75
7
W0$254R0
0
TEXT
8
SYM_PART_NAME_27
10
2.999994
20
-7.2644
40
1.778
1
 
41
0.75
7
W0$254R0
0
INSERT
2
PART_BODY_TOP_6
8
0
10
0
20
0
0
INSERT
2
STK_TOP_14
8
0
10
11.079988
20
0
0
TEXT
8
SYM_TERMINAL
10
0
20
-3.048
40
1.778
1
1
0
INSERT
2
STK_TOP_14
8
0
10
8.310118
20
0
0
TEXT
8
SYM_TERMINAL
10
0
20
-6.096
40
1.778
1
2
0
INSERT
2
STK_TOP_14
8
0
10
5.539994
20
0
0
TEXT
8
SYM_TERMINAL
10
0
20
-9.144
40
1.778
1
3
0
INSERT
2
STK_TOP_14
8
0
10
2.76987
20
0
0
TEXT
8
SYM_TERMINAL
10
0
20
-12.192
40
1.778
1
4
0
INSERT
2
STK_TOP_14
8
0
10
0
20
0
0
TEXT
8
SYM_TERMINAL
10
0
20
-15.24
40
1.778
1
5
0
INSERT
2
STK_TOP_14
8
0
10
9.694926
20
-2.8956
0
TEXT
8
SYM_TERMINAL
10
0
20
-18.288
40
1.778
1
6
0
INSERT
2
STK_TOP_14
8
0
10
6.925056
20
-2.8956
0
TEXT
8
SYM_TERMINAL
10
0
20
-21.336
40
1.778
1
7
0
INSERT
2
STK_TOP_14
8
0
10
4.154932
20
-2.8956
0
TEXT
8
SYM_TERMINAL
10
0
20
-24.384
40
1.778
1
8
0
INSERT
2
STK_TOP_14
8
0
10
1.385062
20
-2.8956
0
TEXT
8
SYM_TERMINAL
10
0
20
-27.432
40
1.778
1
9
0
INSERT
2
STK_TOP_15
8
0
10
-6.960108
20
-1.4478
0
TEXT
8
SYM_TERMINAL
10
0
20
-30.48
40
1.778
1
10
0
INSERT
2
STK_TOP_15
8
0
10
18.040096
20
-1.4478
0
TEXT
8
SYM_TERMINAL
10
0
20
-33.528
40
1.778
1
11
0
ENDBLK
0
BLOCK
2
PKG_3
8
0
10
0
20
0
3
PKG_3
70
64
0
TEXT
8
PKG_INFO
10
0
20
0
40
1.778
1
*SYM:= 7
0
TEXT
8
PKG_INFO
10
0
20
-3.048
40
1.778
1
*PKG:= 0 CON-DB9 TTL
0
TEXT
8
PKG_INFO
10
0
20
-6.096
40
1.778
1
*GATE:=0
0
TEXT
8
PKG_INFO
10
0
20
-9.144
40
1.778
1
*GATEPIN:= 0 5 1 1
0
TEXT
8
PKG_INFO
10
0
20
-12.192
40
1.778
1
*GATEPIN:= 0 5 2 2
0
TEXT
8
PKG_INFO
10
0
20
-15.24
40
1.778
1
*GATEPIN:= 0 5 3 3
0
TEXT
8
PKG_INFO
10
0
20
-18.288
40
1.778
1
*GATEPIN:= 0 5 4 4
0
TEXT
8
PKG_INFO
10
0
20
-21.336
40
1.778
1
*GATEPIN:= 0 5 5 5
0
TEXT
8
PKG_INFO
10
0
20
-24.384
40
1.778
1
*GATEPIN:= 0 5 6 6
0
TEXT
8
PKG_INFO
10
0
20
-27.432
40
1.778
1
*GATEPIN:= 0 5 7 7
0
TEXT
8
PKG_INFO
10
0
20
-30.48
40
1.778
1
*GATEPIN:= 0 5 8 8
0
TEXT
8
PKG_INFO
10
0
20
-33.528
40
1.778
1
*GATEPIN:= 0 5 9 9
0
TEXT
8
PKG_INFO
10
0
20
-36.576
40
1.778
1
*GATEPIN:= 0 5 10 10
0
TEXT
8
PKG_INFO
10
0
20
-39.624
40
1.778
1
*GATEPIN:= 0 5 11 11
0
ENDBLK
0
BLOCK
2
SYM_TOP_6
8
0
10
0
20
0
3
SYM_TOP_6
70
64
0
TEXT
8
SYM_NAME
10
0
20
0
40
1.4224
1
R0805
41
0.75
0
TEXT
8
SYM_PART_NAME_27
10
-1.5
20
-0.5
40
1.0668
1
 
41
0.75
7
W0$2032R0
0
TEXT
8
SYM_PART_TYPE_26
10
-1.5
20
-1
40
1.0668
1
 
73
2
11
-1.5
21
-1
41
0.75
7
W0$2032R0
0
TEXT
8
SYM_PART_NAME_26
10
-1.5
20
1.5
40
1.0668
1
 
41
0.75
7
W0$2032R0
0
INSERT
2
PART_BODY_TOP_5
8
0
10
0
20
0
0
INSERT
2
STK_TOP_13
8
0
10
-0.95
20
0
0
TEXT
8
SYM_TERMINAL
10
0
20
-3.048
40
1.778
1
1
0
INSERT
2
STK_TOP_13
8
0
10
0.95
20
0
0
TEXT
8
SYM_TERMINAL
10
0
20
-6.096
40
1.778
1
2
0
ENDBLK
0
BLOCK
2
PKG_4
8
0
10
0
20
0
3
PKG_4
70
64
0
TEXT
8
PKG_INFO
10
0
20
0
40
1.778
1
*SYM:= 6
0
TEXT
8
PKG_INFO
10
0
20
-3.048
40
1.778
1
*PKG:= 0 RES-64.2K RES
0
TEXT
8
PKG_INFO
10
0
20
-6.096
40
1.778
1
*GATE:=1
0
TEXT
8
PKG_INFO
10
0
20
-9.144
40
1.778
1
*GATEPIN:= 1 9 1 <>
0
TEXT
8
PKG_INFO
10
0
20
-12.192
40
1.778
1
*GATEPIN:= 1 9 2 <>
0
ENDBLK
0
BLOCK
2
SYM_TOP_8
8
0
10
0
20
0
3
SYM_TOP_8
70
64
0
TEXT
8
SYM_NAME
10
0
20
0
40
1.4224
1
C0603
41
0.75
0
TEXT
8
SYM_PART_NAME_27
10
-1.5
20
-0.324
40
1.0668
1
 
41
0.75
7
W0$2032R0
0
TEXT
8
SYM_PART_TYPE_26
10
-1.5
20
-1.05
40
1.0668
1
 
73
2
11
-1.5
21
-1.05
41
0.75
7
W0$2032R0
0
TEXT
8
SYM_PART_NAME_26
10
-1.5
20
1.2
40
1.0668
1
 
41
0.75
7
W0$2032R0
0
INSERT
2
PART_BODY_TOP_7
8
0
10
0
20
0
0
INSERT
2
STK_TOP_18
8
0
10
-0.75
20
0
0
TEXT
8
SYM_TERMINAL
10
0
20
-3.048
40
1.778
1
1
0
INSERT
2
STK_TOP_17
8
0
10
0.75
20
0
0
TEXT
8
SYM_TERMINAL
10
0
20
-6.096
40
1.778
1
2
0
ENDBLK
0
BLOCK
2
PKG_5
8
0
10
0
20
0
3
PKG_5
70
64
0
TEXT
8
PKG_INFO
10
0
20
0
40
1.778
1
*SYM:= 8
0
TEXT
8
PKG_INFO
10
0
20
-3.048
40
1.778
1
*PKG:= 0 CAP-0.1UF CAP
0
TEXT
8
PKG_INFO
10
0
20
-6.096
40
1.778
1
*GATE:=0
0
TEXT
8
PKG_INFO
10
0
20
-9.144
40
1.778
1
*GATEPIN:= 1 9 1 <>
0
TEXT
8
PKG_INFO
10
0
20
-12.192
40
1.778
1
*GATEPIN:= 1 9 2 <>
0
ENDBLK
0
BLOCK
2
PKG_6
8
0
10
0
20
0
3
PKG_6
70
64
0
TEXT
8
PKG_INFO
10
0
20
0
40
1.778
1
*SYM:= 6
0
TEXT
8
PKG_INFO
10
0
20
-3.048
40
1.778
1
*PKG:= 0 RES-20K RES
0
TEXT
8
PKG_INFO
10
0
20
-6.096
40
1.778
1
*GATE:=1
0
TEXT
8
PKG_INFO
10
0
20
-9.144
40
1.778
1
*GATEPIN:= 1 9 1 <>
0
TEXT
8
PKG_INFO
10
0
20
-12.192
40
1.778
1
*GATEPIN:= 1 9 2 <>
0
ENDBLK
0
BLOCK
2
PKG_7
8
0
10
0
20
0
3
PKG_7
70
64
0
TEXT
8
PKG_INFO
10
0
20
0
40
1.778
1
*SYM:= 6
0
TEXT
8
PKG_INFO
10
0
20
-3.048
40
1.778
1
*PKG:= 0 RES-47E RES
0
TEXT
8
PKG_INFO
10
0
20
-6.096
40
1.778
1
*GATE:=1
0
TEXT
8
PKG_INFO
10
0
20
-9.144
40
1.778
1
*GATEPIN:= 1 9 1 <>
0
TEXT
8
PKG_INFO
10
0
20
-12.192
40
1.778
1
*GATEPIN:= 1 9 2 <>
0
ENDBLK
0
BLOCK
2
SYM_TOP_10
8
0
10
0
20
0
3
SYM_TOP_10
70
64
0
TEXT
8
SYM_NAME
10
0
20
0
40
1.4224
1
R2512
41
0.75
0
TEXT
8
SYM_PART_NAME_26
10
-1.4
20
2.3
40
1.0668
1
 
41
0.75
7
W0$2032R0
0
TEXT
8
SYM_PART_TYPE_26
10
-1.25
20
-2.15
40
1.0668
1
 
73
2
11
-1.25
21
-2.15
41
0.75
7
W0$2032R0
0
TEXT
8
SYM_PART_NAME_27
10
-1.5
20
-0.5
40
1.0668
1
 
41
0.75
7
W0$2032R0
0
INSERT
2
PART_BODY_TOP_9
8
0
10
0
20
0
0
INSERT
2
STK_TOP_24
8
0
10
-2.8
20
0
0
TEXT
8
SYM_TERMINAL
10
0
20
-3.048
40
1.778
1
1
0
INSERT
2
STK_TOP_23
8
0
10
2.8
20
0
0
TEXT
8
SYM_TERMINAL
10
0
20
-6.096
40
1.778
1
2
0
ENDBLK
0
BLOCK
2
PKG_8
8
0
10
0
20
0
3
PKG_8
70
64
0
TEXT
8
PKG_INFO
10
0
20
0
40
1.778
1
*SYM:= 10
0
TEXT
8
PKG_INFO
10
0
20
-3.048
40
1.778
1
*PKG:= 0 RES-0.0095E RES
0
TEXT
8
PKG_INFO
10
0
20
-6.096
40
1.778
1
*GATE:=1
0
TEXT
8
PKG_INFO
10
0
20
-9.144
40
1.778
1
*GATEPIN:= 1 9 1 <>
0
TEXT
8
PKG_INFO
10
0
20
-12.192
40
1.778
1
*GATEPIN:= 1 9 2 <>
0
ENDBLK
0
BLOCK
2
PKG_9
8
0
10
0
20
0
3
PKG_9
70
64
0
TEXT
8
PKG_INFO
10
0
20
0
40
1.778
1
*SYM:= 6
0
TEXT
8
PKG_INFO
10
0
20
-3.048
40
1.778
1
*PKG:= 0 RES-10E RES
0
TEXT
8
PKG_INFO
10
0
20
-6.096
40
1.778
1
*GATE:=1
0
TEXT
8
PKG_INFO
10
0
20
-9.144
40
1.778
1
*GATEPIN:= 1 9 1 <>
0
TEXT
8
PKG_INFO
10
0
20
-12.192
40
1.778
1
*GATEPIN:= 1 9 2 <>
0
ENDBLK
0
BLOCK
2
SYM_TOP_11
8
0
10
0
20
0
3
SYM_TOP_11
70
64
0
TEXT
8
SYM_NAME
10
0
20
0
40
1.4224
1
SWITCH_2P_100
41
0.75
0
TEXT
8
SYM_PART_NAME_27
10
1.87
20
-7.01
40
1.4224
1
 
41
0.75
7
W0$2032R0
0
TEXT
8
SYM_PART_TYPE_01
10
0
20
0
40
0.889
1
 
73
2
11
0
21
0
41
0.75
7
W0$127R0
0
TEXT
8
SYM_PART_NAME_26
10
2.032
20
3.302
40
1.4224
1
 
41
0.75
7
W0$2032R0
0
INSERT
2
PART_BODY_TOP_10
8
0
10
0
20
0
0
INSERT
2
STK_TOP_27
8
0
10
0
20
0
0
TEXT
8
SYM_TERMINAL
10
0
20
-3.048
40
1.778
1
1
0
INSERT
2
STK_TOP_26
8
0
10
0
20
-2.54
0
TEXT
8
SYM_TERMINAL
10
0
20
-6.096
40
1.778
1
2
0
INSERT
2
STK_TOP_26
8
0
10
7.62
20
0
0
TEXT
8
SYM_TERMINAL
10
0
20
-9.144
40
1.778
1
3
0
INSERT
2
STK_TOP_26
8
0
10
7.62
20
-2.54
0
TEXT
8
SYM_TERMINAL
10
0
20
-12.192
40
1.778
1
4
0
ENDBLK
0
BLOCK
2
PKG_10
8
0
10
0
20
0
3
PKG_10
70
64
0
TEXT
8
PKG_INFO
10
0
20
0
40
1.778
1
*SYM:= 11
0
TEXT
8
PKG_INFO
10
0
20
-3.048
40
1.778
1
*PKG:= 0 SW_SLIDE-DPST_2P SWI
0
TEXT
8
PKG_INFO
10
0
20
-6.096
40
1.778
1
*GATE:=0
0
TEXT
8
PKG_INFO
10
0
20
-9.144
40
1.778
1
*GATEPIN:= 0 5 1 1
0
TEXT
8
PKG_INFO
10
0
20
-12.192
40
1.778
1
*GATEPIN:= 0 5 4 4
0
TEXT
8
PKG_INFO
10
0
20
-15.24
40
1.778
1
*GATEPIN:= 0 5 2 2
0
TEXT
8
PKG_INFO
10
0
20
-18.288
40
1.778
1
*GATEPIN:= 0 5 3 3
0
ENDBLK
0
BLOCK
2
SYM_TOP_12
8
0
10
0
20
0
3
SYM_TOP_12
70
64
0
TEXT
8
SYM_NAME
10
0
20
0
40
1.4224
1
C7343_T
41
0.75
0
TEXT
8
SYM_PART_NAME_27
10
-1.5
20
-0.5
40
1.0668
1
 
41
0.75
7
W0$2032R0
0
TEXT
8
SYM_PART_TYPE_26
10
-1.1
20
-2.8
40
1.0668
1
 
73
2
11
-1.1
21
-2.8
41
0.75
7
W0$2032R0
0
TEXT
8
SYM_PART_NAME_26
10
-1.6
20
2.9
40
1.0668
1
 
41
0.75
7
W0$2032R0
0
INSERT
2
PART_BODY_TOP_11
8
0
10
0
20
0
0
INSERT
2
STK_TOP_28
8
0
10
-3.2
20
0
0
TEXT
8
SYM_TERMINAL
10
0
20
-3.048
40
1.778
1
1
0
INSERT
2
STK_TOP_28
8
0
10
3.2
20
0
0
TEXT
8
SYM_TERMINAL
10
0
20
-6.096
40
1.778
1
2
0
ENDBLK
0
BLOCK
2
PKG_11
8
0
10
0
20
0
3
PKG_11
70
64
0
TEXT
8
PKG_INFO
10
0
20
0
40
1.778
1
*SYM:= 12
0
TEXT
8
PKG_INFO
10
0
20
-3.048
40
1.778
1
*PKG:= 0 CAP-100UF-TANTALUM CAP
0
TEXT
8
PKG_INFO
10
0
20
-6.096
40
1.778
1
*GATE:=0
0
TEXT
8
PKG_INFO
10
0
20
-9.144
40
1.778
1
*GATEPIN:= 0 9 1 <>
0
TEXT
8
PKG_INFO
10
0
20
-12.192
40
1.778
1
*GATEPIN:= 0 9 2 <>
0
ENDBLK
0
BLOCK
2
SYM_TOP_9
8
0
10
0
20
0
3
SYM_TOP_9
70
64
0
TEXT
8
SYM_NAME
10
0
20
0
40
1.4224
1
C0805
41
0.75
0
TEXT
8
SYM_PART_NAME_26
10
-1.5
20
1.5
40
1.0668
1
 
41
0.75
7
W0$2032R0
0
TEXT
8
SYM_PART_TYPE_26
10
-1.5
20
-1
40
1.0668
1
 
73
2
11
-1.5
21
-1
41
0.75
7
W0$2032R0
0
TEXT
8
SYM_PART_NAME_27
10
-1.5
20
-0.5
40
1.0668
1
 
41
0.75
7
W0$2032R0
0
INSERT
2
PART_BODY_TOP_8
8
0
10
0
20
0
0
INSERT
2
STK_TOP_13
8
0
10
-0.95
20
0
0
TEXT
8
SYM_TERMINAL
10
0
20
-3.048
40
1.778
1
1
0
INSERT
2
STK_TOP_13
8
0
10
0.95
20
0
0
TEXT
8
SYM_TERMINAL
10
0
20
-6.096
40
1.778
1
2
0
ENDBLK
0
BLOCK
2
PKG_12
8
0
10
0
20
0
3
PKG_12
70
64
0
TEXT
8
PKG_INFO
10
0
20
0
40
1.778
1
*SYM:= 9
0
TEXT
8
PKG_INFO
10
0
20
-3.048
40
1.778
1
*PKG:= 0 CAP-10UF CAP
0
TEXT
8
PKG_INFO
10
0
20
-6.096
40
1.778
1
*GATE:=0
0
TEXT
8
PKG_INFO
10
0
20
-9.144
40
1.778
1
*GATEPIN:= 1 9 1 <>
0
TEXT
8
PKG_INFO
10
0
20
-12.192
40
1.778
1
*GATEPIN:= 1 9 2 <>
0
ENDBLK
0
BLOCK
2
PKG_15
8
0
10
0
20
0
3
PKG_15
70
64
0
TEXT
8
PKG_INFO
10
0
20
0
40
1.778
1
*SYM:= 6
0
TEXT
8
PKG_INFO
10
0
20
-3.048
40
1.778
1
*PKG:= 0 RES-0E-0805-J-1/8W RES
0
TEXT
8
PKG_INFO
10
0
20
-6.096
40
1.778
1
*GATE:=1
0
TEXT
8
PKG_INFO
10
0
20
-9.144
40
1.778
1
*GATEPIN:= 1 9 1 <>
0
TEXT
8
PKG_INFO
10
0
20
-12.192
40
1.778
1
*GATEPIN:= 1 9 2 <>
0
ENDBLK
0
BLOCK
2
PKG_14
8
0
10
0
20
0
3
PKG_14
70
64
0
TEXT
8
PKG_INFO
10
0
20
0
40
1.778
1
*SYM:= 6
0
TEXT
8
PKG_INFO
10
0
20
-3.048
40
1.778
1
*PKG:= 0 RES-4.7K-0805-1%-0.125W RES
0
TEXT
8
PKG_INFO
10
0
20
-6.096
40
1.778
1
*GATE:=1
0
TEXT
8
PKG_INFO
10
0
20
-9.144
40
1.778
1
*GATEPIN:= 1 9 1 <>
0
TEXT
8
PKG_INFO
10
0
20
-12.192
40
1.778
1
*GATEPIN:= 1 9 2 <>
0
ENDBLK
0
BLOCK
2
PKG_17
8
0
10
0
20
0
3
PKG_17
70
64
0
TEXT
8
PKG_INFO
10
0
20
0
40
1.778
1
*SYM:= 9
0
TEXT
8
PKG_INFO
10
0
20
-3.048
40
1.778
1
*PKG:= 0 CAP_10NF_50V_0603 CAP
0
TEXT
8
PKG_INFO
10
0
20
-6.096
40
1.778
1
*GATE:=1
0
TEXT
8
PKG_INFO
10
0
20
-9.144
40
1.778
1
*GATEPIN:= 0 1 1 <>
0
TEXT
8
PKG_INFO
10
0
20
-12.192
40
1.778
1
*GATEPIN:= 0 1 2 <>
0
ENDBLK
0
BLOCK
2
SYM_TOP_15
8
0
10
0
20
0
3
SYM_TOP_15
70
64
0
TEXT
8
SYM_NAME
10
0
20
0
40
1.4224
1
CONN_10045597
41
0.75
0
TEXT
8
SYM_PART_NAME_27
10
-1.7
20
8.4
40
1.0668
1
 
41
0.75
7
W0$1524R0
0
TEXT
8
SYM_PART_TYPE_01
10
0
20
0
40
0.889
1
 
73
2
11
0
21
0
41
0.75
7
W0$127R0
0
TEXT
8
SYM_PART_NAME_26
10
-1.5
20
17.1
40
1.4224
1
 
41
0.75
7
W0$2032R0
0
INSERT
2
PART_BODY_TOP_1386
8
0
10
0
20
0
0
INSERT
2
STK_TOP_303
8
0
10
0
20
0
0
TEXT
8
SYM_TERMINAL
10
0
20
-3.048
40
1.778
1
1
0
INSERT
2
STK_TOP_303
8
0
10
0
20
5.63
0
TEXT
8
SYM_TERMINAL
10
0
20
-6.096
40
1.778
1
2
0
INSERT
2
STK_TOP_303
8
0
10
0
20
12.25
0
TEXT
8
SYM_TERMINAL
10
0
20
-9.144
40
1.778
1
3
0
ENDBLK
0
BLOCK
2
PKG_21
8
0
10
0
20
0
3
PKG_21
70
64
0
TEXT
8
PKG_INFO
10
0
20
0
40
1.778
1
*SYM:= 15
0
TEXT
8
PKG_INFO
10
0
20
-3.048
40
1.778
1
*PKG:= 0 GUIDE CON
0
TEXT
8
PKG_INFO
10
0
20
-6.096
40
1.778
1
*GATE:=0
0
TEXT
8
PKG_INFO
10
0
20
-9.144
40
1.778
1
*GATEPIN:= 0 9 1 CHGND
0
TEXT
8
PKG_INFO
10
0
20
-12.192
40
1.778
1
*GATEPIN:= 0 9 2 CHGND
0
TEXT
8
PKG_INFO
10
0
20
-15.24
40
1.778
1
*GATEPIN:= 0 9 3 CHGND
0
ENDBLK
0
BLOCK
2
PKG_18
8
0
10
0
20
0
3
PKG_18
70
64
0
TEXT
8
PKG_INFO
10
0
20
0
40
1.778
1
*SYM:= 6 9
0
TEXT
8
PKG_INFO
10
0
20
-3.048
40
1.778
1
*PKG:= 0 CAP-0.1UF_0805 CAP
0
TEXT
8
PKG_INFO
10
0
20
-6.096
40
1.778
1
*GATE:=0
0
TEXT
8
PKG_INFO
10
0
20
-9.144
40
1.778
1
*GATEPIN:= 1 9 1 <>
0
TEXT
8
PKG_INFO
10
0
20
-12.192
40
1.778
1
*GATEPIN:= 1 9 2 <>
0
ENDBLK
0
BLOCK
2
SYM_TOP_16
8
0
10
0
20
0
3
SYM_TOP_16
70
64
0
TEXT
8
SYM_NAME
10
0
20
0
40
1.4224
1
CONN_FCI_54
41
0.75
0
TEXT
8
SYM_PART_TYPE_01
10
4.8
20
-2.2
40
0.889
1
 
73
2
11
4.8
21
-2.2
41
0.75
7
W0$127R0
0
TEXT
8
SYM_PART_NAME_01
10
4.8
20
2.8
40
1.4224
1
 
41
0.75
7
W0$2032R0
0
INSERT
2
PART_BODY_TOP_1387
8
0
10
0
20
0
0
INSERT
2
STK_TOP_345
8
0
10
0
20
0
0
TEXT
8
SYM_TERMINAL
10
0
20
-3.048
40
1.778
1
A1
0
INSERT
2
STK_TOP_345
8
0
10
-0.1
20
-2
0
TEXT
8
SYM_TERMINAL
10
0
20
-6.096
40
1.778
1
A2
0
INSERT
2
STK_TOP_345
8
0
10
0
20
-4
0
TEXT
8
SYM_TERMINAL
10
0
20
-9.144
40
1.778
1
A3
0
INSERT
2
STK_TOP_345
8
0
10
-0.1
20
-6
0
TEXT
8
SYM_TERMINAL
10
0
20
-12.192
40
1.778
1
A4
0
INSERT
2
STK_TOP_345
8
0
10
0
20
-8
0
TEXT
8
SYM_TERMINAL
10
0
20
-15.24
40
1.778
1
A5
0
INSERT
2
STK_TOP_345
8
0
10
-0.1
20
-10
0
TEXT
8
SYM_TERMINAL
10
0
20
-18.288
40
1.778
1
A6
0
INSERT
2
STK_TOP_345
8
0
10
1.4
20
0
0
TEXT
8
SYM_TERMINAL
10
0
20
-21.336
40
1.778
1
B1
0
INSERT
2
STK_TOP_345
8
0
10
1.3
20
-2
0
TEXT
8
SYM_TERMINAL
10
0
20
-24.384
40
1.778
1
B2
0
INSERT
2
STK_TOP_345
8
0
10
1.4
20
-4
0
TEXT
8
SYM_TERMINAL
10
0
20
-27.432
40
1.778
1
B3
0
INSERT
2
STK_TOP_345
8
0
10
1.3
20
-6
0
TEXT
8
SYM_TERMINAL
10
0
20
-30.48
40
1.778
1
B4
0
INSERT
2
STK_TOP_345
8
0
10
1.4
20
-8
0
TEXT
8
SYM_TERMINAL
10
0
20
-33.528
40
1.778
1
B5
0
INSERT
2
STK_TOP_345
8
0
10
1.3
20
-10
0
TEXT
8
SYM_TERMINAL
10
0
20
-36.576
40
1.778
1
B6
0
INSERT
2
STK_TOP_345
8
0
10
2.8
20
0
0
TEXT
8
SYM_TERMINAL
10
0
20
-39.624
40
1.778
1
C1
0
INSERT
2
STK_TOP_345
8
0
10
2.7
20
-2
0
TEXT
8
SYM_TERMINAL
10
0
20
-42.672
40
1.778
1
C2
0
INSERT
2
STK_TOP_345
8
0
10
2.8
20
-4
0
TEXT
8
SYM_TERMINAL
10
0
20
-45.72
40
1.778
1
C3
0
INSERT
2
STK_TOP_345
8
0
10
2.7
20
-6
0
TEXT
8
SYM_TERMINAL
10
0
20
-48.768
40
1.778
1
C4
0
INSERT
2
STK_TOP_345
8
0
10
2.8
20
-8
0
TEXT
8
SYM_TERMINAL
10
0
20
-51.816
40
1.778
1
C5
0
INSERT
2
STK_TOP_345
8
0
10
2.7
20
-10
0
TEXT
8
SYM_TERMINAL
10
0
20
-54.864
40
1.778
1
C6
0
INSERT
2
STK_TOP_345
8
0
10
4.2
20
0
0
TEXT
8
SYM_TERMINAL
10
0
20
-57.912
40
1.778
1
D1
0
INSERT
2
STK_TOP_345
8
0
10
4.1
20
-2
0
TEXT
8
SYM_TERMINAL
10
0
20
-60.96
40
1.778
1
D2
0
INSERT
2
STK_TOP_345
8
0
10
4.2
20
-4
0
TEXT
8
SYM_TERMINAL
10
0
20
-64.008
40
1.778
1
D3
0
INSERT
2
STK_TOP_345
8
0
10
4.1
20
-6
0
TEXT
8
SYM_TERMINAL
10
0
20
-67.056
40
1.778
1
D4
0
INSERT
2
STK_TOP_345
8
0
10
4.2
20
-8
0
TEXT
8
SYM_TERMINAL
10
0
20
-70.104
40
1.778
1
D5
0
INSERT
2
STK_TOP_345
8
0
10
4.1
20
-10
0
TEXT
8
SYM_TERMINAL
10
0
20
-73.152
40
1.778
1
D6
0
INSERT
2
STK_TOP_345
8
0
10
5.6
20
0
0
TEXT
8
SYM_TERMINAL
10
0
20
-76.2
40
1.778
1
E1
0
INSERT
2
STK_TOP_345
8
0
10
5.5
20
-2
0
TEXT
8
SYM_TERMINAL
10
0
20
-79.248
40
1.778
1
E2
0
INSERT
2
STK_TOP_345
8
0
10
5.6
20
-4
0
TEXT
8
SYM_TERMINAL
10
0
20
-82.296
40
1.778
1
E3
0
INSERT
2
STK_TOP_345
8
0
10
5.5
20
-6
0
TEXT
8
SYM_TERMINAL
10
0
20
-85.344
40
1.778
1
E4
0
INSERT
2
STK_TOP_345
8
0
10
5.6
20
-8
0
TEXT
8
SYM_TERMINAL
10
0
20
-88.392
40
1.778
1
E5
0
INSERT
2
STK_TOP_345
8
0
10
5.5
20
-10
0
TEXT
8
SYM_TERMINAL
10
0
20
-91.44
40
1.778
1
E6
0
INSERT
2
STK_TOP_345
8
0
10
7
20
0
0
TEXT
8
SYM_TERMINAL
10
0
20
-94.488
40
1.778
1
F1
0
INSERT
2
STK_TOP_345
8
0
10
6.9
20
-2
0
TEXT
8
SYM_TERMINAL
10
0
20
-97.536
40
1.778
1
F2
0
INSERT
2
STK_TOP_345
8
0
10
7
20
-4
0
TEXT
8
SYM_TERMINAL
10
0
20
-100.584
40
1.778
1
F3
0
INSERT
2
STK_TOP_345
8
0
10
6.9
20
-6
0
TEXT
8
SYM_TERMINAL
10
0
20
-103.632
40
1.778
1
F4
0
INSERT
2
STK_TOP_345
8
0
10
7
20
-8
0
TEXT
8
SYM_TERMINAL
10
0
20
-106.68
40
1.778
1
F5
0
INSERT
2
STK_TOP_345
8
0
10
6.9
20
-10
0
TEXT
8
SYM_TERMINAL
10
0
20
-109.728
40
1.778
1
F6
0
INSERT
2
STK_TOP_345
8
0
10
8.4
20
0
0
TEXT
8
SYM_TERMINAL
10
0
20
-112.776
40
1.778
1
G1
0
INSERT
2
STK_TOP_345
8
0
10
8.3
20
-2
0
TEXT
8
SYM_TERMINAL
10
0
20
-115.824
40
1.778
1
G2
0
INSERT
2
STK_TOP_345
8
0
10
8.4
20
-4
0
TEXT
8
SYM_TERMINAL
10
0
20
-118.872
40
1.778
1
G3
0
INSERT
2
STK_TOP_345
8
0
10
8.3
20
-6
0
TEXT
8
SYM_TERMINAL
10
0
20
-121.92
40
1.778
1
G4
0
INSERT
2
STK_TOP_345
8
0
10
8.4
20
-8
0
TEXT
8
SYM_TERMINAL
10
0
20
-124.968
40
1.778
1
G5
0
INSERT
2
STK_TOP_345
8
0
10
8.3
20
-10
0
TEXT
8
SYM_TERMINAL
10
0
20
-128.016
40
1.778
1
G6
0
INSERT
2
STK_TOP_345
8
0
10
9.8
20
0
0
TEXT
8
SYM_TERMINAL
10
0
20
-131.064
40
1.778
1
H1
0
INSERT
2
STK_TOP_345
8
0
10
9.7
20
-2
0
TEXT
8
SYM_TERMINAL
10
0
20
-134.112
40
1.778
1
H2
0
INSERT
2
STK_TOP_345
8
0
10
9.8
20
-4
0
TEXT
8
SYM_TERMINAL
10
0
20
-137.16
40
1.778
1
H3
0
INSERT
2
STK_TOP_345
8
0
10
9.7
20
-6
0
TEXT
8
SYM_TERMINAL
10
0
20
-140.208
40
1.778
1
H4
0
INSERT
2
STK_TOP_345
8
0
10
9.8
20
-8
0
TEXT
8
SYM_TERMINAL
10
0
20
-143.256
40
1.778
1
H5
0
INSERT
2
STK_TOP_345
8
0
10
9.7
20
-10
0
TEXT
8
SYM_TERMINAL
10
0
20
-146.304
40
1.778
1
H6
0
INSERT
2
STK_TOP_345
8
0
10
11.2
20
0
0
TEXT
8
SYM_TERMINAL
10
0
20
-149.352
40
1.778
1
I1
0
INSERT
2
STK_TOP_345
8
0
10
11.1
20
-2
0
TEXT
8
SYM_TERMINAL
10
0
20
-152.4
40
1.778
1
I2
0
INSERT
2
STK_TOP_345
8
0
10
11.2
20
-4
0
TEXT
8
SYM_TERMINAL
10
0
20
-155.448
40
1.778
1
I3
0
INSERT
2
STK_TOP_345
8
0
10
11.1
20
-6
0
TEXT
8
SYM_TERMINAL
10
0
20
-158.496
40
1.778
1
I4
0
INSERT
2
STK_TOP_345
8
0
10
11.2
20
-8
0
TEXT
8
SYM_TERMINAL
10
0
20
-161.544
40
1.778
1
I5
0
INSERT
2
STK_TOP_345
8
0
10
11.1
20
-10
0
TEXT
8
SYM_TERMINAL
10
0
20
-164.592
40
1.778
1
I6
0
ENDBLK
0
BLOCK
2
PKG_22
8
0
10
0
20
0
3
PKG_22
70
64
0
TEXT
8
PKG_INFO
10
0
20
0
40
1.778
1
*SYM:= 16
0
TEXT
8
PKG_INFO
10
0
20
-3.048
40
1.778
1
*PKG:= 0 CON-54_AIRMAX_NEW TTL
0
TEXT
8
PKG_INFO
10
0
20
-6.096
40
1.778
1
*GATE:=0
0
TEXT
8
PKG_INFO
10
0
20
-9.144
40
1.778
1
*GATEPIN:= 0 5 I6 I6
0
TEXT
8
PKG_INFO
10
0
20
-12.192
40
1.778
1
*GATEPIN:= 0 5 I5 I5
0
TEXT
8
PKG_INFO
10
0
20
-15.24
40
1.778
1
*GATEPIN:= 0 5 I4 I4
0
TEXT
8
PKG_INFO
10
0
20
-18.288
40
1.778
1
*GATEPIN:= 0 5 I3 I3
0
TEXT
8
PKG_INFO
10
0
20
-21.336
40
1.778
1
*GATEPIN:= 0 5 I2 I2
0
TEXT
8
PKG_INFO
10
0
20
-24.384
40
1.778
1
*GATEPIN:= 0 5 I1 I1
0
TEXT
8
PKG_INFO
10
0
20
-27.432
40
1.778
1
*GATEPIN:= 0 5 H6 H6
0
TEXT
8
PKG_INFO
10
0
20
-30.48
40
1.778
1
*GATEPIN:= 0 5 H5 H5
0
TEXT
8
PKG_INFO
10
0
20
-33.528
40
1.778
1
*GATEPIN:= 0 5 H4 H4
0
TEXT
8
PKG_INFO
10
0
20
-36.576
40
1.778
1
*GATEPIN:= 0 5 H3 H3
0
TEXT
8
PKG_INFO
10
0
20
-39.624
40
1.778
1
*GATEPIN:= 0 5 H2 H2
0
TEXT
8
PKG_INFO
10
0
20
-42.672
40
1.778
1
*GATEPIN:= 0 5 H1 H1
0
TEXT
8
PKG_INFO
10
0
20
-45.72
40
1.778
1
*GATEPIN:= 0 5 G6 G6
0
TEXT
8
PKG_INFO
10
0
20
-48.768
40
1.778
1
*GATEPIN:= 0 5 G5 G5
0
TEXT
8
PKG_INFO
10
0
20
-51.816
40
1.778
1
*GATEPIN:= 0 5 G4 G4
0
TEXT
8
PKG_INFO
10
0
20
-54.864
40
1.778
1
*GATEPIN:= 0 5 G3 G3
0
TEXT
8
PKG_INFO
10
0
20
-57.912
40
1.778
1
*GATEPIN:= 0 5 G2 G2
0
TEXT
8
PKG_INFO
10
0
20
-60.96
40
1.778
1
*GATEPIN:= 0 5 G1 G1
0
TEXT
8
PKG_INFO
10
0
20
-64.008
40
1.778
1
*GATEPIN:= 0 5 F6 F6
0
TEXT
8
PKG_INFO
10
0
20
-67.056
40
1.778
1
*GATEPIN:= 0 5 F5 F5
0
TEXT
8
PKG_INFO
10
0
20
-70.104
40
1.778
1
*GATEPIN:= 0 5 F4 F4
0
TEXT
8
PKG_INFO
10
0
20
-73.152
40
1.778
1
*GATEPIN:= 0 5 F3 F3
0
TEXT
8
PKG_INFO
10
0
20
-76.2
40
1.778
1
*GATEPIN:= 0 5 F2 F2
0
TEXT
8
PKG_INFO
10
0
20
-79.248
40
1.778
1
*GATEPIN:= 0 5 F1 F1
0
TEXT
8
PKG_INFO
10
0
20
-82.296
40
1.778
1
*GATEPIN:= 0 5 E6 E6
0
TEXT
8
PKG_INFO
10
0
20
-85.344
40
1.778
1
*GATEPIN:= 0 5 E5 E5
0
TEXT
8
PKG_INFO
10
0
20
-88.392
40
1.778
1
*GATEPIN:= 0 5 E4 E4
0
TEXT
8
PKG_INFO
10
0
20
-91.44
40
1.778
1
*GATEPIN:= 0 5 E3 E3
0
TEXT
8
PKG_INFO
10
0
20
-94.488
40
1.778
1
*GATEPIN:= 0 5 E2 E2
0
TEXT
8
PKG_INFO
10
0
20
-97.536
40
1.778
1
*GATEPIN:= 0 5 E1 E1
0
TEXT
8
PKG_INFO
10
0
20
-100.584
40
1.778
1
*GATEPIN:= 0 5 D6 D6
0
TEXT
8
PKG_INFO
10
0
20
-103.632
40
1.778
1
*GATEPIN:= 0 5 D5 D5
0
TEXT
8
PKG_INFO
10
0
20
-106.68
40
1.778
1
*GATEPIN:= 0 5 D4 D4
0
TEXT
8
PKG_INFO
10
0
20
-109.728
40
1.778
1
*GATEPIN:= 0 5 D3 D3
0
TEXT
8
PKG_INFO
10
0
20
-112.776
40
1.778
1
*GATEPIN:= 0 5 D2 D2
0
TEXT
8
PKG_INFO
10
0
20
-115.824
40
1.778
1
*GATEPIN:= 0 5 D1 D1
0
TEXT
8
PKG_INFO
10
0
20
-118.872
40
1.778
1
*GATEPIN:= 0 5 C6 C6
0
TEXT
8
PKG_INFO
10
0
20
-121.92
40
1.778
1
*GATEPIN:= 0 5 C5 C5
0
TEXT
8
PKG_INFO
10
0
20
-124.968
40
1.778
1
*GATEPIN:= 0 5 C4 C4
0
TEXT
8
PKG_INFO
10
0
20
-128.016
40
1.778
1
*GATEPIN:= 0 5 C3 C3
0
TEXT
8
PKG_INFO
10
0
20
-131.064
40
1.778
1
*GATEPIN:= 0 5 C2 C2
0
TEXT
8
PKG_INFO
10
0
20
-134.112
40
1.778
1
*GATEPIN:= 0 5 C1 C1
0
TEXT
8
PKG_INFO
10
0
20
-137.16
40
1.778
1
*GATEPIN:= 0 5 B6 B6
0
TEXT
8
PKG_INFO
10
0
20
-140.208
40
1.778
1
*GATEPIN:= 0 5 B5 B5
0
TEXT
8
PKG_INFO
10
0
20
-143.256
40
1.778
1
*GATEPIN:= 0 5 B4 B4
0
TEXT
8
PKG_INFO
10
0
20
-146.304
40
1.778
1
*GATEPIN:= 0 5 B3 B3
0
TEXT
8
PKG_INFO
10
0
20
-149.352
40
1.778
1
*GATEPIN:= 0 5 B2 B2
0
TEXT
8
PKG_INFO
10
0
20
-152.4
40
1.778
1
*GATEPIN:= 0 5 B1 B1
0
TEXT
8
PKG_INFO
10
0
20
-155.448
40
1.778
1
*GATEPIN:= 0 5 A6 A6
0
TEXT
8
PKG_INFO
10
0
20
-158.496
40
1.778
1
*GATEPIN:= 0 5 A5 A5
0
TEXT
8
PKG_INFO
10
0
20
-161.544
40
1.778
1
*GATEPIN:= 0 5 A4 A4
0
TEXT
8
PKG_INFO
10
0
20
-164.592
40
1.778
1
*GATEPIN:= 0 5 A3 A3
0
TEXT
8
PKG_INFO
10
0
20
-167.64
40
1.778
1
*GATEPIN:= 0 5 A2 A2
0
TEXT
8
PKG_INFO
10
0
20
-170.688
40
1.778
1
*GATEPIN:= 0 5 A1 A1
0
ENDBLK
0
BLOCK
2
SYM_TOP_19
8
0
10
0
20
0
3
SYM_TOP_19
70
64
0
TEXT
8
SYM_NAME
10
0
20
0
40
1.4224
1
PWRPK_SO8
41
0.75
0
TEXT
8
SYM_PART_TYPE_01
10
0
20
0
40
0.889
1
 
73
2
11
0
21
0
41
0.75
7
W0$127R0
0
INSERT
2
PART_BODY_TOP_1709
8
0
10
0
20
0
0
INSERT
2
STK_TOP_350
8
0
10
-1.905
20
-3
0
TEXT
8
SYM_TERMINAL
10
0
20
-3.048
40
1.778
1
1
0
INSERT
2
STK_TOP_350
8
0
10
-0.635
20
-3
0
TEXT
8
SYM_TERMINAL
10
0
20
-6.096
40
1.778
1
2
0
INSERT
2
STK_TOP_350
8
0
10
0.635
20
-3
0
TEXT
8
SYM_TERMINAL
10
0
20
-9.144
40
1.778
1
3
0
INSERT
2
STK_TOP_350
8
0
10
1.905
20
-3
0
TEXT
8
SYM_TERMINAL
10
0
20
-12.192
40
1.778
1
4
0
INSERT
2
STK_TOP_350
8
0
10
1.905
20
3
0
TEXT
8
SYM_TERMINAL
10
0
20
-15.24
40
1.778
1
5
0
INSERT
2
STK_TOP_350
8
0
10
0.635
20
3
0
TEXT
8
SYM_TERMINAL
10
0
20
-18.288
40
1.778
1
6
0
INSERT
2
STK_TOP_350
8
0
10
-0.635
20
3
0
TEXT
8
SYM_TERMINAL
10
0
20
-21.336
40
1.778
1
7
0
INSERT
2
STK_TOP_350
8
0
10
-1.905
20
3
0
TEXT
8
SYM_TERMINAL
10
0
20
-24.384
40
1.778
1
8
0
ENDBLK
0
BLOCK
2
PKG_23
8
0
10
0
20
0
3
PKG_23
70
64
0
TEXT
8
PKG_INFO
10
0
20
0
40
1.778
1
*SYM:= 19
0
TEXT
8
PKG_INFO
10
0
20
-3.048
40
1.778
1
*PKG:= 0 FET-N-SO8-SIR462DP TRX
0
TEXT
8
PKG_INFO
10
0
20
-6.096
40
1.778
1
*GATE:=0
0
TEXT
8
PKG_INFO
10
0
20
-9.144
40
1.778
1
*GATEPIN:= 0 5 4 <>
0
TEXT
8
PKG_INFO
10
0
20
-12.192
40
1.778
1
*GATEPIN:= 0 5 1 <>
0
TEXT
8
PKG_INFO
10
0
20
-15.24
40
1.778
1
*GATEPIN:= 0 5 2 <>
0
TEXT
8
PKG_INFO
10
0
20
-18.288
40
1.778
1
*GATEPIN:= 0 5 3 <>
0
TEXT
8
PKG_INFO
10
0
20
-21.336
40
1.778
1
*GATEPIN:= 0 5 8 <>
0
TEXT
8
PKG_INFO
10
0
20
-24.384
40
1.778
1
*GATEPIN:= 0 5 7 <>
0
TEXT
8
PKG_INFO
10
0
20
-27.432
40
1.778
1
*GATEPIN:= 0 5 6 <>
0
TEXT
8
PKG_INFO
10
0
20
-30.48
40
1.778
1
*GATEPIN:= 0 5 5 <>
0
ENDBLK
0
BLOCK
2
PKG_24
8
0
10
0
20
0
3
PKG_24
70
64
0
TEXT
8
PKG_INFO
10
0
20
0
40
1.778
1
*SYM:= 19
0
TEXT
8
PKG_INFO
10
0
20
-3.048
40
1.778
1
*PKG:= 0 FET-N-SO8-SI7336ADP-T1-E3 TRX
0
TEXT
8
PKG_INFO
10
0
20
-6.096
40
1.778
1
*GATE:=0
0
TEXT
8
PKG_INFO
10
0
20
-9.144
40
1.778
1
*GATEPIN:= 0 5 4 <>
0
TEXT
8
PKG_INFO
10
0
20
-12.192
40
1.778
1
*GATEPIN:= 0 5 1 <>
0
TEXT
8
PKG_INFO
10
0
20
-15.24
40
1.778
1
*GATEPIN:= 0 5 2 <>
0
TEXT
8
PKG_INFO
10
0
20
-18.288
40
1.778
1
*GATEPIN:= 0 5 3 <>
0
TEXT
8
PKG_INFO
10
0
20
-21.336
40
1.778
1
*GATEPIN:= 0 5 8 <>
0
TEXT
8
PKG_INFO
10
0
20
-24.384
40
1.778
1
*GATEPIN:= 0 5 7 <>
0
TEXT
8
PKG_INFO
10
0
20
-27.432
40
1.778
1
*GATEPIN:= 0 5 6 <>
0
TEXT
8
PKG_INFO
10
0
20
-30.48
40
1.778
1
*GATEPIN:= 0 5 5 <>
0
ENDBLK
0
BLOCK
2
SYM_TOP_17
8
0
10
0
20
0
3
SYM_TOP_17
70
64
0
TEXT
8
SYM_NAME
10
0
20
0
40
1.4224
1
QFN50P400X500X80-21N
41
0.75
0
TEXT
8
SYM_PART_TYPE_26
10
0
20
0
40
1.05
1
 
72
1
73
1
11
0
21
0
50
90
41
0.75
7
W0$15R1
0
TEXT
8
SYM_PART_NAME_26
10
0
20
0
40
1.05
1
 
72
1
73
1
11
0
21
0
50
90
41
0.75
7
W0$15R1
0
TEXT
8
SYM_PART_NAME_27
10
0
20
0
40
1.05
1
 
72
1
73
1
11
0
21
0
50
90
41
0.75
7
W0$15R1
0
INSERT
2
PART_BODY_TOP_1707
8
0
10
0
20
0
0
INSERT
2
STK_TOP_346
8
0
10
-1.95
20
1.25
0
TEXT
8
SYM_TERMINAL
10
0
20
-3.048
40
1.778
1
1
0
INSERT
2
STK_TOP_346
8
0
10
-1.95
20
0.75
0
TEXT
8
SYM_TERMINAL
10
0
20
-6.096
40
1.778
1
2
0
INSERT
2
STK_TOP_346
8
0
10
-1.95
20
0.25
0
TEXT
8
SYM_TERMINAL
10
0
20
-9.144
40
1.778
1
3
0
INSERT
2
STK_TOP_346
8
0
10
-1.95
20
-0.25
0
TEXT
8
SYM_TERMINAL
10
0
20
-12.192
40
1.778
1
4
0
INSERT
2
STK_TOP_346
8
0
10
-1.95
20
-0.75
0
TEXT
8
SYM_TERMINAL
10
0
20
-15.24
40
1.778
1
5
0
INSERT
2
STK_TOP_346
8
0
10
-1.95
20
-1.25
0
TEXT
8
SYM_TERMINAL
10
0
20
-18.288
40
1.778
1
6
0
INSERT
2
STK_TOP_347
8
0
10
-0.75
20
-2.45
0
TEXT
8
SYM_TERMINAL
10
0
20
-21.336
40
1.778
1
7
0
INSERT
2
STK_TOP_347
8
0
10
-0.25
20
-2.45
0
TEXT
8
SYM_TERMINAL
10
0
20
-24.384
40
1.778
1
8
0
INSERT
2
STK_TOP_347
8
0
10
0.25
20
-2.45
0
TEXT
8
SYM_TERMINAL
10
0
20
-27.432
40
1.778
1
9
0
INSERT
2
STK_TOP_347
8
0
10
0.75
20
-2.45
0
TEXT
8
SYM_TERMINAL
10
0
20
-30.48
40
1.778
1
10
0
INSERT
2
STK_TOP_346
8
0
10
1.95
20
-1.25
0
TEXT
8
SYM_TERMINAL
10
0
20
-33.528
40
1.778
1
11
0
INSERT
2
STK_TOP_346
8
0
10
1.95
20
-0.75
0
TEXT
8
SYM_TERMINAL
10
0
20
-36.576
40
1.778
1
12
0
INSERT
2
STK_TOP_346
8
0
10
1.95
20
-0.25
0
TEXT
8
SYM_TERMINAL
10
0
20
-39.624
40
1.778
1
13
0
INSERT
2
STK_TOP_346
8
0
10
1.95
20
0.25
0
TEXT
8
SYM_TERMINAL
10
0
20
-42.672
40
1.778
1
14
0
INSERT
2
STK_TOP_346
8
0
10
1.95
20
0.75
0
TEXT
8
SYM_TERMINAL
10
0
20
-45.72
40
1.778
1
15
0
INSERT
2
STK_TOP_346
8
0
10
1.95
20
1.25
0
TEXT
8
SYM_TERMINAL
10
0
20
-48.768
40
1.778
1
16
0
INSERT
2
STK_TOP_347
8
0
10
0.75
20
2.45
0
TEXT
8
SYM_TERMINAL
10
0
20
-51.816
40
1.778
1
17
0
INSERT
2
STK_TOP_347
8
0
10
0.25
20
2.45
0
TEXT
8
SYM_TERMINAL
10
0
20
-54.864
40
1.778
1
18
0
INSERT
2
STK_TOP_347
8
0
10
-0.25
20
2.45
0
TEXT
8
SYM_TERMINAL
10
0
20
-57.912
40
1.778
1
19
0
INSERT
2
STK_TOP_347
8
0
10
-0.75
20
2.45
0
TEXT
8
SYM_TERMINAL
10
0
20
-60.96
40
1.778
1
20
0
INSERT
2
STK_TOP_348
8
0
10
0
20
0
0
TEXT
8
SYM_TERMINAL
10
0
20
-64.008
40
1.778
1
21
0
ENDBLK
0
BLOCK
2
PKG_25
8
0
10
0
20
0
3
PKG_25
70
64
0
TEXT
8
PKG_INFO
10
0
20
0
40
1.778
1
*SYM:= 17
0
TEXT
8
PKG_INFO
10
0
20
-3.048
40
1.778
1
*PKG:= 0 LT4227 TTL
0
TEXT
8
PKG_INFO
10
0
20
-6.096
40
1.778
1
*GATE:=0
0
TEXT
8
PKG_INFO
10
0
20
-9.144
40
1.778
1
*GATEPIN:= 0 5 20 DGATE1
0
TEXT
8
PKG_INFO
10
0
20
-12.192
40
1.778
1
*GATEPIN:= 0 5 1 SENSE-
0
TEXT
8
PKG_INFO
10
0
20
-15.24
40
1.778
1
*GATEPIN:= 0 5 2 SENSE+
0
TEXT
8
PKG_INFO
10
0
20
-18.288
40
1.778
1
*GATEPIN:= 0 5 3 IN1
0
TEXT
8
PKG_INFO
10
0
20
-21.336
40
1.778
1
*GATEPIN:= 0 5 4 INTVCC
0
TEXT
8
PKG_INFO
10
0
20
-24.384
40
1.778
1
*GATEPIN:= 0 5 5 GND
0
TEXT
8
PKG_INFO
10
0
20
-27.432
40
1.778
1
*GATEPIN:= 0 5 6 IN2
0
TEXT
8
PKG_INFO
10
0
20
-30.48
40
1.778
1
*GATEPIN:= 0 5 7 DGATE2
0
TEXT
8
PKG_INFO
10
0
20
-33.528
40
1.778
1
*GATEPIN:= 0 5 8 CPO2
0
TEXT
8
PKG_INFO
10
0
20
-36.576
40
1.778
1
*GATEPIN:= 0 5 10 \PWRGD
0
TEXT
8
PKG_INFO
10
0
20
-39.624
40
1.778
1
*GATEPIN:= 0 5 12 \D2ON
0
TEXT
8
PKG_INFO
10
0
20
-42.672
40
1.778
1
*GATEPIN:= 0 5 13 TMR
0
TEXT
8
PKG_INFO
10
0
20
-45.72
40
1.778
1
*GATEPIN:= 0 5 15 ON
0
TEXT
8
PKG_INFO
10
0
20
-48.768
40
1.778
1
*GATEPIN:= 0 5 17 OUT
0
TEXT
8
PKG_INFO
10
0
20
-51.816
40
1.778
1
*GATEPIN:= 0 5 18 HGATE
0
TEXT
8
PKG_INFO
10
0
20
-54.864
40
1.778
1
*GATEPIN:= 0 5 19 CPO1
0
TEXT
8
PKG_INFO
10
0
20
-57.912
40
1.778
1
*GATEPIN:= 0 5 14 \EN
0
TEXT
8
PKG_INFO
10
0
20
-60.96
40
1.778
1
*GATEPIN:= 0 5 16 NC
0
TEXT
8
PKG_INFO
10
0
20
-64.008
40
1.778
1
*GATEPIN:= 0 5 11 \FAULT
0
TEXT
8
PKG_INFO
10
0
20
-67.056
40
1.778
1
*GATEPIN:= 0 5 21 T_PAD
0
TEXT
8
PKG_INFO
10
0
20
-70.104
40
1.778
1
*GATEPIN:= 0 5 9 NC1
0
ENDBLK
0
BLOCK
2
SYM_TOP_20
8
0
10
0
20
0
3
SYM_TOP_20
70
64
0
TEXT
8
SYM_NAME
10
0
20
0
40
1.4224
1
FID
41
0.75
0
INSERT
2
PART_BODY_TOP_1720
8
0
10
0
20
0
0
INSERT
2
STK_TOP_374
8
0
10
0
20
0
0
TEXT
8
SYM_TERMINAL
10
0
20
-3.048
40
1.778
1
1
0
ENDBLK
0
BLOCK
2
PKG_27
8
0
10
0
20
0
3
PKG_27
70
64
0
TEXT
8
PKG_INFO
10
0
20
0
40
1.778
1
*SYM:= 20
0
TEXT
8
PKG_INFO
10
0
20
-3.048
40
1.778
1
*PKG:= 0 FID UND
0
TEXT
8
PKG_INFO
10
0
20
-6.096
40
1.778
1
*GATE:=0
0
TEXT
8
PKG_INFO
10
0
20
-9.144
40
1.778
1
*GATEPIN:= 0 9 1 <>
0
ENDBLK
0
BLOCK
2
SYM_TOP_21
8
0
10
0
20
0
3
SYM_TOP_21
70
64
0
TEXT
8
SYM_NAME
10
0
20
0
40
1.4224
1
SMB
41
0.75
0
TEXT
8
SYM_PART_NAME_27
10
0
20
0
40
1.05
1
 
72
1
73
1
11
0
21
0
41
0.75
7
W0$15R1
0
TEXT
8
SYM_PART_TYPE_26
10
0
20
-0.1
40
1.05
1
 
72
1
73
1
11
0
21
-0.1
41
0.75
7
W0$15R1
0
TEXT
8
SYM_PART_NAME_26
10
0
20
0
40
1.4224
1
 
72
1
73
1
11
0
21
0
41
0.75
7
W0$2032R1
0
INSERT
2
PART_BODY_TOP_1721
8
0
10
0
20
0
0
INSERT
2
STK_TOP_371
8
0
10
2.35
20
0
0
TEXT
8
SYM_TERMINAL
10
0
20
-3.048
40
1.778
1
1
0
INSERT
2
STK_TOP_371
8
0
10
-2.35
20
0
0
TEXT
8
SYM_TERMINAL
10
0
20
-6.096
40
1.778
1
2
0
ENDBLK
0
BLOCK
2
PKG_28
8
0
10
0
20
0
3
PKG_28
70
64
0
TEXT
8
PKG_INFO
10
0
20
0
40
1.778
1
*SYM:= 21
0
TEXT
8
PKG_INFO
10
0
20
-3.048
40
1.778
1
*PKG:= 0 TVS_BI-DIR_SMBJ400CA DIO
0
TEXT
8
PKG_INFO
10
0
20
-6.096
40
1.778
1
*GATE:=0
0
TEXT
8
PKG_INFO
10
0
20
-9.144
40
1.778
1
*GATEPIN:= 0 5 1 1
0
TEXT
8
PKG_INFO
10
0
20
-12.192
40
1.778
1
*GATEPIN:= 0 5 2 2
0
ENDBLK
0
BLOCK
2
PART_BODY_TOP_2
8
0
10
0
20
0
3
PART_BODY_TOP_2
70
64
0
POLYLINE
8
PART_TOP_2DLINE_26
66
1
40
0.2032
41
0.2032
70
1
0
VERTEX
8
PART_TOP_2DLINE_26
10
-3.46
20
15.35
0
VERTEX
8
PART_TOP_2DLINE_26
10
8.54
20
15.35
0
VERTEX
8
PART_TOP_2DLINE_26
10
8.54
20
-2.15
0
VERTEX
8
PART_TOP_2DLINE_26
10
-3.46
20
-2.15
0
SEQEND
0
INSERT
2
SMOOTH_0$2032
8
PART_TOP_2DLINE_26
10
-3.46
20
15.35
0
INSERT
2
SMOOTH_0$2032
8
PART_TOP_2DLINE_26
10
8.54
20
15.35
0
INSERT
2
SMOOTH_0$2032
8
PART_TOP_2DLINE_26
10
8.54
20
-2.15
0
INSERT
2
SMOOTH_0$2032
8
PART_TOP_2DLINE_26
10
-3.46
20
-2.15
0
POLYLINE
8
PART_TOP_2DLINE_27
66
1
40
0.2032
41
0.2032
70
1
0
VERTEX
8
PART_TOP_2DLINE_27
10
-3.46
20
15.35
0
VERTEX
8
PART_TOP_2DLINE_27
10
8.54
20
15.35
0
VERTEX
8
PART_TOP_2DLINE_27
10
8.54
20
-2.15
0
VERTEX
8
PART_TOP_2DLINE_27
10
-3.46
20
-2.15
0
SEQEND
0
INSERT
2
SMOOTH_0$2032
8
PART_TOP_2DLINE_27
10
-3.46
20
15.35
0
INSERT
2
SMOOTH_0$2032
8
PART_TOP_2DLINE_27
10
8.54
20
15.35
0
INSERT
2
SMOOTH_0$2032
8
PART_TOP_2DLINE_27
10
8.54
20
-2.15
0
INSERT
2
SMOOTH_0$2032
8
PART_TOP_2DLINE_27
10
-3.46
20
-2.15
0
POLYLINE
8
PART_TOP_2DLINE_26
66
1
40
0.2032
41
0.2032
70
1
0
VERTEX
8
PART_TOP_2DLINE_26
10
0.04
20
-2.4
0
VERTEX
8
PART_TOP_2DLINE_26
10
-1.21
20
-3.15
0
VERTEX
8
PART_TOP_2DLINE_26
10
1.29
20
-3.15
0
SEQEND
0
INSERT
2
SMOOTH_0$2032
8
PART_TOP_2DLINE_26
10
0.04
20
-2.4
0
INSERT
2
SMOOTH_0$2032
8
PART_TOP_2DLINE_26
10
-1.21
20
-3.15
0
INSERT
2
SMOOTH_0$2032
8
PART_TOP_2DLINE_26
10
1.29
20
-3.15
0
POLYLINE
8
PART_TOP_2DLINE_27
66
1
40
0.2032
41
0.2032
70
1
0
VERTEX
8
PART_TOP_2DLINE_27
10
0.04
20
-2.4
0
VERTEX
8
PART_TOP_2DLINE_27
10
-1.21
20
-3.15
0
VERTEX
8
PART_TOP_2DLINE_27
10
1.29
20
-3.15
0
SEQEND
0
INSERT
2
SMOOTH_0$2032
8
PART_TOP_2DLINE_27
10
0.04
20
-2.4
0
INSERT
2
SMOOTH_0$2032
8
PART_TOP_2DLINE_27
10
-1.21
20
-3.15
0
INSERT
2
SMOOTH_0$2032
8
PART_TOP_2DLINE_27
10
1.29
20
-3.15
0
ENDBLK
0
BLOCK
2
STK_TOP_4
8
0
10
0
20
0
3
STK_TOP_4
70
64
0
INSERT
2
DRIL_HOLE_0
8
DRIL_PLTE_THRU_01
10
0
20
0
0
INSERT
2
DRIL_HOLE_0
8
DRIL_PLTE_THRU_02
10
0
20
0
0
INSERT
2
DRIL_HOLE_0
8
DRIL_PLTE_THRU_03
10
0
20
0
0
INSERT
2
DRIL_HOLE_0
8
DRIL_PLTE_THRU_04
10
0
20
0
0
INSERT
2
PAD_0
8
PADS_INNER
10
0
20
0
0
INSERT
2
PAD_0
8
PADS_BOT
10
0
20
0
0
INSERT
2
PAD_1
8
PADS_TOP
10
0
20
0
50
90
0
ENDBLK
0
BLOCK
2
STK_TOP_5
8
0
10
0
20
0
3
STK_TOP_5
70
64
0
INSERT
2
DRIL_HOLE_0
8
DRIL_PLTE_THRU_01
10
0
20
0
0
INSERT
2
DRIL_HOLE_0
8
DRIL_PLTE_THRU_02
10
0
20
0
0
INSERT
2
DRIL_HOLE_0
8
DRIL_PLTE_THRU_03
10
0
20
0
0
INSERT
2
DRIL_HOLE_0
8
DRIL_PLTE_THRU_04
10
0
20
0
0
INSERT
2
PAD_0
8
PADS_INNER
10
0
20
0
0
INSERT
2
PAD_0
8
PADS_BOT
10
0
20
0
0
INSERT
2
PAD_2
8
PADS_TOP
10
0
20
0
0
ENDBLK
0
BLOCK
2
PART_BODY_TOP_3
8
0
10
0
20
0
3
PART_BODY_TOP_3
70
64
0
POLYLINE
8
PART_TOP_2DLINE_26
66
1
40
0.254
41
0.254
70
1
0
VERTEX
8
PART_TOP_2DLINE_26
10
-1
20
1.27
0
VERTEX
8
PART_TOP_2DLINE_26
10
-1
20
4.275
0
VERTEX
8
PART_TOP_2DLINE_26
10
-0.1606253333
20
4.275
0
VERTEX
8
PART_TOP_2DLINE_26
10
-0.1606253333
20
5.325
0
VERTEX
8
PART_TOP_2DLINE_26
10
-1
20
5.325
0
VERTEX
8
PART_TOP_2DLINE_26
10
-1
20
8.382
0
VERTEX
8
PART_TOP_2DLINE_26
10
12.43
20
8.382
0
VERTEX
8
PART_TOP_2DLINE_26
10
12.43
20
1.27
0
SEQEND
0
INSERT
2
SMOOTH_0$254
8
PART_TOP_2DLINE_26
10
-1
20
1.27
0
INSERT
2
SMOOTH_0$254
8
PART_TOP_2DLINE_26
10
-1
20
4.275
0
INSERT
2
SMOOTH_0$254
8
PART_TOP_2DLINE_26
10
-0.1606253333
20
4.275
0
INSERT
2
SMOOTH_0$254
8
PART_TOP_2DLINE_26
10
-0.1606253333
20
5.325
0
INSERT
2
SMOOTH_0$254
8
PART_TOP_2DLINE_26
10
-1
20
5.325
0
INSERT
2
SMOOTH_0$254
8
PART_TOP_2DLINE_26
10
-1
20
8.382
0
INSERT
2
SMOOTH_0$254
8
PART_TOP_2DLINE_26
10
12.43
20
8.382
0
INSERT
2
SMOOTH_0$254
8
PART_TOP_2DLINE_26
10
12.43
20
1.27
0
ENDBLK
0
BLOCK
2
STK_TOP_10
8
0
10
0
20
0
3
STK_TOP_10
70
64
0
INSERT
2
DRIL_HOLE_0
8
DRIL_NPLTE_THRU_01
10
0
20
0
0
INSERT
2
DRIL_HOLE_0
8
DRIL_NPLTE_THRU_02
10
0
20
0
0
INSERT
2
DRIL_HOLE_0
8
DRIL_NPLTE_THRU_03
10
0
20
0
0
INSERT
2
DRIL_HOLE_0
8
DRIL_NPLTE_THRU_04
10
0
20
0
0
INSERT
2
PAD_0
8
PADS_INNER
10
0
20
0
0
INSERT
2
PAD_0
8
PADS_BOT
10
0
20
0
0
INSERT
2
PAD_3
8
PADS_TOP
10
0
20
0
50
90
0
ENDBLK
0
BLOCK
2
PART_BODY_TOP_4
8
0
10
0
20
0
3
PART_BODY_TOP_4
70
64
0
POLYLINE
8
PART_TOP_2DLINE_26
66
1
40
0.2032
41
0.2032
70
1
0
VERTEX
8
PART_TOP_2DLINE_26
10
-0.908738
20
0
42
1
0
VERTEX
8
PART_TOP_2DLINE_26
10
0.908738
20
0
42
1
0
SEQEND
0
POLYLINE
8
PART_TOP_2DLINE_27
66
1
40
0.2032
41
0.2032
70
1
0
VERTEX
8
PART_TOP_2DLINE_27
10
-0.762
20
0
42
1
0
VERTEX
8
PART_TOP_2DLINE_27
10
0.762
20
0
42
1
0
SEQEND
0
ENDBLK
0
BLOCK
2
STK_TOP_11
8
0
10
0
20
0
3
STK_TOP_11
70
64
0
INSERT
2
DRIL_HOLE_0
8
DRIL_NPLTE_THRU_01
10
0
20
0
0
INSERT
2
DRIL_HOLE_0
8
DRIL_NPLTE_THRU_02
10
0
20
0
0
INSERT
2
DRIL_HOLE_0
8
DRIL_NPLTE_THRU_03
10
0
20
0
0
INSERT
2
DRIL_HOLE_0
8
DRIL_NPLTE_THRU_04
10
0
20
0
0
INSERT
2
PAD_0
8
PADS_INNER
10
0
20
0
0
INSERT
2
PAD_0
8
PADS_BOT
10
0
20
0
0
INSERT
2
PAD_4
8
PADS_TOP
10
0
20
0
0
ENDBLK
0
BLOCK
2
PART_BODY_TOP_6
8
0
10
0
20
0
3
PART_BODY_TOP_6
70
64
0
POLYLINE
8
PART_TOP_2DLINE_26
66
1
40
0.254
41
0.254
38
0
39
544
0
VERTEX
8
PART_TOP_2DLINE_26
10
-2.791206
20
-13.2334
0
VERTEX
8
PART_TOP_2DLINE_26
10
-2.791206
20
-19.5326
0
VERTEX
8
PART_TOP_2DLINE_26
10
13.871194
20
-19.5326
0
VERTEX
8
PART_TOP_2DLINE_26
10
13.871194
20
-13.2334
0
SEQEND
0
INSERT
2
SMOOTH_0$254
8
PART_TOP_2DLINE_26
10
-2.791206
20
-13.2334
0
INSERT
2
SMOOTH_0$254
8
PART_TOP_2DLINE_26
10
-2.791206
20
-19.5326
0
INSERT
2
SMOOTH_0$254
8
PART_TOP_2DLINE_26
10
13.871194
20
-19.5326
0
INSERT
2
SMOOTH_0$254
8
PART_TOP_2DLINE_26
10
13.871194
20
-13.2334
0
POLYLINE
8
PART_TOP_2DLINE_26
66
1
40
0.254
41
0.254
38
0
39
544
0
VERTEX
8
PART_TOP_2DLINE_26
10
-10.157206
20
-10.6934
0
VERTEX
8
PART_TOP_2DLINE_26
10
21.237194
20
-10.6934
0
SEQEND
0
INSERT
2
SMOOTH_0$254
8
PART_TOP_2DLINE_26
10
-10.157206
20
-10.6934
0
INSERT
2
SMOOTH_0$254
8
PART_TOP_2DLINE_26
10
21.237194
20
-10.6934
0
POLYLINE
8
PART_TOP_2DLINE_26
66
1
40
0.254
41
0.254
38
0
39
544
70
1
0
VERTEX
8
PART_TOP_2DLINE_26
10
-10.157206
20
-13.2334
0
VERTEX
8
PART_TOP_2DLINE_26
10
-10.157206
20
1.8034
0
VERTEX
8
PART_TOP_2DLINE_26
10
21.237194
20
1.8034
0
VERTEX
8
PART_TOP_2DLINE_26
10
21.237194
20
-13.2334
0
SEQEND
0
INSERT
2
SMOOTH_0$254
8
PART_TOP_2DLINE_26
10
-10.157206
20
-13.2334
0
INSERT
2
SMOOTH_0$254
8
PART_TOP_2DLINE_26
10
-10.157206
20
1.8034
0
INSERT
2
SMOOTH_0$254
8
PART_TOP_2DLINE_26
10
21.237194
20
1.8034
0
INSERT
2
SMOOTH_0$254
8
PART_TOP_2DLINE_26
10
21.237194
20
-13.2334
0
POLYLINE
8
PART_TOP_2DLINE_26
66
1
40
0.254
41
0.254
38
0
39
544
0
VERTEX
8
PART_TOP_2DLINE_26
10
-2.791206
20
-10.6934
0
VERTEX
8
PART_TOP_2DLINE_26
10
-2.791206
20
1.8034
0
SEQEND
0
INSERT
2
SMOOTH_0$254
8
PART_TOP_2DLINE_26
10
-2.791206
20
-10.6934
0
INSERT
2
SMOOTH_0$254
8
PART_TOP_2DLINE_26
10
-2.791206
20
1.8034
0
POLYLINE
8
PART_TOP_2DLINE_26
66
1
40
0.254
41
0.254
38
0
39
544
0
VERTEX
8
PART_TOP_2DLINE_26
10
13.871194
20
-10.6934
0
VERTEX
8
PART_TOP_2DLINE_26
10
13.871194
20
1.8034
0
SEQEND
0
INSERT
2
SMOOTH_0$254
8
PART_TOP_2DLINE_26
10
13.871194
20
-10.6934
0
INSERT
2
SMOOTH_0$254
8
PART_TOP_2DLINE_26
10
13.871194
20
1.8034
0
POLYLINE
8
PART_TOP_2DLINE_27
66
1
40
0.254
41
0.254
38
0
39
544
0
VERTEX
8
PART_TOP_2DLINE_27
10
13.871194
20
-10.6934
0
VERTEX
8
PART_TOP_2DLINE_27
10
13.871194
20
1.8034
0
SEQEND
0
INSERT
2
SMOOTH_0$254
8
PART_TOP_2DLINE_27
10
13.871194
20
-10.6934
0
INSERT
2
SMOOTH_0$254
8
PART_TOP_2DLINE_27
10
13.871194
20
1.8034
0
POLYLINE
8
PART_TOP_2DLINE_27
66
1
40
0.254
41
0.254
38
0
39
544
0
VERTEX
8
PART_TOP_2DLINE_27
10
-2.791206
20
-10.6934
0
VERTEX
8
PART_TOP_2DLINE_27
10
-2.791206
20
1.8034
0
SEQEND
0
INSERT
2
SMOOTH_0$254
8
PART_TOP_2DLINE_27
10
-2.791206
20
-10.6934
0
INSERT
2
SMOOTH_0$254
8
PART_TOP_2DLINE_27
10
-2.791206
20
1.8034
0
POLYLINE
8
PART_TOP_2DLINE_27
66
1
40
0.254
41
0.254
38
0
39
544
70
1
0
VERTEX
8
PART_TOP_2DLINE_27
10
-10.157206
20
-13.2334
0
VERTEX
8
PART_TOP_2DLINE_27
10
-10.157206
20
1.8034
0
VERTEX
8
PART_TOP_2DLINE_27
10
21.237194
20
1.8034
0
VERTEX
8
PART_TOP_2DLINE_27
10
21.237194
20
-13.2334
0
SEQEND
0
INSERT
2
SMOOTH_0$254
8
PART_TOP_2DLINE_27
10
-10.157206
20
-13.2334
0
INSERT
2
SMOOTH_0$254
8
PART_TOP_2DLINE_27
10
-10.157206
20
1.8034
0
INSERT
2
SMOOTH_0$254
8
PART_TOP_2DLINE_27
10
21.237194
20
1.8034
0
INSERT
2
SMOOTH_0$254
8
PART_TOP_2DLINE_27
10
21.237194
20
-13.2334
0
POLYLINE
8
PART_TOP_2DLINE_27
66
1
40
0.254
41
0.254
38
0
39
544
0
VERTEX
8
PART_TOP_2DLINE_27
10
-10.157206
20
-10.6934
0
VERTEX
8
PART_TOP_2DLINE_27
10
21.237194
20
-10.6934
0
SEQEND
0
INSERT
2
SMOOTH_0$254
8
PART_TOP_2DLINE_27
10
-10.157206
20
-10.6934
0
INSERT
2
SMOOTH_0$254
8
PART_TOP_2DLINE_27
10
21.237194
20
-10.6934
0
POLYLINE
8
PART_TOP_2DLINE_27
66
1
40
0.254
41
0.254
38
0
39
544
0
VERTEX
8
PART_TOP_2DLINE_27
10
-2.791206
20
-13.2334
0
VERTEX
8
PART_TOP_2DLINE_27
10
-2.791206
20
-19.5326
0
VERTEX
8
PART_TOP_2DLINE_27
10
13.871194
20
-19.5326
0
VERTEX
8
PART_TOP_2DLINE_27
10
13.871194
20
-13.2334
0
SEQEND
0
INSERT
2
SMOOTH_0$254
8
PART_TOP_2DLINE_27
10
-2.791206
20
-13.2334
0
INSERT
2
SMOOTH_0$254
8
PART_TOP_2DLINE_27
10
-2.791206
20
-19.5326
0
INSERT
2
SMOOTH_0$254
8
PART_TOP_2DLINE_27
10
13.871194
20
-19.5326
0
INSERT
2
SMOOTH_0$254
8
PART_TOP_2DLINE_27
10
13.871194
20
-13.2334
0
ENDBLK
0
BLOCK
2
STK_TOP_14
8
0
10
0
20
0
3
STK_TOP_14
70
64
0
INSERT
2
DRIL_HOLE_1$1176
8
DRIL_PLTE_THRU_01
10
0
20
0
0
INSERT
2
DRIL_HOLE_1$1176
8
DRIL_PLTE_THRU_02
10
0
20
0
0
INSERT
2
DRIL_HOLE_1$1176
8
DRIL_PLTE_THRU_03
10
0
20
0
0
INSERT
2
DRIL_HOLE_1$1176
8
DRIL_PLTE_THRU_04
10
0
20
0
0
INSERT
2
PAD_5
8
PADS_INNER
10
0
20
0
0
INSERT
2
PAD_5
8
PADS_BOT
10
0
20
0
0
INSERT
2
PAD_5
8
PADS_TOP
10
0
20
0
0
ENDBLK
0
BLOCK
2
STK_TOP_15
8
0
10
0
20
0
3
STK_TOP_15
70
64
0
INSERT
2
DRIL_HOLE_3$2512
8
DRIL_PLTE_THRU_01
10
0
20
0
0
INSERT
2
DRIL_HOLE_3$2512
8
DRIL_PLTE_THRU_02
10
0
20
0
0
INSERT
2
DRIL_HOLE_3$2512
8
DRIL_PLTE_THRU_03
10
0
20
0
0
INSERT
2
DRIL_HOLE_3$2512
8
DRIL_PLTE_THRU_04
10
0
20
0
0
INSERT
2
PAD_6
8
PADS_INNER
10
0
20
0
0
INSERT
2
PAD_6
8
PADS_BOT
10
0
20
0
0
INSERT
2
PAD_6
8
PADS_TOP
10
0
20
0
0
ENDBLK
0
BLOCK
2
PART_BODY_TOP_5
8
0
10
0
20
0
3
PART_BODY_TOP_5
70
64
0
POLYLINE
8
PART_TOP_2DLINE_26
66
1
40
0.2032
41
0.2032
0
VERTEX
8
PART_TOP_2DLINE_26
10
-2
20
-1
0
VERTEX
8
PART_TOP_2DLINE_26
10
2
20
-1
0
VERTEX
8
PART_TOP_2DLINE_26
10
2
20
1
0
VERTEX
8
PART_TOP_2DLINE_26
10
-2
20
1
0
VERTEX
8
PART_TOP_2DLINE_26
10
-2
20
-1
0
SEQEND
0
INSERT
2
SMOOTH_0$2032
8
PART_TOP_2DLINE_26
10
-2
20
-1
0
INSERT
2
SMOOTH_0$2032
8
PART_TOP_2DLINE_26
10
2
20
-1
0
INSERT
2
SMOOTH_0$2032
8
PART_TOP_2DLINE_26
10
2
20
1
0
INSERT
2
SMOOTH_0$2032
8
PART_TOP_2DLINE_26
10
-2
20
1
0
INSERT
2
SMOOTH_0$2032
8
PART_TOP_2DLINE_26
10
-2
20
-1
0
POLYLINE
8
PART_TOP_2DLINE_27
66
1
40
0.2032
41
0.2032
0
VERTEX
8
PART_TOP_2DLINE_27
10
-2
20
-1
0
VERTEX
8
PART_TOP_2DLINE_27
10
2
20
-1
0
VERTEX
8
PART_TOP_2DLINE_27
10
2
20
1
0
VERTEX
8
PART_TOP_2DLINE_27
10
-2
20
1
0
VERTEX
8
PART_TOP_2DLINE_27
10
-2
20
-1
0
SEQEND
0
INSERT
2
SMOOTH_0$2032
8
PART_TOP_2DLINE_27
10
-2
20
-1
0
INSERT
2
SMOOTH_0$2032
8
PART_TOP_2DLINE_27
10
2
20
-1
0
INSERT
2
SMOOTH_0$2032
8
PART_TOP_2DLINE_27
10
2
20
1
0
INSERT
2
SMOOTH_0$2032
8
PART_TOP_2DLINE_27
10
-2
20
1
0
INSERT
2
SMOOTH_0$2032
8
PART_TOP_2DLINE_27
10
-2
20
-1
0
ENDBLK
0
BLOCK
2
STK_TOP_13
8
0
10
0
20
0
3
STK_TOP_13
70
64
0
INSERT
2
DRIL_HOLE_0
8
DRIL_PLTE_THRU_01
10
0
20
0
0
INSERT
2
DRIL_HOLE_0
8
DRIL_PLTE_THRU_02
10
0
20
0
0
INSERT
2
DRIL_HOLE_0
8
DRIL_PLTE_THRU_03
10
0
20
0
0
INSERT
2
DRIL_HOLE_0
8
DRIL_PLTE_THRU_04
10
0
20
0
0
INSERT
2
PAD_0
8
PADS_INNER
10
0
20
0
0
INSERT
2
PAD_0
8
PADS_BOT
10
0
20
0
0
INSERT
2
PAD_7
8
PADS_TOP
10
0
20
0
50
90
0
ENDBLK
0
BLOCK
2
PART_BODY_TOP_7
8
0
10
0
20
0
3
PART_BODY_TOP_7
70
64
0
POLYLINE
8
PART_TOP_2DLINE_26
66
1
40
0.2032
41
0.2032
0
VERTEX
8
PART_TOP_2DLINE_26
10
-1.45
20
-0.75
0
VERTEX
8
PART_TOP_2DLINE_26
10
1.45
20
-0.75
0
VERTEX
8
PART_TOP_2DLINE_26
10
1.45
20
0.75
0
VERTEX
8
PART_TOP_2DLINE_26
10
-1.45
20
0.75
0
VERTEX
8
PART_TOP_2DLINE_26
10
-1.45
20
-0.75
0
SEQEND
0
INSERT
2
SMOOTH_0$2032
8
PART_TOP_2DLINE_26
10
-1.45
20
-0.75
0
INSERT
2
SMOOTH_0$2032
8
PART_TOP_2DLINE_26
10
1.45
20
-0.75
0
INSERT
2
SMOOTH_0$2032
8
PART_TOP_2DLINE_26
10
1.45
20
0.75
0
INSERT
2
SMOOTH_0$2032
8
PART_TOP_2DLINE_26
10
-1.45
20
0.75
0
INSERT
2
SMOOTH_0$2032
8
PART_TOP_2DLINE_26
10
-1.45
20
-0.75
0
POLYLINE
8
PART_TOP_2DLINE_27
66
1
40
0.2032
41
0.2032
0
VERTEX
8
PART_TOP_2DLINE_27
10
-1.45
20
-0.75
0
VERTEX
8
PART_TOP_2DLINE_27
10
1.45
20
-0.75
0
VERTEX
8
PART_TOP_2DLINE_27
10
1.45
20
0.75
0
VERTEX
8
PART_TOP_2DLINE_27
10
-1.45
20
0.75
0
VERTEX
8
PART_TOP_2DLINE_27
10
-1.45
20
-0.75
0
SEQEND
0
INSERT
2
SMOOTH_0$2032
8
PART_TOP_2DLINE_27
10
-1.45
20
-0.75
0
INSERT
2
SMOOTH_0$2032
8
PART_TOP_2DLINE_27
10
1.45
20
-0.75
0
INSERT
2
SMOOTH_0$2032
8
PART_TOP_2DLINE_27
10
1.45
20
0.75
0
INSERT
2
SMOOTH_0$2032
8
PART_TOP_2DLINE_27
10
-1.45
20
0.75
0
INSERT
2
SMOOTH_0$2032
8
PART_TOP_2DLINE_27
10
-1.45
20
-0.75
0
ENDBLK
0
BLOCK
2
STK_TOP_18
8
0
10
0
20
0
3
STK_TOP_18
70
64
0
INSERT
2
DRIL_HOLE_0
8
DRIL_NPLTE_THRU_01
10
0
20
0
0
INSERT
2
DRIL_HOLE_0
8
DRIL_NPLTE_THRU_02
10
0
20
0
0
INSERT
2
DRIL_HOLE_0
8
DRIL_NPLTE_THRU_03
10
0
20
0
0
INSERT
2
DRIL_HOLE_0
8
DRIL_NPLTE_THRU_04
10
0
20
0
0
INSERT
2
PAD_0
8
PADS_INNER
10
0
20
0
0
INSERT
2
PAD_0
8
PADS_BOT
10
0
20
0
0
INSERT
2
PAD_8
8
PADS_TOP
10
0
20
0
50
90
0
ENDBLK
0
BLOCK
2
STK_TOP_17
8
0
10
0
20
0
3
STK_TOP_17
70
64
0
INSERT
2
DRIL_HOLE_0
8
DRIL_NPLTE_THRU_01
10
0
20
0
0
INSERT
2
DRIL_HOLE_0
8
DRIL_NPLTE_THRU_02
10
0
20
0
0
INSERT
2
DRIL_HOLE_0
8
DRIL_NPLTE_THRU_03
10
0
20
0
0
INSERT
2
DRIL_HOLE_0
8
DRIL_NPLTE_THRU_04
10
0
20
0
0
INSERT
2
PAD_0
8
PADS_INNER
10
0
20
0
0
INSERT
2
PAD_9
8
PADS_BOT
10
0
20
0
0
INSERT
2
PAD_8
8
PADS_TOP
10
0
20
0
50
90
0
ENDBLK
0
BLOCK
2
PART_BODY_TOP_9
8
0
10
0
20
0
3
PART_BODY_TOP_9
70
64
0
POLYLINE
8
PART_TOP_2DLINE_26
66
1
40
0.2032
41
0.2032
0
VERTEX
8
PART_TOP_2DLINE_26
10
-4
20
-2
0
VERTEX
8
PART_TOP_2DLINE_26
10
4
20
-2
0
VERTEX
8
PART_TOP_2DLINE_26
10
4
20
2
0
VERTEX
8
PART_TOP_2DLINE_26
10
-4
20
2
0
VERTEX
8
PART_TOP_2DLINE_26
10
-4
20
-2
0
SEQEND
0
INSERT
2
SMOOTH_0$2032
8
PART_TOP_2DLINE_26
10
-4
20
-2
0
INSERT
2
SMOOTH_0$2032
8
PART_TOP_2DLINE_26
10
4
20
-2
0
INSERT
2
SMOOTH_0$2032
8
PART_TOP_2DLINE_26
10
4
20
2
0
INSERT
2
SMOOTH_0$2032
8
PART_TOP_2DLINE_26
10
-4
20
2
0
INSERT
2
SMOOTH_0$2032
8
PART_TOP_2DLINE_26
10
-4
20
-2
0
POLYLINE
8
PART_TOP_2DLINE_27
66
1
40
0.2032
41
0.2032
0
VERTEX
8
PART_TOP_2DLINE_27
10
-4
20
-2
0
VERTEX
8
PART_TOP_2DLINE_27
10
4
20
-2
0
VERTEX
8
PART_TOP_2DLINE_27
10
4
20
2
0
VERTEX
8
PART_TOP_2DLINE_27
10
-4
20
2
0
VERTEX
8
PART_TOP_2DLINE_27
10
-4
20
-2
0
SEQEND
0
INSERT
2
SMOOTH_0$2032
8
PART_TOP_2DLINE_27
10
-4
20
-2
0
INSERT
2
SMOOTH_0$2032
8
PART_TOP_2DLINE_27
10
4
20
-2
0
INSERT
2
SMOOTH_0$2032
8
PART_TOP_2DLINE_27
10
4
20
2
0
INSERT
2
SMOOTH_0$2032
8
PART_TOP_2DLINE_27
10
-4
20
2
0
INSERT
2
SMOOTH_0$2032
8
PART_TOP_2DLINE_27
10
-4
20
-2
0
ENDBLK
0
BLOCK
2
STK_TOP_24
8
0
10
0
20
0
3
STK_TOP_24
70
64
0
INSERT
2
DRIL_HOLE_0
8
DRIL_PLTE_THRU_01
10
0
20
0
0
INSERT
2
DRIL_HOLE_0
8
DRIL_PLTE_THRU_02
10
0
20
0
0
INSERT
2
DRIL_HOLE_0
8
DRIL_PLTE_THRU_03
10
0
20
0
0
INSERT
2
DRIL_HOLE_0
8
DRIL_PLTE_THRU_04
10
0
20
0
0
INSERT
2
PAD_0
8
PADS_INNER
10
0
20
0
0
INSERT
2
PAD_0
8
PADS_BOT
10
0
20
0
0
INSERT
2
PAD_10
8
PADS_TOP
10
0
20
0
50
90
0
ENDBLK
0
BLOCK
2
STK_TOP_23
8
0
10
0
20
0
3
STK_TOP_23
70
64
0
INSERT
2
DRIL_HOLE_0
8
DRIL_PLTE_THRU_01
10
0
20
0
0
INSERT
2
DRIL_HOLE_0
8
DRIL_PLTE_THRU_02
10
0
20
0
0
INSERT
2
DRIL_HOLE_0
8
DRIL_PLTE_THRU_03
10
0
20
0
0
INSERT
2
DRIL_HOLE_0
8
DRIL_PLTE_THRU_04
10
0
20
0
0
INSERT
2
PAD_0
8
PADS_INNER
10
0
20
0
0
INSERT
2
PAD_0
8
PADS_BOT
10
0
20
0
0
INSERT
2
PAD_11
8
PADS_TOP
10
0
20
0
50
90
0
ENDBLK
0
BLOCK
2
PART_BODY_TOP_10
8
0
10
0
20
0
3
PART_BODY_TOP_10
70
64
0
POLYLINE
8
PART_TOP_2DLINE_26
66
1
40
0.254
41
0.254
70
1
0
VERTEX
8
PART_TOP_2DLINE_26
10
-1.27
20
2.54
0
VERTEX
8
PART_TOP_2DLINE_26
10
8.89
20
2.54
0
VERTEX
8
PART_TOP_2DLINE_26
10
8.89
20
-5.07
0
VERTEX
8
PART_TOP_2DLINE_26
10
-1.27
20
-5.07
0
SEQEND
0
INSERT
2
SMOOTH_0$254
8
PART_TOP_2DLINE_26
10
-1.27
20
2.54
0
INSERT
2
SMOOTH_0$254
8
PART_TOP_2DLINE_26
10
8.89
20
2.54
0
INSERT
2
SMOOTH_0$254
8
PART_TOP_2DLINE_26
10
8.89
20
-5.07
0
INSERT
2
SMOOTH_0$254
8
PART_TOP_2DLINE_26
10
-1.27
20
-5.07
0
POLYLINE
8
PART_TOP_2DLINE_27
66
1
40
0.254
41
0.254
70
1
0
VERTEX
8
PART_TOP_2DLINE_27
10
-1.27
20
2.54
0
VERTEX
8
PART_TOP_2DLINE_27
10
8.89
20
2.54
0
VERTEX
8
PART_TOP_2DLINE_27
10
8.89
20
-5.11
0
VERTEX
8
PART_TOP_2DLINE_27
10
-1.27
20
-5.11
0
SEQEND
0
INSERT
2
SMOOTH_0$254
8
PART_TOP_2DLINE_27
10
-1.27
20
2.54
0
INSERT
2
SMOOTH_0$254
8
PART_TOP_2DLINE_27
10
8.89
20
2.54
0
INSERT
2
SMOOTH_0$254
8
PART_TOP_2DLINE_27
10
8.89
20
-5.11
0
INSERT
2
SMOOTH_0$254
8
PART_TOP_2DLINE_27
10
-1.27
20
-5.11
0
POLYLINE
8
PART_TOP_2DLINE_26
66
1
40
0.254
41
0.254
0
VERTEX
8
PART_TOP_2DLINE_26
10
1.016
20
1.27
0
VERTEX
8
PART_TOP_2DLINE_26
10
4.064
20
1.27
0
SEQEND
0
INSERT
2
SMOOTH_0$254
8
PART_TOP_2DLINE_26
10
1.016
20
1.27
0
INSERT
2
SMOOTH_0$254
8
PART_TOP_2DLINE_26
10
4.064
20
1.27
0
POLYLINE
8
PART_TOP_2DLINE_26
66
1
40
0.254
41
0.254
0
VERTEX
8
PART_TOP_2DLINE_26
10
3.556
20
1.778
0
VERTEX
8
PART_TOP_2DLINE_26
10
4.064
20
1.27
0
VERTEX
8
PART_TOP_2DLINE_26
10
3.556
20
0.762
0
SEQEND
0
INSERT
2
SMOOTH_0$254
8
PART_TOP_2DLINE_26
10
3.556
20
1.778
0
INSERT
2
SMOOTH_0$254
8
PART_TOP_2DLINE_26
10
4.064
20
1.27
0
INSERT
2
SMOOTH_0$254
8
PART_TOP_2DLINE_26
10
3.556
20
0.762
0
TEXT
8
PART_TOP_TEXT_26
10
4.572
20
0.762
40
1.4224
1
ON
41
0.75
7
W0$2032
0
ENDBLK
0
BLOCK
2
STK_TOP_27
8
0
10
0
20
0
3
STK_TOP_27
70
64
0
INSERT
2
DRIL_HOLE_0$9144
8
DRIL_PLTE_THRU_01
10
0
20
0
0
INSERT
2
DRIL_HOLE_0$9144
8
DRIL_PLTE_THRU_02
10
0
20
0
0
INSERT
2
DRIL_HOLE_0$9144
8
DRIL_PLTE_THRU_03
10
0
20
0
0
INSERT
2
DRIL_HOLE_0$9144
8
DRIL_PLTE_THRU_04
10
0
20
0
0
INSERT
2
PAD_12
8
PADS_INNER
10
0
20
0
0
INSERT
2
PAD_12
8
PADS_BOT
10
0
20
0
0
INSERT
2
PAD_12
8
PADS_TOP
10
0
20
0
0
ENDBLK
0
BLOCK
2
STK_TOP_26
8
0
10
0
20
0
3
STK_TOP_26
70
64
0
INSERT
2
DRIL_HOLE_0$9144
8
DRIL_PLTE_THRU_01
10
0
20
0
0
INSERT
2
DRIL_HOLE_0$9144
8
DRIL_PLTE_THRU_02
10
0
20
0
0
INSERT
2
DRIL_HOLE_0$9144
8
DRIL_PLTE_THRU_03
10
0
20
0
0
INSERT
2
DRIL_HOLE_0$9144
8
DRIL_PLTE_THRU_04
10
0
20
0
0
INSERT
2
PAD_13
8
PADS_INNER
10
0
20
0
0
INSERT
2
PAD_13
8
PADS_BOT
10
0
20
0
0
INSERT
2
PAD_13
8
PADS_TOP
10
0
20
0
0
ENDBLK
0
BLOCK
2
PART_BODY_TOP_11
8
0
10
0
20
0
3
PART_BODY_TOP_11
70
64
0
POLYLINE
8
PART_TOP_2DLINE_26
66
1
40
0.2032
41
0.2032
0
VERTEX
8
PART_TOP_2DLINE_26
10
-5
20
-2.5
0
VERTEX
8
PART_TOP_2DLINE_26
10
5
20
-2.5
0
VERTEX
8
PART_TOP_2DLINE_26
10
5
20
2.5
0
VERTEX
8
PART_TOP_2DLINE_26
10
-5
20
2.5
0
VERTEX
8
PART_TOP_2DLINE_26
10
-5
20
-2.5
0
SEQEND
0
INSERT
2
SMOOTH_0$2032
8
PART_TOP_2DLINE_26
10
-5
20
-2.5
0
INSERT
2
SMOOTH_0$2032
8
PART_TOP_2DLINE_26
10
5
20
-2.5
0
INSERT
2
SMOOTH_0$2032
8
PART_TOP_2DLINE_26
10
5
20
2.5
0
INSERT
2
SMOOTH_0$2032
8
PART_TOP_2DLINE_26
10
-5
20
2.5
0
INSERT
2
SMOOTH_0$2032
8
PART_TOP_2DLINE_26
10
-5
20
-2.5
0
POLYLINE
8
PART_TOP_2DLINE_27
66
1
40
0.2032
41
0.2032
0
VERTEX
8
PART_TOP_2DLINE_27
10
-5
20
-2.5
0
VERTEX
8
PART_TOP_2DLINE_27
10
5
20
-2.5
0
VERTEX
8
PART_TOP_2DLINE_27
10
5
20
2.5
0
VERTEX
8
PART_TOP_2DLINE_27
10
-5
20
2.5
0
VERTEX
8
PART_TOP_2DLINE_27
10
-5
20
-2.5
0
SEQEND
0
INSERT
2
SMOOTH_0$2032
8
PART_TOP_2DLINE_27
10
-5
20
-2.5
0
INSERT
2
SMOOTH_0$2032
8
PART_TOP_2DLINE_27
10
5
20
-2.5
0
INSERT
2
SMOOTH_0$2032
8
PART_TOP_2DLINE_27
10
5
20
2.5
0
INSERT
2
SMOOTH_0$2032
8
PART_TOP_2DLINE_27
10
-5
20
2.5
0
INSERT
2
SMOOTH_0$2032
8
PART_TOP_2DLINE_27
10
-5
20
-2.5
0
POLYLINE
8
PART_TOP_2DLINE_27
66
1
40
0.2032
41
0.2032
0
VERTEX
8
PART_TOP_2DLINE_27
10
-3
20
-2.5
0
VERTEX
8
PART_TOP_2DLINE_27
10
-6
20
-2.5
0
SEQEND
0
INSERT
2
SMOOTH_0$2032
8
PART_TOP_2DLINE_27
10
-3
20
-2.5
0
INSERT
2
SMOOTH_0$2032
8
PART_TOP_2DLINE_27
10
-6
20
-2.5
0
POLYLINE
8
PART_TOP_2DLINE_27
66
1
40
0.2032
41
0.2032
0
VERTEX
8
PART_TOP_2DLINE_27
10
-5
20
-1
0
VERTEX
8
PART_TOP_2DLINE_27
10
-5
20
-3.5
0
SEQEND
0
INSERT
2
SMOOTH_0$2032
8
PART_TOP_2DLINE_27
10
-5
20
-1
0
INSERT
2
SMOOTH_0$2032
8
PART_TOP_2DLINE_27
10
-5
20
-3.5
0
POLYLINE
8
PART_TOP_2DLINE_26
66
1
40
0.2032
41
0.2032
0
VERTEX
8
PART_TOP_2DLINE_26
10
-5
20
-1.1
0
VERTEX
8
PART_TOP_2DLINE_26
10
-5
20
-3.5
0
SEQEND
0
INSERT
2
SMOOTH_0$2032
8
PART_TOP_2DLINE_26
10
-5
20
-1.1
0
INSERT
2
SMOOTH_0$2032
8
PART_TOP_2DLINE_26
10
-5
20
-3.5
0
POLYLINE
8
PART_TOP_2DLINE_26
66
1
40
0.2032
41
0.2032
0
VERTEX
8
PART_TOP_2DLINE_26
10
-3
20
-2.5
0
VERTEX
8
PART_TOP_2DLINE_26
10
-6
20
-2.5
0
SEQEND
0
INSERT
2
SMOOTH_0$2032
8
PART_TOP_2DLINE_26
10
-3
20
-2.5
0
INSERT
2
SMOOTH_0$2032
8
PART_TOP_2DLINE_26
10
-6
20
-2.5
0
POLYLINE
8
PART_TOP_COPPER_27
66
1
40
0.254
41
0.254
70
1
0
VERTEX
8
PART_TOP_COPPER_27
10
-1.04648
20
1.5
0
VERTEX
8
PART_TOP_COPPER_27
10
-1.04648
20
2.5
0
VERTEX
8
PART_TOP_COPPER_27
10
-4.95
20
2.5
0
VERTEX
8
PART_TOP_COPPER_27
10
-4.95
20
-2.5
0
VERTEX
8
PART_TOP_COPPER_27
10
-1.04648
20
-2.5
0
VERTEX
8
PART_TOP_COPPER_27
10
-1.04648
20
-1.5
0
VERTEX
8
PART_TOP_COPPER_27
10
-4.65
20
-1.5
0
VERTEX
8
PART_TOP_COPPER_27
10
-4.65
20
1.5
0
SEQEND
0
INSERT
2
SMOOTH_0$254
8
PART_TOP_COPPER_27
10
-1.04648
20
1.5
0
INSERT
2
SMOOTH_0$254
8
PART_TOP_COPPER_27
10
-1.04648
20
2.5
0
INSERT
2
SMOOTH_0$254
8
PART_TOP_COPPER_27
10
-4.95
20
2.5
0
INSERT
2
SMOOTH_0$254
8
PART_TOP_COPPER_27
10
-4.95
20
-2.5
0
INSERT
2
SMOOTH_0$254
8
PART_TOP_COPPER_27
10
-1.04648
20
-2.5
0
INSERT
2
SMOOTH_0$254
8
PART_TOP_COPPER_27
10
-1.04648
20
-1.5
0
INSERT
2
SMOOTH_0$254
8
PART_TOP_COPPER_27
10
-4.65
20
-1.5
0
INSERT
2
SMOOTH_0$254
8
PART_TOP_COPPER_27
10
-4.65
20
1.5
0
POLYLINE
8
PART_TOP_COPPER_26
66
1
40
0.254
41
0.254
70
1
0
VERTEX
8
PART_TOP_COPPER_26
10
-1.05156
20
1.5
0
VERTEX
8
PART_TOP_COPPER_26
10
-1.05156
20
2.5
0
VERTEX
8
PART_TOP_COPPER_26
10
-4.95
20
2.5
0
VERTEX
8
PART_TOP_COPPER_26
10
-4.95
20
-2.5
0
VERTEX
8
PART_TOP_COPPER_26
10
-1.05156
20
-2.5
0
VERTEX
8
PART_TOP_COPPER_26
10
-1.05156
20
-1.5
0
VERTEX
8
PART_TOP_COPPER_26
10
-4.65
20
-1.5
0
VERTEX
8
PART_TOP_COPPER_26
10
-4.65
20
1.5
0
SEQEND
0
INSERT
2
SMOOTH_0$254
8
PART_TOP_COPPER_26
10
-1.05156
20
1.5
0
INSERT
2
SMOOTH_0$254
8
PART_TOP_COPPER_26
10
-1.05156
20
2.5
0
INSERT
2
SMOOTH_0$254
8
PART_TOP_COPPER_26
10
-4.95
20
2.5
0
INSERT
2
SMOOTH_0$254
8
PART_TOP_COPPER_26
10
-4.95
20
-2.5
0
INSERT
2
SMOOTH_0$254
8
PART_TOP_COPPER_26
10
-1.05156
20
-2.5
0
INSERT
2
SMOOTH_0$254
8
PART_TOP_COPPER_26
10
-1.05156
20
-1.5
0
INSERT
2
SMOOTH_0$254
8
PART_TOP_COPPER_26
10
-4.65
20
-1.5
0
INSERT
2
SMOOTH_0$254
8
PART_TOP_COPPER_26
10
-4.65
20
1.5
0
ENDBLK
0
BLOCK
2
STK_TOP_28
8
0
10
0
20
0
3
STK_TOP_28
70
64
0
INSERT
2
DRIL_HOLE_0
8
DRIL_PLTE_THRU_01
10
0
20
0
0
INSERT
2
DRIL_HOLE_0
8
DRIL_PLTE_THRU_02
10
0
20
0
0
INSERT
2
DRIL_HOLE_0
8
DRIL_PLTE_THRU_03
10
0
20
0
0
INSERT
2
DRIL_HOLE_0
8
DRIL_PLTE_THRU_04
10
0
20
0
0
INSERT
2
PAD_0
8
PADS_INNER
10
0
20
0
0
INSERT
2
PAD_0
8
PADS_BOT
10
0
20
0
0
INSERT
2
PAD_14
8
PADS_TOP
10
0
20
0
0
ENDBLK
0
BLOCK
2
PART_BODY_TOP_8
8
0
10
0
20
0
3
PART_BODY_TOP_8
70
64
0
POLYLINE
8
PART_TOP_2DLINE_26
66
1
40
0.2032
41
0.2032
0
VERTEX
8
PART_TOP_2DLINE_26
10
-2
20
-1
0
VERTEX
8
PART_TOP_2DLINE_26
10
2
20
-1
0
VERTEX
8
PART_TOP_2DLINE_26
10
2
20
1
0
VERTEX
8
PART_TOP_2DLINE_26
10
-2
20
1
0
VERTEX
8
PART_TOP_2DLINE_26
10
-2
20
-1
0
SEQEND
0
INSERT
2
SMOOTH_0$2032
8
PART_TOP_2DLINE_26
10
-2
20
-1
0
INSERT
2
SMOOTH_0$2032
8
PART_TOP_2DLINE_26
10
2
20
-1
0
INSERT
2
SMOOTH_0$2032
8
PART_TOP_2DLINE_26
10
2
20
1
0
INSERT
2
SMOOTH_0$2032
8
PART_TOP_2DLINE_26
10
-2
20
1
0
INSERT
2
SMOOTH_0$2032
8
PART_TOP_2DLINE_26
10
-2
20
-1
0
POLYLINE
8
PART_TOP_2DLINE_27
66
1
40
0.2032
41
0.2032
0
VERTEX
8
PART_TOP_2DLINE_27
10
-2
20
-1
0
VERTEX
8
PART_TOP_2DLINE_27
10
2
20
-1
0
VERTEX
8
PART_TOP_2DLINE_27
10
2
20
1
0
VERTEX
8
PART_TOP_2DLINE_27
10
-2
20
1
0
VERTEX
8
PART_TOP_2DLINE_27
10
-2
20
-1
0
SEQEND
0
INSERT
2
SMOOTH_0$2032
8
PART_TOP_2DLINE_27
10
-2
20
-1
0
INSERT
2
SMOOTH_0$2032
8
PART_TOP_2DLINE_27
10
2
20
-1
0
INSERT
2
SMOOTH_0$2032
8
PART_TOP_2DLINE_27
10
2
20
1
0
INSERT
2
SMOOTH_0$2032
8
PART_TOP_2DLINE_27
10
-2
20
1
0
INSERT
2
SMOOTH_0$2032
8
PART_TOP_2DLINE_27
10
-2
20
-1
0
ENDBLK
0
BLOCK
2
PART_BODY_TOP_1386
8
0
10
0
20
0
3
PART_BODY_TOP_1386
70
64
0
POLYLINE
8
PART_TOP_2DLINE_26
66
1
40
0.254
41
0.254
70
1
0
VERTEX
8
PART_TOP_2DLINE_26
10
-5.4
20
16.2
0
VERTEX
8
PART_TOP_2DLINE_26
10
5.4
20
16.2
0
VERTEX
8
PART_TOP_2DLINE_26
10
5.4
20
-15.7
0
VERTEX
8
PART_TOP_2DLINE_26
10
-5.4
20
-15.7
0
SEQEND
0
INSERT
2
SMOOTH_0$254
8
PART_TOP_2DLINE_26
10
-5.4
20
16.2
0
INSERT
2
SMOOTH_0$254
8
PART_TOP_2DLINE_26
10
5.4
20
16.2
0
INSERT
2
SMOOTH_0$254
8
PART_TOP_2DLINE_26
10
5.4
20
-15.7
0
INSERT
2
SMOOTH_0$254
8
PART_TOP_2DLINE_26
10
-5.4
20
-15.7
0
POLYLINE
8
PART_TOP_2DLINE_26
66
1
40
0.254
41
0.254
0
VERTEX
8
PART_TOP_2DLINE_26
10
-5.4
20
-5
0
VERTEX
8
PART_TOP_2DLINE_26
10
5.4
20
-5
0
SEQEND
0
INSERT
2
SMOOTH_0$254
8
PART_TOP_2DLINE_26
10
-5.4
20
-5
0
INSERT
2
SMOOTH_0$254
8
PART_TOP_2DLINE_26
10
5.4
20
-5
0
POLYLINE
8
PART_TOP_2DLINE_27
66
1
40
0.254
41
0.254
70
1
0
VERTEX
8
PART_TOP_2DLINE_27
10
-5.4
20
16.2
0
VERTEX
8
PART_TOP_2DLINE_27
10
5.4
20
16.2
0
VERTEX
8
PART_TOP_2DLINE_27
10
5.4
20
-15.7
0
VERTEX
8
PART_TOP_2DLINE_27
10
-5.4
20
-15.7
0
SEQEND
0
INSERT
2
SMOOTH_0$254
8
PART_TOP_2DLINE_27
10
-5.4
20
16.2
0
INSERT
2
SMOOTH_0$254
8
PART_TOP_2DLINE_27
10
5.4
20
16.2
0
INSERT
2
SMOOTH_0$254
8
PART_TOP_2DLINE_27
10
5.4
20
-15.7
0
INSERT
2
SMOOTH_0$254
8
PART_TOP_2DLINE_27
10
-5.4
20
-15.7
0
POLYLINE
8
PART_TOP_2DLINE_27
66
1
40
0.254
41
0.254
0
VERTEX
8
PART_TOP_2DLINE_27
10
-5.4
20
-5.5
0
VERTEX
8
PART_TOP_2DLINE_27
10
5.4
20
-5.5
0
SEQEND
0
INSERT
2
SMOOTH_0$254
8
PART_TOP_2DLINE_27
10
-5.4
20
-5.5
0
INSERT
2
SMOOTH_0$254
8
PART_TOP_2DLINE_27
10
5.4
20
-5.5
0
ENDBLK
0
BLOCK
2
STK_TOP_303
8
0
10
0
20
0
3
STK_TOP_303
70
64
0
INSERT
2
DRIL_HOLE_4
8
DRIL_PLTE_THRU_01
10
0
20
0
0
INSERT
2
DRIL_HOLE_4
8
DRIL_PLTE_THRU_02
10
0
20
0
0
INSERT
2
DRIL_HOLE_4
8
DRIL_PLTE_THRU_03
10
0
20
0
0
INSERT
2
DRIL_HOLE_4
8
DRIL_PLTE_THRU_04
10
0
20
0
0
INSERT
2
PAD_15
8
PADS_INNER
10
0
20
0
0
INSERT
2
PAD_15
8
PADS_BOT
10
0
20
0
0
INSERT
2
PAD_15
8
PADS_TOP
10
0
20
0
0
ENDBLK
0
BLOCK
2
PART_BODY_TOP_1387
8
0
10
0
20
0
3
PART_BODY_TOP_1387
70
64
0
POLYLINE
8
PART_TOP_2DLINE_26
66
1
40
0.254
41
0.254
70
1
0
VERTEX
8
PART_TOP_2DLINE_26
10
-2
20
2
0
VERTEX
8
PART_TOP_2DLINE_26
10
15.4
20
2
0
VERTEX
8
PART_TOP_2DLINE_26
10
15.4
20
-12
0
VERTEX
8
PART_TOP_2DLINE_26
10
-2
20
-12
0
SEQEND
0
INSERT
2
SMOOTH_0$254
8
PART_TOP_2DLINE_26
10
-2
20
2
0
INSERT
2
SMOOTH_0$254
8
PART_TOP_2DLINE_26
10
15.4
20
2
0
INSERT
2
SMOOTH_0$254
8
PART_TOP_2DLINE_26
10
15.4
20
-12
0
INSERT
2
SMOOTH_0$254
8
PART_TOP_2DLINE_26
10
-2
20
-12
0
POLYLINE
8
PART_TOP_2DLINE_27
66
1
40
0.254
41
0.254
70
1
0
VERTEX
8
PART_TOP_2DLINE_27
10
-2
20
2
0
VERTEX
8
PART_TOP_2DLINE_27
10
15.4
20
2
0
VERTEX
8
PART_TOP_2DLINE_27
10
15.4
20
-12
0
VERTEX
8
PART_TOP_2DLINE_27
10
-2
20
-12
0
SEQEND
0
INSERT
2
SMOOTH_0$254
8
PART_TOP_2DLINE_27
10
-2
20
2
0
INSERT
2
SMOOTH_0$254
8
PART_TOP_2DLINE_27
10
15.4
20
2
0
INSERT
2
SMOOTH_0$254
8
PART_TOP_2DLINE_27
10
15.4
20
-12
0
INSERT
2
SMOOTH_0$254
8
PART_TOP_2DLINE_27
10
-2
20
-12
0
TEXT
8
PART_TOP_TEXT_26
10
15.9
20
-0.5
40
1.0668
1
1
41
0.75
7
W0$1524
0
TEXT
8
PART_TOP_TEXT_26
10
0.6
20
3.6
40
1.0668
1
A1
50
180
41
0.75
7
W0$1524
0
TEXT
8
PART_TOP_TEXT_26
10
15.9
20
-10.5
40
1.0668
1
6
41
0.75
7
W0$1524
0
TEXT
8
PART_TOP_TEXT_26
10
15.9
20
-8.4
40
1.0668
1
5
41
0.75
7
W0$1524
0
TEXT
8
PART_TOP_TEXT_26
10
15.9
20
-6.5
40
1.0668
1
4
41
0.75
7
W0$1524
0
TEXT
8
PART_TOP_TEXT_26
10
15.9
20
-4.4
40
1.0668
1
3
41
0.75
7
W0$1524
0
TEXT
8
PART_TOP_TEXT_26
10
15.9
20
-2.5
40
1.0668
1
2
41
0.75
7
W0$1524
0
ENDBLK
0
BLOCK
2
STK_TOP_345
8
0
10
0
20
0
3
STK_TOP_345
70
64
0
INSERT
2
DRIL_HOLE_0$50038
8
DRIL_PLTE_THRU_01
10
0
20
0
0
INSERT
2
DRIL_HOLE_0$50038
8
DRIL_PLTE_THRU_02
10
0
20
0
0
INSERT
2
DRIL_HOLE_0$50038
8
DRIL_PLTE_THRU_03
10
0
20
0
0
INSERT
2
DRIL_HOLE_0$50038
8
DRIL_PLTE_THRU_04
10
0
20
0
0
INSERT
2
PAD_16
8
PADS_INNER
10
0
20
0
0
INSERT
2
PAD_16
8
PADS_BOT
10
0
20
0
0
INSERT
2
PAD_16
8
PADS_TOP
10
0
20
0
0
ENDBLK
0
BLOCK
2
PART_BODY_TOP_1709
8
0
10
0
20
0
3
PART_BODY_TOP_1709
70
64
0
POLYLINE
8
PART_TOP_COPPER_23
6
TRMIDX_4
66
1
40
0.2032
41
0.2032
70
1
0
VERTEX
8
PART_TOP_COPPER_23
10
-1.778
20
2.413
0
VERTEX
8
PART_TOP_COPPER_23
10
-0.254
20
2.413
0
VERTEX
8
PART_TOP_COPPER_23
10
-0.254
20
0.889
0
VERTEX
8
PART_TOP_COPPER_23
10
-1.778
20
0.889
0
SEQEND
0
INSERT
2
SMOOTH_0$2032
8
PART_TOP_COPPER_23
10
-1.778
20
2.413
0
INSERT
2
SMOOTH_0$2032
8
PART_TOP_COPPER_23
10
-0.254
20
2.413
0
INSERT
2
SMOOTH_0$2032
8
PART_TOP_COPPER_23
10
-0.254
20
0.889
0
INSERT
2
SMOOTH_0$2032
8
PART_TOP_COPPER_23
10
-1.778
20
0.889
0
POLYLINE
8
PART_TOP_COPPER_23
6
TRMIDX_4
66
1
40
0.2032
41
0.2032
70
1
0
VERTEX
8
PART_TOP_COPPER_23
10
0.1905
20
2.413
0
VERTEX
8
PART_TOP_COPPER_23
10
1.7145
20
2.413
0
VERTEX
8
PART_TOP_COPPER_23
10
1.7145
20
0.889
0
VERTEX
8
PART_TOP_COPPER_23
10
0.1905
20
0.889
0
SEQEND
0
INSERT
2
SMOOTH_0$2032
8
PART_TOP_COPPER_23
10
0.1905
20
2.413
0
INSERT
2
SMOOTH_0$2032
8
PART_TOP_COPPER_23
10
1.7145
20
2.413
0
INSERT
2
SMOOTH_0$2032
8
PART_TOP_COPPER_23
10
1.7145
20
0.889
0
INSERT
2
SMOOTH_0$2032
8
PART_TOP_COPPER_23
10
0.1905
20
0.889
0
POLYLINE
8
PART_TOP_COPPER_23
6
TRMIDX_4
66
1
40
0.2032
41
0.2032
70
1
0
VERTEX
8
PART_TOP_COPPER_23
10
-1.778
20
0.5715
0
VERTEX
8
PART_TOP_COPPER_23
10
-0.254
20
0.5715
0
VERTEX
8
PART_TOP_COPPER_23
10
-0.254
20
-0.9525
0
VERTEX
8
PART_TOP_COPPER_23
10
-1.778
20
-0.9525
0
SEQEND
0
INSERT
2
SMOOTH_0$2032
8
PART_TOP_COPPER_23
10
-1.778
20
0.5715
0
INSERT
2
SMOOTH_0$2032
8
PART_TOP_COPPER_23
10
-0.254
20
0.5715
0
INSERT
2
SMOOTH_0$2032
8
PART_TOP_COPPER_23
10
-0.254
20
-0.9525
0
INSERT
2
SMOOTH_0$2032
8
PART_TOP_COPPER_23
10
-1.778
20
-0.9525
0
POLYLINE
8
PART_TOP_COPPER_23
6
TRMIDX_4
66
1
40
0.2032
41
0.2032
70
1
0
VERTEX
8
PART_TOP_COPPER_23
10
0.1905
20
0.5715
0
VERTEX
8
PART_TOP_COPPER_23
10
1.7145
20
0.5715
0
VERTEX
8
PART_TOP_COPPER_23
10
1.7145
20
-0.9525
0
VERTEX
8
PART_TOP_COPPER_23
10
0.1905
20
-0.9525
0
SEQEND
0
INSERT
2
SMOOTH_0$2032
8
PART_TOP_COPPER_23
10
0.1905
20
0.5715
0
INSERT
2
SMOOTH_0$2032
8
PART_TOP_COPPER_23
10
1.7145
20
0.5715
0
INSERT
2
SMOOTH_0$2032
8
PART_TOP_COPPER_23
10
1.7145
20
-0.9525
0
INSERT
2
SMOOTH_0$2032
8
PART_TOP_COPPER_23
10
0.1905
20
-0.9525
0
POLYLINE
8
PART_TOP_COPPER_22
6
TRMIDX_4
66
1
40
0.2032
41
0.2032
70
1
0
VERTEX
8
PART_TOP_COPPER_22
10
-1.778
20
2.413
0
VERTEX
8
PART_TOP_COPPER_22
10
-0.254
20
2.413
0
VERTEX
8
PART_TOP_COPPER_22
10
-0.254
20
0.889
0
VERTEX
8
PART_TOP_COPPER_22
10
-1.778
20
0.889
0
SEQEND
0
INSERT
2
SMOOTH_0$2032
8
PART_TOP_COPPER_22
10
-1.778
20
2.413
0
INSERT
2
SMOOTH_0$2032
8
PART_TOP_COPPER_22
10
-0.254
20
2.413
0
INSERT
2
SMOOTH_0$2032
8
PART_TOP_COPPER_22
10
-0.254
20
0.889
0
INSERT
2
SMOOTH_0$2032
8
PART_TOP_COPPER_22
10
-1.778
20
0.889
0
POLYLINE
8
PART_TOP_COPPER_22
6
TRMIDX_4
66
1
40
0.2032
41
0.2032
70
1
0
VERTEX
8
PART_TOP_COPPER_22
10
0.1905
20
2.413
0
VERTEX
8
PART_TOP_COPPER_22
10
1.7145
20
2.413
0
VERTEX
8
PART_TOP_COPPER_22
10
1.7145
20
0.889
0
VERTEX
8
PART_TOP_COPPER_22
10
0.1905
20
0.889
0
SEQEND
0
INSERT
2
SMOOTH_0$2032
8
PART_TOP_COPPER_22
10
0.1905
20
2.413
0
INSERT
2
SMOOTH_0$2032
8
PART_TOP_COPPER_22
10
1.7145
20
2.413
0
INSERT
2
SMOOTH_0$2032
8
PART_TOP_COPPER_22
10
1.7145
20
0.889
0
INSERT
2
SMOOTH_0$2032
8
PART_TOP_COPPER_22
10
0.1905
20
0.889
0
POLYLINE
8
PART_TOP_COPPER_22
6
TRMIDX_4
66
1
40
0.2032
41
0.2032
70
1
0
VERTEX
8
PART_TOP_COPPER_22
10
-1.778
20
0.5715
0
VERTEX
8
PART_TOP_COPPER_22
10
-0.254
20
0.5715
0
VERTEX
8
PART_TOP_COPPER_22
10
-0.254
20
-0.9525
0
VERTEX
8
PART_TOP_COPPER_22
10
-1.778
20
-0.9525
0
SEQEND
0
INSERT
2
SMOOTH_0$2032
8
PART_TOP_COPPER_22
10
-1.778
20
0.5715
0
INSERT
2
SMOOTH_0$2032
8
PART_TOP_COPPER_22
10
-0.254
20
0.5715
0
INSERT
2
SMOOTH_0$2032
8
PART_TOP_COPPER_22
10
-0.254
20
-0.9525
0
INSERT
2
SMOOTH_0$2032
8
PART_TOP_COPPER_22
10
-1.778
20
-0.9525
0
POLYLINE
8
PART_TOP_COPPER_22
6
TRMIDX_4
66
1
40
0.2032
41
0.2032
70
1
0
VERTEX
8
PART_TOP_COPPER_22
10
0.1905
20
0.5715
0
VERTEX
8
PART_TOP_COPPER_22
10
1.7145
20
0.5715
0
VERTEX
8
PART_TOP_COPPER_22
10
1.7145
20
-0.9525
0
VERTEX
8
PART_TOP_COPPER_22
10
0.1905
20
-0.9525
0
SEQEND
0
INSERT
2
SMOOTH_0$2032
8
PART_TOP_COPPER_22
10
0.1905
20
0.5715
0
INSERT
2
SMOOTH_0$2032
8
PART_TOP_COPPER_22
10
1.7145
20
0.5715
0
INSERT
2
SMOOTH_0$2032
8
PART_TOP_COPPER_22
10
1.7145
20
-0.9525
0
INSERT
2
SMOOTH_0$2032
8
PART_TOP_COPPER_22
10
0.1905
20
-0.9525
0
POLYLINE
8
PART_TOP_2DLINE_01
66
1
40
0.2286
41
0.2286
0
VERTEX
8
PART_TOP_2DLINE_01
10
-2.63
20
3.08
0
VERTEX
8
PART_TOP_2DLINE_01
10
-2.63
20
-3.08
0
VERTEX
8
PART_TOP_2DLINE_01
10
-2.3114
20
-3.08
0
SEQEND
0
INSERT
2
SMOOTH_0$2286
8
PART_TOP_2DLINE_01
10
-2.63
20
3.08
0
INSERT
2
SMOOTH_0$2286
8
PART_TOP_2DLINE_01
10
-2.63
20
-3.08
0
INSERT
2
SMOOTH_0$2286
8
PART_TOP_2DLINE_01
10
-2.3114
20
-3.08
0
POLYLINE
8
PART_TOP_2DLINE_01
66
1
40
0.2286
41
0.2286
0
VERTEX
8
PART_TOP_2DLINE_01
10
2.63
20
3.08
0
VERTEX
8
PART_TOP_2DLINE_01
10
2.63
20
-3.08
0
VERTEX
8
PART_TOP_2DLINE_01
10
2.3114
20
-3.08
0
SEQEND
0
INSERT
2
SMOOTH_0$2286
8
PART_TOP_2DLINE_01
10
2.63
20
3.08
0
INSERT
2
SMOOTH_0$2286
8
PART_TOP_2DLINE_01
10
2.63
20
-3.08
0
INSERT
2
SMOOTH_0$2286
8
PART_TOP_2DLINE_01
10
2.3114
20
-3.08
0
POLYLINE
8
PART_TOP_COPPER_01
66
1
40
0.254
41
0.254
70
1
0
VERTEX
8
PART_TOP_COPPER_01
10
-2
20
3.1242
0
VERTEX
8
PART_TOP_COPPER_01
10
2
20
3.1242
0
VERTEX
8
PART_TOP_COPPER_01
10
2
20
-1.12
0
VERTEX
8
PART_TOP_COPPER_01
10
-2
20
-1.12
0
SEQEND
0
INSERT
2
SMOOTH_0$254
8
PART_TOP_COPPER_01
10
-2
20
3.1242
0
INSERT
2
SMOOTH_0$254
8
PART_TOP_COPPER_01
10
2
20
3.1242
0
INSERT
2
SMOOTH_0$254
8
PART_TOP_COPPER_01
10
2
20
-1.12
0
INSERT
2
SMOOTH_0$254
8
PART_TOP_COPPER_01
10
-2
20
-1.12
0
POLYLINE
8
PART_TOP_COPPER_21
66
1
40
0.254
41
0.254
70
1
0
VERTEX
8
PART_TOP_COPPER_21
10
-2
20
3.1242
0
VERTEX
8
PART_TOP_COPPER_21
10
2
20
3.1242
0
VERTEX
8
PART_TOP_COPPER_21
10
2
20
-1.12
0
VERTEX
8
PART_TOP_COPPER_21
10
-2
20
-1.12
0
SEQEND
0
INSERT
2
SMOOTH_0$254
8
PART_TOP_COPPER_21
10
-2
20
3.1242
0
INSERT
2
SMOOTH_0$254
8
PART_TOP_COPPER_21
10
2
20
3.1242
0
INSERT
2
SMOOTH_0$254
8
PART_TOP_COPPER_21
10
2
20
-1.12
0
INSERT
2
SMOOTH_0$254
8
PART_TOP_COPPER_21
10
-2
20
-1.12
0
ENDBLK
0
BLOCK
2
STK_TOP_350
8
0
10
0
20
0
3
STK_TOP_350
70
64
0
INSERT
2
DRIL_HOLE_0
8
DRIL_NPLTE_THRU_01
10
0
20
0
0
INSERT
2
DRIL_HOLE_0
8
DRIL_NPLTE_THRU_02
10
0
20
0
0
INSERT
2
DRIL_HOLE_0
8
DRIL_NPLTE_THRU_03
10
0
20
0
0
INSERT
2
DRIL_HOLE_0
8
DRIL_NPLTE_THRU_04
10
0
20
0
0
INSERT
2
PAD_0
8
PADS_INNER
10
0
20
0
0
INSERT
2
PAD_0
8
PADS_BOT
10
0
20
0
0
INSERT
2
PAD_17
8
PADS_TOP
10
0
20
0
50
90
0
ENDBLK
0
BLOCK
2
PART_BODY_TOP_1707
8
0
10
0
20
0
3
PART_BODY_TOP_1707
70
64
0
POLYLINE
8
PART_TOP_2DLINE_25
66
1
40
0.001
41
0.001
39
0.8
70
1
0
VERTEX
8
PART_TOP_2DLINE_25
10
-2.05
20
-2.55
0
VERTEX
8
PART_TOP_2DLINE_25
10
2.05
20
-2.55
0
VERTEX
8
PART_TOP_2DLINE_25
10
2.05
20
2.55
0
VERTEX
8
PART_TOP_2DLINE_25
10
-2.05
20
2.55
0
SEQEND
0
INSERT
2
SMOOTH_0$001
8
PART_TOP_2DLINE_25
10
-2.05
20
-2.55
0
INSERT
2
SMOOTH_0$001
8
PART_TOP_2DLINE_25
10
2.05
20
-2.55
0
INSERT
2
SMOOTH_0$001
8
PART_TOP_2DLINE_25
10
2.05
20
2.55
0
INSERT
2
SMOOTH_0$001
8
PART_TOP_2DLINE_25
10
-2.05
20
2.55
0
POLYLINE
8
PART_TOP_2DLINE_20
66
1
40
0.05
41
0.05
39
0.8
70
1
0
VERTEX
8
PART_TOP_2DLINE_20
10
-2.65
20
-3.15
0
VERTEX
8
PART_TOP_2DLINE_20
10
2.65
20
-3.15
0
VERTEX
8
PART_TOP_2DLINE_20
10
2.65
20
3.15
0
VERTEX
8
PART_TOP_2DLINE_20
10
-2.65
20
3.15
0
SEQEND
0
INSERT
2
SMOOTH_0$05
8
PART_TOP_2DLINE_20
10
-2.65
20
-3.15
0
INSERT
2
SMOOTH_0$05
8
PART_TOP_2DLINE_20
10
2.65
20
-3.15
0
INSERT
2
SMOOTH_0$05
8
PART_TOP_2DLINE_20
10
2.65
20
3.15
0
INSERT
2
SMOOTH_0$05
8
PART_TOP_2DLINE_20
10
-2.65
20
3.15
0
POLYLINE
8
PART_TOP_2DLINE_20
66
1
40
0.05
41
0.05
39
0.8
70
1
0
VERTEX
8
PART_TOP_2DLINE_20
10
-0.35
20
0
42
1
0
VERTEX
8
PART_TOP_2DLINE_20
10
0.35
20
0
42
1
0
SEQEND
0
POLYLINE
8
PART_TOP_2DLINE_20
66
1
40
0.05
41
0.05
39
0.8
0
VERTEX
8
PART_TOP_2DLINE_20
10
0
20
-0.5
0
VERTEX
8
PART_TOP_2DLINE_20
10
0
20
0.5
0
SEQEND
0
INSERT
2
SMOOTH_0$05
8
PART_TOP_2DLINE_20
10
0
20
-0.5
0
INSERT
2
SMOOTH_0$05
8
PART_TOP_2DLINE_20
10
0
20
0.5
0
POLYLINE
8
PART_TOP_2DLINE_20
66
1
40
0.05
41
0.05
39
0.8
0
VERTEX
8
PART_TOP_2DLINE_20
10
-0.5
20
0
0
VERTEX
8
PART_TOP_2DLINE_20
10
0.5
20
0
0
SEQEND
0
INSERT
2
SMOOTH_0$05
8
PART_TOP_2DLINE_20
10
-0.5
20
0
0
INSERT
2
SMOOTH_0$05
8
PART_TOP_2DLINE_20
10
0.5
20
0
0
POLYLINE
8
PART_TOP_2DLINE_27
66
1
40
0.1
41
0.1
39
0.8
70
1
0
VERTEX
8
PART_TOP_2DLINE_27
10
-2
20
-2.5
0
VERTEX
8
PART_TOP_2DLINE_27
10
2
20
-2.5
0
VERTEX
8
PART_TOP_2DLINE_27
10
2
20
2.5
0
VERTEX
8
PART_TOP_2DLINE_27
10
-2
20
2.5
0
SEQEND
0
INSERT
2
SMOOTH_0$1
8
PART_TOP_2DLINE_27
10
-2
20
-2.5
0
INSERT
2
SMOOTH_0$1
8
PART_TOP_2DLINE_27
10
2
20
-2.5
0
INSERT
2
SMOOTH_0$1
8
PART_TOP_2DLINE_27
10
2
20
2.5
0
INSERT
2
SMOOTH_0$1
8
PART_TOP_2DLINE_27
10
-2
20
2.5
0
POLYLINE
8
PART_TOP_2DLINE_27
66
1
40
0.1
41
0.1
39
0.8
70
1
0
VERTEX
8
PART_TOP_2DLINE_27
10
-1.5
20
1.5
42
1
0
VERTEX
8
PART_TOP_2DLINE_27
10
-0.5
20
1.5
42
1
0
SEQEND
0
POLYLINE
8
PART_TOP_2DLINE_26
66
1
40
0.2
41
0.2
39
0.8
0
VERTEX
8
PART_TOP_2DLINE_26
10
-2
20
1.75
0
VERTEX
8
PART_TOP_2DLINE_26
10
-2
20
1.9
0
VERTEX
8
PART_TOP_2DLINE_26
10
-1.4
20
2.5
0
VERTEX
8
PART_TOP_2DLINE_26
10
-1.25
20
2.5
0
SEQEND
0
INSERT
2
SMOOTH_0$2
8
PART_TOP_2DLINE_26
10
-2
20
1.75
0
INSERT
2
SMOOTH_0$2
8
PART_TOP_2DLINE_26
10
-2
20
1.9
0
INSERT
2
SMOOTH_0$2
8
PART_TOP_2DLINE_26
10
-1.4
20
2.5
0
INSERT
2
SMOOTH_0$2
8
PART_TOP_2DLINE_26
10
-1.25
20
2.5
0
POLYLINE
8
PART_TOP_2DLINE_26
66
1
40
0.2
41
0.2
39
0.8
0
VERTEX
8
PART_TOP_2DLINE_26
10
2
20
1.75
0
VERTEX
8
PART_TOP_2DLINE_26
10
2
20
2.5
0
VERTEX
8
PART_TOP_2DLINE_26
10
1.25
20
2.5
0
SEQEND
0
INSERT
2
SMOOTH_0$2
8
PART_TOP_2DLINE_26
10
2
20
1.75
0
INSERT
2
SMOOTH_0$2
8
PART_TOP_2DLINE_26
10
2
20
2.5
0
INSERT
2
SMOOTH_0$2
8
PART_TOP_2DLINE_26
10
1.25
20
2.5
0
POLYLINE
8
PART_TOP_2DLINE_26
66
1
40
0.2
41
0.2
39
0.8
0
VERTEX
8
PART_TOP_2DLINE_26
10
-2
20
-1.75
0
VERTEX
8
PART_TOP_2DLINE_26
10
-2
20
-2.5
0
VERTEX
8
PART_TOP_2DLINE_26
10
-1.25
20
-2.5
0
SEQEND
0
INSERT
2
SMOOTH_0$2
8
PART_TOP_2DLINE_26
10
-2
20
-1.75
0
INSERT
2
SMOOTH_0$2
8
PART_TOP_2DLINE_26
10
-2
20
-2.5
0
INSERT
2
SMOOTH_0$2
8
PART_TOP_2DLINE_26
10
-1.25
20
-2.5
0
POLYLINE
8
PART_TOP_2DLINE_26
66
1
40
0.2
41
0.2
39
0.8
0
VERTEX
8
PART_TOP_2DLINE_26
10
2
20
-1.75
0
VERTEX
8
PART_TOP_2DLINE_26
10
2
20
-2.5
0
VERTEX
8
PART_TOP_2DLINE_26
10
1.25
20
-2.5
0
SEQEND
0
INSERT
2
SMOOTH_0$2
8
PART_TOP_2DLINE_26
10
2
20
-1.75
0
INSERT
2
SMOOTH_0$2
8
PART_TOP_2DLINE_26
10
2
20
-2.5
0
INSERT
2
SMOOTH_0$2
8
PART_TOP_2DLINE_26
10
1.25
20
-2.5
0
POLYLINE
8
PART_TOP_2DLINE_26
66
1
40
0.25
41
0.25
39
0.8
70
1
0
VERTEX
8
PART_TOP_2DLINE_26
10
-3.075
20
1.25
42
1
0
VERTEX
8
PART_TOP_2DLINE_26
10
-2.825
20
1.25
42
1
0
SEQEND
0
ENDBLK
0
BLOCK
2
STK_TOP_346
8
0
10
0
20
0
3
STK_TOP_346
70
64
0
INSERT
2
DRIL_HOLE_0
8
DRIL_NPLTE_THRU_01
10
0
20
0
0
INSERT
2
DRIL_HOLE_0
8
DRIL_NPLTE_THRU_02
10
0
20
0
0
INSERT
2
DRIL_HOLE_0
8
DRIL_NPLTE_THRU_03
10
0
20
0
0
INSERT
2
DRIL_HOLE_0
8
DRIL_NPLTE_THRU_04
10
0
20
0
0
INSERT
2
PAD_0
8
PADS_INNER
10
0
20
0
0
INSERT
2
PAD_0
8
PADS_BOT
10
0
20
0
0
INSERT
2
PAD_18
8
PADS_XR_21
10
0
20
0
0
INSERT
2
PAD_18
8
PADS_XR_23
10
0
20
0
0
INSERT
2
PAD_18
8
PADS_TOP
10
0
20
0
0
ENDBLK
0
BLOCK
2
STK_TOP_347
8
0
10
0
20
0
3
STK_TOP_347
70
64
0
INSERT
2
DRIL_HOLE_0
8
DRIL_NPLTE_THRU_01
10
0
20
0
0
INSERT
2
DRIL_HOLE_0
8
DRIL_NPLTE_THRU_02
10
0
20
0
0
INSERT
2
DRIL_HOLE_0
8
DRIL_NPLTE_THRU_03
10
0
20
0
0
INSERT
2
DRIL_HOLE_0
8
DRIL_NPLTE_THRU_04
10
0
20
0
0
INSERT
2
PAD_0
8
PADS_INNER
10
0
20
0
0
INSERT
2
PAD_0
8
PADS_BOT
10
0
20
0
0
INSERT
2
PAD_18
8
PADS_XR_21
10
0
20
0
50
90
0
INSERT
2
PAD_18
8
PADS_XR_23
10
0
20
0
50
90
0
INSERT
2
PAD_18
8
PADS_TOP
10
0
20
0
50
90
0
ENDBLK
0
BLOCK
2
STK_TOP_348
8
0
10
0
20
0
3
STK_TOP_348
70
64
0
INSERT
2
DRIL_HOLE_0
8
DRIL_NPLTE_THRU_01
10
0
20
0
0
INSERT
2
DRIL_HOLE_0
8
DRIL_NPLTE_THRU_02
10
0
20
0
0
INSERT
2
DRIL_HOLE_0
8
DRIL_NPLTE_THRU_03
10
0
20
0
0
INSERT
2
DRIL_HOLE_0
8
DRIL_NPLTE_THRU_04
10
0
20
0
0
INSERT
2
PAD_0
8
PADS_INNER
10
0
20
0
0
INSERT
2
PAD_0
8
PADS_BOT
10
0
20
0
0
INSERT
2
PAD_19
8
PADS_XR_21
10
0
20
0
50
90
0
INSERT
2
PAD_20
8
PADS_XR_23
10
0
20
0
50
90
0
INSERT
2
PAD_19
8
PADS_TOP
10
0
20
0
50
90
0
ENDBLK
0
BLOCK
2
PART_BODY_TOP_1720
8
0
10
0
20
0
3
PART_BODY_TOP_1720
70
64
0
POLYLINE
8
KEEPOUT_01
6
KEEPOUT_00011110$0
66
1
70
1
0
VERTEX
8
KEEPOUT_01
10
-1.778
20
0
42
1
0
VERTEX
8
KEEPOUT_01
10
1.778
20
0
42
1
0
SEQEND
0
POLYLINE
8
KEEPOUT_-1
6
KEEPOUT_00011110$0
66
1
70
1
0
VERTEX
8
KEEPOUT_-1
10
-1.778
20
0
42
1
0
VERTEX
8
KEEPOUT_-1
10
1.778
20
0
42
1
0
SEQEND
0
ENDBLK
0
BLOCK
2
STK_TOP_374
8
0
10
0
20
0
3
STK_TOP_374
70
64
0
INSERT
2
DRIL_HOLE_0
8
DRIL_PLTE_THRU_01
10
0
20
0
0
INSERT
2
DRIL_HOLE_0
8
DRIL_PLTE_THRU_02
10
0
20
0
0
INSERT
2
DRIL_HOLE_0
8
DRIL_PLTE_THRU_03
10
0
20
0
0
INSERT
2
DRIL_HOLE_0
8
DRIL_PLTE_THRU_04
10
0
20
0
0
INSERT
2
PAD_0
8
PADS_INNER
10
0
20
0
0
INSERT
2
PAD_13
8
PADS_BOT
10
0
20
0
0
INSERT
2
PAD_21
8
PADS_XR_21
10
0
20
0
0
INSERT
2
PAD_0
8
PADS_XR_22
10
0
20
0
0
INSERT
2
PAD_0
8
PADS_XR_23
10
0
20
0
0
INSERT
2
PAD_21
8
PADS_XR_28
10
0
20
0
0
INSERT
2
PAD_13
8
PADS_TOP
10
0
20
0
0
ENDBLK
0
BLOCK
2
PART_BODY_TOP_1721
8
0
10
0
20
0
3
PART_BODY_TOP_1721
70
64
0
POLYLINE
8
PART_TOP_2DLINE_27
66
1
40
0.1
41
0.1
70
1
0
VERTEX
8
PART_TOP_2DLINE_27
10
-2.795
20
-1.965
0
VERTEX
8
PART_TOP_2DLINE_27
10
2.795
20
-1.965
0
VERTEX
8
PART_TOP_2DLINE_27
10
2.795
20
1.965
0
VERTEX
8
PART_TOP_2DLINE_27
10
-2.795
20
1.965
0
SEQEND
0
INSERT
2
SMOOTH_0$1
8
PART_TOP_2DLINE_27
10
-2.795
20
-1.965
0
INSERT
2
SMOOTH_0$1
8
PART_TOP_2DLINE_27
10
2.795
20
-1.965
0
INSERT
2
SMOOTH_0$1
8
PART_TOP_2DLINE_27
10
2.795
20
1.965
0
INSERT
2
SMOOTH_0$1
8
PART_TOP_2DLINE_27
10
-2.795
20
1.965
0
POLYLINE
8
PART_TOP_2DLINE_27
66
1
40
0.1
41
0.1
0
VERTEX
8
PART_TOP_2DLINE_27
10
-2.695
20
-1.965
0
VERTEX
8
PART_TOP_2DLINE_27
10
-2.695
20
1.965
0
SEQEND
0
INSERT
2
SMOOTH_0$1
8
PART_TOP_2DLINE_27
10
-2.695
20
-1.965
0
INSERT
2
SMOOTH_0$1
8
PART_TOP_2DLINE_27
10
-2.695
20
1.965
0
POLYLINE
8
PART_TOP_2DLINE_27
66
1
40
0.1
41
0.1
0
VERTEX
8
PART_TOP_2DLINE_27
10
-2.595
20
-1.965
0
VERTEX
8
PART_TOP_2DLINE_27
10
-2.595
20
1.965
0
SEQEND
0
INSERT
2
SMOOTH_0$1
8
PART_TOP_2DLINE_27
10
-2.595
20
-1.965
0
INSERT
2
SMOOTH_0$1
8
PART_TOP_2DLINE_27
10
-2.595
20
1.965
0
POLYLINE
8
PART_TOP_2DLINE_27
66
1
40
0.1
41
0.1
0
VERTEX
8
PART_TOP_2DLINE_27
10
-2.495
20
-1.965
0
VERTEX
8
PART_TOP_2DLINE_27
10
-2.495
20
1.965
0
SEQEND
0
INSERT
2
SMOOTH_0$1
8
PART_TOP_2DLINE_27
10
-2.495
20
-1.965
0
INSERT
2
SMOOTH_0$1
8
PART_TOP_2DLINE_27
10
-2.495
20
1.965
0
POLYLINE
8
PART_TOP_2DLINE_27
66
1
40
0.1
41
0.1
0
VERTEX
8
PART_TOP_2DLINE_27
10
-2.395
20
-1.965
0
VERTEX
8
PART_TOP_2DLINE_27
10
-2.395
20
1.965
0
SEQEND
0
INSERT
2
SMOOTH_0$1
8
PART_TOP_2DLINE_27
10
-2.395
20
-1.965
0
INSERT
2
SMOOTH_0$1
8
PART_TOP_2DLINE_27
10
-2.395
20
1.965
0
POLYLINE
8
PART_TOP_2DLINE_27
66
1
40
0.1
41
0.1
0
VERTEX
8
PART_TOP_2DLINE_27
10
-2.295
20
-1.965
0
VERTEX
8
PART_TOP_2DLINE_27
10
-2.295
20
1.965
0
SEQEND
0
INSERT
2
SMOOTH_0$1
8
PART_TOP_2DLINE_27
10
-2.295
20
-1.965
0
INSERT
2
SMOOTH_0$1
8
PART_TOP_2DLINE_27
10
-2.295
20
1.965
0
POLYLINE
8
PART_TOP_2DLINE_27
66
1
40
0.1
41
0.1
0
VERTEX
8
PART_TOP_2DLINE_27
10
-2.195
20
-1.965
0
VERTEX
8
PART_TOP_2DLINE_27
10
-2.195
20
1.965
0
SEQEND
0
INSERT
2
SMOOTH_0$1
8
PART_TOP_2DLINE_27
10
-2.195
20
-1.965
0
INSERT
2
SMOOTH_0$1
8
PART_TOP_2DLINE_27
10
-2.195
20
1.965
0
POLYLINE
8
PART_TOP_2DLINE_27
66
1
40
0.1
41
0.1
0
VERTEX
8
PART_TOP_2DLINE_27
10
-2.095
20
-1.965
0
VERTEX
8
PART_TOP_2DLINE_27
10
-2.095
20
1.965
0
SEQEND
0
INSERT
2
SMOOTH_0$1
8
PART_TOP_2DLINE_27
10
-2.095
20
-1.965
0
INSERT
2
SMOOTH_0$1
8
PART_TOP_2DLINE_27
10
-2.095
20
1.965
0
POLYLINE
8
PART_TOP_2DLINE_27
66
1
40
0.1
41
0.1
0
VERTEX
8
PART_TOP_2DLINE_27
10
-1.995
20
-1.965
0
VERTEX
8
PART_TOP_2DLINE_27
10
-1.995
20
1.965
0
SEQEND
0
INSERT
2
SMOOTH_0$1
8
PART_TOP_2DLINE_27
10
-1.995
20
-1.965
0
INSERT
2
SMOOTH_0$1
8
PART_TOP_2DLINE_27
10
-1.995
20
1.965
0
POLYLINE
8
PART_TOP_2DLINE_25
66
1
40
0.001
41
0.001
70
1
0
VERTEX
8
PART_TOP_2DLINE_25
10
-2.795
20
-1.965
0
VERTEX
8
PART_TOP_2DLINE_25
10
2.795
20
-1.965
0
VERTEX
8
PART_TOP_2DLINE_25
10
2.795
20
1.965
0
VERTEX
8
PART_TOP_2DLINE_25
10
-2.795
20
1.965
0
SEQEND
0
INSERT
2
SMOOTH_0$001
8
PART_TOP_2DLINE_25
10
-2.795
20
-1.965
0
INSERT
2
SMOOTH_0$001
8
PART_TOP_2DLINE_25
10
2.795
20
-1.965
0
INSERT
2
SMOOTH_0$001
8
PART_TOP_2DLINE_25
10
2.795
20
1.965
0
INSERT
2
SMOOTH_0$001
8
PART_TOP_2DLINE_25
10
-2.795
20
1.965
0
POLYLINE
8
PART_TOP_2DLINE_20
66
1
40
0.05
41
0.05
70
1
0
VERTEX
8
PART_TOP_2DLINE_20
10
-4.3
20
-2.25
0
VERTEX
8
PART_TOP_2DLINE_20
10
3.8
20
-2.25
0
VERTEX
8
PART_TOP_2DLINE_20
10
3.8
20
2.25
0
VERTEX
8
PART_TOP_2DLINE_20
10
-4.3
20
2.25
0
SEQEND
0
INSERT
2
SMOOTH_0$05
8
PART_TOP_2DLINE_20
10
-4.3
20
-2.25
0
INSERT
2
SMOOTH_0$05
8
PART_TOP_2DLINE_20
10
3.8
20
-2.25
0
INSERT
2
SMOOTH_0$05
8
PART_TOP_2DLINE_20
10
3.8
20
2.25
0
INSERT
2
SMOOTH_0$05
8
PART_TOP_2DLINE_20
10
-4.3
20
2.25
0
POLYLINE
8
PART_TOP_2DLINE_20
66
1
40
0.05
41
0.05
0
VERTEX
8
PART_TOP_2DLINE_20
10
0
20
0.5
0
VERTEX
8
PART_TOP_2DLINE_20
10
0
20
-0.5
0
SEQEND
0
INSERT
2
SMOOTH_0$05
8
PART_TOP_2DLINE_20
10
0
20
0.5
0
INSERT
2
SMOOTH_0$05
8
PART_TOP_2DLINE_20
10
0
20
-0.5
0
POLYLINE
8
PART_TOP_2DLINE_20
66
1
40
0.05
41
0.05
0
VERTEX
8
PART_TOP_2DLINE_20
10
0.5
20
0
0
VERTEX
8
PART_TOP_2DLINE_20
10
-0.5
20
0
0
SEQEND
0
INSERT
2
SMOOTH_0$05
8
PART_TOP_2DLINE_20
10
0.5
20
0
0
INSERT
2
SMOOTH_0$05
8
PART_TOP_2DLINE_20
10
-0.5
20
0
0
POLYLINE
8
PART_TOP_2DLINE_26
66
1
40
0.254
41
0.254
70
1
0
VERTEX
8
PART_TOP_2DLINE_26
10
-4.2
20
2
0
VERTEX
8
PART_TOP_2DLINE_26
10
3.8
20
2
0
VERTEX
8
PART_TOP_2DLINE_26
10
3.8
20
-2
0
VERTEX
8
PART_TOP_2DLINE_26
10
-4.2
20
-2
0
SEQEND
0
INSERT
2
SMOOTH_0$254
8
PART_TOP_2DLINE_26
10
-4.2
20
2
0
INSERT
2
SMOOTH_0$254
8
PART_TOP_2DLINE_26
10
3.8
20
2
0
INSERT
2
SMOOTH_0$254
8
PART_TOP_2DLINE_26
10
3.8
20
-2
0
INSERT
2
SMOOTH_0$254
8
PART_TOP_2DLINE_26
10
-4.2
20
-2
0
POLYLINE
8
PART_TOP_2DLINE_26
66
1
40
0.254
41
0.254
70
1
0
VERTEX
8
PART_TOP_2DLINE_26
10
-3.8
20
2
0
VERTEX
8
PART_TOP_2DLINE_26
10
-4
20
2
0
VERTEX
8
PART_TOP_2DLINE_26
10
-4
20
-2
0
VERTEX
8
PART_TOP_2DLINE_26
10
-3.8
20
-2
0
SEQEND
0
INSERT
2
SMOOTH_0$254
8
PART_TOP_2DLINE_26
10
-3.8
20
2
0
INSERT
2
SMOOTH_0$254
8
PART_TOP_2DLINE_26
10
-4
20
2
0
INSERT
2
SMOOTH_0$254
8
PART_TOP_2DLINE_26
10
-4
20
-2
0
INSERT
2
SMOOTH_0$254
8
PART_TOP_2DLINE_26
10
-3.8
20
-2
0
ENDBLK
0
BLOCK
2
STK_TOP_371
8
0
10
0
20
0
3
STK_TOP_371
70
64
0
INSERT
2
DRIL_HOLE_0
8
DRIL_NPLTE_THRU_01
10
0
20
0
0
INSERT
2
DRIL_HOLE_0
8
DRIL_NPLTE_THRU_02
10
0
20
0
0
INSERT
2
DRIL_HOLE_0
8
DRIL_NPLTE_THRU_03
10
0
20
0
0
INSERT
2
DRIL_HOLE_0
8
DRIL_NPLTE_THRU_04
10
0
20
0
0
INSERT
2
PAD_0
8
PADS_INNER
10
0
20
0
0
INSERT
2
PAD_0
8
PADS_BOT
10
0
20
0
0
INSERT
2
PAD_22
8
PADS_XR_21
10
0
20
0
0
INSERT
2
PAD_23
8
PADS_XR_23
10
0
20
0
0
INSERT
2
PAD_23
8
PADS_TOP
10
0
20
0
0
ENDBLK
999
*** POWERPCB  PCB PARAMETER ***
0
BLOCK
2
PCB_PARAMS
8
0
10
0
20
0
3
PCB_PARAMS
70
64
999
 *  1.Job name           2.Backupfile name       3.CursorType
999
 *  4.TearDropFlag       5.HighlighNetsFlag      6.HatchDisplayFlag
999
 *  7.PadsFlag           8.TracksFlag            9.ViasFlag
999
 * 10.CopperFlag        11.LinesFlag            12.TextFlag
999
 * 13.TopComponentFlag  14.BottomComponentFlag
0
TEXT
8
PCB_PARAMS
10
0
20
-3.048
40
1.778
1
A:=CCCNGP_MODBUS_REV1.0.pcb <> 0 1 1 1 1 0 0 0 1 1 1 0 0
999
 *  1.RefDesHeight       2.RefDesWidth           3.DefaultWidth
999
 *  4.VGX                5.VGY                   6.OVR
999
 *  7.HatchGrid
0
TEXT
8
PCB_PARAMS
10
0
20
-6.096
40
1.778
1
B:=2.032 0.254 0.254 0.127 0.127 0.0762 0.0762
999
 *  1.ScaleFactor        2.NetAttributeFlags     3.BackupInterval
999
 *  4.WorkingLevel       5.HatchMode             6.HatchDirection
999
 *  7.ConnectionColor    8.BackgroundColor       9.ForegroundColor
999
 * 10.BoardOutlineColor
0
TEXT
8
PCB_PARAMS
10
0
20
-9.144
40
1.778
1
C:=6.0670518875 10002 3 1 0 0 0 0 8 8
999
 * MitreAngle0 - MitreAngle6
0
TEXT
8
PCB_PARAMS
10
0
20
-12.192
40
1.778
1
D:=324000000 324000000 324000000 324000000 324000000 324000000 324000000
999
 * Hatch & Keepout Parameters
0
TEXT
8
PCB_PARAMS
10
0
20
-15.24
40
1.778
1
E:=0.5 0 0 2.54 0 0
999
 * Fanout Parameters
0
TEXT
8
PCB_PARAMS
10
0
20
-18.288
40
1.778
1
F:=0.127 0.127 6.35 1 2 0 1 1 0 0 1 1 1 1
999
 * Pad Entry Parameters
0
TEXT
8
PCB_PARAMS
10
0
20
-21.336
40
1.778
1
P:= 1 1 1 1
999
 * DFF Parameters
0
TEXT
8
PCB_PARAMS
10
0
20
-24.384
40
1.778
1
Q:=89.9999 3967 114300 114300 114300 5 4 114300 114300 114300 114300 1 114300 1 114300 1 114300 0
0
ENDBLK
0
BLOCK
2
DRIL_SYMBOL_0
8
0
10
0
20
0
3
DRIL_SYMBOL_0
70
64
0
ENDBLK
0
BLOCK
2
DRIL_SYMBOL_1$1176
8
0
10
0
20
0
3
DRIL_SYMBOL_1$1176
70
64
0
POLYLINE
8
DRIL_SYMBOL
66
1
40
0.0508
41
0.0508
0
VERTEX
8
DRIL_SYMBOL
10
0
20
-0.254
0
VERTEX
8
DRIL_SYMBOL
10
0
20
0.254
0
SEQEND
0
POLYLINE
8
DRIL_SYMBOL
66
1
40
0.0508
41
0.0508
0
VERTEX
8
DRIL_SYMBOL
10
-0.254
20
0
0
VERTEX
8
DRIL_SYMBOL
10
0.254
20
0
0
SEQEND
0
ENDBLK
0
BLOCK
2
DRIL_SYMBOL_3$2512
8
0
10
0
20
0
3
DRIL_SYMBOL_3$2512
70
64
0
POLYLINE
8
DRIL_SYMBOL
66
1
40
0.0508
41
0.0508
0
VERTEX
8
DRIL_SYMBOL
10
0
20
-0.254
0
VERTEX
8
DRIL_SYMBOL
10
0
20
0.254
0
SEQEND
0
POLYLINE
8
DRIL_SYMBOL
66
1
40
0.0508
41
0.0508
0
VERTEX
8
DRIL_SYMBOL
10
-0.254
20
0
0
VERTEX
8
DRIL_SYMBOL
10
0.254
20
0
0
SEQEND
0
ENDBLK
0
BLOCK
2
DRIL_SYMBOL_0$9144
8
0
10
0
20
0
3
DRIL_SYMBOL_0$9144
70
64
0
POLYLINE
8
DRIL_SYMBOL
66
1
40
0.0508
41
0.0508
0
VERTEX
8
DRIL_SYMBOL
10
0
20
-0.254
0
VERTEX
8
DRIL_SYMBOL
10
0
20
0.254
0
SEQEND
0
POLYLINE
8
DRIL_SYMBOL
66
1
40
0.0508
41
0.0508
0
VERTEX
8
DRIL_SYMBOL
10
-0.254
20
0
0
VERTEX
8
DRIL_SYMBOL
10
0.254
20
0
0
SEQEND
0
ENDBLK
0
BLOCK
2
DRIL_SYMBOL_4
8
0
10
0
20
0
3
DRIL_SYMBOL_4
70
64
0
POLYLINE
8
DRIL_SYMBOL
66
1
40
0.0508
41
0.0508
0
VERTEX
8
DRIL_SYMBOL
10
0
20
-0.254
0
VERTEX
8
DRIL_SYMBOL
10
0
20
0.254
0
SEQEND
0
POLYLINE
8
DRIL_SYMBOL
66
1
40
0.0508
41
0.0508
0
VERTEX
8
DRIL_SYMBOL
10
-0.254
20
0
0
VERTEX
8
DRIL_SYMBOL
10
0.254
20
0
0
SEQEND
0
ENDBLK
0
BLOCK
2
DRIL_SYMBOL_0$50038
8
0
10
0
20
0
3
DRIL_SYMBOL_0$50038
70
64
0
POLYLINE
8
DRIL_SYMBOL
66
1
40
0.0508
41
0.0508
0
VERTEX
8
DRIL_SYMBOL
10
0
20
-0.254
0
VERTEX
8
DRIL_SYMBOL
10
0
20
0.254
0
SEQEND
0
POLYLINE
8
DRIL_SYMBOL
66
1
40
0.0508
41
0.0508
0
VERTEX
8
DRIL_SYMBOL
10
-0.254
20
0
0
VERTEX
8
DRIL_SYMBOL
10
0.254
20
0
0
SEQEND
0
ENDBLK
999
*** POWERPCB  SMOOTH CIRCLE ***
0
BLOCK
2
SMOOTH_0$2032
8
0
10
0
20
0
3
SMOOTH_0$2032
70
64
0
POLYLINE
8
0
66
1
40
0.1016
41
0.1016
70
1
0
VERTEX
8
0
10
-0.0508
20
0
42
1
0
VERTEX
8
0
10
0.0508
20
0
42
1
0
SEQEND
0
ENDBLK
0
BLOCK
2
SMOOTH_0$254
8
0
10
0
20
0
3
SMOOTH_0$254
70
64
0
POLYLINE
8
0
66
1
40
0.127
41
0.127
70
1
0
VERTEX
8
0
10
-0.0635
20
0
42
1
0
VERTEX
8
0
10
0.0635
20
0
42
1
0
SEQEND
0
ENDBLK
0
BLOCK
2
SMOOTH_0$2286
8
0
10
0
20
0
3
SMOOTH_0$2286
70
64
0
POLYLINE
8
0
66
1
40
0.1143
41
0.1143
70
1
0
VERTEX
8
0
10
-0.05715
20
0
42
1
0
VERTEX
8
0
10
0.05715
20
0
42
1
0
SEQEND
0
ENDBLK
0
BLOCK
2
SMOOTH_0$001
8
0
10
0
20
0
3
SMOOTH_0$001
70
64
0
POLYLINE
8
0
66
1
40
0.0005
41
0.0005
70
1
0
VERTEX
8
0
10
-0.00025
20
0
42
1
0
VERTEX
8
0
10
0.00025
20
0
42
1
0
SEQEND
0
ENDBLK
0
BLOCK
2
SMOOTH_0$05
8
0
10
0
20
0
3
SMOOTH_0$05
70
64
0
POLYLINE
8
0
66
1
40
0.025
41
0.025
70
1
0
VERTEX
8
0
10
-0.0125
20
0
42
1
0
VERTEX
8
0
10
0.0125
20
0
42
1
0
SEQEND
0
ENDBLK
0
BLOCK
2
SMOOTH_0$1
8
0
10
0
20
0
3
SMOOTH_0$1
70
64
0
POLYLINE
8
0
66
1
40
0.05
41
0.05
70
1
0
VERTEX
8
0
10
-0.025
20
0
42
1
0
VERTEX
8
0
10
0.025
20
0
42
1
0
SEQEND
0
ENDBLK
0
BLOCK
2
SMOOTH_0$2
8
0
10
0
20
0
3
SMOOTH_0$2
70
64
0
POLYLINE
8
0
66
1
40
0.1
41
0.1
70
1
0
VERTEX
8
0
10
-0.05
20
0
42
1
0
VERTEX
8
0
10
0.05
20
0
42
1
0
SEQEND
0
ENDBLK
0
BLOCK
2
PAD_0
8
0
10
0
20
0
3
PAD_0
70
64
0
POLYLINE
8
0
70
1
66
1
0
VERTEX
8
0
10
0
20
0
42
1
0
VERTEX
8
0
10
0
20
0
42
1
0
SEQEND
0
ENDBLK
0
BLOCK
2
PAD_1
8
0
10
0
20
0
3
PAD_1
70
64
0
POLYLINE
8
0
66
1
40
1.27
41
1.27
0
VERTEX
8
0
10
-1.7018
20
0
0
VERTEX
8
0
10
1.7018
20
0
0
SEQEND
0
ENDBLK
0
BLOCK
2
PAD_2
8
0
10
0
20
0
3
PAD_2
70
64
0
POLYLINE
8
0
66
1
40
8.636
41
8.636
0
VERTEX
8
0
10
-5.6134
20
0
0
VERTEX
8
0
10
5.6134
20
0
0
SEQEND
0
ENDBLK
0
BLOCK
2
PAD_3
8
0
10
0
20
0
3
PAD_3
70
64
0
POLYLINE
8
0
70
1
66
1
40
0.35
41
0.35
0
VERTEX
8
0
10
-0.65
20
-0.175
0
VERTEX
8
0
10
0.65
20
-0.175
42
1
0
VERTEX
8
0
10
0.65
20
0.175
0
VERTEX
8
0
10
-0.65
20
0.175
42
1
0
SEQEND
0
ENDBLK
0
BLOCK
2
PAD_4
8
0
10
0
20
0
3
PAD_4
70
64
0
POLYLINE
8
0
70
1
66
1
40
0.635
41
0.635
0
VERTEX
8
0
10
0
20
-0.3175
42
1
0
VERTEX
8
0
10
0
20
0.3175
42
1
0
SEQEND
0
ENDBLK
0
BLOCK
2
PAD_5
8
0
10
0
20
0
3
PAD_5
70
64
0
POLYLINE
8
0
70
1
66
1
40
0.889
41
0.889
0
VERTEX
8
0
10
0
20
-0.4445
42
1
0
VERTEX
8
0
10
0
20
0.4445
42
1
0
SEQEND
0
ENDBLK
0
BLOCK
2
PAD_6
8
0
10
0
20
0
3
PAD_6
70
64
0
POLYLINE
8
0
70
1
66
1
40
2.2479
41
2.2479
0
VERTEX
8
0
10
0
20
-1.12395
42
1
0
VERTEX
8
0
10
0
20
1.12395
42
1
0
SEQEND
0
ENDBLK
0
BLOCK
2
PAD_7
8
0
10
0
20
0
3
PAD_7
70
64
0
POLYLINE
8
0
66
1
40
1.3208
41
1.3208
0
VERTEX
8
0
10
-0.762
20
0
0
VERTEX
8
0
10
0.762
20
0
0
SEQEND
0
ENDBLK
0
BLOCK
2
PAD_8
8
0
10
0
20
0
3
PAD_8
70
64
0
POLYLINE
8
0
66
1
40
0.9144
41
0.9144
0
VERTEX
8
0
10
-0.4826
20
0
0
VERTEX
8
0
10
0.4826
20
0
0
SEQEND
0
ENDBLK
0
BLOCK
2
PAD_9
8
0
10
0
20
0
3
PAD_9
70
64
0
POLYLINE
8
0
66
1
0
VERTEX
8
0
10
0
20
0
0
VERTEX
8
0
10
0
20
0
0
SEQEND
0
ENDBLK
0
BLOCK
2
PAD_10
8
0
10
0
20
0
3
PAD_10
70
64
0
POLYLINE
8
0
66
1
40
1.8034
41
1.8034
0
VERTEX
8
0
10
-1.6129
20
0
0
VERTEX
8
0
10
1.6129
20
0
0
SEQEND
0
ENDBLK
0
BLOCK
2
PAD_11
8
0
10
0
20
0
3
PAD_11
70
64
0
POLYLINE
8
0
66
1
40
1.8034
41
1.8034
0
VERTEX
8
0
10
-1.6002
20
0
0
VERTEX
8
0
10
1.6002
20
0
0
SEQEND
0
ENDBLK
0
BLOCK
2
PAD_12
8
0
10
0
20
0
3
PAD_12
70
64
0
POLYLINE
8
0
66
1
40
1.524
41
1.524
0
VERTEX
8
0
10
-0.762
20
0
0
VERTEX
8
0
10
0.762
20
0
0
SEQEND
0
ENDBLK
0
BLOCK
2
PAD_13
8
0
10
0
20
0
3
PAD_13
70
64
0
POLYLINE
8
0
70
1
66
1
40
0.762
41
0.762
0
VERTEX
8
0
10
0
20
-0.381
42
1
0
VERTEX
8
0
10
0
20
0.381
42
1
0
SEQEND
0
ENDBLK
0
BLOCK
2
PAD_14
8
0
10
0
20
0
3
PAD_14
70
64
0
POLYLINE
8
0
66
1
40
2.4384
41
2.4384
0
VERTEX
8
0
10
-1.3081
20
0
0
VERTEX
8
0
10
1.3081
20
0
0
SEQEND
0
ENDBLK
0
BLOCK
2
PAD_15
8
0
10
0
20
0
3
PAD_15
70
64
0
POLYLINE
8
0
70
1
66
1
40
2.5
41
2.5
0
VERTEX
8
0
10
0
20
-1.25
42
1
0
VERTEX
8
0
10
0
20
1.25
42
1
0
SEQEND
0
ENDBLK
0
BLOCK
2
PAD_16
8
0
10
0
20
0
3
PAD_16
70
64
0
POLYLINE
8
0
70
1
66
1
40
0.5
41
0.5
0
VERTEX
8
0
10
0
20
-0.25
42
1
0
VERTEX
8
0
10
0
20
0.25
42
1
0
SEQEND
0
ENDBLK
0
BLOCK
2
PAD_17
8
0
10
0
20
0
3
PAD_17
70
64
0
POLYLINE
8
0
66
1
40
0.7
41
0.7
0
VERTEX
8
0
10
-0.61
20
0
0
VERTEX
8
0
10
0.61
20
0
0
SEQEND
0
ENDBLK
0
BLOCK
2
PAD_18
8
0
10
0
20
0
3
PAD_18
70
64
0
POLYLINE
8
0
66
1
40
0.3
41
0.3
0
VERTEX
8
0
10
-0.425
20
0
0
VERTEX
8
0
10
0.425
20
0
0
SEQEND
0
ENDBLK
0
BLOCK
2
PAD_19
8
0
10
0
20
0
3
PAD_19
70
64
0
POLYLINE
8
0
66
1
40
2.65
41
2.65
0
VERTEX
8
0
10
-1.825
20
0
0
VERTEX
8
0
10
1.825
20
0
0
SEQEND
0
ENDBLK
0
BLOCK
2
PAD_20
8
0
10
0
20
0
3
PAD_20
70
64
0
POLYLINE
8
0
66
1
40
1.53
41
1.53
0
VERTEX
8
0
10
-1.265
20
0
0
VERTEX
8
0
10
1.265
20
0
0
SEQEND
0
ENDBLK
0
BLOCK
2
PAD_21
8
0
10
0
20
0
3
PAD_21
70
64
0
POLYLINE
8
0
70
1
66
1
40
1.524
41
1.524
0
VERTEX
8
0
10
0
20
-0.762
42
1
0
VERTEX
8
0
10
0
20
0.762
42
1
0
SEQEND
0
ENDBLK
0
BLOCK
2
PAD_22
8
0
10
0
20
0
3
PAD_22
70
64
0
POLYLINE
8
0
66
1
40
2.6
41
2.6
0
VERTEX
8
0
10
-1.3
20
0
0
VERTEX
8
0
10
1.3
20
0
0
SEQEND
0
ENDBLK
0
BLOCK
2
PAD_23
8
0
10
0
20
0
3
PAD_23
70
64
0
POLYLINE
8
0
66
1
40
2.5
41
2.5
0
VERTEX
8
0
10
-1.25
20
0
0
VERTEX
8
0
10
1.25
20
0
0
SEQEND
0
ENDBLK
999
*** POWERPCB  DRILL HOLE ***
0
BLOCK
2
DRIL_HOLE_0
8
0
10
0
20
0
3
DRIL_HOLE_0
70
64
0
POLYLINE
8
0
66
1
70
1
0
VERTEX
8
0
10
0
20
0
42
1
0
VERTEX
8
0
10
0
20
0
42
1
0
SEQEND
0
INSERT
2
DRIL_SYMBOL_0
8
0
10
0
20
0
0
ENDBLK
0
BLOCK
2
DRIL_HOLE_1$1176
8
0
10
0
20
0
3
DRIL_HOLE_1$1176
70
64
0
POLYLINE
8
0
66
1
40
0.5588
41
0.5588
70
1
0
VERTEX
8
0
10
-0.2794
20
0
42
1
0
VERTEX
8
0
10
0.2794
20
0
42
1
0
SEQEND
0
INSERT
2
DRIL_SYMBOL_1$1176
8
0
10
0
20
0
0
ENDBLK
0
BLOCK
2
DRIL_HOLE_3$2512
8
0
10
0
20
0
3
DRIL_HOLE_3$2512
70
64
0
POLYLINE
8
0
66
1
40
1.6256
41
1.6256
70
1
0
VERTEX
8
0
10
-0.8128
20
0
42
1
0
VERTEX
8
0
10
0.8128
20
0
42
1
0
SEQEND
0
INSERT
2
DRIL_SYMBOL_3$2512
8
0
10
0
20
0
0
ENDBLK
0
BLOCK
2
DRIL_HOLE_0$9144
8
0
10
0
20
0
3
DRIL_HOLE_0$9144
70
64
0
POLYLINE
8
0
66
1
40
0.4572
41
0.4572
70
1
0
VERTEX
8
0
10
-0.2286
20
0
42
1
0
VERTEX
8
0
10
0.2286
20
0
42
1
0
SEQEND
0
INSERT
2
DRIL_SYMBOL_0$9144
8
0
10
0
20
0
0
ENDBLK
0
BLOCK
2
DRIL_HOLE_4
8
0
10
0
20
0
3
DRIL_HOLE_4
70
64
0
POLYLINE
8
0
66
1
40
2
41
2
70
1
0
VERTEX
8
0
10
-1
20
0
42
1
0
VERTEX
8
0
10
1
20
0
42
1
0
SEQEND
0
INSERT
2
DRIL_SYMBOL_4
8
0
10
0
20
0
0
ENDBLK
0
BLOCK
2
DRIL_HOLE_0$50038
8
0
10
0
20
0
3
DRIL_HOLE_0$50038
70
64
0
POLYLINE
8
0
66
1
40
0.25019
41
0.25019
70
1
0
VERTEX
8
0
10
-0.1250946667
20
0
42
1
0
VERTEX
8
0
10
0.1250946667
20
0
42
1
0
SEQEND
0
INSERT
2
DRIL_SYMBOL_0$50038
8
0
10
0
20
0
0
ENDBLK
0
ENDSEC
0
SECTION
2
ENTITIES
999
*** POWERPCB  DBLAYER ***
0
INSERT
2
DBLAYERS
8
0
10
0
20
0
999
*** POWERPCB  BOARD ***
0
INSERT
2
BOARD_1
8
0
10
0.0105286667
20
0.005672
999
*** POWERPCB  COMPONENT ***
0
INSERT
2
PART_TOP_0
8
0
10
35.19678
20
45.06214
50
180
0
INSERT
2
PART_TOP_1
8
0
10
45.2374
20
19.9644
0
INSERT
2
PART_TOP_2
8
0
10
24.35606
20
45.93844
0
INSERT
2
PART_TOP_3
8
0
10
40.64762
20
43.35526
0
INSERT
2
PART_TOP_4
8
0
10
45.1
20
10.15
0
INSERT
2
PART_TOP_5
8
0
10
59.69
20
52.07
0
INSERT
2
PART_TOP_6
8
0
10
45.75048
20
15.20698
50
180
0
INSERT
2
PART_TOP_9
8
0
10
12.16406
20
20.29714
0
INSERT
2
PART_TOP_10
8
0
10
54.87162
20
15.1765
0
INSERT
2
PART_TOP_11
8
0
10
47.2567
20
34.85134
0
INSERT
2
PART_TOP_12
8
0
10
56.14924
20
34.49574
0
INSERT
2
PART_TOP_21
8
0
10
12.59586
20
14.66342
50
180
0
INSERT
2
PART_TOP_22
8
0
10
21.81352
20
14.84376
0
INSERT
2
PART_TOP_23
8
0
10
14.1605
20
35.22726
0
INSERT
2
PART_TOP_24
8
0
10
23.0759
20
35.21456
0
INSERT
2
PART_TOP_25
8
0
10
59.69
20
49.53
50
180
0
INSERT
2
PART_TOP_26
8
0
10
56.515
20
57.15
50
270
0
INSERT
2
PART_TOP_27
8
0
10
54.61
20
62.865
50
180
0
INSERT
2
PART_TOP_28
8
0
10
59.055
20
57.15
50
90
0
INSERT
2
PART_TOP_29
8
0
10
12.08
20
10.15
0
INSERT
2
PART_TOP_30
8
0
10
13.126212
20
43.55465
0
INSERT
2
PART_TOP_31
8
0
10
66.63436
20
23.31212
0
INSERT
2
PART_TOP_32
8
0
10
18.288
20
37.719
0
INSERT
2
PART_TOP_33
8
0
10
61.81852
20
27.00782
50
90
0
INSERT
2
PART_TOP_34
8
0
10
4.19608
20
26.20772
50
90
0
INSERT
2
PART_TOP_35
8
0
10
64.77
20
49.53
50
270
0
INSERT
2
PART_TOP_36
8
0
10
25.4
20
50.8
50
90
0
INSERT
2
PART_TOP_37
8
0
10
55.07482
20
17.4117
0
INSERT
2
PART_TOP_38
8
0
10
45.52188
20
17.40916
50
180
0
INSERT
2
PART_TOP_39
8
0
10
45.56506
20
32.3977
50
180
0
INSERT
2
PART_TOP_40
8
0
10
56.34736
20
32.30118
0
INSERT
2
PART_TOP_49
8
0
10
12.42314
20
16.9799
50
180
0
INSERT
2
PART_TOP_50
8
0
10
12.46378
20
32.9057
50
180
0
INSERT
2
PART_TOP_51
8
0
10
22.01418
20
17.14754
0
INSERT
2
PART_TOP_52
8
0
10
23.3045
20
32.89554
0
INSERT
2
PART_TOP_61
8
0
10
50.8
20
16.129
50
270
0
INSERT
2
PART_TOP_62
8
0
10
61.341
20
37.9222
0
INSERT
2
PART_TOP_64
8
0
10
27.7368
20
15.113
50
90
0
INSERT
2
PART_TOP_65
8
0
10
22.19452
20
48.768
50
180
0
INSERT
2
PART_TOP_66
8
0
10
41.48328
20
26.04516
50
180
0
INSERT
2
PART_TOP_67
8
0
10
52.5018
20
35.2044
0
INSERT
2
PART_TOP_70
8
0
10
28.7274
20
24.4602
50
270
0
INSERT
2
PART_TOP_74
8
0
10
34.1884
20
48.92294
50
180
0
INSERT
2
PART_TOP_75
8
0
10
59.69
20
46.99
0
INSERT
2
PART_TOP_86
8
0
10
7.89
20
63.58
50
180
0
INSERT
2
PART_TOP_87
8
0
10
52.705
20
46.355
0
INSERT
2
PART_TOP_88
8
0
10
48.895
20
49.53
50
270
0
INSERT
2
PART_TOP_89
8
0
10
59.69
20
44.45
0
INSERT
2
PART_TOP_90
8
0
10
53.975
20
57.15
50
270
0
INSERT
2
PART_TOP_91
8
0
10
39.29
20
66.48
50
270
0
INSERT
2
PART_TOP_92
8
0
10
46.355
20
57.15
50
270
0
INSERT
2
PART_TOP_93
8
0
10
46.355
20
64.77
50
270
0
INSERT
2
PART_TOP_94
8
0
10
64.135
20
60.96
0
INSERT
2
PART_TOP_95
8
0
10
53.975
20
50.8
0
INSERT
2
PART_TOP_98
8
0
10
2.286
20
18.542
0
INSERT
2
PART_TOP_99
8
0
10
23.495
20
65.405
0
INSERT
2
PART_TOP_100
8
0
10
64.897
20
30.861
0
INSERT
2
PART_TOP_101
8
0
10
63.28
20
17.44
50
270
0
INSERT
2
PART_TOP_102
8
0
10
5.17
20
38.52
50
180
999
*** POWERPCB  PCB PARAMETER ***
0
INSERT
2
PCB_PARAMS
8
0
10
0
20
0
0
ENDSEC
0
EOF
