0
SECTION
2
HEADER
999
*** POWERPCB  HEADER ***
9
$EXTMIN
10
-0.5316535433
20
-0.504855643
9
$EXTMAX
10
3200.3869028871
20
2700.4209448819
9
$FILLMODE
70
0
9
$GRIDMODE
70
1
9
$GRIDUNIT
10
200
20
200
9
$INSBASE
10
-17167.9998950131
20
-17844.0007086614
9
$LIMCHECK
70
0
9
$PLINEWID
40
1
9
$SNAPMODE
70
1
9
$SNAPUNIT
10
5
20
5
9
$TEXTSIZE
40
60
9
$TEXTSTYLE
7
W5
9
$USERI1
70
100
9
$USERI2
70
0
9
$USERI5
70
150
9
$VIEWCTR
10
2244.7135170604
20
1910.1325459318
0
ENDSEC
0
SECTION
2
TABLES
999
*** POWERPCB  LAYER ***
0
TABLE
2
LAYER
70
26
0
LAYER
2
DBLAYERS
70
1
62
-255
6
CONTINUOUS
0
LAYER
2
BOARD_OUTLINE_00
70
0
62
255
6
CONTINUOUS
0
LAYER
2
LABEL_INFO
70
1
62
-255
6
CONTINUOUS
0
LAYER
2
LABEL_ATTRIBUTE
70
1
62
-255
6
CONTINUOUS
0
LAYER
2
PART_NAME_30
70
1
62
-250
6
CONTINUOUS
0
LAYER
2
PART_TYPE_29
70
1
62
-250
6
CONTINUOUS
0
LAYER
2
PART_NAME_29
70
0
62
6
6
CONTINUOUS
0
LAYER
2
PART_INFO
70
1
62
-255
6
CONTINUOUS
0
LAYER
2
PART_PTS
70
1
62
-255
6
CONTINUOUS
0
LAYER
2
SYM_NAME
70
1
62
-255
6
CONTINUOUS
0
LAYER
2
SYM_PART_NAME_27
70
1
62
-255
6
CONTINUOUS
0
LAYER
2
SYM_PART_TYPE_26
70
1
62
-255
6
CONTINUOUS
0
LAYER
2
SYM_PART_NAME_26
70
1
62
-255
6
CONTINUOUS
0
LAYER
2
SYM_TERMINAL
70
1
62
-255
6
CONTINUOUS
0
LAYER
2
PKG_INFO
70
1
62
-255
6
CONTINUOUS
0
LAYER
2
PART_BOT_2DLINE_26
70
1
62
-1
6
CONTINUOUS
0
LAYER
2
PART_BOT_2DLINE_27
70
1
62
-2
6
CONTINUOUS
0
LAYER
2
DRIL_PLTE_THRU_01
70
1
62
-3
6
CONTINUOUS
0
LAYER
2
DRIL_PLTE_THRU_02
70
1
62
-2
6
CONTINUOUS
0
LAYER
2
DRIL_PLTE_THRU_03
70
1
62
-2
6
CONTINUOUS
0
LAYER
2
DRIL_PLTE_THRU_04
70
0
62
1
6
CONTINUOUS
0
LAYER
2
PADS_INNER
70
0
62
23
6
CONTINUOUS
0
LAYER
2
PADS_BOT
70
0
62
23
6
CONTINUOUS
0
LAYER
2
PADS_TOP
70
1
62
-96
6
CONTINUOUS
0
LAYER
2
PCB_PARAMS
70
1
62
-255
6
CONTINUOUS
0
LAYER
2
DRIL_SYMBOL
70
0
62
255
6
CONTINUOUS
0
ENDTAB
999
*** POWERPCB  TEXT STYLE ***
0
TABLE
2
STYLE
70
3
0
STYLE
2
W8
70
64
40
0
41
0.75
42
0
50
0
71
0
3
simplex
0
STYLE
2
W8R0
70
64
40
0
41
0.75
42
0
50
0
71
0
3
simplex
0
STYLE
2
W5
70
64
40
0
41
0.75
42
0
50
0
71
0
3
simplex
0
ENDTAB
0
ENDSEC
0
SECTION
2
BLOCKS
999
*** POWERPCB  DBLAYER ***
0
BLOCK
2
DBLAYERS
8
0
10
0
20
0
3
DBLAYERS
70
64
0
TEXT
8
DBLAYERS
10
0
20
-120
40
70
1
__It__Is__Job__Name__:=CCCNGP_EEC_REV1 0.pcb
999
 *  1.Number             2.Type                  3.RouteColor
999
 *  4.ViaColor           5.PadColor              6.CopperColor
999
 *  7.2DLineColor        8.TextColor             9.ErrorColor
999
 * 10.TopComponentColor 11.BottomComponentColor 12.RoutingDirection
999
 * 13.LayerThickness    14.CopperThickness      15.Dielectric
999
 * 16.IsRouteable       17.IsVisible            18.IsSelectable
999
 * 19.IsPrepreg         20.AssSilkScreen        21.AssPasteMask
999
 * 22.AssSolderMask     23.AssAssembly
0
TEXT
8
DBLAYERS
10
0
20
-240
40
70
1
Bottom:=4 1 23 12 20 23 23 23 14 0 4 1 0 51435 3.2999999523 1 1 1 0 29 22 28 30 0 0 1 13 0 0 23 
0
TEXT
8
DBLAYERS
10
0
20
-360
40
70
1
Silkscreen Bottom:=29 3 10 10 10 10 10 10 10 10 10 2 0 0 3.2999999523 0 1 1 0 -1 -1 -1 -1 0 0 0 13 0 0 0 
0
ENDBLK
999
*** POWERPCB  BOARD ***
0
BLOCK
2
BOARD_1
8
0
10
0
20
0
3
BOARD_1
70
64
0
POLYLINE
8
BOARD_OUTLINE_00
66
1
40
1
41
1
70
1
0
VERTEX
8
BOARD_OUTLINE_00
10
0
20
0.0485301837
0
VERTEX
8
BOARD_OUTLINE_00
10
0
20
2599.972992126
0
VERTEX
8
BOARD_OUTLINE_00
10
100.0013648294
20
2699.9743307087
0
VERTEX
8
BOARD_OUTLINE_00
10
3099.8250918635
20
2699.9743307087
0
VERTEX
8
BOARD_OUTLINE_00
10
3199.9185564304
20
2599.8808661417
0
VERTEX
8
BOARD_OUTLINE_00
10
3199.9185564304
20
0.0485301837
0
SEQEND
0
INSERT
2
SMOOTH_1
8
BOARD_OUTLINE_00
10
0
20
0.0485301837
0
INSERT
2
SMOOTH_1
8
BOARD_OUTLINE_00
10
0
20
2599.972992126
0
INSERT
2
SMOOTH_1
8
BOARD_OUTLINE_00
10
100.0013648294
20
2699.9743307087
0
INSERT
2
SMOOTH_1
8
BOARD_OUTLINE_00
10
3099.8250918635
20
2699.9743307087
0
INSERT
2
SMOOTH_1
8
BOARD_OUTLINE_00
10
3199.9185564304
20
2599.8808661417
0
INSERT
2
SMOOTH_1
8
BOARD_OUTLINE_00
10
3199.9185564304
20
0.0485301837
0
ENDBLK
999
*** POWERPCB  COMPONENT ***
0
BLOCK
2
PART_BOT_1
8
0
10
0
20
0
3
PART_BOT_1
70
64
0
INSERT
2
SYM_BOT_5
8
0
10
0
20
0
0
INSERT
2
PKG_1
8
0
10
0
20
0
41
-1
0
TEXT
8
LABEL_INFO
10
-59.0551181102
20
-19.6850393701
40
42
1
0 0 0 0 0 1
41
0.75
7
W8
0
TEXT
8
LABEL_ATTRIBUTE
10
-59.0551181102
20
-19.6850393701
40
42
1
Ref.Des.
41
0.75
7
W8
0
TEXT
8
PART_NAME_30
10
-59.0551181102
20
-19.6850393701
40
42
1
R1
41
0.75
7
W8
0
TEXT
8
LABEL_INFO
10
-59.0551181102
20
-39.3700787402
40
42
1
0 0 0 2 0 1
73
2
11
-59.0551181102
21
-39.3700787402
41
0.75
7
W8
0
TEXT
8
LABEL_ATTRIBUTE
10
-59.0551181102
20
-39.3700787402
40
42
1
PartType
73
2
11
-59.0551181102
21
-39.3700787402
41
0.75
7
W8
0
TEXT
8
PART_TYPE_29
10
-59.0551181102
20
-39.3700787402
40
42
1
RES-75E-0805-1%-0.125W
73
3
11
-59.0551181102
21
-39.3700787402
41
0.75
7
W8
0
TEXT
8
LABEL_INFO
10
-107.9199737533
20
-42.79
40
42
1
0 162000000 0 0 0 1
50
90
41
0.75
7
W8
0
TEXT
8
LABEL_ATTRIBUTE
10
-107.9199737533
20
-42.79
40
42
1
Ref.Des.
50
90
41
0.75
7
W8
0
TEXT
8
PART_NAME_29
10
-107.9199737533
20
-42.79
40
42
1
R1
50
90
41
0.75
7
W8
0
TEXT
8
PART_INFO
10
-107.9199737533
20
-102.79
40
42
1
000000
71
2
50
90
41
0.75
7
W8
0
TEXT
8
PART_PTS
10
-107.9199737533
20
-162.79
40
42
1
1 2 
71
2
50
90
41
0.75
7
W8
0
ENDBLK
0
BLOCK
2
PART_BOT_2
8
0
10
0
20
0
3
PART_BOT_2
70
64
0
INSERT
2
SYM_BOT_5
8
0
10
0
20
0
0
INSERT
2
PKG_1
8
0
10
0
20
0
41
-1
0
TEXT
8
LABEL_INFO
10
-59.0551181102
20
-19.6850393701
40
42
1
0 0 0 0 0 1
41
0.75
7
W8
0
TEXT
8
LABEL_ATTRIBUTE
10
-59.0551181102
20
-19.6850393701
40
42
1
Ref.Des.
41
0.75
7
W8
0
TEXT
8
PART_NAME_30
10
-59.0551181102
20
-19.6850393701
40
42
1
R2
41
0.75
7
W8
0
TEXT
8
LABEL_INFO
10
-59.0551181102
20
-39.3700787402
40
42
1
0 0 0 2 0 1
73
2
11
-59.0551181102
21
-39.3700787402
41
0.75
7
W8
0
TEXT
8
LABEL_ATTRIBUTE
10
-59.0551181102
20
-39.3700787402
40
42
1
PartType
73
2
11
-59.0551181102
21
-39.3700787402
41
0.75
7
W8
0
TEXT
8
PART_TYPE_29
10
-59.0551181102
20
-39.3700787402
40
42
1
RES-75E-0805-1%-0.125W
73
3
11
-59.0551181102
21
-39.3700787402
41
0.75
7
W8
0
TEXT
8
LABEL_INFO
10
17.3599737533
20
74.63
40
42
1
0 162000000 0 0 0 1
50
90
41
0.75
7
W8
0
TEXT
8
LABEL_ATTRIBUTE
10
17.3599737533
20
74.63
40
42
1
Ref.Des.
50
90
41
0.75
7
W8
0
TEXT
8
PART_NAME_29
10
17.3599737533
20
74.63
40
42
1
R2
50
90
41
0.75
7
W8
0
TEXT
8
PART_INFO
10
17.3599737533
20
14.63
40
42
1
000000
71
2
50
90
41
0.75
7
W8
0
TEXT
8
PART_PTS
10
17.3599737533
20
-45.37
40
42
1
1 2 
71
2
50
90
41
0.75
7
W8
0
ENDBLK
0
BLOCK
2
PART_BOT_3
8
0
10
0
20
0
3
PART_BOT_3
70
64
0
INSERT
2
SYM_BOT_6
8
0
10
0
20
0
0
INSERT
2
PKG_2
8
0
10
0
20
0
41
-1
0
TEXT
8
LABEL_INFO
10
-139.55
20
-27.15
40
42
1
0 162000000 0 0 0 1
50
90
41
0.75
7
W8
0
TEXT
8
LABEL_ATTRIBUTE
10
-139.55
20
-27.15
40
42
1
Ref.Des.
50
90
41
0.75
7
W8
0
TEXT
8
PART_NAME_29
10
-139.55
20
-27.15
40
42
1
C3
50
90
41
0.75
7
W8
0
TEXT
8
LABEL_INFO
10
-59.0551181102
20
-49.2125984252
40
42
1
0 0 0 2 0 1
73
2
11
-59.0551181102
21
-49.2125984252
41
0.75
7
W8
0
TEXT
8
LABEL_ATTRIBUTE
10
-59.0551181102
20
-49.2125984252
40
42
1
PartType
73
2
11
-59.0551181102
21
-49.2125984252
41
0.75
7
W8
0
TEXT
8
PART_TYPE_29
10
-59.0551181102
20
-49.2125984252
40
42
1
CAPC-1NF-1206-10%-2KV-X7R
73
3
11
-59.0551181102
21
-49.2125984252
41
0.75
7
W8
0
TEXT
8
LABEL_INFO
10
-59.0551181102
20
-19.6850393701
40
42
1
0 0 0 0 0 1
41
0.75
7
W8
0
TEXT
8
LABEL_ATTRIBUTE
10
-59.0551181102
20
-19.6850393701
40
42
1
Ref.Des.
41
0.75
7
W8
0
TEXT
8
PART_NAME_30
10
-59.0551181102
20
-19.6850393701
40
42
1
C3
41
0.75
7
W8
0
TEXT
8
PART_INFO
10
-59.0551181102
20
-79.6850393701
40
42
1
000000
71
2
41
0.75
7
W8
0
TEXT
8
PART_PTS
10
-59.0551181102
20
-139.6850393701
40
42
1
1 2 
71
2
41
0.75
7
W8
0
ENDBLK
0
BLOCK
2
PART_BOT_4
8
0
10
0
20
0
3
PART_BOT_4
70
64
0
INSERT
2
SYM_BOT_7
8
0
10
0
20
0
0
INSERT
2
PKG_3
8
0
10
0
20
0
41
-1
0
TEXT
8
LABEL_INFO
10
-59.0551181102
20
-19.6850393701
40
42
1
0 0 0 0 0 1
41
0.75
7
W8
0
TEXT
8
LABEL_ATTRIBUTE
10
-59.0551181102
20
-19.6850393701
40
42
1
Ref.Des.
41
0.75
7
W8
0
TEXT
8
PART_NAME_30
10
-59.0551181102
20
-19.6850393701
40
42
1
R3
41
0.75
7
W8
0
TEXT
8
LABEL_INFO
10
-59.0551181102
20
-49.2125984252
40
42
1
0 0 0 2 0 1
73
2
11
-59.0551181102
21
-49.2125984252
41
0.75
7
W8
0
TEXT
8
LABEL_ATTRIBUTE
10
-59.0551181102
20
-49.2125984252
40
42
1
PartType
73
2
11
-59.0551181102
21
-49.2125984252
41
0.75
7
W8
0
TEXT
8
PART_TYPE_29
10
-59.0551181102
20
-49.2125984252
40
42
1
RES-1M
73
3
11
-59.0551181102
21
-49.2125984252
41
0.75
7
W8
0
TEXT
8
LABEL_INFO
10
134.73
20
21.72
40
42
1
0 486000000 0 0 0 1
50
270
41
0.75
7
W8
0
TEXT
8
LABEL_ATTRIBUTE
10
134.73
20
21.72
40
42
1
Ref.Des.
50
270
41
0.75
7
W8
0
TEXT
8
PART_NAME_29
10
134.73
20
21.72
40
42
1
R3
50
270
41
0.75
7
W8
0
TEXT
8
PART_INFO
10
134.73
20
-38.28
40
42
1
000000
71
2
50
270
41
0.75
7
W8
0
TEXT
8
PART_PTS
10
134.73
20
-98.28
40
42
1
1 2 
71
2
50
270
41
0.75
7
W8
0
ENDBLK
0
BLOCK
2
PART_BOT_6
8
0
10
0
20
0
3
PART_BOT_6
70
64
0
INSERT
2
SYM_BOT_5
8
0
10
0
20
0
0
INSERT
2
PKG_1
8
0
10
0
20
0
41
-1
0
TEXT
8
LABEL_INFO
10
-59.0551181102
20
-19.6850393701
40
42
1
0 0 0 0 0 1
41
0.75
7
W8
0
TEXT
8
LABEL_ATTRIBUTE
10
-59.0551181102
20
-19.6850393701
40
42
1
Ref.Des.
41
0.75
7
W8
0
TEXT
8
PART_NAME_30
10
-59.0551181102
20
-19.6850393701
40
42
1
R4
41
0.75
7
W8
0
TEXT
8
LABEL_INFO
10
-59.0551181102
20
-39.3700787402
40
42
1
0 0 0 2 0 1
73
2
11
-59.0551181102
21
-39.3700787402
41
0.75
7
W8
0
TEXT
8
LABEL_ATTRIBUTE
10
-59.0551181102
20
-39.3700787402
40
42
1
PartType
73
2
11
-59.0551181102
21
-39.3700787402
41
0.75
7
W8
0
TEXT
8
PART_TYPE_29
10
-59.0551181102
20
-39.3700787402
40
42
1
RES-75E-0805-1%-0.125W
73
3
11
-59.0551181102
21
-39.3700787402
41
0.75
7
W8
0
TEXT
8
LABEL_INFO
10
141.45
20
-33.5999737533
40
42
1
0 162000000 0 0 0 1
50
90
41
0.75
7
W8
0
TEXT
8
LABEL_ATTRIBUTE
10
141.45
20
-33.5999737533
40
42
1
Ref.Des.
50
90
41
0.75
7
W8
0
TEXT
8
PART_NAME_29
10
141.45
20
-33.5999737533
40
42
1
R4
50
90
41
0.75
7
W8
0
TEXT
8
PART_INFO
10
141.45
20
-93.5999737533
40
42
1
000000
71
2
50
90
41
0.75
7
W8
0
TEXT
8
PART_PTS
10
141.45
20
-153.5999737533
40
42
1
1 2 
71
2
50
90
41
0.75
7
W8
0
ENDBLK
0
BLOCK
2
PART_BOT_7
8
0
10
0
20
0
3
PART_BOT_7
70
64
0
INSERT
2
SYM_BOT_5
8
0
10
0
20
0
0
INSERT
2
PKG_1
8
0
10
0
20
0
41
-1
0
TEXT
8
LABEL_INFO
10
-59.0551181102
20
-19.6850393701
40
42
1
0 0 0 0 0 1
41
0.75
7
W8
0
TEXT
8
LABEL_ATTRIBUTE
10
-59.0551181102
20
-19.6850393701
40
42
1
Ref.Des.
41
0.75
7
W8
0
TEXT
8
PART_NAME_30
10
-59.0551181102
20
-19.6850393701
40
42
1
R5
41
0.75
7
W8
0
TEXT
8
LABEL_INFO
10
-59.0551181102
20
-39.3700787402
40
42
1
0 0 0 2 0 1
73
2
11
-59.0551181102
21
-39.3700787402
41
0.75
7
W8
0
TEXT
8
LABEL_ATTRIBUTE
10
-59.0551181102
20
-39.3700787402
40
42
1
PartType
73
2
11
-59.0551181102
21
-39.3700787402
41
0.75
7
W8
0
TEXT
8
PART_TYPE_29
10
-59.0551181102
20
-39.3700787402
40
42
1
RES-75E-0805-1%-0.125W
73
3
11
-59.0551181102
21
-39.3700787402
41
0.75
7
W8
0
TEXT
8
LABEL_INFO
10
16.4099737533
20
59.28
40
42
1
0 162000000 0 0 0 1
50
90
41
0.75
7
W8
0
TEXT
8
LABEL_ATTRIBUTE
10
16.4099737533
20
59.28
40
42
1
Ref.Des.
50
90
41
0.75
7
W8
0
TEXT
8
PART_NAME_29
10
16.4099737533
20
59.28
40
42
1
R5
50
90
41
0.75
7
W8
0
TEXT
8
PART_INFO
10
16.4099737533
20
-0.72
40
42
1
000000
71
2
50
90
41
0.75
7
W8
0
TEXT
8
PART_PTS
10
16.4099737533
20
-60.72
40
42
1
1 2 
71
2
50
90
41
0.75
7
W8
0
ENDBLK
0
BLOCK
2
PART_BOT_8
8
0
10
0
20
0
3
PART_BOT_8
70
64
0
INSERT
2
SYM_BOT_6
8
0
10
0
20
0
0
INSERT
2
PKG_2
8
0
10
0
20
0
41
-1
0
TEXT
8
LABEL_INFO
10
-124.75
20
-24.1
40
42
1
0 162000000 0 0 0 1
50
90
41
0.75
7
W8
0
TEXT
8
LABEL_ATTRIBUTE
10
-124.75
20
-24.1
40
42
1
Ref.Des.
50
90
41
0.75
7
W8
0
TEXT
8
PART_NAME_29
10
-124.75
20
-24.1
40
42
1
C6
50
90
41
0.75
7
W8
0
TEXT
8
LABEL_INFO
10
-59.0551181102
20
-49.2125984252
40
42
1
0 0 0 2 0 1
73
2
11
-59.0551181102
21
-49.2125984252
41
0.75
7
W8
0
TEXT
8
LABEL_ATTRIBUTE
10
-59.0551181102
20
-49.2125984252
40
42
1
PartType
73
2
11
-59.0551181102
21
-49.2125984252
41
0.75
7
W8
0
TEXT
8
PART_TYPE_29
10
-59.0551181102
20
-49.2125984252
40
42
1
CAPC-1NF-1206-10%-2KV-X7R
73
3
11
-59.0551181102
21
-49.2125984252
41
0.75
7
W8
0
TEXT
8
LABEL_INFO
10
-59.0551181102
20
-19.6850393701
40
42
1
0 0 0 0 0 1
41
0.75
7
W8
0
TEXT
8
LABEL_ATTRIBUTE
10
-59.0551181102
20
-19.6850393701
40
42
1
Ref.Des.
41
0.75
7
W8
0
TEXT
8
PART_NAME_30
10
-59.0551181102
20
-19.6850393701
40
42
1
C6
41
0.75
7
W8
0
TEXT
8
PART_INFO
10
-59.0551181102
20
-79.6850393701
40
42
1
000000
71
2
41
0.75
7
W8
0
TEXT
8
PART_PTS
10
-59.0551181102
20
-139.6850393701
40
42
1
1 2 
71
2
41
0.75
7
W8
0
ENDBLK
0
BLOCK
2
PART_BOT_9
8
0
10
0
20
0
3
PART_BOT_9
70
64
0
INSERT
2
SYM_BOT_7
8
0
10
0
20
0
0
INSERT
2
PKG_3
8
0
10
0
20
0
41
-1
0
TEXT
8
LABEL_INFO
10
-59.0551181102
20
-19.6850393701
40
42
1
0 0 0 0 0 1
41
0.75
7
W8
0
TEXT
8
LABEL_ATTRIBUTE
10
-59.0551181102
20
-19.6850393701
40
42
1
Ref.Des.
41
0.75
7
W8
0
TEXT
8
PART_NAME_30
10
-59.0551181102
20
-19.6850393701
40
42
1
R6
41
0.75
7
W8
0
TEXT
8
LABEL_INFO
10
-59.0551181102
20
-49.2125984252
40
42
1
0 0 0 2 0 1
73
2
11
-59.0551181102
21
-49.2125984252
41
0.75
7
W8
0
TEXT
8
LABEL_ATTRIBUTE
10
-59.0551181102
20
-49.2125984252
40
42
1
PartType
73
2
11
-59.0551181102
21
-49.2125984252
41
0.75
7
W8
0
TEXT
8
PART_TYPE_29
10
-59.0551181102
20
-49.2125984252
40
42
1
RES-1M
73
3
11
-59.0551181102
21
-49.2125984252
41
0.75
7
W8
0
TEXT
8
LABEL_INFO
10
123.27
20
22.73
40
42
1
0 486000000 0 0 0 1
50
270
41
0.75
7
W8
0
TEXT
8
LABEL_ATTRIBUTE
10
123.27
20
22.73
40
42
1
Ref.Des.
50
270
41
0.75
7
W8
0
TEXT
8
PART_NAME_29
10
123.27
20
22.73
40
42
1
R6
50
270
41
0.75
7
W8
0
TEXT
8
PART_INFO
10
123.27
20
-37.27
40
42
1
000000
71
2
50
270
41
0.75
7
W8
0
TEXT
8
PART_PTS
10
123.27
20
-97.27
40
42
1
1 2 
71
2
50
270
41
0.75
7
W8
0
ENDBLK
0
BLOCK
2
PART_BOT_11
8
0
10
0
20
0
3
PART_BOT_11
70
64
0
INSERT
2
SYM_BOT_5
8
0
10
0
20
0
0
INSERT
2
PKG_1
8
0
10
0
20
0
41
-1
0
TEXT
8
LABEL_INFO
10
-59.0551181102
20
-19.6850393701
40
42
1
0 0 0 0 0 1
41
0.75
7
W8
0
TEXT
8
LABEL_ATTRIBUTE
10
-59.0551181102
20
-19.6850393701
40
42
1
Ref.Des.
41
0.75
7
W8
0
TEXT
8
PART_NAME_30
10
-59.0551181102
20
-19.6850393701
40
42
1
R7
41
0.75
7
W8
0
TEXT
8
LABEL_INFO
10
-59.0551181102
20
-39.3700787402
40
42
1
0 0 0 2 0 1
73
2
11
-59.0551181102
21
-39.3700787402
41
0.75
7
W8
0
TEXT
8
LABEL_ATTRIBUTE
10
-59.0551181102
20
-39.3700787402
40
42
1
PartType
73
2
11
-59.0551181102
21
-39.3700787402
41
0.75
7
W8
0
TEXT
8
PART_TYPE_29
10
-59.0551181102
20
-39.3700787402
40
42
1
RES-75E-0805-1%-0.125W
73
3
11
-59.0551181102
21
-39.3700787402
41
0.75
7
W8
0
TEXT
8
LABEL_INFO
10
7.72
20
-103.24
40
42
1
0 162000000 0 0 0 1
50
90
41
0.75
7
W8
0
TEXT
8
LABEL_ATTRIBUTE
10
7.72
20
-103.24
40
42
1
Ref.Des.
50
90
41
0.75
7
W8
0
TEXT
8
PART_NAME_29
10
7.72
20
-103.24
40
42
1
R7
50
90
41
0.75
7
W8
0
TEXT
8
PART_INFO
10
7.72
20
-163.24
40
42
1
000000
71
2
50
90
41
0.75
7
W8
0
TEXT
8
PART_PTS
10
7.72
20
-223.24
40
42
1
1 2 
71
2
50
90
41
0.75
7
W8
0
ENDBLK
0
BLOCK
2
PART_BOT_12
8
0
10
0
20
0
3
PART_BOT_12
70
64
0
INSERT
2
SYM_BOT_5
8
0
10
0
20
0
0
INSERT
2
PKG_1
8
0
10
0
20
0
41
-1
0
TEXT
8
LABEL_INFO
10
-59.0551181102
20
-19.6850393701
40
42
1
0 0 0 0 0 1
41
0.75
7
W8
0
TEXT
8
LABEL_ATTRIBUTE
10
-59.0551181102
20
-19.6850393701
40
42
1
Ref.Des.
41
0.75
7
W8
0
TEXT
8
PART_NAME_30
10
-59.0551181102
20
-19.6850393701
40
42
1
R8
41
0.75
7
W8
0
TEXT
8
LABEL_INFO
10
-59.0551181102
20
-39.3700787402
40
42
1
0 0 0 2 0 1
73
2
11
-59.0551181102
21
-39.3700787402
41
0.75
7
W8
0
TEXT
8
LABEL_ATTRIBUTE
10
-59.0551181102
20
-39.3700787402
40
42
1
PartType
73
2
11
-59.0551181102
21
-39.3700787402
41
0.75
7
W8
0
TEXT
8
PART_TYPE_29
10
-59.0551181102
20
-39.3700787402
40
42
1
RES-75E-0805-1%-0.125W
73
3
11
-59.0551181102
21
-39.3700787402
41
0.75
7
W8
0
TEXT
8
LABEL_INFO
10
49.9999737533
20
65
40
42
1
0 162000000 0 0 0 1
50
90
41
0.75
7
W8
0
TEXT
8
LABEL_ATTRIBUTE
10
49.9999737533
20
65
40
42
1
Ref.Des.
50
90
41
0.75
7
W8
0
TEXT
8
PART_NAME_29
10
49.9999737533
20
65
40
42
1
R8
50
90
41
0.75
7
W8
0
TEXT
8
PART_INFO
10
49.9999737533
20
5
40
42
1
000000
71
2
50
90
41
0.75
7
W8
0
TEXT
8
PART_PTS
10
49.9999737533
20
-55
40
42
1
1 2 
71
2
50
90
41
0.75
7
W8
0
ENDBLK
0
BLOCK
2
PART_BOT_13
8
0
10
0
20
0
3
PART_BOT_13
70
64
0
INSERT
2
SYM_BOT_6
8
0
10
0
20
0
0
INSERT
2
PKG_2
8
0
10
0
20
0
41
-1
0
TEXT
8
LABEL_INFO
10
-124.89
20
-27.16
40
42
1
0 162000000 0 0 0 1
50
90
41
0.75
7
W8
0
TEXT
8
LABEL_ATTRIBUTE
10
-124.89
20
-27.16
40
42
1
Ref.Des.
50
90
41
0.75
7
W8
0
TEXT
8
PART_NAME_29
10
-124.89
20
-27.16
40
42
1
C9
50
90
41
0.75
7
W8
0
TEXT
8
LABEL_INFO
10
-59.0551181102
20
-49.2125984252
40
42
1
0 0 0 2 0 1
73
2
11
-59.0551181102
21
-49.2125984252
41
0.75
7
W8
0
TEXT
8
LABEL_ATTRIBUTE
10
-59.0551181102
20
-49.2125984252
40
42
1
PartType
73
2
11
-59.0551181102
21
-49.2125984252
41
0.75
7
W8
0
TEXT
8
PART_TYPE_29
10
-59.0551181102
20
-49.2125984252
40
42
1
CAPC-1NF-1206-10%-2KV-X7R
73
3
11
-59.0551181102
21
-49.2125984252
41
0.75
7
W8
0
TEXT
8
LABEL_INFO
10
-59.0551181102
20
-19.6850393701
40
42
1
0 0 0 0 0 1
41
0.75
7
W8
0
TEXT
8
LABEL_ATTRIBUTE
10
-59.0551181102
20
-19.6850393701
40
42
1
Ref.Des.
41
0.75
7
W8
0
TEXT
8
PART_NAME_30
10
-59.0551181102
20
-19.6850393701
40
42
1
C9
41
0.75
7
W8
0
TEXT
8
PART_INFO
10
-59.0551181102
20
-79.6850393701
40
42
1
000000
71
2
41
0.75
7
W8
0
TEXT
8
PART_PTS
10
-59.0551181102
20
-139.6850393701
40
42
1
1 2 
71
2
41
0.75
7
W8
0
ENDBLK
0
BLOCK
2
PART_BOT_14
8
0
10
0
20
0
3
PART_BOT_14
70
64
0
INSERT
2
SYM_BOT_7
8
0
10
0
20
0
0
INSERT
2
PKG_3
8
0
10
0
20
0
41
-1
0
TEXT
8
LABEL_INFO
10
-59.0551181102
20
-19.6850393701
40
42
1
0 0 0 0 0 1
41
0.75
7
W8
0
TEXT
8
LABEL_ATTRIBUTE
10
-59.0551181102
20
-19.6850393701
40
42
1
Ref.Des.
41
0.75
7
W8
0
TEXT
8
PART_NAME_30
10
-59.0551181102
20
-19.6850393701
40
42
1
R9
41
0.75
7
W8
0
TEXT
8
LABEL_INFO
10
-59.0551181102
20
-49.2125984252
40
42
1
0 0 0 2 0 1
73
2
11
-59.0551181102
21
-49.2125984252
41
0.75
7
W8
0
TEXT
8
LABEL_ATTRIBUTE
10
-59.0551181102
20
-49.2125984252
40
42
1
PartType
73
2
11
-59.0551181102
21
-49.2125984252
41
0.75
7
W8
0
TEXT
8
PART_TYPE_29
10
-59.0551181102
20
-49.2125984252
40
42
1
RES-1M
73
3
11
-59.0551181102
21
-49.2125984252
41
0.75
7
W8
0
TEXT
8
LABEL_INFO
10
127.35
20
23.7
40
42
1
0 486000000 0 0 0 1
50
270
41
0.75
7
W8
0
TEXT
8
LABEL_ATTRIBUTE
10
127.35
20
23.7
40
42
1
Ref.Des.
50
270
41
0.75
7
W8
0
TEXT
8
PART_NAME_29
10
127.35
20
23.7
40
42
1
R9
50
270
41
0.75
7
W8
0
TEXT
8
PART_INFO
10
127.35
20
-36.3
40
42
1
000000
71
2
50
270
41
0.75
7
W8
0
TEXT
8
PART_PTS
10
127.35
20
-96.3
40
42
1
1 2 
71
2
50
270
41
0.75
7
W8
0
ENDBLK
0
BLOCK
2
PART_BOT_16
8
0
10
0
20
0
3
PART_BOT_16
70
64
0
INSERT
2
SYM_BOT_5
8
0
10
0
20
0
0
INSERT
2
PKG_1
8
0
10
0
20
0
41
-1
0
TEXT
8
LABEL_INFO
10
-59.0551181102
20
-19.6850393701
40
42
1
0 0 0 0 0 1
41
0.75
7
W8
0
TEXT
8
LABEL_ATTRIBUTE
10
-59.0551181102
20
-19.6850393701
40
42
1
Ref.Des.
41
0.75
7
W8
0
TEXT
8
PART_NAME_30
10
-59.0551181102
20
-19.6850393701
40
42
1
R10
41
0.75
7
W8
0
TEXT
8
LABEL_INFO
10
-59.0551181102
20
-39.3700787402
40
42
1
0 0 0 2 0 1
73
2
11
-59.0551181102
21
-39.3700787402
41
0.75
7
W8
0
TEXT
8
LABEL_ATTRIBUTE
10
-59.0551181102
20
-39.3700787402
40
42
1
PartType
73
2
11
-59.0551181102
21
-39.3700787402
41
0.75
7
W8
0
TEXT
8
PART_TYPE_29
10
-59.0551181102
20
-39.3700787402
40
42
1
RES-75E-0805-1%-0.125W
73
3
11
-59.0551181102
21
-39.3700787402
41
0.75
7
W8
0
TEXT
8
LABEL_INFO
10
13.26
20
-138.82
40
42
1
0 162000000 0 0 0 1
50
90
41
0.75
7
W8
0
TEXT
8
LABEL_ATTRIBUTE
10
13.26
20
-138.82
40
42
1
Ref.Des.
50
90
41
0.75
7
W8
0
TEXT
8
PART_NAME_29
10
13.26
20
-138.82
40
42
1
R10
50
90
41
0.75
7
W8
0
TEXT
8
PART_INFO
10
13.26
20
-198.82
40
42
1
000000
71
2
50
90
41
0.75
7
W8
0
TEXT
8
PART_PTS
10
13.26
20
-258.82
40
42
1
1 2 
71
2
50
90
41
0.75
7
W8
0
ENDBLK
0
BLOCK
2
PART_BOT_17
8
0
10
0
20
0
3
PART_BOT_17
70
64
0
INSERT
2
SYM_BOT_5
8
0
10
0
20
0
0
INSERT
2
PKG_1
8
0
10
0
20
0
41
-1
0
TEXT
8
LABEL_INFO
10
-59.0551181102
20
-19.6850393701
40
42
1
0 0 0 0 0 1
41
0.75
7
W8
0
TEXT
8
LABEL_ATTRIBUTE
10
-59.0551181102
20
-19.6850393701
40
42
1
Ref.Des.
41
0.75
7
W8
0
TEXT
8
PART_NAME_30
10
-59.0551181102
20
-19.6850393701
40
42
1
R11
41
0.75
7
W8
0
TEXT
8
LABEL_INFO
10
-59.0551181102
20
-39.3700787402
40
42
1
0 0 0 2 0 1
73
2
11
-59.0551181102
21
-39.3700787402
41
0.75
7
W8
0
TEXT
8
LABEL_ATTRIBUTE
10
-59.0551181102
20
-39.3700787402
40
42
1
PartType
73
2
11
-59.0551181102
21
-39.3700787402
41
0.75
7
W8
0
TEXT
8
PART_TYPE_29
10
-59.0551181102
20
-39.3700787402
40
42
1
RES-75E-0805-1%-0.125W
73
3
11
-59.0551181102
21
-39.3700787402
41
0.75
7
W8
0
TEXT
8
LABEL_INFO
10
12.0199737533
20
80.4
40
42
1
0 162000000 0 0 0 1
50
90
41
0.75
7
W8
0
TEXT
8
LABEL_ATTRIBUTE
10
12.0199737533
20
80.4
40
42
1
Ref.Des.
50
90
41
0.75
7
W8
0
TEXT
8
PART_NAME_29
10
12.0199737533
20
80.4
40
42
1
R11
50
90
41
0.75
7
W8
0
TEXT
8
PART_INFO
10
12.0199737533
20
20.4
40
42
1
000000
71
2
50
90
41
0.75
7
W8
0
TEXT
8
PART_PTS
10
12.0199737533
20
-39.6
40
42
1
1 2 
71
2
50
90
41
0.75
7
W8
0
ENDBLK
0
BLOCK
2
PART_BOT_18
8
0
10
0
20
0
3
PART_BOT_18
70
64
0
INSERT
2
SYM_BOT_6
8
0
10
0
20
0
0
INSERT
2
PKG_2
8
0
10
0
20
0
41
-1
0
TEXT
8
LABEL_INFO
10
-128.22
20
-27.16
40
42
1
0 162000000 0 0 0 1
50
90
41
0.75
7
W8
0
TEXT
8
LABEL_ATTRIBUTE
10
-128.22
20
-27.16
40
42
1
Ref.Des.
50
90
41
0.75
7
W8
0
TEXT
8
PART_NAME_29
10
-128.22
20
-27.16
40
42
1
C12
50
90
41
0.75
7
W8
0
TEXT
8
LABEL_INFO
10
-59.0551181102
20
-49.2125984252
40
42
1
0 0 0 2 0 1
73
2
11
-59.0551181102
21
-49.2125984252
41
0.75
7
W8
0
TEXT
8
LABEL_ATTRIBUTE
10
-59.0551181102
20
-49.2125984252
40
42
1
PartType
73
2
11
-59.0551181102
21
-49.2125984252
41
0.75
7
W8
0
TEXT
8
PART_TYPE_29
10
-59.0551181102
20
-49.2125984252
40
42
1
CAPC-1NF-1206-10%-2KV-X7R
73
3
11
-59.0551181102
21
-49.2125984252
41
0.75
7
W8
0
TEXT
8
LABEL_INFO
10
-59.0551181102
20
-19.6850393701
40
42
1
0 0 0 0 0 1
41
0.75
7
W8
0
TEXT
8
LABEL_ATTRIBUTE
10
-59.0551181102
20
-19.6850393701
40
42
1
Ref.Des.
41
0.75
7
W8
0
TEXT
8
PART_NAME_30
10
-59.0551181102
20
-19.6850393701
40
42
1
C12
41
0.75
7
W8
0
TEXT
8
PART_INFO
10
-59.0551181102
20
-79.6850393701
40
42
1
000000
71
2
41
0.75
7
W8
0
TEXT
8
PART_PTS
10
-59.0551181102
20
-139.6850393701
40
42
1
1 2 
71
2
41
0.75
7
W8
0
ENDBLK
0
BLOCK
2
PART_BOT_19
8
0
10
0
20
0
3
PART_BOT_19
70
64
0
INSERT
2
SYM_BOT_7
8
0
10
0
20
0
0
INSERT
2
PKG_3
8
0
10
0
20
0
41
-1
0
TEXT
8
LABEL_INFO
10
-59.0551181102
20
-19.6850393701
40
42
1
0 0 0 0 0 1
41
0.75
7
W8
0
TEXT
8
LABEL_ATTRIBUTE
10
-59.0551181102
20
-19.6850393701
40
42
1
Ref.Des.
41
0.75
7
W8
0
TEXT
8
PART_NAME_30
10
-59.0551181102
20
-19.6850393701
40
42
1
R12
41
0.75
7
W8
0
TEXT
8
LABEL_INFO
10
-59.0551181102
20
-49.2125984252
40
42
1
0 0 0 2 0 1
73
2
11
-59.0551181102
21
-49.2125984252
41
0.75
7
W8
0
TEXT
8
LABEL_ATTRIBUTE
10
-59.0551181102
20
-49.2125984252
40
42
1
PartType
73
2
11
-59.0551181102
21
-49.2125984252
41
0.75
7
W8
0
TEXT
8
PART_TYPE_29
10
-59.0551181102
20
-49.2125984252
40
42
1
RES-1M
73
3
11
-59.0551181102
21
-49.2125984252
41
0.75
7
W8
0
TEXT
8
LABEL_INFO
10
131.94
20
34.97
40
42
1
0 486000000 0 0 0 1
50
270
41
0.75
7
W8
0
TEXT
8
LABEL_ATTRIBUTE
10
131.94
20
34.97
40
42
1
Ref.Des.
50
270
41
0.75
7
W8
0
TEXT
8
PART_NAME_29
10
131.94
20
34.97
40
42
1
R12
50
270
41
0.75
7
W8
0
TEXT
8
PART_INFO
10
131.94
20
-25.03
40
42
1
000000
71
2
50
270
41
0.75
7
W8
0
TEXT
8
PART_PTS
10
131.94
20
-85.03
40
42
1
1 2 
71
2
50
270
41
0.75
7
W8
0
ENDBLK
0
BLOCK
2
PART_BOT_22
8
0
10
0
20
0
3
PART_BOT_22
70
64
0
INSERT
2
SYM_BOT_9
8
0
10
0
20
0
0
INSERT
2
PKG_5
8
0
10
0
20
0
41
-1
0
TEXT
8
LABEL_INFO
10
-59.0551181102
20
-19.6850393701
40
42
1
0 0 0 0 0 1
41
0.75
7
W8
0
TEXT
8
LABEL_ATTRIBUTE
10
-59.0551181102
20
-19.6850393701
40
42
1
Ref.Des.
41
0.75
7
W8
0
TEXT
8
PART_NAME_30
10
-59.0551181102
20
-19.6850393701
40
42
1
FB1
41
0.75
7
W8
0
TEXT
8
LABEL_INFO
10
-59.0551181102
20
-39.3700787402
40
42
1
0 0 0 2 0 1
73
2
11
-59.0551181102
21
-39.3700787402
41
0.75
7
W8
0
TEXT
8
LABEL_ATTRIBUTE
10
-59.0551181102
20
-39.3700787402
40
42
1
PartType
73
2
11
-59.0551181102
21
-39.3700787402
41
0.75
7
W8
0
TEXT
8
PART_TYPE_29
10
-59.0551181102
20
-39.3700787402
40
42
1
FB-120E-100MHZ-0805
73
3
11
-59.0551181102
21
-39.3700787402
41
0.75
7
W8
0
TEXT
8
LABEL_INFO
10
32.0199737533
20
107.44
40
42
1
0 324000000 0 0 0 1
50
180
41
0.75
7
W8
0
TEXT
8
LABEL_ATTRIBUTE
10
32.0199737533
20
107.44
40
42
1
Ref.Des.
50
180
41
0.75
7
W8
0
TEXT
8
PART_NAME_29
10
32.0199737533
20
107.44
40
42
1
FB1
50
180
41
0.75
7
W8
0
TEXT
8
PART_INFO
10
32.0199737533
20
47.44
40
42
1
000000
71
2
50
180
41
0.75
7
W8
0
TEXT
8
PART_PTS
10
32.0199737533
20
-12.56
40
42
1
1 2 
71
2
50
180
41
0.75
7
W8
0
ENDBLK
0
BLOCK
2
PART_BOT_25
8
0
10
0
20
0
3
PART_BOT_25
70
64
0
INSERT
2
SYM_BOT_4
8
0
10
0
20
0
0
INSERT
2
PKG_8
8
0
10
0
20
0
41
-1
0
TEXT
8
LABEL_INFO
10
-59.0551181102
20
-19.6850393701
40
42
1
0 0 0 0 0 1
41
0.75
7
W8
0
TEXT
8
LABEL_ATTRIBUTE
10
-59.0551181102
20
-19.6850393701
40
42
1
Ref.Des.
41
0.75
7
W8
0
TEXT
8
PART_NAME_30
10
-59.0551181102
20
-19.6850393701
40
42
1
C1
41
0.75
7
W8
0
TEXT
8
LABEL_INFO
10
-59.0551181102
20
-39.3700787402
40
42
1
0 0 0 2 0 1
73
2
11
-59.0551181102
21
-39.3700787402
41
0.75
7
W8
0
TEXT
8
LABEL_ATTRIBUTE
10
-59.0551181102
20
-39.3700787402
40
42
1
PartType
73
2
11
-59.0551181102
21
-39.3700787402
41
0.75
7
W8
0
TEXT
8
PART_TYPE_29
10
-59.0551181102
20
-39.3700787402
40
42
1
CAPC-0.01UF-0805-5%-50V-X7R
73
3
11
-59.0551181102
21
-39.3700787402
41
0.75
7
W8
0
TEXT
8
LABEL_INFO
10
-5.77
20
96.15
40
42
1
0 324000000 0 0 0 1
50
180
41
0.75
7
W8
0
TEXT
8
LABEL_ATTRIBUTE
10
-5.77
20
96.15
40
42
1
Ref.Des.
50
180
41
0.75
7
W8
0
TEXT
8
PART_NAME_29
10
-5.77
20
96.15
40
42
1
C1
50
180
41
0.75
7
W8
0
TEXT
8
PART_INFO
10
-5.77
20
36.15
40
42
1
000000
71
2
50
180
41
0.75
7
W8
0
TEXT
8
PART_PTS
10
-5.77
20
-23.85
40
42
1
1 2 
71
2
50
180
41
0.75
7
W8
0
ENDBLK
0
BLOCK
2
PART_BOT_26
8
0
10
0
20
0
3
PART_BOT_26
70
64
0
INSERT
2
SYM_BOT_4
8
0
10
0
20
0
0
INSERT
2
PKG_8
8
0
10
0
20
0
41
-1
0
TEXT
8
LABEL_INFO
10
-59.0551181102
20
-19.6850393701
40
42
1
0 0 0 0 0 1
41
0.75
7
W8
0
TEXT
8
LABEL_ATTRIBUTE
10
-59.0551181102
20
-19.6850393701
40
42
1
Ref.Des.
41
0.75
7
W8
0
TEXT
8
PART_NAME_30
10
-59.0551181102
20
-19.6850393701
40
42
1
C10
41
0.75
7
W8
0
TEXT
8
LABEL_INFO
10
-59.0551181102
20
-39.3700787402
40
42
1
0 0 0 2 0 1
73
2
11
-59.0551181102
21
-39.3700787402
41
0.75
7
W8
0
TEXT
8
LABEL_ATTRIBUTE
10
-59.0551181102
20
-39.3700787402
40
42
1
PartType
73
2
11
-59.0551181102
21
-39.3700787402
41
0.75
7
W8
0
TEXT
8
PART_TYPE_29
10
-59.0551181102
20
-39.3700787402
40
42
1
CAPC-0.01UF-0805-5%-50V-X7R
73
3
11
-59.0551181102
21
-39.3700787402
41
0.75
7
W8
0
TEXT
8
LABEL_INFO
10
73.5299737533
20
95.03
40
42
1
0 324000000 0 0 0 1
50
180
41
0.75
7
W8
0
TEXT
8
LABEL_ATTRIBUTE
10
73.5299737533
20
95.03
40
42
1
Ref.Des.
50
180
41
0.75
7
W8
0
TEXT
8
PART_NAME_29
10
73.5299737533
20
95.03
40
42
1
C10
50
180
41
0.75
7
W8
0
TEXT
8
PART_INFO
10
73.5299737533
20
35.03
40
42
1
000000
71
2
50
180
41
0.75
7
W8
0
TEXT
8
PART_PTS
10
73.5299737533
20
-24.97
40
42
1
1 2 
71
2
50
180
41
0.75
7
W8
0
ENDBLK
0
BLOCK
2
PART_BOT_27
8
0
10
0
20
0
3
PART_BOT_27
70
64
0
INSERT
2
SYM_BOT_4
8
0
10
0
20
0
0
INSERT
2
PKG_8
8
0
10
0
20
0
41
-1
0
TEXT
8
LABEL_INFO
10
-59.0551181102
20
-19.6850393701
40
42
1
0 0 0 0 0 1
41
0.75
7
W8
0
TEXT
8
LABEL_ATTRIBUTE
10
-59.0551181102
20
-19.6850393701
40
42
1
Ref.Des.
41
0.75
7
W8
0
TEXT
8
PART_NAME_30
10
-59.0551181102
20
-19.6850393701
40
42
1
C11
41
0.75
7
W8
0
TEXT
8
LABEL_INFO
10
-59.0551181102
20
-39.3700787402
40
42
1
0 0 0 2 0 1
73
2
11
-59.0551181102
21
-39.3700787402
41
0.75
7
W8
0
TEXT
8
LABEL_ATTRIBUTE
10
-59.0551181102
20
-39.3700787402
40
42
1
PartType
73
2
11
-59.0551181102
21
-39.3700787402
41
0.75
7
W8
0
TEXT
8
PART_TYPE_29
10
-59.0551181102
20
-39.3700787402
40
42
1
CAPC-0.01UF-0805-5%-50V-X7R
73
3
11
-59.0551181102
21
-39.3700787402
41
0.75
7
W8
0
TEXT
8
LABEL_INFO
10
1.77
20
-98.13
40
42
1
0 0 0 0 0 1
41
0.75
7
W8
0
TEXT
8
LABEL_ATTRIBUTE
10
1.77
20
-98.13
40
42
1
Ref.Des.
41
0.75
7
W8
0
TEXT
8
PART_NAME_29
10
1.77
20
-98.13
40
42
1
C11
41
0.75
7
W8
0
TEXT
8
PART_INFO
10
1.77
20
-158.13
40
42
1
000000
71
2
41
0.75
7
W8
0
TEXT
8
PART_PTS
10
1.77
20
-218.13
40
42
1
1 2 
71
2
41
0.75
7
W8
0
ENDBLK
0
BLOCK
2
PART_BOT_28
8
0
10
0
20
0
3
PART_BOT_28
70
64
0
INSERT
2
SYM_BOT_4
8
0
10
0
20
0
0
INSERT
2
PKG_9
8
0
10
0
20
0
41
-1
0
TEXT
8
LABEL_INFO
10
-79.2870866142
20
-84.8714173228
40
42
1
0 486000000 0 0 0 1
50
270
41
0.75
7
W8
0
TEXT
8
LABEL_ATTRIBUTE
10
-79.2870866142
20
-84.8714173228
40
42
1
Ref.Des.
50
270
41
0.75
7
W8
0
TEXT
8
PART_NAME_29
10
-79.2870866142
20
-84.8714173228
40
42
1
C13
50
270
41
0.75
7
W8
0
TEXT
8
LABEL_INFO
10
-59.0551181102
20
-39.3700787402
40
42
1
0 0 0 2 0 1
73
2
11
-59.0551181102
21
-39.3700787402
41
0.75
7
W8
0
TEXT
8
LABEL_ATTRIBUTE
10
-59.0551181102
20
-39.3700787402
40
42
1
PartType
73
2
11
-59.0551181102
21
-39.3700787402
41
0.75
7
W8
0
TEXT
8
PART_TYPE_29
10
-59.0551181102
20
-39.3700787402
40
42
1
CAP_4.7UF_25V_0803
73
3
11
-59.0551181102
21
-39.3700787402
41
0.75
7
W8
0
TEXT
8
LABEL_INFO
10
-59.0551181102
20
-19.6850393701
40
42
1
0 0 0 0 0 1
41
0.75
7
W8
0
TEXT
8
LABEL_ATTRIBUTE
10
-59.0551181102
20
-19.6850393701
40
42
1
Ref.Des.
41
0.75
7
W8
0
TEXT
8
PART_NAME_30
10
-59.0551181102
20
-19.6850393701
40
42
1
C13
41
0.75
7
W8
0
TEXT
8
PART_INFO
10
-59.0551181102
20
-79.6850393701
40
42
1
000000
71
2
41
0.75
7
W8
0
TEXT
8
PART_PTS
10
-59.0551181102
20
-139.6850393701
40
42
1
1 2 
71
2
41
0.75
7
W8
0
ENDBLK
0
BLOCK
2
PART_BOT_32
8
0
10
0
20
0
3
PART_BOT_32
70
64
0
INSERT
2
SYM_BOT_4
8
0
10
0
20
0
0
INSERT
2
PKG_8
8
0
10
0
20
0
41
-1
0
TEXT
8
LABEL_INFO
10
-59.0551181102
20
-19.6850393701
40
42
1
0 0 0 0 0 1
41
0.75
7
W8
0
TEXT
8
LABEL_ATTRIBUTE
10
-59.0551181102
20
-19.6850393701
40
42
1
Ref.Des.
41
0.75
7
W8
0
TEXT
8
PART_NAME_30
10
-59.0551181102
20
-19.6850393701
40
42
1
C2
41
0.75
7
W8
0
TEXT
8
LABEL_INFO
10
-59.0551181102
20
-39.3700787402
40
42
1
0 0 0 2 0 1
73
2
11
-59.0551181102
21
-39.3700787402
41
0.75
7
W8
0
TEXT
8
LABEL_ATTRIBUTE
10
-59.0551181102
20
-39.3700787402
40
42
1
PartType
73
2
11
-59.0551181102
21
-39.3700787402
41
0.75
7
W8
0
TEXT
8
PART_TYPE_29
10
-59.0551181102
20
-39.3700787402
40
42
1
CAPC-0.01UF-0805-5%-50V-X7R
73
3
11
-59.0551181102
21
-39.3700787402
41
0.75
7
W8
0
TEXT
8
LABEL_INFO
10
110.81
20
-16.9
40
42
1
0 0 0 0 0 1
41
0.75
7
W8
0
TEXT
8
LABEL_ATTRIBUTE
10
110.81
20
-16.9
40
42
1
Ref.Des.
41
0.75
7
W8
0
TEXT
8
PART_NAME_29
10
110.81
20
-16.9
40
42
1
C2
41
0.75
7
W8
0
TEXT
8
PART_INFO
10
110.81
20
-76.9
40
42
1
000000
71
2
41
0.75
7
W8
0
TEXT
8
PART_PTS
10
110.81
20
-136.9
40
42
1
1 2 
71
2
41
0.75
7
W8
0
ENDBLK
0
BLOCK
2
PART_BOT_33
8
0
10
0
20
0
3
PART_BOT_33
70
64
0
INSERT
2
SYM_BOT_4
8
0
10
0
20
0
0
INSERT
2
PKG_8
8
0
10
0
20
0
41
-1
0
TEXT
8
LABEL_INFO
10
-59.0551181102
20
-19.6850393701
40
42
1
0 0 0 0 0 1
41
0.75
7
W8
0
TEXT
8
LABEL_ATTRIBUTE
10
-59.0551181102
20
-19.6850393701
40
42
1
Ref.Des.
41
0.75
7
W8
0
TEXT
8
PART_NAME_30
10
-59.0551181102
20
-19.6850393701
40
42
1
C4
41
0.75
7
W8
0
TEXT
8
LABEL_INFO
10
-59.0551181102
20
-39.3700787402
40
42
1
0 0 0 2 0 1
73
2
11
-59.0551181102
21
-39.3700787402
41
0.75
7
W8
0
TEXT
8
LABEL_ATTRIBUTE
10
-59.0551181102
20
-39.3700787402
40
42
1
PartType
73
2
11
-59.0551181102
21
-39.3700787402
41
0.75
7
W8
0
TEXT
8
PART_TYPE_29
10
-59.0551181102
20
-39.3700787402
40
42
1
CAPC-0.01UF-0805-5%-50V-X7R
73
3
11
-59.0551181102
21
-39.3700787402
41
0.75
7
W8
0
TEXT
8
LABEL_INFO
10
-4.49
20
-94.77
40
42
1
0 0 0 0 0 1
41
0.75
7
W8
0
TEXT
8
LABEL_ATTRIBUTE
10
-4.49
20
-94.77
40
42
1
Ref.Des.
41
0.75
7
W8
0
TEXT
8
PART_NAME_29
10
-4.49
20
-94.77
40
42
1
C4
41
0.75
7
W8
0
TEXT
8
PART_INFO
10
-4.49
20
-154.77
40
42
1
000000
71
2
41
0.75
7
W8
0
TEXT
8
PART_PTS
10
-4.49
20
-214.77
40
42
1
1 2 
71
2
41
0.75
7
W8
0
ENDBLK
0
BLOCK
2
PART_BOT_34
8
0
10
0
20
0
3
PART_BOT_34
70
64
0
INSERT
2
SYM_BOT_4
8
0
10
0
20
0
0
INSERT
2
PKG_8
8
0
10
0
20
0
41
-1
0
TEXT
8
LABEL_INFO
10
-59.0551181102
20
-19.6850393701
40
42
1
0 0 0 0 0 1
41
0.75
7
W8
0
TEXT
8
LABEL_ATTRIBUTE
10
-59.0551181102
20
-19.6850393701
40
42
1
Ref.Des.
41
0.75
7
W8
0
TEXT
8
PART_NAME_30
10
-59.0551181102
20
-19.6850393701
40
42
1
C5
41
0.75
7
W8
0
TEXT
8
LABEL_INFO
10
-59.0551181102
20
-39.3700787402
40
42
1
0 0 0 2 0 1
73
2
11
-59.0551181102
21
-39.3700787402
41
0.75
7
W8
0
TEXT
8
LABEL_ATTRIBUTE
10
-59.0551181102
20
-39.3700787402
40
42
1
PartType
73
2
11
-59.0551181102
21
-39.3700787402
41
0.75
7
W8
0
TEXT
8
PART_TYPE_29
10
-59.0551181102
20
-39.3700787402
40
42
1
CAPC-0.01UF-0805-5%-50V-X7R
73
3
11
-59.0551181102
21
-39.3700787402
41
0.75
7
W8
0
TEXT
8
LABEL_INFO
10
53.4399737533
20
105.31
40
42
1
0 324000000 0 0 0 1
50
180
41
0.75
7
W8
0
TEXT
8
LABEL_ATTRIBUTE
10
53.4399737533
20
105.31
40
42
1
Ref.Des.
50
180
41
0.75
7
W8
0
TEXT
8
PART_NAME_29
10
53.4399737533
20
105.31
40
42
1
C5
50
180
41
0.75
7
W8
0
TEXT
8
PART_INFO
10
53.4399737533
20
45.31
40
42
1
000000
71
2
50
180
41
0.75
7
W8
0
TEXT
8
PART_PTS
10
53.4399737533
20
-14.69
40
42
1
1 2 
71
2
50
180
41
0.75
7
W8
0
ENDBLK
0
BLOCK
2
PART_BOT_35
8
0
10
0
20
0
3
PART_BOT_35
70
64
0
INSERT
2
SYM_BOT_4
8
0
10
0
20
0
0
INSERT
2
PKG_8
8
0
10
0
20
0
41
-1
0
TEXT
8
LABEL_INFO
10
-59.0551181102
20
-19.6850393701
40
42
1
0 0 0 0 0 1
41
0.75
7
W8
0
TEXT
8
LABEL_ATTRIBUTE
10
-59.0551181102
20
-19.6850393701
40
42
1
Ref.Des.
41
0.75
7
W8
0
TEXT
8
PART_NAME_30
10
-59.0551181102
20
-19.6850393701
40
42
1
C7
41
0.75
7
W8
0
TEXT
8
LABEL_INFO
10
-59.0551181102
20
-39.3700787402
40
42
1
0 0 0 2 0 1
73
2
11
-59.0551181102
21
-39.3700787402
41
0.75
7
W8
0
TEXT
8
LABEL_ATTRIBUTE
10
-59.0551181102
20
-39.3700787402
40
42
1
PartType
73
2
11
-59.0551181102
21
-39.3700787402
41
0.75
7
W8
0
TEXT
8
PART_TYPE_29
10
-59.0551181102
20
-39.3700787402
40
42
1
CAPC-0.01UF-0805-5%-50V-X7R
73
3
11
-59.0551181102
21
-39.3700787402
41
0.75
7
W8
0
TEXT
8
LABEL_INFO
10
4.97
20
-100.81
40
42
1
0 0 0 0 0 1
41
0.75
7
W8
0
TEXT
8
LABEL_ATTRIBUTE
10
4.97
20
-100.81
40
42
1
Ref.Des.
41
0.75
7
W8
0
TEXT
8
PART_NAME_29
10
4.97
20
-100.81
40
42
1
C7
41
0.75
7
W8
0
TEXT
8
PART_INFO
10
4.97
20
-160.81
40
42
1
000000
71
2
41
0.75
7
W8
0
TEXT
8
PART_PTS
10
4.97
20
-220.81
40
42
1
1 2 
71
2
41
0.75
7
W8
0
ENDBLK
0
BLOCK
2
PART_BOT_36
8
0
10
0
20
0
3
PART_BOT_36
70
64
0
INSERT
2
SYM_BOT_4
8
0
10
0
20
0
0
INSERT
2
PKG_8
8
0
10
0
20
0
41
-1
0
TEXT
8
LABEL_INFO
10
-59.0551181102
20
-19.6850393701
40
42
1
0 0 0 0 0 1
41
0.75
7
W8
0
TEXT
8
LABEL_ATTRIBUTE
10
-59.0551181102
20
-19.6850393701
40
42
1
Ref.Des.
41
0.75
7
W8
0
TEXT
8
PART_NAME_30
10
-59.0551181102
20
-19.6850393701
40
42
1
C8
41
0.75
7
W8
0
TEXT
8
LABEL_INFO
10
-59.0551181102
20
-39.3700787402
40
42
1
0 0 0 2 0 1
73
2
11
-59.0551181102
21
-39.3700787402
41
0.75
7
W8
0
TEXT
8
LABEL_ATTRIBUTE
10
-59.0551181102
20
-39.3700787402
40
42
1
PartType
73
2
11
-59.0551181102
21
-39.3700787402
41
0.75
7
W8
0
TEXT
8
PART_TYPE_29
10
-59.0551181102
20
-39.3700787402
40
42
1
CAPC-0.01UF-0805-5%-50V-X7R
73
3
11
-59.0551181102
21
-39.3700787402
41
0.75
7
W8
0
TEXT
8
LABEL_INFO
10
62.6199737533
20
96.58
40
42
1
0 324000000 0 0 0 1
50
180
41
0.75
7
W8
0
TEXT
8
LABEL_ATTRIBUTE
10
62.6199737533
20
96.58
40
42
1
Ref.Des.
50
180
41
0.75
7
W8
0
TEXT
8
PART_NAME_29
10
62.6199737533
20
96.58
40
42
1
C8
50
180
41
0.75
7
W8
0
TEXT
8
PART_INFO
10
62.6199737533
20
36.58
40
42
1
000000
71
2
50
180
41
0.75
7
W8
0
TEXT
8
PART_PTS
10
62.6199737533
20
-23.42
40
42
1
1 2 
71
2
50
180
41
0.75
7
W8
0
ENDBLK
0
BLOCK
2
PART_BOT_37
8
0
10
0
20
0
3
PART_BOT_37
70
64
0
INSERT
2
SYM_BOT_5
8
0
10
0
20
0
0
INSERT
2
PKG_1
8
0
10
0
20
0
41
-1
0
TEXT
8
LABEL_INFO
10
150
20
-49.9999737533
40
42
1
0 162000000 0 0 0 1
50
90
41
0.75
7
W8
0
TEXT
8
LABEL_ATTRIBUTE
10
150
20
-49.9999737533
40
42
1
Ref.Des.
50
90
41
0.75
7
W8
0
TEXT
8
PART_NAME_29
10
150
20
-49.9999737533
40
42
1
R13
50
90
41
0.75
7
W8
0
TEXT
8
LABEL_INFO
10
-59.0551181102
20
-39.3700787402
40
42
1
0 0 0 2 0 1
73
2
11
-59.0551181102
21
-39.3700787402
41
0.75
7
W8
0
TEXT
8
LABEL_ATTRIBUTE
10
-59.0551181102
20
-39.3700787402
40
42
1
PartType
73
2
11
-59.0551181102
21
-39.3700787402
41
0.75
7
W8
0
TEXT
8
PART_TYPE_29
10
-59.0551181102
20
-39.3700787402
40
42
1
RES-75E-0805-1%-0.125W
73
3
11
-59.0551181102
21
-39.3700787402
41
0.75
7
W8
0
TEXT
8
LABEL_INFO
10
-59.0551181102
20
-19.6850393701
40
42
1
0 0 0 0 0 1
41
0.75
7
W8
0
TEXT
8
LABEL_ATTRIBUTE
10
-59.0551181102
20
-19.6850393701
40
42
1
Ref.Des.
41
0.75
7
W8
0
TEXT
8
PART_NAME_30
10
-59.0551181102
20
-19.6850393701
40
42
1
R13
41
0.75
7
W8
0
TEXT
8
PART_INFO
10
-59.0551181102
20
-79.6850393701
40
42
1
000000
71
2
41
0.75
7
W8
0
TEXT
8
PART_PTS
10
-59.0551181102
20
-139.6850393701
40
42
1
1 2 
71
2
41
0.75
7
W8
0
ENDBLK
0
BLOCK
2
PART_BOT_38
8
0
10
0
20
0
3
PART_BOT_38
70
64
0
INSERT
2
SYM_BOT_5
8
0
10
0
20
0
0
INSERT
2
PKG_1
8
0
10
0
20
0
41
-1
0
TEXT
8
LABEL_INFO
10
150
20
-24.9999737533
40
42
1
0 162000000 0 0 0 1
50
90
41
0.75
7
W8
0
TEXT
8
LABEL_ATTRIBUTE
10
150
20
-24.9999737533
40
42
1
Ref.Des.
50
90
41
0.75
7
W8
0
TEXT
8
PART_NAME_29
10
150
20
-24.9999737533
40
42
1
R14
50
90
41
0.75
7
W8
0
TEXT
8
LABEL_INFO
10
-59.0551181102
20
-39.3700787402
40
42
1
0 0 0 2 0 1
73
2
11
-59.0551181102
21
-39.3700787402
41
0.75
7
W8
0
TEXT
8
LABEL_ATTRIBUTE
10
-59.0551181102
20
-39.3700787402
40
42
1
PartType
73
2
11
-59.0551181102
21
-39.3700787402
41
0.75
7
W8
0
TEXT
8
PART_TYPE_29
10
-59.0551181102
20
-39.3700787402
40
42
1
RES-75E-0805-1%-0.125W
73
3
11
-59.0551181102
21
-39.3700787402
41
0.75
7
W8
0
TEXT
8
LABEL_INFO
10
-59.0551181102
20
-19.6850393701
40
42
1
0 0 0 0 0 1
41
0.75
7
W8
0
TEXT
8
LABEL_ATTRIBUTE
10
-59.0551181102
20
-19.6850393701
40
42
1
Ref.Des.
41
0.75
7
W8
0
TEXT
8
PART_NAME_30
10
-59.0551181102
20
-19.6850393701
40
42
1
R14
41
0.75
7
W8
0
TEXT
8
PART_INFO
10
-59.0551181102
20
-79.6850393701
40
42
1
000000
71
2
41
0.75
7
W8
0
TEXT
8
PART_PTS
10
-59.0551181102
20
-139.6850393701
40
42
1
1 2 
71
2
41
0.75
7
W8
0
ENDBLK
0
BLOCK
2
PART_BOT_39
8
0
10
0
20
0
3
PART_BOT_39
70
64
0
INSERT
2
SYM_BOT_5
8
0
10
0
20
0
0
INSERT
2
PKG_1
8
0
10
0
20
0
41
-1
0
TEXT
8
LABEL_INFO
10
150
20
-49.9999737533
40
42
1
0 162000000 0 0 0 1
50
90
41
0.75
7
W8
0
TEXT
8
LABEL_ATTRIBUTE
10
150
20
-49.9999737533
40
42
1
Ref.Des.
50
90
41
0.75
7
W8
0
TEXT
8
PART_NAME_29
10
150
20
-49.9999737533
40
42
1
R15
50
90
41
0.75
7
W8
0
TEXT
8
LABEL_INFO
10
-59.0551181102
20
-39.3700787402
40
42
1
0 0 0 2 0 1
73
2
11
-59.0551181102
21
-39.3700787402
41
0.75
7
W8
0
TEXT
8
LABEL_ATTRIBUTE
10
-59.0551181102
20
-39.3700787402
40
42
1
PartType
73
2
11
-59.0551181102
21
-39.3700787402
41
0.75
7
W8
0
TEXT
8
PART_TYPE_29
10
-59.0551181102
20
-39.3700787402
40
42
1
RES-75E-0805-1%-0.125W
73
3
11
-59.0551181102
21
-39.3700787402
41
0.75
7
W8
0
TEXT
8
LABEL_INFO
10
-59.0551181102
20
-19.6850393701
40
42
1
0 0 0 0 0 1
41
0.75
7
W8
0
TEXT
8
LABEL_ATTRIBUTE
10
-59.0551181102
20
-19.6850393701
40
42
1
Ref.Des.
41
0.75
7
W8
0
TEXT
8
PART_NAME_30
10
-59.0551181102
20
-19.6850393701
40
42
1
R15
41
0.75
7
W8
0
TEXT
8
PART_INFO
10
-59.0551181102
20
-79.6850393701
40
42
1
000000
71
2
41
0.75
7
W8
0
TEXT
8
PART_PTS
10
-59.0551181102
20
-139.6850393701
40
42
1
1 2 
71
2
41
0.75
7
W8
0
ENDBLK
0
BLOCK
2
PART_BOT_40
8
0
10
0
20
0
3
PART_BOT_40
70
64
0
INSERT
2
SYM_BOT_5
8
0
10
0
20
0
0
INSERT
2
PKG_1
8
0
10
0
20
0
41
-1
0
TEXT
8
LABEL_INFO
10
150
20
-24.9999737533
40
42
1
0 162000000 0 0 0 1
50
90
41
0.75
7
W8
0
TEXT
8
LABEL_ATTRIBUTE
10
150
20
-24.9999737533
40
42
1
Ref.Des.
50
90
41
0.75
7
W8
0
TEXT
8
PART_NAME_29
10
150
20
-24.9999737533
40
42
1
R16
50
90
41
0.75
7
W8
0
TEXT
8
LABEL_INFO
10
-59.0551181102
20
-39.3700787402
40
42
1
0 0 0 2 0 1
73
2
11
-59.0551181102
21
-39.3700787402
41
0.75
7
W8
0
TEXT
8
LABEL_ATTRIBUTE
10
-59.0551181102
20
-39.3700787402
40
42
1
PartType
73
2
11
-59.0551181102
21
-39.3700787402
41
0.75
7
W8
0
TEXT
8
PART_TYPE_29
10
-59.0551181102
20
-39.3700787402
40
42
1
RES-75E-0805-1%-0.125W
73
3
11
-59.0551181102
21
-39.3700787402
41
0.75
7
W8
0
TEXT
8
LABEL_INFO
10
-59.0551181102
20
-19.6850393701
40
42
1
0 0 0 0 0 1
41
0.75
7
W8
0
TEXT
8
LABEL_ATTRIBUTE
10
-59.0551181102
20
-19.6850393701
40
42
1
Ref.Des.
41
0.75
7
W8
0
TEXT
8
PART_NAME_30
10
-59.0551181102
20
-19.6850393701
40
42
1
R16
41
0.75
7
W8
0
TEXT
8
PART_INFO
10
-59.0551181102
20
-79.6850393701
40
42
1
000000
71
2
41
0.75
7
W8
0
TEXT
8
PART_PTS
10
-59.0551181102
20
-139.6850393701
40
42
1
1 2 
71
2
41
0.75
7
W8
0
ENDBLK
0
BLOCK
2
PART_BOT_41
8
0
10
0
20
0
3
PART_BOT_41
70
64
0
INSERT
2
SYM_BOT_5
8
0
10
0
20
0
0
INSERT
2
PKG_1
8
0
10
0
20
0
41
-1
0
TEXT
8
LABEL_INFO
10
150
20
-49.9999737533
40
42
1
0 162000000 0 0 0 1
50
90
41
0.75
7
W8
0
TEXT
8
LABEL_ATTRIBUTE
10
150
20
-49.9999737533
40
42
1
Ref.Des.
50
90
41
0.75
7
W8
0
TEXT
8
PART_NAME_29
10
150
20
-49.9999737533
40
42
1
R17
50
90
41
0.75
7
W8
0
TEXT
8
LABEL_INFO
10
-59.0551181102
20
-39.3700787402
40
42
1
0 0 0 2 0 1
73
2
11
-59.0551181102
21
-39.3700787402
41
0.75
7
W8
0
TEXT
8
LABEL_ATTRIBUTE
10
-59.0551181102
20
-39.3700787402
40
42
1
PartType
73
2
11
-59.0551181102
21
-39.3700787402
41
0.75
7
W8
0
TEXT
8
PART_TYPE_29
10
-59.0551181102
20
-39.3700787402
40
42
1
RES-75E-0805-1%-0.125W
73
3
11
-59.0551181102
21
-39.3700787402
41
0.75
7
W8
0
TEXT
8
LABEL_INFO
10
-59.0551181102
20
-19.6850393701
40
42
1
0 0 0 0 0 1
41
0.75
7
W8
0
TEXT
8
LABEL_ATTRIBUTE
10
-59.0551181102
20
-19.6850393701
40
42
1
Ref.Des.
41
0.75
7
W8
0
TEXT
8
PART_NAME_30
10
-59.0551181102
20
-19.6850393701
40
42
1
R17
41
0.75
7
W8
0
TEXT
8
PART_INFO
10
-59.0551181102
20
-79.6850393701
40
42
1
000000
71
2
41
0.75
7
W8
0
TEXT
8
PART_PTS
10
-59.0551181102
20
-139.6850393701
40
42
1
1 2 
71
2
41
0.75
7
W8
0
ENDBLK
0
BLOCK
2
PART_BOT_42
8
0
10
0
20
0
3
PART_BOT_42
70
64
0
INSERT
2
SYM_BOT_5
8
0
10
0
20
0
0
INSERT
2
PKG_1
8
0
10
0
20
0
41
-1
0
TEXT
8
LABEL_INFO
10
150
20
-24.9999737533
40
42
1
0 162000000 0 0 0 1
50
90
41
0.75
7
W8
0
TEXT
8
LABEL_ATTRIBUTE
10
150
20
-24.9999737533
40
42
1
Ref.Des.
50
90
41
0.75
7
W8
0
TEXT
8
PART_NAME_29
10
150
20
-24.9999737533
40
42
1
R18
50
90
41
0.75
7
W8
0
TEXT
8
LABEL_INFO
10
-59.0551181102
20
-39.3700787402
40
42
1
0 0 0 2 0 1
73
2
11
-59.0551181102
21
-39.3700787402
41
0.75
7
W8
0
TEXT
8
LABEL_ATTRIBUTE
10
-59.0551181102
20
-39.3700787402
40
42
1
PartType
73
2
11
-59.0551181102
21
-39.3700787402
41
0.75
7
W8
0
TEXT
8
PART_TYPE_29
10
-59.0551181102
20
-39.3700787402
40
42
1
RES-75E-0805-1%-0.125W
73
3
11
-59.0551181102
21
-39.3700787402
41
0.75
7
W8
0
TEXT
8
LABEL_INFO
10
-59.0551181102
20
-19.6850393701
40
42
1
0 0 0 0 0 1
41
0.75
7
W8
0
TEXT
8
LABEL_ATTRIBUTE
10
-59.0551181102
20
-19.6850393701
40
42
1
Ref.Des.
41
0.75
7
W8
0
TEXT
8
PART_NAME_30
10
-59.0551181102
20
-19.6850393701
40
42
1
R18
41
0.75
7
W8
0
TEXT
8
PART_INFO
10
-59.0551181102
20
-79.6850393701
40
42
1
000000
71
2
41
0.75
7
W8
0
TEXT
8
PART_PTS
10
-59.0551181102
20
-139.6850393701
40
42
1
1 2 
71
2
41
0.75
7
W8
0
ENDBLK
0
BLOCK
2
PART_BOT_43
8
0
10
0
20
0
3
PART_BOT_43
70
64
0
INSERT
2
SYM_BOT_5
8
0
10
0
20
0
0
INSERT
2
PKG_1
8
0
10
0
20
0
41
-1
0
TEXT
8
LABEL_INFO
10
150
20
-49.9999737533
40
42
1
0 162000000 0 0 0 1
50
90
41
0.75
7
W8
0
TEXT
8
LABEL_ATTRIBUTE
10
150
20
-49.9999737533
40
42
1
Ref.Des.
50
90
41
0.75
7
W8
0
TEXT
8
PART_NAME_29
10
150
20
-49.9999737533
40
42
1
R19
50
90
41
0.75
7
W8
0
TEXT
8
LABEL_INFO
10
-59.0551181102
20
-39.3700787402
40
42
1
0 0 0 2 0 1
73
2
11
-59.0551181102
21
-39.3700787402
41
0.75
7
W8
0
TEXT
8
LABEL_ATTRIBUTE
10
-59.0551181102
20
-39.3700787402
40
42
1
PartType
73
2
11
-59.0551181102
21
-39.3700787402
41
0.75
7
W8
0
TEXT
8
PART_TYPE_29
10
-59.0551181102
20
-39.3700787402
40
42
1
RES-75E-0805-1%-0.125W
73
3
11
-59.0551181102
21
-39.3700787402
41
0.75
7
W8
0
TEXT
8
LABEL_INFO
10
-59.0551181102
20
-19.6850393701
40
42
1
0 0 0 0 0 1
41
0.75
7
W8
0
TEXT
8
LABEL_ATTRIBUTE
10
-59.0551181102
20
-19.6850393701
40
42
1
Ref.Des.
41
0.75
7
W8
0
TEXT
8
PART_NAME_30
10
-59.0551181102
20
-19.6850393701
40
42
1
R19
41
0.75
7
W8
0
TEXT
8
PART_INFO
10
-59.0551181102
20
-79.6850393701
40
42
1
000000
71
2
41
0.75
7
W8
0
TEXT
8
PART_PTS
10
-59.0551181102
20
-139.6850393701
40
42
1
1 2 
71
2
41
0.75
7
W8
0
ENDBLK
0
BLOCK
2
PART_BOT_44
8
0
10
0
20
0
3
PART_BOT_44
70
64
0
INSERT
2
SYM_BOT_5
8
0
10
0
20
0
0
INSERT
2
PKG_1
8
0
10
0
20
0
41
-1
0
TEXT
8
LABEL_INFO
10
150
20
-24.9999737533
40
42
1
0 162000000 0 0 0 1
50
90
41
0.75
7
W8
0
TEXT
8
LABEL_ATTRIBUTE
10
150
20
-24.9999737533
40
42
1
Ref.Des.
50
90
41
0.75
7
W8
0
TEXT
8
PART_NAME_29
10
150
20
-24.9999737533
40
42
1
R20
50
90
41
0.75
7
W8
0
TEXT
8
LABEL_INFO
10
-59.0551181102
20
-39.3700787402
40
42
1
0 0 0 2 0 1
73
2
11
-59.0551181102
21
-39.3700787402
41
0.75
7
W8
0
TEXT
8
LABEL_ATTRIBUTE
10
-59.0551181102
20
-39.3700787402
40
42
1
PartType
73
2
11
-59.0551181102
21
-39.3700787402
41
0.75
7
W8
0
TEXT
8
PART_TYPE_29
10
-59.0551181102
20
-39.3700787402
40
42
1
RES-75E-0805-1%-0.125W
73
3
11
-59.0551181102
21
-39.3700787402
41
0.75
7
W8
0
TEXT
8
LABEL_INFO
10
-59.0551181102
20
-19.6850393701
40
42
1
0 0 0 0 0 1
41
0.75
7
W8
0
TEXT
8
LABEL_ATTRIBUTE
10
-59.0551181102
20
-19.6850393701
40
42
1
Ref.Des.
41
0.75
7
W8
0
TEXT
8
PART_NAME_30
10
-59.0551181102
20
-19.6850393701
40
42
1
R20
41
0.75
7
W8
0
TEXT
8
PART_INFO
10
-59.0551181102
20
-79.6850393701
40
42
1
000000
71
2
41
0.75
7
W8
0
TEXT
8
PART_PTS
10
-59.0551181102
20
-139.6850393701
40
42
1
1 2 
71
2
41
0.75
7
W8
0
ENDBLK
0
BLOCK
2
SYM_BOT_5
8
0
10
0
20
0
3
SYM_BOT_5
70
64
0
TEXT
8
SYM_NAME
10
0
20
0
40
56
1
R0805
41
0.75
0
TEXT
8
SYM_PART_NAME_27
10
-59.0551181102
20
-19.6850393701
40
42
1
 
41
0.75
7
W8R0
0
TEXT
8
SYM_PART_TYPE_26
10
-59.0551181102
20
-39.3700787402
40
42
1
 
73
2
11
-59.0551181102
21
-39.3700787402
41
0.75
7
W8R0
0
TEXT
8
SYM_PART_NAME_26
10
-59.0551181102
20
59.0551181102
40
42
1
 
41
0.75
7
W8R0
0
INSERT
2
PART_BODY_BOT_4
8
0
10
0
20
0
0
INSERT
2
STK_BOT_5
8
0
10
-37.4015748031
20
0
0
TEXT
8
SYM_TERMINAL
10
0
20
-120
40
70
1
1
0
INSERT
2
STK_BOT_5
8
0
10
37.4015748031
20
0
0
TEXT
8
SYM_TERMINAL
10
0
20
-240
40
70
1
2
0
ENDBLK
0
BLOCK
2
PKG_1
8
0
10
0
20
0
3
PKG_1
70
64
0
TEXT
8
PKG_INFO
10
0
20
0
40
70
1
*SYM:= 5
0
TEXT
8
PKG_INFO
10
0
20
-120
40
70
1
*PKG:= 0 RES-75E-0805-1%-0.125W RES
0
TEXT
8
PKG_INFO
10
0
20
-240
40
70
1
*GATE:=1
0
TEXT
8
PKG_INFO
10
0
20
-360
40
70
1
*GATEPIN:= 1 9 1 <>
0
TEXT
8
PKG_INFO
10
0
20
-480
40
70
1
*GATEPIN:= 1 9 2 <>
0
ENDBLK
0
BLOCK
2
SYM_BOT_6
8
0
10
0
20
0
3
SYM_BOT_6
70
64
0
TEXT
8
SYM_NAME
10
0
20
0
40
56
1
C1206
41
0.75
0
TEXT
8
SYM_PART_NAME_26
10
-59.0551181102
20
59.0551181102
40
42
1
 
41
0.75
7
W8R0
0
TEXT
8
SYM_PART_TYPE_26
10
-59.0551181102
20
-49.2125984252
40
42
1
 
73
2
11
-59.0551181102
21
-49.2125984252
41
0.75
7
W8R0
0
TEXT
8
SYM_PART_NAME_27
10
-59.0551181102
20
-19.6850393701
40
42
1
 
41
0.75
7
W8R0
0
INSERT
2
PART_BODY_BOT_5
8
0
10
0
20
0
0
INSERT
2
STK_BOT_6
8
0
10
-55.1181102362
20
0
0
TEXT
8
SYM_TERMINAL
10
0
20
-120
40
70
1
1
0
INSERT
2
STK_BOT_6
8
0
10
55.1181102362
20
0
0
TEXT
8
SYM_TERMINAL
10
0
20
-240
40
70
1
2
0
ENDBLK
0
BLOCK
2
PKG_2
8
0
10
0
20
0
3
PKG_2
70
64
0
TEXT
8
PKG_INFO
10
0
20
0
40
70
1
*SYM:= 6
0
TEXT
8
PKG_INFO
10
0
20
-120
40
70
1
*PKG:= 0 CAPC-1NF-1206-10%-2KV-X7R CAP
0
TEXT
8
PKG_INFO
10
0
20
-240
40
70
1
*GATE:=0
0
TEXT
8
PKG_INFO
10
0
20
-360
40
70
1
*GATEPIN:= 0 9 1 <>
0
TEXT
8
PKG_INFO
10
0
20
-480
40
70
1
*GATEPIN:= 0 9 2 <>
0
ENDBLK
0
BLOCK
2
SYM_BOT_7
8
0
10
0
20
0
3
SYM_BOT_7
70
64
0
TEXT
8
SYM_NAME
10
0
20
0
40
56
1
R1206
41
0.75
0
TEXT
8
SYM_PART_NAME_27
10
-59.0551181102
20
-19.6850393701
40
42
1
 
41
0.75
7
W8R0
0
TEXT
8
SYM_PART_TYPE_26
10
-59.0551181102
20
-49.2125984252
40
42
1
 
73
2
11
-59.0551181102
21
-49.2125984252
41
0.75
7
W8R0
0
TEXT
8
SYM_PART_NAME_26
10
-59.0551181102
20
59.0551181102
40
42
1
 
41
0.75
7
W8R0
0
INSERT
2
PART_BODY_BOT_6
8
0
10
0
20
0
0
INSERT
2
STK_BOT_6
8
0
10
-55.1181102362
20
0
0
TEXT
8
SYM_TERMINAL
10
0
20
-120
40
70
1
1
0
INSERT
2
STK_BOT_6
8
0
10
55.1181102362
20
0
0
TEXT
8
SYM_TERMINAL
10
0
20
-240
40
70
1
2
0
ENDBLK
0
BLOCK
2
PKG_3
8
0
10
0
20
0
3
PKG_3
70
64
0
TEXT
8
PKG_INFO
10
0
20
0
40
70
1
*SYM:= 7
0
TEXT
8
PKG_INFO
10
0
20
-120
40
70
1
*PKG:= 0 RES-1M RES
0
TEXT
8
PKG_INFO
10
0
20
-240
40
70
1
*GATE:=1
0
TEXT
8
PKG_INFO
10
0
20
-360
40
70
1
*GATEPIN:= 1 9 1 <>
0
TEXT
8
PKG_INFO
10
0
20
-480
40
70
1
*GATEPIN:= 1 9 2 <>
0
ENDBLK
0
BLOCK
2
SYM_BOT_9
8
0
10
0
20
0
3
SYM_BOT_9
70
64
0
TEXT
8
SYM_NAME
10
0
20
0
40
56
1
F0805
41
0.75
0
TEXT
8
SYM_PART_NAME_26
10
-59.0551181102
20
59.0551181102
40
42
1
 
41
0.75
7
W8R0
0
TEXT
8
SYM_PART_TYPE_26
10
-59.0551181102
20
-39.3700787402
40
42
1
 
73
2
11
-59.0551181102
21
-39.3700787402
41
0.75
7
W8R0
0
TEXT
8
SYM_PART_NAME_27
10
-59.0551181102
20
-19.6850393701
40
42
1
 
41
0.75
7
W8R0
0
INSERT
2
PART_BODY_BOT_9
8
0
10
0
20
0
0
INSERT
2
STK_BOT_5
8
0
10
-37.4015748031
20
0
0
TEXT
8
SYM_TERMINAL
10
0
20
-120
40
70
1
1
0
INSERT
2
STK_BOT_5
8
0
10
37.4015748031
20
0
0
TEXT
8
SYM_TERMINAL
10
0
20
-240
40
70
1
2
0
ENDBLK
0
BLOCK
2
PKG_5
8
0
10
0
20
0
3
PKG_5
70
64
0
TEXT
8
PKG_INFO
10
0
20
0
40
70
1
*SYM:= 9
0
TEXT
8
PKG_INFO
10
0
20
-120
40
70
1
*PKG:= 0 FB-120E-100MHZ-0805 UND
0
TEXT
8
PKG_INFO
10
0
20
-240
40
70
1
*GATE:=0
0
TEXT
8
PKG_INFO
10
0
20
-360
40
70
1
*GATEPIN:= 0 9 1 <>
0
TEXT
8
PKG_INFO
10
0
20
-480
40
70
1
*GATEPIN:= 0 9 2 <>
0
ENDBLK
0
BLOCK
2
SYM_BOT_4
8
0
10
0
20
0
3
SYM_BOT_4
70
64
0
TEXT
8
SYM_NAME
10
0
20
0
40
56
1
C0805
41
0.75
0
TEXT
8
SYM_PART_NAME_26
10
-59.0551181102
20
59.0551181102
40
42
1
 
41
0.75
7
W8R0
0
TEXT
8
SYM_PART_TYPE_26
10
-59.0551181102
20
-39.3700787402
40
42
1
 
73
2
11
-59.0551181102
21
-39.3700787402
41
0.75
7
W8R0
0
TEXT
8
SYM_PART_NAME_27
10
-59.0551181102
20
-19.6850393701
40
42
1
 
41
0.75
7
W8R0
0
INSERT
2
PART_BODY_BOT_3
8
0
10
0
20
0
0
INSERT
2
STK_BOT_5
8
0
10
-37.4015748031
20
0
0
TEXT
8
SYM_TERMINAL
10
0
20
-120
40
70
1
1
0
INSERT
2
STK_BOT_5
8
0
10
37.4015748031
20
0
0
TEXT
8
SYM_TERMINAL
10
0
20
-240
40
70
1
2
0
ENDBLK
0
BLOCK
2
PKG_8
8
0
10
0
20
0
3
PKG_8
70
64
0
TEXT
8
PKG_INFO
10
0
20
0
40
70
1
*SYM:= 4
0
TEXT
8
PKG_INFO
10
0
20
-120
40
70
1
*PKG:= 0 CAPC-0.01UF-0805-5%-50V-X7R CAP
0
TEXT
8
PKG_INFO
10
0
20
-240
40
70
1
*GATE:=0
0
TEXT
8
PKG_INFO
10
0
20
-360
40
70
1
*GATEPIN:= 0 9 1 <>
0
TEXT
8
PKG_INFO
10
0
20
-480
40
70
1
*GATEPIN:= 0 9 2 <>
0
ENDBLK
0
BLOCK
2
PKG_9
8
0
10
0
20
0
3
PKG_9
70
64
0
TEXT
8
PKG_INFO
10
0
20
0
40
70
1
*SYM:= 4
0
TEXT
8
PKG_INFO
10
0
20
-120
40
70
1
*PKG:= 0 CAP_4.7UF_25V_0803 CAP
0
TEXT
8
PKG_INFO
10
0
20
-240
40
70
1
*GATE:=1
0
TEXT
8
PKG_INFO
10
0
20
-360
40
70
1
*GATEPIN:= 0 1 1 <>
0
TEXT
8
PKG_INFO
10
0
20
-480
40
70
1
*GATEPIN:= 0 1 2 <>
0
ENDBLK
0
BLOCK
2
PART_BODY_BOT_4
8
0
10
0
20
0
3
PART_BODY_BOT_4
70
64
0
POLYLINE
8
PART_BOT_2DLINE_26
66
1
40
8
41
8
0
VERTEX
8
PART_BOT_2DLINE_26
10
-78.7401574803
20
-39.3700787402
0
VERTEX
8
PART_BOT_2DLINE_26
10
78.7401574803
20
-39.3700787402
0
VERTEX
8
PART_BOT_2DLINE_26
10
78.7401574803
20
39.3700787402
0
VERTEX
8
PART_BOT_2DLINE_26
10
-78.7401574803
20
39.3700787402
0
VERTEX
8
PART_BOT_2DLINE_26
10
-78.7401574803
20
-39.3700787402
0
SEQEND
0
INSERT
2
SMOOTH_8
8
PART_BOT_2DLINE_26
10
-78.7401574803
20
-39.3700787402
0
INSERT
2
SMOOTH_8
8
PART_BOT_2DLINE_26
10
78.7401574803
20
-39.3700787402
0
INSERT
2
SMOOTH_8
8
PART_BOT_2DLINE_26
10
78.7401574803
20
39.3700787402
0
INSERT
2
SMOOTH_8
8
PART_BOT_2DLINE_26
10
-78.7401574803
20
39.3700787402
0
INSERT
2
SMOOTH_8
8
PART_BOT_2DLINE_26
10
-78.7401574803
20
-39.3700787402
0
POLYLINE
8
PART_BOT_2DLINE_27
66
1
40
8
41
8
0
VERTEX
8
PART_BOT_2DLINE_27
10
-78.7401574803
20
-39.3700787402
0
VERTEX
8
PART_BOT_2DLINE_27
10
78.7401574803
20
-39.3700787402
0
VERTEX
8
PART_BOT_2DLINE_27
10
78.7401574803
20
39.3700787402
0
VERTEX
8
PART_BOT_2DLINE_27
10
-78.7401574803
20
39.3700787402
0
VERTEX
8
PART_BOT_2DLINE_27
10
-78.7401574803
20
-39.3700787402
0
SEQEND
0
INSERT
2
SMOOTH_8
8
PART_BOT_2DLINE_27
10
-78.7401574803
20
-39.3700787402
0
INSERT
2
SMOOTH_8
8
PART_BOT_2DLINE_27
10
78.7401574803
20
-39.3700787402
0
INSERT
2
SMOOTH_8
8
PART_BOT_2DLINE_27
10
78.7401574803
20
39.3700787402
0
INSERT
2
SMOOTH_8
8
PART_BOT_2DLINE_27
10
-78.7401574803
20
39.3700787402
0
INSERT
2
SMOOTH_8
8
PART_BOT_2DLINE_27
10
-78.7401574803
20
-39.3700787402
0
ENDBLK
0
BLOCK
2
STK_BOT_5
8
0
10
0
20
0
3
STK_BOT_5
70
64
0
INSERT
2
DRIL_HOLE_0
8
DRIL_PLTE_THRU_01
10
0
20
0
0
INSERT
2
DRIL_HOLE_0
8
DRIL_PLTE_THRU_02
10
0
20
0
0
INSERT
2
DRIL_HOLE_0
8
DRIL_PLTE_THRU_03
10
0
20
0
0
INSERT
2
DRIL_HOLE_0
8
DRIL_PLTE_THRU_04
10
0
20
0
0
INSERT
2
PAD_0
8
PADS_INNER
10
0
20
0
0
INSERT
2
PAD_1
8
PADS_BOT
10
0
20
0
50
90
0
INSERT
2
PAD_0
8
PADS_TOP
10
0
20
0
0
ENDBLK
0
BLOCK
2
PART_BODY_BOT_5
8
0
10
0
20
0
3
PART_BODY_BOT_5
70
64
0
POLYLINE
8
PART_BOT_2DLINE_26
66
1
40
8
41
8
0
VERTEX
8
PART_BOT_2DLINE_26
10
-98.4251968504
20
-43.3070866142
0
VERTEX
8
PART_BOT_2DLINE_26
10
98.4251968504
20
-43.3070866142
0
VERTEX
8
PART_BOT_2DLINE_26
10
98.4251968504
20
43.3070866142
0
VERTEX
8
PART_BOT_2DLINE_26
10
-98.4251968504
20
43.3070866142
0
VERTEX
8
PART_BOT_2DLINE_26
10
-98.4251968504
20
-43.3070866142
0
SEQEND
0
INSERT
2
SMOOTH_8
8
PART_BOT_2DLINE_26
10
-98.4251968504
20
-43.3070866142
0
INSERT
2
SMOOTH_8
8
PART_BOT_2DLINE_26
10
98.4251968504
20
-43.3070866142
0
INSERT
2
SMOOTH_8
8
PART_BOT_2DLINE_26
10
98.4251968504
20
43.3070866142
0
INSERT
2
SMOOTH_8
8
PART_BOT_2DLINE_26
10
-98.4251968504
20
43.3070866142
0
INSERT
2
SMOOTH_8
8
PART_BOT_2DLINE_26
10
-98.4251968504
20
-43.3070866142
0
POLYLINE
8
PART_BOT_2DLINE_27
66
1
40
8
41
8
0
VERTEX
8
PART_BOT_2DLINE_27
10
-98.4251968504
20
-43.3070866142
0
VERTEX
8
PART_BOT_2DLINE_27
10
98.4251968504
20
-43.3070866142
0
VERTEX
8
PART_BOT_2DLINE_27
10
98.4251968504
20
43.3070866142
0
VERTEX
8
PART_BOT_2DLINE_27
10
-98.4251968504
20
43.3070866142
0
VERTEX
8
PART_BOT_2DLINE_27
10
-98.4251968504
20
-43.3070866142
0
SEQEND
0
INSERT
2
SMOOTH_8
8
PART_BOT_2DLINE_27
10
-98.4251968504
20
-43.3070866142
0
INSERT
2
SMOOTH_8
8
PART_BOT_2DLINE_27
10
98.4251968504
20
-43.3070866142
0
INSERT
2
SMOOTH_8
8
PART_BOT_2DLINE_27
10
98.4251968504
20
43.3070866142
0
INSERT
2
SMOOTH_8
8
PART_BOT_2DLINE_27
10
-98.4251968504
20
43.3070866142
0
INSERT
2
SMOOTH_8
8
PART_BOT_2DLINE_27
10
-98.4251968504
20
-43.3070866142
0
ENDBLK
0
BLOCK
2
STK_BOT_6
8
0
10
0
20
0
3
STK_BOT_6
70
64
0
INSERT
2
DRIL_HOLE_0
8
DRIL_PLTE_THRU_01
10
0
20
0
0
INSERT
2
DRIL_HOLE_0
8
DRIL_PLTE_THRU_02
10
0
20
0
0
INSERT
2
DRIL_HOLE_0
8
DRIL_PLTE_THRU_03
10
0
20
0
0
INSERT
2
DRIL_HOLE_0
8
DRIL_PLTE_THRU_04
10
0
20
0
0
INSERT
2
PAD_0
8
PADS_INNER
10
0
20
0
0
INSERT
2
PAD_2
8
PADS_BOT
10
0
20
0
50
90
0
INSERT
2
PAD_0
8
PADS_TOP
10
0
20
0
0
ENDBLK
0
BLOCK
2
PART_BODY_BOT_6
8
0
10
0
20
0
3
PART_BODY_BOT_6
70
64
0
POLYLINE
8
PART_BOT_2DLINE_26
66
1
40
8
41
8
0
VERTEX
8
PART_BOT_2DLINE_26
10
-98.4251968504
20
-43.3070866142
0
VERTEX
8
PART_BOT_2DLINE_26
10
98.4251968504
20
-43.3070866142
0
VERTEX
8
PART_BOT_2DLINE_26
10
98.4251968504
20
43.3070866142
0
VERTEX
8
PART_BOT_2DLINE_26
10
-98.4251968504
20
43.3070866142
0
VERTEX
8
PART_BOT_2DLINE_26
10
-98.4251968504
20
-43.3070866142
0
SEQEND
0
INSERT
2
SMOOTH_8
8
PART_BOT_2DLINE_26
10
-98.4251968504
20
-43.3070866142
0
INSERT
2
SMOOTH_8
8
PART_BOT_2DLINE_26
10
98.4251968504
20
-43.3070866142
0
INSERT
2
SMOOTH_8
8
PART_BOT_2DLINE_26
10
98.4251968504
20
43.3070866142
0
INSERT
2
SMOOTH_8
8
PART_BOT_2DLINE_26
10
-98.4251968504
20
43.3070866142
0
INSERT
2
SMOOTH_8
8
PART_BOT_2DLINE_26
10
-98.4251968504
20
-43.3070866142
0
POLYLINE
8
PART_BOT_2DLINE_27
66
1
40
8
41
8
0
VERTEX
8
PART_BOT_2DLINE_27
10
-98.4251968504
20
-43.3070866142
0
VERTEX
8
PART_BOT_2DLINE_27
10
98.4251968504
20
-43.3070866142
0
VERTEX
8
PART_BOT_2DLINE_27
10
98.4251968504
20
43.3070866142
0
VERTEX
8
PART_BOT_2DLINE_27
10
-98.4251968504
20
43.3070866142
0
VERTEX
8
PART_BOT_2DLINE_27
10
-98.4251968504
20
-43.3070866142
0
SEQEND
0
INSERT
2
SMOOTH_8
8
PART_BOT_2DLINE_27
10
-98.4251968504
20
-43.3070866142
0
INSERT
2
SMOOTH_8
8
PART_BOT_2DLINE_27
10
98.4251968504
20
-43.3070866142
0
INSERT
2
SMOOTH_8
8
PART_BOT_2DLINE_27
10
98.4251968504
20
43.3070866142
0
INSERT
2
SMOOTH_8
8
PART_BOT_2DLINE_27
10
-98.4251968504
20
43.3070866142
0
INSERT
2
SMOOTH_8
8
PART_BOT_2DLINE_27
10
-98.4251968504
20
-43.3070866142
0
ENDBLK
0
BLOCK
2
PART_BODY_BOT_9
8
0
10
0
20
0
3
PART_BODY_BOT_9
70
64
0
POLYLINE
8
PART_BOT_2DLINE_26
66
1
40
8
41
8
0
VERTEX
8
PART_BOT_2DLINE_26
10
-78.7401574803
20
-39.3700787402
0
VERTEX
8
PART_BOT_2DLINE_26
10
78.7401574803
20
-39.3700787402
0
VERTEX
8
PART_BOT_2DLINE_26
10
78.7401574803
20
39.3700787402
0
VERTEX
8
PART_BOT_2DLINE_26
10
-78.7401574803
20
39.3700787402
0
VERTEX
8
PART_BOT_2DLINE_26
10
-78.7401574803
20
-39.3700787402
0
SEQEND
0
INSERT
2
SMOOTH_8
8
PART_BOT_2DLINE_26
10
-78.7401574803
20
-39.3700787402
0
INSERT
2
SMOOTH_8
8
PART_BOT_2DLINE_26
10
78.7401574803
20
-39.3700787402
0
INSERT
2
SMOOTH_8
8
PART_BOT_2DLINE_26
10
78.7401574803
20
39.3700787402
0
INSERT
2
SMOOTH_8
8
PART_BOT_2DLINE_26
10
-78.7401574803
20
39.3700787402
0
INSERT
2
SMOOTH_8
8
PART_BOT_2DLINE_26
10
-78.7401574803
20
-39.3700787402
0
POLYLINE
8
PART_BOT_2DLINE_27
66
1
40
8
41
8
0
VERTEX
8
PART_BOT_2DLINE_27
10
-78.7401574803
20
-39.3700787402
0
VERTEX
8
PART_BOT_2DLINE_27
10
78.7401574803
20
-39.3700787402
0
VERTEX
8
PART_BOT_2DLINE_27
10
78.7401574803
20
39.3700787402
0
VERTEX
8
PART_BOT_2DLINE_27
10
-78.7401574803
20
39.3700787402
0
VERTEX
8
PART_BOT_2DLINE_27
10
-78.7401574803
20
-39.3700787402
0
SEQEND
0
INSERT
2
SMOOTH_8
8
PART_BOT_2DLINE_27
10
-78.7401574803
20
-39.3700787402
0
INSERT
2
SMOOTH_8
8
PART_BOT_2DLINE_27
10
78.7401574803
20
-39.3700787402
0
INSERT
2
SMOOTH_8
8
PART_BOT_2DLINE_27
10
78.7401574803
20
39.3700787402
0
INSERT
2
SMOOTH_8
8
PART_BOT_2DLINE_27
10
-78.7401574803
20
39.3700787402
0
INSERT
2
SMOOTH_8
8
PART_BOT_2DLINE_27
10
-78.7401574803
20
-39.3700787402
0
ENDBLK
0
BLOCK
2
PART_BODY_BOT_3
8
0
10
0
20
0
3
PART_BODY_BOT_3
70
64
0
POLYLINE
8
PART_BOT_2DLINE_26
66
1
40
8
41
8
0
VERTEX
8
PART_BOT_2DLINE_26
10
-78.7401574803
20
-39.3700787402
0
VERTEX
8
PART_BOT_2DLINE_26
10
78.7401574803
20
-39.3700787402
0
VERTEX
8
PART_BOT_2DLINE_26
10
78.7401574803
20
39.3700787402
0
VERTEX
8
PART_BOT_2DLINE_26
10
-78.7401574803
20
39.3700787402
0
VERTEX
8
PART_BOT_2DLINE_26
10
-78.7401574803
20
-39.3700787402
0
SEQEND
0
INSERT
2
SMOOTH_8
8
PART_BOT_2DLINE_26
10
-78.7401574803
20
-39.3700787402
0
INSERT
2
SMOOTH_8
8
PART_BOT_2DLINE_26
10
78.7401574803
20
-39.3700787402
0
INSERT
2
SMOOTH_8
8
PART_BOT_2DLINE_26
10
78.7401574803
20
39.3700787402
0
INSERT
2
SMOOTH_8
8
PART_BOT_2DLINE_26
10
-78.7401574803
20
39.3700787402
0
INSERT
2
SMOOTH_8
8
PART_BOT_2DLINE_26
10
-78.7401574803
20
-39.3700787402
0
POLYLINE
8
PART_BOT_2DLINE_27
66
1
40
8
41
8
0
VERTEX
8
PART_BOT_2DLINE_27
10
-78.7401574803
20
-39.3700787402
0
VERTEX
8
PART_BOT_2DLINE_27
10
78.7401574803
20
-39.3700787402
0
VERTEX
8
PART_BOT_2DLINE_27
10
78.7401574803
20
39.3700787402
0
VERTEX
8
PART_BOT_2DLINE_27
10
-78.7401574803
20
39.3700787402
0
VERTEX
8
PART_BOT_2DLINE_27
10
-78.7401574803
20
-39.3700787402
0
SEQEND
0
INSERT
2
SMOOTH_8
8
PART_BOT_2DLINE_27
10
-78.7401574803
20
-39.3700787402
0
INSERT
2
SMOOTH_8
8
PART_BOT_2DLINE_27
10
78.7401574803
20
-39.3700787402
0
INSERT
2
SMOOTH_8
8
PART_BOT_2DLINE_27
10
78.7401574803
20
39.3700787402
0
INSERT
2
SMOOTH_8
8
PART_BOT_2DLINE_27
10
-78.7401574803
20
39.3700787402
0
INSERT
2
SMOOTH_8
8
PART_BOT_2DLINE_27
10
-78.7401574803
20
-39.3700787402
0
ENDBLK
999
*** POWERPCB  PCB PARAMETER ***
0
BLOCK
2
PCB_PARAMS
8
0
10
0
20
0
3
PCB_PARAMS
70
64
999
 *  1.Job name           2.Backupfile name       3.CursorType
999
 *  4.TearDropFlag       5.HighlighNetsFlag      6.HatchDisplayFlag
999
 *  7.PadsFlag           8.TracksFlag            9.ViasFlag
999
 * 10.CopperFlag        11.LinesFlag            12.TextFlag
999
 * 13.TopComponentFlag  14.BottomComponentFlag
0
TEXT
8
PCB_PARAMS
10
0
20
-120
40
70
1
A:=CCCNGP_EEC_REV10.pcb <> 0 1 1 1 1 0 0 0 1 1 0 1 0
999
 *  1.RefDesHeight       2.RefDesWidth           3.DefaultWidth
999
 *  4.VGX                5.VGY                   6.OVR
999
 *  7.HatchGrid
0
TEXT
8
PCB_PARAMS
10
0
20
-240
40
70
1
B:=80 10 10 5 5 3 3
999
 *  1.ScaleFactor        2.NetAttributeFlags     3.BackupInterval
999
 *  4.WorkingLevel       5.HatchMode             6.HatchDirection
999
 *  7.ConnectionColor    8.BackgroundColor       9.ForegroundColor
999
 * 10.BoardOutlineColor
0
TEXT
8
PCB_PARAMS
10
0
20
-360
40
70
1
C:=4.3222131729 10002 3 1 0 0 9 0 15 15
999
 * MitreAngle0 - MitreAngle6
0
TEXT
8
PCB_PARAMS
10
0
20
-480
40
70
1
D:=324000000 324000000 324000000 324000000 324000000 324000000 324000000
999
 * Hatch & Keepout Parameters
0
TEXT
8
PCB_PARAMS
10
0
20
-600
40
70
1
E:=0.5 0 0 100 0 0
999
 * Fanout Parameters
0
TEXT
8
PCB_PARAMS
10
0
20
-720
40
70
1
F:=0.01 0.01 250 1 2 0 1 1 0 0 1 1 1 1
999
 * Pad Entry Parameters
0
TEXT
8
PCB_PARAMS
10
0
20
-840
40
70
1
P:= 1 1 1 1
999
 * DFF Parameters
0
TEXT
8
PCB_PARAMS
10
0
20
-960
40
70
1
Q:=45 3587 114300 114300 114300 5 4 114300 114300 114300 114300 1 114300 1 114300 1 114300 0
0
ENDBLK
0
BLOCK
2
DRIL_SYMBOL_0
8
0
10
0
20
0
3
DRIL_SYMBOL_0
70
64
0
ENDBLK
999
*** POWERPCB  SMOOTH CIRCLE ***
0
BLOCK
2
SMOOTH_1
8
0
10
0
20
0
3
SMOOTH_1
70
64
0
POLYLINE
8
0
66
1
40
0.5
41
0.5
70
1
0
VERTEX
8
0
10
-0.25
20
0
42
1
0
VERTEX
8
0
10
0.25
20
0
42
1
0
SEQEND
0
ENDBLK
0
BLOCK
2
SMOOTH_8
8
0
10
0
20
0
3
SMOOTH_8
70
64
0
POLYLINE
8
0
66
1
40
4
41
4
70
1
0
VERTEX
8
0
10
-2
20
0
42
1
0
VERTEX
8
0
10
2
20
0
42
1
0
SEQEND
0
ENDBLK
0
BLOCK
2
PAD_0
8
0
10
0
20
0
3
PAD_0
70
64
0
POLYLINE
8
0
70
1
66
1
0
VERTEX
8
0
10
0
20
0
42
1
0
VERTEX
8
0
10
0
20
0
42
1
0
SEQEND
0
ENDBLK
0
BLOCK
2
PAD_1
8
0
10
0
20
0
3
PAD_1
70
64
0
POLYLINE
8
0
66
1
40
52
41
52
0
VERTEX
8
0
10
-30
20
0
0
VERTEX
8
0
10
30
20
0
0
SEQEND
0
ENDBLK
0
BLOCK
2
PAD_2
8
0
10
0
20
0
3
PAD_2
70
64
0
POLYLINE
8
0
66
1
40
63
41
63
0
VERTEX
8
0
10
-35.5
20
0
0
VERTEX
8
0
10
35.5
20
0
0
SEQEND
0
ENDBLK
999
*** POWERPCB  DRILL HOLE ***
0
BLOCK
2
DRIL_HOLE_0
8
0
10
0
20
0
3
DRIL_HOLE_0
70
64
0
POLYLINE
8
0
66
1
70
1
0
VERTEX
8
0
10
0
20
0
42
1
0
VERTEX
8
0
10
0
20
0
42
1
0
SEQEND
0
INSERT
2
DRIL_SYMBOL_0
8
0
10
0
20
0
0
ENDBLK
0
ENDSEC
0
SECTION
2
ENTITIES
999
*** POWERPCB  DBLAYER ***
0
INSERT
2
DBLAYERS
8
0
10
0
20
0
999
*** POWERPCB  BOARD ***
0
INSERT
2
BOARD_1
8
0
10
-0.0316535433
20
-0.0533858268
999
*** POWERPCB  COMPONENT ***
0
INSERT
2
PART_BOT_1
8
0
10
725
20
725
50
-270
41
-1
0
INSERT
2
PART_BOT_2
8
0
10
425
20
725
50
-270
41
-1
0
INSERT
2
PART_BOT_3
8
0
10
525
20
700
50
-270
41
-1
0
INSERT
2
PART_BOT_4
8
0
10
625
20
700
50
-90
41
-1
0
INSERT
2
PART_BOT_6
8
0
10
2825
20
725
50
-270
41
-1
0
INSERT
2
PART_BOT_7
8
0
10
2525
20
725
50
-270
41
-1
0
INSERT
2
PART_BOT_8
8
0
10
2725
20
700
50
-270
41
-1
0
INSERT
2
PART_BOT_9
8
0
10
2625
20
700
50
-90
41
-1
0
INSERT
2
PART_BOT_11
8
0
10
1425
20
725
50
-270
41
-1
0
INSERT
2
PART_BOT_12
8
0
10
1125
20
725
50
-270
41
-1
0
INSERT
2
PART_BOT_13
8
0
10
1225
20
700
50
-270
41
-1
0
INSERT
2
PART_BOT_14
8
0
10
1325
20
700
50
-90
41
-1
0
INSERT
2
PART_BOT_16
8
0
10
2125
20
725
50
-270
41
-1
0
INSERT
2
PART_BOT_17
8
0
10
1825
20
725
50
-270
41
-1
0
INSERT
2
PART_BOT_18
8
0
10
1925
20
700
50
-270
41
-1
0
INSERT
2
PART_BOT_19
8
0
10
2025
20
700
50
-90
41
-1
0
INSERT
2
PART_BOT_22
8
0
10
575
20
2025
50
-180
41
-1
0
INSERT
2
PART_BOT_25
8
0
10
750
20
1450
50
-180
41
-1
0
INSERT
2
PART_BOT_26
8
0
10
2150
20
1450
50
-180
41
-1
0
INSERT
2
PART_BOT_27
8
0
10
1800
20
1450
41
-1
0
INSERT
2
PART_BOT_28
8
0
10
1284.8714173228
20
2229.2870866142
50
-90
41
-1
0
INSERT
2
PART_BOT_32
8
0
10
425
20
1450
41
-1
0
INSERT
2
PART_BOT_33
8
0
10
2500
20
1450
41
-1
0
INSERT
2
PART_BOT_34
8
0
10
2850
20
1450
50
-180
41
-1
0
INSERT
2
PART_BOT_35
8
0
10
1100
20
1450
41
-1
0
INSERT
2
PART_BOT_36
8
0
10
1450
20
1450
50
-180
41
-1
0
INSERT
2
PART_BOT_37
8
0
10
425
20
500
50
-270
41
-1
0
INSERT
2
PART_BOT_38
8
0
10
325
20
500
50
-270
41
-1
0
INSERT
2
PART_BOT_39
8
0
10
2475
20
500
50
-270
41
-1
0
INSERT
2
PART_BOT_40
8
0
10
2375
20
500
50
-270
41
-1
0
INSERT
2
PART_BOT_41
8
0
10
1075
20
500
50
-270
41
-1
0
INSERT
2
PART_BOT_42
8
0
10
975
20
500
50
-270
41
-1
0
INSERT
2
PART_BOT_43
8
0
10
1825
20
500
50
-270
41
-1
0
INSERT
2
PART_BOT_44
8
0
10
1725
20
500
50
-270
41
-1
999
*** POWERPCB  PCB PARAMETER ***
0
INSERT
2
PCB_PARAMS
8
0
10
0
20
0
0
ENDSEC
0
EOF
