0
SECTION
2
HEADER
999
*** POWERPCB  HEADER ***
9
$EXTMIN
10
-0.013504
20
-3.305
9
$EXTMAX
10
452.701488
20
457.2471933333
9
$FILLMODE
70
0
9
$GRIDMODE
70
1
9
$GRIDUNIT
10
5.08
20
5.08
9
$INSBASE
10
-436.0671973333
20
-453.237618
9
$LIMCHECK
70
0
9
$PLINEWID
40
0.0254
9
$SNAPMODE
70
1
9
$SNAPUNIT
10
0.127
20
0.127
9
$TEXTSIZE
40
1.524
9
$TEXTSTYLE
7
W0$127
9
$USERI1
70
101
9
$USERI2
70
0
9
$USERI5
70
150
9
$VIEWCTR
10
46.8637973333
20
41.932336
0
ENDSEC
0
SECTION
2
TABLES
999
*** POWERPCB  LTYPE ***
0
TABLE
2
LTYPE
70
1
0
LTYPE
2
CONTINUOUS
70
64
3
---
72
65
73
0
40
0
0
LTYPE
2
KEEPOUT_00011110$0
70
64
3
---
72
65
73
2
40
2
49
1
49
1
0
ENDTAB
999
*** POWERPCB  LAYER ***
0
TABLE
2
LAYER
70
44
0
LAYER
2
DBLAYERS
70
1
62
-255
6
CONTINUOUS
0
LAYER
2
BOARD_OUTLINE_00
70
0
62
255
6
CONTINUOUS
0
LAYER
2
LABEL_INFO
70
1
62
-255
6
CONTINUOUS
0
LAYER
2
LABEL_ATTRIBUTE
70
1
62
-255
6
CONTINUOUS
0
LAYER
2
PART_NAME_27
70
1
62
-250
6
CONTINUOUS
0
LAYER
2
PART_TYPE_26
70
1
62
-250
6
CONTINUOUS
0
LAYER
2
PART_NAME_26
70
0
62
4
6
CONTINUOUS
0
LAYER
2
PART_INFO
70
1
62
-255
6
CONTINUOUS
0
LAYER
2
PART_PTS
70
1
62
-255
6
CONTINUOUS
0
LAYER
2
PART_TYPE_01
70
1
62
-250
6
CONTINUOUS
0
LAYER
2
PART_NAME_TOP
70
1
62
-250
6
CONTINUOUS
0
LAYER
2
SYM_NAME
70
1
62
-255
6
CONTINUOUS
0
LAYER
2
SYM_PART_NAME_27
70
1
62
-255
6
CONTINUOUS
0
LAYER
2
SYM_PART_TYPE_26
70
1
62
-255
6
CONTINUOUS
0
LAYER
2
SYM_PART_NAME_26
70
1
62
-255
6
CONTINUOUS
0
LAYER
2
SYM_TERMINAL
70
1
62
-255
6
CONTINUOUS
0
LAYER
2
PKG_INFO
70
1
62
-255
6
CONTINUOUS
0
LAYER
2
SYM_PART_TYPE_01
70
1
62
-255
6
CONTINUOUS
0
LAYER
2
SYM_PART_NAME_01
70
1
62
-255
6
CONTINUOUS
0
LAYER
2
PART_TOP_2DLINE_27
70
1
62
-2
6
CONTINUOUS
0
LAYER
2
PART_TOP_2DLINE_26
70
0
62
1
6
CONTINUOUS
0
LAYER
2
PART_TOP_2DLINE_25
70
1
62
-56
6
CONTINUOUS
0
LAYER
2
PART_TOP_2DLINE_20
70
1
62
-250
6
CONTINUOUS
0
LAYER
2
DRIL_NPLTE_THRU_01
70
0
62
3
6
CONTINUOUS
0
LAYER
2
DRIL_NPLTE_THRU_02
70
1
62
-2
6
CONTINUOUS
0
LAYER
2
DRIL_NPLTE_THRU_03
70
1
62
-2
6
CONTINUOUS
0
LAYER
2
DRIL_NPLTE_THRU_04
70
1
62
-1
6
CONTINUOUS
0
LAYER
2
PADS_INNER
70
0
62
96
6
CONTINUOUS
0
LAYER
2
PADS_BOT
70
1
62
-23
6
CONTINUOUS
0
LAYER
2
PADS_XR_21
70
1
62
-56
6
CONTINUOUS
0
LAYER
2
PADS_XR_23
70
1
62
-4
6
CONTINUOUS
0
LAYER
2
PADS_XR_27
70
1
62
-2
6
CONTINUOUS
0
LAYER
2
PADS_TOP
70
0
62
96
6
CONTINUOUS
0
LAYER
2
DRIL_PLTE_THRU_01
70
0
62
3
6
CONTINUOUS
0
LAYER
2
DRIL_PLTE_THRU_02
70
1
62
-2
6
CONTINUOUS
0
LAYER
2
DRIL_PLTE_THRU_03
70
1
62
-2
6
CONTINUOUS
0
LAYER
2
DRIL_PLTE_THRU_04
70
1
62
-1
6
CONTINUOUS
0
LAYER
2
PART_TOP_TEXT_26
70
0
62
1
6
CONTINUOUS
0
LAYER
2
KEEPOUT_01
70
1
62
-186
6
CONTINUOUS
0
LAYER
2
KEEPOUT_-1
70
0
62
255
6
CONTINUOUS
0
LAYER
2
PADS_XR_22
70
1
62
-6
6
CONTINUOUS
0
LAYER
2
PADS_XR_28
70
1
62
-4
6
CONTINUOUS
0
LAYER
2
PCB_PARAMS
70
1
62
-255
6
CONTINUOUS
0
LAYER
2
DRIL_SYMBOL
70
0
62
255
6
CONTINUOUS
0
ENDTAB
999
*** POWERPCB  TEXT STYLE ***
0
TABLE
2
STYLE
70
9
0
STYLE
2
W0$15
70
64
40
0
41
0.75
42
0
50
0
71
0
3
simplex
0
STYLE
2
W0$127
70
64
40
0
41
0.75
42
0
50
0
71
0
3
simplex
0
STYLE
2
W0$2032
70
64
40
0
41
0.75
42
0
50
0
71
0
3
simplex
0
STYLE
2
W0$1524
70
64
40
0
41
0.75
42
0
50
0
71
0
3
simplex
0
STYLE
2
W0$254
70
64
40
0
41
0.75
42
0
50
0
71
0
3
simplex
0
STYLE
2
W0$15R1
70
64
40
0
41
0.75
42
0
50
0
71
0
3
simplex
0
STYLE
2
W0$2032R0
70
64
40
0
41
0.75
42
0
50
0
71
0
3
simplex
0
STYLE
2
W0$127R0
70
64
40
0
41
0.75
42
0
50
0
71
0
3
simplex
0
STYLE
2
W0$1524R0
70
64
40
0
41
0.75
42
0
50
0
71
0
3
simplex
0
ENDTAB
0
ENDSEC
0
SECTION
2
BLOCKS
999
*** POWERPCB  DBLAYER ***
0
BLOCK
2
DBLAYERS
8
0
10
0
20
0
3
DBLAYERS
70
64
0
TEXT
8
DBLAYERS
10
0
20
-3.048
40
1.778
1
__It__Is__Job__Name__:=CCCNGP_EEC_REV1 0.pcb
999
 *  1.Number             2.Type                  3.RouteColor
999
 *  4.ViaColor           5.PadColor              6.CopperColor
999
 *  7.2DLineColor        8.TextColor             9.ErrorColor
999
 * 10.TopComponentColor 11.BottomComponentColor 12.RoutingDirection
999
 * 13.LayerThickness    14.CopperThickness      15.Dielectric
999
 * 16.IsRouteable       17.IsVisible            18.IsSelectable
999
 * 19.IsPrepreg         20.AssSilkScreen        21.AssPasteMask
999
 * 22.AssSolderMask     23.AssAssembly
0
TEXT
8
DBLAYERS
10
0
20
-6.096
40
1.778
1
Top:=1 1 10 2 2 10 10 10 13 20 0 0 381000 51435 4.3000001907 1 1 1 0 26 23 21 27 0 0 1 12 0 0 17 
0
TEXT
8
DBLAYERS
10
0
20
-9.144
40
1.778
1
Silkscreen Top:=26 3 12 12 12 12 12 12 12 12 12 2 0 0 3.2999999523 0 1 1 0 -1 -1 -1 -1 0 0 0 11 0 0 0 
0
ENDBLK
999
*** POWERPCB  BOARD ***
0
BLOCK
2
BOARD_1
8
0
10
0
20
0
3
BOARD_1
70
64
0
POLYLINE
8
BOARD_OUTLINE_00
66
1
40
0.0254
41
0.0254
70
1
0
VERTEX
8
BOARD_OUTLINE_00
10
0
20
0.0012326667
0
VERTEX
8
BOARD_OUTLINE_00
10
0
20
66.039314
0
VERTEX
8
BOARD_OUTLINE_00
10
2.5400346667
20
68.579348
0
VERTEX
8
BOARD_OUTLINE_00
10
78.7355573333
20
68.579348
0
VERTEX
8
BOARD_OUTLINE_00
10
81.2779313333
20
66.036974
0
VERTEX
8
BOARD_OUTLINE_00
10
81.2779313333
20
0.0012326667
0
SEQEND
0
INSERT
2
SMOOTH_0$0254
8
BOARD_OUTLINE_00
10
0
20
0.0012326667
0
INSERT
2
SMOOTH_0$0254
8
BOARD_OUTLINE_00
10
0
20
66.039314
0
INSERT
2
SMOOTH_0$0254
8
BOARD_OUTLINE_00
10
2.5400346667
20
68.579348
0
INSERT
2
SMOOTH_0$0254
8
BOARD_OUTLINE_00
10
78.7355573333
20
68.579348
0
INSERT
2
SMOOTH_0$0254
8
BOARD_OUTLINE_00
10
81.2779313333
20
66.036974
0
INSERT
2
SMOOTH_0$0254
8
BOARD_OUTLINE_00
10
81.2779313333
20
0.0012326667
0
ENDBLK
999
*** POWERPCB  COMPONENT ***
0
BLOCK
2
PART_TOP_0
8
0
10
0
20
0
3
PART_TOP_0
70
64
0
INSERT
2
SYM_TOP_3
8
0
10
0
20
0
0
INSERT
2
PKG_0
8
0
10
0
20
0
0
TEXT
8
LABEL_INFO
10
0
20
0
40
1.05
1
1 162000000 1 1 0 1
72
1
73
1
11
0
21
0
50
90
41
0.75
7
W0$15
0
TEXT
8
LABEL_ATTRIBUTE
10
0
20
0
40
1.05
1
Ref.Des.
72
1
73
1
11
0
21
0
50
90
41
0.75
7
W0$15
0
TEXT
8
PART_NAME_27
10
0
20
0
40
1.05
1
T1
72
1
73
2
11
0
21
0
50
-270
41
0.75
7
W0$15
0
TEXT
8
LABEL_INFO
10
0
20
0
40
1.05
1
1 162000000 1 1 0 1
72
1
73
1
11
0
21
0
50
90
41
0.75
7
W0$15
0
TEXT
8
LABEL_ATTRIBUTE
10
0
20
0
40
1.05
1
PartType
72
1
73
1
11
0
21
0
50
90
41
0.75
7
W0$15
0
TEXT
8
PART_TYPE_26
10
0
20
0
40
1.05
1
XFMR-HX1188NL
72
1
73
2
11
0
21
0
50
-270
41
0.75
7
W0$15
0
TEXT
8
LABEL_INFO
10
8.0772
20
-0.3301993333
40
1.05
1
1 162000000 1 1 0 1
72
1
73
1
11
8.0772
21
-0.3301993333
50
90
41
0.75
7
W0$15
0
TEXT
8
LABEL_ATTRIBUTE
10
8.0772
20
-0.3301993333
40
1.05
1
Ref.Des.
72
1
73
1
11
8.0772
21
-0.3301993333
50
90
41
0.75
7
W0$15
0
TEXT
8
PART_NAME_26
10
8.0772
20
-0.3301993333
40
1.05
1
T1
72
1
73
2
11
8.0772
21
-0.3301993333
50
-270
41
0.75
7
W0$15
0
TEXT
8
PART_INFO
10
8.0772
20
-1.8301993333
40
1.05
1
000000
72
1
73
2
11
8.0772
21
-1.8301993333
50
-270
41
0.75
7
W0$15
0
TEXT
8
PART_PTS
10
8.0772
20
-3.3301993333
40
1.05
1
1 2 3 6 7 8 9 10 11 14 15 16 
72
1
73
2
11
8.0772
21
-3.3301993333
50
-270
41
0.75
7
W0$15
0
ENDBLK
0
BLOCK
2
PART_TOP_5
8
0
10
0
20
0
3
PART_TOP_5
70
64
0
INSERT
2
SYM_TOP_3
8
0
10
0
20
0
0
INSERT
2
PKG_0
8
0
10
0
20
0
0
TEXT
8
LABEL_INFO
10
0
20
0
40
1.05
1
1 162000000 1 1 0 1
72
1
73
1
11
0
21
0
50
90
41
0.75
7
W0$15
0
TEXT
8
LABEL_ATTRIBUTE
10
0
20
0
40
1.05
1
Ref.Des.
72
1
73
1
11
0
21
0
50
90
41
0.75
7
W0$15
0
TEXT
8
PART_NAME_27
10
0
20
0
40
1.05
1
T2
72
1
73
2
11
0
21
0
50
-270
41
0.75
7
W0$15
0
TEXT
8
LABEL_INFO
10
0
20
0
40
1.05
1
1 162000000 1 1 0 1
72
1
73
1
11
0
21
0
50
90
41
0.75
7
W0$15
0
TEXT
8
LABEL_ATTRIBUTE
10
0
20
0
40
1.05
1
PartType
72
1
73
1
11
0
21
0
50
90
41
0.75
7
W0$15
0
TEXT
8
PART_TYPE_26
10
0
20
0
40
1.05
1
XFMR-HX1188NL
72
1
73
2
11
0
21
0
50
-270
41
0.75
7
W0$15
0
TEXT
8
LABEL_INFO
10
6.874764
20
0.307086
40
1.05
1
1 162000000 1 1 0 1
72
1
73
1
11
6.874764
21
0.307086
50
90
41
0.75
7
W0$15
0
TEXT
8
LABEL_ATTRIBUTE
10
6.874764
20
0.307086
40
1.05
1
Ref.Des.
72
1
73
1
11
6.874764
21
0.307086
50
90
41
0.75
7
W0$15
0
TEXT
8
PART_NAME_26
10
6.874764
20
0.307086
40
1.05
1
T2
72
1
73
2
11
6.874764
21
0.307086
50
-270
41
0.75
7
W0$15
0
TEXT
8
PART_INFO
10
6.874764
20
-1.192914
40
1.05
1
000000
72
1
73
2
11
6.874764
21
-1.192914
50
-270
41
0.75
7
W0$15
0
TEXT
8
PART_PTS
10
6.874764
20
-2.692914
40
1.05
1
1 2 3 6 7 8 9 10 11 14 15 16 
72
1
73
2
11
6.874764
21
-2.692914
50
-270
41
0.75
7
W0$15
0
ENDBLK
0
BLOCK
2
PART_TOP_10
8
0
10
0
20
0
3
PART_TOP_10
70
64
0
INSERT
2
SYM_TOP_3
8
0
10
0
20
0
0
INSERT
2
PKG_0
8
0
10
0
20
0
0
TEXT
8
LABEL_INFO
10
0
20
0
40
1.05
1
1 162000000 1 1 0 1
72
1
73
1
11
0
21
0
50
90
41
0.75
7
W0$15
0
TEXT
8
LABEL_ATTRIBUTE
10
0
20
0
40
1.05
1
Ref.Des.
72
1
73
1
11
0
21
0
50
90
41
0.75
7
W0$15
0
TEXT
8
PART_NAME_27
10
0
20
0
40
1.05
1
T3
72
1
73
2
11
0
21
0
50
-270
41
0.75
7
W0$15
0
TEXT
8
LABEL_INFO
10
0
20
0
40
1.05
1
1 162000000 1 1 0 1
72
1
73
1
11
0
21
0
50
90
41
0.75
7
W0$15
0
TEXT
8
LABEL_ATTRIBUTE
10
0
20
0
40
1.05
1
PartType
72
1
73
1
11
0
21
0
50
90
41
0.75
7
W0$15
0
TEXT
8
PART_TYPE_26
10
0
20
0
40
1.05
1
XFMR-HX1188NL
72
1
73
2
11
0
21
0
50
-270
41
0.75
7
W0$15
0
TEXT
8
LABEL_INFO
10
7.025132
20
-0.1160773333
40
1.05
1
1 486000000 1 1 0 1
72
1
73
1
11
7.025132
21
-0.1160773333
50
270
41
0.75
7
W0$15
0
TEXT
8
LABEL_ATTRIBUTE
10
7.025132
20
-0.1160773333
40
1.05
1
Ref.Des.
72
1
73
1
11
7.025132
21
-0.1160773333
50
270
41
0.75
7
W0$15
0
TEXT
8
PART_NAME_26
10
7.025132
20
-0.1160773333
40
1.05
1
T3
72
1
73
2
11
7.025132
21
-0.1160773333
50
-270
41
0.75
7
W0$15
0
TEXT
8
PART_INFO
10
7.025132
20
-1.6160773333
40
1.05
1
000000
72
1
73
2
11
7.025132
21
-1.6160773333
50
-270
41
0.75
7
W0$15
0
TEXT
8
PART_PTS
10
7.025132
20
-3.1160773333
40
1.05
1
1 2 3 6 7 8 9 10 11 14 15 16 
72
1
73
2
11
7.025132
21
-3.1160773333
50
-270
41
0.75
7
W0$15
0
ENDBLK
0
BLOCK
2
PART_TOP_15
8
0
10
0
20
0
3
PART_TOP_15
70
64
0
INSERT
2
SYM_TOP_3
8
0
10
0
20
0
0
INSERT
2
PKG_0
8
0
10
0
20
0
0
TEXT
8
LABEL_INFO
10
0
20
0
40
1.05
1
1 162000000 1 1 0 1
72
1
73
1
11
0
21
0
50
90
41
0.75
7
W0$15
0
TEXT
8
LABEL_ATTRIBUTE
10
0
20
0
40
1.05
1
Ref.Des.
72
1
73
1
11
0
21
0
50
90
41
0.75
7
W0$15
0
TEXT
8
PART_NAME_27
10
0
20
0
40
1.05
1
T4
72
1
73
2
11
0
21
0
50
-270
41
0.75
7
W0$15
0
TEXT
8
LABEL_INFO
10
0
20
0
40
1.05
1
1 162000000 1 1 0 1
72
1
73
1
11
0
21
0
50
90
41
0.75
7
W0$15
0
TEXT
8
LABEL_ATTRIBUTE
10
0
20
0
40
1.05
1
PartType
72
1
73
1
11
0
21
0
50
90
41
0.75
7
W0$15
0
TEXT
8
PART_TYPE_26
10
0
20
0
40
1.05
1
XFMR-HX1188NL
72
1
73
2
11
0
21
0
50
-270
41
0.75
7
W0$15
0
TEXT
8
LABEL_INFO
10
7.221982
20
0.122936
40
1.05
1
1 486000000 1 1 0 1
72
1
73
1
11
7.221982
21
0.122936
50
270
41
0.75
7
W0$15
0
TEXT
8
LABEL_ATTRIBUTE
10
7.221982
20
0.122936
40
1.05
1
Ref.Des.
72
1
73
1
11
7.221982
21
0.122936
50
270
41
0.75
7
W0$15
0
TEXT
8
PART_NAME_26
10
7.221982
20
0.122936
40
1.05
1
T4
72
1
73
2
11
7.221982
21
0.122936
50
-270
41
0.75
7
W0$15
0
TEXT
8
PART_INFO
10
7.221982
20
-1.377064
40
1.05
1
000000
72
1
73
2
11
7.221982
21
-1.377064
50
-270
41
0.75
7
W0$15
0
TEXT
8
PART_PTS
10
7.221982
20
-2.877064
40
1.05
1
1 2 3 6 7 8 9 10 11 14 15 16 
72
1
73
2
11
7.221982
21
-2.877064
50
-270
41
0.75
7
W0$15
0
ENDBLK
0
BLOCK
2
PART_TOP_20
8
0
10
0
20
0
3
PART_TOP_20
70
64
0
INSERT
2
SYM_TOP_8
8
0
10
0
20
0
0
INSERT
2
PKG_4
8
0
10
0
20
0
0
TEXT
8
LABEL_INFO
10
13.3
20
2.1
40
0.889
1
0 0 0 2 0 1
73
2
11
13.3
21
2.1
41
0.75
7
W0$127
0
TEXT
8
LABEL_ATTRIBUTE
10
13.3
20
2.1
40
0.889
1
PartType
73
2
11
13.3
21
2.1
41
0.75
7
W0$127
0
TEXT
8
PART_TYPE_01
10
13.3
20
2.1
40
0.889
1
RJ45_STACKED
73
3
11
13.3
21
2.1
41
0.75
7
W0$127
0
TEXT
8
LABEL_INFO
10
11.564
20
12.957
40
1.4224
1
0 0 0 0 0 1
41
0.75
7
W0$2032
0
TEXT
8
LABEL_ATTRIBUTE
10
11.564
20
12.957
40
1.4224
1
Ref.Des.
41
0.75
7
W0$2032
0
TEXT
8
PART_NAME_26
10
11.564
20
12.957
40
1.4224
1
J3
41
0.75
7
W0$2032
0
TEXT
8
PART_INFO
10
11.564
20
10.925
40
1.4224
1
000000
41
0.75
7
W0$2032
0
TEXT
8
PART_PTS
10
11.564
20
8.893
40
1.4224
1
1 2 3 6 9 10 11 14 17 18 19 20 21 22 
41
0.75
7
W0$2032
0
ENDBLK
0
BLOCK
2
PART_TOP_21
8
0
10
0
20
0
3
PART_TOP_21
70
64
0
INSERT
2
SYM_TOP_8
8
0
10
0
20
0
0
INSERT
2
PKG_4
8
0
10
0
20
0
0
TEXT
8
LABEL_INFO
10
11.183
20
14.1
40
1.4224
1
0 0 0 0 0 1
41
0.75
7
W0$2032
0
TEXT
8
LABEL_ATTRIBUTE
10
11.183
20
14.1
40
1.4224
1
Ref.Des.
41
0.75
7
W0$2032
0
TEXT
8
PART_NAME_26
10
11.183
20
14.1
40
1.4224
1
J2
41
0.75
7
W0$2032
0
TEXT
8
LABEL_INFO
10
13.3
20
2.1
40
0.889
1
0 0 0 2 0 1
73
2
11
13.3
21
2.1
41
0.75
7
W0$127
0
TEXT
8
LABEL_ATTRIBUTE
10
13.3
20
2.1
40
0.889
1
PartType
73
2
11
13.3
21
2.1
41
0.75
7
W0$127
0
TEXT
8
PART_TYPE_01
10
13.3
20
2.1
40
0.889
1
RJ45_STACKED
73
3
11
13.3
21
2.1
41
0.75
7
W0$127
0
TEXT
8
PART_INFO
10
13.3
20
0.83
40
0.889
1
000000
73
3
11
13.3
21
0.83
41
0.75
7
W0$127
0
TEXT
8
PART_PTS
10
13.3
20
-0.44
40
0.889
1
1 2 3 6 9 10 11 14 17 18 19 20 21 22 
73
3
11
13.3
21
-0.44
41
0.75
7
W0$127
0
ENDBLK
0
BLOCK
2
PART_TOP_23
8
0
10
0
20
0
3
PART_TOP_23
70
64
0
INSERT
2
SYM_TOP_10
8
0
10
0
20
0
0
INSERT
2
PKG_6
8
0
10
0
20
0
0
TEXT
8
LABEL_INFO
10
-1.7
20
8.4
40
1.0668
1
0 0 0 0 0 1
41
0.75
7
W0$1524
0
TEXT
8
LABEL_ATTRIBUTE
10
-1.7
20
8.4
40
1.0668
1
Ref.Des.
41
0.75
7
W0$1524
0
TEXT
8
PART_NAME_27
10
-1.7
20
8.4
40
1.0668
1
J4
41
0.75
7
W0$1524
0
TEXT
8
LABEL_INFO
10
0
20
0
40
0.889
1
0 0 0 2 0 1
73
2
11
0
21
0
41
0.75
7
W0$127
0
TEXT
8
LABEL_ATTRIBUTE
10
0
20
0
40
0.889
1
PartType
73
2
11
0
21
0
41
0.75
7
W0$127
0
TEXT
8
PART_TYPE_01
10
0
20
0
40
0.889
1
GUIDE
73
3
11
0
21
0
41
0.75
7
W0$127
0
TEXT
8
LABEL_INFO
10
0.8595993333
20
18.3934
40
1.0668
1
0 324000000 0 0 0 1
50
180
41
0.75
7
W0$1524
0
TEXT
8
LABEL_ATTRIBUTE
10
0.8595993333
20
18.3934
40
1.0668
1
Ref.Des.
50
180
41
0.75
7
W0$1524
0
TEXT
8
PART_NAME_26
10
0.8595993333
20
18.3934
40
1.0668
1
J4
50
180
41
0.75
7
W0$1524
0
TEXT
8
PART_INFO
10
0.8595993333
20
16.8694
40
1.0668
1
000010
50
180
41
0.75
7
W0$1524
0
TEXT
8
PART_PTS
10
0.8595993333
20
15.3454
40
1.0668
1
1 2 3 
50
180
41
0.75
7
W0$1524
0
ENDBLK
0
BLOCK
2
PART_TOP_24
8
0
10
0
20
0
3
PART_TOP_24
70
64
0
INSERT
2
SYM_TOP_11
8
0
10
0
20
0
0
INSERT
2
PKG_7
8
0
10
0
20
0
0
TEXT
8
LABEL_INFO
10
-7.874
20
-6.35
40
0.889
1
0 0 0 2 0 1
73
2
11
-7.874
21
-6.35
41
0.75
7
W0$127
0
TEXT
8
LABEL_ATTRIBUTE
10
-7.874
20
-6.35
40
0.889
1
PartType
73
2
11
-7.874
21
-6.35
41
0.75
7
W0$127
0
TEXT
8
PART_TYPE_01
10
-7.874
20
-6.35
40
0.889
1
CON-54_AIRMAX_2ARRAY
73
3
11
-7.874
21
-6.35
41
0.75
7
W0$127
0
TEXT
8
LABEL_INFO
10
13.775
20
-13.8899993333
40
0.889
1
0 162000000 0 0 0 1
50
90
41
0.75
7
W0$127
0
TEXT
8
LABEL_ATTRIBUTE
10
13.775
20
-13.8899993333
40
0.889
1
Ref.Des.
50
90
41
0.75
7
W0$127
0
TEXT
8
PART_NAME_26
10
13.775
20
-13.8899993333
40
0.889
1
J1
50
90
41
0.75
7
W0$127
0
TEXT
8
PART_INFO
10
13.775
20
-15.1599993333
40
0.889
1
000010
50
90
41
0.75
7
W0$127
0
TEXT
8
PART_PTS
10
13.775
20
-16.4299993333
40
0.889
1
1 2 3 4 5 6 7 8 9 10 11 12 13 14 15 16 17 18 19 20 21 22 23 24 25 26 27 28 29 30 31 32 33 34 35 36 37 38 39 40 41 42 43 44 45 46 47 48 49 50 51 52 53 54 
50
90
41
0.75
7
W0$127
0
ENDBLK
0
BLOCK
2
PART_TOP_29
8
0
10
0
20
0
3
PART_TOP_29
70
64
0
INSERT
2
SYM_TOP_4
8
0
10
0
20
0
0
INSERT
2
PKG_9
8
0
10
0
20
0
0
TEXT
8
LABEL_INFO
10
-2.056652
20
-2.5966293333
40
1.0668
1
0 0 0 0 0 1
41
0.75
7
W0$2032
0
TEXT
8
LABEL_ATTRIBUTE
10
-2.056652
20
-2.5966293333
40
1.0668
1
Ref.Des.
41
0.75
7
W0$2032
0
TEXT
8
PART_NAME_26
10
-2.056652
20
-2.5966293333
40
1.0668
1
C14
41
0.75
7
W0$2032
0
TEXT
8
LABEL_INFO
10
-1.5
20
-1
40
1.0668
1
0 0 0 2 0 1
73
2
11
-1.5
21
-1
41
0.75
7
W0$2032
0
TEXT
8
LABEL_ATTRIBUTE
10
-1.5
20
-1
40
1.0668
1
PartType
73
2
11
-1.5
21
-1
41
0.75
7
W0$2032
0
TEXT
8
PART_TYPE_26
10
-1.5
20
-1
40
1.0668
1
CAP_4.7UF_25V_0803
73
3
11
-1.5
21
-1
41
0.75
7
W0$2032
0
TEXT
8
LABEL_INFO
10
-1.5
20
-0.5
40
1.0668
1
0 0 0 0 0 1
41
0.75
7
W0$2032
0
TEXT
8
LABEL_ATTRIBUTE
10
-1.5
20
-0.5
40
1.0668
1
Ref.Des.
41
0.75
7
W0$2032
0
TEXT
8
PART_NAME_27
10
-1.5
20
-0.5
40
1.0668
1
C14
41
0.75
7
W0$2032
0
TEXT
8
PART_INFO
10
-1.5
20
-2.024
40
1.0668
1
000000
41
0.75
7
W0$2032
0
TEXT
8
PART_PTS
10
-1.5
20
-3.548
40
1.0668
1
1 2 
41
0.75
7
W0$2032
0
ENDBLK
0
BLOCK
2
PART_TOP_30
8
0
10
0
20
0
3
PART_TOP_30
70
64
0
INSERT
2
SYM_TOP_4
8
0
10
0
20
0
0
INSERT
2
PKG_9
8
0
10
0
20
0
0
TEXT
8
LABEL_INFO
10
-1.040652
20
1.4330406667
40
1.0668
1
0 0 0 0 0 1
41
0.75
7
W0$2032
0
TEXT
8
LABEL_ATTRIBUTE
10
-1.040652
20
1.4330406667
40
1.0668
1
Ref.Des.
41
0.75
7
W0$2032
0
TEXT
8
PART_NAME_26
10
-1.040652
20
1.4330406667
40
1.0668
1
C15
41
0.75
7
W0$2032
0
TEXT
8
LABEL_INFO
10
-1.5
20
-1.25
40
1.0668
1
0 0 0 2 0 1
73
2
11
-1.5
21
-1.25
41
0.75
7
W0$2032
0
TEXT
8
LABEL_ATTRIBUTE
10
-1.5
20
-1.25
40
1.0668
1
PartType
73
2
11
-1.5
21
-1.25
41
0.75
7
W0$2032
0
TEXT
8
PART_TYPE_26
10
-1.5
20
-1.25
40
1.0668
1
CAP_4.7UF_25V_0803
73
3
11
-1.5
21
-1.25
41
0.75
7
W0$2032
0
TEXT
8
LABEL_INFO
10
-1.5
20
-0.5
40
1.0668
1
0 0 0 0 0 1
41
0.75
7
W0$2032
0
TEXT
8
LABEL_ATTRIBUTE
10
-1.5
20
-0.5
40
1.0668
1
Ref.Des.
41
0.75
7
W0$2032
0
TEXT
8
PART_NAME_27
10
-1.5
20
-0.5
40
1.0668
1
C15
41
0.75
7
W0$2032
0
TEXT
8
PART_INFO
10
-1.5
20
-2.024
40
1.0668
1
000000
41
0.75
7
W0$2032
0
TEXT
8
PART_PTS
10
-1.5
20
-3.548
40
1.0668
1
1 2 
41
0.75
7
W0$2032
0
ENDBLK
0
BLOCK
2
PART_TOP_31
8
0
10
0
20
0
3
PART_TOP_31
70
64
0
INSERT
2
SYM_TOP_4
8
0
10
0
20
0
0
INSERT
2
PKG_9
8
0
10
0
20
0
0
TEXT
8
LABEL_INFO
10
0.551942
20
-4.202176
40
1.0668
1
0 162000000 0 0 0 1
50
90
41
0.75
7
W0$2032
0
TEXT
8
LABEL_ATTRIBUTE
10
0.551942
20
-4.202176
40
1.0668
1
Ref.Des.
50
90
41
0.75
7
W0$2032
0
TEXT
8
PART_NAME_26
10
0.551942
20
-4.202176
40
1.0668
1
C17
50
90
41
0.75
7
W0$2032
0
TEXT
8
LABEL_INFO
10
-1.5
20
-1
40
1.0668
1
0 0 0 2 0 1
73
2
11
-1.5
21
-1
41
0.75
7
W0$2032
0
TEXT
8
LABEL_ATTRIBUTE
10
-1.5
20
-1
40
1.0668
1
PartType
73
2
11
-1.5
21
-1
41
0.75
7
W0$2032
0
TEXT
8
PART_TYPE_26
10
-1.5
20
-1
40
1.0668
1
CAP_4.7UF_25V_0803
73
3
11
-1.5
21
-1
41
0.75
7
W0$2032
0
TEXT
8
LABEL_INFO
10
-1.5
20
-0.5
40
1.0668
1
0 0 0 0 0 1
41
0.75
7
W0$2032
0
TEXT
8
LABEL_ATTRIBUTE
10
-1.5
20
-0.5
40
1.0668
1
Ref.Des.
41
0.75
7
W0$2032
0
TEXT
8
PART_NAME_27
10
-1.5
20
-0.5
40
1.0668
1
C17
41
0.75
7
W0$2032
0
TEXT
8
PART_INFO
10
-1.5
20
-2.024
40
1.0668
1
000000
41
0.75
7
W0$2032
0
TEXT
8
PART_PTS
10
-1.5
20
-3.548
40
1.0668
1
1 2 
41
0.75
7
W0$2032
0
ENDBLK
0
BLOCK
2
PART_TOP_45
8
0
10
0
20
0
3
PART_TOP_45
70
64
0
INSERT
2
SYM_TOP_12
8
0
10
0
20
0
0
INSERT
2
PKG_10
8
0
10
0
20
0
0
TEXT
8
LABEL_INFO
10
-2.54
20
-6.7056
40
1.13792
1
0 0 0 0 0 1
41
0.75
7
W0$2032
0
TEXT
8
LABEL_ATTRIBUTE
10
-2.54
20
-6.7056
40
1.13792
1
PartType
41
0.75
7
W0$2032
0
TEXT
8
PART_TYPE_01
10
-2.54
20
-6.7056
40
1.13792
1
FID
41
0.75
7
W0$2032
0
TEXT
8
PART_NAME_TOP
10
0
20
0
40
1.4224
1
FD3
41
0.75
7
W0$254
0
TEXT
8
PART_INFO
10
0
20
-2.032
40
1.4224
1
000000
41
0.75
7
W0$254
0
TEXT
8
PART_PTS
10
0
20
-4.064
40
1.4224
1
1 
41
0.75
7
W0$254
0
ENDBLK
0
BLOCK
2
PART_TOP_46
8
0
10
0
20
0
3
PART_TOP_46
70
64
0
INSERT
2
SYM_TOP_12
8
0
10
0
20
0
0
INSERT
2
PKG_10
8
0
10
0
20
0
0
TEXT
8
LABEL_INFO
10
-2.54
20
-6.7056
40
1.13792
1
0 0 0 0 0 1
41
0.75
7
W0$2032
0
TEXT
8
LABEL_ATTRIBUTE
10
-2.54
20
-6.7056
40
1.13792
1
PartType
41
0.75
7
W0$2032
0
TEXT
8
PART_TYPE_01
10
-2.54
20
-6.7056
40
1.13792
1
FID
41
0.75
7
W0$2032
0
TEXT
8
PART_NAME_TOP
10
0
20
0
40
1.4224
1
FD2
41
0.75
7
W0$254
0
TEXT
8
PART_INFO
10
0
20
-2.032
40
1.4224
1
000000
41
0.75
7
W0$254
0
TEXT
8
PART_PTS
10
0
20
-4.064
40
1.4224
1
1 
41
0.75
7
W0$254
0
ENDBLK
0
BLOCK
2
PART_TOP_47
8
0
10
0
20
0
3
PART_TOP_47
70
64
0
INSERT
2
SYM_TOP_12
8
0
10
0
20
0
0
INSERT
2
PKG_10
8
0
10
0
20
0
0
TEXT
8
LABEL_INFO
10
-2.54
20
-6.7056
40
1.13792
1
0 0 0 0 0 1
41
0.75
7
W0$2032
0
TEXT
8
LABEL_ATTRIBUTE
10
-2.54
20
-6.7056
40
1.13792
1
PartType
41
0.75
7
W0$2032
0
TEXT
8
PART_TYPE_01
10
-2.54
20
-6.7056
40
1.13792
1
FID
41
0.75
7
W0$2032
0
TEXT
8
PART_NAME_TOP
10
0
20
0
40
1.4224
1
FD1
41
0.75
7
W0$254
0
TEXT
8
PART_INFO
10
0
20
-2.032
40
1.4224
1
000000
41
0.75
7
W0$254
0
TEXT
8
PART_PTS
10
0
20
-4.064
40
1.4224
1
1 
41
0.75
7
W0$254
0
ENDBLK
0
BLOCK
2
SYM_TOP_3
8
0
10
0
20
0
3
SYM_TOP_3
70
64
0
TEXT
8
SYM_NAME
10
0
20
0
40
1.4224
1
XFMR_HX1188NL
41
0.75
0
TEXT
8
SYM_PART_NAME_27
10
0
20
0
40
1.05
1
 
72
1
73
1
11
0
21
0
50
90
41
0.75
7
W0$15R1
0
TEXT
8
SYM_PART_TYPE_26
10
0
20
0
40
1.05
1
 
72
1
73
1
11
0
21
0
50
90
41
0.75
7
W0$15R1
0
TEXT
8
SYM_PART_NAME_26
10
0
20
0
40
1.05
1
 
72
1
73
1
11
0
21
0
50
90
41
0.75
7
W0$15R1
0
INSERT
2
PART_BODY_TOP_2
8
0
10
0
20
0
0
INSERT
2
STK_TOP_4
8
0
10
-4.5
20
4.445
0
TEXT
8
SYM_TERMINAL
10
0
20
-3.048
40
1.778
1
1
0
INSERT
2
STK_TOP_4
8
0
10
-4.5
20
3.175
0
TEXT
8
SYM_TERMINAL
10
0
20
-6.096
40
1.778
1
2
0
INSERT
2
STK_TOP_4
8
0
10
-4.5
20
1.905
0
TEXT
8
SYM_TERMINAL
10
0
20
-9.144
40
1.778
1
3
0
INSERT
2
STK_TOP_4
8
0
10
-4.5
20
0.635
0
TEXT
8
SYM_TERMINAL
10
0
20
-12.192
40
1.778
1
4
0
INSERT
2
STK_TOP_4
8
0
10
-4.5
20
-0.635
0
TEXT
8
SYM_TERMINAL
10
0
20
-15.24
40
1.778
1
5
0
INSERT
2
STK_TOP_4
8
0
10
-4.5
20
-1.905
0
TEXT
8
SYM_TERMINAL
10
0
20
-18.288
40
1.778
1
6
0
INSERT
2
STK_TOP_4
8
0
10
-4.5
20
-3.175
0
TEXT
8
SYM_TERMINAL
10
0
20
-21.336
40
1.778
1
7
0
INSERT
2
STK_TOP_4
8
0
10
-4.5
20
-4.445
0
TEXT
8
SYM_TERMINAL
10
0
20
-24.384
40
1.778
1
8
0
INSERT
2
STK_TOP_4
8
0
10
4.5
20
-4.445
0
TEXT
8
SYM_TERMINAL
10
0
20
-27.432
40
1.778
1
9
0
INSERT
2
STK_TOP_4
8
0
10
4.5
20
-3.175
0
TEXT
8
SYM_TERMINAL
10
0
20
-30.48
40
1.778
1
10
0
INSERT
2
STK_TOP_4
8
0
10
4.5
20
-1.905
0
TEXT
8
SYM_TERMINAL
10
0
20
-33.528
40
1.778
1
11
0
INSERT
2
STK_TOP_4
8
0
10
4.5
20
-0.635
0
TEXT
8
SYM_TERMINAL
10
0
20
-36.576
40
1.778
1
12
0
INSERT
2
STK_TOP_4
8
0
10
4.5
20
0.635
0
TEXT
8
SYM_TERMINAL
10
0
20
-39.624
40
1.778
1
13
0
INSERT
2
STK_TOP_4
8
0
10
4.5
20
1.905
0
TEXT
8
SYM_TERMINAL
10
0
20
-42.672
40
1.778
1
14
0
INSERT
2
STK_TOP_4
8
0
10
4.5
20
3.175
0
TEXT
8
SYM_TERMINAL
10
0
20
-45.72
40
1.778
1
15
0
INSERT
2
STK_TOP_4
8
0
10
4.5
20
4.445
0
TEXT
8
SYM_TERMINAL
10
0
20
-48.768
40
1.778
1
16
0
ENDBLK
0
BLOCK
2
PKG_0
8
0
10
0
20
0
3
PKG_0
70
64
0
TEXT
8
PKG_INFO
10
0
20
0
40
1.778
1
*SYM:= 3
0
TEXT
8
PKG_INFO
10
0
20
-3.048
40
1.778
1
*PKG:= 0 XFMR-HX1188NL UND
0
TEXT
8
PKG_INFO
10
0
20
-6.096
40
1.778
1
*GATE:=0
0
TEXT
8
PKG_INFO
10
0
20
-9.144
40
1.778
1
*GATEPIN:= 0 5 1 <>
0
TEXT
8
PKG_INFO
10
0
20
-12.192
40
1.778
1
*GATEPIN:= 0 5 2 <>
0
TEXT
8
PKG_INFO
10
0
20
-15.24
40
1.778
1
*GATEPIN:= 0 5 3 <>
0
TEXT
8
PKG_INFO
10
0
20
-18.288
40
1.778
1
*GATEPIN:= 0 5 4 <>
0
TEXT
8
PKG_INFO
10
0
20
-21.336
40
1.778
1
*GATEPIN:= 0 5 5 <>
0
TEXT
8
PKG_INFO
10
0
20
-24.384
40
1.778
1
*GATEPIN:= 0 5 6 <>
0
TEXT
8
PKG_INFO
10
0
20
-27.432
40
1.778
1
*GATEPIN:= 0 5 7 <>
0
TEXT
8
PKG_INFO
10
0
20
-30.48
40
1.778
1
*GATEPIN:= 0 5 8 <>
0
TEXT
8
PKG_INFO
10
0
20
-33.528
40
1.778
1
*GATEPIN:= 0 0 16 <>
0
TEXT
8
PKG_INFO
10
0
20
-36.576
40
1.778
1
*GATEPIN:= 0 0 15 <>
0
TEXT
8
PKG_INFO
10
0
20
-39.624
40
1.778
1
*GATEPIN:= 0 0 14 <>
0
TEXT
8
PKG_INFO
10
0
20
-42.672
40
1.778
1
*GATEPIN:= 0 0 13 <>
0
TEXT
8
PKG_INFO
10
0
20
-45.72
40
1.778
1
*GATEPIN:= 0 0 12 <>
0
TEXT
8
PKG_INFO
10
0
20
-48.768
40
1.778
1
*GATEPIN:= 0 0 11 <>
0
TEXT
8
PKG_INFO
10
0
20
-51.816
40
1.778
1
*GATEPIN:= 0 0 10 <>
0
TEXT
8
PKG_INFO
10
0
20
-54.864
40
1.778
1
*GATEPIN:= 0 0 9 <>
0
ENDBLK
0
BLOCK
2
SYM_TOP_8
8
0
10
0
20
0
3
SYM_TOP_8
70
64
0
TEXT
8
SYM_NAME
10
0
20
0
40
1.4224
1
CONN_MODULARJACK_6116522
41
0.75
0
TEXT
8
SYM_PART_NAME_26
10
11.6
20
12.5
40
1.4224
1
 
41
0.75
7
W0$2032R0
0
TEXT
8
SYM_PART_TYPE_01
10
13.3
20
2.1
40
0.889
1
 
73
2
11
13.3
21
2.1
41
0.75
7
W0$127R0
0
TEXT
8
SYM_PART_NAME_27
10
13.1
20
3
40
1.0668
1
 
41
0.75
7
W0$1524R0
0
INSERT
2
PART_BODY_TOP_7
8
0
10
0
20
0
0
INSERT
2
STK_TOP_9
8
0
10
25.654
20
2.54
0
TEXT
8
SYM_TERMINAL
10
0
20
-3.048
40
1.778
1
1
0
INSERT
2
STK_TOP_9
8
0
10
24.638
20
4.318
0
TEXT
8
SYM_TERMINAL
10
0
20
-6.096
40
1.778
1
2
0
INSERT
2
STK_TOP_9
8
0
10
23.622
20
2.54
0
TEXT
8
SYM_TERMINAL
10
0
20
-9.144
40
1.778
1
3
0
INSERT
2
STK_TOP_9
8
0
10
22.606
20
4.318
0
TEXT
8
SYM_TERMINAL
10
0
20
-12.192
40
1.778
1
4
0
INSERT
2
STK_TOP_9
8
0
10
21.59
20
2.54
0
TEXT
8
SYM_TERMINAL
10
0
20
-15.24
40
1.778
1
5
0
INSERT
2
STK_TOP_9
8
0
10
20.574
20
4.318
0
TEXT
8
SYM_TERMINAL
10
0
20
-18.288
40
1.778
1
6
0
INSERT
2
STK_TOP_9
8
0
10
19.558
20
2.54
0
TEXT
8
SYM_TERMINAL
10
0
20
-21.336
40
1.778
1
7
0
INSERT
2
STK_TOP_9
8
0
10
18.542
20
4.318
0
TEXT
8
SYM_TERMINAL
10
0
20
-24.384
40
1.778
1
8
0
INSERT
2
STK_TOP_9
8
0
10
9.906
20
2.54
0
TEXT
8
SYM_TERMINAL
10
0
20
-27.432
40
1.778
1
9
0
INSERT
2
STK_TOP_9
8
0
10
8.89
20
4.318
0
TEXT
8
SYM_TERMINAL
10
0
20
-30.48
40
1.778
1
10
0
INSERT
2
STK_TOP_9
8
0
10
7.874
20
2.54
0
TEXT
8
SYM_TERMINAL
10
0
20
-33.528
40
1.778
1
11
0
INSERT
2
STK_TOP_9
8
0
10
6.858
20
4.318
0
TEXT
8
SYM_TERMINAL
10
0
20
-36.576
40
1.778
1
12
0
INSERT
2
STK_TOP_9
8
0
10
5.842
20
2.54
0
TEXT
8
SYM_TERMINAL
10
0
20
-39.624
40
1.778
1
13
0
INSERT
2
STK_TOP_9
8
0
10
4.826
20
4.318
0
TEXT
8
SYM_TERMINAL
10
0
20
-42.672
40
1.778
1
14
0
INSERT
2
STK_TOP_9
8
0
10
3.81
20
2.54
0
TEXT
8
SYM_TERMINAL
10
0
20
-45.72
40
1.778
1
15
0
INSERT
2
STK_TOP_9
8
0
10
2.794
20
4.318
0
TEXT
8
SYM_TERMINAL
10
0
20
-48.768
40
1.778
1
16
0
INSERT
2
STK_TOP_10
8
0
10
0
20
0
0
TEXT
8
SYM_TERMINAL
10
0
20
-51.816
40
1.778
1
17
0
INSERT
2
STK_TOP_10
8
0
10
28.448
20
0
0
TEXT
8
SYM_TERMINAL
10
0
20
-54.864
40
1.778
1
18
0
INSERT
2
STK_TOP_11
8
0
10
29.464
20
3.429
0
TEXT
8
SYM_TERMINAL
10
0
20
-57.912
40
1.778
1
19
0
INSERT
2
STK_TOP_11
8
0
10
-1.016
20
3.429
0
TEXT
8
SYM_TERMINAL
10
0
20
-60.96
40
1.778
1
20
0
INSERT
2
STK_TOP_11
8
0
10
6.35
20
10.16
0
TEXT
8
SYM_TERMINAL
10
0
20
-64.008
40
1.778
1
21
0
INSERT
2
STK_TOP_11
8
0
10
22.098
20
10.16
0
TEXT
8
SYM_TERMINAL
10
0
20
-67.056
40
1.778
1
22
0
ENDBLK
0
BLOCK
2
PKG_4
8
0
10
0
20
0
3
PKG_4
70
64
0
TEXT
8
PKG_INFO
10
0
20
0
40
1.778
1
*SYM:= 8
0
TEXT
8
PKG_INFO
10
0
20
-3.048
40
1.778
1
*PKG:= 0 RJ45_STACKED TTL
0
TEXT
8
PKG_INFO
10
0
20
-6.096
40
1.778
1
*GATE:=0
0
TEXT
8
PKG_INFO
10
0
20
-9.144
40
1.778
1
*GATEPIN:= 0 5 1 1
0
TEXT
8
PKG_INFO
10
0
20
-12.192
40
1.778
1
*GATEPIN:= 0 5 2 2
0
TEXT
8
PKG_INFO
10
0
20
-15.24
40
1.778
1
*GATEPIN:= 0 5 3 3
0
TEXT
8
PKG_INFO
10
0
20
-18.288
40
1.778
1
*GATEPIN:= 0 5 4 4
0
TEXT
8
PKG_INFO
10
0
20
-21.336
40
1.778
1
*GATEPIN:= 0 5 5 5
0
TEXT
8
PKG_INFO
10
0
20
-24.384
40
1.778
1
*GATEPIN:= 0 5 6 6
0
TEXT
8
PKG_INFO
10
0
20
-27.432
40
1.778
1
*GATEPIN:= 0 5 7 7
0
TEXT
8
PKG_INFO
10
0
20
-30.48
40
1.778
1
*GATEPIN:= 0 5 8 8
0
TEXT
8
PKG_INFO
10
0
20
-33.528
40
1.778
1
*GATE:=0
0
TEXT
8
PKG_INFO
10
0
20
-36.576
40
1.778
1
*GATEPIN:= 0 5 9 9
0
TEXT
8
PKG_INFO
10
0
20
-39.624
40
1.778
1
*GATEPIN:= 0 5 10 10
0
TEXT
8
PKG_INFO
10
0
20
-42.672
40
1.778
1
*GATEPIN:= 0 5 11 11
0
TEXT
8
PKG_INFO
10
0
20
-45.72
40
1.778
1
*GATEPIN:= 0 5 12 12
0
TEXT
8
PKG_INFO
10
0
20
-48.768
40
1.778
1
*GATEPIN:= 0 5 13 13
0
TEXT
8
PKG_INFO
10
0
20
-51.816
40
1.778
1
*GATEPIN:= 0 5 14 14
0
TEXT
8
PKG_INFO
10
0
20
-54.864
40
1.778
1
*GATEPIN:= 0 5 15 15
0
TEXT
8
PKG_INFO
10
0
20
-57.912
40
1.778
1
*GATEPIN:= 0 5 16 16
0
ENDBLK
0
BLOCK
2
SYM_TOP_10
8
0
10
0
20
0
3
SYM_TOP_10
70
64
0
TEXT
8
SYM_NAME
10
0
20
0
40
1.4224
1
CONN_10045597
41
0.75
0
TEXT
8
SYM_PART_NAME_27
10
-1.7
20
8.4
40
1.0668
1
 
41
0.75
7
W0$1524R0
0
TEXT
8
SYM_PART_TYPE_01
10
0
20
0
40
0.889
1
 
73
2
11
0
21
0
41
0.75
7
W0$127R0
0
TEXT
8
SYM_PART_NAME_26
10
-1.5
20
17.1
40
1.4224
1
 
41
0.75
7
W0$2032R0
0
INSERT
2
PART_BODY_TOP_10
8
0
10
0
20
0
0
INSERT
2
STK_TOP_16
8
0
10
0
20
0
0
TEXT
8
SYM_TERMINAL
10
0
20
-3.048
40
1.778
1
1
0
INSERT
2
STK_TOP_16
8
0
10
0
20
5.63
0
TEXT
8
SYM_TERMINAL
10
0
20
-6.096
40
1.778
1
2
0
INSERT
2
STK_TOP_16
8
0
10
0
20
12.25
0
TEXT
8
SYM_TERMINAL
10
0
20
-9.144
40
1.778
1
3
0
ENDBLK
0
BLOCK
2
PKG_6
8
0
10
0
20
0
3
PKG_6
70
64
0
TEXT
8
PKG_INFO
10
0
20
0
40
1.778
1
*SYM:= 10
0
TEXT
8
PKG_INFO
10
0
20
-3.048
40
1.778
1
*PKG:= 0 GUIDE CON
0
TEXT
8
PKG_INFO
10
0
20
-6.096
40
1.778
1
*GATE:=0
0
TEXT
8
PKG_INFO
10
0
20
-9.144
40
1.778
1
*GATEPIN:= 0 9 1 CHGND
0
TEXT
8
PKG_INFO
10
0
20
-12.192
40
1.778
1
*GATEPIN:= 0 9 2 CHGND
0
TEXT
8
PKG_INFO
10
0
20
-15.24
40
1.778
1
*GATEPIN:= 0 9 3 CHGND
0
ENDBLK
0
BLOCK
2
SYM_TOP_11
8
0
10
0
20
0
3
SYM_TOP_11
70
64
0
TEXT
8
SYM_NAME
10
0
20
0
40
1.4224
1
CONN_FCI_54
41
0.75
0
TEXT
8
SYM_PART_TYPE_01
10
4.8
20
-2.2
40
0.889
1
 
73
2
11
4.8
21
-2.2
41
0.75
7
W0$127R0
0
TEXT
8
SYM_PART_NAME_01
10
4.8
20
2.8
40
1.4224
1
 
41
0.75
7
W0$2032R0
0
INSERT
2
PART_BODY_TOP_11
8
0
10
0
20
0
0
INSERT
2
STK_TOP_44
8
0
10
0
20
0
0
TEXT
8
SYM_TERMINAL
10
0
20
-3.048
40
1.778
1
A1
0
INSERT
2
STK_TOP_44
8
0
10
-0.1
20
-2
0
TEXT
8
SYM_TERMINAL
10
0
20
-6.096
40
1.778
1
A2
0
INSERT
2
STK_TOP_44
8
0
10
0
20
-4
0
TEXT
8
SYM_TERMINAL
10
0
20
-9.144
40
1.778
1
A3
0
INSERT
2
STK_TOP_44
8
0
10
-0.1
20
-6
0
TEXT
8
SYM_TERMINAL
10
0
20
-12.192
40
1.778
1
A4
0
INSERT
2
STK_TOP_44
8
0
10
0
20
-8
0
TEXT
8
SYM_TERMINAL
10
0
20
-15.24
40
1.778
1
A5
0
INSERT
2
STK_TOP_44
8
0
10
-0.1
20
-10
0
TEXT
8
SYM_TERMINAL
10
0
20
-18.288
40
1.778
1
A6
0
INSERT
2
STK_TOP_44
8
0
10
1.4
20
0
0
TEXT
8
SYM_TERMINAL
10
0
20
-21.336
40
1.778
1
B1
0
INSERT
2
STK_TOP_44
8
0
10
1.3
20
-2
0
TEXT
8
SYM_TERMINAL
10
0
20
-24.384
40
1.778
1
B2
0
INSERT
2
STK_TOP_44
8
0
10
1.4
20
-4
0
TEXT
8
SYM_TERMINAL
10
0
20
-27.432
40
1.778
1
B3
0
INSERT
2
STK_TOP_44
8
0
10
1.3
20
-6
0
TEXT
8
SYM_TERMINAL
10
0
20
-30.48
40
1.778
1
B4
0
INSERT
2
STK_TOP_44
8
0
10
1.4
20
-8
0
TEXT
8
SYM_TERMINAL
10
0
20
-33.528
40
1.778
1
B5
0
INSERT
2
STK_TOP_44
8
0
10
1.3
20
-10
0
TEXT
8
SYM_TERMINAL
10
0
20
-36.576
40
1.778
1
B6
0
INSERT
2
STK_TOP_44
8
0
10
2.8
20
0
0
TEXT
8
SYM_TERMINAL
10
0
20
-39.624
40
1.778
1
C1
0
INSERT
2
STK_TOP_44
8
0
10
2.7
20
-2
0
TEXT
8
SYM_TERMINAL
10
0
20
-42.672
40
1.778
1
C2
0
INSERT
2
STK_TOP_44
8
0
10
2.8
20
-4
0
TEXT
8
SYM_TERMINAL
10
0
20
-45.72
40
1.778
1
C3
0
INSERT
2
STK_TOP_44
8
0
10
2.7
20
-6
0
TEXT
8
SYM_TERMINAL
10
0
20
-48.768
40
1.778
1
C4
0
INSERT
2
STK_TOP_44
8
0
10
2.8
20
-8
0
TEXT
8
SYM_TERMINAL
10
0
20
-51.816
40
1.778
1
C5
0
INSERT
2
STK_TOP_44
8
0
10
2.7
20
-10
0
TEXT
8
SYM_TERMINAL
10
0
20
-54.864
40
1.778
1
C6
0
INSERT
2
STK_TOP_44
8
0
10
4.2
20
0
0
TEXT
8
SYM_TERMINAL
10
0
20
-57.912
40
1.778
1
D1
0
INSERT
2
STK_TOP_44
8
0
10
4.1
20
-2
0
TEXT
8
SYM_TERMINAL
10
0
20
-60.96
40
1.778
1
D2
0
INSERT
2
STK_TOP_44
8
0
10
4.2
20
-4
0
TEXT
8
SYM_TERMINAL
10
0
20
-64.008
40
1.778
1
D3
0
INSERT
2
STK_TOP_44
8
0
10
4.1
20
-6
0
TEXT
8
SYM_TERMINAL
10
0
20
-67.056
40
1.778
1
D4
0
INSERT
2
STK_TOP_44
8
0
10
4.2
20
-8
0
TEXT
8
SYM_TERMINAL
10
0
20
-70.104
40
1.778
1
D5
0
INSERT
2
STK_TOP_44
8
0
10
4.1
20
-10
0
TEXT
8
SYM_TERMINAL
10
0
20
-73.152
40
1.778
1
D6
0
INSERT
2
STK_TOP_44
8
0
10
5.6
20
0
0
TEXT
8
SYM_TERMINAL
10
0
20
-76.2
40
1.778
1
E1
0
INSERT
2
STK_TOP_44
8
0
10
5.5
20
-2
0
TEXT
8
SYM_TERMINAL
10
0
20
-79.248
40
1.778
1
E2
0
INSERT
2
STK_TOP_44
8
0
10
5.6
20
-4
0
TEXT
8
SYM_TERMINAL
10
0
20
-82.296
40
1.778
1
E3
0
INSERT
2
STK_TOP_44
8
0
10
5.5
20
-6
0
TEXT
8
SYM_TERMINAL
10
0
20
-85.344
40
1.778
1
E4
0
INSERT
2
STK_TOP_44
8
0
10
5.6
20
-8
0
TEXT
8
SYM_TERMINAL
10
0
20
-88.392
40
1.778
1
E5
0
INSERT
2
STK_TOP_44
8
0
10
5.5
20
-10
0
TEXT
8
SYM_TERMINAL
10
0
20
-91.44
40
1.778
1
E6
0
INSERT
2
STK_TOP_44
8
0
10
7
20
0
0
TEXT
8
SYM_TERMINAL
10
0
20
-94.488
40
1.778
1
F1
0
INSERT
2
STK_TOP_44
8
0
10
6.9
20
-2
0
TEXT
8
SYM_TERMINAL
10
0
20
-97.536
40
1.778
1
F2
0
INSERT
2
STK_TOP_44
8
0
10
7
20
-4
0
TEXT
8
SYM_TERMINAL
10
0
20
-100.584
40
1.778
1
F3
0
INSERT
2
STK_TOP_44
8
0
10
6.9
20
-6
0
TEXT
8
SYM_TERMINAL
10
0
20
-103.632
40
1.778
1
F4
0
INSERT
2
STK_TOP_44
8
0
10
7
20
-8
0
TEXT
8
SYM_TERMINAL
10
0
20
-106.68
40
1.778
1
F5
0
INSERT
2
STK_TOP_44
8
0
10
6.9
20
-10
0
TEXT
8
SYM_TERMINAL
10
0
20
-109.728
40
1.778
1
F6
0
INSERT
2
STK_TOP_44
8
0
10
8.4
20
0
0
TEXT
8
SYM_TERMINAL
10
0
20
-112.776
40
1.778
1
G1
0
INSERT
2
STK_TOP_44
8
0
10
8.3
20
-2
0
TEXT
8
SYM_TERMINAL
10
0
20
-115.824
40
1.778
1
G2
0
INSERT
2
STK_TOP_44
8
0
10
8.4
20
-4
0
TEXT
8
SYM_TERMINAL
10
0
20
-118.872
40
1.778
1
G3
0
INSERT
2
STK_TOP_44
8
0
10
8.3
20
-6
0
TEXT
8
SYM_TERMINAL
10
0
20
-121.92
40
1.778
1
G4
0
INSERT
2
STK_TOP_44
8
0
10
8.4
20
-8
0
TEXT
8
SYM_TERMINAL
10
0
20
-124.968
40
1.778
1
G5
0
INSERT
2
STK_TOP_44
8
0
10
8.3
20
-10
0
TEXT
8
SYM_TERMINAL
10
0
20
-128.016
40
1.778
1
G6
0
INSERT
2
STK_TOP_44
8
0
10
9.8
20
0
0
TEXT
8
SYM_TERMINAL
10
0
20
-131.064
40
1.778
1
H1
0
INSERT
2
STK_TOP_44
8
0
10
9.7
20
-2
0
TEXT
8
SYM_TERMINAL
10
0
20
-134.112
40
1.778
1
H2
0
INSERT
2
STK_TOP_44
8
0
10
9.8
20
-4
0
TEXT
8
SYM_TERMINAL
10
0
20
-137.16
40
1.778
1
H3
0
INSERT
2
STK_TOP_44
8
0
10
9.7
20
-6
0
TEXT
8
SYM_TERMINAL
10
0
20
-140.208
40
1.778
1
H4
0
INSERT
2
STK_TOP_44
8
0
10
9.8
20
-8
0
TEXT
8
SYM_TERMINAL
10
0
20
-143.256
40
1.778
1
H5
0
INSERT
2
STK_TOP_44
8
0
10
9.7
20
-10
0
TEXT
8
SYM_TERMINAL
10
0
20
-146.304
40
1.778
1
H6
0
INSERT
2
STK_TOP_44
8
0
10
11.2
20
0
0
TEXT
8
SYM_TERMINAL
10
0
20
-149.352
40
1.778
1
I1
0
INSERT
2
STK_TOP_44
8
0
10
11.1
20
-2
0
TEXT
8
SYM_TERMINAL
10
0
20
-152.4
40
1.778
1
I2
0
INSERT
2
STK_TOP_44
8
0
10
11.2
20
-4
0
TEXT
8
SYM_TERMINAL
10
0
20
-155.448
40
1.778
1
I3
0
INSERT
2
STK_TOP_44
8
0
10
11.1
20
-6
0
TEXT
8
SYM_TERMINAL
10
0
20
-158.496
40
1.778
1
I4
0
INSERT
2
STK_TOP_44
8
0
10
11.2
20
-8
0
TEXT
8
SYM_TERMINAL
10
0
20
-161.544
40
1.778
1
I5
0
INSERT
2
STK_TOP_44
8
0
10
11.1
20
-10
0
TEXT
8
SYM_TERMINAL
10
0
20
-164.592
40
1.778
1
I6
0
ENDBLK
0
BLOCK
2
PKG_7
8
0
10
0
20
0
3
PKG_7
70
64
0
TEXT
8
PKG_INFO
10
0
20
0
40
1.778
1
*SYM:= 11
0
TEXT
8
PKG_INFO
10
0
20
-3.048
40
1.778
1
*PKG:= 0 CON-54_AIRMAX_2ARRAY TTL
0
TEXT
8
PKG_INFO
10
0
20
-6.096
40
1.778
1
*GATE:=0
0
TEXT
8
PKG_INFO
10
0
20
-9.144
40
1.778
1
*GATEPIN:= 0 5 A1 A1
0
TEXT
8
PKG_INFO
10
0
20
-12.192
40
1.778
1
*GATEPIN:= 0 5 A2 A2
0
TEXT
8
PKG_INFO
10
0
20
-15.24
40
1.778
1
*GATEPIN:= 0 5 A3 A3
0
TEXT
8
PKG_INFO
10
0
20
-18.288
40
1.778
1
*GATEPIN:= 0 5 A4 A4
0
TEXT
8
PKG_INFO
10
0
20
-21.336
40
1.778
1
*GATEPIN:= 0 5 A5 A5
0
TEXT
8
PKG_INFO
10
0
20
-24.384
40
1.778
1
*GATEPIN:= 0 5 A6 A6
0
TEXT
8
PKG_INFO
10
0
20
-27.432
40
1.778
1
*GATEPIN:= 0 5 B1 B1
0
TEXT
8
PKG_INFO
10
0
20
-30.48
40
1.778
1
*GATEPIN:= 0 5 B2 B2
0
TEXT
8
PKG_INFO
10
0
20
-33.528
40
1.778
1
*GATEPIN:= 0 5 B3 B3
0
TEXT
8
PKG_INFO
10
0
20
-36.576
40
1.778
1
*GATEPIN:= 0 5 B4 B4
0
TEXT
8
PKG_INFO
10
0
20
-39.624
40
1.778
1
*GATEPIN:= 0 5 B5 B5
0
TEXT
8
PKG_INFO
10
0
20
-42.672
40
1.778
1
*GATEPIN:= 0 5 B6 B6
0
TEXT
8
PKG_INFO
10
0
20
-45.72
40
1.778
1
*GATEPIN:= 0 5 C1 C1
0
TEXT
8
PKG_INFO
10
0
20
-48.768
40
1.778
1
*GATEPIN:= 0 5 C2 C2
0
TEXT
8
PKG_INFO
10
0
20
-51.816
40
1.778
1
*GATEPIN:= 0 5 C3 C3
0
TEXT
8
PKG_INFO
10
0
20
-54.864
40
1.778
1
*GATEPIN:= 0 5 C4 C4
0
TEXT
8
PKG_INFO
10
0
20
-57.912
40
1.778
1
*GATEPIN:= 0 5 C5 C5
0
TEXT
8
PKG_INFO
10
0
20
-60.96
40
1.778
1
*GATEPIN:= 0 5 C6 C6
0
TEXT
8
PKG_INFO
10
0
20
-64.008
40
1.778
1
*GATEPIN:= 0 5 D1 D1
0
TEXT
8
PKG_INFO
10
0
20
-67.056
40
1.778
1
*GATEPIN:= 0 5 D2 D2
0
TEXT
8
PKG_INFO
10
0
20
-70.104
40
1.778
1
*GATEPIN:= 0 5 D3 D3
0
TEXT
8
PKG_INFO
10
0
20
-73.152
40
1.778
1
*GATEPIN:= 0 5 D4 D4
0
TEXT
8
PKG_INFO
10
0
20
-76.2
40
1.778
1
*GATEPIN:= 0 5 D5 D5
0
TEXT
8
PKG_INFO
10
0
20
-79.248
40
1.778
1
*GATEPIN:= 0 5 D6 D6
0
TEXT
8
PKG_INFO
10
0
20
-82.296
40
1.778
1
*GATEPIN:= 0 5 E1 E1
0
TEXT
8
PKG_INFO
10
0
20
-85.344
40
1.778
1
*GATEPIN:= 0 5 E2 E2
0
TEXT
8
PKG_INFO
10
0
20
-88.392
40
1.778
1
*GATEPIN:= 0 5 E3 E3
0
TEXT
8
PKG_INFO
10
0
20
-91.44
40
1.778
1
*GATEPIN:= 0 5 E4 E4
0
TEXT
8
PKG_INFO
10
0
20
-94.488
40
1.778
1
*GATEPIN:= 0 5 E5 E5
0
TEXT
8
PKG_INFO
10
0
20
-97.536
40
1.778
1
*GATEPIN:= 0 5 E6 E6
0
TEXT
8
PKG_INFO
10
0
20
-100.584
40
1.778
1
*GATEPIN:= 0 5 F1 F1
0
TEXT
8
PKG_INFO
10
0
20
-103.632
40
1.778
1
*GATEPIN:= 0 5 F2 F2
0
TEXT
8
PKG_INFO
10
0
20
-106.68
40
1.778
1
*GATEPIN:= 0 5 F3 F3
0
TEXT
8
PKG_INFO
10
0
20
-109.728
40
1.778
1
*GATEPIN:= 0 5 F4 F4
0
TEXT
8
PKG_INFO
10
0
20
-112.776
40
1.778
1
*GATEPIN:= 0 5 F5 F5
0
TEXT
8
PKG_INFO
10
0
20
-115.824
40
1.778
1
*GATEPIN:= 0 5 F6 F6
0
TEXT
8
PKG_INFO
10
0
20
-118.872
40
1.778
1
*GATEPIN:= 0 5 G1 G1
0
TEXT
8
PKG_INFO
10
0
20
-121.92
40
1.778
1
*GATEPIN:= 0 5 G2 G2
0
TEXT
8
PKG_INFO
10
0
20
-124.968
40
1.778
1
*GATEPIN:= 0 5 G3 G3
0
TEXT
8
PKG_INFO
10
0
20
-128.016
40
1.778
1
*GATEPIN:= 0 5 G4 G4
0
TEXT
8
PKG_INFO
10
0
20
-131.064
40
1.778
1
*GATEPIN:= 0 5 G5 G5
0
TEXT
8
PKG_INFO
10
0
20
-134.112
40
1.778
1
*GATEPIN:= 0 5 G6 G6
0
TEXT
8
PKG_INFO
10
0
20
-137.16
40
1.778
1
*GATEPIN:= 0 5 H1 H1
0
TEXT
8
PKG_INFO
10
0
20
-140.208
40
1.778
1
*GATEPIN:= 0 5 H2 H2
0
TEXT
8
PKG_INFO
10
0
20
-143.256
40
1.778
1
*GATEPIN:= 0 5 H3 H3
0
TEXT
8
PKG_INFO
10
0
20
-146.304
40
1.778
1
*GATEPIN:= 0 5 H4 H4
0
TEXT
8
PKG_INFO
10
0
20
-149.352
40
1.778
1
*GATEPIN:= 0 5 H5 H5
0
TEXT
8
PKG_INFO
10
0
20
-152.4
40
1.778
1
*GATEPIN:= 0 5 H6 H6
0
TEXT
8
PKG_INFO
10
0
20
-155.448
40
1.778
1
*GATEPIN:= 0 5 I1 I1
0
TEXT
8
PKG_INFO
10
0
20
-158.496
40
1.778
1
*GATEPIN:= 0 5 I2 I2
0
TEXT
8
PKG_INFO
10
0
20
-161.544
40
1.778
1
*GATEPIN:= 0 5 I3 I3
0
TEXT
8
PKG_INFO
10
0
20
-164.592
40
1.778
1
*GATEPIN:= 0 5 I4 I4
0
TEXT
8
PKG_INFO
10
0
20
-167.64
40
1.778
1
*GATEPIN:= 0 5 I5 I5
0
TEXT
8
PKG_INFO
10
0
20
-170.688
40
1.778
1
*GATEPIN:= 0 5 I6 I6
0
ENDBLK
0
BLOCK
2
SYM_TOP_4
8
0
10
0
20
0
3
SYM_TOP_4
70
64
0
TEXT
8
SYM_NAME
10
0
20
0
40
1.4224
1
C0805
41
0.75
0
TEXT
8
SYM_PART_NAME_26
10
-1.5
20
1.5
40
1.0668
1
 
41
0.75
7
W0$2032R0
0
TEXT
8
SYM_PART_TYPE_26
10
-1.5
20
-1
40
1.0668
1
 
73
2
11
-1.5
21
-1
41
0.75
7
W0$2032R0
0
TEXT
8
SYM_PART_NAME_27
10
-1.5
20
-0.5
40
1.0668
1
 
41
0.75
7
W0$2032R0
0
INSERT
2
PART_BODY_TOP_3
8
0
10
0
20
0
0
INSERT
2
STK_TOP_5
8
0
10
-0.95
20
0
0
TEXT
8
SYM_TERMINAL
10
0
20
-3.048
40
1.778
1
1
0
INSERT
2
STK_TOP_5
8
0
10
0.95
20
0
0
TEXT
8
SYM_TERMINAL
10
0
20
-6.096
40
1.778
1
2
0
ENDBLK
0
BLOCK
2
PKG_9
8
0
10
0
20
0
3
PKG_9
70
64
0
TEXT
8
PKG_INFO
10
0
20
0
40
1.778
1
*SYM:= 4
0
TEXT
8
PKG_INFO
10
0
20
-3.048
40
1.778
1
*PKG:= 0 CAP_4.7UF_25V_0803 CAP
0
TEXT
8
PKG_INFO
10
0
20
-6.096
40
1.778
1
*GATE:=1
0
TEXT
8
PKG_INFO
10
0
20
-9.144
40
1.778
1
*GATEPIN:= 0 1 1 <>
0
TEXT
8
PKG_INFO
10
0
20
-12.192
40
1.778
1
*GATEPIN:= 0 1 2 <>
0
ENDBLK
0
BLOCK
2
SYM_TOP_12
8
0
10
0
20
0
3
SYM_TOP_12
70
64
0
TEXT
8
SYM_NAME
10
0
20
0
40
1.4224
1
FID
41
0.75
0
INSERT
2
PART_BODY_TOP_340
8
0
10
0
20
0
0
INSERT
2
STK_TOP_63
8
0
10
0
20
0
0
TEXT
8
SYM_TERMINAL
10
0
20
-3.048
40
1.778
1
1
0
ENDBLK
0
BLOCK
2
PKG_10
8
0
10
0
20
0
3
PKG_10
70
64
0
TEXT
8
PKG_INFO
10
0
20
0
40
1.778
1
*SYM:= 12
0
TEXT
8
PKG_INFO
10
0
20
-3.048
40
1.778
1
*PKG:= 0 FID UND
0
TEXT
8
PKG_INFO
10
0
20
-6.096
40
1.778
1
*GATE:=0
0
TEXT
8
PKG_INFO
10
0
20
-9.144
40
1.778
1
*GATEPIN:= 0 9 1 <>
0
ENDBLK
0
BLOCK
2
PART_BODY_TOP_2
8
0
10
0
20
0
3
PART_BODY_TOP_2
70
64
0
POLYLINE
8
PART_TOP_2DLINE_27
66
1
40
0.1
41
0.1
70
1
0
VERTEX
8
PART_TOP_2DLINE_27
10
-3.8
20
-6.604
0
VERTEX
8
PART_TOP_2DLINE_27
10
3.8
20
-6.604
0
VERTEX
8
PART_TOP_2DLINE_27
10
3.8
20
6.604
0
VERTEX
8
PART_TOP_2DLINE_27
10
-3.8
20
6.604
0
SEQEND
0
INSERT
2
SMOOTH_0$1
8
PART_TOP_2DLINE_27
10
-3.8
20
-6.604
0
INSERT
2
SMOOTH_0$1
8
PART_TOP_2DLINE_27
10
3.8
20
-6.604
0
INSERT
2
SMOOTH_0$1
8
PART_TOP_2DLINE_27
10
3.8
20
6.604
0
INSERT
2
SMOOTH_0$1
8
PART_TOP_2DLINE_27
10
-3.8
20
6.604
0
POLYLINE
8
PART_TOP_2DLINE_27
66
1
40
0.1
41
0.1
70
1
0
VERTEX
8
PART_TOP_2DLINE_27
10
-3.3
20
4.25
42
1
0
VERTEX
8
PART_TOP_2DLINE_27
10
-2.3
20
4.25
42
1
0
SEQEND
0
POLYLINE
8
PART_TOP_2DLINE_26
66
1
40
0.25
41
0.25
70
1
0
VERTEX
8
PART_TOP_2DLINE_26
10
-5.575
20
5.3
42
1
0
VERTEX
8
PART_TOP_2DLINE_26
10
-5.325
20
5.3
42
1
0
SEQEND
0
POLYLINE
8
PART_TOP_2DLINE_25
66
1
40
0.001
41
0.001
70
1
0
VERTEX
8
PART_TOP_2DLINE_25
10
-3.8
20
-5.25
0
VERTEX
8
PART_TOP_2DLINE_25
10
3.8
20
-5.25
0
VERTEX
8
PART_TOP_2DLINE_25
10
3.8
20
5.25
0
VERTEX
8
PART_TOP_2DLINE_25
10
-3.8
20
5.25
0
SEQEND
0
INSERT
2
SMOOTH_0$001
8
PART_TOP_2DLINE_25
10
-3.8
20
-5.25
0
INSERT
2
SMOOTH_0$001
8
PART_TOP_2DLINE_25
10
3.8
20
-5.25
0
INSERT
2
SMOOTH_0$001
8
PART_TOP_2DLINE_25
10
3.8
20
5.25
0
INSERT
2
SMOOTH_0$001
8
PART_TOP_2DLINE_25
10
-3.8
20
5.25
0
POLYLINE
8
PART_TOP_2DLINE_20
66
1
40
0.05
41
0.05
70
1
0
VERTEX
8
PART_TOP_2DLINE_20
10
-5.95
20
-6.985
0
VERTEX
8
PART_TOP_2DLINE_20
10
5.95
20
-6.985
0
VERTEX
8
PART_TOP_2DLINE_20
10
5.95
20
6.985
0
VERTEX
8
PART_TOP_2DLINE_20
10
-5.95
20
6.985
0
SEQEND
0
INSERT
2
SMOOTH_0$05
8
PART_TOP_2DLINE_20
10
-5.95
20
-6.985
0
INSERT
2
SMOOTH_0$05
8
PART_TOP_2DLINE_20
10
5.95
20
-6.985
0
INSERT
2
SMOOTH_0$05
8
PART_TOP_2DLINE_20
10
5.95
20
6.985
0
INSERT
2
SMOOTH_0$05
8
PART_TOP_2DLINE_20
10
-5.95
20
6.985
0
POLYLINE
8
PART_TOP_2DLINE_20
66
1
40
0.05
41
0.05
0
VERTEX
8
PART_TOP_2DLINE_20
10
0
20
0.5
0
VERTEX
8
PART_TOP_2DLINE_20
10
0
20
-0.5
0
SEQEND
0
INSERT
2
SMOOTH_0$05
8
PART_TOP_2DLINE_20
10
0
20
0.5
0
INSERT
2
SMOOTH_0$05
8
PART_TOP_2DLINE_20
10
0
20
-0.5
0
POLYLINE
8
PART_TOP_2DLINE_20
66
1
40
0.05
41
0.05
0
VERTEX
8
PART_TOP_2DLINE_20
10
0.5
20
0
0
VERTEX
8
PART_TOP_2DLINE_20
10
-0.5
20
0
0
SEQEND
0
INSERT
2
SMOOTH_0$05
8
PART_TOP_2DLINE_20
10
0.5
20
0
0
INSERT
2
SMOOTH_0$05
8
PART_TOP_2DLINE_20
10
-0.5
20
0
0
POLYLINE
8
PART_TOP_2DLINE_26
66
1
40
0.2
41
0.2
70
1
0
VERTEX
8
PART_TOP_2DLINE_26
10
-3.35
20
-6.604
0
VERTEX
8
PART_TOP_2DLINE_26
10
3.35
20
-6.604
0
VERTEX
8
PART_TOP_2DLINE_26
10
3.35
20
6.604
0
VERTEX
8
PART_TOP_2DLINE_26
10
-3.35
20
6.604
0
SEQEND
0
INSERT
2
SMOOTH_0$2
8
PART_TOP_2DLINE_26
10
-3.35
20
-6.604
0
INSERT
2
SMOOTH_0$2
8
PART_TOP_2DLINE_26
10
3.35
20
-6.604
0
INSERT
2
SMOOTH_0$2
8
PART_TOP_2DLINE_26
10
3.35
20
6.604
0
INSERT
2
SMOOTH_0$2
8
PART_TOP_2DLINE_26
10
-3.35
20
6.604
0
POLYLINE
8
PART_TOP_2DLINE_26
66
1
40
0.6
41
0.6
70
1
0
VERTEX
8
PART_TOP_2DLINE_26
10
-2.65
20
4.25
42
1
0
VERTEX
8
PART_TOP_2DLINE_26
10
-2.05
20
4.25
42
1
0
SEQEND
0
ENDBLK
0
BLOCK
2
STK_TOP_4
8
0
10
0
20
0
3
STK_TOP_4
70
64
0
INSERT
2
DRIL_HOLE_0
8
DRIL_NPLTE_THRU_01
10
0
20
0
0
INSERT
2
DRIL_HOLE_0
8
DRIL_NPLTE_THRU_02
10
0
20
0
0
INSERT
2
DRIL_HOLE_0
8
DRIL_NPLTE_THRU_03
10
0
20
0
0
INSERT
2
DRIL_HOLE_0
8
DRIL_NPLTE_THRU_04
10
0
20
0
0
INSERT
2
PAD_0
8
PADS_INNER
10
0
20
0
0
INSERT
2
PAD_0
8
PADS_BOT
10
0
20
0
0
INSERT
2
PAD_1
8
PADS_XR_21
10
0
20
0
0
INSERT
2
PAD_1
8
PADS_XR_23
10
0
20
0
0
INSERT
2
PAD_1
8
PADS_XR_27
10
0
20
0
0
INSERT
2
PAD_1
8
PADS_TOP
10
0
20
0
0
ENDBLK
0
BLOCK
2
PART_BODY_TOP_7
8
0
10
0
20
0
3
PART_BODY_TOP_7
70
64
0
POLYLINE
8
PART_TOP_2DLINE_26
66
1
40
0.254
41
0.254
70
1
0
VERTEX
8
PART_TOP_2DLINE_26
10
-2.54
20
11.684
0
VERTEX
8
PART_TOP_2DLINE_26
10
30.988
20
11.684
0
VERTEX
8
PART_TOP_2DLINE_26
10
30.988
20
-5.588
0
VERTEX
8
PART_TOP_2DLINE_26
10
-2.54
20
-5.588
0
SEQEND
0
INSERT
2
SMOOTH_0$254
8
PART_TOP_2DLINE_26
10
-2.54
20
11.684
0
INSERT
2
SMOOTH_0$254
8
PART_TOP_2DLINE_26
10
30.988
20
11.684
0
INSERT
2
SMOOTH_0$254
8
PART_TOP_2DLINE_26
10
30.988
20
-5.588
0
INSERT
2
SMOOTH_0$254
8
PART_TOP_2DLINE_26
10
-2.54
20
-5.588
0
POLYLINE
8
PART_TOP_2DLINE_27
66
1
40
0.254
41
0.254
70
1
0
VERTEX
8
PART_TOP_2DLINE_27
10
-2.54
20
11.684
0
VERTEX
8
PART_TOP_2DLINE_27
10
30.988
20
11.684
0
VERTEX
8
PART_TOP_2DLINE_27
10
30.988
20
-5.588
0
VERTEX
8
PART_TOP_2DLINE_27
10
-2.54
20
-5.588
0
SEQEND
0
INSERT
2
SMOOTH_0$254
8
PART_TOP_2DLINE_27
10
-2.54
20
11.684
0
INSERT
2
SMOOTH_0$254
8
PART_TOP_2DLINE_27
10
30.988
20
11.684
0
INSERT
2
SMOOTH_0$254
8
PART_TOP_2DLINE_27
10
30.988
20
-5.588
0
INSERT
2
SMOOTH_0$254
8
PART_TOP_2DLINE_27
10
-2.54
20
-5.588
0
ENDBLK
0
BLOCK
2
STK_TOP_9
8
0
10
0
20
0
3
STK_TOP_9
70
64
0
INSERT
2
DRIL_HOLE_0$9144
8
DRIL_PLTE_THRU_01
10
0
20
0
0
INSERT
2
DRIL_HOLE_0$9144
8
DRIL_PLTE_THRU_02
10
0
20
0
0
INSERT
2
DRIL_HOLE_0$9144
8
DRIL_PLTE_THRU_03
10
0
20
0
0
INSERT
2
DRIL_HOLE_0$9144
8
DRIL_PLTE_THRU_04
10
0
20
0
0
INSERT
2
PAD_2
8
PADS_INNER
10
0
20
0
0
INSERT
2
PAD_2
8
PADS_BOT
10
0
20
0
0
INSERT
2
PAD_2
8
PADS_TOP
10
0
20
0
0
ENDBLK
0
BLOCK
2
STK_TOP_10
8
0
10
0
20
0
3
STK_TOP_10
70
64
0
INSERT
2
DRIL_HOLE_3$302
8
DRIL_PLTE_THRU_01
10
0
20
0
0
INSERT
2
DRIL_HOLE_3$302
8
DRIL_PLTE_THRU_02
10
0
20
0
0
INSERT
2
DRIL_HOLE_3$302
8
DRIL_PLTE_THRU_03
10
0
20
0
0
INSERT
2
DRIL_HOLE_3$302
8
DRIL_PLTE_THRU_04
10
0
20
0
0
INSERT
2
PAD_3
8
PADS_INNER
10
0
20
0
0
INSERT
2
PAD_3
8
PADS_BOT
10
0
20
0
0
INSERT
2
PAD_3
8
PADS_TOP
10
0
20
0
0
ENDBLK
0
BLOCK
2
STK_TOP_11
8
0
10
0
20
0
3
STK_TOP_11
70
64
0
INSERT
2
DRIL_HOLE_1$651
8
DRIL_PLTE_THRU_01
10
0
20
0
0
INSERT
2
DRIL_HOLE_1$651
8
DRIL_PLTE_THRU_02
10
0
20
0
0
INSERT
2
DRIL_HOLE_1$651
8
DRIL_PLTE_THRU_03
10
0
20
0
0
INSERT
2
DRIL_HOLE_1$651
8
DRIL_PLTE_THRU_04
10
0
20
0
0
INSERT
2
PAD_4
8
PADS_INNER
10
0
20
0
0
INSERT
2
PAD_4
8
PADS_BOT
10
0
20
0
0
INSERT
2
PAD_4
8
PADS_TOP
10
0
20
0
0
ENDBLK
0
BLOCK
2
PART_BODY_TOP_10
8
0
10
0
20
0
3
PART_BODY_TOP_10
70
64
0
POLYLINE
8
PART_TOP_2DLINE_26
66
1
40
0.254
41
0.254
70
1
0
VERTEX
8
PART_TOP_2DLINE_26
10
-5.4
20
16.2
0
VERTEX
8
PART_TOP_2DLINE_26
10
5.4
20
16.2
0
VERTEX
8
PART_TOP_2DLINE_26
10
5.4
20
-15.7
0
VERTEX
8
PART_TOP_2DLINE_26
10
-5.4
20
-15.7
0
SEQEND
0
INSERT
2
SMOOTH_0$254
8
PART_TOP_2DLINE_26
10
-5.4
20
16.2
0
INSERT
2
SMOOTH_0$254
8
PART_TOP_2DLINE_26
10
5.4
20
16.2
0
INSERT
2
SMOOTH_0$254
8
PART_TOP_2DLINE_26
10
5.4
20
-15.7
0
INSERT
2
SMOOTH_0$254
8
PART_TOP_2DLINE_26
10
-5.4
20
-15.7
0
POLYLINE
8
PART_TOP_2DLINE_26
66
1
40
0.254
41
0.254
0
VERTEX
8
PART_TOP_2DLINE_26
10
-5.4
20
-5
0
VERTEX
8
PART_TOP_2DLINE_26
10
5.4
20
-5
0
SEQEND
0
INSERT
2
SMOOTH_0$254
8
PART_TOP_2DLINE_26
10
-5.4
20
-5
0
INSERT
2
SMOOTH_0$254
8
PART_TOP_2DLINE_26
10
5.4
20
-5
0
POLYLINE
8
PART_TOP_2DLINE_27
66
1
40
0.254
41
0.254
70
1
0
VERTEX
8
PART_TOP_2DLINE_27
10
-5.4
20
16.2
0
VERTEX
8
PART_TOP_2DLINE_27
10
5.4
20
16.2
0
VERTEX
8
PART_TOP_2DLINE_27
10
5.4
20
-15.7
0
VERTEX
8
PART_TOP_2DLINE_27
10
-5.4
20
-15.7
0
SEQEND
0
INSERT
2
SMOOTH_0$254
8
PART_TOP_2DLINE_27
10
-5.4
20
16.2
0
INSERT
2
SMOOTH_0$254
8
PART_TOP_2DLINE_27
10
5.4
20
16.2
0
INSERT
2
SMOOTH_0$254
8
PART_TOP_2DLINE_27
10
5.4
20
-15.7
0
INSERT
2
SMOOTH_0$254
8
PART_TOP_2DLINE_27
10
-5.4
20
-15.7
0
POLYLINE
8
PART_TOP_2DLINE_27
66
1
40
0.254
41
0.254
0
VERTEX
8
PART_TOP_2DLINE_27
10
-5.4
20
-5.5
0
VERTEX
8
PART_TOP_2DLINE_27
10
5.4
20
-5.5
0
SEQEND
0
INSERT
2
SMOOTH_0$254
8
PART_TOP_2DLINE_27
10
-5.4
20
-5.5
0
INSERT
2
SMOOTH_0$254
8
PART_TOP_2DLINE_27
10
5.4
20
-5.5
0
ENDBLK
0
BLOCK
2
STK_TOP_16
8
0
10
0
20
0
3
STK_TOP_16
70
64
0
INSERT
2
DRIL_HOLE_4
8
DRIL_PLTE_THRU_01
10
0
20
0
0
INSERT
2
DRIL_HOLE_4
8
DRIL_PLTE_THRU_02
10
0
20
0
0
INSERT
2
DRIL_HOLE_4
8
DRIL_PLTE_THRU_03
10
0
20
0
0
INSERT
2
DRIL_HOLE_4
8
DRIL_PLTE_THRU_04
10
0
20
0
0
INSERT
2
PAD_5
8
PADS_INNER
10
0
20
0
0
INSERT
2
PAD_5
8
PADS_BOT
10
0
20
0
0
INSERT
2
PAD_5
8
PADS_TOP
10
0
20
0
0
ENDBLK
0
BLOCK
2
PART_BODY_TOP_11
8
0
10
0
20
0
3
PART_BODY_TOP_11
70
64
0
POLYLINE
8
PART_TOP_2DLINE_26
66
1
40
0.254
41
0.254
70
1
0
VERTEX
8
PART_TOP_2DLINE_26
10
-2
20
2
0
VERTEX
8
PART_TOP_2DLINE_26
10
15.4
20
2
0
VERTEX
8
PART_TOP_2DLINE_26
10
15.4
20
-12
0
VERTEX
8
PART_TOP_2DLINE_26
10
-2
20
-12
0
SEQEND
0
INSERT
2
SMOOTH_0$254
8
PART_TOP_2DLINE_26
10
-2
20
2
0
INSERT
2
SMOOTH_0$254
8
PART_TOP_2DLINE_26
10
15.4
20
2
0
INSERT
2
SMOOTH_0$254
8
PART_TOP_2DLINE_26
10
15.4
20
-12
0
INSERT
2
SMOOTH_0$254
8
PART_TOP_2DLINE_26
10
-2
20
-12
0
POLYLINE
8
PART_TOP_2DLINE_27
66
1
40
0.254
41
0.254
70
1
0
VERTEX
8
PART_TOP_2DLINE_27
10
-2
20
2
0
VERTEX
8
PART_TOP_2DLINE_27
10
15.4
20
2
0
VERTEX
8
PART_TOP_2DLINE_27
10
15.4
20
-12
0
VERTEX
8
PART_TOP_2DLINE_27
10
-2
20
-12
0
SEQEND
0
INSERT
2
SMOOTH_0$254
8
PART_TOP_2DLINE_27
10
-2
20
2
0
INSERT
2
SMOOTH_0$254
8
PART_TOP_2DLINE_27
10
15.4
20
2
0
INSERT
2
SMOOTH_0$254
8
PART_TOP_2DLINE_27
10
15.4
20
-12
0
INSERT
2
SMOOTH_0$254
8
PART_TOP_2DLINE_27
10
-2
20
-12
0
TEXT
8
PART_TOP_TEXT_26
10
15.9
20
-0.5
40
1.0668
1
1
41
0.75
7
W0$1524
0
TEXT
8
PART_TOP_TEXT_26
10
0.6
20
3.6
40
1.0668
1
A1
50
180
41
0.75
7
W0$1524
0
TEXT
8
PART_TOP_TEXT_26
10
15.9
20
-10.5
40
1.0668
1
6
41
0.75
7
W0$1524
0
TEXT
8
PART_TOP_TEXT_26
10
15.9
20
-8.4
40
1.0668
1
5
41
0.75
7
W0$1524
0
TEXT
8
PART_TOP_TEXT_26
10
15.9
20
-6.5
40
1.0668
1
4
41
0.75
7
W0$1524
0
TEXT
8
PART_TOP_TEXT_26
10
15.9
20
-4.4
40
1.0668
1
3
41
0.75
7
W0$1524
0
TEXT
8
PART_TOP_TEXT_26
10
15.9
20
-2.5
40
1.0668
1
2
41
0.75
7
W0$1524
0
ENDBLK
0
BLOCK
2
STK_TOP_44
8
0
10
0
20
0
3
STK_TOP_44
70
64
0
INSERT
2
DRIL_HOLE_0$50038
8
DRIL_PLTE_THRU_01
10
0
20
0
0
INSERT
2
DRIL_HOLE_0$50038
8
DRIL_PLTE_THRU_02
10
0
20
0
0
INSERT
2
DRIL_HOLE_0$50038
8
DRIL_PLTE_THRU_03
10
0
20
0
0
INSERT
2
DRIL_HOLE_0$50038
8
DRIL_PLTE_THRU_04
10
0
20
0
0
INSERT
2
PAD_6
8
PADS_INNER
10
0
20
0
0
INSERT
2
PAD_6
8
PADS_BOT
10
0
20
0
0
INSERT
2
PAD_6
8
PADS_TOP
10
0
20
0
0
ENDBLK
0
BLOCK
2
PART_BODY_TOP_3
8
0
10
0
20
0
3
PART_BODY_TOP_3
70
64
0
POLYLINE
8
PART_TOP_2DLINE_26
66
1
40
0.2032
41
0.2032
0
VERTEX
8
PART_TOP_2DLINE_26
10
-2
20
-1
0
VERTEX
8
PART_TOP_2DLINE_26
10
2
20
-1
0
VERTEX
8
PART_TOP_2DLINE_26
10
2
20
1
0
VERTEX
8
PART_TOP_2DLINE_26
10
-2
20
1
0
VERTEX
8
PART_TOP_2DLINE_26
10
-2
20
-1
0
SEQEND
0
INSERT
2
SMOOTH_0$2032
8
PART_TOP_2DLINE_26
10
-2
20
-1
0
INSERT
2
SMOOTH_0$2032
8
PART_TOP_2DLINE_26
10
2
20
-1
0
INSERT
2
SMOOTH_0$2032
8
PART_TOP_2DLINE_26
10
2
20
1
0
INSERT
2
SMOOTH_0$2032
8
PART_TOP_2DLINE_26
10
-2
20
1
0
INSERT
2
SMOOTH_0$2032
8
PART_TOP_2DLINE_26
10
-2
20
-1
0
POLYLINE
8
PART_TOP_2DLINE_27
66
1
40
0.2032
41
0.2032
0
VERTEX
8
PART_TOP_2DLINE_27
10
-2
20
-1
0
VERTEX
8
PART_TOP_2DLINE_27
10
2
20
-1
0
VERTEX
8
PART_TOP_2DLINE_27
10
2
20
1
0
VERTEX
8
PART_TOP_2DLINE_27
10
-2
20
1
0
VERTEX
8
PART_TOP_2DLINE_27
10
-2
20
-1
0
SEQEND
0
INSERT
2
SMOOTH_0$2032
8
PART_TOP_2DLINE_27
10
-2
20
-1
0
INSERT
2
SMOOTH_0$2032
8
PART_TOP_2DLINE_27
10
2
20
-1
0
INSERT
2
SMOOTH_0$2032
8
PART_TOP_2DLINE_27
10
2
20
1
0
INSERT
2
SMOOTH_0$2032
8
PART_TOP_2DLINE_27
10
-2
20
1
0
INSERT
2
SMOOTH_0$2032
8
PART_TOP_2DLINE_27
10
-2
20
-1
0
ENDBLK
0
BLOCK
2
STK_TOP_5
8
0
10
0
20
0
3
STK_TOP_5
70
64
0
INSERT
2
DRIL_HOLE_0
8
DRIL_PLTE_THRU_01
10
0
20
0
0
INSERT
2
DRIL_HOLE_0
8
DRIL_PLTE_THRU_02
10
0
20
0
0
INSERT
2
DRIL_HOLE_0
8
DRIL_PLTE_THRU_03
10
0
20
0
0
INSERT
2
DRIL_HOLE_0
8
DRIL_PLTE_THRU_04
10
0
20
0
0
INSERT
2
PAD_0
8
PADS_INNER
10
0
20
0
0
INSERT
2
PAD_0
8
PADS_BOT
10
0
20
0
0
INSERT
2
PAD_7
8
PADS_TOP
10
0
20
0
50
90
0
ENDBLK
0
BLOCK
2
PART_BODY_TOP_340
8
0
10
0
20
0
3
PART_BODY_TOP_340
70
64
0
POLYLINE
8
KEEPOUT_01
6
KEEPOUT_00011110$0
66
1
70
1
0
VERTEX
8
KEEPOUT_01
10
-1.778
20
0
42
1
0
VERTEX
8
KEEPOUT_01
10
1.778
20
0
42
1
0
SEQEND
0
POLYLINE
8
KEEPOUT_-1
6
KEEPOUT_00011110$0
66
1
70
1
0
VERTEX
8
KEEPOUT_-1
10
-1.778
20
0
42
1
0
VERTEX
8
KEEPOUT_-1
10
1.778
20
0
42
1
0
SEQEND
0
ENDBLK
0
BLOCK
2
STK_TOP_63
8
0
10
0
20
0
3
STK_TOP_63
70
64
0
INSERT
2
DRIL_HOLE_0
8
DRIL_PLTE_THRU_01
10
0
20
0
0
INSERT
2
DRIL_HOLE_0
8
DRIL_PLTE_THRU_02
10
0
20
0
0
INSERT
2
DRIL_HOLE_0
8
DRIL_PLTE_THRU_03
10
0
20
0
0
INSERT
2
DRIL_HOLE_0
8
DRIL_PLTE_THRU_04
10
0
20
0
0
INSERT
2
PAD_0
8
PADS_INNER
10
0
20
0
0
INSERT
2
PAD_2
8
PADS_BOT
10
0
20
0
0
INSERT
2
PAD_8
8
PADS_XR_21
10
0
20
0
0
INSERT
2
PAD_0
8
PADS_XR_22
10
0
20
0
0
INSERT
2
PAD_0
8
PADS_XR_23
10
0
20
0
0
INSERT
2
PAD_8
8
PADS_XR_28
10
0
20
0
0
INSERT
2
PAD_2
8
PADS_TOP
10
0
20
0
0
ENDBLK
999
*** POWERPCB  PCB PARAMETER ***
0
BLOCK
2
PCB_PARAMS
8
0
10
0
20
0
3
PCB_PARAMS
70
64
999
 *  1.Job name           2.Backupfile name       3.CursorType
999
 *  4.TearDropFlag       5.HighlighNetsFlag      6.HatchDisplayFlag
999
 *  7.PadsFlag           8.TracksFlag            9.ViasFlag
999
 * 10.CopperFlag        11.LinesFlag            12.TextFlag
999
 * 13.TopComponentFlag  14.BottomComponentFlag
0
TEXT
8
PCB_PARAMS
10
0
20
-3.048
40
1.778
1
A:=CCCNGP_EEC_REV10.pcb <> 0 1 1 1 1 0 0 0 1 1 1 0 0
999
 *  1.RefDesHeight       2.RefDesWidth           3.DefaultWidth
999
 *  4.VGX                5.VGY                   6.OVR
999
 *  7.HatchGrid
0
TEXT
8
PCB_PARAMS
10
0
20
-6.096
40
1.778
1
B:=2.032 0.254 0.254 0.127 0.127 0.0762 0.0762
999
 *  1.ScaleFactor        2.NetAttributeFlags     3.BackupInterval
999
 *  4.WorkingLevel       5.HatchMode             6.HatchDirection
999
 *  7.ConnectionColor    8.BackgroundColor       9.ForegroundColor
999
 * 10.BoardOutlineColor
0
TEXT
8
PCB_PARAMS
10
0
20
-9.144
40
1.778
1
C:=7.062833786 10002 3 1 0 0 9 0 15 15
999
 * MitreAngle0 - MitreAngle6
0
TEXT
8
PCB_PARAMS
10
0
20
-12.192
40
1.778
1
D:=324000000 324000000 324000000 324000000 324000000 324000000 324000000
999
 * Hatch & Keepout Parameters
0
TEXT
8
PCB_PARAMS
10
0
20
-15.24
40
1.778
1
E:=0.5 0 0 2.54 0 0
999
 * Fanout Parameters
0
TEXT
8
PCB_PARAMS
10
0
20
-18.288
40
1.778
1
F:=0.000254 0.000254 6.35 1 2 0 1 1 0 0 1 1 1 1
999
 * Pad Entry Parameters
0
TEXT
8
PCB_PARAMS
10
0
20
-21.336
40
1.778
1
P:= 1 1 1 1
999
 * DFF Parameters
0
TEXT
8
PCB_PARAMS
10
0
20
-24.384
40
1.778
1
Q:=45 3587 114300 114300 114300 5 4 114300 114300 114300 114300 1 114300 1 114300 1 114300 0
0
ENDBLK
0
BLOCK
2
DRIL_SYMBOL_0
8
0
10
0
20
0
3
DRIL_SYMBOL_0
70
64
0
ENDBLK
0
BLOCK
2
DRIL_SYMBOL_0$9144
8
0
10
0
20
0
3
DRIL_SYMBOL_0$9144
70
64
0
POLYLINE
8
DRIL_SYMBOL
66
1
40
0.0508
41
0.0508
0
VERTEX
8
DRIL_SYMBOL
10
0
20
-0.254
0
VERTEX
8
DRIL_SYMBOL
10
0
20
0.254
0
SEQEND
0
POLYLINE
8
DRIL_SYMBOL
66
1
40
0.0508
41
0.0508
0
VERTEX
8
DRIL_SYMBOL
10
-0.254
20
0
0
VERTEX
8
DRIL_SYMBOL
10
0.254
20
0
0
SEQEND
0
ENDBLK
0
BLOCK
2
DRIL_SYMBOL_3$302
8
0
10
0
20
0
3
DRIL_SYMBOL_3$302
70
64
0
POLYLINE
8
DRIL_SYMBOL
66
1
40
0.0508
41
0.0508
0
VERTEX
8
DRIL_SYMBOL
10
0
20
-0.254
0
VERTEX
8
DRIL_SYMBOL
10
0
20
0.254
0
SEQEND
0
POLYLINE
8
DRIL_SYMBOL
66
1
40
0.0508
41
0.0508
0
VERTEX
8
DRIL_SYMBOL
10
-0.254
20
0
0
VERTEX
8
DRIL_SYMBOL
10
0.254
20
0
0
SEQEND
0
ENDBLK
0
BLOCK
2
DRIL_SYMBOL_1$651
8
0
10
0
20
0
3
DRIL_SYMBOL_1$651
70
64
0
POLYLINE
8
DRIL_SYMBOL
66
1
40
0.0508
41
0.0508
0
VERTEX
8
DRIL_SYMBOL
10
0
20
-0.254
0
VERTEX
8
DRIL_SYMBOL
10
0
20
0.254
0
SEQEND
0
POLYLINE
8
DRIL_SYMBOL
66
1
40
0.0508
41
0.0508
0
VERTEX
8
DRIL_SYMBOL
10
-0.254
20
0
0
VERTEX
8
DRIL_SYMBOL
10
0.254
20
0
0
SEQEND
0
ENDBLK
0
BLOCK
2
DRIL_SYMBOL_4
8
0
10
0
20
0
3
DRIL_SYMBOL_4
70
64
0
POLYLINE
8
DRIL_SYMBOL
66
1
40
0.0508
41
0.0508
0
VERTEX
8
DRIL_SYMBOL
10
0
20
-0.254
0
VERTEX
8
DRIL_SYMBOL
10
0
20
0.254
0
SEQEND
0
POLYLINE
8
DRIL_SYMBOL
66
1
40
0.0508
41
0.0508
0
VERTEX
8
DRIL_SYMBOL
10
-0.254
20
0
0
VERTEX
8
DRIL_SYMBOL
10
0.254
20
0
0
SEQEND
0
ENDBLK
0
BLOCK
2
DRIL_SYMBOL_0$50038
8
0
10
0
20
0
3
DRIL_SYMBOL_0$50038
70
64
0
POLYLINE
8
DRIL_SYMBOL
66
1
40
0.0508
41
0.0508
0
VERTEX
8
DRIL_SYMBOL
10
0
20
-0.254
0
VERTEX
8
DRIL_SYMBOL
10
0
20
0.254
0
SEQEND
0
POLYLINE
8
DRIL_SYMBOL
66
1
40
0.0508
41
0.0508
0
VERTEX
8
DRIL_SYMBOL
10
-0.254
20
0
0
VERTEX
8
DRIL_SYMBOL
10
0.254
20
0
0
SEQEND
0
ENDBLK
999
*** POWERPCB  SMOOTH CIRCLE ***
0
BLOCK
2
SMOOTH_0$0254
8
0
10
0
20
0
3
SMOOTH_0$0254
70
64
0
POLYLINE
8
0
66
1
40
0.0127
41
0.0127
70
1
0
VERTEX
8
0
10
-0.00635
20
0
42
1
0
VERTEX
8
0
10
0.00635
20
0
42
1
0
SEQEND
0
ENDBLK
0
BLOCK
2
SMOOTH_0$1
8
0
10
0
20
0
3
SMOOTH_0$1
70
64
0
POLYLINE
8
0
66
1
40
0.05
41
0.05
70
1
0
VERTEX
8
0
10
-0.025
20
0
42
1
0
VERTEX
8
0
10
0.025
20
0
42
1
0
SEQEND
0
ENDBLK
0
BLOCK
2
SMOOTH_0$001
8
0
10
0
20
0
3
SMOOTH_0$001
70
64
0
POLYLINE
8
0
66
1
40
0.0005
41
0.0005
70
1
0
VERTEX
8
0
10
-0.00025
20
0
42
1
0
VERTEX
8
0
10
0.00025
20
0
42
1
0
SEQEND
0
ENDBLK
0
BLOCK
2
SMOOTH_0$05
8
0
10
0
20
0
3
SMOOTH_0$05
70
64
0
POLYLINE
8
0
66
1
40
0.025
41
0.025
70
1
0
VERTEX
8
0
10
-0.0125
20
0
42
1
0
VERTEX
8
0
10
0.0125
20
0
42
1
0
SEQEND
0
ENDBLK
0
BLOCK
2
SMOOTH_0$2
8
0
10
0
20
0
3
SMOOTH_0$2
70
64
0
POLYLINE
8
0
66
1
40
0.1
41
0.1
70
1
0
VERTEX
8
0
10
-0.05
20
0
42
1
0
VERTEX
8
0
10
0.05
20
0
42
1
0
SEQEND
0
ENDBLK
0
BLOCK
2
SMOOTH_0$254
8
0
10
0
20
0
3
SMOOTH_0$254
70
64
0
POLYLINE
8
0
66
1
40
0.127
41
0.127
70
1
0
VERTEX
8
0
10
-0.0635
20
0
42
1
0
VERTEX
8
0
10
0.0635
20
0
42
1
0
SEQEND
0
ENDBLK
0
BLOCK
2
SMOOTH_0$2032
8
0
10
0
20
0
3
SMOOTH_0$2032
70
64
0
POLYLINE
8
0
66
1
40
0.1016
41
0.1016
70
1
0
VERTEX
8
0
10
-0.0508
20
0
42
1
0
VERTEX
8
0
10
0.0508
20
0
42
1
0
SEQEND
0
ENDBLK
0
BLOCK
2
PAD_0
8
0
10
0
20
0
3
PAD_0
70
64
0
POLYLINE
8
0
70
1
66
1
0
VERTEX
8
0
10
0
20
0
42
1
0
VERTEX
8
0
10
0
20
0
42
1
0
SEQEND
0
ENDBLK
0
BLOCK
2
PAD_1
8
0
10
0
20
0
3
PAD_1
70
64
0
POLYLINE
8
0
66
1
40
0.6
41
0.6
0
VERTEX
8
0
10
-1
20
0
0
VERTEX
8
0
10
1
20
0
0
SEQEND
0
ENDBLK
0
BLOCK
2
PAD_2
8
0
10
0
20
0
3
PAD_2
70
64
0
POLYLINE
8
0
70
1
66
1
40
0.762
41
0.762
0
VERTEX
8
0
10
0
20
-0.381
42
1
0
VERTEX
8
0
10
0
20
0.381
42
1
0
SEQEND
0
ENDBLK
0
BLOCK
2
PAD_3
8
0
10
0
20
0
3
PAD_3
70
64
0
POLYLINE
8
0
70
1
66
1
40
1.905
41
1.905
0
VERTEX
8
0
10
0
20
-0.9525
42
1
0
VERTEX
8
0
10
0
20
0.9525
42
1
0
SEQEND
0
ENDBLK
0
BLOCK
2
PAD_4
8
0
10
0
20
0
3
PAD_4
70
64
0
POLYLINE
8
0
70
1
66
1
40
1.143
41
1.143
0
VERTEX
8
0
10
0
20
-0.5715
42
1
0
VERTEX
8
0
10
0
20
0.5715
42
1
0
SEQEND
0
ENDBLK
0
BLOCK
2
PAD_5
8
0
10
0
20
0
3
PAD_5
70
64
0
POLYLINE
8
0
70
1
66
1
40
2.5
41
2.5
0
VERTEX
8
0
10
0
20
-1.25
42
1
0
VERTEX
8
0
10
0
20
1.25
42
1
0
SEQEND
0
ENDBLK
0
BLOCK
2
PAD_6
8
0
10
0
20
0
3
PAD_6
70
64
0
POLYLINE
8
0
70
1
66
1
40
0.5
41
0.5
0
VERTEX
8
0
10
0
20
-0.25
42
1
0
VERTEX
8
0
10
0
20
0.25
42
1
0
SEQEND
0
ENDBLK
0
BLOCK
2
PAD_7
8
0
10
0
20
0
3
PAD_7
70
64
0
POLYLINE
8
0
66
1
40
1.3208
41
1.3208
0
VERTEX
8
0
10
-0.762
20
0
0
VERTEX
8
0
10
0.762
20
0
0
SEQEND
0
ENDBLK
0
BLOCK
2
PAD_8
8
0
10
0
20
0
3
PAD_8
70
64
0
POLYLINE
8
0
70
1
66
1
40
1.524
41
1.524
0
VERTEX
8
0
10
0
20
-0.762
42
1
0
VERTEX
8
0
10
0
20
0.762
42
1
0
SEQEND
0
ENDBLK
999
*** POWERPCB  DRILL HOLE ***
0
BLOCK
2
DRIL_HOLE_0
8
0
10
0
20
0
3
DRIL_HOLE_0
70
64
0
POLYLINE
8
0
66
1
70
1
0
VERTEX
8
0
10
0
20
0
42
1
0
VERTEX
8
0
10
0
20
0
42
1
0
SEQEND
0
INSERT
2
DRIL_SYMBOL_0
8
0
10
0
20
0
0
ENDBLK
0
BLOCK
2
DRIL_HOLE_0$9144
8
0
10
0
20
0
3
DRIL_HOLE_0$9144
70
64
0
POLYLINE
8
0
66
1
40
0.4572
41
0.4572
70
1
0
VERTEX
8
0
10
-0.2286
20
0
42
1
0
VERTEX
8
0
10
0.2286
20
0
42
1
0
SEQEND
0
INSERT
2
DRIL_SYMBOL_0$9144
8
0
10
0
20
0
0
ENDBLK
0
BLOCK
2
DRIL_HOLE_3$302
8
0
10
0
20
0
3
DRIL_HOLE_3$302
70
64
0
POLYLINE
8
0
66
1
40
1.651
41
1.651
70
1
0
VERTEX
8
0
10
-0.8255
20
0
42
1
0
VERTEX
8
0
10
0.8255
20
0
42
1
0
SEQEND
0
INSERT
2
DRIL_SYMBOL_3$302
8
0
10
0
20
0
0
ENDBLK
0
BLOCK
2
DRIL_HOLE_1$651
8
0
10
0
20
0
3
DRIL_HOLE_1$651
70
64
0
POLYLINE
8
0
66
1
40
0.8255
41
0.8255
70
1
0
VERTEX
8
0
10
-0.41275
20
0
42
1
0
VERTEX
8
0
10
0.41275
20
0
42
1
0
SEQEND
0
INSERT
2
DRIL_SYMBOL_1$651
8
0
10
0
20
0
0
ENDBLK
0
BLOCK
2
DRIL_HOLE_4
8
0
10
0
20
0
3
DRIL_HOLE_4
70
64
0
POLYLINE
8
0
66
1
40
2
41
2
70
1
0
VERTEX
8
0
10
-1
20
0
42
1
0
VERTEX
8
0
10
1
20
0
42
1
0
SEQEND
0
INSERT
2
DRIL_SYMBOL_4
8
0
10
0
20
0
0
ENDBLK
0
BLOCK
2
DRIL_HOLE_0$50038
8
0
10
0
20
0
3
DRIL_HOLE_0$50038
70
64
0
POLYLINE
8
0
66
1
40
0.25019
41
0.25019
70
1
0
VERTEX
8
0
10
-0.1250946667
20
0
42
1
0
VERTEX
8
0
10
0.1250946667
20
0
42
1
0
SEQEND
0
INSERT
2
DRIL_SYMBOL_0$50038
8
0
10
0
20
0
0
ENDBLK
0
ENDSEC
0
SECTION
2
ENTITIES
999
*** POWERPCB  DBLAYER ***
0
INSERT
2
DBLAYERS
8
0
10
0
20
0
999
*** POWERPCB  BOARD ***
0
INSERT
2
BOARD_1
8
0
10
-0.000804
20
-0.001356
999
*** POWERPCB  COMPONENT ***
0
INSERT
2
PART_TOP_0
8
0
10
14.605
20
27.94
50
270
0
INSERT
2
PART_TOP_5
8
0
10
67.945
20
27.94
50
270
0
INSERT
2
PART_TOP_10
8
0
10
32.385
20
27.94
50
270
0
INSERT
2
PART_TOP_15
8
0
10
50.165
20
27.94
50
270
0
INSERT
2
PART_TOP_20
8
0
10
45.84
20
2.41
0
INSERT
2
PART_TOP_21
8
0
10
9.01
20
2.41
0
INSERT
2
PART_TOP_23
8
0
10
7.87
20
63.58
50
180
0
INSERT
2
PART_TOP_24
8
0
10
45.64
20
66.48
50
270
0
INSERT
2
PART_TOP_29
8
0
10
51.205652
20
63.0486293333
0
INSERT
2
PART_TOP_30
8
0
10
51.205652
20
65.4959593333
0
INSERT
2
PART_TOP_31
8
0
10
31.507176
20
63.543942
50
270
0
INSERT
2
PART_TOP_45
8
0
10
15.875
20
66.548
0
INSERT
2
PART_TOP_46
8
0
10
77.47
20
18.415
0
INSERT
2
PART_TOP_47
8
0
10
3.175
20
3.81
999
*** POWERPCB  PCB PARAMETER ***
0
INSERT
2
PCB_PARAMS
8
0
10
0
20
0
0
ENDSEC
0
EOF
