*
*
G04 PADS 9.3 Build Number: 433611 generated Gerber (RS-274-X) file*
G04 PC Version=2.1*
*
%IN "17-600550-112_REVD_U3Mo"*%
*
%MOIN*%
*
%FSLAX35Y35*%
*
*
*
*
G04 PC Standard Apertures*
*
*
G04 Thermal Relief Aperture macro.*
%AMTER*
1,1,$1,0,0*
1,0,$1-$2,0,0*
21,0,$3,$4,0,0,45*
21,0,$3,$4,0,0,135*
%
*
*
G04 Annular Aperture macro.*
%AMANN*
1,1,$1,0,0*
1,0,$2,0,0*
%
*
*
G04 Odd Aperture macro.*
%AMODD*
1,1,$1,0,0*
1,0,$1-0.005,0,0*
%
*
*
G04 PC Custom Aperture Macros*
*
*
*
*
*
*
G04 PC Aperture Table*
*
%ADD010C,0.001*%
%ADD011C,0.008*%
%ADD013C,0.01*%
%ADD014C,0.005*%
%ADD015C,0.015*%
%ADD016C,0.00787*%
%ADD071C,0.006*%
%ADD136C,0.01181*%
*
*
*
*
G04 PC Circuitry*
G04 Layer Name 17-600550-112_REVD_U3Mo - circuitry*
%LPD*%
*
*
G04 PC Custom Flashes*
G04 Layer Name 17-600550-112_REVD_U3Mo - flashes*
%LPD*%
*
*
G04 PC Circuitry*
G04 Layer Name 17-600550-112_REVD_U3Mo - circuitry*
%LPD*%
*
G54D10*
G54D11*
G01X1075455Y1285644D02*
X1095141D01*
Y1273439*
X1075455*
Y1285447*
Y1250644D02*
X1095141D01*
Y1238439*
X1075455*
Y1250447*
X1077657Y1343702D02*
X1097343D01*
Y1331498*
X1077657*
Y1343506*
Y1308702D02*
X1097343D01*
Y1296498*
X1077657*
Y1308506*
X1082057Y1365102D02*
X1101743D01*
Y1352898*
X1082057*
Y1364906*
Y1400102D02*
X1101743D01*
Y1387898*
X1082057*
Y1399906*
X1103996Y1176457D02*
X1091004D01*
Y1183543*
X1103996*
Y1176457*
Y1206957D02*
X1091004D01*
Y1214043*
X1103996*
Y1206957*
Y1138957D02*
X1091004D01*
Y1146043*
X1103996*
Y1138957*
Y1101457D02*
X1091004D01*
Y1108543*
X1103996*
Y1101457*
Y1066457D02*
X1091004D01*
Y1073543*
X1103996*
Y1066457*
X1106398Y1140157D02*
Y1159843D01*
X1118602*
Y1140157*
X1106594*
X1106398Y1100157D02*
Y1119843D01*
X1118602*
Y1100157*
X1106594*
X1106398Y1065157D02*
Y1084843D01*
X1118602*
Y1065157*
X1106594*
X1106398Y1177657D02*
Y1197343D01*
X1118602*
Y1177657*
X1106594*
X1106398Y1206657D02*
Y1226343D01*
X1118602*
Y1206657*
X1106594*
X1250290Y1385700D02*
Y1415964D01*
X1236510*
Y1385700*
X1250290*
Y1387100D02*
X1236510D01*
X1250290Y1386400D02*
X1236510D01*
X1020110Y1150500D02*
Y1120236D01*
X1033890*
Y1150500*
X1020110*
Y1149100D02*
X1033890D01*
X1020110Y1149800D02*
X1033890D01*
X1020110Y1190500D02*
Y1160236D01*
X1033890*
Y1190500*
X1020110*
Y1189100D02*
X1033890D01*
X1020110Y1189800D02*
X1033890D01*
X1148602Y1274843D02*
Y1255157D01*
X1136398*
Y1274843*
X1148406*
X1148602Y1328343D02*
Y1308657D01*
X1136398*
Y1328343*
X1148406*
X1155502Y1384143D02*
Y1364457D01*
X1143298*
Y1384143*
X1155306*
X1177343Y1286398D02*
X1157657D01*
Y1298602*
X1177343*
Y1286594*
Y1048898D02*
X1157657D01*
Y1061102*
X1177343*
Y1049094*
Y1106398D02*
X1157657D01*
Y1118602*
X1177343*
Y1106594*
Y1151398D02*
X1157657D01*
Y1163602*
X1177343*
Y1151594*
Y1196398D02*
X1157657D01*
Y1208602*
X1177343*
Y1196594*
Y1241398D02*
X1157657D01*
Y1253602*
X1177343*
Y1241594*
X1030492Y1389783D02*
Y1411594D01*
X1019508*
Y1389783*
X1030492*
X1030118Y1390643D02*
X1019882D01*
X1030118Y1389943D02*
X1019882D01*
X1188692Y1381583D02*
Y1403394D01*
X1177708*
Y1381583*
X1188692*
X1188318Y1382443D02*
X1178082D01*
X1188318Y1381743D02*
X1178082D01*
X1077008Y1086417D02*
Y1064606D01*
X1087992*
Y1086417*
X1077008*
X1077382Y1085557D02*
X1087618D01*
X1077382Y1086257D02*
X1087618D01*
X1087992Y1206583D02*
Y1228394D01*
X1077008*
Y1206583*
X1087992*
X1087618Y1207443D02*
X1077382D01*
X1087618Y1206743D02*
X1077382D01*
X1087992Y1138583D02*
Y1160394D01*
X1077008*
Y1138583*
X1087992*
X1087618Y1139443D02*
X1077382D01*
X1087618Y1138743D02*
X1077382D01*
X1087992Y1098583D02*
Y1120394D01*
X1077008*
Y1098583*
X1087992*
X1087618Y1099443D02*
X1077382D01*
X1087618Y1098743D02*
X1077382D01*
X1087992Y1175383D02*
Y1197194D01*
X1077008*
Y1175383*
X1087992*
X1087618Y1176243D02*
X1077382D01*
X1087618Y1175543D02*
X1077382D01*
G54D13*
X1237500Y1381516D02*
Y1346516D01*
X1252500*
Y1381516*
X1237500*
X1247500D02*
X1252500Y1376516D01*
Y1381516*
X1247500*
X1237500Y1078366D02*
Y1043366D01*
X1252500*
Y1078366*
X1237500*
X1247500D02*
X1252500Y1073366D01*
Y1078366*
X1247500*
X1015000Y1381516D02*
Y1346516D01*
X1030000*
Y1381516*
X1015000*
X1025000D02*
X1030000Y1376516D01*
Y1381516*
X1025000*
X1015000Y1078366D02*
Y1043366D01*
X1030000*
Y1078366*
X1015000*
X1025000D02*
X1030000Y1073366D01*
Y1078366*
X1025000*
X1055858Y1005077D02*
X1211858D01*
Y1028577*
X1055858*
Y1005077*
X1103958Y1004527D02*
Y1001827D01*
X1153858Y1004577D02*
Y1001827D01*
X1055858Y1429423D02*
X1211858D01*
Y1452923*
X1055858*
Y1429423*
X1103958Y1428873D02*
Y1426173D01*
X1153858Y1428923D02*
Y1426173D01*
X1234339Y1195339D02*
Y1212661D01*
X1251661*
Y1195339*
X1234339*
X1228548Y1193592D02*
G75*
G03X1228548I-1250J0D01*
G01X1234339Y1309239D02*
Y1326561D01*
X1251661*
Y1309239*
X1234339*
X1228548Y1307492D02*
G03X1228548I-1250J0D01*
G01X1234339Y1275339D02*
Y1292661D01*
X1251661*
Y1275339*
X1234339*
X1228548Y1273592D02*
G03X1228548I-1250J0D01*
G01X1234339Y1235339D02*
Y1252661D01*
X1251661*
Y1235339*
X1234339*
X1228548Y1233592D02*
G03X1228548I-1250J0D01*
G01X1234339Y1125641D02*
Y1142963D01*
X1251661*
Y1125641*
X1234339*
X1228548Y1123894D02*
G03X1228548I-1250J0D01*
G01X1234339Y1091339D02*
Y1108661D01*
X1251661*
Y1091339*
X1234339*
X1228548Y1089592D02*
G03X1228548I-1250J0D01*
G01X989519Y1598560D02*
X989292Y1599185D01*
X988837Y1599810*
X988383Y1600123*
X988383D02*
X987474D01*
X987474D02*
X987019Y1599810D01*
X986565Y1599185*
X986337Y1598560*
X986110Y1597623*
X986110D02*
Y1596060D01*
X986337Y1595123*
X986337D02*
X986565Y1594498D01*
X986565D02*
X987019Y1593873D01*
X987019D02*
X987474Y1593560D01*
X988383*
X988837Y1593873*
X988837D02*
X989292Y1594498D01*
X989292D02*
X989519Y1595123D01*
X992928Y1600123D02*
X992474Y1599810D01*
X992019Y1599185*
X991792Y1598560*
X991565Y1597623*
X991565D02*
Y1596060D01*
X991792Y1595123*
X991792D02*
X992019Y1594498D01*
X992019D02*
X992474Y1593873D01*
X992474D02*
X992928Y1593560D01*
X993837*
X994292Y1593873*
X994292D02*
X994746Y1594498D01*
X994746D02*
X994974Y1595123D01*
X994974D02*
X995201Y1596060D01*
Y1597623*
X995201D02*
X994974Y1598560D01*
X994746Y1599185*
X994292Y1599810*
X993837Y1600123*
X993837D02*
X992928D01*
X997246D02*
Y1593560D01*
Y1600123D02*
X999065Y1593560D01*
X1000883Y1600123D02*
X999065Y1593560D01*
X1000883Y1600123D02*
Y1593560D01*
X1002928Y1600123D02*
Y1593560D01*
Y1600123D02*
X1004974D01*
X1004974D02*
X1005655Y1599810D01*
X1005883Y1599498*
X1005883D02*
X1006110Y1598873D01*
X1006110D02*
Y1597935D01*
X1005883Y1597310*
X1005655Y1596998*
X1005655D02*
X1004974Y1596685D01*
X1002928*
X1008155Y1600123D02*
Y1593560D01*
Y1600123D02*
X1010201D01*
X1010201D02*
X1010883Y1599810D01*
X1011110Y1599498*
X1011110D02*
X1011337Y1598873D01*
X1011337D02*
Y1598248D01*
X1011337D02*
X1011110Y1597623D01*
X1011110D02*
X1010883Y1597310D01*
X1010201Y1596998*
X1010201D02*
X1008155D01*
X1009746D02*
X1011337Y1593560D01*
X1013383Y1600123D02*
Y1593560D01*
Y1600123D02*
X1016337D01*
X1013383Y1596998D02*
X1015201D01*
X1013383Y1593560D02*
X1016337D01*
X1021565Y1599185D02*
X1021110Y1599810D01*
X1020428Y1600123*
X1020428D02*
X1019519D01*
X1019519D02*
X1018837Y1599810D01*
X1018383Y1599185*
Y1598560*
X1018610Y1597935*
X1018837Y1597623*
X1018837D02*
X1019292Y1597310D01*
X1020655Y1596685*
X1021110Y1596373*
X1021110D02*
X1021337Y1596060D01*
X1021565Y1595435*
Y1594498*
X1021565D02*
X1021110Y1593873D01*
X1021110D02*
X1020428Y1593560D01*
X1019519*
X1018837Y1593873*
X1018837D02*
X1018383Y1594498D01*
X1026792Y1599185D02*
X1026337Y1599810D01*
X1025655Y1600123*
X1025655D02*
X1024746D01*
X1024746D02*
X1024065Y1599810D01*
X1023610Y1599185*
Y1598560*
X1023837Y1597935*
X1024065Y1597623*
X1024065D02*
X1024519Y1597310D01*
X1025883Y1596685*
X1026337Y1596373*
X1026337D02*
X1026565Y1596060D01*
X1026792Y1595435*
Y1594498*
X1026792D02*
X1026337Y1593873D01*
X1026337D02*
X1025655Y1593560D01*
X1024746*
X1024065Y1593873*
X1024065D02*
X1023610Y1594498D01*
X1030201Y1600123D02*
X1029746Y1599810D01*
X1029292Y1599185*
X1029065Y1598560*
X1028837Y1597623*
X1028837D02*
Y1596060D01*
X1029065Y1595123*
X1029065D02*
X1029292Y1594498D01*
X1029292D02*
X1029746Y1593873D01*
X1029746D02*
X1030201Y1593560D01*
X1031110*
X1031565Y1593873*
X1031565D02*
X1032019Y1594498D01*
X1032019D02*
X1032246Y1595123D01*
X1032246D02*
X1032474Y1596060D01*
Y1597623*
X1032474D02*
X1032246Y1598560D01*
X1032019Y1599185*
X1031565Y1599810*
X1031110Y1600123*
X1031110D02*
X1030201D01*
X1034519D02*
Y1593560D01*
Y1600123D02*
X1036565D01*
X1036565D02*
X1037246Y1599810D01*
X1037474Y1599498*
X1037474D02*
X1037701Y1598873D01*
X1037701D02*
Y1598248D01*
X1037701D02*
X1037474Y1597623D01*
X1037474D02*
X1037246Y1597310D01*
X1036565Y1596998*
X1036565D02*
X1034519D01*
X1036110D02*
X1037701Y1593560D01*
X1048383Y1598560D02*
X1048155Y1599185D01*
X1047701Y1599810*
X1047246Y1600123*
X1047246D02*
X1046337D01*
X1046337D02*
X1045883Y1599810D01*
X1045428Y1599185*
X1045201Y1598560*
X1044974Y1597623*
X1044974D02*
Y1596060D01*
X1045201Y1595123*
X1045201D02*
X1045428Y1594498D01*
X1045428D02*
X1045883Y1593873D01*
X1045883D02*
X1046337Y1593560D01*
X1047246*
X1047701Y1593873*
X1047701D02*
X1048155Y1594498D01*
X1048155D02*
X1048383Y1595123D01*
X1051792Y1600123D02*
X1051337Y1599810D01*
X1050883Y1599185*
X1050655Y1598560*
X1050428Y1597623*
X1050428D02*
Y1596060D01*
X1050655Y1595123*
X1050655D02*
X1050883Y1594498D01*
X1050883D02*
X1051337Y1593873D01*
X1051337D02*
X1051792Y1593560D01*
X1052701*
X1053155Y1593873*
X1053155D02*
X1053610Y1594498D01*
X1053610D02*
X1053837Y1595123D01*
X1053837D02*
X1054065Y1596060D01*
Y1597623*
X1054065D02*
X1053837Y1598560D01*
X1053610Y1599185*
X1053155Y1599810*
X1052701Y1600123*
X1052701D02*
X1051792D01*
X1056110D02*
Y1593560D01*
Y1600123D02*
X1059292Y1593560D01*
Y1600123D02*
Y1593560D01*
X1062928Y1600123D02*
Y1593560D01*
X1061337Y1600123D02*
X1064519D01*
X1066565D02*
Y1593560D01*
Y1600123D02*
X1068610D01*
X1068610D02*
X1069292Y1599810D01*
X1069519Y1599498*
X1069519D02*
X1069746Y1598873D01*
X1069746D02*
Y1598248D01*
X1069746D02*
X1069519Y1597623D01*
X1069519D02*
X1069292Y1597310D01*
X1068610Y1596998*
X1068610D02*
X1066565D01*
X1068155D02*
X1069746Y1593560D01*
X1073155Y1600123D02*
X1072701Y1599810D01*
X1072246Y1599185*
X1072019Y1598560*
X1071792Y1597623*
X1071792D02*
Y1596060D01*
X1072019Y1595123*
X1072019D02*
X1072246Y1594498D01*
X1072246D02*
X1072701Y1593873D01*
X1072701D02*
X1073155Y1593560D01*
X1074065*
X1074519Y1593873*
X1074519D02*
X1074974Y1594498D01*
X1074974D02*
X1075201Y1595123D01*
X1075201D02*
X1075428Y1596060D01*
Y1597623*
X1075428D02*
X1075201Y1598560D01*
X1074974Y1599185*
X1074519Y1599810*
X1074065Y1600123*
X1074065D02*
X1073155D01*
X1077474D02*
Y1593560D01*
X1080201*
X1085428Y1599185D02*
X1084974Y1599810D01*
X1084292Y1600123*
X1084292D02*
X1083383D01*
X1083383D02*
X1082701Y1599810D01*
X1082246Y1599185*
Y1598560*
X1082474Y1597935*
X1082701Y1597623*
X1082701D02*
X1083155Y1597310D01*
X1084519Y1596685*
X1084974Y1596373*
X1084974D02*
X1085201Y1596060D01*
X1085428Y1595435*
Y1594498*
X1085428D02*
X1084974Y1593873D01*
X1084974D02*
X1084292Y1593560D01*
X1083383*
X1082701Y1593873*
X1082701D02*
X1082246Y1594498D01*
X1096110Y1598560D02*
X1095883Y1599185D01*
X1095428Y1599810*
X1094974Y1600123*
X1094974D02*
X1094065D01*
X1094065D02*
X1093610Y1599810D01*
X1093155Y1599185*
X1092928Y1598560*
X1092701Y1597623*
X1092701D02*
Y1596060D01*
X1092928Y1595123*
X1092928D02*
X1093155Y1594498D01*
X1093155D02*
X1093610Y1593873D01*
X1093610D02*
X1094065Y1593560D01*
X1094974*
X1095428Y1593873*
X1095428D02*
X1095883Y1594498D01*
X1095883D02*
X1096110Y1595123D01*
X1099519Y1600123D02*
X1099065Y1599810D01*
X1098610Y1599185*
X1098383Y1598560*
X1098155Y1597623*
X1098155D02*
Y1596060D01*
X1098383Y1595123*
X1098383D02*
X1098610Y1594498D01*
X1098610D02*
X1099065Y1593873D01*
X1099065D02*
X1099519Y1593560D01*
X1100428*
X1100883Y1593873*
X1100883D02*
X1101337Y1594498D01*
X1101337D02*
X1101565Y1595123D01*
X1101565D02*
X1101792Y1596060D01*
Y1597623*
X1101792D02*
X1101565Y1598560D01*
X1101337Y1599185*
X1100883Y1599810*
X1100428Y1600123*
X1100428D02*
X1099519D01*
X1103837D02*
Y1593560D01*
Y1600123D02*
X1105883D01*
X1105883D02*
X1106565Y1599810D01*
X1106792Y1599498*
X1106792D02*
X1107019Y1598873D01*
X1107019D02*
Y1598248D01*
X1107019D02*
X1106792Y1597623D01*
X1106792D02*
X1106565Y1597310D01*
X1105883Y1596998*
X1105883D02*
X1103837D01*
X1105428D02*
X1107019Y1593560D01*
X1109065Y1600123D02*
Y1593560D01*
Y1600123D02*
X1111110D01*
X1111110D02*
X1111792Y1599810D01*
X1112019Y1599498*
X1112019D02*
X1112246Y1598873D01*
X1112246D02*
Y1597935D01*
X1112019Y1597310*
X1111792Y1596998*
X1111792D02*
X1111110Y1596685D01*
X1109065*
X1115655Y1600123D02*
X1115201Y1599810D01*
X1114746Y1599185*
X1114519Y1598560*
X1114292Y1597623*
X1114292D02*
Y1596060D01*
X1114519Y1595123*
X1114519D02*
X1114746Y1594498D01*
X1114746D02*
X1115201Y1593873D01*
X1115201D02*
X1115655Y1593560D01*
X1116565*
X1117019Y1593873*
X1117019D02*
X1117474Y1594498D01*
X1117474D02*
X1117701Y1595123D01*
X1117701D02*
X1117928Y1596060D01*
Y1597623*
X1117928D02*
X1117701Y1598560D01*
X1117474Y1599185*
X1117019Y1599810*
X1116565Y1600123*
X1116565D02*
X1115655D01*
X1119974D02*
Y1593560D01*
Y1600123D02*
X1122019D01*
X1122019D02*
X1122701Y1599810D01*
X1122928Y1599498*
X1122928D02*
X1123155Y1598873D01*
X1123155D02*
Y1598248D01*
X1123155D02*
X1122928Y1597623D01*
X1122928D02*
X1122701Y1597310D01*
X1122019Y1596998*
X1122019D02*
X1119974D01*
X1121565D02*
X1123155Y1593560D01*
X1127019Y1600123D02*
X1125201Y1593560D01*
X1127019Y1600123D02*
X1128837Y1593560D01*
X1125883Y1595748D02*
X1128155D01*
X1132474Y1600123D02*
Y1593560D01*
X1130883Y1600123D02*
X1134065D01*
X1136110D02*
Y1593560D01*
X1139519Y1600123D02*
X1139065Y1599810D01*
X1138610Y1599185*
X1138383Y1598560*
X1138155Y1597623*
X1138155D02*
Y1596060D01*
X1138383Y1595123*
X1138383D02*
X1138610Y1594498D01*
X1138610D02*
X1139065Y1593873D01*
X1139065D02*
X1139519Y1593560D01*
X1140428*
X1140883Y1593873*
X1140883D02*
X1141337Y1594498D01*
X1141337D02*
X1141565Y1595123D01*
X1141565D02*
X1141792Y1596060D01*
Y1597623*
X1141792D02*
X1141565Y1598560D01*
X1141337Y1599185*
X1140883Y1599810*
X1140428Y1600123*
X1140428D02*
X1139519D01*
X1143837D02*
Y1593560D01*
Y1600123D02*
X1147019Y1593560D01*
Y1600123D02*
Y1593560D01*
X987110Y1573123D02*
Y1566560D01*
Y1573123D02*
X988701D01*
X988701D02*
X989383Y1572810D01*
X989837Y1572185*
X990065Y1571560*
X990292Y1570623*
X990292D02*
Y1569060D01*
X990065Y1568123*
X990065D02*
X989837Y1567498D01*
X989837D02*
X989383Y1566873D01*
X989383D02*
X988701Y1566560D01*
X987110*
X994155Y1573123D02*
X992337Y1566560D01*
X994155Y1573123D02*
X995974Y1566560D01*
X993019Y1568748D02*
X995292D01*
X999610Y1573123D02*
Y1566560D01*
X998019Y1573123D02*
X1001201D01*
X1003246D02*
Y1566560D01*
Y1573123D02*
X1006201D01*
X1003246Y1569998D02*
X1005065D01*
X1003246Y1566560D02*
X1006201D01*
X1008474Y1570935D02*
X1008246Y1570623D01*
X1008246D02*
X1008474Y1570310D01*
X1008701Y1570623*
X1008701D02*
X1008474Y1570935D01*
Y1567185D02*
X1008246Y1566873D01*
X1008246D02*
X1008474Y1566560D01*
X1008701Y1566873*
X1008701D02*
X1008474Y1567185D01*
X1017337Y1573123D02*
X1016655Y1572810D01*
X1016201Y1571873*
X1016201D02*
X1015974Y1570310D01*
Y1569373*
X1015974D02*
X1016201Y1567810D01*
X1016655Y1566873*
X1016655D02*
X1017337Y1566560D01*
X1017792*
X1018474Y1566873*
X1018474D02*
X1018928Y1567810D01*
X1019155Y1569373*
X1019155D02*
Y1570310D01*
X1018928Y1571873*
X1018928D02*
X1018474Y1572810D01*
X1017792Y1573123*
X1017792D02*
X1017337D01*
X1021428Y1571560D02*
Y1571873D01*
X1021428D02*
X1021655Y1572498D01*
X1021655D02*
X1021883Y1572810D01*
X1022337Y1573123*
X1022337D02*
X1023246D01*
X1023246D02*
X1023701Y1572810D01*
X1023928Y1572498*
X1023928D02*
X1024155Y1571873D01*
X1024155D02*
Y1571248D01*
X1024155D02*
X1023928Y1570623D01*
X1023928D02*
X1023474Y1569685D01*
X1021201Y1566560*
X1024383*
X1026428Y1569373D02*
X1030519D01*
X1032565Y1571873D02*
X1033019Y1572185D01*
X1033701Y1573123*
X1033701D02*
Y1566560D01*
X1036201Y1573123D02*
X1038701D01*
X1038701D02*
X1037337Y1570623D01*
X1037337D02*
X1038019D01*
X1038019D02*
X1038474Y1570310D01*
X1038701Y1569998*
X1038701D02*
X1038928Y1569060D01*
Y1568435*
X1038701Y1567498*
X1038701D02*
X1038246Y1566873D01*
X1038246D02*
X1037565Y1566560D01*
X1036883*
X1036201Y1566873*
X1036201D02*
X1035974Y1567185D01*
X1035746Y1567810*
X1040974Y1569373D02*
X1045065D01*
X1047110Y1571873D02*
X1047565Y1572185D01*
X1048246Y1573123*
X1048246D02*
Y1566560D01*
X1052565Y1573123D02*
X1050292Y1568748D01*
X1050292D02*
X1053701D01*
X1052565Y1573123D02*
Y1566560D01*
X1186170Y1589063D02*
Y1582500D01*
X1188897*
X1192761Y1589063D02*
X1190943Y1582500D01*
X1192761Y1589063D02*
X1194579Y1582500D01*
X1191625Y1584688D02*
X1193897D01*
X1196625Y1589063D02*
X1198443Y1585938D01*
X1198443D02*
Y1582500D01*
X1200261Y1589063D02*
X1198443Y1585938D01*
X1202306Y1589063D02*
Y1582500D01*
Y1589063D02*
X1205261D01*
X1202306Y1585938D02*
X1204125D01*
X1202306Y1582500D02*
X1205261D01*
X1207306Y1589063D02*
Y1582500D01*
Y1589063D02*
X1209352D01*
X1209352D02*
X1210034Y1588750D01*
X1210261Y1588438*
X1210261D02*
X1210488Y1587813D01*
X1210488D02*
Y1587188D01*
X1210488D02*
X1210261Y1586563D01*
X1210261D02*
X1210034Y1586250D01*
X1209352Y1585938*
X1209352D02*
X1207306D01*
X1208897D02*
X1210488Y1582500D01*
X1186170Y1574063D02*
Y1567500D01*
Y1574063D02*
X1188215D01*
X1188215D02*
X1188897Y1573750D01*
X1189125Y1573438*
X1189125D02*
X1189352Y1572813D01*
X1189352D02*
Y1571875D01*
X1189125Y1571250*
X1188897Y1570938*
X1188897D02*
X1188215Y1570625D01*
X1186170*
X1193215Y1574063D02*
X1191397Y1567500D01*
X1193215Y1574063D02*
X1195034Y1567500D01*
X1192079Y1569688D02*
X1194352D01*
X1197079Y1574063D02*
Y1567500D01*
Y1574063D02*
X1199125D01*
X1199125D02*
X1199806Y1573750D01*
X1200034Y1573438*
X1200034D02*
X1200261Y1572813D01*
X1200261D02*
Y1572188D01*
X1200261D02*
X1200034Y1571563D01*
X1200034D02*
X1199806Y1571250D01*
X1199125Y1570938*
X1199125D02*
X1197079D01*
X1198670D02*
X1200261Y1567500D01*
X1203897Y1574063D02*
Y1567500D01*
X1202306Y1574063D02*
X1205488D01*
X1212761D02*
Y1567500D01*
Y1574063D02*
X1215943Y1567500D01*
Y1574063D02*
Y1567500D01*
X1219352Y1574063D02*
X1218897Y1573750D01*
X1218443Y1573125*
X1218215Y1572500*
X1217988Y1571563*
X1217988D02*
Y1570000D01*
X1218215Y1569063*
X1218215D02*
X1218443Y1568438D01*
X1218443D02*
X1218897Y1567813D01*
X1218897D02*
X1219352Y1567500D01*
X1220261*
X1220715Y1567813*
X1220715D02*
X1221170Y1568438D01*
X1221170D02*
X1221397Y1569063D01*
X1221397D02*
X1221625Y1570000D01*
Y1571563*
X1221625D02*
X1221397Y1572500D01*
X1221170Y1573125*
X1220715Y1573750*
X1220261Y1574063*
X1220261D02*
X1219352D01*
X1186170Y1559063D02*
Y1552500D01*
Y1559063D02*
X1188215D01*
X1188215D02*
X1188897Y1558750D01*
X1189125Y1558438*
X1189125D02*
X1189352Y1557813D01*
X1189352D02*
Y1557188D01*
X1189352D02*
X1189125Y1556563D01*
X1189125D02*
X1188897Y1556250D01*
X1188215Y1555938*
X1188215D02*
X1186170D01*
X1187761D02*
X1189352Y1552500D01*
X1191397Y1559063D02*
Y1552500D01*
Y1559063D02*
X1194352D01*
X1191397Y1555938D02*
X1193215D01*
X1191397Y1552500D02*
X1194352D01*
X1196397Y1559063D02*
X1198215Y1552500D01*
X1200034Y1559063D02*
X1198215Y1552500D01*
X1274579Y1557500D02*
X1274352Y1558125D01*
X1273897Y1558750*
X1273443Y1559063*
X1273443D02*
X1272534D01*
X1272534D02*
X1272079Y1558750D01*
X1271625Y1558125*
X1271397Y1557500*
X1271170Y1556563*
X1271170D02*
Y1555000D01*
X1271397Y1554063*
X1271397D02*
X1271625Y1553438D01*
X1271625D02*
X1272079Y1552813D01*
X1272079D02*
X1272534Y1552500D01*
X1273443*
X1273897Y1552813*
X1273897D02*
X1274352Y1553438D01*
X1274352D02*
X1274579Y1554063D01*
X1185170Y1543563D02*
Y1537000D01*
Y1543563D02*
X1186761D01*
X1186761D02*
X1187443Y1543250D01*
X1187897Y1542625*
X1188125Y1542000*
X1188352Y1541063*
X1188352D02*
Y1539500D01*
X1188125Y1538563*
X1188125D02*
X1187897Y1537938D01*
X1187897D02*
X1187443Y1537313D01*
X1187443D02*
X1186761Y1537000D01*
X1185170*
X1192215Y1543563D02*
X1190397Y1537000D01*
X1192215Y1543563D02*
X1194034Y1537000D01*
X1191079Y1539188D02*
X1193352D01*
X1197670Y1543563D02*
Y1537000D01*
X1196079Y1543563D02*
X1199261D01*
X1201306D02*
Y1537000D01*
Y1543563D02*
X1204261D01*
X1201306Y1540438D02*
X1203125D01*
X1201306Y1537000D02*
X1204261D01*
X985610Y1584873D02*
X986065Y1585185D01*
X986746Y1586123*
X986746D02*
Y1579560D01*
X991974Y1586123D02*
X989701Y1579560D01*
X988792Y1586123D02*
X991974D01*
X994019Y1582373D02*
X998110D01*
X1002883Y1585185D02*
X1002655Y1585810D01*
X1001974Y1586123*
X1001974D02*
X1001519D01*
X1001519D02*
X1000837Y1585810D01*
X1000383Y1584873*
X1000383D02*
X1000155Y1583310D01*
Y1581748*
X1000155D02*
X1000383Y1580498D01*
X1000383D02*
X1000837Y1579873D01*
X1000837D02*
X1001519Y1579560D01*
X1001746*
X1002428Y1579873*
X1002428D02*
X1002883Y1580498D01*
X1002883D02*
X1003110Y1581435D01*
Y1581748*
X1003110D02*
X1002883Y1582685D01*
X1002428Y1583310*
X1001746Y1583623*
X1001746D02*
X1001519D01*
X1001519D02*
X1000837Y1583310D01*
X1000383Y1582685*
X1000155Y1581748*
X1006519Y1586123D02*
X1005837Y1585810D01*
X1005383Y1584873*
X1005383D02*
X1005155Y1583310D01*
Y1582373*
X1005155D02*
X1005383Y1580810D01*
X1005837Y1579873*
X1005837D02*
X1006519Y1579560D01*
X1006974*
X1007655Y1579873*
X1007655D02*
X1008110Y1580810D01*
X1008337Y1582373*
X1008337D02*
Y1583310D01*
X1008110Y1584873*
X1008110D02*
X1007655Y1585810D01*
X1006974Y1586123*
X1006974D02*
X1006519D01*
X1011746D02*
X1011065Y1585810D01*
X1010610Y1584873*
X1010610D02*
X1010383Y1583310D01*
Y1582373*
X1010383D02*
X1010610Y1580810D01*
X1011065Y1579873*
X1011065D02*
X1011746Y1579560D01*
X1012201*
X1012883Y1579873*
X1012883D02*
X1013337Y1580810D01*
X1013565Y1582373*
X1013565D02*
Y1583310D01*
X1013337Y1584873*
X1013337D02*
X1012883Y1585810D01*
X1012201Y1586123*
X1012201D02*
X1011746D01*
X1018565D02*
X1016292D01*
X1016292D02*
X1016065Y1583310D01*
X1016292Y1583623*
X1016292D02*
X1016974Y1583935D01*
X1017655*
X1018337Y1583623*
X1018337D02*
X1018792Y1582998D01*
X1018792D02*
X1019019Y1582060D01*
X1018792Y1581435*
X1018565Y1580498*
X1018565D02*
X1018110Y1579873D01*
X1018110D02*
X1017428Y1579560D01*
X1016746*
X1016065Y1579873*
X1016065D02*
X1015837Y1580185D01*
X1015610Y1580810*
X1024019Y1586123D02*
X1021746D01*
X1021746D02*
X1021519Y1583310D01*
X1021746Y1583623*
X1021746D02*
X1022428Y1583935D01*
X1023110*
X1023792Y1583623*
X1023792D02*
X1024246Y1582998D01*
X1024246D02*
X1024474Y1582060D01*
X1024246Y1581435*
X1024019Y1580498*
X1024019D02*
X1023565Y1579873D01*
X1023565D02*
X1022883Y1579560D01*
X1022201*
X1021519Y1579873*
X1021519D02*
X1021292Y1580185D01*
X1021065Y1580810*
X1027883Y1586123D02*
X1027201Y1585810D01*
X1026746Y1584873*
X1026746D02*
X1026519Y1583310D01*
Y1582373*
X1026519D02*
X1026746Y1580810D01*
X1027201Y1579873*
X1027201D02*
X1027883Y1579560D01*
X1028337*
X1029019Y1579873*
X1029019D02*
X1029474Y1580810D01*
X1029701Y1582373*
X1029701D02*
Y1583310D01*
X1029474Y1584873*
X1029474D02*
X1029019Y1585810D01*
X1028337Y1586123*
X1028337D02*
X1027883D01*
X1031746Y1582373D02*
X1035837D01*
X1037883Y1584873D02*
X1038337Y1585185D01*
X1039019Y1586123*
X1039019D02*
Y1579560D01*
X1041065Y1584873D02*
X1041519Y1585185D01*
X1042201Y1586123*
X1042201D02*
Y1579560D01*
X1044474Y1584560D02*
Y1584873D01*
X1044474D02*
X1044701Y1585498D01*
X1044701D02*
X1044928Y1585810D01*
X1045383Y1586123*
X1045383D02*
X1046292D01*
X1046292D02*
X1046746Y1585810D01*
X1046974Y1585498*
X1046974D02*
X1047201Y1584873D01*
X1047201D02*
Y1584248D01*
X1047201D02*
X1046974Y1583623D01*
X1046974D02*
X1046519Y1582685D01*
X1044246Y1579560*
X1047428*
X1054701Y1586123D02*
Y1579560D01*
Y1586123D02*
X1056746D01*
X1056746D02*
X1057428Y1585810D01*
X1057655Y1585498*
X1057655D02*
X1057883Y1584873D01*
X1057883D02*
Y1584248D01*
X1057883D02*
X1057655Y1583623D01*
X1057655D02*
X1057428Y1583310D01*
X1056746Y1582998*
X1056746D02*
X1054701D01*
X1056292D02*
X1057883Y1579560D01*
X1059928Y1586123D02*
Y1579560D01*
Y1586123D02*
X1062883D01*
X1059928Y1582998D02*
X1061746D01*
X1059928Y1579560D02*
X1062883D01*
X1064928Y1586123D02*
X1066746Y1579560D01*
X1068565Y1586123D02*
X1066746Y1579560D01*
X1079246Y1584560D02*
X1079019Y1585185D01*
X1078565Y1585810*
X1078110Y1586123*
X1078110D02*
X1077201D01*
X1077201D02*
X1076746Y1585810D01*
X1076292Y1585185*
X1076065Y1584560*
X1075837Y1583623*
X1075837D02*
Y1582060D01*
X1076065Y1581123*
X1076065D02*
X1076292Y1580498D01*
X1076292D02*
X1076746Y1579873D01*
X1076746D02*
X1077201Y1579560D01*
X1078110*
X1078565Y1579873*
X1078565D02*
X1079019Y1580498D01*
X1079019D02*
X1079246Y1581123D01*
X1246170Y1543563D02*
Y1537000D01*
Y1543563D02*
X1249125D01*
X1246170Y1540438D02*
X1247988D01*
X1251170Y1539500D02*
X1253897D01*
Y1540125*
X1253670Y1540750*
X1253443Y1541063*
X1253443D02*
X1252988Y1541375D01*
X1252306*
X1251852Y1541063*
X1251852D02*
X1251397Y1540438D01*
X1251397D02*
X1251170Y1539500D01*
Y1538875*
X1251397Y1537938*
X1251397D02*
X1251852Y1537313D01*
X1251852D02*
X1252306Y1537000D01*
X1252988*
X1253443Y1537313*
X1253443D02*
X1253897Y1537938D01*
X1255943Y1543563D02*
Y1537000D01*
Y1540438D02*
X1256397Y1541063D01*
X1256397D02*
X1256852Y1541375D01*
X1257534*
X1257988Y1541063*
X1257988D02*
X1258443Y1540438D01*
X1258443D02*
X1258670Y1539500D01*
Y1538875*
X1258443Y1537938*
X1258443D02*
X1257988Y1537313D01*
X1257988D02*
X1257534Y1537000D01*
X1256852*
X1256397Y1537313*
X1256397D02*
X1255943Y1537938D01*
X1260715Y1541375D02*
Y1537000D01*
Y1539500D02*
X1260943Y1540438D01*
X1260943D02*
X1261397Y1541063D01*
X1261397D02*
X1261852Y1541375D01*
X1262534*
X1264579D02*
Y1538250D01*
X1264806Y1537313*
X1264806D02*
X1265261Y1537000D01*
X1265943*
X1266397Y1537313*
X1266397D02*
X1267079Y1538250D01*
Y1541375D02*
Y1537000D01*
X1271852Y1541375D02*
Y1537000D01*
Y1540438D02*
X1271397Y1541063D01*
X1271397D02*
X1270943Y1541375D01*
X1270261*
X1269806Y1541063*
X1269806D02*
X1269352Y1540438D01*
X1269352D02*
X1269125Y1539500D01*
Y1538875*
X1269352Y1537938*
X1269352D02*
X1269806Y1537313D01*
X1269806D02*
X1270261Y1537000D01*
X1270943*
X1271397Y1537313*
X1271397D02*
X1271852Y1537938D01*
X1273897Y1541375D02*
Y1537000D01*
Y1539500D02*
X1274125Y1540438D01*
X1274125D02*
X1274579Y1541063D01*
X1274579D02*
X1275034Y1541375D01*
X1275715*
X1277988D02*
X1279352Y1537000D01*
X1280715Y1541375D02*
X1279352Y1537000D01*
X1278897Y1535750*
X1278443Y1535125*
X1277988Y1534812*
X1277988D02*
X1277761D01*
X1287988Y1542313D02*
X1288443Y1542625D01*
X1289125Y1543563*
X1289125D02*
Y1537000D01*
X1291625Y1543563D02*
X1294125D01*
X1294125D02*
X1292761Y1541063D01*
X1292761D02*
X1293443D01*
X1293443D02*
X1293897Y1540750D01*
X1294125Y1540438*
X1294125D02*
X1294352Y1539500D01*
Y1538875*
X1294125Y1537938*
X1294125D02*
X1293670Y1537313D01*
X1293670D02*
X1292988Y1537000D01*
X1292306*
X1291625Y1537313*
X1291625D02*
X1291397Y1537625D01*
X1291170Y1538250*
X1301852Y1542000D02*
Y1542313D01*
X1301852D02*
X1302079Y1542938D01*
X1302079D02*
X1302306Y1543250D01*
X1302761Y1543563*
X1302761D02*
X1303670D01*
X1303670D02*
X1304125Y1543250D01*
X1304352Y1542938*
X1304352D02*
X1304579Y1542313D01*
X1304579D02*
Y1541688D01*
X1304579D02*
X1304352Y1541063D01*
X1304352D02*
X1303897Y1540125D01*
X1301625Y1537000*
X1304806*
X1308215Y1543563D02*
X1307534Y1543250D01*
X1307079Y1542313*
X1307079D02*
X1306852Y1540750D01*
Y1539813*
X1306852D02*
X1307079Y1538250D01*
X1307534Y1537313*
X1307534D02*
X1308215Y1537000D01*
X1308670*
X1309352Y1537313*
X1309352D02*
X1309806Y1538250D01*
X1310034Y1539813*
X1310034D02*
Y1540750D01*
X1309806Y1542313*
X1309806D02*
X1309352Y1543250D01*
X1308670Y1543563*
X1308670D02*
X1308215D01*
X1312079Y1542313D02*
X1312534Y1542625D01*
X1313215Y1543563*
X1313215D02*
Y1537000D01*
X1317534Y1543563D02*
X1315261Y1539188D01*
X1315261D02*
X1318670D01*
X1317534Y1543563D02*
Y1537000D01*
X1246170Y1572813D02*
X1246625Y1573125D01*
X1247306Y1574063*
X1247306D02*
Y1567500D01*
X1252534Y1574063D02*
X1250261Y1567500D01*
X1249352Y1574063D02*
X1252534D01*
X1254579Y1570313D02*
X1258670D01*
X1263443Y1573125D02*
X1263215Y1573750D01*
X1262534Y1574063*
X1262534D02*
X1262079D01*
X1262079D02*
X1261397Y1573750D01*
X1260943Y1572813*
X1260943D02*
X1260715Y1571250D01*
Y1569688*
X1260715D02*
X1260943Y1568438D01*
X1260943D02*
X1261397Y1567813D01*
X1261397D02*
X1262079Y1567500D01*
X1262306*
X1262988Y1567813*
X1262988D02*
X1263443Y1568438D01*
X1263443D02*
X1263670Y1569375D01*
Y1569688*
X1263670D02*
X1263443Y1570625D01*
X1262988Y1571250*
X1262306Y1571563*
X1262306D02*
X1262079D01*
X1262079D02*
X1261397Y1571250D01*
X1260943Y1570625*
X1260715Y1569688*
X1267079Y1574063D02*
X1266397Y1573750D01*
X1265943Y1572813*
X1265943D02*
X1265715Y1571250D01*
Y1570313*
X1265715D02*
X1265943Y1568750D01*
X1266397Y1567813*
X1266397D02*
X1267079Y1567500D01*
X1267534*
X1268215Y1567813*
X1268215D02*
X1268670Y1568750D01*
X1268897Y1570313*
X1268897D02*
Y1571250D01*
X1268670Y1572813*
X1268670D02*
X1268215Y1573750D01*
X1267534Y1574063*
X1267534D02*
X1267079D01*
X1272306D02*
X1271625Y1573750D01*
X1271170Y1572813*
X1271170D02*
X1270943Y1571250D01*
Y1570313*
X1270943D02*
X1271170Y1568750D01*
X1271625Y1567813*
X1271625D02*
X1272306Y1567500D01*
X1272761*
X1273443Y1567813*
X1273443D02*
X1273897Y1568750D01*
X1274125Y1570313*
X1274125D02*
Y1571250D01*
X1273897Y1572813*
X1273897D02*
X1273443Y1573750D01*
X1272761Y1574063*
X1272761D02*
X1272306D01*
X1279125D02*
X1276852D01*
X1276852D02*
X1276625Y1571250D01*
X1276852Y1571563*
X1276852D02*
X1277534Y1571875D01*
X1278215*
X1278897Y1571563*
X1278897D02*
X1279352Y1570938D01*
X1279352D02*
X1279579Y1570000D01*
X1279352Y1569375*
X1279125Y1568438*
X1279125D02*
X1278670Y1567813D01*
X1278670D02*
X1277988Y1567500D01*
X1277306*
X1276625Y1567813*
X1276625D02*
X1276397Y1568125D01*
X1276170Y1568750*
X1284579Y1574063D02*
X1282306D01*
X1282306D02*
X1282079Y1571250D01*
X1282306Y1571563*
X1282306D02*
X1282988Y1571875D01*
X1283670*
X1284352Y1571563*
X1284352D02*
X1284806Y1570938D01*
X1284806D02*
X1285034Y1570000D01*
X1284806Y1569375*
X1284579Y1568438*
X1284579D02*
X1284125Y1567813D01*
X1284125D02*
X1283443Y1567500D01*
X1282761*
X1282079Y1567813*
X1282079D02*
X1281852Y1568125D01*
X1281625Y1568750*
X1288443Y1574063D02*
X1287761Y1573750D01*
X1287306Y1572813*
X1287306D02*
X1287079Y1571250D01*
Y1570313*
X1287079D02*
X1287306Y1568750D01*
X1287761Y1567813*
X1287761D02*
X1288443Y1567500D01*
X1288897*
X1289579Y1567813*
X1289579D02*
X1290034Y1568750D01*
X1290261Y1570313*
X1290261D02*
Y1571250D01*
X1290034Y1572813*
X1290034D02*
X1289579Y1573750D01*
X1288897Y1574063*
X1288897D02*
X1288443D01*
X1292306Y1570313D02*
X1296397D01*
X1298443Y1572813D02*
X1298897Y1573125D01*
X1299579Y1574063*
X1299579D02*
Y1567500D01*
X1301625Y1572813D02*
X1302079Y1573125D01*
X1302761Y1574063*
X1302761D02*
Y1567500D01*
X1305034Y1572500D02*
Y1572813D01*
X1305034D02*
X1305261Y1573438D01*
X1305261D02*
X1305488Y1573750D01*
X1305943Y1574063*
X1305943D02*
X1306852D01*
X1306852D02*
X1307306Y1573750D01*
X1307534Y1573438*
X1307534D02*
X1307761Y1572813D01*
X1307761D02*
Y1572188D01*
X1307761D02*
X1307534Y1571563D01*
X1307534D02*
X1307079Y1570625D01*
X1304806Y1567500*
X1307988*
X1317988Y1587125D02*
X1318443Y1587750D01*
X1319125Y1588063*
X1319125D02*
X1320034D01*
X1320034D02*
X1320715Y1587750D01*
X1321170Y1587125*
Y1586500*
X1320943Y1585875*
X1320715Y1585563*
X1320715D02*
X1320261Y1585250D01*
X1318897Y1584625*
X1318443Y1584313*
X1318443D02*
X1318215Y1584000D01*
X1317988Y1583375*
Y1582438*
X1317988D02*
X1318443Y1581813D01*
X1318443D02*
X1319125Y1581500D01*
X1320034*
X1320715Y1581813*
X1320715D02*
X1321170Y1582438D01*
X1315943Y1588063D02*
Y1581500D01*
X1313897Y1588063D02*
Y1581500D01*
X1311170*
X1309125Y1588063D02*
Y1581500D01*
X1305943Y1588063D02*
X1309125Y1583688D01*
X1307988Y1585250D02*
X1305943Y1581500D01*
X1300715Y1587125D02*
X1301170Y1587750D01*
X1301852Y1588063*
X1301852D02*
X1302761D01*
X1302761D02*
X1303443Y1587750D01*
X1303897Y1587125*
Y1586500*
X1303670Y1585875*
X1303443Y1585563*
X1303443D02*
X1302988Y1585250D01*
X1301625Y1584625*
X1301170Y1584313*
X1301170D02*
X1300943Y1584000D01*
X1300715Y1583375*
Y1582438*
X1300715D02*
X1301170Y1581813D01*
X1301170D02*
X1301852Y1581500D01*
X1302761*
X1303443Y1581813*
X1303443D02*
X1303897Y1582438D01*
X1295261Y1586500D02*
X1295488Y1587125D01*
X1295943Y1587750*
X1296397Y1588063*
X1296397D02*
X1297306D01*
X1297306D02*
X1297761Y1587750D01*
X1298215Y1587125*
X1298443Y1586500*
X1298670Y1585563*
X1298670D02*
Y1584000D01*
X1298443Y1583063*
X1298443D02*
X1298215Y1582438D01*
X1298215D02*
X1297761Y1581813D01*
X1297761D02*
X1297306Y1581500D01*
X1296397*
X1295943Y1581813*
X1295943D02*
X1295488Y1582438D01*
X1295488D02*
X1295261Y1583063D01*
X1293215Y1588063D02*
Y1581500D01*
Y1588063D02*
X1291170D01*
X1291170D02*
X1290488Y1587750D01*
X1290261Y1587438*
X1290261D02*
X1290034Y1586813D01*
X1290034D02*
Y1586188D01*
X1290034D02*
X1290261Y1585563D01*
X1290261D02*
X1290488Y1585250D01*
X1291170Y1584938*
X1291170D02*
X1293215D01*
X1291625D02*
X1290034Y1581500D01*
X1287988Y1588063D02*
Y1581500D01*
Y1588063D02*
X1285034D01*
X1287988Y1584938D02*
X1286170D01*
X1287988Y1581500D02*
X1285034D01*
X1282988Y1588063D02*
Y1581500D01*
Y1588063D02*
X1280034D01*
X1282988Y1584938D02*
X1281170D01*
X1282988Y1581500D02*
X1280034D01*
X1277988Y1588063D02*
Y1581500D01*
Y1588063D02*
X1274806Y1581500D01*
Y1588063D02*
Y1581500D01*
X1267534Y1588063D02*
Y1581500D01*
Y1588063D02*
X1265488D01*
X1265488D02*
X1264806Y1587750D01*
X1264579Y1587438*
X1264579D02*
X1264352Y1586813D01*
X1264352D02*
Y1586188D01*
X1264352D02*
X1264579Y1585563D01*
X1264579D02*
X1264806Y1585250D01*
X1265488Y1584938*
X1267534D02*
X1265488D01*
X1265488D02*
X1264806Y1584625D01*
X1264579Y1584313*
X1264579D02*
X1264352Y1583688D01*
X1264352D02*
Y1582750D01*
X1264579Y1582125*
X1264806Y1581813*
X1264806D02*
X1265488Y1581500D01*
X1267534*
X1260943Y1588063D02*
X1261397Y1587750D01*
X1261852Y1587125*
X1262079Y1586500*
X1262306Y1585563*
X1262306D02*
Y1584000D01*
X1262079Y1583063*
X1262079D02*
X1261852Y1582438D01*
X1261852D02*
X1261397Y1581813D01*
X1261397D02*
X1260943Y1581500D01*
X1260034*
X1259579Y1581813*
X1259579D02*
X1259125Y1582438D01*
X1259125D02*
X1258897Y1583063D01*
X1258897D02*
X1258670Y1584000D01*
Y1585563*
X1258670D02*
X1258897Y1586500D01*
X1259125Y1587125*
X1259579Y1587750*
X1260034Y1588063*
X1260034D02*
X1260943D01*
X1255034D02*
Y1581500D01*
X1256625Y1588063D02*
X1253443D01*
X1249806D02*
Y1581500D01*
X1251397Y1588063D02*
X1248215D01*
X1244806D02*
X1245261Y1587750D01*
X1245715Y1587125*
X1245943Y1586500*
X1246170Y1585563*
X1246170D02*
Y1584000D01*
X1245943Y1583063*
X1245943D02*
X1245715Y1582438D01*
X1245715D02*
X1245261Y1581813D01*
X1245261D02*
X1244806Y1581500D01*
X1243897*
X1243443Y1581813*
X1243443D02*
X1242988Y1582438D01*
X1242988D02*
X1242761Y1583063D01*
X1242761D02*
X1242534Y1584000D01*
Y1585563*
X1242534D02*
X1242761Y1586500D01*
X1242988Y1587125*
X1243443Y1587750*
X1243897Y1588063*
X1243897D02*
X1244806D01*
X1240488D02*
Y1581500D01*
Y1588063D02*
X1238670Y1581500D01*
X1236852Y1588063D02*
X1238670Y1581500D01*
X1236852Y1588063D02*
Y1581500D01*
X1000000Y1000000D02*
X1267717D01*
Y1458000*
X1000000*
Y1000000*
X1179800Y1282000D02*
X1199800D01*
Y1288000*
X1179800*
Y1282000*
Y1243000D02*
Y1237000D01*
X1199800*
Y1243000*
X1179800*
Y1198000D02*
X1199800D01*
Y1192000*
X1179800*
Y1198000*
Y1153000D02*
X1199800D01*
Y1147000*
X1179800*
Y1153000*
Y1121800D02*
X1199800D01*
Y1115900*
X1179800*
Y1121800*
Y1064320D02*
X1199800D01*
Y1058420*
X1179800*
Y1064320*
X1135100Y1394500D02*
X1141006D01*
Y1353500*
X1135100*
Y1394500*
X1128700Y1338100D02*
X1134606D01*
Y1297000*
X1128700*
Y1338100*
Y1283500D02*
X1134606D01*
Y1241900*
X1128700*
Y1283500*
X1202598Y1331953D02*
X1222598D01*
Y1326047*
X1202598*
Y1331953*
X1179800Y1301969D02*
X1199800D01*
Y1296063*
X1179800*
Y1301969*
Y1211811D02*
X1199800D01*
Y1205906*
X1179800*
Y1211811*
Y1257087D02*
X1199800D01*
Y1251181*
X1179800*
Y1257087*
Y1166929D02*
X1199800D01*
Y1161024*
X1179800*
Y1166929*
X1176170Y1612500D02*
X1336170D01*
Y1532500*
X1176170*
Y1612500*
Y1592500D02*
X1336170D01*
X1176170Y1577500D02*
X1336170D01*
X1176170Y1562500D02*
X1336170D01*
X1226170Y1592500D02*
Y1532500D01*
X1176170Y1547500D02*
X1336170D01*
G54D14*
X1080387Y1317659D02*
Y1312541D01*
X1079887Y1317659D02*
Y1312541D01*
X1080513D02*
X1096261D01*
Y1317659*
X1080513*
Y1312541*
X1079726D02*
X1080513D01*
Y1317659*
X1079726*
Y1312541*
X1080387Y1327659D02*
Y1322541D01*
X1079887Y1327659D02*
Y1322541D01*
X1080513D02*
X1096261D01*
Y1327659*
X1080513*
Y1322541*
X1079726D02*
X1080513D01*
Y1327659*
X1079726*
Y1322541*
X1084787Y1374059D02*
Y1368941D01*
X1084287Y1374059D02*
Y1368941D01*
X1084913D02*
X1100661D01*
Y1374059*
X1084913*
Y1368941*
X1084126D02*
X1084913D01*
Y1374059*
X1084126*
Y1368941*
X1084787Y1384059D02*
Y1378941D01*
X1084287Y1384059D02*
Y1378941D01*
X1084913D02*
X1100661D01*
Y1384059*
X1084913*
Y1378941*
X1084126D02*
X1084913D01*
Y1384059*
X1084126*
Y1378941*
X1078186Y1259601D02*
Y1254483D01*
X1077686Y1259601D02*
Y1254483D01*
X1078312D02*
X1094060D01*
Y1259601*
X1078312*
Y1254483*
X1077524D02*
X1078312D01*
Y1259601*
X1077524*
Y1254483*
X1078186Y1269601D02*
Y1264483D01*
X1077686Y1269601D02*
Y1264483D01*
X1078312D02*
X1094060D01*
Y1269601*
X1078312*
Y1264483*
X1077524D02*
X1078312D01*
Y1269601*
X1077524*
Y1264483*
X1149941Y1287787D02*
X1155059D01*
X1149941Y1287287D02*
X1155059D01*
Y1287913D02*
Y1303661D01*
X1149941*
Y1287913*
X1155059*
Y1287126D02*
Y1287913D01*
X1149941*
Y1287126*
X1155059*
X1149941Y1102787D02*
X1155059D01*
X1149941Y1102287D02*
X1155059D01*
Y1102913D02*
Y1118661D01*
X1149941*
Y1102913*
X1155059*
Y1102126D02*
Y1102913D01*
X1149941*
Y1102126*
X1155059*
X1149941Y1045287D02*
X1155059D01*
X1149941Y1044787D02*
X1155059D01*
Y1045413D02*
Y1061161D01*
X1149941*
Y1045413*
X1155059*
Y1044626D02*
Y1045413D01*
X1149941*
Y1044626*
X1155059*
X1149941Y1147787D02*
X1155059D01*
X1149941Y1147287D02*
X1155059D01*
Y1147913D02*
Y1163661D01*
X1149941*
Y1147913*
X1155059*
Y1147126D02*
Y1147913D01*
X1149941*
Y1147126*
X1155059*
X1149941Y1192787D02*
X1155059D01*
X1149941Y1192287D02*
X1155059D01*
Y1192913D02*
Y1208661D01*
X1149941*
Y1192913*
X1155059*
Y1192126D02*
Y1192913D01*
X1149941*
Y1192126*
X1155059*
X1149941Y1237787D02*
X1155059D01*
X1149941Y1237287D02*
X1155059D01*
Y1237913D02*
Y1253661D01*
X1149941*
Y1237913*
X1155059*
Y1237126D02*
Y1237913D01*
X1149941*
Y1237126*
X1155059*
X1111811Y1053937D02*
X1123622D01*
X1111811Y1034252D02*
X1123622D01*
X1116304Y1263657D02*
X1104492D01*
X1116304Y1283343D02*
X1104492D01*
X1116304Y1239699D02*
X1104493D01*
X1116304Y1259384D02*
X1104493D01*
X1118506Y1321657D02*
X1106694D01*
X1118506Y1341343D02*
X1106694D01*
X1118506Y1297757D02*
X1106694D01*
X1118506Y1317443D02*
X1106694D01*
X1122906Y1379157D02*
X1111094D01*
X1122906Y1398843D02*
X1111094D01*
X1122906Y1354157D02*
X1111094D01*
X1122906Y1373843D02*
X1111094D01*
X1073164Y1280828D02*
Y1277547D01*
Y1280828D02*
X1072141D01*
X1071800Y1280672*
X1071686Y1280516*
X1071573Y1280203*
Y1279891*
X1071686Y1279578*
X1071800Y1279422*
X1072141Y1279266*
X1073164*
X1072368D02*
X1071573Y1277547D01*
X1070550Y1280203D02*
X1070323Y1280359D01*
X1069982Y1280828*
Y1277547*
X1068959Y1280203D02*
X1068732Y1280359D01*
X1068391Y1280828*
Y1277547*
X1072675Y1246328D02*
Y1243047D01*
Y1246328D02*
X1071652D01*
X1071311Y1246172*
X1071198Y1246016*
X1071084Y1245703*
Y1245391*
X1071198Y1245078*
X1071311Y1244922*
X1071652Y1244766*
X1072675*
X1071880D02*
X1071084Y1243047D01*
X1070061Y1245703D02*
X1069834Y1245859D01*
X1069493Y1246328*
Y1243047*
X1067902Y1246328D02*
X1068243Y1246172D01*
X1068357Y1245859*
Y1245547*
X1068243Y1245234*
X1068016Y1245078*
X1067561Y1244922*
X1067220Y1244766*
X1066993Y1244453*
X1066880Y1244141*
Y1243672*
X1066993Y1243359*
X1067107Y1243203*
X1067448Y1243047*
X1067902*
X1068243Y1243203*
X1068357Y1243359*
X1068470Y1243672*
Y1244141*
X1068357Y1244453*
X1068130Y1244766*
X1067789Y1244922*
X1067334Y1245078*
X1067107Y1245234*
X1066993Y1245547*
Y1245859*
X1067107Y1246172*
X1067448Y1246328*
X1067902*
X1075368Y1338828D02*
Y1335547D01*
Y1338828D02*
X1074345D01*
X1074005Y1338672*
X1073891Y1338516*
X1073777Y1338203*
Y1337891*
X1073891Y1337578*
X1074005Y1337422*
X1074345Y1337266*
X1075368*
X1074573D02*
X1073777Y1335547D01*
X1072755Y1338203D02*
X1072527Y1338359D01*
X1072186Y1338828*
Y1335547*
X1075680Y1303172D02*
Y1299891D01*
Y1303172D02*
X1074657D01*
X1074316Y1303016*
X1074202Y1302859*
X1074089Y1302547*
Y1302234*
X1074202Y1301922*
X1074316Y1301766*
X1074657Y1301609*
X1075680*
X1074884D02*
X1074089Y1299891D01*
X1072952Y1302391D02*
Y1302547D01*
X1072839Y1302859*
X1072725Y1303016*
X1072498Y1303172*
X1072043*
X1071816Y1303016*
X1071702Y1302859*
X1071589Y1302547*
Y1302234*
X1071702Y1301922*
X1071930Y1301453*
X1073066Y1299891*
X1071475*
X1079436Y1359828D02*
Y1356547D01*
Y1359828D02*
X1078414D01*
X1078073Y1359672*
X1077959Y1359516*
X1077845Y1359203*
Y1358891*
X1077959Y1358578*
X1078073Y1358422*
X1078414Y1358266*
X1079436*
X1078641D02*
X1077845Y1356547D01*
X1075686Y1359828D02*
X1076823Y1357641D01*
X1075118*
X1075686Y1359828D02*
Y1356547D01*
X1079180Y1395172D02*
Y1391891D01*
Y1395172D02*
X1078157D01*
X1077816Y1395016*
X1077702Y1394859*
X1077589Y1394547*
Y1394234*
X1077702Y1393922*
X1077816Y1393766*
X1078157Y1393609*
X1079180*
X1078384D02*
X1077589Y1391891D01*
X1076339Y1395172D02*
X1075089D01*
X1075770Y1393922*
X1075430*
X1075202Y1393766*
X1075089Y1393609*
X1074975Y1393141*
Y1392828*
X1075089Y1392359*
X1075316Y1392047*
X1075657Y1391891*
X1075998*
X1076339Y1392047*
X1076452Y1392203*
X1076566Y1392516*
X1098427Y1188047D02*
X1098541Y1188359D01*
X1098768Y1188672*
X1098995Y1188828*
X1099450*
X1099677Y1188672*
X1099905Y1188359*
X1100018Y1188047*
X1100132Y1187578*
Y1186797*
X1100018Y1186328*
X1099905Y1186016*
X1099677Y1185703*
X1099450Y1185547*
X1098995*
X1098768Y1185703*
X1098541Y1186016*
X1098427Y1186328*
X1097405Y1188203D02*
X1097177Y1188359D01*
X1096836Y1188828*
Y1185547*
X1094223Y1188828D02*
X1095359Y1185547D01*
X1095814Y1188828D02*
X1094223D01*
X1097927Y1218547D02*
X1098041Y1218859D01*
X1098268Y1219172*
X1098495Y1219328*
X1098950*
X1099177Y1219172*
X1099405Y1218859*
X1099518Y1218547*
X1099632Y1218078*
Y1217297*
X1099518Y1216828*
X1099405Y1216516*
X1099177Y1216203*
X1098950Y1216047*
X1098495*
X1098268Y1216203*
X1098041Y1216516*
X1097927Y1216828*
X1096905Y1218703D02*
X1096677Y1218859D01*
X1096336Y1219328*
Y1216047*
X1094745Y1219328D02*
X1095086Y1219172D01*
X1095200Y1218859*
Y1218547*
X1095086Y1218234*
X1094859Y1218078*
X1094405Y1217922*
X1094064Y1217766*
X1093836Y1217453*
X1093723Y1217141*
Y1216672*
X1093836Y1216359*
X1093950Y1216203*
X1094291Y1216047*
X1094745*
X1095086Y1216203*
X1095200Y1216359*
X1095314Y1216672*
Y1217141*
X1095200Y1217453*
X1094973Y1217766*
X1094632Y1217922*
X1094177Y1218078*
X1093950Y1218234*
X1093836Y1218547*
Y1218859*
X1093950Y1219172*
X1094291Y1219328*
X1094745*
X1098070Y1150203D02*
X1098184Y1150516D01*
X1098411Y1150828*
X1098639Y1150984*
X1099093*
X1099320Y1150828*
X1099548Y1150516*
X1099661Y1150203*
X1099775Y1149734*
Y1148953*
X1099661Y1148484*
X1099548Y1148172*
X1099320Y1147859*
X1099093Y1147703*
X1098639*
X1098411Y1147859*
X1098184Y1148172*
X1098070Y1148484*
X1097048Y1150359D02*
X1096820Y1150516D01*
X1096480Y1150984*
Y1147703*
X1093980Y1149891D02*
X1094093Y1149422D01*
X1094320Y1149109*
X1094661Y1148953*
X1094775*
X1095116Y1149109*
X1095343Y1149422*
X1095457Y1149891*
Y1150047*
X1095343Y1150516*
X1095116Y1150828*
X1094775Y1150984*
X1094661*
X1094320Y1150828*
X1094093Y1150516*
X1093980Y1149891*
Y1149109*
X1094093Y1148328*
X1094320Y1147859*
X1094661Y1147703*
X1094889*
X1095230Y1147859*
X1095343Y1148172*
X1099639Y1096703D02*
X1099752Y1097016D01*
X1099980Y1097328*
X1100207Y1097484*
X1100661*
X1100889Y1097328*
X1101116Y1097016*
X1101230Y1096703*
X1101343Y1096234*
Y1095453*
X1101230Y1094984*
X1101116Y1094672*
X1100889Y1094359*
X1100661Y1094203*
X1100207*
X1099980Y1094359*
X1099752Y1094672*
X1099639Y1094984*
X1098502Y1096703D02*
Y1096859D01*
X1098389Y1097172*
X1098275Y1097328*
X1098048Y1097484*
X1097593*
X1097366Y1097328*
X1097252Y1097172*
X1097139Y1096859*
Y1096547*
X1097252Y1096234*
X1097480Y1095766*
X1098616Y1094203*
X1097025*
X1095320Y1097484D02*
X1095661Y1097328D01*
X1095889Y1096859*
X1096002Y1096078*
Y1095609*
X1095889Y1094828*
X1095661Y1094359*
X1095320Y1094203*
X1095093*
X1094752Y1094359*
X1094525Y1094828*
X1094411Y1095609*
Y1096078*
X1094525Y1096859*
X1094752Y1097328*
X1095093Y1097484*
X1095320*
X1098927Y1063047D02*
X1099041Y1063359D01*
X1099268Y1063672*
X1099495Y1063828*
X1099950*
X1100177Y1063672*
X1100405Y1063359*
X1100518Y1063047*
X1100632Y1062578*
Y1061797*
X1100518Y1061328*
X1100405Y1061016*
X1100177Y1060703*
X1099950Y1060547*
X1099495*
X1099268Y1060703*
X1099041Y1061016*
X1098927Y1061328*
X1097791Y1063047D02*
Y1063203D01*
X1097677Y1063516*
X1097564Y1063672*
X1097336Y1063828*
X1096882*
X1096655Y1063672*
X1096541Y1063516*
X1096427Y1063203*
Y1062891*
X1096541Y1062578*
X1096768Y1062109*
X1097905Y1060547*
X1096314*
X1095291Y1063203D02*
X1095064Y1063359D01*
X1094723Y1063828*
Y1060547*
X1076368Y1316328D02*
Y1313047D01*
Y1316328D02*
X1075573D01*
X1075232Y1316172*
X1075005Y1315859*
X1074891Y1315547*
X1074777Y1315078*
Y1314297*
X1074891Y1313828*
X1075005Y1313516*
X1075232Y1313203*
X1075573Y1313047*
X1076368*
X1073755Y1315703D02*
X1073527Y1315859D01*
X1073186Y1316328*
Y1313047*
X1075880Y1326328D02*
Y1323047D01*
Y1326328D02*
X1075084D01*
X1074743Y1326172*
X1074516Y1325859*
X1074402Y1325547*
X1074289Y1325078*
Y1324297*
X1074402Y1323828*
X1074516Y1323516*
X1074743Y1323203*
X1075084Y1323047*
X1075880*
X1073152Y1325547D02*
Y1325703D01*
X1073039Y1326016*
X1072925Y1326172*
X1072698Y1326328*
X1072243*
X1072016Y1326172*
X1071902Y1326016*
X1071789Y1325703*
Y1325391*
X1071902Y1325078*
X1072130Y1324609*
X1073266Y1323047*
X1071675*
X1079880Y1372328D02*
Y1369047D01*
Y1372328D02*
X1079084D01*
X1078743Y1372172*
X1078516Y1371859*
X1078402Y1371547*
X1078289Y1371078*
Y1370297*
X1078402Y1369828*
X1078516Y1369516*
X1078743Y1369203*
X1079084Y1369047*
X1079880*
X1077039Y1372328D02*
X1075789D01*
X1076470Y1371078*
X1076130*
X1075902Y1370922*
X1075789Y1370766*
X1075675Y1370297*
Y1369984*
X1075789Y1369516*
X1076016Y1369203*
X1076357Y1369047*
X1076698*
X1077039Y1369203*
X1077152Y1369359*
X1077266Y1369672*
X1079936Y1382328D02*
Y1379047D01*
Y1382328D02*
X1079141D01*
X1078800Y1382172*
X1078573Y1381859*
X1078459Y1381547*
X1078345Y1381078*
Y1380297*
X1078459Y1379828*
X1078573Y1379516*
X1078800Y1379203*
X1079141Y1379047*
X1079936*
X1076186Y1382328D02*
X1077323Y1380141D01*
X1075618*
X1076186Y1382328D02*
Y1379047D01*
X1073243Y1258328D02*
Y1255047D01*
Y1258328D02*
X1072448D01*
X1072107Y1258172*
X1071880Y1257859*
X1071766Y1257547*
X1071652Y1257078*
Y1256297*
X1071766Y1255828*
X1071880Y1255516*
X1072107Y1255203*
X1072448Y1255047*
X1073243*
X1069493Y1258328D02*
X1070630Y1256141D01*
X1068925*
X1069493Y1258328D02*
Y1255047D01*
X1067789Y1257547D02*
Y1257703D01*
X1067675Y1258016*
X1067561Y1258172*
X1067334Y1258328*
X1066880*
X1066652Y1258172*
X1066539Y1258016*
X1066425Y1257703*
Y1257391*
X1066539Y1257078*
X1066766Y1256609*
X1067902Y1255047*
X1066311*
X1073743Y1272572D02*
Y1269291D01*
Y1272572D02*
X1072948D01*
X1072607Y1272416*
X1072380Y1272103*
X1072266Y1271791*
X1072152Y1271322*
Y1270541*
X1072266Y1270072*
X1072380Y1269759*
X1072607Y1269447*
X1072948Y1269291*
X1073743*
X1069993Y1272572D02*
X1071130Y1270384D01*
X1069425*
X1069993Y1272572D02*
Y1269291D01*
X1068175Y1272572D02*
X1066925D01*
X1067607Y1271322*
X1067266*
X1067039Y1271166*
X1066925Y1271009*
X1066811Y1270541*
Y1270228*
X1066925Y1269759*
X1067152Y1269447*
X1067493Y1269291*
X1067834*
X1068175Y1269447*
X1068289Y1269603*
X1068402Y1269916*
X1123828Y1147925D02*
X1120547D01*
X1123828D02*
Y1148948D01*
X1123672Y1149289*
X1123516Y1149402*
X1123203Y1149516*
X1122891*
X1122578Y1149402*
X1122422Y1149289*
X1122266Y1148948*
Y1147925*
Y1148720D02*
X1120547Y1149516D01*
X1123203Y1150539D02*
X1123359Y1150766D01*
X1123828Y1151107*
X1120547*
X1123828Y1152811D02*
X1123672Y1152470D01*
X1123203Y1152243*
X1122422Y1152130*
X1121953*
X1121172Y1152243*
X1120703Y1152470*
X1120547Y1152811*
Y1153039*
X1120703Y1153380*
X1121172Y1153607*
X1121953Y1153720*
X1122422*
X1123203Y1153607*
X1123672Y1153380*
X1123828Y1153039*
Y1152811*
X1124728Y1107120D02*
X1121447D01*
X1124728D02*
Y1108143D01*
X1124572Y1108484*
X1124416Y1108598*
X1124103Y1108711*
X1123791*
X1123478Y1108598*
X1123322Y1108484*
X1123166Y1108143*
Y1107120*
Y1107916D02*
X1121447Y1108711D01*
X1124103Y1109734D02*
X1124259Y1109961D01*
X1124728Y1110302*
X1121447*
X1123947Y1111438D02*
X1124103D01*
X1124416Y1111552*
X1124572Y1111666*
X1124728Y1111893*
Y1112348*
X1124572Y1112575*
X1124416Y1112688*
X1124103Y1112802*
X1123791*
X1123478Y1112688*
X1123009Y1112461*
X1121447Y1111325*
Y1112916*
X1124828Y1072925D02*
X1121547D01*
X1124828D02*
Y1073948D01*
X1124672Y1074289*
X1124516Y1074402*
X1124203Y1074516*
X1123891*
X1123578Y1074402*
X1123422Y1074289*
X1123266Y1073948*
Y1072925*
Y1073720D02*
X1121547Y1074516D01*
X1124203Y1075539D02*
X1124359Y1075766D01*
X1124828Y1076107*
X1121547*
X1124828Y1077357D02*
Y1078607D01*
X1123578Y1077925*
Y1078266*
X1123422Y1078493*
X1123266Y1078607*
X1122797Y1078720*
X1122484*
X1122016Y1078607*
X1121703Y1078380*
X1121547Y1078039*
Y1077698*
X1121703Y1077357*
X1121859Y1077243*
X1122172Y1077130*
X1123828Y1185720D02*
X1120547D01*
X1123828D02*
Y1186743D01*
X1123672Y1187084*
X1123516Y1187198*
X1123203Y1187311*
X1122891*
X1122578Y1187198*
X1122422Y1187084*
X1122266Y1186743*
Y1185720*
Y1186516D02*
X1120547Y1187311D01*
X1123828Y1188902D02*
X1123672Y1188561D01*
X1123359Y1188448*
X1123047*
X1122734Y1188561*
X1122578Y1188789*
X1122422Y1189243*
X1122266Y1189584*
X1121953Y1189811*
X1121641Y1189925*
X1121172*
X1120859Y1189811*
X1120703Y1189698*
X1120547Y1189357*
Y1188902*
X1120703Y1188561*
X1120859Y1188448*
X1121172Y1188334*
X1121641*
X1121953Y1188448*
X1122266Y1188675*
X1122422Y1189016*
X1122578Y1189470*
X1122734Y1189698*
X1123047Y1189811*
X1123359*
X1123672Y1189698*
X1123828Y1189357*
Y1188902*
X1114523Y1231628D02*
Y1228347D01*
Y1231628D02*
X1113500D01*
X1113159Y1231472*
X1113045Y1231316*
X1112932Y1231003*
Y1230691*
X1113045Y1230378*
X1113159Y1230222*
X1113500Y1230066*
X1114523*
X1113727D02*
X1112932Y1228347D01*
X1110432Y1230534D02*
X1110545Y1230066D01*
X1110773Y1229753*
X1111114Y1229597*
X1111227*
X1111568Y1229753*
X1111795Y1230066*
X1111909Y1230534*
Y1230691*
X1111795Y1231159*
X1111568Y1231472*
X1111227Y1231628*
X1111114*
X1110773Y1231472*
X1110545Y1231159*
X1110432Y1230534*
Y1229753*
X1110545Y1228972*
X1110773Y1228503*
X1111114Y1228347*
X1111341*
X1111682Y1228503*
X1111795Y1228816*
X1147218Y1291388D02*
X1143936D01*
X1147218D02*
Y1292183D01*
X1147061Y1292524*
X1146749Y1292751*
X1146436Y1292865*
X1145968Y1292978*
X1145186*
X1144718Y1292865*
X1144405Y1292751*
X1144093Y1292524*
X1143936Y1292183*
Y1291388*
X1146436Y1294115D02*
X1146593D01*
X1146905Y1294228*
X1147061Y1294342*
X1147218Y1294569*
Y1295024*
X1147061Y1295251*
X1146905Y1295365*
X1146593Y1295478*
X1146280*
X1145968Y1295365*
X1145499Y1295138*
X1145499D02*
X1143936Y1294001D01*
Y1295592*
X1147218Y1297183D02*
X1147061Y1296842D01*
X1146749Y1296728*
X1146436*
X1146124Y1296842*
X1145968Y1297069*
X1145811Y1297524*
X1145655Y1297865*
X1145343Y1298092*
X1145030Y1298206*
X1144561*
X1144249Y1298092*
X1144093Y1297978*
X1143936Y1297638*
X1143936D02*
Y1297183D01*
X1144093Y1296842*
X1144249Y1296728*
X1144561Y1296615*
X1145030*
X1145343Y1296728*
X1145655Y1296956*
X1145811Y1297297*
X1145968Y1297751*
X1146124Y1297978*
X1146436Y1298092*
X1146749*
X1147061Y1297978*
X1147218Y1297638*
X1147218D02*
Y1297183D01*
X1153486Y1121587D02*
X1150205D01*
X1153486D02*
Y1122383D01*
X1153330Y1122724*
X1153017Y1122951*
X1152705Y1123065*
X1152236Y1123178*
X1151455*
X1150986Y1123065*
X1150673Y1122951*
X1150361Y1122724*
X1150205Y1122383*
Y1121587*
X1152705Y1124315D02*
X1152861D01*
X1153173Y1124428*
X1153330Y1124542*
X1153486Y1124769*
Y1125224*
X1153330Y1125451*
X1153173Y1125565*
X1152861Y1125678*
X1152548*
X1152236Y1125565*
X1151767Y1125337*
X1151767D02*
X1150205Y1124201D01*
Y1125792*
X1152392Y1128292D02*
X1151923Y1128178D01*
X1151611Y1127951*
X1151455Y1127610*
Y1127497*
X1151611Y1127156*
X1151923Y1126928*
X1152392Y1126815*
X1152548*
X1153017Y1126928*
X1153330Y1127156*
X1153486Y1127497*
Y1127610*
X1153330Y1127951*
X1153017Y1128178*
X1152392Y1128292*
X1151611*
X1150830Y1128178*
X1150361Y1127951*
X1150205Y1127610*
Y1127383*
X1150361Y1127042*
X1150673Y1126928*
X1153518Y1063387D02*
X1150236D01*
X1153518D02*
Y1064183D01*
X1153361Y1064524*
X1153049Y1064751*
X1152736Y1064865*
X1152268Y1064978*
X1151486*
X1151018Y1064865*
X1150705Y1064751*
X1150393Y1064524*
X1150236Y1064183*
Y1063387*
X1153518Y1066228D02*
Y1067478D01*
X1152268Y1066797*
Y1067137*
X1152268D02*
X1152111Y1067365D01*
X1151955Y1067478*
X1151486Y1067592*
X1151174*
X1150705Y1067478*
X1150393Y1067251*
X1150236Y1066910*
Y1066569*
X1150393Y1066228*
X1150549Y1066115*
X1150861Y1066001*
X1153518Y1069297D02*
X1153361Y1068956D01*
X1152893Y1068728*
X1152111Y1068615*
X1151643*
X1150861Y1068728*
X1150393Y1068956*
X1150236Y1069297*
Y1069524*
X1150393Y1069865*
X1150861Y1070092*
X1151643Y1070206*
X1152111*
X1152893Y1070092*
X1153361Y1069865*
X1153518Y1069524*
Y1069297*
X1147669Y1147750D02*
X1144387D01*
X1147669D02*
Y1148545D01*
X1147512Y1148886*
X1147512D02*
X1147200Y1149114D01*
X1146887Y1149227*
X1146887D02*
X1146419Y1149341D01*
X1145637*
X1145637D02*
X1145169Y1149227D01*
X1144856Y1149114*
X1144544Y1148886*
X1144387Y1148545*
X1144387D02*
Y1147750D01*
X1147669Y1150591D02*
Y1151841D01*
X1146419Y1151159*
Y1151500*
X1146262Y1151727*
X1146262D02*
X1146106Y1151841D01*
X1145637Y1151955*
X1145637D02*
X1145325D01*
X1144856Y1151841*
X1144544Y1151614*
X1144387Y1151273*
X1144387D02*
Y1150932D01*
X1144387D02*
X1144544Y1150591D01*
X1144700Y1150477*
X1145012Y1150364*
X1147044Y1152977D02*
X1147200Y1153205D01*
X1147669Y1153545*
X1144387*
X1148569Y1196964D02*
X1145287D01*
X1148569D02*
Y1197759D01*
X1148412Y1198100*
X1148412D02*
X1148100Y1198327D01*
X1147787Y1198441*
X1147787D02*
X1147319Y1198555D01*
X1146537*
X1146537D02*
X1146069Y1198441D01*
X1145756Y1198327*
X1145444Y1198100*
X1145287Y1197759*
X1145287D02*
Y1196964D01*
X1148569Y1199805D02*
Y1201055D01*
X1147319Y1200373*
Y1200714*
X1147162Y1200941*
X1147162D02*
X1147006Y1201055D01*
X1146537Y1201168*
X1146537D02*
X1146225D01*
X1145756Y1201055*
X1145444Y1200827*
X1145287Y1200486*
X1145287D02*
Y1200145D01*
X1145287D02*
X1145444Y1199805D01*
X1145600Y1199691*
X1145912Y1199577*
X1147787Y1202305D02*
X1147944D01*
X1148256Y1202418*
X1148412Y1202532*
X1148412D02*
X1148569Y1202759D01*
Y1203214*
X1148412Y1203441*
X1148412D02*
X1148256Y1203555D01*
X1147944Y1203668*
X1147631*
X1147319Y1203555*
X1146850Y1203327*
X1145287Y1202191*
X1145287D02*
Y1203782D01*
X1147618Y1237087D02*
X1144336D01*
X1147618D02*
Y1237883D01*
X1147461Y1238224*
X1147149Y1238451*
X1146836Y1238565*
X1146368Y1238678*
X1145586*
X1145118Y1238565*
X1144805Y1238451*
X1144493Y1238224*
X1144336Y1237883*
Y1237087*
X1147618Y1239928D02*
Y1241178D01*
X1146368Y1240497*
Y1240837*
X1146368D02*
X1146211Y1241065D01*
X1146055Y1241178*
X1145586Y1241292*
X1145274*
X1144805Y1241178*
X1144493Y1240951*
X1144336Y1240610*
Y1240269*
X1144493Y1239928*
X1144649Y1239815*
X1144961Y1239701*
X1147618Y1242542D02*
Y1243792D01*
X1146368Y1243110*
Y1243451*
X1146211Y1243678*
X1146055Y1243792*
X1145586Y1243906*
X1145274*
X1144805Y1243792*
X1144493Y1243565*
X1144336Y1243224*
Y1242883*
X1144493Y1242542*
X1144649Y1242428*
X1144961Y1242315*
X1122167Y1060783D02*
X1122280Y1061096D01*
X1122508Y1061408*
X1122735Y1061564*
X1123190*
X1123417Y1061408*
X1123644Y1061096*
X1123758Y1060783*
X1123871Y1060314*
Y1059533*
X1123758Y1059064*
X1123644Y1058752*
X1123417Y1058439*
X1123190Y1058283*
X1122735*
X1122508Y1058439*
X1122280Y1058752*
X1122167Y1059064*
X1121030Y1060783D02*
Y1060939D01*
X1120917Y1061252*
X1120803Y1061408*
X1120576Y1061564*
X1120121*
X1119894Y1061408*
X1119780Y1061252*
X1119667Y1060939*
Y1060627*
X1119780Y1060314*
X1120008Y1059846*
X1121144Y1058283*
X1119553*
X1117053Y1060471D02*
X1117167Y1060002D01*
X1117394Y1059689*
X1117735Y1059533*
X1117849*
X1118190Y1059689*
X1118417Y1060002*
X1118530Y1060471*
Y1060627*
X1118417Y1061096*
X1118190Y1061408*
X1117849Y1061564*
X1117735*
X1117394Y1061408*
X1117167Y1061096*
X1117053Y1060471*
Y1059689*
X1117167Y1058908*
X1117394Y1058439*
X1117735Y1058283*
X1117962*
X1118303Y1058439*
X1118417Y1058752*
X1109332Y1288703D02*
X1109445Y1289016D01*
X1109673Y1289328*
X1109900Y1289484*
X1110355*
X1110582Y1289328*
X1110809Y1289016*
X1110923Y1288703*
X1111036Y1288234*
Y1287453*
X1110923Y1286984*
X1110809Y1286672*
X1110582Y1286359*
X1110355Y1286203*
X1109900*
X1109673Y1286359*
X1109445Y1286672*
X1109332Y1286984*
X1108082Y1289484D02*
X1106832D01*
X1107514Y1288234*
X1107173*
X1106945Y1288078*
X1106832Y1287922*
X1106718Y1287453*
Y1287141*
X1106832Y1286672*
X1107059Y1286359*
X1107400Y1286203*
X1107741*
X1108082Y1286359*
X1108195Y1286516*
X1108309Y1286828*
X1109189Y1237547D02*
X1109302Y1237859D01*
X1109530Y1238172*
X1109757Y1238328*
X1110211*
X1110439Y1238172*
X1110666Y1237859*
X1110780Y1237547*
X1110893Y1237078*
Y1236297*
X1110780Y1235828*
X1110666Y1235516*
X1110439Y1235203*
X1110211Y1235047*
X1109757*
X1109530Y1235203*
X1109302Y1235516*
X1109189Y1235828*
X1107030Y1238328D02*
X1108166Y1236141D01*
X1106461*
X1107030Y1238328D02*
Y1235047D01*
X1109889Y1347203D02*
X1110002Y1347516D01*
X1110230Y1347828*
X1110457Y1347984*
X1110911*
X1111139Y1347828*
X1111366Y1347516*
X1111480Y1347203*
X1111593Y1346734*
Y1345953*
X1111480Y1345484*
X1111366Y1345172*
X1111139Y1344859*
X1110911Y1344703*
X1110457*
X1110230Y1344859*
X1110002Y1345172*
X1109889Y1345484*
X1107389Y1347984D02*
X1108525D01*
X1108639Y1346578*
X1108525Y1346734*
X1108184Y1346891*
X1107843*
X1107502Y1346734*
X1107275Y1346422*
X1107161Y1345953*
X1107275Y1345641*
X1107389Y1345172*
X1107616Y1344859*
X1107957Y1344703*
X1108298*
X1108639Y1344859*
X1108752Y1345016*
X1108866Y1345328*
X1112775Y1295203D02*
X1112889Y1295516D01*
X1113116Y1295828*
X1113343Y1295984*
X1113798*
X1114025Y1295828*
X1114252Y1295516*
X1114366Y1295203*
X1114480Y1294734*
Y1293953*
X1114366Y1293484*
X1114252Y1293172*
X1114025Y1292859*
X1113798Y1292703*
X1113343*
X1113116Y1292859*
X1112889Y1293172*
X1112775Y1293484*
X1110389Y1295516D02*
X1110502Y1295828D01*
X1110843Y1295984*
X1111070*
X1111411Y1295828*
X1111639Y1295359*
X1111752Y1294578*
Y1293797*
X1111639Y1293172*
X1111411Y1292859*
X1111070Y1292703*
X1110957*
X1110616Y1292859*
X1110389Y1293172*
X1110275Y1293641*
Y1293797*
X1110389Y1294266*
X1110616Y1294578*
X1110957Y1294734*
X1111070*
X1111411Y1294578*
X1111639Y1294266*
X1111752Y1293797*
X1117537Y1404947D02*
X1117650Y1405259D01*
X1117877Y1405572*
X1118105Y1405728*
X1118559*
X1118787Y1405572*
X1119014Y1405259*
X1119127Y1404947*
X1119241Y1404478*
Y1403697*
X1119127Y1403228*
X1119014Y1402916*
X1118787Y1402603*
X1118559Y1402447*
X1118105*
X1117877Y1402603*
X1117650Y1402916*
X1117537Y1403228*
X1114923Y1405728D02*
X1116059Y1402447D01*
X1116514Y1405728D02*
X1114923D01*
X1119332Y1350703D02*
X1119445Y1351016D01*
X1119673Y1351328*
X1119900Y1351484*
X1120355*
X1120582Y1351328*
X1120809Y1351016*
X1120923Y1350703*
X1121036Y1350234*
Y1349453*
X1120923Y1348984*
X1120809Y1348672*
X1120582Y1348359*
X1120355Y1348203*
X1119900*
X1119673Y1348359*
X1119445Y1348672*
X1119332Y1348984*
X1117741Y1351484D02*
X1118082Y1351328D01*
X1118195Y1351016*
Y1350703*
X1118082Y1350391*
X1117855Y1350234*
X1117400Y1350078*
X1117059Y1349922*
X1116832Y1349609*
X1116718Y1349297*
Y1348828*
X1116832Y1348516*
X1116945Y1348359*
X1117286Y1348203*
X1117741*
X1118082Y1348359*
X1118195Y1348516*
X1118309Y1348828*
Y1349297*
X1118195Y1349609*
X1117968Y1349922*
X1117627Y1350078*
X1117173Y1350234*
X1116945Y1350391*
X1116832Y1350703*
Y1351016*
X1116945Y1351328*
X1117286Y1351484*
X1117741*
X1259843Y1400919D02*
Y1397638D01*
Y1400919D02*
X1259047D01*
X1258706Y1400763*
X1258479Y1400450*
X1258365Y1400138*
X1258252Y1399669*
Y1398888*
X1258365Y1398419*
X1258479Y1398107*
X1258706Y1397794*
X1259047Y1397638*
X1259843*
X1257229Y1400294D02*
X1257002Y1400450D01*
X1256661Y1400919*
Y1397638*
X1254274Y1400450D02*
X1254388Y1400763D01*
X1254729Y1400919*
X1254956*
X1255297Y1400763*
X1255524Y1400294*
X1255638Y1399513*
Y1398732*
X1255524Y1398107*
X1255297Y1397794*
X1254956Y1397638*
X1254843*
X1254502Y1397794*
X1254274Y1398107*
X1254161Y1398575*
Y1398732*
X1254274Y1399200*
X1254502Y1399513*
X1254843Y1399669*
X1254956*
X1255297Y1399513*
X1255524Y1399200*
X1255638Y1398732*
X1031000Y1115581D02*
Y1112300D01*
Y1115581D02*
X1030205D01*
X1029864Y1115425*
X1029636Y1115113*
X1029636D02*
X1029523Y1114800D01*
X1029409Y1114331*
Y1113550*
X1029523Y1113081*
X1029636Y1112769*
X1029864Y1112456*
X1030205Y1112300*
X1031000*
X1028386Y1114956D02*
X1028159Y1115113D01*
X1028159D02*
X1027818Y1115581D01*
Y1112300*
X1026227Y1115581D02*
X1026568Y1115425D01*
X1026682Y1115113*
X1026682D02*
Y1114800D01*
X1026568Y1114488*
X1026568D02*
X1026341Y1114331D01*
X1025886Y1114175*
X1025545Y1114019*
X1025318Y1113706*
X1025205Y1113394*
Y1112925*
X1025318Y1112613*
X1025318D02*
X1025432Y1112456D01*
X1025773Y1112300*
X1026227*
X1026568Y1112456*
X1026682Y1112613*
X1026682D02*
X1026795Y1112925D01*
Y1113394*
X1026682Y1113706*
X1026455Y1114019*
X1026114Y1114175*
X1025659Y1114331*
X1025432Y1114488*
X1025432D02*
X1025318Y1114800D01*
Y1115113*
X1025318D02*
X1025432Y1115425D01*
X1025773Y1115581*
X1026227*
X1030800Y1196881D02*
Y1193600D01*
Y1196881D02*
X1030005D01*
X1029664Y1196725*
X1029436Y1196413*
X1029436D02*
X1029323Y1196100D01*
X1029209Y1195631*
Y1194850*
X1029323Y1194381*
X1029436Y1194069*
X1029664Y1193756*
X1030005Y1193600*
X1030800*
X1028073Y1196100D02*
Y1196256D01*
X1027959Y1196569*
X1027845Y1196725*
X1027618Y1196881*
X1027164*
X1026936Y1196725*
X1026823Y1196569*
X1026709Y1196256*
Y1195944*
X1026823Y1195631*
X1027050Y1195163*
X1027050D02*
X1028186Y1193600D01*
X1026595*
X1024891Y1196881D02*
X1025232Y1196725D01*
X1025459Y1196256*
X1025573Y1195475*
Y1195006*
X1025459Y1194225*
X1025232Y1193756*
X1024891Y1193600*
X1024664*
X1024323Y1193756*
X1024095Y1194225*
X1023982Y1195006*
Y1195475*
X1024095Y1196256*
X1024323Y1196725*
X1024664Y1196881*
X1024891*
X1143727Y1280747D02*
X1143841Y1281059D01*
X1144068Y1281372*
X1144295Y1281528*
X1144750*
X1144977Y1281372*
X1145205Y1281059*
X1145318Y1280747*
X1145432Y1280278*
Y1279497*
X1145318Y1279028*
X1145205Y1278716*
X1144977Y1278403*
X1144750Y1278247*
X1144295*
X1144068Y1278403*
X1143841Y1278716*
X1143727Y1279028*
X1142705Y1280903D02*
X1142477Y1281059D01*
X1142136Y1281528*
Y1278247*
X1140886Y1281528D02*
X1139636D01*
X1140318Y1280278*
X1139977*
X1139750Y1280122*
X1139636Y1279966*
X1139523Y1279497*
Y1279184*
X1139636Y1278716*
X1139864Y1278403*
X1140205Y1278247*
X1140545*
X1140886Y1278403*
X1141000Y1278559*
X1141114Y1278872*
X1156184Y1320152D02*
X1156298Y1320464D01*
X1156525Y1320777*
X1156752Y1320933*
X1157207*
X1157434Y1320777*
X1157661Y1320464*
X1157775Y1320152*
X1157889Y1319683*
Y1318902*
X1157775Y1318433*
X1157661Y1318120*
X1157434Y1317808*
X1157207Y1317652*
X1156752*
X1156525Y1317808*
X1156298Y1318120*
X1156184Y1318433*
X1155161Y1320308D02*
X1154934Y1320464D01*
X1154593Y1320933*
Y1317652*
X1152093Y1320933D02*
X1153230D01*
X1153343Y1319527*
X1153230Y1319683*
X1152889Y1319839*
X1152548*
X1152207Y1319683*
X1151980Y1319370*
X1151866Y1318902*
X1151980Y1318589*
X1152093Y1318120*
X1152320Y1317808*
X1152661Y1317652*
X1153002*
X1153343Y1317808*
X1153457Y1317964*
X1153570Y1318277*
X1162670Y1374247D02*
X1162784Y1374559D01*
X1163011Y1374872*
X1163239Y1375028*
X1163693*
X1163920Y1374872*
X1164148Y1374559*
X1164261Y1374247*
X1164375Y1373778*
Y1372997*
X1164261Y1372528*
X1164148Y1372216*
X1163920Y1371903*
X1163693Y1371747*
X1163239*
X1163011Y1371903*
X1162784Y1372216*
X1162670Y1372528*
X1161648Y1374403D02*
X1161420Y1374559D01*
X1161080Y1375028*
Y1371747*
X1158693Y1374559D02*
X1158807Y1374872D01*
X1159148Y1375028*
X1159375*
X1159716Y1374872*
X1159943Y1374403*
X1160057Y1373622*
Y1372841*
X1159943Y1372216*
X1159716Y1371903*
X1159375Y1371747*
X1159261*
X1158920Y1371903*
X1158693Y1372216*
X1158580Y1372684*
Y1372841*
X1158693Y1373309*
X1158920Y1373622*
X1159261Y1373778*
X1159375*
X1159716Y1373622*
X1159943Y1373309*
X1160057Y1372841*
X1168639Y1303703D02*
X1168752Y1304016D01*
X1168980Y1304328*
X1169207Y1304484*
X1169661*
X1169889Y1304328*
X1170116Y1304016*
X1170230Y1303703*
X1170343Y1303234*
Y1302453*
X1170230Y1301984*
X1170116Y1301672*
X1169889Y1301359*
X1169661Y1301203*
X1169207*
X1168980Y1301359*
X1168752Y1301672*
X1168639Y1301984*
X1167502Y1303703D02*
Y1303859D01*
X1167389Y1304172*
X1167275Y1304328*
X1167048Y1304484*
X1166593*
X1166366Y1304328*
X1166252Y1304172*
X1166139Y1303859*
Y1303547*
X1166252Y1303234*
X1166480Y1302766*
X1167616Y1301203*
X1166025*
X1164889Y1303703D02*
Y1303859D01*
X1164775Y1304172*
X1164661Y1304328*
X1164434Y1304484*
X1163980*
X1163752Y1304328*
X1163639Y1304172*
X1163525Y1303859*
Y1303547*
X1163639Y1303234*
X1163866Y1302766*
X1165002Y1301203*
X1163411*
X1168439Y1066047D02*
X1168552Y1066359D01*
X1168780Y1066672*
X1169007Y1066828*
X1169461*
X1169689Y1066672*
X1169916Y1066359*
X1170030Y1066047*
X1170143Y1065578*
Y1064797*
X1170030Y1064328*
X1169916Y1064016*
X1169689Y1063703*
X1169461Y1063547*
X1169007*
X1168780Y1063703*
X1168552Y1064016*
X1168439Y1064328*
X1167302Y1066047D02*
Y1066203D01*
X1167189Y1066516*
X1167075Y1066672*
X1166848Y1066828*
X1166393*
X1166166Y1066672*
X1166052Y1066516*
X1165939Y1066203*
Y1065891*
X1166052Y1065578*
X1166280Y1065109*
X1167416Y1063547*
X1165825*
X1164575Y1066828D02*
X1163325D01*
X1164007Y1065578*
X1163666*
X1163439Y1065422*
X1163325Y1065266*
X1163211Y1064797*
Y1064484*
X1163325Y1064016*
X1163552Y1063703*
X1163893Y1063547*
X1164234*
X1164575Y1063703*
X1164689Y1063859*
X1164802Y1064172*
X1168495Y1103047D02*
X1168609Y1103359D01*
X1168836Y1103672*
X1169064Y1103828*
X1169518*
X1169745Y1103672*
X1169973Y1103359*
X1170086Y1103047*
X1170200Y1102578*
Y1101797*
X1170086Y1101328*
X1169973Y1101016*
X1169745Y1100703*
X1169518Y1100547*
X1169064*
X1168836Y1100703*
X1168609Y1101016*
X1168495Y1101328*
X1167359Y1103047D02*
Y1103203D01*
X1167245Y1103516*
X1167132Y1103672*
X1166905Y1103828*
X1166450*
X1166223Y1103672*
X1166109Y1103516*
X1165995Y1103203*
Y1102891*
X1166109Y1102578*
X1166336Y1102109*
X1167473Y1100547*
X1165882*
X1163723Y1103828D02*
X1164859Y1101641D01*
X1163155*
X1163723Y1103828D02*
Y1100547D01*
X1168495Y1169247D02*
X1168609Y1169559D01*
X1168836Y1169872*
X1169064Y1170028*
X1169518*
X1169745Y1169872*
X1169973Y1169559*
X1170086Y1169247*
X1170200Y1168778*
Y1167997*
X1170086Y1167528*
X1169973Y1167216*
X1169745Y1166903*
X1169518Y1166747*
X1169064*
X1168836Y1166903*
X1168609Y1167216*
X1168495Y1167528*
X1167359Y1169247D02*
Y1169403D01*
X1167245Y1169716*
X1167132Y1169872*
X1166905Y1170028*
X1166450*
X1166223Y1169872*
X1166109Y1169716*
X1165995Y1169403*
Y1169091*
X1166109Y1168778*
X1166336Y1168309*
X1167473Y1166747*
X1165882*
X1163382Y1170028D02*
X1164518D01*
X1164632Y1168622*
X1164518Y1168778*
X1164177Y1168934*
X1163836*
X1163495Y1168778*
X1163268Y1168466*
X1163155Y1167997*
X1163268Y1167684*
X1163382Y1167216*
X1163609Y1166903*
X1163950Y1166747*
X1164291*
X1164632Y1166903*
X1164745Y1167059*
X1164859Y1167372*
X1168582Y1213703D02*
X1168695Y1214016D01*
X1168923Y1214328*
X1169150Y1214484*
X1169605*
X1169832Y1214328*
X1170059Y1214016*
X1170173Y1213703*
X1170286Y1213234*
Y1212453*
X1170173Y1211984*
X1170059Y1211672*
X1169832Y1211359*
X1169605Y1211203*
X1169150*
X1168923Y1211359*
X1168695Y1211672*
X1168582Y1211984*
X1167445Y1213703D02*
Y1213859D01*
X1167332Y1214172*
X1167218Y1214328*
X1166991Y1214484*
X1166536*
X1166309Y1214328*
X1166195Y1214172*
X1166082Y1213859*
Y1213547*
X1166195Y1213234*
X1166423Y1212766*
X1167559Y1211203*
X1165968*
X1163582Y1214016D02*
X1163695Y1214328D01*
X1164036Y1214484*
X1164264*
X1164605Y1214328*
X1164832Y1213859*
X1164945Y1213078*
Y1212297*
X1164832Y1211672*
X1164605Y1211359*
X1164264Y1211203*
X1164150*
X1163809Y1211359*
X1163582Y1211672*
X1163468Y1212141*
Y1212297*
X1163582Y1212766*
X1163809Y1213078*
X1164150Y1213234*
X1164264*
X1164605Y1213078*
X1164832Y1212766*
X1164945Y1212297*
X1167639Y1259203D02*
X1167752Y1259516D01*
X1167980Y1259828*
X1168207Y1259984*
X1168661*
X1168889Y1259828*
X1169116Y1259516*
X1169230Y1259203*
X1169343Y1258734*
Y1257953*
X1169230Y1257484*
X1169116Y1257172*
X1168889Y1256859*
X1168661Y1256703*
X1168207*
X1167980Y1256859*
X1167752Y1257172*
X1167639Y1257484*
X1166502Y1259203D02*
Y1259359D01*
X1166389Y1259672*
X1166275Y1259828*
X1166048Y1259984*
X1165593*
X1165366Y1259828*
X1165252Y1259672*
X1165139Y1259359*
Y1259047*
X1165252Y1258734*
X1165480Y1258266*
X1166616Y1256703*
X1165025*
X1162411Y1259984D02*
X1163548Y1256703D01*
X1164002Y1259984D02*
X1162411D01*
X1233086Y1362763D02*
Y1360263D01*
X1233086D02*
X1233200Y1359794D01*
X1233314Y1359638*
X1233314D02*
X1233541Y1359481D01*
X1233768*
X1233995Y1359638*
X1233995D02*
X1234109Y1359794D01*
X1234223Y1360263*
X1234223D02*
Y1360575D01*
X1231950Y1361981D02*
Y1362138D01*
X1231950D02*
X1231836Y1362450D01*
X1231723Y1362606*
X1231495Y1362763*
X1231495D02*
X1231041D01*
X1231041D02*
X1230814Y1362606D01*
X1230700Y1362450*
X1230586Y1362138*
X1230586D02*
Y1361825D01*
X1230700Y1361513*
X1230700D02*
X1230927Y1361044D01*
X1232064Y1359481*
X1230473*
X1234064Y1061881D02*
Y1059381D01*
X1234177Y1058913*
X1234291Y1058756*
X1234518Y1058600*
X1234745*
X1234973Y1058756*
X1235086Y1058913*
X1235200Y1059381*
Y1059694*
X1232814Y1061881D02*
X1231564D01*
X1232245Y1060631*
X1231905*
X1231677Y1060475*
X1231564Y1060319*
X1231450Y1059850*
Y1059538*
X1231564Y1059069*
X1231791Y1058756*
X1232132Y1058600*
X1232473*
X1232814Y1058756*
X1232927Y1058913*
X1233041Y1059225*
X1038234Y1374147D02*
Y1371647D01*
X1038347Y1371179*
X1038461Y1371022*
X1038688Y1370866*
X1038916*
X1039143Y1371022*
X1039256Y1371179*
X1039370Y1371647*
Y1371960*
X1036075Y1374147D02*
X1037211Y1371960D01*
X1035506*
X1036075Y1374147D02*
Y1370866D01*
X1020164Y1082781D02*
Y1080281D01*
X1020277Y1079813*
X1020277D02*
X1020391Y1079656D01*
X1020618Y1079500*
X1020845*
X1021073Y1079656*
X1021186Y1079813*
X1021186D02*
X1021300Y1080281D01*
Y1080594*
X1017664Y1082781D02*
X1018800D01*
X1018914Y1081375*
X1018800Y1081531*
X1018459Y1081688*
X1018459D02*
X1018118D01*
X1018118D02*
X1017777Y1081531D01*
X1017550Y1081219*
X1017436Y1080750*
X1017550Y1080438*
X1017550D02*
X1017664Y1079969D01*
X1017891Y1079656*
X1018232Y1079500*
X1018573*
X1018914Y1079656*
X1019027Y1079813*
X1019027D02*
X1019141Y1080125D01*
X1086659Y1035171D02*
Y1032671D01*
X1086773Y1032202*
X1086886Y1032046*
X1087113Y1031890*
X1087341*
X1087568Y1032046*
X1087682Y1032202*
X1087795Y1032671*
Y1032984*
X1084045Y1035171D02*
X1085182Y1031890D01*
X1085636Y1035171D02*
X1084045D01*
X1130864Y1421281D02*
Y1418781D01*
X1130977Y1418313*
X1130977D02*
X1131091Y1418156D01*
X1131318Y1418000*
X1131545*
X1131773Y1418156*
X1131886Y1418313*
X1131886D02*
X1132000Y1418781D01*
Y1419094*
X1129273Y1421281D02*
X1129614Y1421125D01*
X1129727Y1420813*
X1129727D02*
Y1420500D01*
X1129614Y1420188*
X1129614D02*
X1129386Y1420031D01*
X1128932Y1419875*
X1128591Y1419719*
X1128364Y1419406*
X1128250Y1419094*
Y1418625*
X1128364Y1418313*
X1128364D02*
X1128477Y1418156D01*
X1128818Y1418000*
X1129273*
X1129614Y1418156*
X1129727Y1418313*
X1129727D02*
X1129841Y1418625D01*
Y1419094*
X1129727Y1419406*
X1129500Y1419719*
X1129159Y1419875*
X1128705Y1420031*
X1128477Y1420188*
X1128477D02*
X1128364Y1420500D01*
Y1420813*
X1128364D02*
X1128477Y1421125D01*
X1128818Y1421281*
X1129273*
X1100975Y1090172D02*
Y1086891D01*
Y1090172D02*
X1099952D01*
X1099611Y1090016*
X1099498Y1089859*
X1099384Y1089547*
Y1089234*
X1099498Y1088922*
X1099611Y1088766*
X1099952Y1088609*
X1100975*
X1100180D02*
X1099384Y1086891D01*
X1098248Y1089391D02*
Y1089547D01*
X1098134Y1089859*
X1098020Y1090016*
X1097793Y1090172*
X1097339*
X1097111Y1090016*
X1096998Y1089859*
X1096884Y1089547*
Y1089234*
X1096998Y1088922*
X1097225Y1088453*
X1098361Y1086891*
X1096770*
X1095748Y1089547D02*
X1095520Y1089703D01*
X1095180Y1090172*
Y1086891*
X1100186Y1125828D02*
Y1122547D01*
Y1125828D02*
X1099164D01*
X1098823Y1125672*
X1098709Y1125516*
X1098595Y1125203*
Y1124891*
X1098709Y1124578*
X1098823Y1124422*
X1099164Y1124266*
X1100186*
X1099391D02*
X1098595Y1122547D01*
X1097459Y1125047D02*
Y1125203D01*
X1097345Y1125516*
X1097232Y1125672*
X1097005Y1125828*
X1096550*
X1096323Y1125672*
X1096209Y1125516*
X1096095Y1125203*
Y1124891*
X1096209Y1124578*
X1096436Y1124109*
X1097573Y1122547*
X1095982*
X1094845Y1125047D02*
Y1125203D01*
X1094732Y1125516*
X1094618Y1125672*
X1094391Y1125828*
X1093936*
X1093709Y1125672*
X1093595Y1125516*
X1093482Y1125203*
Y1124891*
X1093595Y1124578*
X1093823Y1124109*
X1094959Y1122547*
X1093368*
X1100986Y1166172D02*
Y1162891D01*
Y1166172D02*
X1099964D01*
X1099623Y1166016*
X1099509Y1165859*
X1099395Y1165547*
Y1165234*
X1099509Y1164922*
X1099623Y1164766*
X1099964Y1164609*
X1100986*
X1100191D02*
X1099395Y1162891D01*
X1098259Y1165391D02*
Y1165547D01*
X1098145Y1165859*
X1098032Y1166016*
X1097805Y1166172*
X1097350*
X1097123Y1166016*
X1097009Y1165859*
X1096895Y1165547*
Y1165234*
X1097009Y1164922*
X1097236Y1164453*
X1098373Y1162891*
X1096782*
X1095532Y1166172D02*
X1094282D01*
X1094964Y1164922*
X1094623*
X1094395Y1164766*
X1094282Y1164609*
X1094168Y1164141*
Y1163828*
X1094282Y1163359*
X1094509Y1163047*
X1094850Y1162891*
X1095191*
X1095532Y1163047*
X1095645Y1163203*
X1095759Y1163516*
X1101243Y1202828D02*
Y1199547D01*
Y1202828D02*
X1100220D01*
X1099880Y1202672*
X1099766Y1202516*
X1099652Y1202203*
Y1201891*
X1099766Y1201578*
X1099880Y1201422*
X1100220Y1201266*
X1101243*
X1100448D02*
X1099652Y1199547D01*
X1098516Y1202047D02*
Y1202203D01*
X1098402Y1202516*
X1098289Y1202672*
X1098061Y1202828*
X1097607*
X1097380Y1202672*
X1097266Y1202516*
X1097152Y1202203*
Y1201891*
X1097266Y1201578*
X1097493Y1201109*
X1098630Y1199547*
X1097039*
X1094880Y1202828D02*
X1096016Y1200641D01*
X1094311*
X1094880Y1202828D02*
Y1199547D01*
X1100243Y1233828D02*
Y1230547D01*
Y1233828D02*
X1099220D01*
X1098880Y1233672*
X1098766Y1233516*
X1098652Y1233203*
Y1232891*
X1098766Y1232578*
X1098880Y1232422*
X1099220Y1232266*
X1100243*
X1099448D02*
X1098652Y1230547D01*
X1097516Y1233047D02*
Y1233203D01*
X1097402Y1233516*
X1097289Y1233672*
X1097061Y1233828*
X1096607*
X1096380Y1233672*
X1096266Y1233516*
X1096152Y1233203*
Y1232891*
X1096266Y1232578*
X1096493Y1232109*
X1097630Y1230547*
X1096039*
X1093539Y1233828D02*
X1094675D01*
X1094789Y1232422*
X1094675Y1232578*
X1094334Y1232734*
X1093993*
X1093652Y1232578*
X1093425Y1232266*
X1093311Y1231797*
X1093425Y1231484*
X1093539Y1231016*
X1093766Y1230703*
X1094107Y1230547*
X1094448*
X1094789Y1230703*
X1094902Y1230859*
X1095016Y1231172*
X1015354Y1398163D02*
Y1394882D01*
Y1398163D02*
X1014559D01*
X1014218Y1398007*
X1013991Y1397694*
X1013877Y1397382*
X1013763Y1396913*
Y1396132*
X1013877Y1395663*
X1013991Y1395351*
X1014218Y1395038*
X1014559Y1394882*
X1015354*
X1012741Y1397538D02*
X1012513Y1397694D01*
X1012173Y1398163*
Y1394882*
X1010923Y1398163D02*
X1009673D01*
X1010354Y1396913*
X1010013*
X1009786Y1396757*
X1009673Y1396601*
X1009559Y1396132*
Y1395819*
X1009673Y1395351*
X1009900Y1395038*
X1010241Y1394882*
X1010582*
X1010923Y1395038*
X1011036Y1395194*
X1011150Y1395507*
X1186318Y1374594D02*
Y1371313D01*
Y1374594D02*
X1185523D01*
X1185182Y1374438*
X1185182D02*
X1184955Y1374125D01*
X1184841Y1373813*
X1184841D02*
X1184727Y1373344D01*
Y1372563*
X1184727D02*
X1184841Y1372094D01*
X1184955Y1371781*
X1185182Y1371469*
X1185523Y1371313*
X1185523D02*
X1186318D01*
X1183705Y1373969D02*
X1183477Y1374125D01*
X1183136Y1374594*
Y1371313*
X1180636Y1374594D02*
X1181773D01*
X1181886Y1373188*
X1181886D02*
X1181773Y1373344D01*
X1181432Y1373500*
X1181091*
X1180750Y1373344*
X1180523Y1373031*
X1180409Y1372563*
X1180409D02*
X1180523Y1372250D01*
X1180636Y1371781*
X1180864Y1371469*
X1181205Y1371313*
X1181205D02*
X1181545D01*
X1181545D02*
X1181886Y1371469D01*
X1182000Y1371625*
X1182114Y1371938*
X1074000Y1075281D02*
Y1072000D01*
Y1075281D02*
X1073205D01*
X1072864Y1075125*
X1072636Y1074813*
X1072523Y1074500*
X1072409Y1074031*
Y1073250*
X1072523Y1072781*
X1072636Y1072469*
X1072864Y1072156*
X1073205Y1072000*
X1074000*
X1071386Y1074656D02*
X1071159Y1074813D01*
X1070818Y1075281*
Y1072000*
X1068318Y1074188D02*
X1068432Y1073719D01*
X1068659Y1073406*
X1069000Y1073250*
X1069114*
X1069455Y1073406*
X1069682Y1073719*
X1069795Y1074188*
Y1074344*
X1069682Y1074813*
X1069455Y1075125*
X1069114Y1075281*
X1069000*
X1068659Y1075125*
X1068432Y1074813*
X1068318Y1074188*
Y1073406*
X1068432Y1072625*
X1068659Y1072156*
X1069000Y1072000*
X1069227*
X1069568Y1072156*
X1069682Y1072469*
X1073000Y1220781D02*
Y1217500D01*
Y1220781D02*
X1072205D01*
X1071864Y1220625*
X1071636Y1220313*
X1071523Y1220000*
X1071409Y1219531*
Y1218750*
X1071523Y1218281*
X1071636Y1217969*
X1071864Y1217656*
X1072205Y1217500*
X1073000*
X1070273Y1220000D02*
Y1220156D01*
X1070159Y1220469*
X1070045Y1220625*
X1069818Y1220781*
X1069364*
X1069136Y1220625*
X1069023Y1220469*
X1068909Y1220156*
Y1219844*
X1069023Y1219531*
X1069250Y1219063*
X1070386Y1217500*
X1068795*
X1067773Y1220156D02*
X1067545Y1220313D01*
X1067205Y1220781*
Y1217500*
X1071500Y1151781D02*
Y1148500D01*
Y1151781D02*
X1070705D01*
X1070364Y1151625*
X1070136Y1151313*
X1070023Y1151000*
X1069909Y1150531*
Y1149750*
X1070023Y1149281*
X1070136Y1148969*
X1070364Y1148656*
X1070705Y1148500*
X1071500*
X1068773Y1151000D02*
Y1151156D01*
X1068659Y1151469*
X1068545Y1151625*
X1068318Y1151781*
X1067864*
X1067636Y1151625*
X1067523Y1151469*
X1067409Y1151156*
Y1150844*
X1067523Y1150531*
X1067750Y1150063*
X1068886Y1148500*
X1067295*
X1066045Y1151781D02*
X1064795D01*
X1065477Y1150531*
X1065136*
X1064909Y1150375*
X1064795Y1150219*
X1064682Y1149750*
Y1149438*
X1064795Y1148969*
X1065023Y1148656*
X1065364Y1148500*
X1065705*
X1066045Y1148656*
X1066159Y1148813*
X1066273Y1149125*
X1073000Y1111781D02*
Y1108500D01*
Y1111781D02*
X1072205D01*
X1071864Y1111625*
X1071636Y1111313*
X1071523Y1111000*
X1071409Y1110531*
Y1109750*
X1071523Y1109281*
X1071636Y1108969*
X1071864Y1108656*
X1072205Y1108500*
X1073000*
X1070273Y1111000D02*
Y1111156D01*
X1070159Y1111469*
X1070045Y1111625*
X1069818Y1111781*
X1069364*
X1069136Y1111625*
X1069023Y1111469*
X1068909Y1111156*
Y1110844*
X1069023Y1110531*
X1069250Y1110063*
X1070386Y1108500*
X1068795*
X1066295Y1111781D02*
X1067432D01*
X1067545Y1110375*
X1067432Y1110531*
X1067091Y1110688*
X1066750*
X1066409Y1110531*
X1066182Y1110219*
X1066068Y1109750*
X1066182Y1109438*
X1066295Y1108969*
X1066523Y1108656*
X1066864Y1108500*
X1067205*
X1067545Y1108656*
X1067659Y1108813*
X1067773Y1109125*
X1073000Y1188281D02*
Y1185000D01*
Y1188281D02*
X1072205D01*
X1071864Y1188125*
X1071636Y1187813*
X1071523Y1187500*
X1071409Y1187031*
Y1186250*
X1071523Y1185781*
X1071636Y1185469*
X1071864Y1185156*
X1072205Y1185000*
X1073000*
X1070273Y1187500D02*
Y1187656D01*
X1070159Y1187969*
X1070045Y1188125*
X1069818Y1188281*
X1069364*
X1069136Y1188125*
X1069023Y1187969*
X1068909Y1187656*
Y1187344*
X1069023Y1187031*
X1069250Y1186563*
X1070386Y1185000*
X1068795*
X1066182Y1188281D02*
X1067318Y1185000D01*
X1067773Y1188281D02*
X1066182D01*
X1244543Y1192414D02*
Y1190070D01*
X1244429Y1189601*
X1244202Y1189289*
X1243861Y1189133*
X1243634*
X1243293Y1189289*
X1243065Y1189601*
X1242952Y1190070*
Y1192414*
X1241702D02*
X1240452D01*
X1241134Y1191164*
X1240793*
X1240565Y1191008*
X1240452Y1190851*
X1240338Y1190383*
Y1190070*
X1240452Y1189601*
X1240679Y1189289*
X1241020Y1189133*
X1241361*
X1241702Y1189289*
X1241815Y1189445*
X1241929Y1189758*
X1245374Y1305796D02*
Y1303453D01*
X1245261Y1302984*
X1245033Y1302671*
X1244693Y1302515*
X1244465*
X1244124Y1302671*
X1243897Y1302984*
X1243783Y1303453*
Y1305796*
X1242647Y1305015D02*
Y1305171D01*
X1242533Y1305484*
X1242420Y1305640*
X1242193Y1305796*
X1241738*
X1241511Y1305640*
X1241397Y1305484*
X1241283Y1305171*
Y1304859*
X1241397Y1304546*
X1241624Y1304078*
X1242761Y1302515*
X1241170*
X1244976Y1272544D02*
Y1270200D01*
X1244862Y1269732*
X1244635Y1269419*
X1244294Y1269263*
X1244067*
X1243726Y1269419*
X1243499Y1269732*
X1243385Y1270200*
Y1272544*
X1240999Y1272075D02*
X1241112Y1272388D01*
X1241453Y1272544*
X1241681*
X1242021Y1272388*
X1242249Y1271919*
X1242362Y1271138*
Y1270357*
X1242249Y1269732*
X1242021Y1269419*
X1241681Y1269263*
X1241567*
X1241226Y1269419*
X1240999Y1269732*
X1240885Y1270200*
Y1270357*
X1240999Y1270825*
X1241226Y1271138*
X1241567Y1271294*
X1241681*
X1242021Y1271138*
X1242249Y1270825*
X1242362Y1270357*
X1244500Y1233281D02*
Y1230938D01*
X1244500D02*
X1244386Y1230469D01*
X1244159Y1230156*
X1243818Y1230000*
X1243591*
X1243250Y1230156*
X1243023Y1230469*
X1242909Y1230938*
X1242909D02*
Y1233281D01*
X1240750D02*
X1241886Y1231094D01*
X1240182*
X1240750Y1233281D02*
Y1230000D01*
X1244842Y1123427D02*
Y1121083D01*
X1244728Y1120614*
X1244501Y1120302*
X1244160Y1120145*
X1243932*
X1243592Y1120302*
X1243364Y1120614*
X1243251Y1121083*
Y1123427*
X1242228Y1122802D02*
X1242001Y1122958D01*
X1241660Y1123427*
Y1120145*
X1245366Y1088824D02*
Y1086481D01*
X1245252Y1086012*
X1245025Y1085699*
X1244684Y1085543*
X1244457*
X1244116Y1085699*
X1243889Y1086012*
X1243775Y1086481*
Y1088824*
X1241275D02*
X1242412D01*
X1242525Y1087418*
X1242412Y1087574*
X1242071Y1087731*
X1241730*
X1241389Y1087574*
X1241162Y1087262*
X1241048Y1086793*
X1241162Y1086481*
X1241275Y1086012*
X1241502Y1085699*
X1241843Y1085543*
X1242184*
X1242525Y1085699*
X1242639Y1085856*
X1242752Y1086168*
X1052300Y1448556D02*
X1052073Y1448713D01*
X1052073D02*
X1051732Y1449181D01*
Y1445900*
X1065386Y1427000D02*
Y1427156D01*
X1065273Y1427469*
X1065159Y1427625*
X1064932Y1427781*
X1064477*
X1064250Y1427625*
X1064136Y1427469*
X1064023Y1427156*
Y1426844*
X1064136Y1426531*
X1064364Y1426063*
X1064364D02*
X1065500Y1424500D01*
X1063909*
X1201573Y1425681D02*
X1200323D01*
X1201005Y1424431*
X1200664*
X1200436Y1424275*
X1200323Y1424119*
X1200209Y1423650*
Y1423338*
X1200209D02*
X1200323Y1422869D01*
X1200550Y1422556*
X1200891Y1422400*
X1201232*
X1201573Y1422556*
X1201686Y1422713*
X1201686D02*
X1201800Y1423025D01*
X1198505Y1425681D02*
X1198845Y1425525D01*
X1199073Y1425056*
X1199186Y1424275*
Y1423806*
X1199073Y1423025*
X1198845Y1422556*
X1198505Y1422400*
X1198277*
X1197936Y1422556*
X1197709Y1423025*
X1197595Y1423806*
Y1424275*
X1197709Y1425056*
X1197936Y1425525*
X1198277Y1425681*
X1198505*
X1219178Y1447776D02*
Y1447932D01*
X1219064Y1448244*
X1218950Y1448401*
X1218723Y1448557*
X1218269*
X1218041Y1448401*
X1217928Y1448244*
X1217814Y1447932*
Y1447619*
X1217928Y1447307*
X1218155Y1446838*
X1219291Y1445276*
X1217700*
X1215200Y1447463D02*
X1215314Y1446994D01*
X1215541Y1446682*
X1215882Y1446526*
X1215996*
X1216337Y1446682*
X1216564Y1446994*
X1216678Y1447463*
Y1447619*
X1216564Y1448088*
X1216337Y1448401*
X1215996Y1448557*
X1215882*
X1215541Y1448401*
X1215314Y1448088*
X1215200Y1447463*
Y1446682*
X1215314Y1445901*
X1215541Y1445432*
X1215882Y1445276*
X1216110*
X1216450Y1445432*
X1216564Y1445744*
X1106000Y1424656D02*
X1105773Y1424813D01*
X1105773D02*
X1105432Y1425281D01*
Y1422000*
X1103727Y1425281D02*
X1104068Y1425125D01*
X1104295Y1424656*
X1104409Y1423875*
Y1423406*
X1104295Y1422625*
X1104068Y1422156*
X1103727Y1422000*
X1103500*
X1103159Y1422156*
X1102932Y1422625*
X1102818Y1423406*
Y1423875*
X1102932Y1424656*
X1103159Y1425125*
X1103500Y1425281*
X1103727*
X1155886Y1425000D02*
Y1425156D01*
X1155773Y1425469*
X1155659Y1425625*
X1155432Y1425781*
X1154977*
X1154750Y1425625*
X1154636Y1425469*
X1154523Y1425156*
Y1424844*
X1154636Y1424531*
X1154864Y1424063*
X1154864D02*
X1156000Y1422500D01*
X1154409*
X1152705Y1425781D02*
X1153045Y1425625D01*
X1153273Y1425156*
X1153386Y1424375*
Y1423906*
X1153273Y1423125*
X1153045Y1422656*
X1152705Y1422500*
X1152477*
X1152136Y1422656*
X1151909Y1423125*
X1151795Y1423906*
Y1424375*
X1151909Y1425156*
X1152136Y1425625*
X1152477Y1425781*
X1152705*
X1102523Y1032188D02*
X1102636Y1031719D01*
X1102864Y1031406*
X1103205Y1031250*
X1103318*
X1103659Y1031406*
X1103886Y1031719*
X1104000Y1032188*
X1104000D02*
Y1032344D01*
X1103886Y1032813*
X1103886D02*
X1103659Y1033125D01*
X1103318Y1033281*
X1103205*
X1102864Y1033125*
X1102636Y1032813*
X1102636D02*
X1102523Y1032188D01*
X1102523D02*
Y1031406D01*
X1102636Y1030625*
X1102864Y1030156*
X1103205Y1030000*
X1103432*
X1103773Y1030156*
X1103886Y1030469*
X1155400Y1032756D02*
X1155173Y1032913D01*
X1155173D02*
X1154832Y1033381D01*
Y1030100*
X1152332Y1032288D02*
X1152445Y1031819D01*
X1152673Y1031506*
X1153014Y1031350*
X1153127*
X1153468Y1031506*
X1153695Y1031819*
X1153809Y1032288*
X1153809D02*
Y1032444D01*
X1153695Y1032913*
X1153695D02*
X1153468Y1033225D01*
X1153127Y1033381*
X1153014*
X1152673Y1033225*
X1152445Y1032913*
X1152445D02*
X1152332Y1032288D01*
X1152332D02*
Y1031506D01*
X1152445Y1030725*
X1152673Y1030256*
X1153014Y1030100*
X1153241*
X1153582Y1030256*
X1153695Y1030569*
X1204186Y1032300D02*
Y1032456D01*
X1204073Y1032769*
X1203959Y1032925*
X1203732Y1033081*
X1203277*
X1203050Y1032925*
X1202936Y1032769*
X1202823Y1032456*
Y1032144*
X1202936Y1031831*
X1203164Y1031363*
X1203164D02*
X1204300Y1029800D01*
X1202709*
X1200209Y1031988D02*
X1200323Y1031519D01*
X1200550Y1031206*
X1200891Y1031050*
X1201005*
X1201345Y1031206*
X1201573Y1031519*
X1201686Y1031988*
X1201686D02*
Y1032144D01*
X1201573Y1032613*
X1201573D02*
X1201345Y1032925D01*
X1201005Y1033081*
X1200891*
X1200550Y1032925*
X1200323Y1032613*
X1200323D02*
X1200209Y1031988D01*
X1200209D02*
Y1031206D01*
X1200323Y1030425*
X1200550Y1029956*
X1200891Y1029800*
X1201118*
X1201459Y1029956*
X1201573Y1030269*
X1219458Y1011549D02*
X1218208D01*
X1218890Y1010299*
X1218549*
X1218321Y1010143*
X1218208Y1009986*
X1218094Y1009518*
Y1009205*
X1218208Y1008736*
X1218435Y1008424*
X1218776Y1008268*
X1219117*
X1219458Y1008424*
X1219571Y1008580*
X1219685Y1008893*
X1216390Y1011549D02*
X1216730Y1011393D01*
X1216958Y1010924*
X1217071Y1010143*
Y1009674*
X1216958Y1008893*
X1216730Y1008424*
X1216390Y1008268*
X1216162*
X1215821Y1008424*
X1215594Y1008893*
X1215480Y1009674*
Y1010143*
X1215594Y1010924*
X1215821Y1011393*
X1216162Y1011549*
X1216390*
X1066400Y1032256D02*
X1066173Y1032413D01*
X1066173D02*
X1065832Y1032881D01*
Y1029600*
X1050786Y1008200D02*
Y1008356D01*
X1050673Y1008669*
X1050559Y1008825*
X1050332Y1008981*
X1049877*
X1049650Y1008825*
X1049536Y1008669*
X1049423Y1008356*
Y1008044*
X1049536Y1007731*
X1049764Y1007263*
X1049764D02*
X1050900Y1005700D01*
X1049309*
G54D15*
X1230670Y1607844D02*
Y1598000D01*
Y1607844D02*
X1235102D01*
X1230670Y1603156D02*
X1233397D01*
X1240556Y1607844D02*
Y1598000D01*
X1238170Y1607844D02*
X1242943D01*
X1251125Y1605500D02*
X1250784Y1606438D01*
X1250784D02*
X1250102Y1607375D01*
X1249420Y1607844*
X1248056*
X1247375Y1607375*
X1246693Y1606438*
X1246693D02*
X1246352Y1605500D01*
X1246011Y1604094*
Y1601750*
X1246352Y1600344*
X1246693Y1599406*
X1247375Y1598469*
X1248056Y1598000*
X1249420*
X1250102Y1598469*
X1250784Y1599406*
X1251125Y1600344*
X1254193Y1602219D02*
X1260329D01*
X1263397Y1607844D02*
Y1598000D01*
Y1607844D02*
X1265784D01*
X1266806Y1607375*
X1267488Y1606438*
X1267488D02*
X1267829Y1605500D01*
X1268170Y1604094*
Y1601750*
X1267829Y1600344*
X1267488Y1599406*
X1266806Y1598469*
X1265784Y1598000*
X1263397*
X1271238Y1607844D02*
Y1598000D01*
Y1607844D02*
X1273965Y1598000D01*
X1276693Y1607844D02*
X1273965Y1598000D01*
X1276693Y1607844D02*
Y1598000D01*
X1279761Y1605969D02*
X1280443Y1606438D01*
X1280443D02*
X1281465Y1607844D01*
Y1598000*
G54D16*
X1097500Y1083681D02*
Y1081319D01*
Y1118681D02*
Y1116319D01*
Y1158681D02*
Y1156319D01*
Y1196181D02*
Y1193819D01*
Y1226681D02*
Y1224319D01*
G54D71*
X1040900Y1399788D02*
X1040627Y1399975D01*
X1040218Y1400538*
X1040218D02*
Y1396600D01*
X1202600Y1399688D02*
X1202327Y1399875D01*
X1201918Y1400438*
X1201918D02*
Y1396500D01*
X1200009Y1400438D02*
X1200418Y1400250D01*
X1200555Y1399875*
Y1399500*
X1200418Y1399125*
X1200145Y1398938*
X1200145D02*
X1199600Y1398750D01*
X1199191Y1398563*
X1199191D02*
X1198918Y1398188D01*
X1198918D02*
X1198782Y1397813D01*
X1198782D02*
Y1397250D01*
X1198918Y1396875*
X1199055Y1396688*
X1199055D02*
X1199464Y1396500D01*
X1200009*
X1200418Y1396688*
X1200418D02*
X1200555Y1396875D01*
X1200691Y1397250*
Y1397813*
X1200691D02*
X1200555Y1398188D01*
X1200555D02*
X1200282Y1398563D01*
X1200282D02*
X1199873Y1398750D01*
X1199327Y1398938*
X1199327D02*
X1199055Y1399125D01*
X1198918Y1399500*
Y1399875*
X1199055Y1400250*
X1199464Y1400438*
X1199464D02*
X1200009D01*
X1045800Y1059488D02*
X1045527Y1059675D01*
X1045118Y1060238*
X1045118D02*
Y1056300D01*
X1043209Y1060238D02*
X1043618Y1060050D01*
X1043755Y1059675*
Y1059300*
X1043618Y1058925*
X1043345Y1058738*
X1043345D02*
X1042800Y1058550D01*
X1042391Y1058363*
X1042391D02*
X1042118Y1057988D01*
X1042118D02*
X1041982Y1057613D01*
X1041982D02*
Y1057050D01*
X1042118Y1056675*
X1042255Y1056488*
X1042255D02*
X1042664Y1056300D01*
X1043209*
X1043618Y1056488*
X1043618D02*
X1043755Y1056675D01*
X1043891Y1057050*
Y1057613*
X1043891D02*
X1043755Y1057988D01*
X1043755D02*
X1043482Y1058363D01*
X1043482D02*
X1043073Y1058550D01*
X1042527Y1058738*
X1042527D02*
X1042255Y1058925D01*
X1042118Y1059300*
Y1059675*
X1042255Y1060050*
X1042664Y1060238*
X1042664D02*
X1043209D01*
X1203300Y1052088D02*
X1203027Y1052275D01*
X1202618Y1052838*
X1202618D02*
Y1048900D01*
G54D136*
X1078939Y1315100D02*
G03X1078939I-788J0D01*
G01Y1325100D02*
G03X1078939I-788J0D01*
G01X1083339Y1371500D02*
G03X1083339I-788J0D01*
G01Y1381500D02*
G03X1083339I-788J0D01*
G01X1076737Y1257042D02*
G03X1076737I-788J0D01*
G01Y1267042D02*
G03X1076737I-788J0D01*
G01X1153287Y1285551D02*
G03X1153287I-787J0D01*
G01Y1100551D02*
G03X1153287I-787J0D01*
G01Y1043051D02*
G03X1153287I-787J0D01*
G01Y1145551D02*
G03X1153287I-787J0D01*
G01Y1190551D02*
G03X1153287I-787J0D01*
G01Y1235551D02*
G03X1153287I-787J0D01*
G74*
G01X0Y0D02*
M02*
