%
T1C.012F095S3
X107623Y108984
X10763Y108544
X12407Y108594
X124077Y109034
X133323Y108984
X13333Y108544
X13955Y10994
X14827Y108544
X148277Y108984
X149192Y10727
X1515Y10375
X14415Y1113
X14415Y1118
X142759Y11212
X142731Y112479
X142435Y112009
X1418Y110005
X141147Y111263
X1407Y110007
X13902Y11156
X138851Y112472
X13675Y1114
X136737Y1108
X136724Y1103
X11865Y11145
X1182Y111
X117159Y112433
X11699Y112185
X115706Y110082
X1148Y110176
X1143Y1115
X1143Y11015
X1129Y112064
X11078Y1114
X110766Y1109
X110739Y112135
X111214Y1148
X1129Y113215
X113268Y112626
X113473Y113469
X113662Y113031
X113922Y113784
X114136Y114241
X114708Y114358
X115097Y11461
X116227Y11419
X116798Y113893
X116993Y113253
X117176Y113565
X117279Y112747
X11845Y11325
X11865Y1127
X119193Y113442
X12112Y11393
X136212Y11465
X136933Y114296
X13919Y113
X13928Y11329
X1394Y11405
X1399Y11415
X14026Y114493
X140755Y1145
X142024Y114339
X142543Y113719
X14275Y113045
X142922Y113536
X144088Y1133
X154673Y122466
X15115Y12245
X1506Y121847
X1501Y12188
X1496Y121867
X1486Y12245
X146464Y120636
X1456Y1208
X14499Y115761
X1412Y11735
X137028Y1212
X133241Y122469
X1323Y122
X1318Y122
X1313Y12184
X130755Y122469
X12495Y122033
X12445Y122033
X12395Y122067
X121116Y120548
X119337Y121199
X1166Y117617
X115083Y11739
X111336Y121
X110926Y115267
X1089Y12035
X107897Y121742
X107588Y122465
X10725Y121872
X10675Y121882
X10625Y121884
X105279Y122463
X111336Y1225
X119337Y122702
X122939Y122573
X12546Y122586
X137028Y1227
X1456Y1231
X15216Y12375
X152551Y126259
X15294Y12354
X15309Y124227
X15309Y126727
X154123Y125211
X154661Y124966
X155166Y123516
X155524Y126195
X15565Y125912
X155756Y123533
X155949Y124652
X156955Y123332
X153609Y127601
X132Y13235
X131651Y130012
X12971Y1323
X127603Y1323
X12587Y129689
X125813Y132316
X12525Y13045
X124935Y128909
X124512Y131563
X124187Y131529
X123692Y131381
X122461Y132257
X122452Y131912
X122101Y131913
X121212Y132013
X120837Y129181
X120688Y131509
X120462Y131311
X11985Y13145
X118711Y13145
X118702Y132199
X11795Y131797
X11627Y13235
X114742Y131498
X114144Y131301
X111127Y131645
X110437Y130913
X110137Y130901
X1096Y13091
X107689Y1307
X107689Y13135
X1058Y1309
X10555Y1306
X1052Y1309
X1015Y13415
X103339Y134323
X1039Y1337
X1039Y1341
X1056Y13395
X10705Y13405
X10855Y13395
X10855Y13355
X10995Y1342
X11025Y1339
X1131Y132962
X114125Y13439
X115371Y13337
X115374Y13287
X11573Y13456
X11627Y13286
X116789Y13373
X117553Y134031
X11795Y132547
X11795Y1333
X11835Y1333
X1185Y13395
X118662Y134934
X1187Y1329
X11905Y134
X119166Y134939
X11976Y13443
X119763Y134836
X120101Y134861
X1205Y1348
X12135Y13295
X12171Y133237
X122135Y133482
X122481Y13303
X122489Y133734
X12325Y1341
X1234Y1344
X12375Y13445
X1241Y13495
X124371Y134465
X124986Y134256
X125082Y133376
X125098Y132874
X12531Y132539
X1297Y134988
X130263Y133156
X145158Y137377
X143402Y13745
X12864Y137051
X128505Y135023
X123202Y1369
X123202Y1374
X12305Y135576
X12245Y13558
X122037Y13629
X121052Y136074
X1209Y1353
X120595Y136077
X11845Y13588
X117942Y135473
X117553Y13532
X116852Y1369
X11575Y1354
X115336Y13539
X115333Y13589
X111434Y13575
X109149Y137031
X108052Y136666
X1047Y1366
X10447Y136956
X10399Y13615
X10388Y13584
X10331Y13515
X103061Y137433
X102841Y13615
X101868Y136954
X10237Y138207
X103537Y139918
X107854Y138832
X10891Y13846
X109152Y1381
X10926Y13846
X10962Y13847
X110912Y1379
X114522Y138747
X114522Y137734
X116852Y1379
X120814Y138776
X120814Y137733
X123202Y1379
X141Y13997
X143Y139062
X143632Y139077
X1442Y139039
X14458Y13815
X14463Y13859
X14475Y139039
X14535Y139051
X145602Y138601
X1459Y139051
X1465Y139047
X147049Y139048
X14705Y137854
X1476Y137862
X147999Y1395
X148452Y139242
X152028Y139778
X151741Y141572
X147615Y141233
X14705Y140118
X146604Y140221
X146548Y141222
X146235Y140117
X145958Y141234
X14535Y140137
X14515Y1421
X14515Y1409
X144749Y140265
X1446Y140911
X143892Y141241
X143594Y14018
X143298Y141264
X143219Y140232
X142986Y141815
X1428Y140188
X142374Y141886
X14235Y14145
X1423Y141
X141801Y140249
X13806Y14148
X10815Y1413
X10529Y1418
X104165Y141948
X1016Y14485
X102246Y146
X104118Y143325
X104951Y144471
X105317Y143325
X105384Y142822
X10815Y146
X10945Y14595
X1106Y14305
X1429Y1465
X142994Y143023
X14312Y1437
X145767Y144958
X14741Y14495
X148881Y143107
T2C.02F197S55
X10725Y1025
X10805Y1068
X109Y1025
X11125Y1025
X11285Y10295
X114Y1025
X11745Y10295
X12025Y1025
X122Y1025
X1235Y1025
X125Y1025
X1265Y1025
X128Y1025
X1295Y1025
X1325Y1025
X133793Y10746
X1338Y1067
X134Y1025
X1355Y1025
X13725Y1025
X13875Y1029
X1433Y10305
X14525Y1025
X1479Y1067
X15025Y1025
X152Y1025
X1538Y1033
X1414Y1127
X1414Y1132
X1407Y1127
X1407Y1132
X1158Y1132
X1158Y1126
X115Y1132
X115Y1126
X110904Y113547
X10805Y1076
X11075Y11925
X113Y11925
X114Y11925
X115Y11925
X116Y11925
X11723Y119242
X11825Y11925
X119916Y119227
X1365Y11925
X13775Y11925
X13875Y11925
X13975Y11925
X14175Y11925
X14275Y11925
X14375Y11925
X14475Y11925
X14575Y11925
X15025Y12025
X15025Y12125
X14925Y12125
X14925Y12025
X14825Y12425
X1352Y1205
X134Y12425
X1328Y1205
X1328Y12125
X13175Y1205
X13175Y12125
X125Y12125
X125Y12025
X124Y12025
X124Y12125
X12275Y12425
X10825Y124
X10675Y12025
X10675Y12125
X10575Y12025
X10575Y12125
X1065Y126
X10825Y126
X114Y12875
X114Y12775
X11675Y12875
X11675Y12775
X12175Y1285
X12275Y126
X124Y1285
X12425Y126
X13225Y12575
X134Y12625
X1395Y12775
X13975Y12875
X1425Y12775
X14275Y12875
X14825Y12625
X14975Y12625
X136429Y135476
X13102Y13658
X13082Y13589
X130758Y135069
X13001Y13656
X12998Y13589
X12904Y13552
X12902Y1366
X12902Y13608
X125Y13745
X1241Y1325
X1241Y1331
X1236Y1325
X1236Y1331
X122204Y131277
X1203Y1325
X1203Y1331
X1198Y1331
X1198Y1325
X111238Y13423
X107474Y135758
X10742Y134797
X10645Y1341
X1242Y13965
X125Y13815
X12585Y14185
X12685Y1382
X1275Y1382
X130438Y141371
X133781Y141371
X13805Y13996
X1392Y1407
X13985Y1407
X14105Y14147
X148854Y141572
X14995Y14235
X15075Y14235
X1571Y14155
X153608Y146704
X15175Y1431
X1442Y14745
X14285Y14745
X1414Y14745
X13965Y14745
X1381Y14745
X13645Y14525
X13645Y14615
X13645Y14745
X13645Y1443
X1351Y14745
X13375Y14745
X13375Y14615
X13375Y14525
X13375Y1443
X13065Y14515
X13065Y14615
X13065Y14735
X13065Y1442
X12905Y14735
X12745Y14615
X12745Y14515
X12745Y1442
X12745Y14735
X12585Y1431
X12585Y14625
X12585Y14515
X12585Y1442
X1243Y14625
X14545Y1475
T3C.03937F197S55
X157795Y11425
X157795Y11525
X157795Y11675
X158795Y11425
X158795Y11525
X158795Y11675
X159795Y11425
X159795Y11525
X159795Y11675
X160795Y11425
X160795Y11525
X160795Y11675
X160795Y11775
X160795Y11925
X160795Y12175
X160795Y12025
X159795Y11775
X159795Y11925
X159795Y12175
X159795Y12025
X158795Y11775
X158795Y11925
X158795Y12175
X158795Y12025
X157795Y11775
X157795Y11925
X157795Y12175
X157795Y12025
X157795Y124002
X157795Y12275
X157795Y12725
X157795Y126002
X157795Y125002
X158795Y12275
X158795Y126002
X158795Y125002
X158795Y124002
X158795Y12725
X159795Y126002
X159795Y125002
X159795Y124002
X159795Y12725
X159795Y12275
X160795Y12275
X160795Y126002
X160795Y12725
X160795Y125002
X160795Y124002
X160795Y12825
X160795Y12975
X160795Y13075
X160795Y13225
X159795Y12975
X159795Y12825
X159795Y13075
X159795Y13225
X158795Y13075
X158795Y12825
X158795Y12975
X158795Y13225
X157795Y12825
X157795Y13075
X157795Y12975
X157795Y13225
X11355Y136966
X119619Y136966
X157795Y13475
X157795Y13325
X157795Y13575
X158795Y13325
X158795Y13475
X158795Y13575
X159795Y13575
X159795Y13325
X159795Y13475
X160795Y13475
X160795Y13325
X160795Y13575
X12585Y138216
X12585Y140184
X119619Y138934
X11355Y138934
T4C.04291F139S55
X102189Y127259
X147541Y103425
X148541Y103425
X102189Y12911
X102189Y128259
X102189Y13011
X101598Y139279
X101598Y140279
X101598Y14205
X101598Y14105
X145965Y146575
X146965Y146575
T5C.07F081S55
X1476Y13138
X1476Y13282
X1476Y13458
X1534Y13468
X1534Y13612
X1534Y13932
X1534Y13788
X1476Y13602
T6C.094F066S55
X13485Y1292
X15345Y1197
X15345Y1173
X13485Y1315
X10145Y13285
T7C.09843F066S55
X159795Y11175
X159795Y13825
T8C.15748F035S9
X156927Y104091
X159533Y104091
X16175Y104091
X16175Y145904
X159533Y145904
X156927Y145904
M30
