*
*
G04 PADS 9.3 Build Number: 433611 generated Gerber (RS-274-X) file*
G04 PC Version=2.1*
*
%IN "PCC PCB_rev-A.pcb"*%
*
%MOIN*%
*
%FSLAX35Y35*%
*
*
*
*
G04 PC Standard Apertures*
*
*
G04 Thermal Relief Aperture macro.*
%AMTER*
1,1,$1,0,0*
1,0,$1-$2,0,0*
21,0,$3,$4,0,0,45*
21,0,$3,$4,0,0,135*
%
*
*
G04 Annular Aperture macro.*
%AMANN*
1,1,$1,0,0*
1,0,$2,0,0*
%
*
*
G04 Odd Aperture macro.*
%AMODD*
1,1,$1,0,0*
1,0,$1-0.005,0,0*
%
*
*
G04 PC Custom Aperture Macros*
*
*
*
*
*
*
G04 PC Aperture Table*
*
%ADD010C,0.001*%
%ADD012R,0.04803X0.02756*%
%ADD014R,0.02756X0.04803*%
%ADD016R,0.04528X0.05709*%
%ADD018R,0.04528X0.1063*%
%ADD022R,0.01181X0.05512*%
%ADD033R,0.0248X0.02874*%
%ADD034R,0.02441X0.02441*%
%ADD035R,0.03937X0.0374*%
%ADD036R,0.065X0.024*%
%ADD037R,0.02874X0.0248*%
%ADD038R,0.05709X0.04528*%
%ADD044R,0.036X0.036*%
%ADD045R,0.036X0.05*%
%ADD048R,0.1063X0.04528*%
%ADD055C,0.01*%
%ADD063C,0.045*%
%ADD064R,0.02362X0.0315*%
%ADD065R,0.05709X0.01772*%
%ADD066R,0.125X0.06*%
%ADD067R,0.04528X0.07087*%
%ADD068R,0.03543X0.05512*%
%ADD069R,0.08661X0.05512*%
%ADD070R,0.01181X0.05709*%
%ADD071R,0.01181X0.03346*%
%ADD072R,0.03346X0.01181*%
%ADD074R,0.0374X0.03937*%
%ADD075R,0.04134X0.05512*%
%ADD076R,0.01181X0.0315*%
%ADD077R,0.0315X0.01181*%
%ADD079R,0.05X0.036*%
%ADD080R,0.01X0.028*%
%ADD081R,0.05394X0.0252*%
%ADD082R,0.036X0.048*%
%ADD083R,0.02165X0.01654*%
%ADD127R,0.08701X0.08701*%
%ADD128C,0.00039*%
%ADD161R,0.18189X0.15748*%
%ADD162R,0.15748X0.18189*%
*
*
*
*
G04 PC Circuitry*
G04 Layer Name PCC PCB_rev-A.pcb - circuitry*
%LPD*%
*
*
G04 PC Custom Flashes*
G04 Layer Name PCC PCB_rev-A.pcb - flashes*
%LPD*%
*
*
G04 PC Circuitry*
G04 Layer Name PCC PCB_rev-A.pcb - circuitry*
%LPD*%
*
G54D10*
G54D12*
G01X1199689Y1212000D03*
Y1217000D03*
Y1222000D03*
Y1227000D03*
X1107811Y1225000D03*
Y1220000D03*
Y1215000D03*
Y1210000D03*
X1456189Y1212000D03*
Y1217000D03*
Y1222000D03*
Y1227000D03*
X1363811D03*
Y1222000D03*
Y1217000D03*
Y1212000D03*
G54D14*
X1072500Y1224689D03*
X1067500D03*
X1062500D03*
X1057500D03*
X1249500Y1225689D03*
X1244500D03*
X1239500D03*
X1234500D03*
X1506000Y1224689D03*
X1501000D03*
X1496000D03*
X1491000D03*
X1328000D03*
X1323000D03*
X1318000D03*
X1313000D03*
G54D16*
X1097457Y1379000D03*
X1104543D03*
X1101957Y1142000D03*
X1109043D03*
G54D18*
X1447906Y1452000D03*
X1436094D03*
X1447906Y1466000D03*
X1436094D03*
G54D22*
X1457610Y1424661D03*
X1459579D03*
X1461547D03*
X1463516D03*
X1465484D03*
X1467453D03*
X1469421D03*
X1471390D03*
Y1407339D03*
X1469421D03*
X1467453D03*
X1465484D03*
X1463516D03*
X1461547D03*
X1459579D03*
X1457610D03*
G54D33*
X1091492Y1136000D03*
X1095508D03*
X1374492Y1146500D03*
X1378508D03*
X1125492Y1148000D03*
X1129508D03*
X1370992Y1103000D03*
X1375008D03*
X1182008Y1114500D03*
X1177992D03*
X1437508Y1113000D03*
X1433492D03*
X1111992Y1109000D03*
X1116008D03*
X1365492Y1146500D03*
X1369508D03*
X1116492Y1148000D03*
X1120508D03*
X1375008Y1108000D03*
X1370992D03*
X1433492Y1118000D03*
X1437508D03*
X1116008Y1114000D03*
X1111992D03*
X1177992Y1120000D03*
X1182008D03*
X1374492Y1141500D03*
X1378508D03*
X1437508Y1133000D03*
X1433492D03*
Y1128000D03*
X1437508D03*
X1095508Y1142000D03*
X1091492D03*
X1180508Y1136500D03*
X1176492D03*
Y1131500D03*
X1180508D03*
X1521492Y1228500D03*
X1525508D03*
X1521492Y1259000D03*
X1525508D03*
X1563508Y1230500D03*
X1559492D03*
X1521492Y1234000D03*
X1525508D03*
X1521492Y1253500D03*
X1525508D03*
X1563508Y1250500D03*
X1559492D03*
X1521492Y1248000D03*
X1525508D03*
X1521492Y1223000D03*
X1525508D03*
X1221008Y1323000D03*
X1216992D03*
X1563508Y1224500D03*
X1559492D03*
X1221008Y1328500D03*
X1216992D03*
X1563508Y1256000D03*
X1559492D03*
X1036492Y1355000D03*
X1040508D03*
X1036508Y1361500D03*
X1032492D03*
X1049508Y1433000D03*
X1045492D03*
Y1425000D03*
X1049508D03*
Y1440500D03*
X1045492D03*
X1049508Y1418000D03*
X1045492D03*
X1200008Y1311000D03*
X1195992D03*
X1241008Y1310500D03*
X1236992D03*
G54D34*
X1279000Y1347728D03*
Y1351272D03*
X1465000Y1397772D03*
Y1394228D03*
X1470500Y1397772D03*
Y1394228D03*
X1436500Y1397772D03*
Y1394228D03*
X1430000Y1397772D03*
Y1394228D03*
X1090386Y1335728D03*
Y1339272D03*
X1437272Y1123000D03*
X1433728D03*
X1437228Y1140500D03*
X1440772D03*
X1043886Y1337228D03*
Y1340772D03*
X1377772Y1155000D03*
X1374228D03*
X1180272Y1126500D03*
X1176728D03*
Y1141500D03*
X1180272D03*
X1128272Y1156500D03*
X1124728D03*
X1534500Y1267272D03*
Y1263728D03*
Y1242272D03*
Y1238728D03*
X1516690Y1391922D03*
Y1388378D03*
X1168500Y1332772D03*
Y1329228D03*
X1428500Y1114228D03*
Y1117772D03*
X1381000Y1107772D03*
Y1104228D03*
X1173000Y1115228D03*
Y1118772D03*
X1122500Y1113772D03*
Y1110228D03*
X1087772Y1381000D03*
X1084228D03*
X1078500Y1381228D03*
Y1384772D03*
X1145220Y1383972D03*
Y1380428D03*
X1208140Y1383992D03*
Y1380448D03*
G54D35*
X1367500Y1125650D03*
Y1119350D03*
X1112000Y1127650D03*
Y1121350D03*
X1424000Y1100850D03*
Y1107150D03*
X1164000Y1092350D03*
Y1098650D03*
X1367500Y1139150D03*
Y1132850D03*
X1166000Y1172150D03*
Y1165850D03*
G54D36*
X1174730Y1384000D03*
Y1379000D03*
Y1374000D03*
Y1369000D03*
X1153270D03*
Y1374000D03*
Y1379000D03*
Y1384000D03*
X1238230D03*
Y1379000D03*
Y1374000D03*
Y1369000D03*
X1216770D03*
Y1374000D03*
Y1379000D03*
Y1384000D03*
G54D37*
X1164000Y1109008D03*
Y1104992D03*
X1148000D03*
Y1109008D03*
X1129000Y1123992D03*
Y1128008D03*
X1137500Y1109008D03*
Y1104992D03*
X1388500Y1128992D03*
Y1133008D03*
X1407000Y1107508D03*
Y1103492D03*
X1412000Y1169008D03*
Y1164992D03*
X1129000Y1140008D03*
Y1135992D03*
X1145500Y1172508D03*
Y1168492D03*
X1476000Y1386008D03*
Y1381992D03*
X1470500Y1386008D03*
Y1381992D03*
X1459500D03*
Y1386008D03*
X1442000Y1382492D03*
Y1386508D03*
X1510050Y1392418D03*
Y1388402D03*
X1418000Y1410008D03*
Y1405992D03*
X1143000Y1109008D03*
Y1104992D03*
X1453500Y1393992D03*
Y1398008D03*
X1465000Y1381992D03*
Y1386008D03*
X1459000Y1393992D03*
Y1398008D03*
X1279000Y1361508D03*
Y1357492D03*
X1070386Y1336508D03*
Y1332492D03*
X1112386Y1324008D03*
Y1319992D03*
X1418000Y1103492D03*
Y1107508D03*
X1412500Y1103492D03*
Y1107508D03*
X1430000Y1107008D03*
Y1102992D03*
X1395500Y1103492D03*
Y1107508D03*
X1401000D03*
Y1103492D03*
X1377000Y1117992D03*
Y1122008D03*
X1382500D03*
Y1117992D03*
X1158500Y1104992D03*
Y1109008D03*
X1153500Y1104992D03*
Y1109008D03*
X1170040Y1098698D03*
Y1094682D03*
X1118000Y1123992D03*
Y1128008D03*
X1123500D03*
Y1123992D03*
X1486000Y1420992D03*
Y1425008D03*
X1451500Y1417508D03*
Y1413492D03*
X1279000Y1370508D03*
Y1366492D03*
X1429860Y1422102D03*
Y1426118D03*
X1446000Y1413492D03*
Y1417508D03*
X1064386Y1332492D03*
Y1336508D03*
X1112386D03*
Y1332492D03*
X1252500Y1307992D03*
Y1312008D03*
X1247000Y1307992D03*
Y1312008D03*
X1166500Y1358992D03*
Y1363008D03*
X1224500Y1358992D03*
Y1363008D03*
X1230500Y1358992D03*
Y1363008D03*
X1160500Y1358992D03*
Y1363008D03*
X1557210Y1266242D03*
Y1270258D03*
X1200240Y1127811D03*
Y1123795D03*
X1390000Y1103492D03*
Y1107508D03*
G54D38*
X1478500Y1425043D03*
Y1417957D03*
X1417970Y1425943D03*
Y1418857D03*
X1439000Y1417457D03*
Y1424543D03*
X1403000Y1151457D03*
Y1158543D03*
X1412000Y1151457D03*
Y1158543D03*
X1145500Y1153957D03*
Y1161043D03*
X1156000Y1149957D03*
Y1157043D03*
X1422000Y1151457D03*
Y1158543D03*
X1166000Y1149957D03*
Y1157043D03*
X1479990Y1407303D03*
Y1400217D03*
G54D44*
X1036900Y1425250D03*
Y1417750D03*
Y1440750D03*
Y1433250D03*
X1039750Y1369600D03*
X1032250D03*
G54D45*
X1036000Y1377600D03*
G54D48*
X1015000Y1347094D03*
Y1358906D03*
X1016000Y1441906D03*
Y1430094D03*
G54D55*
X1215000Y1617563D02*
Y1611000D01*
Y1617563D02*
X1217045D01*
X1217045D02*
X1217727Y1617250D01*
X1217955Y1616938*
X1217955D02*
X1218182Y1616313D01*
X1218182D02*
Y1615688D01*
X1218182D02*
X1217955Y1615063D01*
X1217955D02*
X1217727Y1614750D01*
X1217045Y1614438*
X1215000D02*
X1217045D01*
X1217045D02*
X1217727Y1614125D01*
X1217955Y1613813*
X1217955D02*
X1218182Y1613188D01*
X1218182D02*
Y1612250D01*
X1217955Y1611625*
X1217727Y1611313*
X1217727D02*
X1217045Y1611000D01*
X1215000*
X1221591Y1617563D02*
X1221136Y1617250D01*
X1220682Y1616625*
X1220455Y1616000*
X1220227Y1615063*
X1220227D02*
Y1613500D01*
X1220455Y1612563*
X1220455D02*
X1220682Y1611938D01*
X1220682D02*
X1221136Y1611313D01*
X1221136D02*
X1221591Y1611000D01*
X1222500*
X1222955Y1611313*
X1222955D02*
X1223409Y1611938D01*
X1223409D02*
X1223636Y1612563D01*
X1223636D02*
X1223864Y1613500D01*
Y1615063*
X1223864D02*
X1223636Y1616000D01*
X1223409Y1616625*
X1222955Y1617250*
X1222500Y1617563*
X1222500D02*
X1221591D01*
X1227727D02*
X1225909Y1611000D01*
X1227727Y1617563D02*
X1229545Y1611000D01*
X1226591Y1613188D02*
X1228864D01*
X1231591Y1617563D02*
Y1611000D01*
Y1617563D02*
X1233636D01*
X1233636D02*
X1234318Y1617250D01*
X1234545Y1616938*
X1234545D02*
X1234773Y1616313D01*
X1234773D02*
Y1615688D01*
X1234773D02*
X1234545Y1615063D01*
X1234545D02*
X1234318Y1614750D01*
X1233636Y1614438*
X1233636D02*
X1231591D01*
X1233182D02*
X1234773Y1611000D01*
X1236818Y1617563D02*
Y1611000D01*
Y1617563D02*
X1238409D01*
X1238409D02*
X1239091Y1617250D01*
X1239545Y1616625*
X1239773Y1616000*
X1240000Y1615063*
X1240000D02*
Y1613500D01*
X1239773Y1612563*
X1239773D02*
X1239545Y1611938D01*
X1239545D02*
X1239091Y1611313D01*
X1239091D02*
X1238409Y1611000D01*
X1236818*
X1252500Y1617563D02*
Y1611000D01*
Y1617563D02*
X1255682Y1611000D01*
Y1617563D02*
Y1611000D01*
X1259545Y1617563D02*
X1257727Y1611000D01*
X1259545Y1617563D02*
X1261364Y1611000D01*
X1258409Y1613188D02*
X1260682D01*
X1263409Y1617563D02*
Y1611000D01*
Y1617563D02*
X1265227Y1611000D01*
X1267045Y1617563D02*
X1265227Y1611000D01*
X1267045Y1617563D02*
Y1611000D01*
X1269091Y1617563D02*
Y1611000D01*
Y1617563D02*
X1272045D01*
X1269091Y1614438D02*
X1270909D01*
X1269091Y1611000D02*
X1272045D01*
X1279318Y1613813D02*
X1283409D01*
X1215000Y1590063D02*
Y1583500D01*
Y1590063D02*
X1216591D01*
X1216591D02*
X1217273Y1589750D01*
X1217727Y1589125*
X1217955Y1588500*
X1218182Y1587563*
X1218182D02*
Y1586000D01*
X1217955Y1585063*
X1217955D02*
X1217727Y1584438D01*
X1217727D02*
X1217273Y1583813D01*
X1217273D02*
X1216591Y1583500D01*
X1215000*
X1221591Y1590063D02*
X1221136Y1589750D01*
X1220682Y1589125*
X1220455Y1588500*
X1220227Y1587563*
X1220227D02*
Y1586000D01*
X1220455Y1585063*
X1220455D02*
X1220682Y1584438D01*
X1220682D02*
X1221136Y1583813D01*
X1221136D02*
X1221591Y1583500D01*
X1222500*
X1222955Y1583813*
X1222955D02*
X1223409Y1584438D01*
X1223409D02*
X1223636Y1585063D01*
X1223636D02*
X1223864Y1586000D01*
Y1587563*
X1223864D02*
X1223636Y1588500D01*
X1223409Y1589125*
X1222955Y1589750*
X1222500Y1590063*
X1222500D02*
X1221591D01*
X1229318Y1588500D02*
X1229091Y1589125D01*
X1228636Y1589750*
X1228182Y1590063*
X1228182D02*
X1227273D01*
X1227273D02*
X1226818Y1589750D01*
X1226364Y1589125*
X1226136Y1588500*
X1225909Y1587563*
X1225909D02*
Y1586000D01*
X1226136Y1585063*
X1226136D02*
X1226364Y1584438D01*
X1226364D02*
X1226818Y1583813D01*
X1226818D02*
X1227273Y1583500D01*
X1228182*
X1228636Y1583813*
X1228636D02*
X1229091Y1584438D01*
X1229091D02*
X1229318Y1585063D01*
X1231364Y1590063D02*
Y1585375D01*
X1231591Y1584438*
X1231591D02*
X1232045Y1583813D01*
X1232045D02*
X1232727Y1583500D01*
X1233182*
X1233864Y1583813*
X1233864D02*
X1234318Y1584438D01*
X1234318D02*
X1234545Y1585375D01*
Y1590063*
X1236591D02*
Y1583500D01*
Y1590063D02*
X1238409Y1583500D01*
X1240227Y1590063D02*
X1238409Y1583500D01*
X1240227Y1590063D02*
Y1583500D01*
X1242273Y1590063D02*
Y1583500D01*
Y1590063D02*
X1245227D01*
X1242273Y1586938D02*
X1244091D01*
X1242273Y1583500D02*
X1245227D01*
X1247273Y1590063D02*
Y1583500D01*
Y1590063D02*
X1250455Y1583500D01*
Y1590063D02*
Y1583500D01*
X1254091Y1590063D02*
Y1583500D01*
X1252500Y1590063D02*
X1255682D01*
X1262955D02*
Y1583500D01*
Y1590063D02*
X1266136Y1583500D01*
Y1590063D02*
Y1583500D01*
X1270000Y1590063D02*
X1268182Y1583500D01*
X1270000Y1590063D02*
X1271818Y1583500D01*
X1268864Y1585688D02*
X1271136D01*
X1273864Y1590063D02*
Y1583500D01*
Y1590063D02*
X1275682Y1583500D01*
X1277500Y1590063D02*
X1275682Y1583500D01*
X1277500Y1590063D02*
Y1583500D01*
X1279545Y1590063D02*
Y1583500D01*
Y1590063D02*
X1282500D01*
X1279545Y1586938D02*
X1281364D01*
X1279545Y1583500D02*
X1282500D01*
X1284545Y1586313D02*
X1288636D01*
X1405000Y1590063D02*
Y1583500D01*
Y1590063D02*
X1407045D01*
X1407045D02*
X1407727Y1589750D01*
X1407955Y1589438*
X1407955D02*
X1408182Y1588813D01*
X1408182D02*
Y1588188D01*
X1408182D02*
X1407955Y1587563D01*
X1407955D02*
X1407727Y1587250D01*
X1407045Y1586938*
X1407045D02*
X1405000D01*
X1406591D02*
X1408182Y1583500D01*
X1410227Y1590063D02*
Y1583500D01*
Y1590063D02*
X1413182D01*
X1410227Y1586938D02*
X1412045D01*
X1410227Y1583500D02*
X1413182D01*
X1415227Y1590063D02*
X1417045Y1583500D01*
X1418864Y1590063D02*
X1417045Y1583500D01*
X1426136Y1586313D02*
X1430227D01*
X1439318Y1590063D02*
X1437500Y1583500D01*
X1439318Y1590063D02*
X1441136Y1583500D01*
X1438182Y1585688D02*
X1440455D01*
X1295000Y1617563D02*
Y1611000D01*
Y1617563D02*
X1297045D01*
X1297045D02*
X1297727Y1617250D01*
X1297955Y1616938*
X1297955D02*
X1298182Y1616313D01*
X1298182D02*
Y1615375D01*
X1297955Y1614750*
X1297727Y1614438*
X1297727D02*
X1297045Y1614125D01*
X1295000*
X1303636Y1616000D02*
X1303409Y1616625D01*
X1302955Y1617250*
X1302500Y1617563*
X1302500D02*
X1301591D01*
X1301591D02*
X1301136Y1617250D01*
X1300682Y1616625*
X1300455Y1616000*
X1300227Y1615063*
X1300227D02*
Y1613500D01*
X1300455Y1612563*
X1300455D02*
X1300682Y1611938D01*
X1300682D02*
X1301136Y1611313D01*
X1301136D02*
X1301591Y1611000D01*
X1302500*
X1302955Y1611313*
X1302955D02*
X1303409Y1611938D01*
X1303409D02*
X1303636Y1612563D01*
X1309091Y1616000D02*
X1308864Y1616625D01*
X1308409Y1617250*
X1307955Y1617563*
X1307955D02*
X1307045D01*
X1307045D02*
X1306591Y1617250D01*
X1306136Y1616625*
X1305909Y1616000*
X1305682Y1615063*
X1305682D02*
Y1613500D01*
X1305909Y1612563*
X1305909D02*
X1306136Y1611938D01*
X1306136D02*
X1306591Y1611313D01*
X1306591D02*
X1307045Y1611000D01*
X1307955*
X1308409Y1611313*
X1308409D02*
X1308864Y1611938D01*
X1308864D02*
X1309091Y1612563D01*
X1319773Y1616000D02*
X1319545Y1616625D01*
X1319091Y1617250*
X1318636Y1617563*
X1318636D02*
X1317727D01*
X1317727D02*
X1317273Y1617250D01*
X1316818Y1616625*
X1316591Y1616000*
X1316364Y1615063*
X1316364D02*
Y1613500D01*
X1316591Y1612563*
X1316591D02*
X1316818Y1611938D01*
X1316818D02*
X1317273Y1611313D01*
X1317273D02*
X1317727Y1611000D01*
X1318636*
X1319091Y1611313*
X1319091D02*
X1319545Y1611938D01*
X1319545D02*
X1319773Y1612563D01*
X1323636Y1617563D02*
X1321818Y1611000D01*
X1323636Y1617563D02*
X1325455Y1611000D01*
X1322500Y1613188D02*
X1324773D01*
X1327500Y1617563D02*
Y1611000D01*
Y1617563D02*
X1329545D01*
X1329545D02*
X1330227Y1617250D01*
X1330455Y1616938*
X1330455D02*
X1330682Y1616313D01*
X1330682D02*
Y1615688D01*
X1330682D02*
X1330455Y1615063D01*
X1330455D02*
X1330227Y1614750D01*
X1329545Y1614438*
X1329545D02*
X1327500D01*
X1329091D02*
X1330682Y1611000D01*
X1332727Y1617563D02*
Y1611000D01*
Y1617563D02*
X1334318D01*
X1334318D02*
X1335000Y1617250D01*
X1335455Y1616625*
X1335682Y1616000*
X1335909Y1615063*
X1335909D02*
Y1613500D01*
X1335682Y1612563*
X1335682D02*
X1335455Y1611938D01*
X1335455D02*
X1335000Y1611313D01*
X1335000D02*
X1334318Y1611000D01*
X1332727*
X1263409Y1633500D02*
X1263182Y1634125D01*
X1262727Y1634750*
X1262273Y1635063*
X1262273D02*
X1261364D01*
X1261364D02*
X1260909Y1634750D01*
X1260455Y1634125*
X1260227Y1633500*
X1260000Y1632563*
X1260000D02*
Y1631000D01*
X1260227Y1630063*
X1260227D02*
X1260455Y1629438D01*
X1260455D02*
X1260909Y1628813D01*
X1260909D02*
X1261364Y1628500D01*
X1262273*
X1262727Y1628813*
X1262727D02*
X1263182Y1629438D01*
X1263182D02*
X1263409Y1630063D01*
X1266818Y1635063D02*
X1266364Y1634750D01*
X1265909Y1634125*
X1265682Y1633500*
X1265455Y1632563*
X1265455D02*
Y1631000D01*
X1265682Y1630063*
X1265682D02*
X1265909Y1629438D01*
X1265909D02*
X1266364Y1628813D01*
X1266364D02*
X1266818Y1628500D01*
X1267727*
X1268182Y1628813*
X1268182D02*
X1268636Y1629438D01*
X1268636D02*
X1268864Y1630063D01*
X1268864D02*
X1269091Y1631000D01*
Y1632563*
X1269091D02*
X1268864Y1633500D01*
X1268636Y1634125*
X1268182Y1634750*
X1267727Y1635063*
X1267727D02*
X1266818D01*
X1271136D02*
Y1628500D01*
Y1635063D02*
X1272955Y1628500D01*
X1274773Y1635063D02*
X1272955Y1628500D01*
X1274773Y1635063D02*
Y1628500D01*
X1276818Y1635063D02*
Y1628500D01*
Y1635063D02*
X1278864D01*
X1278864D02*
X1279545Y1634750D01*
X1279773Y1634438*
X1279773D02*
X1280000Y1633813D01*
X1280000D02*
Y1632875D01*
X1279773Y1632250*
X1279545Y1631938*
X1279545D02*
X1278864Y1631625D01*
X1276818*
X1282045Y1635063D02*
Y1628500D01*
Y1635063D02*
X1284091D01*
X1284091D02*
X1284773Y1634750D01*
X1285000Y1634438*
X1285000D02*
X1285227Y1633813D01*
X1285227D02*
Y1633188D01*
X1285227D02*
X1285000Y1632563D01*
X1285000D02*
X1284773Y1632250D01*
X1284091Y1631938*
X1284091D02*
X1282045D01*
X1283636D02*
X1285227Y1628500D01*
X1287273Y1635063D02*
Y1628500D01*
Y1635063D02*
X1290227D01*
X1287273Y1631938D02*
X1289091D01*
X1287273Y1628500D02*
X1290227D01*
X1295455Y1634125D02*
X1295000Y1634750D01*
X1294318Y1635063*
X1294318D02*
X1293409D01*
X1293409D02*
X1292727Y1634750D01*
X1292273Y1634125*
Y1633500*
X1292500Y1632875*
X1292727Y1632563*
X1292727D02*
X1293182Y1632250D01*
X1294545Y1631625*
X1295000Y1631313*
X1295000D02*
X1295227Y1631000D01*
X1295455Y1630375*
Y1629438*
X1295455D02*
X1295000Y1628813D01*
X1295000D02*
X1294318Y1628500D01*
X1293409*
X1292727Y1628813*
X1292727D02*
X1292273Y1629438D01*
X1300682Y1634125D02*
X1300227Y1634750D01*
X1299545Y1635063*
X1299545D02*
X1298636D01*
X1298636D02*
X1297955Y1634750D01*
X1297500Y1634125*
Y1633500*
X1297727Y1632875*
X1297955Y1632563*
X1297955D02*
X1298409Y1632250D01*
X1299773Y1631625*
X1300227Y1631313*
X1300227D02*
X1300455Y1631000D01*
X1300682Y1630375*
Y1629438*
X1300682D02*
X1300227Y1628813D01*
X1300227D02*
X1299545Y1628500D01*
X1298636*
X1297955Y1628813*
X1297955D02*
X1297500Y1629438D01*
X1304091Y1635063D02*
X1303636Y1634750D01*
X1303182Y1634125*
X1302955Y1633500*
X1302727Y1632563*
X1302727D02*
Y1631000D01*
X1302955Y1630063*
X1302955D02*
X1303182Y1629438D01*
X1303182D02*
X1303636Y1628813D01*
X1303636D02*
X1304091Y1628500D01*
X1305000*
X1305455Y1628813*
X1305455D02*
X1305909Y1629438D01*
X1305909D02*
X1306136Y1630063D01*
X1306136D02*
X1306364Y1631000D01*
Y1632563*
X1306364D02*
X1306136Y1633500D01*
X1305909Y1634125*
X1305455Y1634750*
X1305000Y1635063*
X1305000D02*
X1304091D01*
X1308409D02*
Y1628500D01*
Y1635063D02*
X1310455D01*
X1310455D02*
X1311136Y1634750D01*
X1311364Y1634438*
X1311364D02*
X1311591Y1633813D01*
X1311591D02*
Y1633188D01*
X1311591D02*
X1311364Y1632563D01*
X1311364D02*
X1311136Y1632250D01*
X1310455Y1631938*
X1310455D02*
X1308409D01*
X1310000D02*
X1311591Y1628500D01*
X1322273Y1633500D02*
X1322045Y1634125D01*
X1321591Y1634750*
X1321136Y1635063*
X1321136D02*
X1320227D01*
X1320227D02*
X1319773Y1634750D01*
X1319318Y1634125*
X1319091Y1633500*
X1318864Y1632563*
X1318864D02*
Y1631000D01*
X1319091Y1630063*
X1319091D02*
X1319318Y1629438D01*
X1319318D02*
X1319773Y1628813D01*
X1319773D02*
X1320227Y1628500D01*
X1321136*
X1321591Y1628813*
X1321591D02*
X1322045Y1629438D01*
X1322045D02*
X1322273Y1630063D01*
X1325682Y1635063D02*
X1325227Y1634750D01*
X1324773Y1634125*
X1324545Y1633500*
X1324318Y1632563*
X1324318D02*
Y1631000D01*
X1324545Y1630063*
X1324545D02*
X1324773Y1629438D01*
X1324773D02*
X1325227Y1628813D01*
X1325227D02*
X1325682Y1628500D01*
X1326591*
X1327045Y1628813*
X1327045D02*
X1327500Y1629438D01*
X1327500D02*
X1327727Y1630063D01*
X1327727D02*
X1327955Y1631000D01*
Y1632563*
X1327955D02*
X1327727Y1633500D01*
X1327500Y1634125*
X1327045Y1634750*
X1326591Y1635063*
X1326591D02*
X1325682D01*
X1330000D02*
Y1628500D01*
Y1635063D02*
X1333182Y1628500D01*
Y1635063D02*
Y1628500D01*
X1336818Y1635063D02*
Y1628500D01*
X1335227Y1635063D02*
X1338409D01*
X1340455D02*
Y1628500D01*
Y1635063D02*
X1342500D01*
X1342500D02*
X1343182Y1634750D01*
X1343409Y1634438*
X1343409D02*
X1343636Y1633813D01*
X1343636D02*
Y1633188D01*
X1343636D02*
X1343409Y1632563D01*
X1343409D02*
X1343182Y1632250D01*
X1342500Y1631938*
X1342500D02*
X1340455D01*
X1342045D02*
X1343636Y1628500D01*
X1347045Y1635063D02*
X1346591Y1634750D01*
X1346136Y1634125*
X1345909Y1633500*
X1345682Y1632563*
X1345682D02*
Y1631000D01*
X1345909Y1630063*
X1345909D02*
X1346136Y1629438D01*
X1346136D02*
X1346591Y1628813D01*
X1346591D02*
X1347045Y1628500D01*
X1347955*
X1348409Y1628813*
X1348409D02*
X1348864Y1629438D01*
X1348864D02*
X1349091Y1630063D01*
X1349091D02*
X1349318Y1631000D01*
Y1632563*
X1349318D02*
X1349091Y1633500D01*
X1348864Y1634125*
X1348409Y1634750*
X1347955Y1635063*
X1347955D02*
X1347045D01*
X1351364D02*
Y1628500D01*
X1354091*
X1359318Y1634125D02*
X1358864Y1634750D01*
X1358182Y1635063*
X1358182D02*
X1357273D01*
X1357273D02*
X1356591Y1634750D01*
X1356136Y1634125*
Y1633500*
X1356364Y1632875*
X1356591Y1632563*
X1356591D02*
X1357045Y1632250D01*
X1358409Y1631625*
X1358864Y1631313*
X1358864D02*
X1359091Y1631000D01*
X1359318Y1630375*
Y1629438*
X1359318D02*
X1358864Y1628813D01*
X1358864D02*
X1358182Y1628500D01*
X1357273*
X1356591Y1628813*
X1356591D02*
X1356136Y1629438D01*
X1370000Y1633500D02*
X1369773Y1634125D01*
X1369318Y1634750*
X1368864Y1635063*
X1368864D02*
X1367955D01*
X1367955D02*
X1367500Y1634750D01*
X1367045Y1634125*
X1366818Y1633500*
X1366591Y1632563*
X1366591D02*
Y1631000D01*
X1366818Y1630063*
X1366818D02*
X1367045Y1629438D01*
X1367045D02*
X1367500Y1628813D01*
X1367500D02*
X1367955Y1628500D01*
X1368864*
X1369318Y1628813*
X1369318D02*
X1369773Y1629438D01*
X1369773D02*
X1370000Y1630063D01*
X1373409Y1635063D02*
X1372955Y1634750D01*
X1372500Y1634125*
X1372273Y1633500*
X1372045Y1632563*
X1372045D02*
Y1631000D01*
X1372273Y1630063*
X1372273D02*
X1372500Y1629438D01*
X1372500D02*
X1372955Y1628813D01*
X1372955D02*
X1373409Y1628500D01*
X1374318*
X1374773Y1628813*
X1374773D02*
X1375227Y1629438D01*
X1375227D02*
X1375455Y1630063D01*
X1375455D02*
X1375682Y1631000D01*
Y1632563*
X1375682D02*
X1375455Y1633500D01*
X1375227Y1634125*
X1374773Y1634750*
X1374318Y1635063*
X1374318D02*
X1373409D01*
X1377727D02*
Y1628500D01*
Y1635063D02*
X1379773D01*
X1379773D02*
X1380455Y1634750D01*
X1380682Y1634438*
X1380682D02*
X1380909Y1633813D01*
X1380909D02*
Y1633188D01*
X1380909D02*
X1380682Y1632563D01*
X1380682D02*
X1380455Y1632250D01*
X1379773Y1631938*
X1379773D02*
X1377727D01*
X1379318D02*
X1380909Y1628500D01*
X1382955Y1635063D02*
Y1628500D01*
Y1635063D02*
X1385000D01*
X1385000D02*
X1385682Y1634750D01*
X1385909Y1634438*
X1385909D02*
X1386136Y1633813D01*
X1386136D02*
Y1632875D01*
X1385909Y1632250*
X1385682Y1631938*
X1385682D02*
X1385000Y1631625D01*
X1382955*
X1389545Y1635063D02*
X1389091Y1634750D01*
X1388636Y1634125*
X1388409Y1633500*
X1388182Y1632563*
X1388182D02*
Y1631000D01*
X1388409Y1630063*
X1388409D02*
X1388636Y1629438D01*
X1388636D02*
X1389091Y1628813D01*
X1389091D02*
X1389545Y1628500D01*
X1390455*
X1390909Y1628813*
X1390909D02*
X1391364Y1629438D01*
X1391364D02*
X1391591Y1630063D01*
X1391591D02*
X1391818Y1631000D01*
Y1632563*
X1391818D02*
X1391591Y1633500D01*
X1391364Y1634125*
X1390909Y1634750*
X1390455Y1635063*
X1390455D02*
X1389545D01*
X1393864D02*
Y1628500D01*
Y1635063D02*
X1395909D01*
X1395909D02*
X1396591Y1634750D01*
X1396818Y1634438*
X1396818D02*
X1397045Y1633813D01*
X1397045D02*
Y1633188D01*
X1397045D02*
X1396818Y1632563D01*
X1396818D02*
X1396591Y1632250D01*
X1395909Y1631938*
X1395909D02*
X1393864D01*
X1395455D02*
X1397045Y1628500D01*
X1400909Y1635063D02*
X1399091Y1628500D01*
X1400909Y1635063D02*
X1402727Y1628500D01*
X1399773Y1630688D02*
X1402045D01*
X1406364Y1635063D02*
Y1628500D01*
X1404773Y1635063D02*
X1407955D01*
X1410000D02*
Y1628500D01*
X1413409Y1635063D02*
X1412955Y1634750D01*
X1412500Y1634125*
X1412273Y1633500*
X1412045Y1632563*
X1412045D02*
Y1631000D01*
X1412273Y1630063*
X1412273D02*
X1412500Y1629438D01*
X1412500D02*
X1412955Y1628813D01*
X1412955D02*
X1413409Y1628500D01*
X1414318*
X1414773Y1628813*
X1414773D02*
X1415227Y1629438D01*
X1415227D02*
X1415455Y1630063D01*
X1415455D02*
X1415682Y1631000D01*
Y1632563*
X1415682D02*
X1415455Y1633500D01*
X1415227Y1634125*
X1414773Y1634750*
X1414318Y1635063*
X1414318D02*
X1413409D01*
X1417727D02*
Y1628500D01*
Y1635063D02*
X1420909Y1628500D01*
Y1635063D02*
Y1628500D01*
X1255000Y1603813D02*
X1255455Y1604125D01*
X1256136Y1605063*
X1256136D02*
Y1598500D01*
X1261364Y1605063D02*
X1259091Y1598500D01*
X1258182Y1605063D02*
X1261364D01*
X1263409Y1601313D02*
X1267500D01*
X1272273Y1604125D02*
X1272045Y1604750D01*
X1271364Y1605063*
X1271364D02*
X1270909D01*
X1270909D02*
X1270227Y1604750D01*
X1269773Y1603813*
X1269773D02*
X1269545Y1602250D01*
Y1600688*
X1269545D02*
X1269773Y1599438D01*
X1269773D02*
X1270227Y1598813D01*
X1270227D02*
X1270909Y1598500D01*
X1271136*
X1271818Y1598813*
X1271818D02*
X1272273Y1599438D01*
X1272273D02*
X1272500Y1600375D01*
Y1600688*
X1272500D02*
X1272273Y1601625D01*
X1271818Y1602250*
X1271136Y1602563*
X1271136D02*
X1270909D01*
X1270909D02*
X1270227Y1602250D01*
X1269773Y1601625*
X1269545Y1600688*
X1275909Y1605063D02*
X1275227Y1604750D01*
X1274773Y1603813*
X1274773D02*
X1274545Y1602250D01*
Y1601313*
X1274545D02*
X1274773Y1599750D01*
X1275227Y1598813*
X1275227D02*
X1275909Y1598500D01*
X1276364*
X1277045Y1598813*
X1277045D02*
X1277500Y1599750D01*
X1277727Y1601313*
X1277727D02*
Y1602250D01*
X1277500Y1603813*
X1277500D02*
X1277045Y1604750D01*
X1276364Y1605063*
X1276364D02*
X1275909D01*
X1281136D02*
X1280455Y1604750D01*
X1280000Y1603813*
X1280000D02*
X1279773Y1602250D01*
Y1601313*
X1279773D02*
X1280000Y1599750D01*
X1280455Y1598813*
X1280455D02*
X1281136Y1598500D01*
X1281591*
X1282273Y1598813*
X1282273D02*
X1282727Y1599750D01*
X1282955Y1601313*
X1282955D02*
Y1602250D01*
X1282727Y1603813*
X1282727D02*
X1282273Y1604750D01*
X1281591Y1605063*
X1281591D02*
X1281136D01*
X1285227Y1603500D02*
Y1603813D01*
X1285227D02*
X1285455Y1604438D01*
X1285455D02*
X1285682Y1604750D01*
X1286136Y1605063*
X1286136D02*
X1287045D01*
X1287045D02*
X1287500Y1604750D01*
X1287727Y1604438*
X1287727D02*
X1287955Y1603813D01*
X1287955D02*
Y1603188D01*
X1287955D02*
X1287727Y1602563D01*
X1287727D02*
X1287273Y1601625D01*
X1285000Y1598500*
X1288182*
X1291591Y1605063D02*
X1290909Y1604750D01*
X1290455Y1603813*
X1290455D02*
X1290227Y1602250D01*
Y1601313*
X1290227D02*
X1290455Y1599750D01*
X1290909Y1598813*
X1290909D02*
X1291591Y1598500D01*
X1292045*
X1292727Y1598813*
X1292727D02*
X1293182Y1599750D01*
X1293409Y1601313*
X1293409D02*
Y1602250D01*
X1293182Y1603813*
X1293182D02*
X1292727Y1604750D01*
X1292045Y1605063*
X1292045D02*
X1291591D01*
X1296818D02*
X1296136Y1604750D01*
X1295682Y1603813*
X1295682D02*
X1295455Y1602250D01*
Y1601313*
X1295455D02*
X1295682Y1599750D01*
X1296136Y1598813*
X1296136D02*
X1296818Y1598500D01*
X1297273*
X1297955Y1598813*
X1297955D02*
X1298409Y1599750D01*
X1298636Y1601313*
X1298636D02*
Y1602250D01*
X1298409Y1603813*
X1298409D02*
X1297955Y1604750D01*
X1297273Y1605063*
X1297273D02*
X1296818D01*
X1300682Y1601313D02*
X1304773D01*
X1308182Y1605063D02*
X1307500Y1604750D01*
X1307045Y1603813*
X1307045D02*
X1306818Y1602250D01*
Y1601313*
X1306818D02*
X1307045Y1599750D01*
X1307500Y1598813*
X1307500D02*
X1308182Y1598500D01*
X1308636*
X1309318Y1598813*
X1309318D02*
X1309773Y1599750D01*
X1310000Y1601313*
X1310000D02*
Y1602250D01*
X1309773Y1603813*
X1309773D02*
X1309318Y1604750D01*
X1308636Y1605063*
X1308636D02*
X1308182D01*
X1313409D02*
X1312727Y1604750D01*
X1312273Y1603813*
X1312273D02*
X1312045Y1602250D01*
Y1601313*
X1312045D02*
X1312273Y1599750D01*
X1312727Y1598813*
X1312727D02*
X1313409Y1598500D01*
X1313864*
X1314545Y1598813*
X1314545D02*
X1315000Y1599750D01*
X1315227Y1601313*
X1315227D02*
Y1602250D01*
X1315000Y1603813*
X1315000D02*
X1314545Y1604750D01*
X1313864Y1605063*
X1313864D02*
X1313409D01*
X1317273Y1603813D02*
X1317727Y1604125D01*
X1318409Y1605063*
X1318409D02*
Y1598500D01*
X1215000Y1605063D02*
Y1598500D01*
Y1605063D02*
X1217045D01*
X1217045D02*
X1217727Y1604750D01*
X1217955Y1604438*
X1217955D02*
X1218182Y1603813D01*
X1218182D02*
Y1602875D01*
X1217955Y1602250*
X1217727Y1601938*
X1217727D02*
X1217045Y1601625D01*
X1215000*
X1224318Y1606313D02*
X1220227Y1596312D01*
X1226364Y1605063D02*
Y1598500D01*
Y1605063D02*
X1229545Y1598500D01*
Y1605063D02*
Y1598500D01*
X1236818Y1601313D02*
X1240909D01*
X1365000Y1604563D02*
Y1598000D01*
Y1604563D02*
X1368182Y1598000D01*
Y1604563D02*
Y1598000D01*
X1371364Y1602375D02*
X1370909Y1602063D01*
X1370909D02*
X1370455Y1601438D01*
X1370455D02*
X1370227Y1600500D01*
Y1599875*
X1370455Y1598938*
X1370455D02*
X1370909Y1598313D01*
X1370909D02*
X1371364Y1598000D01*
X1372045*
X1372500Y1598313*
X1372500D02*
X1372955Y1598938D01*
X1372955D02*
X1373182Y1599875D01*
Y1600500*
X1372955Y1601438*
X1372955D02*
X1372500Y1602063D01*
X1372500D02*
X1372045Y1602375D01*
X1371364*
X1375227D02*
X1376591Y1598000D01*
X1377955Y1602375D02*
X1376591Y1598000D01*
X1380000Y1600500D02*
X1382727D01*
Y1601125*
X1382500Y1601750*
X1382273Y1602063*
X1382273D02*
X1381818Y1602375D01*
X1381136*
X1380682Y1602063*
X1380682D02*
X1380227Y1601438D01*
X1380227D02*
X1380000Y1600500D01*
Y1599875*
X1380227Y1598938*
X1380227D02*
X1380682Y1598313D01*
X1380682D02*
X1381136Y1598000D01*
X1381818*
X1382273Y1598313*
X1382273D02*
X1382727Y1598938D01*
X1384773Y1602375D02*
Y1598000D01*
Y1601125D02*
X1385455Y1602063D01*
X1385455D02*
X1385909Y1602375D01*
X1386591*
X1387045Y1602063*
X1387045D02*
X1387273Y1601125D01*
Y1598000*
Y1601125D02*
X1387955Y1602063D01*
X1387955D02*
X1388409Y1602375D01*
X1389091*
X1389545Y1602063*
X1389545D02*
X1389773Y1601125D01*
Y1598000*
X1391818Y1604563D02*
Y1598000D01*
Y1601438D02*
X1392273Y1602063D01*
X1392273D02*
X1392727Y1602375D01*
X1393409*
X1393864Y1602063*
X1393864D02*
X1394318Y1601438D01*
X1394318D02*
X1394545Y1600500D01*
Y1599875*
X1394318Y1598938*
X1394318D02*
X1393864Y1598313D01*
X1393864D02*
X1393409Y1598000D01*
X1392727*
X1392273Y1598313*
X1392273D02*
X1391818Y1598938D01*
X1396591Y1600500D02*
X1399318D01*
Y1601125*
X1399091Y1601750*
X1398864Y1602063*
X1398864D02*
X1398409Y1602375D01*
X1397727*
X1397273Y1602063*
X1397273D02*
X1396818Y1601438D01*
X1396818D02*
X1396591Y1600500D01*
Y1599875*
X1396818Y1598938*
X1396818D02*
X1397273Y1598313D01*
X1397273D02*
X1397727Y1598000D01*
X1398409*
X1398864Y1598313*
X1398864D02*
X1399318Y1598938D01*
X1401364Y1602375D02*
Y1598000D01*
Y1600500D02*
X1401591Y1601438D01*
X1401591D02*
X1402045Y1602063D01*
X1402045D02*
X1402500Y1602375D01*
X1403182*
X1410682Y1603000D02*
Y1603313D01*
X1410682D02*
X1410909Y1603938D01*
X1410909D02*
X1411136Y1604250D01*
X1411591Y1604563*
X1411591D02*
X1412500D01*
X1412500D02*
X1412955Y1604250D01*
X1413182Y1603938*
X1413182D02*
X1413409Y1603313D01*
X1413409D02*
Y1602688D01*
X1413409D02*
X1413182Y1602063D01*
X1413182D02*
X1412727Y1601125D01*
X1410455Y1598000*
X1413636*
X1415682Y1603313D02*
X1416136Y1603625D01*
X1416818Y1604563*
X1416818D02*
Y1598000D01*
X1419318Y1598313D02*
X1419091Y1598000D01*
X1418864Y1598313*
X1418864D02*
X1419091Y1598625D01*
X1419318Y1598313*
X1419318D02*
Y1597687D01*
X1419318D02*
X1419091Y1597062D01*
X1419091D02*
X1418864Y1596750D01*
X1426818Y1603000D02*
Y1603313D01*
X1426818D02*
X1427045Y1603938D01*
X1427045D02*
X1427273Y1604250D01*
X1427727Y1604563*
X1427727D02*
X1428636D01*
X1428636D02*
X1429091Y1604250D01*
X1429318Y1603938*
X1429318D02*
X1429545Y1603313D01*
X1429545D02*
Y1602688D01*
X1429545D02*
X1429318Y1602063D01*
X1429318D02*
X1428864Y1601125D01*
X1426591Y1598000*
X1429773*
X1433182Y1604563D02*
X1432500Y1604250D01*
X1432045Y1603313*
X1432045D02*
X1431818Y1601750D01*
Y1600813*
X1431818D02*
X1432045Y1599250D01*
X1432500Y1598313*
X1432500D02*
X1433182Y1598000D01*
X1433636*
X1434318Y1598313*
X1434318D02*
X1434773Y1599250D01*
X1435000Y1600813*
X1435000D02*
Y1601750D01*
X1434773Y1603313*
X1434773D02*
X1434318Y1604250D01*
X1433636Y1604563*
X1433636D02*
X1433182D01*
X1437045Y1603313D02*
X1437500Y1603625D01*
X1438182Y1604563*
X1438182D02*
Y1598000D01*
X1440455Y1603000D02*
Y1603313D01*
X1440455D02*
X1440682Y1603938D01*
X1440682D02*
X1440909Y1604250D01*
X1441364Y1604563*
X1441364D02*
X1442273D01*
X1442273D02*
X1442727Y1604250D01*
X1442955Y1603938*
X1442955D02*
X1443182Y1603313D01*
X1443182D02*
Y1602688D01*
X1443182D02*
X1442955Y1602063D01*
X1442955D02*
X1442500Y1601125D01*
X1440227Y1598000*
X1443409*
X1310500Y1590063D02*
Y1583500D01*
Y1590063D02*
X1312545D01*
X1312545D02*
X1313227Y1589750D01*
X1313455Y1589438*
X1313455D02*
X1313682Y1588813D01*
X1313682D02*
Y1588188D01*
X1313682D02*
X1313455Y1587563D01*
X1313455D02*
X1313227Y1587250D01*
X1312545Y1586938*
X1310500D02*
X1312545D01*
X1312545D02*
X1313227Y1586625D01*
X1313455Y1586313*
X1313455D02*
X1313682Y1585688D01*
X1313682D02*
Y1584750D01*
X1313455Y1584125*
X1313227Y1583813*
X1313227D02*
X1312545Y1583500D01*
X1310500*
X1317091Y1590063D02*
X1316636Y1589750D01*
X1316182Y1589125*
X1315955Y1588500*
X1315727Y1587563*
X1315727D02*
Y1586000D01*
X1315955Y1585063*
X1315955D02*
X1316182Y1584438D01*
X1316182D02*
X1316636Y1583813D01*
X1316636D02*
X1317091Y1583500D01*
X1318000*
X1318455Y1583813*
X1318455D02*
X1318909Y1584438D01*
X1318909D02*
X1319136Y1585063D01*
X1319136D02*
X1319364Y1586000D01*
Y1587563*
X1319364D02*
X1319136Y1588500D01*
X1318909Y1589125*
X1318455Y1589750*
X1318000Y1590063*
X1318000D02*
X1317091D01*
X1323000D02*
Y1583500D01*
X1321409Y1590063D02*
X1324591D01*
X1328227D02*
Y1583500D01*
X1326636Y1590063D02*
X1329818D01*
X1333227D02*
X1332773Y1589750D01*
X1332318Y1589125*
X1332091Y1588500*
X1331864Y1587563*
X1331864D02*
Y1586000D01*
X1332091Y1585063*
X1332091D02*
X1332318Y1584438D01*
X1332318D02*
X1332773Y1583813D01*
X1332773D02*
X1333227Y1583500D01*
X1334136*
X1334591Y1583813*
X1334591D02*
X1335045Y1584438D01*
X1335045D02*
X1335273Y1585063D01*
X1335273D02*
X1335500Y1586000D01*
Y1587563*
X1335500D02*
X1335273Y1588500D01*
X1335045Y1589125*
X1334591Y1589750*
X1334136Y1590063*
X1334136D02*
X1333227D01*
X1337545D02*
Y1583500D01*
Y1590063D02*
X1339364Y1583500D01*
X1341182Y1590063D02*
X1339364Y1583500D01*
X1341182Y1590063D02*
Y1583500D01*
X1348455Y1590063D02*
Y1583500D01*
Y1590063D02*
X1350500D01*
X1350500D02*
X1351182Y1589750D01*
X1351409Y1589438*
X1351409D02*
X1351636Y1588813D01*
X1351636D02*
Y1587875D01*
X1351409Y1587250*
X1351182Y1586938*
X1351182D02*
X1350500Y1586625D01*
X1348455*
X1355500Y1590063D02*
X1353682Y1583500D01*
X1355500Y1590063D02*
X1357318Y1583500D01*
X1354364Y1585688D02*
X1356636D01*
X1362545Y1589125D02*
X1362091Y1589750D01*
X1361409Y1590063*
X1361409D02*
X1360500D01*
X1360500D02*
X1359818Y1589750D01*
X1359364Y1589125*
Y1588500*
X1359591Y1587875*
X1359818Y1587563*
X1359818D02*
X1360273Y1587250D01*
X1361636Y1586625*
X1362091Y1586313*
X1362091D02*
X1362318Y1586000D01*
X1362545Y1585375*
Y1584438*
X1362545D02*
X1362091Y1583813D01*
X1362091D02*
X1361409Y1583500D01*
X1360500*
X1359818Y1583813*
X1359818D02*
X1359364Y1584438D01*
X1366182Y1590063D02*
Y1583500D01*
X1364591Y1590063D02*
X1367773D01*
X1369818D02*
Y1583500D01*
Y1590063D02*
X1372773D01*
X1369818Y1586938D02*
X1371636D01*
X1369818Y1583500D02*
X1372773D01*
X1000000Y1480315D02*
Y1310659D01*
X1000159Y1304055*
X1000545Y1288071*
X1000605Y1285551*
X1000991Y1269567*
X1001318Y1256004*
X1013278Y1179055*
X1026555Y1094331*
X1031863Y1060462*
X1041086Y1015748*
X1041905Y1011778*
X1055711Y1000000*
X1632087*
X1637087Y1005000*
Y1096457*
X1633819*
X1627913Y1102362D02*
G75*
G03X1633819Y1096457I5906J0D01*
G01X1627913Y1102362D02*
Y1397638D01*
X1633819Y1403543D02*
G03X1627913Y1397638I-0J-5905D01*
G01X1633819Y1403543D02*
X1637087D01*
Y1495000*
X1632087Y1500000*
X1019685*
X1000000Y1480315*
G54D63*
X1125430Y1104120D03*
X1148000Y1096500D03*
X1191890Y1117590D03*
X1204500Y1133000D03*
X1126070Y1117830D03*
X1141000Y1096500D03*
X1091500Y1129500D03*
X1103500Y1127500D03*
X1534310Y1217790D03*
X1541500Y1242500D03*
G54D64*
X1392150Y1414800D03*
X1398450D03*
X1398350Y1399700D03*
X1392050D03*
X1505820Y1415720D03*
X1499520D03*
X1499850Y1431000D03*
X1506150D03*
G54D65*
X1551661Y1257339D03*
Y1254780D03*
Y1252220D03*
Y1249661D03*
X1534339D03*
Y1252220D03*
Y1254780D03*
Y1257339D03*
X1551661Y1232339D03*
Y1229780D03*
Y1227220D03*
Y1224661D03*
X1534339D03*
Y1227220D03*
Y1229780D03*
Y1232339D03*
G54D66*
X1398000Y1249750D03*
Y1268250D03*
X1422000Y1249750D03*
Y1268250D03*
X1165500Y1249750D03*
Y1268250D03*
X1142000Y1249750D03*
Y1268250D03*
G54D67*
X1097594Y1357500D03*
X1109406D03*
G54D68*
X1462717Y1140500D03*
X1351283Y1155000D03*
X1204717Y1141500D03*
X1100783Y1161500D03*
G54D69*
X1452283Y1140500D03*
X1361717Y1155000D03*
X1194283Y1141500D03*
X1111217Y1161500D03*
G54D70*
X1096449Y1332661D03*
X1098417D03*
X1100386D03*
X1102354D03*
X1104323D03*
Y1315339D03*
X1102354D03*
X1100386D03*
X1098417D03*
X1096449D03*
X1049949Y1332661D03*
X1051917D03*
X1053886D03*
X1055854D03*
X1057823D03*
Y1315339D03*
X1055854D03*
X1053886D03*
X1051917D03*
X1049949D03*
G54D71*
X1417390Y1118657D03*
X1415421D03*
X1413453D03*
X1411484D03*
X1409516D03*
X1407547D03*
X1405579D03*
X1403610D03*
Y1138343D03*
X1405579D03*
X1407547D03*
X1409516D03*
X1411484D03*
X1413453D03*
X1415421D03*
X1417390D03*
X1160890Y1118657D03*
X1158921D03*
X1156953D03*
X1154984D03*
X1153016D03*
X1151047D03*
X1149079D03*
X1147110D03*
Y1138343D03*
X1149079D03*
X1151047D03*
X1153016D03*
X1154984D03*
X1156953D03*
X1158921D03*
X1160890D03*
G54D72*
X1400657Y1121610D03*
Y1123579D03*
Y1125547D03*
Y1127516D03*
Y1129484D03*
Y1131453D03*
Y1133421D03*
Y1135390D03*
X1420343D03*
Y1133421D03*
Y1131453D03*
Y1129484D03*
Y1127516D03*
Y1125547D03*
Y1123579D03*
Y1121610D03*
X1144157D03*
Y1123579D03*
Y1125547D03*
Y1127516D03*
Y1129484D03*
Y1131453D03*
Y1133421D03*
Y1135390D03*
X1163843D03*
Y1133421D03*
Y1131453D03*
Y1129484D03*
Y1127516D03*
Y1125547D03*
Y1123579D03*
Y1121610D03*
G54D74*
X1381650Y1135000D03*
X1375350D03*
X1381650Y1128000D03*
X1375350D03*
X1122650Y1135000D03*
X1116350D03*
X1122650Y1142000D03*
X1116350D03*
X1439953Y1159727D03*
X1433654D03*
X1242150Y1292000D03*
X1235850D03*
G54D75*
X1440740Y1152000D03*
X1433260D03*
X1374260Y1162500D03*
X1381740D03*
X1182740Y1151000D03*
X1175260D03*
X1124760Y1163500D03*
X1132240D03*
X1079760Y1357500D03*
X1087240D03*
X1079760Y1348000D03*
X1087240D03*
G54D76*
X1243121Y1320323D03*
X1241153D03*
X1239184D03*
X1237216D03*
X1235247D03*
X1233279D03*
Y1335677D03*
X1235247D03*
X1237216D03*
X1239184D03*
X1241153D03*
X1243121D03*
X1205421Y1320323D03*
X1203453D03*
X1201484D03*
X1199516D03*
X1197547D03*
X1195579D03*
Y1335677D03*
X1197547D03*
X1199516D03*
X1201484D03*
X1203453D03*
X1205421D03*
G54D77*
X1230523Y1323079D03*
Y1325047D03*
Y1327016D03*
Y1328984D03*
Y1330953D03*
Y1332921D03*
X1245877D03*
Y1330953D03*
Y1328984D03*
Y1327016D03*
Y1325047D03*
Y1323079D03*
X1192823D03*
Y1325047D03*
Y1327016D03*
Y1328984D03*
Y1330953D03*
Y1332921D03*
X1208177D03*
Y1330953D03*
Y1328984D03*
Y1327016D03*
Y1325047D03*
Y1323079D03*
G54D79*
X1028900Y1421500D03*
Y1437000D03*
G54D80*
X1083583Y1373972D03*
X1085354D03*
X1087126D03*
X1088898D03*
Y1366689D03*
X1087126D03*
X1085354D03*
X1083583D03*
G54D81*
X1086201Y1370331D03*
G54D82*
X1213000Y1291807D03*
Y1305193D03*
X1226500Y1291807D03*
Y1305193D03*
G54D83*
X1249350Y1292000D03*
X1255650D03*
G54D127*
X1410500Y1128500D03*
X1154000D03*
G54D128*
X1241192Y1330992D02*
Y1325008D01*
X1235208*
Y1330992*
X1241192*
X1235208Y1325008D02*
Y1330992D01*
X1235228Y1325008D02*
Y1330992D01*
X1235247Y1325008D02*
Y1330992D01*
X1235267Y1325008D02*
Y1330992D01*
X1235287Y1325008D02*
Y1330992D01*
X1235306Y1325008D02*
Y1330992D01*
X1235326Y1325008D02*
Y1330992D01*
X1235346Y1325008D02*
Y1330992D01*
X1235365Y1325008D02*
Y1330992D01*
X1235385Y1325008D02*
Y1330992D01*
X1235405Y1325008D02*
Y1330992D01*
X1235424Y1325008D02*
Y1330992D01*
X1235444Y1325008D02*
Y1330992D01*
X1235464Y1325008D02*
Y1330992D01*
X1235483Y1325008D02*
Y1330992D01*
X1235503Y1325008D02*
Y1330992D01*
X1235523Y1325008D02*
Y1330992D01*
X1235543Y1325008D02*
Y1330992D01*
X1235562Y1325008D02*
Y1330992D01*
X1235582Y1325008D02*
Y1330992D01*
X1235602Y1325008D02*
Y1330992D01*
X1235621Y1325008D02*
Y1330992D01*
X1235641Y1325008D02*
Y1330992D01*
X1235661Y1325008D02*
Y1330992D01*
X1235680Y1325008D02*
Y1330992D01*
X1235700Y1325008D02*
Y1330992D01*
X1235720Y1325008D02*
Y1330992D01*
X1235739Y1325008D02*
Y1330992D01*
X1235759Y1325008D02*
Y1330992D01*
X1235779Y1325008D02*
Y1330992D01*
X1235798Y1325008D02*
Y1330992D01*
X1235818Y1325008D02*
Y1330992D01*
X1235838Y1325008D02*
Y1330992D01*
X1235857Y1325008D02*
Y1330992D01*
X1235877Y1325008D02*
Y1330992D01*
X1235897Y1325008D02*
Y1330992D01*
X1235917Y1325008D02*
Y1330992D01*
X1235936Y1325008D02*
Y1330992D01*
X1235956Y1325008D02*
Y1330992D01*
X1235976Y1325008D02*
Y1330992D01*
X1235995Y1325008D02*
Y1330992D01*
X1236015Y1325008D02*
Y1330992D01*
X1236035Y1325008D02*
Y1330992D01*
X1236054Y1325008D02*
Y1330992D01*
X1236074Y1325008D02*
Y1330992D01*
X1236094Y1325008D02*
Y1330992D01*
X1236113Y1325008D02*
Y1330992D01*
X1236133Y1325008D02*
Y1330992D01*
X1236153Y1325008D02*
Y1330992D01*
X1236172Y1325008D02*
Y1330992D01*
X1236192Y1325008D02*
Y1330992D01*
X1236212Y1325008D02*
Y1330992D01*
X1236231Y1325008D02*
Y1330992D01*
X1236251Y1325008D02*
Y1330992D01*
X1236271Y1325008D02*
Y1330992D01*
X1236291Y1325008D02*
Y1330992D01*
X1236310Y1325008D02*
Y1330992D01*
X1236330Y1325008D02*
Y1330992D01*
X1236350Y1325008D02*
Y1330992D01*
X1236369Y1325008D02*
Y1330992D01*
X1236389Y1325008D02*
Y1330992D01*
X1236409Y1325008D02*
Y1330992D01*
X1236428Y1325008D02*
Y1330992D01*
X1236448Y1325008D02*
Y1330992D01*
X1236468Y1325008D02*
Y1330992D01*
X1236487Y1325008D02*
Y1330992D01*
X1236507Y1325008D02*
Y1330992D01*
X1236527Y1325008D02*
Y1330992D01*
X1236546Y1325008D02*
Y1330992D01*
X1236566Y1325008D02*
Y1330992D01*
X1236586Y1325008D02*
Y1330992D01*
X1236606Y1325008D02*
Y1330992D01*
X1236625Y1325008D02*
Y1330992D01*
X1236645Y1325008D02*
Y1330992D01*
X1236665Y1325008D02*
Y1330992D01*
X1236684Y1325008D02*
Y1330992D01*
X1236704Y1325008D02*
Y1330992D01*
X1236724Y1325008D02*
Y1330992D01*
X1236743Y1325008D02*
Y1330992D01*
X1236763Y1325008D02*
Y1330992D01*
X1236783Y1325008D02*
Y1330992D01*
X1236802Y1325008D02*
Y1330992D01*
X1236822Y1325008D02*
Y1330992D01*
X1236842Y1325008D02*
Y1330992D01*
X1236861Y1325008D02*
Y1330992D01*
X1236881Y1325008D02*
Y1330992D01*
X1236901Y1325008D02*
Y1330992D01*
X1236920Y1325008D02*
Y1330992D01*
X1236940Y1325008D02*
Y1330992D01*
X1236960Y1325008D02*
Y1330992D01*
X1236980Y1325008D02*
Y1330992D01*
X1236999Y1325008D02*
Y1330992D01*
X1237019Y1325008D02*
Y1330992D01*
X1237039Y1325008D02*
Y1330992D01*
X1237058Y1325008D02*
Y1330992D01*
X1237078Y1325008D02*
Y1330992D01*
X1237098Y1325008D02*
Y1330992D01*
X1237117Y1325008D02*
Y1330992D01*
X1237137Y1325008D02*
Y1330992D01*
X1237157Y1325008D02*
Y1330992D01*
X1237176Y1325008D02*
Y1330992D01*
X1237196Y1325008D02*
Y1330992D01*
X1237216Y1325008D02*
Y1330992D01*
X1237235Y1325008D02*
Y1330992D01*
X1237255Y1325008D02*
Y1330992D01*
X1237275Y1325008D02*
Y1330992D01*
X1237294Y1325008D02*
Y1330992D01*
X1237314Y1325008D02*
Y1330992D01*
X1237334Y1325008D02*
Y1330992D01*
X1237354Y1325008D02*
Y1330992D01*
X1237373Y1325008D02*
Y1330992D01*
X1237393Y1325008D02*
Y1330992D01*
X1237413Y1325008D02*
Y1330992D01*
X1237432Y1325008D02*
Y1330992D01*
X1237452Y1325008D02*
Y1330992D01*
X1237472Y1325008D02*
Y1330992D01*
X1237491Y1325008D02*
Y1330992D01*
X1237511Y1325008D02*
Y1330992D01*
X1237531Y1325008D02*
Y1330992D01*
X1237550Y1325008D02*
Y1330992D01*
X1237570Y1325008D02*
Y1330992D01*
X1237590Y1325008D02*
Y1330992D01*
X1237609Y1325008D02*
Y1330992D01*
X1237629Y1325008D02*
Y1330992D01*
X1237649Y1325008D02*
Y1330992D01*
X1237669Y1325008D02*
Y1330992D01*
X1237688Y1325008D02*
Y1330992D01*
X1237708Y1325008D02*
Y1330992D01*
X1237728Y1325008D02*
Y1330992D01*
X1237747Y1325008D02*
Y1330992D01*
X1237767Y1325008D02*
Y1330992D01*
X1237787Y1325008D02*
Y1330992D01*
X1237806Y1325008D02*
Y1330992D01*
X1237826Y1325008D02*
Y1330992D01*
X1237846Y1325008D02*
Y1330992D01*
X1237865Y1325008D02*
Y1330992D01*
X1237885Y1325008D02*
Y1330992D01*
X1237905Y1325008D02*
Y1330992D01*
X1237924Y1325008D02*
Y1330992D01*
X1237944Y1325008D02*
Y1330992D01*
X1237964Y1325008D02*
Y1330992D01*
X1237983Y1325008D02*
Y1330992D01*
X1238003Y1325008D02*
Y1330992D01*
X1238023Y1325008D02*
Y1330992D01*
X1238043Y1325008D02*
Y1330992D01*
X1238062Y1325008D02*
Y1330992D01*
X1238082Y1325008D02*
Y1330992D01*
X1238102Y1325008D02*
Y1330992D01*
X1238121Y1325008D02*
Y1330992D01*
X1238141Y1325008D02*
Y1330992D01*
X1238161Y1325008D02*
Y1330992D01*
X1238180Y1325008D02*
Y1330992D01*
X1238200Y1325008D02*
Y1330992D01*
X1238220Y1325008D02*
Y1330992D01*
X1238239Y1325008D02*
Y1330992D01*
X1238259Y1325008D02*
Y1330992D01*
X1238279Y1325008D02*
Y1330992D01*
X1238298Y1325008D02*
Y1330992D01*
X1238318Y1325008D02*
Y1330992D01*
X1238338Y1325008D02*
Y1330992D01*
X1238357Y1325008D02*
Y1330992D01*
X1238377Y1325008D02*
Y1330992D01*
X1238397Y1325008D02*
Y1330992D01*
X1238417Y1325008D02*
Y1330992D01*
X1238436Y1325008D02*
Y1330992D01*
X1238456Y1325008D02*
Y1330992D01*
X1238476Y1325008D02*
Y1330992D01*
X1238495Y1325008D02*
Y1330992D01*
X1238515Y1325008D02*
Y1330992D01*
X1238535Y1325008D02*
Y1330992D01*
X1238554Y1325008D02*
Y1330992D01*
X1238574Y1325008D02*
Y1330992D01*
X1238594Y1325008D02*
Y1330992D01*
X1238613Y1325008D02*
Y1330992D01*
X1238633Y1325008D02*
Y1330992D01*
X1238653Y1325008D02*
Y1330992D01*
X1238672Y1325008D02*
Y1330992D01*
X1238692Y1325008D02*
Y1330992D01*
X1238712Y1325008D02*
Y1330992D01*
X1238731Y1325008D02*
Y1330992D01*
X1238751Y1325008D02*
Y1330992D01*
X1238771Y1325008D02*
Y1330992D01*
X1238791Y1325008D02*
Y1330992D01*
X1238810Y1325008D02*
Y1330992D01*
X1238830Y1325008D02*
Y1330992D01*
X1238850Y1325008D02*
Y1330992D01*
X1238869Y1325008D02*
Y1330992D01*
X1238889Y1325008D02*
Y1330992D01*
X1238909Y1325008D02*
Y1330992D01*
X1238928Y1325008D02*
Y1330992D01*
X1238948Y1325008D02*
Y1330992D01*
X1238968Y1325008D02*
Y1330992D01*
X1238987Y1325008D02*
Y1330992D01*
X1239007Y1325008D02*
Y1330992D01*
X1239027Y1325008D02*
Y1330992D01*
X1239046Y1325008D02*
Y1330992D01*
X1239066Y1325008D02*
Y1330992D01*
X1239086Y1325008D02*
Y1330992D01*
X1239106Y1325008D02*
Y1330992D01*
X1239125Y1325008D02*
Y1330992D01*
X1239145Y1325008D02*
Y1330992D01*
X1239165Y1325008D02*
Y1330992D01*
X1239184Y1325008D02*
Y1330992D01*
X1239204Y1325008D02*
Y1330992D01*
X1239224Y1325008D02*
Y1330992D01*
X1239243Y1325008D02*
Y1330992D01*
X1239263Y1325008D02*
Y1330992D01*
X1239283Y1325008D02*
Y1330992D01*
X1239302Y1325008D02*
Y1330992D01*
X1239322Y1325008D02*
Y1330992D01*
X1239342Y1325008D02*
Y1330992D01*
X1239361Y1325008D02*
Y1330992D01*
X1239381Y1325008D02*
Y1330992D01*
X1239401Y1325008D02*
Y1330992D01*
X1239420Y1325008D02*
Y1330992D01*
X1239440Y1325008D02*
Y1330992D01*
X1239460Y1325008D02*
Y1330992D01*
X1239480Y1325008D02*
Y1330992D01*
X1239499Y1325008D02*
Y1330992D01*
X1239519Y1325008D02*
Y1330992D01*
X1239539Y1325008D02*
Y1330992D01*
X1239558Y1325008D02*
Y1330992D01*
X1239578Y1325008D02*
Y1330992D01*
X1239598Y1325008D02*
Y1330992D01*
X1239617Y1325008D02*
Y1330992D01*
X1239637Y1325008D02*
Y1330992D01*
X1239657Y1325008D02*
Y1330992D01*
X1239676Y1325008D02*
Y1330992D01*
X1239696Y1325008D02*
Y1330992D01*
X1239716Y1325008D02*
Y1330992D01*
X1239735Y1325008D02*
Y1330992D01*
X1239755Y1325008D02*
Y1330992D01*
X1239775Y1325008D02*
Y1330992D01*
X1239794Y1325008D02*
Y1330992D01*
X1239814Y1325008D02*
Y1330992D01*
X1239834Y1325008D02*
Y1330992D01*
X1239854Y1325008D02*
Y1330992D01*
X1239873Y1325008D02*
Y1330992D01*
X1239893Y1325008D02*
Y1330992D01*
X1239913Y1325008D02*
Y1330992D01*
X1239932Y1325008D02*
Y1330992D01*
X1239952Y1325008D02*
Y1330992D01*
X1239972Y1325008D02*
Y1330992D01*
X1239991Y1325008D02*
Y1330992D01*
X1240011Y1325008D02*
Y1330992D01*
X1240031Y1325008D02*
Y1330992D01*
X1240050Y1325008D02*
Y1330992D01*
X1240070Y1325008D02*
Y1330992D01*
X1240090Y1325008D02*
Y1330992D01*
X1240109Y1325008D02*
Y1330992D01*
X1240129Y1325008D02*
Y1330992D01*
X1240149Y1325008D02*
Y1330992D01*
X1240169Y1325008D02*
Y1330992D01*
X1240188Y1325008D02*
Y1330992D01*
X1240208Y1325008D02*
Y1330992D01*
X1240228Y1325008D02*
Y1330992D01*
X1240247Y1325008D02*
Y1330992D01*
X1240267Y1325008D02*
Y1330992D01*
X1240287Y1325008D02*
Y1330992D01*
X1240306Y1325008D02*
Y1330992D01*
X1240326Y1325008D02*
Y1330992D01*
X1240346Y1325008D02*
Y1330992D01*
X1240365Y1325008D02*
Y1330992D01*
X1240385Y1325008D02*
Y1330992D01*
X1240405Y1325008D02*
Y1330992D01*
X1240424Y1325008D02*
Y1330992D01*
X1240444Y1325008D02*
Y1330992D01*
X1240464Y1325008D02*
Y1330992D01*
X1240483Y1325008D02*
Y1330992D01*
X1240503Y1325008D02*
Y1330992D01*
X1240523Y1325008D02*
Y1330992D01*
X1240543Y1325008D02*
Y1330992D01*
X1240562Y1325008D02*
Y1330992D01*
X1240582Y1325008D02*
Y1330992D01*
X1240602Y1325008D02*
Y1330992D01*
X1240621Y1325008D02*
Y1330992D01*
X1240641Y1325008D02*
Y1330992D01*
X1240661Y1325008D02*
Y1330992D01*
X1240680Y1325008D02*
Y1330992D01*
X1240700Y1325008D02*
Y1330992D01*
X1240720Y1325008D02*
Y1330992D01*
X1240739Y1325008D02*
Y1330992D01*
X1240759Y1325008D02*
Y1330992D01*
X1240779Y1325008D02*
Y1330992D01*
X1240798Y1325008D02*
Y1330992D01*
X1240818Y1325008D02*
Y1330992D01*
X1240838Y1325008D02*
Y1330992D01*
X1240857Y1325008D02*
Y1330992D01*
X1240877Y1325008D02*
Y1330992D01*
X1240897Y1325008D02*
Y1330992D01*
X1240917Y1325008D02*
Y1330992D01*
X1240936Y1325008D02*
Y1330992D01*
X1240956Y1325008D02*
Y1330992D01*
X1240976Y1325008D02*
Y1330992D01*
X1240995Y1325008D02*
Y1330992D01*
X1241015Y1325008D02*
Y1330992D01*
X1241035Y1325008D02*
Y1330992D01*
X1241054Y1325008D02*
Y1330992D01*
X1241074Y1325008D02*
Y1330992D01*
X1241094Y1325008D02*
Y1330992D01*
X1241113Y1325008D02*
Y1330992D01*
X1241133Y1325008D02*
Y1330992D01*
X1241153Y1325008D02*
Y1330992D01*
X1241172Y1325008D02*
Y1330992D01*
X1203492D02*
Y1325008D01*
X1197508*
Y1330992*
X1203492*
X1197508Y1325008D02*
Y1330992D01*
X1197528Y1325008D02*
Y1330992D01*
X1197547Y1325008D02*
Y1330992D01*
X1197567Y1325008D02*
Y1330992D01*
X1197587Y1325008D02*
Y1330992D01*
X1197606Y1325008D02*
Y1330992D01*
X1197626Y1325008D02*
Y1330992D01*
X1197646Y1325008D02*
Y1330992D01*
X1197665Y1325008D02*
Y1330992D01*
X1197685Y1325008D02*
Y1330992D01*
X1197705Y1325008D02*
Y1330992D01*
X1197724Y1325008D02*
Y1330992D01*
X1197744Y1325008D02*
Y1330992D01*
X1197764Y1325008D02*
Y1330992D01*
X1197783Y1325008D02*
Y1330992D01*
X1197803Y1325008D02*
Y1330992D01*
X1197823Y1325008D02*
Y1330992D01*
X1197843Y1325008D02*
Y1330992D01*
X1197862Y1325008D02*
Y1330992D01*
X1197882Y1325008D02*
Y1330992D01*
X1197902Y1325008D02*
Y1330992D01*
X1197921Y1325008D02*
Y1330992D01*
X1197941Y1325008D02*
Y1330992D01*
X1197961Y1325008D02*
Y1330992D01*
X1197980Y1325008D02*
Y1330992D01*
X1198000Y1325008D02*
Y1330992D01*
X1198020Y1325008D02*
Y1330992D01*
X1198039Y1325008D02*
Y1330992D01*
X1198059Y1325008D02*
Y1330992D01*
X1198079Y1325008D02*
Y1330992D01*
X1198098Y1325008D02*
Y1330992D01*
X1198118Y1325008D02*
Y1330992D01*
X1198138Y1325008D02*
Y1330992D01*
X1198157Y1325008D02*
Y1330992D01*
X1198177Y1325008D02*
Y1330992D01*
X1198197Y1325008D02*
Y1330992D01*
X1198217Y1325008D02*
Y1330992D01*
X1198236Y1325008D02*
Y1330992D01*
X1198256Y1325008D02*
Y1330992D01*
X1198276Y1325008D02*
Y1330992D01*
X1198295Y1325008D02*
Y1330992D01*
X1198315Y1325008D02*
Y1330992D01*
X1198335Y1325008D02*
Y1330992D01*
X1198354Y1325008D02*
Y1330992D01*
X1198374Y1325008D02*
Y1330992D01*
X1198394Y1325008D02*
Y1330992D01*
X1198413Y1325008D02*
Y1330992D01*
X1198433Y1325008D02*
Y1330992D01*
X1198453Y1325008D02*
Y1330992D01*
X1198472Y1325008D02*
Y1330992D01*
X1198492Y1325008D02*
Y1330992D01*
X1198512Y1325008D02*
Y1330992D01*
X1198531Y1325008D02*
Y1330992D01*
X1198551Y1325008D02*
Y1330992D01*
X1198571Y1325008D02*
Y1330992D01*
X1198591Y1325008D02*
Y1330992D01*
X1198610Y1325008D02*
Y1330992D01*
X1198630Y1325008D02*
Y1330992D01*
X1198650Y1325008D02*
Y1330992D01*
X1198669Y1325008D02*
Y1330992D01*
X1198689Y1325008D02*
Y1330992D01*
X1198709Y1325008D02*
Y1330992D01*
X1198728Y1325008D02*
Y1330992D01*
X1198748Y1325008D02*
Y1330992D01*
X1198768Y1325008D02*
Y1330992D01*
X1198787Y1325008D02*
Y1330992D01*
X1198807Y1325008D02*
Y1330992D01*
X1198827Y1325008D02*
Y1330992D01*
X1198846Y1325008D02*
Y1330992D01*
X1198866Y1325008D02*
Y1330992D01*
X1198886Y1325008D02*
Y1330992D01*
X1198906Y1325008D02*
Y1330992D01*
X1198925Y1325008D02*
Y1330992D01*
X1198945Y1325008D02*
Y1330992D01*
X1198965Y1325008D02*
Y1330992D01*
X1198984Y1325008D02*
Y1330992D01*
X1199004Y1325008D02*
Y1330992D01*
X1199024Y1325008D02*
Y1330992D01*
X1199043Y1325008D02*
Y1330992D01*
X1199063Y1325008D02*
Y1330992D01*
X1199083Y1325008D02*
Y1330992D01*
X1199102Y1325008D02*
Y1330992D01*
X1199122Y1325008D02*
Y1330992D01*
X1199142Y1325008D02*
Y1330992D01*
X1199161Y1325008D02*
Y1330992D01*
X1199181Y1325008D02*
Y1330992D01*
X1199201Y1325008D02*
Y1330992D01*
X1199220Y1325008D02*
Y1330992D01*
X1199240Y1325008D02*
Y1330992D01*
X1199260Y1325008D02*
Y1330992D01*
X1199280Y1325008D02*
Y1330992D01*
X1199299Y1325008D02*
Y1330992D01*
X1199319Y1325008D02*
Y1330992D01*
X1199339Y1325008D02*
Y1330992D01*
X1199358Y1325008D02*
Y1330992D01*
X1199378Y1325008D02*
Y1330992D01*
X1199398Y1325008D02*
Y1330992D01*
X1199417Y1325008D02*
Y1330992D01*
X1199437Y1325008D02*
Y1330992D01*
X1199457Y1325008D02*
Y1330992D01*
X1199476Y1325008D02*
Y1330992D01*
X1199496Y1325008D02*
Y1330992D01*
X1199516Y1325008D02*
Y1330992D01*
X1199535Y1325008D02*
Y1330992D01*
X1199555Y1325008D02*
Y1330992D01*
X1199575Y1325008D02*
Y1330992D01*
X1199594Y1325008D02*
Y1330992D01*
X1199614Y1325008D02*
Y1330992D01*
X1199634Y1325008D02*
Y1330992D01*
X1199654Y1325008D02*
Y1330992D01*
X1199673Y1325008D02*
Y1330992D01*
X1199693Y1325008D02*
Y1330992D01*
X1199713Y1325008D02*
Y1330992D01*
X1199732Y1325008D02*
Y1330992D01*
X1199752Y1325008D02*
Y1330992D01*
X1199772Y1325008D02*
Y1330992D01*
X1199791Y1325008D02*
Y1330992D01*
X1199811Y1325008D02*
Y1330992D01*
X1199831Y1325008D02*
Y1330992D01*
X1199850Y1325008D02*
Y1330992D01*
X1199870Y1325008D02*
Y1330992D01*
X1199890Y1325008D02*
Y1330992D01*
X1199909Y1325008D02*
Y1330992D01*
X1199929Y1325008D02*
Y1330992D01*
X1199949Y1325008D02*
Y1330992D01*
X1199969Y1325008D02*
Y1330992D01*
X1199988Y1325008D02*
Y1330992D01*
X1200008Y1325008D02*
Y1330992D01*
X1200028Y1325008D02*
Y1330992D01*
X1200047Y1325008D02*
Y1330992D01*
X1200067Y1325008D02*
Y1330992D01*
X1200087Y1325008D02*
Y1330992D01*
X1200106Y1325008D02*
Y1330992D01*
X1200126Y1325008D02*
Y1330992D01*
X1200146Y1325008D02*
Y1330992D01*
X1200165Y1325008D02*
Y1330992D01*
X1200185Y1325008D02*
Y1330992D01*
X1200205Y1325008D02*
Y1330992D01*
X1200224Y1325008D02*
Y1330992D01*
X1200244Y1325008D02*
Y1330992D01*
X1200264Y1325008D02*
Y1330992D01*
X1200283Y1325008D02*
Y1330992D01*
X1200303Y1325008D02*
Y1330992D01*
X1200323Y1325008D02*
Y1330992D01*
X1200343Y1325008D02*
Y1330992D01*
X1200362Y1325008D02*
Y1330992D01*
X1200382Y1325008D02*
Y1330992D01*
X1200402Y1325008D02*
Y1330992D01*
X1200421Y1325008D02*
Y1330992D01*
X1200441Y1325008D02*
Y1330992D01*
X1200461Y1325008D02*
Y1330992D01*
X1200480Y1325008D02*
Y1330992D01*
X1200500Y1325008D02*
Y1330992D01*
X1200520Y1325008D02*
Y1330992D01*
X1200539Y1325008D02*
Y1330992D01*
X1200559Y1325008D02*
Y1330992D01*
X1200579Y1325008D02*
Y1330992D01*
X1200598Y1325008D02*
Y1330992D01*
X1200618Y1325008D02*
Y1330992D01*
X1200638Y1325008D02*
Y1330992D01*
X1200657Y1325008D02*
Y1330992D01*
X1200677Y1325008D02*
Y1330992D01*
X1200697Y1325008D02*
Y1330992D01*
X1200717Y1325008D02*
Y1330992D01*
X1200736Y1325008D02*
Y1330992D01*
X1200756Y1325008D02*
Y1330992D01*
X1200776Y1325008D02*
Y1330992D01*
X1200795Y1325008D02*
Y1330992D01*
X1200815Y1325008D02*
Y1330992D01*
X1200835Y1325008D02*
Y1330992D01*
X1200854Y1325008D02*
Y1330992D01*
X1200874Y1325008D02*
Y1330992D01*
X1200894Y1325008D02*
Y1330992D01*
X1200913Y1325008D02*
Y1330992D01*
X1200933Y1325008D02*
Y1330992D01*
X1200953Y1325008D02*
Y1330992D01*
X1200972Y1325008D02*
Y1330992D01*
X1200992Y1325008D02*
Y1330992D01*
X1201012Y1325008D02*
Y1330992D01*
X1201031Y1325008D02*
Y1330992D01*
X1201051Y1325008D02*
Y1330992D01*
X1201071Y1325008D02*
Y1330992D01*
X1201091Y1325008D02*
Y1330992D01*
X1201110Y1325008D02*
Y1330992D01*
X1201130Y1325008D02*
Y1330992D01*
X1201150Y1325008D02*
Y1330992D01*
X1201169Y1325008D02*
Y1330992D01*
X1201189Y1325008D02*
Y1330992D01*
X1201209Y1325008D02*
Y1330992D01*
X1201228Y1325008D02*
Y1330992D01*
X1201248Y1325008D02*
Y1330992D01*
X1201268Y1325008D02*
Y1330992D01*
X1201287Y1325008D02*
Y1330992D01*
X1201307Y1325008D02*
Y1330992D01*
X1201327Y1325008D02*
Y1330992D01*
X1201346Y1325008D02*
Y1330992D01*
X1201366Y1325008D02*
Y1330992D01*
X1201386Y1325008D02*
Y1330992D01*
X1201406Y1325008D02*
Y1330992D01*
X1201425Y1325008D02*
Y1330992D01*
X1201445Y1325008D02*
Y1330992D01*
X1201465Y1325008D02*
Y1330992D01*
X1201484Y1325008D02*
Y1330992D01*
X1201504Y1325008D02*
Y1330992D01*
X1201524Y1325008D02*
Y1330992D01*
X1201543Y1325008D02*
Y1330992D01*
X1201563Y1325008D02*
Y1330992D01*
X1201583Y1325008D02*
Y1330992D01*
X1201602Y1325008D02*
Y1330992D01*
X1201622Y1325008D02*
Y1330992D01*
X1201642Y1325008D02*
Y1330992D01*
X1201661Y1325008D02*
Y1330992D01*
X1201681Y1325008D02*
Y1330992D01*
X1201701Y1325008D02*
Y1330992D01*
X1201720Y1325008D02*
Y1330992D01*
X1201740Y1325008D02*
Y1330992D01*
X1201760Y1325008D02*
Y1330992D01*
X1201780Y1325008D02*
Y1330992D01*
X1201799Y1325008D02*
Y1330992D01*
X1201819Y1325008D02*
Y1330992D01*
X1201839Y1325008D02*
Y1330992D01*
X1201858Y1325008D02*
Y1330992D01*
X1201878Y1325008D02*
Y1330992D01*
X1201898Y1325008D02*
Y1330992D01*
X1201917Y1325008D02*
Y1330992D01*
X1201937Y1325008D02*
Y1330992D01*
X1201957Y1325008D02*
Y1330992D01*
X1201976Y1325008D02*
Y1330992D01*
X1201996Y1325008D02*
Y1330992D01*
X1202016Y1325008D02*
Y1330992D01*
X1202035Y1325008D02*
Y1330992D01*
X1202055Y1325008D02*
Y1330992D01*
X1202075Y1325008D02*
Y1330992D01*
X1202094Y1325008D02*
Y1330992D01*
X1202114Y1325008D02*
Y1330992D01*
X1202134Y1325008D02*
Y1330992D01*
X1202154Y1325008D02*
Y1330992D01*
X1202173Y1325008D02*
Y1330992D01*
X1202193Y1325008D02*
Y1330992D01*
X1202213Y1325008D02*
Y1330992D01*
X1202232Y1325008D02*
Y1330992D01*
X1202252Y1325008D02*
Y1330992D01*
X1202272Y1325008D02*
Y1330992D01*
X1202291Y1325008D02*
Y1330992D01*
X1202311Y1325008D02*
Y1330992D01*
X1202331Y1325008D02*
Y1330992D01*
X1202350Y1325008D02*
Y1330992D01*
X1202370Y1325008D02*
Y1330992D01*
X1202390Y1325008D02*
Y1330992D01*
X1202409Y1325008D02*
Y1330992D01*
X1202429Y1325008D02*
Y1330992D01*
X1202449Y1325008D02*
Y1330992D01*
X1202469Y1325008D02*
Y1330992D01*
X1202488Y1325008D02*
Y1330992D01*
X1202508Y1325008D02*
Y1330992D01*
X1202528Y1325008D02*
Y1330992D01*
X1202547Y1325008D02*
Y1330992D01*
X1202567Y1325008D02*
Y1330992D01*
X1202587Y1325008D02*
Y1330992D01*
X1202606Y1325008D02*
Y1330992D01*
X1202626Y1325008D02*
Y1330992D01*
X1202646Y1325008D02*
Y1330992D01*
X1202665Y1325008D02*
Y1330992D01*
X1202685Y1325008D02*
Y1330992D01*
X1202705Y1325008D02*
Y1330992D01*
X1202724Y1325008D02*
Y1330992D01*
X1202744Y1325008D02*
Y1330992D01*
X1202764Y1325008D02*
Y1330992D01*
X1202783Y1325008D02*
Y1330992D01*
X1202803Y1325008D02*
Y1330992D01*
X1202823Y1325008D02*
Y1330992D01*
X1202843Y1325008D02*
Y1330992D01*
X1202862Y1325008D02*
Y1330992D01*
X1202882Y1325008D02*
Y1330992D01*
X1202902Y1325008D02*
Y1330992D01*
X1202921Y1325008D02*
Y1330992D01*
X1202941Y1325008D02*
Y1330992D01*
X1202961Y1325008D02*
Y1330992D01*
X1202980Y1325008D02*
Y1330992D01*
X1203000Y1325008D02*
Y1330992D01*
X1203020Y1325008D02*
Y1330992D01*
X1203039Y1325008D02*
Y1330992D01*
X1203059Y1325008D02*
Y1330992D01*
X1203079Y1325008D02*
Y1330992D01*
X1203098Y1325008D02*
Y1330992D01*
X1203118Y1325008D02*
Y1330992D01*
X1203138Y1325008D02*
Y1330992D01*
X1203157Y1325008D02*
Y1330992D01*
X1203177Y1325008D02*
Y1330992D01*
X1203197Y1325008D02*
Y1330992D01*
X1203217Y1325008D02*
Y1330992D01*
X1203236Y1325008D02*
Y1330992D01*
X1203256Y1325008D02*
Y1330992D01*
X1203276Y1325008D02*
Y1330992D01*
X1203295Y1325008D02*
Y1330992D01*
X1203315Y1325008D02*
Y1330992D01*
X1203335Y1325008D02*
Y1330992D01*
X1203354Y1325008D02*
Y1330992D01*
X1203374Y1325008D02*
Y1330992D01*
X1203394Y1325008D02*
Y1330992D01*
X1203413Y1325008D02*
Y1330992D01*
X1203433Y1325008D02*
Y1330992D01*
X1203453Y1325008D02*
Y1330992D01*
X1203472Y1325008D02*
Y1330992D01*
G54D161*
X1216224Y1219500D03*
X1091276Y1217500D03*
X1472724Y1219500D03*
X1347276D03*
G54D162*
X1065000Y1241224D03*
X1242000Y1242224D03*
X1498500Y1241224D03*
X1320500D03*
G74*
X0Y0D02*
M02*
