  0
SECTION
  2
HEADER
  9
$ACADVER
  1
AC1004
  9
$INSBASE
 10
0.0
 20
0.0
  9
$EXTMIN
 10
0.0
 20
0.0
  9
$EXTMAX
 10
32.767
 20
32.767
  9
$LIMMIN
 10
0.0
 20
0.0
  9
$LIMMAX
 10
32.767
 20
32.767
  9
$SNAPMODE
 70
     1
  9
$SNAPUNIT
 10
0.001
 20
0.001
  9
$SNAPBASE
 10
0.0
 20
0.0
  9
$SNAPANG
 50
0.0
  9
$SNAPSTYLE
 70
     0
  9
$SNAPISOPAIR
 70
     1
  9
$GRIDMODE
 70
     0
  9
$GRIDUNIT
 10
0.0
 20
0.0
  9
$ORTHOMODE
 70
     0
  9
$REGENMODE
 70
     1
  9
$FILLMODE
 70
     1
  9
$QTEXTMODE
 70
     0
  9
$DRAGMODE
 70
     2
  9
$LTSCALE
 40
25.0
  9
$OSMODE
 70
     0
  9
$ATTMODE
 70
     1
  9
$TEXTSIZE
 40
3.0
  9
$TRACEWID
 40
10.0
  9
$TEXTSTYLE
  7
STANDARD
  9
$CLAYER
  8
0
  9
$CELTYPE
  6
BYBLOCK
  9
$CECOLOR
 62
     0
  9
$DIMSCALE
 40
1.0
  9
$DIMASZ
 40
3.0
  9
$DIMEXO
 40
2.5
  9
$DIMDLI
 40
10.0
  9
$DIMRND
 40
0.0
  9
$DIMDLE
 40
1.25
  9
$DIMEXE
 40
2.5
  9
$DIMTP
 40
0.0
  9
$DIMTM
 40
0.0
  9
$DIMTXT
 40
3.0
  9
$DIMCEN
 40
-3.0
  9
$DIMTSZ
 40
0.0
  9
$DIMTOL
 70
     0
  9
$DIMLIM
 70
     0
  9
$DIMTIH
 70
     0
  9
$DIMTOH
 70
     0
  9
$DIMSE1
 70
     0
  9
$DIMSE2
 70
     0
  9
$DIMTAD
 70
     1
  9
$DIMZIN
 70
     1
  9
$DIMBLK
  1

  9
$DIMASO
 70
     1
  9
$DIMSHO
 70
     0
  9
$DIMPOST
  1

  9
$DIMAPOST
  1

  9
$DIMALT
 70
     0
  9
$DIMALTD
 70
     2
  9
$DIMALTF
 40
0.03937
  9
$DIMLFAC
 40
1.0
  9
$LUNITS
 70
     2
  9
$LUPREC
 70
     3
  9
$AXISMODE
 70
     0
  9
$AXISUNIT
 10
0.0
 20
0.0
  9
$SKETCHINC
 40
1.0
  9
$FILLETRAD
 40
0.0
  9
$AUNITS
 70
     0
  9
$AUPREC
 70
     4
  9
$MENU
  1
acad
  9
$ELEVATION
 40
0.0
  9
$THICKNESS
 40
0.0
  9
$VIEWDIR
 10
0.0
 20
0.0
 30
1.0
  9
$LIMCHECK
 70
     0
  9
$BLIPMODE
 70
     1
  9
$CHAMFERA
 40
0.0
  9
$CHAMFERB
 40
0.0
  9
$FASTZOOM
 70
     1
  9
$SKPOLY
 70
     1
  9
$TDCREATE
 40
2447273.4679753473
  9
$TDUPDATE
 40
2447273.4679753473
  9
$TDINDWG
 40
0.0000000000
  9
$TDUSRTIMER
 40
0.0000000000
  9
$USRTIMER
 70
     1
  9
$ANGBASE
 50
0.0
  9
$ANGDIR
 70
     0
  9
$PDMODE
 70
     0
  9
$PDSIZE
 40
0.0
  9
$PLINEWID
 40
0.0
  9
$COORDS
 70
     2
  9
$SPLFRAME
 70
     0
  9
$SPLINESEGS
 70
     8
  9
$ATTDIA
 70
     0
  9
$ATTREQ
 70
     1
  9
$USERI1
 70
     0
  9
$USERI2
 70
     1
  9
$USERI3
 70
     0
  9
$USERI4
 70
     0
  9
$USERI5
 70
     0
  9
$USERR1
 40
900.0
  9
$USERR2
 40
900.0
  9
$USERR3
 40
50.0
  9
$USERR4
 40
0.0
  9
$USERR5
 40
3600.0
  0
ENDSEC
  0
SECTION
  2
TABLES
  0
TABLE
  2
LTYPE
 70
     1
  0
LTYPE
  2
CONTINUOUS
 70
    64
  3
Solid line
 72
    65
 73
     0
 40
0.0
  0
ENDTAB
  0
TABLE
  2
LAYER
 70
     1
  0
LAYER
  2
0
 70
     0
 62
     7
  6
CONTINUOUS
  0
ENDTAB
  0
TABLE
  2
STYLE
 70
     1
  0
STYLE
  2
STANDARD
 70
     0
 40
0.0
 41
1.0
 50
0.0
 71
     0
 42
3.0
  3
simplex
  4

  0
ENDTAB
  0
TABLE
  2
VIEW
 70
     0
  0
ENDTAB
  0
ENDSEC
  0
SECTION
  2
BLOCKS
  0
BLOCK
  8
0
  2
DISC
  70
0
  10
0.0
  20
0.0
  0
POLYLINE
  8
0
  66
1
  70
1
  40
0.5
  41
0.5
  62
0
  0
VERTEX
  8
0
  10
0.0
  20
0.25
  42
1.0
  0
VERTEX
  8
0
  10
0.0
  20
-0.25
  42
1.0
  0
SEQEND
  8
0
  0
ENDBLK
  8
0
  0
BLOCK
  8
0
  2
SQUARE
  70
0
  10
0.0
  20
0.0
  0
SOLID
  8
0
  62
0
  10
-0.5
  20
-0.5
  11
 0.5
  21
-0.5
  13
 0.5
  23
 0.5
  12
-0.5
  22
 0.5
  0
ENDBLK
  8
0
  0
BLOCK
  8
0
  2
DIAMOND
  70
0
  10
0.0
  20
0.0
  0
INSERT
  8
0
  2
SQUARE
  10
0.0
  20
0.0
  50
45.0
  0
ENDBLK
  8
0
  0
BLOCK
  8
0
  2
TRIANGLE
  70
0
  10
0.0
  20
0.0
  0
SOLID
  8
0
  62
0
  10
 0.0
  20
-0.5
  11
 1.0
  21
 0.0
  13
 0.0
  23
 0.5
  12
 0.0
  22
 0.5
  0
ENDBLK
  8
0
  0
BLOCK
  8
0
  2
OCTAGON
  70
0
  10
0.0
  20
0.0
  0
SOLID
  8
0
  62
0
  10
-0.5
  20
-0.2
  11
-0.2
  21
-0.5
  13
 0.2
  23
-0.5
  12
 0.5
  22
-0.2
  0
SOLID
  8
0
  62
0
  10
-0.5
  20
 0.2
  11
 0.5
  21
 0.2
  13
 0.5
  23
-0.2
  12
-0.5
  22
-0.2
  0
SOLID
  8
0
  62
0
  10
-0.5
  20
 0.2
  11
-0.2
  21
 0.5
  13
 0.2
  23
 0.5
  12
 0.5
  22
 0.2
  0
ENDBLK
  8
0
   0  
ENDSEC
   0  
SECTION
   2  
ENTITIES
  0
POLYLINE
  8
0
   66 
1
   70 
0
 62
1
   40
0.008
   41
0.008
  0
VERTEX
  8
0
   10
4.225
   20
15.400
  0
VERTEX
  8
0
   10
12.050
   20
15.400
  0
VERTEX
  8
0
   10
12.050
   20
8.875
  0
VERTEX
  8
0
   10
4.225
   20
8.875
  0
VERTEX
  8
0
   10
4.225
   20
15.400
   0  
SEQEND
  0
POLYLINE
  8
0
   66 
1
   70 
0
 62
3
   40
0.010
   41
0.010
  0
VERTEX
  8
0
   10
8.544
   20
12.302
  0
VERTEX
  8
0
   10
8.544
   20
12.552
  0
VERTEX
  8
0
   10
8.544
   20
12.552
  0
VERTEX
  8
0
   10
8.544
   20
11.571
  0
VERTEX
  8
0
   10
8.141
   20
11.168
   0  
SEQEND
  0
POLYLINE
  8
0
   66 
1
   70 
0
 62
3
   40
0.010
   41
0.010
  0
VERTEX
  8
0
   10
5.843
   20
13.906
  0
VERTEX
  8
0
   10
5.843
   20
14.122
  0
VERTEX
  8
0
   10
5.439
   20
14.526
   0  
SEQEND
  0
POLYLINE
  8
0
   66 
1
   70 
0
 62
3
   40
0.010
   41
0.010
  0
VERTEX
  8
0
   10
5.083
   20
10.650
  0
VERTEX
  8
0
   10
5.083
   20
14.926
  0
VERTEX
  8
0
   10
5.555
   20
14.926
  0
VERTEX
  8
0
   10
5.555
   20
10.650
  0
VERTEX
  8
0
   10
5.083
   20
10.650
   0  
SEQEND
  0
POLYLINE
  8
0
   66 
1
   70 
0
 62
3
   40
0.010
   41
0.010
  0
VERTEX
  8
0
   10
5.868
   20
13.280
  0
VERTEX
  8
0
   10
5.868
   20
13.530
  0
VERTEX
  8
0
   10
5.868
   20
13.530
  0
VERTEX
  8
0
   10
5.875
   20
11.675
  0
VERTEX
  8
0
   10
5.471
   20
11.271
   0  
SEQEND
  0
POLYLINE
  8
0
   66 
1
   70 
0
 62
3
   40
0.010
   41
0.010
  0
VERTEX
  8
0
   10
7.783
   20
10.650
  0
VERTEX
  8
0
   10
7.783
   20
13.949
  0
VERTEX
  8
0
   10
8.255
   20
13.949
  0
VERTEX
  8
0
   10
8.255
   20
10.650
  0
VERTEX
  8
0
   10
7.783
   20
10.650
   0  
SEQEND
  0
POLYLINE
  8
0
   66 
1
   70 
0
 62
3
   40
0.010
   41
0.010
  0
VERTEX
  8
0
   10
8.519
   20
12.928
  0
VERTEX
  8
0
   10
8.519
   20
13.144
  0
VERTEX
  8
0
   10
8.115
   20
13.548
   0  
SEQEND
  0
POLYLINE
  8
0
   66 
1
   70 
0
 62
3
   40
0.010
   41
0.010
  0
VERTEX
  8
0
   10
10.415
   20
10.650
  0
VERTEX
  8
0
   10
10.415
   20
12.225
  0
VERTEX
  8
0
   10
10.888
   20
12.225
  0
VERTEX
  8
0
   10
10.888
   20
10.650
  0
VERTEX
  8
0
   10
10.415
   20
10.650
   0  
SEQEND
  0
POLYLINE
  8
0
   66 
1
   70 
0
 62
3
   40
0.010
   41
0.010
  0
VERTEX
  8
0
   10
10.768
   20
11.083
  0
VERTEX
  8
0
   10
10.770
   20
11.083
  0
VERTEX
  8
0
   10
11.073
   20
11.386
   0  
SEQEND
  0
POLYLINE
  8
0
   66 
1
   70 
0
 62
3
   40
0.010
   41
0.010
  0
VERTEX
  8
0
   10
10.746
   20
11.835
  0
VERTEX
  8
0
   10
10.746
   20
11.833
  0
VERTEX
  8
0
   10
11.049
   20
11.530
   0  
SEQEND
  0
POLYLINE
  8
0
   66 
1
   70 
0
 62
2
   40
0.040
   41
0.040
  0
VERTEX
  8
0
   10
5.335
   20
11.171
   42 
-1.000
  0
VERTEX
  8
0
   10
5.335
   20
11.231
   42 
-1.000
  0
VERTEX
  8
0
   10
5.335
   20
11.171
   0  
SEQEND
  0
POLYLINE
  8
0
   66 
1
   70 
0
 62
2
   40
0.040
   41
0.040
  0
VERTEX
  8
0
   10
5.335
   20
14.502
   42 
-1.000
  0
VERTEX
  8
0
   10
5.335
   20
14.562
   42 
-1.000
  0
VERTEX
  8
0
   10
5.335
   20
14.502
   0  
SEQEND
  0
POLYLINE
  8
0
   66 
1
   70 
0
 62
2
   40
0.040
   41
0.040
  0
VERTEX
  8
0
   10
8.035
   20
11.014
   42 
-1.000
  0
VERTEX
  8
0
   10
8.035
   20
11.074
   42 
-1.000
  0
VERTEX
  8
0
   10
8.035
   20
11.014
   0  
SEQEND
  0
POLYLINE
  8
0
   66 
1
   70 
0
 62
2
   40
0.040
   41
0.040
  0
VERTEX
  8
0
   10
8.035
   20
13.524
   42 
-1.000
  0
VERTEX
  8
0
   10
8.035
   20
13.584
   42 
-1.000
  0
VERTEX
  8
0
   10
8.035
   20
13.524
   0  
SEQEND
  0
POLYLINE
  8
0
   66 
1
   70 
0
 62
2
   40
0.040
   41
0.040
  0
VERTEX
  8
0
   10
10.667
   20
11.014
   42 
-1.000
  0
VERTEX
  8
0
   10
10.667
   20
11.074
   42 
-1.000
  0
VERTEX
  8
0
   10
10.667
   20
11.014
   0  
SEQEND
  0
POLYLINE
  8
0
   66 
1
   70 
0
 62
2
   40
0.040
   41
0.040
  0
VERTEX
  8
0
   10
10.667
   20
11.801
   42 
-1.000
  0
VERTEX
  8
0
   10
10.667
   20
11.861
   42 
-1.000
  0
VERTEX
  8
0
   10
10.667
   20
11.801
   0  
SEQEND
  0
TEXT
  8
0
   10
4.550
   20
15.125
 62
3
   40
0.075
   41 
1.000
   39
0.012
   1  
INSULATOR FOR HS1
  0
TEXT
  8
0
   10
9.875
   20
9.275
 62
3
   40
0.100
   41 
1.000
   39
0.015
   1  
INNOVATECH SWITCHING 
  0
TEXT
  8
0
   10
9.875
   20
9.125
 62
3
   40
0.100
   41 
1.000
   39
0.015
   1  
POWER INDIA Pvt. Ltd.
  0
TEXT
  8
0
   10
4.375
   20
9.375
 62
3
   40
0.075
   41 
1.000
   39
0.012
   1  
MATERIAL : GLASS EPOXY 1.0mm
  0
TEXT
  8
0
   10
4.375
   20
9.700
 62
3
   40
0.075
   41 
1.000
   39
0.012
   1  
NOTE: TOLARENCE +/- 0.1
  0
TEXT
  8
0
   10
5.661
   20
13.693
 62
3
   40
0.075
   41 
1.000
   39
0.012
   1  
3.5mm HOLES
  0
TEXT
  8
0
   10
4.375
   20
9.550
 62
3
   40
0.075
   41 
1.000
   39
0.012
   1  
NOTE: ALL DIMENSIONS ARE IN MM
  0
TEXT
  8
0
   10
4.383
   20
9.173
 62
3
   40
0.100
   41 
1.000
   39
0.015
   1  
Project : Mindteck PCC REV2 PCB
  0
TEXT
  8
0
   10
7.258
   20
14.264
 62
3
   40
0.075
   41 
1.000
   39
0.012
   1  
INSULATOR FOR HS2
  0
TEXT
  8
0
   10
8.379
   20
12.701
 62
3
   40
0.075
   41 
1.000
   39
0.012
   1  
3.5mm HOLES
  0
TEXT
  8
0
   10
11.140
   20
11.439
 62
3
   40
0.075
   41 
1.000
   39
0.012
   1  
3.5mm HOLES
  0
TEXT
  8
0
   10
9.815
   20
12.464
 62
3
   40
0.075
   41 
1.000
   39
0.012
   1  
INSULATOR FOR HS3
  0
TEXT
  8
0
   10
4.375
   20
9.000
 62
3
   40
0.100
   41 
1.000
   39
0.015
   1  
Date : 11-10-2011
  0
INSERT
  8
0
   2  
DISC
 62
3
   10
4.750
   20
10.650
   41
0.005
   42
0.005
  0
POLYLINE
  8
0
   66 
1
   70 
0
 62
3
   40
0.005
   41
0.005
  0
VERTEX
  8
0
   10
4.750
   20
10.650
  0
VERTEX
  8
0
   10
4.750
   20
12.362
   0  
SEQEND
  0
INSERT
  8
0
   2  
DISC
 62
3
   10
4.750
   20
12.362
   41
0.005
   42
0.005
  0
INSERT
  8
0
   2  
DISC
 62
3
   10
4.750
   20
12.865
   41
0.005
   42
0.005
  0
POLYLINE
  8
0
   66 
1
   70 
0
 62
3
   40
0.005
   41
0.005
  0
VERTEX
  8
0
   10
4.750
   20
12.865
  0
VERTEX
  8
0
   10
4.750
   20
14.532
   0  
SEQEND
  0
INSERT
  8
0
   2  
DISC
 62
3
   10
4.750
   20
14.532
   41
0.005
   42
0.005
  0
INSERT
  8
0
   2  
DISC
 62
3
   10
4.750
   20
14.532
   41
0.005
   42
0.005
  0
POLYLINE
  8
0
   66 
1
   70 
0
 62
3
   40
0.005
   41
0.005
  0
VERTEX
  8
0
   10
4.750
   20
14.532
  0
VERTEX
  8
0
   10
4.737
   20
14.495
   0  
SEQEND
  0
INSERT
  8
0
   2  
DISC
 62
3
   10
4.737
   20
14.495
   41
0.005
   42
0.005
  0
INSERT
  8
0
   2  
DISC
 62
3
   10
4.750
   20
14.532
   41
0.005
   42
0.005
  0
POLYLINE
  8
0
   66 
1
   70 
0
 62
3
   40
0.005
   41
0.005
  0
VERTEX
  8
0
   10
4.750
   20
14.532
  0
VERTEX
  8
0
   10
4.763
   20
14.495
   0  
SEQEND
  0
INSERT
  8
0
   2  
DISC
 62
3
   10
4.763
   20
14.495
   41
0.005
   42
0.005
  0
INSERT
  8
0
   2  
DISC
 62
3
   10
4.750
   20
10.650
   41
0.005
   42
0.005
  0
POLYLINE
  8
0
   66 
1
   70 
0
 62
3
   40
0.005
   41
0.005
  0
VERTEX
  8
0
   10
4.750
   20
10.650
  0
VERTEX
  8
0
   10
4.763
   20
10.687
   0  
SEQEND
  0
INSERT
  8
0
   2  
DISC
 62
3
   10
4.763
   20
10.687
   41
0.005
   42
0.005
  0
INSERT
  8
0
   2  
DISC
 62
3
   10
4.750
   20
10.650
   41
0.005
   42
0.005
  0
POLYLINE
  8
0
   66 
1
   70 
0
 62
3
   40
0.005
   41
0.005
  0
VERTEX
  8
0
   10
4.750
   20
10.650
  0
VERTEX
  8
0
   10
4.737
   20
10.687
   0  
SEQEND
  0
INSERT
  8
0
   2  
DISC
 62
3
   10
4.737
   20
10.687
   41
0.005
   42
0.005
  0
INSERT
  8
0
   2  
DISC
 62
3
   10
5.293
   20
14.532
   41
0.005
   42
0.005
  0
POLYLINE
  8
0
   66 
1
   70 
0
 62
3
   40
0.005
   41
0.005
  0
VERTEX
  8
0
   10
5.293
   20
14.532
  0
VERTEX
  8
0
   10
4.711
   20
14.532
   0  
SEQEND
  0
INSERT
  8
0
   2  
DISC
 62
3
   10
4.711
   20
14.532
   41
0.005
   42
0.005
  0
INSERT
  8
0
   2  
DISC
 62
3
   10
5.280
   20
10.650
   41
0.005
   42
0.005
  0
POLYLINE
  8
0
   66 
1
   70 
0
 62
3
   40
0.005
   41
0.005
  0
VERTEX
  8
0
   10
5.280
   20
10.650
  0
VERTEX
  8
0
   10
4.711
   20
10.650
   0  
SEQEND
  0
INSERT
  8
0
   2  
DISC
 62
3
   10
4.711
   20
10.650
   41
0.005
   42
0.005
  0
TEXT
  8
0
   10
4.793
   20
12.407
 62
3
   40
0.075
   41 
1.000
   39
0.012
   1  
98.6mm
 50
90.000
  0
INSERT
  8
0
   2  
DISC
 62
3
   10
4.553
   20
10.650
   41
0.005
   42
0.005
  0
POLYLINE
  8
0
   66 
1
   70 
0
 62
3
   40
0.005
   41
0.005
  0
VERTEX
  8
0
   10
4.553
   20
10.650
  0
VERTEX
  8
0
   10
4.553
   20
12.542
   0  
SEQEND
  0
INSERT
  8
0
   2  
DISC
 62
3
   10
4.553
   20
12.542
   41
0.005
   42
0.005
  0
INSERT
  8
0
   2  
DISC
 62
3
   10
4.553
   20
13.083
   41
0.005
   42
0.005
  0
POLYLINE
  8
0
   66 
1
   70 
0
 62
3
   40
0.005
   41
0.005
  0
VERTEX
  8
0
   10
4.553
   20
13.083
  0
VERTEX
  8
0
   10
4.553
   20
14.926
   0  
SEQEND
  0
INSERT
  8
0
   2  
DISC
 62
3
   10
4.553
   20
14.926
   41
0.005
   42
0.005
  0
INSERT
  8
0
   2  
DISC
 62
3
   10
4.553
   20
10.650
   41
0.005
   42
0.005
  0
POLYLINE
  8
0
   66 
1
   70 
0
 62
3
   40
0.005
   41
0.005
  0
VERTEX
  8
0
   10
4.553
   20
10.650
  0
VERTEX
  8
0
   10
4.567
   20
10.687
   0  
SEQEND
  0
INSERT
  8
0
   2  
DISC
 62
3
   10
4.567
   20
10.687
   41
0.005
   42
0.005
  0
INSERT
  8
0
   2  
DISC
 62
3
   10
4.553
   20
10.650
   41
0.005
   42
0.005
  0
POLYLINE
  8
0
   66 
1
   70 
0
 62
3
   40
0.005
   41
0.005
  0
VERTEX
  8
0
   10
4.553
   20
10.650
  0
VERTEX
  8
0
   10
4.540
   20
10.687
   0  
SEQEND
  0
INSERT
  8
0
   2  
DISC
 62
3
   10
4.540
   20
10.687
   41
0.005
   42
0.005
  0
INSERT
  8
0
   2  
DISC
 62
3
   10
4.553
   20
14.926
   41
0.005
   42
0.005
  0
POLYLINE
  8
0
   66 
1
   70 
0
 62
3
   40
0.005
   41
0.005
  0
VERTEX
  8
0
   10
4.553
   20
14.926
  0
VERTEX
  8
0
   10
4.540
   20
14.889
   0  
SEQEND
  0
INSERT
  8
0
   2  
DISC
 62
3
   10
4.540
   20
14.889
   41
0.005
   42
0.005
  0
INSERT
  8
0
   2  
DISC
 62
3
   10
4.553
   20
14.926
   41
0.005
   42
0.005
  0
POLYLINE
  8
0
   66 
1
   70 
0
 62
3
   40
0.005
   41
0.005
  0
VERTEX
  8
0
   10
4.553
   20
14.926
  0
VERTEX
  8
0
   10
4.567
   20
14.889
   0  
SEQEND
  0
INSERT
  8
0
   2  
DISC
 62
3
   10
4.567
   20
14.889
   41
0.005
   42
0.005
  0
INSERT
  8
0
   2  
DISC
 62
3
   10
5.043
   20
10.650
   41
0.005
   42
0.005
  0
POLYLINE
  8
0
   66 
1
   70 
0
 62
3
   40
0.005
   41
0.005
  0
VERTEX
  8
0
   10
5.043
   20
10.650
  0
VERTEX
  8
0
   10
4.514
   20
10.650
   0  
SEQEND
  0
INSERT
  8
0
   2  
DISC
 62
3
   10
4.514
   20
10.650
   41
0.005
   42
0.005
  0
INSERT
  8
0
   2  
DISC
 62
3
   10
5.043
   20
14.926
   41
0.005
   42
0.005
  0
POLYLINE
  8
0
   66 
1
   70 
0
 62
3
   40
0.005
   41
0.005
  0
VERTEX
  8
0
   10
5.043
   20
14.926
  0
VERTEX
  8
0
   10
4.514
   20
14.926
   0  
SEQEND
  0
INSERT
  8
0
   2  
DISC
 62
3
   10
4.514
   20
14.926
   41
0.005
   42
0.005
  0
TEXT
  8
0
   10
4.596
   20
12.588
 62
3
   40
0.075
   41 
1.000
   39
0.012
   1  
108.6mm
 50
90.000
  0
INSERT
  8
0
   2  
DISC
 62
3
   10
5.114
   20
10.164
   41
0.005
   42
0.005
  0
POLYLINE
  8
0
   66 
1
   70 
0
 62
3
   40
0.005
   41
0.005
  0
VERTEX
  8
0
   10
5.114
   20
10.164
  0
VERTEX
  8
0
   10
5.083
   20
10.164
   0  
SEQEND
  0
INSERT
  8
0
   2  
DISC
 62
3
   10
5.083
   20
10.164
   41
0.005
   42
0.005
  0
INSERT
  8
0
   2  
DISC
 62
3
   10
5.555
   20
10.164
   41
0.005
   42
0.005
  0
POLYLINE
  8
0
   66 
1
   70 
0
 62
3
   40
0.005
   41
0.005
  0
VERTEX
  8
0
   10
5.555
   20
10.164
  0
VERTEX
  8
0
   10
5.518
   20
10.177
   0  
SEQEND
  0
INSERT
  8
0
   2  
DISC
 62
3
   10
5.518
   20
10.177
   41
0.005
   42
0.005
  0
INSERT
  8
0
   2  
DISC
 62
3
   10
5.555
   20
10.164
   41
0.005
   42
0.005
  0
POLYLINE
  8
0
   66 
1
   70 
0
 62
3
   40
0.005
   41
0.005
  0
VERTEX
  8
0
   10
5.555
   20
10.164
  0
VERTEX
  8
0
   10
5.518
   20
10.150
   0  
SEQEND
  0
INSERT
  8
0
   2  
DISC
 62
3
   10
5.518
   20
10.150
   41
0.005
   42
0.005
  0
INSERT
  8
0
   2  
DISC
 62
3
   10
5.083
   20
10.164
   41
0.005
   42
0.005
  0
POLYLINE
  8
0
   66 
1
   70 
0
 62
3
   40
0.005
   41
0.005
  0
VERTEX
  8
0
   10
5.083
   20
10.164
  0
VERTEX
  8
0
   10
5.120
   20
10.150
   0  
SEQEND
  0
INSERT
  8
0
   2  
DISC
 62
3
   10
5.120
   20
10.150
   41
0.005
   42
0.005
  0
INSERT
  8
0
   2  
DISC
 62
3
   10
5.083
   20
10.164
   41
0.005
   42
0.005
  0
POLYLINE
  8
0
   66 
1
   70 
0
 62
3
   40
0.005
   41
0.005
  0
VERTEX
  8
0
   10
5.083
   20
10.164
  0
VERTEX
  8
0
   10
5.120
   20
10.177
   0  
SEQEND
  0
INSERT
  8
0
   2  
DISC
 62
3
   10
5.120
   20
10.177
   41
0.005
   42
0.005
  0
INSERT
  8
0
   2  
DISC
 62
3
   10
5.555
   20
10.611
   41
0.005
   42
0.005
  0
POLYLINE
  8
0
   66 
1
   70 
0
 62
3
   40
0.005
   41
0.005
  0
VERTEX
  8
0
   10
5.555
   20
10.611
  0
VERTEX
  8
0
   10
5.555
   20
10.124
   0  
SEQEND
  0
INSERT
  8
0
   2  
DISC
 62
3
   10
5.555
   20
10.124
   41
0.005
   42
0.005
  0
INSERT
  8
0
   2  
DISC
 62
3
   10
5.083
   20
10.611
   41
0.005
   42
0.005
  0
POLYLINE
  8
0
   66 
1
   70 
0
 62
3
   40
0.005
   41
0.005
  0
VERTEX
  8
0
   10
5.083
   20
10.611
  0
VERTEX
  8
0
   10
5.083
   20
10.124
   0  
SEQEND
  0
INSERT
  8
0
   2  
DISC
 62
3
   10
5.083
   20
10.124
   41
0.005
   42
0.005
  0
TEXT
  8
0
   10
5.159
   20
10.120
 62
3
   40
0.075
   41 
1.000
   39
0.012
   1  
12.0mm
  0
INSERT
  8
0
   2  
DISC
 62
3
   10
4.967
   20
11.201
   41
0.005
   42
0.005
  0
POLYLINE
  8
0
   66 
1
   70 
0
 62
3
   40
0.005
   41
0.005
  0
VERTEX
  8
0
   10
4.967
   20
11.201
  0
VERTEX
  8
0
   10
4.967
   20
11.319
   0  
SEQEND
  0
INSERT
  8
0
   2  
DISC
 62
3
   10
4.967
   20
11.319
   41
0.005
   42
0.005
  0
INSERT
  8
0
   2  
DISC
 62
3
   10
4.967
   20
10.650
   41
0.005
   42
0.005
  0
POLYLINE
  8
0
   66 
1
   70 
0
 62
3
   40
0.005
   41
0.005
  0
VERTEX
  8
0
   10
4.967
   20
10.650
  0
VERTEX
  8
0
   10
4.967
   20
10.532
   0  
SEQEND
  0
INSERT
  8
0
   2  
DISC
 62
3
   10
4.967
   20
10.532
   41
0.005
   42
0.005
  0
INSERT
  8
0
   2  
DISC
 62
3
   10
4.967
   20
11.201
   41
0.005
   42
0.005
  0
POLYLINE
  8
0
   66 
1
   70 
0
 62
3
   40
0.005
   41
0.005
  0
VERTEX
  8
0
   10
4.967
   20
11.201
  0
VERTEX
  8
0
   10
4.980
   20
11.238
   0  
SEQEND
  0
INSERT
  8
0
   2  
DISC
 62
3
   10
4.980
   20
11.238
   41
0.005
   42
0.005
  0
INSERT
  8
0
   2  
DISC
 62
3
   10
4.967
   20
11.201
   41
0.005
   42
0.005
  0
POLYLINE
  8
0
   66 
1
   70 
0
 62
3
   40
0.005
   41
0.005
  0
VERTEX
  8
0
   10
4.967
   20
11.201
  0
VERTEX
  8
0
   10
4.953
   20
11.238
   0  
SEQEND
  0
INSERT
  8
0
   2  
DISC
 62
3
   10
4.953
   20
11.238
   41
0.005
   42
0.005
  0
INSERT
  8
0
   2  
DISC
 62
3
   10
4.967
   20
10.650
   41
0.005
   42
0.005
  0
POLYLINE
  8
0
   66 
1
   70 
0
 62
3
   40
0.005
   41
0.005
  0
VERTEX
  8
0
   10
4.967
   20
10.650
  0
VERTEX
  8
0
   10
4.953
   20
10.613
   0  
SEQEND
  0
INSERT
  8
0
   2  
DISC
 62
3
   10
4.953
   20
10.613
   41
0.005
   42
0.005
  0
INSERT
  8
0
   2  
DISC
 62
3
   10
4.967
   20
10.650
   41
0.005
   42
0.005
  0
POLYLINE
  8
0
   66 
1
   70 
0
 62
3
   40
0.005
   41
0.005
  0
VERTEX
  8
0
   10
4.967
   20
10.650
  0
VERTEX
  8
0
   10
4.980
   20
10.613
   0  
SEQEND
  0
INSERT
  8
0
   2  
DISC
 62
3
   10
4.980
   20
10.613
   41
0.005
   42
0.005
  0
INSERT
  8
0
   2  
DISC
 62
3
   10
5.293
   20
11.201
   41
0.005
   42
0.005
  0
POLYLINE
  8
0
   66 
1
   70 
0
 62
3
   40
0.005
   41
0.005
  0
VERTEX
  8
0
   10
5.293
   20
11.201
  0
VERTEX
  8
0
   10
4.927
   20
11.201
   0  
SEQEND
  0
INSERT
  8
0
   2  
DISC
 62
3
   10
4.927
   20
11.201
   41
0.005
   42
0.005
  0
INSERT
  8
0
   2  
DISC
 62
3
   10
5.293
   20
10.650
   41
0.005
   42
0.005
  0
POLYLINE
  8
0
   66 
1
   70 
0
 62
3
   40
0.005
   41
0.005
  0
VERTEX
  8
0
   10
5.293
   20
10.650
  0
VERTEX
  8
0
   10
4.927
   20
10.650
   0  
SEQEND
  0
INSERT
  8
0
   2  
DISC
 62
3
   10
4.927
   20
10.650
   41
0.005
   42
0.005
  0
TEXT
  8
0
   10
5.002
   20
10.778
 62
3
   40
0.075
   41 
1.000
   39
0.012
   1  
14.0mm
 50
90.000
  0
INSERT
  8
0
   2  
DISC
 62
3
   10
5.335
   20
10.428
   41
0.005
   42
0.005
  0
POLYLINE
  8
0
   66 
1
   70 
0
 62
3
   40
0.005
   41
0.005
  0
VERTEX
  8
0
   10
5.335
   20
10.428
  0
VERTEX
  8
0
   10
5.453
   20
10.428
   0  
SEQEND
  0
INSERT
  8
0
   2  
DISC
 62
3
   10
5.453
   20
10.428
   41
0.005
   42
0.005
  0
INSERT
  8
0
   2  
DISC
 62
3
   10
5.083
   20
10.428
   41
0.005
   42
0.005
  0
POLYLINE
  8
0
   66 
1
   70 
0
 62
3
   40
0.005
   41
0.005
  0
VERTEX
  8
0
   10
5.083
   20
10.428
  0
VERTEX
  8
0
   10
4.965
   20
10.428
   0  
SEQEND
  0
INSERT
  8
0
   2  
DISC
 62
3
   10
4.965
   20
10.428
   41
0.005
   42
0.005
  0
INSERT
  8
0
   2  
DISC
 62
3
   10
5.335
   20
10.428
   41
0.005
   42
0.005
  0
POLYLINE
  8
0
   66 
1
   70 
0
 62
3
   40
0.005
   41
0.005
  0
VERTEX
  8
0
   10
5.335
   20
10.428
  0
VERTEX
  8
0
   10
5.372
   20
10.414
   0  
SEQEND
  0
INSERT
  8
0
   2  
DISC
 62
3
   10
5.372
   20
10.414
   41
0.005
   42
0.005
  0
INSERT
  8
0
   2  
DISC
 62
3
   10
5.335
   20
10.428
   41
0.005
   42
0.005
  0
POLYLINE
  8
0
   66 
1
   70 
0
 62
3
   40
0.005
   41
0.005
  0
VERTEX
  8
0
   10
5.335
   20
10.428
  0
VERTEX
  8
0
   10
5.372
   20
10.441
   0  
SEQEND
  0
INSERT
  8
0
   2  
DISC
 62
3
   10
5.372
   20
10.441
   41
0.005
   42
0.005
  0
INSERT
  8
0
   2  
DISC
 62
3
   10
5.083
   20
10.428
   41
0.005
   42
0.005
  0
POLYLINE
  8
0
   66 
1
   70 
0
 62
3
   40
0.005
   41
0.005
  0
VERTEX
  8
0
   10
5.083
   20
10.428
  0
VERTEX
  8
0
   10
5.046
   20
10.441
   0  
SEQEND
  0
INSERT
  8
0
   2  
DISC
 62
3
   10
5.046
   20
10.441
   41
0.005
   42
0.005
  0
INSERT
  8
0
   2  
DISC
 62
3
   10
5.083
   20
10.428
   41
0.005
   42
0.005
  0
POLYLINE
  8
0
   66 
1
   70 
0
 62
3
   40
0.005
   41
0.005
  0
VERTEX
  8
0
   10
5.083
   20
10.428
  0
VERTEX
  8
0
   10
5.046
   20
10.414
   0  
SEQEND
  0
INSERT
  8
0
   2  
DISC
 62
3
   10
5.046
   20
10.414
   41
0.005
   42
0.005
  0
INSERT
  8
0
   2  
DISC
 62
3
   10
5.335
   20
11.004
   41
0.005
   42
0.005
  0
POLYLINE
  8
0
   66 
1
   70 
0
 62
3
   40
0.005
   41
0.005
  0
VERTEX
  8
0
   10
5.335
   20
11.004
  0
VERTEX
  8
0
   10
5.335
   20
10.388
   0  
SEQEND
  0
INSERT
  8
0
   2  
DISC
 62
3
   10
5.335
   20
10.388
   41
0.005
   42
0.005
  0
INSERT
  8
0
   2  
DISC
 62
3
   10
5.083
   20
11.004
   41
0.005
   42
0.005
  0
POLYLINE
  8
0
   66 
1
   70 
0
 62
3
   40
0.005
   41
0.005
  0
VERTEX
  8
0
   10
5.083
   20
11.004
  0
VERTEX
  8
0
   10
5.083
   20
10.388
   0  
SEQEND
  0
INSERT
  8
0
   2  
DISC
 62
3
   10
5.083
   20
10.388
   41
0.005
   42
0.005
  0
TEXT
  8
0
   10
5.118
   20
10.300
 62
3
   40
0.075
   41 
1.000
   39
0.012
   1  
6.4mm
  0
INSERT
  8
0
   2  
DISC
 62
3
   10
7.814
   20
10.164
   41
0.005
   42
0.005
  0
POLYLINE
  8
0
   66 
1
   70 
0
 62
3
   40
0.005
   41
0.005
  0
VERTEX
  8
0
   10
7.814
   20
10.164
  0
VERTEX
  8
0
   10
7.783
   20
10.164
   0  
SEQEND
  0
INSERT
  8
0
   2  
DISC
 62
3
   10
7.783
   20
10.164
   41
0.005
   42
0.005
  0
INSERT
  8
0
   2  
DISC
 62
3
   10
8.255
   20
10.164
   41
0.005
   42
0.005
  0
POLYLINE
  8
0
   66 
1
   70 
0
 62
3
   40
0.005
   41
0.005
  0
VERTEX
  8
0
   10
8.255
   20
10.164
  0
VERTEX
  8
0
   10
8.218
   20
10.177
   0  
SEQEND
  0
INSERT
  8
0
   2  
DISC
 62
3
   10
8.218
   20
10.177
   41
0.005
   42
0.005
  0
INSERT
  8
0
   2  
DISC
 62
3
   10
8.255
   20
10.164
   41
0.005
   42
0.005
  0
POLYLINE
  8
0
   66 
1
   70 
0
 62
3
   40
0.005
   41
0.005
  0
VERTEX
  8
0
   10
8.255
   20
10.164
  0
VERTEX
  8
0
   10
8.218
   20
10.150
   0  
SEQEND
  0
INSERT
  8
0
   2  
DISC
 62
3
   10
8.218
   20
10.150
   41
0.005
   42
0.005
  0
INSERT
  8
0
   2  
DISC
 62
3
   10
7.783
   20
10.164
   41
0.005
   42
0.005
  0
POLYLINE
  8
0
   66 
1
   70 
0
 62
3
   40
0.005
   41
0.005
  0
VERTEX
  8
0
   10
7.783
   20
10.164
  0
VERTEX
  8
0
   10
7.820
   20
10.150
   0  
SEQEND
  0
INSERT
  8
0
   2  
DISC
 62
3
   10
7.820
   20
10.150
   41
0.005
   42
0.005
  0
INSERT
  8
0
   2  
DISC
 62
3
   10
7.783
   20
10.164
   41
0.005
   42
0.005
  0
POLYLINE
  8
0
   66 
1
   70 
0
 62
3
   40
0.005
   41
0.005
  0
VERTEX
  8
0
   10
7.783
   20
10.164
  0
VERTEX
  8
0
   10
7.820
   20
10.177
   0  
SEQEND
  0
INSERT
  8
0
   2  
DISC
 62
3
   10
7.820
   20
10.177
   41
0.005
   42
0.005
  0
INSERT
  8
0
   2  
DISC
 62
3
   10
8.255
   20
10.611
   41
0.005
   42
0.005
  0
POLYLINE
  8
0
   66 
1
   70 
0
 62
3
   40
0.005
   41
0.005
  0
VERTEX
  8
0
   10
8.255
   20
10.611
  0
VERTEX
  8
0
   10
8.255
   20
10.124
   0  
SEQEND
  0
INSERT
  8
0
   2  
DISC
 62
3
   10
8.255
   20
10.124
   41
0.005
   42
0.005
  0
INSERT
  8
0
   2  
DISC
 62
3
   10
7.783
   20
10.611
   41
0.005
   42
0.005
  0
POLYLINE
  8
0
   66 
1
   70 
0
 62
3
   40
0.005
   41
0.005
  0
VERTEX
  8
0
   10
7.783
   20
10.611
  0
VERTEX
  8
0
   10
7.783
   20
10.124
   0  
SEQEND
  0
INSERT
  8
0
   2  
DISC
 62
3
   10
7.783
   20
10.124
   41
0.005
   42
0.005
  0
TEXT
  8
0
   10
7.859
   20
10.120
 62
3
   40
0.075
   41 
1.000
   39
0.012
   1  
12.0mm
  0
INSERT
  8
0
   2  
DISC
 62
3
   10
7.450
   20
10.650
   41
0.005
   42
0.005
  0
POLYLINE
  8
0
   66 
1
   70 
0
 62
3
   40
0.005
   41
0.005
  0
VERTEX
  8
0
   10
7.450
   20
10.650
  0
VERTEX
  8
0
   10
7.450
   20
11.873
   0  
SEQEND
  0
INSERT
  8
0
   2  
DISC
 62
3
   10
7.450
   20
11.873
   41
0.005
   42
0.005
  0
INSERT
  8
0
   2  
DISC
 62
3
   10
7.450
   20
12.376
   41
0.005
   42
0.005
  0
POLYLINE
  8
0
   66 
1
   70 
0
 62
3
   40
0.005
   41
0.005
  0
VERTEX
  8
0
   10
7.450
   20
12.376
  0
VERTEX
  8
0
   10
7.450
   20
13.554
   0  
SEQEND
  0
INSERT
  8
0
   2  
DISC
 62
3
   10
7.450
   20
13.554
   41
0.005
   42
0.005
  0
INSERT
  8
0
   2  
DISC
 62
3
   10
7.450
   20
13.554
   41
0.005
   42
0.005
  0
POLYLINE
  8
0
   66 
1
   70 
0
 62
3
   40
0.005
   41
0.005
  0
VERTEX
  8
0
   10
7.450
   20
13.554
  0
VERTEX
  8
0
   10
7.437
   20
13.517
   0  
SEQEND
  0
INSERT
  8
0
   2  
DISC
 62
3
   10
7.437
   20
13.517
   41
0.005
   42
0.005
  0
INSERT
  8
0
   2  
DISC
 62
3
   10
7.450
   20
13.554
   41
0.005
   42
0.005
  0
POLYLINE
  8
0
   66 
1
   70 
0
 62
3
   40
0.005
   41
0.005
  0
VERTEX
  8
0
   10
7.450
   20
13.554
  0
VERTEX
  8
0
   10
7.463
   20
13.517
   0  
SEQEND
  0
INSERT
  8
0
   2  
DISC
 62
3
   10
7.463
   20
13.517
   41
0.005
   42
0.005
  0
INSERT
  8
0
   2  
DISC
 62
3
   10
7.450
   20
10.650
   41
0.005
   42
0.005
  0
POLYLINE
  8
0
   66 
1
   70 
0
 62
3
   40
0.005
   41
0.005
  0
VERTEX
  8
0
   10
7.450
   20
10.650
  0
VERTEX
  8
0
   10
7.463
   20
10.687
   0  
SEQEND
  0
INSERT
  8
0
   2  
DISC
 62
3
   10
7.463
   20
10.687
   41
0.005
   42
0.005
  0
INSERT
  8
0
   2  
DISC
 62
3
   10
7.450
   20
10.650
   41
0.005
   42
0.005
  0
POLYLINE
  8
0
   66 
1
   70 
0
 62
3
   40
0.005
   41
0.005
  0
VERTEX
  8
0
   10
7.450
   20
10.650
  0
VERTEX
  8
0
   10
7.437
   20
10.687
   0  
SEQEND
  0
INSERT
  8
0
   2  
DISC
 62
3
   10
7.437
   20
10.687
   41
0.005
   42
0.005
  0
INSERT
  8
0
   2  
DISC
 62
3
   10
7.993
   20
13.554
   41
0.005
   42
0.005
  0
POLYLINE
  8
0
   66 
1
   70 
0
 62
3
   40
0.005
   41
0.005
  0
VERTEX
  8
0
   10
7.993
   20
13.554
  0
VERTEX
  8
0
   10
7.411
   20
13.554
   0  
SEQEND
  0
INSERT
  8
0
   2  
DISC
 62
3
   10
7.411
   20
13.554
   41
0.005
   42
0.005
  0
INSERT
  8
0
   2  
DISC
 62
3
   10
7.980
   20
10.650
   41
0.005
   42
0.005
  0
POLYLINE
  8
0
   66 
1
   70 
0
 62
3
   40
0.005
   41
0.005
  0
VERTEX
  8
0
   10
7.980
   20
10.650
  0
VERTEX
  8
0
   10
7.411
   20
10.650
   0  
SEQEND
  0
INSERT
  8
0
   2  
DISC
 62
3
   10
7.411
   20
10.650
   41
0.005
   42
0.005
  0
TEXT
  8
0
   10
7.492
   20
11.918
 62
3
   40
0.075
   41 
1.000
   39
0.012
   1  
73.8mm
 50
90.000
  0
INSERT
  8
0
   2  
DISC
 62
3
   10
7.253
   20
10.650
   41
0.005
   42
0.005
  0
POLYLINE
  8
0
   66 
1
   70 
0
 62
3
   40
0.005
   41
0.005
  0
VERTEX
  8
0
   10
7.253
   20
10.650
  0
VERTEX
  8
0
   10
7.253
   20
12.070
   0  
SEQEND
  0
INSERT
  8
0
   2  
DISC
 62
3
   10
7.253
   20
12.070
   41
0.005
   42
0.005
  0
INSERT
  8
0
   2  
DISC
 62
3
   10
7.253
   20
12.574
   41
0.005
   42
0.005
  0
POLYLINE
  8
0
   66 
1
   70 
0
 62
3
   40
0.005
   41
0.005
  0
VERTEX
  8
0
   10
7.253
   20
12.574
  0
VERTEX
  8
0
   10
7.253
   20
13.949
   0  
SEQEND
  0
INSERT
  8
0
   2  
DISC
 62
3
   10
7.253
   20
13.949
   41
0.005
   42
0.005
  0
INSERT
  8
0
   2  
DISC
 62
3
   10
7.253
   20
10.650
   41
0.005
   42
0.005
  0
POLYLINE
  8
0
   66 
1
   70 
0
 62
3
   40
0.005
   41
0.005
  0
VERTEX
  8
0
   10
7.253
   20
10.650
  0
VERTEX
  8
0
   10
7.267
   20
10.687
   0  
SEQEND
  0
INSERT
  8
0
   2  
DISC
 62
3
   10
7.267
   20
10.687
   41
0.005
   42
0.005
  0
INSERT
  8
0
   2  
DISC
 62
3
   10
7.253
   20
10.650
   41
0.005
   42
0.005
  0
POLYLINE
  8
0
   66 
1
   70 
0
 62
3
   40
0.005
   41
0.005
  0
VERTEX
  8
0
   10
7.253
   20
10.650
  0
VERTEX
  8
0
   10
7.240
   20
10.687
   0  
SEQEND
  0
INSERT
  8
0
   2  
DISC
 62
3
   10
7.240
   20
10.687
   41
0.005
   42
0.005
  0
INSERT
  8
0
   2  
DISC
 62
3
   10
7.253
   20
13.949
   41
0.005
   42
0.005
  0
POLYLINE
  8
0
   66 
1
   70 
0
 62
3
   40
0.005
   41
0.005
  0
VERTEX
  8
0
   10
7.253
   20
13.949
  0
VERTEX
  8
0
   10
7.240
   20
13.912
   0  
SEQEND
  0
INSERT
  8
0
   2  
DISC
 62
3
   10
7.240
   20
13.912
   41
0.005
   42
0.005
  0
INSERT
  8
0
   2  
DISC
 62
3
   10
7.253
   20
13.949
   41
0.005
   42
0.005
  0
POLYLINE
  8
0
   66 
1
   70 
0
 62
3
   40
0.005
   41
0.005
  0
VERTEX
  8
0
   10
7.253
   20
13.949
  0
VERTEX
  8
0
   10
7.267
   20
13.912
   0  
SEQEND
  0
INSERT
  8
0
   2  
DISC
 62
3
   10
7.267
   20
13.912
   41
0.005
   42
0.005
  0
INSERT
  8
0
   2  
DISC
 62
3
   10
7.743
   20
10.650
   41
0.005
   42
0.005
  0
POLYLINE
  8
0
   66 
1
   70 
0
 62
3
   40
0.005
   41
0.005
  0
VERTEX
  8
0
   10
7.743
   20
10.650
  0
VERTEX
  8
0
   10
7.214
   20
10.650
   0  
SEQEND
  0
INSERT
  8
0
   2  
DISC
 62
3
   10
7.214
   20
10.650
   41
0.005
   42
0.005
  0
INSERT
  8
0
   2  
DISC
 62
3
   10
7.743
   20
13.949
   41
0.005
   42
0.005
  0
POLYLINE
  8
0
   66 
1
   70 
0
 62
3
   40
0.005
   41
0.005
  0
VERTEX
  8
0
   10
7.743
   20
13.949
  0
VERTEX
  8
0
   10
7.214
   20
13.949
   0  
SEQEND
  0
INSERT
  8
0
   2  
DISC
 62
3
   10
7.214
   20
13.949
   41
0.005
   42
0.005
  0
TEXT
  8
0
   10
7.296
   20
12.116
 62
3
   40
0.075
   41 
1.000
   39
0.012
   1  
83.8mm
 50
90.000
  0
INSERT
  8
0
   2  
DISC
 62
3
   10
8.035
   20
10.428
   41
0.005
   42
0.005
  0
POLYLINE
  8
0
   66 
1
   70 
0
 62
3
   40
0.005
   41
0.005
  0
VERTEX
  8
0
   10
8.035
   20
10.428
  0
VERTEX
  8
0
   10
8.153
   20
10.428
   0  
SEQEND
  0
INSERT
  8
0
   2  
DISC
 62
3
   10
8.153
   20
10.428
   41
0.005
   42
0.005
  0
INSERT
  8
0
   2  
DISC
 62
3
   10
7.783
   20
10.428
   41
0.005
   42
0.005
  0
POLYLINE
  8
0
   66 
1
   70 
0
 62
3
   40
0.005
   41
0.005
  0
VERTEX
  8
0
   10
7.783
   20
10.428
  0
VERTEX
  8
0
   10
7.665
   20
10.428
   0  
SEQEND
  0
INSERT
  8
0
   2  
DISC
 62
3
   10
7.665
   20
10.428
   41
0.005
   42
0.005
  0
INSERT
  8
0
   2  
DISC
 62
3
   10
8.035
   20
10.428
   41
0.005
   42
0.005
  0
POLYLINE
  8
0
   66 
1
   70 
0
 62
3
   40
0.005
   41
0.005
  0
VERTEX
  8
0
   10
8.035
   20
10.428
  0
VERTEX
  8
0
   10
8.072
   20
10.414
   0  
SEQEND
  0
INSERT
  8
0
   2  
DISC
 62
3
   10
8.072
   20
10.414
   41
0.005
   42
0.005
  0
INSERT
  8
0
   2  
DISC
 62
3
   10
8.035
   20
10.428
   41
0.005
   42
0.005
  0
POLYLINE
  8
0
   66 
1
   70 
0
 62
3
   40
0.005
   41
0.005
  0
VERTEX
  8
0
   10
8.035
   20
10.428
  0
VERTEX
  8
0
   10
8.072
   20
10.441
   0  
SEQEND
  0
INSERT
  8
0
   2  
DISC
 62
3
   10
8.072
   20
10.441
   41
0.005
   42
0.005
  0
INSERT
  8
0
   2  
DISC
 62
3
   10
7.783
   20
10.428
   41
0.005
   42
0.005
  0
POLYLINE
  8
0
   66 
1
   70 
0
 62
3
   40
0.005
   41
0.005
  0
VERTEX
  8
0
   10
7.783
   20
10.428
  0
VERTEX
  8
0
   10
7.746
   20
10.441
   0  
SEQEND
  0
INSERT
  8
0
   2  
DISC
 62
3
   10
7.746
   20
10.441
   41
0.005
   42
0.005
  0
INSERT
  8
0
   2  
DISC
 62
3
   10
7.783
   20
10.428
   41
0.005
   42
0.005
  0
POLYLINE
  8
0
   66 
1
   70 
0
 62
3
   40
0.005
   41
0.005
  0
VERTEX
  8
0
   10
7.783
   20
10.428
  0
VERTEX
  8
0
   10
7.746
   20
10.414
   0  
SEQEND
  0
INSERT
  8
0
   2  
DISC
 62
3
   10
7.746
   20
10.414
   41
0.005
   42
0.005
  0
INSERT
  8
0
   2  
DISC
 62
3
   10
8.035
   20
11.004
   41
0.005
   42
0.005
  0
POLYLINE
  8
0
   66 
1
   70 
0
 62
3
   40
0.005
   41
0.005
  0
VERTEX
  8
0
   10
8.035
   20
11.004
  0
VERTEX
  8
0
   10
8.035
   20
10.388
   0  
SEQEND
  0
INSERT
  8
0
   2  
DISC
 62
3
   10
8.035
   20
10.388
   41
0.005
   42
0.005
  0
INSERT
  8
0
   2  
DISC
 62
3
   10
7.783
   20
11.004
   41
0.005
   42
0.005
  0
POLYLINE
  8
0
   66 
1
   70 
0
 62
3
   40
0.005
   41
0.005
  0
VERTEX
  8
0
   10
7.783
   20
11.004
  0
VERTEX
  8
0
   10
7.783
   20
10.388
   0  
SEQEND
  0
INSERT
  8
0
   2  
DISC
 62
3
   10
7.783
   20
10.388
   41
0.005
   42
0.005
  0
TEXT
  8
0
   10
7.818
   20
10.300
 62
3
   40
0.075
   41 
1.000
   39
0.012
   1  
6.4mm
  0
INSERT
  8
0
   2  
DISC
 62
3
   10
7.667
   20
11.044
   41
0.005
   42
0.005
  0
POLYLINE
  8
0
   66 
1
   70 
0
 62
3
   40
0.005
   41
0.005
  0
VERTEX
  8
0
   10
7.667
   20
11.044
  0
VERTEX
  8
0
   10
7.667
   20
11.162
   0  
SEQEND
  0
INSERT
  8
0
   2  
DISC
 62
3
   10
7.667
   20
11.162
   41
0.005
   42
0.005
  0
INSERT
  8
0
   2  
DISC
 62
3
   10
7.667
   20
10.650
   41
0.005
   42
0.005
  0
POLYLINE
  8
0
   66 
1
   70 
0
 62
3
   40
0.005
   41
0.005
  0
VERTEX
  8
0
   10
7.667
   20
10.650
  0
VERTEX
  8
0
   10
7.667
   20
10.532
   0  
SEQEND
  0
INSERT
  8
0
   2  
DISC
 62
3
   10
7.667
   20
10.532
   41
0.005
   42
0.005
  0
INSERT
  8
0
   2  
DISC
 62
3
   10
7.667
   20
11.044
   41
0.005
   42
0.005
  0
POLYLINE
  8
0
   66 
1
   70 
0
 62
3
   40
0.005
   41
0.005
  0
VERTEX
  8
0
   10
7.667
   20
11.044
  0
VERTEX
  8
0
   10
7.680
   20
11.081
   0  
SEQEND
  0
INSERT
  8
0
   2  
DISC
 62
3
   10
7.680
   20
11.081
   41
0.005
   42
0.005
  0
INSERT
  8
0
   2  
DISC
 62
3
   10
7.667
   20
11.044
   41
0.005
   42
0.005
  0
POLYLINE
  8
0
   66 
1
   70 
0
 62
3
   40
0.005
   41
0.005
  0
VERTEX
  8
0
   10
7.667
   20
11.044
  0
VERTEX
  8
0
   10
7.653
   20
11.081
   0  
SEQEND
  0
INSERT
  8
0
   2  
DISC
 62
3
   10
7.653
   20
11.081
   41
0.005
   42
0.005
  0
INSERT
  8
0
   2  
DISC
 62
3
   10
7.667
   20
10.650
   41
0.005
   42
0.005
  0
POLYLINE
  8
0
   66 
1
   70 
0
 62
3
   40
0.005
   41
0.005
  0
VERTEX
  8
0
   10
7.667
   20
10.650
  0
VERTEX
  8
0
   10
7.653
   20
10.613
   0  
SEQEND
  0
INSERT
  8
0
   2  
DISC
 62
3
   10
7.653
   20
10.613
   41
0.005
   42
0.005
  0
INSERT
  8
0
   2  
DISC
 62
3
   10
7.667
   20
10.650
   41
0.005
   42
0.005
  0
POLYLINE
  8
0
   66 
1
   70 
0
 62
3
   40
0.005
   41
0.005
  0
VERTEX
  8
0
   10
7.667
   20
10.650
  0
VERTEX
  8
0
   10
7.680
   20
10.613
   0  
SEQEND
  0
INSERT
  8
0
   2  
DISC
 62
3
   10
7.680
   20
10.613
   41
0.005
   42
0.005
  0
INSERT
  8
0
   2  
DISC
 62
3
   10
7.993
   20
11.044
   41
0.005
   42
0.005
  0
POLYLINE
  8
0
   66 
1
   70 
0
 62
3
   40
0.005
   41
0.005
  0
VERTEX
  8
0
   10
7.993
   20
11.044
  0
VERTEX
  8
0
   10
7.627
   20
11.044
   0  
SEQEND
  0
INSERT
  8
0
   2  
DISC
 62
3
   10
7.627
   20
11.044
   41
0.005
   42
0.005
  0
INSERT
  8
0
   2  
DISC
 62
3
   10
7.993
   20
10.650
   41
0.005
   42
0.005
  0
POLYLINE
  8
0
   66 
1
   70 
0
 62
3
   40
0.005
   41
0.005
  0
VERTEX
  8
0
   10
7.993
   20
10.650
  0
VERTEX
  8
0
   10
7.627
   20
10.650
   0  
SEQEND
  0
INSERT
  8
0
   2  
DISC
 62
3
   10
7.627
   20
10.650
   41
0.005
   42
0.005
  0
TEXT
  8
0
   10
7.696
   20
11.215
 62
3
   40
0.075
   41 
1.000
   39
0.012
   1  
10.0mm
 50
90.000
  0
INSERT
  8
0
   2  
DISC
 62
3
   10
10.447
   20
10.164
   41
0.005
   42
0.005
  0
POLYLINE
  8
0
   66 
1
   70 
0
 62
3
   40
0.005
   41
0.005
  0
VERTEX
  8
0
   10
10.447
   20
10.164
  0
VERTEX
  8
0
   10
10.415
   20
10.164
   0  
SEQEND
  0
INSERT
  8
0
   2  
DISC
 62
3
   10
10.415
   20
10.164
   41
0.005
   42
0.005
  0
INSERT
  8
0
   2  
DISC
 62
3
   10
10.888
   20
10.164
   41
0.005
   42
0.005
  0
POLYLINE
  8
0
   66 
1
   70 
0
 62
3
   40
0.005
   41
0.005
  0
VERTEX
  8
0
   10
10.888
   20
10.164
  0
VERTEX
  8
0
   10
10.851
   20
10.177
   0  
SEQEND
  0
INSERT
  8
0
   2  
DISC
 62
3
   10
10.851
   20
10.177
   41
0.005
   42
0.005
  0
INSERT
  8
0
   2  
DISC
 62
3
   10
10.888
   20
10.164
   41
0.005
   42
0.005
  0
POLYLINE
  8
0
   66 
1
   70 
0
 62
3
   40
0.005
   41
0.005
  0
VERTEX
  8
0
   10
10.888
   20
10.164
  0
VERTEX
  8
0
   10
10.851
   20
10.150
   0  
SEQEND
  0
INSERT
  8
0
   2  
DISC
 62
3
   10
10.851
   20
10.150
   41
0.005
   42
0.005
  0
INSERT
  8
0
   2  
DISC
 62
3
   10
10.415
   20
10.164
   41
0.005
   42
0.005
  0
POLYLINE
  8
0
   66 
1
   70 
0
 62
3
   40
0.005
   41
0.005
  0
VERTEX
  8
0
   10
10.415
   20
10.164
  0
VERTEX
  8
0
   10
10.452
   20
10.150
   0  
SEQEND
  0
INSERT
  8
0
   2  
DISC
 62
3
   10
10.452
   20
10.150
   41
0.005
   42
0.005
  0
INSERT
  8
0
   2  
DISC
 62
3
   10
10.415
   20
10.164
   41
0.005
   42
0.005
  0
POLYLINE
  8
0
   66 
1
   70 
0
 62
3
   40
0.005
   41
0.005
  0
VERTEX
  8
0
   10
10.415
   20
10.164
  0
VERTEX
  8
0
   10
10.452
   20
10.177
   0  
SEQEND
  0
INSERT
  8
0
   2  
DISC
 62
3
   10
10.452
   20
10.177
   41
0.005
   42
0.005
  0
INSERT
  8
0
   2  
DISC
 62
3
   10
10.888
   20
10.611
   41
0.005
   42
0.005
  0
POLYLINE
  8
0
   66 
1
   70 
0
 62
3
   40
0.005
   41
0.005
  0
VERTEX
  8
0
   10
10.888
   20
10.611
  0
VERTEX
  8
0
   10
10.888
   20
10.124
   0  
SEQEND
  0
INSERT
  8
0
   2  
DISC
 62
3
   10
10.888
   20
10.124
   41
0.005
   42
0.005
  0
INSERT
  8
0
   2  
DISC
 62
3
   10
10.415
   20
10.611
   41
0.005
   42
0.005
  0
POLYLINE
  8
0
   66 
1
   70 
0
 62
3
   40
0.005
   41
0.005
  0
VERTEX
  8
0
   10
10.415
   20
10.611
  0
VERTEX
  8
0
   10
10.415
   20
10.124
   0  
SEQEND
  0
INSERT
  8
0
   2  
DISC
 62
3
   10
10.415
   20
10.124
   41
0.005
   42
0.005
  0
TEXT
  8
0
   10
10.492
   20
10.120
 62
3
   40
0.075
   41 
1.000
   39
0.012
   1  
12.0mm
  0
INSERT
  8
0
   2  
DISC
 62
3
   10
10.083
   20
10.650
   41
0.005
   42
0.005
  0
POLYLINE
  8
0
   66 
1
   70 
0
 62
3
   40
0.005
   41
0.005
  0
VERTEX
  8
0
   10
10.083
   20
10.650
  0
VERTEX
  8
0
   10
10.083
   20
11.011
   0  
SEQEND
  0
INSERT
  8
0
   2  
DISC
 62
3
   10
10.083
   20
11.011
   41
0.005
   42
0.005
  0
INSERT
  8
0
   2  
DISC
 62
3
   10
10.083
   20
11.515
   41
0.005
   42
0.005
  0
POLYLINE
  8
0
   66 
1
   70 
0
 62
3
   40
0.005
   41
0.005
  0
VERTEX
  8
0
   10
10.083
   20
11.515
  0
VERTEX
  8
0
   10
10.083
   20
11.831
   0  
SEQEND
  0
INSERT
  8
0
   2  
DISC
 62
3
   10
10.083
   20
11.831
   41
0.005
   42
0.005
  0
INSERT
  8
0
   2  
DISC
 62
3
   10
10.083
   20
11.831
   41
0.005
   42
0.005
  0
POLYLINE
  8
0
   66 
1
   70 
0
 62
3
   40
0.005
   41
0.005
  0
VERTEX
  8
0
   10
10.083
   20
11.831
  0
VERTEX
  8
0
   10
10.069
   20
11.794
   0  
SEQEND
  0
INSERT
  8
0
   2  
DISC
 62
3
   10
10.069
   20
11.794
   41
0.005
   42
0.005
  0
INSERT
  8
0
   2  
DISC
 62
3
   10
10.083
   20
11.831
   41
0.005
   42
0.005
  0
POLYLINE
  8
0
   66 
1
   70 
0
 62
3
   40
0.005
   41
0.005
  0
VERTEX
  8
0
   10
10.083
   20
11.831
  0
VERTEX
  8
0
   10
10.096
   20
11.794
   0  
SEQEND
  0
INSERT
  8
0
   2  
DISC
 62
3
   10
10.096
   20
11.794
   41
0.005
   42
0.005
  0
INSERT
  8
0
   2  
DISC
 62
3
   10
10.083
   20
10.650
   41
0.005
   42
0.005
  0
POLYLINE
  8
0
   66 
1
   70 
0
 62
3
   40
0.005
   41
0.005
  0
VERTEX
  8
0
   10
10.083
   20
10.650
  0
VERTEX
  8
0
   10
10.096
   20
10.687
   0  
SEQEND
  0
INSERT
  8
0
   2  
DISC
 62
3
   10
10.096
   20
10.687
   41
0.005
   42
0.005
  0
INSERT
  8
0
   2  
DISC
 62
3
   10
10.083
   20
10.650
   41
0.005
   42
0.005
  0
POLYLINE
  8
0
   66 
1
   70 
0
 62
3
   40
0.005
   41
0.005
  0
VERTEX
  8
0
   10
10.083
   20
10.650
  0
VERTEX
  8
0
   10
10.069
   20
10.687
   0  
SEQEND
  0
INSERT
  8
0
   2  
DISC
 62
3
   10
10.069
   20
10.687
   41
0.005
   42
0.005
  0
INSERT
  8
0
   2  
DISC
 62
3
   10
10.626
   20
11.831
   41
0.005
   42
0.005
  0
POLYLINE
  8
0
   66 
1
   70 
0
 62
3
   40
0.005
   41
0.005
  0
VERTEX
  8
0
   10
10.626
   20
11.831
  0
VERTEX
  8
0
   10
10.043
   20
11.831
   0  
SEQEND
  0
INSERT
  8
0
   2  
DISC
 62
3
   10
10.043
   20
11.831
   41
0.005
   42
0.005
  0
INSERT
  8
0
   2  
DISC
 62
3
   10
10.612
   20
10.650
   41
0.005
   42
0.005
  0
POLYLINE
  8
0
   66 
1
   70 
0
 62
3
   40
0.005
   41
0.005
  0
VERTEX
  8
0
   10
10.612
   20
10.650
  0
VERTEX
  8
0
   10
10.043
   20
10.650
   0  
SEQEND
  0
INSERT
  8
0
   2  
DISC
 62
3
   10
10.043
   20
10.650
   41
0.005
   42
0.005
  0
TEXT
  8
0
   10
10.125
   20
11.057
 62
3
   40
0.075
   41 
1.000
   39
0.012
   1  
30.0mm
 50
90.000
  0
INSERT
  8
0
   2  
DISC
 62
3
   10
9.886
   20
10.650
   41
0.005
   42
0.005
  0
POLYLINE
  8
0
   66 
1
   70 
0
 62
3
   40
0.005
   41
0.005
  0
VERTEX
  8
0
   10
9.886
   20
10.650
  0
VERTEX
  8
0
   10
9.886
   20
11.208
   0  
SEQEND
  0
INSERT
  8
0
   2  
DISC
 62
3
   10
9.886
   20
11.208
   41
0.005
   42
0.005
  0
INSERT
  8
0
   2  
DISC
 62
3
   10
9.886
   20
11.711
   41
0.005
   42
0.005
  0
POLYLINE
  8
0
   66 
1
   70 
0
 62
3
   40
0.005
   41
0.005
  0
VERTEX
  8
0
   10
9.886
   20
11.711
  0
VERTEX
  8
0
   10
9.886
   20
12.225
   0  
SEQEND
  0
INSERT
  8
0
   2  
DISC
 62
3
   10
9.886
   20
12.225
   41
0.005
   42
0.005
  0
INSERT
  8
0
   2  
DISC
 62
3
   10
9.886
   20
10.650
   41
0.005
   42
0.005
  0
POLYLINE
  8
0
   66 
1
   70 
0
 62
3
   40
0.005
   41
0.005
  0
VERTEX
  8
0
   10
9.886
   20
10.650
  0
VERTEX
  8
0
   10
9.899
   20
10.687
   0  
SEQEND
  0
INSERT
  8
0
   2  
DISC
 62
3
   10
9.899
   20
10.687
   41
0.005
   42
0.005
  0
INSERT
  8
0
   2  
DISC
 62
3
   10
9.886
   20
10.650
   41
0.005
   42
0.005
  0
POLYLINE
  8
0
   66 
1
   70 
0
 62
3
   40
0.005
   41
0.005
  0
VERTEX
  8
0
   10
9.886
   20
10.650
  0
VERTEX
  8
0
   10
9.872
   20
10.687
   0  
SEQEND
  0
INSERT
  8
0
   2  
DISC
 62
3
   10
9.872
   20
10.687
   41
0.005
   42
0.005
  0
INSERT
  8
0
   2  
DISC
 62
3
   10
9.886
   20
12.225
   41
0.005
   42
0.005
  0
POLYLINE
  8
0
   66 
1
   70 
0
 62
3
   40
0.005
   41
0.005
  0
VERTEX
  8
0
   10
9.886
   20
12.225
  0
VERTEX
  8
0
   10
9.872
   20
12.188
   0  
SEQEND
  0
INSERT
  8
0
   2  
DISC
 62
3
   10
9.872
   20
12.188
   41
0.005
   42
0.005
  0
INSERT
  8
0
   2  
DISC
 62
3
   10
9.886
   20
12.225
   41
0.005
   42
0.005
  0
POLYLINE
  8
0
   66 
1
   70 
0
 62
3
   40
0.005
   41
0.005
  0
VERTEX
  8
0
   10
9.886
   20
12.225
  0
VERTEX
  8
0
   10
9.899
   20
12.188
   0  
SEQEND
  0
INSERT
  8
0
   2  
DISC
 62
3
   10
9.899
   20
12.188
   41
0.005
   42
0.005
  0
INSERT
  8
0
   2  
DISC
 62
3
   10
10.376
   20
10.650
   41
0.005
   42
0.005
  0
POLYLINE
  8
0
   66 
1
   70 
0
 62
3
   40
0.005
   41
0.005
  0
VERTEX
  8
0
   10
10.376
   20
10.650
  0
VERTEX
  8
0
   10
9.846
   20
10.650
   0  
SEQEND
  0
INSERT
  8
0
   2  
DISC
 62
3
   10
9.846
   20
10.650
   41
0.005
   42
0.005
  0
INSERT
  8
0
   2  
DISC
 62
3
   10
10.376
   20
12.225
   41
0.005
   42
0.005
  0
POLYLINE
  8
0
   66 
1
   70 
0
 62
3
   40
0.005
   41
0.005
  0
VERTEX
  8
0
   10
10.376
   20
12.225
  0
VERTEX
  8
0
   10
9.846
   20
12.225
   0  
SEQEND
  0
INSERT
  8
0
   2  
DISC
 62
3
   10
9.846
   20
12.225
   41
0.005
   42
0.005
  0
TEXT
  8
0
   10
9.928
   20
11.254
 62
3
   40
0.075
   41 
1.000
   39
0.012
   1  
40.0mm
 50
90.000
  0
INSERT
  8
0
   2  
DISC
 62
3
   10
10.667
   20
10.428
   41
0.005
   42
0.005
  0
POLYLINE
  8
0
   66 
1
   70 
0
 62
3
   40
0.005
   41
0.005
  0
VERTEX
  8
0
   10
10.667
   20
10.428
  0
VERTEX
  8
0
   10
10.785
   20
10.428
   0  
SEQEND
  0
INSERT
  8
0
   2  
DISC
 62
3
   10
10.785
   20
10.428
   41
0.005
   42
0.005
  0
INSERT
  8
0
   2  
DISC
 62
3
   10
10.415
   20
10.428
   41
0.005
   42
0.005
  0
POLYLINE
  8
0
   66 
1
   70 
0
 62
3
   40
0.005
   41
0.005
  0
VERTEX
  8
0
   10
10.415
   20
10.428
  0
VERTEX
  8
0
   10
10.297
   20
10.428
   0  
SEQEND
  0
INSERT
  8
0
   2  
DISC
 62
3
   10
10.297
   20
10.428
   41
0.005
   42
0.005
  0
INSERT
  8
0
   2  
DISC
 62
3
   10
10.667
   20
10.428
   41
0.005
   42
0.005
  0
POLYLINE
  8
0
   66 
1
   70 
0
 62
3
   40
0.005
   41
0.005
  0
VERTEX
  8
0
   10
10.667
   20
10.428
  0
VERTEX
  8
0
   10
10.704
   20
10.414
   0  
SEQEND
  0
INSERT
  8
0
   2  
DISC
 62
3
   10
10.704
   20
10.414
   41
0.005
   42
0.005
  0
INSERT
  8
0
   2  
DISC
 62
3
   10
10.667
   20
10.428
   41
0.005
   42
0.005
  0
POLYLINE
  8
0
   66 
1
   70 
0
 62
3
   40
0.005
   41
0.005
  0
VERTEX
  8
0
   10
10.667
   20
10.428
  0
VERTEX
  8
0
   10
10.704
   20
10.441
   0  
SEQEND
  0
INSERT
  8
0
   2  
DISC
 62
3
   10
10.704
   20
10.441
   41
0.005
   42
0.005
  0
INSERT
  8
0
   2  
DISC
 62
3
   10
10.415
   20
10.428
   41
0.005
   42
0.005
  0
POLYLINE
  8
0
   66 
1
   70 
0
 62
3
   40
0.005
   41
0.005
  0
VERTEX
  8
0
   10
10.415
   20
10.428
  0
VERTEX
  8
0
   10
10.378
   20
10.441
   0  
SEQEND
  0
INSERT
  8
0
   2  
DISC
 62
3
   10
10.378
   20
10.441
   41
0.005
   42
0.005
  0
INSERT
  8
0
   2  
DISC
 62
3
   10
10.415
   20
10.428
   41
0.005
   42
0.005
  0
POLYLINE
  8
0
   66 
1
   70 
0
 62
3
   40
0.005
   41
0.005
  0
VERTEX
  8
0
   10
10.415
   20
10.428
  0
VERTEX
  8
0
   10
10.378
   20
10.414
   0  
SEQEND
  0
INSERT
  8
0
   2  
DISC
 62
3
   10
10.378
   20
10.414
   41
0.005
   42
0.005
  0
INSERT
  8
0
   2  
DISC
 62
3
   10
10.667
   20
11.004
   41
0.005
   42
0.005
  0
POLYLINE
  8
0
   66 
1
   70 
0
 62
3
   40
0.005
   41
0.005
  0
VERTEX
  8
0
   10
10.667
   20
11.004
  0
VERTEX
  8
0
   10
10.667
   20
10.388
   0  
SEQEND
  0
INSERT
  8
0
   2  
DISC
 62
3
   10
10.667
   20
10.388
   41
0.005
   42
0.005
  0
INSERT
  8
0
   2  
DISC
 62
3
   10
10.415
   20
11.004
   41
0.005
   42
0.005
  0
POLYLINE
  8
0
   66 
1
   70 
0
 62
3
   40
0.005
   41
0.005
  0
VERTEX
  8
0
   10
10.415
   20
11.004
  0
VERTEX
  8
0
   10
10.415
   20
10.388
   0  
SEQEND
  0
INSERT
  8
0
   2  
DISC
 62
3
   10
10.415
   20
10.388
   41
0.005
   42
0.005
  0
TEXT
  8
0
   10
10.451
   20
10.300
 62
3
   40
0.075
   41 
1.000
   39
0.012
   1  
6.4mm
  0
INSERT
  8
0
   2  
DISC
 62
3
   10
10.299
   20
11.044
   41
0.005
   42
0.005
  0
POLYLINE
  8
0
   66 
1
   70 
0
 62
3
   40
0.005
   41
0.005
  0
VERTEX
  8
0
   10
10.299
   20
11.044
  0
VERTEX
  8
0
   10
10.299
   20
11.162
   0  
SEQEND
  0
INSERT
  8
0
   2  
DISC
 62
3
   10
10.299
   20
11.162
   41
0.005
   42
0.005
  0
INSERT
  8
0
   2  
DISC
 62
3
   10
10.299
   20
10.650
   41
0.005
   42
0.005
  0
POLYLINE
  8
0
   66 
1
   70 
0
 62
3
   40
0.005
   41
0.005
  0
VERTEX
  8
0
   10
10.299
   20
10.650
  0
VERTEX
  8
0
   10
10.299
   20
10.532
   0  
SEQEND
  0
INSERT
  8
0
   2  
DISC
 62
3
   10
10.299
   20
10.532
   41
0.005
   42
0.005
  0
INSERT
  8
0
   2  
DISC
 62
3
   10
10.299
   20
11.044
   41
0.005
   42
0.005
  0
POLYLINE
  8
0
   66 
1
   70 
0
 62
3
   40
0.005
   41
0.005
  0
VERTEX
  8
0
   10
10.299
   20
11.044
  0
VERTEX
  8
0
   10
10.313
   20
11.081
   0  
SEQEND
  0
INSERT
  8
0
   2  
DISC
 62
3
   10
10.313
   20
11.081
   41
0.005
   42
0.005
  0
INSERT
  8
0
   2  
DISC
 62
3
   10
10.299
   20
11.044
   41
0.005
   42
0.005
  0
POLYLINE
  8
0
   66 
1
   70 
0
 62
3
   40
0.005
   41
0.005
  0
VERTEX
  8
0
   10
10.299
   20
11.044
  0
VERTEX
  8
0
   10
10.286
   20
11.081
   0  
SEQEND
  0
INSERT
  8
0
   2  
DISC
 62
3
   10
10.286
   20
11.081
   41
0.005
   42
0.005
  0
INSERT
  8
0
   2  
DISC
 62
3
   10
10.299
   20
10.650
   41
0.005
   42
0.005
  0
POLYLINE
  8
0
   66 
1
   70 
0
 62
3
   40
0.005
   41
0.005
  0
VERTEX
  8
0
   10
10.299
   20
10.650
  0
VERTEX
  8
0
   10
10.286
   20
10.613
   0  
SEQEND
  0
INSERT
  8
0
   2  
DISC
 62
3
   10
10.286
   20
10.613
   41
0.005
   42
0.005
  0
INSERT
  8
0
   2  
DISC
 62
3
   10
10.299
   20
10.650
   41
0.005
   42
0.005
  0
POLYLINE
  8
0
   66 
1
   70 
0
 62
3
   40
0.005
   41
0.005
  0
VERTEX
  8
0
   10
10.299
   20
10.650
  0
VERTEX
  8
0
   10
10.313
   20
10.613
   0  
SEQEND
  0
INSERT
  8
0
   2  
DISC
 62
3
   10
10.313
   20
10.613
   41
0.005
   42
0.005
  0
INSERT
  8
0
   2  
DISC
 62
3
   10
10.626
   20
11.044
   41
0.005
   42
0.005
  0
POLYLINE
  8
0
   66 
1
   70 
0
 62
3
   40
0.005
   41
0.005
  0
VERTEX
  8
0
   10
10.626
   20
11.044
  0
VERTEX
  8
0
   10
10.260
   20
11.044
   0  
SEQEND
  0
INSERT
  8
0
   2  
DISC
 62
3
   10
10.260
   20
11.044
   41
0.005
   42
0.005
  0
INSERT
  8
0
   2  
DISC
 62
3
   10
10.626
   20
10.650
   41
0.005
   42
0.005
  0
POLYLINE
  8
0
   66 
1
   70 
0
 62
3
   40
0.005
   41
0.005
  0
VERTEX
  8
0
   10
10.626
   20
10.650
  0
VERTEX
  8
0
   10
10.260
   20
10.650
   0  
SEQEND
  0
INSERT
  8
0
   2  
DISC
 62
3
   10
10.260
   20
10.650
   41
0.005
   42
0.005
  0
TEXT
  8
0
   10
10.329
   20
11.215
 62
3
   40
0.075
   41 
1.000
   39
0.012
   1  
10.0mm
 50
90.000
   0  
ENDSEC
   0  
EOF
