%
T1C.012F095S3
X10572Y10336
X10215Y12445
X10215Y12485
X10215Y1268
X10215Y1273
X10628Y13125
X10275Y1313
X10382Y13227
X10338Y13234
X1087Y14266
X10766Y14247
X10689Y142
X10732Y14185
X10761Y14142
X10846Y14106
X10708Y13266
X1087Y118981
X107Y11838
X1086Y118131
X10667Y11767
X10786Y11748
X10783Y11708
X10707Y11696
X1084Y116581
X10736Y11575
X1083Y115681
X10675Y114031
X1088Y114031
X1075Y113681
X108512Y113431
X10885Y112181
X107Y111781
X10825Y111781
X10745Y10435
X11015Y111731
X11135Y111781
X1095Y111781
X1101Y112631
X10975Y113431
X1105Y114031
X1105Y115681
X111Y115681
X11015Y115681
X1098Y116381
X11025Y116631
X1113Y119281
X1093Y12884
X11116Y1291
X1104Y14095
X11102Y14097
X10919Y14101
X10919Y14255
X11091Y14263
X11041Y14265
X11148Y14254
X1122Y14253
X11296Y14251
X1137Y14251
X1137Y14105
X11296Y14103
X11241Y14094
X11145Y14092
X112Y1301
X11215Y1297
X11259Y12899
X11245Y119531
X1129Y118981
X11323Y11739
X11306Y1168
X11275Y116581
X11205Y116081
X1125Y115881
X1135Y115731
X1117Y115681
X11225Y113881
X11175Y113431
X113Y113431
X1126Y112631
X1135Y111781
X11215Y111781
X11348Y10377
X11575Y111781
X1147Y111781
X11635Y113281
X114762Y113431
X11425Y113431
X1163Y114031
X11425Y114031
X11425Y115681
X11555Y115681
X1147Y115681
X11605Y115681
X11474Y11768
X11446Y11893
X11575Y119031
X11519Y14095
X11445Y14102
X11596Y14108
X11596Y14252
X11522Y14252
X11446Y14254
X11658Y14256
X1182Y14253
X11756Y14253
X11669Y14105
X11744Y14102
X1182Y14101
X11675Y119381
X11748Y11862
X1179Y11832
X117Y11785
X1185Y115731
X117262Y115681
X1173Y114081
X1185Y114031
X11725Y113431
X11765Y113431
X118512Y113431
X1164Y112681
X11765Y1126
X117Y111781
X1185Y111781
X122Y11175
X122Y11275
X12084Y11319
X122Y11375
X12024Y11446
X122Y11475
X11965Y1151
X122Y11575
X11971Y11714
X12015Y1404
X12184Y14046
X11895Y14106
X1197Y14107
X11969Y14264
X11894Y14267
X1248Y11575
X1248Y11475
X1248Y11375
X1248Y11275
X1248Y11175
T2C.01969F095S3
X105502Y120203
X106289Y120243
X105502Y120754
X106289Y120794
X105502Y121305
X106289Y121345
X105502Y121857
X106289Y121896
X105502Y122408
X106289Y122447
X105502Y122959
X106289Y122998
X105502Y12351
X106289Y12355
X105502Y124061
X106289Y124101
X105502Y124613
X106289Y124652
X105502Y125164
X106289Y125203
X105502Y125715
X106289Y125754
X105502Y126266
X106289Y126305
X105502Y126817
X106289Y126857
X105502Y127368
X106289Y127408
X105502Y12792
X106289Y127959
X107864Y127959
X107077Y12792
X108652Y12792
X107864Y127408
X107077Y127368
X108652Y127368
X107864Y126857
X107077Y126817
X108652Y126817
X107864Y126305
X108652Y126266
X107077Y126266
X107864Y125754
X108652Y125715
X107077Y125715
X107864Y125203
X108652Y125164
X107077Y125164
X107864Y124652
X108652Y124613
X107077Y124613
X107864Y124101
X108652Y124061
X107077Y124061
X107864Y12355
X107077Y12351
X108652Y12351
X107864Y122998
X107077Y122959
X108652Y122959
X107864Y122447
X108652Y122408
X107077Y122408
X107864Y121896
X108652Y121857
X107077Y121857
X107864Y121345
X108652Y121305
X107077Y121305
X107864Y120794
X108652Y120754
X107077Y120754
X107864Y120243
X108652Y120203
X107077Y120203
X110226Y120203
X111014Y120243
X109439Y120243
X110226Y120754
X111014Y120794
X109439Y120794
X110226Y121305
X109439Y121345
X111014Y121345
X110226Y121857
X111014Y121896
X109439Y121896
X110226Y122408
X109439Y122447
X111014Y122447
X110226Y122959
X109439Y122998
X111014Y122998
X110226Y12351
X109439Y12355
X111014Y12355
X110226Y124061
X109439Y124101
X111014Y124101
X110226Y124613
X111014Y124652
X109439Y124652
X110226Y125164
X111014Y125203
X109439Y125203
X110226Y125715
X109439Y125754
X111014Y125754
X110226Y126266
X111014Y126305
X109439Y126305
X110226Y126817
X109439Y126857
X111014Y126857
X110226Y127368
X109439Y127408
X111014Y127408
X110226Y12792
X109439Y127959
X111014Y127959
X112589Y127959
X111801Y12792
X112589Y127408
X111801Y127368
X112589Y126857
X111801Y126817
X112589Y126305
X111801Y126266
X112589Y125754
X111801Y125715
X112589Y125203
X111801Y125164
X112589Y124652
X111801Y124613
X112589Y124101
X111801Y124061
X112589Y12355
X111801Y12351
X112589Y122998
X111801Y122959
X112589Y122447
X111801Y122408
X112589Y121896
X111801Y121857
X112589Y121345
X111801Y121305
X112589Y120794
X111801Y120754
X112589Y120243
X111801Y120203
X115758Y120203
X114183Y120203
X11497Y120243
X114183Y120754
X115758Y120754
X11497Y120794
X114183Y121306
X115758Y121306
X11497Y121345
X114183Y121857
X115758Y121857
X11497Y121896
X114183Y122408
X115758Y122408
X11497Y122447
X114183Y122959
X115758Y122959
X11497Y122998
X114183Y12351
X115758Y12351
X11497Y12355
X114183Y124061
X115758Y124061
X11497Y124101
X114183Y124613
X115758Y124613
X11497Y124652
X114183Y125164
X115758Y125164
X11497Y125203
X114183Y125715
X115758Y125715
X11497Y125754
X114183Y126266
X115758Y126266
X11497Y126306
X114183Y126817
X115758Y126817
X11497Y126857
X114183Y127369
X115758Y127369
X11497Y127408
X114183Y12792
X115758Y12792
X11497Y127959
X116545Y127959
X11812Y127959
X117333Y12792
X116545Y127408
X11812Y127408
X117333Y127369
X116545Y126857
X11812Y126857
X117333Y126817
X11812Y126306
X116545Y126306
X117333Y126266
X11812Y125754
X116545Y125754
X117333Y125715
X11812Y125203
X116545Y125203
X117333Y125164
X116545Y124652
X11812Y124652
X117333Y124613
X116545Y124101
X11812Y124101
X117333Y124061
X11812Y12355
X116545Y12355
X117333Y12351
X11812Y122998
X116545Y122998
X117333Y122959
X11812Y122447
X116545Y122447
X117333Y122408
X11812Y121896
X116545Y121896
X117333Y121857
X11812Y121345
X116545Y121345
X117333Y121306
X116545Y120794
X11812Y120794
X117333Y120754
X116545Y120243
X11812Y120243
X117333Y120203
X120482Y120203
X118907Y120203
X119695Y120243
X12127Y120243
X118907Y120754
X120482Y120754
X119695Y120794
X12127Y120794
X118907Y121306
X120482Y121306
X12127Y121345
X119695Y121345
X120482Y121857
X118907Y121857
X119695Y121896
X12127Y121896
X120482Y122408
X118907Y122408
X12127Y122447
X119695Y122447
X120482Y122959
X118907Y122959
X12127Y122998
X119695Y122998
X120482Y12351
X118907Y12351
X119695Y12355
X12127Y12355
X120482Y124061
X118907Y124061
X12127Y124101
X119695Y124101
X118907Y124613
X120482Y124613
X119695Y124652
X12127Y124652
X118907Y125164
X120482Y125164
X119695Y125203
X12127Y125203
X118907Y125715
X120482Y125715
X119695Y125754
X12127Y125754
X120482Y126266
X118907Y126266
X12127Y126306
X119695Y126306
X120482Y126817
X118907Y126817
X12127Y126857
X119695Y126857
X118907Y127369
X120482Y127369
X12127Y127408
X119695Y127408
X118907Y12792
X120482Y12792
X12127Y127959
X119695Y127959
T3C.02F197S55
X10471Y1075
X10349Y10793
X103653Y109633
X103153Y109633
X103153Y110633
X103653Y110633
X1039Y11905
X1031Y11905
X10325Y1269
X10325Y12785
X10422Y13421
X1056Y13445
X1045Y13455
X1088Y14035
X10995Y14035
X11334Y13976
X1088Y13975
X10995Y13975
X11042Y13303
X10916Y13302
X11259Y13287
X11141Y13287
X113482Y110693
X113482Y109693
X11481Y1055
X11482Y10755
X113982Y109693
X113982Y110693
X11784Y13277
X11677Y13278
X1142Y13289
X11545Y1329
X11645Y1397
X11775Y1397
X11449Y13975
X11775Y1403
X11645Y1403
X12204Y1395
X12283Y13872
X12342Y13847
T4C.03937F197S55
X1014Y1061
X1024Y1061
X1024Y1071
X1014Y1071
X1014Y1378
X1024Y1378
X1024Y1388
X1014Y1388
X124Y13665
X125Y13665
X124Y13565
X125Y13565
X124Y1071
X125Y1071
X124Y1061
X125Y1061
T5C.04F139S55
X106386Y101183
X108386Y101183
X107386Y101183
X106386Y102183
X108386Y102183
X107386Y102183
X106386Y143617
X107386Y143617
X108386Y143617
X107386Y144617
X106386Y144617
X108386Y144617
X109386Y144617
X110386Y144617
X111386Y144617
X112386Y144617
X113386Y144617
X109386Y143617
X110386Y143617
X111386Y143617
X112386Y143617
X113386Y143617
X112386Y102183
X113386Y102183
X111386Y102183
X110386Y102183
X109386Y102183
X110386Y101183
X112386Y101183
X109386Y101183
X113386Y101183
X111386Y101183
X114386Y101183
X115386Y101183
X116386Y101183
X118386Y101183
X117386Y101183
X116386Y102183
X115386Y102183
X118386Y102183
X114386Y102183
X117386Y102183
X116386Y143617
X114386Y143617
X115386Y143617
X117386Y143617
X118386Y143617
X115386Y144617
X114386Y144617
X117386Y144617
X116386Y144617
X118386Y144617
X119386Y144617
X120386Y144617
X119386Y143617
X120386Y143617
X120386Y102183
X119386Y102183
X120386Y101183
X119386Y101183
T6C.12795F035S794
X11811Y107709
T7C.21063F0S0
X103937Y116406
X122835Y13176
M30
