*
*
G04 PADS 9.3 Build Number: 433611 generated Gerber (RS-274-X) file*
G04 PC Version=2.1*
*
%IN "FTC-AM1_REV_A_BOARD2.pc"*%
*
%MOIN*%
*
%FSLAX35Y35*%
*
*
*
*
G04 PC Standard Apertures*
*
*
G04 Thermal Relief Aperture macro.*
%AMTER*
1,1,$1,0,0*
1,0,$1-$2,0,0*
21,0,$3,$4,0,0,45*
21,0,$3,$4,0,0,135*
%
*
*
G04 Annular Aperture macro.*
%AMANN*
1,1,$1,0,0*
1,0,$2,0,0*
%
*
*
G04 Odd Aperture macro.*
%AMODD*
1,1,$1,0,0*
1,0,$1-0.005,0,0*
%
*
*
G04 PC Custom Aperture Macros*
*
*
*
*
*
*
G04 PC Aperture Table*
*
%ADD010C,0.001*%
%ADD061C,0.01*%
%ADD062C,0.008*%
%ADD063C,0.006*%
%ADD075C,0.00787*%
%ADD078C,0.005*%
*
*
*
*
G04 PC Circuitry*
G04 Layer Name FTC-AM1_REV_A_BOARD2.pc - circuitry*
%LPD*%
*
*
G04 PC Custom Flashes*
G04 Layer Name FTC-AM1_REV_A_BOARD2.pc - flashes*
%LPD*%
*
*
G04 PC Circuitry*
G04 Layer Name FTC-AM1_REV_A_BOARD2.pc - circuitry*
%LPD*%
*
G54D10*
G54D61*
G01X1055858Y1454891D02*
X1211858D01*
Y1431391*
X1055858*
Y1454891*
X1103958Y1455441D02*
Y1459841D01*
X1153858Y1455391D02*
Y1459791D01*
X1055858Y1026609D02*
X1211858D01*
Y1003109*
X1055858*
Y1026609*
X1103958Y1027159D02*
Y1031559D01*
X1153858Y1027109D02*
Y1031509D01*
X1213000Y1072500D02*
Y1084000D01*
X1197000*
Y1072500*
X1213000Y1060500D02*
Y1051500D01*
X1210500Y1049000*
X1199500*
X1197000Y1051500*
Y1060500*
X1240000Y1072500D02*
Y1084000D01*
X1224000*
Y1072500*
X1240000Y1060500D02*
Y1051500D01*
X1237500Y1049000*
X1226500*
X1224000Y1051500*
Y1060500*
X1192500Y1072500D02*
Y1084000D01*
X1176500*
Y1072500*
X1192500Y1060500D02*
Y1051500D01*
X1190000Y1049000*
X1179000*
X1176500Y1051500*
Y1060500*
X1224000Y1098500D02*
Y1087000D01*
X1240000*
Y1098500*
X1224000Y1110500D02*
Y1119500D01*
X1226500Y1122000*
X1237500*
X1240000Y1119500*
Y1110500*
X1197000Y1098500D02*
Y1087000D01*
X1213000*
Y1098500*
X1197000Y1110500D02*
Y1119500D01*
X1199500Y1122000*
X1210500*
X1213000Y1119500*
Y1110500*
X1250000Y1305787D02*
G75*
G03X1250000I-21654J0D01*
G01X1061024Y1152244D02*
G03X1061024I-21654J0D01*
G01X1076649Y1566420D02*
X1076422Y1567045D01*
X1075967Y1567670*
X1075513Y1567983*
X1075513D02*
X1074604D01*
X1074604D02*
X1074149Y1567670D01*
X1073695Y1567045*
X1073467Y1566420*
X1073240Y1565483*
X1073240D02*
Y1563920D01*
X1073467Y1562983*
X1073467D02*
X1073695Y1562358D01*
X1073695D02*
X1074149Y1561733D01*
X1074149D02*
X1074604Y1561420D01*
X1075513*
X1075967Y1561733*
X1075967D02*
X1076422Y1562358D01*
X1076422D02*
X1076649Y1562983D01*
X1080058Y1567983D02*
X1079604Y1567670D01*
X1079149Y1567045*
X1078922Y1566420*
X1078695Y1565483*
X1078695D02*
Y1563920D01*
X1078922Y1562983*
X1078922D02*
X1079149Y1562358D01*
X1079149D02*
X1079604Y1561733D01*
X1079604D02*
X1080058Y1561420D01*
X1080967*
X1081422Y1561733*
X1081422D02*
X1081876Y1562358D01*
X1081876D02*
X1082104Y1562983D01*
X1082104D02*
X1082331Y1563920D01*
Y1565483*
X1082331D02*
X1082104Y1566420D01*
X1081876Y1567045*
X1081422Y1567670*
X1080967Y1567983*
X1080967D02*
X1080058D01*
X1084376D02*
Y1561420D01*
Y1567983D02*
X1086195Y1561420D01*
X1088013Y1567983D02*
X1086195Y1561420D01*
X1088013Y1567983D02*
Y1561420D01*
X1090058Y1567983D02*
Y1561420D01*
Y1567983D02*
X1092104D01*
X1092104D02*
X1092785Y1567670D01*
X1093013Y1567358*
X1093013D02*
X1093240Y1566733D01*
X1093240D02*
Y1565795D01*
X1093013Y1565170*
X1092785Y1564858*
X1092785D02*
X1092104Y1564545D01*
X1090058*
X1095285Y1567983D02*
Y1561420D01*
Y1567983D02*
X1097331D01*
X1097331D02*
X1098013Y1567670D01*
X1098240Y1567358*
X1098240D02*
X1098467Y1566733D01*
X1098467D02*
Y1566108D01*
X1098467D02*
X1098240Y1565483D01*
X1098240D02*
X1098013Y1565170D01*
X1097331Y1564858*
X1097331D02*
X1095285D01*
X1096876D02*
X1098467Y1561420D01*
X1100513Y1567983D02*
Y1561420D01*
Y1567983D02*
X1103467D01*
X1100513Y1564858D02*
X1102331D01*
X1100513Y1561420D02*
X1103467D01*
X1108695Y1567045D02*
X1108240Y1567670D01*
X1107558Y1567983*
X1107558D02*
X1106649D01*
X1106649D02*
X1105967Y1567670D01*
X1105513Y1567045*
Y1566420*
X1105740Y1565795*
X1105967Y1565483*
X1105967D02*
X1106422Y1565170D01*
X1107785Y1564545*
X1108240Y1564233*
X1108240D02*
X1108467Y1563920D01*
X1108695Y1563295*
Y1562358*
X1108695D02*
X1108240Y1561733D01*
X1108240D02*
X1107558Y1561420D01*
X1106649*
X1105967Y1561733*
X1105967D02*
X1105513Y1562358D01*
X1113922Y1567045D02*
X1113467Y1567670D01*
X1112785Y1567983*
X1112785D02*
X1111876D01*
X1111876D02*
X1111195Y1567670D01*
X1110740Y1567045*
Y1566420*
X1110967Y1565795*
X1111195Y1565483*
X1111195D02*
X1111649Y1565170D01*
X1113013Y1564545*
X1113467Y1564233*
X1113467D02*
X1113695Y1563920D01*
X1113922Y1563295*
Y1562358*
X1113922D02*
X1113467Y1561733D01*
X1113467D02*
X1112785Y1561420D01*
X1111876*
X1111195Y1561733*
X1111195D02*
X1110740Y1562358D01*
X1117331Y1567983D02*
X1116876Y1567670D01*
X1116422Y1567045*
X1116195Y1566420*
X1115967Y1565483*
X1115967D02*
Y1563920D01*
X1116195Y1562983*
X1116195D02*
X1116422Y1562358D01*
X1116422D02*
X1116876Y1561733D01*
X1116876D02*
X1117331Y1561420D01*
X1118240*
X1118695Y1561733*
X1118695D02*
X1119149Y1562358D01*
X1119149D02*
X1119376Y1562983D01*
X1119376D02*
X1119604Y1563920D01*
Y1565483*
X1119604D02*
X1119376Y1566420D01*
X1119149Y1567045*
X1118695Y1567670*
X1118240Y1567983*
X1118240D02*
X1117331D01*
X1121649D02*
Y1561420D01*
Y1567983D02*
X1123695D01*
X1123695D02*
X1124376Y1567670D01*
X1124604Y1567358*
X1124604D02*
X1124831Y1566733D01*
X1124831D02*
Y1566108D01*
X1124831D02*
X1124604Y1565483D01*
X1124604D02*
X1124376Y1565170D01*
X1123695Y1564858*
X1123695D02*
X1121649D01*
X1123240D02*
X1124831Y1561420D01*
X1135513Y1566420D02*
X1135285Y1567045D01*
X1134831Y1567670*
X1134376Y1567983*
X1134376D02*
X1133467D01*
X1133467D02*
X1133013Y1567670D01*
X1132558Y1567045*
X1132331Y1566420*
X1132104Y1565483*
X1132104D02*
Y1563920D01*
X1132331Y1562983*
X1132331D02*
X1132558Y1562358D01*
X1132558D02*
X1133013Y1561733D01*
X1133013D02*
X1133467Y1561420D01*
X1134376*
X1134831Y1561733*
X1134831D02*
X1135285Y1562358D01*
X1135285D02*
X1135513Y1562983D01*
X1138922Y1567983D02*
X1138467Y1567670D01*
X1138013Y1567045*
X1137785Y1566420*
X1137558Y1565483*
X1137558D02*
Y1563920D01*
X1137785Y1562983*
X1137785D02*
X1138013Y1562358D01*
X1138013D02*
X1138467Y1561733D01*
X1138467D02*
X1138922Y1561420D01*
X1139831*
X1140285Y1561733*
X1140285D02*
X1140740Y1562358D01*
X1140740D02*
X1140967Y1562983D01*
X1140967D02*
X1141195Y1563920D01*
Y1565483*
X1141195D02*
X1140967Y1566420D01*
X1140740Y1567045*
X1140285Y1567670*
X1139831Y1567983*
X1139831D02*
X1138922D01*
X1143240D02*
Y1561420D01*
Y1567983D02*
X1146422Y1561420D01*
Y1567983D02*
Y1561420D01*
X1150058Y1567983D02*
Y1561420D01*
X1148467Y1567983D02*
X1151649D01*
X1153695D02*
Y1561420D01*
Y1567983D02*
X1155740D01*
X1155740D02*
X1156422Y1567670D01*
X1156649Y1567358*
X1156649D02*
X1156876Y1566733D01*
X1156876D02*
Y1566108D01*
X1156876D02*
X1156649Y1565483D01*
X1156649D02*
X1156422Y1565170D01*
X1155740Y1564858*
X1155740D02*
X1153695D01*
X1155285D02*
X1156876Y1561420D01*
X1160285Y1567983D02*
X1159831Y1567670D01*
X1159376Y1567045*
X1159149Y1566420*
X1158922Y1565483*
X1158922D02*
Y1563920D01*
X1159149Y1562983*
X1159149D02*
X1159376Y1562358D01*
X1159376D02*
X1159831Y1561733D01*
X1159831D02*
X1160285Y1561420D01*
X1161195*
X1161649Y1561733*
X1161649D02*
X1162104Y1562358D01*
X1162104D02*
X1162331Y1562983D01*
X1162331D02*
X1162558Y1563920D01*
Y1565483*
X1162558D02*
X1162331Y1566420D01*
X1162104Y1567045*
X1161649Y1567670*
X1161195Y1567983*
X1161195D02*
X1160285D01*
X1164604D02*
Y1561420D01*
X1167331*
X1172558Y1567045D02*
X1172104Y1567670D01*
X1171422Y1567983*
X1171422D02*
X1170513D01*
X1170513D02*
X1169831Y1567670D01*
X1169376Y1567045*
Y1566420*
X1169604Y1565795*
X1169831Y1565483*
X1169831D02*
X1170285Y1565170D01*
X1171649Y1564545*
X1172104Y1564233*
X1172104D02*
X1172331Y1563920D01*
X1172558Y1563295*
Y1562358*
X1172558D02*
X1172104Y1561733D01*
X1172104D02*
X1171422Y1561420D01*
X1170513*
X1169831Y1561733*
X1169831D02*
X1169376Y1562358D01*
X1183240Y1566420D02*
X1183013Y1567045D01*
X1182558Y1567670*
X1182104Y1567983*
X1182104D02*
X1181195D01*
X1181195D02*
X1180740Y1567670D01*
X1180285Y1567045*
X1180058Y1566420*
X1179831Y1565483*
X1179831D02*
Y1563920D01*
X1180058Y1562983*
X1180058D02*
X1180285Y1562358D01*
X1180285D02*
X1180740Y1561733D01*
X1180740D02*
X1181195Y1561420D01*
X1182104*
X1182558Y1561733*
X1182558D02*
X1183013Y1562358D01*
X1183013D02*
X1183240Y1562983D01*
X1186649Y1567983D02*
X1186195Y1567670D01*
X1185740Y1567045*
X1185513Y1566420*
X1185285Y1565483*
X1185285D02*
Y1563920D01*
X1185513Y1562983*
X1185513D02*
X1185740Y1562358D01*
X1185740D02*
X1186195Y1561733D01*
X1186195D02*
X1186649Y1561420D01*
X1187558*
X1188013Y1561733*
X1188013D02*
X1188467Y1562358D01*
X1188467D02*
X1188695Y1562983D01*
X1188695D02*
X1188922Y1563920D01*
Y1565483*
X1188922D02*
X1188695Y1566420D01*
X1188467Y1567045*
X1188013Y1567670*
X1187558Y1567983*
X1187558D02*
X1186649D01*
X1190967D02*
Y1561420D01*
Y1567983D02*
X1193013D01*
X1193013D02*
X1193695Y1567670D01*
X1193922Y1567358*
X1193922D02*
X1194149Y1566733D01*
X1194149D02*
Y1566108D01*
X1194149D02*
X1193922Y1565483D01*
X1193922D02*
X1193695Y1565170D01*
X1193013Y1564858*
X1193013D02*
X1190967D01*
X1192558D02*
X1194149Y1561420D01*
X1196195Y1567983D02*
Y1561420D01*
Y1567983D02*
X1198240D01*
X1198240D02*
X1198922Y1567670D01*
X1199149Y1567358*
X1199149D02*
X1199376Y1566733D01*
X1199376D02*
Y1565795D01*
X1199149Y1565170*
X1198922Y1564858*
X1198922D02*
X1198240Y1564545D01*
X1196195*
X1202785Y1567983D02*
X1202331Y1567670D01*
X1201876Y1567045*
X1201649Y1566420*
X1201422Y1565483*
X1201422D02*
Y1563920D01*
X1201649Y1562983*
X1201649D02*
X1201876Y1562358D01*
X1201876D02*
X1202331Y1561733D01*
X1202331D02*
X1202785Y1561420D01*
X1203695*
X1204149Y1561733*
X1204149D02*
X1204604Y1562358D01*
X1204604D02*
X1204831Y1562983D01*
X1204831D02*
X1205058Y1563920D01*
Y1565483*
X1205058D02*
X1204831Y1566420D01*
X1204604Y1567045*
X1204149Y1567670*
X1203695Y1567983*
X1203695D02*
X1202785D01*
X1207104D02*
Y1561420D01*
Y1567983D02*
X1209149D01*
X1209149D02*
X1209831Y1567670D01*
X1210058Y1567358*
X1210058D02*
X1210285Y1566733D01*
X1210285D02*
Y1566108D01*
X1210285D02*
X1210058Y1565483D01*
X1210058D02*
X1209831Y1565170D01*
X1209149Y1564858*
X1209149D02*
X1207104D01*
X1208695D02*
X1210285Y1561420D01*
X1214149Y1567983D02*
X1212331Y1561420D01*
X1214149Y1567983D02*
X1215967Y1561420D01*
X1213013Y1563608D02*
X1215285D01*
X1219604Y1567983D02*
Y1561420D01*
X1218013Y1567983D02*
X1221195D01*
X1223240D02*
Y1561420D01*
X1226649Y1567983D02*
X1226195Y1567670D01*
X1225740Y1567045*
X1225513Y1566420*
X1225285Y1565483*
X1225285D02*
Y1563920D01*
X1225513Y1562983*
X1225513D02*
X1225740Y1562358D01*
X1225740D02*
X1226195Y1561733D01*
X1226195D02*
X1226649Y1561420D01*
X1227558*
X1228013Y1561733*
X1228013D02*
X1228467Y1562358D01*
X1228467D02*
X1228695Y1562983D01*
X1228695D02*
X1228922Y1563920D01*
Y1565483*
X1228922D02*
X1228695Y1566420D01*
X1228467Y1567045*
X1228013Y1567670*
X1227558Y1567983*
X1227558D02*
X1226649D01*
X1230967D02*
Y1561420D01*
Y1567983D02*
X1234149Y1561420D01*
Y1567983D02*
Y1561420D01*
X1028240Y1550483D02*
Y1543920D01*
Y1550483D02*
X1030285D01*
X1030285D02*
X1030967Y1550170D01*
X1031195Y1549858*
X1031195D02*
X1031422Y1549233D01*
X1031422D02*
Y1548608D01*
X1031422D02*
X1031195Y1547983D01*
X1031195D02*
X1030967Y1547670D01*
X1030285Y1547358*
X1028240D02*
X1030285D01*
X1030285D02*
X1030967Y1547045D01*
X1031195Y1546733*
X1031195D02*
X1031422Y1546108D01*
X1031422D02*
Y1545170D01*
X1031195Y1544545*
X1030967Y1544233*
X1030967D02*
X1030285Y1543920D01*
X1028240*
X1034831Y1550483D02*
X1034376Y1550170D01*
X1033922Y1549545*
X1033695Y1548920*
X1033467Y1547983*
X1033467D02*
Y1546420D01*
X1033695Y1545483*
X1033695D02*
X1033922Y1544858D01*
X1033922D02*
X1034376Y1544233D01*
X1034376D02*
X1034831Y1543920D01*
X1035740*
X1036195Y1544233*
X1036195D02*
X1036649Y1544858D01*
X1036649D02*
X1036876Y1545483D01*
X1036876D02*
X1037104Y1546420D01*
Y1547983*
X1037104D02*
X1036876Y1548920D01*
X1036649Y1549545*
X1036195Y1550170*
X1035740Y1550483*
X1035740D02*
X1034831D01*
X1040967D02*
X1039149Y1543920D01*
X1040967Y1550483D02*
X1042785Y1543920D01*
X1039831Y1546108D02*
X1042104D01*
X1044831Y1550483D02*
Y1543920D01*
Y1550483D02*
X1046876D01*
X1046876D02*
X1047558Y1550170D01*
X1047785Y1549858*
X1047785D02*
X1048013Y1549233D01*
X1048013D02*
Y1548608D01*
X1048013D02*
X1047785Y1547983D01*
X1047785D02*
X1047558Y1547670D01*
X1046876Y1547358*
X1046876D02*
X1044831D01*
X1046422D02*
X1048013Y1543920D01*
X1050058Y1550483D02*
Y1543920D01*
Y1550483D02*
X1051649D01*
X1051649D02*
X1052331Y1550170D01*
X1052785Y1549545*
X1053013Y1548920*
X1053240Y1547983*
X1053240D02*
Y1546420D01*
X1053013Y1545483*
X1053013D02*
X1052785Y1544858D01*
X1052785D02*
X1052331Y1544233D01*
X1052331D02*
X1051649Y1543920D01*
X1050058*
X1065740Y1550483D02*
Y1543920D01*
Y1550483D02*
X1068922Y1543920D01*
Y1550483D02*
Y1543920D01*
X1072785Y1550483D02*
X1070967Y1543920D01*
X1072785Y1550483D02*
X1074604Y1543920D01*
X1071649Y1546108D02*
X1073922D01*
X1076649Y1550483D02*
Y1543920D01*
Y1550483D02*
X1078467Y1543920D01*
X1080285Y1550483D02*
X1078467Y1543920D01*
X1080285Y1550483D02*
Y1543920D01*
X1082331Y1550483D02*
Y1543920D01*
Y1550483D02*
X1085285D01*
X1082331Y1547358D02*
X1084149D01*
X1082331Y1543920D02*
X1085285D01*
X1092558Y1546733D02*
X1096649D01*
X1028240Y1522983D02*
Y1516420D01*
Y1522983D02*
X1029831D01*
X1029831D02*
X1030513Y1522670D01*
X1030967Y1522045*
X1031195Y1521420*
X1031422Y1520483*
X1031422D02*
Y1518920D01*
X1031195Y1517983*
X1031195D02*
X1030967Y1517358D01*
X1030967D02*
X1030513Y1516733D01*
X1030513D02*
X1029831Y1516420D01*
X1028240*
X1034831Y1522983D02*
X1034376Y1522670D01*
X1033922Y1522045*
X1033695Y1521420*
X1033467Y1520483*
X1033467D02*
Y1518920D01*
X1033695Y1517983*
X1033695D02*
X1033922Y1517358D01*
X1033922D02*
X1034376Y1516733D01*
X1034376D02*
X1034831Y1516420D01*
X1035740*
X1036195Y1516733*
X1036195D02*
X1036649Y1517358D01*
X1036649D02*
X1036876Y1517983D01*
X1036876D02*
X1037104Y1518920D01*
Y1520483*
X1037104D02*
X1036876Y1521420D01*
X1036649Y1522045*
X1036195Y1522670*
X1035740Y1522983*
X1035740D02*
X1034831D01*
X1042558Y1521420D02*
X1042331Y1522045D01*
X1041876Y1522670*
X1041422Y1522983*
X1041422D02*
X1040513D01*
X1040513D02*
X1040058Y1522670D01*
X1039604Y1522045*
X1039376Y1521420*
X1039149Y1520483*
X1039149D02*
Y1518920D01*
X1039376Y1517983*
X1039376D02*
X1039604Y1517358D01*
X1039604D02*
X1040058Y1516733D01*
X1040058D02*
X1040513Y1516420D01*
X1041422*
X1041876Y1516733*
X1041876D02*
X1042331Y1517358D01*
X1042331D02*
X1042558Y1517983D01*
X1044604Y1522983D02*
Y1518295D01*
X1044831Y1517358*
X1044831D02*
X1045285Y1516733D01*
X1045285D02*
X1045967Y1516420D01*
X1046422*
X1047104Y1516733*
X1047104D02*
X1047558Y1517358D01*
X1047558D02*
X1047785Y1518295D01*
Y1522983*
X1049831D02*
Y1516420D01*
Y1522983D02*
X1051649Y1516420D01*
X1053467Y1522983D02*
X1051649Y1516420D01*
X1053467Y1522983D02*
Y1516420D01*
X1055513Y1522983D02*
Y1516420D01*
Y1522983D02*
X1058467D01*
X1055513Y1519858D02*
X1057331D01*
X1055513Y1516420D02*
X1058467D01*
X1060513Y1522983D02*
Y1516420D01*
Y1522983D02*
X1063695Y1516420D01*
Y1522983D02*
Y1516420D01*
X1067331Y1522983D02*
Y1516420D01*
X1065740Y1522983D02*
X1068922D01*
X1076195D02*
Y1516420D01*
Y1522983D02*
X1079376Y1516420D01*
Y1522983D02*
Y1516420D01*
X1083240Y1522983D02*
X1081422Y1516420D01*
X1083240Y1522983D02*
X1085058Y1516420D01*
X1082104Y1518608D02*
X1084376D01*
X1087104Y1522983D02*
Y1516420D01*
Y1522983D02*
X1088922Y1516420D01*
X1090740Y1522983D02*
X1088922Y1516420D01*
X1090740Y1522983D02*
Y1516420D01*
X1092785Y1522983D02*
Y1516420D01*
Y1522983D02*
X1095740D01*
X1092785Y1519858D02*
X1094604D01*
X1092785Y1516420D02*
X1095740D01*
X1097785Y1519233D02*
X1101876D01*
X1218240Y1522983D02*
Y1516420D01*
Y1522983D02*
X1220285D01*
X1220285D02*
X1220967Y1522670D01*
X1221195Y1522358*
X1221195D02*
X1221422Y1521733D01*
X1221422D02*
Y1521108D01*
X1221422D02*
X1221195Y1520483D01*
X1221195D02*
X1220967Y1520170D01*
X1220285Y1519858*
X1220285D02*
X1218240D01*
X1219831D02*
X1221422Y1516420D01*
X1223467Y1522983D02*
Y1516420D01*
Y1522983D02*
X1226422D01*
X1223467Y1519858D02*
X1225285D01*
X1223467Y1516420D02*
X1226422D01*
X1228467Y1522983D02*
X1230285Y1516420D01*
X1232104Y1522983D02*
X1230285Y1516420D01*
X1239376Y1519233D02*
X1243467D01*
X1252558Y1522983D02*
X1250740Y1516420D01*
X1252558Y1522983D02*
X1254376Y1516420D01*
X1251422Y1518608D02*
X1253695D01*
X1108240Y1550483D02*
Y1543920D01*
Y1550483D02*
X1111195D01*
X1108240Y1547358D02*
X1110058D01*
X1114831Y1550483D02*
Y1543920D01*
X1113240Y1550483D02*
X1116422D01*
X1121876Y1548920D02*
X1121649Y1549545D01*
X1121195Y1550170*
X1120740Y1550483*
X1120740D02*
X1119831D01*
X1119831D02*
X1119376Y1550170D01*
X1118922Y1549545*
X1118695Y1548920*
X1118467Y1547983*
X1118467D02*
Y1546420D01*
X1118695Y1545483*
X1118695D02*
X1118922Y1544858D01*
X1118922D02*
X1119376Y1544233D01*
X1119376D02*
X1119831Y1543920D01*
X1120740*
X1121195Y1544233*
X1121195D02*
X1121649Y1544858D01*
X1121649D02*
X1121876Y1545483D01*
X1123922Y1546733D02*
X1128013D01*
X1131876Y1550483D02*
X1130058Y1543920D01*
X1131876Y1550483D02*
X1133695Y1543920D01*
X1130740Y1546108D02*
X1133013D01*
X1135740Y1550483D02*
Y1543920D01*
Y1550483D02*
X1137558Y1543920D01*
X1139376Y1550483D02*
X1137558Y1543920D01*
X1139376Y1550483D02*
Y1543920D01*
X1141422Y1549233D02*
X1141876Y1549545D01*
X1142558Y1550483*
X1142558D02*
Y1543920D01*
X1153240Y1548920D02*
X1153013Y1549545D01*
X1152558Y1550170*
X1152104Y1550483*
X1152104D02*
X1151195D01*
X1151195D02*
X1150740Y1550170D01*
X1150285Y1549545*
X1150058Y1548920*
X1149831Y1547983*
X1149831D02*
Y1546420D01*
X1150058Y1545483*
X1150058D02*
X1150285Y1544858D01*
X1150285D02*
X1150740Y1544233D01*
X1150740D02*
X1151195Y1543920D01*
X1152104*
X1152558Y1544233*
X1152558D02*
X1153013Y1544858D01*
X1153013D02*
X1153240Y1545483D01*
X1157104Y1550483D02*
X1155285Y1543920D01*
X1157104Y1550483D02*
X1158922Y1543920D01*
X1155967Y1546108D02*
X1158240D01*
X1160967Y1550483D02*
Y1543920D01*
Y1550483D02*
X1163013D01*
X1163013D02*
X1163695Y1550170D01*
X1163922Y1549858*
X1163922D02*
X1164149Y1549233D01*
X1164149D02*
Y1548608D01*
X1164149D02*
X1163922Y1547983D01*
X1163922D02*
X1163695Y1547670D01*
X1163013Y1547358*
X1163013D02*
X1160967D01*
X1162558D02*
X1164149Y1543920D01*
X1166195Y1550483D02*
Y1543920D01*
Y1550483D02*
X1167785D01*
X1167785D02*
X1168467Y1550170D01*
X1168922Y1549545*
X1169149Y1548920*
X1169376Y1547983*
X1169376D02*
Y1546420D01*
X1169149Y1545483*
X1169149D02*
X1168922Y1544858D01*
X1168922D02*
X1168467Y1544233D01*
X1168467D02*
X1167785Y1543920D01*
X1166195*
X1068240Y1536733D02*
X1068695Y1537045D01*
X1069376Y1537983*
X1069376D02*
Y1531420D01*
X1074604Y1537983D02*
X1072331Y1531420D01*
X1071422Y1537983D02*
X1074604D01*
X1076649Y1534233D02*
X1080740D01*
X1085513Y1537045D02*
X1085285Y1537670D01*
X1084604Y1537983*
X1084604D02*
X1084149D01*
X1084149D02*
X1083467Y1537670D01*
X1083013Y1536733*
X1083013D02*
X1082785Y1535170D01*
Y1533608*
X1082785D02*
X1083013Y1532358D01*
X1083013D02*
X1083467Y1531733D01*
X1083467D02*
X1084149Y1531420D01*
X1084376*
X1085058Y1531733*
X1085058D02*
X1085513Y1532358D01*
X1085513D02*
X1085740Y1533295D01*
Y1533608*
X1085740D02*
X1085513Y1534545D01*
X1085058Y1535170*
X1084376Y1535483*
X1084376D02*
X1084149D01*
X1084149D02*
X1083467Y1535170D01*
X1083013Y1534545*
X1082785Y1533608*
X1089149Y1537983D02*
X1088467Y1537670D01*
X1088013Y1536733*
X1088013D02*
X1087785Y1535170D01*
Y1534233*
X1087785D02*
X1088013Y1532670D01*
X1088467Y1531733*
X1088467D02*
X1089149Y1531420D01*
X1089604*
X1090285Y1531733*
X1090285D02*
X1090740Y1532670D01*
X1090967Y1534233*
X1090967D02*
Y1535170D01*
X1090740Y1536733*
X1090740D02*
X1090285Y1537670D01*
X1089604Y1537983*
X1089604D02*
X1089149D01*
X1094376D02*
X1093695Y1537670D01*
X1093240Y1536733*
X1093240D02*
X1093013Y1535170D01*
Y1534233*
X1093013D02*
X1093240Y1532670D01*
X1093695Y1531733*
X1093695D02*
X1094376Y1531420D01*
X1094831*
X1095513Y1531733*
X1095513D02*
X1095967Y1532670D01*
X1096195Y1534233*
X1096195D02*
Y1535170D01*
X1095967Y1536733*
X1095967D02*
X1095513Y1537670D01*
X1094831Y1537983*
X1094831D02*
X1094376D01*
X1101195D02*
X1098922D01*
X1098922D02*
X1098695Y1535170D01*
X1098922Y1535483*
X1098922D02*
X1099604Y1535795D01*
X1100285*
X1100967Y1535483*
X1100967D02*
X1101422Y1534858D01*
X1101422D02*
X1101649Y1533920D01*
X1101422Y1533295*
X1101195Y1532358*
X1101195D02*
X1100740Y1531733D01*
X1100740D02*
X1100058Y1531420D01*
X1099376*
X1098695Y1531733*
X1098695D02*
X1098467Y1532045D01*
X1098240Y1532670*
X1105967Y1537983D02*
X1103695Y1533608D01*
X1103695D02*
X1107104D01*
X1105967Y1537983D02*
Y1531420D01*
X1110513Y1537983D02*
X1109831Y1537670D01*
X1109376Y1536733*
X1109376D02*
X1109149Y1535170D01*
Y1534233*
X1109149D02*
X1109376Y1532670D01*
X1109831Y1531733*
X1109831D02*
X1110513Y1531420D01*
X1110967*
X1111649Y1531733*
X1111649D02*
X1112104Y1532670D01*
X1112331Y1534233*
X1112331D02*
Y1535170D01*
X1112104Y1536733*
X1112104D02*
X1111649Y1537670D01*
X1110967Y1537983*
X1110967D02*
X1110513D01*
X1114376Y1534233D02*
X1118467D01*
X1120513Y1536733D02*
X1120967Y1537045D01*
X1121649Y1537983*
X1121649D02*
Y1531420D01*
X1123695Y1536733D02*
X1124149Y1537045D01*
X1124831Y1537983*
X1124831D02*
Y1531420D01*
X1126876Y1536733D02*
X1127331Y1537045D01*
X1128013Y1537983*
X1128013D02*
Y1531420D01*
X1028240Y1537983D02*
Y1531420D01*
Y1537983D02*
X1030285D01*
X1030285D02*
X1030967Y1537670D01*
X1031195Y1537358*
X1031195D02*
X1031422Y1536733D01*
X1031422D02*
Y1535795D01*
X1031195Y1535170*
X1030967Y1534858*
X1030967D02*
X1030285Y1534545D01*
X1028240*
X1037558Y1539233D02*
X1033467Y1529232D01*
X1039604Y1537983D02*
Y1531420D01*
Y1537983D02*
X1042785Y1531420D01*
Y1537983D02*
Y1531420D01*
X1050058Y1534233D02*
X1054149D01*
X1174930Y1538163D02*
Y1531600D01*
Y1538163D02*
X1176521D01*
X1176521D02*
X1177203Y1537850D01*
X1177657Y1537225*
X1177885Y1536600*
X1178112Y1535663*
X1178112D02*
Y1534100D01*
X1177885Y1533163*
X1177885D02*
X1177657Y1532538D01*
X1177657D02*
X1177203Y1531913D01*
X1177203D02*
X1176521Y1531600D01*
X1174930*
X1180157Y1534100D02*
X1182885D01*
Y1534725*
X1182657Y1535350*
X1182430Y1535663*
X1182430D02*
X1181975Y1535975D01*
X1181294*
X1180839Y1535663*
X1180839D02*
X1180385Y1535038D01*
X1180385D02*
X1180157Y1534100D01*
Y1533475*
X1180385Y1532538*
X1180385D02*
X1180839Y1531913D01*
X1180839D02*
X1181294Y1531600D01*
X1181975*
X1182430Y1531913*
X1182430D02*
X1182885Y1532538D01*
X1187657Y1535038D02*
X1187203Y1535663D01*
X1187203D02*
X1186748Y1535975D01*
X1186066*
X1185612Y1535663*
X1185612D02*
X1185157Y1535038D01*
X1185157D02*
X1184930Y1534100D01*
Y1533475*
X1185157Y1532538*
X1185157D02*
X1185612Y1531913D01*
X1185612D02*
X1186066Y1531600D01*
X1186748*
X1187203Y1531913*
X1187203D02*
X1187657Y1532538D01*
X1189703Y1534100D02*
X1192430D01*
Y1534725*
X1192203Y1535350*
X1191975Y1535663*
X1191975D02*
X1191521Y1535975D01*
X1190839*
X1190385Y1535663*
X1190385D02*
X1189930Y1535038D01*
X1189930D02*
X1189703Y1534100D01*
Y1533475*
X1189930Y1532538*
X1189930D02*
X1190385Y1531913D01*
X1190385D02*
X1190839Y1531600D01*
X1191521*
X1191975Y1531913*
X1191975D02*
X1192430Y1532538D01*
X1194475Y1535975D02*
Y1531600D01*
Y1534725D02*
X1195157Y1535663D01*
X1195157D02*
X1195612Y1535975D01*
X1196294*
X1196748Y1535663*
X1196748D02*
X1196975Y1534725D01*
Y1531600*
Y1534725D02*
X1197657Y1535663D01*
X1197657D02*
X1198112Y1535975D01*
X1198794*
X1199248Y1535663*
X1199248D02*
X1199475Y1534725D01*
Y1531600*
X1201521Y1538163D02*
Y1531600D01*
Y1535038D02*
X1201975Y1535663D01*
X1201975D02*
X1202430Y1535975D01*
X1203112*
X1203566Y1535663*
X1203566D02*
X1204021Y1535038D01*
X1204021D02*
X1204248Y1534100D01*
Y1533475*
X1204021Y1532538*
X1204021D02*
X1203566Y1531913D01*
X1203566D02*
X1203112Y1531600D01*
X1202430*
X1201975Y1531913*
X1201975D02*
X1201521Y1532538D01*
X1206294Y1534100D02*
X1209021D01*
Y1534725*
X1208794Y1535350*
X1208566Y1535663*
X1208566D02*
X1208112Y1535975D01*
X1207430*
X1206975Y1535663*
X1206975D02*
X1206521Y1535038D01*
X1206521D02*
X1206294Y1534100D01*
Y1533475*
X1206521Y1532538*
X1206521D02*
X1206975Y1531913D01*
X1206975D02*
X1207430Y1531600D01*
X1208112*
X1208566Y1531913*
X1208566D02*
X1209021Y1532538D01*
X1211066Y1535975D02*
Y1531600D01*
Y1534100D02*
X1211294Y1535038D01*
X1211294D02*
X1211748Y1535663D01*
X1211748D02*
X1212203Y1535975D01*
X1212885*
X1220385Y1536600D02*
Y1536913D01*
X1220385D02*
X1220612Y1537538D01*
X1220612D02*
X1220839Y1537850D01*
X1221294Y1538163*
X1221294D02*
X1222203D01*
X1222203D02*
X1222657Y1537850D01*
X1222885Y1537538*
X1222885D02*
X1223112Y1536913D01*
X1223112D02*
Y1536288D01*
X1223112D02*
X1222885Y1535663D01*
X1222885D02*
X1222430Y1534725D01*
X1220157Y1531600*
X1223339*
X1225612Y1536600D02*
Y1536913D01*
X1225612D02*
X1225839Y1537538D01*
X1225839D02*
X1226066Y1537850D01*
X1226521Y1538163*
X1226521D02*
X1227430D01*
X1227430D02*
X1227885Y1537850D01*
X1228112Y1537538*
X1228112D02*
X1228339Y1536913D01*
X1228339D02*
Y1536288D01*
X1228339D02*
X1228112Y1535663D01*
X1228112D02*
X1227657Y1534725D01*
X1225385Y1531600*
X1228566*
X1231066Y1531913D02*
X1230839Y1531600D01*
X1230612Y1531913*
X1230612D02*
X1230839Y1532225D01*
X1231066Y1531913*
X1231066D02*
Y1531287D01*
X1231066D02*
X1230839Y1530662D01*
X1230839D02*
X1230612Y1530350D01*
X1238566Y1536600D02*
Y1536913D01*
X1238566D02*
X1238794Y1537538D01*
X1238794D02*
X1239021Y1537850D01*
X1239475Y1538163*
X1239475D02*
X1240385D01*
X1240385D02*
X1240839Y1537850D01*
X1241066Y1537538*
X1241066D02*
X1241294Y1536913D01*
X1241294D02*
Y1536288D01*
X1241294D02*
X1241066Y1535663D01*
X1241066D02*
X1240612Y1534725D01*
X1238339Y1531600*
X1241521*
X1244930Y1538163D02*
X1244248Y1537850D01*
X1243794Y1536913*
X1243794D02*
X1243566Y1535350D01*
Y1534413*
X1243566D02*
X1243794Y1532850D01*
X1244248Y1531913*
X1244248D02*
X1244930Y1531600D01*
X1245385*
X1246066Y1531913*
X1246066D02*
X1246521Y1532850D01*
X1246748Y1534413*
X1246748D02*
Y1535350D01*
X1246521Y1536913*
X1246521D02*
X1246066Y1537850D01*
X1245385Y1538163*
X1245385D02*
X1244930D01*
X1248794Y1536913D02*
X1249248Y1537225D01*
X1249930Y1538163*
X1249930D02*
Y1531600D01*
X1252203Y1536600D02*
Y1536913D01*
X1252203D02*
X1252430Y1537538D01*
X1252430D02*
X1252657Y1537850D01*
X1253112Y1538163*
X1253112D02*
X1254021D01*
X1254021D02*
X1254475Y1537850D01*
X1254703Y1537538*
X1254703D02*
X1254930Y1536913D01*
X1254930D02*
Y1536288D01*
X1254930D02*
X1254703Y1535663D01*
X1254703D02*
X1254248Y1534725D01*
X1251975Y1531600*
X1255157*
X1122182Y1521563D02*
X1121727Y1522125D01*
X1121045Y1522406*
X1120136*
X1119455Y1522125*
X1119000Y1521563*
X1119000D02*
Y1521000D01*
X1119227Y1520438*
X1119227D02*
X1119455Y1520156D01*
X1119909Y1519875*
X1121273Y1519313*
X1121273D02*
X1121727Y1519031D01*
X1121955Y1518750*
X1122182Y1518188*
X1122182D02*
Y1517344D01*
X1121727Y1516781*
X1121045Y1516500*
X1120136*
X1119455Y1516781*
X1119000Y1517344*
X1124227Y1522406D02*
Y1516500D01*
X1126273Y1522406D02*
Y1516500D01*
X1129000*
X1131045Y1522406D02*
Y1516500D01*
X1134227Y1522406D02*
X1131045Y1518469D01*
X1132182Y1519875D02*
X1134227Y1516500D01*
X1139455Y1521563D02*
X1139000Y1522125D01*
X1138318Y1522406*
X1137409*
X1136727Y1522125*
X1136273Y1521563*
X1136273D02*
Y1521000D01*
X1136500Y1520438*
X1136500D02*
X1136727Y1520156D01*
X1137182Y1519875*
X1138545Y1519313*
X1138545D02*
X1139000Y1519031D01*
X1139227Y1518750*
X1139455Y1518188*
X1139455D02*
Y1517344D01*
X1139000Y1516781*
X1138318Y1516500*
X1137409*
X1136727Y1516781*
X1136273Y1517344*
X1144909Y1521000D02*
X1144682Y1521563D01*
X1144682D02*
X1144227Y1522125D01*
X1143773Y1522406*
X1142864*
X1142409Y1522125*
X1141955Y1521563*
X1141955D02*
X1141727Y1521000D01*
X1141500Y1520156*
Y1518750*
X1141727Y1517906*
X1141955Y1517344*
X1142409Y1516781*
X1142864Y1516500*
X1143773*
X1144227Y1516781*
X1144682Y1517344*
X1144909Y1517906*
X1146955Y1522406D02*
Y1516500D01*
Y1522406D02*
X1149000D01*
X1149682Y1522125*
X1149909Y1521844*
X1150136Y1521281*
Y1520719*
X1149909Y1520156*
X1149682Y1519875*
X1149000Y1519594*
X1146955*
X1148545D02*
X1150136Y1516500D01*
X1152182Y1522406D02*
Y1516500D01*
Y1522406D02*
X1155136D01*
X1152182Y1519594D02*
X1154000D01*
X1152182Y1516500D02*
X1155136D01*
X1157182Y1522406D02*
Y1516500D01*
Y1522406D02*
X1160136D01*
X1157182Y1519594D02*
X1159000D01*
X1157182Y1516500D02*
X1160136D01*
X1162182Y1522406D02*
Y1516500D01*
Y1522406D02*
X1165364Y1516500D01*
Y1522406D02*
Y1516500D01*
X1174227Y1522406D02*
Y1516500D01*
X1172636Y1522406D02*
X1175818D01*
X1179227D02*
X1178773Y1522125D01*
X1178318Y1521563*
X1178318D02*
X1178091Y1521000D01*
X1177864Y1520156*
Y1518750*
X1178091Y1517906*
X1178318Y1517344*
X1178773Y1516781*
X1179227Y1516500*
X1180136*
X1180591Y1516781*
X1181045Y1517344*
X1181273Y1517906*
X1181500Y1518750*
Y1520156*
X1181273Y1521000*
X1181045Y1521563*
X1181045D02*
X1180591Y1522125D01*
X1180136Y1522406*
X1179227*
X1183545D02*
Y1516500D01*
Y1522406D02*
X1185591D01*
X1186273Y1522125*
X1186500Y1521844*
X1186727Y1521281*
Y1520438*
X1186727D02*
X1186500Y1519875D01*
X1186273Y1519594*
X1185591Y1519313*
X1185591D02*
X1183545D01*
X1000000Y1000000D02*
X1023401D01*
Y1015614*
X1045449D02*
G03X1023401I-11024J0D01*
G01X1045449D02*
Y1000000D01*
X1222260*
Y1015614*
X1244307D02*
G03X1222260I-11024J0D01*
G01X1244307D02*
Y1000000D01*
X1267717*
Y1458000*
X1244307*
Y1445575*
X1222260D02*
G03X1244307I11023J-0D01*
G01X1222260D02*
Y1458000D01*
X1045449*
Y1445575*
X1023401D02*
G03X1045449I11024J-0D01*
G01X1023401D02*
Y1458000D01*
X1000000*
Y1000000*
G54D62*
X1137518Y1426050D02*
Y1422050D01*
X1137336Y1421300*
X1137155Y1421050*
X1136791Y1420800*
X1136427*
X1136064Y1421050*
X1135882Y1421300*
X1135700Y1422050*
Y1422550*
X1139518Y1426050D02*
X1141518D01*
X1140427Y1424050*
X1140973*
X1141336Y1423800*
X1141518Y1423550*
X1141700Y1422800*
Y1422300*
X1141518Y1421550*
X1141155Y1421050*
X1140609Y1420800*
X1140064*
X1139518Y1421050*
X1139336Y1421300*
X1139155Y1421800*
X1139318Y1036250D02*
Y1032250D01*
X1139136Y1031500*
X1138955Y1031250*
X1138591Y1031000*
X1138227*
X1137864Y1031250*
X1137682Y1031500*
X1137500Y1032250*
Y1032750*
X1142773Y1036250D02*
X1140955Y1032750D01*
X1143682*
X1142773Y1036250D02*
Y1031000D01*
X1134750Y1149500D02*
X1140000D01*
X1134750D02*
Y1151136D01*
X1135000Y1151682*
X1135250Y1151864*
X1135750Y1152045*
X1136250*
X1136750Y1151864*
X1137000Y1151682*
X1137250Y1151136*
Y1149500*
Y1150773D02*
X1140000Y1152045D01*
X1136000Y1153864D02*
X1135750D01*
X1135250Y1154045*
X1135000Y1154227*
X1134750Y1154591*
Y1155318*
X1135000Y1155682*
X1135250Y1155864*
X1135750Y1156045*
X1136250*
X1136750Y1155864*
X1137500Y1155500*
X1140000Y1153682*
Y1156227*
X1134750Y1158955D02*
X1135000Y1158409D01*
X1135750Y1158045*
X1137000Y1157864*
X1137750*
X1139000Y1158045*
X1139750Y1158409*
X1140000Y1158955*
Y1159318*
X1139750Y1159864*
X1139000Y1160227*
X1137750Y1160409*
X1137000*
X1135750Y1160227*
X1135000Y1159864*
X1134750Y1159318*
Y1158955*
X1144250Y1149500D02*
X1149500D01*
X1144250D02*
Y1151136D01*
X1144500Y1151682*
X1144750Y1151864*
X1145250Y1152045*
X1145750*
X1146250Y1151864*
X1146500Y1151682*
X1146750Y1151136*
Y1149500*
Y1150773D02*
X1149500Y1152045D01*
X1145500Y1153864D02*
X1145250D01*
X1144750Y1154045*
X1144500Y1154227*
X1144250Y1154591*
Y1155318*
X1144500Y1155682*
X1144750Y1155864*
X1145250Y1156045*
X1145750*
X1146250Y1155864*
X1147000Y1155500*
X1149500Y1153682*
Y1156227*
X1145000Y1160045D02*
X1144500Y1159864D01*
X1144250Y1159318*
Y1158955*
X1144500Y1158409*
X1145250Y1158045*
X1146500Y1157864*
X1147750*
X1148750Y1158045*
X1149250Y1158409*
X1149500Y1158955*
Y1159136*
X1149250Y1159682*
X1148750Y1160045*
X1148000Y1160227*
X1147750*
X1147000Y1160045*
X1146500Y1159682*
X1146250Y1159136*
Y1158955*
X1146500Y1158409*
X1147000Y1158045*
X1147750Y1157864*
X1154750Y1149000D02*
X1160000D01*
X1154750D02*
Y1150636D01*
X1155000Y1151182*
X1155250Y1151364*
X1155750Y1151545*
X1156250*
X1156750Y1151364*
X1157000Y1151182*
X1157250Y1150636*
Y1149000*
Y1150273D02*
X1160000Y1151545D01*
X1156000Y1153364D02*
X1155750D01*
X1155250Y1153545*
X1155000Y1153727*
X1154750Y1154091*
Y1154818*
X1155000Y1155182*
X1155250Y1155364*
X1155750Y1155545*
X1156250*
X1156750Y1155364*
X1157500Y1155000*
X1160000Y1153182*
Y1155727*
X1154750Y1159909D02*
X1160000Y1158091D01*
X1154750Y1157364D02*
Y1159909D01*
X1164750Y1149000D02*
X1170000D01*
X1164750D02*
Y1150636D01*
X1165000Y1151182*
X1165250Y1151364*
X1165750Y1151545*
X1166250*
X1166750Y1151364*
X1167000Y1151182*
X1167250Y1150636*
Y1149000*
Y1150273D02*
X1170000Y1151545D01*
X1166000Y1153364D02*
X1165750D01*
X1165250Y1153545*
X1165000Y1153727*
X1164750Y1154091*
Y1154818*
X1165000Y1155182*
X1165250Y1155364*
X1165750Y1155545*
X1166250*
X1166750Y1155364*
X1167500Y1155000*
X1170000Y1153182*
Y1155727*
X1164750Y1158273D02*
X1165000Y1157727D01*
X1165500Y1157545*
X1166000*
X1166500Y1157727*
X1166750Y1158091*
X1167000Y1158818*
X1167250Y1159364*
X1167750Y1159727*
X1168250Y1159909*
X1169000*
X1169500Y1159727*
X1169750Y1159545*
X1170000Y1159000*
Y1158273*
X1169750Y1157727*
X1169500Y1157545*
X1169000Y1157364*
X1168250*
X1167750Y1157545*
X1167250Y1157909*
X1167000Y1158455*
X1166750Y1159182*
X1166500Y1159545*
X1166000Y1159727*
X1165500*
X1165000Y1159545*
X1164750Y1159000*
Y1158273*
X1174750Y1149000D02*
X1180000D01*
X1174750D02*
Y1150636D01*
X1175000Y1151182*
X1175250Y1151364*
X1175750Y1151545*
X1176250*
X1176750Y1151364*
X1177000Y1151182*
X1177250Y1150636*
Y1149000*
Y1150273D02*
X1180000Y1151545D01*
X1176000Y1153364D02*
X1175750D01*
X1175250Y1153545*
X1175000Y1153727*
X1174750Y1154091*
Y1154818*
X1175000Y1155182*
X1175250Y1155364*
X1175750Y1155545*
X1176250*
X1176750Y1155364*
X1177500Y1155000*
X1180000Y1153182*
Y1155727*
X1176500Y1159727D02*
X1177250Y1159545D01*
X1177750Y1159182*
X1178000Y1158636*
Y1158455*
X1177750Y1157909*
X1177250Y1157545*
X1176500Y1157364*
X1176250*
X1175500Y1157545*
X1175000Y1157909*
X1174750Y1158455*
Y1158636*
X1175000Y1159182*
X1175500Y1159545*
X1176500Y1159727*
X1177750*
X1179000Y1159545*
X1179750Y1159182*
X1180000Y1158636*
Y1158273*
X1179750Y1157727*
X1179250Y1157545*
X1105327Y1308275D02*
X1105145Y1308775D01*
X1104782Y1309275*
X1104418Y1309525*
X1103691*
X1103327Y1309275*
X1102964Y1308775*
X1102782Y1308275*
X1102600Y1307525*
Y1306275*
X1102782Y1305525*
X1102964Y1305025*
X1103327Y1304525*
X1103691Y1304275*
X1104418*
X1104782Y1304525*
X1105145Y1305025*
X1105327Y1305525*
X1106964Y1308525D02*
X1107327Y1308775D01*
X1107873Y1309525*
Y1304275*
X1075509Y1385275D02*
X1075327Y1385775D01*
X1074964Y1386275*
X1074600Y1386525*
X1073873*
X1073509Y1386275*
X1073145Y1385775*
X1072964Y1385275*
X1072782Y1384525*
Y1383275*
X1072964Y1382525*
X1073145Y1382025*
X1073509Y1381525*
X1073873Y1381275*
X1074600*
X1074964Y1381525*
X1075327Y1382025*
X1075509Y1382525*
X1077327Y1385275D02*
Y1385525D01*
X1077509Y1386025*
X1077691Y1386275*
X1078055Y1386525*
X1078782*
X1079145Y1386275*
X1079327Y1386025*
X1079509Y1385525*
Y1385025*
X1079327Y1384525*
X1078964Y1383775*
X1077145Y1381275*
X1079691*
X1057009Y1307275D02*
X1056827Y1307775D01*
X1056464Y1308275*
X1056100Y1308525*
X1055373*
X1055009Y1308275*
X1054645Y1307775*
X1054464Y1307275*
X1054282Y1306525*
Y1305275*
X1054464Y1304525*
X1054645Y1304025*
X1055009Y1303525*
X1055373Y1303275*
X1056100*
X1056464Y1303525*
X1056827Y1304025*
X1057009Y1304525*
X1061191Y1308525D02*
X1059373Y1303275D01*
X1058645Y1308525D02*
X1061191D01*
X1056009Y1126775D02*
X1055827Y1127275D01*
X1055464Y1127775*
X1055100Y1128025*
X1054373*
X1054009Y1127775*
X1053645Y1127275*
X1053464Y1126775*
X1053282Y1126025*
Y1124775*
X1053464Y1124025*
X1053645Y1123525*
X1054009Y1123025*
X1054373Y1122775*
X1055100*
X1055464Y1123025*
X1055827Y1123525*
X1056009Y1124025*
X1058555Y1128025D02*
X1058009Y1127775D01*
X1057827Y1127275*
Y1126775*
X1058009Y1126275*
X1058373Y1126025*
X1059100Y1125775*
X1059645Y1125525*
X1060009Y1125025*
X1060191Y1124525*
Y1123775*
X1060009Y1123275*
X1059827Y1123025*
X1059282Y1122775*
X1058555*
X1058009Y1123025*
X1057827Y1123275*
X1057645Y1123775*
Y1124525*
X1057827Y1125025*
X1058191Y1125525*
X1058736Y1125775*
X1059464Y1126025*
X1059827Y1126275*
X1060009Y1126775*
Y1127275*
X1059827Y1127775*
X1059282Y1128025*
X1058555*
X1215000Y1082250D02*
Y1077000D01*
Y1082250D02*
X1216273D01*
X1216818Y1082000*
X1217182Y1081500*
X1217364Y1081000*
X1217545Y1080250*
Y1079000*
X1217364Y1078250*
X1217182Y1077750*
X1216818Y1077250*
X1216273Y1077000*
X1215000*
X1221364Y1081500D02*
X1221182Y1082000D01*
X1220636Y1082250*
X1220273*
X1219727Y1082000*
X1219364Y1081250*
X1219182Y1080000*
Y1078750*
X1219364Y1077750*
X1219727Y1077250*
X1220273Y1077000*
X1220455*
X1221000Y1077250*
X1221364Y1077750*
X1221545Y1078500*
Y1078750*
X1221364Y1079500*
X1221000Y1080000*
X1220455Y1080250*
X1220273*
X1219727Y1080000*
X1219364Y1079500*
X1219182Y1078750*
X1202282Y1166225D02*
Y1160975D01*
Y1166225D02*
X1204645D01*
X1202282Y1163725D02*
X1203736D01*
X1206282Y1165225D02*
X1206645Y1165475D01*
X1207191Y1166225*
Y1160975*
X1228873Y1166225D02*
Y1160975D01*
Y1166225D02*
X1231236D01*
X1228873Y1163725D02*
X1230327D01*
X1235236Y1166225D02*
X1233418D01*
X1233236Y1163975*
X1233418Y1164225*
X1233964Y1164475*
X1234509*
X1235055Y1164225*
X1235418Y1163725*
X1235600Y1162975*
X1235418Y1162475*
X1235236Y1161725*
X1234873Y1161225*
X1234327Y1160975*
X1233782*
X1233236Y1161225*
X1233055Y1161475*
X1232873Y1161975*
X1242500Y1080750D02*
Y1075500D01*
Y1080750D02*
X1243773D01*
X1244318Y1080500*
X1244682Y1080000*
X1244864Y1079500*
X1245045Y1078750*
Y1077500*
X1244864Y1076750*
X1244682Y1076250*
X1244318Y1075750*
X1243773Y1075500*
X1242500*
X1247591Y1080750D02*
X1247045Y1080500D01*
X1246864Y1080000*
Y1079500*
X1247045Y1079000*
X1247409Y1078750*
X1248136Y1078500*
X1248682Y1078250*
X1249045Y1077750*
X1249227Y1077250*
Y1076500*
X1249045Y1076000*
X1248864Y1075750*
X1248318Y1075500*
X1247591*
X1247045Y1075750*
X1246864Y1076000*
X1246682Y1076500*
Y1077250*
X1246864Y1077750*
X1247227Y1078250*
X1247773Y1078500*
X1248500Y1078750*
X1248864Y1079000*
X1249045Y1079500*
Y1080000*
X1248864Y1080500*
X1248318Y1080750*
X1247591*
X1164500Y1084250D02*
Y1079000D01*
Y1084250D02*
X1165773D01*
X1166318Y1084000*
X1166682Y1083500*
X1166864Y1083000*
X1167045Y1082250*
Y1081000*
X1166864Y1080250*
X1166682Y1079750*
X1166318Y1079250*
X1165773Y1079000*
X1164500*
X1171045Y1082500D02*
X1170864Y1081750D01*
X1170500Y1081250*
X1169955Y1081000*
X1169773*
X1169227Y1081250*
X1168864Y1081750*
X1168682Y1082500*
Y1082750*
X1168864Y1083500*
X1169227Y1084000*
X1169773Y1084250*
X1169955*
X1170500Y1084000*
X1170864Y1083500*
X1171045Y1082500*
Y1081250*
X1170864Y1080000*
X1170500Y1079250*
X1169955Y1079000*
X1169591*
X1169045Y1079250*
X1168864Y1079750*
X1243500Y1105750D02*
Y1100500D01*
Y1105750D02*
X1244773D01*
X1245318Y1105500*
X1245682Y1105000*
X1245864Y1104500*
X1246045Y1103750*
Y1102500*
X1245864Y1101750*
X1245682Y1101250*
X1245318Y1100750*
X1244773Y1100500*
X1243500*
X1247682Y1104750D02*
X1248045Y1105000D01*
X1248591Y1105750*
Y1100500*
X1250409Y1104500D02*
Y1104750D01*
X1250591Y1105250*
X1250773Y1105500*
X1251136Y1105750*
X1251864*
X1252227Y1105500*
X1252409Y1105250*
X1252591Y1104750*
Y1104250*
X1252409Y1103750*
X1252045Y1103000*
X1250227Y1100500*
X1252773*
X1184000Y1107250D02*
Y1102000D01*
Y1107250D02*
X1185273D01*
X1185818Y1107000*
X1186182Y1106500*
X1186364Y1106000*
X1186545Y1105250*
Y1104000*
X1186364Y1103250*
X1186182Y1102750*
X1185818Y1102250*
X1185273Y1102000*
X1184000*
X1188182Y1106250D02*
X1188545Y1106500D01*
X1189091Y1107250*
Y1102000*
X1191091Y1107250D02*
X1193091D01*
X1192000Y1105250*
X1192545*
X1192909Y1105000*
X1193091Y1104750*
X1193273Y1104000*
Y1103500*
X1193091Y1102750*
X1192727Y1102250*
X1192182Y1102000*
X1191636*
X1191091Y1102250*
X1190909Y1102500*
X1190727Y1103000*
X1237964Y1188525D02*
Y1183275D01*
Y1188525D02*
X1240327D01*
X1237964Y1186025D02*
X1239418D01*
X1242145Y1187275D02*
Y1187525D01*
X1242327Y1188025*
X1242509Y1188275*
X1242873Y1188525*
X1243600*
X1243964Y1188275*
X1244145Y1188025*
X1244327Y1187525*
Y1187025*
X1244145Y1186525*
X1243782Y1185775*
X1241964Y1183275*
X1244509*
X1237873Y1274725D02*
Y1269475D01*
Y1274725D02*
X1240236D01*
X1237873Y1272225D02*
X1239327D01*
X1243691Y1274725D02*
X1241873Y1271225D01*
X1244600*
X1243691Y1274725D02*
Y1269475D01*
X1229427Y1338500D02*
X1229245Y1339000D01*
X1228882Y1339500*
X1228518Y1339750*
X1227791*
X1227427Y1339500*
X1227064Y1339000*
X1226882Y1338500*
X1226700Y1337750*
Y1336500*
X1226882Y1335750*
X1227064Y1335250*
X1227427Y1334750*
X1227791Y1334500*
X1228518*
X1228882Y1334750*
X1229245Y1335250*
X1229427Y1335750*
Y1336500*
X1228518D02*
X1229427D01*
X1231064Y1338750D02*
X1231427Y1339000D01*
X1231973Y1339750*
Y1334500*
X1039127Y1181600D02*
X1038945Y1182100D01*
X1038582Y1182600*
X1038218Y1182850*
X1037491*
X1037127Y1182600*
X1036764Y1182100*
X1036582Y1181600*
X1036400Y1180850*
Y1179600*
X1036582Y1178850*
X1036764Y1178350*
X1037127Y1177850*
X1037491Y1177600*
X1038218*
X1038582Y1177850*
X1038945Y1178350*
X1039127Y1178850*
Y1179600*
X1038218D02*
X1039127D01*
X1040945Y1181600D02*
Y1181850D01*
X1041127Y1182350*
X1041309Y1182600*
X1041673Y1182850*
X1042400*
X1042764Y1182600*
X1042945Y1182350*
X1043127Y1181850*
Y1181350*
X1042945Y1180850*
X1042582Y1180100*
X1040764Y1177600*
X1043309*
X1023240Y1573920D02*
X1260740D01*
Y1509592*
X1023240*
Y1573920*
G54D63*
X1051358Y1449329D02*
X1051631Y1449516D01*
X1052040Y1450079*
X1052040D02*
Y1446141D01*
X1063294Y1428741D02*
Y1428929D01*
X1063294D02*
X1063431Y1429304D01*
X1063431D02*
X1063567Y1429491D01*
X1063840Y1429679*
X1063840D02*
X1064385D01*
X1064385D02*
X1064658Y1429491D01*
X1064794Y1429304*
X1064794D02*
X1064931Y1428929D01*
X1064931D02*
Y1428554D01*
X1064931D02*
X1064794Y1428179D01*
X1064794D02*
X1064522Y1427616D01*
X1063158Y1425741*
X1065067*
X1214494Y1449641D02*
Y1449829D01*
X1214494D02*
X1214631Y1450204D01*
X1214631D02*
X1214767Y1450391D01*
X1215040Y1450579*
X1215040D02*
X1215585D01*
X1215585D02*
X1215858Y1450391D01*
X1215994Y1450204*
X1215994D02*
X1216131Y1449829D01*
X1216131D02*
Y1449454D01*
X1216131D02*
X1215994Y1449079D01*
X1215994D02*
X1215722Y1448516D01*
X1214358Y1446641*
X1216267*
X1219267Y1449266D02*
X1219131Y1448704D01*
X1219131D02*
X1218858Y1448329D01*
X1218858D02*
X1218449Y1448141D01*
X1218313*
X1217903Y1448329*
X1217903D02*
X1217631Y1448704D01*
X1217631D02*
X1217494Y1449266D01*
Y1449454*
X1217494D02*
X1217631Y1450016D01*
X1217903Y1450391*
X1218313Y1450579*
X1218313D02*
X1218449D01*
X1218449D02*
X1218858Y1450391D01*
X1219131Y1450016*
X1219267Y1449266*
Y1448329*
X1219267D02*
X1219131Y1447391D01*
X1218858Y1446829*
X1218858D02*
X1218449Y1446641D01*
X1218176*
X1217767Y1446829*
X1217767D02*
X1217631Y1447204D01*
X1201831Y1429479D02*
X1203331D01*
X1203331D02*
X1202513Y1427979D01*
X1202513D02*
X1202922D01*
X1202922D02*
X1203194Y1427791D01*
X1203331Y1427604*
X1203331D02*
X1203467Y1427041D01*
Y1426666*
X1203331Y1426104*
X1203331D02*
X1203058Y1425729D01*
X1203058D02*
X1202649Y1425541D01*
X1202240*
X1201831Y1425729*
X1201831D02*
X1201694Y1425916D01*
X1201558Y1426291*
X1205513Y1429479D02*
X1205103Y1429291D01*
X1204831Y1428729*
X1204831D02*
X1204694Y1427791D01*
Y1427229*
X1204694D02*
X1204831Y1426291D01*
X1205103Y1425729*
X1205103D02*
X1205513Y1425541D01*
X1205785*
X1206194Y1425729*
X1206194D02*
X1206467Y1426291D01*
X1206603Y1427229*
X1206603D02*
Y1427791D01*
X1206467Y1428729*
X1206467D02*
X1206194Y1429291D01*
X1205785Y1429479*
X1205785D02*
X1205513D01*
X1051994Y1021359D02*
Y1021547D01*
X1051994D02*
X1052131Y1021922D01*
X1052131D02*
X1052267Y1022109D01*
X1052540Y1022297*
X1052540D02*
X1053085D01*
X1053085D02*
X1053358Y1022109D01*
X1053494Y1021922*
X1053494D02*
X1053631Y1021547D01*
X1053631D02*
Y1021172D01*
X1053631D02*
X1053494Y1020797D01*
X1053494D02*
X1053222Y1020234D01*
X1051858Y1018359*
X1053767*
X1052358Y1010047D02*
X1052631Y1010234D01*
X1053040Y1010797*
X1053040D02*
Y1006859D01*
X1214631Y1022797D02*
X1216131D01*
X1216131D02*
X1215313Y1021297D01*
X1215313D02*
X1215722D01*
X1215722D02*
X1215994Y1021109D01*
X1216131Y1020922*
X1216131D02*
X1216267Y1020359D01*
Y1019984*
X1216131Y1019422*
X1216131D02*
X1215858Y1019047D01*
X1215858D02*
X1215449Y1018859D01*
X1215040*
X1214631Y1019047*
X1214631D02*
X1214494Y1019234D01*
X1214358Y1019609*
X1218313Y1022797D02*
X1217903Y1022609D01*
X1217631Y1022047*
X1217631D02*
X1217494Y1021109D01*
Y1020547*
X1217494D02*
X1217631Y1019609D01*
X1217903Y1019047*
X1217903D02*
X1218313Y1018859D01*
X1218585*
X1218994Y1019047*
X1218994D02*
X1219267Y1019609D01*
X1219403Y1020547*
X1219403D02*
Y1021109D01*
X1219267Y1022047*
X1219267D02*
X1218994Y1022609D01*
X1218585Y1022797*
X1218585D02*
X1218313D01*
X1214494Y1011359D02*
Y1011547D01*
X1214494D02*
X1214631Y1011922D01*
X1214631D02*
X1214767Y1012109D01*
X1215040Y1012297*
X1215040D02*
X1215585D01*
X1215585D02*
X1215858Y1012109D01*
X1215994Y1011922*
X1215994D02*
X1216131Y1011547D01*
X1216131D02*
Y1011172D01*
X1216131D02*
X1215994Y1010797D01*
X1215994D02*
X1215722Y1010234D01*
X1214358Y1008359*
X1216267*
X1219267Y1010984D02*
X1219131Y1010422D01*
X1219131D02*
X1218858Y1010047D01*
X1218858D02*
X1218449Y1009859D01*
X1218313*
X1217903Y1010047*
X1217903D02*
X1217631Y1010422D01*
X1217631D02*
X1217494Y1010984D01*
Y1011172*
X1217494D02*
X1217631Y1011734D01*
X1217903Y1012109*
X1218313Y1012297*
X1218313D02*
X1218449D01*
X1218449D02*
X1218858Y1012109D01*
X1219131Y1011734*
X1219267Y1010984*
Y1010047*
X1219267D02*
X1219131Y1009109D01*
X1218858Y1008547*
X1218858D02*
X1218449Y1008359D01*
X1218176*
X1217767Y1008547*
X1217767D02*
X1217631Y1008922D01*
G54D75*
X1135335Y1140000D02*
X1139665D01*
X1145335D02*
X1149665D01*
X1155335D02*
X1159665D01*
X1165335D02*
X1169665D01*
X1175335D02*
X1179665D01*
X1113843Y1325094D02*
Y1336906D01*
X1094157Y1325094D02*
Y1336906D01*
X1067843Y1378094D02*
Y1389906D01*
X1048157Y1378094D02*
Y1389906D01*
X1067843Y1325594D02*
Y1337406D01*
X1048157Y1325594D02*
Y1337406D01*
X1066483Y1094094D02*
Y1105906D01*
X1046797Y1094094D02*
Y1105906D01*
X1199685Y1146028D02*
Y1136972D01*
X1210315Y1146028D02*
Y1136972D01*
X1226685Y1146028D02*
Y1136972D01*
X1237315Y1146028D02*
Y1136972D01*
G54D78*
X1251705Y1200094D02*
Y1211906D01*
X1232295Y1200094D02*
Y1211906D01*
Y1257906D02*
Y1246094D01*
X1251705Y1257906D02*
Y1246094D01*
G74*
X0Y0D02*
M02*
