*
*
G04 PADS9.0.1 Build Number: 350951 generated Gerber (RS-274-X) file*
G04 PC Version=2.1*
*
%IN "CCCNGP_FTC_AM-BOARD1.pc"*%
*
%MOIN*%
*
%FSLAX25Y25*%
*
*
*
*
G04 PC Standard Apertures*
*
*
G04 Thermal Relief Aperture macro.*
%AMTER*
1,1,$1,0,0*
1,0,$1-$2,0,0*
21,0,$3,$4,0,0,45*
21,0,$3,$4,0,0,135*
%
*
*
G04 Annular Aperture macro.*
%AMANN*
1,1,$1,0,0*
1,0,$2,0,0*
%
*
*
G04 Odd Aperture macro.*
%AMODD*
1,1,$1,0,0*
1,0,$1-0.005,0,0*
%
*
*
G04 PC Custom Aperture Macros*
*
*
*
*
*
*
G04 PC Aperture Table*
*
%ADD011C,0.001*%
%ADD012C,0.01*%
%ADD013C,0.015*%
%ADD014C,0.006*%
%ADD016C,0.03*%
%ADD020C,0.01575*%
%ADD035C,0.06*%
%ADD041C,0.065*%
%ADD045C,0.06102*%
*
*
*
*
G04 PC Circuitry*
G04 Layer Name CCCNGP_FTC_AM-BOARD1.pc - circuitry*
%LPD*%
*
*
G04 PC Custom Flashes*
G04 Layer Name CCCNGP_FTC_AM-BOARD1.pc - flashes*
%LPD*%
*
*
G04 PC Circuitry*
G04 Layer Name CCCNGP_FTC_AM-BOARD1.pc - circuitry*
%LPD*%
*
G54D11*
G54D12*
G01X1916950Y1783438D02*
Y1776875D01*
X1919677*
X1923541Y1783438D02*
X1921723Y1776875D01*
X1923541Y1783438D02*
X1925359Y1776875D01*
X1922405Y1779063D02*
X1924677D01*
X1927405Y1783438D02*
X1929223Y1780313D01*
X1929223D02*
Y1776875D01*
X1931041Y1783438D02*
X1929223Y1780313D01*
X1933086Y1783438D02*
Y1776875D01*
Y1783438D02*
X1936041D01*
X1933086Y1780313D02*
X1934905D01*
X1933086Y1776875D02*
X1936041D01*
X1938086Y1783438D02*
Y1776875D01*
Y1783438D02*
X1940132D01*
X1940132D02*
X1940814Y1783125D01*
X1941041Y1782813*
X1941041D02*
X1941268Y1782188D01*
X1941268D02*
Y1781563D01*
X1941268D02*
X1941041Y1780938D01*
X1941041D02*
X1940814Y1780625D01*
X1940132Y1780313*
X1940132D02*
X1938086D01*
X1939677D02*
X1941268Y1776875D01*
X1916950Y1768438D02*
Y1761875D01*
Y1768438D02*
X1918995D01*
X1918995D02*
X1919677Y1768125D01*
X1919905Y1767813*
X1919905D02*
X1920132Y1767188D01*
X1920132D02*
Y1766250D01*
X1919905Y1765625*
X1919677Y1765313*
X1919677D02*
X1918995Y1765000D01*
X1916950*
X1923995Y1768438D02*
X1922177Y1761875D01*
X1923995Y1768438D02*
X1925814Y1761875D01*
X1922859Y1764063D02*
X1925132D01*
X1927859Y1768438D02*
Y1761875D01*
Y1768438D02*
X1929905D01*
X1929905D02*
X1930586Y1768125D01*
X1930814Y1767813*
X1930814D02*
X1931041Y1767188D01*
X1931041D02*
Y1766563D01*
X1931041D02*
X1930814Y1765938D01*
X1930814D02*
X1930586Y1765625D01*
X1929905Y1765313*
X1929905D02*
X1927859D01*
X1929450D02*
X1931041Y1761875D01*
X1934677Y1768438D02*
Y1761875D01*
X1933086Y1768438D02*
X1936268D01*
X1943541D02*
Y1761875D01*
Y1768438D02*
X1946723Y1761875D01*
Y1768438D02*
Y1761875D01*
X1950132Y1768438D02*
X1949677Y1768125D01*
X1949223Y1767500*
X1948995Y1766875*
X1948768Y1765938*
X1948768D02*
Y1764375D01*
X1948995Y1763438*
X1948995D02*
X1949223Y1762813D01*
X1949223D02*
X1949677Y1762188D01*
X1949677D02*
X1950132Y1761875D01*
X1951041*
X1951495Y1762188*
X1951495D02*
X1951950Y1762813D01*
X1951950D02*
X1952177Y1763438D01*
X1952177D02*
X1952405Y1764375D01*
Y1765938*
X1952405D02*
X1952177Y1766875D01*
X1951950Y1767500*
X1951495Y1768125*
X1951041Y1768438*
X1951041D02*
X1950132D01*
X1916950Y1753438D02*
Y1746875D01*
Y1753438D02*
X1918995D01*
X1918995D02*
X1919677Y1753125D01*
X1919905Y1752813*
X1919905D02*
X1920132Y1752188D01*
X1920132D02*
Y1751563D01*
X1920132D02*
X1919905Y1750938D01*
X1919905D02*
X1919677Y1750625D01*
X1918995Y1750313*
X1918995D02*
X1916950D01*
X1918541D02*
X1920132Y1746875D01*
X1922177Y1753438D02*
Y1746875D01*
Y1753438D02*
X1925132D01*
X1922177Y1750313D02*
X1923995D01*
X1922177Y1746875D02*
X1925132D01*
X1927177Y1753438D02*
X1928995Y1746875D01*
X1930814Y1753438D02*
X1928995Y1746875D01*
X1976950Y1767188D02*
X1977405Y1767500D01*
X1978086Y1768438*
X1978086D02*
Y1761875D01*
X1983314Y1768438D02*
X1981041Y1761875D01*
X1980132Y1768438D02*
X1983314D01*
X1985359Y1764688D02*
X1989450D01*
X1994223Y1767500D02*
X1993995Y1768125D01*
X1993314Y1768438*
X1993314D02*
X1992859D01*
X1992859D02*
X1992177Y1768125D01*
X1991723Y1767188*
X1991723D02*
X1991495Y1765625D01*
Y1764063*
X1991495D02*
X1991723Y1762813D01*
X1991723D02*
X1992177Y1762188D01*
X1992177D02*
X1992859Y1761875D01*
X1993086*
X1993768Y1762188*
X1993768D02*
X1994223Y1762813D01*
X1994223D02*
X1994450Y1763750D01*
Y1764063*
X1994450D02*
X1994223Y1765000D01*
X1993768Y1765625*
X1993086Y1765938*
X1993086D02*
X1992859D01*
X1992859D02*
X1992177Y1765625D01*
X1991723Y1765000*
X1991495Y1764063*
X1997859Y1768438D02*
X1997177Y1768125D01*
X1996723Y1767188*
X1996723D02*
X1996495Y1765625D01*
Y1764688*
X1996495D02*
X1996723Y1763125D01*
X1997177Y1762188*
X1997177D02*
X1997859Y1761875D01*
X1998314*
X1998995Y1762188*
X1998995D02*
X1999450Y1763125D01*
X1999677Y1764688*
X1999677D02*
Y1765625D01*
X1999450Y1767188*
X1999450D02*
X1998995Y1768125D01*
X1998314Y1768438*
X1998314D02*
X1997859D01*
X2003086D02*
X2002405Y1768125D01*
X2001950Y1767188*
X2001950D02*
X2001723Y1765625D01*
Y1764688*
X2001723D02*
X2001950Y1763125D01*
X2002405Y1762188*
X2002405D02*
X2003086Y1761875D01*
X2003541*
X2004223Y1762188*
X2004223D02*
X2004677Y1763125D01*
X2004905Y1764688*
X2004905D02*
Y1765625D01*
X2004677Y1767188*
X2004677D02*
X2004223Y1768125D01*
X2003541Y1768438*
X2003541D02*
X2003086D01*
X2009905D02*
X2007632D01*
X2007632D02*
X2007405Y1765625D01*
X2007632Y1765938*
X2007632D02*
X2008314Y1766250D01*
X2008995*
X2009677Y1765938*
X2009677D02*
X2010132Y1765313D01*
X2010132D02*
X2010359Y1764375D01*
X2010132Y1763750*
X2009905Y1762813*
X2009905D02*
X2009450Y1762188D01*
X2009450D02*
X2008768Y1761875D01*
X2008086*
X2007405Y1762188*
X2007405D02*
X2007177Y1762500D01*
X2006950Y1763125*
X2014677Y1768438D02*
X2012405Y1764063D01*
X2012405D02*
X2015814D01*
X2014677Y1768438D02*
Y1761875D01*
X2017859Y1767188D02*
X2018314Y1767500D01*
X2018995Y1768438*
X2018995D02*
Y1761875D01*
X2021041Y1764688D02*
X2025132D01*
X2028541Y1768438D02*
X2027859Y1768125D01*
X2027405Y1767188*
X2027405D02*
X2027177Y1765625D01*
Y1764688*
X2027177D02*
X2027405Y1763125D01*
X2027859Y1762188*
X2027859D02*
X2028541Y1761875D01*
X2028995*
X2029677Y1762188*
X2029677D02*
X2030132Y1763125D01*
X2030359Y1764688*
X2030359D02*
Y1765625D01*
X2030132Y1767188*
X2030132D02*
X2029677Y1768125D01*
X2028995Y1768438*
X2028995D02*
X2028541D01*
X2033768D02*
X2033086Y1768125D01*
X2032632Y1767188*
X2032632D02*
X2032405Y1765625D01*
Y1764688*
X2032405D02*
X2032632Y1763125D01*
X2033086Y1762188*
X2033086D02*
X2033768Y1761875D01*
X2034223*
X2034905Y1762188*
X2034905D02*
X2035359Y1763125D01*
X2035586Y1764688*
X2035586D02*
Y1765625D01*
X2035359Y1767188*
X2035359D02*
X2034905Y1768125D01*
X2034223Y1768438*
X2034223D02*
X2033768D01*
X2037632Y1767188D02*
X2038086Y1767500D01*
X2038768Y1768438*
X2038768D02*
Y1761875D01*
X2001950Y1752188D02*
X2002405Y1752500D01*
X2003086Y1753438*
X2003086D02*
Y1746875D01*
X1915950Y1737938D02*
Y1731375D01*
Y1737938D02*
X1917541D01*
X1917541D02*
X1918223Y1737625D01*
X1918677Y1737000*
X1918905Y1736375*
X1919132Y1735438*
X1919132D02*
Y1733875D01*
X1918905Y1732938*
X1918905D02*
X1918677Y1732313D01*
X1918677D02*
X1918223Y1731688D01*
X1918223D02*
X1917541Y1731375D01*
X1915950*
X1922995Y1737938D02*
X1921177Y1731375D01*
X1922995Y1737938D02*
X1924814Y1731375D01*
X1921859Y1733563D02*
X1924132D01*
X1928450Y1737938D02*
Y1731375D01*
X1926859Y1737938D02*
X1930041D01*
X1932086D02*
Y1731375D01*
Y1737938D02*
X1935041D01*
X1932086Y1734813D02*
X1933905D01*
X1932086Y1731375D02*
X1935041D01*
X1978314Y1737938D02*
X1977632Y1737625D01*
X1977177Y1736688*
X1977177D02*
X1976950Y1735125D01*
Y1734188*
X1976950D02*
X1977177Y1732625D01*
X1977632Y1731688*
X1977632D02*
X1978314Y1731375D01*
X1978768*
X1979450Y1731688*
X1979450D02*
X1979905Y1732625D01*
X1980132Y1734188*
X1980132D02*
Y1735125D01*
X1979905Y1736688*
X1979905D02*
X1979450Y1737625D01*
X1978768Y1737938*
X1978768D02*
X1978314D01*
X1984450D02*
X1982177Y1733563D01*
X1982177D02*
X1985586D01*
X1984450Y1737938D02*
Y1731375D01*
X1994677Y1737938D02*
X1992859Y1731375D01*
X1994677Y1737938D02*
X1996495Y1731375D01*
X1993541Y1733563D02*
X1995814D01*
X1998541Y1737938D02*
Y1733250D01*
X1998768Y1732313*
X1998768D02*
X1999223Y1731688D01*
X1999223D02*
X1999905Y1731375D01*
X2000359*
X2001041Y1731688*
X2001041D02*
X2001495Y1732313D01*
X2001495D02*
X2001723Y1733250D01*
Y1737938*
X2007177Y1736375D02*
X2006950Y1737000D01*
X2006495Y1737625*
X2006041Y1737938*
X2006041D02*
X2005132D01*
X2005132D02*
X2004677Y1737625D01*
X2004223Y1737000*
X2003995Y1736375*
X2003768Y1735438*
X2003768D02*
Y1733875D01*
X2003995Y1732938*
X2003995D02*
X2004223Y1732313D01*
X2004223D02*
X2004677Y1731688D01*
X2004677D02*
X2005132Y1731375D01*
X2006041*
X2006495Y1731688*
X2006495D02*
X2006950Y1732313D01*
X2006950D02*
X2007177Y1732938D01*
X2007177D02*
Y1733875D01*
X2006041D02*
X2007177D01*
X2009223Y1737938D02*
Y1733250D01*
X2009450Y1732313*
X2009450D02*
X2009905Y1731688D01*
X2009905D02*
X2010586Y1731375D01*
X2011041*
X2011723Y1731688*
X2011723D02*
X2012177Y1732313D01*
X2012177D02*
X2012405Y1733250D01*
Y1737938*
X2017632Y1737000D02*
X2017177Y1737625D01*
X2016495Y1737938*
X2016495D02*
X2015586D01*
X2015586D02*
X2014905Y1737625D01*
X2014450Y1737000*
Y1736375*
X2014677Y1735750*
X2014905Y1735438*
X2014905D02*
X2015359Y1735125D01*
X2016723Y1734500*
X2017177Y1734188*
X2017177D02*
X2017405Y1733875D01*
X2017632Y1733250*
Y1732313*
X2017632D02*
X2017177Y1731688D01*
X2017177D02*
X2016495Y1731375D01*
X2015586*
X2014905Y1731688*
X2014905D02*
X2014450Y1732313D01*
X2021268Y1737938D02*
Y1731375D01*
X2019677Y1737938D02*
X2022859D01*
X2030359Y1736375D02*
Y1736688D01*
X2030359D02*
X2030586Y1737313D01*
X2030586D02*
X2030814Y1737625D01*
X2031268Y1737938*
X2031268D02*
X2032177D01*
X2032177D02*
X2032632Y1737625D01*
X2032859Y1737313*
X2032859D02*
X2033086Y1736688D01*
X2033086D02*
Y1736063D01*
X2033086D02*
X2032859Y1735438D01*
X2032859D02*
X2032405Y1734500D01*
X2030132Y1731375*
X2033314*
X2036723Y1737938D02*
X2036041Y1737625D01*
X2035586Y1736688*
X2035586D02*
X2035359Y1735125D01*
Y1734188*
X2035359D02*
X2035586Y1732625D01*
X2036041Y1731688*
X2036041D02*
X2036723Y1731375D01*
X2037177*
X2037859Y1731688*
X2037859D02*
X2038314Y1732625D01*
X2038541Y1734188*
X2038541D02*
Y1735125D01*
X2038314Y1736688*
X2038314D02*
X2037859Y1737625D01*
X2037177Y1737938*
X2037177D02*
X2036723D01*
X2040586Y1736688D02*
X2041041Y1737000D01*
X2041723Y1737938*
X2041723D02*
Y1731375D01*
X2043768Y1736688D02*
X2044223Y1737000D01*
X2044905Y1737938*
X2044905D02*
Y1731375D01*
X1982159Y1780475D02*
X1981932Y1781100D01*
X1981477Y1781725*
X1981023Y1782038*
X1981023D02*
X1980114D01*
X1980114D02*
X1979659Y1781725D01*
X1979205Y1781100*
X1978977Y1780475*
X1978750Y1779538*
X1978750D02*
Y1777975D01*
X1978977Y1777038*
X1978977D02*
X1979205Y1776413D01*
X1979205D02*
X1979659Y1775788D01*
X1979659D02*
X1980114Y1775475D01*
X1981023*
X1981477Y1775788*
X1981477D02*
X1981932Y1776413D01*
X1981932D02*
X1982159Y1777038D01*
X1982159D02*
Y1777975D01*
X1981023D02*
X1982159D01*
X1984205Y1782038D02*
Y1775475D01*
Y1782038D02*
X1986250D01*
X1986250D02*
X1986932Y1781725D01*
X1987159Y1781413*
X1987159D02*
X1987386Y1780788D01*
X1987386D02*
Y1780163D01*
X1987386D02*
X1987159Y1779538D01*
X1987159D02*
X1986932Y1779225D01*
X1986250Y1778913*
X1986250D02*
X1984205D01*
X1985795D02*
X1987386Y1775475D01*
X1990795Y1782038D02*
X1990341Y1781725D01*
X1989886Y1781100*
X1989659Y1780475*
X1989432Y1779538*
X1989432D02*
Y1777975D01*
X1989659Y1777038*
X1989659D02*
X1989886Y1776413D01*
X1989886D02*
X1990341Y1775788D01*
X1990341D02*
X1990795Y1775475D01*
X1991705*
X1992159Y1775788*
X1992159D02*
X1992614Y1776413D01*
X1992614D02*
X1992841Y1777038D01*
X1992841D02*
X1993068Y1777975D01*
Y1779538*
X1993068D02*
X1992841Y1780475D01*
X1992614Y1781100*
X1992159Y1781725*
X1991705Y1782038*
X1991705D02*
X1990795D01*
X1995114D02*
Y1777350D01*
X1995341Y1776413*
X1995341D02*
X1995795Y1775788D01*
X1995795D02*
X1996477Y1775475D01*
X1996932*
X1997614Y1775788*
X1997614D02*
X1998068Y1776413D01*
X1998068D02*
X1998295Y1777350D01*
Y1782038*
X2000341D02*
Y1775475D01*
Y1782038D02*
X2003523Y1775475D01*
Y1782038D02*
Y1775475D01*
X2005568Y1782038D02*
Y1775475D01*
Y1782038D02*
X2007159D01*
X2007159D02*
X2007841Y1781725D01*
X2008295Y1781100*
X2008523Y1780475*
X2008750Y1779538*
X2008750D02*
Y1777975D01*
X2008523Y1777038*
X2008523D02*
X2008295Y1776413D01*
X2008295D02*
X2007841Y1775788D01*
X2007841D02*
X2007159Y1775475D01*
X2005568*
X2016023Y1782038D02*
Y1775475D01*
Y1782038D02*
X2018068D01*
X2018068D02*
X2018750Y1781725D01*
X2018977Y1781413*
X2018977D02*
X2019205Y1780788D01*
X2019205D02*
Y1779850D01*
X2018977Y1779225*
X2018750Y1778913*
X2018750D02*
X2018068Y1778600D01*
X2016023*
X2021250Y1782038D02*
Y1775475D01*
X2023977*
X2027841Y1782038D02*
X2026023Y1775475D01*
X2027841Y1782038D02*
X2029659Y1775475D01*
X2026705Y1777663D02*
X2028977D01*
X2031705Y1782038D02*
Y1775475D01*
Y1782038D02*
X2034886Y1775475D01*
Y1782038D02*
Y1775475D01*
X2036932Y1782038D02*
Y1775475D01*
Y1782038D02*
X2039886D01*
X2036932Y1778913D02*
X2038750D01*
X2036932Y1775475D02*
X2039886D01*
X2160530Y1465475D02*
G75*
G03X2160530I-8473J0D01*
G01Y1505475D02*
G03X2160530I-8473J0D01*
G01Y1545475D02*
G03X2160530I-8473J0D01*
G01X2156297Y1585475D02*
G03X2156297I-4240J0D01*
G01X2150950Y1600475D02*
G03X2150950I-4700J0D01*
G01X2157200Y1620475D02*
G03X2157200I-5950J0D01*
G01X2133950Y1456975D02*
G03X2133950I-4700J0D01*
G01Y1479975D02*
G03X2133950I-4700J0D01*
G01Y1502975D02*
G03X2133950I-4700J0D01*
G01Y1525975D02*
G03X2133950I-4700J0D01*
G01Y1548975D02*
G03X2133950I-4700J0D01*
G01Y1571975D02*
G03X2133950I-4700J0D01*
G01Y1595975D02*
G03X2133950I-4700J0D01*
G01X2108931Y1424471D02*
G03X2108931I-11500J0D01*
G01X2087200Y1456975D02*
G03X2087200I-5950J0D01*
G01Y1479975D02*
G03X2087200I-5950J0D01*
G01Y1502975D02*
G03X2087200I-5950J0D01*
G01Y1525975D02*
G03X2087200I-5950J0D01*
G01Y1548975D02*
G03X2087200I-5950J0D01*
G01Y1571975D02*
G03X2087200I-5950J0D01*
G01Y1594975D02*
G03X2087200I-5950J0D01*
G01X2108931Y1621321D02*
G03X2108931I-11500J0D01*
G01X2073915Y1465475D02*
G03X2073915I-8472J0D01*
G01Y1505475D02*
G03X2073915I-8472J0D01*
G01Y1545475D02*
G03X2073915I-8472J0D01*
G01Y1585475D02*
G03X2073915I-8472J0D01*
G01X1917200Y1474975D02*
G03X1917200I-5950J0D01*
G01X1896200Y1486975D02*
G03X1896200I-5950J0D01*
G01X1864500Y1587975D02*
G03X1864500I-5950J0D01*
G01X1846277Y1436912D02*
G03X1846277I-9555J0D01*
G01Y1456912D02*
G03X1846277I-9555J0D01*
G01Y1476912D02*
G03X1846277I-9555J0D01*
G01Y1496912D02*
G03X1846277I-9555J0D01*
G01Y1516912D02*
G03X1846277I-9555J0D01*
G01Y1536912D02*
G03X1846277I-9555J0D01*
G01Y1556912D02*
G03X1846277I-9555J0D01*
G01Y1576912D02*
G03X1846277I-9555J0D01*
G01Y1596912D02*
G03X1846277I-9555J0D01*
G01Y1616912D02*
G03X1846277I-9555J0D01*
G01X1818523Y1414668D02*
G03X1818523I-4950J0D01*
G01Y1424668D02*
G03X1818523I-4950J0D01*
G01Y1447975D02*
G03X1818523I-4950J0D01*
G01Y1457975D02*
G03X1818523I-4950J0D01*
G01Y1467975D02*
G03X1818523I-4950J0D01*
G01Y1491282D02*
G03X1818523I-4950J0D01*
G01Y1501282D02*
G03X1818523I-4950J0D01*
G01Y1511282D02*
G03X1818523I-4950J0D01*
G01Y1534589D02*
G03X1818523I-4950J0D01*
G01Y1544589D02*
G03X1818523I-4950J0D01*
G01Y1554589D02*
G03X1818523I-4950J0D01*
G01Y1577896D02*
G03X1818523I-4950J0D01*
G01Y1587896D02*
G03X1818523I-4950J0D01*
G01Y1597896D02*
G03X1818523I-4950J0D01*
G01Y1621203D02*
G03X1818523I-4950J0D01*
G01Y1631203D02*
G03X1818523I-4950J0D01*
G01X2195750Y1408182D02*
Y1635268D01*
X2188543Y1642475*
X1871595*
X1868149D02*
G03X1871595I1723J-9343D01*
G01X1868149D02*
X1844491D01*
X1828953D02*
G03X1844491I7769J-5563D01*
G01X1828953D02*
X1818357D01*
X1808816Y1639834D02*
G03X1818357Y1642475I4757J1369D01*
G01X1808816Y1639834D02*
X1806750Y1637768D01*
Y1408182*
X1808834Y1406098*
X1818377Y1403475D02*
G03X1808834Y1406098I-4804J1193D01*
G01X1818377Y1403475D02*
X1867446D01*
X1872298D02*
G03X1867446I-2426J9185D01*
G01X1872298D02*
X2191043D01*
X2195750Y1408182*
X2027736Y1442896D02*
G03X2025638Y1440100I3750J-5000D01*
G01X2026486Y1444146D02*
G03X2027736Y1442896I5000J3750D01*
G01X2023690Y1442048D02*
G03X2026486Y1444146I-2204J5848D01*
G01X2025638Y1440100D02*
G03X2023690Y1442048I-4152J-2204D01*
G01X2027736Y1462896D02*
G03X2026486Y1461646I3750J-5000D01*
G01X2025638Y1465693D02*
G03X2027736Y1462896I5848J2203D01*
G01X2023690Y1463745D02*
G03X2025638Y1465693I-2204J4151D01*
G01X2026486Y1461646D02*
G03X2023690Y1463745I-5000J-3750D01*
G01X2027736Y1482896D02*
G03X2025638Y1480100I3750J-5000D01*
G01X2026486Y1484146D02*
G03X2027736Y1482896I5000J3750D01*
G01X2023690Y1482048D02*
G03X2026486Y1484146I-2204J5848D01*
G01X2025638Y1480100D02*
G03X2023690Y1482048I-4152J-2204D01*
G01X2027736Y1552896D02*
G03X2026486Y1551646I3750J-5000D01*
G01X2025638Y1555693D02*
G03X2027736Y1552896I5848J2203D01*
G01X2023690Y1553745D02*
G03X2025638Y1555693I-2204J4151D01*
G01X2026486Y1551646D02*
G03X2023690Y1553745I-5000J-3750D01*
G01X2027736Y1572896D02*
G03X2025638Y1570100I3750J-5000D01*
G01X2026486Y1574146D02*
G03X2027736Y1572896I5000J3750D01*
G01X2023690Y1572048D02*
G03X2026486Y1574146I-2204J5848D01*
G01X2025638Y1570100D02*
G03X2023690Y1572048I-4152J-2204D01*
G01X2027736Y1582896D02*
G03X2026486Y1581646I3750J-5000D01*
G01X2025638Y1585693D02*
G03X2027736Y1582896I5848J2203D01*
G01X2023690Y1583745D02*
G03X2025638Y1585693I-2204J4151D01*
G01X2026486Y1581646D02*
G03X2023690Y1583745I-5000J-3750D01*
G01X2175750Y1430975D02*
Y1413975D01*
X2175250Y1413475D02*
G03X2175750Y1413975I0J500D01*
G01X2175250Y1413475D02*
X2121250D01*
X2120750Y1413975D02*
G03X2121250Y1413475I500J0D01*
G01X2120750Y1413975D02*
Y1430975D01*
X2121250Y1431475D02*
G03X2120750Y1430975I0J-500D01*
G01X2121250Y1431475D02*
X2175250D01*
X2175750Y1430975D02*
G03X2175250Y1431475I-500J0D01*
G01X2160530Y1465475D02*
G03X2160530I-8473J0D01*
G01Y1505475D02*
G03X2160530I-8473J0D01*
G01Y1545475D02*
G03X2160530I-8473J0D01*
G01X2156297Y1585475D02*
G03X2156297I-4240J0D01*
G01X2150950Y1600475D02*
G03X2150950I-4700J0D01*
G01X2157200Y1620475D02*
G03X2157200I-5950J0D01*
G01X2133950Y1456975D02*
G03X2133950I-4700J0D01*
G01Y1479975D02*
G03X2133950I-4700J0D01*
G01Y1502975D02*
G03X2133950I-4700J0D01*
G01Y1525975D02*
G03X2133950I-4700J0D01*
G01Y1548975D02*
G03X2133950I-4700J0D01*
G01Y1571975D02*
G03X2133950I-4700J0D01*
G01Y1595975D02*
G03X2133950I-4700J0D01*
G01X2108931Y1424471D02*
G03X2108931I-11500J0D01*
G01X2087200Y1456975D02*
G03X2087200I-5950J0D01*
G01Y1479975D02*
G03X2087200I-5950J0D01*
G01Y1502975D02*
G03X2087200I-5950J0D01*
G01Y1525975D02*
G03X2087200I-5950J0D01*
G01Y1548975D02*
G03X2087200I-5950J0D01*
G01Y1571975D02*
G03X2087200I-5950J0D01*
G01Y1594975D02*
G03X2087200I-5950J0D01*
G01X2108931Y1621321D02*
G03X2108931I-11500J0D01*
G01X2073915Y1465475D02*
G03X2073915I-8472J0D01*
G01Y1505475D02*
G03X2073915I-8472J0D01*
G01Y1545475D02*
G03X2073915I-8472J0D01*
G01Y1585475D02*
G03X2073915I-8472J0D01*
G01X2056750Y1530475D02*
Y1505475D01*
X2056604Y1505121D02*
G03X2056750Y1505475I-354J354D01*
G01X2056604Y1505121D02*
X2054104Y1502621D01*
X2053750Y1502475D02*
G03X2054104Y1502621I0J500D01*
G01X2053750Y1502475D02*
X2035740D01*
X2035236Y1492896D02*
G03X2035740Y1502475I-3750J5000D01*
G01X2035236Y1482896D02*
G03Y1492896I-3750J5000D01*
G01Y1472896D02*
G03Y1482896I-3750J5000D01*
G01Y1462896D02*
G03Y1472896I-3750J5000D01*
G01Y1452896D02*
G03Y1462896I-3750J5000D01*
G01Y1442896D02*
G03Y1452896I-3750J5000D01*
G01Y1432896D02*
G03Y1442896I-3750J5000D01*
G01X2027736Y1422896D02*
G03X2035236Y1432896I3750J5000D01*
G01X2027736Y1422896D02*
Y1422146D01*
X2027236Y1421646D02*
G03X2027736Y1422146I0J500D01*
G01X2027236Y1421646D02*
X2015736D01*
X2015236Y1422146D02*
G03X2015736Y1421646I500J0D01*
G01X2015236Y1422146D02*
Y1433646D01*
X2015736Y1434146D02*
G03X2015236Y1433646I0J-500D01*
G01X2015736Y1434146D02*
X2018653D01*
X2019283Y1442048D02*
G03X2018653Y1434146I2203J-4152D01*
G01X2017736Y1452896D02*
G03X2019283Y1442048I3750J-5000D01*
G01Y1463745D02*
G03X2017736Y1452896I2203J-5849D01*
G01X2025638Y1470100D02*
G03X2019283Y1463745I-4152J-2204D01*
G01X2027736Y1472896D02*
G03X2025638Y1470100I3750J-5000D01*
G01Y1475693D02*
G03X2027736Y1472896I5848J2203D01*
G01X2019283Y1482048D02*
G03X2025638Y1475693I2203J-4152D01*
G01X2017736Y1492896D02*
G03X2019283Y1482048I3750J-5000D01*
G01X2017232Y1502475D02*
G03X2017736Y1492896I4254J-4579D01*
G01X2017232Y1502475D02*
X1958957D01*
X1956750Y1500268*
Y1463975*
X1956604Y1463621D02*
G03X1956750Y1463975I-354J354D01*
G01X1956604Y1463621D02*
X1954104Y1461121D01*
X1953750Y1460975D02*
G03X1954104Y1461121I0J500D01*
G01X1953750Y1460975D02*
X1926250D01*
X1925896Y1461121D02*
G03X1926250Y1460975I354J354D01*
G01X1925896Y1461121D02*
X1923396Y1463621D01*
X1923250Y1463975D02*
G03X1923396Y1463621I500J0D01*
G01X1923250Y1463975D02*
Y1570475D01*
X1923396Y1570829D02*
G03X1923250Y1570475I354J-354D01*
G01X1923396Y1570829D02*
X1925896Y1573329D01*
X1926250Y1573475D02*
G03X1925896Y1573329I0J-500D01*
G01X1926250Y1573475D02*
X1953750D01*
X1954104Y1573329D02*
G03X1953750Y1573475I-354J-354D01*
G01X1954104Y1573329D02*
X1956604Y1570829D01*
X1956750Y1570475D02*
G03X1956604Y1570829I-500J0D01*
G01X1956750Y1570475D02*
Y1535682D01*
X1958957Y1533475*
X2017069*
X2017736Y1542896D02*
G03X2017069Y1533475I3750J-5000D01*
G01X2019283Y1553745D02*
G03X2017736Y1542896I2203J-5849D01*
G01X2025638Y1560100D02*
G03X2019283Y1553745I-4152J-2204D01*
G01X2027736Y1562896D02*
G03X2025638Y1560100I3750J-5000D01*
G01Y1565693D02*
G03X2027736Y1562896I5848J2203D01*
G01X2019283Y1572048D02*
G03X2025638Y1565693I2203J-4152D01*
G01X2019283Y1583745D02*
G03Y1572048I2203J-5849D01*
G01X2025638Y1590100D02*
G03X2019283Y1583745I-4152J-2204D01*
G01X2027736Y1592896D02*
G03X2025638Y1590100I3750J-5000D01*
G01Y1595693D02*
G03X2027736Y1592896I5848J2203D01*
G01X2025638Y1600100D02*
G03Y1595693I-4152J-2204D01*
G01X2027736Y1602896D02*
G03X2025638Y1600100I3750J-5000D01*
G01Y1605693D02*
G03X2027736Y1602896I5848J2203D01*
G01X2025638Y1610100D02*
G03Y1605693I-4152J-2204D01*
G01X2027736Y1612896D02*
G03X2025638Y1610100I3750J-5000D01*
G01Y1615693D02*
G03X2027736Y1612896I5848J2203D01*
G01X2025638Y1620100D02*
G03Y1615693I-4152J-2204D01*
G01X2035236Y1612896D02*
G03X2025638Y1620100I-3750J5000D01*
G01X2035236Y1602896D02*
G03Y1612896I-3750J5000D01*
G01Y1592896D02*
G03Y1602896I-3750J5000D01*
G01Y1582896D02*
G03Y1592896I-3750J5000D01*
G01Y1572896D02*
G03Y1582896I-3750J5000D01*
G01Y1562896D02*
G03Y1572896I-3750J5000D01*
G01Y1552896D02*
G03Y1562896I-3750J5000D01*
G01Y1542896D02*
G03Y1552896I-3750J5000D01*
G01X2035904Y1533475D02*
G03X2035236Y1542896I-4418J4421D01*
G01X2035904Y1533475D02*
X2053750D01*
X2054104Y1533329D02*
G03X2053750Y1533475I-354J-354D01*
G01X2054104Y1533329D02*
X2056604Y1530829D01*
X2056750Y1530475D02*
G03X2056604Y1530829I-500J0D01*
G01X1917200Y1474975D02*
G03X1917200I-5950J0D01*
G01X1915475Y1542975D02*
G03X1915098Y1553199I-3225J5000D01*
G01X1914068Y1532309D02*
G03X1915475Y1542975I-1818J5666D01*
G01X1914068Y1523641D02*
G03Y1532309I-1818J4334D01*
G01X1910432Y1523641D02*
G03X1914068I1818J-5666D01*
G01X1910432Y1532309D02*
G03Y1523641I1818J-4334D01*
G01X1909025Y1542975D02*
G03X1910432Y1532309I3225J-5000D01*
G01X1908702Y1552751D02*
G03X1909025Y1542975I3548J-4776D01*
G01X1915098Y1553199D02*
G03X1908702Y1552751I-3548J4776D01*
G01X1896200Y1486975D02*
G03X1896200I-5950J0D01*
G01X1864500Y1587975D02*
G03X1864500I-5950J0D01*
G01X1846277Y1425967D02*
Y1407857D01*
X1845777Y1407357D02*
G03X1846277Y1407857I0J500D01*
G01X1845777Y1407357D02*
X1827667D01*
X1827167Y1407857D02*
G03X1827667Y1407357I500J-0D01*
G01X1827167Y1407857D02*
Y1425967D01*
X1827667Y1426467D02*
G03X1827167Y1425967I-0J-500D01*
G01X1827667Y1426467D02*
X1845777D01*
X1846277Y1425967D02*
G03X1845777Y1426467I-500J0D01*
G01X1846277Y1436912D02*
G03X1846277I-9555J0D01*
G01Y1456912D02*
G03X1846277I-9555J0D01*
G01Y1476912D02*
G03X1846277I-9555J0D01*
G01Y1496912D02*
G03X1846277I-9555J0D01*
G01Y1516912D02*
G03X1846277I-9555J0D01*
G01Y1536912D02*
G03X1846277I-9555J0D01*
G01Y1556912D02*
G03X1846277I-9555J0D01*
G01Y1576912D02*
G03X1846277I-9555J0D01*
G01Y1596912D02*
G03X1846277I-9555J0D01*
G01Y1616912D02*
G03X1846277I-9555J0D01*
G01X1818523Y1414668D02*
G03X1818523I-4950J0D01*
G01Y1424668D02*
G03X1818523I-4950J0D01*
G01Y1447975D02*
G03X1818523I-4950J0D01*
G01Y1457975D02*
G03X1818523I-4950J0D01*
G01Y1467975D02*
G03X1818523I-4950J0D01*
G01Y1491282D02*
G03X1818523I-4950J0D01*
G01Y1501282D02*
G03X1818523I-4950J0D01*
G01Y1511282D02*
G03X1818523I-4950J0D01*
G01Y1534589D02*
G03X1818523I-4950J0D01*
G01Y1544589D02*
G03X1818523I-4950J0D01*
G01Y1554589D02*
G03X1818523I-4950J0D01*
G01Y1577896D02*
G03X1818523I-4950J0D01*
G01Y1587896D02*
G03X1818523I-4950J0D01*
G01Y1597896D02*
G03X1818523I-4950J0D01*
G01Y1621203D02*
G03X1818523I-4950J0D01*
G01Y1631203D02*
G03X1818523I-4950J0D01*
G01X2025632Y1582574D02*
X2027341D01*
X2024307Y1583474D02*
X2027070D01*
X2026466Y1581674D02*
X2026507D01*
X2024598Y1584374D02*
X2026323D01*
X2025387Y1585274D02*
X2025813D01*
X2024920Y1572674D02*
X2027456D01*
X2026000Y1573574D02*
X2026972D01*
X2024142Y1571774D02*
X2026584D01*
X2025123Y1570874D02*
X2025991D01*
X2025266Y1552874D02*
X2027706D01*
X2023743Y1553774D02*
X2026789D01*
X2026223Y1551974D02*
X2026749D01*
X2024908Y1554674D02*
X2026131D01*
X2025572Y1555574D02*
X2025684D01*
X2024920Y1482674D02*
X2027456D01*
X2026000Y1483574D02*
X2026972D01*
X2024142Y1481774D02*
X2026584D01*
X2025123Y1480874D02*
X2025991D01*
X2025266Y1462874D02*
X2027706D01*
X2023743Y1463774D02*
X2026789D01*
X2026223Y1461974D02*
X2026749D01*
X2024908Y1464674D02*
X2026131D01*
X2025572Y1465574D02*
X2025684D01*
X2025462Y1443074D02*
X2027511D01*
X2023999Y1442174D02*
X2026929D01*
X2026352Y1443974D02*
X2026620D01*
X2024755Y1441274D02*
X2026227D01*
X2025480Y1440374D02*
X2025748D01*
X1879229Y1634774D02*
X2195750D01*
X1879343Y1633874D02*
X2195750D01*
X1879371Y1632974D02*
X2195750D01*
X2101510Y1632074D02*
X2195750D01*
X2103363Y1631174D02*
X2195750D01*
X2104650Y1630274D02*
X2195750D01*
X2105642Y1629374D02*
X2195750D01*
X2106436Y1628474D02*
X2195750D01*
X2107083Y1627574D02*
X2195750D01*
X2107610Y1626674D02*
X2195750D01*
X2153957Y1625774D02*
X2195750D01*
X2155257Y1624874D02*
X2195750D01*
X2156063Y1623974D02*
X2195750D01*
X2156603Y1623074D02*
X2195750D01*
X2156952Y1622174D02*
X2195750D01*
X2157146Y1621274D02*
X2195750D01*
X2157199Y1620374D02*
X2195750D01*
X2157115Y1619474D02*
X2195750D01*
X2156888Y1618574D02*
X2195750D01*
X2156499Y1617674D02*
X2195750D01*
X2155909Y1616774D02*
X2195750D01*
X2155022Y1615874D02*
X2195750D01*
X2153517Y1614974D02*
X2195750D01*
X2106360Y1614074D02*
X2195750D01*
X2105547Y1613174D02*
X2195750D01*
X2104530Y1612274D02*
X2195750D01*
X2103201Y1611374D02*
X2195750D01*
X2101249Y1610474D02*
X2195750D01*
X2037507Y1609574D02*
X2195750D01*
X2037688Y1608674D02*
X2195750D01*
X2037735Y1607774D02*
X2195750D01*
X2037652Y1606874D02*
X2195750D01*
X2037433Y1605974D02*
X2195750D01*
X2147221Y1605074D02*
X2195750D01*
X2149150Y1604174D02*
X2195750D01*
X2150026Y1603274D02*
X2195750D01*
X2150549Y1602374D02*
X2195750D01*
X2150843Y1601474D02*
X2195750D01*
X2150949Y1600574D02*
X2195750D01*
X2150881Y1599674D02*
X2195750D01*
X2150631Y1598774D02*
X2195750D01*
X2150165Y1597874D02*
X2195750D01*
X2149385Y1596974D02*
X2195750D01*
X2147899Y1596074D02*
X2195750D01*
X2133881Y1595174D02*
X2195750D01*
X2133631Y1594274D02*
X2195750D01*
X2133165Y1593374D02*
X2195750D01*
X2132385Y1592474D02*
X2195750D01*
X2130899Y1591574D02*
X2195750D01*
X2085361Y1590674D02*
X2195750D01*
X2084139Y1589774D02*
X2195750D01*
X2154592Y1588874D02*
X2195750D01*
X2155483Y1587974D02*
X2195750D01*
X2155984Y1587074D02*
X2195750D01*
X2156239Y1586174D02*
X2195750D01*
X2156292Y1585274D02*
X2195750D01*
X2156152Y1584374D02*
X2195750D01*
X2155795Y1583474D02*
X2195750D01*
X2155149Y1582574D02*
X2195750D01*
X2153936Y1581674D02*
X2195750D01*
X2072491Y1580774D02*
X2195750D01*
X2071800Y1579874D02*
X2195750D01*
X2070876Y1578974D02*
X2195750D01*
X2069566Y1578074D02*
X2195750D01*
X2084144Y1577174D02*
X2195750D01*
X2131150Y1576274D02*
X2195750D01*
X2132496Y1575374D02*
X2195750D01*
X2133231Y1574474D02*
X2195750D01*
X2133670Y1573574D02*
X2195750D01*
X2133898Y1572674D02*
X2195750D01*
X2133946Y1571774D02*
X2195750D01*
X2133819Y1570874D02*
X2195750D01*
X2133503Y1569974D02*
X2195750D01*
X2132948Y1569074D02*
X2195750D01*
X2132014Y1568174D02*
X2195750D01*
X2084897Y1567274D02*
X2195750D01*
X2083257Y1566374D02*
X2195750D01*
X2037248Y1565474D02*
X2195750D01*
X2036780Y1564574D02*
X2195750D01*
X2036094Y1563674D02*
X2195750D01*
X2035394Y1562774D02*
X2195750D01*
X2036307Y1561874D02*
X2195750D01*
X2036926Y1560974D02*
X2195750D01*
X2037345Y1560074D02*
X2195750D01*
X2037604Y1559174D02*
X2195750D01*
X2037725Y1558274D02*
X2195750D01*
X2037714Y1557374D02*
X2195750D01*
X2037572Y1556474D02*
X2195750D01*
X2037289Y1555574D02*
X2195750D01*
X2082961Y1554674D02*
X2195750D01*
X2153764Y1553774D02*
X2195750D01*
X2156185Y1552874D02*
X2195750D01*
X2157493Y1551974D02*
X2195750D01*
X2158416Y1551074D02*
X2195750D01*
X2159107Y1550174D02*
X2195750D01*
X2159630Y1549274D02*
X2195750D01*
X2160018Y1548374D02*
X2195750D01*
X2160290Y1547474D02*
X2195750D01*
X2160458Y1546574D02*
X2195750D01*
X2160527Y1545674D02*
X2195750D01*
X2160500Y1544774D02*
X2195750D01*
X2160377Y1543874D02*
X2195750D01*
X2160152Y1542974D02*
X2195750D01*
X2159817Y1542074D02*
X2195750D01*
X2159356Y1541174D02*
X2195750D01*
X2158745Y1540274D02*
X2195750D01*
X2157936Y1539374D02*
X2195750D01*
X2156828Y1538474D02*
X2195750D01*
X2155115Y1537574D02*
X2195750D01*
X2037616Y1536674D02*
X2195750D01*
X2037365Y1535774D02*
X2195750D01*
X2036957Y1534874D02*
X2195750D01*
X2036352Y1533974D02*
X2195750D01*
X2054358Y1533074D02*
X2195750D01*
X2055258Y1532174D02*
X2195750D01*
X2083957Y1531274D02*
X2195750D01*
X2130906Y1530374D02*
X2195750D01*
X2132388Y1529474D02*
X2195750D01*
X2133166Y1528574D02*
X2195750D01*
X2133632Y1527674D02*
X2195750D01*
X2133882Y1526774D02*
X2195750D01*
X2133949Y1525874D02*
X2195750D01*
X2133842Y1524974D02*
X2195750D01*
X2133548Y1524074D02*
X2195750D01*
X2133024Y1523174D02*
X2195750D01*
X2132147Y1522274D02*
X2195750D01*
X2130208Y1521374D02*
X2195750D01*
X2083517Y1520474D02*
X2195750D01*
X2056750Y1519574D02*
X2195750D01*
X2056750Y1518674D02*
X2195750D01*
X2056750Y1517774D02*
X2195750D01*
X2056750Y1516874D02*
X2195750D01*
X2056750Y1515974D02*
X2195750D01*
X2056750Y1515074D02*
X2195750D01*
X2056750Y1514174D02*
X2195750D01*
X2155368Y1513274D02*
X2195750D01*
X2156975Y1512374D02*
X2195750D01*
X2158040Y1511474D02*
X2195750D01*
X2158824Y1510574D02*
X2195750D01*
X2159416Y1509674D02*
X2195750D01*
X2159861Y1508774D02*
X2195750D01*
X2160183Y1507874D02*
X2195750D01*
X2160396Y1506974D02*
X2195750D01*
X2160508Y1506074D02*
X2195750D01*
X2160524Y1505174D02*
X2195750D01*
X2160444Y1504274D02*
X2195750D01*
X2160265Y1503374D02*
X2195750D01*
X2159980Y1502474D02*
X2195750D01*
X2159578Y1501574D02*
X2195750D01*
X2159038Y1500674D02*
X2195750D01*
X2158324Y1499774D02*
X2195750D01*
X2157368Y1498874D02*
X2195750D01*
X2155996Y1497974D02*
X2195750D01*
X2153153Y1497074D02*
X2195750D01*
X2037494Y1496174D02*
X2195750D01*
X2037159Y1495274D02*
X2195750D01*
X2036649Y1494374D02*
X2195750D01*
X2035903Y1493474D02*
X2195750D01*
X2035632Y1492574D02*
X2195750D01*
X2036466Y1491674D02*
X2195750D01*
X2037034Y1490774D02*
X2195750D01*
X2037415Y1489874D02*
X2195750D01*
X2037643Y1488974D02*
X2195750D01*
X2037734Y1488074D02*
X2195750D01*
X2037694Y1487174D02*
X2195750D01*
X2037522Y1486274D02*
X2195750D01*
X2083751Y1485374D02*
X2195750D01*
X2130611Y1484474D02*
X2195750D01*
X2132273Y1483574D02*
X2195750D01*
X2133098Y1482674D02*
X2195750D01*
X2133592Y1481774D02*
X2195750D01*
X2133863Y1480874D02*
X2195750D01*
X2133950Y1479974D02*
X2195750D01*
X2133863Y1479074D02*
X2195750D01*
X2133591Y1478174D02*
X2195750D01*
X2133096Y1477274D02*
X2195750D01*
X2132270Y1476374D02*
X2195750D01*
X2130602Y1475474D02*
X2195750D01*
X2083746Y1474574D02*
X2195750D01*
X2154193Y1473674D02*
X2195750D01*
X2156360Y1472774D02*
X2195750D01*
X2157610Y1471874D02*
X2195750D01*
X2158503Y1470974D02*
X2195750D01*
X2159173Y1470074D02*
X2195750D01*
X2159680Y1469174D02*
X2195750D01*
X2160054Y1468274D02*
X2195750D01*
X2160314Y1467374D02*
X2195750D01*
X2160470Y1466474D02*
X2195750D01*
X2160529Y1465574D02*
X2195750D01*
X2160492Y1464674D02*
X2195750D01*
X2160357Y1463774D02*
X2195750D01*
X2160120Y1462874D02*
X2195750D01*
X2159772Y1461974D02*
X2195750D01*
X2159297Y1461074D02*
X2195750D01*
X2158666Y1460174D02*
X2195750D01*
X2157830Y1459274D02*
X2195750D01*
X2156678Y1458374D02*
X2195750D01*
X2154843Y1457474D02*
X2195750D01*
X2133933Y1456574D02*
X2195750D01*
X2133766Y1455674D02*
X2195750D01*
X2133403Y1454774D02*
X2195750D01*
X2132782Y1453874D02*
X2195750D01*
X2131716Y1452974D02*
X2195750D01*
X2084623Y1452074D02*
X2195750D01*
X2082572Y1451174D02*
X2195750D01*
X2037266Y1450274D02*
X2195750D01*
X2037559Y1449374D02*
X2195750D01*
X2037710Y1448474D02*
X2195750D01*
X2037728Y1447574D02*
X2195750D01*
X2037616Y1446674D02*
X2195750D01*
X2037365Y1445774D02*
X2195750D01*
X2036957Y1444874D02*
X2195750D01*
X2036352Y1443974D02*
X2195750D01*
X2035462Y1443074D02*
X2195750D01*
X2036043Y1442174D02*
X2195750D01*
X2036745Y1441274D02*
X2195750D01*
X2037224Y1440374D02*
X2195750D01*
X2037534Y1439474D02*
X2195750D01*
X2037699Y1438574D02*
X2195750D01*
X2037732Y1437674D02*
X2195750D01*
X2037635Y1436774D02*
X2195750D01*
X2098925Y1435874D02*
X2195750D01*
X2102116Y1434974D02*
X2195750D01*
X2103759Y1434074D02*
X2195750D01*
X2104949Y1433174D02*
X2195750D01*
X2105879Y1432274D02*
X2195750D01*
X2175552Y1431374D02*
X2195750D01*
X2175750Y1430474D02*
X2195750D01*
X2175750Y1429574D02*
X2195750D01*
X2175750Y1428674D02*
X2195750D01*
X2175750Y1427774D02*
X2195750D01*
X2175750Y1426874D02*
X2195750D01*
X2175750Y1425974D02*
X2195750D01*
X2175750Y1425074D02*
X2195750D01*
X2175750Y1424174D02*
X2195750D01*
X2175750Y1423274D02*
X2195750D01*
X2175750Y1422374D02*
X2195750D01*
X2175750Y1421474D02*
X2195750D01*
X2175750Y1420574D02*
X2195750D01*
X2175750Y1419674D02*
X2195750D01*
X2175750Y1418774D02*
X2195750D01*
X2175750Y1417874D02*
X2195750D01*
X2175750Y1416974D02*
X2195750D01*
X2175750Y1416074D02*
X2195750D01*
X2175750Y1415174D02*
X2195750D01*
X2175750Y1414274D02*
X2195750D01*
X2100448Y1413374D02*
X2195750D01*
X1879370Y1412474D02*
X2195750D01*
X1879310Y1411574D02*
X2195750D01*
X1879162Y1410674D02*
X2195750D01*
X1878923Y1409774D02*
X2195750D01*
X1878585Y1408874D02*
X2195750D01*
X1878136Y1407974D02*
X2195542D01*
X1879026Y1635674D02*
X2195344D01*
X1877556Y1407074D02*
X2194642D01*
X1878727Y1636574D02*
X2194444D01*
X1876813Y1406174D02*
X2193742D01*
X1878322Y1637474D02*
X2193544D01*
X1875846Y1405274D02*
X2192842D01*
X1877795Y1638374D02*
X2192644D01*
X1874518Y1404374D02*
X2191942D01*
X1877120Y1639274D02*
X2191744D01*
X1876249Y1640174D02*
X2190844D01*
X1875086Y1641074D02*
X2189944D01*
X1873348Y1641974D02*
X2189044D01*
X2082010Y1497074D02*
X2150961D01*
X2084768Y1553774D02*
X2150350D01*
X2073015Y1581674D02*
X2150178D01*
X2067579Y1473674D02*
X2149921D01*
X2073204Y1588874D02*
X2149522D01*
X2133923Y1457474D02*
X2149271D01*
X2068501Y1537574D02*
X2148999D01*
X2107020Y1614974D02*
X2148983D01*
X2073403Y1582574D02*
X2148965D01*
X2068754Y1513274D02*
X2148746D01*
X2073539Y1587974D02*
X2148631D01*
X2108034Y1625774D02*
X2148543D01*
X2073676Y1583474D02*
X2148319D01*
X2073763Y1587074D02*
X2148130D01*
X2084473Y1497974D02*
X2148118D01*
X2073843Y1584374D02*
X2147962D01*
X2131875Y1552874D02*
X2147929D01*
X2073887Y1586174D02*
X2147875D01*
X2073913Y1585274D02*
X2147822D01*
X2069745Y1472774D02*
X2147755D01*
X2107559Y1615874D02*
X2147478D01*
X2133737Y1458374D02*
X2147436D01*
X2070214Y1538474D02*
X2147286D01*
X2108369Y1624874D02*
X2147243D01*
X2070361Y1512374D02*
X2147139D01*
X2131546Y1498874D02*
X2146746D01*
X2132869Y1551974D02*
X2146621D01*
X2107994Y1616774D02*
X2146591D01*
X2070996Y1471874D02*
X2146504D01*
X2108621Y1623974D02*
X2146437D01*
X2133350Y1459274D02*
X2146284D01*
X2071321Y1539374D02*
X2146179D01*
X2071426Y1511474D02*
X2146074D01*
X2108337Y1617674D02*
X2146001D01*
X2108797Y1623074D02*
X2145897D01*
X2132691Y1499774D02*
X2145790D01*
X2133455Y1551074D02*
X2145698D01*
X2108598Y1618574D02*
X2145612D01*
X2071889Y1470974D02*
X2145611D01*
X2108900Y1622174D02*
X2145548D01*
X2132694Y1460174D02*
X2145448D01*
X2108782Y1619474D02*
X2145385D01*
X2072131Y1540274D02*
X2145369D01*
X2108931Y1621274D02*
X2145354D01*
X2108892Y1620374D02*
X2145301D01*
X2072209Y1510574D02*
X2145291D01*
X2037063Y1605074D02*
X2145279D01*
X2133348Y1500674D02*
X2145076D01*
X2133795Y1550174D02*
X2145007D01*
X2072559Y1470074D02*
X2144941D01*
X2131550Y1461074D02*
X2144818D01*
X2072742Y1541174D02*
X2144758D01*
X2072802Y1509674D02*
X2144698D01*
X2133949Y1596074D02*
X2144601D01*
X2133736Y1501574D02*
X2144536D01*
X2133941Y1549274D02*
X2144484D01*
X2073065Y1469174D02*
X2144435D01*
X2084477Y1461974D02*
X2144342D01*
X2073203Y1542074D02*
X2144297D01*
X2082583Y1508774D02*
X2144253D01*
X2133923Y1502474D02*
X2144134D01*
X2133911Y1548374D02*
X2144096D01*
X2073440Y1468274D02*
X2144060D01*
X2082030Y1462874D02*
X2143994D01*
X2073538Y1542974D02*
X2143962D01*
X2084627Y1507874D02*
X2143931D01*
X2133933Y1503374D02*
X2143849D01*
X2133704Y1547474D02*
X2143824D01*
X2073700Y1467374D02*
X2143800D01*
X2073743Y1463774D02*
X2143757D01*
X2084313Y1543874D02*
X2143737D01*
X2131720Y1506974D02*
X2143718D01*
X2133767Y1504274D02*
X2143670D01*
X2133290Y1546574D02*
X2143656D01*
X2073856Y1466474D02*
X2143644D01*
X2073877Y1464674D02*
X2143623D01*
X2131357Y1544774D02*
X2143614D01*
X2132784Y1506074D02*
X2143606D01*
X2133404Y1505174D02*
X2143590D01*
X2132595Y1545674D02*
X2143587D01*
X2073915Y1465574D02*
X2143585D01*
X2036507Y1604174D02*
X2143350D01*
X2133843Y1596974D02*
X2143115D01*
X2035693Y1603274D02*
X2142474D01*
X2133549Y1597874D02*
X2142335D01*
X2035847Y1602374D02*
X2141951D01*
X2133026Y1598774D02*
X2141869D01*
X2036611Y1601474D02*
X2141657D01*
X2132150Y1599674D02*
X2141619D01*
X2130221Y1600574D02*
X2141551D01*
X2085022Y1521374D02*
X2128292D01*
X2083264Y1600574D02*
X2128279D01*
X2085141Y1475474D02*
X2127898D01*
X2085144Y1484474D02*
X2127889D01*
X2086132Y1591574D02*
X2127601D01*
X2085257Y1530374D02*
X2127594D01*
X2085364Y1576274D02*
X2127350D01*
X2085463Y1544774D02*
X2127143D01*
X2085561Y1498874D02*
X2126954D01*
X2085563Y1461074D02*
X2126950D01*
X2085654Y1452974D02*
X2126784D01*
X2085656Y1506974D02*
X2126780D01*
X2085745Y1552874D02*
X2126625D01*
X2085827Y1568174D02*
X2126486D01*
X2085909Y1522274D02*
X2126353D01*
X2084900Y1599674D02*
X2126350D01*
X2085986Y1476374D02*
X2126230D01*
X2085988Y1483574D02*
X2126227D01*
X2086649Y1592474D02*
X2126115D01*
X2086063Y1529474D02*
X2126112D01*
X2086134Y1575374D02*
X2126004D01*
X2086200Y1545674D02*
X2125905D01*
X2086265Y1499774D02*
X2125809D01*
X2086267Y1460174D02*
X2125806D01*
X2086328Y1453874D02*
X2125718D01*
X2086329Y1506074D02*
X2125716D01*
X2086389Y1551974D02*
X2125631D01*
X2086445Y1569074D02*
X2125552D01*
X2086499Y1523174D02*
X2125476D01*
X2085830Y1598774D02*
X2125474D01*
X2086551Y1477274D02*
X2125404D01*
X2086553Y1482674D02*
X2125402D01*
X2086980Y1593374D02*
X2125335D01*
X2086603Y1528574D02*
X2125334D01*
X2086650Y1574474D02*
X2125269D01*
X2086694Y1546574D02*
X2125210D01*
X2086737Y1500674D02*
X2125152D01*
X2086738Y1459274D02*
X2125150D01*
X2086778Y1454774D02*
X2125097D01*
X2086779Y1505174D02*
X2125096D01*
X2086818Y1551074D02*
X2125045D01*
X2086853Y1569974D02*
X2124997D01*
X2086888Y1524074D02*
X2124952D01*
X2086446Y1597874D02*
X2124951D01*
X2086921Y1478174D02*
X2124909D01*
X2086922Y1481774D02*
X2124908D01*
X2087159Y1594274D02*
X2124869D01*
X2086952Y1527674D02*
X2124868D01*
X2086981Y1573574D02*
X2124830D01*
X2087008Y1547474D02*
X2124796D01*
X2087033Y1501574D02*
X2124764D01*
X2087033Y1458374D02*
X2124763D01*
X2087056Y1455674D02*
X2124734D01*
X2087057Y1504274D02*
X2124733D01*
X2087078Y1550174D02*
X2124705D01*
X2087097Y1570874D02*
X2124681D01*
X2087115Y1524974D02*
X2124658D01*
X2086854Y1596974D02*
X2124657D01*
X2087131Y1479074D02*
X2124637D01*
X2087132Y1480874D02*
X2124637D01*
X2087197Y1595174D02*
X2124619D01*
X2087146Y1526774D02*
X2124618D01*
X2087159Y1572674D02*
X2124602D01*
X2087170Y1548374D02*
X2124589D01*
X2087179Y1502474D02*
X2124577D01*
X2087179Y1457474D02*
X2124577D01*
X2087186Y1456574D02*
X2124567D01*
X2087187Y1503374D02*
X2124567D01*
X2087193Y1549274D02*
X2124559D01*
X2087197Y1571774D02*
X2124554D01*
X2087199Y1525874D02*
X2124551D01*
X2087098Y1596074D02*
X2124551D01*
X2087200Y1479974D02*
X2124550D01*
X2106629Y1431374D02*
X2120948D01*
X2107240Y1430474D02*
X2120750D01*
X2107737Y1429574D02*
X2120750D01*
X2108136Y1428674D02*
X2120750D01*
X2108447Y1427774D02*
X2120750D01*
X2108677Y1426874D02*
X2120750D01*
X2108833Y1425974D02*
X2120750D01*
X2108915Y1425074D02*
X2120750D01*
X2108927Y1424174D02*
X2120750D01*
X2108869Y1423274D02*
X2120750D01*
X2108738Y1422374D02*
X2120750D01*
X2108534Y1421474D02*
X2120750D01*
X2108251Y1420574D02*
X2120750D01*
X2107883Y1419674D02*
X2120750D01*
X2107421Y1418774D02*
X2120750D01*
X2106851Y1417874D02*
X2120750D01*
X2106151Y1416974D02*
X2120750D01*
X2105288Y1416074D02*
X2120750D01*
X2104199Y1415174D02*
X2120750D01*
X2102747Y1414274D02*
X2120750D01*
X2037400Y1435874D02*
X2095938D01*
X1879345Y1413374D02*
X2094415D01*
X2037180Y1610474D02*
X2093613D01*
X1879313Y1632074D02*
X2093352D01*
X2037011Y1434974D02*
X2092747D01*
X1879234Y1414274D02*
X2092115D01*
X2036680Y1611374D02*
X2091661D01*
X1879168Y1631174D02*
X2091499D01*
X2036431Y1434074D02*
X2091103D01*
X1879033Y1415174D02*
X2090663D01*
X2035947Y1612274D02*
X2090333D01*
X1878932Y1630274D02*
X2090213D01*
X2035580Y1433174D02*
X2089913D01*
X1878738Y1416074D02*
X2089574D01*
X2035580Y1613174D02*
X2089315D01*
X1878597Y1629374D02*
X2089221D01*
X2035947Y1432274D02*
X2088983D01*
X1878336Y1416974D02*
X2088711D01*
X2036431Y1614074D02*
X2088502D01*
X1878151Y1628474D02*
X2088426D01*
X2036680Y1431374D02*
X2088233D01*
X1877814Y1417874D02*
X2088012D01*
X2037011Y1614974D02*
X2087842D01*
X1877576Y1627574D02*
X2087779D01*
X2037180Y1430474D02*
X2087622D01*
X1877143Y1418774D02*
X2087442D01*
X2037400Y1615874D02*
X2087303D01*
X1876839Y1626674D02*
X2087252D01*
X2037507Y1429574D02*
X2087125D01*
X1876280Y1419674D02*
X2086980D01*
X2037635Y1616774D02*
X2086869D01*
X1875880Y1625774D02*
X2086828D01*
X2037688Y1428674D02*
X2086727D01*
X1875128Y1420574D02*
X2086612D01*
X2037732Y1617674D02*
X2086525D01*
X1874567Y1624874D02*
X2086493D01*
X2037735Y1427774D02*
X2086416D01*
X1873417Y1421474D02*
X2086329D01*
X2037699Y1618574D02*
X2086264D01*
X2032945Y1623974D02*
X2086241D01*
X2037652Y1426874D02*
X2086185D01*
X2034413Y1422374D02*
X2086124D01*
X2037534Y1619474D02*
X2086080D01*
X2034987Y1623074D02*
X2086065D01*
X2037433Y1425974D02*
X2086030D01*
X2035693Y1423274D02*
X2085994D01*
X2037224Y1620374D02*
X2085970D01*
X2036043Y1622174D02*
X2085963D01*
X2037063Y1425074D02*
X2085947D01*
X2036507Y1424174D02*
X2085935D01*
X2036745Y1621274D02*
X2085931D01*
X2066539Y1497074D02*
X2080490D01*
X2073506Y1462874D02*
X2080470D01*
X2036808Y1451174D02*
X2079928D01*
X2073247Y1508774D02*
X2079917D01*
X2036841Y1554674D02*
X2079539D01*
X2037548Y1566374D02*
X2079243D01*
X2037134Y1600574D02*
X2079236D01*
X2056750Y1520474D02*
X2078983D01*
X2036780Y1474574D02*
X2078754D01*
X2037205Y1485374D02*
X2078749D01*
X2056158Y1531274D02*
X2078543D01*
X2072744Y1589774D02*
X2078361D01*
X2067137Y1577174D02*
X2078356D01*
X2073763Y1543874D02*
X2078187D01*
X2069382Y1497974D02*
X2078027D01*
X2073158Y1461974D02*
X2078023D01*
X2036135Y1452074D02*
X2077877D01*
X2073569Y1507874D02*
X2077873D01*
X2067150Y1553774D02*
X2077732D01*
X2037705Y1567274D02*
X2077603D01*
X2037478Y1599674D02*
X2077600D01*
X2056750Y1521374D02*
X2077478D01*
X2037248Y1475474D02*
X2077359D01*
X2036716Y1484474D02*
X2077356D01*
X2056750Y1530374D02*
X2077243D01*
X2072133Y1590674D02*
X2077139D01*
X2037522Y1576274D02*
X2077136D01*
X2073886Y1544774D02*
X2077037D01*
X2070754Y1498874D02*
X2076939D01*
X2072682Y1461074D02*
X2076937D01*
X2035337Y1452974D02*
X2076846D01*
X2073782Y1506974D02*
X2076844D01*
X2069571Y1552874D02*
X2076755D01*
X2037730Y1568174D02*
X2076673D01*
X2037674Y1598774D02*
X2076670D01*
X2056750Y1522274D02*
X2076591D01*
X2037548Y1476374D02*
X2076514D01*
X2036000Y1483574D02*
X2076512D01*
X2056750Y1529474D02*
X2076437D01*
X2071324Y1591574D02*
X2076368D01*
X2037205Y1575374D02*
X2076366D01*
X2073913Y1545674D02*
X2076300D01*
X2071710Y1499774D02*
X2076235D01*
X2072052Y1460174D02*
X2076233D01*
X2036270Y1453874D02*
X2076172D01*
X2073894Y1506074D02*
X2076171D01*
X2070879Y1551974D02*
X2076111D01*
X2037624Y1569074D02*
X2076055D01*
X2037736Y1597874D02*
X2076054D01*
X2056750Y1523174D02*
X2076001D01*
X2037705Y1477274D02*
X2075949D01*
X2035516Y1482674D02*
X2075947D01*
X2056750Y1528574D02*
X2075897D01*
X2070218Y1592474D02*
X2075851D01*
X2036716Y1574474D02*
X2075850D01*
X2073844Y1546574D02*
X2075806D01*
X2072424Y1500674D02*
X2075763D01*
X2071216Y1459274D02*
X2075762D01*
X2036900Y1454774D02*
X2075722D01*
X2073910Y1505174D02*
X2075721D01*
X2071802Y1551074D02*
X2075682D01*
X2037381Y1569974D02*
X2075647D01*
X2037668Y1596974D02*
X2075646D01*
X2056750Y1524074D02*
X2075612D01*
X2037730Y1478174D02*
X2075579D01*
X2036388Y1481774D02*
X2075578D01*
X2056750Y1527674D02*
X2075548D01*
X2068508Y1593374D02*
X2075520D01*
X2036000Y1573574D02*
X2075519D01*
X2073676Y1547474D02*
X2075492D01*
X2072964Y1501574D02*
X2075467D01*
X2070064Y1458374D02*
X2075467D01*
X2037328Y1455674D02*
X2075444D01*
X2073830Y1504274D02*
X2075443D01*
X2072493Y1550174D02*
X2075422D01*
X2036981Y1570874D02*
X2075403D01*
X2037465Y1596074D02*
X2075402D01*
X2056750Y1524974D02*
X2075385D01*
X2037624Y1479074D02*
X2075369D01*
X2036981Y1480874D02*
X2075368D01*
X2056750Y1526774D02*
X2075354D01*
X2036579Y1594274D02*
X2075341D01*
X2035516Y1572674D02*
X2075341D01*
X2073404Y1548374D02*
X2075330D01*
X2073366Y1502474D02*
X2075321D01*
X2068229Y1457474D02*
X2075321D01*
X2037595Y1456574D02*
X2075314D01*
X2073651Y1503374D02*
X2075313D01*
X2073016Y1549274D02*
X2075307D01*
X2036388Y1571774D02*
X2075303D01*
X2037112Y1595174D02*
X2075303D01*
X2056750Y1525874D02*
X2075301D01*
X2037381Y1479974D02*
X2075300D01*
X2037682Y1497074D02*
X2064347D01*
X2037694Y1577174D02*
X2063749D01*
X2036184Y1553774D02*
X2063736D01*
X2036094Y1473674D02*
X2063307D01*
X2037722Y1457474D02*
X2062657D01*
X2037728Y1537574D02*
X2062385D01*
X2035800Y1593374D02*
X2062378D01*
X2056750Y1513274D02*
X2062132D01*
X2037736Y1497974D02*
X2061504D01*
X2037734Y1578074D02*
X2061319D01*
X2035266Y1552874D02*
X2061315D01*
X2035394Y1472774D02*
X2061140D01*
X2037718Y1458374D02*
X2060822D01*
X2037710Y1538474D02*
X2060672D01*
X2035742Y1592474D02*
X2060668D01*
X2056750Y1512374D02*
X2060525D01*
X2037659Y1498874D02*
X2060132D01*
X2037643Y1578974D02*
X2060010D01*
X2036223Y1551974D02*
X2060007D01*
X2036307Y1471874D02*
X2059890D01*
X2037583Y1459274D02*
X2059670D01*
X2037559Y1539374D02*
X2059564D01*
X2036540Y1591574D02*
X2059562D01*
X2056750Y1511474D02*
X2059460D01*
X2037448Y1499774D02*
X2059176D01*
X2037415Y1579874D02*
X2059086D01*
X2036868Y1551074D02*
X2059084D01*
X2036926Y1470974D02*
X2058997D01*
X2037307Y1460174D02*
X2058834D01*
X2037266Y1540274D02*
X2058755D01*
X2037085Y1590674D02*
X2058753D01*
X2056750Y1510574D02*
X2058676D01*
X2037085Y1500674D02*
X2058462D01*
X2037034Y1580774D02*
X2058394D01*
X2037307Y1550174D02*
X2058393D01*
X2037345Y1470074D02*
X2058327D01*
X2036868Y1461074D02*
X2058203D01*
X2036808Y1541174D02*
X2058144D01*
X2037448Y1589774D02*
X2058142D01*
X2056750Y1509674D02*
X2058084D01*
X2036540Y1501574D02*
X2057922D01*
X2036466Y1581674D02*
X2057871D01*
X2037583Y1549274D02*
X2057870D01*
X2037604Y1469174D02*
X2057820D01*
X2036223Y1461974D02*
X2057728D01*
X2036135Y1542074D02*
X2057683D01*
X2037659Y1588874D02*
X2057682D01*
X2056750Y1508774D02*
X2057639D01*
X2035742Y1502474D02*
X2057520D01*
X2035632Y1582574D02*
X2057483D01*
X2037718Y1548374D02*
X2057482D01*
X2037725Y1468274D02*
X2057446D01*
X2035266Y1462874D02*
X2057380D01*
X2035337Y1542974D02*
X2057348D01*
X2037736Y1587974D02*
X2057347D01*
X2056750Y1507874D02*
X2057317D01*
X2054856Y1503374D02*
X2057235D01*
X2035903Y1583474D02*
X2057210D01*
X2037722Y1547474D02*
X2057210D01*
X2037714Y1467374D02*
X2057186D01*
X2036184Y1463774D02*
X2057143D01*
X2036270Y1543874D02*
X2057123D01*
X2037682Y1587074D02*
X2057123D01*
X2056750Y1506974D02*
X2057104D01*
X2055756Y1504274D02*
X2057056D01*
X2036649Y1584374D02*
X2057042D01*
X2037595Y1546574D02*
X2057042D01*
X2037572Y1466474D02*
X2057030D01*
X2036841Y1464674D02*
X2057008D01*
X2036900Y1544774D02*
X2057000D01*
X2037494Y1586174D02*
X2056999D01*
X2056750Y1506074D02*
X2056992D01*
X2056649Y1505174D02*
X2056976D01*
X2037159Y1585274D02*
X2056973D01*
X2037328Y1545674D02*
X2056973D01*
X2037289Y1465574D02*
X2056971D01*
X1872395Y1623974D02*
X2030028D01*
X2027736Y1422374D02*
X2028560D01*
X1844025Y1623074D02*
X2027985D01*
X1956750Y1562774D02*
X2027578D01*
X1956750Y1472774D02*
X2027578D01*
X1845516Y1613174D02*
X2027392D01*
X2022336Y1603274D02*
X2027280D01*
X2022553Y1592474D02*
X2027231D01*
X2022765Y1593374D02*
X2027172D01*
X2022915Y1602374D02*
X2027126D01*
X2023197Y1612274D02*
X2027025D01*
X2023434Y1622174D02*
X2026929D01*
X2023550Y1563674D02*
X2026878D01*
X2023550Y1473674D02*
X2026878D01*
X2023990Y1561874D02*
X2026665D01*
X2023990Y1471874D02*
X2026665D01*
X2024221Y1614074D02*
X2026541D01*
X2024355Y1604174D02*
X2026466D01*
X2024413Y1591574D02*
X2026433D01*
X2024481Y1594274D02*
X2026393D01*
X2024535Y1601474D02*
X2026361D01*
X2024648Y1611374D02*
X2026293D01*
X2024755Y1621274D02*
X2026227D01*
X2024810Y1564574D02*
X2026193D01*
X2024810Y1474574D02*
X2026193D01*
X2025039Y1560974D02*
X2026046D01*
X2025039Y1470974D02*
X2026046D01*
X2025167Y1614974D02*
X2025962D01*
X2025244Y1605074D02*
X2025910D01*
X2025278Y1590674D02*
X2025887D01*
X2025317Y1595174D02*
X2025860D01*
X2025349Y1600574D02*
X2025839D01*
X2025416Y1610474D02*
X2025792D01*
X2025480Y1620374D02*
X2025748D01*
X2025514Y1565474D02*
X2025725D01*
X2025514Y1475474D02*
X2025725D01*
X1843851Y1603274D02*
X2020637D01*
X1862444Y1592474D02*
X2020420D01*
X1861051Y1593374D02*
X2020207D01*
X1844562Y1602374D02*
X2020057D01*
X1845076Y1612274D02*
X2019775D01*
X1844698Y1622174D02*
X2019538D01*
X1956750Y1563674D02*
X2019422D01*
X1956750Y1473674D02*
X2019422D01*
X1956750Y1553774D02*
X2019229D01*
X1956708Y1463774D02*
X2019229D01*
X1956750Y1561874D02*
X2018982D01*
X1956750Y1471874D02*
X2018982D01*
X1844698Y1442174D02*
X2018973D01*
X1955658Y1571774D02*
X2018830D01*
X1956750Y1481774D02*
X2018830D01*
X1845846Y1614074D02*
X2018752D01*
X1862441Y1583474D02*
X2018666D01*
X1842932Y1604174D02*
X2018617D01*
X1863288Y1591574D02*
X2018559D01*
X1845906Y1594274D02*
X2018492D01*
X1845118Y1601474D02*
X2018438D01*
X1863286Y1584374D02*
X2018375D01*
X1844508Y1611374D02*
X2018324D01*
X1845224Y1621274D02*
X2018218D01*
X1845224Y1441274D02*
X2018218D01*
X1956750Y1564574D02*
X2018162D01*
X1956750Y1474574D02*
X2018162D01*
X1956750Y1554674D02*
X2018065D01*
X1956750Y1464674D02*
X2018065D01*
X1954758Y1572674D02*
X2018053D01*
X1956750Y1482674D02*
X2018053D01*
X1956750Y1560974D02*
X2017934D01*
X1956750Y1470974D02*
X2017934D01*
X1956558Y1570874D02*
X2017850D01*
X1956750Y1480874D02*
X2017850D01*
X1846078Y1614974D02*
X2017805D01*
X1846078Y1434974D02*
X2017805D01*
X1841691Y1605074D02*
X2017728D01*
X1956750Y1552874D02*
X2017706D01*
X1955856Y1462874D02*
X2017706D01*
X1863853Y1590674D02*
X2017695D01*
X1846118Y1595174D02*
X2017655D01*
X1956750Y1542974D02*
X2017635D01*
X1845428Y1452974D02*
X2017635D01*
X1845548Y1600574D02*
X2017623D01*
X1863851Y1585274D02*
X2017586D01*
X1843782Y1610474D02*
X2017556D01*
X1844025Y1443074D02*
X2017511D01*
X1845628Y1620374D02*
X2017492D01*
X1845628Y1440374D02*
X2017492D01*
X1956750Y1565474D02*
X2017459D01*
X1956750Y1475474D02*
X2017459D01*
X1956750Y1555574D02*
X2017400D01*
X1956750Y1465574D02*
X2017400D01*
X1861046Y1582574D02*
X2017341D01*
X1956750Y1492574D02*
X2017341D01*
X1956750Y1560074D02*
X2017321D01*
X1956750Y1470074D02*
X2017321D01*
X1956750Y1569974D02*
X2017270D01*
X1956750Y1479974D02*
X2017270D01*
X1846221Y1615874D02*
X2017244D01*
X1846221Y1435874D02*
X2017244D01*
X1958956Y1502474D02*
X2017231D01*
X1839753Y1605974D02*
X2017197D01*
X1864222Y1589774D02*
X2017177D01*
X1846240Y1596074D02*
X2017154D01*
X1845869Y1599674D02*
X2017135D01*
X1864221Y1586174D02*
X2017113D01*
X1842842Y1609574D02*
X2017096D01*
X1956750Y1493474D02*
X2017070D01*
X1845927Y1619474D02*
X2017059D01*
X1845927Y1439474D02*
X2017059D01*
X1956750Y1566374D02*
X2017040D01*
X1956750Y1476374D02*
X2017040D01*
X1956750Y1556474D02*
X2017007D01*
X1956750Y1466474D02*
X2017007D01*
X1845675Y1573574D02*
X2016972D01*
X1956750Y1483574D02*
X2016972D01*
X1956750Y1559174D02*
X2016963D01*
X1956750Y1469174D02*
X2016963D01*
X1956750Y1569074D02*
X2016936D01*
X1956750Y1479074D02*
X2016936D01*
X1846276Y1616774D02*
X2016922D01*
X1846276Y1436774D02*
X2016922D01*
X1806750Y1606874D02*
X2016899D01*
X1864432Y1588874D02*
X2016889D01*
X1846277Y1596974D02*
X2016878D01*
X1846094Y1598774D02*
X2016869D01*
X1864431Y1587074D02*
X2016859D01*
X1841563Y1608674D02*
X2016851D01*
X1956750Y1542074D02*
X2016837D01*
X1844962Y1452074D02*
X2016837D01*
X1846132Y1618574D02*
X2016835D01*
X1846132Y1438574D02*
X2016835D01*
X1956750Y1567274D02*
X2016828D01*
X1956750Y1477274D02*
X2016828D01*
X1956750Y1557374D02*
X2016815D01*
X1956750Y1467374D02*
X2016815D01*
X1956750Y1558274D02*
X2016801D01*
X1956750Y1468274D02*
X2016801D01*
X1956750Y1568174D02*
X2016794D01*
X1956750Y1478174D02*
X2016794D01*
X1846247Y1617674D02*
X2016791D01*
X1846247Y1437674D02*
X2016791D01*
X1839513Y1607774D02*
X2016788D01*
X1864500Y1587974D02*
X2016787D01*
X1846229Y1597874D02*
X2016786D01*
X1956750Y1551974D02*
X2016749D01*
X1954956Y1461974D02*
X2016749D01*
X1956750Y1543874D02*
X2016703D01*
X1845781Y1453874D02*
X2016703D01*
X1958458Y1533974D02*
X2016620D01*
X1843159Y1443974D02*
X2016620D01*
X1845006Y1581674D02*
X2016507D01*
X1956750Y1491674D02*
X2016507D01*
X1958056Y1501574D02*
X2016433D01*
X1956750Y1494374D02*
X2016323D01*
X1845961Y1574474D02*
X2016257D01*
X1956750Y1484474D02*
X2016257D01*
X1956750Y1541174D02*
X2016164D01*
X1844362Y1451174D02*
X2016164D01*
X1956750Y1551074D02*
X2016104D01*
X1954048Y1461074D02*
X2016104D01*
X1956750Y1544774D02*
X2016072D01*
X1846035Y1454774D02*
X2016072D01*
X1957558Y1534874D02*
X2016016D01*
X1842005Y1444874D02*
X2016016D01*
X1845462Y1580774D02*
X2015938D01*
X1956750Y1490774D02*
X2015938D01*
X1957156Y1500674D02*
X2015887D01*
X1956750Y1495274D02*
X2015813D01*
X1846152Y1575374D02*
X2015768D01*
X1956750Y1485374D02*
X2015768D01*
X1956750Y1540274D02*
X2015706D01*
X1843595Y1450274D02*
X2015706D01*
X1956750Y1550174D02*
X2015666D01*
X1845703Y1460174D02*
X2015666D01*
X1956750Y1545674D02*
X2015645D01*
X1846197Y1455674D02*
X2015645D01*
X1956750Y1535774D02*
X2015608D01*
X1840296Y1445774D02*
X2015608D01*
X1845807Y1579874D02*
X2015557D01*
X1956750Y1489874D02*
X2015557D01*
X1956750Y1499774D02*
X2015525D01*
X1956750Y1496174D02*
X2015478D01*
X1845846Y1434074D02*
X2015477D01*
X1846256Y1576274D02*
X2015450D01*
X1956750Y1486274D02*
X2015450D01*
X1956750Y1539374D02*
X2015413D01*
X1842594Y1449374D02*
X2015413D01*
X1956750Y1549274D02*
X2015390D01*
X1845981Y1459274D02*
X2015390D01*
X1956750Y1546574D02*
X2015378D01*
X1846271Y1456574D02*
X2015378D01*
X1956750Y1536674D02*
X2015357D01*
X1818349Y1446674D02*
X2015357D01*
X1846052Y1578974D02*
X2015330D01*
X1956750Y1488974D02*
X2015330D01*
X1956750Y1498874D02*
X2015313D01*
X1956750Y1497074D02*
X2015291D01*
X1846274Y1577174D02*
X2015278D01*
X1956750Y1487174D02*
X2015278D01*
X1956750Y1538474D02*
X2015263D01*
X1841205Y1448474D02*
X2015263D01*
X1956750Y1548374D02*
X2015254D01*
X1846165Y1458374D02*
X2015254D01*
X1956750Y1547474D02*
X2015251D01*
X1846261Y1457474D02*
X2015251D01*
X1956750Y1537574D02*
X2015245D01*
X1838746Y1447574D02*
X2015245D01*
X1846206Y1578074D02*
X2015239D01*
X1956750Y1488074D02*
X2015239D01*
X1956750Y1497974D02*
X2015237D01*
X1845516Y1433174D02*
X2015236D01*
X1845076Y1432274D02*
X2015236D01*
X1844508Y1431374D02*
X2015236D01*
X1843782Y1430474D02*
X2015236D01*
X1842842Y1429574D02*
X2015236D01*
X1841563Y1428674D02*
X2015236D01*
X1839513Y1427774D02*
X2015236D01*
X1818004Y1426874D02*
X2015236D01*
X1846277Y1425974D02*
X2015236D01*
X1846277Y1425074D02*
X2015236D01*
X1846277Y1424174D02*
X2015236D01*
X1846277Y1423274D02*
X2015236D01*
X1846277Y1422374D02*
X2015236D01*
X1845323Y1461074D02*
X1925952D01*
X1845286Y1572674D02*
X1925242D01*
X1844826Y1461974D02*
X1925044D01*
X1844778Y1571774D02*
X1924342D01*
X1844189Y1462874D02*
X1924144D01*
X1844127Y1570874D02*
X1923442D01*
X1843372Y1463774D02*
X1923292D01*
X1843292Y1569974D02*
X1923250D01*
X1842187Y1569074D02*
X1923250D01*
X1840588Y1568174D02*
X1923250D01*
X1806750Y1567274D02*
X1923250D01*
X1838055Y1566374D02*
X1923250D01*
X1840964Y1565474D02*
X1923250D01*
X1842432Y1564574D02*
X1923250D01*
X1913261Y1563674D02*
X1923250D01*
X1915068Y1562774D02*
X1923250D01*
X1916045Y1561874D02*
X1923250D01*
X1916689Y1560974D02*
X1923250D01*
X1917118Y1560074D02*
X1923250D01*
X1917378Y1559174D02*
X1923250D01*
X1917493Y1558274D02*
X1923250D01*
X1917470Y1557374D02*
X1923250D01*
X1917308Y1556474D02*
X1923250D01*
X1916994Y1555574D02*
X1923250D01*
X1916500Y1554674D02*
X1923250D01*
X1915763Y1553774D02*
X1923250D01*
X1915627Y1552874D02*
X1923250D01*
X1916656Y1551974D02*
X1923250D01*
X1917329Y1551074D02*
X1923250D01*
X1917779Y1550174D02*
X1923250D01*
X1918057Y1549274D02*
X1923250D01*
X1918187Y1548374D02*
X1923250D01*
X1918179Y1547474D02*
X1923250D01*
X1918033Y1546574D02*
X1923250D01*
X1917737Y1545674D02*
X1923250D01*
X1917265Y1544774D02*
X1923250D01*
X1916561Y1543874D02*
X1923250D01*
X1915477Y1542974D02*
X1923250D01*
X1916563Y1542074D02*
X1923250D01*
X1917267Y1541174D02*
X1923250D01*
X1917738Y1540274D02*
X1923250D01*
X1918033Y1539374D02*
X1923250D01*
X1918179Y1538474D02*
X1923250D01*
X1918186Y1537574D02*
X1923250D01*
X1918056Y1536674D02*
X1923250D01*
X1917778Y1535774D02*
X1923250D01*
X1917328Y1534874D02*
X1923250D01*
X1916654Y1533974D02*
X1923250D01*
X1915623Y1533074D02*
X1923250D01*
X1914362Y1532174D02*
X1923250D01*
X1915598Y1531274D02*
X1923250D01*
X1916292Y1530374D02*
X1923250D01*
X1916705Y1529474D02*
X1923250D01*
X1916912Y1528574D02*
X1923250D01*
X1916940Y1527674D02*
X1923250D01*
X1916794Y1526774D02*
X1923250D01*
X1916454Y1525874D02*
X1923250D01*
X1915867Y1524974D02*
X1923250D01*
X1914871Y1524074D02*
X1923250D01*
X1915144Y1523174D02*
X1923250D01*
X1916364Y1522274D02*
X1923250D01*
X1917134Y1521374D02*
X1923250D01*
X1917650Y1520474D02*
X1923250D01*
X1917981Y1519574D02*
X1923250D01*
X1918159Y1518674D02*
X1923250D01*
X1918197Y1517774D02*
X1923250D01*
X1918097Y1516874D02*
X1923250D01*
X1917853Y1515974D02*
X1923250D01*
X1917445Y1515074D02*
X1923250D01*
X1916827Y1514174D02*
X1923250D01*
X1915897Y1513274D02*
X1923250D01*
X1914257Y1512374D02*
X1923250D01*
X1844579Y1511474D02*
X1923250D01*
X1843872Y1510574D02*
X1923250D01*
X1842960Y1509674D02*
X1923250D01*
X1841729Y1508774D02*
X1923250D01*
X1839822Y1507874D02*
X1923250D01*
X1816010Y1506974D02*
X1923250D01*
X1839436Y1506074D02*
X1923250D01*
X1841523Y1505174D02*
X1923250D01*
X1842813Y1504274D02*
X1923250D01*
X1843761Y1503374D02*
X1923250D01*
X1844492Y1502474D02*
X1923250D01*
X1845063Y1501574D02*
X1923250D01*
X1845506Y1500674D02*
X1923250D01*
X1845839Y1499774D02*
X1923250D01*
X1846074Y1498874D02*
X1923250D01*
X1846218Y1497974D02*
X1923250D01*
X1846276Y1497074D02*
X1923250D01*
X1846249Y1496174D02*
X1923250D01*
X1846136Y1495274D02*
X1923250D01*
X1845934Y1494374D02*
X1923250D01*
X1845637Y1493474D02*
X1923250D01*
X1892264Y1492574D02*
X1923250D01*
X1893900Y1491674D02*
X1923250D01*
X1894830Y1490774D02*
X1923250D01*
X1895446Y1489874D02*
X1923250D01*
X1895854Y1488974D02*
X1923250D01*
X1896098Y1488074D02*
X1923250D01*
X1896197Y1487174D02*
X1923250D01*
X1896159Y1486274D02*
X1923250D01*
X1895980Y1485374D02*
X1923250D01*
X1895649Y1484474D02*
X1923250D01*
X1895132Y1483574D02*
X1923250D01*
X1894361Y1482674D02*
X1923250D01*
X1893139Y1481774D02*
X1923250D01*
X1912030Y1480874D02*
X1923250D01*
X1914477Y1479974D02*
X1923250D01*
X1915563Y1479074D02*
X1923250D01*
X1916267Y1478174D02*
X1923250D01*
X1916738Y1477274D02*
X1923250D01*
X1917033Y1476374D02*
X1923250D01*
X1917179Y1475474D02*
X1923250D01*
X1917186Y1474574D02*
X1923250D01*
X1917056Y1473674D02*
X1923250D01*
X1916778Y1472774D02*
X1923250D01*
X1916328Y1471874D02*
X1923250D01*
X1915654Y1470974D02*
X1923250D01*
X1914623Y1470074D02*
X1923250D01*
X1912572Y1469174D02*
X1923250D01*
X1840806Y1468274D02*
X1923250D01*
X1837289Y1467374D02*
X1923250D01*
X1818290Y1466474D02*
X1923250D01*
X1840756Y1465574D02*
X1923250D01*
X1842295Y1464674D02*
X1923250D01*
X1845417Y1480874D02*
X1910470D01*
X1845131Y1512374D02*
X1910243D01*
X1845020Y1532174D02*
X1910138D01*
X1842327Y1469174D02*
X1909928D01*
X1843473Y1563674D02*
X1909839D01*
X1843047Y1524074D02*
X1909629D01*
X1843939Y1523174D02*
X1909356D01*
X1844108Y1542974D02*
X1909023D01*
X1844436Y1531274D02*
X1908902D01*
X1845472Y1533074D02*
X1908877D01*
X1841851Y1524974D02*
X1908633D01*
X1845557Y1513274D02*
X1908603D01*
X1845382Y1552874D02*
X1908487D01*
X1843690Y1530374D02*
X1908208D01*
X1844631Y1522274D02*
X1908136D01*
X1840037Y1525874D02*
X1908046D01*
X1844268Y1562774D02*
X1908032D01*
X1845773Y1479974D02*
X1908023D01*
X1843267Y1543874D02*
X1907939D01*
X1844763Y1542074D02*
X1907937D01*
X1843396Y1470074D02*
X1907877D01*
X1845814Y1533974D02*
X1907846D01*
X1844902Y1551974D02*
X1907844D01*
X1842720Y1529474D02*
X1907795D01*
X1806750Y1526774D02*
X1907706D01*
X1845876Y1514174D02*
X1907673D01*
X1841388Y1528574D02*
X1907588D01*
X1839162Y1527674D02*
X1907560D01*
X1845171Y1521374D02*
X1907366D01*
X1845747Y1553774D02*
X1907337D01*
X1842153Y1544774D02*
X1907235D01*
X1845274Y1541174D02*
X1907233D01*
X1846057Y1534874D02*
X1907172D01*
X1844286Y1551074D02*
X1907171D01*
X1846099Y1515074D02*
X1907055D01*
X1844888Y1561874D02*
X1907055D01*
X1846029Y1479074D02*
X1906937D01*
X1845589Y1520474D02*
X1906850D01*
X1844208Y1470974D02*
X1906846D01*
X1840534Y1545674D02*
X1906763D01*
X1845666Y1540274D02*
X1906762D01*
X1846209Y1535774D02*
X1906722D01*
X1843497Y1550174D02*
X1906721D01*
X1846231Y1515974D02*
X1906647D01*
X1846011Y1554674D02*
X1906600D01*
X1845899Y1519574D02*
X1906519D01*
X1818108Y1546574D02*
X1906467D01*
X1845955Y1539374D02*
X1906467D01*
X1846274Y1536674D02*
X1906444D01*
X1842463Y1549274D02*
X1906443D01*
X1845371Y1560974D02*
X1906411D01*
X1846277Y1516874D02*
X1906403D01*
X1846113Y1518674D02*
X1906341D01*
X1838212Y1547474D02*
X1906321D01*
X1846149Y1538474D02*
X1906321D01*
X1846254Y1537574D02*
X1906314D01*
X1841011Y1548374D02*
X1906313D01*
X1846238Y1517774D02*
X1906303D01*
X1846193Y1478174D02*
X1906233D01*
X1844841Y1471874D02*
X1906172D01*
X1846183Y1555574D02*
X1906106D01*
X1845739Y1560074D02*
X1905982D01*
X1846267Y1556474D02*
X1905792D01*
X1846270Y1477274D02*
X1905762D01*
X1845334Y1472774D02*
X1905722D01*
X1846006Y1559174D02*
X1905722D01*
X1846266Y1557374D02*
X1905630D01*
X1846180Y1558274D02*
X1905607D01*
X1846262Y1476374D02*
X1905467D01*
X1845712Y1473674D02*
X1905444D01*
X1846168Y1475474D02*
X1905321D01*
X1845987Y1474574D02*
X1905314D01*
X1845236Y1492574D02*
X1888236D01*
X1844948Y1481774D02*
X1887361D01*
X1844713Y1491674D02*
X1886600D01*
X1844345Y1482674D02*
X1886139D01*
X1844045Y1490774D02*
X1885670D01*
X1843572Y1483574D02*
X1885368D01*
X1843184Y1489874D02*
X1885054D01*
X1842563Y1484474D02*
X1884851D01*
X1842040Y1488974D02*
X1884646D01*
X1841161Y1485374D02*
X1884520D01*
X1840353Y1488074D02*
X1884402D01*
X1838635Y1486274D02*
X1884341D01*
X1816334Y1487174D02*
X1884303D01*
X1843159Y1623974D02*
X1867349D01*
X1844826Y1641974D02*
X1866396D01*
X1846277Y1421474D02*
X1866327D01*
X1818514Y1404374D02*
X1865226D01*
X1842005Y1624874D02*
X1865177D01*
X1845323Y1641074D02*
X1864658D01*
X1846277Y1420574D02*
X1864616D01*
X1818486Y1405274D02*
X1863898D01*
X1840296Y1625774D02*
X1863864D01*
X1845703Y1640174D02*
X1863495D01*
X1846277Y1419674D02*
X1863464D01*
X1818288Y1406174D02*
X1862931D01*
X1815569Y1626674D02*
X1862905D01*
X1845981Y1639274D02*
X1862624D01*
X1846277Y1418774D02*
X1862601D01*
X1817899Y1407074D02*
X1862188D01*
X1838746Y1627574D02*
X1862168D01*
X1846165Y1638374D02*
X1861949D01*
X1846277Y1417874D02*
X1861930D01*
X1846277Y1407974D02*
X1861608D01*
X1841205Y1628474D02*
X1861593D01*
X1846261Y1637474D02*
X1861422D01*
X1846277Y1416974D02*
X1861408D01*
X1846277Y1408874D02*
X1861159D01*
X1842594Y1629374D02*
X1861147D01*
X1846271Y1636574D02*
X1861017D01*
X1846277Y1416074D02*
X1861007D01*
X1846277Y1409774D02*
X1860821D01*
X1843595Y1630274D02*
X1860812D01*
X1846197Y1635674D02*
X1860718D01*
X1846277Y1415174D02*
X1860711D01*
X1846277Y1410674D02*
X1860582D01*
X1844362Y1631174D02*
X1860576D01*
X1846035Y1634774D02*
X1860515D01*
X1846277Y1414274D02*
X1860510D01*
X1846277Y1411574D02*
X1860434D01*
X1844962Y1632074D02*
X1860431D01*
X1845781Y1633874D02*
X1860401D01*
X1846277Y1413374D02*
X1860399D01*
X1846277Y1412474D02*
X1860374D01*
X1845428Y1632974D02*
X1860373D01*
X1844419Y1582574D02*
X1856054D01*
X1845598Y1593374D02*
X1856049D01*
X1843668Y1583474D02*
X1854659D01*
X1845184Y1592474D02*
X1854656D01*
X1842691Y1584374D02*
X1853814D01*
X1844647Y1591574D02*
X1853812D01*
X1841346Y1585274D02*
X1853249D01*
X1843960Y1590674D02*
X1853247D01*
X1839072Y1586174D02*
X1852879D01*
X1843074Y1589774D02*
X1852878D01*
X1818454Y1587074D02*
X1852669D01*
X1841888Y1588874D02*
X1852668D01*
X1840099Y1587974D02*
X1852600D01*
X1818486Y1467374D02*
X1836155D01*
X1806750Y1566374D02*
X1835389D01*
X1817596Y1547474D02*
X1835232D01*
X1806750Y1486274D02*
X1834809D01*
X1816939Y1627574D02*
X1834698D01*
X1818507Y1447574D02*
X1834698D01*
X1818214Y1586174D02*
X1834372D01*
X1806750Y1527674D02*
X1834282D01*
X1814815Y1506074D02*
X1834008D01*
X1806750Y1607774D02*
X1833931D01*
X1817427Y1427774D02*
X1833931D01*
X1806750Y1605974D02*
X1833691D01*
X1817163Y1507874D02*
X1833622D01*
X1806750Y1525874D02*
X1833407D01*
X1818522Y1587974D02*
X1833345D01*
X1815474Y1625774D02*
X1833148D01*
X1818007Y1445774D02*
X1833148D01*
X1817342Y1488074D02*
X1833091D01*
X1818403Y1545674D02*
X1832910D01*
X1806750Y1568174D02*
X1832856D01*
X1817902Y1465574D02*
X1832688D01*
X1818514Y1468274D02*
X1832638D01*
X1806750Y1565474D02*
X1832480D01*
X1816764Y1548374D02*
X1832433D01*
X1806750Y1485374D02*
X1832283D01*
X1817702Y1628474D02*
X1832239D01*
X1818498Y1448474D02*
X1832239D01*
X1817771Y1585274D02*
X1832098D01*
X1806750Y1528574D02*
X1832056D01*
X1816632Y1505174D02*
X1831921D01*
X1806750Y1608674D02*
X1831881D01*
X1816481Y1428674D02*
X1831881D01*
X1806750Y1605074D02*
X1831753D01*
X1817840Y1508774D02*
X1831715D01*
X1806750Y1524974D02*
X1831593D01*
X1818426Y1588874D02*
X1831556D01*
X1816894Y1624874D02*
X1831439D01*
X1817431Y1444874D02*
X1831439D01*
X1817952Y1488974D02*
X1831404D01*
X1818520Y1544774D02*
X1831291D01*
X1806750Y1569074D02*
X1831257D01*
X1817261Y1464674D02*
X1831149D01*
X1818376Y1469174D02*
X1831117D01*
X1806750Y1564574D02*
X1831012D01*
X1815172Y1549274D02*
X1830981D01*
X1806750Y1484474D02*
X1830881D01*
X1818172Y1629374D02*
X1830850D01*
X1818321Y1449374D02*
X1830850D01*
X1817051Y1584374D02*
X1830753D01*
X1806750Y1529474D02*
X1830724D01*
X1817517Y1504274D02*
X1830631D01*
X1806750Y1609574D02*
X1830602D01*
X1814233Y1429574D02*
X1830602D01*
X1806750Y1604174D02*
X1830512D01*
X1818254Y1509674D02*
X1830484D01*
X1806750Y1524074D02*
X1830397D01*
X1818153Y1589774D02*
X1830370D01*
X1817675Y1623974D02*
X1830285D01*
X1816487Y1443974D02*
X1830285D01*
X1818318Y1489874D02*
X1830260D01*
X1818471Y1543874D02*
X1830177D01*
X1806750Y1569974D02*
X1830152D01*
X1816191Y1463774D02*
X1830072D01*
X1818056Y1470074D02*
X1830048D01*
X1806750Y1563674D02*
X1829971D01*
X1815810Y1550174D02*
X1829947D01*
X1806750Y1483574D02*
X1829872D01*
X1818435Y1630274D02*
X1829849D01*
X1817957Y1450274D02*
X1829849D01*
X1815796Y1583474D02*
X1829776D01*
X1816168Y1530374D02*
X1829754D01*
X1818059Y1503374D02*
X1829683D01*
X1806750Y1610474D02*
X1829662D01*
X1806750Y1430474D02*
X1829662D01*
X1806750Y1603274D02*
X1829593D01*
X1818472Y1510574D02*
X1829572D01*
X1806750Y1523174D02*
X1829505D01*
X1817670Y1590674D02*
X1829484D01*
X1818156Y1623074D02*
X1829419D01*
X1814266Y1443074D02*
X1829419D01*
X1818497Y1490774D02*
X1829399D01*
X1818252Y1542974D02*
X1829336D01*
X1806750Y1570874D02*
X1829317D01*
X1814284Y1462874D02*
X1829255D01*
X1817511Y1470974D02*
X1829236D01*
X1806750Y1562774D02*
X1829176D01*
X1817058Y1551074D02*
X1829158D01*
X1806750Y1482674D02*
X1829099D01*
X1818523Y1631174D02*
X1829082D01*
X1817351Y1451174D02*
X1829082D01*
X1815193Y1582574D02*
X1829025D01*
X1817249Y1531274D02*
X1829008D01*
X1818377Y1502474D02*
X1828952D01*
X1806750Y1611374D02*
X1828936D01*
X1806750Y1431374D02*
X1828936D01*
X1815684Y1602374D02*
X1828882D01*
X1818519Y1511474D02*
X1828865D01*
X1806750Y1522274D02*
X1828813D01*
X1816886Y1591574D02*
X1828797D01*
X1818427Y1622174D02*
X1828746D01*
X1806750Y1442174D02*
X1828746D01*
X1818508Y1491674D02*
X1828731D01*
X1817836Y1542074D02*
X1828681D01*
X1806750Y1571774D02*
X1828666D01*
X1818463Y1641974D02*
X1828618D01*
X1816491Y1461974D02*
X1828618D01*
X1816623Y1471874D02*
X1828603D01*
X1806750Y1561874D02*
X1828556D01*
X1817776Y1551974D02*
X1828542D01*
X1806750Y1481774D02*
X1828496D01*
X1818446Y1632074D02*
X1828482D01*
X1816349Y1452074D02*
X1828482D01*
X1816772Y1581674D02*
X1828438D01*
X1817894Y1532174D02*
X1828424D01*
X1818514Y1501574D02*
X1828381D01*
X1806750Y1612274D02*
X1828368D01*
X1806750Y1432274D02*
X1828368D01*
X1816994Y1601474D02*
X1828326D01*
X1818401Y1512374D02*
X1828313D01*
X1806750Y1521374D02*
X1828273D01*
X1815457Y1592474D02*
X1828260D01*
X1818523Y1621274D02*
X1828220D01*
X1806750Y1441274D02*
X1828220D01*
X1818352Y1492574D02*
X1828208D01*
X1817156Y1541174D02*
X1828170D01*
X1806750Y1572674D02*
X1828158D01*
X1818521Y1641074D02*
X1828121D01*
X1817433Y1461074D02*
X1828121D01*
X1814788Y1472774D02*
X1828110D01*
X1806750Y1560974D02*
X1828073D01*
X1818216Y1552874D02*
X1828062D01*
X1806750Y1480874D02*
X1828027D01*
X1818196Y1632974D02*
X1828016D01*
X1806750Y1452974D02*
X1828016D01*
X1817601Y1580774D02*
X1827982D01*
X1818285Y1533074D02*
X1827972D01*
X1818485Y1500674D02*
X1827938D01*
X1806750Y1613174D02*
X1827928D01*
X1806750Y1433174D02*
X1827928D01*
X1817736Y1600574D02*
X1827896D01*
X1818105Y1513274D02*
X1827887D01*
X1806750Y1520474D02*
X1827855D01*
X1815585Y1593374D02*
X1827846D01*
X1818453Y1620374D02*
X1827816D01*
X1806750Y1440374D02*
X1827816D01*
X1818011Y1493474D02*
X1827807D01*
X1815998Y1540274D02*
X1827778D01*
X1815985Y1573574D02*
X1827769D01*
X1818415Y1640174D02*
X1827741D01*
X1818008Y1460174D02*
X1827741D01*
X1806750Y1473674D02*
X1827732D01*
X1806750Y1560074D02*
X1827705D01*
X1818455Y1553774D02*
X1827697D01*
X1806750Y1479974D02*
X1827671D01*
X1817741Y1633874D02*
X1827663D01*
X1816345Y1453874D02*
X1827663D01*
X1818111Y1579874D02*
X1827637D01*
X1818485Y1533974D02*
X1827630D01*
X1818288Y1499774D02*
X1827605D01*
X1806750Y1614074D02*
X1827598D01*
X1806750Y1434074D02*
X1827598D01*
X1818193Y1599674D02*
X1827575D01*
X1817591Y1514174D02*
X1827568D01*
X1806750Y1519574D02*
X1827545D01*
X1816946Y1594274D02*
X1827538D01*
X1818211Y1619474D02*
X1827517D01*
X1806750Y1439474D02*
X1827517D01*
X1817439Y1494374D02*
X1827510D01*
X1814842Y1539374D02*
X1827489D01*
X1817149Y1574474D02*
X1827483D01*
X1818131Y1639274D02*
X1827463D01*
X1818350Y1459274D02*
X1827463D01*
X1806750Y1474574D02*
X1827457D01*
X1815440Y1559174D02*
X1827438D01*
X1818522Y1554674D02*
X1827433D01*
X1806750Y1479074D02*
X1827415D01*
X1817002Y1634774D02*
X1827409D01*
X1817348Y1454774D02*
X1827409D01*
X1818404Y1578974D02*
X1827392D01*
X1818515Y1534874D02*
X1827387D01*
X1817898Y1498874D02*
X1827370D01*
X1806750Y1614974D02*
X1827366D01*
X1806750Y1434974D02*
X1827366D01*
X1818445Y1598774D02*
X1827350D01*
X1816755Y1515074D02*
X1827345D01*
X1806750Y1518674D02*
X1827331D01*
X1817707Y1595174D02*
X1827326D01*
X1817767Y1618574D02*
X1827312D01*
X1806750Y1438574D02*
X1827312D01*
X1816500Y1495274D02*
X1827308D01*
X1816641Y1538474D02*
X1827295D01*
X1817832Y1575374D02*
X1827292D01*
X1817634Y1638374D02*
X1827279D01*
X1818507Y1458374D02*
X1827279D01*
X1806750Y1475474D02*
X1827276D01*
X1816879Y1558274D02*
X1827264D01*
X1818424Y1555574D02*
X1827261D01*
X1806750Y1478174D02*
X1827251D01*
X1815699Y1635674D02*
X1827247D01*
X1817956Y1455674D02*
X1827247D01*
X1818520Y1578074D02*
X1827238D01*
X1818379Y1535774D02*
X1827235D01*
X1817255Y1497974D02*
X1827226D01*
X1806750Y1615874D02*
X1827223D01*
X1806750Y1435874D02*
X1827223D01*
X1818523Y1597874D02*
X1827215D01*
X1815151Y1515974D02*
X1827213D01*
X1806750Y1517774D02*
X1827206D01*
X1818175Y1596074D02*
X1827204D01*
X1817043Y1617674D02*
X1827197D01*
X1806750Y1437674D02*
X1827197D01*
X1814331Y1496174D02*
X1827195D01*
X1817522Y1537574D02*
X1827190D01*
X1818250Y1576274D02*
X1827188D01*
X1816828Y1637474D02*
X1827183D01*
X1818498Y1457474D02*
X1827183D01*
X1806750Y1476374D02*
X1827182D01*
X1817666Y1557374D02*
X1827178D01*
X1818150Y1556474D02*
X1827177D01*
X1806750Y1477274D02*
X1827174D01*
X1815325Y1636574D02*
X1827173D01*
X1818321Y1456574D02*
X1827173D01*
X1818470Y1577174D02*
X1827170D01*
X1818063Y1536674D02*
X1827170D01*
X1816179Y1497074D02*
X1827168D01*
X1815782Y1616774D02*
X1827168D01*
X1806750Y1436774D02*
X1827168D01*
X1818436Y1596974D02*
X1827167D01*
X1806750Y1516874D02*
X1827167D01*
X1818348Y1425974D02*
X1827167D01*
X1818506Y1425074D02*
X1827167D01*
X1818498Y1424174D02*
X1827167D01*
X1818323Y1423274D02*
X1827167D01*
X1817959Y1422374D02*
X1827167D01*
X1817354Y1421474D02*
X1827167D01*
X1816355Y1420574D02*
X1827167D01*
X1806750Y1419674D02*
X1827167D01*
X1816338Y1418774D02*
X1827167D01*
X1817345Y1417874D02*
X1827167D01*
X1817953Y1416974D02*
X1827167D01*
X1818319Y1416074D02*
X1827167D01*
X1818497Y1415174D02*
X1827167D01*
X1818507Y1414274D02*
X1827167D01*
X1818351Y1413374D02*
X1827167D01*
X1818010Y1412474D02*
X1827167D01*
X1817437Y1411574D02*
X1827167D01*
X1816497Y1410674D02*
X1827167D01*
X1814314Y1409774D02*
X1827167D01*
X1816183Y1408874D02*
X1827167D01*
X1817257Y1407974D02*
X1827167D01*
X1806750Y1429574D02*
X1812913D01*
X1806750Y1443074D02*
X1812880D01*
X1806750Y1462874D02*
X1812862D01*
X1806750Y1409774D02*
X1812832D01*
X1806750Y1496174D02*
X1812815D01*
X1806750Y1472774D02*
X1812358D01*
X1806750Y1506074D02*
X1812331D01*
X1806750Y1539374D02*
X1812304D01*
X1806750Y1515974D02*
X1811995D01*
X1806750Y1549274D02*
X1811974D01*
X1806750Y1582574D02*
X1811953D01*
X1806750Y1636574D02*
X1811821D01*
X1806750Y1559174D02*
X1811706D01*
X1806750Y1592474D02*
X1811689D01*
X1806750Y1625774D02*
X1811672D01*
X1806750Y1626674D02*
X1811577D01*
X1806750Y1593374D02*
X1811561D01*
X1806750Y1602374D02*
X1811462D01*
X1806750Y1635674D02*
X1811447D01*
X1806750Y1616774D02*
X1811364D01*
X1806750Y1583474D02*
X1811350D01*
X1806750Y1550174D02*
X1811336D01*
X1806750Y1573574D02*
X1811161D01*
X1806750Y1540274D02*
X1811148D01*
X1806750Y1506974D02*
X1811136D01*
X1806750Y1530374D02*
X1810978D01*
X1806750Y1497074D02*
X1810967D01*
X1806750Y1408874D02*
X1810963D01*
X1806750Y1463774D02*
X1810955D01*
X1806750Y1487174D02*
X1810812D01*
X1806750Y1418774D02*
X1810808D01*
X1806750Y1453874D02*
X1810801D01*
X1806750Y1452074D02*
X1810797D01*
X1806750Y1420574D02*
X1810791D01*
X1806750Y1428674D02*
X1810665D01*
X1806750Y1443974D02*
X1810659D01*
X1806750Y1461974D02*
X1810655D01*
X1806750Y1410674D02*
X1810649D01*
X1806750Y1495274D02*
X1810646D01*
X1806750Y1471874D02*
X1810523D01*
X1806750Y1505174D02*
X1810514D01*
X1806750Y1538474D02*
X1810505D01*
X1806750Y1515074D02*
X1810391D01*
X1806750Y1548374D02*
X1810382D01*
X1806750Y1581674D02*
X1810374D01*
X1806750Y1637474D02*
X1810318D01*
X1806750Y1558274D02*
X1810267D01*
X1806750Y1591574D02*
X1810260D01*
X1806750Y1624874D02*
X1810252D01*
X1806750Y1627574D02*
X1810207D01*
X1806750Y1594274D02*
X1810200D01*
X1806750Y1601474D02*
X1810152D01*
X1806750Y1634774D02*
X1810144D01*
X1806750Y1617674D02*
X1810103D01*
X1806750Y1584374D02*
X1810095D01*
X1806750Y1551074D02*
X1810088D01*
X1806750Y1574474D02*
X1809997D01*
X1806750Y1541174D02*
X1809990D01*
X1806750Y1507874D02*
X1809983D01*
X1806750Y1531274D02*
X1809897D01*
X1806750Y1497974D02*
X1809891D01*
X1806958Y1407974D02*
X1809889D01*
X1806750Y1464674D02*
X1809885D01*
X1806750Y1488074D02*
X1809804D01*
X1806750Y1417874D02*
X1809801D01*
X1806750Y1454774D02*
X1809798D01*
X1806750Y1451174D02*
X1809795D01*
X1806750Y1421474D02*
X1809792D01*
X1806750Y1427774D02*
X1809719D01*
X1806750Y1444874D02*
X1809715D01*
X1806750Y1461074D02*
X1809713D01*
X1806750Y1411574D02*
X1809709D01*
X1806750Y1494374D02*
X1809707D01*
X1806750Y1470974D02*
X1809635D01*
X1806750Y1504274D02*
X1809629D01*
X1806750Y1537574D02*
X1809624D01*
X1806750Y1514174D02*
X1809555D01*
X1806750Y1547474D02*
X1809550D01*
X1806750Y1580774D02*
X1809545D01*
X1807356Y1638374D02*
X1809512D01*
X1806750Y1557374D02*
X1809480D01*
X1806750Y1590674D02*
X1809476D01*
X1806750Y1623974D02*
X1809471D01*
X1806750Y1628474D02*
X1809444D01*
X1806750Y1595174D02*
X1809439D01*
X1806750Y1600574D02*
X1809410D01*
X1806750Y1633874D02*
X1809405D01*
X1806750Y1618574D02*
X1809379D01*
X1806750Y1585274D02*
X1809375D01*
X1806750Y1551974D02*
X1809370D01*
X1806750Y1575374D02*
X1809314D01*
X1806750Y1542074D02*
X1809310D01*
X1806750Y1508774D02*
X1809306D01*
X1806750Y1532174D02*
X1809252D01*
X1806750Y1498874D02*
X1809248D01*
X1807858Y1407074D02*
X1809247D01*
X1806750Y1465574D02*
X1809244D01*
X1806750Y1488974D02*
X1809194D01*
X1806750Y1416974D02*
X1809193D01*
X1806750Y1455674D02*
X1809190D01*
X1806750Y1450274D02*
X1809189D01*
X1806750Y1422374D02*
X1809187D01*
X1806750Y1426874D02*
X1809142D01*
X1806750Y1445774D02*
X1809139D01*
X1806750Y1460174D02*
X1809138D01*
X1806750Y1412474D02*
X1809136D01*
X1806750Y1493474D02*
X1809135D01*
X1806750Y1470074D02*
X1809090D01*
X1806750Y1503374D02*
X1809087D01*
X1806750Y1536674D02*
X1809083D01*
X1806750Y1513274D02*
X1809041D01*
X1806750Y1546574D02*
X1809038D01*
X1806750Y1579874D02*
X1809035D01*
X1808256Y1639274D02*
X1809015D01*
X1806750Y1556474D02*
X1808996D01*
X1806750Y1589774D02*
X1808993D01*
X1806750Y1623074D02*
X1808990D01*
X1806750Y1629374D02*
X1808974D01*
X1806750Y1596074D02*
X1808971D01*
X1806750Y1599674D02*
X1808953D01*
X1806750Y1632974D02*
X1808950D01*
X1806750Y1619474D02*
X1808935D01*
X1806750Y1586174D02*
X1808932D01*
X1806750Y1552874D02*
X1808930D01*
X1806750Y1576274D02*
X1808896D01*
X1806750Y1542974D02*
X1808894D01*
X1806750Y1509674D02*
X1808892D01*
X1806750Y1533074D02*
X1808861D01*
X1806750Y1499774D02*
X1808858D01*
X1808758Y1406174D02*
X1808858D01*
X1806750Y1466474D02*
X1808856D01*
X1806750Y1489874D02*
X1808828D01*
X1806750Y1416074D02*
X1808827D01*
X1806750Y1456574D02*
X1808825D01*
X1806750Y1449374D02*
X1808825D01*
X1806750Y1423274D02*
X1808823D01*
X1806750Y1425974D02*
X1808798D01*
X1806750Y1446674D02*
X1808797D01*
X1806750Y1459274D02*
X1808796D01*
X1806750Y1413374D02*
X1808795D01*
X1806750Y1492574D02*
X1808794D01*
X1806750Y1469174D02*
X1808770D01*
X1806750Y1502474D02*
X1808769D01*
X1806750Y1535774D02*
X1808767D01*
X1806750Y1512374D02*
X1808745D01*
X1806750Y1545674D02*
X1808743D01*
X1806750Y1578974D02*
X1808742D01*
X1806750Y1555574D02*
X1808722D01*
X1806750Y1588874D02*
X1808720D01*
X1806750Y1622174D02*
X1808719D01*
X1806750Y1630274D02*
X1808711D01*
X1806750Y1596974D02*
X1808710D01*
X1806750Y1598774D02*
X1808701D01*
X1806750Y1632074D02*
X1808700D01*
X1806750Y1620374D02*
X1808693D01*
X1806750Y1587074D02*
X1808692D01*
X1806750Y1553774D02*
X1808691D01*
X1806750Y1577174D02*
X1808676D01*
X1806750Y1543874D02*
X1808675D01*
X1806750Y1510574D02*
X1808674D01*
X1806750Y1533974D02*
X1808661D01*
X1806750Y1500674D02*
X1808661D01*
X1806750Y1467374D02*
X1808660D01*
X1806750Y1490774D02*
X1808649D01*
X1806750Y1415174D02*
X1808649D01*
X1806750Y1457474D02*
X1808648D01*
X1806750Y1448474D02*
X1808648D01*
X1806750Y1424174D02*
X1808648D01*
X1806750Y1425074D02*
X1808640D01*
X1806750Y1447574D02*
X1808639D01*
X1806750Y1458374D02*
X1808639D01*
X1806750Y1414274D02*
X1808639D01*
X1806750Y1491674D02*
X1808638D01*
X1806750Y1468274D02*
X1808632D01*
X1806750Y1501574D02*
X1808632D01*
X1806750Y1534874D02*
X1808631D01*
X1806750Y1511474D02*
X1808627D01*
X1806750Y1544774D02*
X1808626D01*
X1806750Y1578074D02*
X1808626D01*
X1806750Y1554674D02*
X1808624D01*
X1806750Y1587974D02*
X1808624D01*
X1806750Y1621274D02*
X1808623D01*
X1806750Y1631174D02*
X1808623D01*
X1806750Y1597874D02*
X1808623D01*
X1796250Y1652975D02*
X2203750D01*
Y1392975*
X1796250*
Y1652975*
X1906950Y1806875D02*
X2066950D01*
Y1726875*
X1906950*
Y1806875*
Y1786875D02*
X2066950D01*
X1906950Y1771875D02*
X2066950D01*
X1906950Y1756875D02*
X2066950D01*
X1956950Y1786875D02*
Y1726875D01*
X1906950Y1741875D02*
X2066950D01*
X2151850Y1427675D02*
Y1417675D01*
X2125250Y1427675D02*
X2171850D01*
Y1417175*
X2125250*
Y1427675*
X2131850D02*
Y1417675D01*
X2141850Y1427675D02*
Y1417675D01*
X2151850Y1427675D02*
Y1417675D01*
X2161850Y1427675D02*
Y1417675D01*
X2125250Y1427675D02*
X2171850D01*
Y1417175*
X2125250*
Y1427675*
X2141850D02*
Y1417675D01*
X2161850Y1427675D02*
Y1417675D01*
G54D13*
X1935650Y1801619D02*
Y1791775D01*
Y1801619D02*
X1940082D01*
X1935650Y1796931D02*
X1938377D01*
X1945536Y1801619D02*
Y1791775D01*
X1943150Y1801619D02*
X1947923D01*
X1956105Y1799275D02*
X1955764Y1800213D01*
X1955764D02*
X1955082Y1801150D01*
X1954400Y1801619*
X1953036*
X1952355Y1801150*
X1951673Y1800213*
X1951673D02*
X1951332Y1799275D01*
X1950991Y1797869*
Y1795525*
X1951332Y1794119*
X1951673Y1793181*
X1952355Y1792244*
X1953036Y1791775*
X1954400*
X1955082Y1792244*
X1955764Y1793181*
X1956105Y1794119*
X1967014Y1795994D02*
X1973150D01*
X1986786Y1801619D02*
X1984059Y1791775D01*
X1986786Y1801619D02*
X1989514Y1791775D01*
X1985082Y1795056D02*
X1988491D01*
X1992582Y1801619D02*
Y1791775D01*
Y1801619D02*
X1995309Y1791775D01*
X1998036Y1801619D02*
X1995309Y1791775D01*
X1998036Y1801619D02*
Y1791775D01*
X2001105Y1799744D02*
X2001786Y1800213D01*
X2001786D02*
X2002809Y1801619D01*
Y1791775*
G54D14*
X2145398Y1423725D02*
Y1423928D01*
X2145545Y1424334*
X2145693Y1424538*
X2145693D02*
X2145989Y1424741D01*
X2146580*
X2146875Y1424538*
X2146875D02*
X2147023Y1424334D01*
X2147170Y1423928*
Y1423522*
X2147023Y1423116*
X2146727Y1422506*
X2145250Y1420475*
X2147318*
X2127250Y1424241D02*
Y1419975D01*
X2129023*
G54D16*
X2024810Y1471220D02*
X2023608Y1470018D01*
X2018163Y1464573D02*
X2019365Y1465775D01*
X2018163Y1471220D02*
X2019365Y1470018D01*
X2024810Y1464573D02*
X2023608Y1465775D01*
X1810073Y1634704D02*
X1811275Y1633501D01*
X1810073Y1627703D02*
X1811275Y1628905D01*
X1817073Y1627703D02*
X1815871Y1628905D01*
X1817073Y1634704D02*
X1815871Y1633501D01*
X1810073Y1548089D02*
X1811275Y1546887D01*
X1810073Y1541089D02*
X1811275Y1542291D01*
X1817073Y1541089D02*
X1815871Y1542291D01*
X1817073Y1548089D02*
X1815871Y1546887D01*
X1810073Y1461475D02*
X1811275Y1460273D01*
X1810073Y1454475D02*
X1811275Y1455677D01*
X1817073Y1454475D02*
X1815871Y1455677D01*
X1817073Y1461475D02*
X1815871Y1460273D01*
X2024810Y1621220D02*
X2023608Y1620018D01*
X2024810Y1614573D02*
X2023608Y1615775D01*
X2018163Y1614573D02*
X2019365Y1615775D01*
X2018163Y1621220D02*
X2019365Y1620018D01*
X2024810Y1611220D02*
X2023608Y1610018D01*
X2024810Y1604573D02*
X2023608Y1605775D01*
X2018163Y1604573D02*
X2019365Y1605775D01*
X2018163Y1611220D02*
X2019365Y1610018D01*
X2024810Y1601220D02*
X2023608Y1600018D01*
X2024810Y1594573D02*
X2023608Y1595775D01*
X2018163Y1594573D02*
X2019365Y1595775D01*
X2018163Y1601220D02*
X2019365Y1600018D01*
X2024810Y1591220D02*
X2023608Y1590018D01*
X2018163Y1584573D02*
X2019365Y1585775D01*
X2018163Y1591220D02*
X2019365Y1590018D01*
X2024810Y1584573D02*
X2023608Y1585775D01*
X2024810Y1571220D02*
X2023608Y1570018D01*
X2024810Y1564573D02*
X2023608Y1565775D01*
X2018163Y1564573D02*
X2019365Y1565775D01*
X2018163Y1571220D02*
X2019365Y1570018D01*
X2024810Y1561220D02*
X2023608Y1560018D01*
X2018163Y1554573D02*
X2019365Y1555775D01*
X2018163Y1561220D02*
X2019365Y1560018D01*
X2024810Y1554573D02*
X2023608Y1555775D01*
X2024810Y1481220D02*
X2023608Y1480018D01*
X2024810Y1474573D02*
X2023608Y1475775D01*
X2018163Y1474573D02*
X2019365Y1475775D01*
X2018163Y1481220D02*
X2019365Y1480018D01*
X2024810Y1441220D02*
X2023608Y1440018D01*
X2018163Y1441220D02*
X2019365Y1440018D01*
X1915573Y1531298D02*
X1914371Y1530096D01*
X1908927Y1531298D02*
X1910129Y1530096D01*
X1908927Y1524652D02*
X1910129Y1525854D01*
X1915573Y1524652D02*
X1914371Y1525854D01*
X2132573Y1552298D02*
X2131371Y1551096D01*
X2125927Y1552298D02*
X2127129Y1551096D01*
X2125927Y1545652D02*
X2127129Y1546854D01*
X2132573Y1545652D02*
X2131371Y1546854D01*
X2132573Y1599298D02*
X2131371Y1598096D01*
X2125927Y1599298D02*
X2127129Y1598096D01*
X2125927Y1592652D02*
X2127129Y1593854D01*
X2132573Y1592652D02*
X2131371Y1593854D01*
X2132573Y1575298D02*
X2131371Y1574096D01*
X2125927Y1575298D02*
X2127129Y1574096D01*
X2125927Y1568652D02*
X2127129Y1569854D01*
X2132573Y1568652D02*
X2131371Y1569854D01*
X2132573Y1529298D02*
X2131371Y1528096D01*
X2125927Y1529298D02*
X2127129Y1528096D01*
X2125927Y1522652D02*
X2127129Y1523854D01*
X2132573Y1522652D02*
X2131371Y1523854D01*
X2132573Y1506298D02*
X2131371Y1505096D01*
X2125927Y1506298D02*
X2127129Y1505096D01*
X2125927Y1499652D02*
X2127129Y1500854D01*
X2132573Y1499652D02*
X2131371Y1500854D01*
X2132573Y1483298D02*
X2131371Y1482096D01*
X2125927Y1483298D02*
X2127129Y1482096D01*
X2125927Y1476652D02*
X2127129Y1477854D01*
X2132573Y1476652D02*
X2131371Y1477854D01*
X2149573Y1603798D02*
X2148371Y1602596D01*
X2142927Y1603798D02*
X2144129Y1602596D01*
X2142927Y1597152D02*
X2144129Y1598354D01*
X2149573Y1597152D02*
X2148371Y1598354D01*
X2132573Y1460298D02*
X2131371Y1459096D01*
X2125927Y1460298D02*
X2127129Y1459096D01*
X2125927Y1453652D02*
X2127129Y1454854D01*
X2132573Y1453652D02*
X2131371Y1454854D01*
G54D20*
X2155055Y1588473D02*
X2154215Y1587633D01*
X2149059Y1588473D02*
X2149900Y1587633D01*
X2149059Y1582477D02*
X2149900Y1583317D01*
X2155055Y1582477D02*
X2154215Y1583317D01*
G54D35*
X2021486Y1437896D03*
Y1467896D03*
Y1477896D03*
Y1557896D03*
Y1567896D03*
Y1587896D03*
Y1597896D03*
Y1607896D03*
Y1617896D03*
X2129250Y1456975D03*
Y1479975D03*
Y1502975D03*
X1912250Y1527975D03*
X2129250Y1525975D03*
Y1548975D03*
Y1571975D03*
Y1595975D03*
X2146250Y1600475D03*
G54D41*
X1813573Y1457975D03*
Y1544589D03*
Y1631203D03*
G54D45*
X2152057Y1585475D03*
G74*
X0Y0D02*
M02*
