  0
SECTION
  2
HEADER
  9
$ACADVER
  1
AC1015
  9
$ACADMAINTVER
 70
     6
  9
$DWGCODEPAGE
  3
ANSI_1252
  9
$INSBASE
 10
0.0
 20
0.0
 30
0.0
  9
$EXTMIN
 10
0.0
 20
0.0
 30
0.0
  9
$EXTMAX
 10
210.0
 20
297.0
 30
0.0
  9
$LIMMIN
 10
0.0
 20
0.0
  9
$LIMMAX
 10
210.0
 20
297.0
  9
$ORTHOMODE
 70
     0
  9
$REGENMODE
 70
     1
  9
$FILLMODE
 70
     1
  9
$QTEXTMODE
 70
     0
  9
$MIRRTEXT
 70
     1
  9
$LTSCALE
 40
1.0
  9
$ATTMODE
 70
     1
  9
$TEXTSIZE
 40
3.5
  9
$TRACEWID
 40
1.0
  9
$TEXTSTYLE
  7
Standard
  9
$CLAYER
  8
0
  9
$CELTYPE
  6
ByLayer
  9
$CECOLOR
 62
   256
  9
$CELTSCALE
 40
1.0
  9
$DISPSILH
 70
     0
  9
$DIMSCALE
 40
1.0
  9
$DIMASZ
 40
2.5683186849
  9
$DIMEXO
 40
1.0
  9
$DIMDLI
 40
3.75
  9
$DIMRND
 40
0.0
  9
$DIMDLE
 40
0.0
  9
$DIMEXE
 40
1.0
  9
$DIMTP
 40
0.0
  9
$DIMTM
 40
0.0
  9
$DIMTXT
 40
3.5277777778
  9
$DIMCEN
 40
2.5
  9
$DIMTSZ
 40
0.0
  9
$DIMTOL
 70
     0
  9
$DIMLIM
 70
     0
  9
$DIMTIH
 70
     1
  9
$DIMTOH
 70
     1
  9
$DIMSE1
 70
     0
  9
$DIMSE2
 70
     0
  9
$DIMTAD
 70
     1
  9
$DIMZIN
 70
     0
  9
$DIMBLK
  1

  9
$DIMASO
 70
     1
  9
$DIMSHO
 70
     1
  9
$DIMPOST
  1

  9
$DIMAPOST
  1

  9
$DIMALT
 70
     0
  9
$DIMALTD
 70
     3
  9
$DIMALTF
 40
0.0393700787
  9
$DIMLFAC
 40
0.2
  9
$DIMTOFL
 70
     1
  9
$DIMTVP
 40
0.0
  9
$DIMTIX
 70
     0
  9
$DIMSOXD
 70
     0
  9
$DIMSAH
 70
     0
  9
$DIMBLK1
  1

  9
$DIMBLK2
  1

  9
$DIMSTYLE
  2
ISO-25
  9
$DIMCLRD
 70
     0
  9
$DIMCLRE
 70
     0
  9
$DIMCLRT
 70
     0
  9
$DIMTFAC
 40
1.0
  9
$DIMGAP
 40
1.524
  9
$DIMJUST
 70
     0
  9
$DIMSD1
 70
     0
  9
$DIMSD2
 70
     0
  9
$DIMTOLJ
 70
     0
  9
$DIMTZIN
 70
     0
  9
$DIMALTZ
 70
     0
  9
$DIMALTTZ
 70
     0
  9
$DIMUPT
 70
     0
  9
$DIMDEC
 70
     2
  9
$DIMTDEC
 70
     2
  9
$DIMALTU
 70
     2
  9
$DIMALTTD
 70
     3
  9
$DIMTXSTY
  7
Standard
  9
$DIMAUNIT
 70
     0
  9
$DIMADEC
 70
     2
  9
$DIMALTRND
 40
0.0
  9
$DIMAZIN
 70
     0
  9
$DIMDSEP
 70
    44
  9
$DIMATFIT
 70
     3
  9
$DIMFRAC
 70
     0
  9
$DIMLDRBLK
  1

  9
$DIMLUNIT
 70
     2
  9
$DIMLWD
 70
    -2
  9
$DIMLWE
 70
    -2
  9
$DIMTMOVE
 70
     0
  9
$LUNITS
 70
     2
  9
$LUPREC
 70
     2
  9
$SKETCHINC
 40
1.0
  9
$FILLETRAD
 40
10.0
  9
$AUNITS
 70
     0
  9
$AUPREC
 70
     2
  9
$MENU
  1
.
  9
$ELEVATION
 40
0.0
  9
$PELEVATION
 40
0.0
  9
$THICKNESS
 40
0.0
  9
$LIMCHECK
 70
     0
  9
$CHAMFERA
 40
10.0
  9
$CHAMFERB
 40
10.0
  9
$CHAMFERC
 40
20.0
  9
$CHAMFERD
 40
0.0
  9
$SKPOLY
 70
     0
  9
$TDCREATE
 40
2455784.701798357
  9
$TDUCREATE
 40
2455784.47263169
  9
$TDUPDATE
 40
2455784.701798368
  9
$TDUUPDATE
 40
2455784.472631701
  9
$TDINDWG
 40
0.0000000116
  9
$TDUSRTIMER
 40
0.0000000116
  9
$USRTIMER
 70
     1
  9
$ANGBASE
 50
0.0
  9
$ANGDIR
 70
     0
  9
$PDMODE
 70
     0
  9
$PDSIZE
 40
-1.0
  9
$PLINEWID
 40
0.0
  9
$SPLFRAME
 70
     0
  9
$SPLINETYPE
 70
     6
  9
$SPLINESEGS
 70
     8
  9
$HANDSEED
  5
13E
  9
$SURFTAB1
 70
     6
  9
$SURFTAB2
 70
     6
  9
$SURFTYPE
 70
     6
  9
$SURFU
 70
     6
  9
$SURFV
 70
     6
  9
$UCSBASE
  2

  9
$UCSNAME
  2

  9
$UCSORG
 10
0.0
 20
0.0
 30
0.0
  9
$UCSXDIR
 10
1.0
 20
0.0
 30
0.0
  9
$UCSYDIR
 10
0.0
 20
1.0
 30
0.0
  9
$UCSORTHOREF
  2

  9
$UCSORTHOVIEW
 70
     0
  9
$UCSORGTOP
 10
0.0
 20
0.0
 30
0.0
  9
$UCSORGBOTTOM
 10
0.0
 20
0.0
 30
0.0
  9
$UCSORGLEFT
 10
0.0
 20
0.0
 30
0.0
  9
$UCSORGRIGHT
 10
0.0
 20
0.0
 30
0.0
  9
$UCSORGFRONT
 10
0.0
 20
0.0
 30
0.0
  9
$UCSORGBACK
 10
0.0
 20
0.0
 30
0.0
  9
$PUCSBASE
  2

  9
$PUCSNAME
  2

  9
$PUCSORG
 10
0.0
 20
0.0
 30
0.0
  9
$PUCSXDIR
 10
1.0
 20
0.0
 30
0.0
  9
$PUCSYDIR
 10
0.0
 20
1.0
 30
0.0
  9
$PUCSORTHOREF
  2

  9
$PUCSORTHOVIEW
 70
     0
  9
$PUCSORGTOP
 10
0.0
 20
0.0
 30
0.0
  9
$PUCSORGBOTTOM
 10
0.0
 20
0.0
 30
0.0
  9
$PUCSORGLEFT
 10
0.0
 20
0.0
 30
0.0
  9
$PUCSORGRIGHT
 10
0.0
 20
0.0
 30
0.0
  9
$PUCSORGFRONT
 10
0.0
 20
0.0
 30
0.0
  9
$PUCSORGBACK
 10
0.0
 20
0.0
 30
0.0
  9
$USERI1
 70
     0
  9
$USERI2
 70
     0
  9
$USERI3
 70
     0
  9
$USERI4
 70
     0
  9
$USERI5
 70
     0
  9
$USERR1
 40
0.0
  9
$USERR2
 40
0.0
  9
$USERR3
 40
0.0
  9
$USERR4
 40
0.0
  9
$USERR5
 40
0.0
  9
$WORLDVIEW
 70
     1
  9
$SHADEDGE
 70
     3
  9
$SHADEDIF
 70
    70
  9
$TILEMODE
 70
     1
  9
$MAXACTVP
 70
    64
  9
$PINSBASE
 10
0.0
 20
0.0
 30
0.0
  9
$PLIMCHECK
 70
     0
  9
$PEXTMIN
 10
1.0000000000E+20
 20
1.0000000000E+20
 30
1.0000000000E+20
  9
$PEXTMAX
 10
-1.0000000000E+20
 20
-1.0000000000E+20
 30
-1.0000000000E+20
  9
$PLIMMIN
 10
0.0
 20
0.0
  9
$PLIMMAX
 10
420.0
 20
297.0
  9
$UNITMODE
 70
     0
  9
$VISRETAIN
 70
     1
  9
$PLINEGEN
 70
     0
  9
$PSLTSCALE
 70
     1
  9
$TREEDEPTH
 70
  3020
  9
$CMLSTYLE
  2
Standard
  9
$CMLJUST
 70
     0
  9
$CMLSCALE
 40
20.0
  9
$PROXYGRAPHICS
 70
     1
  9
$MEASUREMENT
 70
     1
  9
$CELWEIGHT
370
    -1
  9
$ENDCAPS
280
     0
  9
$JOINSTYLE
280
     0
  9
$LWDISPLAY
290
     1
  9
$INSUNITS
 70
     4
  9
$HYPERLINKBASE
  1

  9
$STYLESHEET
  1

  9
$XEDIT
290
     1
  9
$CEPSNTYPE
380
     0
  9
$PSTYLEMODE
290
     1
  9
$FINGERPRINTGUID
  2
{B94E0BA1-6B2C-4CBD-9471-42C4C0F225C1}
  9
$VERSIONGUID
  2
{FAEB1C32-E019-11D5-929B-00C0DF256EC4}
  9
$EXTNAMES
290
     1
  9
$PSVPSCALE
 40
0.0
  9
$OLESTARTUP
290
     0
  0
ENDSEC
  0
SECTION
  2
CLASSES
  0
CLASS
  1
ACDBDICTIONARYWDFLT
  2
AcDbDictionaryWithDefault
  3
ObjectDBX Classes
 90
        0
280
     0
281
     0
  0
CLASS
  1
VISUALSTYLE
  2
AcDbVisualStyle
  3
ObjectDBX Classes
 90
     4095
280
     0
281
     0
  0
CLASS
  1
SCALE
  2
AcDbScale
  3
ObjectDBX Classes
 90
     1153
280
     0
281
     0
  0
CLASS
  1
DICTIONARYVAR
  2
AcDbDictionaryVar
  3
ObjectDBX Classes
 90
        0
280
     0
281
     0
  0
CLASS
  1
ACDBPLACEHOLDER
  2
AcDbPlaceHolder
  3
ObjectDBX Classes
 90
        0
280
     0
281
     0
  0
CLASS
  1
LAYOUT
  2
AcDbLayout
  3
ObjectDBX Classes
 90
        0
280
     0
281
     0
  0
ENDSEC
  0
SECTION
  2
TABLES
  0
TABLE
  2
VPORT
  5
8
330
0
100
AcDbSymbolTable
 70
     1
  0
VPORT
  5
29
330
8
100
AcDbSymbolTableRecord
100
AcDbViewportTableRecord
  2
*Active
 70
     0
 10
0.0
 20
0.0
 11
1.0
 21
1.0
 12
105.0
 22
148.5
 13
0.0
 23
0.0
 14
10.0
 24
10.0
 15
10.0
 25
10.0
 16
0.0
 26
0.0
 36
1.0
 17
0.0
 27
0.0
 37
0.0
 40
297.0
 41
0.7070707071
 42
50.0
 43
0.0
 44
0.0
 50
0.0
 51
0.0
 71
     0
 72
  2000
 73
     1
 74
     3
 75
     0
 76
     0
 77
     0
 78
     0
281
     0
 65
     1
110
0.0
120
0.0
130
0.0
111
1.0
121
0.0
131
0.0
112
0.0
122
1.0
132
0.0
 79
     0
146
0.0
  0
ENDTAB
  0
TABLE
  2
LTYPE
  5
5
330
0
100
AcDbSymbolTable
 70
     6
  0
LTYPE
  5
14
330
5
100
AcDbSymbolTableRecord
100
AcDbLinetypeTableRecord
  2
ByBlock
 70
     0
  3

 72
    65
 73
     0
 40
0.0
  0
LTYPE
  5
15
330
5
100
AcDbSymbolTableRecord
100
AcDbLinetypeTableRecord
  2
ByLayer
 70
     0
  3

 72
    65
 73
     0
 40
0.0
  0
LTYPE
  5
16
330
5
100
AcDbSymbolTableRecord
100
AcDbLinetypeTableRecord
  2
Continuous
 70
     0
  3
Solid line
 72
    65
 73
     0
 40
0.0
  0
LTYPE
  5
3B
330
5
100
AcDbSymbolTableRecord
100
AcDbLinetypeTableRecord
  2
HIDDEN
 70
     0
  3
Hidden __ __ __ __ __ __ __ __ __ __ __ __ __ __
 72
    65
 73
     2
 40
1.905
 49
1.27
 74
     0
 49
-0.635
 74
     0
  0
LTYPE
  5
3C
330
5
100
AcDbSymbolTableRecord
100
AcDbLinetypeTableRecord
  2
PHANTOM
 70
     0
  3
Phantom ______  __  __  ______  __  __  ______
 72
    65
 73
     6
 40
12.7
 49
6.35
 74
     0
 49
-1.27
 74
     0
 49
1.27
 74
     0
 49
-1.27
 74
     0
 49
1.27
 74
     0
 49
-1.27
 74
     0
  0
LTYPE
  5
3D
330
5
100
AcDbSymbolTableRecord
100
AcDbLinetypeTableRecord
  2
CENTER
 70
     0
  3
Center ____ _ ____ _ ____ _ ____ _ ____ _ ____
 72
    65
 73
     4
 40
10.16
 49
6.35
 74
     0
 49
-1.27
 74
     0
 49
1.27
 74
     0
 49
-1.27
 74
     0
  0
LTYPE
  5
3E
330
5
100
AcDbSymbolTableRecord
100
AcDbLinetypeTableRecord
  2
CENTERX2
 70
     0
  3
Center (2x) ________  __  ________  __  _____
 72
    65
 73
     4
 40
20.32
 49
12.7
 74
     0
 49
-2.54
 74
     0
 49
2.54
 74
     0
 49
-2.54
 74
     0
  0
LTYPE
  5
3F
330
5
100
AcDbSymbolTableRecord
100
AcDbLinetypeTableRecord
  2
DOT2
 70
     0
  3
Dot (.5x) ........................................
 72
    65
 73
     2
 40
0.635
 49
0.0
 74
     0
 49
-0.635
 74
     0
  0
ENDTAB
  0
TABLE
  2
LAYER
  5
2
330
0
100
AcDbSymbolTable
 70
     2
  0
LAYER
  5
10
330
2
100
AcDbSymbolTableRecord
100
AcDbLayerTableRecord
  2
0
 70
     0
 62
     7
  6
Continuous
370
    -3
390
F
  0
LAYER
  5
40
330
2
100
AcDbSymbolTableRecord
100
AcDbLayerTableRecord
  2
FORMAT
 70
     0
 62
     7
  6
Continuous
370
    -3
390
F
  0
ENDTAB
  0
TABLE
  2
STYLE
  5
3
330
0
100
AcDbSymbolTable
 70
     5
  0
STYLE
  5
11
330
3
100
AcDbSymbolTableRecord
100
AcDbTextStyleTableRecord
  2
Standard
 70
     0
 40
0.0
 41
1.0
 50
0.0
 71
     0
 42
2.5
  3
txt
  4

  0
STYLE
  5
64
330
3
100
AcDbSymbolTableRecord
100
AcDbTextStyleTableRecord
  2
SLDTEXTSTYLE0
 70
     0
 40
0.0
 41
0.605
 50
0.0
 71
     0
 42
0.2
  3
TXT
  4

  0
STYLE
  5
88
330
3
100
AcDbSymbolTableRecord
100
AcDbTextStyleTableRecord
  2
SLDTEXTSTYLE1
 70
     0
 40
0.0
 41
0.7
 50
0.0
 71
     0
 42
0.2
  3
TXT
  4

  0
STYLE
  5
8A
330
3
100
AcDbSymbolTableRecord
100
AcDbTextStyleTableRecord
  2
SLDTEXTSTYLE2
 70
     0
 40
0.0
 41
0.75
 50
0.0
 71
     0
 42
0.2
  3
TXT
  4

  0
STYLE
  5
8D
330
3
100
AcDbSymbolTableRecord
100
AcDbTextStyleTableRecord
  2
SLDTEXTSTYLE3
 70
     0
 40
0.0
 41
0.6875
 50
0.0
 71
     0
 42
0.2
  3
TXT
  4

  0
ENDTAB
  0
TABLE
  2
VIEW
  5
6
330
0
100
AcDbSymbolTable
 70
     0
  0
ENDTAB
  0
TABLE
  2
UCS
  5
7
330
0
100
AcDbSymbolTable
 70
     0
  0
ENDTAB
  0
TABLE
  2
APPID
  5
9
330
0
100
AcDbSymbolTable
 70
     1
  0
APPID
  5
12
330
9
100
AcDbSymbolTableRecord
100
AcDbRegAppTableRecord
  2
ACAD
 70
     0
  0
ENDTAB
  0
TABLE
  2
DIMSTYLE
  5
A
330
0
100
AcDbSymbolTable
 70
     4
100
AcDbDimStyleTable
  0
DIMSTYLE
105
27
330
A
100
AcDbSymbolTableRecord
100
AcDbDimStyleTableRecord
  2
ISO-25
 70
     0
 41
2.5
 42
0.625
 43
3.75
 44
1.25
 73
     0
 74
     0
 77
     1
 78
     8
140
2.5
141
2.5
143
0.0393700787
147
0.625
171
     3
172
     1
271
     2
272
     2
274
     3
278
    44
283
     0
284
     8
340
11
  0
DIMSTYLE
105
BC
102
{ACAD_REACTORS
330
BB
330
D1
330
127
102
}
330
A
100
AcDbSymbolTableRecord
100
AcDbDimStyleTableRecord
  2
SLDDIMSTYLE0
 70
     0
 41
2.5683186849
 44
0.0
 45
0.000000001
 73
     0
 74
     0
 77
     2
 78
    12
140
2.5683186849
144
0.5
147
0.6420796712
173
     1
271
     2
272
     2
284
    12
340
64
  0
DIMSTYLE
105
C7
102
{ACAD_REACTORS
330
C6
102
}
330
A
100
AcDbSymbolTableRecord
100
AcDbDimStyleTableRecord
  2
SLDDIMSTYLE1
 70
     0
  3
<>
 41
2.5683186849
 44
0.0
 45
0.000000001
 73
     0
 74
     0
 77
     2
 78
    12
140
2.5683186849
144
0.5
147
0.6420796712
172
     1
173
     1
271
     2
272
     2
284
    12
340
64
  0
DIMSTYLE
105
10F
102
{ACAD_REACTORS
330
10E
330
11B
102
}
330
A
100
AcDbSymbolTableRecord
100
AcDbDimStyleTableRecord
  2
SLDDIMSTYLE2
 70
     0
 41
2.5683186849
 44
0.0
 45
0.000000001
 73
     0
 74
     0
 77
     2
 78
    12
140
2.5683186849
144
0.5
147
0.6420796712
173
     1
271
     2
272
     2
284
    12
340
64
  0
ENDTAB
  0
TABLE
  2
BLOCK_RECORD
  5
1
330
0
100
AcDbSymbolTable
 70
    12
  0
BLOCK_RECORD
  5
1F
330
1
100
AcDbSymbolTableRecord
100
AcDbBlockTableRecord
  2
*Model_Space
340
22
  0
BLOCK_RECORD
  5
1B
330
1
100
AcDbSymbolTableRecord
100
AcDbBlockTableRecord
  2
*Paper_Space
340
1E
  0
BLOCK_RECORD
  5
23
330
1
100
AcDbSymbolTableRecord
100
AcDbBlockTableRecord
  2
*Paper_Space0
340
26
  0
BLOCK_RECORD
  5
98
330
1
100
AcDbSymbolTableRecord
100
AcDbBlockTableRecord
  2
SW_NOTE_0
340
0
102
{BLKREFS
331
9E
102
}
  0
BLOCK_RECORD
  5
A0
330
1
100
AcDbSymbolTableRecord
100
AcDbBlockTableRecord
  2
SW_NOTE_1
340
0
102
{BLKREFS
331
A9
102
}
  0
BLOCK_RECORD
  5
BD
330
1
100
AcDbSymbolTableRecord
100
AcDbBlockTableRecord
  2
*D3
340
0
  0
BLOCK_RECORD
  5
C8
330
1
100
AcDbSymbolTableRecord
100
AcDbBlockTableRecord
  2
*D4
340
0
  0
BLOCK_RECORD
  5
D2
330
1
100
AcDbSymbolTableRecord
100
AcDbBlockTableRecord
  2
*D5
340
0
  0
BLOCK_RECORD
  5
DB
330
1
100
AcDbSymbolTableRecord
100
AcDbBlockTableRecord
  2
SW_CHAMFER_DIMENSION_0
340
0
102
{BLKREFS
331
E4
102
}
  0
BLOCK_RECORD
  5
E5
330
1
100
AcDbSymbolTableRecord
100
AcDbBlockTableRecord
  2
SW_CHAMFER_DIMENSION_1
340
0
102
{BLKREFS
331
EE
102
}
  0
BLOCK_RECORD
  5
EF
330
1
100
AcDbSymbolTableRecord
100
AcDbBlockTableRecord
  2
SW_CENTERMARKSYMBOL_0
340
0
102
{BLKREFS
331
FA
102
}
  0
BLOCK_RECORD
  5
110
330
1
100
AcDbSymbolTableRecord
100
AcDbBlockTableRecord
  2
*D9
340
0
  0
BLOCK_RECORD
  5
11C
330
1
100
AcDbSymbolTableRecord
100
AcDbBlockTableRecord
  2
*D10
340
0
  0
BLOCK_RECORD
  5
128
330
1
100
AcDbSymbolTableRecord
100
AcDbBlockTableRecord
  2
*D11
340
0
  0
ENDTAB
  0
ENDSEC
  0
SECTION
  2
BLOCKS
  0
BLOCK
  5
20
330
1F
100
AcDbEntity
  8
0
100
AcDbBlockBegin
  2
*Model_Space
 70
     0
 10
0.0
 20
0.0
 30
0.0
  3
*Model_Space
  1

  0
ENDBLK
  5
21
330
1F
100
AcDbEntity
  8
0
100
AcDbBlockEnd
  0
BLOCK
  5
1C
330
1B
100
AcDbEntity
 67
     1
  8
0
100
AcDbBlockBegin
  2
*Paper_Space
 70
     0
 10
0.0
 20
0.0
 30
0.0
  3
*Paper_Space
  1

  0
ENDBLK
  5
1D
330
1B
100
AcDbEntity
 67
     1
  8
0
100
AcDbBlockEnd
  0
BLOCK
  5
24
330
23
100
AcDbEntity
  8
0
100
AcDbBlockBegin
  2
*Paper_Space0
 70
     0
 10
0.0
 20
0.0
 30
0.0
  3
*Paper_Space0
  1

  0
ENDBLK
  5
25
330
23
100
AcDbEntity
  8
0
100
AcDbBlockEnd
  0
BLOCK
  5
99
330
98
100
AcDbEntity
  8
0
100
AcDbBlockBegin
  2
SW_NOTE_0
 70
     0
 10
0.0
 20
0.0
 30
0.0
  3
SW_NOTE_0
  1

  0
MTEXT
  5
9B
330
98
100
AcDbEntity
  8
0
  6
Continuous
 62
     0
370
     0
100
AcDbMText
 10
0.0
 20
1.9336016097
 30
0.0
 40
1.5
 41
0.0
 71
     1
 72
     1
  1
DEBUR AND 
  7
SLDTEXTSTYLE2
 73
     1
 44
1.0
  0
MTEXT
  5
9C
330
98
100
AcDbEntity
  8
0
  6
Continuous
 62
     0
370
     0
100
AcDbMText
 10
0.0
 20
-0.5663983345
 30
0.0
 40
1.5
 41
0.0
 71
     1
 72
     1
  1
BREAK SHARP 
  7
SLDTEXTSTYLE2
 73
     1
 44
1.0
  0
MTEXT
  5
9D
330
98
100
AcDbEntity
  8
0
  6
Continuous
 62
     0
370
     0
100
AcDbMText
 10
0.0
 20
-3.0663982786
 30
0.0
 40
1.5
 41
0.0
 71
     1
 72
     1
  1
EDGES
  7
SLDTEXTSTYLE2
 73
     1
 44
1.0
  0
ENDBLK
  5
9A
330
98
100
AcDbEntity
  8
0
100
AcDbBlockEnd
  0
BLOCK
  5
A1
330
A0
100
AcDbEntity
  8
0
100
AcDbBlockBegin
  2
SW_NOTE_1
 70
     0
 10
0.0
 20
0.0
 30
0.0
  3
SW_NOTE_1
  1

  0
MTEXT
  5
A3
330
A0
100
AcDbEntity
  8
0
  6
Continuous
 62
     0
370
     0
100
AcDbMText
 10
0.0
 20
1.9336016097
 30
0.0
 40
1.5
 41
0.0
 71
     1
 72
     1
  1
UNLESS OTHERWISE SPECIFIED:
  7
SLDTEXTSTYLE2
 73
     1
 44
1.0
  0
MTEXT
  5
A4
330
A0
100
AcDbEntity
  8
0
  6
Continuous
 62
     0
370
     0
100
AcDbMText
 10
0.0
 20
-0.5663983345
 30
0.0
 40
1.5
 41
0.0
 71
     1
 72
     1
  1
DIMENSIONS ARE IN MILLIMETERS
  7
SLDTEXTSTYLE2
 73
     1
 44
1.0
  0
MTEXT
  5
A5
330
A0
100
AcDbEntity
  8
0
  6
Continuous
 62
     0
370
     0
100
AcDbMText
 10
0.0
 20
-3.0663982786
 30
0.0
 40
1.5
 41
0.0
 71
     1
 72
     1
  1
SURFACE FINISH:
  7
SLDTEXTSTYLE2
 73
     1
 44
1.0
  0
MTEXT
  5
A6
330
A0
100
AcDbEntity
  8
0
  6
Continuous
 62
     0
370
     0
100
AcDbMText
 10
0.0
 20
-5.5663982227
 30
0.0
 40
1.5
 41
0.0
 71
     1
 72
     1
  1
TOLERANCES:
  7
SLDTEXTSTYLE2
 73
     1
 44
1.0
  0
MTEXT
  5
A7
330
A0
100
AcDbEntity
  8
0
  6
Continuous
 62
     0
370
     0
100
AcDbMText
 10
0.0
 20
-8.0663981668
 30
0.0
 40
1.5
 41
0.0
 71
     1
 72
     1
  1
   LINEAR:
  7
SLDTEXTSTYLE2
 73
     1
 44
1.0
  0
MTEXT
  5
A8
330
A0
100
AcDbEntity
  8
0
  6
Continuous
 62
     0
370
     0
100
AcDbMText
 10
0.0
 20
-10.5663981109
 30
0.0
 40
1.5
 41
0.0
 71
     1
 72
     1
  1
   ANGULAR:
  7
SLDTEXTSTYLE2
 73
     1
 44
1.0
  0
ENDBLK
  5
A2
330
A0
100
AcDbEntity
  8
0
100
AcDbBlockEnd
  0
BLOCK
  5
BE
330
BD
100
AcDbEntity
  8
0
100
AcDbBlockBegin
  2
*D3
 70
     1
 10
0.0
 20
0.0
 30
0.0
  3
*D3
  1

  0
SOLID
  5
C0
330
BD
100
AcDbEntity
  8
0
  6
Continuous
 62
     7
370
     0
100
AcDbTrace
 10
89.0749315068
 20
219.8690271509
 30
0.0
 11
91.6432501917
 21
219.4739011994
 31
0.0
 12
91.6432501917
 22
220.2641531024
 32
0.0
 13
91.6432501917
 23
220.2641531024
 33
0.0
  0
SOLID
  5
C1
330
BD
100
AcDbEntity
  8
0
  6
Continuous
 62
     7
370
     0
100
AcDbTrace
 10
125.0749315068
 20
219.8690271509
 30
0.0
 11
122.506612822
 21
220.2641531024
 31
0.0
 12
122.506612822
 22
219.4739011994
 32
0.0
 13
122.506612822
 23
219.4739011994
 33
0.0
  0
LINE
  5
C2
330
BD
100
AcDbEntity
  8
0
  6
Continuous
 62
     7
370
     0
100
AcDbLine
 10
89.0749315068
 20
206.4835068493
 30
0.0
 11
89.0749315068
 21
220.8690271509
 31
0.0
  0
LINE
  5
C3
330
BD
100
AcDbEntity
  8
0
  6
Continuous
 62
     7
370
     0
100
AcDbLine
 10
125.0749315068
 20
206.4835068493
 30
0.0
 11
125.0749315068
 21
220.8690271509
 31
0.0
  0
LINE
  5
C4
330
BD
100
AcDbEntity
  8
0
  6
Continuous
 62
     7
370
     0
100
AcDbLine
 10
89.0749315068
 20
219.8690271509
 30
0.0
 11
125.0749315068
 21
219.8690271509
 31
0.0
  0
MTEXT
  5
C5
330
BD
100
AcDbEntity
  8
0
  6
Continuous
 62
     7
370
     0
100
AcDbMText
 10
104.5926146908
 20
223.2796857204
 30
0.0
 40
2.6458333333
 41
0.0
 71
     1
 72
     1
  1
18
  7
SLDTEXTSTYLE0
 73
     1
 44
1.0
  0
ENDBLK
  5
BF
330
BD
100
AcDbEntity
  8
0
100
AcDbBlockEnd
  0
BLOCK
  5
C9
330
C8
100
AcDbEntity
  8
0
100
AcDbBlockBegin
  2
*D4
 70
     1
 10
0.0
 20
0.0
 30
0.0
  3
*D4
  1

  0
SOLID
  5
CB
330
C8
100
AcDbEntity
  8
0
  6
Continuous
 62
     7
370
     0
100
AcDbTrace
 10
118.4876421444
 20
189.7754027646
 30
0.0
 11
120.8081679628
 21
188.6059818349
 31
0.0
 12
121.0523626553
 22
189.3575581933
 32
0.0
 13
121.0523626553
 23
189.3575581933
 33
0.0
  0
LINE
  5
CC
330
C8
100
AcDbEntity
  8
0
  6
Continuous
 62
     7
370
     0
100
AcDbLine
 10
118.4876421444
 20
189.7754027646
 30
0.0
 11
146.7337407531
 21
180.5979621939
 31
0.0
  0
LINE
  5
CD
330
C8
100
AcDbEntity
  8
0
  6
Continuous
 62
     7
370
     0
100
AcDbLine
 10
118.4876421444
 20
189.7754027646
 30
0.0
 11
95.6622208693
 21
197.191610934
 31
0.0
  0
MTEXT
  5
CE
330
C8
100
AcDbEntity
  8
0
  6
Continuous
 62
     7
370
     0
100
AcDbMText
 10
134.3536517366
 20
188.2030508634
 30
0.0
 40
2.6458333333
 41
0.0
 71
     1
 72
     1
  1
M
  7
SLDTEXTSTYLE0
 11
0.9510592197978622
 21
-0.3090086737253205
 31
0.0
 73
     1
 44
1.0
  0
MTEXT
  5
CF
330
C8
100
AcDbEntity
  8
0
  6
Continuous
 62
     7
370
     0
100
AcDbMText
 10
137.1479616964
 20
187.2951515478
 30
0.0
 40
2.6458333333
 41
0.0
 71
     1
 72
     1
  1
12
  7
SLDTEXTSTYLE0
 11
0.9510592197978622
 21
-0.3090086737253205
 31
0.0
 73
     1
 44
1.0
  0
MTEXT
  5
D0
330
C8
100
AcDbEntity
  8
0
  6
Continuous
 62
     7
370
     0
100
AcDbMText
 10
140.8737083096
 20
186.0846191271
 30
0.0
 40
2.6458333333
 41
0.0
 71
     1
 72
     1
  1
x1p
  7
SLDTEXTSTYLE0
 11
0.9510592197978622
 21
-0.3090086737253205
 31
0.0
 73
     1
 44
1.0
  0
ENDBLK
  5
CA
330
C8
100
AcDbEntity
  8
0
100
AcDbBlockEnd
  0
BLOCK
  5
D3
330
D2
100
AcDbEntity
  8
0
100
AcDbBlockBegin
  2
*D5
 70
     1
 10
0.0
 20
0.0
 30
0.0
  3
*D5
  1

  0
SOLID
  5
D5
330
D2
100
AcDbEntity
  8
0
  6
Continuous
 62
     7
370
     0
100
AcDbTrace
 10
73.0749315068
 20
179.4835068493
 30
0.0
 11
73.4700574584
 21
182.0518255342
 31
0.0
 12
72.6798055553
 22
182.0518255342
 32
0.0
 13
72.6798055553
 23
182.0518255342
 33
0.0
  0
SOLID
  5
D6
330
D2
100
AcDbEntity
  8
0
  6
Continuous
 62
     7
370
     0
100
AcDbTrace
 10
73.0749315068
 20
207.4835068493
 30
0.0
 11
72.6798055553
 21
204.9151881644
 31
0.0
 12
73.4700574584
 22
204.9151881644
 32
0.0
 13
73.4700574584
 23
204.9151881644
 33
0.0
  0
LINE
  5
D7
330
D2
100
AcDbEntity
  8
0
  6
Continuous
 62
     7
370
     0
100
AcDbLine
 10
98.0749315068
 20
179.4835068493
 30
0.0
 11
72.0749315068
 21
179.4835068493
 31
0.0
  0
LINE
  5
D8
330
D2
100
AcDbEntity
  8
0
  6
Continuous
 62
     7
370
     0
100
AcDbLine
 10
90.0749315068
 20
207.4835068493
 30
0.0
 11
72.0749315068
 21
207.4835068493
 31
0.0
  0
LINE
  5
D9
330
D2
100
AcDbEntity
  8
0
  6
Continuous
 62
     7
370
     0
100
AcDbLine
 10
73.0749315068
 20
179.4835068493
 30
0.0
 11
73.0749315068
 21
207.4835068493
 31
0.0
  0
MTEXT
  5
DA
330
D2
100
AcDbEntity
  8
0
  6
Continuous
 62
     7
370
     0
100
AcDbMText
 10
69.6642729374
 20
193.2206120687
 30
0.0
 40
2.6458333333
 41
0.0
 71
     1
 72
     1
  1
14
  7
SLDTEXTSTYLE0
 11
-1.608122649676637E-16
 21
1.0
 31
0.0
 73
     1
 44
1.0
  0
ENDBLK
  5
D4
330
D2
100
AcDbEntity
  8
0
100
AcDbBlockEnd
  0
BLOCK
  5
DC
330
DB
100
AcDbEntity
  8
0
100
AcDbBlockBegin
  2
SW_CHAMFER_DIMENSION_0
 70
     0
 10
0.0
 20
0.0
 30
0.0
  3
SW_CHAMFER_DIMENSION_0
  1

  0
SOLID
  5
DE
330
DB
100
AcDbEntity
  8
0
  6
Continuous
 62
     0
370
     0
100
AcDbTrace
 10
29.045353701
 20
15.89946791
 30
0.0
 11
26.9518423607
 21
14.3601188097
 31
0.0
 12
27.5113466609
 22
13.8020390588
 32
0.0
 13
27.5113466609
 23
13.8020390588
 33
0.0
  0
LINE
  5
DF
330
DB
100
AcDbEntity
  8
0
  6
Continuous
 62
     0
370
     0
100
AcDbLine
 10
29.045353701
 20
15.89946791
 30
0.0
 11
13.1863671233
 21
-0.0000001746
 31
0.0
  0
LINE
  5
E0
330
DB
100
AcDbEntity
  8
0
  6
Continuous
 62
     0
370
     0
100
AcDbLine
 10
13.1863671233
 20
-0.0000001746
 30
0.0
 11
-1.5875
 21
-0.0000001746
 31
0.0
  0
MTEXT
  5
E1
330
DB
100
AcDbEntity
  8
0
  6
Continuous
 62
     0
370
     0
100
AcDbMText
 10
0.0
 20
3.4106583948
 30
0.0
 40
2.6458333333
 41
0.0
 71
     1
 72
     1
  1
5
  7
SLDTEXTSTYLE0
 73
     1
 44
1.0
  0
MTEXT
  5
E2
330
DB
100
AcDbEntity
  8
0
  6
Continuous
 62
     0
370
     0
100
AcDbMText
 10
6.2704430137
 20
3.4106583948
 30
0.0
 40
2.6458333333
 41
0.0
 71
     1
 72
     1
  1
45°
  7
SLDTEXTSTYLE0
 73
     1
 44
1.0
  0
MTEXT
  5
E3
330
DB
100
AcDbEntity
  8
0
  6
Continuous
 62
     0
370
     0
100
AcDbMText
 10
1.9587353425
 20
3.4106583948
 30
0.0
 40
2.6458333333
 41
0.0
 71
     1
 72
     1
  1
 X 
  7
SLDTEXTSTYLE0
 73
     1
 44
1.0
  0
ENDBLK
  5
DD
330
DB
100
AcDbEntity
  8
0
100
AcDbBlockEnd
  0
BLOCK
  5
E6
330
E5
100
AcDbEntity
  8
0
100
AcDbBlockBegin
  2
SW_CHAMFER_DIMENSION_1
 70
     0
 10
0.0
 20
0.0
 30
0.0
  3
SW_CHAMFER_DIMENSION_1
  1

  0
SOLID
  5
E8
330
E5
100
AcDbEntity
  8
0
  6
Continuous
 62
     0
370
     0
100
AcDbTrace
 10
20.6892482341
 20
-7.506746354
 30
0.0
 11
19.1531085629
 21
-5.4108789213
 31
0.0
 12
18.5941722096
 22
-5.9695274899
 32
0.0
 13
18.5941722096
 23
-5.9695274899
 33
0.0
  0
LINE
  5
E9
330
E5
100
AcDbEntity
  8
0
  6
Continuous
 62
     0
370
     0
100
AcDbLine
 10
20.6892482341
 20
-7.506746354
 30
0.0
 11
13.1863671233
 21
-0.0000001746
 31
0.0
  0
LINE
  5
EA
330
E5
100
AcDbEntity
  8
0
  6
Continuous
 62
     0
370
     0
100
AcDbLine
 10
13.1863671233
 20
-0.0000001746
 30
0.0
 11
-1.5875
 21
-0.0000001746
 31
0.0
  0
MTEXT
  5
EB
330
E5
100
AcDbEntity
  8
0
  6
Continuous
 62
     0
370
     0
100
AcDbMText
 10
0.0
 20
3.4106583948
 30
0.0
 40
2.6458333333
 41
0.0
 71
     1
 72
     1
  1
1
  7
SLDTEXTSTYLE0
 73
     1
 44
1.0
  0
MTEXT
  5
EC
330
E5
100
AcDbEntity
  8
0
  6
Continuous
 62
     0
370
     0
100
AcDbMText
 10
6.2704430137
 20
3.4106583948
 30
0.0
 40
2.6458333333
 41
0.0
 71
     1
 72
     1
  1
45°
  7
SLDTEXTSTYLE0
 73
     1
 44
1.0
  0
MTEXT
  5
ED
330
E5
100
AcDbEntity
  8
0
  6
Continuous
 62
     0
370
     0
100
AcDbMText
 10
1.9587353425
 20
3.4106583948
 30
0.0
 40
2.6458333333
 41
0.0
 71
     1
 72
     1
  1
 X 
  7
SLDTEXTSTYLE0
 73
     1
 44
1.0
  0
ENDBLK
  5
E7
330
E5
100
AcDbEntity
  8
0
100
AcDbBlockEnd
  0
BLOCK
  5
F0
330
EF
100
AcDbEntity
  8
0
100
AcDbBlockBegin
  2
SW_CENTERMARKSYMBOL_0
 70
     0
 10
0.0
 20
0.0
 30
0.0
  3
SW_CENTERMARKSYMBOL_0
  1

  0
LINE
  5
F2
330
EF
100
AcDbEntity
  8
0
  6
Continuous
 62
     0
370
     0
100
AcDbLine
 10
0.0
 20
0.0
 30
0.0
 11
0.0
 21
5.0
 31
0.0
  0
LINE
  5
F3
330
EF
100
AcDbEntity
  8
0
  6
Continuous
 62
     0
370
     0
100
AcDbLine
 10
0.0
 20
0.0
 30
0.0
 11
-5.0
 21
0.0
 31
0.0
  0
LINE
  5
F4
330
EF
100
AcDbEntity
  8
0
  6
Continuous
 62
     0
370
     0
100
AcDbLine
 10
0.0
 20
0.0
 30
0.0
 11
0.0
 21
-5.0
 31
0.0
  0
LINE
  5
F5
330
EF
100
AcDbEntity
  8
0
  6
Continuous
 62
     0
370
     0
100
AcDbLine
 10
0.0
 20
0.0
 30
0.0
 11
5.0
 21
0.0
 31
0.0
  0
LINE
  5
F6
330
EF
100
AcDbEntity
  8
0
  6
Continuous
 62
     0
370
     0
100
AcDbLine
 10
0.0
 20
10.0
 30
0.0
 11
0.0
 21
19.0
 31
0.0
  0
LINE
  5
F7
330
EF
100
AcDbEntity
  8
0
  6
Continuous
 62
     0
370
     0
100
AcDbLine
 10
-10.0
 20
0.0
 30
0.0
 11
-19.0
 21
0.0
 31
0.0
  0
LINE
  5
F8
330
EF
100
AcDbEntity
  8
0
  6
Continuous
 62
     0
370
     0
100
AcDbLine
 10
0.0
 20
-10.0
 30
0.0
 11
0.0
 21
-19.0
 31
0.0
  0
LINE
  5
F9
330
EF
100
AcDbEntity
  8
0
  6
Continuous
 62
     0
370
     0
100
AcDbLine
 10
10.0
 20
0.0
 30
0.0
 11
19.0
 21
0.0
 31
0.0
  0
ENDBLK
  5
F1
330
EF
100
AcDbEntity
  8
0
100
AcDbBlockEnd
  0
BLOCK
  5
111
330
110
100
AcDbEntity
  8
0
100
AcDbBlockBegin
  2
*D9
 70
     1
 10
0.0
 20
0.0
 30
0.0
  3
*D9
  1

  0
SOLID
  5
113
330
110
100
AcDbEntity
  8
0
  6
Continuous
 62
     7
370
     0
100
AcDbTrace
 10
137.704996338
 20
139.1051780822
 30
0.0
 11
137.3098703864
 21
136.5368593973
 31
0.0
 12
138.1001222895
 22
136.5368593973
 32
0.0
 13
138.1001222895
 23
136.5368593973
 33
0.0
  0
SOLID
  5
114
330
110
100
AcDbEntity
  8
0
  6
Continuous
 62
     7
370
     0
100
AcDbTrace
 10
137.704996338
 20
147.1051780822
 30
0.0
 11
138.1001222895
 21
149.6734967671
 31
0.0
 12
137.3098703864
 22
149.6734967671
 32
0.0
 13
137.3098703864
 23
149.6734967671
 33
0.0
  0
LINE
  5
115
330
110
100
AcDbEntity
  8
0
  6
Continuous
 62
     7
370
     0
100
AcDbLine
 10
122.0749315068
 20
139.1051780822
 30
0.0
 11
138.704996338
 21
139.1051780822
 31
0.0
  0
LINE
  5
116
330
110
100
AcDbEntity
  8
0
  6
Continuous
 62
     7
370
     0
100
AcDbLine
 10
126.0749315068
 20
147.1051780822
 30
0.0
 11
138.704996338
 21
147.1051780822
 31
0.0
  0
LINE
  5
117
330
110
100
AcDbEntity
  8
0
  6
Continuous
 62
     7
370
     0
100
AcDbLine
 10
137.704996338
 20
139.1051780822
 30
0.0
 11
137.704996338
 21
134.1661036882
 31
0.0
  0
LINE
  5
118
330
110
100
AcDbEntity
  8
0
  6
Continuous
 62
     7
370
     0
100
AcDbLine
 10
137.704996338
 20
139.1051780822
 30
0.0
 11
137.704996338
 21
147.1051780822
 31
0.0
  0
LINE
  5
119
330
110
100
AcDbEntity
  8
0
  6
Continuous
 62
     7
370
     0
100
AcDbLine
 10
137.704996338
 20
147.1051780822
 30
0.0
 11
137.704996338
 21
152.0442524762
 31
0.0
  0
MTEXT
  5
11A
330
110
100
AcDbEntity
  8
0
  6
Continuous
 62
     7
370
     0
100
AcDbMText
 10
134.2943377685
 20
142.1596318285
 30
0.0
 40
2.6458333333
 41
0.0
 71
     1
 72
     1
  1
4
  7
SLDTEXTSTYLE0
 11
6.123233995736766E-17
 21
1.0
 31
0.0
 73
     1
 44
1.0
  0
ENDBLK
  5
112
330
110
100
AcDbEntity
  8
0
100
AcDbBlockEnd
  0
BLOCK
  5
11D
330
11C
100
AcDbEntity
  8
0
100
AcDbBlockBegin
  2
*D10
 70
     1
 10
0.0
 20
0.0
 30
0.0
  3
*D10
  1

  0
SOLID
  5
11F
330
11C
100
AcDbEntity
  8
0
  6
Continuous
 62
     7
370
     0
100
AcDbTrace
 10
130.0963391307
 20
147.1051780822
 30
0.0
 11
130.4914650822
 21
149.6734967671
 31
0.0
 12
129.7012131792
 22
149.6734967671
 32
0.0
 13
129.7012131792
 23
149.6734967671
 33
0.0
  0
SOLID
  5
120
330
11C
100
AcDbEntity
  8
0
  6
Continuous
 62
     7
370
     0
100
AcDbTrace
 10
130.0963391307
 20
143.1051780822
 30
0.0
 11
129.7012131792
 21
140.5368593973
 31
0.0
 12
130.4914650822
 22
140.5368593973
 32
0.0
 13
130.4914650822
 23
140.5368593973
 33
0.0
  0
LINE
  5
121
330
11C
100
AcDbEntity
  8
0
  6
Continuous
 62
     7
370
     0
100
AcDbLine
 10
126.0749315068
 20
147.1051780822
 30
0.0
 11
131.0963391307
 21
147.1051780822
 31
0.0
  0
LINE
  5
122
330
11C
100
AcDbEntity
  8
0
  6
Continuous
 62
     7
370
     0
100
AcDbLine
 10
126.0749315068
 20
143.1051780822
 30
0.0
 11
131.0963391307
 21
143.1051780822
 31
0.0
  0
LINE
  5
123
330
11C
100
AcDbEntity
  8
0
  6
Continuous
 62
     7
370
     0
100
AcDbLine
 10
130.0963391307
 20
147.1051780822
 30
0.0
 11
130.0963391307
 21
157.0652708888
 31
0.0
  0
LINE
  5
124
330
11C
100
AcDbEntity
  8
0
  6
Continuous
 62
     7
370
     0
100
AcDbLine
 10
130.0963391307
 20
147.1051780822
 30
0.0
 11
130.0963391307
 21
143.1051780822
 31
0.0
  0
LINE
  5
125
330
11C
100
AcDbEntity
  8
0
  6
Continuous
 62
     7
370
     0
100
AcDbLine
 10
130.0963391307
 20
143.1051780822
 30
0.0
 11
130.0963391307
 21
138.1661036882
 31
0.0
  0
MTEXT
  5
126
330
11C
100
AcDbEntity
  8
0
  6
Continuous
 62
     7
370
     0
100
AcDbMText
 10
126.6856805613
 20
153.5190355464
 30
0.0
 40
2.6458333333
 41
0.0
 71
     1
 72
     1
  1
2
  7
SLDTEXTSTYLE0
 11
-7.932373437343760E-15
 21
1.0
 31
0.0
 73
     1
 44
1.0
  0
ENDBLK
  5
11E
330
11C
100
AcDbEntity
  8
0
100
AcDbBlockEnd
  0
BLOCK
  5
129
330
128
100
AcDbEntity
  8
0
100
AcDbBlockBegin
  2
*D11
 70
     1
 10
0.0
 20
0.0
 30
0.0
  3
*D11
  1

  0
SOLID
  5
12B
330
128
100
AcDbEntity
  8
0
  6
Continuous
 62
     7
370
     0
100
AcDbTrace
 10
93.0749315068
 20
127.2887174475
 30
0.0
 11
95.6432501917
 21
126.893591496
 31
0.0
 12
95.6432501917
 22
127.6838433991
 32
0.0
 13
95.6432501917
 23
127.6838433991
 33
0.0
  0
SOLID
  5
12C
330
128
100
AcDbEntity
  8
0
  6
Continuous
 62
     7
370
     0
100
AcDbTrace
 10
121.0749315068
 20
127.2887174475
 30
0.0
 11
118.506612822
 21
127.6838433991
 31
0.0
 12
118.506612822
 22
126.893591496
 32
0.0
 13
118.506612822
 23
126.893591496
 33
0.0
  0
LINE
  5
12D
330
128
100
AcDbEntity
  8
0
  6
Continuous
 62
     7
370
     0
100
AcDbLine
 10
93.0749315068
 20
138.1051780822
 30
0.0
 11
93.0749315068
 21
126.2887174475
 31
0.0
  0
LINE
  5
12E
330
128
100
AcDbEntity
  8
0
  6
Continuous
 62
     7
370
     0
100
AcDbLine
 10
121.0749315068
 20
138.1051780822
 30
0.0
 11
121.0749315068
 21
126.2887174475
 31
0.0
  0
LINE
  5
12F
330
128
100
AcDbEntity
  8
0
  6
Continuous
 62
     7
370
     0
100
AcDbLine
 10
93.0749315068
 20
127.2887174475
 30
0.0
 11
121.0749315068
 21
127.2887174475
 31
0.0
  0
MTEXT
  5
130
330
128
100
AcDbEntity
  8
0
  6
Continuous
 62
     7
370
     0
100
AcDbMText
 10
102.8469507781
 20
130.6993757841
 30
0.0
 40
2.6458333333
 41
0.0
 71
     1
 72
     1
  1
%%c
  7
SLDTEXTSTYLE0
 73
     1
 44
1.0
  0
MTEXT
  5
131
330
128
100
AcDbEntity
  8
0
  6
Continuous
 62
     7
370
     0
100
AcDbMText
 10
106.5901272164
 20
130.699376017
 30
0.0
 40
2.6458333333
 41
0.0
 71
     1
 72
     1
  1
14
  7
SLDTEXTSTYLE0
 73
     1
 44
1.0
  0
ENDBLK
  5
12A
330
128
100
AcDbEntity
  8
0
100
AcDbBlockEnd
  0
ENDSEC
  0
SECTION
  2
ENTITIES
  0
LINE
  5
41
330
1F
100
AcDbEntity
  8
0
  6
Continuous
 62
     7
370
    40
100
AcDbLine
 10
10.0788435654
 20
5.2147801566
 30
0.0
 11
205.0788435654
 21
5.2147801566
 31
0.0
  0
LINE
  5
42
330
1F
100
AcDbEntity
  8
0
  6
Continuous
 62
     7
370
    40
100
AcDbLine
 10
0.0788435654
 20
0.2147801566
 30
0.0
 11
210.0788435654
 21
0.2147801566
 31
0.0
  0
LINE
  5
43
330
1F
100
AcDbEntity
  8
0
  6
Continuous
 62
     7
370
    40
100
AcDbLine
 10
0.0788435654
 20
0.2147801566
 30
0.0
 11
0.0788435654
 21
297.2147801566
 31
0.0
  0
LINE
  5
44
330
1F
100
AcDbEntity
  8
0
  6
Continuous
 62
     7
370
    40
100
AcDbLine
 10
0.0788435654
 20
297.2147801566
 30
0.0
 11
210.0788435654
 21
297.2147801566
 31
0.0
  0
LINE
  5
45
330
1F
100
AcDbEntity
  8
0
  6
Continuous
 62
     7
370
    40
100
AcDbLine
 10
210.0788435654
 20
0.2147801566
 30
0.0
 11
210.0788435654
 21
297.2147801566
 31
0.0
  0
LINE
  5
46
330
1F
100
AcDbEntity
  8
0
  6
Continuous
 62
     7
370
    40
100
AcDbLine
 10
10.0788435654
 20
292.2147801566
 30
0.0
 11
205.0788435654
 21
292.2147801566
 31
0.0
  0
LINE
  5
47
330
1F
100
AcDbEntity
  8
0
  6
Continuous
 62
     7
370
    40
100
AcDbLine
 10
205.0788435654
 20
5.2147801566
 30
0.0
 11
180.9883118484
 21
5.2147801566
 31
0.0
  0
LINE
  5
48
330
1F
100
AcDbEntity
  8
0
  6
Continuous
 62
     7
370
    40
100
AcDbLine
 10
10.0788435654
 20
5.2147801566
 30
0.0
 11
10.0788435654
 21
292.2147801566
 31
0.0
  0
LINE
  5
49
330
1F
100
AcDbEntity
  8
0
  6
Continuous
 62
     7
370
    40
100
AcDbLine
 10
10.1108209117
 20
9.3709272577
 30
0.0
 11
205.0788435654
 21
9.3709272577
 31
0.0
  0
LINE
  5
4A
330
1F
100
AcDbEntity
  8
0
  6
Continuous
 62
     7
370
    40
100
AcDbLine
 10
205.0788435654
 20
43.3709272577
 30
0.0
 11
10.1108209117
 21
43.3709272577
 31
0.0
  0
LINE
  5
4B
330
1F
100
AcDbEntity
  8
0
  6
Continuous
 62
     7
370
    40
100
AcDbLine
 10
10.1108209117
 20
60.3709272577
 30
0.0
 11
205.0788435654
 21
60.3709272577
 31
0.0
  0
LINE
  5
4C
330
1F
100
AcDbEntity
  8
0
  6
Continuous
 62
     7
370
    40
100
AcDbLine
 10
210.0788435654
 20
292.2147801566
 30
0.0
 11
210.0788435654
 21
297.2147801566
 31
0.0
  0
LINE
  5
4D
330
1F
100
AcDbEntity
  8
0
  6
Continuous
 62
     7
370
    40
100
AcDbLine
 10
37.1017733454
 20
43.3709272577
 30
0.0
 11
37.1017733454
 21
5.1209272577
 31
0.0
  0
LINE
  5
4E
330
1F
100
AcDbEntity
  8
0
  6
Continuous
 62
     7
370
    40
100
AcDbLine
 10
108.9108209117
 20
26.3709272577
 30
0.0
 11
10.1108209117
 21
26.3709272577
 31
0.0
  0
LINE
  5
4F
330
1F
100
AcDbEntity
  8
0
  6
Continuous
 62
     7
370
    40
100
AcDbLine
 10
108.9108209117
 20
30.6209272577
 30
0.0
 11
10.1108209117
 21
30.6209272577
 31
0.0
  0
LINE
  5
50
330
1F
100
AcDbEntity
  8
0
  6
Continuous
 62
     7
370
    40
100
AcDbLine
 10
108.9108209117
 20
34.8709272577
 30
0.0
 11
10.1108209117
 21
34.8709272577
 31
0.0
  0
LINE
  5
51
330
1F
100
AcDbEntity
  8
0
  6
Continuous
 62
     7
370
    40
100
AcDbLine
 10
108.9108209117
 20
39.1209272577
 30
0.0
 11
10.1108209117
 21
39.1209272577
 31
0.0
  0
LINE
  5
52
330
1F
100
AcDbEntity
  8
0
  6
Continuous
 62
     7
370
    40
100
AcDbLine
 10
64.7108209117
 20
5.1209272577
 30
0.0
 11
64.7108209117
 21
43.3709272577
 31
0.0
  0
LINE
  5
53
330
1F
100
AcDbEntity
  8
0
  6
Continuous
 62
     7
370
    40
100
AcDbLine
 10
10.1108209117
 20
60.3709272577
 30
0.0
 11
10.1108209117
 21
5.1209272577
 31
0.0
  0
LINE
  5
54
330
1F
100
AcDbEntity
  8
0
  6
Continuous
 62
     7
370
    40
100
AcDbLine
 10
17.9108209117
 20
43.3709272577
 30
0.0
 11
17.9108209117
 21
5.1209272577
 31
0.0
  0
LINE
  5
55
330
1F
100
AcDbEntity
  8
0
  6
Continuous
 62
     7
370
    40
100
AcDbLine
 10
43.9108209117
 20
43.3709272577
 30
0.0
 11
43.9108209117
 21
60.3709272577
 31
0.0
  0
LINE
  5
56
330
1F
100
AcDbEntity
  8
0
  6
Continuous
 62
     7
370
    40
100
AcDbLine
 10
54.5097470752
 20
43.3709272577
 30
0.0
 11
54.5097470752
 21
5.1209272577
 31
0.0
  0
LINE
  5
57
330
1F
100
AcDbEntity
  8
0
  6
Continuous
 62
     7
370
    40
100
AcDbLine
 10
75.1108209117
 20
26.3709272577
 30
0.0
 11
75.1108209117
 21
43.3709272577
 31
0.0
  0
LINE
  5
58
330
1F
100
AcDbEntity
  8
0
  6
Continuous
 62
     7
370
    40
100
AcDbLine
 10
64.7108209117
 20
13.6209272577
 30
0.0
 11
10.1108209117
 21
13.6209272577
 31
0.0
  0
LINE
  5
59
330
1F
100
AcDbEntity
  8
0
  6
Continuous
 62
     7
370
    40
100
AcDbLine
 10
90.7108209117
 20
60.3709272577
 30
0.0
 11
90.7108209117
 21
22.1209272577
 31
0.0
  0
LINE
  5
5A
330
1F
100
AcDbEntity
  8
0
  6
Continuous
 62
     7
370
    40
100
AcDbLine
 10
64.7108209117
 20
17.8708552577
 30
0.0
 11
10.1108209117
 21
17.8708552577
 31
0.0
  0
LINE
  5
5B
330
1F
100
AcDbEntity
  8
0
  6
Continuous
 62
     7
370
    40
100
AcDbLine
 10
64.7108209117
 20
22.1209272577
 30
0.0
 11
10.1108209117
 21
22.1209272577
 31
0.0
  0
LINE
  5
5C
330
1F
100
AcDbEntity
  8
0
  6
Continuous
 62
     7
370
    40
100
AcDbLine
 10
64.7108209117
 20
22.1209272577
 30
0.0
 11
205.0788435654
 21
22.1209272577
 31
0.0
  0
LINE
  5
5D
330
1F
100
AcDbEntity
  8
0
  6
Continuous
 62
     7
370
    40
100
AcDbLine
 10
108.9108209117
 20
60.3709272577
 30
0.0
 11
108.9108209117
 21
5.1209272577
 31
0.0
  0
LINE
  5
5E
330
1F
100
AcDbEntity
  8
0
  6
Continuous
 62
     7
370
    40
100
AcDbLine
 10
160.8788435654
 20
5.2147801566
 30
0.0
 11
160.8788435654
 21
9.4647801566
 31
0.0
  0
LINE
  5
5F
330
1F
100
AcDbEntity
  8
0
  6
Continuous
 62
     7
370
    40
100
AcDbLine
 10
168.6788435654
 20
54.0897801566
 30
0.0
 11
168.6788435654
 21
60.4647801566
 31
0.0
  0
LINE
  5
60
330
1F
100
AcDbEntity
  8
0
  6
Continuous
 62
     7
370
    40
100
AcDbLine
 10
192.0788435654
 20
9.4647801566
 30
0.0
 11
192.0788435654
 21
22.2147801566
 31
0.0
  0
LINE
  5
61
330
1F
100
AcDbEntity
  8
0
  6
Continuous
 62
     7
370
    40
100
AcDbLine
 10
205.0788435654
 20
53.9959272577
 30
0.0
 11
108.9108209117
 21
53.9959272577
 31
0.0
  0
LINE
  5
62
330
1F
100
AcDbEntity
  8
0
  6
Continuous
 62
     7
370
    40
100
AcDbLine
 10
205.0788435654
 20
13.7147801566
 30
0.0
 11
192.0788435654
 21
13.7147801566
 31
0.0
  0
LINE
  5
63
330
1F
100
AcDbEntity
  8
0
  6
Continuous
 62
     7
370
    40
100
AcDbLine
 10
205.0788435654
 20
5.2147801566
 30
0.0
 11
205.0788435654
 21
292.2147801566
 31
0.0
  0
MTEXT
  5
87
330
1F
100
AcDbEntity
  8
0
  6
Continuous
 62
     7
370
     0
100
AcDbMText
 10
148.5735616438
 20
288.2098403532
 30
0.0
 40
3.175
 41
0.0
 71
     1
 72
     1
  1
ALL DIMENSIONS IN MM
  7
SLDTEXTSTYLE0
 73
     1
 44
1.0
  0
MTEXT
  5
89
330
1F
100
AcDbEntity
  8
0
  6
Continuous
 62
     7
370
     0
100
AcDbMText
 10
136.3066593605
 20
19.8465185664
 30
0.0
 40
6.35
 41
0.0
 71
     1
 72
     1
  1
sp nut M12
  7
SLDTEXTSTYLE1
 73
     1
 44
1.0
  0
MTEXT
  5
8B
330
1F
100
AcDbEntity
  8
0
  6
Continuous
 62
     7
370
     0
100
AcDbMText
 10
65.7286320398
 20
8.0702391613
 30
0.0
 40
1.4986
 41
0.0
 71
     1
 72
     1
  1
WEIGHT: 
  7
SLDTEXTSTYLE2
 73
     1
 44
1.0
  0
MTEXT
  5
8C
330
1F
100
AcDbEntity
  8
0
  6
Continuous
 62
     7
370
     0
100
AcDbMText
 10
195.9998284117
 20
19.5152246678
 30
0.0
 40
2.9104166667
 41
0.0
 71
     1
 72
     1
  1
A4
  7
SLDTEXTSTYLE2
 73
     1
 44
1.0
  0
MTEXT
  5
8E
330
1F
100
AcDbEntity
  8
0
  6
Continuous
 62
     7
370
     0
100
AcDbMText
 10
162.3571379932
 20
8.1148674312
 30
0.0
 40
1.5
 41
0.0
 71
     1
 72
     1
  1
SHEET 1 OF 1
  7
SLDTEXTSTYLE3
 73
     1
 44
1.0
  0
MTEXT
  5
8F
330
1F
100
AcDbEntity
  8
0
  6
Continuous
 62
     7
370
     0
100
AcDbMText
 10
110.1847870291
 20
8.0210145322
 30
0.0
 40
1.5
 41
0.0
 71
     1
 72
     1
  1
SCALE:5:1
  7
SLDTEXTSTYLE2
 73
     1
 44
1.0
  0
MTEXT
  5
90
330
1F
100
AcDbEntity
  8
0
  6
Continuous
 62
     7
370
     0
100
AcDbMText
 10
110.1847870291
 20
19.9895650847
 30
0.0
 40
1.5
 41
0.0
 71
     1
 72
     1
  1
DWG NO.
  7
SLDTEXTSTYLE2
 73
     1
 44
1.0
  0
MTEXT
  5
91
330
1F
100
AcDbEntity
  8
0
  6
Continuous
 62
     7
370
     0
100
AcDbMText
 10
110.0670078483
 20
41.3992615437
 30
0.0
 40
1.5
 41
0.0
 71
     1
 72
     1
  1
TITLE:
  7
SLDTEXTSTYLE2
 73
     1
 44
1.0
  0
MTEXT
  5
92
330
1F
100
AcDbEntity
  8
0
  6
Continuous
 62
     7
370
     0
100
AcDbMText
 10
171.2064252647
 20
57.5496888371
 30
0.0
 40
1.5
 41
0.0
 71
     1
 72
     1
  1
REVISION
  7
SLDTEXTSTYLE2
 73
     1
 44
1.0
  0
MTEXT
  5
93
330
1F
100
AcDbEntity
  8
0
  6
Continuous
 62
     7
370
     0
100
AcDbMText
 10
130.4934840882
 20
57.7477737317
 30
0.0
 40
1.5
 41
0.0
 71
     1
 72
     1
  1
DO NOT SCALE DRAWING
  7
SLDTEXTSTYLE2
 73
     1
 44
1.0
  0
MTEXT
  5
94
330
1F
100
AcDbEntity
  8
0
  6
Continuous
 62
     7
370
     0
100
AcDbMText
 10
65.7566832204
 20
21.1069835469
 30
0.0
 40
1.5
 41
0.0
 71
     1
 72
     1
  1
MATERIAL:
  7
SLDTEXTSTYLE2
 73
     1
 44
1.0
  0
MTEXT
  5
95
330
1F
100
AcDbEntity
  8
0
  6
Continuous
 62
     7
370
     0
100
AcDbMText
 10
57.3255228774
 20
41.6971064789
 30
0.0
 40
1.5
 41
0.0
 71
     1
 72
     1
  1
DATE
  7
SLDTEXTSTYLE2
 73
     1
 44
1.0
  0
MTEXT
  5
96
330
1F
100
AcDbEntity
  8
0
  6
Continuous
 62
     7
370
     0
100
AcDbMText
 10
40.1444084748
 20
41.6826836372
 30
0.0
 40
1.5
 41
0.0
 71
     1
 72
     1
  1
SIGNATURE
  7
SLDTEXTSTYLE2
 73
     1
 44
1.0
  0
MTEXT
  5
97
330
1F
100
AcDbEntity
  8
0
  6
Continuous
 62
     7
370
     0
100
AcDbMText
 10
24.4330601293
 20
41.6224098911
 30
0.0
 40
1.5
 41
0.0
 71
     1
 72
     1
  1
NAME
  7
SLDTEXTSTYLE2
 73
     1
 44
1.0
  0
INSERT
  5
9E
330
1F
100
AcDbEntity
  8
0
  6
Continuous
 62
     7
370
     0
100
AcDbBlockReference
  2
SW_NOTE_0
 10
91.4200365979
 20
57.1904169007
 30
0.0
  0
MTEXT
  5
9F
330
1F
100
AcDbEntity
  8
0
  6
Continuous
 62
     7
370
     0
100
AcDbMText
 10
44.4821130785
 20
59.0401992528
 30
0.0
 40
1.5
 41
0.0
 71
     1
 72
     1
  1
FINISH:
  7
SLDTEXTSTYLE2
 73
     1
 44
1.0
  0
INSERT
  5
A9
330
1F
100
AcDbEntity
  8
0
  6
Continuous
 62
     7
370
     0
100
AcDbBlockReference
  2
SW_NOTE_1
 10
10.7044896573
 20
57.108297132
 30
0.0
  0
MTEXT
  5
AA
330
1F
100
AcDbEntity
  8
0
  6
Continuous
 62
     7
370
     0
100
AcDbMText
 10
10.7798637738
 20
20.470576465
 30
0.0
 40
1.5
 41
0.0
 71
     1
 72
     1
  1
Q.A
  7
SLDTEXTSTYLE2
 73
     1
 44
1.0
  0
MTEXT
  5
AB
330
1F
100
AcDbEntity
  8
0
  6
Continuous
 62
     7
370
     0
100
AcDbMText
 10
10.5660074108
 20
24.8546319083
 30
0.0
 40
1.5
 41
0.0
 71
     1
 72
     1
  1
MFG
  7
SLDTEXTSTYLE2
 73
     1
 44
1.0
  0
MTEXT
  5
AC
330
1F
100
AcDbEntity
  8
0
  6
Continuous
 62
     7
370
     0
100
AcDbMText
 10
10.51254332
 20
29.1852232608
 30
0.0
 40
1.5
 41
0.0
 71
     1
 72
     1
  1
APPV'D
  7
SLDTEXTSTYLE2
 73
     1
 44
1.0
  0
MTEXT
  5
AD
330
1F
100
AcDbEntity
  8
0
  6
Continuous
 62
     7
370
     0
100
AcDbMText
 10
10.5212897793
 20
33.2753344177
 30
0.0
 40
1.5
 41
0.0
 71
     1
 72
     1
  1
CHK'D
  7
SLDTEXTSTYLE2
 73
     1
 44
1.0
  0
MTEXT
  5
AE
330
1F
100
AcDbEntity
  8
0
  6
Continuous
 62
     7
370
     0
100
AcDbMText
 10
10.3229701557
 20
37.5506421436
 30
0.0
 40
1.5
 41
0.0
 71
     1
 72
     1
  1
DRAWN
  7
SLDTEXTSTYLE2
 73
     1
 44
1.0
  0
CIRCLE
  5
AF
330
1F
100
AcDbEntity
  8
0
  6
Continuous
 62
     7
370
    15
100
AcDbCircle
 10
107.0749315068
 20
193.4835068493
 30
0.0
 40
10.80000000000001
  0
CIRCLE
  5
B0
330
1F
100
AcDbEntity
  8
0
  6
Continuous
 62
     7
370
    15
100
AcDbCircle
 10
107.0749315068
 20
193.4835068493
 30
0.0
 40
14.0
  0
LINE
  5
B1
330
1F
100
AcDbEntity
  8
0
  6
Continuous
 62
     7
370
    15
100
AcDbLine
 10
89.0749315068
 20
189.4835068493
 30
0.0
 11
99.0749315068
 21
179.4835068493
 31
0.0
  0
LINE
  5
B2
330
1F
100
AcDbEntity
  8
0
  6
Continuous
 62
     7
370
    15
100
AcDbLine
 10
91.0749315068
 20
207.4835068493
 30
0.0
 11
89.0749315068
 21
205.4835068493
 31
0.0
  0
LINE
  5
B3
330
1F
100
AcDbEntity
  8
0
  6
Continuous
 62
     7
370
    15
100
AcDbLine
 10
99.0749315068
 20
179.4835068493
 30
0.0
 11
107.0749315068
 21
179.4835068493
 31
0.0
  0
LINE
  5
B4
330
1F
100
AcDbEntity
  8
0
  6
Continuous
 62
     7
370
    15
100
AcDbLine
 10
89.0749315068
 20
205.4835068493
 30
0.0
 11
89.0749315068
 21
189.4835068493
 31
0.0
  0
LINE
  5
B5
330
1F
100
AcDbEntity
  8
0
  6
Continuous
 62
     7
370
    15
100
AcDbLine
 10
107.0749315068
 20
207.4835068493
 30
0.0
 11
91.0749315068
 21
207.4835068493
 31
0.0
  0
LINE
  5
B6
330
1F
100
AcDbEntity
  8
0
  6
Continuous
 62
     7
370
    15
100
AcDbLine
 10
115.0749315068
 20
179.4835068493
 30
0.0
 11
125.0749315068
 21
189.4835068493
 31
0.0
  0
LINE
  5
B7
330
1F
100
AcDbEntity
  8
0
  6
Continuous
 62
     7
370
    15
100
AcDbLine
 10
125.0749315068
 20
205.4835068493
 30
0.0
 11
123.0749315068
 21
207.4835068493
 31
0.0
  0
LINE
  5
B8
330
1F
100
AcDbEntity
  8
0
  6
Continuous
 62
     7
370
    15
100
AcDbLine
 10
125.0749315068
 20
189.4835068493
 30
0.0
 11
125.0749315068
 21
205.4835068493
 31
0.0
  0
LINE
  5
B9
330
1F
100
AcDbEntity
  8
0
  6
Continuous
 62
     7
370
    15
100
AcDbLine
 10
107.0749315068
 20
179.4835068493
 30
0.0
 11
115.0749315068
 21
179.4835068493
 31
0.0
  0
LINE
  5
BA
330
1F
100
AcDbEntity
  8
0
  6
Continuous
 62
     7
370
    15
100
AcDbLine
 10
123.0749315068
 20
207.4835068493
 30
0.0
 11
107.0749315068
 21
207.4835068493
 31
0.0
  0
DIMENSION
  5
BB
330
1F
100
AcDbEntity
  8
0
  6
Continuous
 62
     7
370
     0
100
AcDbDimension
  2
*D3
 10
125.0749315068
 20
219.8690271509
 30
0.0
 11
106.5513500333
 21
219.8690271509
 31
0.0
 70
   160
 71
     2
 42
-1.0
  3
SLDDIMSTYLE0
100
AcDbAlignedDimension
 13
89.0749315068
 23
205.4835068493
 33
0.0
 14
125.0749315068
 24
205.4835068493
 34
0.0
100
AcDbRotatedDimension
  0
DIMENSION
  5
C6
330
1F
100
AcDbEntity
  8
0
  6
Continuous
 62
     7
370
     0
100
AcDbDimension
  2
*D4
 10
95.6622208693
 20
197.191610934
 30
0.0
 11
139.3167202286
 21
183.007839758
 31
0.0
 70
   163
  1
M<>x1p
 71
     1
 42
-1.0
  3
SLDDIMSTYLE1
100
AcDbDiametricDimension
 15
118.4876421444
 25
189.7754027646
 35
0.0
 40
0.0
  0
DIMENSION
  5
D1
330
1F
100
AcDbEntity
  8
0
  6
Continuous
 62
     7
370
     0
100
AcDbDimension
  2
*D5
 10
73.0749315068
 20
207.4835068493
 30
0.0
 11
73.0749315068
 21
195.1793474112
 31
0.0
 70
   160
 71
     2
 42
-1.0
  3
SLDDIMSTYLE0
100
AcDbAlignedDimension
 13
99.0749315068
 23
179.4835068493
 33
0.0
 14
91.0749315068
 24
207.4835068493
 34
0.0
 50
90.0
100
AcDbRotatedDimension
  0
INSERT
  5
E4
330
1F
100
AcDbEntity
  8
0
  6
Continuous
 62
     7
370
     0
100
AcDbBlockReference
  2
SW_CHAMFER_DIMENSION_0
 10
65.0295778058
 20
168.5840389394
 30
0.0
  0
INSERT
  5
EE
330
1F
100
AcDbEntity
  8
0
  6
Continuous
 62
     7
370
     0
100
AcDbBlockReference
  2
SW_CHAMFER_DIMENSION_1
 10
69.3856832727
 20
213.9902532033
 30
0.0
  0
INSERT
  5
FA
330
1F
100
AcDbEntity
  8
0
  6
Continuous
 62
     7
370
     0
100
AcDbBlockReference
  2
SW_CENTERMARKSYMBOL_0
 10
107.0749315068
 20
193.4835068493
 30
0.0
  0
ARC
  5
FB
330
1F
100
AcDbEntity
  8
0
  6
Continuous
 62
     7
370
     0
100
AcDbCircle
 10
107.0749315068
 20
193.4835068493
 30
0.0
 40
12.00000000000001
100
AcDbArc
 50
255.0
 51
195.0
  0
LINE
  5
FC
330
1F
100
AcDbEntity
  8
0
  6
Continuous
 62
     7
370
    15
100
AcDbLine
 10
93.0749315068
 20
143.1051780822
 30
0.0
 11
93.0749315068
 21
139.1051780822
 31
0.0
  0
LINE
  5
FD
330
1F
100
AcDbEntity
  8
0
  6
Continuous
 62
     7
370
    15
100
AcDbLine
 10
121.0749315068
 20
139.1051780822
 30
0.0
 11
121.0749315068
 21
143.1051780822
 31
0.0
  0
LINE
  5
FE
330
1F
100
AcDbEntity
  8
0
  6
Continuous
 62
     7
370
    15
100
AcDbLine
 10
123.0749315068
 20
143.1051780822
 30
0.0
 11
123.0749315068
 21
147.1051780822
 31
0.0
  0
LINE
  5
FF
330
1F
100
AcDbEntity
  8
0
  6
Continuous
 62
     7
370
    15
100
AcDbLine
 10
123.0749315068
 20
147.1051780822
 30
0.0
 11
125.0749315068
 21
147.1051780822
 31
0.0
  0
LINE
  5
100
330
1F
100
AcDbEntity
  8
0
  6
Continuous
 62
     7
370
    15
100
AcDbLine
 10
125.0749315068
 20
147.1051780822
 30
0.0
 11
125.0749315068
 21
143.1051780822
 31
0.0
  0
LINE
  5
101
330
1F
100
AcDbEntity
  8
0
  6
Continuous
 62
     7
370
    15
100
AcDbLine
 10
125.0749315068
 20
143.1051780822
 30
0.0
 11
123.0749315068
 21
143.1051780822
 31
0.0
  0
LINE
  5
102
330
1F
100
AcDbEntity
  8
0
  6
Continuous
 62
     7
370
    15
100
AcDbLine
 10
107.0749315068
 20
143.1051780822
 30
0.0
 11
91.0749315068
 21
143.1051780822
 31
0.0
  0
LINE
  5
103
330
1F
100
AcDbEntity
  8
0
  6
Continuous
 62
     7
370
    15
100
AcDbLine
 10
91.0749315068
 20
147.1051780822
 30
0.0
 11
91.0749315068
 21
143.1051780822
 31
0.0
  0
LINE
  5
104
330
1F
100
AcDbEntity
  8
0
  6
Continuous
 62
     7
370
    15
100
AcDbLine
 10
123.0749315068
 20
147.1051780822
 30
0.0
 11
91.0749315068
 21
147.1051780822
 31
0.0
  0
LINE
  5
105
330
1F
100
AcDbEntity
  8
0
  6
Continuous
 62
     7
370
    15
100
AcDbLine
 10
123.0749315068
 20
143.1051780822
 30
0.0
 11
107.0749315068
 21
143.1051780822
 31
0.0
  0
LINE
  5
106
330
1F
100
AcDbEntity
  8
0
  6
Continuous
 62
     7
370
    15
100
AcDbLine
 10
89.0749315068
 20
143.1051780822
 30
0.0
 11
89.0749315068
 21
147.1051780822
 31
0.0
  0
LINE
  5
107
330
1F
100
AcDbEntity
  8
0
  6
Continuous
 62
     7
370
    15
100
AcDbLine
 10
89.0749315068
 20
147.1051780822
 30
0.0
 11
91.0749315068
 21
147.1051780822
 31
0.0
  0
LINE
  5
108
330
1F
100
AcDbEntity
  8
0
  6
Continuous
 62
     7
370
    15
100
AcDbLine
 10
91.0749315068
 20
143.1051780822
 30
0.0
 11
89.0749315068
 21
143.1051780822
 31
0.0
  0
LINE
  5
109
330
1F
100
AcDbEntity
  8
0
  6
Continuous
 62
     7
370
    15
100
AcDbLine
 10
121.0749315068
 20
139.1051780822
 30
0.0
 11
93.0749315068
 21
139.1051780822
 31
0.0
  0
LINE
  5
10A
330
1F
100
AcDbEntity
  8
0
  6
HIDDEN
 62
     7
370
     0
100
AcDbLine
 10
115.0749315068
 20
147.1051780822
 30
0.0
 11
115.0749315068
 21
143.1051780822
 31
0.0
  0
LINE
  5
10B
330
1F
100
AcDbEntity
  8
0
  6
HIDDEN
 62
     7
370
     0
100
AcDbLine
 10
99.0749315068
 20
143.1051780822
 30
0.0
 11
99.0749315068
 21
147.1051780822
 31
0.0
  0
LINE
  5
10C
330
1F
100
AcDbEntity
  8
0
  6
HIDDEN
 62
     7
370
     0
100
AcDbLine
 10
117.8749315068
 20
139.1051780822
 30
0.0
 11
117.8749315068
 21
147.1051780822
 31
0.0
  0
LINE
  5
10D
330
1F
100
AcDbEntity
  8
0
  6
HIDDEN
 62
     7
370
     0
100
AcDbLine
 10
96.2749315068
 20
147.1051780822
 30
0.0
 11
96.2749315068
 21
139.1051780822
 31
0.0
  0
DIMENSION
  5
10E
330
1F
100
AcDbEntity
  8
0
  6
Continuous
 62
     7
370
     0
100
AcDbDimension
  2
*D9
 10
137.704996338
 20
147.1051780822
 30
0.0
 11
137.704996338
 21
143.1389994997
 31
0.0
 70
   160
 71
     2
 42
-1.0
  3
SLDDIMSTYLE2
100
AcDbAlignedDimension
 13
121.0749315068
 23
139.1051780822
 33
0.0
 14
125.0749315068
 24
147.1051780822
 34
0.0
 50
90.0
100
AcDbRotatedDimension
  0
DIMENSION
  5
11B
330
1F
100
AcDbEntity
  8
0
  6
Continuous
 62
     7
370
     0
100
AcDbDimension
  2
*D10
 10
130.0963391307
 20
143.1051780822
 30
0.0
 11
130.0963391307
 21
154.4984032176
 31
0.0
 70
   160
 71
     2
 42
-1.0
  3
SLDDIMSTYLE2
100
AcDbAlignedDimension
 13
125.0749315068
 23
147.1051780822
 33
0.0
 14
125.0749315068
 24
143.1051780822
 34
0.0
 50
90.0
100
AcDbRotatedDimension
  0
DIMENSION
  5
127
330
1F
100
AcDbEntity
  8
0
  6
Continuous
 62
     7
370
     0
100
AcDbDimension
  2
*D11
 10
121.0749315068
 20
127.2887174475
 30
0.0
 11
106.6772743397
 21
127.2887174475
 31
0.0
 70
   160
  1
%%c<>
 71
     2
 42
-1.0
  3
SLDDIMSTYLE0
100
AcDbAlignedDimension
 13
93.0749315068
 23
139.1051780822
 33
0.0
 14
121.0749315068
 24
139.1051780822
 34
0.0
100
AcDbRotatedDimension
  0
LINE
  5
132
330
1F
100
AcDbEntity
  8
0
  6
HIDDEN
 62
     7
370
     0
100
AcDbLine
 10
95.0749315068
 20
139.1051780822
 30
0.0
 11
95.0749315068
 21
147.1051780822
 31
0.0
  0
LINE
  5
133
330
1F
100
AcDbEntity
  8
0
  6
HIDDEN
 62
     7
370
     0
100
AcDbLine
 10
119.0749315068
 20
139.1051780822
 30
0.0
 11
119.0749315068
 21
147.1051780822
 31
0.0
  0
LINE
  5
134
330
1F
100
AcDbEntity
  8
0
  6
HIDDEN
 62
     7
370
     0
100
AcDbLine
 10
119.0749315068
 20
147.1051780822
 30
0.0
 11
95.0749315068
 21
147.1051780822
 31
0.0
  0
LINE
  5
135
330
1F
100
AcDbEntity
  8
0
  6
CENTERX2
 62
     7
370
     0
100
AcDbLine
 10
107.0749315068
 20
149.1051780822
 30
0.0
 11
107.0749315068
 21
137.1051780822
 31
0.0
  0
ENDSEC
  0
SECTION
  2
OBJECTS
  0
DICTIONARY
  5
C
330
0
100
AcDbDictionary
281
     1
  3
ACAD_GROUP
350
D
  3
ACAD_LAYOUT
350
1A
  3
ACAD_MLEADERSTYLE
350
138
  3
ACAD_MLINESTYLE
350
17
  3
ACAD_PLOTSETTINGS
350
19
  3
ACAD_PLOTSTYLENAME
350
E
  3
ACAD_SCALELIST
350
65
  3
ACAD_VISUALSTYLE
350
2A
  3
AcDbVariableDictionary
350
136
  0
DICTIONARY
  5
D
102
{ACAD_REACTORS
330
C
102
}
330
C
100
AcDbDictionary
281
     1
  0
DICTIONARY
  5
1A
102
{ACAD_REACTORS
330
C
102
}
330
C
100
AcDbDictionary
281
     1
  3
Layout1
350
1E
  3
Layout2
350
26
  3
Model
350
22
  0
DICTIONARY
  5
138
102
{ACAD_REACTORS
330
C
102
}
330
C
100
AcDbDictionary
281
     1
  0
DICTIONARY
  5
17
102
{ACAD_REACTORS
330
C
102
}
330
C
100
AcDbDictionary
281
     1
  3
Standard
350
18
  0
DICTIONARY
  5
19
102
{ACAD_REACTORS
330
C
102
}
330
C
100
AcDbDictionary
281
     1
  0
ACDBDICTIONARYWDFLT
  5
E
102
{ACAD_REACTORS
330
C
102
}
330
C
100
AcDbDictionary
281
     1
  3
Normal
350
F
100
AcDbDictionaryWithDefault
340
F
  0
DICTIONARY
  5
65
102
{ACAD_REACTORS
330
C
102
}
330
C
100
AcDbDictionary
281
     1
  3
A0
350
66
  3
A1
350
67
  3
A2
350
68
  3
A3
350
69
  3
A4
350
6A
  3
A5
350
6B
  3
A6
350
6C
  3
A7
350
6D
  3
A8
350
6E
  3
A9
350
6F
  3
B0
350
70
  3
B1
350
71
  3
B2
350
72
  3
B3
350
73
  3
B4
350
74
  3
B5
350
75
  3
B6
350
76
  3
B7
350
77
  3
B8
350
78
  3
B9
350
79
  3
C0
350
7A
  3
C1
350
7B
  3
C2
350
7C
  3
C3
350
7D
  3
C4
350
7E
  3
C5
350
7F
  3
C6
350
80
  3
C7
350
81
  3
C8
350
82
  3
C9
350
83
  3
D0
350
84
  3
D1
350
85
  3
D2
350
86
  0
DICTIONARY
  5
2A
102
{ACAD_REACTORS
330
C
102
}
330
C
100
AcDbDictionary
281
     1
  3
2dWireframe
350
2F
  3
3D Hidden
350
31
  3
3dWireframe
350
30
  3
Basic
350
32
  3
Brighten
350
36
  3
ColorChange
350
3A
  3
Conceptual
350
34
  3
Dim
350
35
  3
Facepattern
350
39
  3
Flat
350
2B
  3
FlatWithEdges
350
2C
  3
Gouraud
350
2D
  3
GouraudWithEdges
350
2E
  3
Linepattern
350
38
  3
Realistic
350
33
  3
Thicken
350
37
  0
DICTIONARY
  5
136
102
{ACAD_REACTORS
330
C
102
}
330
C
100
AcDbDictionary
281
     1
  3
CANNOSCALE
350
13B
  3
DIMASSOC
350
13C
  3
HIDETEXT
350
13D
  3
PSOLHEIGHT
350
13A
  3
PSOLWIDTH
350
139
  0
LAYOUT
  5
1E
102
{ACAD_REACTORS
330
1A
102
}
330
1A
100
AcDbPlotSettings
  1

  2
none_device
  4

  6

 40
0.0
 41
0.0
 42
0.0
 43
0.0
 44
0.0
 45
0.0
 46
0.0
 47
0.0
 48
0.0
 49
0.0
140
0.0
141
0.0
142
1.0
143
1.0
 70
   688
 72
     0
 73
     0
 74
     5
  7

 75
    16
147
1.0
148
0.0
149
0.0
100
AcDbLayout
  1
Layout1
 70
     1
 71
     1
 10
0.0
 20
0.0
 11
420.0
 21
297.0
 12
0.0
 22
0.0
 32
0.0
 14
1.0000000000E+20
 24
1.0000000000E+20
 34
1.0000000000E+20
 15
-1.0000000000E+20
 25
-1.0000000000E+20
 35
-1.0000000000E+20
146
0.0
 13
0.0
 23
0.0
 33
0.0
 16
1.0
 26
0.0
 36
0.0
 17
0.0
 27
1.0
 37
0.0
 76
     0
330
1B
  0
LAYOUT
  5
26
102
{ACAD_REACTORS
330
1A
102
}
330
1A
100
AcDbPlotSettings
  1

  2
none_device
  4

  6

 40
0.0
 41
0.0
 42
0.0
 43
0.0
 44
0.0
 45
0.0
 46
0.0
 47
0.0
 48
0.0
 49
0.0
140
0.0
141
0.0
142
1.0
143
1.0
 70
   688
 72
     0
 73
     0
 74
     5
  7

 75
    16
147
1.0
148
0.0
149
0.0
100
AcDbLayout
  1
Layout2
 70
     1
 71
     2
 10
0.0
 20
0.0
 11
0.0
 21
0.0
 12
0.0
 22
0.0
 32
0.0
 14
0.0
 24
0.0
 34
0.0
 15
0.0
 25
0.0
 35
0.0
146
0.0
 13
0.0
 23
0.0
 33
0.0
 16
1.0
 26
0.0
 36
0.0
 17
0.0
 27
1.0
 37
0.0
 76
     0
330
23
  0
LAYOUT
  5
22
102
{ACAD_REACTORS
330
1A
102
}
330
1A
100
AcDbPlotSettings
  1

  2
none_device
  4

  6

 40
0.0
 41
0.0
 42
0.0
 43
0.0
 44
0.0
 45
0.0
 46
0.0
 47
0.0
 48
0.0
 49
0.0
140
0.0
141
0.0
142
1.0
143
1.0
 70
  1712
 72
     0
 73
     0
 74
     0
  7

 75
     0
147
1.0
148
0.0
149
0.0
100
AcDbLayout
  1
Model
 70
     1
 71
     0
 10
0.0
 20
0.0
 11
210.0
 21
297.0
 12
0.0
 22
0.0
 32
0.0
 14
0.0
 24
0.0
 34
0.0
 15
210.0
 25
297.0
 35
0.0
146
0.0
 13
0.0
 23
0.0
 33
0.0
 16
1.0
 26
0.0
 36
0.0
 17
0.0
 27
1.0
 37
0.0
 76
     0
330
1F
331
29
  0
MLINESTYLE
  5
18
102
{ACAD_REACTORS
330
17
102
}
330
17
100
AcDbMlineStyle
  2
Standard
 70
     0
  3

 62
   256
 51
90.0
 52
90.0
 71
     2
 49
0.5
 62
   256
  6
BYLAYER
 49
-0.5
 62
   256
  6
BYLAYER
  0
ACDBPLACEHOLDER
  5
F
102
{ACAD_REACTORS
330
E
102
}
330
E
  0
SCALE
  5
66
102
{ACAD_REACTORS
330
65
102
}
330
65
100
AcDbScale
 70
     0
300
1:1
140
1.0
141
1.0
290
     1
  0
SCALE
  5
67
102
{ACAD_REACTORS
330
65
102
}
330
65
100
AcDbScale
 70
     0
300
1:2
140
1.0
141
2.0
290
     0
  0
SCALE
  5
68
102
{ACAD_REACTORS
330
65
102
}
330
65
100
AcDbScale
 70
     0
300
1:4
140
1.0
141
4.0
290
     0
  0
SCALE
  5
69
102
{ACAD_REACTORS
330
65
102
}
330
65
100
AcDbScale
 70
     0
300
1:5
140
1.0
141
5.0
290
     0
  0
SCALE
  5
6A
102
{ACAD_REACTORS
330
65
102
}
330
65
100
AcDbScale
 70
     0
300
1:8
140
1.0
141
8.0
290
     0
  0
SCALE
  5
6B
102
{ACAD_REACTORS
330
65
102
}
330
65
100
AcDbScale
 70
     0
300
1:10
140
1.0
141
10.0
290
     0
  0
SCALE
  5
6C
102
{ACAD_REACTORS
330
65
102
}
330
65
100
AcDbScale
 70
     0
300
1:16
140
1.0
141
16.0
290
     0
  0
SCALE
  5
6D
102
{ACAD_REACTORS
330
65
102
}
330
65
100
AcDbScale
 70
     0
300
1:20
140
1.0
141
20.0
290
     0
  0
SCALE
  5
6E
102
{ACAD_REACTORS
330
65
102
}
330
65
100
AcDbScale
 70
     0
300
1:30
140
1.0
141
30.0
290
     0
  0
SCALE
  5
6F
102
{ACAD_REACTORS
330
65
102
}
330
65
100
AcDbScale
 70
     0
300
1:40
140
1.0
141
40.0
290
     0
  0
SCALE
  5
70
102
{ACAD_REACTORS
330
65
102
}
330
65
100
AcDbScale
 70
     0
300
1:50
140
1.0
141
50.0
290
     0
  0
SCALE
  5
71
102
{ACAD_REACTORS
330
65
102
}
330
65
100
AcDbScale
 70
     0
300
1:100
140
1.0
141
100.0
290
     0
  0
SCALE
  5
72
102
{ACAD_REACTORS
330
65
102
}
330
65
100
AcDbScale
 70
     0
300
2:1
140
2.0
141
1.0
290
     0
  0
SCALE
  5
73
102
{ACAD_REACTORS
330
65
102
}
330
65
100
AcDbScale
 70
     0
300
4:1
140
4.0
141
1.0
290
     0
  0
SCALE
  5
74
102
{ACAD_REACTORS
330
65
102
}
330
65
100
AcDbScale
 70
     0
300
8:1
140
8.0
141
1.0
290
     0
  0
SCALE
  5
75
102
{ACAD_REACTORS
330
65
102
}
330
65
100
AcDbScale
 70
     0
300
10:1
140
10.0
141
1.0
290
     0
  0
SCALE
  5
76
102
{ACAD_REACTORS
330
65
102
}
330
65
100
AcDbScale
 70
     0
300
100:1
140
100.0
141
1.0
290
     0
  0
SCALE
  5
77
102
{ACAD_REACTORS
330
65
102
}
330
65
100
AcDbScale
 70
     0
300
1/128" = 1'-0"
140
0.0078125
141
12.0
290
     0
  0
SCALE
  5
78
102
{ACAD_REACTORS
330
65
102
}
330
65
100
AcDbScale
 70
     0
300
1/64" = 1'-0"
140
0.015625
141
12.0
290
     0
  0
SCALE
  5
79
102
{ACAD_REACTORS
330
65
102
}
330
65
100
AcDbScale
 70
     0
300
1/32" = 1'-0"
140
0.03125
141
12.0
290
     0
  0
SCALE
  5
7A
102
{ACAD_REACTORS
330
65
102
}
330
65
100
AcDbScale
 70
     0
300
1/16" = 1'-0"
140
0.0625
141
12.0
290
     0
  0
SCALE
  5
7B
102
{ACAD_REACTORS
330
65
102
}
330
65
100
AcDbScale
 70
     0
300
3/32" = 1'-0"
140
0.09375
141
12.0
290
     0
  0
SCALE
  5
7C
102
{ACAD_REACTORS
330
65
102
}
330
65
100
AcDbScale
 70
     0
300
1/8" = 1'-0"
140
0.125
141
12.0
290
     0
  0
SCALE
  5
7D
102
{ACAD_REACTORS
330
65
102
}
330
65
100
AcDbScale
 70
     0
300
3/16" = 1'-0"
140
0.1875
141
12.0
290
     0
  0
SCALE
  5
7E
102
{ACAD_REACTORS
330
65
102
}
330
65
100
AcDbScale
 70
     0
300
1/4" = 1'-0"
140
0.25
141
12.0
290
     0
  0
SCALE
  5
7F
102
{ACAD_REACTORS
330
65
102
}
330
65
100
AcDbScale
 70
     0
300
3/8" = 1'-0"
140
0.375
141
12.0
290
     0
  0
SCALE
  5
80
102
{ACAD_REACTORS
330
65
102
}
330
65
100
AcDbScale
 70
     0
300
1/2" = 1'-0"
140
0.5
141
12.0
290
     0
  0
SCALE
  5
81
102
{ACAD_REACTORS
330
65
102
}
330
65
100
AcDbScale
 70
     0
300
3/4" = 1'-0"
140
0.75
141
12.0
290
     0
  0
SCALE
  5
82
102
{ACAD_REACTORS
330
65
102
}
330
65
100
AcDbScale
 70
     0
300
1" = 1'-0"
140
1.0
141
12.0
290
     0
  0
SCALE
  5
83
102
{ACAD_REACTORS
330
65
102
}
330
65
100
AcDbScale
 70
     0
300
1-1/2" = 1'-0"
140
1.5
141
12.0
290
     0
  0
SCALE
  5
84
102
{ACAD_REACTORS
330
65
102
}
330
65
100
AcDbScale
 70
     0
300
3" = 1'-0"
140
3.0
141
12.0
290
     0
  0
SCALE
  5
85
102
{ACAD_REACTORS
330
65
102
}
330
65
100
AcDbScale
 70
     0
300
6" = 1'-0"
140
6.0
141
12.0
290
     0
  0
SCALE
  5
86
102
{ACAD_REACTORS
330
65
102
}
330
65
100
AcDbScale
 70
     0
300
1'-0" = 1'-0"
140
12.0
141
12.0
290
     0
  0
VISUALSTYLE
  5
2F
102
{ACAD_REACTORS
330
2A
102
}
330
2A
100
AcDbVisualStyle
  2
2dWireframe
 70
     4
 71
     0
 72
     2
 73
     0
 90
        0
 40
-0.6
 41
-30.0
 62
     5
 63
     7
 74
     1
 91
        4
 64
     7
 65
   257
 75
     1
175
     1
 42
1.0
 92
        0
 66
   257
 43
1.0
 76
     1
 77
     6
 78
     2
 67
     7
 79
     5
170
     0
171
     0
290
     0
174
     0
 93
        1
 44
0.0
173
     0
291
     0
 45
0.0
1001
ACAD
1000
AcDbSavedByObjectVersion
1070
     0
  0
VISUALSTYLE
  5
31
102
{ACAD_REACTORS
330
2A
102
}
330
2A
100
AcDbVisualStyle
  2
3D Hidden
 70
     6
 71
     1
 72
     2
 73
     2
 90
        0
 40
-0.6
 41
-30.0
 62
     5
 63
     7
 74
     2
 91
        2
 64
     7
 65
   257
 75
     2
175
     1
 42
40.0
 92
        0
 66
   257
 43
1.0
 76
     1
 77
     6
 78
     2
 67
     7
 79
     3
170
     0
171
     0
290
     0
174
     0
 93
        1
 44
0.0
173
     0
291
     0
 45
0.0
1001
ACAD
1000
AcDbSavedByObjectVersion
1070
     0
  0
VISUALSTYLE
  5
30
102
{ACAD_REACTORS
330
2A
102
}
330
2A
100
AcDbVisualStyle
  2
3dWireframe
 70
     5
 71
     0
 72
     2
 73
     0
 90
        0
 40
-0.6
 41
-30.0
 62
     5
 63
     7
 74
     1
 91
        4
 64
     7
 65
   257
 75
     1
175
     1
 42
1.0
 92
        0
 66
   257
 43
1.0
 76
     1
 77
     6
 78
     2
 67
     7
 79
     5
170
     0
171
     0
290
     0
174
     0
 93
        1
 44
0.0
173
     0
291
     0
 45
0.0
1001
ACAD
1000
AcDbSavedByObjectVersion
1070
     0
  0
VISUALSTYLE
  5
32
102
{ACAD_REACTORS
330
2A
102
}
330
2A
100
AcDbVisualStyle
  2
Basic
 70
     7
 71
     1
 72
     0
 73
     1
 90
        0
 40
-0.6
 41
-30.0
 62
     5
 63
     7
 74
     0
 91
        4
 64
     7
 65
   257
 75
     1
175
     1
 42
1.0
 92
        8
 66
     7
 43
1.0
 76
     1
 77
     6
 78
     2
 67
     7
 79
     5
170
     0
171
     0
290
     0
174
     0
 93
        1
 44
0.0
173
     0
291
     1
 45
0.0
1001
ACAD
1000
AcDbSavedByObjectVersion
1070
     0
  0
VISUALSTYLE
  5
36
102
{ACAD_REACTORS
330
2A
102
}
330
2A
100
AcDbVisualStyle
  2
Brighten
 70
    12
 71
     2
 72
     2
 73
     0
 90
        0
 40
-0.6
 41
-30.0
 62
     5
 63
     7
 74
     1
 91
        4
 64
     7
 65
   257
 75
     1
175
     1
 42
1.0
 92
        8
 66
     7
 43
1.0
 76
     1
 77
     6
 78
     2
 67
     7
 79
     5
170
     0
171
     0
290
     0
174
     0
 93
        1
 44
50.0
173
     0
291
     1
 45
0.0
1001
ACAD
1000
AcDbSavedByObjectVersion
1070
     0
  0
VISUALSTYLE
  5
3A
102
{ACAD_REACTORS
330
2A
102
}
330
2A
100
AcDbVisualStyle
  2
ColorChange
 70
    16
 71
     2
 72
     2
 73
     3
 90
        0
 40
-0.6
 41
-30.0
 62
     5
 63
     8
 74
     1
 91
        4
 64
     7
 65
   257
 75
     1
175
     1
 42
1.0
 92
        8
 66
     8
 43
1.0
 76
     1
 77
     6
 78
     2
 67
     7
 79
     5
170
     0
171
     0
290
     0
174
     0
 93
        1
 44
0.0
173
     0
291
     1
 45
0.0
1001
ACAD
1000
AcDbSavedByObjectVersion
1070
     0
  0
VISUALSTYLE
  5
34
102
{ACAD_REACTORS
330
2A
102
}
330
2A
100
AcDbVisualStyle
  2
Conceptual
 70
     9
 71
     3
 72
     2
 73
     0
 90
        0
 40
-0.6
 41
-30.0
 62
     5
 63
     7
 74
     2
 91
        2
 64
     7
 65
   257
 75
     1
175
     1
 42
40.0
 92
        8
 66
     7
 43
1.0
 76
     1
 77
     6
 78
     2
 67
     7
 79
     3
170
     0
171
     0
290
     0
174
     0
 93
        1
 44
0.0
173
     0
291
     0
 45
0.0
1001
ACAD
1000
AcDbSavedByObjectVersion
1070
     0
  0
VISUALSTYLE
  5
35
102
{ACAD_REACTORS
330
2A
102
}
330
2A
100
AcDbVisualStyle
  2
Dim
 70
    11
 71
     2
 72
     2
 73
     0
 90
        0
 40
-0.6
 41
-30.0
 62
     5
 63
     7
 74
     1
 91
        4
 64
     7
 65
   257
 75
     1
175
     1
 42
1.0
 92
        8
 66
     7
 43
1.0
 76
     1
 77
     6
 78
     2
 67
     7
 79
     5
170
     0
171
     0
290
     0
174
     0
 93
        1
 44
-50.0
173
     0
291
     1
 45
0.0
1001
ACAD
1000
AcDbSavedByObjectVersion
1070
     0
  0
VISUALSTYLE
  5
39
102
{ACAD_REACTORS
330
2A
102
}
330
2A
100
AcDbVisualStyle
  2
Facepattern
 70
    15
 71
     2
 72
     2
 73
     0
 90
        0
 40
-0.6
 41
-30.0
 62
     5
 63
     7
 74
     1
 91
        4
 64
     7
 65
   257
 75
     1
175
     1
 42
1.0
 92
        8
 66
     7
 43
1.0
 76
     1
 77
     6
 78
     2
 67
     7
 79
     5
170
     0
171
     0
290
     0
174
     0
 93
        1
 44
0.0
173
     0
291
     1
 45
0.0
1001
ACAD
1000
AcDbSavedByObjectVersion
1070
     0
  0
VISUALSTYLE
  5
2B
102
{ACAD_REACTORS
330
2A
102
}
330
2A
100
AcDbVisualStyle
  2
Flat
 70
     0
 71
     2
 72
     1
 73
     1
 90
        2
 40
-0.6
 41
30.0
 62
     5
 63
     7
 74
     0
 91
        4
 64
     7
 65
   257
 75
     1
175
     1
 42
1.0
 92
        8
 66
     7
 43
1.0
 76
     1
 77
     6
 78
     2
 67
     7
 79
     5
170
     0
171
     0
290
     0
174
     0
 93
       13
 44
0.0
173
     0
291
     1
 45
0.0
1001
ACAD
1000
AcDbSavedByObjectVersion
1070
     0
  0
VISUALSTYLE
  5
2C
102
{ACAD_REACTORS
330
2A
102
}
330
2A
100
AcDbVisualStyle
  2
FlatWithEdges
 70
     1
 71
     2
 72
     1
 73
     1
 90
        2
 40
-0.6
 41
30.0
 62
     5
 63
     7
 74
     1
 91
        4
 64
     7
 65
   257
 75
     1
175
     1
 42
1.0
 92
        0
 66
   257
 43
1.0
 76
     1
 77
     6
 78
     2
 67
     7
 79
     5
170
     0
171
     0
290
     0
174
     0
 93
       13
 44
0.0
173
     0
291
     1
 45
0.0
1001
ACAD
1000
AcDbSavedByObjectVersion
1070
     0
  0
VISUALSTYLE
  5
2D
102
{ACAD_REACTORS
330
2A
102
}
330
2A
100
AcDbVisualStyle
  2
Gouraud
 70
     2
 71
     2
 72
     2
 73
     1
 90
        2
 40
-0.6
 41
30.0
 62
     5
 63
     7
 74
     0
 91
        4
 64
     7
 65
   257
 75
     1
175
     1
 42
1.0
 92
        0
 66
     7
 43
1.0
 76
     1
 77
     6
 78
     2
 67
     7
 79
     5
170
     0
171
     0
290
     0
174
     0
 93
       13
 44
0.0
173
     0
291
     1
 45
0.0
1001
ACAD
1000
AcDbSavedByObjectVersion
1070
     0
  0
VISUALSTYLE
  5
2E
102
{ACAD_REACTORS
330
2A
102
}
330
2A
100
AcDbVisualStyle
  2
GouraudWithEdges
 70
     3
 71
     2
 72
     2
 73
     1
 90
        2
 40
-0.6
 41
30.0
 62
     5
 63
     7
 74
     1
 91
        4
 64
     7
 65
   257
 75
     1
175
     1
 42
1.0
 92
        0
 66
   257
 43
1.0
 76
     1
 77
     6
 78
     2
 67
     7
 79
     5
170
     0
171
     0
290
     0
174
     0
 93
       13
 44
0.0
173
     0
291
     1
 45
0.0
1001
ACAD
1000
AcDbSavedByObjectVersion
1070
     0
  0
VISUALSTYLE
  5
38
102
{ACAD_REACTORS
330
2A
102
}
330
2A
100
AcDbVisualStyle
  2
Linepattern
 70
    14
 71
     2
 72
     2
 73
     0
 90
        0
 40
-0.6
 41
-30.0
 62
     5
 63
     7
 74
     1
 91
        4
 64
     7
 65
   257
 75
     7
175
     7
 42
1.0
 92
        8
 66
     7
 43
1.0
 76
     1
 77
     6
 78
     2
 67
     7
 79
     5
170
     0
171
     0
290
     0
174
     0
 93
        1
 44
0.0
173
     0
291
     1
 45
0.0
1001
ACAD
1000
AcDbSavedByObjectVersion
1070
     0
  0
VISUALSTYLE
  5
33
102
{ACAD_REACTORS
330
2A
102
}
330
2A
100
AcDbVisualStyle
  2
Realistic
 70
     8
 71
     2
 72
     2
 73
     0
 90
        0
 40
-0.6
 41
-30.0
 62
     5
 63
     7
 74
     1
 91
        0
 64
     7
 65
   257
 75
     1
175
     1
 42
1.0
 92
        8
 66
     8
 43
1.0
 76
     1
 77
     6
 78
     2
 67
     7
 79
     5
170
     0
171
     0
290
     0
174
     0
 93
       13
 44
0.0
173
     0
291
     0
 45
0.0
1001
ACAD
1000
AcDbSavedByObjectVersion
1070
     0
  0
VISUALSTYLE
  5
37
102
{ACAD_REACTORS
330
2A
102
}
330
2A
100
AcDbVisualStyle
  2
Thicken
 70
    13
 71
     2
 72
     2
 73
     0
 90
        0
 40
-0.6
 41
-30.0
 62
     5
 63
     7
 74
     1
 91
        4
 64
     7
 65
   257
 75
     1
175
     1
 42
1.0
 92
       12
 66
     7
 43
1.0
 76
     1
 77
     6
 78
     2
 67
     7
 79
     5
170
     0
171
     0
290
     0
174
     0
 93
        1
 44
0.0
173
     0
291
     1
 45
0.0
1001
ACAD
1000
AcDbSavedByObjectVersion
1070
     0
  0
DICTIONARYVAR
  5
13B
102
{ACAD_REACTORS
330
136
102
}
330
136
100
DictionaryVariables
280
     0
  1
1:1
  0
DICTIONARYVAR
  5
13C
102
{ACAD_REACTORS
330
136
102
}
330
136
100
DictionaryVariables
280
     0
  1
2
  0
DICTIONARYVAR
  5
13D
102
{ACAD_REACTORS
330
136
102
}
330
136
100
DictionaryVariables
280
     0
  1
1
  0
DICTIONARYVAR
  5
13A
102
{ACAD_REACTORS
330
136
102
}
330
136
100
DictionaryVariables
280
     0
  1
80.000000
  0
DICTIONARYVAR
  5
139
102
{ACAD_REACTORS
330
136
102
}
330
136
100
DictionaryVariables
280
     0
  1
5.000000
  0
ENDSEC
  0
EOF
