%
T1C.01F095S3
X114529Y111514
X114529Y112302
X114923Y112302
X114923Y111908
X115317Y111908
X115317Y112302
X115317Y111514
X11571Y112695
X11571Y112302
X116104Y112302
X116498Y112302
X117285Y112302
X11765Y112302
X118072Y112302
X120041Y111514
X120041Y112695
X120435Y112302
X120435Y111908
X120828Y111908
X120828Y112302
X120828Y111514
X120041Y113876
X120041Y113089
X120041Y113483
X120041Y11427
X119647Y11427
X11926Y11428
X11886Y11427
X11886Y115057
X11886Y11389
X118466Y115057
X118466Y113483
X118466Y11389
X118466Y11427
X118072Y113089
X118072Y113483
X118072Y11427
X118072Y115057
X11807Y11389
X11732Y11428
X11729Y11389
X11729Y11349
X117285Y115057
X117285Y113089
X1169Y11389
X116891Y115057
X116891Y11427
X11689Y11349
X1165Y11388
X1165Y11426
X116498Y113483
X116498Y115057
X116104Y113089
X115317Y113876
X115317Y113483
X115317Y115057
X115317Y11427
X11429Y11531
X1145Y11743
X114529Y116632
X114529Y116239
X114529Y115845
X114529Y117026
X114529Y117813
X114923Y116632
X114923Y116239
X114923Y117026
X114923Y117813
X114923Y11742
X11495Y11582
X115317Y116632
X115317Y115451
X115317Y11742
X115317Y117026
X115317Y115845
X115317Y116239
X115317Y117813
X11571Y11623
X11571Y117813
X11571Y11742
X11571Y117026
X116104Y11742
X116104Y117026
X116104Y117813
X116498Y117026
X116498Y117813
X116498Y11742
X1165Y11545
X11688Y11546
X116891Y117026
X116891Y115845
X116891Y11742
X117285Y11742
X117285Y117026
X117285Y115845
X11729Y11546
X11807Y11546
X118072Y117026
X118072Y11742
X118072Y115845
X118466Y11742
X118466Y117026
X118466Y115845
X11847Y11546
X11886Y117813
X11886Y117026
X11886Y116632
X11886Y11742
X11886Y115451
X119254Y116632
X119254Y11742
X119254Y117813
X119254Y117026
X119647Y116239
X119647Y116632
X119647Y11742
X119647Y117026
X119647Y117813
X120041Y116239
X120041Y11742
X120041Y117026
X120041Y117813
X120435Y117026
X120435Y116632
X120435Y11742
X120828Y117026
X120828Y117813
X120828Y115451
X13Y1396
T2C.012F095S3
X1042Y1026
X1044Y1016
X1058Y1004
X10593Y10196
X106Y10255
X106307Y101732
X107Y1004
X1082Y1004
X1094Y1004
X1106Y1004
X1116Y1004
X121Y1004
X122Y1004
X123Y1004
X124Y1004
X125Y1004
X126Y1004
X127Y1004
X12725Y10275
X128Y1004
X12815Y10245
X129Y1004
X13Y1004
X131Y1004
X13105Y1026
X1314Y1026
X132Y1004
X133Y1004
X134Y1004
X135Y1004
X136Y1004
X137Y1004
X138Y1004
X139Y1004
X1402Y1004
X1412Y1004
X1422Y1004
X1432Y1004
X1442Y1004
X1452Y1004
X1462Y1004
X1472Y1004
X1482Y1004
X1492Y1004
X1502Y1004
X1512Y1004
X1522Y1004
X1532Y1004
X1542Y1004
X1552Y1004
X1562Y1004
X1572Y1004
X1582Y1004
X1592Y1004
X15685Y1039
X1511Y1052
X1501Y1052
X1482Y1052
X14645Y1052
X1406Y1038
X1406Y1046
X1398Y1046
X1398Y1038
X139Y1038
X139Y1046
X1382Y1038
X1382Y1046
X135374Y103726
X133824Y104826
X133824Y104276
X12802Y10447
X12739Y10482
X12731Y10413
X1245Y10495
X12377Y10477
X12375Y10527
X11815Y104
X11815Y10335
X11715Y10405
X1168Y1036
X11615Y10405
X11415Y104
X11415Y1034
X106303Y104013
X105922Y103009
X10568Y1047
X10556Y10436
X10554Y10322
X10528Y10497
X104Y1036
X10359Y10539
X10325Y10764
X10341Y10654
X10467Y10685
X104965Y107888
X1052Y105973
X10547Y1066
X10642Y10546
X10675Y10755
X10709Y10732
X10743Y10674
X1089Y10597
X1091Y10782
X11066Y10756
X1131Y10655
X11335Y10615
X1136Y1065
X11403Y10693
X11405Y1078
X1147Y10655
X11495Y10625
X1152Y10655
X11565Y10695
X11565Y1078
X1161Y10735
X11615Y10555
X117Y1065
X11715Y10555
X11725Y10695
X1173Y1078
X11815Y10555
X11993Y10668
X12321Y10581
X1242Y1066
X12437Y1074
X12496Y10661
X12501Y10596
X12725Y10605
X12731Y1068
X12737Y10787
X128Y1065
X13105Y10555
X13105Y10755
X1314Y10555
X1314Y10755
X134024Y105426
X13405Y10585
X13578Y10584
X13586Y1055
X13666Y1065
X13672Y1072
X13771Y1061
X1381Y10785
X1382Y1054
X139Y1054
X1392Y10635
X1398Y1054
X1406Y1054
X1412Y10785
X1426Y1059
X1426Y10655
X14265Y10735
X1465Y10685
X1523Y1059
X15305Y1058
X156249Y108884
X15545Y10835
X15515Y1089
X15419Y108911
X15185Y1095
X1518Y10835
X1518Y11
X1494Y1087
X1427Y11025
X14265Y1079
X1426Y10955
X13914Y1098
X13799Y10959
X13675Y10815
X13655Y10961
X1314Y10955
X1314Y1086
X13105Y10955
X13105Y1086
X12825Y1085
X12765Y11025
X12733Y10881
X1273Y11
X1249Y10998
X12449Y10882
X12439Y10992
X124Y10895
X12389Y11008
X1236Y1087
X12325Y10835
X1168Y10825
X11671Y11013
X11625Y10825
X1162Y10965
X11585Y11015
X1152Y1082
X1147Y1082
X11435Y11005
X1136Y1082
X1131Y1082
X11273Y10997
X1125Y1096
X1121Y1096
X1091Y1099
X10703Y1088
X10703Y10814
X10703Y1094
X10703Y1091
X10702Y10972
X10702Y10847
X107Y11002
X10699Y11036
X10665Y1079
X104638Y108888
X104607Y109772
X10455Y10935
X10435Y1102
X10308Y10876
X1029Y10994
X10248Y1126
X10269Y11119
X104009Y112563
X1041Y11195
X104253Y110574
X104312Y111493
X1044Y11105
X104485Y112653
X1052Y11275
X105549Y112491
X1059Y11225
X10698Y11079
X107Y1116
X10702Y11225
X10703Y11195
X10703Y11127
X10703Y11289
X10703Y11255
X1091Y11245
X11355Y11228
X11358Y11269
X11366Y11169
X12256Y11221
X1234Y1114
X1237Y1124
X12402Y11131
X12505Y1111
X12516Y1117
X12725Y1121
X12728Y11079
X1276Y1124
X13405Y11287
X13437Y11262
X13648Y11045
X1365Y1109
X13804Y11156
X14115Y11155
X14122Y11062
X14265Y11155
X1499Y11185
X1506Y1113
X15075Y11055
X1515Y1119
X15375Y11145
X1542Y11185
X15575Y11355
X15475Y11355
X1331Y11459
X1331Y11426
X13285Y1153
X1314Y11355
X1314Y1146
X13105Y11355
X13105Y1146
X12746Y11389
X1274Y1149
X1274Y1143
X12688Y11462
X12646Y11312
X12645Y115
X1262Y1144
X12497Y11347
X1246Y1136
X1245Y11439
X12405Y11395
X12372Y11348
X11041Y11324
X11025Y11445
X10955Y11469
X1091Y1145
X10835Y11468
X1083Y11501
X10709Y11438
X10706Y11506
X10703Y11384
X10703Y1132
X10703Y11354
X1066Y1144
X1066Y11527
X10568Y115
X10513Y11419
X105Y1153
X10469Y11437
X103961Y11308
X1039Y11375
X10375Y11415
X103742Y114565
X10228Y11374
X1021Y11488
X10173Y11733
X10189Y11625
X103061Y117799
X103356Y116692
X10338Y116058
X103393Y117122
X103474Y117529
X103613Y115568
X10385Y11765
X10425Y1169
X1045Y11555
X10475Y11685
X1053Y11685
X10561Y11558
X10581Y11691
X10605Y1156
X1063Y1168
X10701Y11635
X1071Y1157
X10805Y11658
X10825Y1175
X1091Y11601
X11347Y11685
X121361Y116281
X1226Y11675
X12265Y1174
X12311Y11689
X12341Y11663
X1236Y1162
X12419Y11699
X1248Y11705
X1249Y1166
X12635Y11735
X1265Y1157
X1269Y11615
X12735Y11695
X12735Y1158
X12745Y11775
X12757Y11658
X12757Y11622
X13105Y11555
X1312Y11715
X1314Y1166
X1314Y11555
X13261Y11599
X14952Y11732
X14995Y11676
X1503Y11677
X15066Y11678
X15137Y11689
X15475Y1167
X15575Y11914
X15412Y11921
X15355Y11858
X1531Y11855
X15292Y11919
X1528Y1187
X1525Y1185
X15215Y11865
X1518Y1187
X15172Y11918
X15145Y1187
X15124Y11912
X151Y11865
X15083Y11901
X15027Y11878
X14992Y11913
X1314Y1186
X1314Y11955
X13105Y1186
X13105Y11955
X1276Y12025
X1276Y11855
X12735Y1199
X12732Y11805
X12725Y11875
X12655Y11803
X1258Y119
X124935Y119415
X12398Y11899
X12359Y11887
X12315Y11928
X12165Y1185
X12145Y1189
X1212Y11825
X1206Y1196
X11953Y11907
X11953Y12033
X11376Y1179
X11335Y1198
X1131Y1179
X11268Y11878
X11235Y1191
X11065Y1201
X10875Y11894
X1082Y1179
X1081Y11919
X10695Y1201
X1065Y11976
X1057Y11995
X1056Y1181
X10495Y11795
X10465Y1184
X1045Y118
X1039Y11815
X1038Y12
X103151Y118249
X103107Y11879
X103057Y119177
X102813Y120084
X10153Y11859
X10134Y12003
X10099Y12238
X10115Y12125
X102618Y121824
X102633Y122435
X102668Y121347
X10279Y120552
X10319Y1226
X103449Y12127
X10356Y12264
X1038Y12055
X10395Y12115
X10419Y1208
X10445Y1213
X10475Y12095
X10495Y1226
X10515Y12115
X10544Y12068
X10545Y12255
X10695Y12044
X10698Y12171
X10811Y12199
X1087Y12145
X1105Y1207
X11053Y12214
X1108Y12167
X1109Y12115
X11127Y12045
X1118Y12105
X11517Y12068
X11953Y12173
X1227Y12175
X12325Y12055
X12376Y12221
X1238Y12085
X12428Y121
X12541Y1221
X12541Y12177
X12541Y12245
X1268Y1219
X1268Y1225
X14997Y12144
X15036Y12141
X15068Y12143
X15094Y12162
X15115Y12115
X15148Y12169
X1515Y12115
X15205Y1214
X15225Y12115
X15254Y1225
X1526Y12125
X153Y1213
X15354Y12112
X15411Y12098
X15575Y1224
X15465Y1246
X15465Y12424
X15449Y12348
X15449Y12384
X15385Y12455
X15252Y1236
X15225Y1234
X15195Y1236
X15157Y12401
X1515Y1236
X1514Y1252
X15125Y123
X14902Y12446
X14843Y12422
X1268Y12495
X1268Y12405
X1268Y1234
X12545Y12535
X12541Y12425
X12541Y1237
X12541Y12327
X12377Y1237
X12375Y1252
X12269Y12325
X12268Y12469
X12156Y12504
X12092Y12485
X1173Y1251
X11705Y1248
X11167Y1233
X1087Y1231
X1065Y12346
X10555Y12409
X1049Y1251
X10468Y1229
X10435Y12515
X1041Y1229
X10384Y12496
X10289Y12401
X10286Y12314
X10264Y12292
X10248Y1252
X102281Y124779
X10225Y123419
X1008Y1236
X1006Y1246
X1004Y1266
X1004Y1256
X1004Y1276
X1019Y1277
X101915Y12711
X10215Y12652
X10218Y126152
X102186Y125458
X10245Y1259
X10275Y12639
X10316Y1268
X1034Y1254
X1037Y1256
X1038Y12685
X1042Y1269
X1047Y12685
X1052Y12545
X1052Y12755
X105571Y125518
X1105Y12565
X1119Y12615
X11225Y12555
X1124Y1262
X1127Y1259
X1129Y127485
X12131Y12639
X12225Y12595
X12584Y12548
X1325Y12625
X13416Y1272
X135Y12555
X1493Y1258
X15002Y12696
X1501Y12745
X15025Y12637
X15026Y12604
X1514Y1268
X15155Y1265
X15195Y12595
X1525Y1255
X15364Y12677
X15364Y12709
X15365Y1274
X15365Y12772
X15375Y12645
X15607Y12617
X15716Y12779
X15725Y12696
X15792Y12697
X15865Y12696
X15935Y127
X16011Y12695
X1613Y1258
X16044Y12825
X1604Y12938
X1599Y12945
X15935Y1293
X15933Y12863
X15889Y12964
X1583Y12875
X1576Y12865
X15725Y12865
X15629Y12878
X15375Y12805
X15195Y12835
X15142Y12876
X151348Y129749
X15022Y12913
X1501Y1286
X12362Y1301
X12331Y12955
X12292Y12929
X1213Y12975
X12105Y1293
X1208Y12975
X12055Y1293
X1203Y12975
X12005Y1293
X1198Y12975
X11955Y1293
X1193Y12975
X11895Y12945
X11855Y1293
X1177Y1293
X11725Y12925
X11705Y12955
X1129Y129
X11265Y13025
X11187Y12883
X11165Y13025
X1112Y1289
X1106Y1289
X1055Y12826
X10234Y12861
X10215Y12955
X101886Y12993
X101877Y128094
X101837Y128967
X1004Y1294
X1004Y1284
X1004Y1304
X1004Y1314
X1004Y1324
X1004Y1334
X1004Y1344
X10135Y13063
X1057Y13535
X1093Y13242
X1093Y13323
X1093Y13484
X1104Y132
X11045Y13365
X11045Y13435
X11055Y13105
X11085Y1325
X11135Y13095
X1121Y13135
X1124Y1306
X11747Y13085
X1198Y13425
X1231Y13085
X1355Y135
X1357Y1339
X13575Y1333
X13602Y135
X13715Y1333
X138Y1345
X1386Y13525
X139Y13525
X13959Y13424
X13995Y1342
X14095Y13465
X14224Y13495
X14225Y1344
X14264Y13495
X14265Y1344
X1513Y13435
X15135Y1353
X15135Y13495
X15195Y1338
X15256Y13054
X15268Y1318
X15268Y13212
X15363Y13279
X15364Y13244
X15367Y13496
X15367Y13465
X15371Y13402
X15371Y1337
X154Y1316
X154Y13082
X154Y13112
X15615Y13045
X157Y13167
X15495Y13643
X15494Y13732
X1538Y13622
X1538Y1356
X15365Y13591
X15364Y13692
X15242Y13547
X15195Y1364
X15194Y13787
X15135Y1356
X1506Y137204
X15015Y13655
X1501Y1359
X1501Y1362
X13988Y13567
X13971Y13596
X1377Y1356
X13575Y13675
X13525Y136
X13525Y13675
X13475Y136
X13475Y13675
X1086Y1368
X1068Y1375
X1057Y1371
X1004Y1374
X1004Y1354
X1004Y1364
X1004Y1384
X1004Y1394
X1004Y1404
X1004Y1414
X1004Y1424
X1057Y14065
X1057Y14245
X1063Y13995
X1068Y1428
X1068Y14105
X12555Y1424
X1266Y1426
X1304Y1384
X13192Y1393
X13194Y13894
X132Y1405
X1332Y1411
X1335Y14225
X13415Y1402
X13415Y1386
X14028Y14153
X1423Y14273
X1424Y14205
X1442Y1399
X14425Y1427
X14452Y13974
X1448Y14285
X14541Y14259
X14682Y14147
X1473Y14185
X14805Y14122
X14819Y14088
X14843Y14125
X1489Y14088
X14898Y14239
X14954Y14148
X1497Y13858
X14985Y14199
X1501Y14106
X15039Y13845
X15344Y13891
X15285Y144
X1523Y1455
X15225Y14395
X15115Y14405
X14995Y1449
X14965Y1453
X1493Y1452
X1463Y14675
X1446Y1467
X14455Y14715
X1435Y146
X14345Y1439
X14305Y1439
X1427Y14475
X14265Y1439
X1413Y1437
X1349Y1458
X1343Y14695
X1325Y145
X13175Y145
X1262Y1455
X1255Y1454
X12485Y14365
X1247Y14525
X1154Y1432
X1068Y1446
X1057Y14425
X1029Y14495
X1004Y1464
X1004Y1454
X1004Y1474
X1004Y1434
X1004Y1444
X1008Y148
X1016Y1488
X1024Y1496
X1036Y1496
X1046Y1496
X1056Y1496
X1066Y1496
X1076Y1496
X1086Y1496
X1096Y1496
X1106Y1496
X1116Y1496
X1126Y1496
X1136Y1496
X1146Y1496
X1156Y1496
X1166Y1496
X1176Y1496
X1186Y1496
X1196Y1496
X1206Y1496
X1216Y1496
X1226Y1496
X1236Y1496
X1246Y1496
X1256Y1496
X1266Y1496
X1276Y1496
X1286Y1496
X1296Y1496
X1306Y1496
X1316Y1496
X1326Y1496
X1336Y1496
X1346Y1496
X1356Y1496
X1366Y1496
X1376Y1496
X1386Y1496
X1396Y1496
X1406Y1496
X1416Y1496
X1426Y1496
X1436Y1496
X1446Y1496
X1456Y1496
X1466Y1496
X1476Y1496
X1486Y1496
X1496Y1496
X1506Y1496
X1516Y1496
X1526Y1496
X1536Y1496
X1546Y1496
X1556Y1496
X1566Y1496
X1576Y1496
X1586Y1496
X1596Y1496
X1606Y1496
X1616Y1496
X1626Y1496
T3C.01969F095S3
X158472Y109087
X158512Y109874
X159024Y109087
X159063Y109874
X159575Y109087
X159614Y109874
X160126Y109087
X160165Y109874
X160677Y109087
X160717Y109874
X161228Y109087
X161268Y109874
X16178Y109087
X161819Y109874
X162331Y109087
X16237Y109874
X162882Y109087
X162921Y109874
X162921Y111449
X162882Y110661
X162882Y112236
X16237Y111449
X162331Y110661
X162331Y112236
X161819Y111449
X16178Y110661
X16178Y112236
X161268Y111449
X161228Y110661
X161228Y112236
X160717Y111449
X160677Y110661
X160677Y112236
X160165Y111449
X160126Y110661
X160126Y112236
X159614Y111449
X159575Y110661
X159575Y112236
X159063Y111449
X159024Y110661
X159024Y112236
X158512Y111449
X158472Y110661
X158472Y112236
X158472Y113811
X158512Y113024
X158512Y114598
X159024Y113811
X159063Y113024
X159063Y114598
X159575Y113811
X159614Y113024
X159614Y114598
X160126Y113811
X160165Y113024
X160165Y114598
X160677Y113811
X160717Y113024
X160717Y114598
X161228Y113811
X161268Y113024
X161268Y114598
X16178Y113811
X161819Y113024
X161819Y114598
X162331Y113811
X16237Y113024
X16237Y114598
X162882Y113811
X162921Y113024
X162921Y114598
X162921Y119685
X162882Y118898
X16237Y119685
X162331Y118898
X161819Y119685
X16178Y118898
X161268Y119685
X161228Y118898
X160717Y119685
X160677Y118898
X160165Y119685
X160126Y118898
X159614Y119685
X159575Y118898
X159063Y119685
X159024Y118898
X158512Y119685
X158472Y118898
X158472Y120472
X158472Y122047
X158512Y12126
X158512Y122835
X159024Y120472
X159024Y122047
X159063Y12126
X159063Y122835
X159575Y122047
X159575Y120472
X159614Y122835
X159614Y12126
X160126Y120472
X160126Y122047
X160165Y122835
X160165Y12126
X160677Y120472
X160677Y122047
X160717Y12126
X160717Y122835
X161228Y122047
X161228Y120472
X161268Y122835
X161268Y12126
X16178Y120472
X16178Y122047
X161819Y12126
X161819Y122835
X162331Y120472
X162331Y122047
X16237Y12126
X16237Y122835
X162882Y122047
X162882Y120472
X162921Y122835
X162921Y12126
X162921Y124409
X162882Y123622
X16237Y124409
X162331Y123622
X161819Y124409
X16178Y123622
X161268Y124409
X161228Y123622
X160717Y124409
X160677Y123622
X160165Y124409
X160126Y123622
X159614Y124409
X159575Y123622
X159063Y124409
X159024Y123622
X158512Y124409
X158472Y123622
T4C.02953F197S55
X157819Y137407
X158607Y137407
X159394Y137407
X160969Y137407
X161756Y137407
X162544Y137407
X162544Y139769
X162544Y142131
X161756Y139769
X161756Y142131
X160969Y139769
X160969Y142131
X159394Y142131
X159394Y139769
X158607Y139769
X158607Y142131
X157819Y142131
X157819Y139769
T5C.0315F197S55
X12164Y10211
X12164Y102907
T6C.034F197S55
X1173Y1272
X1183Y1272
X1193Y1272
X1203Y1272
X1213Y1272
T7C.03543F197S55
X101646Y131665
X102646Y131665
X103646Y131665
X104646Y131665
X104646Y134028
X103646Y134028
X102646Y134028
X101646Y134028
T8C.04016F139S55
X107918Y107517
X107918Y122667
X151136Y122346
X151136Y137496
T9C.044F139S55
X101598Y137508
X101598Y135736
X101598Y136736
X104693Y146902
X103693Y146902
X102693Y146902
X101598Y141051
X101598Y142051
X101598Y142823
X101598Y144595
X101598Y143823
X101598Y13928
X101598Y145595
X101598Y138508
X101598Y14028
X102693Y147902
X103693Y147902
X104693Y147902
T10C.08268F074S55
X159Y138588
X16215Y14095
T11C.096F066S55
X1148Y1272
T12C.12795F035S794
X140677Y101623
X143433Y148395
T13C.14F035S9
X107795Y127559
X109843Y102362
X151181Y102362
X151181Y147638
T14C.15748F035S9
X156917Y145904
X159524Y145904
X16174Y145904
M30
