*
*
G04 PADS 9.3 Build Number: 433611 generated Gerber (RS-274-X) file*
G04 PC Version=2.1*
*
%IN "17-600551-100_REV_D1.pc"*%
*
%MOIN*%
*
%FSLAX35Y35*%
*
*
*
*
G04 PC Standard Apertures*
*
*
G04 Thermal Relief Aperture macro.*
%AMTER*
1,1,$1,0,0*
1,0,$1-$2,0,0*
21,0,$3,$4,0,0,45*
21,0,$3,$4,0,0,135*
%
*
*
G04 Annular Aperture macro.*
%AMANN*
1,1,$1,0,0*
1,0,$2,0,0*
%
*
*
G04 Odd Aperture macro.*
%AMODD*
1,1,$1,0,0*
1,0,$1-0.005,0,0*
%
*
*
G04 PC Custom Aperture Macros*
*
*
*
*
*
*
G04 PC Aperture Table*
*
%ADD010C,0.001*%
%ADD021R,0.07X0.07*%
%ADD022C,0.07*%
%ADD047C,0.065*%
%ADD061C,0.01*%
%ADD078C,0.005*%
%ADD355C,0.00039*%
%ADD373R,0.132X0.076*%
%ADD375C,0.045*%
%ADD376C,0.20185*%
%ADD377R,0.076X0.132*%
%ADD379R,0.06209X0.02311*%
%ADD380R,0.0302X0.105*%
%ADD381R,0.0302X0.19004*%
%ADD382C,0.101*%
%ADD383C,0.06406*%
%ADD384C,0.245*%
%ADD385R,0.07587X0.0302*%
%ADD386R,0.076X0.068*%
%ADD387R,0.06406X0.06406*%
%ADD388C,0.08768*%
%ADD389C,0.08374*%
%ADD390R,0.06406X0.08374*%
%ADD391R,0.04043X0.05224*%
%ADD392R,0.04043X0.04437*%
%ADD393R,0.105X0.045*%
%ADD394R,0.105X0.077*%
%ADD396C,0.13295*%
%ADD397C,0.04437*%
%ADD398R,0.06012X0.06012*%
%ADD399C,0.06012*%
%ADD401R,0.08965X0.0424*%
%ADD402R,0.08965X0.13295*%
%ADD405R,0.07587X0.09358*%
%ADD406R,0.05421X0.07587*%
%ADD407R,0.10146X0.09752*%
%ADD408R,0.06602X0.02862*%
%ADD410R,0.09358X0.09555*%
%ADD411R,0.02075X0.0424*%
%ADD413R,0.14004X0.07508*%
%ADD414R,0.02665X0.04831*%
%ADD415C,0.05516*%
%ADD418R,0.01681X0.06012*%
%ADD420R,0.07587X0.07587*%
%ADD421R,0.07272X0.06091*%
%ADD422R,0.06209X0.05224*%
%ADD423R,0.055X0.029*%
%ADD424R,0.04634X0.0365*%
%ADD425C,0.125*%
%ADD426R,0.10736X0.13098*%
%ADD427C,0.02272*%
%ADD428R,0.02272X0.07783*%
%ADD429R,0.04634X0.06209*%
%ADD430R,0.029X0.055*%
%ADD431R,0.10736X0.10736*%
%ADD433R,0.02075X0.06602*%
%ADD434R,0.05224X0.0739*%
%ADD435R,0.0365X0.0365*%
%ADD436R,0.05028X0.1113*%
%ADD437R,0.01287X0.06406*%
%ADD438R,0.0424X0.02075*%
%ADD439R,0.04437X0.0365*%
%ADD440R,0.0365X0.04437*%
%ADD441R,0.0424X0.04437*%
%ADD442R,0.04437X0.0424*%
%ADD444R,0.05028X0.06209*%
%ADD445R,0.08965X0.04437*%
%ADD446R,0.28453X0.2235*%
%ADD450R,0.07193X0.02665*%
%ADD451R,0.0739X0.05224*%
%ADD460R,0.07508X0.14004*%
%ADD467R,0.06X0.203*%
%ADD468R,0.08571X0.06602*%
*
*
*
*
G04 PC Circuitry*
G04 Layer Name 17-600551-100_REV_D1.pc - circuitry*
%LPD*%
*
*
G04 PC Custom Flashes*
G04 Layer Name 17-600551-100_REV_D1.pc - flashes*
%LPD*%
*
*
G04 PC Circuitry*
G04 Layer Name 17-600551-100_REV_D1.pc - circuitry*
%LPD*%
*
G54D10*
G54D21*
G01X1026929Y1469016D03*
X1015984Y1445945D03*
Y1375079D03*
Y1357362D03*
Y1410512D03*
Y1392795D03*
Y1428228D03*
G54D22*
X1026929Y1479016D03*
X1036929Y1469016D03*
Y1479016D03*
X1046929Y1469016D03*
Y1479016D03*
X1015984Y1455945D03*
Y1385079D03*
Y1367362D03*
Y1420512D03*
Y1402795D03*
Y1438228D03*
G54D47*
X1173000Y1272000D03*
X1183000D03*
X1193000D03*
X1203000D03*
X1213000D03*
G54D61*
X1416750Y1384050D02*
X1431250D01*
Y1398950*
X1416750*
Y1384050*
X1417000D02*
Y1398950D01*
X1417500Y1384050D02*
Y1398950D01*
X1418000Y1384050D02*
Y1398950D01*
X1418500Y1384050D02*
Y1398950D01*
X1419000Y1384050D02*
Y1398950D01*
X1419500Y1384050D02*
Y1398950D01*
X1420000Y1384050D02*
Y1398950D01*
X1420500Y1384050D02*
Y1398950D01*
X1421000Y1384050D02*
Y1398950D01*
X1421500Y1384050D02*
Y1398950D01*
X1422000Y1384050D02*
Y1398950D01*
X1422500Y1384050D02*
Y1398950D01*
X1423000Y1384050D02*
Y1398950D01*
X1423500Y1384050D02*
Y1398950D01*
X1424000Y1384050D02*
Y1398950D01*
X1424500Y1384050D02*
Y1398950D01*
X1425000Y1384050D02*
Y1398950D01*
X1425500Y1384050D02*
Y1398950D01*
X1426000Y1384050D02*
Y1398950D01*
X1426500Y1384050D02*
Y1398950D01*
X1427000Y1384050D02*
Y1398950D01*
X1427500Y1384050D02*
Y1398950D01*
X1428000Y1384050D02*
Y1398950D01*
X1428500Y1384050D02*
Y1398950D01*
X1429000Y1384050D02*
Y1398950D01*
X1429500Y1384050D02*
Y1398950D01*
X1430000Y1384050D02*
Y1398950D01*
X1430500Y1384050D02*
Y1398950D01*
X1431000Y1384050D02*
Y1398950D01*
X1472250Y1371050D02*
X1486750D01*
Y1385950*
X1472250*
Y1371050*
X1472500D02*
Y1385950D01*
X1473000Y1371050D02*
Y1385950D01*
X1473500Y1371050D02*
Y1385950D01*
X1474000Y1371050D02*
Y1385950D01*
X1474500Y1371050D02*
Y1385950D01*
X1475000Y1371050D02*
Y1385950D01*
X1475500Y1371050D02*
Y1385950D01*
X1476000Y1371050D02*
Y1385950D01*
X1476500Y1371050D02*
Y1385950D01*
X1477000Y1371050D02*
Y1385950D01*
X1477500Y1371050D02*
Y1385950D01*
X1478000Y1371050D02*
Y1385950D01*
X1478500Y1371050D02*
Y1385950D01*
X1479000Y1371050D02*
Y1385950D01*
X1479500Y1371050D02*
Y1385950D01*
X1480000Y1371050D02*
Y1385950D01*
X1480500Y1371050D02*
Y1385950D01*
X1481000Y1371050D02*
Y1385950D01*
X1481500Y1371050D02*
Y1385950D01*
X1482000Y1371050D02*
Y1385950D01*
X1482500Y1371050D02*
Y1385950D01*
X1483000Y1371050D02*
Y1385950D01*
X1483500Y1371050D02*
Y1385950D01*
X1484000Y1371050D02*
Y1385950D01*
X1484500Y1371050D02*
Y1385950D01*
X1485000Y1371050D02*
Y1385950D01*
X1485500Y1371050D02*
Y1385950D01*
X1486000Y1371050D02*
Y1385950D01*
X1486500Y1371050D02*
Y1385950D01*
X1472250Y1434050D02*
X1486750D01*
Y1448950*
X1472250*
Y1434050*
X1472500D02*
Y1448950D01*
X1473000Y1434050D02*
Y1448950D01*
X1473500Y1434050D02*
Y1448950D01*
X1474000Y1434050D02*
Y1448950D01*
X1474500Y1434050D02*
Y1448950D01*
X1475000Y1434050D02*
Y1448950D01*
X1475500Y1434050D02*
Y1448950D01*
X1476000Y1434050D02*
Y1448950D01*
X1476500Y1434050D02*
Y1448950D01*
X1477000Y1434050D02*
Y1448950D01*
X1477500Y1434050D02*
Y1448950D01*
X1478000Y1434050D02*
Y1448950D01*
X1478500Y1434050D02*
Y1448950D01*
X1479000Y1434050D02*
Y1448950D01*
X1479500Y1434050D02*
Y1448950D01*
X1480000Y1434050D02*
Y1448950D01*
X1480500Y1434050D02*
Y1448950D01*
X1481000Y1434050D02*
Y1448950D01*
X1481500Y1434050D02*
Y1448950D01*
X1482000Y1434050D02*
Y1448950D01*
X1482500Y1434050D02*
Y1448950D01*
X1483000Y1434050D02*
Y1448950D01*
X1483500Y1434050D02*
Y1448950D01*
X1484000Y1434050D02*
Y1448950D01*
X1484500Y1434050D02*
Y1448950D01*
X1485000Y1434050D02*
Y1448950D01*
X1485500Y1434050D02*
Y1448950D01*
X1486000Y1434050D02*
Y1448950D01*
X1486500Y1434050D02*
Y1448950D01*
X1493050Y1078250D02*
Y1063750D01*
X1507950*
Y1078250*
X1493050*
X1493500Y1063750D02*
Y1078250D01*
X1494000Y1063750D02*
Y1078250D01*
X1494500Y1063750D02*
Y1078250D01*
X1495000Y1063750D02*
Y1078250D01*
X1495500Y1063750D02*
Y1078250D01*
X1496000Y1063750D02*
Y1078250D01*
X1496500Y1063750D02*
Y1078250D01*
X1497000Y1063750D02*
Y1078250D01*
X1497500Y1063750D02*
Y1078250D01*
X1498000Y1063750D02*
Y1078250D01*
X1498500Y1063750D02*
Y1078250D01*
X1499000Y1063750D02*
Y1078250D01*
X1499500Y1063750D02*
Y1078250D01*
X1500000Y1063750D02*
Y1078250D01*
X1500500Y1063750D02*
Y1078250D01*
X1501000Y1063750D02*
Y1078250D01*
X1501500Y1063750D02*
Y1078250D01*
X1502000Y1063750D02*
Y1078250D01*
X1502500Y1063750D02*
Y1078250D01*
X1503000Y1063750D02*
Y1078250D01*
X1503500Y1063750D02*
Y1078250D01*
X1504000Y1063750D02*
Y1078250D01*
X1504500Y1063750D02*
Y1078250D01*
X1505000Y1063750D02*
Y1078250D01*
X1505500Y1063750D02*
Y1078250D01*
X1506000Y1063750D02*
Y1078250D01*
X1506500Y1063750D02*
Y1078250D01*
X1507000Y1063750D02*
Y1078250D01*
X1507500Y1063750D02*
Y1078250D01*
X1027909Y1525500D02*
X1027682Y1526063D01*
X1027682D02*
X1027227Y1526625D01*
X1026773Y1526906*
X1025864*
X1025409Y1526625*
X1024955Y1526063*
X1024955D02*
X1024727Y1525500D01*
X1024500Y1524656*
Y1523250*
X1024727Y1522406*
X1024955Y1521844*
X1025409Y1521281*
X1025864Y1521000*
X1026773*
X1027227Y1521281*
X1027682Y1521844*
X1027909Y1522406*
X1031091Y1524938D02*
X1030636Y1524656D01*
X1030182Y1524094*
X1029955Y1523250*
Y1522688*
X1029955D02*
X1030182Y1521844D01*
X1030636Y1521281*
X1031091Y1521000*
X1031773*
X1032227Y1521281*
X1032682Y1521844*
X1032909Y1522688*
X1032909D02*
Y1523250D01*
X1032682Y1524094*
X1032227Y1524656*
X1031773Y1524938*
X1031773D02*
X1031091D01*
X1034955D02*
Y1521000D01*
Y1523813D02*
X1035636Y1524656D01*
X1036091Y1524938*
X1036091D02*
X1036773D01*
X1036773D02*
X1037227Y1524656D01*
X1037455Y1523813*
X1037455D02*
Y1521000D01*
Y1523813D02*
X1038136Y1524656D01*
X1038591Y1524938*
X1038591D02*
X1039273D01*
X1039273D02*
X1039727Y1524656D01*
X1039955Y1523813*
X1039955D02*
Y1521000D01*
X1042000Y1524938D02*
Y1519031D01*
Y1524094D02*
X1042455Y1524656D01*
X1042909Y1524938*
X1042909D02*
X1043591D01*
X1043591D02*
X1044045Y1524656D01*
X1044500Y1524094*
X1044727Y1523250*
Y1522688*
X1044727D02*
X1044500Y1521844D01*
X1044045Y1521281*
X1043591Y1521000*
X1042909*
X1042455Y1521281*
X1042000Y1521844*
X1046773Y1524938D02*
Y1521000D01*
Y1523250D02*
X1047000Y1524094D01*
X1047455Y1524656*
X1047909Y1524938*
X1047909D02*
X1048591D01*
X1050636Y1523250D02*
X1053364D01*
Y1523813*
X1053364D02*
X1053136Y1524375D01*
X1052909Y1524656*
X1052455Y1524938*
X1052455D02*
X1051773D01*
X1051773D02*
X1051318Y1524656D01*
X1050864Y1524094*
X1050636Y1523250*
Y1522688*
X1050636D02*
X1050864Y1521844D01*
X1051318Y1521281*
X1051773Y1521000*
X1052455*
X1052909Y1521281*
X1053364Y1521844*
X1057909Y1524094D02*
X1057682Y1524656D01*
X1057000Y1524938*
X1057000D02*
X1056318D01*
X1056318D02*
X1055636Y1524656D01*
X1055409Y1524094*
X1055636Y1523531*
X1056091Y1523250*
X1057227Y1522969*
X1057682Y1522688*
X1057682D02*
X1057909Y1522125D01*
Y1521844*
X1057682Y1521281*
X1057000Y1521000*
X1056318*
X1055636Y1521281*
X1055409Y1521844*
X1062455Y1524094D02*
X1062227Y1524656D01*
X1061545Y1524938*
X1061545D02*
X1060864D01*
X1060864D02*
X1060182Y1524656D01*
X1059955Y1524094*
X1060182Y1523531*
X1060636Y1523250*
X1061773Y1522969*
X1062227Y1522688*
X1062227D02*
X1062455Y1522125D01*
Y1521844*
X1062227Y1521281*
X1061545Y1521000*
X1060864*
X1060182Y1521281*
X1059955Y1521844*
X1065636Y1524938D02*
X1065182Y1524656D01*
X1064727Y1524094*
X1064500Y1523250*
Y1522688*
X1064500D02*
X1064727Y1521844D01*
X1065182Y1521281*
X1065636Y1521000*
X1066318*
X1066773Y1521281*
X1067227Y1521844*
X1067455Y1522688*
X1067455D02*
Y1523250D01*
X1067227Y1524094*
X1066773Y1524656*
X1066318Y1524938*
X1066318D02*
X1065636D01*
X1069500D02*
Y1521000D01*
Y1523250D02*
X1069727Y1524094D01*
X1070182Y1524656*
X1070636Y1524938*
X1070636D02*
X1071318D01*
X1082000Y1525500D02*
X1081773Y1526063D01*
X1081773D02*
X1081318Y1526625D01*
X1080864Y1526906*
X1079955*
X1079500Y1526625*
X1079045Y1526063*
X1079045D02*
X1078818Y1525500D01*
X1078591Y1524656*
Y1523250*
X1078818Y1522406*
X1079045Y1521844*
X1079500Y1521281*
X1079955Y1521000*
X1080864*
X1081318Y1521281*
X1081773Y1521844*
X1082000Y1522406*
X1085182Y1524938D02*
X1084727Y1524656D01*
X1084273Y1524094*
X1084045Y1523250*
Y1522688*
X1084045D02*
X1084273Y1521844D01*
X1084727Y1521281*
X1085182Y1521000*
X1085864*
X1086318Y1521281*
X1086773Y1521844*
X1087000Y1522688*
X1087000D02*
Y1523250D01*
X1086773Y1524094*
X1086318Y1524656*
X1085864Y1524938*
X1085864D02*
X1085182D01*
X1089045D02*
Y1521000D01*
Y1523813D02*
X1089727Y1524656D01*
X1090182Y1524938*
X1090182D02*
X1090864D01*
X1090864D02*
X1091318Y1524656D01*
X1091545Y1523813*
X1091545D02*
Y1521000D01*
X1094273Y1526906D02*
Y1522125D01*
X1094500Y1521281*
X1094955Y1521000*
X1095409*
X1093591Y1524938D02*
X1095182D01*
X1097455D02*
Y1521000D01*
Y1523250D02*
X1097682Y1524094D01*
X1098136Y1524656*
X1098591Y1524938*
X1098591D02*
X1099273D01*
X1102455D02*
X1102000Y1524656D01*
X1101545Y1524094*
X1101318Y1523250*
Y1522688*
X1101318D02*
X1101545Y1521844D01*
X1102000Y1521281*
X1102455Y1521000*
X1103136*
X1103591Y1521281*
X1104045Y1521844*
X1104273Y1522688*
X1104273D02*
Y1523250D01*
X1104045Y1524094*
X1103591Y1524656*
X1103136Y1524938*
X1103136D02*
X1102455D01*
X1106318Y1526906D02*
Y1521000D01*
X1110864Y1524094D02*
X1110636Y1524656D01*
X1109955Y1524938*
X1109955D02*
X1109273D01*
X1109273D02*
X1108591Y1524656D01*
X1108364Y1524094*
X1108591Y1523531*
X1109045Y1523250*
X1110182Y1522969*
X1110636Y1522688*
X1110636D02*
X1110864Y1522125D01*
Y1521844*
X1110636Y1521281*
X1109955Y1521000*
X1109273*
X1108591Y1521281*
X1108364Y1521844*
X1121545Y1525500D02*
X1121318Y1526063D01*
X1121318D02*
X1120864Y1526625D01*
X1120409Y1526906*
X1119500*
X1119045Y1526625*
X1118591Y1526063*
X1118591D02*
X1118364Y1525500D01*
X1118136Y1524656*
Y1523250*
X1118364Y1522406*
X1118591Y1521844*
X1119045Y1521281*
X1119500Y1521000*
X1120409*
X1120864Y1521281*
X1121318Y1521844*
X1121545Y1522406*
X1124727Y1524938D02*
X1124273Y1524656D01*
X1123818Y1524094*
X1123591Y1523250*
Y1522688*
X1123591D02*
X1123818Y1521844D01*
X1124273Y1521281*
X1124727Y1521000*
X1125409*
X1125864Y1521281*
X1126318Y1521844*
X1126545Y1522688*
X1126545D02*
Y1523250D01*
X1126318Y1524094*
X1125864Y1524656*
X1125409Y1524938*
X1125409D02*
X1124727D01*
X1128591D02*
Y1521000D01*
Y1523250D02*
X1128818Y1524094D01*
X1129273Y1524656*
X1129727Y1524938*
X1129727D02*
X1130409D01*
X1132455D02*
Y1519031D01*
Y1524094D02*
X1132909Y1524656D01*
X1133364Y1524938*
X1133364D02*
X1134045D01*
X1134045D02*
X1134500Y1524656D01*
X1134955Y1524094*
X1135182Y1523250*
Y1522688*
X1135182D02*
X1134955Y1521844D01*
X1134500Y1521281*
X1134045Y1521000*
X1133364*
X1132909Y1521281*
X1132455Y1521844*
X1138364Y1524938D02*
X1137909Y1524656D01*
X1137455Y1524094*
X1137227Y1523250*
Y1522688*
X1137227D02*
X1137455Y1521844D01*
X1137909Y1521281*
X1138364Y1521000*
X1139045*
X1139500Y1521281*
X1139955Y1521844*
X1140182Y1522688*
X1140182D02*
Y1523250D01*
X1139955Y1524094*
X1139500Y1524656*
X1139045Y1524938*
X1139045D02*
X1138364D01*
X1142227D02*
Y1521000D01*
Y1523250D02*
X1142455Y1524094D01*
X1142909Y1524656*
X1143364Y1524938*
X1143364D02*
X1144045D01*
X1148818D02*
Y1521000D01*
Y1524094D02*
X1148364Y1524656D01*
X1147909Y1524938*
X1147909D02*
X1147227D01*
X1147227D02*
X1146773Y1524656D01*
X1146318Y1524094*
X1146091Y1523250*
Y1522688*
X1146091D02*
X1146318Y1521844D01*
X1146773Y1521281*
X1147227Y1521000*
X1147909*
X1148364Y1521281*
X1148818Y1521844*
X1151545Y1526906D02*
Y1522125D01*
X1151773Y1521281*
X1152227Y1521000*
X1152682*
X1150864Y1524938D02*
X1152455D01*
X1154727Y1526906D02*
X1154955Y1526625D01*
X1155182Y1526906*
X1154955Y1527188*
X1154955D02*
X1154727Y1526906D01*
X1154955Y1524938D02*
Y1521000D01*
X1158364Y1524938D02*
X1157909Y1524656D01*
X1157455Y1524094*
X1157227Y1523250*
Y1522688*
X1157227D02*
X1157455Y1521844D01*
X1157909Y1521281*
X1158364Y1521000*
X1159045*
X1159500Y1521281*
X1159955Y1521844*
X1160182Y1522688*
X1160182D02*
Y1523250D01*
X1159955Y1524094*
X1159500Y1524656*
X1159045Y1524938*
X1159045D02*
X1158364D01*
X1162227D02*
Y1521000D01*
Y1523813D02*
X1162909Y1524656D01*
X1163364Y1524938*
X1163364D02*
X1164045D01*
X1164045D02*
X1164500Y1524656D01*
X1164727Y1523813*
X1164727D02*
Y1521000D01*
X1172000Y1523531D02*
X1176091D01*
X1178136D02*
X1182227D01*
X1189500Y1526906D02*
Y1521000D01*
Y1526906D02*
X1191318Y1521000D01*
X1193136Y1526906D02*
X1191318Y1521000D01*
X1193136Y1526906D02*
Y1521000D01*
X1197909Y1524938D02*
Y1521000D01*
Y1524094D02*
X1197455Y1524656D01*
X1197000Y1524938*
X1197000D02*
X1196318D01*
X1196318D02*
X1195864Y1524656D01*
X1195409Y1524094*
X1195182Y1523250*
Y1522688*
X1195182D02*
X1195409Y1521844D01*
X1195864Y1521281*
X1196318Y1521000*
X1197000*
X1197455Y1521281*
X1197909Y1521844*
X1199955Y1524938D02*
Y1521000D01*
Y1523250D02*
X1200182Y1524094D01*
X1200636Y1524656*
X1201091Y1524938*
X1201091D02*
X1201773D01*
X1206545Y1524094D02*
X1206091Y1524656D01*
X1205636Y1524938*
X1205636D02*
X1204955D01*
X1204955D02*
X1204500Y1524656D01*
X1204045Y1524094*
X1203818Y1523250*
Y1522688*
X1203818D02*
X1204045Y1521844D01*
X1204500Y1521281*
X1204955Y1521000*
X1205636*
X1206091Y1521281*
X1206545Y1521844*
X1208591Y1526906D02*
Y1521000D01*
Y1523813D02*
X1209273Y1524656D01*
X1209727Y1524938*
X1209727D02*
X1210409D01*
X1210409D02*
X1210864Y1524656D01*
X1211091Y1523813*
X1211091D02*
Y1521000D01*
X1218364Y1525781D02*
X1218818Y1526063D01*
X1218818D02*
X1219500Y1526906D01*
Y1521000*
X1222909Y1526906D02*
X1222227Y1526625D01*
X1221773Y1525781*
X1221545Y1524375*
Y1523531*
X1221773Y1522125*
X1222227Y1521281*
X1222909Y1521000*
X1223364*
X1224045Y1521281*
X1224500Y1522125*
X1224727Y1523531*
Y1524375*
X1224500Y1525781*
X1224045Y1526625*
X1223364Y1526906*
X1222909*
X1227227Y1521281D02*
X1227000Y1521000D01*
X1226773Y1521281*
X1227000Y1521563*
X1227000D02*
X1227227Y1521281D01*
Y1520719*
X1227000Y1520156*
X1226773Y1519875*
X1234727Y1525500D02*
Y1525781D01*
X1234955Y1526344*
X1235182Y1526625*
X1235636Y1526906*
X1236545*
X1237000Y1526625*
X1237227Y1526344*
X1237455Y1525781*
Y1525219*
X1237227Y1524656*
X1236773Y1523813*
X1236773D02*
X1234500Y1521000D01*
X1237682*
X1241091Y1526906D02*
X1240409Y1526625D01*
X1239955Y1525781*
X1239727Y1524375*
Y1523531*
X1239955Y1522125*
X1240409Y1521281*
X1241091Y1521000*
X1241545*
X1242227Y1521281*
X1242682Y1522125*
X1242909Y1523531*
Y1524375*
X1242682Y1525781*
X1242227Y1526625*
X1241545Y1526906*
X1241091*
X1244955Y1525781D02*
X1245409Y1526063D01*
X1245409D02*
X1246091Y1526906D01*
Y1521000*
X1250409Y1526906D02*
X1248136Y1522969D01*
X1251545*
X1250409Y1526906D02*
Y1521000D01*
X1024500Y1513781D02*
X1024955Y1514063D01*
X1024955D02*
X1025636Y1514906D01*
Y1509000*
X1030864Y1514906D02*
X1028591Y1509000D01*
X1027682Y1514906D02*
X1030864D01*
X1032909Y1511531D02*
X1037000D01*
X1041773Y1514063D02*
X1041545Y1514625D01*
X1040864Y1514906*
X1040409*
X1039727Y1514625*
X1039273Y1513781*
X1039045Y1512375*
Y1510969*
X1039273Y1509844*
X1039727Y1509281*
X1040409Y1509000*
X1040636*
X1041318Y1509281*
X1041773Y1509844*
X1042000Y1510688*
X1042000D02*
Y1510969D01*
X1041773Y1511813*
X1041773D02*
X1041318Y1512375D01*
X1040636Y1512656*
X1040409*
X1039727Y1512375*
X1039273Y1511813*
X1039273D02*
X1039045Y1510969D01*
X1045409Y1514906D02*
X1044727Y1514625D01*
X1044273Y1513781*
X1044045Y1512375*
Y1511531*
X1044273Y1510125*
X1044727Y1509281*
X1045409Y1509000*
X1045864*
X1046545Y1509281*
X1047000Y1510125*
X1047227Y1511531*
Y1512375*
X1047000Y1513781*
X1046545Y1514625*
X1045864Y1514906*
X1045409*
X1050636D02*
X1049955Y1514625D01*
X1049500Y1513781*
X1049273Y1512375*
Y1511531*
X1049500Y1510125*
X1049955Y1509281*
X1050636Y1509000*
X1051091*
X1051773Y1509281*
X1052227Y1510125*
X1052455Y1511531*
Y1512375*
X1052227Y1513781*
X1051773Y1514625*
X1051091Y1514906*
X1050636*
X1057455D02*
X1055182D01*
X1054955Y1512375*
X1055182Y1512656*
X1055864Y1512938*
X1055864D02*
X1056545D01*
X1056545D02*
X1057227Y1512656D01*
X1057682Y1512094*
X1057909Y1511250*
X1057682Y1510688*
X1057682D02*
X1057455Y1509844D01*
X1057000Y1509281*
X1056318Y1509000*
X1055636*
X1054955Y1509281*
X1054727Y1509563*
X1054727D02*
X1054500Y1510125D01*
X1062909Y1514906D02*
X1060636D01*
X1060409Y1512375*
X1060636Y1512656*
X1061318Y1512938*
X1061318D02*
X1062000D01*
X1062000D02*
X1062682Y1512656D01*
X1063136Y1512094*
X1063364Y1511250*
X1063136Y1510688*
X1063136D02*
X1062909Y1509844D01*
X1062455Y1509281*
X1061773Y1509000*
X1061091*
X1060409Y1509281*
X1060182Y1509563*
X1060182D02*
X1059955Y1510125D01*
X1065409Y1513781D02*
X1065864Y1514063D01*
X1065864D02*
X1066545Y1514906D01*
Y1509000*
X1068591Y1511531D02*
X1072682D01*
X1074727Y1513781D02*
X1075182Y1514063D01*
X1075182D02*
X1075864Y1514906D01*
Y1509000*
X1079273Y1514906D02*
X1078591Y1514625D01*
X1078136Y1513781*
X1077909Y1512375*
Y1511531*
X1078136Y1510125*
X1078591Y1509281*
X1079273Y1509000*
X1079727*
X1080409Y1509281*
X1080864Y1510125*
X1081091Y1511531*
Y1512375*
X1080864Y1513781*
X1080409Y1514625*
X1079727Y1514906*
X1079273*
X1084500D02*
X1083818Y1514625D01*
X1083364Y1513781*
X1083136Y1512375*
Y1511531*
X1083364Y1510125*
X1083818Y1509281*
X1084500Y1509000*
X1084955*
X1085636Y1509281*
X1086091Y1510125*
X1086318Y1511531*
Y1512375*
X1086091Y1513781*
X1085636Y1514625*
X1084955Y1514906*
X1084500*
X1093591D02*
Y1509000D01*
Y1514906D02*
X1095636D01*
X1096318Y1514625*
X1096545Y1514344*
X1096773Y1513781*
Y1513219*
X1096545Y1512656*
X1096318Y1512375*
X1095636Y1512094*
X1093591*
X1095182D02*
X1096773Y1509000D01*
X1098818Y1511250D02*
X1101545D01*
Y1511813*
X1101545D02*
X1101318Y1512375D01*
X1101091Y1512656*
X1100636Y1512938*
X1100636D02*
X1099955D01*
X1099955D02*
X1099500Y1512656D01*
X1099045Y1512094*
X1098818Y1511250*
Y1510688*
X1098818D02*
X1099045Y1509844D01*
X1099500Y1509281*
X1099955Y1509000*
X1100636*
X1101091Y1509281*
X1101545Y1509844*
X1103591Y1512938D02*
X1104955Y1509000D01*
X1106318Y1512938D02*
X1104955Y1509000D01*
X1108591Y1509563D02*
X1108364Y1509281D01*
X1108591Y1509000*
X1108818Y1509281*
X1108591Y1509563*
X1117909Y1514906D02*
X1116091Y1509000D01*
X1117909Y1514906D02*
X1119727Y1509000D01*
X1116773Y1510969D02*
X1119045D01*
X1554182Y1549063D02*
X1553727Y1549625D01*
X1553045Y1549906*
X1552136*
X1551455Y1549625*
X1551000Y1549063*
X1551000D02*
Y1548500D01*
X1551227Y1547938*
X1551227D02*
X1551455Y1547656D01*
X1551909Y1547375*
X1553273Y1546813*
X1553273D02*
X1553727Y1546531D01*
X1553955Y1546250*
X1554182Y1545688*
X1554182D02*
Y1544844D01*
X1553727Y1544281*
X1553045Y1544000*
X1552136*
X1551455Y1544281*
X1551000Y1544844*
X1557591Y1549906D02*
X1557136Y1549625D01*
X1556682Y1549063*
X1556682D02*
X1556455Y1548500D01*
X1556227Y1547656*
Y1546250*
X1556455Y1545406*
X1556682Y1544844*
X1557136Y1544281*
X1557591Y1544000*
X1558500*
X1558955Y1544281*
X1559409Y1544844*
X1559636Y1545406*
X1559864Y1546250*
Y1547656*
X1559636Y1548500*
X1559409Y1549063*
X1559409D02*
X1558955Y1549625D01*
X1558500Y1549906*
X1557591*
X1561909D02*
Y1544000D01*
X1564636*
X1566682Y1549906D02*
Y1544000D01*
Y1549906D02*
X1568273D01*
X1568955Y1549625*
X1569409Y1549063*
X1569409D02*
X1569636Y1548500D01*
X1569864Y1547656*
Y1546250*
X1569636Y1545406*
X1569409Y1544844*
X1568955Y1544281*
X1568273Y1544000*
X1566682*
X1571909Y1549906D02*
Y1544000D01*
Y1549906D02*
X1574864D01*
X1571909Y1547094D02*
X1573727D01*
X1571909Y1544000D02*
X1574864D01*
X1576909Y1549906D02*
Y1544000D01*
Y1549906D02*
X1578955D01*
X1579636Y1549625*
X1579864Y1549344*
X1580091Y1548781*
Y1548219*
X1579864Y1547656*
X1579636Y1547375*
X1578955Y1547094*
X1576909*
X1578500D02*
X1580091Y1544000D01*
X1582136Y1549906D02*
Y1544000D01*
Y1549906D02*
X1583955Y1544000D01*
X1585773Y1549906D02*
X1583955Y1544000D01*
X1585773Y1549906D02*
Y1544000D01*
X1589636Y1549906D02*
X1587818Y1544000D01*
X1589636Y1549906D02*
X1591455Y1544000D01*
X1588500Y1545969D02*
X1590773D01*
X1596682Y1549063D02*
X1596227Y1549625D01*
X1595545Y1549906*
X1594636*
X1593955Y1549625*
X1593500Y1549063*
X1593500D02*
Y1548500D01*
X1593727Y1547938*
X1593727D02*
X1593955Y1547656D01*
X1594409Y1547375*
X1595773Y1546813*
X1595773D02*
X1596227Y1546531D01*
X1596455Y1546250*
X1596682Y1545688*
X1596682D02*
Y1544844D01*
X1596227Y1544281*
X1595545Y1544000*
X1594636*
X1593955Y1544281*
X1593500Y1544844*
X1598727Y1549906D02*
Y1544000D01*
X1601909Y1549906D02*
X1598727Y1545969D01*
X1599864Y1547375D02*
X1601909Y1544000D01*
X1610773Y1549906D02*
Y1544000D01*
X1609182Y1549906D02*
X1612364D01*
X1615773D02*
X1615318Y1549625D01*
X1614864Y1549063*
X1614864D02*
X1614636Y1548500D01*
X1614409Y1547656*
Y1546250*
X1614636Y1545406*
X1614864Y1544844*
X1615318Y1544281*
X1615773Y1544000*
X1616682*
X1617136Y1544281*
X1617591Y1544844*
X1617818Y1545406*
X1618045Y1546250*
Y1547656*
X1617818Y1548500*
X1617591Y1549063*
X1617591D02*
X1617136Y1549625D01*
X1616682Y1549906*
X1615773*
X1620091D02*
Y1544000D01*
Y1549906D02*
X1622136D01*
X1622818Y1549625*
X1623045Y1549344*
X1623273Y1548781*
Y1547938*
X1623273D02*
X1623045Y1547375D01*
X1622818Y1547094*
X1622136Y1546813*
X1622136D02*
X1620091D01*
X1000000Y1462862D02*
Y1480316D01*
X1019685Y1500000*
X1632086*
X1637086Y1495000*
Y1062992*
X1599685*
G75*
G03X1597716Y1061024I-0J-1968D01*
G01Y1000000*
X1203000*
Y1029077*
Y1029080D02*
G03X1191000Y1029070I-6000J-251D01*
G01Y1029077D02*
Y1000000D01*
X1132000*
Y1029000*
Y1028998D02*
G03X1119499Y1028758I-6253J32D01*
G01X1119500Y1028750D02*
Y1000000D01*
X1055313*
X1041683Y1012615*
X1041683D02*
X1031863Y1060462D01*
X1013277Y1179056*
X1001317Y1256005*
X1000000Y1310659*
Y1462862*
X1000000*
G54D78*
X1545350Y1476800D02*
G03X1545350I-4750J0D01*
G01X1577750Y1012500D02*
G03X1577750I-4750J0D01*
G01X1077250D02*
G03X1077250I-4750J0D01*
G01X1545350Y1476800D02*
G03X1545350I-4750J0D01*
G01X1577750Y1012500D02*
G03X1577750I-4750J0D01*
G01X1077250D02*
G03X1077250I-4750J0D01*
G01X1535854Y1476999D02*
X1545346D01*
X1535857Y1476549D02*
X1545343D01*
X1535895Y1477449D02*
X1545305D01*
X1535902Y1476099D02*
X1545298D01*
X1535979Y1477899D02*
X1545221D01*
X1535992Y1475649D02*
X1545208D01*
X1536110Y1478349D02*
X1545090D01*
X1536128Y1475199D02*
X1545072D01*
X1536291Y1478799D02*
X1544909D01*
X1536316Y1474749D02*
X1544884D01*
X1536530Y1479249D02*
X1544670D01*
X1536562Y1474299D02*
X1544638D01*
X1536837Y1479699D02*
X1544363D01*
X1536878Y1473849D02*
X1544322D01*
X1537231Y1480149D02*
X1543969D01*
X1537284Y1473399D02*
X1543916D01*
X1537748Y1480599D02*
X1543452D01*
X1537820Y1472949D02*
X1543380D01*
X1538476Y1481049D02*
X1542724D01*
X1538585Y1472499D02*
X1542615D01*
X1539904Y1481499D02*
X1541296D01*
X1568254Y1012699D02*
X1577746D01*
X1568257Y1012249D02*
X1577743D01*
X1568295Y1013149D02*
X1577705D01*
X1568302Y1011799D02*
X1577698D01*
X1568379Y1013599D02*
X1577621D01*
X1568392Y1011349D02*
X1577608D01*
X1568510Y1014049D02*
X1577490D01*
X1568528Y1010899D02*
X1577472D01*
X1568691Y1014499D02*
X1577309D01*
X1568716Y1010449D02*
X1577284D01*
X1568930Y1014949D02*
X1577070D01*
X1568962Y1009999D02*
X1577038D01*
X1569237Y1015399D02*
X1576763D01*
X1569278Y1009549D02*
X1576722D01*
X1569631Y1015849D02*
X1576369D01*
X1569684Y1009099D02*
X1576316D01*
X1570148Y1016299D02*
X1575852D01*
X1570220Y1008649D02*
X1575780D01*
X1570876Y1016749D02*
X1575124D01*
X1570985Y1008199D02*
X1575015D01*
X1572304Y1017199D02*
X1573696D01*
X1067754Y1012699D02*
X1077246D01*
X1067757Y1012249D02*
X1077243D01*
X1067795Y1013149D02*
X1077205D01*
X1067802Y1011799D02*
X1077198D01*
X1067879Y1013599D02*
X1077121D01*
X1067892Y1011349D02*
X1077108D01*
X1068010Y1014049D02*
X1076990D01*
X1068028Y1010899D02*
X1076972D01*
X1068191Y1014499D02*
X1076809D01*
X1068216Y1010449D02*
X1076784D01*
X1068430Y1014949D02*
X1076570D01*
X1068462Y1009999D02*
X1076538D01*
X1068737Y1015399D02*
X1076263D01*
X1068778Y1009549D02*
X1076222D01*
X1069131Y1015849D02*
X1075869D01*
X1069184Y1009099D02*
X1075816D01*
X1069648Y1016299D02*
X1075352D01*
X1069720Y1008649D02*
X1075280D01*
X1070376Y1016749D02*
X1074624D01*
X1070485Y1008199D02*
X1074515D01*
X1071804Y1017199D02*
X1073196D01*
G54D355*
X1385047Y1349900D02*
X1385003Y1349898D01*
X1384958Y1349895*
X1384914Y1349889*
X1384871Y1349880*
X1384828Y1349870*
X1384785Y1349857*
X1384743Y1349841*
X1384703Y1349824*
X1384663Y1349804*
X1384624Y1349782*
X1384587Y1349758*
X1384550Y1349732*
X1384516Y1349704*
X1384483Y1349675*
X1384451Y1349643*
X1384422Y1349610*
X1384394Y1349576*
X1384368Y1349539*
X1384344Y1349502*
X1384322Y1349463*
X1384302Y1349423*
X1384285Y1349383*
X1384269Y1349341*
X1384256Y1349298*
X1384246Y1349255*
X1384237Y1349212*
X1384231Y1349167*
X1384228Y1349123*
X1384226Y1349079*
Y1346520*
X1384227Y1346497*
X1384231Y1346475*
X1384236Y1346453*
X1384244Y1346432*
X1384254Y1346411*
X1384265Y1346392*
X1384279Y1346374*
X1384294Y1346357*
X1384311Y1346342*
X1384329Y1346328*
X1384348Y1346317*
X1384369Y1346307*
X1384390Y1346299*
X1384412Y1346294*
X1384434Y1346290*
X1384457Y1346289*
X1385638*
X1385660Y1346290*
X1385683Y1346294*
X1385705Y1346299*
X1385726Y1346307*
X1385746Y1346317*
X1385766Y1346328*
X1385784Y1346342*
X1385801Y1346357*
X1385816Y1346374*
X1385829Y1346392*
X1385841Y1346411*
X1385851Y1346432*
X1385858Y1346453*
X1385864Y1346475*
X1385867Y1346497*
X1385868Y1346520*
Y1349079*
X1385867Y1349123*
X1385863Y1349167*
X1385857Y1349212*
X1385849Y1349255*
X1385838Y1349298*
X1385825Y1349341*
X1385810Y1349383*
X1385792Y1349423*
X1385772Y1349463*
X1385751Y1349502*
X1385727Y1349539*
X1385701Y1349576*
X1385673Y1349610*
X1385643Y1349643*
X1385612Y1349675*
X1385579Y1349704*
X1385544Y1349732*
X1385508Y1349758*
X1385470Y1349782*
X1385432Y1349804*
X1385392Y1349824*
X1385351Y1349841*
X1385309Y1349857*
X1385267Y1349870*
X1385224Y1349880*
X1385180Y1349889*
X1385136Y1349895*
X1385092Y1349898*
X1385047Y1349900*
X1384240Y1346442D02*
Y1349227D01*
X1384260Y1346401D02*
Y1349310D01*
X1384280Y1346373D02*
Y1349369D01*
X1384299Y1346352D02*
Y1349416D01*
X1384319Y1346335D02*
Y1349457D01*
X1384339Y1346322D02*
Y1349493D01*
X1384358Y1346312D02*
Y1349524D01*
X1384378Y1346304D02*
Y1349554D01*
X1384398Y1346297D02*
Y1349580D01*
X1384417Y1346293D02*
Y1349605D01*
X1384437Y1346290D02*
Y1349627D01*
X1384457Y1346289D02*
Y1349649D01*
X1384476Y1346289D02*
Y1349668D01*
X1384496Y1346289D02*
Y1349687D01*
X1384516Y1346289D02*
Y1349704D01*
X1384535Y1346289D02*
Y1349720D01*
X1384555Y1346289D02*
Y1349736D01*
X1384575Y1346289D02*
Y1349750D01*
X1384594Y1346289D02*
Y1349763D01*
X1384614Y1346289D02*
Y1349776D01*
X1384634Y1346289D02*
Y1349788D01*
X1384654Y1346289D02*
Y1349799D01*
X1384673Y1346289D02*
Y1349809D01*
X1384693Y1346289D02*
Y1349819D01*
X1384713Y1346289D02*
Y1349828D01*
X1384732Y1346289D02*
Y1349837D01*
X1384752Y1346289D02*
Y1349844D01*
X1384772Y1346289D02*
Y1349852D01*
X1384791Y1346289D02*
Y1349859D01*
X1384811Y1346289D02*
Y1349865D01*
X1384831Y1346289D02*
Y1349870D01*
X1384850Y1346289D02*
Y1349875D01*
X1384870Y1346289D02*
Y1349880D01*
X1384890Y1346289D02*
Y1349884D01*
X1384909Y1346289D02*
Y1349888D01*
X1384929Y1346289D02*
Y1349891D01*
X1384949Y1346289D02*
Y1349893D01*
X1384969Y1346289D02*
Y1349896D01*
X1384988Y1346289D02*
Y1349897D01*
X1385008Y1346289D02*
Y1349899D01*
X1385028Y1346289D02*
Y1349899D01*
X1385047Y1346289D02*
Y1349900D01*
X1385067Y1346289D02*
Y1349899D01*
X1385087Y1346289D02*
Y1349899D01*
X1385106Y1346289D02*
Y1349897D01*
X1385126Y1346289D02*
Y1349896D01*
X1385146Y1346289D02*
Y1349893D01*
X1385165Y1346289D02*
Y1349891D01*
X1385185Y1346289D02*
Y1349888D01*
X1385205Y1346289D02*
Y1349884D01*
X1385224Y1346289D02*
Y1349880D01*
X1385244Y1346289D02*
Y1349875D01*
X1385264Y1346289D02*
Y1349870D01*
X1385283Y1346289D02*
Y1349865D01*
X1385303Y1346289D02*
Y1349859D01*
X1385323Y1346289D02*
Y1349852D01*
X1385343Y1346289D02*
Y1349844D01*
X1385362Y1346289D02*
Y1349837D01*
X1385382Y1346289D02*
Y1349828D01*
X1385402Y1346289D02*
Y1349819D01*
X1385421Y1346289D02*
Y1349809D01*
X1385441Y1346289D02*
Y1349799D01*
X1385461Y1346289D02*
Y1349788D01*
X1385480Y1346289D02*
Y1349776D01*
X1385500Y1346289D02*
Y1349763D01*
X1385520Y1346289D02*
Y1349750D01*
X1385539Y1346289D02*
Y1349736D01*
X1385559Y1346289D02*
Y1349720D01*
X1385579Y1346289D02*
Y1349704D01*
X1385598Y1346289D02*
Y1349687D01*
X1385618Y1346289D02*
Y1349668D01*
X1385638Y1346289D02*
Y1349649D01*
X1385657Y1346290D02*
Y1349627D01*
X1385677Y1346293D02*
Y1349605D01*
X1385697Y1346297D02*
Y1349580D01*
X1385717Y1346304D02*
Y1349554D01*
X1385736Y1346312D02*
Y1349524D01*
X1385756Y1346322D02*
Y1349493D01*
X1385776Y1346335D02*
Y1349457D01*
X1385795Y1346352D02*
Y1349416D01*
X1385815Y1346373D02*
Y1349369D01*
X1385835Y1346401D02*
Y1349310D01*
X1385854Y1346442D02*
Y1349227D01*
X1387016Y1349900D02*
X1386971Y1349898D01*
X1386927Y1349895*
X1386883Y1349889*
X1386839Y1349880*
X1386796Y1349870*
X1386754Y1349857*
X1386712Y1349841*
X1386671Y1349824*
X1386631Y1349804*
X1386593Y1349782*
X1386555Y1349758*
X1386519Y1349732*
X1386484Y1349704*
X1386451Y1349675*
X1386420Y1349643*
X1386390Y1349610*
X1386362Y1349576*
X1386336Y1349539*
X1386312Y1349502*
X1386291Y1349463*
X1386271Y1349423*
X1386253Y1349383*
X1386238Y1349341*
X1386225Y1349298*
X1386214Y1349255*
X1386206Y1349212*
X1386200Y1349167*
X1386196Y1349123*
X1386195Y1349079*
Y1346520*
X1386196Y1346497*
X1386199Y1346475*
X1386205Y1346453*
X1386212Y1346432*
X1386222Y1346411*
X1386234Y1346392*
X1386247Y1346374*
X1386262Y1346357*
X1386279Y1346342*
X1386297Y1346328*
X1386317Y1346317*
X1386337Y1346307*
X1386358Y1346299*
X1386380Y1346294*
X1386403Y1346290*
X1386425Y1346289*
X1387606*
X1387629Y1346290*
X1387651Y1346294*
X1387673Y1346299*
X1387694Y1346307*
X1387715Y1346317*
X1387734Y1346328*
X1387752Y1346342*
X1387769Y1346357*
X1387784Y1346374*
X1387798Y1346392*
X1387809Y1346411*
X1387819Y1346432*
X1387827Y1346453*
X1387832Y1346475*
X1387836Y1346497*
X1387837Y1346520*
Y1349079*
X1387835Y1349123*
X1387832Y1349167*
X1387826Y1349212*
X1387817Y1349255*
X1387807Y1349298*
X1387794Y1349341*
X1387778Y1349383*
X1387761Y1349423*
X1387741Y1349463*
X1387719Y1349502*
X1387695Y1349539*
X1387669Y1349576*
X1387641Y1349610*
X1387612Y1349643*
X1387580Y1349675*
X1387547Y1349704*
X1387513Y1349732*
X1387476Y1349758*
X1387439Y1349782*
X1387400Y1349804*
X1387360Y1349824*
X1387320Y1349841*
X1387278Y1349857*
X1387235Y1349870*
X1387192Y1349880*
X1387149Y1349889*
X1387104Y1349895*
X1387104D02*
X1387060Y1349898D01*
X1387016Y1349900*
X1386209Y1346442D02*
Y1349227D01*
X1386228Y1346401D02*
Y1349310D01*
X1386248Y1346373D02*
Y1349369D01*
X1386268Y1346352D02*
Y1349416D01*
X1386287Y1346335D02*
Y1349457D01*
X1386307Y1346322D02*
Y1349493D01*
X1386327Y1346312D02*
Y1349524D01*
X1386346Y1346304D02*
Y1349554D01*
X1386366Y1346297D02*
Y1349580D01*
X1386386Y1346293D02*
Y1349605D01*
X1386406Y1346290D02*
Y1349627D01*
X1386425Y1346289D02*
Y1349649D01*
X1386445Y1346289D02*
Y1349668D01*
X1386465Y1346289D02*
Y1349687D01*
X1386484Y1346289D02*
Y1349704D01*
X1386504Y1346289D02*
Y1349720D01*
X1386524Y1346289D02*
Y1349736D01*
X1386543Y1346289D02*
Y1349750D01*
X1386563Y1346289D02*
Y1349763D01*
X1386583Y1346289D02*
Y1349776D01*
X1386602Y1346289D02*
Y1349788D01*
X1386622Y1346289D02*
Y1349799D01*
X1386642Y1346289D02*
Y1349809D01*
X1386661Y1346289D02*
Y1349819D01*
X1386681Y1346289D02*
Y1349828D01*
X1386701Y1346289D02*
Y1349837D01*
X1386720Y1346289D02*
Y1349844D01*
X1386740Y1346289D02*
Y1349852D01*
X1386760Y1346289D02*
Y1349859D01*
X1386780Y1346289D02*
Y1349865D01*
X1386799Y1346289D02*
Y1349870D01*
X1386819Y1346289D02*
Y1349875D01*
X1386839Y1346289D02*
Y1349880D01*
X1386858Y1346289D02*
Y1349884D01*
X1386878Y1346289D02*
Y1349888D01*
X1386898Y1346289D02*
Y1349891D01*
X1386917Y1346289D02*
Y1349893D01*
X1386937Y1346289D02*
Y1349896D01*
X1386957Y1346289D02*
Y1349897D01*
X1386976Y1346289D02*
Y1349899D01*
X1386996Y1346289D02*
Y1349899D01*
X1387016Y1346289D02*
Y1349900D01*
X1387035Y1346289D02*
Y1349899D01*
X1387055Y1346289D02*
Y1349899D01*
X1387075Y1346289D02*
Y1349897D01*
X1387094Y1346289D02*
Y1349896D01*
X1387114Y1346289D02*
Y1349893D01*
X1387134Y1346289D02*
Y1349891D01*
X1387154Y1346289D02*
Y1349888D01*
X1387173Y1346289D02*
Y1349884D01*
X1387193Y1346289D02*
Y1349880D01*
X1387213Y1346289D02*
Y1349875D01*
X1387232Y1346289D02*
Y1349870D01*
X1387252Y1346289D02*
Y1349865D01*
X1387272Y1346289D02*
Y1349859D01*
X1387291Y1346289D02*
Y1349852D01*
X1387311Y1346289D02*
Y1349844D01*
X1387331Y1346289D02*
Y1349837D01*
X1387350Y1346289D02*
Y1349828D01*
X1387370Y1346289D02*
Y1349819D01*
X1387390Y1346289D02*
Y1349809D01*
X1387409Y1346289D02*
Y1349799D01*
X1387429Y1346289D02*
Y1349788D01*
X1387449Y1346289D02*
Y1349776D01*
X1387469Y1346289D02*
Y1349763D01*
X1387488Y1346289D02*
Y1349750D01*
X1387508Y1346289D02*
Y1349736D01*
X1387528Y1346289D02*
Y1349720D01*
X1387547Y1346289D02*
Y1349704D01*
X1387567Y1346289D02*
Y1349687D01*
X1387587Y1346289D02*
Y1349668D01*
X1387606Y1346289D02*
Y1349649D01*
X1387626Y1346290D02*
Y1349627D01*
X1387646Y1346293D02*
Y1349605D01*
X1387665Y1346297D02*
Y1349580D01*
X1387685Y1346304D02*
Y1349554D01*
X1387705Y1346312D02*
Y1349524D01*
X1387724Y1346322D02*
Y1349493D01*
X1387744Y1346335D02*
Y1349457D01*
X1387764Y1346352D02*
Y1349416D01*
X1387783Y1346373D02*
Y1349369D01*
X1387803Y1346401D02*
Y1349310D01*
X1387823Y1346442D02*
Y1349227D01*
X1388984Y1349900D02*
X1388940Y1349898D01*
X1388896Y1349895*
X1388896D02*
X1388851Y1349889D01*
X1388808Y1349880*
X1388765Y1349870*
X1388722Y1349857*
X1388680Y1349841*
X1388640Y1349824*
X1388600Y1349804*
X1388561Y1349782*
X1388524Y1349758*
X1388487Y1349732*
X1388453Y1349704*
X1388420Y1349675*
X1388388Y1349643*
X1388359Y1349610*
X1388331Y1349576*
X1388305Y1349539*
X1388281Y1349502*
X1388259Y1349463*
X1388239Y1349423*
X1388222Y1349383*
X1388206Y1349341*
X1388193Y1349298*
X1388183Y1349255*
X1388174Y1349212*
X1388168Y1349167*
X1388165Y1349123*
X1388163Y1349079*
Y1346520*
X1388164Y1346497*
X1388168Y1346475*
X1388173Y1346453*
X1388181Y1346432*
X1388191Y1346411*
X1388202Y1346392*
X1388216Y1346374*
X1388231Y1346357*
X1388248Y1346342*
X1388266Y1346328*
X1388285Y1346317*
X1388306Y1346307*
X1388327Y1346299*
X1388349Y1346294*
X1388371Y1346290*
X1388394Y1346289*
X1389575*
X1389597Y1346290*
X1389620Y1346294*
X1389642Y1346299*
X1389663Y1346307*
X1389683Y1346317*
X1389703Y1346328*
X1389721Y1346342*
X1389738Y1346357*
X1389753Y1346374*
X1389766Y1346392*
X1389778Y1346411*
X1389788Y1346432*
X1389795Y1346453*
X1389801Y1346475*
X1389804Y1346497*
X1389805Y1346520*
Y1349079*
X1389804Y1349123*
X1389800Y1349167*
X1389794Y1349212*
X1389786Y1349255*
X1389775Y1349298*
X1389762Y1349341*
X1389747Y1349383*
X1389729Y1349423*
X1389709Y1349463*
X1389688Y1349502*
X1389664Y1349539*
X1389638Y1349576*
X1389610Y1349610*
X1389580Y1349643*
X1389549Y1349675*
X1389516Y1349704*
X1389481Y1349732*
X1389445Y1349758*
X1389407Y1349782*
X1389369Y1349804*
X1389329Y1349824*
X1389288Y1349841*
X1389246Y1349857*
X1389204Y1349870*
X1389161Y1349880*
X1389117Y1349889*
X1389073Y1349895*
X1389029Y1349898*
X1388984Y1349900*
X1388177Y1346442D02*
Y1349227D01*
X1388197Y1346401D02*
Y1349310D01*
X1388217Y1346373D02*
Y1349369D01*
X1388236Y1346352D02*
Y1349416D01*
X1388256Y1346335D02*
Y1349457D01*
X1388276Y1346322D02*
Y1349493D01*
X1388295Y1346312D02*
Y1349524D01*
X1388315Y1346304D02*
Y1349554D01*
X1388335Y1346297D02*
Y1349580D01*
X1388354Y1346293D02*
Y1349605D01*
X1388374Y1346290D02*
Y1349627D01*
X1388394Y1346289D02*
Y1349649D01*
X1388413Y1346289D02*
Y1349668D01*
X1388433Y1346289D02*
Y1349687D01*
X1388453Y1346289D02*
Y1349704D01*
X1388472Y1346289D02*
Y1349720D01*
X1388492Y1346289D02*
Y1349736D01*
X1388512Y1346289D02*
Y1349750D01*
X1388531Y1346289D02*
Y1349763D01*
X1388551Y1346289D02*
Y1349776D01*
X1388571Y1346289D02*
Y1349788D01*
X1388591Y1346289D02*
Y1349799D01*
X1388610Y1346289D02*
Y1349809D01*
X1388630Y1346289D02*
Y1349819D01*
X1388650Y1346289D02*
Y1349828D01*
X1388669Y1346289D02*
Y1349837D01*
X1388689Y1346289D02*
Y1349844D01*
X1388709Y1346289D02*
Y1349852D01*
X1388728Y1346289D02*
Y1349859D01*
X1388748Y1346289D02*
Y1349865D01*
X1388768Y1346289D02*
Y1349870D01*
X1388787Y1346289D02*
Y1349875D01*
X1388807Y1346289D02*
Y1349880D01*
X1388827Y1346289D02*
Y1349884D01*
X1388846Y1346289D02*
Y1349888D01*
X1388866Y1346289D02*
Y1349891D01*
X1388886Y1346289D02*
Y1349893D01*
X1388906Y1346289D02*
Y1349896D01*
X1388925Y1346289D02*
Y1349897D01*
X1388945Y1346289D02*
Y1349899D01*
X1388965Y1346289D02*
Y1349899D01*
X1388984Y1346289D02*
Y1349900D01*
X1389004Y1346289D02*
Y1349899D01*
X1389024Y1346289D02*
Y1349899D01*
X1389043Y1346289D02*
Y1349897D01*
X1389063Y1346289D02*
Y1349896D01*
X1389083Y1346289D02*
Y1349893D01*
X1389102Y1346289D02*
Y1349891D01*
X1389122Y1346289D02*
Y1349888D01*
X1389142Y1346289D02*
Y1349884D01*
X1389161Y1346289D02*
Y1349880D01*
X1389181Y1346289D02*
Y1349875D01*
X1389201Y1346289D02*
Y1349870D01*
X1389220Y1346289D02*
Y1349865D01*
X1389240Y1346289D02*
Y1349859D01*
X1389260Y1346289D02*
Y1349852D01*
X1389280Y1346289D02*
Y1349844D01*
X1389299Y1346289D02*
Y1349837D01*
X1389319Y1346289D02*
Y1349828D01*
X1389339Y1346289D02*
Y1349819D01*
X1389358Y1346289D02*
Y1349809D01*
X1389378Y1346289D02*
Y1349799D01*
X1389398Y1346289D02*
Y1349788D01*
X1389417Y1346289D02*
Y1349776D01*
X1389437Y1346289D02*
Y1349763D01*
X1389457Y1346289D02*
Y1349750D01*
X1389476Y1346289D02*
Y1349736D01*
X1389496Y1346289D02*
Y1349720D01*
X1389516Y1346289D02*
Y1349704D01*
X1389535Y1346289D02*
Y1349687D01*
X1389555Y1346289D02*
Y1349668D01*
X1389575Y1346289D02*
Y1349649D01*
X1389594Y1346290D02*
Y1349627D01*
X1389614Y1346293D02*
Y1349605D01*
X1389634Y1346297D02*
Y1349580D01*
X1389654Y1346304D02*
Y1349554D01*
X1389673Y1346312D02*
Y1349524D01*
X1389693Y1346322D02*
Y1349493D01*
X1389713Y1346335D02*
Y1349457D01*
X1389732Y1346352D02*
Y1349416D01*
X1389752Y1346373D02*
Y1349369D01*
X1389772Y1346401D02*
Y1349310D01*
X1389791Y1346442D02*
Y1349227D01*
X1390953Y1349900D02*
X1390908Y1349898D01*
X1390864Y1349895*
X1390820Y1349889*
X1390776Y1349880*
X1390733Y1349870*
X1390691Y1349857*
X1390649Y1349841*
X1390608Y1349824*
X1390568Y1349804*
X1390530Y1349782*
X1390492Y1349758*
X1390456Y1349732*
X1390421Y1349704*
X1390388Y1349675*
X1390357Y1349643*
X1390327Y1349610*
X1390299Y1349576*
X1390273Y1349539*
X1390249Y1349502*
X1390228Y1349463*
X1390208Y1349423*
X1390190Y1349383*
X1390175Y1349341*
X1390162Y1349298*
X1390151Y1349255*
X1390143Y1349212*
X1390137Y1349167*
X1390133Y1349123*
X1390132Y1349079*
Y1346520*
X1390133Y1346497*
X1390136Y1346475*
X1390142Y1346453*
X1390149Y1346432*
X1390159Y1346411*
X1390171Y1346392*
X1390184Y1346374*
X1390199Y1346357*
X1390216Y1346342*
X1390234Y1346328*
X1390254Y1346317*
X1390274Y1346307*
X1390295Y1346299*
X1390317Y1346294*
X1390340Y1346290*
X1390362Y1346289*
X1391543*
X1391566Y1346290*
X1391588Y1346294*
X1391610Y1346299*
X1391631Y1346307*
X1391652Y1346317*
X1391671Y1346328*
X1391689Y1346342*
X1391706Y1346357*
X1391721Y1346374*
X1391735Y1346392*
X1391746Y1346411*
X1391756Y1346432*
X1391764Y1346453*
X1391769Y1346475*
X1391773Y1346497*
X1391774Y1346520*
Y1349079*
X1391772Y1349123*
X1391769Y1349167*
X1391763Y1349212*
X1391754Y1349255*
X1391744Y1349298*
X1391731Y1349341*
X1391715Y1349383*
X1391698Y1349423*
X1391678Y1349463*
X1391656Y1349502*
X1391632Y1349539*
X1391606Y1349576*
X1391578Y1349610*
X1391549Y1349643*
X1391517Y1349675*
X1391484Y1349704*
X1391450Y1349732*
X1391413Y1349758*
X1391376Y1349782*
X1391337Y1349804*
X1391297Y1349824*
X1391257Y1349841*
X1391215Y1349857*
X1391172Y1349870*
X1391129Y1349880*
X1391086Y1349889*
X1391042Y1349895*
X1390997Y1349898*
X1390953Y1349900*
X1390146Y1346442D02*
Y1349227D01*
X1390165Y1346401D02*
Y1349310D01*
X1390185Y1346373D02*
Y1349369D01*
X1390205Y1346352D02*
Y1349416D01*
X1390224Y1346335D02*
Y1349457D01*
X1390244Y1346322D02*
Y1349493D01*
X1390264Y1346312D02*
Y1349524D01*
X1390283Y1346304D02*
Y1349554D01*
X1390303Y1346297D02*
Y1349580D01*
X1390323Y1346293D02*
Y1349605D01*
X1390343Y1346290D02*
Y1349627D01*
X1390362Y1346289D02*
Y1349649D01*
X1390382Y1346289D02*
Y1349668D01*
X1390402Y1346289D02*
Y1349687D01*
X1390421Y1346289D02*
Y1349704D01*
X1390441Y1346289D02*
Y1349720D01*
X1390461Y1346289D02*
Y1349736D01*
X1390480Y1346289D02*
Y1349750D01*
X1390500Y1346289D02*
Y1349763D01*
X1390520Y1346289D02*
Y1349776D01*
X1390539Y1346289D02*
Y1349788D01*
X1390559Y1346289D02*
Y1349799D01*
X1390579Y1346289D02*
Y1349809D01*
X1390598Y1346289D02*
Y1349819D01*
X1390618Y1346289D02*
Y1349828D01*
X1390638Y1346289D02*
Y1349837D01*
X1390657Y1346289D02*
Y1349844D01*
X1390677Y1346289D02*
Y1349852D01*
X1390697Y1346289D02*
Y1349859D01*
X1390717Y1346289D02*
Y1349865D01*
X1390736Y1346289D02*
Y1349870D01*
X1390756Y1346289D02*
Y1349875D01*
X1390776Y1346289D02*
Y1349880D01*
X1390795Y1346289D02*
Y1349884D01*
X1390815Y1346289D02*
Y1349888D01*
X1390835Y1346289D02*
Y1349891D01*
X1390854Y1346289D02*
Y1349893D01*
X1390874Y1346289D02*
Y1349896D01*
X1390894Y1346289D02*
Y1349897D01*
X1390913Y1346289D02*
Y1349899D01*
X1390933Y1346289D02*
Y1349899D01*
X1390953Y1346289D02*
Y1349900D01*
X1390972Y1346289D02*
Y1349899D01*
X1390992Y1346289D02*
Y1349899D01*
X1391012Y1346289D02*
Y1349897D01*
X1391031Y1346289D02*
Y1349896D01*
X1391051Y1346289D02*
Y1349893D01*
X1391071Y1346289D02*
Y1349891D01*
X1391091Y1346289D02*
Y1349888D01*
X1391110Y1346289D02*
Y1349884D01*
X1391130Y1346289D02*
Y1349880D01*
X1391150Y1346289D02*
Y1349875D01*
X1391169Y1346289D02*
Y1349870D01*
X1391189Y1346289D02*
Y1349865D01*
X1391209Y1346289D02*
Y1349859D01*
X1391228Y1346289D02*
Y1349852D01*
X1391248Y1346289D02*
Y1349844D01*
X1391268Y1346289D02*
Y1349837D01*
X1391287Y1346289D02*
Y1349828D01*
X1391307Y1346289D02*
Y1349819D01*
X1391327Y1346289D02*
Y1349809D01*
X1391346Y1346289D02*
Y1349799D01*
X1391366Y1346289D02*
Y1349788D01*
X1391386Y1346289D02*
Y1349776D01*
X1391406Y1346289D02*
Y1349763D01*
X1391425Y1346289D02*
Y1349750D01*
X1391445Y1346289D02*
Y1349736D01*
X1391465Y1346289D02*
Y1349720D01*
X1391484Y1346289D02*
Y1349704D01*
X1391504Y1346289D02*
Y1349687D01*
X1391524Y1346289D02*
Y1349668D01*
X1391543Y1346289D02*
Y1349649D01*
X1391563Y1346290D02*
Y1349627D01*
X1391583Y1346293D02*
Y1349605D01*
X1391602Y1346297D02*
Y1349580D01*
X1391622Y1346304D02*
Y1349554D01*
X1391642Y1346312D02*
Y1349524D01*
X1391661Y1346322D02*
Y1349493D01*
X1391681Y1346335D02*
Y1349457D01*
X1391701Y1346352D02*
Y1349416D01*
X1391720Y1346373D02*
Y1349369D01*
X1391740Y1346401D02*
Y1349310D01*
X1391760Y1346442D02*
Y1349227D01*
X1392921Y1351868D02*
X1392877Y1351867D01*
X1392833Y1351863*
X1392788Y1351857*
X1392745Y1351849*
X1392702Y1351838*
X1392659Y1351825*
X1392617Y1351810*
X1392577Y1351792*
X1392537Y1351772*
X1392498Y1351751*
X1392461Y1351727*
X1392424Y1351701*
X1392390Y1351673*
X1392357Y1351643*
X1392325Y1351612*
X1392296Y1351579*
X1392268Y1351544*
X1392242Y1351508*
X1392218Y1351470*
X1392196Y1351432*
X1392176Y1351392*
X1392159Y1351351*
X1392143Y1351309*
X1392130Y1351267*
X1392120Y1351224*
X1392111Y1351180*
X1392105Y1351136*
X1392102Y1351092*
X1392100Y1351047*
X1392102Y1351003*
X1392105Y1350958*
X1392111Y1350914*
X1392120Y1350871*
X1392130Y1350828*
X1392143Y1350785*
X1392159Y1350743*
X1392176Y1350703*
X1392196Y1350663*
X1392218Y1350624*
X1392242Y1350587*
X1392268Y1350550*
X1392296Y1350516*
X1392325Y1350483*
X1392357Y1350451*
X1392390Y1350422*
X1392424Y1350394*
X1392461Y1350368*
X1392498Y1350344*
X1392537Y1350322*
X1392577Y1350302*
X1392617Y1350285*
X1392659Y1350269*
X1392702Y1350256*
X1392745Y1350246*
X1392788Y1350237*
X1392833Y1350231*
X1392877Y1350228*
X1392921Y1350226*
X1395480*
X1395503Y1350227*
X1395525Y1350231*
X1395547Y1350236*
X1395568Y1350244*
X1395589Y1350254*
X1395608Y1350265*
X1395626Y1350279*
X1395643Y1350294*
X1395658Y1350311*
X1395672Y1350329*
X1395683Y1350348*
X1395693Y1350369*
X1395701Y1350390*
X1395706Y1350412*
X1395710Y1350434*
X1395711Y1350457*
Y1351638*
X1395710Y1351660*
X1395706Y1351683*
X1395701Y1351705*
X1395693Y1351726*
X1395683Y1351746*
X1395672Y1351766*
X1395658Y1351784*
X1395643Y1351801*
X1395626Y1351816*
X1395608Y1351829*
X1395589Y1351841*
X1395568Y1351851*
X1395547Y1351858*
X1395525Y1351864*
X1395503Y1351867*
X1395480Y1351868*
X1392921*
X1392114Y1350899D02*
Y1351196D01*
X1392134Y1350816D02*
Y1351278D01*
X1392154Y1350757D02*
Y1351337D01*
X1392173Y1350710D02*
Y1351385D01*
X1392193Y1350669D02*
Y1351425D01*
X1392213Y1350633D02*
Y1351461D01*
X1392232Y1350602D02*
Y1351493D01*
X1392252Y1350572D02*
Y1351522D01*
X1392272Y1350546D02*
Y1351549D01*
X1392291Y1350521D02*
Y1351573D01*
X1392311Y1350499D02*
Y1351596D01*
X1392331Y1350477D02*
Y1351617D01*
X1392350Y1350458D02*
Y1351637D01*
X1392370Y1350439D02*
Y1351655D01*
X1392390Y1350422D02*
Y1351673D01*
X1392409Y1350406D02*
Y1351689D01*
X1392429Y1350390D02*
Y1351704D01*
X1392449Y1350376D02*
Y1351718D01*
X1392469Y1350363D02*
Y1351732D01*
X1392488Y1350350D02*
Y1351744D01*
X1392508Y1350338D02*
Y1351756D01*
X1392528Y1350327D02*
Y1351767D01*
X1392547Y1350317D02*
Y1351778D01*
X1392567Y1350307D02*
Y1351787D01*
X1392587Y1350298D02*
Y1351797D01*
X1392606Y1350289D02*
Y1351805D01*
X1392626Y1350282D02*
Y1351813D01*
X1392646Y1350274D02*
Y1351820D01*
X1392665Y1350267D02*
Y1351827D01*
X1392685Y1350261D02*
Y1351833D01*
X1392705Y1350256D02*
Y1351839D01*
X1392724Y1350251D02*
Y1351844D01*
X1392744Y1350246D02*
Y1351849D01*
X1392764Y1350242D02*
Y1351853D01*
X1392783Y1350238D02*
Y1351856D01*
X1392803Y1350235D02*
Y1351859D01*
X1392823Y1350233D02*
Y1351862D01*
X1392843Y1350230D02*
Y1351864D01*
X1392862Y1350229D02*
Y1351866D01*
X1392882Y1350227D02*
Y1351867D01*
X1392902Y1350227D02*
Y1351868D01*
X1392921Y1350226D02*
Y1351868D01*
X1392941Y1350226D02*
Y1351868D01*
X1392961Y1350226D02*
Y1351868D01*
X1392980Y1350226D02*
Y1351868D01*
X1393000Y1350226D02*
Y1351868D01*
X1393020Y1350226D02*
Y1351868D01*
X1393039Y1350226D02*
Y1351868D01*
X1393059Y1350226D02*
Y1351868D01*
X1393079Y1350226D02*
Y1351868D01*
X1393098Y1350226D02*
Y1351868D01*
X1393118Y1350226D02*
Y1351868D01*
X1393138Y1350226D02*
Y1351868D01*
X1393157Y1350226D02*
Y1351868D01*
X1393177Y1350226D02*
Y1351868D01*
X1393197Y1350226D02*
Y1351868D01*
X1393217Y1350226D02*
Y1351868D01*
X1393236Y1350226D02*
Y1351868D01*
X1393256Y1350226D02*
Y1351868D01*
X1393276Y1350226D02*
Y1351868D01*
X1393295Y1350226D02*
Y1351868D01*
X1393315Y1350226D02*
Y1351868D01*
X1393335Y1350226D02*
Y1351868D01*
X1393354Y1350226D02*
Y1351868D01*
X1393374Y1350226D02*
Y1351868D01*
X1393394Y1350226D02*
Y1351868D01*
X1393413Y1350226D02*
Y1351868D01*
X1393433Y1350226D02*
Y1351868D01*
X1393453Y1350226D02*
Y1351868D01*
X1393472Y1350226D02*
Y1351868D01*
X1393492Y1350226D02*
Y1351868D01*
X1393512Y1350226D02*
Y1351868D01*
X1393531Y1350226D02*
Y1351868D01*
X1393551Y1350226D02*
Y1351868D01*
X1393571Y1350226D02*
Y1351868D01*
X1393591Y1350226D02*
Y1351868D01*
X1393610Y1350226D02*
Y1351868D01*
X1393630Y1350226D02*
Y1351868D01*
X1393650Y1350226D02*
Y1351868D01*
X1393669Y1350226D02*
Y1351868D01*
X1393689Y1350226D02*
Y1351868D01*
X1393709Y1350226D02*
Y1351868D01*
X1393728Y1350226D02*
Y1351868D01*
X1393748Y1350226D02*
Y1351868D01*
X1393768Y1350226D02*
Y1351868D01*
X1393787Y1350226D02*
Y1351868D01*
X1393807Y1350226D02*
Y1351868D01*
X1393827Y1350226D02*
Y1351868D01*
X1393846Y1350226D02*
Y1351868D01*
X1393866Y1350226D02*
Y1351868D01*
X1393886Y1350226D02*
Y1351868D01*
X1393906Y1350226D02*
Y1351868D01*
X1393925Y1350226D02*
Y1351868D01*
X1393945Y1350226D02*
Y1351868D01*
X1393965Y1350226D02*
Y1351868D01*
X1393984Y1350226D02*
Y1351868D01*
X1394004Y1350226D02*
Y1351868D01*
X1394024Y1350226D02*
Y1351868D01*
X1394043Y1350226D02*
Y1351868D01*
X1394063Y1350226D02*
Y1351868D01*
X1394083Y1350226D02*
Y1351868D01*
X1394102Y1350226D02*
Y1351868D01*
X1394122Y1350226D02*
Y1351868D01*
X1394142Y1350226D02*
Y1351868D01*
X1394161Y1350226D02*
Y1351868D01*
X1394181Y1350226D02*
Y1351868D01*
X1394201Y1350226D02*
Y1351868D01*
X1394220Y1350226D02*
Y1351868D01*
X1394240Y1350226D02*
Y1351868D01*
X1394260Y1350226D02*
Y1351868D01*
X1394280Y1350226D02*
Y1351868D01*
X1394299Y1350226D02*
Y1351868D01*
X1394319Y1350226D02*
Y1351868D01*
X1394339Y1350226D02*
Y1351868D01*
X1394358Y1350226D02*
Y1351868D01*
X1394378Y1350226D02*
Y1351868D01*
X1394398Y1350226D02*
Y1351868D01*
X1394417Y1350226D02*
Y1351868D01*
X1394437Y1350226D02*
Y1351868D01*
X1394457Y1350226D02*
Y1351868D01*
X1394476Y1350226D02*
Y1351868D01*
X1394496Y1350226D02*
Y1351868D01*
X1394516Y1350226D02*
Y1351868D01*
X1394535Y1350226D02*
Y1351868D01*
X1394555Y1350226D02*
Y1351868D01*
X1394575Y1350226D02*
Y1351868D01*
X1394594Y1350226D02*
Y1351868D01*
X1394614Y1350226D02*
Y1351868D01*
X1394634Y1350226D02*
Y1351868D01*
X1394654Y1350226D02*
Y1351868D01*
X1394673Y1350226D02*
Y1351868D01*
X1394693Y1350226D02*
Y1351868D01*
X1394713Y1350226D02*
Y1351868D01*
X1394732Y1350226D02*
Y1351868D01*
X1394752Y1350226D02*
Y1351868D01*
X1394772Y1350226D02*
Y1351868D01*
X1394791Y1350226D02*
Y1351868D01*
X1394811Y1350226D02*
Y1351868D01*
X1394831Y1350226D02*
Y1351868D01*
X1394850Y1350226D02*
Y1351868D01*
X1394870Y1350226D02*
Y1351868D01*
X1394890Y1350226D02*
Y1351868D01*
X1394909Y1350226D02*
Y1351868D01*
X1394929Y1350226D02*
Y1351868D01*
X1394949Y1350226D02*
Y1351868D01*
X1394969Y1350226D02*
Y1351868D01*
X1394988Y1350226D02*
Y1351868D01*
X1395008Y1350226D02*
Y1351868D01*
X1395028Y1350226D02*
Y1351868D01*
X1395047Y1350226D02*
Y1351868D01*
X1395067Y1350226D02*
Y1351868D01*
X1395087Y1350226D02*
Y1351868D01*
X1395106Y1350226D02*
Y1351868D01*
X1395126Y1350226D02*
Y1351868D01*
X1395146Y1350226D02*
Y1351868D01*
X1395165Y1350226D02*
Y1351868D01*
X1395185Y1350226D02*
Y1351868D01*
X1395205Y1350226D02*
Y1351868D01*
X1395224Y1350226D02*
Y1351868D01*
X1395244Y1350226D02*
Y1351868D01*
X1395264Y1350226D02*
Y1351868D01*
X1395283Y1350226D02*
Y1351868D01*
X1395303Y1350226D02*
Y1351868D01*
X1395323Y1350226D02*
Y1351868D01*
X1395343Y1350226D02*
Y1351868D01*
X1395362Y1350226D02*
Y1351868D01*
X1395382Y1350226D02*
Y1351868D01*
X1395402Y1350226D02*
Y1351868D01*
X1395421Y1350226D02*
Y1351868D01*
X1395441Y1350226D02*
Y1351868D01*
X1395461Y1350226D02*
Y1351868D01*
X1395480Y1350226D02*
Y1351868D01*
X1395500Y1350227D02*
Y1351867D01*
X1395520Y1350230D02*
Y1351865D01*
X1395539Y1350234D02*
Y1351860D01*
X1395559Y1350241D02*
Y1351854D01*
X1395579Y1350249D02*
Y1351846D01*
X1395598Y1350259D02*
Y1351835D01*
X1395618Y1350272D02*
Y1351822D01*
X1395638Y1350289D02*
Y1351806D01*
X1395657Y1350310D02*
Y1351785D01*
X1395677Y1350338D02*
Y1351757D01*
X1395697Y1350379D02*
Y1351715D01*
X1392921Y1353837D02*
X1392877Y1353835D01*
X1392833Y1353832*
X1392788Y1353826*
X1392745Y1353817*
X1392702Y1353807*
X1392659Y1353794*
X1392617Y1353778*
X1392577Y1353761*
X1392537Y1353741*
X1392498Y1353719*
X1392461Y1353695*
X1392424Y1353669*
X1392390Y1353641*
X1392357Y1353612*
X1392325Y1353580*
X1392296Y1353547*
X1392268Y1353513*
X1392242Y1353476*
X1392218Y1353439*
X1392196Y1353400*
X1392176Y1353360*
X1392159Y1353320*
X1392143Y1353278*
X1392130Y1353235*
X1392120Y1353192*
X1392111Y1353149*
X1392105Y1353104*
X1392105D02*
X1392102Y1353060D01*
X1392100Y1353016*
X1392102Y1352971*
X1392105Y1352927*
X1392111Y1352883*
X1392120Y1352839*
X1392130Y1352796*
X1392143Y1352754*
X1392159Y1352712*
X1392176Y1352671*
X1392196Y1352631*
X1392218Y1352593*
X1392242Y1352555*
X1392268Y1352519*
X1392296Y1352484*
X1392325Y1352451*
X1392357Y1352420*
X1392390Y1352390*
X1392424Y1352362*
X1392461Y1352336*
X1392498Y1352312*
X1392537Y1352291*
X1392577Y1352271*
X1392617Y1352253*
X1392659Y1352238*
X1392702Y1352225*
X1392745Y1352214*
X1392788Y1352206*
X1392833Y1352200*
X1392877Y1352196*
X1392921Y1352195*
X1395480*
X1395503Y1352196*
X1395525Y1352199*
X1395547Y1352205*
X1395568Y1352212*
X1395589Y1352222*
X1395608Y1352234*
X1395626Y1352247*
X1395643Y1352262*
X1395658Y1352279*
X1395672Y1352297*
X1395683Y1352317*
X1395693Y1352337*
X1395701Y1352358*
X1395706Y1352380*
X1395710Y1352403*
X1395711Y1352425*
Y1353606*
X1395710Y1353629*
X1395706Y1353651*
X1395701Y1353673*
X1395693Y1353694*
X1395683Y1353715*
X1395672Y1353734*
X1395658Y1353752*
X1395643Y1353769*
X1395626Y1353784*
X1395608Y1353798*
X1395589Y1353809*
X1395568Y1353819*
X1395547Y1353827*
X1395525Y1353832*
X1395503Y1353836*
X1395480Y1353837*
X1392921*
X1392114Y1352867D02*
Y1353164D01*
X1392134Y1352785D02*
Y1353247D01*
X1392154Y1352726D02*
Y1353306D01*
X1392173Y1352678D02*
Y1353353D01*
X1392193Y1352638D02*
Y1353394D01*
X1392213Y1352602D02*
Y1353430D01*
X1392232Y1352570D02*
Y1353461D01*
X1392252Y1352541D02*
Y1353491D01*
X1392272Y1352514D02*
Y1353517D01*
X1392291Y1352490D02*
Y1353542D01*
X1392311Y1352467D02*
Y1353564D01*
X1392331Y1352446D02*
Y1353586D01*
X1392350Y1352426D02*
Y1353605D01*
X1392370Y1352408D02*
Y1353624D01*
X1392390Y1352390D02*
Y1353641D01*
X1392409Y1352374D02*
Y1353657D01*
X1392429Y1352359D02*
Y1353673D01*
X1392449Y1352345D02*
Y1353687D01*
X1392469Y1352331D02*
Y1353700D01*
X1392488Y1352319D02*
Y1353713D01*
X1392508Y1352307D02*
Y1353725D01*
X1392528Y1352296D02*
Y1353736D01*
X1392547Y1352285D02*
Y1353746D01*
X1392567Y1352276D02*
Y1353756D01*
X1392587Y1352266D02*
Y1353765D01*
X1392606Y1352258D02*
Y1353774D01*
X1392626Y1352250D02*
Y1353781D01*
X1392646Y1352243D02*
Y1353789D01*
X1392665Y1352236D02*
Y1353796D01*
X1392685Y1352230D02*
Y1353802D01*
X1392705Y1352224D02*
Y1353807D01*
X1392724Y1352219D02*
Y1353812D01*
X1392744Y1352214D02*
Y1353817D01*
X1392764Y1352210D02*
Y1353821D01*
X1392783Y1352207D02*
Y1353825D01*
X1392803Y1352204D02*
Y1353828D01*
X1392823Y1352201D02*
Y1353830D01*
X1392843Y1352199D02*
Y1353833D01*
X1392862Y1352197D02*
Y1353834D01*
X1392882Y1352196D02*
Y1353836D01*
X1392902Y1352195D02*
Y1353836D01*
X1392921Y1352195D02*
Y1353837D01*
X1392941Y1352195D02*
Y1353837D01*
X1392961Y1352195D02*
Y1353837D01*
X1392980Y1352195D02*
Y1353837D01*
X1393000Y1352195D02*
Y1353837D01*
X1393020Y1352195D02*
Y1353837D01*
X1393039Y1352195D02*
Y1353837D01*
X1393059Y1352195D02*
Y1353837D01*
X1393079Y1352195D02*
Y1353837D01*
X1393098Y1352195D02*
Y1353837D01*
X1393118Y1352195D02*
Y1353837D01*
X1393138Y1352195D02*
Y1353837D01*
X1393157Y1352195D02*
Y1353837D01*
X1393177Y1352195D02*
Y1353837D01*
X1393197Y1352195D02*
Y1353837D01*
X1393217Y1352195D02*
Y1353837D01*
X1393236Y1352195D02*
Y1353837D01*
X1393256Y1352195D02*
Y1353837D01*
X1393276Y1352195D02*
Y1353837D01*
X1393295Y1352195D02*
Y1353837D01*
X1393315Y1352195D02*
Y1353837D01*
X1393335Y1352195D02*
Y1353837D01*
X1393354Y1352195D02*
Y1353837D01*
X1393374Y1352195D02*
Y1353837D01*
X1393394Y1352195D02*
Y1353837D01*
X1393413Y1352195D02*
Y1353837D01*
X1393433Y1352195D02*
Y1353837D01*
X1393453Y1352195D02*
Y1353837D01*
X1393472Y1352195D02*
Y1353837D01*
X1393492Y1352195D02*
Y1353837D01*
X1393512Y1352195D02*
Y1353837D01*
X1393531Y1352195D02*
Y1353837D01*
X1393551Y1352195D02*
Y1353837D01*
X1393571Y1352195D02*
Y1353837D01*
X1393591Y1352195D02*
Y1353837D01*
X1393610Y1352195D02*
Y1353837D01*
X1393630Y1352195D02*
Y1353837D01*
X1393650Y1352195D02*
Y1353837D01*
X1393669Y1352195D02*
Y1353837D01*
X1393689Y1352195D02*
Y1353837D01*
X1393709Y1352195D02*
Y1353837D01*
X1393728Y1352195D02*
Y1353837D01*
X1393748Y1352195D02*
Y1353837D01*
X1393768Y1352195D02*
Y1353837D01*
X1393787Y1352195D02*
Y1353837D01*
X1393807Y1352195D02*
Y1353837D01*
X1393827Y1352195D02*
Y1353837D01*
X1393846Y1352195D02*
Y1353837D01*
X1393866Y1352195D02*
Y1353837D01*
X1393886Y1352195D02*
Y1353837D01*
X1393906Y1352195D02*
Y1353837D01*
X1393925Y1352195D02*
Y1353837D01*
X1393945Y1352195D02*
Y1353837D01*
X1393965Y1352195D02*
Y1353837D01*
X1393984Y1352195D02*
Y1353837D01*
X1394004Y1352195D02*
Y1353837D01*
X1394024Y1352195D02*
Y1353837D01*
X1394043Y1352195D02*
Y1353837D01*
X1394063Y1352195D02*
Y1353837D01*
X1394083Y1352195D02*
Y1353837D01*
X1394102Y1352195D02*
Y1353837D01*
X1394122Y1352195D02*
Y1353837D01*
X1394142Y1352195D02*
Y1353837D01*
X1394161Y1352195D02*
Y1353837D01*
X1394181Y1352195D02*
Y1353837D01*
X1394201Y1352195D02*
Y1353837D01*
X1394220Y1352195D02*
Y1353837D01*
X1394240Y1352195D02*
Y1353837D01*
X1394260Y1352195D02*
Y1353837D01*
X1394280Y1352195D02*
Y1353837D01*
X1394299Y1352195D02*
Y1353837D01*
X1394319Y1352195D02*
Y1353837D01*
X1394339Y1352195D02*
Y1353837D01*
X1394358Y1352195D02*
Y1353837D01*
X1394378Y1352195D02*
Y1353837D01*
X1394398Y1352195D02*
Y1353837D01*
X1394417Y1352195D02*
Y1353837D01*
X1394437Y1352195D02*
Y1353837D01*
X1394457Y1352195D02*
Y1353837D01*
X1394476Y1352195D02*
Y1353837D01*
X1394496Y1352195D02*
Y1353837D01*
X1394516Y1352195D02*
Y1353837D01*
X1394535Y1352195D02*
Y1353837D01*
X1394555Y1352195D02*
Y1353837D01*
X1394575Y1352195D02*
Y1353837D01*
X1394594Y1352195D02*
Y1353837D01*
X1394614Y1352195D02*
Y1353837D01*
X1394634Y1352195D02*
Y1353837D01*
X1394654Y1352195D02*
Y1353837D01*
X1394673Y1352195D02*
Y1353837D01*
X1394693Y1352195D02*
Y1353837D01*
X1394713Y1352195D02*
Y1353837D01*
X1394732Y1352195D02*
Y1353837D01*
X1394752Y1352195D02*
Y1353837D01*
X1394772Y1352195D02*
Y1353837D01*
X1394791Y1352195D02*
Y1353837D01*
X1394811Y1352195D02*
Y1353837D01*
X1394831Y1352195D02*
Y1353837D01*
X1394850Y1352195D02*
Y1353837D01*
X1394870Y1352195D02*
Y1353837D01*
X1394890Y1352195D02*
Y1353837D01*
X1394909Y1352195D02*
Y1353837D01*
X1394929Y1352195D02*
Y1353837D01*
X1394949Y1352195D02*
Y1353837D01*
X1394969Y1352195D02*
Y1353837D01*
X1394988Y1352195D02*
Y1353837D01*
X1395008Y1352195D02*
Y1353837D01*
X1395028Y1352195D02*
Y1353837D01*
X1395047Y1352195D02*
Y1353837D01*
X1395067Y1352195D02*
Y1353837D01*
X1395087Y1352195D02*
Y1353837D01*
X1395106Y1352195D02*
Y1353837D01*
X1395126Y1352195D02*
Y1353837D01*
X1395146Y1352195D02*
Y1353837D01*
X1395165Y1352195D02*
Y1353837D01*
X1395185Y1352195D02*
Y1353837D01*
X1395205Y1352195D02*
Y1353837D01*
X1395224Y1352195D02*
Y1353837D01*
X1395244Y1352195D02*
Y1353837D01*
X1395264Y1352195D02*
Y1353837D01*
X1395283Y1352195D02*
Y1353837D01*
X1395303Y1352195D02*
Y1353837D01*
X1395323Y1352195D02*
Y1353837D01*
X1395343Y1352195D02*
Y1353837D01*
X1395362Y1352195D02*
Y1353837D01*
X1395382Y1352195D02*
Y1353837D01*
X1395402Y1352195D02*
Y1353837D01*
X1395421Y1352195D02*
Y1353837D01*
X1395441Y1352195D02*
Y1353837D01*
X1395461Y1352195D02*
Y1353837D01*
X1395480Y1352195D02*
Y1353837D01*
X1395500Y1352196D02*
Y1353836D01*
X1395520Y1352198D02*
Y1353833D01*
X1395539Y1352203D02*
Y1353829D01*
X1395559Y1352209D02*
Y1353822D01*
X1395579Y1352217D02*
Y1353814D01*
X1395598Y1352228D02*
Y1353804D01*
X1395618Y1352241D02*
Y1353791D01*
X1395638Y1352257D02*
Y1353774D01*
X1395657Y1352278D02*
Y1353753D01*
X1395677Y1352306D02*
Y1353725D01*
X1395697Y1352348D02*
Y1353684D01*
X1392921Y1355805D02*
X1392877Y1355804D01*
X1392833Y1355800*
X1392788Y1355794*
X1392745Y1355786*
X1392702Y1355775*
X1392659Y1355762*
X1392617Y1355747*
X1392577Y1355729*
X1392537Y1355709*
X1392498Y1355688*
X1392461Y1355664*
X1392424Y1355638*
X1392390Y1355610*
X1392357Y1355580*
X1392325Y1355549*
X1392296Y1355516*
X1392268Y1355481*
X1392242Y1355445*
X1392218Y1355407*
X1392196Y1355369*
X1392176Y1355329*
X1392159Y1355288*
X1392143Y1355246*
X1392130Y1355204*
X1392120Y1355161*
X1392111Y1355117*
X1392105Y1355073*
X1392102Y1355029*
X1392100Y1354984*
X1392102Y1354940*
X1392105Y1354896*
X1392105D02*
X1392111Y1354851D01*
X1392120Y1354808*
X1392130Y1354765*
X1392143Y1354722*
X1392159Y1354680*
X1392176Y1354640*
X1392196Y1354600*
X1392218Y1354561*
X1392242Y1354524*
X1392268Y1354487*
X1392296Y1354453*
X1392325Y1354420*
X1392357Y1354388*
X1392390Y1354359*
X1392424Y1354331*
X1392461Y1354305*
X1392498Y1354281*
X1392537Y1354259*
X1392577Y1354239*
X1392617Y1354222*
X1392659Y1354206*
X1392702Y1354193*
X1392745Y1354183*
X1392788Y1354174*
X1392833Y1354168*
X1392877Y1354165*
X1392921Y1354163*
X1395480*
X1395503Y1354164*
X1395525Y1354168*
X1395547Y1354173*
X1395568Y1354181*
X1395589Y1354191*
X1395608Y1354202*
X1395626Y1354216*
X1395643Y1354231*
X1395658Y1354248*
X1395672Y1354266*
X1395683Y1354285*
X1395693Y1354306*
X1395701Y1354327*
X1395706Y1354349*
X1395710Y1354371*
X1395711Y1354394*
Y1355575*
X1395710Y1355597*
X1395706Y1355620*
X1395701Y1355642*
X1395693Y1355663*
X1395683Y1355683*
X1395672Y1355703*
X1395658Y1355721*
X1395643Y1355738*
X1395626Y1355753*
X1395608Y1355766*
X1395589Y1355778*
X1395568Y1355788*
X1395547Y1355795*
X1395525Y1355801*
X1395503Y1355804*
X1395480Y1355805*
X1392921*
X1392114Y1354836D02*
Y1355133D01*
X1392134Y1354753D02*
Y1355215D01*
X1392154Y1354694D02*
Y1355274D01*
X1392173Y1354647D02*
Y1355322D01*
X1392193Y1354606D02*
Y1355362D01*
X1392213Y1354570D02*
Y1355398D01*
X1392232Y1354539D02*
Y1355430D01*
X1392252Y1354509D02*
Y1355459D01*
X1392272Y1354483D02*
Y1355486D01*
X1392291Y1354458D02*
Y1355510D01*
X1392311Y1354436D02*
Y1355533D01*
X1392331Y1354414D02*
Y1355554D01*
X1392350Y1354395D02*
Y1355574D01*
X1392370Y1354376D02*
Y1355592D01*
X1392390Y1354359D02*
Y1355610D01*
X1392409Y1354343D02*
Y1355626D01*
X1392429Y1354327D02*
Y1355641D01*
X1392449Y1354313D02*
Y1355655D01*
X1392469Y1354300D02*
Y1355669D01*
X1392488Y1354287D02*
Y1355681D01*
X1392508Y1354275D02*
Y1355693D01*
X1392528Y1354264D02*
Y1355704D01*
X1392547Y1354254D02*
Y1355715D01*
X1392567Y1354244D02*
Y1355724D01*
X1392587Y1354235D02*
Y1355734D01*
X1392606Y1354226D02*
Y1355742D01*
X1392626Y1354219D02*
Y1355750D01*
X1392646Y1354211D02*
Y1355757D01*
X1392665Y1354204D02*
Y1355764D01*
X1392685Y1354198D02*
Y1355770D01*
X1392705Y1354193D02*
Y1355776D01*
X1392724Y1354188D02*
Y1355781D01*
X1392744Y1354183D02*
Y1355786D01*
X1392764Y1354179D02*
Y1355790D01*
X1392783Y1354175D02*
Y1355793D01*
X1392803Y1354172D02*
Y1355796D01*
X1392823Y1354170D02*
Y1355799D01*
X1392843Y1354167D02*
Y1355801D01*
X1392862Y1354166D02*
Y1355803D01*
X1392882Y1354164D02*
Y1355804D01*
X1392902Y1354164D02*
Y1355805D01*
X1392921Y1354163D02*
Y1355805D01*
X1392941Y1354163D02*
Y1355805D01*
X1392961Y1354163D02*
Y1355805D01*
X1392980Y1354163D02*
Y1355805D01*
X1393000Y1354163D02*
Y1355805D01*
X1393020Y1354163D02*
Y1355805D01*
X1393039Y1354163D02*
Y1355805D01*
X1393059Y1354163D02*
Y1355805D01*
X1393079Y1354163D02*
Y1355805D01*
X1393098Y1354163D02*
Y1355805D01*
X1393118Y1354163D02*
Y1355805D01*
X1393138Y1354163D02*
Y1355805D01*
X1393157Y1354163D02*
Y1355805D01*
X1393177Y1354163D02*
Y1355805D01*
X1393197Y1354163D02*
Y1355805D01*
X1393217Y1354163D02*
Y1355805D01*
X1393236Y1354163D02*
Y1355805D01*
X1393256Y1354163D02*
Y1355805D01*
X1393276Y1354163D02*
Y1355805D01*
X1393295Y1354163D02*
Y1355805D01*
X1393315Y1354163D02*
Y1355805D01*
X1393335Y1354163D02*
Y1355805D01*
X1393354Y1354163D02*
Y1355805D01*
X1393374Y1354163D02*
Y1355805D01*
X1393394Y1354163D02*
Y1355805D01*
X1393413Y1354163D02*
Y1355805D01*
X1393433Y1354163D02*
Y1355805D01*
X1393453Y1354163D02*
Y1355805D01*
X1393472Y1354163D02*
Y1355805D01*
X1393492Y1354163D02*
Y1355805D01*
X1393512Y1354163D02*
Y1355805D01*
X1393531Y1354163D02*
Y1355805D01*
X1393551Y1354163D02*
Y1355805D01*
X1393571Y1354163D02*
Y1355805D01*
X1393591Y1354163D02*
Y1355805D01*
X1393610Y1354163D02*
Y1355805D01*
X1393630Y1354163D02*
Y1355805D01*
X1393650Y1354163D02*
Y1355805D01*
X1393669Y1354163D02*
Y1355805D01*
X1393689Y1354163D02*
Y1355805D01*
X1393709Y1354163D02*
Y1355805D01*
X1393728Y1354163D02*
Y1355805D01*
X1393748Y1354163D02*
Y1355805D01*
X1393768Y1354163D02*
Y1355805D01*
X1393787Y1354163D02*
Y1355805D01*
X1393807Y1354163D02*
Y1355805D01*
X1393827Y1354163D02*
Y1355805D01*
X1393846Y1354163D02*
Y1355805D01*
X1393866Y1354163D02*
Y1355805D01*
X1393886Y1354163D02*
Y1355805D01*
X1393906Y1354163D02*
Y1355805D01*
X1393925Y1354163D02*
Y1355805D01*
X1393945Y1354163D02*
Y1355805D01*
X1393965Y1354163D02*
Y1355805D01*
X1393984Y1354163D02*
Y1355805D01*
X1394004Y1354163D02*
Y1355805D01*
X1394024Y1354163D02*
Y1355805D01*
X1394043Y1354163D02*
Y1355805D01*
X1394063Y1354163D02*
Y1355805D01*
X1394083Y1354163D02*
Y1355805D01*
X1394102Y1354163D02*
Y1355805D01*
X1394122Y1354163D02*
Y1355805D01*
X1394142Y1354163D02*
Y1355805D01*
X1394161Y1354163D02*
Y1355805D01*
X1394181Y1354163D02*
Y1355805D01*
X1394201Y1354163D02*
Y1355805D01*
X1394220Y1354163D02*
Y1355805D01*
X1394240Y1354163D02*
Y1355805D01*
X1394260Y1354163D02*
Y1355805D01*
X1394280Y1354163D02*
Y1355805D01*
X1394299Y1354163D02*
Y1355805D01*
X1394319Y1354163D02*
Y1355805D01*
X1394339Y1354163D02*
Y1355805D01*
X1394358Y1354163D02*
Y1355805D01*
X1394378Y1354163D02*
Y1355805D01*
X1394398Y1354163D02*
Y1355805D01*
X1394417Y1354163D02*
Y1355805D01*
X1394437Y1354163D02*
Y1355805D01*
X1394457Y1354163D02*
Y1355805D01*
X1394476Y1354163D02*
Y1355805D01*
X1394496Y1354163D02*
Y1355805D01*
X1394516Y1354163D02*
Y1355805D01*
X1394535Y1354163D02*
Y1355805D01*
X1394555Y1354163D02*
Y1355805D01*
X1394575Y1354163D02*
Y1355805D01*
X1394594Y1354163D02*
Y1355805D01*
X1394614Y1354163D02*
Y1355805D01*
X1394634Y1354163D02*
Y1355805D01*
X1394654Y1354163D02*
Y1355805D01*
X1394673Y1354163D02*
Y1355805D01*
X1394693Y1354163D02*
Y1355805D01*
X1394713Y1354163D02*
Y1355805D01*
X1394732Y1354163D02*
Y1355805D01*
X1394752Y1354163D02*
Y1355805D01*
X1394772Y1354163D02*
Y1355805D01*
X1394791Y1354163D02*
Y1355805D01*
X1394811Y1354163D02*
Y1355805D01*
X1394831Y1354163D02*
Y1355805D01*
X1394850Y1354163D02*
Y1355805D01*
X1394870Y1354163D02*
Y1355805D01*
X1394890Y1354163D02*
Y1355805D01*
X1394909Y1354163D02*
Y1355805D01*
X1394929Y1354163D02*
Y1355805D01*
X1394949Y1354163D02*
Y1355805D01*
X1394969Y1354163D02*
Y1355805D01*
X1394988Y1354163D02*
Y1355805D01*
X1395008Y1354163D02*
Y1355805D01*
X1395028Y1354163D02*
Y1355805D01*
X1395047Y1354163D02*
Y1355805D01*
X1395067Y1354163D02*
Y1355805D01*
X1395087Y1354163D02*
Y1355805D01*
X1395106Y1354163D02*
Y1355805D01*
X1395126Y1354163D02*
Y1355805D01*
X1395146Y1354163D02*
Y1355805D01*
X1395165Y1354163D02*
Y1355805D01*
X1395185Y1354163D02*
Y1355805D01*
X1395205Y1354163D02*
Y1355805D01*
X1395224Y1354163D02*
Y1355805D01*
X1395244Y1354163D02*
Y1355805D01*
X1395264Y1354163D02*
Y1355805D01*
X1395283Y1354163D02*
Y1355805D01*
X1395303Y1354163D02*
Y1355805D01*
X1395323Y1354163D02*
Y1355805D01*
X1395343Y1354163D02*
Y1355805D01*
X1395362Y1354163D02*
Y1355805D01*
X1395382Y1354163D02*
Y1355805D01*
X1395402Y1354163D02*
Y1355805D01*
X1395421Y1354163D02*
Y1355805D01*
X1395441Y1354163D02*
Y1355805D01*
X1395461Y1354163D02*
Y1355805D01*
X1395480Y1354163D02*
Y1355805D01*
X1395500Y1354164D02*
Y1355804D01*
X1395520Y1354167D02*
Y1355802D01*
X1395539Y1354171D02*
Y1355797D01*
X1395559Y1354178D02*
Y1355791D01*
X1395579Y1354186D02*
Y1355783D01*
X1395598Y1354196D02*
Y1355772D01*
X1395618Y1354209D02*
Y1355759D01*
X1395638Y1354226D02*
Y1355743D01*
X1395657Y1354247D02*
Y1355722D01*
X1395677Y1354275D02*
Y1355694D01*
X1395697Y1354316D02*
Y1355652D01*
X1392921Y1357774D02*
X1392877Y1357772D01*
X1392833Y1357769*
X1392788Y1357763*
X1392745Y1357754*
X1392702Y1357744*
X1392659Y1357731*
X1392617Y1357715*
X1392577Y1357698*
X1392537Y1357678*
X1392498Y1357656*
X1392461Y1357632*
X1392424Y1357606*
X1392390Y1357578*
X1392357Y1357549*
X1392325Y1357517*
X1392296Y1357484*
X1392268Y1357450*
X1392242Y1357413*
X1392218Y1357376*
X1392196Y1357337*
X1392176Y1357297*
X1392159Y1357257*
X1392143Y1357215*
X1392130Y1357172*
X1392120Y1357129*
X1392111Y1357086*
X1392105Y1357042*
X1392102Y1356997*
X1392100Y1356953*
X1392102Y1356908*
X1392105Y1356864*
X1392111Y1356820*
X1392120Y1356776*
X1392130Y1356733*
X1392143Y1356691*
X1392159Y1356649*
X1392176Y1356608*
X1392196Y1356568*
X1392218Y1356530*
X1392242Y1356492*
X1392268Y1356456*
X1392296Y1356421*
X1392325Y1356388*
X1392357Y1356357*
X1392390Y1356327*
X1392424Y1356299*
X1392461Y1356273*
X1392498Y1356249*
X1392537Y1356228*
X1392577Y1356208*
X1392617Y1356190*
X1392659Y1356175*
X1392702Y1356162*
X1392745Y1356151*
X1392788Y1356143*
X1392833Y1356137*
X1392877Y1356133*
X1392921Y1356132*
X1395480*
X1395503Y1356133*
X1395525Y1356136*
X1395547Y1356142*
X1395568Y1356149*
X1395589Y1356159*
X1395608Y1356171*
X1395626Y1356184*
X1395643Y1356199*
X1395658Y1356216*
X1395672Y1356234*
X1395683Y1356254*
X1395693Y1356274*
X1395701Y1356295*
X1395706Y1356317*
X1395710Y1356340*
X1395711Y1356362*
Y1357543*
X1395710Y1357566*
X1395706Y1357588*
X1395701Y1357610*
X1395693Y1357631*
X1395683Y1357652*
X1395672Y1357671*
X1395658Y1357689*
X1395643Y1357706*
X1395626Y1357721*
X1395608Y1357735*
X1395589Y1357746*
X1395568Y1357756*
X1395547Y1357764*
X1395525Y1357769*
X1395503Y1357773*
X1395480Y1357774*
X1392921*
X1392114Y1356804D02*
Y1357101D01*
X1392134Y1356722D02*
Y1357184D01*
X1392154Y1356663D02*
Y1357243D01*
X1392173Y1356615D02*
Y1357290D01*
X1392193Y1356575D02*
Y1357331D01*
X1392213Y1356539D02*
Y1357367D01*
X1392232Y1356507D02*
Y1357398D01*
X1392252Y1356478D02*
Y1357428D01*
X1392272Y1356451D02*
Y1357454D01*
X1392291Y1356427D02*
Y1357479D01*
X1392311Y1356404D02*
Y1357501D01*
X1392331Y1356383D02*
Y1357523D01*
X1392350Y1356363D02*
Y1357542D01*
X1392370Y1356345D02*
Y1357561D01*
X1392390Y1356327D02*
Y1357578D01*
X1392409Y1356311D02*
Y1357594D01*
X1392429Y1356296D02*
Y1357610D01*
X1392449Y1356282D02*
Y1357624D01*
X1392469Y1356268D02*
Y1357637D01*
X1392488Y1356256D02*
Y1357650D01*
X1392508Y1356244D02*
Y1357662D01*
X1392528Y1356233D02*
Y1357673D01*
X1392547Y1356222D02*
Y1357683D01*
X1392567Y1356213D02*
Y1357693D01*
X1392587Y1356203D02*
Y1357702D01*
X1392606Y1356195D02*
Y1357711D01*
X1392626Y1356187D02*
Y1357718D01*
X1392646Y1356180D02*
Y1357726D01*
X1392665Y1356173D02*
Y1357733D01*
X1392685Y1356167D02*
Y1357739D01*
X1392705Y1356161D02*
Y1357744D01*
X1392724Y1356156D02*
Y1357749D01*
X1392744Y1356151D02*
Y1357754D01*
X1392764Y1356147D02*
Y1357758D01*
X1392783Y1356144D02*
Y1357762D01*
X1392803Y1356141D02*
Y1357765D01*
X1392823Y1356138D02*
Y1357767D01*
X1392843Y1356136D02*
Y1357770D01*
X1392862Y1356134D02*
Y1357771D01*
X1392882Y1356133D02*
Y1357773D01*
X1392902Y1356132D02*
Y1357773D01*
X1392921Y1356132D02*
Y1357774D01*
X1392941Y1356132D02*
Y1357774D01*
X1392961Y1356132D02*
Y1357774D01*
X1392980Y1356132D02*
Y1357774D01*
X1393000Y1356132D02*
Y1357774D01*
X1393020Y1356132D02*
Y1357774D01*
X1393039Y1356132D02*
Y1357774D01*
X1393059Y1356132D02*
Y1357774D01*
X1393079Y1356132D02*
Y1357774D01*
X1393098Y1356132D02*
Y1357774D01*
X1393118Y1356132D02*
Y1357774D01*
X1393138Y1356132D02*
Y1357774D01*
X1393157Y1356132D02*
Y1357774D01*
X1393177Y1356132D02*
Y1357774D01*
X1393197Y1356132D02*
Y1357774D01*
X1393217Y1356132D02*
Y1357774D01*
X1393236Y1356132D02*
Y1357774D01*
X1393256Y1356132D02*
Y1357774D01*
X1393276Y1356132D02*
Y1357774D01*
X1393295Y1356132D02*
Y1357774D01*
X1393315Y1356132D02*
Y1357774D01*
X1393335Y1356132D02*
Y1357774D01*
X1393354Y1356132D02*
Y1357774D01*
X1393374Y1356132D02*
Y1357774D01*
X1393394Y1356132D02*
Y1357774D01*
X1393413Y1356132D02*
Y1357774D01*
X1393433Y1356132D02*
Y1357774D01*
X1393453Y1356132D02*
Y1357774D01*
X1393472Y1356132D02*
Y1357774D01*
X1393492Y1356132D02*
Y1357774D01*
X1393512Y1356132D02*
Y1357774D01*
X1393531Y1356132D02*
Y1357774D01*
X1393551Y1356132D02*
Y1357774D01*
X1393571Y1356132D02*
Y1357774D01*
X1393591Y1356132D02*
Y1357774D01*
X1393610Y1356132D02*
Y1357774D01*
X1393630Y1356132D02*
Y1357774D01*
X1393650Y1356132D02*
Y1357774D01*
X1393669Y1356132D02*
Y1357774D01*
X1393689Y1356132D02*
Y1357774D01*
X1393709Y1356132D02*
Y1357774D01*
X1393728Y1356132D02*
Y1357774D01*
X1393748Y1356132D02*
Y1357774D01*
X1393768Y1356132D02*
Y1357774D01*
X1393787Y1356132D02*
Y1357774D01*
X1393807Y1356132D02*
Y1357774D01*
X1393827Y1356132D02*
Y1357774D01*
X1393846Y1356132D02*
Y1357774D01*
X1393866Y1356132D02*
Y1357774D01*
X1393886Y1356132D02*
Y1357774D01*
X1393906Y1356132D02*
Y1357774D01*
X1393925Y1356132D02*
Y1357774D01*
X1393945Y1356132D02*
Y1357774D01*
X1393965Y1356132D02*
Y1357774D01*
X1393984Y1356132D02*
Y1357774D01*
X1394004Y1356132D02*
Y1357774D01*
X1394024Y1356132D02*
Y1357774D01*
X1394043Y1356132D02*
Y1357774D01*
X1394063Y1356132D02*
Y1357774D01*
X1394083Y1356132D02*
Y1357774D01*
X1394102Y1356132D02*
Y1357774D01*
X1394122Y1356132D02*
Y1357774D01*
X1394142Y1356132D02*
Y1357774D01*
X1394161Y1356132D02*
Y1357774D01*
X1394181Y1356132D02*
Y1357774D01*
X1394201Y1356132D02*
Y1357774D01*
X1394220Y1356132D02*
Y1357774D01*
X1394240Y1356132D02*
Y1357774D01*
X1394260Y1356132D02*
Y1357774D01*
X1394280Y1356132D02*
Y1357774D01*
X1394299Y1356132D02*
Y1357774D01*
X1394319Y1356132D02*
Y1357774D01*
X1394339Y1356132D02*
Y1357774D01*
X1394358Y1356132D02*
Y1357774D01*
X1394378Y1356132D02*
Y1357774D01*
X1394398Y1356132D02*
Y1357774D01*
X1394417Y1356132D02*
Y1357774D01*
X1394437Y1356132D02*
Y1357774D01*
X1394457Y1356132D02*
Y1357774D01*
X1394476Y1356132D02*
Y1357774D01*
X1394496Y1356132D02*
Y1357774D01*
X1394516Y1356132D02*
Y1357774D01*
X1394535Y1356132D02*
Y1357774D01*
X1394555Y1356132D02*
Y1357774D01*
X1394575Y1356132D02*
Y1357774D01*
X1394594Y1356132D02*
Y1357774D01*
X1394614Y1356132D02*
Y1357774D01*
X1394634Y1356132D02*
Y1357774D01*
X1394654Y1356132D02*
Y1357774D01*
X1394673Y1356132D02*
Y1357774D01*
X1394693Y1356132D02*
Y1357774D01*
X1394713Y1356132D02*
Y1357774D01*
X1394732Y1356132D02*
Y1357774D01*
X1394752Y1356132D02*
Y1357774D01*
X1394772Y1356132D02*
Y1357774D01*
X1394791Y1356132D02*
Y1357774D01*
X1394811Y1356132D02*
Y1357774D01*
X1394831Y1356132D02*
Y1357774D01*
X1394850Y1356132D02*
Y1357774D01*
X1394870Y1356132D02*
Y1357774D01*
X1394890Y1356132D02*
Y1357774D01*
X1394909Y1356132D02*
Y1357774D01*
X1394929Y1356132D02*
Y1357774D01*
X1394949Y1356132D02*
Y1357774D01*
X1394969Y1356132D02*
Y1357774D01*
X1394988Y1356132D02*
Y1357774D01*
X1395008Y1356132D02*
Y1357774D01*
X1395028Y1356132D02*
Y1357774D01*
X1395047Y1356132D02*
Y1357774D01*
X1395067Y1356132D02*
Y1357774D01*
X1395087Y1356132D02*
Y1357774D01*
X1395106Y1356132D02*
Y1357774D01*
X1395126Y1356132D02*
Y1357774D01*
X1395146Y1356132D02*
Y1357774D01*
X1395165Y1356132D02*
Y1357774D01*
X1395185Y1356132D02*
Y1357774D01*
X1395205Y1356132D02*
Y1357774D01*
X1395224Y1356132D02*
Y1357774D01*
X1395244Y1356132D02*
Y1357774D01*
X1395264Y1356132D02*
Y1357774D01*
X1395283Y1356132D02*
Y1357774D01*
X1395303Y1356132D02*
Y1357774D01*
X1395323Y1356132D02*
Y1357774D01*
X1395343Y1356132D02*
Y1357774D01*
X1395362Y1356132D02*
Y1357774D01*
X1395382Y1356132D02*
Y1357774D01*
X1395402Y1356132D02*
Y1357774D01*
X1395421Y1356132D02*
Y1357774D01*
X1395441Y1356132D02*
Y1357774D01*
X1395461Y1356132D02*
Y1357774D01*
X1395480Y1356132D02*
Y1357774D01*
X1395500Y1356133D02*
Y1357773D01*
X1395520Y1356135D02*
Y1357770D01*
X1395539Y1356140D02*
Y1357766D01*
X1395559Y1356146D02*
Y1357759D01*
X1395579Y1356154D02*
Y1357751D01*
X1395598Y1356165D02*
Y1357741D01*
X1395618Y1356178D02*
Y1357728D01*
X1395638Y1356194D02*
Y1357711D01*
X1395657Y1356215D02*
Y1357690D01*
X1395677Y1356243D02*
Y1357662D01*
X1395697Y1356285D02*
Y1357621D01*
X1390362Y1361711D02*
X1390340Y1361710D01*
X1390317Y1361706*
X1390295Y1361701*
X1390274Y1361693*
X1390254Y1361683*
X1390234Y1361672*
X1390216Y1361658*
X1390199Y1361643*
X1390184Y1361626*
X1390171Y1361608*
X1390159Y1361589*
X1390149Y1361568*
X1390142Y1361547*
X1390136Y1361525*
X1390133Y1361503*
X1390132Y1361480*
Y1358921*
X1390133Y1358877*
X1390137Y1358833*
X1390143Y1358788*
X1390151Y1358745*
X1390162Y1358702*
X1390175Y1358659*
X1390190Y1358617*
X1390208Y1358577*
X1390228Y1358537*
X1390249Y1358498*
X1390273Y1358461*
X1390299Y1358424*
X1390327Y1358390*
X1390357Y1358357*
X1390388Y1358325*
X1390421Y1358296*
X1390456Y1358268*
X1390492Y1358242*
X1390530Y1358218*
X1390568Y1358196*
X1390608Y1358176*
X1390649Y1358159*
X1390691Y1358143*
X1390733Y1358130*
X1390776Y1358120*
X1390820Y1358111*
X1390864Y1358105*
X1390908Y1358102*
X1390953Y1358100*
X1390997Y1358102*
X1391042Y1358105*
X1391086Y1358111*
X1391129Y1358120*
X1391172Y1358130*
X1391215Y1358143*
X1391257Y1358159*
X1391297Y1358176*
X1391337Y1358196*
X1391376Y1358218*
X1391413Y1358242*
X1391450Y1358268*
X1391484Y1358296*
X1391517Y1358325*
X1391549Y1358357*
X1391578Y1358390*
X1391606Y1358424*
X1391632Y1358461*
X1391656Y1358498*
X1391678Y1358537*
X1391698Y1358577*
X1391715Y1358617*
X1391731Y1358659*
X1391744Y1358702*
X1391754Y1358745*
X1391763Y1358788*
X1391769Y1358833*
X1391772Y1358877*
X1391774Y1358921*
Y1361480*
X1391773Y1361503*
X1391769Y1361525*
X1391764Y1361547*
X1391756Y1361568*
X1391746Y1361589*
X1391735Y1361608*
X1391721Y1361626*
X1391706Y1361643*
X1391689Y1361658*
X1391671Y1361672*
X1391652Y1361683*
X1391631Y1361693*
X1391610Y1361701*
X1391588Y1361706*
X1391566Y1361710*
X1391543Y1361711*
X1390362*
X1390146Y1358773D02*
Y1361558D01*
X1390165Y1358690D02*
Y1361599D01*
X1390185Y1358631D02*
Y1361627D01*
X1390205Y1358584D02*
Y1361648D01*
X1390224Y1358543D02*
Y1361665D01*
X1390244Y1358507D02*
Y1361678D01*
X1390264Y1358476D02*
Y1361688D01*
X1390283Y1358446D02*
Y1361696D01*
X1390303Y1358420D02*
Y1361703D01*
X1390323Y1358395D02*
Y1361707D01*
X1390343Y1358373D02*
Y1361710D01*
X1390362Y1358351D02*
Y1361711D01*
X1390382Y1358332D02*
Y1361711D01*
X1390402Y1358313D02*
Y1361711D01*
X1390421Y1358296D02*
Y1361711D01*
X1390441Y1358280D02*
Y1361711D01*
X1390461Y1358264D02*
Y1361711D01*
X1390480Y1358250D02*
Y1361711D01*
X1390500Y1358237D02*
Y1361711D01*
X1390520Y1358224D02*
Y1361711D01*
X1390539Y1358212D02*
Y1361711D01*
X1390559Y1358201D02*
Y1361711D01*
X1390579Y1358191D02*
Y1361711D01*
X1390598Y1358181D02*
Y1361711D01*
X1390618Y1358172D02*
Y1361711D01*
X1390638Y1358163D02*
Y1361711D01*
X1390657Y1358156D02*
Y1361711D01*
X1390677Y1358148D02*
Y1361711D01*
X1390697Y1358141D02*
Y1361711D01*
X1390717Y1358135D02*
Y1361711D01*
X1390736Y1358130D02*
Y1361711D01*
X1390756Y1358125D02*
Y1361711D01*
X1390776Y1358120D02*
Y1361711D01*
X1390795Y1358116D02*
Y1361711D01*
X1390815Y1358112D02*
Y1361711D01*
X1390835Y1358109D02*
Y1361711D01*
X1390854Y1358107D02*
Y1361711D01*
X1390874Y1358104D02*
Y1361711D01*
X1390894Y1358103D02*
Y1361711D01*
X1390913Y1358101D02*
Y1361711D01*
X1390933Y1358101D02*
Y1361711D01*
X1390953Y1358100D02*
Y1361711D01*
X1390972Y1358101D02*
Y1361711D01*
X1390992Y1358101D02*
Y1361711D01*
X1391012Y1358103D02*
Y1361711D01*
X1391031Y1358104D02*
Y1361711D01*
X1391051Y1358107D02*
Y1361711D01*
X1391071Y1358109D02*
Y1361711D01*
X1391091Y1358112D02*
Y1361711D01*
X1391110Y1358116D02*
Y1361711D01*
X1391130Y1358120D02*
Y1361711D01*
X1391150Y1358125D02*
Y1361711D01*
X1391169Y1358130D02*
Y1361711D01*
X1391189Y1358135D02*
Y1361711D01*
X1391209Y1358141D02*
Y1361711D01*
X1391228Y1358148D02*
Y1361711D01*
X1391248Y1358156D02*
Y1361711D01*
X1391268Y1358163D02*
Y1361711D01*
X1391287Y1358172D02*
Y1361711D01*
X1391307Y1358181D02*
Y1361711D01*
X1391327Y1358191D02*
Y1361711D01*
X1391346Y1358201D02*
Y1361711D01*
X1391366Y1358212D02*
Y1361711D01*
X1391386Y1358224D02*
Y1361711D01*
X1391406Y1358237D02*
Y1361711D01*
X1391425Y1358250D02*
Y1361711D01*
X1391445Y1358264D02*
Y1361711D01*
X1391465Y1358280D02*
Y1361711D01*
X1391484Y1358296D02*
Y1361711D01*
X1391504Y1358313D02*
Y1361711D01*
X1391524Y1358332D02*
Y1361711D01*
X1391543Y1358351D02*
Y1361711D01*
X1391563Y1358373D02*
Y1361710D01*
X1391583Y1358395D02*
Y1361707D01*
X1391602Y1358420D02*
Y1361703D01*
X1391622Y1358446D02*
Y1361696D01*
X1391642Y1358476D02*
Y1361688D01*
X1391661Y1358507D02*
Y1361678D01*
X1391681Y1358543D02*
Y1361665D01*
X1391701Y1358584D02*
Y1361648D01*
X1391720Y1358631D02*
Y1361627D01*
X1391740Y1358690D02*
Y1361599D01*
X1391760Y1358773D02*
Y1361558D01*
X1388394Y1361711D02*
X1388371Y1361710D01*
X1388349Y1361706*
X1388327Y1361701*
X1388306Y1361693*
X1388285Y1361683*
X1388266Y1361672*
X1388248Y1361658*
X1388231Y1361643*
X1388216Y1361626*
X1388202Y1361608*
X1388191Y1361589*
X1388181Y1361568*
X1388173Y1361547*
X1388168Y1361525*
X1388164Y1361503*
X1388163Y1361480*
Y1358921*
X1388165Y1358877*
X1388168Y1358833*
X1388174Y1358788*
X1388183Y1358745*
X1388193Y1358702*
X1388206Y1358659*
X1388222Y1358617*
X1388239Y1358577*
X1388259Y1358537*
X1388281Y1358498*
X1388305Y1358461*
X1388331Y1358424*
X1388359Y1358390*
X1388388Y1358357*
X1388420Y1358325*
X1388453Y1358296*
X1388487Y1358268*
X1388524Y1358242*
X1388561Y1358218*
X1388600Y1358196*
X1388640Y1358176*
X1388680Y1358159*
X1388722Y1358143*
X1388765Y1358130*
X1388808Y1358120*
X1388851Y1358111*
X1388896Y1358105*
X1388896D02*
X1388940Y1358102D01*
X1388984Y1358100*
X1389029Y1358102*
X1389073Y1358105*
X1389117Y1358111*
X1389161Y1358120*
X1389204Y1358130*
X1389246Y1358143*
X1389288Y1358159*
X1389329Y1358176*
X1389369Y1358196*
X1389407Y1358218*
X1389445Y1358242*
X1389481Y1358268*
X1389516Y1358296*
X1389549Y1358325*
X1389580Y1358357*
X1389610Y1358390*
X1389638Y1358424*
X1389664Y1358461*
X1389688Y1358498*
X1389709Y1358537*
X1389729Y1358577*
X1389747Y1358617*
X1389762Y1358659*
X1389775Y1358702*
X1389786Y1358745*
X1389794Y1358788*
X1389800Y1358833*
X1389804Y1358877*
X1389805Y1358921*
Y1361480*
X1389804Y1361503*
X1389801Y1361525*
X1389795Y1361547*
X1389788Y1361568*
X1389778Y1361589*
X1389766Y1361608*
X1389753Y1361626*
X1389738Y1361643*
X1389721Y1361658*
X1389703Y1361672*
X1389683Y1361683*
X1389663Y1361693*
X1389642Y1361701*
X1389620Y1361706*
X1389597Y1361710*
X1389575Y1361711*
X1388394*
X1388177Y1358773D02*
Y1361558D01*
X1388197Y1358690D02*
Y1361599D01*
X1388217Y1358631D02*
Y1361627D01*
X1388236Y1358584D02*
Y1361648D01*
X1388256Y1358543D02*
Y1361665D01*
X1388276Y1358507D02*
Y1361678D01*
X1388295Y1358476D02*
Y1361688D01*
X1388315Y1358446D02*
Y1361696D01*
X1388335Y1358420D02*
Y1361703D01*
X1388354Y1358395D02*
Y1361707D01*
X1388374Y1358373D02*
Y1361710D01*
X1388394Y1358351D02*
Y1361711D01*
X1388413Y1358332D02*
Y1361711D01*
X1388433Y1358313D02*
Y1361711D01*
X1388453Y1358296D02*
Y1361711D01*
X1388472Y1358280D02*
Y1361711D01*
X1388492Y1358264D02*
Y1361711D01*
X1388512Y1358250D02*
Y1361711D01*
X1388531Y1358237D02*
Y1361711D01*
X1388551Y1358224D02*
Y1361711D01*
X1388571Y1358212D02*
Y1361711D01*
X1388591Y1358201D02*
Y1361711D01*
X1388610Y1358191D02*
Y1361711D01*
X1388630Y1358181D02*
Y1361711D01*
X1388650Y1358172D02*
Y1361711D01*
X1388669Y1358163D02*
Y1361711D01*
X1388689Y1358156D02*
Y1361711D01*
X1388709Y1358148D02*
Y1361711D01*
X1388728Y1358141D02*
Y1361711D01*
X1388748Y1358135D02*
Y1361711D01*
X1388768Y1358130D02*
Y1361711D01*
X1388787Y1358125D02*
Y1361711D01*
X1388807Y1358120D02*
Y1361711D01*
X1388827Y1358116D02*
Y1361711D01*
X1388846Y1358112D02*
Y1361711D01*
X1388866Y1358109D02*
Y1361711D01*
X1388886Y1358107D02*
Y1361711D01*
X1388906Y1358104D02*
Y1361711D01*
X1388925Y1358103D02*
Y1361711D01*
X1388945Y1358101D02*
Y1361711D01*
X1388965Y1358101D02*
Y1361711D01*
X1388984Y1358100D02*
Y1361711D01*
X1389004Y1358101D02*
Y1361711D01*
X1389024Y1358101D02*
Y1361711D01*
X1389043Y1358103D02*
Y1361711D01*
X1389063Y1358104D02*
Y1361711D01*
X1389083Y1358107D02*
Y1361711D01*
X1389102Y1358109D02*
Y1361711D01*
X1389122Y1358112D02*
Y1361711D01*
X1389142Y1358116D02*
Y1361711D01*
X1389161Y1358120D02*
Y1361711D01*
X1389181Y1358125D02*
Y1361711D01*
X1389201Y1358130D02*
Y1361711D01*
X1389220Y1358135D02*
Y1361711D01*
X1389240Y1358141D02*
Y1361711D01*
X1389260Y1358148D02*
Y1361711D01*
X1389280Y1358156D02*
Y1361711D01*
X1389299Y1358163D02*
Y1361711D01*
X1389319Y1358172D02*
Y1361711D01*
X1389339Y1358181D02*
Y1361711D01*
X1389358Y1358191D02*
Y1361711D01*
X1389378Y1358201D02*
Y1361711D01*
X1389398Y1358212D02*
Y1361711D01*
X1389417Y1358224D02*
Y1361711D01*
X1389437Y1358237D02*
Y1361711D01*
X1389457Y1358250D02*
Y1361711D01*
X1389476Y1358264D02*
Y1361711D01*
X1389496Y1358280D02*
Y1361711D01*
X1389516Y1358296D02*
Y1361711D01*
X1389535Y1358313D02*
Y1361711D01*
X1389555Y1358332D02*
Y1361711D01*
X1389575Y1358351D02*
Y1361711D01*
X1389594Y1358373D02*
Y1361710D01*
X1389614Y1358395D02*
Y1361707D01*
X1389634Y1358420D02*
Y1361703D01*
X1389654Y1358446D02*
Y1361696D01*
X1389673Y1358476D02*
Y1361688D01*
X1389693Y1358507D02*
Y1361678D01*
X1389713Y1358543D02*
Y1361665D01*
X1389732Y1358584D02*
Y1361648D01*
X1389752Y1358631D02*
Y1361627D01*
X1389772Y1358690D02*
Y1361599D01*
X1389791Y1358773D02*
Y1361558D01*
X1386425Y1361711D02*
X1386403Y1361710D01*
X1386380Y1361706*
X1386358Y1361701*
X1386337Y1361693*
X1386317Y1361683*
X1386297Y1361672*
X1386279Y1361658*
X1386262Y1361643*
X1386247Y1361626*
X1386234Y1361608*
X1386222Y1361589*
X1386212Y1361568*
X1386205Y1361547*
X1386199Y1361525*
X1386196Y1361503*
X1386195Y1361480*
Y1358921*
X1386196Y1358877*
X1386200Y1358833*
X1386206Y1358788*
X1386214Y1358745*
X1386225Y1358702*
X1386238Y1358659*
X1386253Y1358617*
X1386271Y1358577*
X1386291Y1358537*
X1386312Y1358498*
X1386336Y1358461*
X1386362Y1358424*
X1386390Y1358390*
X1386420Y1358357*
X1386451Y1358325*
X1386484Y1358296*
X1386519Y1358268*
X1386555Y1358242*
X1386593Y1358218*
X1386631Y1358196*
X1386671Y1358176*
X1386712Y1358159*
X1386754Y1358143*
X1386796Y1358130*
X1386839Y1358120*
X1386883Y1358111*
X1386927Y1358105*
X1386971Y1358102*
X1387016Y1358100*
X1387060Y1358102*
X1387104Y1358105*
X1387104D02*
X1387149Y1358111D01*
X1387192Y1358120*
X1387235Y1358130*
X1387278Y1358143*
X1387320Y1358159*
X1387360Y1358176*
X1387400Y1358196*
X1387439Y1358218*
X1387476Y1358242*
X1387513Y1358268*
X1387547Y1358296*
X1387580Y1358325*
X1387612Y1358357*
X1387641Y1358390*
X1387669Y1358424*
X1387695Y1358461*
X1387719Y1358498*
X1387741Y1358537*
X1387761Y1358577*
X1387778Y1358617*
X1387794Y1358659*
X1387807Y1358702*
X1387817Y1358745*
X1387826Y1358788*
X1387832Y1358833*
X1387835Y1358877*
X1387837Y1358921*
Y1361480*
X1387836Y1361503*
X1387832Y1361525*
X1387827Y1361547*
X1387819Y1361568*
X1387809Y1361589*
X1387798Y1361608*
X1387784Y1361626*
X1387769Y1361643*
X1387752Y1361658*
X1387734Y1361672*
X1387715Y1361683*
X1387694Y1361693*
X1387673Y1361701*
X1387651Y1361706*
X1387629Y1361710*
X1387606Y1361711*
X1386425*
X1386209Y1358773D02*
Y1361558D01*
X1386228Y1358690D02*
Y1361599D01*
X1386248Y1358631D02*
Y1361627D01*
X1386268Y1358584D02*
Y1361648D01*
X1386287Y1358543D02*
Y1361665D01*
X1386307Y1358507D02*
Y1361678D01*
X1386327Y1358476D02*
Y1361688D01*
X1386346Y1358446D02*
Y1361696D01*
X1386366Y1358420D02*
Y1361703D01*
X1386386Y1358395D02*
Y1361707D01*
X1386406Y1358373D02*
Y1361710D01*
X1386425Y1358351D02*
Y1361711D01*
X1386445Y1358332D02*
Y1361711D01*
X1386465Y1358313D02*
Y1361711D01*
X1386484Y1358296D02*
Y1361711D01*
X1386504Y1358280D02*
Y1361711D01*
X1386524Y1358264D02*
Y1361711D01*
X1386543Y1358250D02*
Y1361711D01*
X1386563Y1358237D02*
Y1361711D01*
X1386583Y1358224D02*
Y1361711D01*
X1386602Y1358212D02*
Y1361711D01*
X1386622Y1358201D02*
Y1361711D01*
X1386642Y1358191D02*
Y1361711D01*
X1386661Y1358181D02*
Y1361711D01*
X1386681Y1358172D02*
Y1361711D01*
X1386701Y1358163D02*
Y1361711D01*
X1386720Y1358156D02*
Y1361711D01*
X1386740Y1358148D02*
Y1361711D01*
X1386760Y1358141D02*
Y1361711D01*
X1386780Y1358135D02*
Y1361711D01*
X1386799Y1358130D02*
Y1361711D01*
X1386819Y1358125D02*
Y1361711D01*
X1386839Y1358120D02*
Y1361711D01*
X1386858Y1358116D02*
Y1361711D01*
X1386878Y1358112D02*
Y1361711D01*
X1386898Y1358109D02*
Y1361711D01*
X1386917Y1358107D02*
Y1361711D01*
X1386937Y1358104D02*
Y1361711D01*
X1386957Y1358103D02*
Y1361711D01*
X1386976Y1358101D02*
Y1361711D01*
X1386996Y1358101D02*
Y1361711D01*
X1387016Y1358100D02*
Y1361711D01*
X1387035Y1358101D02*
Y1361711D01*
X1387055Y1358101D02*
Y1361711D01*
X1387075Y1358103D02*
Y1361711D01*
X1387094Y1358104D02*
Y1361711D01*
X1387114Y1358107D02*
Y1361711D01*
X1387134Y1358109D02*
Y1361711D01*
X1387154Y1358112D02*
Y1361711D01*
X1387173Y1358116D02*
Y1361711D01*
X1387193Y1358120D02*
Y1361711D01*
X1387213Y1358125D02*
Y1361711D01*
X1387232Y1358130D02*
Y1361711D01*
X1387252Y1358135D02*
Y1361711D01*
X1387272Y1358141D02*
Y1361711D01*
X1387291Y1358148D02*
Y1361711D01*
X1387311Y1358156D02*
Y1361711D01*
X1387331Y1358163D02*
Y1361711D01*
X1387350Y1358172D02*
Y1361711D01*
X1387370Y1358181D02*
Y1361711D01*
X1387390Y1358191D02*
Y1361711D01*
X1387409Y1358201D02*
Y1361711D01*
X1387429Y1358212D02*
Y1361711D01*
X1387449Y1358224D02*
Y1361711D01*
X1387469Y1358237D02*
Y1361711D01*
X1387488Y1358250D02*
Y1361711D01*
X1387508Y1358264D02*
Y1361711D01*
X1387528Y1358280D02*
Y1361711D01*
X1387547Y1358296D02*
Y1361711D01*
X1387567Y1358313D02*
Y1361711D01*
X1387587Y1358332D02*
Y1361711D01*
X1387606Y1358351D02*
Y1361711D01*
X1387626Y1358373D02*
Y1361710D01*
X1387646Y1358395D02*
Y1361707D01*
X1387665Y1358420D02*
Y1361703D01*
X1387685Y1358446D02*
Y1361696D01*
X1387705Y1358476D02*
Y1361688D01*
X1387724Y1358507D02*
Y1361678D01*
X1387744Y1358543D02*
Y1361665D01*
X1387764Y1358584D02*
Y1361648D01*
X1387783Y1358631D02*
Y1361627D01*
X1387803Y1358690D02*
Y1361599D01*
X1387823Y1358773D02*
Y1361558D01*
X1384457Y1361711D02*
X1384434Y1361710D01*
X1384412Y1361706*
X1384390Y1361701*
X1384369Y1361693*
X1384348Y1361683*
X1384329Y1361672*
X1384311Y1361658*
X1384294Y1361643*
X1384279Y1361626*
X1384265Y1361608*
X1384254Y1361589*
X1384244Y1361568*
X1384236Y1361547*
X1384231Y1361525*
X1384227Y1361503*
X1384226Y1361480*
Y1358921*
X1384228Y1358877*
X1384231Y1358833*
X1384237Y1358788*
X1384246Y1358745*
X1384256Y1358702*
X1384269Y1358659*
X1384285Y1358617*
X1384302Y1358577*
X1384322Y1358537*
X1384344Y1358498*
X1384368Y1358461*
X1384394Y1358424*
X1384422Y1358390*
X1384451Y1358357*
X1384483Y1358325*
X1384516Y1358296*
X1384550Y1358268*
X1384587Y1358242*
X1384624Y1358218*
X1384663Y1358196*
X1384703Y1358176*
X1384743Y1358159*
X1384785Y1358143*
X1384828Y1358130*
X1384871Y1358120*
X1384914Y1358111*
X1384958Y1358105*
X1385003Y1358102*
X1385047Y1358100*
X1385092Y1358102*
X1385136Y1358105*
X1385180Y1358111*
X1385224Y1358120*
X1385267Y1358130*
X1385309Y1358143*
X1385351Y1358159*
X1385392Y1358176*
X1385432Y1358196*
X1385470Y1358218*
X1385508Y1358242*
X1385544Y1358268*
X1385579Y1358296*
X1385612Y1358325*
X1385643Y1358357*
X1385673Y1358390*
X1385701Y1358424*
X1385727Y1358461*
X1385751Y1358498*
X1385772Y1358537*
X1385792Y1358577*
X1385810Y1358617*
X1385825Y1358659*
X1385838Y1358702*
X1385849Y1358745*
X1385857Y1358788*
X1385863Y1358833*
X1385867Y1358877*
X1385868Y1358921*
Y1361480*
X1385867Y1361503*
X1385864Y1361525*
X1385858Y1361547*
X1385851Y1361568*
X1385841Y1361589*
X1385829Y1361608*
X1385816Y1361626*
X1385801Y1361643*
X1385784Y1361658*
X1385766Y1361672*
X1385746Y1361683*
X1385726Y1361693*
X1385705Y1361701*
X1385683Y1361706*
X1385660Y1361710*
X1385638Y1361711*
X1384457*
X1384240Y1358773D02*
Y1361558D01*
X1384260Y1358690D02*
Y1361599D01*
X1384280Y1358631D02*
Y1361627D01*
X1384299Y1358584D02*
Y1361648D01*
X1384319Y1358543D02*
Y1361665D01*
X1384339Y1358507D02*
Y1361678D01*
X1384358Y1358476D02*
Y1361688D01*
X1384378Y1358446D02*
Y1361696D01*
X1384398Y1358420D02*
Y1361703D01*
X1384417Y1358395D02*
Y1361707D01*
X1384437Y1358373D02*
Y1361710D01*
X1384457Y1358351D02*
Y1361711D01*
X1384476Y1358332D02*
Y1361711D01*
X1384496Y1358313D02*
Y1361711D01*
X1384516Y1358296D02*
Y1361711D01*
X1384535Y1358280D02*
Y1361711D01*
X1384555Y1358264D02*
Y1361711D01*
X1384575Y1358250D02*
Y1361711D01*
X1384594Y1358237D02*
Y1361711D01*
X1384614Y1358224D02*
Y1361711D01*
X1384634Y1358212D02*
Y1361711D01*
X1384654Y1358201D02*
Y1361711D01*
X1384673Y1358191D02*
Y1361711D01*
X1384693Y1358181D02*
Y1361711D01*
X1384713Y1358172D02*
Y1361711D01*
X1384732Y1358163D02*
Y1361711D01*
X1384752Y1358156D02*
Y1361711D01*
X1384772Y1358148D02*
Y1361711D01*
X1384791Y1358141D02*
Y1361711D01*
X1384811Y1358135D02*
Y1361711D01*
X1384831Y1358130D02*
Y1361711D01*
X1384850Y1358125D02*
Y1361711D01*
X1384870Y1358120D02*
Y1361711D01*
X1384890Y1358116D02*
Y1361711D01*
X1384909Y1358112D02*
Y1361711D01*
X1384929Y1358109D02*
Y1361711D01*
X1384949Y1358107D02*
Y1361711D01*
X1384969Y1358104D02*
Y1361711D01*
X1384988Y1358103D02*
Y1361711D01*
X1385008Y1358101D02*
Y1361711D01*
X1385028Y1358101D02*
Y1361711D01*
X1385047Y1358100D02*
Y1361711D01*
X1385067Y1358101D02*
Y1361711D01*
X1385087Y1358101D02*
Y1361711D01*
X1385106Y1358103D02*
Y1361711D01*
X1385126Y1358104D02*
Y1361711D01*
X1385146Y1358107D02*
Y1361711D01*
X1385165Y1358109D02*
Y1361711D01*
X1385185Y1358112D02*
Y1361711D01*
X1385205Y1358116D02*
Y1361711D01*
X1385224Y1358120D02*
Y1361711D01*
X1385244Y1358125D02*
Y1361711D01*
X1385264Y1358130D02*
Y1361711D01*
X1385283Y1358135D02*
Y1361711D01*
X1385303Y1358141D02*
Y1361711D01*
X1385323Y1358148D02*
Y1361711D01*
X1385343Y1358156D02*
Y1361711D01*
X1385362Y1358163D02*
Y1361711D01*
X1385382Y1358172D02*
Y1361711D01*
X1385402Y1358181D02*
Y1361711D01*
X1385421Y1358191D02*
Y1361711D01*
X1385441Y1358201D02*
Y1361711D01*
X1385461Y1358212D02*
Y1361711D01*
X1385480Y1358224D02*
Y1361711D01*
X1385500Y1358237D02*
Y1361711D01*
X1385520Y1358250D02*
Y1361711D01*
X1385539Y1358264D02*
Y1361711D01*
X1385559Y1358280D02*
Y1361711D01*
X1385579Y1358296D02*
Y1361711D01*
X1385598Y1358313D02*
Y1361711D01*
X1385618Y1358332D02*
Y1361711D01*
X1385638Y1358351D02*
Y1361711D01*
X1385657Y1358373D02*
Y1361710D01*
X1385677Y1358395D02*
Y1361707D01*
X1385697Y1358420D02*
Y1361703D01*
X1385717Y1358446D02*
Y1361696D01*
X1385736Y1358476D02*
Y1361688D01*
X1385756Y1358507D02*
Y1361678D01*
X1385776Y1358543D02*
Y1361665D01*
X1385795Y1358584D02*
Y1361648D01*
X1385815Y1358631D02*
Y1361627D01*
X1385835Y1358690D02*
Y1361599D01*
X1385854Y1358773D02*
Y1361558D01*
X1380520Y1357774D02*
X1380497Y1357773D01*
X1380475Y1357769*
X1380453Y1357764*
X1380432Y1357756*
X1380411Y1357746*
X1380392Y1357735*
X1380374Y1357721*
X1380357Y1357706*
X1380342Y1357689*
X1380328Y1357671*
X1380317Y1357652*
X1380307Y1357631*
X1380299Y1357610*
X1380294Y1357588*
X1380290Y1357566*
X1380289Y1357543*
Y1356362*
X1380290Y1356340*
X1380294Y1356317*
X1380299Y1356295*
X1380307Y1356274*
X1380317Y1356254*
X1380328Y1356234*
X1380342Y1356216*
X1380357Y1356199*
X1380374Y1356184*
X1380392Y1356171*
X1380411Y1356159*
X1380432Y1356149*
X1380453Y1356142*
X1380475Y1356136*
X1380497Y1356133*
X1380520Y1356132*
X1383079*
X1383123Y1356133*
X1383167Y1356137*
X1383212Y1356143*
X1383255Y1356151*
X1383298Y1356162*
X1383341Y1356175*
X1383383Y1356190*
X1383423Y1356208*
X1383463Y1356228*
X1383502Y1356249*
X1383539Y1356273*
X1383576Y1356299*
X1383610Y1356327*
X1383643Y1356357*
X1383675Y1356388*
X1383704Y1356421*
X1383732Y1356456*
X1383758Y1356492*
X1383782Y1356530*
X1383804Y1356568*
X1383824Y1356608*
X1383841Y1356649*
X1383857Y1356691*
X1383870Y1356733*
X1383880Y1356776*
X1383889Y1356820*
X1383895Y1356864*
X1383898Y1356908*
X1383900Y1356953*
X1383898Y1356997*
X1383895Y1357042*
X1383889Y1357086*
X1383880Y1357129*
X1383870Y1357172*
X1383857Y1357215*
X1383841Y1357257*
X1383824Y1357297*
X1383804Y1357337*
X1383782Y1357376*
X1383758Y1357413*
X1383732Y1357450*
X1383704Y1357484*
X1383675Y1357517*
X1383643Y1357549*
X1383610Y1357578*
X1383576Y1357606*
X1383539Y1357632*
X1383502Y1357656*
X1383463Y1357678*
X1383423Y1357698*
X1383383Y1357715*
X1383341Y1357731*
X1383298Y1357744*
X1383255Y1357754*
X1383212Y1357763*
X1383167Y1357769*
X1383123Y1357772*
X1383079Y1357774*
X1380520*
X1380303Y1356285D02*
Y1357621D01*
X1380323Y1356243D02*
Y1357662D01*
X1380343Y1356215D02*
Y1357690D01*
X1380362Y1356194D02*
Y1357711D01*
X1380382Y1356178D02*
Y1357728D01*
X1380402Y1356165D02*
Y1357741D01*
X1380421Y1356154D02*
Y1357751D01*
X1380441Y1356146D02*
Y1357759D01*
X1380461Y1356140D02*
Y1357766D01*
X1380480Y1356135D02*
Y1357770D01*
X1380500Y1356133D02*
Y1357773D01*
X1380520Y1356132D02*
Y1357774D01*
X1380539Y1356132D02*
Y1357774D01*
X1380559Y1356132D02*
Y1357774D01*
X1380579Y1356132D02*
Y1357774D01*
X1380598Y1356132D02*
Y1357774D01*
X1380618Y1356132D02*
Y1357774D01*
X1380638Y1356132D02*
Y1357774D01*
X1380657Y1356132D02*
Y1357774D01*
X1380677Y1356132D02*
Y1357774D01*
X1380697Y1356132D02*
Y1357774D01*
X1380717Y1356132D02*
Y1357774D01*
X1380736Y1356132D02*
Y1357774D01*
X1380756Y1356132D02*
Y1357774D01*
X1380776Y1356132D02*
Y1357774D01*
X1380795Y1356132D02*
Y1357774D01*
X1380815Y1356132D02*
Y1357774D01*
X1380835Y1356132D02*
Y1357774D01*
X1380854Y1356132D02*
Y1357774D01*
X1380874Y1356132D02*
Y1357774D01*
X1380894Y1356132D02*
Y1357774D01*
X1380913Y1356132D02*
Y1357774D01*
X1380933Y1356132D02*
Y1357774D01*
X1380953Y1356132D02*
Y1357774D01*
X1380972Y1356132D02*
Y1357774D01*
X1380992Y1356132D02*
Y1357774D01*
X1381012Y1356132D02*
Y1357774D01*
X1381031Y1356132D02*
Y1357774D01*
X1381051Y1356132D02*
Y1357774D01*
X1381071Y1356132D02*
Y1357774D01*
X1381091Y1356132D02*
Y1357774D01*
X1381110Y1356132D02*
Y1357774D01*
X1381130Y1356132D02*
Y1357774D01*
X1381150Y1356132D02*
Y1357774D01*
X1381169Y1356132D02*
Y1357774D01*
X1381189Y1356132D02*
Y1357774D01*
X1381209Y1356132D02*
Y1357774D01*
X1381228Y1356132D02*
Y1357774D01*
X1381248Y1356132D02*
Y1357774D01*
X1381268Y1356132D02*
Y1357774D01*
X1381287Y1356132D02*
Y1357774D01*
X1381307Y1356132D02*
Y1357774D01*
X1381327Y1356132D02*
Y1357774D01*
X1381346Y1356132D02*
Y1357774D01*
X1381366Y1356132D02*
Y1357774D01*
X1381386Y1356132D02*
Y1357774D01*
X1381406Y1356132D02*
Y1357774D01*
X1381425Y1356132D02*
Y1357774D01*
X1381445Y1356132D02*
Y1357774D01*
X1381465Y1356132D02*
Y1357774D01*
X1381484Y1356132D02*
Y1357774D01*
X1381504Y1356132D02*
Y1357774D01*
X1381524Y1356132D02*
Y1357774D01*
X1381543Y1356132D02*
Y1357774D01*
X1381563Y1356132D02*
Y1357774D01*
X1381583Y1356132D02*
Y1357774D01*
X1381602Y1356132D02*
Y1357774D01*
X1381622Y1356132D02*
Y1357774D01*
X1381642Y1356132D02*
Y1357774D01*
X1381661Y1356132D02*
Y1357774D01*
X1381681Y1356132D02*
Y1357774D01*
X1381701Y1356132D02*
Y1357774D01*
X1381720Y1356132D02*
Y1357774D01*
X1381740Y1356132D02*
Y1357774D01*
X1381760Y1356132D02*
Y1357774D01*
X1381780Y1356132D02*
Y1357774D01*
X1381799Y1356132D02*
Y1357774D01*
X1381819Y1356132D02*
Y1357774D01*
X1381839Y1356132D02*
Y1357774D01*
X1381858Y1356132D02*
Y1357774D01*
X1381878Y1356132D02*
Y1357774D01*
X1381898Y1356132D02*
Y1357774D01*
X1381917Y1356132D02*
Y1357774D01*
X1381937Y1356132D02*
Y1357774D01*
X1381957Y1356132D02*
Y1357774D01*
X1381976Y1356132D02*
Y1357774D01*
X1381996Y1356132D02*
Y1357774D01*
X1382016Y1356132D02*
Y1357774D01*
X1382035Y1356132D02*
Y1357774D01*
X1382055Y1356132D02*
Y1357774D01*
X1382075Y1356132D02*
Y1357774D01*
X1382094Y1356132D02*
Y1357774D01*
X1382114Y1356132D02*
Y1357774D01*
X1382134Y1356132D02*
Y1357774D01*
X1382154Y1356132D02*
Y1357774D01*
X1382173Y1356132D02*
Y1357774D01*
X1382193Y1356132D02*
Y1357774D01*
X1382213Y1356132D02*
Y1357774D01*
X1382232Y1356132D02*
Y1357774D01*
X1382252Y1356132D02*
Y1357774D01*
X1382272Y1356132D02*
Y1357774D01*
X1382291Y1356132D02*
Y1357774D01*
X1382311Y1356132D02*
Y1357774D01*
X1382331Y1356132D02*
Y1357774D01*
X1382350Y1356132D02*
Y1357774D01*
X1382370Y1356132D02*
Y1357774D01*
X1382390Y1356132D02*
Y1357774D01*
X1382409Y1356132D02*
Y1357774D01*
X1382429Y1356132D02*
Y1357774D01*
X1382449Y1356132D02*
Y1357774D01*
X1382469Y1356132D02*
Y1357774D01*
X1382488Y1356132D02*
Y1357774D01*
X1382508Y1356132D02*
Y1357774D01*
X1382528Y1356132D02*
Y1357774D01*
X1382547Y1356132D02*
Y1357774D01*
X1382567Y1356132D02*
Y1357774D01*
X1382587Y1356132D02*
Y1357774D01*
X1382606Y1356132D02*
Y1357774D01*
X1382626Y1356132D02*
Y1357774D01*
X1382646Y1356132D02*
Y1357774D01*
X1382665Y1356132D02*
Y1357774D01*
X1382685Y1356132D02*
Y1357774D01*
X1382705Y1356132D02*
Y1357774D01*
X1382724Y1356132D02*
Y1357774D01*
X1382744Y1356132D02*
Y1357774D01*
X1382764Y1356132D02*
Y1357774D01*
X1382783Y1356132D02*
Y1357774D01*
X1382803Y1356132D02*
Y1357774D01*
X1382823Y1356132D02*
Y1357774D01*
X1382843Y1356132D02*
Y1357774D01*
X1382862Y1356132D02*
Y1357774D01*
X1382882Y1356132D02*
Y1357774D01*
X1382902Y1356132D02*
Y1357774D01*
X1382921Y1356132D02*
Y1357774D01*
X1382941Y1356132D02*
Y1357774D01*
X1382961Y1356132D02*
Y1357774D01*
X1382980Y1356132D02*
Y1357774D01*
X1383000Y1356132D02*
Y1357774D01*
X1383020Y1356132D02*
Y1357774D01*
X1383039Y1356132D02*
Y1357774D01*
X1383059Y1356132D02*
Y1357774D01*
X1383079Y1356132D02*
Y1357774D01*
X1383098Y1356132D02*
Y1357773D01*
X1383118Y1356133D02*
Y1357773D01*
X1383138Y1356134D02*
Y1357771D01*
X1383157Y1356136D02*
Y1357770D01*
X1383177Y1356138D02*
Y1357767D01*
X1383197Y1356141D02*
Y1357765D01*
X1383217Y1356144D02*
Y1357762D01*
X1383236Y1356147D02*
Y1357758D01*
X1383256Y1356151D02*
Y1357754D01*
X1383276Y1356156D02*
Y1357749D01*
X1383295Y1356161D02*
Y1357744D01*
X1383315Y1356167D02*
Y1357739D01*
X1383335Y1356173D02*
Y1357733D01*
X1383354Y1356180D02*
Y1357726D01*
X1383374Y1356187D02*
Y1357718D01*
X1383394Y1356195D02*
Y1357711D01*
X1383413Y1356203D02*
Y1357702D01*
X1383433Y1356213D02*
Y1357693D01*
X1383453Y1356222D02*
Y1357683D01*
X1383472Y1356233D02*
Y1357673D01*
X1383492Y1356244D02*
Y1357662D01*
X1383512Y1356256D02*
Y1357650D01*
X1383531Y1356268D02*
Y1357637D01*
X1383551Y1356282D02*
Y1357624D01*
X1383571Y1356296D02*
Y1357610D01*
X1383591Y1356311D02*
Y1357594D01*
X1383610Y1356327D02*
Y1357578D01*
X1383630Y1356345D02*
Y1357561D01*
X1383650Y1356363D02*
Y1357542D01*
X1383669Y1356383D02*
Y1357523D01*
X1383689Y1356404D02*
Y1357501D01*
X1383709Y1356427D02*
Y1357479D01*
X1383728Y1356451D02*
Y1357454D01*
X1383748Y1356478D02*
Y1357428D01*
X1383768Y1356507D02*
Y1357398D01*
X1383787Y1356539D02*
Y1357367D01*
X1383807Y1356575D02*
Y1357331D01*
X1383827Y1356615D02*
Y1357290D01*
X1383846Y1356663D02*
Y1357243D01*
X1383866Y1356722D02*
Y1357184D01*
X1383886Y1356804D02*
Y1357101D01*
X1380520Y1355805D02*
X1380497Y1355804D01*
X1380475Y1355801*
X1380453Y1355795*
X1380432Y1355788*
X1380411Y1355778*
X1380392Y1355766*
X1380374Y1355753*
X1380357Y1355738*
X1380342Y1355721*
X1380328Y1355703*
X1380317Y1355683*
X1380307Y1355663*
X1380299Y1355642*
X1380294Y1355620*
X1380290Y1355597*
X1380289Y1355575*
Y1354394*
X1380290Y1354371*
X1380294Y1354349*
X1380299Y1354327*
X1380307Y1354306*
X1380317Y1354285*
X1380328Y1354266*
X1380342Y1354248*
X1380357Y1354231*
X1380374Y1354216*
X1380392Y1354202*
X1380411Y1354191*
X1380432Y1354181*
X1380453Y1354173*
X1380475Y1354168*
X1380497Y1354164*
X1380520Y1354163*
X1383079*
X1383123Y1354165*
X1383167Y1354168*
X1383212Y1354174*
X1383255Y1354183*
X1383298Y1354193*
X1383341Y1354206*
X1383383Y1354222*
X1383423Y1354239*
X1383463Y1354259*
X1383502Y1354281*
X1383539Y1354305*
X1383576Y1354331*
X1383610Y1354359*
X1383643Y1354388*
X1383675Y1354420*
X1383704Y1354453*
X1383732Y1354487*
X1383758Y1354524*
X1383782Y1354561*
X1383804Y1354600*
X1383824Y1354640*
X1383841Y1354680*
X1383857Y1354722*
X1383870Y1354765*
X1383880Y1354808*
X1383889Y1354851*
X1383895Y1354896*
X1383895D02*
X1383898Y1354940D01*
X1383900Y1354984*
X1383898Y1355029*
X1383895Y1355073*
X1383889Y1355117*
X1383880Y1355161*
X1383870Y1355204*
X1383857Y1355246*
X1383841Y1355288*
X1383824Y1355329*
X1383804Y1355369*
X1383782Y1355407*
X1383758Y1355445*
X1383732Y1355481*
X1383704Y1355516*
X1383675Y1355549*
X1383643Y1355580*
X1383610Y1355610*
X1383576Y1355638*
X1383539Y1355664*
X1383502Y1355688*
X1383463Y1355709*
X1383423Y1355729*
X1383383Y1355747*
X1383341Y1355762*
X1383298Y1355775*
X1383255Y1355786*
X1383212Y1355794*
X1383167Y1355800*
X1383123Y1355804*
X1383079Y1355805*
X1380520*
X1380303Y1354316D02*
Y1355652D01*
X1380323Y1354275D02*
Y1355694D01*
X1380343Y1354247D02*
Y1355722D01*
X1380362Y1354226D02*
Y1355743D01*
X1380382Y1354209D02*
Y1355759D01*
X1380402Y1354196D02*
Y1355772D01*
X1380421Y1354186D02*
Y1355783D01*
X1380441Y1354178D02*
Y1355791D01*
X1380461Y1354171D02*
Y1355797D01*
X1380480Y1354167D02*
Y1355802D01*
X1380500Y1354164D02*
Y1355804D01*
X1380520Y1354163D02*
Y1355805D01*
X1380539Y1354163D02*
Y1355805D01*
X1380559Y1354163D02*
Y1355805D01*
X1380579Y1354163D02*
Y1355805D01*
X1380598Y1354163D02*
Y1355805D01*
X1380618Y1354163D02*
Y1355805D01*
X1380638Y1354163D02*
Y1355805D01*
X1380657Y1354163D02*
Y1355805D01*
X1380677Y1354163D02*
Y1355805D01*
X1380697Y1354163D02*
Y1355805D01*
X1380717Y1354163D02*
Y1355805D01*
X1380736Y1354163D02*
Y1355805D01*
X1380756Y1354163D02*
Y1355805D01*
X1380776Y1354163D02*
Y1355805D01*
X1380795Y1354163D02*
Y1355805D01*
X1380815Y1354163D02*
Y1355805D01*
X1380835Y1354163D02*
Y1355805D01*
X1380854Y1354163D02*
Y1355805D01*
X1380874Y1354163D02*
Y1355805D01*
X1380894Y1354163D02*
Y1355805D01*
X1380913Y1354163D02*
Y1355805D01*
X1380933Y1354163D02*
Y1355805D01*
X1380953Y1354163D02*
Y1355805D01*
X1380972Y1354163D02*
Y1355805D01*
X1380992Y1354163D02*
Y1355805D01*
X1381012Y1354163D02*
Y1355805D01*
X1381031Y1354163D02*
Y1355805D01*
X1381051Y1354163D02*
Y1355805D01*
X1381071Y1354163D02*
Y1355805D01*
X1381091Y1354163D02*
Y1355805D01*
X1381110Y1354163D02*
Y1355805D01*
X1381130Y1354163D02*
Y1355805D01*
X1381150Y1354163D02*
Y1355805D01*
X1381169Y1354163D02*
Y1355805D01*
X1381189Y1354163D02*
Y1355805D01*
X1381209Y1354163D02*
Y1355805D01*
X1381228Y1354163D02*
Y1355805D01*
X1381248Y1354163D02*
Y1355805D01*
X1381268Y1354163D02*
Y1355805D01*
X1381287Y1354163D02*
Y1355805D01*
X1381307Y1354163D02*
Y1355805D01*
X1381327Y1354163D02*
Y1355805D01*
X1381346Y1354163D02*
Y1355805D01*
X1381366Y1354163D02*
Y1355805D01*
X1381386Y1354163D02*
Y1355805D01*
X1381406Y1354163D02*
Y1355805D01*
X1381425Y1354163D02*
Y1355805D01*
X1381445Y1354163D02*
Y1355805D01*
X1381465Y1354163D02*
Y1355805D01*
X1381484Y1354163D02*
Y1355805D01*
X1381504Y1354163D02*
Y1355805D01*
X1381524Y1354163D02*
Y1355805D01*
X1381543Y1354163D02*
Y1355805D01*
X1381563Y1354163D02*
Y1355805D01*
X1381583Y1354163D02*
Y1355805D01*
X1381602Y1354163D02*
Y1355805D01*
X1381622Y1354163D02*
Y1355805D01*
X1381642Y1354163D02*
Y1355805D01*
X1381661Y1354163D02*
Y1355805D01*
X1381681Y1354163D02*
Y1355805D01*
X1381701Y1354163D02*
Y1355805D01*
X1381720Y1354163D02*
Y1355805D01*
X1381740Y1354163D02*
Y1355805D01*
X1381760Y1354163D02*
Y1355805D01*
X1381780Y1354163D02*
Y1355805D01*
X1381799Y1354163D02*
Y1355805D01*
X1381819Y1354163D02*
Y1355805D01*
X1381839Y1354163D02*
Y1355805D01*
X1381858Y1354163D02*
Y1355805D01*
X1381878Y1354163D02*
Y1355805D01*
X1381898Y1354163D02*
Y1355805D01*
X1381917Y1354163D02*
Y1355805D01*
X1381937Y1354163D02*
Y1355805D01*
X1381957Y1354163D02*
Y1355805D01*
X1381976Y1354163D02*
Y1355805D01*
X1381996Y1354163D02*
Y1355805D01*
X1382016Y1354163D02*
Y1355805D01*
X1382035Y1354163D02*
Y1355805D01*
X1382055Y1354163D02*
Y1355805D01*
X1382075Y1354163D02*
Y1355805D01*
X1382094Y1354163D02*
Y1355805D01*
X1382114Y1354163D02*
Y1355805D01*
X1382134Y1354163D02*
Y1355805D01*
X1382154Y1354163D02*
Y1355805D01*
X1382173Y1354163D02*
Y1355805D01*
X1382193Y1354163D02*
Y1355805D01*
X1382213Y1354163D02*
Y1355805D01*
X1382232Y1354163D02*
Y1355805D01*
X1382252Y1354163D02*
Y1355805D01*
X1382272Y1354163D02*
Y1355805D01*
X1382291Y1354163D02*
Y1355805D01*
X1382311Y1354163D02*
Y1355805D01*
X1382331Y1354163D02*
Y1355805D01*
X1382350Y1354163D02*
Y1355805D01*
X1382370Y1354163D02*
Y1355805D01*
X1382390Y1354163D02*
Y1355805D01*
X1382409Y1354163D02*
Y1355805D01*
X1382429Y1354163D02*
Y1355805D01*
X1382449Y1354163D02*
Y1355805D01*
X1382469Y1354163D02*
Y1355805D01*
X1382488Y1354163D02*
Y1355805D01*
X1382508Y1354163D02*
Y1355805D01*
X1382528Y1354163D02*
Y1355805D01*
X1382547Y1354163D02*
Y1355805D01*
X1382567Y1354163D02*
Y1355805D01*
X1382587Y1354163D02*
Y1355805D01*
X1382606Y1354163D02*
Y1355805D01*
X1382626Y1354163D02*
Y1355805D01*
X1382646Y1354163D02*
Y1355805D01*
X1382665Y1354163D02*
Y1355805D01*
X1382685Y1354163D02*
Y1355805D01*
X1382705Y1354163D02*
Y1355805D01*
X1382724Y1354163D02*
Y1355805D01*
X1382744Y1354163D02*
Y1355805D01*
X1382764Y1354163D02*
Y1355805D01*
X1382783Y1354163D02*
Y1355805D01*
X1382803Y1354163D02*
Y1355805D01*
X1382823Y1354163D02*
Y1355805D01*
X1382843Y1354163D02*
Y1355805D01*
X1382862Y1354163D02*
Y1355805D01*
X1382882Y1354163D02*
Y1355805D01*
X1382902Y1354163D02*
Y1355805D01*
X1382921Y1354163D02*
Y1355805D01*
X1382941Y1354163D02*
Y1355805D01*
X1382961Y1354163D02*
Y1355805D01*
X1382980Y1354163D02*
Y1355805D01*
X1383000Y1354163D02*
Y1355805D01*
X1383020Y1354163D02*
Y1355805D01*
X1383039Y1354163D02*
Y1355805D01*
X1383059Y1354163D02*
Y1355805D01*
X1383079Y1354163D02*
Y1355805D01*
X1383098Y1354164D02*
Y1355805D01*
X1383118Y1354164D02*
Y1355804D01*
X1383138Y1354166D02*
Y1355803D01*
X1383157Y1354167D02*
Y1355801D01*
X1383177Y1354170D02*
Y1355799D01*
X1383197Y1354172D02*
Y1355796D01*
X1383217Y1354175D02*
Y1355793D01*
X1383236Y1354179D02*
Y1355790D01*
X1383256Y1354183D02*
Y1355786D01*
X1383276Y1354188D02*
Y1355781D01*
X1383295Y1354193D02*
Y1355776D01*
X1383315Y1354198D02*
Y1355770D01*
X1383335Y1354204D02*
Y1355764D01*
X1383354Y1354211D02*
Y1355757D01*
X1383374Y1354219D02*
Y1355750D01*
X1383394Y1354226D02*
Y1355742D01*
X1383413Y1354235D02*
Y1355734D01*
X1383433Y1354244D02*
Y1355724D01*
X1383453Y1354254D02*
Y1355715D01*
X1383472Y1354264D02*
Y1355704D01*
X1383492Y1354275D02*
Y1355693D01*
X1383512Y1354287D02*
Y1355681D01*
X1383531Y1354300D02*
Y1355669D01*
X1383551Y1354313D02*
Y1355655D01*
X1383571Y1354327D02*
Y1355641D01*
X1383591Y1354343D02*
Y1355626D01*
X1383610Y1354359D02*
Y1355610D01*
X1383630Y1354376D02*
Y1355592D01*
X1383650Y1354395D02*
Y1355574D01*
X1383669Y1354414D02*
Y1355554D01*
X1383689Y1354436D02*
Y1355533D01*
X1383709Y1354458D02*
Y1355510D01*
X1383728Y1354483D02*
Y1355486D01*
X1383748Y1354509D02*
Y1355459D01*
X1383768Y1354539D02*
Y1355430D01*
X1383787Y1354570D02*
Y1355398D01*
X1383807Y1354606D02*
Y1355362D01*
X1383827Y1354647D02*
Y1355322D01*
X1383846Y1354694D02*
Y1355274D01*
X1383866Y1354753D02*
Y1355215D01*
X1383886Y1354836D02*
Y1355133D01*
X1380520Y1353837D02*
X1380497Y1353836D01*
X1380475Y1353832*
X1380453Y1353827*
X1380432Y1353819*
X1380411Y1353809*
X1380392Y1353798*
X1380374Y1353784*
X1380357Y1353769*
X1380342Y1353752*
X1380328Y1353734*
X1380317Y1353715*
X1380307Y1353694*
X1380299Y1353673*
X1380294Y1353651*
X1380290Y1353629*
X1380289Y1353606*
Y1352425*
X1380290Y1352403*
X1380294Y1352380*
X1380299Y1352358*
X1380307Y1352337*
X1380317Y1352317*
X1380328Y1352297*
X1380342Y1352279*
X1380357Y1352262*
X1380374Y1352247*
X1380392Y1352234*
X1380411Y1352222*
X1380432Y1352212*
X1380453Y1352205*
X1380475Y1352199*
X1380497Y1352196*
X1380520Y1352195*
X1383079*
X1383123Y1352196*
X1383167Y1352200*
X1383212Y1352206*
X1383255Y1352214*
X1383298Y1352225*
X1383341Y1352238*
X1383383Y1352253*
X1383423Y1352271*
X1383463Y1352291*
X1383502Y1352312*
X1383539Y1352336*
X1383576Y1352362*
X1383610Y1352390*
X1383643Y1352420*
X1383675Y1352451*
X1383704Y1352484*
X1383732Y1352519*
X1383758Y1352555*
X1383782Y1352593*
X1383804Y1352631*
X1383824Y1352671*
X1383841Y1352712*
X1383857Y1352754*
X1383870Y1352796*
X1383880Y1352839*
X1383889Y1352883*
X1383895Y1352927*
X1383898Y1352971*
X1383900Y1353016*
X1383898Y1353060*
X1383895Y1353104*
X1383895D02*
X1383889Y1353149D01*
X1383880Y1353192*
X1383870Y1353235*
X1383857Y1353278*
X1383841Y1353320*
X1383824Y1353360*
X1383804Y1353400*
X1383782Y1353439*
X1383758Y1353476*
X1383732Y1353513*
X1383704Y1353547*
X1383675Y1353580*
X1383643Y1353612*
X1383610Y1353641*
X1383576Y1353669*
X1383539Y1353695*
X1383502Y1353719*
X1383463Y1353741*
X1383423Y1353761*
X1383383Y1353778*
X1383341Y1353794*
X1383298Y1353807*
X1383255Y1353817*
X1383212Y1353826*
X1383167Y1353832*
X1383123Y1353835*
X1383079Y1353837*
X1380520*
X1380303Y1352348D02*
Y1353684D01*
X1380323Y1352306D02*
Y1353725D01*
X1380343Y1352278D02*
Y1353753D01*
X1380362Y1352257D02*
Y1353774D01*
X1380382Y1352241D02*
Y1353791D01*
X1380402Y1352228D02*
Y1353804D01*
X1380421Y1352217D02*
Y1353814D01*
X1380441Y1352209D02*
Y1353822D01*
X1380461Y1352203D02*
Y1353829D01*
X1380480Y1352198D02*
Y1353833D01*
X1380500Y1352196D02*
Y1353836D01*
X1380520Y1352195D02*
Y1353837D01*
X1380539Y1352195D02*
Y1353837D01*
X1380559Y1352195D02*
Y1353837D01*
X1380579Y1352195D02*
Y1353837D01*
X1380598Y1352195D02*
Y1353837D01*
X1380618Y1352195D02*
Y1353837D01*
X1380638Y1352195D02*
Y1353837D01*
X1380657Y1352195D02*
Y1353837D01*
X1380677Y1352195D02*
Y1353837D01*
X1380697Y1352195D02*
Y1353837D01*
X1380717Y1352195D02*
Y1353837D01*
X1380736Y1352195D02*
Y1353837D01*
X1380756Y1352195D02*
Y1353837D01*
X1380776Y1352195D02*
Y1353837D01*
X1380795Y1352195D02*
Y1353837D01*
X1380815Y1352195D02*
Y1353837D01*
X1380835Y1352195D02*
Y1353837D01*
X1380854Y1352195D02*
Y1353837D01*
X1380874Y1352195D02*
Y1353837D01*
X1380894Y1352195D02*
Y1353837D01*
X1380913Y1352195D02*
Y1353837D01*
X1380933Y1352195D02*
Y1353837D01*
X1380953Y1352195D02*
Y1353837D01*
X1380972Y1352195D02*
Y1353837D01*
X1380992Y1352195D02*
Y1353837D01*
X1381012Y1352195D02*
Y1353837D01*
X1381031Y1352195D02*
Y1353837D01*
X1381051Y1352195D02*
Y1353837D01*
X1381071Y1352195D02*
Y1353837D01*
X1381091Y1352195D02*
Y1353837D01*
X1381110Y1352195D02*
Y1353837D01*
X1381130Y1352195D02*
Y1353837D01*
X1381150Y1352195D02*
Y1353837D01*
X1381169Y1352195D02*
Y1353837D01*
X1381189Y1352195D02*
Y1353837D01*
X1381209Y1352195D02*
Y1353837D01*
X1381228Y1352195D02*
Y1353837D01*
X1381248Y1352195D02*
Y1353837D01*
X1381268Y1352195D02*
Y1353837D01*
X1381287Y1352195D02*
Y1353837D01*
X1381307Y1352195D02*
Y1353837D01*
X1381327Y1352195D02*
Y1353837D01*
X1381346Y1352195D02*
Y1353837D01*
X1381366Y1352195D02*
Y1353837D01*
X1381386Y1352195D02*
Y1353837D01*
X1381406Y1352195D02*
Y1353837D01*
X1381425Y1352195D02*
Y1353837D01*
X1381445Y1352195D02*
Y1353837D01*
X1381465Y1352195D02*
Y1353837D01*
X1381484Y1352195D02*
Y1353837D01*
X1381504Y1352195D02*
Y1353837D01*
X1381524Y1352195D02*
Y1353837D01*
X1381543Y1352195D02*
Y1353837D01*
X1381563Y1352195D02*
Y1353837D01*
X1381583Y1352195D02*
Y1353837D01*
X1381602Y1352195D02*
Y1353837D01*
X1381622Y1352195D02*
Y1353837D01*
X1381642Y1352195D02*
Y1353837D01*
X1381661Y1352195D02*
Y1353837D01*
X1381681Y1352195D02*
Y1353837D01*
X1381701Y1352195D02*
Y1353837D01*
X1381720Y1352195D02*
Y1353837D01*
X1381740Y1352195D02*
Y1353837D01*
X1381760Y1352195D02*
Y1353837D01*
X1381780Y1352195D02*
Y1353837D01*
X1381799Y1352195D02*
Y1353837D01*
X1381819Y1352195D02*
Y1353837D01*
X1381839Y1352195D02*
Y1353837D01*
X1381858Y1352195D02*
Y1353837D01*
X1381878Y1352195D02*
Y1353837D01*
X1381898Y1352195D02*
Y1353837D01*
X1381917Y1352195D02*
Y1353837D01*
X1381937Y1352195D02*
Y1353837D01*
X1381957Y1352195D02*
Y1353837D01*
X1381976Y1352195D02*
Y1353837D01*
X1381996Y1352195D02*
Y1353837D01*
X1382016Y1352195D02*
Y1353837D01*
X1382035Y1352195D02*
Y1353837D01*
X1382055Y1352195D02*
Y1353837D01*
X1382075Y1352195D02*
Y1353837D01*
X1382094Y1352195D02*
Y1353837D01*
X1382114Y1352195D02*
Y1353837D01*
X1382134Y1352195D02*
Y1353837D01*
X1382154Y1352195D02*
Y1353837D01*
X1382173Y1352195D02*
Y1353837D01*
X1382193Y1352195D02*
Y1353837D01*
X1382213Y1352195D02*
Y1353837D01*
X1382232Y1352195D02*
Y1353837D01*
X1382252Y1352195D02*
Y1353837D01*
X1382272Y1352195D02*
Y1353837D01*
X1382291Y1352195D02*
Y1353837D01*
X1382311Y1352195D02*
Y1353837D01*
X1382331Y1352195D02*
Y1353837D01*
X1382350Y1352195D02*
Y1353837D01*
X1382370Y1352195D02*
Y1353837D01*
X1382390Y1352195D02*
Y1353837D01*
X1382409Y1352195D02*
Y1353837D01*
X1382429Y1352195D02*
Y1353837D01*
X1382449Y1352195D02*
Y1353837D01*
X1382469Y1352195D02*
Y1353837D01*
X1382488Y1352195D02*
Y1353837D01*
X1382508Y1352195D02*
Y1353837D01*
X1382528Y1352195D02*
Y1353837D01*
X1382547Y1352195D02*
Y1353837D01*
X1382567Y1352195D02*
Y1353837D01*
X1382587Y1352195D02*
Y1353837D01*
X1382606Y1352195D02*
Y1353837D01*
X1382626Y1352195D02*
Y1353837D01*
X1382646Y1352195D02*
Y1353837D01*
X1382665Y1352195D02*
Y1353837D01*
X1382685Y1352195D02*
Y1353837D01*
X1382705Y1352195D02*
Y1353837D01*
X1382724Y1352195D02*
Y1353837D01*
X1382744Y1352195D02*
Y1353837D01*
X1382764Y1352195D02*
Y1353837D01*
X1382783Y1352195D02*
Y1353837D01*
X1382803Y1352195D02*
Y1353837D01*
X1382823Y1352195D02*
Y1353837D01*
X1382843Y1352195D02*
Y1353837D01*
X1382862Y1352195D02*
Y1353837D01*
X1382882Y1352195D02*
Y1353837D01*
X1382902Y1352195D02*
Y1353837D01*
X1382921Y1352195D02*
Y1353837D01*
X1382941Y1352195D02*
Y1353837D01*
X1382961Y1352195D02*
Y1353837D01*
X1382980Y1352195D02*
Y1353837D01*
X1383000Y1352195D02*
Y1353837D01*
X1383020Y1352195D02*
Y1353837D01*
X1383039Y1352195D02*
Y1353837D01*
X1383059Y1352195D02*
Y1353837D01*
X1383079Y1352195D02*
Y1353837D01*
X1383098Y1352195D02*
Y1353836D01*
X1383118Y1352196D02*
Y1353836D01*
X1383138Y1352197D02*
Y1353834D01*
X1383157Y1352199D02*
Y1353833D01*
X1383177Y1352201D02*
Y1353830D01*
X1383197Y1352204D02*
Y1353828D01*
X1383217Y1352207D02*
Y1353825D01*
X1383236Y1352210D02*
Y1353821D01*
X1383256Y1352214D02*
Y1353817D01*
X1383276Y1352219D02*
Y1353812D01*
X1383295Y1352224D02*
Y1353807D01*
X1383315Y1352230D02*
Y1353802D01*
X1383335Y1352236D02*
Y1353796D01*
X1383354Y1352243D02*
Y1353789D01*
X1383374Y1352250D02*
Y1353781D01*
X1383394Y1352258D02*
Y1353774D01*
X1383413Y1352266D02*
Y1353765D01*
X1383433Y1352276D02*
Y1353756D01*
X1383453Y1352285D02*
Y1353746D01*
X1383472Y1352296D02*
Y1353736D01*
X1383492Y1352307D02*
Y1353725D01*
X1383512Y1352319D02*
Y1353713D01*
X1383531Y1352331D02*
Y1353700D01*
X1383551Y1352345D02*
Y1353687D01*
X1383571Y1352359D02*
Y1353673D01*
X1383591Y1352374D02*
Y1353657D01*
X1383610Y1352390D02*
Y1353641D01*
X1383630Y1352408D02*
Y1353624D01*
X1383650Y1352426D02*
Y1353605D01*
X1383669Y1352446D02*
Y1353586D01*
X1383689Y1352467D02*
Y1353564D01*
X1383709Y1352490D02*
Y1353542D01*
X1383728Y1352514D02*
Y1353517D01*
X1383748Y1352541D02*
Y1353491D01*
X1383768Y1352570D02*
Y1353461D01*
X1383787Y1352602D02*
Y1353430D01*
X1383807Y1352638D02*
Y1353394D01*
X1383827Y1352678D02*
Y1353353D01*
X1383846Y1352726D02*
Y1353306D01*
X1383866Y1352785D02*
Y1353247D01*
X1383886Y1352867D02*
Y1353164D01*
X1380520Y1351868D02*
X1380497Y1351867D01*
X1380475Y1351864*
X1380453Y1351858*
X1380432Y1351851*
X1380411Y1351841*
X1380392Y1351829*
X1380374Y1351816*
X1380357Y1351801*
X1380342Y1351784*
X1380328Y1351766*
X1380317Y1351746*
X1380307Y1351726*
X1380299Y1351705*
X1380294Y1351683*
X1380290Y1351660*
X1380289Y1351638*
Y1350457*
X1380290Y1350434*
X1380294Y1350412*
X1380299Y1350390*
X1380307Y1350369*
X1380317Y1350348*
X1380328Y1350329*
X1380342Y1350311*
X1380357Y1350294*
X1380374Y1350279*
X1380392Y1350265*
X1380411Y1350254*
X1380432Y1350244*
X1380453Y1350236*
X1380475Y1350231*
X1380497Y1350227*
X1380520Y1350226*
X1383079*
X1383123Y1350228*
X1383167Y1350231*
X1383212Y1350237*
X1383255Y1350246*
X1383298Y1350256*
X1383341Y1350269*
X1383383Y1350285*
X1383423Y1350302*
X1383463Y1350322*
X1383502Y1350344*
X1383539Y1350368*
X1383576Y1350394*
X1383610Y1350422*
X1383643Y1350451*
X1383675Y1350483*
X1383704Y1350516*
X1383732Y1350550*
X1383758Y1350587*
X1383782Y1350624*
X1383804Y1350663*
X1383824Y1350703*
X1383841Y1350743*
X1383857Y1350785*
X1383870Y1350828*
X1383880Y1350871*
X1383889Y1350914*
X1383895Y1350958*
X1383898Y1351003*
X1383900Y1351047*
X1383898Y1351092*
X1383895Y1351136*
X1383889Y1351180*
X1383880Y1351224*
X1383870Y1351267*
X1383857Y1351309*
X1383841Y1351351*
X1383824Y1351392*
X1383804Y1351432*
X1383782Y1351470*
X1383758Y1351508*
X1383732Y1351544*
X1383704Y1351579*
X1383675Y1351612*
X1383643Y1351643*
X1383610Y1351673*
X1383576Y1351701*
X1383539Y1351727*
X1383502Y1351751*
X1383463Y1351772*
X1383423Y1351792*
X1383383Y1351810*
X1383341Y1351825*
X1383298Y1351838*
X1383255Y1351849*
X1383212Y1351857*
X1383167Y1351863*
X1383123Y1351867*
X1383079Y1351868*
X1380520*
X1380303Y1350379D02*
Y1351715D01*
X1380323Y1350338D02*
Y1351757D01*
X1380343Y1350310D02*
Y1351785D01*
X1380362Y1350289D02*
Y1351806D01*
X1380382Y1350272D02*
Y1351822D01*
X1380402Y1350259D02*
Y1351835D01*
X1380421Y1350249D02*
Y1351846D01*
X1380441Y1350241D02*
Y1351854D01*
X1380461Y1350234D02*
Y1351860D01*
X1380480Y1350230D02*
Y1351865D01*
X1380500Y1350227D02*
Y1351867D01*
X1380520Y1350226D02*
Y1351868D01*
X1380539Y1350226D02*
Y1351868D01*
X1380559Y1350226D02*
Y1351868D01*
X1380579Y1350226D02*
Y1351868D01*
X1380598Y1350226D02*
Y1351868D01*
X1380618Y1350226D02*
Y1351868D01*
X1380638Y1350226D02*
Y1351868D01*
X1380657Y1350226D02*
Y1351868D01*
X1380677Y1350226D02*
Y1351868D01*
X1380697Y1350226D02*
Y1351868D01*
X1380717Y1350226D02*
Y1351868D01*
X1380736Y1350226D02*
Y1351868D01*
X1380756Y1350226D02*
Y1351868D01*
X1380776Y1350226D02*
Y1351868D01*
X1380795Y1350226D02*
Y1351868D01*
X1380815Y1350226D02*
Y1351868D01*
X1380835Y1350226D02*
Y1351868D01*
X1380854Y1350226D02*
Y1351868D01*
X1380874Y1350226D02*
Y1351868D01*
X1380894Y1350226D02*
Y1351868D01*
X1380913Y1350226D02*
Y1351868D01*
X1380933Y1350226D02*
Y1351868D01*
X1380953Y1350226D02*
Y1351868D01*
X1380972Y1350226D02*
Y1351868D01*
X1380992Y1350226D02*
Y1351868D01*
X1381012Y1350226D02*
Y1351868D01*
X1381031Y1350226D02*
Y1351868D01*
X1381051Y1350226D02*
Y1351868D01*
X1381071Y1350226D02*
Y1351868D01*
X1381091Y1350226D02*
Y1351868D01*
X1381110Y1350226D02*
Y1351868D01*
X1381130Y1350226D02*
Y1351868D01*
X1381150Y1350226D02*
Y1351868D01*
X1381169Y1350226D02*
Y1351868D01*
X1381189Y1350226D02*
Y1351868D01*
X1381209Y1350226D02*
Y1351868D01*
X1381228Y1350226D02*
Y1351868D01*
X1381248Y1350226D02*
Y1351868D01*
X1381268Y1350226D02*
Y1351868D01*
X1381287Y1350226D02*
Y1351868D01*
X1381307Y1350226D02*
Y1351868D01*
X1381327Y1350226D02*
Y1351868D01*
X1381346Y1350226D02*
Y1351868D01*
X1381366Y1350226D02*
Y1351868D01*
X1381386Y1350226D02*
Y1351868D01*
X1381406Y1350226D02*
Y1351868D01*
X1381425Y1350226D02*
Y1351868D01*
X1381445Y1350226D02*
Y1351868D01*
X1381465Y1350226D02*
Y1351868D01*
X1381484Y1350226D02*
Y1351868D01*
X1381504Y1350226D02*
Y1351868D01*
X1381524Y1350226D02*
Y1351868D01*
X1381543Y1350226D02*
Y1351868D01*
X1381563Y1350226D02*
Y1351868D01*
X1381583Y1350226D02*
Y1351868D01*
X1381602Y1350226D02*
Y1351868D01*
X1381622Y1350226D02*
Y1351868D01*
X1381642Y1350226D02*
Y1351868D01*
X1381661Y1350226D02*
Y1351868D01*
X1381681Y1350226D02*
Y1351868D01*
X1381701Y1350226D02*
Y1351868D01*
X1381720Y1350226D02*
Y1351868D01*
X1381740Y1350226D02*
Y1351868D01*
X1381760Y1350226D02*
Y1351868D01*
X1381780Y1350226D02*
Y1351868D01*
X1381799Y1350226D02*
Y1351868D01*
X1381819Y1350226D02*
Y1351868D01*
X1381839Y1350226D02*
Y1351868D01*
X1381858Y1350226D02*
Y1351868D01*
X1381878Y1350226D02*
Y1351868D01*
X1381898Y1350226D02*
Y1351868D01*
X1381917Y1350226D02*
Y1351868D01*
X1381937Y1350226D02*
Y1351868D01*
X1381957Y1350226D02*
Y1351868D01*
X1381976Y1350226D02*
Y1351868D01*
X1381996Y1350226D02*
Y1351868D01*
X1382016Y1350226D02*
Y1351868D01*
X1382035Y1350226D02*
Y1351868D01*
X1382055Y1350226D02*
Y1351868D01*
X1382075Y1350226D02*
Y1351868D01*
X1382094Y1350226D02*
Y1351868D01*
X1382114Y1350226D02*
Y1351868D01*
X1382134Y1350226D02*
Y1351868D01*
X1382154Y1350226D02*
Y1351868D01*
X1382173Y1350226D02*
Y1351868D01*
X1382193Y1350226D02*
Y1351868D01*
X1382213Y1350226D02*
Y1351868D01*
X1382232Y1350226D02*
Y1351868D01*
X1382252Y1350226D02*
Y1351868D01*
X1382272Y1350226D02*
Y1351868D01*
X1382291Y1350226D02*
Y1351868D01*
X1382311Y1350226D02*
Y1351868D01*
X1382331Y1350226D02*
Y1351868D01*
X1382350Y1350226D02*
Y1351868D01*
X1382370Y1350226D02*
Y1351868D01*
X1382390Y1350226D02*
Y1351868D01*
X1382409Y1350226D02*
Y1351868D01*
X1382429Y1350226D02*
Y1351868D01*
X1382449Y1350226D02*
Y1351868D01*
X1382469Y1350226D02*
Y1351868D01*
X1382488Y1350226D02*
Y1351868D01*
X1382508Y1350226D02*
Y1351868D01*
X1382528Y1350226D02*
Y1351868D01*
X1382547Y1350226D02*
Y1351868D01*
X1382567Y1350226D02*
Y1351868D01*
X1382587Y1350226D02*
Y1351868D01*
X1382606Y1350226D02*
Y1351868D01*
X1382626Y1350226D02*
Y1351868D01*
X1382646Y1350226D02*
Y1351868D01*
X1382665Y1350226D02*
Y1351868D01*
X1382685Y1350226D02*
Y1351868D01*
X1382705Y1350226D02*
Y1351868D01*
X1382724Y1350226D02*
Y1351868D01*
X1382744Y1350226D02*
Y1351868D01*
X1382764Y1350226D02*
Y1351868D01*
X1382783Y1350226D02*
Y1351868D01*
X1382803Y1350226D02*
Y1351868D01*
X1382823Y1350226D02*
Y1351868D01*
X1382843Y1350226D02*
Y1351868D01*
X1382862Y1350226D02*
Y1351868D01*
X1382882Y1350226D02*
Y1351868D01*
X1382902Y1350226D02*
Y1351868D01*
X1382921Y1350226D02*
Y1351868D01*
X1382941Y1350226D02*
Y1351868D01*
X1382961Y1350226D02*
Y1351868D01*
X1382980Y1350226D02*
Y1351868D01*
X1383000Y1350226D02*
Y1351868D01*
X1383020Y1350226D02*
Y1351868D01*
X1383039Y1350226D02*
Y1351868D01*
X1383059Y1350226D02*
Y1351868D01*
X1383079Y1350226D02*
Y1351868D01*
X1383098Y1350227D02*
Y1351868D01*
X1383118Y1350227D02*
Y1351867D01*
X1383138Y1350229D02*
Y1351866D01*
X1383157Y1350230D02*
Y1351864D01*
X1383177Y1350233D02*
Y1351862D01*
X1383197Y1350235D02*
Y1351859D01*
X1383217Y1350238D02*
Y1351856D01*
X1383236Y1350242D02*
Y1351853D01*
X1383256Y1350246D02*
Y1351849D01*
X1383276Y1350251D02*
Y1351844D01*
X1383295Y1350256D02*
Y1351839D01*
X1383315Y1350261D02*
Y1351833D01*
X1383335Y1350267D02*
Y1351827D01*
X1383354Y1350274D02*
Y1351820D01*
X1383374Y1350282D02*
Y1351813D01*
X1383394Y1350289D02*
Y1351805D01*
X1383413Y1350298D02*
Y1351797D01*
X1383433Y1350307D02*
Y1351787D01*
X1383453Y1350317D02*
Y1351778D01*
X1383472Y1350327D02*
Y1351767D01*
X1383492Y1350338D02*
Y1351756D01*
X1383512Y1350350D02*
Y1351744D01*
X1383531Y1350363D02*
Y1351732D01*
X1383551Y1350376D02*
Y1351718D01*
X1383571Y1350390D02*
Y1351704D01*
X1383591Y1350406D02*
Y1351689D01*
X1383610Y1350422D02*
Y1351673D01*
X1383630Y1350439D02*
Y1351655D01*
X1383650Y1350458D02*
Y1351637D01*
X1383669Y1350477D02*
Y1351617D01*
X1383689Y1350499D02*
Y1351596D01*
X1383709Y1350521D02*
Y1351573D01*
X1383728Y1350546D02*
Y1351549D01*
X1383748Y1350572D02*
Y1351522D01*
X1383768Y1350602D02*
Y1351493D01*
X1383787Y1350633D02*
Y1351461D01*
X1383807Y1350669D02*
Y1351425D01*
X1383827Y1350710D02*
Y1351385D01*
X1383846Y1350757D02*
Y1351337D01*
X1383866Y1350816D02*
Y1351278D01*
X1383886Y1350899D02*
Y1351196D01*
G54D373*
X1457000Y1381976D03*
Y1404024D03*
Y1416976D03*
Y1439024D03*
G54D375*
X1073500Y1242500D03*
X1083500D03*
X1093500Y1243000D03*
G54D376*
X1617402Y1459035D03*
X1595236D03*
X1569173D03*
G54D377*
X1442024Y1411000D03*
X1419976D03*
G54D379*
X1507224Y1229921D03*
X1531555D03*
X1507224Y1233071D03*
X1531555D03*
X1507224Y1236220D03*
X1531555D03*
X1507224Y1239370D03*
X1531555D03*
X1507224Y1242520D03*
X1531555D03*
X1507224Y1245669D03*
X1531555D03*
X1507224Y1248819D03*
X1531555D03*
X1507224Y1251969D03*
X1531555D03*
X1507224Y1255118D03*
X1531555D03*
X1507224Y1258268D03*
X1531555D03*
X1507224Y1261417D03*
X1531555D03*
X1507224Y1264567D03*
X1531555D03*
X1507224Y1267717D03*
X1531555D03*
X1507224Y1270866D03*
X1531555D03*
X1507224Y1274016D03*
X1531555D03*
X1507224Y1277165D03*
X1531555D03*
X1507224Y1280315D03*
X1531555D03*
X1507224Y1283465D03*
X1531555D03*
X1507224Y1286614D03*
X1531555D03*
X1507224Y1289764D03*
X1531555D03*
X1507224Y1308661D03*
X1531555D03*
X1507224Y1311811D03*
X1531555D03*
X1507224Y1314961D03*
X1531555D03*
X1507224Y1318110D03*
X1531555D03*
X1507224Y1321260D03*
X1531555D03*
X1507224Y1324409D03*
X1531555D03*
X1507224Y1327559D03*
X1531555D03*
X1507224Y1330709D03*
X1531555D03*
X1507224Y1333858D03*
X1531555D03*
X1507224Y1337008D03*
X1531555D03*
X1507224Y1340157D03*
X1531555D03*
X1507224Y1343307D03*
X1531555D03*
X1507224Y1346457D03*
X1531555D03*
X1507224Y1349606D03*
X1531555D03*
X1507224Y1352756D03*
X1531555D03*
X1507224Y1355906D03*
X1531555D03*
X1507224Y1359055D03*
X1531555D03*
X1507224Y1362205D03*
X1531555D03*
X1507224Y1365354D03*
X1531555D03*
X1507224Y1368504D03*
X1531555D03*
X1075045Y1081627D03*
X1099375D03*
X1075045Y1084776D03*
X1099375D03*
X1075045Y1087926D03*
X1099375D03*
X1075045Y1091075D03*
X1099375D03*
X1075045Y1094225D03*
X1099375D03*
X1075045Y1097375D03*
X1099375D03*
X1075045Y1100524D03*
X1099375D03*
X1075045Y1103674D03*
X1099375D03*
X1075045Y1106824D03*
X1099375D03*
X1075045Y1109973D03*
X1099375D03*
X1075045Y1113123D03*
X1099375D03*
X1075045Y1116272D03*
X1099375D03*
X1075045Y1119422D03*
X1099375D03*
X1075045Y1122572D03*
X1099375D03*
X1075045Y1125721D03*
X1099375D03*
X1075045Y1128871D03*
X1099375D03*
X1075045Y1132020D03*
X1099375D03*
X1075045Y1135170D03*
X1099375D03*
X1075045Y1138320D03*
X1099375D03*
X1075045Y1141469D03*
X1099375D03*
X1075045Y1160367D03*
X1099375D03*
X1075045Y1163516D03*
X1099375D03*
X1075045Y1166666D03*
X1099375D03*
X1075045Y1169816D03*
X1099375D03*
X1075045Y1172965D03*
X1099375D03*
X1075045Y1176115D03*
X1099375D03*
X1075045Y1179264D03*
X1099375D03*
X1075045Y1182414D03*
X1099375D03*
X1075045Y1185564D03*
X1099375D03*
X1075045Y1188713D03*
X1099375D03*
X1075045Y1191863D03*
X1099375D03*
X1075045Y1195012D03*
X1099375D03*
X1075045Y1198162D03*
X1099375D03*
X1075045Y1201312D03*
X1099375D03*
X1075045Y1204461D03*
X1099375D03*
X1075045Y1207611D03*
X1099375D03*
X1075045Y1210761D03*
X1099375D03*
X1075045Y1213910D03*
X1099375D03*
X1075045Y1217060D03*
X1099375D03*
X1075045Y1220209D03*
X1099375D03*
G54D380*
X1519390Y1226594D03*
Y1293091D03*
Y1305335D03*
Y1371831D03*
X1087210Y1078300D03*
Y1144796D03*
Y1157040D03*
Y1223536D03*
G54D381*
X1519390Y1247343D03*
Y1272343D03*
Y1326083D03*
Y1351083D03*
X1087210Y1099048D03*
Y1124048D03*
Y1177788D03*
Y1202788D03*
G54D382*
X1148000Y1272000D03*
G54D383*
X1016457Y1340276D03*
X1026457D03*
X1036457D03*
X1046457D03*
X1016457Y1316654D03*
X1026457D03*
X1036457D03*
X1046457D03*
X1586067Y1421311D03*
X1593941D03*
X1578193Y1397689D03*
X1586067D03*
X1593941D03*
X1609689Y1421311D03*
Y1397689D03*
X1617563Y1421311D03*
X1625437D03*
X1617563Y1397689D03*
X1625437D03*
X1578193Y1374067D03*
X1586067D03*
X1593941D03*
X1609689D03*
X1617563D03*
X1625437D03*
G54D384*
X1511811Y1476378D03*
Y1023622D03*
X1098425D03*
X1077953Y1275591D03*
G54D385*
X1305736Y1029000D03*
Y1039000D03*
X1280264D03*
Y1034000D03*
Y1029000D03*
X1305736Y1069000D03*
Y1079000D03*
X1280264D03*
Y1074000D03*
Y1069000D03*
X1305736Y1109000D03*
Y1119000D03*
X1280264D03*
Y1114000D03*
Y1109000D03*
X1305736Y1049000D03*
Y1059000D03*
X1280264D03*
Y1054000D03*
Y1049000D03*
X1305736Y1089000D03*
Y1099000D03*
X1280264D03*
Y1094000D03*
Y1089000D03*
X1305736Y1129000D03*
Y1139000D03*
X1280264D03*
Y1134000D03*
Y1129000D03*
X1305736Y1189000D03*
Y1199000D03*
X1280264D03*
Y1194000D03*
Y1189000D03*
X1305736Y1149000D03*
Y1159000D03*
X1280264D03*
Y1154000D03*
Y1149000D03*
X1305736Y1169000D03*
Y1179000D03*
X1280264D03*
Y1174000D03*
Y1169000D03*
G54D386*
X1473000Y1057488D03*
Y1068512D03*
X1483500Y1057488D03*
Y1068512D03*
G54D387*
X1578193Y1421311D03*
G54D388*
X1621500Y1409500D03*
G54D389*
X1590004Y1385878D03*
G54D390*
X1557500Y1172854D03*
X1547500D03*
Y1142146D03*
X1557500D03*
G54D391*
X1013465Y1271220D03*
Y1283031D03*
X1015197Y1252952D03*
Y1264764D03*
X1016850Y1234449D03*
Y1246260D03*
X1019685Y1216141D03*
Y1227953D03*
X1021969Y1197637D03*
Y1209449D03*
X1024843Y1179370D03*
Y1191181D03*
X1027717Y1161102D03*
Y1172914D03*
X1030551Y1142795D03*
Y1154606D03*
X1033425Y1124527D03*
Y1136339D03*
X1042087Y1069251D03*
Y1081063D03*
X1044961Y1050748D03*
Y1062560D03*
X1048819Y1032244D03*
Y1044056D03*
X1052638Y1013740D03*
Y1025552D03*
X1036299Y1106259D03*
Y1118071D03*
X1039252Y1087755D03*
Y1099567D03*
X1013465Y1289724D03*
Y1301536D03*
G54D392*
X1015236Y1277126D03*
X1016969Y1258858D03*
X1018622Y1240354D03*
X1021457Y1222047D03*
X1023740Y1203543D03*
X1026614Y1185276D03*
X1029488Y1167008D03*
X1032323Y1148701D03*
X1035197Y1130433D03*
X1043859Y1075157D03*
X1046733Y1056654D03*
X1050591Y1038150D03*
X1054410Y1019646D03*
X1038071Y1112165D03*
X1041024Y1093661D03*
X1015236Y1295630D03*
X1046571Y1275457D03*
Y1282543D03*
X1030429D03*
Y1275457D03*
G54D393*
X1304264Y1425815D03*
X1274736D03*
X1304264Y1445815D03*
X1274736D03*
X1304264Y1465815D03*
X1274736D03*
Y1435815D03*
X1304264D03*
G54D394*
X1538626Y1075500D03*
X1554374D03*
G54D396*
X1406772Y1016229D03*
X1434331Y1483946D03*
G54D397*
X1628819Y1188976D03*
X1629213Y1196850D03*
X1628819Y1204724D03*
X1629213Y1212598D03*
X1628819Y1220472D03*
X1629213Y1228346D03*
X1628819Y1236220D03*
X1629213Y1244094D03*
X1623307Y1188976D03*
X1623701Y1196850D03*
X1623307Y1204724D03*
X1623701Y1212598D03*
X1623307Y1220472D03*
X1623701Y1228346D03*
X1623307Y1236220D03*
X1623701Y1244094D03*
X1617795Y1188976D03*
X1618189Y1196850D03*
X1617795Y1204724D03*
X1618189Y1212598D03*
X1617795Y1220472D03*
X1618189Y1228346D03*
X1617795Y1236220D03*
X1618189Y1244094D03*
X1612283Y1188976D03*
X1612677Y1196850D03*
X1612283Y1204724D03*
X1612677Y1212598D03*
X1612283Y1220472D03*
X1612677Y1228346D03*
X1612283Y1236220D03*
X1612677Y1244094D03*
X1606772Y1188976D03*
X1607165Y1196850D03*
X1606772Y1204724D03*
X1607165Y1212598D03*
X1606772Y1220472D03*
X1607165Y1228346D03*
X1606772Y1236220D03*
X1607165Y1244094D03*
X1601260Y1188976D03*
X1601654Y1196850D03*
X1601260Y1204724D03*
X1601654Y1212598D03*
X1601260Y1220472D03*
X1601654Y1228346D03*
X1601260Y1236220D03*
X1601654Y1244094D03*
X1595748Y1188976D03*
X1596142Y1196850D03*
X1595748Y1204724D03*
X1596142Y1212598D03*
X1595748Y1220472D03*
X1596142Y1228346D03*
X1595748Y1236220D03*
X1596142Y1244094D03*
X1590236Y1188976D03*
X1590630Y1196850D03*
X1590236Y1204724D03*
X1590630Y1212598D03*
X1590236Y1220472D03*
X1590630Y1228346D03*
X1590236Y1236220D03*
X1590630Y1244094D03*
X1584724Y1188976D03*
X1585118Y1196850D03*
X1584724Y1204724D03*
X1585118Y1212598D03*
X1584724Y1220472D03*
X1585118Y1228346D03*
X1584724Y1236220D03*
X1585118Y1244094D03*
X1628819Y1090866D03*
X1629213Y1098740D03*
X1628819Y1106614D03*
X1629213Y1114488D03*
X1628819Y1122362D03*
X1629213Y1130236D03*
X1628819Y1138110D03*
X1629213Y1145984D03*
X1623307Y1090866D03*
X1623701Y1098740D03*
X1623307Y1106614D03*
X1623701Y1114488D03*
X1623307Y1122362D03*
X1623701Y1130236D03*
X1623307Y1138110D03*
X1623701Y1145984D03*
X1617795Y1090866D03*
X1618189Y1098740D03*
X1617795Y1106614D03*
X1618189Y1114488D03*
X1617795Y1122362D03*
X1618189Y1130236D03*
X1617795Y1138110D03*
X1618189Y1145984D03*
X1612283Y1090866D03*
X1612677Y1098740D03*
X1612283Y1106614D03*
X1612677Y1114488D03*
X1612283Y1122362D03*
X1612677Y1130236D03*
X1612283Y1138110D03*
X1612677Y1145984D03*
X1606772Y1090866D03*
X1607165Y1098740D03*
X1606772Y1106614D03*
X1607165Y1114488D03*
X1606772Y1122362D03*
X1607165Y1130236D03*
X1606772Y1138110D03*
X1607165Y1145984D03*
X1601260Y1090866D03*
X1601654Y1098740D03*
X1601260Y1106614D03*
X1601654Y1114488D03*
X1601260Y1122362D03*
X1601654Y1130236D03*
X1601260Y1138110D03*
X1601654Y1145984D03*
X1595748Y1090866D03*
X1596142Y1098740D03*
X1595748Y1106614D03*
X1596142Y1114488D03*
X1595748Y1122362D03*
X1596142Y1130236D03*
X1595748Y1138110D03*
X1596142Y1145984D03*
X1590236Y1090866D03*
X1590630Y1098740D03*
X1590236Y1106614D03*
X1590630Y1114488D03*
X1590236Y1122362D03*
X1590630Y1130236D03*
X1590236Y1138110D03*
X1590630Y1145984D03*
X1584724Y1090866D03*
X1585118Y1098740D03*
X1584724Y1106614D03*
X1585118Y1114488D03*
X1584724Y1122362D03*
X1585118Y1130236D03*
X1584724Y1138110D03*
X1585118Y1145984D03*
G54D398*
X1216400Y1029074D03*
G54D399*
Y1021100D03*
G54D401*
X1335083Y1445055D03*
Y1436000D03*
Y1426945D03*
G54D402*
X1357917Y1436000D03*
G54D405*
X1151709Y1198000D03*
X1140291D03*
X1355952Y1045260D03*
X1344534D03*
G54D406*
X1258000Y1173382D03*
Y1183618D03*
G54D407*
X1435000Y1370205D03*
Y1345795D03*
G54D408*
X1385870Y1078500D03*
Y1073500D03*
Y1068500D03*
Y1063500D03*
X1407130D03*
Y1068500D03*
Y1073500D03*
Y1078500D03*
X1385870Y1113000D03*
Y1108000D03*
Y1103000D03*
Y1098000D03*
X1407130D03*
Y1103000D03*
Y1108000D03*
Y1113000D03*
G54D410*
X1366000Y1338854D03*
Y1358146D03*
G54D411*
X1130941Y1069169D03*
X1133500D03*
X1136059D03*
Y1077831D03*
X1130941D03*
X1162941Y1069169D03*
X1165500D03*
X1168059D03*
Y1077831D03*
X1162941D03*
X1146941Y1069169D03*
X1149500D03*
X1152059D03*
Y1077831D03*
X1146941D03*
G54D413*
X1434600Y1465900D03*
X1451500Y1057000D03*
X1349500Y1025500D03*
X1106240Y1233110D03*
X1199300Y1059600D03*
X1614500Y1316500D03*
X1143500Y1431000D03*
X1099500Y1059600D03*
X1551500Y1095500D03*
X1579000Y1336500D03*
X1616500D03*
G54D414*
X1434240Y1434315D03*
X1430500D03*
X1426760D03*
Y1423685D03*
X1430500D03*
X1434240D03*
G54D415*
X1511358Y1223465D03*
Y1374961D03*
X1079179Y1075170D03*
Y1226666D03*
G54D418*
X1489890Y1418811D03*
X1487921D03*
X1485953D03*
X1483984D03*
X1482016D03*
X1480047D03*
X1478079D03*
X1476110D03*
Y1400189D03*
X1478079D03*
X1480047D03*
X1482016D03*
X1483984D03*
X1485953D03*
X1487921D03*
X1489890D03*
G54D420*
X1388000Y1354000D03*
G54D421*
X1390209Y1335500D03*
X1378791D03*
G54D422*
X1258000Y1164346D03*
Y1157654D03*
G54D423*
X1437500Y1384000D03*
Y1389000D03*
Y1394000D03*
Y1399000D03*
X1415500D03*
Y1394000D03*
Y1389000D03*
Y1384000D03*
X1493000Y1371000D03*
Y1376000D03*
Y1381000D03*
Y1386000D03*
X1471000D03*
Y1381000D03*
Y1376000D03*
Y1371000D03*
X1493000Y1434000D03*
Y1439000D03*
Y1444000D03*
Y1449000D03*
X1471000D03*
Y1444000D03*
Y1439000D03*
Y1434000D03*
G54D424*
X1086028Y1312760D03*
Y1320240D03*
X1076972Y1316500D03*
X1086028Y1336260D03*
Y1343740D03*
X1076972Y1340000D03*
X1337528Y1462260D03*
Y1469740D03*
X1328472Y1466000D03*
X1515972Y1057740D03*
Y1050260D03*
X1525028Y1054000D03*
G54D425*
X1540600Y1476800D03*
X1573000Y1012500D03*
X1072500D03*
G54D426*
X1530567Y1429500D03*
X1511433D03*
X1531567Y1404000D03*
X1512433D03*
X1616567Y1351000D03*
X1597433D03*
X1579067D03*
X1559933D03*
G54D427*
X1147260Y1176165D03*
X1151197D03*
X1155134D03*
X1159071D03*
X1163008D03*
X1166945D03*
X1170882D03*
X1174819D03*
X1178756D03*
X1182693D03*
X1186630D03*
X1190567D03*
X1194504D03*
X1198441D03*
X1202378D03*
X1206315D03*
X1147260Y1172228D03*
X1151197D03*
X1155134D03*
X1159071D03*
X1163008D03*
X1166945D03*
X1170882D03*
X1174819D03*
X1178756D03*
X1182693D03*
X1186630D03*
X1190567D03*
X1194504D03*
X1198441D03*
X1202378D03*
X1206315D03*
X1147260Y1168291D03*
X1151197D03*
X1155134D03*
X1159071D03*
X1163008D03*
X1166945D03*
X1170882D03*
X1174819D03*
X1178756D03*
X1182693D03*
X1186630D03*
X1190567D03*
X1194504D03*
X1198441D03*
X1202378D03*
X1206315D03*
X1147260Y1164354D03*
X1151197D03*
X1155134D03*
X1159071D03*
X1163008D03*
X1166945D03*
X1170882D03*
X1174819D03*
X1178756D03*
X1182693D03*
X1186630D03*
X1190567D03*
X1194504D03*
X1198441D03*
X1202378D03*
X1206315D03*
X1147260Y1160417D03*
X1151197D03*
X1155134D03*
X1159071D03*
X1163008D03*
X1166945D03*
X1170882D03*
X1174819D03*
X1178756D03*
X1182693D03*
X1186630D03*
X1190567D03*
X1194504D03*
X1198441D03*
X1202378D03*
X1206315D03*
X1147260Y1156480D03*
X1151197D03*
X1155134D03*
X1159071D03*
X1163008D03*
X1166945D03*
X1170882D03*
X1174819D03*
X1178756D03*
X1182693D03*
X1186630D03*
X1190567D03*
X1194504D03*
X1198441D03*
X1202378D03*
X1206315D03*
X1147260Y1152543D03*
X1151197D03*
X1155134D03*
X1159071D03*
X1163008D03*
X1166945D03*
X1170882D03*
X1174819D03*
X1178756D03*
X1182693D03*
X1186630D03*
X1190567D03*
X1194504D03*
X1198441D03*
X1202378D03*
X1206315D03*
X1147260Y1148606D03*
X1151197D03*
X1155134D03*
X1159071D03*
X1163008D03*
X1166945D03*
X1170882D03*
X1174819D03*
X1178756D03*
X1182693D03*
X1186630D03*
X1190567D03*
X1194504D03*
X1198441D03*
X1202378D03*
X1206315D03*
X1147260Y1144669D03*
X1151197D03*
X1155134D03*
X1159071D03*
X1163008D03*
X1166945D03*
X1170882D03*
X1174819D03*
X1178756D03*
X1182693D03*
X1186630D03*
X1190567D03*
X1194504D03*
X1198441D03*
X1202378D03*
X1206315D03*
X1147260Y1140732D03*
X1151197D03*
X1155134D03*
X1159071D03*
X1163008D03*
X1166945D03*
X1170882D03*
X1174819D03*
X1178756D03*
X1182693D03*
X1186630D03*
X1190567D03*
X1194504D03*
X1198441D03*
X1202378D03*
X1206315D03*
X1147260Y1136795D03*
X1151197D03*
X1155134D03*
X1159071D03*
X1163008D03*
X1166945D03*
X1170882D03*
X1174819D03*
X1178756D03*
X1182693D03*
X1186630D03*
X1190567D03*
X1194504D03*
X1198441D03*
X1202378D03*
X1206315D03*
X1147260Y1132858D03*
X1151197D03*
X1155134D03*
X1159071D03*
X1163008D03*
X1166945D03*
X1170882D03*
X1174819D03*
X1178756D03*
X1182693D03*
X1186630D03*
X1190567D03*
X1194504D03*
X1198441D03*
X1202378D03*
X1206315D03*
X1147260Y1128921D03*
X1151197D03*
X1155134D03*
X1159071D03*
X1163008D03*
X1166945D03*
X1170882D03*
X1174819D03*
X1178756D03*
X1182693D03*
X1186630D03*
X1190567D03*
X1194504D03*
X1198441D03*
X1202378D03*
X1206315D03*
X1147260Y1124984D03*
X1151197D03*
X1155134D03*
X1159071D03*
X1163008D03*
X1166945D03*
X1170882D03*
X1174819D03*
X1178756D03*
X1182693D03*
X1186630D03*
X1190567D03*
X1194504D03*
X1198441D03*
X1202378D03*
X1206315D03*
X1147260Y1121047D03*
X1151197D03*
X1155134D03*
X1159071D03*
X1163008D03*
X1166945D03*
X1170882D03*
X1174819D03*
X1178756D03*
X1182693D03*
X1186630D03*
X1190567D03*
X1194504D03*
X1198441D03*
X1202378D03*
X1206315D03*
X1147260Y1117110D03*
X1151197D03*
X1155134D03*
X1159071D03*
X1163008D03*
X1166945D03*
X1170882D03*
X1174819D03*
X1178756D03*
X1182693D03*
X1186630D03*
X1190567D03*
X1194504D03*
X1198441D03*
X1202378D03*
X1206315D03*
G54D428*
X1105984Y1268720D03*
X1108543D03*
X1111102D03*
X1113661D03*
X1116220D03*
X1118780D03*
X1121339D03*
X1123898D03*
X1126457D03*
X1129016D03*
Y1296280D03*
X1126457D03*
X1123898D03*
X1121339D03*
X1118780D03*
X1116220D03*
X1113661D03*
X1111102D03*
X1108543D03*
X1105984D03*
X1057016Y1219280D03*
X1054457D03*
X1051898D03*
X1049339D03*
X1046780D03*
X1044220D03*
X1041661D03*
X1039102D03*
X1036543D03*
X1033984D03*
Y1191720D03*
X1036543D03*
X1039102D03*
X1041661D03*
X1044220D03*
X1046780D03*
X1049339D03*
X1051898D03*
X1054457D03*
X1057016D03*
X1054516Y1262280D03*
X1051957D03*
X1049398D03*
X1046839D03*
X1044280D03*
X1041720D03*
X1039161D03*
X1036602D03*
X1034043D03*
X1031484D03*
Y1234720D03*
X1034043D03*
X1036602D03*
X1039161D03*
X1041720D03*
X1044280D03*
X1046839D03*
X1049398D03*
X1051957D03*
X1054516D03*
X1065516Y1162280D03*
X1062957D03*
X1060398D03*
X1057839D03*
X1055280D03*
X1052720D03*
X1050161D03*
X1047602D03*
X1045043D03*
X1042484D03*
Y1134720D03*
X1045043D03*
X1047602D03*
X1050161D03*
X1052720D03*
X1055280D03*
X1057839D03*
X1060398D03*
X1062957D03*
X1065516D03*
X1532834Y1205380D03*
X1530275D03*
X1527716D03*
X1525157D03*
X1522598D03*
X1520039D03*
X1517480D03*
X1514920D03*
X1512361D03*
X1509802D03*
X1507243D03*
X1504684D03*
X1502125D03*
X1499566D03*
Y1177820D03*
X1502125D03*
X1504684D03*
X1507243D03*
X1509802D03*
X1512361D03*
X1514920D03*
X1517480D03*
X1520039D03*
X1522598D03*
X1525157D03*
X1527716D03*
X1530275D03*
X1532834D03*
G54D429*
X1247209Y1157043D03*
X1235791D03*
Y1149957D03*
X1247209D03*
G54D430*
X1493000Y1057500D03*
X1498000D03*
X1503000D03*
X1508000D03*
Y1079500D03*
X1503000D03*
X1498000D03*
X1493000D03*
G54D431*
X1541248Y1039000D03*
X1559752D03*
X1541248Y1058000D03*
X1559752D03*
X1560000Y1316748D03*
Y1335252D03*
X1596500Y1316748D03*
Y1335252D03*
G54D433*
X1529250Y1110433D03*
X1526750D03*
X1524250D03*
X1521750D03*
X1519250D03*
X1516750D03*
X1514250D03*
X1511750D03*
Y1089567D03*
X1514250D03*
X1516750D03*
X1519250D03*
X1521750D03*
X1524250D03*
X1526750D03*
X1529250D03*
G54D434*
X1526906Y1075500D03*
X1515094D03*
G54D435*
X1451050Y1476200D03*
X1457350D03*
G54D436*
X1397906Y1377500D03*
X1386094D03*
G54D437*
X1246724Y1129417D03*
X1245150D03*
X1243575D03*
X1242000D03*
X1240425D03*
X1238850D03*
X1237276D03*
Y1106583D03*
X1238850D03*
X1240425D03*
X1242000D03*
X1243575D03*
X1245150D03*
X1246724D03*
X1245724Y1080917D03*
X1244150D03*
X1242575D03*
X1241000D03*
X1239425D03*
X1237850D03*
X1236276D03*
Y1058083D03*
X1237850D03*
X1239425D03*
X1241000D03*
X1242575D03*
X1244150D03*
X1245724D03*
X1242224Y1197917D03*
X1240650D03*
X1239075D03*
X1237500D03*
X1235925D03*
X1234350D03*
X1232776D03*
Y1175083D03*
X1234350D03*
X1235925D03*
X1237500D03*
X1239075D03*
X1240650D03*
X1242224D03*
G54D438*
X1323669Y1395559D03*
Y1393000D03*
Y1390441D03*
X1332331D03*
Y1395559D03*
X1250331Y1249441D03*
Y1252000D03*
Y1254559D03*
X1241669D03*
Y1252000D03*
Y1249441D03*
X1250331Y1234441D03*
Y1237000D03*
Y1239559D03*
X1241669D03*
Y1237000D03*
Y1234441D03*
X1250331Y1219441D03*
Y1222000D03*
Y1224559D03*
X1241669D03*
Y1222000D03*
Y1219441D03*
G54D439*
X1557500Y1187846D03*
Y1181154D03*
X1249500Y1190346D03*
Y1183654D03*
X1537500Y1091654D03*
Y1098346D03*
Y1103654D03*
Y1110346D03*
X1198000Y1304654D03*
Y1311346D03*
X1093000Y1336654D03*
Y1343346D03*
Y1319846D03*
Y1313154D03*
X1404000Y1357846D03*
Y1351154D03*
Y1345346D03*
Y1338654D03*
X1269000Y1037346D03*
Y1030654D03*
Y1137346D03*
Y1130654D03*
X1065000Y1187154D03*
Y1193846D03*
X1269000Y1077346D03*
Y1070654D03*
X1255500Y1429654D03*
Y1436346D03*
X1341500Y1397346D03*
Y1390654D03*
X1349000Y1462654D03*
Y1469346D03*
X1099500Y1319846D03*
Y1313154D03*
Y1336654D03*
Y1343346D03*
X1165500Y1062346D03*
Y1055654D03*
X1269000Y1157346D03*
Y1150654D03*
Y1057346D03*
Y1050654D03*
X1190800Y1203254D03*
Y1209946D03*
X1269000Y1197346D03*
Y1190654D03*
Y1177346D03*
Y1170654D03*
Y1097346D03*
Y1090654D03*
Y1117346D03*
Y1110654D03*
X1247000Y1464846D03*
Y1458154D03*
X1035000Y1449654D03*
Y1456346D03*
X1053500Y1449654D03*
Y1456346D03*
X1044500Y1449654D03*
Y1456346D03*
X1069500Y1336654D03*
Y1343346D03*
Y1319846D03*
Y1313154D03*
X1262000Y1465346D03*
Y1458654D03*
G54D440*
X1310846Y1389500D03*
X1304154D03*
X1375846Y1102500D03*
X1369154D03*
X1062346Y1176000D03*
X1055654D03*
X1370654Y1084500D03*
X1377346D03*
X1369154Y1115500D03*
X1375846D03*
X1370654Y1078500D03*
X1377346D03*
X1538346Y1119000D03*
X1531654D03*
X1509846D03*
X1503154D03*
X1245346Y1166000D03*
X1238654D03*
X1415654Y1059000D03*
X1422346D03*
X1415654Y1095500D03*
X1422346D03*
X1370654Y1065000D03*
X1377346D03*
X1369154Y1096000D03*
X1375846D03*
X1422346Y1065500D03*
X1415654D03*
X1422346Y1109000D03*
X1415654D03*
Y1072000D03*
X1422346D03*
X1415654Y1102500D03*
X1422346D03*
X1324346Y1445000D03*
X1317654D03*
X1264346Y1234000D03*
X1257654D03*
X1264346Y1240500D03*
X1257654D03*
X1264346Y1219000D03*
X1257654D03*
X1264346Y1225000D03*
X1257654D03*
X1264346Y1249500D03*
X1257654D03*
X1525346Y1119000D03*
X1518654D03*
X1370654Y1072000D03*
X1377346D03*
X1369154Y1109000D03*
X1375846D03*
X1304154Y1396000D03*
X1310846D03*
G54D441*
X1408150Y1363000D03*
X1401850D03*
X1388850Y1368500D03*
X1395150D03*
X1415850Y1079000D03*
X1422150D03*
X1415850Y1115500D03*
X1422150D03*
X1504650Y1087000D03*
X1498350D03*
X1485650Y1392500D03*
X1479350D03*
X1479850Y1426500D03*
X1486150D03*
X1332150Y1405000D03*
X1325850D03*
X1233150Y1252000D03*
X1226850D03*
X1233150Y1222000D03*
X1226850D03*
X1233150Y1237000D03*
X1226850D03*
G54D442*
X1254300Y1065950D03*
Y1059650D03*
X1258000Y1149650D03*
Y1143350D03*
X1496000Y1404350D03*
Y1410650D03*
X1255600Y1110750D03*
Y1117050D03*
X1254700Y1464850D03*
Y1458550D03*
G54D444*
X1379043Y1368500D03*
X1371957D03*
X1352786Y1056760D03*
X1345700D03*
G54D445*
X1368526Y1054236D03*
Y1036284D03*
G54D446*
X1394117Y1045260D03*
G54D450*
X1038500Y1273390D03*
G54D451*
X1319500Y1148094D03*
Y1159906D03*
Y1068094D03*
Y1079906D03*
Y1088094D03*
Y1099906D03*
Y1128094D03*
Y1139906D03*
Y1168094D03*
Y1179906D03*
Y1048094D03*
Y1059906D03*
Y1028094D03*
Y1039906D03*
Y1108094D03*
Y1119906D03*
Y1188094D03*
Y1199906D03*
G54D460*
X1175000Y1330500D03*
G54D467*
X1181500Y1017774D03*
X1171500D03*
X1161500D03*
X1151500D03*
X1141500D03*
G54D468*
X1511429Y1446500D03*
X1527571D03*
X1511929Y1390000D03*
X1528071D03*
G74*
X0Y0D02*
M02*
