*
*
G04 PADS 9.3 Build Number: 433611 generated Gerber (RS-274-X) file*
G04 PC Version=2.1*
*
%IN "17-600551-100_REV_D1.pc"*%
*
%MOIN*%
*
%FSLAX35Y35*%
*
*
*
*
G04 PC Standard Apertures*
*
*
G04 Thermal Relief Aperture macro.*
%AMTER*
1,1,$1,0,0*
1,0,$1-$2,0,0*
21,0,$3,$4,0,0,45*
21,0,$3,$4,0,0,135*
%
*
*
G04 Annular Aperture macro.*
%AMANN*
1,1,$1,0,0*
1,0,$2,0,0*
%
*
*
G04 Odd Aperture macro.*
%AMODD*
1,1,$1,0,0*
1,0,$1-0.005,0,0*
%
*
*
G04 PC Custom Aperture Macros*
*
*
*
*
*
*
G04 PC Aperture Table*
*
%ADD010C,0.001*%
%ADD061C,0.01*%
%ADD063C,0.006*%
%ADD065C,0.02*%
%ADD075C,0.00787*%
%ADD078C,0.005*%
%ADD081C,0.00984*%
%ADD367C,0.00598*%
%ADD370C,0.00591*%
*
*
*
*
G04 PC Circuitry*
G04 Layer Name 17-600551-100_REV_D1.pc - circuitry*
%LPD*%
*
*
G04 PC Custom Flashes*
G04 Layer Name 17-600551-100_REV_D1.pc - flashes*
%LPD*%
*
*
G04 PC Circuitry*
G04 Layer Name 17-600551-100_REV_D1.pc - circuitry*
%LPD*%
*
G54D10*
G54D61*
G01X1443480Y1447669D02*
X1428520D01*
Y1456331*
X1443480*
Y1447669*
X1027909Y1525500D02*
X1027682Y1526063D01*
X1027682D02*
X1027227Y1526625D01*
X1026773Y1526906*
X1025864*
X1025409Y1526625*
X1024955Y1526063*
X1024955D02*
X1024727Y1525500D01*
X1024500Y1524656*
Y1523250*
X1024727Y1522406*
X1024955Y1521844*
X1025409Y1521281*
X1025864Y1521000*
X1026773*
X1027227Y1521281*
X1027682Y1521844*
X1027909Y1522406*
X1031091Y1524938D02*
X1030636Y1524656D01*
X1030182Y1524094*
X1029955Y1523250*
Y1522688*
X1029955D02*
X1030182Y1521844D01*
X1030636Y1521281*
X1031091Y1521000*
X1031773*
X1032227Y1521281*
X1032682Y1521844*
X1032909Y1522688*
X1032909D02*
Y1523250D01*
X1032682Y1524094*
X1032227Y1524656*
X1031773Y1524938*
X1031773D02*
X1031091D01*
X1034955D02*
Y1521000D01*
Y1523813D02*
X1035636Y1524656D01*
X1036091Y1524938*
X1036091D02*
X1036773D01*
X1036773D02*
X1037227Y1524656D01*
X1037455Y1523813*
X1037455D02*
Y1521000D01*
Y1523813D02*
X1038136Y1524656D01*
X1038591Y1524938*
X1038591D02*
X1039273D01*
X1039273D02*
X1039727Y1524656D01*
X1039955Y1523813*
X1039955D02*
Y1521000D01*
X1042000Y1524938D02*
Y1519031D01*
Y1524094D02*
X1042455Y1524656D01*
X1042909Y1524938*
X1042909D02*
X1043591D01*
X1043591D02*
X1044045Y1524656D01*
X1044500Y1524094*
X1044727Y1523250*
Y1522688*
X1044727D02*
X1044500Y1521844D01*
X1044045Y1521281*
X1043591Y1521000*
X1042909*
X1042455Y1521281*
X1042000Y1521844*
X1046773Y1524938D02*
Y1521000D01*
Y1523250D02*
X1047000Y1524094D01*
X1047455Y1524656*
X1047909Y1524938*
X1047909D02*
X1048591D01*
X1050636Y1523250D02*
X1053364D01*
Y1523813*
X1053364D02*
X1053136Y1524375D01*
X1052909Y1524656*
X1052455Y1524938*
X1052455D02*
X1051773D01*
X1051773D02*
X1051318Y1524656D01*
X1050864Y1524094*
X1050636Y1523250*
Y1522688*
X1050636D02*
X1050864Y1521844D01*
X1051318Y1521281*
X1051773Y1521000*
X1052455*
X1052909Y1521281*
X1053364Y1521844*
X1057909Y1524094D02*
X1057682Y1524656D01*
X1057000Y1524938*
X1057000D02*
X1056318D01*
X1056318D02*
X1055636Y1524656D01*
X1055409Y1524094*
X1055636Y1523531*
X1056091Y1523250*
X1057227Y1522969*
X1057682Y1522688*
X1057682D02*
X1057909Y1522125D01*
Y1521844*
X1057682Y1521281*
X1057000Y1521000*
X1056318*
X1055636Y1521281*
X1055409Y1521844*
X1062455Y1524094D02*
X1062227Y1524656D01*
X1061545Y1524938*
X1061545D02*
X1060864D01*
X1060864D02*
X1060182Y1524656D01*
X1059955Y1524094*
X1060182Y1523531*
X1060636Y1523250*
X1061773Y1522969*
X1062227Y1522688*
X1062227D02*
X1062455Y1522125D01*
Y1521844*
X1062227Y1521281*
X1061545Y1521000*
X1060864*
X1060182Y1521281*
X1059955Y1521844*
X1065636Y1524938D02*
X1065182Y1524656D01*
X1064727Y1524094*
X1064500Y1523250*
Y1522688*
X1064500D02*
X1064727Y1521844D01*
X1065182Y1521281*
X1065636Y1521000*
X1066318*
X1066773Y1521281*
X1067227Y1521844*
X1067455Y1522688*
X1067455D02*
Y1523250D01*
X1067227Y1524094*
X1066773Y1524656*
X1066318Y1524938*
X1066318D02*
X1065636D01*
X1069500D02*
Y1521000D01*
Y1523250D02*
X1069727Y1524094D01*
X1070182Y1524656*
X1070636Y1524938*
X1070636D02*
X1071318D01*
X1082000Y1525500D02*
X1081773Y1526063D01*
X1081773D02*
X1081318Y1526625D01*
X1080864Y1526906*
X1079955*
X1079500Y1526625*
X1079045Y1526063*
X1079045D02*
X1078818Y1525500D01*
X1078591Y1524656*
Y1523250*
X1078818Y1522406*
X1079045Y1521844*
X1079500Y1521281*
X1079955Y1521000*
X1080864*
X1081318Y1521281*
X1081773Y1521844*
X1082000Y1522406*
X1085182Y1524938D02*
X1084727Y1524656D01*
X1084273Y1524094*
X1084045Y1523250*
Y1522688*
X1084045D02*
X1084273Y1521844D01*
X1084727Y1521281*
X1085182Y1521000*
X1085864*
X1086318Y1521281*
X1086773Y1521844*
X1087000Y1522688*
X1087000D02*
Y1523250D01*
X1086773Y1524094*
X1086318Y1524656*
X1085864Y1524938*
X1085864D02*
X1085182D01*
X1089045D02*
Y1521000D01*
Y1523813D02*
X1089727Y1524656D01*
X1090182Y1524938*
X1090182D02*
X1090864D01*
X1090864D02*
X1091318Y1524656D01*
X1091545Y1523813*
X1091545D02*
Y1521000D01*
X1094273Y1526906D02*
Y1522125D01*
X1094500Y1521281*
X1094955Y1521000*
X1095409*
X1093591Y1524938D02*
X1095182D01*
X1097455D02*
Y1521000D01*
Y1523250D02*
X1097682Y1524094D01*
X1098136Y1524656*
X1098591Y1524938*
X1098591D02*
X1099273D01*
X1102455D02*
X1102000Y1524656D01*
X1101545Y1524094*
X1101318Y1523250*
Y1522688*
X1101318D02*
X1101545Y1521844D01*
X1102000Y1521281*
X1102455Y1521000*
X1103136*
X1103591Y1521281*
X1104045Y1521844*
X1104273Y1522688*
X1104273D02*
Y1523250D01*
X1104045Y1524094*
X1103591Y1524656*
X1103136Y1524938*
X1103136D02*
X1102455D01*
X1106318Y1526906D02*
Y1521000D01*
X1110864Y1524094D02*
X1110636Y1524656D01*
X1109955Y1524938*
X1109955D02*
X1109273D01*
X1109273D02*
X1108591Y1524656D01*
X1108364Y1524094*
X1108591Y1523531*
X1109045Y1523250*
X1110182Y1522969*
X1110636Y1522688*
X1110636D02*
X1110864Y1522125D01*
Y1521844*
X1110636Y1521281*
X1109955Y1521000*
X1109273*
X1108591Y1521281*
X1108364Y1521844*
X1121545Y1525500D02*
X1121318Y1526063D01*
X1121318D02*
X1120864Y1526625D01*
X1120409Y1526906*
X1119500*
X1119045Y1526625*
X1118591Y1526063*
X1118591D02*
X1118364Y1525500D01*
X1118136Y1524656*
Y1523250*
X1118364Y1522406*
X1118591Y1521844*
X1119045Y1521281*
X1119500Y1521000*
X1120409*
X1120864Y1521281*
X1121318Y1521844*
X1121545Y1522406*
X1124727Y1524938D02*
X1124273Y1524656D01*
X1123818Y1524094*
X1123591Y1523250*
Y1522688*
X1123591D02*
X1123818Y1521844D01*
X1124273Y1521281*
X1124727Y1521000*
X1125409*
X1125864Y1521281*
X1126318Y1521844*
X1126545Y1522688*
X1126545D02*
Y1523250D01*
X1126318Y1524094*
X1125864Y1524656*
X1125409Y1524938*
X1125409D02*
X1124727D01*
X1128591D02*
Y1521000D01*
Y1523250D02*
X1128818Y1524094D01*
X1129273Y1524656*
X1129727Y1524938*
X1129727D02*
X1130409D01*
X1132455D02*
Y1519031D01*
Y1524094D02*
X1132909Y1524656D01*
X1133364Y1524938*
X1133364D02*
X1134045D01*
X1134045D02*
X1134500Y1524656D01*
X1134955Y1524094*
X1135182Y1523250*
Y1522688*
X1135182D02*
X1134955Y1521844D01*
X1134500Y1521281*
X1134045Y1521000*
X1133364*
X1132909Y1521281*
X1132455Y1521844*
X1138364Y1524938D02*
X1137909Y1524656D01*
X1137455Y1524094*
X1137227Y1523250*
Y1522688*
X1137227D02*
X1137455Y1521844D01*
X1137909Y1521281*
X1138364Y1521000*
X1139045*
X1139500Y1521281*
X1139955Y1521844*
X1140182Y1522688*
X1140182D02*
Y1523250D01*
X1139955Y1524094*
X1139500Y1524656*
X1139045Y1524938*
X1139045D02*
X1138364D01*
X1142227D02*
Y1521000D01*
Y1523250D02*
X1142455Y1524094D01*
X1142909Y1524656*
X1143364Y1524938*
X1143364D02*
X1144045D01*
X1148818D02*
Y1521000D01*
Y1524094D02*
X1148364Y1524656D01*
X1147909Y1524938*
X1147909D02*
X1147227D01*
X1147227D02*
X1146773Y1524656D01*
X1146318Y1524094*
X1146091Y1523250*
Y1522688*
X1146091D02*
X1146318Y1521844D01*
X1146773Y1521281*
X1147227Y1521000*
X1147909*
X1148364Y1521281*
X1148818Y1521844*
X1151545Y1526906D02*
Y1522125D01*
X1151773Y1521281*
X1152227Y1521000*
X1152682*
X1150864Y1524938D02*
X1152455D01*
X1154727Y1526906D02*
X1154955Y1526625D01*
X1155182Y1526906*
X1154955Y1527188*
X1154955D02*
X1154727Y1526906D01*
X1154955Y1524938D02*
Y1521000D01*
X1158364Y1524938D02*
X1157909Y1524656D01*
X1157455Y1524094*
X1157227Y1523250*
Y1522688*
X1157227D02*
X1157455Y1521844D01*
X1157909Y1521281*
X1158364Y1521000*
X1159045*
X1159500Y1521281*
X1159955Y1521844*
X1160182Y1522688*
X1160182D02*
Y1523250D01*
X1159955Y1524094*
X1159500Y1524656*
X1159045Y1524938*
X1159045D02*
X1158364D01*
X1162227D02*
Y1521000D01*
Y1523813D02*
X1162909Y1524656D01*
X1163364Y1524938*
X1163364D02*
X1164045D01*
X1164045D02*
X1164500Y1524656D01*
X1164727Y1523813*
X1164727D02*
Y1521000D01*
X1172000Y1523531D02*
X1176091D01*
X1178136D02*
X1182227D01*
X1189500Y1526906D02*
Y1521000D01*
Y1526906D02*
X1191318Y1521000D01*
X1193136Y1526906D02*
X1191318Y1521000D01*
X1193136Y1526906D02*
Y1521000D01*
X1197909Y1524938D02*
Y1521000D01*
Y1524094D02*
X1197455Y1524656D01*
X1197000Y1524938*
X1197000D02*
X1196318D01*
X1196318D02*
X1195864Y1524656D01*
X1195409Y1524094*
X1195182Y1523250*
Y1522688*
X1195182D02*
X1195409Y1521844D01*
X1195864Y1521281*
X1196318Y1521000*
X1197000*
X1197455Y1521281*
X1197909Y1521844*
X1199955Y1524938D02*
Y1521000D01*
Y1523250D02*
X1200182Y1524094D01*
X1200636Y1524656*
X1201091Y1524938*
X1201091D02*
X1201773D01*
X1206545Y1524094D02*
X1206091Y1524656D01*
X1205636Y1524938*
X1205636D02*
X1204955D01*
X1204955D02*
X1204500Y1524656D01*
X1204045Y1524094*
X1203818Y1523250*
Y1522688*
X1203818D02*
X1204045Y1521844D01*
X1204500Y1521281*
X1204955Y1521000*
X1205636*
X1206091Y1521281*
X1206545Y1521844*
X1208591Y1526906D02*
Y1521000D01*
Y1523813D02*
X1209273Y1524656D01*
X1209727Y1524938*
X1209727D02*
X1210409D01*
X1210409D02*
X1210864Y1524656D01*
X1211091Y1523813*
X1211091D02*
Y1521000D01*
X1218364Y1525781D02*
X1218818Y1526063D01*
X1218818D02*
X1219500Y1526906D01*
Y1521000*
X1222909Y1526906D02*
X1222227Y1526625D01*
X1221773Y1525781*
X1221545Y1524375*
Y1523531*
X1221773Y1522125*
X1222227Y1521281*
X1222909Y1521000*
X1223364*
X1224045Y1521281*
X1224500Y1522125*
X1224727Y1523531*
Y1524375*
X1224500Y1525781*
X1224045Y1526625*
X1223364Y1526906*
X1222909*
X1227227Y1521281D02*
X1227000Y1521000D01*
X1226773Y1521281*
X1227000Y1521563*
X1227000D02*
X1227227Y1521281D01*
Y1520719*
X1227000Y1520156*
X1226773Y1519875*
X1234727Y1525500D02*
Y1525781D01*
X1234955Y1526344*
X1235182Y1526625*
X1235636Y1526906*
X1236545*
X1237000Y1526625*
X1237227Y1526344*
X1237455Y1525781*
Y1525219*
X1237227Y1524656*
X1236773Y1523813*
X1236773D02*
X1234500Y1521000D01*
X1237682*
X1241091Y1526906D02*
X1240409Y1526625D01*
X1239955Y1525781*
X1239727Y1524375*
Y1523531*
X1239955Y1522125*
X1240409Y1521281*
X1241091Y1521000*
X1241545*
X1242227Y1521281*
X1242682Y1522125*
X1242909Y1523531*
Y1524375*
X1242682Y1525781*
X1242227Y1526625*
X1241545Y1526906*
X1241091*
X1244955Y1525781D02*
X1245409Y1526063D01*
X1245409D02*
X1246091Y1526906D01*
Y1521000*
X1250409Y1526906D02*
X1248136Y1522969D01*
X1251545*
X1250409Y1526906D02*
Y1521000D01*
X1024500Y1513781D02*
X1024955Y1514063D01*
X1024955D02*
X1025636Y1514906D01*
Y1509000*
X1030864Y1514906D02*
X1028591Y1509000D01*
X1027682Y1514906D02*
X1030864D01*
X1032909Y1511531D02*
X1037000D01*
X1041773Y1514063D02*
X1041545Y1514625D01*
X1040864Y1514906*
X1040409*
X1039727Y1514625*
X1039273Y1513781*
X1039045Y1512375*
Y1510969*
X1039273Y1509844*
X1039727Y1509281*
X1040409Y1509000*
X1040636*
X1041318Y1509281*
X1041773Y1509844*
X1042000Y1510688*
X1042000D02*
Y1510969D01*
X1041773Y1511813*
X1041773D02*
X1041318Y1512375D01*
X1040636Y1512656*
X1040409*
X1039727Y1512375*
X1039273Y1511813*
X1039273D02*
X1039045Y1510969D01*
X1045409Y1514906D02*
X1044727Y1514625D01*
X1044273Y1513781*
X1044045Y1512375*
Y1511531*
X1044273Y1510125*
X1044727Y1509281*
X1045409Y1509000*
X1045864*
X1046545Y1509281*
X1047000Y1510125*
X1047227Y1511531*
Y1512375*
X1047000Y1513781*
X1046545Y1514625*
X1045864Y1514906*
X1045409*
X1050636D02*
X1049955Y1514625D01*
X1049500Y1513781*
X1049273Y1512375*
Y1511531*
X1049500Y1510125*
X1049955Y1509281*
X1050636Y1509000*
X1051091*
X1051773Y1509281*
X1052227Y1510125*
X1052455Y1511531*
Y1512375*
X1052227Y1513781*
X1051773Y1514625*
X1051091Y1514906*
X1050636*
X1057455D02*
X1055182D01*
X1054955Y1512375*
X1055182Y1512656*
X1055864Y1512938*
X1055864D02*
X1056545D01*
X1056545D02*
X1057227Y1512656D01*
X1057682Y1512094*
X1057909Y1511250*
X1057682Y1510688*
X1057682D02*
X1057455Y1509844D01*
X1057000Y1509281*
X1056318Y1509000*
X1055636*
X1054955Y1509281*
X1054727Y1509563*
X1054727D02*
X1054500Y1510125D01*
X1062909Y1514906D02*
X1060636D01*
X1060409Y1512375*
X1060636Y1512656*
X1061318Y1512938*
X1061318D02*
X1062000D01*
X1062000D02*
X1062682Y1512656D01*
X1063136Y1512094*
X1063364Y1511250*
X1063136Y1510688*
X1063136D02*
X1062909Y1509844D01*
X1062455Y1509281*
X1061773Y1509000*
X1061091*
X1060409Y1509281*
X1060182Y1509563*
X1060182D02*
X1059955Y1510125D01*
X1065409Y1513781D02*
X1065864Y1514063D01*
X1065864D02*
X1066545Y1514906D01*
Y1509000*
X1068591Y1511531D02*
X1072682D01*
X1074727Y1513781D02*
X1075182Y1514063D01*
X1075182D02*
X1075864Y1514906D01*
Y1509000*
X1079273Y1514906D02*
X1078591Y1514625D01*
X1078136Y1513781*
X1077909Y1512375*
Y1511531*
X1078136Y1510125*
X1078591Y1509281*
X1079273Y1509000*
X1079727*
X1080409Y1509281*
X1080864Y1510125*
X1081091Y1511531*
Y1512375*
X1080864Y1513781*
X1080409Y1514625*
X1079727Y1514906*
X1079273*
X1084500D02*
X1083818Y1514625D01*
X1083364Y1513781*
X1083136Y1512375*
Y1511531*
X1083364Y1510125*
X1083818Y1509281*
X1084500Y1509000*
X1084955*
X1085636Y1509281*
X1086091Y1510125*
X1086318Y1511531*
Y1512375*
X1086091Y1513781*
X1085636Y1514625*
X1084955Y1514906*
X1084500*
X1093591D02*
Y1509000D01*
Y1514906D02*
X1095636D01*
X1096318Y1514625*
X1096545Y1514344*
X1096773Y1513781*
Y1513219*
X1096545Y1512656*
X1096318Y1512375*
X1095636Y1512094*
X1093591*
X1095182D02*
X1096773Y1509000D01*
X1098818Y1511250D02*
X1101545D01*
Y1511813*
X1101545D02*
X1101318Y1512375D01*
X1101091Y1512656*
X1100636Y1512938*
X1100636D02*
X1099955D01*
X1099955D02*
X1099500Y1512656D01*
X1099045Y1512094*
X1098818Y1511250*
Y1510688*
X1098818D02*
X1099045Y1509844D01*
X1099500Y1509281*
X1099955Y1509000*
X1100636*
X1101091Y1509281*
X1101545Y1509844*
X1103591Y1512938D02*
X1104955Y1509000D01*
X1106318Y1512938D02*
X1104955Y1509000D01*
X1108591Y1509563D02*
X1108364Y1509281D01*
X1108591Y1509000*
X1108818Y1509281*
X1108591Y1509563*
X1117909Y1514906D02*
X1116091Y1509000D01*
X1117909Y1514906D02*
X1119727Y1509000D01*
X1116773Y1510969D02*
X1119045D01*
X1488182Y1569563D02*
X1487727Y1570125D01*
X1487045Y1570406*
X1486136*
X1485455Y1570125*
X1485000Y1569563*
X1485000D02*
Y1569000D01*
X1485227Y1568438*
X1485227D02*
X1485455Y1568156D01*
X1485909Y1567875*
X1487273Y1567313*
X1487273D02*
X1487727Y1567031D01*
X1487955Y1566750*
X1488182Y1566188*
X1488182D02*
Y1565344D01*
X1487727Y1564781*
X1487045Y1564500*
X1486136*
X1485455Y1564781*
X1485000Y1565344*
X1490227Y1570406D02*
Y1564500D01*
X1492273Y1570406D02*
Y1564500D01*
X1495000*
X1497045Y1570406D02*
Y1564500D01*
X1500227Y1570406D02*
X1497045Y1566469D01*
X1498182Y1567875D02*
X1500227Y1564500D01*
X1505455Y1569563D02*
X1505000Y1570125D01*
X1504318Y1570406*
X1503409*
X1502727Y1570125*
X1502273Y1569563*
X1502273D02*
Y1569000D01*
X1502500Y1568438*
X1502500D02*
X1502727Y1568156D01*
X1503182Y1567875*
X1504545Y1567313*
X1504545D02*
X1505000Y1567031D01*
X1505227Y1566750*
X1505455Y1566188*
X1505455D02*
Y1565344D01*
X1505000Y1564781*
X1504318Y1564500*
X1503409*
X1502727Y1564781*
X1502273Y1565344*
X1510909Y1569000D02*
X1510682Y1569563D01*
X1510682D02*
X1510227Y1570125D01*
X1509773Y1570406*
X1508864*
X1508409Y1570125*
X1507955Y1569563*
X1507955D02*
X1507727Y1569000D01*
X1507500Y1568156*
Y1566750*
X1507727Y1565906*
X1507955Y1565344*
X1508409Y1564781*
X1508864Y1564500*
X1509773*
X1510227Y1564781*
X1510682Y1565344*
X1510909Y1565906*
X1512955Y1570406D02*
Y1564500D01*
Y1570406D02*
X1515000D01*
X1515682Y1570125*
X1515909Y1569844*
X1516136Y1569281*
Y1568719*
X1515909Y1568156*
X1515682Y1567875*
X1515000Y1567594*
X1512955*
X1514545D02*
X1516136Y1564500D01*
X1518182Y1570406D02*
Y1564500D01*
Y1570406D02*
X1521136D01*
X1518182Y1567594D02*
X1520000D01*
X1518182Y1564500D02*
X1521136D01*
X1523182Y1570406D02*
Y1564500D01*
Y1570406D02*
X1526136D01*
X1523182Y1567594D02*
X1525000D01*
X1523182Y1564500D02*
X1526136D01*
X1528182Y1570406D02*
Y1564500D01*
Y1570406D02*
X1531364Y1564500D01*
Y1570406D02*
Y1564500D01*
X1538636Y1570406D02*
Y1564500D01*
Y1570406D02*
X1540682D01*
X1541364Y1570125*
X1541591Y1569844*
X1541818Y1569281*
Y1568719*
X1541591Y1568156*
X1541364Y1567875*
X1540682Y1567594*
X1538636D02*
X1540682D01*
X1541364Y1567313*
X1541364D02*
X1541591Y1567031D01*
X1541818Y1566469*
Y1565625*
X1541591Y1565063*
X1541591D02*
X1541364Y1564781D01*
X1540682Y1564500*
X1538636*
X1545227Y1570406D02*
X1544773Y1570125D01*
X1544318Y1569563*
X1544318D02*
X1544091Y1569000D01*
X1543864Y1568156*
Y1566750*
X1544091Y1565906*
X1544318Y1565344*
X1544773Y1564781*
X1545227Y1564500*
X1546136*
X1546591Y1564781*
X1547045Y1565344*
X1547273Y1565906*
X1547500Y1566750*
Y1568156*
X1547273Y1569000*
X1547045Y1569563*
X1547045D02*
X1546591Y1570125D01*
X1546136Y1570406*
X1545227*
X1551136D02*
Y1564500D01*
X1549545Y1570406D02*
X1552727D01*
X1556364D02*
Y1564500D01*
X1554773Y1570406D02*
X1557955D01*
X1561364D02*
X1560909Y1570125D01*
X1560455Y1569563*
X1560455D02*
X1560227Y1569000D01*
X1560000Y1568156*
Y1566750*
X1560227Y1565906*
X1560455Y1565344*
X1560909Y1564781*
X1561364Y1564500*
X1562273*
X1562727Y1564781*
X1563182Y1565344*
X1563409Y1565906*
X1563636Y1566750*
Y1568156*
X1563409Y1569000*
X1563182Y1569563*
X1563182D02*
X1562727Y1570125D01*
X1562273Y1570406*
X1561364*
X1565682D02*
Y1564500D01*
Y1570406D02*
X1567500Y1564500D01*
X1569318Y1570406D02*
X1567500Y1564500D01*
X1569318Y1570406D02*
Y1564500D01*
X1000000Y1462862D02*
Y1480316D01*
X1019685Y1500000*
X1632086*
X1637086Y1495000*
Y1062992*
X1599685*
G75*
G03X1597716Y1061024I-0J-1968D01*
G01Y1000000*
X1203000*
Y1029077*
Y1029080D02*
G03X1191000Y1029070I-6000J-251D01*
G01Y1029077D02*
Y1000000D01*
X1132000*
Y1029000*
Y1028998D02*
G03X1119499Y1028758I-6253J32D01*
G01X1119500Y1028750D02*
Y1000000D01*
X1055313*
X1041683Y1012615*
X1041683D02*
X1031863Y1060462D01*
X1013277Y1179056*
X1001317Y1256005*
X1000000Y1310659*
Y1462862*
X1000000*
G54D63*
X1217500Y1285780D02*
X1244181D01*
Y1258220*
X1217500*
X1168500Y1285780D02*
X1141819D01*
Y1258220*
X1168500*
X1170500Y1291500D02*
X1172500Y1293000D01*
X1168500*
X1170500Y1291500*
X1520107Y1398492D02*
X1520209Y1398773D01*
X1520414Y1399055*
X1520618Y1399195*
X1521027*
X1521232Y1399055*
X1521436Y1398773*
X1521539Y1398492*
X1521641Y1398070*
Y1397367*
X1521539Y1396945*
X1521436Y1396664*
X1521232Y1396383*
X1521027Y1396242*
X1520618*
X1520414Y1396383*
X1520209Y1396664*
X1520107Y1396945*
X1518982Y1399195D02*
X1517857D01*
X1518470Y1398070*
X1518164*
X1517959Y1397930*
X1517857Y1397789*
X1517755Y1397367*
Y1397086*
X1517857Y1396664*
X1518061Y1396383*
X1518368Y1396242*
X1518675*
X1518982Y1396383*
X1519084Y1396523*
X1519186Y1396805*
X1516834Y1398633D02*
X1516630Y1398773D01*
X1516323Y1399195*
Y1396242*
X1514380Y1399195D02*
X1515402Y1397227D01*
X1513868*
X1514380Y1399195D02*
Y1396242D01*
X1521107Y1424492D02*
X1521209Y1424773D01*
X1521414Y1425055*
X1521618Y1425195*
X1522027*
X1522232Y1425055*
X1522436Y1424773*
X1522539Y1424492*
X1522641Y1424070*
Y1423367*
X1522539Y1422945*
X1522436Y1422664*
X1522232Y1422383*
X1522027Y1422242*
X1521618*
X1521414Y1422383*
X1521209Y1422664*
X1521107Y1422945*
X1519982Y1425195D02*
X1518857D01*
X1519470Y1424070*
X1519164*
X1518959Y1423930*
X1518857Y1423789*
X1518755Y1423367*
Y1423086*
X1518857Y1422664*
X1519061Y1422383*
X1519368Y1422242*
X1519675*
X1519982Y1422383*
X1520084Y1422523*
X1520186Y1422805*
X1517834Y1424633D02*
X1517630Y1424773D01*
X1517323Y1425195*
Y1422242*
X1515073Y1425195D02*
X1516095D01*
X1516198Y1423930*
X1516095Y1424070*
X1515789Y1424211*
X1515482*
X1515175Y1424070*
X1514970Y1423789*
X1514868Y1423367*
X1514970Y1423086*
X1515073Y1422664*
X1515277Y1422383*
X1515584Y1422242*
X1515891*
X1516198Y1422383*
X1516300Y1422523*
X1516402Y1422805*
X1461784Y1453453D02*
Y1450500D01*
X1462500Y1453453D02*
X1461068D01*
X1460148D02*
Y1450500D01*
Y1453453D02*
X1459227D01*
X1458920Y1453313*
X1458920D02*
X1458818Y1453172D01*
X1458716Y1452891*
Y1452469*
X1458818Y1452188*
X1458818D02*
X1458920Y1452047D01*
X1459227Y1451906*
X1460148*
X1457795Y1449937D02*
X1455648D01*
X1454114Y1453031D02*
Y1450500D01*
X1455034Y1451766D02*
X1453193D01*
X1451045Y1453031D02*
X1451148Y1453313D01*
X1451148D02*
X1451455Y1453453D01*
X1451659*
X1451966Y1453313*
X1451966D02*
X1452170Y1452891D01*
X1452273Y1452188*
X1452273D02*
Y1451484D01*
X1452170Y1450922*
X1451966Y1450641*
X1451659Y1450500*
X1451557*
X1451250Y1450641*
X1451045Y1450922*
X1450943Y1451344*
Y1451484*
X1451045Y1451906*
X1451250Y1452188*
X1451250D02*
X1451557Y1452328D01*
X1451659*
X1451966Y1452188*
X1451966D02*
X1452170Y1451906D01*
X1452273Y1451484*
X1450023Y1453453D02*
X1449205Y1450500D01*
X1448386Y1453453D02*
X1449205Y1450500D01*
X1446136Y1453453D02*
X1447159D01*
X1447261Y1452188*
X1447261D02*
X1447159Y1452328D01*
X1446852Y1452469*
X1446545*
X1446239Y1452328*
X1446034Y1452047*
X1445932Y1451625*
X1446034Y1451344*
X1446136Y1450922*
X1446341Y1450641*
X1446648Y1450500*
X1446955*
X1447261Y1450641*
X1447364Y1450781*
X1447466Y1451063*
X1295500Y1125453D02*
Y1123344D01*
X1295398Y1122922*
X1295193Y1122641*
X1294886Y1122500*
X1294682*
X1294375Y1122641*
X1294170Y1122922*
X1294068Y1123344*
Y1125453*
X1293148Y1124891D02*
X1292943Y1125031D01*
X1292636Y1125453*
Y1122500*
X1291614Y1124750D02*
Y1124891D01*
X1291511Y1125172*
X1291409Y1125313*
X1291409D02*
X1291205Y1125453D01*
X1290795*
X1290591Y1125313*
X1290591D02*
X1290489Y1125172D01*
X1290386Y1124891*
Y1124609*
X1290489Y1124328*
X1290693Y1123906*
X1291716Y1122500*
X1290284*
X1295000Y1105453D02*
Y1103344D01*
X1294898Y1102922*
X1294693Y1102641*
X1294386Y1102500*
X1294182*
X1293875Y1102641*
X1293670Y1102922*
X1293568Y1103344*
Y1105453*
X1292648Y1104891D02*
X1292443Y1105031D01*
X1292136Y1105453*
Y1102500*
X1290193Y1105453D02*
X1291216Y1103484D01*
X1289682*
X1290193Y1105453D02*
Y1102500D01*
X1294500Y1044953D02*
Y1042844D01*
X1294398Y1042422*
X1294193Y1042141*
X1293886Y1042000*
X1293682*
X1293375Y1042141*
X1293170Y1042422*
X1293068Y1042844*
Y1044953*
X1290818D02*
X1291841D01*
X1291943Y1043688*
X1291943D02*
X1291841Y1043828D01*
X1291534Y1043969*
X1291227*
X1290920Y1043828*
X1290716Y1043547*
X1290614Y1043125*
X1290716Y1042844*
X1290818Y1042422*
X1291023Y1042141*
X1291330Y1042000*
X1291636*
X1291943Y1042141*
X1292045Y1042281*
X1292148Y1042563*
X1295000Y1205453D02*
Y1203344D01*
X1294898Y1202922*
X1294693Y1202641*
X1294386Y1202500*
X1294182*
X1293875Y1202641*
X1293670Y1202922*
X1293568Y1203344*
Y1205453*
X1292648Y1204891D02*
X1292443Y1205031D01*
X1292136Y1205453*
Y1202500*
X1290705Y1205453D02*
X1291011Y1205313D01*
X1291011D02*
X1291114Y1205031D01*
Y1204750*
X1291011Y1204469*
X1290807Y1204328*
X1290398Y1204188*
X1290398D02*
X1290091Y1204047D01*
X1289886Y1203766*
X1289784Y1203484*
Y1203063*
X1289784D02*
X1289886Y1202781D01*
X1289989Y1202641*
X1290295Y1202500*
X1290705*
X1291011Y1202641*
X1291114Y1202781*
X1291216Y1203063*
X1291216D02*
Y1203484D01*
X1291114Y1203766*
X1290909Y1204047*
X1290602Y1204188*
X1290602D02*
X1290193Y1204328D01*
X1289989Y1204469*
X1289886Y1204750*
Y1205031*
X1289989Y1205313*
X1289989D02*
X1290295Y1205453D01*
X1290705*
X1296000Y1164953D02*
Y1162844D01*
X1295898Y1162422*
X1295693Y1162141*
X1295386Y1162000*
X1295182*
X1294875Y1162141*
X1294670Y1162422*
X1294568Y1162844*
Y1164953*
X1292318Y1163969D02*
X1292420Y1163547D01*
X1292625Y1163266*
X1292932Y1163125*
X1293034*
X1293341Y1163266*
X1293545Y1163547*
X1293648Y1163969*
Y1164109*
X1293545Y1164531*
X1293341Y1164813*
X1293341D02*
X1293034Y1164953D01*
X1292932*
X1292625Y1164813*
X1292625D02*
X1292420Y1164531D01*
X1292318Y1163969*
Y1163266*
X1292420Y1162563*
X1292420D02*
X1292625Y1162141D01*
X1292932Y1162000*
X1293136*
X1293443Y1162141*
X1293545Y1162422*
X1291193Y1164953D02*
X1290068D01*
X1290682Y1163828*
X1290375*
X1290170Y1163688*
X1290170D02*
X1290068Y1163547D01*
X1289966Y1163125*
Y1162844*
X1290068Y1162422*
X1290273Y1162141*
X1290580Y1162000*
X1290886*
X1291193Y1162141*
X1291295Y1162281*
X1291398Y1162563*
X1145370Y1033062D02*
X1145097Y1033249D01*
X1144688Y1033812*
Y1029874*
X1142643Y1033812D02*
X1143052Y1033624D01*
X1143324Y1033062*
X1143461Y1032124*
Y1031562*
X1143324Y1030624*
X1143052Y1030062*
X1142643Y1029874*
X1142370*
X1141961Y1030062*
X1141688Y1030624*
X1141552Y1031562*
Y1032124*
X1141688Y1033062*
X1141961Y1033624*
X1142370Y1033812*
X1142643*
X1185026Y1032468D02*
Y1032656D01*
X1184890Y1033031*
X1184753Y1033218*
X1184480Y1033406*
X1183935*
X1183662Y1033218*
X1183526Y1033031*
X1183390Y1032656*
Y1032281*
X1183526Y1031906*
X1183799Y1031343*
X1185162Y1029468*
X1183253*
X1047000Y1444500D02*
X1048250Y1443250D01*
G54D65*
X1459000Y1314625D02*
Y1301500D01*
X1452182Y1314625D02*
X1453091Y1314000D01*
X1454000Y1312750*
X1454455Y1311500*
X1454909Y1309625*
Y1306500*
X1454455Y1304625*
X1454000Y1303375*
X1453091Y1302125*
X1452182Y1301500*
X1450364*
X1449455Y1302125*
X1448545Y1303375*
X1448091Y1304625*
X1447636Y1306500*
Y1309625*
X1448091Y1311500*
X1448545Y1312750*
X1449455Y1314000*
X1450364Y1314625*
X1452182*
X1443545D02*
Y1301500D01*
Y1314625D02*
X1439455D01*
X1438091Y1314000*
X1437636Y1313375*
X1437182Y1312125*
Y1310250*
X1437636Y1309000*
X1438091Y1308375*
X1439455Y1307750*
X1443545*
X1433091Y1307125D02*
X1424909D01*
X1420818Y1314625D02*
Y1301500D01*
Y1314625D02*
X1417636D01*
X1416273Y1314000*
X1415364Y1312750*
X1414909Y1311500*
X1414455Y1309625*
Y1306500*
X1414909Y1304625*
X1415364Y1303375*
X1416273Y1302125*
X1417636Y1301500*
X1420818*
X1410364Y1314625D02*
Y1301500D01*
X1406273Y1312125D02*
X1405364Y1312750D01*
X1404000Y1314625*
Y1301500*
G54D75*
X1504094Y1263217D02*
Y1277783D01*
X1515906*
Y1263217*
X1504094*
X1515906Y1264004D02*
X1515118Y1263217D01*
X1515906Y1264791D02*
X1514331Y1263217D01*
X1515906Y1265579D02*
X1513543Y1263217D01*
X1515906Y1266366D02*
X1512756Y1263217D01*
X1515906Y1267154D02*
X1511969Y1263217D01*
X1518000Y1394118D02*
Y1383882D01*
X1517000Y1437118D02*
Y1426882D01*
X1046681Y1443791D02*
X1044319D01*
Y1455209*
X1046681*
Y1443791*
Y1425791D02*
X1044319D01*
Y1437209*
X1046681*
Y1425791*
Y1408291D02*
X1044319D01*
Y1419709*
X1046681*
Y1408291*
Y1372791D02*
X1044319D01*
Y1384209*
X1046681*
Y1372791*
X1082681Y1310791D02*
X1080319D01*
Y1322209*
X1082681*
Y1310791*
X1046681Y1354791D02*
X1044319D01*
Y1366209*
X1046681*
Y1354791*
X1082681Y1334291D02*
X1080319D01*
Y1345709*
X1082681*
Y1334291*
X1526638Y1452150D02*
X1531362D01*
X1526638Y1445850D02*
X1531362D01*
X1387500Y1348181D02*
Y1345819D01*
X1527500Y1357619D02*
Y1359981D01*
X1546500Y1369681D02*
Y1367319D01*
Y1375819D02*
Y1378181D01*
X1417000Y1420819D02*
Y1423181D01*
X1419319Y1411500D02*
X1421681D01*
X1431500Y1415319D02*
Y1417681D01*
X1034681Y1360500D02*
X1032319D01*
X1034681Y1378500D02*
X1032319D01*
X1034681Y1449500D02*
X1032319D01*
X1034681Y1431500D02*
X1032319D01*
X1519500Y1070681D02*
Y1068319D01*
Y1061819D02*
Y1064181D01*
X1518381Y1199100D02*
X1516019D01*
X1508881Y1176600D02*
X1506519D01*
X1514881D02*
X1512519D01*
X1520881D02*
X1518519D01*
X1532881D02*
X1530519D01*
X1526881D02*
X1524519D01*
X1542381Y1199100D02*
X1540019D01*
X1536381D02*
X1534019D01*
X1512381D02*
X1510019D01*
X1500381D02*
X1498019D01*
X1506381D02*
X1504019D01*
X1530381D02*
X1528019D01*
X1524381D02*
X1522019D01*
X1524181Y1100500D02*
X1521819D01*
X1055819Y1360500D02*
X1058181D01*
X1094181Y1316500D02*
X1091819D01*
X1094181Y1340000D02*
X1091819D01*
X1055819Y1449500D02*
X1058181D01*
X1055819Y1431500D02*
X1058181D01*
X1055819Y1414000D02*
X1058181D01*
Y1378500D02*
X1055819D01*
X1450165Y1419000D02*
X1445835D01*
X1439665Y1428500D02*
X1435335D01*
X1454400Y1465635D02*
Y1469965D01*
X1493335Y1406000D02*
X1497665D01*
X1496335Y1433000D02*
X1500665D01*
X1511335Y1100500D02*
X1515665D01*
X1487835Y1433000D02*
X1492165D01*
X1322650Y1156165D02*
Y1151835D01*
X1316350Y1156165D02*
Y1151835D01*
X1322650Y1056165D02*
Y1051835D01*
X1316350Y1056165D02*
Y1051835D01*
X1322650Y1096165D02*
Y1091835D01*
X1316350Y1096165D02*
Y1091835D01*
X1322650Y1036165D02*
Y1031835D01*
X1316350Y1036165D02*
Y1031835D01*
X1322650Y1136165D02*
Y1131835D01*
X1316350Y1136165D02*
Y1131835D01*
X1322650Y1076165D02*
Y1071835D01*
X1316350Y1076165D02*
Y1071835D01*
X1602937Y1287181D02*
Y1284819D01*
X1595063*
Y1287181*
X1602937*
X1133500Y1070681D02*
Y1068319D01*
X1267819Y1054000D02*
X1270181D01*
X1267819Y1034000D02*
X1270181D01*
Y1134000D02*
X1267819D01*
X1499519Y1176600D02*
X1501881D01*
X1602181Y1262500D02*
X1599819D01*
X1577819D02*
X1580181D01*
X1498700Y1245681D02*
Y1243319D01*
X1510000Y1245681D02*
Y1243319D01*
X1402319Y1350000D02*
X1404681D01*
X1395819D02*
X1398181D01*
X1064681Y1414000D02*
X1062319D01*
X1064681Y1431500D02*
X1062319D01*
X1064681Y1449500D02*
X1062319D01*
X1100681Y1340000D02*
X1098319D01*
X1100681Y1316500D02*
X1098319D01*
X1064681Y1360500D02*
X1062319D01*
X1587681Y1262500D02*
X1585319D01*
X1149500Y1068319D02*
Y1070681D01*
X1165500D02*
Y1068319D01*
X1573681Y1262500D02*
X1571319D01*
X1267819Y1114000D02*
X1270181D01*
X1267819Y1074000D02*
X1270181D01*
X1064681Y1378500D02*
X1062319D01*
X1267819Y1154000D02*
X1270181D01*
X1170319Y1048000D02*
X1172681D01*
X1160319D02*
X1162681D01*
X1182681D02*
X1180319D01*
X1581937Y1287181D02*
Y1284819D01*
X1574063*
Y1287181*
X1581937*
X1427319Y1428500D02*
X1429681D01*
X1322650Y1176165D02*
Y1171835D01*
X1316350Y1176165D02*
Y1171835D01*
X1267819Y1194000D02*
X1270181D01*
X1267819Y1094000D02*
X1270181D01*
X1267819Y1174000D02*
X1270181D01*
X1322650Y1196165D02*
Y1191835D01*
X1316350Y1196165D02*
Y1191835D01*
X1322650Y1116165D02*
Y1111835D01*
X1316350Y1116165D02*
Y1111835D01*
X1031319Y1149000D02*
X1033681D01*
X1034319Y1131000D02*
X1036681D01*
X1025819Y1185500D02*
X1028181D01*
X1028319Y1167000D02*
X1030681D01*
X1034681Y1414000D02*
X1032319D01*
X1068319Y1340000D02*
X1070681D01*
Y1316500D02*
X1068319D01*
X1018819Y1221500D02*
X1021181D01*
X1022319Y1204000D02*
X1024681D01*
X1015819Y1259000D02*
X1018181D01*
X1017819Y1240500D02*
X1020181D01*
X1042819Y1075500D02*
X1045181D01*
X1045819Y1056500D02*
X1048181D01*
X1037319Y1112500D02*
X1039681D01*
X1039819Y1094000D02*
X1042181D01*
X1049319Y1038500D02*
X1051681D01*
X1053319Y1019500D02*
X1055681D01*
X1012319Y1296000D02*
X1014681D01*
X1012319Y1277000D02*
X1014681D01*
X1034681Y1396000D02*
X1032319D01*
G54D78*
X1565797Y1280648D02*
Y1292352D01*
X1571203*
Y1280648*
X1565797*
X1586297Y1283648D02*
Y1295352D01*
X1591703*
Y1283648*
X1586297*
X1517397Y1215648D02*
Y1227352D01*
X1522803*
Y1215648*
X1517397*
X1516452Y1289097D02*
X1504748D01*
Y1294503*
X1516452*
Y1289097*
X1156147Y1138948D02*
Y1150652D01*
X1161553*
Y1138948*
X1156147*
X1143648Y1080703D02*
X1155352D01*
Y1075297*
X1143648*
Y1080703*
X1179648Y1129703D02*
X1191352D01*
Y1124297*
X1179648*
Y1129703*
X1189158Y1149503D02*
X1200862D01*
Y1144097*
X1189158*
Y1149503*
X1127648Y1080703D02*
X1139352D01*
Y1075297*
X1127648*
Y1080703*
X1159648D02*
X1171352D01*
Y1075297*
X1159648*
Y1080703*
X1103648Y1296703D02*
X1115352D01*
Y1291297*
X1103648*
Y1296703*
X1063703Y1243352D02*
Y1231648D01*
X1058297*
Y1243352*
X1063703*
X1174352Y1160297D02*
X1162648D01*
Y1165703*
X1174352*
Y1160297*
X1156852Y1099297D02*
X1145148D01*
Y1104703*
X1156852*
Y1099297*
X1128297Y1165648D02*
Y1177352D01*
X1133703*
Y1165648*
X1128297*
X1187352Y1144297D02*
X1175648D01*
Y1149703*
X1187352*
Y1144297*
X1058297Y1140648D02*
Y1152352D01*
X1063703*
Y1140648*
X1058297*
X1179703Y1162852D02*
Y1151148D01*
X1174297*
Y1162852*
X1179703*
X1174297Y1131148D02*
Y1142852D01*
X1179703*
Y1131148*
X1174297*
X1197148Y1193203D02*
X1208852D01*
Y1187797*
X1197148*
Y1193203*
X1133703Y1124852D02*
Y1113148D01*
X1128297*
Y1124852*
X1133703*
X1239148Y1177703D02*
X1250852D01*
Y1172297*
X1239148*
Y1177703*
X1162648Y1149203D02*
X1174352D01*
Y1143797*
X1162648*
Y1149203*
X1195203Y1141352D02*
Y1129648D01*
X1189797*
Y1141352*
X1195203*
X1181248Y1165053D02*
X1192952D01*
Y1159647*
X1181248*
Y1165053*
X1211148Y1169703D02*
X1222852D01*
Y1164297*
X1211148*
Y1169703*
X1166148Y1129703D02*
X1177852D01*
Y1124297*
X1166148*
Y1129703*
X1197148Y1186203D02*
X1208852D01*
Y1180797*
X1197148*
Y1186203*
X1211148Y1176703D02*
X1222852D01*
Y1171297*
X1211148*
Y1176703*
X1135797Y1165648D02*
Y1177352D01*
X1141203*
Y1165648*
X1135797*
X1153852Y1180797D02*
X1142148D01*
Y1186203*
X1153852*
Y1180797*
X1143703Y1126352D02*
Y1114648D01*
X1138297*
Y1126352*
X1143703*
X1212148Y1124703D02*
X1223852D01*
Y1119297*
X1212148*
Y1124703*
X1197648Y1113703D02*
X1209352D01*
Y1108297*
X1197648*
Y1113703*
X1155352Y1108297D02*
X1143648D01*
Y1113703*
X1155352*
Y1108297*
X1047297Y1195648D02*
Y1207352D01*
X1052703*
Y1195648*
X1047297*
X1453297Y1412648D02*
Y1424352D01*
X1458703*
Y1412648*
X1453297*
X1526297Y1060148D02*
Y1071852D01*
X1531703*
Y1060148*
X1526297*
X1590797Y1256648D02*
Y1268352D01*
X1596203*
Y1256648*
X1590797*
X1563297D02*
Y1268352D01*
X1568703*
Y1256648*
X1563297*
X1605297D02*
Y1268352D01*
X1610703*
Y1256648*
X1605297*
X1479297Y1427148D02*
Y1438852D01*
X1484703*
Y1427148*
X1479297*
X1410352Y1419297D02*
X1398648D01*
Y1424703*
X1410352*
Y1419297*
X1438352Y1440297D02*
X1426648D01*
Y1445703*
X1438352*
Y1440297*
X1524000Y1271953D02*
Y1269844D01*
X1523898Y1269422*
X1523693Y1269141*
X1523386Y1269000*
X1523182*
X1522875Y1269141*
X1522670Y1269422*
X1522568Y1269844*
Y1271953*
X1520420Y1271531D02*
X1520523Y1271813D01*
X1520523D02*
X1520830Y1271953D01*
X1521034*
X1521341Y1271813*
X1521341D02*
X1521545Y1271391D01*
X1521648Y1270688*
X1521648D02*
Y1269984D01*
X1521545Y1269422*
X1521341Y1269141*
X1521034Y1269000*
X1520932*
X1520625Y1269141*
X1520420Y1269422*
X1520318Y1269844*
Y1269984*
X1520420Y1270406*
X1520625Y1270688*
X1520625D02*
X1520932Y1270828D01*
X1521034*
X1521341Y1270688*
X1521341D02*
X1521545Y1270406D01*
X1521648Y1269984*
X1519295Y1271250D02*
Y1271391D01*
X1519193Y1271672*
X1519091Y1271813*
X1519091D02*
X1518886Y1271953D01*
X1518477*
X1518273Y1271813*
X1518273D02*
X1518170Y1271672D01*
X1518068Y1271391*
Y1271109*
X1518170Y1270828*
X1518375Y1270406*
X1519398Y1269000*
X1517966*
X1043386Y1460453D02*
X1043591Y1460313D01*
X1043591D02*
X1043795Y1460031D01*
X1043898Y1459750*
X1044000Y1459328*
Y1458625*
X1043898Y1458203*
X1043795Y1457922*
X1043591Y1457641*
X1043386Y1457500*
X1042977*
X1042773Y1457641*
X1042568Y1457922*
X1042466Y1458203*
X1042364Y1458625*
Y1459328*
X1042466Y1459750*
X1042568Y1460031*
X1042773Y1460313*
X1042773D02*
X1042977Y1460453D01*
X1043386*
X1043080Y1458063D02*
X1042466Y1457219D01*
X1041443Y1459891D02*
X1041239Y1460031D01*
X1040932Y1460453*
Y1457500*
X1039398Y1460453D02*
X1039705Y1460313D01*
X1039705D02*
X1039909Y1459891D01*
X1040011Y1459188*
X1040011D02*
Y1458766D01*
X1039909Y1458063*
X1039909D02*
X1039705Y1457641D01*
X1039398Y1457500*
X1039193*
X1038886Y1457641*
X1038682Y1458063*
X1038682D02*
X1038580Y1458766D01*
Y1459188*
X1038580D02*
X1038682Y1459891D01*
X1038886Y1460313*
X1038886D02*
X1039193Y1460453D01*
X1039398*
X1043386Y1441953D02*
X1043591Y1441813D01*
X1043591D02*
X1043795Y1441531D01*
X1043898Y1441250*
X1044000Y1440828*
Y1440125*
X1043898Y1439703*
X1043795Y1439422*
X1043591Y1439141*
X1043386Y1439000*
X1042977*
X1042773Y1439141*
X1042568Y1439422*
X1042466Y1439703*
X1042364Y1440125*
Y1440828*
X1042466Y1441250*
X1042568Y1441531*
X1042773Y1441813*
X1042773D02*
X1042977Y1441953D01*
X1043386*
X1043080Y1439563D02*
X1042466Y1438719D01*
X1041443Y1441391D02*
X1041239Y1441531D01*
X1040932Y1441953*
Y1439000*
X1040011Y1441391D02*
X1039807Y1441531D01*
X1039500Y1441953*
Y1439000*
X1046886Y1405953D02*
X1047091Y1405813D01*
X1047091D02*
X1047295Y1405531D01*
X1047398Y1405250*
X1047500Y1404828*
Y1404125*
X1047398Y1403703*
X1047295Y1403422*
X1047091Y1403141*
X1046886Y1403000*
X1046477*
X1046273Y1403141*
X1046068Y1403422*
X1045966Y1403703*
X1045864Y1404125*
Y1404828*
X1045966Y1405250*
X1046068Y1405531*
X1046273Y1405813*
X1046273D02*
X1046477Y1405953D01*
X1046886*
X1046580Y1403563D02*
X1045966Y1402719D01*
X1044943Y1405391D02*
X1044739Y1405531D01*
X1044432Y1405953*
Y1403000*
X1043409Y1405250D02*
Y1405391D01*
X1043307Y1405672*
X1043205Y1405813*
X1043205D02*
X1043000Y1405953D01*
X1042591*
X1042386Y1405813*
X1042386D02*
X1042284Y1405672D01*
X1042182Y1405391*
Y1405109*
X1042284Y1404828*
X1042489Y1404406*
X1043511Y1403000*
X1042080*
X1046886Y1391953D02*
X1047091Y1391813D01*
X1047091D02*
X1047295Y1391531D01*
X1047398Y1391250*
X1047500Y1390828*
Y1390125*
X1047398Y1389703*
X1047295Y1389422*
X1047091Y1389141*
X1046886Y1389000*
X1046477*
X1046273Y1389141*
X1046068Y1389422*
X1045966Y1389703*
X1045864Y1390125*
Y1390828*
X1045966Y1391250*
X1046068Y1391531*
X1046273Y1391813*
X1046273D02*
X1046477Y1391953D01*
X1046886*
X1046580Y1389563D02*
X1045966Y1388719D01*
X1044841Y1391250D02*
Y1391391D01*
X1044739Y1391672*
X1044636Y1391813*
X1044636D02*
X1044432Y1391953D01*
X1044023*
X1043818Y1391813*
X1043818D02*
X1043716Y1391672D01*
X1043614Y1391391*
Y1391109*
X1043716Y1390828*
X1043920Y1390406*
X1044943Y1389000*
X1043511*
X1042591Y1391391D02*
X1042386Y1391531D01*
X1042080Y1391953*
Y1389000*
X1077886Y1321953D02*
X1078091Y1321813D01*
X1078091D02*
X1078295Y1321531D01*
X1078398Y1321250*
X1078500Y1320828*
Y1320125*
X1078398Y1319703*
X1078295Y1319422*
X1078091Y1319141*
X1077886Y1319000*
X1077477*
X1077273Y1319141*
X1077068Y1319422*
X1076966Y1319703*
X1076864Y1320125*
Y1320828*
X1076966Y1321250*
X1077068Y1321531*
X1077273Y1321813*
X1077273D02*
X1077477Y1321953D01*
X1077886*
X1077580Y1319563D02*
X1076966Y1318719D01*
X1075739Y1321953D02*
X1074614D01*
X1075227Y1320828*
X1074920*
X1074716Y1320688*
X1074716D02*
X1074614Y1320547D01*
X1074511Y1320125*
Y1319844*
X1074614Y1319422*
X1074818Y1319141*
X1075125Y1319000*
X1075432*
X1075739Y1319141*
X1075841Y1319281*
X1075943Y1319563*
X1046386Y1351453D02*
X1046591Y1351313D01*
X1046591D02*
X1046795Y1351031D01*
X1046898Y1350750*
X1047000Y1350328*
Y1349625*
X1046898Y1349203*
X1046795Y1348922*
X1046591Y1348641*
X1046386Y1348500*
X1045977*
X1045773Y1348641*
X1045568Y1348922*
X1045466Y1349203*
X1045364Y1349625*
Y1350328*
X1045466Y1350750*
X1045568Y1351031*
X1045773Y1351313*
X1045773D02*
X1045977Y1351453D01*
X1046386*
X1046080Y1349063D02*
X1045466Y1348219D01*
X1043216Y1351031D02*
X1043318Y1351313D01*
X1043318D02*
X1043625Y1351453D01*
X1043830*
X1044136Y1351313*
X1044136D02*
X1044341Y1350891D01*
X1044443Y1350188*
X1044443D02*
Y1349484D01*
X1044341Y1348922*
X1044136Y1348641*
X1043830Y1348500*
X1043727*
X1043420Y1348641*
X1043216Y1348922*
X1043114Y1349344*
Y1349484*
X1043216Y1349906*
X1043420Y1350188*
X1043420D02*
X1043727Y1350328D01*
X1043830*
X1044136Y1350188*
X1044136D02*
X1044341Y1349906D01*
X1044443Y1349484*
X1077686Y1345653D02*
X1077891Y1345513D01*
X1077891D02*
X1078095Y1345231D01*
X1078198Y1344950*
X1078300Y1344528*
Y1343825*
X1078198Y1343403*
X1078095Y1343122*
X1077891Y1342841*
X1077686Y1342700*
X1077277*
X1077073Y1342841*
X1076868Y1343122*
X1076766Y1343403*
X1076664Y1343825*
Y1344528*
X1076766Y1344950*
X1076868Y1345231*
X1077073Y1345513*
X1077073D02*
X1077277Y1345653D01*
X1077686*
X1077380Y1343263D02*
X1076766Y1342419D01*
X1074311Y1345653D02*
X1075334Y1342700D01*
X1075743Y1345653D02*
X1074311D01*
X1170118Y1299788D02*
Y1297538D01*
X1170118D02*
X1170220Y1297116D01*
X1170323Y1296975*
X1170527Y1296834*
X1170732*
X1170936Y1296975*
X1171039Y1297116*
X1171141Y1297538*
X1171141D02*
Y1297819D01*
X1167970Y1299366D02*
X1168073Y1299647D01*
X1168380Y1299788*
X1168380D02*
X1168584D01*
X1168584D02*
X1168891Y1299647D01*
X1169095Y1299225*
X1169198Y1298522*
Y1297819*
X1169095Y1297256*
X1168891Y1296975*
X1168584Y1296834*
X1168482*
X1168175Y1296975*
X1167970Y1297256*
X1167868Y1297678*
Y1297819*
X1167970Y1298241*
X1168175Y1298522*
X1168482Y1298663*
X1168482D02*
X1168584D01*
X1168584D02*
X1168891Y1298522D01*
X1169095Y1298241*
X1169198Y1297819*
X1295000Y1084953D02*
Y1082844D01*
X1294898Y1082422*
X1294693Y1082141*
X1294386Y1082000*
X1294182*
X1293875Y1082141*
X1293670Y1082422*
X1293568Y1082844*
Y1084953*
X1292648Y1084391D02*
X1292443Y1084531D01*
X1292136Y1084953*
Y1082000*
X1291216Y1084391D02*
X1291011Y1084531D01*
X1290705Y1084953*
Y1082000*
X1295500Y1064953D02*
Y1062844D01*
X1295398Y1062422*
X1295193Y1062141*
X1294886Y1062000*
X1294682*
X1294375Y1062141*
X1294170Y1062422*
X1294068Y1062844*
Y1064953*
X1292943D02*
X1291818D01*
X1292432Y1063828*
X1292125*
X1291920Y1063688*
X1291920D02*
X1291818Y1063547D01*
X1291716Y1063125*
Y1062844*
X1291818Y1062422*
X1292023Y1062141*
X1292330Y1062000*
X1292636*
X1292943Y1062141*
X1293045Y1062281*
X1293148Y1062563*
X1295000Y1144953D02*
Y1142844D01*
X1294898Y1142422*
X1294693Y1142141*
X1294386Y1142000*
X1294182*
X1293875Y1142141*
X1293670Y1142422*
X1293568Y1142844*
Y1144953*
X1291216D02*
X1292239Y1142000D01*
X1292648Y1144953D02*
X1291216D01*
X1530000Y1457953D02*
Y1455000D01*
Y1457953D02*
X1528670D01*
X1530000Y1456547D02*
X1529182D01*
X1527750Y1457953D02*
Y1455000D01*
Y1457953D02*
X1526830D01*
X1526523Y1457813*
X1526523D02*
X1526420Y1457672D01*
X1526318Y1457391*
Y1457109*
X1526420Y1456828*
X1526523Y1456688*
X1526523D02*
X1526830Y1456547D01*
X1527750D02*
X1526830D01*
X1526523Y1456406*
X1526420Y1456266*
X1526318Y1455984*
Y1455563*
X1526318D02*
X1526420Y1455281D01*
X1526523Y1455141*
X1526830Y1455000*
X1527750*
X1525398Y1457391D02*
X1525193Y1457531D01*
X1524886Y1457953*
Y1455000*
X1389449Y1342988D02*
Y1340034D01*
Y1342988D02*
X1388528D01*
X1388528D02*
X1388222Y1342847D01*
X1388119Y1342706*
X1388017Y1342425*
Y1342144*
X1388119Y1341863*
X1388119D02*
X1388222Y1341722D01*
X1388528Y1341581*
X1389449*
X1388733D02*
X1388017Y1340034D01*
X1386994Y1342284D02*
Y1342425D01*
X1386892Y1342706*
X1386790Y1342847*
X1386585Y1342988*
X1386585D02*
X1386176D01*
X1386176D02*
X1385972Y1342847D01*
X1385869Y1342706*
X1385767Y1342425*
Y1342144*
X1385869Y1341863*
X1385869D02*
X1386074Y1341441D01*
X1387097Y1340034*
X1385665*
X1384131Y1342988D02*
X1384437Y1342847D01*
X1384642Y1342425*
X1384744Y1341722*
Y1341300*
X1384642Y1340597*
X1384437Y1340175*
X1384131Y1340034*
X1383926*
X1383619Y1340175*
X1383415Y1340597*
X1383312Y1341300*
Y1341722*
X1383415Y1342425*
X1383619Y1342847*
X1383926Y1342988*
X1383926D02*
X1384131D01*
X1380960D02*
X1381983Y1340034D01*
X1382392Y1342988D02*
X1380960D01*
X1531600Y1354553D02*
Y1351600D01*
Y1354553D02*
X1530680D01*
X1530373Y1354413*
X1530373D02*
X1530270Y1354272D01*
X1530168Y1353991*
Y1353709*
X1530270Y1353428*
X1530373Y1353288*
X1530373D02*
X1530680Y1353147D01*
X1531600*
X1530884D02*
X1530168Y1351600D01*
X1529145Y1353850D02*
Y1353991D01*
X1529043Y1354272*
X1528941Y1354413*
X1528941D02*
X1528736Y1354553D01*
X1528327*
X1528123Y1354413*
X1528123D02*
X1528020Y1354272D01*
X1527918Y1353991*
Y1353709*
X1528020Y1353428*
X1528225Y1353006*
X1529248Y1351600*
X1527816*
X1526691Y1354553D02*
X1525566D01*
X1526180Y1353428*
X1525873*
X1525668Y1353288*
X1525668D02*
X1525566Y1353147D01*
X1525464Y1352725*
Y1352444*
X1525566Y1352022*
X1525770Y1351741*
X1526077Y1351600*
X1526384*
X1526691Y1351741*
X1526793Y1351881*
X1526895Y1352163*
X1524543Y1353991D02*
X1524339Y1354131D01*
X1524032Y1354553*
Y1351600*
X1560000Y1370453D02*
Y1367500D01*
Y1370453D02*
X1559080D01*
X1558773Y1370313*
X1558773D02*
X1558670Y1370172D01*
X1558568Y1369891*
Y1369609*
X1558670Y1369328*
X1558773Y1369188*
X1558773D02*
X1559080Y1369047D01*
X1560000*
X1559284D02*
X1558568Y1367500D01*
X1556216Y1370453D02*
X1557239Y1367500D01*
X1557648Y1370453D02*
X1556216D01*
X1553864D02*
X1554886Y1367500D01*
X1555295Y1370453D02*
X1553864D01*
X1560000Y1378453D02*
Y1375500D01*
Y1378453D02*
X1559080D01*
X1558773Y1378313*
X1558773D02*
X1558670Y1378172D01*
X1558568Y1377891*
Y1377609*
X1558670Y1377328*
X1558773Y1377188*
X1558773D02*
X1559080Y1377047D01*
X1560000*
X1559284D02*
X1558568Y1375500D01*
X1556625Y1378453D02*
X1557648Y1376484D01*
X1556114*
X1556625Y1378453D02*
Y1375500D01*
X1554682Y1378453D02*
X1554989Y1378313D01*
X1554989D02*
X1555091Y1378031D01*
Y1377750*
X1554989Y1377469*
X1554784Y1377328*
X1554375Y1377188*
X1554375D02*
X1554068Y1377047D01*
X1553864Y1376766*
X1553761Y1376484*
Y1376063*
X1553761D02*
X1553864Y1375781D01*
X1553966Y1375641*
X1554273Y1375500*
X1554682*
X1554989Y1375641*
X1555091Y1375781*
X1555193Y1376063*
X1555193D02*
Y1376484D01*
X1555091Y1376766*
X1554886Y1377047*
X1554580Y1377188*
X1554580D02*
X1554170Y1377328D01*
X1553966Y1377469*
X1553864Y1377750*
Y1378031*
X1553966Y1378313*
X1553966D02*
X1554273Y1378453D01*
X1554682*
X1420250Y1428375D02*
Y1425750D01*
Y1428375D02*
X1419330D01*
X1419023Y1428250*
X1418920Y1428125*
X1418818Y1427875*
Y1427625*
X1418920Y1427375*
X1419023Y1427250*
X1419330Y1427125*
X1420250*
X1419534D02*
X1418818Y1425750D01*
X1417693Y1428375D02*
X1416568D01*
X1417182Y1427375*
X1416875*
X1416670Y1427250*
X1416568Y1427125*
X1416466Y1426750*
Y1426500*
X1416568Y1426125*
X1416773Y1425875*
X1417080Y1425750*
X1417386*
X1417693Y1425875*
X1417795Y1426000*
X1417898Y1426250*
X1414216Y1427500D02*
X1414318Y1427125D01*
X1414523Y1426875*
X1414830Y1426750*
X1414932*
X1415239Y1426875*
X1415443Y1427125*
X1415545Y1427500*
Y1427625*
X1415443Y1428000*
X1415239Y1428250*
X1414932Y1428375*
X1414830*
X1414523Y1428250*
X1414318Y1428000*
X1414216Y1427500*
Y1426875*
X1414318Y1426250*
X1414523Y1425875*
X1414830Y1425750*
X1415034*
X1415341Y1425875*
X1415443Y1426125*
X1411864Y1428375D02*
X1412886Y1425750D01*
X1413295Y1428375D02*
X1411864D01*
X1417375Y1408250D02*
X1414750D01*
X1417375D02*
Y1409170D01*
X1417250Y1409477*
X1417125Y1409580*
X1416875Y1409682*
X1416625*
X1416375Y1409580*
X1416250Y1409477*
X1416125Y1409170*
Y1408250*
Y1408966D02*
X1414750Y1409682D01*
X1416875Y1410602D02*
X1417000Y1410807D01*
X1417375Y1411114*
X1414750*
X1416875Y1412034D02*
X1417000Y1412239D01*
X1417375Y1412545*
X1414750*
X1416750Y1413568D02*
X1416875D01*
X1417125Y1413670*
X1417250Y1413773*
X1417375Y1413977*
Y1414386*
X1417250Y1414591*
X1417125Y1414693*
X1416875Y1414795*
X1416625*
X1416375Y1414693*
X1416000Y1414489*
X1414750Y1413466*
Y1414898*
X1435250Y1412375D02*
Y1409750D01*
Y1412375D02*
X1434330D01*
X1434023Y1412250*
X1433920Y1412125*
X1433818Y1411875*
Y1411625*
X1433920Y1411375*
X1434023Y1411250*
X1434330Y1411125*
X1435250*
X1434534D02*
X1433818Y1409750D01*
X1432693Y1412375D02*
X1431568D01*
X1432182Y1411375*
X1431875*
X1431670Y1411250*
X1431568Y1411125*
X1431466Y1410750*
Y1410500*
X1431568Y1410125*
X1431773Y1409875*
X1432080Y1409750*
X1432386*
X1432693Y1409875*
X1432795Y1410000*
X1432898Y1410250*
X1429216Y1411500D02*
X1429318Y1411125D01*
X1429523Y1410875*
X1429830Y1410750*
X1429932*
X1430239Y1410875*
X1430443Y1411125*
X1430545Y1411500*
Y1411625*
X1430443Y1412000*
X1430239Y1412250*
X1429932Y1412375*
X1429830*
X1429523Y1412250*
X1429318Y1412000*
X1429216Y1411500*
Y1410875*
X1429318Y1410250*
X1429523Y1409875*
X1429830Y1409750*
X1430034*
X1430341Y1409875*
X1430443Y1410125*
X1427784Y1412375D02*
X1428091Y1412250D01*
X1428193Y1412000*
Y1411750*
X1428091Y1411500*
X1427886Y1411375*
X1427477Y1411250*
X1427170Y1411125*
X1426966Y1410875*
X1426864Y1410625*
Y1410250*
X1426966Y1410000*
X1427068Y1409875*
X1427375Y1409750*
X1427784*
X1428091Y1409875*
X1428193Y1410000*
X1428295Y1410250*
Y1410625*
X1428193Y1410875*
X1427989Y1411125*
X1427682Y1411250*
X1427273Y1411375*
X1427068Y1411500*
X1426966Y1411750*
Y1412000*
X1427068Y1412250*
X1427375Y1412375*
X1427784*
X1028953Y1356500D02*
X1026000D01*
X1028953D02*
Y1357420D01*
X1028813Y1357727*
X1028813D02*
X1028672Y1357830D01*
X1028391Y1357932*
X1028109*
X1027828Y1357830*
X1027688Y1357727*
X1027688D02*
X1027547Y1357420D01*
Y1356500*
Y1357216D02*
X1026000Y1357932D01*
X1028250Y1358955D02*
X1028391D01*
X1028672Y1359057*
X1028813Y1359159*
X1028813D02*
X1028953Y1359364D01*
Y1359773*
X1028813Y1359977*
X1028813D02*
X1028672Y1360080D01*
X1028391Y1360182*
X1028109*
X1027828Y1360080*
X1027406Y1359875*
X1026000Y1358852*
Y1360284*
X1028953Y1361409D02*
Y1362534D01*
X1027828Y1361920*
Y1362227*
X1027688Y1362432*
X1027688D02*
X1027547Y1362534D01*
X1027125Y1362636*
X1026844*
X1026422Y1362534*
X1026141Y1362330*
X1026000Y1362023*
Y1361716*
X1026141Y1361409*
X1026281Y1361307*
X1026563Y1361205*
X1028250Y1363659D02*
X1028391D01*
X1028672Y1363761*
X1028813Y1363864*
X1028813D02*
X1028953Y1364068D01*
Y1364477*
X1028813Y1364682*
X1028813D02*
X1028672Y1364784D01*
X1028391Y1364886*
X1028109*
X1027828Y1364784*
X1027406Y1364580*
X1026000Y1363557*
Y1364989*
X1028453Y1374000D02*
X1025500D01*
X1028453D02*
Y1374920D01*
X1028313Y1375227*
X1028313D02*
X1028172Y1375330D01*
X1027891Y1375432*
X1027609*
X1027328Y1375330*
X1027188Y1375227*
X1027188D02*
X1027047Y1374920D01*
Y1374000*
Y1374716D02*
X1025500Y1375432D01*
X1027750Y1376455D02*
X1027891D01*
X1028172Y1376557*
X1028313Y1376659*
X1028313D02*
X1028453Y1376864D01*
Y1377273*
X1028313Y1377477*
X1028313D02*
X1028172Y1377580D01*
X1027891Y1377682*
X1027609*
X1027328Y1377580*
X1026906Y1377375*
X1025500Y1376352*
Y1377784*
X1028453Y1379318D02*
X1028313Y1379011D01*
X1028313D02*
X1027891Y1378807D01*
X1027188Y1378705*
X1027188D02*
X1026766D01*
X1026063Y1378807*
X1026063D02*
X1025641Y1379011D01*
X1025500Y1379318*
Y1379523*
X1025641Y1379830*
X1026063Y1380034*
X1026063D02*
X1026766Y1380136D01*
X1027188*
X1027188D02*
X1027891Y1380034D01*
X1028313Y1379830*
X1028313D02*
X1028453Y1379523D01*
Y1379318*
X1028031Y1382284D02*
X1028313Y1382182D01*
X1028313D02*
X1028453Y1381875D01*
Y1381670*
X1028313Y1381364*
X1028313D02*
X1027891Y1381159D01*
X1027188Y1381057*
X1027188D02*
X1026484D01*
X1025922Y1381159*
X1025641Y1381364*
X1025500Y1381670*
Y1381773*
X1025641Y1382080*
X1025922Y1382284*
X1026344Y1382386*
X1026484*
X1026906Y1382284*
X1027188Y1382080*
X1027188D02*
X1027328Y1381773D01*
Y1381670*
X1027188Y1381364*
X1027188D02*
X1026906Y1381159D01*
X1026484Y1381057*
X1028453Y1454000D02*
X1025500D01*
X1028453D02*
Y1454920D01*
X1028313Y1455227*
X1028172Y1455330*
X1027891Y1455432*
X1027609*
X1027328Y1455330*
X1027188Y1455227*
X1027047Y1454920*
Y1454000*
Y1454716D02*
X1025500Y1455432D01*
X1027750Y1456455D02*
X1027891D01*
X1028172Y1456557*
X1028313Y1456659*
X1028453Y1456864*
Y1457273*
X1028313Y1457477*
X1028172Y1457580*
X1027891Y1457682*
X1027609*
X1027328Y1457580*
X1026906Y1457375*
X1025500Y1456352*
Y1457784*
X1028453Y1460034D02*
Y1459011D01*
X1027188Y1458909*
X1027328Y1459011*
X1027469Y1459318*
Y1459625*
X1027328Y1459932*
X1027047Y1460136*
X1026625Y1460239*
X1026344Y1460136*
X1025922Y1460034*
X1025641Y1459830*
X1025500Y1459523*
Y1459216*
X1025641Y1458909*
X1025781Y1458807*
X1026063Y1458705*
X1027891Y1461159D02*
X1028031Y1461364D01*
X1028453Y1461670*
X1025500*
X1028953Y1427500D02*
X1026000D01*
X1028953D02*
Y1428420D01*
X1028813Y1428727*
X1028813D02*
X1028672Y1428830D01*
X1028391Y1428932*
X1028109*
X1027828Y1428830*
X1027688Y1428727*
X1027688D02*
X1027547Y1428420D01*
Y1427500*
Y1428216D02*
X1026000Y1428932D01*
X1028250Y1429955D02*
X1028391D01*
X1028672Y1430057*
X1028813Y1430159*
X1028813D02*
X1028953Y1430364D01*
Y1430773*
X1028813Y1430977*
X1028813D02*
X1028672Y1431080D01*
X1028391Y1431182*
X1028109*
X1027828Y1431080*
X1027406Y1430875*
X1026000Y1429852*
Y1431284*
X1028953Y1433534D02*
Y1432511D01*
X1027688Y1432409*
X1027688D02*
X1027828Y1432511D01*
X1027969Y1432818*
Y1433125*
X1027828Y1433432*
X1027547Y1433636*
X1027125Y1433739*
X1026844Y1433636*
X1026422Y1433534*
X1026141Y1433330*
X1026000Y1433023*
Y1432716*
X1026141Y1432409*
X1026281Y1432307*
X1026563Y1432205*
X1028250Y1434761D02*
X1028391D01*
X1028672Y1434864*
X1028813Y1434966*
X1028813D02*
X1028953Y1435170D01*
Y1435580*
X1028813Y1435784*
X1028813D02*
X1028672Y1435886D01*
X1028391Y1435989*
X1028109*
X1027828Y1435886*
X1027406Y1435682*
X1026000Y1434659*
Y1436091*
X1520750Y1075875D02*
Y1073250D01*
Y1075875D02*
X1519830D01*
X1519523Y1075750*
X1519420Y1075625*
X1519318Y1075375*
Y1075125*
X1519420Y1074875*
X1519523Y1074750*
X1519830Y1074625*
X1520750*
X1520034D02*
X1519318Y1073250D01*
X1518398Y1075375D02*
X1518193Y1075500D01*
X1517886Y1075875*
Y1073250*
X1515636Y1075875D02*
X1516659D01*
X1516761Y1074750*
X1516659Y1074875*
X1516352Y1075000*
X1516045*
X1515739Y1074875*
X1515534Y1074625*
X1515432Y1074250*
X1515534Y1074000*
X1515636Y1073625*
X1515841Y1073375*
X1516148Y1073250*
X1516455*
X1516761Y1073375*
X1516864Y1073500*
X1516966Y1073750*
X1520250Y1059375D02*
Y1056750D01*
Y1059375D02*
X1519330D01*
X1519023Y1059250*
X1518920Y1059125*
X1518818Y1058875*
Y1058625*
X1518920Y1058375*
X1519023Y1058250*
X1519330Y1058125*
X1520250*
X1519534D02*
X1518818Y1056750D01*
X1517898Y1058875D02*
X1517693Y1059000D01*
X1517386Y1059375*
Y1056750*
X1516466Y1058875D02*
X1516261Y1059000D01*
X1515955Y1059375*
Y1056750*
X1518453Y1205000D02*
X1515500D01*
X1518453D02*
Y1205920D01*
X1518313Y1206227*
X1518172Y1206330*
X1517891Y1206432*
X1517609*
X1517328Y1206330*
X1517188Y1206227*
X1517047Y1205920*
Y1205000*
Y1205716D02*
X1515500Y1206432D01*
X1518453Y1207557D02*
Y1208682D01*
X1517328Y1208068*
Y1208375*
X1517188Y1208580*
X1517047Y1208682*
X1516625Y1208784*
X1516344*
X1515922Y1208682*
X1515641Y1208477*
X1515500Y1208170*
Y1207864*
X1515641Y1207557*
X1515781Y1207455*
X1516063Y1207352*
X1517750Y1209807D02*
X1517891D01*
X1518172Y1209909*
X1518313Y1210011*
X1518453Y1210216*
Y1210625*
X1518313Y1210830*
X1518172Y1210932*
X1517891Y1211034*
X1517609*
X1517328Y1210932*
X1516906Y1210727*
X1515500Y1209705*
Y1211136*
X1518453Y1213489D02*
X1515500Y1212466D01*
X1518453Y1212057D02*
Y1213489D01*
X1508875Y1158250D02*
X1506250D01*
X1508875D02*
Y1159170D01*
X1508750Y1159477*
X1508625Y1159580*
X1508375Y1159682*
X1508125*
X1507875Y1159580*
X1507750Y1159477*
X1507625Y1159170*
Y1158250*
Y1158966D02*
X1506250Y1159682D01*
X1508250Y1160705D02*
X1508375D01*
X1508625Y1160807*
X1508750Y1160909*
X1508875Y1161114*
Y1161523*
X1508750Y1161727*
X1508625Y1161830*
X1508375Y1161932*
X1508125*
X1507875Y1161830*
X1507500Y1161625*
X1506250Y1160602*
Y1162034*
X1508375Y1162955D02*
X1508500Y1163159D01*
X1508875Y1163466*
X1506250*
X1508875Y1165409D02*
X1507125Y1164386D01*
Y1165920*
X1508875Y1165409D02*
X1506250D01*
X1515375Y1158750D02*
X1512750D01*
X1515375D02*
Y1159670D01*
X1515250Y1159977*
X1515125Y1160080*
X1514875Y1160182*
X1514625*
X1514375Y1160080*
X1514250Y1159977*
X1514125Y1159670*
Y1158750*
Y1159466D02*
X1512750Y1160182D01*
X1514750Y1161205D02*
X1514875D01*
X1515125Y1161307*
X1515250Y1161409*
X1515375Y1161614*
Y1162023*
X1515250Y1162227*
X1515125Y1162330*
X1514875Y1162432*
X1514625*
X1514375Y1162330*
X1514000Y1162125*
X1512750Y1161102*
Y1162534*
X1514875Y1163455D02*
X1515000Y1163659D01*
X1515375Y1163966*
X1512750*
X1515375Y1166216D02*
Y1165193D01*
X1514250Y1165091*
X1514375Y1165193*
X1514500Y1165500*
Y1165807*
X1514375Y1166114*
X1514125Y1166318*
X1513750Y1166420*
X1513500Y1166318*
X1513125Y1166216*
X1512875Y1166011*
X1512750Y1165705*
Y1165398*
X1512875Y1165091*
X1513000Y1164989*
X1513250Y1164886*
X1521375Y1162250D02*
X1518750D01*
X1521375D02*
Y1163170D01*
X1521250Y1163477*
X1521125Y1163580*
X1520875Y1163682*
X1520625*
X1520375Y1163580*
X1520250Y1163477*
X1520125Y1163170*
Y1162250*
Y1162966D02*
X1518750Y1163682D01*
X1520750Y1164705D02*
X1520875D01*
X1521125Y1164807*
X1521250Y1164909*
X1521375Y1165114*
Y1165523*
X1521250Y1165727*
X1521125Y1165830*
X1520875Y1165932*
X1520625*
X1520375Y1165830*
X1520000Y1165625*
X1518750Y1164602*
Y1166034*
X1520875Y1166955D02*
X1521000Y1167159D01*
X1521375Y1167466*
X1518750*
X1521000Y1169614D02*
X1521250Y1169511D01*
X1521375Y1169205*
Y1169000*
X1521250Y1168693*
X1520875Y1168489*
X1520250Y1168386*
X1519625*
X1519125Y1168489*
X1518875Y1168693*
X1518750Y1169000*
Y1169102*
X1518875Y1169409*
X1519125Y1169614*
X1519500Y1169716*
X1519625*
X1520000Y1169614*
X1520250Y1169409*
X1520375Y1169102*
Y1169000*
X1520250Y1168693*
X1520000Y1168489*
X1519625Y1168386*
X1532953Y1162000D02*
X1530000D01*
X1532953D02*
Y1162920D01*
X1532813Y1163227*
X1532813D02*
X1532672Y1163330D01*
X1532391Y1163432*
X1532109*
X1531828Y1163330*
X1531688Y1163227*
X1531688D02*
X1531547Y1162920D01*
Y1162000*
Y1162716D02*
X1530000Y1163432D01*
X1532250Y1164455D02*
X1532391D01*
X1532672Y1164557*
X1532813Y1164659*
X1532813D02*
X1532953Y1164864D01*
Y1165273*
X1532813Y1165477*
X1532813D02*
X1532672Y1165580D01*
X1532391Y1165682*
X1532109*
X1531828Y1165580*
X1531406Y1165375*
X1530000Y1164352*
Y1165784*
X1532953Y1167216D02*
X1532813Y1166909D01*
X1532813D02*
X1532531Y1166807D01*
X1532250*
X1531969Y1166909*
X1531828Y1167114*
X1531688Y1167523*
X1531688D02*
X1531547Y1167830D01*
X1531266Y1168034*
X1530984Y1168136*
X1530563*
X1530563D02*
X1530281Y1168034D01*
X1530141Y1167932*
X1530000Y1167625*
Y1167216*
X1530141Y1166909*
X1530281Y1166807*
X1530563Y1166705*
X1530563D02*
X1530984D01*
X1531266Y1166807*
X1531547Y1167011*
X1531688Y1167318*
X1531688D02*
X1531828Y1167727D01*
X1531969Y1167932*
X1532250Y1168034*
X1532531*
X1532813Y1167932*
X1532813D02*
X1532953Y1167625D01*
Y1167216*
Y1169261D02*
Y1170386D01*
X1531828Y1169773*
Y1170080*
X1531688Y1170284*
X1531688D02*
X1531547Y1170386D01*
X1531125Y1170489*
X1530844*
X1530422Y1170386*
X1530141Y1170182*
X1530000Y1169875*
Y1169568*
X1530141Y1169261*
X1530281Y1169159*
X1530563Y1169057*
X1526875Y1162750D02*
X1524250D01*
X1526875D02*
Y1163670D01*
X1526750Y1163977*
X1526625Y1164080*
X1526375Y1164182*
X1526125*
X1525875Y1164080*
X1525750Y1163977*
X1525625Y1163670*
Y1162750*
Y1163466D02*
X1524250Y1164182D01*
X1526875Y1165307D02*
Y1166432D01*
X1525875Y1165818*
Y1166125*
X1525750Y1166330*
X1525625Y1166432*
X1525250Y1166534*
X1525000*
X1524625Y1166432*
X1524375Y1166227*
X1524250Y1165920*
Y1165614*
X1524375Y1165307*
X1524500Y1165205*
X1524750Y1165102*
X1526375Y1167455D02*
X1526500Y1167659D01*
X1526875Y1167966*
X1524250*
X1526875Y1170216D02*
Y1169193D01*
X1525750Y1169091*
X1525875Y1169193*
X1526000Y1169500*
Y1169807*
X1525875Y1170114*
X1525625Y1170318*
X1525250Y1170420*
X1525000Y1170318*
X1524625Y1170216*
X1524375Y1170011*
X1524250Y1169705*
Y1169398*
X1524375Y1169091*
X1524500Y1168989*
X1524750Y1168886*
X1547500Y1196563D02*
X1544875D01*
X1547500D02*
Y1197483D01*
X1547375Y1197790*
X1547250Y1197892*
X1547000Y1197994*
X1546750*
X1546500Y1197892*
X1546375Y1197790*
X1546250Y1197483*
Y1196563*
Y1197278D02*
X1544875Y1197994D01*
X1547500Y1199119D02*
Y1200244D01*
X1546500Y1199631*
Y1199938*
X1546500D02*
X1546375Y1200142D01*
X1546250Y1200244*
X1545875Y1200347*
X1545625*
X1545250Y1200244*
X1545000Y1200040*
X1544875Y1199733*
Y1199426*
X1545000Y1199119*
X1545125Y1199017*
X1545375Y1198915*
X1547000Y1201267D02*
X1547125Y1201472D01*
X1547500Y1201778*
X1544875*
X1546625Y1204028D02*
X1546250Y1203926D01*
X1546000Y1203722*
X1545875Y1203415*
Y1203313*
X1545875D02*
X1546000Y1203006D01*
X1546250Y1202801*
X1546625Y1202699*
X1546750*
X1547125Y1202801*
X1547375Y1203006*
X1547500Y1203313*
X1547500D02*
Y1203415D01*
X1547375Y1203722*
X1547125Y1203926*
X1546625Y1204028*
X1546000*
X1545375Y1203926*
X1545000Y1203722*
X1544875Y1203415*
Y1203210*
X1545000Y1202903*
X1545250Y1202801*
X1536375Y1205750D02*
X1533750D01*
X1536375D02*
Y1206670D01*
X1536250Y1206977*
X1536125Y1207080*
X1535875Y1207182*
X1535625*
X1535375Y1207080*
X1535250Y1206977*
X1535125Y1206670*
Y1205750*
Y1206466D02*
X1533750Y1207182D01*
X1536375Y1208307D02*
Y1209432D01*
X1535375Y1208818*
Y1209125*
X1535250Y1209330*
X1535125Y1209432*
X1534750Y1209534*
X1534500*
X1534125Y1209432*
X1533875Y1209227*
X1533750Y1208920*
Y1208614*
X1533875Y1208307*
X1534000Y1208205*
X1534250Y1208102*
X1535750Y1210557D02*
X1535875D01*
X1536125Y1210659*
X1536250Y1210761*
X1536375Y1210966*
Y1211375*
X1536250Y1211580*
X1536125Y1211682*
X1535875Y1211784*
X1535625*
X1535375Y1211682*
X1535000Y1211477*
X1533750Y1210455*
Y1211886*
X1536375Y1213420D02*
X1536250Y1213114D01*
X1535875Y1212909*
X1535250Y1212807*
X1534875*
X1534250Y1212909*
X1533875Y1213114*
X1533750Y1213420*
Y1213625*
X1533875Y1213932*
X1534250Y1214136*
X1534875Y1214239*
X1535250*
X1535875Y1214136*
X1536250Y1213932*
X1536375Y1213625*
Y1213420*
X1512375Y1205250D02*
X1509750D01*
X1512375D02*
Y1206170D01*
X1512250Y1206477*
X1512125Y1206580*
X1511875Y1206682*
X1511625*
X1511375Y1206580*
X1511250Y1206477*
X1511125Y1206170*
Y1205250*
Y1205966D02*
X1509750Y1206682D01*
X1512375Y1207807D02*
Y1208932D01*
X1511375Y1208318*
Y1208625*
X1511250Y1208830*
X1511125Y1208932*
X1510750Y1209034*
X1510500*
X1510125Y1208932*
X1509875Y1208727*
X1509750Y1208420*
Y1208114*
X1509875Y1207807*
X1510000Y1207705*
X1510250Y1207602*
X1511750Y1210057D02*
X1511875D01*
X1512125Y1210159*
X1512250Y1210261*
X1512375Y1210466*
Y1210875*
X1512250Y1211080*
X1512125Y1211182*
X1511875Y1211284*
X1511625*
X1511375Y1211182*
X1511000Y1210977*
X1509750Y1209955*
Y1211386*
X1511500Y1213636D02*
X1511125Y1213534D01*
X1510875Y1213330*
X1510750Y1213023*
Y1212920*
X1510875Y1212614*
X1511125Y1212409*
X1511500Y1212307*
X1511625*
X1512000Y1212409*
X1512250Y1212614*
X1512375Y1212920*
Y1213023*
X1512250Y1213330*
X1512000Y1213534*
X1511500Y1213636*
X1510875*
X1510250Y1213534*
X1509875Y1213330*
X1509750Y1213023*
Y1212818*
X1509875Y1212511*
X1510125Y1212409*
X1500375Y1205250D02*
X1497750D01*
X1500375D02*
Y1206170D01*
X1500250Y1206477*
X1500125Y1206580*
X1499875Y1206682*
X1499625*
X1499375Y1206580*
X1499250Y1206477*
X1499125Y1206170*
Y1205250*
Y1205966D02*
X1497750Y1206682D01*
X1500375Y1207807D02*
Y1208932D01*
X1499375Y1208318*
Y1208625*
X1499250Y1208830*
X1499125Y1208932*
X1498750Y1209034*
X1498500*
X1498125Y1208932*
X1497875Y1208727*
X1497750Y1208420*
Y1208114*
X1497875Y1207807*
X1498000Y1207705*
X1498250Y1207602*
X1500375Y1210159D02*
Y1211284D01*
X1499375Y1210670*
Y1210977*
X1499250Y1211182*
X1499125Y1211284*
X1498750Y1211386*
X1498500*
X1498125Y1211284*
X1497875Y1211080*
X1497750Y1210773*
Y1210466*
X1497875Y1210159*
X1498000Y1210057*
X1498250Y1209955*
X1500375Y1212920D02*
X1500250Y1212614D01*
X1499875Y1212409*
X1499250Y1212307*
X1498875*
X1498250Y1212409*
X1497875Y1212614*
X1497750Y1212920*
Y1213125*
X1497875Y1213432*
X1498250Y1213636*
X1498875Y1213739*
X1499250*
X1499875Y1213636*
X1500250Y1213432*
X1500375Y1213125*
Y1212920*
X1506375Y1205250D02*
X1503750D01*
X1506375D02*
Y1206170D01*
X1506250Y1206477*
X1506125Y1206580*
X1505875Y1206682*
X1505625*
X1505375Y1206580*
X1505250Y1206477*
X1505125Y1206170*
Y1205250*
Y1205966D02*
X1503750Y1206682D01*
X1506375Y1207807D02*
Y1208932D01*
X1505375Y1208318*
Y1208625*
X1505250Y1208830*
X1505125Y1208932*
X1504750Y1209034*
X1504500*
X1504125Y1208932*
X1503875Y1208727*
X1503750Y1208420*
Y1208114*
X1503875Y1207807*
X1504000Y1207705*
X1504250Y1207602*
X1506375Y1210159D02*
Y1211284D01*
X1505375Y1210670*
Y1210977*
X1505250Y1211182*
X1505125Y1211284*
X1504750Y1211386*
X1504500*
X1504125Y1211284*
X1503875Y1211080*
X1503750Y1210773*
Y1210466*
X1503875Y1210159*
X1504000Y1210057*
X1504250Y1209955*
X1505875Y1212307D02*
X1506000Y1212511D01*
X1506375Y1212818*
X1503750*
X1530375Y1205750D02*
X1527750D01*
X1530375D02*
Y1206670D01*
X1530250Y1206977*
X1530125Y1207080*
X1529875Y1207182*
X1529625*
X1529375Y1207080*
X1529250Y1206977*
X1529125Y1206670*
Y1205750*
Y1206466D02*
X1527750Y1207182D01*
X1530375Y1208307D02*
Y1209432D01*
X1529375Y1208818*
Y1209125*
X1529250Y1209330*
X1529125Y1209432*
X1528750Y1209534*
X1528500*
X1528125Y1209432*
X1527875Y1209227*
X1527750Y1208920*
Y1208614*
X1527875Y1208307*
X1528000Y1208205*
X1528250Y1208102*
X1530375Y1210659D02*
Y1211784D01*
X1529375Y1211170*
Y1211477*
X1529250Y1211682*
X1529125Y1211784*
X1528750Y1211886*
X1528500*
X1528125Y1211784*
X1527875Y1211580*
X1527750Y1211273*
Y1210966*
X1527875Y1210659*
X1528000Y1210557*
X1528250Y1210455*
X1529750Y1212909D02*
X1529875D01*
X1530125Y1213011*
X1530250Y1213114*
X1530375Y1213318*
Y1213727*
X1530250Y1213932*
X1530125Y1214034*
X1529875Y1214136*
X1529625*
X1529375Y1214034*
X1529000Y1213830*
X1527750Y1212807*
Y1214239*
X1524375Y1205750D02*
X1521750D01*
X1524375D02*
Y1206670D01*
X1524250Y1206977*
X1524125Y1207080*
X1523875Y1207182*
X1523625*
X1523375Y1207080*
X1523250Y1206977*
X1523125Y1206670*
Y1205750*
Y1206466D02*
X1521750Y1207182D01*
X1524375Y1208307D02*
Y1209432D01*
X1523375Y1208818*
Y1209125*
X1523250Y1209330*
X1523125Y1209432*
X1522750Y1209534*
X1522500*
X1522125Y1209432*
X1521875Y1209227*
X1521750Y1208920*
Y1208614*
X1521875Y1208307*
X1522000Y1208205*
X1522250Y1208102*
X1524375Y1210659D02*
Y1211784D01*
X1523375Y1211170*
Y1211477*
X1523250Y1211682*
X1523125Y1211784*
X1522750Y1211886*
X1522500*
X1522125Y1211784*
X1521875Y1211580*
X1521750Y1211273*
Y1210966*
X1521875Y1210659*
X1522000Y1210557*
X1522250Y1210455*
X1524375Y1213011D02*
Y1214136D01*
X1523375Y1213523*
Y1213830*
X1523250Y1214034*
X1523125Y1214136*
X1522750Y1214239*
X1522500*
X1522125Y1214136*
X1521875Y1213932*
X1521750Y1213625*
Y1213318*
X1521875Y1213011*
X1522000Y1212909*
X1522250Y1212807*
X1524150Y1108324D02*
X1521525D01*
X1524150D02*
Y1109244D01*
X1524025Y1109551*
X1523900Y1109653*
X1523650Y1109756*
X1523400*
X1523150Y1109653*
X1523025Y1109551*
X1522900Y1109244*
Y1108324*
Y1109040D02*
X1521525Y1109756D01*
X1524150Y1110881D02*
Y1112006D01*
X1523150Y1111392*
Y1111699*
X1523025Y1111903*
X1522900Y1112006*
X1522525Y1112108*
X1522275*
X1521900Y1112006*
X1521650Y1111801*
X1521525Y1111494*
Y1111187*
X1521525D02*
X1521650Y1110881D01*
X1521775Y1110778*
X1522025Y1110676*
X1524150Y1114051D02*
X1522400Y1113028D01*
Y1114562*
X1524150Y1114051D02*
X1521525D01*
X1058453Y1343000D02*
X1055500D01*
X1058453D02*
Y1343920D01*
X1058313Y1344227*
X1058313D02*
X1058172Y1344330D01*
X1057891Y1344432*
X1057609*
X1057328Y1344330*
X1057188Y1344227*
X1057188D02*
X1057047Y1343920D01*
Y1343000*
Y1343716D02*
X1055500Y1344432D01*
X1057750Y1345455D02*
X1057891D01*
X1058172Y1345557*
X1058313Y1345659*
X1058313D02*
X1058453Y1345864D01*
Y1346273*
X1058313Y1346477*
X1058313D02*
X1058172Y1346580D01*
X1057891Y1346682*
X1057609*
X1057328Y1346580*
X1056906Y1346375*
X1055500Y1345352*
Y1346784*
X1058453Y1347909D02*
Y1349034D01*
X1057328Y1348420*
Y1348727*
X1057188Y1348932*
X1057188D02*
X1057047Y1349034D01*
X1056625Y1349136*
X1056344*
X1055922Y1349034*
X1055641Y1348830*
X1055500Y1348523*
Y1348216*
X1055641Y1347909*
X1055781Y1347807*
X1056063Y1347705*
X1058031Y1351284D02*
X1058313Y1351182D01*
X1058313D02*
X1058453Y1350875D01*
Y1350670*
X1058313Y1350364*
X1058313D02*
X1057891Y1350159D01*
X1057188Y1350057*
X1057188D02*
X1056484D01*
X1055922Y1350159*
X1055641Y1350364*
X1055500Y1350670*
Y1350773*
X1055641Y1351080*
X1055922Y1351284*
X1056344Y1351386*
X1056484*
X1056906Y1351284*
X1057188Y1351080*
X1057188D02*
X1057328Y1350773D01*
Y1350670*
X1057188Y1350364*
X1057188D02*
X1056906Y1350159D01*
X1056484Y1350057*
X1094753Y1301600D02*
X1091800D01*
X1094753D02*
Y1302520D01*
X1094613Y1302827*
X1094613D02*
X1094472Y1302930D01*
X1094191Y1303032*
X1093909*
X1093628Y1302930*
X1093488Y1302827*
X1093488D02*
X1093347Y1302520D01*
Y1301600*
Y1302316D02*
X1091800Y1303032D01*
X1094050Y1304055D02*
X1094191D01*
X1094472Y1304157*
X1094613Y1304259*
X1094613D02*
X1094753Y1304464D01*
Y1304873*
X1094613Y1305077*
X1094613D02*
X1094472Y1305180D01*
X1094191Y1305282*
X1093909*
X1093628Y1305180*
X1093206Y1304975*
X1091800Y1303952*
Y1305384*
X1094753Y1307634D02*
Y1306611D01*
X1093488Y1306509*
X1093488D02*
X1093628Y1306611D01*
X1093769Y1306918*
Y1307225*
X1093628Y1307532*
X1093347Y1307736*
X1092925Y1307839*
X1092644Y1307736*
X1092222Y1307634*
X1091941Y1307430*
X1091800Y1307123*
Y1306816*
X1091941Y1306509*
X1092081Y1306407*
X1092363Y1306305*
X1094753Y1309270D02*
X1094613Y1308964D01*
X1094613D02*
X1094331Y1308861D01*
X1094050*
X1093769Y1308964*
X1093628Y1309168*
X1093488Y1309577*
X1093488D02*
X1093347Y1309884D01*
X1093066Y1310089*
X1092784Y1310191*
X1092363*
X1092363D02*
X1092081Y1310089D01*
X1091941Y1309986*
X1091800Y1309680*
Y1309270*
X1091941Y1308964*
X1092081Y1308861*
X1092363Y1308759*
X1092363D02*
X1092784D01*
X1093066Y1308861*
X1093347Y1309066*
X1093488Y1309373*
X1093488D02*
X1093628Y1309782D01*
X1093769Y1309986*
X1094050Y1310089*
X1094331*
X1094613Y1309986*
X1094613D02*
X1094753Y1309680D01*
Y1309270*
X1094553Y1350600D02*
X1091600D01*
X1094553D02*
Y1351520D01*
X1094413Y1351827*
X1094272Y1351930*
X1093991Y1352032*
X1093709*
X1093428Y1351930*
X1093288Y1351827*
X1093147Y1351520*
Y1350600*
Y1351316D02*
X1091600Y1352032D01*
X1093850Y1353055D02*
X1093991D01*
X1094272Y1353157*
X1094413Y1353259*
X1094553Y1353464*
Y1353873*
X1094413Y1354077*
X1094272Y1354180*
X1093991Y1354282*
X1093709*
X1093428Y1354180*
X1093006Y1353975*
X1091600Y1352952*
Y1354384*
X1094131Y1356532D02*
X1094413Y1356430D01*
X1094553Y1356123*
Y1355918*
X1094413Y1355611*
X1093991Y1355407*
X1093288Y1355305*
X1092584*
X1092022Y1355407*
X1091741Y1355611*
X1091600Y1355918*
Y1356020*
X1091741Y1356327*
X1092022Y1356532*
X1092444Y1356634*
X1092584*
X1093006Y1356532*
X1093288Y1356327*
X1093428Y1356020*
Y1355918*
X1093288Y1355611*
X1093006Y1355407*
X1092584Y1355305*
X1094553Y1358168D02*
X1094413Y1357861D01*
X1093991Y1357657*
X1093288Y1357555*
X1092866*
X1092163Y1357657*
X1091741Y1357861*
X1091600Y1358168*
Y1358373*
X1091741Y1358680*
X1092163Y1358884*
X1092866Y1358986*
X1093288*
X1093991Y1358884*
X1094413Y1358680*
X1094553Y1358373*
Y1358168*
X1058953Y1456500D02*
X1056000D01*
X1058953D02*
Y1457420D01*
X1058813Y1457727*
X1058672Y1457830*
X1058391Y1457932*
X1058109*
X1057828Y1457830*
X1057688Y1457727*
X1057547Y1457420*
Y1456500*
Y1457216D02*
X1056000Y1457932D01*
X1058250Y1458955D02*
X1058391D01*
X1058672Y1459057*
X1058813Y1459159*
X1058953Y1459364*
Y1459773*
X1058813Y1459977*
X1058672Y1460080*
X1058391Y1460182*
X1058109*
X1057828Y1460080*
X1057406Y1459875*
X1056000Y1458852*
Y1460284*
X1058531Y1462432D02*
X1058813Y1462330D01*
X1058953Y1462023*
Y1461818*
X1058813Y1461511*
X1058391Y1461307*
X1057688Y1461205*
X1056984*
X1056422Y1461307*
X1056141Y1461511*
X1056000Y1461818*
Y1461920*
X1056141Y1462227*
X1056422Y1462432*
X1056844Y1462534*
X1056984*
X1057406Y1462432*
X1057688Y1462227*
X1057828Y1461920*
Y1461818*
X1057688Y1461511*
X1057406Y1461307*
X1056984Y1461205*
X1058953Y1464886D02*
X1056000Y1463864D01*
X1058953Y1463455D02*
Y1464886D01*
X1062500Y1440453D02*
Y1437500D01*
Y1440453D02*
X1061580D01*
X1061273Y1440313*
X1061273D02*
X1061170Y1440172D01*
X1061068Y1439891*
Y1439609*
X1061170Y1439328*
X1061273Y1439188*
X1061273D02*
X1061580Y1439047D01*
X1062500*
X1061784D02*
X1061068Y1437500D01*
X1060045Y1439750D02*
Y1439891D01*
X1059943Y1440172*
X1059841Y1440313*
X1059841D02*
X1059636Y1440453D01*
X1059227*
X1059023Y1440313*
X1059023D02*
X1058920Y1440172D01*
X1058818Y1439891*
Y1439609*
X1058920Y1439328*
X1059125Y1438906*
X1060148Y1437500*
X1058716*
X1056568Y1440031D02*
X1056670Y1440313D01*
X1056670D02*
X1056977Y1440453D01*
X1057182*
X1057489Y1440313*
X1057489D02*
X1057693Y1439891D01*
X1057795Y1439188*
X1057795D02*
Y1438484D01*
X1057693Y1437922*
X1057489Y1437641*
X1057182Y1437500*
X1057080*
X1056773Y1437641*
X1056568Y1437922*
X1056466Y1438344*
Y1438484*
X1056568Y1438906*
X1056773Y1439188*
X1056773D02*
X1057080Y1439328D01*
X1057182*
X1057489Y1439188*
X1057489D02*
X1057693Y1438906D01*
X1057795Y1438484*
X1055034Y1440453D02*
X1055341Y1440313D01*
X1055341D02*
X1055443Y1440031D01*
Y1439750*
X1055341Y1439469*
X1055136Y1439328*
X1054727Y1439188*
X1054727D02*
X1054420Y1439047D01*
X1054216Y1438766*
X1054114Y1438484*
Y1438063*
X1054114D02*
X1054216Y1437781D01*
X1054318Y1437641*
X1054625Y1437500*
X1055034*
X1055341Y1437641*
X1055443Y1437781*
X1055545Y1438063*
X1055545D02*
Y1438484D01*
X1055443Y1438766*
X1055239Y1439047*
X1054932Y1439188*
X1054932D02*
X1054523Y1439328D01*
X1054318Y1439469*
X1054216Y1439750*
Y1440031*
X1054318Y1440313*
X1054318D02*
X1054625Y1440453D01*
X1055034*
X1062000Y1404453D02*
Y1401500D01*
Y1404453D02*
X1061080D01*
X1060773Y1404313*
X1060773D02*
X1060670Y1404172D01*
X1060568Y1403891*
Y1403609*
X1060670Y1403328*
X1060773Y1403188*
X1060773D02*
X1061080Y1403047D01*
X1062000*
X1061284D02*
X1060568Y1401500D01*
X1059545Y1403750D02*
Y1403891D01*
X1059443Y1404172*
X1059341Y1404313*
X1059341D02*
X1059136Y1404453D01*
X1058727*
X1058523Y1404313*
X1058523D02*
X1058420Y1404172D01*
X1058318Y1403891*
Y1403609*
X1058420Y1403328*
X1058625Y1402906*
X1059648Y1401500*
X1058216*
X1056068Y1404031D02*
X1056170Y1404313D01*
X1056170D02*
X1056477Y1404453D01*
X1056682*
X1056989Y1404313*
X1056989D02*
X1057193Y1403891D01*
X1057295Y1403188*
X1057295D02*
Y1402484D01*
X1057193Y1401922*
X1056989Y1401641*
X1056682Y1401500*
X1056580*
X1056273Y1401641*
X1056068Y1401922*
X1055966Y1402344*
Y1402484*
X1056068Y1402906*
X1056273Y1403188*
X1056273D02*
X1056580Y1403328D01*
X1056682*
X1056989Y1403188*
X1056989D02*
X1057193Y1402906D01*
X1057295Y1402484*
X1053716Y1403469D02*
X1053818Y1403047D01*
X1054023Y1402766*
X1054330Y1402625*
X1054432*
X1054739Y1402766*
X1054943Y1403047*
X1055045Y1403469*
Y1403609*
X1054943Y1404031*
X1054739Y1404313*
X1054739D02*
X1054432Y1404453D01*
X1054330*
X1054023Y1404313*
X1054023D02*
X1053818Y1404031D01*
X1053716Y1403469*
Y1402766*
X1053818Y1402063*
X1053818D02*
X1054023Y1401641D01*
X1054330Y1401500*
X1054534*
X1054841Y1401641*
X1054943Y1401922*
X1058453Y1386000D02*
X1055500D01*
X1058453D02*
Y1386920D01*
X1058313Y1387227*
X1058172Y1387330*
X1057891Y1387432*
X1057609*
X1057328Y1387330*
X1057188Y1387227*
X1057047Y1386920*
Y1386000*
Y1386716D02*
X1055500Y1387432D01*
X1058453Y1389375D02*
X1056484Y1388352D01*
Y1389886*
X1058453Y1389375D02*
X1055500D01*
X1057891Y1390807D02*
X1058031Y1391011D01*
X1058453Y1391318*
X1055500*
X1057750Y1392341D02*
X1057891D01*
X1058172Y1392443*
X1058313Y1392545*
X1058453Y1392750*
Y1393159*
X1058313Y1393364*
X1058172Y1393466*
X1057891Y1393568*
X1057609*
X1057328Y1393466*
X1056906Y1393261*
X1055500Y1392239*
Y1393670*
X1569216Y1278250D02*
X1569318Y1278500D01*
X1569523Y1278750*
X1569727Y1278875*
X1570136*
X1570341Y1278750*
X1570545Y1278500*
X1570648Y1278250*
X1570750Y1277875*
Y1277250*
X1570648Y1276875*
X1570545Y1276625*
X1570341Y1276375*
X1570136Y1276250*
X1569727*
X1569523Y1276375*
X1569318Y1276625*
X1569216Y1276875*
X1568295Y1278375D02*
X1568091Y1278500D01*
X1567784Y1278875*
Y1276250*
X1565432Y1278875D02*
X1566455Y1276250D01*
X1566864Y1278875D02*
X1565432D01*
X1588750Y1275784D02*
X1589000Y1275682D01*
X1589250Y1275477*
X1589375Y1275273*
Y1274864*
X1589250Y1274659*
X1589000Y1274455*
X1588750Y1274352*
X1588375Y1274250*
X1587750*
X1587375Y1274352*
X1587125Y1274455*
X1586875Y1274659*
X1586750Y1274864*
Y1275273*
X1586875Y1275477*
X1587125Y1275682*
X1587375Y1275784*
X1588750Y1276807D02*
X1588875D01*
X1589125Y1276909*
X1589250Y1277011*
X1589375Y1277216*
Y1277625*
X1589250Y1277830*
X1589125Y1277932*
X1588875Y1278034*
X1588625*
X1588375Y1277932*
X1588000Y1277727*
X1586750Y1276705*
Y1278136*
X1589375Y1279261D02*
Y1280386D01*
X1588375Y1279773*
Y1280080*
X1588250Y1280284*
X1588125Y1280386*
X1587750Y1280489*
X1587500*
X1587125Y1280386*
X1586875Y1280182*
X1586750Y1279875*
Y1279568*
X1586875Y1279261*
X1587000Y1279159*
X1587250Y1279057*
X1589375Y1281920D02*
X1589250Y1281614D01*
X1589000Y1281511*
X1588750*
X1588500Y1281614*
X1588375Y1281818*
X1588250Y1282227*
X1588125Y1282534*
X1587875Y1282739*
X1587625Y1282841*
X1587250*
X1587000Y1282739*
X1586875Y1282636*
X1586750Y1282330*
Y1281920*
X1586875Y1281614*
X1587000Y1281511*
X1587250Y1281409*
X1587625*
X1587875Y1281511*
X1588125Y1281716*
X1588250Y1282023*
X1588375Y1282432*
X1588500Y1282636*
X1588750Y1282739*
X1589000*
X1589250Y1282636*
X1589375Y1282330*
Y1281920*
X1521466Y1231250D02*
X1521568Y1231531D01*
X1521773Y1231813*
X1521773D02*
X1521977Y1231953D01*
X1522386*
X1522591Y1231813*
X1522591D02*
X1522795Y1231531D01*
X1522898Y1231250*
X1523000Y1230828*
Y1230125*
X1522898Y1229703*
X1522795Y1229422*
X1522591Y1229141*
X1522386Y1229000*
X1521977*
X1521773Y1229141*
X1521568Y1229422*
X1521466Y1229703*
X1520545Y1231391D02*
X1520341Y1231531D01*
X1520034Y1231953*
Y1229000*
X1519011Y1231250D02*
Y1231391D01*
X1518909Y1231672*
X1518807Y1231813*
X1518807D02*
X1518602Y1231953D01*
X1518193*
X1517989Y1231813*
X1517989D02*
X1517886Y1231672D01*
X1517784Y1231391*
Y1231109*
X1517886Y1230828*
X1518091Y1230406*
X1519114Y1229000*
X1517682*
X1511566Y1298550D02*
X1511668Y1298831D01*
X1511873Y1299113*
X1511873D02*
X1512077Y1299253D01*
X1512486*
X1512691Y1299113*
X1512691D02*
X1512895Y1298831D01*
X1512998Y1298550*
X1513100Y1298128*
Y1297425*
X1512998Y1297003*
X1512895Y1296722*
X1512691Y1296441*
X1512486Y1296300*
X1512077*
X1511873Y1296441*
X1511668Y1296722*
X1511566Y1297003*
X1510645Y1298691D02*
X1510441Y1298831D01*
X1510134Y1299253*
Y1296300*
X1507884Y1298269D02*
X1507986Y1297847D01*
X1508191Y1297566*
X1508498Y1297425*
X1508600*
X1508907Y1297566*
X1509111Y1297847*
X1509214Y1298269*
Y1298409*
X1509111Y1298831*
X1508907Y1299113*
X1508907D02*
X1508600Y1299253D01*
X1508498*
X1508191Y1299113*
X1508191D02*
X1507986Y1298831D01*
X1507884Y1298269*
Y1297566*
X1507986Y1296863*
X1507986D02*
X1508191Y1296441D01*
X1508498Y1296300*
X1508702*
X1509009Y1296441*
X1509111Y1296722*
X1153816Y1149050D02*
X1153918Y1149331D01*
X1154123Y1149613*
X1154123D02*
X1154327Y1149753D01*
X1154736*
X1154941Y1149613*
X1154941D02*
X1155145Y1149331D01*
X1155248Y1149050*
X1155350Y1148628*
Y1147925*
X1155248Y1147503*
X1155145Y1147222*
X1154941Y1146941*
X1154736Y1146800*
X1154327*
X1154123Y1146941*
X1153918Y1147222*
X1153816Y1147503*
X1152793Y1149050D02*
Y1149191D01*
X1152691Y1149472*
X1152589Y1149613*
X1152589D02*
X1152384Y1149753D01*
X1151975*
X1151770Y1149613*
X1151770D02*
X1151668Y1149472D01*
X1151566Y1149191*
Y1148909*
X1151668Y1148628*
X1151873Y1148206*
X1152895Y1146800*
X1151464*
X1151966Y1086750D02*
X1152068Y1087031D01*
X1152273Y1087313*
X1152273D02*
X1152477Y1087453D01*
X1152886*
X1153091Y1087313*
X1153091D02*
X1153295Y1087031D01*
X1153398Y1086750*
X1153500Y1086328*
Y1085625*
X1153398Y1085203*
X1153295Y1084922*
X1153091Y1084641*
X1152886Y1084500*
X1152477*
X1152273Y1084641*
X1152068Y1084922*
X1151966Y1085203*
X1150943Y1086750D02*
Y1086891D01*
X1150841Y1087172*
X1150739Y1087313*
X1150739D02*
X1150534Y1087453D01*
X1150125*
X1149920Y1087313*
X1149920D02*
X1149818Y1087172D01*
X1149716Y1086891*
Y1086609*
X1149818Y1086328*
X1150023Y1085906*
X1151045Y1084500*
X1149614*
X1147364Y1086469D02*
X1147466Y1086047D01*
X1147670Y1085766*
X1147977Y1085625*
X1148080*
X1148386Y1085766*
X1148591Y1086047*
X1148693Y1086469*
Y1086609*
X1148591Y1087031*
X1148386Y1087313*
X1148386D02*
X1148080Y1087453D01*
X1147977*
X1147670Y1087313*
X1147670D02*
X1147466Y1087031D01*
X1147364Y1086469*
Y1085766*
X1147466Y1085063*
X1147466D02*
X1147670Y1084641D01*
X1147977Y1084500*
X1148182*
X1148489Y1084641*
X1148591Y1084922*
X1186966Y1121750D02*
X1187068Y1122031D01*
X1187273Y1122313*
X1187273D02*
X1187477Y1122453D01*
X1187886*
X1188091Y1122313*
X1188091D02*
X1188295Y1122031D01*
X1188398Y1121750*
X1188500Y1121328*
Y1120625*
X1188398Y1120203*
X1188295Y1119922*
X1188091Y1119641*
X1187886Y1119500*
X1187477*
X1187273Y1119641*
X1187068Y1119922*
X1186966Y1120203*
X1185841Y1122453D02*
X1184716D01*
X1185330Y1121328*
X1185023*
X1184818Y1121188*
X1184818D02*
X1184716Y1121047D01*
X1184614Y1120625*
Y1120344*
X1184716Y1119922*
X1184920Y1119641*
X1185227Y1119500*
X1185534*
X1185841Y1119641*
X1185943Y1119781*
X1186045Y1120063*
X1195966Y1153250D02*
X1196068Y1153531D01*
X1196273Y1153813*
X1196273D02*
X1196477Y1153953D01*
X1196886*
X1197091Y1153813*
X1197091D02*
X1197295Y1153531D01*
X1197398Y1153250*
X1197500Y1152828*
Y1152125*
X1197398Y1151703*
X1197295Y1151422*
X1197091Y1151141*
X1196886Y1151000*
X1196477*
X1196273Y1151141*
X1196068Y1151422*
X1195966Y1151703*
X1194023Y1153953D02*
X1195045Y1151984D01*
X1193511*
X1194023Y1153953D02*
Y1151000D01*
X1134966Y1085750D02*
X1135068Y1086031D01*
X1135273Y1086312*
X1135273D02*
X1135477Y1086453D01*
X1135886*
X1136091Y1086312*
X1136091D02*
X1136295Y1086031D01*
X1136398Y1085750*
X1136500Y1085328*
Y1084625*
X1136398Y1084203*
X1136295Y1083922*
X1136091Y1083641*
X1135886Y1083500*
X1135477*
X1135273Y1083641*
X1135068Y1083922*
X1134966Y1084203*
X1133023Y1086453D02*
X1134045Y1084484D01*
X1132511*
X1133023Y1086453D02*
Y1083500D01*
X1131591Y1085891D02*
X1131386Y1086031D01*
X1131080Y1086453*
Y1083500*
X1167466Y1086250D02*
X1167568Y1086531D01*
X1167773Y1086813*
X1167773D02*
X1167977Y1086953D01*
X1168386*
X1168591Y1086813*
X1168591D02*
X1168795Y1086531D01*
X1168898Y1086250*
X1169000Y1085828*
Y1085125*
X1168898Y1084703*
X1168795Y1084422*
X1168591Y1084141*
X1168386Y1084000*
X1167977*
X1167773Y1084141*
X1167568Y1084422*
X1167466Y1084703*
X1165523Y1086953D02*
X1166545Y1084984D01*
X1165011*
X1165523Y1086953D02*
Y1084000D01*
X1163886Y1086953D02*
X1162761D01*
X1163375Y1085828*
X1163068*
X1162864Y1085688*
X1162864D02*
X1162761Y1085547D01*
X1162659Y1085125*
Y1084844*
X1162761Y1084422*
X1162966Y1084141*
X1163273Y1084000*
X1163580*
X1163886Y1084141*
X1163989Y1084281*
X1164091Y1084563*
X1121932Y1295425D02*
X1122034Y1295706D01*
X1122238Y1295988*
X1122238D02*
X1122443Y1296128D01*
X1122852*
X1123057Y1295988*
X1123057D02*
X1123261Y1295706D01*
X1123363Y1295425*
X1123466Y1295003*
Y1294300*
X1123363Y1293878*
X1123261Y1293597*
X1123057Y1293316*
X1122852Y1293175*
X1122443*
X1122238Y1293316*
X1122034Y1293597*
X1121932Y1293878*
X1119988Y1296128D02*
X1121011Y1294159D01*
X1119477*
X1119988Y1296128D02*
Y1293175D01*
X1117125Y1296128D02*
X1118147Y1293175D01*
X1118557Y1296128D02*
X1117125D01*
X1061750Y1225034D02*
X1062031Y1224932D01*
X1062313Y1224727*
X1062313D02*
X1062453Y1224523D01*
Y1224114*
X1062313Y1223909*
X1062313D02*
X1062031Y1223705D01*
X1061750Y1223602*
X1061328Y1223500*
X1060625*
X1060203Y1223602*
X1059922Y1223705*
X1059641Y1223909*
X1059500Y1224114*
Y1224523*
X1059641Y1224727*
X1059922Y1224932*
X1060203Y1225034*
X1062453Y1226977D02*
X1060484Y1225955D01*
Y1227489*
X1062453Y1226977D02*
X1059500D01*
X1062453Y1228920D02*
X1062313Y1228614D01*
X1062313D02*
X1062031Y1228511D01*
X1061750*
X1061469Y1228614*
X1061328Y1228818*
X1061188Y1229227*
X1061188D02*
X1061047Y1229534D01*
X1060766Y1229739*
X1060484Y1229841*
X1060063*
X1060063D02*
X1059781Y1229739D01*
X1059641Y1229636*
X1059500Y1229330*
Y1228920*
X1059641Y1228614*
X1059781Y1228511*
X1060063Y1228409*
X1060063D02*
X1060484D01*
X1060766Y1228511*
X1061047Y1228716*
X1061188Y1229023*
X1061188D02*
X1061328Y1229432D01*
X1061469Y1229636*
X1061750Y1229739*
X1062031*
X1062313Y1229636*
X1062313D02*
X1062453Y1229330D01*
Y1228920*
X1166965Y1168884D02*
X1167067Y1169166D01*
X1167272Y1169447*
X1167476Y1169588*
X1167476D02*
X1167885D01*
X1167885D02*
X1168090Y1169447D01*
X1168294Y1169166*
X1168397Y1168884*
X1168499Y1168463*
X1168499D02*
Y1167759D01*
X1168397Y1167338*
X1168397D02*
X1168294Y1167056D01*
X1168090Y1166775*
X1167885Y1166634*
X1167476*
X1167272Y1166775*
X1167067Y1167056*
X1166965Y1167338*
X1164715Y1169588D02*
X1165737D01*
X1165737D02*
X1165840Y1168322D01*
X1165737Y1168463*
X1165737D02*
X1165431Y1168603D01*
X1165124*
X1164817Y1168463*
X1164817D02*
X1164612Y1168181D01*
X1164612D02*
X1164510Y1167759D01*
X1164612Y1167478*
X1164612D02*
X1164715Y1167056D01*
X1164919Y1166775*
X1165226Y1166634*
X1165533*
X1165840Y1166775*
X1165942Y1166916*
X1166044Y1167197*
X1139466Y1103250D02*
X1139568Y1103531D01*
X1139773Y1103813*
X1139773D02*
X1139977Y1103953D01*
X1140386*
X1140591Y1103813*
X1140591D02*
X1140795Y1103531D01*
X1140898Y1103250*
X1141000Y1102828*
Y1102125*
X1140898Y1101703*
X1140795Y1101422*
X1140591Y1101141*
X1140386Y1101000*
X1139977*
X1139773Y1101141*
X1139568Y1101422*
X1139466Y1101703*
X1137216Y1103953D02*
X1138239D01*
X1138341Y1102688*
X1138341D02*
X1138239Y1102828D01*
X1137932Y1102969*
X1137625*
X1137318Y1102828*
X1137114Y1102547*
X1137011Y1102125*
X1137114Y1101844*
X1137216Y1101422*
X1137420Y1101141*
X1137727Y1101000*
X1138034*
X1138341Y1101141*
X1138443Y1101281*
X1138545Y1101563*
X1136091Y1103391D02*
X1135886Y1103531D01*
X1135580Y1103953*
Y1101000*
X1131750Y1182034D02*
X1132031Y1181932D01*
X1132313Y1181727*
X1132453Y1181523*
Y1181114*
X1132313Y1180909*
X1132031Y1180705*
X1131750Y1180602*
X1131328Y1180500*
X1130625*
X1130203Y1180602*
X1129922Y1180705*
X1129641Y1180909*
X1129500Y1181114*
Y1181523*
X1129641Y1181727*
X1129922Y1181932*
X1130203Y1182034*
X1132453Y1184284D02*
Y1183261D01*
X1131188Y1183159*
X1131328Y1183261*
X1131469Y1183568*
Y1183875*
X1131328Y1184182*
X1131047Y1184386*
X1130625Y1184489*
X1130344Y1184386*
X1129922Y1184284*
X1129641Y1184080*
X1129500Y1183773*
Y1183466*
X1129641Y1183159*
X1129781Y1183057*
X1130063Y1182955*
X1131750Y1185511D02*
X1131891D01*
X1132172Y1185614*
X1132313Y1185716*
X1132453Y1185920*
Y1186330*
X1132313Y1186534*
X1132172Y1186636*
X1131891Y1186739*
X1131609*
X1131328Y1186636*
X1130906Y1186432*
X1129500Y1185409*
Y1186841*
X1184966Y1152750D02*
X1185068Y1153031D01*
X1185273Y1153313*
X1185273D02*
X1185477Y1153453D01*
X1185886*
X1186091Y1153313*
X1186091D02*
X1186295Y1153031D01*
X1186398Y1152750*
X1186500Y1152328*
Y1151625*
X1186398Y1151203*
X1186295Y1150922*
X1186091Y1150641*
X1185886Y1150500*
X1185477*
X1185273Y1150641*
X1185068Y1150922*
X1184966Y1151203*
X1182818Y1153031D02*
X1182920Y1153313D01*
X1182920D02*
X1183227Y1153453D01*
X1183432*
X1183739Y1153313*
X1183739D02*
X1183943Y1152891D01*
X1184045Y1152188*
X1184045D02*
Y1151484D01*
X1183943Y1150922*
X1183739Y1150641*
X1183432Y1150500*
X1183330*
X1183023Y1150641*
X1182818Y1150922*
X1182716Y1151344*
Y1151484*
X1182818Y1151906*
X1183023Y1152188*
X1183023D02*
X1183330Y1152328D01*
X1183432*
X1183739Y1152188*
X1183739D02*
X1183943Y1151906D01*
X1184045Y1151484*
X1061750Y1134534D02*
X1062031Y1134432D01*
X1062313Y1134227*
X1062313D02*
X1062453Y1134023D01*
Y1133614*
X1062313Y1133409*
X1062313D02*
X1062031Y1133205D01*
X1061750Y1133102*
X1061328Y1133000*
X1060625*
X1060203Y1133102*
X1059922Y1133205*
X1059641Y1133409*
X1059500Y1133614*
Y1134023*
X1059641Y1134227*
X1059922Y1134432*
X1060203Y1134534*
X1062031Y1136682D02*
X1062313Y1136580D01*
X1062313D02*
X1062453Y1136273D01*
Y1136068*
X1062313Y1135761*
X1062313D02*
X1061891Y1135557D01*
X1061188Y1135455*
X1061188D02*
X1060484D01*
X1059922Y1135557*
X1059641Y1135761*
X1059500Y1136068*
Y1136170*
X1059641Y1136477*
X1059922Y1136682*
X1060344Y1136784*
X1060484*
X1060906Y1136682*
X1061188Y1136477*
X1061188D02*
X1061328Y1136170D01*
Y1136068*
X1061188Y1135761*
X1061188D02*
X1060906Y1135557D01*
X1060484Y1135455*
X1062453Y1138318D02*
X1062313Y1138011D01*
X1062313D02*
X1061891Y1137807D01*
X1061188Y1137705*
X1061188D02*
X1060766D01*
X1060063Y1137807*
X1060063D02*
X1059641Y1138011D01*
X1059500Y1138318*
Y1138523*
X1059641Y1138830*
X1060063Y1139034*
X1060063D02*
X1060766Y1139136D01*
X1061188*
X1061188D02*
X1061891Y1139034D01*
X1062313Y1138830*
X1062313D02*
X1062453Y1138523D01*
Y1138318*
X1178298Y1165068D02*
X1178579Y1164966D01*
X1178860Y1164762*
X1179001Y1164557*
Y1164148*
X1178860Y1163943*
X1178579Y1163739*
X1178298Y1163637*
X1177876Y1163534*
X1177173*
X1176751Y1163637*
X1176470Y1163739*
X1176188Y1163943*
X1176048Y1164148*
Y1164557*
X1176188Y1164762*
X1176470Y1164966*
X1176751Y1165068*
X1179001Y1167421D02*
X1176048Y1166398D01*
X1179001Y1165989D02*
Y1167421D01*
X1171984Y1136386D02*
X1172266Y1136284D01*
X1172547Y1136080*
X1172688Y1135875*
X1172688D02*
Y1135466D01*
X1172688D02*
X1172547Y1135261D01*
X1172266Y1135057*
X1171984Y1134955*
X1171563Y1134852*
X1171563D02*
X1170859D01*
X1170438Y1134955*
X1170438D02*
X1170156Y1135057D01*
X1169875Y1135261*
X1169734Y1135466*
Y1135875*
X1169875Y1136080*
X1170156Y1136284*
X1170438Y1136386*
X1172688Y1137818D02*
X1172547Y1137511D01*
X1172266Y1137409*
X1171984*
X1171703Y1137511*
X1171563Y1137716*
X1171563D02*
X1171422Y1138125D01*
X1171281Y1138432*
X1171000Y1138636*
X1170719Y1138739*
X1170297*
X1170016Y1138636*
X1169875Y1138534*
X1169734Y1138227*
Y1137818*
X1169875Y1137511*
X1170016Y1137409*
X1170297Y1137307*
X1170719*
X1171000Y1137409*
X1171281Y1137614*
X1171422Y1137920*
X1171563Y1138330*
X1171563D02*
X1171703Y1138534D01*
X1171984Y1138636*
X1172266*
X1172547Y1138534*
X1172688Y1138227*
X1172688D02*
Y1137818D01*
X1193966Y1192250D02*
X1194068Y1192531D01*
X1194273Y1192813*
X1194477Y1192953*
X1194886*
X1195091Y1192813*
X1195295Y1192531*
X1195398Y1192250*
X1195500Y1191828*
Y1191125*
X1195398Y1190703*
X1195295Y1190422*
X1195091Y1190141*
X1194886Y1190000*
X1194477*
X1194273Y1190141*
X1194068Y1190422*
X1193966Y1190703*
X1192534Y1192953D02*
X1192841Y1192813D01*
X1192943Y1192531*
Y1192250*
X1192841Y1191969*
X1192636Y1191828*
X1192227Y1191688*
X1191920Y1191547*
X1191716Y1191266*
X1191614Y1190984*
Y1190563*
X1191716Y1190281*
X1191818Y1190141*
X1192125Y1190000*
X1192534*
X1192841Y1190141*
X1192943Y1190281*
X1193045Y1190563*
Y1190984*
X1192943Y1191266*
X1192739Y1191547*
X1192432Y1191688*
X1192023Y1191828*
X1191818Y1191969*
X1191716Y1192250*
Y1192531*
X1191818Y1192813*
X1192125Y1192953*
X1192534*
X1190693Y1192391D02*
X1190489Y1192531D01*
X1190182Y1192953*
Y1190000*
X1131750Y1130034D02*
X1132031Y1129932D01*
X1132313Y1129727*
X1132453Y1129523*
Y1129114*
X1132313Y1128909*
X1132031Y1128705*
X1131750Y1128602*
X1131328Y1128500*
X1130625*
X1130203Y1128602*
X1129922Y1128705*
X1129641Y1128909*
X1129500Y1129114*
Y1129523*
X1129641Y1129727*
X1129922Y1129932*
X1130203Y1130034*
X1132453Y1131466D02*
X1132313Y1131159D01*
X1132031Y1131057*
X1131750*
X1131469Y1131159*
X1131328Y1131364*
X1131188Y1131773*
X1131047Y1132080*
X1130766Y1132284*
X1130484Y1132386*
X1130063*
X1129781Y1132284*
X1129641Y1132182*
X1129500Y1131875*
Y1131466*
X1129641Y1131159*
X1129781Y1131057*
X1130063Y1130955*
X1130484*
X1130766Y1131057*
X1131047Y1131261*
X1131188Y1131568*
X1131328Y1131977*
X1131469Y1132182*
X1131750Y1132284*
X1132031*
X1132313Y1132182*
X1132453Y1131875*
Y1131466*
X1131750Y1133409D02*
X1131891D01*
X1132172Y1133511*
X1132313Y1133614*
X1132453Y1133818*
Y1134227*
X1132313Y1134432*
X1132172Y1134534*
X1131891Y1134636*
X1131609*
X1131328Y1134534*
X1130906Y1134330*
X1129500Y1133307*
Y1134739*
X1244538Y1180184D02*
X1244435Y1179903D01*
X1244231Y1179622*
X1244026Y1179481*
X1243617*
X1243413Y1179622*
X1243208Y1179903*
X1243106Y1180184*
X1243003Y1180606*
Y1181309*
X1243106Y1181731*
X1243208Y1182013*
X1243208D02*
X1243413Y1182294D01*
X1243617Y1182434*
X1244026*
X1244231Y1182294*
X1244435Y1182013*
X1244435D02*
X1244538Y1181731D01*
X1245458Y1180044D02*
X1245663Y1179903D01*
X1245969Y1179481*
Y1182434*
X1246890Y1180044D02*
X1247094Y1179903D01*
X1247401Y1179481*
Y1182434*
X1169966Y1153250D02*
X1170068Y1153531D01*
X1170273Y1153812*
X1170273D02*
X1170477Y1153953D01*
X1170886*
X1171091Y1153812*
X1171091D02*
X1171295Y1153531D01*
X1171398Y1153250*
X1171500Y1152828*
Y1152125*
X1171398Y1151703*
X1171295Y1151422*
X1171091Y1151141*
X1170886Y1151000*
X1170477*
X1170273Y1151141*
X1170068Y1151422*
X1169966Y1151703*
X1168534Y1153953D02*
X1168841Y1153812D01*
X1168841D02*
X1168943Y1153531D01*
Y1153250*
X1168841Y1152969*
X1168636Y1152828*
X1168227Y1152687*
X1168227D02*
X1167920Y1152547D01*
X1167716Y1152266*
X1167614Y1151984*
Y1151562*
X1167614D02*
X1167716Y1151281D01*
X1167818Y1151141*
X1168125Y1151000*
X1168534*
X1168841Y1151141*
X1168943Y1151281*
X1169045Y1151562*
X1169045D02*
Y1151984D01*
X1168943Y1152266*
X1168739Y1152547*
X1168432Y1152687*
X1168432D02*
X1168023Y1152828D01*
X1167818Y1152969*
X1167716Y1153250*
Y1153531*
X1167818Y1153812*
X1167818D02*
X1168125Y1153953D01*
X1168534*
X1165466Y1153531D02*
X1165568Y1153812D01*
X1165568D02*
X1165875Y1153953D01*
X1166080*
X1166386Y1153812*
X1166386D02*
X1166591Y1153391D01*
X1166693Y1152687*
X1166693D02*
Y1151984D01*
X1166591Y1151422*
X1166386Y1151141*
X1166080Y1151000*
X1165977*
X1165670Y1151141*
X1165466Y1151422*
X1165364Y1151844*
Y1151984*
X1165466Y1152406*
X1165670Y1152687*
X1165670D02*
X1165977Y1152828D01*
X1166080*
X1166386Y1152687*
X1166386D02*
X1166591Y1152406D01*
X1166693Y1151984*
X1198750Y1133534D02*
X1199031Y1133432D01*
X1199312Y1133227*
X1199312D02*
X1199453Y1133023D01*
Y1132614*
X1199312Y1132409*
X1199312D02*
X1199031Y1132205D01*
X1198750Y1132102*
X1198328Y1132000*
X1197625*
X1197203Y1132102*
X1196922Y1132205*
X1196641Y1132409*
X1196500Y1132614*
Y1133023*
X1196641Y1133227*
X1196922Y1133432*
X1197203Y1133534*
X1199453Y1134966D02*
X1199312Y1134659D01*
X1199312D02*
X1199031Y1134557D01*
X1198750*
X1198469Y1134659*
X1198328Y1134864*
X1198187Y1135273*
X1198187D02*
X1198047Y1135580D01*
X1197766Y1135784*
X1197484Y1135886*
X1197062*
X1197062D02*
X1196781Y1135784D01*
X1196641Y1135682*
X1196500Y1135375*
Y1134966*
X1196641Y1134659*
X1196781Y1134557*
X1197062Y1134455*
X1197062D02*
X1197484D01*
X1197766Y1134557*
X1198047Y1134761*
X1198187Y1135068*
X1198187D02*
X1198328Y1135477D01*
X1198469Y1135682*
X1198750Y1135784*
X1199031*
X1199312Y1135682*
X1199312D02*
X1199453Y1135375D01*
Y1134966*
Y1138239D02*
X1196500Y1137216D01*
X1199453Y1136807D02*
Y1138239D01*
X1198442Y1163216D02*
X1198544Y1163497D01*
X1198749Y1163778*
X1198953Y1163919*
X1199363*
X1199363D02*
X1199567Y1163778D01*
X1199772Y1163497*
X1199874Y1163216*
X1199976Y1162794*
Y1162091*
X1199874Y1161669*
X1199772Y1161387*
X1199772D02*
X1199567Y1161106D01*
X1199363Y1160966*
X1199363D02*
X1198953D01*
X1198749Y1161106*
X1198544Y1161387*
X1198544D02*
X1198442Y1161669D01*
X1197010Y1163919D02*
X1197317Y1163778D01*
X1197419Y1163497*
Y1163216*
X1197317Y1162934*
X1197113Y1162794*
X1197113D02*
X1196703Y1162653D01*
X1196397Y1162512*
X1196397D02*
X1196192Y1162231D01*
X1196090Y1161950*
Y1161528*
X1196192Y1161247*
X1196294Y1161106*
X1196601Y1160966*
X1197010*
X1197317Y1161106*
X1197419Y1161247*
X1197522Y1161528*
Y1161950*
X1197419Y1162231*
X1197215Y1162512*
X1197215D02*
X1196908Y1162653D01*
X1196499Y1162794*
X1196294Y1162934*
X1196192Y1163216*
Y1163497*
X1196294Y1163778*
X1196601Y1163919*
X1197010*
X1194658D02*
X1194965Y1163778D01*
X1195067Y1163497*
Y1163216*
X1194965Y1162934*
X1194760Y1162794*
X1194351Y1162653*
X1194044Y1162512*
X1194044D02*
X1193840Y1162231D01*
X1193738Y1161950*
X1193738D02*
Y1161528D01*
X1193738D02*
X1193840Y1161247D01*
X1193942Y1161106*
X1194249Y1160966*
X1194658*
X1194965Y1161106*
X1195067Y1161247*
X1195169Y1161528*
Y1161950*
X1195067Y1162231*
X1194863Y1162512*
X1194863D02*
X1194556Y1162653D01*
X1194147Y1162794*
X1193942Y1162934*
X1193840Y1163216*
Y1163497*
X1193942Y1163778*
X1194249Y1163919*
X1194658*
X1218966Y1161750D02*
X1219068Y1162031D01*
X1219273Y1162313*
X1219273D02*
X1219477Y1162453D01*
X1219886*
X1220091Y1162313*
X1220091D02*
X1220295Y1162031D01*
X1220398Y1161750*
X1220500Y1161328*
Y1160625*
X1220398Y1160203*
X1220295Y1159922*
X1220091Y1159641*
X1219886Y1159500*
X1219477*
X1219273Y1159641*
X1219068Y1159922*
X1218966Y1160203*
X1217534Y1162453D02*
X1217841Y1162313D01*
X1217841D02*
X1217943Y1162031D01*
Y1161750*
X1217841Y1161469*
X1217636Y1161328*
X1217227Y1161188*
X1217227D02*
X1216920Y1161047D01*
X1216716Y1160766*
X1216614Y1160484*
Y1160063*
X1216614D02*
X1216716Y1159781D01*
X1216818Y1159641*
X1217125Y1159500*
X1217534*
X1217841Y1159641*
X1217943Y1159781*
X1218045Y1160063*
X1218045D02*
Y1160484D01*
X1217943Y1160766*
X1217739Y1161047*
X1217432Y1161188*
X1217432D02*
X1217023Y1161328D01*
X1216818Y1161469*
X1216716Y1161750*
Y1162031*
X1216818Y1162313*
X1216818D02*
X1217125Y1162453D01*
X1217534*
X1214364Y1161469D02*
X1214466Y1161047D01*
X1214670Y1160766*
X1214977Y1160625*
X1215080*
X1215386Y1160766*
X1215591Y1161047*
X1215693Y1161469*
Y1161609*
X1215591Y1162031*
X1215386Y1162313*
X1215386D02*
X1215080Y1162453D01*
X1214977*
X1214670Y1162313*
X1214670D02*
X1214466Y1162031D01*
X1214364Y1161469*
Y1160766*
X1214466Y1160063*
X1214466D02*
X1214670Y1159641D01*
X1214977Y1159500*
X1215182*
X1215489Y1159641*
X1215591Y1159922*
X1172466Y1120750D02*
X1172568Y1121031D01*
X1172773Y1121313*
X1172773D02*
X1172977Y1121453D01*
X1173386*
X1173591Y1121313*
X1173591D02*
X1173795Y1121031D01*
X1173898Y1120750*
X1174000Y1120328*
Y1119625*
X1173898Y1119203*
X1173795Y1118922*
X1173591Y1118641*
X1173386Y1118500*
X1172977*
X1172773Y1118641*
X1172568Y1118922*
X1172466Y1119203*
X1170216Y1120469D02*
X1170318Y1120047D01*
X1170523Y1119766*
X1170830Y1119625*
X1170932*
X1171239Y1119766*
X1171443Y1120047*
X1171545Y1120469*
Y1120609*
X1171443Y1121031*
X1171239Y1121313*
X1171239D02*
X1170932Y1121453D01*
X1170830*
X1170523Y1121313*
X1170523D02*
X1170318Y1121031D01*
X1170216Y1120469*
Y1119766*
X1170318Y1119063*
X1170318D02*
X1170523Y1118641D01*
X1170830Y1118500*
X1171034*
X1171341Y1118641*
X1171443Y1118922*
X1194466Y1183750D02*
X1194568Y1184031D01*
X1194773Y1184313*
X1194977Y1184453*
X1195386*
X1195591Y1184313*
X1195795Y1184031*
X1195898Y1183750*
X1196000Y1183328*
Y1182625*
X1195898Y1182203*
X1195795Y1181922*
X1195591Y1181641*
X1195386Y1181500*
X1194977*
X1194773Y1181641*
X1194568Y1181922*
X1194466Y1182203*
X1192216Y1183469D02*
X1192318Y1183047D01*
X1192523Y1182766*
X1192830Y1182625*
X1192932*
X1193239Y1182766*
X1193443Y1183047*
X1193545Y1183469*
Y1183609*
X1193443Y1184031*
X1193239Y1184313*
X1192932Y1184453*
X1192830*
X1192523Y1184313*
X1192318Y1184031*
X1192216Y1183469*
Y1182766*
X1192318Y1182063*
X1192523Y1181641*
X1192830Y1181500*
X1193034*
X1193341Y1181641*
X1193443Y1181922*
X1190682Y1184453D02*
X1190989Y1184313D01*
X1191193Y1183891*
X1191295Y1183188*
Y1182766*
X1191193Y1182063*
X1190989Y1181641*
X1190682Y1181500*
X1190477*
X1190170Y1181641*
X1189966Y1182063*
X1189864Y1182766*
Y1183188*
X1189966Y1183891*
X1190170Y1184313*
X1190477Y1184453*
X1190682*
X1217466Y1180250D02*
X1217568Y1180531D01*
X1217773Y1180813*
X1217773D02*
X1217977Y1180953D01*
X1218386*
X1218591Y1180813*
X1218591D02*
X1218795Y1180531D01*
X1218898Y1180250*
X1219000Y1179828*
Y1179125*
X1218898Y1178703*
X1218795Y1178422*
X1218591Y1178141*
X1218386Y1178000*
X1217977*
X1217773Y1178141*
X1217568Y1178422*
X1217466Y1178703*
X1215216Y1179969D02*
X1215318Y1179547D01*
X1215523Y1179266*
X1215830Y1179125*
X1215932*
X1216239Y1179266*
X1216443Y1179547*
X1216545Y1179969*
Y1180109*
X1216443Y1180531*
X1216239Y1180813*
X1216239D02*
X1215932Y1180953D01*
X1215830*
X1215523Y1180813*
X1215523D02*
X1215318Y1180531D01*
X1215216Y1179969*
Y1179266*
X1215318Y1178563*
X1215318D02*
X1215523Y1178141D01*
X1215830Y1178000*
X1216034*
X1216341Y1178141*
X1216443Y1178422*
X1214295Y1180391D02*
X1214091Y1180531D01*
X1213784Y1180953*
Y1178000*
X1140466Y1163750D02*
X1140568Y1164031D01*
X1140773Y1164313*
X1140773D02*
X1140977Y1164453D01*
X1141386*
X1141591Y1164313*
X1141591D02*
X1141795Y1164031D01*
X1141898Y1163750*
X1142000Y1163328*
Y1162625*
X1141898Y1162203*
X1141795Y1161922*
X1141591Y1161641*
X1141386Y1161500*
X1140977*
X1140773Y1161641*
X1140568Y1161922*
X1140466Y1162203*
X1138216Y1163469D02*
X1138318Y1163047D01*
X1138523Y1162766*
X1138830Y1162625*
X1138932*
X1139239Y1162766*
X1139443Y1163047*
X1139545Y1163469*
Y1163609*
X1139443Y1164031*
X1139239Y1164313*
X1139239D02*
X1138932Y1164453D01*
X1138830*
X1138523Y1164313*
X1138523D02*
X1138318Y1164031D01*
X1138216Y1163469*
Y1162766*
X1138318Y1162063*
X1138318D02*
X1138523Y1161641D01*
X1138830Y1161500*
X1139034*
X1139341Y1161641*
X1139443Y1161922*
X1137193Y1163750D02*
Y1163891D01*
X1137091Y1164172*
X1136989Y1164313*
X1136989D02*
X1136784Y1164453D01*
X1136375*
X1136170Y1164313*
X1136170D02*
X1136068Y1164172D01*
X1135966Y1163891*
Y1163609*
X1136068Y1163328*
X1136273Y1162906*
X1137295Y1161500*
X1135864*
X1159466Y1184250D02*
X1159568Y1184531D01*
X1159773Y1184813*
X1159773D02*
X1159977Y1184953D01*
X1160386*
X1160591Y1184813*
X1160591D02*
X1160795Y1184531D01*
X1160898Y1184250*
X1161000Y1183828*
Y1183125*
X1160898Y1182703*
X1160795Y1182422*
X1160591Y1182141*
X1160386Y1182000*
X1159977*
X1159773Y1182141*
X1159568Y1182422*
X1159466Y1182703*
X1157216Y1183969D02*
X1157318Y1183547D01*
X1157523Y1183266*
X1157830Y1183125*
X1157932*
X1158239Y1183266*
X1158443Y1183547*
X1158545Y1183969*
Y1184109*
X1158443Y1184531*
X1158239Y1184813*
X1158239D02*
X1157932Y1184953D01*
X1157830*
X1157523Y1184813*
X1157523D02*
X1157318Y1184531D01*
X1157216Y1183969*
Y1183266*
X1157318Y1182563*
X1157318D02*
X1157523Y1182141D01*
X1157830Y1182000*
X1158034*
X1158341Y1182141*
X1158443Y1182422*
X1156091Y1184953D02*
X1154966D01*
X1155580Y1183828*
X1155273*
X1155068Y1183688*
X1155068D02*
X1154966Y1183547D01*
X1154864Y1183125*
Y1182844*
X1154966Y1182422*
X1155170Y1182141*
X1155477Y1182000*
X1155784*
X1156091Y1182141*
X1156193Y1182281*
X1156295Y1182563*
X1141750Y1131034D02*
X1142031Y1130932D01*
X1142313Y1130727*
X1142453Y1130523*
Y1130114*
X1142313Y1129909*
X1142031Y1129705*
X1141750Y1129602*
X1141328Y1129500*
X1140625*
X1140203Y1129602*
X1139922Y1129705*
X1139641Y1129909*
X1139500Y1130114*
Y1130523*
X1139641Y1130727*
X1139922Y1130932*
X1140203Y1131034*
X1141469Y1133284D02*
X1141047Y1133182D01*
X1140766Y1132977*
X1140625Y1132670*
Y1132568*
X1140766Y1132261*
X1141047Y1132057*
X1141469Y1131955*
X1141609*
X1142031Y1132057*
X1142313Y1132261*
X1142453Y1132568*
Y1132670*
X1142313Y1132977*
X1142031Y1133182*
X1141469Y1133284*
X1140766*
X1140063Y1133182*
X1139641Y1132977*
X1139500Y1132670*
Y1132466*
X1139641Y1132159*
X1139922Y1132057*
X1142453Y1135227D02*
X1140484Y1134205D01*
Y1135739*
X1142453Y1135227D02*
X1139500D01*
X1219790Y1128384D02*
X1219892Y1128666D01*
X1220097Y1128947*
X1220301Y1129087*
X1220301D02*
X1220710D01*
X1220710D02*
X1220915Y1128947D01*
X1221119Y1128666*
X1221222Y1128384*
X1221324Y1127962*
X1221324D02*
Y1127259D01*
X1221222Y1126837*
X1221222D02*
X1221119Y1126556D01*
X1220915Y1126275*
X1220710Y1126134*
X1220301*
X1220097Y1126275*
X1219892Y1126556*
X1219790Y1126837*
X1217540Y1128103D02*
X1217642Y1127681D01*
X1217847Y1127400*
X1218153Y1127259*
X1218256*
X1218562Y1127400*
X1218562D02*
X1218767Y1127681D01*
X1218869Y1128103*
Y1128244*
X1218767Y1128666*
X1218562Y1128947*
X1218562D02*
X1218256Y1129087D01*
X1218256D02*
X1218153D01*
X1218153D02*
X1217847Y1128947D01*
X1217642Y1128666*
X1217540Y1128103*
Y1127400*
X1217642Y1126697*
X1217847Y1126275*
X1218153Y1126134*
X1218358*
X1218665Y1126275*
X1218767Y1126556*
X1215290Y1129087D02*
X1216312D01*
X1216312D02*
X1216415Y1127822D01*
X1216312Y1127962*
X1216312D02*
X1216006Y1128103D01*
X1215699*
X1215392Y1127962*
X1215392D02*
X1215187Y1127681D01*
X1215187D02*
X1215085Y1127259D01*
X1215187Y1126978*
X1215187D02*
X1215290Y1126556D01*
X1215494Y1126275*
X1215801Y1126134*
X1216108*
X1216415Y1126275*
X1216517Y1126416*
X1216619Y1126697*
X1194466Y1112250D02*
X1194568Y1112531D01*
X1194773Y1112813*
X1194977Y1112953*
X1195386*
X1195591Y1112813*
X1195795Y1112531*
X1195898Y1112250*
X1196000Y1111828*
Y1111125*
X1195898Y1110703*
X1195795Y1110422*
X1195591Y1110141*
X1195386Y1110000*
X1194977*
X1194773Y1110141*
X1194568Y1110422*
X1194466Y1110703*
X1192216Y1111969D02*
X1192318Y1111547D01*
X1192523Y1111266*
X1192830Y1111125*
X1192932*
X1193239Y1111266*
X1193443Y1111547*
X1193545Y1111969*
Y1112109*
X1193443Y1112531*
X1193239Y1112813*
X1192932Y1112953*
X1192830*
X1192523Y1112813*
X1192318Y1112531*
X1192216Y1111969*
Y1111266*
X1192318Y1110563*
X1192523Y1110141*
X1192830Y1110000*
X1193034*
X1193341Y1110141*
X1193443Y1110422*
X1190068Y1112531D02*
X1190170Y1112813D01*
X1190477Y1112953*
X1190682*
X1190989Y1112813*
X1191193Y1112391*
X1191295Y1111688*
Y1110984*
X1191193Y1110422*
X1190989Y1110141*
X1190682Y1110000*
X1190580*
X1190273Y1110141*
X1190068Y1110422*
X1189966Y1110844*
Y1110984*
X1190068Y1111406*
X1190273Y1111688*
X1190580Y1111828*
X1190682*
X1190989Y1111688*
X1191193Y1111406*
X1191295Y1110984*
X1161239Y1111484D02*
X1161341Y1111766D01*
X1161545Y1112047*
X1161750Y1112188*
X1161750D02*
X1162159D01*
X1162159D02*
X1162364Y1112047D01*
X1162568Y1111766*
X1162670Y1111484*
X1162773Y1111063*
X1162773D02*
Y1110359D01*
X1162670Y1109938*
X1162670D02*
X1162568Y1109656D01*
X1162364Y1109375*
X1162159Y1109234*
X1161750*
X1161545Y1109375*
X1161341Y1109656*
X1161239Y1109938*
X1158989Y1111203D02*
X1159091Y1110781D01*
X1159295Y1110500*
X1159602Y1110359*
X1159705*
X1160011Y1110500*
X1160216Y1110781*
X1160318Y1111203*
Y1111344*
X1160216Y1111766*
X1160011Y1112047*
X1159705Y1112188*
X1159705D02*
X1159602D01*
X1159602D02*
X1159295Y1112047D01*
X1159091Y1111766*
X1158989Y1111203*
Y1110500*
X1159091Y1109797*
X1159295Y1109375*
X1159602Y1109234*
X1159807*
X1160114Y1109375*
X1160216Y1109656*
X1156636Y1112188D02*
X1157659Y1109234D01*
X1158068Y1112188D02*
X1156636D01*
X1044750Y1200284D02*
X1045000Y1200182D01*
X1045250Y1199977*
X1045375Y1199773*
Y1199364*
X1045250Y1199159*
X1045000Y1198955*
X1044750Y1198852*
X1044375Y1198750*
X1043750*
X1043375Y1198852*
X1043125Y1198955*
X1042875Y1199159*
X1042750Y1199364*
Y1199773*
X1042875Y1199977*
X1043125Y1200182*
X1043375Y1200284*
X1045375Y1202636D02*
X1042750Y1201614D01*
X1045375Y1201205D02*
Y1202636D01*
Y1203761D02*
Y1204886D01*
X1044375Y1204273*
Y1204580*
X1044250Y1204784*
X1044125Y1204886*
X1043750Y1204989*
X1043500*
X1043125Y1204886*
X1042875Y1204682*
X1042750Y1204375*
Y1204068*
X1042875Y1203761*
X1043000Y1203659*
X1043250Y1203557*
X1462750Y1416284D02*
X1463000Y1416182D01*
X1463250Y1415977*
X1463375Y1415773*
Y1415364*
X1463250Y1415159*
X1463000Y1414955*
X1462750Y1414852*
X1462375Y1414750*
X1461750*
X1461375Y1414852*
X1461125Y1414955*
X1460875Y1415159*
X1460750Y1415364*
Y1415773*
X1460875Y1415977*
X1461125Y1416182*
X1461375Y1416284*
X1463375Y1417409D02*
Y1418534D01*
X1462375Y1417920*
Y1418227*
X1462250Y1418432*
X1462125Y1418534*
X1461750Y1418636*
X1461500*
X1461125Y1418534*
X1460875Y1418330*
X1460750Y1418023*
Y1417716*
X1460875Y1417409*
X1461000Y1417307*
X1461250Y1417205*
X1463375Y1420068D02*
X1463250Y1419761D01*
X1463000Y1419659*
X1462750*
X1462500Y1419761*
X1462375Y1419966*
X1462250Y1420375*
X1462125Y1420682*
X1461875Y1420886*
X1461625Y1420989*
X1461250*
X1461000Y1420886*
X1460875Y1420784*
X1460750Y1420477*
Y1420068*
X1460875Y1419761*
X1461000Y1419659*
X1461250Y1419557*
X1461625*
X1461875Y1419659*
X1462125Y1419864*
X1462250Y1420170*
X1462375Y1420580*
X1462500Y1420784*
X1462750Y1420886*
X1463000*
X1463250Y1420784*
X1463375Y1420477*
Y1420068*
X1462500Y1423239D02*
X1462125Y1423136D01*
X1461875Y1422932*
X1461750Y1422625*
Y1422523*
X1461875Y1422216*
X1462125Y1422011*
X1462500Y1421909*
X1462625*
X1463000Y1422011*
X1463250Y1422216*
X1463375Y1422523*
Y1422625*
X1463250Y1422932*
X1463000Y1423136*
X1462500Y1423239*
X1461875*
X1461250Y1423136*
X1460875Y1422932*
X1460750Y1422625*
Y1422420*
X1460875Y1422114*
X1461125Y1422011*
X1535750Y1064784D02*
X1536000Y1064682D01*
X1536250Y1064477*
X1536375Y1064273*
Y1063864*
X1536250Y1063659*
X1536000Y1063455*
X1535750Y1063352*
X1535375Y1063250*
X1534750*
X1534375Y1063352*
X1534125Y1063455*
X1533875Y1063659*
X1533750Y1063864*
Y1064273*
X1533875Y1064477*
X1534125Y1064682*
X1534375Y1064784*
X1535875Y1065705D02*
X1536000Y1065909D01*
X1536375Y1066216*
X1533750*
X1535875Y1067136D02*
X1536000Y1067341D01*
X1536375Y1067648*
X1533750*
X1536375Y1069898D02*
Y1068875D01*
X1535250Y1068773*
X1535375Y1068875*
X1535500Y1069182*
Y1069489*
X1535375Y1069795*
X1535125Y1070000*
X1534750Y1070102*
X1534500Y1070000*
X1534125Y1069898*
X1533875Y1069693*
X1533750Y1069386*
Y1069080*
X1533875Y1068773*
X1534000Y1068670*
X1534250Y1068568*
X1594375Y1270813D02*
X1594625Y1270710D01*
X1594875Y1270506*
X1595000Y1270301*
Y1269892*
X1594875Y1269688*
X1594875D02*
X1594625Y1269483D01*
X1594375Y1269381*
X1594000Y1269278*
X1593375*
X1593000Y1269381*
X1592750Y1269483*
X1592500Y1269688*
X1592500D02*
X1592375Y1269892D01*
Y1270301*
X1592500Y1270506*
X1592750Y1270710*
X1593000Y1270813*
X1594625Y1272960D02*
X1594875Y1272858D01*
X1595000Y1272551*
Y1272347*
X1594875Y1272040*
X1594500Y1271835*
X1593875Y1271733*
X1593250*
X1592750Y1271835*
X1592500Y1272040*
X1592375Y1272347*
Y1272449*
X1592500Y1272756*
X1592750Y1272960*
X1593125Y1273063*
X1593125D02*
X1593250D01*
X1593250D02*
X1593625Y1272960D01*
X1593875Y1272756*
X1594000Y1272449*
Y1272347*
X1593875Y1272040*
X1593625Y1271835*
X1593250Y1271733*
X1594125Y1275313D02*
X1593750Y1275210D01*
X1593500Y1275006*
X1593375Y1274699*
Y1274597*
X1593500Y1274290*
X1593750Y1274085*
X1594125Y1273983*
X1594250*
X1594625Y1274085*
X1594875Y1274290*
X1595000Y1274597*
Y1274699*
X1594875Y1275006*
X1594625Y1275210*
X1594125Y1275313*
X1594125D02*
X1593500D01*
X1593500D02*
X1592875Y1275210D01*
X1592500Y1275006*
X1592375Y1274699*
Y1274494*
X1592500Y1274188*
X1592500D02*
X1592750Y1274085D01*
X1566875Y1250659D02*
X1567125Y1250557D01*
X1567375Y1250352*
X1567500Y1250148*
Y1249739*
X1567375Y1249534*
X1567125Y1249330*
X1566875Y1249227*
X1566500Y1249125*
X1565875*
X1565500Y1249227*
X1565250Y1249330*
X1565000Y1249534*
X1564875Y1249739*
Y1250148*
X1565000Y1250352*
X1565250Y1250557*
X1565500Y1250659*
X1567500Y1253011D02*
X1564875Y1251989D01*
X1567500Y1251580D02*
Y1253011D01*
Y1254955D02*
X1565750Y1253932D01*
Y1255466*
X1567500Y1254955D02*
X1564875D01*
X1613750Y1261284D02*
X1614000Y1261182D01*
X1614250Y1260977*
X1614375Y1260773*
Y1260364*
X1614250Y1260159*
X1614000Y1259955*
X1613750Y1259852*
X1613375Y1259750*
X1612750*
X1612375Y1259852*
X1612125Y1259955*
X1611875Y1260159*
X1611750Y1260364*
Y1260773*
X1611875Y1260977*
X1612125Y1261182*
X1612375Y1261284*
X1614375Y1263636D02*
X1611750Y1262614D01*
X1614375Y1262205D02*
Y1263636D01*
X1614000Y1265784D02*
X1614250Y1265682D01*
X1614375Y1265375*
Y1265170*
X1614250Y1264864*
X1613875Y1264659*
X1613250Y1264557*
X1612625*
X1612125Y1264659*
X1611875Y1264864*
X1611750Y1265170*
Y1265273*
X1611875Y1265580*
X1612125Y1265784*
X1612500Y1265886*
X1612625*
X1613000Y1265784*
X1613250Y1265580*
X1613375Y1265273*
Y1265170*
X1613250Y1264864*
X1613000Y1264659*
X1612625Y1264557*
X1451250Y1409875D02*
Y1407250D01*
Y1409875D02*
X1450330D01*
X1450023Y1409750*
X1449920Y1409625*
X1449818Y1409375*
Y1409125*
X1449920Y1408875*
X1450023Y1408750*
X1450330Y1408625*
X1451250*
X1450534D02*
X1449818Y1407250D01*
X1448898Y1409375D02*
X1448693Y1409500D01*
X1448386Y1409875*
Y1407250*
X1447466Y1409375D02*
X1447261Y1409500D01*
X1446955Y1409875*
Y1407250*
X1445011Y1409875D02*
X1446034Y1408125D01*
X1444500*
X1445011Y1409875D02*
Y1407250D01*
X1444453Y1429000D02*
X1441500D01*
X1444453D02*
Y1429920D01*
X1444313Y1430227*
X1444313D02*
X1444172Y1430330D01*
X1443891Y1430432*
X1443609*
X1443328Y1430330*
X1443188Y1430227*
X1443188D02*
X1443047Y1429920D01*
Y1429000*
Y1429716D02*
X1441500Y1430432D01*
X1443891Y1431352D02*
X1444031Y1431557D01*
X1444453Y1431864*
X1441500*
X1443891Y1432784D02*
X1444031Y1432989D01*
X1444453Y1433295*
X1441500*
X1444031Y1435443D02*
X1444313Y1435341D01*
X1444313D02*
X1444453Y1435034D01*
Y1434830*
X1444313Y1434523*
X1444313D02*
X1443891Y1434318D01*
X1443188Y1434216*
X1443188D02*
X1442484D01*
X1441922Y1434318*
X1441641Y1434523*
X1441500Y1434830*
Y1434932*
X1441641Y1435239*
X1441922Y1435443*
X1442344Y1435545*
X1442484*
X1442906Y1435443*
X1443188Y1435239*
X1443188D02*
X1443328Y1434932D01*
Y1434830*
X1443188Y1434523*
X1443188D02*
X1442906Y1434318D01*
X1442484Y1434216*
X1459000Y1461453D02*
Y1458500D01*
Y1461453D02*
X1458080D01*
X1457773Y1461313*
X1457773D02*
X1457670Y1461172D01*
X1457568Y1460891*
Y1460609*
X1457670Y1460328*
X1457773Y1460188*
X1457773D02*
X1458080Y1460047D01*
X1459000*
X1458284D02*
X1457568Y1458500D01*
X1456648Y1460891D02*
X1456443Y1461031D01*
X1456136Y1461453*
Y1458500*
X1455011Y1461453D02*
X1453886D01*
X1454500Y1460328*
X1454193*
X1453989Y1460188*
X1453989D02*
X1453886Y1460047D01*
X1453784Y1459625*
Y1459344*
X1453886Y1458922*
X1454091Y1458641*
X1454398Y1458500*
X1454705*
X1455011Y1458641*
X1455114Y1458781*
X1455216Y1459063*
X1452659Y1461453D02*
X1451534D01*
X1452148Y1460328*
X1451841*
X1451636Y1460188*
X1451636D02*
X1451534Y1460047D01*
X1451432Y1459625*
Y1459344*
X1451534Y1458922*
X1451739Y1458641*
X1452045Y1458500*
X1452352*
X1452659Y1458641*
X1452761Y1458781*
X1452864Y1459063*
X1499500Y1396953D02*
Y1394000D01*
Y1396953D02*
X1498580D01*
X1498273Y1396813*
X1498273D02*
X1498170Y1396672D01*
X1498068Y1396391*
Y1396109*
X1498170Y1395828*
X1498273Y1395688*
X1498273D02*
X1498580Y1395547D01*
X1499500*
X1498784D02*
X1498068Y1394000D01*
X1497045Y1396250D02*
Y1396391D01*
X1496943Y1396672*
X1496841Y1396813*
X1496841D02*
X1496636Y1396953D01*
X1496227*
X1496023Y1396813*
X1496023D02*
X1495920Y1396672D01*
X1495818Y1396391*
Y1396109*
X1495920Y1395828*
X1496125Y1395406*
X1497148Y1394000*
X1495716*
X1493568Y1396531D02*
X1493670Y1396813D01*
X1493670D02*
X1493977Y1396953D01*
X1494182*
X1494489Y1396813*
X1494489D02*
X1494693Y1396391D01*
X1494795Y1395688*
X1494795D02*
Y1394984D01*
X1494693Y1394422*
X1494489Y1394141*
X1494182Y1394000*
X1494080*
X1493773Y1394141*
X1493568Y1394422*
X1493466Y1394844*
Y1394984*
X1493568Y1395406*
X1493773Y1395688*
X1493773D02*
X1494080Y1395828D01*
X1494182*
X1494489Y1395688*
X1494489D02*
X1494693Y1395406D01*
X1494795Y1394984*
X1492545Y1396391D02*
X1492341Y1396531D01*
X1492034Y1396953*
Y1394000*
X1501500Y1443953D02*
Y1441000D01*
Y1443953D02*
X1500580D01*
X1500273Y1443813*
X1500273D02*
X1500170Y1443672D01*
X1500068Y1443391*
Y1443109*
X1500170Y1442828*
X1500273Y1442688*
X1500273D02*
X1500580Y1442547D01*
X1501500*
X1500784D02*
X1500068Y1441000D01*
X1499148Y1443391D02*
X1498943Y1443531D01*
X1498636Y1443953*
Y1441000*
X1497511Y1443953D02*
X1496386D01*
X1497000Y1442828*
X1496693*
X1496489Y1442688*
X1496489D02*
X1496386Y1442547D01*
X1496284Y1442125*
Y1441844*
X1496386Y1441422*
X1496591Y1441141*
X1496898Y1441000*
X1497205*
X1497511Y1441141*
X1497614Y1441281*
X1497716Y1441563*
X1495364Y1443391D02*
X1495159Y1443531D01*
X1494852Y1443953*
Y1441000*
X1514375Y1086750D02*
X1511750D01*
X1514375D02*
Y1087670D01*
X1514250Y1087977*
X1514125Y1088080*
X1513875Y1088182*
X1513625*
X1513375Y1088080*
X1513250Y1087977*
X1513125Y1087670*
Y1086750*
Y1087466D02*
X1511750Y1088182D01*
X1513750Y1089205D02*
X1513875D01*
X1514125Y1089307*
X1514250Y1089409*
X1514375Y1089614*
Y1090023*
X1514250Y1090227*
X1514125Y1090330*
X1513875Y1090432*
X1513625*
X1513375Y1090330*
X1513000Y1090125*
X1511750Y1089102*
Y1090534*
X1514375Y1092477D02*
X1512625Y1091455D01*
Y1092989*
X1514375Y1092477D02*
X1511750D01*
X1492000Y1443953D02*
Y1441000D01*
Y1443953D02*
X1491080D01*
X1490773Y1443813*
X1490773D02*
X1490670Y1443672D01*
X1490568Y1443391*
Y1443109*
X1490670Y1442828*
X1490773Y1442688*
X1490773D02*
X1491080Y1442547D01*
X1492000*
X1491284D02*
X1490568Y1441000D01*
X1489648Y1443391D02*
X1489443Y1443531D01*
X1489136Y1443953*
Y1441000*
X1487193Y1443953D02*
X1488216Y1441984D01*
X1486682*
X1487193Y1443953D02*
Y1441000D01*
X1327953Y1145500D02*
X1325000D01*
X1327953D02*
Y1146420D01*
X1327812Y1146727*
X1327812D02*
X1327672Y1146830D01*
X1327391Y1146932*
X1327109*
X1326828Y1146830*
X1326687Y1146727*
X1326687D02*
X1326547Y1146420D01*
Y1145500*
Y1146216D02*
X1325000Y1146932D01*
X1327953Y1148057D02*
Y1149182D01*
X1326828Y1148568*
Y1148875*
X1326687Y1149080*
X1326687D02*
X1326547Y1149182D01*
X1326125Y1149284*
X1325844*
X1325422Y1149182*
X1325141Y1148977*
X1325000Y1148670*
Y1148364*
X1325141Y1148057*
X1325281Y1147955*
X1325562Y1147852*
X1327531Y1151432D02*
X1327812Y1151330D01*
X1327812D02*
X1327953Y1151023D01*
Y1150818*
X1327812Y1150511*
X1327812D02*
X1327391Y1150307D01*
X1326687Y1150205*
X1326687D02*
X1325984D01*
X1325422Y1150307*
X1325141Y1150511*
X1325000Y1150818*
Y1150920*
X1325141Y1151227*
X1325422Y1151432*
X1325844Y1151534*
X1325984*
X1326406Y1151432*
X1326687Y1151227*
X1326687D02*
X1326828Y1150920D01*
Y1150818*
X1326687Y1150511*
X1326687D02*
X1326406Y1150307D01*
X1325984Y1150205*
X1327953Y1052500D02*
X1325000D01*
X1327953D02*
Y1053420D01*
X1327813Y1053727*
X1327813D02*
X1327672Y1053830D01*
X1327391Y1053932*
X1327109*
X1326828Y1053830*
X1326688Y1053727*
X1326688D02*
X1326547Y1053420D01*
Y1052500*
Y1053216D02*
X1325000Y1053932D01*
X1327953Y1056284D02*
X1325000Y1055261D01*
X1327953Y1054852D02*
Y1056284D01*
Y1091500D02*
X1325000D01*
X1327953D02*
Y1092420D01*
X1327812Y1092727*
X1327812D02*
X1327672Y1092830D01*
X1327391Y1092932*
X1327109*
X1326828Y1092830*
X1326687Y1092727*
X1326687D02*
X1326547Y1092420D01*
Y1091500*
Y1092216D02*
X1325000Y1092932D01*
X1327391Y1093852D02*
X1327531Y1094057D01*
X1327953Y1094364*
X1325000*
X1327953Y1096716D02*
X1325000Y1095693D01*
X1327953Y1095284D02*
Y1096716D01*
X1328153Y1032400D02*
X1325200D01*
X1328153D02*
Y1033320D01*
X1328013Y1033627*
X1328013D02*
X1327872Y1033730D01*
X1327591Y1033832*
X1327309*
X1327028Y1033730*
X1326888Y1033627*
X1326888D02*
X1326747Y1033320D01*
Y1032400*
Y1033116D02*
X1325200Y1033832D01*
X1327169Y1036082D02*
X1326747Y1035980D01*
X1326466Y1035775*
X1326325Y1035468*
Y1035366*
X1326466Y1035059*
X1326747Y1034855*
X1327169Y1034752*
X1327309*
X1327731Y1034855*
X1328013Y1035059*
X1328013D02*
X1328153Y1035366D01*
Y1035468*
X1328013Y1035775*
X1328013D02*
X1327731Y1035980D01*
X1327169Y1036082*
X1326466*
X1325763Y1035980*
X1325763D02*
X1325341Y1035775D01*
X1325200Y1035468*
Y1035264*
X1325341Y1034957*
X1325622Y1034855*
X1328219Y1131661D02*
X1325266D01*
X1328219D02*
Y1132582D01*
X1328078Y1132889*
X1327937Y1132991*
X1327937D02*
X1327656Y1133093D01*
X1327375*
X1327094Y1132991*
X1326953Y1132889*
X1326812Y1132582*
X1326812D02*
Y1131661D01*
Y1132377D02*
X1325266Y1133093D01*
X1328219Y1134218D02*
Y1135343D01*
X1327094Y1134730*
Y1135036*
X1326953Y1135241*
X1326812Y1135343*
X1326812D02*
X1326391Y1135445D01*
X1326109*
X1325687Y1135343*
X1325687D02*
X1325406Y1135139D01*
X1325266Y1134832*
Y1134525*
X1325406Y1134218*
X1325547Y1134116*
X1325828Y1134014*
X1327953Y1071000D02*
X1325000D01*
X1327953D02*
Y1071920D01*
X1327812Y1072227*
X1327812D02*
X1327672Y1072330D01*
X1327391Y1072432*
X1327109*
X1326828Y1072330*
X1326687Y1072227*
X1326687D02*
X1326547Y1071920D01*
Y1071000*
Y1071716D02*
X1325000Y1072432D01*
X1327953Y1074375D02*
X1325984Y1073352D01*
Y1074886*
X1327953Y1074375D02*
X1325000D01*
X1327531Y1077034D02*
X1327812Y1076932D01*
X1327812D02*
X1327953Y1076625D01*
Y1076420*
X1327812Y1076114*
X1327812D02*
X1327391Y1075909D01*
X1326687Y1075807*
X1326687D02*
X1325984D01*
X1325422Y1075909*
X1325141Y1076114*
X1325000Y1076420*
Y1076523*
X1325141Y1076830*
X1325422Y1077034*
X1325844Y1077136*
X1325984*
X1326406Y1077034*
X1326687Y1076830*
X1326687D02*
X1326828Y1076523D01*
Y1076420*
X1326687Y1076114*
X1326687D02*
X1326406Y1075909D01*
X1325984Y1075807*
X1611523Y1287445D02*
Y1285336D01*
X1611420Y1284914*
X1611216Y1284633*
X1610909Y1284492*
X1610705*
X1610398Y1284633*
X1610193Y1284914*
X1610091Y1285336*
Y1287445*
X1607943Y1287023D02*
X1608045Y1287305D01*
X1608352Y1287445*
X1608557*
X1608864Y1287305*
X1609068Y1286883*
X1609170Y1286180*
Y1285477*
X1609068Y1284914*
X1608864Y1284633*
X1608557Y1284492*
X1608455*
X1608148Y1284633*
X1607943Y1284914*
X1607841Y1285336*
Y1285477*
X1607943Y1285898*
X1608148Y1286180*
X1608455Y1286320*
X1608557*
X1608864Y1286180*
X1609068Y1285898*
X1609170Y1285477*
X1605591Y1287445D02*
X1606614D01*
X1606716Y1286180*
X1606614Y1286320*
X1606307Y1286461*
X1606000*
X1605693Y1286320*
X1605489Y1286039*
X1605386Y1285617*
X1605489Y1285336*
X1605591Y1284914*
X1605795Y1284633*
X1606102Y1284492*
X1606409*
X1606716Y1284633*
X1606818Y1284773*
X1606920Y1285055*
X1125000Y1070953D02*
Y1068000D01*
Y1070953D02*
X1124080D01*
X1123773Y1070813*
X1123670Y1070672*
X1123568Y1070391*
Y1070109*
X1123670Y1069828*
X1123773Y1069688*
X1124080Y1069547*
X1125000*
X1124284D02*
X1123568Y1068000D01*
X1122648Y1070391D02*
X1122443Y1070531D01*
X1122136Y1070953*
Y1068000*
X1121114Y1070250D02*
Y1070391D01*
X1121011Y1070672*
X1120909Y1070813*
X1120705Y1070953*
X1120295*
X1120091Y1070813*
X1119989Y1070672*
X1119886Y1070391*
Y1070109*
X1119989Y1069828*
X1120193Y1069406*
X1121216Y1068000*
X1119784*
X1265453Y1052500D02*
X1262500D01*
X1265453D02*
Y1053420D01*
X1265313Y1053727*
X1265313D02*
X1265172Y1053830D01*
X1264891Y1053932*
X1264609*
X1264328Y1053830*
X1264188Y1053727*
X1264188D02*
X1264047Y1053420D01*
Y1052500*
Y1053216D02*
X1262500Y1053932D01*
X1265453Y1055364D02*
X1265313Y1055057D01*
X1265313D02*
X1265031Y1054955D01*
X1264750*
X1264469Y1055057*
X1264328Y1055261*
X1264188Y1055670*
X1264188D02*
X1264047Y1055977D01*
X1263766Y1056182*
X1263484Y1056284*
X1263063*
X1263063D02*
X1262781Y1056182D01*
X1262641Y1056080*
X1262500Y1055773*
Y1055364*
X1262641Y1055057*
X1262781Y1054955*
X1263063Y1054852*
X1263063D02*
X1263484D01*
X1263766Y1054955*
X1264047Y1055159*
X1264188Y1055466*
X1264188D02*
X1264328Y1055875D01*
X1264469Y1056080*
X1264750Y1056182*
X1265031*
X1265313Y1056080*
X1265313D02*
X1265453Y1055773D01*
Y1055364*
X1264953Y1032000D02*
X1262000D01*
X1264953D02*
Y1032920D01*
X1264813Y1033227*
X1264813D02*
X1264672Y1033330D01*
X1264391Y1033432*
X1264109*
X1263828Y1033330*
X1263688Y1033227*
X1263688D02*
X1263547Y1032920D01*
Y1032000*
Y1032716D02*
X1262000Y1033432D01*
X1264391Y1034352D02*
X1264531Y1034557D01*
X1264953Y1034864*
X1262000*
X1264953Y1036398D02*
X1264813Y1036091D01*
X1264813D02*
X1264391Y1035886D01*
X1263688Y1035784*
X1263688D02*
X1263266D01*
X1262563Y1035886*
X1262563D02*
X1262141Y1036091D01*
X1262000Y1036398*
Y1036602*
X1262141Y1036909*
X1262563Y1037114*
X1262563D02*
X1263266Y1037216D01*
X1263688*
X1263688D02*
X1264391Y1037114D01*
X1264813Y1036909*
X1264813D02*
X1264953Y1036602D01*
Y1036398*
Y1134000D02*
X1262000D01*
X1264953D02*
Y1134920D01*
X1264813Y1135227*
X1264813D02*
X1264672Y1135330D01*
X1264391Y1135432*
X1264109*
X1263828Y1135330*
X1263688Y1135227*
X1263688D02*
X1263547Y1134920D01*
Y1134000*
Y1134716D02*
X1262000Y1135432D01*
X1264953Y1137375D02*
X1262984Y1136352D01*
Y1137886*
X1264953Y1137375D02*
X1262000D01*
X1496600Y1176311D02*
X1493975D01*
X1496600D02*
Y1177232D01*
X1496475Y1177539*
X1496350Y1177641*
X1496100Y1177743*
X1495850*
X1495600Y1177641*
X1495475Y1177539*
X1495350Y1177232*
Y1176311*
Y1177027D02*
X1493975Y1177743D01*
X1496100Y1178664D02*
X1496225Y1178868D01*
X1496600Y1179175*
X1493975*
X1496600Y1181527D02*
X1493975Y1180505D01*
X1496600Y1180095D02*
Y1181527D01*
Y1183061D02*
X1496475Y1182755D01*
X1496100Y1182550*
X1495475Y1182448*
X1495100*
X1494475Y1182550*
X1494100Y1182755*
X1493975Y1183061*
Y1183266*
X1494100Y1183573*
X1494475Y1183777*
X1495100Y1183880*
X1495475*
X1496100Y1183777*
X1496475Y1183573*
X1496600Y1183266*
Y1183061*
X1602375Y1268750D02*
X1599750D01*
X1602375D02*
Y1269670D01*
X1602250Y1269977*
X1602125Y1270080*
X1601875Y1270182*
X1601625*
X1601375Y1270080*
X1601250Y1269977*
X1601125Y1269670*
Y1268750*
Y1269466D02*
X1599750Y1270182D01*
X1601750Y1271205D02*
X1601875D01*
X1602125Y1271307*
X1602250Y1271409*
X1602375Y1271614*
Y1272023*
X1602250Y1272227*
X1602125Y1272330*
X1601875Y1272432*
X1601625*
X1601375Y1272330*
X1601000Y1272125*
X1599750Y1271102*
Y1272534*
X1602375Y1274068D02*
X1602250Y1273761D01*
X1601875Y1273557*
X1601250Y1273455*
X1600875*
X1600250Y1273557*
X1599875Y1273761*
X1599750Y1274068*
Y1274273*
X1599875Y1274580*
X1600250Y1274784*
X1600875Y1274886*
X1601250*
X1601875Y1274784*
X1602250Y1274580*
X1602375Y1274273*
Y1274068*
X1601500Y1277136D02*
X1601125Y1277034D01*
X1600875Y1276830*
X1600750Y1276523*
Y1276420*
X1600875Y1276114*
X1601125Y1275909*
X1601500Y1275807*
X1601625*
X1602000Y1275909*
X1602250Y1276114*
X1602375Y1276420*
Y1276523*
X1602250Y1276830*
X1602000Y1277034*
X1601500Y1277136*
X1600875*
X1600250Y1277034*
X1599875Y1276830*
X1599750Y1276523*
Y1276318*
X1599875Y1276011*
X1600125Y1275909*
X1580188Y1248511D02*
X1577234D01*
X1580188D02*
Y1249432D01*
X1580188D02*
X1580047Y1249739D01*
X1579906Y1249841*
X1579625Y1249943*
X1579344*
X1579063Y1249841*
X1579063D02*
X1578922Y1249739D01*
X1578781Y1249432*
Y1248511*
Y1249227D02*
X1577234Y1249943D01*
X1579484Y1250966D02*
X1579625D01*
X1579906Y1251068*
X1580047Y1251170*
X1580188Y1251375*
X1580188D02*
Y1251784D01*
X1580188D02*
X1580047Y1251989D01*
X1579906Y1252091*
X1579625Y1252193*
X1579344*
X1579063Y1252091*
X1579063D02*
X1578641Y1251886D01*
X1577234Y1250864*
Y1252295*
X1579625Y1253216D02*
X1579766Y1253420D01*
X1580188Y1253727*
X1580188D02*
X1577234D01*
X1580188Y1255261D02*
X1580047Y1254955D01*
X1579625Y1254750*
X1578922Y1254648*
X1578500*
X1577797Y1254750*
X1577375Y1254955*
X1577234Y1255261*
Y1255466*
X1577375Y1255773*
X1577797Y1255977*
X1578500Y1256080*
X1578922*
X1579625Y1255977*
X1580047Y1255773*
X1580188Y1255466*
X1580188D02*
Y1255261D01*
X1512900Y1250450D02*
Y1247825D01*
Y1250450D02*
X1511980D01*
X1511673Y1250325*
X1511570Y1250200*
X1511468Y1249950*
Y1249700*
X1511570Y1249450*
X1511673Y1249325*
X1511980Y1249200*
X1512900*
X1512184D02*
X1511468Y1247825D01*
X1510445Y1249825D02*
Y1249950D01*
X1510343Y1250200*
X1510241Y1250325*
X1510036Y1250450*
X1509627*
X1509423Y1250325*
X1509320Y1250200*
X1509218Y1249950*
Y1249700*
X1509320Y1249450*
X1509525Y1249075*
X1510548Y1247825*
X1509116*
X1508093Y1249825D02*
Y1249950D01*
X1507991Y1250200*
X1507889Y1250325*
X1507684Y1250450*
X1507275*
X1507070Y1250325*
X1506968Y1250200*
X1506866Y1249950*
Y1249700*
X1506968Y1249450*
X1507173Y1249075*
X1508195Y1247825*
X1506764*
X1504820Y1250450D02*
X1505843Y1248700D01*
X1504309*
X1504820Y1250450D02*
Y1247825D01*
X1502600Y1241525D02*
Y1238900D01*
Y1241525D02*
X1501680D01*
X1501373Y1241400*
X1501270Y1241275*
X1501168Y1241025*
Y1240775*
X1501270Y1240525*
X1501373Y1240400*
X1501680Y1240275*
X1502600*
X1501884D02*
X1501168Y1238900D01*
X1500145Y1240900D02*
Y1241025D01*
X1500043Y1241275*
X1499941Y1241400*
X1499736Y1241525*
X1499327*
X1499123Y1241400*
X1499020Y1241275*
X1498918Y1241025*
Y1240775*
X1499020Y1240525*
X1499225Y1240150*
X1500248Y1238900*
X1498816*
X1497793Y1240900D02*
Y1241025D01*
X1497691Y1241275*
X1497589Y1241400*
X1497384Y1241525*
X1496975*
X1496770Y1241400*
X1496668Y1241275*
X1496566Y1241025*
Y1240775*
X1496668Y1240525*
X1496873Y1240150*
X1497895Y1238900*
X1496464*
X1494214Y1241525D02*
X1495236D01*
X1495339Y1240400*
X1495236Y1240525*
X1494930Y1240650*
X1494623*
X1494316Y1240525*
X1494111Y1240275*
X1494009Y1239900*
X1494111Y1239650*
X1494214Y1239275*
X1494418Y1239025*
X1494725Y1238900*
X1495032*
X1495339Y1239025*
X1495441Y1239150*
X1495543Y1239400*
X1405195Y1335051D02*
X1402242D01*
X1405195D02*
Y1335972D01*
X1405055Y1336278*
X1404914Y1336381*
X1404633Y1336483*
X1404352*
X1404070Y1336381*
X1403930Y1336278*
X1403789Y1335972*
Y1335051*
Y1335767D02*
X1402242Y1336483D01*
X1404492Y1337506D02*
X1404633D01*
X1404914Y1337608*
X1405055Y1337710*
X1405195Y1337915*
Y1338324*
X1405055Y1338528*
X1404914Y1338631*
X1404633Y1338733*
X1404352*
X1404070Y1338631*
X1403648Y1338426*
X1402242Y1337403*
Y1338835*
X1404492Y1339858D02*
X1404633D01*
X1404914Y1339960*
X1405055Y1340063*
X1405055D02*
X1405195Y1340267D01*
Y1340676*
X1405055Y1340881*
X1404914Y1340983*
X1404633Y1341085*
X1404352*
X1404070Y1340983*
X1403648Y1340778*
X1402242Y1339756*
Y1341188*
X1405195Y1342619D02*
X1405055Y1342313D01*
X1405055D02*
X1404773Y1342210D01*
X1404492*
X1404211Y1342313*
X1404211D02*
X1404070Y1342517D01*
X1403930Y1342926*
X1403789Y1343233*
X1403508Y1343438*
X1403508D02*
X1403227Y1343540D01*
X1402805*
X1402523Y1343438*
X1402523D02*
X1402383Y1343335D01*
X1402242Y1343028*
Y1342619*
X1402383Y1342313*
X1402383D02*
X1402523Y1342210D01*
X1402805Y1342108*
X1403227*
X1403508Y1342210*
X1403789Y1342415*
X1403930Y1342722*
X1404070Y1343131*
X1404211Y1343335*
X1404492Y1343438*
X1404492D02*
X1404773D01*
X1404773D02*
X1405055Y1343335D01*
X1405195Y1343028*
Y1342619*
X1398195Y1332102D02*
X1395242D01*
X1398195D02*
Y1333023D01*
X1398055Y1333330*
X1397914Y1333432*
X1397633Y1333534*
X1397352*
X1397070Y1333432*
X1396930Y1333330*
X1396789Y1333023*
Y1332102*
Y1332818D02*
X1395242Y1333534D01*
X1397492Y1334557D02*
X1397633D01*
X1397914Y1334659*
X1398055Y1334761*
X1398195Y1334966*
Y1335375*
X1398055Y1335580*
X1397914Y1335682*
X1397633Y1335784*
X1397352*
X1397070Y1335682*
X1396648Y1335477*
X1395242Y1334455*
Y1335886*
X1397492Y1336909D02*
X1397633D01*
X1397914Y1337011*
X1398055Y1337114*
X1398195Y1337318*
Y1337727*
X1398055Y1337932*
X1397914Y1338034*
X1397633Y1338136*
X1397352*
X1397070Y1338034*
X1396648Y1337830*
X1395242Y1336807*
Y1338239*
X1397211Y1340489D02*
X1396789Y1340386D01*
X1396508Y1340182*
X1396367Y1339875*
Y1339773*
X1396508Y1339466*
X1396789Y1339261*
X1397211Y1339159*
X1397352*
X1397773Y1339261*
X1398055Y1339466*
X1398195Y1339773*
Y1339875*
X1398055Y1340182*
X1397773Y1340386*
X1397211Y1340489*
X1396508*
X1395805Y1340386*
X1395383Y1340182*
X1395242Y1339875*
Y1339670*
X1395383Y1339364*
X1395664Y1339261*
X1072453Y1411500D02*
X1069500D01*
X1072453D02*
Y1412420D01*
X1072313Y1412727*
X1072313D02*
X1072172Y1412830D01*
X1071891Y1412932*
X1071609*
X1071328Y1412830*
X1071188Y1412727*
X1071188D02*
X1071047Y1412420D01*
Y1411500*
Y1412216D02*
X1069500Y1412932D01*
X1071750Y1413955D02*
X1071891D01*
X1072172Y1414057*
X1072313Y1414159*
X1072313D02*
X1072453Y1414364D01*
Y1414773*
X1072313Y1414977*
X1072313D02*
X1072172Y1415080D01*
X1071891Y1415182*
X1071609*
X1071328Y1415080*
X1070906Y1414875*
X1069500Y1413852*
Y1415284*
X1072453Y1417227D02*
X1070484Y1416205D01*
Y1417739*
X1072453Y1417227D02*
X1069500D01*
X1071891Y1418659D02*
X1072031Y1418864D01*
X1072453Y1419170*
X1069500*
X1071953Y1432000D02*
X1069000D01*
X1071953D02*
Y1432920D01*
X1071813Y1433227*
X1071813D02*
X1071672Y1433330D01*
X1071391Y1433432*
X1071109*
X1070828Y1433330*
X1070688Y1433227*
X1070688D02*
X1070547Y1432920D01*
Y1432000*
Y1432716D02*
X1069000Y1433432D01*
X1071250Y1434455D02*
X1071391D01*
X1071672Y1434557*
X1071813Y1434659*
X1071813D02*
X1071953Y1434864D01*
Y1435273*
X1071813Y1435477*
X1071813D02*
X1071672Y1435580D01*
X1071391Y1435682*
X1071109*
X1070828Y1435580*
X1070406Y1435375*
X1069000Y1434352*
Y1435784*
X1071953Y1437727D02*
X1069984Y1436705D01*
Y1438239*
X1071953Y1437727D02*
X1069000D01*
X1071250Y1439261D02*
X1071391D01*
X1071672Y1439364*
X1071813Y1439466*
X1071813D02*
X1071953Y1439670D01*
Y1440080*
X1071813Y1440284*
X1071813D02*
X1071672Y1440386D01*
X1071391Y1440489*
X1071109*
X1070828Y1440386*
X1070406Y1440182*
X1069000Y1439159*
Y1440591*
X1065453Y1456500D02*
X1062500D01*
X1065453D02*
Y1457420D01*
X1065313Y1457727*
X1065172Y1457830*
X1064891Y1457932*
X1064609*
X1064328Y1457830*
X1064188Y1457727*
X1064047Y1457420*
Y1456500*
Y1457216D02*
X1062500Y1457932D01*
X1064750Y1458955D02*
X1064891D01*
X1065172Y1459057*
X1065313Y1459159*
X1065453Y1459364*
Y1459773*
X1065313Y1459977*
X1065172Y1460080*
X1064891Y1460182*
X1064609*
X1064328Y1460080*
X1063906Y1459875*
X1062500Y1458852*
Y1460284*
X1065453Y1462227D02*
X1063484Y1461205D01*
Y1462739*
X1065453Y1462227D02*
X1062500D01*
X1065453Y1463864D02*
Y1464989D01*
X1064328Y1464375*
Y1464682*
X1064188Y1464886*
X1064047Y1464989*
X1063625Y1465091*
X1063344*
X1062922Y1464989*
X1062641Y1464784*
X1062500Y1464477*
Y1464170*
X1062641Y1463864*
X1062781Y1463761*
X1063063Y1463659*
X1101153Y1346400D02*
X1098200D01*
X1101153D02*
Y1347320D01*
X1101013Y1347627*
X1100872Y1347730*
X1100591Y1347832*
X1100309*
X1100028Y1347730*
X1099888Y1347627*
X1099747Y1347320*
Y1346400*
Y1347116D02*
X1098200Y1347832D01*
X1100450Y1348855D02*
X1100591D01*
X1100872Y1348957*
X1101013Y1349059*
X1101153Y1349264*
Y1349673*
X1101013Y1349877*
X1100872Y1349980*
X1100591Y1350082*
X1100309*
X1100028Y1349980*
X1099606Y1349775*
X1098200Y1348752*
Y1350184*
X1101153Y1352127D02*
X1099184Y1351105D01*
Y1352639*
X1101153Y1352127D02*
X1098200D01*
X1101153Y1354582D02*
X1099184Y1353559D01*
Y1355093*
X1101153Y1354582D02*
X1098200D01*
X1101253Y1301600D02*
X1098300D01*
X1101253D02*
Y1302520D01*
X1101113Y1302827*
X1101113D02*
X1100972Y1302930D01*
X1100691Y1303032*
X1100409*
X1100128Y1302930*
X1099988Y1302827*
X1099988D02*
X1099847Y1302520D01*
Y1301600*
Y1302316D02*
X1098300Y1303032D01*
X1100550Y1304055D02*
X1100691D01*
X1100972Y1304157*
X1101113Y1304259*
X1101113D02*
X1101253Y1304464D01*
Y1304873*
X1101113Y1305077*
X1101113D02*
X1100972Y1305180D01*
X1100691Y1305282*
X1100409*
X1100128Y1305180*
X1099706Y1304975*
X1098300Y1303952*
Y1305384*
X1101253Y1307327D02*
X1099284Y1306305D01*
Y1307839*
X1101253Y1307327D02*
X1098300D01*
X1101253Y1310089D02*
Y1309066D01*
X1099988Y1308964*
X1099988D02*
X1100128Y1309066D01*
X1100269Y1309373*
Y1309680*
X1100128Y1309986*
X1099847Y1310191*
X1099425Y1310293*
X1099144Y1310191*
X1098722Y1310089*
X1098441Y1309884*
X1098300Y1309577*
Y1309270*
X1098441Y1308964*
X1098581Y1308861*
X1098863Y1308759*
X1064453Y1344000D02*
X1061500D01*
X1064453D02*
Y1344920D01*
X1064313Y1345227*
X1064313D02*
X1064172Y1345330D01*
X1063891Y1345432*
X1063609*
X1063328Y1345330*
X1063188Y1345227*
X1063188D02*
X1063047Y1344920D01*
Y1344000*
Y1344716D02*
X1061500Y1345432D01*
X1063750Y1346455D02*
X1063891D01*
X1064172Y1346557*
X1064313Y1346659*
X1064313D02*
X1064453Y1346864D01*
Y1347273*
X1064313Y1347477*
X1064313D02*
X1064172Y1347580D01*
X1063891Y1347682*
X1063609*
X1063328Y1347580*
X1062906Y1347375*
X1061500Y1346352*
Y1347784*
X1064453Y1349727D02*
X1062484Y1348705D01*
Y1350239*
X1064453Y1349727D02*
X1061500D01*
X1064453Y1351670D02*
X1064313Y1351364D01*
X1064313D02*
X1064031Y1351261D01*
X1063750*
X1063469Y1351364*
X1063328Y1351568*
X1063188Y1351977*
X1063188D02*
X1063047Y1352284D01*
X1062766Y1352489*
X1062484Y1352591*
X1062063*
X1062063D02*
X1061781Y1352489D01*
X1061641Y1352386*
X1061500Y1352080*
Y1351670*
X1061641Y1351364*
X1061781Y1351261*
X1062063Y1351159*
X1062063D02*
X1062484D01*
X1062766Y1351261*
X1063047Y1351466*
X1063188Y1351773*
X1063188D02*
X1063328Y1352182D01*
X1063469Y1352386*
X1063750Y1352489*
X1064031*
X1064313Y1352386*
X1064313D02*
X1064453Y1352080D01*
Y1351670*
X1587875Y1248750D02*
X1585250D01*
X1587875D02*
Y1249670D01*
X1587750Y1249977*
X1587625Y1250080*
X1587375Y1250182*
X1587125*
X1586875Y1250080*
X1586750Y1249977*
X1586625Y1249670*
Y1248750*
Y1249466D02*
X1585250Y1250182D01*
X1587250Y1251205D02*
X1587375D01*
X1587625Y1251307*
X1587750Y1251409*
X1587875Y1251614*
Y1252023*
X1587750Y1252227*
X1587625Y1252330*
X1587375Y1252432*
X1587125*
X1586875Y1252330*
X1586500Y1252125*
X1585250Y1251102*
Y1252534*
X1587500Y1254682D02*
X1587750Y1254580D01*
X1587875Y1254273*
Y1254068*
X1587750Y1253761*
X1587375Y1253557*
X1586750Y1253455*
X1586125*
X1585625Y1253557*
X1585375Y1253761*
X1585250Y1254068*
Y1254170*
X1585375Y1254477*
X1585625Y1254682*
X1586000Y1254784*
X1586125*
X1586500Y1254682*
X1586750Y1254477*
X1586875Y1254170*
Y1254068*
X1586750Y1253761*
X1586500Y1253557*
X1586125Y1253455*
X1587250Y1255807D02*
X1587375D01*
X1587625Y1255909*
X1587750Y1256011*
X1587875Y1256216*
Y1256625*
X1587750Y1256830*
X1587625Y1256932*
X1587375Y1257034*
X1587125*
X1586875Y1256932*
X1586500Y1256727*
X1585250Y1255705*
Y1257136*
X1153500Y1060953D02*
Y1058000D01*
Y1060953D02*
X1152580D01*
X1152273Y1060813*
X1152273D02*
X1152170Y1060672D01*
X1152068Y1060391*
Y1060109*
X1152170Y1059828*
X1152273Y1059688*
X1152273D02*
X1152580Y1059547D01*
X1153500*
X1152784D02*
X1152068Y1058000D01*
X1151045Y1060250D02*
Y1060391D01*
X1150943Y1060672*
X1150841Y1060813*
X1150841D02*
X1150636Y1060953D01*
X1150227*
X1150023Y1060813*
X1150023D02*
X1149920Y1060672D01*
X1149818Y1060391*
Y1060109*
X1149920Y1059828*
X1150125Y1059406*
X1151148Y1058000*
X1149716*
X1147364Y1060953D02*
X1148386Y1058000D01*
X1148795Y1060953D02*
X1147364D01*
X1146239D02*
X1145114D01*
X1145727Y1059828*
X1145420*
X1145216Y1059688*
X1145216D02*
X1145114Y1059547D01*
X1145011Y1059125*
Y1058844*
X1145114Y1058422*
X1145318Y1058141*
X1145625Y1058000*
X1145932*
X1146239Y1058141*
X1146341Y1058281*
X1146443Y1058563*
X1183000Y1070953D02*
Y1068000D01*
Y1070953D02*
X1182080D01*
X1181773Y1070813*
X1181773D02*
X1181670Y1070672D01*
X1181568Y1070391*
Y1070109*
X1181670Y1069828*
X1181773Y1069688*
X1181773D02*
X1182080Y1069547D01*
X1183000*
X1182284D02*
X1181568Y1068000D01*
X1180545Y1070250D02*
Y1070391D01*
X1180443Y1070672*
X1180341Y1070813*
X1180341D02*
X1180136Y1070953D01*
X1179727*
X1179523Y1070813*
X1179523D02*
X1179420Y1070672D01*
X1179318Y1070391*
Y1070109*
X1179420Y1069828*
X1179625Y1069406*
X1180648Y1068000*
X1179216*
X1176864Y1070953D02*
X1177886Y1068000D01*
X1178295Y1070953D02*
X1176864D01*
X1174920D02*
X1175943Y1068984D01*
X1174409*
X1174920Y1070953D02*
Y1068000D01*
X1573500Y1247102D02*
X1570875D01*
X1573500D02*
Y1248023D01*
X1573375Y1248330*
X1573250Y1248432*
X1573000Y1248534*
X1572750*
X1572500Y1248432*
X1572375Y1248330*
X1572250Y1248023*
Y1247102*
Y1247818D02*
X1570875Y1248534D01*
X1572875Y1249557D02*
X1573000D01*
X1573250Y1249659*
X1573375Y1249761*
X1573500Y1249966*
Y1250375*
X1573375Y1250580*
X1573250Y1250682*
X1573000Y1250784*
X1572750*
X1572500Y1250682*
X1572125Y1250477*
X1570875Y1249455*
Y1250886*
X1573500Y1252318D02*
X1573375Y1252011D01*
X1573125Y1251909*
X1572875*
X1572625Y1252011*
X1572500Y1252216*
X1572375Y1252625*
X1572250Y1252932*
X1572000Y1253136*
X1571750Y1253239*
X1571375*
X1571125Y1253136*
X1571000Y1253034*
X1570875Y1252727*
Y1252318*
X1571000Y1252011*
X1571125Y1251909*
X1571375Y1251807*
X1571750*
X1572000Y1251909*
X1572250Y1252114*
X1572375Y1252420*
X1572500Y1252830*
X1572625Y1253034*
X1572875Y1253136*
X1573125*
X1573375Y1253034*
X1573500Y1252727*
Y1252318*
X1572625Y1255489D02*
X1572250Y1255386D01*
X1572000Y1255182*
X1571875Y1254875*
Y1254773*
X1572000Y1254466*
X1572250Y1254261*
X1572625Y1254159*
X1572750*
X1573125Y1254261*
X1573375Y1254466*
X1573500Y1254773*
Y1254875*
X1573375Y1255182*
X1573125Y1255386*
X1572625Y1255489*
X1572000*
X1571375Y1255386*
X1571000Y1255182*
X1570875Y1254875*
Y1254670*
X1571000Y1254364*
X1571250Y1254261*
X1264875Y1110250D02*
X1262250D01*
X1264875D02*
Y1111170D01*
X1264750Y1111477*
X1264625Y1111580*
X1264375Y1111682*
X1264125*
X1263875Y1111580*
X1263750Y1111477*
X1263625Y1111170*
Y1110250*
Y1110966D02*
X1262250Y1111682D01*
X1264875Y1113932D02*
Y1112909D01*
X1263750Y1112807*
X1263875Y1112909*
X1264000Y1113216*
Y1113523*
X1263875Y1113830*
X1263625Y1114034*
X1263250Y1114136*
X1263000Y1114034*
X1262625Y1113932*
X1262375Y1113727*
X1262250Y1113420*
Y1113114*
X1262375Y1112807*
X1262500Y1112705*
X1262750Y1112602*
X1264375Y1115057D02*
X1264500Y1115261D01*
X1264875Y1115568*
X1262250*
X1264875Y1117920D02*
X1262250Y1116898D01*
X1264875Y1116489D02*
Y1117920D01*
X1265453Y1070500D02*
X1262500D01*
X1265453D02*
Y1071420D01*
X1265313Y1071727*
X1265313D02*
X1265172Y1071830D01*
X1264891Y1071932*
X1264609*
X1264328Y1071830*
X1264188Y1071727*
X1264188D02*
X1264047Y1071420D01*
Y1070500*
Y1071216D02*
X1262500Y1071932D01*
X1265453Y1073875D02*
X1263484Y1072852D01*
Y1074386*
X1265453Y1073875D02*
X1262500D01*
X1265453Y1076739D02*
X1262500Y1075716D01*
X1265453Y1075307D02*
Y1076739D01*
X1064953Y1386000D02*
X1062000D01*
X1064953D02*
Y1386920D01*
X1064813Y1387227*
X1064672Y1387330*
X1064391Y1387432*
X1064109*
X1063828Y1387330*
X1063688Y1387227*
X1063547Y1386920*
Y1386000*
Y1386716D02*
X1062000Y1387432D01*
X1064953Y1389375D02*
X1062984Y1388352D01*
Y1389886*
X1064953Y1389375D02*
X1062000D01*
X1064391Y1390807D02*
X1064531Y1391011D01*
X1064953Y1391318*
X1062000*
X1064953Y1392443D02*
Y1393568D01*
X1063828Y1392955*
Y1393261*
X1063688Y1393466*
X1063547Y1393568*
X1063125Y1393670*
X1062844*
X1062422Y1393568*
X1062141Y1393364*
X1062000Y1393057*
Y1392750*
X1062141Y1392443*
X1062281Y1392341*
X1062563Y1392239*
X1262875Y1151250D02*
X1260250D01*
X1262875D02*
Y1152170D01*
X1262750Y1152477*
X1262625Y1152580*
X1262375Y1152682*
X1262125*
X1261875Y1152580*
X1261750Y1152477*
X1261625Y1152170*
Y1151250*
Y1151966D02*
X1260250Y1152682D01*
X1262875Y1153807D02*
Y1154932D01*
X1261875Y1154318*
Y1154625*
X1261750Y1154830*
X1261625Y1154932*
X1261250Y1155034*
X1261000*
X1260625Y1154932*
X1260375Y1154727*
X1260250Y1154420*
Y1154114*
X1260375Y1153807*
X1260500Y1153705*
X1260750Y1153602*
X1262875Y1157386D02*
X1260250Y1156364D01*
X1262875Y1155955D02*
Y1157386D01*
X1174000Y1060453D02*
Y1057500D01*
Y1060453D02*
X1173080D01*
X1172773Y1060313*
X1172773D02*
X1172670Y1060172D01*
X1172568Y1059891*
Y1059609*
X1172670Y1059328*
X1172773Y1059188*
X1172773D02*
X1173080Y1059047D01*
X1174000*
X1173284D02*
X1172568Y1057500D01*
X1170216Y1060453D02*
X1171239Y1057500D01*
X1171648Y1060453D02*
X1170216D01*
X1168682D02*
X1168989Y1060313D01*
X1168989D02*
X1169193Y1059891D01*
X1169295Y1059188*
X1169295D02*
Y1058766D01*
X1169193Y1058063*
X1169193D02*
X1168989Y1057641D01*
X1168682Y1057500*
X1168477*
X1168170Y1057641*
X1167966Y1058063*
X1167966D02*
X1167864Y1058766D01*
Y1059188*
X1167864D02*
X1167966Y1059891D01*
X1168170Y1060313*
X1168170D02*
X1168477Y1060453D01*
X1168682*
X1156953Y1046000D02*
X1154000D01*
X1156953D02*
Y1046920D01*
X1156813Y1047227*
X1156813D02*
X1156672Y1047330D01*
X1156391Y1047432*
X1156109*
X1155828Y1047330*
X1155688Y1047227*
X1155688D02*
X1155547Y1046920D01*
Y1046000*
Y1046716D02*
X1154000Y1047432D01*
X1156953Y1049784D02*
X1154000Y1048761D01*
X1156953Y1048352D02*
Y1049784D01*
X1156391Y1050705D02*
X1156531Y1050909D01*
X1156953Y1051216*
X1154000*
X1188453Y1045500D02*
X1185500D01*
X1188453D02*
Y1046420D01*
X1188312Y1046727*
X1188312D02*
X1188172Y1046830D01*
X1187891Y1046932*
X1187609*
X1187328Y1046830*
X1187187Y1046727*
X1187187D02*
X1187047Y1046420D01*
Y1045500*
Y1046216D02*
X1185500Y1046932D01*
X1188453Y1049284D02*
X1185500Y1048261D01*
X1188453Y1047852D02*
Y1049284D01*
Y1050409D02*
Y1051534D01*
X1187328Y1050920*
Y1051227*
X1187187Y1051432*
X1187187D02*
X1187047Y1051534D01*
X1186625Y1051636*
X1186344*
X1185922Y1051534*
X1185641Y1051330*
X1185500Y1051023*
Y1050716*
X1185641Y1050409*
X1185781Y1050307*
X1186062Y1050205*
X1580823Y1277245D02*
Y1275136D01*
X1580720Y1274714*
X1580516Y1274433*
X1580209Y1274292*
X1580005*
X1579698Y1274433*
X1579493Y1274714*
X1579391Y1275136*
Y1277245*
X1577039D02*
X1578061Y1274292D01*
X1578470Y1277245D02*
X1577039D01*
X1576016Y1276542D02*
Y1276683D01*
X1575914Y1276964*
X1575811Y1277105*
X1575607Y1277245*
X1575198*
X1574993Y1277105*
X1574891Y1276964*
X1574789Y1276683*
Y1276402*
X1574891Y1276120*
X1575095Y1275698*
X1576118Y1274292*
X1574686*
X1476250Y1430284D02*
X1476500Y1430182D01*
X1476750Y1429977*
X1476875Y1429773*
Y1429364*
X1476750Y1429159*
X1476500Y1428955*
X1476250Y1428852*
X1475875Y1428750*
X1475250*
X1474875Y1428852*
X1474625Y1428955*
X1474375Y1429159*
X1474250Y1429364*
Y1429773*
X1474375Y1429977*
X1474625Y1430182*
X1474875Y1430284*
X1476875Y1431409D02*
Y1432534D01*
X1475875Y1431920*
Y1432227*
X1475750Y1432432*
X1475625Y1432534*
X1475250Y1432636*
X1475000*
X1474625Y1432534*
X1474375Y1432330*
X1474250Y1432023*
Y1431716*
X1474375Y1431409*
X1474500Y1431307*
X1474750Y1431205*
X1476375Y1433557D02*
X1476500Y1433761D01*
X1476875Y1434068*
X1474250*
X1476000Y1436318D02*
X1475625Y1436216D01*
X1475375Y1436011*
X1475250Y1435705*
Y1435602*
X1475375Y1435295*
X1475625Y1435091*
X1476000Y1434989*
X1476125*
X1476500Y1435091*
X1476750Y1435295*
X1476875Y1435602*
Y1435705*
X1476750Y1436011*
X1476500Y1436216*
X1476000Y1436318*
X1475375*
X1474750Y1436216*
X1474375Y1436011*
X1474250Y1435705*
Y1435500*
X1474375Y1435193*
X1474625Y1435091*
X1406240Y1428492D02*
X1406342Y1428773D01*
X1406547Y1429055*
X1406751Y1429195*
X1407160*
X1407365Y1429055*
X1407569Y1428773*
X1407672Y1428492*
X1407774Y1428070*
Y1427367*
X1407672Y1426945*
X1407569Y1426664*
X1407365Y1426383*
X1407160Y1426242*
X1406751*
X1406547Y1426383*
X1406342Y1426664*
X1406240Y1426945*
X1404092Y1428773D02*
X1404194Y1429055D01*
X1404501Y1429195*
X1404706*
X1405012Y1429055*
X1405012D02*
X1405217Y1428633D01*
X1405319Y1427930*
Y1427227*
X1405217Y1426664*
X1405012Y1426383*
X1405012D02*
X1404706Y1426242D01*
X1404603*
X1404297Y1426383*
X1404092Y1426664*
X1403990Y1427086*
Y1427227*
X1404092Y1427648*
X1404297Y1427930*
X1404603Y1428070*
X1404706*
X1405012Y1427930*
X1405012D02*
X1405217Y1427648D01*
X1405319Y1427227*
X1401740Y1429195D02*
X1402762D01*
X1402762D02*
X1402865Y1427930D01*
X1402762Y1428070*
X1402762D02*
X1402456Y1428211D01*
X1402149*
X1401842Y1428070*
X1401637Y1427789*
X1401637D02*
X1401535Y1427367D01*
X1401637Y1427086*
X1401637D02*
X1401740Y1426664D01*
X1401944Y1426383*
X1402251Y1426242*
X1402558*
X1402865Y1426383*
X1402967Y1426523*
X1403069Y1426805*
X1446716Y1443250D02*
X1446818Y1443500D01*
X1447023Y1443750*
X1447227Y1443875*
X1447636*
X1447841Y1443750*
X1448045Y1443500*
X1448148Y1443250*
X1448250Y1442875*
Y1442250*
X1448148Y1441875*
X1448045Y1441625*
X1447841Y1441375*
X1447636Y1441250*
X1447227*
X1447023Y1441375*
X1446818Y1441625*
X1446716Y1441875*
X1445591Y1443875D02*
X1444466D01*
X1445080Y1442875*
X1444773*
X1444568Y1442750*
X1444466Y1442625*
X1444364Y1442250*
Y1442000*
X1444466Y1441625*
X1444670Y1441375*
X1444977Y1441250*
X1445284*
X1445591Y1441375*
X1445693Y1441500*
X1445795Y1441750*
X1442114Y1443000D02*
X1442216Y1442625D01*
X1442420Y1442375*
X1442727Y1442250*
X1442830*
X1443136Y1442375*
X1443341Y1442625*
X1443443Y1443000*
Y1443125*
X1443341Y1443500*
X1443136Y1443750*
X1442830Y1443875*
X1442727*
X1442420Y1443750*
X1442216Y1443500*
X1442114Y1443000*
Y1442375*
X1442216Y1441750*
X1442420Y1441375*
X1442727Y1441250*
X1442932*
X1443239Y1441375*
X1443341Y1441625*
X1440580Y1443875D02*
X1440886Y1443750D01*
X1441091Y1443375*
X1441193Y1442750*
Y1442375*
X1441091Y1441750*
X1440886Y1441375*
X1440580Y1441250*
X1440375*
X1440068Y1441375*
X1439864Y1441750*
X1439761Y1442375*
Y1442750*
X1439864Y1443375*
X1440068Y1443750*
X1440375Y1443875*
X1440580*
X1423875Y1429750D02*
X1421250D01*
X1423875D02*
Y1430670D01*
X1423750Y1430977*
X1423625Y1431080*
X1423375Y1431182*
X1423125*
X1422875Y1431080*
X1422750Y1430977*
X1422625Y1430670*
Y1429750*
Y1430466D02*
X1421250Y1431182D01*
X1423375Y1432102D02*
X1423500Y1432307D01*
X1423875Y1432614*
X1421250*
X1423375Y1433534D02*
X1423500Y1433739D01*
X1423875Y1434045*
X1421250*
X1423875Y1436295D02*
Y1435273D01*
X1422750Y1435170*
X1422875Y1435273*
X1423000Y1435580*
Y1435886*
X1422875Y1436193*
X1422625Y1436398*
X1422250Y1436500*
X1422000Y1436398*
X1421625Y1436295*
X1421375Y1436091*
X1421250Y1435784*
Y1435477*
X1421375Y1435170*
X1421500Y1435068*
X1421750Y1434966*
X1295000Y1185453D02*
Y1183344D01*
X1294898Y1182922*
X1294693Y1182641*
X1294386Y1182500*
X1294182*
X1293875Y1182641*
X1293670Y1182922*
X1293568Y1183344*
Y1185453*
X1292545Y1184750D02*
Y1184891D01*
X1292443Y1185172*
X1292341Y1185313*
X1292341D02*
X1292136Y1185453D01*
X1291727*
X1291523Y1185313*
X1291523D02*
X1291420Y1185172D01*
X1291318Y1184891*
Y1184609*
X1291420Y1184328*
X1291625Y1183906*
X1292648Y1182500*
X1291216*
X1290295Y1184891D02*
X1290091Y1185031D01*
X1289784Y1185453*
Y1182500*
X1328453Y1173000D02*
X1325500D01*
X1328453D02*
Y1173920D01*
X1328313Y1174227*
X1328313D02*
X1328172Y1174330D01*
X1327891Y1174432*
X1327609*
X1327328Y1174330*
X1327188Y1174227*
X1327188D02*
X1327047Y1173920D01*
Y1173000*
Y1173716D02*
X1325500Y1174432D01*
X1327891Y1175352D02*
X1328031Y1175557D01*
X1328453Y1175864*
X1325500*
X1265375Y1191750D02*
X1262750D01*
X1265375D02*
Y1192670D01*
X1265250Y1192977*
X1265125Y1193080*
X1264875Y1193182*
X1264625*
X1264375Y1193080*
X1264250Y1192977*
X1264125Y1192670*
Y1191750*
Y1192466D02*
X1262750Y1193182D01*
X1264750Y1194205D02*
X1264875D01*
X1265125Y1194307*
X1265250Y1194409*
X1265375Y1194614*
Y1195023*
X1265250Y1195227*
X1265125Y1195330*
X1264875Y1195432*
X1264625*
X1264375Y1195330*
X1264000Y1195125*
X1262750Y1194102*
Y1195534*
X1264750Y1196557D02*
X1264875D01*
X1265125Y1196659*
X1265250Y1196761*
X1265375Y1196966*
Y1197375*
X1265250Y1197580*
X1265125Y1197682*
X1264875Y1197784*
X1264625*
X1264375Y1197682*
X1264000Y1197477*
X1262750Y1196455*
Y1197886*
X1265953Y1091000D02*
X1263000D01*
X1265953D02*
Y1091920D01*
X1265813Y1092227*
X1265813D02*
X1265672Y1092330D01*
X1265391Y1092432*
X1265109*
X1264828Y1092330*
X1264688Y1092227*
X1264688D02*
X1264547Y1091920D01*
Y1091000*
Y1091716D02*
X1263000Y1092432D01*
X1265391Y1093352D02*
X1265531Y1093557D01*
X1265953Y1093864*
X1263000*
X1265953Y1095295D02*
X1265813Y1094989D01*
X1265813D02*
X1265531Y1094886D01*
X1265250*
X1264969Y1094989*
X1264828Y1095193*
X1264688Y1095602*
X1264688D02*
X1264547Y1095909D01*
X1264266Y1096114*
X1263984Y1096216*
X1263563*
X1263563D02*
X1263281Y1096114D01*
X1263141Y1096011*
X1263000Y1095705*
Y1095295*
X1263141Y1094989*
X1263281Y1094886*
X1263563Y1094784*
X1263563D02*
X1263984D01*
X1264266Y1094886*
X1264547Y1095091*
X1264688Y1095398*
X1264688D02*
X1264828Y1095807D01*
X1264969Y1096011*
X1265250Y1096114*
X1265531*
X1265813Y1096011*
X1265813D02*
X1265953Y1095705D01*
Y1095295*
X1261875Y1172250D02*
X1259250D01*
X1261875D02*
Y1173170D01*
X1261750Y1173477*
X1261625Y1173580*
X1261375Y1173682*
X1261125*
X1260875Y1173580*
X1260750Y1173477*
X1260625Y1173170*
Y1172250*
Y1172966D02*
X1259250Y1173682D01*
X1261250Y1174705D02*
X1261375D01*
X1261625Y1174807*
X1261750Y1174909*
X1261875Y1175114*
Y1175523*
X1261750Y1175727*
X1261625Y1175830*
X1261375Y1175932*
X1261125*
X1260875Y1175830*
X1260500Y1175625*
X1259250Y1174602*
Y1176034*
X1327453Y1192500D02*
X1324500D01*
X1327453D02*
Y1193420D01*
X1327313Y1193727*
X1327313D02*
X1327172Y1193830D01*
X1326891Y1193932*
X1326609*
X1326328Y1193830*
X1326188Y1193727*
X1326188D02*
X1326047Y1193420D01*
Y1192500*
Y1193216D02*
X1324500Y1193932D01*
X1326891Y1194852D02*
X1327031Y1195057D01*
X1327453Y1195364*
X1324500*
X1326469Y1197614D02*
X1326047Y1197511D01*
X1325766Y1197307*
X1325625Y1197000*
Y1196898*
X1325766Y1196591*
X1326047Y1196386*
X1326469Y1196284*
X1326609*
X1327031Y1196386*
X1327313Y1196591*
X1327313D02*
X1327453Y1196898D01*
Y1197000*
X1327313Y1197307*
X1327313D02*
X1327031Y1197511D01*
X1326469Y1197614*
X1325766*
X1325063Y1197511*
X1325063D02*
X1324641Y1197307D01*
X1324500Y1197000*
Y1196795*
X1324641Y1196489*
X1324922Y1196386*
X1041375Y1148250D02*
X1038750D01*
X1041375D02*
Y1149170D01*
X1041250Y1149477*
X1041125Y1149580*
X1040875Y1149682*
X1040625*
X1040375Y1149580*
X1040250Y1149477*
X1040125Y1149170*
Y1148250*
Y1148966D02*
X1038750Y1149682D01*
X1040875Y1150602D02*
X1041000Y1150807D01*
X1041375Y1151114*
X1038750*
X1041000Y1153261D02*
X1041250Y1153159D01*
X1041375Y1152852*
Y1152648*
X1041250Y1152341*
X1040875Y1152136*
X1040250Y1152034*
X1039625*
X1039125Y1152136*
X1038875Y1152341*
X1038750Y1152648*
Y1152750*
X1038875Y1153057*
X1039125Y1153261*
X1039500Y1153364*
X1039625*
X1040000Y1153261*
X1040250Y1153057*
X1040375Y1152750*
Y1152648*
X1040250Y1152341*
X1040000Y1152136*
X1039625Y1152034*
X1040500Y1155614D02*
X1040125Y1155511D01*
X1039875Y1155307*
X1039750Y1155000*
Y1154898*
X1039875Y1154591*
X1040125Y1154386*
X1040500Y1154284*
X1040625*
X1041000Y1154386*
X1041250Y1154591*
X1041375Y1154898*
Y1155000*
X1041250Y1155307*
X1041000Y1155511*
X1040500Y1155614*
X1039875*
X1039250Y1155511*
X1038875Y1155307*
X1038750Y1155000*
Y1154795*
X1038875Y1154489*
X1039125Y1154386*
X1044375Y1129750D02*
X1041750D01*
X1044375D02*
Y1130670D01*
X1044250Y1130977*
X1044125Y1131080*
X1043875Y1131182*
X1043625*
X1043375Y1131080*
X1043250Y1130977*
X1043125Y1130670*
Y1129750*
Y1130466D02*
X1041750Y1131182D01*
X1043875Y1132102D02*
X1044000Y1132307D01*
X1044375Y1132614*
X1041750*
X1044375Y1134966D02*
X1041750Y1133943D01*
X1044375Y1133534D02*
Y1134966D01*
X1043875Y1135886D02*
X1044000Y1136091D01*
X1044375Y1136398*
X1041750*
X1035875Y1184250D02*
X1033250D01*
X1035875D02*
Y1185170D01*
X1035750Y1185477*
X1035625Y1185580*
X1035375Y1185682*
X1035125*
X1034875Y1185580*
X1034750Y1185477*
X1034625Y1185170*
Y1184250*
Y1184966D02*
X1033250Y1185682D01*
X1035250Y1186705D02*
X1035375D01*
X1035625Y1186807*
X1035750Y1186909*
X1035875Y1187114*
Y1187523*
X1035750Y1187727*
X1035625Y1187830*
X1035375Y1187932*
X1035125*
X1034875Y1187830*
X1034500Y1187625*
X1033250Y1186602*
Y1188034*
X1035875Y1189568D02*
X1035750Y1189261D01*
X1035375Y1189057*
X1034750Y1188955*
X1034375*
X1033750Y1189057*
X1033375Y1189261*
X1033250Y1189568*
Y1189773*
X1033375Y1190080*
X1033750Y1190284*
X1034375Y1190386*
X1034750*
X1035375Y1190284*
X1035750Y1190080*
X1035875Y1189773*
Y1189568*
X1038375Y1163750D02*
X1035750D01*
X1038375D02*
Y1164670D01*
X1038250Y1164977*
X1038125Y1165080*
X1037875Y1165182*
X1037625*
X1037375Y1165080*
X1037250Y1164977*
X1037125Y1164670*
Y1163750*
Y1164466D02*
X1035750Y1165182D01*
X1037750Y1166205D02*
X1037875D01*
X1038125Y1166307*
X1038250Y1166409*
X1038375Y1166614*
Y1167023*
X1038250Y1167227*
X1038125Y1167330*
X1037875Y1167432*
X1037625*
X1037375Y1167330*
X1037000Y1167125*
X1035750Y1166102*
Y1167534*
X1037875Y1168455D02*
X1038000Y1168659D01*
X1038375Y1168966*
X1035750*
X1028953Y1409500D02*
X1026000D01*
X1028953D02*
Y1410420D01*
X1028813Y1410727*
X1028813D02*
X1028672Y1410830D01*
X1028391Y1410932*
X1028109*
X1027828Y1410830*
X1027688Y1410727*
X1027688D02*
X1027547Y1410420D01*
Y1409500*
Y1410216D02*
X1026000Y1410932D01*
X1028250Y1411955D02*
X1028391D01*
X1028672Y1412057*
X1028813Y1412159*
X1028813D02*
X1028953Y1412364D01*
Y1412773*
X1028813Y1412977*
X1028813D02*
X1028672Y1413080D01*
X1028391Y1413182*
X1028109*
X1027828Y1413080*
X1027406Y1412875*
X1026000Y1411852*
Y1413284*
X1028953Y1415534D02*
Y1414511D01*
X1027688Y1414409*
X1027688D02*
X1027828Y1414511D01*
X1027969Y1414818*
Y1415125*
X1027828Y1415432*
X1027547Y1415636*
X1027125Y1415739*
X1026844Y1415636*
X1026422Y1415534*
X1026141Y1415330*
X1026000Y1415023*
Y1414716*
X1026141Y1414409*
X1026281Y1414307*
X1026563Y1414205*
X1028953Y1417273D02*
X1028813Y1416966D01*
X1028813D02*
X1028391Y1416761D01*
X1027688Y1416659*
X1027688D02*
X1027266D01*
X1026563Y1416761*
X1026563D02*
X1026141Y1416966D01*
X1026000Y1417273*
Y1417477*
X1026141Y1417784*
X1026563Y1417989*
X1026563D02*
X1027266Y1418091D01*
X1027688*
X1027688D02*
X1028391Y1417989D01*
X1028813Y1417784*
X1028813D02*
X1028953Y1417477D01*
Y1417273*
X1070853Y1345800D02*
X1067900D01*
X1070853D02*
Y1346720D01*
X1070713Y1347027*
X1070572Y1347130*
X1070291Y1347232*
X1070009*
X1069728Y1347130*
X1069588Y1347027*
X1069447Y1346720*
Y1345800*
Y1346516D02*
X1067900Y1347232D01*
X1070150Y1348255D02*
X1070291D01*
X1070572Y1348357*
X1070713Y1348459*
X1070853Y1348664*
Y1349073*
X1070713Y1349277*
X1070572Y1349380*
X1070291Y1349482*
X1070009*
X1069728Y1349380*
X1069306Y1349175*
X1067900Y1348152*
Y1349584*
X1070853Y1351834D02*
Y1350811D01*
X1069588Y1350709*
X1069728Y1350811*
X1069869Y1351118*
Y1351425*
X1069728Y1351732*
X1069447Y1351936*
X1069025Y1352039*
X1068744Y1351936*
X1068322Y1351834*
X1068041Y1351630*
X1067900Y1351323*
Y1351016*
X1068041Y1350709*
X1068181Y1350607*
X1068463Y1350505*
X1070853Y1353164D02*
Y1354289D01*
X1069728Y1353675*
Y1353982*
X1069588Y1354186*
X1069447Y1354289*
X1069025Y1354391*
X1068744*
X1068322Y1354289*
X1068041Y1354084*
X1067900Y1353777*
Y1353470*
X1068041Y1353164*
X1068181Y1353061*
X1068463Y1352959*
X1070653Y1301200D02*
X1067700D01*
X1070653D02*
Y1302120D01*
X1070513Y1302427*
X1070513D02*
X1070372Y1302530D01*
X1070091Y1302632*
X1069809*
X1069528Y1302530*
X1069388Y1302427*
X1069388D02*
X1069247Y1302120D01*
Y1301200*
Y1301916D02*
X1067700Y1302632D01*
X1069950Y1303655D02*
X1070091D01*
X1070372Y1303757*
X1070513Y1303859*
X1070513D02*
X1070653Y1304064D01*
Y1304473*
X1070513Y1304677*
X1070513D02*
X1070372Y1304780D01*
X1070091Y1304882*
X1069809*
X1069528Y1304780*
X1069106Y1304575*
X1067700Y1303552*
Y1304984*
X1070653Y1307234D02*
Y1306211D01*
X1069388Y1306109*
X1069388D02*
X1069528Y1306211D01*
X1069669Y1306518*
Y1306825*
X1069528Y1307132*
X1069247Y1307336*
X1068825Y1307439*
X1068544Y1307336*
X1068122Y1307234*
X1067841Y1307030*
X1067700Y1306723*
Y1306416*
X1067841Y1306109*
X1067981Y1306007*
X1068263Y1305905*
X1070653Y1309791D02*
X1067700Y1308768D01*
X1070653Y1308359D02*
Y1309791D01*
X1030953Y1217000D02*
X1028000D01*
X1030953D02*
Y1217920D01*
X1030813Y1218227*
X1030813D02*
X1030672Y1218330D01*
X1030391Y1218432*
X1030109*
X1029828Y1218330*
X1029688Y1218227*
X1029688D02*
X1029547Y1217920D01*
Y1217000*
Y1217716D02*
X1028000Y1218432D01*
X1030250Y1219455D02*
X1030391D01*
X1030672Y1219557*
X1030813Y1219659*
X1030813D02*
X1030953Y1219864D01*
Y1220273*
X1030813Y1220477*
X1030813D02*
X1030672Y1220580D01*
X1030391Y1220682*
X1030109*
X1029828Y1220580*
X1029406Y1220375*
X1028000Y1219352*
Y1220784*
X1030953Y1223136D02*
X1028000Y1222114D01*
X1030953Y1221705D02*
Y1223136D01*
X1033375Y1201250D02*
X1030750D01*
X1033375D02*
Y1202170D01*
X1033250Y1202477*
X1033125Y1202580*
X1032875Y1202682*
X1032625*
X1032375Y1202580*
X1032250Y1202477*
X1032125Y1202170*
Y1201250*
Y1201966D02*
X1030750Y1202682D01*
X1032750Y1203705D02*
X1032875D01*
X1033125Y1203807*
X1033250Y1203909*
X1033375Y1204114*
Y1204523*
X1033250Y1204727*
X1033125Y1204830*
X1032875Y1204932*
X1032625*
X1032375Y1204830*
X1032000Y1204625*
X1030750Y1203602*
Y1205034*
X1032500Y1207284D02*
X1032125Y1207182D01*
X1031875Y1206977*
X1031750Y1206670*
Y1206568*
X1031875Y1206261*
X1032125Y1206057*
X1032500Y1205955*
X1032625*
X1033000Y1206057*
X1033250Y1206261*
X1033375Y1206568*
Y1206670*
X1033250Y1206977*
X1033000Y1207182*
X1032500Y1207284*
X1031875*
X1031250Y1207182*
X1030875Y1206977*
X1030750Y1206670*
Y1206466*
X1030875Y1206159*
X1031125Y1206057*
X1029375Y1255750D02*
X1026750D01*
X1029375D02*
Y1256670D01*
X1029250Y1256977*
X1029125Y1257080*
X1028875Y1257182*
X1028625*
X1028375Y1257080*
X1028250Y1256977*
X1028125Y1256670*
Y1255750*
Y1256466D02*
X1026750Y1257182D01*
X1029375Y1259432D02*
Y1258409D01*
X1028250Y1258307*
X1028375Y1258409*
X1028500Y1258716*
Y1259023*
X1028375Y1259330*
X1028125Y1259534*
X1027750Y1259636*
X1027500Y1259534*
X1027125Y1259432*
X1026875Y1259227*
X1026750Y1258920*
Y1258614*
X1026875Y1258307*
X1027000Y1258205*
X1027250Y1258102*
X1028875Y1260557D02*
X1029000Y1260761D01*
X1029375Y1261068*
X1026750*
X1025375Y1238250D02*
X1022750D01*
X1025375D02*
Y1239170D01*
X1025250Y1239477*
X1025125Y1239580*
X1024875Y1239682*
X1024625*
X1024375Y1239580*
X1024250Y1239477*
X1024125Y1239170*
Y1238250*
Y1238966D02*
X1022750Y1239682D01*
X1025375Y1241932D02*
Y1240909D01*
X1024250Y1240807*
X1024375Y1240909*
X1024500Y1241216*
Y1241523*
X1024375Y1241830*
X1024125Y1242034*
X1023750Y1242136*
X1023500Y1242034*
X1023125Y1241932*
X1022875Y1241727*
X1022750Y1241420*
Y1241114*
X1022875Y1240807*
X1023000Y1240705*
X1023250Y1240602*
X1024750Y1243159D02*
X1024875D01*
X1025125Y1243261*
X1025250Y1243364*
X1025375Y1243568*
Y1243977*
X1025250Y1244182*
X1025125Y1244284*
X1024875Y1244386*
X1024625*
X1024375Y1244284*
X1024000Y1244080*
X1022750Y1243057*
Y1244489*
X1051453Y1070000D02*
X1048500D01*
X1051453D02*
Y1070920D01*
X1051312Y1071227*
X1051312D02*
X1051172Y1071330D01*
X1050891Y1071432*
X1050609*
X1050328Y1071330*
X1050187Y1071227*
X1050187D02*
X1050047Y1070920D01*
Y1070000*
Y1070716D02*
X1048500Y1071432D01*
X1051453Y1073682D02*
Y1072659D01*
X1050187Y1072557*
X1050187D02*
X1050328Y1072659D01*
X1050469Y1072966*
Y1073273*
X1050328Y1073580*
X1050047Y1073784*
X1049625Y1073886*
X1049344Y1073784*
X1048922Y1073682*
X1048641Y1073477*
X1048500Y1073170*
Y1072864*
X1048641Y1072557*
X1048781Y1072455*
X1049062Y1072352*
X1051453Y1075011D02*
Y1076136D01*
X1050328Y1075523*
Y1075830*
X1050187Y1076034*
X1050187D02*
X1050047Y1076136D01*
X1049625Y1076239*
X1049344*
X1048922Y1076136*
X1048641Y1075932*
X1048500Y1075625*
Y1075318*
X1048641Y1075011*
X1048781Y1074909*
X1049062Y1074807*
X1055875Y1052250D02*
X1053250D01*
X1055875D02*
Y1053170D01*
X1055750Y1053477*
X1055625Y1053580*
X1055375Y1053682*
X1055125*
X1054875Y1053580*
X1054750Y1053477*
X1054625Y1053170*
Y1052250*
Y1052966D02*
X1053250Y1053682D01*
X1055875Y1055932D02*
Y1054909D01*
X1054750Y1054807*
X1054875Y1054909*
X1055000Y1055216*
Y1055523*
X1054875Y1055830*
X1054625Y1056034*
X1054250Y1056136*
X1054000Y1056034*
X1053625Y1055932*
X1053375Y1055727*
X1053250Y1055420*
Y1055114*
X1053375Y1054807*
X1053500Y1054705*
X1053750Y1054602*
X1055875Y1058080D02*
X1054125Y1057057D01*
Y1058591*
X1055875Y1058080D02*
X1053250D01*
X1048375Y1109250D02*
X1045750D01*
X1048375D02*
Y1110170D01*
X1048250Y1110477*
X1048125Y1110580*
X1047875Y1110682*
X1047625*
X1047375Y1110580*
X1047250Y1110477*
X1047125Y1110170*
Y1109250*
Y1109966D02*
X1045750Y1110682D01*
X1048375Y1112932D02*
Y1111909D01*
X1047250Y1111807*
X1047375Y1111909*
X1047500Y1112216*
Y1112523*
X1047375Y1112830*
X1047125Y1113034*
X1046750Y1113136*
X1046500Y1113034*
X1046125Y1112932*
X1045875Y1112727*
X1045750Y1112420*
Y1112114*
X1045875Y1111807*
X1046000Y1111705*
X1046250Y1111602*
X1048375Y1115386D02*
Y1114364D01*
X1047250Y1114261*
X1047375Y1114364*
X1047500Y1114670*
Y1114977*
X1047375Y1115284*
X1047125Y1115489*
X1046750Y1115591*
X1046500Y1115489*
X1046125Y1115386*
X1045875Y1115182*
X1045750Y1114875*
Y1114568*
X1045875Y1114261*
X1046000Y1114159*
X1046250Y1114057*
X1050375Y1091750D02*
X1047750D01*
X1050375D02*
Y1092670D01*
X1050250Y1092977*
X1050125Y1093080*
X1049875Y1093182*
X1049625*
X1049375Y1093080*
X1049250Y1092977*
X1049125Y1092670*
Y1091750*
Y1092466D02*
X1047750Y1093182D01*
X1050375Y1095432D02*
Y1094409D01*
X1049250Y1094307*
X1049375Y1094409*
X1049500Y1094716*
Y1095023*
X1049375Y1095330*
X1049125Y1095534*
X1048750Y1095636*
X1048500Y1095534*
X1048125Y1095432*
X1047875Y1095227*
X1047750Y1094920*
Y1094614*
X1047875Y1094307*
X1048000Y1094205*
X1048250Y1094102*
X1050000Y1097784D02*
X1050250Y1097682D01*
X1050375Y1097375*
Y1097170*
X1050250Y1096864*
X1049875Y1096659*
X1049250Y1096557*
X1048625*
X1048125Y1096659*
X1047875Y1096864*
X1047750Y1097170*
Y1097273*
X1047875Y1097580*
X1048125Y1097784*
X1048500Y1097886*
X1048625*
X1049000Y1097784*
X1049250Y1097580*
X1049375Y1097273*
Y1097170*
X1049250Y1096864*
X1049000Y1096659*
X1048625Y1096557*
X1060000Y1034460D02*
X1057375D01*
X1060000D02*
Y1035381D01*
X1059875Y1035688*
X1059875D02*
X1059750Y1035790D01*
X1059500Y1035892*
X1059250*
X1059000Y1035790*
X1058875Y1035688*
X1058875D02*
X1058750Y1035381D01*
Y1034460*
Y1035176D02*
X1057375Y1035892D01*
X1060000Y1038142D02*
Y1037119D01*
X1058875Y1037017*
X1059000Y1037119*
X1059125Y1037426*
Y1037733*
X1059000Y1038040*
X1058750Y1038244*
X1058375Y1038347*
X1058125Y1038244*
X1057750Y1038142*
X1057500Y1037938*
X1057500D02*
X1057375Y1037631D01*
Y1037324*
X1057500Y1037017*
X1057625Y1036915*
X1057875Y1036813*
X1060000Y1040699D02*
X1057375Y1039676D01*
X1060000Y1039267D02*
Y1040699D01*
X1060875Y1010750D02*
X1058250D01*
X1060875D02*
Y1011670D01*
X1060750Y1011977*
X1060625Y1012080*
X1060375Y1012182*
X1060125*
X1059875Y1012080*
X1059750Y1011977*
X1059625Y1011670*
Y1010750*
Y1011466D02*
X1058250Y1012182D01*
X1060875Y1014432D02*
Y1013409D01*
X1059750Y1013307*
X1059875Y1013409*
X1060000Y1013716*
Y1014023*
X1059875Y1014330*
X1059625Y1014534*
X1059250Y1014636*
X1059000Y1014534*
X1058625Y1014432*
X1058375Y1014227*
X1058250Y1013920*
Y1013614*
X1058375Y1013307*
X1058500Y1013205*
X1058750Y1013102*
X1060875Y1016068D02*
X1060750Y1015761D01*
X1060500Y1015659*
X1060250*
X1060000Y1015761*
X1059875Y1015966*
X1059750Y1016375*
X1059625Y1016682*
X1059375Y1016886*
X1059125Y1016989*
X1058750*
X1058500Y1016886*
X1058375Y1016784*
X1058250Y1016477*
Y1016068*
X1058375Y1015761*
X1058500Y1015659*
X1058750Y1015557*
X1059125*
X1059375Y1015659*
X1059625Y1015864*
X1059750Y1016170*
X1059875Y1016580*
X1060000Y1016784*
X1060250Y1016886*
X1060500*
X1060750Y1016784*
X1060875Y1016477*
Y1016068*
X1019953Y1291000D02*
X1017000D01*
X1019953D02*
Y1291920D01*
X1019812Y1292227*
X1019812D02*
X1019672Y1292330D01*
X1019391Y1292432*
X1019109*
X1018828Y1292330*
X1018687Y1292227*
X1018687D02*
X1018547Y1291920D01*
Y1291000*
Y1291716D02*
X1017000Y1292432D01*
X1019953Y1294682D02*
Y1293659D01*
X1018687Y1293557*
X1018687D02*
X1018828Y1293659D01*
X1018969Y1293966*
Y1294273*
X1018828Y1294580*
X1018547Y1294784*
X1018125Y1294886*
X1017844Y1294784*
X1017422Y1294682*
X1017141Y1294477*
X1017000Y1294170*
Y1293864*
X1017141Y1293557*
X1017281Y1293455*
X1017562Y1293352*
X1018969Y1297136D02*
X1018547Y1297034D01*
X1018266Y1296830*
X1018125Y1296523*
Y1296420*
X1018266Y1296114*
X1018547Y1295909*
X1018969Y1295807*
X1019109*
X1019531Y1295909*
X1019812Y1296114*
X1019812D02*
X1019953Y1296420D01*
Y1296523*
X1019812Y1296830*
X1019812D02*
X1019531Y1297034D01*
X1018969Y1297136*
X1018266*
X1017562Y1297034*
X1017562D02*
X1017141Y1296830D01*
X1017000Y1296523*
Y1296318*
X1017141Y1296011*
X1017422Y1295909*
X1023953Y1273500D02*
X1021000D01*
X1023953D02*
Y1274420D01*
X1023813Y1274727*
X1023813D02*
X1023672Y1274830D01*
X1023391Y1274932*
X1023109*
X1022828Y1274830*
X1022688Y1274727*
X1022688D02*
X1022547Y1274420D01*
Y1273500*
Y1274216D02*
X1021000Y1274932D01*
X1023531Y1277080D02*
X1023813Y1276977D01*
X1023813D02*
X1023953Y1276670D01*
Y1276466*
X1023813Y1276159*
X1023813D02*
X1023391Y1275955D01*
X1022688Y1275852*
X1022688D02*
X1021984D01*
X1021422Y1275955*
X1021141Y1276159*
X1021000Y1276466*
Y1276568*
X1021141Y1276875*
X1021422Y1277080*
X1021844Y1277182*
X1021984*
X1022406Y1277080*
X1022688Y1276875*
X1022688D02*
X1022828Y1276568D01*
Y1276466*
X1022688Y1276159*
X1022688D02*
X1022406Y1275955D01*
X1021984Y1275852*
X1023953Y1278716D02*
X1023813Y1278409D01*
X1023813D02*
X1023391Y1278205D01*
X1022688Y1278102*
X1022688D02*
X1022266D01*
X1021563Y1278205*
X1021563D02*
X1021141Y1278409D01*
X1021000Y1278716*
Y1278920*
X1021141Y1279227*
X1021563Y1279432*
X1021563D02*
X1022266Y1279534D01*
X1022688*
X1022688D02*
X1023391Y1279432D01*
X1023813Y1279227*
X1023813D02*
X1023953Y1278920D01*
Y1278716*
X1028953Y1391500D02*
X1026000D01*
X1028953D02*
Y1392420D01*
X1028813Y1392727*
X1028813D02*
X1028672Y1392830D01*
X1028391Y1392932*
X1028109*
X1027828Y1392830*
X1027688Y1392727*
X1027688D02*
X1027547Y1392420D01*
Y1391500*
Y1392216D02*
X1026000Y1392932D01*
X1028250Y1393955D02*
X1028391D01*
X1028672Y1394057*
X1028813Y1394159*
X1028813D02*
X1028953Y1394364D01*
Y1394773*
X1028813Y1394977*
X1028813D02*
X1028672Y1395080D01*
X1028391Y1395182*
X1028109*
X1027828Y1395080*
X1027406Y1394875*
X1026000Y1393852*
Y1395284*
X1028953Y1396409D02*
Y1397534D01*
X1027828Y1396920*
Y1397227*
X1027688Y1397432*
X1027688D02*
X1027547Y1397534D01*
X1027125Y1397636*
X1026844*
X1026422Y1397534*
X1026141Y1397330*
X1026000Y1397023*
Y1396716*
X1026141Y1396409*
X1026281Y1396307*
X1026563Y1396205*
X1028953Y1398761D02*
Y1399886D01*
X1027828Y1399273*
Y1399580*
X1027688Y1399784*
X1027688D02*
X1027547Y1399886D01*
X1027125Y1399989*
X1026844*
X1026422Y1399886*
X1026141Y1399682*
X1026000Y1399375*
Y1399068*
X1026141Y1398761*
X1026281Y1398659*
X1026563Y1398557*
X1629178Y1153281D02*
X1630087Y1150000D01*
X1629178Y1153281D02*
X1628268Y1150000D01*
X1629746Y1151094D02*
X1628609D01*
X1626678Y1153281D02*
X1627018Y1153125D01*
X1627132Y1152813*
X1627132D02*
Y1152500D01*
X1627018Y1152188*
X1627018D02*
X1626791Y1152031D01*
X1626337Y1151875*
X1625996Y1151719*
X1625768Y1151406*
X1625655Y1151094*
Y1150625*
X1625768Y1150313*
X1625768D02*
X1625882Y1150156D01*
X1626223Y1150000*
X1626678*
X1627018Y1150156*
X1627132Y1150313*
X1627132D02*
X1627246Y1150625D01*
Y1151094*
X1627132Y1151406*
X1626905Y1151719*
X1626564Y1151875*
X1626109Y1152031*
X1625882Y1152188*
X1625882D02*
X1625768Y1152500D01*
Y1152813*
X1625768D02*
X1625882Y1153125D01*
X1626223Y1153281*
X1626678*
X1629178Y1086281D02*
X1630087Y1083000D01*
X1629178Y1086281D02*
X1628268Y1083000D01*
X1629746Y1084094D02*
X1628609D01*
X1627246Y1085656D02*
X1627018Y1085813D01*
X1627018D02*
X1626678Y1086281D01*
Y1083000*
X1585087Y1086281D02*
Y1083000D01*
X1584064Y1085656D02*
X1583837Y1085813D01*
X1583837D02*
X1583496Y1086281D01*
Y1083000*
X1587087Y1153281D02*
Y1150000D01*
X1586064Y1152656D02*
X1585837Y1152813D01*
X1585837D02*
X1585496Y1153281D01*
Y1150000*
X1583905Y1153281D02*
X1584246Y1153125D01*
X1584359Y1152813*
X1584359D02*
Y1152500D01*
X1584246Y1152188*
X1584246D02*
X1584018Y1152031D01*
X1583564Y1151875*
X1583223Y1151719*
X1582996Y1151406*
X1582882Y1151094*
Y1150625*
X1582996Y1150313*
X1582996D02*
X1583109Y1150156D01*
X1583450Y1150000*
X1583905*
X1584246Y1150156*
X1584359Y1150313*
X1584359D02*
X1584473Y1150625D01*
Y1151094*
X1584359Y1151406*
X1584132Y1151719*
X1583791Y1151875*
X1583337Y1152031*
X1583109Y1152188*
X1583109D02*
X1582996Y1152500D01*
Y1152813*
X1582996D02*
X1583109Y1153125D01*
X1583450Y1153281*
X1583905*
X1580587Y1091656D02*
X1580359Y1091813D01*
X1580359D02*
X1580018Y1092281D01*
Y1089000*
X1579973Y1099500D02*
Y1099656D01*
X1579859Y1099969*
X1579746Y1100125*
X1579518Y1100281*
X1579064*
X1578837Y1100125*
X1578723Y1099969*
X1578609Y1099656*
Y1099344*
X1578723Y1099031*
X1578950Y1098563*
X1578950D02*
X1580087Y1097000D01*
X1578496*
X1579859Y1107781D02*
X1578609D01*
X1579291Y1106531*
X1578950*
X1578723Y1106375*
X1578609Y1106219*
X1578496Y1105750*
Y1105438*
X1578496D02*
X1578609Y1104969D01*
X1578837Y1104656*
X1579178Y1104500*
X1579518*
X1579859Y1104656*
X1579973Y1104813*
X1579973D02*
X1580087Y1105125D01*
X1578950Y1115781D02*
X1580087Y1113594D01*
X1578382*
X1578950Y1115781D02*
Y1112500D01*
X1578609Y1123781D02*
X1579746D01*
X1579859Y1122375*
X1579746Y1122531*
X1579405Y1122688*
X1579405D02*
X1579064D01*
X1579064D02*
X1578723Y1122531D01*
X1578496Y1122219*
X1578382Y1121750*
X1578496Y1121438*
X1578496D02*
X1578609Y1120969D01*
X1578837Y1120656*
X1579178Y1120500*
X1579518*
X1579859Y1120656*
X1579973Y1120813*
X1579973D02*
X1580087Y1121125D01*
X1578723Y1131313D02*
X1578837Y1131625D01*
X1579178Y1131781*
X1579405*
X1579746Y1131625*
X1579973Y1131156*
X1580087Y1130375*
Y1129594*
X1579973Y1128969*
X1579746Y1128656*
X1579405Y1128500*
X1579291*
X1578950Y1128656*
X1578723Y1128969*
X1578609Y1129438*
X1578609D02*
Y1129594D01*
X1578723Y1130063*
X1578723D02*
X1578950Y1130375D01*
X1579291Y1130531*
X1579405*
X1579746Y1130375*
X1579973Y1130063*
X1579973D02*
X1580087Y1129594D01*
X1578496Y1139781D02*
X1579632Y1136500D01*
X1580087Y1139781D02*
X1578496D01*
X1579518Y1147781D02*
X1579859Y1147625D01*
X1579973Y1147313*
X1579973D02*
Y1147000D01*
X1579859Y1146688*
X1579859D02*
X1579632Y1146531D01*
X1579178Y1146375*
X1578837Y1146219*
X1578609Y1145906*
X1578496Y1145594*
Y1145125*
X1578609Y1144813*
X1578609D02*
X1578723Y1144656D01*
X1579064Y1144500*
X1579518*
X1579859Y1144656*
X1579973Y1144813*
X1579973D02*
X1580087Y1145125D01*
Y1145594*
X1579973Y1145906*
X1579746Y1146219*
X1579405Y1146375*
X1578950Y1146531*
X1578723Y1146688*
X1578723D02*
X1578609Y1147000D01*
Y1147313*
X1578609D02*
X1578723Y1147625D01*
X1579064Y1147781*
X1579518*
X1629591Y1251781D02*
X1630500Y1248500D01*
X1629591Y1251781D02*
X1628682Y1248500D01*
X1630159Y1249594D02*
X1629023D01*
X1627091Y1251781D02*
X1627432Y1251625D01*
X1627545Y1251313*
X1627545D02*
Y1251000D01*
X1627432Y1250688*
X1627432D02*
X1627205Y1250531D01*
X1626750Y1250375*
X1626409Y1250219*
X1626182Y1249906*
X1626068Y1249594*
Y1249125*
X1626182Y1248813*
X1626182D02*
X1626295Y1248656D01*
X1626636Y1248500*
X1627091*
X1627432Y1248656*
X1627545Y1248813*
X1627545D02*
X1627659Y1249125D01*
Y1249594*
X1627545Y1249906*
X1627318Y1250219*
X1626977Y1250375*
X1626523Y1250531*
X1626295Y1250688*
X1626295D02*
X1626182Y1251000D01*
Y1251313*
X1626182D02*
X1626295Y1251625D01*
X1626636Y1251781*
X1627091*
X1629591Y1184781D02*
X1630500Y1181500D01*
X1629591Y1184781D02*
X1628682Y1181500D01*
X1630159Y1182594D02*
X1629023D01*
X1627659Y1184156D02*
X1627432Y1184313D01*
X1627432D02*
X1627091Y1184781D01*
Y1181500*
X1585500Y1184781D02*
Y1181500D01*
X1584477Y1184156D02*
X1584250Y1184313D01*
X1584250D02*
X1583909Y1184781D01*
Y1181500*
X1581000Y1190156D02*
X1580773Y1190313D01*
X1580773D02*
X1580432Y1190781D01*
Y1187500*
X1580386Y1198000D02*
Y1198156D01*
X1580273Y1198469*
X1580159Y1198625*
X1579932Y1198781*
X1579477*
X1579250Y1198625*
X1579136Y1198469*
X1579023Y1198156*
Y1197844*
X1579136Y1197531*
X1579364Y1197063*
X1579364D02*
X1580500Y1195500D01*
X1578909*
X1580273Y1206281D02*
X1579023D01*
X1579705Y1205031*
X1579364*
X1579136Y1204875*
X1579023Y1204719*
X1578909Y1204250*
Y1203938*
X1578909D02*
X1579023Y1203469D01*
X1579250Y1203156*
X1579591Y1203000*
X1579932*
X1580273Y1203156*
X1580386Y1203313*
X1580386D02*
X1580500Y1203625D01*
X1579364Y1214281D02*
X1580500Y1212094D01*
X1578795*
X1579364Y1214281D02*
Y1211000D01*
X1579023Y1222281D02*
X1580159D01*
X1580273Y1220875*
X1580159Y1221031*
X1579818Y1221188*
X1579818D02*
X1579477D01*
X1579477D02*
X1579136Y1221031D01*
X1578909Y1220719*
X1578795Y1220250*
X1578909Y1219938*
X1578909D02*
X1579023Y1219469D01*
X1579250Y1219156*
X1579591Y1219000*
X1579932*
X1580273Y1219156*
X1580386Y1219313*
X1580386D02*
X1580500Y1219625D01*
X1579136Y1229813D02*
X1579250Y1230125D01*
X1579591Y1230281*
X1579818*
X1580159Y1230125*
X1580386Y1229656*
X1580500Y1228875*
Y1228094*
X1580386Y1227469*
X1580159Y1227156*
X1579818Y1227000*
X1579705*
X1579364Y1227156*
X1579136Y1227469*
X1579023Y1227938*
X1579023D02*
Y1228094D01*
X1579136Y1228563*
X1579136D02*
X1579364Y1228875D01*
X1579705Y1229031*
X1579818*
X1580159Y1228875*
X1580386Y1228563*
X1580386D02*
X1580500Y1228094D01*
X1578909Y1238281D02*
X1580045Y1235000D01*
X1580500Y1238281D02*
X1578909D01*
X1579932Y1246281D02*
X1580273Y1246125D01*
X1580386Y1245813*
X1580386D02*
Y1245500D01*
X1580273Y1245188*
X1580273D02*
X1580045Y1245031D01*
X1579591Y1244875*
X1579250Y1244719*
X1579023Y1244406*
X1578909Y1244094*
Y1243625*
X1579023Y1243313*
X1579023D02*
X1579136Y1243156D01*
X1579477Y1243000*
X1579932*
X1580273Y1243156*
X1580386Y1243313*
X1580386D02*
X1580500Y1243625D01*
Y1244094*
X1580386Y1244406*
X1580159Y1244719*
X1579818Y1244875*
X1579364Y1245031*
X1579136Y1245188*
X1579136D02*
X1579023Y1245500D01*
Y1245813*
X1579023D02*
X1579136Y1246125D01*
X1579477Y1246281*
X1579932*
G54D81*
X1517185Y1257311D02*
G03X1517185I-492J0D01*
G01X1507272Y1389000D02*
G03X1507272I-492J0D01*
G01X1506272Y1432000D02*
G03X1506272I-492J0D01*
G01X1051504Y1456390D02*
G03X1051504I-492J0D01*
G01Y1438390D02*
G03X1051504I-492J0D01*
G01Y1420890D02*
G03X1051504I-492J0D01*
G01Y1385390D02*
G03X1051504I-492J0D01*
G01X1087504Y1323390D02*
G03X1087504I-492J0D01*
G01X1051504Y1367390D02*
G03X1051504I-492J0D01*
G01X1087504Y1346890D02*
G03X1087504I-492J0D01*
G01X1594177Y1291118D02*
G03X1594177I-492J0D01*
G01X1573177D02*
G03X1573177I-492J0D01*
G54D367*
G01X1301661Y1081087D02*
X1284339D01*
Y1066913*
X1301661*
Y1081087*
X1312307Y1079118D02*
G03X1312307I-803J0D01*
G01X1301661Y1121087D02*
X1284339D01*
Y1106913*
X1301661*
Y1121087*
X1312307Y1119118D02*
G03X1312307I-803J0D01*
G01X1301661Y1061087D02*
X1284339D01*
Y1046913*
X1301661*
Y1061087*
X1312307Y1059118D02*
G03X1312307I-803J0D01*
G01X1301661Y1101087D02*
X1284339D01*
Y1086913*
X1301661*
Y1101087*
X1312307Y1099118D02*
G03X1312307I-803J0D01*
G01X1301661Y1041087D02*
X1284339D01*
Y1026913*
X1301661*
Y1041087*
X1312307Y1039118D02*
G03X1312307I-803J0D01*
G01X1301661Y1141087D02*
X1284339D01*
Y1126913*
X1301661*
Y1141087*
X1312307Y1139118D02*
G03X1312307I-803J0D01*
G01X1301661Y1201087D02*
X1284339D01*
Y1186913*
X1301661*
Y1201087*
X1312307Y1199118D02*
G03X1312307I-803J0D01*
G01X1301661Y1161087D02*
X1284339D01*
Y1146913*
X1301661*
Y1161087*
X1312307Y1159118D02*
G03X1312307I-803J0D01*
G01X1301661Y1181087D02*
X1284339D01*
Y1166913*
X1301661*
Y1181087*
X1312307Y1179118D02*
G03X1312307I-803J0D01*
G54D370*
G01X1328195Y1109421D02*
X1325242D01*
X1328195D02*
Y1110341D01*
X1328055Y1110648*
X1327914Y1110750*
X1327633Y1110853*
X1327352*
X1327070Y1110750*
X1326930Y1110648*
X1326789Y1110341*
Y1109421*
Y1110137D02*
X1325242Y1110853D01*
X1328195Y1113103D02*
Y1112080D01*
X1326930Y1111978*
X1327070Y1112080*
X1327211Y1112387*
Y1112694*
X1327070Y1113000*
X1326789Y1113205*
X1326367Y1113307*
X1326086Y1113205*
X1325664Y1113103*
X1325383Y1112898*
X1325242Y1112591*
Y1112284*
X1325383Y1111978*
X1325523Y1111875*
X1325805Y1111773*
X1327633Y1114228D02*
X1327773Y1114432D01*
X1328195Y1114739*
X1325242*
X1327773Y1116887D02*
X1328055Y1116784D01*
X1328195Y1116478*
Y1116273*
X1328055Y1115966*
X1327633Y1115762*
X1326930Y1115659*
X1326227*
X1325664Y1115762*
X1325383Y1115966*
X1325242Y1116273*
Y1116375*
X1325383Y1116682*
X1325664Y1116887*
X1326086Y1116989*
X1326227*
X1326648Y1116887*
X1326930Y1116682*
X1327070Y1116375*
Y1116273*
X1326930Y1115966*
X1326648Y1115762*
X1326227Y1115659*
G74*
X0Y0D02*
M02*
