*
*
G04 PADS 9.3 Build Number: 433611 generated Gerber (RS-274-X) file*
G04 PC Version=2.1*
*
%IN "17-600100-001_revA.pcb"*%
*
%MOIN*%
*
%FSLAX35Y35*%
*
*
*
*
G04 PC Standard Apertures*
*
*
G04 Thermal Relief Aperture macro.*
%AMTER*
1,1,$1,0,0*
1,0,$1-$2,0,0*
21,0,$3,$4,0,0,45*
21,0,$3,$4,0,0,135*
%
*
*
G04 Annular Aperture macro.*
%AMANN*
1,1,$1,0,0*
1,0,$2,0,0*
%
*
*
G04 Odd Aperture macro.*
%AMODD*
1,1,$1,0,0*
1,0,$1-0.005,0,0*
%
*
*
G04 PC Custom Aperture Macros*
*
*
*
*
*
*
G04 PC Aperture Table*
*
%ADD010C,0.001*%
%ADD022C,0.01*%
%ADD023C,0.008*%
%ADD074R,0.09646X0.09252*%
%ADD075R,0.09252X0.09646*%
%ADD076R,0.08858X0.09055*%
%ADD077R,0.09055X0.08858*%
%ADD082R,0.05709X0.04528*%
%ADD083R,0.04528X0.05709*%
*
*
*
*
G04 PC Circuitry*
G04 Layer Name 17-600100-001_revA.pcb - circuitry*
%LPD*%
*
*
G04 PC Custom Flashes*
G04 Layer Name 17-600100-001_revA.pcb - flashes*
%LPD*%
*
*
G04 PC Circuitry*
G04 Layer Name 17-600100-001_revA.pcb - circuitry*
%LPD*%
*
G54D10*
G01X1000000Y1000000D02*
X2700000D01*
Y1045017*
X2690945Y1045020*
X2690935Y1068669D02*
G75*
G03X2690955Y1045019I1410J-11824D01*
G01X2690945Y1068670D02*
X2700009D01*
X2700109Y1340433*
X2692244*
Y1364055D02*
G03Y1340433I-0J-11811D01*
G01Y1364055D02*
X2700118D01*
Y1852244*
X2692244*
Y1875866D02*
G03Y1852244I-0J-11811D01*
G01Y1875866D02*
X2700118D01*
Y2245945*
X2691063*
X2680436Y2257468D02*
G03X2691070Y2245944I11899J312D01*
G01X2680436Y2257480D02*
X2169012D01*
X2145397Y2257467D02*
G03X2169012Y2257488I11807J289D01*
G01X2145397Y2257480D02*
X1546965D01*
X1523349Y2257467D02*
G03X1546965Y2257488I11808J289D01*
G01X1523349Y2257480D02*
X1021768D01*
X1009174Y2243976D02*
G03X1021768Y2257481I-1282J13820D01*
G01X1009173Y2243976D02*
X1000118D01*
Y2088921*
X1007992Y2088922*
Y2061362D02*
G03Y2088922I0J13780D01*
G01Y2061362D02*
X1000118D01*
Y1366024*
X1009173*
Y1338465D02*
G03Y1366024I0J13779D01*
G01Y1338465D02*
X1000118D01*
X1000000Y1068799*
X1009055*
X1009056Y1045177D02*
G03Y1068799I-1116J11811D01*
G01X1009055Y1045177D02*
X1000000D01*
Y1000000*
G54D22*
X1192321Y2368960D02*
Y2362397D01*
X1190730Y2368960D02*
X1193912D01*
X1197321D02*
X1196866Y2368647D01*
X1196412Y2368022*
X1196185Y2367397*
X1195957Y2366460*
X1195957D02*
Y2364897D01*
X1196185Y2363960*
X1196185D02*
X1196412Y2363335D01*
X1196412D02*
X1196866Y2362710D01*
X1196866D02*
X1197321Y2362397D01*
X1198230*
X1198685Y2362710*
X1198685D02*
X1199139Y2363335D01*
X1199139D02*
X1199366Y2363960D01*
X1199366D02*
X1199594Y2364897D01*
Y2366460*
X1199594D02*
X1199366Y2367397D01*
X1199139Y2368022*
X1198685Y2368647*
X1198230Y2368960*
X1198230D02*
X1197321D01*
X1201639D02*
Y2362397D01*
Y2368960D02*
X1203685D01*
X1203685D02*
X1204366Y2368647D01*
X1204594Y2368335*
X1204594D02*
X1204821Y2367710D01*
X1204821D02*
Y2366772D01*
X1204594Y2366147*
X1204366Y2365835*
X1204366D02*
X1203685Y2365522D01*
X1201639*
X1212094Y2368960D02*
Y2362397D01*
Y2368960D02*
X1214139D01*
X1214139D02*
X1214821Y2368647D01*
X1215048Y2368335*
X1215048D02*
X1215275Y2367710D01*
X1215275D02*
Y2366772D01*
X1215048Y2366147*
X1214821Y2365835*
X1214821D02*
X1214139Y2365522D01*
X1212094*
X1219139Y2368960D02*
X1217321Y2362397D01*
X1219139Y2368960D02*
X1220957Y2362397D01*
X1218003Y2364585D02*
X1220275D01*
X1226185Y2368022D02*
X1225730Y2368647D01*
X1225048Y2368960*
X1225048D02*
X1224139D01*
X1224139D02*
X1223457Y2368647D01*
X1223003Y2368022*
Y2367397*
X1223230Y2366772*
X1223457Y2366460*
X1223457D02*
X1223912Y2366147D01*
X1225275Y2365522*
X1225730Y2365210*
X1225730D02*
X1225957Y2364897D01*
X1226185Y2364272*
Y2363335*
X1226185D02*
X1225730Y2362710D01*
X1225730D02*
X1225048Y2362397D01*
X1224139*
X1223457Y2362710*
X1223457D02*
X1223003Y2363335D01*
X1229821Y2368960D02*
Y2362397D01*
X1228230Y2368960D02*
X1231412D01*
X1233457D02*
Y2362397D01*
Y2368960D02*
X1236412D01*
X1233457Y2365835D02*
X1235275D01*
X1233457Y2362397D02*
X1236412D01*
X1243685Y2368960D02*
Y2362397D01*
Y2368960D02*
X1245503Y2362397D01*
X1247321Y2368960D02*
X1245503Y2362397D01*
X1247321Y2368960D02*
Y2362397D01*
X1251185Y2368960D02*
X1249366Y2362397D01*
X1251185Y2368960D02*
X1253003Y2362397D01*
X1250048Y2364585D02*
X1252321D01*
X1258230Y2368022D02*
X1257775Y2368647D01*
X1257094Y2368960*
X1257094D02*
X1256185D01*
X1256185D02*
X1255503Y2368647D01*
X1255048Y2368022*
Y2367397*
X1255275Y2366772*
X1255503Y2366460*
X1255503D02*
X1255957Y2366147D01*
X1257321Y2365522*
X1257775Y2365210*
X1257775D02*
X1258003Y2364897D01*
X1258230Y2364272*
Y2363335*
X1258230D02*
X1257775Y2362710D01*
X1257775D02*
X1257094Y2362397D01*
X1256185*
X1255503Y2362710*
X1255503D02*
X1255048Y2363335D01*
X1260275Y2368960D02*
Y2362397D01*
X1263457Y2368960D02*
X1260275Y2364585D01*
X1261412Y2366147D02*
X1263457Y2362397D01*
X1111008Y2397534D02*
Y2390971D01*
Y2397534D02*
X1113053D01*
X1113053D02*
X1113735Y2397221D01*
X1113963Y2396909*
X1113963D02*
X1114190Y2396284D01*
X1114190D02*
Y2395659D01*
X1114190D02*
X1113963Y2395034D01*
X1113963D02*
X1113735Y2394721D01*
X1113053Y2394409*
X1111008D02*
X1113053D01*
X1113053D02*
X1113735Y2394096D01*
X1113963Y2393784*
X1113963D02*
X1114190Y2393159D01*
X1114190D02*
Y2392221D01*
X1113963Y2391596*
X1113735Y2391284*
X1113735D02*
X1113053Y2390971D01*
X1111008*
X1117599Y2397534D02*
X1117144Y2397221D01*
X1116690Y2396596*
X1116463Y2395971*
X1116235Y2395034*
X1116235D02*
Y2393471D01*
X1116463Y2392534*
X1116463D02*
X1116690Y2391909D01*
X1116690D02*
X1117144Y2391284D01*
X1117144D02*
X1117599Y2390971D01*
X1118508*
X1118963Y2391284*
X1118963D02*
X1119417Y2391909D01*
X1119417D02*
X1119644Y2392534D01*
X1119644D02*
X1119872Y2393471D01*
Y2395034*
X1119872D02*
X1119644Y2395971D01*
X1119417Y2396596*
X1118963Y2397221*
X1118508Y2397534*
X1118508D02*
X1117599D01*
X1123735D02*
X1121917Y2390971D01*
X1123735Y2397534D02*
X1125553Y2390971D01*
X1122599Y2393159D02*
X1124872D01*
X1127599Y2397534D02*
Y2390971D01*
Y2397534D02*
X1129644D01*
X1129644D02*
X1130326Y2397221D01*
X1130553Y2396909*
X1130553D02*
X1130781Y2396284D01*
X1130781D02*
Y2395659D01*
X1130781D02*
X1130553Y2395034D01*
X1130553D02*
X1130326Y2394721D01*
X1129644Y2394409*
X1129644D02*
X1127599D01*
X1129190D02*
X1130781Y2390971D01*
X1132826Y2397534D02*
Y2390971D01*
Y2397534D02*
X1134417D01*
X1134417D02*
X1135099Y2397221D01*
X1135553Y2396596*
X1135781Y2395971*
X1136008Y2395034*
X1136008D02*
Y2393471D01*
X1135781Y2392534*
X1135781D02*
X1135553Y2391909D01*
X1135553D02*
X1135099Y2391284D01*
X1135099D02*
X1134417Y2390971D01*
X1132826*
X1148508Y2397534D02*
Y2390971D01*
Y2397534D02*
X1151690Y2390971D01*
Y2397534D02*
Y2390971D01*
X1155553Y2397534D02*
X1153735Y2390971D01*
X1155553Y2397534D02*
X1157372Y2390971D01*
X1154417Y2393159D02*
X1156690D01*
X1159417Y2397534D02*
Y2390971D01*
Y2397534D02*
X1161235Y2390971D01*
X1163053Y2397534D02*
X1161235Y2390971D01*
X1163053Y2397534D02*
Y2390971D01*
X1165099Y2397534D02*
Y2390971D01*
Y2397534D02*
X1168053D01*
X1165099Y2394409D02*
X1166917D01*
X1165099Y2390971D02*
X1168053D01*
X1175326Y2393784D02*
X1179417D01*
X1110730Y2368960D02*
Y2362397D01*
Y2368960D02*
X1112321D01*
X1112321D02*
X1113003Y2368647D01*
X1113457Y2368022*
X1113685Y2367397*
X1113912Y2366460*
X1113912D02*
Y2364897D01*
X1113685Y2363960*
X1113685D02*
X1113457Y2363335D01*
X1113457D02*
X1113003Y2362710D01*
X1113003D02*
X1112321Y2362397D01*
X1110730*
X1117321Y2368960D02*
X1116866Y2368647D01*
X1116412Y2368022*
X1116185Y2367397*
X1115957Y2366460*
X1115957D02*
Y2364897D01*
X1116185Y2363960*
X1116185D02*
X1116412Y2363335D01*
X1116412D02*
X1116866Y2362710D01*
X1116866D02*
X1117321Y2362397D01*
X1118230*
X1118685Y2362710*
X1118685D02*
X1119139Y2363335D01*
X1119139D02*
X1119366Y2363960D01*
X1119366D02*
X1119594Y2364897D01*
Y2366460*
X1119594D02*
X1119366Y2367397D01*
X1119139Y2368022*
X1118685Y2368647*
X1118230Y2368960*
X1118230D02*
X1117321D01*
X1125048Y2367397D02*
X1124821Y2368022D01*
X1124366Y2368647*
X1123912Y2368960*
X1123912D02*
X1123003D01*
X1123003D02*
X1122548Y2368647D01*
X1122094Y2368022*
X1121866Y2367397*
X1121639Y2366460*
X1121639D02*
Y2364897D01*
X1121866Y2363960*
X1121866D02*
X1122094Y2363335D01*
X1122094D02*
X1122548Y2362710D01*
X1122548D02*
X1123003Y2362397D01*
X1123912*
X1124366Y2362710*
X1124366D02*
X1124821Y2363335D01*
X1124821D02*
X1125048Y2363960D01*
X1127094Y2368960D02*
Y2364272D01*
X1127321Y2363335*
X1127321D02*
X1127775Y2362710D01*
X1127775D02*
X1128457Y2362397D01*
X1128912*
X1129594Y2362710*
X1129594D02*
X1130048Y2363335D01*
X1130048D02*
X1130275Y2364272D01*
Y2368960*
X1132321D02*
Y2362397D01*
Y2368960D02*
X1134139Y2362397D01*
X1135957Y2368960D02*
X1134139Y2362397D01*
X1135957Y2368960D02*
Y2362397D01*
X1138003Y2368960D02*
Y2362397D01*
Y2368960D02*
X1140957D01*
X1138003Y2365835D02*
X1139821D01*
X1138003Y2362397D02*
X1140957D01*
X1143003Y2368960D02*
Y2362397D01*
Y2368960D02*
X1146185Y2362397D01*
Y2368960D02*
Y2362397D01*
X1149821Y2368960D02*
Y2362397D01*
X1148230Y2368960D02*
X1151412D01*
X1158685D02*
Y2362397D01*
Y2368960D02*
X1161866Y2362397D01*
Y2368960D02*
Y2362397D01*
X1165730Y2368960D02*
X1163912Y2362397D01*
X1165730Y2368960D02*
X1167548Y2362397D01*
X1164594Y2364585D02*
X1166866D01*
X1169594Y2368960D02*
Y2362397D01*
Y2368960D02*
X1171412Y2362397D01*
X1173230Y2368960D02*
X1171412Y2362397D01*
X1173230Y2368960D02*
Y2362397D01*
X1175275Y2368960D02*
Y2362397D01*
Y2368960D02*
X1178230D01*
X1175275Y2365835D02*
X1177094D01*
X1175275Y2362397D02*
X1178230D01*
X1180275Y2365210D02*
X1184366D01*
X1159417Y2413471D02*
X1159190Y2414096D01*
X1158735Y2414721*
X1158281Y2415034*
X1158281D02*
X1157372D01*
X1157372D02*
X1156917Y2414721D01*
X1156463Y2414096*
X1156235Y2413471*
X1156008Y2412534*
X1156008D02*
Y2410971D01*
X1156235Y2410034*
X1156235D02*
X1156463Y2409409D01*
X1156463D02*
X1156917Y2408784D01*
X1156917D02*
X1157372Y2408471D01*
X1158281*
X1158735Y2408784*
X1158735D02*
X1159190Y2409409D01*
X1159190D02*
X1159417Y2410034D01*
X1162826Y2415034D02*
X1162372Y2414721D01*
X1161917Y2414096*
X1161690Y2413471*
X1161463Y2412534*
X1161463D02*
Y2410971D01*
X1161690Y2410034*
X1161690D02*
X1161917Y2409409D01*
X1161917D02*
X1162372Y2408784D01*
X1162372D02*
X1162826Y2408471D01*
X1163735*
X1164190Y2408784*
X1164190D02*
X1164644Y2409409D01*
X1164644D02*
X1164872Y2410034D01*
X1164872D02*
X1165099Y2410971D01*
Y2412534*
X1165099D02*
X1164872Y2413471D01*
X1164644Y2414096*
X1164190Y2414721*
X1163735Y2415034*
X1163735D02*
X1162826D01*
X1167144D02*
Y2408471D01*
Y2415034D02*
X1168963Y2408471D01*
X1170781Y2415034D02*
X1168963Y2408471D01*
X1170781Y2415034D02*
Y2408471D01*
X1172826Y2415034D02*
Y2408471D01*
Y2415034D02*
X1174872D01*
X1174872D02*
X1175553Y2414721D01*
X1175781Y2414409*
X1175781D02*
X1176008Y2413784D01*
X1176008D02*
Y2412846D01*
X1175781Y2412221*
X1175553Y2411909*
X1175553D02*
X1174872Y2411596D01*
X1172826*
X1178053Y2415034D02*
Y2408471D01*
Y2415034D02*
X1180099D01*
X1180099D02*
X1180781Y2414721D01*
X1181008Y2414409*
X1181008D02*
X1181235Y2413784D01*
X1181235D02*
Y2413159D01*
X1181235D02*
X1181008Y2412534D01*
X1181008D02*
X1180781Y2412221D01*
X1180099Y2411909*
X1180099D02*
X1178053D01*
X1179644D02*
X1181235Y2408471D01*
X1183281Y2415034D02*
Y2408471D01*
Y2415034D02*
X1186235D01*
X1183281Y2411909D02*
X1185099D01*
X1183281Y2408471D02*
X1186235D01*
X1191463Y2414096D02*
X1191008Y2414721D01*
X1190326Y2415034*
X1190326D02*
X1189417D01*
X1189417D02*
X1188735Y2414721D01*
X1188281Y2414096*
Y2413471*
X1188508Y2412846*
X1188735Y2412534*
X1188735D02*
X1189190Y2412221D01*
X1190553Y2411596*
X1191008Y2411284*
X1191008D02*
X1191235Y2410971D01*
X1191463Y2410346*
Y2409409*
X1191463D02*
X1191008Y2408784D01*
X1191008D02*
X1190326Y2408471D01*
X1189417*
X1188735Y2408784*
X1188735D02*
X1188281Y2409409D01*
X1196690Y2414096D02*
X1196235Y2414721D01*
X1195553Y2415034*
X1195553D02*
X1194644D01*
X1194644D02*
X1193963Y2414721D01*
X1193508Y2414096*
Y2413471*
X1193735Y2412846*
X1193963Y2412534*
X1193963D02*
X1194417Y2412221D01*
X1195781Y2411596*
X1196235Y2411284*
X1196235D02*
X1196463Y2410971D01*
X1196690Y2410346*
Y2409409*
X1196690D02*
X1196235Y2408784D01*
X1196235D02*
X1195553Y2408471D01*
X1194644*
X1193963Y2408784*
X1193963D02*
X1193508Y2409409D01*
X1200099Y2415034D02*
X1199644Y2414721D01*
X1199190Y2414096*
X1198963Y2413471*
X1198735Y2412534*
X1198735D02*
Y2410971D01*
X1198963Y2410034*
X1198963D02*
X1199190Y2409409D01*
X1199190D02*
X1199644Y2408784D01*
X1199644D02*
X1200099Y2408471D01*
X1201008*
X1201463Y2408784*
X1201463D02*
X1201917Y2409409D01*
X1201917D02*
X1202144Y2410034D01*
X1202144D02*
X1202372Y2410971D01*
Y2412534*
X1202372D02*
X1202144Y2413471D01*
X1201917Y2414096*
X1201463Y2414721*
X1201008Y2415034*
X1201008D02*
X1200099D01*
X1204417D02*
Y2408471D01*
Y2415034D02*
X1206463D01*
X1206463D02*
X1207144Y2414721D01*
X1207372Y2414409*
X1207372D02*
X1207599Y2413784D01*
X1207599D02*
Y2413159D01*
X1207599D02*
X1207372Y2412534D01*
X1207372D02*
X1207144Y2412221D01*
X1206463Y2411909*
X1206463D02*
X1204417D01*
X1206008D02*
X1207599Y2408471D01*
X1218281Y2413471D02*
X1218053Y2414096D01*
X1217599Y2414721*
X1217144Y2415034*
X1217144D02*
X1216235D01*
X1216235D02*
X1215781Y2414721D01*
X1215326Y2414096*
X1215099Y2413471*
X1214872Y2412534*
X1214872D02*
Y2410971D01*
X1215099Y2410034*
X1215099D02*
X1215326Y2409409D01*
X1215326D02*
X1215781Y2408784D01*
X1215781D02*
X1216235Y2408471D01*
X1217144*
X1217599Y2408784*
X1217599D02*
X1218053Y2409409D01*
X1218053D02*
X1218281Y2410034D01*
X1221690Y2415034D02*
X1221235Y2414721D01*
X1220781Y2414096*
X1220553Y2413471*
X1220326Y2412534*
X1220326D02*
Y2410971D01*
X1220553Y2410034*
X1220553D02*
X1220781Y2409409D01*
X1220781D02*
X1221235Y2408784D01*
X1221235D02*
X1221690Y2408471D01*
X1222599*
X1223053Y2408784*
X1223053D02*
X1223508Y2409409D01*
X1223508D02*
X1223735Y2410034D01*
X1223735D02*
X1223963Y2410971D01*
Y2412534*
X1223963D02*
X1223735Y2413471D01*
X1223508Y2414096*
X1223053Y2414721*
X1222599Y2415034*
X1222599D02*
X1221690D01*
X1226008D02*
Y2408471D01*
Y2415034D02*
X1229190Y2408471D01*
Y2415034D02*
Y2408471D01*
X1232826Y2415034D02*
Y2408471D01*
X1231235Y2415034D02*
X1234417D01*
X1236463D02*
Y2408471D01*
Y2415034D02*
X1238508D01*
X1238508D02*
X1239190Y2414721D01*
X1239417Y2414409*
X1239417D02*
X1239644Y2413784D01*
X1239644D02*
Y2413159D01*
X1239644D02*
X1239417Y2412534D01*
X1239417D02*
X1239190Y2412221D01*
X1238508Y2411909*
X1238508D02*
X1236463D01*
X1238053D02*
X1239644Y2408471D01*
X1243053Y2415034D02*
X1242599Y2414721D01*
X1242144Y2414096*
X1241917Y2413471*
X1241690Y2412534*
X1241690D02*
Y2410971D01*
X1241917Y2410034*
X1241917D02*
X1242144Y2409409D01*
X1242144D02*
X1242599Y2408784D01*
X1242599D02*
X1243053Y2408471D01*
X1243963*
X1244417Y2408784*
X1244417D02*
X1244872Y2409409D01*
X1244872D02*
X1245099Y2410034D01*
X1245099D02*
X1245326Y2410971D01*
Y2412534*
X1245326D02*
X1245099Y2413471D01*
X1244872Y2414096*
X1244417Y2414721*
X1243963Y2415034*
X1243963D02*
X1243053D01*
X1247372D02*
Y2408471D01*
X1250099*
X1255326Y2414096D02*
X1254872Y2414721D01*
X1254190Y2415034*
X1254190D02*
X1253281D01*
X1253281D02*
X1252599Y2414721D01*
X1252144Y2414096*
Y2413471*
X1252372Y2412846*
X1252599Y2412534*
X1252599D02*
X1253053Y2412221D01*
X1254417Y2411596*
X1254872Y2411284*
X1254872D02*
X1255099Y2410971D01*
X1255326Y2410346*
Y2409409*
X1255326D02*
X1254872Y2408784D01*
X1254872D02*
X1254190Y2408471D01*
X1253281*
X1252599Y2408784*
X1252599D02*
X1252144Y2409409D01*
X1266008Y2413471D02*
X1265781Y2414096D01*
X1265326Y2414721*
X1264872Y2415034*
X1264872D02*
X1263963D01*
X1263963D02*
X1263508Y2414721D01*
X1263053Y2414096*
X1262826Y2413471*
X1262599Y2412534*
X1262599D02*
Y2410971D01*
X1262826Y2410034*
X1262826D02*
X1263053Y2409409D01*
X1263053D02*
X1263508Y2408784D01*
X1263508D02*
X1263963Y2408471D01*
X1264872*
X1265326Y2408784*
X1265326D02*
X1265781Y2409409D01*
X1265781D02*
X1266008Y2410034D01*
X1269417Y2415034D02*
X1268963Y2414721D01*
X1268508Y2414096*
X1268281Y2413471*
X1268053Y2412534*
X1268053D02*
Y2410971D01*
X1268281Y2410034*
X1268281D02*
X1268508Y2409409D01*
X1268508D02*
X1268963Y2408784D01*
X1268963D02*
X1269417Y2408471D01*
X1270326*
X1270781Y2408784*
X1270781D02*
X1271235Y2409409D01*
X1271235D02*
X1271463Y2410034D01*
X1271463D02*
X1271690Y2410971D01*
Y2412534*
X1271690D02*
X1271463Y2413471D01*
X1271235Y2414096*
X1270781Y2414721*
X1270326Y2415034*
X1270326D02*
X1269417D01*
X1273735D02*
Y2408471D01*
Y2415034D02*
X1275781D01*
X1275781D02*
X1276463Y2414721D01*
X1276690Y2414409*
X1276690D02*
X1276917Y2413784D01*
X1276917D02*
Y2413159D01*
X1276917D02*
X1276690Y2412534D01*
X1276690D02*
X1276463Y2412221D01*
X1275781Y2411909*
X1275781D02*
X1273735D01*
X1275326D02*
X1276917Y2408471D01*
X1278963Y2415034D02*
Y2408471D01*
Y2415034D02*
X1281008D01*
X1281008D02*
X1281690Y2414721D01*
X1281917Y2414409*
X1281917D02*
X1282144Y2413784D01*
X1282144D02*
Y2412846D01*
X1281917Y2412221*
X1281690Y2411909*
X1281690D02*
X1281008Y2411596D01*
X1278963*
X1285553Y2415034D02*
X1285099Y2414721D01*
X1284644Y2414096*
X1284417Y2413471*
X1284190Y2412534*
X1284190D02*
Y2410971D01*
X1284417Y2410034*
X1284417D02*
X1284644Y2409409D01*
X1284644D02*
X1285099Y2408784D01*
X1285099D02*
X1285553Y2408471D01*
X1286463*
X1286917Y2408784*
X1286917D02*
X1287372Y2409409D01*
X1287372D02*
X1287599Y2410034D01*
X1287599D02*
X1287826Y2410971D01*
Y2412534*
X1287826D02*
X1287599Y2413471D01*
X1287372Y2414096*
X1286917Y2414721*
X1286463Y2415034*
X1286463D02*
X1285553D01*
X1289872D02*
Y2408471D01*
Y2415034D02*
X1291917D01*
X1291917D02*
X1292599Y2414721D01*
X1292826Y2414409*
X1292826D02*
X1293053Y2413784D01*
X1293053D02*
Y2413159D01*
X1293053D02*
X1292826Y2412534D01*
X1292826D02*
X1292599Y2412221D01*
X1291917Y2411909*
X1291917D02*
X1289872D01*
X1291463D02*
X1293053Y2408471D01*
X1296917Y2415034D02*
X1295099Y2408471D01*
X1296917Y2415034D02*
X1298735Y2408471D01*
X1295781Y2410659D02*
X1298053D01*
X1302372Y2415034D02*
Y2408471D01*
X1300781Y2415034D02*
X1303963D01*
X1306008D02*
Y2408471D01*
X1309417Y2415034D02*
X1308963Y2414721D01*
X1308508Y2414096*
X1308281Y2413471*
X1308053Y2412534*
X1308053D02*
Y2410971D01*
X1308281Y2410034*
X1308281D02*
X1308508Y2409409D01*
X1308508D02*
X1308963Y2408784D01*
X1308963D02*
X1309417Y2408471D01*
X1310326*
X1310781Y2408784*
X1310781D02*
X1311235Y2409409D01*
X1311235D02*
X1311463Y2410034D01*
X1311463D02*
X1311690Y2410971D01*
Y2412534*
X1311690D02*
X1311463Y2413471D01*
X1311235Y2414096*
X1310781Y2414721*
X1310326Y2415034*
X1310326D02*
X1309417D01*
X1313735D02*
Y2408471D01*
Y2415034D02*
X1316917Y2408471D01*
Y2415034D02*
Y2408471D01*
X1151008Y2383784D02*
X1151463Y2384096D01*
X1152144Y2385034*
X1152144D02*
Y2378471D01*
X1157372Y2385034D02*
X1155099Y2378471D01*
X1154190Y2385034D02*
X1157372D01*
X1159417Y2381284D02*
X1163508D01*
X1168281Y2384096D02*
X1168053Y2384721D01*
X1167372Y2385034*
X1167372D02*
X1166917D01*
X1166917D02*
X1166235Y2384721D01*
X1165781Y2383784*
X1165781D02*
X1165553Y2382221D01*
Y2380659*
X1165553D02*
X1165781Y2379409D01*
X1165781D02*
X1166235Y2378784D01*
X1166235D02*
X1166917Y2378471D01*
X1167144*
X1167826Y2378784*
X1167826D02*
X1168281Y2379409D01*
X1168281D02*
X1168508Y2380346D01*
Y2380659*
X1168508D02*
X1168281Y2381596D01*
X1167826Y2382221*
X1167144Y2382534*
X1167144D02*
X1166917D01*
X1166917D02*
X1166235Y2382221D01*
X1165781Y2381596*
X1165553Y2380659*
X1171917Y2385034D02*
X1171235Y2384721D01*
X1170781Y2383784*
X1170781D02*
X1170553Y2382221D01*
Y2381284*
X1170553D02*
X1170781Y2379721D01*
X1171235Y2378784*
X1171235D02*
X1171917Y2378471D01*
X1172372*
X1173053Y2378784*
X1173053D02*
X1173508Y2379721D01*
X1173735Y2381284*
X1173735D02*
Y2382221D01*
X1173508Y2383784*
X1173508D02*
X1173053Y2384721D01*
X1172372Y2385034*
X1172372D02*
X1171917D01*
X1177144D02*
X1176463Y2384721D01*
X1176008Y2383784*
X1176008D02*
X1175781Y2382221D01*
Y2381284*
X1175781D02*
X1176008Y2379721D01*
X1176463Y2378784*
X1176463D02*
X1177144Y2378471D01*
X1177599*
X1178281Y2378784*
X1178281D02*
X1178735Y2379721D01*
X1178963Y2381284*
X1178963D02*
Y2382221D01*
X1178735Y2383784*
X1178735D02*
X1178281Y2384721D01*
X1177599Y2385034*
X1177599D02*
X1177144D01*
X1181008Y2383784D02*
X1181463Y2384096D01*
X1182144Y2385034*
X1182144D02*
Y2378471D01*
X1185553Y2385034D02*
X1184872Y2384721D01*
X1184417Y2383784*
X1184417D02*
X1184190Y2382221D01*
Y2381284*
X1184190D02*
X1184417Y2379721D01*
X1184872Y2378784*
X1184872D02*
X1185553Y2378471D01*
X1186008*
X1186690Y2378784*
X1186690D02*
X1187144Y2379721D01*
X1187372Y2381284*
X1187372D02*
Y2382221D01*
X1187144Y2383784*
X1187144D02*
X1186690Y2384721D01*
X1186008Y2385034*
X1186008D02*
X1185553D01*
X1190781D02*
X1190099Y2384721D01*
X1189644Y2383784*
X1189644D02*
X1189417Y2382221D01*
Y2381284*
X1189417D02*
X1189644Y2379721D01*
X1190099Y2378784*
X1190099D02*
X1190781Y2378471D01*
X1191235*
X1191917Y2378784*
X1191917D02*
X1192372Y2379721D01*
X1192599Y2381284*
X1192599D02*
Y2382221D01*
X1192372Y2383784*
X1192372D02*
X1191917Y2384721D01*
X1191235Y2385034*
X1191235D02*
X1190781D01*
X1194644Y2381284D02*
X1198735D01*
X1202144Y2385034D02*
X1201463Y2384721D01*
X1201008Y2383784*
X1201008D02*
X1200781Y2382221D01*
Y2381284*
X1200781D02*
X1201008Y2379721D01*
X1201463Y2378784*
X1201463D02*
X1202144Y2378471D01*
X1202599*
X1203281Y2378784*
X1203281D02*
X1203735Y2379721D01*
X1203963Y2381284*
X1203963D02*
Y2382221D01*
X1203735Y2383784*
X1203735D02*
X1203281Y2384721D01*
X1202599Y2385034*
X1202599D02*
X1202144D01*
X1207372D02*
X1206690Y2384721D01*
X1206235Y2383784*
X1206235D02*
X1206008Y2382221D01*
Y2381284*
X1206008D02*
X1206235Y2379721D01*
X1206690Y2378784*
X1206690D02*
X1207372Y2378471D01*
X1207826*
X1208508Y2378784*
X1208508D02*
X1208963Y2379721D01*
X1209190Y2381284*
X1209190D02*
Y2382221D01*
X1208963Y2383784*
X1208963D02*
X1208508Y2384721D01*
X1207826Y2385034*
X1207826D02*
X1207372D01*
X1211235Y2383784D02*
X1211690Y2384096D01*
X1212372Y2385034*
X1212372D02*
Y2378471D01*
X1111008Y2385034D02*
Y2378471D01*
Y2385034D02*
X1113053D01*
X1113053D02*
X1113735Y2384721D01*
X1113963Y2384409*
X1113963D02*
X1114190Y2383784D01*
X1114190D02*
Y2382846D01*
X1113963Y2382221*
X1113735Y2381909*
X1113735D02*
X1113053Y2381596D01*
X1111008*
X1120326Y2386284D02*
X1116235Y2376283D01*
X1122372Y2385034D02*
Y2378471D01*
Y2385034D02*
X1125553Y2378471D01*
Y2385034D02*
Y2378471D01*
X1132826Y2381284D02*
X1136917D01*
X1191008Y2397534D02*
Y2390971D01*
Y2397534D02*
X1193053D01*
X1193053D02*
X1193735Y2397221D01*
X1193963Y2396909*
X1193963D02*
X1194190Y2396284D01*
X1194190D02*
Y2395659D01*
X1194190D02*
X1193963Y2395034D01*
X1193963D02*
X1193735Y2394721D01*
X1193053Y2394409*
X1191008D02*
X1193053D01*
X1193053D02*
X1193735Y2394096D01*
X1193963Y2393784*
X1193963D02*
X1194190Y2393159D01*
X1194190D02*
Y2392221D01*
X1193963Y2391596*
X1193735Y2391284*
X1193735D02*
X1193053Y2390971D01*
X1191008*
X1198053Y2397534D02*
X1196235Y2390971D01*
X1198053Y2397534D02*
X1199872Y2390971D01*
X1196917Y2393159D02*
X1199190D01*
X1205326Y2395971D02*
X1205099Y2396596D01*
X1204644Y2397221*
X1204190Y2397534*
X1204190D02*
X1203281D01*
X1203281D02*
X1202826Y2397221D01*
X1202372Y2396596*
X1202144Y2395971*
X1201917Y2395034*
X1201917D02*
Y2393471D01*
X1202144Y2392534*
X1202144D02*
X1202372Y2391909D01*
X1202372D02*
X1202826Y2391284D01*
X1202826D02*
X1203281Y2390971D01*
X1204190*
X1204644Y2391284*
X1204644D02*
X1205099Y2391909D01*
X1205099D02*
X1205326Y2392534D01*
X1207372Y2397534D02*
Y2390971D01*
X1210553Y2397534D02*
X1207372Y2393159D01*
X1208508Y2394721D02*
X1210553Y2390971D01*
X1212599Y2397534D02*
Y2390971D01*
Y2397534D02*
X1214644D01*
X1214644D02*
X1215326Y2397221D01*
X1215553Y2396909*
X1215553D02*
X1215781Y2396284D01*
X1215781D02*
Y2395346D01*
X1215553Y2394721*
X1215326Y2394409*
X1215326D02*
X1214644Y2394096D01*
X1212599*
X1217826Y2397534D02*
Y2390971D01*
X1220553*
X1224417Y2397534D02*
X1222599Y2390971D01*
X1224417Y2397534D02*
X1226235Y2390971D01*
X1223281Y2393159D02*
X1225553D01*
X1228281Y2397534D02*
Y2390971D01*
Y2397534D02*
X1231463Y2390971D01*
Y2397534D02*
Y2390971D01*
X1233508Y2397534D02*
Y2390971D01*
Y2397534D02*
X1236463D01*
X1233508Y2394409D02*
X1235326D01*
X1233508Y2390971D02*
X1236463D01*
X1283508Y2385034D02*
Y2378471D01*
Y2385034D02*
X1285099D01*
X1285099D02*
X1285781Y2384721D01*
X1286235Y2384096*
X1286463Y2383471*
X1286690Y2382534*
X1286690D02*
Y2380971D01*
X1286463Y2380034*
X1286463D02*
X1286235Y2379409D01*
X1286235D02*
X1285781Y2378784D01*
X1285781D02*
X1285099Y2378471D01*
X1283508*
X1288735Y2380971D02*
X1291463D01*
Y2381596*
X1291235Y2382221*
X1291008Y2382534*
X1291008D02*
X1290553Y2382846D01*
X1289872*
X1289417Y2382534*
X1289417D02*
X1288963Y2381909D01*
X1288963D02*
X1288735Y2380971D01*
Y2380346*
X1288963Y2379409*
X1288963D02*
X1289417Y2378784D01*
X1289417D02*
X1289872Y2378471D01*
X1290553*
X1291008Y2378784*
X1291008D02*
X1291463Y2379409D01*
X1296235Y2381909D02*
X1295781Y2382534D01*
X1295781D02*
X1295326Y2382846D01*
X1294644*
X1294190Y2382534*
X1294190D02*
X1293735Y2381909D01*
X1293735D02*
X1293508Y2380971D01*
Y2380346*
X1293735Y2379409*
X1293735D02*
X1294190Y2378784D01*
X1294190D02*
X1294644Y2378471D01*
X1295326*
X1295781Y2378784*
X1295781D02*
X1296235Y2379409D01*
X1303508Y2383784D02*
X1303963Y2384096D01*
X1304644Y2385034*
X1304644D02*
Y2378471D01*
X1308963Y2385034D02*
X1306690Y2380659D01*
X1306690D02*
X1310099D01*
X1308963Y2385034D02*
Y2378471D01*
X1312599Y2378784D02*
X1312372Y2378471D01*
X1312144Y2378784*
X1312144D02*
X1312372Y2379096D01*
X1312599Y2378784*
X1312599D02*
Y2378158D01*
X1312599D02*
X1312372Y2377533D01*
X1312372D02*
X1312144Y2377221D01*
X1320099Y2383471D02*
Y2383784D01*
X1320099D02*
X1320326Y2384409D01*
X1320326D02*
X1320553Y2384721D01*
X1321008Y2385034*
X1321008D02*
X1321917D01*
X1321917D02*
X1322372Y2384721D01*
X1322599Y2384409*
X1322599D02*
X1322826Y2383784D01*
X1322826D02*
Y2383159D01*
X1322826D02*
X1322599Y2382534D01*
X1322599D02*
X1322144Y2381596D01*
X1319872Y2378471*
X1323053*
X1326463Y2385034D02*
X1325781Y2384721D01*
X1325326Y2383784*
X1325326D02*
X1325099Y2382221D01*
Y2381284*
X1325099D02*
X1325326Y2379721D01*
X1325781Y2378784*
X1325781D02*
X1326463Y2378471D01*
X1326917*
X1327599Y2378784*
X1327599D02*
X1328053Y2379721D01*
X1328281Y2381284*
X1328281D02*
Y2382221D01*
X1328053Y2383784*
X1328053D02*
X1327599Y2384721D01*
X1326917Y2385034*
X1326917D02*
X1326463D01*
X1330326Y2383784D02*
X1330781Y2384096D01*
X1331463Y2385034*
X1331463D02*
Y2378471D01*
X1333735Y2383471D02*
Y2383784D01*
X1333735D02*
X1333963Y2384409D01*
X1333963D02*
X1334190Y2384721D01*
X1334644Y2385034*
X1334644D02*
X1335553D01*
X1335553D02*
X1336008Y2384721D01*
X1336235Y2384409*
X1336235D02*
X1336463Y2383784D01*
X1336463D02*
Y2383159D01*
X1336463D02*
X1336235Y2382534D01*
X1336235D02*
X1335781Y2381596D01*
X1333508Y2378471*
X1336690*
X1301008Y2370034D02*
Y2363471D01*
Y2370034D02*
X1303053D01*
X1303053D02*
X1303735Y2369721D01*
X1303963Y2369409*
X1303963D02*
X1304190Y2368784D01*
X1304190D02*
Y2368159D01*
X1304190D02*
X1303963Y2367534D01*
X1303963D02*
X1303735Y2367221D01*
X1303053Y2366909*
X1303053D02*
X1301008D01*
X1302599D02*
X1304190Y2363471D01*
X1306235Y2370034D02*
Y2363471D01*
Y2370034D02*
X1309190D01*
X1306235Y2366909D02*
X1308053D01*
X1306235Y2363471D02*
X1309190D01*
X1311235Y2370034D02*
X1313053Y2363471D01*
X1314872Y2370034D02*
X1313053Y2363471D01*
X1322144Y2366284D02*
X1326235D01*
X1335326Y2370034D02*
X1333508Y2363471D01*
X1335326Y2370034D02*
X1337144Y2363471D01*
X1334190Y2365659D02*
X1336463D01*
G54D23*
X1106008Y2420971D02*
X1343508D01*
Y2356643*
X1106008*
Y2420971*
G54D74*
X1100000Y1962205D03*
Y1937795D03*
X1375000Y1922205D03*
Y1897795D03*
X1462500Y1922205D03*
Y1897795D03*
X1507500Y1627205D03*
Y1602795D03*
X1527500Y1627205D03*
Y1602795D03*
X1552500Y1922205D03*
Y1897795D03*
X1592500Y1627205D03*
Y1602795D03*
X1612500Y1627205D03*
Y1602795D03*
X1642500Y1922205D03*
Y1897795D03*
X1685000Y1627205D03*
Y1602795D03*
X1705000Y1627205D03*
Y1602795D03*
X1730000Y1922205D03*
Y1897795D03*
X1770000Y1627205D03*
Y1602795D03*
X1790000Y1627205D03*
Y1602795D03*
X1817500Y1922205D03*
Y1897795D03*
X1867500Y1594705D03*
Y1570295D03*
X1887500Y1594705D03*
Y1570295D03*
X1905000Y1922205D03*
Y1897795D03*
X1950000Y1627205D03*
Y1602795D03*
X1970000Y1627205D03*
Y1602795D03*
X1995000Y1922205D03*
Y1897795D03*
X2037500Y1627205D03*
Y1602795D03*
X2057500Y1627205D03*
Y1602795D03*
X2085000Y1922205D03*
Y1897795D03*
X2127500Y1627205D03*
Y1602795D03*
X2147500Y1627205D03*
Y1602795D03*
X2172500Y1922205D03*
Y1897795D03*
X2210000Y1627205D03*
Y1602795D03*
X2230000Y1627205D03*
Y1602795D03*
X2150000Y1922205D03*
Y1897795D03*
X2307500Y1627205D03*
Y1602795D03*
X2327500Y1627205D03*
Y1602795D03*
X2350000Y1922205D03*
Y1897795D03*
X1127500Y1164705D03*
Y1140295D03*
X2276500Y1164705D03*
Y1140295D03*
X1990000Y1164705D03*
Y1140295D03*
X1706500Y1164705D03*
Y1140295D03*
X1417500Y1164705D03*
Y1140295D03*
X2518000Y1164705D03*
Y1140295D03*
X2564000Y1164705D03*
Y1140295D03*
X2211500Y1309795D03*
Y1334205D03*
X1923000Y1309795D03*
Y1334205D03*
X1372500Y1164705D03*
Y1140295D03*
X1617500Y1309795D03*
Y1334205D03*
X1946000Y1164705D03*
Y1140295D03*
X1347500Y1309795D03*
Y1334205D03*
X2495500Y1309795D03*
Y1334205D03*
X1402500Y1627205D03*
Y1602795D03*
X1422500Y1627205D03*
Y1602795D03*
X1064000Y1309795D03*
Y1334205D03*
X1322500Y1627205D03*
Y1602795D03*
X1342500Y1627205D03*
Y1602795D03*
X2327500Y1922205D03*
Y1897795D03*
X2260000Y1922705D03*
Y1898295D03*
X2237500Y1922705D03*
Y1898295D03*
X2062500Y1922205D03*
Y1897795D03*
X1972500Y1922205D03*
Y1897795D03*
X1882500Y1922205D03*
Y1897795D03*
X1795000Y1922205D03*
Y1897795D03*
X1707500Y1922205D03*
Y1897795D03*
X1620000Y1922205D03*
Y1897795D03*
X1530000Y1922205D03*
Y1897795D03*
X1440000Y1922205D03*
Y1897795D03*
X1350000Y1922205D03*
Y1897795D03*
X1105000Y1164705D03*
Y1140295D03*
X2543000Y1164705D03*
Y1140295D03*
X2256500Y1164705D03*
Y1140295D03*
X1970000Y1164705D03*
Y1140295D03*
X1687000Y1164705D03*
Y1140295D03*
X1395000Y1164705D03*
Y1140295D03*
X1177500Y1309795D03*
Y1334205D03*
X1082500Y1164705D03*
Y1140295D03*
X1187500Y1164705D03*
Y1140295D03*
X1660000Y1164705D03*
Y1140295D03*
X2235500Y1164705D03*
Y1140295D03*
X1362500Y1627205D03*
Y1602795D03*
X1382500Y1627205D03*
Y1602795D03*
X1457500Y1594705D03*
Y1570295D03*
X1481500Y1594705D03*
Y1570295D03*
X1547500Y1627205D03*
Y1602795D03*
X1567500Y1627205D03*
Y1602795D03*
X1725000Y1627205D03*
Y1602795D03*
X1745000Y1627205D03*
Y1602795D03*
X1810000Y1627205D03*
Y1602795D03*
X1830000Y1627205D03*
Y1602795D03*
X2077500Y1627205D03*
Y1602795D03*
X2097500Y1627205D03*
Y1602795D03*
X2257500Y1594705D03*
Y1570295D03*
X2287500Y1627205D03*
Y1602795D03*
X1632500Y1627205D03*
Y1602795D03*
X1652500Y1627205D03*
Y1602795D03*
X1990000Y1627205D03*
Y1602795D03*
X2010000Y1627205D03*
Y1602795D03*
X2167500Y1627205D03*
Y1602795D03*
X2187500Y1627205D03*
Y1602795D03*
X2347500Y1627205D03*
Y1602795D03*
X2367500Y1627205D03*
Y1602795D03*
X1910000Y1627205D03*
Y1602795D03*
X1929500Y1627205D03*
Y1602795D03*
X1470000Y1309795D03*
Y1334205D03*
X1480000Y1164705D03*
Y1140295D03*
X1757500Y1309795D03*
Y1334205D03*
X1762500Y1164705D03*
Y1140295D03*
X2042500Y1309795D03*
Y1334205D03*
X2047500Y1164705D03*
Y1140295D03*
X2327500Y1309795D03*
Y1334205D03*
X2337500Y1164705D03*
Y1140295D03*
X2608500Y1309795D03*
Y1334205D03*
X2615000Y1164705D03*
Y1140295D03*
X1109000Y1900205D03*
Y1875795D03*
G54D75*
X1237795Y1180000D03*
X1262205D03*
X1039705Y1195000D03*
X1015295D03*
X2549705Y1925000D03*
X2525295D03*
X2549705Y1895000D03*
X2525295D03*
X1077795Y2145000D03*
X1102205D03*
X1039705Y1225000D03*
X1015295D03*
X1137795Y2145000D03*
X1162205D03*
X1039705Y1255000D03*
X1015295D03*
X1319705Y1285000D03*
X1295295D03*
X1319705Y1255000D03*
X1295295D03*
X1607205Y1285000D03*
X1582795D03*
X1607205Y1255000D03*
X1582795D03*
X1894705Y1285000D03*
X1870295D03*
X1894705Y1255000D03*
X1870295D03*
X1093795Y1854000D03*
X1118205D03*
X2172205Y1285000D03*
X2147795D03*
X2172205Y1255000D03*
X2147795D03*
X1319705Y1225000D03*
X1295295D03*
X1317795Y2145000D03*
X1342205D03*
X1377795D03*
X1402205D03*
X2454705Y1225000D03*
X2430295D03*
X2547205Y1862500D03*
X2522795D03*
X2454705Y1195000D03*
X2430295D03*
X2454705Y1285000D03*
X2430295D03*
X2454705Y1255000D03*
X2430295D03*
X2172205Y1195000D03*
X2147795D03*
X1894705Y1225000D03*
X1870295D03*
X1894705Y1195000D03*
X1870295D03*
X1607205D03*
X1582795D03*
X1319705D03*
X1295295D03*
X1039705Y1285000D03*
X1015295D03*
X1197795Y2145000D03*
X1222205D03*
X1257795D03*
X1282205D03*
X1237795Y1240000D03*
X1262205D03*
X1237795Y1210000D03*
X1262205D03*
X1237795Y1270000D03*
X1262205D03*
X1607205Y1225000D03*
X1582795D03*
X2172205D03*
X2147795D03*
X1522795Y1180000D03*
X1547205D03*
X1522795Y1210000D03*
X1547205D03*
X1522795Y1240000D03*
X1547205D03*
X1522795Y1270000D03*
X1547205D03*
X1815295Y1180000D03*
X1839705D03*
X1815295Y1210000D03*
X1839705D03*
X1815295Y1240000D03*
X1839705D03*
X1815295Y1270000D03*
X1839705D03*
X2092795Y1180000D03*
X2117205D03*
X2092795Y1210000D03*
X2117205D03*
X2092795Y1240000D03*
X2117205D03*
X2092795Y1270000D03*
X2117205D03*
X2382795Y1180000D03*
X2407205D03*
X2382795Y1210000D03*
X2407205D03*
X2382795Y1240000D03*
X2407205D03*
X2382795Y1270000D03*
X2407205D03*
X2660295Y1180000D03*
X2684705D03*
X2660295Y1210000D03*
X2684705D03*
X2660295Y1240000D03*
X2684705D03*
X2660295Y1270000D03*
X2684705D03*
G54D76*
X2565000Y1740646D03*
Y1721354D03*
X1110000Y1704646D03*
Y1685354D03*
X1210000Y1939646D03*
Y1920354D03*
X1240000Y2017854D03*
Y2037146D03*
X2562000Y2019354D03*
Y2038646D03*
X1330000Y2015354D03*
Y2034646D03*
X1287500Y1939646D03*
Y1920354D03*
X2480000Y2017854D03*
Y2037146D03*
X2445000Y1942146D03*
Y1922854D03*
X1407500Y1959646D03*
Y1940354D03*
X1495000Y1959646D03*
Y1940354D03*
Y2005354D03*
Y2024646D03*
X1585000Y1959646D03*
Y1940354D03*
Y2005354D03*
Y2024646D03*
X1672500Y1959646D03*
Y1940354D03*
Y2005354D03*
Y2024646D03*
X1762500Y1959646D03*
Y1940354D03*
Y2005354D03*
Y2024646D03*
X1850000Y1959646D03*
Y1940354D03*
Y2005354D03*
Y2024646D03*
X1940000Y1959646D03*
Y1940354D03*
Y2005354D03*
Y2024646D03*
X2027500Y1959646D03*
Y1940354D03*
Y2005354D03*
Y2024646D03*
X2117500Y1959646D03*
Y1940354D03*
Y2005354D03*
Y2024646D03*
X2205000Y1959646D03*
Y1940354D03*
Y2005354D03*
Y2024646D03*
X2292500Y1959646D03*
Y1940354D03*
Y2005354D03*
Y2024646D03*
X2380000Y1959646D03*
Y1940354D03*
Y2005354D03*
Y2024646D03*
X1407500Y2005354D03*
Y2024646D03*
G54D77*
X2308354Y2211000D03*
X2327646D03*
X2308354Y2176000D03*
X2327646D03*
X2604354Y2174000D03*
X2623646D03*
X2604354Y2211000D03*
X2623646D03*
X2527854Y1945000D03*
X2547146D03*
G54D82*
X1225000Y2021457D03*
Y2028543D03*
X1392500Y1923543D03*
Y1916457D03*
X1480000Y1923543D03*
Y1916457D03*
X1570000Y1923543D03*
Y1916457D03*
X1660000Y1923543D03*
Y1916457D03*
X1747500Y1923543D03*
Y1916457D03*
X1835000Y1923543D03*
Y1916457D03*
X1922500Y1923543D03*
Y1916457D03*
X2012500Y1923543D03*
Y1916457D03*
X2102500Y1923543D03*
Y1916457D03*
X2190000Y1923543D03*
Y1916457D03*
X2132500Y1923543D03*
Y1916457D03*
X2367500Y1923543D03*
Y1916457D03*
X1115000Y1956043D03*
Y1948957D03*
X2557500Y1843543D03*
Y1836457D03*
X2197000Y1318457D03*
Y1325543D03*
X1905500Y1318457D03*
Y1325543D03*
X1633000Y1318457D03*
Y1325543D03*
X1362500Y1318457D03*
Y1325543D03*
X2480000Y1318457D03*
Y1325543D03*
X1080000Y1318457D03*
Y1325543D03*
X1195000Y1938543D03*
Y1931457D03*
X2550000Y2024457D03*
Y2031543D03*
X1096000Y1700543D03*
Y1693457D03*
X1315000Y2021457D03*
Y2028543D03*
X1302500Y1936043D03*
Y1928957D03*
X2465000Y2023957D03*
Y2031043D03*
X2430000Y1936043D03*
Y1928957D03*
X1127000Y1890543D03*
Y1883457D03*
X2310000Y1923543D03*
Y1916457D03*
X2277500Y1923543D03*
Y1916457D03*
X2220000Y1923543D03*
Y1916457D03*
X2045000Y1923543D03*
Y1916457D03*
X1955000Y1923543D03*
Y1916457D03*
X1865000Y1923543D03*
Y1916457D03*
X1777500Y1923543D03*
Y1916457D03*
X1690000Y1923543D03*
Y1916457D03*
X1602500Y1923543D03*
Y1916457D03*
X1512500Y1923543D03*
Y1916457D03*
X1422500Y1923543D03*
Y1916457D03*
X1332500Y1923543D03*
Y1916457D03*
X1195000Y1318457D03*
Y1325543D03*
X1487500Y1318457D03*
Y1325543D03*
X1777000Y1318457D03*
Y1325543D03*
X2060000Y1318457D03*
Y1325543D03*
X2345000Y1318457D03*
Y1325543D03*
X2623500Y1318457D03*
Y1325543D03*
G54D83*
X1266457Y2127500D03*
X1273543D03*
X1351043Y1640000D03*
X1343957D03*
X1246457Y1195000D03*
X1253543D03*
X1031043Y1210000D03*
X1023957D03*
X1506457Y1640000D03*
X1513543D03*
X1533543D03*
X1526457D03*
X1588957D03*
X1596043D03*
X1616043D03*
X1608957D03*
X2541043Y1910000D03*
X2533957D03*
X1681457Y1640000D03*
X1688543D03*
X1708543D03*
X1701457D03*
X1766457D03*
X1773543D03*
X1793543D03*
X1786457D03*
X1866457Y1607500D03*
X1873543D03*
X1891043D03*
X1883957D03*
X2541043Y1880000D03*
X2533957D03*
X1946457Y1640000D03*
X1953543D03*
X1973543D03*
X1966457D03*
X2033957D03*
X2041043D03*
X2061043D03*
X2053957D03*
X2123957D03*
X2131043D03*
X2151043D03*
X2143957D03*
X2206457D03*
X2213543D03*
X1086457Y2127500D03*
X1093543D03*
X2233543Y1640000D03*
X2226457D03*
X2303957D03*
X2311043D03*
X2331043D03*
X2323957D03*
X1031043Y1240000D03*
X1023957D03*
X1031043Y1270000D03*
X1023957D03*
X1123957Y1177500D03*
X1131043D03*
X1311043Y1300000D03*
X1303957D03*
X1311043Y1270000D03*
X1303957D03*
X1156457Y2128000D03*
X1163543D03*
X2271457Y1177500D03*
X2278543D03*
X1598543Y1300000D03*
X1591457D03*
X1598543Y1270000D03*
X1591457D03*
X1986457Y1177500D03*
X1993543D03*
X1886043Y1300000D03*
X1878957D03*
X1886043Y1270000D03*
X1878957D03*
X1700957Y1177500D03*
X1708043D03*
X2163543Y1300000D03*
X2156457D03*
X2163543Y1270000D03*
X2156457D03*
X1421043Y1177500D03*
X1413957D03*
X1101457Y1839000D03*
X1108543D03*
X2521043Y1177500D03*
X2513957D03*
X1311043Y1240000D03*
X1303957D03*
X2558957Y1177500D03*
X2566043D03*
X1326457Y2127500D03*
X1333543D03*
X1386457D03*
X1393543D03*
X2446043Y1240000D03*
X2438957D03*
X2446043Y1210000D03*
X2438957D03*
X2446043Y1300000D03*
X2438957D03*
X2446043Y1270000D03*
X2438957D03*
X2163543Y1210000D03*
X2156457D03*
X1886043Y1240000D03*
X1878957D03*
X1886043Y1210000D03*
X1878957D03*
X1376043Y1177500D03*
X1368957D03*
X1598543Y1210000D03*
X1591457D03*
X2553543Y1739000D03*
X2546457D03*
X1948543Y1177500D03*
X1941457D03*
X1311043Y1210000D03*
X1303957D03*
X1406043Y1640000D03*
X1398957D03*
X1031043Y1300000D03*
X1023957D03*
X1426043Y1640000D03*
X1418957D03*
X2314457Y2198000D03*
X2321543D03*
X2314457Y2189000D03*
X2321543D03*
X2611457Y2187000D03*
X2618543D03*
X2611457Y2198000D03*
X2618543D03*
X2513543Y1945000D03*
X2506457D03*
X1403957Y1972500D03*
X1411043D03*
X1403957Y1992500D03*
X1411043D03*
X1491457Y1972500D03*
X1498543D03*
X1491457Y1992500D03*
X1498543D03*
X1581457Y1972500D03*
X1588543D03*
X1581457Y1992500D03*
X1588543D03*
X1668957Y1972500D03*
X1676043D03*
X1668957Y1992500D03*
X1676043D03*
X1758957Y1972500D03*
X1766043D03*
X1758957Y1992500D03*
X1766043D03*
X1846457Y1972500D03*
X1853543D03*
X1846457Y1992500D03*
X1853543D03*
X1936457Y1972500D03*
X1943543D03*
X1936457Y1992500D03*
X1943543D03*
X2023957Y1972500D03*
X2031043D03*
X1206457Y2127500D03*
X1213543D03*
X2023957Y1992500D03*
X2031043D03*
X2113957Y1972500D03*
X2121043D03*
X2113957Y1992500D03*
X2121043D03*
X2201457Y1972500D03*
X2208543D03*
X2201457Y1992500D03*
X2208543D03*
X2288957Y1972500D03*
X2296043D03*
X2288957Y1992500D03*
X2296043D03*
X2376457Y1972500D03*
X2383543D03*
X2376457Y1992500D03*
X2383543D03*
X1321457Y1640000D03*
X1328543D03*
X1108543Y1177500D03*
X1101457D03*
X2546043D03*
X2538957D03*
X2258543D03*
X2251457D03*
X1973543D03*
X1966457D03*
X1691043D03*
X1683957D03*
X1400043D03*
X1392957D03*
X1246457Y1255000D03*
X1253543D03*
X1246457Y1225000D03*
X1253543D03*
X1246457Y1285000D03*
X1253543D03*
X1086043Y1177500D03*
X1078957D03*
X1183957D03*
X1191043D03*
X1598543Y1240000D03*
X1591457D03*
X2163543D03*
X2156457D03*
X1660543Y1177500D03*
X1653457D03*
X2238543D03*
X2231457D03*
X1361457Y1640000D03*
X1368543D03*
X1386043D03*
X1378957D03*
X1453957Y1607500D03*
X1461043D03*
X1486043D03*
X1478957D03*
X1543957Y1640000D03*
X1551043D03*
X1571043D03*
X1563957D03*
X1721457D03*
X1728543D03*
X1748543D03*
X1741457D03*
X1806457D03*
X1813543D03*
X1833543D03*
X1826457D03*
X2073957D03*
X2081043D03*
X2101043D03*
X2093957D03*
X2253957Y1607500D03*
X2261043D03*
X2291043Y1640000D03*
X2283957D03*
X1628957D03*
X1636043D03*
X1656043D03*
X1648957D03*
X1986457D03*
X1993543D03*
X2013543D03*
X2006457D03*
X2163957D03*
X2171043D03*
X2191043D03*
X2183957D03*
X2343957D03*
X2351043D03*
X2371043D03*
X2363957D03*
X1906457D03*
X1913543D03*
X1933543D03*
X1926457D03*
X1531457Y1195000D03*
X1538543D03*
X1531457Y1225000D03*
X1538543D03*
X1531457Y1255000D03*
X1538543D03*
X1531457Y1285000D03*
X1538543D03*
X1476957Y1177500D03*
X1484043D03*
X1823957Y1195000D03*
X1831043D03*
X1823957Y1225000D03*
X1831043D03*
X1823957Y1255000D03*
X1831043D03*
X1823957Y1285000D03*
X1831043D03*
X1761457Y1177500D03*
X1768543D03*
X2101457Y1195000D03*
X2108543D03*
X2101457Y1225000D03*
X2108543D03*
X2101457Y1255000D03*
X2108543D03*
X2101457Y1285000D03*
X2108543D03*
X2043957Y1177500D03*
X2051043D03*
X2391457Y1195000D03*
X2398543D03*
X2391457Y1225000D03*
X2398543D03*
X2391457Y1255000D03*
X2398543D03*
X2391457Y1285000D03*
X2398543D03*
X2334957Y1177500D03*
X2342043D03*
X2668957Y1195000D03*
X2676043D03*
X2668957Y1225000D03*
X2676043D03*
X2668957Y1255000D03*
X2676043D03*
X2668957Y1285000D03*
X2676043D03*
X2611457Y1177500D03*
X2618543D03*
G74*
X0Y0D02*
M02*
