*
*
G04 PADS9.0.1 Build Number: 350951 generated Gerber (RS-274-X) file*
G04 PC Version=2.1*
*
%IN "17-IES-NGP_rev3.pcb"*%
*
%MOIN*%
*
%FSLAX35Y35*%
*
*
*
*
G04 PC Standard Apertures*
*
*
G04 Thermal Relief Aperture macro.*
%AMTER*
1,1,$1,0,0*
1,0,$1-$2,0,0*
21,0,$3,$4,0,0,45*
21,0,$3,$4,0,0,135*
%
*
*
G04 Annular Aperture macro.*
%AMANN*
1,1,$1,0,0*
1,0,$2,0,0*
%
*
*
G04 Odd Aperture macro.*
%AMODD*
1,1,$1,0,0*
1,0,$1-0.005,0,0*
%
*
*
G04 PC Custom Aperture Macros*
*
*
*
*
*
*
G04 PC Aperture Table*
*
%ADD010C,0.01*%
%ADD025C,0.001*%
%ADD115R,0.062X0.062*%
%ADD217R,0.062X0.054*%
%ADD218R,0.054X0.062*%
%ADD219C,0.06106*%
%ADD220C,0.08074*%
%ADD222C,0.19885*%
%ADD227O,0.102X0.102*%
%ADD231R,0.032X0.04*%
%ADD232R,0.04X0.032*%
%ADD245C,0.04924*%
%ADD250C,0.06448*%
%ADD295C,0.202*%
%ADD296R,0.06106X0.01381*%
%ADD300R,0.065X0.065*%
%ADD312R,0.04924X0.04924*%
*
*
*
*
G04 PC Circuitry*
G04 Layer Name 17-IES-NGP_rev3.pcb - circuitry*
%LPD*%
*
*
G04 PC Custom Flashes*
G04 Layer Name 17-IES-NGP_rev3.pcb - flashes*
%LPD*%
*
*
G04 PC Circuitry*
G04 Layer Name 17-IES-NGP_rev3.pcb - circuitry*
%LPD*%
*
G54D10*
G01X128009Y758000D02*
X127782Y758563D01*
X127782D02*
X127327Y759125D01*
X126873Y759406*
X125964*
X125509Y759125*
X125055Y758563*
X125055D02*
X124827Y758000D01*
X124600Y757156*
Y755750*
X124827Y754906*
X125055Y754344*
X125509Y753781*
X125964Y753500*
X126873*
X127327Y753781*
X127782Y754344*
X128009Y754906*
X131191Y757438D02*
X130736Y757156D01*
X130282Y756594*
X130055Y755750*
Y755188*
X130055D02*
X130282Y754344D01*
X130736Y753781*
X131191Y753500*
X131873*
X132327Y753781*
X132782Y754344*
X133009Y755188*
X133009D02*
Y755750D01*
X132782Y756594*
X132327Y757156*
X131873Y757438*
X131873D02*
X131191D01*
X135055D02*
Y753500D01*
Y756313D02*
X135736Y757156D01*
X136191Y757438*
X136191D02*
X136873D01*
X136873D02*
X137327Y757156D01*
X137555Y756313*
X137555D02*
Y753500D01*
Y756313D02*
X138236Y757156D01*
X138691Y757438*
X138691D02*
X139373D01*
X139373D02*
X139827Y757156D01*
X140055Y756313*
X140055D02*
Y753500D01*
X142100Y757438D02*
Y751531D01*
Y756594D02*
X142555Y757156D01*
X143009Y757438*
X143009D02*
X143691D01*
X143691D02*
X144145Y757156D01*
X144600Y756594*
X144827Y755750*
Y755188*
X144827D02*
X144600Y754344D01*
X144145Y753781*
X143691Y753500*
X143009*
X142555Y753781*
X142100Y754344*
X146873Y757438D02*
Y753500D01*
Y755750D02*
X147100Y756594D01*
X147555Y757156*
X148009Y757438*
X148009D02*
X148691D01*
X150736Y755750D02*
X153464D01*
Y756313*
X153464D02*
X153236Y756875D01*
X153009Y757156*
X152555Y757438*
X152555D02*
X151873D01*
X151873D02*
X151418Y757156D01*
X150964Y756594*
X150736Y755750*
Y755188*
X150736D02*
X150964Y754344D01*
X151418Y753781*
X151873Y753500*
X152555*
X153009Y753781*
X153464Y754344*
X158009Y756594D02*
X157782Y757156D01*
X157100Y757438*
X157100D02*
X156418D01*
X156418D02*
X155736Y757156D01*
X155509Y756594*
X155736Y756031*
X156191Y755750*
X157327Y755469*
X157782Y755188*
X157782D02*
X158009Y754625D01*
Y754344*
X157782Y753781*
X157100Y753500*
X156418*
X155736Y753781*
X155509Y754344*
X162555Y756594D02*
X162327Y757156D01*
X161645Y757438*
X161645D02*
X160964D01*
X160964D02*
X160282Y757156D01*
X160055Y756594*
X160282Y756031*
X160736Y755750*
X161873Y755469*
X162327Y755188*
X162327D02*
X162555Y754625D01*
Y754344*
X162327Y753781*
X161645Y753500*
X160964*
X160282Y753781*
X160055Y754344*
X165736Y757438D02*
X165282Y757156D01*
X164827Y756594*
X164600Y755750*
Y755188*
X164600D02*
X164827Y754344D01*
X165282Y753781*
X165736Y753500*
X166418*
X166873Y753781*
X167327Y754344*
X167555Y755188*
X167555D02*
Y755750D01*
X167327Y756594*
X166873Y757156*
X166418Y757438*
X166418D02*
X165736D01*
X169600D02*
Y753500D01*
Y755750D02*
X169827Y756594D01*
X170282Y757156*
X170736Y757438*
X170736D02*
X171418D01*
X182100Y758000D02*
X181873Y758563D01*
X181873D02*
X181418Y759125D01*
X180964Y759406*
X180055*
X179600Y759125*
X179145Y758563*
X179145D02*
X178918Y758000D01*
X178691Y757156*
Y755750*
X178918Y754906*
X179145Y754344*
X179600Y753781*
X180055Y753500*
X180964*
X181418Y753781*
X181873Y754344*
X182100Y754906*
X185282Y757438D02*
X184827Y757156D01*
X184373Y756594*
X184145Y755750*
Y755188*
X184145D02*
X184373Y754344D01*
X184827Y753781*
X185282Y753500*
X185964*
X186418Y753781*
X186873Y754344*
X187100Y755188*
X187100D02*
Y755750D01*
X186873Y756594*
X186418Y757156*
X185964Y757438*
X185964D02*
X185282D01*
X189145D02*
Y753500D01*
Y756313D02*
X189827Y757156D01*
X190282Y757438*
X190282D02*
X190964D01*
X190964D02*
X191418Y757156D01*
X191645Y756313*
X191645D02*
Y753500D01*
X194373Y759406D02*
Y754625D01*
X194600Y753781*
X195055Y753500*
X195509*
X193691Y757438D02*
X195282D01*
X197555D02*
Y753500D01*
Y755750D02*
X197782Y756594D01*
X198236Y757156*
X198691Y757438*
X198691D02*
X199373D01*
X202555D02*
X202100Y757156D01*
X201645Y756594*
X201418Y755750*
Y755188*
X201418D02*
X201645Y754344D01*
X202100Y753781*
X202555Y753500*
X203236*
X203691Y753781*
X204145Y754344*
X204373Y755188*
X204373D02*
Y755750D01*
X204145Y756594*
X203691Y757156*
X203236Y757438*
X203236D02*
X202555D01*
X206418Y759406D02*
Y753500D01*
X210964Y756594D02*
X210736Y757156D01*
X210055Y757438*
X210055D02*
X209373D01*
X209373D02*
X208691Y757156D01*
X208464Y756594*
X208691Y756031*
X209145Y755750*
X210282Y755469*
X210736Y755188*
X210736D02*
X210964Y754625D01*
Y754344*
X210736Y753781*
X210055Y753500*
X209373*
X208691Y753781*
X208464Y754344*
X221645Y758000D02*
X221418Y758563D01*
X221418D02*
X220964Y759125D01*
X220509Y759406*
X219600*
X219145Y759125*
X218691Y758563*
X218691D02*
X218464Y758000D01*
X218236Y757156*
Y755750*
X218464Y754906*
X218691Y754344*
X219145Y753781*
X219600Y753500*
X220509*
X220964Y753781*
X221418Y754344*
X221645Y754906*
X224827Y757438D02*
X224373Y757156D01*
X223918Y756594*
X223691Y755750*
Y755188*
X223691D02*
X223918Y754344D01*
X224373Y753781*
X224827Y753500*
X225509*
X225964Y753781*
X226418Y754344*
X226645Y755188*
X226645D02*
Y755750D01*
X226418Y756594*
X225964Y757156*
X225509Y757438*
X225509D02*
X224827D01*
X228691D02*
Y753500D01*
Y755750D02*
X228918Y756594D01*
X229373Y757156*
X229827Y757438*
X229827D02*
X230509D01*
X232555D02*
Y751531D01*
Y756594D02*
X233009Y757156D01*
X233464Y757438*
X233464D02*
X234145D01*
X234145D02*
X234600Y757156D01*
X235055Y756594*
X235282Y755750*
Y755188*
X235282D02*
X235055Y754344D01*
X234600Y753781*
X234145Y753500*
X233464*
X233009Y753781*
X232555Y754344*
X238464Y757438D02*
X238009Y757156D01*
X237555Y756594*
X237327Y755750*
Y755188*
X237327D02*
X237555Y754344D01*
X238009Y753781*
X238464Y753500*
X239145*
X239600Y753781*
X240055Y754344*
X240282Y755188*
X240282D02*
Y755750D01*
X240055Y756594*
X239600Y757156*
X239145Y757438*
X239145D02*
X238464D01*
X242327D02*
Y753500D01*
Y755750D02*
X242555Y756594D01*
X243009Y757156*
X243464Y757438*
X243464D02*
X244145D01*
X248918D02*
Y753500D01*
Y756594D02*
X248464Y757156D01*
X248009Y757438*
X248009D02*
X247327D01*
X247327D02*
X246873Y757156D01*
X246418Y756594*
X246191Y755750*
Y755188*
X246191D02*
X246418Y754344D01*
X246873Y753781*
X247327Y753500*
X248009*
X248464Y753781*
X248918Y754344*
X251645Y759406D02*
Y754625D01*
X251873Y753781*
X252327Y753500*
X252782*
X250964Y757438D02*
X252555D01*
X254827Y759406D02*
X255055Y759125D01*
X255282Y759406*
X255055Y759688*
X255055D02*
X254827Y759406D01*
X255055Y757438D02*
Y753500D01*
X258464Y757438D02*
X258009Y757156D01*
X257555Y756594*
X257327Y755750*
Y755188*
X257327D02*
X257555Y754344D01*
X258009Y753781*
X258464Y753500*
X259145*
X259600Y753781*
X260055Y754344*
X260282Y755188*
X260282D02*
Y755750D01*
X260055Y756594*
X259600Y757156*
X259145Y757438*
X259145D02*
X258464D01*
X262327D02*
Y753500D01*
Y756313D02*
X263009Y757156D01*
X263464Y757438*
X263464D02*
X264145D01*
X264145D02*
X264600Y757156D01*
X264827Y756313*
X264827D02*
Y753500D01*
X272100Y756031D02*
X276191D01*
X278236D02*
X282327D01*
X289827Y758000D02*
Y758281D01*
X290055Y758844*
X290282Y759125*
X290736Y759406*
X291645*
X292100Y759125*
X292327Y758844*
X292555Y758281*
Y757719*
X292327Y757156*
X291873Y756313*
X291873D02*
X289600Y753500D01*
X292782*
X298009Y759406D02*
X295736Y753500D01*
X294827Y759406D02*
X298009D01*
X305282D02*
Y753500D01*
Y759406D02*
X308236D01*
X305282Y756594D02*
X307100D01*
X310282Y759406D02*
Y753500D01*
Y759406D02*
X313236D01*
X310282Y756594D02*
X312100D01*
X310282Y753500D02*
X313236D01*
X315282Y759406D02*
Y753500D01*
Y759406D02*
X317327D01*
X318009Y759125*
X318236Y758844*
X318464Y758281*
Y757719*
X318236Y757156*
X318009Y756875*
X317327Y756594*
X315282D02*
X317327D01*
X318009Y756313*
X318009D02*
X318236Y756031D01*
X318464Y755469*
Y754625*
X318236Y754063*
X318236D02*
X318009Y753781D01*
X317327Y753500*
X315282*
X325964Y758000D02*
Y758281D01*
X326191Y758844*
X326418Y759125*
X326873Y759406*
X327782*
X328236Y759125*
X328464Y758844*
X328691Y758281*
Y757719*
X328464Y757156*
X328009Y756313*
X328009D02*
X325736Y753500D01*
X328918*
X332327Y759406D02*
X331645Y759125D01*
X331191Y758281*
X330964Y756875*
Y756031*
X331191Y754625*
X331645Y753781*
X332327Y753500*
X332782*
X333464Y753781*
X333918Y754625*
X334145Y756031*
Y756875*
X333918Y758281*
X333464Y759125*
X332782Y759406*
X332327*
X336191Y758281D02*
X336645Y758563D01*
X336645D02*
X337327Y759406D01*
Y753500*
X339600Y758000D02*
Y758281D01*
X339827Y758844*
X340055Y759125*
X340509Y759406*
X341418*
X341873Y759125*
X342100Y758844*
X342327Y758281*
Y757719*
X342100Y757156*
X341645Y756313*
X341645D02*
X339373Y753500D01*
X342555*
X124600Y745781D02*
X125055Y746063D01*
X125055D02*
X125736Y746906D01*
Y741000*
X130964Y746906D02*
X128691Y741000D01*
X127782Y746906D02*
X130964D01*
X133009Y743531D02*
X137100D01*
X141873Y746063D02*
X141645Y746625D01*
X140964Y746906*
X140509*
X139827Y746625*
X139373Y745781*
X139145Y744375*
Y742969*
X139373Y741844*
X139827Y741281*
X140509Y741000*
X140736*
X141418Y741281*
X141873Y741844*
X142100Y742688*
X142100D02*
Y742969D01*
X141873Y743813*
X141873D02*
X141418Y744375D01*
X140736Y744656*
X140509*
X139827Y744375*
X139373Y743813*
X139373D02*
X139145Y742969D01*
X145509Y746906D02*
X144827Y746625D01*
X144373Y745781*
X144145Y744375*
Y743531*
X144373Y742125*
X144827Y741281*
X145509Y741000*
X145964*
X146645Y741281*
X147100Y742125*
X147327Y743531*
Y744375*
X147100Y745781*
X146645Y746625*
X145964Y746906*
X145509*
X150736D02*
X150055Y746625D01*
X149600Y745781*
X149373Y744375*
Y743531*
X149600Y742125*
X150055Y741281*
X150736Y741000*
X151191*
X151873Y741281*
X152327Y742125*
X152555Y743531*
Y744375*
X152327Y745781*
X151873Y746625*
X151191Y746906*
X150736*
X155055D02*
X157555D01*
X156191Y744656*
X156873*
X157327Y744375*
X157555Y744094*
X157782Y743250*
Y742688*
X157782D02*
X157555Y741844D01*
X157100Y741281*
X156418Y741000*
X155736*
X155055Y741281*
X154827Y741563*
X154827D02*
X154600Y742125D01*
X161191Y746906D02*
X160509Y746625D01*
X160055Y745781*
X159827Y744375*
Y743531*
X160055Y742125*
X160509Y741281*
X161191Y741000*
X161645*
X162327Y741281*
X162782Y742125*
X163009Y743531*
Y744375*
X162782Y745781*
X162327Y746625*
X161645Y746906*
X161191*
X166418D02*
X165736Y746625D01*
X165282Y745781*
X165055Y744375*
Y743531*
X165282Y742125*
X165736Y741281*
X166418Y741000*
X166873*
X167555Y741281*
X168009Y742125*
X168236Y743531*
Y744375*
X168009Y745781*
X167555Y746625*
X166873Y746906*
X166418*
X170282Y743531D02*
X174373D01*
X177782Y746906D02*
X177100Y746625D01*
X176645Y745781*
X176418Y744375*
Y743531*
X176645Y742125*
X177100Y741281*
X177782Y741000*
X178236*
X178918Y741281*
X179373Y742125*
X179600Y743531*
Y744375*
X179373Y745781*
X178918Y746625*
X178236Y746906*
X177782*
X183009D02*
X182327Y746625D01*
X181873Y745781*
X181645Y744375*
Y743531*
X181873Y742125*
X182327Y741281*
X183009Y741000*
X183464*
X184145Y741281*
X184600Y742125*
X184827Y743531*
Y744375*
X184600Y745781*
X184145Y746625*
X183464Y746906*
X183009*
X186873Y745781D02*
X187327Y746063D01*
X187327D02*
X188009Y746906D01*
Y741000*
X195282Y746906D02*
Y741000D01*
Y746906D02*
X197327D01*
X198009Y746625*
X198236Y746344*
X198464Y745781*
Y745219*
X198236Y744656*
X198009Y744375*
X197327Y744094*
X195282*
X196873D02*
X198464Y741000D01*
X200509Y743250D02*
X203236D01*
Y743813*
X203236D02*
X203009Y744375D01*
X202782Y744656*
X202327Y744938*
X202327D02*
X201645D01*
X201645D02*
X201191Y744656D01*
X200736Y744094*
X200509Y743250*
Y742688*
X200509D02*
X200736Y741844D01*
X201191Y741281*
X201645Y741000*
X202327*
X202782Y741281*
X203236Y741844*
X205282Y744938D02*
X206645Y741000D01*
X208009Y744938D02*
X206645Y741000D01*
X210282Y741563D02*
X210055Y741281D01*
X210282Y741000*
X210509Y741281*
X210282Y741563*
X218236Y746906D02*
X220736D01*
X219373Y744656*
X220055*
X220509Y744375*
X220736Y744094*
X220964Y743250*
Y742688*
X220964D02*
X220736Y741844D01*
X220282Y741281*
X219600Y741000*
X218918*
X218236Y741281*
X218009Y741563*
X218009D02*
X217782Y742125D01*
X380982Y729963D02*
X380527Y730525D01*
X379845Y730806*
X378936*
X378255Y730525*
X377800Y729963*
X377800D02*
Y729400D01*
X378027Y728838*
X378027D02*
X378255Y728556D01*
X378709Y728275*
X380073Y727713*
X380073D02*
X380527Y727431D01*
X380755Y727150*
X380982Y726588*
X380982D02*
Y725744D01*
X380527Y725181*
X379845Y724900*
X378936*
X378255Y725181*
X377800Y725744*
X384391Y730806D02*
X383936Y730525D01*
X383482Y729963*
X383482D02*
X383255Y729400D01*
X383027Y728556*
Y727150*
X383255Y726306*
X383482Y725744*
X383936Y725181*
X384391Y724900*
X385300*
X385755Y725181*
X386209Y725744*
X386436Y726306*
X386664Y727150*
Y728556*
X386436Y729400*
X386209Y729963*
X386209D02*
X385755Y730525D01*
X385300Y730806*
X384391*
X388709D02*
Y724900D01*
X391436*
X393482Y730806D02*
Y724900D01*
Y730806D02*
X395073D01*
X395755Y730525*
X396209Y729963*
X396209D02*
X396436Y729400D01*
X396664Y728556*
Y727150*
X396436Y726306*
X396209Y725744*
X395755Y725181*
X395073Y724900*
X393482*
X398709Y730806D02*
Y724900D01*
Y730806D02*
X401664D01*
X398709Y727994D02*
X400527D01*
X398709Y724900D02*
X401664D01*
X403709Y730806D02*
Y724900D01*
Y730806D02*
X405755D01*
X406436Y730525*
X406664Y730244*
X406891Y729681*
Y729119*
X406664Y728556*
X406436Y728275*
X405755Y727994*
X403709*
X405300D02*
X406891Y724900D01*
X414164Y730806D02*
Y724900D01*
Y730806D02*
X415982Y724900D01*
X417800Y730806D02*
X415982Y724900D01*
X417800Y730806D02*
Y724900D01*
X421664Y730806D02*
X419845Y724900D01*
X421664Y730806D02*
X423482Y724900D01*
X420527Y726869D02*
X422800D01*
X428709Y729963D02*
X428255Y730525D01*
X427573Y730806*
X426664*
X425982Y730525*
X425527Y729963*
X425527D02*
Y729400D01*
X425755Y728838*
X425755D02*
X425982Y728556D01*
X426436Y728275*
X427800Y727713*
X427800D02*
X428255Y727431D01*
X428482Y727150*
X428709Y726588*
X428709D02*
Y725744D01*
X428255Y725181*
X427573Y724900*
X426664*
X425982Y725181*
X425527Y725744*
X430755Y730806D02*
Y724900D01*
X433936Y730806D02*
X430755Y726869D01*
X431891Y728275D02*
X433936Y724900D01*
X441209Y730806D02*
Y724900D01*
Y730806D02*
X443255D01*
X443936Y730525*
X444164Y730244*
X444391Y729681*
Y729119*
X444164Y728556*
X443936Y728275*
X443255Y727994*
X441209D02*
X443255D01*
X443936Y727713*
X443936D02*
X444164Y727431D01*
X444391Y726869*
Y726025*
X444164Y725463*
X444164D02*
X443936Y725181D01*
X443255Y724900*
X441209*
X447800Y730806D02*
X447345Y730525D01*
X446891Y729963*
X446891D02*
X446664Y729400D01*
X446436Y728556*
Y727150*
X446664Y726306*
X446891Y725744*
X447345Y725181*
X447800Y724900*
X448709*
X449164Y725181*
X449618Y725744*
X449845Y726306*
X450073Y727150*
Y728556*
X449845Y729400*
X449618Y729963*
X449618D02*
X449164Y730525D01*
X448709Y730806*
X447800*
X453709D02*
Y724900D01*
X452118Y730806D02*
X455300D01*
X458936D02*
Y724900D01*
X457345Y730806D02*
X460527D01*
X463936D02*
X463482Y730525D01*
X463027Y729963*
X463027D02*
X462800Y729400D01*
X462573Y728556*
Y727150*
X462800Y726306*
X463027Y725744*
X463482Y725181*
X463936Y724900*
X464845*
X465300Y725181*
X465755Y725744*
X465982Y726306*
X466209Y727150*
Y728556*
X465982Y729400*
X465755Y729963*
X465755D02*
X465300Y730525D01*
X464845Y730806*
X463936*
X468255D02*
Y724900D01*
Y730806D02*
X470073Y724900D01*
X471891Y730806D02*
X470073Y724900D01*
X471891Y730806D02*
Y724900D01*
X600000Y695000D02*
X595000Y700000D01*
X119685*
X100000Y680315*
Y463780*
X141339Y100000*
X595000*
X600000Y105000*
Y695000*
G54D25*
G54D115*
X465250Y309000D03*
X451750D03*
G54D217*
X415949Y228308D03*
Y235788D03*
X165500Y176260D03*
Y183740D03*
X259249Y336008D03*
Y343488D03*
X265249Y222008D03*
Y229488D03*
X262249Y482008D03*
Y489488D03*
X500000Y384740D03*
Y377260D03*
X274000Y349760D03*
Y357240D03*
X262249Y471488D03*
Y464008D03*
X257249Y600488D03*
Y593008D03*
Y622488D03*
Y615008D03*
X414949Y475788D03*
Y468308D03*
Y490308D03*
Y497788D03*
Y344788D03*
Y337308D03*
X426500Y357260D03*
Y364740D03*
X415949Y208308D03*
Y215788D03*
X256249Y202008D03*
Y209488D03*
X154500Y218760D03*
Y226240D03*
X152000Y237760D03*
Y245240D03*
X140000Y353740D03*
Y346260D03*
X133500Y372240D03*
Y364760D03*
X131500Y393240D03*
Y385760D03*
X171000Y235740D03*
Y228260D03*
X155000Y193760D03*
Y201240D03*
G54D218*
X489839Y295946D03*
X482359D03*
X489839Y274686D03*
X482359D03*
X489839Y285316D03*
X482359D03*
X474240Y373000D03*
X466760D03*
X151260Y256500D03*
X158740D03*
X150260Y276500D03*
X157740D03*
X146260Y295500D03*
X153740D03*
X144760Y315000D03*
X152240D03*
X144260Y333500D03*
X151740D03*
X471760Y233200D03*
X479240D03*
G54D219*
X540945Y621535D03*
X548819D03*
X556693D03*
X540945Y597913D03*
X548819D03*
X556693D03*
X572441Y621535D03*
Y597913D03*
X580315Y621535D03*
X588189D03*
X580315Y597913D03*
X588189D03*
G54D220*
X584252Y609724D03*
G54D222*
X580315Y140827D03*
X558150D03*
X532087D03*
X580315Y659055D03*
X558150D03*
X532087D03*
G54D227*
X557500Y556000D03*
X286000Y654000D03*
X310000D03*
G54D231*
X337949Y227948D03*
Y234148D03*
X337909Y212078D03*
Y218278D03*
X346949Y227948D03*
Y234148D03*
X346909Y212078D03*
Y218278D03*
Y201778D03*
Y195578D03*
X337909Y201778D03*
Y195578D03*
X405949Y215148D03*
Y208948D03*
X389489Y185018D03*
Y178818D03*
X406949Y247948D03*
Y254148D03*
X337949Y177948D03*
Y184148D03*
X396949Y247948D03*
Y254148D03*
X346489Y177818D03*
Y184018D03*
X342949Y330148D03*
Y323948D03*
X334449Y330148D03*
Y323948D03*
X396949Y378948D03*
Y385148D03*
X405749Y378948D03*
Y385148D03*
X333949Y305948D03*
Y312148D03*
X334949Y346148D03*
Y339948D03*
X390949Y305948D03*
Y312148D03*
X404949Y345148D03*
Y338948D03*
X343449Y346148D03*
Y339948D03*
X334949Y355948D03*
Y362148D03*
X343449Y355948D03*
Y362148D03*
X346949Y474648D03*
Y468448D03*
X337949Y458648D03*
Y452448D03*
X346949Y458648D03*
Y452448D03*
X337939Y474668D03*
Y468468D03*
X346949Y483948D03*
Y490148D03*
X337949Y483948D03*
Y490148D03*
X406949Y509948D03*
Y516148D03*
X387949Y441148D03*
Y434948D03*
X404949Y475148D03*
Y468948D03*
X397459Y509578D03*
Y515778D03*
X185309Y215678D03*
Y209478D03*
X246249Y190848D03*
Y184648D03*
X194309Y225978D03*
Y232178D03*
Y215678D03*
Y209478D03*
Y199678D03*
Y193478D03*
X185249Y199848D03*
Y193648D03*
X185309Y225978D03*
Y232178D03*
X255249Y190848D03*
Y184648D03*
X246249Y203648D03*
Y209848D03*
X264249Y190848D03*
Y184648D03*
X184609Y343778D03*
Y337578D03*
X193609Y343778D03*
Y337578D03*
X184609Y353578D03*
Y359778D03*
X193609Y353578D03*
Y359778D03*
X253789Y373518D03*
Y379718D03*
X244789Y373518D03*
Y379718D03*
X184609Y328278D03*
Y322078D03*
X193609Y328278D03*
Y322078D03*
X244789Y357518D03*
Y363718D03*
X253849Y357548D03*
Y363748D03*
X248249Y306848D03*
Y300648D03*
X250249Y336648D03*
Y342848D03*
X191899Y459948D03*
Y453748D03*
X183299Y475648D03*
Y469448D03*
X183199Y485448D03*
Y491648D03*
X243909Y497928D03*
Y504128D03*
Y481928D03*
Y488128D03*
X183209Y459928D03*
Y453728D03*
X252909Y481928D03*
Y488128D03*
X243409Y449628D03*
Y443428D03*
X191899Y485448D03*
Y491648D03*
X191909Y475628D03*
Y469428D03*
X251909Y449628D03*
Y443428D03*
X252909Y497928D03*
Y504128D03*
X228249Y441848D03*
Y435648D03*
X239249Y636648D03*
Y642848D03*
X248249Y636648D03*
Y642848D03*
X188659Y609028D03*
Y615228D03*
X180159Y599728D03*
Y593528D03*
X188659Y578028D03*
Y584228D03*
X180159Y609028D03*
Y615228D03*
Y578028D03*
Y584228D03*
X188659Y599728D03*
Y593528D03*
X228249Y566848D03*
Y560648D03*
X247249Y599848D03*
Y593648D03*
X523500Y364600D03*
Y358400D03*
X252249Y470848D03*
Y464648D03*
X498303Y253082D03*
Y259282D03*
X488949Y252948D03*
Y259148D03*
X461689Y255345D03*
Y249145D03*
G54D232*
X365049Y186048D03*
X358849D03*
X365049Y177548D03*
X358849D03*
X398849Y238048D03*
X405049D03*
X398849Y229048D03*
X405049D03*
X405849Y169048D03*
X412049D03*
X374389Y177418D03*
X380589D03*
X405809Y196178D03*
X412009D03*
X405809Y187178D03*
X412009D03*
X375849Y250048D03*
X382049D03*
X374389Y185918D03*
X380589D03*
X375849Y241548D03*
X382049D03*
X366049D03*
X359849D03*
X366049Y250048D03*
X359849D03*
X378049Y215048D03*
X371849D03*
X377949Y206948D03*
X371749D03*
X339849Y252048D03*
X346049D03*
X405849Y178048D03*
X412049D03*
X421849Y187048D03*
X428049D03*
X421849Y196048D03*
X428049D03*
X339849Y243048D03*
X346049D03*
X401849Y315048D03*
X408049D03*
X401849Y324048D03*
X408049D03*
X398649Y369048D03*
X404849D03*
X398649Y360548D03*
X404849D03*
X358849Y304048D03*
X365049D03*
Y374048D03*
X358849D03*
X370849Y345648D03*
X377049D03*
X349049Y304048D03*
X342849D03*
X349049Y313048D03*
X342849D03*
Y374048D03*
X349049D03*
X417849Y324048D03*
X424049D03*
X417849Y315048D03*
X424049D03*
X401849Y306048D03*
X408049D03*
X370849Y337048D03*
X377049D03*
X342849Y383048D03*
X349049D03*
X374849Y304048D03*
X381049D03*
X365049Y383048D03*
X358849D03*
Y313048D03*
X365049D03*
X374849D03*
X381049D03*
X374849Y383048D03*
X381049D03*
X374849Y374048D03*
X381049D03*
X397849Y491048D03*
X404049D03*
X397849Y500048D03*
X404049D03*
X398849Y453048D03*
X405049D03*
X414849D03*
X421049D03*
X398849Y444048D03*
X405049D03*
X398900Y436000D03*
X405100D03*
X376559Y463178D03*
X370359D03*
X339849Y443048D03*
X346049D03*
X339849Y434048D03*
X346049D03*
X362559Y434678D03*
X356359D03*
X339849Y500048D03*
X346049D03*
X339849Y509048D03*
X346049D03*
X371849Y434048D03*
X378049D03*
X376559Y471678D03*
X370359D03*
X398849Y426048D03*
X405049D03*
X372849Y509048D03*
X379049D03*
X363559Y500178D03*
X357359D03*
X363559Y509178D03*
X357359D03*
X372849Y500048D03*
X379049D03*
X371849Y443048D03*
X378049D03*
X362559Y443178D03*
X356359D03*
X414849Y444048D03*
X421049D03*
X192100Y172000D03*
X185900D03*
X247149Y242748D03*
X253349D03*
X193349Y251748D03*
X187149D03*
X247149Y222748D03*
X253349D03*
X247149Y232748D03*
X253349D03*
X221349Y215748D03*
X215149D03*
X208600Y163500D03*
X202400D03*
X220649Y184248D03*
X226849D03*
X220149Y162748D03*
X226349D03*
X213349Y244748D03*
X207149D03*
X225149Y245748D03*
X231349D03*
X221349Y207348D03*
X215149D03*
X213349Y235748D03*
X207149D03*
X253349Y173748D03*
X247149D03*
X220649Y175748D03*
X226849D03*
X192100Y181000D03*
X185900D03*
X208600Y182500D03*
X202400D03*
X193409Y241978D03*
X187209D03*
X207149Y253748D03*
X213349D03*
X192100Y163000D03*
X185900D03*
X208600Y172500D03*
X202400D03*
X225149Y235748D03*
X231349D03*
X215009Y343178D03*
X221209D03*
X193349Y377748D03*
X187149D03*
X248149Y315748D03*
X254349D03*
X264149D03*
X270349D03*
X248149Y324248D03*
X254349D03*
X205349Y309748D03*
X199149D03*
X264149Y325248D03*
X270349D03*
X193349Y369248D03*
X187149D03*
X205349Y300748D03*
X199149D03*
X189349D03*
X183149D03*
X189349Y309748D03*
X183149D03*
X222199Y362698D03*
X228399D03*
X222149Y371748D03*
X228349D03*
X212349D03*
X206149D03*
X212349Y362748D03*
X206149D03*
X221349Y300248D03*
X215149D03*
X221349Y309748D03*
X215149D03*
X231149D03*
X237349D03*
X231149Y300748D03*
X237349D03*
X215009Y334678D03*
X221209D03*
X203349Y444748D03*
X197149D03*
X209349Y495048D03*
X203149D03*
X219149D03*
X225349D03*
X213149Y435748D03*
X219349D03*
X209349Y504048D03*
X203149D03*
X219149Y503748D03*
X225349D03*
X213149Y444748D03*
X219349D03*
X222349Y464648D03*
X216149D03*
X203349Y435748D03*
X197149D03*
X222349Y472748D03*
X216149D03*
X244149Y425748D03*
X250349D03*
X191349Y509748D03*
X185149D03*
X187499Y444548D03*
X181299D03*
X191349Y500748D03*
X185149D03*
X261149Y440748D03*
X267349D03*
X187349Y435748D03*
X181149D03*
X244249Y434248D03*
X250449D03*
X261149Y449748D03*
X267349D03*
X187349Y624748D03*
X181149D03*
X258149Y581748D03*
X264349D03*
X187349Y559748D03*
X181149D03*
X258149Y572748D03*
X264349D03*
X242149Y554748D03*
X248349D03*
X242149Y563748D03*
X248349D03*
X241149Y627748D03*
X247349D03*
X242149Y572748D03*
X248349D03*
X242149Y545748D03*
X248349D03*
X187439Y633868D03*
X181239D03*
X222349Y591548D03*
X216149D03*
X241149Y618748D03*
X247349D03*
X187349Y568748D03*
X181149D03*
X217149Y618748D03*
X223349D03*
X207349D03*
X201149D03*
X217239Y627368D03*
X223439D03*
X207439D03*
X201239D03*
X213149Y559748D03*
X219349D03*
X213149Y568748D03*
X219349D03*
X203349D03*
X197149D03*
X203349Y559748D03*
X197149D03*
X222349Y599748D03*
X216149D03*
G54D245*
X592126Y198740D03*
X591732Y206614D03*
X592126Y214488D03*
X591732Y222362D03*
X592126Y230236D03*
X591732Y238110D03*
X592126Y245984D03*
X586220Y190866D03*
X586614Y198740D03*
X586220Y206614D03*
X586614Y214488D03*
X586220Y222362D03*
X586614Y230236D03*
X586220Y238110D03*
X586614Y245984D03*
X580709Y190866D03*
X575197D03*
X569685D03*
X564173D03*
X558661D03*
X553149D03*
X547637D03*
X581102Y198740D03*
X580709Y206614D03*
X581102Y214488D03*
X580709Y222362D03*
X581102Y230236D03*
X580709Y238110D03*
X581102Y245984D03*
X575590Y198740D03*
X575197Y206614D03*
X575590Y214488D03*
X575197Y222362D03*
X575590Y230236D03*
X575197Y238110D03*
X575590Y245984D03*
X570078Y198740D03*
X569685Y206614D03*
X570078Y214488D03*
X569685Y222362D03*
X570078Y230236D03*
X569685Y238110D03*
X570078Y245984D03*
X564566Y198740D03*
X564173Y206614D03*
X564566Y214488D03*
X564173Y222362D03*
X564566Y230236D03*
X564173Y238110D03*
X564566Y245984D03*
X559054Y198740D03*
X558661Y206614D03*
X559054Y214488D03*
X558661Y222362D03*
X559054Y230236D03*
X558661Y238110D03*
X559054Y245984D03*
X553542Y198740D03*
X553149Y206614D03*
X553542Y214488D03*
X553149Y222362D03*
X553542Y230236D03*
X553149Y238110D03*
X553542Y245984D03*
X548030Y198740D03*
X547637Y206614D03*
X548030Y214488D03*
X547637Y222362D03*
X548030Y230236D03*
X547637Y238110D03*
X548030Y245984D03*
X592126Y345669D03*
X591732Y353543D03*
X592126Y361417D03*
X591732Y369291D03*
X592126Y377165D03*
X591732Y385039D03*
X592126Y392913D03*
X586220Y337795D03*
X586614Y345669D03*
X586220Y353543D03*
X586614Y361417D03*
X586220Y369291D03*
X586614Y377165D03*
X586220Y385039D03*
X586614Y392913D03*
X580709Y337795D03*
X575197D03*
X569685D03*
X564173D03*
X558661D03*
X553149D03*
X547637D03*
X581102Y345669D03*
X580709Y353543D03*
X581102Y361417D03*
X580709Y369291D03*
X581102Y377165D03*
X580709Y385039D03*
X581102Y392913D03*
X575590Y345669D03*
X575197Y353543D03*
X575590Y361417D03*
X575197Y369291D03*
X575590Y377165D03*
X575197Y385039D03*
X575590Y392913D03*
X570078Y345669D03*
X569685Y353543D03*
X570078Y361417D03*
X569685Y369291D03*
X570078Y377165D03*
X569685Y385039D03*
X570078Y392913D03*
X564566Y345669D03*
X564173Y353543D03*
X564566Y361417D03*
X564173Y369291D03*
X564566Y377165D03*
X564173Y385039D03*
X564566Y392913D03*
X559054Y345669D03*
X558661Y353543D03*
X559054Y361417D03*
X558661Y369291D03*
X559054Y377165D03*
X558661Y385039D03*
X559054Y392913D03*
X553542Y345669D03*
X553149Y353543D03*
X553542Y361417D03*
X553149Y369291D03*
X553542Y377165D03*
X553149Y385039D03*
X553542Y392913D03*
X548030Y345669D03*
X547637Y353543D03*
X548030Y361417D03*
X547637Y369291D03*
X548030Y377165D03*
X547637Y385039D03*
X548030Y392913D03*
G54D250*
X140118Y208504D03*
Y218504D03*
X133504Y267126D03*
Y277126D03*
X131299Y286732D03*
Y296732D03*
X126890Y325866D03*
Y335866D03*
X124685Y345394D03*
Y355394D03*
X113622Y443189D03*
Y453189D03*
X137913Y228071D03*
Y238071D03*
X135709Y247598D03*
Y257598D03*
X129094Y306299D03*
Y316299D03*
X122441Y364961D03*
Y374961D03*
X120236Y384488D03*
Y394488D03*
X118031Y404094D03*
Y414094D03*
X115827Y423661D03*
Y433661D03*
X142362Y188937D03*
Y198937D03*
X108110Y547520D03*
Y557520D03*
G54D295*
X121400Y590400D03*
X582400Y568200D03*
X162300Y144400D03*
G54D296*
X145349Y374548D03*
Y376517D03*
Y378485D03*
Y380454D03*
Y382422D03*
Y384391D03*
Y386359D03*
Y388328D03*
Y390296D03*
Y392265D03*
Y394233D03*
Y396202D03*
Y398170D03*
Y400139D03*
Y402107D03*
Y404076D03*
Y406044D03*
Y408013D03*
Y409981D03*
Y411950D03*
Y413918D03*
Y415887D03*
Y417855D03*
Y419824D03*
X174877D03*
Y417855D03*
Y415887D03*
Y413918D03*
Y411950D03*
Y409981D03*
Y408013D03*
Y406044D03*
Y404076D03*
Y402107D03*
Y400139D03*
Y398170D03*
Y396202D03*
Y394233D03*
Y392265D03*
Y390296D03*
Y388328D03*
Y386359D03*
Y384391D03*
Y382422D03*
Y380454D03*
Y378485D03*
Y376517D03*
Y374548D03*
G54D300*
X491512Y308600D02*
Y309400D01*
X480488Y308600D02*
Y309400D01*
G54D312*
X591732Y190866D03*
Y337795D03*
X0Y0D02*
M02*
