*
*
G04 PADS9.0.1 Build Number: 350951 generated Gerber (RS-274-X) file*
G04 PC Version=2.1*
*
%IN "CCCNGP_FTC_AM-BOARD3.pc"*%
*
%MOIN*%
*
%FSLAX25Y25*%
*
*
*
*
G04 PC Standard Apertures*
*
*
G04 Thermal Relief Aperture macro.*
%AMTER*
1,1,$1,0,0*
1,0,$1-$2,0,0*
21,0,$3,$4,0,0,45*
21,0,$3,$4,0,0,135*
%
*
*
G04 Annular Aperture macro.*
%AMANN*
1,1,$1,0,0*
1,0,$2,0,0*
%
*
*
G04 Odd Aperture macro.*
%AMODD*
1,1,$1,0,0*
1,0,$1-0.005,0,0*
%
*
*
G04 PC Custom Aperture Macros*
*
*
*
*
*
*
G04 PC Aperture Table*
*
%ADD010C,0.001*%
%ADD026C,0.008*%
%ADD032C,0.01*%
%ADD071R,0.06693X0.06693*%
*
*
*
*
G04 PC Circuitry*
G04 Layer Name CCCNGP_FTC_AM-BOARD3.pc - circuitry*
%LPD*%
*
*
G04 PC Custom Flashes*
G04 Layer Name CCCNGP_FTC_AM-BOARD3.pc - flashes*
%LPD*%
*
*
G04 PC Circuitry*
G04 Layer Name CCCNGP_FTC_AM-BOARD3.pc - circuitry*
%LPD*%
*
G54D10*
G54D26*
G01X1889250Y1789054D02*
X2126750D01*
Y1724726*
X1889250*
Y1789054*
G54D32*
X1992150Y1738308D02*
Y1731746D01*
Y1738308D02*
X1994195D01*
X1994877Y1737996*
X1995105Y1737683*
X1995332Y1737058*
Y1736433*
X1995105Y1735808*
X1994877Y1735496*
X1994195Y1735183*
X1992150D02*
X1994195D01*
X1994877Y1734871*
X1995105Y1734558*
X1995332Y1733933*
Y1732996*
X1995105Y1732371*
X1994877Y1732058*
X1994195Y1731746*
X1992150*
X1998741Y1738308D02*
X1998286Y1737996D01*
X1997832Y1737371*
X1997605Y1736746*
X1997377Y1735808*
Y1734246*
X1997605Y1733308*
X1997832Y1732683*
X1998286Y1732058*
X1998741Y1731746*
X1999650*
X2000105Y1732058*
X2000559Y1732683*
X2000786Y1733308*
X2001014Y1734246*
Y1735808*
X2000786Y1736746*
X2000559Y1737371*
X2000105Y1737996*
X1999650Y1738308*
X1998741*
X2004650D02*
Y1731746D01*
X2003059Y1738308D02*
X2006241D01*
X2009877D02*
Y1731746D01*
X2008286Y1738308D02*
X2011468D01*
X2014877D02*
X2014423Y1737996D01*
X2013968Y1737371*
X2013741Y1736746*
X2013514Y1735808*
Y1734246*
X2013741Y1733308*
X2013968Y1732683*
X2014423Y1732058*
X2014877Y1731746*
X2015786*
X2016241Y1732058*
X2016695Y1732683*
X2016923Y1733308*
X2017150Y1734246*
Y1735808*
X2016923Y1736746*
X2016695Y1737371*
X2016241Y1737996*
X2015786Y1738308*
X2014877*
X2019195D02*
Y1731746D01*
Y1738308D02*
X2021014Y1731746D01*
X2022832Y1738308D02*
X2021014Y1731746D01*
X2022832Y1738308D02*
Y1731746D01*
X2030105Y1738308D02*
Y1731746D01*
Y1738308D02*
X2032150D01*
X2032832Y1737996*
X2033059Y1737683*
X2033286Y1737058*
Y1736121*
X2033059Y1735496*
X2032832Y1735183*
X2032150Y1734871*
X2030105*
X2037150Y1738308D02*
X2035332Y1731746D01*
X2037150Y1738308D02*
X2038968Y1731746D01*
X2036014Y1733933D02*
X2038286D01*
X2044195Y1737371D02*
X2043741Y1737996D01*
X2043059Y1738308*
X2042150*
X2041468Y1737996*
X2041014Y1737371*
Y1736746*
X2041241Y1736121*
X2041468Y1735808*
X2041923Y1735496*
X2043286Y1734871*
X2043741Y1734558*
X2043968Y1734246*
X2044195Y1733621*
Y1732683*
X2043741Y1732058*
X2043059Y1731746*
X2042150*
X2041468Y1732058*
X2041014Y1732683*
X2047832Y1738308D02*
Y1731746D01*
X2046241Y1738308D02*
X2049423D01*
X2051468D02*
Y1731746D01*
Y1738308D02*
X2054423D01*
X2051468Y1735183D02*
X2053286D01*
X2051468Y1731746D02*
X2054423D01*
X1894250Y1765617D02*
Y1759054D01*
Y1765617D02*
X1896295D01*
X1896977Y1765304*
X1897205Y1764992*
X1897432Y1764367*
Y1763742*
X1897205Y1763117*
X1896977Y1762804*
X1896295Y1762492*
X1894250D02*
X1896295D01*
X1896977Y1762179*
X1897205Y1761867*
X1897432Y1761242*
Y1760304*
X1897205Y1759679*
X1896977Y1759367*
X1896295Y1759054*
X1894250*
X1900841Y1765617D02*
X1900386Y1765304D01*
X1899932Y1764679*
X1899705Y1764054*
X1899477Y1763117*
Y1761554*
X1899705Y1760617*
X1899932Y1759992*
X1900386Y1759367*
X1900841Y1759054*
X1901750*
X1902205Y1759367*
X1902659Y1759992*
X1902886Y1760617*
X1903114Y1761554*
Y1763117*
X1902886Y1764054*
X1902659Y1764679*
X1902205Y1765304*
X1901750Y1765617*
X1900841*
X1906977D02*
X1905159Y1759054D01*
X1906977Y1765617D02*
X1908795Y1759054D01*
X1905841Y1761242D02*
X1908114D01*
X1910841Y1765617D02*
Y1759054D01*
Y1765617D02*
X1912886D01*
X1913568Y1765304*
X1913795Y1764992*
X1914023Y1764367*
Y1763742*
X1913795Y1763117*
X1913568Y1762804*
X1912886Y1762492*
X1910841*
X1912432D02*
X1914023Y1759054D01*
X1916068Y1765617D02*
Y1759054D01*
Y1765617D02*
X1917659D01*
X1918341Y1765304*
X1918795Y1764679*
X1919023Y1764054*
X1919250Y1763117*
Y1761554*
X1919023Y1760617*
X1918795Y1759992*
X1918341Y1759367*
X1917659Y1759054*
X1916068*
X1931750Y1765617D02*
Y1759054D01*
Y1765617D02*
X1934932Y1759054D01*
Y1765617D02*
Y1759054D01*
X1938795Y1765617D02*
X1936977Y1759054D01*
X1938795Y1765617D02*
X1940614Y1759054D01*
X1937659Y1761242D02*
X1939932D01*
X1942659Y1765617D02*
Y1759054D01*
Y1765617D02*
X1944477Y1759054D01*
X1946295Y1765617D02*
X1944477Y1759054D01*
X1946295Y1765617D02*
Y1759054D01*
X1948341Y1765617D02*
Y1759054D01*
Y1765617D02*
X1951295D01*
X1948341Y1762492D02*
X1950159D01*
X1948341Y1759054D02*
X1951295D01*
X1958568Y1761867D02*
X1962659D01*
X1894250Y1738117D02*
Y1731554D01*
Y1738117D02*
X1895841D01*
X1896523Y1737804*
X1896977Y1737179*
X1897205Y1736554*
X1897432Y1735617*
Y1734054*
X1897205Y1733117*
X1896977Y1732492*
X1896523Y1731867*
X1895841Y1731554*
X1894250*
X1900841Y1738117D02*
X1900386Y1737804D01*
X1899932Y1737179*
X1899705Y1736554*
X1899477Y1735617*
Y1734054*
X1899705Y1733117*
X1899932Y1732492*
X1900386Y1731867*
X1900841Y1731554*
X1901750*
X1902205Y1731867*
X1902659Y1732492*
X1902886Y1733117*
X1903114Y1734054*
Y1735617*
X1902886Y1736554*
X1902659Y1737179*
X1902205Y1737804*
X1901750Y1738117*
X1900841*
X1908568Y1736554D02*
X1908341Y1737179D01*
X1907886Y1737804*
X1907432Y1738117*
X1906523*
X1906068Y1737804*
X1905614Y1737179*
X1905386Y1736554*
X1905159Y1735617*
Y1734054*
X1905386Y1733117*
X1905614Y1732492*
X1906068Y1731867*
X1906523Y1731554*
X1907432*
X1907886Y1731867*
X1908341Y1732492*
X1908568Y1733117*
X1910614Y1738117D02*
Y1733429D01*
X1910841Y1732492*
X1911295Y1731867*
X1911977Y1731554*
X1912432*
X1913114Y1731867*
X1913568Y1732492*
X1913795Y1733429*
Y1738117*
X1915841D02*
Y1731554D01*
Y1738117D02*
X1917659Y1731554D01*
X1919477Y1738117D02*
X1917659Y1731554D01*
X1919477Y1738117D02*
Y1731554D01*
X1921523Y1738117D02*
Y1731554D01*
Y1738117D02*
X1924477D01*
X1921523Y1734992D02*
X1923341D01*
X1921523Y1731554D02*
X1924477D01*
X1926523Y1738117D02*
Y1731554D01*
Y1738117D02*
X1929705Y1731554D01*
Y1738117D02*
Y1731554D01*
X1933341Y1738117D02*
Y1731554D01*
X1931750Y1738117D02*
X1934932D01*
X1942205D02*
Y1731554D01*
Y1738117D02*
X1945386Y1731554D01*
Y1738117D02*
Y1731554D01*
X1949250Y1738117D02*
X1947432Y1731554D01*
X1949250Y1738117D02*
X1951068Y1731554D01*
X1948114Y1733742D02*
X1950386D01*
X1953114Y1738117D02*
Y1731554D01*
Y1738117D02*
X1954932Y1731554D01*
X1956750Y1738117D02*
X1954932Y1731554D01*
X1956750Y1738117D02*
Y1731554D01*
X1958795Y1738117D02*
Y1731554D01*
Y1738117D02*
X1961750D01*
X1958795Y1734992D02*
X1960614D01*
X1958795Y1731554D02*
X1961750D01*
X1963795Y1734367D02*
X1967886D01*
X1942659Y1781554D02*
X1942432Y1782179D01*
X1941977Y1782804*
X1941523Y1783117*
X1940614*
X1940159Y1782804*
X1939705Y1782179*
X1939477Y1781554*
X1939250Y1780617*
Y1779054*
X1939477Y1778117*
X1939705Y1777492*
X1940159Y1776867*
X1940614Y1776554*
X1941523*
X1941977Y1776867*
X1942432Y1777492*
X1942659Y1778117*
X1946068Y1783117D02*
X1945614Y1782804D01*
X1945159Y1782179*
X1944932Y1781554*
X1944705Y1780617*
Y1779054*
X1944932Y1778117*
X1945159Y1777492*
X1945614Y1776867*
X1946068Y1776554*
X1946977*
X1947432Y1776867*
X1947886Y1777492*
X1948114Y1778117*
X1948341Y1779054*
Y1780617*
X1948114Y1781554*
X1947886Y1782179*
X1947432Y1782804*
X1946977Y1783117*
X1946068*
X1950386D02*
Y1776554D01*
Y1783117D02*
X1952205Y1776554D01*
X1954023Y1783117D02*
X1952205Y1776554D01*
X1954023Y1783117D02*
Y1776554D01*
X1956068Y1783117D02*
Y1776554D01*
Y1783117D02*
X1958114D01*
X1958795Y1782804*
X1959023Y1782492*
X1959250Y1781867*
Y1780929*
X1959023Y1780304*
X1958795Y1779992*
X1958114Y1779679*
X1956068*
X1961295Y1783117D02*
Y1776554D01*
Y1783117D02*
X1963341D01*
X1964023Y1782804*
X1964250Y1782492*
X1964477Y1781867*
Y1781242*
X1964250Y1780617*
X1964023Y1780304*
X1963341Y1779992*
X1961295*
X1962886D02*
X1964477Y1776554D01*
X1966523Y1783117D02*
Y1776554D01*
Y1783117D02*
X1969477D01*
X1966523Y1779992D02*
X1968341D01*
X1966523Y1776554D02*
X1969477D01*
X1974705Y1782179D02*
X1974250Y1782804D01*
X1973568Y1783117*
X1972659*
X1971977Y1782804*
X1971523Y1782179*
Y1781554*
X1971750Y1780929*
X1971977Y1780617*
X1972432Y1780304*
X1973795Y1779679*
X1974250Y1779367*
X1974477Y1779054*
X1974705Y1778429*
Y1777492*
X1974250Y1776867*
X1973568Y1776554*
X1972659*
X1971977Y1776867*
X1971523Y1777492*
X1979932Y1782179D02*
X1979477Y1782804D01*
X1978795Y1783117*
X1977886*
X1977205Y1782804*
X1976750Y1782179*
Y1781554*
X1976977Y1780929*
X1977205Y1780617*
X1977659Y1780304*
X1979023Y1779679*
X1979477Y1779367*
X1979705Y1779054*
X1979932Y1778429*
Y1777492*
X1979477Y1776867*
X1978795Y1776554*
X1977886*
X1977205Y1776867*
X1976750Y1777492*
X1983341Y1783117D02*
X1982886Y1782804D01*
X1982432Y1782179*
X1982205Y1781554*
X1981977Y1780617*
Y1779054*
X1982205Y1778117*
X1982432Y1777492*
X1982886Y1776867*
X1983341Y1776554*
X1984250*
X1984705Y1776867*
X1985159Y1777492*
X1985386Y1778117*
X1985614Y1779054*
Y1780617*
X1985386Y1781554*
X1985159Y1782179*
X1984705Y1782804*
X1984250Y1783117*
X1983341*
X1987659D02*
Y1776554D01*
Y1783117D02*
X1989705D01*
X1990386Y1782804*
X1990614Y1782492*
X1990841Y1781867*
Y1781242*
X1990614Y1780617*
X1990386Y1780304*
X1989705Y1779992*
X1987659*
X1989250D02*
X1990841Y1776554D01*
X2001523Y1781554D02*
X2001295Y1782179D01*
X2000841Y1782804*
X2000386Y1783117*
X1999477*
X1999023Y1782804*
X1998568Y1782179*
X1998341Y1781554*
X1998114Y1780617*
Y1779054*
X1998341Y1778117*
X1998568Y1777492*
X1999023Y1776867*
X1999477Y1776554*
X2000386*
X2000841Y1776867*
X2001295Y1777492*
X2001523Y1778117*
X2004932Y1783117D02*
X2004477Y1782804D01*
X2004023Y1782179*
X2003795Y1781554*
X2003568Y1780617*
Y1779054*
X2003795Y1778117*
X2004023Y1777492*
X2004477Y1776867*
X2004932Y1776554*
X2005841*
X2006295Y1776867*
X2006750Y1777492*
X2006977Y1778117*
X2007205Y1779054*
Y1780617*
X2006977Y1781554*
X2006750Y1782179*
X2006295Y1782804*
X2005841Y1783117*
X2004932*
X2009250D02*
Y1776554D01*
Y1783117D02*
X2012432Y1776554D01*
Y1783117D02*
Y1776554D01*
X2016068Y1783117D02*
Y1776554D01*
X2014477Y1783117D02*
X2017659D01*
X2019705D02*
Y1776554D01*
Y1783117D02*
X2021750D01*
X2022432Y1782804*
X2022659Y1782492*
X2022886Y1781867*
Y1781242*
X2022659Y1780617*
X2022432Y1780304*
X2021750Y1779992*
X2019705*
X2021295D02*
X2022886Y1776554D01*
X2026295Y1783117D02*
X2025841Y1782804D01*
X2025386Y1782179*
X2025159Y1781554*
X2024932Y1780617*
Y1779054*
X2025159Y1778117*
X2025386Y1777492*
X2025841Y1776867*
X2026295Y1776554*
X2027205*
X2027659Y1776867*
X2028114Y1777492*
X2028341Y1778117*
X2028568Y1779054*
Y1780617*
X2028341Y1781554*
X2028114Y1782179*
X2027659Y1782804*
X2027205Y1783117*
X2026295*
X2030614D02*
Y1776554D01*
X2033341*
X2038568Y1782179D02*
X2038114Y1782804D01*
X2037432Y1783117*
X2036523*
X2035841Y1782804*
X2035386Y1782179*
Y1781554*
X2035614Y1780929*
X2035841Y1780617*
X2036295Y1780304*
X2037659Y1779679*
X2038114Y1779367*
X2038341Y1779054*
X2038568Y1778429*
Y1777492*
X2038114Y1776867*
X2037432Y1776554*
X2036523*
X2035841Y1776867*
X2035386Y1777492*
X2049250Y1781554D02*
X2049023Y1782179D01*
X2048568Y1782804*
X2048114Y1783117*
X2047205*
X2046750Y1782804*
X2046295Y1782179*
X2046068Y1781554*
X2045841Y1780617*
Y1779054*
X2046068Y1778117*
X2046295Y1777492*
X2046750Y1776867*
X2047205Y1776554*
X2048114*
X2048568Y1776867*
X2049023Y1777492*
X2049250Y1778117*
X2052659Y1783117D02*
X2052205Y1782804D01*
X2051750Y1782179*
X2051523Y1781554*
X2051295Y1780617*
Y1779054*
X2051523Y1778117*
X2051750Y1777492*
X2052205Y1776867*
X2052659Y1776554*
X2053568*
X2054023Y1776867*
X2054477Y1777492*
X2054705Y1778117*
X2054932Y1779054*
Y1780617*
X2054705Y1781554*
X2054477Y1782179*
X2054023Y1782804*
X2053568Y1783117*
X2052659*
X2056977D02*
Y1776554D01*
Y1783117D02*
X2059023D01*
X2059705Y1782804*
X2059932Y1782492*
X2060159Y1781867*
Y1781242*
X2059932Y1780617*
X2059705Y1780304*
X2059023Y1779992*
X2056977*
X2058568D02*
X2060159Y1776554D01*
X2062205Y1783117D02*
Y1776554D01*
Y1783117D02*
X2064250D01*
X2064932Y1782804*
X2065159Y1782492*
X2065386Y1781867*
Y1780929*
X2065159Y1780304*
X2064932Y1779992*
X2064250Y1779679*
X2062205*
X2068795Y1783117D02*
X2068341Y1782804D01*
X2067886Y1782179*
X2067659Y1781554*
X2067432Y1780617*
Y1779054*
X2067659Y1778117*
X2067886Y1777492*
X2068341Y1776867*
X2068795Y1776554*
X2069705*
X2070159Y1776867*
X2070614Y1777492*
X2070841Y1778117*
X2071068Y1779054*
Y1780617*
X2070841Y1781554*
X2070614Y1782179*
X2070159Y1782804*
X2069705Y1783117*
X2068795*
X2073114D02*
Y1776554D01*
Y1783117D02*
X2075159D01*
X2075841Y1782804*
X2076068Y1782492*
X2076295Y1781867*
Y1781242*
X2076068Y1780617*
X2075841Y1780304*
X2075159Y1779992*
X2073114*
X2074705D02*
X2076295Y1776554D01*
X2080159Y1783117D02*
X2078341Y1776554D01*
X2080159Y1783117D02*
X2081977Y1776554D01*
X2079023Y1778742D02*
X2081295D01*
X2085614Y1783117D02*
Y1776554D01*
X2084023Y1783117D02*
X2087205D01*
X2089250D02*
Y1776554D01*
X2092659Y1783117D02*
X2092205Y1782804D01*
X2091750Y1782179*
X2091523Y1781554*
X2091295Y1780617*
Y1779054*
X2091523Y1778117*
X2091750Y1777492*
X2092205Y1776867*
X2092659Y1776554*
X2093568*
X2094023Y1776867*
X2094477Y1777492*
X2094705Y1778117*
X2094932Y1779054*
Y1780617*
X2094705Y1781554*
X2094477Y1782179*
X2094023Y1782804*
X2093568Y1783117*
X2092659*
X2096977D02*
Y1776554D01*
Y1783117D02*
X2100159Y1776554D01*
Y1783117D02*
Y1776554D01*
X1894250Y1753117D02*
Y1746554D01*
Y1753117D02*
X1896295D01*
X1896977Y1752804*
X1897205Y1752492*
X1897432Y1751867*
Y1750929*
X1897205Y1750304*
X1896977Y1749992*
X1896295Y1749679*
X1894250*
X1903568Y1754367D02*
X1899477Y1744367D01*
X1905614Y1753117D02*
Y1746554D01*
Y1753117D02*
X1908795Y1746554D01*
Y1753117D02*
Y1746554D01*
X1916068Y1749367D02*
X1920159D01*
X2084250Y1738117D02*
Y1731554D01*
Y1738117D02*
X2086295D01*
X2086977Y1737804*
X2087205Y1737492*
X2087432Y1736867*
Y1736242*
X2087205Y1735617*
X2086977Y1735304*
X2086295Y1734992*
X2084250*
X2085841D02*
X2087432Y1731554D01*
X2089477Y1738117D02*
Y1731554D01*
Y1738117D02*
X2092432D01*
X2089477Y1734992D02*
X2091295D01*
X2089477Y1731554D02*
X2092432D01*
X2094477Y1738117D02*
X2096295Y1731554D01*
X2098114Y1738117D02*
X2096295Y1731554D01*
X2105386Y1734367D02*
X2109477D01*
X2111523Y1736867D02*
X2111977Y1737179D01*
X2112659Y1738117*
Y1731554*
X2114932Y1732179D02*
X2114705Y1731867D01*
X2114932Y1731554*
X2115159Y1731867*
X2114932Y1732179*
X2118568Y1738117D02*
X2117886Y1737804D01*
X2117432Y1736867*
X2117205Y1735304*
Y1734367*
X2117432Y1732804*
X2117886Y1731867*
X2118568Y1731554*
X2119023*
X2119705Y1731867*
X2120159Y1732804*
X2120386Y1734367*
Y1735304*
X2120159Y1736867*
X2119705Y1737804*
X2119023Y1738117*
X2118568*
X2068568Y1753117D02*
X2066750Y1746554D01*
X2068568Y1753117D02*
X2070386Y1746554D01*
X2067432Y1748742D02*
X2069705D01*
X2072432Y1750929D02*
Y1747804D01*
X2072659Y1746867*
X2073114Y1746554*
X2073795*
X2074250Y1746867*
X2074932Y1747804*
Y1750929D02*
Y1746554D01*
X2079705Y1750929D02*
Y1745929D01*
X2079477Y1744992*
X2079250Y1744679*
X2078795Y1744367*
X2078114*
X2077659Y1744679*
X2079705Y1749992D02*
X2079250Y1750617D01*
X2078795Y1750929*
X2078114*
X2077659Y1750617*
X2077205Y1749992*
X2076977Y1749054*
Y1748429*
X2077205Y1747492*
X2077659Y1746867*
X2078114Y1746554*
X2078795*
X2079250Y1746867*
X2079705Y1747492*
X2088341Y1753117D02*
X2087659Y1752804D01*
X2087205Y1751867*
X2086977Y1750304*
Y1749367*
X2087205Y1747804*
X2087659Y1746867*
X2088341Y1746554*
X2088795*
X2089477Y1746867*
X2089932Y1747804*
X2090159Y1749367*
Y1750304*
X2089932Y1751867*
X2089477Y1752804*
X2088795Y1753117*
X2088341*
X2094477D02*
X2092205Y1748742D01*
X2095614*
X2094477Y1753117D02*
Y1746554D01*
X2098114Y1746867D02*
X2097886Y1746554D01*
X2097659Y1746867*
X2097886Y1747179*
X2098114Y1746867*
Y1746242*
X2097886Y1745617*
X2097659Y1745304*
X2105614Y1751554D02*
Y1751867D01*
X2105841Y1752492*
X2106068Y1752804*
X2106523Y1753117*
X2107432*
X2107886Y1752804*
X2108114Y1752492*
X2108341Y1751867*
Y1751242*
X2108114Y1750617*
X2107659Y1749679*
X2105386Y1746554*
X2108568*
X2111977Y1753117D02*
X2111295Y1752804D01*
X2110841Y1751867*
X2110614Y1750304*
Y1749367*
X2110841Y1747804*
X2111295Y1746867*
X2111977Y1746554*
X2112432*
X2113114Y1746867*
X2113568Y1747804*
X2113795Y1749367*
Y1750304*
X2113568Y1751867*
X2113114Y1752804*
X2112432Y1753117*
X2111977*
X2115841Y1751867D02*
X2116295Y1752179D01*
X2116977Y1753117*
Y1746554*
X2119023Y1751867D02*
X2119477Y1752179D01*
X2120159Y1753117*
Y1746554*
X1970650Y1765008D02*
Y1758446D01*
Y1765008D02*
X1973605D01*
X1970650Y1761883D02*
X1972468D01*
X1977241Y1765008D02*
Y1758446D01*
X1975650Y1765008D02*
X1978832D01*
X1984286Y1763446D02*
X1984059Y1764071D01*
X1983605Y1764696*
X1983150Y1765008*
X1982241*
X1981786Y1764696*
X1981332Y1764071*
X1981105Y1763446*
X1980877Y1762508*
Y1760946*
X1981105Y1760008*
X1981332Y1759383*
X1981786Y1758758*
X1982241Y1758446*
X1983150*
X1983605Y1758758*
X1984059Y1759383*
X1984286Y1760008*
X1991559Y1761258D02*
X1995650D01*
X2004741Y1765008D02*
X2002923Y1758446D01*
X2004741Y1765008D02*
X2006559Y1758446D01*
X2003605Y1760633D02*
X2005877D01*
X2008605Y1765008D02*
Y1758446D01*
Y1765008D02*
X2010423Y1758446D01*
X2012241Y1765008D02*
X2010423Y1758446D01*
X2012241Y1765008D02*
Y1758446D01*
X2014286Y1763758D02*
X2014741Y1764071D01*
X2015423Y1765008*
Y1758446*
X1930950Y1750458D02*
X1931405Y1750771D01*
X1932086Y1751708*
Y1745146*
X1937314Y1751708D02*
X1935041Y1745146D01*
X1934132Y1751708D02*
X1937314D01*
X1939359Y1747958D02*
X1943450D01*
X1948223Y1750771D02*
X1947995Y1751396D01*
X1947314Y1751708*
X1946859*
X1946177Y1751396*
X1945723Y1750458*
X1945495Y1748896*
Y1747333*
X1945723Y1746083*
X1946177Y1745458*
X1946859Y1745146*
X1947086*
X1947768Y1745458*
X1948223Y1746083*
X1948450Y1747021*
Y1747333*
X1948223Y1748271*
X1947768Y1748896*
X1947086Y1749208*
X1946859*
X1946177Y1748896*
X1945723Y1748271*
X1945495Y1747333*
X1951859Y1751708D02*
X1951177Y1751396D01*
X1950723Y1750458*
X1950495Y1748896*
Y1747958*
X1950723Y1746396*
X1951177Y1745458*
X1951859Y1745146*
X1952314*
X1952995Y1745458*
X1953450Y1746396*
X1953677Y1747958*
Y1748896*
X1953450Y1750458*
X1952995Y1751396*
X1952314Y1751708*
X1951859*
X1957086D02*
X1956405Y1751396D01*
X1955950Y1750458*
X1955723Y1748896*
Y1747958*
X1955950Y1746396*
X1956405Y1745458*
X1957086Y1745146*
X1957541*
X1958223Y1745458*
X1958677Y1746396*
X1958905Y1747958*
Y1748896*
X1958677Y1750458*
X1958223Y1751396*
X1957541Y1751708*
X1957086*
X1963905D02*
X1961632D01*
X1961405Y1748896*
X1961632Y1749208*
X1962314Y1749521*
X1962995*
X1963677Y1749208*
X1964132Y1748583*
X1964359Y1747646*
X1964132Y1747021*
X1963905Y1746083*
X1963450Y1745458*
X1962768Y1745146*
X1962086*
X1961405Y1745458*
X1961177Y1745771*
X1960950Y1746396*
X1968677Y1751708D02*
X1966405Y1747333D01*
X1969814*
X1968677Y1751708D02*
Y1745146D01*
X1971859Y1750458D02*
X1972314Y1750771D01*
X1972995Y1751708*
Y1745146*
X1975041Y1747958D02*
X1979132D01*
X1982541Y1751708D02*
X1981859Y1751396D01*
X1981405Y1750458*
X1981177Y1748896*
Y1747958*
X1981405Y1746396*
X1981859Y1745458*
X1982541Y1745146*
X1982995*
X1983677Y1745458*
X1984132Y1746396*
X1984359Y1747958*
Y1748896*
X1984132Y1750458*
X1983677Y1751396*
X1982995Y1751708*
X1982541*
X1987768D02*
X1987086Y1751396D01*
X1986632Y1750458*
X1986405Y1748896*
Y1747958*
X1986632Y1746396*
X1987086Y1745458*
X1987768Y1745146*
X1988223*
X1988905Y1745458*
X1989359Y1746396*
X1989586Y1747958*
Y1748896*
X1989359Y1750458*
X1988905Y1751396*
X1988223Y1751708*
X1987768*
X1991632Y1750458D02*
X1992086Y1750771D01*
X1992768Y1751708*
Y1745146*
X1873250Y1411046D02*
X2119313D01*
Y1671046*
X1873250*
Y1411046*
X1942250Y1432446D02*
Y1422446D01*
X1952250Y1432446D02*
Y1422446D01*
X1962250Y1432446D02*
Y1422446D01*
X1972250Y1432446D02*
Y1422446D01*
X1935650Y1432446D02*
X1982250D01*
Y1421946*
X1935650*
Y1432446*
X1938650Y1429011D02*
Y1424746D01*
X1940423*
X1991850Y1432646D02*
Y1422646D01*
X1982350Y1432446D02*
X2000750D01*
Y1421946*
X1982350*
Y1432446*
G54D71*
X1919372Y1520337D02*
X1916813D01*
X1936695D02*
X1934136D01*
X1919372Y1564786D02*
X1916813D01*
X1936695D02*
X1934136D01*
X1919372Y1579077D02*
X1916813D01*
X1936695D02*
X1934136D01*
X1919448Y1549785D02*
X1916889D01*
X1936771D02*
X1934212D01*
X1919372Y1534628D02*
X1916813D01*
X1936695D02*
X1934136D01*
X1919372Y1506085D02*
X1916813D01*
X1936695D02*
X1934136D01*
X0Y0D02*
M02*
