*
*
G04 PADS 9.5 Build Number: 522968 generated Gerber (RS-274-X) file*
G04 PC Version=2.1*
*
%IN "17-600551-111_REVA.pcb"*%
*
%MOIN*%
*
%FSLAX35Y35*%
*
*
*
*
G04 PC Standard Apertures*
*
*
G04 Thermal Relief Aperture macro.*
%AMTER*
1,1,$1,0,0*
1,0,$1-$2,0,0*
21,0,$3,$4,0,0,45*
21,0,$3,$4,0,0,135*
%
*
*
G04 Annular Aperture macro.*
%AMANN*
1,1,$1,0,0*
1,0,$2,0,0*
%
*
*
G04 Odd Aperture macro.*
%AMODD*
1,1,$1,0,0*
1,0,$1-0.005,0,0*
%
*
*
G04 PC Custom Aperture Macros*
*
*
*
*
*
*
G04 PC Aperture Table*
*
%ADD010C,0.001*%
%ADD026C,0.06*%
%ADD085C,0.01*%
%ADD087C,0.015*%
%ADD088C,0.005*%
%ADD092C,0.008*%
%ADD126C,0.024*%
*
*
*
*
G04 PC Circuitry*
G04 Layer Name 17-600551-111_REVA.pcb - circuitry*
%LPD*%
*
*
G04 PC Custom Flashes*
G04 Layer Name 17-600551-111_REVA.pcb - flashes*
%LPD*%
*
*
G04 PC Circuitry*
G04 Layer Name 17-600551-111_REVA.pcb - circuitry*
%LPD*%
*
G54D10*
G54D26*
G01X1133858Y1436174D03*
Y1446174D03*
G54D85*
X996409Y1607811D02*
X996182Y1608436D01*
X995727Y1609061*
X995273Y1609374*
X994364*
X993909Y1609061*
X993455Y1608436*
X993227Y1607811*
X993000Y1606874*
Y1605311*
X993227Y1604374*
X993455Y1603749*
X993909Y1603124*
X994364Y1602811*
X995273*
X995727Y1603124*
X996182Y1603749*
X996409Y1604374*
X999818Y1609374D02*
X999364Y1609061D01*
X998909Y1608436*
X998682Y1607811*
X998455Y1606874*
Y1605311*
X998682Y1604374*
X998909Y1603749*
X999364Y1603124*
X999818Y1602811*
X1000727*
X1001182Y1603124*
X1001636Y1603749*
X1001864Y1604374*
X1002091Y1605311*
Y1606874*
X1001864Y1607811*
X1001636Y1608436*
X1001182Y1609061*
X1000727Y1609374*
X999818*
X1004136D02*
Y1602811D01*
Y1609374D02*
X1005955Y1602811D01*
X1007773Y1609374D02*
X1005955Y1602811D01*
X1007773Y1609374D02*
Y1602811D01*
X1009818Y1609374D02*
Y1602811D01*
Y1609374D02*
X1011864D01*
X1012545Y1609061*
X1012773Y1608749*
X1013000Y1608124*
Y1607186*
X1012773Y1606561*
X1012545Y1606249*
X1011864Y1605936*
X1009818*
X1015045Y1609374D02*
Y1602811D01*
Y1609374D02*
X1017091D01*
X1017773Y1609061*
X1018000Y1608749*
X1018227Y1608124*
Y1607499*
X1018000Y1606874*
X1017773Y1606561*
X1017091Y1606249*
X1015045*
X1016636D02*
X1018227Y1602811D01*
X1020273Y1609374D02*
Y1602811D01*
Y1609374D02*
X1023227D01*
X1020273Y1606249D02*
X1022091D01*
X1020273Y1602811D02*
X1023227D01*
X1028455Y1608436D02*
X1028000Y1609061D01*
X1027318Y1609374*
X1026409*
X1025727Y1609061*
X1025273Y1608436*
Y1607811*
X1025500Y1607186*
X1025727Y1606874*
X1026182Y1606561*
X1027545Y1605936*
X1028000Y1605624*
X1028227Y1605311*
X1028455Y1604686*
Y1603749*
X1028000Y1603124*
X1027318Y1602811*
X1026409*
X1025727Y1603124*
X1025273Y1603749*
X1033682Y1608436D02*
X1033227Y1609061D01*
X1032545Y1609374*
X1031636*
X1030955Y1609061*
X1030500Y1608436*
Y1607811*
X1030727Y1607186*
X1030955Y1606874*
X1031409Y1606561*
X1032773Y1605936*
X1033227Y1605624*
X1033455Y1605311*
X1033682Y1604686*
Y1603749*
X1033227Y1603124*
X1032545Y1602811*
X1031636*
X1030955Y1603124*
X1030500Y1603749*
X1037091Y1609374D02*
X1036636Y1609061D01*
X1036182Y1608436*
X1035955Y1607811*
X1035727Y1606874*
Y1605311*
X1035955Y1604374*
X1036182Y1603749*
X1036636Y1603124*
X1037091Y1602811*
X1038000*
X1038455Y1603124*
X1038909Y1603749*
X1039136Y1604374*
X1039364Y1605311*
Y1606874*
X1039136Y1607811*
X1038909Y1608436*
X1038455Y1609061*
X1038000Y1609374*
X1037091*
X1041409D02*
Y1602811D01*
Y1609374D02*
X1043455D01*
X1044136Y1609061*
X1044364Y1608749*
X1044591Y1608124*
Y1607499*
X1044364Y1606874*
X1044136Y1606561*
X1043455Y1606249*
X1041409*
X1043000D02*
X1044591Y1602811D01*
X1055273Y1607811D02*
X1055045Y1608436D01*
X1054591Y1609061*
X1054136Y1609374*
X1053227*
X1052773Y1609061*
X1052318Y1608436*
X1052091Y1607811*
X1051864Y1606874*
Y1605311*
X1052091Y1604374*
X1052318Y1603749*
X1052773Y1603124*
X1053227Y1602811*
X1054136*
X1054591Y1603124*
X1055045Y1603749*
X1055273Y1604374*
X1058682Y1609374D02*
X1058227Y1609061D01*
X1057773Y1608436*
X1057545Y1607811*
X1057318Y1606874*
Y1605311*
X1057545Y1604374*
X1057773Y1603749*
X1058227Y1603124*
X1058682Y1602811*
X1059591*
X1060045Y1603124*
X1060500Y1603749*
X1060727Y1604374*
X1060955Y1605311*
Y1606874*
X1060727Y1607811*
X1060500Y1608436*
X1060045Y1609061*
X1059591Y1609374*
X1058682*
X1063000D02*
Y1602811D01*
Y1609374D02*
X1066182Y1602811D01*
Y1609374D02*
Y1602811D01*
X1069818Y1609374D02*
Y1602811D01*
X1068227Y1609374D02*
X1071409D01*
X1073455D02*
Y1602811D01*
Y1609374D02*
X1075500D01*
X1076182Y1609061*
X1076409Y1608749*
X1076636Y1608124*
Y1607499*
X1076409Y1606874*
X1076182Y1606561*
X1075500Y1606249*
X1073455*
X1075045D02*
X1076636Y1602811D01*
X1080045Y1609374D02*
X1079591Y1609061D01*
X1079136Y1608436*
X1078909Y1607811*
X1078682Y1606874*
Y1605311*
X1078909Y1604374*
X1079136Y1603749*
X1079591Y1603124*
X1080045Y1602811*
X1080955*
X1081409Y1603124*
X1081864Y1603749*
X1082091Y1604374*
X1082318Y1605311*
Y1606874*
X1082091Y1607811*
X1081864Y1608436*
X1081409Y1609061*
X1080955Y1609374*
X1080045*
X1084364D02*
Y1602811D01*
X1087091*
X1092318Y1608436D02*
X1091864Y1609061D01*
X1091182Y1609374*
X1090273*
X1089591Y1609061*
X1089136Y1608436*
Y1607811*
X1089364Y1607186*
X1089591Y1606874*
X1090045Y1606561*
X1091409Y1605936*
X1091864Y1605624*
X1092091Y1605311*
X1092318Y1604686*
Y1603749*
X1091864Y1603124*
X1091182Y1602811*
X1090273*
X1089591Y1603124*
X1089136Y1603749*
X1103000Y1607811D02*
X1102773Y1608436D01*
X1102318Y1609061*
X1101864Y1609374*
X1100955*
X1100500Y1609061*
X1100045Y1608436*
X1099818Y1607811*
X1099591Y1606874*
Y1605311*
X1099818Y1604374*
X1100045Y1603749*
X1100500Y1603124*
X1100955Y1602811*
X1101864*
X1102318Y1603124*
X1102773Y1603749*
X1103000Y1604374*
X1106409Y1609374D02*
X1105955Y1609061D01*
X1105500Y1608436*
X1105273Y1607811*
X1105045Y1606874*
Y1605311*
X1105273Y1604374*
X1105500Y1603749*
X1105955Y1603124*
X1106409Y1602811*
X1107318*
X1107773Y1603124*
X1108227Y1603749*
X1108455Y1604374*
X1108682Y1605311*
Y1606874*
X1108455Y1607811*
X1108227Y1608436*
X1107773Y1609061*
X1107318Y1609374*
X1106409*
X1110727D02*
Y1602811D01*
Y1609374D02*
X1112773D01*
X1113455Y1609061*
X1113682Y1608749*
X1113909Y1608124*
Y1607499*
X1113682Y1606874*
X1113455Y1606561*
X1112773Y1606249*
X1110727*
X1112318D02*
X1113909Y1602811D01*
X1115955Y1609374D02*
Y1602811D01*
Y1609374D02*
X1118000D01*
X1118682Y1609061*
X1118909Y1608749*
X1119136Y1608124*
Y1607186*
X1118909Y1606561*
X1118682Y1606249*
X1118000Y1605936*
X1115955*
X1122545Y1609374D02*
X1122091Y1609061D01*
X1121636Y1608436*
X1121409Y1607811*
X1121182Y1606874*
Y1605311*
X1121409Y1604374*
X1121636Y1603749*
X1122091Y1603124*
X1122545Y1602811*
X1123455*
X1123909Y1603124*
X1124364Y1603749*
X1124591Y1604374*
X1124818Y1605311*
Y1606874*
X1124591Y1607811*
X1124364Y1608436*
X1123909Y1609061*
X1123455Y1609374*
X1122545*
X1126864D02*
Y1602811D01*
Y1609374D02*
X1128909D01*
X1129591Y1609061*
X1129818Y1608749*
X1130045Y1608124*
Y1607499*
X1129818Y1606874*
X1129591Y1606561*
X1128909Y1606249*
X1126864*
X1128455D02*
X1130045Y1602811D01*
X1133909Y1609374D02*
X1132091Y1602811D01*
X1133909Y1609374D02*
X1135727Y1602811D01*
X1132773Y1604999D02*
X1135045D01*
X1139364Y1609374D02*
Y1602811D01*
X1137773Y1609374D02*
X1140955D01*
X1143000D02*
Y1602811D01*
X1146409Y1609374D02*
X1145955Y1609061D01*
X1145500Y1608436*
X1145273Y1607811*
X1145045Y1606874*
Y1605311*
X1145273Y1604374*
X1145500Y1603749*
X1145955Y1603124*
X1146409Y1602811*
X1147318*
X1147773Y1603124*
X1148227Y1603749*
X1148455Y1604374*
X1148682Y1605311*
Y1606874*
X1148455Y1607811*
X1148227Y1608436*
X1147773Y1609061*
X1147318Y1609374*
X1146409*
X1150727D02*
Y1602811D01*
Y1609374D02*
X1153909Y1602811D01*
Y1609374D02*
Y1602811D01*
X992500Y1594124D02*
X992955Y1594436D01*
X993636Y1595374*
Y1588811*
X998864Y1595374D02*
X996591Y1588811D01*
X995682Y1595374D02*
X998864D01*
X1000909Y1591624D02*
X1005000D01*
X1009773Y1594436D02*
X1009545Y1595061D01*
X1008864Y1595374*
X1008409*
X1007727Y1595061*
X1007273Y1594124*
X1007045Y1592561*
Y1590999*
X1007273Y1589749*
X1007727Y1589124*
X1008409Y1588811*
X1008636*
X1009318Y1589124*
X1009773Y1589749*
X1010000Y1590686*
Y1590999*
X1009773Y1591936*
X1009318Y1592561*
X1008636Y1592874*
X1008409*
X1007727Y1592561*
X1007273Y1591936*
X1007045Y1590999*
X1013409Y1595374D02*
X1012727Y1595061D01*
X1012273Y1594124*
X1012045Y1592561*
Y1591624*
X1012273Y1590061*
X1012727Y1589124*
X1013409Y1588811*
X1013864*
X1014545Y1589124*
X1015000Y1590061*
X1015227Y1591624*
Y1592561*
X1015000Y1594124*
X1014545Y1595061*
X1013864Y1595374*
X1013409*
X1018636D02*
X1017955Y1595061D01*
X1017500Y1594124*
X1017273Y1592561*
Y1591624*
X1017500Y1590061*
X1017955Y1589124*
X1018636Y1588811*
X1019091*
X1019773Y1589124*
X1020227Y1590061*
X1020455Y1591624*
Y1592561*
X1020227Y1594124*
X1019773Y1595061*
X1019091Y1595374*
X1018636*
X1025455D02*
X1023182D01*
X1022955Y1592561*
X1023182Y1592874*
X1023864Y1593186*
X1024545*
X1025227Y1592874*
X1025682Y1592249*
X1025909Y1591311*
X1025682Y1590686*
X1025455Y1589749*
X1025000Y1589124*
X1024318Y1588811*
X1023636*
X1022955Y1589124*
X1022727Y1589436*
X1022500Y1590061*
X1030909Y1595374D02*
X1028636D01*
X1028409Y1592561*
X1028636Y1592874*
X1029318Y1593186*
X1030000*
X1030682Y1592874*
X1031136Y1592249*
X1031364Y1591311*
X1031136Y1590686*
X1030909Y1589749*
X1030455Y1589124*
X1029773Y1588811*
X1029091*
X1028409Y1589124*
X1028182Y1589436*
X1027955Y1590061*
X1033409Y1594124D02*
X1033864Y1594436D01*
X1034545Y1595374*
Y1588811*
X1036591Y1591624D02*
X1040682D01*
X1042727Y1594124D02*
X1043182Y1594436D01*
X1043864Y1595374*
Y1588811*
X1045909Y1594124D02*
X1046364Y1594436D01*
X1047045Y1595374*
Y1588811*
X1049091Y1594124D02*
X1049545Y1594436D01*
X1050227Y1595374*
Y1588811*
X1057500Y1595374D02*
Y1588811D01*
Y1595374D02*
X1059545D01*
X1060227Y1595061*
X1060455Y1594749*
X1060682Y1594124*
Y1593499*
X1060455Y1592874*
X1060227Y1592561*
X1059545Y1592249*
X1057500*
X1059091D02*
X1060682Y1588811D01*
X1062727Y1595374D02*
Y1588811D01*
Y1595374D02*
X1065682D01*
X1062727Y1592249D02*
X1064545D01*
X1062727Y1588811D02*
X1065682D01*
X1067727Y1595374D02*
X1069545Y1588811D01*
X1071364Y1595374D02*
X1069545Y1588811D01*
X1080455Y1595374D02*
X1078636Y1588811D01*
X1080455Y1595374D02*
X1082273Y1588811D01*
X1079318Y1590999D02*
X1081591D01*
X994000Y1582374D02*
Y1575811D01*
Y1582374D02*
X995591D01*
X996273Y1582061*
X996727Y1581436*
X996955Y1580811*
X997182Y1579874*
Y1578311*
X996955Y1577374*
X996727Y1576749*
X996273Y1576124*
X995591Y1575811*
X994000*
X1001045Y1582374D02*
X999227Y1575811D01*
X1001045Y1582374D02*
X1002864Y1575811D01*
X999909Y1577999D02*
X1002182D01*
X1006500Y1582374D02*
Y1575811D01*
X1004909Y1582374D02*
X1008091D01*
X1010136D02*
Y1575811D01*
Y1582374D02*
X1013091D01*
X1010136Y1579249D02*
X1011955D01*
X1010136Y1575811D02*
X1013091D01*
X1015364Y1580186D02*
X1015136Y1579874D01*
X1015364Y1579561*
X1015591Y1579874*
X1015364Y1580186*
Y1576436D02*
X1015136Y1576124D01*
X1015364Y1575811*
X1015591Y1576124*
X1015364Y1576436*
X1024227Y1582374D02*
X1023545Y1582061D01*
X1023091Y1581124*
X1022864Y1579561*
Y1578624*
X1023091Y1577061*
X1023545Y1576124*
X1024227Y1575811*
X1024682*
X1025364Y1576124*
X1025818Y1577061*
X1026045Y1578624*
Y1579561*
X1025818Y1581124*
X1025364Y1582061*
X1024682Y1582374*
X1024227*
X1028545D02*
X1031045D01*
X1029682Y1579874*
X1030364*
X1030818Y1579561*
X1031045Y1579249*
X1031273Y1578311*
Y1577686*
X1031045Y1576749*
X1030591Y1576124*
X1029909Y1575811*
X1029227*
X1028545Y1576124*
X1028318Y1576436*
X1028091Y1577061*
X1033318Y1578624D02*
X1037409D01*
X1039455Y1581124D02*
X1039909Y1581436D01*
X1040591Y1582374*
Y1575811*
X1043091Y1582374D02*
X1045591D01*
X1044227Y1579874*
X1044909*
X1045364Y1579561*
X1045591Y1579249*
X1045818Y1578311*
Y1577686*
X1045591Y1576749*
X1045136Y1576124*
X1044455Y1575811*
X1043773*
X1043091Y1576124*
X1042864Y1576436*
X1042636Y1577061*
X1047864Y1578624D02*
X1051955D01*
X1054000Y1581124D02*
X1054455Y1581436D01*
X1055136Y1582374*
Y1575811*
X1059455Y1582374D02*
X1057182Y1577999D01*
X1060591*
X1059455Y1582374D02*
Y1575811D01*
X1194000Y1589374D02*
Y1582811D01*
X1196727*
X1200591Y1589374D02*
X1198773Y1582811D01*
X1200591Y1589374D02*
X1202409Y1582811D01*
X1199455Y1584999D02*
X1201727D01*
X1204455Y1589374D02*
X1206273Y1586249D01*
Y1582811*
X1208091Y1589374D02*
X1206273Y1586249D01*
X1210136Y1589374D02*
Y1582811D01*
Y1589374D02*
X1213091D01*
X1210136Y1586249D02*
X1211955D01*
X1210136Y1582811D02*
X1213091D01*
X1215136Y1589374D02*
Y1582811D01*
Y1589374D02*
X1217182D01*
X1217864Y1589061*
X1218091Y1588749*
X1218318Y1588124*
Y1587499*
X1218091Y1586874*
X1217864Y1586561*
X1217182Y1586249*
X1215136*
X1216727D02*
X1218318Y1582811D01*
X1194000Y1574374D02*
Y1567811D01*
Y1574374D02*
X1196045D01*
X1196727Y1574061*
X1196955Y1573749*
X1197182Y1573124*
Y1572186*
X1196955Y1571561*
X1196727Y1571249*
X1196045Y1570936*
X1194000*
X1201045Y1574374D02*
X1199227Y1567811D01*
X1201045Y1574374D02*
X1202864Y1567811D01*
X1199909Y1569999D02*
X1202182D01*
X1204909Y1574374D02*
Y1567811D01*
Y1574374D02*
X1206955D01*
X1207636Y1574061*
X1207864Y1573749*
X1208091Y1573124*
Y1572499*
X1207864Y1571874*
X1207636Y1571561*
X1206955Y1571249*
X1204909*
X1206500D02*
X1208091Y1567811D01*
X1211727Y1574374D02*
Y1567811D01*
X1210136Y1574374D02*
X1213318D01*
X1220591D02*
Y1567811D01*
Y1574374D02*
X1223773Y1567811D01*
Y1574374D02*
Y1567811D01*
X1227182Y1574374D02*
X1226727Y1574061D01*
X1226273Y1573436*
X1226045Y1572811*
X1225818Y1571874*
Y1570311*
X1226045Y1569374*
X1226273Y1568749*
X1226727Y1568124*
X1227182Y1567811*
X1228091*
X1228545Y1568124*
X1229000Y1568749*
X1229227Y1569374*
X1229455Y1570311*
Y1571874*
X1229227Y1572811*
X1229000Y1573436*
X1228545Y1574061*
X1228091Y1574374*
X1227182*
X1194000Y1559374D02*
Y1552811D01*
Y1559374D02*
X1196045D01*
X1196727Y1559061*
X1196955Y1558749*
X1197182Y1558124*
Y1557499*
X1196955Y1556874*
X1196727Y1556561*
X1196045Y1556249*
X1194000*
X1195591D02*
X1197182Y1552811D01*
X1199227Y1559374D02*
Y1552811D01*
Y1559374D02*
X1202182D01*
X1199227Y1556249D02*
X1201045D01*
X1199227Y1552811D02*
X1202182D01*
X1204227Y1559374D02*
X1206045Y1552811D01*
X1207864Y1559374D02*
X1206045Y1552811D01*
X1254000Y1588874D02*
Y1582311D01*
Y1588874D02*
X1256045D01*
X1256727Y1588561*
X1256955Y1588249*
X1257182Y1587624*
Y1586686*
X1256955Y1586061*
X1256727Y1585749*
X1256045Y1585436*
X1254000*
X1259227Y1588874D02*
X1260364Y1582311D01*
X1261500Y1588874D02*
X1260364Y1582311D01*
X1261500Y1588874D02*
X1262636Y1582311D01*
X1263773Y1588874D02*
X1262636Y1582311D01*
X1265818Y1588874D02*
Y1582311D01*
Y1588874D02*
X1267864D01*
X1268545Y1588561*
X1268773Y1588249*
X1269000Y1587624*
Y1586999*
X1268773Y1586374*
X1268545Y1586061*
X1267864Y1585749*
X1265818*
X1267409D02*
X1269000Y1582311D01*
X1276273Y1588874D02*
Y1582311D01*
Y1588874D02*
X1278318D01*
X1279000Y1588561*
X1279227Y1588249*
X1279455Y1587624*
Y1586686*
X1279227Y1586061*
X1279000Y1585749*
X1278318Y1585436*
X1276273*
X1281500Y1588874D02*
Y1582311D01*
X1284227*
X1288091Y1588874D02*
X1286273Y1582311D01*
X1288091Y1588874D02*
X1289909Y1582311D01*
X1286955Y1584499D02*
X1289227D01*
X1291955Y1588874D02*
Y1582311D01*
Y1588874D02*
X1295136Y1582311D01*
Y1588874D02*
Y1582311D01*
X1297182Y1588874D02*
Y1582311D01*
Y1588874D02*
X1300136D01*
X1297182Y1585749D02*
X1299000D01*
X1297182Y1582311D02*
X1300136D01*
X1254000Y1573124D02*
X1254455Y1573436D01*
X1255136Y1574374*
Y1567811*
X1260364Y1574374D02*
X1258091Y1567811D01*
X1257182Y1574374D02*
X1260364D01*
X1262409Y1570624D02*
X1266500D01*
X1271273Y1573436D02*
X1271045Y1574061D01*
X1270364Y1574374*
X1269909*
X1269227Y1574061*
X1268773Y1573124*
X1268545Y1571561*
Y1569999*
X1268773Y1568749*
X1269227Y1568124*
X1269909Y1567811*
X1270136*
X1270818Y1568124*
X1271273Y1568749*
X1271500Y1569686*
Y1569999*
X1271273Y1570936*
X1270818Y1571561*
X1270136Y1571874*
X1269909*
X1269227Y1571561*
X1268773Y1570936*
X1268545Y1569999*
X1274909Y1574374D02*
X1274227Y1574061D01*
X1273773Y1573124*
X1273545Y1571561*
Y1570624*
X1273773Y1569061*
X1274227Y1568124*
X1274909Y1567811*
X1275364*
X1276045Y1568124*
X1276500Y1569061*
X1276727Y1570624*
Y1571561*
X1276500Y1573124*
X1276045Y1574061*
X1275364Y1574374*
X1274909*
X1280136D02*
X1279455Y1574061D01*
X1279000Y1573124*
X1278773Y1571561*
Y1570624*
X1279000Y1569061*
X1279455Y1568124*
X1280136Y1567811*
X1280591*
X1281273Y1568124*
X1281727Y1569061*
X1281955Y1570624*
Y1571561*
X1281727Y1573124*
X1281273Y1574061*
X1280591Y1574374*
X1280136*
X1286955D02*
X1284682D01*
X1284455Y1571561*
X1284682Y1571874*
X1285364Y1572186*
X1286045*
X1286727Y1571874*
X1287182Y1571249*
X1287409Y1570311*
X1287182Y1569686*
X1286955Y1568749*
X1286500Y1568124*
X1285818Y1567811*
X1285136*
X1284455Y1568124*
X1284227Y1568436*
X1284000Y1569061*
X1292409Y1574374D02*
X1290136D01*
X1289909Y1571561*
X1290136Y1571874*
X1290818Y1572186*
X1291500*
X1292182Y1571874*
X1292636Y1571249*
X1292864Y1570311*
X1292636Y1569686*
X1292409Y1568749*
X1291955Y1568124*
X1291273Y1567811*
X1290591*
X1289909Y1568124*
X1289682Y1568436*
X1289455Y1569061*
X1294909Y1573124D02*
X1295364Y1573436D01*
X1296045Y1574374*
Y1567811*
X1298091Y1570624D02*
X1302182D01*
X1304227Y1573124D02*
X1304682Y1573436D01*
X1305364Y1574374*
Y1567811*
X1307409Y1573124D02*
X1307864Y1573436D01*
X1308545Y1574374*
Y1567811*
X1310591Y1573124D02*
X1311045Y1573436D01*
X1311727Y1574374*
Y1567811*
X1280818Y1559374D02*
X1279000Y1552811D01*
X1280818Y1559374D02*
X1282636Y1552811D01*
X1279682Y1554999D02*
X1281955D01*
X1193000Y1543874D02*
Y1537311D01*
Y1543874D02*
X1194591D01*
X1195273Y1543561*
X1195727Y1542936*
X1195955Y1542311*
X1196182Y1541374*
Y1539811*
X1195955Y1538874*
X1195727Y1538249*
X1195273Y1537624*
X1194591Y1537311*
X1193000*
X1200045Y1543874D02*
X1198227Y1537311D01*
X1200045Y1543874D02*
X1201864Y1537311D01*
X1198909Y1539499D02*
X1201182D01*
X1205500Y1543874D02*
Y1537311D01*
X1203909Y1543874D02*
X1207091D01*
X1209136D02*
Y1537311D01*
Y1543874D02*
X1212091D01*
X1209136Y1540749D02*
X1210955D01*
X1209136Y1537311D02*
X1212091D01*
X1254000Y1543874D02*
Y1537311D01*
Y1543874D02*
X1255818Y1537311D01*
X1257636Y1543874D02*
X1255818Y1537311D01*
X1257636Y1543874D02*
Y1537311D01*
X1262409Y1541686D02*
Y1537311D01*
Y1540749D02*
X1261955Y1541374D01*
X1261500Y1541686*
X1260818*
X1260364Y1541374*
X1259909Y1540749*
X1259682Y1539811*
Y1539186*
X1259909Y1538249*
X1260364Y1537624*
X1260818Y1537311*
X1261500*
X1261955Y1537624*
X1262409Y1538249*
X1264455Y1541686D02*
Y1537311D01*
Y1539811D02*
X1264682Y1540749D01*
X1265136Y1541374*
X1265591Y1541686*
X1266273*
X1271045Y1540749D02*
X1270591Y1541374D01*
X1270136Y1541686*
X1269455*
X1269000Y1541374*
X1268545Y1540749*
X1268318Y1539811*
Y1539186*
X1268545Y1538249*
X1269000Y1537624*
X1269455Y1537311*
X1270136*
X1270591Y1537624*
X1271045Y1538249*
X1273091Y1543874D02*
Y1537311D01*
Y1540436D02*
X1273773Y1541374D01*
X1274227Y1541686*
X1274909*
X1275364Y1541374*
X1275591Y1540436*
Y1537311*
X1282864Y1542624D02*
X1283318Y1542936D01*
X1284000Y1543874*
Y1537311*
X1286500Y1543874D02*
X1289000D01*
X1287636Y1541374*
X1288318*
X1288773Y1541061*
X1289000Y1540749*
X1289227Y1539811*
Y1539186*
X1289000Y1538249*
X1288545Y1537624*
X1287864Y1537311*
X1287182*
X1286500Y1537624*
X1286273Y1537936*
X1286045Y1538561*
X1296727Y1542311D02*
Y1542624D01*
X1296955Y1543249*
X1297182Y1543561*
X1297636Y1543874*
X1298545*
X1299000Y1543561*
X1299227Y1543249*
X1299455Y1542624*
Y1541999*
X1299227Y1541374*
X1298773Y1540436*
X1296500Y1537311*
X1299682*
X1303091Y1543874D02*
X1302409Y1543561D01*
X1301955Y1542624*
X1301727Y1541061*
Y1540124*
X1301955Y1538561*
X1302409Y1537624*
X1303091Y1537311*
X1303545*
X1304227Y1537624*
X1304682Y1538561*
X1304909Y1540124*
Y1541061*
X1304682Y1542624*
X1304227Y1543561*
X1303545Y1543874*
X1303091*
X1306955Y1542624D02*
X1307409Y1542936D01*
X1308091Y1543874*
Y1537311*
X1312409Y1543874D02*
X1310136Y1539499D01*
X1313545*
X1312409Y1543874D02*
Y1537311D01*
X996409Y1607811D02*
X996182Y1608436D01*
X995727Y1609061*
X995273Y1609374*
X994364*
X993909Y1609061*
X993455Y1608436*
X993227Y1607811*
X993000Y1606874*
Y1605311*
X993227Y1604374*
X993455Y1603749*
X993909Y1603124*
X994364Y1602811*
X995273*
X995727Y1603124*
X996182Y1603749*
X996409Y1604374*
X999818Y1609374D02*
X999364Y1609061D01*
X998909Y1608436*
X998682Y1607811*
X998455Y1606874*
Y1605311*
X998682Y1604374*
X998909Y1603749*
X999364Y1603124*
X999818Y1602811*
X1000727*
X1001182Y1603124*
X1001636Y1603749*
X1001864Y1604374*
X1002091Y1605311*
Y1606874*
X1001864Y1607811*
X1001636Y1608436*
X1001182Y1609061*
X1000727Y1609374*
X999818*
X1004136D02*
Y1602811D01*
Y1609374D02*
X1005955Y1602811D01*
X1007773Y1609374D02*
X1005955Y1602811D01*
X1007773Y1609374D02*
Y1602811D01*
X1009818Y1609374D02*
Y1602811D01*
Y1609374D02*
X1011864D01*
X1012545Y1609061*
X1012773Y1608749*
X1013000Y1608124*
Y1607186*
X1012773Y1606561*
X1012545Y1606249*
X1011864Y1605936*
X1009818*
X1015045Y1609374D02*
Y1602811D01*
Y1609374D02*
X1017091D01*
X1017773Y1609061*
X1018000Y1608749*
X1018227Y1608124*
Y1607499*
X1018000Y1606874*
X1017773Y1606561*
X1017091Y1606249*
X1015045*
X1016636D02*
X1018227Y1602811D01*
X1020273Y1609374D02*
Y1602811D01*
Y1609374D02*
X1023227D01*
X1020273Y1606249D02*
X1022091D01*
X1020273Y1602811D02*
X1023227D01*
X1028455Y1608436D02*
X1028000Y1609061D01*
X1027318Y1609374*
X1026409*
X1025727Y1609061*
X1025273Y1608436*
Y1607811*
X1025500Y1607186*
X1025727Y1606874*
X1026182Y1606561*
X1027545Y1605936*
X1028000Y1605624*
X1028227Y1605311*
X1028455Y1604686*
Y1603749*
X1028000Y1603124*
X1027318Y1602811*
X1026409*
X1025727Y1603124*
X1025273Y1603749*
X1033682Y1608436D02*
X1033227Y1609061D01*
X1032545Y1609374*
X1031636*
X1030955Y1609061*
X1030500Y1608436*
Y1607811*
X1030727Y1607186*
X1030955Y1606874*
X1031409Y1606561*
X1032773Y1605936*
X1033227Y1605624*
X1033455Y1605311*
X1033682Y1604686*
Y1603749*
X1033227Y1603124*
X1032545Y1602811*
X1031636*
X1030955Y1603124*
X1030500Y1603749*
X1037091Y1609374D02*
X1036636Y1609061D01*
X1036182Y1608436*
X1035955Y1607811*
X1035727Y1606874*
Y1605311*
X1035955Y1604374*
X1036182Y1603749*
X1036636Y1603124*
X1037091Y1602811*
X1038000*
X1038455Y1603124*
X1038909Y1603749*
X1039136Y1604374*
X1039364Y1605311*
Y1606874*
X1039136Y1607811*
X1038909Y1608436*
X1038455Y1609061*
X1038000Y1609374*
X1037091*
X1041409D02*
Y1602811D01*
Y1609374D02*
X1043455D01*
X1044136Y1609061*
X1044364Y1608749*
X1044591Y1608124*
Y1607499*
X1044364Y1606874*
X1044136Y1606561*
X1043455Y1606249*
X1041409*
X1043000D02*
X1044591Y1602811D01*
X1055273Y1607811D02*
X1055045Y1608436D01*
X1054591Y1609061*
X1054136Y1609374*
X1053227*
X1052773Y1609061*
X1052318Y1608436*
X1052091Y1607811*
X1051864Y1606874*
Y1605311*
X1052091Y1604374*
X1052318Y1603749*
X1052773Y1603124*
X1053227Y1602811*
X1054136*
X1054591Y1603124*
X1055045Y1603749*
X1055273Y1604374*
X1058682Y1609374D02*
X1058227Y1609061D01*
X1057773Y1608436*
X1057545Y1607811*
X1057318Y1606874*
Y1605311*
X1057545Y1604374*
X1057773Y1603749*
X1058227Y1603124*
X1058682Y1602811*
X1059591*
X1060045Y1603124*
X1060500Y1603749*
X1060727Y1604374*
X1060955Y1605311*
Y1606874*
X1060727Y1607811*
X1060500Y1608436*
X1060045Y1609061*
X1059591Y1609374*
X1058682*
X1063000D02*
Y1602811D01*
Y1609374D02*
X1066182Y1602811D01*
Y1609374D02*
Y1602811D01*
X1069818Y1609374D02*
Y1602811D01*
X1068227Y1609374D02*
X1071409D01*
X1073455D02*
Y1602811D01*
Y1609374D02*
X1075500D01*
X1076182Y1609061*
X1076409Y1608749*
X1076636Y1608124*
Y1607499*
X1076409Y1606874*
X1076182Y1606561*
X1075500Y1606249*
X1073455*
X1075045D02*
X1076636Y1602811D01*
X1080045Y1609374D02*
X1079591Y1609061D01*
X1079136Y1608436*
X1078909Y1607811*
X1078682Y1606874*
Y1605311*
X1078909Y1604374*
X1079136Y1603749*
X1079591Y1603124*
X1080045Y1602811*
X1080955*
X1081409Y1603124*
X1081864Y1603749*
X1082091Y1604374*
X1082318Y1605311*
Y1606874*
X1082091Y1607811*
X1081864Y1608436*
X1081409Y1609061*
X1080955Y1609374*
X1080045*
X1084364D02*
Y1602811D01*
X1087091*
X1092318Y1608436D02*
X1091864Y1609061D01*
X1091182Y1609374*
X1090273*
X1089591Y1609061*
X1089136Y1608436*
Y1607811*
X1089364Y1607186*
X1089591Y1606874*
X1090045Y1606561*
X1091409Y1605936*
X1091864Y1605624*
X1092091Y1605311*
X1092318Y1604686*
Y1603749*
X1091864Y1603124*
X1091182Y1602811*
X1090273*
X1089591Y1603124*
X1089136Y1603749*
X1103000Y1607811D02*
X1102773Y1608436D01*
X1102318Y1609061*
X1101864Y1609374*
X1100955*
X1100500Y1609061*
X1100045Y1608436*
X1099818Y1607811*
X1099591Y1606874*
Y1605311*
X1099818Y1604374*
X1100045Y1603749*
X1100500Y1603124*
X1100955Y1602811*
X1101864*
X1102318Y1603124*
X1102773Y1603749*
X1103000Y1604374*
X1106409Y1609374D02*
X1105955Y1609061D01*
X1105500Y1608436*
X1105273Y1607811*
X1105045Y1606874*
Y1605311*
X1105273Y1604374*
X1105500Y1603749*
X1105955Y1603124*
X1106409Y1602811*
X1107318*
X1107773Y1603124*
X1108227Y1603749*
X1108455Y1604374*
X1108682Y1605311*
Y1606874*
X1108455Y1607811*
X1108227Y1608436*
X1107773Y1609061*
X1107318Y1609374*
X1106409*
X1110727D02*
Y1602811D01*
Y1609374D02*
X1112773D01*
X1113455Y1609061*
X1113682Y1608749*
X1113909Y1608124*
Y1607499*
X1113682Y1606874*
X1113455Y1606561*
X1112773Y1606249*
X1110727*
X1112318D02*
X1113909Y1602811D01*
X1115955Y1609374D02*
Y1602811D01*
Y1609374D02*
X1118000D01*
X1118682Y1609061*
X1118909Y1608749*
X1119136Y1608124*
Y1607186*
X1118909Y1606561*
X1118682Y1606249*
X1118000Y1605936*
X1115955*
X1122545Y1609374D02*
X1122091Y1609061D01*
X1121636Y1608436*
X1121409Y1607811*
X1121182Y1606874*
Y1605311*
X1121409Y1604374*
X1121636Y1603749*
X1122091Y1603124*
X1122545Y1602811*
X1123455*
X1123909Y1603124*
X1124364Y1603749*
X1124591Y1604374*
X1124818Y1605311*
Y1606874*
X1124591Y1607811*
X1124364Y1608436*
X1123909Y1609061*
X1123455Y1609374*
X1122545*
X1126864D02*
Y1602811D01*
Y1609374D02*
X1128909D01*
X1129591Y1609061*
X1129818Y1608749*
X1130045Y1608124*
Y1607499*
X1129818Y1606874*
X1129591Y1606561*
X1128909Y1606249*
X1126864*
X1128455D02*
X1130045Y1602811D01*
X1133909Y1609374D02*
X1132091Y1602811D01*
X1133909Y1609374D02*
X1135727Y1602811D01*
X1132773Y1604999D02*
X1135045D01*
X1139364Y1609374D02*
Y1602811D01*
X1137773Y1609374D02*
X1140955D01*
X1143000D02*
Y1602811D01*
X1146409Y1609374D02*
X1145955Y1609061D01*
X1145500Y1608436*
X1145273Y1607811*
X1145045Y1606874*
Y1605311*
X1145273Y1604374*
X1145500Y1603749*
X1145955Y1603124*
X1146409Y1602811*
X1147318*
X1147773Y1603124*
X1148227Y1603749*
X1148455Y1604374*
X1148682Y1605311*
Y1606874*
X1148455Y1607811*
X1148227Y1608436*
X1147773Y1609061*
X1147318Y1609374*
X1146409*
X1150727D02*
Y1602811D01*
Y1609374D02*
X1153909Y1602811D01*
Y1609374D02*
Y1602811D01*
X992500Y1594124D02*
X992955Y1594436D01*
X993636Y1595374*
Y1588811*
X998864Y1595374D02*
X996591Y1588811D01*
X995682Y1595374D02*
X998864D01*
X1000909Y1591624D02*
X1005000D01*
X1009773Y1594436D02*
X1009545Y1595061D01*
X1008864Y1595374*
X1008409*
X1007727Y1595061*
X1007273Y1594124*
X1007045Y1592561*
Y1590999*
X1007273Y1589749*
X1007727Y1589124*
X1008409Y1588811*
X1008636*
X1009318Y1589124*
X1009773Y1589749*
X1010000Y1590686*
Y1590999*
X1009773Y1591936*
X1009318Y1592561*
X1008636Y1592874*
X1008409*
X1007727Y1592561*
X1007273Y1591936*
X1007045Y1590999*
X1013409Y1595374D02*
X1012727Y1595061D01*
X1012273Y1594124*
X1012045Y1592561*
Y1591624*
X1012273Y1590061*
X1012727Y1589124*
X1013409Y1588811*
X1013864*
X1014545Y1589124*
X1015000Y1590061*
X1015227Y1591624*
Y1592561*
X1015000Y1594124*
X1014545Y1595061*
X1013864Y1595374*
X1013409*
X1018636D02*
X1017955Y1595061D01*
X1017500Y1594124*
X1017273Y1592561*
Y1591624*
X1017500Y1590061*
X1017955Y1589124*
X1018636Y1588811*
X1019091*
X1019773Y1589124*
X1020227Y1590061*
X1020455Y1591624*
Y1592561*
X1020227Y1594124*
X1019773Y1595061*
X1019091Y1595374*
X1018636*
X1025455D02*
X1023182D01*
X1022955Y1592561*
X1023182Y1592874*
X1023864Y1593186*
X1024545*
X1025227Y1592874*
X1025682Y1592249*
X1025909Y1591311*
X1025682Y1590686*
X1025455Y1589749*
X1025000Y1589124*
X1024318Y1588811*
X1023636*
X1022955Y1589124*
X1022727Y1589436*
X1022500Y1590061*
X1030909Y1595374D02*
X1028636D01*
X1028409Y1592561*
X1028636Y1592874*
X1029318Y1593186*
X1030000*
X1030682Y1592874*
X1031136Y1592249*
X1031364Y1591311*
X1031136Y1590686*
X1030909Y1589749*
X1030455Y1589124*
X1029773Y1588811*
X1029091*
X1028409Y1589124*
X1028182Y1589436*
X1027955Y1590061*
X1033409Y1594124D02*
X1033864Y1594436D01*
X1034545Y1595374*
Y1588811*
X1036591Y1591624D02*
X1040682D01*
X1042727Y1594124D02*
X1043182Y1594436D01*
X1043864Y1595374*
Y1588811*
X1045909Y1594124D02*
X1046364Y1594436D01*
X1047045Y1595374*
Y1588811*
X1049091Y1594124D02*
X1049545Y1594436D01*
X1050227Y1595374*
Y1588811*
X1057500Y1595374D02*
Y1588811D01*
Y1595374D02*
X1059545D01*
X1060227Y1595061*
X1060455Y1594749*
X1060682Y1594124*
Y1593499*
X1060455Y1592874*
X1060227Y1592561*
X1059545Y1592249*
X1057500*
X1059091D02*
X1060682Y1588811D01*
X1062727Y1595374D02*
Y1588811D01*
Y1595374D02*
X1065682D01*
X1062727Y1592249D02*
X1064545D01*
X1062727Y1588811D02*
X1065682D01*
X1067727Y1595374D02*
X1069545Y1588811D01*
X1071364Y1595374D02*
X1069545Y1588811D01*
X1080455Y1595374D02*
X1078636Y1588811D01*
X1080455Y1595374D02*
X1082273Y1588811D01*
X1079318Y1590999D02*
X1081591D01*
X1194000Y1589374D02*
Y1582811D01*
X1196727*
X1200591Y1589374D02*
X1198773Y1582811D01*
X1200591Y1589374D02*
X1202409Y1582811D01*
X1199455Y1584999D02*
X1201727D01*
X1204455Y1589374D02*
X1206273Y1586249D01*
Y1582811*
X1208091Y1589374D02*
X1206273Y1586249D01*
X1210136Y1589374D02*
Y1582811D01*
Y1589374D02*
X1213091D01*
X1210136Y1586249D02*
X1211955D01*
X1210136Y1582811D02*
X1213091D01*
X1215136Y1589374D02*
Y1582811D01*
Y1589374D02*
X1217182D01*
X1217864Y1589061*
X1218091Y1588749*
X1218318Y1588124*
Y1587499*
X1218091Y1586874*
X1217864Y1586561*
X1217182Y1586249*
X1215136*
X1216727D02*
X1218318Y1582811D01*
X1194000Y1574374D02*
Y1567811D01*
Y1574374D02*
X1196045D01*
X1196727Y1574061*
X1196955Y1573749*
X1197182Y1573124*
Y1572186*
X1196955Y1571561*
X1196727Y1571249*
X1196045Y1570936*
X1194000*
X1201045Y1574374D02*
X1199227Y1567811D01*
X1201045Y1574374D02*
X1202864Y1567811D01*
X1199909Y1569999D02*
X1202182D01*
X1204909Y1574374D02*
Y1567811D01*
Y1574374D02*
X1206955D01*
X1207636Y1574061*
X1207864Y1573749*
X1208091Y1573124*
Y1572499*
X1207864Y1571874*
X1207636Y1571561*
X1206955Y1571249*
X1204909*
X1206500D02*
X1208091Y1567811D01*
X1211727Y1574374D02*
Y1567811D01*
X1210136Y1574374D02*
X1213318D01*
X1220591D02*
Y1567811D01*
Y1574374D02*
X1223773Y1567811D01*
Y1574374D02*
Y1567811D01*
X1227182Y1574374D02*
X1226727Y1574061D01*
X1226273Y1573436*
X1226045Y1572811*
X1225818Y1571874*
Y1570311*
X1226045Y1569374*
X1226273Y1568749*
X1226727Y1568124*
X1227182Y1567811*
X1228091*
X1228545Y1568124*
X1229000Y1568749*
X1229227Y1569374*
X1229455Y1570311*
Y1571874*
X1229227Y1572811*
X1229000Y1573436*
X1228545Y1574061*
X1228091Y1574374*
X1227182*
X1194000Y1559374D02*
Y1552811D01*
Y1559374D02*
X1196045D01*
X1196727Y1559061*
X1196955Y1558749*
X1197182Y1558124*
Y1557499*
X1196955Y1556874*
X1196727Y1556561*
X1196045Y1556249*
X1194000*
X1195591D02*
X1197182Y1552811D01*
X1199227Y1559374D02*
Y1552811D01*
Y1559374D02*
X1202182D01*
X1199227Y1556249D02*
X1201045D01*
X1199227Y1552811D02*
X1202182D01*
X1204227Y1559374D02*
X1206045Y1552811D01*
X1207864Y1559374D02*
X1206045Y1552811D01*
X1254000Y1588874D02*
Y1582311D01*
Y1588874D02*
X1256045D01*
X1256727Y1588561*
X1256955Y1588249*
X1257182Y1587624*
Y1586686*
X1256955Y1586061*
X1256727Y1585749*
X1256045Y1585436*
X1254000*
X1259227Y1588874D02*
X1260364Y1582311D01*
X1261500Y1588874D02*
X1260364Y1582311D01*
X1261500Y1588874D02*
X1262636Y1582311D01*
X1263773Y1588874D02*
X1262636Y1582311D01*
X1265818Y1588874D02*
Y1582311D01*
Y1588874D02*
X1267864D01*
X1268545Y1588561*
X1268773Y1588249*
X1269000Y1587624*
Y1586999*
X1268773Y1586374*
X1268545Y1586061*
X1267864Y1585749*
X1265818*
X1267409D02*
X1269000Y1582311D01*
X1276273Y1588874D02*
Y1582311D01*
Y1588874D02*
X1278318D01*
X1279000Y1588561*
X1279227Y1588249*
X1279455Y1587624*
Y1586686*
X1279227Y1586061*
X1279000Y1585749*
X1278318Y1585436*
X1276273*
X1281500Y1588874D02*
Y1582311D01*
X1284227*
X1288091Y1588874D02*
X1286273Y1582311D01*
X1288091Y1588874D02*
X1289909Y1582311D01*
X1286955Y1584499D02*
X1289227D01*
X1291955Y1588874D02*
Y1582311D01*
Y1588874D02*
X1295136Y1582311D01*
Y1588874D02*
Y1582311D01*
X1297182Y1588874D02*
Y1582311D01*
Y1588874D02*
X1300136D01*
X1297182Y1585749D02*
X1299000D01*
X1297182Y1582311D02*
X1300136D01*
X1254000Y1573124D02*
X1254455Y1573436D01*
X1255136Y1574374*
Y1567811*
X1260364Y1574374D02*
X1258091Y1567811D01*
X1257182Y1574374D02*
X1260364D01*
X1262409Y1570624D02*
X1266500D01*
X1271273Y1573436D02*
X1271045Y1574061D01*
X1270364Y1574374*
X1269909*
X1269227Y1574061*
X1268773Y1573124*
X1268545Y1571561*
Y1569999*
X1268773Y1568749*
X1269227Y1568124*
X1269909Y1567811*
X1270136*
X1270818Y1568124*
X1271273Y1568749*
X1271500Y1569686*
Y1569999*
X1271273Y1570936*
X1270818Y1571561*
X1270136Y1571874*
X1269909*
X1269227Y1571561*
X1268773Y1570936*
X1268545Y1569999*
X1274909Y1574374D02*
X1274227Y1574061D01*
X1273773Y1573124*
X1273545Y1571561*
Y1570624*
X1273773Y1569061*
X1274227Y1568124*
X1274909Y1567811*
X1275364*
X1276045Y1568124*
X1276500Y1569061*
X1276727Y1570624*
Y1571561*
X1276500Y1573124*
X1276045Y1574061*
X1275364Y1574374*
X1274909*
X1280136D02*
X1279455Y1574061D01*
X1279000Y1573124*
X1278773Y1571561*
Y1570624*
X1279000Y1569061*
X1279455Y1568124*
X1280136Y1567811*
X1280591*
X1281273Y1568124*
X1281727Y1569061*
X1281955Y1570624*
Y1571561*
X1281727Y1573124*
X1281273Y1574061*
X1280591Y1574374*
X1280136*
X1286955D02*
X1284682D01*
X1284455Y1571561*
X1284682Y1571874*
X1285364Y1572186*
X1286045*
X1286727Y1571874*
X1287182Y1571249*
X1287409Y1570311*
X1287182Y1569686*
X1286955Y1568749*
X1286500Y1568124*
X1285818Y1567811*
X1285136*
X1284455Y1568124*
X1284227Y1568436*
X1284000Y1569061*
X1292409Y1574374D02*
X1290136D01*
X1289909Y1571561*
X1290136Y1571874*
X1290818Y1572186*
X1291500*
X1292182Y1571874*
X1292636Y1571249*
X1292864Y1570311*
X1292636Y1569686*
X1292409Y1568749*
X1291955Y1568124*
X1291273Y1567811*
X1290591*
X1289909Y1568124*
X1289682Y1568436*
X1289455Y1569061*
X1294909Y1573124D02*
X1295364Y1573436D01*
X1296045Y1574374*
Y1567811*
X1298091Y1570624D02*
X1302182D01*
X1304227Y1573124D02*
X1304682Y1573436D01*
X1305364Y1574374*
Y1567811*
X1307409Y1573124D02*
X1307864Y1573436D01*
X1308545Y1574374*
Y1567811*
X1310591Y1573124D02*
X1311045Y1573436D01*
X1311727Y1574374*
Y1567811*
X1280818Y1559374D02*
X1279000Y1552811D01*
X1280818Y1559374D02*
X1282636Y1552811D01*
X1279682Y1554999D02*
X1281955D01*
X1193000Y1543874D02*
Y1537311D01*
Y1543874D02*
X1194591D01*
X1195273Y1543561*
X1195727Y1542936*
X1195955Y1542311*
X1196182Y1541374*
Y1539811*
X1195955Y1538874*
X1195727Y1538249*
X1195273Y1537624*
X1194591Y1537311*
X1193000*
X1200045Y1543874D02*
X1198227Y1537311D01*
X1200045Y1543874D02*
X1201864Y1537311D01*
X1198909Y1539499D02*
X1201182D01*
X1205500Y1543874D02*
Y1537311D01*
X1203909Y1543874D02*
X1207091D01*
X1209136D02*
Y1537311D01*
Y1543874D02*
X1212091D01*
X1209136Y1540749D02*
X1210955D01*
X1209136Y1537311D02*
X1212091D01*
X1215131Y1202425D02*
G75*
G03X1215131I-2434J0D01*
G01Y1207937D02*
G03X1215131I-2434J0D01*
G01Y1213449D02*
G03X1215131I-2434J0D01*
G01Y1218961D02*
G03X1215131I-2434J0D01*
G01Y1224472D02*
G03X1215131I-2434J0D01*
G01Y1229984D02*
G03X1215131I-2434J0D01*
G01Y1235496D02*
G03X1215131I-2434J0D01*
G01Y1241008D02*
G03X1215131I-2434J0D01*
G01Y1246520D02*
G03X1215131I-2434J0D01*
G01Y1252031D02*
G03X1215131I-2434J0D01*
G01Y1257543D02*
G03X1215131I-2434J0D01*
G01X1207257Y1202031D02*
G03X1207257I-2434J0D01*
G01Y1207543D02*
G03X1207257I-2434J0D01*
G01Y1213055D02*
G03X1207257I-2434J0D01*
G01Y1218567D02*
G03X1207257I-2434J0D01*
G01Y1224079D02*
G03X1207257I-2434J0D01*
G01Y1229591D02*
G03X1207257I-2434J0D01*
G01Y1235102D02*
G03X1207257I-2434J0D01*
G01Y1240614D02*
G03X1207257I-2434J0D01*
G01Y1246126D02*
G03X1207257I-2434J0D01*
G01Y1251638D02*
G03X1207257I-2434J0D01*
G01Y1257150D02*
G03X1207257I-2434J0D01*
G01X1237350Y1384700D02*
G03X1237350I-3150J0D01*
G01X1231450Y1387200D02*
G03X1231450I-3150J0D01*
G01X1223550Y1395000D02*
G03X1223550I-3150J0D01*
G01X1220450Y1404600D02*
G03X1220450I-2050J0D01*
G01X1203550Y1404000D02*
G03X1203550I-2050J0D01*
G01X1187308Y1011826D02*
G03X1187308I-3450J0D01*
G01Y1021826D02*
G03X1187308I-3450J0D01*
G01X1177308Y1011826D02*
G03X1177308I-3450J0D01*
G01Y1021826D02*
G03X1177308I-3450J0D01*
G01X1167308Y1011826D02*
G03X1167308I-3450J0D01*
G01Y1021826D02*
G03X1167308I-3450J0D01*
G01X1157308Y1011826D02*
G03X1157308I-3450J0D01*
G01Y1021826D02*
G03X1157308I-3450J0D01*
G01X1188998Y1080546D02*
G03X1188998I-16248J0D01*
G01X1199383Y1202425D02*
G03X1199383I-2434J0D01*
G01Y1207937D02*
G03X1199383I-2434J0D01*
G01Y1213449D02*
G03X1199383I-2434J0D01*
G01Y1218961D02*
G03X1199383I-2434J0D01*
G01Y1224472D02*
G03X1199383I-2434J0D01*
G01Y1229984D02*
G03X1199383I-2434J0D01*
G01Y1235496D02*
G03X1199383I-2434J0D01*
G01Y1241008D02*
G03X1199383I-2434J0D01*
G01Y1246520D02*
G03X1199383I-2434J0D01*
G01Y1252031D02*
G03X1199383I-2434J0D01*
G01Y1257543D02*
G03X1199383I-2434J0D01*
G01Y1263055D02*
G03X1199383I-2434J0D01*
G01Y1268567D02*
G03X1199383I-2434J0D01*
G01Y1274079D02*
G03X1199383I-2434J0D01*
G01Y1279591D02*
G03X1199383I-2434J0D01*
G01X1191509Y1202031D02*
G03X1191509I-2434J0D01*
G01Y1207543D02*
G03X1191509I-2434J0D01*
G01Y1213055D02*
G03X1191509I-2434J0D01*
G01Y1218567D02*
G03X1191509I-2434J0D01*
G01Y1224079D02*
G03X1191509I-2434J0D01*
G01Y1229591D02*
G03X1191509I-2434J0D01*
G01Y1235102D02*
G03X1191509I-2434J0D01*
G01Y1240614D02*
G03X1191509I-2434J0D01*
G01Y1246126D02*
G03X1191509I-2434J0D01*
G01Y1251638D02*
G03X1191509I-2434J0D01*
G01Y1257150D02*
G03X1191509I-2434J0D01*
G01Y1262661D02*
G03X1191509I-2434J0D01*
G01Y1268173D02*
G03X1191509I-2434J0D01*
G01Y1273685D02*
G03X1191509I-2434J0D01*
G01Y1279197D02*
G03X1191509I-2434J0D01*
G01X1184050Y1120000D02*
G03X1184050I-2050J0D01*
G01X1169050Y1115000D02*
G03X1169050I-2050J0D01*
G01X1183635Y1202425D02*
G03X1183635I-2434J0D01*
G01Y1207937D02*
G03X1183635I-2434J0D01*
G01Y1213449D02*
G03X1183635I-2434J0D01*
G01Y1218961D02*
G03X1183635I-2434J0D01*
G01Y1224472D02*
G03X1183635I-2434J0D01*
G01Y1229984D02*
G03X1183635I-2434J0D01*
G01Y1235496D02*
G03X1183635I-2434J0D01*
G01Y1241008D02*
G03X1183635I-2434J0D01*
G01Y1246520D02*
G03X1183635I-2434J0D01*
G01Y1252031D02*
G03X1183635I-2434J0D01*
G01Y1257543D02*
G03X1183635I-2434J0D01*
G01Y1263055D02*
G03X1183635I-2434J0D01*
G01Y1268567D02*
G03X1183635I-2434J0D01*
G01Y1274079D02*
G03X1183635I-2434J0D01*
G01Y1279591D02*
G03X1183635I-2434J0D01*
G01X1175761Y1202031D02*
G03X1175761I-2434J0D01*
G01Y1207543D02*
G03X1175761I-2434J0D01*
G01Y1213055D02*
G03X1175761I-2434J0D01*
G01Y1218567D02*
G03X1175761I-2434J0D01*
G01Y1224079D02*
G03X1175761I-2434J0D01*
G01Y1229591D02*
G03X1175761I-2434J0D01*
G01Y1235102D02*
G03X1175761I-2434J0D01*
G01Y1240614D02*
G03X1175761I-2434J0D01*
G01Y1246126D02*
G03X1175761I-2434J0D01*
G01Y1251638D02*
G03X1175761I-2434J0D01*
G01Y1257150D02*
G03X1175761I-2434J0D01*
G01Y1262661D02*
G03X1175761I-2434J0D01*
G01Y1268173D02*
G03X1175761I-2434J0D01*
G01Y1273685D02*
G03X1175761I-2434J0D01*
G01Y1279197D02*
G03X1175761I-2434J0D01*
G01X1180450Y1327000D02*
G03X1180450I-2450J0D01*
G01X1187308Y1436174D02*
G03X1187308I-3450J0D01*
G01Y1446174D02*
G03X1187308I-3450J0D01*
G01X1177308Y1436174D02*
G03X1177308I-3450J0D01*
G01Y1446174D02*
G03X1177308I-3450J0D01*
G01X1163050Y1115000D02*
G03X1163050I-2050J0D01*
G01X1167887Y1218961D02*
G03X1167887I-2434J0D01*
G01Y1224472D02*
G03X1167887I-2434J0D01*
G01Y1229984D02*
G03X1167887I-2434J0D01*
G01Y1235496D02*
G03X1167887I-2434J0D01*
G01Y1241008D02*
G03X1167887I-2434J0D01*
G01Y1246520D02*
G03X1167887I-2434J0D01*
G01Y1252031D02*
G03X1167887I-2434J0D01*
G01Y1257543D02*
G03X1167887I-2434J0D01*
G01Y1263055D02*
G03X1167887I-2434J0D01*
G01Y1268567D02*
G03X1167887I-2434J0D01*
G01Y1274079D02*
G03X1167887I-2434J0D01*
G01Y1279591D02*
G03X1167887I-2434J0D01*
G01X1168450Y1327000D02*
G03X1168450I-2450J0D01*
G01X1167308Y1436174D02*
G03X1167308I-3450J0D01*
G01Y1446174D02*
G03X1167308I-3450J0D01*
G01X1155250Y1169000D02*
G03X1155250I-3750J0D01*
G01X1160013Y1202031D02*
G03X1160013I-2434J0D01*
G01Y1207543D02*
G03X1160013I-2434J0D01*
G01Y1213055D02*
G03X1160013I-2434J0D01*
G01Y1218567D02*
G03X1160013I-2434J0D01*
G01Y1224079D02*
G03X1160013I-2434J0D01*
G01Y1229591D02*
G03X1160013I-2434J0D01*
G01Y1235102D02*
G03X1160013I-2434J0D01*
G01Y1240614D02*
G03X1160013I-2434J0D01*
G01Y1246126D02*
G03X1160013I-2434J0D01*
G01Y1251638D02*
G03X1160013I-2434J0D01*
G01Y1257150D02*
G03X1160013I-2434J0D01*
G01Y1262661D02*
G03X1160013I-2434J0D01*
G01Y1268173D02*
G03X1160013I-2434J0D01*
G01Y1273685D02*
G03X1160013I-2434J0D01*
G01Y1279197D02*
G03X1160013I-2434J0D01*
G01X1147308Y1011826D02*
G03X1147308I-3450J0D01*
G01Y1021826D02*
G03X1147308I-3450J0D01*
G01X1152139Y1202425D02*
G03X1152139I-2434J0D01*
G01Y1207937D02*
G03X1152139I-2434J0D01*
G01Y1213449D02*
G03X1152139I-2434J0D01*
G01Y1218961D02*
G03X1152139I-2434J0D01*
G01Y1224472D02*
G03X1152139I-2434J0D01*
G01Y1229984D02*
G03X1152139I-2434J0D01*
G01Y1235496D02*
G03X1152139I-2434J0D01*
G01Y1241008D02*
G03X1152139I-2434J0D01*
G01Y1246520D02*
G03X1152139I-2434J0D01*
G01Y1252031D02*
G03X1152139I-2434J0D01*
G01Y1257543D02*
G03X1152139I-2434J0D01*
G01Y1263055D02*
G03X1152139I-2434J0D01*
G01Y1268567D02*
G03X1152139I-2434J0D01*
G01Y1274079D02*
G03X1152139I-2434J0D01*
G01Y1279591D02*
G03X1152139I-2434J0D01*
G01X1155450Y1327000D02*
G03X1155450I-2450J0D01*
G01X1157308Y1436174D02*
G03X1157308I-3450J0D01*
G01Y1446174D02*
G03X1157308I-3450J0D01*
G01X1137308Y1011826D02*
G03X1137308I-3450J0D01*
G01Y1021826D02*
G03X1137308I-3450J0D01*
G01X1140050Y1102000D02*
G03X1140050I-2050J0D01*
G01X1144265Y1202031D02*
G03X1144265I-2434J0D01*
G01Y1207543D02*
G03X1144265I-2434J0D01*
G01Y1213055D02*
G03X1144265I-2434J0D01*
G01Y1218567D02*
G03X1144265I-2434J0D01*
G01Y1224079D02*
G03X1144265I-2434J0D01*
G01Y1229591D02*
G03X1144265I-2434J0D01*
G01Y1235102D02*
G03X1144265I-2434J0D01*
G01Y1240614D02*
G03X1144265I-2434J0D01*
G01Y1246126D02*
G03X1144265I-2434J0D01*
G01Y1251638D02*
G03X1144265I-2434J0D01*
G01Y1257150D02*
G03X1144265I-2434J0D01*
G01Y1262661D02*
G03X1144265I-2434J0D01*
G01Y1268173D02*
G03X1144265I-2434J0D01*
G01Y1273685D02*
G03X1144265I-2434J0D01*
G01Y1279197D02*
G03X1144265I-2434J0D01*
G01X1145450Y1327000D02*
G03X1145450I-2450J0D01*
G01X1147308Y1436174D02*
G03X1147308I-3450J0D01*
G01Y1446174D02*
G03X1147308I-3450J0D01*
G01X1127308Y1011826D02*
G03X1127308I-3450J0D01*
G01Y1021826D02*
G03X1127308I-3450J0D01*
G01X1128320Y1218960D02*
G03X1128320I-2434J0D01*
G01Y1224472D02*
G03X1128320I-2434J0D01*
G01Y1229984D02*
G03X1128320I-2434J0D01*
G01Y1235496D02*
G03X1128320I-2434J0D01*
G01Y1241008D02*
G03X1128320I-2434J0D01*
G01Y1246519D02*
G03X1128320I-2434J0D01*
G01Y1252031D02*
G03X1128320I-2434J0D01*
G01Y1257543D02*
G03X1128320I-2434J0D01*
G01Y1263055D02*
G03X1128320I-2434J0D01*
G01Y1268567D02*
G03X1128320I-2434J0D01*
G01Y1274079D02*
G03X1128320I-2434J0D01*
G01Y1279590D02*
G03X1128320I-2434J0D01*
G01X1127450Y1331000D02*
G03X1127450I-2450J0D01*
G01X1117308Y1011826D02*
G03X1117308I-3450J0D01*
G01Y1021826D02*
G03X1117308I-3450J0D01*
G01X1120446Y1218567D02*
G03X1120446I-2434J0D01*
G01Y1224079D02*
G03X1120446I-2434J0D01*
G01Y1229590D02*
G03X1120446I-2434J0D01*
G01Y1235102D02*
G03X1120446I-2434J0D01*
G01Y1240614D02*
G03X1120446I-2434J0D01*
G01Y1246126D02*
G03X1120446I-2434J0D01*
G01Y1251638D02*
G03X1120446I-2434J0D01*
G01Y1257149D02*
G03X1120446I-2434J0D01*
G01Y1262661D02*
G03X1120446I-2434J0D01*
G01Y1268173D02*
G03X1120446I-2434J0D01*
G01Y1273685D02*
G03X1120446I-2434J0D01*
G01Y1279197D02*
G03X1120446I-2434J0D01*
G01X1128008Y1436174D02*
G03X1128008I-4150J0D01*
G01Y1446174D02*
G03X1128008I-4150J0D01*
G01X1107308Y1011826D02*
G03X1107308I-3450J0D01*
G01Y1021826D02*
G03X1107308I-3450J0D01*
G01X1112572Y1202425D02*
G03X1112572I-2434J0D01*
G01Y1207937D02*
G03X1112572I-2434J0D01*
G01Y1213449D02*
G03X1112572I-2434J0D01*
G01Y1218960D02*
G03X1112572I-2434J0D01*
G01Y1224472D02*
G03X1112572I-2434J0D01*
G01Y1229984D02*
G03X1112572I-2434J0D01*
G01Y1235496D02*
G03X1112572I-2434J0D01*
G01Y1241008D02*
G03X1112572I-2434J0D01*
G01Y1246519D02*
G03X1112572I-2434J0D01*
G01Y1252031D02*
G03X1112572I-2434J0D01*
G01Y1257543D02*
G03X1112572I-2434J0D01*
G01Y1263055D02*
G03X1112572I-2434J0D01*
G01Y1268567D02*
G03X1112572I-2434J0D01*
G01Y1274079D02*
G03X1112572I-2434J0D01*
G01Y1279590D02*
G03X1112572I-2434J0D01*
G01X1115450Y1331000D02*
G03X1115450I-2450J0D01*
G01X1117308Y1436174D02*
G03X1117308I-3450J0D01*
G01Y1446174D02*
G03X1117308I-3450J0D01*
G01X1097308Y1011826D02*
G03X1097308I-3450J0D01*
G01Y1021826D02*
G03X1097308I-3450J0D01*
G01X1104698Y1202031D02*
G03X1104698I-2434J0D01*
G01Y1207543D02*
G03X1104698I-2434J0D01*
G01Y1213055D02*
G03X1104698I-2434J0D01*
G01Y1218567D02*
G03X1104698I-2434J0D01*
G01Y1224079D02*
G03X1104698I-2434J0D01*
G01Y1229590D02*
G03X1104698I-2434J0D01*
G01Y1235102D02*
G03X1104698I-2434J0D01*
G01Y1240614D02*
G03X1104698I-2434J0D01*
G01Y1246126D02*
G03X1104698I-2434J0D01*
G01Y1251638D02*
G03X1104698I-2434J0D01*
G01Y1257149D02*
G03X1104698I-2434J0D01*
G01Y1262661D02*
G03X1104698I-2434J0D01*
G01Y1268173D02*
G03X1104698I-2434J0D01*
G01Y1273685D02*
G03X1104698I-2434J0D01*
G01Y1279197D02*
G03X1104698I-2434J0D01*
G01X1105450Y1327000D02*
G03X1105450I-2450J0D01*
G01X1107308Y1436174D02*
G03X1107308I-3450J0D01*
G01Y1446174D02*
G03X1107308I-3450J0D01*
G01X1087308Y1011826D02*
G03X1087308I-3450J0D01*
G01Y1021826D02*
G03X1087308I-3450J0D01*
G01X1096824Y1202425D02*
G03X1096824I-2434J0D01*
G01Y1207937D02*
G03X1096824I-2434J0D01*
G01Y1213449D02*
G03X1096824I-2434J0D01*
G01Y1218960D02*
G03X1096824I-2434J0D01*
G01Y1224472D02*
G03X1096824I-2434J0D01*
G01Y1229984D02*
G03X1096824I-2434J0D01*
G01Y1235496D02*
G03X1096824I-2434J0D01*
G01Y1241008D02*
G03X1096824I-2434J0D01*
G01Y1246519D02*
G03X1096824I-2434J0D01*
G01Y1252031D02*
G03X1096824I-2434J0D01*
G01Y1257543D02*
G03X1096824I-2434J0D01*
G01Y1263055D02*
G03X1096824I-2434J0D01*
G01Y1268567D02*
G03X1096824I-2434J0D01*
G01Y1274079D02*
G03X1096824I-2434J0D01*
G01Y1279590D02*
G03X1096824I-2434J0D01*
G01X1098250Y1293700D02*
G03X1098250I-2050J0D01*
G01X1093450Y1293500D02*
G03X1093450I-2050J0D01*
G01X1088950Y1218567D02*
G03X1088950I-2434J0D01*
G01Y1224079D02*
G03X1088950I-2434J0D01*
G01Y1229590D02*
G03X1088950I-2434J0D01*
G01Y1235102D02*
G03X1088950I-2434J0D01*
G01Y1240614D02*
G03X1088950I-2434J0D01*
G01Y1246126D02*
G03X1088950I-2434J0D01*
G01Y1251638D02*
G03X1088950I-2434J0D01*
G01Y1257149D02*
G03X1088950I-2434J0D01*
G01Y1262661D02*
G03X1088950I-2434J0D01*
G01Y1268173D02*
G03X1088950I-2434J0D01*
G01Y1273685D02*
G03X1088950I-2434J0D01*
G01Y1279197D02*
G03X1088950I-2434J0D01*
G01X1091450Y1327000D02*
G03X1091450I-2450J0D01*
G01X1097308Y1436174D02*
G03X1097308I-3450J0D01*
G01Y1446174D02*
G03X1097308I-3450J0D01*
G01X1077308Y1011826D02*
G03X1077308I-3450J0D01*
G01Y1021826D02*
G03X1077308I-3450J0D01*
G01X1081076Y1218960D02*
G03X1081076I-2434J0D01*
G01Y1224472D02*
G03X1081076I-2434J0D01*
G01Y1229984D02*
G03X1081076I-2434J0D01*
G01Y1235496D02*
G03X1081076I-2434J0D01*
G01Y1241008D02*
G03X1081076I-2434J0D01*
G01Y1246519D02*
G03X1081076I-2434J0D01*
G01Y1252031D02*
G03X1081076I-2434J0D01*
G01Y1257543D02*
G03X1081076I-2434J0D01*
G01Y1263055D02*
G03X1081076I-2434J0D01*
G01Y1268567D02*
G03X1081076I-2434J0D01*
G01Y1274079D02*
G03X1081076I-2434J0D01*
G01Y1279590D02*
G03X1081076I-2434J0D01*
G01X1087308Y1436174D02*
G03X1087308I-3450J0D01*
G01Y1446174D02*
G03X1087308I-3450J0D01*
G01X1073202Y1218567D02*
G03X1073202I-2434J0D01*
G01Y1224079D02*
G03X1073202I-2434J0D01*
G01Y1229590D02*
G03X1073202I-2434J0D01*
G01Y1235102D02*
G03X1073202I-2434J0D01*
G01Y1240614D02*
G03X1073202I-2434J0D01*
G01Y1246126D02*
G03X1073202I-2434J0D01*
G01Y1251638D02*
G03X1073202I-2434J0D01*
G01Y1257149D02*
G03X1073202I-2434J0D01*
G01Y1262661D02*
G03X1073202I-2434J0D01*
G01Y1268173D02*
G03X1073202I-2434J0D01*
G01Y1273685D02*
G03X1073202I-2434J0D01*
G01Y1279197D02*
G03X1073202I-2434J0D01*
G01X1075450Y1317400D02*
G03X1075450I-2050J0D01*
G01X1072850Y1326600D02*
G03X1072850I-2050J0D01*
G01X1067308Y1011826D02*
G03X1067308I-3450J0D01*
G01Y1021826D02*
G03X1067308I-3450J0D01*
G01X1065328Y1257543D02*
G03X1065328I-2434J0D01*
G01Y1263055D02*
G03X1065328I-2434J0D01*
G01Y1268567D02*
G03X1065328I-2434J0D01*
G01Y1274079D02*
G03X1065328I-2434J0D01*
G01Y1279590D02*
G03X1065328I-2434J0D01*
G01X1057454Y1257149D02*
G03X1057454I-2434J0D01*
G01Y1262661D02*
G03X1057454I-2434J0D01*
G01Y1268173D02*
G03X1057454I-2434J0D01*
G01Y1273685D02*
G03X1057454I-2434J0D01*
G01Y1279197D02*
G03X1057454I-2434J0D01*
G01X1059150Y1344500D02*
G03X1059150I-3150J0D01*
G01X1040250Y1322700D02*
G03X1040250I-2050J0D01*
G01X1023650Y1230000D02*
G03X1023650I-3150J0D01*
G01X1023150Y1246000D02*
G03X1023150I-3150J0D01*
G01Y1264500D02*
G03X1023150I-3150J0D01*
G01X1022650Y1271500D02*
G03X1022650I-3150J0D01*
G01X1253672Y1352779D02*
Y1373721D01*
X1229807Y1397586*
X1229793*
X1194579Y1432800*
X1192543Y1439363D02*
G03X1194579Y1432800I1315J-3189D01*
G01X1192543Y1439363D02*
Y1442984D01*
Y1449363D02*
G03Y1442984I1315J-3189D01*
G01Y1449363D02*
Y1450793D01*
X1190314Y1453021*
X1077729*
X1074739Y1450032*
Y1449509*
X1074500Y1442784D02*
G03X1074739Y1449509I-642J3390D01*
G01X1074500Y1442784D02*
Y1439563D01*
X1071694Y1433487D02*
G03X1074500Y1439563I2164J2687D01*
G01X1071694Y1433487D02*
X1013500Y1375293D01*
Y1220207*
X1047207Y1186500*
X1051707*
X1063100Y1175107*
Y1151793*
X1048707Y1137400*
X1028982*
X1015000Y1123418*
Y1091311*
X1014500Y1090811D02*
G03X1015000Y1091311I0J500D01*
G01X1014500Y1090811D02*
X1004500D01*
Y1047815*
X1021654*
X1045659Y1032049D02*
G03X1021654Y1047815I-24005J-10392D01*
G01X1045659Y1032049D02*
X1046700Y1031007D01*
Y1029200*
X1047811Y1021657D02*
G03X1046700Y1029200I-26157J0D01*
G01X1047811Y1021657D02*
X1047811D01*
Y1004500*
X1189793*
X1193500Y1008207*
Y1008395*
Y1015257D02*
G03Y1008395I358J-3431D01*
G01Y1015257D02*
Y1018395D01*
Y1025257D02*
G03Y1018395I358J-3431D01*
G01Y1025257D02*
Y1030207D01*
X1220293Y1057000*
X1220793*
X1246000Y1082207*
Y1281793*
X1236993Y1290800*
X1221393*
X1203300Y1308893*
Y1331407*
X1215593Y1343700*
X1244593*
X1253672Y1352779*
X1215131Y1202425D02*
G03X1215131I-2434J0D01*
G01Y1207937D02*
G03X1215131I-2434J0D01*
G01Y1213449D02*
G03X1215131I-2434J0D01*
G01Y1218961D02*
G03X1215131I-2434J0D01*
G01Y1224472D02*
G03X1215131I-2434J0D01*
G01Y1229984D02*
G03X1215131I-2434J0D01*
G01Y1235496D02*
G03X1215131I-2434J0D01*
G01Y1241008D02*
G03X1215131I-2434J0D01*
G01Y1246520D02*
G03X1215131I-2434J0D01*
G01Y1252031D02*
G03X1215131I-2434J0D01*
G01Y1257543D02*
G03X1215131I-2434J0D01*
G01X1214190Y1271323D02*
G03X1213090Y1277188I-1493J2756D01*
G01Y1265457D02*
G03X1214190Y1271323I-393J3110D01*
G01X1212304Y1265457D02*
G03X1213090I393J-2402D01*
G01X1211204Y1271323D02*
G03X1212304Y1265457I1493J-2756D01*
G01Y1277188D02*
G03X1211204Y1271323I393J-3109D01*
G01X1213090Y1277188D02*
G03X1212304I-393J2403D01*
G01X1207257Y1202031D02*
G03X1207257I-2434J0D01*
G01Y1207543D02*
G03X1207257I-2434J0D01*
G01Y1213055D02*
G03X1207257I-2434J0D01*
G01Y1218567D02*
G03X1207257I-2434J0D01*
G01Y1224079D02*
G03X1207257I-2434J0D01*
G01Y1229591D02*
G03X1207257I-2434J0D01*
G01Y1235102D02*
G03X1207257I-2434J0D01*
G01Y1240614D02*
G03X1207257I-2434J0D01*
G01Y1246126D02*
G03X1207257I-2434J0D01*
G01Y1251638D02*
G03X1207257I-2434J0D01*
G01Y1257150D02*
G03X1207257I-2434J0D01*
G01X1206316Y1270929D02*
G03X1205216Y1276795I-1493J2756D01*
G01Y1265064D02*
G03X1206316Y1270929I-393J3109D01*
G01X1204430Y1265064D02*
G03X1205216I393J-2403D01*
G01X1203330Y1270929D02*
G03X1204430Y1265064I1493J-2756D01*
G01Y1276795D02*
G03X1203330Y1270929I393J-3110D01*
G01X1205216Y1276795D02*
G03X1204430I-393J2402D01*
G01X1237350Y1384700D02*
G03X1237350I-3150J0D01*
G01X1231450Y1387200D02*
G03X1231450I-3150J0D01*
G01X1223550Y1395000D02*
G03X1223550I-3150J0D01*
G01X1220450Y1404600D02*
G03X1220450I-2050J0D01*
G01X1203550Y1404000D02*
G03X1203550I-2050J0D01*
G01X1187308Y1011826D02*
G03X1187308I-3450J0D01*
G01Y1021826D02*
G03X1187308I-3450J0D01*
G01X1177308Y1011826D02*
G03X1177308I-3450J0D01*
G01Y1021826D02*
G03X1177308I-3450J0D01*
G01X1167308Y1011826D02*
G03X1167308I-3450J0D01*
G01Y1021826D02*
G03X1167308I-3450J0D01*
G01X1157308Y1011826D02*
G03X1157308I-3450J0D01*
G01Y1021826D02*
G03X1157308I-3450J0D01*
G01X1188998Y1080546D02*
G03X1188998I-16248J0D01*
G01X1192000Y1124550D02*
G03Y1125450I2000J450D01*
Y1124550I-2000J-450*
G01X1199383Y1202425D02*
G03X1199383I-2434J0D01*
G01Y1207937D02*
G03X1199383I-2434J0D01*
G01Y1213449D02*
G03X1199383I-2434J0D01*
G01Y1218961D02*
G03X1199383I-2434J0D01*
G01Y1224472D02*
G03X1199383I-2434J0D01*
G01Y1229984D02*
G03X1199383I-2434J0D01*
G01Y1235496D02*
G03X1199383I-2434J0D01*
G01Y1241008D02*
G03X1199383I-2434J0D01*
G01Y1246520D02*
G03X1199383I-2434J0D01*
G01Y1252031D02*
G03X1199383I-2434J0D01*
G01Y1257543D02*
G03X1199383I-2434J0D01*
G01Y1263055D02*
G03X1199383I-2434J0D01*
G01Y1268567D02*
G03X1199383I-2434J0D01*
G01Y1274079D02*
G03X1199383I-2434J0D01*
G01Y1279591D02*
G03X1199383I-2434J0D01*
G01X1191509Y1202031D02*
G03X1191509I-2434J0D01*
G01Y1207543D02*
G03X1191509I-2434J0D01*
G01Y1213055D02*
G03X1191509I-2434J0D01*
G01Y1218567D02*
G03X1191509I-2434J0D01*
G01Y1224079D02*
G03X1191509I-2434J0D01*
G01Y1229591D02*
G03X1191509I-2434J0D01*
G01Y1235102D02*
G03X1191509I-2434J0D01*
G01Y1240614D02*
G03X1191509I-2434J0D01*
G01Y1246126D02*
G03X1191509I-2434J0D01*
G01Y1251638D02*
G03X1191509I-2434J0D01*
G01Y1257150D02*
G03X1191509I-2434J0D01*
G01Y1262661D02*
G03X1191509I-2434J0D01*
G01Y1268173D02*
G03X1191509I-2434J0D01*
G01Y1273685D02*
G03X1191509I-2434J0D01*
G01Y1279197D02*
G03X1191509I-2434J0D01*
G01X1184050Y1120000D02*
G03X1184050I-2050J0D01*
G01X1169050Y1115000D02*
G03X1169050I-2050J0D01*
G01X1175350Y1118783D02*
G03X1174950Y1120017I1650J1217D01*
G01X1171426Y1117969D02*
G03X1175350Y1118783I1874J831D01*
G01X1171474Y1119731D02*
G03X1171426Y1117969I-1874J-831D01*
G01X1174950Y1120017D02*
G03X1171474Y1119731I-1650J-1217D01*
G01X1183635Y1202425D02*
G03X1183635I-2434J0D01*
G01Y1207937D02*
G03X1183635I-2434J0D01*
G01Y1213449D02*
G03X1183635I-2434J0D01*
G01Y1218961D02*
G03X1183635I-2434J0D01*
G01Y1224472D02*
G03X1183635I-2434J0D01*
G01Y1229984D02*
G03X1183635I-2434J0D01*
G01Y1235496D02*
G03X1183635I-2434J0D01*
G01Y1241008D02*
G03X1183635I-2434J0D01*
G01Y1246520D02*
G03X1183635I-2434J0D01*
G01Y1252031D02*
G03X1183635I-2434J0D01*
G01Y1257543D02*
G03X1183635I-2434J0D01*
G01Y1263055D02*
G03X1183635I-2434J0D01*
G01Y1268567D02*
G03X1183635I-2434J0D01*
G01Y1274079D02*
G03X1183635I-2434J0D01*
G01Y1279591D02*
G03X1183635I-2434J0D01*
G01X1175761Y1202031D02*
G03X1175761I-2434J0D01*
G01Y1207543D02*
G03X1175761I-2434J0D01*
G01Y1213055D02*
G03X1175761I-2434J0D01*
G01Y1218567D02*
G03X1175761I-2434J0D01*
G01Y1224079D02*
G03X1175761I-2434J0D01*
G01Y1229591D02*
G03X1175761I-2434J0D01*
G01Y1235102D02*
G03X1175761I-2434J0D01*
G01Y1240614D02*
G03X1175761I-2434J0D01*
G01Y1246126D02*
G03X1175761I-2434J0D01*
G01Y1251638D02*
G03X1175761I-2434J0D01*
G01Y1257150D02*
G03X1175761I-2434J0D01*
G01Y1262661D02*
G03X1175761I-2434J0D01*
G01Y1268173D02*
G03X1175761I-2434J0D01*
G01Y1273685D02*
G03X1175761I-2434J0D01*
G01Y1279197D02*
G03X1175761I-2434J0D01*
G01X1180450Y1327000D02*
G03X1180450I-2450J0D01*
G01X1178461Y1400000D02*
G03X1176539I-961J3000D01*
X1178461I961J-3000*
G01X1187308Y1436174D02*
G03X1187308I-3450J0D01*
G01Y1446174D02*
G03X1187308I-3450J0D01*
G01X1177308Y1436174D02*
G03X1177308I-3450J0D01*
G01Y1446174D02*
G03X1177308I-3450J0D01*
G01X1163050Y1115000D02*
G03X1163050I-2050J0D01*
G01X1168535Y1205181D02*
G03X1167152Y1211706I-3082J2756D01*
G01X1162371Y1205181D02*
G03X1168535I3082J-2756D01*
G01X1163753Y1211706D02*
G03X1162371Y1205181I1700J-3769D01*
G01X1167152Y1211706D02*
G03X1163753I-1699J1743D01*
G01X1167887Y1218961D02*
G03X1167887I-2434J0D01*
G01Y1224472D02*
G03X1167887I-2434J0D01*
G01Y1229984D02*
G03X1167887I-2434J0D01*
G01Y1235496D02*
G03X1167887I-2434J0D01*
G01Y1241008D02*
G03X1167887I-2434J0D01*
G01Y1246520D02*
G03X1167887I-2434J0D01*
G01Y1252031D02*
G03X1167887I-2434J0D01*
G01Y1257543D02*
G03X1167887I-2434J0D01*
G01Y1263055D02*
G03X1167887I-2434J0D01*
G01Y1268567D02*
G03X1167887I-2434J0D01*
G01Y1274079D02*
G03X1167887I-2434J0D01*
G01Y1279591D02*
G03X1167887I-2434J0D01*
G01X1168450Y1327000D02*
G03X1168450I-2450J0D01*
G01X1166461Y1400000D02*
G03X1164539I-961J3000D01*
X1166461I961J-3000*
G01X1167308Y1436174D02*
G03X1167308I-3450J0D01*
G01Y1446174D02*
G03X1167308I-3450J0D01*
G01X1155250Y1169000D02*
G03X1155250I-3750J0D01*
G01X1160013Y1202031D02*
G03X1160013I-2434J0D01*
G01Y1207543D02*
G03X1160013I-2434J0D01*
G01Y1213055D02*
G03X1160013I-2434J0D01*
G01Y1218567D02*
G03X1160013I-2434J0D01*
G01Y1224079D02*
G03X1160013I-2434J0D01*
G01Y1229591D02*
G03X1160013I-2434J0D01*
G01Y1235102D02*
G03X1160013I-2434J0D01*
G01Y1240614D02*
G03X1160013I-2434J0D01*
G01Y1246126D02*
G03X1160013I-2434J0D01*
G01Y1251638D02*
G03X1160013I-2434J0D01*
G01Y1257150D02*
G03X1160013I-2434J0D01*
G01Y1262661D02*
G03X1160013I-2434J0D01*
G01Y1268173D02*
G03X1160013I-2434J0D01*
G01Y1273685D02*
G03X1160013I-2434J0D01*
G01Y1279197D02*
G03X1160013I-2434J0D01*
G01X1147308Y1011826D02*
G03X1147308I-3450J0D01*
G01Y1021826D02*
G03X1147308I-3450J0D01*
G01X1152139Y1202425D02*
G03X1152139I-2434J0D01*
G01Y1207937D02*
G03X1152139I-2434J0D01*
G01Y1213449D02*
G03X1152139I-2434J0D01*
G01Y1218961D02*
G03X1152139I-2434J0D01*
G01Y1224472D02*
G03X1152139I-2434J0D01*
G01Y1229984D02*
G03X1152139I-2434J0D01*
G01Y1235496D02*
G03X1152139I-2434J0D01*
G01Y1241008D02*
G03X1152139I-2434J0D01*
G01Y1246520D02*
G03X1152139I-2434J0D01*
G01Y1252031D02*
G03X1152139I-2434J0D01*
G01Y1257543D02*
G03X1152139I-2434J0D01*
G01Y1263055D02*
G03X1152139I-2434J0D01*
G01Y1268567D02*
G03X1152139I-2434J0D01*
G01Y1274079D02*
G03X1152139I-2434J0D01*
G01Y1279591D02*
G03X1152139I-2434J0D01*
G01X1155450Y1327000D02*
G03X1155450I-2450J0D01*
G01X1157308Y1436174D02*
G03X1157308I-3450J0D01*
G01Y1446174D02*
G03X1157308I-3450J0D01*
G01X1137308Y1011826D02*
G03X1137308I-3450J0D01*
G01Y1021826D02*
G03X1137308I-3450J0D01*
G01X1140050Y1102000D02*
G03X1140050I-2050J0D01*
G01X1144265Y1202031D02*
G03X1144265I-2434J0D01*
G01Y1207543D02*
G03X1144265I-2434J0D01*
G01Y1213055D02*
G03X1144265I-2434J0D01*
G01Y1218567D02*
G03X1144265I-2434J0D01*
G01Y1224079D02*
G03X1144265I-2434J0D01*
G01Y1229591D02*
G03X1144265I-2434J0D01*
G01Y1235102D02*
G03X1144265I-2434J0D01*
G01Y1240614D02*
G03X1144265I-2434J0D01*
G01Y1246126D02*
G03X1144265I-2434J0D01*
G01Y1251638D02*
G03X1144265I-2434J0D01*
G01Y1257150D02*
G03X1144265I-2434J0D01*
G01Y1262661D02*
G03X1144265I-2434J0D01*
G01Y1268173D02*
G03X1144265I-2434J0D01*
G01Y1273685D02*
G03X1144265I-2434J0D01*
G01Y1279197D02*
G03X1144265I-2434J0D01*
G01X1145450Y1327000D02*
G03X1145450I-2450J0D01*
G01X1147308Y1436174D02*
G03X1147308I-3450J0D01*
G01Y1446174D02*
G03X1147308I-3450J0D01*
G01X1127308Y1011826D02*
G03X1127308I-3450J0D01*
G01Y1021826D02*
G03X1127308I-3450J0D01*
G01X1131000Y1128550D02*
G03Y1129450I2000J450D01*
Y1128550I-2000J-450*
G01X1122000Y1134550D02*
G03Y1135450I2000J450D01*
Y1134550I-2000J-450*
G01X1127379Y1205181D02*
G03X1126279Y1211046I-1493J2756D01*
G01X1124393Y1205181D02*
G03X1127379I1493J-2756D01*
G01X1125493Y1211046D02*
G03X1124393Y1205181I393J-3109D01*
G01X1126279Y1211046D02*
G03X1125493I-393J2403D01*
G01X1128320Y1218960D02*
G03X1128320I-2434J0D01*
G01Y1224472D02*
G03X1128320I-2434J0D01*
G01Y1229984D02*
G03X1128320I-2434J0D01*
G01Y1235496D02*
G03X1128320I-2434J0D01*
G01Y1241008D02*
G03X1128320I-2434J0D01*
G01Y1246519D02*
G03X1128320I-2434J0D01*
G01Y1252031D02*
G03X1128320I-2434J0D01*
G01Y1257543D02*
G03X1128320I-2434J0D01*
G01Y1263055D02*
G03X1128320I-2434J0D01*
G01Y1268567D02*
G03X1128320I-2434J0D01*
G01Y1274079D02*
G03X1128320I-2434J0D01*
G01Y1279590D02*
G03X1128320I-2434J0D01*
G01X1126660Y1299238D02*
G03X1126740Y1300762I1940J662D01*
X1126660Y1299238I-1940J-662*
G01X1127450Y1309000D02*
G03X1126550I-450J2000D01*
X1127450I450J-2000*
G01Y1331000D02*
G03X1127450I-2450J0D01*
G01X1117308Y1011826D02*
G03X1117308I-3450J0D01*
G01Y1021826D02*
G03X1117308I-3450J0D01*
G01X1114000Y1140550D02*
G03Y1141450I2000J450D01*
Y1140550I-2000J-450*
G01X1119505Y1204787D02*
G03X1118405Y1210653I-1493J2756D01*
G01X1116519Y1204787D02*
G03X1119505I1493J-2756D01*
G01X1117619Y1210653D02*
G03X1116519Y1204787I393J-3110D01*
G01X1118405Y1210653D02*
G03X1117619I-393J2402D01*
G01X1120446Y1218567D02*
G03X1120446I-2434J0D01*
G01Y1224079D02*
G03X1120446I-2434J0D01*
G01Y1229590D02*
G03X1120446I-2434J0D01*
G01Y1235102D02*
G03X1120446I-2434J0D01*
G01Y1240614D02*
G03X1120446I-2434J0D01*
G01Y1246126D02*
G03X1120446I-2434J0D01*
G01Y1251638D02*
G03X1120446I-2434J0D01*
G01Y1257149D02*
G03X1120446I-2434J0D01*
G01Y1262661D02*
G03X1120446I-2434J0D01*
G01Y1268173D02*
G03X1120446I-2434J0D01*
G01Y1273685D02*
G03X1120446I-2434J0D01*
G01Y1279197D02*
G03X1120446I-2434J0D01*
G01X1119981Y1306800D02*
G03X1118019I-981J1800D01*
X1119981I981J-1800*
G01X1128008Y1436174D02*
G03X1128008I-4150J0D01*
G01Y1446174D02*
G03X1128008I-4150J0D01*
G01X1107308Y1011826D02*
G03X1107308I-3450J0D01*
G01Y1021826D02*
G03X1107308I-3450J0D01*
G01X1107000Y1147550D02*
G03Y1148450I2000J450D01*
Y1147550I-2000J-450*
G01X1112572Y1202425D02*
G03X1112572I-2434J0D01*
G01Y1207937D02*
G03X1112572I-2434J0D01*
G01Y1213449D02*
G03X1112572I-2434J0D01*
G01Y1218960D02*
G03X1112572I-2434J0D01*
G01Y1224472D02*
G03X1112572I-2434J0D01*
G01Y1229984D02*
G03X1112572I-2434J0D01*
G01Y1235496D02*
G03X1112572I-2434J0D01*
G01Y1241008D02*
G03X1112572I-2434J0D01*
G01Y1246519D02*
G03X1112572I-2434J0D01*
G01Y1252031D02*
G03X1112572I-2434J0D01*
G01Y1257543D02*
G03X1112572I-2434J0D01*
G01Y1263055D02*
G03X1112572I-2434J0D01*
G01Y1268567D02*
G03X1112572I-2434J0D01*
G01Y1274079D02*
G03X1112572I-2434J0D01*
G01Y1279590D02*
G03X1112572I-2434J0D01*
G01X1112450Y1299000D02*
G03X1111550I-450J2000D01*
X1112450I450J-2000*
G01X1115450Y1331000D02*
G03X1115450I-2450J0D01*
G01X1117308Y1436174D02*
G03X1117308I-3450J0D01*
G01Y1446174D02*
G03X1117308I-3450J0D01*
G01X1097308Y1011826D02*
G03X1097308I-3450J0D01*
G01Y1021826D02*
G03X1097308I-3450J0D01*
G01X1098000Y1151550D02*
G03Y1152450I2000J450D01*
Y1151550I-2000J-450*
G01X1104698Y1202031D02*
G03X1104698I-2434J0D01*
G01Y1207543D02*
G03X1104698I-2434J0D01*
G01Y1213055D02*
G03X1104698I-2434J0D01*
G01Y1218567D02*
G03X1104698I-2434J0D01*
G01Y1224079D02*
G03X1104698I-2434J0D01*
G01Y1229590D02*
G03X1104698I-2434J0D01*
G01Y1235102D02*
G03X1104698I-2434J0D01*
G01Y1240614D02*
G03X1104698I-2434J0D01*
G01Y1246126D02*
G03X1104698I-2434J0D01*
G01Y1251638D02*
G03X1104698I-2434J0D01*
G01Y1257149D02*
G03X1104698I-2434J0D01*
G01Y1262661D02*
G03X1104698I-2434J0D01*
G01Y1268173D02*
G03X1104698I-2434J0D01*
G01Y1273685D02*
G03X1104698I-2434J0D01*
G01Y1279197D02*
G03X1104698I-2434J0D01*
G01X1104450Y1294000D02*
G03X1103550I-450J2000D01*
X1104450I450J-2000*
G01X1105450Y1327000D02*
G03X1105450I-2450J0D01*
G01X1103961Y1400500D02*
G03X1102039I-961J3000D01*
X1103961I961J-3000*
G01X1107308Y1436174D02*
G03X1107308I-3450J0D01*
G01Y1446174D02*
G03X1107308I-3450J0D01*
G01X1087308Y1011826D02*
G03X1087308I-3450J0D01*
G01Y1021826D02*
G03X1087308I-3450J0D01*
G01X1091000Y1158550D02*
G03Y1159450I2000J450D01*
Y1158550I-2000J-450*
G01X1096824Y1202425D02*
G03X1096824I-2434J0D01*
G01Y1207937D02*
G03X1096824I-2434J0D01*
G01Y1213449D02*
G03X1096824I-2434J0D01*
G01Y1218960D02*
G03X1096824I-2434J0D01*
G01Y1224472D02*
G03X1096824I-2434J0D01*
G01Y1229984D02*
G03X1096824I-2434J0D01*
G01Y1235496D02*
G03X1096824I-2434J0D01*
G01Y1241008D02*
G03X1096824I-2434J0D01*
G01Y1246519D02*
G03X1096824I-2434J0D01*
G01Y1252031D02*
G03X1096824I-2434J0D01*
G01Y1257543D02*
G03X1096824I-2434J0D01*
G01Y1263055D02*
G03X1096824I-2434J0D01*
G01Y1268567D02*
G03X1096824I-2434J0D01*
G01Y1274079D02*
G03X1096824I-2434J0D01*
G01Y1279590D02*
G03X1096824I-2434J0D01*
G01X1098250Y1293700D02*
G03X1098250I-2050J0D01*
G01X1088009Y1204787D02*
G03X1086909Y1210653I-1493J2756D01*
G01X1085023Y1204787D02*
G03X1088009I1493J-2756D01*
G01X1086123Y1210653D02*
G03X1085023Y1204787I393J-3110D01*
G01X1086909Y1210653D02*
G03X1086123I-393J2402D01*
G01X1093450Y1293500D02*
G03X1093450I-2050J0D01*
G01X1088950Y1218567D02*
G03X1088950I-2434J0D01*
G01Y1224079D02*
G03X1088950I-2434J0D01*
G01Y1229590D02*
G03X1088950I-2434J0D01*
G01Y1235102D02*
G03X1088950I-2434J0D01*
G01Y1240614D02*
G03X1088950I-2434J0D01*
G01Y1246126D02*
G03X1088950I-2434J0D01*
G01Y1251638D02*
G03X1088950I-2434J0D01*
G01Y1257149D02*
G03X1088950I-2434J0D01*
G01Y1262661D02*
G03X1088950I-2434J0D01*
G01Y1268173D02*
G03X1088950I-2434J0D01*
G01Y1273685D02*
G03X1088950I-2434J0D01*
G01Y1279197D02*
G03X1088950I-2434J0D01*
G01X1091450Y1327000D02*
G03X1091450I-2450J0D01*
G01X1089961Y1400500D02*
G03X1088039I-961J3000D01*
X1089961I961J-3000*
G01X1097308Y1436174D02*
G03X1097308I-3450J0D01*
G01Y1446174D02*
G03X1097308I-3450J0D01*
G01X1077308Y1011826D02*
G03X1077308I-3450J0D01*
G01Y1021826D02*
G03X1077308I-3450J0D01*
G01X1080135Y1205181D02*
G03X1079035Y1211046I-1493J2756D01*
G01X1077149Y1205181D02*
G03X1080135I1493J-2756D01*
G01X1078249Y1211046D02*
G03X1077149Y1205181I393J-3109D01*
G01X1079035Y1211046D02*
G03X1078249I-393J2403D01*
G01X1081076Y1218960D02*
G03X1081076I-2434J0D01*
G01Y1224472D02*
G03X1081076I-2434J0D01*
G01Y1229984D02*
G03X1081076I-2434J0D01*
G01Y1235496D02*
G03X1081076I-2434J0D01*
G01Y1241008D02*
G03X1081076I-2434J0D01*
G01Y1246519D02*
G03X1081076I-2434J0D01*
G01Y1252031D02*
G03X1081076I-2434J0D01*
G01Y1257543D02*
G03X1081076I-2434J0D01*
G01Y1263055D02*
G03X1081076I-2434J0D01*
G01Y1268567D02*
G03X1081076I-2434J0D01*
G01Y1274079D02*
G03X1081076I-2434J0D01*
G01Y1279590D02*
G03X1081076I-2434J0D01*
G01X1087308Y1436174D02*
G03X1087308I-3450J0D01*
G01Y1446174D02*
G03X1087308I-3450J0D01*
G01X1072261Y1204787D02*
G03X1071161Y1210653I-1493J2756D01*
G01X1069275Y1204787D02*
G03X1072261I1493J-2756D01*
G01X1070375Y1210653D02*
G03X1069275Y1204787I393J-3110D01*
G01X1071161Y1210653D02*
G03X1070375I-393J2402D01*
G01X1073202Y1218567D02*
G03X1073202I-2434J0D01*
G01Y1224079D02*
G03X1073202I-2434J0D01*
G01Y1229590D02*
G03X1073202I-2434J0D01*
G01Y1235102D02*
G03X1073202I-2434J0D01*
G01Y1240614D02*
G03X1073202I-2434J0D01*
G01Y1246126D02*
G03X1073202I-2434J0D01*
G01Y1251638D02*
G03X1073202I-2434J0D01*
G01Y1257149D02*
G03X1073202I-2434J0D01*
G01Y1262661D02*
G03X1073202I-2434J0D01*
G01Y1268173D02*
G03X1073202I-2434J0D01*
G01Y1273685D02*
G03X1073202I-2434J0D01*
G01Y1279197D02*
G03X1073202I-2434J0D01*
G01X1075450Y1317400D02*
G03X1075450I-2050J0D01*
G01X1072850Y1326600D02*
G03X1072850I-2050J0D01*
G01X1067308Y1011826D02*
G03X1067308I-3450J0D01*
G01Y1021826D02*
G03X1067308I-3450J0D01*
G01X1064387Y1221716D02*
G03X1063287Y1227582I-1493J2756D01*
G01X1064387Y1216205D02*
G03Y1221716I-1493J2755D01*
G01Y1210693D02*
G03Y1216205I-1493J2756D01*
G01Y1205181D02*
G03Y1210693I-1493J2756D01*
G01X1061401Y1205181D02*
G03X1064387I1493J-2756D01*
G01X1061401Y1210693D02*
G03Y1205181I1493J-2756D01*
G01Y1216205D02*
G03Y1210693I1493J-2756D01*
G01Y1221716D02*
G03Y1216205I1493J-2756D01*
G01X1062501Y1227582D02*
G03X1061401Y1221716I393J-3110D01*
G01X1063287Y1227582D02*
G03X1062501I-393J2402D01*
G01X1064387Y1243764D02*
G03X1063287Y1249629I-1493J2755D01*
G01Y1237898D02*
G03X1064387Y1243764I-393J3110D01*
G01X1062501Y1237898D02*
G03X1063287I393J-2402D01*
G01X1061401Y1243764D02*
G03X1062501Y1237898I1493J-2756D01*
G01Y1249629D02*
G03X1061401Y1243764I393J-3110D01*
G01X1063287Y1249629D02*
G03X1062501I-393J2402D01*
G01X1065328Y1257543D02*
G03X1065328I-2434J0D01*
G01Y1263055D02*
G03X1065328I-2434J0D01*
G01Y1268567D02*
G03X1065328I-2434J0D01*
G01Y1274079D02*
G03X1065328I-2434J0D01*
G01Y1279590D02*
G03X1065328I-2434J0D01*
G01X1056513Y1221323D02*
G03X1055413Y1227188I-1493J2756D01*
G01X1056513Y1215811D02*
G03Y1221323I-1493J2756D01*
G01Y1210299D02*
G03Y1215811I-1493J2756D01*
G01Y1204787D02*
G03Y1210299I-1493J2756D01*
G01X1053527Y1204787D02*
G03X1056513I1493J-2756D01*
G01X1053527Y1210299D02*
G03Y1204787I1493J-2756D01*
G01Y1215811D02*
G03Y1210299I1493J-2756D01*
G01Y1221323D02*
G03Y1215811I1493J-2756D01*
G01X1054627Y1227188D02*
G03X1053527Y1221323I393J-3109D01*
G01X1055413Y1227188D02*
G03X1054627I-393J2402D01*
G01X1056513Y1243370D02*
G03X1055413Y1249235I-1493J2756D01*
G01Y1237504D02*
G03X1056513Y1243370I-393J3110D01*
G01X1054627Y1237504D02*
G03X1055413I393J-2402D01*
G01X1053527Y1243370D02*
G03X1054627Y1237504I1493J-2756D01*
G01Y1249235D02*
G03X1053527Y1243370I393J-3109D01*
G01X1055413Y1249235D02*
G03X1054627I-393J2403D01*
G01X1057454Y1257149D02*
G03X1057454I-2434J0D01*
G01Y1262661D02*
G03X1057454I-2434J0D01*
G01Y1268173D02*
G03X1057454I-2434J0D01*
G01Y1273685D02*
G03X1057454I-2434J0D01*
G01Y1279197D02*
G03X1057454I-2434J0D01*
G01X1059150Y1344500D02*
G03X1059150I-3150J0D01*
G01X1040250Y1322700D02*
G03X1040250I-2050J0D01*
G01X1045339Y1342368D02*
G03X1041861Y1345232I-339J3132D01*
X1045339Y1342368I339J-3132*
G01X1023650Y1230000D02*
G03X1023650I-3150J0D01*
G01X1023150Y1246000D02*
G03X1023150I-3150J0D01*
G01Y1264500D02*
G03X1023150I-3150J0D01*
G01X1022650Y1271500D02*
G03X1022650I-3150J0D01*
G01X1013500Y1373499D02*
X1253672D01*
X1013500Y1372599D02*
X1253672D01*
X1013500Y1371699D02*
X1253672D01*
X1013500Y1370799D02*
X1253672D01*
X1013500Y1369899D02*
X1253672D01*
X1013500Y1368999D02*
X1253672D01*
X1013500Y1368099D02*
X1253672D01*
X1013500Y1367199D02*
X1253672D01*
X1013500Y1366299D02*
X1253672D01*
X1013500Y1365399D02*
X1253672D01*
X1013500Y1364499D02*
X1253672D01*
X1013500Y1363599D02*
X1253672D01*
X1013500Y1362699D02*
X1253672D01*
X1013500Y1361799D02*
X1253672D01*
X1013500Y1360899D02*
X1253672D01*
X1013500Y1359999D02*
X1253672D01*
X1013500Y1359099D02*
X1253672D01*
X1013500Y1358199D02*
X1253672D01*
X1013500Y1357299D02*
X1253672D01*
X1013500Y1356399D02*
X1253672D01*
X1013500Y1355499D02*
X1253672D01*
X1013500Y1354599D02*
X1253672D01*
X1013500Y1353699D02*
X1253672D01*
X1013500Y1352799D02*
X1253672D01*
X1013500Y1374399D02*
X1252994D01*
X1013500Y1351899D02*
X1252792D01*
X1013506Y1375299D02*
X1252094D01*
X1013500Y1350999D02*
X1251892D01*
X1014406Y1376199D02*
X1251194D01*
X1013500Y1350099D02*
X1250992D01*
X1015306Y1377099D02*
X1250294D01*
X1013500Y1349199D02*
X1250092D01*
X1016206Y1377999D02*
X1249394D01*
X1046446Y1348299D02*
X1249192D01*
X1017106Y1378899D02*
X1248494D01*
X1057233Y1347399D02*
X1248292D01*
X1018006Y1379799D02*
X1247594D01*
X1058435Y1346499D02*
X1247392D01*
X1018906Y1380699D02*
X1246694D01*
X1058952Y1345599D02*
X1246492D01*
X1213914Y1281699D02*
X1246000D01*
X1214810Y1280799D02*
X1246000D01*
X1215112Y1279899D02*
X1246000D01*
X1215058Y1278999D02*
X1246000D01*
X1214620Y1278099D02*
X1246000D01*
X1213149Y1277199D02*
X1246000D01*
X1214909Y1276299D02*
X1246000D01*
X1215540Y1275399D02*
X1246000D01*
X1215803Y1274499D02*
X1246000D01*
X1215794Y1273599D02*
X1246000D01*
X1215511Y1272699D02*
X1246000D01*
X1214847Y1271799D02*
X1246000D01*
X1214791Y1270899D02*
X1246000D01*
X1215485Y1269999D02*
X1246000D01*
X1215786Y1269099D02*
X1246000D01*
X1215809Y1268199D02*
X1246000D01*
X1215563Y1267299D02*
X1246000D01*
X1214960Y1266399D02*
X1246000D01*
X1213337Y1265499D02*
X1246000D01*
X1214579Y1264599D02*
X1246000D01*
X1215045Y1263699D02*
X1246000D01*
X1215118Y1262799D02*
X1246000D01*
X1214839Y1261899D02*
X1246000D01*
X1213999Y1260999D02*
X1246000D01*
X1013500Y1260099D02*
X1246000D01*
X1214482Y1259199D02*
X1246000D01*
X1215011Y1258299D02*
X1246000D01*
X1215127Y1257399D02*
X1246000D01*
X1214896Y1256499D02*
X1246000D01*
X1214161Y1255599D02*
X1246000D01*
X1013500Y1254699D02*
X1246000D01*
X1214371Y1253799D02*
X1246000D01*
X1214971Y1252899D02*
X1246000D01*
X1215131Y1251999D02*
X1246000D01*
X1214945Y1251099D02*
X1246000D01*
X1214299Y1250199D02*
X1246000D01*
X1205497Y1249299D02*
X1246000D01*
X1214244Y1248399D02*
X1246000D01*
X1214926Y1247499D02*
X1246000D01*
X1215130Y1246599D02*
X1246000D01*
X1214988Y1245699D02*
X1246000D01*
X1214418Y1244799D02*
X1246000D01*
X1205805Y1243899D02*
X1246000D01*
X1214098Y1242999D02*
X1246000D01*
X1214873Y1242099D02*
X1246000D01*
X1215124Y1241199D02*
X1246000D01*
X1215026Y1240299D02*
X1246000D01*
X1214523Y1239399D02*
X1246000D01*
X1206027Y1238499D02*
X1246000D01*
X1213923Y1237599D02*
X1246000D01*
X1214813Y1236699D02*
X1246000D01*
X1215112Y1235799D02*
X1246000D01*
X1215057Y1234899D02*
X1246000D01*
X1214616Y1233999D02*
X1246000D01*
X1213119Y1233099D02*
X1246000D01*
X1213708Y1232199D02*
X1246000D01*
X1214746Y1231299D02*
X1246000D01*
X1215096Y1230399D02*
X1246000D01*
X1215082Y1229499D02*
X1246000D01*
X1214698Y1228599D02*
X1246000D01*
X1213535Y1227699D02*
X1246000D01*
X1213414Y1226799D02*
X1246000D01*
X1214670Y1225899D02*
X1246000D01*
X1215074Y1224999D02*
X1246000D01*
X1215102Y1224099D02*
X1246000D01*
X1214771Y1223199D02*
X1246000D01*
X1213793Y1222299D02*
X1246000D01*
X1064863Y1221399D02*
X1246000D01*
X1214584Y1220499D02*
X1246000D01*
X1215046Y1219599D02*
X1246000D01*
X1215117Y1218699D02*
X1246000D01*
X1214836Y1217799D02*
X1246000D01*
X1213991Y1216899D02*
X1246000D01*
X1064716Y1215999D02*
X1246000D01*
X1214487Y1215099D02*
X1246000D01*
X1215013Y1214199D02*
X1246000D01*
X1215126Y1213299D02*
X1246000D01*
X1214893Y1212399D02*
X1246000D01*
X1214154Y1211499D02*
X1246000D01*
X1168616Y1210599D02*
X1246000D01*
X1214377Y1209699D02*
X1246000D01*
X1214974Y1208799D02*
X1246000D01*
X1215131Y1207899D02*
X1246000D01*
X1214943Y1206999D02*
X1246000D01*
X1214293Y1206099D02*
X1246000D01*
X1205477Y1205199D02*
X1246000D01*
X1214251Y1204299D02*
X1246000D01*
X1214928Y1203399D02*
X1246000D01*
X1215130Y1202499D02*
X1246000D01*
X1214987Y1201599D02*
X1246000D01*
X1214413Y1200699D02*
X1246000D01*
X1205793Y1199799D02*
X1246000D01*
X1167611Y1198899D02*
X1246000D01*
X1035708Y1197999D02*
X1246000D01*
X1036608Y1197099D02*
X1246000D01*
X1037508Y1196199D02*
X1246000D01*
X1038408Y1195299D02*
X1246000D01*
X1039308Y1194399D02*
X1246000D01*
X1040208Y1193499D02*
X1246000D01*
X1041108Y1192599D02*
X1246000D01*
X1042008Y1191699D02*
X1246000D01*
X1042908Y1190799D02*
X1246000D01*
X1043808Y1189899D02*
X1246000D01*
X1044708Y1188999D02*
X1246000D01*
X1045608Y1188099D02*
X1246000D01*
X1046508Y1187199D02*
X1246000D01*
X1051908Y1186299D02*
X1246000D01*
X1052808Y1185399D02*
X1246000D01*
X1053708Y1184499D02*
X1246000D01*
X1054608Y1183599D02*
X1246000D01*
X1055508Y1182699D02*
X1246000D01*
X1056408Y1181799D02*
X1246000D01*
X1057308Y1180899D02*
X1246000D01*
X1058208Y1179999D02*
X1246000D01*
X1059108Y1179099D02*
X1246000D01*
X1060008Y1178199D02*
X1246000D01*
X1060908Y1177299D02*
X1246000D01*
X1061808Y1176399D02*
X1246000D01*
X1062708Y1175499D02*
X1246000D01*
X1063100Y1174599D02*
X1246000D01*
X1063100Y1173699D02*
X1246000D01*
X1063100Y1172799D02*
X1246000D01*
X1153879Y1171899D02*
X1246000D01*
X1154673Y1170999D02*
X1246000D01*
X1155085Y1170099D02*
X1246000D01*
X1155245Y1169199D02*
X1246000D01*
X1155184Y1168299D02*
X1246000D01*
X1154891Y1167399D02*
X1246000D01*
X1154294Y1166499D02*
X1246000D01*
X1153079Y1165599D02*
X1246000D01*
X1063100Y1164699D02*
X1246000D01*
X1063100Y1163799D02*
X1246000D01*
X1063100Y1162899D02*
X1246000D01*
X1063100Y1161999D02*
X1246000D01*
X1063100Y1161099D02*
X1246000D01*
X1094663Y1160199D02*
X1246000D01*
X1095028Y1159299D02*
X1246000D01*
X1094960Y1158399D02*
X1246000D01*
X1094396Y1157499D02*
X1246000D01*
X1063100Y1156599D02*
X1246000D01*
X1063100Y1155699D02*
X1246000D01*
X1063100Y1154799D02*
X1246000D01*
X1100773Y1153899D02*
X1246000D01*
X1101790Y1152999D02*
X1246000D01*
X1102048Y1152099D02*
X1246000D01*
X1101887Y1151199D02*
X1246000D01*
X1101144Y1150299D02*
X1246000D01*
X1110499Y1149399D02*
X1246000D01*
X1110988Y1148499D02*
X1246000D01*
X1111010Y1147599D02*
X1246000D01*
X1110584Y1146699D02*
X1246000D01*
X1057106Y1145799D02*
X1246000D01*
X1056206Y1144899D02*
X1246000D01*
X1055306Y1143999D02*
X1246000D01*
X1054406Y1143099D02*
X1246000D01*
X1117663Y1142199D02*
X1246000D01*
X1118028Y1141299D02*
X1246000D01*
X1117960Y1140399D02*
X1246000D01*
X1117396Y1139499D02*
X1246000D01*
X1049906Y1138599D02*
X1246000D01*
X1049006Y1137699D02*
X1246000D01*
X1124984Y1136799D02*
X1246000D01*
X1125843Y1135899D02*
X1246000D01*
X1126050Y1134999D02*
X1246000D01*
X1125841Y1134099D02*
X1246000D01*
X1124979Y1133199D02*
X1246000D01*
X1023881Y1132299D02*
X1246000D01*
X1022981Y1131399D02*
X1246000D01*
X1134399Y1130499D02*
X1246000D01*
X1134961Y1129599D02*
X1246000D01*
X1135028Y1128699D02*
X1246000D01*
X1134661Y1127799D02*
X1246000D01*
X1194773Y1126899D02*
X1246000D01*
X1195790Y1125999D02*
X1246000D01*
X1196048Y1125099D02*
X1246000D01*
X1195887Y1124199D02*
X1246000D01*
X1195144Y1123299D02*
X1246000D01*
X1015000Y1122399D02*
X1246000D01*
X1183399Y1121499D02*
X1246000D01*
X1183961Y1120599D02*
X1246000D01*
X1184028Y1119699D02*
X1246000D01*
X1183661Y1118799D02*
X1246000D01*
X1175141Y1117899D02*
X1246000D01*
X1174279Y1116999D02*
X1246000D01*
X1168731Y1116099D02*
X1246000D01*
X1169040Y1115199D02*
X1246000D01*
X1168926Y1114299D02*
X1246000D01*
X1168280Y1113399D02*
X1246000D01*
X1015000Y1112499D02*
X1246000D01*
X1015000Y1111599D02*
X1246000D01*
X1015000Y1110699D02*
X1246000D01*
X1015000Y1109799D02*
X1246000D01*
X1015000Y1108899D02*
X1246000D01*
X1015000Y1107999D02*
X1246000D01*
X1015000Y1107099D02*
X1246000D01*
X1015000Y1106199D02*
X1246000D01*
X1015000Y1105299D02*
X1246000D01*
X1015000Y1104399D02*
X1246000D01*
X1139399Y1103499D02*
X1246000D01*
X1139961Y1102599D02*
X1246000D01*
X1140028Y1101699D02*
X1246000D01*
X1139661Y1100799D02*
X1246000D01*
X1015000Y1099899D02*
X1246000D01*
X1015000Y1098999D02*
X1246000D01*
X1015000Y1098099D02*
X1246000D01*
X1015000Y1097199D02*
X1246000D01*
X1176733Y1096299D02*
X1246000D01*
X1179339Y1095399D02*
X1246000D01*
X1181077Y1094499D02*
X1246000D01*
X1182427Y1093599D02*
X1246000D01*
X1183536Y1092699D02*
X1246000D01*
X1184471Y1091799D02*
X1246000D01*
X1185273Y1090899D02*
X1246000D01*
X1185966Y1089999D02*
X1246000D01*
X1186565Y1089099D02*
X1246000D01*
X1187084Y1088199D02*
X1246000D01*
X1187529Y1087299D02*
X1246000D01*
X1187908Y1086399D02*
X1246000D01*
X1188225Y1085499D02*
X1246000D01*
X1188485Y1084599D02*
X1246000D01*
X1188690Y1083699D02*
X1246000D01*
X1188842Y1082799D02*
X1246000D01*
X1234752Y1381599D02*
X1245794D01*
X1188942Y1081899D02*
X1245692D01*
X1059144Y1344699D02*
X1245592D01*
X1013500Y1282599D02*
X1245194D01*
X1236453Y1382499D02*
X1244894D01*
X1188992Y1080999D02*
X1244792D01*
X1059071Y1343799D02*
X1244692D01*
X1013500Y1283499D02*
X1244294D01*
X1237069Y1383399D02*
X1243994D01*
X1188992Y1080099D02*
X1243892D01*
X1013500Y1284399D02*
X1243394D01*
X1237324Y1384299D02*
X1243094D01*
X1188942Y1079199D02*
X1242992D01*
X1013500Y1285299D02*
X1242494D01*
X1237310Y1385199D02*
X1242194D01*
X1188842Y1078299D02*
X1242092D01*
X1013500Y1286199D02*
X1241594D01*
X1237022Y1386099D02*
X1241294D01*
X1188691Y1077399D02*
X1241192D01*
X1013500Y1287099D02*
X1240694D01*
X1236354Y1386999D02*
X1240394D01*
X1188486Y1076499D02*
X1240292D01*
X1013500Y1287999D02*
X1239794D01*
X1231372Y1387899D02*
X1239494D01*
X1188227Y1075599D02*
X1239392D01*
X1013500Y1288899D02*
X1238894D01*
X1231014Y1388799D02*
X1238594D01*
X1187910Y1074699D02*
X1238492D01*
X1013500Y1289799D02*
X1237994D01*
X1230218Y1389699D02*
X1237694D01*
X1187531Y1073799D02*
X1237592D01*
X1105584Y1290699D02*
X1237094D01*
X1028806Y1390599D02*
X1236794D01*
X1187086Y1072899D02*
X1236692D01*
X1029706Y1391499D02*
X1235894D01*
X1186568Y1071999D02*
X1235792D01*
X1222176Y1392399D02*
X1234994D01*
X1185969Y1071099D02*
X1234892D01*
X1223051Y1393299D02*
X1234094D01*
X1185277Y1070199D02*
X1233992D01*
X1019806Y1381599D02*
X1233648D01*
X1223446Y1394199D02*
X1233194D01*
X1184476Y1069299D02*
X1233092D01*
X1223548Y1395099D02*
X1232294D01*
X1183541Y1068399D02*
X1232192D01*
X1231444Y1386999D02*
X1232046D01*
X1020706Y1382499D02*
X1231947D01*
X1223388Y1395999D02*
X1231394D01*
X1231251Y1386099D02*
X1231378D01*
X1021606Y1383399D02*
X1231331D01*
X1182433Y1067499D02*
X1231292D01*
X1230733Y1385199D02*
X1231090D01*
X1229527Y1384299D02*
X1231076D01*
X1222913Y1396899D02*
X1230494D01*
X1181085Y1066599D02*
X1230392D01*
X1221846Y1397799D02*
X1229580D01*
X1179349Y1065699D02*
X1229492D01*
X1180153Y1398699D02*
X1228680D01*
X1176752Y1064799D02*
X1228592D01*
X1179280Y1399599D02*
X1227780D01*
X1004500Y1063899D02*
X1227692D01*
X1022506Y1384299D02*
X1227073D01*
X1179415Y1400499D02*
X1226880D01*
X1004500Y1062999D02*
X1226792D01*
X1027906Y1389699D02*
X1226382D01*
X1180213Y1401399D02*
X1225980D01*
X1004500Y1062099D02*
X1225892D01*
X1023406Y1385199D02*
X1225867D01*
X1027006Y1388799D02*
X1225586D01*
X1024306Y1386099D02*
X1225349D01*
X1026106Y1387899D02*
X1225228D01*
X1025206Y1386999D02*
X1225156D01*
X1202644Y1402299D02*
X1225080D01*
X1004500Y1061199D02*
X1224992D01*
X1219896Y1403199D02*
X1224180D01*
X1004500Y1060299D02*
X1224092D01*
X1220388Y1404099D02*
X1223280D01*
X1004500Y1059399D02*
X1223192D01*
X1220411Y1404999D02*
X1222380D01*
X1004500Y1058499D02*
X1222292D01*
X1219986Y1405899D02*
X1221480D01*
X1004500Y1057599D02*
X1221392D01*
X1106010Y1291599D02*
X1220594D01*
X1045006Y1406799D02*
X1220580D01*
X1004500Y1056699D02*
X1219992D01*
X1105988Y1292499D02*
X1219694D01*
X1045906Y1407699D02*
X1219680D01*
X1004500Y1055799D02*
X1219092D01*
X1180547Y1397799D02*
X1218954D01*
X1105499Y1293399D02*
X1218794D01*
X1046806Y1408599D02*
X1218780D01*
X1030606Y1392399D02*
X1218624D01*
X1004500Y1054899D02*
X1218192D01*
X1105144Y1294299D02*
X1217894D01*
X1180648Y1396899D02*
X1217887D01*
X1047706Y1409499D02*
X1217880D01*
X1031506Y1393299D02*
X1217749D01*
X1180487Y1395999D02*
X1217412D01*
X1178941Y1394199D02*
X1217354D01*
X1004500Y1053999D02*
X1217292D01*
X1180012Y1395099D02*
X1217252D01*
X1112979Y1295199D02*
X1216994D01*
X1048606Y1410399D02*
X1216980D01*
X1203387Y1403199D02*
X1216904D01*
X1202273Y1405899D02*
X1216814D01*
X1203548Y1404099D02*
X1216412D01*
X1004500Y1053099D02*
X1216392D01*
X1203290Y1404999D02*
X1216389D01*
X1113841Y1296099D02*
X1216094D01*
X1049506Y1411299D02*
X1216080D01*
X1004500Y1052199D02*
X1215492D01*
X1114050Y1296999D02*
X1215194D01*
X1050406Y1412199D02*
X1215180D01*
X1058713Y1342899D02*
X1214792D01*
X1004500Y1051299D02*
X1214592D01*
X1129044Y1297899D02*
X1214294D01*
X1051306Y1413099D02*
X1214280D01*
X1057915Y1341999D02*
X1213892D01*
X1004500Y1050399D02*
X1213692D01*
X1130329Y1298799D02*
X1213394D01*
X1052206Y1413999D02*
X1213380D01*
X1045187Y1341099D02*
X1212992D01*
X1004500Y1049499D02*
X1212792D01*
X1130640Y1299699D02*
X1212494D01*
X1053106Y1414899D02*
X1212480D01*
X1206205Y1233099D02*
X1212275D01*
X1206213Y1277199D02*
X1212244D01*
X1044712Y1340199D02*
X1212092D01*
X1206457Y1265499D02*
X1212057D01*
X1197666Y1226799D02*
X1211980D01*
X1004500Y1048599D02*
X1211892D01*
X1206355Y1227699D02*
X1211859D01*
X1197960Y1232199D02*
X1211686D01*
X1206483Y1222299D02*
X1211601D01*
X1130527Y1300599D02*
X1211594D01*
X1054006Y1415799D02*
X1211580D01*
X1198166Y1281699D02*
X1211480D01*
X1198175Y1237599D02*
X1211470D01*
X1206596Y1216899D02*
X1211403D01*
X1206601Y1260999D02*
X1211394D01*
X1205313Y1242999D02*
X1211296D01*
X1206695Y1211499D02*
X1211240D01*
X1206699Y1255599D02*
X1211233D01*
X1043641Y1339299D02*
X1211192D01*
X1205695Y1248399D02*
X1211149D01*
X1205709Y1204299D02*
X1211143D01*
X1206782Y1206099D02*
X1211101D01*
X1206786Y1250199D02*
X1211095D01*
X1205944Y1253799D02*
X1211023D01*
X1205954Y1209699D02*
X1211017D01*
X1024117Y1047699D02*
X1210992D01*
X1206860Y1200699D02*
X1210981D01*
X1206863Y1244799D02*
X1210975D01*
X1206137Y1259199D02*
X1210912D01*
X1206146Y1215099D02*
X1210907D01*
X1206932Y1239399D02*
X1210870D01*
X1206297Y1264599D02*
X1210815D01*
X1206304Y1220499D02*
X1210810D01*
X1206993Y1233999D02*
X1210778D01*
X1206995Y1278099D02*
X1210773D01*
X1206439Y1225899D02*
X1210724D01*
X1207046Y1228599D02*
X1210695D01*
X1129883Y1301499D02*
X1210694D01*
X1054906Y1416699D02*
X1210680D01*
X1206557Y1231299D02*
X1210648D01*
X1207092Y1223199D02*
X1210622D01*
X1206371Y1270899D02*
X1210602D01*
X1206656Y1280799D02*
X1210584D01*
X1206661Y1236699D02*
X1210580D01*
X1207133Y1217799D02*
X1210558D01*
X1207135Y1261899D02*
X1210555D01*
X1207326Y1271799D02*
X1210546D01*
X1206752Y1242099D02*
X1210521D01*
X1207167Y1212399D02*
X1210501D01*
X1207168Y1256499D02*
X1210498D01*
X1206553Y1276299D02*
X1210484D01*
X1206833Y1247499D02*
X1210468D01*
X1206837Y1203399D02*
X1210466D01*
X1207195Y1206999D02*
X1210451D01*
X1207197Y1251099D02*
X1210448D01*
X1207406Y1266399D02*
X1210434D01*
X1206905Y1252899D02*
X1210422D01*
X1206908Y1208799D02*
X1210420D01*
X1207218Y1201599D02*
X1210407D01*
X1207219Y1245699D02*
X1210405D01*
X1206969Y1258299D02*
X1210383D01*
X1206972Y1214199D02*
X1210381D01*
X1207237Y1240299D02*
X1210368D01*
X1207025Y1263699D02*
X1210349D01*
X1207028Y1219599D02*
X1210348D01*
X1207249Y1234899D02*
X1210337D01*
X1207249Y1278999D02*
X1210336D01*
X1207077Y1224999D02*
X1210320D01*
X1207255Y1229499D02*
X1210311D01*
X1207119Y1230399D02*
X1210298D01*
X1013500Y1338399D02*
X1210292D01*
X1207257Y1224099D02*
X1210291D01*
X1207154Y1279899D02*
X1210282D01*
X1207155Y1235799D02*
X1210281D01*
X1207254Y1218699D02*
X1210277D01*
X1207253Y1262799D02*
X1210276D01*
X1207186Y1241199D02*
X1210270D01*
X1207245Y1213299D02*
X1210267D01*
X1207244Y1257399D02*
X1210267D01*
X1207211Y1246599D02*
X1210264D01*
X1207212Y1202499D02*
X1210264D01*
X1207231Y1207899D02*
X1210263D01*
X1207230Y1251999D02*
X1210263D01*
X1028874Y1046799D02*
X1210092D01*
X1207371Y1269999D02*
X1209909D01*
X1207798Y1272699D02*
X1209883D01*
X1207447Y1275399D02*
X1209854D01*
X1207833Y1267299D02*
X1209831D01*
X1113499Y1302399D02*
X1209794D01*
X1055806Y1417599D02*
X1209780D01*
X1207817Y1269099D02*
X1209608D01*
X1207956Y1273599D02*
X1209600D01*
X1207850Y1274499D02*
X1209591D01*
X1207957Y1268199D02*
X1209584D01*
X1013500Y1337499D02*
X1209392D01*
X1031481Y1045899D02*
X1209192D01*
X1120144Y1303299D02*
X1208894D01*
X1056706Y1418499D02*
X1208880D01*
X1013500Y1336599D02*
X1208492D01*
X1033460Y1044999D02*
X1208292D01*
X1120887Y1304199D02*
X1207994D01*
X1057606Y1419399D02*
X1207980D01*
X1013500Y1335699D02*
X1207592D01*
X1035093Y1044099D02*
X1207392D01*
X1127767Y1305099D02*
X1207094D01*
X1058506Y1420299D02*
X1207080D01*
X1013500Y1334799D02*
X1206692D01*
X1036492Y1043199D02*
X1206492D01*
X1128789Y1305999D02*
X1206194D01*
X1059406Y1421199D02*
X1206180D01*
X1013500Y1333899D02*
X1205792D01*
X1037721Y1042299D02*
X1205592D01*
X1129048Y1306899D02*
X1205294D01*
X1060306Y1422099D02*
X1205280D01*
X1126417Y1332999D02*
X1204892D01*
X1038815Y1041399D02*
X1204692D01*
X1128888Y1307799D02*
X1204394D01*
X1061206Y1422999D02*
X1204380D01*
X1198350Y1242999D02*
X1204333D01*
X1189729Y1205199D02*
X1204168D01*
X1189749Y1249299D02*
X1204149D01*
X1127190Y1332099D02*
X1203992D01*
X1198496Y1248399D02*
X1203951D01*
X1198503Y1204299D02*
X1203937D01*
X1190044Y1199799D02*
X1203853D01*
X1190057Y1243899D02*
X1203841D01*
X1039798Y1040499D02*
X1203792D01*
X1198623Y1253799D02*
X1203702D01*
X1198629Y1209699D02*
X1203691D01*
X1190279Y1238499D02*
X1203619D01*
X1198734Y1259199D02*
X1203509D01*
X1198739Y1215099D02*
X1203500D01*
X1128148Y1308699D02*
X1203494D01*
X1062106Y1423899D02*
X1203480D01*
X1197371Y1233099D02*
X1203440D01*
X1197401Y1277199D02*
X1203432D01*
X1198831Y1264599D02*
X1203349D01*
X1198836Y1220499D02*
X1203342D01*
X1127442Y1331199D02*
X1203300D01*
X1127348Y1330299D02*
X1203300D01*
X1178499Y1329399D02*
X1203300D01*
X1179938Y1328499D02*
X1203300D01*
X1180376Y1327599D02*
X1203300D01*
X1180431Y1326699D02*
X1203300D01*
X1180135Y1325799D02*
X1203300D01*
X1179260Y1324899D02*
X1203300D01*
X1039786Y1323999D02*
X1203300D01*
X1040211Y1323099D02*
X1203300D01*
X1040188Y1322199D02*
X1203300D01*
X1039696Y1321299D02*
X1203300D01*
X1013500Y1320399D02*
X1203300D01*
X1013500Y1319499D02*
X1203300D01*
X1075063Y1318599D02*
X1203300D01*
X1075428Y1317699D02*
X1203300D01*
X1075360Y1316799D02*
X1203300D01*
X1074796Y1315899D02*
X1203300D01*
X1013500Y1314999D02*
X1203300D01*
X1013500Y1314099D02*
X1203300D01*
X1013500Y1313199D02*
X1203300D01*
X1128586Y1312299D02*
X1203300D01*
X1129011Y1311399D02*
X1203300D01*
X1128988Y1310499D02*
X1203300D01*
X1128496Y1309599D02*
X1203300D01*
X1197787Y1227699D02*
X1203291D01*
X1197648Y1270899D02*
X1203275D01*
X1198922Y1225899D02*
X1203206D01*
X1022988Y1265499D02*
X1203189D01*
X1198044Y1222299D02*
X1203162D01*
X1197948Y1276299D02*
X1203093D01*
X1198998Y1231299D02*
X1203088D01*
X1198243Y1216899D02*
X1203050D01*
X1198251Y1260999D02*
X1203045D01*
X1199062Y1280799D02*
X1202990D01*
X1199065Y1236699D02*
X1202985D01*
X1198406Y1211499D02*
X1202951D01*
X1198413Y1255599D02*
X1202947D01*
X1199125Y1242099D02*
X1202894D01*
X1040688Y1039599D02*
X1202892D01*
X1198545Y1206099D02*
X1202864D01*
X1198551Y1250199D02*
X1202860D01*
X1199178Y1247499D02*
X1202813D01*
X1199180Y1203399D02*
X1202809D01*
X1198665Y1200699D02*
X1202786D01*
X1198670Y1244799D02*
X1202782D01*
X1199223Y1252899D02*
X1202741D01*
X1199225Y1208799D02*
X1202737D01*
X1198775Y1239399D02*
X1202714D01*
X1199263Y1258299D02*
X1202677D01*
X1199265Y1214199D02*
X1202674D01*
X1198868Y1233999D02*
X1202653D01*
X1198872Y1278099D02*
X1202650D01*
X1199296Y1263699D02*
X1202621D01*
X1199298Y1219599D02*
X1202618D01*
X1198950Y1228599D02*
X1202600D01*
X1063006Y1424799D02*
X1202580D01*
X1199326Y1224999D02*
X1202569D01*
X1199023Y1223199D02*
X1202553D01*
X1199348Y1230399D02*
X1202527D01*
X1199088Y1217799D02*
X1202513D01*
X1199091Y1261899D02*
X1202511D01*
X1199364Y1279899D02*
X1202492D01*
X1199364Y1235799D02*
X1202490D01*
X1199145Y1212399D02*
X1202479D01*
X1199148Y1256499D02*
X1202477D01*
X1199376Y1241199D02*
X1202460D01*
X1199195Y1206999D02*
X1202450D01*
X1199197Y1251099D02*
X1202449D01*
X1199382Y1246599D02*
X1202435D01*
X1199382Y1202499D02*
X1202434D01*
X1199238Y1201599D02*
X1202427D01*
X1199240Y1245699D02*
X1202426D01*
X1199383Y1251999D02*
X1202415D01*
X1199383Y1207899D02*
X1202415D01*
X1199277Y1240299D02*
X1202409D01*
X1199379Y1257399D02*
X1202401D01*
X1199378Y1213299D02*
X1202401D01*
X1199309Y1234899D02*
X1202397D01*
X1199310Y1278999D02*
X1202397D01*
X1199370Y1262799D02*
X1202392D01*
X1199369Y1218699D02*
X1202392D01*
X1199334Y1229499D02*
X1202390D01*
X1199354Y1224099D02*
X1202389D01*
X1197801Y1271799D02*
X1202320D01*
X1198918Y1269999D02*
X1202275D01*
X1198055Y1266399D02*
X1202239D01*
X1198994Y1275399D02*
X1202199D01*
X1041498Y1038699D02*
X1201992D01*
X1198954Y1272699D02*
X1201848D01*
X1199324Y1269099D02*
X1201828D01*
X1199027Y1267299D02*
X1201813D01*
X1199347Y1274499D02*
X1201796D01*
X1199335Y1273599D02*
X1201690D01*
X1199355Y1268199D02*
X1201689D01*
X1063906Y1425699D02*
X1201680D01*
X1042237Y1037799D02*
X1201092D01*
X1064806Y1426599D02*
X1200780D01*
X1178733Y1405899D02*
X1200727D01*
X1180571Y1402299D02*
X1200356D01*
X1042912Y1036899D02*
X1200192D01*
X1065706Y1427499D02*
X1199880D01*
X1179935Y1404999D02*
X1199710D01*
X1180644Y1403199D02*
X1199613D01*
X1180452Y1404099D02*
X1199452D01*
X1043529Y1035999D02*
X1199292D01*
X1066606Y1428399D02*
X1198980D01*
X1044093Y1035099D02*
X1198392D01*
X1067506Y1429299D02*
X1198080D01*
X1044609Y1034199D02*
X1197492D01*
X1068406Y1430199D02*
X1197180D01*
X1045078Y1033299D02*
X1196592D01*
X1190457Y1233099D02*
X1196527D01*
X1190465Y1277199D02*
X1196496D01*
X1069306Y1431099D02*
X1196280D01*
X1181900Y1270899D02*
X1196250D01*
X1181918Y1226799D02*
X1196232D01*
X1190607Y1227699D02*
X1196111D01*
X1190613Y1271799D02*
X1196096D01*
X1182200Y1276299D02*
X1195950D01*
X1182212Y1232199D02*
X1195938D01*
X1190735Y1222299D02*
X1195853D01*
X1190741Y1266399D02*
X1195842D01*
X1182418Y1281699D02*
X1195732D01*
X1182427Y1237599D02*
X1195722D01*
X1045504Y1032399D02*
X1195692D01*
X1190848Y1216899D02*
X1195655D01*
X1190853Y1260999D02*
X1195646D01*
X1189564Y1242999D02*
X1195548D01*
X1190946Y1211499D02*
X1195492D01*
X1190951Y1255599D02*
X1195485D01*
X1189947Y1248399D02*
X1195401D01*
X1189961Y1204299D02*
X1195395D01*
X1070206Y1431999D02*
X1195380D01*
X1191034Y1206099D02*
X1195353D01*
X1191038Y1250199D02*
X1195347D01*
X1190196Y1253799D02*
X1195275D01*
X1190206Y1209699D02*
X1195269D01*
X1191112Y1200699D02*
X1195233D01*
X1191115Y1244799D02*
X1195227D01*
X1190389Y1259199D02*
X1195164D01*
X1190397Y1215099D02*
X1195159D01*
X1191184Y1239399D02*
X1195122D01*
X1190549Y1264599D02*
X1195067D01*
X1190556Y1220499D02*
X1195062D01*
X1191245Y1233999D02*
X1195030D01*
X1191247Y1278099D02*
X1195025D01*
X1190685Y1269999D02*
X1194980D01*
X1190691Y1225899D02*
X1194976D01*
X1191298Y1228599D02*
X1194947D01*
X1191300Y1272699D02*
X1194944D01*
X1190804Y1275399D02*
X1194903D01*
X1190809Y1231299D02*
X1194900D01*
X1191344Y1223199D02*
X1194874D01*
X1191347Y1267299D02*
X1194871D01*
X1190908Y1280799D02*
X1194836D01*
X1190913Y1236699D02*
X1194832D01*
X1191385Y1217799D02*
X1194810D01*
X1191386Y1261899D02*
X1194807D01*
X1046208Y1031499D02*
X1194792D01*
X1191004Y1242099D02*
X1194773D01*
X1191419Y1212399D02*
X1194753D01*
X1191420Y1256499D02*
X1194750D01*
X1191085Y1247499D02*
X1194720D01*
X1191089Y1203399D02*
X1194718D01*
X1191447Y1206999D02*
X1194703D01*
X1191449Y1251099D02*
X1194700D01*
X1191157Y1252899D02*
X1194674D01*
X1191160Y1208799D02*
X1194672D01*
X1191470Y1201599D02*
X1194659D01*
X1191471Y1245699D02*
X1194657D01*
X1191221Y1258299D02*
X1194635D01*
X1191224Y1214199D02*
X1194633D01*
X1191489Y1240299D02*
X1194620D01*
X1191277Y1263699D02*
X1194601D01*
X1191280Y1219599D02*
X1194600D01*
X1191501Y1234899D02*
X1194589D01*
X1191501Y1278999D02*
X1194588D01*
X1191326Y1269099D02*
X1194573D01*
X1191329Y1224999D02*
X1194572D01*
X1191507Y1229499D02*
X1194563D01*
X1191508Y1273599D02*
X1194562D01*
X1191369Y1274499D02*
X1194551D01*
X1191371Y1230399D02*
X1194550D01*
X1191509Y1224099D02*
X1194543D01*
X1191509Y1268199D02*
X1194543D01*
X1191406Y1279899D02*
X1194534D01*
X1191407Y1235799D02*
X1194533D01*
X1191506Y1218699D02*
X1194529D01*
X1191505Y1262799D02*
X1194528D01*
X1191438Y1241199D02*
X1194522D01*
X1191497Y1213299D02*
X1194519D01*
X1191496Y1257399D02*
X1194519D01*
X1191463Y1246599D02*
X1194516D01*
X1191464Y1202499D02*
X1194516D01*
X1191483Y1207899D02*
X1194515D01*
X1191482Y1251999D02*
X1194515D01*
X1046700Y1030599D02*
X1193892D01*
X1046700Y1029699D02*
X1193500D01*
X1046817Y1028799D02*
X1193500D01*
X1047056Y1027899D02*
X1193500D01*
X1047260Y1026999D02*
X1193500D01*
X1047431Y1026099D02*
X1193500D01*
X1047811Y1017999D02*
X1193500D01*
X1047811Y1017099D02*
X1193500D01*
X1047811Y1016199D02*
X1193500D01*
X1047811Y1015299D02*
X1193500D01*
X1047811Y1008099D02*
X1193392D01*
X1190773Y1126899D02*
X1193227D01*
X1184584Y1025199D02*
X1193132D01*
X1191144Y1123299D02*
X1192856D01*
X1184943Y1432899D02*
X1192773D01*
X1125468Y1449999D02*
X1192543D01*
X1184574Y1442799D02*
X1192543D01*
X1074500Y1441899D02*
X1192543D01*
X1074500Y1440999D02*
X1192543D01*
X1125205Y1440099D02*
X1192543D01*
X1047811Y1007199D02*
X1192492D01*
X1075606Y1450899D02*
X1192437D01*
X1191790Y1125999D02*
X1192210D01*
X1185517Y1439199D02*
X1192199D01*
X1191887Y1124199D02*
X1192113D01*
X1185684Y1018899D02*
X1192032D01*
X1185687Y1449099D02*
X1192029D01*
X1185835Y1008999D02*
X1191881D01*
X1047811Y1006299D02*
X1191592D01*
X1186157Y1014399D02*
X1191559D01*
X1076506Y1451799D02*
X1191537D01*
X1186262Y1443699D02*
X1191454D01*
X1186264Y1024299D02*
X1191452D01*
X1186361Y1433799D02*
X1191355D01*
X1186576Y1438299D02*
X1191140D01*
X1186650Y1019799D02*
X1191066D01*
X1186651Y1448199D02*
X1191065D01*
X1186719Y1009899D02*
X1190997D01*
X1186875Y1013499D02*
X1190841D01*
X1186928Y1444599D02*
X1190788D01*
X1186929Y1023399D02*
X1190787D01*
X1186977Y1434699D02*
X1190739D01*
X1047811Y1005399D02*
X1190692D01*
X1077406Y1452699D02*
X1190637D01*
X1187083Y1437399D02*
X1190633D01*
X1187119Y1020699D02*
X1190597D01*
X1187119Y1447299D02*
X1190597D01*
X1187152Y1010799D02*
X1190564D01*
X1187220Y1012599D02*
X1190496D01*
X1187241Y1445499D02*
X1190475D01*
X1187242Y1022499D02*
X1190474D01*
X1187260Y1435599D02*
X1190456D01*
X1187293Y1436499D02*
X1190423D01*
X1187301Y1021599D02*
X1190415D01*
X1187301Y1446399D02*
X1190415D01*
X1187306Y1011699D02*
X1190410D01*
X1018481Y1126899D02*
X1189227D01*
X1015000Y1123299D02*
X1188856D01*
X1182602Y1242999D02*
X1188585D01*
X1173981Y1205199D02*
X1188420D01*
X1174001Y1249299D02*
X1188401D01*
X1017581Y1125999D02*
X1188210D01*
X1182748Y1248399D02*
X1188203D01*
X1182755Y1204299D02*
X1188189D01*
X1015781Y1124199D02*
X1188113D01*
X1174296Y1199799D02*
X1188105D01*
X1174309Y1243899D02*
X1188093D01*
X1182875Y1253799D02*
X1187954D01*
X1016681Y1125099D02*
X1187952D01*
X1182881Y1209699D02*
X1187943D01*
X1174531Y1238499D02*
X1187870D01*
X1182986Y1259199D02*
X1187761D01*
X1182991Y1215099D02*
X1187752D01*
X1181623Y1233099D02*
X1187692D01*
X1181653Y1277199D02*
X1187684D01*
X1183083Y1264599D02*
X1187601D01*
X1183088Y1220499D02*
X1187594D01*
X1182039Y1227699D02*
X1187543D01*
X1182053Y1271799D02*
X1187536D01*
X1183169Y1269999D02*
X1187464D01*
X1183173Y1225899D02*
X1187458D01*
X1182296Y1222299D02*
X1187414D01*
X1182307Y1266399D02*
X1187408D01*
X1183246Y1275399D02*
X1187346D01*
X1183250Y1231299D02*
X1187340D01*
X1182495Y1216899D02*
X1187302D01*
X1182503Y1260999D02*
X1187297D01*
X1183314Y1280799D02*
X1187242D01*
X1183317Y1236699D02*
X1187237D01*
X1182658Y1211499D02*
X1187203D01*
X1182665Y1255599D02*
X1187199D01*
X1183377Y1242099D02*
X1187146D01*
X1182796Y1206099D02*
X1187116D01*
X1182803Y1250199D02*
X1187111D01*
X1183430Y1247499D02*
X1187064D01*
X1183432Y1203399D02*
X1187061D01*
X1182917Y1200699D02*
X1187038D01*
X1182922Y1244799D02*
X1187034D01*
X1183475Y1252899D02*
X1186993D01*
X1183477Y1208799D02*
X1186989D01*
X1183027Y1239399D02*
X1186966D01*
X1183515Y1258299D02*
X1186929D01*
X1183517Y1214199D02*
X1186926D01*
X1183120Y1233999D02*
X1186905D01*
X1183124Y1278099D02*
X1186902D01*
X1183548Y1263699D02*
X1186873D01*
X1183550Y1219599D02*
X1186870D01*
X1183202Y1228599D02*
X1186852D01*
X1183206Y1272699D02*
X1186849D01*
X1183576Y1269099D02*
X1186823D01*
X1183577Y1224999D02*
X1186821D01*
X1183275Y1223199D02*
X1186805D01*
X1183279Y1267299D02*
X1186803D01*
X1183599Y1274499D02*
X1186781D01*
X1183600Y1230399D02*
X1186779D01*
X1183340Y1217799D02*
X1186765D01*
X1183343Y1261899D02*
X1186763D01*
X1183615Y1279899D02*
X1186744D01*
X1183616Y1235799D02*
X1186742D01*
X1183397Y1212399D02*
X1186731D01*
X1183400Y1256499D02*
X1186729D01*
X1183628Y1241199D02*
X1186712D01*
X1183447Y1206999D02*
X1186702D01*
X1183449Y1251099D02*
X1186701D01*
X1183634Y1246599D02*
X1186687D01*
X1183634Y1202499D02*
X1186686D01*
X1183490Y1201599D02*
X1186679D01*
X1183492Y1245699D02*
X1186678D01*
X1183635Y1251999D02*
X1186667D01*
X1183635Y1207899D02*
X1186667D01*
X1183529Y1240299D02*
X1186661D01*
X1183631Y1257399D02*
X1186653D01*
X1183630Y1213299D02*
X1186653D01*
X1183561Y1234899D02*
X1186649D01*
X1183562Y1278999D02*
X1186649D01*
X1183622Y1262799D02*
X1186644D01*
X1183621Y1218699D02*
X1186644D01*
X1183586Y1229499D02*
X1186642D01*
X1183587Y1273599D02*
X1186642D01*
X1183607Y1268199D02*
X1186641D01*
X1183606Y1224099D02*
X1186641D01*
X1174574Y1442799D02*
X1183142D01*
X1174584Y1025199D02*
X1183132D01*
X1174943Y1432899D02*
X1182773D01*
X1175517Y1439199D02*
X1182199D01*
X1175684Y1018899D02*
X1182032D01*
X1175687Y1449099D02*
X1182029D01*
X1175835Y1008999D02*
X1181881D01*
X1176157Y1014399D02*
X1181559D01*
X1176262Y1443699D02*
X1181454D01*
X1176264Y1024299D02*
X1181452D01*
X1176361Y1433799D02*
X1181355D01*
X1176576Y1438299D02*
X1181140D01*
X1176650Y1019799D02*
X1181066D01*
X1176651Y1448199D02*
X1181065D01*
X1176719Y1009899D02*
X1180997D01*
X1176875Y1013499D02*
X1180841D01*
X1176928Y1444599D02*
X1180788D01*
X1176929Y1023399D02*
X1180787D01*
X1174709Y1233099D02*
X1180779D01*
X1174717Y1277199D02*
X1180748D01*
X1176977Y1434699D02*
X1180739D01*
X1177083Y1437399D02*
X1180633D01*
X1178399Y1121499D02*
X1180601D01*
X1177119Y1020699D02*
X1180597D01*
X1177119Y1447299D02*
X1180597D01*
X1177152Y1010799D02*
X1180564D01*
X1166152Y1270899D02*
X1180502D01*
X1177220Y1012599D02*
X1180496D01*
X1166170Y1226799D02*
X1180484D01*
X1177241Y1445499D02*
X1180475D01*
X1177242Y1022499D02*
X1180474D01*
X1177260Y1435599D02*
X1180456D01*
X1177293Y1436499D02*
X1180423D01*
X1177301Y1021599D02*
X1180415D01*
X1177301Y1446399D02*
X1180415D01*
X1177306Y1011699D02*
X1180410D01*
X1174859Y1227699D02*
X1180363D01*
X1174865Y1271799D02*
X1180348D01*
X1178661Y1118799D02*
X1180339D01*
X1166452Y1276299D02*
X1180202D01*
X1166464Y1232199D02*
X1180190D01*
X1174987Y1222299D02*
X1180105D01*
X1174993Y1266399D02*
X1180094D01*
X1178961Y1120599D02*
X1180039D01*
X1166670Y1281699D02*
X1179984D01*
X1166679Y1237599D02*
X1179974D01*
X1179028Y1119699D02*
X1179972D01*
X1175100Y1216899D02*
X1179907D01*
X1175105Y1260999D02*
X1179898D01*
X1173816Y1242999D02*
X1179800D01*
X1175198Y1211499D02*
X1179744D01*
X1175203Y1255599D02*
X1179736D01*
X1174199Y1248399D02*
X1179653D01*
X1174213Y1204299D02*
X1179647D01*
X1175286Y1206099D02*
X1179605D01*
X1175290Y1250199D02*
X1179599D01*
X1174448Y1253799D02*
X1179527D01*
X1174458Y1209699D02*
X1179521D01*
X1175364Y1200699D02*
X1179485D01*
X1175367Y1244799D02*
X1179479D01*
X1174641Y1259199D02*
X1179416D01*
X1174649Y1215099D02*
X1179411D01*
X1175436Y1239399D02*
X1179374D01*
X1174801Y1264599D02*
X1179318D01*
X1174808Y1220499D02*
X1179314D01*
X1175496Y1233999D02*
X1179282D01*
X1175499Y1278099D02*
X1179277D01*
X1174937Y1269999D02*
X1179232D01*
X1174943Y1225899D02*
X1179228D01*
X1175550Y1228599D02*
X1179199D01*
X1175552Y1272699D02*
X1179196D01*
X1175056Y1275399D02*
X1179155D01*
X1175061Y1231299D02*
X1179152D01*
X1175596Y1223199D02*
X1179126D01*
X1175599Y1267299D02*
X1179123D01*
X1175160Y1280799D02*
X1179087D01*
X1175165Y1236699D02*
X1179084D01*
X1175637Y1217799D02*
X1179062D01*
X1175638Y1261899D02*
X1179059D01*
X1175256Y1242099D02*
X1179025D01*
X1175671Y1212399D02*
X1179005D01*
X1175672Y1256499D02*
X1179002D01*
X1175337Y1247499D02*
X1178972D01*
X1175341Y1203399D02*
X1178970D01*
X1175699Y1206999D02*
X1178955D01*
X1175701Y1251099D02*
X1178952D01*
X1175409Y1252899D02*
X1178926D01*
X1175412Y1208799D02*
X1178924D01*
X1175722Y1201599D02*
X1178911D01*
X1175723Y1245699D02*
X1178909D01*
X1175473Y1258299D02*
X1178887D01*
X1175476Y1214199D02*
X1178885D01*
X1175741Y1240299D02*
X1178872D01*
X1175529Y1263699D02*
X1178853D01*
X1175532Y1219599D02*
X1178852D01*
X1175753Y1234899D02*
X1178841D01*
X1175753Y1278999D02*
X1178840D01*
X1175578Y1269099D02*
X1178825D01*
X1175581Y1224999D02*
X1178824D01*
X1175759Y1229499D02*
X1178815D01*
X1175760Y1273599D02*
X1178814D01*
X1175621Y1274499D02*
X1178803D01*
X1175623Y1230399D02*
X1178802D01*
X1175761Y1224099D02*
X1178795D01*
X1175761Y1268199D02*
X1178795D01*
X1175658Y1279899D02*
X1178786D01*
X1175659Y1235799D02*
X1178785D01*
X1175757Y1218699D02*
X1178781D01*
X1175757Y1262799D02*
X1178780D01*
X1175690Y1241199D02*
X1178774D01*
X1175749Y1213299D02*
X1178771D01*
X1175748Y1257399D02*
X1178771D01*
X1175715Y1246599D02*
X1178768D01*
X1175716Y1202499D02*
X1178768D01*
X1175735Y1207899D02*
X1178767D01*
X1175734Y1251999D02*
X1178767D01*
X1166499Y1329399D02*
X1177501D01*
X1167260Y1324899D02*
X1176740D01*
X1166733Y1405899D02*
X1176267D01*
X1167938Y1328499D02*
X1176062D01*
X1166941Y1394199D02*
X1176059D01*
X1168135Y1325799D02*
X1175865D01*
X1167280Y1399599D02*
X1175720D01*
X1168376Y1327599D02*
X1175624D01*
X1015000Y1121499D02*
X1175601D01*
X1167415Y1400499D02*
X1175585D01*
X1168431Y1326699D02*
X1175569D01*
X1167935Y1404999D02*
X1175065D01*
X1174284Y1120599D02*
X1175039D01*
X1168012Y1395099D02*
X1174988D01*
X1168153Y1398699D02*
X1174847D01*
X1168213Y1401399D02*
X1174787D01*
X1168452Y1404099D02*
X1174548D01*
X1168487Y1395999D02*
X1174513D01*
X1168547Y1397799D02*
X1174453D01*
X1168571Y1402299D02*
X1174429D01*
X1168644Y1403199D02*
X1174356D01*
X1168648Y1396899D02*
X1174352D01*
X1164574Y1442799D02*
X1173142D01*
X1164584Y1025199D02*
X1173132D01*
X1166854Y1242999D02*
X1172837D01*
X1164943Y1432899D02*
X1172773D01*
X1168550Y1205199D02*
X1172672D01*
X1158253Y1249299D02*
X1172653D01*
X1167000Y1248399D02*
X1172455D01*
X1169138Y1204299D02*
X1172440D01*
X1168646Y1199799D02*
X1172357D01*
X1158561Y1243899D02*
X1172345D01*
X1170367Y1116999D02*
X1172321D01*
X1170748Y1120599D02*
X1172316D01*
X1167127Y1253799D02*
X1172206D01*
X1165517Y1439199D02*
X1172199D01*
X1169193Y1209699D02*
X1172195D01*
X1158783Y1238499D02*
X1172122D01*
X1165684Y1018899D02*
X1172032D01*
X1165687Y1449099D02*
X1172029D01*
X1167238Y1259199D02*
X1172013D01*
X1167243Y1215099D02*
X1172004D01*
X1165875Y1233099D02*
X1171944D01*
X1165905Y1277199D02*
X1171936D01*
X1165835Y1008999D02*
X1171881D01*
X1167335Y1264599D02*
X1171853D01*
X1167340Y1220499D02*
X1171846D01*
X1166291Y1227699D02*
X1171795D01*
X1166305Y1271799D02*
X1171788D01*
X1167421Y1269999D02*
X1171716D01*
X1167425Y1225899D02*
X1171710D01*
X1166548Y1222299D02*
X1171666D01*
X1166559Y1266399D02*
X1171660D01*
X1167498Y1275399D02*
X1171598D01*
X1167502Y1231299D02*
X1171592D01*
X1166157Y1014399D02*
X1171559D01*
X1166747Y1216899D02*
X1171554D01*
X1166755Y1260999D02*
X1171549D01*
X1167566Y1280799D02*
X1171494D01*
X1167569Y1236699D02*
X1171489D01*
X1171389Y1117899D02*
X1171459D01*
X1167552Y1211499D02*
X1171455D01*
X1166262Y1443699D02*
X1171454D01*
X1166264Y1024299D02*
X1171452D01*
X1166917Y1255599D02*
X1171451D01*
X1167629Y1242099D02*
X1171398D01*
X1169156Y1206099D02*
X1171367D01*
X1167055Y1250199D02*
X1171363D01*
X1166361Y1433799D02*
X1171355D01*
X1167681Y1247499D02*
X1171316D01*
X1169471Y1203399D02*
X1171313D01*
X1169209Y1200699D02*
X1171290D01*
X1167174Y1244799D02*
X1171286D01*
X1167727Y1252899D02*
X1171245D01*
X1169496Y1208799D02*
X1171241D01*
X1167279Y1239399D02*
X1171218D01*
X1167767Y1258299D02*
X1171181D01*
X1167769Y1214199D02*
X1171178D01*
X1167372Y1233999D02*
X1171157D01*
X1167376Y1278099D02*
X1171154D01*
X1166576Y1438299D02*
X1171140D01*
X1167800Y1263699D02*
X1171125D01*
X1167802Y1219599D02*
X1171122D01*
X1167454Y1228599D02*
X1171104D01*
X1167458Y1272699D02*
X1171101D01*
X1167828Y1269099D02*
X1171075D01*
X1167829Y1224999D02*
X1171073D01*
X1166650Y1019799D02*
X1171066D01*
X1166651Y1448199D02*
X1171065D01*
X1167527Y1223199D02*
X1171057D01*
X1167531Y1267299D02*
X1171055D01*
X1167851Y1274499D02*
X1171033D01*
X1167851Y1230399D02*
X1171031D01*
X1167592Y1217799D02*
X1171017D01*
X1167595Y1261899D02*
X1171015D01*
X1166719Y1009899D02*
X1170997D01*
X1167867Y1279899D02*
X1170996D01*
X1167868Y1235799D02*
X1170994D01*
X1167649Y1212399D02*
X1170983D01*
X1167651Y1256499D02*
X1170981D01*
X1167880Y1241199D02*
X1170964D01*
X1169479Y1206999D02*
X1170954D01*
X1167701Y1251099D02*
X1170953D01*
X1167886Y1246599D02*
X1170939D01*
X1169586Y1202499D02*
X1170938D01*
X1169504Y1201599D02*
X1170931D01*
X1167744Y1245699D02*
X1170930D01*
X1167887Y1251999D02*
X1170919D01*
X1169587Y1207899D02*
X1170919D01*
X1167781Y1240299D02*
X1170913D01*
X1167883Y1257399D02*
X1170905D01*
X1167882Y1213299D02*
X1170905D01*
X1167813Y1234899D02*
X1170901D01*
X1167814Y1278999D02*
X1170901D01*
X1167873Y1262799D02*
X1170896D01*
X1167873Y1218699D02*
X1170896D01*
X1167838Y1229499D02*
X1170894D01*
X1167839Y1273599D02*
X1170894D01*
X1167859Y1268199D02*
X1170893D01*
X1167858Y1224099D02*
X1170893D01*
X1166875Y1013499D02*
X1170841D01*
X1166928Y1444599D02*
X1170788D01*
X1166929Y1023399D02*
X1170787D01*
X1166977Y1434699D02*
X1170739D01*
X1167083Y1437399D02*
X1170633D01*
X1167119Y1020699D02*
X1170597D01*
X1167119Y1447299D02*
X1170597D01*
X1167152Y1010799D02*
X1170564D01*
X1167220Y1012599D02*
X1170496D01*
X1167241Y1445499D02*
X1170475D01*
X1167242Y1022499D02*
X1170474D01*
X1167260Y1435599D02*
X1170456D01*
X1167293Y1436499D02*
X1170423D01*
X1167301Y1021599D02*
X1170415D01*
X1167301Y1446399D02*
X1170415D01*
X1167306Y1011699D02*
X1170410D01*
X1167456Y1116999D02*
X1168833D01*
X1015000Y1096299D02*
X1168768D01*
X1004500Y1064799D02*
X1168749D01*
X1015000Y1120599D02*
X1168452D01*
X1015000Y1117899D02*
X1167811D01*
X1015000Y1119699D02*
X1167712D01*
X1015000Y1118799D02*
X1167552D01*
X1161456Y1116999D02*
X1166544D01*
X1015000Y1095399D02*
X1166162D01*
X1004500Y1065699D02*
X1166151D01*
X1162280Y1113399D02*
X1165720D01*
X1153499Y1329399D02*
X1165501D01*
X1162731Y1116099D02*
X1165269D01*
X1162926Y1114299D02*
X1165074D01*
X1158961Y1233099D02*
X1165031D01*
X1158969Y1277199D02*
X1165000D01*
X1163040Y1115199D02*
X1164960D01*
X1150404Y1270899D02*
X1164754D01*
X1154260Y1324899D02*
X1164740D01*
X1150422Y1226799D02*
X1164736D01*
X1159111Y1227699D02*
X1164615D01*
X1159117Y1271799D02*
X1164600D01*
X1150703Y1276299D02*
X1164454D01*
X1150716Y1232199D02*
X1164442D01*
X1015000Y1094499D02*
X1164424D01*
X1004500Y1066599D02*
X1164416D01*
X1159239Y1222299D02*
X1164357D01*
X1159245Y1266399D02*
X1164346D01*
X1105042Y1405899D02*
X1164267D01*
X1150922Y1281699D02*
X1164236D01*
X1150931Y1237599D02*
X1164226D01*
X1159351Y1216899D02*
X1164159D01*
X1159357Y1260999D02*
X1164150D01*
X1154938Y1328499D02*
X1164062D01*
X1032406Y1394199D02*
X1164059D01*
X1158068Y1242999D02*
X1164052D01*
X1159455Y1255599D02*
X1163988D01*
X1158451Y1248399D02*
X1163905D01*
X1155135Y1325799D02*
X1163865D01*
X1159542Y1250199D02*
X1163851D01*
X1158700Y1253799D02*
X1163779D01*
X1159619Y1244799D02*
X1163731D01*
X1105349Y1399599D02*
X1163720D01*
X1158893Y1259199D02*
X1163668D01*
X1158901Y1215099D02*
X1163663D01*
X1159688Y1239399D02*
X1163626D01*
X1155376Y1327599D02*
X1163624D01*
X1103965Y1400499D02*
X1163585D01*
X1159053Y1264599D02*
X1163570D01*
X1155431Y1326699D02*
X1163569D01*
X1159060Y1220499D02*
X1163566D01*
X1159748Y1233999D02*
X1163533D01*
X1159751Y1278099D02*
X1163529D01*
X1159189Y1269999D02*
X1163484D01*
X1159195Y1225899D02*
X1163480D01*
X1159802Y1228599D02*
X1163451D01*
X1159804Y1272699D02*
X1163447D01*
X1159308Y1275399D02*
X1163407D01*
X1159313Y1231299D02*
X1163404D01*
X1159848Y1223199D02*
X1163378D01*
X1159850Y1267299D02*
X1163375D01*
X1159450Y1211499D02*
X1163354D01*
X1159412Y1280799D02*
X1163339D01*
X1159417Y1236699D02*
X1163336D01*
X1159889Y1217799D02*
X1163314D01*
X1159890Y1261899D02*
X1163311D01*
X1118114Y1198899D02*
X1163295D01*
X1159508Y1242099D02*
X1163277D01*
X1159923Y1212399D02*
X1163257D01*
X1159924Y1256499D02*
X1163254D01*
X1159589Y1247499D02*
X1163224D01*
X1159953Y1251099D02*
X1163204D01*
X1159661Y1252899D02*
X1163178D01*
X1159975Y1245699D02*
X1163161D01*
X1154574Y1442799D02*
X1163142D01*
X1159725Y1258299D02*
X1163139D01*
X1159728Y1214199D02*
X1163137D01*
X1154584Y1025199D02*
X1163132D01*
X1159992Y1240299D02*
X1163124D01*
X1159781Y1263699D02*
X1163105D01*
X1159784Y1219599D02*
X1163104D01*
X1160004Y1234899D02*
X1163093D01*
X1160005Y1278999D02*
X1163092D01*
X1159830Y1269099D02*
X1163077D01*
X1159832Y1224999D02*
X1163076D01*
X1015000Y1093599D02*
X1163074D01*
X1004500Y1067499D02*
X1163067D01*
X1160011Y1229499D02*
X1163067D01*
X1160011Y1273599D02*
X1163066D01*
X1105771Y1404999D02*
X1163065D01*
X1159873Y1274499D02*
X1163055D01*
X1159875Y1230399D02*
X1163054D01*
X1160013Y1224099D02*
X1163047D01*
X1160013Y1268199D02*
X1163046D01*
X1159910Y1279899D02*
X1163038D01*
X1159911Y1235799D02*
X1163037D01*
X1160009Y1218699D02*
X1163033D01*
X1160009Y1262799D02*
X1163032D01*
X1159942Y1241199D02*
X1163026D01*
X1160001Y1213299D02*
X1163023D01*
X1160000Y1257399D02*
X1163023D01*
X1159967Y1246599D02*
X1163020D01*
X1159986Y1251999D02*
X1163019D01*
X1105039Y1395099D02*
X1162988D01*
X1105913Y1398699D02*
X1162847D01*
X1105347Y1401399D02*
X1162787D01*
X1154943Y1432899D02*
X1162773D01*
X1106093Y1404099D02*
X1162548D01*
X1105769Y1395999D02*
X1162513D01*
X1106136Y1397799D02*
X1162453D01*
X1105912Y1402299D02*
X1162429D01*
X1106136Y1403199D02*
X1162356D01*
X1158233Y1205199D02*
X1162355D01*
X1106092Y1396899D02*
X1162352D01*
X1127541Y1210599D02*
X1162289D01*
X1158548Y1199799D02*
X1162260D01*
X1155517Y1439199D02*
X1162199D01*
X1155684Y1018899D02*
X1162032D01*
X1155687Y1449099D02*
X1162029D01*
X1015000Y1092699D02*
X1161965D01*
X1004500Y1068399D02*
X1161960D01*
X1155835Y1008999D02*
X1161881D01*
X1158465Y1204299D02*
X1161767D01*
X1159538Y1206099D02*
X1161750D01*
X1158710Y1209699D02*
X1161713D01*
X1159616Y1200699D02*
X1161696D01*
X1156157Y1014399D02*
X1161559D01*
X1156262Y1443699D02*
X1161454D01*
X1156264Y1024299D02*
X1161452D01*
X1159593Y1203399D02*
X1161435D01*
X1159951Y1206999D02*
X1161426D01*
X1159664Y1208799D02*
X1161409D01*
X1159974Y1201599D02*
X1161402D01*
X1156361Y1433799D02*
X1161355D01*
X1159968Y1202499D02*
X1161319D01*
X1159987Y1207899D02*
X1161319D01*
X1156576Y1438299D02*
X1161140D01*
X1156650Y1019799D02*
X1161066D01*
X1156651Y1448199D02*
X1161065D01*
X1015000Y1091799D02*
X1161029D01*
X1004500Y1069299D02*
X1161025D01*
X1156719Y1009899D02*
X1160997D01*
X1156875Y1013499D02*
X1160841D01*
X1156928Y1444599D02*
X1160788D01*
X1156929Y1023399D02*
X1160787D01*
X1156977Y1434699D02*
X1160739D01*
X1157083Y1437399D02*
X1160633D01*
X1157119Y1020699D02*
X1160597D01*
X1157119Y1447299D02*
X1160597D01*
X1157152Y1010799D02*
X1160564D01*
X1015000Y1116999D02*
X1160544D01*
X1157220Y1012599D02*
X1160496D01*
X1157241Y1445499D02*
X1160475D01*
X1157242Y1022499D02*
X1160474D01*
X1157260Y1435599D02*
X1160456D01*
X1157293Y1436499D02*
X1160423D01*
X1157301Y1021599D02*
X1160415D01*
X1157301Y1446399D02*
X1160415D01*
X1157306Y1011699D02*
X1160410D01*
X1014783Y1090899D02*
X1160227D01*
X1004500Y1070199D02*
X1160223D01*
X1015000Y1113399D02*
X1159720D01*
X1004500Y1089999D02*
X1159535D01*
X1004500Y1071099D02*
X1159531D01*
X1015000Y1116099D02*
X1159269D01*
X1015000Y1114299D02*
X1159074D01*
X1015000Y1115199D02*
X1158960D01*
X1004500Y1089099D02*
X1158935D01*
X1004500Y1071999D02*
X1158932D01*
X1004500Y1088199D02*
X1158417D01*
X1004500Y1072899D02*
X1158415D01*
X1004500Y1087299D02*
X1157972D01*
X1004500Y1073799D02*
X1157970D01*
X1004500Y1086399D02*
X1157593D01*
X1004500Y1074699D02*
X1157591D01*
X1004500Y1085499D02*
X1157275D01*
X1004500Y1075599D02*
X1157274D01*
X1151106Y1242999D02*
X1157089D01*
X1004500Y1084599D02*
X1157016D01*
X1004500Y1076499D02*
X1157015D01*
X1142485Y1205199D02*
X1156924D01*
X1142505Y1249299D02*
X1156905D01*
X1004500Y1083699D02*
X1156811D01*
X1004500Y1077399D02*
X1156810D01*
X1151252Y1248399D02*
X1156707D01*
X1151259Y1204299D02*
X1156692D01*
X1004500Y1082799D02*
X1156659D01*
X1004500Y1078299D02*
X1156659D01*
X1142800Y1199799D02*
X1156609D01*
X1142813Y1243899D02*
X1156596D01*
X1004500Y1081899D02*
X1156559D01*
X1004500Y1079199D02*
X1156558D01*
X1004500Y1080999D02*
X1156509D01*
X1004500Y1080099D02*
X1156508D01*
X1151379Y1253799D02*
X1156458D01*
X1151385Y1209699D02*
X1156447D01*
X1143035Y1238499D02*
X1156374D01*
X1151489Y1259199D02*
X1156265D01*
X1151495Y1215099D02*
X1156256D01*
X1150127Y1233099D02*
X1156196D01*
X1150157Y1277199D02*
X1156188D01*
X1151587Y1264599D02*
X1156105D01*
X1151592Y1220499D02*
X1156098D01*
X1150543Y1227699D02*
X1156047D01*
X1150557Y1271799D02*
X1156040D01*
X1151673Y1269999D02*
X1155968D01*
X1151677Y1225899D02*
X1155962D01*
X1150800Y1222299D02*
X1155918D01*
X1150811Y1266399D02*
X1155912D01*
X1151750Y1275399D02*
X1155850D01*
X1151754Y1231299D02*
X1155844D01*
X1150999Y1216899D02*
X1155806D01*
X1151007Y1260999D02*
X1155801D01*
X1151818Y1280799D02*
X1155746D01*
X1151821Y1236699D02*
X1155741D01*
X1151162Y1211499D02*
X1155707D01*
X1151169Y1255599D02*
X1155702D01*
X1151881Y1242099D02*
X1155650D01*
X1151300Y1206099D02*
X1155619D01*
X1151307Y1250199D02*
X1155615D01*
X1151933Y1247499D02*
X1155568D01*
X1151936Y1203399D02*
X1155565D01*
X1151421Y1200699D02*
X1155542D01*
X1151426Y1244799D02*
X1155538D01*
X1151979Y1252899D02*
X1155496D01*
X1151981Y1208799D02*
X1155493D01*
X1151531Y1239399D02*
X1155470D01*
X1152019Y1258299D02*
X1155433D01*
X1152021Y1214199D02*
X1155430D01*
X1151624Y1233999D02*
X1155409D01*
X1151628Y1278099D02*
X1155406D01*
X1152052Y1263699D02*
X1155377D01*
X1152054Y1219599D02*
X1155374D01*
X1151706Y1228599D02*
X1155356D01*
X1151710Y1272699D02*
X1155353D01*
X1152080Y1269099D02*
X1155327D01*
X1152081Y1224999D02*
X1155325D01*
X1151779Y1223199D02*
X1155309D01*
X1151783Y1267299D02*
X1155307D01*
X1152103Y1274499D02*
X1155284D01*
X1152103Y1230399D02*
X1155283D01*
X1151844Y1217799D02*
X1155269D01*
X1151847Y1261899D02*
X1155267D01*
X1152119Y1279899D02*
X1155248D01*
X1152120Y1235799D02*
X1155246D01*
X1151901Y1212399D02*
X1155235D01*
X1151903Y1256499D02*
X1155233D01*
X1152132Y1241199D02*
X1155216D01*
X1151951Y1206999D02*
X1155206D01*
X1151953Y1251099D02*
X1155205D01*
X1152138Y1246599D02*
X1155191D01*
X1152138Y1202499D02*
X1155190D01*
X1151994Y1201599D02*
X1155183D01*
X1151996Y1245699D02*
X1155182D01*
X1152139Y1251999D02*
X1155171D01*
X1152139Y1207899D02*
X1155171D01*
X1152033Y1240299D02*
X1155165D01*
X1152135Y1257399D02*
X1155157D01*
X1152134Y1213299D02*
X1155157D01*
X1152065Y1234899D02*
X1155153D01*
X1152066Y1278999D02*
X1155153D01*
X1152125Y1262799D02*
X1155148D01*
X1152125Y1218699D02*
X1155148D01*
X1152090Y1229499D02*
X1155146D01*
X1152091Y1273599D02*
X1155146D01*
X1152111Y1268199D02*
X1155145D01*
X1152110Y1224099D02*
X1155145D01*
X1144574Y1442799D02*
X1153142D01*
X1144584Y1025199D02*
X1153132D01*
X1144943Y1432899D02*
X1152773D01*
X1143499Y1329399D02*
X1152501D01*
X1145517Y1439199D02*
X1152199D01*
X1145684Y1018899D02*
X1152032D01*
X1145687Y1449099D02*
X1152029D01*
X1145835Y1008999D02*
X1151881D01*
X1144260Y1324899D02*
X1151740D01*
X1146157Y1014399D02*
X1151559D01*
X1146262Y1443699D02*
X1151454D01*
X1146264Y1024299D02*
X1151452D01*
X1146361Y1433799D02*
X1151355D01*
X1146576Y1438299D02*
X1151140D01*
X1146650Y1019799D02*
X1151066D01*
X1146651Y1448199D02*
X1151065D01*
X1144938Y1328499D02*
X1151062D01*
X1146719Y1009899D02*
X1150997D01*
X1145135Y1325799D02*
X1150865D01*
X1146875Y1013499D02*
X1150841D01*
X1146928Y1444599D02*
X1150788D01*
X1146929Y1023399D02*
X1150787D01*
X1146977Y1434699D02*
X1150739D01*
X1147083Y1437399D02*
X1150633D01*
X1145376Y1327599D02*
X1150624D01*
X1147119Y1020699D02*
X1150597D01*
X1147119Y1447299D02*
X1150597D01*
X1145431Y1326699D02*
X1150569D01*
X1147152Y1010799D02*
X1150564D01*
X1147220Y1012599D02*
X1150496D01*
X1147241Y1445499D02*
X1150475D01*
X1147242Y1022499D02*
X1150474D01*
X1147260Y1435599D02*
X1150456D01*
X1147293Y1436499D02*
X1150423D01*
X1147301Y1021599D02*
X1150415D01*
X1147301Y1446399D02*
X1150415D01*
X1147306Y1011699D02*
X1150410D01*
X1063100Y1165599D02*
X1149921D01*
X1143213Y1233099D02*
X1149282D01*
X1143221Y1277199D02*
X1149252D01*
X1063100Y1171899D02*
X1149121D01*
X1126584Y1270899D02*
X1149006D01*
X1126602Y1226799D02*
X1148988D01*
X1143363Y1227699D02*
X1148867D01*
X1143369Y1271799D02*
X1148852D01*
X1063100Y1166499D02*
X1148706D01*
X1126884Y1276299D02*
X1148706D01*
X1126896Y1232199D02*
X1148694D01*
X1143491Y1222299D02*
X1148609D01*
X1143497Y1266399D02*
X1148598D01*
X1127103Y1281699D02*
X1148488D01*
X1127112Y1237599D02*
X1148478D01*
X1143603Y1216899D02*
X1148411D01*
X1143609Y1260999D02*
X1148402D01*
X1063100Y1170999D02*
X1148327D01*
X1142320Y1242999D02*
X1148304D01*
X1143702Y1211499D02*
X1148248D01*
X1143707Y1255599D02*
X1148240D01*
X1142703Y1248399D02*
X1148157D01*
X1142717Y1204299D02*
X1148150D01*
X1063100Y1167399D02*
X1148109D01*
X1143790Y1206099D02*
X1148109D01*
X1143794Y1250199D02*
X1148103D01*
X1142952Y1253799D02*
X1148031D01*
X1142962Y1209699D02*
X1148025D01*
X1143868Y1200699D02*
X1147989D01*
X1143871Y1244799D02*
X1147983D01*
X1143145Y1259199D02*
X1147920D01*
X1143153Y1215099D02*
X1147915D01*
X1063100Y1170099D02*
X1147915D01*
X1143940Y1239399D02*
X1147878D01*
X1143305Y1264599D02*
X1147822D01*
X1143312Y1220499D02*
X1147818D01*
X1063100Y1168299D02*
X1147816D01*
X1144000Y1233999D02*
X1147785D01*
X1144003Y1278099D02*
X1147781D01*
X1063100Y1169199D02*
X1147755D01*
X1143441Y1269999D02*
X1147736D01*
X1143447Y1225899D02*
X1147732D01*
X1144054Y1228599D02*
X1147703D01*
X1144056Y1272699D02*
X1147699D01*
X1143560Y1275399D02*
X1147659D01*
X1143565Y1231299D02*
X1147656D01*
X1144100Y1223199D02*
X1147630D01*
X1144102Y1267299D02*
X1147627D01*
X1143664Y1280799D02*
X1147591D01*
X1143668Y1236699D02*
X1147588D01*
X1144141Y1217799D02*
X1147566D01*
X1144142Y1261899D02*
X1147563D01*
X1143760Y1242099D02*
X1147529D01*
X1144175Y1212399D02*
X1147509D01*
X1144176Y1256499D02*
X1147506D01*
X1143841Y1247499D02*
X1147476D01*
X1143845Y1203399D02*
X1147474D01*
X1144203Y1206999D02*
X1147459D01*
X1144205Y1251099D02*
X1147456D01*
X1143913Y1252899D02*
X1147430D01*
X1143916Y1208799D02*
X1147428D01*
X1144226Y1201599D02*
X1147415D01*
X1144227Y1245699D02*
X1147413D01*
X1143977Y1258299D02*
X1147391D01*
X1143980Y1214199D02*
X1147389D01*
X1144244Y1240299D02*
X1147376D01*
X1144033Y1263699D02*
X1147357D01*
X1144036Y1219599D02*
X1147356D01*
X1144256Y1234899D02*
X1147345D01*
X1144257Y1278999D02*
X1147343D01*
X1144082Y1269099D02*
X1147329D01*
X1144084Y1224999D02*
X1147328D01*
X1144263Y1229499D02*
X1147319D01*
X1144263Y1273599D02*
X1147318D01*
X1144125Y1274499D02*
X1147307D01*
X1144127Y1230399D02*
X1147306D01*
X1144265Y1224099D02*
X1147299D01*
X1144265Y1268199D02*
X1147298D01*
X1144162Y1279899D02*
X1147290D01*
X1144163Y1235799D02*
X1147289D01*
X1144261Y1218699D02*
X1147285D01*
X1144261Y1262799D02*
X1147284D01*
X1144194Y1241199D02*
X1147278D01*
X1144253Y1213299D02*
X1147275D01*
X1144252Y1257399D02*
X1147275D01*
X1144219Y1246599D02*
X1147272D01*
X1144220Y1202499D02*
X1147272D01*
X1144239Y1207899D02*
X1147271D01*
X1144238Y1251999D02*
X1147271D01*
X1126273Y1442799D02*
X1143142D01*
X1134584Y1025199D02*
X1143132D01*
X1126407Y1432899D02*
X1142773D01*
X1126854Y1329399D02*
X1142501D01*
X1126699Y1439199D02*
X1142199D01*
X1135684Y1018899D02*
X1142032D01*
X1126802Y1449099D02*
X1142029D01*
X1135835Y1008999D02*
X1141881D01*
X1104260Y1324899D02*
X1141740D01*
X1136157Y1014399D02*
X1141559D01*
X1127189Y1443699D02*
X1141454D01*
X1136264Y1024299D02*
X1141452D01*
X1127261Y1433799D02*
X1141355D01*
X1127287Y1242999D02*
X1141341D01*
X1127411Y1205199D02*
X1141176D01*
X1118687Y1249299D02*
X1141157D01*
X1127423Y1438299D02*
X1141140D01*
X1136650Y1019799D02*
X1141066D01*
X1127480Y1448199D02*
X1141065D01*
X1104938Y1328499D02*
X1141062D01*
X1136719Y1009899D02*
X1140997D01*
X1127433Y1248399D02*
X1140959D01*
X1128399Y1204299D02*
X1140944D01*
X1105135Y1325799D02*
X1140865D01*
X1127597Y1199799D02*
X1140861D01*
X1118995Y1243899D02*
X1140848D01*
X1136875Y1013499D02*
X1140841D01*
X1127698Y1444599D02*
X1140788D01*
X1136929Y1023399D02*
X1140787D01*
X1127737Y1434699D02*
X1140739D01*
X1127560Y1253799D02*
X1140710D01*
X1128478Y1209699D02*
X1140699D01*
X1127823Y1437399D02*
X1140633D01*
X1119217Y1238499D02*
X1140626D01*
X1105376Y1327599D02*
X1140624D01*
X1137119Y1020699D02*
X1140597D01*
X1127853Y1447299D02*
X1140597D01*
X1105431Y1326699D02*
X1140569D01*
X1137152Y1010799D02*
X1140564D01*
X1127671Y1259199D02*
X1140517D01*
X1127676Y1215099D02*
X1140508D01*
X1137220Y1012599D02*
X1140496D01*
X1127953Y1445499D02*
X1140475D01*
X1137242Y1022499D02*
X1140474D01*
X1127968Y1435599D02*
X1140456D01*
X1126309Y1233099D02*
X1140448D01*
X1126339Y1277199D02*
X1140440D01*
X1127995Y1436499D02*
X1140423D01*
X1137301Y1021599D02*
X1140415D01*
X1128002Y1446399D02*
X1140415D01*
X1137306Y1011699D02*
X1140410D01*
X1127768Y1264599D02*
X1140357D01*
X1127773Y1220499D02*
X1140349D01*
X1126724Y1227699D02*
X1140299D01*
X1126739Y1271799D02*
X1140292D01*
X1127855Y1269999D02*
X1140220D01*
X1127859Y1225899D02*
X1140214D01*
X1126982Y1222299D02*
X1140170D01*
X1126993Y1266399D02*
X1140164D01*
X1127931Y1275399D02*
X1140102D01*
X1127935Y1231299D02*
X1140096D01*
X1127180Y1216899D02*
X1140058D01*
X1127189Y1260999D02*
X1140053D01*
X1127999Y1280799D02*
X1139998D01*
X1128002Y1236699D02*
X1139993D01*
X1127343Y1211499D02*
X1139959D01*
X1127351Y1255599D02*
X1139954D01*
X1128062Y1242099D02*
X1139901D01*
X1128425Y1206099D02*
X1139871D01*
X1127488Y1250199D02*
X1139867D01*
X1128115Y1247499D02*
X1139820D01*
X1128865Y1203399D02*
X1139817D01*
X1128502Y1200699D02*
X1139794D01*
X1127608Y1244799D02*
X1139790D01*
X1128160Y1252899D02*
X1139748D01*
X1128899Y1208799D02*
X1139745D01*
X1127713Y1239399D02*
X1139722D01*
X1128200Y1258299D02*
X1139685D01*
X1128202Y1214199D02*
X1139682D01*
X1127805Y1233999D02*
X1139661D01*
X1127810Y1278099D02*
X1139658D01*
X1128234Y1263699D02*
X1139628D01*
X1128235Y1219599D02*
X1139626D01*
X1127888Y1228599D02*
X1139608D01*
X1127891Y1272699D02*
X1139605D01*
X1128261Y1269099D02*
X1139579D01*
X1128263Y1224999D02*
X1139577D01*
X1127961Y1223199D02*
X1139561D01*
X1127964Y1267299D02*
X1139559D01*
X1128284Y1274499D02*
X1139536D01*
X1128285Y1230399D02*
X1139534D01*
X1128025Y1217799D02*
X1139521D01*
X1128028Y1261899D02*
X1139519D01*
X1128301Y1279899D02*
X1139500D01*
X1128301Y1235799D02*
X1139498D01*
X1128082Y1212399D02*
X1139487D01*
X1128085Y1256499D02*
X1139485D01*
X1128313Y1241199D02*
X1139468D01*
X1128877Y1206999D02*
X1139458D01*
X1128135Y1251099D02*
X1139457D01*
X1128319Y1246599D02*
X1139443D01*
X1129019Y1202499D02*
X1139442D01*
X1128909Y1201599D02*
X1139435D01*
X1128178Y1245699D02*
X1139434D01*
X1128320Y1251999D02*
X1139423D01*
X1129020Y1207899D02*
X1139423D01*
X1128215Y1240299D02*
X1139417D01*
X1128316Y1257399D02*
X1139409D01*
X1128316Y1213299D02*
X1139409D01*
X1128246Y1234899D02*
X1139405D01*
X1128247Y1278999D02*
X1139405D01*
X1128307Y1262799D02*
X1139400D01*
X1128306Y1218699D02*
X1139400D01*
X1128271Y1229499D02*
X1139398D01*
X1128273Y1273599D02*
X1139398D01*
X1128292Y1268199D02*
X1139397D01*
X1128291Y1224099D02*
X1139397D01*
X1015000Y1103499D02*
X1136601D01*
X1015000Y1100799D02*
X1136339D01*
X1015000Y1102599D02*
X1136039D01*
X1015000Y1101699D02*
X1135972D01*
X1124584Y1025199D02*
X1133132D01*
X1125684Y1018899D02*
X1132032D01*
X1125835Y1008999D02*
X1131881D01*
X1130399Y1130499D02*
X1131601D01*
X1126157Y1014399D02*
X1131559D01*
X1126264Y1024299D02*
X1131452D01*
X1130661Y1127799D02*
X1131339D01*
X1126650Y1019799D02*
X1131066D01*
X1130961Y1129599D02*
X1131039D01*
X1126719Y1009899D02*
X1130997D01*
X1126875Y1013499D02*
X1130841D01*
X1126929Y1023399D02*
X1130787D01*
X1127119Y1020699D02*
X1130597D01*
X1127152Y1010799D02*
X1130564D01*
X1127220Y1012599D02*
X1130496D01*
X1127242Y1022499D02*
X1130474D01*
X1127301Y1021599D02*
X1130415D01*
X1127306Y1011699D02*
X1130410D01*
X1113843Y1297899D02*
X1128156D01*
X1022081Y1130499D02*
X1127601D01*
X1019381Y1127799D02*
X1127339D01*
X1126299Y1301499D02*
X1127317D01*
X1021181Y1129599D02*
X1127039D01*
X1020281Y1128699D02*
X1126972D01*
X1126384Y1298799D02*
X1126871D01*
X1121048Y1305099D02*
X1126233D01*
X1121048Y1308699D02*
X1125852D01*
X1120790Y1309599D02*
X1125504D01*
X1119395Y1233099D02*
X1125463D01*
X1119403Y1277199D02*
X1125433D01*
X1013500Y1312299D02*
X1125414D01*
X1120790Y1305999D02*
X1125211D01*
X1110836Y1270899D02*
X1125188D01*
X1110854Y1226799D02*
X1125170D01*
X1120887Y1307799D02*
X1125112D01*
X1119544Y1227699D02*
X1125048D01*
X1119551Y1271799D02*
X1125033D01*
X1119773Y1310499D02*
X1125012D01*
X1013500Y1311399D02*
X1124989D01*
X1120144Y1306899D02*
X1124952D01*
X1111136Y1276299D02*
X1124888D01*
X1111148Y1232199D02*
X1124876D01*
X1119673Y1222299D02*
X1124790D01*
X1119679Y1266399D02*
X1124779D01*
X1111355Y1281699D02*
X1124669D01*
X1111364Y1237599D02*
X1124660D01*
X1119785Y1216899D02*
X1124592D01*
X1119790Y1260999D02*
X1124583D01*
X1118501Y1242999D02*
X1124485D01*
X1119884Y1211499D02*
X1124429D01*
X1119888Y1255599D02*
X1124421D01*
X1120092Y1205199D02*
X1124361D01*
X1118884Y1248399D02*
X1124339D01*
X1119975Y1250199D02*
X1124284D01*
X1118710Y1210599D02*
X1124231D01*
X1119132Y1253799D02*
X1124212D01*
X1120212Y1199799D02*
X1124175D01*
X1120053Y1244799D02*
X1124164D01*
X1119326Y1259199D02*
X1124101D01*
X1119334Y1215099D02*
X1124096D01*
X1120121Y1239399D02*
X1124059D01*
X1119486Y1264599D02*
X1124004D01*
X1119493Y1220499D02*
X1123999D01*
X1120182Y1233999D02*
X1123967D01*
X1120185Y1278099D02*
X1123962D01*
X1119622Y1269999D02*
X1123917D01*
X1119628Y1225899D02*
X1123913D01*
X1120235Y1228599D02*
X1123884D01*
X1120238Y1272699D02*
X1123881D01*
X1119741Y1275399D02*
X1123841D01*
X1119746Y1231299D02*
X1123837D01*
X1120282Y1223199D02*
X1123811D01*
X1120284Y1267299D02*
X1123808D01*
X1119845Y1280799D02*
X1123773D01*
X1119850Y1236699D02*
X1123770D01*
X1120322Y1217799D02*
X1123747D01*
X1120324Y1261899D02*
X1123744D01*
X1119941Y1242099D02*
X1123710D01*
X1120356Y1212399D02*
X1123690D01*
X1120358Y1256499D02*
X1123687D01*
X1120022Y1247499D02*
X1123657D01*
X1120386Y1251099D02*
X1123637D01*
X1120094Y1252899D02*
X1123612D01*
X1120408Y1245699D02*
X1123594D01*
X1114417Y1332999D02*
X1123583D01*
X1120158Y1258299D02*
X1123572D01*
X1120161Y1214199D02*
X1123570D01*
X1120426Y1240299D02*
X1123557D01*
X1120214Y1263699D02*
X1123538D01*
X1120217Y1219599D02*
X1123537D01*
X1120438Y1234899D02*
X1123526D01*
X1120438Y1278999D02*
X1123525D01*
X1120263Y1269099D02*
X1123511D01*
X1120266Y1224999D02*
X1123509D01*
X1120445Y1229499D02*
X1123501D01*
X1120445Y1273599D02*
X1123499D01*
X1120306Y1274499D02*
X1123488D01*
X1120308Y1230399D02*
X1123487D01*
X1120446Y1224099D02*
X1123481D01*
X1120446Y1268199D02*
X1123480D01*
X1120343Y1279899D02*
X1123471D01*
X1120344Y1235799D02*
X1123471D01*
X1120443Y1218699D02*
X1123466D01*
X1120442Y1262799D02*
X1123465D01*
X1120375Y1241199D02*
X1123459D01*
X1120434Y1213299D02*
X1123456D01*
X1120433Y1257399D02*
X1123456D01*
X1120400Y1246599D02*
X1123453D01*
X1120419Y1251999D02*
X1123452D01*
X1120176Y1204299D02*
X1123373D01*
X1120794Y1206099D02*
X1123347D01*
X1113988Y1301499D02*
X1123301D01*
X1120287Y1209699D02*
X1123294D01*
X1120849Y1200699D02*
X1123270D01*
X1112984Y1298799D02*
X1123216D01*
X1114854Y1329399D02*
X1123146D01*
X1114584Y1025199D02*
X1123132D01*
X1120979Y1133199D02*
X1123021D01*
X1120984Y1136799D02*
X1123016D01*
X1120832Y1203399D02*
X1122907D01*
X1121099Y1206999D02*
X1122895D01*
X1120884Y1208799D02*
X1122873D01*
X1121116Y1201599D02*
X1122863D01*
X1114010Y1300599D02*
X1122812D01*
X1115190Y1332099D02*
X1122810D01*
X1113584Y1299699D02*
X1122790D01*
X1121111Y1202499D02*
X1122753D01*
X1121126Y1207899D02*
X1122752D01*
X1115348Y1330299D02*
X1122652D01*
X1115442Y1331199D02*
X1122558D01*
X1074500Y1440099D02*
X1122511D01*
X1074739Y1449999D02*
X1122248D01*
X1121841Y1134099D02*
X1122159D01*
X1121843Y1135899D02*
X1122157D01*
X1115684Y1018899D02*
X1122032D01*
X1115835Y1008999D02*
X1121881D01*
X1116157Y1014399D02*
X1121559D01*
X1116264Y1024299D02*
X1121452D01*
X1114574Y1442799D02*
X1121443D01*
X1114943Y1432899D02*
X1121309D01*
X1116650Y1019799D02*
X1121066D01*
X1115517Y1439199D02*
X1121017D01*
X1116719Y1009899D02*
X1120997D01*
X1115687Y1449099D02*
X1120914D01*
X1116875Y1013499D02*
X1120841D01*
X1116929Y1023399D02*
X1120787D01*
X1117119Y1020699D02*
X1120597D01*
X1117152Y1010799D02*
X1120564D01*
X1116262Y1443699D02*
X1120527D01*
X1117220Y1012599D02*
X1120496D01*
X1117242Y1022499D02*
X1120474D01*
X1116361Y1433799D02*
X1120455D01*
X1117301Y1021599D02*
X1120415D01*
X1117306Y1011699D02*
X1120410D01*
X1116576Y1438299D02*
X1120293D01*
X1116651Y1448199D02*
X1120236D01*
X1116928Y1444599D02*
X1120018D01*
X1116977Y1434699D02*
X1119979D01*
X1117083Y1437399D02*
X1119893D01*
X1117119Y1447299D02*
X1119863D01*
X1117241Y1445499D02*
X1119763D01*
X1117260Y1435599D02*
X1119748D01*
X1117293Y1436499D02*
X1119721D01*
X1117301Y1446399D02*
X1119714D01*
X1024781Y1133199D02*
X1119021D01*
X1028381Y1136799D02*
X1119016D01*
X1013500Y1310499D02*
X1118227D01*
X1025681Y1134099D02*
X1118159D01*
X1027481Y1135899D02*
X1118157D01*
X1026581Y1134999D02*
X1117950D01*
X1086618Y1198899D02*
X1117910D01*
X1013500Y1306899D02*
X1117856D01*
X1013500Y1303299D02*
X1117856D01*
X1111539Y1242999D02*
X1117523D01*
X1102939Y1249299D02*
X1117337D01*
X1087214Y1210599D02*
X1117314D01*
X1013500Y1309599D02*
X1117210D01*
X1013500Y1305999D02*
X1117210D01*
X1111685Y1248399D02*
X1117140D01*
X1013500Y1307799D02*
X1117113D01*
X1013500Y1304199D02*
X1117113D01*
X1103247Y1243899D02*
X1117029D01*
X1013500Y1308699D02*
X1116952D01*
X1013500Y1305099D02*
X1116952D01*
X1111812Y1253799D02*
X1116892D01*
X1103469Y1238499D02*
X1116807D01*
X1111923Y1259199D02*
X1116698D01*
X1111928Y1215099D02*
X1116690D01*
X1110561Y1233099D02*
X1116629D01*
X1110591Y1277199D02*
X1116621D01*
X1112020Y1264599D02*
X1116538D01*
X1112025Y1220499D02*
X1116531D01*
X1110976Y1227699D02*
X1116480D01*
X1110991Y1271799D02*
X1116473D01*
X1112107Y1269999D02*
X1116402D01*
X1112111Y1225899D02*
X1116396D01*
X1111234Y1222299D02*
X1116351D01*
X1111245Y1266399D02*
X1116345D01*
X1112183Y1275399D02*
X1116283D01*
X1112187Y1231299D02*
X1116278D01*
X1111432Y1216899D02*
X1116239D01*
X1111441Y1260999D02*
X1116234D01*
X1112251Y1280799D02*
X1116179D01*
X1112254Y1236699D02*
X1116174D01*
X1111595Y1211499D02*
X1116140D01*
X1111603Y1255599D02*
X1116136D01*
X1112314Y1242099D02*
X1116083D01*
X1111740Y1250199D02*
X1116049D01*
X1112367Y1247499D02*
X1116002D01*
X1111860Y1244799D02*
X1115971D01*
X1102919Y1205199D02*
X1115932D01*
X1112412Y1252899D02*
X1115930D01*
X1111965Y1239399D02*
X1115903D01*
X1112452Y1258299D02*
X1115866D01*
X1112454Y1214199D02*
X1115863D01*
X1111692Y1204299D02*
X1115848D01*
X1112057Y1233999D02*
X1115842D01*
X1112062Y1278099D02*
X1115839D01*
X1103234Y1199799D02*
X1115812D01*
X1112486Y1263699D02*
X1115810D01*
X1112487Y1219599D02*
X1115807D01*
X1112140Y1228599D02*
X1115789D01*
X1112143Y1272699D02*
X1115786D01*
X1112513Y1269099D02*
X1115761D01*
X1112515Y1224999D02*
X1115758D01*
X1112213Y1223199D02*
X1115742D01*
X1112216Y1267299D02*
X1115740D01*
X1111818Y1209699D02*
X1115737D01*
X1112536Y1274499D02*
X1115718D01*
X1112537Y1230399D02*
X1115716D01*
X1112277Y1217799D02*
X1115702D01*
X1112280Y1261899D02*
X1115700D01*
X1112553Y1279899D02*
X1115681D01*
X1112553Y1235799D02*
X1115679D01*
X1112334Y1212399D02*
X1115668D01*
X1112337Y1256499D02*
X1115666D01*
X1112565Y1241199D02*
X1115649D01*
X1112387Y1251099D02*
X1115638D01*
X1112571Y1246599D02*
X1115624D01*
X1112430Y1245699D02*
X1115615D01*
X1112572Y1251999D02*
X1115605D01*
X1112467Y1240299D02*
X1115598D01*
X1112568Y1257399D02*
X1115591D01*
X1112568Y1213299D02*
X1115590D01*
X1112498Y1234899D02*
X1115586D01*
X1112499Y1278999D02*
X1115586D01*
X1112559Y1262799D02*
X1115582D01*
X1112558Y1218699D02*
X1115581D01*
X1112523Y1229499D02*
X1115579D01*
X1112524Y1273599D02*
X1115579D01*
X1112544Y1268199D02*
X1115578D01*
X1112543Y1224099D02*
X1115578D01*
X1111734Y1206099D02*
X1115230D01*
X1112369Y1203399D02*
X1115192D01*
X1111854Y1200699D02*
X1115175D01*
X1112415Y1208799D02*
X1115140D01*
X1112384Y1206999D02*
X1114925D01*
X1112571Y1202499D02*
X1114913D01*
X1112428Y1201599D02*
X1114908D01*
X1112572Y1207899D02*
X1114898D01*
X1113396Y1139499D02*
X1114604D01*
X1113663Y1142199D02*
X1114337D01*
X1113960Y1140399D02*
X1114040D01*
X1104574Y1442799D02*
X1113142D01*
X1104584Y1025199D02*
X1113132D01*
X1104943Y1432899D02*
X1112773D01*
X1105517Y1439199D02*
X1112199D01*
X1105684Y1018899D02*
X1112032D01*
X1105687Y1449099D02*
X1112029D01*
X1105835Y1008999D02*
X1111881D01*
X1013500Y1332999D02*
X1111583D01*
X1106157Y1014399D02*
X1111559D01*
X1106262Y1443699D02*
X1111454D01*
X1106264Y1024299D02*
X1111452D01*
X1106361Y1433799D02*
X1111355D01*
X1103499Y1329399D02*
X1111146D01*
X1106576Y1438299D02*
X1111140D01*
X1106650Y1019799D02*
X1111066D01*
X1106651Y1448199D02*
X1111065D01*
X1105887Y1295199D02*
X1111021D01*
X1013500Y1298799D02*
X1111016D01*
X1106719Y1009899D02*
X1110997D01*
X1106875Y1013499D02*
X1110841D01*
X1013500Y1332099D02*
X1110810D01*
X1106928Y1444599D02*
X1110788D01*
X1106929Y1023399D02*
X1110787D01*
X1106977Y1434699D02*
X1110739D01*
X1013500Y1330299D02*
X1110652D01*
X1107083Y1437399D02*
X1110633D01*
X1050806Y1139499D02*
X1110604D01*
X1107119Y1020699D02*
X1110597D01*
X1107119Y1447299D02*
X1110597D01*
X1107152Y1010799D02*
X1110564D01*
X1013500Y1331199D02*
X1110558D01*
X1013500Y1302399D02*
X1110501D01*
X1107220Y1012599D02*
X1110496D01*
X1107241Y1445499D02*
X1110475D01*
X1107242Y1022499D02*
X1110474D01*
X1107260Y1435599D02*
X1110456D01*
X1107293Y1436499D02*
X1110423D01*
X1013500Y1299699D02*
X1110416D01*
X1107301Y1021599D02*
X1110415D01*
X1107301Y1446399D02*
X1110415D01*
X1107306Y1011699D02*
X1110410D01*
X1053506Y1142199D02*
X1110337D01*
X1106048Y1296099D02*
X1110159D01*
X1104773Y1297899D02*
X1110157D01*
X1051706Y1140399D02*
X1110040D01*
X1013500Y1301499D02*
X1110012D01*
X1013500Y1300599D02*
X1109990D01*
X1052606Y1141299D02*
X1109972D01*
X1105790Y1296999D02*
X1109950D01*
X1103647Y1233099D02*
X1109715D01*
X1103655Y1277199D02*
X1109685D01*
X1095088Y1270899D02*
X1109440D01*
X1095106Y1226799D02*
X1109421D01*
X1103796Y1227699D02*
X1109300D01*
X1103803Y1271799D02*
X1109285D01*
X1095388Y1276299D02*
X1109140D01*
X1095400Y1232199D02*
X1109127D01*
X1103925Y1222299D02*
X1109042D01*
X1103931Y1266399D02*
X1109031D01*
X1095607Y1281699D02*
X1108921D01*
X1095616Y1237599D02*
X1108912D01*
X1104037Y1216899D02*
X1108844D01*
X1104042Y1260999D02*
X1108835D01*
X1102753Y1242999D02*
X1108737D01*
X1104136Y1211499D02*
X1108681D01*
X1104140Y1255599D02*
X1108673D01*
X1103136Y1248399D02*
X1108591D01*
X1103150Y1204299D02*
X1108584D01*
X1104223Y1206099D02*
X1108542D01*
X1104227Y1250199D02*
X1108536D01*
X1103384Y1253799D02*
X1108464D01*
X1103395Y1209699D02*
X1108458D01*
X1104301Y1200699D02*
X1108422D01*
X1104305Y1244799D02*
X1108416D01*
X1103578Y1259199D02*
X1108353D01*
X1103586Y1215099D02*
X1108348D01*
X1104373Y1239399D02*
X1108311D01*
X1103738Y1264599D02*
X1108256D01*
X1103745Y1220499D02*
X1108251D01*
X1104434Y1233999D02*
X1108219D01*
X1104437Y1278099D02*
X1108214D01*
X1103874Y1269999D02*
X1108169D01*
X1103880Y1225899D02*
X1108165D01*
X1104487Y1228599D02*
X1108136D01*
X1104490Y1272699D02*
X1108133D01*
X1103993Y1275399D02*
X1108093D01*
X1103998Y1231299D02*
X1108089D01*
X1104534Y1223199D02*
X1108063D01*
X1104536Y1267299D02*
X1108060D01*
X1104097Y1280799D02*
X1108025D01*
X1104102Y1236699D02*
X1108022D01*
X1104574Y1217799D02*
X1107999D01*
X1104576Y1261899D02*
X1107996D01*
X1104193Y1242099D02*
X1107962D01*
X1104608Y1212399D02*
X1107942D01*
X1104610Y1256499D02*
X1107939D01*
X1104274Y1247499D02*
X1107909D01*
X1104278Y1203399D02*
X1107907D01*
X1104637Y1206999D02*
X1107892D01*
X1104638Y1251099D02*
X1107889D01*
X1104346Y1252899D02*
X1107863D01*
X1104349Y1208799D02*
X1107861D01*
X1104659Y1201599D02*
X1107848D01*
X1104660Y1245699D02*
X1107846D01*
X1104410Y1258299D02*
X1107824D01*
X1104413Y1214199D02*
X1107822D01*
X1104678Y1240299D02*
X1107809D01*
X1104466Y1263699D02*
X1107790D01*
X1104469Y1219599D02*
X1107789D01*
X1104690Y1234899D02*
X1107778D01*
X1104690Y1278999D02*
X1107777D01*
X1104515Y1269099D02*
X1107763D01*
X1104518Y1224999D02*
X1107761D01*
X1104696Y1229499D02*
X1107753D01*
X1104697Y1273599D02*
X1107751D01*
X1104558Y1274499D02*
X1107740D01*
X1104560Y1230399D02*
X1107739D01*
X1104698Y1224099D02*
X1107733D01*
X1104698Y1268199D02*
X1107732D01*
X1104595Y1279899D02*
X1107723D01*
X1104596Y1235799D02*
X1107723D01*
X1104695Y1218699D02*
X1107718D01*
X1104694Y1262799D02*
X1107717D01*
X1104627Y1241199D02*
X1107711D01*
X1104686Y1213299D02*
X1107708D01*
X1104685Y1257399D02*
X1107708D01*
X1104652Y1246599D02*
X1107705D01*
X1104653Y1202499D02*
X1107705D01*
X1104672Y1207899D02*
X1107704D01*
X1104671Y1251999D02*
X1107704D01*
X1106499Y1149399D02*
X1107501D01*
X1106584Y1146699D02*
X1107416D01*
X1106988Y1148499D02*
X1107012D01*
X1060706Y1149399D02*
X1103501D01*
X1058006Y1146699D02*
X1103416D01*
X1013500Y1297899D02*
X1103227D01*
X1094574Y1442799D02*
X1103142D01*
X1094584Y1025199D02*
X1103132D01*
X1059806Y1148499D02*
X1103012D01*
X1058906Y1147599D02*
X1102990D01*
X1098161Y1294299D02*
X1102856D01*
X1094943Y1432899D02*
X1102773D01*
X1098228Y1293399D02*
X1102501D01*
X1089499Y1329399D02*
X1102501D01*
X1013500Y1290699D02*
X1102416D01*
X1013500Y1296999D02*
X1102210D01*
X1095517Y1439199D02*
X1102199D01*
X1097599Y1295199D02*
X1102113D01*
X1089965Y1400499D02*
X1102035D01*
X1095684Y1018899D02*
X1102032D01*
X1095687Y1449099D02*
X1102029D01*
X1097861Y1292499D02*
X1102012D01*
X1092167Y1291599D02*
X1101990D01*
X1013500Y1296099D02*
X1101952D01*
X1095835Y1008999D02*
X1101881D01*
X1095790Y1242999D02*
X1101775D01*
X1090260Y1324899D02*
X1101740D01*
X1088596Y1205199D02*
X1101609D01*
X1087191Y1249299D02*
X1101589D01*
X1096157Y1014399D02*
X1101559D01*
X1096262Y1443699D02*
X1101454D01*
X1096264Y1024299D02*
X1101452D01*
X1095937Y1248399D02*
X1101392D01*
X1095944Y1204299D02*
X1101378D01*
X1096361Y1433799D02*
X1101355D01*
X1088716Y1199799D02*
X1101294D01*
X1087499Y1243899D02*
X1101281D01*
X1096064Y1253799D02*
X1101144D01*
X1096576Y1438299D02*
X1101140D01*
X1096070Y1209699D02*
X1101133D01*
X1096650Y1019799D02*
X1101066D01*
X1096651Y1448199D02*
X1101065D01*
X1090938Y1328499D02*
X1101062D01*
X1087721Y1238499D02*
X1101059D01*
X1096719Y1009899D02*
X1100997D01*
X1091039Y1395099D02*
X1100961D01*
X1091042Y1405899D02*
X1100958D01*
X1096175Y1259199D02*
X1100950D01*
X1096180Y1215099D02*
X1100942D01*
X1094813Y1233099D02*
X1100881D01*
X1094843Y1277199D02*
X1100873D01*
X1091135Y1325799D02*
X1100865D01*
X1096875Y1013499D02*
X1100841D01*
X1096272Y1264599D02*
X1100790D01*
X1096928Y1444599D02*
X1100788D01*
X1096929Y1023399D02*
X1100787D01*
X1096277Y1220499D02*
X1100783D01*
X1096977Y1434699D02*
X1100739D01*
X1095228Y1227699D02*
X1100732D01*
X1095243Y1271799D02*
X1100725D01*
X1096358Y1269999D02*
X1100654D01*
X1091347Y1401399D02*
X1100653D01*
X1091349Y1399599D02*
X1100651D01*
X1096362Y1225899D02*
X1100648D01*
X1097083Y1437399D02*
X1100633D01*
X1091376Y1327599D02*
X1100624D01*
X1095486Y1222299D02*
X1100603D01*
X1095497Y1266399D02*
X1100597D01*
X1097119Y1020699D02*
X1100597D01*
X1097119Y1447299D02*
X1100597D01*
X1091431Y1326699D02*
X1100569D01*
X1097152Y1010799D02*
X1100564D01*
X1096435Y1275399D02*
X1100535D01*
X1096439Y1231299D02*
X1100530D01*
X1097220Y1012599D02*
X1100496D01*
X1095684Y1216899D02*
X1100491D01*
X1095693Y1260999D02*
X1100486D01*
X1097241Y1445499D02*
X1100475D01*
X1097242Y1022499D02*
X1100474D01*
X1097260Y1435599D02*
X1100456D01*
X1096503Y1280799D02*
X1100431D01*
X1096506Y1236699D02*
X1100426D01*
X1097293Y1436499D02*
X1100423D01*
X1097301Y1021599D02*
X1100415D01*
X1097301Y1446399D02*
X1100415D01*
X1097306Y1011699D02*
X1100410D01*
X1095847Y1211499D02*
X1100392D01*
X1095854Y1255599D02*
X1100388D01*
X1096566Y1242099D02*
X1100335D01*
X1095986Y1206099D02*
X1100305D01*
X1095992Y1250199D02*
X1100300D01*
X1096619Y1247499D02*
X1100254D01*
X1096621Y1203399D02*
X1100250D01*
X1091769Y1395999D02*
X1100231D01*
X1091771Y1404999D02*
X1100229D01*
X1096106Y1200699D02*
X1100227D01*
X1096112Y1244799D02*
X1100223D01*
X1096664Y1252899D02*
X1100182D01*
X1096667Y1208799D02*
X1100178D01*
X1096217Y1239399D02*
X1100155D01*
X1096704Y1258299D02*
X1100118D01*
X1096706Y1214199D02*
X1100115D01*
X1096309Y1233999D02*
X1100094D01*
X1096314Y1278099D02*
X1100091D01*
X1091912Y1402299D02*
X1100088D01*
X1091913Y1398699D02*
X1100087D01*
X1096738Y1263699D02*
X1100062D01*
X1096739Y1219599D02*
X1100059D01*
X1096392Y1228599D02*
X1100041D01*
X1096395Y1272699D02*
X1100038D01*
X1096765Y1269099D02*
X1100013D01*
X1096767Y1224999D02*
X1100010D01*
X1096464Y1223199D02*
X1099994D01*
X1096468Y1267299D02*
X1099992D01*
X1096788Y1274499D02*
X1099970D01*
X1096789Y1230399D02*
X1099968D01*
X1096529Y1217799D02*
X1099954D01*
X1096532Y1261899D02*
X1099952D01*
X1096805Y1279899D02*
X1099933D01*
X1096805Y1235799D02*
X1099931D01*
X1096586Y1212399D02*
X1099920D01*
X1096589Y1256499D02*
X1099918D01*
X1092092Y1396899D02*
X1099908D01*
X1092093Y1404099D02*
X1099907D01*
X1096817Y1241199D02*
X1099901D01*
X1096636Y1206999D02*
X1099891D01*
X1096638Y1251099D02*
X1099890D01*
X1096823Y1246599D02*
X1099876D01*
X1096823Y1202499D02*
X1099875D01*
X1096680Y1201599D02*
X1099868D01*
X1096682Y1245699D02*
X1099867D01*
X1092136Y1403199D02*
X1099864D01*
X1092136Y1397799D02*
X1099864D01*
X1096824Y1251999D02*
X1099857D01*
X1096824Y1207899D02*
X1099856D01*
X1096719Y1240299D02*
X1099850D01*
X1096820Y1257399D02*
X1099842D01*
X1096820Y1213299D02*
X1099842D01*
X1096750Y1234899D02*
X1099838D01*
X1096751Y1278999D02*
X1099838D01*
X1096811Y1262799D02*
X1099834D01*
X1096810Y1218699D02*
X1099833D01*
X1096775Y1229499D02*
X1099831D01*
X1096776Y1273599D02*
X1099831D01*
X1096796Y1268199D02*
X1099830D01*
X1096795Y1224099D02*
X1099830D01*
X1096773Y1153899D02*
X1099227D01*
X1097144Y1150299D02*
X1098856D01*
X1097790Y1152999D02*
X1098210D01*
X1097887Y1151199D02*
X1098113D01*
X1063100Y1153899D02*
X1095227D01*
X1061606Y1150299D02*
X1094856D01*
X1092548Y1295199D02*
X1094801D01*
X1093189Y1292499D02*
X1094539D01*
X1093288Y1294299D02*
X1094239D01*
X1063100Y1152999D02*
X1094210D01*
X1093448Y1293399D02*
X1094172D01*
X1062506Y1151199D02*
X1094113D01*
X1087899Y1233099D02*
X1093967D01*
X1063100Y1152099D02*
X1093952D01*
X1087907Y1277199D02*
X1093936D01*
X1079340Y1270899D02*
X1093692D01*
X1079358Y1226799D02*
X1093673D01*
X1088048Y1227699D02*
X1093552D01*
X1088055Y1271799D02*
X1093537D01*
X1079640Y1276299D02*
X1093392D01*
X1079652Y1232199D02*
X1093379D01*
X1088177Y1222299D02*
X1093294D01*
X1088182Y1266399D02*
X1093283D01*
X1079859Y1281699D02*
X1093173D01*
X1079868Y1237599D02*
X1093164D01*
X1084574Y1442799D02*
X1093142D01*
X1084584Y1025199D02*
X1093132D01*
X1088289Y1216899D02*
X1093096D01*
X1088294Y1260999D02*
X1093087D01*
X1087005Y1242999D02*
X1092989D01*
X1088388Y1211499D02*
X1092933D01*
X1088392Y1255599D02*
X1092925D01*
X1087387Y1248399D02*
X1092843D01*
X1088680Y1204299D02*
X1092836D01*
X1089298Y1206099D02*
X1092794D01*
X1088479Y1250199D02*
X1092788D01*
X1084943Y1432899D02*
X1092773D01*
X1087636Y1253799D02*
X1092716D01*
X1088791Y1209699D02*
X1092710D01*
X1089353Y1200699D02*
X1092674D01*
X1088557Y1244799D02*
X1092668D01*
X1087830Y1259199D02*
X1092605D01*
X1087838Y1215099D02*
X1092600D01*
X1088625Y1239399D02*
X1092563D01*
X1087990Y1264599D02*
X1092508D01*
X1087997Y1220499D02*
X1092503D01*
X1088686Y1233999D02*
X1092471D01*
X1088689Y1278099D02*
X1092466D01*
X1088126Y1269999D02*
X1092421D01*
X1088132Y1225899D02*
X1092417D01*
X1088739Y1228599D02*
X1092388D01*
X1088741Y1272699D02*
X1092385D01*
X1088245Y1275399D02*
X1092345D01*
X1088250Y1231299D02*
X1092341D01*
X1088786Y1223199D02*
X1092315D01*
X1088788Y1267299D02*
X1092312D01*
X1088349Y1280799D02*
X1092277D01*
X1088354Y1236699D02*
X1092274D01*
X1088826Y1217799D02*
X1092251D01*
X1088828Y1261899D02*
X1092248D01*
X1088445Y1242099D02*
X1092214D01*
X1085517Y1439199D02*
X1092199D01*
X1088860Y1212399D02*
X1092194D01*
X1088862Y1256499D02*
X1092191D01*
X1088526Y1247499D02*
X1092161D01*
X1089336Y1203399D02*
X1092159D01*
X1089603Y1206999D02*
X1092144D01*
X1088890Y1251099D02*
X1092141D01*
X1088598Y1252899D02*
X1092115D01*
X1089388Y1208799D02*
X1092113D01*
X1089620Y1201599D02*
X1092100D01*
X1088912Y1245699D02*
X1092098D01*
X1088662Y1258299D02*
X1092076D01*
X1088665Y1214199D02*
X1092074D01*
X1088930Y1240299D02*
X1092061D01*
X1088718Y1263699D02*
X1092042D01*
X1088721Y1219599D02*
X1092041D01*
X1085684Y1018899D02*
X1092032D01*
X1088942Y1234899D02*
X1092030D01*
X1085687Y1449099D02*
X1092029D01*
X1088942Y1278999D02*
X1092029D01*
X1088767Y1269099D02*
X1092014D01*
X1088770Y1224999D02*
X1092013D01*
X1088948Y1229499D02*
X1092005D01*
X1088949Y1273599D02*
X1092003D01*
X1088810Y1274499D02*
X1091992D01*
X1088812Y1230399D02*
X1091991D01*
X1088950Y1224099D02*
X1091984D01*
X1088950Y1268199D02*
X1091984D01*
X1088847Y1279899D02*
X1091975D01*
X1088848Y1235799D02*
X1091975D01*
X1088947Y1218699D02*
X1091970D01*
X1088946Y1262799D02*
X1091969D01*
X1088879Y1241199D02*
X1091963D01*
X1088938Y1213299D02*
X1091960D01*
X1088937Y1257399D02*
X1091960D01*
X1088904Y1246599D02*
X1091957D01*
X1089615Y1202499D02*
X1091957D01*
X1089630Y1207899D02*
X1091956D01*
X1088923Y1251999D02*
X1091956D01*
X1085835Y1008999D02*
X1091881D01*
X1090396Y1157499D02*
X1091604D01*
X1086157Y1014399D02*
X1091559D01*
X1086262Y1443699D02*
X1091454D01*
X1086264Y1024299D02*
X1091452D01*
X1086361Y1433799D02*
X1091355D01*
X1090663Y1160199D02*
X1091337D01*
X1086576Y1438299D02*
X1091140D01*
X1086650Y1019799D02*
X1091066D01*
X1086651Y1448199D02*
X1091065D01*
X1090960Y1158399D02*
X1091040D01*
X1086719Y1009899D02*
X1090997D01*
X1086875Y1013499D02*
X1090841D01*
X1086928Y1444599D02*
X1090788D01*
X1086929Y1023399D02*
X1090787D01*
X1086977Y1434699D02*
X1090739D01*
X1013500Y1291599D02*
X1090633D01*
X1087083Y1437399D02*
X1090633D01*
X1087119Y1020699D02*
X1090597D01*
X1087119Y1447299D02*
X1090597D01*
X1087152Y1010799D02*
X1090564D01*
X1087220Y1012599D02*
X1090496D01*
X1087241Y1445499D02*
X1090475D01*
X1087242Y1022499D02*
X1090474D01*
X1087260Y1435599D02*
X1090456D01*
X1087293Y1436499D02*
X1090423D01*
X1087301Y1021599D02*
X1090415D01*
X1087301Y1446399D02*
X1090415D01*
X1087306Y1011699D02*
X1090410D01*
X1013500Y1295199D02*
X1090252D01*
X1013500Y1292499D02*
X1089611D01*
X1013500Y1294299D02*
X1089512D01*
X1013500Y1293399D02*
X1089352D01*
X1013500Y1329399D02*
X1088501D01*
X1038706Y1400499D02*
X1088035D01*
X1071944Y1324899D02*
X1087740D01*
X1063100Y1157499D02*
X1087604D01*
X1063100Y1160199D02*
X1087337D01*
X1071573Y1328499D02*
X1087062D01*
X1063100Y1158399D02*
X1087040D01*
X1063100Y1159299D02*
X1086972D01*
X1033306Y1395099D02*
X1086961D01*
X1044106Y1405899D02*
X1086958D01*
X1072687Y1325799D02*
X1086865D01*
X1039606Y1401399D02*
X1086653D01*
X1037806Y1399599D02*
X1086651D01*
X1072590Y1327599D02*
X1086624D01*
X1072848Y1326699D02*
X1086569D01*
X1070870Y1198899D02*
X1086414D01*
X1034206Y1395999D02*
X1086231D01*
X1043206Y1404999D02*
X1086229D01*
X1040506Y1402299D02*
X1086088D01*
X1036906Y1398699D02*
X1086087D01*
X1080042Y1242999D02*
X1086027D01*
X1035106Y1396899D02*
X1085908D01*
X1042306Y1404099D02*
X1085907D01*
X1041406Y1403199D02*
X1085864D01*
X1036006Y1397799D02*
X1085864D01*
X1071443Y1249299D02*
X1085841D01*
X1080297Y1210599D02*
X1085818D01*
X1080189Y1248399D02*
X1085644D01*
X1071751Y1243899D02*
X1085533D01*
X1080316Y1253799D02*
X1085395D01*
X1071973Y1238499D02*
X1085311D01*
X1080426Y1259199D02*
X1085202D01*
X1080432Y1215099D02*
X1085194D01*
X1079065Y1233099D02*
X1085133D01*
X1079095Y1277199D02*
X1085125D01*
X1080524Y1264599D02*
X1085042D01*
X1080529Y1220499D02*
X1085035D01*
X1079480Y1227699D02*
X1084984D01*
X1079495Y1271799D02*
X1084977D01*
X1080610Y1269999D02*
X1084906D01*
X1080614Y1225899D02*
X1084900D01*
X1079738Y1222299D02*
X1084855D01*
X1079749Y1266399D02*
X1084849D01*
X1080687Y1275399D02*
X1084787D01*
X1080691Y1231299D02*
X1084782D01*
X1079936Y1216899D02*
X1084743D01*
X1079945Y1260999D02*
X1084738D01*
X1080755Y1280799D02*
X1084683D01*
X1080758Y1236699D02*
X1084678D01*
X1080099Y1211499D02*
X1084644D01*
X1080106Y1255599D02*
X1084640D01*
X1080818Y1242099D02*
X1084587D01*
X1080244Y1250199D02*
X1084552D01*
X1080871Y1247499D02*
X1084506D01*
X1080364Y1244799D02*
X1084475D01*
X1080167Y1205199D02*
X1084436D01*
X1080916Y1252899D02*
X1084434D01*
X1080469Y1239399D02*
X1084407D01*
X1080956Y1258299D02*
X1084370D01*
X1080958Y1214199D02*
X1084367D01*
X1081154Y1204299D02*
X1084352D01*
X1080561Y1233999D02*
X1084346D01*
X1080566Y1278099D02*
X1084343D01*
X1080353Y1199799D02*
X1084316D01*
X1080990Y1263699D02*
X1084314D01*
X1080991Y1219599D02*
X1084311D01*
X1080644Y1228599D02*
X1084293D01*
X1080647Y1272699D02*
X1084290D01*
X1081017Y1269099D02*
X1084265D01*
X1081019Y1224999D02*
X1084262D01*
X1080716Y1223199D02*
X1084246D01*
X1080720Y1267299D02*
X1084244D01*
X1081234Y1209699D02*
X1084241D01*
X1081040Y1274499D02*
X1084222D01*
X1081041Y1230399D02*
X1084220D01*
X1080781Y1217799D02*
X1084206D01*
X1080784Y1261899D02*
X1084204D01*
X1081057Y1279899D02*
X1084185D01*
X1081057Y1235799D02*
X1084183D01*
X1080838Y1212399D02*
X1084172D01*
X1080841Y1256499D02*
X1084170D01*
X1081069Y1241199D02*
X1084153D01*
X1080890Y1251099D02*
X1084142D01*
X1081075Y1246599D02*
X1084128D01*
X1080934Y1245699D02*
X1084119D01*
X1081076Y1251999D02*
X1084109D01*
X1080971Y1240299D02*
X1084102D01*
X1081072Y1257399D02*
X1084094D01*
X1081072Y1213299D02*
X1084094D01*
X1081002Y1234899D02*
X1084090D01*
X1081003Y1278999D02*
X1084090D01*
X1081063Y1262799D02*
X1084086D01*
X1081062Y1218699D02*
X1084085D01*
X1081027Y1229499D02*
X1084083D01*
X1081028Y1273599D02*
X1084083D01*
X1081048Y1268199D02*
X1084082D01*
X1081047Y1224099D02*
X1084082D01*
X1081181Y1206099D02*
X1083734D01*
X1081621Y1203399D02*
X1083696D01*
X1081258Y1200699D02*
X1083679D01*
X1081655Y1208799D02*
X1083644D01*
X1081632Y1206999D02*
X1083429D01*
X1081775Y1202499D02*
X1083417D01*
X1081665Y1201599D02*
X1083412D01*
X1081776Y1207899D02*
X1083402D01*
X1074574Y1442799D02*
X1083142D01*
X1074584Y1025199D02*
X1083132D01*
X1074943Y1432899D02*
X1082773D01*
X1075517Y1439199D02*
X1082199D01*
X1075684Y1018899D02*
X1082032D01*
X1075687Y1449099D02*
X1082029D01*
X1075835Y1008999D02*
X1081881D01*
X1076157Y1014399D02*
X1081559D01*
X1076262Y1443699D02*
X1081454D01*
X1076264Y1024299D02*
X1081452D01*
X1076361Y1433799D02*
X1081355D01*
X1076576Y1438299D02*
X1081140D01*
X1076650Y1019799D02*
X1081066D01*
X1076651Y1448199D02*
X1081065D01*
X1076719Y1009899D02*
X1080997D01*
X1076875Y1013499D02*
X1080841D01*
X1076928Y1444599D02*
X1080788D01*
X1076929Y1023399D02*
X1080787D01*
X1076977Y1434699D02*
X1080739D01*
X1077083Y1437399D02*
X1080633D01*
X1077119Y1020699D02*
X1080597D01*
X1077119Y1447299D02*
X1080597D01*
X1077152Y1010799D02*
X1080564D01*
X1077220Y1012599D02*
X1080496D01*
X1077241Y1445499D02*
X1080475D01*
X1077242Y1022499D02*
X1080474D01*
X1077260Y1435599D02*
X1080456D01*
X1077293Y1436499D02*
X1080423D01*
X1077301Y1021599D02*
X1080415D01*
X1077301Y1446399D02*
X1080415D01*
X1077306Y1011699D02*
X1080410D01*
X1072151Y1233099D02*
X1078219D01*
X1072159Y1277199D02*
X1078188D01*
X1063592Y1270899D02*
X1077944D01*
X1064994Y1226799D02*
X1077925D01*
X1072300Y1227699D02*
X1077804D01*
X1072307Y1271799D02*
X1077789D01*
X1063892Y1276299D02*
X1077644D01*
X1063904Y1232199D02*
X1077631D01*
X1072429Y1222299D02*
X1077546D01*
X1072434Y1266399D02*
X1077535D01*
X1064111Y1281699D02*
X1077425D01*
X1064120Y1237599D02*
X1077416D01*
X1072541Y1216899D02*
X1077348D01*
X1072546Y1260999D02*
X1077339D01*
X1071257Y1242999D02*
X1077241D01*
X1072640Y1211499D02*
X1077185D01*
X1072644Y1255599D02*
X1077177D01*
X1072848Y1205199D02*
X1077117D01*
X1071639Y1248399D02*
X1077095D01*
X1072731Y1250199D02*
X1077040D01*
X1071466Y1210599D02*
X1076987D01*
X1071888Y1253799D02*
X1076968D01*
X1072968Y1199799D02*
X1076931D01*
X1072809Y1244799D02*
X1076920D01*
X1072082Y1259199D02*
X1076857D01*
X1072090Y1215099D02*
X1076852D01*
X1072877Y1239399D02*
X1076815D01*
X1072242Y1264599D02*
X1076760D01*
X1072249Y1220499D02*
X1076755D01*
X1072938Y1233999D02*
X1076722D01*
X1072940Y1278099D02*
X1076718D01*
X1072378Y1269999D02*
X1076673D01*
X1072384Y1225899D02*
X1076669D01*
X1072991Y1228599D02*
X1076640D01*
X1072993Y1272699D02*
X1076636D01*
X1072497Y1275399D02*
X1076597D01*
X1072502Y1231299D02*
X1076593D01*
X1073038Y1223199D02*
X1076567D01*
X1073040Y1267299D02*
X1076564D01*
X1072601Y1280799D02*
X1076529D01*
X1072605Y1236699D02*
X1076526D01*
X1073078Y1217799D02*
X1076503D01*
X1073080Y1261899D02*
X1076500D01*
X1072697Y1242099D02*
X1076466D01*
X1073112Y1212399D02*
X1076446D01*
X1073114Y1256499D02*
X1076443D01*
X1072778Y1247499D02*
X1076413D01*
X1073142Y1251099D02*
X1076393D01*
X1072850Y1252899D02*
X1076367D01*
X1073164Y1245699D02*
X1076350D01*
X1072914Y1258299D02*
X1076328D01*
X1072917Y1214199D02*
X1076326D01*
X1073182Y1240299D02*
X1076313D01*
X1072970Y1263699D02*
X1076294D01*
X1072973Y1219599D02*
X1076293D01*
X1073194Y1234899D02*
X1076282D01*
X1073194Y1278999D02*
X1076281D01*
X1073019Y1269099D02*
X1076266D01*
X1073022Y1224999D02*
X1076265D01*
X1073200Y1229499D02*
X1076257D01*
X1073201Y1273599D02*
X1076255D01*
X1073062Y1274499D02*
X1076244D01*
X1073064Y1230399D02*
X1076243D01*
X1073202Y1224099D02*
X1076236D01*
X1073202Y1268199D02*
X1076236D01*
X1073099Y1279899D02*
X1076227D01*
X1073100Y1235799D02*
X1076227D01*
X1073199Y1218699D02*
X1076222D01*
X1073198Y1262799D02*
X1076221D01*
X1073131Y1241199D02*
X1076215D01*
X1073190Y1213299D02*
X1076212D01*
X1073189Y1257399D02*
X1076212D01*
X1073156Y1246599D02*
X1076209D01*
X1073175Y1251999D02*
X1076208D01*
X1072932Y1204299D02*
X1076129D01*
X1073549Y1206099D02*
X1076103D01*
X1073043Y1209699D02*
X1076050D01*
X1073605Y1200699D02*
X1076026D01*
X1073588Y1203399D02*
X1075663D01*
X1073855Y1206999D02*
X1075651D01*
X1073640Y1208799D02*
X1075628D01*
X1073872Y1201599D02*
X1075619D01*
X1073867Y1202499D02*
X1075508D01*
X1073882Y1207899D02*
X1075508D01*
X1064584Y1025199D02*
X1073132D01*
X1071106Y1432899D02*
X1072773D01*
X1065684Y1018899D02*
X1072032D01*
X1013500Y1315899D02*
X1072004D01*
X1065835Y1008999D02*
X1071881D01*
X1013500Y1318599D02*
X1071737D01*
X1066157Y1014399D02*
X1071559D01*
X1066264Y1024299D02*
X1071452D01*
X1013500Y1316799D02*
X1071440D01*
X1013500Y1317699D02*
X1071372D01*
X1066650Y1019799D02*
X1071066D01*
X1066719Y1009899D02*
X1070997D01*
X1066875Y1013499D02*
X1070841D01*
X1066929Y1023399D02*
X1070787D01*
X1055122Y1198899D02*
X1070666D01*
X1067119Y1020699D02*
X1070597D01*
X1067152Y1010799D02*
X1070564D01*
X1067220Y1012599D02*
X1070496D01*
X1067242Y1022499D02*
X1070474D01*
X1067301Y1021599D02*
X1070415D01*
X1067306Y1011699D02*
X1070410D01*
X1065315Y1242999D02*
X1070279D01*
X1064343Y1249299D02*
X1070093D01*
X1064549Y1210599D02*
X1070070D01*
X1013500Y1328499D02*
X1070027D01*
X1065402Y1248399D02*
X1069896D01*
X1064613Y1243899D02*
X1069785D01*
X1013500Y1324899D02*
X1069656D01*
X1064568Y1253799D02*
X1069647D01*
X1064772Y1238499D02*
X1069563D01*
X1064678Y1259199D02*
X1069454D01*
X1065559Y1215099D02*
X1069446D01*
X1063317Y1233099D02*
X1069385D01*
X1063347Y1277199D02*
X1069377D01*
X1064776Y1264599D02*
X1069294D01*
X1065625Y1220499D02*
X1069287D01*
X1063732Y1227699D02*
X1069236D01*
X1063747Y1271799D02*
X1069229D01*
X1064862Y1269999D02*
X1069158D01*
X1065685Y1225899D02*
X1069151D01*
X1065152Y1222299D02*
X1069107D01*
X1064001Y1266399D02*
X1069101D01*
X1064939Y1275399D02*
X1069039D01*
X1064943Y1231299D02*
X1069034D01*
X1013500Y1327599D02*
X1069010D01*
X1065255Y1216899D02*
X1068995D01*
X1064197Y1260999D02*
X1068990D01*
X1065007Y1280799D02*
X1068935D01*
X1065010Y1236699D02*
X1068930D01*
X1013500Y1325799D02*
X1068913D01*
X1065348Y1211499D02*
X1068896D01*
X1064358Y1255599D02*
X1068891D01*
X1065832Y1242099D02*
X1068839D01*
X1064496Y1250199D02*
X1068804D01*
X1065871Y1247499D02*
X1068758D01*
X1013500Y1326699D02*
X1068752D01*
X1065514Y1244799D02*
X1068727D01*
X1064419Y1205199D02*
X1068688D01*
X1065168Y1252899D02*
X1068686D01*
X1065584Y1239399D02*
X1068659D01*
X1065208Y1258299D02*
X1068622D01*
X1065937Y1214199D02*
X1068619D01*
X1065406Y1204299D02*
X1068604D01*
X1064813Y1233999D02*
X1068598D01*
X1064818Y1278099D02*
X1068595D01*
X1064604Y1199799D02*
X1068568D01*
X1065241Y1263699D02*
X1068566D01*
X1065962Y1219599D02*
X1068563D01*
X1064895Y1228599D02*
X1068545D01*
X1064899Y1272699D02*
X1068542D01*
X1065269Y1269099D02*
X1068516D01*
X1065984Y1224999D02*
X1068514D01*
X1065758Y1223199D02*
X1068498D01*
X1064972Y1267299D02*
X1068496D01*
X1065486Y1209699D02*
X1068493D01*
X1065292Y1274499D02*
X1068474D01*
X1065293Y1230399D02*
X1068472D01*
X1065805Y1217799D02*
X1068458D01*
X1065036Y1261899D02*
X1068456D01*
X1065309Y1279899D02*
X1068437D01*
X1065309Y1235799D02*
X1068435D01*
X1065847Y1212399D02*
X1068424D01*
X1065093Y1256499D02*
X1068422D01*
X1066022Y1241199D02*
X1068405D01*
X1065142Y1251099D02*
X1068394D01*
X1066027Y1246599D02*
X1068380D01*
X1065919Y1245699D02*
X1068371D01*
X1065328Y1251999D02*
X1068361D01*
X1065947Y1240299D02*
X1068354D01*
X1065324Y1257399D02*
X1068346D01*
X1066025Y1213299D02*
X1068346D01*
X1065254Y1234899D02*
X1068342D01*
X1065255Y1278999D02*
X1068342D01*
X1065315Y1262799D02*
X1068338D01*
X1066017Y1218699D02*
X1068337D01*
X1065279Y1229499D02*
X1068335D01*
X1065280Y1273599D02*
X1068335D01*
X1065300Y1268199D02*
X1068334D01*
X1066006Y1224099D02*
X1068334D01*
X1065433Y1206099D02*
X1067986D01*
X1065873Y1203399D02*
X1067948D01*
X1065510Y1200699D02*
X1067931D01*
X1065907Y1208799D02*
X1067896D01*
X1065884Y1206999D02*
X1067681D01*
X1066027Y1202499D02*
X1067669D01*
X1065917Y1201599D02*
X1067664D01*
X1066028Y1207899D02*
X1067654D01*
X1047570Y1025199D02*
X1063132D01*
X1056403Y1233099D02*
X1062471D01*
X1056410Y1277199D02*
X1062440D01*
X1022592Y1270899D02*
X1062196D01*
X1056552Y1227699D02*
X1062056D01*
X1056559Y1271799D02*
X1062041D01*
X1047811Y1018899D02*
X1062032D01*
X1013500Y1276299D02*
X1061896D01*
X1022756Y1232199D02*
X1061883D01*
X1047811Y1008999D02*
X1061881D01*
X1056686Y1266399D02*
X1061787D01*
X1013500Y1281699D02*
X1061677D01*
X1055875Y1237599D02*
X1061668D01*
X1056798Y1260999D02*
X1061591D01*
X1047811Y1014399D02*
X1061559D01*
X1047677Y1024299D02*
X1061452D01*
X1055695Y1249299D02*
X1061445D01*
X1056896Y1255599D02*
X1061429D01*
X1057100Y1205199D02*
X1061369D01*
X1056983Y1250199D02*
X1061292D01*
X1056967Y1210599D02*
X1061239D01*
X1056140Y1253799D02*
X1061220D01*
X1057220Y1199799D02*
X1061183D01*
X1057225Y1243899D02*
X1061175D01*
X1056334Y1259199D02*
X1061109D01*
X1056817Y1215999D02*
X1061072D01*
X1047811Y1019799D02*
X1061066D01*
X1057333Y1238499D02*
X1061015D01*
X1056494Y1264599D02*
X1061012D01*
X1047811Y1009899D02*
X1060997D01*
X1057190Y1233999D02*
X1060974D01*
X1057192Y1278099D02*
X1060970D01*
X1056630Y1269999D02*
X1060925D01*
X1056645Y1221399D02*
X1060924D01*
X1057243Y1228599D02*
X1060892D01*
X1057245Y1272699D02*
X1060888D01*
X1056749Y1275399D02*
X1060849D01*
X1056754Y1231299D02*
X1060845D01*
X1047811Y1013499D02*
X1060841D01*
X1057292Y1267299D02*
X1060816D01*
X1056577Y1226799D02*
X1060794D01*
X1047753Y1023399D02*
X1060787D01*
X1056853Y1280799D02*
X1060781D01*
X1056857Y1236699D02*
X1060778D01*
X1057332Y1261899D02*
X1060752D01*
X1057366Y1256499D02*
X1060695D01*
X1057394Y1251099D02*
X1060645D01*
X1057600Y1222299D02*
X1060636D01*
X1057102Y1252899D02*
X1060619D01*
X1047811Y1020699D02*
X1060597D01*
X1057166Y1258299D02*
X1060580D01*
X1047811Y1010799D02*
X1060564D01*
X1057222Y1263699D02*
X1060546D01*
X1057446Y1234899D02*
X1060534D01*
X1057673Y1216899D02*
X1060533D01*
X1057446Y1278999D02*
X1060533D01*
X1057271Y1269099D02*
X1060518D01*
X1057452Y1229499D02*
X1060508D01*
X1057453Y1273599D02*
X1060507D01*
X1057314Y1274499D02*
X1060496D01*
X1047811Y1012599D02*
X1060496D01*
X1057316Y1230399D02*
X1060495D01*
X1057454Y1268199D02*
X1060488D01*
X1057351Y1279899D02*
X1060479D01*
X1057352Y1235799D02*
X1060479D01*
X1047798Y1022499D02*
X1060474D01*
X1057054Y1242999D02*
X1060473D01*
X1057450Y1262799D02*
X1060473D01*
X1057441Y1257399D02*
X1060464D01*
X1057427Y1251999D02*
X1060460D01*
X1057740Y1211499D02*
X1060440D01*
X1047811Y1021599D02*
X1060415D01*
X1047811Y1011699D02*
X1060410D01*
X1057178Y1248399D02*
X1060385D01*
X1057184Y1204299D02*
X1060381D01*
X1057801Y1206099D02*
X1060355D01*
X1057295Y1209699D02*
X1060302D01*
X1057857Y1200699D02*
X1060278D01*
X1057859Y1244799D02*
X1060274D01*
X1057396Y1215099D02*
X1060229D01*
X1057909Y1239399D02*
X1060204D01*
X1057488Y1220499D02*
X1060163D01*
X1057571Y1225899D02*
X1060103D01*
X1058028Y1223199D02*
X1060030D01*
X1058059Y1217799D02*
X1059983D01*
X1057780Y1242099D02*
X1059956D01*
X1058085Y1212399D02*
X1059941D01*
X1057837Y1247499D02*
X1059916D01*
X1057840Y1203399D02*
X1059915D01*
X1058106Y1206999D02*
X1059903D01*
X1057892Y1208799D02*
X1059880D01*
X1058124Y1201599D02*
X1059870D01*
X1058125Y1245699D02*
X1059869D01*
X1057938Y1214199D02*
X1059851D01*
X1058138Y1240299D02*
X1059841D01*
X1057979Y1219599D02*
X1059825D01*
X1058016Y1224999D02*
X1059804D01*
X1058154Y1224099D02*
X1059782D01*
X1058151Y1218699D02*
X1059771D01*
X1058099Y1241199D02*
X1059765D01*
X1058145Y1213299D02*
X1059763D01*
X1058118Y1246599D02*
X1059761D01*
X1058119Y1202499D02*
X1059760D01*
X1058134Y1207899D02*
X1059760D01*
X1034808Y1198899D02*
X1054918D01*
X1047513Y1347399D02*
X1054767D01*
X1013500Y1249299D02*
X1054345D01*
X1013500Y1237599D02*
X1054164D01*
X1045348Y1341999D02*
X1054085D01*
X1013500Y1253799D02*
X1053899D01*
X1013500Y1259199D02*
X1053706D01*
X1021066Y1233099D02*
X1053637D01*
X1013500Y1277199D02*
X1053629D01*
X1047988Y1346499D02*
X1053565D01*
X1023148Y1264599D02*
X1053546D01*
X1022651Y1227699D02*
X1053488D01*
X1022636Y1271799D02*
X1053481D01*
X1013500Y1226799D02*
X1053463D01*
X1022269Y1269999D02*
X1053410D01*
X1013500Y1221399D02*
X1053394D01*
X1022513Y1266399D02*
X1053353D01*
X1013500Y1275399D02*
X1053291D01*
X1046776Y1342899D02*
X1053287D01*
X1023370Y1231299D02*
X1053286D01*
X1013500Y1260999D02*
X1053242D01*
X1017708Y1215999D02*
X1053223D01*
X1013500Y1280799D02*
X1053187D01*
X1013500Y1236699D02*
X1053182D01*
X1013500Y1255599D02*
X1053143D01*
X1023108Y1210599D02*
X1053073D01*
X1013500Y1250199D02*
X1053056D01*
X1048148Y1345599D02*
X1053048D01*
X1020956Y1242999D02*
X1052986D01*
X1028508Y1205199D02*
X1052940D01*
X1013500Y1252899D02*
X1052938D01*
X1047651Y1343799D02*
X1052929D01*
X1013500Y1258299D02*
X1052874D01*
X1022042Y1248399D02*
X1052862D01*
X1048046Y1344699D02*
X1052856D01*
X1029408Y1204299D02*
X1052856D01*
X1013500Y1233999D02*
X1052850D01*
X1013500Y1278099D02*
X1052847D01*
X1033908Y1199799D02*
X1052820D01*
X1023046Y1263699D02*
X1052818D01*
X1022347Y1243899D02*
X1052814D01*
X1023321Y1228599D02*
X1052797D01*
X1022413Y1272699D02*
X1052794D01*
X1021539Y1269099D02*
X1052768D01*
X1021446Y1267299D02*
X1052748D01*
X1024008Y1209699D02*
X1052745D01*
X1020465Y1274499D02*
X1052726D01*
X1023625Y1230399D02*
X1052724D01*
X1021776Y1261899D02*
X1052708D01*
X1013500Y1238499D02*
X1052707D01*
X1013500Y1279899D02*
X1052689D01*
X1013500Y1235799D02*
X1052687D01*
X1013500Y1256499D02*
X1052674D01*
X1013500Y1251099D02*
X1052646D01*
X1018608Y1215099D02*
X1052644D01*
X1013500Y1251999D02*
X1052613D01*
X1013500Y1257399D02*
X1052598D01*
X1013500Y1234899D02*
X1052594D01*
X1013500Y1278999D02*
X1052594D01*
X1022651Y1262799D02*
X1052589D01*
X1023610Y1229499D02*
X1052587D01*
X1021849Y1273599D02*
X1052587D01*
X1013500Y1268199D02*
X1052586D01*
X1013500Y1220499D02*
X1052552D01*
X1013500Y1225899D02*
X1052468D01*
X1013500Y1222299D02*
X1052440D01*
X1016808Y1216899D02*
X1052366D01*
X1022208Y1211499D02*
X1052299D01*
X1013500Y1242099D02*
X1052260D01*
X1027608Y1206099D02*
X1052238D01*
X1022771Y1247499D02*
X1052202D01*
X1030308Y1203399D02*
X1052200D01*
X1033008Y1200699D02*
X1052183D01*
X1022912Y1244799D02*
X1052180D01*
X1024908Y1208799D02*
X1052148D01*
X1013500Y1239399D02*
X1052131D01*
X1019508Y1214199D02*
X1052102D01*
X1014108Y1219599D02*
X1052060D01*
X1013500Y1224999D02*
X1052024D01*
X1013500Y1223199D02*
X1052012D01*
X1015908Y1217799D02*
X1051981D01*
X1021308Y1212399D02*
X1051955D01*
X1013500Y1241199D02*
X1051941D01*
X1026708Y1206999D02*
X1051933D01*
X1023093Y1246599D02*
X1051921D01*
X1031208Y1202499D02*
X1051921D01*
X1032108Y1201599D02*
X1051916D01*
X1023136Y1245699D02*
X1051915D01*
X1025808Y1207899D02*
X1051906D01*
X1013500Y1240299D02*
X1051901D01*
X1020408Y1213299D02*
X1051895D01*
X1015008Y1218699D02*
X1051888D01*
X1013500Y1224099D02*
X1051886D01*
X1013500Y1348299D02*
X1043554D01*
X1013500Y1347399D02*
X1042487D01*
X1013500Y1346499D02*
X1042012D01*
X1013500Y1345599D02*
X1041852D01*
X1013500Y1339299D02*
X1040759D01*
X1013500Y1344699D02*
X1040420D01*
X1013500Y1340199D02*
X1039688D01*
X1013500Y1343799D02*
X1039547D01*
X1013500Y1341099D02*
X1039213D01*
X1013500Y1342899D02*
X1039153D01*
X1013500Y1341999D02*
X1039052D01*
X1013500Y1321299D02*
X1036704D01*
X1013500Y1323999D02*
X1036614D01*
X1013500Y1322199D02*
X1036212D01*
X1013500Y1323099D02*
X1036189D01*
X1013500Y1233099D02*
X1019934D01*
X1013500Y1242999D02*
X1019044D01*
X1013500Y1267299D02*
X1018554D01*
X1013500Y1274499D02*
X1018535D01*
X1013500Y1227699D02*
X1018349D01*
X1013500Y1232199D02*
X1018244D01*
X1013500Y1261899D02*
X1018224D01*
X1013500Y1248399D02*
X1017958D01*
X1013500Y1228599D02*
X1017679D01*
X1013500Y1243899D02*
X1017653D01*
X1013500Y1231299D02*
X1017630D01*
X1013500Y1266399D02*
X1017487D01*
X1013500Y1269099D02*
X1017461D01*
X1013500Y1229499D02*
X1017390D01*
X1013500Y1230399D02*
X1017375D01*
X1013500Y1262799D02*
X1017349D01*
X1013500Y1247499D02*
X1017229D01*
X1013500Y1273599D02*
X1017151D01*
X1013500Y1244799D02*
X1017088D01*
X1013500Y1265499D02*
X1017012D01*
X1013500Y1263699D02*
X1016954D01*
X1013500Y1246599D02*
X1016907D01*
X1013500Y1245699D02*
X1016864D01*
X1013500Y1264599D02*
X1016852D01*
X1013500Y1269999D02*
X1016731D01*
X1013500Y1272699D02*
X1016587D01*
X1013500Y1270899D02*
X1016408D01*
X1013500Y1271799D02*
X1016364D01*
X1000000Y1414685D02*
Y1043315D01*
X1021654*
X1043311Y1021657D02*
G03X1021654Y1043315I-21657J0D01*
G01X1043311Y1021657D02*
Y1000000D01*
X1224406*
Y1021657*
X1246063Y1043315D02*
G03X1224406Y1021657I-0J-21658D01*
G01X1246063Y1043315D02*
X1267717D01*
Y1414685*
X1246063*
X1224406Y1436343D02*
G03X1246063Y1414685I21657J-0D01*
G01X1224406Y1436343D02*
Y1458000D01*
X1043311*
Y1436343*
X1021654Y1414685D02*
G03X1043311Y1436343I-0J21658D01*
G01X1021654Y1414685D02*
X1000000D01*
X1184000Y1612811D02*
X1344000D01*
Y1532811*
X1184000*
Y1612811*
Y1592811D02*
X1344000D01*
X1184000Y1577811D02*
X1344000D01*
X1184000Y1562811D02*
X1344000D01*
X1234000Y1592811D02*
Y1532811D01*
X1184000Y1547811D02*
X1344000D01*
G54D87*
X1238500Y1608155D02*
Y1598311D01*
Y1608155D02*
X1242932D01*
X1238500Y1603467D02*
X1241227D01*
X1248386Y1608155D02*
Y1598311D01*
X1246000Y1608155D02*
X1250773D01*
X1258955Y1605811D02*
X1258614Y1606749D01*
X1257932Y1607686*
X1257250Y1608155*
X1255886*
X1255205Y1607686*
X1254523Y1606749*
X1254182Y1605811*
X1253841Y1604405*
Y1602061*
X1254182Y1600655*
X1254523Y1599717*
X1255205Y1598780*
X1255886Y1598311*
X1257250*
X1257932Y1598780*
X1258614Y1599717*
X1258955Y1600655*
X1262023Y1602530D02*
X1268159D01*
X1271227Y1608155D02*
Y1598311D01*
Y1608155D02*
X1273614D01*
X1274636Y1607686*
X1275318Y1606749*
X1275659Y1605811*
X1276000Y1604405*
Y1602061*
X1275659Y1600655*
X1275318Y1599717*
X1274636Y1598780*
X1273614Y1598311*
X1271227*
X1279068Y1608155D02*
Y1598311D01*
X1282136Y1606280D02*
X1282818Y1606749D01*
X1283841Y1608155*
Y1598311*
X1286909Y1606280D02*
X1287591Y1606749D01*
X1288614Y1608155*
Y1598311*
X1238500Y1608155D02*
Y1598311D01*
Y1608155D02*
X1242932D01*
X1238500Y1603467D02*
X1241227D01*
X1248386Y1608155D02*
Y1598311D01*
X1246000Y1608155D02*
X1250773D01*
X1258955Y1605811D02*
X1258614Y1606749D01*
X1257932Y1607686*
X1257250Y1608155*
X1255886*
X1255205Y1607686*
X1254523Y1606749*
X1254182Y1605811*
X1253841Y1604405*
Y1602061*
X1254182Y1600655*
X1254523Y1599717*
X1255205Y1598780*
X1255886Y1598311*
X1257250*
X1257932Y1598780*
X1258614Y1599717*
X1258955Y1600655*
X1262023Y1602530D02*
X1268159D01*
X1271227Y1608155D02*
Y1598311D01*
Y1608155D02*
X1273614D01*
X1274636Y1607686*
X1275318Y1606749*
X1275659Y1605811*
X1276000Y1604405*
Y1602061*
X1275659Y1600655*
X1275318Y1599717*
X1274636Y1598780*
X1273614Y1598311*
X1271227*
X1279068Y1608155D02*
Y1598311D01*
X1282136Y1606280D02*
X1282818Y1606749D01*
X1283841Y1608155*
Y1598311*
X1286909Y1606280D02*
X1287591Y1606749D01*
X1288614Y1608155*
Y1598311*
G54D88*
X1004719Y1111538D02*
Y1112788D01*
X1005969Y1112106*
Y1112447*
X1006125Y1112675*
X1006281Y1112788*
X1006750Y1112902*
X1007062*
X1007062D02*
X1007531Y1112788D01*
X1007844Y1112561*
X1008000Y1112220*
Y1111879*
X1007844Y1111538*
X1007687Y1111425*
X1007687D02*
X1007375Y1111311D01*
G54D92*
X1003000Y1136311D02*
X1010000D01*
Y1094311*
X1003000*
Y1136311*
Y1101311D02*
X1010000D01*
X1003000Y1108311D02*
X1010000D01*
X1003000Y1115311D02*
X1010000D01*
X1003000Y1122311D02*
X1010000D01*
X1003000Y1129311D02*
X1010000D01*
G54D126*
X1124000Y1398000D03*
X1144000D03*
G74*
X0Y0D02*
M02*
