*
*
G04 PADS 9.3 Build Number: 433611 generated Gerber (RS-274-X) file*
G04 PC Version=2.1*
*
%IN "EEC-NGP_Rev_B.pcb"*%
*
%MOIN*%
*
%FSLAX35Y35*%
*
*
*
*
G04 PC Standard Apertures*
*
*
G04 Thermal Relief Aperture macro.*
%AMTER*
1,1,$1,0,0*
1,0,$1-$2,0,0*
21,0,$3,$4,0,0,45*
21,0,$3,$4,0,0,135*
%
*
*
G04 Annular Aperture macro.*
%AMANN*
1,1,$1,0,0*
1,0,$2,0,0*
%
*
*
G04 Odd Aperture macro.*
%AMODD*
1,1,$1,0,0*
1,0,$1-0.005,0,0*
%
*
*
G04 PC Custom Aperture Macros*
*
*
*
*
*
*
G04 PC Aperture Table*
*
%ADD010C,0.001*%
%ADD012C,0.06*%
%ADD013C,0.15*%
%ADD014C,0.09*%
%ADD015C,0.19685*%
%ADD017R,0.052X0.06*%
%ADD018R,0.06X0.052*%
%ADD019C,0.01*%
%ADD020C,0.015*%
%ADD021C,0.004*%
%ADD022C,0.02*%
%ADD023C,0.024*%
%ADD024C,0.04*%
%ADD025C,0.03937*%
%ADD026R,0.071X0.063*%
%ADD031C,0.006*%
%ADD033C,0.005*%
%ADD034C,0.1*%
%ADD058C,0.08*%
%ADD059C,0.03*%
%ADD065R,0.063X0.071*%
*
*
*
*
G04 PC Circuitry*
G04 Layer Name EEC-NGP_Rev_B.pcb - circuitry*
%LPD*%
*
*
G04 PC Custom Flashes*
G04 Layer Name EEC-NGP_Rev_B.pcb - flashes*
%LPD*%
*
*
G04 PC Circuitry*
G04 Layer Name EEC-NGP_Rev_B.pcb - circuitry*
%LPD*%
*
G54D10*
G01X99997Y100000D02*
Y359992D01*
X109997Y369992*
X409979*
X419989Y359983*
Y100000*
X99997*
G54D12*
X381472Y119488D03*
X377472Y126488D03*
X373472Y119488D03*
X369472Y126488D03*
X365472Y119488D03*
X361472Y126488D03*
X357472Y119488D03*
X353472Y126488D03*
X319472Y119488D03*
X315472Y126488D03*
X311472Y119488D03*
X307472Y126488D03*
X303472Y119488D03*
X299472Y126488D03*
X295472Y119488D03*
X291472Y126488D03*
X236472Y119488D03*
X232472Y126488D03*
X228472Y119488D03*
X224472Y126488D03*
X220472Y119488D03*
X216472Y126488D03*
X212472Y119488D03*
X208472Y126488D03*
X174472Y119488D03*
X170472Y126488D03*
X166472Y119488D03*
X162472Y126488D03*
X158472Y119488D03*
X154472Y126488D03*
X150472Y119488D03*
X146472Y126488D03*
X112500Y115000D03*
X405000Y172500D03*
X162500Y362000D03*
X247472Y109488D02*
Y118988D01*
X251472Y122988*
X280000Y109488D02*
Y119461D01*
X276472Y122988*
X251472D02*
X251484Y123000D01*
G54D13*
X280472Y109488D03*
X392472D03*
X135472D03*
X247472D03*
G54D14*
X396472Y122988D03*
X276472D03*
X305472Y149488D03*
X367472D03*
X251472Y122988D03*
X131472D03*
X160472Y149488D03*
X222472D03*
G54D15*
X130984Y350315D03*
Y328150D03*
Y302087D03*
G54D17*
X171260Y245000D03*
X178740D03*
X283740D03*
X276260D03*
X311260D03*
X318740D03*
X146240D03*
X138760D03*
X381260D03*
X388740D03*
X353740D03*
X346260D03*
X213740D03*
X206260D03*
X241260D03*
X248740D03*
G54D18*
X172500Y176240D03*
Y168760D03*
X312500Y176240D03*
Y168760D03*
X282500Y176240D03*
Y168760D03*
X142500Y153740D03*
Y146260D03*
X132500Y153740D03*
Y146260D03*
X347500Y153740D03*
Y146260D03*
X337500Y153740D03*
Y146260D03*
X207500Y153740D03*
Y146260D03*
X197500Y153740D03*
Y146260D03*
X282500Y153740D03*
Y146260D03*
X142500Y176240D03*
Y168760D03*
X272500Y153740D03*
Y146260D03*
X382500Y176240D03*
Y168760D03*
X352500Y176240D03*
Y168760D03*
X242500Y176240D03*
Y168760D03*
X212500Y176240D03*
Y168760D03*
X280000Y283740D03*
Y276260D03*
X267500Y283740D03*
Y276260D03*
X197500Y283740D03*
Y276260D03*
X235000Y283740D03*
Y276260D03*
G54D19*
X98909Y499400D02*
X98682Y500025D01*
X98227Y500650*
X97773Y500963*
X97773D02*
X96864D01*
X96864D02*
X96409Y500650D01*
X95955Y500025*
X95727Y499400*
X95500Y498463*
X95500D02*
Y496900D01*
X95727Y495963*
X95727D02*
X95955Y495338D01*
X95955D02*
X96409Y494713D01*
X96409D02*
X96864Y494400D01*
X97773*
X98227Y494713*
X98227D02*
X98682Y495338D01*
X98682D02*
X98909Y495963D01*
X102318Y500963D02*
X101864Y500650D01*
X101409Y500025*
X101182Y499400*
X100955Y498463*
X100955D02*
Y496900D01*
X101182Y495963*
X101182D02*
X101409Y495338D01*
X101409D02*
X101864Y494713D01*
X101864D02*
X102318Y494400D01*
X103227*
X103682Y494713*
X103682D02*
X104136Y495338D01*
X104136D02*
X104364Y495963D01*
X104364D02*
X104591Y496900D01*
Y498463*
X104591D02*
X104364Y499400D01*
X104136Y500025*
X103682Y500650*
X103227Y500963*
X103227D02*
X102318D01*
X106636D02*
Y494400D01*
Y500963D02*
X108455Y494400D01*
X110273Y500963D02*
X108455Y494400D01*
X110273Y500963D02*
Y494400D01*
X112318Y500963D02*
Y494400D01*
Y500963D02*
X114364D01*
X114364D02*
X115045Y500650D01*
X115273Y500338*
X115273D02*
X115500Y499713D01*
X115500D02*
Y498775D01*
X115273Y498150*
X115045Y497838*
X115045D02*
X114364Y497525D01*
X112318*
X117545Y500963D02*
Y494400D01*
Y500963D02*
X119591D01*
X119591D02*
X120273Y500650D01*
X120500Y500338*
X120500D02*
X120727Y499713D01*
X120727D02*
Y499088D01*
X120727D02*
X120500Y498463D01*
X120500D02*
X120273Y498150D01*
X119591Y497838*
X119591D02*
X117545D01*
X119136D02*
X120727Y494400D01*
X122773Y500963D02*
Y494400D01*
Y500963D02*
X125727D01*
X122773Y497838D02*
X124591D01*
X122773Y494400D02*
X125727D01*
X130955Y500025D02*
X130500Y500650D01*
X129818Y500963*
X129818D02*
X128909D01*
X128909D02*
X128227Y500650D01*
X127773Y500025*
Y499400*
X128000Y498775*
X128227Y498463*
X128227D02*
X128682Y498150D01*
X130045Y497525*
X130500Y497213*
X130500D02*
X130727Y496900D01*
X130955Y496275*
Y495338*
X130955D02*
X130500Y494713D01*
X130500D02*
X129818Y494400D01*
X128909*
X128227Y494713*
X128227D02*
X127773Y495338D01*
X136182Y500025D02*
X135727Y500650D01*
X135045Y500963*
X135045D02*
X134136D01*
X134136D02*
X133455Y500650D01*
X133000Y500025*
Y499400*
X133227Y498775*
X133455Y498463*
X133455D02*
X133909Y498150D01*
X135273Y497525*
X135727Y497213*
X135727D02*
X135955Y496900D01*
X136182Y496275*
Y495338*
X136182D02*
X135727Y494713D01*
X135727D02*
X135045Y494400D01*
X134136*
X133455Y494713*
X133455D02*
X133000Y495338D01*
X139591Y500963D02*
X139136Y500650D01*
X138682Y500025*
X138455Y499400*
X138227Y498463*
X138227D02*
Y496900D01*
X138455Y495963*
X138455D02*
X138682Y495338D01*
X138682D02*
X139136Y494713D01*
X139136D02*
X139591Y494400D01*
X140500*
X140955Y494713*
X140955D02*
X141409Y495338D01*
X141409D02*
X141636Y495963D01*
X141636D02*
X141864Y496900D01*
Y498463*
X141864D02*
X141636Y499400D01*
X141409Y500025*
X140955Y500650*
X140500Y500963*
X140500D02*
X139591D01*
X143909D02*
Y494400D01*
Y500963D02*
X145955D01*
X145955D02*
X146636Y500650D01*
X146864Y500338*
X146864D02*
X147091Y499713D01*
X147091D02*
Y499088D01*
X147091D02*
X146864Y498463D01*
X146864D02*
X146636Y498150D01*
X145955Y497838*
X145955D02*
X143909D01*
X145500D02*
X147091Y494400D01*
X157773Y499400D02*
X157545Y500025D01*
X157091Y500650*
X156636Y500963*
X156636D02*
X155727D01*
X155727D02*
X155273Y500650D01*
X154818Y500025*
X154591Y499400*
X154364Y498463*
X154364D02*
Y496900D01*
X154591Y495963*
X154591D02*
X154818Y495338D01*
X154818D02*
X155273Y494713D01*
X155273D02*
X155727Y494400D01*
X156636*
X157091Y494713*
X157091D02*
X157545Y495338D01*
X157545D02*
X157773Y495963D01*
X161182Y500963D02*
X160727Y500650D01*
X160273Y500025*
X160045Y499400*
X159818Y498463*
X159818D02*
Y496900D01*
X160045Y495963*
X160045D02*
X160273Y495338D01*
X160273D02*
X160727Y494713D01*
X160727D02*
X161182Y494400D01*
X162091*
X162545Y494713*
X162545D02*
X163000Y495338D01*
X163000D02*
X163227Y495963D01*
X163227D02*
X163455Y496900D01*
Y498463*
X163455D02*
X163227Y499400D01*
X163000Y500025*
X162545Y500650*
X162091Y500963*
X162091D02*
X161182D01*
X165500D02*
Y494400D01*
Y500963D02*
X168682Y494400D01*
Y500963D02*
Y494400D01*
X172318Y500963D02*
Y494400D01*
X170727Y500963D02*
X173909D01*
X175955D02*
Y494400D01*
Y500963D02*
X178000D01*
X178000D02*
X178682Y500650D01*
X178909Y500338*
X178909D02*
X179136Y499713D01*
X179136D02*
Y499088D01*
X179136D02*
X178909Y498463D01*
X178909D02*
X178682Y498150D01*
X178000Y497838*
X178000D02*
X175955D01*
X177545D02*
X179136Y494400D01*
X182545Y500963D02*
X182091Y500650D01*
X181636Y500025*
X181409Y499400*
X181182Y498463*
X181182D02*
Y496900D01*
X181409Y495963*
X181409D02*
X181636Y495338D01*
X181636D02*
X182091Y494713D01*
X182091D02*
X182545Y494400D01*
X183455*
X183909Y494713*
X183909D02*
X184364Y495338D01*
X184364D02*
X184591Y495963D01*
X184591D02*
X184818Y496900D01*
Y498463*
X184818D02*
X184591Y499400D01*
X184364Y500025*
X183909Y500650*
X183455Y500963*
X183455D02*
X182545D01*
X186864D02*
Y494400D01*
X189591*
X194818Y500025D02*
X194364Y500650D01*
X193682Y500963*
X193682D02*
X192773D01*
X192773D02*
X192091Y500650D01*
X191636Y500025*
Y499400*
X191864Y498775*
X192091Y498463*
X192091D02*
X192545Y498150D01*
X193909Y497525*
X194364Y497213*
X194364D02*
X194591Y496900D01*
X194818Y496275*
Y495338*
X194818D02*
X194364Y494713D01*
X194364D02*
X193682Y494400D01*
X192773*
X192091Y494713*
X192091D02*
X191636Y495338D01*
X205500Y499400D02*
X205273Y500025D01*
X204818Y500650*
X204364Y500963*
X204364D02*
X203455D01*
X203455D02*
X203000Y500650D01*
X202545Y500025*
X202318Y499400*
X202091Y498463*
X202091D02*
Y496900D01*
X202318Y495963*
X202318D02*
X202545Y495338D01*
X202545D02*
X203000Y494713D01*
X203000D02*
X203455Y494400D01*
X204364*
X204818Y494713*
X204818D02*
X205273Y495338D01*
X205273D02*
X205500Y495963D01*
X208909Y500963D02*
X208455Y500650D01*
X208000Y500025*
X207773Y499400*
X207545Y498463*
X207545D02*
Y496900D01*
X207773Y495963*
X207773D02*
X208000Y495338D01*
X208000D02*
X208455Y494713D01*
X208455D02*
X208909Y494400D01*
X209818*
X210273Y494713*
X210273D02*
X210727Y495338D01*
X210727D02*
X210955Y495963D01*
X210955D02*
X211182Y496900D01*
Y498463*
X211182D02*
X210955Y499400D01*
X210727Y500025*
X210273Y500650*
X209818Y500963*
X209818D02*
X208909D01*
X213227D02*
Y494400D01*
Y500963D02*
X215273D01*
X215273D02*
X215955Y500650D01*
X216182Y500338*
X216182D02*
X216409Y499713D01*
X216409D02*
Y499088D01*
X216409D02*
X216182Y498463D01*
X216182D02*
X215955Y498150D01*
X215273Y497838*
X215273D02*
X213227D01*
X214818D02*
X216409Y494400D01*
X218455Y500963D02*
Y494400D01*
Y500963D02*
X220500D01*
X220500D02*
X221182Y500650D01*
X221409Y500338*
X221409D02*
X221636Y499713D01*
X221636D02*
Y498775D01*
X221409Y498150*
X221182Y497838*
X221182D02*
X220500Y497525D01*
X218455*
X225045Y500963D02*
X224591Y500650D01*
X224136Y500025*
X223909Y499400*
X223682Y498463*
X223682D02*
Y496900D01*
X223909Y495963*
X223909D02*
X224136Y495338D01*
X224136D02*
X224591Y494713D01*
X224591D02*
X225045Y494400D01*
X225955*
X226409Y494713*
X226409D02*
X226864Y495338D01*
X226864D02*
X227091Y495963D01*
X227091D02*
X227318Y496900D01*
Y498463*
X227318D02*
X227091Y499400D01*
X226864Y500025*
X226409Y500650*
X225955Y500963*
X225955D02*
X225045D01*
X229364D02*
Y494400D01*
Y500963D02*
X231409D01*
X231409D02*
X232091Y500650D01*
X232318Y500338*
X232318D02*
X232545Y499713D01*
X232545D02*
Y499088D01*
X232545D02*
X232318Y498463D01*
X232318D02*
X232091Y498150D01*
X231409Y497838*
X231409D02*
X229364D01*
X230955D02*
X232545Y494400D01*
X236409Y500963D02*
X234591Y494400D01*
X236409Y500963D02*
X238227Y494400D01*
X235273Y496588D02*
X237545D01*
X241864Y500963D02*
Y494400D01*
X240273Y500963D02*
X243455D01*
X245500D02*
Y494400D01*
X248909Y500963D02*
X248455Y500650D01*
X248000Y500025*
X247773Y499400*
X247545Y498463*
X247545D02*
Y496900D01*
X247773Y495963*
X247773D02*
X248000Y495338D01*
X248000D02*
X248455Y494713D01*
X248455D02*
X248909Y494400D01*
X249818*
X250273Y494713*
X250273D02*
X250727Y495338D01*
X250727D02*
X250955Y495963D01*
X250955D02*
X251182Y496900D01*
Y498463*
X251182D02*
X250955Y499400D01*
X250727Y500025*
X250273Y500650*
X249818Y500963*
X249818D02*
X248909D01*
X253227D02*
Y494400D01*
Y500963D02*
X256409Y494400D01*
Y500963D02*
Y494400D01*
X95000Y485713D02*
X95455Y486025D01*
X96136Y486963*
X96136D02*
Y480400D01*
X101364Y486963D02*
X99091Y480400D01*
X98182Y486963D02*
X101364D01*
X103409Y483213D02*
X107500D01*
X112273Y486025D02*
X112045Y486650D01*
X111364Y486963*
X111364D02*
X110909D01*
X110909D02*
X110227Y486650D01*
X109773Y485713*
X109773D02*
X109545Y484150D01*
Y482588*
X109545D02*
X109773Y481338D01*
X109773D02*
X110227Y480713D01*
X110227D02*
X110909Y480400D01*
X111136*
X111818Y480713*
X111818D02*
X112273Y481338D01*
X112273D02*
X112500Y482275D01*
Y482588*
X112500D02*
X112273Y483525D01*
X111818Y484150*
X111136Y484463*
X111136D02*
X110909D01*
X110909D02*
X110227Y484150D01*
X109773Y483525*
X109545Y482588*
X115909Y486963D02*
X115227Y486650D01*
X114773Y485713*
X114773D02*
X114545Y484150D01*
Y483213*
X114545D02*
X114773Y481650D01*
X115227Y480713*
X115227D02*
X115909Y480400D01*
X116364*
X117045Y480713*
X117045D02*
X117500Y481650D01*
X117727Y483213*
X117727D02*
Y484150D01*
X117500Y485713*
X117500D02*
X117045Y486650D01*
X116364Y486963*
X116364D02*
X115909D01*
X121136D02*
X120455Y486650D01*
X120000Y485713*
X120000D02*
X119773Y484150D01*
Y483213*
X119773D02*
X120000Y481650D01*
X120455Y480713*
X120455D02*
X121136Y480400D01*
X121591*
X122273Y480713*
X122273D02*
X122727Y481650D01*
X122955Y483213*
X122955D02*
Y484150D01*
X122727Y485713*
X122727D02*
X122273Y486650D01*
X121591Y486963*
X121591D02*
X121136D01*
X127273D02*
X125000Y482588D01*
X125000D02*
X128409D01*
X127273Y486963D02*
Y480400D01*
X130455Y485713D02*
X130909Y486025D01*
X131591Y486963*
X131591D02*
Y480400D01*
X135000Y486963D02*
X134318Y486650D01*
X133864Y485713*
X133864D02*
X133636Y484150D01*
Y483213*
X133636D02*
X133864Y481650D01*
X134318Y480713*
X134318D02*
X135000Y480400D01*
X135455*
X136136Y480713*
X136136D02*
X136591Y481650D01*
X136818Y483213*
X136818D02*
Y484150D01*
X136591Y485713*
X136591D02*
X136136Y486650D01*
X135455Y486963*
X135455D02*
X135000D01*
X138864Y483213D02*
X142955D01*
X146364Y486963D02*
X145682Y486650D01*
X145227Y485713*
X145227D02*
X145000Y484150D01*
Y483213*
X145000D02*
X145227Y481650D01*
X145682Y480713*
X145682D02*
X146364Y480400D01*
X146818*
X147500Y480713*
X147500D02*
X147955Y481650D01*
X148182Y483213*
X148182D02*
Y484150D01*
X147955Y485713*
X147955D02*
X147500Y486650D01*
X146818Y486963*
X146818D02*
X146364D01*
X151591D02*
X150909Y486650D01*
X150455Y485713*
X150455D02*
X150227Y484150D01*
Y483213*
X150227D02*
X150455Y481650D01*
X150909Y480713*
X150909D02*
X151591Y480400D01*
X152045*
X152727Y480713*
X152727D02*
X153182Y481650D01*
X153409Y483213*
X153409D02*
Y484150D01*
X153182Y485713*
X153182D02*
X152727Y486650D01*
X152045Y486963*
X152045D02*
X151591D01*
X155455Y485713D02*
X155909Y486025D01*
X156591Y486963*
X156591D02*
Y480400D01*
X163864Y486963D02*
Y480400D01*
Y486963D02*
X165909D01*
X165909D02*
X166591Y486650D01*
X166818Y486338*
X166818D02*
X167045Y485713D01*
X167045D02*
Y485088D01*
X167045D02*
X166818Y484463D01*
X166818D02*
X166591Y484150D01*
X165909Y483838*
X165909D02*
X163864D01*
X165455D02*
X167045Y480400D01*
X169091Y486963D02*
Y480400D01*
Y486963D02*
X172045D01*
X169091Y483838D02*
X170909D01*
X169091Y480400D02*
X172045D01*
X174091Y486963D02*
X175909Y480400D01*
X177727Y486963D02*
X175909Y480400D01*
X185000Y486963D02*
Y480400D01*
Y486963D02*
X187045D01*
X187045D02*
X187727Y486650D01*
X187955Y486338*
X187955D02*
X188182Y485713D01*
X188182D02*
Y485088D01*
X188182D02*
X187955Y484463D01*
X187955D02*
X187727Y484150D01*
X187045Y483838*
X185000D02*
X187045D01*
X187045D02*
X187727Y483525D01*
X187955Y483213*
X187955D02*
X188182Y482588D01*
X188182D02*
Y481650D01*
X187955Y481025*
X187727Y480713*
X187727D02*
X187045Y480400D01*
X185000*
X96500Y473963D02*
Y467400D01*
Y473963D02*
X98091D01*
X98091D02*
X98773Y473650D01*
X99227Y473025*
X99455Y472400*
X99682Y471463*
X99682D02*
Y469900D01*
X99455Y468963*
X99455D02*
X99227Y468338D01*
X99227D02*
X98773Y467713D01*
X98773D02*
X98091Y467400D01*
X96500*
X103545Y473963D02*
X101727Y467400D01*
X103545Y473963D02*
X105364Y467400D01*
X102409Y469588D02*
X104682D01*
X109000Y473963D02*
Y467400D01*
X107409Y473963D02*
X110591D01*
X112636D02*
Y467400D01*
Y473963D02*
X115591D01*
X112636Y470838D02*
X114455D01*
X112636Y467400D02*
X115591D01*
X117864Y471775D02*
X117636Y471463D01*
X117636D02*
X117864Y471150D01*
X118091Y471463*
X118091D02*
X117864Y471775D01*
Y468025D02*
X117636Y467713D01*
X117636D02*
X117864Y467400D01*
X118091Y467713*
X118091D02*
X117864Y468025D01*
X126727Y473963D02*
X126045Y473650D01*
X125591Y472713*
X125591D02*
X125364Y471150D01*
Y470213*
X125364D02*
X125591Y468650D01*
X126045Y467713*
X126045D02*
X126727Y467400D01*
X127182*
X127864Y467713*
X127864D02*
X128318Y468650D01*
X128545Y470213*
X128545D02*
Y471150D01*
X128318Y472713*
X128318D02*
X127864Y473650D01*
X127182Y473963*
X127182D02*
X126727D01*
X131045D02*
X133545D01*
X133545D02*
X132182Y471463D01*
X132182D02*
X132864D01*
X132864D02*
X133318Y471150D01*
X133545Y470838*
X133545D02*
X133773Y469900D01*
Y469275*
X133545Y468338*
X133545D02*
X133091Y467713D01*
X133091D02*
X132409Y467400D01*
X131727*
X131045Y467713*
X131045D02*
X130818Y468025D01*
X130591Y468650*
X135818Y470213D02*
X139909D01*
X141955Y472713D02*
X142409Y473025D01*
X143091Y473963*
X143091D02*
Y467400D01*
X145591Y473963D02*
X148091D01*
X148091D02*
X146727Y471463D01*
X146727D02*
X147409D01*
X147409D02*
X147864Y471150D01*
X148091Y470838*
X148091D02*
X148318Y469900D01*
Y469275*
X148091Y468338*
X148091D02*
X147636Y467713D01*
X147636D02*
X146955Y467400D01*
X146273*
X145591Y467713*
X145591D02*
X145364Y468025D01*
X145136Y468650*
X150364Y470213D02*
X154455D01*
X156500Y472713D02*
X156955Y473025D01*
X157636Y473963*
X157636D02*
Y467400D01*
X160136Y473963D02*
X162636D01*
X162636D02*
X161273Y471463D01*
X161273D02*
X161955D01*
X161955D02*
X162409Y471150D01*
X162636Y470838*
X162636D02*
X162864Y469900D01*
Y469275*
X162636Y468338*
X162636D02*
X162182Y467713D01*
X162182D02*
X161500Y467400D01*
X160818*
X160136Y467713*
X160136D02*
X159909Y468025D01*
X159682Y468650*
X289000Y478463D02*
Y471900D01*
X291727*
X295591Y478463D02*
X293773Y471900D01*
X295591Y478463D02*
X297409Y471900D01*
X294455Y474088D02*
X296727D01*
X299455Y478463D02*
X301273Y475338D01*
X301273D02*
Y471900D01*
X303091Y478463D02*
X301273Y475338D01*
X305136Y478463D02*
Y471900D01*
Y478463D02*
X308091D01*
X305136Y475338D02*
X306955D01*
X305136Y471900D02*
X308091D01*
X310136Y478463D02*
Y471900D01*
Y478463D02*
X312182D01*
X312182D02*
X312864Y478150D01*
X313091Y477838*
X313091D02*
X313318Y477213D01*
X313318D02*
Y476588D01*
X313318D02*
X313091Y475963D01*
X313091D02*
X312864Y475650D01*
X312182Y475338*
X312182D02*
X310136D01*
X311727D02*
X313318Y471900D01*
X289000Y463463D02*
Y456900D01*
Y463463D02*
X291045D01*
X291045D02*
X291727Y463150D01*
X291955Y462838*
X291955D02*
X292182Y462213D01*
X292182D02*
Y461275D01*
X291955Y460650*
X291727Y460338*
X291727D02*
X291045Y460025D01*
X289000*
X296045Y463463D02*
X294227Y456900D01*
X296045Y463463D02*
X297864Y456900D01*
X294909Y459088D02*
X297182D01*
X299909Y463463D02*
Y456900D01*
Y463463D02*
X301955D01*
X301955D02*
X302636Y463150D01*
X302864Y462838*
X302864D02*
X303091Y462213D01*
X303091D02*
Y461588D01*
X303091D02*
X302864Y460963D01*
X302864D02*
X302636Y460650D01*
X301955Y460338*
X301955D02*
X299909D01*
X301500D02*
X303091Y456900D01*
X306727Y463463D02*
Y456900D01*
X305136Y463463D02*
X308318D01*
X315591D02*
Y456900D01*
Y463463D02*
X318773Y456900D01*
Y463463D02*
Y456900D01*
X322182Y463463D02*
X321727Y463150D01*
X321273Y462525*
X321045Y461900*
X320818Y460963*
X320818D02*
Y459400D01*
X321045Y458463*
X321045D02*
X321273Y457838D01*
X321273D02*
X321727Y457213D01*
X321727D02*
X322182Y456900D01*
X323091*
X323545Y457213*
X323545D02*
X324000Y457838D01*
X324000D02*
X324227Y458463D01*
X324227D02*
X324455Y459400D01*
Y460963*
X324455D02*
X324227Y461900D01*
X324000Y462525*
X323545Y463150*
X323091Y463463*
X323091D02*
X322182D01*
X289000Y448463D02*
Y441900D01*
Y448463D02*
X291045D01*
X291045D02*
X291727Y448150D01*
X291955Y447838*
X291955D02*
X292182Y447213D01*
X292182D02*
Y446588D01*
X292182D02*
X291955Y445963D01*
X291955D02*
X291727Y445650D01*
X291045Y445338*
X291045D02*
X289000D01*
X290591D02*
X292182Y441900D01*
X294227Y448463D02*
Y441900D01*
Y448463D02*
X297182D01*
X294227Y445338D02*
X296045D01*
X294227Y441900D02*
X297182D01*
X299227Y448463D02*
X301045Y441900D01*
X302864Y448463D02*
X301045Y441900D01*
X428318Y477425D02*
X428773Y478050D01*
X429455Y478363*
X429455D02*
X430364D01*
X430364D02*
X431045Y478050D01*
X431500Y477425*
Y476800*
X431273Y476175*
X431045Y475863*
X431045D02*
X430591Y475550D01*
X429227Y474925*
X428773Y474613*
X428773D02*
X428545Y474300D01*
X428318Y473675*
Y472738*
X428318D02*
X428773Y472113D01*
X428773D02*
X429455Y471800D01*
X430364*
X431045Y472113*
X431045D02*
X431500Y472738D01*
X424909Y478363D02*
X425364Y478050D01*
X425818Y477425*
X426045Y476800*
X426273Y475863*
X426273D02*
Y474300D01*
X426045Y473363*
X426045D02*
X425818Y472738D01*
X425818D02*
X425364Y472113D01*
X425364D02*
X424909Y471800D01*
X424000*
X423545Y472113*
X423545D02*
X423091Y472738D01*
X423091D02*
X422864Y473363D01*
X422864D02*
X422636Y474300D01*
Y475863*
X422636D02*
X422864Y476800D01*
X423091Y477425*
X423545Y478050*
X424000Y478363*
X424000D02*
X424909D01*
X420591D02*
Y471800D01*
X417864*
X415818Y478363D02*
Y471800D01*
Y478363D02*
X414227D01*
X414227D02*
X413545Y478050D01*
X413091Y477425*
X412864Y476800*
X412636Y475863*
X412636D02*
Y474300D01*
X412864Y473363*
X412864D02*
X413091Y472738D01*
X413091D02*
X413545Y472113D01*
X413545D02*
X414227Y471800D01*
X415818*
X410591Y478363D02*
Y471800D01*
Y478363D02*
X407636D01*
X410591Y475238D02*
X408773D01*
X410591Y471800D02*
X407636D01*
X405591Y478363D02*
Y471800D01*
Y478363D02*
X403545D01*
X403545D02*
X402864Y478050D01*
X402636Y477738*
X402636D02*
X402409Y477113D01*
X402409D02*
Y476488D01*
X402409D02*
X402636Y475863D01*
X402636D02*
X402864Y475550D01*
X403545Y475238*
X403545D02*
X405591D01*
X404000D02*
X402409Y471800D01*
X393545Y479613D02*
X394000Y478988D01*
X394000D02*
X394455Y478050D01*
X394909Y476800*
X395136Y475238*
X395136D02*
Y473988D01*
X395136D02*
X394909Y472425D01*
X394455Y471175*
X394000Y470237*
X394000D02*
X393545Y469612D01*
X391500Y478363D02*
Y471800D01*
Y478363D02*
X389455D01*
X389455D02*
X388773Y478050D01*
X388545Y477738*
X388545D02*
X388318Y477113D01*
X388318D02*
Y476488D01*
X388318D02*
X388545Y475863D01*
X388545D02*
X388773Y475550D01*
X389455Y475238*
X391500D02*
X389455D01*
X389455D02*
X388773Y474925D01*
X388545Y474613*
X388545D02*
X388318Y473988D01*
X388318D02*
Y473050D01*
X388545Y472425*
X388773Y472113*
X388773D02*
X389455Y471800D01*
X391500*
X384909Y478363D02*
X385364Y478050D01*
X385818Y477425*
X386045Y476800*
X386273Y475863*
X386273D02*
Y474300D01*
X386045Y473363*
X386045D02*
X385818Y472738D01*
X385818D02*
X385364Y472113D01*
X385364D02*
X384909Y471800D01*
X384000*
X383545Y472113*
X383545D02*
X383091Y472738D01*
X383091D02*
X382864Y473363D01*
X382864D02*
X382636Y474300D01*
Y475863*
X382636D02*
X382864Y476800D01*
X383091Y477425*
X383545Y478050*
X384000Y478363*
X384000D02*
X384909D01*
X379000D02*
Y471800D01*
X380591Y478363D02*
X377409D01*
X373773D02*
Y471800D01*
X375364Y478363D02*
X372182D01*
X368773D02*
X369227Y478050D01*
X369682Y477425*
X369909Y476800*
X370136Y475863*
X370136D02*
Y474300D01*
X369909Y473363*
X369909D02*
X369682Y472738D01*
X369682D02*
X369227Y472113D01*
X369227D02*
X368773Y471800D01*
X367864*
X367409Y472113*
X367409D02*
X366955Y472738D01*
X366955D02*
X366727Y473363D01*
X366727D02*
X366500Y474300D01*
Y475863*
X366500D02*
X366727Y476800D01*
X366955Y477425*
X367409Y478050*
X367864Y478363*
X367864D02*
X368773D01*
X364455D02*
Y471800D01*
Y478363D02*
X362636Y471800D01*
X360818Y478363D02*
X362636Y471800D01*
X360818Y478363D02*
Y471800D01*
X358773Y479613D02*
X358318Y478988D01*
X358318D02*
X357864Y478050D01*
X357409Y476800*
X357182Y475238*
X357182D02*
Y473988D01*
X357182D02*
X357409Y472425D01*
X357864Y471175*
X358318Y470237*
X358318D02*
X358773Y469612D01*
X346727Y477425D02*
X347182Y478050D01*
X347864Y478363*
X347864D02*
X348773D01*
X348773D02*
X349455Y478050D01*
X349909Y477425*
Y476800*
X349682Y476175*
X349455Y475863*
X349455D02*
X349000Y475550D01*
X347636Y474925*
X347182Y474613*
X347182D02*
X346955Y474300D01*
X346727Y473675*
Y472738*
X346727D02*
X347182Y472113D01*
X347182D02*
X347864Y471800D01*
X348773*
X349455Y472113*
X349455D02*
X349909Y472738D01*
X344682Y478363D02*
Y471800D01*
X342636Y478363D02*
Y471800D01*
Y478363D02*
X341045D01*
X341045D02*
X340364Y478050D01*
X339909Y477425*
X339682Y476800*
X339455Y475863*
X339455D02*
Y474300D01*
X339682Y473363*
X339682D02*
X339909Y472738D01*
X339909D02*
X340364Y472113D01*
X340364D02*
X341045Y471800D01*
X342636*
X337409Y478363D02*
Y471800D01*
Y478363D02*
X334455D01*
X337409Y475238D02*
X335591D01*
X337409Y471800D02*
X334455D01*
X349000Y462213D02*
X349455Y462525D01*
X350136Y463463*
X350136D02*
Y456900D01*
X355364Y463463D02*
X353091Y456900D01*
X352182Y463463D02*
X355364D01*
X357409Y459713D02*
X361500D01*
X366273Y462525D02*
X366045Y463150D01*
X365364Y463463*
X365364D02*
X364909D01*
X364909D02*
X364227Y463150D01*
X363773Y462213*
X363773D02*
X363545Y460650D01*
Y459088*
X363545D02*
X363773Y457838D01*
X363773D02*
X364227Y457213D01*
X364227D02*
X364909Y456900D01*
X365136*
X365818Y457213*
X365818D02*
X366273Y457838D01*
X366273D02*
X366500Y458775D01*
Y459088*
X366500D02*
X366273Y460025D01*
X365818Y460650*
X365136Y460963*
X365136D02*
X364909D01*
X364909D02*
X364227Y460650D01*
X363773Y460025*
X363545Y459088*
X369909Y463463D02*
X369227Y463150D01*
X368773Y462213*
X368773D02*
X368545Y460650D01*
Y459713*
X368545D02*
X368773Y458150D01*
X369227Y457213*
X369227D02*
X369909Y456900D01*
X370364*
X371045Y457213*
X371045D02*
X371500Y458150D01*
X371727Y459713*
X371727D02*
Y460650D01*
X371500Y462213*
X371500D02*
X371045Y463150D01*
X370364Y463463*
X370364D02*
X369909D01*
X375136D02*
X374455Y463150D01*
X374000Y462213*
X374000D02*
X373773Y460650D01*
Y459713*
X373773D02*
X374000Y458150D01*
X374455Y457213*
X374455D02*
X375136Y456900D01*
X375591*
X376273Y457213*
X376273D02*
X376727Y458150D01*
X376955Y459713*
X376955D02*
Y460650D01*
X376727Y462213*
X376727D02*
X376273Y463150D01*
X375591Y463463*
X375591D02*
X375136D01*
X381273D02*
X379000Y459088D01*
X379000D02*
X382409D01*
X381273Y463463D02*
Y456900D01*
X384455Y462213D02*
X384909Y462525D01*
X385591Y463463*
X385591D02*
Y456900D01*
X389000Y463463D02*
X388318Y463150D01*
X387864Y462213*
X387864D02*
X387636Y460650D01*
Y459713*
X387636D02*
X387864Y458150D01*
X388318Y457213*
X388318D02*
X389000Y456900D01*
X389455*
X390136Y457213*
X390136D02*
X390591Y458150D01*
X390818Y459713*
X390818D02*
Y460650D01*
X390591Y462213*
X390591D02*
X390136Y463150D01*
X389455Y463463*
X389455D02*
X389000D01*
X392864Y459713D02*
X396955D01*
X400364Y463463D02*
X399682Y463150D01*
X399227Y462213*
X399227D02*
X399000Y460650D01*
Y459713*
X399000D02*
X399227Y458150D01*
X399682Y457213*
X399682D02*
X400364Y456900D01*
X400818*
X401500Y457213*
X401500D02*
X401955Y458150D01*
X402182Y459713*
X402182D02*
Y460650D01*
X401955Y462213*
X401955D02*
X401500Y463150D01*
X400818Y463463*
X400818D02*
X400364D01*
X405591D02*
X404909Y463150D01*
X404455Y462213*
X404455D02*
X404227Y460650D01*
Y459713*
X404227D02*
X404455Y458150D01*
X404909Y457213*
X404909D02*
X405591Y456900D01*
X406045*
X406727Y457213*
X406727D02*
X407182Y458150D01*
X407409Y459713*
X407409D02*
Y460650D01*
X407182Y462213*
X407182D02*
X406727Y463150D01*
X406045Y463463*
X406045D02*
X405591D01*
X409455Y462213D02*
X409909Y462525D01*
X410591Y463463*
X410591D02*
Y456900D01*
X374000Y448463D02*
Y441900D01*
Y448463D02*
X376045D01*
X376045D02*
X376727Y448150D01*
X376955Y447838*
X376955D02*
X377182Y447213D01*
X377182D02*
Y446588D01*
X377182D02*
X376955Y445963D01*
X376955D02*
X376727Y445650D01*
X376045Y445338*
X374000D02*
X376045D01*
X376045D02*
X376727Y445025D01*
X376955Y444713*
X376955D02*
X377182Y444088D01*
X377182D02*
Y443150D01*
X376955Y442525*
X376727Y442213*
X376727D02*
X376045Y441900D01*
X374000*
X288000Y432963D02*
Y426400D01*
Y432963D02*
X289591D01*
X289591D02*
X290273Y432650D01*
X290727Y432025*
X290955Y431400*
X291182Y430463*
X291182D02*
Y428900D01*
X290955Y427963*
X290955D02*
X290727Y427338D01*
X290727D02*
X290273Y426713D01*
X290273D02*
X289591Y426400D01*
X288000*
X295045Y432963D02*
X293227Y426400D01*
X295045Y432963D02*
X296864Y426400D01*
X293909Y428588D02*
X296182D01*
X300500Y432963D02*
Y426400D01*
X298909Y432963D02*
X302091D01*
X304136D02*
Y426400D01*
Y432963D02*
X307091D01*
X304136Y429838D02*
X305955D01*
X304136Y426400D02*
X307091D01*
X349000Y431713D02*
X349455Y432025D01*
X350136Y432963*
X350136D02*
Y426400D01*
X352636Y432963D02*
X355136D01*
X355136D02*
X353773Y430463D01*
X353773D02*
X354455D01*
X354455D02*
X354909Y430150D01*
X355136Y429838*
X355136D02*
X355364Y428900D01*
Y428275*
X355136Y427338*
X355136D02*
X354682Y426713D01*
X354682D02*
X354000Y426400D01*
X353318*
X352636Y426713*
X352636D02*
X352409Y427025D01*
X352182Y427650*
X362636Y432963D02*
Y426400D01*
Y432963D02*
X364455Y426400D01*
X366273Y432963D02*
X364455Y426400D01*
X366273Y432963D02*
Y426400D01*
X371045Y430775D02*
Y426400D01*
Y429838D02*
X370591Y430463D01*
X370591D02*
X370136Y430775D01*
X369455*
X369000Y430463*
X369000D02*
X368545Y429838D01*
X368545D02*
X368318Y428900D01*
Y428275*
X368545Y427338*
X368545D02*
X369000Y426713D01*
X369000D02*
X369455Y426400D01*
X370136*
X370591Y426713*
X370591D02*
X371045Y427338D01*
X373091Y430775D02*
Y426400D01*
Y428900D02*
X373318Y429838D01*
X373318D02*
X373773Y430463D01*
X373773D02*
X374227Y430775D01*
X374909*
X379682Y429838D02*
X379227Y430463D01*
X379227D02*
X378773Y430775D01*
X378091*
X377636Y430463*
X377636D02*
X377182Y429838D01*
X377182D02*
X376955Y428900D01*
Y428275*
X377182Y427338*
X377182D02*
X377636Y426713D01*
X377636D02*
X378091Y426400D01*
X378773*
X379227Y426713*
X379227D02*
X379682Y427338D01*
X381727Y432963D02*
Y426400D01*
Y429525D02*
X382409Y430463D01*
X382409D02*
X382864Y430775D01*
X383545*
X384000Y430463*
X384000D02*
X384227Y429525D01*
Y426400*
X391727Y431400D02*
Y431713D01*
X391727D02*
X391955Y432338D01*
X391955D02*
X392182Y432650D01*
X392636Y432963*
X392636D02*
X393545D01*
X393545D02*
X394000Y432650D01*
X394227Y432338*
X394227D02*
X394455Y431713D01*
X394455D02*
Y431088D01*
X394455D02*
X394227Y430463D01*
X394227D02*
X393773Y429525D01*
X391500Y426400*
X394682*
X398091Y432963D02*
X397409Y432650D01*
X396955Y431713*
X396955D02*
X396727Y430150D01*
Y429213*
X396727D02*
X396955Y427650D01*
X397409Y426713*
X397409D02*
X398091Y426400D01*
X398545*
X399227Y426713*
X399227D02*
X399682Y427650D01*
X399909Y429213*
X399909D02*
Y430150D01*
X399682Y431713*
X399682D02*
X399227Y432650D01*
X398545Y432963*
X398545D02*
X398091D01*
X401955Y431713D02*
X402409Y432025D01*
X403091Y432963*
X403091D02*
Y426400D01*
X405591Y432963D02*
X408091D01*
X408091D02*
X406727Y430463D01*
X406727D02*
X407409D01*
X407409D02*
X407864Y430150D01*
X408091Y429838*
X408091D02*
X408318Y428900D01*
Y428275*
X408091Y427338*
X408091D02*
X407636Y426713D01*
X407636D02*
X406955Y426400D01*
X406273*
X405591Y426713*
X405591D02*
X405364Y427025D01*
X405136Y427650*
X279000Y501900D02*
X439000D01*
Y421900*
X279000*
Y501900*
Y481900D02*
X439000D01*
X279000Y466900D02*
X439000D01*
X279000Y451900D02*
X439000D01*
X329000Y481900D02*
Y421900D01*
X279000Y436900D02*
X439000D01*
X400000Y187500D02*
Y217500D01*
X407500*
Y187500*
X400000*
Y195000D02*
X407500D01*
X400000Y202500D02*
X407500D01*
X400000Y210000D02*
X407500D01*
G54D20*
X312814Y494300D02*
X312473Y495238D01*
X312473D02*
X311791Y496175D01*
X311109Y496644*
X309745*
X309064Y496175*
X308382Y495238*
X308382D02*
X308041Y494300D01*
X307700Y492894*
Y490550*
X308041Y489144*
X308382Y488206*
X309064Y487269*
X309745Y486800*
X311109*
X311791Y487269*
X312473Y488206*
X312814Y489144*
X318609Y496644D02*
X315882Y486800D01*
X318609Y496644D02*
X321336Y486800D01*
X316905Y490081D02*
X320314D01*
X329518Y494300D02*
X329177Y495238D01*
X329177D02*
X328495Y496175D01*
X327814Y496644*
X326450*
X325768Y496175*
X325086Y495238*
X325086D02*
X324745Y494300D01*
X324405Y492894*
Y490550*
X324745Y489144*
X325086Y488206*
X325768Y487269*
X326450Y486800*
X327814*
X328495Y487269*
X329177Y488206*
X329518Y489144*
X340427Y491019D02*
X346564D01*
X357473Y496644D02*
Y486800D01*
Y496644D02*
X361905D01*
X357473Y491956D02*
X360200D01*
X357473Y486800D02*
X361905D01*
X364973Y496644D02*
Y486800D01*
Y496644D02*
X369745Y486800D01*
Y496644D02*
Y486800D01*
X372814Y496644D02*
Y486800D01*
Y496644D02*
X377245D01*
X372814Y491956D02*
X375541D01*
X372814Y486800D02*
X377245D01*
X382700Y496644D02*
Y486800D01*
X380314Y496644D02*
X385086D01*
X395995D02*
Y486800D01*
Y496644D02*
X400427D01*
X395995Y491956D02*
X398723D01*
X395995Y486800D02*
X400427D01*
X403495Y496644D02*
Y486800D01*
Y496644D02*
X407927D01*
X403495Y491956D02*
X406223D01*
X403495Y486800D02*
X407927D01*
X416109Y494300D02*
X415768Y495238D01*
X415768D02*
X415086Y496175D01*
X414405Y496644*
X413041*
X412359Y496175*
X411677Y495238*
X411677D02*
X411336Y494300D01*
X410995Y492894*
Y490550*
X411336Y489144*
X411677Y488206*
X412359Y487269*
X413041Y486800*
X414405*
X415086Y487269*
X415768Y488206*
X416109Y489144*
G54D21*
X200000Y309000D02*
X201130Y310130D01*
X240000*
X244620Y314750*
Y340986*
X245454Y341821*
X246053*
X239486Y311370D02*
X243380Y315264D01*
Y341500*
X244941Y343061*
X246053*
X248189Y345197*
X239486Y311370D02*
X201130D01*
X200000Y312500*
X267380Y313000D02*
Y336823D01*
X268500Y337943*
X269675*
X271811Y340078*
X268620Y313514D02*
Y336309D01*
X269014Y336703*
X271811Y334567D02*
X269675Y336703D01*
X269014*
X320000Y313000D02*
X318870Y311870D01*
X270264*
X268620Y313514*
X320000Y309500D02*
X318870Y310630D01*
X269750*
X267380Y313000*
X248189Y339685D02*
X246053Y341821D01*
X279590Y345101D02*
X279685Y345197D01*
Y339685D02*
X281726Y341725D01*
X290775*
X292000Y344000D02*
X290965Y342965D01*
X281726*
X279590Y345101*
X292000Y340500D02*
X290775Y341725D01*
G54D22*
X146472Y126488D02*
X138161Y134800D01*
X135900*
X132500Y138200*
Y146260*
X150472Y119488D02*
X146472Y126488D01*
X158472Y119488D02*
X162472Y126488D01*
Y131628*
X154600Y139500*
X144700*
X142500Y141700*
Y146260*
X208472Y126488D02*
X197500Y137461D01*
Y146260*
X212472Y119488D02*
X208472Y126488D01*
X220472Y119488D02*
X224472Y126488D01*
Y133828*
X220200Y138100*
X210700*
X207500Y141300*
Y146260*
X291472Y126488D02*
X282861Y135100D01*
X277600*
X272500Y140200*
Y146260*
X295472Y119488D02*
X291472Y126488D01*
X303472Y119488D02*
X307472Y126488D01*
X294461Y139500*
X284200*
X282500Y141200*
Y146260*
X353472Y126488D02*
X347612D01*
X337500Y136600*
Y146260*
X357472Y119488D02*
X353472Y126488D01*
X365472Y119488D02*
X369472Y126488D01*
Y131728*
X366000Y135200*
X351700*
X347300Y139600*
X160472Y149488D02*
X160472D01*
X152500Y157461*
Y164488*
X142500Y168760D02*
X143578Y169838D01*
X145082*
X149878Y174634*
X151622*
X152500Y175512*
X132500Y153740D02*
X142500D01*
Y168760*
X160472Y149488D02*
X162500Y151516D01*
Y164488*
X197500Y153740D02*
X207500D01*
Y158700*
X212500Y163700*
Y168760*
X172500D02*
Y170360D01*
X168052*
X162900Y175512*
X162500*
X212500Y168760D02*
X214116Y170376D01*
X216588*
X221230Y175018*
X221606*
X222100Y175512*
X222500*
X242500Y168760D02*
Y170335D01*
X238077*
X232900Y175512*
X232500*
X222472Y149488D02*
X228306D01*
X232500Y153682*
Y164488*
X222472Y149488D02*
Y157649D01*
X222500Y157677*
Y164488*
X272500Y153740D02*
X282500D01*
Y168760*
X284092Y170352*
X286940*
X292100Y175512*
X292500*
X312500Y168760D02*
Y168627D01*
X311967*
X310234Y170360*
X308052*
X302900Y175512*
X302500*
X292500Y164488D02*
X302500D01*
X305472Y149488D02*
Y156177D01*
X302500Y159149*
Y164488*
X367472Y149488D02*
X372500Y154516D01*
Y164488*
X367472Y149488D02*
X367472D01*
X347300Y139600D02*
Y146260D01*
X347500*
X352500Y168760D02*
X354106Y170366D01*
X356954*
X362100Y175512*
X362500*
X337500Y153740D02*
X347500D01*
Y159000*
X352500Y164000*
Y168760*
X362500Y164488D02*
X372500D01*
X382500Y168760D02*
Y170360D01*
X378052*
X372900Y175512*
X372500*
X142500Y176240D02*
Y184144D01*
X145000Y186644*
X152500Y175512D02*
X162500D01*
X172500Y176240D02*
Y181344D01*
X170000Y183844*
Y186612*
X212500Y176240D02*
Y184178D01*
X215000Y186678*
X242500Y176240D02*
Y184145D01*
X240000Y186645*
X222500Y175512D02*
X232500D01*
X282500Y176240D02*
Y184038D01*
X285000Y186538*
X312500Y176240D02*
Y184174D01*
X310000Y186674*
X292500Y175512D02*
X302500D01*
X352500Y176240D02*
Y184051D01*
X355000Y186551*
X362500Y175512D02*
X372500D01*
X382500Y176240D02*
Y184037D01*
X380000Y186537*
X145000Y233310D02*
Y237635D01*
X146240Y238875*
Y245000*
X164500D02*
X171260D01*
X138760D02*
X139500D01*
Y251500*
X146240Y245000D02*
X152500D01*
X170000Y233343D02*
Y237642D01*
X171260Y238902*
Y245000*
X199000D02*
X206260D01*
X179000Y238000D02*
Y245000D01*
X178740*
X215000Y234000D02*
Y238000D01*
X213740Y239260*
Y245000*
X240000Y233000D02*
Y237470D01*
X241260Y238730*
Y245000*
X235000*
X248740D02*
X256000D01*
X213740D02*
X220000D01*
X285000Y234000D02*
Y237470D01*
X283740Y238730*
Y245000*
X269900D02*
X276260D01*
X283740D02*
X291000D01*
X304000D02*
X311260D01*
X310000Y234000D02*
Y237000D01*
X311260Y238260*
Y245000*
X318740D02*
X324890D01*
X353740Y244980D02*
X360660D01*
X339550Y244830D02*
X346260D01*
Y245000*
X355050Y233480D02*
Y237690D01*
X353740Y239000*
Y244980*
X360660*
X353740D02*
Y245000D01*
X379980Y233360D02*
Y237640D01*
X381260Y238920*
Y244870*
X374380*
X381260*
Y245000*
X388740D02*
Y245060D01*
X395590*
G54D23*
X145000Y186644D03*
X170000Y186612D03*
X215000Y186678D03*
X240000Y186645D03*
X285000Y186538D03*
X310000Y186674D03*
X355000Y186551D03*
X380000Y186537D03*
X145000Y233310D03*
X170000Y233343D03*
X215000Y234000D03*
X240000Y233000D03*
X285000Y234000D03*
X310000D03*
X355050Y233480D03*
X379980Y233360D03*
X200000Y312500D03*
Y309000D03*
X320000Y309500D03*
Y313000D03*
X292000Y340500D03*
Y344000D03*
G54D24*
X145500Y291500D02*
X148976D01*
X151988Y294512*
Y302500*
X169500Y293000D02*
X164500D01*
X163012Y294488*
Y302500*
X145500D02*
X151988D01*
Y310512*
X150500Y312000*
X145500*
X163012Y302500D02*
Y310488D01*
X166024Y313500*
X169500*
X163012Y302500D02*
X169500D01*
X152500Y245000D03*
X164500D03*
X139500Y251500D03*
X199000Y245000D03*
X179000Y238000D03*
X220000Y245000D03*
X235000D03*
X256000D03*
X269900D03*
X304000D03*
X291000D03*
X324890D03*
X339550Y244830D03*
X360660Y244980D03*
X395590Y245060D03*
X374380Y244870D03*
X145500Y291500D03*
X197500Y291000D03*
X169500Y293000D03*
X197500Y270000D03*
X235000Y291000D03*
Y270000D03*
X267500Y291000D03*
Y270000D03*
X280000D03*
Y291000D03*
X145500Y312000D03*
Y302500D03*
X169500D03*
Y313500D03*
G54D25*
X279685Y361732D03*
X271811Y362126D03*
X263937Y361732D03*
X256063Y362126D03*
X248189Y361732D03*
X240315Y362126D03*
X279685Y356220D03*
X271811Y356614D03*
X263937Y356220D03*
X256063Y356614D03*
X248189Y356220D03*
X240315Y356614D03*
X279685Y350708D03*
X271811Y351102D03*
X263937Y350708D03*
X256063Y351102D03*
X248189Y350708D03*
X240315Y351102D03*
X279685Y345197D03*
X271811Y345590D03*
X263937Y345197D03*
X256063Y345590D03*
X248189Y345197D03*
X240315Y345590D03*
X279685Y339685D03*
X271811Y340078D03*
X263937Y339685D03*
X256063Y340078D03*
X248189Y339685D03*
X240315Y340078D03*
X279685Y334173D03*
X271811Y334567D03*
X263937Y334173D03*
X256063Y334567D03*
X248189Y334173D03*
X240315Y334567D03*
X279685Y328661D03*
X271811Y329055D03*
X263937Y328661D03*
X256063Y329055D03*
X248189Y328661D03*
X240315Y329055D03*
X279685Y323149D03*
X271811Y323543D03*
X263937Y323149D03*
X256063Y323543D03*
X248189Y323149D03*
X240315Y323543D03*
X279685Y317638D03*
X271811Y318031D03*
X263937Y317638D03*
X256063Y318031D03*
X248189Y317638D03*
X240315Y318031D03*
G54D26*
X292500Y175512D03*
Y164488D03*
X152500Y175512D03*
Y164488D03*
X372500Y175512D03*
Y164488D03*
X222500Y175512D03*
Y164488D03*
X302500D03*
Y175512D03*
X162500Y164488D03*
Y175512D03*
X362500Y164488D03*
Y175512D03*
X232500Y164488D03*
Y175512D03*
G54D31*
X406408Y334063D02*
X406544Y334438D01*
X406817Y334813*
X407089Y335001*
X407089D02*
X407635D01*
X407635D02*
X407908Y334813D01*
X408180Y334438*
X408317Y334063*
X408453Y333501*
X408453D02*
Y332563D01*
X408317Y332001*
X408317D02*
X408180Y331626D01*
X408180D02*
X407908Y331251D01*
X407908D02*
X407635Y331063D01*
X407089*
X406817Y331251*
X406817D02*
X406544Y331626D01*
X406544D02*
X406408Y332001D01*
X404362Y335001D02*
X404635Y334813D01*
X404908Y334438*
X405044Y334063*
X405180Y333501*
X405180D02*
Y332563D01*
X405044Y332001*
X405044D02*
X404908Y331626D01*
X404908D02*
X404635Y331251D01*
X404635D02*
X404362Y331063D01*
X403817*
X403544Y331251*
X403544D02*
X403271Y331626D01*
X403271D02*
X403135Y332001D01*
X403135D02*
X402998Y332563D01*
Y333501*
X402998D02*
X403135Y334063D01*
X403271Y334438*
X403544Y334813*
X403817Y335001*
X403817D02*
X404362D01*
X401771D02*
Y331063D01*
Y335001D02*
X400680Y331063D01*
X399589Y335001D02*
X400680Y331063D01*
X399589Y335001D02*
Y331063D01*
X398362Y335001D02*
Y331063D01*
Y335001D02*
X397135D01*
X397135D02*
X396726Y334813D01*
X396589Y334626*
X396589D02*
X396453Y334251D01*
X396453D02*
Y333688D01*
X396589Y333313*
X396726Y333126*
X396726D02*
X397135Y332938D01*
X398362*
X395226Y335001D02*
Y331063D01*
Y335001D02*
X393998D01*
X393998D02*
X393589Y334813D01*
X393453Y334626*
X393453D02*
X393317Y334251D01*
X393317D02*
Y333876D01*
X393317D02*
X393453Y333501D01*
X393453D02*
X393589Y333313D01*
X393998Y333126*
X393998D02*
X395226D01*
X394271D02*
X393317Y331063D01*
X392089Y335001D02*
Y331063D01*
Y335001D02*
X390317D01*
X392089Y333126D02*
X390998D01*
X392089Y331063D02*
X390317D01*
X387180Y334438D02*
X387453Y334813D01*
X387862Y335001*
X387862D02*
X388408D01*
X388408D02*
X388817Y334813D01*
X389089Y334438*
Y334063*
X388953Y333688*
X388817Y333501*
X388817D02*
X388544Y333313D01*
X387726Y332938*
X387453Y332751*
X387453D02*
X387317Y332563D01*
X387180Y332188*
Y331626*
X387180D02*
X387453Y331251D01*
X387453D02*
X387862Y331063D01*
X388408*
X388817Y331251*
X388817D02*
X389089Y331626D01*
X384044Y334438D02*
X384317Y334813D01*
X384726Y335001*
X384726D02*
X385271D01*
X385271D02*
X385680Y334813D01*
X385953Y334438*
Y334063*
X385817Y333688*
X385680Y333501*
X385680D02*
X385408Y333313D01*
X384589Y332938*
X384317Y332751*
X384317D02*
X384180Y332563D01*
X384044Y332188*
Y331626*
X384044D02*
X384317Y331251D01*
X384317D02*
X384726Y331063D01*
X385271*
X385680Y331251*
X385680D02*
X385953Y331626D01*
X381998Y335001D02*
X382271Y334813D01*
X382544Y334438*
X382680Y334063*
X382817Y333501*
X382817D02*
Y332563D01*
X382680Y332001*
X382680D02*
X382544Y331626D01*
X382544D02*
X382271Y331251D01*
X382271D02*
X381998Y331063D01*
X381453*
X381180Y331251*
X381180D02*
X380908Y331626D01*
X380908D02*
X380771Y332001D01*
X380771D02*
X380635Y332563D01*
Y333501*
X380635D02*
X380771Y334063D01*
X380908Y334438*
X381180Y334813*
X381453Y335001*
X381453D02*
X381998D01*
X379408D02*
Y331063D01*
Y335001D02*
X378180D01*
X378180D02*
X377771Y334813D01*
X377635Y334626*
X377635D02*
X377498Y334251D01*
X377498D02*
Y333876D01*
X377498D02*
X377635Y333501D01*
X377635D02*
X377771Y333313D01*
X378180Y333126*
X378180D02*
X379408D01*
X378453D02*
X377498Y331063D01*
X371089Y334063D02*
X371226Y334438D01*
X371498Y334813*
X371771Y335001*
X371771D02*
X372317D01*
X372317D02*
X372589Y334813D01*
X372862Y334438*
X372998Y334063*
X373135Y333501*
X373135D02*
Y332563D01*
X372998Y332001*
X372998D02*
X372862Y331626D01*
X372862D02*
X372589Y331251D01*
X372589D02*
X372317Y331063D01*
X371771*
X371498Y331251*
X371498D02*
X371226Y331626D01*
X371226D02*
X371089Y332001D01*
X369044Y335001D02*
X369317Y334813D01*
X369589Y334438*
X369726Y334063*
X369862Y333501*
X369862D02*
Y332563D01*
X369726Y332001*
X369726D02*
X369589Y331626D01*
X369589D02*
X369317Y331251D01*
X369317D02*
X369044Y331063D01*
X368498*
X368226Y331251*
X368226D02*
X367953Y331626D01*
X367953D02*
X367817Y332001D01*
X367817D02*
X367680Y332563D01*
Y333501*
X367680D02*
X367817Y334063D01*
X367953Y334438*
X368226Y334813*
X368498Y335001*
X368498D02*
X369044D01*
X366453D02*
Y331063D01*
Y335001D02*
X364544Y331063D01*
Y335001D02*
Y331063D01*
X362362Y335001D02*
Y331063D01*
X363317Y335001D02*
X361408D01*
X360180D02*
Y331063D01*
Y335001D02*
X358953D01*
X358953D02*
X358544Y334813D01*
X358408Y334626*
X358408D02*
X358271Y334251D01*
X358271D02*
Y333876D01*
X358271D02*
X358408Y333501D01*
X358408D02*
X358544Y333313D01*
X358953Y333126*
X358953D02*
X360180D01*
X359226D02*
X358271Y331063D01*
X356226Y335001D02*
X356498Y334813D01*
X356771Y334438*
X356908Y334063*
X357044Y333501*
X357044D02*
Y332563D01*
X356908Y332001*
X356908D02*
X356771Y331626D01*
X356771D02*
X356498Y331251D01*
X356498D02*
X356226Y331063D01*
X355680*
X355408Y331251*
X355408D02*
X355135Y331626D01*
X355135D02*
X354998Y332001D01*
X354998D02*
X354862Y332563D01*
Y333501*
X354862D02*
X354998Y334063D01*
X355135Y334438*
X355408Y334813*
X355680Y335001*
X355680D02*
X356226D01*
X353635D02*
Y331063D01*
X351998*
X348862Y334438D02*
X349135Y334813D01*
X349544Y335001*
X349544D02*
X350089D01*
X350089D02*
X350498Y334813D01*
X350771Y334438*
Y334063*
X350635Y333688*
X350498Y333501*
X350498D02*
X350226Y333313D01*
X349408Y332938*
X349135Y332751*
X349135D02*
X348998Y332563D01*
X348862Y332188*
Y331626*
X348862D02*
X349135Y331251D01*
X349135D02*
X349544Y331063D01*
X350089*
X350498Y331251*
X350498D02*
X350771Y331626D01*
X342453Y334063D02*
X342589Y334438D01*
X342862Y334813*
X343135Y335001*
X343135D02*
X343680D01*
X343680D02*
X343953Y334813D01*
X344226Y334438*
X344362Y334063*
X344498Y333501*
X344498D02*
Y332563D01*
X344362Y332001*
X344362D02*
X344226Y331626D01*
X344226D02*
X343953Y331251D01*
X343953D02*
X343680Y331063D01*
X343135*
X342862Y331251*
X342862D02*
X342589Y331626D01*
X342589D02*
X342453Y332001D01*
X340408Y335001D02*
X340680Y334813D01*
X340953Y334438*
X341089Y334063*
X341226Y333501*
X341226D02*
Y332563D01*
X341089Y332001*
X341089D02*
X340953Y331626D01*
X340953D02*
X340680Y331251D01*
X340680D02*
X340408Y331063D01*
X339862*
X339589Y331251*
X339589D02*
X339317Y331626D01*
X339317D02*
X339180Y332001D01*
X339180D02*
X339044Y332563D01*
Y333501*
X339044D02*
X339180Y334063D01*
X339317Y334438*
X339589Y334813*
X339862Y335001*
X339862D02*
X340408D01*
X337817D02*
Y331063D01*
Y335001D02*
X336589D01*
X336589D02*
X336180Y334813D01*
X336044Y334626*
X336044D02*
X335908Y334251D01*
X335908D02*
Y333876D01*
X335908D02*
X336044Y333501D01*
X336044D02*
X336180Y333313D01*
X336589Y333126*
X336589D02*
X337817D01*
X336862D02*
X335908Y331063D01*
X334680Y335001D02*
Y331063D01*
Y335001D02*
X333453D01*
X333453D02*
X333044Y334813D01*
X332908Y334626*
X332908D02*
X332771Y334251D01*
X332771D02*
Y333688D01*
X332908Y333313*
X333044Y333126*
X333044D02*
X333453Y332938D01*
X334680*
X330726Y335001D02*
X330998Y334813D01*
X331271Y334438*
X331408Y334063*
X331544Y333501*
X331544D02*
Y332563D01*
X331408Y332001*
X331408D02*
X331271Y331626D01*
X331271D02*
X330998Y331251D01*
X330998D02*
X330726Y331063D01*
X330180*
X329908Y331251*
X329908D02*
X329635Y331626D01*
X329635D02*
X329498Y332001D01*
X329498D02*
X329362Y332563D01*
Y333501*
X329362D02*
X329498Y334063D01*
X329635Y334438*
X329908Y334813*
X330180Y335001*
X330180D02*
X330726D01*
X328135D02*
Y331063D01*
Y335001D02*
X326908D01*
X326908D02*
X326498Y334813D01*
X326362Y334626*
X326362D02*
X326226Y334251D01*
X326226D02*
Y333876D01*
X326226D02*
X326362Y333501D01*
X326362D02*
X326498Y333313D01*
X326908Y333126*
X326908D02*
X328135D01*
X327180D02*
X326226Y331063D01*
X323908Y335001D02*
X324998Y331063D01*
X323908Y335001D02*
X322817Y331063D01*
X324589Y332376D02*
X323226D01*
X320635Y335001D02*
Y331063D01*
X321589Y335001D02*
X319680D01*
X318453D02*
Y331063D01*
X316408Y335001D02*
X316680Y334813D01*
X316953Y334438*
X317089Y334063*
X317226Y333501*
X317226D02*
Y332563D01*
X317089Y332001*
X317089D02*
X316953Y331626D01*
X316953D02*
X316680Y331251D01*
X316680D02*
X316408Y331063D01*
X315862*
X315589Y331251*
X315589D02*
X315317Y331626D01*
X315317D02*
X315180Y332001D01*
X315180D02*
X315044Y332563D01*
Y333501*
X315044D02*
X315180Y334063D01*
X315317Y334438*
X315589Y334813*
X315862Y335001*
X315862D02*
X316408D01*
X313817D02*
Y331063D01*
Y335001D02*
X311908Y331063D01*
Y335001D02*
Y331063D01*
X408861Y322263D02*
X408588Y322450D01*
X408179Y323013*
X408179D02*
Y319075D01*
X405043Y323013D02*
X406406Y319075D01*
X406952Y323013D02*
X405043D01*
X403816Y320763D02*
X401361D01*
X398497Y322450D02*
X398634Y322825D01*
X399043Y323013*
X399043D02*
X399316D01*
X399316D02*
X399725Y322825D01*
X399997Y322263*
X399997D02*
X400134Y321325D01*
Y320388*
X400134D02*
X399997Y319638D01*
X399997D02*
X399725Y319263D01*
X399725D02*
X399316Y319075D01*
X399179*
X398770Y319263*
X398770D02*
X398497Y319638D01*
X398497D02*
X398361Y320200D01*
Y320388*
X398361D02*
X398497Y320950D01*
X398770Y321325*
X399179Y321513*
X399179D02*
X399316D01*
X399316D02*
X399725Y321325D01*
X399997Y320950*
X400134Y320388*
X396316Y323013D02*
X396725Y322825D01*
X396997Y322263*
X396997D02*
X397134Y321325D01*
Y320763*
X397134D02*
X396997Y319825D01*
X396725Y319263*
X396725D02*
X396316Y319075D01*
X396043*
X395634Y319263*
X395634D02*
X395361Y319825D01*
X395225Y320763*
X395225D02*
Y321325D01*
X395361Y322263*
X395361D02*
X395634Y322825D01*
X396043Y323013*
X396043D02*
X396316D01*
X393179D02*
X393588Y322825D01*
X393861Y322263*
X393861D02*
X393997Y321325D01*
Y320763*
X393997D02*
X393861Y319825D01*
X393588Y319263*
X393588D02*
X393179Y319075D01*
X392906*
X392497Y319263*
X392497D02*
X392225Y319825D01*
X392088Y320763*
X392088D02*
Y321325D01*
X392225Y322263*
X392225D02*
X392497Y322825D01*
X392906Y323013*
X392906D02*
X393179D01*
X389497D02*
X390861Y320388D01*
X390861D02*
X388816D01*
X389497Y323013D02*
Y319075D01*
X387588Y322263D02*
X387316Y322450D01*
X386906Y323013*
X386906D02*
Y319075D01*
X384861Y323013D02*
X385270Y322825D01*
X385543Y322263*
X385543D02*
X385679Y321325D01*
Y320763*
X385679D02*
X385543Y319825D01*
X385270Y319263*
X385270D02*
X384861Y319075D01*
X384588*
X384179Y319263*
X384179D02*
X383906Y319825D01*
X383770Y320763*
X383770D02*
Y321325D01*
X383906Y322263*
X383906D02*
X384179Y322825D01*
X384588Y323013*
X384588D02*
X384861D01*
X382543Y320763D02*
X380088D01*
X378043Y323013D02*
X378452Y322825D01*
X378725Y322263*
X378725D02*
X378861Y321325D01*
Y320763*
X378861D02*
X378725Y319825D01*
X378452Y319263*
X378452D02*
X378043Y319075D01*
X377770*
X377361Y319263*
X377361D02*
X377088Y319825D01*
X376952Y320763*
X376952D02*
Y321325D01*
X377088Y322263*
X377088D02*
X377361Y322825D01*
X377770Y323013*
X377770D02*
X378043D01*
X374906D02*
X375316Y322825D01*
X375588Y322263*
X375588D02*
X375725Y321325D01*
Y320763*
X375725D02*
X375588Y319825D01*
X375316Y319263*
X375316D02*
X374906Y319075D01*
X374634*
X374225Y319263*
X374225D02*
X373952Y319825D01*
X373816Y320763*
X373816D02*
Y321325D01*
X373952Y322263*
X373952D02*
X374225Y322825D01*
X374634Y323013*
X374634D02*
X374906D01*
X372588Y322263D02*
X372316Y322450D01*
X371906Y323013*
X371906D02*
Y319075D01*
X367543Y323013D02*
Y319075D01*
Y323013D02*
X366316D01*
X366316D02*
X365906Y322825D01*
X365770Y322638*
X365770D02*
X365634Y322263D01*
X365634D02*
Y321888D01*
X365634D02*
X365770Y321513D01*
X365770D02*
X365906Y321325D01*
X366316Y321138*
X366316D02*
X367543D01*
X366588D02*
X365634Y319075D01*
X364406Y323013D02*
Y319075D01*
Y323013D02*
X362634D01*
X364406Y321138D02*
X363316D01*
X364406Y319075D02*
X362634D01*
X361406Y323013D02*
X360316Y319075D01*
X359225Y323013D02*
X360316Y319075D01*
X354861Y323013D02*
Y319075D01*
Y323013D02*
X353634D01*
X353634D02*
X353225Y322825D01*
X353088Y322638*
X353088D02*
X352952Y322263D01*
X352952D02*
Y321888D01*
X352952D02*
X353088Y321513D01*
X353088D02*
X353225Y321325D01*
X353634Y321138*
X354861D02*
X353634D01*
X353634D02*
X353225Y320950D01*
X353088Y320763*
X353088D02*
X352952Y320388D01*
X352952D02*
Y319825D01*
X353088Y319450*
X353225Y319263*
X353225D02*
X353634Y319075D01*
X354861*
X408191Y310292D02*
Y306354D01*
Y310292D02*
X407100Y306354D01*
X406009Y310292D02*
X407100Y306354D01*
X406009Y310292D02*
Y306354D01*
X403691Y310292D02*
X404782Y306354D01*
X403691Y310292D02*
X402600Y306354D01*
X404373Y307667D02*
X403009D01*
X401373Y310292D02*
Y306354D01*
Y310292D02*
X400418D01*
X400418D02*
X400009Y310104D01*
X399736Y309729*
X399600Y309354*
X399464Y308792*
X399464D02*
Y307854D01*
X399600Y307292*
X399600D02*
X399736Y306917D01*
X399736D02*
X400009Y306542D01*
X400009D02*
X400418Y306354D01*
X401373*
X398236Y310292D02*
Y306354D01*
Y310292D02*
X396464D01*
X398236Y308417D02*
X397146D01*
X398236Y306354D02*
X396464D01*
X392100Y310292D02*
Y306354D01*
X390873Y310292D02*
Y306354D01*
Y310292D02*
X388964Y306354D01*
Y310292D02*
Y306354D01*
X384600Y310292D02*
Y307479D01*
X384464Y306917*
X384464D02*
X384191Y306542D01*
X384191D02*
X383782Y306354D01*
X383509*
X383100Y306542*
X383100D02*
X382827Y306917D01*
X382827D02*
X382691Y307479D01*
Y310292*
X381327Y306729D02*
X381464Y306542D01*
X381464D02*
X381327Y306354D01*
X381191Y306542*
X381191D02*
X381327Y306729D01*
X378055Y309729D02*
X378327Y310104D01*
X378736Y310292*
X378736D02*
X379282D01*
X379282D02*
X379691Y310104D01*
X379964Y309729*
Y309354*
X379827Y308979*
X379691Y308792*
X379691D02*
X379418Y308604D01*
X378600Y308229*
X378327Y308042*
X378327D02*
X378191Y307854D01*
X378055Y307479*
Y306917*
X378055D02*
X378327Y306542D01*
X378327D02*
X378736Y306354D01*
X379282*
X379691Y306542*
X379691D02*
X379964Y306917D01*
X376691Y306729D02*
X376827Y306542D01*
X376827D02*
X376691Y306354D01*
X376555Y306542*
X376555D02*
X376691Y306729D01*
X374236Y310292D02*
X375327Y306354D01*
X374236Y310292D02*
X373146Y306354D01*
X374918Y307667D02*
X373555D01*
X371782Y306729D02*
X371918Y306542D01*
X371918D02*
X371782Y306354D01*
X371646Y306542*
X371646D02*
X371782Y306729D01*
X360641Y309706D02*
X361050Y309518D01*
X361323Y308956*
X361323D02*
X361459Y308018D01*
Y307456*
X361459D02*
X361323Y306518D01*
X361050Y305956*
X361050D02*
X360641Y305768D01*
X360368*
X359959Y305956*
X359959D02*
X359686Y306518D01*
X359550Y307456*
X359550D02*
Y308018D01*
X359686Y308956*
X359686D02*
X359959Y309518D01*
X360368Y309706*
X360368D02*
X360641D01*
X358050D02*
X356550D01*
X356550D02*
X357368Y308206D01*
X357368D02*
X356959D01*
X356959D02*
X356686Y308018D01*
X356550Y307831*
X356550D02*
X356414Y307268D01*
Y306893*
X356550Y306331*
X356550D02*
X356823Y305956D01*
X356823D02*
X357232Y305768D01*
X357641*
X358050Y305956*
X358050D02*
X358186Y306143D01*
X358323Y306518*
X352732Y310456D02*
X355186Y304455D01*
X351504Y308956D02*
X351232Y309143D01*
X350823Y309706*
X350823D02*
Y305768D01*
X349323Y309706D02*
X347823D01*
X347823D02*
X348641Y308206D01*
X348641D02*
X348232D01*
X348232D02*
X347959Y308018D01*
X347823Y307831*
X347823D02*
X347686Y307268D01*
Y306893*
X347823Y306331*
X347823D02*
X348095Y305956D01*
X348095D02*
X348504Y305768D01*
X348914*
X349323Y305956*
X349323D02*
X349459Y306143D01*
X349595Y306518*
X344004Y310456D02*
X346459Y304455D01*
X342641Y308768D02*
Y308956D01*
X342641D02*
X342504Y309331D01*
X342504D02*
X342368Y309518D01*
X342095Y309706*
X342095D02*
X341550D01*
X341550D02*
X341277Y309518D01*
X341141Y309331*
X341141D02*
X341004Y308956D01*
X341004D02*
Y308581D01*
X341004D02*
X341141Y308206D01*
X341141D02*
X341414Y307643D01*
X342777Y305768*
X340868*
X338823Y309706D02*
X339232Y309518D01*
X339504Y308956*
X339504D02*
X339641Y308018D01*
Y307456*
X339641D02*
X339504Y306518D01*
X339232Y305956*
X339232D02*
X338823Y305768D01*
X338550*
X338141Y305956*
X338141D02*
X337868Y306518D01*
X337732Y307456*
X337732D02*
Y308018D01*
X337868Y308956*
X337868D02*
X338141Y309518D01*
X338550Y309706*
X338550D02*
X338823D01*
X336504Y308956D02*
X336232Y309143D01*
X335823Y309706*
X335823D02*
Y305768D01*
X334323Y309706D02*
X332823D01*
X332823D02*
X333641Y308206D01*
X333641D02*
X333232D01*
X333232D02*
X332959Y308018D01*
X332823Y307831*
X332823D02*
X332686Y307268D01*
Y306893*
X332823Y306331*
X332823D02*
X333095Y305956D01*
X333095D02*
X333504Y305768D01*
X333914*
X334323Y305956*
X334323D02*
X334459Y306143D01*
X334595Y306518*
G54D33*
X402219Y213364D02*
X404406Y214500D01*
Y212795*
X402219Y213364D02*
X405500D01*
G54D34*
X247472Y109488D02*
X280000D01*
X280472*
X392472D02*
X396472Y113488D01*
Y122988*
X130984Y302087D02*
Y328150D01*
Y350315*
G54D58*
X135472Y109488D02*
Y111500D01*
X131472Y115500*
Y122988*
G54D59*
X197500Y270000D02*
Y276260D01*
Y283740D02*
Y291000D01*
X235000Y270000D02*
Y276260D01*
Y283740D02*
Y291000D01*
X267500Y270000D02*
Y276260D01*
X280000Y270000D02*
Y276260D01*
X267500Y283740D02*
Y291000D01*
X280000Y283740D02*
Y291000D01*
G54D65*
X163012Y302500D03*
X151988D03*
X0Y0D02*
M02*
