%
T1C.012F095S3
X1009Y10045
X1024Y10045
X10045Y1015
X10045Y103
X10045Y1045
X10046Y106
X10045Y1075
X10045Y109
X10045Y1105
X10045Y112
X10225Y11285
X10045Y1135
X10225Y11485
X10045Y115
X10045Y1165
X10045Y118
X10045Y1195
X10045Y121
X10045Y1225
X10045Y124
X10045Y1255
X103996Y116395
X10525Y11485
X10425Y11485
X10325Y11485
X10325Y11285
X10425Y11285
X10525Y11285
X103896Y109795
X103566Y109795
X1054Y10045
X1039Y10045
X1069Y10045
X106436Y108855
X106436Y109175
X106796Y111995
X106496Y111995
X10625Y11285
X10725Y11285
X10725Y11485
X10625Y11485
X106796Y115695
X106496Y115695
X107309Y120742
X106946Y120745
X107618Y12163
X106586Y121662
X10632Y12193
X107318Y122816
X107446Y125145
X109696Y124095
X109696Y123695
X109696Y123295
X10975Y1194
X109746Y116395
X10925Y11485
X10825Y11485
X11025Y11485
X11025Y11285
X10825Y11285
X10925Y11285
X108246Y111385
X108746Y111385
X108796Y108875
X109116Y108855
X1099Y10045
X1084Y10045
X1114Y10045
X1129Y10045
X1144Y10045
X1147Y1146
X114Y1146
X1147Y11505
X114Y11505
X1163Y12655
X1178Y12655
X1155Y11485
X1175Y11485
X1165Y11485
X1165Y1129
X1175Y1129
X1155Y11285
X117726Y108515
X1174Y10045
X1159Y10045
X1204Y10045
X1189Y10045
X118196Y108525
X1185Y1129
X1195Y1129
X1195Y11485
X1185Y11485
X118046Y116345
X12Y1215
X12Y1224
X12Y123
X12Y1236
X11838Y1243
X11952Y1243
X11894Y1243
X1193Y12655
X1208Y12655
X1223Y12655
X12258Y12362
X1221Y12356
X1225Y1225
X12282Y12186
X120846Y115695
X120496Y115695
X1215Y11485
X1205Y11485
X1225Y11485
X1225Y1129
X1205Y1129
X1215Y1129
X120496Y111995
X120846Y111995
X122246Y111365
X122746Y111365
X121556Y108485
X121926Y108475
X1219Y10045
X1249Y10045
X1234Y10045
X1235Y1129
X1248Y1129
X12475Y11485
X1235Y11485
X123746Y116345
X12322Y12186
X1235Y1221
X12408Y12252
X1253Y12655
X1238Y12655
X12655Y1255
X12655Y124
X12655Y1225
X12655Y121
X12655Y1195
X12655Y118
X12655Y1165
X12655Y1157
X126096Y115695
X12655Y115
X12575Y11485
X12655Y1135
X1258Y1129
X12655Y112
X12655Y1105
X12655Y109
X12655Y1075
X12655Y106
X12655Y1045
X12655Y103
X12655Y1015
X1264Y10045
T2C.0197F095S3
X112315Y121759
X111527Y121798
X112315Y12231
X111527Y122349
X112315Y122861
X111527Y1229
X112315Y123412
X111527Y123452
X112315Y123963
X111527Y124003
X112315Y124514
X111527Y124554
X112315Y125066
X111527Y125105
X112315Y125617
X111527Y125656
X112315Y126168
X111527Y126207
X113102Y126207
X114677Y126207
X11389Y126168
X114677Y125656
X113102Y125656
X11389Y125617
X114677Y125105
X113102Y125105
X11389Y125066
X113102Y124554
X114677Y124554
X11389Y124514
X113102Y124003
X114677Y124003
X11389Y123963
X114677Y123452
X113102Y123452
X11389Y123412
X114677Y1229
X113102Y1229
X11389Y122861
X113102Y122349
X114677Y122349
X11389Y12231
X113102Y121798
X114677Y121798
X11389Y121759
X115464Y121759
X115464Y12231
X115464Y122861
X115464Y123412
X115464Y123963
X115464Y124514
X115464Y125066
X115464Y125617
X115464Y126168
T3C.02F197S55
X104123Y107408
X103206Y109485
X105386Y109655
X102646Y110295
X103496Y111265
X104496Y111265
X10266Y11668
X1027Y1172
X1041Y11764
X1027Y11785
X10504Y11798
X10565Y12565
X106696Y122945
X107077Y119396
X10613Y11932
X107126Y118105
X107627Y1181
X10641Y11749
X106366Y116335
X105966Y109665
X107116Y109645
X107576Y108565
X106582Y10736
X106746Y105415
X106946Y104945
X10586Y10209
X10695Y10209
X110916Y107665
X111746Y108625
X110106Y108725
X111646Y109465
X108596Y109965
X110506Y110045
X109246Y111175
X110246Y111295
X112216Y115875
X112666Y115995
X112206Y116365
X108246Y116405
X112866Y116455
X108642Y117619
X110646Y118095
X1113Y11865
X11285Y11915
X109746Y121495
X109746Y121995
X109796Y124895
X109779Y125468
X11658Y12052
X113346Y120134
X11656Y11998
X114996Y119245
X114346Y119245
X114996Y118645
X11755Y1182
X11655Y118
X114996Y117995
X115186Y116475
X114936Y115735
X117506Y111265
X11759Y10979
X115376Y109585
X116126Y109565
X115246Y108705
X116726Y108575
X116066Y107685
X1189Y10209
X12004Y10209
X119496Y104995
X119996Y105205
X119176Y108565
X11835Y10956
X120126Y109595
X119386Y109665
X118496Y111295
X120246Y116465
X118711Y1181
X125Y12376
X12502Y1199
X1207Y1195
X12458Y11792
X120536Y117505
X122431Y117502
X123846Y116895
X122326Y116455
X123246Y111295
X124246Y111295
X124546Y110295
X121876Y109635
X121126Y109625
X120476Y108565
X123656Y107895
X12555Y1097
X12605Y1167
X12605Y1175
X12578Y12042
T4C.036F197S55
X102Y105745
X103Y105745
X102Y108745
X103Y108745
X124246Y108995
X125246Y108995
X125246Y105995
X124246Y105995
T5C.044F139S55
X105297Y102851
X107478Y102851
X106388Y102851
X105842Y103991
X104752Y103991
X106933Y103991
X109114Y103991
X108023Y103991
X117752Y103991
X108569Y102851
X119388Y102851
X118297Y102851
X120478Y102851
X121569Y102851
X122114Y103991
X118842Y103991
X119933Y103991
X121023Y103991
T6C.128F035S794
X102012Y103421
X111854Y103421
X115012Y103421
X124854Y103421
T7C.15748F035S9
X103102Y120203
X103102Y12281
X103102Y125026
M30
