  0
SECTION
  2
HEADER
  9
$ACADVER
  1
AC1015
  9
$ACADMAINTVER
 70
     6
  9
$DWGCODEPAGE
  3
ANSI_1252
  9
$INSBASE
 10
0.0
 20
0.0
 30
0.0
  9
$EXTMIN
 10
0.0725111487233789
 20
0.211487794541199
 30
-0.0015258207003583
  9
$EXTMAX
 10
594.1087660315782
 20
420.2371225601959
 30
0.0000000349246037
  9
$LIMMIN
 10
0.0
 20
0.0
  9
$LIMMAX
 10
594.0
 20
420.0
  9
$ORTHOMODE
 70
     0
  9
$REGENMODE
 70
     1
  9
$FILLMODE
 70
     1
  9
$QTEXTMODE
 70
     0
  9
$MIRRTEXT
 70
     1
  9
$LTSCALE
 40
1.0
  9
$ATTMODE
 70
     1
  9
$TEXTSIZE
 40
2.5
  9
$TRACEWID
 40
1.0
  9
$TEXTSTYLE
  7
Standard
  9
$CLAYER
  8
0
  9
$CELTYPE
  6
ByLayer
  9
$CECOLOR
 62
   256
  9
$CELTSCALE
 40
1.0
  9
$DISPSILH
 70
     0
  9
$DIMSCALE
 40
1.0
  9
$DIMASZ
 40
3.0
  9
$DIMEXO
 40
1.0
  9
$DIMDLI
 40
3.75
  9
$DIMRND
 40
0.0
  9
$DIMDLE
 40
0.0
  9
$DIMEXE
 40
1.0
  9
$DIMTP
 40
0.0
  9
$DIMTM
 40
0.0
  9
$DIMTXT
 40
3.5
  9
$DIMCEN
 40
2.5
  9
$DIMTSZ
 40
0.0
  9
$DIMTOL
 70
     0
  9
$DIMLIM
 70
     0
  9
$DIMTIH
 70
     0
  9
$DIMTOH
 70
     0
  9
$DIMSE1
 70
     0
  9
$DIMSE2
 70
     0
  9
$DIMTAD
 70
     1
  9
$DIMZIN
 70
     0
  9
$DIMBLK
  1

  9
$DIMASO
 70
     1
  9
$DIMSHO
 70
     1
  9
$DIMPOST
  1

  9
$DIMAPOST
  1

  9
$DIMALT
 70
     0
  9
$DIMALTD
 70
     3
  9
$DIMALTF
 40
0.0393700787
  9
$DIMLFAC
 40
1.0
  9
$DIMTOFL
 70
     1
  9
$DIMTVP
 40
0.0
  9
$DIMTIX
 70
     0
  9
$DIMSOXD
 70
     0
  9
$DIMSAH
 70
     0
  9
$DIMBLK1
  1

  9
$DIMBLK2
  1

  9
$DIMSTYLE
  2
ISO-25
  9
$DIMCLRD
 70
     0
  9
$DIMCLRE
 70
     0
  9
$DIMCLRT
 70
     0
  9
$DIMTFAC
 40
1.0
  9
$DIMGAP
 40
0.5
  9
$DIMJUST
 70
     0
  9
$DIMSD1
 70
     0
  9
$DIMSD2
 70
     0
  9
$DIMTOLJ
 70
     0
  9
$DIMTZIN
 70
     0
  9
$DIMALTZ
 70
     0
  9
$DIMALTTZ
 70
     0
  9
$DIMUPT
 70
     0
  9
$DIMDEC
 70
     2
  9
$DIMTDEC
 70
     2
  9
$DIMALTU
 70
     2
  9
$DIMALTTD
 70
     3
  9
$DIMTXSTY
  7
Standard
  9
$DIMAUNIT
 70
     0
  9
$DIMADEC
 70
     2
  9
$DIMALTRND
 40
0.0
  9
$DIMAZIN
 70
     0
  9
$DIMDSEP
 70
    44
  9
$DIMATFIT
 70
     3
  9
$DIMFRAC
 70
     0
  9
$DIMLDRBLK
  1

  9
$DIMLUNIT
 70
     2
  9
$DIMLWD
 70
    -2
  9
$DIMLWE
 70
    -2
  9
$DIMTMOVE
 70
     0
  9
$LUNITS
 70
     2
  9
$LUPREC
 70
     2
  9
$SKETCHINC
 40
1.0
  9
$FILLETRAD
 40
10.0
  9
$AUNITS
 70
     0
  9
$AUPREC
 70
     2
  9
$MENU
  1
.
  9
$ELEVATION
 40
0.0
  9
$PELEVATION
 40
0.0
  9
$THICKNESS
 40
0.0
  9
$LIMCHECK
 70
     0
  9
$CHAMFERA
 40
10.0
  9
$CHAMFERB
 40
10.0
  9
$CHAMFERC
 40
20.0
  9
$CHAMFERD
 40
0.0
  9
$SKPOLY
 70
     0
  9
$TDCREATE
 40
2455786.623199120
  9
$TDUCREATE
 40
2455786.394032454
  9
$TDUPDATE
 40
2455786.651108610
  9
$TDUUPDATE
 40
2455786.421941944
  9
$TDINDWG
 40
0.0263167361
  9
$TDUSRTIMER
 40
0.0263167361
  9
$USRTIMER
 70
     1
  9
$ANGBASE
 50
0.0
  9
$ANGDIR
 70
     0
  9
$PDMODE
 70
     0
  9
$PDSIZE
 40
-1.0
  9
$PLINEWID
 40
0.0
  9
$SPLFRAME
 70
     0
  9
$SPLINETYPE
 70
     6
  9
$SPLINESEGS
 70
     8
  9
$HANDSEED
  5
449
  9
$SURFTAB1
 70
     6
  9
$SURFTAB2
 70
     6
  9
$SURFTYPE
 70
     6
  9
$SURFU
 70
     6
  9
$SURFV
 70
     6
  9
$UCSBASE
  2

  9
$UCSNAME
  2

  9
$UCSORG
 10
0.0
 20
0.0
 30
0.0
  9
$UCSXDIR
 10
1.0
 20
0.0
 30
0.0
  9
$UCSYDIR
 10
0.0
 20
1.0
 30
0.0
  9
$UCSORTHOREF
  2

  9
$UCSORTHOVIEW
 70
     0
  9
$UCSORGTOP
 10
0.0
 20
0.0
 30
0.0
  9
$UCSORGBOTTOM
 10
0.0
 20
0.0
 30
0.0
  9
$UCSORGLEFT
 10
0.0
 20
0.0
 30
0.0
  9
$UCSORGRIGHT
 10
0.0
 20
0.0
 30
0.0
  9
$UCSORGFRONT
 10
0.0
 20
0.0
 30
0.0
  9
$UCSORGBACK
 10
0.0
 20
0.0
 30
0.0
  9
$PUCSBASE
  2

  9
$PUCSNAME
  2

  9
$PUCSORG
 10
0.0
 20
0.0
 30
0.0
  9
$PUCSXDIR
 10
1.0
 20
0.0
 30
0.0
  9
$PUCSYDIR
 10
0.0
 20
1.0
 30
0.0
  9
$PUCSORTHOREF
  2

  9
$PUCSORTHOVIEW
 70
     0
  9
$PUCSORGTOP
 10
0.0
 20
0.0
 30
0.0
  9
$PUCSORGBOTTOM
 10
0.0
 20
0.0
 30
0.0
  9
$PUCSORGLEFT
 10
0.0
 20
0.0
 30
0.0
  9
$PUCSORGRIGHT
 10
0.0
 20
0.0
 30
0.0
  9
$PUCSORGFRONT
 10
0.0
 20
0.0
 30
0.0
  9
$PUCSORGBACK
 10
0.0
 20
0.0
 30
0.0
  9
$USERI1
 70
     0
  9
$USERI2
 70
     0
  9
$USERI3
 70
     0
  9
$USERI4
 70
     0
  9
$USERI5
 70
     0
  9
$USERR1
 40
0.0
  9
$USERR2
 40
0.0
  9
$USERR3
 40
0.0
  9
$USERR4
 40
0.0
  9
$USERR5
 40
0.0
  9
$WORLDVIEW
 70
     1
  9
$SHADEDGE
 70
     3
  9
$SHADEDIF
 70
    70
  9
$TILEMODE
 70
     1
  9
$MAXACTVP
 70
    64
  9
$PINSBASE
 10
0.0
 20
0.0
 30
0.0
  9
$PLIMCHECK
 70
     0
  9
$PEXTMIN
 10
1.000000000000000E+20
 20
1.000000000000000E+20
 30
1.000000000000000E+20
  9
$PEXTMAX
 10
-1.000000000000000E+20
 20
-1.000000000000000E+20
 30
-1.000000000000000E+20
  9
$PLIMMIN
 10
0.0
 20
0.0
  9
$PLIMMAX
 10
420.0
 20
297.0
  9
$UNITMODE
 70
     0
  9
$VISRETAIN
 70
     1
  9
$PLINEGEN
 70
     0
  9
$PSLTSCALE
 70
     1
  9
$TREEDEPTH
 70
  3020
  9
$CMLSTYLE
  2
Standard
  9
$CMLJUST
 70
     0
  9
$CMLSCALE
 40
20.0
  9
$PROXYGRAPHICS
 70
     1
  9
$MEASUREMENT
 70
     1
  9
$CELWEIGHT
370
    -1
  9
$ENDCAPS
280
     0
  9
$JOINSTYLE
280
     0
  9
$LWDISPLAY
290
     1
  9
$INSUNITS
 70
     4
  9
$HYPERLINKBASE
  1

  9
$STYLESHEET
  1

  9
$XEDIT
290
     1
  9
$CEPSNTYPE
380
     0
  9
$PSTYLEMODE
290
     1
  9
$FINGERPRINTGUID
  2
{9E76112C-5C78-40C6-A038-0F0CB9F9D965}
  9
$VERSIONGUID
  2
{028BC1E3-BB60-404B-9454-2B6AE7105531}
  9
$EXTNAMES
290
     1
  9
$PSVPSCALE
 40
0.0
  9
$OLESTARTUP
290
     0
  0
ENDSEC
  0
SECTION
  2
CLASSES
  0
CLASS
  1
ACDBDICTIONARYWDFLT
  2
AcDbDictionaryWithDefault
  3
AutoCAD 2000
 90
        0
280
     0
281
     0
  0
CLASS
  1
VISUALSTYLE
  2
AcDbVisualStyle
  3
ObjectDBX Classes
 90
     4095
280
     0
281
     0
  0
CLASS
  1
SCALE
  2
AcDbScale
  3
ObjectDBX Classes
 90
     1153
280
     0
281
     0
  0
CLASS
  1
DICTIONARYVAR
  2
AcDbDictionaryVar
  3
AutoCAD 2000
 90
        0
280
     0
281
     0
  0
CLASS
  1
ACDBPLACEHOLDER
  2
AcDbPlaceHolder
  3
AutoCAD 2000
 90
        0
280
     0
281
     0
  0
CLASS
  1
LAYOUT
  2
AcDbLayout
  3
AutoCAD 2000
 90
        0
280
     0
281
     0
  0
ENDSEC
  0
SECTION
  2
TABLES
  0
TABLE
  2
VPORT
  5
8
330
0
100
AcDbSymbolTable
 70
     6
  0
VPORT
  5
448
330
8
100
AcDbSymbolTableRecord
100
AcDbViewportTableRecord
  2
*Active
 70
     0
 10
0.0
 20
0.0
 11
1.0
 21
1.0
 12
297.0906385901507
 22
210.2243051773685
 13
0.0
 23
0.0
 14
10.0
 24
10.0
 15
10.0
 25
10.0
 16
0.0
 26
0.0
 36
1.0
 17
0.0
 27
0.0
 37
0.0
 40
423.7263011512552
 41
2.00735294117647
 42
50.0
 43
0.0
 44
0.0
 50
0.0
 51
0.0
 71
     0
 72
  2000
 73
     1
 74
     3
 75
     0
 76
     0
 77
     0
 78
     0
281
     0
 65
     1
110
0.0
120
0.0
130
0.0
111
1.0
121
0.0
131
0.0
112
0.0
122
1.0
132
0.0
 79
     0
146
0.0
  0
ENDTAB
  0
TABLE
  2
LTYPE
  5
5
330
0
100
AcDbSymbolTable
 70
     6
  0
LTYPE
  5
14
330
5
100
AcDbSymbolTableRecord
100
AcDbLinetypeTableRecord
  2
ByBlock
 70
     0
  3

 72
    65
 73
     0
 40
0.0
  0
LTYPE
  5
15
330
5
100
AcDbSymbolTableRecord
100
AcDbLinetypeTableRecord
  2
ByLayer
 70
     0
  3

 72
    65
 73
     0
 40
0.0
  0
LTYPE
  5
16
330
5
100
AcDbSymbolTableRecord
100
AcDbLinetypeTableRecord
  2
Continuous
 70
     0
  3
Solid line
 72
    65
 73
     0
 40
0.0
  0
LTYPE
  5
3B
330
5
100
AcDbSymbolTableRecord
100
AcDbLinetypeTableRecord
  2
HIDDEN
 70
     0
  3
Hidden __ __ __ __ __ __ __ __ __ __ __ __ __ __
 72
    65
 73
     2
 40
1.905
 49
1.27
 74
     0
 49
-0.635
 74
     0
  0
LTYPE
  5
3C
330
5
100
AcDbSymbolTableRecord
100
AcDbLinetypeTableRecord
  2
PHANTOM
 70
     0
  3
Phantom ______  __  __  ______  __  __  ______
 72
    65
 73
     6
 40
12.7
 49
6.349999999999999
 74
     0
 49
-1.27
 74
     0
 49
1.27
 74
     0
 49
-1.27
 74
     0
 49
1.27
 74
     0
 49
-1.27
 74
     0
  0
LTYPE
  5
3D
330
5
100
AcDbSymbolTableRecord
100
AcDbLinetypeTableRecord
  2
CENTER
 70
     0
  3
Center ____ _ ____ _ ____ _ ____ _ ____ _ ____
 72
    65
 73
     4
 40
10.16
 49
6.349999999999999
 74
     0
 49
-1.27
 74
     0
 49
1.27
 74
     0
 49
-1.27
 74
     0
  0
LTYPE
  5
3E
330
5
100
AcDbSymbolTableRecord
100
AcDbLinetypeTableRecord
  2
CENTERX2
 70
     0
  3
Center (2x) ________  __  ________  __  _____
 72
    65
 73
     4
 40
20.32
 49
12.7
 74
     0
 49
-2.54
 74
     0
 49
2.54
 74
     0
 49
-2.54
 74
     0
  0
LTYPE
  5
3F
330
5
100
AcDbSymbolTableRecord
100
AcDbLinetypeTableRecord
  2
DOT2
 70
     0
  3
Dot (.5x) ........................................
 72
    65
 73
     2
 40
0.635
 49
0.0
 74
     0
 49
-0.635
 74
     0
  0
ENDTAB
  0
TABLE
  2
LAYER
  5
2
330
0
100
AcDbSymbolTable
 70
     3
  0
LAYER
  5
10
330
2
100
AcDbSymbolTableRecord
100
AcDbLayerTableRecord
  2
0
 70
     0
 62
     7
  6
Continuous
370
    -3
390
F
  0
LAYER
  5
40
330
2
100
AcDbSymbolTableRecord
100
AcDbLayerTableRecord
  2
FORMAT
 70
     0
 62
     7
  6
Continuous
370
    -3
390
F
  0
LAYER
  5
2FC
330
2
100
AcDbSymbolTableRecord
100
AcDbLayerTableRecord
  2
Defpoints
 70
     0
 62
     7
  6
Continuous
290
     0
370
    -3
390
F
  0
ENDTAB
  0
TABLE
  2
STYLE
  5
3
330
0
100
AcDbSymbolTable
 70
     5
  0
STYLE
  5
11
330
3
100
AcDbSymbolTableRecord
100
AcDbTextStyleTableRecord
  2
Standard
 70
     0
 40
0.0
 41
1.0
 50
0.0
 71
     0
 42
2.5
  3
txt
  4

  0
STYLE
  5
62
330
3
100
AcDbSymbolTableRecord
100
AcDbTextStyleTableRecord
  2
SLDTEXTSTYLE0
 70
     0
 40
0.0
 41
0.75
 50
0.0
 71
     0
 42
0.2
  3
TXT
  4

  0
STYLE
  5
88
330
3
100
AcDbSymbolTableRecord
100
AcDbTextStyleTableRecord
  2
SLDTEXTSTYLE1
 70
     0
 40
0.0
 41
0.6875
 50
0.0
 71
     0
 42
0.2
  3
TXT
  4

  0
STYLE
  5
28D
330
3
100
AcDbSymbolTableRecord
100
AcDbTextStyleTableRecord
  2
SLDTEXTSTYLE2
 70
     0
 40
0.0
 41
0.6805555556
 50
0.0
 71
     0
 42
0.2
  3
TXT
  4

  0
STYLE
  5
28F
330
3
100
AcDbSymbolTableRecord
100
AcDbTextStyleTableRecord
  2
SLDTEXTSTYLE3
 70
     0
 40
0.0
 41
0.671875
 50
0.0
 71
     0
 42
0.2
  3
TXT
  4

  0
ENDTAB
  0
TABLE
  2
VIEW
  5
6
330
0
100
AcDbSymbolTable
 70
     0
  0
ENDTAB
  0
TABLE
  2
UCS
  5
7
330
0
100
AcDbSymbolTable
 70
     0
  0
ENDTAB
  0
TABLE
  2
APPID
  5
9
330
0
100
AcDbSymbolTable
 70
     1
  0
APPID
  5
12
330
9
100
AcDbSymbolTableRecord
100
AcDbRegAppTableRecord
  2
ACAD
 70
     0
  0
ENDTAB
  0
TABLE
  2
DIMSTYLE
  5
A
330
0
100
AcDbSymbolTable
 70
     3
100
AcDbDimStyleTable
 71
     1
340
27
  0
DIMSTYLE
105
27
102
{ACAD_REACTORS
330
2FB
330
283
330
279
330
EF
330
325
330
390
330
376
330
39E
330
383
330
35B
330
369
330
34E
330
3AD
330
3BC
330
3C9
330
3D6
330
3E3
330
414
102
}
330
A
100
AcDbSymbolTableRecord
100
AcDbDimStyleTableRecord
  2
ISO-25
 70
     0
 41
2.5
 42
0.625
 43
3.75
 44
1.25
 73
     0
 74
     0
 77
     1
 78
     8
140
2.5
141
2.5
143
0.0393700787
147
0.625
171
     3
172
     1
271
     2
272
     2
274
     3
278
    44
283
     0
284
     8
340
11
  0
DIMSTYLE
105
F0
330
A
100
AcDbSymbolTableRecord
100
AcDbDimStyleTableRecord
  2
SLDDIMSTYLE0
 70
     0
 41
6.0
 44
0.0
 45
0.000000001
 73
     0
 77
     1
 78
     4
140
3.5
147
0.875
173
     1
271
     2
272
     2
284
    12
340
62
341
F1
343
F1
344
F1
  0
DIMSTYLE
105
196
102
{ACAD_REACTORS
330
195
102
}
330
A
100
AcDbSymbolTableRecord
100
AcDbDimStyleTableRecord
  2
SLDDIMSTYLE1
 70
     0
 41
6.0
 44
0.0
 45
0.000000001
 73
     0
 77
     1
 78
    12
140
3.5
147
0.875
173
     1
271
     2
272
     2
284
    12
340
62
341
F1
343
F1
344
F1
  0
ENDTAB
  0
TABLE
  2
BLOCK_RECORD
  5
1
330
0
100
AcDbSymbolTable
 70
    35
  0
BLOCK_RECORD
  5
1F
330
1
100
AcDbSymbolTableRecord
100
AcDbBlockTableRecord
  2
*Model_Space
340
22
  0
BLOCK_RECORD
  5
1B
330
1
100
AcDbSymbolTableRecord
100
AcDbBlockTableRecord
  2
*Paper_Space
340
1E
  0
BLOCK_RECORD
  5
23
330
1
100
AcDbSymbolTableRecord
100
AcDbBlockTableRecord
  2
*Paper_Space0
340
26
  0
BLOCK_RECORD
  5
93
330
1
100
AcDbSymbolTableRecord
100
AcDbBlockTableRecord
  2
SW_NOTE_0
340
0
102
{BLKREFS
331
99
102
}
  0
BLOCK_RECORD
  5
9B
330
1
100
AcDbSymbolTableRecord
100
AcDbBlockTableRecord
  2
SW_NOTE_1
340
0
102
{BLKREFS
331
A4
102
}
  0
BLOCK_RECORD
  5
F1
330
1
100
AcDbSymbolTableRecord
100
AcDbBlockTableRecord
  2
_CLOSED
340
0
102
{BLKREFS
331
FB
331
FC
331
19A
331
19B
331
27D
331
27E
331
287
331
288
331
433
331
434
331
43C
331
43D
102
}
  0
BLOCK_RECORD
  5
F8
330
1
100
AcDbSymbolTableRecord
100
AcDbBlockTableRecord
  2
*D4
340
0
  0
BLOCK_RECORD
  5
101
330
1
100
AcDbSymbolTableRecord
100
AcDbBlockTableRecord
  2
SW_CENTERMARKSYMBOL_0
340
0
102
{BLKREFS
331
113
102
}
  0
BLOCK_RECORD
  5
114
330
1
100
AcDbSymbolTableRecord
100
AcDbBlockTableRecord
  2
SW_CENTERMARKSYMBOL_1
340
0
102
{BLKREFS
331
126
102
}
  0
BLOCK_RECORD
  5
127
330
1
100
AcDbSymbolTableRecord
100
AcDbBlockTableRecord
  2
SW_CENTERMARKSYMBOL_2
340
0
102
{BLKREFS
331
132
102
}
  0
BLOCK_RECORD
  5
133
330
1
100
AcDbSymbolTableRecord
100
AcDbBlockTableRecord
  2
SW_CENTERMARKSYMBOL_3
340
0
102
{BLKREFS
331
13E
102
}
  0
BLOCK_RECORD
  5
13F
330
1
100
AcDbSymbolTableRecord
100
AcDbBlockTableRecord
  2
SW_CENTERMARKSYMBOL_4
340
0
102
{BLKREFS
331
14A
102
}
  0
BLOCK_RECORD
  5
14B
330
1
100
AcDbSymbolTableRecord
100
AcDbBlockTableRecord
  2
SW_CENTERMARKSYMBOL_5
340
0
102
{BLKREFS
331
156
102
}
  0
BLOCK_RECORD
  5
197
330
1
100
AcDbSymbolTableRecord
100
AcDbBlockTableRecord
  2
*D11
340
0
  0
BLOCK_RECORD
  5
27A
330
1
100
AcDbSymbolTableRecord
100
AcDbBlockTableRecord
  2
*D12
340
0
  0
BLOCK_RECORD
  5
284
330
1
100
AcDbSymbolTableRecord
100
AcDbBlockTableRecord
  2
*D13
340
0
  0
BLOCK_RECORD
  5
291
330
1
100
AcDbSymbolTableRecord
100
AcDbBlockTableRecord
  2
SW_CENTERMARKSYMBOL_6
340
0
102
{BLKREFS
331
2A3
102
}
  0
BLOCK_RECORD
  5
2A4
330
1
100
AcDbSymbolTableRecord
100
AcDbBlockTableRecord
  2
SW_CENTERMARKSYMBOL_7
340
0
102
{BLKREFS
331
2B6
102
}
  0
BLOCK_RECORD
  5
2B7
330
1
100
AcDbSymbolTableRecord
100
AcDbBlockTableRecord
  2
SW_CENTERMARKSYMBOL_8
340
0
102
{BLKREFS
331
2C2
102
}
  0
BLOCK_RECORD
  5
2C3
330
1
100
AcDbSymbolTableRecord
100
AcDbBlockTableRecord
  2
SW_CENTERMARKSYMBOL_9
340
0
102
{BLKREFS
331
2CE
102
}
  0
BLOCK_RECORD
  5
2CF
330
1
100
AcDbSymbolTableRecord
100
AcDbBlockTableRecord
  2
SW_CENTERMARKSYMBOL_10
340
0
102
{BLKREFS
331
2DA
102
}
  0
BLOCK_RECORD
  5
2DB
330
1
100
AcDbSymbolTableRecord
100
AcDbBlockTableRecord
  2
SW_CENTERMARKSYMBOL_11
340
0
102
{BLKREFS
331
2E6
102
}
  0
BLOCK_RECORD
  5
2FD
330
1
100
AcDbSymbolTableRecord
100
AcDbBlockTableRecord
  2
*D20
340
0
  0
BLOCK_RECORD
  5
326
330
1
100
AcDbSymbolTableRecord
100
AcDbBlockTableRecord
  2
*D21
340
0
  0
BLOCK_RECORD
  5
34F
330
1
100
AcDbSymbolTableRecord
100
AcDbBlockTableRecord
  2
*D22
340
0
  0
BLOCK_RECORD
  5
35C
330
1
100
AcDbSymbolTableRecord
100
AcDbBlockTableRecord
  2
*D23
340
0
  0
BLOCK_RECORD
  5
36A
330
1
100
AcDbSymbolTableRecord
100
AcDbBlockTableRecord
  2
*D24
340
0
  0
BLOCK_RECORD
  5
377
330
1
100
AcDbSymbolTableRecord
100
AcDbBlockTableRecord
  2
*D25
340
0
  0
BLOCK_RECORD
  5
384
330
1
100
AcDbSymbolTableRecord
100
AcDbBlockTableRecord
  2
*D26
340
0
  0
BLOCK_RECORD
  5
391
330
1
100
AcDbSymbolTableRecord
100
AcDbBlockTableRecord
  2
*D27
340
0
  0
BLOCK_RECORD
  5
39F
330
1
100
AcDbSymbolTableRecord
100
AcDbBlockTableRecord
  2
*D28
340
0
  0
BLOCK_RECORD
  5
3AE
330
1
100
AcDbSymbolTableRecord
100
AcDbBlockTableRecord
  2
*D29
340
0
  0
BLOCK_RECORD
  5
3BD
330
1
100
AcDbSymbolTableRecord
100
AcDbBlockTableRecord
  2
*D30
340
0
  0
BLOCK_RECORD
  5
3CA
330
1
100
AcDbSymbolTableRecord
100
AcDbBlockTableRecord
  2
*D31
340
0
  0
BLOCK_RECORD
  5
3D7
330
1
100
AcDbSymbolTableRecord
100
AcDbBlockTableRecord
  2
*D32
340
0
  0
BLOCK_RECORD
  5
3E4
330
1
100
AcDbSymbolTableRecord
100
AcDbBlockTableRecord
  2
*D33
340
0
  0
BLOCK_RECORD
  5
415
330
1
100
AcDbSymbolTableRecord
100
AcDbBlockTableRecord
  2
*D34
340
0
  0
ENDTAB
  0
ENDSEC
  0
SECTION
  2
BLOCKS
  0
BLOCK
  5
20
330
1F
100
AcDbEntity
  8
0
100
AcDbBlockBegin
  2
*Model_Space
 70
     0
 10
0.0
 20
0.0
 30
0.0
  3
*Model_Space
  1

  0
ENDBLK
  5
21
330
1F
100
AcDbEntity
  8
0
100
AcDbBlockEnd
  0
BLOCK
  5
1C
330
1B
100
AcDbEntity
 67
     1
  8
0
100
AcDbBlockBegin
  2
*Paper_Space
 70
     0
 10
0.0
 20
0.0
 30
0.0
  3
*Paper_Space
  1

  0
ENDBLK
  5
1D
330
1B
100
AcDbEntity
 67
     1
  8
0
100
AcDbBlockEnd
  0
BLOCK
  5
24
330
23
100
AcDbEntity
  8
0
100
AcDbBlockBegin
  2
*Paper_Space0
 70
     0
 10
0.0
 20
0.0
 30
0.0
  3
*Paper_Space0
  1

  0
ENDBLK
  5
25
330
23
100
AcDbEntity
  8
0
100
AcDbBlockEnd
  0
BLOCK
  5
94
330
93
100
AcDbEntity
  8
0
100
AcDbBlockBegin
  2
SW_NOTE_0
 70
     0
 10
0.0
 20
0.0
 30
0.0
  3
SW_NOTE_0
  1

  0
MTEXT
  5
96
330
93
100
AcDbEntity
  8
0
  6
Continuous
 62
     0
370
     0
100
AcDbMText
 10
0.0
 20
1.933601609699999
 30
0.0
 40
1.5
 41
0.0
 71
     1
 72
     1
  1
DEBUR AND 
  7
SLDTEXTSTYLE0
 73
     1
 44
1.0
  0
MTEXT
  5
97
330
93
100
AcDbEntity
  8
0
  6
Continuous
 62
     0
370
     0
100
AcDbMText
 10
0.0
 20
-0.5663983345000001
 30
0.0
 40
1.5
 41
0.0
 71
     1
 72
     1
  1
BREAK SHARP 
  7
SLDTEXTSTYLE0
 73
     1
 44
1.0
  0
MTEXT
  5
98
330
93
100
AcDbEntity
  8
0
  6
Continuous
 62
     0
370
     0
100
AcDbMText
 10
0.0
 20
-3.0663982786
 30
0.0
 40
1.5
 41
0.0
 71
     1
 72
     1
  1
EDGES
  7
SLDTEXTSTYLE0
 73
     1
 44
1.0
  0
ENDBLK
  5
95
330
93
100
AcDbEntity
  8
0
100
AcDbBlockEnd
  0
BLOCK
  5
9C
330
9B
100
AcDbEntity
  8
0
100
AcDbBlockBegin
  2
SW_NOTE_1
 70
     0
 10
0.0
 20
0.0
 30
0.0
  3
SW_NOTE_1
  1

  0
MTEXT
  5
9E
330
9B
100
AcDbEntity
  8
0
  6
Continuous
 62
     0
370
     0
100
AcDbMText
 10
0.0
 20
1.933601609699999
 30
0.0
 40
1.5
 41
0.0
 71
     1
 72
     1
  1
UNLESS OTHERWISE SPECIFIED:
  7
SLDTEXTSTYLE0
 73
     1
 44
1.0
  0
MTEXT
  5
9F
330
9B
100
AcDbEntity
  8
0
  6
Continuous
 62
     0
370
     0
100
AcDbMText
 10
0.0
 20
-0.5663983345000001
 30
0.0
 40
1.5
 41
0.0
 71
     1
 72
     1
  1
DIMENSIONS ARE IN MILLIMETERS
  7
SLDTEXTSTYLE0
 73
     1
 44
1.0
  0
MTEXT
  5
A0
330
9B
100
AcDbEntity
  8
0
  6
Continuous
 62
     0
370
     0
100
AcDbMText
 10
0.0
 20
-3.0663982786
 30
0.0
 40
1.5
 41
0.0
 71
     1
 72
     1
  1
SURFACE FINISH:
  7
SLDTEXTSTYLE0
 73
     1
 44
1.0
  0
MTEXT
  5
A1
330
9B
100
AcDbEntity
  8
0
  6
Continuous
 62
     0
370
     0
100
AcDbMText
 10
0.0
 20
-5.5663982227
 30
0.0
 40
1.5
 41
0.0
 71
     1
 72
     1
  1
TOLERANCES:
  7
SLDTEXTSTYLE0
 73
     1
 44
1.0
  0
MTEXT
  5
A2
330
9B
100
AcDbEntity
  8
0
  6
Continuous
 62
     0
370
     0
100
AcDbMText
 10
0.0
 20
-8.066398166799999
 30
0.0
 40
1.5
 41
0.0
 71
     1
 72
     1
  1
   LINEAR:
  7
SLDTEXTSTYLE0
 73
     1
 44
1.0
  0
MTEXT
  5
A3
330
9B
100
AcDbEntity
  8
0
  6
Continuous
 62
     0
370
     0
100
AcDbMText
 10
0.0
 20
-10.56639811089999
 30
0.0
 40
1.5
 41
0.0
 71
     1
 72
     1
  1
   ANGULAR:
  7
SLDTEXTSTYLE0
 73
     1
 44
1.0
  0
ENDBLK
  5
9D
330
9B
100
AcDbEntity
  8
0
100
AcDbBlockEnd
  0
BLOCK
  5
F2
330
F1
100
AcDbEntity
  8
0
100
AcDbBlockBegin
  2
_CLOSED
 70
     0
 10
0.0
 20
0.0
 30
0.0
  3
_CLOSED
  1

  0
LINE
  5
F4
330
F1
100
AcDbEntity
  8
0
  6
ByBlock
 62
     0
370
    -2
100
AcDbLine
 10
-1.0
 20
0.166667
 30
0.0
 11
0.0
 21
0.0
 31
0.0
  0
LINE
  5
F5
330
F1
100
AcDbEntity
  8
0
  6
ByBlock
 62
     0
370
    -2
100
AcDbLine
 10
0.0
 20
0.0
 30
0.0
 11
-1.0
 21
-0.166667
 31
0.0
  0
LINE
  5
F6
330
F1
100
AcDbEntity
  8
0
  6
ByBlock
 62
     0
370
    -2
100
AcDbLine
 10
-1.0
 20
0.166667
 30
0.0
 11
-1.0
 21
-0.166667
 31
0.0
  0
LINE
  5
F7
330
F1
100
AcDbEntity
  8
0
  6
ByBlock
 62
     0
370
    -2
100
AcDbLine
 10
0.0
 20
0.0
 30
0.0
 11
-1.0
 21
0.0
 31
0.0
  0
ENDBLK
  5
F3
330
F1
100
AcDbEntity
  8
0
100
AcDbBlockEnd
  0
BLOCK
  5
F9
330
F8
100
AcDbEntity
  8
0
100
AcDbBlockBegin
  2
*D4
 70
     1
 10
0.0
 20
0.0
 30
0.0
  3
*D4
  1

  0
LINE
  5
344
330
F8
100
AcDbEntity
  8
0
 62
     0
370
    -2
100
AcDbLine
 10
242.2526262629999
 20
375.5002690028999
 30
0.0
 11
242.2526262629999
 21
387.5002690028999
 31
0.0
  0
LINE
  5
345
330
F8
100
AcDbEntity
  8
0
 62
     0
370
    -2
100
AcDbLine
 10
311.5526262629999
 20
357.5002690028999
 30
0.0
 11
311.5526262629999
 21
387.5002690028999
 31
0.0
  0
LINE
  5
346
330
F8
100
AcDbEntity
  8
0
 62
     0
370
    -2
100
AcDbLine
 10
245.252626263
 20
386.5002690028999
 30
0.0
 11
308.5526262629999
 21
386.5002690028999
 31
0.0
  0
SOLID
  5
347
330
F8
100
AcDbEntity
  8
0
 62
     0
100
AcDbTrace
 10
245.252626263
 20
387.0002690029
 30
0.0
 11
245.252626263
 21
386.0002690028999
 31
0.0
 12
242.2526262629999
 22
386.5002690028999
 32
0.0
 13
242.2526262629999
 23
386.5002690028999
 33
0.0
  0
SOLID
  5
348
330
F8
100
AcDbEntity
  8
0
 62
     0
100
AcDbTrace
 10
308.5526262629999
 20
387.0002690029
 30
0.0
 11
308.5526262629999
 21
386.0002690028999
 31
0.0
 12
311.5526262629999
 22
386.5002690028999
 32
0.0
 13
311.5526262629999
 23
386.5002690028999
 33
0.0
  0
MTEXT
  5
349
330
F8
100
AcDbEntity
  8
0
 62
     0
100
AcDbMText
 10
274.5022414261
 20
391.0836023362333
 30
0.0
 40
3.5
 41
0.0
 71
     2
 72
     1
  1
69,30
 73
     1
 44
1.0
  0
POINT
  5
34A
330
F8
100
AcDbEntity
  8
Defpoints
 62
     0
100
AcDbPoint
 10
242.2526262629999
 20
374.5002690029
 30
0.0
  0
POINT
  5
34B
330
F8
100
AcDbEntity
  8
Defpoints
 62
     0
100
AcDbPoint
 10
311.5526262629999
 20
356.5002690028999
 30
0.0
  0
POINT
  5
34C
330
F8
100
AcDbEntity
  8
Defpoints
 62
     0
100
AcDbPoint
 10
311.5526262629999
 20
386.5002690028999
 30
0.0
  0
ENDBLK
  5
FA
330
F8
100
AcDbEntity
  8
0
100
AcDbBlockEnd
  0
BLOCK
  5
102
330
101
100
AcDbEntity
  8
0
100
AcDbBlockBegin
  2
SW_CENTERMARKSYMBOL_0
 70
     0
 10
0.0
 20
0.0
 30
0.0
  3
SW_CENTERMARKSYMBOL_0
  1

  0
LINE
  5
104
330
101
100
AcDbEntity
  8
0
  6
Continuous
 62
     0
370
     0
100
AcDbLine
 10
0.0
 20
0.0
 30
0.0
 11
-2.5
 21
0.0
 31
0.0
  0
LINE
  5
105
330
101
100
AcDbEntity
  8
0
  6
Continuous
 62
     0
370
     0
100
AcDbLine
 10
0.0
 20
0.0
 30
0.0
 11
0.0
 21
-2.5
 31
0.0
  0
LINE
  5
106
330
101
100
AcDbEntity
  8
0
  6
Continuous
 62
     0
370
     0
100
AcDbLine
 10
0.0
 20
0.0
 30
0.0
 11
2.5
 21
0.0
 31
0.0
  0
LINE
  5
107
330
101
100
AcDbEntity
  8
0
  6
Continuous
 62
     0
370
     0
100
AcDbLine
 10
0.0
 20
0.0
 30
0.0
 11
0.0
 21
2.5
 31
0.0
  0
LINE
  5
108
330
101
100
AcDbEntity
  8
0
  6
Continuous
 62
     0
370
     0
100
AcDbLine
 10
-2.5
 20
0.0
 30
0.0
 11
-4.25
 21
0.0
 31
0.0
  0
LINE
  5
109
330
101
100
AcDbEntity
  8
0
  6
Continuous
 62
     0
370
     0
100
AcDbLine
 10
0.0
 20
-2.5
 30
0.0
 11
0.0
 21
-4.25
 31
0.0
  0
LINE
  5
10A
330
101
100
AcDbEntity
  8
0
  6
Continuous
 62
     0
370
     0
100
AcDbLine
 10
2.5
 20
0.0
 30
0.0
 11
4.25
 21
0.0
 31
0.0
  0
LINE
  5
10B
330
101
100
AcDbEntity
  8
0
  6
Continuous
 62
     0
370
     0
100
AcDbLine
 10
0.0
 20
150.0
 30
0.0
 11
-2.5
 21
150.0
 31
0.0
  0
LINE
  5
10C
330
101
100
AcDbEntity
  8
0
  6
Continuous
 62
     0
370
     0
100
AcDbLine
 10
0.0
 20
150.0
 30
0.0
 11
0.0
 21
147.5
 31
0.0
  0
LINE
  5
10D
330
101
100
AcDbEntity
  8
0
  6
Continuous
 62
     0
370
     0
100
AcDbLine
 10
0.0
 20
150.0
 30
0.0
 11
2.5
 21
150.0
 31
0.0
  0
LINE
  5
10E
330
101
100
AcDbEntity
  8
0
  6
Continuous
 62
     0
370
     0
100
AcDbLine
 10
0.0
 20
150.0
 30
0.0
 11
0.0
 21
152.5
 31
0.0
  0
LINE
  5
10F
330
101
100
AcDbEntity
  8
0
  6
Continuous
 62
     0
370
     0
100
AcDbLine
 10
-2.5
 20
150.0
 30
0.0
 11
-4.25
 21
150.0
 31
0.0
  0
LINE
  5
110
330
101
100
AcDbEntity
  8
0
  6
Continuous
 62
     0
370
     0
100
AcDbLine
 10
2.5
 20
150.0
 30
0.0
 11
4.25
 21
150.0
 31
0.0
  0
LINE
  5
111
330
101
100
AcDbEntity
  8
0
  6
Continuous
 62
     0
370
     0
100
AcDbLine
 10
0.0
 20
152.5
 30
0.0
 11
0.0
 21
154.2499999999999
 31
0.0
  0
LINE
  5
112
330
101
100
AcDbEntity
  8
0
  6
Continuous
 62
     0
370
     0
100
AcDbLine
 10
0.0
 20
5.0
 30
0.0
 11
0.0
 21
145.0
 31
0.0
  0
ENDBLK
  5
103
330
101
100
AcDbEntity
  8
0
100
AcDbBlockEnd
  0
BLOCK
  5
115
330
114
100
AcDbEntity
  8
0
100
AcDbBlockBegin
  2
SW_CENTERMARKSYMBOL_1
 70
     0
 10
0.0
 20
0.0
 30
0.0
  3
SW_CENTERMARKSYMBOL_1
  1

  0
LINE
  5
117
330
114
100
AcDbEntity
  8
0
  6
Continuous
 62
     0
370
     0
100
AcDbLine
 10
0.0
 20
0.0
 30
0.0
 11
-2.5
 21
0.0
 31
0.0
  0
LINE
  5
118
330
114
100
AcDbEntity
  8
0
  6
Continuous
 62
     0
370
     0
100
AcDbLine
 10
0.0
 20
0.0
 30
0.0
 11
0.0
 21
-2.5
 31
0.0
  0
LINE
  5
119
330
114
100
AcDbEntity
  8
0
  6
Continuous
 62
     0
370
     0
100
AcDbLine
 10
0.0
 20
0.0
 30
0.0
 11
2.5
 21
0.0
 31
0.0
  0
LINE
  5
11A
330
114
100
AcDbEntity
  8
0
  6
Continuous
 62
     0
370
     0
100
AcDbLine
 10
0.0
 20
0.0
 30
0.0
 11
0.0
 21
2.5
 31
0.0
  0
LINE
  5
11B
330
114
100
AcDbEntity
  8
0
  6
Continuous
 62
     0
370
     0
100
AcDbLine
 10
-2.5
 20
0.0
 30
0.0
 11
-4.25
 21
0.0
 31
0.0
  0
LINE
  5
11C
330
114
100
AcDbEntity
  8
0
  6
Continuous
 62
     0
370
     0
100
AcDbLine
 10
0.0
 20
-2.5
 30
0.0
 11
0.0
 21
-4.25
 31
0.0
  0
LINE
  5
11D
330
114
100
AcDbEntity
  8
0
  6
Continuous
 62
     0
370
     0
100
AcDbLine
 10
2.5
 20
0.0
 30
0.0
 11
4.25
 21
0.0
 31
0.0
  0
LINE
  5
11E
330
114
100
AcDbEntity
  8
0
  6
Continuous
 62
     0
370
     0
100
AcDbLine
 10
0.0
 20
150.0
 30
0.0
 11
-2.5
 21
150.0
 31
0.0
  0
LINE
  5
11F
330
114
100
AcDbEntity
  8
0
  6
Continuous
 62
     0
370
     0
100
AcDbLine
 10
0.0
 20
150.0
 30
0.0
 11
0.0
 21
147.5
 31
0.0
  0
LINE
  5
120
330
114
100
AcDbEntity
  8
0
  6
Continuous
 62
     0
370
     0
100
AcDbLine
 10
0.0
 20
150.0
 30
0.0
 11
2.5
 21
150.0
 31
0.0
  0
LINE
  5
121
330
114
100
AcDbEntity
  8
0
  6
Continuous
 62
     0
370
     0
100
AcDbLine
 10
0.0
 20
150.0
 30
0.0
 11
0.0
 21
152.5
 31
0.0
  0
LINE
  5
122
330
114
100
AcDbEntity
  8
0
  6
Continuous
 62
     0
370
     0
100
AcDbLine
 10
-2.5
 20
150.0
 30
0.0
 11
-4.25
 21
150.0
 31
0.0
  0
LINE
  5
123
330
114
100
AcDbEntity
  8
0
  6
Continuous
 62
     0
370
     0
100
AcDbLine
 10
2.5
 20
150.0
 30
0.0
 11
4.25
 21
150.0
 31
0.0
  0
LINE
  5
124
330
114
100
AcDbEntity
  8
0
  6
Continuous
 62
     0
370
     0
100
AcDbLine
 10
0.0
 20
152.5
 30
0.0
 11
0.0
 21
154.2499999999999
 31
0.0
  0
LINE
  5
125
330
114
100
AcDbEntity
  8
0
  6
Continuous
 62
     0
370
     0
100
AcDbLine
 10
0.0
 20
5.0
 30
0.0
 11
0.0
 21
145.0
 31
0.0
  0
ENDBLK
  5
116
330
114
100
AcDbEntity
  8
0
100
AcDbBlockEnd
  0
BLOCK
  5
128
330
127
100
AcDbEntity
  8
0
100
AcDbBlockBegin
  2
SW_CENTERMARKSYMBOL_2
 70
     0
 10
0.0
 20
0.0
 30
0.0
  3
SW_CENTERMARKSYMBOL_2
  1

  0
LINE
  5
12A
330
127
100
AcDbEntity
  8
0
  6
Continuous
 62
     0
370
     0
100
AcDbLine
 10
0.0
 20
0.0
 30
0.0
 11
0.0
 21
2.5
 31
0.0
  0
LINE
  5
12B
330
127
100
AcDbEntity
  8
0
  6
Continuous
 62
     0
370
     0
100
AcDbLine
 10
0.0
 20
0.0
 30
0.0
 11
-2.5
 21
0.0
 31
0.0
  0
LINE
  5
12C
330
127
100
AcDbEntity
  8
0
  6
Continuous
 62
     0
370
     0
100
AcDbLine
 10
0.0
 20
0.0
 30
0.0
 11
0.0
 21
-2.5
 31
0.0
  0
LINE
  5
12D
330
127
100
AcDbEntity
  8
0
  6
Continuous
 62
     0
370
     0
100
AcDbLine
 10
0.0
 20
0.0
 30
0.0
 11
2.5
 21
0.0
 31
0.0
  0
LINE
  5
12E
330
127
100
AcDbEntity
  8
0
  6
Continuous
 62
     0
370
     0
100
AcDbLine
 10
0.0
 20
2.5
 30
0.0
 11
0.0
 21
4.25
 31
0.0
  0
LINE
  5
12F
330
127
100
AcDbEntity
  8
0
  6
Continuous
 62
     0
370
     0
100
AcDbLine
 10
-2.5
 20
0.0
 30
0.0
 11
-4.25
 21
0.0
 31
0.0
  0
LINE
  5
130
330
127
100
AcDbEntity
  8
0
  6
Continuous
 62
     0
370
     0
100
AcDbLine
 10
0.0
 20
-2.5
 30
0.0
 11
0.0
 21
-4.25
 31
0.0
  0
LINE
  5
131
330
127
100
AcDbEntity
  8
0
  6
Continuous
 62
     0
370
     0
100
AcDbLine
 10
2.5
 20
0.0
 30
0.0
 11
4.25
 21
0.0
 31
0.0
  0
ENDBLK
  5
129
330
127
100
AcDbEntity
  8
0
100
AcDbBlockEnd
  0
BLOCK
  5
134
330
133
100
AcDbEntity
  8
0
100
AcDbBlockBegin
  2
SW_CENTERMARKSYMBOL_3
 70
     0
 10
0.0
 20
0.0
 30
0.0
  3
SW_CENTERMARKSYMBOL_3
  1

  0
LINE
  5
136
330
133
100
AcDbEntity
  8
0
  6
Continuous
 62
     0
370
     0
100
AcDbLine
 10
0.0
 20
0.0
 30
0.0
 11
0.0
 21
2.5
 31
0.0
  0
LINE
  5
137
330
133
100
AcDbEntity
  8
0
  6
Continuous
 62
     0
370
     0
100
AcDbLine
 10
0.0
 20
0.0
 30
0.0
 11
-2.5
 21
0.0
 31
0.0
  0
LINE
  5
138
330
133
100
AcDbEntity
  8
0
  6
Continuous
 62
     0
370
     0
100
AcDbLine
 10
0.0
 20
0.0
 30
0.0
 11
0.0
 21
-2.5
 31
0.0
  0
LINE
  5
139
330
133
100
AcDbEntity
  8
0
  6
Continuous
 62
     0
370
     0
100
AcDbLine
 10
0.0
 20
0.0
 30
0.0
 11
2.5
 21
0.0
 31
0.0
  0
LINE
  5
13A
330
133
100
AcDbEntity
  8
0
  6
Continuous
 62
     0
370
     0
100
AcDbLine
 10
0.0
 20
2.5
 30
0.0
 11
0.0
 21
4.25
 31
0.0
  0
LINE
  5
13B
330
133
100
AcDbEntity
  8
0
  6
Continuous
 62
     0
370
     0
100
AcDbLine
 10
-2.5
 20
0.0
 30
0.0
 11
-4.25
 21
0.0
 31
0.0
  0
LINE
  5
13C
330
133
100
AcDbEntity
  8
0
  6
Continuous
 62
     0
370
     0
100
AcDbLine
 10
0.0
 20
-2.5
 30
0.0
 11
0.0
 21
-4.25
 31
0.0
  0
LINE
  5
13D
330
133
100
AcDbEntity
  8
0
  6
Continuous
 62
     0
370
     0
100
AcDbLine
 10
2.5
 20
0.0
 30
0.0
 11
4.25
 21
0.0
 31
0.0
  0
ENDBLK
  5
135
330
133
100
AcDbEntity
  8
0
100
AcDbBlockEnd
  0
BLOCK
  5
140
330
13F
100
AcDbEntity
  8
0
100
AcDbBlockBegin
  2
SW_CENTERMARKSYMBOL_4
 70
     0
 10
0.0
 20
0.0
 30
0.0
  3
SW_CENTERMARKSYMBOL_4
  1

  0
LINE
  5
142
330
13F
100
AcDbEntity
  8
0
  6
Continuous
 62
     0
370
     0
100
AcDbLine
 10
0.0
 20
0.0
 30
0.0
 11
0.0
 21
2.5
 31
0.0
  0
LINE
  5
143
330
13F
100
AcDbEntity
  8
0
  6
Continuous
 62
     0
370
     0
100
AcDbLine
 10
0.0
 20
0.0
 30
0.0
 11
-2.5
 21
0.0
 31
0.0
  0
LINE
  5
144
330
13F
100
AcDbEntity
  8
0
  6
Continuous
 62
     0
370
     0
100
AcDbLine
 10
0.0
 20
0.0
 30
0.0
 11
0.0
 21
-2.5
 31
0.0
  0
LINE
  5
145
330
13F
100
AcDbEntity
  8
0
  6
Continuous
 62
     0
370
     0
100
AcDbLine
 10
0.0
 20
0.0
 30
0.0
 11
2.5
 21
0.0
 31
0.0
  0
LINE
  5
146
330
13F
100
AcDbEntity
  8
0
  6
Continuous
 62
     0
370
     0
100
AcDbLine
 10
0.0
 20
5.0
 30
0.0
 11
0.0
 21
6.25
 31
0.0
  0
LINE
  5
147
330
13F
100
AcDbEntity
  8
0
  6
Continuous
 62
     0
370
     0
100
AcDbLine
 10
-5.0
 20
0.0
 30
0.0
 11
-6.25
 21
0.0
 31
0.0
  0
LINE
  5
148
330
13F
100
AcDbEntity
  8
0
  6
Continuous
 62
     0
370
     0
100
AcDbLine
 10
0.0
 20
-5.0
 30
0.0
 11
0.0
 21
-6.25
 31
0.0
  0
LINE
  5
149
330
13F
100
AcDbEntity
  8
0
  6
Continuous
 62
     0
370
     0
100
AcDbLine
 10
5.0
 20
0.0
 30
0.0
 11
6.25
 21
0.0
 31
0.0
  0
ENDBLK
  5
141
330
13F
100
AcDbEntity
  8
0
100
AcDbBlockEnd
  0
BLOCK
  5
14C
330
14B
100
AcDbEntity
  8
0
100
AcDbBlockBegin
  2
SW_CENTERMARKSYMBOL_5
 70
     0
 10
0.0
 20
0.0
 30
0.0
  3
SW_CENTERMARKSYMBOL_5
  1

  0
LINE
  5
14E
330
14B
100
AcDbEntity
  8
0
  6
Continuous
 62
     0
370
     0
100
AcDbLine
 10
0.0
 20
0.0
 30
0.0
 11
0.0
 21
2.5
 31
0.0
  0
LINE
  5
14F
330
14B
100
AcDbEntity
  8
0
  6
Continuous
 62
     0
370
     0
100
AcDbLine
 10
0.0
 20
0.0
 30
0.0
 11
-2.5
 21
0.0
 31
0.0
  0
LINE
  5
150
330
14B
100
AcDbEntity
  8
0
  6
Continuous
 62
     0
370
     0
100
AcDbLine
 10
0.0
 20
0.0
 30
0.0
 11
0.0
 21
-2.5
 31
0.0
  0
LINE
  5
151
330
14B
100
AcDbEntity
  8
0
  6
Continuous
 62
     0
370
     0
100
AcDbLine
 10
0.0
 20
0.0
 30
0.0
 11
2.5
 21
0.0
 31
0.0
  0
LINE
  5
152
330
14B
100
AcDbEntity
  8
0
  6
Continuous
 62
     0
370
     0
100
AcDbLine
 10
0.0
 20
5.0
 30
0.0
 11
0.0
 21
6.25
 31
0.0
  0
LINE
  5
153
330
14B
100
AcDbEntity
  8
0
  6
Continuous
 62
     0
370
     0
100
AcDbLine
 10
-5.0
 20
0.0
 30
0.0
 11
-6.25
 21
0.0
 31
0.0
  0
LINE
  5
154
330
14B
100
AcDbEntity
  8
0
  6
Continuous
 62
     0
370
     0
100
AcDbLine
 10
0.0
 20
-5.0
 30
0.0
 11
0.0
 21
-6.25
 31
0.0
  0
LINE
  5
155
330
14B
100
AcDbEntity
  8
0
  6
Continuous
 62
     0
370
     0
100
AcDbLine
 10
5.0
 20
0.0
 30
0.0
 11
6.25
 21
0.0
 31
0.0
  0
ENDBLK
  5
14D
330
14B
100
AcDbEntity
  8
0
100
AcDbBlockEnd
  0
BLOCK
  5
198
330
197
100
AcDbEntity
  8
0
100
AcDbBlockBegin
  2
*D11
 70
     1
 10
0.0
 20
0.0
 30
0.0
  3
*D11
  1

  0
LINE
  5
439
330
197
100
AcDbEntity
  8
0
  6
Continuous
 62
     0
370
    -2
100
AcDbLine
 10
172.8649158075999
 20
159.5002690029
 30
0.0
 11
200.816288878348
 21
159.5002690029
 31
0.0
  0
LINE
  5
43A
330
197
100
AcDbEntity
  8
0
  6
Continuous
 62
     0
370
    -2
100
AcDbLine
 10
172.8649158075999
 20
376.5002690029
 30
0.0
 11
200.8162888783481
 21
376.5002690029
 31
0.0
  0
LINE
  5
43B
330
197
100
AcDbEntity
  8
0
  6
Continuous
 62
     0
370
    -2
100
AcDbLine
 10
200.816288878348
 20
165.5002690028999
 30
0.0
 11
200.8162888783481
 21
370.5002690029
 31
0.0
  0
INSERT
  5
43C
330
197
100
AcDbEntity
  8
0
  6
Continuous
 62
     0
370
    -2
100
AcDbBlockReference
  2
_CLOSED
 10
200.816288878348
 20
159.5002690029
 30
0.0
 41
6.0
 42
6.0
 43
6.0
 50
270.0
  0
INSERT
  5
43D
330
197
100
AcDbEntity
  8
0
  6
Continuous
 62
     0
370
    -2
100
AcDbBlockReference
  2
_CLOSED
 10
200.8162888783481
 20
376.5002690029
 30
0.0
 41
6.0
 42
6.0
 43
6.0
 50
90.0
  0
MTEXT
  5
43E
330
197
100
AcDbEntity
  8
0
  6
Continuous
 62
     0
370
     0
100
AcDbMText
 10
196.441288878348
 20
299.9888921819999
 30
0.0
 40
3.5
 41
0.0
 71
     2
 72
     1
  1
\A1;217
  7
SLDTEXTSTYLE0
 11
0.0000000000000001
 21
1.0
 31
0.0
 73
     1
 44
1.0
  0
POINT
  5
43F
330
197
100
AcDbEntity
  8
Defpoints
  6
Continuous
 62
     0
100
AcDbPoint
 10
172.8024158075999
 20
159.5002690029
 30
0.0
  0
POINT
  5
440
330
197
100
AcDbEntity
  8
Defpoints
  6
Continuous
 62
     0
100
AcDbPoint
 10
172.8024158075999
 20
376.5002690029
 30
0.0
  0
POINT
  5
441
330
197
100
AcDbEntity
  8
Defpoints
  6
Continuous
 62
     0
100
AcDbPoint
 10
200.8162888783481
 20
376.5002690029
 30
0.0
  0
ENDBLK
  5
199
330
197
100
AcDbEntity
  8
0
100
AcDbBlockEnd
  0
BLOCK
  5
27B
330
27A
100
AcDbEntity
  8
0
100
AcDbBlockBegin
  2
*D12
 70
     1
 10
0.0
 20
0.0
 30
0.0
  3
*D12
  1

  0
LINE
  5
33B
330
27A
100
AcDbEntity
  8
0
 62
     0
370
    -2
100
AcDbLine
 10
499.3681062762
 20
124.3688173823999
 30
0.0
 11
541.3681062762
 21
124.3688173823999
 31
0.0
  0
LINE
  5
33C
330
27A
100
AcDbEntity
  8
0
 62
     0
370
    -2
100
AcDbLine
 10
499.3681062762
 20
341.3688173824
 30
0.0
 11
541.3681062762001
 21
341.3688173824
 31
0.0
  0
LINE
  5
33D
330
27A
100
AcDbEntity
  8
0
 62
     0
370
    -2
100
AcDbLine
 10
540.3681062762
 20
127.3688173824
 30
0.0
 11
540.3681062762001
 21
338.3688173824
 31
0.0
  0
SOLID
  5
33E
330
27A
100
AcDbEntity
  8
0
 62
     0
100
AcDbTrace
 10
539.8681062762
 20
127.3688173824
 30
0.0
 11
540.8681062762
 21
127.3688173824
 31
0.0
 12
540.3681062762
 22
124.3688173823999
 32
0.0
 13
540.3681062762
 23
124.3688173823999
 33
0.0
  0
SOLID
  5
33F
330
27A
100
AcDbEntity
  8
0
 62
     0
100
AcDbTrace
 10
539.8681062762001
 20
338.3688173824
 30
0.0
 11
540.8681062762001
 21
338.3688173824
 31
0.0
 12
540.3681062762001
 22
341.3688173824
 32
0.0
 13
540.3681062762001
 23
341.3688173824
 33
0.0
  0
MTEXT
  5
340
330
27A
100
AcDbEntity
  8
0
 62
     0
100
AcDbMText
 10
535.7847729428668
 20
238.0128883740999
 30
0.0
 40
3.5
 41
0.0
 71
     2
 72
     1
  1
217,00
 11
0.0000000000000001
 21
1.0
 31
0.0
 73
     1
 44
1.0
  0
POINT
  5
341
330
27A
100
AcDbEntity
  8
Defpoints
 62
     0
100
AcDbPoint
 10
498.3681062762
 20
124.3688173823999
 30
0.0
  0
POINT
  5
342
330
27A
100
AcDbEntity
  8
Defpoints
 62
     0
100
AcDbPoint
 10
498.3681062762
 20
341.3688173824
 30
0.0
  0
POINT
  5
343
330
27A
100
AcDbEntity
  8
Defpoints
 62
     0
100
AcDbPoint
 10
540.3681062762001
 20
341.3688173824
 30
0.0
  0
ENDBLK
  5
27C
330
27A
100
AcDbEntity
  8
0
100
AcDbBlockEnd
  0
BLOCK
  5
285
330
284
100
AcDbEntity
  8
0
100
AcDbBlockBegin
  2
*D13
 70
     1
 10
0.0
 20
0.0
 30
0.0
  3
*D13
  1

  0
LINE
  5
332
330
284
100
AcDbEntity
  8
0
 62
     0
370
    -2
100
AcDbLine
 10
378.4716468460999
 20
322.3688173824
 30
0.0
 11
378.4716468460999
 21
358.3688173824
 31
0.0
  0
LINE
  5
333
330
284
100
AcDbEntity
  8
0
 62
     0
370
    -2
100
AcDbLine
 10
500.3681062762
 20
340.3688173824
 30
0.0
 11
500.3681062762
 21
358.3688173824
 31
0.0
  0
LINE
  5
334
330
284
100
AcDbEntity
  8
0
 62
     0
370
    -2
100
AcDbLine
 10
381.4716468461
 20
357.3688173823999
 30
0.0
 11
497.3681062762
 21
357.3688173823999
 31
0.0
  0
SOLID
  5
335
330
284
100
AcDbEntity
  8
0
 62
     0
100
AcDbTrace
 10
381.4716468461
 20
357.8688173823999
 30
0.0
 11
381.4716468461
 21
356.8688173823999
 31
0.0
 12
378.4716468460999
 22
357.3688173823999
 32
0.0
 13
378.4716468460999
 23
357.3688173823999
 33
0.0
  0
SOLID
  5
336
330
284
100
AcDbEntity
  8
0
 62
     0
100
AcDbTrace
 10
497.3681062762
 20
357.8688173823999
 30
0.0
 11
497.3681062762
 21
356.8688173823999
 31
0.0
 12
500.3681062762
 22
357.3688173823999
 32
0.0
 13
500.3681062762
 23
357.3688173823999
 33
0.0
  0
MTEXT
  5
337
330
284
100
AcDbEntity
  8
0
 62
     0
100
AcDbMText
 10
440.3778403673
 20
361.9521507157333
 30
0.0
 40
3.5
 41
0.0
 71
     2
 72
     1
  1
121,90
 73
     1
 44
1.0
  0
POINT
  5
338
330
284
100
AcDbEntity
  8
Defpoints
 62
     0
100
AcDbPoint
 10
378.4716468460999
 20
321.3688173824
 30
0.0
  0
POINT
  5
339
330
284
100
AcDbEntity
  8
Defpoints
 62
     0
100
AcDbPoint
 10
500.3681062762
 20
339.3688173824
 30
0.0
  0
POINT
  5
33A
330
284
100
AcDbEntity
  8
Defpoints
 62
     0
100
AcDbPoint
 10
500.3681062762
 20
357.3688173823999
 30
0.0
  0
ENDBLK
  5
286
330
284
100
AcDbEntity
  8
0
100
AcDbBlockEnd
  0
BLOCK
  5
292
330
291
100
AcDbEntity
  8
0
100
AcDbBlockBegin
  2
SW_CENTERMARKSYMBOL_6
 70
     0
 10
0.0
 20
0.0
 30
0.0
  3
SW_CENTERMARKSYMBOL_6
  1

  0
LINE
  5
294
330
291
100
AcDbEntity
  8
0
  6
Continuous
 62
     0
370
     0
100
AcDbLine
 10
0.0
 20
0.0
 30
0.0
 11
-2.5
 21
0.0
 31
0.0
  0
LINE
  5
295
330
291
100
AcDbEntity
  8
0
  6
Continuous
 62
     0
370
     0
100
AcDbLine
 10
0.0
 20
0.0
 30
0.0
 11
0.0
 21
-2.5
 31
0.0
  0
LINE
  5
296
330
291
100
AcDbEntity
  8
0
  6
Continuous
 62
     0
370
     0
100
AcDbLine
 10
0.0
 20
0.0
 30
0.0
 11
2.5
 21
0.0
 31
0.0
  0
LINE
  5
297
330
291
100
AcDbEntity
  8
0
  6
Continuous
 62
     0
370
     0
100
AcDbLine
 10
0.0
 20
0.0
 30
0.0
 11
0.0
 21
2.5
 31
0.0
  0
LINE
  5
298
330
291
100
AcDbEntity
  8
0
  6
Continuous
 62
     0
370
     0
100
AcDbLine
 10
-2.5
 20
0.0
 30
0.0
 11
-4.25
 21
0.0
 31
0.0
  0
LINE
  5
299
330
291
100
AcDbEntity
  8
0
  6
Continuous
 62
     0
370
     0
100
AcDbLine
 10
0.0
 20
-2.5
 30
0.0
 11
0.0
 21
-4.25
 31
0.0
  0
LINE
  5
29A
330
291
100
AcDbEntity
  8
0
  6
Continuous
 62
     0
370
     0
100
AcDbLine
 10
2.5
 20
0.0
 30
0.0
 11
4.25
 21
0.0
 31
0.0
  0
LINE
  5
29B
330
291
100
AcDbEntity
  8
0
  6
Continuous
 62
     0
370
     0
100
AcDbLine
 10
0.0
 20
150.0
 30
0.0
 11
-2.5
 21
150.0
 31
0.0
  0
LINE
  5
29C
330
291
100
AcDbEntity
  8
0
  6
Continuous
 62
     0
370
     0
100
AcDbLine
 10
0.0
 20
150.0
 30
0.0
 11
0.0
 21
147.5
 31
0.0
  0
LINE
  5
29D
330
291
100
AcDbEntity
  8
0
  6
Continuous
 62
     0
370
     0
100
AcDbLine
 10
0.0
 20
150.0
 30
0.0
 11
2.5
 21
150.0
 31
0.0
  0
LINE
  5
29E
330
291
100
AcDbEntity
  8
0
  6
Continuous
 62
     0
370
     0
100
AcDbLine
 10
0.0
 20
150.0
 30
0.0
 11
0.0
 21
152.5
 31
0.0
  0
LINE
  5
29F
330
291
100
AcDbEntity
  8
0
  6
Continuous
 62
     0
370
     0
100
AcDbLine
 10
-2.5
 20
150.0
 30
0.0
 11
-4.25
 21
150.0
 31
0.0
  0
LINE
  5
2A0
330
291
100
AcDbEntity
  8
0
  6
Continuous
 62
     0
370
     0
100
AcDbLine
 10
2.5
 20
150.0
 30
0.0
 11
4.25
 21
150.0
 31
0.0
  0
LINE
  5
2A1
330
291
100
AcDbEntity
  8
0
  6
Continuous
 62
     0
370
     0
100
AcDbLine
 10
0.0
 20
152.5
 30
0.0
 11
0.0
 21
154.2499999999999
 31
0.0
  0
LINE
  5
2A2
330
291
100
AcDbEntity
  8
0
  6
Continuous
 62
     0
370
     0
100
AcDbLine
 10
0.0
 20
5.0
 30
0.0
 11
0.0
 21
145.0
 31
0.0
  0
ENDBLK
  5
293
330
291
100
AcDbEntity
  8
0
100
AcDbBlockEnd
  0
BLOCK
  5
2A5
330
2A4
100
AcDbEntity
  8
0
100
AcDbBlockBegin
  2
SW_CENTERMARKSYMBOL_7
 70
     0
 10
0.0
 20
0.0
 30
0.0
  3
SW_CENTERMARKSYMBOL_7
  1

  0
LINE
  5
2A7
330
2A4
100
AcDbEntity
  8
0
  6
Continuous
 62
     0
370
     0
100
AcDbLine
 10
0.0
 20
0.0
 30
0.0
 11
-2.5
 21
0.0
 31
0.0
  0
LINE
  5
2A8
330
2A4
100
AcDbEntity
  8
0
  6
Continuous
 62
     0
370
     0
100
AcDbLine
 10
0.0
 20
0.0
 30
0.0
 11
0.0
 21
-2.5
 31
0.0
  0
LINE
  5
2A9
330
2A4
100
AcDbEntity
  8
0
  6
Continuous
 62
     0
370
     0
100
AcDbLine
 10
0.0
 20
0.0
 30
0.0
 11
2.5
 21
0.0
 31
0.0
  0
LINE
  5
2AA
330
2A4
100
AcDbEntity
  8
0
  6
Continuous
 62
     0
370
     0
100
AcDbLine
 10
0.0
 20
0.0
 30
0.0
 11
0.0
 21
2.5
 31
0.0
  0
LINE
  5
2AB
330
2A4
100
AcDbEntity
  8
0
  6
Continuous
 62
     0
370
     0
100
AcDbLine
 10
-2.5
 20
0.0
 30
0.0
 11
-4.25
 21
0.0
 31
0.0
  0
LINE
  5
2AC
330
2A4
100
AcDbEntity
  8
0
  6
Continuous
 62
     0
370
     0
100
AcDbLine
 10
0.0
 20
-2.5
 30
0.0
 11
0.0
 21
-4.25
 31
0.0
  0
LINE
  5
2AD
330
2A4
100
AcDbEntity
  8
0
  6
Continuous
 62
     0
370
     0
100
AcDbLine
 10
2.5
 20
0.0
 30
0.0
 11
4.25
 21
0.0
 31
0.0
  0
LINE
  5
2AE
330
2A4
100
AcDbEntity
  8
0
  6
Continuous
 62
     0
370
     0
100
AcDbLine
 10
0.0
 20
150.0
 30
0.0
 11
-2.5
 21
150.0
 31
0.0
  0
LINE
  5
2AF
330
2A4
100
AcDbEntity
  8
0
  6
Continuous
 62
     0
370
     0
100
AcDbLine
 10
0.0
 20
150.0
 30
0.0
 11
0.0
 21
147.5
 31
0.0
  0
LINE
  5
2B0
330
2A4
100
AcDbEntity
  8
0
  6
Continuous
 62
     0
370
     0
100
AcDbLine
 10
0.0
 20
150.0
 30
0.0
 11
2.5
 21
150.0
 31
0.0
  0
LINE
  5
2B1
330
2A4
100
AcDbEntity
  8
0
  6
Continuous
 62
     0
370
     0
100
AcDbLine
 10
0.0
 20
150.0
 30
0.0
 11
0.0
 21
152.5
 31
0.0
  0
LINE
  5
2B2
330
2A4
100
AcDbEntity
  8
0
  6
Continuous
 62
     0
370
     0
100
AcDbLine
 10
-2.5
 20
150.0
 30
0.0
 11
-4.25
 21
150.0
 31
0.0
  0
LINE
  5
2B3
330
2A4
100
AcDbEntity
  8
0
  6
Continuous
 62
     0
370
     0
100
AcDbLine
 10
2.5
 20
150.0
 30
0.0
 11
4.25
 21
150.0
 31
0.0
  0
LINE
  5
2B4
330
2A4
100
AcDbEntity
  8
0
  6
Continuous
 62
     0
370
     0
100
AcDbLine
 10
0.0
 20
152.5
 30
0.0
 11
0.0
 21
154.2499999999999
 31
0.0
  0
LINE
  5
2B5
330
2A4
100
AcDbEntity
  8
0
  6
Continuous
 62
     0
370
     0
100
AcDbLine
 10
0.0
 20
5.0
 30
0.0
 11
0.0
 21
145.0
 31
0.0
  0
ENDBLK
  5
2A6
330
2A4
100
AcDbEntity
  8
0
100
AcDbBlockEnd
  0
BLOCK
  5
2B8
330
2B7
100
AcDbEntity
  8
0
100
AcDbBlockBegin
  2
SW_CENTERMARKSYMBOL_8
 70
     0
 10
0.0
 20
0.0
 30
0.0
  3
SW_CENTERMARKSYMBOL_8
  1

  0
LINE
  5
2BA
330
2B7
100
AcDbEntity
  8
0
  6
Continuous
 62
     0
370
     0
100
AcDbLine
 10
0.0
 20
0.0
 30
0.0
 11
0.0
 21
2.5
 31
0.0
  0
LINE
  5
2BB
330
2B7
100
AcDbEntity
  8
0
  6
Continuous
 62
     0
370
     0
100
AcDbLine
 10
0.0
 20
0.0
 30
0.0
 11
-2.5
 21
0.0
 31
0.0
  0
LINE
  5
2BC
330
2B7
100
AcDbEntity
  8
0
  6
Continuous
 62
     0
370
     0
100
AcDbLine
 10
0.0
 20
0.0
 30
0.0
 11
0.0
 21
-2.5
 31
0.0
  0
LINE
  5
2BD
330
2B7
100
AcDbEntity
  8
0
  6
Continuous
 62
     0
370
     0
100
AcDbLine
 10
0.0
 20
0.0
 30
0.0
 11
2.5
 21
0.0
 31
0.0
  0
LINE
  5
2BE
330
2B7
100
AcDbEntity
  8
0
  6
Continuous
 62
     0
370
     0
100
AcDbLine
 10
0.0
 20
2.5
 30
0.0
 11
0.0
 21
4.25
 31
0.0
  0
LINE
  5
2BF
330
2B7
100
AcDbEntity
  8
0
  6
Continuous
 62
     0
370
     0
100
AcDbLine
 10
-2.5
 20
0.0
 30
0.0
 11
-4.25
 21
0.0
 31
0.0
  0
LINE
  5
2C0
330
2B7
100
AcDbEntity
  8
0
  6
Continuous
 62
     0
370
     0
100
AcDbLine
 10
0.0
 20
-2.5
 30
0.0
 11
0.0
 21
-4.25
 31
0.0
  0
LINE
  5
2C1
330
2B7
100
AcDbEntity
  8
0
  6
Continuous
 62
     0
370
     0
100
AcDbLine
 10
2.5
 20
0.0
 30
0.0
 11
4.25
 21
0.0
 31
0.0
  0
ENDBLK
  5
2B9
330
2B7
100
AcDbEntity
  8
0
100
AcDbBlockEnd
  0
BLOCK
  5
2C4
330
2C3
100
AcDbEntity
  8
0
100
AcDbBlockBegin
  2
SW_CENTERMARKSYMBOL_9
 70
     0
 10
0.0
 20
0.0
 30
0.0
  3
SW_CENTERMARKSYMBOL_9
  1

  0
LINE
  5
2C6
330
2C3
100
AcDbEntity
  8
0
  6
Continuous
 62
     0
370
     0
100
AcDbLine
 10
0.0
 20
0.0
 30
0.0
 11
0.0
 21
2.5
 31
0.0
  0
LINE
  5
2C7
330
2C3
100
AcDbEntity
  8
0
  6
Continuous
 62
     0
370
     0
100
AcDbLine
 10
0.0
 20
0.0
 30
0.0
 11
-2.5
 21
0.0
 31
0.0
  0
LINE
  5
2C8
330
2C3
100
AcDbEntity
  8
0
  6
Continuous
 62
     0
370
     0
100
AcDbLine
 10
0.0
 20
0.0
 30
0.0
 11
0.0
 21
-2.5
 31
0.0
  0
LINE
  5
2C9
330
2C3
100
AcDbEntity
  8
0
  6
Continuous
 62
     0
370
     0
100
AcDbLine
 10
0.0
 20
0.0
 30
0.0
 11
2.5
 21
0.0
 31
0.0
  0
LINE
  5
2CA
330
2C3
100
AcDbEntity
  8
0
  6
Continuous
 62
     0
370
     0
100
AcDbLine
 10
0.0
 20
2.5
 30
0.0
 11
0.0
 21
4.25
 31
0.0
  0
LINE
  5
2CB
330
2C3
100
AcDbEntity
  8
0
  6
Continuous
 62
     0
370
     0
100
AcDbLine
 10
-2.5
 20
0.0
 30
0.0
 11
-4.25
 21
0.0
 31
0.0
  0
LINE
  5
2CC
330
2C3
100
AcDbEntity
  8
0
  6
Continuous
 62
     0
370
     0
100
AcDbLine
 10
0.0
 20
-2.5
 30
0.0
 11
0.0
 21
-4.25
 31
0.0
  0
LINE
  5
2CD
330
2C3
100
AcDbEntity
  8
0
  6
Continuous
 62
     0
370
     0
100
AcDbLine
 10
2.5
 20
0.0
 30
0.0
 11
4.25
 21
0.0
 31
0.0
  0
ENDBLK
  5
2C5
330
2C3
100
AcDbEntity
  8
0
100
AcDbBlockEnd
  0
BLOCK
  5
2D0
330
2CF
100
AcDbEntity
  8
0
100
AcDbBlockBegin
  2
SW_CENTERMARKSYMBOL_10
 70
     0
 10
0.0
 20
0.0
 30
0.0
  3
SW_CENTERMARKSYMBOL_10
  1

  0
LINE
  5
2D2
330
2CF
100
AcDbEntity
  8
0
  6
Continuous
 62
     0
370
     0
100
AcDbLine
 10
0.0
 20
0.0
 30
0.0
 11
0.0
 21
2.5
 31
0.0
  0
LINE
  5
2D3
330
2CF
100
AcDbEntity
  8
0
  6
Continuous
 62
     0
370
     0
100
AcDbLine
 10
0.0
 20
0.0
 30
0.0
 11
-2.5
 21
0.0
 31
0.0
  0
LINE
  5
2D4
330
2CF
100
AcDbEntity
  8
0
  6
Continuous
 62
     0
370
     0
100
AcDbLine
 10
0.0
 20
0.0
 30
0.0
 11
0.0
 21
-2.5
 31
0.0
  0
LINE
  5
2D5
330
2CF
100
AcDbEntity
  8
0
  6
Continuous
 62
     0
370
     0
100
AcDbLine
 10
0.0
 20
0.0
 30
0.0
 11
2.5
 21
0.0
 31
0.0
  0
LINE
  5
2D6
330
2CF
100
AcDbEntity
  8
0
  6
Continuous
 62
     0
370
     0
100
AcDbLine
 10
0.0
 20
5.0
 30
0.0
 11
0.0
 21
6.25
 31
0.0
  0
LINE
  5
2D7
330
2CF
100
AcDbEntity
  8
0
  6
Continuous
 62
     0
370
     0
100
AcDbLine
 10
-5.0
 20
0.0
 30
0.0
 11
-6.25
 21
0.0
 31
0.0
  0
LINE
  5
2D8
330
2CF
100
AcDbEntity
  8
0
  6
Continuous
 62
     0
370
     0
100
AcDbLine
 10
0.0
 20
-5.0
 30
0.0
 11
0.0
 21
-6.25
 31
0.0
  0
LINE
  5
2D9
330
2CF
100
AcDbEntity
  8
0
  6
Continuous
 62
     0
370
     0
100
AcDbLine
 10
5.0
 20
0.0
 30
0.0
 11
6.25
 21
0.0
 31
0.0
  0
ENDBLK
  5
2D1
330
2CF
100
AcDbEntity
  8
0
100
AcDbBlockEnd
  0
BLOCK
  5
2DC
330
2DB
100
AcDbEntity
  8
0
100
AcDbBlockBegin
  2
SW_CENTERMARKSYMBOL_11
 70
     0
 10
0.0
 20
0.0
 30
0.0
  3
SW_CENTERMARKSYMBOL_11
  1

  0
LINE
  5
2DE
330
2DB
100
AcDbEntity
  8
0
  6
Continuous
 62
     0
370
     0
100
AcDbLine
 10
0.0
 20
0.0
 30
0.0
 11
0.0
 21
2.5
 31
0.0
  0
LINE
  5
2DF
330
2DB
100
AcDbEntity
  8
0
  6
Continuous
 62
     0
370
     0
100
AcDbLine
 10
0.0
 20
0.0
 30
0.0
 11
-2.5
 21
0.0
 31
0.0
  0
LINE
  5
2E0
330
2DB
100
AcDbEntity
  8
0
  6
Continuous
 62
     0
370
     0
100
AcDbLine
 10
0.0
 20
0.0
 30
0.0
 11
0.0
 21
-2.5
 31
0.0
  0
LINE
  5
2E1
330
2DB
100
AcDbEntity
  8
0
  6
Continuous
 62
     0
370
     0
100
AcDbLine
 10
0.0
 20
0.0
 30
0.0
 11
2.5
 21
0.0
 31
0.0
  0
LINE
  5
2E2
330
2DB
100
AcDbEntity
  8
0
  6
Continuous
 62
     0
370
     0
100
AcDbLine
 10
0.0
 20
5.0
 30
0.0
 11
0.0
 21
6.25
 31
0.0
  0
LINE
  5
2E3
330
2DB
100
AcDbEntity
  8
0
  6
Continuous
 62
     0
370
     0
100
AcDbLine
 10
-5.0
 20
0.0
 30
0.0
 11
-6.25
 21
0.0
 31
0.0
  0
LINE
  5
2E4
330
2DB
100
AcDbEntity
  8
0
  6
Continuous
 62
     0
370
     0
100
AcDbLine
 10
0.0
 20
-5.0
 30
0.0
 11
0.0
 21
-6.25
 31
0.0
  0
LINE
  5
2E5
330
2DB
100
AcDbEntity
  8
0
  6
Continuous
 62
     0
370
     0
100
AcDbLine
 10
5.0
 20
0.0
 30
0.0
 11
6.25
 21
0.0
 31
0.0
  0
ENDBLK
  5
2DD
330
2DB
100
AcDbEntity
  8
0
100
AcDbBlockEnd
  0
BLOCK
  5
308
330
2FD
100
AcDbEntity
  8
0
100
AcDbBlockBegin
  2
*D20
 70
     1
 10
0.0
 20
0.0
 30
0.0
  3
*D20
  1

  0
LINE
  5
2FE
330
2FD
100
AcDbEntity
  8
0
 62
     0
370
    -2
100
AcDbLine
 10
365.5457569401623
 20
392.1975890483918
 30
0.0
 11
365.5457569401623
 21
375.9864497243325
 31
0.0
  0
LINE
  5
2FF
330
2FD
100
AcDbEntity
  8
0
 62
     0
370
    -2
100
AcDbLine
 10
372.6433601185344
 20
392.1975890483918
 30
0.0
 11
372.6433601185344
 21
375.9864497243325
 31
0.0
  0
LINE
  5
300
330
2FD
100
AcDbEntity
  8
0
 62
     0
370
    -2
100
AcDbLine
 10
368.5457569401624
 20
376.9864497243324
 30
0.0
 11
369.6433601185344
 21
376.9864497243324
 31
0.0
  0
LINE
  5
301
330
2FD
100
AcDbEntity
  8
0
 62
     0
370
    -2
100
AcDbLine
 10
372.6433601185344
 20
376.9864497243324
 30
0.0
 11
389.4766934518678
 21
376.9864497243324
 31
0.0
  0
SOLID
  5
302
330
2FD
100
AcDbEntity
  8
0
 62
     0
100
AcDbTrace
 10
368.5457569401624
 20
377.4864497243324
 30
0.0
 11
368.5457569401624
 21
376.4864497243324
 31
0.0
 12
365.5457569401623
 22
376.9864497243324
 32
0.0
 13
365.5457569401623
 23
376.9864497243324
 33
0.0
  0
SOLID
  5
303
330
2FD
100
AcDbEntity
  8
0
 62
     0
100
AcDbTrace
 10
369.6433601185344
 20
377.4864497243324
 30
0.0
 11
369.6433601185344
 21
376.4864497243324
 31
0.0
 12
372.6433601185344
 22
376.9864497243324
 32
0.0
 13
372.6433601185344
 23
376.9864497243324
 33
0.0
  0
MTEXT
  5
304
330
2FD
100
AcDbEntity
  8
0
 62
     0
100
AcDbMText
 10
382.5600267852011
 20
379.5281163909991
 30
0.0
 40
3.5
 41
0.0
 71
     5
 72
     1
  1
14,20
 73
     1
 44
1.0
  0
POINT
  5
305
330
2FD
100
AcDbEntity
  8
Defpoints
 62
     0
100
AcDbPoint
 10
365.5457569401623
 20
393.1975890483918
 30
0.0
  0
POINT
  5
306
330
2FD
100
AcDbEntity
  8
Defpoints
 62
     0
100
AcDbPoint
 10
372.6433601185344
 20
393.1975890483918
 30
0.0
  0
POINT
  5
307
330
2FD
100
AcDbEntity
  8
Defpoints
 62
     0
100
AcDbPoint
 10
372.6433601185344
 20
376.9864497243324
 30
0.0
  0
ENDBLK
  5
309
330
2FD
100
AcDbEntity
  8
0
100
AcDbBlockEnd
  0
BLOCK
  5
330
330
326
100
AcDbEntity
  8
0
100
AcDbBlockBegin
  2
*D21
 70
     1
 10
0.0
 20
0.0
 30
0.0
  3
*D21
  1

  0
LINE
  5
327
330
326
100
AcDbEntity
  8
0
 62
     0
370
    -2
100
AcDbLine
 10
652.853461691353
 20
332.4308827521162
 30
0.0
 11
652.853461691353
 21
289.6258411976123
 31
0.0
  0
LINE
  5
328
330
326
100
AcDbEntity
  8
0
 62
     0
370
    -2
100
AcDbLine
 10
666.1675498633703
 20
315.6559208265862
 30
0.0
 11
666.1675498633703
 21
289.6258411976123
 31
0.0
  0
LINE
  5
329
330
326
100
AcDbEntity
  8
0
 62
     0
370
    -2
100
AcDbLine
 10
655.8534616913529
 20
290.6258411976123
 30
0.0
 11
663.1675498633703
 21
290.6258411976123
 31
0.0
  0
SOLID
  5
32A
330
326
100
AcDbEntity
  8
0
 62
     0
100
AcDbTrace
 10
655.8534616913529
 20
291.1258411976123
 30
0.0
 11
655.8534616913529
 21
290.1258411976123
 31
0.0
 12
652.853461691353
 22
290.6258411976123
 32
0.0
 13
652.853461691353
 23
290.6258411976123
 33
0.0
  0
SOLID
  5
32B
330
326
100
AcDbEntity
  8
0
 62
     0
100
AcDbTrace
 10
663.1675498633703
 20
291.1258411976123
 30
0.0
 11
663.1675498633703
 21
290.1258411976123
 31
0.0
 12
666.1675498633703
 22
290.6258411976123
 32
0.0
 13
666.1675498633703
 23
290.6258411976123
 33
0.0
  0
MTEXT
  5
32C
330
326
100
AcDbEntity
  8
0
 62
     0
100
AcDbMText
 10
659.5105057773617
 20
293.1675078642789
 30
0.0
 40
3.5
 41
0.0
 71
     5
 72
     1
  1
13,31
 73
     1
 44
1.0
  0
POINT
  5
32D
330
326
100
AcDbEntity
  8
Defpoints
 62
     0
100
AcDbPoint
 10
652.853461691353
 20
333.4308827521163
 30
0.0
  0
POINT
  5
32E
330
326
100
AcDbEntity
  8
Defpoints
 62
     0
100
AcDbPoint
 10
666.1675498633703
 20
316.6559208265862
 30
0.0
  0
POINT
  5
32F
330
326
100
AcDbEntity
  8
Defpoints
 62
     0
100
AcDbPoint
 10
666.1675498633703
 20
290.6258411976123
 30
0.0
  0
ENDBLK
  5
331
330
326
100
AcDbEntity
  8
0
100
AcDbBlockEnd
  0
BLOCK
  5
359
330
34F
100
AcDbEntity
  8
0
100
AcDbBlockBegin
  2
*D22
 70
     1
 10
0.0
 20
0.0
 30
0.0
  3
*D22
  1

  0
LINE
  5
350
330
34F
100
AcDbEntity
  8
0
 62
     0
370
    -2
100
AcDbLine
 10
384.4716468460999
 20
315.4188173824
 30
0.0
 11
350.4569625488002
 21
315.4188173824
 31
0.0
  0
LINE
  5
351
330
34F
100
AcDbEntity
  8
0
 62
     0
370
    -2
100
AcDbLine
 10
384.4716468460999
 20
283.6688173824
 30
0.0
 11
350.4569625488002
 21
283.6688173824
 31
0.0
  0
LINE
  5
352
330
34F
100
AcDbEntity
  8
0
 62
     0
370
    -2
100
AcDbLine
 10
351.4569625488002
 20
312.4188173824
 30
0.0
 11
351.4569625488002
 21
286.6688173824
 31
0.0
  0
SOLID
  5
353
330
34F
100
AcDbEntity
  8
0
 62
     0
100
AcDbTrace
 10
350.9569625488002
 20
312.4188173824
 30
0.0
 11
351.9569625488002
 21
312.4188173824
 31
0.0
 12
351.4569625488002
 22
315.4188173824
 32
0.0
 13
351.4569625488002
 23
315.4188173824
 33
0.0
  0
SOLID
  5
354
330
34F
100
AcDbEntity
  8
0
 62
     0
100
AcDbTrace
 10
350.9569625488002
 20
286.6688173824
 30
0.0
 11
351.9569625488002
 21
286.6688173824
 31
0.0
 12
351.4569625488002
 22
283.6688173824
 32
0.0
 13
351.4569625488002
 23
283.6688173824
 33
0.0
  0
MTEXT
  5
355
330
34F
100
AcDbEntity
  8
0
 62
     0
100
AcDbMText
 10
348.9152958821335
 20
299.5438173824
 30
0.0
 40
3.5
 41
0.0
 71
     5
 72
     1
  1
31,75
 11
0.0000000000000001
 21
1.0
 31
0.0
 73
     1
 44
1.0
  0
POINT
  5
356
330
34F
100
AcDbEntity
  8
Defpoints
 62
     0
100
AcDbPoint
 10
385.4716468460999
 20
315.4188173824
 30
0.0
  0
POINT
  5
357
330
34F
100
AcDbEntity
  8
Defpoints
 62
     0
100
AcDbPoint
 10
385.4716468460999
 20
283.6688173824
 30
0.0
  0
POINT
  5
358
330
34F
100
AcDbEntity
  8
Defpoints
 62
     0
100
AcDbPoint
 10
351.4569625488002
 20
283.6688173824
 30
0.0
  0
ENDBLK
  5
35A
330
34F
100
AcDbEntity
  8
0
100
AcDbBlockEnd
  0
BLOCK
  5
367
330
35C
100
AcDbEntity
  8
0
100
AcDbBlockBegin
  2
*D23
 70
     1
 10
0.0
 20
0.0
 30
0.0
  3
*D23
  1

  0
LINE
  5
35D
330
35C
100
AcDbEntity
  8
0
 62
     0
370
    -2
100
AcDbLine
 10
384.4716468460999
 20
283.6688173824
 30
0.0
 11
360.2597769182902
 21
283.6688173824
 31
0.0
  0
LINE
  5
35E
330
35C
100
AcDbEntity
  8
0
 62
     0
370
    -2
100
AcDbLine
 10
384.4716468460999
 20
270.9688173823999
 30
0.0
 11
360.2597769182902
 21
270.9688173824
 31
0.0
  0
LINE
  5
35F
330
35C
100
AcDbEntity
  8
0
 62
     0
370
    -2
100
AcDbLine
 10
361.2597769182903
 20
280.6688173824
 30
0.0
 11
361.2597769182903
 21
273.9688173824
 31
0.0
  0
LINE
  5
360
330
35C
100
AcDbEntity
  8
0
 62
     0
370
    -2
100
AcDbLine
 10
361.2597769182903
 20
270.9688173824
 30
0.0
 11
361.2597769182903
 21
254.1354840490667
 31
0.0
  0
SOLID
  5
361
330
35C
100
AcDbEntity
  8
0
 62
     0
100
AcDbTrace
 10
360.7597769182902
 20
280.6688173824
 30
0.0
 11
361.7597769182903
 21
280.6688173824
 31
0.0
 12
361.2597769182903
 22
283.6688173824
 32
0.0
 13
361.2597769182903
 23
283.6688173824
 33
0.0
  0
SOLID
  5
362
330
35C
100
AcDbEntity
  8
0
 62
     0
100
AcDbTrace
 10
360.7597769182902
 20
273.9688173824
 30
0.0
 11
361.7597769182903
 21
273.9688173824
 31
0.0
 12
361.2597769182903
 22
270.9688173824
 32
0.0
 13
361.2597769182903
 23
270.9688173824
 33
0.0
  0
MTEXT
  5
363
330
35C
100
AcDbEntity
  8
0
 62
     0
100
AcDbMText
 10
358.7181102516235
 20
261.0521507157334
 30
0.0
 40
3.5
 41
0.0
 71
     5
 72
     1
  1
12,70
 11
0.0000000000000001
 21
1.0
 31
0.0
 73
     1
 44
1.0
  0
POINT
  5
364
330
35C
100
AcDbEntity
  8
Defpoints
 62
     0
100
AcDbPoint
 10
385.4716468460999
 20
283.6688173824
 30
0.0
  0
POINT
  5
365
330
35C
100
AcDbEntity
  8
Defpoints
 62
     0
100
AcDbPoint
 10
385.4716468460999
 20
270.9688173823999
 30
0.0
  0
POINT
  5
366
330
35C
100
AcDbEntity
  8
Defpoints
 62
     0
100
AcDbPoint
 10
361.2597769182903
 20
270.9688173824
 30
0.0
  0
ENDBLK
  5
368
330
35C
100
AcDbEntity
  8
0
100
AcDbBlockEnd
  0
BLOCK
  5
374
330
36A
100
AcDbEntity
  8
0
100
AcDbBlockBegin
  2
*D24
 70
     1
 10
0.0
 20
0.0
 30
0.0
  3
*D24
  1

  0
LINE
  5
36B
330
36A
100
AcDbEntity
  8
0
 62
     0
370
    -2
100
AcDbLine
 10
384.4716468460999
 20
270.9688173823999
 30
0.0
 11
347.9157748966899
 21
270.9688173824
 31
0.0
  0
LINE
  5
36C
330
36A
100
AcDbEntity
  8
0
 62
     0
370
    -2
100
AcDbLine
 10
384.4716468460999
 20
239.2188173824
 30
0.0
 11
347.9157748966899
 21
239.2188173824
 31
0.0
  0
LINE
  5
36D
330
36A
100
AcDbEntity
  8
0
 62
     0
370
    -2
100
AcDbLine
 10
348.9157748966899
 20
267.9688173824
 30
0.0
 11
348.9157748966899
 21
242.2188173824
 31
0.0
  0
SOLID
  5
36E
330
36A
100
AcDbEntity
  8
0
 62
     0
100
AcDbTrace
 10
348.4157748966899
 20
267.9688173824
 30
0.0
 11
349.41577489669
 21
267.9688173824
 31
0.0
 12
348.9157748966899
 22
270.9688173824
 32
0.0
 13
348.9157748966899
 23
270.9688173824
 33
0.0
  0
SOLID
  5
36F
330
36A
100
AcDbEntity
  8
0
 62
     0
100
AcDbTrace
 10
348.4157748966899
 20
242.2188173824
 30
0.0
 11
349.41577489669
 21
242.2188173824
 31
0.0
 12
348.9157748966899
 22
239.2188173824
 32
0.0
 13
348.9157748966899
 23
239.2188173824
 33
0.0
  0
MTEXT
  5
370
330
36A
100
AcDbEntity
  8
0
 62
     0
100
AcDbMText
 10
346.3741082300232
 20
255.0938173824
 30
0.0
 40
3.5
 41
0.0
 71
     5
 72
     1
  1
31,75
 11
0.0000000000000001
 21
1.0
 31
0.0
 73
     1
 44
1.0
  0
POINT
  5
371
330
36A
100
AcDbEntity
  8
Defpoints
 62
     0
100
AcDbPoint
 10
385.4716468460999
 20
270.9688173823999
 30
0.0
  0
POINT
  5
372
330
36A
100
AcDbEntity
  8
Defpoints
 62
     0
100
AcDbPoint
 10
385.4716468460999
 20
239.2188173824
 30
0.0
  0
POINT
  5
373
330
36A
100
AcDbEntity
  8
Defpoints
 62
     0
100
AcDbPoint
 10
348.9157748966899
 20
239.2188173824
 30
0.0
  0
ENDBLK
  5
375
330
36A
100
AcDbEntity
  8
0
100
AcDbBlockEnd
  0
BLOCK
  5
381
330
377
100
AcDbEntity
  8
0
100
AcDbBlockBegin
  2
*D25
 70
     1
 10
0.0
 20
0.0
 30
0.0
  3
*D25
  1

  0
LINE
  5
378
330
377
100
AcDbEntity
  8
0
 62
     0
370
    -2
100
AcDbLine
 10
384.4716468460999
 20
226.5188173824
 30
0.0
 11
346.4205851155347
 21
226.5188173824
 31
0.0
  0
LINE
  5
379
330
377
100
AcDbEntity
  8
0
 62
     0
370
    -2
100
AcDbLine
 10
384.4716468460999
 20
194.7688173824
 30
0.0
 11
346.4205851155347
 21
194.7688173824
 31
0.0
  0
LINE
  5
37A
330
377
100
AcDbEntity
  8
0
 62
     0
370
    -2
100
AcDbLine
 10
347.4205851155347
 20
223.5188173824
 30
0.0
 11
347.4205851155347
 21
197.7688173824
 31
0.0
  0
SOLID
  5
37B
330
377
100
AcDbEntity
  8
0
 62
     0
100
AcDbTrace
 10
346.9205851155347
 20
223.5188173824
 30
0.0
 11
347.9205851155347
 21
223.5188173824
 31
0.0
 12
347.4205851155347
 22
226.5188173824
 32
0.0
 13
347.4205851155347
 23
226.5188173824
 33
0.0
  0
SOLID
  5
37C
330
377
100
AcDbEntity
  8
0
 62
     0
100
AcDbTrace
 10
346.9205851155347
 20
197.7688173824
 30
0.0
 11
347.9205851155347
 21
197.7688173824
 31
0.0
 12
347.4205851155347
 22
194.7688173824
 32
0.0
 13
347.4205851155347
 23
194.7688173824
 33
0.0
  0
MTEXT
  5
37D
330
377
100
AcDbEntity
  8
0
 62
     0
100
AcDbMText
 10
344.878918448868
 20
210.6438173824
 30
0.0
 40
3.5
 41
0.0
 71
     5
 72
     1
  1
31,75
 11
0.0000000000000001
 21
1.0
 31
0.0
 73
     1
 44
1.0
  0
POINT
  5
37E
330
377
100
AcDbEntity
  8
Defpoints
 62
     0
100
AcDbPoint
 10
385.4716468460999
 20
226.5188173824
 30
0.0
  0
POINT
  5
37F
330
377
100
AcDbEntity
  8
Defpoints
 62
     0
100
AcDbPoint
 10
385.4716468460999
 20
194.7688173824
 30
0.0
  0
POINT
  5
380
330
377
100
AcDbEntity
  8
Defpoints
 62
     0
100
AcDbPoint
 10
347.4205851155347
 20
194.7688173824
 30
0.0
  0
ENDBLK
  5
382
330
377
100
AcDbEntity
  8
0
100
AcDbBlockEnd
  0
BLOCK
  5
38E
330
384
100
AcDbEntity
  8
0
100
AcDbBlockBegin
  2
*D26
 70
     1
 10
0.0
 20
0.0
 30
0.0
  3
*D26
  1

  0
LINE
  5
385
330
384
100
AcDbEntity
  8
0
 62
     0
370
    -2
100
AcDbLine
 10
384.4716468460999
 20
182.0688173824
 30
0.0
 11
349.4478146812834
 21
182.0688173824
 31
0.0
  0
LINE
  5
386
330
384
100
AcDbEntity
  8
0
 62
     0
370
    -2
100
AcDbLine
 10
384.4716468460999
 20
150.3188173824
 30
0.0
 11
349.4478146812834
 21
150.3188173824
 31
0.0
  0
LINE
  5
387
330
384
100
AcDbEntity
  8
0
 62
     0
370
    -2
100
AcDbLine
 10
350.4478146812834
 20
179.0688173824
 30
0.0
 11
350.4478146812834
 21
153.3188173824
 31
0.0
  0
SOLID
  5
388
330
384
100
AcDbEntity
  8
0
 62
     0
100
AcDbTrace
 10
349.9478146812835
 20
179.0688173824
 30
0.0
 11
350.9478146812834
 21
179.0688173824
 31
0.0
 12
350.4478146812834
 22
182.0688173824
 32
0.0
 13
350.4478146812834
 23
182.0688173824
 33
0.0
  0
SOLID
  5
389
330
384
100
AcDbEntity
  8
0
 62
     0
100
AcDbTrace
 10
349.9478146812835
 20
153.3188173824
 30
0.0
 11
350.9478146812834
 21
153.3188173824
 31
0.0
 12
350.4478146812834
 22
150.3188173824
 32
0.0
 13
350.4478146812834
 23
150.3188173824
 33
0.0
  0
MTEXT
  5
38A
330
384
100
AcDbEntity
  8
0
 62
     0
100
AcDbMText
 10
347.9061480146167
 20
166.1938173824
 30
0.0
 40
3.5
 41
0.0
 71
     5
 72
     1
  1
31,75
 11
0.0000000000000001
 21
1.0
 31
0.0
 73
     1
 44
1.0
  0
POINT
  5
38B
330
384
100
AcDbEntity
  8
Defpoints
 62
     0
100
AcDbPoint
 10
385.4716468460999
 20
182.0688173824
 30
0.0
  0
POINT
  5
38C
330
384
100
AcDbEntity
  8
Defpoints
 62
     0
100
AcDbPoint
 10
385.4716468460999
 20
150.3188173824
 30
0.0
  0
POINT
  5
38D
330
384
100
AcDbEntity
  8
Defpoints
 62
     0
100
AcDbPoint
 10
350.4478146812834
 20
150.3188173824
 30
0.0
  0
ENDBLK
  5
38F
330
384
100
AcDbEntity
  8
0
100
AcDbBlockEnd
  0
BLOCK
  5
39C
330
391
100
AcDbEntity
  8
0
100
AcDbBlockBegin
  2
*D27
 70
     1
 10
0.0
 20
0.0
 30
0.0
  3
*D27
  1

  0
LINE
  5
392
330
391
100
AcDbEntity
  8
0
 62
     0
370
    -2
100
AcDbLine
 10
384.4716468460999
 20
182.0688173824
 30
0.0
 11
366.2230563704288
 21
182.0688173824
 31
0.0
  0
LINE
  5
393
330
391
100
AcDbEntity
  8
0
 62
     0
370
    -2
100
AcDbLine
 10
384.4716468460999
 20
194.7688173824
 30
0.0
 11
366.2230563704288
 21
194.7688173824
 31
0.0
  0
LINE
  5
394
330
391
100
AcDbEntity
  8
0
 62
     0
370
    -2
100
AcDbLine
 10
367.2230563704288
 20
185.0688173824
 30
0.0
 11
367.2230563704288
 21
191.7688173824
 31
0.0
  0
LINE
  5
395
330
391
100
AcDbEntity
  8
0
 62
     0
370
    -2
100
AcDbLine
 10
367.2230563704288
 20
194.7688173824
 30
0.0
 11
367.2230563704288
 21
211.6021507157333
 31
0.0
  0
SOLID
  5
396
330
391
100
AcDbEntity
  8
0
 62
     0
100
AcDbTrace
 10
366.7230563704288
 20
185.0688173824
 30
0.0
 11
367.7230563704288
 21
185.0688173824
 31
0.0
 12
367.2230563704288
 22
182.0688173824
 32
0.0
 13
367.2230563704288
 23
182.0688173824
 33
0.0
  0
SOLID
  5
397
330
391
100
AcDbEntity
  8
0
 62
     0
100
AcDbTrace
 10
366.7230563704288
 20
191.7688173824
 30
0.0
 11
367.7230563704288
 21
191.7688173824
 31
0.0
 12
367.2230563704288
 22
194.7688173824
 32
0.0
 13
367.2230563704288
 23
194.7688173824
 33
0.0
  0
MTEXT
  5
398
330
391
100
AcDbEntity
  8
0
 62
     0
100
AcDbMText
 10
364.681389703762
 20
204.6854840490667
 30
0.0
 40
3.5
 41
0.0
 71
     5
 72
     1
  1
12,70
 11
0.0000000000000001
 21
1.0
 31
0.0
 73
     1
 44
1.0
  0
POINT
  5
399
330
391
100
AcDbEntity
  8
Defpoints
 62
     0
100
AcDbPoint
 10
385.4716468460999
 20
182.0688173824
 30
0.0
  0
POINT
  5
39A
330
391
100
AcDbEntity
  8
Defpoints
 62
     0
100
AcDbPoint
 10
385.4716468460999
 20
194.7688173824
 30
0.0
  0
POINT
  5
39B
330
391
100
AcDbEntity
  8
Defpoints
 62
     0
100
AcDbPoint
 10
367.2230563704288
 20
194.7688173824
 30
0.0
  0
ENDBLK
  5
39D
330
391
100
AcDbEntity
  8
0
100
AcDbBlockEnd
  0
BLOCK
  5
3AB
330
39F
100
AcDbEntity
  8
0
100
AcDbBlockBegin
  2
*D28
 70
     1
 10
0.0
 20
0.0
 30
0.0
  3
*D28
  1

  0
LINE
  5
3A0
330
39F
100
AcDbEntity
  8
0
 62
     0
370
    -2
100
AcDbLine
 10
384.4716468460999
 20
150.3188173824
 30
0.0
 11
359.791393041145
 21
150.3188173824
 31
0.0
  0
LINE
  5
3A1
330
39F
100
AcDbEntity
  8
0
 62
     0
370
    -2
100
AcDbLine
 10
384.4716468460999
 20
144.3688173824
 30
0.0
 11
359.791393041145
 21
144.3688173824
 31
0.0
  0
LINE
  5
3A2
330
39F
100
AcDbEntity
  8
0
 62
     0
370
    -2
100
AcDbLine
 10
360.791393041145
 20
153.3188173824
 30
0.0
 11
360.791393041145
 21
156.3188173824
 31
0.0
  0
LINE
  5
3A3
330
39F
100
AcDbEntity
  8
0
 62
     0
370
    -2
100
AcDbLine
 10
360.791393041145
 20
141.3688173824
 30
0.0
 11
360.791393041145
 21
126.2854840490666
 31
0.0
  0
LINE
  5
3A4
330
39F
100
AcDbEntity
  8
0
 62
     0
370
    -2
100
AcDbLine
 10
360.791393041145
 20
150.3188173824
 30
0.0
 11
360.791393041145
 21
144.3688173824
 31
0.0
  0
SOLID
  5
3A5
330
39F
100
AcDbEntity
  8
0
 62
     0
100
AcDbTrace
 10
360.291393041145
 20
153.3188173824
 30
0.0
 11
361.291393041145
 21
153.3188173824
 31
0.0
 12
360.791393041145
 22
150.3188173824
 32
0.0
 13
360.791393041145
 23
150.3188173824
 33
0.0
  0
SOLID
  5
3A6
330
39F
100
AcDbEntity
  8
0
 62
     0
100
AcDbTrace
 10
360.291393041145
 20
141.3688173824
 30
0.0
 11
361.291393041145
 21
141.3688173824
 31
0.0
 12
360.791393041145
 22
144.3688173824
 32
0.0
 13
360.791393041145
 23
144.3688173824
 33
0.0
  0
MTEXT
  5
3A7
330
39F
100
AcDbEntity
  8
0
 62
     0
100
AcDbMText
 10
358.2497263744783
 20
132.3271507157334
 30
0.0
 40
3.5
 41
0.0
 71
     5
 72
     1
  1
5,95
 11
0.0000000000000001
 21
1.0
 31
0.0
 73
     1
 44
1.0
  0
POINT
  5
3A8
330
39F
100
AcDbEntity
  8
Defpoints
 62
     0
100
AcDbPoint
 10
385.4716468460999
 20
150.3188173824
 30
0.0
  0
POINT
  5
3A9
330
39F
100
AcDbEntity
  8
Defpoints
 62
     0
100
AcDbPoint
 10
385.4716468460999
 20
144.3688173824
 30
0.0
  0
POINT
  5
3AA
330
39F
100
AcDbEntity
  8
Defpoints
 62
     0
100
AcDbPoint
 10
360.791393041145
 20
144.3688173824
 30
0.0
  0
ENDBLK
  5
3AC
330
39F
100
AcDbEntity
  8
0
100
AcDbBlockEnd
  0
BLOCK
  5
3BA
330
3AE
100
AcDbEntity
  8
0
100
AcDbBlockBegin
  2
*D29
 70
     1
 10
0.0
 20
0.0
 30
0.0
  3
*D29
  1

  0
LINE
  5
3AF
330
3AE
100
AcDbEntity
  8
0
 62
     0
370
    -2
100
AcDbLine
 10
384.4716468460999
 20
315.4188173824
 30
0.0
 11
353.8943936532668
 21
315.4188173824
 31
0.0
  0
LINE
  5
3B0
330
3AE
100
AcDbEntity
  8
0
 62
     0
370
    -2
100
AcDbLine
 10
384.4716468460999
 20
321.3688173824
 30
0.0
 11
353.8943936532668
 21
321.3688173824
 31
0.0
  0
LINE
  5
3B1
330
3AE
100
AcDbEntity
  8
0
 62
     0
370
    -2
100
AcDbLine
 10
354.8943936532669
 20
312.4188173824
 30
0.0
 11
354.8943936532669
 21
309.4188173824
 31
0.0
  0
LINE
  5
3B2
330
3AE
100
AcDbEntity
  8
0
 62
     0
370
    -2
100
AcDbLine
 10
354.8943936532669
 20
324.3688173824001
 30
0.0
 11
354.8943936532669
 21
339.4521507157334
 31
0.0
  0
LINE
  5
3B3
330
3AE
100
AcDbEntity
  8
0
 62
     0
370
    -2
100
AcDbLine
 10
354.8943936532669
 20
315.4188173824
 30
0.0
 11
354.8943936532669
 21
321.3688173824
 31
0.0
  0
SOLID
  5
3B4
330
3AE
100
AcDbEntity
  8
0
 62
     0
100
AcDbTrace
 10
354.3943936532668
 20
312.4188173824
 30
0.0
 11
355.3943936532669
 21
312.4188173824
 31
0.0
 12
354.8943936532669
 22
315.4188173824
 32
0.0
 13
354.8943936532669
 23
315.4188173824
 33
0.0
  0
SOLID
  5
3B5
330
3AE
100
AcDbEntity
  8
0
 62
     0
100
AcDbTrace
 10
354.3943936532668
 20
324.3688173824001
 30
0.0
 11
355.3943936532669
 21
324.3688173824001
 31
0.0
 12
354.8943936532669
 22
321.3688173824
 32
0.0
 13
354.8943936532669
 23
321.3688173824
 33
0.0
  0
MTEXT
  5
3B6
330
3AE
100
AcDbEntity
  8
0
 62
     0
100
AcDbMText
 10
352.3527269866001
 20
333.4104840490668
 30
0.0
 40
3.5
 41
0.0
 71
     5
 72
     1
  1
5,95
 11
0.0000000000000001
 21
1.0
 31
0.0
 73
     1
 44
1.0
  0
POINT
  5
3B7
330
3AE
100
AcDbEntity
  8
Defpoints
 62
     0
100
AcDbPoint
 10
385.4716468460999
 20
315.4188173824
 30
0.0
  0
POINT
  5
3B8
330
3AE
100
AcDbEntity
  8
Defpoints
 62
     0
100
AcDbPoint
 10
385.4716468460999
 20
321.3688173824
 30
0.0
  0
POINT
  5
3B9
330
3AE
100
AcDbEntity
  8
Defpoints
 62
     0
100
AcDbPoint
 10
354.8943936532669
 20
321.3688173824
 30
0.0
  0
ENDBLK
  5
3BB
330
3AE
100
AcDbEntity
  8
0
100
AcDbBlockEnd
  0
BLOCK
  5
3C7
330
3BD
100
AcDbEntity
  8
0
100
AcDbBlockBegin
  2
*D30
 70
     1
 10
0.0
 20
0.0
 30
0.0
  3
*D30
  1

  0
LINE
  5
3BE
330
3BD
100
AcDbEntity
  8
0
 62
     0
370
    -2
100
AcDbLine
 10
242.2526262629999
 20
108.8194520547999
 30
0.0
 11
242.2526262629999
 21
129.62210507302
 31
0.0
  0
LINE
  5
3BF
330
3BD
100
AcDbEntity
  8
0
 62
     0
370
    -2
100
AcDbLine
 10
293.8526262629999
 20
102.7026191478871
 30
0.0
 11
293.8526262629999
 21
129.62210507302
 31
0.0
  0
LINE
  5
3C0
330
3BD
100
AcDbEntity
  8
0
 62
     0
370
    -2
100
AcDbLine
 10
245.252626263
 20
128.62210507302
 30
0.0
 11
290.8526262629999
 21
128.62210507302
 31
0.0
  0
SOLID
  5
3C1
330
3BD
100
AcDbEntity
  8
0
 62
     0
100
AcDbTrace
 10
245.252626263
 20
129.12210507302
 30
0.0
 11
245.252626263
 21
128.12210507302
 31
0.0
 12
242.2526262629999
 22
128.62210507302
 32
0.0
 13
242.2526262629999
 23
128.62210507302
 33
0.0
  0
SOLID
  5
3C2
330
3BD
100
AcDbEntity
  8
0
 62
     0
100
AcDbTrace
 10
290.8526262629999
 20
129.12210507302
 30
0.0
 11
290.8526262629999
 21
128.12210507302
 31
0.0
 12
293.8526262629999
 22
128.62210507302
 32
0.0
 13
293.8526262629999
 23
128.62210507302
 33
0.0
  0
MTEXT
  5
3C3
330
3BD
100
AcDbEntity
  8
0
 62
     0
100
AcDbMText
 10
268.0526262629999
 20
131.1637717396867
 30
0.0
 40
3.5
 41
0.0
 71
     5
 72
     1
  1
51,60
 73
     1
 44
1.0
  0
POINT
  5
3C4
330
3BD
100
AcDbEntity
  8
Defpoints
 62
     0
100
AcDbPoint
 10
242.2526262629999
 20
107.8194520547999
 30
0.0
  0
POINT
  5
3C5
330
3BD
100
AcDbEntity
  8
Defpoints
 62
     0
100
AcDbPoint
 10
293.8526262629999
 20
101.7026191478871
 30
0.0
  0
POINT
  5
3C6
330
3BD
100
AcDbEntity
  8
Defpoints
 62
     0
100
AcDbPoint
 10
293.8526262629999
 20
128.62210507302
 30
0.0
  0
ENDBLK
  5
3C8
330
3BD
100
AcDbEntity
  8
0
100
AcDbBlockEnd
  0
BLOCK
  5
3D4
330
3CA
100
AcDbEntity
  8
0
100
AcDbBlockBegin
  2
*D31
 70
     1
 10
0.0
 20
0.0
 30
0.0
  3
*D31
  1

  0
LINE
  5
3CB
330
3CA
100
AcDbEntity
  8
0
 62
     0
370
    -2
100
AcDbLine
 10
288.902626263
 20
107.8194520547999
 30
0.0
 11
349.3052705803638
 21
107.8194520547999
 31
0.0
  0
LINE
  5
3CC
330
3CA
100
AcDbEntity
  8
0
 62
     0
370
    -2
100
AcDbLine
 10
312.5526262629999
 20
51.21945205479999
 30
0.0
 11
349.3052705803638
 21
51.21945205479999
 31
0.0
  0
LINE
  5
3CD
330
3CA
100
AcDbEntity
  8
0
 62
     0
370
    -2
100
AcDbLine
 10
348.3052705803638
 20
104.8194520547999
 30
0.0
 11
348.3052705803638
 21
54.21945205479999
 31
0.0
  0
SOLID
  5
3CE
330
3CA
100
AcDbEntity
  8
0
 62
     0
100
AcDbTrace
 10
347.8052705803638
 20
104.8194520547999
 30
0.0
 11
348.8052705803638
 21
104.8194520547999
 31
0.0
 12
348.3052705803638
 22
107.8194520547999
 32
0.0
 13
348.3052705803638
 23
107.8194520547999
 33
0.0
  0
SOLID
  5
3CF
330
3CA
100
AcDbEntity
  8
0
 62
     0
100
AcDbTrace
 10
347.8052705803638
 20
54.21945205479999
 30
0.0
 11
348.8052705803638
 21
54.21945205479999
 31
0.0
 12
348.3052705803638
 22
51.21945205479999
 32
0.0
 13
348.3052705803638
 23
51.21945205479999
 33
0.0
  0
MTEXT
  5
3D0
330
3CA
100
AcDbEntity
  8
0
 62
     0
100
AcDbMText
 10
345.7636039136971
 20
79.51945205480004
 30
0.0
 40
3.5
 41
0.0
 71
     5
 72
     1
  1
56,60
 11
0.0000000000000001
 21
1.0
 31
0.0
 73
     1
 44
1.0
  0
POINT
  5
3D1
330
3CA
100
AcDbEntity
  8
Defpoints
 62
     0
100
AcDbPoint
 10
287.902626263
 20
107.8194520547999
 30
0.0
  0
POINT
  5
3D2
330
3CA
100
AcDbEntity
  8
Defpoints
 62
     0
100
AcDbPoint
 10
311.5526262629999
 20
51.21945205479999
 30
0.0
  0
POINT
  5
3D3
330
3CA
100
AcDbEntity
  8
Defpoints
 62
     0
100
AcDbPoint
 10
348.3052705803638
 20
51.21945205479999
 30
0.0
  0
ENDBLK
  5
3D5
330
3CA
100
AcDbEntity
  8
0
100
AcDbBlockEnd
  0
BLOCK
  5
3E1
330
3D7
100
AcDbEntity
  8
0
100
AcDbBlockBegin
  2
*D32
 70
     1
 10
0.0
 20
0.0
 30
0.0
  3
*D32
  1

  0
LINE
  5
3F0
330
3D7
100
AcDbEntity
  8
0
 62
     0
370
    -2
100
AcDbLine
 10
242.2526262629999
 20
105.2194520548
 30
0.0
 11
242.2526262629999
 21
22.14098497220402
 31
0.0
  0
LINE
  5
3F1
330
3D7
100
AcDbEntity
  8
0
 62
     0
370
    -2
100
AcDbLine
 10
311.5526262629999
 20
50.21945205479999
 30
0.0
 11
311.5526262629999
 21
22.14098497220402
 31
0.0
  0
LINE
  5
3F2
330
3D7
100
AcDbEntity
  8
0
 62
     0
370
    -2
100
AcDbLine
 10
245.252626263
 20
23.14098497220402
 30
0.0
 11
308.5526262629999
 21
23.14098497220402
 31
0.0
  0
SOLID
  5
3F3
330
3D7
100
AcDbEntity
  8
0
 62
     0
100
AcDbTrace
 10
245.252626263
 20
23.64098497220402
 30
0.0
 11
245.252626263
 21
22.64098497220402
 31
0.0
 12
242.2526262629999
 22
23.14098497220402
 32
0.0
 13
242.2526262629999
 23
23.14098497220402
 33
0.0
  0
SOLID
  5
3F4
330
3D7
100
AcDbEntity
  8
0
 62
     0
100
AcDbTrace
 10
308.5526262629999
 20
23.64098497220402
 30
0.0
 11
308.5526262629999
 21
22.64098497220402
 31
0.0
 12
311.5526262629999
 22
23.14098497220402
 32
0.0
 13
311.5526262629999
 23
23.14098497220402
 33
0.0
  0
MTEXT
  5
3F5
330
3D7
100
AcDbEntity
  8
0
 62
     0
100
AcDbMText
 10
276.902626263
 20
25.68265163887069
 30
0.0
 40
3.5
 41
0.0
 71
     5
 72
     1
  1
69,30
 73
     1
 44
1.0
  0
POINT
  5
3F6
330
3D7
100
AcDbEntity
  8
Defpoints
 62
     0
100
AcDbPoint
 10
242.2526262629999
 20
106.2194520548
 30
0.0
  0
POINT
  5
3F7
330
3D7
100
AcDbEntity
  8
Defpoints
 62
     0
100
AcDbPoint
 10
311.5526262629999
 20
51.21945205479999
 30
0.0
  0
POINT
  5
3F8
330
3D7
100
AcDbEntity
  8
Defpoints
 62
     0
100
AcDbPoint
 10
311.5526262629999
 20
23.14098497220402
 30
0.0
  0
ENDBLK
  5
3E2
330
3D7
100
AcDbEntity
  8
0
100
AcDbBlockEnd
  0
BLOCK
  5
3EE
330
3E4
100
AcDbEntity
  8
0
100
AcDbBlockBegin
  2
*D33
 70
     1
 10
0.0
 20
0.0
 30
0.0
  3
*D33
  1

  0
LINE
  5
40B
330
3E4
100
AcDbEntity
  8
0
 62
     0
370
    -2
100
AcDbLine
 10
292.2526262629999
 20
53.8194520548
 30
0.0
 11
292.2526262629999
 21
35.48075999377761
 31
0.0
  0
LINE
  5
40C
330
3E4
100
AcDbEntity
  8
0
 62
     0
370
    -2
100
AcDbLine
 10
311.5526262629999
 20
51.01945205479999
 30
0.0
 11
311.5526262629999
 21
35.48075999377761
 31
0.0
  0
LINE
  5
40D
330
3E4
100
AcDbEntity
  8
0
 62
     0
370
    -2
100
AcDbLine
 10
295.2526262629999
 20
36.48075999377761
 30
0.0
 11
308.5526262629999
 21
36.48075999377761
 31
0.0
  0
SOLID
  5
40E
330
3E4
100
AcDbEntity
  8
0
 62
     0
100
AcDbTrace
 10
295.2526262629999
 20
36.98075999377761
 30
0.0
 11
295.2526262629999
 21
35.98075999377761
 31
0.0
 12
292.2526262629999
 22
36.48075999377761
 32
0.0
 13
292.2526262629999
 23
36.48075999377761
 33
0.0
  0
SOLID
  5
40F
330
3E4
100
AcDbEntity
  8
0
 62
     0
100
AcDbTrace
 10
308.5526262629999
 20
36.98075999377761
 30
0.0
 11
308.5526262629999
 21
35.98075999377761
 31
0.0
 12
311.5526262629999
 22
36.48075999377761
 32
0.0
 13
311.5526262629999
 23
36.48075999377761
 33
0.0
  0
MTEXT
  5
410
330
3E4
100
AcDbEntity
  8
0
 62
     0
100
AcDbMText
 10
301.902626263
 20
39.02242666044427
 30
0.0
 40
3.5
 41
0.0
 71
     5
 72
     1
  1
19,30
 73
     1
 44
1.0
  0
POINT
  5
411
330
3E4
100
AcDbEntity
  8
Defpoints
 62
     0
100
AcDbPoint
 10
292.2526262629999
 20
54.81945205479999
 30
0.0
  0
POINT
  5
412
330
3E4
100
AcDbEntity
  8
Defpoints
 62
     0
100
AcDbPoint
 10
311.5526262629999
 20
52.0194520548
 30
0.0
  0
POINT
  5
413
330
3E4
100
AcDbEntity
  8
Defpoints
 62
     0
100
AcDbPoint
 10
311.5526262629999
 20
36.48075999377761
 30
0.0
  0
ENDBLK
  5
3EF
330
3E4
100
AcDbEntity
  8
0
100
AcDbBlockEnd
  0
BLOCK
  5
421
330
415
100
AcDbEntity
  8
0
100
AcDbBlockBegin
  2
*D34
 70
     1
 10
0.0
 20
0.0
 30
0.0
  3
*D34
  1

  0
LINE
  5
416
330
415
100
AcDbEntity
  8
0
 62
     0
370
    -2
100
AcDbLine
 10
312.5526262629999
 20
52.81945205479999
 30
0.0
 11
329.2901537587022
 21
52.81945205479999
 31
0.0
  0
LINE
  5
417
330
415
100
AcDbEntity
  8
0
 62
     0
370
    -2
100
AcDbLine
 10
312.5526262629999
 20
51.21945205479999
 30
0.0
 11
329.2901537587022
 21
51.21945205479999
 31
0.0
  0
LINE
  5
418
330
415
100
AcDbEntity
  8
0
 62
     0
370
    -2
100
AcDbLine
 10
328.2901537587022
 20
55.8194520548
 30
0.0
 11
328.2901537587022
 21
58.8194520548
 31
0.0
  0
LINE
  5
419
330
415
100
AcDbEntity
  8
0
 62
     0
370
    -2
100
AcDbLine
 10
328.2901537587022
 20
48.21945205479999
 30
0.0
 11
328.2901537587022
 21
34.88611872146666
 31
0.0
  0
LINE
  5
41A
330
415
100
AcDbEntity
  8
0
 62
     0
370
    -2
100
AcDbLine
 10
328.2901537587022
 20
52.81945205479999
 30
0.0
 11
328.2901537587022
 21
51.21945205479999
 31
0.0
  0
SOLID
  5
41B
330
415
100
AcDbEntity
  8
0
 62
     0
100
AcDbTrace
 10
327.7901537587022
 20
55.8194520548
 30
0.0
 11
328.7901537587022
 21
55.8194520548
 31
0.0
 12
328.2901537587022
 22
52.81945205479999
 32
0.0
 13
328.2901537587022
 23
52.81945205479999
 33
0.0
  0
SOLID
  5
41C
330
415
100
AcDbEntity
  8
0
 62
     0
100
AcDbTrace
 10
327.7901537587022
 20
48.21945205479999
 30
0.0
 11
328.7901537587022
 21
48.21945205479999
 31
0.0
 12
328.2901537587022
 22
51.21945205479999
 32
0.0
 13
328.2901537587022
 23
51.21945205479999
 33
0.0
  0
MTEXT
  5
41D
330
415
100
AcDbEntity
  8
0
 62
     0
100
AcDbMText
 10
325.7484870920355
 20
40.05278538813338
 30
0.0
 40
3.5
 41
0.0
 71
     5
 72
     1
  1
1,60
 11
0.0000000000000001
 21
1.0
 31
0.0
 73
     1
 44
1.0
  0
POINT
  5
41E
330
415
100
AcDbEntity
  8
Defpoints
 62
     0
100
AcDbPoint
 10
311.5526262629999
 20
52.81945205479999
 30
0.0
  0
POINT
  5
41F
330
415
100
AcDbEntity
  8
Defpoints
 62
     0
100
AcDbPoint
 10
311.5526262629999
 20
51.21945205479999
 30
0.0
  0
POINT
  5
420
330
415
100
AcDbEntity
  8
Defpoints
 62
     0
100
AcDbPoint
 10
328.2901537587022
 20
51.21945205479999
 30
0.0
  0
ENDBLK
  5
422
330
415
100
AcDbEntity
  8
0
100
AcDbBlockEnd
  0
ENDSEC
  0
SECTION
  2
ENTITIES
  0
LINE
  5
41
330
1F
100
AcDbEntity
  8
0
  6
Continuous
 62
     7
370
    40
100
AcDbLine
 10
25.07884356539999
 20
10.2147801566
 30
0.0
 11
25.07884356539999
 21
410.2147801566
 31
0.0
  0
LINE
  5
42
330
1F
100
AcDbEntity
  8
0
  6
Continuous
 62
     7
370
    40
100
AcDbLine
 10
0.0788435654
 20
0.2147801566
 30
0.0
 11
594.0788435654
 21
0.2147801566
 31
0.0
  0
LINE
  5
43
330
1F
100
AcDbEntity
  8
0
  6
Continuous
 62
     7
370
    40
100
AcDbLine
 10
0.0788435654
 20
0.2147801566
 30
0.0
 11
0.0788435654
 21
420.2147801566
 31
0.0
  0
LINE
  5
44
330
1F
100
AcDbEntity
  8
0
  6
Continuous
 62
     7
370
    40
100
AcDbLine
 10
0.0788435654
 20
420.2147801566
 30
0.0
 11
594.0788435654
 21
420.2147801566
 31
0.0
  0
LINE
  5
45
330
1F
100
AcDbEntity
  8
0
  6
Continuous
 62
     7
370
    40
100
AcDbLine
 10
594.0788435654
 20
0.2147801566
 30
0.0
 11
594.0788435654
 21
420.2147801566
 31
0.0
  0
LINE
  5
46
330
1F
100
AcDbEntity
  8
0
  6
Continuous
 62
     7
370
    40
100
AcDbLine
 10
25.07884356539999
 20
410.2147801566
 30
0.0
 11
584.0788435653999
 21
410.2147801566
 31
0.0
  0
LINE
  5
47
330
1F
100
AcDbEntity
  8
0
  6
Continuous
 62
     7
370
    40
100
AcDbLine
 10
25.07884356539999
 20
10.2147801566
 30
0.0
 11
584.0788435653999
 21
10.2147801566
 31
0.0
  0
LINE
  5
48
330
1F
100
AcDbEntity
  8
0
  6
Continuous
 62
     7
370
    40
100
AcDbLine
 10
584.0788435653999
 20
410.2147801566
 30
0.0
 11
584.0788435653999
 21
10.2147801566
 31
0.0
  0
LINE
  5
49
330
1F
100
AcDbEntity
  8
0
  6
Continuous
 62
     7
370
    40
100
AcDbLine
 10
396.8788435654
 20
14.4647801566
 30
0.0
 11
584.0788435653999
 21
14.4647801566
 31
0.0
  0
LINE
  5
4A
330
1F
100
AcDbEntity
  8
0
  6
Continuous
 62
     7
370
    40
100
AcDbLine
 10
584.0788435653999
 20
48.4647801566
 30
0.0
 11
396.8788435654
 21
48.4647801566
 31
0.0
  0
LINE
  5
4B
330
1F
100
AcDbEntity
  8
0
  6
Continuous
 62
     7
370
    40
100
AcDbLine
 10
396.8788435654
 20
65.46478015659999
 30
0.0
 11
584.0788435653999
 21
65.46478015659999
 31
0.0
  0
LINE
  5
4C
330
1F
100
AcDbEntity
  8
0
  6
Continuous
 62
     7
370
    40
100
AcDbLine
 10
423.8697959991
 20
48.4647801566
 30
0.0
 11
423.8697959991
 21
10.2147801566
 31
0.0
  0
LINE
  5
4D
330
1F
100
AcDbEntity
  8
0
  6
Continuous
 62
     7
370
    40
100
AcDbLine
 10
495.6788435654
 20
31.4647801566
 30
0.0
 11
396.8788435654
 21
31.4647801566
 31
0.0
  0
LINE
  5
4E
330
1F
100
AcDbEntity
  8
0
  6
Continuous
 62
     7
370
    40
100
AcDbLine
 10
495.6788435654
 20
35.7147801566
 30
0.0
 11
396.8788435654
 21
35.7147801566
 31
0.0
  0
LINE
  5
4F
330
1F
100
AcDbEntity
  8
0
  6
Continuous
 62
     7
370
    40
100
AcDbLine
 10
495.6788435654
 20
39.9647801566
 30
0.0
 11
396.8788435654
 21
39.9647801566
 31
0.0
  0
LINE
  5
50
330
1F
100
AcDbEntity
  8
0
  6
Continuous
 62
     7
370
    40
100
AcDbLine
 10
495.6788435654
 20
44.21478015659999
 30
0.0
 11
396.8788435654
 21
44.21478015659999
 31
0.0
  0
LINE
  5
51
330
1F
100
AcDbEntity
  8
0
  6
Continuous
 62
     7
370
    40
100
AcDbLine
 10
451.4788435654
 20
10.2147801566
 30
0.0
 11
451.4788435654
 21
48.4647801566
 31
0.0
  0
LINE
  5
52
330
1F
100
AcDbEntity
  8
0
  6
Continuous
 62
     7
370
    40
100
AcDbLine
 10
396.8788435654
 20
65.46478015659999
 30
0.0
 11
396.8788435654
 21
10.2147801566
 31
0.0
  0
LINE
  5
53
330
1F
100
AcDbEntity
  8
0
  6
Continuous
 62
     7
370
    40
100
AcDbLine
 10
404.6788435654
 20
48.4647801566
 30
0.0
 11
404.6788435654
 21
10.2147801566
 31
0.0
  0
LINE
  5
54
330
1F
100
AcDbEntity
  8
0
  6
Continuous
 62
     7
370
    40
100
AcDbLine
 10
430.6788435654
 20
48.4647801566
 30
0.0
 11
430.6788435654
 21
65.46478015659999
 31
0.0
  0
LINE
  5
55
330
1F
100
AcDbEntity
  8
0
  6
Continuous
 62
     7
370
    40
100
AcDbLine
 10
441.2777697289
 20
48.4647801566
 30
0.0
 11
441.2777697289
 21
10.2147801566
 31
0.0
  0
LINE
  5
56
330
1F
100
AcDbEntity
  8
0
  6
Continuous
 62
     7
370
    40
100
AcDbLine
 10
461.8788435654
 20
31.4647801566
 30
0.0
 11
461.8788435654
 21
48.4647801566
 31
0.0
  0
LINE
  5
57
330
1F
100
AcDbEntity
  8
0
  6
Continuous
 62
     7
370
    40
100
AcDbLine
 10
451.4788435654
 20
18.7147801566
 30
0.0
 11
396.8788435654
 21
18.7147801566
 31
0.0
  0
LINE
  5
58
330
1F
100
AcDbEntity
  8
0
  6
Continuous
 62
     7
370
    40
100
AcDbLine
 10
477.4788435654
 20
65.46478015659999
 30
0.0
 11
477.4788435654
 21
27.2147801566
 31
0.0
  0
LINE
  5
59
330
1F
100
AcDbEntity
  8
0
  6
Continuous
 62
     7
370
    40
100
AcDbLine
 10
451.4788435654
 20
22.96470815659999
 30
0.0
 11
396.8788435654
 21
22.96470815659999
 31
0.0
  0
LINE
  5
5A
330
1F
100
AcDbEntity
  8
0
  6
Continuous
 62
     7
370
    40
100
AcDbLine
 10
451.4788435654
 20
27.2147801566
 30
0.0
 11
396.8788435654
 21
27.2147801566
 31
0.0
  0
LINE
  5
5B
330
1F
100
AcDbEntity
  8
0
  6
Continuous
 62
     7
370
    40
100
AcDbLine
 10
451.4788435654
 20
27.2147801566
 30
0.0
 11
584.0788435653999
 21
27.2147801566
 31
0.0
  0
LINE
  5
5C
330
1F
100
AcDbEntity
  8
0
  6
Continuous
 62
     7
370
    40
100
AcDbLine
 10
495.6788435654
 20
65.46478015659999
 30
0.0
 11
495.6788435654
 21
10.2147801566
 31
0.0
  0
LINE
  5
5D
330
1F
100
AcDbEntity
  8
0
  6
Continuous
 62
     7
370
    40
100
AcDbLine
 10
539.8788435653999
 20
10.2147801566
 30
0.0
 11
539.8788435653999
 21
14.4647801566
 31
0.0
  0
LINE
  5
5E
330
1F
100
AcDbEntity
  8
0
  6
Continuous
 62
     7
370
    40
100
AcDbLine
 10
547.6788435653999
 20
59.0897801566
 30
0.0
 11
547.6788435653999
 21
65.46478015659999
 31
0.0
  0
LINE
  5
5F
330
1F
100
AcDbEntity
  8
0
  6
Continuous
 62
     7
370
    40
100
AcDbLine
 10
571.0788435653999
 20
14.4647801566
 30
0.0
 11
571.0788435653999
 21
27.2147801566
 31
0.0
  0
LINE
  5
60
330
1F
100
AcDbEntity
  8
0
  6
Continuous
 62
     7
370
    40
100
AcDbLine
 10
584.0788435653999
 20
59.0897801566
 30
0.0
 11
495.6788435654
 21
59.0897801566
 31
0.0
  0
LINE
  5
61
330
1F
100
AcDbEntity
  8
0
  6
Continuous
 62
     7
370
    40
100
AcDbLine
 10
584.0788435653999
 20
18.7147801566
 30
0.0
 11
571.0788435653999
 21
18.7147801566
 31
0.0
  0
MTEXT
  5
85
330
1F
100
AcDbEntity
  8
0
  6
Continuous
 62
     7
370
     0
100
AcDbMText
 10
523.9017599644999
 20
24.8465185664
 30
0.0
 40
6.349999999999999
 41
0.0
 71
     1
 72
     1
  1
RMU
  7
SLDTEXTSTYLE0
 73
     1
 44
1.0
  0
MTEXT
  5
86
330
1F
100
AcDbEntity
  8
0
  6
Continuous
 62
     7
370
     0
100
AcDbMText
 10
452.4966546934999
 20
13.1640920602
 30
0.0
 40
1.498599999999999
 41
0.0
 71
     1
 72
     1
  1
WEIGHT: 
  7
SLDTEXTSTYLE0
 73
     1
 44
1.0
  0
MTEXT
  5
87
330
1F
100
AcDbEntity
  8
0
  6
Continuous
 62
     7
370
     0
100
AcDbMText
 10
574.9998284117
 20
24.5152246678
 30
0.0
 40
2.9104166667
 41
0.0
 71
     1
 72
     1
  1
A2
  7
SLDTEXTSTYLE0
 73
     1
 44
1.0
  0
MTEXT
  5
89
330
1F
100
AcDbEntity
  8
0
  6
Continuous
 62
     7
370
     0
100
AcDbMText
 10
541.3571379932
 20
13.11486743119999
 30
0.0
 40
1.5
 41
0.0
 71
     1
 72
     1
  1
SHEET 1 OF 1
  7
SLDTEXTSTYLE1
 73
     1
 44
1.0
  0
MTEXT
  5
8A
330
1F
100
AcDbEntity
  8
0
  6
Continuous
 62
     7
370
     0
100
AcDbMText
 10
496.9528096827999
 20
13.11486743119999
 30
0.0
 40
1.5
 41
0.0
 71
     1
 72
     1
  1
SCALE:1:2
  7
SLDTEXTSTYLE0
 73
     1
 44
1.0
  0
MTEXT
  5
8B
330
1F
100
AcDbEntity
  8
0
  6
Continuous
 62
     7
370
     0
100
AcDbMText
 10
496.9528096827999
 20
25.0834179837
 30
0.0
 40
1.5
 41
0.0
 71
     1
 72
     1
  1
DWG NO.
  7
SLDTEXTSTYLE0
 73
     1
 44
1.0
  0
MTEXT
  5
8C
330
1F
100
AcDbEntity
  8
0
  6
Continuous
 62
     7
370
     0
100
AcDbMText
 10
496.835030502
 20
46.4931144426
 30
0.0
 40
1.5
 41
0.0
 71
     1
 72
     1
  1
TITLE:
  7
SLDTEXTSTYLE0
 73
     1
 44
1.0
  0
MTEXT
  5
8D
330
1F
100
AcDbEntity
  8
0
  6
Continuous
 62
     7
370
     0
100
AcDbMText
 10
550.2064252647
 20
62.5496888371
 30
0.0
 40
1.5
 41
0.0
 71
     1
 72
     1
  1
REVISION
  7
SLDTEXTSTYLE0
 73
     1
 44
1.0
  0
MTEXT
  5
8E
330
1F
100
AcDbEntity
  8
0
  6
Continuous
 62
     7
370
     0
100
AcDbMText
 10
509.4934840881999
 20
62.7477737317
 30
0.0
 40
1.5
 41
0.0
 71
     1
 72
     1
  1
DO NOT SCALE DRAWING
  7
SLDTEXTSTYLE0
 73
     1
 44
1.0
  0
MTEXT
  5
8F
330
1F
100
AcDbEntity
  8
0
  6
Continuous
 62
     7
370
     0
100
AcDbMText
 10
452.5247058741
 20
26.2008364459
 30
0.0
 40
1.5
 41
0.0
 71
     1
 72
     1
  1
MATERIAL:
  7
SLDTEXTSTYLE0
 73
     1
 44
1.0
  0
MTEXT
  5
90
330
1F
100
AcDbEntity
  8
0
  6
Continuous
 62
     7
370
     0
100
AcDbMText
 10
444.0935455311
 20
46.7909593779
 30
0.0
 40
1.5
 41
0.0
 71
     1
 72
     1
  1
DATE
  7
SLDTEXTSTYLE0
 73
     1
 44
1.0
  0
MTEXT
  5
91
330
1F
100
AcDbEntity
  8
0
  6
Continuous
 62
     7
370
     0
100
AcDbMText
 10
426.9124311285
 20
46.7765365362
 30
0.0
 40
1.5
 41
0.0
 71
     1
 72
     1
  1
SIGNATURE
  7
SLDTEXTSTYLE0
 73
     1
 44
1.0
  0
MTEXT
  5
92
330
1F
100
AcDbEntity
  8
0
  6
Continuous
 62
     7
370
     0
100
AcDbMText
 10
411.2010827829999
 20
46.7162627901
 30
0.0
 40
1.5
 41
0.0
 71
     1
 72
     1
  1
NAME
  7
SLDTEXTSTYLE0
 73
     1
 44
1.0
  0
INSERT
  5
99
330
1F
100
AcDbEntity
  8
0
  6
Continuous
 62
     7
370
     0
100
AcDbBlockReference
  2
SW_NOTE_0
 10
478.1880592515999
 20
62.2842697997
 30
0.0
  0
MTEXT
  5
9A
330
1F
100
AcDbEntity
  8
0
  6
Continuous
 62
     7
370
     0
100
AcDbMText
 10
431.2501357322
 20
64.1340521518
 30
0.0
 40
1.5
 41
0.0
 71
     1
 72
     1
  1
FINISH:
  7
SLDTEXTSTYLE0
 73
     1
 44
1.0
  0
INSERT
  5
A4
330
1F
100
AcDbEntity
  8
0
  6
Continuous
 62
     7
370
     0
100
AcDbBlockReference
  2
SW_NOTE_1
 10
397.472512311
 20
62.2021500309
 30
0.0
  0
MTEXT
  5
A5
330
1F
100
AcDbEntity
  8
0
  6
Continuous
 62
     7
370
     0
100
AcDbMText
 10
397.5478864274999
 20
25.5644293639
 30
0.0
 40
1.5
 41
0.0
 71
     1
 72
     1
  1
Q.A
  7
SLDTEXTSTYLE0
 73
     1
 44
1.0
  0
MTEXT
  5
A6
330
1F
100
AcDbEntity
  8
0
  6
Continuous
 62
     7
370
     0
100
AcDbMText
 10
397.3340300644
 20
29.94848480719999
 30
0.0
 40
1.5
 41
0.0
 71
     1
 72
     1
  1
MFG
  7
SLDTEXTSTYLE0
 73
     1
 44
1.0
  0
MTEXT
  5
A7
330
1F
100
AcDbEntity
  8
0
  6
Continuous
 62
     7
370
     0
100
AcDbMText
 10
397.2805659737
 20
34.2790761598
 30
0.0
 40
1.5
 41
0.0
 71
     1
 72
     1
  1
APPV'D
  7
SLDTEXTSTYLE0
 73
     1
 44
1.0
  0
MTEXT
  5
A8
330
1F
100
AcDbEntity
  8
0
  6
Continuous
 62
     7
370
     0
100
AcDbMText
 10
397.2893124329999
 20
38.36918731659999
 30
0.0
 40
1.5
 41
0.0
 71
     1
 72
     1
  1
CHK'D
  7
SLDTEXTSTYLE0
 73
     1
 44
1.0
  0
MTEXT
  5
A9
330
1F
100
AcDbEntity
  8
0
  6
Continuous
 62
     7
370
     0
100
AcDbMText
 10
397.0909928094
 20
42.64449504259999
 30
0.0
 40
1.5
 41
0.0
 71
     1
 72
     1
  1
DRAWN
  7
SLDTEXTSTYLE0
 73
     1
 44
1.0
  0
LINE
  5
AA
330
1F
100
AcDbEntity
  8
0
  6
Continuous
 62
     7
370
    15
100
AcDbLine
 10
301.5526262629999
 20
213.7002690029
 30
0.0
 11
304.5526262629999
 21
213.7002690029
 31
0.0
  0
ARC
  5
AB
330
1F
100
AcDbEntity
  8
0
  6
Continuous
 62
     7
370
    15
100
AcDbCircle
 10
304.5526262629999
 20
217.2002690029
 30
0.0
 40
3.5
100
AcDbArc
 50
270.0
 51
90.0
  0
LINE
  5
AC
330
1F
100
AcDbEntity
  8
0
  6
Continuous
 62
     7
370
    15
100
AcDbLine
 10
304.5526262629999
 20
220.7002690028999
 30
0.0
 11
301.5526262629999
 21
220.7002690028999
 31
0.0
  0
ARC
  5
AD
330
1F
100
AcDbEntity
  8
0
  6
Continuous
 62
     7
370
    15
100
AcDbCircle
 10
301.5526262629999
 20
217.2002690029
 30
0.0
 40
3.499999999999971
100
AcDbArc
 50
90.0
 51
270.0
  0
LINE
  5
AE
330
1F
100
AcDbEntity
  8
0
  6
Continuous
 62
     7
370
    15
100
AcDbLine
 10
301.5526262629999
 20
258.1502690029
 30
0.0
 11
304.5526262629999
 21
258.1502690029
 31
0.0
  0
ARC
  5
AF
330
1F
100
AcDbEntity
  8
0
  6
Continuous
 62
     7
370
    15
100
AcDbCircle
 10
304.5526262629999
 20
261.6502690029
 30
0.0
 40
3.5
100
AcDbArc
 50
270.0
 51
90.0
  0
LINE
  5
B0
330
1F
100
AcDbEntity
  8
0
  6
Continuous
 62
     7
370
    15
100
AcDbLine
 10
304.5526262629999
 20
265.1502690029
 30
0.0
 11
301.5526262629999
 21
265.1502690029
 31
0.0
  0
ARC
  5
B1
330
1F
100
AcDbEntity
  8
0
  6
Continuous
 62
     7
370
    15
100
AcDbCircle
 10
301.5526262629999
 20
261.6502690029
 30
0.0
 40
3.5
100
AcDbArc
 50
90.0
 51
270.0
  0
LINE
  5
B2
330
1F
100
AcDbEntity
  8
0
  6
Continuous
 62
     7
370
    15
100
AcDbLine
 10
301.5526262629999
 20
181.9502690029
 30
0.0
 11
304.5526262629999
 21
181.9502690029
 31
0.0
  0
ARC
  5
B3
330
1F
100
AcDbEntity
  8
0
  6
Continuous
 62
     7
370
    15
100
AcDbCircle
 10
304.5526262629999
 20
185.4502690029
 30
0.0
 40
3.5
100
AcDbArc
 50
270.0
 51
90.0
  0
LINE
  5
B4
330
1F
100
AcDbEntity
  8
0
  6
Continuous
 62
     7
370
    15
100
AcDbLine
 10
304.5526262629999
 20
188.9502690028999
 30
0.0
 11
301.5526262629999
 21
188.9502690028999
 31
0.0
  0
ARC
  5
B5
330
1F
100
AcDbEntity
  8
0
  6
Continuous
 62
     7
370
    15
100
AcDbCircle
 10
301.5526262629999
 20
185.4502690029
 30
0.0
 40
3.5
100
AcDbArc
 50
90.0
 51
270.0
  0
LINE
  5
B6
330
1F
100
AcDbEntity
  8
0
  6
Continuous
 62
     7
370
    15
100
AcDbLine
 10
301.5526262629999
 20
226.4002690029
 30
0.0
 11
304.5526262629999
 21
226.4002690029
 31
0.0
  0
ARC
  5
B7
330
1F
100
AcDbEntity
  8
0
  6
Continuous
 62
     7
370
    15
100
AcDbCircle
 10
304.5526262629999
 20
229.9002690029
 30
0.0
 40
3.5
100
AcDbArc
 50
270.0
 51
90.0
  0
LINE
  5
B8
330
1F
100
AcDbEntity
  8
0
  6
Continuous
 62
     7
370
    15
100
AcDbLine
 10
304.5526262629999
 20
233.4002690029
 30
0.0
 11
301.5526262629999
 21
233.4002690029
 31
0.0
  0
ARC
  5
B9
330
1F
100
AcDbEntity
  8
0
  6
Continuous
 62
     7
370
    15
100
AcDbCircle
 10
301.5526262629999
 20
229.9002690029
 30
0.0
 40
3.5
100
AcDbArc
 50
90.0
 51
270.0
  0
LINE
  5
BA
330
1F
100
AcDbEntity
  8
0
  6
Continuous
 62
     7
370
    15
100
AcDbLine
 10
295.852626263
 20
179.5002690029
 30
0.0
 11
311.5526262629999
 21
179.5002690029
 31
0.0
  0
LINE
  5
BB
330
1F
100
AcDbEntity
  8
0
  6
Continuous
 62
     7
370
    15
100
AcDbLine
 10
295.852626263
 20
356.5002690028999
 30
0.0
 11
295.852626263
 21
179.5002690029
 31
0.0
  0
ARC
  5
BC
330
1F
100
AcDbEntity
  8
0
  6
Continuous
 62
     7
370
    15
100
AcDbCircle
 10
304.5526262629999
 20
350.5502690029
 30
0.0
 40
3.5
100
AcDbArc
 50
270.0
 51
90.0
  0
LINE
  5
BD
330
1F
100
AcDbEntity
  8
0
  6
Continuous
 62
     7
370
    15
100
AcDbLine
 10
304.5526262629999
 20
354.0502690029
 30
0.0
 11
301.5526262629999
 21
354.0502690029
 31
0.0
  0
ARC
  5
BE
330
1F
100
AcDbEntity
  8
0
  6
Continuous
 62
     7
370
    15
100
AcDbCircle
 10
301.5526262629999
 20
350.5502690029
 30
0.0
 40
3.5
100
AcDbArc
 50
90.0
 51
270.0
  0
LINE
  5
BF
330
1F
100
AcDbEntity
  8
0
  6
Continuous
 62
     7
370
    15
100
AcDbLine
 10
301.5526262629999
 20
347.0502690028999
 30
0.0
 11
304.5526262629999
 21
347.0502690028999
 31
0.0
  0
ARC
  5
C0
330
1F
100
AcDbEntity
  8
0
  6
Continuous
 62
     7
370
    15
100
AcDbCircle
 10
304.5526262629999
 20
318.8002690029
 30
0.0
 40
3.5
100
AcDbArc
 50
270.0
 51
90.0
  0
LINE
  5
C1
330
1F
100
AcDbEntity
  8
0
  6
Continuous
 62
     7
370
    15
100
AcDbLine
 10
304.5526262629999
 20
322.3002690028999
 30
0.0
 11
301.5526262629999
 21
322.3002690028999
 31
0.0
  0
ARC
  5
C2
330
1F
100
AcDbEntity
  8
0
  6
Continuous
 62
     7
370
    15
100
AcDbCircle
 10
301.5526262629999
 20
318.8002690029
 30
0.0
 40
3.500000000000056
100
AcDbArc
 50
90.0
 51
270.0
  0
LINE
  5
C3
330
1F
100
AcDbEntity
  8
0
  6
Continuous
 62
     7
370
    15
100
AcDbLine
 10
301.5526262629999
 20
315.3002690029
 30
0.0
 11
304.5526262629999
 21
315.3002690029
 31
0.0
  0
ARC
  5
C4
330
1F
100
AcDbEntity
  8
0
  6
Continuous
 62
     7
370
    15
100
AcDbCircle
 10
304.5526262629999
 20
274.3502690029
 30
0.0
 40
3.5
100
AcDbArc
 50
270.0
 51
90.0
  0
LINE
  5
C5
330
1F
100
AcDbEntity
  8
0
  6
Continuous
 62
     7
370
    15
100
AcDbLine
 10
304.5526262629999
 20
277.8502690029
 30
0.0
 11
301.5526262629999
 21
277.8502690029
 31
0.0
  0
ARC
  5
C6
330
1F
100
AcDbEntity
  8
0
  6
Continuous
 62
     7
370
    15
100
AcDbCircle
 10
301.5526262629999
 20
274.3502690029
 30
0.0
 40
3.5
100
AcDbArc
 50
90.0
 51
270.0
  0
LINE
  5
C7
330
1F
100
AcDbEntity
  8
0
  6
Continuous
 62
     7
370
    15
100
AcDbLine
 10
301.5526262629999
 20
270.8502690028999
 30
0.0
 11
304.5526262629999
 21
270.8502690028999
 31
0.0
  0
ARC
  5
C8
330
1F
100
AcDbEntity
  8
0
  6
Continuous
 62
     7
370
    15
100
AcDbCircle
 10
304.5526262629999
 20
306.1002690028999
 30
0.0
 40
3.5
100
AcDbArc
 50
270.0
 51
90.0
  0
LINE
  5
C9
330
1F
100
AcDbEntity
  8
0
  6
Continuous
 62
     7
370
    15
100
AcDbLine
 10
304.5526262629999
 20
309.6002690029
 30
0.0
 11
301.5526262629999
 21
309.6002690029
 31
0.0
  0
ARC
  5
CA
330
1F
100
AcDbEntity
  8
0
  6
Continuous
 62
     7
370
    15
100
AcDbCircle
 10
301.5526262629999
 20
306.1002690028999
 30
0.0
 40
3.5
100
AcDbArc
 50
90.0
 51
270.0
  0
LINE
  5
CB
330
1F
100
AcDbEntity
  8
0
  6
Continuous
 62
     7
370
    15
100
AcDbLine
 10
301.5526262629999
 20
302.6002690029
 30
0.0
 11
304.5526262629999
 21
302.6002690029
 31
0.0
  0
LINE
  5
CC
330
1F
100
AcDbEntity
  8
0
  6
Continuous
 62
     7
370
    15
100
AcDbLine
 10
311.5526262629999
 20
356.5002690028999
 30
0.0
 11
311.5526262629999
 21
179.5002690029
 31
0.0
  0
LINE
  5
CD
330
1F
100
AcDbEntity
  8
0
  6
Continuous
 62
     7
370
    15
100
AcDbLine
 10
311.5526262629999
 20
356.5002690028999
 30
0.0
 11
295.852626263
 21
356.5002690028999
 31
0.0
  0
LINE
  5
CE
330
1F
100
AcDbEntity
  8
0
  6
Continuous
 62
     7
370
    15
100
AcDbLine
 10
292.2526262629999
 20
179.5002690029
 30
0.0
 11
295.852626263
 21
179.5002690029
 31
0.0
  0
LINE
  5
CF
330
1F
100
AcDbEntity
  8
0
  6
Continuous
 62
     7
370
    15
100
AcDbLine
 10
292.2526262629999
 20
356.5002690028999
 30
0.0
 11
292.2526262629999
 21
179.5002690029
 31
0.0
  0
LINE
  5
D0
330
1F
100
AcDbEntity
  8
0
  6
Continuous
 62
     7
370
    15
100
AcDbLine
 10
295.852626263
 20
356.5002690028999
 30
0.0
 11
292.2526262629999
 21
356.5002690028999
 31
0.0
  0
LINE
  5
D1
330
1F
100
AcDbEntity
  8
0
  6
Continuous
 62
     7
370
    15
100
AcDbLine
 10
292.2526262629999
 20
376.5002690029
 30
0.0
 11
293.8526262629999
 21
376.5002690029
 31
0.0
  0
LINE
  5
D2
330
1F
100
AcDbEntity
  8
0
  6
Continuous
 62
     7
370
    15
100
AcDbLine
 10
292.2526262629999
 20
356.5002690028999
 30
0.0
 11
292.2526262629999
 21
376.5002690029
 31
0.0
  0
LINE
  5
D3
330
1F
100
AcDbEntity
  8
0
  6
Continuous
 62
     7
370
    15
100
AcDbLine
 10
293.8526262629999
 20
356.5002690028999
 30
0.0
 11
293.8526262629999
 21
376.5002690029
 31
0.0
  0
LINE
  5
D4
330
1F
100
AcDbEntity
  8
0
  6
Continuous
 62
     7
370
    15
100
AcDbLine
 10
292.2526262629999
 20
159.5002690029
 30
0.0
 11
293.8526262629999
 21
159.5002690029
 31
0.0
  0
LINE
  5
D5
330
1F
100
AcDbEntity
  8
0
  6
Continuous
 62
     7
370
    15
100
AcDbLine
 10
292.2526262629999
 20
159.5002690029
 30
0.0
 11
292.2526262629999
 21
179.5002690029
 31
0.0
  0
LINE
  5
D6
330
1F
100
AcDbEntity
  8
0
  6
Continuous
 62
     7
370
    15
100
AcDbLine
 10
293.8526262629999
 20
159.5002690029
 30
0.0
 11
293.8526262629999
 21
179.5002690029
 31
0.0
  0
LINE
  5
D7
330
1F
100
AcDbEntity
  8
0
  6
Continuous
 62
     7
370
    15
100
AcDbLine
 10
290.2526262629999
 20
376.5002690029
 30
0.0
 11
290.2526262629999
 21
159.5002690029
 31
0.0
  0
LINE
  5
D8
330
1F
100
AcDbEntity
  8
0
  6
Continuous
 62
     7
370
    15
100
AcDbLine
 10
290.2526262629999
 20
159.5002690029
 30
0.0
 11
292.2526262629999
 21
159.5002690029
 31
0.0
  0
LINE
  5
D9
330
1F
100
AcDbEntity
  8
0
  6
Continuous
 62
     7
370
    15
100
AcDbLine
 10
290.2526262629999
 20
376.5002690029
 30
0.0
 11
292.2526262629999
 21
376.5002690029
 31
0.0
  0
LINE
  5
DA
330
1F
100
AcDbEntity
  8
0
  6
Continuous
 62
     7
370
    15
100
AcDbLine
 10
244.2526262629999
 20
376.5002690029
 30
0.0
 11
242.2526262629999
 21
374.5002690029
 31
0.0
  0
LINE
  5
DB
330
1F
100
AcDbEntity
  8
0
  6
Continuous
 62
     7
370
    15
100
AcDbLine
 10
244.2526262629999
 20
376.5002690029
 30
0.0
 11
290.2526262629999
 21
376.5002690029
 31
0.0
  0
LINE
  5
DC
330
1F
100
AcDbEntity
  8
0
  6
Continuous
 62
     7
370
    15
100
AcDbLine
 10
244.2526262629999
 20
159.5002690029
 30
0.0
 11
290.2526262629999
 21
159.5002690029
 31
0.0
  0
LINE
  5
DD
330
1F
100
AcDbEntity
  8
0
  6
Continuous
 62
     7
370
    15
100
AcDbLine
 10
242.2526262629999
 20
161.5002690029
 30
0.0
 11
244.2526262629999
 21
159.5002690029
 31
0.0
  0
LINE
  5
DE
330
1F
100
AcDbEntity
  8
0
  6
Continuous
 62
     7
370
    15
100
AcDbLine
 10
242.2526262629999
 20
374.5002690029
 30
0.0
 11
242.2526262629999
 21
161.5002690029
 31
0.0
  0
CIRCLE
  5
DF
330
1F
100
AcDbEntity
  8
0
  6
Continuous
 62
     7
370
    15
100
AcDbCircle
 10
282.2526262629999
 20
343.0002690028999
 30
0.0
 40
1.75
  0
CIRCLE
  5
E0
330
1F
100
AcDbEntity
  8
0
  6
Continuous
 62
     7
370
    15
100
AcDbCircle
 10
252.252626263
 20
343.0002690028999
 30
0.0
 40
1.749999999999972
  0
CIRCLE
  5
E1
330
1F
100
AcDbEntity
  8
0
  6
Continuous
 62
     7
370
    15
100
AcDbCircle
 10
282.2526262629999
 20
193.0002690029
 30
0.0
 40
1.75
  0
CIRCLE
  5
E2
330
1F
100
AcDbEntity
  8
0
  6
Continuous
 62
     7
370
    15
100
AcDbCircle
 10
252.252626263
 20
193.0002690029
 30
0.0
 40
1.750000000000027
  0
CIRCLE
  5
E3
330
1F
100
AcDbEntity
  8
0
  6
Continuous
 62
     7
370
    15
100
AcDbCircle
 10
267.2526262629999
 20
298.0002690028999
 30
0.0
 40
1.749999999999943
  0
CIRCLE
  5
E4
330
1F
100
AcDbEntity
  8
0
  6
Continuous
 62
     7
370
    15
100
AcDbCircle
 10
267.2526262629999
 20
238.0002690029
 30
0.0
 40
1.75
  0
CIRCLE
  5
E5
330
1F
100
AcDbEntity
  8
0
  6
Continuous
 62
     7
370
    15
100
AcDbCircle
 10
284.1526262629999
 20
278.6502690029
 30
0.0
 40
3.749999999999943
  0
CIRCLE
  5
E6
330
1F
100
AcDbEntity
  8
0
  6
Continuous
 62
     7
370
    15
100
AcDbCircle
 10
284.1526262629999
 20
168.6502690029
 30
0.0
 40
3.75
  0
CIRCLE
  5
E7
330
1F
100
AcDbEntity
  8
0
  6
Continuous
 62
     7
370
    15
100
AcDbCircle
 10
284.1526262629999
 20
318.7002690029
 30
0.0
 40
3.749999999999943
  0
LINE
  5
E8
330
1F
100
AcDbEntity
  8
0
  6
HIDDEN
 62
     7
370
     0
100
AcDbLine
 10
293.8526262629999
 20
356.5002690028999
 30
0.0
 11
293.8526262629999
 21
179.5002690029
 31
0.0
  0
CIRCLE
  5
E9
330
1F
100
AcDbEntity
  8
0
  6
HIDDEN
 62
     7
370
     0
100
AcDbCircle
 10
252.252626263
 20
193.0002690029
 30
0.0
 40
3.482050807568753
  0
CIRCLE
  5
EA
330
1F
100
AcDbEntity
  8
0
  6
HIDDEN
 62
     7
370
     0
100
AcDbCircle
 10
282.2526262629999
 20
193.0002690029
 30
0.0
 40
3.482050807568838
  0
CIRCLE
  5
EB
330
1F
100
AcDbEntity
  8
0
  6
HIDDEN
 62
     7
370
     0
100
AcDbCircle
 10
267.2526262629999
 20
238.0002690029
 30
0.0
 40
3.482050807568896
  0
CIRCLE
  5
EC
330
1F
100
AcDbEntity
  8
0
  6
HIDDEN
 62
     7
370
     0
100
AcDbCircle
 10
267.2526262629999
 20
298.0002690028999
 30
0.0
 40
3.482050807568896
  0
CIRCLE
  5
ED
330
1F
100
AcDbEntity
  8
0
  6
HIDDEN
 62
     7
370
     0
100
AcDbCircle
 10
252.252626263
 20
343.0002690028999
 30
0.0
 40
3.482050807568811
  0
CIRCLE
  5
EE
330
1F
100
AcDbEntity
  8
0
  6
HIDDEN
 62
     7
370
     0
100
AcDbCircle
 10
282.2526262629999
 20
343.0002690028999
 30
0.0
 40
3.482050807568838
  0
DIMENSION
  5
EF
330
1F
100
AcDbEntity
  8
0
100
AcDbDimension
  2
*D4
 10
311.5526262629999
 20
386.5002690028999
 30
0.0
 11
274.5022414261
 21
386.5002690028999
 31
0.0
 70
   160
 71
     2
 42
69.29999999999998
  3
ISO-25
100
AcDbAlignedDimension
 13
242.2526262629999
 23
374.5002690029
 33
0.0
 14
311.5526262629999
 24
356.5002690028999
 34
0.0
100
AcDbRotatedDimension
1001
ACAD
1000
DSTYLE
1002
{
1070
    41
1040
3.0
1070
    42
1040
1.0
1070
    44
1040
1.0
1070
    78
1070
     0
1070
   140
1040
3.5
1070
   147
1040
0.5
1070
   179
1070
     2
1070
   284
1070
     0
1002
}
  0
INSERT
  5
132
330
1F
100
AcDbEntity
  8
0
  6
Continuous
 62
     1
370
     0
100
AcDbBlockReference
  2
SW_CENTERMARKSYMBOL_2
 10
267.2526262629999
 20
298.0002690028999
 30
0.0
  0
INSERT
  5
13E
330
1F
100
AcDbEntity
  8
0
  6
Continuous
 62
     1
370
     0
100
AcDbBlockReference
  2
SW_CENTERMARKSYMBOL_3
 10
267.2526262629999
 20
238.0002690029
 30
0.0
  0
INSERT
  5
14A
330
1F
100
AcDbEntity
  8
0
  6
Continuous
 62
     1
370
     0
100
AcDbBlockReference
  2
SW_CENTERMARKSYMBOL_4
 10
284.1526262629999
 20
278.6502690029
 30
0.0
  0
INSERT
  5
156
330
1F
100
AcDbEntity
  8
0
  6
Continuous
 62
     1
370
     0
100
AcDbBlockReference
  2
SW_CENTERMARKSYMBOL_5
 10
284.1526262629999
 20
168.6502690029
 30
0.0
  0
LINE
  5
157
330
1F
100
AcDbEntity
  8
0
  6
Continuous
 62
     7
370
    15
100
AcDbLine
 10
116.2024158076
 20
356.5002690028999
 30
0.0
 11
116.2024158076
 21
179.5002690029
 31
0.0
  0
LINE
  5
158
330
1F
100
AcDbEntity
  8
0
  6
Continuous
 62
     7
370
    15
100
AcDbLine
 10
117.8024158076
 20
356.5002690028999
 30
0.0
 11
117.8024158076
 21
179.5002690029
 31
0.0
  0
LINE
  5
159
330
1F
100
AcDbEntity
  8
0
  6
Continuous
 62
     7
370
    15
100
AcDbLine
 10
117.8024158076
 20
179.5002690029
 30
0.0
 11
116.2024158076
 21
179.5002690029
 31
0.0
  0
LINE
  5
15A
330
1F
100
AcDbEntity
  8
0
  6
Continuous
 62
     7
370
    15
100
AcDbLine
 10
116.2024158076
 20
356.5002690028999
 30
0.0
 11
117.8024158076
 21
356.5002690028999
 31
0.0
  0
LINE
  5
15B
330
1F
100
AcDbEntity
  8
0
  6
Continuous
 62
     7
370
    15
100
AcDbLine
 10
119.8024158076
 20
356.5002690028999
 30
0.0
 11
119.8024158076
 21
179.5002690029
 31
0.0
  0
LINE
  5
15C
330
1F
100
AcDbEntity
  8
0
  6
Continuous
 62
     7
370
    15
100
AcDbLine
 10
119.8024158076
 20
179.5002690029
 30
0.0
 11
117.8024158076
 21
179.5002690029
 31
0.0
  0
LINE
  5
15D
330
1F
100
AcDbEntity
  8
0
  6
Continuous
 62
     7
370
    15
100
AcDbLine
 10
117.8024158076
 20
356.5002690028999
 30
0.0
 11
119.8024158076
 21
356.5002690028999
 31
0.0
  0
LINE
  5
15E
330
1F
100
AcDbEntity
  8
0
  6
Continuous
 62
     7
370
    15
100
AcDbLine
 10
169.2024158076
 20
376.5002690029
 30
0.0
 11
169.2024158076
 21
159.5002690029
 31
0.0
  0
LINE
  5
15F
330
1F
100
AcDbEntity
  8
0
  6
Continuous
 62
     7
370
    15
100
AcDbLine
 10
172.8024158075999
 20
376.5002690029
 30
0.0
 11
172.8024158075999
 21
159.5002690029
 31
0.0
  0
LINE
  5
160
330
1F
100
AcDbEntity
  8
0
  6
Continuous
 62
     7
370
    15
100
AcDbLine
 10
172.8024158075999
 20
159.5002690029
 30
0.0
 11
169.2024158076
 21
159.5002690029
 31
0.0
  0
LINE
  5
161
330
1F
100
AcDbEntity
  8
0
  6
Continuous
 62
     7
370
    15
100
AcDbLine
 10
172.8024158075999
 20
376.5002690029
 30
0.0
 11
169.2024158076
 21
376.5002690029
 31
0.0
  0
ARC
  5
162
330
1F
100
AcDbEntity
  8
0
  6
Continuous
 62
     7
370
    15
100
AcDbCircle
 10
75.663416788
 20
443.6921376991
 30
0.0
 40
98.00000000000006
100
AcDbArc
 50
297.1628020662
 51
316.7147233984
  0
LINE
  5
163
330
1F
100
AcDbEntity
  8
0
  6
Continuous
 62
     7
370
    15
100
AcDbLine
 10
169.2024158076
 20
376.5002690029
 30
0.0
 11
147.0024158076
 21
376.5002690029
 31
0.0
  0
LINE
  5
164
330
1F
100
AcDbEntity
  8
0
  6
Continuous
 62
     7
370
    15
100
AcDbLine
 10
169.2024158076
 20
159.5002690029
 30
0.0
 11
134.9024158076
 21
159.5002690029
 31
0.0
  0
ARC
  5
165
330
1F
100
AcDbEntity
  8
0
  6
Continuous
 62
     7
370
    15
100
AcDbCircle
 10
-1.4986902402
 20
75.8657171183
 30
0.0
 40
160.0
100
AcDbArc
 50
31.5146089661
 51
40.3696147767
  0
LINE
  5
166
330
1F
100
AcDbEntity
  8
0
  6
Continuous
 62
     7
370
    15
100
AcDbLine
 10
120.4024158076
 20
179.5002690029
 30
0.0
 11
119.8024158076
 21
179.5002690029
 31
0.0
  0
LINE
  5
167
330
1F
100
AcDbEntity
  8
0
  6
Continuous
 62
     7
370
    15
100
AcDbLine
 10
119.8024158076
 20
356.5002690028999
 30
0.0
 11
120.4024158076
 21
356.5002690028999
 31
0.0
  0
LINE
  5
168
330
1F
100
AcDbEntity
  8
0
  6
HIDDEN
 62
     7
370
     0
100
AcDbLine
 10
117.8024158076
 20
347.0502690028999
 30
0.0
 11
116.2024158076
 21
347.0502690028999
 31
0.0
  0
LINE
  5
169
330
1F
100
AcDbEntity
  8
0
  6
HIDDEN
 62
     7
370
     0
100
AcDbLine
 10
117.8024158076
 20
354.0502690029
 30
0.0
 11
116.2024158076
 21
354.0502690029
 31
0.0
  0
LINE
  5
16A
330
1F
100
AcDbEntity
  8
0
  6
HIDDEN
 62
     7
370
     0
100
AcDbLine
 10
117.8024158076
 20
315.3002690029
 30
0.0
 11
116.2024158076
 21
315.3002690029
 31
0.0
  0
LINE
  5
16B
330
1F
100
AcDbEntity
  8
0
  6
HIDDEN
 62
     7
370
     0
100
AcDbLine
 10
117.8024158076
 20
322.3002690028999
 30
0.0
 11
116.2024158076
 21
322.3002690028999
 31
0.0
  0
LINE
  5
16C
330
1F
100
AcDbEntity
  8
0
  6
HIDDEN
 62
     7
370
     0
100
AcDbLine
 10
117.8024158076
 20
302.6002690029
 30
0.0
 11
116.2024158076
 21
302.6002690029
 31
0.0
  0
LINE
  5
16D
330
1F
100
AcDbEntity
  8
0
  6
HIDDEN
 62
     7
370
     0
100
AcDbLine
 10
117.8024158076
 20
309.6002690029
 30
0.0
 11
116.2024158076
 21
309.6002690029
 31
0.0
  0
LINE
  5
16E
330
1F
100
AcDbEntity
  8
0
  6
HIDDEN
 62
     7
370
     0
100
AcDbLine
 10
117.8024158076
 20
270.8502690028999
 30
0.0
 11
116.2024158076
 21
270.8502690028999
 31
0.0
  0
LINE
  5
16F
330
1F
100
AcDbEntity
  8
0
  6
HIDDEN
 62
     7
370
     0
100
AcDbLine
 10
117.8024158076
 20
277.8502690029
 30
0.0
 11
116.2024158076
 21
277.8502690029
 31
0.0
  0
LINE
  5
170
330
1F
100
AcDbEntity
  8
0
  6
HIDDEN
 62
     7
370
     0
100
AcDbLine
 10
117.8024158076
 20
258.1502690029
 30
0.0
 11
116.2024158076
 21
258.1502690029
 31
0.0
  0
LINE
  5
171
330
1F
100
AcDbEntity
  8
0
  6
HIDDEN
 62
     7
370
     0
100
AcDbLine
 10
117.8024158076
 20
265.1502690029
 30
0.0
 11
116.2024158076
 21
265.1502690029
 31
0.0
  0
LINE
  5
172
330
1F
100
AcDbEntity
  8
0
  6
HIDDEN
 62
     7
370
     0
100
AcDbLine
 10
117.8024158076
 20
226.4002690029
 30
0.0
 11
116.2024158076
 21
226.4002690029
 31
0.0
  0
LINE
  5
173
330
1F
100
AcDbEntity
  8
0
  6
HIDDEN
 62
     7
370
     0
100
AcDbLine
 10
117.8024158076
 20
233.4002690029
 30
0.0
 11
116.2024158076
 21
233.4002690029
 31
0.0
  0
LINE
  5
174
330
1F
100
AcDbEntity
  8
0
  6
HIDDEN
 62
     7
370
     0
100
AcDbLine
 10
117.8024158076
 20
213.7002690029
 30
0.0
 11
116.2024158076
 21
213.7002690029
 31
0.0
  0
LINE
  5
175
330
1F
100
AcDbEntity
  8
0
  6
HIDDEN
 62
     7
370
     0
100
AcDbLine
 10
117.8024158076
 20
220.7002690028999
 30
0.0
 11
116.2024158076
 21
220.7002690028999
 31
0.0
  0
LINE
  5
176
330
1F
100
AcDbEntity
  8
0
  6
HIDDEN
 62
     7
370
     0
100
AcDbLine
 10
117.8024158076
 20
181.9502690029
 30
0.0
 11
116.2024158076
 21
181.9502690029
 31
0.0
  0
LINE
  5
177
330
1F
100
AcDbEntity
  8
0
  6
HIDDEN
 62
     7
370
     0
100
AcDbLine
 10
117.8024158076
 20
188.9502690028999
 30
0.0
 11
116.2024158076
 21
188.9502690028999
 31
0.0
  0
LINE
  5
178
330
1F
100
AcDbEntity
  8
0
  6
HIDDEN
 62
     7
370
     0
100
AcDbLine
 10
171.2024158076
 20
376.5002690029
 30
0.0
 11
171.2024158076
 21
159.5002690029
 31
0.0
  0
LINE
  5
179
330
1F
100
AcDbEntity
  8
0
  6
HIDDEN
 62
     7
370
     0
100
AcDbLine
 10
171.8024158075999
 20
344.7502690028999
 30
0.0
 11
171.8024158075999
 21
341.2502690029
 31
0.0
  0
LINE
  5
17A
330
1F
100
AcDbEntity
  8
0
  6
HIDDEN
 62
     7
370
     0
100
AcDbLine
 10
171.8024158075999
 20
194.7502690029
 30
0.0
 11
171.8024158075999
 21
191.2502690029
 31
0.0
  0
LINE
  5
17B
330
1F
100
AcDbEntity
  8
0
  6
HIDDEN
 62
     7
370
     0
100
AcDbLine
 10
171.8024158075999
 20
299.7502690029
 30
0.0
 11
171.8024158075999
 21
296.2502690028999
 31
0.0
  0
LINE
  5
17C
330
1F
100
AcDbEntity
  8
0
  6
HIDDEN
 62
     7
370
     0
100
AcDbLine
 10
171.8024158075999
 20
239.7502690028999
 30
0.0
 11
171.8024158075999
 21
236.2502690029
 31
0.0
  0
LINE
  5
17D
330
1F
100
AcDbEntity
  8
0
  6
HIDDEN
 62
     7
370
     0
100
AcDbLine
 10
172.8024158075999
 20
161.5002690029
 30
0.0
 11
171.2024158076
 21
161.5002690029
 31
0.0
  0
LINE
  5
17E
330
1F
100
AcDbEntity
  8
0
  6
HIDDEN
 62
     7
370
     0
100
AcDbLine
 10
171.2024158076
 20
374.5002690029
 30
0.0
 11
172.8024158075999
 21
374.5002690029
 31
0.0
  0
LINE
  5
17F
330
1F
100
AcDbEntity
  8
0
  6
HIDDEN
 62
     7
370
     0
100
AcDbLine
 10
172.8024158075999
 20
322.4502690029
 30
0.0
 11
171.2024158076
 21
322.4502690029
 31
0.0
  0
LINE
  5
180
330
1F
100
AcDbEntity
  8
0
  6
HIDDEN
 62
     7
370
     0
100
AcDbLine
 10
171.2024158076
 20
314.9502690029
 30
0.0
 11
172.8024158075999
 21
314.9502690029
 31
0.0
  0
LINE
  5
181
330
1F
100
AcDbEntity
  8
0
  6
HIDDEN
 62
     7
370
     0
100
AcDbLine
 10
172.8024158075999
 20
282.4002690029
 30
0.0
 11
171.2024158076
 21
282.4002690029
 31
0.0
  0
LINE
  5
182
330
1F
100
AcDbEntity
  8
0
  6
HIDDEN
 62
     7
370
     0
100
AcDbLine
 10
171.2024158076
 20
274.9002690029
 30
0.0
 11
172.8024158075999
 21
274.9002690029
 31
0.0
  0
LINE
  5
183
330
1F
100
AcDbEntity
  8
0
  6
HIDDEN
 62
     7
370
     0
100
AcDbLine
 10
172.8024158075999
 20
172.4002690029
 30
0.0
 11
171.2024158076
 21
172.4002690029
 31
0.0
  0
LINE
  5
184
330
1F
100
AcDbEntity
  8
0
  6
HIDDEN
 62
     7
370
     0
100
AcDbLine
 10
171.2024158076
 20
164.9002690029
 30
0.0
 11
172.8024158075999
 21
164.9002690029
 31
0.0
  0
LINE
  5
185
330
1F
100
AcDbEntity
  8
0
  6
HIDDEN
 62
     7
370
     0
100
AcDbLine
 10
172.8024158075999
 20
346.4823198105
 30
0.0
 11
171.8024158075999
 21
344.7502690028999
 31
0.0
  0
LINE
  5
186
330
1F
100
AcDbEntity
  8
0
  6
HIDDEN
 62
     7
370
     0
100
AcDbLine
 10
171.8024158075999
 20
341.2502690029
 30
0.0
 11
172.8024158075999
 21
339.5182181954
 31
0.0
  0
LINE
  5
187
330
1F
100
AcDbEntity
  8
0
  6
HIDDEN
 62
     7
370
     0
100
AcDbLine
 10
172.8024158075999
 20
196.4823198105
 30
0.0
 11
171.8024158075999
 21
194.7502690029
 31
0.0
  0
LINE
  5
188
330
1F
100
AcDbEntity
  8
0
  6
HIDDEN
 62
     7
370
     0
100
AcDbLine
 10
171.8024158075999
 20
191.2502690029
 30
0.0
 11
172.8024158075999
 21
189.5182181954
 31
0.0
  0
LINE
  5
189
330
1F
100
AcDbEntity
  8
0
  6
HIDDEN
 62
     7
370
     0
100
AcDbLine
 10
171.2024158076
 20
341.2502690029
 30
0.0
 11
171.8024158075999
 21
341.2502690029
 31
0.0
  0
LINE
  5
18A
330
1F
100
AcDbEntity
  8
0
  6
HIDDEN
 62
     7
370
     0
100
AcDbLine
 10
171.8024158075999
 20
344.7502690028999
 30
0.0
 11
171.2024158076
 21
344.7502690028999
 31
0.0
  0
LINE
  5
18B
330
1F
100
AcDbEntity
  8
0
  6
HIDDEN
 62
     7
370
     0
100
AcDbLine
 10
171.2024158076
 20
191.2502690029
 30
0.0
 11
171.8024158075999
 21
191.2502690029
 31
0.0
  0
LINE
  5
18C
330
1F
100
AcDbEntity
  8
0
  6
HIDDEN
 62
     7
370
     0
100
AcDbLine
 10
171.8024158075999
 20
194.7502690029
 30
0.0
 11
171.2024158076
 21
194.7502690029
 31
0.0
  0
LINE
  5
18D
330
1F
100
AcDbEntity
  8
0
  6
HIDDEN
 62
     7
370
     0
100
AcDbLine
 10
172.8024158075999
 20
301.4823198104999
 30
0.0
 11
171.8024158075999
 21
299.7502690029
 31
0.0
  0
LINE
  5
18E
330
1F
100
AcDbEntity
  8
0
  6
HIDDEN
 62
     7
370
     0
100
AcDbLine
 10
171.8024158075999
 20
296.2502690028999
 30
0.0
 11
172.8024158075999
 21
294.5182181953999
 31
0.0
  0
LINE
  5
18F
330
1F
100
AcDbEntity
  8
0
  6
HIDDEN
 62
     7
370
     0
100
AcDbLine
 10
172.8024158075999
 20
241.4823198105
 30
0.0
 11
171.8024158075999
 21
239.7502690028999
 31
0.0
  0
LINE
  5
190
330
1F
100
AcDbEntity
  8
0
  6
HIDDEN
 62
     7
370
     0
100
AcDbLine
 10
171.8024158075999
 20
236.2502690029
 30
0.0
 11
172.8024158075999
 21
234.5182181954
 31
0.0
  0
LINE
  5
191
330
1F
100
AcDbEntity
  8
0
  6
HIDDEN
 62
     7
370
     0
100
AcDbLine
 10
171.2024158076
 20
296.2502690028999
 30
0.0
 11
171.8024158075999
 21
296.2502690028999
 31
0.0
  0
LINE
  5
192
330
1F
100
AcDbEntity
  8
0
  6
HIDDEN
 62
     7
370
     0
100
AcDbLine
 10
171.8024158075999
 20
299.7502690029
 30
0.0
 11
171.2024158076
 21
299.7502690029
 31
0.0
  0
LINE
  5
193
330
1F
100
AcDbEntity
  8
0
  6
HIDDEN
 62
     7
370
     0
100
AcDbLine
 10
171.2024158076
 20
236.2502690029
 30
0.0
 11
171.8024158075999
 21
236.2502690029
 31
0.0
  0
LINE
  5
194
330
1F
100
AcDbEntity
  8
0
  6
HIDDEN
 62
     7
370
     0
100
AcDbLine
 10
171.8024158075999
 20
239.7502690028999
 30
0.0
 11
171.2024158076
 21
239.7502690028999
 31
0.0
  0
DIMENSION
  5
195
330
1F
100
AcDbEntity
  8
0
  6
Continuous
 62
     7
370
     0
100
AcDbDimension
  2
*D11
 10
200.8162888783481
 20
376.5002690029
 30
0.0
 11
200.816288878348
 21
299.9888921819999
 31
0.0
 70
   160
 71
     2
 42
217.0
  3
SLDDIMSTYLE1
100
AcDbAlignedDimension
 13
172.8024158075999
 23
159.5002690029
 33
0.0
 14
172.8024158075999
 24
376.5002690029
 34
0.0
 50
90.0
100
AcDbRotatedDimension
  0
LINE
  5
1A0
330
1F
100
AcDbEntity
  8
0
  6
Continuous
 62
     7
370
    15
100
AcDbLine
 10
242.2526262629999
 20
106.2194520548
 30
0.0
 11
242.2526262629999
 21
107.8194520547999
 31
0.0
  0
LINE
  5
1A1
330
1F
100
AcDbEntity
  8
0
  6
Continuous
 62
     7
370
    15
100
AcDbLine
 10
242.2526262629999
 20
107.8194520547999
 30
0.0
 11
244.2526262629999
 21
107.8194520547999
 31
0.0
  0
LINE
  5
1A2
330
1F
100
AcDbEntity
  8
0
  6
Continuous
 62
     7
370
    15
100
AcDbLine
 10
244.2526262629999
 20
107.8194520547999
 30
0.0
 11
244.2526262629999
 21
106.2194520548
 31
0.0
  0
LINE
  5
1A3
330
1F
100
AcDbEntity
  8
0
  6
Continuous
 62
     7
370
    15
100
AcDbLine
 10
244.2526262629999
 20
106.2194520548
 30
0.0
 11
242.2526262629999
 21
106.2194520548
 31
0.0
  0
LINE
  5
1A4
330
1F
100
AcDbEntity
  8
0
  6
Continuous
 62
     7
370
    15
100
AcDbLine
 10
290.2526262629999
 20
106.2194520548
 30
0.0
 11
290.2526262629999
 21
107.8194520547999
 31
0.0
  0
LINE
  5
1A5
330
1F
100
AcDbEntity
  8
0
  6
Continuous
 62
     7
370
    15
100
AcDbLine
 10
244.2526262629999
 20
107.8194520547999
 30
0.0
 11
290.2526262629999
 21
107.8194520547999
 31
0.0
  0
LINE
  5
1A6
330
1F
100
AcDbEntity
  8
0
  6
Continuous
 62
     7
370
    15
100
AcDbLine
 10
244.2526262629999
 20
106.2194520548
 30
0.0
 11
290.2526262629999
 21
106.2194520548
 31
0.0
  0
LINE
  5
1A7
330
1F
100
AcDbEntity
  8
0
  6
Continuous
 62
     7
370
    15
100
AcDbLine
 10
293.8526262629999
 20
104.2194520548
 30
0.0
 11
292.2526262629999
 21
104.2194520548
 31
0.0
  0
ARC
  5
1A8
330
1F
100
AcDbEntity
  8
0
  6
Continuous
 62
     7
370
    15
100
AcDbCircle
 10
290.2526262629999
 20
104.2194520548
 30
0.0
 40
2.0
100
AcDbArc
 50
0.0
 51
90.0
  0
ARC
  5
1A9
330
1F
100
AcDbEntity
  8
0
  6
Continuous
 62
     7
370
    15
100
AcDbCircle
 10
290.2526262629999
 20
104.2194520548
 30
0.0
 40
3.599999999999993
100
AcDbArc
 50
0.0
 51
90.0
  0
LINE
  5
1AA
330
1F
100
AcDbEntity
  8
0
  6
Continuous
 62
     7
370
    15
100
AcDbLine
 10
293.8526262629999
 20
104.2194520548
 30
0.0
 11
293.8526262629999
 21
82.01945205479999
 31
0.0
  0
LINE
  5
1AB
330
1F
100
AcDbEntity
  8
0
  6
Continuous
 62
     7
370
    15
100
AcDbLine
 10
292.2526262629999
 20
82.01945205479999
 30
0.0
 11
293.8526262629999
 21
82.01945205479999
 31
0.0
  0
LINE
  5
1AC
330
1F
100
AcDbEntity
  8
0
  6
Continuous
 62
     7
370
    15
100
AcDbLine
 10
292.2526262629999
 20
104.2194520548
 30
0.0
 11
292.2526262629999
 21
82.01945205479999
 31
0.0
  0
LINE
  5
1AD
330
1F
100
AcDbEntity
  8
0
  6
Continuous
 62
     7
370
    15
100
AcDbLine
 10
292.2526262629999
 20
55.4194520548
 30
0.0
 11
293.8526262629999
 21
55.4194520548
 31
0.0
  0
LINE
  5
1AE
330
1F
100
AcDbEntity
  8
0
  6
Continuous
 62
     7
370
    15
100
AcDbLine
 10
293.8526262629999
 20
55.4194520548
 30
0.0
 11
293.8526262629999
 21
82.01945205479999
 31
0.0
  0
LINE
  5
1AF
330
1F
100
AcDbEntity
  8
0
  6
Continuous
 62
     7
370
    15
100
AcDbLine
 10
292.2526262629999
 20
55.4194520548
 30
0.0
 11
292.2526262629999
 21
82.01945205479999
 31
0.0
  0
ARC
  5
1B0
330
1F
100
AcDbEntity
  8
0
  6
Continuous
 62
     7
370
    15
100
AcDbCircle
 10
295.852626263
 20
54.81945205479999
 30
0.0
 40
2.0
100
AcDbArc
 50
180.0
 51
270.0
  0
LINE
  5
1B1
330
1F
100
AcDbEntity
  8
0
  6
Continuous
 62
     7
370
    15
100
AcDbLine
 10
311.5526262629999
 20
52.81945205479999
 30
0.0
 11
295.852626263
 21
52.81945205479999
 31
0.0
  0
LINE
  5
1B2
330
1F
100
AcDbEntity
  8
0
  6
Continuous
 62
     7
370
    15
100
AcDbLine
 10
311.5526262629999
 20
51.21945205479999
 30
0.0
 11
311.5526262629999
 21
52.81945205479999
 31
0.0
  0
LINE
  5
1B3
330
1F
100
AcDbEntity
  8
0
  6
Continuous
 62
     7
370
    15
100
AcDbLine
 10
311.5526262629999
 20
51.21945205479999
 30
0.0
 11
295.852626263
 21
51.21945205479999
 31
0.0
  0
ARC
  5
1B4
330
1F
100
AcDbEntity
  8
0
  6
Continuous
 62
     7
370
    15
100
AcDbCircle
 10
295.852626263
 20
54.81945205479999
 30
0.0
 40
3.6
100
AcDbArc
 50
180.0
 51
270.0
  0
LINE
  5
1B5
330
1F
100
AcDbEntity
  8
0
  6
Continuous
 62
     7
370
    15
100
AcDbLine
 10
293.8526262629999
 20
54.81945205479999
 30
0.0
 11
293.8526262629999
 21
55.4194520548
 31
0.0
  0
LINE
  5
1B6
330
1F
100
AcDbEntity
  8
0
  6
Continuous
 62
     7
370
    15
100
AcDbLine
 10
292.2526262629999
 20
54.81945205479999
 30
0.0
 11
292.2526262629999
 21
55.4194520548
 31
0.0
  0
LINE
  5
1B7
330
1F
100
AcDbEntity
  8
0
  6
HIDDEN
 62
     7
370
     0
100
AcDbLine
 10
301.5526262629999
 20
52.81945205479999
 30
0.0
 11
301.5526262629999
 21
51.21945205479999
 31
0.0
  0
LINE
  5
1B8
330
1F
100
AcDbEntity
  8
0
  6
HIDDEN
 62
     7
370
     0
100
AcDbLine
 10
304.5526262629999
 20
52.81945205479999
 30
0.0
 11
304.5526262629999
 21
51.21945205479999
 31
0.0
  0
LINE
  5
1B9
330
1F
100
AcDbEntity
  8
0
  6
HIDDEN
 62
     7
370
     0
100
AcDbLine
 10
250.5026262629999
 20
106.8194520547999
 30
0.0
 11
254.002626263
 21
106.8194520547999
 31
0.0
  0
LINE
  5
1BA
330
1F
100
AcDbEntity
  8
0
  6
HIDDEN
 62
     7
370
     0
100
AcDbLine
 10
280.5026262629999
 20
106.8194520547999
 30
0.0
 11
284.0026262629999
 21
106.8194520547999
 31
0.0
  0
LINE
  5
1BB
330
1F
100
AcDbEntity
  8
0
  6
HIDDEN
 62
     7
370
     0
100
AcDbLine
 10
265.5026262629999
 20
106.8194520547999
 30
0.0
 11
269.0026262629999
 21
106.8194520547999
 31
0.0
  0
LINE
  5
1BC
330
1F
100
AcDbEntity
  8
0
  6
HIDDEN
 62
     7
370
     0
100
AcDbLine
 10
292.2526262629999
 20
69.91945205479999
 30
0.0
 11
293.8526262629999
 21
69.91945205479999
 31
0.0
  0
LINE
  5
1BD
330
1F
100
AcDbEntity
  8
0
  6
HIDDEN
 62
     7
370
     0
100
AcDbLine
 10
298.0526262629999
 20
52.81945205479999
 30
0.0
 11
298.0526262629999
 21
51.21945205479999
 31
0.0
  0
LINE
  5
1BE
330
1F
100
AcDbEntity
  8
0
  6
HIDDEN
 62
     7
370
     0
100
AcDbLine
 10
308.0526262629999
 20
51.21945205479999
 30
0.0
 11
308.0526262629999
 21
52.81945205479999
 31
0.0
  0
LINE
  5
1BF
330
1F
100
AcDbEntity
  8
0
  6
HIDDEN
 62
     7
370
     0
100
AcDbLine
 10
248.7705754554
 20
107.8194520547999
 30
0.0
 11
250.5026262629999
 21
106.8194520547999
 31
0.0
  0
LINE
  5
1C0
330
1F
100
AcDbEntity
  8
0
  6
HIDDEN
 62
     7
370
     0
100
AcDbLine
 10
254.002626263
 20
106.8194520547999
 30
0.0
 11
255.7346770706
 21
107.8194520547999
 31
0.0
  0
LINE
  5
1C1
330
1F
100
AcDbEntity
  8
0
  6
HIDDEN
 62
     7
370
     0
100
AcDbLine
 10
278.7705754554
 20
107.8194520547999
 30
0.0
 11
280.5026262629999
 21
106.8194520547999
 31
0.0
  0
LINE
  5
1C2
330
1F
100
AcDbEntity
  8
0
  6
HIDDEN
 62
     7
370
     0
100
AcDbLine
 10
284.0026262629999
 20
106.8194520547999
 30
0.0
 11
285.7346770706
 21
107.8194520547999
 31
0.0
  0
LINE
  5
1C3
330
1F
100
AcDbEntity
  8
0
  6
HIDDEN
 62
     7
370
     0
100
AcDbLine
 10
254.002626263
 20
106.2194520548
 30
0.0
 11
254.002626263
 21
106.8194520547999
 31
0.0
  0
LINE
  5
1C4
330
1F
100
AcDbEntity
  8
0
  6
HIDDEN
 62
     7
370
     0
100
AcDbLine
 10
250.5026262629999
 20
106.8194520547999
 30
0.0
 11
250.5026262629999
 21
106.2194520548
 31
0.0
  0
LINE
  5
1C5
330
1F
100
AcDbEntity
  8
0
  6
HIDDEN
 62
     7
370
     0
100
AcDbLine
 10
284.0026262629999
 20
106.2194520548
 30
0.0
 11
284.0026262629999
 21
106.8194520547999
 31
0.0
  0
LINE
  5
1C6
330
1F
100
AcDbEntity
  8
0
  6
HIDDEN
 62
     7
370
     0
100
AcDbLine
 10
280.5026262629999
 20
106.8194520547999
 30
0.0
 11
280.5026262629999
 21
106.2194520548
 31
0.0
  0
LINE
  5
1C7
330
1F
100
AcDbEntity
  8
0
  6
HIDDEN
 62
     7
370
     0
100
AcDbLine
 10
280.4026262629999
 20
107.8194520547999
 30
0.0
 11
280.4026262629999
 21
106.2194520548
 31
0.0
  0
LINE
  5
1C8
330
1F
100
AcDbEntity
  8
0
  6
HIDDEN
 62
     7
370
     0
100
AcDbLine
 10
287.902626263
 20
106.2194520548
 30
0.0
 11
287.902626263
 21
107.8194520547999
 31
0.0
  0
LINE
  5
1C9
330
1F
100
AcDbEntity
  8
0
  6
HIDDEN
 62
     7
370
     0
100
AcDbLine
 10
263.7705754554
 20
107.8194520547999
 30
0.0
 11
265.5026262629999
 21
106.8194520547999
 31
0.0
  0
LINE
  5
1CA
330
1F
100
AcDbEntity
  8
0
  6
HIDDEN
 62
     7
370
     0
100
AcDbLine
 10
269.0026262629999
 20
106.8194520547999
 30
0.0
 11
270.7346770706
 21
107.8194520547999
 31
0.0
  0
LINE
  5
1CB
330
1F
100
AcDbEntity
  8
0
  6
HIDDEN
 62
     7
370
     0
100
AcDbLine
 10
269.0026262629999
 20
106.2194520548
 30
0.0
 11
269.0026262629999
 21
106.8194520547999
 31
0.0
  0
LINE
  5
1CC
330
1F
100
AcDbEntity
  8
0
  6
HIDDEN
 62
     7
370
     0
100
AcDbLine
 10
265.5026262629999
 20
106.8194520547999
 30
0.0
 11
265.5026262629999
 21
106.2194520548
 31
0.0
  0
LINE
  5
1CD
330
1F
100
AcDbEntity
  8
0
  6
Continuous
 62
     7
370
    15
100
AcDbLine
 10
49.8203049559
 20
172.6669712395
 30
0.0
 11
49.8203049559
 21
28.1392475357
 31
0.0
  0
LINE
  5
1CE
330
1F
100
AcDbEntity
  8
0
  6
Continuous
 62
     7
370
    15
100
AcDbLine
 10
87.99158197190001
 20
34.25965437309999
 30
0.0
 11
87.99158197190001
 21
211.4490105524
 31
0.0
  0
LINE
  5
1CF
330
1F
100
AcDbEntity
  8
0
  6
Continuous
 62
     7
370
    15
100
AcDbLine
 10
61.9762970083
 20
164.7886329604
 30
0.0
 11
61.9762970083
 21
20.2609092566
 31
0.0
  0
LINE
  5
1D0
330
1F
100
AcDbEntity
  8
0
  6
Continuous
 62
     7
370
    15
100
AcDbLine
 10
61.9762970083
 20
164.7886329604
 30
0.0
 11
63.1076678582
 21
165.4417594498999
 31
0.0
  0
LINE
  5
1D1
330
1F
100
AcDbEntity
  8
0
  6
Continuous
 62
     7
370
    15
100
AcDbLine
 10
63.1076678582
 20
165.4417594498999
 30
0.0
 11
63.1076678582
 21
20.91403574609999
 31
0.0
  0
LINE
  5
1D2
330
1F
100
AcDbEntity
  8
0
  6
Continuous
 62
     7
370
    15
100
AcDbLine
 10
63.1076678582
 20
20.91403574609999
 30
0.0
 11
61.9762970083
 21
20.2609092566
 31
0.0
  0
LINE
  5
1D3
330
1F
100
AcDbEntity
  8
0
  6
Continuous
 62
     7
370
    15
100
AcDbLine
 10
54.9052291964
 20
52.26864558229999
 30
0.0
 11
57.02654953999999
 21
51.0440334145
 31
0.0
  0
LWPOLYLINE
  5
1D4
330
1F
100
AcDbEntity
  8
0
  6
Continuous
 62
     7
370
    15
100
AcDbPolyline
 90
       15
 70
   128
 43
0.0
 10
57.02654953999999
 20
51.0440334145
 10
57.57726075469999
 20
50.7977679376
 10
58.1003570096
 20
50.7071579207
 10
58.5696080741
 20
50.7767469283
 10
58.9614837405
 20
51.0030454769
 10
59.2563337264
 20
51.3747060126
 10
59.4393730225
 20
51.87309192399999
 10
59.5014232741
 20
52.4732120604
 10
59.4393730225
 20
53.1449738925
 10
59.2563337264
 20
53.8546924768
 10
58.9614837405
 20
54.56677956
 10
58.5696080741
 20
55.24552812239999
 10
58.1003570096
 20
55.8569028768
 10
57.57726075469999
 20
56.3702469402
 10
57.02654953999999
 20
56.7598190977
  0
LINE
  5
1D5
330
1F
100
AcDbEntity
  8
0
  6
Continuous
 62
     7
370
    15
100
AcDbLine
 10
57.02654953999999
 20
56.7598190977
 30
0.0
 11
54.9052291964
 21
57.9844312655
 31
0.0
  0
LWPOLYLINE
  5
1D6
330
1F
100
AcDbEntity
  8
0
  6
Continuous
 62
     7
370
    15
100
AcDbPolyline
 90
       15
 70
   128
 43
0.0
 10
54.9052291964
 20
57.9844312655
 10
54.35451798169999
 20
58.2306967423
 10
53.8314217268
 20
58.3213067593
 10
53.36217066229999
 20
58.2517177517
 10
52.97029499589999
 20
58.025419203
 10
52.67544500999999
 20
57.6537586674
 10
52.4924057139
 20
57.155372756
 10
52.43035546229999
 20
56.5552526195
 10
52.4924057139
 20
55.8834907875
 10
52.67544500999999
 20
55.1737722032
 10
52.97029499589999
 20
54.46168511989999
 10
53.36217066229999
 20
53.7829365576
 10
53.8314217268
 20
53.1715618031
 10
54.35451798169999
 20
52.65821773969999
 10
54.9052291964
 20
52.26864558229999
  0
LINE
  5
1D7
330
1F
100
AcDbEntity
  8
0
  6
Continuous
 62
     7
370
    15
100
AcDbLine
 10
54.9052291964
 20
88.56388467059998
 30
0.0
 11
57.02654953999999
 21
87.3392725028
 31
0.0
  0
LWPOLYLINE
  5
1D8
330
1F
100
AcDbEntity
  8
0
  6
Continuous
 62
     7
370
    15
100
AcDbPolyline
 90
       15
 70
   128
 43
0.0
 10
57.02654953999999
 20
87.3392725028
 10
57.57726075469999
 20
87.09300702600001
 10
58.1003570096
 20
87.00239700899999
 10
58.5696080741
 20
87.0719860166
 10
58.9614837405
 20
87.2982845653
 10
59.2563337264
 20
87.6699451009
 10
59.4393730225
 20
88.16833101230001
 10
59.5014232741
 20
88.7684511488
 10
59.4393730225
 20
89.4402129808
 10
59.2563337264
 20
90.1499315651
 10
58.9614837405
 20
90.8620186483
 10
58.5696080741
 20
91.5407672107
 10
58.1003570096
 20
92.15214196519999
 10
57.57726075469999
 20
92.6654860286
 10
57.02654953999999
 20
93.05505818600002
  0
LINE
  5
1D9
330
1F
100
AcDbEntity
  8
0
  6
Continuous
 62
     7
370
    15
100
AcDbLine
 10
57.02654953999999
 20
93.05505818600002
 30
0.0
 11
54.9052291964
 21
94.27967035379998
 31
0.0
  0
LWPOLYLINE
  5
1DA
330
1F
100
AcDbEntity
  8
0
  6
Continuous
 62
     7
370
    15
100
AcDbPolyline
 90
       15
 70
   128
 43
0.0
 10
54.9052291964
 20
94.27967035379998
 10
54.35451798169999
 20
94.52593583069999
 10
53.8314217268
 20
94.61654584760001
 10
53.36217066229999
 20
94.54695684
 10
52.97029499589999
 20
94.32065829139999
 10
52.67544500999999
 20
93.94899775569999
 10
52.4924057139
 20
93.45061184429999
 10
52.43035546229999
 20
92.85049170790001
 10
52.4924057139
 20
92.17872987579999
 10
52.67544500999999
 20
91.4690112915
 10
52.97029499589999
 20
90.7569242083
 10
53.36217066229999
 20
90.0781756459
 10
53.8314217268
 20
89.4668008914
 10
54.35451798169999
 20
88.95345682809999
 10
54.9052291964
 20
88.56388467059998
  0
LINE
  5
1DB
330
1F
100
AcDbEntity
  8
0
  6
Continuous
 62
     7
370
    15
100
AcDbLine
 10
54.9052291964
 20
26.34347480489999
 30
0.0
 11
57.02654953999999
 21
25.1188626371
 31
0.0
  0
LWPOLYLINE
  5
1DC
330
1F
100
AcDbEntity
  8
0
  6
Continuous
 62
     7
370
    15
100
AcDbPolyline
 90
       15
 70
   128
 43
0.0
 10
57.02654953999999
 20
25.1188626371
 10
57.57726075469999
 20
24.8725971603
 10
58.1003570096
 20
24.7819871433
 10
58.5696080741
 20
24.8515761509
 10
58.9614837405
 20
25.0778746996
 10
59.2563337264
 20
25.4495352352
 10
59.4393730225
 20
25.9479211466
 10
59.5014232741
 20
26.54804128309999
 10
59.4393730225
 20
27.2198031151
 10
59.2563337264
 20
27.9295216994
 10
58.9614837405
 20
28.6416087827
 10
58.5696080741
 20
29.320357345
 10
58.1003570096
 20
29.9317320995
 10
57.57726075469999
 20
30.4450761629
 10
57.02654953999999
 20
30.8346483203
  0
LINE
  5
1DD
330
1F
100
AcDbEntity
  8
0
  6
Continuous
 62
     7
370
    15
100
AcDbLine
 10
57.02654953999999
 20
30.8346483203
 30
0.0
 11
54.9052291964
 21
32.0592604881
 31
0.0
  0
LWPOLYLINE
  5
1DE
330
1F
100
AcDbEntity
  8
0
  6
Continuous
 62
     7
370
    15
100
AcDbPolyline
 90
       15
 70
   128
 43
0.0
 10
54.9052291964
 20
32.0592604881
 10
54.35451798169999
 20
32.305525965
 10
53.8314217268
 20
32.3961359819
 10
53.36217066229999
 20
32.3265469743
 10
52.97029499589999
 20
32.1002484257
 10
52.67544500999999
 20
31.72858789
 10
52.4924057139
 20
31.2302019786
 10
52.43035546229999
 20
30.6300818422
 10
52.4924057139
 20
29.9583200101
 10
52.67544500999999
 20
29.2486014258
 10
52.97029499589999
 20
28.5365143426
 10
53.36217066229999
 20
27.8577657802
 10
53.8314217268
 20
27.24639102579999
 10
54.35451798169999
 20
26.73304696239999
 10
54.9052291964
 20
26.34347480489999
  0
LINE
  5
1DF
330
1F
100
AcDbEntity
  8
0
  6
Continuous
 62
     7
370
    15
100
AcDbLine
 10
54.9052291964
 20
62.6387138932
 30
0.0
 11
57.02654953999999
 21
61.4141017255
 31
0.0
  0
LWPOLYLINE
  5
1E0
330
1F
100
AcDbEntity
  8
0
  6
Continuous
 62
     7
370
    15
100
AcDbPolyline
 90
       15
 70
   128
 43
0.0
 10
57.02654953999999
 20
61.4141017255
 10
57.57726075469999
 20
61.1678362486
 10
58.1003570096
 20
61.0772262316
 10
58.5696080741
 20
61.1468152392
 10
58.9614837405
 20
61.3731137879
 10
59.2563337264
 20
61.7447743235
 10
59.4393730225
 20
62.2431602349
 10
59.5014232741
 20
62.8432803714
 10
59.4393730225
 20
63.5150422034
 10
59.2563337264
 20
64.2247607877
 10
58.9614837405
 20
64.936847871
 10
58.5696080741
 20
65.6155964334
 10
58.1003570096
 20
66.2269711878
 10
57.57726075469999
 20
66.7403152512
 10
57.02654953999999
 20
67.1298874087
  0
LINE
  5
1E1
330
1F
100
AcDbEntity
  8
0
  6
Continuous
 62
     7
370
    15
100
AcDbLine
 10
57.02654953999999
 20
67.1298874087
 30
0.0
 11
54.9052291964
 21
68.3544995764
 31
0.0
  0
LWPOLYLINE
  5
1E2
330
1F
100
AcDbEntity
  8
0
  6
Continuous
 62
     7
370
    15
100
AcDbPolyline
 90
       15
 70
   128
 43
0.0
 10
54.9052291964
 20
68.3544995764
 10
54.35451798169999
 20
68.60076505329999
 10
53.8314217268
 20
68.69137507020001
 10
53.36217066229999
 20
68.62178606270001
 10
52.97029499589999
 20
68.39548751399999
 10
52.67544500999999
 20
68.02382697839999
 10
52.4924057139
 20
67.525441067
 10
52.43035546229999
 20
66.92532093050001
 10
52.4924057139
 20
66.2535590985
 10
52.67544500999999
 20
65.5438405141
 10
52.97029499589999
 20
64.8317534309
 10
53.36217066229999
 20
64.1530048685
 10
53.8314217268
 20
63.5416301141
 10
54.35451798169999
 20
63.0282860507
 10
54.9052291964
 20
62.6387138932
  0
LINE
  5
1E3
330
1F
100
AcDbEntity
  8
0
  6
Continuous
 62
     7
370
    15
100
AcDbLine
 10
61.9762970083
 20
164.7886329604
 30
0.0
 11
50.8747205437
 21
171.1974366381999
 31
0.0
  0
LINE
  5
1E4
330
1F
100
AcDbEntity
  8
0
  6
Continuous
 62
     7
370
    15
100
AcDbLine
 10
50.8747205437
 20
26.6697129345
 30
0.0
 11
61.9762970083
 21
20.2609092566
 31
0.0
  0
LINE
  5
1E5
330
1F
100
AcDbEntity
  8
0
  6
Continuous
 62
     7
370
    15
100
AcDbLine
 10
50.8747205437
 20
171.1974366381999
 30
0.0
 11
50.8747205437
 21
26.6697129345
 31
0.0
  0
LWPOLYLINE
  5
1E6
330
1F
100
AcDbEntity
  8
0
  6
Continuous
 62
     7
370
    15
100
AcDbPolyline
 90
       15
 70
   128
 43
0.0
 10
57.02654953999999
 20
159.9297506795
 10
57.57726075469999
 20
159.6834852026
 10
58.1003570096
 20
159.5928751856
 10
58.5696080741
 20
159.6624641932
 10
58.9614837405
 20
159.8887627418999
 10
59.2563337264
 20
160.2604232775
 10
59.4393730225
 20
160.7588091889
 10
59.5014232741
 20
161.3589293253999
 10
59.4393730225
 20
162.0306911573999
 10
59.2563337264
 20
162.7404097417
 10
58.9614837405
 20
163.452496825
 10
58.5696080741
 20
164.1312453873999
 10
58.1003570096
 20
164.7426201417999
 10
57.57726075469999
 20
165.2559642052
 10
57.02654953999999
 20
165.6455363627
  0
LINE
  5
1E7
330
1F
100
AcDbEntity
  8
0
  6
Continuous
 62
     7
370
    15
100
AcDbLine
 10
57.02654953999999
 20
165.6455363627
 30
0.0
 11
54.9052291964
 21
166.8701485304
 31
0.0
  0
LWPOLYLINE
  5
1E8
330
1F
100
AcDbEntity
  8
0
  6
Continuous
 62
     7
370
    15
100
AcDbPolyline
 90
       15
 70
   128
 43
0.0
 10
54.9052291964
 20
166.8701485304
 10
54.35451798169999
 20
167.1164140072999
 10
53.8314217268
 20
167.2070240243
 10
53.36217066229999
 20
167.1374350167
 10
52.97029499589999
 20
166.9111364679999
 10
52.67544500999999
 20
166.5394759323999
 10
52.4924057139
 20
166.041090021
 10
52.43035546229999
 20
165.4409698845
 10
52.4924057139
 20
164.7692080525
 10
52.67544500999999
 20
164.0594894681999
 10
52.97029499589999
 20
163.3474023848999
 10
53.36217066229999
 20
162.6686538224999
 10
53.8314217268
 20
162.0572790681
 10
54.35451798169999
 20
161.5439350046999
 10
54.9052291964
 20
161.1543628471999
  0
LINE
  5
1E9
330
1F
100
AcDbEntity
  8
0
  6
Continuous
 62
     7
370
    15
100
AcDbLine
 10
54.9052291964
 20
161.1543628471999
 30
0.0
 11
57.02654953999999
 21
159.9297506795
 31
0.0
  0
LWPOLYLINE
  5
1EA
330
1F
100
AcDbEntity
  8
0
  6
Continuous
 62
     7
370
    15
100
AcDbPolyline
 90
       15
 70
   128
 43
0.0
 10
57.02654953999999
 20
134.0045799021
 10
57.57726075469999
 20
133.7583144252
 10
58.1003570096
 20
133.6677044083
 10
58.5696080741
 20
133.7372934158
 10
58.9614837405
 20
133.9635919645
 10
59.2563337264
 20
134.3352525001999
 10
59.4393730225
 20
134.8336384115
 10
59.5014232741
 20
135.4337585479999
 10
59.4393730225
 20
136.1055203800999
 10
59.2563337264
 20
136.8152389644
 10
58.9614837405
 20
137.5273260476
 10
58.5696080741
 20
138.20607461
 10
58.1003570096
 20
138.8174493644
 10
57.57726075469999
 20
139.3307934278
 10
57.02654953999999
 20
139.7203655853
  0
LINE
  5
1EB
330
1F
100
AcDbEntity
  8
0
  6
Continuous
 62
     7
370
    15
100
AcDbLine
 10
57.02654953999999
 20
139.7203655853
 30
0.0
 11
54.9052291964
 21
140.9449777529999
 31
0.0
  0
LWPOLYLINE
  5
1EC
330
1F
100
AcDbEntity
  8
0
  6
Continuous
 62
     7
370
    15
100
AcDbPolyline
 90
       15
 70
   128
 43
0.0
 10
54.9052291964
 20
140.9449777529999
 10
54.35451798169999
 20
141.1912432299
 10
53.8314217268
 20
141.2818532468999
 10
53.36217066229999
 20
141.2122642393
 10
52.97029499589999
 20
140.9859656905999
 10
52.67544500999999
 20
140.614305155
 10
52.4924057139
 20
140.1159192436
 10
52.43035546229999
 20
139.5157991070999
 10
52.4924057139
 20
138.8440372750999
 10
52.67544500999999
 20
138.1343186907999
 10
52.97029499589999
 20
137.4222316075
 10
53.36217066229999
 20
136.7434830451
 10
53.8314217268
 20
136.1321082906999
 10
54.35451798169999
 20
135.6187642273
 10
54.9052291964
 20
135.2291920698
  0
LINE
  5
1ED
330
1F
100
AcDbEntity
  8
0
  6
Continuous
 62
     7
370
    15
100
AcDbLine
 10
54.9052291964
 20
135.2291920698
 30
0.0
 11
57.02654953999999
 21
134.0045799021
 31
0.0
  0
LWPOLYLINE
  5
1EE
330
1F
100
AcDbEntity
  8
0
  6
Continuous
 62
     7
370
    15
100
AcDbPolyline
 90
       15
 70
   128
 43
0.0
 10
57.02654953999999
 20
97.7093408138
 10
57.57726075469999
 20
97.4630753369
 10
58.1003570096
 20
97.37246532
 10
58.5696080741
 20
97.4420543275
 10
58.9614837405
 20
97.66835287620001
 10
59.2563337264
 20
98.04001341180001
 10
59.4393730225
 20
98.53839932319999
 10
59.5014232741
 20
99.1385194597
 10
59.4393730225
 20
99.81028129169999
 10
59.2563337264
 20
100.5199998761
 10
58.9614837405
 20
101.2320869593
 10
58.5696080741
 20
101.9108355216999
 10
58.1003570096
 20
102.5222102761
 10
57.57726075469999
 20
103.0355543395
 10
57.02654953999999
 20
103.425126497
  0
LINE
  5
1EF
330
1F
100
AcDbEntity
  8
0
  6
Continuous
 62
     7
370
    15
100
AcDbLine
 10
57.02654953999999
 20
103.425126497
 30
0.0
 11
54.9052291964
 21
104.6497386646999
 31
0.0
  0
LWPOLYLINE
  5
1F0
330
1F
100
AcDbEntity
  8
0
  6
Continuous
 62
     7
370
    15
100
AcDbPolyline
 90
       15
 70
   128
 43
0.0
 10
54.9052291964
 20
104.6497386646999
 10
54.35451798169999
 20
104.8960041416
 10
53.8314217268
 20
104.9866141586
 10
53.36217066229999
 20
104.917025151
 10
52.97029499589999
 20
104.6907266022999
 10
52.67544500999999
 20
104.3190660667
 10
52.4924057139
 20
103.8206801553
 10
52.43035546229999
 20
103.2205600187999
 10
52.4924057139
 20
102.5487981868
 10
52.67544500999999
 20
101.8390796025
 10
52.97029499589999
 20
101.1269925192
 10
53.36217066229999
 20
100.4482439568
 10
53.8314217268
 20
99.8368692024
 10
54.35451798169999
 20
99.32352513899999
 10
54.9052291964
 20
98.9339529815
  0
LINE
  5
1F1
330
1F
100
AcDbEntity
  8
0
  6
Continuous
 62
     7
370
    15
100
AcDbLine
 10
54.9052291964
 20
98.9339529815
 30
0.0
 11
57.02654953999999
 21
97.7093408138
 31
0.0
  0
LWPOLYLINE
  5
1F2
330
1F
100
AcDbEntity
  8
0
  6
Continuous
 62
     7
370
    15
100
AcDbPolyline
 90
       15
 70
   128
 43
0.0
 10
57.02654953999999
 20
123.6345115912
 10
57.57726075469999
 20
123.3882461143
 10
58.1003570096
 20
123.2976360973
 10
58.5696080741
 20
123.3672251049
 10
58.9614837405
 20
123.5935236536
 10
59.2563337264
 20
123.9651841891999
 10
59.4393730225
 20
124.4635701006
 10
59.5014232741
 20
125.0636902371
 10
59.4393730225
 20
125.7354520690999
 10
59.2563337264
 20
126.4451706533999
 10
58.9614837405
 20
127.1572577367
 10
58.5696080741
 20
127.8360062990999
 10
58.1003570096
 20
128.4473810535
 10
57.57726075469999
 20
128.9607251168999
 10
57.02654953999999
 20
129.3502972743999
  0
LINE
  5
1F3
330
1F
100
AcDbEntity
  8
0
  6
Continuous
 62
     7
370
    15
100
AcDbLine
 10
57.02654953999999
 20
129.3502972743999
 30
0.0
 11
54.9052291964
 21
130.5749094420999
 31
0.0
  0
LWPOLYLINE
  5
1F4
330
1F
100
AcDbEntity
  8
0
  6
Continuous
 62
     7
370
    15
100
AcDbPolyline
 90
       15
 70
   128
 43
0.0
 10
54.9052291964
 20
130.5749094420999
 10
54.35451798169999
 20
130.8211749189999
 10
53.8314217268
 20
130.9117849358999
 10
53.36217066229999
 20
130.8421959284
 10
52.97029499589999
 20
130.6158973796999
 10
52.67544500999999
 20
130.2442368440999
 10
52.4924057139
 20
129.7458509326999
 10
52.43035546229999
 20
129.1457307962
 10
52.4924057139
 20
128.4739689641
 10
52.67544500999999
 20
127.7642503797999
 10
52.97029499589999
 20
127.0521632966
 10
53.36217066229999
 20
126.3734147342
 10
53.8314217268
 20
125.7620399797999
 10
54.35451798169999
 20
125.2486959163999
 10
54.9052291964
 20
124.8591237589
  0
LINE
  5
1F5
330
1F
100
AcDbEntity
  8
0
  6
Continuous
 62
     7
370
    15
100
AcDbLine
 10
54.9052291964
 20
124.8591237589
 30
0.0
 11
57.02654953999999
 21
123.6345115912
 31
0.0
  0
ARC
  5
1F6
330
1F
100
AcDbEntity
  8
0
  6
Continuous
 62
     7
370
    15
100
AcDbCircle
 10
52.3159454471
 20
172.6669712395
 30
0.0
 40
0.8732306336685118
100
AcDbArc
 50
110.7834207995
 51
249.2165792004999
  0
LINE
  5
1F7
330
1F
100
AcDbEntity
  8
0
  6
Continuous
 62
     7
370
    15
100
AcDbLine
 10
63.1076678582
 20
165.4417594498999
 30
0.0
 11
52.0060913936
 21
171.8505631277
 31
0.0
  0
ARC
  5
1F8
330
1F
100
AcDbEntity
  8
0
  6
Continuous
 62
     7
370
    15
100
AcDbCircle
 10
51.4324578401
 20
172.6669712395
 30
0.0
 40
1.571815140603381
100
AcDbArc
 50
110.7834207995
 51
249.2165792004999
  0
LINE
  5
1F9
330
1F
100
AcDbEntity
  8
0
  6
Continuous
 62
     7
370
    15
100
AcDbLine
 10
50.8747205437
 20
174.1365058408
 30
0.0
 11
51.29898461239999
 21
174.3814282742999
 31
0.0
  0
LINE
  5
1FA
330
1F
100
AcDbEntity
  8
0
  6
Continuous
 62
     7
370
    15
100
AcDbLine
 10
51.29898461239999
 20
174.3814282742999
 30
0.0
 11
52.43035546229999
 21
173.7283017849
 31
0.0
  0
LINE
  5
1FB
330
1F
100
AcDbEntity
  8
0
  6
Continuous
 62
     7
370
    15
100
AcDbLine
 10
52.0060913936
 20
173.4833793513
 30
0.0
 11
52.43035546229999
 21
173.7283017849
 31
0.0
  0
LINE
  5
1FC
330
1F
100
AcDbEntity
  8
0
  6
Continuous
 62
     7
370
    15
100
AcDbLine
 10
52.0060913936
 20
173.4833793513
 30
0.0
 11
52.0060913936
 21
171.8505631277
 31
0.0
  0
ARC
  5
1FD
330
1F
100
AcDbEntity
  8
0
  6
Continuous
 62
     7
370
    15
100
AcDbCircle
 10
-73.56228599079999
 20
280.9888854018999
 30
0.0
 40
165.4659436203903
100
AcDbArc
 50
319.5914454164999
 51
331.0585548304999
  0
LINE
  5
1FE
330
1F
100
AcDbEntity
  8
0
  6
Continuous
 62
     7
370
    15
100
AcDbLine
 10
86.93716638419999
 20
209.9794759511
 30
0.0
 11
71.2393958418
 21
200.9173459098
 31
0.0
  0
LINE
  5
1FF
330
1F
100
AcDbEntity
  8
0
  6
Continuous
 62
     7
370
    15
100
AcDbLine
 10
86.93716638419999
 20
209.9794759511
 30
0.0
 11
86.93716638419999
 21
32.7901197719
 31
0.0
  0
LINE
  5
200
330
1F
100
AcDbEntity
  8
0
  6
Continuous
 62
     7
370
    15
100
AcDbLine
 10
86.93716638419999
 20
32.7901197719
 30
0.0
 11
62.6834037895
 21
18.7887206541
 31
0.0
  0
LWPOLYLINE
  5
201
330
1F
100
AcDbEntity
  8
0
  6
Continuous
 62
     7
370
    15
100
AcDbPolyline
 90
        3
 70
   128
 43
0.0
 10
62.6834037895
 20
18.7887206541
 10
61.52300167609999
 20
20.2576098522
 10
61.1064697688
 20
20.7630498337
  0
ARC
  5
202
330
1F
100
AcDbEntity
  8
0
  6
Continuous
 62
     7
370
    15
100
AcDbCircle
 10
-74.6936568407
 20
281.6420118913999
 30
0.0
 40
165.4659436203914
100
AcDbArc
 50
319.5914454164999
 51
331.0585548304999
  0
LINE
  5
203
330
1F
100
AcDbEntity
  8
0
  6
Continuous
 62
     7
370
    15
100
AcDbLine
 10
70.10802499189999
 20
201.5704723993
 30
0.0
 11
71.2393958418
 21
200.9173459098
 31
0.0
  0
LINE
  5
204
330
1F
100
AcDbEntity
  8
0
  6
Continuous
 62
     7
370
    15
100
AcDbLine
 10
58.1579203899
 20
160.5828771688999
 30
0.0
 11
57.02654953999999
 21
159.9297506795
 31
0.0
  0
ARC
  5
205
330
1F
100
AcDbEntity
  8
0
  6
Continuous
 62
     7
370
    15
100
AcDbCircle
 10
59.3126172866
 20
162.3855697038
 30
0.0
 40
2.140800153860018
100
AcDbArc
 50
237.3588080504
 51
268.2747722308
  0
LINE
  5
206
330
1F
100
AcDbEntity
  8
0
  6
Continuous
 62
     7
370
    15
100
AcDbLine
 10
56.0366000463
 20
161.8074893366999
 30
0.0
 11
54.9052291964
 21
161.1543628471999
 31
0.0
  0
LWPOLYLINE
  5
207
330
1F
100
AcDbEntity
  8
0
  6
Continuous
 62
     7
370
    15
100
AcDbPolyline
 90
       11
 70
   128
 43
0.0
 10
53.8149839891
 20
167.2072857267
 10
53.8068158599
 20
167.1926024217999
 10
53.6237765638
 20
166.6942165103999
 10
53.5617263122
 20
166.094096374
 10
53.6237765638
 20
165.4223345419
 10
53.8068158599
 20
164.7126159576
 10
54.1016658458
 20
164.0005288743999
 10
54.4935415122
 20
163.321780312
 10
54.9627925767
 20
162.7104055574999
 10
55.4858888316
 20
162.1970614942
 10
56.0366000463
 20
161.8074893366999
  0
ARC
  5
208
330
1F
100
AcDbEntity
  8
0
  6
Continuous
 62
     7
370
    15
100
AcDbCircle
 10
51.62195038090001
 20
28.3189104926
 30
0.0
 40
1.810581402577639
100
AcDbArc
 50
185.6947992511999
 51
245.6253417064
  0
LINE
  5
209
330
1F
100
AcDbEntity
  8
0
  6
Continuous
 62
     7
370
    15
100
AcDbLine
 10
56.0366000463
 20
161.8074893366999
 30
0.0
 11
58.1579203899
 21
160.5828771688999
 31
0.0
  0
LINE
  5
20A
330
1F
100
AcDbEntity
  8
0
  6
Continuous
 62
     7
370
    15
100
AcDbLine
 10
86.93716638419999
 20
209.9794759511
 30
0.0
 11
85.8057955343
 21
210.6326024404999
 31
0.0
  0
LINE
  5
20B
330
1F
100
AcDbEntity
  8
0
  6
Continuous
 62
     7
370
    15
100
AcDbLine
 10
85.8057955343
 20
210.6326024404999
 30
0.0
 11
70.10802499189999
 21
201.5704723993
 31
0.0
  0
LINE
  5
20C
330
1F
100
AcDbEntity
  8
0
  6
Continuous
 62
     7
370
    15
100
AcDbLine
 10
58.1579203899
 20
134.6577063915999
 30
0.0
 11
57.02654953999999
 21
134.0045799021
 31
0.0
  0
ARC
  5
20D
330
1F
100
AcDbEntity
  8
0
  6
Continuous
 62
     7
370
    15
100
AcDbCircle
 10
59.3126172866
 20
136.4603989265
 30
0.0
 40
2.14080015386025
100
AcDbArc
 50
237.3588080504
 51
268.2747722308
  0
LINE
  5
20E
330
1F
100
AcDbEntity
  8
0
  6
Continuous
 62
     7
370
    15
100
AcDbLine
 10
56.0366000463
 20
135.8823185592999
 30
0.0
 11
54.9052291964
 21
135.2291920698
 31
0.0
  0
LWPOLYLINE
  5
20F
330
1F
100
AcDbEntity
  8
0
  6
Continuous
 62
     7
370
    15
100
AcDbPolyline
 90
       11
 70
   128
 43
0.0
 10
53.8149839891
 20
141.2821149493
 10
53.8068158599
 20
141.2674316445
 10
53.6237765638
 20
140.7690457331
 10
53.5617263122
 20
140.1689255965999
 10
53.6237765638
 20
139.4971637645999
 10
53.8068158599
 20
138.7874451802
 10
54.1016658458
 20
138.075358097
 10
54.4935415122
 20
137.3966095346
 10
54.9627925767
 20
136.7852347801999
 10
55.4858888316
 20
136.2718907168
 10
56.0366000463
 20
135.8823185592999
  0
LINE
  5
210
330
1F
100
AcDbEntity
  8
0
  6
Continuous
 62
     7
370
    15
100
AcDbLine
 10
56.0366000463
 20
135.8823185592999
 30
0.0
 11
58.1579203899
 21
134.6577063915999
 31
0.0
  0
LINE
  5
211
330
1F
100
AcDbEntity
  8
0
  6
Continuous
 62
     7
370
    15
100
AcDbLine
 10
58.1579203899
 20
124.2876380805999
 30
0.0
 11
57.02654953999999
 21
123.6345115912
 31
0.0
  0
ARC
  5
212
330
1F
100
AcDbEntity
  8
0
  6
Continuous
 62
     7
370
    15
100
AcDbCircle
 10
59.3126172866
 20
126.0903306154999
 30
0.0
 40
2.140800153862798
100
AcDbArc
 50
237.3588080504999
 51
268.2747722307
  0
ARC
  5
213
330
1F
100
AcDbEntity
  8
0
  6
Continuous
 62
     7
370
    15
100
AcDbCircle
 10
86.3794290877
 20
211.4490105524
 30
0.0
 40
1.571815140603461
100
AcDbArc
 50
290.7834207995
 51
69.21657920050001
  0
ARC
  5
214
330
1F
100
AcDbEntity
  8
0
  6
Continuous
 62
     7
370
    15
100
AcDbCircle
 10
86.18993654689999
 20
34.43931733
 30
0.0
 40
1.810581402577746
100
AcDbArc
 50
294.3746582936
 51
354.3052007487999
  0
ARC
  5
215
330
1F
100
AcDbEntity
  8
0
  6
Continuous
 62
     7
370
    15
100
AcDbCircle
 10
85.49594148069999
 20
211.4490105524
 30
0.0
 40
0.8732306336685676
100
AcDbArc
 50
290.7834207995
 51
69.21657920050001
  0
LINE
  5
216
330
1F
100
AcDbEntity
  8
0
  6
Continuous
 62
     7
370
    15
100
AcDbLine
 10
85.8057955343
 20
212.2654186641999
 30
0.0
 11
86.93716638419999
 21
212.9185451536
 31
0.0
  0
LINE
  5
217
330
1F
100
AcDbEntity
  8
0
  6
Continuous
 62
     7
370
    15
100
AcDbLine
 10
85.8057955343
 20
212.2654186641999
 30
0.0
 11
85.8057955343
 21
210.6326024404999
 31
0.0
  0
LINE
  5
218
330
1F
100
AcDbEntity
  8
0
  6
Continuous
 62
     7
370
    15
100
AcDbLine
 10
53.2788835997
 20
231.0428052361
 30
0.0
 11
51.86467003729999
 21
230.2261317240999
 31
0.0
  0
LINE
  5
219
330
1F
100
AcDbEntity
  8
0
  6
Continuous
 62
     7
370
    15
100
AcDbLine
 10
53.2788835997
 20
231.0428052361
 30
0.0
 11
85.8057955343
 21
212.2654186641999
 31
0.0
  0
LINE
  5
21A
330
1F
100
AcDbEntity
  8
0
  6
Continuous
 62
     7
370
    15
100
AcDbLine
 10
51.86467003729999
 20
230.2261317240999
 30
0.0
 11
51.86467003729999
 21
175.046975329
 31
0.0
  0
LWPOLYLINE
  5
21B
330
1F
100
AcDbEntity
  8
0
  6
Continuous
 62
     7
370
    15
100
AcDbPolyline
 90
       21
 70
   128
 43
0.0
 10
60.17317471630001
 20
199.7086984927999
 10
60.1126102451
 20
200.1852303458
 10
59.9368453041
 20
200.6850421908999
 10
59.6630849903
 20
201.1592089620999
 10
59.3181268706
 20
201.5613159122999
 10
58.9357378492
 20
201.8520020113999
 10
58.5533488278
 20
202.0028128788999
 10
58.2083907081
 20
201.9989860961
 10
57.9346303943
 20
201.8408962552999
 10
57.75886545319999
 20
201.5440182916
 10
57.6983009821
 20
201.1374126884999
 10
57.75886545319999
 20
200.6608808354
 10
57.9346303943
 20
200.1610689904
 10
58.2083907081
 20
199.6869022191
 10
58.5533488278
 20
199.284795269
 10
58.9357378492
 20
198.9941091698
 10
59.3181268706
 20
198.8432983024
 10
59.6630849903
 20
198.8471250851999
 10
59.9368453041
 20
199.0052149259999
 10
60.1126102451
 20
199.3020928897
 10
60.17317471630001
 20
199.7086984927999
  0
LINE
  5
21C
330
1F
100
AcDbEntity
  8
0
  6
Continuous
 62
     7
370
    15
100
AcDbLine
 10
54.41025444960001
 20
231.6959317256
 30
0.0
 11
53.2788835997
 21
231.0428052361
 31
0.0
  0
LINE
  5
21D
330
1F
100
AcDbEntity
  8
0
  6
Continuous
 62
     7
370
    15
100
AcDbLine
 10
54.41025444960001
 20
231.6959317256
 30
0.0
 11
86.93716638419999
 21
212.9185451536
 31
0.0
  0
LINE
  5
21E
330
1F
100
AcDbEntity
  8
0
  6
Continuous
 62
     7
370
    15
100
AcDbLine
 10
56.0366000463
 20
125.5122502484
 30
0.0
 11
54.9052291964
 21
124.8591237589
 31
0.0
  0
LWPOLYLINE
  5
21F
330
1F
100
AcDbEntity
  8
0
  6
Continuous
 62
     7
370
    15
100
AcDbPolyline
 90
       11
 70
   128
 43
0.0
 10
53.8149839891
 20
130.9120466383999
 10
53.8068158599
 20
130.8973633335
 10
53.6237765638
 20
130.3989774220999
 10
53.5617263122
 20
129.7988572856
 10
53.6237765638
 20
129.1270954535999
 10
53.8068158599
 20
128.4173768692999
 10
54.1016658458
 20
127.7052897861
 10
54.4935415122
 20
127.0265412237
 10
54.9627925767
 20
126.4151664692
 10
55.4858888316
 20
125.9018224058
 10
56.0366000463
 20
125.5122502484
  0
LINE
  5
220
330
1F
100
AcDbEntity
  8
0
  6
Continuous
 62
     7
370
    15
100
AcDbLine
 10
56.0366000463
 20
125.5122502484
 30
0.0
 11
58.1579203899
 21
124.2876380805999
 31
0.0
  0
LINE
  5
221
330
1F
100
AcDbEntity
  8
0
  6
Continuous
 62
     7
370
    15
100
AcDbLine
 10
58.1579203899
 20
98.36246730319999
 30
0.0
 11
57.02654953999999
 21
97.7093408138
 31
0.0
  0
ARC
  5
222
330
1F
100
AcDbEntity
  8
0
  6
Continuous
 62
     7
370
    15
100
AcDbCircle
 10
59.3126172866
 20
100.1651598380999
 30
0.0
 40
2.140800153860133
100
AcDbArc
 50
237.3588080504
 51
268.2747722308
  0
LINE
  5
223
330
1F
100
AcDbEntity
  8
0
  6
Continuous
 62
     7
370
    15
100
AcDbLine
 10
56.0366000463
 20
99.58707947100002
 30
0.0
 11
54.9052291964
 21
98.9339529815
 31
0.0
  0
LWPOLYLINE
  5
224
330
1F
100
AcDbEntity
  8
0
  6
Continuous
 62
     7
370
    15
100
AcDbPolyline
 90
       11
 70
   128
 43
0.0
 10
53.8149839891
 20
104.9868758609999
 10
53.8068158599
 20
104.9721925561
 10
53.6237765638
 20
104.4738066447999
 10
53.5617263122
 20
103.8736865083
 10
53.6237765638
 20
103.2019246762
 10
53.8068158599
 20
102.4922060918999
 10
54.1016658458
 20
101.7801190087
 10
54.4935415122
 20
101.1013704462999
 10
54.9627925767
 20
100.4899956919
 10
55.4858888316
 20
99.97665162850001
 10
56.0366000463
 20
99.58707947100002
  0
LINE
  5
225
330
1F
100
AcDbEntity
  8
0
  6
Continuous
 62
     7
370
    15
100
AcDbLine
 10
56.0366000463
 20
99.58707947100002
 30
0.0
 11
58.1579203899
 21
98.36246730319999
 31
0.0
  0
LINE
  5
226
330
1F
100
AcDbEntity
  8
0
  6
Continuous
 62
     7
370
    15
100
AcDbLine
 10
58.1579203899
 20
87.9923989923
 30
0.0
 11
57.02654953999999
 21
87.3392725028
 31
0.0
  0
ARC
  5
227
330
1F
100
AcDbEntity
  8
0
  6
Continuous
 62
     7
370
    15
100
AcDbCircle
 10
59.3126172866
 20
89.79509152719998
 30
0.0
 40
2.140800153857136
100
AcDbArc
 50
237.3588080504
 51
268.2747722308
  0
LINE
  5
228
330
1F
100
AcDbEntity
  8
0
  6
Continuous
 62
     7
370
    15
100
AcDbLine
 10
56.0366000463
 20
89.21701115999999
 30
0.0
 11
54.9052291964
 21
88.56388467059998
 31
0.0
  0
LWPOLYLINE
  5
229
330
1F
100
AcDbEntity
  8
0
  6
Continuous
 62
     7
370
    15
100
AcDbPolyline
 90
       11
 70
   128
 43
0.0
 10
53.8149839891
 20
94.6168075501
 10
53.8068158599
 20
94.60212424519999
 10
53.6237765638
 20
94.10373833379999
 10
53.5617263122
 20
93.5036181973
 10
53.6237765638
 20
92.83185636530001
 10
53.8068158599
 20
92.122137781
 10
54.1016658458
 20
91.41005069770001
 10
54.4935415122
 20
90.73130213530001
 10
54.9627925767
 20
90.11992738089999
 10
55.4858888316
 20
89.6065833175
 10
56.0366000463
 20
89.21701115999999
  0
LINE
  5
22A
330
1F
100
AcDbEntity
  8
0
  6
Continuous
 62
     7
370
    15
100
AcDbLine
 10
56.0366000463
 20
89.21701115999999
 30
0.0
 11
58.1579203899
 21
87.9923989923
 31
0.0
  0
LWPOLYLINE
  5
22B
330
1F
100
AcDbEntity
  8
0
  6
Continuous
 62
     7
370
    15
100
AcDbPolyline
 90
        3
 70
   128
 43
0.0
 10
58.1225650508
 20
201.382335122
 10
58.183129522
 20
201.7889407250999
 10
58.299038222
 20
202.0158956908
  0
ARC
  5
22C
330
1F
100
AcDbEntity
  8
0
  6
Continuous
 62
     7
370
    15
100
AcDbCircle
 10
60.4215285926
 20
201.335004195
 30
0.0
 40
2.299450713361109
100
AcDbArc
 50
178.8205644615
 51
259.3533533387999
  0
LINE
  5
22D
330
1F
100
AcDbEntity
  8
0
  6
Continuous
 62
     7
370
    15
100
AcDbLine
 10
58.1579203899
 20
62.0672282149
 30
0.0
 11
57.02654953999999
 21
61.4141017255
 31
0.0
  0
ARC
  5
22E
330
1F
100
AcDbEntity
  8
0
  6
Continuous
 62
     7
370
    15
100
AcDbCircle
 10
59.3126172866
 20
63.8699207498
 30
0.0
 40
2.14080015385847
100
AcDbArc
 50
237.3588080504
 51
268.2747722308
  0
LINE
  5
22F
330
1F
100
AcDbEntity
  8
0
  6
Continuous
 62
     7
370
    15
100
AcDbLine
 10
56.0366000463
 20
63.2918403827
 30
0.0
 11
54.9052291964
 21
62.6387138932
 31
0.0
  0
LWPOLYLINE
  5
230
330
1F
100
AcDbEntity
  8
0
  6
Continuous
 62
     7
370
    15
100
AcDbPolyline
 90
       11
 70
   128
 43
0.0
 10
53.8149839891
 20
68.69163677270001
 10
53.8068158599
 20
68.6769534678
 10
53.6237765638
 20
68.1785675564
 10
53.5617263122
 20
67.57844742
 10
53.6237765638
 20
66.9066855879
 10
53.8068158599
 20
66.19696700359999
 10
54.1016658458
 20
65.4848799204
 10
54.4935415122
 20
64.806131358
 10
54.9627925767
 20
64.19475660350001
 10
55.4858888316
 20
63.68141254010001
 10
56.0366000463
 20
63.2918403827
  0
LINE
  5
231
330
1F
100
AcDbEntity
  8
0
  6
Continuous
 62
     7
370
    15
100
AcDbLine
 10
56.0366000463
 20
63.2918403827
 30
0.0
 11
58.1579203899
 21
62.0672282149
 31
0.0
  0
LINE
  5
232
330
1F
100
AcDbEntity
  8
0
  6
Continuous
 62
     7
370
    15
100
AcDbLine
 10
58.1579203899
 20
51.697159904
 30
0.0
 11
57.02654953999999
 21
51.0440334145
 31
0.0
  0
ARC
  5
233
330
1F
100
AcDbEntity
  8
0
  6
Continuous
 62
     7
370
    15
100
AcDbCircle
 10
59.3126172866
 20
53.4998524389
 30
0.0
 40
2.140800153860741
100
AcDbArc
 50
237.3588080504
 51
268.2747722308
  0
LINE
  5
234
330
1F
100
AcDbEntity
  8
0
  6
Continuous
 62
     7
370
    15
100
AcDbLine
 10
56.0366000463
 20
52.92177207169999
 30
0.0
 11
54.9052291964
 21
52.26864558229999
 31
0.0
  0
LWPOLYLINE
  5
235
330
1F
100
AcDbEntity
  8
0
  6
Continuous
 62
     7
370
    15
100
AcDbPolyline
 90
       11
 70
   128
 43
0.0
 10
53.8149839891
 20
58.32156846170001
 10
53.8068158599
 20
58.30688515689999
 10
53.6237765638
 20
57.8084992455
 10
53.5617263122
 20
57.208379109
 10
53.6237765638
 20
56.536617277
 10
53.8068158599
 20
55.82689869260001
 10
54.1016658458
 20
55.11481160939999
 10
54.4935415122
 20
54.436063047
 10
54.9627925767
 20
53.8246882926
 10
55.4858888316
 20
53.3113442292
 10
56.0366000463
 20
52.92177207169999
  0
LINE
  5
236
330
1F
100
AcDbEntity
  8
0
  6
Continuous
 62
     7
370
    15
100
AcDbLine
 10
56.0366000463
 20
52.92177207169999
 30
0.0
 11
58.1579203899
 21
51.697159904
 31
0.0
  0
LINE
  5
237
330
1F
100
AcDbEntity
  8
0
  6
Continuous
 62
     7
370
    15
100
AcDbLine
 10
58.1579203899
 20
25.7719891266
 30
0.0
 11
57.02654953999999
 21
25.1188626371
 31
0.0
  0
ARC
  5
238
330
1F
100
AcDbEntity
  8
0
  6
Continuous
 62
     7
370
    15
100
AcDbCircle
 10
59.3126172866
 20
27.5746816615
 30
0.0
 40
2.140800153858979
100
AcDbArc
 50
237.3588080504
 51
268.2747722308
  0
LINE
  5
239
330
1F
100
AcDbEntity
  8
0
  6
Continuous
 62
     7
370
    15
100
AcDbLine
 10
56.0366000463
 20
26.9966012943
 30
0.0
 11
54.9052291964
 21
26.34347480489999
 31
0.0
  0
LWPOLYLINE
  5
23A
330
1F
100
AcDbEntity
  8
0
  6
Continuous
 62
     7
370
    15
100
AcDbPolyline
 90
       11
 70
   128
 43
0.0
 10
53.8149839891
 20
32.3963976844
 10
53.8068158599
 20
32.38171437949999
 10
53.6237765638
 20
31.8833284681
 10
53.5617263122
 20
31.2832083316
 10
53.6237765638
 20
30.6114464996
 10
53.8068158599
 20
29.9017279153
 10
54.1016658458
 20
29.189640832
 10
54.4935415122
 20
28.5108922696
 10
54.9627925767
 20
27.8995175152
 10
55.4858888316
 20
27.38617345179999
 10
56.0366000463
 20
26.9966012943
  0
LINE
  5
23B
330
1F
100
AcDbEntity
  8
0
  6
Continuous
 62
     7
370
    15
100
AcDbLine
 10
56.0366000463
 20
26.9966012943
 30
0.0
 11
58.1579203899
 21
25.7719891266
 31
0.0
  0
LINE
  5
23C
330
1F
100
AcDbEntity
  8
0
  6
Continuous
 62
     7
370
    15
100
AcDbLine
 10
61.5520329396
 20
19.4418471436
 30
0.0
 11
62.6834037895
 21
18.7887206541
 31
0.0
  0
LWPOLYLINE
  5
23D
330
1F
100
AcDbEntity
  8
0
  6
Continuous
 62
     7
370
    15
100
AcDbPolyline
 90
        3
 70
   128
 43
0.0
 10
61.5520329396
 20
19.4418471436
 10
60.3916308262
 20
20.9107363417
 10
59.9750989189
 20
21.4161763231
  0
LINE
  5
23E
330
1F
100
AcDbEntity
  8
0
  6
CENTERX2
 62
     7
100
AcDbLine
 10
450.1689914187
 20
341.3688173824
 30
0.0
 11
450.1689914187
 21
124.3688173823999
 31
0.0
  0
LINE
  5
23F
330
1F
100
AcDbEntity
  8
0
  6
CENTERX2
 62
     7
100
AcDbLine
 10
396.3707617036
 20
321.3688173824
 30
0.0
 11
396.3707617036
 21
144.3688173824
 31
0.0
  0
LINE
  5
240
330
1F
100
AcDbEntity
  8
0
  6
Continuous
 62
     7
370
    15
100
AcDbLine
 10
385.4716468460999
 20
185.5688173824
 30
0.0
 11
388.4716468460999
 21
185.5688173824
 31
0.0
  0
ARC
  5
241
330
1F
100
AcDbEntity
  8
0
  6
Continuous
 62
     7
370
    15
100
AcDbCircle
 10
385.4716468460999
 20
182.0688173824
 30
0.0
 40
3.500000000000028
100
AcDbArc
 50
90.0
 51
270.0
  0
LINE
  5
242
330
1F
100
AcDbEntity
  8
0
  6
Continuous
 62
     7
370
    15
100
AcDbLine
 10
388.4716468460999
 20
178.5688173824
 30
0.0
 11
385.4716468460999
 21
178.5688173824
 31
0.0
  0
ARC
  5
243
330
1F
100
AcDbEntity
  8
0
  6
Continuous
 62
     7
370
    15
100
AcDbCircle
 10
388.4716468460999
 20
182.0688173824
 30
0.0
 40
3.500000000000028
100
AcDbArc
 50
270.0
 51
90.0
  0
LINE
  5
244
330
1F
100
AcDbEntity
  8
0
  6
Continuous
 62
     7
370
    15
100
AcDbLine
 10
385.4716468460999
 20
230.0188173824
 30
0.0
 11
388.4716468460999
 21
230.0188173824
 31
0.0
  0
ARC
  5
245
330
1F
100
AcDbEntity
  8
0
  6
Continuous
 62
     7
370
    15
100
AcDbCircle
 10
385.4716468460999
 20
226.5188173824
 30
0.0
 40
3.5
100
AcDbArc
 50
90.0
 51
270.0
  0
LINE
  5
246
330
1F
100
AcDbEntity
  8
0
  6
Continuous
 62
     7
370
    15
100
AcDbLine
 10
388.4716468460999
 20
223.0188173824
 30
0.0
 11
385.4716468460999
 21
223.0188173824
 31
0.0
  0
ARC
  5
247
330
1F
100
AcDbEntity
  8
0
  6
Continuous
 62
     7
370
    15
100
AcDbCircle
 10
388.4716468460999
 20
226.5188173824
 30
0.0
 40
3.5
100
AcDbArc
 50
270.0
 51
90.0
  0
LINE
  5
248
330
1F
100
AcDbEntity
  8
0
  6
Continuous
 62
     7
370
    15
100
AcDbLine
 10
385.4716468460999
 20
153.8188173823999
 30
0.0
 11
388.4716468460999
 21
153.8188173823999
 31
0.0
  0
ARC
  5
249
330
1F
100
AcDbEntity
  8
0
  6
Continuous
 62
     7
370
    15
100
AcDbCircle
 10
385.4716468460999
 20
150.3188173824
 30
0.0
 40
3.500000000000028
100
AcDbArc
 50
90.0
 51
270.0
  0
LINE
  5
24A
330
1F
100
AcDbEntity
  8
0
  6
Continuous
 62
     7
370
    15
100
AcDbLine
 10
388.4716468460999
 20
146.8188173823999
 30
0.0
 11
385.4716468460999
 21
146.8188173823999
 31
0.0
  0
ARC
  5
24B
330
1F
100
AcDbEntity
  8
0
  6
Continuous
 62
     7
370
    15
100
AcDbCircle
 10
388.4716468460999
 20
150.3188173824
 30
0.0
 40
3.500000000000028
100
AcDbArc
 50
270.0
 51
90.0
  0
LINE
  5
24C
330
1F
100
AcDbEntity
  8
0
  6
Continuous
 62
     7
370
    15
100
AcDbLine
 10
385.4716468460999
 20
198.2688173824
 30
0.0
 11
388.4716468460999
 21
198.2688173824
 31
0.0
  0
ARC
  5
24D
330
1F
100
AcDbEntity
  8
0
  6
Continuous
 62
     7
370
    15
100
AcDbCircle
 10
385.4716468460999
 20
194.7688173824
 30
0.0
 40
3.500000000000028
100
AcDbArc
 50
90.0
 51
270.0
  0
LINE
  5
24E
330
1F
100
AcDbEntity
  8
0
  6
Continuous
 62
     7
370
    15
100
AcDbLine
 10
388.4716468460999
 20
191.2688173824
 30
0.0
 11
385.4716468460999
 21
191.2688173824
 31
0.0
  0
ARC
  5
24F
330
1F
100
AcDbEntity
  8
0
  6
Continuous
 62
     7
370
    15
100
AcDbCircle
 10
388.4716468460999
 20
194.7688173824
 30
0.0
 40
3.500000000000028
100
AcDbArc
 50
270.0
 51
90.0
  0
LINE
  5
250
330
1F
100
AcDbEntity
  8
0
  6
Continuous
 62
     7
370
    15
100
AcDbLine
 10
385.4716468460999
 20
318.9188173824
 30
0.0
 11
388.4716468460999
 21
318.9188173824
 31
0.0
  0
ARC
  5
251
330
1F
100
AcDbEntity
  8
0
  6
Continuous
 62
     7
370
    15
100
AcDbCircle
 10
385.4716468460999
 20
315.4188173824
 30
0.0
 40
3.5
100
AcDbArc
 50
90.0
 51
270.0
  0
LINE
  5
252
330
1F
100
AcDbEntity
  8
0
  6
Continuous
 62
     7
370
    15
100
AcDbLine
 10
388.4716468460999
 20
311.9188173823999
 30
0.0
 11
385.4716468460999
 21
311.9188173823999
 31
0.0
  0
ARC
  5
253
330
1F
100
AcDbEntity
  8
0
  6
Continuous
 62
     7
370
    15
100
AcDbCircle
 10
388.4716468460999
 20
315.4188173824
 30
0.0
 40
3.5
100
AcDbArc
 50
270.0
 51
90.0
  0
LINE
  5
254
330
1F
100
AcDbEntity
  8
0
  6
Continuous
 62
     7
370
    15
100
AcDbLine
 10
385.4716468460999
 20
287.1688173823999
 30
0.0
 11
388.4716468460999
 21
287.1688173823999
 31
0.0
  0
ARC
  5
255
330
1F
100
AcDbEntity
  8
0
  6
Continuous
 62
     7
370
    15
100
AcDbCircle
 10
385.4716468460999
 20
283.6688173824
 30
0.0
 40
3.5
100
AcDbArc
 50
90.0
 51
270.0
  0
LINE
  5
256
330
1F
100
AcDbEntity
  8
0
  6
Continuous
 62
     7
370
    15
100
AcDbLine
 10
388.4716468460999
 20
280.1688173824
 30
0.0
 11
385.4716468460999
 21
280.1688173824
 31
0.0
  0
ARC
  5
257
330
1F
100
AcDbEntity
  8
0
  6
Continuous
 62
     7
370
    15
100
AcDbCircle
 10
388.4716468460999
 20
283.6688173824
 30
0.0
 40
3.5
100
AcDbArc
 50
270.0
 51
90.0
  0
LINE
  5
258
330
1F
100
AcDbEntity
  8
0
  6
Continuous
 62
     7
370
    15
100
AcDbLine
 10
385.4716468460999
 20
242.7188173824
 30
0.0
 11
388.4716468460999
 21
242.7188173824
 31
0.0
  0
ARC
  5
259
330
1F
100
AcDbEntity
  8
0
  6
Continuous
 62
     7
370
    15
100
AcDbCircle
 10
385.4716468460999
 20
239.2188173824
 30
0.0
 40
3.500000000000028
100
AcDbArc
 50
90.0
 51
270.0
  0
LINE
  5
25A
330
1F
100
AcDbEntity
  8
0
  6
Continuous
 62
     7
370
    15
100
AcDbLine
 10
388.4716468460999
 20
235.7188173823999
 30
0.0
 11
385.4716468460999
 21
235.7188173823999
 31
0.0
  0
ARC
  5
25B
330
1F
100
AcDbEntity
  8
0
  6
Continuous
 62
     7
370
    15
100
AcDbCircle
 10
388.4716468460999
 20
239.2188173824
 30
0.0
 40
3.500000000000028
100
AcDbArc
 50
270.0
 51
90.0
  0
LINE
  5
25C
330
1F
100
AcDbEntity
  8
0
  6
Continuous
 62
     7
370
    15
100
AcDbLine
 10
385.4716468460999
 20
274.4688173824
 30
0.0
 11
388.4716468460999
 21
274.4688173824
 31
0.0
  0
ARC
  5
25D
330
1F
100
AcDbEntity
  8
0
  6
Continuous
 62
     7
370
    15
100
AcDbCircle
 10
385.4716468460999
 20
270.9688173823999
 30
0.0
 40
3.5
100
AcDbArc
 50
90.0
 51
270.0
  0
LINE
  5
25E
330
1F
100
AcDbEntity
  8
0
  6
Continuous
 62
     7
370
    15
100
AcDbLine
 10
388.4716468460999
 20
267.4688173824
 30
0.0
 11
385.4716468460999
 21
267.4688173824
 31
0.0
  0
ARC
  5
25F
330
1F
100
AcDbEntity
  8
0
  6
Continuous
 62
     7
370
    15
100
AcDbCircle
 10
388.4716468460999
 20
270.9688173823999
 30
0.0
 40
3.5
100
AcDbArc
 50
270.0
 51
90.0
  0
CIRCLE
  5
260
330
1F
100
AcDbEntity
  8
0
  6
Continuous
 62
     7
370
    15
100
AcDbCircle
 10
458.4681062762
 20
243.5188173824
 30
0.0
 40
3.75
  0
CIRCLE
  5
261
330
1F
100
AcDbEntity
  8
0
  6
Continuous
 62
     7
370
    15
100
AcDbCircle
 10
458.4681062762
 20
133.5188173823999
 30
0.0
 40
3.75
  0
CIRCLE
  5
262
330
1F
100
AcDbEntity
  8
0
  6
Continuous
 62
     7
370
    15
100
AcDbCircle
 10
460.3681062761999
 20
307.8688173824
 30
0.0
 40
3.482050807568838
  0
CIRCLE
  5
263
330
1F
100
AcDbEntity
  8
0
  6
Continuous
 62
     7
370
    15
100
AcDbCircle
 10
490.3681062762
 20
307.8688173824
 30
0.0
 40
3.482050807568725
  0
CIRCLE
  5
264
330
1F
100
AcDbEntity
  8
0
  6
Continuous
 62
     7
370
    15
100
AcDbCircle
 10
475.3681062762
 20
262.8688173824
 30
0.0
 40
3.482050807568896
  0
CIRCLE
  5
265
330
1F
100
AcDbEntity
  8
0
  6
Continuous
 62
     7
370
    15
100
AcDbCircle
 10
475.3681062762
 20
202.8688173824
 30
0.0
 40
3.482050807568896
  0
CIRCLE
  5
266
330
1F
100
AcDbEntity
  8
0
  6
Continuous
 62
     7
370
    15
100
AcDbCircle
 10
460.3681062761999
 20
157.8688173824
 30
0.0
 40
3.482050807568783
  0
CIRCLE
  5
267
330
1F
100
AcDbEntity
  8
0
  6
Continuous
 62
     7
370
    15
100
AcDbCircle
 10
490.3681062762
 20
157.8688173824
 30
0.0
 40
3.482050807568783
  0
CIRCLE
  5
268
330
1F
100
AcDbEntity
  8
0
  6
Continuous
 62
     7
370
    15
100
AcDbCircle
 10
458.4681062762
 20
283.5688173824
 30
0.0
 40
3.75
  0
LINE
  5
269
330
1F
100
AcDbEntity
  8
0
  6
Continuous
 62
     7
370
    15
100
AcDbLine
 10
378.4716468460999
 20
321.3688173824
 30
0.0
 11
399.1698765611
 21
321.3688173824
 31
0.0
  0
ARC
  5
26A
330
1F
100
AcDbEntity
  8
0
  6
Continuous
 62
     7
370
    15
100
AcDbCircle
 10
354.4308775415
 20
408.5606860785
 30
0.0
 40
98.0
100
AcDbArc
 50
297.1628020662
 51
316.7147233984
  0
LINE
  5
26B
330
1F
100
AcDbEntity
  8
0
  6
Continuous
 62
     7
370
    15
100
AcDbLine
 10
498.3681062762
 20
341.3688173824
 30
0.0
 11
425.7698765611
 21
341.3688173824
 31
0.0
  0
LINE
  5
26C
330
1F
100
AcDbEntity
  8
0
  6
Continuous
 62
     7
370
    15
100
AcDbLine
 10
500.3681062762
 20
339.3688173824
 30
0.0
 11
498.3681062762
 21
341.3688173824
 31
0.0
  0
LINE
  5
26D
330
1F
100
AcDbEntity
  8
0
  6
Continuous
 62
     7
370
    15
100
AcDbLine
 10
500.3681062762
 20
339.3688173824
 30
0.0
 11
500.3681062762
 21
126.3688173824
 31
0.0
  0
LINE
  5
26E
330
1F
100
AcDbEntity
  8
0
  6
Continuous
 62
     7
370
    15
100
AcDbLine
 10
498.3681062762
 20
124.3688173823999
 30
0.0
 11
500.3681062762
 21
126.3688173824
 31
0.0
  0
LINE
  5
26F
330
1F
100
AcDbEntity
  8
0
  6
Continuous
 62
     7
370
    15
100
AcDbLine
 10
498.3681062762
 20
124.3688173823999
 30
0.0
 11
413.6698765611
 21
124.3688173823999
 31
0.0
  0
ARC
  5
270
330
1F
100
AcDbEntity
  8
0
  6
Continuous
 62
     7
370
    15
100
AcDbCircle
 10
277.2687705133999
 20
40.7342654978
 30
0.0
 40
160.0
100
AcDbArc
 50
31.5146089661
 51
40.3696147767
  0
LINE
  5
271
330
1F
100
AcDbEntity
  8
0
  6
Continuous
 62
     7
370
    15
100
AcDbLine
 10
399.1698765611
 20
144.3688173824
 30
0.0
 11
378.4716468460999
 21
144.3688173824
 31
0.0
  0
LINE
  5
272
330
1F
100
AcDbEntity
  8
0
  6
Continuous
 62
     7
370
    15
100
AcDbLine
 10
378.4716468460999
 20
321.3688173824
 30
0.0
 11
378.4716468460999
 21
144.3688173824
 31
0.0
  0
CIRCLE
  5
273
330
1F
100
AcDbEntity
  8
0
  6
Continuous
 62
     7
370
    15
100
AcDbCircle
 10
460.3681062761999
 20
307.8688173824
 30
0.0
 40
1.750000000000056
  0
CIRCLE
  5
274
330
1F
100
AcDbEntity
  8
0
  6
Continuous
 62
     7
370
    15
100
AcDbCircle
 10
460.3681062761999
 20
157.8688173824
 30
0.0
 40
1.75
  0
CIRCLE
  5
275
330
1F
100
AcDbEntity
  8
0
  6
Continuous
 62
     7
370
    15
100
AcDbCircle
 10
475.3681062762
 20
202.8688173824
 30
0.0
 40
1.750000000000056
  0
CIRCLE
  5
276
330
1F
100
AcDbEntity
  8
0
  6
Continuous
 62
     7
370
    15
100
AcDbCircle
 10
475.3681062762
 20
262.8688173824
 30
0.0
 40
1.75
  0
CIRCLE
  5
277
330
1F
100
AcDbEntity
  8
0
  6
Continuous
 62
     7
370
    15
100
AcDbCircle
 10
490.3681062762
 20
157.8688173824
 30
0.0
 40
1.75
  0
CIRCLE
  5
278
330
1F
100
AcDbEntity
  8
0
  6
Continuous
 62
     7
370
    15
100
AcDbCircle
 10
490.3681062762
 20
307.8688173824
 30
0.0
 40
1.749999999999943
  0
DIMENSION
  5
279
330
1F
100
AcDbEntity
  8
0
100
AcDbDimension
  2
*D12
 10
540.3681062762001
 20
341.3688173824
 30
0.0
 11
540.3681062762
 21
238.0128883740999
 31
0.0
 70
   160
 71
     2
 42
217.0
  3
ISO-25
100
AcDbAlignedDimension
 13
498.3681062762
 23
124.3688173823999
 33
0.0
 14
498.3681062762
 24
341.3688173824
 34
0.0
 50
90.0
100
AcDbRotatedDimension
1001
ACAD
1000
DSTYLE
1002
{
1070
    41
1040
3.0
1070
    42
1040
1.0
1070
    44
1040
1.0
1070
    78
1070
     0
1070
   140
1040
3.5
1070
   147
1040
0.5
1070
   179
1070
     2
1070
   284
1070
     0
1002
}
  0
DIMENSION
  5
283
330
1F
100
AcDbEntity
  8
0
100
AcDbDimension
  2
*D13
 10
500.3681062762
 20
357.3688173823999
 30
0.0
 11
440.3778403673
 21
357.3688173823999
 31
0.0
 70
   160
 71
     2
 42
121.8964594301
  3
ISO-25
100
AcDbAlignedDimension
 13
378.4716468460999
 23
321.3688173824
 33
0.0
 14
500.3681062762
 24
339.3688173824
 34
0.0
100
AcDbRotatedDimension
1001
ACAD
1000
DSTYLE
1002
{
1070
    41
1040
3.0
1070
    42
1040
1.0
1070
    44
1040
1.0
1070
    78
1070
     0
1070
   140
1040
3.5
1070
   147
1040
0.5
1070
   179
1070
     2
1070
   284
1070
     0
1002
}
  0
MTEXT
  5
28E
330
1F
100
AcDbEntity
  8
0
  6
Continuous
 62
     7
370
     0
100
AcDbMText
 10
445.657634479
 20
211.7983295850999
 30
0.0
 40
3.5
 41
0.0
 71
     1
 72
     1
  1
DOWN  90.00  R 2 
  7
SLDTEXTSTYLE2
 11
-0.0000000000000035
 21
1.0
 31
0.0
 73
     1
 44
1.0
  0
MTEXT
  5
290
330
1F
100
AcDbEntity
  8
0
  6
Continuous
 62
     7
370
     0
100
AcDbMText
 10
391.859404764
 20
216.6181232117999
 30
0.0
 40
3.5
 41
0.0
 71
     1
 72
     1
  1
UP  90.00  R 2 
  7
SLDTEXTSTYLE3
 11
-0.0000000000000035
 21
1.0
 31
0.0
 73
     1
 44
1.0
  0
INSERT
  5
2C2
330
1F
100
AcDbEntity
  8
0
  6
Continuous
 62
     1
370
     0
100
AcDbBlockReference
  2
SW_CENTERMARKSYMBOL_8
 10
475.3681062762
 20
262.8688173824
 30
0.0
  0
INSERT
  5
2CE
330
1F
100
AcDbEntity
  8
0
  6
Continuous
 62
     1
370
     0
100
AcDbBlockReference
  2
SW_CENTERMARKSYMBOL_9
 10
475.3681062762
 20
202.8688173824
 30
0.0
  0
INSERT
  5
2DA
330
1F
100
AcDbEntity
  8
0
  6
Continuous
 62
     1
370
     0
100
AcDbBlockReference
  2
SW_CENTERMARKSYMBOL_10
 10
458.4681062762
 20
243.5188173824
 30
0.0
  0
INSERT
  5
2E6
330
1F
100
AcDbEntity
  8
0
  6
Continuous
 62
     1
370
     0
100
AcDbBlockReference
  2
SW_CENTERMARKSYMBOL_11
 10
458.4681062762
 20
133.5188173823999
 30
0.0
  0
LINE
  5
2F3
330
1F
100
AcDbEntity
  8
0
 62
     1
100
AcDbLine
 10
249.752626263
 20
343.0002690028999
 30
0.0
 11
254.7526262629999
 21
343.0002690028999
 31
0.0
  0
LINE
  5
2F4
330
1F
100
AcDbEntity
  8
0
 62
     1
100
AcDbLine
 10
252.252626263
 20
340.5002690028999
 30
0.0
 11
252.252626263
 21
345.5002690029
 31
0.0
  0
LINE
  5
2F5
330
1F
100
AcDbEntity
  8
0
 62
     1
100
AcDbLine
 10
279.7526262629999
 20
343.0002690028999
 30
0.0
 11
284.7526262629999
 21
343.0002690028999
 31
0.0
  0
LINE
  5
2F6
330
1F
100
AcDbEntity
  8
0
 62
     1
100
AcDbLine
 10
282.2526262629999
 20
340.5002690028999
 30
0.0
 11
282.2526262629999
 21
345.5002690029
 31
0.0
  0
LINE
  5
2F7
330
1F
100
AcDbEntity
  8
0
 62
     1
100
AcDbLine
 10
249.752626263
 20
193.0002690029
 30
0.0
 11
254.7526262629999
 21
193.0002690029
 31
0.0
  0
LINE
  5
2F8
330
1F
100
AcDbEntity
  8
0
 62
     1
100
AcDbLine
 10
252.252626263
 20
190.5002690029
 30
0.0
 11
252.252626263
 21
195.5002690028999
 31
0.0
  0
LINE
  5
2F9
330
1F
100
AcDbEntity
  8
0
 62
     1
100
AcDbLine
 10
279.7526262629999
 20
193.0002690029
 30
0.0
 11
284.7526262629999
 21
193.0002690029
 31
0.0
  0
LINE
  5
2FA
330
1F
100
AcDbEntity
  8
0
 62
     1
100
AcDbLine
 10
282.2526262629999
 20
190.5002690029
 30
0.0
 11
282.2526262629999
 21
195.5002690028999
 31
0.0
  0
DIMENSION
  5
3BC
330
1F
100
AcDbEntity
  8
0
100
AcDbDimension
  2
*D30
 10
293.8526262629999
 20
128.62210507302
 30
0.0
 11
268.0526262629999
 21
131.1637717396867
 31
0.0
 70
    32
 71
     5
 42
51.59999999999993
  3
ISO-25
100
AcDbAlignedDimension
 13
242.2526262629999
 23
107.8194520547999
 33
0.0
 14
293.8526262629999
 24
101.7026191478871
 34
0.0
100
AcDbRotatedDimension
1001
ACAD
1000
DSTYLE
1002
{
1070
    41
1040
3.0
1070
    42
1040
1.0
1070
    44
1040
1.0
1070
    78
1070
     0
1070
   140
1040
3.5
1070
   147
1040
0.5
1070
   179
1070
     2
1070
   284
1070
     0
1002
}
  0
DIMENSION
  5
3C9
330
1F
100
AcDbEntity
  8
0
100
AcDbDimension
  2
*D31
 10
348.3052705803638
 20
51.21945205479999
 30
0.0
 11
345.7636039136971
 21
79.51945205480004
 31
0.0
 70
    32
 71
     5
 42
56.59999999999999
  3
ISO-25
100
AcDbAlignedDimension
 13
287.902626263
 23
107.8194520547999
 33
0.0
 14
311.5526262629999
 24
51.21945205479999
 34
0.0
 50
90.0
100
AcDbRotatedDimension
1001
ACAD
1000
DSTYLE
1002
{
1070
    41
1040
3.0
1070
    42
1040
1.0
1070
    44
1040
1.0
1070
    78
1070
     0
1070
   140
1040
3.5
1070
   147
1040
0.5
1070
   179
1070
     2
1070
   284
1070
     0
1002
}
  0
DIMENSION
  5
3D6
330
1F
100
AcDbEntity
  8
0
100
AcDbDimension
  2
*D32
 10
311.5526262629999
 20
23.14098497220402
 30
0.0
 11
276.902626263
 21
25.68265163887069
 31
0.0
 70
    32
 71
     5
 42
69.29999999999998
  3
ISO-25
100
AcDbAlignedDimension
 13
242.2526262629999
 23
106.2194520548
 33
0.0
 14
311.5526262629999
 24
51.21945205479999
 34
0.0
100
AcDbRotatedDimension
1001
ACAD
1000
DSTYLE
1002
{
1070
    41
1040
3.0
1070
    42
1040
1.0
1070
    44
1040
1.0
1070
    78
1070
     0
1070
   140
1040
3.5
1070
   147
1040
0.5
1070
   179
1070
     2
1070
   284
1070
     0
1002
}
  0
DIMENSION
  5
3E3
330
1F
100
AcDbEntity
  8
0
100
AcDbDimension
  2
*D33
 10
311.5526262629999
 20
36.48075999377761
 30
0.0
 11
301.902626263
 21
39.02242666044427
 31
0.0
 70
    32
 71
     5
 42
19.30000000000001
  3
ISO-25
100
AcDbAlignedDimension
 13
292.2526262629999
 23
54.81945205479999
 33
0.0
 14
311.5526262629999
 24
52.0194520548
 34
0.0
100
AcDbRotatedDimension
1001
ACAD
1000
DSTYLE
1002
{
1070
    41
1040
3.0
1070
    42
1040
1.0
1070
    44
1040
1.0
1070
    78
1070
     0
1070
   140
1040
3.5
1070
   147
1040
0.5
1070
   179
1070
     2
1070
   284
1070
     0
1002
}
  0
DIMENSION
  5
414
330
1F
100
AcDbEntity
  8
0
100
AcDbDimension
  2
*D34
 10
328.2901537587022
 20
51.21945205479999
 30
0.0
 11
325.7484870920355
 21
40.05278538813338
 31
0.0
 70
    32
 71
     5
 42
1.600000000000001
  3
ISO-25
100
AcDbAlignedDimension
 13
311.5526262629999
 23
52.81945205479999
 33
0.0
 14
311.5526262629999
 24
51.21945205479999
 34
0.0
 50
90.0
100
AcDbRotatedDimension
1001
ACAD
1000
DSTYLE
1002
{
1070
    41
1040
3.0
1070
    42
1040
1.0
1070
    44
1040
1.0
1070
    78
1070
     0
1070
   140
1040
3.5
1070
   147
1040
0.5
1070
   179
1070
     2
1070
   284
1070
     0
1002
}
  0
LINE
  5
424
330
1F
100
AcDbEntity
  8
0
 62
     1
100
AcDbLine
 10
281.652626263
 20
318.7002690029
 30
0.0
 11
286.6526262629999
 21
318.7002690029
 31
0.0
  0
LINE
  5
425
330
1F
100
AcDbEntity
  8
0
 62
     1
100
AcDbLine
 10
284.1526262629999
 20
316.2002690029
 30
0.0
 11
284.1526262629999
 21
321.2002690029
 31
0.0
  0
LINE
  5
426
330
1F
100
AcDbEntity
  8
0
 62
     1
100
AcDbLine
 10
455.9681062762
 20
283.5688173824
 30
0.0
 11
460.9681062762
 21
283.5688173824
 31
0.0
  0
LINE
  5
427
330
1F
100
AcDbEntity
  8
0
 62
     1
100
AcDbLine
 10
458.4681062762
 20
281.0688173824
 30
0.0
 11
458.4681062762
 21
286.0688173824
 31
0.0
  0
LINE
  5
428
330
1F
100
AcDbEntity
  8
0
 62
     1
100
AcDbLine
 10
457.8681062762
 20
307.8688173824
 30
0.0
 11
462.8681062762
 21
307.8688173824
 31
0.0
  0
LINE
  5
429
330
1F
100
AcDbEntity
  8
0
 62
     1
100
AcDbLine
 10
460.3681062761999
 20
305.3688173824
 30
0.0
 11
460.3681062761999
 21
310.3688173824
 31
0.0
  0
LINE
  5
42A
330
1F
100
AcDbEntity
  8
0
 62
     1
100
AcDbLine
 10
457.8681062762
 20
157.8688173824
 30
0.0
 11
462.8681062762
 21
157.8688173824
 31
0.0
  0
LINE
  5
42B
330
1F
100
AcDbEntity
  8
0
 62
     1
100
AcDbLine
 10
460.3681062761999
 20
155.3688173823999
 30
0.0
 11
460.3681062761999
 21
160.3688173824
 31
0.0
  0
LINE
  5
42C
330
1F
100
AcDbEntity
  8
0
 62
     1
100
AcDbLine
 10
487.8681062762
 20
157.8688173824
 30
0.0
 11
492.8681062762
 21
157.8688173824
 31
0.0
  0
LINE
  5
42D
330
1F
100
AcDbEntity
  8
0
 62
     1
100
AcDbLine
 10
490.3681062762
 20
155.3688173823999
 30
0.0
 11
490.3681062762
 21
160.3688173824
 31
0.0
  0
LINE
  5
42E
330
1F
100
AcDbEntity
  8
0
 62
     1
100
AcDbLine
 10
487.8681062762
 20
307.8688173824
 30
0.0
 11
492.8681062762
 21
307.8688173824
 31
0.0
  0
LINE
  5
42F
330
1F
100
AcDbEntity
  8
0
 62
     1
100
AcDbLine
 10
490.3681062762
 20
305.3688173824
 30
0.0
 11
490.3681062762
 21
310.3688173824
 31
0.0
  0
ENDSEC
  0
SECTION
  2
OBJECTS
  0
DICTIONARY
  5
C
330
0
100
AcDbDictionary
281
     1
  3
ACAD_GROUP
350
D
  3
ACAD_LAYOUT
350
1A
  3
ACAD_MLEADERSTYLE
350
2E9
  3
ACAD_MLINESTYLE
350
17
  3
ACAD_PLOTSETTINGS
350
19
  3
ACAD_PLOTSTYLENAME
350
E
  3
ACAD_SCALELIST
350
63
  3
ACAD_VISUALSTYLE
350
2A
  3
AcDbVariableDictionary
350
2E7
  0
DICTIONARY
  5
D
102
{ACAD_REACTORS
330
C
102
}
330
C
100
AcDbDictionary
281
     1
  0
DICTIONARY
  5
1A
102
{ACAD_REACTORS
330
C
102
}
330
C
100
AcDbDictionary
281
     1
  3
Layout1
350
1E
  3
Layout2
350
26
  3
Model
350
22
  0
DICTIONARY
  5
2E9
102
{ACAD_REACTORS
330
C
102
}
330
C
100
AcDbDictionary
281
     1
  0
DICTIONARY
  5
17
102
{ACAD_REACTORS
330
C
102
}
330
C
100
AcDbDictionary
281
     1
  3
Standard
350
18
  0
DICTIONARY
  5
19
102
{ACAD_REACTORS
330
C
102
}
330
C
100
AcDbDictionary
281
     1
  0
ACDBDICTIONARYWDFLT
  5
E
102
{ACAD_REACTORS
330
C
102
}
330
C
100
AcDbDictionary
281
     1
  3
Normal
350
F
100
AcDbDictionaryWithDefault
340
F
  0
DICTIONARY
  5
63
102
{ACAD_REACTORS
330
C
102
}
330
C
100
AcDbDictionary
281
     1
  3
A0
350
64
  3
A1
350
65
  3
A2
350
66
  3
A3
350
67
  3
A4
350
68
  3
A5
350
69
  3
A6
350
6A
  3
A7
350
6B
  3
A8
350
6C
  3
A9
350
6D
  3
B0
350
6E
  3
B1
350
6F
  3
B2
350
70
  3
B3
350
71
  3
B4
350
72
  3
B5
350
73
  3
B6
350
74
  3
B7
350
75
  3
B8
350
76
  3
B9
350
77
  3
C0
350
78
  3
C1
350
79
  3
C2
350
7A
  3
C3
350
7B
  3
C4
350
7C
  3
C5
350
7D
  3
C6
350
7E
  3
C7
350
7F
  3
C8
350
80
  3
C9
350
81
  3
D0
350
82
  3
D1
350
83
  3
D2
350
84
  0
DICTIONARY
  5
2A
102
{ACAD_REACTORS
330
C
102
}
330
C
100
AcDbDictionary
281
     1
  3
2dWireframe
350
2F
  3
3D Hidden
350
31
  3
3dWireframe
350
30
  3
Basic
350
32
  3
Brighten
350
36
  3
ColorChange
350
3A
  3
Conceptual
350
34
  3
Dim
350
35
  3
Facepattern
350
39
  3
Flat
350
2B
  3
FlatWithEdges
350
2C
  3
Gouraud
350
2D
  3
GouraudWithEdges
350
2E
  3
Linepattern
350
38
  3
Realistic
350
33
  3
Thicken
350
37
  0
DICTIONARY
  5
2E7
102
{ACAD_REACTORS
330
C
102
}
330
C
100
AcDbDictionary
281
     1
  3
CANNOSCALE
350
2EC
  3
DIMASSOC
350
2ED
  3
HIDETEXT
350
2EE
  3
PSOLHEIGHT
350
2EB
  3
PSOLWIDTH
350
2EA
  0
LAYOUT
  5
1E
102
{ACAD_REACTORS
330
1A
102
}
330
1A
100
AcDbPlotSettings
  1

  2
none_device
  4

  6

 40
0.0
 41
0.0
 42
0.0
 43
0.0
 44
0.0
 45
0.0
 46
0.0
 47
0.0
 48
0.0
 49
0.0
140
0.0
141
0.0
142
1.0
143
1.0
 70
   688
 72
     0
 73
     0
 74
     5
  7

 75
    16
147
1.0
148
0.0
149
0.0
100
AcDbLayout
  1
Layout1
 70
     1
 71
     1
 10
0.0
 20
0.0
 11
420.0
 21
297.0
 12
0.0
 22
0.0
 32
0.0
 14
1.000000000000000E+20
 24
1.000000000000000E+20
 34
1.000000000000000E+20
 15
-1.000000000000000E+20
 25
-1.000000000000000E+20
 35
-1.000000000000000E+20
146
0.0
 13
0.0
 23
0.0
 33
0.0
 16
1.0
 26
0.0
 36
0.0
 17
0.0
 27
1.0
 37
0.0
 76
     0
330
1B
  0
LAYOUT
  5
26
102
{ACAD_REACTORS
330
1A
102
}
330
1A
100
AcDbPlotSettings
  1

  2
none_device
  4

  6

 40
0.0
 41
0.0
 42
0.0
 43
0.0
 44
0.0
 45
0.0
 46
0.0
 47
0.0
 48
0.0
 49
0.0
140
0.0
141
0.0
142
1.0
143
1.0
 70
   688
 72
     0
 73
     0
 74
     5
  7

 75
    16
147
1.0
148
0.0
149
0.0
100
AcDbLayout
  1
Layout2
 70
     1
 71
     2
 10
0.0
 20
0.0
 11
0.0
 21
0.0
 12
0.0
 22
0.0
 32
0.0
 14
0.0
 24
0.0
 34
0.0
 15
0.0
 25
0.0
 35
0.0
146
0.0
 13
0.0
 23
0.0
 33
0.0
 16
1.0
 26
0.0
 36
0.0
 17
0.0
 27
1.0
 37
0.0
 76
     0
330
23
  0
LAYOUT
  5
22
102
{ACAD_REACTORS
330
1A
102
}
330
1A
100
AcDbPlotSettings
  1

  2
none_device
  4

  6

 40
0.0
 41
0.0
 42
0.0
 43
0.0
 44
0.0
 45
0.0
 46
0.0
 47
0.0
 48
0.0
 49
0.0
140
0.0
141
0.0
142
1.0
143
1.0
 70
  1712
 72
     0
 73
     0
 74
     0
  7

 75
     0
147
1.0
148
0.0
149
0.0
100
AcDbLayout
  1
Model
 70
     1
 71
     0
 10
0.0
 20
0.0
 11
594.0
 21
420.0
 12
0.0
 22
0.0
 32
0.0
 14
0.0
 24
0.0
 34
0.0
 15
594.0
 25
420.0
 35
0.0
146
0.0
 13
0.0
 23
0.0
 33
0.0
 16
1.0
 26
0.0
 36
0.0
 17
0.0
 27
1.0
 37
0.0
 76
     0
330
1F
331
29
  0
MLINESTYLE
  5
18
102
{ACAD_REACTORS
330
17
102
}
330
17
100
AcDbMlineStyle
  2
STANDARD
 70
     0
  3

 62
   256
 51
90.0
 52
90.0
 71
     2
 49
0.5
 62
   256
  6
BYLAYER
 49
-0.5
 62
   256
  6
BYLAYER
  0
ACDBPLACEHOLDER
  5
F
102
{ACAD_REACTORS
330
E
102
}
330
E
  0
SCALE
  5
64
102
{ACAD_REACTORS
330
63
102
}
330
63
100
AcDbScale
 70
     0
300
1:1
140
1.0
141
1.0
290
     1
  0
SCALE
  5
65
102
{ACAD_REACTORS
330
63
102
}
330
63
100
AcDbScale
 70
     0
300
1:2
140
1.0
141
2.0
290
     0
  0
SCALE
  5
66
102
{ACAD_REACTORS
330
63
102
}
330
63
100
AcDbScale
 70
     0
300
1:4
140
1.0
141
4.0
290
     0
  0
SCALE
  5
67
102
{ACAD_REACTORS
330
63
102
}
330
63
100
AcDbScale
 70
     0
300
1:5
140
1.0
141
5.0
290
     0
  0
SCALE
  5
68
102
{ACAD_REACTORS
330
63
102
}
330
63
100
AcDbScale
 70
     0
300
1:8
140
1.0
141
8.0
290
     0
  0
SCALE
  5
69
102
{ACAD_REACTORS
330
63
102
}
330
63
100
AcDbScale
 70
     0
300
1:10
140
1.0
141
10.0
290
     0
  0
SCALE
  5
6A
102
{ACAD_REACTORS
330
63
102
}
330
63
100
AcDbScale
 70
     0
300
1:16
140
1.0
141
16.0
290
     0
  0
SCALE
  5
6B
102
{ACAD_REACTORS
330
63
102
}
330
63
100
AcDbScale
 70
     0
300
1:20
140
1.0
141
20.0
290
     0
  0
SCALE
  5
6C
102
{ACAD_REACTORS
330
63
102
}
330
63
100
AcDbScale
 70
     0
300
1:30
140
1.0
141
30.0
290
     0
  0
SCALE
  5
6D
102
{ACAD_REACTORS
330
63
102
}
330
63
100
AcDbScale
 70
     0
300
1:40
140
1.0
141
40.0
290
     0
  0
SCALE
  5
6E
102
{ACAD_REACTORS
330
63
102
}
330
63
100
AcDbScale
 70
     0
300
1:50
140
1.0
141
50.0
290
     0
  0
SCALE
  5
6F
102
{ACAD_REACTORS
330
63
102
}
330
63
100
AcDbScale
 70
     0
300
1:100
140
1.0
141
100.0
290
     0
  0
SCALE
  5
70
102
{ACAD_REACTORS
330
63
102
}
330
63
100
AcDbScale
 70
     0
300
2:1
140
2.0
141
1.0
290
     0
  0
SCALE
  5
71
102
{ACAD_REACTORS
330
63
102
}
330
63
100
AcDbScale
 70
     0
300
4:1
140
4.0
141
1.0
290
     0
  0
SCALE
  5
72
102
{ACAD_REACTORS
330
63
102
}
330
63
100
AcDbScale
 70
     0
300
8:1
140
8.0
141
1.0
290
     0
  0
SCALE
  5
73
102
{ACAD_REACTORS
330
63
102
}
330
63
100
AcDbScale
 70
     0
300
10:1
140
10.0
141
1.0
290
     0
  0
SCALE
  5
74
102
{ACAD_REACTORS
330
63
102
}
330
63
100
AcDbScale
 70
     0
300
100:1
140
100.0
141
1.0
290
     0
  0
SCALE
  5
75
102
{ACAD_REACTORS
330
63
102
}
330
63
100
AcDbScale
 70
     0
300
1/128" = 1'-0"
140
0.0078125
141
12.0
290
     0
  0
SCALE
  5
76
102
{ACAD_REACTORS
330
63
102
}
330
63
100
AcDbScale
 70
     0
300
1/64" = 1'-0"
140
0.015625
141
12.0
290
     0
  0
SCALE
  5
77
102
{ACAD_REACTORS
330
63
102
}
330
63
100
AcDbScale
 70
     0
300
1/32" = 1'-0"
140
0.03125
141
12.0
290
     0
  0
SCALE
  5
78
102
{ACAD_REACTORS
330
63
102
}
330
63
100
AcDbScale
 70
     0
300
1/16" = 1'-0"
140
0.0625
141
12.0
290
     0
  0
SCALE
  5
79
102
{ACAD_REACTORS
330
63
102
}
330
63
100
AcDbScale
 70
     0
300
3/32" = 1'-0"
140
0.09375
141
12.0
290
     0
  0
SCALE
  5
7A
102
{ACAD_REACTORS
330
63
102
}
330
63
100
AcDbScale
 70
     0
300
1/8" = 1'-0"
140
0.125
141
12.0
290
     0
  0
SCALE
  5
7B
102
{ACAD_REACTORS
330
63
102
}
330
63
100
AcDbScale
 70
     0
300
3/16" = 1'-0"
140
0.1875
141
12.0
290
     0
  0
SCALE
  5
7C
102
{ACAD_REACTORS
330
63
102
}
330
63
100
AcDbScale
 70
     0
300
1/4" = 1'-0"
140
0.25
141
12.0
290
     0
  0
SCALE
  5
7D
102
{ACAD_REACTORS
330
63
102
}
330
63
100
AcDbScale
 70
     0
300
3/8" = 1'-0"
140
0.375
141
12.0
290
     0
  0
SCALE
  5
7E
102
{ACAD_REACTORS
330
63
102
}
330
63
100
AcDbScale
 70
     0
300
1/2" = 1'-0"
140
0.5
141
12.0
290
     0
  0
SCALE
  5
7F
102
{ACAD_REACTORS
330
63
102
}
330
63
100
AcDbScale
 70
     0
300
3/4" = 1'-0"
140
0.75
141
12.0
290
     0
  0
SCALE
  5
80
102
{ACAD_REACTORS
330
63
102
}
330
63
100
AcDbScale
 70
     0
300
1" = 1'-0"
140
1.0
141
12.0
290
     0
  0
SCALE
  5
81
102
{ACAD_REACTORS
330
63
102
}
330
63
100
AcDbScale
 70
     0
300
1-1/2" = 1'-0"
140
1.5
141
12.0
290
     0
  0
SCALE
  5
82
102
{ACAD_REACTORS
330
63
102
}
330
63
100
AcDbScale
 70
     0
300
3" = 1'-0"
140
3.0
141
12.0
290
     0
  0
SCALE
  5
83
102
{ACAD_REACTORS
330
63
102
}
330
63
100
AcDbScale
 70
     0
300
6" = 1'-0"
140
6.0
141
12.0
290
     0
  0
SCALE
  5
84
102
{ACAD_REACTORS
330
63
102
}
330
63
100
AcDbScale
 70
     0
300
1'-0" = 1'-0"
140
12.0
141
12.0
290
     0
  0
VISUALSTYLE
  5
2F
102
{ACAD_REACTORS
330
2A
102
}
330
2A
100
AcDbVisualStyle
  2
2dWireframe
 70
     4
 71
     0
 72
     2
 73
     0
 90
        0
 40
-0.6
 41
-30.0
 62
     5
 63
     7
 74
     1
 91
        4
 64
     7
 65
   257
 75
     1
175
     1
 42
1.0
 92
        0
 66
   257
 43
1.0
 76
     1
 77
     6
 78
     2
 67
     7
 79
     5
170
     0
171
     0
290
     0
174
     0
 93
        1
 44
0.0
173
     0
291
     0
 45
0.0
1001
ACAD
1000
AcDbSavedByObjectVersion
1070
     0
  0
VISUALSTYLE
  5
31
102
{ACAD_REACTORS
330
2A
102
}
330
2A
100
AcDbVisualStyle
  2
3D Hidden
 70
     6
 71
     1
 72
     2
 73
     2
 90
        0
 40
-0.6
 41
-30.0
 62
     5
 63
     7
 74
     2
 91
        2
 64
     7
 65
   257
 75
     2
175
     1
 42
40.0
 92
        0
 66
   257
 43
1.0
 76
     1
 77
     6
 78
     2
 67
     7
 79
     3
170
     0
171
     0
290
     0
174
     0
 93
        1
 44
0.0
173
     0
291
     0
 45
0.0
1001
ACAD
1000
AcDbSavedByObjectVersion
1070
     0
  0
VISUALSTYLE
  5
30
102
{ACAD_REACTORS
330
2A
102
}
330
2A
100
AcDbVisualStyle
  2
3dWireframe
 70
     5
 71
     0
 72
     2
 73
     0
 90
        0
 40
-0.6
 41
-30.0
 62
     5
 63
     7
 74
     1
 91
        4
 64
     7
 65
   257
 75
     1
175
     1
 42
1.0
 92
        0
 66
   257
 43
1.0
 76
     1
 77
     6
 78
     2
 67
     7
 79
     5
170
     0
171
     0
290
     0
174
     0
 93
        1
 44
0.0
173
     0
291
     0
 45
0.0
1001
ACAD
1000
AcDbSavedByObjectVersion
1070
     0
  0
VISUALSTYLE
  5
32
102
{ACAD_REACTORS
330
2A
102
}
330
2A
100
AcDbVisualStyle
  2
Basic
 70
     7
 71
     1
 72
     0
 73
     1
 90
        0
 40
-0.6
 41
-30.0
 62
     5
 63
     7
 74
     0
 91
        4
 64
     7
 65
   257
 75
     1
175
     1
 42
1.0
 92
        8
 66
     7
 43
1.0
 76
     1
 77
     6
 78
     2
 67
     7
 79
     5
170
     0
171
     0
290
     0
174
     0
 93
        1
 44
0.0
173
     0
291
     1
 45
0.0
1001
ACAD
1000
AcDbSavedByObjectVersion
1070
     0
  0
VISUALSTYLE
  5
36
102
{ACAD_REACTORS
330
2A
102
}
330
2A
100
AcDbVisualStyle
  2
Brighten
 70
    12
 71
     2
 72
     2
 73
     0
 90
        0
 40
-0.6
 41
-30.0
 62
     5
 63
     7
 74
     1
 91
        4
 64
     7
 65
   257
 75
     1
175
     1
 42
1.0
 92
        8
 66
     7
 43
1.0
 76
     1
 77
     6
 78
     2
 67
     7
 79
     5
170
     0
171
     0
290
     0
174
     0
 93
        1
 44
50.0
173
     0
291
     1
 45
0.0
1001
ACAD
1000
AcDbSavedByObjectVersion
1070
     0
  0
VISUALSTYLE
  5
3A
102
{ACAD_REACTORS
330
2A
102
}
330
2A
100
AcDbVisualStyle
  2
ColorChange
 70
    16
 71
     2
 72
     2
 73
     3
 90
        0
 40
-0.6
 41
-30.0
 62
     5
 63
     8
 74
     1
 91
        4
 64
     7
 65
   257
 75
     1
175
     1
 42
1.0
 92
        8
 66
     8
 43
1.0
 76
     1
 77
     6
 78
     2
 67
     7
 79
     5
170
     0
171
     0
290
     0
174
     0
 93
        1
 44
0.0
173
     0
291
     1
 45
0.0
1001
ACAD
1000
AcDbSavedByObjectVersion
1070
     0
  0
VISUALSTYLE
  5
34
102
{ACAD_REACTORS
330
2A
102
}
330
2A
100
AcDbVisualStyle
  2
Conceptual
 70
     9
 71
     3
 72
     2
 73
     0
 90
        0
 40
-0.6
 41
-30.0
 62
     5
 63
     7
 74
     2
 91
        2
 64
     7
 65
   257
 75
     1
175
     1
 42
40.0
 92
        8
 66
     7
 43
1.0
 76
     1
 77
     6
 78
     2
 67
     7
 79
     3
170
     0
171
     0
290
     0
174
     0
 93
        1
 44
0.0
173
     0
291
     0
 45
0.0
1001
ACAD
1000
AcDbSavedByObjectVersion
1070
     0
  0
VISUALSTYLE
  5
35
102
{ACAD_REACTORS
330
2A
102
}
330
2A
100
AcDbVisualStyle
  2
Dim
 70
    11
 71
     2
 72
     2
 73
     0
 90
        0
 40
-0.6
 41
-30.0
 62
     5
 63
     7
 74
     1
 91
        4
 64
     7
 65
   257
 75
     1
175
     1
 42
1.0
 92
        8
 66
     7
 43
1.0
 76
     1
 77
     6
 78
     2
 67
     7
 79
     5
170
     0
171
     0
290
     0
174
     0
 93
        1
 44
-50.0
173
     0
291
     1
 45
0.0
1001
ACAD
1000
AcDbSavedByObjectVersion
1070
     0
  0
VISUALSTYLE
  5
39
102
{ACAD_REACTORS
330
2A
102
}
330
2A
100
AcDbVisualStyle
  2
Facepattern
 70
    15
 71
     2
 72
     2
 73
     0
 90
        0
 40
-0.6
 41
-30.0
 62
     5
 63
     7
 74
     1
 91
        4
 64
     7
 65
   257
 75
     1
175
     1
 42
1.0
 92
        8
 66
     7
 43
1.0
 76
     1
 77
     6
 78
     2
 67
     7
 79
     5
170
     0
171
     0
290
     0
174
     0
 93
        1
 44
0.0
173
     0
291
     1
 45
0.0
1001
ACAD
1000
AcDbSavedByObjectVersion
1070
     0
  0
VISUALSTYLE
  5
2B
102
{ACAD_REACTORS
330
2A
102
}
330
2A
100
AcDbVisualStyle
  2
Flat
 70
     0
 71
     2
 72
     1
 73
     1
 90
        2
 40
-0.6
 41
30.0
 62
     5
 63
     7
 74
     0
 91
        4
 64
     7
 65
   257
 75
     1
175
     1
 42
1.0
 92
        8
 66
     7
 43
1.0
 76
     1
 77
     6
 78
     2
 67
     7
 79
     5
170
     0
171
     0
290
     0
174
     0
 93
       13
 44
0.0
173
     0
291
     1
 45
0.0
1001
ACAD
1000
AcDbSavedByObjectVersion
1070
     0
  0
VISUALSTYLE
  5
2C
102
{ACAD_REACTORS
330
2A
102
}
330
2A
100
AcDbVisualStyle
  2
FlatWithEdges
 70
     1
 71
     2
 72
     1
 73
     1
 90
        2
 40
-0.6
 41
30.0
 62
     5
 63
     7
 74
     1
 91
        4
 64
     7
 65
   257
 75
     1
175
     1
 42
1.0
 92
        0
 66
   257
 43
1.0
 76
     1
 77
     6
 78
     2
 67
     7
 79
     5
170
     0
171
     0
290
     0
174
     0
 93
       13
 44
0.0
173
     0
291
     1
 45
0.0
1001
ACAD
1000
AcDbSavedByObjectVersion
1070
     0
  0
VISUALSTYLE
  5
2D
102
{ACAD_REACTORS
330
2A
102
}
330
2A
100
AcDbVisualStyle
  2
Gouraud
 70
     2
 71
     2
 72
     2
 73
     1
 90
        2
 40
-0.6
 41
30.0
 62
     5
 63
     7
 74
     0
 91
        4
 64
     7
 65
   257
 75
     1
175
     1
 42
1.0
 92
        0
 66
     7
 43
1.0
 76
     1
 77
     6
 78
     2
 67
     7
 79
     5
170
     0
171
     0
290
     0
174
     0
 93
       13
 44
0.0
173
     0
291
     1
 45
0.0
1001
ACAD
1000
AcDbSavedByObjectVersion
1070
     0
  0
VISUALSTYLE
  5
2E
102
{ACAD_REACTORS
330
2A
102
}
330
2A
100
AcDbVisualStyle
  2
GouraudWithEdges
 70
     3
 71
     2
 72
     2
 73
     1
 90
        2
 40
-0.6
 41
30.0
 62
     5
 63
     7
 74
     1
 91
        4
 64
     7
 65
   257
 75
     1
175
     1
 42
1.0
 92
        0
 66
   257
 43
1.0
 76
     1
 77
     6
 78
     2
 67
     7
 79
     5
170
     0
171
     0
290
     0
174
     0
 93
       13
 44
0.0
173
     0
291
     1
 45
0.0
1001
ACAD
1000
AcDbSavedByObjectVersion
1070
     0
  0
VISUALSTYLE
  5
38
102
{ACAD_REACTORS
330
2A
102
}
330
2A
100
AcDbVisualStyle
  2
Linepattern
 70
    14
 71
     2
 72
     2
 73
     0
 90
        0
 40
-0.6
 41
-30.0
 62
     5
 63
     7
 74
     1
 91
        4
 64
     7
 65
   257
 75
     7
175
     7
 42
1.0
 92
        8
 66
     7
 43
1.0
 76
     1
 77
     6
 78
     2
 67
     7
 79
     5
170
     0
171
     0
290
     0
174
     0
 93
        1
 44
0.0
173
     0
291
     1
 45
0.0
1001
ACAD
1000
AcDbSavedByObjectVersion
1070
     0
  0
VISUALSTYLE
  5
33
102
{ACAD_REACTORS
330
2A
102
}
330
2A
100
AcDbVisualStyle
  2
Realistic
 70
     8
 71
     2
 72
     2
 73
     0
 90
        0
 40
-0.6
 41
-30.0
 62
     5
 63
     7
 74
     1
 91
        0
 64
     7
 65
   257
 75
     1
175
     1
 42
1.0
 92
        8
 66
     8
 43
1.0
 76
     1
 77
     6
 78
     2
 67
     7
 79
     5
170
     0
171
     0
290
     0
174
     0
 93
       13
 44
0.0
173
     0
291
     0
 45
0.0
1001
ACAD
1000
AcDbSavedByObjectVersion
1070
     0
  0
VISUALSTYLE
  5
37
102
{ACAD_REACTORS
330
2A
102
}
330
2A
100
AcDbVisualStyle
  2
Thicken
 70
    13
 71
     2
 72
     2
 73
     0
 90
        0
 40
-0.6
 41
-30.0
 62
     5
 63
     7
 74
     1
 91
        4
 64
     7
 65
   257
 75
     1
175
     1
 42
1.0
 92
       12
 66
     7
 43
1.0
 76
     1
 77
     6
 78
     2
 67
     7
 79
     5
170
     0
171
     0
290
     0
174
     0
 93
        1
 44
0.0
173
     0
291
     1
 45
0.0
1001
ACAD
1000
AcDbSavedByObjectVersion
1070
     0
  0
DICTIONARYVAR
  5
2EC
102
{ACAD_REACTORS
330
2E7
102
}
330
2E7
100
DictionaryVariables
280
     0
  1
1:1
  0
DICTIONARYVAR
  5
2ED
102
{ACAD_REACTORS
330
2E7
102
}
330
2E7
100
DictionaryVariables
280
     0
  1
2
  0
DICTIONARYVAR
  5
2EE
102
{ACAD_REACTORS
330
2E7
102
}
330
2E7
100
DictionaryVariables
280
     0
  1
1
  0
DICTIONARYVAR
  5
2EB
102
{ACAD_REACTORS
330
2E7
102
}
330
2E7
100
DictionaryVariables
280
     0
  1
80.000000
  0
DICTIONARYVAR
  5
2EA
102
{ACAD_REACTORS
330
2E7
102
}
330
2E7
100
DictionaryVariables
280
     0
  1
5.000000
  0
ENDSEC
  0
EOF
