%
T1C.01F095S3
X043Y0134
X04375Y01341
X04502Y01182
X05035Y01575
X05035Y01675
X050455Y013256
X050457Y014255
X0527Y01951
X05051Y02611
X04985Y02599
X04959Y02599
X046703Y025489
X04626Y02641
X045437Y026295
X04159Y02362
X03724Y02666
X03691Y02665
X02568Y02796
X02721Y02894
X02722Y02863
X031541Y028791
X03192Y02763
X031935Y028791
X032329Y028791
X032722Y028791
X033116Y028791
X03351Y028791
X033904Y028791
X034297Y028791
X034691Y028791
X035085Y028791
X035478Y028791
X035872Y028791
X036266Y028791
X036659Y028791
X037447Y028791
X037841Y028791
X037956Y02775
X03797Y02823
X03818Y02842
X038234Y028791
X038628Y028791
X039022Y028791
X03937Y02879
X039809Y028791
X040203Y028791
X040596Y028791
X04099Y028791
X041384Y028791
X041778Y028791
X042171Y028791
X042565Y028791
X042959Y028791
X04947Y02801
X05342Y02737
X04699Y03047
X04477Y02979
X04331Y0298
X042959Y029972
X042959Y029579
X042959Y029185
X042959Y030366
X042959Y031154
X042959Y03076
X042959Y031547
X042565Y030366
X042565Y029972
X042565Y029579
X042565Y029185
X042565Y03076
X042565Y031547
X042565Y031154
X042171Y029972
X042171Y029185
X042171Y030366
X042171Y029579
X042171Y031547
X042171Y03076
X042171Y031154
X041778Y030366
X041778Y029972
X041778Y029579
X041778Y029185
X041778Y031547
X041778Y031154
X041778Y03076
X041384Y029579
X041384Y029185
X041384Y029972
X041384Y030366
X041384Y031547
X041384Y03076
X041384Y031154
X04099Y029972
X04099Y029185
X04099Y030366
X04099Y029579
X04099Y03076
X04099Y031547
X04099Y031154
X040596Y029579
X040596Y029972
X040596Y029185
X040596Y030366
X040596Y03076
X040203Y029185
X040203Y030366
X040203Y029579
X040203Y029972
X040203Y03076
X039809Y029185
X039809Y029579
X039809Y030366
X039809Y029972
X039809Y03076
X039809Y031154
X039415Y029579
X039415Y029185
X039415Y030366
X039415Y029972
X039415Y03076
X039415Y031154
X039022Y030366
X039022Y029579
X039022Y029185
X039022Y029972
X039022Y03076
X038628Y029185
X038628Y029579
X038628Y029972
X038628Y03076
X038628Y030366
X038234Y029579
X038234Y029972
X038234Y03076
X038234Y029185
X038234Y030366
X037841Y029185
X037841Y03076
X037841Y029579
X037841Y029972
X037841Y030366
X037447Y029579
X037447Y03076
X037447Y029185
X037447Y030366
X037447Y029972
X036659Y030366
X036659Y029972
X036659Y03076
X036659Y029185
X036659Y029579
X036266Y029185
X036266Y029972
X036266Y03076
X036266Y030366
X036266Y029579
X035872Y030366
X035872Y03076
X035872Y029972
X035872Y029185
X035872Y029579
X035478Y029579
X035478Y03076
X035478Y029185
X035478Y029972
X035478Y030366
X035085Y03076
X035085Y031154
X035085Y029972
X035085Y029579
X035085Y029185
X035085Y030366
X034699Y029586
X034691Y031154
X034691Y03076
X034691Y030366
X034691Y029972
X034691Y029185
X034297Y029185
X034297Y03076
X034297Y029972
X034297Y030366
X034297Y029579
X033904Y03076
X033904Y030366
X033904Y029972
X033904Y029185
X033904Y029579
X03351Y031547
X03351Y03076
X03351Y029579
X03351Y031154
X03351Y029185
X03351Y030366
X03351Y029972
X033116Y029972
X033116Y029185
X033116Y031154
X033116Y031547
X033116Y030366
X033116Y029579
X033116Y03076
X032722Y031154
X032722Y029185
X032722Y030366
X032722Y029972
X032722Y031547
X032722Y029579
X032722Y03076
X032329Y029972
X032329Y030366
X032329Y031547
X032329Y031154
X032329Y03076
X032329Y029185
X032329Y029579
X031935Y031154
X031935Y03076
X031935Y029579
X031935Y029185
X031935Y030366
X031935Y031547
X031935Y029972
X031541Y031547
X031541Y029579
X031541Y03076
X031541Y030366
X031541Y029972
X031541Y031154
X031541Y029185
X02866Y0301
X02853Y03088
X02853Y03113
X02841Y02932
X02724Y02957
X02352Y03192
X02401Y03263
X02402Y03293
X02535Y03221
X02555Y03363
X0265Y03175
X02685Y03206
X02686Y03344
X02726Y03278
X031541Y031941
X031541Y032335
X031541Y032728
X031541Y033122
X031935Y032728
X031935Y032335
X031935Y031941
X031935Y033122
X032329Y031941
X032329Y032335
X032329Y032728
X032329Y033122
X032329Y033516
X032329Y033909
X032722Y032335
X032722Y032728
X032722Y031941
X032722Y033516
X032722Y033909
X032722Y033122
X033116Y032728
X033116Y031941
X033116Y032335
X033116Y033516
X033116Y033909
X033116Y033122
X03351Y032728
X03351Y031941
X03351Y033516
X03351Y033122
X03351Y032335
X03351Y033909
X033904Y031941
X033904Y032335
X035085Y032728
X035085Y032335
X035085Y033909
X035085Y033516
X035085Y033122
X035478Y032335
X035478Y032728
X035478Y033516
X035478Y033122
X035478Y033909
X035872Y032335
X035872Y032728
X035872Y033122
X035872Y033516
X035872Y033909
X036266Y032335
X036266Y032728
X036266Y033122
X036266Y033516
X036266Y033909
X036659Y032728
X036659Y032335
X036659Y033122
X036659Y033516
X036659Y033909
X037447Y032335
X037447Y032728
X037447Y033122
X037447Y033516
X037447Y033909
X037841Y032728
X037841Y033122
X037841Y033516
X037841Y033909
X037841Y032335
X038234Y032335
X038234Y032728
X038234Y033122
X038234Y033516
X038234Y033909
X038628Y032335
X038628Y032728
X038628Y033122
X038628Y033516
X038628Y033909
X039022Y032335
X039022Y033122
X039022Y033516
X039022Y033909
X039022Y032728
X039415Y032335
X039415Y033516
X039415Y033122
X039415Y033909
X039415Y032728
X040596Y032335
X040596Y031941
X04099Y032728
X04099Y031941
X04099Y032335
X04099Y033516
X04099Y033909
X04099Y033122
X041384Y032335
X041384Y032728
X041384Y033909
X041384Y033122
X041384Y031941
X041384Y033516
X041778Y032728
X041778Y033122
X041778Y033516
X041778Y032335
X041778Y031941
X041778Y033909
X042171Y032728
X042171Y032335
X042171Y031941
X042171Y033516
X042171Y033122
X042171Y033909
X042565Y033909
X042565Y033122
X042565Y033516
X042565Y032335
X042565Y032728
X042565Y031941
X042959Y031941
X042959Y032728
X042959Y033516
X042959Y033909
X042959Y032335
X042959Y033122
X04323Y03314
X044112Y033882
X044722Y033907
X044724Y033385
X04495Y03292
X04516Y03303
X04573Y03288
X046834Y033252
X04715Y03313
X04971Y03342
X05119Y03368
X049548Y035594
X04934Y03623
X049285Y035753
X048894Y035874
X048564Y035932
X048054Y035829
X047824Y035897
X04781Y03418
X04741Y03464
X047359Y03602
X047317Y03579
X04726Y03444
X046891Y035627
X046863Y036373
X046627Y035405
X04488Y03445
X0447Y0351
X04465Y03581
X04298Y03469
X042959Y035484
X042959Y035878
X042959Y036272
X042959Y035091
X042565Y036272
X042565Y035878
X042565Y035484
X042565Y035091
X042565Y034697
X042171Y035091
X042171Y035484
X042171Y036272
X042171Y035878
X042171Y034697
X041778Y036272
X041778Y035484
X041778Y035091
X041778Y035878
X041778Y034697
X041384Y035878
X041384Y035484
X041384Y035091
X041384Y036272
X041384Y034697
X04099Y035878
X04099Y036272
X04099Y035484
X04099Y035091
X04099Y034697
X039415Y036272
X039415Y035091
X039415Y035484
X039415Y035878
X039415Y034697
X039022Y035091
X039022Y035484
X039022Y036272
X039022Y035878
X039022Y034697
X038628Y035091
X038628Y035484
X038628Y036272
X038628Y035878
X038628Y034697
X038234Y035091
X038234Y035484
X038234Y036272
X038234Y035878
X038234Y034697
X037841Y035091
X037841Y035484
X037841Y036272
X037841Y035878
X037841Y034697
X037447Y036272
X037447Y035091
X037447Y035484
X037447Y035878
X037447Y034697
X036659Y035091
X036659Y035484
X036659Y036272
X036659Y035878
X036659Y034697
X036266Y035484
X036266Y036272
X036266Y035091
X036266Y035878
X036266Y034697
X035872Y035878
X035872Y036272
X035872Y035091
X035872Y035484
X035872Y034697
X035478Y036272
X035478Y035091
X035478Y035484
X035478Y035878
X035478Y034697
X035085Y035091
X035085Y034697
X035085Y036272
X035085Y035484
X035085Y035878
X03455Y0365
X03351Y035091
X03351Y035878
X03351Y036272
X03351Y035484
X03351Y034697
X033116Y035484
X033116Y035878
X033116Y035091
X033116Y034697
X033116Y036272
X032722Y035484
X032722Y036272
X032722Y035091
X032722Y035878
X032722Y034697
X032329Y035091
X032329Y034697
X032329Y036272
X032329Y035878
X032329Y035484
X031935Y035878
X031935Y035484
X031935Y036272
X031935Y034697
X031935Y035091
X031541Y035091
X031541Y034697
X03138Y0362
X031355Y034322
X03119Y03666
X03115Y034173
X03109Y03545
X03109Y03579
X02929Y03465
X02893Y03634
X0287Y03605
X02855Y03565
X02719Y03607
X02545Y03665
X02527Y03623
X02488Y03477
X02407Y03646
X02399Y03575
X02393Y03486
X02357Y03563
X0231Y0387
X0232Y03675
X0233Y03865
X02405Y03717
X02521Y03684
X02526Y03765
X025449Y037813
X025474Y038403
X025487Y038683
X02659Y03892
X02675Y03913
X02687Y03678
X02712Y03773
X02714Y03818
X02717Y0369
X02847Y03704
X02872Y03721
X02962Y03844
X02962Y03871
X03127Y03713
X031541Y038634
X031541Y03824
X031541Y037846
X031541Y037453
X031541Y039028
X031935Y038634
X031935Y036665
X031935Y03824
X031935Y037846
X031935Y037059
X031935Y037453
X031935Y039028
X032329Y036665
X032329Y03824
X032329Y037846
X032329Y037059
X032329Y037453
X032329Y038634
X032329Y039028
X032722Y036665
X032722Y038634
X032722Y03824
X032722Y037846
X032722Y037453
X032722Y037059
X032722Y039028
X033116Y036665
X033116Y038634
X033116Y03824
X033116Y037453
X033116Y037059
X033116Y037846
X033116Y039028
X03351Y038634
X03351Y03824
X03351Y037846
X03351Y036665
X03351Y037453
X03351Y037059
X03351Y039028
X033904Y038634
X033904Y037059
X033904Y03824
X033904Y039028
X033904Y036665
X034297Y038634
X034297Y03824
X034297Y039028
X034691Y038634
X034691Y03824
X034691Y037846
X034691Y039028
X035085Y03824
X035085Y037846
X035085Y038634
X035085Y036665
X035085Y039028
X035478Y03824
X035478Y038634
X035478Y036665
X035478Y039028
X035872Y036665
X035872Y038634
X035872Y03824
X035872Y039028
X036266Y038634
X036266Y03824
X036266Y036665
X036266Y039028
X036659Y038634
X036659Y036665
X036659Y039028
X037447Y03824
X037447Y036665
X037447Y038634
X037447Y039028
X037841Y038634
X037841Y036665
X037841Y03824
X037841Y039028
X038234Y03824
X038234Y036665
X038234Y038634
X038234Y039028
X038628Y038634
X038628Y036665
X038628Y03824
X038628Y039028
X039022Y03824
X039022Y038634
X039022Y036665
X039022Y039028
X039415Y036665
X039415Y037846
X039415Y038634
X039415Y039028
X039415Y03824
X039809Y037846
X039809Y03824
X039809Y038634
X039809Y039028
X040203Y038634
X040203Y03824
X040203Y039028
X040596Y037059
X040596Y03824
X040596Y038634
X040596Y036665
X040596Y039028
X04099Y037453
X04099Y038634
X04099Y036665
X04099Y03824
X04099Y037846
X04099Y037059
X04099Y039028
X041384Y036665
X041384Y037846
X041384Y037059
X041384Y037453
X041384Y03824
X041384Y038634
X041384Y039028
X041778Y03824
X041778Y036665
X041778Y037453
X041778Y037059
X041778Y037846
X041778Y038634
X041778Y039028
X042171Y036665
X042171Y03824
X042171Y037453
X042171Y037846
X042171Y038634
X042171Y037059
X042171Y039028
X042565Y037059
X042565Y03824
X042565Y037846
X042565Y037453
X042565Y038634
X042565Y036665
X042565Y039028
X042959Y03824
X042959Y037453
X042959Y038634
X042959Y036665
X042959Y037059
X042959Y039028
X042959Y037846
X04338Y0387
X04347Y03764
X044725Y039025
X04612Y03725
X04614Y03783
X04628Y03758
X046622Y038965
X046641Y037268
X046748Y038618
X046813Y039163
X047099Y038621
X05008Y03859
X05111Y04045
X04866Y03951
X04845Y03936
X04771Y04113
X04744Y04104
X04642Y039949
X04619Y040731
X0461Y04006
X04528Y04161
X04509Y03941
X04484Y04048
X04481Y04111
X0444Y04149
X042959Y039421
X042959Y039815
X042959Y040209
X04288Y0412
X042876Y041593
X042565Y040209
X042565Y039421
X042565Y039815
X042171Y040209
X042171Y039421
X042171Y039815
X041778Y039815
X041778Y040209
X041778Y039421
X041384Y039421
X041384Y039815
X041384Y040209
X04099Y040209
X04099Y039815
X04099Y039421
X040596Y039815
X040596Y040209
X040596Y039421
X040203Y040209
X040203Y039815
X040203Y039421
X039809Y040209
X039809Y039815
X039809Y039421
X039415Y039421
X039415Y039815
X039415Y040209
X039022Y039421
X039022Y040209
X039022Y039815
X038628Y040209
X038628Y039815
X038628Y039421
X038293Y040625
X038234Y039815
X038234Y039421
X037841Y039815
X037841Y039421
X037841Y040209
X037447Y039421
X036659Y039815
X036659Y039421
X03665Y0405
X036266Y039421
X036266Y039815
X03624Y04056
X035872Y039421
X035872Y040209
X035872Y039815
X035478Y039421
X035478Y039815
X035478Y040209
X03513Y04059
X035085Y039421
X035085Y040209
X035085Y039815
X034691Y039421
X034691Y039815
X034691Y040209
X03468Y04054
X034297Y039815
X034297Y039421
X034297Y040209
X033904Y039815
X033904Y039421
X033904Y040209
X03351Y040209
X03351Y039815
X03351Y039421
X033116Y040209
X033116Y039421
X033116Y039815
X032722Y039421
X032722Y039815
X032722Y040209
X032329Y039815
X032329Y039421
X032329Y040209
X031935Y039421
X031935Y040209
X031935Y039815
X031541Y040209
X031541Y039815
X031541Y039421
X02957Y03933
X02948Y04047
X02732Y03945
X027145Y041599
X02699Y03947
X02682Y04027
X02525Y0402
X02524Y04045
X02521Y03978
X02519Y04086
X02403Y0393
X02402Y04056
X02374Y04055
X03025Y04245
X03075Y04225
X03691Y04409
X03704Y04388
X03748Y04391
X04136Y04316
X04486Y04202
X04579Y04332
X04582Y04397
X04586Y04374
X04664Y04207
X046945Y042264
X047688Y042155
X047943Y041949
X048029Y043468
X048221Y043295
X048369Y043074
X05211Y04386
X052425Y04386
X05274Y04386
X053055Y04386
X05337Y04386
X053685Y04386
X054315Y04386
X05463Y04386
X054945Y04386
X05526Y04386
X055575Y04386
X05589Y04386
X05589Y046065
X05589Y04575
X05589Y045435
X055575Y04449
X055575Y044175
X055575Y046065
X055575Y04638
X055575Y04575
X055575Y045435
X055575Y044805
X055575Y04512
X05526Y044175
X05526Y04449
X05526Y046065
X05526Y045435
X05526Y04638
X05526Y04512
X05526Y044805
X054945Y04449
X054945Y044175
X054945Y04512
X054945Y044805
X054945Y04638
X054945Y046065
X054945Y045435
X05463Y044175
X05463Y04449
X05463Y04638
X05463Y04512
X05463Y044805
X054315Y044175
X054315Y04512
X054315Y044805
X054315Y04449
X054Y04512
X054Y044805
X053685Y044805
X053685Y04449
X053685Y044175
X05337Y044805
X05337Y04512
X05337Y04449
X05337Y044175
X053055Y04638
X053055Y046065
X053055Y045435
X053055Y044805
X053055Y04512
X053055Y044175
X053055Y04449
X05274Y04512
X05274Y04449
X05274Y046065
X05274Y04638
X05274Y044805
X05274Y044175
X05274Y045435
X052425Y04638
X052425Y044175
X052425Y046065
X052425Y045435
X052425Y04512
X052425Y044805
X052425Y04449
X05211Y044805
X05211Y04512
X05211Y04449
X05211Y04638
X05211Y046065
X05211Y044175
X05211Y045435
X04708Y04572
X04508Y045695
X0449Y04623
X04479Y04596
X04455Y0461
X04138Y04464
X038687Y04639
X03367Y04633
X03249Y04605
X03972Y04737
X04011Y04738
X04493Y04714
X044952Y04782
X0452Y04717
X04585Y0477
X04586Y0483
X0459Y04806
X046726Y047703
X04697Y04723
X047Y047685
X047331Y047999
X047332Y048343
X048Y0474
X04801Y04766
X04811Y04852
X04811Y04903
X04812Y04803
X051Y04875
X05211Y046695
X05211Y04764
X05211Y047325
X05211Y04701
X052425Y04764
X052425Y047325
X052425Y04701
X052425Y046695
X05274Y046695
X05274Y04764
X05274Y047325
X05274Y04701
X053055Y04764
X053055Y046695
X053055Y047325
X053055Y04701
X05337Y047325
X05337Y046695
X05337Y04764
X05337Y04701
X053685Y047325
X053685Y04701
X053685Y04764
X053685Y046695
X054315Y04764
X054315Y047325
X054315Y04701
X054315Y046695
X05463Y047325
X05463Y046695
X05463Y04764
X05463Y04701
X054945Y047325
X054945Y04701
X054945Y04764
X054945Y046695
X05526Y047325
X05526Y04701
X05526Y046695
X05526Y04764
X055575Y04764
X055575Y047325
X055575Y04701
X055575Y046695
X05589Y04701
X05589Y047325
X05589Y04764
X0562Y04679
X04758Y05333
X04737Y05348
X04737Y05374
X047332Y053035
X046152Y049468
X045584Y049189
X045232Y052703
X04515Y05006
X04505Y0535
X045012Y052789
X04473Y05101
X044726Y053122
X0447Y05404
X04461Y05218
X04452Y05389
X04308Y05413
X04353Y05631
X0449Y05434
X04499Y05662
X04515Y05682
X04737Y05672
X04737Y05707
X048097Y056002
X05362Y05705
X0494Y064
X0494Y0645
X04307Y06653
X02562Y06545
X025Y06513
X01639Y06215
T2C.012F095S3
X03707Y01413
X03709Y01374
X0379Y01342
X0381Y01369
X03876Y01406
X03888Y01322
X04037Y0134
X04045Y01399
X04093Y014
X04113Y01339
X04148Y01353
X04172Y014
X04224Y01341
X04262Y01342
X04274Y01201
X04344Y01198
X04407Y01413
X04413Y01215
X04467Y01188
X0455Y01198
X0456Y01375
X05035Y01375
X050335Y016246
X04563Y01624
X04513Y01638
X04505Y01478
X04396Y0165
X04288Y01508
X04284Y01564
X04275Y01638
X04067Y01591
X04064Y01556
X03926Y01445
X03925Y01618
X03874Y01544
X03836Y01584
X03766Y01619
X03763Y0166
X03682Y01505
X03213Y01651
X03173Y01645
X03094Y01644
X03062Y01648
X03025Y01644
X0295Y01644
X02913Y01661
X02663Y01561
X02619Y01541
X02297Y01582
X02099Y01606
X01637Y01784
X01637Y01899
X01749Y01711
X01846Y01713
X01879Y01825
X01956Y01889
X02024Y01904
X02101Y01868
X02727Y01727
X02729Y01799
X02821Y01675
X02825Y01875
X0287Y01787
X02874Y01831
X02874Y01745
X02925Y01737
X02986Y0191
X03032Y01752
X03158Y01848
X03176Y01757
X03209Y01825
X03241Y01749
X03244Y01854
X03318Y01758
X03444Y01847
X03444Y01911
X03554Y01807
X03811Y01901
X03859Y01812
X03902Y01674
X03925Y01848
X04032Y0184
X04076Y01857
X04117Y0185
X04201Y0186
X04265Y01868
X04308Y01784
X04367Y01858
X04381Y01772
X04399Y01799
X04432Y01844
X04509Y01682
X04525Y01841
X04631Y01903
X04668Y01809
X04835Y01792
X04889Y01808
X04929Y01839
X04987Y01891
X05281Y01843
X05397Y02144
X0537Y01933
X05258Y02004
X05245Y02075
X05221Y02102
X0522Y02132
X05131Y02071
X0513Y02105
X0513Y0214
X05097Y02071
X05097Y02105
X05097Y0214
X05062Y02141
X05061Y02071
X05061Y02105
X050098Y020274
X04966Y0214
X049356Y021022
X04935Y02142
X04906Y02081
X04885Y02012
X04825Y01999
X04794Y02031
X04753Y02026
X04674Y02072
X046673Y021198
X04648Y02093
X04633Y02142
X04599Y02126
X04529Y02051
X04435Y02135
X04435Y01999
X04408Y01926
X04337Y01923
X04317Y02016
X04263Y02
X04205Y02002
X04179Y02054
X04168Y02104
X04037Y0195
X04016Y01995
X0391Y0209
X03862Y02074
X0385Y01996
X03785Y02095
X03785Y01987
X03784Y02127
X03533Y02116
X03502Y02119
X03438Y02107
X03316Y0209
X03245Y0194
X03211Y01936
X03082Y02092
X03045Y02093
X02986Y01954
X02868Y02115
X02864Y01937
X02827Y02114
X02732Y02117
X02691Y02118
X02646Y02113
X02565Y02069
X02528Y02066
X02313Y02067
X02167Y02079
X02112Y01945
X0207Y02109
X0205Y02067
X02029Y02101
X01928Y02129
X01889Y02162
X01797Y02087
X01781Y02006
X0178Y02054
X01779Y02161
X0155Y02399
X01638Y02336
X01694Y02411
X01701Y02195
X01707Y02269
X01715Y02168
X01732Y02401
X01787Y02334
X01827Y02214
X01949Y02311
X02018Y0231
X02869Y02257
X02938Y02252
X0318Y02216
X03226Y02222
X03307Y0221
X03336Y02257
X0335Y02398
X03352Y02194
X03594Y02363
X03628Y02323
X03702Y02198
X03854Y02283
X03862Y02345
X0389Y02265
X039Y02309
X03926Y02266
X03955Y02309
X04011Y02308
X04012Y02345
X04165Y02289
X04215Y0229
X04312Y02398
X04313Y02335
X04345Y02233
X04388Y02351
X04389Y0222
X04463Y02345
X04601Y02196
X04618Y02172
X04673Y02267
X04719Y024
X04834Y0233
X04871Y02355
X04965Y02193
X0498Y02363
X04992Y02252
X05015Y02223
X05046Y02219
X05058Y02366
X05087Y02288
X051299Y022664
X05152Y02307
X05255Y02362
X05401Y02225
X054058Y022858
X05468Y02358
X05719Y02335
X058899Y023139
X05948Y02503
X05946Y02575
X05946Y02651
X05944Y02473
X05869Y02537
X058Y02555
X05795Y02482
X05764Y0257
X05747Y02425
X05742Y0259
X05632Y02498
X05588Y02495
X05586Y0256
X05585Y02528
X05515Y02666
X0548Y02489
X05476Y02663
X05421Y02663
X05419Y02583
X05301Y02479
X05288Y02579
X05255Y02662
X05255Y02438
X05221Y02662
X05164Y02441
X05158Y02652
X05133Y0259
X04922Y02596
X04788Y02605
X04743Y0243
X04721Y02451
X04587Y02541
X04473Y02457
X04468Y0264
X04383Y02444
X04342Y02451
X04313Y02446
X0431Y02482
X04288Y02562
X04288Y02516
X04283Y02611
X04283Y02442
X04271Y02639
X04243Y02471
X04237Y02431
X04214Y02617
X04201Y02485
X04185Y02443
X04151Y02467
X04124Y02447
X04099Y02599
X04005Y02457
X03951Y02629
X03948Y02473
X03945Y02659
X03899Y02457
X03863Y02525
X03856Y02458
X03833Y02524
X03795Y02457
X03659Y02481
X03657Y02525
X03656Y02445
X03645Y02561
X035552Y025254
X03546Y02629
X03496Y02438
X03035Y0246
X02859Y02477
X02855Y02609
X02722Y02601
X02692Y02614
X026871Y025648
X02621Y02581
X02528Y02653
X02527Y02581
X02404Y02607
X02391Y0256
X02372Y0263
X01603Y02545
X01395Y02704
X0225Y02902
X02331Y02708
X0237Y02749
X02378Y02784
X024Y02726
X02526Y02867
X02529Y02685
X025406Y028235
X02715Y0281
X02726Y02749
X028482Y027919
X02855Y02729
X03817Y0272
X0383Y02678
X03866Y02678
X03933Y02687
X04119Y02673
X04162Y02781
X04162Y02718
X04226Y02699
X04335Y02695
X04336Y02868
X04379Y0271
X043797Y026812
X04404Y02861
X04412Y02713
X04475Y02849
X04539Y02775
X04655Y02812
X04657Y02725
X04716Y02874
X04788Y02764
X04819Y02722
X04937Y02731
X04938Y02671
X04975Y027
X05011Y02671
X05011Y02729
X05071Y02835
X05146Y02835
X05219Y02813
X05253Y02888
X05255Y02816
X05271Y02738
X05365Y02784
X05489Y02818
X05519Y02818
X05535Y02703
X05548Y02829
X05581Y0283
X05598Y02711
X05635Y02691
X05748Y02725
X05775Y02865
X05796Y02827
X059Y03075
X05867Y03047
X05838Y02937
X05827Y03022
X05807Y03133
X05775Y03051
X05715Y0297
X05601Y02999
X0558Y03109
X05518Y03102
X05475Y02931
X05475Y03082
X05438Y03007
X05415Y03096
X05413Y03066
X05362Y02994
X05357Y02939
X05273Y03134
X05255Y03039
X05105Y03024
X05075Y03021
X0492Y03074
X04913Y03014
X04889Y03135
X04822Y03054
X04722Y0293
X04597Y03137
X04588Y03075
X04564Y03132
X04556Y03074
X04345Y03158
X04323Y03101
X02687Y03021
X02527Y03127
X02527Y02938
X02524Y03032
X02399Y03151
X02398Y03008
X02397Y02961
X02396Y03079
X02306Y03113
X02304Y03052
X02304Y02953
X02303Y0301
X02253Y03072
X02041Y02941
X01555Y03123
X01514Y03327
X01516Y03361
X01518Y03239
X01804Y03172
X02354Y03245
X02355Y03304
X02378Y03337
X02382Y03387
X02651Y03343
X02707Y03185
X02719Y03237
X02726Y03405
X02881Y03224
X040108Y031814
X04483Y03216
X044947Y033695
X0451Y03201
X04549Y03212
X04587Y03213
X04664Y03195
X047Y03181
X04731Y03357
X04737Y0329
X04794Y03275
X04891Y03285
X04929Y03276
X0497Y0328
X04973Y034062
X05028Y03262
X0513Y03187
X05145Y03324
X05198Y03406
X05234Y03354
X05257Y03378
X05264Y03309
X05311Y03322
X05348Y03284
X05416Y03343
X05475Y03311
X05528Y03331
X05643Y03269
X05654Y03309
X05715Y03335
X05753Y03317
X05811Y03259
X056Y03468
X05524Y03467
X0545Y03468
X05375Y03467
X05154Y03457
X05103Y03452
X05065Y03451
X049988Y034874
X049735Y036504
X049328Y034853
X04741Y03491
X04733Y03523
X046631Y03568
X04573Y03488
X044855Y036143
X02865Y03635
X02561Y03596
X023624Y035349
X02325Y03575
X0219Y0354
X01499Y03522
X01498Y03623
X01496Y03721
X01497Y03902
X01504Y03811
X0215Y03877
X02335Y03695
X0236Y0371
X0236Y0387
X02395Y03865
X02644Y03758
X03965Y03713
X04763Y0375
X04763Y03692
X04764Y03814
X04814Y0375
X04815Y03814
X04866Y03692
X04868Y0375
X04869Y03814
X04972Y03761
X04995Y03707
X052662Y037328
X0527Y036976
X05774Y041251
X05742Y041519
X0545Y0403
X05441Y04125
X05417Y04063
X05384Y04058
X0537Y03934
X05341Y03946
X05311Y04006
X05276Y03979
X05276Y04146
X05247Y04077
X05179Y04113
X05145Y04111
X0508Y04112
X05015Y04117
X04957Y04119
X04895Y04121
X04825Y04093
X04823Y03957
X04797Y0411
X04791Y03949
X0476Y039566
X047002Y039379
X046616Y039506
X0466Y04106
X046225Y039621
X045233Y040883
X04061Y04082
X02402Y03999
X02378Y04119
X02325Y0409
X02316Y04024
X02314Y03975
X02269Y04082
X02147Y03959
X0184Y0408
X0184Y0412
X01785Y0407
X01543Y04056
X01541Y04138
X01535Y03973
X01521Y041
X01498Y0414
X01495Y04058
X01341Y04362
X0145Y0437
X01488Y0427
X0151Y04377
X0155Y04223
X0179Y0417
X0184Y04175
X0225Y0422
X022989Y042344
X023241Y042168
X02356Y04347
X023674Y042687
X02368Y04403
X02378Y04195
X02529Y04253
X025341Y042028
X02536Y04284
X02603Y04351
X02716Y04197
X0272Y04347
X02728Y04298
X02853Y04227
X02855Y0426
X03032Y04184
X03395Y04388
X03412Y04414
X03424Y04365
X03431Y04285
X03448Y04223
X03452Y04385
X03475Y04286
X03484Y04228
X03704Y04325
X03924Y042301
X039337Y043891
X040028Y043894
X04035Y04412
X04039Y04377
X04069Y04304
X04098Y04255
X04137Y04206
X04138Y04267
X0425Y04197
X04288Y04404
X04392Y04257
X04586Y04243
X0459Y04276
X04686Y04344
X046866Y041765
X04721Y04345
X047312Y041824
X04869Y04198
X04873Y04357
X04905Y04353
X04936Y042
X04973Y04267
X04978Y04193
X050904Y04375
X051612Y043943
X05169Y04197
X05197Y04309
X05245Y042
X0545Y04235
X05453Y0431
X05685Y04378
X05758Y04374
X05858Y0441
X05886Y0445
X05765Y04575
X05688Y04575
X050871Y044253
X05087Y045
X049269Y044642
X0489Y04527
X04819Y04482
X04804Y04526
X04742Y04617
X04738Y04646
X04737Y04444
X04728Y04551
X04684Y04534
X04659Y04617
X04657Y0465
X04625Y04617
X04625Y04651
X04587Y04446
X04441Y04526
X04434Y0442
X04424Y04463
X04405Y04499
X043196Y046121
X04302Y04572
X04291Y046333
X04289Y04439
X042778Y046073
X0427Y04571
X04182Y04568
X04164Y04665
X041Y04637
X04053Y04665
X040257Y046148
X04021Y04586
X03977Y04662
X03948Y04619
X03909Y04447
X03795Y04505
X03752Y04613
X03751Y04659
X03717Y0463
X03551Y04537
X03546Y04611
X03535Y04441
X035216Y044888
X03131Y04539
X03028Y04646
X028969Y045439
X02858Y04544
X0272Y04615
X02676Y04541
X02534Y04614
X02388Y04474
X02388Y04664
X02388Y04544
X01446Y04567
X0144Y04521
X0139Y0484
X01428Y04868
X014746Y048377
X015568Y047203
X01584Y04698
X02388Y04733
X02388Y04803
X02388Y04875
X02713Y04756
X02719Y04875
X02857Y04827
X02863Y04691
X02997Y04856
X03006Y04889
X03112Y0486
X03162Y04688
X03207Y04907
X03243Y0489
X03268Y04862
X03381Y04687
X03563Y04736
X03706Y04755
X03722Y048
X038064Y048195
X03814Y04884
X03857Y04832
X03872Y0472
X03909Y04872
X03929Y04804
X0394Y04743
X03979Y04889
X04062Y04732
X04081Y0481
X04092Y04873
X04092Y04842
X04122Y04704
X04127Y04876
X043063Y049022
X04311Y04805
X04317Y046738
X044233Y049163
X04436Y04849
X04727Y047713
X04738Y04678
X04739Y04914
X049136Y04883
X0493Y04675
X049915Y048489
X049915Y04881
X05008Y04801
X050868Y047499
X050875Y046755
X0509Y04801
X051246Y047121
X051587Y047491
X05169Y04903
X05225Y0486
X05308Y04799
X05355Y0479
X05435Y048
X05474Y04793
X05598Y04793
X05616Y0471
X05685Y04859
X05688Y0472
X058457Y048455
X05912Y0473
X058752Y049533
X058127Y051469
X05805Y05072
X05755Y05076
X0553Y05094
X05516Y04937
X05482Y05131
X05481Y05047
X05476Y05088
X05401Y05039
X05335Y04934
X05334Y05032
X05286Y05036
X05248Y05088
X05234Y04966
X05198Y04937
X0518Y05104
X05176Y04973
X05173Y05026
X05136Y05121
X05077Y05087
X050078Y04924
X049409Y049606
X049088Y049606
X04861Y051453
X04812Y050367
X04812Y05002
X04812Y04932
X047833Y05143
X04703Y04918
X04662Y05029
X046503Y051084
X046426Y049421
X04626Y04996
X04606Y0492
X04596Y05007
X04512Y05077
X04478Y05074
X044548Y049183
X04453Y0513
X04448Y05076
X044372Y050155
X04292Y04983
X04292Y04941
X04205Y05107
X042Y05032
X04154Y05066
X04097Y05002
X04069Y05158
X04037Y05017
X040091Y051623
X03976Y05004
X03963Y05045
X03891Y05012
X03852Y05008
X03806Y05054
X03715Y05032
X035555Y050073
X03555Y05155
X03554Y05088
X03452Y05148
X03447Y05058
X03343Y04942
X03339Y05013
X03337Y05057
X03305Y0511
X03262Y04969
X03254Y05062
X03231Y04928
X03221Y0498
X03213Y0506
X03205Y05115
X03112Y05
X03112Y05049
X03099Y04975
X03003Y05013
X02987Y04921
X02955Y04952
X02948Y05055
X02904Y05037
X02845Y0512
X02782Y05137
X0272Y05001
X02717Y0493
X02697Y04963
X02568Y05082
X025404Y049566
X02388Y04946
X02296Y05104
X02259Y05081
X019213Y049479
X018849Y04946
X01678Y0501
X01596Y05015
X01595Y05061
X0155Y05015
X01549Y0506
X01516Y05162
X01508Y05014
X01506Y05064
X01162Y04959
X01298Y05315
X01482Y05276
X01522Y05214
X01558Y05195
X0158Y05285
X01607Y0525
X01634Y05279
X01905Y05291
X02791Y05221
X02883Y05328
X02947Y05336
X03099Y05235
X03103Y05408
X03207Y05279
X03212Y05312
X03217Y05207
X03224Y05344
X03275Y05265
X03327Y0526
X03334Y05328
X03334Y05363
X03336Y05407
X03441Y05235
X03442Y05388
X03442Y05286
X03444Y05334
X03542Y054
X03557Y05285
X03563Y05334
X03586Y0521
X03676Y05265
X0369Y05365
X037Y05208
X0375Y05312
X03809Y05327
X038459Y052366
X03923Y0533
X03926Y05375
X0397Y0533
X03973Y05375
X04033Y05228
X04069Y05275
X04204Y05188
X04204Y05337
X04205Y05412
X04322Y05249
X04324Y05325
X04325Y05175
X04385Y05393
X04596Y0534
X04626Y05341
X04626Y05374
X04627Y05408
X04656Y0534
X04741Y054
X04741Y052596
X04766Y051877
X04813Y0537
X048174Y052624
X04893Y05225
X04893Y05299
X04893Y05371
X04904Y05339
X04905Y0541
X04958Y05273
X04961Y05177
X04961Y05223
X05029Y05226
X05032Y0518
X05084Y05226
X05084Y05275
X05085Y05181
X056114Y052609
X05694Y051676
X05602Y05476
X05573Y055326
X05529Y05537
X053566Y056378
X053415Y055146
X053325Y055787
X05151Y05437
X051297Y054867
X05122Y05579
X051Y05467
X0509Y05599
X05088Y05632
X05087Y05663
X050099Y056579
X050054Y055855
X04989Y05471
X04914Y05477
X049031Y056585
X048924Y055758
X04873Y05498
X04736Y05515
X04711Y05466
X04662Y0554
X04588Y05541
X04543Y05484
X04497Y05465
X04438Y05606
X04421Y05495
X04355Y05578
X043Y05539
X04243Y05632
X04213Y05562
X042Y05637
X04177Y05563
X04143Y0565
X04114Y0564
X040384Y056539
X03975Y05419
X03963Y056522
X03925Y05421
X03856Y05472
X03835Y05433
X03806Y05643
X03766Y05493
X0373Y05519
X03704Y05648
X037Y05425
X03657Y0547
X03624Y05595
X03581Y05478
X035Y0549
X03441Y0544
X03404Y05575
X02987Y0544
X02525Y05624
X02399Y05564
X02316Y05832
X0245Y05816
X02533Y05699
X02533Y058
X02828Y05812
X03165Y05877
X03525Y05838
X03606Y05764
X03651Y05798
X03747Y05874
X03765Y05806
X03967Y05776
X0401Y05769
X04065Y05766
X04198Y05809
X04266Y05735
X0429Y05833
X04302Y05704
X04323Y05885
X04329Y05755
X04365Y05785
X0437Y05823
X04407Y05799
X04456Y05816
X04515Y05727
X04537Y05857
X0455Y05801
X04599Y05911
X04655Y058
X04698Y05842
X047Y058
X04747Y05836
X047751Y058037
X04803Y05831
X048491Y058045
X04898Y057556
X04926Y05792
X049766Y056801
X049784Y057542
X05004Y05704
X05006Y05777
X05048Y05848
X05082Y0588
X05089Y05724
X05093Y05755
X05217Y05851
X05236Y05826
X05265Y05818
X05294Y05833
X05307Y05806
X05335Y05795
X05429Y05842
X05524Y05674
X055755Y057846
X056561Y0576
X0495Y06155
X0493Y06075
X04923Y06125
X04875Y06035
X04875Y06255
X04786Y0595
X04691Y05958
X04525Y06404
X0443Y06389
X044Y06405
X04347Y06402
X03958Y063
X03826Y06345
X03726Y0634
X03706Y06386
X03679Y06081
X031959Y062251
X03057Y06303
X03053Y06249
X02613Y0594
X0255Y05981
X02499Y05982
X0245Y05982
X02415Y06325
X024Y0641
X024Y05981
X02355Y06405
X02118Y06175
X02117Y06025
X02117Y06076
X02117Y06125
X01692Y06408
X01661Y06361
X01634Y06382
X01632Y0635
X01623Y06187
X01591Y06352
X01588Y06407
X01565Y0638
X014593Y062351
X01444Y0615
X01441Y06325
X01413Y06163
X01345Y06363
X01287Y06184
X01285Y06301
X01276Y06084
X01271Y06212
X01255Y06163
X01204Y06206
X01105Y06607
X01201Y06501
X01221Y06476
X01355Y06437
X01358Y06571
X0145Y0645
X01545Y06577
X016Y06615
X016Y06585
X016Y06555
X0176Y0655
X01785Y0652
X01786Y06481
X0179Y0659
X018Y0655
X02127Y06509
X02128Y06435
X02486Y06545
X02532Y06508
X026Y0651
X0264Y0651
X0264Y06545
X02795Y06594
X02878Y06629
X02989Y065091
X03015Y06629
X031Y06479
X03104Y06658
X03129Y06579
X03138Y06429
X03276Y0643
X035251Y066245
X035251Y065851
X035257Y066662
X03609Y06467
X03661Y06515
X03695Y0665
X03837Y06463
X03845Y0665
X0385Y06575
X03899Y06578
X04211Y06529
X04212Y06459
X042396Y064707
X04293Y06561
X04295Y06524
X04296Y06488
X0435Y06525
X0435Y06559
X04352Y06488
X04405Y06524
X04406Y06491
X04406Y06558
X04444Y06623
X04457Y06465
X04686Y06622
X04875Y065854
X04932Y065
X0499Y0647
X04605Y06785
X0452Y06795
X04461Y06754
X0435Y0679
X04275Y0679
X042Y06791
X04128Y06705
X0386Y06725
X03559Y0676
X03556Y0671
X0353Y06774
X03528Y06725
X035Y0676
X03498Y0671
X03246Y06763
X03245Y06687
X03Y06792
X02883Y06713
X02883Y06686
X02856Y06686
X02814Y06671
X02691Y06771
X02525Y06799
X02205Y06772
X01525Y06694
T3C.0197F095S3
X054764Y017335
X054764Y018909
X054803Y018122
X055315Y017335
X055315Y018909
X055354Y018122
X055866Y017335
X055866Y018909
X055906Y018122
X056417Y017335
X056417Y018909
X056457Y018122
X056969Y017335
X056969Y018909
X057008Y018122
X05752Y017335
X05752Y018909
X057559Y018122
X058071Y017335
X058071Y018909
X05811Y018122
X058622Y017335
X058622Y018909
X058661Y018122
X059173Y017335
X059173Y018909
X059213Y018122
X059213Y019697
X059213Y021272
X059173Y020484
X058661Y019697
X058661Y021272
X058622Y020484
X05811Y019697
X05811Y021272
X058071Y020484
X057559Y019697
X057559Y021272
X05752Y020484
X057008Y019697
X057008Y021272
X056969Y020484
X056457Y019697
X056457Y021272
X056417Y020484
X055906Y019697
X055906Y021272
X055866Y020484
X055354Y019697
X055354Y021272
X055315Y020484
X054803Y019697
X054803Y021272
X054764Y020484
X054764Y022059
X054803Y022846
X055315Y022059
X055354Y022846
X055866Y022059
X055906Y022846
X056417Y022059
X056457Y022846
X056969Y022059
X057008Y022846
X05752Y022059
X057559Y022846
X058071Y022059
X05811Y022846
X058622Y022059
X058661Y022846
X059173Y022059
X059213Y022846
X059213Y036535
X059173Y035748
X058661Y036535
X058622Y035748
X05811Y036535
X058071Y035748
X057559Y036535
X05752Y035748
X057008Y036535
X056969Y035748
X056457Y036535
X056417Y035748
X055906Y036535
X055866Y035748
X055354Y036535
X055315Y035748
X054803Y036535
X054764Y035748
X054764Y037323
X054764Y038898
X054803Y03811
X055315Y037323
X055315Y038898
X055354Y03811
X055866Y037323
X055866Y038898
X055906Y03811
X056417Y037323
X056417Y038898
X056457Y03811
X056969Y038898
X056969Y037323
X057008Y03811
X05752Y038898
X05752Y037323
X057559Y03811
X058071Y038898
X058071Y037323
X05811Y03811
X058622Y038898
X058622Y037323
X058661Y03811
X059173Y037323
X059173Y038898
X059213Y03811
X059213Y039685
X058661Y039685
X05811Y039685
X057559Y039685
X057008Y039685
X056457Y039685
X055906Y039685
X055354Y039685
X054803Y039685
T4C.02F197S55
X01562Y01662
X01998Y01196
X02103Y01195
X02175Y01645
X02204Y01195
X02363Y01648
X02399Y01196
X02866Y01652
X03278Y01646
X03344Y01652
X03401Y01656
X03552Y01658
X03625Y01394
X03625Y01553
X0375Y01183
X038Y01479
X03827Y01183
X03885Y0158
X03927Y01182
X0393Y01504
X03999Y01453
X03999Y01183
X04075Y01182
X04086Y01625
X04102Y01525
X0412Y01599
X04151Y01181
X04225Y01182
X04248Y016
X04249Y01525
X04506Y01245
X04548Y01446
X05326Y01776
X05272Y01895
X052338Y017285
X0515Y01769
X05074Y01769
X05028Y01906
X05014Y01784
X04625Y01727
X04515Y01737
X04478Y01855
X04162Y01851
X03951Y01749
X03674Y01904
X03619Y01675
X03349Y017
X03105Y01869
X03087Y01755
X02991Y01862
X02341Y019
X02167Y01705
X02075Y01813
X02026Y0167
X01975Y01671
X01925Y0167
X01825Y0179
X01502Y01849
X01826Y01971
X02341Y0195
X02745Y02347
X02826Y01922
X03052Y02241
X03121Y02088
X03177Y02088
X03263Y02205
X03279Y02301
X03306Y01943
X03444Y02231
X03605Y02289
X03606Y02235
X03673Y01968
X04166Y01999
X04525Y02
X04598Y02005
X04601Y01946
X04723Y02349
X04725Y01941
X04748Y02287
X04773Y01942
X04824Y01934
X04825Y02284
X04875Y01934
X04899Y02408
X04903Y02284
X0493Y02047
X0502Y02398
X05023Y01959
X05146Y024
X05225Y02273
X05397Y01999
X05399Y02069
X05416Y02375
X05902Y02818
X058Y02767
X05747Y02525
X057Y0287
X05694Y02422
X05608Y02649
X05551Y02504
X05358Y02875
X05152Y02879
X05151Y02522
X05126Y02443
X04857Y02608
X0485Y02449
X04777Y02449
X03589Y0268
X03588Y02793
X03587Y02737
X02701Y02494
X02273Y02859
X02129Y02723
X02128Y02554
X01897Y02637
X01779Y02506
X01767Y02652
X01572Y02583
X02149Y03352
X02149Y03414
X04824Y02954
X04835Y03137
X04875Y02953
X04921Y03174
X04951Y02954
X05026Y02951
X05071Y03274
X0513Y03272
X05134Y02917
X05144Y02999
X05172Y03082
X05208Y03175
X05243Y03275
X05424Y03202
X05545Y03171
X056Y03229
X05701Y0303
X05724Y03203
X05879Y0312
X05901Y03276
X05825Y03472
X05749Y03476
X05675Y03474
X05263Y036
X05251Y0343
X0218Y03585
X0216Y0371
X021573Y037762
X021562Y038223
X02132Y03488
X01787Y04121
X02168Y04037
X04419Y04374
X04424Y043
X0455Y0425
X0505Y0419
X05114Y0419
X05287Y04189
X05377Y0419
X05509Y04196
X05561Y04189
X05568Y04097
X057024Y041299
X05875Y04149
X05859Y04905
X05725Y04472
X04922Y04721
X04902Y04578
X04896Y04645
X04824Y04437
X04201Y04829
X04201Y04787
X03325Y04817
X0332Y04496
X02904Y04872
X01361Y04798
X013224Y047381
X0125Y0505
X01254Y05353
X01405Y04965
X01683Y05159
X01854Y051
X01854Y05175
X01983Y05245
X02408Y0525
X02413Y05099
X02414Y05175
X02538Y0531
X02572Y05195
X02612Y05249
X02627Y05196
X0279Y05273
X02905Y05118
X02927Y05154
X03255Y05106
X03868Y05167
X03964Y05157
X0498Y04977
X05248Y0525
X05266Y05163
X05349Y0527
X05417Y0527
X0553Y05246
X05555Y04942
X05564Y05311
X05594Y05084
X0565Y04942
X05655Y0529
X05705Y0529
X05705Y05084
X05726Y04951
X05755Y0529
X05805Y0529
X05646Y05424
X05558Y05475
X05485Y05532
X0538Y0552
X05271Y05629
X05227Y05629
X05185Y05628
X0392Y05506
X03552Y05574
X03324Y0555
X03221Y05598
X02816Y05607
X02766Y05607
X02706Y05607
X02652Y05607
X02148Y056
X01798Y05517
X01798Y0547
X01797Y05426
X01744Y05426
X01743Y05517
X01742Y0547
X01682Y05516
X01681Y05471
X01681Y05426
X01192Y05536
X01203Y0602
X0124Y05818
X0205Y05684
X02051Y05927
X02163Y05808
X02249Y0578
X02375Y05822
X02767Y05699
X02769Y058
X03221Y05882
X03222Y05929
X03224Y05778
X03475Y05762
X03475Y05972
X03525Y05762
X03725Y06051
X03725Y061
X03825Y06049
X03825Y06096
X03963Y05892
X04625Y05673
X04729Y05973
X05183Y05716
X05185Y05674
X05227Y05717
X05227Y05675
X05271Y05675
X05273Y05717
X05015Y06225
X04211Y06589
X0405Y06387
X03899Y06474
X03899Y06523
X0336Y066
X02938Y06502
X02913Y0641
X02835Y065
X02695Y06585
X0261Y06658
X02478Y06639
X0244Y06609
X02389Y06575
X02242Y06253
X0218Y06295
X02173Y06625
X0217Y06577
X02131Y06623
X02043Y06499
X02042Y06556
X01989Y06494
X01878Y06513
X012Y06645
X01375Y067
X01676Y06713
X0175Y0671
X01876Y06746
X01975Y06746
X0213Y06762
X0235Y06782
X02366Y06743
X02414Y06757
X02481Y06689
X02785Y06795
X0396Y06725
X04689Y06803
T5C.02953F197S55
X054094Y059791
X054882Y059791
X055669Y059791
X057244Y059791
X058031Y059791
X058819Y059791
X058819Y062154
X058031Y062154
X057244Y062154
X055669Y062154
X054882Y062154
X054094Y062154
T6C.0315F197S55
X058Y05612
X058Y05549
X059024Y055805
X059024Y056435
X058Y05675
T7C.03543F197S55
X013622Y023713
X013622Y022713
X013898Y021768
X013898Y020768
X014622Y023713
X014622Y022713
X014898Y021768
X014898Y020768
X013512Y033016
X013512Y032016
X013291Y033957
X012512Y032016
X012512Y033016
X012291Y033957
X01185Y037846
X01185Y038846
X012071Y035902
X012071Y036902
X012291Y034957
X01285Y038846
X01285Y037846
X013071Y035902
X013071Y036902
X013291Y034957
X012142Y048531
X012142Y047531
X011142Y048531
X011142Y047531
X058197Y057557G85X058827Y057557
X058197Y054683G85X058827Y054683
T8C.036F197S55
X028Y01325
X028Y01425
X029Y01325
X029Y01425
X03Y01325
X03Y01425
X031Y01325
X031Y01425
X032Y01325
X032Y01425
X033Y01325
X033Y01425
X034Y01325
X034Y01425
X035Y01325
X035Y01425
T9C.03937F197S55
X0205Y01375
X0205Y01475
X0215Y01475
X0215Y01375
X0225Y01475
X0225Y01375
X0235Y01475
X0235Y01375
X0245Y01375
X0245Y01475
X038Y0175
X037Y0175
X036Y0175
T10C.04F139S55
X015335Y013929
X015335Y012157
T11C.044F139S55
X010709Y051055
X010709Y053906
X010709Y052906
X010709Y052055
X010709Y055756
X010709Y054756
X010709Y056606
X010709Y057606
X010709Y058457
X010709Y059457
X010709Y061307
X010709Y060307
T12C.05118F107S55
X016319Y011665
X016319Y014421
T13C.06299F089S55
X02625Y02485
X02625Y05115
T14C.063F089S55
X015Y05475
X018Y01625
X02212Y05497
X03089Y05573
X05155Y06075
X0499Y06575
X04425Y05925
X03625Y05975
X02237Y06172
X01275Y0676
X02052Y06784
T15C.07874F081S55
X058425Y060972
T16C.15748F035S9
X053209Y014083
X055815Y014083
X058031Y014083
X058031Y065906
X055815Y065906
X053209Y065906
M30
