*
*
G04 PADS 9.2 Build Number: 406656 generated Gerber (RS-274-X) file*
G04 PC Version=2.1*
*
%IN "17-600400-001_rev2.pcb"*%
*
%MOIN*%
*
%FSLAX35Y35*%
*
*
*
*
G04 PC Standard Apertures*
*
*
G04 Thermal Relief Aperture macro.*
%AMTER*
1,1,$1,0,0*
1,0,$1-$2,0,0*
21,0,$3,$4,0,0,45*
21,0,$3,$4,0,0,135*
%
*
*
G04 Annular Aperture macro.*
%AMANN*
1,1,$1,0,0*
1,0,$2,0,0*
%
*
*
G04 Odd Aperture macro.*
%AMODD*
1,1,$1,0,0*
1,0,$1-0.005,0,0*
%
*
*
G04 PC Custom Aperture Macros*
*
*
*
*
*
*
G04 PC Aperture Table*
*
%ADD010C,0.001*%
%ADD015R,0.024X0.065*%
%ADD016R,0.036X0.038*%
%ADD017R,0.038X0.036*%
%ADD018R,0.063X0.071*%
%ADD019R,0.052X0.06*%
%ADD020R,0.071X0.063*%
%ADD021R,0.06X0.052*%
%ADD022R,0.07087X0.08858*%
%ADD023R,0.103X0.096*%
%ADD032R,0.01181X0.03346*%
%ADD033R,0.03346X0.01181*%
%ADD058R,0.03346X0.02165*%
%ADD078R,0.02362X0.04331*%
%ADD082R,0.032X0.028*%
%ADD085C,0.01*%
%ADD086C,0.00039*%
%ADD087C,0.015*%
%ADD092C,0.008*%
%ADD111R,0.05709X0.01772*%
%ADD112R,0.01772X0.03543*%
%ADD114R,0.02165X0.03346*%
%ADD115R,0.01181X0.03543*%
%ADD116R,0.03543X0.01181*%
%ADD119R,0.0315X0.07087*%
%ADD120R,0.07087X0.04724*%
%ADD121R,0.07087X0.05512*%
%ADD122R,0.11811X0.15748*%
%ADD124R,0.04134X0.02362*%
%ADD138R,0.07008X0.05039*%
%ADD139R,0.04567X0.08504*%
%ADD140R,0.05039X0.07008*%
%ADD141R,0.08504X0.04567*%
*
*
*
*
G04 PC Circuitry*
G04 Layer Name 17-600400-001_rev2.pcb - circuitry*
%LPD*%
*
*
G04 PC Custom Flashes*
G04 Layer Name 17-600400-001_rev2.pcb - flashes*
%LPD*%
*
*
G04 PC Circuitry*
G04 Layer Name 17-600400-001_rev2.pcb - circuitry*
%LPD*%
*
G54D10*
G54D15*
G01X605900Y542630D03*
X610900D03*
X615900D03*
X620900D03*
Y521170D03*
X615900D03*
X610900D03*
X605900D03*
X580400Y581130D03*
X585400D03*
X590400D03*
X595400D03*
Y559670D03*
X590400D03*
X585400D03*
X580400D03*
X547900Y241130D03*
X552900D03*
X557900D03*
X562900D03*
Y219670D03*
X557900D03*
X552900D03*
X547900D03*
G54D16*
X318353Y530400D03*
X312447D03*
X287447D03*
X293353D03*
X320853Y260400D03*
X314947D03*
X442447Y685400D03*
X448353D03*
X318353Y537900D03*
X312447D03*
X287447D03*
X293353D03*
X537447Y372900D03*
X543353D03*
X344947Y202900D03*
X350853D03*
X362125Y199006D03*
X368031D03*
X364947Y535400D03*
X370853D03*
X362447Y575400D03*
X368353D03*
X438353Y540400D03*
X432447D03*
X370853Y210400D03*
X364947D03*
X352447Y222900D03*
X358353D03*
X324947Y520400D03*
X330853D03*
X538353Y522900D03*
X532447D03*
X320853Y267900D03*
X314947D03*
X504947Y387900D03*
X510853D03*
X555853Y377900D03*
X549947D03*
X604947Y567900D03*
X610853D03*
X582447Y290400D03*
X588353D03*
X262447Y540400D03*
X268353D03*
X262447Y547900D03*
X268353D03*
X588353Y590400D03*
X582447D03*
X579947Y600400D03*
X585853D03*
X350853Y190400D03*
X344947D03*
X347853Y409400D03*
X341947D03*
X324947Y512900D03*
X330853D03*
X247447Y287900D03*
X253353D03*
X247447Y280400D03*
X253353D03*
X517447Y357900D03*
X523353D03*
X518353Y410400D03*
X512447D03*
X492447Y345400D03*
X498353D03*
X477447Y355400D03*
X483353D03*
X492447Y372900D03*
X498353D03*
X492447Y402900D03*
X498353D03*
X492447Y395400D03*
X498353D03*
X492447Y432900D03*
X498353D03*
X492447Y410400D03*
X498353D03*
X492447Y417900D03*
X498353D03*
X492447Y425400D03*
X498353D03*
X492447Y440400D03*
X498353D03*
X330853Y527900D03*
X324947D03*
X477447Y410400D03*
X483353D03*
X448353Y670400D03*
X442447D03*
X398947Y335900D03*
X404853D03*
X559947Y252900D03*
X565853D03*
X559947Y267900D03*
X565853D03*
X559947Y290400D03*
X565853D03*
X559947Y282900D03*
X565853D03*
X437447Y505400D03*
X443353D03*
X553353Y572900D03*
X547447D03*
X553353Y522900D03*
X547447D03*
X559947Y305400D03*
X565853D03*
X559947Y297900D03*
X565853D03*
X559947Y275400D03*
X565853D03*
X630853Y277900D03*
X624947D03*
X630853Y285400D03*
X624947D03*
X449947Y165400D03*
X455853D03*
X565853Y320400D03*
X559947D03*
Y260400D03*
X565853D03*
X580853Y252900D03*
X574947D03*
X630853Y255400D03*
X624947D03*
X630853Y262900D03*
X624947D03*
X559947Y312900D03*
X565853D03*
X630853Y270400D03*
X624947D03*
X502447Y297900D03*
X508353D03*
X485853Y555400D03*
X479947D03*
X588353Y520400D03*
X582447D03*
X574947Y432900D03*
X580853D03*
X508353Y305400D03*
X502447D03*
X479947Y547900D03*
X485853D03*
X493353Y495400D03*
X487447D03*
X493353Y502900D03*
X487447D03*
X485853Y585400D03*
X479947D03*
X487447Y487900D03*
X493353D03*
Y457900D03*
X487447D03*
Y465400D03*
X493353D03*
X402447Y182900D03*
X408353D03*
X443353Y497900D03*
X437447D03*
X422447Y182900D03*
X428353D03*
X493353Y450400D03*
X487447D03*
X454947Y542900D03*
X460853D03*
X454947Y557900D03*
X460853D03*
X454947Y565400D03*
X460853D03*
X454947Y580400D03*
X460853D03*
Y535400D03*
X454947D03*
X460853Y550400D03*
X454947D03*
X460853Y572900D03*
X454947D03*
X442447Y677900D03*
X448353D03*
X630853Y307900D03*
X624947D03*
X265853Y322900D03*
X259947D03*
X253353Y307900D03*
X247447D03*
X537447Y365400D03*
X543353D03*
Y380400D03*
X537447D03*
X563353Y435400D03*
X557447D03*
X590547Y434400D03*
X596453D03*
X492447Y380400D03*
X498353D03*
X527447Y451900D03*
X533353D03*
X582447Y272900D03*
X588353D03*
X582447Y282900D03*
X588353D03*
X498353Y387900D03*
X492447D03*
X483353Y425400D03*
X477447D03*
X519947Y592900D03*
X525853D03*
X519947Y585400D03*
X525853D03*
X485853Y592900D03*
X479947D03*
X533353Y445400D03*
X527447D03*
X575853Y220400D03*
X569947D03*
X575853Y227900D03*
X569947D03*
X575853Y235400D03*
X569947D03*
X575853Y242900D03*
X569947D03*
X214947Y537900D03*
X220853D03*
X214947Y530400D03*
X220853D03*
X159947Y595400D03*
X165853D03*
X159947Y632900D03*
X165853D03*
X159947Y547900D03*
X165853D03*
X159947Y567900D03*
X165853D03*
X159947Y530400D03*
X165853D03*
X159947Y615400D03*
X165853D03*
X167447Y645400D03*
X173353D03*
X358353Y237900D03*
X352447D03*
X389947Y205400D03*
X395853D03*
X388353Y225400D03*
X382447D03*
X323353Y200400D03*
X317447D03*
X323353Y192900D03*
X317447D03*
X332447Y190400D03*
X338353D03*
X152447Y661900D03*
X158353D03*
X550853Y512900D03*
X544947D03*
X404947Y607900D03*
X410853D03*
X557447Y597900D03*
X563353D03*
X419353Y393900D03*
X413447D03*
X212447Y195400D03*
X218353D03*
X212447Y205400D03*
X218353D03*
X442853Y180400D03*
X436947D03*
X285853Y610400D03*
X279947D03*
X593353Y363300D03*
X587447D03*
X614853Y333900D03*
X608947D03*
X599653Y351300D03*
X593747D03*
X379947Y242900D03*
X385853D03*
G54D17*
X265400Y432447D03*
Y438353D03*
X379400Y368353D03*
Y362447D03*
X475400Y193353D03*
Y187447D03*
X335900Y357447D03*
Y363353D03*
X572900Y589947D03*
Y595853D03*
X337900Y535853D03*
Y529947D03*
X272900Y432447D03*
Y438353D03*
X400400Y529947D03*
Y535853D03*
X457900Y659947D03*
Y665853D03*
X595900Y524853D03*
Y518947D03*
X530400Y382447D03*
Y388353D03*
X300400Y402447D03*
Y408353D03*
X212900Y270853D03*
Y264947D03*
X205400Y270853D03*
Y264947D03*
X387900Y174947D03*
Y180853D03*
X335400Y174947D03*
Y180853D03*
X372900Y174947D03*
Y180853D03*
X350400Y174947D03*
Y180853D03*
X395400Y174947D03*
Y180853D03*
X327900Y174947D03*
Y180853D03*
X357900Y174947D03*
Y180853D03*
X457900Y454947D03*
Y460853D03*
X197900Y270853D03*
Y264947D03*
X175400Y284947D03*
Y290853D03*
X522900Y425853D03*
Y419947D03*
X530400Y425853D03*
Y419947D03*
X537900Y425853D03*
Y419947D03*
X515400Y425853D03*
Y419947D03*
X507900Y425853D03*
Y419947D03*
X390400Y563353D03*
Y557447D03*
X620400Y457447D03*
Y463353D03*
X605400Y445853D03*
Y439947D03*
X620400Y445853D03*
Y439947D03*
Y504947D03*
Y510853D03*
X627900Y487447D03*
Y493353D03*
Y475853D03*
Y469947D03*
X380400Y180853D03*
Y174947D03*
X365400Y180853D03*
Y174947D03*
X442900Y453353D03*
Y447447D03*
X545400Y444947D03*
Y450853D03*
X432900Y215853D03*
Y209947D03*
X440400Y215853D03*
Y209947D03*
X470400Y215853D03*
Y209947D03*
X462900Y215853D03*
Y209947D03*
X245400Y139947D03*
Y145853D03*
X265400D03*
Y139947D03*
X610400Y274947D03*
Y280853D03*
X482900Y260853D03*
Y254947D03*
X465400Y454947D03*
Y460853D03*
X447900Y144947D03*
Y150853D03*
Y215853D03*
Y209947D03*
X425400Y215853D03*
Y209947D03*
X432900Y144947D03*
Y150853D03*
X440400Y144947D03*
Y150853D03*
X457900Y467447D03*
Y473353D03*
X477900Y215853D03*
Y209947D03*
X485400Y215853D03*
Y209947D03*
X492900Y215853D03*
Y209947D03*
X455400Y215853D03*
Y209947D03*
X450400Y467447D03*
Y473353D03*
X472900Y467447D03*
Y473353D03*
Y460853D03*
Y454947D03*
X450400Y460853D03*
Y454947D03*
X627900Y439947D03*
Y445853D03*
X552900Y444947D03*
Y450853D03*
X430400Y254947D03*
Y260853D03*
X593400Y533947D03*
Y539853D03*
X465400Y473353D03*
Y467447D03*
X612900Y510853D03*
Y504947D03*
X457900Y272447D03*
Y278353D03*
X527900Y504947D03*
Y510853D03*
Y498353D03*
Y492447D03*
X540400Y267447D03*
Y273353D03*
X520400Y310853D03*
Y304947D03*
X532900Y267447D03*
Y273353D03*
X527900Y304947D03*
Y310853D03*
X535400Y304947D03*
Y310853D03*
X527900Y462447D03*
Y468353D03*
X477900Y498353D03*
Y492447D03*
X490400Y260853D03*
Y254947D03*
X477900Y504947D03*
Y510853D03*
X542900Y310853D03*
Y304947D03*
X422900Y144947D03*
Y150853D03*
X467900Y260853D03*
Y254947D03*
X442900Y473353D03*
Y467447D03*
X415400Y144947D03*
Y150853D03*
X432900Y530853D03*
Y524947D03*
X447900Y530853D03*
Y524947D03*
X440400Y579947D03*
Y585853D03*
X460400Y260853D03*
Y254947D03*
X425400Y524947D03*
Y530853D03*
X440400Y524947D03*
Y530853D03*
X425400Y585853D03*
Y579947D03*
X447900Y585853D03*
Y579947D03*
X465400Y278353D03*
Y272447D03*
X480400Y278353D03*
Y272447D03*
X495400Y278353D03*
Y272447D03*
X502900Y278353D03*
Y272447D03*
X510400Y278353D03*
Y272447D03*
X452900Y239947D03*
Y245853D03*
X472900Y272447D03*
Y278353D03*
X487900Y272447D03*
Y278353D03*
X437900Y245853D03*
Y239947D03*
X445400Y245853D03*
Y239947D03*
X285400Y145853D03*
Y139947D03*
X535400Y578353D03*
Y572447D03*
X255400Y145853D03*
Y139947D03*
X399900Y393447D03*
Y399353D03*
X425900Y393447D03*
Y399353D03*
X442400Y366353D03*
Y360447D03*
X383900Y354853D03*
Y348947D03*
X485400Y144947D03*
Y150853D03*
X415400Y254947D03*
Y260853D03*
X407900Y254947D03*
Y260853D03*
X617900Y320853D03*
Y314947D03*
X630400D03*
Y320853D03*
X455400Y144947D03*
Y150853D03*
X462900Y144947D03*
Y150853D03*
X612900Y445853D03*
Y439947D03*
X477900Y150853D03*
Y144947D03*
X470400Y150853D03*
Y144947D03*
X375400Y444947D03*
Y450853D03*
X392900D03*
Y444947D03*
X450400Y193353D03*
Y187447D03*
X460400Y193353D03*
Y187447D03*
Y245853D03*
Y239947D03*
X437900Y254947D03*
Y260853D03*
X445400Y254947D03*
Y260853D03*
X422900Y254947D03*
Y260853D03*
X452900Y254947D03*
Y260853D03*
X592900Y309947D03*
Y315853D03*
X600400Y309947D03*
Y315853D03*
X537900Y163353D03*
Y157447D03*
Y177447D03*
Y183353D03*
X562925Y202270D03*
Y208176D03*
X547925D03*
Y202270D03*
X555425Y208176D03*
Y202270D03*
X572900Y202447D03*
Y208353D03*
X432900Y579947D03*
Y585853D03*
X475400Y254947D03*
Y260853D03*
X185400Y447447D03*
Y453353D03*
X192900Y447447D03*
Y453353D03*
X165400Y483353D03*
Y477447D03*
X157900Y483353D03*
Y477447D03*
X322900Y244947D03*
Y250853D03*
X405400Y557447D03*
Y563353D03*
X377900Y249947D03*
Y255853D03*
X385400Y249947D03*
Y255853D03*
X177900Y453353D03*
Y447447D03*
X207900Y548353D03*
Y542447D03*
X342900Y174947D03*
Y180853D03*
X390400Y522447D03*
Y528353D03*
X397900Y557447D03*
Y563353D03*
X406400Y399353D03*
Y393447D03*
X442400Y353853D03*
Y347947D03*
X391900Y340853D03*
Y334947D03*
X595400Y259947D03*
Y265853D03*
X447900Y536947D03*
Y542853D03*
X175400Y669947D03*
Y675853D03*
X620900Y359947D03*
Y365853D03*
X627900Y359947D03*
Y365853D03*
X631400Y342853D03*
Y336947D03*
G54D18*
X344888Y212900D03*
X355912D03*
G54D19*
X286660Y545400D03*
X294140D03*
X314140D03*
X306660D03*
X444140Y602900D03*
X436660D03*
X521660Y367900D03*
X529140D03*
X271140Y366400D03*
X263660D03*
X544160Y700400D03*
X551640D03*
G54D20*
X567900Y562388D03*
Y573412D03*
X552900Y167388D03*
Y178412D03*
G54D21*
X537900Y474140D03*
Y466660D03*
X485400Y194140D03*
Y186660D03*
X620400Y486660D03*
Y494140D03*
X410400Y529160D03*
Y536640D03*
X582900Y309160D03*
Y316640D03*
X341500Y399340D03*
Y391860D03*
X265600Y413360D03*
Y420840D03*
X340600Y424360D03*
Y431840D03*
X565600Y185740D03*
Y178260D03*
G54D22*
X477191Y297900D03*
X488609D03*
X448191Y434900D03*
X459609D03*
X438191Y295300D03*
X449609D03*
X391409Y297000D03*
X379991D03*
X478691Y329900D03*
X490109D03*
X495191Y358900D03*
X506609D03*
G54D23*
X566998Y650400D03*
X541802D03*
X541498Y627900D03*
X516302D03*
G54D32*
X513353Y508274D03*
Y492526D03*
X507447D03*
Y508274D03*
X463353D03*
Y492526D03*
X457447D03*
Y508274D03*
X505853Y595774D03*
Y580026D03*
X499947D03*
Y595774D03*
X513353Y460774D03*
Y445026D03*
X507447D03*
Y460774D03*
X415479Y174790D03*
X417447D03*
X419416D03*
X421384D03*
X423353D03*
X425321D03*
Y161010D03*
X423353D03*
X421384D03*
X419416D03*
X417447D03*
X415479D03*
X532979Y297290D03*
X534947D03*
X536916D03*
X538884D03*
X540853D03*
X542821D03*
Y283510D03*
X540853D03*
X538884D03*
X536916D03*
X534947D03*
X532979D03*
X505853Y558274D03*
Y542526D03*
X499947D03*
Y558274D03*
X619947Y352502D03*
X621916D03*
X623884D03*
X625853D03*
Y340298D03*
X623884D03*
X621916D03*
X619947D03*
G54D33*
X517290Y505321D03*
Y503353D03*
Y501384D03*
Y499416D03*
Y497447D03*
Y495479D03*
X503510D03*
Y497447D03*
Y499416D03*
Y501384D03*
Y503353D03*
Y505321D03*
X467290D03*
Y503353D03*
Y501384D03*
Y499416D03*
Y497447D03*
Y495479D03*
X453510D03*
Y497447D03*
Y499416D03*
Y501384D03*
Y503353D03*
Y505321D03*
X509790Y592821D03*
Y590853D03*
Y588884D03*
Y586916D03*
Y584947D03*
Y582979D03*
X496010D03*
Y584947D03*
Y586916D03*
Y588884D03*
Y590853D03*
Y592821D03*
X517290Y457821D03*
Y455853D03*
Y453884D03*
Y451916D03*
Y449947D03*
Y447979D03*
X503510D03*
Y449947D03*
Y451916D03*
Y453884D03*
Y455853D03*
Y457821D03*
X412526Y170853D03*
X428274D03*
Y164947D03*
X412526D03*
X530026Y293353D03*
X545774D03*
Y287447D03*
X530026D03*
X509790Y555321D03*
Y553353D03*
Y551384D03*
Y549416D03*
Y547447D03*
Y545479D03*
X496010D03*
Y547447D03*
Y549416D03*
Y551384D03*
Y553353D03*
Y555321D03*
X612002Y363353D03*
Y361384D03*
Y359416D03*
Y357447D03*
X599798D03*
Y359416D03*
Y361384D03*
Y363353D03*
G54D58*
X159534Y652959D03*
Y647841D03*
X151266Y650400D03*
X171266Y655341D03*
Y660459D03*
X179534Y657900D03*
G54D78*
X609140Y577782D03*
X605400D03*
X601660D03*
Y588018D03*
X605400D03*
X609140D03*
G54D82*
X156542Y668981D03*
Y680481D03*
G54D85*
X388300Y388411D02*
Y389197D01*
X388507Y389404*
X389293*
X389500Y389197*
Y388411*
X389293Y388204*
X388507*
X388300Y388411*
X388311Y388400D02*
X389489D01*
X388503Y389400D02*
X389297D01*
X388400Y388311D02*
Y389297D01*
X389400Y388311D02*
Y389297D01*
X388300Y384911D02*
Y385697D01*
X388507Y385904*
X389293*
X389500Y385697*
Y384911*
X389293Y384704*
X388507*
X388300Y384911*
Y385400D02*
X389500D01*
X388400Y384811D02*
Y385797D01*
X389400Y384811D02*
Y385797D01*
X455389Y345322D02*
Y346108D01*
X455596Y346315*
X456382*
X456589Y346108*
Y345322*
X456382Y345115*
X455596*
X455389Y345322*
Y345400D02*
X456589D01*
X455400Y345311D02*
Y346119D01*
X456400Y345133D02*
Y346297D01*
X451889Y345322D02*
Y346108D01*
X452096Y346315*
X452882*
X453089Y346108*
Y345322*
X452882Y345115*
X452096*
X451889Y345322*
Y345400D02*
X453089D01*
X452400Y345115D02*
Y346315D01*
X451671Y384911D02*
Y385697D01*
X451878Y385904*
X452664*
X452871Y385697*
Y384911*
X452664Y384704*
X451878*
X451671Y384911*
Y385400D02*
X452871D01*
X452400Y384704D02*
Y385904D01*
X451671Y388411D02*
Y389197D01*
X451878Y389404*
X452664*
X452871Y389197*
Y388411*
X452664Y388204*
X451878*
X451671Y388411*
X451682Y388400D02*
X452860D01*
X451874Y389400D02*
X452668D01*
X452400Y388204D02*
Y389404D01*
X521550Y385007D02*
Y385793D01*
X521757Y386000*
X522543*
X522750Y385793*
Y385007*
X522543Y384800*
X521757*
X521550Y385007*
Y385400D02*
X522750D01*
X522400Y384800D02*
Y386000D01*
X518050Y385007D02*
Y385793D01*
X518257Y386000*
X519043*
X519250Y385793*
Y385007*
X519043Y384800*
X518257*
X518050Y385007*
Y385400D02*
X519250D01*
X518400Y384800D02*
Y386000D01*
X435704Y357133D02*
Y357919D01*
X435911Y358126*
X436697*
X436904Y357919*
Y357133*
X436697Y356926*
X435911*
X435704Y357133*
Y357400D02*
X436904D01*
X436400Y356926D02*
Y358126D01*
X432204Y357133D02*
Y357919D01*
X432411Y358126*
X433197*
X433404Y357919*
Y357133*
X433197Y356926*
X432411*
X432204Y357133*
Y357400D02*
X433404D01*
X432400Y356937D02*
Y358115D01*
X433400Y357129D02*
Y357923D01*
X435704Y349259D02*
Y350045D01*
X435911Y350252*
X436697*
X436904Y350045*
Y349259*
X436697Y349052*
X435911*
X435704Y349259*
Y349400D02*
X436904D01*
X436400Y349052D02*
Y350252D01*
X432204Y349259D02*
Y350045D01*
X432411Y350252*
X433197*
X433404Y350045*
Y349259*
X433197Y349052*
X432411*
X432204Y349259*
Y349400D02*
X433404D01*
X432400Y349063D02*
Y350241D01*
X433400Y349255D02*
Y350049D01*
X416238Y321918D02*
Y322704D01*
X416445Y322911*
X417231*
X417438Y322704*
Y321918*
X417231Y321711*
X416445*
X416238Y321918*
Y322400D02*
X417438D01*
X416400Y321756D02*
Y322866D01*
X417400Y321880D02*
Y322742D01*
X416238Y325418D02*
Y326204D01*
X416445Y326411*
X417231*
X417438Y326204*
Y325418*
X417231Y325211*
X416445*
X416238Y325418*
X416256Y325400D02*
X417420D01*
X416434Y326400D02*
X417242D01*
X416400Y325256D02*
Y326366D01*
X417400Y325380D02*
Y326242D01*
X428049Y341603D02*
Y342389D01*
X428256Y342596*
X429042*
X429249Y342389*
Y341603*
X429042Y341396*
X428256*
X428049Y341603*
X428252Y341400D02*
X429046D01*
X428060Y342400D02*
X429238D01*
X428400Y341396D02*
Y342596D01*
X428049Y345103D02*
Y345889D01*
X428256Y346096*
X429042*
X429249Y345889*
Y345103*
X429042Y344896*
X428256*
X428049Y345103*
Y345400D02*
X429249D01*
X428400Y344896D02*
Y346096D01*
X368993Y317544D02*
Y318330D01*
X369200Y318537*
X369986*
X370193Y318330*
Y317544*
X369986Y317337*
X369200*
X368993Y317544*
X369137Y317400D02*
X370049D01*
X369063Y318400D02*
X370123D01*
X369400Y317337D02*
Y318537D01*
X368993Y314044D02*
Y314830D01*
X369200Y315037*
X369986*
X370193Y314830*
Y314044*
X369986Y313837*
X369200*
X368993Y314044*
Y314400D02*
X370193D01*
X369400Y313837D02*
Y315037D01*
X358800Y303757D02*
Y304543D01*
X359007Y304750*
X359793*
X360000Y304543*
Y303757*
X359793Y303550*
X359007*
X358800Y303757*
Y304400D02*
X360000D01*
X359400Y303550D02*
Y304750D01*
X358800Y300257D02*
Y301043D01*
X359007Y301250*
X359793*
X360000Y301043*
Y300257*
X359793Y300050*
X359007*
X358800Y300257*
Y300400D02*
X360000D01*
X359400Y300050D02*
Y301250D01*
X360910Y372917D02*
Y373703D01*
X361117Y373910*
X361903*
X362110Y373703*
Y372917*
X361903Y372710*
X361117*
X360910Y372917*
Y373400D02*
X362110D01*
X361400Y372710D02*
Y373910D01*
X357410Y372917D02*
Y373703D01*
X357617Y373910*
X358403*
X358610Y373703*
Y372917*
X358403Y372710*
X357617*
X357410Y372917*
Y373400D02*
X358610D01*
X358400Y372710D02*
Y373910D01*
X357092Y384493D02*
Y385279D01*
X357299Y385486*
X358085*
X358292Y385279*
Y384493*
X358085Y384286*
X357299*
X357092Y384493*
X357185Y384400D02*
X358199D01*
X357213Y385400D02*
X358171D01*
X357400Y384286D02*
Y385486D01*
X353592Y384493D02*
Y385279D01*
X353799Y385486*
X354585*
X354792Y385279*
Y384493*
X354585Y384286*
X353799*
X353592Y384493*
X353685Y384400D02*
X354699D01*
X353713Y385400D02*
X354671D01*
X354400Y384286D02*
Y385486D01*
X356963Y420126D02*
Y420912D01*
X357170Y421119*
X357956*
X358163Y420912*
Y420126*
X357956Y419919*
X357170*
X356963Y420126*
Y420400D02*
X358163D01*
X357400Y419919D02*
Y421119D01*
X353463Y420126D02*
Y420912D01*
X353670Y421119*
X354456*
X354663Y420912*
Y420126*
X354456Y419919*
X353670*
X353463Y420126*
Y420400D02*
X354663D01*
X354400Y419919D02*
Y421119D01*
X359550Y355507D02*
Y356293D01*
X359757Y356500*
X360543*
X360750Y356293*
Y355507*
X360543Y355300*
X359757*
X359550Y355507*
X359657Y355400D02*
X360643D01*
X359657Y356400D02*
X360643D01*
X360400Y355300D02*
Y356500D01*
X356050Y355507D02*
Y356293D01*
X356257Y356500*
X357043*
X357250Y356293*
Y355507*
X357043Y355300*
X356257*
X356050Y355507*
X356157Y355400D02*
X357143D01*
X356157Y356400D02*
X357143D01*
X356400Y355300D02*
Y356500D01*
X384522Y317763D02*
Y318549D01*
X384729Y318756*
X385515*
X385722Y318549*
Y317763*
X385515Y317556*
X384729*
X384522Y317763*
Y318400D02*
X385722D01*
X385400Y317556D02*
Y318756D01*
X381022Y317763D02*
Y318549D01*
X381229Y318756*
X382015*
X382222Y318549*
Y317763*
X382015Y317556*
X381229*
X381022Y317763*
Y318400D02*
X382222D01*
X381400Y317556D02*
Y318756D01*
X404426Y388411D02*
Y389197D01*
X404633Y389404*
X405419*
X405626Y389197*
Y388411*
X405419Y388204*
X404633*
X404426Y388411*
X404437Y388400D02*
X405615D01*
X404629Y389400D02*
X405423D01*
X405400Y388204D02*
Y389404D01*
X404426Y384911D02*
Y385697D01*
X404633Y385904*
X405419*
X405626Y385697*
Y384911*
X405419Y384704*
X404633*
X404426Y384911*
Y385400D02*
X405626D01*
X405400Y384704D02*
Y385904D01*
X396552Y388411D02*
Y389197D01*
X396759Y389404*
X397545*
X397752Y389197*
Y388411*
X397545Y388204*
X396759*
X396552Y388411*
X396563Y388400D02*
X397741D01*
X396755Y389400D02*
X397549D01*
X397400Y388204D02*
Y389404D01*
X396552Y384911D02*
Y385697D01*
X396759Y385904*
X397545*
X397752Y385697*
Y384911*
X397545Y384704*
X396759*
X396552Y384911*
Y385400D02*
X397752D01*
X397400Y384704D02*
Y385904D01*
X451671Y317544D02*
Y318330D01*
X451878Y318537*
X452664*
X452871Y318330*
Y317544*
X452664Y317337*
X451878*
X451671Y317544*
X451815Y317400D02*
X452727D01*
X451741Y318400D02*
X452801D01*
X452400Y317337D02*
Y318537D01*
X451671Y314044D02*
Y314830D01*
X451878Y315037*
X452664*
X452871Y314830*
Y314044*
X452664Y313837*
X451878*
X451671Y314044*
Y314400D02*
X452871D01*
X452400Y313837D02*
Y315037D01*
X463700Y408315D02*
Y409101D01*
X463907Y409308*
X464693*
X464900Y409101*
Y408315*
X464693Y408108*
X463907*
X463700Y408315*
Y408400D02*
X464900D01*
X464400Y408108D02*
Y409308D01*
X467200Y408315D02*
Y409101D01*
X467407Y409308*
X468193*
X468400Y409101*
Y408315*
X468193Y408108*
X467407*
X467200Y408315*
Y408400D02*
X468400D01*
X467400Y408115D02*
Y409301D01*
X468400Y408315D02*
Y409101D01*
X447734Y419907D02*
Y420693D01*
X447941Y420900*
X448727*
X448934Y420693*
Y419907*
X448727Y419700*
X447941*
X447734Y419907*
Y420400D02*
X448934D01*
X448400Y419700D02*
Y420900D01*
X447734Y416407D02*
Y417193D01*
X447941Y417400*
X448727*
X448934Y417193*
Y416407*
X448727Y416200*
X447941*
X447734Y416407*
X447741Y416400D02*
X448927D01*
X447941Y417400D02*
X448727D01*
X448400Y416200D02*
Y417400D01*
X424300Y408757D02*
Y409543D01*
X424507Y409750*
X425293*
X425500Y409543*
Y408757*
X425293Y408550*
X424507*
X424300Y408757*
Y409400D02*
X425500D01*
X424400Y408657D02*
Y409643D01*
X425400Y408657D02*
Y409643D01*
X424300Y412257D02*
Y413043D01*
X424507Y413250*
X425293*
X425500Y413043*
Y412257*
X425293Y412050*
X424507*
X424300Y412257*
Y412400D02*
X425500D01*
X424400Y412157D02*
Y413143D01*
X425400Y412157D02*
Y413143D01*
X447734Y345103D02*
Y345889D01*
X447941Y346096*
X448727*
X448934Y345889*
Y345103*
X448727Y344896*
X447941*
X447734Y345103*
Y345400D02*
X448934D01*
X448400Y344896D02*
Y346096D01*
X447734Y341603D02*
Y342389D01*
X447941Y342596*
X448727*
X448934Y342389*
Y341603*
X448727Y341396*
X447941*
X447734Y341603*
X447937Y341400D02*
X448731D01*
X447745Y342400D02*
X448923D01*
X448400Y341396D02*
Y342596D01*
X435704Y365007D02*
Y365793D01*
X435911Y366000*
X436697*
X436904Y365793*
Y365007*
X436697Y364800*
X435911*
X435704Y365007*
Y365400D02*
X436904D01*
X436400Y364800D02*
Y366000D01*
X432204Y365007D02*
Y365793D01*
X432411Y366000*
X433197*
X433404Y365793*
Y365007*
X433197Y364800*
X432411*
X432204Y365007*
Y365400D02*
X433404D01*
X432400Y364811D02*
Y365989D01*
X433400Y365003D02*
Y365797D01*
X505550Y380007D02*
Y380793D01*
X505757Y381000*
X506543*
X506750Y380793*
Y380007*
X506543Y379800*
X505757*
X505550Y380007*
Y380400D02*
X506750D01*
X506400Y379800D02*
Y381000D01*
X509050Y380007D02*
Y380793D01*
X509257Y381000*
X510043*
X510250Y380793*
Y380007*
X510043Y379800*
X509257*
X509050Y380007*
Y380400D02*
X510250D01*
X509400Y379800D02*
Y381000D01*
X422300Y299257D02*
Y300043D01*
X422507Y300250*
X423293*
X423500Y300043*
Y299257*
X423293Y299050*
X422507*
X422300Y299257*
Y299400D02*
X423500D01*
X422400Y299157D02*
Y300143D01*
X423400Y299157D02*
Y300143D01*
X422300Y295757D02*
Y296543D01*
X422507Y296750*
X423293*
X423500Y296543*
Y295757*
X423293Y295550*
X422507*
X422300Y295757*
Y296400D02*
X423500D01*
X422400Y295657D02*
Y296643D01*
X423400Y295657D02*
Y296643D01*
X427300Y299257D02*
Y300043D01*
X427507Y300250*
X428293*
X428500Y300043*
Y299257*
X428293Y299050*
X427507*
X427300Y299257*
Y299400D02*
X428500D01*
X427400Y299157D02*
Y300143D01*
X428400Y299157D02*
Y300143D01*
X427300Y295757D02*
Y296543D01*
X427507Y296750*
X428293*
X428500Y296543*
Y295757*
X428293Y295550*
X427507*
X427300Y295757*
Y296400D02*
X428500D01*
X427400Y295657D02*
Y296643D01*
X428400Y295657D02*
Y296643D01*
X384741Y329355D02*
Y330141D01*
X384948Y330348*
X385734*
X385941Y330141*
Y329355*
X385734Y329148*
X384948*
X384741Y329355*
Y329400D02*
X385941D01*
X385400Y329148D02*
Y330348D01*
X384741Y325855D02*
Y326641D01*
X384948Y326848*
X385734*
X385941Y326641*
Y325855*
X385734Y325648*
X384948*
X384741Y325855*
Y326400D02*
X385941D01*
X385400Y325648D02*
Y326848D01*
X505550Y342507D02*
Y343293D01*
X505757Y343500*
X506543*
X506750Y343293*
Y342507*
X506543Y342300*
X505757*
X505550Y342507*
X505657Y342400D02*
X506643D01*
X505657Y343400D02*
X506643D01*
X506400Y342300D02*
Y343500D01*
X509050Y342507D02*
Y343293D01*
X509257Y343500*
X510043*
X510250Y343293*
Y342507*
X510043Y342300*
X509257*
X509050Y342507*
X509157Y342400D02*
X510143D01*
X509157Y343400D02*
X510143D01*
X509400Y342300D02*
Y343500D01*
X505550Y327507D02*
Y328293D01*
X505757Y328500*
X506543*
X506750Y328293*
Y327507*
X506543Y327300*
X505757*
X505550Y327507*
X505657Y327400D02*
X506643D01*
X505657Y328400D02*
X506643D01*
X506400Y327300D02*
Y328500D01*
X509050Y327507D02*
Y328293D01*
X509257Y328500*
X510043*
X510250Y328293*
Y327507*
X510043Y327300*
X509257*
X509050Y327507*
X509157Y327400D02*
X510143D01*
X509157Y328400D02*
X510143D01*
X509400Y327300D02*
Y328500D01*
X547300Y398257D02*
Y399043D01*
X547507Y399250*
X548293*
X548500Y399043*
Y398257*
X548293Y398050*
X547507*
X547300Y398257*
Y398400D02*
X548500D01*
X547400Y398157D02*
Y399143D01*
X548400Y398157D02*
Y399143D01*
X547300Y401757D02*
Y402543D01*
X547507Y402750*
X548293*
X548500Y402543*
Y401757*
X548293Y401550*
X547507*
X547300Y401757*
Y402400D02*
X548500D01*
X547400Y401657D02*
Y402643D01*
X548400Y401657D02*
Y402643D01*
X377800Y376757D02*
Y377543D01*
X378007Y377750*
X378793*
X379000Y377543*
Y376757*
X378793Y376550*
X378007*
X377800Y376757*
Y377400D02*
X379000D01*
X378400Y376550D02*
Y377750D01*
X377800Y380257D02*
Y381043D01*
X378007Y381250*
X378793*
X379000Y381043*
Y380257*
X378793Y380050*
X378007*
X377800Y380257*
Y380400D02*
X379000D01*
X378400Y380050D02*
Y381250D01*
X380800Y388757D02*
Y389543D01*
X381007Y389750*
X381793*
X382000Y389543*
Y388757*
X381793Y388550*
X381007*
X380800Y388757*
Y389400D02*
X382000D01*
X381400Y388550D02*
Y389750D01*
X380800Y392257D02*
Y393043D01*
X381007Y393250*
X381793*
X382000Y393043*
Y392257*
X381793Y392050*
X381007*
X380800Y392257*
Y392400D02*
X382000D01*
X381400Y392050D02*
Y393250D01*
X472086Y313480D02*
Y314266D01*
X472293Y314473*
X473079*
X473286Y314266*
Y313480*
X473079Y313273*
X472293*
X472086Y313480*
X472166Y313400D02*
X473206D01*
X472220Y314400D02*
X473152D01*
X472400Y313273D02*
Y314473D01*
X472086Y309980D02*
Y310766D01*
X472293Y310973*
X473079*
X473286Y310766*
Y309980*
X473079Y309773*
X472293*
X472086Y309980*
Y310400D02*
X473286D01*
X472400Y309773D02*
Y310973D01*
X459545Y314044D02*
Y314830D01*
X459752Y315037*
X460538*
X460745Y314830*
Y314044*
X460538Y313837*
X459752*
X459545Y314044*
Y314400D02*
X460745D01*
X460400Y313837D02*
Y315037D01*
X459545Y317544D02*
Y318330D01*
X459752Y318537*
X460538*
X460745Y318330*
Y317544*
X460538Y317337*
X459752*
X459545Y317544*
X459689Y317400D02*
X460601D01*
X459615Y318400D02*
X460675D01*
X460400Y317337D02*
Y318537D01*
X463482Y357351D02*
Y358137D01*
X463689Y358344*
X464475*
X464682Y358137*
Y357351*
X464475Y357144*
X463689*
X463482Y357351*
Y357400D02*
X464682D01*
X464400Y357144D02*
Y358344D01*
X463482Y360851D02*
Y361637D01*
X463689Y361844*
X464475*
X464682Y361637*
Y360851*
X464475Y360644*
X463689*
X463482Y360851*
Y361400D02*
X464682D01*
X464400Y360644D02*
Y361844D01*
X439859Y415970D02*
Y416756D01*
X440066Y416963*
X440852*
X441059Y416756*
Y415970*
X440852Y415763*
X440066*
X439859Y415970*
Y416400D02*
X441059D01*
X440400Y415763D02*
Y416963D01*
X439859Y412470D02*
Y413256D01*
X440066Y413463*
X440852*
X441059Y413256*
Y412470*
X440852Y412263*
X440066*
X439859Y412470*
X439929Y412400D02*
X440989D01*
X440003Y413400D02*
X440915D01*
X440400Y412263D02*
Y413463D01*
X416238Y388411D02*
Y389197D01*
X416445Y389404*
X417231*
X417438Y389197*
Y388411*
X417231Y388204*
X416445*
X416238Y388411*
X416249Y388400D02*
X417427D01*
X416441Y389400D02*
X417235D01*
X416400Y388249D02*
Y389359D01*
X417400Y388373D02*
Y389235D01*
X416238Y384911D02*
Y385697D01*
X416445Y385904*
X417231*
X417438Y385697*
Y384911*
X417231Y384704*
X416445*
X416238Y384911*
Y385400D02*
X417438D01*
X416400Y384749D02*
Y385859D01*
X417400Y384873D02*
Y385735D01*
X525550Y410007D02*
Y410793D01*
X525757Y411000*
X526543*
X526750Y410793*
Y410007*
X526543Y409800*
X525757*
X525550Y410007*
Y410400D02*
X526750D01*
X526400Y409800D02*
Y411000D01*
X529050Y410007D02*
Y410793D01*
X529257Y411000*
X530043*
X530250Y410793*
Y410007*
X530043Y409800*
X529257*
X529050Y410007*
Y410400D02*
X530250D01*
X529400Y409800D02*
Y411000D01*
X542300Y398257D02*
Y399043D01*
X542507Y399250*
X543293*
X543500Y399043*
Y398257*
X543293Y398050*
X542507*
X542300Y398257*
Y398400D02*
X543500D01*
X542400Y398157D02*
Y399143D01*
X543400Y398157D02*
Y399143D01*
X542300Y401757D02*
Y402543D01*
X542507Y402750*
X543293*
X543500Y402543*
Y401757*
X543293Y401550*
X542507*
X542300Y401757*
Y402400D02*
X543500D01*
X542400Y401657D02*
Y402643D01*
X543400Y401657D02*
Y402643D01*
X508050Y396107D02*
Y396893D01*
X508257Y397100*
X509043*
X509250Y396893*
Y396107*
X509043Y395900*
X508257*
X508050Y396107*
Y396400D02*
X509250D01*
X508400Y395900D02*
Y397100D01*
X511550Y396107D02*
Y396893D01*
X511757Y397100*
X512543*
X512750Y396893*
Y396107*
X512543Y395900*
X511757*
X511550Y396107*
Y396400D02*
X512750D01*
X512400Y395900D02*
Y397100D01*
X550550Y390007D02*
Y390793D01*
X550757Y391000*
X551543*
X551750Y390793*
Y390007*
X551543Y389800*
X550757*
X550550Y390007*
Y390400D02*
X551750D01*
X551400Y389800D02*
Y391000D01*
X554050Y390007D02*
Y390793D01*
X554257Y391000*
X555043*
X555250Y390793*
Y390007*
X555043Y389800*
X554257*
X554050Y390007*
Y390400D02*
X555250D01*
X554400Y389800D02*
Y391000D01*
X435704Y380755D02*
Y381541D01*
X435911Y381748*
X436697*
X436904Y381541*
Y380755*
X436697Y380548*
X435911*
X435704Y380755*
Y381400D02*
X436904D01*
X436400Y380548D02*
Y381748D01*
X432204Y380755D02*
Y381541D01*
X432411Y381748*
X433197*
X433404Y381541*
Y380755*
X433197Y380548*
X432411*
X432204Y380755*
Y381400D02*
X433404D01*
X432400Y380559D02*
Y381737D01*
X433400Y380751D02*
Y381545D01*
X435704Y372881D02*
Y373667D01*
X435911Y373874*
X436697*
X436904Y373667*
Y372881*
X436697Y372674*
X435911*
X435704Y372881*
Y373400D02*
X436904D01*
X436400Y372674D02*
Y373874D01*
X432204Y372881D02*
Y373667D01*
X432411Y373874*
X433197*
X433404Y373667*
Y372881*
X433197Y372674*
X432411*
X432204Y372881*
Y373400D02*
X433404D01*
X432400Y372685D02*
Y373863D01*
X433400Y372877D02*
Y373671D01*
X424111Y388411D02*
Y389197D01*
X424318Y389404*
X425104*
X425311Y389197*
Y388411*
X425104Y388204*
X424318*
X424111Y388411*
X424122Y388400D02*
X425300D01*
X424314Y389400D02*
X425108D01*
X424400Y388204D02*
Y389404D01*
X424111Y384911D02*
Y385697D01*
X424318Y385904*
X425104*
X425311Y385697*
Y384911*
X425104Y384704*
X424318*
X424111Y384911*
Y385400D02*
X425311D01*
X424400Y384704D02*
Y385904D01*
X396552Y341603D02*
Y342389D01*
X396759Y342596*
X397545*
X397752Y342389*
Y341603*
X397545Y341396*
X396759*
X396552Y341603*
X396755Y341400D02*
X397549D01*
X396563Y342400D02*
X397741D01*
X397400Y341396D02*
Y342596D01*
X396552Y345103D02*
Y345889D01*
X396759Y346096*
X397545*
X397752Y345889*
Y345103*
X397545Y344896*
X396759*
X396552Y345103*
Y345400D02*
X397752D01*
X397400Y344896D02*
Y346096D01*
X388896Y353196D02*
Y353982D01*
X389103Y354189*
X389889*
X390096Y353982*
Y353196*
X389889Y352989*
X389103*
X388896Y353196*
Y353400D02*
X390096D01*
X389400Y352989D02*
Y354189D01*
X392396Y353196D02*
Y353982D01*
X392603Y354189*
X393389*
X393596Y353982*
Y353196*
X393389Y352989*
X392603*
X392396Y353196*
Y353400D02*
X393596D01*
X392400Y353192D02*
Y353986D01*
X393400Y353000D02*
Y354178D01*
X431986Y388411D02*
Y389197D01*
X432193Y389404*
X432979*
X433186Y389197*
Y388411*
X432979Y388204*
X432193*
X431986Y388411*
X431997Y388400D02*
X433175D01*
X432189Y389400D02*
X432983D01*
X432400Y388204D02*
Y389404D01*
X431986Y384911D02*
Y385697D01*
X432193Y385904*
X432979*
X433186Y385697*
Y384911*
X432979Y384704*
X432193*
X431986Y384911*
Y385400D02*
X433186D01*
X432400Y384704D02*
Y385904D01*
X388896Y361070D02*
Y361856D01*
X389103Y362063*
X389889*
X390096Y361856*
Y361070*
X389889Y360863*
X389103*
X388896Y361070*
Y361400D02*
X390096D01*
X389400Y360863D02*
Y362063D01*
X392396Y361070D02*
Y361856D01*
X392603Y362063*
X393389*
X393596Y361856*
Y361070*
X393389Y360863*
X392603*
X392396Y361070*
Y361400D02*
X393596D01*
X392400Y361066D02*
Y361860D01*
X393400Y360874D02*
Y362052D01*
X388896Y376818D02*
Y377604D01*
X389103Y377811*
X389889*
X390096Y377604*
Y376818*
X389889Y376611*
X389103*
X388896Y376818*
Y377400D02*
X390096D01*
X389400Y376611D02*
Y377811D01*
X392396Y376818D02*
Y377604D01*
X392603Y377811*
X393389*
X393596Y377604*
Y376818*
X393389Y376611*
X392603*
X392396Y376818*
Y377400D02*
X393596D01*
X392400Y376814D02*
Y377608D01*
X393400Y376622D02*
Y377800D01*
X388896Y368943D02*
Y369729D01*
X389103Y369936*
X389889*
X390096Y369729*
Y368943*
X389889Y368736*
X389103*
X388896Y368943*
Y369400D02*
X390096D01*
X389400Y368736D02*
Y369936D01*
X392396Y368943D02*
Y369729D01*
X392603Y369936*
X393389*
X393596Y369729*
Y368943*
X393389Y368736*
X392603*
X392396Y368943*
Y369400D02*
X393596D01*
X392400Y368939D02*
Y369733D01*
X393400Y368747D02*
Y369925D01*
X376861Y408096D02*
Y408882D01*
X377068Y409089*
X377854*
X378061Y408882*
Y408096*
X377854Y407889*
X377068*
X376861Y408096*
Y408400D02*
X378061D01*
X377400Y407889D02*
Y409089D01*
X376861Y404596D02*
Y405382D01*
X377068Y405589*
X377854*
X378061Y405382*
Y404596*
X377854Y404389*
X377068*
X376861Y404596*
X377057Y404400D02*
X377865D01*
X376879Y405400D02*
X378043D01*
X377400Y404389D02*
Y405589D01*
X388459Y412252D02*
Y413038D01*
X388666Y413245*
X389452*
X389659Y413038*
Y412252*
X389452Y412045*
X388666*
X388459Y412252*
Y412400D02*
X389659D01*
X389400Y412045D02*
Y413245D01*
X384959Y412252D02*
Y413038D01*
X385166Y413245*
X385952*
X386159Y413038*
Y412252*
X385952Y412045*
X385166*
X384959Y412252*
Y412400D02*
X386159D01*
X385400Y412045D02*
Y413245D01*
X392615Y419907D02*
Y420693D01*
X392822Y420900*
X393608*
X393815Y420693*
Y419907*
X393608Y419700*
X392822*
X392615Y419907*
Y420400D02*
X393815D01*
X393400Y419700D02*
Y420900D01*
X392615Y416407D02*
Y417193D01*
X392822Y417400*
X393608*
X393815Y417193*
Y416407*
X393608Y416200*
X392822*
X392615Y416407*
X392622Y416400D02*
X393808D01*
X392822Y417400D02*
X393608D01*
X393400Y416200D02*
Y417400D01*
X348300Y365757D02*
Y366543D01*
X348507Y366750*
X349293*
X349500Y366543*
Y365757*
X349293Y365550*
X348507*
X348300Y365757*
Y366400D02*
X349500D01*
X348400Y365657D02*
Y366643D01*
X349400Y365657D02*
Y366643D01*
X348300Y369257D02*
Y370043D01*
X348507Y370250*
X349293*
X349500Y370043*
Y369257*
X349293Y369050*
X348507*
X348300Y369257*
Y369400D02*
X349500D01*
X348400Y369157D02*
Y370143D01*
X349400Y369157D02*
Y370143D01*
X382550Y334507D02*
Y335293D01*
X382757Y335500*
X383543*
X383750Y335293*
Y334507*
X383543Y334300*
X382757*
X382550Y334507*
X382657Y334400D02*
X383643D01*
X382657Y335400D02*
X383643D01*
X383400Y334300D02*
Y335500D01*
X386050Y334507D02*
Y335293D01*
X386257Y335500*
X387043*
X387250Y335293*
Y334507*
X387043Y334300*
X386257*
X386050Y334507*
X386157Y334400D02*
X387143D01*
X386157Y335400D02*
X387143D01*
X386400Y334300D02*
Y335500D01*
X381800Y376757D02*
Y377543D01*
X382007Y377750*
X382793*
X383000Y377543*
Y376757*
X382793Y376550*
X382007*
X381800Y376757*
Y377400D02*
X383000D01*
X382400Y376550D02*
Y377750D01*
X381800Y380257D02*
Y381043D01*
X382007Y381250*
X382793*
X383000Y381043*
Y380257*
X382793Y380050*
X382007*
X381800Y380257*
Y380400D02*
X383000D01*
X382400Y380050D02*
Y381250D01*
X377800Y335257D02*
Y336043D01*
X378007Y336250*
X378793*
X379000Y336043*
Y335257*
X378793Y335050*
X378007*
X377800Y335257*
Y335400D02*
X379000D01*
X378400Y335050D02*
Y336250D01*
X377800Y331757D02*
Y332543D01*
X378007Y332750*
X378793*
X379000Y332543*
Y331757*
X378793Y331550*
X378007*
X377800Y331757*
Y332400D02*
X379000D01*
X378400Y331550D02*
Y332750D01*
X357400Y396499D02*
Y397285D01*
X357607Y397492*
X358393*
X358600Y397285*
Y396499*
X358393Y396292*
X357607*
X357400Y396499*
X357499Y396400D02*
X358501D01*
X357515Y397400D02*
X358485D01*
X357400Y396499D02*
Y397285D01*
X358400Y396299D02*
Y397485D01*
X360900Y396499D02*
Y397285D01*
X361107Y397492*
X361893*
X362100Y397285*
Y396499*
X361893Y396292*
X361107*
X360900Y396499*
X360999Y396400D02*
X362001D01*
X361015Y397400D02*
X361985D01*
X361400Y396292D02*
Y397492D01*
X416233Y415970D02*
Y416756D01*
X416440Y416963*
X417226*
X417433Y416756*
Y415970*
X417226Y415763*
X416440*
X416233Y415970*
Y416400D02*
X417433D01*
X416400Y415803D02*
Y416923D01*
X417400Y415937D02*
Y416789D01*
X416233Y412470D02*
Y413256D01*
X416440Y413463*
X417226*
X417433Y413256*
Y412470*
X417226Y412263*
X416440*
X416233Y412470*
X416303Y412400D02*
X417363D01*
X416377Y413400D02*
X417289D01*
X416400Y412303D02*
Y413423D01*
X417400Y412437D02*
Y413289D01*
X518050Y375007D02*
Y375793D01*
X518257Y376000*
X519043*
X519250Y375793*
Y375007*
X519043Y374800*
X518257*
X518050Y375007*
Y375400D02*
X519250D01*
X518400Y374800D02*
Y376000D01*
X521550Y375007D02*
Y375793D01*
X521757Y376000*
X522543*
X522750Y375793*
Y375007*
X522543Y374800*
X521757*
X521550Y375007*
Y375400D02*
X522750D01*
X522400Y374800D02*
Y376000D01*
X544800Y483257D02*
Y484043D01*
X545007Y484250*
X545793*
X546000Y484043*
Y483257*
X545793Y483050*
X545007*
X544800Y483257*
Y483400D02*
X546000D01*
X545400Y483050D02*
Y484250D01*
X544800Y486757D02*
Y487543D01*
X545007Y487750*
X545793*
X546000Y487543*
Y486757*
X545793Y486550*
X545007*
X544800Y486757*
Y487400D02*
X546000D01*
X545400Y486550D02*
Y487750D01*
X604800Y473257D02*
Y474043D01*
X605007Y474250*
X605793*
X606000Y474043*
Y473257*
X605793Y473050*
X605007*
X604800Y473257*
Y473400D02*
X606000D01*
X605400Y473050D02*
Y474250D01*
X604800Y476757D02*
Y477543D01*
X605007Y477750*
X605793*
X606000Y477543*
Y476757*
X605793Y476550*
X605007*
X604800Y476757*
Y477400D02*
X606000D01*
X605400Y476550D02*
Y477750D01*
X576300Y475757D02*
Y476543D01*
X576507Y476750*
X577293*
X577500Y476543*
Y475757*
X577293Y475550*
X576507*
X576300Y475757*
Y476400D02*
X577500D01*
X576400Y475657D02*
Y476643D01*
X577400Y475657D02*
Y476643D01*
X576300Y479257D02*
Y480043D01*
X576507Y480250*
X577293*
X577500Y480043*
Y479257*
X577293Y479050*
X576507*
X576300Y479257*
Y479400D02*
X577500D01*
X576400Y479157D02*
Y480143D01*
X577400Y479157D02*
Y480143D01*
X544800Y474257D02*
Y475043D01*
X545007Y475250*
X545793*
X546000Y475043*
Y474257*
X545793Y474050*
X545007*
X544800Y474257*
Y474400D02*
X546000D01*
X545400Y474050D02*
Y475250D01*
X544800Y470757D02*
Y471543D01*
X545007Y471750*
X545793*
X546000Y471543*
Y470757*
X545793Y470550*
X545007*
X544800Y470757*
Y471400D02*
X546000D01*
X545400Y470550D02*
Y471750D01*
X619800Y473257D02*
Y474043D01*
X620007Y474250*
X620793*
X621000Y474043*
Y473257*
X620793Y473050*
X620007*
X619800Y473257*
Y473400D02*
X621000D01*
X620400Y473050D02*
Y474250D01*
X619800Y476757D02*
Y477543D01*
X620007Y477750*
X620793*
X621000Y477543*
Y476757*
X620793Y476550*
X620007*
X619800Y476757*
Y477400D02*
X621000D01*
X620400Y476550D02*
Y477750D01*
X576550Y451007D02*
Y451793D01*
X576757Y452000*
X577543*
X577750Y451793*
Y451007*
X577543Y450800*
X576757*
X576550Y451007*
Y451400D02*
X577750D01*
X577400Y450800D02*
Y452000D01*
X580050Y451007D02*
Y451793D01*
X580257Y452000*
X581043*
X581250Y451793*
Y451007*
X581043Y450800*
X580257*
X580050Y451007*
Y451400D02*
X581250D01*
X580400Y450800D02*
Y452000D01*
X567550Y451007D02*
Y451793D01*
X567757Y452000*
X568543*
X568750Y451793*
Y451007*
X568543Y450800*
X567757*
X567550Y451007*
Y451400D02*
X568750D01*
X568400Y450800D02*
Y452000D01*
X564050Y451007D02*
Y451793D01*
X564257Y452000*
X565043*
X565250Y451793*
Y451007*
X565043Y450800*
X564257*
X564050Y451007*
Y451400D02*
X565250D01*
X564400Y450800D02*
Y452000D01*
X612300Y461757D02*
Y462543D01*
X612507Y462750*
X613293*
X613500Y462543*
Y461757*
X613293Y461550*
X612507*
X612300Y461757*
Y462400D02*
X613500D01*
X612400Y461657D02*
Y462643D01*
X613400Y461657D02*
Y462643D01*
X612300Y458257D02*
Y459043D01*
X612507Y459250*
X613293*
X613500Y459043*
Y458257*
X613293Y458050*
X612507*
X612300Y458257*
Y458400D02*
X613500D01*
X612400Y458157D02*
Y459143D01*
X613400Y458157D02*
Y459143D01*
X591550Y451007D02*
Y451793D01*
X591757Y452000*
X592543*
X592750Y451793*
Y451007*
X592543Y450800*
X591757*
X591550Y451007*
Y451400D02*
X592750D01*
X592400Y450800D02*
Y452000D01*
X595050Y451007D02*
Y451793D01*
X595257Y452000*
X596043*
X596250Y451793*
Y451007*
X596043Y450800*
X595257*
X595050Y451007*
Y451400D02*
X596250D01*
X595400Y450800D02*
Y452000D01*
X612300Y488257D02*
Y489043D01*
X612507Y489250*
X613293*
X613500Y489043*
Y488257*
X613293Y488050*
X612507*
X612300Y488257*
Y488400D02*
X613500D01*
X612400Y488157D02*
Y489143D01*
X613400Y488157D02*
Y489143D01*
X612300Y491757D02*
Y492543D01*
X612507Y492750*
X613293*
X613500Y492543*
Y491757*
X613293Y491550*
X612507*
X612300Y491757*
Y492400D02*
X613500D01*
X612400Y491657D02*
Y492643D01*
X613400Y491657D02*
Y492643D01*
X588050Y510007D02*
Y510793D01*
X588257Y511000*
X589043*
X589250Y510793*
Y510007*
X589043Y509800*
X588257*
X588050Y510007*
Y510400D02*
X589250D01*
X588400Y509800D02*
Y511000D01*
X591550Y510007D02*
Y510793D01*
X591757Y511000*
X592543*
X592750Y510793*
Y510007*
X592543Y509800*
X591757*
X591550Y510007*
Y510400D02*
X592750D01*
X592400Y509800D02*
Y511000D01*
X600550Y510007D02*
Y510793D01*
X600757Y511000*
X601543*
X601750Y510793*
Y510007*
X601543Y509800*
X600757*
X600550Y510007*
Y510400D02*
X601750D01*
X601400Y509800D02*
Y511000D01*
X604050Y510007D02*
Y510793D01*
X604257Y511000*
X605043*
X605250Y510793*
Y510007*
X605043Y509800*
X604257*
X604050Y510007*
Y510400D02*
X605250D01*
X604400Y509800D02*
Y511000D01*
X566550Y502507D02*
Y503293D01*
X566757Y503500*
X567543*
X567750Y503293*
Y502507*
X567543Y502300*
X566757*
X566550Y502507*
X566657Y502400D02*
X567643D01*
X566657Y503400D02*
X567643D01*
X567400Y502300D02*
Y503500D01*
X563050Y502507D02*
Y503293D01*
X563257Y503500*
X564043*
X564250Y503293*
Y502507*
X564043Y502300*
X563257*
X563050Y502507*
X563157Y502400D02*
X564143D01*
X563157Y503400D02*
X564143D01*
X563400Y502300D02*
Y503500D01*
X579050Y502507D02*
Y503293D01*
X579257Y503500*
X580043*
X580250Y503293*
Y502507*
X580043Y502300*
X579257*
X579050Y502507*
X579157Y502400D02*
X580143D01*
X579157Y503400D02*
X580143D01*
X579400Y502300D02*
Y503500D01*
X575550Y502507D02*
Y503293D01*
X575757Y503500*
X576543*
X576750Y503293*
Y502507*
X576543Y502300*
X575757*
X575550Y502507*
X575657Y502400D02*
X576643D01*
X575657Y503400D02*
X576643D01*
X576400Y502300D02*
Y503500D01*
X552300Y495757D02*
Y496543D01*
X552507Y496750*
X553293*
X553500Y496543*
Y495757*
X553293Y495550*
X552507*
X552300Y495757*
Y496400D02*
X553500D01*
X552400Y495657D02*
Y496643D01*
X553400Y495657D02*
Y496643D01*
X552300Y499257D02*
Y500043D01*
X552507Y500250*
X553293*
X553500Y500043*
Y499257*
X553293Y499050*
X552507*
X552300Y499257*
Y499400D02*
X553500D01*
X552400Y499157D02*
Y500143D01*
X553400Y499157D02*
Y500143D01*
X552300Y461757D02*
Y462543D01*
X552507Y462750*
X553293*
X553500Y462543*
Y461757*
X553293Y461550*
X552507*
X552300Y461757*
Y462400D02*
X553500D01*
X552400Y461657D02*
Y462643D01*
X553400Y461657D02*
Y462643D01*
X552300Y458257D02*
Y459043D01*
X552507Y459250*
X553293*
X553500Y459043*
Y458257*
X553293Y458050*
X552507*
X552300Y458257*
Y458400D02*
X553500D01*
X552400Y458157D02*
Y459143D01*
X553400Y458157D02*
Y459143D01*
X456550Y200007D02*
Y200793D01*
X456757Y201000*
X457543*
X457750Y200793*
Y200007*
X457543Y199800*
X456757*
X456550Y200007*
Y200400D02*
X457750D01*
X457400Y199800D02*
Y201000D01*
X453050Y200007D02*
Y200793D01*
X453257Y201000*
X454043*
X454250Y200793*
Y200007*
X454043Y199800*
X453257*
X453050Y200007*
Y200400D02*
X454250D01*
X453400Y199800D02*
Y201000D01*
X439800Y170757D02*
Y171543D01*
X440007Y171750*
X440793*
X441000Y171543*
Y170757*
X440793Y170550*
X440007*
X439800Y170757*
Y171400D02*
X441000D01*
X440400Y170550D02*
Y171750D01*
X439800Y174257D02*
Y175043D01*
X440007Y175250*
X440793*
X441000Y175043*
Y174257*
X440793Y174050*
X440007*
X439800Y174257*
Y174400D02*
X441000D01*
X440400Y174050D02*
Y175250D01*
X459050Y172507D02*
Y173293D01*
X459257Y173500*
X460043*
X460250Y173293*
Y172507*
X460043Y172300*
X459257*
X459050Y172507*
X459157Y172400D02*
X460143D01*
X459157Y173400D02*
X460143D01*
X459400Y172300D02*
Y173500D01*
X455550Y172507D02*
Y173293D01*
X455757Y173500*
X456543*
X456750Y173293*
Y172507*
X456543Y172300*
X455757*
X455550Y172507*
X455657Y172400D02*
X456643D01*
X455657Y173400D02*
X456643D01*
X456400Y172300D02*
Y173500D01*
X459050Y180007D02*
Y180793D01*
X459257Y181000*
X460043*
X460250Y180793*
Y180007*
X460043Y179800*
X459257*
X459050Y180007*
Y180400D02*
X460250D01*
X459400Y179800D02*
Y181000D01*
X455550Y180007D02*
Y180793D01*
X455757Y181000*
X456543*
X456750Y180793*
Y180007*
X456543Y179800*
X455757*
X455550Y180007*
Y180400D02*
X456750D01*
X456400Y179800D02*
Y181000D01*
X442300Y191757D02*
Y192543D01*
X442507Y192750*
X443293*
X443500Y192543*
Y191757*
X443293Y191550*
X442507*
X442300Y191757*
Y192400D02*
X443500D01*
X442400Y191657D02*
Y192643D01*
X443400Y191657D02*
Y192643D01*
X442300Y188257D02*
Y189043D01*
X442507Y189250*
X443293*
X443500Y189043*
Y188257*
X443293Y188050*
X442507*
X442300Y188257*
Y188400D02*
X443500D01*
X442400Y188157D02*
Y189143D01*
X443400Y188157D02*
Y189143D01*
X467300Y191757D02*
Y192543D01*
X467507Y192750*
X468293*
X468500Y192543*
Y191757*
X468293Y191550*
X467507*
X467300Y191757*
Y192400D02*
X468500D01*
X467400Y191657D02*
Y192643D01*
X468400Y191657D02*
Y192643D01*
X467300Y188257D02*
Y189043D01*
X467507Y189250*
X468293*
X468500Y189043*
Y188257*
X468293Y188050*
X467507*
X467300Y188257*
Y188400D02*
X468500D01*
X467400Y188157D02*
Y189143D01*
X468400Y188157D02*
Y189143D01*
X574800Y279257D02*
Y280043D01*
X575007Y280250*
X575793*
X576000Y280043*
Y279257*
X575793Y279050*
X575007*
X574800Y279257*
Y279400D02*
X576000D01*
X575400Y279050D02*
Y280250D01*
X574800Y275757D02*
Y276543D01*
X575007Y276750*
X575793*
X576000Y276543*
Y275757*
X575793Y275550*
X575007*
X574800Y275757*
Y276400D02*
X576000D01*
X575400Y275550D02*
Y276750D01*
X604050Y262507D02*
Y263293D01*
X604257Y263500*
X605043*
X605250Y263293*
Y262507*
X605043Y262300*
X604257*
X604050Y262507*
X604157Y262400D02*
X605143D01*
X604157Y263400D02*
X605143D01*
X604400Y262300D02*
Y263500D01*
X600550Y262507D02*
Y263293D01*
X600757Y263500*
X601543*
X601750Y263293*
Y262507*
X601543Y262300*
X600757*
X600550Y262507*
X600657Y262400D02*
X601643D01*
X600657Y263400D02*
X601643D01*
X601400Y262300D02*
Y263500D01*
X602300Y279257D02*
Y280043D01*
X602507Y280250*
X603293*
X603500Y280043*
Y279257*
X603293Y279050*
X602507*
X602300Y279257*
Y279400D02*
X603500D01*
X602400Y279157D02*
Y280143D01*
X603400Y279157D02*
Y280143D01*
X602300Y275757D02*
Y276543D01*
X602507Y276750*
X603293*
X603500Y276543*
Y275757*
X603293Y275550*
X602507*
X602300Y275757*
Y276400D02*
X603500D01*
X602400Y275657D02*
Y276643D01*
X603400Y275657D02*
Y276643D01*
X594800Y279257D02*
Y280043D01*
X595007Y280250*
X595793*
X596000Y280043*
Y279257*
X595793Y279050*
X595007*
X594800Y279257*
Y279400D02*
X596000D01*
X595400Y279050D02*
Y280250D01*
X594800Y275757D02*
Y276543D01*
X595007Y276750*
X595793*
X596000Y276543*
Y275757*
X595793Y275550*
X595007*
X594800Y275757*
Y276400D02*
X596000D01*
X595400Y275550D02*
Y276750D01*
X583050Y262507D02*
Y263293D01*
X583257Y263500*
X584043*
X584250Y263293*
Y262507*
X584043Y262300*
X583257*
X583050Y262507*
X583157Y262400D02*
X584143D01*
X583157Y263400D02*
X584143D01*
X583400Y262300D02*
Y263500D01*
X586550Y262507D02*
Y263293D01*
X586757Y263500*
X587543*
X587750Y263293*
Y262507*
X587543Y262300*
X586757*
X586550Y262507*
X586657Y262400D02*
X587643D01*
X586657Y263400D02*
X587643D01*
X587400Y262300D02*
Y263500D01*
X583050Y297507D02*
Y298293D01*
X583257Y298500*
X584043*
X584250Y298293*
Y297507*
X584043Y297300*
X583257*
X583050Y297507*
X583157Y297400D02*
X584143D01*
X583157Y298400D02*
X584143D01*
X583400Y297300D02*
Y298500D01*
X586550Y297507D02*
Y298293D01*
X586757Y298500*
X587543*
X587750Y298293*
Y297507*
X587543Y297300*
X586757*
X586550Y297507*
X586657Y297400D02*
X587643D01*
X586657Y298400D02*
X587643D01*
X587400Y297300D02*
Y298500D01*
X502300Y183257D02*
Y184043D01*
X502507Y184250*
X503293*
X503500Y184043*
Y183257*
X503293Y183050*
X502507*
X502300Y183257*
Y183400D02*
X503500D01*
X502400Y183157D02*
Y184143D01*
X503400Y183157D02*
Y184143D01*
X502300Y186757D02*
Y187543D01*
X502507Y187750*
X503293*
X503500Y187543*
Y186757*
X503293Y186550*
X502507*
X502300Y186757*
Y187400D02*
X503500D01*
X502400Y186657D02*
Y187643D01*
X503400Y186657D02*
Y187643D01*
X502300Y158257D02*
Y159043D01*
X502507Y159250*
X503293*
X503500Y159043*
Y158257*
X503293Y158050*
X502507*
X502300Y158257*
Y158400D02*
X503500D01*
X502400Y158157D02*
Y159143D01*
X503400Y158157D02*
Y159143D01*
X502300Y161757D02*
Y162543D01*
X502507Y162750*
X503293*
X503500Y162543*
Y161757*
X503293Y161550*
X502507*
X502300Y161757*
Y162400D02*
X503500D01*
X502400Y161657D02*
Y162643D01*
X503400Y161657D02*
Y162643D01*
X412300Y213257D02*
Y214043D01*
X412507Y214250*
X413293*
X413500Y214043*
Y213257*
X413293Y213050*
X412507*
X412300Y213257*
Y213400D02*
X413500D01*
X412400Y213157D02*
Y214143D01*
X413400Y213157D02*
Y214143D01*
X412300Y216757D02*
Y217543D01*
X412507Y217750*
X413293*
X413500Y217543*
Y216757*
X413293Y216550*
X412507*
X412300Y216757*
Y217400D02*
X413500D01*
X412400Y216657D02*
Y217643D01*
X413400Y216657D02*
Y217643D01*
X537325Y225580D02*
Y226366D01*
X537532Y226573*
X538318*
X538525Y226366*
Y225580*
X538318Y225373*
X537532*
X537325Y225580*
X537505Y225400D02*
X538345D01*
X537359Y226400D02*
X538491D01*
X537400Y225505D02*
Y226441D01*
X538400Y225455D02*
Y226491D01*
X537325Y229080D02*
Y229866D01*
X537532Y230073*
X538318*
X538525Y229866*
Y229080*
X538318Y228873*
X537532*
X537325Y229080*
Y229400D02*
X538525D01*
X537400Y229005D02*
Y229941D01*
X538400Y228955D02*
Y229991D01*
X402300Y169257D02*
Y170043D01*
X402507Y170250*
X403293*
X403500Y170043*
Y169257*
X403293Y169050*
X402507*
X402300Y169257*
Y169400D02*
X403500D01*
X402400Y169157D02*
Y170143D01*
X403400Y169157D02*
Y170143D01*
X402300Y165757D02*
Y166543D01*
X402507Y166750*
X403293*
X403500Y166543*
Y165757*
X403293Y165550*
X402507*
X402300Y165757*
Y166400D02*
X403500D01*
X402400Y165657D02*
Y166643D01*
X403400Y165657D02*
Y166643D01*
X504050Y605007D02*
Y605793D01*
X504257Y606000*
X505043*
X505250Y605793*
Y605007*
X505043Y604800*
X504257*
X504050Y605007*
Y605400D02*
X505250D01*
X504400Y604800D02*
Y606000D01*
X500550Y605007D02*
Y605793D01*
X500757Y606000*
X501543*
X501750Y605793*
Y605007*
X501543Y604800*
X500757*
X500550Y605007*
Y605400D02*
X501750D01*
X501400Y604800D02*
Y606000D01*
X518402Y291383D02*
Y292169D01*
X518609Y292376*
X519395*
X519602Y292169*
Y291383*
X519395Y291176*
X518609*
X518402Y291383*
Y291400D02*
X519602D01*
X519400Y291181D02*
Y292371D01*
X518402Y287883D02*
Y288669D01*
X518609Y288876*
X519395*
X519602Y288669*
Y287883*
X519395Y287676*
X518609*
X518402Y287883*
Y288400D02*
X519602D01*
X519400Y287681D02*
Y288871D01*
X461550Y517507D02*
Y518293D01*
X461757Y518500*
X462543*
X462750Y518293*
Y517507*
X462543Y517300*
X461757*
X461550Y517507*
X461657Y517400D02*
X462643D01*
X461657Y518400D02*
X462643D01*
X462400Y517300D02*
Y518500D01*
X458050Y517507D02*
Y518293D01*
X458257Y518500*
X459043*
X459250Y518293*
Y517507*
X459043Y517300*
X458257*
X458050Y517507*
X458157Y517400D02*
X459143D01*
X458157Y518400D02*
X459143D01*
X458400Y517300D02*
Y518500D01*
X511550Y517507D02*
Y518293D01*
X511757Y518500*
X512543*
X512750Y518293*
Y517507*
X512543Y517300*
X511757*
X511550Y517507*
X511657Y517400D02*
X512643D01*
X511657Y518400D02*
X512643D01*
X512400Y517300D02*
Y518500D01*
X508050Y517507D02*
Y518293D01*
X508257Y518500*
X509043*
X509250Y518293*
Y517507*
X509043Y517300*
X508257*
X508050Y517507*
X508157Y517400D02*
X509143D01*
X508157Y518400D02*
X509143D01*
X508400Y517300D02*
Y518500D01*
X511550Y470007D02*
Y470793D01*
X511757Y471000*
X512543*
X512750Y470793*
Y470007*
X512543Y469800*
X511757*
X511550Y470007*
Y470400D02*
X512750D01*
X512400Y469800D02*
Y471000D01*
X508050Y470007D02*
Y470793D01*
X508257Y471000*
X509043*
X509250Y470793*
Y470007*
X509043Y469800*
X508257*
X508050Y470007*
Y470400D02*
X509250D01*
X508400Y469800D02*
Y471000D01*
X504050Y567507D02*
Y568293D01*
X504257Y568500*
X505043*
X505250Y568293*
Y567507*
X505043Y567300*
X504257*
X504050Y567507*
X504157Y567400D02*
X505143D01*
X504157Y568400D02*
X505143D01*
X504400Y567300D02*
Y568500D01*
X500550Y567507D02*
Y568293D01*
X500757Y568500*
X501543*
X501750Y568293*
Y567507*
X501543Y567300*
X500757*
X500550Y567507*
X500657Y567400D02*
X501643D01*
X500657Y568400D02*
X501643D01*
X501400Y567300D02*
Y568500D01*
X330650Y393007D02*
Y393793D01*
X330857Y394000*
X331643*
X331850Y393793*
Y393007*
X331643Y392800*
X330857*
X330650Y393007*
Y393400D02*
X331850D01*
X331400Y392800D02*
Y394000D01*
X334150Y393007D02*
Y393793D01*
X334357Y394000*
X335143*
X335350Y393793*
Y393007*
X335143Y392800*
X334357*
X334150Y393007*
Y393400D02*
X335350D01*
X334400Y392800D02*
Y394000D01*
X307800Y395757D02*
Y396543D01*
X308007Y396750*
X308793*
X309000Y396543*
Y395757*
X308793Y395550*
X308007*
X307800Y395757*
Y396400D02*
X309000D01*
X308400Y395550D02*
Y396750D01*
X307800Y392257D02*
Y393043D01*
X308007Y393250*
X308793*
X309000Y393043*
Y392257*
X308793Y392050*
X308007*
X307800Y392257*
Y392400D02*
X309000D01*
X308400Y392050D02*
Y393250D01*
X521550Y610007D02*
Y610793D01*
X521757Y611000*
X522543*
X522750Y610793*
Y610007*
X522543Y609800*
X521757*
X521550Y610007*
Y610400D02*
X522750D01*
X522400Y609800D02*
Y611000D01*
X518050Y610007D02*
Y610793D01*
X518257Y611000*
X519043*
X519250Y610793*
Y610007*
X519043Y609800*
X518257*
X518050Y610007*
Y610400D02*
X519250D01*
X518400Y609800D02*
Y611000D01*
X360900Y349264D02*
Y350050D01*
X361107Y350257*
X361893*
X362100Y350050*
Y349264*
X361893Y349057*
X361107*
X360900Y349264*
Y349400D02*
X362100D01*
X361400Y349057D02*
Y350257D01*
X357400Y349264D02*
Y350050D01*
X357607Y350257*
X358393*
X358600Y350050*
Y349264*
X358393Y349057*
X357607*
X357400Y349264*
Y349400D02*
X358600D01*
X357400Y349264D02*
Y350050D01*
X358400Y349064D02*
Y350250D01*
X376648Y313826D02*
Y314612D01*
X376855Y314819*
X377641*
X377848Y314612*
Y313826*
X377641Y313619*
X376855*
X376648Y313826*
Y314400D02*
X377848D01*
X377400Y313619D02*
Y314819D01*
X373148Y313826D02*
Y314612D01*
X373355Y314819*
X374141*
X374348Y314612*
Y313826*
X374141Y313619*
X373355*
X373148Y313826*
Y314400D02*
X374348D01*
X373400Y313619D02*
Y314819D01*
X382550Y338507D02*
Y339293D01*
X382757Y339500*
X383543*
X383750Y339293*
Y338507*
X383543Y338300*
X382757*
X382550Y338507*
X382657Y338400D02*
X383643D01*
X382657Y339400D02*
X383643D01*
X383400Y338300D02*
Y339500D01*
X386050Y338507D02*
Y339293D01*
X386257Y339500*
X387043*
X387250Y339293*
Y338507*
X387043Y338300*
X386257*
X386050Y338507*
X386157Y338400D02*
X387143D01*
X386157Y339400D02*
X387143D01*
X386400Y338300D02*
Y339500D01*
X400489Y388411D02*
Y389197D01*
X400696Y389404*
X401482*
X401689Y389197*
Y388411*
X401482Y388204*
X400696*
X400489Y388411*
X400500Y388400D02*
X401678D01*
X400692Y389400D02*
X401486D01*
X401400Y388204D02*
Y389404D01*
X400489Y384911D02*
Y385697D01*
X400696Y385904*
X401482*
X401689Y385697*
Y384911*
X401482Y384704*
X400696*
X400489Y384911*
Y385400D02*
X401689D01*
X401400Y384704D02*
Y385904D01*
X455389Y333507D02*
Y334293D01*
X455596Y334500*
X456382*
X456589Y334293*
Y333507*
X456382Y333300*
X455596*
X455389Y333507*
X455496Y333400D02*
X456482D01*
X455496Y334400D02*
X456482D01*
X455400Y333496D02*
Y334304D01*
X456400Y333318D02*
Y334482D01*
X451889Y333507D02*
Y334293D01*
X452096Y334500*
X452882*
X453089Y334293*
Y333507*
X452882Y333300*
X452096*
X451889Y333507*
X451996Y333400D02*
X452982D01*
X451996Y334400D02*
X452982D01*
X452400Y333300D02*
Y334500D01*
X439641Y321700D02*
Y322486D01*
X439848Y322693*
X440634*
X440841Y322486*
Y321700*
X440634Y321493*
X439848*
X439641Y321700*
Y322400D02*
X440841D01*
X440400Y321493D02*
Y322693D01*
X436141Y321700D02*
Y322486D01*
X436348Y322693*
X437134*
X437341Y322486*
Y321700*
X437134Y321493*
X436348*
X436141Y321700*
Y322400D02*
X437341D01*
X436400Y321493D02*
Y322693D01*
X437550Y334507D02*
Y335293D01*
X437757Y335500*
X438543*
X438750Y335293*
Y334507*
X438543Y334300*
X437757*
X437550Y334507*
X437657Y334400D02*
X438643D01*
X437657Y335400D02*
X438643D01*
X438400Y334300D02*
Y335500D01*
X434050Y334507D02*
Y335293D01*
X434257Y335500*
X435043*
X435250Y335293*
Y334507*
X435043Y334300*
X434257*
X434050Y334507*
X434157Y334400D02*
X435143D01*
X434157Y335400D02*
X435143D01*
X434400Y334300D02*
Y335500D01*
X404421Y412470D02*
Y413256D01*
X404628Y413463*
X405414*
X405621Y413256*
Y412470*
X405414Y412263*
X404628*
X404421Y412470*
X404491Y412400D02*
X405551D01*
X404565Y413400D02*
X405477D01*
X405400Y412263D02*
Y413463D01*
X404421Y415970D02*
Y416756D01*
X404628Y416963*
X405414*
X405621Y416756*
Y415970*
X405414Y415763*
X404628*
X404421Y415970*
Y416400D02*
X405621D01*
X405400Y415763D02*
Y416963D01*
X396552Y412470D02*
Y413256D01*
X396759Y413463*
X397545*
X397752Y413256*
Y412470*
X397545Y412263*
X396759*
X396552Y412470*
X396622Y412400D02*
X397682D01*
X396696Y413400D02*
X397608D01*
X397400Y412263D02*
Y413463D01*
X396552Y415970D02*
Y416756D01*
X396759Y416963*
X397545*
X397752Y416756*
Y415970*
X397545Y415763*
X396759*
X396552Y415970*
Y416400D02*
X397752D01*
X397400Y415763D02*
Y416963D01*
X404421Y313607D02*
Y314393D01*
X404628Y314600*
X405414*
X405621Y314393*
Y313607*
X405414Y313400*
X404628*
X404421Y313607*
X404628Y313400D02*
X405414D01*
X404428Y314400D02*
X405614D01*
X405400Y313400D02*
Y314600D01*
X404421Y310107D02*
Y310893D01*
X404628Y311100*
X405414*
X405621Y310893*
Y310107*
X405414Y309900*
X404628*
X404421Y310107*
Y310400D02*
X405621D01*
X405400Y309900D02*
Y311100D01*
X420175Y313607D02*
Y314393D01*
X420175D02*
X420382Y314600D01*
X421167*
X421375Y314393*
X421375D02*
Y313607D01*
X421375D02*
X421167Y313400D01*
X420382*
X420175Y313607*
X420382Y313400D02*
X421167D01*
X420182Y314400D02*
X421367D01*
X420400Y313400D02*
Y314600D01*
X420175Y310107D02*
Y310893D01*
X420175D02*
X420382Y311100D01*
X421167*
X421375Y310893*
X421375D02*
Y310107D01*
X421375D02*
X421167Y309900D01*
X420382*
X420175Y310107*
Y310400D02*
X421375D01*
X420400Y309900D02*
Y311100D01*
X412300Y306257D02*
Y307043D01*
X412507Y307250*
X413293*
X413500Y307043*
Y306257*
X413293Y306050*
X412507*
X412300Y306257*
Y306400D02*
X413500D01*
X412400Y306157D02*
Y307143D01*
X413400Y306157D02*
Y307143D01*
X412300Y309757D02*
Y310543D01*
X412507Y310750*
X413293*
X413500Y310543*
Y309757*
X413293Y309550*
X412507*
X412300Y309757*
Y310400D02*
X413500D01*
X412400Y309657D02*
Y310643D01*
X413400Y309657D02*
Y310643D01*
X396547Y309670D02*
Y310456D01*
X396754Y310663*
X397540*
X397747Y310456*
Y309670*
X397540Y309463*
X396754*
X396547Y309670*
Y310400D02*
X397747D01*
X397400Y309463D02*
Y310663D01*
X396547Y306170D02*
Y306956D01*
X396754Y307163*
X397540*
X397747Y306956*
Y306170*
X397540Y305963*
X396754*
X396547Y306170*
Y306400D02*
X397747D01*
X397400Y305963D02*
Y307163D01*
X428049Y321918D02*
Y322704D01*
X428049D02*
X428256Y322911D01*
X429041*
X429249Y322704*
X429249D02*
Y321918D01*
X429249D02*
X429041Y321711D01*
X428256*
X428049Y321918*
Y322400D02*
X429249D01*
X428400Y321711D02*
Y322911D01*
X428049Y325418D02*
Y326204D01*
X428049D02*
X428256Y326411D01*
X429041*
X429249Y326204*
X429249D02*
Y325418D01*
X429249D02*
X429041Y325211D01*
X428256*
X428049Y325418*
X428067Y325400D02*
X429230D01*
X428245Y326400D02*
X429052D01*
X428400Y325211D02*
Y326411D01*
X420300Y329757D02*
Y330543D01*
X420507Y330750*
X421293*
X421500Y330543*
Y329757*
X421293Y329550*
X420507*
X420300Y329757*
Y330400D02*
X421500D01*
X420400Y329657D02*
Y330643D01*
X421400Y329657D02*
Y330643D01*
X420300Y333257D02*
Y334043D01*
X420507Y334250*
X421293*
X421500Y334043*
Y333257*
X421293Y333050*
X420507*
X420300Y333257*
Y333400D02*
X421500D01*
X420400Y333157D02*
Y334143D01*
X421400Y333157D02*
Y334143D01*
X400489Y325855D02*
Y326641D01*
X400696Y326848*
X401482*
X401689Y326641*
Y325855*
X401482Y325648*
X400696*
X400489Y325855*
Y326400D02*
X401689D01*
X401400Y325648D02*
Y326848D01*
X400489Y329355D02*
Y330141D01*
X400696Y330348*
X401482*
X401689Y330141*
Y329355*
X401482Y329148*
X400696*
X400489Y329355*
Y329400D02*
X401689D01*
X401400Y329148D02*
Y330348D01*
X396552Y325855D02*
Y326641D01*
X396759Y326848*
X397545*
X397752Y326641*
Y325855*
X397545Y325648*
X396759*
X396552Y325855*
Y326400D02*
X397752D01*
X397400Y325648D02*
Y326848D01*
X396552Y329355D02*
Y330141D01*
X396759Y330348*
X397545*
X397752Y330141*
Y329355*
X397545Y329148*
X396759*
X396552Y329355*
Y329400D02*
X397752D01*
X397400Y329148D02*
Y330348D01*
X431986Y310107D02*
Y310893D01*
X432193Y311100*
X432979*
X433186Y310893*
Y310107*
X432979Y309900*
X432193*
X431986Y310107*
Y310400D02*
X433186D01*
X432400Y309900D02*
Y311100D01*
X431986Y313607D02*
Y314393D01*
X432193Y314600*
X432979*
X433186Y314393*
Y313607*
X432979Y313400*
X432193*
X431986Y313607*
X432193Y313400D02*
X432979D01*
X431993Y314400D02*
X433179D01*
X432400Y313400D02*
Y314600D01*
X409800Y319757D02*
Y320543D01*
X410007Y320750*
X410793*
X411000Y320543*
Y319757*
X410793Y319550*
X410007*
X409800Y319757*
Y320400D02*
X411000D01*
X410400Y319550D02*
Y320750D01*
X409800Y316257D02*
Y317043D01*
X410007Y317250*
X410793*
X411000Y317043*
Y316257*
X410793Y316050*
X410007*
X409800Y316257*
Y316400D02*
X411000D01*
X410400Y316050D02*
Y317250D01*
X463700Y329574D02*
Y330360D01*
X463907Y330567*
X464693*
X464900Y330360*
Y329574*
X464693Y329367*
X463907*
X463700Y329574*
X463874Y329400D02*
X464726D01*
X463740Y330400D02*
X464860D01*
X464400Y329367D02*
Y330567D01*
X467200Y329574D02*
Y330360D01*
X467407Y330567*
X468193*
X468400Y330360*
Y329574*
X468193Y329367*
X467407*
X467200Y329574*
X467374Y329400D02*
X468226D01*
X467240Y330400D02*
X468360D01*
X467400Y329374D02*
Y330560D01*
X468400Y329574D02*
Y330360D01*
X443800Y388757D02*
Y389543D01*
X444007Y389750*
X444793*
X445000Y389543*
Y388757*
X444793Y388550*
X444007*
X443800Y388757*
Y389400D02*
X445000D01*
X444400Y388550D02*
Y389750D01*
X443800Y392257D02*
Y393043D01*
X444007Y393250*
X444793*
X445000Y393043*
Y392257*
X444793Y392050*
X444007*
X443800Y392257*
Y392400D02*
X445000D01*
X444400Y392050D02*
Y393250D01*
X410800Y402757D02*
Y403543D01*
X411007Y403750*
X411793*
X412000Y403543*
Y402757*
X411793Y402550*
X411007*
X410800Y402757*
Y403400D02*
X412000D01*
X411400Y402550D02*
Y403750D01*
X410800Y399257D02*
Y400043D01*
X411007Y400250*
X411793*
X412000Y400043*
Y399257*
X411793Y399050*
X411007*
X410800Y399257*
Y399400D02*
X412000D01*
X411400Y399050D02*
Y400250D01*
X435704Y361070D02*
Y361856D01*
X435911Y362063*
X436697*
X436904Y361856*
Y361070*
X436697Y360863*
X435911*
X435704Y361070*
Y361400D02*
X436904D01*
X436400Y360863D02*
Y362063D01*
X432204Y361070D02*
Y361856D01*
X432411Y362063*
X433197*
X433404Y361856*
Y361070*
X433197Y360863*
X432411*
X432204Y361070*
Y361400D02*
X433404D01*
X432400Y360874D02*
Y362052D01*
X433400Y361066D02*
Y361860D01*
X435704Y353196D02*
Y353982D01*
X435911Y354189*
X436697*
X436904Y353982*
Y353196*
X436697Y352989*
X435911*
X435704Y353196*
Y353400D02*
X436904D01*
X436400Y352989D02*
Y354189D01*
X432204Y353196D02*
Y353982D01*
X432411Y354189*
X433197*
X433404Y353982*
Y353196*
X433197Y352989*
X432411*
X432204Y353196*
Y353400D02*
X433404D01*
X432400Y353000D02*
Y354178D01*
X433400Y353192D02*
Y353986D01*
X435704Y345322D02*
Y346108D01*
X435911Y346315*
X436697*
X436904Y346108*
Y345322*
X436697Y345115*
X435911*
X435704Y345322*
Y345400D02*
X436904D01*
X436400Y345115D02*
Y346315D01*
X432204Y345322D02*
Y346108D01*
X432411Y346315*
X433197*
X433404Y346108*
Y345322*
X433197Y345115*
X432411*
X432204Y345322*
Y345400D02*
X433404D01*
X432400Y345126D02*
Y346304D01*
X433400Y345318D02*
Y346112D01*
X400489Y341603D02*
Y342389D01*
X400696Y342596*
X401482*
X401689Y342389*
Y341603*
X401482Y341396*
X400696*
X400489Y341603*
X400692Y341400D02*
X401486D01*
X400500Y342400D02*
X401678D01*
X401400Y341396D02*
Y342596D01*
X400489Y345103D02*
Y345889D01*
X400696Y346096*
X401482*
X401689Y345889*
Y345103*
X401482Y344896*
X400696*
X400489Y345103*
Y345400D02*
X401689D01*
X401400Y344896D02*
Y346096D01*
X435704Y368943D02*
Y369729D01*
X435911Y369936*
X436697*
X436904Y369729*
Y368943*
X436697Y368736*
X435911*
X435704Y368943*
Y369400D02*
X436904D01*
X436400Y368736D02*
Y369936D01*
X432204Y368943D02*
Y369729D01*
X432411Y369936*
X433197*
X433404Y369729*
Y368943*
X433197Y368736*
X432411*
X432204Y368943*
Y369400D02*
X433404D01*
X432400Y368747D02*
Y369925D01*
X433400Y368939D02*
Y369733D01*
X368970Y384467D02*
Y385253D01*
X369177Y385460*
X369963*
X370170Y385253*
Y384467*
X369963Y384260*
X369177*
X368970Y384467*
X369037Y384400D02*
X370103D01*
X369117Y385400D02*
X370023D01*
X369400Y384260D02*
Y385460D01*
X368970Y380967D02*
Y381753D01*
X369177Y381960*
X369963*
X370170Y381753*
Y380967*
X369963Y380760*
X369177*
X368970Y380967*
Y381400D02*
X370170D01*
X369400Y380760D02*
Y381960D01*
X392050Y395507D02*
Y396293D01*
X392257Y396500*
X393043*
X393250Y396293*
Y395507*
X393043Y395300*
X392257*
X392050Y395507*
X392157Y395400D02*
X393143D01*
X392157Y396400D02*
X393143D01*
X392400Y395300D02*
Y396500D01*
X388550Y395507D02*
Y396293D01*
X388757Y396500*
X389543*
X389750Y396293*
Y395507*
X389543Y395300*
X388757*
X388550Y395507*
X388657Y395400D02*
X389643D01*
X388657Y396400D02*
X389643D01*
X389400Y395300D02*
Y396500D01*
X372930Y341757D02*
Y342543D01*
X373137Y342750*
X373923*
X374130Y342543*
Y341757*
X373923Y341550*
X373137*
X372930Y341757*
Y342400D02*
X374130D01*
X373400Y341550D02*
Y342750D01*
X372930Y345257D02*
Y346043D01*
X373137Y346250*
X373923*
X374130Y346043*
Y345257*
X373923Y345050*
X373137*
X372930Y345257*
Y345400D02*
X374130D01*
X373400Y345050D02*
Y346250D01*
X372711Y353191D02*
Y353977D01*
X372918Y354184*
X373704*
X373911Y353977*
Y353191*
X373704Y352984*
X372918*
X372711Y353191*
Y353400D02*
X373911D01*
X373400Y352984D02*
Y354184D01*
X369211Y353191D02*
Y353977D01*
X369418Y354184*
X370204*
X370411Y353977*
Y353191*
X370204Y352984*
X369418*
X369211Y353191*
Y353400D02*
X370411D01*
X369400Y353002D02*
Y354166D01*
X370400Y353180D02*
Y353988D01*
X361300Y368940D02*
Y369726D01*
X361507Y369933*
X362293*
X362500Y369726*
Y368940*
X362293Y368733*
X361507*
X361300Y368940*
Y369400D02*
X362500D01*
X361400Y368840D02*
Y369826D01*
X362400Y368840D02*
Y369826D01*
X364800Y368940D02*
Y369726D01*
X365007Y369933*
X365793*
X366000Y369726*
Y368940*
X365793Y368733*
X365007*
X364800Y368940*
Y369400D02*
X366000D01*
X365400Y368733D02*
Y369933D01*
X365250Y372877D02*
Y373663D01*
X365457Y373870*
X366243*
X366450Y373663*
Y372877*
X366243Y372670*
X365457*
X365250Y372877*
Y373400D02*
X366450D01*
X365400Y372727D02*
Y373813D01*
X366400Y372827D02*
Y373713D01*
X368750Y372877D02*
Y373663D01*
X368957Y373870*
X369743*
X369950Y373663*
Y372877*
X369743Y372670*
X368957*
X368750Y372877*
Y373400D02*
X369950D01*
X369400Y372670D02*
Y373870D01*
X384741Y404159D02*
Y404945D01*
X384948Y405152*
X385734*
X385941Y404945*
Y404159*
X385734Y403952*
X384948*
X384741Y404159*
Y404400D02*
X385941D01*
X385400Y403952D02*
Y405152D01*
X384741Y400659D02*
Y401445D01*
X384948Y401652*
X385734*
X385941Y401445*
Y400659*
X385734Y400452*
X384948*
X384741Y400659*
Y401400D02*
X385941D01*
X385400Y400452D02*
Y401652D01*
X418550Y399007D02*
Y399793D01*
X418757Y400000*
X419543*
X419750Y399793*
Y399007*
X419543Y398800*
X418757*
X418550Y399007*
Y399400D02*
X419750D01*
X419400Y398800D02*
Y400000D01*
X415050Y399007D02*
Y399793D01*
X415257Y400000*
X416043*
X416250Y399793*
Y399007*
X416043Y398800*
X415257*
X415050Y399007*
Y399400D02*
X416250D01*
X415400Y398800D02*
Y400000D01*
X385550Y343007D02*
Y343793D01*
X385757Y344000*
X386543*
X386750Y343793*
Y343007*
X386543Y342800*
X385757*
X385550Y343007*
Y343400D02*
X386750D01*
X386400Y342800D02*
Y344000D01*
X382050Y343007D02*
Y343793D01*
X382257Y344000*
X383043*
X383250Y343793*
Y343007*
X383043Y342800*
X382257*
X382050Y343007*
Y343400D02*
X383250D01*
X382400Y342800D02*
Y344000D01*
X446800Y353257D02*
Y354043D01*
X447007Y354250*
X447793*
X448000Y354043*
Y353257*
X447793Y353050*
X447007*
X446800Y353257*
Y353400D02*
X448000D01*
X447400Y353050D02*
Y354250D01*
X446800Y349757D02*
Y350543D01*
X447007Y350750*
X447793*
X448000Y350543*
Y349757*
X447793Y349550*
X447007*
X446800Y349757*
Y350400D02*
X448000D01*
X447400Y349550D02*
Y350750D01*
X416238Y317544D02*
Y318330D01*
X416445Y318537*
X417231*
X417438Y318330*
Y317544*
X417231Y317337*
X416445*
X416238Y317544*
X416382Y317400D02*
X417294D01*
X416308Y318400D02*
X417368D01*
X416400Y317382D02*
Y318492D01*
X417400Y317506D02*
Y318368D01*
X416238Y314044D02*
Y314830D01*
X416445Y315037*
X417231*
X417438Y314830*
Y314044*
X417231Y313837*
X416445*
X416238Y314044*
Y314400D02*
X417438D01*
X416400Y313882D02*
Y314992D01*
X417400Y314006D02*
Y314868D01*
X388896Y380755D02*
Y381541D01*
X389103Y381748*
X389889*
X390096Y381541*
Y380755*
X389889Y380548*
X389103*
X388896Y380755*
Y381400D02*
X390096D01*
X389400Y380548D02*
Y381748D01*
X392396Y380755D02*
Y381541D01*
X392603Y381748*
X393389*
X393596Y381541*
Y380755*
X393389Y380548*
X392603*
X392396Y380755*
Y381400D02*
X393596D01*
X392400Y380751D02*
Y381545D01*
X393400Y380559D02*
Y381737D01*
X424111Y341603D02*
Y342389D01*
X424318Y342596*
X425104*
X425311Y342389*
Y341603*
X425104Y341396*
X424318*
X424111Y341603*
X424314Y341400D02*
X425108D01*
X424122Y342400D02*
X425300D01*
X424400Y341396D02*
Y342596D01*
X424111Y345103D02*
Y345889D01*
X424318Y346096*
X425104*
X425311Y345889*
Y345103*
X425104Y344896*
X424318*
X424111Y345103*
Y345400D02*
X425311D01*
X424400Y344896D02*
Y346096D01*
X505550Y335007D02*
Y335793D01*
X505757Y336000*
X506543*
X506750Y335793*
Y335007*
X506543Y334800*
X505757*
X505550Y335007*
Y335400D02*
X506750D01*
X506400Y334800D02*
Y336000D01*
X509050Y335007D02*
Y335793D01*
X509257Y336000*
X510043*
X510250Y335793*
Y335007*
X510043Y334800*
X509257*
X509050Y335007*
Y335400D02*
X510250D01*
X509400Y334800D02*
Y336000D01*
X459763Y376818D02*
Y377604D01*
X459970Y377811*
X460756*
X460963Y377604*
Y376818*
X460756Y376611*
X459970*
X459763Y376818*
Y377400D02*
X460963D01*
X460400Y376611D02*
Y377811D01*
X463263Y376818D02*
Y377604D01*
X463470Y377811*
X464256*
X464463Y377604*
Y376818*
X464256Y376611*
X463470*
X463263Y376818*
Y377400D02*
X464463D01*
X463400Y376681D02*
Y377741D01*
X464400Y376755D02*
Y377667D01*
X451452Y372882D02*
Y373668D01*
X451659Y373875*
X452445*
X452652Y373668*
Y372882*
X452445Y372675*
X451659*
X451452Y372882*
Y373400D02*
X452652D01*
X452400Y372675D02*
Y373875D01*
X447952Y372882D02*
Y373668D01*
X448159Y373875*
X448945*
X449152Y373668*
Y372882*
X448945Y372675*
X448159*
X447952Y372882*
Y373400D02*
X449152D01*
X448400Y372675D02*
Y373875D01*
X550550Y385007D02*
Y385793D01*
X550757Y386000*
X551543*
X551750Y385793*
Y385007*
X551543Y384800*
X550757*
X550550Y385007*
Y385400D02*
X551750D01*
X551400Y384800D02*
Y386000D01*
X554050Y385007D02*
Y385793D01*
X554257Y386000*
X555043*
X555250Y385793*
Y385007*
X555043Y384800*
X554257*
X554050Y385007*
Y385400D02*
X555250D01*
X554400Y384800D02*
Y386000D01*
X388896Y365007D02*
Y365793D01*
X389103Y366000*
X389889*
X390096Y365793*
Y365007*
X389889Y364800*
X389103*
X388896Y365007*
Y365400D02*
X390096D01*
X389400Y364800D02*
Y366000D01*
X392396Y365007D02*
Y365793D01*
X392603Y366000*
X393389*
X393596Y365793*
Y365007*
X393389Y364800*
X392603*
X392396Y365007*
Y365400D02*
X393596D01*
X392400Y365003D02*
Y365797D01*
X393400Y364811D02*
Y365989D01*
X436300Y384911D02*
Y385697D01*
X436507Y385904*
X437293*
X437500Y385697*
Y384911*
X437293Y384704*
X436507*
X436300Y384911*
Y385400D02*
X437500D01*
X436400Y384811D02*
Y385797D01*
X437400Y384811D02*
Y385797D01*
X436300Y388411D02*
Y389197D01*
X436507Y389404*
X437293*
X437500Y389197*
Y388411*
X437293Y388204*
X436507*
X436300Y388411*
X436311Y388400D02*
X437489D01*
X436503Y389400D02*
X437297D01*
X436400Y388311D02*
Y389297D01*
X437400Y388311D02*
Y389297D01*
X428049Y388411D02*
Y389197D01*
X428256Y389404*
X429042*
X429249Y389197*
Y388411*
X429042Y388204*
X428256*
X428049Y388411*
X428060Y388400D02*
X429238D01*
X428252Y389400D02*
X429046D01*
X428400Y388204D02*
Y389404D01*
X428049Y384911D02*
Y385697D01*
X428256Y385904*
X429042*
X429249Y385697*
Y384911*
X429042Y384704*
X428256*
X428049Y384911*
Y385400D02*
X429249D01*
X428400Y384704D02*
Y385904D01*
X420175Y388411D02*
Y389197D01*
X420382Y389404*
X421168*
X421375Y389197*
Y388411*
X421168Y388204*
X420382*
X420175Y388411*
X420186Y388400D02*
X421364D01*
X420378Y389400D02*
X421172D01*
X420400Y388204D02*
Y389404D01*
X420175Y384911D02*
Y385697D01*
X420382Y385904*
X421168*
X421375Y385697*
Y384911*
X421168Y384704*
X420382*
X420175Y384911*
Y385400D02*
X421375D01*
X420400Y384704D02*
Y385904D01*
X388896Y349259D02*
Y350045D01*
X389103Y350252*
X389889*
X390096Y350045*
Y349259*
X389889Y349052*
X389103*
X388896Y349259*
Y349400D02*
X390096D01*
X389400Y349052D02*
Y350252D01*
X392396Y349259D02*
Y350045D01*
X392603Y350252*
X393389*
X393596Y350045*
Y349259*
X393389Y349052*
X392603*
X392396Y349259*
Y349400D02*
X393596D01*
X392400Y349255D02*
Y350049D01*
X393400Y349063D02*
Y350241D01*
X388896Y357133D02*
Y357919D01*
X389103Y358126*
X389889*
X390096Y357919*
Y357133*
X389889Y356926*
X389103*
X388896Y357133*
Y357400D02*
X390096D01*
X389400Y356926D02*
Y358126D01*
X392396Y357133D02*
Y357919D01*
X392603Y358126*
X393389*
X393596Y357919*
Y357133*
X393389Y356926*
X392603*
X392396Y357133*
Y357400D02*
X393596D01*
X392400Y357129D02*
Y357923D01*
X393400Y356937D02*
Y358115D01*
X412300Y388411D02*
Y389197D01*
X412507Y389404*
X413293*
X413500Y389197*
Y388411*
X413293Y388204*
X412507*
X412300Y388411*
X412311Y388400D02*
X413489D01*
X412503Y389400D02*
X413297D01*
X412400Y388311D02*
Y389297D01*
X413400Y388311D02*
Y389297D01*
X412300Y384911D02*
Y385697D01*
X412507Y385904*
X413293*
X413500Y385697*
Y384911*
X413293Y384704*
X412507*
X412300Y384911*
Y385400D02*
X413500D01*
X412400Y384811D02*
Y385797D01*
X413400Y384811D02*
Y385797D01*
X435704Y376818D02*
Y377604D01*
X435911Y377811*
X436697*
X436904Y377604*
Y376818*
X436697Y376611*
X435911*
X435704Y376818*
Y377400D02*
X436904D01*
X436400Y376611D02*
Y377811D01*
X432204Y376818D02*
Y377604D01*
X432411Y377811*
X433197*
X433404Y377604*
Y376818*
X433197Y376611*
X432411*
X432204Y376818*
Y377400D02*
X433404D01*
X432400Y376622D02*
Y377800D01*
X433400Y376814D02*
Y377608D01*
X388896Y372881D02*
Y373667D01*
X389103Y373874*
X389889*
X390096Y373667*
Y372881*
X389889Y372674*
X389103*
X388896Y372881*
Y373400D02*
X390096D01*
X389400Y372674D02*
Y373874D01*
X392396Y372881D02*
Y373667D01*
X392603Y373874*
X393389*
X393596Y373667*
Y372881*
X393389Y372674*
X392603*
X392396Y372881*
Y373400D02*
X393596D01*
X392400Y372877D02*
Y373671D01*
X393400Y372685D02*
Y373863D01*
X361119Y412033D02*
Y412819D01*
X361326Y413026*
X362112*
X362319Y412819*
Y412033*
X362112Y411826*
X361326*
X361119Y412033*
Y412400D02*
X362319D01*
X361400Y411826D02*
Y413026D01*
X361119Y408533D02*
Y409319D01*
X361326Y409526*
X362112*
X362319Y409319*
Y408533*
X362112Y408326*
X361326*
X361119Y408533*
X361252Y408400D02*
X362186D01*
X361200Y409400D02*
X362238D01*
X361400Y408326D02*
Y409526D01*
X384741Y419907D02*
Y420693D01*
X384948Y420900*
X385734*
X385941Y420693*
Y419907*
X385734Y419700*
X384948*
X384741Y419907*
Y420400D02*
X385941D01*
X385400Y419700D02*
Y420900D01*
X384741Y416407D02*
Y417193D01*
X384948Y417400*
X385734*
X385941Y417193*
Y416407*
X385734Y416200*
X384948*
X384741Y416407*
X384748Y416400D02*
X385934D01*
X384948Y417400D02*
X385734D01*
X385400Y416200D02*
Y417400D01*
X376648Y416189D02*
Y416975D01*
X376855Y417182*
X377641*
X377848Y416975*
Y416189*
X377641Y415982*
X376855*
X376648Y416189*
Y416400D02*
X377848D01*
X377400Y415982D02*
Y417182D01*
X373148Y416189D02*
Y416975D01*
X373355Y417182*
X374141*
X374348Y416975*
Y416189*
X374141Y415982*
X373355*
X373148Y416189*
Y416400D02*
X374348D01*
X373400Y415982D02*
Y417182D01*
X343300Y365757D02*
Y366543D01*
X343507Y366750*
X344293*
X344500Y366543*
Y365757*
X344293Y365550*
X343507*
X343300Y365757*
Y366400D02*
X344500D01*
X343400Y365657D02*
Y366643D01*
X344400Y365657D02*
Y366643D01*
X343300Y369257D02*
Y370043D01*
X343507Y370250*
X344293*
X344500Y370043*
Y369257*
X344293Y369050*
X343507*
X343300Y369257*
Y369400D02*
X344500D01*
X343400Y369157D02*
Y370143D01*
X344400Y369157D02*
Y370143D01*
X357050Y425007D02*
Y425793D01*
X357257Y426000*
X358043*
X358250Y425793*
Y425007*
X358043Y424800*
X357257*
X357050Y425007*
Y425400D02*
X358250D01*
X357400Y424800D02*
Y426000D01*
X353550Y425007D02*
Y425793D01*
X353757Y426000*
X354543*
X354750Y425793*
Y425007*
X354543Y424800*
X353757*
X353550Y425007*
Y425400D02*
X354750D01*
X354400Y424800D02*
Y426000D01*
X384800Y388757D02*
Y389543D01*
X385007Y389750*
X385793*
X386000Y389543*
Y388757*
X385793Y388550*
X385007*
X384800Y388757*
Y389400D02*
X386000D01*
X385400Y388550D02*
Y389750D01*
X384800Y392257D02*
Y393043D01*
X385007Y393250*
X385793*
X386000Y393043*
Y392257*
X385793Y392050*
X385007*
X384800Y392257*
Y392400D02*
X386000D01*
X385400Y392050D02*
Y393250D01*
X361337Y388625D02*
Y389411D01*
X361544Y389618*
X362330*
X362537Y389411*
Y388625*
X362330Y388418*
X361544*
X361337Y388625*
Y389400D02*
X362537D01*
X361400Y388562D02*
Y389474D01*
X362400Y388488D02*
Y389548D01*
X364837Y388625D02*
Y389411D01*
X365044Y389618*
X365830*
X366037Y389411*
Y388625*
X365830Y388418*
X365044*
X364837Y388625*
Y389400D02*
X366037D01*
X365400Y388418D02*
Y389618D01*
X361124Y380517D02*
Y381303D01*
X361331Y381510*
X362117*
X362324Y381303*
Y380517*
X362117Y380310*
X361331*
X361124Y380517*
X361241Y380400D02*
X362207D01*
X361221Y381400D02*
X362227D01*
X361400Y380310D02*
Y381510D01*
X361124Y377017D02*
Y377803D01*
X361331Y378010*
X362117*
X362324Y377803*
Y377017*
X362117Y376810*
X361331*
X361124Y377017*
Y377400D02*
X362324D01*
X361400Y376810D02*
Y378010D01*
X434550Y395507D02*
Y396293D01*
X434757Y396500*
X435543*
X435750Y396293*
Y395507*
X435543Y395300*
X434757*
X434550Y395507*
X434657Y395400D02*
X435643D01*
X434657Y396400D02*
X435643D01*
X435400Y395300D02*
Y396500D01*
X438050Y395507D02*
Y396293D01*
X438257Y396500*
X439043*
X439250Y396293*
Y395507*
X439043Y395300*
X438257*
X438050Y395507*
X438157Y395400D02*
X439143D01*
X438157Y396400D02*
X439143D01*
X438400Y395300D02*
Y396500D01*
X612300Y473257D02*
Y474043D01*
X612507Y474250*
X613293*
X613500Y474043*
Y473257*
X613293Y473050*
X612507*
X612300Y473257*
Y473400D02*
X613500D01*
X612400Y473157D02*
Y474143D01*
X613400Y473157D02*
Y474143D01*
X612300Y476757D02*
Y477543D01*
X612507Y477750*
X613293*
X613500Y477543*
Y476757*
X613293Y476550*
X612507*
X612300Y476757*
Y477400D02*
X613500D01*
X612400Y476657D02*
Y477643D01*
X613400Y476657D02*
Y477643D01*
X552300Y483257D02*
Y484043D01*
X552507Y484250*
X553293*
X553500Y484043*
Y483257*
X553293Y483050*
X552507*
X552300Y483257*
Y483400D02*
X553500D01*
X552400Y483157D02*
Y484143D01*
X553400Y483157D02*
Y484143D01*
X552300Y486757D02*
Y487543D01*
X552507Y487750*
X553293*
X553500Y487543*
Y486757*
X553293Y486550*
X552507*
X552300Y486757*
Y487400D02*
X553500D01*
X552400Y486657D02*
Y487643D01*
X553400Y486657D02*
Y487643D01*
X552300Y474257D02*
Y475043D01*
X552507Y475250*
X553293*
X553500Y475043*
Y474257*
X553293Y474050*
X552507*
X552300Y474257*
Y474400D02*
X553500D01*
X552400Y474157D02*
Y475143D01*
X553400Y474157D02*
Y475143D01*
X552300Y470757D02*
Y471543D01*
X552507Y471750*
X553293*
X553500Y471543*
Y470757*
X553293Y470550*
X552507*
X552300Y470757*
Y471400D02*
X553500D01*
X552400Y470657D02*
Y471643D01*
X553400Y470657D02*
Y471643D01*
X583300Y475757D02*
Y476543D01*
X583507Y476750*
X584293*
X584500Y476543*
Y475757*
X584293Y475550*
X583507*
X583300Y475757*
Y476400D02*
X584500D01*
X583400Y475657D02*
Y476643D01*
X584400Y475657D02*
Y476643D01*
X583300Y479257D02*
Y480043D01*
X583507Y480250*
X584293*
X584500Y480043*
Y479257*
X584293Y479050*
X583507*
X583300Y479257*
Y479400D02*
X584500D01*
X583400Y479157D02*
Y480143D01*
X584400Y479157D02*
Y480143D01*
X537300Y483257D02*
Y484043D01*
X537507Y484250*
X538293*
X538500Y484043*
Y483257*
X538293Y483050*
X537507*
X537300Y483257*
Y483400D02*
X538500D01*
X537400Y483157D02*
Y484143D01*
X538400Y483157D02*
Y484143D01*
X537300Y486757D02*
Y487543D01*
X537507Y487750*
X538293*
X538500Y487543*
Y486757*
X538293Y486550*
X537507*
X537300Y486757*
Y487400D02*
X538500D01*
X537400Y486657D02*
Y487643D01*
X538400Y486657D02*
Y487643D01*
X567550Y443507D02*
Y444293D01*
X567757Y444500*
X568543*
X568750Y444293*
Y443507*
X568543Y443300*
X567757*
X567550Y443507*
X567657Y443400D02*
X568643D01*
X567657Y444400D02*
X568643D01*
X568400Y443300D02*
Y444500D01*
X564050Y443507D02*
Y444293D01*
X564257Y444500*
X565043*
X565250Y444293*
Y443507*
X565043Y443300*
X564257*
X564050Y443507*
X564157Y443400D02*
X565143D01*
X564157Y444400D02*
X565143D01*
X564400Y443300D02*
Y444500D01*
X576550Y443507D02*
Y444293D01*
X576757Y444500*
X577543*
X577750Y444293*
Y443507*
X577543Y443300*
X576757*
X576550Y443507*
X576657Y443400D02*
X577643D01*
X576657Y444400D02*
X577643D01*
X577400Y443300D02*
Y444500D01*
X580050Y443507D02*
Y444293D01*
X580257Y444500*
X581043*
X581250Y444293*
Y443507*
X581043Y443300*
X580257*
X580050Y443507*
X580157Y443400D02*
X581143D01*
X580157Y444400D02*
X581143D01*
X580400Y443300D02*
Y444500D01*
X591550Y443507D02*
Y444293D01*
X591757Y444500*
X592543*
X592750Y444293*
Y443507*
X592543Y443300*
X591757*
X591550Y443507*
X591657Y443400D02*
X592643D01*
X591657Y444400D02*
X592643D01*
X592400Y443300D02*
Y444500D01*
X595050Y443507D02*
Y444293D01*
X595257Y444500*
X596043*
X596250Y444293*
Y443507*
X596043Y443300*
X595257*
X595050Y443507*
X595157Y443400D02*
X596143D01*
X595157Y444400D02*
X596143D01*
X595400Y443300D02*
Y444500D01*
X604800Y461757D02*
Y462543D01*
X605007Y462750*
X605793*
X606000Y462543*
Y461757*
X605793Y461550*
X605007*
X604800Y461757*
Y462400D02*
X606000D01*
X605400Y461550D02*
Y462750D01*
X604800Y458257D02*
Y459043D01*
X605007Y459250*
X605793*
X606000Y459043*
Y458257*
X605793Y458050*
X605007*
X604800Y458257*
Y458400D02*
X606000D01*
X605400Y458050D02*
Y459250D01*
X604800Y488257D02*
Y489043D01*
X605007Y489250*
X605793*
X606000Y489043*
Y488257*
X605793Y488050*
X605007*
X604800Y488257*
Y488400D02*
X606000D01*
X605400Y488050D02*
Y489250D01*
X604800Y491757D02*
Y492543D01*
X605007Y492750*
X605793*
X606000Y492543*
Y491757*
X605793Y491550*
X605007*
X604800Y491757*
Y492400D02*
X606000D01*
X605400Y491550D02*
Y492750D01*
X600550Y502507D02*
Y503293D01*
X600757Y503500*
X601543*
X601750Y503293*
Y502507*
X601543Y502300*
X600757*
X600550Y502507*
X600657Y502400D02*
X601643D01*
X600657Y503400D02*
X601643D01*
X601400Y502300D02*
Y503500D01*
X604050Y502507D02*
Y503293D01*
X604257Y503500*
X605043*
X605250Y503293*
Y502507*
X605043Y502300*
X604257*
X604050Y502507*
X604157Y502400D02*
X605143D01*
X604157Y503400D02*
X605143D01*
X604400Y502300D02*
Y503500D01*
X588050Y502507D02*
Y503293D01*
X588257Y503500*
X589043*
X589250Y503293*
Y502507*
X589043Y502300*
X588257*
X588050Y502507*
X588157Y502400D02*
X589143D01*
X588157Y503400D02*
X589143D01*
X588400Y502300D02*
Y503500D01*
X591550Y502507D02*
Y503293D01*
X591757Y503500*
X592543*
X592750Y503293*
Y502507*
X592543Y502300*
X591757*
X591550Y502507*
X591657Y502400D02*
X592643D01*
X591657Y503400D02*
X592643D01*
X592400Y502300D02*
Y503500D01*
X579050Y510007D02*
Y510793D01*
X579257Y511000*
X580043*
X580250Y510793*
Y510007*
X580043Y509800*
X579257*
X579050Y510007*
Y510400D02*
X580250D01*
X579400Y509800D02*
Y511000D01*
X575550Y510007D02*
Y510793D01*
X575757Y511000*
X576543*
X576750Y510793*
Y510007*
X576543Y509800*
X575757*
X575550Y510007*
Y510400D02*
X576750D01*
X576400Y509800D02*
Y511000D01*
X566550Y510007D02*
Y510793D01*
X566757Y511000*
X567543*
X567750Y510793*
Y510007*
X567543Y509800*
X566757*
X566550Y510007*
Y510400D02*
X567750D01*
X567400Y509800D02*
Y511000D01*
X563050Y510007D02*
Y510793D01*
X563257Y511000*
X564043*
X564250Y510793*
Y510007*
X564043Y509800*
X563257*
X563050Y510007*
Y510400D02*
X564250D01*
X563400Y509800D02*
Y511000D01*
X544800Y495757D02*
Y496543D01*
X545007Y496750*
X545793*
X546000Y496543*
Y495757*
X545793Y495550*
X545007*
X544800Y495757*
Y496400D02*
X546000D01*
X545400Y495550D02*
Y496750D01*
X544800Y499257D02*
Y500043D01*
X545007Y500250*
X545793*
X546000Y500043*
Y499257*
X545793Y499050*
X545007*
X544800Y499257*
Y499400D02*
X546000D01*
X545400Y499050D02*
Y500250D01*
X544800Y461757D02*
Y462543D01*
X545007Y462750*
X545793*
X546000Y462543*
Y461757*
X545793Y461550*
X545007*
X544800Y461757*
Y462400D02*
X546000D01*
X545400Y461550D02*
Y462750D01*
X544800Y458257D02*
Y459043D01*
X545007Y459250*
X545793*
X546000Y459043*
Y458257*
X545793Y458050*
X545007*
X544800Y458257*
Y458400D02*
X546000D01*
X545400Y458050D02*
Y459250D01*
X271550Y372507D02*
Y373293D01*
X271757Y373500*
X272543*
X272750Y373293*
Y372507*
X272543Y372300*
X271757*
X271550Y372507*
X271657Y372400D02*
X272643D01*
X271657Y373400D02*
X272643D01*
X272400Y372300D02*
Y373500D01*
X268050Y372507D02*
Y373293D01*
X268257Y373500*
X269043*
X269250Y373293*
Y372507*
X269043Y372300*
X268257*
X268050Y372507*
X268157Y372400D02*
X269143D01*
X268157Y373400D02*
X269143D01*
X268400Y372300D02*
Y373500D01*
X309350Y408607D02*
Y409393D01*
X309557Y409600*
X310343*
X310550Y409393*
Y408607*
X310343Y408400*
X309557*
X309350Y408607*
X309557Y408400D02*
X310343D01*
X309357Y409400D02*
X310543D01*
X309400Y408557D02*
Y409443D01*
X310400Y408457D02*
Y409543D01*
X312850Y408607D02*
Y409393D01*
X313057Y409600*
X313843*
X314050Y409393*
Y408607*
X313843Y408400*
X313057*
X312850Y408607*
X313057Y408400D02*
X313843D01*
X312857Y409400D02*
X314043D01*
X313400Y408400D02*
Y409600D01*
X276100Y422157D02*
Y422943D01*
X276307Y423150*
X277093*
X277300Y422943*
Y422157*
X277093Y421950*
X276307*
X276100Y422157*
Y422400D02*
X277300D01*
X276400Y421950D02*
Y423150D01*
X276100Y418657D02*
Y419443D01*
X276307Y419650*
X277093*
X277300Y419443*
Y418657*
X277093Y418450*
X276307*
X276100Y418657*
Y419400D02*
X277300D01*
X276400Y418450D02*
Y419650D01*
X409800Y327757D02*
Y328543D01*
X410007Y328750*
X410793*
X411000Y328543*
Y327757*
X410793Y327550*
X410007*
X409800Y327757*
Y328400D02*
X411000D01*
X410400Y327550D02*
Y328750D01*
X409800Y324257D02*
Y325043D01*
X410007Y325250*
X410793*
X411000Y325043*
Y324257*
X410793Y324050*
X410007*
X409800Y324257*
Y324400D02*
X411000D01*
X410400Y324050D02*
Y325250D01*
X392615Y388411D02*
Y389197D01*
X392615D02*
X392822Y389404D01*
X393607*
X393815Y389197*
X393815D02*
Y388411D01*
X393815D02*
X393607Y388204D01*
X392822*
X392615Y388411*
X392626Y388400D02*
X393803D01*
X392818Y389400D02*
X393611D01*
X393400Y388204D02*
Y389404D01*
X392615Y384911D02*
Y385697D01*
X392615D02*
X392822Y385904D01*
X393607*
X393815Y385697*
X393815D02*
Y384911D01*
X393815D02*
X393607Y384704D01*
X392822*
X392615Y384911*
Y385400D02*
X393815D01*
X393400Y384704D02*
Y385904D01*
X410050Y332507D02*
Y333293D01*
X410257Y333500*
X411043*
X411250Y333293*
Y332507*
X411043Y332300*
X410257*
X410050Y332507*
X410157Y332400D02*
X411143D01*
X410157Y333400D02*
X411143D01*
X410400Y332300D02*
Y333500D01*
X413550Y332507D02*
Y333293D01*
X413757Y333500*
X414543*
X414750Y333293*
Y332507*
X414543Y332300*
X413757*
X413550Y332507*
X413657Y332400D02*
X414643D01*
X413657Y333400D02*
X414643D01*
X414400Y332300D02*
Y333500D01*
X410050Y336507D02*
Y337293D01*
X410257Y337500*
X411043*
X411250Y337293*
Y336507*
X411043Y336300*
X410257*
X410050Y336507*
X410157Y336400D02*
X411143D01*
X410157Y337400D02*
X411143D01*
X410400Y336300D02*
Y337500D01*
X413550Y336507D02*
Y337293D01*
X413757Y337500*
X414543*
X414750Y337293*
Y336507*
X414543Y336300*
X413757*
X413550Y336507*
X413657Y336400D02*
X414643D01*
X413657Y337400D02*
X414643D01*
X414400Y336300D02*
Y337500D01*
X377085Y325637D02*
Y326423D01*
X377292Y326630*
X378078*
X378285Y326423*
Y325637*
X378078Y325430*
X377292*
X377085Y325637*
Y326400D02*
X378285D01*
X377400Y325430D02*
Y326630D01*
X380585Y325637D02*
Y326423D01*
X380792Y326630*
X381578*
X381785Y326423*
Y325637*
X381578Y325430*
X380792*
X380585Y325637*
Y326400D02*
X381785D01*
X381400Y325430D02*
Y326630D01*
X540107Y140400D02*
X543400Y143693D01*
X546693Y140400*
X543400Y137107*
X540107Y140400*
X540400Y140107D02*
Y140693D01*
X540900Y139607D02*
Y141193D01*
X541400Y139107D02*
Y141693D01*
X541900Y138607D02*
Y142193D01*
X542400Y138107D02*
Y142693D01*
X542900Y137607D02*
Y143193D01*
X543400Y137107D02*
Y143693D01*
X543900Y137607D02*
Y143193D01*
X544400Y138107D02*
Y142693D01*
X544900Y138607D02*
Y142193D01*
X545400Y139107D02*
Y141693D01*
X545900Y139607D02*
Y141193D01*
X546400Y140107D02*
Y140693D01*
X182607Y179900D02*
X185900Y183193D01*
X189193Y179900*
X185900Y176607*
X182607Y179900*
X182900Y179607D02*
Y180193D01*
X183400Y179107D02*
Y180693D01*
X183900Y178607D02*
Y181193D01*
X184400Y178107D02*
Y181693D01*
X184900Y177607D02*
Y182193D01*
X185400Y177107D02*
Y182693D01*
X185900Y176607D02*
Y183193D01*
X186400Y177107D02*
Y182693D01*
X186900Y177607D02*
Y182193D01*
X187400Y178107D02*
Y181693D01*
X187900Y178607D02*
Y181193D01*
X188400Y179107D02*
Y180693D01*
X188900Y179607D02*
Y180193D01*
X148107Y693900D02*
X151400Y697193D01*
X154693Y693900*
X151400Y690607*
X148107Y693900*
X148400Y693607D02*
Y694193D01*
X148900Y693107D02*
Y694693D01*
X149400Y692607D02*
Y695193D01*
X149900Y692107D02*
Y695693D01*
X150400Y691607D02*
Y696193D01*
X150900Y691107D02*
Y696693D01*
X151400Y690607D02*
Y697193D01*
X151900Y691107D02*
Y696693D01*
X152400Y691607D02*
Y696193D01*
X152900Y692107D02*
Y695693D01*
X153400Y692607D02*
Y695193D01*
X153900Y693107D02*
Y694693D01*
X154400Y693607D02*
Y694193D01*
X472300Y786463D02*
Y779900D01*
X475027*
X478891Y786463D02*
X477073Y779900D01*
X478891Y786463D02*
X480709Y779900D01*
X477755Y782088D02*
X480027D01*
X482755Y786463D02*
X484573Y783338D01*
X484573D02*
Y779900D01*
X486391Y786463D02*
X484573Y783338D01*
X488436Y786463D02*
Y779900D01*
Y786463D02*
X491391D01*
X488436Y783338D02*
X490255D01*
X488436Y779900D02*
X491391D01*
X493436Y786463D02*
Y779900D01*
Y786463D02*
X495482D01*
X495482D02*
X496164Y786150D01*
X496391Y785838*
X496391D02*
X496618Y785213D01*
X496618D02*
Y784588D01*
X496618D02*
X496391Y783963D01*
X496391D02*
X496164Y783650D01*
X495482Y783338*
X495482D02*
X493436D01*
X495027D02*
X496618Y779900D01*
X472300Y771463D02*
Y764900D01*
Y771463D02*
X474345D01*
X474345D02*
X475027Y771150D01*
X475255Y770838*
X475255D02*
X475482Y770213D01*
X475482D02*
Y769275D01*
X475255Y768650*
X475027Y768338*
X475027D02*
X474345Y768025D01*
X472300*
X479345Y771463D02*
X477527Y764900D01*
X479345Y771463D02*
X481164Y764900D01*
X478209Y767088D02*
X480482D01*
X483209Y771463D02*
Y764900D01*
Y771463D02*
X485255D01*
X485255D02*
X485936Y771150D01*
X486164Y770838*
X486164D02*
X486391Y770213D01*
X486391D02*
Y769588D01*
X486391D02*
X486164Y768963D01*
X486164D02*
X485936Y768650D01*
X485255Y768338*
X485255D02*
X483209D01*
X484800D02*
X486391Y764900D01*
X490027Y771463D02*
Y764900D01*
X488436Y771463D02*
X491618D01*
X498891D02*
Y764900D01*
Y771463D02*
X502073Y764900D01*
Y771463D02*
Y764900D01*
X505482Y771463D02*
X505027Y771150D01*
X504573Y770525*
X504345Y769900*
X504118Y768963*
X504118D02*
Y767400D01*
X504345Y766463*
X504345D02*
X504573Y765838D01*
X504573D02*
X505027Y765213D01*
X505027D02*
X505482Y764900D01*
X506391*
X506845Y765213*
X506845D02*
X507300Y765838D01*
X507300D02*
X507527Y766463D01*
X507527D02*
X507755Y767400D01*
Y768963*
X507755D02*
X507527Y769900D01*
X507300Y770525*
X506845Y771150*
X506391Y771463*
X506391D02*
X505482D01*
X472300Y756463D02*
Y749900D01*
Y756463D02*
X474345D01*
X474345D02*
X475027Y756150D01*
X475255Y755838*
X475255D02*
X475482Y755213D01*
X475482D02*
Y754588D01*
X475482D02*
X475255Y753963D01*
X475255D02*
X475027Y753650D01*
X474345Y753338*
X474345D02*
X472300D01*
X473891D02*
X475482Y749900D01*
X477527Y756463D02*
Y749900D01*
Y756463D02*
X480482D01*
X477527Y753338D02*
X479345D01*
X477527Y749900D02*
X480482D01*
X482527Y756463D02*
X484345Y749900D01*
X486164Y756463D02*
X484345Y749900D01*
X532300Y770213D02*
X532755Y770525D01*
X533436Y771463*
X533436D02*
Y764900D01*
X538664Y771463D02*
X536391Y764900D01*
X535482Y771463D02*
X538664D01*
X540709Y767713D02*
X544800D01*
X549573Y770525D02*
X549345Y771150D01*
X548664Y771463*
X548664D02*
X548209D01*
X548209D02*
X547527Y771150D01*
X547073Y770213*
X547073D02*
X546845Y768650D01*
Y767088*
X546845D02*
X547073Y765838D01*
X547073D02*
X547527Y765213D01*
X547527D02*
X548209Y764900D01*
X548436*
X549118Y765213*
X549118D02*
X549573Y765838D01*
X549573D02*
X549800Y766775D01*
Y767088*
X549800D02*
X549573Y768025D01*
X549118Y768650*
X548436Y768963*
X548436D02*
X548209D01*
X548209D02*
X547527Y768650D01*
X547073Y768025*
X546845Y767088*
X553209Y771463D02*
X552527Y771150D01*
X552073Y770213*
X552073D02*
X551845Y768650D01*
Y767713*
X551845D02*
X552073Y766150D01*
X552527Y765213*
X552527D02*
X553209Y764900D01*
X553664*
X554345Y765213*
X554345D02*
X554800Y766150D01*
X555027Y767713*
X555027D02*
Y768650D01*
X554800Y770213*
X554800D02*
X554345Y771150D01*
X553664Y771463*
X553664D02*
X553209D01*
X558436D02*
X557755Y771150D01*
X557300Y770213*
X557300D02*
X557073Y768650D01*
Y767713*
X557073D02*
X557300Y766150D01*
X557755Y765213*
X557755D02*
X558436Y764900D01*
X558891*
X559573Y765213*
X559573D02*
X560027Y766150D01*
X560255Y767713*
X560255D02*
Y768650D01*
X560027Y770213*
X560027D02*
X559573Y771150D01*
X558891Y771463*
X558891D02*
X558436D01*
X564573D02*
X562300Y767088D01*
X562300D02*
X565709D01*
X564573Y771463D02*
Y764900D01*
X569118Y771463D02*
X568436Y771150D01*
X567982Y770213*
X567982D02*
X567755Y768650D01*
Y767713*
X567755D02*
X567982Y766150D01*
X568436Y765213*
X568436D02*
X569118Y764900D01*
X569573*
X570255Y765213*
X570255D02*
X570709Y766150D01*
X570936Y767713*
X570936D02*
Y768650D01*
X570709Y770213*
X570709D02*
X570255Y771150D01*
X569573Y771463*
X569573D02*
X569118D01*
X574345D02*
X573664Y771150D01*
X573209Y770213*
X573209D02*
X572982Y768650D01*
Y767713*
X572982D02*
X573209Y766150D01*
X573664Y765213*
X573664D02*
X574345Y764900D01*
X574800*
X575482Y765213*
X575482D02*
X575936Y766150D01*
X576164Y767713*
X576164D02*
Y768650D01*
X575936Y770213*
X575936D02*
X575482Y771150D01*
X574800Y771463*
X574800D02*
X574345D01*
X578209Y767713D02*
X582300D01*
X585709Y771463D02*
X585027Y771150D01*
X584573Y770213*
X584573D02*
X584345Y768650D01*
Y767713*
X584345D02*
X584573Y766150D01*
X585027Y765213*
X585027D02*
X585709Y764900D01*
X586164*
X586845Y765213*
X586845D02*
X587300Y766150D01*
X587527Y767713*
X587527D02*
Y768650D01*
X587300Y770213*
X587300D02*
X586845Y771150D01*
X586164Y771463*
X586164D02*
X585709D01*
X590936D02*
X590255Y771150D01*
X589800Y770213*
X589800D02*
X589573Y768650D01*
Y767713*
X589573D02*
X589800Y766150D01*
X590255Y765213*
X590255D02*
X590936Y764900D01*
X591391*
X592073Y765213*
X592073D02*
X592527Y766150D01*
X592755Y767713*
X592755D02*
Y768650D01*
X592527Y770213*
X592527D02*
X592073Y771150D01*
X591391Y771463*
X591391D02*
X590936D01*
X594800Y770213D02*
X595255Y770525D01*
X595936Y771463*
X595936D02*
Y764900D01*
X557527Y754900D02*
Y755213D01*
X557527D02*
X557755Y755838D01*
X557755D02*
X557982Y756150D01*
X558436Y756463*
X558436D02*
X559345D01*
X559345D02*
X559800Y756150D01*
X560027Y755838*
X560027D02*
X560255Y755213D01*
X560255D02*
Y754588D01*
X560255D02*
X560027Y753963D01*
X560027D02*
X559573Y753025D01*
X557300Y749900*
X560482*
X471300Y740963D02*
Y734400D01*
Y740963D02*
X472891D01*
X472891D02*
X473573Y740650D01*
X474027Y740025*
X474255Y739400*
X474482Y738463*
X474482D02*
Y736900D01*
X474255Y735963*
X474255D02*
X474027Y735338D01*
X474027D02*
X473573Y734713D01*
X473573D02*
X472891Y734400D01*
X471300*
X478345Y740963D02*
X476527Y734400D01*
X478345Y740963D02*
X480164Y734400D01*
X477209Y736588D02*
X479482D01*
X483800Y740963D02*
Y734400D01*
X482209Y740963D02*
X485391D01*
X487436D02*
Y734400D01*
Y740963D02*
X490391D01*
X487436Y737838D02*
X489255D01*
X487436Y734400D02*
X490391D01*
X532527Y739400D02*
Y739713D01*
X532527D02*
X532755Y740338D01*
X532755D02*
X532982Y740650D01*
X533436Y740963*
X533436D02*
X534345D01*
X534345D02*
X534800Y740650D01*
X535027Y740338*
X535027D02*
X535255Y739713D01*
X535255D02*
Y739088D01*
X535255D02*
X535027Y738463D01*
X535027D02*
X534573Y737525D01*
X532300Y734400*
X535482*
X538664Y740963D02*
X537982Y740650D01*
X537755Y740025*
Y739400*
X537982Y738775*
X538436Y738463*
X538436D02*
X539345Y738150D01*
X540027Y737838*
X540027D02*
X540482Y737213D01*
X540482D02*
X540709Y736588D01*
X540709D02*
Y735650D01*
X540482Y735025*
X540255Y734713*
X540255D02*
X539573Y734400D01*
X538664*
X537982Y734713*
X537982D02*
X537755Y735025D01*
X537527Y735650*
Y736588*
X537527D02*
X537755Y737213D01*
X537755D02*
X538209Y737838D01*
X538209D02*
X538891Y738150D01*
X539800Y738463*
X539800D02*
X540255Y738775D01*
X540482Y739400*
Y740025*
X540255Y740650*
X539573Y740963*
X539573D02*
X538664D01*
X542755Y737213D02*
X546845D01*
X550255Y740963D02*
X549573Y740650D01*
X549118Y739713*
X549118D02*
X548891Y738150D01*
Y737213*
X548891D02*
X549118Y735650D01*
X549573Y734713*
X549573D02*
X550255Y734400D01*
X550709*
X551391Y734713*
X551391D02*
X551845Y735650D01*
X552073Y737213*
X552073D02*
Y738150D01*
X551845Y739713*
X551845D02*
X551391Y740650D01*
X550709Y740963*
X550709D02*
X550255D01*
X557073Y738775D02*
X556845Y737838D01*
X556845D02*
X556391Y737213D01*
X556391D02*
X555709Y736900D01*
X555482*
X554800Y737213*
X554800D02*
X554345Y737838D01*
X554345D02*
X554118Y738775D01*
Y739088*
X554118D02*
X554345Y740025D01*
X554800Y740650*
X555482Y740963*
X555482D02*
X555709D01*
X555709D02*
X556391Y740650D01*
X556845Y740025*
X557073Y738775*
Y737213*
X557073D02*
X556845Y735650D01*
X556391Y734713*
X556391D02*
X555709Y734400D01*
X555255*
X554573Y734713*
X554573D02*
X554345Y735338D01*
X559118Y737213D02*
X563209D01*
X565255Y739713D02*
X565709Y740025D01*
X566391Y740963*
X566391D02*
Y734400D01*
X568436Y739713D02*
X568891Y740025D01*
X569573Y740963*
X569573D02*
Y734400D01*
X606300Y786463D02*
Y779900D01*
Y786463D02*
X604255D01*
X604255D02*
X603573Y786150D01*
X603345Y785838*
X603345D02*
X603118Y785213D01*
X603118D02*
Y784275D01*
X603345Y783650*
X603573Y783338*
X603573D02*
X604255Y783025D01*
X606300*
X599255Y786463D02*
X601073Y779900D01*
X599255Y786463D02*
X597436Y779900D01*
X600391Y782088D02*
X598118D01*
X592209Y785525D02*
X592664Y786150D01*
X593345Y786463*
X593345D02*
X594255D01*
X594255D02*
X594936Y786150D01*
X595391Y785525*
Y784900*
X595164Y784275*
X594936Y783963*
X594936D02*
X594482Y783650D01*
X593118Y783025*
X592664Y782713*
X592664D02*
X592436Y782400D01*
X592209Y781775*
Y780838*
X592209D02*
X592664Y780213D01*
X592664D02*
X593345Y779900D01*
X594255*
X594936Y780213*
X594936D02*
X595391Y780838D01*
X588573Y786463D02*
Y779900D01*
X590164Y786463D02*
X586982D01*
X584936D02*
Y779900D01*
Y786463D02*
X581982D01*
X584936Y783338D02*
X583118D01*
X584936Y779900D02*
X581982D01*
X579936Y786463D02*
Y779900D01*
Y786463D02*
X578118Y779900D01*
X576300Y786463D02*
X578118Y779900D01*
X576300Y786463D02*
Y779900D01*
X572436Y786463D02*
X574255Y779900D01*
X572436Y786463D02*
X570618Y779900D01*
X573573Y782088D02*
X571300D01*
X565391Y785525D02*
X565845Y786150D01*
X566527Y786463*
X566527D02*
X567436D01*
X567436D02*
X568118Y786150D01*
X568573Y785525*
Y784900*
X568345Y784275*
X568118Y783963*
X568118D02*
X567664Y783650D01*
X566300Y783025*
X565845Y782713*
X565845D02*
X565618Y782400D01*
X565391Y781775*
Y780838*
X565391D02*
X565845Y780213D01*
X565845D02*
X566527Y779900D01*
X567436*
X568118Y780213*
X568118D02*
X568573Y780838D01*
X563345Y786463D02*
Y779900D01*
X560164Y786463D02*
X563345Y782088D01*
X562209Y783650D02*
X560164Y779900D01*
X552891Y786463D02*
Y779900D01*
Y786463D02*
X550845D01*
X550845D02*
X550164Y786150D01*
X549936Y785838*
X549936D02*
X549709Y785213D01*
X549709D02*
Y784588D01*
X549709D02*
X549936Y783963D01*
X549936D02*
X550164Y783650D01*
X550845Y783338*
X552891D02*
X550845D01*
X550845D02*
X550164Y783025D01*
X549936Y782713*
X549936D02*
X549709Y782088D01*
X549709D02*
Y781150D01*
X549936Y780525*
X550164Y780213*
X550164D02*
X550845Y779900D01*
X552891*
X546300Y786463D02*
X546755Y786150D01*
X547209Y785525*
X547436Y784900*
X547664Y783963*
X547664D02*
Y782400D01*
X547436Y781463*
X547436D02*
X547209Y780838D01*
X547209D02*
X546755Y780213D01*
X546755D02*
X546300Y779900D01*
X545391*
X544936Y780213*
X544936D02*
X544482Y780838D01*
X544482D02*
X544255Y781463D01*
X544255D02*
X544027Y782400D01*
Y783963*
X544027D02*
X544255Y784900D01*
X544482Y785525*
X544936Y786150*
X545391Y786463*
X545391D02*
X546300D01*
X540391D02*
Y779900D01*
X541982Y786463D02*
X538800D01*
X535164D02*
Y779900D01*
X536755Y786463D02*
X533573D01*
X530164D02*
X530618Y786150D01*
X531073Y785525*
X531300Y784900*
X531527Y783963*
X531527D02*
Y782400D01*
X531300Y781463*
X531300D02*
X531073Y780838D01*
X531073D02*
X530618Y780213D01*
X530618D02*
X530164Y779900D01*
X529255*
X528800Y780213*
X528800D02*
X528345Y780838D01*
X528345D02*
X528118Y781463D01*
X528118D02*
X527891Y782400D01*
Y783963*
X527891D02*
X528118Y784900D01*
X528345Y785525*
X528800Y786150*
X529255Y786463*
X529255D02*
X530164D01*
X525845D02*
Y779900D01*
Y786463D02*
X524027Y779900D01*
X522209Y786463D02*
X524027Y779900D01*
X522209Y786463D02*
Y779900D01*
X181739Y120400D02*
X140400Y484180D01*
Y700715*
X160085Y720400*
X635400*
X640400Y715400*
Y125400*
X635400Y120400*
X181739*
X462300Y809900D02*
X622300D01*
Y729900*
X462300*
Y809900*
Y789900D02*
X622300D01*
X462300Y774900D02*
X622300D01*
X462300Y759900D02*
X622300D01*
X512300Y789900D02*
Y729900D01*
X462300Y744900D02*
X622300D01*
G54D86*
X535203Y553884D02*
Y558963D01*
X540951*
Y553884*
X535203*
Y558963*
X535223Y553884D02*
Y558963D01*
X535243Y553884D02*
Y558963D01*
X535262Y553884D02*
Y558963D01*
X535282Y553884D02*
Y558963D01*
X535302Y553884D02*
Y558963D01*
X535321Y553884D02*
Y558963D01*
X535341Y553884D02*
Y558963D01*
X535361Y553884D02*
Y558963D01*
X535380Y553884D02*
Y558963D01*
X535400Y553884D02*
Y558963D01*
X535420Y553884D02*
Y558963D01*
X535439Y553884D02*
Y558963D01*
X535459Y553884D02*
Y558963D01*
X535479Y553884D02*
Y558963D01*
X535498Y553884D02*
Y558963D01*
X535518Y553884D02*
Y558963D01*
X535538Y553884D02*
Y558963D01*
X535557Y553884D02*
Y558963D01*
X535577Y553884D02*
Y558963D01*
X535597Y553884D02*
Y558963D01*
X535617Y553884D02*
Y558963D01*
X535636Y553884D02*
Y558963D01*
X535656Y553884D02*
Y558963D01*
X535676Y553884D02*
Y558963D01*
X535695Y553884D02*
Y558963D01*
X535715Y553884D02*
Y558963D01*
X535735Y553884D02*
Y558963D01*
X535754Y553884D02*
Y558963D01*
X535774Y553884D02*
Y558963D01*
X535794Y553884D02*
Y558963D01*
X535813Y553884D02*
Y558963D01*
X535833Y553884D02*
Y558963D01*
X535853Y553884D02*
Y558963D01*
X535872Y553884D02*
Y558963D01*
X535892Y553884D02*
Y558963D01*
X535912Y553884D02*
Y558963D01*
X535931Y553884D02*
Y558963D01*
X535951Y553884D02*
Y558963D01*
X535971Y553884D02*
Y558963D01*
X535991Y553884D02*
Y558963D01*
X536010Y553884D02*
Y558963D01*
X536030Y553884D02*
Y558963D01*
X536050Y553884D02*
Y558963D01*
X536069Y553884D02*
Y558963D01*
X536089Y553884D02*
Y558963D01*
X536109Y553884D02*
Y558963D01*
X536128Y553884D02*
Y558963D01*
X536148Y553884D02*
Y558963D01*
X536168Y553884D02*
Y558963D01*
X536187Y553884D02*
Y558963D01*
X536207Y553884D02*
Y558963D01*
X536227Y553884D02*
Y558963D01*
X536246Y553884D02*
Y558963D01*
X536266Y553884D02*
Y558963D01*
X536286Y553884D02*
Y558963D01*
X536306Y553884D02*
Y558963D01*
X536325Y553884D02*
Y558963D01*
X536345Y553884D02*
Y558963D01*
X536365Y553884D02*
Y558963D01*
X536384Y553884D02*
Y558963D01*
X536404Y553884D02*
Y558963D01*
X536424Y553884D02*
Y558963D01*
X536443Y553884D02*
Y558963D01*
X536463Y553884D02*
Y558963D01*
X536483Y553884D02*
Y558963D01*
X536502Y553884D02*
Y558963D01*
X536522Y553884D02*
Y558963D01*
X536542Y553884D02*
Y558963D01*
X536561Y553884D02*
Y558963D01*
X536581Y553884D02*
Y558963D01*
X536601Y553884D02*
Y558963D01*
X536620Y553884D02*
Y558963D01*
X536640Y553884D02*
Y558963D01*
X536660Y553884D02*
Y558963D01*
X536680Y553884D02*
Y558963D01*
X536699Y553884D02*
Y558963D01*
X536719Y553884D02*
Y558963D01*
X536739Y553884D02*
Y558963D01*
X536758Y553884D02*
Y558963D01*
X536778Y553884D02*
Y558963D01*
X536798Y553884D02*
Y558963D01*
X536817Y553884D02*
Y558963D01*
X536837Y553884D02*
Y558963D01*
X536857Y553884D02*
Y558963D01*
X536876Y553884D02*
Y558963D01*
X536896Y553884D02*
Y558963D01*
X536916Y553884D02*
Y558963D01*
X536935Y553884D02*
Y558963D01*
X536955Y553884D02*
Y558963D01*
X536975Y553884D02*
Y558963D01*
X536994Y553884D02*
Y558963D01*
X537014Y553884D02*
Y558963D01*
X537034Y553884D02*
Y558963D01*
X537054Y553884D02*
Y558963D01*
X537073Y553884D02*
Y558963D01*
X537093Y553884D02*
Y558963D01*
X537113Y553884D02*
Y558963D01*
X537132Y553884D02*
Y558963D01*
X537152Y553884D02*
Y558963D01*
X537172Y553884D02*
Y558963D01*
X537191Y553884D02*
Y558963D01*
X537211Y553884D02*
Y558963D01*
X537231Y553884D02*
Y558963D01*
X537250Y553884D02*
Y558963D01*
X537270Y553884D02*
Y558963D01*
X537290Y553884D02*
Y558963D01*
X537309Y553884D02*
Y558963D01*
X537329Y553884D02*
Y558963D01*
X537349Y553884D02*
Y558963D01*
X537369Y553884D02*
Y558963D01*
X537388Y553884D02*
Y558963D01*
X537408Y553884D02*
Y558963D01*
X537428Y553884D02*
Y558963D01*
X537447Y553884D02*
Y558963D01*
X537467Y553884D02*
Y558963D01*
X537487Y553884D02*
Y558963D01*
X537506Y553884D02*
Y558963D01*
X537526Y553884D02*
Y558963D01*
X537546Y553884D02*
Y558963D01*
X537565Y553884D02*
Y558963D01*
X537585Y553884D02*
Y558963D01*
X537605Y553884D02*
Y558963D01*
X537624Y553884D02*
Y558963D01*
X537644Y553884D02*
Y558963D01*
X537664Y553884D02*
Y558963D01*
X537683Y553884D02*
Y558963D01*
X537703Y553884D02*
Y558963D01*
X537723Y553884D02*
Y558963D01*
X537743Y553884D02*
Y558963D01*
X537762Y553884D02*
Y558963D01*
X537782Y553884D02*
Y558963D01*
X537802Y553884D02*
Y558963D01*
X537821Y553884D02*
Y558963D01*
X537841Y553884D02*
Y558963D01*
X537861Y553884D02*
Y558963D01*
X537880Y553884D02*
Y558963D01*
X537900Y553884D02*
Y558963D01*
X537920Y553884D02*
Y558963D01*
X537939Y553884D02*
Y558963D01*
X537959Y553884D02*
Y558963D01*
X537979Y553884D02*
Y558963D01*
X537998Y553884D02*
Y558963D01*
X538018Y553884D02*
Y558963D01*
X538038Y553884D02*
Y558963D01*
X538057Y553884D02*
Y558963D01*
X538077Y553884D02*
Y558963D01*
X538097Y553884D02*
Y558963D01*
X538117Y553884D02*
Y558963D01*
X538136Y553884D02*
Y558963D01*
X538156Y553884D02*
Y558963D01*
X538176Y553884D02*
Y558963D01*
X538195Y553884D02*
Y558963D01*
X538215Y553884D02*
Y558963D01*
X538235Y553884D02*
Y558963D01*
X538254Y553884D02*
Y558963D01*
X538274Y553884D02*
Y558963D01*
X538294Y553884D02*
Y558963D01*
X538313Y553884D02*
Y558963D01*
X538333Y553884D02*
Y558963D01*
X538353Y553884D02*
Y558963D01*
X538372Y553884D02*
Y558963D01*
X538392Y553884D02*
Y558963D01*
X538412Y553884D02*
Y558963D01*
X538431Y553884D02*
Y558963D01*
X538451Y553884D02*
Y558963D01*
X538471Y553884D02*
Y558963D01*
X538491Y553884D02*
Y558963D01*
X538510Y553884D02*
Y558963D01*
X538530Y553884D02*
Y558963D01*
X538550Y553884D02*
Y558963D01*
X538569Y553884D02*
Y558963D01*
X538589Y553884D02*
Y558963D01*
X538609Y553884D02*
Y558963D01*
X538628Y553884D02*
Y558963D01*
X538648Y553884D02*
Y558963D01*
X538668Y553884D02*
Y558963D01*
X538687Y553884D02*
Y558963D01*
X538707Y553884D02*
Y558963D01*
X538727Y553884D02*
Y558963D01*
X538746Y553884D02*
Y558963D01*
X538766Y553884D02*
Y558963D01*
X538786Y553884D02*
Y558963D01*
X538806Y553884D02*
Y558963D01*
X538825Y553884D02*
Y558963D01*
X538845Y553884D02*
Y558963D01*
X538865Y553884D02*
Y558963D01*
X538884Y553884D02*
Y558963D01*
X538904Y553884D02*
Y558963D01*
X538924Y553884D02*
Y558963D01*
X538943Y553884D02*
Y558963D01*
X538963Y553884D02*
Y558963D01*
X538983Y553884D02*
Y558963D01*
X539002Y553884D02*
Y558963D01*
X539022Y553884D02*
Y558963D01*
X539042Y553884D02*
Y558963D01*
X539061Y553884D02*
Y558963D01*
X539081Y553884D02*
Y558963D01*
X539101Y553884D02*
Y558963D01*
X539120Y553884D02*
Y558963D01*
X539140Y553884D02*
Y558963D01*
X539160Y553884D02*
Y558963D01*
X539180Y553884D02*
Y558963D01*
X539199Y553884D02*
Y558963D01*
X539219Y553884D02*
Y558963D01*
X539239Y553884D02*
Y558963D01*
X539258Y553884D02*
Y558963D01*
X539278Y553884D02*
Y558963D01*
X539298Y553884D02*
Y558963D01*
X539317Y553884D02*
Y558963D01*
X539337Y553884D02*
Y558963D01*
X539357Y553884D02*
Y558963D01*
X539376Y553884D02*
Y558963D01*
X539396Y553884D02*
Y558963D01*
X539416Y553884D02*
Y558963D01*
X539435Y553884D02*
Y558963D01*
X539455Y553884D02*
Y558963D01*
X539475Y553884D02*
Y558963D01*
X539494Y553884D02*
Y558963D01*
X539514Y553884D02*
Y558963D01*
X539534Y553884D02*
Y558963D01*
X539554Y553884D02*
Y558963D01*
X539573Y553884D02*
Y558963D01*
X539593Y553884D02*
Y558963D01*
X539613Y553884D02*
Y558963D01*
X539632Y553884D02*
Y558963D01*
X539652Y553884D02*
Y558963D01*
X539672Y553884D02*
Y558963D01*
X539691Y553884D02*
Y558963D01*
X539711Y553884D02*
Y558963D01*
X539731Y553884D02*
Y558963D01*
X539750Y553884D02*
Y558963D01*
X539770Y553884D02*
Y558963D01*
X539790Y553884D02*
Y558963D01*
X539809Y553884D02*
Y558963D01*
X539829Y553884D02*
Y558963D01*
X539849Y553884D02*
Y558963D01*
X539869Y553884D02*
Y558963D01*
X539888Y553884D02*
Y558963D01*
X539908Y553884D02*
Y558963D01*
X539928Y553884D02*
Y558963D01*
X539947Y553884D02*
Y558963D01*
X539967Y553884D02*
Y558963D01*
X539987Y553884D02*
Y558963D01*
X540006Y553884D02*
Y558963D01*
X540026Y553884D02*
Y558963D01*
X540046Y553884D02*
Y558963D01*
X540065Y553884D02*
Y558963D01*
X540085Y553884D02*
Y558963D01*
X540105Y553884D02*
Y558963D01*
X540124Y553884D02*
Y558963D01*
X540144Y553884D02*
Y558963D01*
X540164Y553884D02*
Y558963D01*
X540183Y553884D02*
Y558963D01*
X540203Y553884D02*
Y558963D01*
X540223Y553884D02*
Y558963D01*
X540243Y553884D02*
Y558963D01*
X540262Y553884D02*
Y558963D01*
X540282Y553884D02*
Y558963D01*
X540302Y553884D02*
Y558963D01*
X540321Y553884D02*
Y558963D01*
X540341Y553884D02*
Y558963D01*
X540361Y553884D02*
Y558963D01*
X540380Y553884D02*
Y558963D01*
X540400Y553884D02*
Y558963D01*
X540420Y553884D02*
Y558963D01*
X540439Y553884D02*
Y558963D01*
X540459Y553884D02*
Y558963D01*
X540479Y553884D02*
Y558963D01*
X540498Y553884D02*
Y558963D01*
X540518Y553884D02*
Y558963D01*
X540538Y553884D02*
Y558963D01*
X540557Y553884D02*
Y558963D01*
X540577Y553884D02*
Y558963D01*
X540597Y553884D02*
Y558963D01*
X540617Y553884D02*
Y558963D01*
X540636Y553884D02*
Y558963D01*
X540656Y553884D02*
Y558963D01*
X540676Y553884D02*
Y558963D01*
X540695Y553884D02*
Y558963D01*
X540715Y553884D02*
Y558963D01*
X540735Y553884D02*
Y558963D01*
X540754Y553884D02*
Y558963D01*
X540774Y553884D02*
Y558963D01*
X540794Y553884D02*
Y558963D01*
X540813Y553884D02*
Y558963D01*
X540833Y553884D02*
Y558963D01*
X540853Y553884D02*
Y558963D01*
X540872Y553884D02*
Y558963D01*
X540892Y553884D02*
Y558963D01*
X540912Y553884D02*
Y558963D01*
X540931Y553884D02*
Y558963D01*
X535203Y545341D02*
Y550420D01*
X540951*
Y545341*
X535203*
Y550420*
X535223Y545341D02*
Y550420D01*
X535243Y545341D02*
Y550420D01*
X535262Y545341D02*
Y550420D01*
X535282Y545341D02*
Y550420D01*
X535302Y545341D02*
Y550420D01*
X535321Y545341D02*
Y550420D01*
X535341Y545341D02*
Y550420D01*
X535361Y545341D02*
Y550420D01*
X535380Y545341D02*
Y550420D01*
X535400Y545341D02*
Y550420D01*
X535420Y545341D02*
Y550420D01*
X535439Y545341D02*
Y550420D01*
X535459Y545341D02*
Y550420D01*
X535479Y545341D02*
Y550420D01*
X535498Y545341D02*
Y550420D01*
X535518Y545341D02*
Y550420D01*
X535538Y545341D02*
Y550420D01*
X535557Y545341D02*
Y550420D01*
X535577Y545341D02*
Y550420D01*
X535597Y545341D02*
Y550420D01*
X535617Y545341D02*
Y550420D01*
X535636Y545341D02*
Y550420D01*
X535656Y545341D02*
Y550420D01*
X535676Y545341D02*
Y550420D01*
X535695Y545341D02*
Y550420D01*
X535715Y545341D02*
Y550420D01*
X535735Y545341D02*
Y550420D01*
X535754Y545341D02*
Y550420D01*
X535774Y545341D02*
Y550420D01*
X535794Y545341D02*
Y550420D01*
X535813Y545341D02*
Y550420D01*
X535833Y545341D02*
Y550420D01*
X535853Y545341D02*
Y550420D01*
X535872Y545341D02*
Y550420D01*
X535892Y545341D02*
Y550420D01*
X535912Y545341D02*
Y550420D01*
X535931Y545341D02*
Y550420D01*
X535951Y545341D02*
Y550420D01*
X535971Y545341D02*
Y550420D01*
X535991Y545341D02*
Y550420D01*
X536010Y545341D02*
Y550420D01*
X536030Y545341D02*
Y550420D01*
X536050Y545341D02*
Y550420D01*
X536069Y545341D02*
Y550420D01*
X536089Y545341D02*
Y550420D01*
X536109Y545341D02*
Y550420D01*
X536128Y545341D02*
Y550420D01*
X536148Y545341D02*
Y550420D01*
X536168Y545341D02*
Y550420D01*
X536187Y545341D02*
Y550420D01*
X536207Y545341D02*
Y550420D01*
X536227Y545341D02*
Y550420D01*
X536246Y545341D02*
Y550420D01*
X536266Y545341D02*
Y550420D01*
X536286Y545341D02*
Y550420D01*
X536306Y545341D02*
Y550420D01*
X536325Y545341D02*
Y550420D01*
X536345Y545341D02*
Y550420D01*
X536365Y545341D02*
Y550420D01*
X536384Y545341D02*
Y550420D01*
X536404Y545341D02*
Y550420D01*
X536424Y545341D02*
Y550420D01*
X536443Y545341D02*
Y550420D01*
X536463Y545341D02*
Y550420D01*
X536483Y545341D02*
Y550420D01*
X536502Y545341D02*
Y550420D01*
X536522Y545341D02*
Y550420D01*
X536542Y545341D02*
Y550420D01*
X536561Y545341D02*
Y550420D01*
X536581Y545341D02*
Y550420D01*
X536601Y545341D02*
Y550420D01*
X536620Y545341D02*
Y550420D01*
X536640Y545341D02*
Y550420D01*
X536660Y545341D02*
Y550420D01*
X536680Y545341D02*
Y550420D01*
X536699Y545341D02*
Y550420D01*
X536719Y545341D02*
Y550420D01*
X536739Y545341D02*
Y550420D01*
X536758Y545341D02*
Y550420D01*
X536778Y545341D02*
Y550420D01*
X536798Y545341D02*
Y550420D01*
X536817Y545341D02*
Y550420D01*
X536837Y545341D02*
Y550420D01*
X536857Y545341D02*
Y550420D01*
X536876Y545341D02*
Y550420D01*
X536896Y545341D02*
Y550420D01*
X536916Y545341D02*
Y550420D01*
X536935Y545341D02*
Y550420D01*
X536955Y545341D02*
Y550420D01*
X536975Y545341D02*
Y550420D01*
X536994Y545341D02*
Y550420D01*
X537014Y545341D02*
Y550420D01*
X537034Y545341D02*
Y550420D01*
X537054Y545341D02*
Y550420D01*
X537073Y545341D02*
Y550420D01*
X537093Y545341D02*
Y550420D01*
X537113Y545341D02*
Y550420D01*
X537132Y545341D02*
Y550420D01*
X537152Y545341D02*
Y550420D01*
X537172Y545341D02*
Y550420D01*
X537191Y545341D02*
Y550420D01*
X537211Y545341D02*
Y550420D01*
X537231Y545341D02*
Y550420D01*
X537250Y545341D02*
Y550420D01*
X537270Y545341D02*
Y550420D01*
X537290Y545341D02*
Y550420D01*
X537309Y545341D02*
Y550420D01*
X537329Y545341D02*
Y550420D01*
X537349Y545341D02*
Y550420D01*
X537369Y545341D02*
Y550420D01*
X537388Y545341D02*
Y550420D01*
X537408Y545341D02*
Y550420D01*
X537428Y545341D02*
Y550420D01*
X537447Y545341D02*
Y550420D01*
X537467Y545341D02*
Y550420D01*
X537487Y545341D02*
Y550420D01*
X537506Y545341D02*
Y550420D01*
X537526Y545341D02*
Y550420D01*
X537546Y545341D02*
Y550420D01*
X537565Y545341D02*
Y550420D01*
X537585Y545341D02*
Y550420D01*
X537605Y545341D02*
Y550420D01*
X537624Y545341D02*
Y550420D01*
X537644Y545341D02*
Y550420D01*
X537664Y545341D02*
Y550420D01*
X537683Y545341D02*
Y550420D01*
X537703Y545341D02*
Y550420D01*
X537723Y545341D02*
Y550420D01*
X537743Y545341D02*
Y550420D01*
X537762Y545341D02*
Y550420D01*
X537782Y545341D02*
Y550420D01*
X537802Y545341D02*
Y550420D01*
X537821Y545341D02*
Y550420D01*
X537841Y545341D02*
Y550420D01*
X537861Y545341D02*
Y550420D01*
X537880Y545341D02*
Y550420D01*
X537900Y545341D02*
Y550420D01*
X537920Y545341D02*
Y550420D01*
X537939Y545341D02*
Y550420D01*
X537959Y545341D02*
Y550420D01*
X537979Y545341D02*
Y550420D01*
X537998Y545341D02*
Y550420D01*
X538018Y545341D02*
Y550420D01*
X538038Y545341D02*
Y550420D01*
X538057Y545341D02*
Y550420D01*
X538077Y545341D02*
Y550420D01*
X538097Y545341D02*
Y550420D01*
X538117Y545341D02*
Y550420D01*
X538136Y545341D02*
Y550420D01*
X538156Y545341D02*
Y550420D01*
X538176Y545341D02*
Y550420D01*
X538195Y545341D02*
Y550420D01*
X538215Y545341D02*
Y550420D01*
X538235Y545341D02*
Y550420D01*
X538254Y545341D02*
Y550420D01*
X538274Y545341D02*
Y550420D01*
X538294Y545341D02*
Y550420D01*
X538313Y545341D02*
Y550420D01*
X538333Y545341D02*
Y550420D01*
X538353Y545341D02*
Y550420D01*
X538372Y545341D02*
Y550420D01*
X538392Y545341D02*
Y550420D01*
X538412Y545341D02*
Y550420D01*
X538431Y545341D02*
Y550420D01*
X538451Y545341D02*
Y550420D01*
X538471Y545341D02*
Y550420D01*
X538491Y545341D02*
Y550420D01*
X538510Y545341D02*
Y550420D01*
X538530Y545341D02*
Y550420D01*
X538550Y545341D02*
Y550420D01*
X538569Y545341D02*
Y550420D01*
X538589Y545341D02*
Y550420D01*
X538609Y545341D02*
Y550420D01*
X538628Y545341D02*
Y550420D01*
X538648Y545341D02*
Y550420D01*
X538668Y545341D02*
Y550420D01*
X538687Y545341D02*
Y550420D01*
X538707Y545341D02*
Y550420D01*
X538727Y545341D02*
Y550420D01*
X538746Y545341D02*
Y550420D01*
X538766Y545341D02*
Y550420D01*
X538786Y545341D02*
Y550420D01*
X538806Y545341D02*
Y550420D01*
X538825Y545341D02*
Y550420D01*
X538845Y545341D02*
Y550420D01*
X538865Y545341D02*
Y550420D01*
X538884Y545341D02*
Y550420D01*
X538904Y545341D02*
Y550420D01*
X538924Y545341D02*
Y550420D01*
X538943Y545341D02*
Y550420D01*
X538963Y545341D02*
Y550420D01*
X538983Y545341D02*
Y550420D01*
X539002Y545341D02*
Y550420D01*
X539022Y545341D02*
Y550420D01*
X539042Y545341D02*
Y550420D01*
X539061Y545341D02*
Y550420D01*
X539081Y545341D02*
Y550420D01*
X539101Y545341D02*
Y550420D01*
X539120Y545341D02*
Y550420D01*
X539140Y545341D02*
Y550420D01*
X539160Y545341D02*
Y550420D01*
X539180Y545341D02*
Y550420D01*
X539199Y545341D02*
Y550420D01*
X539219Y545341D02*
Y550420D01*
X539239Y545341D02*
Y550420D01*
X539258Y545341D02*
Y550420D01*
X539278Y545341D02*
Y550420D01*
X539298Y545341D02*
Y550420D01*
X539317Y545341D02*
Y550420D01*
X539337Y545341D02*
Y550420D01*
X539357Y545341D02*
Y550420D01*
X539376Y545341D02*
Y550420D01*
X539396Y545341D02*
Y550420D01*
X539416Y545341D02*
Y550420D01*
X539435Y545341D02*
Y550420D01*
X539455Y545341D02*
Y550420D01*
X539475Y545341D02*
Y550420D01*
X539494Y545341D02*
Y550420D01*
X539514Y545341D02*
Y550420D01*
X539534Y545341D02*
Y550420D01*
X539554Y545341D02*
Y550420D01*
X539573Y545341D02*
Y550420D01*
X539593Y545341D02*
Y550420D01*
X539613Y545341D02*
Y550420D01*
X539632Y545341D02*
Y550420D01*
X539652Y545341D02*
Y550420D01*
X539672Y545341D02*
Y550420D01*
X539691Y545341D02*
Y550420D01*
X539711Y545341D02*
Y550420D01*
X539731Y545341D02*
Y550420D01*
X539750Y545341D02*
Y550420D01*
X539770Y545341D02*
Y550420D01*
X539790Y545341D02*
Y550420D01*
X539809Y545341D02*
Y550420D01*
X539829Y545341D02*
Y550420D01*
X539849Y545341D02*
Y550420D01*
X539869Y545341D02*
Y550420D01*
X539888Y545341D02*
Y550420D01*
X539908Y545341D02*
Y550420D01*
X539928Y545341D02*
Y550420D01*
X539947Y545341D02*
Y550420D01*
X539967Y545341D02*
Y550420D01*
X539987Y545341D02*
Y550420D01*
X540006Y545341D02*
Y550420D01*
X540026Y545341D02*
Y550420D01*
X540046Y545341D02*
Y550420D01*
X540065Y545341D02*
Y550420D01*
X540085Y545341D02*
Y550420D01*
X540105Y545341D02*
Y550420D01*
X540124Y545341D02*
Y550420D01*
X540144Y545341D02*
Y550420D01*
X540164Y545341D02*
Y550420D01*
X540183Y545341D02*
Y550420D01*
X540203Y545341D02*
Y550420D01*
X540223Y545341D02*
Y550420D01*
X540243Y545341D02*
Y550420D01*
X540262Y545341D02*
Y550420D01*
X540282Y545341D02*
Y550420D01*
X540302Y545341D02*
Y550420D01*
X540321Y545341D02*
Y550420D01*
X540341Y545341D02*
Y550420D01*
X540361Y545341D02*
Y550420D01*
X540380Y545341D02*
Y550420D01*
X540400Y545341D02*
Y550420D01*
X540420Y545341D02*
Y550420D01*
X540439Y545341D02*
Y550420D01*
X540459Y545341D02*
Y550420D01*
X540479Y545341D02*
Y550420D01*
X540498Y545341D02*
Y550420D01*
X540518Y545341D02*
Y550420D01*
X540538Y545341D02*
Y550420D01*
X540557Y545341D02*
Y550420D01*
X540577Y545341D02*
Y550420D01*
X540597Y545341D02*
Y550420D01*
X540617Y545341D02*
Y550420D01*
X540636Y545341D02*
Y550420D01*
X540656Y545341D02*
Y550420D01*
X540676Y545341D02*
Y550420D01*
X540695Y545341D02*
Y550420D01*
X540715Y545341D02*
Y550420D01*
X540735Y545341D02*
Y550420D01*
X540754Y545341D02*
Y550420D01*
X540774Y545341D02*
Y550420D01*
X540794Y545341D02*
Y550420D01*
X540813Y545341D02*
Y550420D01*
X540833Y545341D02*
Y550420D01*
X540853Y545341D02*
Y550420D01*
X540872Y545341D02*
Y550420D01*
X540892Y545341D02*
Y550420D01*
X540912Y545341D02*
Y550420D01*
X540931Y545341D02*
Y550420D01*
X535203Y536798D02*
Y541876D01*
X540951*
Y536798*
X535203*
Y541876*
X535223Y536798D02*
Y541876D01*
X535243Y536798D02*
Y541876D01*
X535262Y536798D02*
Y541876D01*
X535282Y536798D02*
Y541876D01*
X535302Y536798D02*
Y541876D01*
X535321Y536798D02*
Y541876D01*
X535341Y536798D02*
Y541876D01*
X535361Y536798D02*
Y541876D01*
X535380Y536798D02*
Y541876D01*
X535400Y536798D02*
Y541876D01*
X535420Y536798D02*
Y541876D01*
X535439Y536798D02*
Y541876D01*
X535459Y536798D02*
Y541876D01*
X535479Y536798D02*
Y541876D01*
X535498Y536798D02*
Y541876D01*
X535518Y536798D02*
Y541876D01*
X535538Y536798D02*
Y541876D01*
X535557Y536798D02*
Y541876D01*
X535577Y536798D02*
Y541876D01*
X535597Y536798D02*
Y541876D01*
X535617Y536798D02*
Y541876D01*
X535636Y536798D02*
Y541876D01*
X535656Y536798D02*
Y541876D01*
X535676Y536798D02*
Y541876D01*
X535695Y536798D02*
Y541876D01*
X535715Y536798D02*
Y541876D01*
X535735Y536798D02*
Y541876D01*
X535754Y536798D02*
Y541876D01*
X535774Y536798D02*
Y541876D01*
X535794Y536798D02*
Y541876D01*
X535813Y536798D02*
Y541876D01*
X535833Y536798D02*
Y541876D01*
X535853Y536798D02*
Y541876D01*
X535872Y536798D02*
Y541876D01*
X535892Y536798D02*
Y541876D01*
X535912Y536798D02*
Y541876D01*
X535931Y536798D02*
Y541876D01*
X535951Y536798D02*
Y541876D01*
X535971Y536798D02*
Y541876D01*
X535991Y536798D02*
Y541876D01*
X536010Y536798D02*
Y541876D01*
X536030Y536798D02*
Y541876D01*
X536050Y536798D02*
Y541876D01*
X536069Y536798D02*
Y541876D01*
X536089Y536798D02*
Y541876D01*
X536109Y536798D02*
Y541876D01*
X536128Y536798D02*
Y541876D01*
X536148Y536798D02*
Y541876D01*
X536168Y536798D02*
Y541876D01*
X536187Y536798D02*
Y541876D01*
X536207Y536798D02*
Y541876D01*
X536227Y536798D02*
Y541876D01*
X536246Y536798D02*
Y541876D01*
X536266Y536798D02*
Y541876D01*
X536286Y536798D02*
Y541876D01*
X536306Y536798D02*
Y541876D01*
X536325Y536798D02*
Y541876D01*
X536345Y536798D02*
Y541876D01*
X536365Y536798D02*
Y541876D01*
X536384Y536798D02*
Y541876D01*
X536404Y536798D02*
Y541876D01*
X536424Y536798D02*
Y541876D01*
X536443Y536798D02*
Y541876D01*
X536463Y536798D02*
Y541876D01*
X536483Y536798D02*
Y541876D01*
X536502Y536798D02*
Y541876D01*
X536522Y536798D02*
Y541876D01*
X536542Y536798D02*
Y541876D01*
X536561Y536798D02*
Y541876D01*
X536581Y536798D02*
Y541876D01*
X536601Y536798D02*
Y541876D01*
X536620Y536798D02*
Y541876D01*
X536640Y536798D02*
Y541876D01*
X536660Y536798D02*
Y541876D01*
X536680Y536798D02*
Y541876D01*
X536699Y536798D02*
Y541876D01*
X536719Y536798D02*
Y541876D01*
X536739Y536798D02*
Y541876D01*
X536758Y536798D02*
Y541876D01*
X536778Y536798D02*
Y541876D01*
X536798Y536798D02*
Y541876D01*
X536817Y536798D02*
Y541876D01*
X536837Y536798D02*
Y541876D01*
X536857Y536798D02*
Y541876D01*
X536876Y536798D02*
Y541876D01*
X536896Y536798D02*
Y541876D01*
X536916Y536798D02*
Y541876D01*
X536935Y536798D02*
Y541876D01*
X536955Y536798D02*
Y541876D01*
X536975Y536798D02*
Y541876D01*
X536994Y536798D02*
Y541876D01*
X537014Y536798D02*
Y541876D01*
X537034Y536798D02*
Y541876D01*
X537054Y536798D02*
Y541876D01*
X537073Y536798D02*
Y541876D01*
X537093Y536798D02*
Y541876D01*
X537113Y536798D02*
Y541876D01*
X537132Y536798D02*
Y541876D01*
X537152Y536798D02*
Y541876D01*
X537172Y536798D02*
Y541876D01*
X537191Y536798D02*
Y541876D01*
X537211Y536798D02*
Y541876D01*
X537231Y536798D02*
Y541876D01*
X537250Y536798D02*
Y541876D01*
X537270Y536798D02*
Y541876D01*
X537290Y536798D02*
Y541876D01*
X537309Y536798D02*
Y541876D01*
X537329Y536798D02*
Y541876D01*
X537349Y536798D02*
Y541876D01*
X537369Y536798D02*
Y541876D01*
X537388Y536798D02*
Y541876D01*
X537408Y536798D02*
Y541876D01*
X537428Y536798D02*
Y541876D01*
X537447Y536798D02*
Y541876D01*
X537467Y536798D02*
Y541876D01*
X537487Y536798D02*
Y541876D01*
X537506Y536798D02*
Y541876D01*
X537526Y536798D02*
Y541876D01*
X537546Y536798D02*
Y541876D01*
X537565Y536798D02*
Y541876D01*
X537585Y536798D02*
Y541876D01*
X537605Y536798D02*
Y541876D01*
X537624Y536798D02*
Y541876D01*
X537644Y536798D02*
Y541876D01*
X537664Y536798D02*
Y541876D01*
X537683Y536798D02*
Y541876D01*
X537703Y536798D02*
Y541876D01*
X537723Y536798D02*
Y541876D01*
X537743Y536798D02*
Y541876D01*
X537762Y536798D02*
Y541876D01*
X537782Y536798D02*
Y541876D01*
X537802Y536798D02*
Y541876D01*
X537821Y536798D02*
Y541876D01*
X537841Y536798D02*
Y541876D01*
X537861Y536798D02*
Y541876D01*
X537880Y536798D02*
Y541876D01*
X537900Y536798D02*
Y541876D01*
X537920Y536798D02*
Y541876D01*
X537939Y536798D02*
Y541876D01*
X537959Y536798D02*
Y541876D01*
X537979Y536798D02*
Y541876D01*
X537998Y536798D02*
Y541876D01*
X538018Y536798D02*
Y541876D01*
X538038Y536798D02*
Y541876D01*
X538057Y536798D02*
Y541876D01*
X538077Y536798D02*
Y541876D01*
X538097Y536798D02*
Y541876D01*
X538117Y536798D02*
Y541876D01*
X538136Y536798D02*
Y541876D01*
X538156Y536798D02*
Y541876D01*
X538176Y536798D02*
Y541876D01*
X538195Y536798D02*
Y541876D01*
X538215Y536798D02*
Y541876D01*
X538235Y536798D02*
Y541876D01*
X538254Y536798D02*
Y541876D01*
X538274Y536798D02*
Y541876D01*
X538294Y536798D02*
Y541876D01*
X538313Y536798D02*
Y541876D01*
X538333Y536798D02*
Y541876D01*
X538353Y536798D02*
Y541876D01*
X538372Y536798D02*
Y541876D01*
X538392Y536798D02*
Y541876D01*
X538412Y536798D02*
Y541876D01*
X538431Y536798D02*
Y541876D01*
X538451Y536798D02*
Y541876D01*
X538471Y536798D02*
Y541876D01*
X538491Y536798D02*
Y541876D01*
X538510Y536798D02*
Y541876D01*
X538530Y536798D02*
Y541876D01*
X538550Y536798D02*
Y541876D01*
X538569Y536798D02*
Y541876D01*
X538589Y536798D02*
Y541876D01*
X538609Y536798D02*
Y541876D01*
X538628Y536798D02*
Y541876D01*
X538648Y536798D02*
Y541876D01*
X538668Y536798D02*
Y541876D01*
X538687Y536798D02*
Y541876D01*
X538707Y536798D02*
Y541876D01*
X538727Y536798D02*
Y541876D01*
X538746Y536798D02*
Y541876D01*
X538766Y536798D02*
Y541876D01*
X538786Y536798D02*
Y541876D01*
X538806Y536798D02*
Y541876D01*
X538825Y536798D02*
Y541876D01*
X538845Y536798D02*
Y541876D01*
X538865Y536798D02*
Y541876D01*
X538884Y536798D02*
Y541876D01*
X538904Y536798D02*
Y541876D01*
X538924Y536798D02*
Y541876D01*
X538943Y536798D02*
Y541876D01*
X538963Y536798D02*
Y541876D01*
X538983Y536798D02*
Y541876D01*
X539002Y536798D02*
Y541876D01*
X539022Y536798D02*
Y541876D01*
X539042Y536798D02*
Y541876D01*
X539061Y536798D02*
Y541876D01*
X539081Y536798D02*
Y541876D01*
X539101Y536798D02*
Y541876D01*
X539120Y536798D02*
Y541876D01*
X539140Y536798D02*
Y541876D01*
X539160Y536798D02*
Y541876D01*
X539180Y536798D02*
Y541876D01*
X539199Y536798D02*
Y541876D01*
X539219Y536798D02*
Y541876D01*
X539239Y536798D02*
Y541876D01*
X539258Y536798D02*
Y541876D01*
X539278Y536798D02*
Y541876D01*
X539298Y536798D02*
Y541876D01*
X539317Y536798D02*
Y541876D01*
X539337Y536798D02*
Y541876D01*
X539357Y536798D02*
Y541876D01*
X539376Y536798D02*
Y541876D01*
X539396Y536798D02*
Y541876D01*
X539416Y536798D02*
Y541876D01*
X539435Y536798D02*
Y541876D01*
X539455Y536798D02*
Y541876D01*
X539475Y536798D02*
Y541876D01*
X539494Y536798D02*
Y541876D01*
X539514Y536798D02*
Y541876D01*
X539534Y536798D02*
Y541876D01*
X539554Y536798D02*
Y541876D01*
X539573Y536798D02*
Y541876D01*
X539593Y536798D02*
Y541876D01*
X539613Y536798D02*
Y541876D01*
X539632Y536798D02*
Y541876D01*
X539652Y536798D02*
Y541876D01*
X539672Y536798D02*
Y541876D01*
X539691Y536798D02*
Y541876D01*
X539711Y536798D02*
Y541876D01*
X539731Y536798D02*
Y541876D01*
X539750Y536798D02*
Y541876D01*
X539770Y536798D02*
Y541876D01*
X539790Y536798D02*
Y541876D01*
X539809Y536798D02*
Y541876D01*
X539829Y536798D02*
Y541876D01*
X539849Y536798D02*
Y541876D01*
X539869Y536798D02*
Y541876D01*
X539888Y536798D02*
Y541876D01*
X539908Y536798D02*
Y541876D01*
X539928Y536798D02*
Y541876D01*
X539947Y536798D02*
Y541876D01*
X539967Y536798D02*
Y541876D01*
X539987Y536798D02*
Y541876D01*
X540006Y536798D02*
Y541876D01*
X540026Y536798D02*
Y541876D01*
X540046Y536798D02*
Y541876D01*
X540065Y536798D02*
Y541876D01*
X540085Y536798D02*
Y541876D01*
X540105Y536798D02*
Y541876D01*
X540124Y536798D02*
Y541876D01*
X540144Y536798D02*
Y541876D01*
X540164Y536798D02*
Y541876D01*
X540183Y536798D02*
Y541876D01*
X540203Y536798D02*
Y541876D01*
X540223Y536798D02*
Y541876D01*
X540243Y536798D02*
Y541876D01*
X540262Y536798D02*
Y541876D01*
X540282Y536798D02*
Y541876D01*
X540302Y536798D02*
Y541876D01*
X540321Y536798D02*
Y541876D01*
X540341Y536798D02*
Y541876D01*
X540361Y536798D02*
Y541876D01*
X540380Y536798D02*
Y541876D01*
X540400Y536798D02*
Y541876D01*
X540420Y536798D02*
Y541876D01*
X540439Y536798D02*
Y541876D01*
X540459Y536798D02*
Y541876D01*
X540479Y536798D02*
Y541876D01*
X540498Y536798D02*
Y541876D01*
X540518Y536798D02*
Y541876D01*
X540538Y536798D02*
Y541876D01*
X540557Y536798D02*
Y541876D01*
X540577Y536798D02*
Y541876D01*
X540597Y536798D02*
Y541876D01*
X540617Y536798D02*
Y541876D01*
X540636Y536798D02*
Y541876D01*
X540656Y536798D02*
Y541876D01*
X540676Y536798D02*
Y541876D01*
X540695Y536798D02*
Y541876D01*
X540715Y536798D02*
Y541876D01*
X540735Y536798D02*
Y541876D01*
X540754Y536798D02*
Y541876D01*
X540774Y536798D02*
Y541876D01*
X540794Y536798D02*
Y541876D01*
X540813Y536798D02*
Y541876D01*
X540833Y536798D02*
Y541876D01*
X540853Y536798D02*
Y541876D01*
X540872Y536798D02*
Y541876D01*
X540892Y536798D02*
Y541876D01*
X540912Y536798D02*
Y541876D01*
X540931Y536798D02*
Y541876D01*
X544849Y553884D02*
Y558963D01*
X550597*
Y553884*
X544849*
Y558963*
X544869Y553884D02*
Y558963D01*
X544888Y553884D02*
Y558963D01*
X544908Y553884D02*
Y558963D01*
X544928Y553884D02*
Y558963D01*
X544947Y553884D02*
Y558963D01*
X544967Y553884D02*
Y558963D01*
X544987Y553884D02*
Y558963D01*
X545006Y553884D02*
Y558963D01*
X545026Y553884D02*
Y558963D01*
X545046Y553884D02*
Y558963D01*
X545065Y553884D02*
Y558963D01*
X545085Y553884D02*
Y558963D01*
X545105Y553884D02*
Y558963D01*
X545124Y553884D02*
Y558963D01*
X545144Y553884D02*
Y558963D01*
X545164Y553884D02*
Y558963D01*
X545183Y553884D02*
Y558963D01*
X545203Y553884D02*
Y558963D01*
X545223Y553884D02*
Y558963D01*
X545243Y553884D02*
Y558963D01*
X545262Y553884D02*
Y558963D01*
X545282Y553884D02*
Y558963D01*
X545302Y553884D02*
Y558963D01*
X545321Y553884D02*
Y558963D01*
X545341Y553884D02*
Y558963D01*
X545361Y553884D02*
Y558963D01*
X545380Y553884D02*
Y558963D01*
X545400Y553884D02*
Y558963D01*
X545420Y553884D02*
Y558963D01*
X545439Y553884D02*
Y558963D01*
X545459Y553884D02*
Y558963D01*
X545479Y553884D02*
Y558963D01*
X545498Y553884D02*
Y558963D01*
X545518Y553884D02*
Y558963D01*
X545538Y553884D02*
Y558963D01*
X545557Y553884D02*
Y558963D01*
X545577Y553884D02*
Y558963D01*
X545597Y553884D02*
Y558963D01*
X545617Y553884D02*
Y558963D01*
X545636Y553884D02*
Y558963D01*
X545656Y553884D02*
Y558963D01*
X545676Y553884D02*
Y558963D01*
X545695Y553884D02*
Y558963D01*
X545715Y553884D02*
Y558963D01*
X545735Y553884D02*
Y558963D01*
X545754Y553884D02*
Y558963D01*
X545774Y553884D02*
Y558963D01*
X545794Y553884D02*
Y558963D01*
X545813Y553884D02*
Y558963D01*
X545833Y553884D02*
Y558963D01*
X545853Y553884D02*
Y558963D01*
X545872Y553884D02*
Y558963D01*
X545892Y553884D02*
Y558963D01*
X545912Y553884D02*
Y558963D01*
X545931Y553884D02*
Y558963D01*
X545951Y553884D02*
Y558963D01*
X545971Y553884D02*
Y558963D01*
X545991Y553884D02*
Y558963D01*
X546010Y553884D02*
Y558963D01*
X546030Y553884D02*
Y558963D01*
X546050Y553884D02*
Y558963D01*
X546069Y553884D02*
Y558963D01*
X546089Y553884D02*
Y558963D01*
X546109Y553884D02*
Y558963D01*
X546128Y553884D02*
Y558963D01*
X546148Y553884D02*
Y558963D01*
X546168Y553884D02*
Y558963D01*
X546187Y553884D02*
Y558963D01*
X546207Y553884D02*
Y558963D01*
X546227Y553884D02*
Y558963D01*
X546246Y553884D02*
Y558963D01*
X546266Y553884D02*
Y558963D01*
X546286Y553884D02*
Y558963D01*
X546306Y553884D02*
Y558963D01*
X546325Y553884D02*
Y558963D01*
X546345Y553884D02*
Y558963D01*
X546365Y553884D02*
Y558963D01*
X546384Y553884D02*
Y558963D01*
X546404Y553884D02*
Y558963D01*
X546424Y553884D02*
Y558963D01*
X546443Y553884D02*
Y558963D01*
X546463Y553884D02*
Y558963D01*
X546483Y553884D02*
Y558963D01*
X546502Y553884D02*
Y558963D01*
X546522Y553884D02*
Y558963D01*
X546542Y553884D02*
Y558963D01*
X546561Y553884D02*
Y558963D01*
X546581Y553884D02*
Y558963D01*
X546601Y553884D02*
Y558963D01*
X546620Y553884D02*
Y558963D01*
X546640Y553884D02*
Y558963D01*
X546660Y553884D02*
Y558963D01*
X546680Y553884D02*
Y558963D01*
X546699Y553884D02*
Y558963D01*
X546719Y553884D02*
Y558963D01*
X546739Y553884D02*
Y558963D01*
X546758Y553884D02*
Y558963D01*
X546778Y553884D02*
Y558963D01*
X546798Y553884D02*
Y558963D01*
X546817Y553884D02*
Y558963D01*
X546837Y553884D02*
Y558963D01*
X546857Y553884D02*
Y558963D01*
X546876Y553884D02*
Y558963D01*
X546896Y553884D02*
Y558963D01*
X546916Y553884D02*
Y558963D01*
X546935Y553884D02*
Y558963D01*
X546955Y553884D02*
Y558963D01*
X546975Y553884D02*
Y558963D01*
X546994Y553884D02*
Y558963D01*
X547014Y553884D02*
Y558963D01*
X547034Y553884D02*
Y558963D01*
X547054Y553884D02*
Y558963D01*
X547073Y553884D02*
Y558963D01*
X547093Y553884D02*
Y558963D01*
X547113Y553884D02*
Y558963D01*
X547132Y553884D02*
Y558963D01*
X547152Y553884D02*
Y558963D01*
X547172Y553884D02*
Y558963D01*
X547191Y553884D02*
Y558963D01*
X547211Y553884D02*
Y558963D01*
X547231Y553884D02*
Y558963D01*
X547250Y553884D02*
Y558963D01*
X547270Y553884D02*
Y558963D01*
X547290Y553884D02*
Y558963D01*
X547309Y553884D02*
Y558963D01*
X547329Y553884D02*
Y558963D01*
X547349Y553884D02*
Y558963D01*
X547369Y553884D02*
Y558963D01*
X547388Y553884D02*
Y558963D01*
X547408Y553884D02*
Y558963D01*
X547428Y553884D02*
Y558963D01*
X547447Y553884D02*
Y558963D01*
X547467Y553884D02*
Y558963D01*
X547487Y553884D02*
Y558963D01*
X547506Y553884D02*
Y558963D01*
X547526Y553884D02*
Y558963D01*
X547546Y553884D02*
Y558963D01*
X547565Y553884D02*
Y558963D01*
X547585Y553884D02*
Y558963D01*
X547605Y553884D02*
Y558963D01*
X547624Y553884D02*
Y558963D01*
X547644Y553884D02*
Y558963D01*
X547664Y553884D02*
Y558963D01*
X547683Y553884D02*
Y558963D01*
X547703Y553884D02*
Y558963D01*
X547723Y553884D02*
Y558963D01*
X547743Y553884D02*
Y558963D01*
X547762Y553884D02*
Y558963D01*
X547782Y553884D02*
Y558963D01*
X547802Y553884D02*
Y558963D01*
X547821Y553884D02*
Y558963D01*
X547841Y553884D02*
Y558963D01*
X547861Y553884D02*
Y558963D01*
X547880Y553884D02*
Y558963D01*
X547900Y553884D02*
Y558963D01*
X547920Y553884D02*
Y558963D01*
X547939Y553884D02*
Y558963D01*
X547959Y553884D02*
Y558963D01*
X547979Y553884D02*
Y558963D01*
X547998Y553884D02*
Y558963D01*
X548018Y553884D02*
Y558963D01*
X548038Y553884D02*
Y558963D01*
X548057Y553884D02*
Y558963D01*
X548077Y553884D02*
Y558963D01*
X548097Y553884D02*
Y558963D01*
X548117Y553884D02*
Y558963D01*
X548136Y553884D02*
Y558963D01*
X548156Y553884D02*
Y558963D01*
X548176Y553884D02*
Y558963D01*
X548195Y553884D02*
Y558963D01*
X548215Y553884D02*
Y558963D01*
X548235Y553884D02*
Y558963D01*
X548254Y553884D02*
Y558963D01*
X548274Y553884D02*
Y558963D01*
X548294Y553884D02*
Y558963D01*
X548313Y553884D02*
Y558963D01*
X548333Y553884D02*
Y558963D01*
X548353Y553884D02*
Y558963D01*
X548372Y553884D02*
Y558963D01*
X548392Y553884D02*
Y558963D01*
X548412Y553884D02*
Y558963D01*
X548431Y553884D02*
Y558963D01*
X548451Y553884D02*
Y558963D01*
X548471Y553884D02*
Y558963D01*
X548491Y553884D02*
Y558963D01*
X548510Y553884D02*
Y558963D01*
X548530Y553884D02*
Y558963D01*
X548550Y553884D02*
Y558963D01*
X548569Y553884D02*
Y558963D01*
X548589Y553884D02*
Y558963D01*
X548609Y553884D02*
Y558963D01*
X548628Y553884D02*
Y558963D01*
X548648Y553884D02*
Y558963D01*
X548668Y553884D02*
Y558963D01*
X548687Y553884D02*
Y558963D01*
X548707Y553884D02*
Y558963D01*
X548727Y553884D02*
Y558963D01*
X548746Y553884D02*
Y558963D01*
X548766Y553884D02*
Y558963D01*
X548786Y553884D02*
Y558963D01*
X548806Y553884D02*
Y558963D01*
X548825Y553884D02*
Y558963D01*
X548845Y553884D02*
Y558963D01*
X548865Y553884D02*
Y558963D01*
X548884Y553884D02*
Y558963D01*
X548904Y553884D02*
Y558963D01*
X548924Y553884D02*
Y558963D01*
X548943Y553884D02*
Y558963D01*
X548963Y553884D02*
Y558963D01*
X548983Y553884D02*
Y558963D01*
X549002Y553884D02*
Y558963D01*
X549022Y553884D02*
Y558963D01*
X549042Y553884D02*
Y558963D01*
X549061Y553884D02*
Y558963D01*
X549081Y553884D02*
Y558963D01*
X549101Y553884D02*
Y558963D01*
X549120Y553884D02*
Y558963D01*
X549140Y553884D02*
Y558963D01*
X549160Y553884D02*
Y558963D01*
X549180Y553884D02*
Y558963D01*
X549199Y553884D02*
Y558963D01*
X549219Y553884D02*
Y558963D01*
X549239Y553884D02*
Y558963D01*
X549258Y553884D02*
Y558963D01*
X549278Y553884D02*
Y558963D01*
X549298Y553884D02*
Y558963D01*
X549317Y553884D02*
Y558963D01*
X549337Y553884D02*
Y558963D01*
X549357Y553884D02*
Y558963D01*
X549376Y553884D02*
Y558963D01*
X549396Y553884D02*
Y558963D01*
X549416Y553884D02*
Y558963D01*
X549435Y553884D02*
Y558963D01*
X549455Y553884D02*
Y558963D01*
X549475Y553884D02*
Y558963D01*
X549494Y553884D02*
Y558963D01*
X549514Y553884D02*
Y558963D01*
X549534Y553884D02*
Y558963D01*
X549554Y553884D02*
Y558963D01*
X549573Y553884D02*
Y558963D01*
X549593Y553884D02*
Y558963D01*
X549613Y553884D02*
Y558963D01*
X549632Y553884D02*
Y558963D01*
X549652Y553884D02*
Y558963D01*
X549672Y553884D02*
Y558963D01*
X549691Y553884D02*
Y558963D01*
X549711Y553884D02*
Y558963D01*
X549731Y553884D02*
Y558963D01*
X549750Y553884D02*
Y558963D01*
X549770Y553884D02*
Y558963D01*
X549790Y553884D02*
Y558963D01*
X549809Y553884D02*
Y558963D01*
X549829Y553884D02*
Y558963D01*
X549849Y553884D02*
Y558963D01*
X549869Y553884D02*
Y558963D01*
X549888Y553884D02*
Y558963D01*
X549908Y553884D02*
Y558963D01*
X549928Y553884D02*
Y558963D01*
X549947Y553884D02*
Y558963D01*
X549967Y553884D02*
Y558963D01*
X549987Y553884D02*
Y558963D01*
X550006Y553884D02*
Y558963D01*
X550026Y553884D02*
Y558963D01*
X550046Y553884D02*
Y558963D01*
X550065Y553884D02*
Y558963D01*
X550085Y553884D02*
Y558963D01*
X550105Y553884D02*
Y558963D01*
X550124Y553884D02*
Y558963D01*
X550144Y553884D02*
Y558963D01*
X550164Y553884D02*
Y558963D01*
X550183Y553884D02*
Y558963D01*
X550203Y553884D02*
Y558963D01*
X550223Y553884D02*
Y558963D01*
X550243Y553884D02*
Y558963D01*
X550262Y553884D02*
Y558963D01*
X550282Y553884D02*
Y558963D01*
X550302Y553884D02*
Y558963D01*
X550321Y553884D02*
Y558963D01*
X550341Y553884D02*
Y558963D01*
X550361Y553884D02*
Y558963D01*
X550380Y553884D02*
Y558963D01*
X550400Y553884D02*
Y558963D01*
X550420Y553884D02*
Y558963D01*
X550439Y553884D02*
Y558963D01*
X550459Y553884D02*
Y558963D01*
X550479Y553884D02*
Y558963D01*
X550498Y553884D02*
Y558963D01*
X550518Y553884D02*
Y558963D01*
X550538Y553884D02*
Y558963D01*
X550557Y553884D02*
Y558963D01*
X550577Y553884D02*
Y558963D01*
X544849Y545341D02*
Y550420D01*
X550597*
Y545341*
X544849*
Y550420*
X544869Y545341D02*
Y550420D01*
X544888Y545341D02*
Y550420D01*
X544908Y545341D02*
Y550420D01*
X544928Y545341D02*
Y550420D01*
X544947Y545341D02*
Y550420D01*
X544967Y545341D02*
Y550420D01*
X544987Y545341D02*
Y550420D01*
X545006Y545341D02*
Y550420D01*
X545026Y545341D02*
Y550420D01*
X545046Y545341D02*
Y550420D01*
X545065Y545341D02*
Y550420D01*
X545085Y545341D02*
Y550420D01*
X545105Y545341D02*
Y550420D01*
X545124Y545341D02*
Y550420D01*
X545144Y545341D02*
Y550420D01*
X545164Y545341D02*
Y550420D01*
X545183Y545341D02*
Y550420D01*
X545203Y545341D02*
Y550420D01*
X545223Y545341D02*
Y550420D01*
X545243Y545341D02*
Y550420D01*
X545262Y545341D02*
Y550420D01*
X545282Y545341D02*
Y550420D01*
X545302Y545341D02*
Y550420D01*
X545321Y545341D02*
Y550420D01*
X545341Y545341D02*
Y550420D01*
X545361Y545341D02*
Y550420D01*
X545380Y545341D02*
Y550420D01*
X545400Y545341D02*
Y550420D01*
X545420Y545341D02*
Y550420D01*
X545439Y545341D02*
Y550420D01*
X545459Y545341D02*
Y550420D01*
X545479Y545341D02*
Y550420D01*
X545498Y545341D02*
Y550420D01*
X545518Y545341D02*
Y550420D01*
X545538Y545341D02*
Y550420D01*
X545557Y545341D02*
Y550420D01*
X545577Y545341D02*
Y550420D01*
X545597Y545341D02*
Y550420D01*
X545617Y545341D02*
Y550420D01*
X545636Y545341D02*
Y550420D01*
X545656Y545341D02*
Y550420D01*
X545676Y545341D02*
Y550420D01*
X545695Y545341D02*
Y550420D01*
X545715Y545341D02*
Y550420D01*
X545735Y545341D02*
Y550420D01*
X545754Y545341D02*
Y550420D01*
X545774Y545341D02*
Y550420D01*
X545794Y545341D02*
Y550420D01*
X545813Y545341D02*
Y550420D01*
X545833Y545341D02*
Y550420D01*
X545853Y545341D02*
Y550420D01*
X545872Y545341D02*
Y550420D01*
X545892Y545341D02*
Y550420D01*
X545912Y545341D02*
Y550420D01*
X545931Y545341D02*
Y550420D01*
X545951Y545341D02*
Y550420D01*
X545971Y545341D02*
Y550420D01*
X545991Y545341D02*
Y550420D01*
X546010Y545341D02*
Y550420D01*
X546030Y545341D02*
Y550420D01*
X546050Y545341D02*
Y550420D01*
X546069Y545341D02*
Y550420D01*
X546089Y545341D02*
Y550420D01*
X546109Y545341D02*
Y550420D01*
X546128Y545341D02*
Y550420D01*
X546148Y545341D02*
Y550420D01*
X546168Y545341D02*
Y550420D01*
X546187Y545341D02*
Y550420D01*
X546207Y545341D02*
Y550420D01*
X546227Y545341D02*
Y550420D01*
X546246Y545341D02*
Y550420D01*
X546266Y545341D02*
Y550420D01*
X546286Y545341D02*
Y550420D01*
X546306Y545341D02*
Y550420D01*
X546325Y545341D02*
Y550420D01*
X546345Y545341D02*
Y550420D01*
X546365Y545341D02*
Y550420D01*
X546384Y545341D02*
Y550420D01*
X546404Y545341D02*
Y550420D01*
X546424Y545341D02*
Y550420D01*
X546443Y545341D02*
Y550420D01*
X546463Y545341D02*
Y550420D01*
X546483Y545341D02*
Y550420D01*
X546502Y545341D02*
Y550420D01*
X546522Y545341D02*
Y550420D01*
X546542Y545341D02*
Y550420D01*
X546561Y545341D02*
Y550420D01*
X546581Y545341D02*
Y550420D01*
X546601Y545341D02*
Y550420D01*
X546620Y545341D02*
Y550420D01*
X546640Y545341D02*
Y550420D01*
X546660Y545341D02*
Y550420D01*
X546680Y545341D02*
Y550420D01*
X546699Y545341D02*
Y550420D01*
X546719Y545341D02*
Y550420D01*
X546739Y545341D02*
Y550420D01*
X546758Y545341D02*
Y550420D01*
X546778Y545341D02*
Y550420D01*
X546798Y545341D02*
Y550420D01*
X546817Y545341D02*
Y550420D01*
X546837Y545341D02*
Y550420D01*
X546857Y545341D02*
Y550420D01*
X546876Y545341D02*
Y550420D01*
X546896Y545341D02*
Y550420D01*
X546916Y545341D02*
Y550420D01*
X546935Y545341D02*
Y550420D01*
X546955Y545341D02*
Y550420D01*
X546975Y545341D02*
Y550420D01*
X546994Y545341D02*
Y550420D01*
X547014Y545341D02*
Y550420D01*
X547034Y545341D02*
Y550420D01*
X547054Y545341D02*
Y550420D01*
X547073Y545341D02*
Y550420D01*
X547093Y545341D02*
Y550420D01*
X547113Y545341D02*
Y550420D01*
X547132Y545341D02*
Y550420D01*
X547152Y545341D02*
Y550420D01*
X547172Y545341D02*
Y550420D01*
X547191Y545341D02*
Y550420D01*
X547211Y545341D02*
Y550420D01*
X547231Y545341D02*
Y550420D01*
X547250Y545341D02*
Y550420D01*
X547270Y545341D02*
Y550420D01*
X547290Y545341D02*
Y550420D01*
X547309Y545341D02*
Y550420D01*
X547329Y545341D02*
Y550420D01*
X547349Y545341D02*
Y550420D01*
X547369Y545341D02*
Y550420D01*
X547388Y545341D02*
Y550420D01*
X547408Y545341D02*
Y550420D01*
X547428Y545341D02*
Y550420D01*
X547447Y545341D02*
Y550420D01*
X547467Y545341D02*
Y550420D01*
X547487Y545341D02*
Y550420D01*
X547506Y545341D02*
Y550420D01*
X547526Y545341D02*
Y550420D01*
X547546Y545341D02*
Y550420D01*
X547565Y545341D02*
Y550420D01*
X547585Y545341D02*
Y550420D01*
X547605Y545341D02*
Y550420D01*
X547624Y545341D02*
Y550420D01*
X547644Y545341D02*
Y550420D01*
X547664Y545341D02*
Y550420D01*
X547683Y545341D02*
Y550420D01*
X547703Y545341D02*
Y550420D01*
X547723Y545341D02*
Y550420D01*
X547743Y545341D02*
Y550420D01*
X547762Y545341D02*
Y550420D01*
X547782Y545341D02*
Y550420D01*
X547802Y545341D02*
Y550420D01*
X547821Y545341D02*
Y550420D01*
X547841Y545341D02*
Y550420D01*
X547861Y545341D02*
Y550420D01*
X547880Y545341D02*
Y550420D01*
X547900Y545341D02*
Y550420D01*
X547920Y545341D02*
Y550420D01*
X547939Y545341D02*
Y550420D01*
X547959Y545341D02*
Y550420D01*
X547979Y545341D02*
Y550420D01*
X547998Y545341D02*
Y550420D01*
X548018Y545341D02*
Y550420D01*
X548038Y545341D02*
Y550420D01*
X548057Y545341D02*
Y550420D01*
X548077Y545341D02*
Y550420D01*
X548097Y545341D02*
Y550420D01*
X548117Y545341D02*
Y550420D01*
X548136Y545341D02*
Y550420D01*
X548156Y545341D02*
Y550420D01*
X548176Y545341D02*
Y550420D01*
X548195Y545341D02*
Y550420D01*
X548215Y545341D02*
Y550420D01*
X548235Y545341D02*
Y550420D01*
X548254Y545341D02*
Y550420D01*
X548274Y545341D02*
Y550420D01*
X548294Y545341D02*
Y550420D01*
X548313Y545341D02*
Y550420D01*
X548333Y545341D02*
Y550420D01*
X548353Y545341D02*
Y550420D01*
X548372Y545341D02*
Y550420D01*
X548392Y545341D02*
Y550420D01*
X548412Y545341D02*
Y550420D01*
X548431Y545341D02*
Y550420D01*
X548451Y545341D02*
Y550420D01*
X548471Y545341D02*
Y550420D01*
X548491Y545341D02*
Y550420D01*
X548510Y545341D02*
Y550420D01*
X548530Y545341D02*
Y550420D01*
X548550Y545341D02*
Y550420D01*
X548569Y545341D02*
Y550420D01*
X548589Y545341D02*
Y550420D01*
X548609Y545341D02*
Y550420D01*
X548628Y545341D02*
Y550420D01*
X548648Y545341D02*
Y550420D01*
X548668Y545341D02*
Y550420D01*
X548687Y545341D02*
Y550420D01*
X548707Y545341D02*
Y550420D01*
X548727Y545341D02*
Y550420D01*
X548746Y545341D02*
Y550420D01*
X548766Y545341D02*
Y550420D01*
X548786Y545341D02*
Y550420D01*
X548806Y545341D02*
Y550420D01*
X548825Y545341D02*
Y550420D01*
X548845Y545341D02*
Y550420D01*
X548865Y545341D02*
Y550420D01*
X548884Y545341D02*
Y550420D01*
X548904Y545341D02*
Y550420D01*
X548924Y545341D02*
Y550420D01*
X548943Y545341D02*
Y550420D01*
X548963Y545341D02*
Y550420D01*
X548983Y545341D02*
Y550420D01*
X549002Y545341D02*
Y550420D01*
X549022Y545341D02*
Y550420D01*
X549042Y545341D02*
Y550420D01*
X549061Y545341D02*
Y550420D01*
X549081Y545341D02*
Y550420D01*
X549101Y545341D02*
Y550420D01*
X549120Y545341D02*
Y550420D01*
X549140Y545341D02*
Y550420D01*
X549160Y545341D02*
Y550420D01*
X549180Y545341D02*
Y550420D01*
X549199Y545341D02*
Y550420D01*
X549219Y545341D02*
Y550420D01*
X549239Y545341D02*
Y550420D01*
X549258Y545341D02*
Y550420D01*
X549278Y545341D02*
Y550420D01*
X549298Y545341D02*
Y550420D01*
X549317Y545341D02*
Y550420D01*
X549337Y545341D02*
Y550420D01*
X549357Y545341D02*
Y550420D01*
X549376Y545341D02*
Y550420D01*
X549396Y545341D02*
Y550420D01*
X549416Y545341D02*
Y550420D01*
X549435Y545341D02*
Y550420D01*
X549455Y545341D02*
Y550420D01*
X549475Y545341D02*
Y550420D01*
X549494Y545341D02*
Y550420D01*
X549514Y545341D02*
Y550420D01*
X549534Y545341D02*
Y550420D01*
X549554Y545341D02*
Y550420D01*
X549573Y545341D02*
Y550420D01*
X549593Y545341D02*
Y550420D01*
X549613Y545341D02*
Y550420D01*
X549632Y545341D02*
Y550420D01*
X549652Y545341D02*
Y550420D01*
X549672Y545341D02*
Y550420D01*
X549691Y545341D02*
Y550420D01*
X549711Y545341D02*
Y550420D01*
X549731Y545341D02*
Y550420D01*
X549750Y545341D02*
Y550420D01*
X549770Y545341D02*
Y550420D01*
X549790Y545341D02*
Y550420D01*
X549809Y545341D02*
Y550420D01*
X549829Y545341D02*
Y550420D01*
X549849Y545341D02*
Y550420D01*
X549869Y545341D02*
Y550420D01*
X549888Y545341D02*
Y550420D01*
X549908Y545341D02*
Y550420D01*
X549928Y545341D02*
Y550420D01*
X549947Y545341D02*
Y550420D01*
X549967Y545341D02*
Y550420D01*
X549987Y545341D02*
Y550420D01*
X550006Y545341D02*
Y550420D01*
X550026Y545341D02*
Y550420D01*
X550046Y545341D02*
Y550420D01*
X550065Y545341D02*
Y550420D01*
X550085Y545341D02*
Y550420D01*
X550105Y545341D02*
Y550420D01*
X550124Y545341D02*
Y550420D01*
X550144Y545341D02*
Y550420D01*
X550164Y545341D02*
Y550420D01*
X550183Y545341D02*
Y550420D01*
X550203Y545341D02*
Y550420D01*
X550223Y545341D02*
Y550420D01*
X550243Y545341D02*
Y550420D01*
X550262Y545341D02*
Y550420D01*
X550282Y545341D02*
Y550420D01*
X550302Y545341D02*
Y550420D01*
X550321Y545341D02*
Y550420D01*
X550341Y545341D02*
Y550420D01*
X550361Y545341D02*
Y550420D01*
X550380Y545341D02*
Y550420D01*
X550400Y545341D02*
Y550420D01*
X550420Y545341D02*
Y550420D01*
X550439Y545341D02*
Y550420D01*
X550459Y545341D02*
Y550420D01*
X550479Y545341D02*
Y550420D01*
X550498Y545341D02*
Y550420D01*
X550518Y545341D02*
Y550420D01*
X550538Y545341D02*
Y550420D01*
X550557Y545341D02*
Y550420D01*
X550577Y545341D02*
Y550420D01*
X544849Y536798D02*
Y541876D01*
X550597*
Y536798*
X544849*
Y541876*
X544869Y536798D02*
Y541876D01*
X544888Y536798D02*
Y541876D01*
X544908Y536798D02*
Y541876D01*
X544928Y536798D02*
Y541876D01*
X544947Y536798D02*
Y541876D01*
X544967Y536798D02*
Y541876D01*
X544987Y536798D02*
Y541876D01*
X545006Y536798D02*
Y541876D01*
X545026Y536798D02*
Y541876D01*
X545046Y536798D02*
Y541876D01*
X545065Y536798D02*
Y541876D01*
X545085Y536798D02*
Y541876D01*
X545105Y536798D02*
Y541876D01*
X545124Y536798D02*
Y541876D01*
X545144Y536798D02*
Y541876D01*
X545164Y536798D02*
Y541876D01*
X545183Y536798D02*
Y541876D01*
X545203Y536798D02*
Y541876D01*
X545223Y536798D02*
Y541876D01*
X545243Y536798D02*
Y541876D01*
X545262Y536798D02*
Y541876D01*
X545282Y536798D02*
Y541876D01*
X545302Y536798D02*
Y541876D01*
X545321Y536798D02*
Y541876D01*
X545341Y536798D02*
Y541876D01*
X545361Y536798D02*
Y541876D01*
X545380Y536798D02*
Y541876D01*
X545400Y536798D02*
Y541876D01*
X545420Y536798D02*
Y541876D01*
X545439Y536798D02*
Y541876D01*
X545459Y536798D02*
Y541876D01*
X545479Y536798D02*
Y541876D01*
X545498Y536798D02*
Y541876D01*
X545518Y536798D02*
Y541876D01*
X545538Y536798D02*
Y541876D01*
X545557Y536798D02*
Y541876D01*
X545577Y536798D02*
Y541876D01*
X545597Y536798D02*
Y541876D01*
X545617Y536798D02*
Y541876D01*
X545636Y536798D02*
Y541876D01*
X545656Y536798D02*
Y541876D01*
X545676Y536798D02*
Y541876D01*
X545695Y536798D02*
Y541876D01*
X545715Y536798D02*
Y541876D01*
X545735Y536798D02*
Y541876D01*
X545754Y536798D02*
Y541876D01*
X545774Y536798D02*
Y541876D01*
X545794Y536798D02*
Y541876D01*
X545813Y536798D02*
Y541876D01*
X545833Y536798D02*
Y541876D01*
X545853Y536798D02*
Y541876D01*
X545872Y536798D02*
Y541876D01*
X545892Y536798D02*
Y541876D01*
X545912Y536798D02*
Y541876D01*
X545931Y536798D02*
Y541876D01*
X545951Y536798D02*
Y541876D01*
X545971Y536798D02*
Y541876D01*
X545991Y536798D02*
Y541876D01*
X546010Y536798D02*
Y541876D01*
X546030Y536798D02*
Y541876D01*
X546050Y536798D02*
Y541876D01*
X546069Y536798D02*
Y541876D01*
X546089Y536798D02*
Y541876D01*
X546109Y536798D02*
Y541876D01*
X546128Y536798D02*
Y541876D01*
X546148Y536798D02*
Y541876D01*
X546168Y536798D02*
Y541876D01*
X546187Y536798D02*
Y541876D01*
X546207Y536798D02*
Y541876D01*
X546227Y536798D02*
Y541876D01*
X546246Y536798D02*
Y541876D01*
X546266Y536798D02*
Y541876D01*
X546286Y536798D02*
Y541876D01*
X546306Y536798D02*
Y541876D01*
X546325Y536798D02*
Y541876D01*
X546345Y536798D02*
Y541876D01*
X546365Y536798D02*
Y541876D01*
X546384Y536798D02*
Y541876D01*
X546404Y536798D02*
Y541876D01*
X546424Y536798D02*
Y541876D01*
X546443Y536798D02*
Y541876D01*
X546463Y536798D02*
Y541876D01*
X546483Y536798D02*
Y541876D01*
X546502Y536798D02*
Y541876D01*
X546522Y536798D02*
Y541876D01*
X546542Y536798D02*
Y541876D01*
X546561Y536798D02*
Y541876D01*
X546581Y536798D02*
Y541876D01*
X546601Y536798D02*
Y541876D01*
X546620Y536798D02*
Y541876D01*
X546640Y536798D02*
Y541876D01*
X546660Y536798D02*
Y541876D01*
X546680Y536798D02*
Y541876D01*
X546699Y536798D02*
Y541876D01*
X546719Y536798D02*
Y541876D01*
X546739Y536798D02*
Y541876D01*
X546758Y536798D02*
Y541876D01*
X546778Y536798D02*
Y541876D01*
X546798Y536798D02*
Y541876D01*
X546817Y536798D02*
Y541876D01*
X546837Y536798D02*
Y541876D01*
X546857Y536798D02*
Y541876D01*
X546876Y536798D02*
Y541876D01*
X546896Y536798D02*
Y541876D01*
X546916Y536798D02*
Y541876D01*
X546935Y536798D02*
Y541876D01*
X546955Y536798D02*
Y541876D01*
X546975Y536798D02*
Y541876D01*
X546994Y536798D02*
Y541876D01*
X547014Y536798D02*
Y541876D01*
X547034Y536798D02*
Y541876D01*
X547054Y536798D02*
Y541876D01*
X547073Y536798D02*
Y541876D01*
X547093Y536798D02*
Y541876D01*
X547113Y536798D02*
Y541876D01*
X547132Y536798D02*
Y541876D01*
X547152Y536798D02*
Y541876D01*
X547172Y536798D02*
Y541876D01*
X547191Y536798D02*
Y541876D01*
X547211Y536798D02*
Y541876D01*
X547231Y536798D02*
Y541876D01*
X547250Y536798D02*
Y541876D01*
X547270Y536798D02*
Y541876D01*
X547290Y536798D02*
Y541876D01*
X547309Y536798D02*
Y541876D01*
X547329Y536798D02*
Y541876D01*
X547349Y536798D02*
Y541876D01*
X547369Y536798D02*
Y541876D01*
X547388Y536798D02*
Y541876D01*
X547408Y536798D02*
Y541876D01*
X547428Y536798D02*
Y541876D01*
X547447Y536798D02*
Y541876D01*
X547467Y536798D02*
Y541876D01*
X547487Y536798D02*
Y541876D01*
X547506Y536798D02*
Y541876D01*
X547526Y536798D02*
Y541876D01*
X547546Y536798D02*
Y541876D01*
X547565Y536798D02*
Y541876D01*
X547585Y536798D02*
Y541876D01*
X547605Y536798D02*
Y541876D01*
X547624Y536798D02*
Y541876D01*
X547644Y536798D02*
Y541876D01*
X547664Y536798D02*
Y541876D01*
X547683Y536798D02*
Y541876D01*
X547703Y536798D02*
Y541876D01*
X547723Y536798D02*
Y541876D01*
X547743Y536798D02*
Y541876D01*
X547762Y536798D02*
Y541876D01*
X547782Y536798D02*
Y541876D01*
X547802Y536798D02*
Y541876D01*
X547821Y536798D02*
Y541876D01*
X547841Y536798D02*
Y541876D01*
X547861Y536798D02*
Y541876D01*
X547880Y536798D02*
Y541876D01*
X547900Y536798D02*
Y541876D01*
X547920Y536798D02*
Y541876D01*
X547939Y536798D02*
Y541876D01*
X547959Y536798D02*
Y541876D01*
X547979Y536798D02*
Y541876D01*
X547998Y536798D02*
Y541876D01*
X548018Y536798D02*
Y541876D01*
X548038Y536798D02*
Y541876D01*
X548057Y536798D02*
Y541876D01*
X548077Y536798D02*
Y541876D01*
X548097Y536798D02*
Y541876D01*
X548117Y536798D02*
Y541876D01*
X548136Y536798D02*
Y541876D01*
X548156Y536798D02*
Y541876D01*
X548176Y536798D02*
Y541876D01*
X548195Y536798D02*
Y541876D01*
X548215Y536798D02*
Y541876D01*
X548235Y536798D02*
Y541876D01*
X548254Y536798D02*
Y541876D01*
X548274Y536798D02*
Y541876D01*
X548294Y536798D02*
Y541876D01*
X548313Y536798D02*
Y541876D01*
X548333Y536798D02*
Y541876D01*
X548353Y536798D02*
Y541876D01*
X548372Y536798D02*
Y541876D01*
X548392Y536798D02*
Y541876D01*
X548412Y536798D02*
Y541876D01*
X548431Y536798D02*
Y541876D01*
X548451Y536798D02*
Y541876D01*
X548471Y536798D02*
Y541876D01*
X548491Y536798D02*
Y541876D01*
X548510Y536798D02*
Y541876D01*
X548530Y536798D02*
Y541876D01*
X548550Y536798D02*
Y541876D01*
X548569Y536798D02*
Y541876D01*
X548589Y536798D02*
Y541876D01*
X548609Y536798D02*
Y541876D01*
X548628Y536798D02*
Y541876D01*
X548648Y536798D02*
Y541876D01*
X548668Y536798D02*
Y541876D01*
X548687Y536798D02*
Y541876D01*
X548707Y536798D02*
Y541876D01*
X548727Y536798D02*
Y541876D01*
X548746Y536798D02*
Y541876D01*
X548766Y536798D02*
Y541876D01*
X548786Y536798D02*
Y541876D01*
X548806Y536798D02*
Y541876D01*
X548825Y536798D02*
Y541876D01*
X548845Y536798D02*
Y541876D01*
X548865Y536798D02*
Y541876D01*
X548884Y536798D02*
Y541876D01*
X548904Y536798D02*
Y541876D01*
X548924Y536798D02*
Y541876D01*
X548943Y536798D02*
Y541876D01*
X548963Y536798D02*
Y541876D01*
X548983Y536798D02*
Y541876D01*
X549002Y536798D02*
Y541876D01*
X549022Y536798D02*
Y541876D01*
X549042Y536798D02*
Y541876D01*
X549061Y536798D02*
Y541876D01*
X549081Y536798D02*
Y541876D01*
X549101Y536798D02*
Y541876D01*
X549120Y536798D02*
Y541876D01*
X549140Y536798D02*
Y541876D01*
X549160Y536798D02*
Y541876D01*
X549180Y536798D02*
Y541876D01*
X549199Y536798D02*
Y541876D01*
X549219Y536798D02*
Y541876D01*
X549239Y536798D02*
Y541876D01*
X549258Y536798D02*
Y541876D01*
X549278Y536798D02*
Y541876D01*
X549298Y536798D02*
Y541876D01*
X549317Y536798D02*
Y541876D01*
X549337Y536798D02*
Y541876D01*
X549357Y536798D02*
Y541876D01*
X549376Y536798D02*
Y541876D01*
X549396Y536798D02*
Y541876D01*
X549416Y536798D02*
Y541876D01*
X549435Y536798D02*
Y541876D01*
X549455Y536798D02*
Y541876D01*
X549475Y536798D02*
Y541876D01*
X549494Y536798D02*
Y541876D01*
X549514Y536798D02*
Y541876D01*
X549534Y536798D02*
Y541876D01*
X549554Y536798D02*
Y541876D01*
X549573Y536798D02*
Y541876D01*
X549593Y536798D02*
Y541876D01*
X549613Y536798D02*
Y541876D01*
X549632Y536798D02*
Y541876D01*
X549652Y536798D02*
Y541876D01*
X549672Y536798D02*
Y541876D01*
X549691Y536798D02*
Y541876D01*
X549711Y536798D02*
Y541876D01*
X549731Y536798D02*
Y541876D01*
X549750Y536798D02*
Y541876D01*
X549770Y536798D02*
Y541876D01*
X549790Y536798D02*
Y541876D01*
X549809Y536798D02*
Y541876D01*
X549829Y536798D02*
Y541876D01*
X549849Y536798D02*
Y541876D01*
X549869Y536798D02*
Y541876D01*
X549888Y536798D02*
Y541876D01*
X549908Y536798D02*
Y541876D01*
X549928Y536798D02*
Y541876D01*
X549947Y536798D02*
Y541876D01*
X549967Y536798D02*
Y541876D01*
X549987Y536798D02*
Y541876D01*
X550006Y536798D02*
Y541876D01*
X550026Y536798D02*
Y541876D01*
X550046Y536798D02*
Y541876D01*
X550065Y536798D02*
Y541876D01*
X550085Y536798D02*
Y541876D01*
X550105Y536798D02*
Y541876D01*
X550124Y536798D02*
Y541876D01*
X550144Y536798D02*
Y541876D01*
X550164Y536798D02*
Y541876D01*
X550183Y536798D02*
Y541876D01*
X550203Y536798D02*
Y541876D01*
X550223Y536798D02*
Y541876D01*
X550243Y536798D02*
Y541876D01*
X550262Y536798D02*
Y541876D01*
X550282Y536798D02*
Y541876D01*
X550302Y536798D02*
Y541876D01*
X550321Y536798D02*
Y541876D01*
X550341Y536798D02*
Y541876D01*
X550361Y536798D02*
Y541876D01*
X550380Y536798D02*
Y541876D01*
X550400Y536798D02*
Y541876D01*
X550420Y536798D02*
Y541876D01*
X550439Y536798D02*
Y541876D01*
X550459Y536798D02*
Y541876D01*
X550479Y536798D02*
Y541876D01*
X550498Y536798D02*
Y541876D01*
X550518Y536798D02*
Y541876D01*
X550538Y536798D02*
Y541876D01*
X550557Y536798D02*
Y541876D01*
X550577Y536798D02*
Y541876D01*
G54D87*
X186514Y801900D02*
X186173Y802838D01*
X186173D02*
X185491Y803775D01*
X184809Y804244*
X183445*
X182764Y803775*
X182082Y802838*
X182082D02*
X181741Y801900D01*
X181400Y800494*
Y798150*
X181741Y796744*
X182082Y795806*
X182764Y794869*
X183445Y794400*
X184809*
X185491Y794869*
X186173Y795806*
X186514Y796744*
X191627Y804244D02*
X190945Y803775D01*
X190264Y802838*
X190264D02*
X189923Y801900D01*
X189582Y800494*
Y798150*
X189923Y796744*
X190264Y795806*
X190945Y794869*
X191627Y794400*
X192991*
X193673Y794869*
X194355Y795806*
X194695Y796744*
X195036Y798150*
Y800494*
X194695Y801900*
X194355Y802838*
X194355D02*
X193673Y803775D01*
X192991Y804244*
X191627*
X198105D02*
Y794400D01*
Y804244D02*
X200832Y794400D01*
X203559Y804244D02*
X200832Y794400D01*
X203559Y804244D02*
Y794400D01*
X206627Y804244D02*
Y794400D01*
Y804244D02*
X209695D01*
X210718Y803775*
X211059Y803306*
X211400Y802369*
Y800963*
X211400D02*
X211059Y800025D01*
X210718Y799556*
X209695Y799088*
X209695D02*
X206627D01*
X214468Y804244D02*
Y794400D01*
Y804244D02*
X217536D01*
X218559Y803775*
X218900Y803306*
X219241Y802369*
Y801431*
X218900Y800494*
X218559Y800025*
X217536Y799556*
X214468*
X216855D02*
X219241Y794400D01*
X222309Y804244D02*
Y794400D01*
Y804244D02*
X226741D01*
X222309Y799556D02*
X225036D01*
X222309Y794400D02*
X226741D01*
X234582Y802838D02*
X233900Y803775D01*
X232877Y804244*
X231514*
X230491Y803775*
X229809Y802838*
X229809D02*
Y801900D01*
X230150Y800963*
X230150D02*
X230491Y800494D01*
X231173Y800025*
X233218Y799088*
X233218D02*
X233900Y798619D01*
X234241Y798150*
X234582Y797213*
X234582D02*
Y795806D01*
X233900Y794869*
X232877Y794400*
X231514*
X230491Y794869*
X229809Y795806*
X242423Y802838D02*
X241741Y803775D01*
X240718Y804244*
X239355*
X238332Y803775*
X237650Y802838*
X237650D02*
Y801900D01*
X237991Y800963*
X237991D02*
X238332Y800494D01*
X239014Y800025*
X241059Y799088*
X241059D02*
X241741Y798619D01*
X242082Y798150*
X242423Y797213*
X242423D02*
Y795806D01*
X241741Y794869*
X240718Y794400*
X239355*
X238332Y794869*
X237650Y795806*
X247536Y804244D02*
X246855Y803775D01*
X246173Y802838*
X246173D02*
X245832Y801900D01*
X245491Y800494*
Y798150*
X245832Y796744*
X246173Y795806*
X246855Y794869*
X247536Y794400*
X248900*
X249582Y794869*
X250264Y795806*
X250605Y796744*
X250945Y798150*
Y800494*
X250605Y801900*
X250264Y802838*
X250264D02*
X249582Y803775D01*
X248900Y804244*
X247536*
X254014D02*
Y794400D01*
Y804244D02*
X257082D01*
X258105Y803775*
X258445Y803306*
X258786Y802369*
Y801431*
X258445Y800494*
X258105Y800025*
X257082Y799556*
X254014*
X256400D02*
X258786Y794400D01*
X274809Y801900D02*
X274468Y802838D01*
X274468D02*
X273786Y803775D01*
X273105Y804244*
X271741*
X271059Y803775*
X270377Y802838*
X270377D02*
X270036Y801900D01*
X269695Y800494*
Y798150*
X270036Y796744*
X270377Y795806*
X271059Y794869*
X271741Y794400*
X273105*
X273786Y794869*
X274468Y795806*
X274809Y796744*
X279923Y804244D02*
X279241Y803775D01*
X278559Y802838*
X278559D02*
X278218Y801900D01*
X277877Y800494*
Y798150*
X278218Y796744*
X278559Y795806*
X279241Y794869*
X279923Y794400*
X281286*
X281968Y794869*
X282650Y795806*
X282991Y796744*
X283332Y798150*
Y800494*
X282991Y801900*
X282650Y802838*
X282650D02*
X281968Y803775D01*
X281286Y804244*
X279923*
X286400D02*
Y794400D01*
Y804244D02*
X291173Y794400D01*
Y804244D02*
Y794400D01*
X296627Y804244D02*
Y794400D01*
X294241Y804244D02*
X299014D01*
X302082D02*
Y794400D01*
Y804244D02*
X305150D01*
X306173Y803775*
X306514Y803306*
X306855Y802369*
Y801431*
X306514Y800494*
X306173Y800025*
X305150Y799556*
X302082*
X304468D02*
X306855Y794400D01*
X311968Y804244D02*
X311286Y803775D01*
X310605Y802838*
X310605D02*
X310264Y801900D01*
X309923Y800494*
Y798150*
X310264Y796744*
X310605Y795806*
X311286Y794869*
X311968Y794400*
X313332*
X314014Y794869*
X314695Y795806*
X315036Y796744*
X315377Y798150*
Y800494*
X315036Y801900*
X314695Y802838*
X314695D02*
X314014Y803775D01*
X313332Y804244*
X311968*
X318445D02*
Y794400D01*
X322536*
X330377Y802838D02*
X329695Y803775D01*
X328673Y804244*
X327309*
X326286Y803775*
X325605Y802838*
X325605D02*
Y801900D01*
X325945Y800963*
X325945D02*
X326286Y800494D01*
X326968Y800025*
X329014Y799088*
X329014D02*
X329695Y798619D01*
X330036Y798150*
X330377Y797213*
X330377D02*
Y795806D01*
X329695Y794869*
X328673Y794400*
X327309*
X326286Y794869*
X325605Y795806*
X346400Y801900D02*
X346059Y802838D01*
X346059D02*
X345377Y803775D01*
X344695Y804244*
X343332*
X342650Y803775*
X341968Y802838*
X341968D02*
X341627Y801900D01*
X341286Y800494*
Y798150*
X341627Y796744*
X341968Y795806*
X342650Y794869*
X343332Y794400*
X344695*
X345377Y794869*
X346059Y795806*
X346400Y796744*
X351514Y804244D02*
X350832Y803775D01*
X350150Y802838*
X350150D02*
X349809Y801900D01*
X349468Y800494*
Y798150*
X349809Y796744*
X350150Y795806*
X350832Y794869*
X351514Y794400*
X352877*
X353559Y794869*
X354241Y795806*
X354582Y796744*
X354923Y798150*
Y800494*
X354582Y801900*
X354241Y802838*
X354241D02*
X353559Y803775D01*
X352877Y804244*
X351514*
X357991D02*
Y794400D01*
Y804244D02*
X361059D01*
X362082Y803775*
X362423Y803306*
X362764Y802369*
Y801431*
X362423Y800494*
X362082Y800025*
X361059Y799556*
X357991*
X360377D02*
X362764Y794400D01*
X365832Y804244D02*
Y794400D01*
Y804244D02*
X368900D01*
X369923Y803775*
X370264Y803306*
X370605Y802369*
Y800963*
X370605D02*
X370264Y800025D01*
X369923Y799556*
X368900Y799088*
X368900D02*
X365832D01*
X375718Y804244D02*
X375036Y803775D01*
X374355Y802838*
X374355D02*
X374014Y801900D01*
X373673Y800494*
Y798150*
X374014Y796744*
X374355Y795806*
X375036Y794869*
X375718Y794400*
X377082*
X377764Y794869*
X378445Y795806*
X378786Y796744*
X379127Y798150*
Y800494*
X378786Y801900*
X378445Y802838*
X378445D02*
X377764Y803775D01*
X377082Y804244*
X375718*
X382195D02*
Y794400D01*
Y804244D02*
X385264D01*
X386286Y803775*
X386627Y803306*
X386968Y802369*
Y801431*
X386627Y800494*
X386286Y800025*
X385264Y799556*
X382195*
X384582D02*
X386968Y794400D01*
X392764Y804244D02*
X390036Y794400D01*
X392764Y804244D02*
X395491Y794400D01*
X391059Y797681D02*
X394468D01*
X400945Y804244D02*
Y794400D01*
X398559Y804244D02*
X403332D01*
X406400D02*
Y794400D01*
X411514Y804244D02*
X410832Y803775D01*
X410150Y802838*
X410150D02*
X409809Y801900D01*
X409468Y800494*
Y798150*
X409809Y796744*
X410150Y795806*
X410832Y794869*
X411514Y794400*
X412877*
X413559Y794869*
X414241Y795806*
X414582Y796744*
X414923Y798150*
Y800494*
X414582Y801900*
X414241Y802838*
X414241D02*
X413559Y803775D01*
X412877Y804244*
X411514*
X417991D02*
Y794400D01*
Y804244D02*
X422764Y794400D01*
Y804244D02*
Y794400D01*
X182400Y781869D02*
X183082Y782338D01*
X183082D02*
X184105Y783744D01*
Y773900*
X191945Y783744D02*
X188536Y773900D01*
X187173Y783744D02*
X191945D01*
X195014Y778119D02*
X201150D01*
X208309Y782338D02*
X207968Y783275D01*
X206945Y783744*
X206264*
X205241Y783275*
X204559Y781869*
X204218Y779525*
Y777181*
X204559Y775306*
X205241Y774369*
X206264Y773900*
X206605*
X207627Y774369*
X208309Y775306*
X208650Y776713*
X208650D02*
Y777181D01*
X208309Y778588*
X208309D02*
X207627Y779525D01*
X206605Y779994*
X206264*
X205241Y779525*
X204559Y778588*
X204559D02*
X204218Y777181D01*
X213764Y783744D02*
X212741Y783275D01*
X212059Y781869*
X211718Y779525*
Y778119*
X212059Y775775*
X212741Y774369*
X213764Y773900*
X214445*
X215468Y774369*
X216150Y775775*
X216491Y778119*
Y779525*
X216150Y781869*
X215468Y783275*
X214445Y783744*
X213764*
X221605D02*
X220582Y783275D01*
X219900Y781869*
X219559Y779525*
Y778119*
X219900Y775775*
X220582Y774369*
X221605Y773900*
X222286*
X223309Y774369*
X223991Y775775*
X224332Y778119*
Y779525*
X223991Y781869*
X223309Y783275*
X222286Y783744*
X221605*
X230809D02*
X227400Y777181D01*
X232514*
X230809Y783744D02*
Y773900D01*
X237627Y783744D02*
X236605Y783275D01*
X235923Y781869*
X235582Y779525*
Y778119*
X235923Y775775*
X236605Y774369*
X237627Y773900*
X238309*
X239332Y774369*
X240014Y775775*
X240355Y778119*
Y779525*
X240014Y781869*
X239332Y783275*
X238309Y783744*
X237627*
X245468D02*
X244445Y783275D01*
X243764Y781869*
X243423Y779525*
Y778119*
X243764Y775775*
X244445Y774369*
X245468Y773900*
X246150*
X247173Y774369*
X247855Y775775*
X248195Y778119*
Y779525*
X247855Y781869*
X247173Y783275*
X246150Y783744*
X245468*
X251264Y778119D02*
X257400D01*
X262514Y783744D02*
X261491Y783275D01*
X260809Y781869*
X260468Y779525*
Y778119*
X260809Y775775*
X261491Y774369*
X262514Y773900*
X263195*
X264218Y774369*
X264900Y775775*
X265241Y778119*
Y779525*
X264900Y781869*
X264218Y783275*
X263195Y783744*
X262514*
X270355D02*
X269332Y783275D01*
X268650Y781869*
X268309Y779525*
Y778119*
X268650Y775775*
X269332Y774369*
X270355Y773900*
X271036*
X272059Y774369*
X272741Y775775*
X273082Y778119*
Y779525*
X272741Y781869*
X272059Y783275*
X271036Y783744*
X270355*
X276150Y781869D02*
X276832Y782338D01*
X276832D02*
X277855Y783744D01*
Y773900*
X288764Y783744D02*
Y773900D01*
Y783744D02*
X291832D01*
X292855Y783275*
X293195Y782806*
X293536Y781869*
Y780931*
X293195Y779994*
X292855Y779525*
X291832Y779056*
X288764*
X291150D02*
X293536Y773900D01*
X296605Y783744D02*
Y773900D01*
Y783744D02*
X301036D01*
X296605Y779056D02*
X299332D01*
X296605Y773900D02*
X301036D01*
X304105Y783744D02*
X306832Y773900D01*
X309559Y783744D02*
X306832Y773900D01*
X320809Y781400D02*
Y781869D01*
X321150Y782806*
X321491Y783275*
X322173Y783744*
X323536*
X324218Y783275*
X324559Y782806*
X324900Y781869*
Y780931*
X324559Y779994*
X323877Y778588*
X323877D02*
X320468Y773900D01*
X325241*
X183900Y759744D02*
Y749900D01*
Y759744D02*
X186286D01*
X187309Y759275*
X187991Y758338*
X187991D02*
X188332Y757400D01*
X188673Y755994*
Y753650*
X188332Y752244*
X187991Y751306*
X187309Y750369*
X186286Y749900*
X183900*
X194468Y759744D02*
X191741Y749900D01*
X194468Y759744D02*
X197195Y749900D01*
X192764Y753181D02*
X196173D01*
X202650Y759744D02*
Y749900D01*
X200264Y759744D02*
X205036D01*
X208105D02*
Y749900D01*
Y759744D02*
X212536D01*
X208105Y755056D02*
X210832D01*
X208105Y749900D02*
X212536D01*
X215945Y756463D02*
X215605Y755994D01*
X215945Y755525*
X216286Y755994*
X215945Y756463*
Y750838D02*
X215605Y750369D01*
X215945Y749900*
X216286Y750369*
X215945Y750838*
X227536Y757400D02*
Y757869D01*
X227877Y758806*
X228218Y759275*
X228900Y759744*
X230264*
X230945Y759275*
X231286Y758806*
X231627Y757869*
Y756931*
X231286Y755994*
X230605Y754588*
X230605D02*
X227195Y749900D01*
X231968*
X236741Y759744D02*
X235718Y759275D01*
X235377Y758338*
X235377D02*
Y757400D01*
X235718Y756463*
X235718D02*
X236400Y755994D01*
X237764Y755525*
X238786Y755056*
X239468Y754119*
X239809Y753181*
Y751775*
X239468Y750838*
X239468D02*
X239127Y750369D01*
X238105Y749900*
X236741*
X235718Y750369*
X235377Y750838*
X235377D02*
X235036Y751775D01*
Y753181*
X235377Y754119*
X236059Y755056*
X237082Y755525*
X238445Y755994*
X239127Y756463*
X239127D02*
X239468Y757400D01*
Y758338*
X239468D02*
X239127Y759275D01*
X238105Y759744*
X236741*
X242877Y754119D02*
X249014D01*
X254127Y759744D02*
X253105Y759275D01*
X252423Y757869*
X252082Y755525*
Y754119*
X252423Y751775*
X253105Y750369*
X254127Y749900*
X254809*
X255832Y750369*
X256514Y751775*
X256855Y754119*
Y755525*
X256514Y757869*
X255832Y759275*
X254809Y759744*
X254127*
X264355Y756463D02*
X264014Y755056D01*
X263332Y754119*
X262309Y753650*
X261968*
X260945Y754119*
X260264Y755056*
X259923Y756463*
X259923D02*
Y756931D01*
X260264Y758338*
X260264D02*
X260945Y759275D01*
X261968Y759744*
X262309*
X263332Y759275*
X264014Y758338*
X264014D02*
X264355Y756463D01*
X264355D02*
Y754119D01*
X264014Y751775*
X263332Y750369*
X262309Y749900*
X261627*
X260605Y750369*
X260264Y751306*
X267423Y754119D02*
X273559D01*
X276627Y757869D02*
X277309Y758338D01*
X277309D02*
X278332Y759744D01*
Y749900*
X281400Y757869D02*
X282082Y758338D01*
X282082D02*
X283105Y759744D01*
Y749900*
X529027Y804744D02*
X526300Y794900D01*
X529027Y804744D02*
X531755Y794900D01*
X527323Y798181D02*
X530732D01*
X534823Y804744D02*
Y794900D01*
Y804744D02*
X537891D01*
X538914Y804275*
X539255Y803806*
X539595Y802869*
Y801463*
X539595D02*
X539255Y800525D01*
X538914Y800056*
X537891Y799588*
X537891D02*
X534823D01*
X542664Y804744D02*
Y794900D01*
Y804744D02*
X545732D01*
X546755Y804275*
X547095Y803806*
X547436Y802869*
Y801463*
X547436D02*
X547095Y800525D01*
X546755Y800056*
X545732Y799588*
X545732D02*
X542664D01*
G54D92*
X100400Y820400D02*
X700400D01*
Y100400*
X100400*
Y820400*
G54D111*
X379514Y529416D03*
Y526857D03*
Y524298D03*
Y521739D03*
Y519180D03*
Y516620D03*
Y514061D03*
Y511502D03*
Y508943D03*
Y506384D03*
X356286D03*
Y508943D03*
Y511502D03*
Y514061D03*
Y516620D03*
Y519180D03*
Y521739D03*
Y524298D03*
Y526857D03*
Y529416D03*
X379514Y566916D03*
Y564357D03*
Y561798D03*
Y559239D03*
Y556680D03*
Y554120D03*
Y551561D03*
Y549002D03*
Y546443D03*
Y543884D03*
X356286D03*
Y546443D03*
Y549002D03*
Y551561D03*
Y554120D03*
Y556680D03*
Y559239D03*
Y561798D03*
Y564357D03*
Y566916D03*
G54D112*
X535400Y563254D03*
X540400D03*
X545400D03*
X550400D03*
Y532546D03*
X545400D03*
X540400D03*
X535400D03*
G54D114*
X260341Y314534D03*
X265459D03*
X262900Y306266D03*
G54D115*
X432447Y549239D03*
Y566561D03*
X438353D03*
Y549239D03*
X195353Y439061D03*
Y421739D03*
X189447D03*
Y439061D03*
X202290Y517707D03*
X200321D03*
X198353D03*
X196384D03*
X194416D03*
X192447D03*
X190479D03*
X188510D03*
Y531093D03*
X190479D03*
X192447D03*
X194416D03*
X196384D03*
X198353D03*
X200321D03*
X202290D03*
G54D116*
X428707Y551010D03*
Y552979D03*
Y554947D03*
Y556916D03*
Y558884D03*
Y560853D03*
Y562821D03*
Y564790D03*
X442093D03*
Y562821D03*
Y560853D03*
Y558884D03*
Y556916D03*
Y554947D03*
Y552979D03*
Y551010D03*
X199093Y437290D03*
Y435321D03*
Y433353D03*
Y431384D03*
Y429416D03*
Y427447D03*
Y425479D03*
Y423510D03*
X185707D03*
Y425479D03*
Y427447D03*
Y429416D03*
Y431384D03*
Y433353D03*
Y435321D03*
Y437290D03*
X204061Y521447D03*
X186739D03*
Y527353D03*
X204061D03*
G54D119*
X195243Y292152D03*
X199573D03*
X203904D03*
X208235D03*
X212565D03*
X216896D03*
X221227D03*
X225557D03*
G54D120*
X197408Y337624D03*
X226345D03*
G54D121*
X197605Y284278D03*
X223195D03*
G54D122*
X337135Y227900D03*
X204065D03*
G54D124*
X540715Y611640D03*
Y607900D03*
Y604160D03*
X530085D03*
Y611640D03*
G54D138*
X420400Y167900D03*
X537900Y290400D03*
G54D139*
X435400Y557900D03*
X192400Y430400D03*
G54D140*
X510400Y500400D03*
X460400D03*
X502900Y587900D03*
X510400Y452900D03*
X502900Y550400D03*
G54D141*
X195400Y524400D03*
X0Y0D02*
M02*
