*
*
G04 PADS 9.3 Build Number: 433611 generated Gerber (RS-274-X) file*
G04 PC Version=2.1*
*
%IN "IES_Rev-B.pcb"*%
*
%MOIN*%
*
%FSLAX35Y35*%
*
*
*
*
G04 PC Standard Apertures*
*
*
G04 Thermal Relief Aperture macro.*
%AMTER*
1,1,$1,0,0*
1,0,$1-$2,0,0*
21,0,$3,$4,0,0,45*
21,0,$3,$4,0,0,135*
%
*
*
G04 Annular Aperture macro.*
%AMANN*
1,1,$1,0,0*
1,0,$2,0,0*
%
*
*
G04 Odd Aperture macro.*
%AMODD*
1,1,$1,0,0*
1,0,$1-0.005,0,0*
%
*
*
G04 PC Custom Aperture Macros*
*
*
*
*
*
*
G04 PC Aperture Table*
*
%ADD010C,0.001*%
%ADD011R,0.01181X0.05906*%
%ADD012R,0.05906X0.01181*%
%ADD051R,0.06X0.06*%
%ADD085C,0.01*%
%ADD102C,0.00787*%
%ADD143R,0.06X0.05*%
%ADD243R,0.05X0.06*%
%ADD244R,0.075X0.08*%
%ADD245R,0.08X0.075*%
%ADD246C,0.01181*%
%ADD247R,0.065X0.125*%
%ADD248R,0.06X0.1*%
%ADD249R,0.02362X0.01575*%
%ADD250R,0.02362X0.01181*%
%ADD251R,0.03937X0.0374*%
%ADD252R,0.0374X0.03937*%
%ADD254R,0.09252X0.09646*%
%ADD255R,0.05709X0.01181*%
%ADD256R,0.02362X0.06102*%
%ADD257R,0.06102X0.02362*%
%ADD258R,0.01575X0.02362*%
%ADD259R,0.01181X0.02362*%
%ADD260R,0.036X0.036*%
%ADD261R,0.05X0.036*%
%ADD262R,0.02244X0.02441*%
%ADD263R,0.08858X0.10827*%
%ADD264R,0.02165X0.04331*%
%ADD265R,0.145X0.16*%
%ADD266R,0.0315X0.0315*%
%ADD267R,0.024X0.05*%
%ADD268R,0.05X0.024*%
%ADD269R,0.05315X0.06496*%
%ADD270R,0.08X0.02756*%
%ADD272R,0.01181X0.05512*%
%ADD273R,0.02441X0.02244*%
%ADD274R,0.01772X0.03346*%
%ADD275R,0.01181X0.03346*%
%ADD276R,0.03346X0.01772*%
%ADD277R,0.03346X0.01181*%
%ADD278R,0.05709X0.01772*%
%ADD279R,0.03937X0.08465*%
%ADD280R,0.2185X0.27953*%
%ADD281R,0.04724X0.05709*%
%ADD282C,0.01969*%
%ADD283R,0.12992X0.08465*%
%ADD284R,0.13976X0.10039*%
%ADD289R,0.08858X0.07087*%
%ADD290R,0.07087X0.08858*%
%ADD291R,0.01772X0.05709*%
%ADD293R,0.01102X0.02953*%
%ADD294R,0.02953X0.01102*%
%ADD295R,0.11024X0.1063*%
%ADD298R,0.04724X0.05512*%
%ADD372C,0.00039*%
%ADD385R,0.07X0.013*%
%ADD386R,0.03543X0.04724*%
%ADD387R,0.03543X0.03937*%
%ADD393R,0.02362X0.04331*%
%ADD396R,0.03937X0.03543*%
%ADD397R,0.02165X0.06693*%
%ADD400R,0.12008X0.05512*%
*
*
*
*
G04 PC Circuitry*
G04 Layer Name IES_Rev-B.pcb - circuitry*
%LPD*%
*
*
G04 PC Custom Flashes*
G04 Layer Name IES_Rev-B.pcb - flashes*
%LPD*%
*
*
G04 PC Circuitry*
G04 Layer Name IES_Rev-B.pcb - circuitry*
%LPD*%
*
G54D10*
G54D11*
G01X1501894Y1236567D03*
X1503863D03*
X1505831D03*
X1507800D03*
X1509768D03*
X1511737D03*
X1513705D03*
X1515674D03*
X1517642D03*
X1519611D03*
X1521579D03*
X1523548D03*
Y1269638D03*
X1521579D03*
X1519611D03*
X1517642D03*
X1515674D03*
X1513705D03*
X1511737D03*
X1509768D03*
X1507800D03*
X1505831D03*
X1503863D03*
X1501894D03*
X1393073Y1129165D03*
X1395042D03*
X1397010D03*
X1398979D03*
X1400947D03*
X1402916D03*
X1404884D03*
X1406853D03*
X1408821D03*
X1410790D03*
X1412758D03*
X1414727D03*
Y1162235D03*
X1412758D03*
X1410790D03*
X1408821D03*
X1406853D03*
X1404884D03*
X1402916D03*
X1400947D03*
X1398979D03*
X1397010D03*
X1395042D03*
X1393073D03*
G54D12*
X1496185Y1263929D03*
Y1261961D03*
Y1259992D03*
Y1258024D03*
Y1256055D03*
Y1254087D03*
Y1252118D03*
Y1250150D03*
Y1248181D03*
Y1246213D03*
Y1244244D03*
Y1242276D03*
X1529256D03*
Y1244244D03*
Y1246213D03*
Y1248181D03*
Y1250150D03*
Y1252118D03*
Y1254087D03*
Y1256055D03*
Y1258024D03*
Y1259992D03*
Y1261961D03*
Y1263929D03*
X1387365Y1156527D03*
Y1154558D03*
Y1152590D03*
Y1150621D03*
Y1148653D03*
Y1146684D03*
Y1144716D03*
Y1142747D03*
Y1140779D03*
Y1138810D03*
Y1136842D03*
Y1134873D03*
X1420435D03*
Y1136842D03*
Y1138810D03*
Y1140779D03*
Y1142747D03*
Y1144716D03*
Y1146684D03*
Y1148653D03*
Y1150621D03*
Y1152590D03*
Y1154558D03*
Y1156527D03*
G54D51*
X1529900Y1332750D03*
Y1319250D03*
X1392000Y1351250D03*
Y1364750D03*
Y1332750D03*
Y1319250D03*
X1529900Y1351250D03*
Y1364750D03*
G54D85*
X1422800Y1426500D02*
Y1412500D01*
X1437200*
Y1426500*
X1422800*
X1423000Y1412500D02*
Y1426500D01*
X1423500Y1412500D02*
Y1426500D01*
X1424000Y1412500D02*
Y1426500D01*
X1424500Y1412500D02*
Y1426500D01*
X1425000Y1412500D02*
Y1426500D01*
X1425500Y1412500D02*
Y1426500D01*
X1426000Y1412500D02*
Y1426500D01*
X1426500Y1412500D02*
Y1426500D01*
X1427000Y1412500D02*
Y1426500D01*
X1427500Y1412500D02*
Y1426500D01*
X1428000Y1412500D02*
Y1426500D01*
X1428500Y1412500D02*
Y1426500D01*
X1429000Y1412500D02*
Y1426500D01*
X1429500Y1412500D02*
Y1426500D01*
X1430000Y1412500D02*
Y1426500D01*
X1430500Y1412500D02*
Y1426500D01*
X1431000Y1412500D02*
Y1426500D01*
X1431500Y1412500D02*
Y1426500D01*
X1432000Y1412500D02*
Y1426500D01*
X1432500Y1412500D02*
Y1426500D01*
X1433000Y1412500D02*
Y1426500D01*
X1433500Y1412500D02*
Y1426500D01*
X1434000Y1412500D02*
Y1426500D01*
X1434500Y1412500D02*
Y1426500D01*
X1435000Y1412500D02*
Y1426500D01*
X1435500Y1412500D02*
Y1426500D01*
X1436000Y1412500D02*
Y1426500D01*
X1436500Y1412500D02*
Y1426500D01*
X1437000Y1412500D02*
Y1426500D01*
X1488499Y1438298D02*
X1502499D01*
Y1452698*
X1488499*
Y1438298*
Y1452698*
X1488999Y1438298D02*
Y1452698D01*
X1489499Y1438298D02*
Y1452698D01*
X1489999Y1438298D02*
Y1452698D01*
X1490499Y1438298D02*
Y1452698D01*
X1490999Y1438298D02*
Y1452698D01*
X1491499Y1438298D02*
Y1452698D01*
X1491999Y1438298D02*
Y1452698D01*
X1492499Y1438298D02*
Y1452698D01*
X1492999Y1438298D02*
Y1452698D01*
X1493499Y1438298D02*
Y1452698D01*
X1493999Y1438298D02*
Y1452698D01*
X1494499Y1438298D02*
Y1452698D01*
X1494999Y1438298D02*
Y1452698D01*
X1495499Y1438298D02*
Y1452698D01*
X1495999Y1438298D02*
Y1452698D01*
X1496499Y1438298D02*
Y1452698D01*
X1496999Y1438298D02*
Y1452698D01*
X1497499Y1438298D02*
Y1452698D01*
X1497999Y1438298D02*
Y1452698D01*
X1498499Y1438298D02*
Y1452698D01*
X1498999Y1438298D02*
Y1452698D01*
X1499499Y1438298D02*
Y1452698D01*
X1499999Y1438298D02*
Y1452698D01*
X1500499Y1438298D02*
Y1452698D01*
X1500999Y1438298D02*
Y1452698D01*
X1501499Y1438298D02*
Y1452698D01*
X1501999Y1438298D02*
Y1452698D01*
X1488499Y1365298D02*
X1502499D01*
Y1379698*
X1488499*
Y1365298*
Y1379698*
X1488999Y1365298D02*
Y1379698D01*
X1489499Y1365298D02*
Y1379698D01*
X1489999Y1365298D02*
Y1379698D01*
X1490499Y1365298D02*
Y1379698D01*
X1490999Y1365298D02*
Y1379698D01*
X1491499Y1365298D02*
Y1379698D01*
X1491999Y1365298D02*
Y1379698D01*
X1492499Y1365298D02*
Y1379698D01*
X1492999Y1365298D02*
Y1379698D01*
X1493499Y1365298D02*
Y1379698D01*
X1493999Y1365298D02*
Y1379698D01*
X1494499Y1365298D02*
Y1379698D01*
X1494999Y1365298D02*
Y1379698D01*
X1495499Y1365298D02*
Y1379698D01*
X1495999Y1365298D02*
Y1379698D01*
X1496499Y1365298D02*
Y1379698D01*
X1496999Y1365298D02*
Y1379698D01*
X1497499Y1365298D02*
Y1379698D01*
X1497999Y1365298D02*
Y1379698D01*
X1498499Y1365298D02*
Y1379698D01*
X1498999Y1365298D02*
Y1379698D01*
X1499499Y1365298D02*
Y1379698D01*
X1499999Y1365298D02*
Y1379698D01*
X1500499Y1365298D02*
Y1379698D01*
X1500999Y1365298D02*
Y1379698D01*
X1501499Y1365298D02*
Y1379698D01*
X1501999Y1365298D02*
Y1379698D01*
X1303491Y1647463D02*
Y1640900D01*
X1301900Y1647463D02*
X1305082D01*
X1308491D02*
X1308036Y1647150D01*
X1307582Y1646525*
X1307355Y1645900*
X1307127Y1644963*
X1307127D02*
Y1643400D01*
X1307355Y1642463*
X1307355D02*
X1307582Y1641838D01*
X1307582D02*
X1308036Y1641213D01*
X1308036D02*
X1308491Y1640900D01*
X1309400*
X1309855Y1641213*
X1309855D02*
X1310309Y1641838D01*
X1310309D02*
X1310536Y1642463D01*
X1310536D02*
X1310764Y1643400D01*
Y1644963*
X1310764D02*
X1310536Y1645900D01*
X1310309Y1646525*
X1309855Y1647150*
X1309400Y1647463*
X1309400D02*
X1308491D01*
X1312809D02*
Y1640900D01*
Y1647463D02*
X1314855D01*
X1314855D02*
X1315536Y1647150D01*
X1315764Y1646838*
X1315764D02*
X1315991Y1646213D01*
X1315991D02*
Y1645275D01*
X1315764Y1644650*
X1315536Y1644338*
X1315536D02*
X1314855Y1644025D01*
X1312809*
X1323264Y1647463D02*
Y1640900D01*
Y1647463D02*
X1325309D01*
X1325309D02*
X1325991Y1647150D01*
X1326218Y1646838*
X1326218D02*
X1326445Y1646213D01*
X1326445D02*
Y1645275D01*
X1326218Y1644650*
X1325991Y1644338*
X1325991D02*
X1325309Y1644025D01*
X1323264*
X1330309Y1647463D02*
X1328491Y1640900D01*
X1330309Y1647463D02*
X1332127Y1640900D01*
X1329173Y1643088D02*
X1331445D01*
X1337355Y1646525D02*
X1336900Y1647150D01*
X1336218Y1647463*
X1336218D02*
X1335309D01*
X1335309D02*
X1334627Y1647150D01*
X1334173Y1646525*
Y1645900*
X1334400Y1645275*
X1334627Y1644963*
X1334627D02*
X1335082Y1644650D01*
X1336445Y1644025*
X1336900Y1643713*
X1336900D02*
X1337127Y1643400D01*
X1337355Y1642775*
Y1641838*
X1337355D02*
X1336900Y1641213D01*
X1336900D02*
X1336218Y1640900D01*
X1335309*
X1334627Y1641213*
X1334627D02*
X1334173Y1641838D01*
X1340991Y1647463D02*
Y1640900D01*
X1339400Y1647463D02*
X1342582D01*
X1344627D02*
Y1640900D01*
Y1647463D02*
X1347582D01*
X1344627Y1644338D02*
X1346445D01*
X1344627Y1640900D02*
X1347582D01*
X1354855Y1647463D02*
Y1640900D01*
Y1647463D02*
X1356673Y1640900D01*
X1358491Y1647463D02*
X1356673Y1640900D01*
X1358491Y1647463D02*
Y1640900D01*
X1362355Y1647463D02*
X1360536Y1640900D01*
X1362355Y1647463D02*
X1364173Y1640900D01*
X1361218Y1643088D02*
X1363491D01*
X1369400Y1646525D02*
X1368945Y1647150D01*
X1368264Y1647463*
X1368264D02*
X1367355D01*
X1367355D02*
X1366673Y1647150D01*
X1366218Y1646525*
Y1645900*
X1366445Y1645275*
X1366673Y1644963*
X1366673D02*
X1367127Y1644650D01*
X1368491Y1644025*
X1368945Y1643713*
X1368945D02*
X1369173Y1643400D01*
X1369400Y1642775*
Y1641838*
X1369400D02*
X1368945Y1641213D01*
X1368945D02*
X1368264Y1640900D01*
X1367355*
X1366673Y1641213*
X1366673D02*
X1366218Y1641838D01*
X1371445Y1647463D02*
Y1640900D01*
X1374627Y1647463D02*
X1371445Y1643088D01*
X1372582Y1644650D02*
X1374627Y1640900D01*
X1632087Y1000000D02*
X1637087Y1005000D01*
Y1495000*
X1632087Y1500000*
X1019685*
X1000000Y1480315*
Y1462288*
X1000000*
Y1310659*
X1000252Y1300215*
X1000452Y1291902*
X1000698Y1281714*
X1000898Y1273395*
X1001318Y1256004*
X1001397Y1255492*
X1003077Y1244686*
X1004285Y1236911*
X1005919Y1226402*
X1007127Y1218626*
X1008761Y1208117*
X1009969Y1200342*
X1011603Y1189833*
X1012811Y1182058*
X1013278Y1179055*
X1014415Y1171795*
X1015712Y1163524*
X1020208Y1134831*
X1021512Y1126516*
X1021512D02*
X1023106Y1116339D01*
X1024412Y1108011*
X1026555Y1094331*
X1028911Y1079301*
X1030211Y1071004*
X1031840Y1060610*
X1031863Y1060462*
X1033509Y1052483*
X1041533Y1013583*
X1041905Y1011778*
X1055711Y1000000*
X1122000*
Y1028015*
X1134500D02*
G75*
G03X1122000I-6250J-0D01*
G01X1134500D02*
Y1000000D01*
X1210000*
Y1028214*
X1222000D02*
G03X1210000I-6000J-126D01*
G01X1222000D02*
Y1000000D01*
X1632087*
G54D102*
X1467890Y1343921D02*
X1454110D01*
Y1335398*
X1454253Y1335362*
X1454527Y1335252*
X1454782Y1335106*
X1455015Y1334925*
X1455221Y1334714*
X1455395Y1334476*
X1455535Y1334217*
X1455587Y1334079*
X1467890*
Y1343921*
X1454307Y1335341D02*
Y1343921D01*
X1454701Y1335152D02*
Y1343921D01*
X1455095Y1334843D02*
Y1343921D01*
X1455488Y1334304D02*
Y1343921D01*
X1455882Y1334079D02*
Y1343921D01*
X1456276Y1334079D02*
Y1343921D01*
X1456669Y1334079D02*
Y1343921D01*
X1457063Y1334079D02*
Y1343921D01*
X1457457Y1334079D02*
Y1343921D01*
X1457850Y1334079D02*
Y1343921D01*
X1458244Y1334079D02*
Y1343921D01*
X1458638Y1334079D02*
Y1343921D01*
X1459032Y1334079D02*
Y1343921D01*
X1459425Y1334079D02*
Y1343921D01*
X1459819Y1334079D02*
Y1343921D01*
X1460213Y1334079D02*
Y1343921D01*
X1460606Y1334079D02*
Y1343921D01*
X1461000Y1334079D02*
Y1343921D01*
X1461394Y1334079D02*
Y1343921D01*
X1461787Y1334079D02*
Y1343921D01*
X1462181Y1334079D02*
Y1343921D01*
X1462575Y1334079D02*
Y1343921D01*
X1462969Y1334079D02*
Y1343921D01*
X1463362Y1334079D02*
Y1343921D01*
X1463756Y1334079D02*
Y1343921D01*
X1464150Y1334079D02*
Y1343921D01*
X1464543Y1334079D02*
Y1343921D01*
X1464937Y1334079D02*
Y1343921D01*
X1465331Y1334079D02*
Y1343921D01*
X1465724Y1334079D02*
Y1343921D01*
X1466118Y1334079D02*
Y1343921D01*
X1466512Y1334079D02*
Y1343921D01*
X1466906Y1334079D02*
Y1343921D01*
X1467299Y1334079D02*
Y1343921D01*
X1467693Y1334079D02*
Y1343921D01*
G54D143*
X1514000Y1223000D03*
X1523000D03*
X1501500D03*
X1492500D03*
X1057000Y1052000D03*
X1066000D03*
X1028000Y1248500D03*
X1037000D03*
X1028000Y1259000D03*
X1037000D03*
X1065500Y1021000D03*
X1074500D03*
X1033500Y1301000D03*
X1024500D03*
X1369002Y1154259D03*
X1360002D03*
X1484500Y1315000D03*
X1475500D03*
X1444500D03*
X1435500D03*
X1414500D03*
X1423500D03*
X1505500D03*
X1496500D03*
X1034000Y1418000D03*
X1043000D03*
X1034000Y1404500D03*
X1043000D03*
X1392900Y1096410D03*
X1401900D03*
X1506500Y1032500D03*
X1515500D03*
G54D243*
X1441500Y1177000D03*
Y1186000D03*
X1453500Y1177000D03*
Y1186000D03*
X1395502Y1177259D03*
Y1186259D03*
X1430500Y1177000D03*
Y1186000D03*
X1057500Y1062500D03*
Y1071500D03*
X1054000Y1082500D03*
Y1091500D03*
X1050500Y1103000D03*
Y1112000D03*
X1047000Y1123000D03*
Y1132000D03*
X1044500Y1143000D03*
Y1152000D03*
X1042000Y1163500D03*
Y1172500D03*
X1038000Y1184500D03*
Y1193500D03*
X1033000Y1206500D03*
Y1215500D03*
Y1227500D03*
Y1236500D03*
X1478500Y1266000D03*
Y1275000D03*
X1418900Y1177200D03*
Y1186200D03*
X1464000Y1315500D03*
Y1306500D03*
X1061000Y1407500D03*
Y1416500D03*
X1220000Y1088000D03*
Y1097000D03*
X1501500Y1465500D03*
Y1474500D03*
X1033000Y1454500D03*
Y1445500D03*
G54D244*
X1524749Y1383498D03*
X1544249D03*
G54D245*
X1524499Y1443248D03*
Y1462748D03*
G54D246*
X1127677Y1438823D03*
X1130827D03*
X1133976D03*
X1137126D03*
X1140276D03*
X1143425D03*
X1146575D03*
X1149724D03*
X1152874D03*
X1156024D03*
X1159173D03*
X1162323D03*
X1127677Y1435673D03*
X1130827D03*
X1133976D03*
X1137126D03*
X1140276D03*
X1143425D03*
X1146575D03*
X1149724D03*
X1152874D03*
X1156024D03*
X1159173D03*
X1162323D03*
X1127677Y1432524D03*
X1130827D03*
X1133976D03*
X1137126D03*
X1140276D03*
X1143425D03*
X1146575D03*
X1149724D03*
X1152874D03*
X1156024D03*
X1159173D03*
X1162323D03*
X1127677Y1429374D03*
X1130827D03*
X1133976D03*
X1137126D03*
X1140276D03*
X1143425D03*
X1146575D03*
X1149724D03*
X1152874D03*
X1156024D03*
X1159173D03*
X1162323D03*
X1127677Y1426224D03*
X1130827D03*
X1133976D03*
X1137126D03*
X1152874D03*
X1156024D03*
X1159173D03*
X1162323D03*
X1127677Y1423075D03*
X1130827D03*
X1133976D03*
X1137126D03*
X1152874D03*
X1156024D03*
X1159173D03*
X1162323D03*
X1127677Y1419925D03*
X1130827D03*
X1133976D03*
X1137126D03*
X1152874D03*
X1156024D03*
X1159173D03*
X1162323D03*
X1127677Y1416776D03*
X1130827D03*
X1133976D03*
X1137126D03*
X1152874D03*
X1156024D03*
X1159173D03*
X1162323D03*
X1127677Y1413626D03*
X1130827D03*
X1133976D03*
X1137126D03*
X1140276D03*
X1143425D03*
X1146575D03*
X1149724D03*
X1152874D03*
X1156024D03*
X1159173D03*
X1162323D03*
X1127677Y1410476D03*
X1130827D03*
X1133976D03*
X1137126D03*
X1140276D03*
X1143425D03*
X1146575D03*
X1149724D03*
X1152874D03*
X1156024D03*
X1159173D03*
X1162323D03*
X1127677Y1407327D03*
X1130827D03*
X1133976D03*
X1137126D03*
X1140276D03*
X1143425D03*
X1146575D03*
X1149724D03*
X1152874D03*
X1156024D03*
X1159173D03*
X1162323D03*
X1127677Y1404177D03*
X1130827D03*
X1133976D03*
X1137126D03*
X1140276D03*
X1143425D03*
X1146575D03*
X1149724D03*
X1152874D03*
X1156024D03*
X1159173D03*
X1162323D03*
X1265177Y1438823D03*
X1268327D03*
X1271476D03*
X1274626D03*
X1277776D03*
X1280925D03*
X1284075D03*
X1287224D03*
X1290374D03*
X1293524D03*
X1296673D03*
X1299823D03*
X1265177Y1435673D03*
X1268327D03*
X1271476D03*
X1274626D03*
X1277776D03*
X1280925D03*
X1284075D03*
X1287224D03*
X1290374D03*
X1293524D03*
X1296673D03*
X1299823D03*
X1265177Y1432524D03*
X1268327D03*
X1271476D03*
X1274626D03*
X1277776D03*
X1280925D03*
X1284075D03*
X1287224D03*
X1290374D03*
X1293524D03*
X1296673D03*
X1299823D03*
X1265177Y1429374D03*
X1268327D03*
X1271476D03*
X1274626D03*
X1277776D03*
X1280925D03*
X1284075D03*
X1287224D03*
X1290374D03*
X1293524D03*
X1296673D03*
X1299823D03*
X1265177Y1426224D03*
X1268327D03*
X1271476D03*
X1274626D03*
X1290374D03*
X1293524D03*
X1296673D03*
X1299823D03*
X1265177Y1423075D03*
X1268327D03*
X1271476D03*
X1274626D03*
X1290374D03*
X1293524D03*
X1296673D03*
X1299823D03*
X1265177Y1419925D03*
X1268327D03*
X1271476D03*
X1274626D03*
X1290374D03*
X1293524D03*
X1296673D03*
X1299823D03*
X1265177Y1416776D03*
X1268327D03*
X1271476D03*
X1274626D03*
X1290374D03*
X1293524D03*
X1296673D03*
X1299823D03*
X1265177Y1413626D03*
X1268327D03*
X1271476D03*
X1274626D03*
X1277776D03*
X1280925D03*
X1284075D03*
X1287224D03*
X1290374D03*
X1293524D03*
X1296673D03*
X1299823D03*
X1265177Y1410476D03*
X1268327D03*
X1271476D03*
X1274626D03*
X1277776D03*
X1280925D03*
X1284075D03*
X1287224D03*
X1290374D03*
X1293524D03*
X1296673D03*
X1299823D03*
X1265177Y1407327D03*
X1268327D03*
X1271476D03*
X1274626D03*
X1277776D03*
X1280925D03*
X1284075D03*
X1287224D03*
X1290374D03*
X1293524D03*
X1296673D03*
X1299823D03*
X1265177Y1404177D03*
X1268327D03*
X1271476D03*
X1274626D03*
X1277776D03*
X1280925D03*
X1284075D03*
X1287224D03*
X1290374D03*
X1293524D03*
X1296673D03*
X1299823D03*
X1265177Y1315823D03*
X1268327D03*
X1271476D03*
X1274626D03*
X1277776D03*
X1280925D03*
X1284075D03*
X1287224D03*
X1290374D03*
X1293524D03*
X1296673D03*
X1299823D03*
X1265177Y1312673D03*
X1268327D03*
X1271476D03*
X1274626D03*
X1277776D03*
X1280925D03*
X1284075D03*
X1287224D03*
X1290374D03*
X1293524D03*
X1296673D03*
X1299823D03*
X1265177Y1309524D03*
X1268327D03*
X1271476D03*
X1274626D03*
X1277776D03*
X1280925D03*
X1284075D03*
X1287224D03*
X1290374D03*
X1293524D03*
X1296673D03*
X1299823D03*
X1265177Y1306374D03*
X1268327D03*
X1271476D03*
X1274626D03*
X1277776D03*
X1280925D03*
X1284075D03*
X1287224D03*
X1290374D03*
X1293524D03*
X1296673D03*
X1299823D03*
X1265177Y1303224D03*
X1268327D03*
X1271476D03*
X1274626D03*
X1290374D03*
X1293524D03*
X1296673D03*
X1299823D03*
X1265177Y1300075D03*
X1268327D03*
X1271476D03*
X1274626D03*
X1290374D03*
X1293524D03*
X1296673D03*
X1299823D03*
X1265177Y1296925D03*
X1268327D03*
X1271476D03*
X1274626D03*
X1290374D03*
X1293524D03*
X1296673D03*
X1299823D03*
X1265177Y1293776D03*
X1268327D03*
X1271476D03*
X1274626D03*
X1290374D03*
X1293524D03*
X1296673D03*
X1299823D03*
X1265177Y1290626D03*
X1268327D03*
X1271476D03*
X1274626D03*
X1277776D03*
X1280925D03*
X1284075D03*
X1287224D03*
X1290374D03*
X1293524D03*
X1296673D03*
X1299823D03*
X1265177Y1287476D03*
X1268327D03*
X1271476D03*
X1274626D03*
X1277776D03*
X1280925D03*
X1284075D03*
X1287224D03*
X1290374D03*
X1293524D03*
X1296673D03*
X1299823D03*
X1265177Y1284327D03*
X1268327D03*
X1271476D03*
X1274626D03*
X1277776D03*
X1280925D03*
X1284075D03*
X1287224D03*
X1290374D03*
X1293524D03*
X1296673D03*
X1299823D03*
X1265177Y1281177D03*
X1268327D03*
X1271476D03*
X1274626D03*
X1277776D03*
X1280925D03*
X1284075D03*
X1287224D03*
X1290374D03*
X1293524D03*
X1296673D03*
X1299823D03*
X1391177Y1266823D03*
X1394327D03*
X1397476D03*
X1400626D03*
X1403776D03*
X1406925D03*
X1410075D03*
X1413224D03*
X1416374D03*
X1419524D03*
X1422673D03*
X1425823D03*
X1391177Y1263673D03*
X1394327D03*
X1397476D03*
X1400626D03*
X1403776D03*
X1406925D03*
X1410075D03*
X1413224D03*
X1416374D03*
X1419524D03*
X1422673D03*
X1425823D03*
X1391177Y1260524D03*
X1394327D03*
X1397476D03*
X1400626D03*
X1403776D03*
X1406925D03*
X1410075D03*
X1413224D03*
X1416374D03*
X1419524D03*
X1422673D03*
X1425823D03*
X1391177Y1257374D03*
X1394327D03*
X1397476D03*
X1400626D03*
X1403776D03*
X1406925D03*
X1410075D03*
X1413224D03*
X1416374D03*
X1419524D03*
X1422673D03*
X1425823D03*
X1391177Y1254224D03*
X1394327D03*
X1397476D03*
X1400626D03*
X1416374D03*
X1419524D03*
X1422673D03*
X1425823D03*
X1391177Y1251075D03*
X1394327D03*
X1397476D03*
X1400626D03*
X1416374D03*
X1419524D03*
X1422673D03*
X1425823D03*
X1391177Y1247925D03*
X1394327D03*
X1397476D03*
X1400626D03*
X1416374D03*
X1419524D03*
X1422673D03*
X1425823D03*
X1391177Y1244776D03*
X1394327D03*
X1397476D03*
X1400626D03*
X1416374D03*
X1419524D03*
X1422673D03*
X1425823D03*
X1391177Y1241626D03*
X1394327D03*
X1397476D03*
X1400626D03*
X1403776D03*
X1406925D03*
X1410075D03*
X1413224D03*
X1416374D03*
X1419524D03*
X1422673D03*
X1425823D03*
X1391177Y1238476D03*
X1394327D03*
X1397476D03*
X1400626D03*
X1403776D03*
X1406925D03*
X1410075D03*
X1413224D03*
X1416374D03*
X1419524D03*
X1422673D03*
X1425823D03*
X1391177Y1235327D03*
X1394327D03*
X1397476D03*
X1400626D03*
X1403776D03*
X1406925D03*
X1410075D03*
X1413224D03*
X1416374D03*
X1419524D03*
X1422673D03*
X1425823D03*
X1391177Y1232177D03*
X1394327D03*
X1397476D03*
X1400626D03*
X1403776D03*
X1406925D03*
X1410075D03*
X1413224D03*
X1416374D03*
X1419524D03*
X1422673D03*
X1425823D03*
X1265177Y1195823D03*
X1268327D03*
X1271476D03*
X1274626D03*
X1277776D03*
X1280925D03*
X1284075D03*
X1287224D03*
X1290374D03*
X1293524D03*
X1296673D03*
X1299823D03*
X1265177Y1192673D03*
X1268327D03*
X1271476D03*
X1274626D03*
X1277776D03*
X1280925D03*
X1284075D03*
X1287224D03*
X1290374D03*
X1293524D03*
X1296673D03*
X1299823D03*
X1265177Y1189524D03*
X1268327D03*
X1271476D03*
X1274626D03*
X1277776D03*
X1280925D03*
X1284075D03*
X1287224D03*
X1290374D03*
X1293524D03*
X1296673D03*
X1299823D03*
X1265177Y1186374D03*
X1268327D03*
X1271476D03*
X1274626D03*
X1277776D03*
X1280925D03*
X1284075D03*
X1287224D03*
X1290374D03*
X1293524D03*
X1296673D03*
X1299823D03*
X1265177Y1183224D03*
X1268327D03*
X1271476D03*
X1274626D03*
X1290374D03*
X1293524D03*
X1296673D03*
X1299823D03*
X1265177Y1180075D03*
X1268327D03*
X1271476D03*
X1274626D03*
X1290374D03*
X1293524D03*
X1296673D03*
X1299823D03*
X1265177Y1176925D03*
X1268327D03*
X1271476D03*
X1274626D03*
X1290374D03*
X1293524D03*
X1296673D03*
X1299823D03*
X1265177Y1173776D03*
X1268327D03*
X1271476D03*
X1274626D03*
X1290374D03*
X1293524D03*
X1296673D03*
X1299823D03*
X1265177Y1170626D03*
X1268327D03*
X1271476D03*
X1274626D03*
X1277776D03*
X1280925D03*
X1284075D03*
X1287224D03*
X1290374D03*
X1293524D03*
X1296673D03*
X1299823D03*
X1265177Y1167476D03*
X1268327D03*
X1271476D03*
X1274626D03*
X1277776D03*
X1280925D03*
X1284075D03*
X1287224D03*
X1290374D03*
X1293524D03*
X1296673D03*
X1299823D03*
X1265177Y1164327D03*
X1268327D03*
X1271476D03*
X1274626D03*
X1277776D03*
X1280925D03*
X1284075D03*
X1287224D03*
X1290374D03*
X1293524D03*
X1296673D03*
X1299823D03*
X1265177Y1161177D03*
X1268327D03*
X1271476D03*
X1274626D03*
X1277776D03*
X1280925D03*
X1284075D03*
X1287224D03*
X1290374D03*
X1293524D03*
X1296673D03*
X1299823D03*
X1127677Y1195823D03*
X1130827D03*
X1133976D03*
X1137126D03*
X1140276D03*
X1143425D03*
X1146575D03*
X1149724D03*
X1152874D03*
X1156024D03*
X1159173D03*
X1162323D03*
X1127677Y1192673D03*
X1130827D03*
X1133976D03*
X1137126D03*
X1140276D03*
X1143425D03*
X1146575D03*
X1149724D03*
X1152874D03*
X1156024D03*
X1159173D03*
X1162323D03*
X1127677Y1189524D03*
X1130827D03*
X1133976D03*
X1137126D03*
X1140276D03*
X1143425D03*
X1146575D03*
X1149724D03*
X1152874D03*
X1156024D03*
X1159173D03*
X1162323D03*
X1127677Y1186374D03*
X1130827D03*
X1133976D03*
X1137126D03*
X1140276D03*
X1143425D03*
X1146575D03*
X1149724D03*
X1152874D03*
X1156024D03*
X1159173D03*
X1162323D03*
X1127677Y1183224D03*
X1130827D03*
X1133976D03*
X1137126D03*
X1152874D03*
X1156024D03*
X1159173D03*
X1162323D03*
X1127677Y1180075D03*
X1130827D03*
X1133976D03*
X1137126D03*
X1152874D03*
X1156024D03*
X1159173D03*
X1162323D03*
X1127677Y1176925D03*
X1130827D03*
X1133976D03*
X1137126D03*
X1152874D03*
X1156024D03*
X1159173D03*
X1162323D03*
X1127677Y1173776D03*
X1130827D03*
X1133976D03*
X1137126D03*
X1152874D03*
X1156024D03*
X1159173D03*
X1162323D03*
X1127677Y1170626D03*
X1130827D03*
X1133976D03*
X1137126D03*
X1140276D03*
X1143425D03*
X1146575D03*
X1149724D03*
X1152874D03*
X1156024D03*
X1159173D03*
X1162323D03*
X1127677Y1167476D03*
X1130827D03*
X1133976D03*
X1137126D03*
X1140276D03*
X1143425D03*
X1146575D03*
X1149724D03*
X1152874D03*
X1156024D03*
X1159173D03*
X1162323D03*
X1127677Y1164327D03*
X1130827D03*
X1133976D03*
X1137126D03*
X1140276D03*
X1143425D03*
X1146575D03*
X1149724D03*
X1152874D03*
X1156024D03*
X1159173D03*
X1162323D03*
X1127677Y1161177D03*
X1130827D03*
X1133976D03*
X1137126D03*
X1140276D03*
X1143425D03*
X1146575D03*
X1149724D03*
X1152874D03*
X1156024D03*
X1159173D03*
X1162323D03*
X1127677Y1315823D03*
X1130827D03*
X1133976D03*
X1137126D03*
X1140276D03*
X1143425D03*
X1146575D03*
X1149724D03*
X1152874D03*
X1156024D03*
X1159173D03*
X1162323D03*
X1127677Y1312673D03*
X1130827D03*
X1133976D03*
X1137126D03*
X1140276D03*
X1143425D03*
X1146575D03*
X1149724D03*
X1152874D03*
X1156024D03*
X1159173D03*
X1162323D03*
X1127677Y1309524D03*
X1130827D03*
X1133976D03*
X1137126D03*
X1140276D03*
X1143425D03*
X1146575D03*
X1149724D03*
X1152874D03*
X1156024D03*
X1159173D03*
X1162323D03*
X1127677Y1306374D03*
X1130827D03*
X1133976D03*
X1137126D03*
X1140276D03*
X1143425D03*
X1146575D03*
X1149724D03*
X1152874D03*
X1156024D03*
X1159173D03*
X1162323D03*
X1127677Y1303224D03*
X1130827D03*
X1133976D03*
X1137126D03*
X1152874D03*
X1156024D03*
X1159173D03*
X1162323D03*
X1127677Y1300075D03*
X1130827D03*
X1133976D03*
X1137126D03*
X1152874D03*
X1156024D03*
X1159173D03*
X1162323D03*
X1127677Y1296925D03*
X1130827D03*
X1133976D03*
X1137126D03*
X1152874D03*
X1156024D03*
X1159173D03*
X1162323D03*
X1127677Y1293776D03*
X1130827D03*
X1133976D03*
X1137126D03*
X1152874D03*
X1156024D03*
X1159173D03*
X1162323D03*
X1127677Y1290626D03*
X1130827D03*
X1133976D03*
X1137126D03*
X1140276D03*
X1143425D03*
X1146575D03*
X1149724D03*
X1152874D03*
X1156024D03*
X1159173D03*
X1162323D03*
X1127677Y1287476D03*
X1130827D03*
X1133976D03*
X1137126D03*
X1140276D03*
X1143425D03*
X1146575D03*
X1149724D03*
X1152874D03*
X1156024D03*
X1159173D03*
X1162323D03*
X1127677Y1284327D03*
X1130827D03*
X1133976D03*
X1137126D03*
X1140276D03*
X1143425D03*
X1146575D03*
X1149724D03*
X1152874D03*
X1156024D03*
X1159173D03*
X1162323D03*
X1127677Y1281177D03*
X1130827D03*
X1133976D03*
X1137126D03*
X1140276D03*
X1143425D03*
X1146575D03*
X1149724D03*
X1152874D03*
X1156024D03*
X1159173D03*
X1162323D03*
G54D247*
X1453270Y1442640D03*
X1427770D03*
X1367750Y1039000D03*
X1393250D03*
G54D248*
X1544250Y1342000D03*
X1557750D03*
X1364250D03*
X1377750D03*
X1374900Y1094250D03*
X1361400D03*
G54D249*
X1476835Y1245850D03*
X1481165D03*
X1476835Y1252150D03*
X1481165D03*
X1476835Y1233350D03*
X1481165D03*
X1476835Y1239650D03*
X1481165D03*
X1367837Y1138609D03*
X1372167D03*
X1367837Y1144909D03*
X1372167D03*
X1367837Y1126109D03*
X1372167D03*
X1367837Y1132409D03*
X1372167D03*
X1232165Y1160650D03*
X1227835D03*
X1232165Y1154350D03*
X1227835D03*
X1094165Y1190650D03*
X1089835D03*
X1094165Y1184350D03*
X1089835D03*
X1094165Y1310650D03*
X1089835D03*
X1094165Y1304350D03*
X1089835D03*
X1094165Y1433650D03*
X1089835D03*
X1094165Y1427350D03*
X1089835D03*
X1231665Y1433650D03*
X1227335D03*
X1231665Y1427350D03*
X1227335D03*
X1231665Y1310650D03*
X1227335D03*
X1231665Y1304350D03*
X1227335D03*
X1232165Y1173650D03*
X1227835D03*
X1232165Y1167350D03*
X1227835D03*
X1094165Y1173650D03*
X1089835D03*
X1094165Y1167350D03*
X1089835D03*
X1094165Y1293650D03*
X1089835D03*
X1094165Y1287350D03*
X1089835D03*
X1094165Y1416650D03*
X1089835D03*
X1094165Y1410350D03*
X1089835D03*
X1231665Y1416650D03*
X1227335D03*
X1231665Y1410350D03*
X1227335D03*
X1231665Y1293650D03*
X1227335D03*
X1231665Y1287350D03*
X1227335D03*
X1227835Y1141850D03*
X1232165D03*
X1227835Y1148150D03*
X1232165D03*
G54D250*
X1476835Y1248016D03*
X1481165D03*
X1476835Y1249984D03*
X1481165D03*
X1476835Y1235516D03*
X1481165D03*
X1476835Y1237484D03*
X1481165D03*
X1367837Y1140775D03*
X1372167D03*
X1367837Y1142743D03*
X1372167D03*
X1367837Y1128275D03*
X1372167D03*
X1367837Y1130243D03*
X1372167D03*
X1232165Y1158484D03*
X1227835D03*
X1232165Y1156516D03*
X1227835D03*
X1094165Y1188484D03*
X1089835D03*
X1094165Y1186516D03*
X1089835D03*
X1094165Y1308484D03*
X1089835D03*
X1094165Y1306516D03*
X1089835D03*
X1094165Y1431484D03*
X1089835D03*
X1094165Y1429516D03*
X1089835D03*
X1231665Y1431484D03*
X1227335D03*
X1231665Y1429516D03*
X1227335D03*
X1231665Y1308484D03*
X1227335D03*
X1231665Y1306516D03*
X1227335D03*
X1232165Y1171484D03*
X1227835D03*
X1232165Y1169516D03*
X1227835D03*
X1094165Y1171484D03*
X1089835D03*
X1094165Y1169516D03*
X1089835D03*
X1094165Y1291484D03*
X1089835D03*
X1094165Y1289516D03*
X1089835D03*
X1094165Y1414484D03*
X1089835D03*
X1094165Y1412516D03*
X1089835D03*
X1231665Y1414484D03*
X1227335D03*
X1231665Y1412516D03*
X1227335D03*
X1231665Y1291484D03*
X1227335D03*
X1231665Y1289516D03*
X1227335D03*
X1227835Y1144016D03*
X1232165D03*
X1227835Y1145984D03*
X1232165D03*
G54D251*
X1364000Y1296350D03*
Y1302650D03*
X1437000Y1360850D03*
Y1367150D03*
X1306500Y1245350D03*
Y1251650D03*
X1309500Y1125350D03*
Y1131650D03*
X1169000D03*
Y1125350D03*
Y1245350D03*
Y1251650D03*
X1182000Y1368350D03*
Y1374650D03*
X1319500Y1368350D03*
Y1374650D03*
X1182000Y1125350D03*
Y1131650D03*
X1319500Y1251650D03*
Y1245350D03*
X1182000D03*
Y1251650D03*
X1444000Y1196350D03*
Y1202650D03*
X1169000Y1368350D03*
Y1374650D03*
X1306610Y1374010D03*
Y1367710D03*
X1117000Y1351650D03*
Y1345350D03*
X1254500Y1351650D03*
Y1345350D03*
X1117000Y1231650D03*
Y1225350D03*
X1380500Y1302650D03*
Y1296350D03*
X1117000Y1474650D03*
Y1468350D03*
X1254500Y1474650D03*
Y1468350D03*
X1404400Y1175050D03*
Y1181350D03*
X1410900Y1175050D03*
Y1181350D03*
X1513500Y1282350D03*
Y1288650D03*
X1520000Y1282350D03*
Y1288650D03*
X1454000Y1461850D03*
Y1468150D03*
X1417350Y1114930D03*
Y1108630D03*
X1149500Y1041350D03*
Y1047650D03*
X1157000Y1041350D03*
Y1047650D03*
X1178500Y1095850D03*
Y1102150D03*
Y1088650D03*
Y1082350D03*
X1164500Y1041350D03*
Y1047650D03*
X1143000D03*
Y1041350D03*
X1069500Y1110350D03*
Y1116650D03*
X1372500Y1180350D03*
Y1186650D03*
X1461670Y1094860D03*
Y1088560D03*
X1442500Y1345850D03*
Y1352150D03*
X1495500Y1039350D03*
Y1045650D03*
X1511999Y1405648D03*
Y1399348D03*
X1479500Y1352150D03*
Y1345850D03*
X1454000Y1302850D03*
Y1309150D03*
X1453950Y1316330D03*
Y1322630D03*
X1483000Y1093650D03*
Y1087350D03*
X1408000Y1113650D03*
Y1107350D03*
X1068000Y1398150D03*
Y1391850D03*
X1536000Y1051150D03*
Y1044850D03*
X1475500Y1087350D03*
Y1093650D03*
X1465500Y1066350D03*
Y1072650D03*
X1457000Y1357850D03*
Y1364150D03*
X1464000Y1357850D03*
Y1364150D03*
G54D252*
X1191850Y1443500D03*
X1198150D03*
Y1414000D03*
X1191850D03*
X1329350Y1443500D03*
X1335650D03*
Y1414000D03*
X1329350D03*
Y1320500D03*
X1335650D03*
Y1291000D03*
X1329350D03*
X1455350Y1271500D03*
X1461650D03*
Y1242000D03*
X1455350D03*
X1191850Y1200500D03*
X1198150D03*
Y1171000D03*
X1191850D03*
Y1320500D03*
X1198150D03*
Y1291000D03*
X1191850D03*
X1414850Y1324000D03*
X1421150D03*
X1429150Y1361000D03*
X1422850D03*
X1514550Y1359300D03*
X1520850D03*
X1505150Y1324000D03*
X1498850D03*
X1233150Y1179500D03*
X1226850D03*
X1487350Y1358000D03*
X1493650D03*
X1233150Y1192500D03*
X1226850D03*
X1088850Y1204000D03*
X1095150D03*
X1226350Y1324000D03*
X1232650D03*
X1088850D03*
X1095150D03*
X1088850Y1447000D03*
X1095150D03*
X1226350D03*
X1232650D03*
X1356640Y1219040D03*
X1350340D03*
X1358650Y1289000D03*
X1352350D03*
X1226850Y1199000D03*
X1233150D03*
X1435650Y1156910D03*
X1441950D03*
X1435650Y1150410D03*
X1441950D03*
X1542350Y1260400D03*
X1548650D03*
X1542350Y1253600D03*
X1548650D03*
X1426650Y1467000D03*
X1420350D03*
X1467150Y1482000D03*
X1460850D03*
X1403850Y1461000D03*
X1410150D03*
X1082150Y1073000D03*
X1075850D03*
X1120850Y1064000D03*
X1127150D03*
X1082150Y1087500D03*
X1075850D03*
X1121350Y1085000D03*
X1127650D03*
X1121350Y1078000D03*
X1127650D03*
X1120850Y1099000D03*
X1127150D03*
X1114850Y1057000D03*
X1121150D03*
X1120350Y1109000D03*
X1126650D03*
X1164350Y1112000D03*
X1170650D03*
X1164350Y1105000D03*
X1170650D03*
Y1098000D03*
X1164350D03*
X1210650Y1089000D03*
X1204350D03*
Y1082500D03*
X1210650D03*
Y1096000D03*
X1204350D03*
X1082150Y1080000D03*
X1075850D03*
X1120850Y1071000D03*
X1127150D03*
X1079650Y1095500D03*
X1073350D03*
X1075850Y1066500D03*
X1082150D03*
X1075850Y1103500D03*
X1082150D03*
X1120850Y1091500D03*
X1127150D03*
X1082150Y1110000D03*
X1075850D03*
X1216850Y1057000D03*
X1223150D03*
X1216850Y1070000D03*
X1223150D03*
X1216850Y1076500D03*
X1223150D03*
X1216850Y1063500D03*
X1223150D03*
X1359120Y1054260D03*
X1365420D03*
X1341850Y1076000D03*
X1348150D03*
X1341850Y1048000D03*
X1348150D03*
X1341850Y1104000D03*
X1348150D03*
X1341850Y1097000D03*
X1348150D03*
X1341850Y1090000D03*
X1348150D03*
X1341850Y1055000D03*
X1348150D03*
X1341850Y1062000D03*
X1348150D03*
X1341850Y1083000D03*
X1348150D03*
X1341850Y1041000D03*
X1348150D03*
X1341850Y1069000D03*
X1348150D03*
X1384350Y1107000D03*
X1390650D03*
X1384350Y1114000D03*
X1390650D03*
X1337150Y1164500D03*
X1330850D03*
X1415270Y1070720D03*
X1408970D03*
X1453650Y1134000D03*
X1447350D03*
X1461350Y1463500D03*
X1467650D03*
X1532350Y1223000D03*
X1538650D03*
X1489150Y1126500D03*
X1482850D03*
X1489150Y1117500D03*
X1482850D03*
X1447350Y1482000D03*
X1453650D03*
X1499850Y1358000D03*
X1506150D03*
X1429150Y1367500D03*
X1422850D03*
X1467150Y1475000D03*
X1460850D03*
X1470850Y1051000D03*
X1477150D03*
X1367850Y1170500D03*
X1374150D03*
X1438050Y1141200D03*
X1431750D03*
X1548650Y1245000D03*
X1542350D03*
X1436650Y1134000D03*
X1430350D03*
X1055650Y1388000D03*
X1049350D03*
X1361150Y1193000D03*
X1354850D03*
X1062850Y1451000D03*
X1069150D03*
X1062850Y1458000D03*
X1069150D03*
X1062850Y1465000D03*
X1069150D03*
X1052150Y1451000D03*
X1045850D03*
X1046850Y1428000D03*
X1053150D03*
G54D254*
X1426205Y1391000D03*
X1401795D03*
G54D255*
X1057236Y1263138D03*
Y1261169D03*
Y1259201D03*
Y1257232D03*
Y1255264D03*
Y1253295D03*
Y1251327D03*
Y1249358D03*
Y1247390D03*
Y1245421D03*
Y1243453D03*
Y1241484D03*
Y1239516D03*
Y1237547D03*
Y1235579D03*
Y1233610D03*
Y1231642D03*
Y1229673D03*
Y1227705D03*
Y1225736D03*
Y1223768D03*
Y1221799D03*
Y1219831D03*
Y1217862D03*
X1086764D03*
Y1219831D03*
Y1221799D03*
Y1223768D03*
Y1225736D03*
Y1227705D03*
Y1229673D03*
Y1231642D03*
Y1233610D03*
Y1235579D03*
Y1237547D03*
Y1239516D03*
Y1241484D03*
Y1243453D03*
Y1245421D03*
Y1247390D03*
Y1249358D03*
Y1251327D03*
Y1253295D03*
Y1255264D03*
Y1257232D03*
Y1259201D03*
Y1261169D03*
Y1263138D03*
X1136339Y1108937D03*
Y1106969D03*
Y1105000D03*
Y1103031D03*
Y1101063D03*
X1153661D03*
Y1103031D03*
Y1105000D03*
Y1106969D03*
Y1108937D03*
X1356839Y1115437D03*
Y1113469D03*
Y1111500D03*
Y1109531D03*
Y1107563D03*
X1374161D03*
Y1109531D03*
Y1111500D03*
Y1113469D03*
Y1115437D03*
G54D256*
X1192500Y1253870D03*
X1197500D03*
X1202500D03*
X1207500D03*
Y1275130D03*
X1202500D03*
X1197500D03*
X1192500D03*
Y1376870D03*
X1197500D03*
X1202500D03*
X1207500D03*
Y1398130D03*
X1202500D03*
X1197500D03*
X1192500D03*
X1330000Y1376870D03*
X1335000D03*
X1340000D03*
X1345000D03*
Y1398130D03*
X1340000D03*
X1335000D03*
X1330000D03*
Y1253870D03*
X1335000D03*
X1340000D03*
X1345000D03*
Y1275130D03*
X1340000D03*
X1335000D03*
X1330000D03*
X1456000Y1204870D03*
X1461000D03*
X1466000D03*
X1471000D03*
Y1226130D03*
X1466000D03*
X1461000D03*
X1456000D03*
X1330000Y1133870D03*
X1335000D03*
X1340000D03*
X1345000D03*
Y1155130D03*
X1340000D03*
X1335000D03*
X1330000D03*
X1192500Y1133870D03*
X1197500D03*
X1202500D03*
X1207500D03*
Y1155130D03*
X1202500D03*
X1197500D03*
X1192500D03*
G54D257*
X1526053Y1048760D03*
Y1053760D03*
Y1058760D03*
Y1063760D03*
Y1068760D03*
Y1073760D03*
Y1078760D03*
Y1083760D03*
X1505187D03*
Y1078760D03*
Y1073760D03*
Y1068760D03*
Y1063760D03*
Y1058760D03*
Y1053760D03*
Y1048760D03*
G54D258*
X1113850Y1250665D03*
Y1246335D03*
X1120150Y1250665D03*
Y1246335D03*
X1113850Y1373665D03*
Y1369335D03*
X1120150Y1373665D03*
Y1369335D03*
X1294150Y1246335D03*
Y1250665D03*
X1287850Y1246335D03*
Y1250665D03*
X1156650Y1126335D03*
Y1130665D03*
X1150350Y1126335D03*
Y1130665D03*
X1125350D03*
Y1126335D03*
X1131650Y1130665D03*
Y1126335D03*
X1113850Y1130665D03*
Y1126335D03*
X1120150Y1130665D03*
Y1126335D03*
X1125350Y1250665D03*
Y1246335D03*
X1131650Y1250665D03*
Y1246335D03*
X1156650Y1369335D03*
Y1373665D03*
X1150350Y1369335D03*
Y1373665D03*
X1125350D03*
Y1369335D03*
X1131650Y1373665D03*
Y1369335D03*
X1294150D03*
Y1373665D03*
X1287850Y1369335D03*
Y1373665D03*
X1262850D03*
Y1369335D03*
X1269150Y1373665D03*
Y1369335D03*
X1251350Y1373665D03*
Y1369335D03*
X1257650Y1373665D03*
Y1369335D03*
X1262850Y1250665D03*
Y1246335D03*
X1269150Y1250665D03*
Y1246335D03*
X1251350Y1250665D03*
Y1246335D03*
X1257650Y1250665D03*
Y1246335D03*
X1156650D03*
Y1250665D03*
X1150350Y1246335D03*
Y1250665D03*
G54D259*
X1116016D03*
Y1246335D03*
X1117984Y1250665D03*
Y1246335D03*
X1116016Y1373665D03*
Y1369335D03*
X1117984Y1373665D03*
Y1369335D03*
X1291984Y1246335D03*
Y1250665D03*
X1290016Y1246335D03*
Y1250665D03*
X1154484Y1126335D03*
Y1130665D03*
X1152516Y1126335D03*
Y1130665D03*
X1127516D03*
Y1126335D03*
X1129484Y1130665D03*
Y1126335D03*
X1116016Y1130665D03*
Y1126335D03*
X1117984Y1130665D03*
Y1126335D03*
X1127516Y1250665D03*
Y1246335D03*
X1129484Y1250665D03*
Y1246335D03*
X1154484Y1369335D03*
Y1373665D03*
X1152516Y1369335D03*
Y1373665D03*
X1127516D03*
Y1369335D03*
X1129484Y1373665D03*
Y1369335D03*
X1291984D03*
Y1373665D03*
X1290016Y1369335D03*
Y1373665D03*
X1265016D03*
Y1369335D03*
X1266984Y1373665D03*
Y1369335D03*
X1253516Y1373665D03*
Y1369335D03*
X1255484Y1373665D03*
Y1369335D03*
X1265016Y1250665D03*
Y1246335D03*
X1266984Y1250665D03*
Y1246335D03*
X1253516Y1250665D03*
Y1246335D03*
X1255484Y1250665D03*
Y1246335D03*
X1154484D03*
Y1250665D03*
X1152516Y1246335D03*
Y1250665D03*
G54D260*
X1039900Y1387750D03*
Y1395250D03*
X1068900Y1435250D03*
Y1442750D03*
X1052900Y1435250D03*
Y1442750D03*
G54D261*
X1031900Y1391500D03*
X1060900Y1439000D03*
X1044900D03*
G54D262*
X1275890Y1381000D03*
X1272110D03*
X1275890Y1138000D03*
X1272110D03*
X1138390D03*
X1134610D03*
X1138390Y1258000D03*
X1134610D03*
X1138390Y1381000D03*
X1134610D03*
X1275890Y1258000D03*
X1272110D03*
X1170890Y1138000D03*
X1167110D03*
X1170890Y1258000D03*
X1167110D03*
X1168890Y1381000D03*
X1165110D03*
X1308390D03*
X1304610D03*
X1308390Y1258000D03*
X1304610D03*
X1389390Y1209000D03*
X1385610D03*
X1231390Y1422000D03*
X1227610D03*
X1231390Y1268500D03*
X1227610D03*
X1231390Y1273000D03*
X1227610D03*
Y1282000D03*
X1231390D03*
X1227610Y1277500D03*
X1231390D03*
Y1299000D03*
X1227610D03*
X1353610Y1231000D03*
X1357390D03*
X1334390Y1170000D03*
X1330610D03*
X1356280Y1213180D03*
X1352500D03*
X1356280Y1204180D03*
X1352500D03*
X1353610Y1295000D03*
X1357390D03*
X1352500Y1208680D03*
X1356280D03*
X1093890Y1153000D03*
X1090110D03*
X1093890Y1148500D03*
X1090110D03*
Y1162000D03*
X1093890D03*
X1090110Y1157500D03*
X1093890D03*
Y1179000D03*
X1090110D03*
X1093890Y1268500D03*
X1090110D03*
X1093890Y1273000D03*
X1090110D03*
Y1282000D03*
X1093890D03*
X1090110Y1277500D03*
X1093890D03*
Y1299000D03*
X1090110D03*
X1093890Y1391500D03*
X1090110D03*
X1093890Y1396000D03*
X1090110D03*
Y1405000D03*
X1093890D03*
X1090110Y1400500D03*
X1093890D03*
Y1422000D03*
X1090110D03*
X1231390Y1391500D03*
X1227610D03*
X1231390Y1396000D03*
X1227610D03*
Y1405000D03*
X1231390D03*
X1227610Y1400500D03*
X1231390D03*
X1343110Y1035500D03*
X1346890D03*
X1343110Y1030500D03*
X1346890D03*
G54D263*
X1524566Y1403498D03*
X1545432D03*
X1524566Y1421498D03*
X1545432D03*
G54D264*
X1443240Y1467215D03*
X1439500D03*
X1435760D03*
Y1456585D03*
X1439500D03*
X1443240D03*
G54D265*
X1430550Y1342000D03*
X1409450D03*
X1491450D03*
X1512550D03*
G54D266*
X1300000Y1368350D03*
Y1374650D03*
X1162500Y1245350D03*
Y1251650D03*
X1300000Y1245350D03*
Y1251650D03*
X1175500Y1368350D03*
Y1374650D03*
X1233150Y1186000D03*
X1226850D03*
X1313000Y1245350D03*
Y1251650D03*
X1358650Y1282500D03*
X1352350D03*
X1088850Y1197500D03*
X1095150D03*
X1313000Y1368350D03*
Y1374650D03*
X1088850Y1317500D03*
X1095150D03*
X1088850Y1440500D03*
X1095150D03*
X1226350D03*
X1232650D03*
X1226350Y1317500D03*
X1232650D03*
X1437500Y1196350D03*
Y1202650D03*
X1356350Y1225370D03*
X1350050D03*
X1175500Y1125350D03*
Y1131650D03*
X1403500Y1474150D03*
Y1467850D03*
X1175500Y1245350D03*
Y1251650D03*
X1303000Y1125350D03*
Y1131650D03*
X1162500Y1368350D03*
Y1374650D03*
Y1125350D03*
Y1131650D03*
G54D267*
X1422500Y1406000D03*
X1427500D03*
X1432500D03*
X1437500D03*
Y1428000D03*
X1432500D03*
X1427500D03*
X1422500D03*
G54D268*
X1508999Y1437998D03*
Y1442998D03*
Y1447998D03*
Y1452998D03*
X1486999D03*
Y1447998D03*
Y1442998D03*
Y1437998D03*
X1508999Y1364998D03*
Y1369998D03*
Y1374998D03*
Y1379998D03*
X1486999D03*
Y1374998D03*
Y1369998D03*
Y1364998D03*
G54D269*
X1337618Y1177929D03*
Y1194071D03*
X1327382D03*
Y1177929D03*
G54D270*
X1507874Y1140000D03*
Y1135000D03*
Y1130000D03*
Y1125000D03*
Y1120000D03*
Y1115000D03*
Y1110000D03*
Y1105000D03*
X1542126D03*
Y1110000D03*
Y1115000D03*
Y1120000D03*
Y1125000D03*
Y1130000D03*
Y1135000D03*
Y1140000D03*
G54D272*
X1505389Y1416159D03*
X1503420D03*
X1501452D03*
X1499483D03*
X1497515D03*
X1495546D03*
X1493578D03*
X1491609D03*
Y1398837D03*
X1493578D03*
X1495546D03*
X1497515D03*
X1499483D03*
X1501452D03*
X1503420D03*
X1505389D03*
G54D273*
X1242000Y1418110D03*
Y1421890D03*
Y1443110D03*
Y1446890D03*
Y1295610D03*
Y1299390D03*
Y1314110D03*
Y1317890D03*
X1368000Y1253110D03*
Y1256890D03*
X1242000Y1193508D03*
Y1197288D03*
X1104500Y1295610D03*
Y1299390D03*
Y1192110D03*
Y1195890D03*
Y1173610D03*
Y1177390D03*
Y1314110D03*
Y1317890D03*
Y1419110D03*
Y1422890D03*
Y1440910D03*
Y1444690D03*
X1242000Y1162110D03*
Y1165890D03*
X1141000Y1369610D03*
Y1373390D03*
Y1246610D03*
Y1250390D03*
Y1126610D03*
Y1130390D03*
X1136500Y1126610D03*
Y1130390D03*
X1260000D03*
Y1126610D03*
X1279000D03*
Y1130390D03*
X1369500Y1301390D03*
Y1297610D03*
X1288000Y1126610D03*
Y1130390D03*
X1374000Y1301390D03*
Y1297610D03*
X1283500Y1126610D03*
Y1130390D03*
X1409500Y1197610D03*
Y1201390D03*
X1414000Y1197610D03*
Y1201390D03*
X1418500Y1197610D03*
Y1201390D03*
X1432000Y1197610D03*
Y1201390D03*
X1292500Y1126610D03*
Y1130390D03*
X1423000Y1197610D03*
Y1201390D03*
X1136500Y1246610D03*
Y1250390D03*
X1145500Y1126610D03*
Y1130390D03*
X1250000Y1126610D03*
Y1130390D03*
X1136500Y1369610D03*
Y1373390D03*
X1145500Y1246610D03*
Y1250390D03*
X1255000Y1130390D03*
Y1126610D03*
X1274000Y1369610D03*
Y1373390D03*
X1278500Y1369610D03*
Y1373390D03*
X1427500Y1197610D03*
Y1201390D03*
X1145500Y1369610D03*
Y1373390D03*
X1283000Y1369610D03*
Y1373390D03*
Y1246610D03*
Y1250390D03*
X1274000Y1246610D03*
Y1250390D03*
X1278500Y1246610D03*
Y1250390D03*
G54D274*
X1257815Y1225547D03*
X1272185D03*
Y1231453D03*
X1257815D03*
X1431815Y1296547D03*
X1446185D03*
Y1302453D03*
X1431815D03*
X1168315Y1225547D03*
X1182685D03*
Y1231453D03*
X1168315D03*
X1409815Y1296547D03*
X1424185D03*
Y1302453D03*
X1409815D03*
X1146315Y1225547D03*
X1160685D03*
Y1231453D03*
X1146315D03*
X1168315Y1345547D03*
X1182685D03*
Y1351453D03*
X1168315D03*
Y1468547D03*
X1182685D03*
Y1474453D03*
X1168315D03*
X1305815Y1468547D03*
X1320185D03*
Y1474453D03*
X1305815D03*
Y1345547D03*
X1320185D03*
Y1351453D03*
X1305815D03*
X1387815Y1296547D03*
X1402185D03*
Y1302453D03*
X1387815D03*
X1124315Y1225547D03*
X1138685D03*
Y1231453D03*
X1124315D03*
X1146315Y1345547D03*
X1160685D03*
Y1351453D03*
X1146315D03*
X1124315Y1345547D03*
X1138685D03*
Y1351453D03*
X1124315D03*
X1146315Y1468547D03*
X1160685D03*
Y1474453D03*
X1146315D03*
X1124315Y1468547D03*
X1138685D03*
Y1474453D03*
X1124315D03*
X1283815Y1468547D03*
X1298185D03*
Y1474453D03*
X1283815D03*
X1261815Y1468547D03*
X1276185D03*
Y1474453D03*
X1261815D03*
X1283815Y1345547D03*
X1298185D03*
Y1351453D03*
X1283815D03*
X1261815Y1345547D03*
X1276185D03*
Y1351453D03*
X1261815D03*
X1279315Y1225547D03*
X1293685D03*
Y1231453D03*
X1279315D03*
G54D275*
X1260079Y1225547D03*
X1262047D03*
X1264016D03*
X1265984D03*
X1267953D03*
X1269921D03*
Y1231453D03*
X1267953D03*
X1265984D03*
X1264016D03*
X1262047D03*
X1260079D03*
X1434079Y1296547D03*
X1436047D03*
X1438016D03*
X1439984D03*
X1441953D03*
X1443921D03*
Y1302453D03*
X1441953D03*
X1439984D03*
X1438016D03*
X1436047D03*
X1434079D03*
X1170579Y1225547D03*
X1172547D03*
X1174516D03*
X1176484D03*
X1178453D03*
X1180421D03*
Y1231453D03*
X1178453D03*
X1176484D03*
X1174516D03*
X1172547D03*
X1170579D03*
X1412079Y1296547D03*
X1414047D03*
X1416016D03*
X1417984D03*
X1419953D03*
X1421921D03*
Y1302453D03*
X1419953D03*
X1417984D03*
X1416016D03*
X1414047D03*
X1412079D03*
X1148579Y1225547D03*
X1150547D03*
X1152516D03*
X1154484D03*
X1156453D03*
X1158421D03*
Y1231453D03*
X1156453D03*
X1154484D03*
X1152516D03*
X1150547D03*
X1148579D03*
X1170579Y1345547D03*
X1172547D03*
X1174516D03*
X1176484D03*
X1178453D03*
X1180421D03*
Y1351453D03*
X1178453D03*
X1176484D03*
X1174516D03*
X1172547D03*
X1170579D03*
Y1468547D03*
X1172547D03*
X1174516D03*
X1176484D03*
X1178453D03*
X1180421D03*
Y1474453D03*
X1178453D03*
X1176484D03*
X1174516D03*
X1172547D03*
X1170579D03*
X1308079Y1468547D03*
X1310047D03*
X1312016D03*
X1313984D03*
X1315953D03*
X1317921D03*
Y1474453D03*
X1315953D03*
X1313984D03*
X1312016D03*
X1310047D03*
X1308079D03*
Y1345547D03*
X1310047D03*
X1312016D03*
X1313984D03*
X1315953D03*
X1317921D03*
Y1351453D03*
X1315953D03*
X1313984D03*
X1312016D03*
X1310047D03*
X1308079D03*
X1390079Y1296547D03*
X1392047D03*
X1394016D03*
X1395984D03*
X1397953D03*
X1399921D03*
Y1302453D03*
X1397953D03*
X1395984D03*
X1394016D03*
X1392047D03*
X1390079D03*
X1126579Y1225547D03*
X1128547D03*
X1130516D03*
X1132484D03*
X1134453D03*
X1136421D03*
Y1231453D03*
X1134453D03*
X1132484D03*
X1130516D03*
X1128547D03*
X1126579D03*
X1148579Y1345547D03*
X1150547D03*
X1152516D03*
X1154484D03*
X1156453D03*
X1158421D03*
Y1351453D03*
X1156453D03*
X1154484D03*
X1152516D03*
X1150547D03*
X1148579D03*
X1126579Y1345547D03*
X1128547D03*
X1130516D03*
X1132484D03*
X1134453D03*
X1136421D03*
Y1351453D03*
X1134453D03*
X1132484D03*
X1130516D03*
X1128547D03*
X1126579D03*
X1148579Y1468547D03*
X1150547D03*
X1152516D03*
X1154484D03*
X1156453D03*
X1158421D03*
Y1474453D03*
X1156453D03*
X1154484D03*
X1152516D03*
X1150547D03*
X1148579D03*
X1126579Y1468547D03*
X1128547D03*
X1130516D03*
X1132484D03*
X1134453D03*
X1136421D03*
Y1474453D03*
X1134453D03*
X1132484D03*
X1130516D03*
X1128547D03*
X1126579D03*
X1286079Y1468547D03*
X1288047D03*
X1290016D03*
X1291984D03*
X1293953D03*
X1295921D03*
Y1474453D03*
X1293953D03*
X1291984D03*
X1290016D03*
X1288047D03*
X1286079D03*
X1264079Y1468547D03*
X1266047D03*
X1268016D03*
X1269984D03*
X1271953D03*
X1273921D03*
Y1474453D03*
X1271953D03*
X1269984D03*
X1268016D03*
X1266047D03*
X1264079D03*
X1286079Y1345547D03*
X1288047D03*
X1290016D03*
X1291984D03*
X1293953D03*
X1295921D03*
Y1351453D03*
X1293953D03*
X1291984D03*
X1290016D03*
X1288047D03*
X1286079D03*
X1264079Y1345547D03*
X1266047D03*
X1268016D03*
X1269984D03*
X1271953D03*
X1273921D03*
Y1351453D03*
X1271953D03*
X1269984D03*
X1268016D03*
X1266047D03*
X1264079D03*
X1281579Y1225547D03*
X1283547D03*
X1285516D03*
X1287484D03*
X1289453D03*
X1291421D03*
Y1231453D03*
X1289453D03*
X1287484D03*
X1285516D03*
X1283547D03*
X1281579D03*
G54D276*
X1358453Y1262315D03*
Y1276685D03*
X1352547D03*
Y1262315D03*
X1358453Y1238315D03*
Y1252685D03*
X1352547D03*
Y1238315D03*
G54D277*
X1358453Y1264579D03*
Y1266547D03*
Y1268516D03*
Y1270484D03*
Y1272453D03*
Y1274421D03*
X1352547D03*
Y1272453D03*
Y1270484D03*
Y1268516D03*
Y1266547D03*
Y1264579D03*
X1358453Y1240579D03*
Y1242547D03*
Y1244516D03*
Y1246484D03*
Y1248453D03*
Y1250421D03*
X1352547D03*
Y1248453D03*
Y1246484D03*
Y1244516D03*
Y1242547D03*
Y1240579D03*
G54D278*
X1427183Y1118339D03*
Y1115780D03*
Y1113220D03*
Y1110661D03*
X1450017D03*
Y1113220D03*
Y1115780D03*
Y1118339D03*
X1092839Y1076209D03*
Y1073650D03*
Y1071090D03*
Y1068531D03*
X1110161D03*
Y1071090D03*
Y1073650D03*
Y1076209D03*
X1092839Y1092499D03*
Y1089940D03*
Y1087380D03*
Y1084821D03*
X1110161D03*
Y1087380D03*
Y1089940D03*
Y1092499D03*
X1092839Y1108839D03*
Y1106280D03*
Y1103720D03*
Y1101161D03*
X1110161D03*
Y1103720D03*
Y1106280D03*
Y1108839D03*
G54D279*
X1104866Y1057207D03*
X1086914D03*
X1392865Y1080837D03*
X1383810D03*
X1374755D03*
G54D280*
X1095890Y1031616D03*
G54D281*
X1065346Y1040500D03*
X1058654D03*
G54D282*
X1312028Y1043472D03*
X1308091D03*
X1304154D03*
X1300217D03*
X1296280D03*
X1292343D03*
X1288406D03*
X1284469D03*
X1280532D03*
X1276595D03*
X1272658D03*
X1268721D03*
X1264784D03*
X1260846D03*
X1256909D03*
X1252972D03*
X1312028Y1047409D03*
X1308091D03*
X1304154D03*
X1300217D03*
X1296280D03*
X1292343D03*
X1288406D03*
X1284469D03*
X1280532D03*
X1276595D03*
X1272658D03*
X1268721D03*
X1264784D03*
X1260846D03*
X1256909D03*
X1252972D03*
X1312028Y1051346D03*
X1308091D03*
X1304154D03*
X1300217D03*
X1296280D03*
X1292343D03*
X1288406D03*
X1284469D03*
X1280532D03*
X1276595D03*
X1272658D03*
X1268721D03*
X1264784D03*
X1260846D03*
X1256909D03*
X1252972D03*
X1312028Y1055283D03*
X1308091D03*
X1304154D03*
X1300217D03*
X1296280D03*
X1292343D03*
X1288406D03*
X1284469D03*
X1280532D03*
X1276595D03*
X1272658D03*
X1268721D03*
X1264784D03*
X1260846D03*
X1256909D03*
X1252972D03*
X1312028Y1059220D03*
X1308091D03*
X1304154D03*
X1300217D03*
X1264784D03*
X1260846D03*
X1256909D03*
X1252972D03*
X1312028Y1063157D03*
X1308091D03*
X1304154D03*
X1300217D03*
X1264784D03*
X1260846D03*
X1256909D03*
X1252972D03*
X1312028Y1067094D03*
X1308091D03*
X1304154D03*
X1300217D03*
X1288406D03*
X1284469D03*
X1280532D03*
X1276595D03*
X1264784D03*
X1260846D03*
X1256909D03*
X1252972D03*
X1312028Y1071031D03*
X1308091D03*
X1304154D03*
X1300217D03*
X1288406D03*
X1284469D03*
X1280532D03*
X1276595D03*
X1264784D03*
X1260846D03*
X1256909D03*
X1252972D03*
X1312028Y1074969D03*
X1308091D03*
X1304154D03*
X1300217D03*
X1288406D03*
X1284469D03*
X1280532D03*
X1276595D03*
X1264784D03*
X1260846D03*
X1256909D03*
X1252972D03*
X1312028Y1078906D03*
X1308091D03*
X1304154D03*
X1300217D03*
X1288406D03*
X1284469D03*
X1280532D03*
X1276595D03*
X1264784D03*
X1260846D03*
X1256909D03*
X1252972D03*
X1312028Y1082843D03*
X1308091D03*
X1304154D03*
X1300217D03*
X1264784D03*
X1260846D03*
X1256909D03*
X1252972D03*
X1312028Y1086780D03*
X1308091D03*
X1304154D03*
X1300217D03*
X1264784D03*
X1260846D03*
X1256909D03*
X1252972D03*
X1312028Y1090717D03*
X1308091D03*
X1304154D03*
X1300217D03*
X1296280D03*
X1292343D03*
X1288406D03*
X1284469D03*
X1280532D03*
X1276595D03*
X1272658D03*
X1268721D03*
X1264784D03*
X1260846D03*
X1256909D03*
X1252972D03*
X1312028Y1094654D03*
X1308091D03*
X1304154D03*
X1300217D03*
X1296280D03*
X1292343D03*
X1288406D03*
X1284469D03*
X1280532D03*
X1276595D03*
X1272658D03*
X1268721D03*
X1264784D03*
X1260846D03*
X1256909D03*
X1252972D03*
X1312028Y1098591D03*
X1308091D03*
X1304154D03*
X1300217D03*
X1296280D03*
X1292343D03*
X1288406D03*
X1284469D03*
X1280532D03*
X1276595D03*
X1272658D03*
X1268721D03*
X1264784D03*
X1260846D03*
X1256909D03*
X1252972D03*
X1312028Y1102528D03*
X1308091D03*
X1304154D03*
X1300217D03*
X1296280D03*
X1292343D03*
X1288406D03*
X1284469D03*
X1280532D03*
X1276595D03*
X1272658D03*
X1268721D03*
X1264784D03*
X1260846D03*
X1256909D03*
X1252972D03*
G54D283*
X1383810Y1058003D03*
G54D284*
X1191500Y1101752D03*
Y1083248D03*
G54D289*
X1572000Y1338709D03*
Y1327291D03*
G54D290*
X1363291Y1362500D03*
X1374709D03*
G54D291*
X1471661Y1061339D03*
X1474221D03*
X1476780D03*
X1479339D03*
Y1078661D03*
X1476780D03*
X1474221D03*
X1471661D03*
G54D293*
X1454110Y1331520D03*
X1456079D03*
X1458047D03*
X1460016D03*
X1461984D03*
X1463953D03*
X1465921D03*
X1467890D03*
Y1346480D03*
X1465921D03*
X1463953D03*
X1461984D03*
X1460016D03*
X1458047D03*
X1456079D03*
X1454110D03*
G54D294*
X1470449Y1334079D03*
Y1336047D03*
Y1338016D03*
Y1339984D03*
Y1341953D03*
Y1343921D03*
X1451551D03*
Y1341953D03*
Y1339984D03*
Y1338016D03*
Y1336047D03*
Y1334079D03*
G54D295*
X1461000Y1339000D03*
X1461000D03*
G54D298*
X1191654Y1190331D03*
Y1181669D03*
X1198346D03*
Y1190331D03*
X1191654Y1310331D03*
Y1301669D03*
X1198346D03*
Y1310331D03*
X1191654Y1433331D03*
Y1424669D03*
X1198346D03*
Y1433331D03*
X1329154D03*
Y1424669D03*
X1335846D03*
Y1433331D03*
X1329154Y1310331D03*
Y1301669D03*
X1335846D03*
Y1310331D03*
X1455154Y1261331D03*
Y1252669D03*
X1461846D03*
Y1261331D03*
G54D372*
X1094374Y1033132D02*
Y1042620D01*
X1087957*
Y1033132*
X1094374*
X1087957D02*
Y1042620D01*
X1087977Y1033132D02*
Y1042620D01*
X1087996Y1033132D02*
Y1042620D01*
X1088016Y1033132D02*
Y1042620D01*
X1088036Y1033132D02*
Y1042620D01*
X1088055Y1033132D02*
Y1042620D01*
X1088075Y1033132D02*
Y1042620D01*
X1088095Y1033132D02*
Y1042620D01*
X1088114Y1033132D02*
Y1042620D01*
X1088134Y1033132D02*
Y1042620D01*
X1088154Y1033132D02*
Y1042620D01*
X1088174Y1033132D02*
Y1042620D01*
X1088193Y1033132D02*
Y1042620D01*
X1088213Y1033132D02*
Y1042620D01*
X1088233Y1033132D02*
Y1042620D01*
X1088252Y1033132D02*
Y1042620D01*
X1088272Y1033132D02*
Y1042620D01*
X1088292Y1033132D02*
Y1042620D01*
X1088311Y1033132D02*
Y1042620D01*
X1088331Y1033132D02*
Y1042620D01*
X1088351Y1033132D02*
Y1042620D01*
X1088370Y1033132D02*
Y1042620D01*
X1088390Y1033132D02*
Y1042620D01*
X1088410Y1033132D02*
Y1042620D01*
X1088429Y1033132D02*
Y1042620D01*
X1088449Y1033132D02*
Y1042620D01*
X1088469Y1033132D02*
Y1042620D01*
X1088488Y1033132D02*
Y1042620D01*
X1088508Y1033132D02*
Y1042620D01*
X1088528Y1033132D02*
Y1042620D01*
X1088548Y1033132D02*
Y1042620D01*
X1088567Y1033132D02*
Y1042620D01*
X1088587Y1033132D02*
Y1042620D01*
X1088607Y1033132D02*
Y1042620D01*
X1088626Y1033132D02*
Y1042620D01*
X1088646Y1033132D02*
Y1042620D01*
X1088666Y1033132D02*
Y1042620D01*
X1088685Y1033132D02*
Y1042620D01*
X1088705Y1033132D02*
Y1042620D01*
X1088725Y1033132D02*
Y1042620D01*
X1088744Y1033132D02*
Y1042620D01*
X1088764Y1033132D02*
Y1042620D01*
X1088784Y1033132D02*
Y1042620D01*
X1088803Y1033132D02*
Y1042620D01*
X1088823Y1033132D02*
Y1042620D01*
X1088843Y1033132D02*
Y1042620D01*
X1088862Y1033132D02*
Y1042620D01*
X1088882Y1033132D02*
Y1042620D01*
X1088902Y1033132D02*
Y1042620D01*
X1088922Y1033132D02*
Y1042620D01*
X1088941Y1033132D02*
Y1042620D01*
X1088961Y1033132D02*
Y1042620D01*
X1088981Y1033132D02*
Y1042620D01*
X1089000Y1033132D02*
Y1042620D01*
X1089020Y1033132D02*
Y1042620D01*
X1089040Y1033132D02*
Y1042620D01*
X1089059Y1033132D02*
Y1042620D01*
X1089079Y1033132D02*
Y1042620D01*
X1089099Y1033132D02*
Y1042620D01*
X1089118Y1033132D02*
Y1042620D01*
X1089138Y1033132D02*
Y1042620D01*
X1089158Y1033132D02*
Y1042620D01*
X1089177Y1033132D02*
Y1042620D01*
X1089197Y1033132D02*
Y1042620D01*
X1089217Y1033132D02*
Y1042620D01*
X1089236Y1033132D02*
Y1042620D01*
X1089256Y1033132D02*
Y1042620D01*
X1089276Y1033132D02*
Y1042620D01*
X1089296Y1033132D02*
Y1042620D01*
X1089315Y1033132D02*
Y1042620D01*
X1089335Y1033132D02*
Y1042620D01*
X1089355Y1033132D02*
Y1042620D01*
X1089374Y1033132D02*
Y1042620D01*
X1089394Y1033132D02*
Y1042620D01*
X1089414Y1033132D02*
Y1042620D01*
X1089433Y1033132D02*
Y1042620D01*
X1089453Y1033132D02*
Y1042620D01*
X1089473Y1033132D02*
Y1042620D01*
X1089492Y1033132D02*
Y1042620D01*
X1089512Y1033132D02*
Y1042620D01*
X1089532Y1033132D02*
Y1042620D01*
X1089551Y1033132D02*
Y1042620D01*
X1089571Y1033132D02*
Y1042620D01*
X1089591Y1033132D02*
Y1042620D01*
X1089611Y1033132D02*
Y1042620D01*
X1089630Y1033132D02*
Y1042620D01*
X1089650Y1033132D02*
Y1042620D01*
X1089670Y1033132D02*
Y1042620D01*
X1089689Y1033132D02*
Y1042620D01*
X1089709Y1033132D02*
Y1042620D01*
X1089729Y1033132D02*
Y1042620D01*
X1089748Y1033132D02*
Y1042620D01*
X1089768Y1033132D02*
Y1042620D01*
X1089788Y1033132D02*
Y1042620D01*
X1089807Y1033132D02*
Y1042620D01*
X1089827Y1033132D02*
Y1042620D01*
X1089847Y1033132D02*
Y1042620D01*
X1089866Y1033132D02*
Y1042620D01*
X1089886Y1033132D02*
Y1042620D01*
X1089906Y1033132D02*
Y1042620D01*
X1089925Y1033132D02*
Y1042620D01*
X1089945Y1033132D02*
Y1042620D01*
X1089965Y1033132D02*
Y1042620D01*
X1089985Y1033132D02*
Y1042620D01*
X1090004Y1033132D02*
Y1042620D01*
X1090024Y1033132D02*
Y1042620D01*
X1090044Y1033132D02*
Y1042620D01*
X1090063Y1033132D02*
Y1042620D01*
X1090083Y1033132D02*
Y1042620D01*
X1090103Y1033132D02*
Y1042620D01*
X1090122Y1033132D02*
Y1042620D01*
X1090142Y1033132D02*
Y1042620D01*
X1090162Y1033132D02*
Y1042620D01*
X1090181Y1033132D02*
Y1042620D01*
X1090201Y1033132D02*
Y1042620D01*
X1090221Y1033132D02*
Y1042620D01*
X1090240Y1033132D02*
Y1042620D01*
X1090260Y1033132D02*
Y1042620D01*
X1090280Y1033132D02*
Y1042620D01*
X1090299Y1033132D02*
Y1042620D01*
X1090319Y1033132D02*
Y1042620D01*
X1090339Y1033132D02*
Y1042620D01*
X1090359Y1033132D02*
Y1042620D01*
X1090378Y1033132D02*
Y1042620D01*
X1090398Y1033132D02*
Y1042620D01*
X1090418Y1033132D02*
Y1042620D01*
X1090437Y1033132D02*
Y1042620D01*
X1090457Y1033132D02*
Y1042620D01*
X1090477Y1033132D02*
Y1042620D01*
X1090496Y1033132D02*
Y1042620D01*
X1090516Y1033132D02*
Y1042620D01*
X1090536Y1033132D02*
Y1042620D01*
X1090555Y1033132D02*
Y1042620D01*
X1090575Y1033132D02*
Y1042620D01*
X1090595Y1033132D02*
Y1042620D01*
X1090614Y1033132D02*
Y1042620D01*
X1090634Y1033132D02*
Y1042620D01*
X1090654Y1033132D02*
Y1042620D01*
X1090674Y1033132D02*
Y1042620D01*
X1090693Y1033132D02*
Y1042620D01*
X1090713Y1033132D02*
Y1042620D01*
X1090733Y1033132D02*
Y1042620D01*
X1090752Y1033132D02*
Y1042620D01*
X1090772Y1033132D02*
Y1042620D01*
X1090792Y1033132D02*
Y1042620D01*
X1090811Y1033132D02*
Y1042620D01*
X1090831Y1033132D02*
Y1042620D01*
X1090851Y1033132D02*
Y1042620D01*
X1090870Y1033132D02*
Y1042620D01*
X1090890Y1033132D02*
Y1042620D01*
X1090910Y1033132D02*
Y1042620D01*
X1090929Y1033132D02*
Y1042620D01*
X1090949Y1033132D02*
Y1042620D01*
X1090969Y1033132D02*
Y1042620D01*
X1090988Y1033132D02*
Y1042620D01*
X1091008Y1033132D02*
Y1042620D01*
X1091028Y1033132D02*
Y1042620D01*
X1091048Y1033132D02*
Y1042620D01*
X1091067Y1033132D02*
Y1042620D01*
X1091087Y1033132D02*
Y1042620D01*
X1091107Y1033132D02*
Y1042620D01*
X1091126Y1033132D02*
Y1042620D01*
X1091146Y1033132D02*
Y1042620D01*
X1091166Y1033132D02*
Y1042620D01*
X1091185Y1033132D02*
Y1042620D01*
X1091205Y1033132D02*
Y1042620D01*
X1091225Y1033132D02*
Y1042620D01*
X1091244Y1033132D02*
Y1042620D01*
X1091264Y1033132D02*
Y1042620D01*
X1091284Y1033132D02*
Y1042620D01*
X1091303Y1033132D02*
Y1042620D01*
X1091323Y1033132D02*
Y1042620D01*
X1091343Y1033132D02*
Y1042620D01*
X1091362Y1033132D02*
Y1042620D01*
X1091382Y1033132D02*
Y1042620D01*
X1091402Y1033132D02*
Y1042620D01*
X1091422Y1033132D02*
Y1042620D01*
X1091441Y1033132D02*
Y1042620D01*
X1091461Y1033132D02*
Y1042620D01*
X1091481Y1033132D02*
Y1042620D01*
X1091500Y1033132D02*
Y1042620D01*
X1091520Y1033132D02*
Y1042620D01*
X1091540Y1033132D02*
Y1042620D01*
X1091559Y1033132D02*
Y1042620D01*
X1091579Y1033132D02*
Y1042620D01*
X1091599Y1033132D02*
Y1042620D01*
X1091618Y1033132D02*
Y1042620D01*
X1091638Y1033132D02*
Y1042620D01*
X1091658Y1033132D02*
Y1042620D01*
X1091677Y1033132D02*
Y1042620D01*
X1091697Y1033132D02*
Y1042620D01*
X1091717Y1033132D02*
Y1042620D01*
X1091736Y1033132D02*
Y1042620D01*
X1091756Y1033132D02*
Y1042620D01*
X1091776Y1033132D02*
Y1042620D01*
X1091796Y1033132D02*
Y1042620D01*
X1091815Y1033132D02*
Y1042620D01*
X1091835Y1033132D02*
Y1042620D01*
X1091855Y1033132D02*
Y1042620D01*
X1091874Y1033132D02*
Y1042620D01*
X1091894Y1033132D02*
Y1042620D01*
X1091914Y1033132D02*
Y1042620D01*
X1091933Y1033132D02*
Y1042620D01*
X1091953Y1033132D02*
Y1042620D01*
X1091973Y1033132D02*
Y1042620D01*
X1091992Y1033132D02*
Y1042620D01*
X1092012Y1033132D02*
Y1042620D01*
X1092032Y1033132D02*
Y1042620D01*
X1092051Y1033132D02*
Y1042620D01*
X1092071Y1033132D02*
Y1042620D01*
X1092091Y1033132D02*
Y1042620D01*
X1092111Y1033132D02*
Y1042620D01*
X1092130Y1033132D02*
Y1042620D01*
X1092150Y1033132D02*
Y1042620D01*
X1092170Y1033132D02*
Y1042620D01*
X1092189Y1033132D02*
Y1042620D01*
X1092209Y1033132D02*
Y1042620D01*
X1092229Y1033132D02*
Y1042620D01*
X1092248Y1033132D02*
Y1042620D01*
X1092268Y1033132D02*
Y1042620D01*
X1092288Y1033132D02*
Y1042620D01*
X1092307Y1033132D02*
Y1042620D01*
X1092327Y1033132D02*
Y1042620D01*
X1092347Y1033132D02*
Y1042620D01*
X1092366Y1033132D02*
Y1042620D01*
X1092386Y1033132D02*
Y1042620D01*
X1092406Y1033132D02*
Y1042620D01*
X1092425Y1033132D02*
Y1042620D01*
X1092445Y1033132D02*
Y1042620D01*
X1092465Y1033132D02*
Y1042620D01*
X1092485Y1033132D02*
Y1042620D01*
X1092504Y1033132D02*
Y1042620D01*
X1092524Y1033132D02*
Y1042620D01*
X1092544Y1033132D02*
Y1042620D01*
X1092563Y1033132D02*
Y1042620D01*
X1092583Y1033132D02*
Y1042620D01*
X1092603Y1033132D02*
Y1042620D01*
X1092622Y1033132D02*
Y1042620D01*
X1092642Y1033132D02*
Y1042620D01*
X1092662Y1033132D02*
Y1042620D01*
X1092681Y1033132D02*
Y1042620D01*
X1092701Y1033132D02*
Y1042620D01*
X1092721Y1033132D02*
Y1042620D01*
X1092740Y1033132D02*
Y1042620D01*
X1092760Y1033132D02*
Y1042620D01*
X1092780Y1033132D02*
Y1042620D01*
X1092799Y1033132D02*
Y1042620D01*
X1092819Y1033132D02*
Y1042620D01*
X1092839Y1033132D02*
Y1042620D01*
X1092859Y1033132D02*
Y1042620D01*
X1092878Y1033132D02*
Y1042620D01*
X1092898Y1033132D02*
Y1042620D01*
X1092918Y1033132D02*
Y1042620D01*
X1092937Y1033132D02*
Y1042620D01*
X1092957Y1033132D02*
Y1042620D01*
X1092977Y1033132D02*
Y1042620D01*
X1092996Y1033132D02*
Y1042620D01*
X1093016Y1033132D02*
Y1042620D01*
X1093036Y1033132D02*
Y1042620D01*
X1093055Y1033132D02*
Y1042620D01*
X1093075Y1033132D02*
Y1042620D01*
X1093095Y1033132D02*
Y1042620D01*
X1093114Y1033132D02*
Y1042620D01*
X1093134Y1033132D02*
Y1042620D01*
X1093154Y1033132D02*
Y1042620D01*
X1093174Y1033132D02*
Y1042620D01*
X1093193Y1033132D02*
Y1042620D01*
X1093213Y1033132D02*
Y1042620D01*
X1093233Y1033132D02*
Y1042620D01*
X1093252Y1033132D02*
Y1042620D01*
X1093272Y1033132D02*
Y1042620D01*
X1093292Y1033132D02*
Y1042620D01*
X1093311Y1033132D02*
Y1042620D01*
X1093331Y1033132D02*
Y1042620D01*
X1093351Y1033132D02*
Y1042620D01*
X1093370Y1033132D02*
Y1042620D01*
X1093390Y1033132D02*
Y1042620D01*
X1093410Y1033132D02*
Y1042620D01*
X1093429Y1033132D02*
Y1042620D01*
X1093449Y1033132D02*
Y1042620D01*
X1093469Y1033132D02*
Y1042620D01*
X1093488Y1033132D02*
Y1042620D01*
X1093508Y1033132D02*
Y1042620D01*
X1093528Y1033132D02*
Y1042620D01*
X1093548Y1033132D02*
Y1042620D01*
X1093567Y1033132D02*
Y1042620D01*
X1093587Y1033132D02*
Y1042620D01*
X1093607Y1033132D02*
Y1042620D01*
X1093626Y1033132D02*
Y1042620D01*
X1093646Y1033132D02*
Y1042620D01*
X1093666Y1033132D02*
Y1042620D01*
X1093685Y1033132D02*
Y1042620D01*
X1093705Y1033132D02*
Y1042620D01*
X1093725Y1033132D02*
Y1042620D01*
X1093744Y1033132D02*
Y1042620D01*
X1093764Y1033132D02*
Y1042620D01*
X1093784Y1033132D02*
Y1042620D01*
X1093803Y1033132D02*
Y1042620D01*
X1093823Y1033132D02*
Y1042620D01*
X1093843Y1033132D02*
Y1042620D01*
X1093862Y1033132D02*
Y1042620D01*
X1093882Y1033132D02*
Y1042620D01*
X1093902Y1033132D02*
Y1042620D01*
X1093922Y1033132D02*
Y1042620D01*
X1093941Y1033132D02*
Y1042620D01*
X1093961Y1033132D02*
Y1042620D01*
X1093981Y1033132D02*
Y1042620D01*
X1094000Y1033132D02*
Y1042620D01*
X1094020Y1033132D02*
Y1042620D01*
X1094040Y1033132D02*
Y1042620D01*
X1094059Y1033132D02*
Y1042620D01*
X1094079Y1033132D02*
Y1042620D01*
X1094099Y1033132D02*
Y1042620D01*
X1094118Y1033132D02*
Y1042620D01*
X1094138Y1033132D02*
Y1042620D01*
X1094158Y1033132D02*
Y1042620D01*
X1094177Y1033132D02*
Y1042620D01*
X1094197Y1033132D02*
Y1042620D01*
X1094217Y1033132D02*
Y1042620D01*
X1094236Y1033132D02*
Y1042620D01*
X1094256Y1033132D02*
Y1042620D01*
X1094276Y1033132D02*
Y1042620D01*
X1094296Y1033132D02*
Y1042620D01*
X1094315Y1033132D02*
Y1042620D01*
X1094335Y1033132D02*
Y1042620D01*
X1094355Y1033132D02*
Y1042620D01*
X1094374Y1020612D02*
Y1030100D01*
X1087957*
Y1020612*
X1094374*
X1087957D02*
Y1030100D01*
X1087977Y1020612D02*
Y1030100D01*
X1087996Y1020612D02*
Y1030100D01*
X1088016Y1020612D02*
Y1030100D01*
X1088036Y1020612D02*
Y1030100D01*
X1088055Y1020612D02*
Y1030100D01*
X1088075Y1020612D02*
Y1030100D01*
X1088095Y1020612D02*
Y1030100D01*
X1088114Y1020612D02*
Y1030100D01*
X1088134Y1020612D02*
Y1030100D01*
X1088154Y1020612D02*
Y1030100D01*
X1088174Y1020612D02*
Y1030100D01*
X1088193Y1020612D02*
Y1030100D01*
X1088213Y1020612D02*
Y1030100D01*
X1088233Y1020612D02*
Y1030100D01*
X1088252Y1020612D02*
Y1030100D01*
X1088272Y1020612D02*
Y1030100D01*
X1088292Y1020612D02*
Y1030100D01*
X1088311Y1020612D02*
Y1030100D01*
X1088331Y1020612D02*
Y1030100D01*
X1088351Y1020612D02*
Y1030100D01*
X1088370Y1020612D02*
Y1030100D01*
X1088390Y1020612D02*
Y1030100D01*
X1088410Y1020612D02*
Y1030100D01*
X1088429Y1020612D02*
Y1030100D01*
X1088449Y1020612D02*
Y1030100D01*
X1088469Y1020612D02*
Y1030100D01*
X1088488Y1020612D02*
Y1030100D01*
X1088508Y1020612D02*
Y1030100D01*
X1088528Y1020612D02*
Y1030100D01*
X1088548Y1020612D02*
Y1030100D01*
X1088567Y1020612D02*
Y1030100D01*
X1088587Y1020612D02*
Y1030100D01*
X1088607Y1020612D02*
Y1030100D01*
X1088626Y1020612D02*
Y1030100D01*
X1088646Y1020612D02*
Y1030100D01*
X1088666Y1020612D02*
Y1030100D01*
X1088685Y1020612D02*
Y1030100D01*
X1088705Y1020612D02*
Y1030100D01*
X1088725Y1020612D02*
Y1030100D01*
X1088744Y1020612D02*
Y1030100D01*
X1088764Y1020612D02*
Y1030100D01*
X1088784Y1020612D02*
Y1030100D01*
X1088803Y1020612D02*
Y1030100D01*
X1088823Y1020612D02*
Y1030100D01*
X1088843Y1020612D02*
Y1030100D01*
X1088862Y1020612D02*
Y1030100D01*
X1088882Y1020612D02*
Y1030100D01*
X1088902Y1020612D02*
Y1030100D01*
X1088922Y1020612D02*
Y1030100D01*
X1088941Y1020612D02*
Y1030100D01*
X1088961Y1020612D02*
Y1030100D01*
X1088981Y1020612D02*
Y1030100D01*
X1089000Y1020612D02*
Y1030100D01*
X1089020Y1020612D02*
Y1030100D01*
X1089040Y1020612D02*
Y1030100D01*
X1089059Y1020612D02*
Y1030100D01*
X1089079Y1020612D02*
Y1030100D01*
X1089099Y1020612D02*
Y1030100D01*
X1089118Y1020612D02*
Y1030100D01*
X1089138Y1020612D02*
Y1030100D01*
X1089158Y1020612D02*
Y1030100D01*
X1089177Y1020612D02*
Y1030100D01*
X1089197Y1020612D02*
Y1030100D01*
X1089217Y1020612D02*
Y1030100D01*
X1089236Y1020612D02*
Y1030100D01*
X1089256Y1020612D02*
Y1030100D01*
X1089276Y1020612D02*
Y1030100D01*
X1089296Y1020612D02*
Y1030100D01*
X1089315Y1020612D02*
Y1030100D01*
X1089335Y1020612D02*
Y1030100D01*
X1089355Y1020612D02*
Y1030100D01*
X1089374Y1020612D02*
Y1030100D01*
X1089394Y1020612D02*
Y1030100D01*
X1089414Y1020612D02*
Y1030100D01*
X1089433Y1020612D02*
Y1030100D01*
X1089453Y1020612D02*
Y1030100D01*
X1089473Y1020612D02*
Y1030100D01*
X1089492Y1020612D02*
Y1030100D01*
X1089512Y1020612D02*
Y1030100D01*
X1089532Y1020612D02*
Y1030100D01*
X1089551Y1020612D02*
Y1030100D01*
X1089571Y1020612D02*
Y1030100D01*
X1089591Y1020612D02*
Y1030100D01*
X1089611Y1020612D02*
Y1030100D01*
X1089630Y1020612D02*
Y1030100D01*
X1089650Y1020612D02*
Y1030100D01*
X1089670Y1020612D02*
Y1030100D01*
X1089689Y1020612D02*
Y1030100D01*
X1089709Y1020612D02*
Y1030100D01*
X1089729Y1020612D02*
Y1030100D01*
X1089748Y1020612D02*
Y1030100D01*
X1089768Y1020612D02*
Y1030100D01*
X1089788Y1020612D02*
Y1030100D01*
X1089807Y1020612D02*
Y1030100D01*
X1089827Y1020612D02*
Y1030100D01*
X1089847Y1020612D02*
Y1030100D01*
X1089866Y1020612D02*
Y1030100D01*
X1089886Y1020612D02*
Y1030100D01*
X1089906Y1020612D02*
Y1030100D01*
X1089925Y1020612D02*
Y1030100D01*
X1089945Y1020612D02*
Y1030100D01*
X1089965Y1020612D02*
Y1030100D01*
X1089985Y1020612D02*
Y1030100D01*
X1090004Y1020612D02*
Y1030100D01*
X1090024Y1020612D02*
Y1030100D01*
X1090044Y1020612D02*
Y1030100D01*
X1090063Y1020612D02*
Y1030100D01*
X1090083Y1020612D02*
Y1030100D01*
X1090103Y1020612D02*
Y1030100D01*
X1090122Y1020612D02*
Y1030100D01*
X1090142Y1020612D02*
Y1030100D01*
X1090162Y1020612D02*
Y1030100D01*
X1090181Y1020612D02*
Y1030100D01*
X1090201Y1020612D02*
Y1030100D01*
X1090221Y1020612D02*
Y1030100D01*
X1090240Y1020612D02*
Y1030100D01*
X1090260Y1020612D02*
Y1030100D01*
X1090280Y1020612D02*
Y1030100D01*
X1090299Y1020612D02*
Y1030100D01*
X1090319Y1020612D02*
Y1030100D01*
X1090339Y1020612D02*
Y1030100D01*
X1090359Y1020612D02*
Y1030100D01*
X1090378Y1020612D02*
Y1030100D01*
X1090398Y1020612D02*
Y1030100D01*
X1090418Y1020612D02*
Y1030100D01*
X1090437Y1020612D02*
Y1030100D01*
X1090457Y1020612D02*
Y1030100D01*
X1090477Y1020612D02*
Y1030100D01*
X1090496Y1020612D02*
Y1030100D01*
X1090516Y1020612D02*
Y1030100D01*
X1090536Y1020612D02*
Y1030100D01*
X1090555Y1020612D02*
Y1030100D01*
X1090575Y1020612D02*
Y1030100D01*
X1090595Y1020612D02*
Y1030100D01*
X1090614Y1020612D02*
Y1030100D01*
X1090634Y1020612D02*
Y1030100D01*
X1090654Y1020612D02*
Y1030100D01*
X1090674Y1020612D02*
Y1030100D01*
X1090693Y1020612D02*
Y1030100D01*
X1090713Y1020612D02*
Y1030100D01*
X1090733Y1020612D02*
Y1030100D01*
X1090752Y1020612D02*
Y1030100D01*
X1090772Y1020612D02*
Y1030100D01*
X1090792Y1020612D02*
Y1030100D01*
X1090811Y1020612D02*
Y1030100D01*
X1090831Y1020612D02*
Y1030100D01*
X1090851Y1020612D02*
Y1030100D01*
X1090870Y1020612D02*
Y1030100D01*
X1090890Y1020612D02*
Y1030100D01*
X1090910Y1020612D02*
Y1030100D01*
X1090929Y1020612D02*
Y1030100D01*
X1090949Y1020612D02*
Y1030100D01*
X1090969Y1020612D02*
Y1030100D01*
X1090988Y1020612D02*
Y1030100D01*
X1091008Y1020612D02*
Y1030100D01*
X1091028Y1020612D02*
Y1030100D01*
X1091048Y1020612D02*
Y1030100D01*
X1091067Y1020612D02*
Y1030100D01*
X1091087Y1020612D02*
Y1030100D01*
X1091107Y1020612D02*
Y1030100D01*
X1091126Y1020612D02*
Y1030100D01*
X1091146Y1020612D02*
Y1030100D01*
X1091166Y1020612D02*
Y1030100D01*
X1091185Y1020612D02*
Y1030100D01*
X1091205Y1020612D02*
Y1030100D01*
X1091225Y1020612D02*
Y1030100D01*
X1091244Y1020612D02*
Y1030100D01*
X1091264Y1020612D02*
Y1030100D01*
X1091284Y1020612D02*
Y1030100D01*
X1091303Y1020612D02*
Y1030100D01*
X1091323Y1020612D02*
Y1030100D01*
X1091343Y1020612D02*
Y1030100D01*
X1091362Y1020612D02*
Y1030100D01*
X1091382Y1020612D02*
Y1030100D01*
X1091402Y1020612D02*
Y1030100D01*
X1091422Y1020612D02*
Y1030100D01*
X1091441Y1020612D02*
Y1030100D01*
X1091461Y1020612D02*
Y1030100D01*
X1091481Y1020612D02*
Y1030100D01*
X1091500Y1020612D02*
Y1030100D01*
X1091520Y1020612D02*
Y1030100D01*
X1091540Y1020612D02*
Y1030100D01*
X1091559Y1020612D02*
Y1030100D01*
X1091579Y1020612D02*
Y1030100D01*
X1091599Y1020612D02*
Y1030100D01*
X1091618Y1020612D02*
Y1030100D01*
X1091638Y1020612D02*
Y1030100D01*
X1091658Y1020612D02*
Y1030100D01*
X1091677Y1020612D02*
Y1030100D01*
X1091697Y1020612D02*
Y1030100D01*
X1091717Y1020612D02*
Y1030100D01*
X1091736Y1020612D02*
Y1030100D01*
X1091756Y1020612D02*
Y1030100D01*
X1091776Y1020612D02*
Y1030100D01*
X1091796Y1020612D02*
Y1030100D01*
X1091815Y1020612D02*
Y1030100D01*
X1091835Y1020612D02*
Y1030100D01*
X1091855Y1020612D02*
Y1030100D01*
X1091874Y1020612D02*
Y1030100D01*
X1091894Y1020612D02*
Y1030100D01*
X1091914Y1020612D02*
Y1030100D01*
X1091933Y1020612D02*
Y1030100D01*
X1091953Y1020612D02*
Y1030100D01*
X1091973Y1020612D02*
Y1030100D01*
X1091992Y1020612D02*
Y1030100D01*
X1092012Y1020612D02*
Y1030100D01*
X1092032Y1020612D02*
Y1030100D01*
X1092051Y1020612D02*
Y1030100D01*
X1092071Y1020612D02*
Y1030100D01*
X1092091Y1020612D02*
Y1030100D01*
X1092111Y1020612D02*
Y1030100D01*
X1092130Y1020612D02*
Y1030100D01*
X1092150Y1020612D02*
Y1030100D01*
X1092170Y1020612D02*
Y1030100D01*
X1092189Y1020612D02*
Y1030100D01*
X1092209Y1020612D02*
Y1030100D01*
X1092229Y1020612D02*
Y1030100D01*
X1092248Y1020612D02*
Y1030100D01*
X1092268Y1020612D02*
Y1030100D01*
X1092288Y1020612D02*
Y1030100D01*
X1092307Y1020612D02*
Y1030100D01*
X1092327Y1020612D02*
Y1030100D01*
X1092347Y1020612D02*
Y1030100D01*
X1092366Y1020612D02*
Y1030100D01*
X1092386Y1020612D02*
Y1030100D01*
X1092406Y1020612D02*
Y1030100D01*
X1092425Y1020612D02*
Y1030100D01*
X1092445Y1020612D02*
Y1030100D01*
X1092465Y1020612D02*
Y1030100D01*
X1092485Y1020612D02*
Y1030100D01*
X1092504Y1020612D02*
Y1030100D01*
X1092524Y1020612D02*
Y1030100D01*
X1092544Y1020612D02*
Y1030100D01*
X1092563Y1020612D02*
Y1030100D01*
X1092583Y1020612D02*
Y1030100D01*
X1092603Y1020612D02*
Y1030100D01*
X1092622Y1020612D02*
Y1030100D01*
X1092642Y1020612D02*
Y1030100D01*
X1092662Y1020612D02*
Y1030100D01*
X1092681Y1020612D02*
Y1030100D01*
X1092701Y1020612D02*
Y1030100D01*
X1092721Y1020612D02*
Y1030100D01*
X1092740Y1020612D02*
Y1030100D01*
X1092760Y1020612D02*
Y1030100D01*
X1092780Y1020612D02*
Y1030100D01*
X1092799Y1020612D02*
Y1030100D01*
X1092819Y1020612D02*
Y1030100D01*
X1092839Y1020612D02*
Y1030100D01*
X1092859Y1020612D02*
Y1030100D01*
X1092878Y1020612D02*
Y1030100D01*
X1092898Y1020612D02*
Y1030100D01*
X1092918Y1020612D02*
Y1030100D01*
X1092937Y1020612D02*
Y1030100D01*
X1092957Y1020612D02*
Y1030100D01*
X1092977Y1020612D02*
Y1030100D01*
X1092996Y1020612D02*
Y1030100D01*
X1093016Y1020612D02*
Y1030100D01*
X1093036Y1020612D02*
Y1030100D01*
X1093055Y1020612D02*
Y1030100D01*
X1093075Y1020612D02*
Y1030100D01*
X1093095Y1020612D02*
Y1030100D01*
X1093114Y1020612D02*
Y1030100D01*
X1093134Y1020612D02*
Y1030100D01*
X1093154Y1020612D02*
Y1030100D01*
X1093174Y1020612D02*
Y1030100D01*
X1093193Y1020612D02*
Y1030100D01*
X1093213Y1020612D02*
Y1030100D01*
X1093233Y1020612D02*
Y1030100D01*
X1093252Y1020612D02*
Y1030100D01*
X1093272Y1020612D02*
Y1030100D01*
X1093292Y1020612D02*
Y1030100D01*
X1093311Y1020612D02*
Y1030100D01*
X1093331Y1020612D02*
Y1030100D01*
X1093351Y1020612D02*
Y1030100D01*
X1093370Y1020612D02*
Y1030100D01*
X1093390Y1020612D02*
Y1030100D01*
X1093410Y1020612D02*
Y1030100D01*
X1093429Y1020612D02*
Y1030100D01*
X1093449Y1020612D02*
Y1030100D01*
X1093469Y1020612D02*
Y1030100D01*
X1093488Y1020612D02*
Y1030100D01*
X1093508Y1020612D02*
Y1030100D01*
X1093528Y1020612D02*
Y1030100D01*
X1093548Y1020612D02*
Y1030100D01*
X1093567Y1020612D02*
Y1030100D01*
X1093587Y1020612D02*
Y1030100D01*
X1093607Y1020612D02*
Y1030100D01*
X1093626Y1020612D02*
Y1030100D01*
X1093646Y1020612D02*
Y1030100D01*
X1093666Y1020612D02*
Y1030100D01*
X1093685Y1020612D02*
Y1030100D01*
X1093705Y1020612D02*
Y1030100D01*
X1093725Y1020612D02*
Y1030100D01*
X1093744Y1020612D02*
Y1030100D01*
X1093764Y1020612D02*
Y1030100D01*
X1093784Y1020612D02*
Y1030100D01*
X1093803Y1020612D02*
Y1030100D01*
X1093823Y1020612D02*
Y1030100D01*
X1093843Y1020612D02*
Y1030100D01*
X1093862Y1020612D02*
Y1030100D01*
X1093882Y1020612D02*
Y1030100D01*
X1093902Y1020612D02*
Y1030100D01*
X1093922Y1020612D02*
Y1030100D01*
X1093941Y1020612D02*
Y1030100D01*
X1093961Y1020612D02*
Y1030100D01*
X1093981Y1020612D02*
Y1030100D01*
X1094000Y1020612D02*
Y1030100D01*
X1094020Y1020612D02*
Y1030100D01*
X1094040Y1020612D02*
Y1030100D01*
X1094059Y1020612D02*
Y1030100D01*
X1094079Y1020612D02*
Y1030100D01*
X1094099Y1020612D02*
Y1030100D01*
X1094118Y1020612D02*
Y1030100D01*
X1094138Y1020612D02*
Y1030100D01*
X1094158Y1020612D02*
Y1030100D01*
X1094177Y1020612D02*
Y1030100D01*
X1094197Y1020612D02*
Y1030100D01*
X1094217Y1020612D02*
Y1030100D01*
X1094236Y1020612D02*
Y1030100D01*
X1094256Y1020612D02*
Y1030100D01*
X1094276Y1020612D02*
Y1030100D01*
X1094296Y1020612D02*
Y1030100D01*
X1094315Y1020612D02*
Y1030100D01*
X1094335Y1020612D02*
Y1030100D01*
X1094355Y1020612D02*
Y1030100D01*
X1103823Y1033132D02*
Y1042620D01*
X1097406*
Y1033132*
X1103823*
X1097406D02*
Y1042620D01*
X1097425Y1033132D02*
Y1042620D01*
X1097445Y1033132D02*
Y1042620D01*
X1097465Y1033132D02*
Y1042620D01*
X1097485Y1033132D02*
Y1042620D01*
X1097504Y1033132D02*
Y1042620D01*
X1097524Y1033132D02*
Y1042620D01*
X1097544Y1033132D02*
Y1042620D01*
X1097563Y1033132D02*
Y1042620D01*
X1097583Y1033132D02*
Y1042620D01*
X1097603Y1033132D02*
Y1042620D01*
X1097622Y1033132D02*
Y1042620D01*
X1097642Y1033132D02*
Y1042620D01*
X1097662Y1033132D02*
Y1042620D01*
X1097681Y1033132D02*
Y1042620D01*
X1097701Y1033132D02*
Y1042620D01*
X1097721Y1033132D02*
Y1042620D01*
X1097740Y1033132D02*
Y1042620D01*
X1097760Y1033132D02*
Y1042620D01*
X1097780Y1033132D02*
Y1042620D01*
X1097799Y1033132D02*
Y1042620D01*
X1097819Y1033132D02*
Y1042620D01*
X1097839Y1033132D02*
Y1042620D01*
X1097859Y1033132D02*
Y1042620D01*
X1097878Y1033132D02*
Y1042620D01*
X1097898Y1033132D02*
Y1042620D01*
X1097918Y1033132D02*
Y1042620D01*
X1097937Y1033132D02*
Y1042620D01*
X1097957Y1033132D02*
Y1042620D01*
X1097977Y1033132D02*
Y1042620D01*
X1097996Y1033132D02*
Y1042620D01*
X1098016Y1033132D02*
Y1042620D01*
X1098036Y1033132D02*
Y1042620D01*
X1098055Y1033132D02*
Y1042620D01*
X1098075Y1033132D02*
Y1042620D01*
X1098095Y1033132D02*
Y1042620D01*
X1098114Y1033132D02*
Y1042620D01*
X1098134Y1033132D02*
Y1042620D01*
X1098154Y1033132D02*
Y1042620D01*
X1098174Y1033132D02*
Y1042620D01*
X1098193Y1033132D02*
Y1042620D01*
X1098213Y1033132D02*
Y1042620D01*
X1098233Y1033132D02*
Y1042620D01*
X1098252Y1033132D02*
Y1042620D01*
X1098272Y1033132D02*
Y1042620D01*
X1098292Y1033132D02*
Y1042620D01*
X1098311Y1033132D02*
Y1042620D01*
X1098331Y1033132D02*
Y1042620D01*
X1098351Y1033132D02*
Y1042620D01*
X1098370Y1033132D02*
Y1042620D01*
X1098390Y1033132D02*
Y1042620D01*
X1098410Y1033132D02*
Y1042620D01*
X1098429Y1033132D02*
Y1042620D01*
X1098449Y1033132D02*
Y1042620D01*
X1098469Y1033132D02*
Y1042620D01*
X1098488Y1033132D02*
Y1042620D01*
X1098508Y1033132D02*
Y1042620D01*
X1098528Y1033132D02*
Y1042620D01*
X1098548Y1033132D02*
Y1042620D01*
X1098567Y1033132D02*
Y1042620D01*
X1098587Y1033132D02*
Y1042620D01*
X1098607Y1033132D02*
Y1042620D01*
X1098626Y1033132D02*
Y1042620D01*
X1098646Y1033132D02*
Y1042620D01*
X1098666Y1033132D02*
Y1042620D01*
X1098685Y1033132D02*
Y1042620D01*
X1098705Y1033132D02*
Y1042620D01*
X1098725Y1033132D02*
Y1042620D01*
X1098744Y1033132D02*
Y1042620D01*
X1098764Y1033132D02*
Y1042620D01*
X1098784Y1033132D02*
Y1042620D01*
X1098803Y1033132D02*
Y1042620D01*
X1098823Y1033132D02*
Y1042620D01*
X1098843Y1033132D02*
Y1042620D01*
X1098862Y1033132D02*
Y1042620D01*
X1098882Y1033132D02*
Y1042620D01*
X1098902Y1033132D02*
Y1042620D01*
X1098922Y1033132D02*
Y1042620D01*
X1098941Y1033132D02*
Y1042620D01*
X1098961Y1033132D02*
Y1042620D01*
X1098981Y1033132D02*
Y1042620D01*
X1099000Y1033132D02*
Y1042620D01*
X1099020Y1033132D02*
Y1042620D01*
X1099040Y1033132D02*
Y1042620D01*
X1099059Y1033132D02*
Y1042620D01*
X1099079Y1033132D02*
Y1042620D01*
X1099099Y1033132D02*
Y1042620D01*
X1099118Y1033132D02*
Y1042620D01*
X1099138Y1033132D02*
Y1042620D01*
X1099158Y1033132D02*
Y1042620D01*
X1099177Y1033132D02*
Y1042620D01*
X1099197Y1033132D02*
Y1042620D01*
X1099217Y1033132D02*
Y1042620D01*
X1099236Y1033132D02*
Y1042620D01*
X1099256Y1033132D02*
Y1042620D01*
X1099276Y1033132D02*
Y1042620D01*
X1099296Y1033132D02*
Y1042620D01*
X1099315Y1033132D02*
Y1042620D01*
X1099335Y1033132D02*
Y1042620D01*
X1099355Y1033132D02*
Y1042620D01*
X1099374Y1033132D02*
Y1042620D01*
X1099394Y1033132D02*
Y1042620D01*
X1099414Y1033132D02*
Y1042620D01*
X1099433Y1033132D02*
Y1042620D01*
X1099453Y1033132D02*
Y1042620D01*
X1099473Y1033132D02*
Y1042620D01*
X1099492Y1033132D02*
Y1042620D01*
X1099512Y1033132D02*
Y1042620D01*
X1099532Y1033132D02*
Y1042620D01*
X1099551Y1033132D02*
Y1042620D01*
X1099571Y1033132D02*
Y1042620D01*
X1099591Y1033132D02*
Y1042620D01*
X1099611Y1033132D02*
Y1042620D01*
X1099630Y1033132D02*
Y1042620D01*
X1099650Y1033132D02*
Y1042620D01*
X1099670Y1033132D02*
Y1042620D01*
X1099689Y1033132D02*
Y1042620D01*
X1099709Y1033132D02*
Y1042620D01*
X1099729Y1033132D02*
Y1042620D01*
X1099748Y1033132D02*
Y1042620D01*
X1099768Y1033132D02*
Y1042620D01*
X1099788Y1033132D02*
Y1042620D01*
X1099807Y1033132D02*
Y1042620D01*
X1099827Y1033132D02*
Y1042620D01*
X1099847Y1033132D02*
Y1042620D01*
X1099866Y1033132D02*
Y1042620D01*
X1099886Y1033132D02*
Y1042620D01*
X1099906Y1033132D02*
Y1042620D01*
X1099925Y1033132D02*
Y1042620D01*
X1099945Y1033132D02*
Y1042620D01*
X1099965Y1033132D02*
Y1042620D01*
X1099985Y1033132D02*
Y1042620D01*
X1100004Y1033132D02*
Y1042620D01*
X1100024Y1033132D02*
Y1042620D01*
X1100044Y1033132D02*
Y1042620D01*
X1100063Y1033132D02*
Y1042620D01*
X1100083Y1033132D02*
Y1042620D01*
X1100103Y1033132D02*
Y1042620D01*
X1100122Y1033132D02*
Y1042620D01*
X1100142Y1033132D02*
Y1042620D01*
X1100162Y1033132D02*
Y1042620D01*
X1100181Y1033132D02*
Y1042620D01*
X1100201Y1033132D02*
Y1042620D01*
X1100221Y1033132D02*
Y1042620D01*
X1100240Y1033132D02*
Y1042620D01*
X1100260Y1033132D02*
Y1042620D01*
X1100280Y1033132D02*
Y1042620D01*
X1100299Y1033132D02*
Y1042620D01*
X1100319Y1033132D02*
Y1042620D01*
X1100339Y1033132D02*
Y1042620D01*
X1100359Y1033132D02*
Y1042620D01*
X1100378Y1033132D02*
Y1042620D01*
X1100398Y1033132D02*
Y1042620D01*
X1100418Y1033132D02*
Y1042620D01*
X1100437Y1033132D02*
Y1042620D01*
X1100457Y1033132D02*
Y1042620D01*
X1100477Y1033132D02*
Y1042620D01*
X1100496Y1033132D02*
Y1042620D01*
X1100516Y1033132D02*
Y1042620D01*
X1100536Y1033132D02*
Y1042620D01*
X1100555Y1033132D02*
Y1042620D01*
X1100575Y1033132D02*
Y1042620D01*
X1100595Y1033132D02*
Y1042620D01*
X1100614Y1033132D02*
Y1042620D01*
X1100634Y1033132D02*
Y1042620D01*
X1100654Y1033132D02*
Y1042620D01*
X1100674Y1033132D02*
Y1042620D01*
X1100693Y1033132D02*
Y1042620D01*
X1100713Y1033132D02*
Y1042620D01*
X1100733Y1033132D02*
Y1042620D01*
X1100752Y1033132D02*
Y1042620D01*
X1100772Y1033132D02*
Y1042620D01*
X1100792Y1033132D02*
Y1042620D01*
X1100811Y1033132D02*
Y1042620D01*
X1100831Y1033132D02*
Y1042620D01*
X1100851Y1033132D02*
Y1042620D01*
X1100870Y1033132D02*
Y1042620D01*
X1100890Y1033132D02*
Y1042620D01*
X1100910Y1033132D02*
Y1042620D01*
X1100929Y1033132D02*
Y1042620D01*
X1100949Y1033132D02*
Y1042620D01*
X1100969Y1033132D02*
Y1042620D01*
X1100988Y1033132D02*
Y1042620D01*
X1101008Y1033132D02*
Y1042620D01*
X1101028Y1033132D02*
Y1042620D01*
X1101048Y1033132D02*
Y1042620D01*
X1101067Y1033132D02*
Y1042620D01*
X1101087Y1033132D02*
Y1042620D01*
X1101107Y1033132D02*
Y1042620D01*
X1101126Y1033132D02*
Y1042620D01*
X1101146Y1033132D02*
Y1042620D01*
X1101166Y1033132D02*
Y1042620D01*
X1101185Y1033132D02*
Y1042620D01*
X1101205Y1033132D02*
Y1042620D01*
X1101225Y1033132D02*
Y1042620D01*
X1101244Y1033132D02*
Y1042620D01*
X1101264Y1033132D02*
Y1042620D01*
X1101284Y1033132D02*
Y1042620D01*
X1101303Y1033132D02*
Y1042620D01*
X1101323Y1033132D02*
Y1042620D01*
X1101343Y1033132D02*
Y1042620D01*
X1101362Y1033132D02*
Y1042620D01*
X1101382Y1033132D02*
Y1042620D01*
X1101402Y1033132D02*
Y1042620D01*
X1101422Y1033132D02*
Y1042620D01*
X1101441Y1033132D02*
Y1042620D01*
X1101461Y1033132D02*
Y1042620D01*
X1101481Y1033132D02*
Y1042620D01*
X1101500Y1033132D02*
Y1042620D01*
X1101520Y1033132D02*
Y1042620D01*
X1101540Y1033132D02*
Y1042620D01*
X1101559Y1033132D02*
Y1042620D01*
X1101579Y1033132D02*
Y1042620D01*
X1101599Y1033132D02*
Y1042620D01*
X1101618Y1033132D02*
Y1042620D01*
X1101638Y1033132D02*
Y1042620D01*
X1101658Y1033132D02*
Y1042620D01*
X1101677Y1033132D02*
Y1042620D01*
X1101697Y1033132D02*
Y1042620D01*
X1101717Y1033132D02*
Y1042620D01*
X1101736Y1033132D02*
Y1042620D01*
X1101756Y1033132D02*
Y1042620D01*
X1101776Y1033132D02*
Y1042620D01*
X1101796Y1033132D02*
Y1042620D01*
X1101815Y1033132D02*
Y1042620D01*
X1101835Y1033132D02*
Y1042620D01*
X1101855Y1033132D02*
Y1042620D01*
X1101874Y1033132D02*
Y1042620D01*
X1101894Y1033132D02*
Y1042620D01*
X1101914Y1033132D02*
Y1042620D01*
X1101933Y1033132D02*
Y1042620D01*
X1101953Y1033132D02*
Y1042620D01*
X1101973Y1033132D02*
Y1042620D01*
X1101992Y1033132D02*
Y1042620D01*
X1102012Y1033132D02*
Y1042620D01*
X1102032Y1033132D02*
Y1042620D01*
X1102051Y1033132D02*
Y1042620D01*
X1102071Y1033132D02*
Y1042620D01*
X1102091Y1033132D02*
Y1042620D01*
X1102111Y1033132D02*
Y1042620D01*
X1102130Y1033132D02*
Y1042620D01*
X1102150Y1033132D02*
Y1042620D01*
X1102170Y1033132D02*
Y1042620D01*
X1102189Y1033132D02*
Y1042620D01*
X1102209Y1033132D02*
Y1042620D01*
X1102229Y1033132D02*
Y1042620D01*
X1102248Y1033132D02*
Y1042620D01*
X1102268Y1033132D02*
Y1042620D01*
X1102288Y1033132D02*
Y1042620D01*
X1102307Y1033132D02*
Y1042620D01*
X1102327Y1033132D02*
Y1042620D01*
X1102347Y1033132D02*
Y1042620D01*
X1102366Y1033132D02*
Y1042620D01*
X1102386Y1033132D02*
Y1042620D01*
X1102406Y1033132D02*
Y1042620D01*
X1102425Y1033132D02*
Y1042620D01*
X1102445Y1033132D02*
Y1042620D01*
X1102465Y1033132D02*
Y1042620D01*
X1102485Y1033132D02*
Y1042620D01*
X1102504Y1033132D02*
Y1042620D01*
X1102524Y1033132D02*
Y1042620D01*
X1102544Y1033132D02*
Y1042620D01*
X1102563Y1033132D02*
Y1042620D01*
X1102583Y1033132D02*
Y1042620D01*
X1102603Y1033132D02*
Y1042620D01*
X1102622Y1033132D02*
Y1042620D01*
X1102642Y1033132D02*
Y1042620D01*
X1102662Y1033132D02*
Y1042620D01*
X1102681Y1033132D02*
Y1042620D01*
X1102701Y1033132D02*
Y1042620D01*
X1102721Y1033132D02*
Y1042620D01*
X1102740Y1033132D02*
Y1042620D01*
X1102760Y1033132D02*
Y1042620D01*
X1102780Y1033132D02*
Y1042620D01*
X1102799Y1033132D02*
Y1042620D01*
X1102819Y1033132D02*
Y1042620D01*
X1102839Y1033132D02*
Y1042620D01*
X1102859Y1033132D02*
Y1042620D01*
X1102878Y1033132D02*
Y1042620D01*
X1102898Y1033132D02*
Y1042620D01*
X1102918Y1033132D02*
Y1042620D01*
X1102937Y1033132D02*
Y1042620D01*
X1102957Y1033132D02*
Y1042620D01*
X1102977Y1033132D02*
Y1042620D01*
X1102996Y1033132D02*
Y1042620D01*
X1103016Y1033132D02*
Y1042620D01*
X1103036Y1033132D02*
Y1042620D01*
X1103055Y1033132D02*
Y1042620D01*
X1103075Y1033132D02*
Y1042620D01*
X1103095Y1033132D02*
Y1042620D01*
X1103114Y1033132D02*
Y1042620D01*
X1103134Y1033132D02*
Y1042620D01*
X1103154Y1033132D02*
Y1042620D01*
X1103174Y1033132D02*
Y1042620D01*
X1103193Y1033132D02*
Y1042620D01*
X1103213Y1033132D02*
Y1042620D01*
X1103233Y1033132D02*
Y1042620D01*
X1103252Y1033132D02*
Y1042620D01*
X1103272Y1033132D02*
Y1042620D01*
X1103292Y1033132D02*
Y1042620D01*
X1103311Y1033132D02*
Y1042620D01*
X1103331Y1033132D02*
Y1042620D01*
X1103351Y1033132D02*
Y1042620D01*
X1103370Y1033132D02*
Y1042620D01*
X1103390Y1033132D02*
Y1042620D01*
X1103410Y1033132D02*
Y1042620D01*
X1103429Y1033132D02*
Y1042620D01*
X1103449Y1033132D02*
Y1042620D01*
X1103469Y1033132D02*
Y1042620D01*
X1103488Y1033132D02*
Y1042620D01*
X1103508Y1033132D02*
Y1042620D01*
X1103528Y1033132D02*
Y1042620D01*
X1103548Y1033132D02*
Y1042620D01*
X1103567Y1033132D02*
Y1042620D01*
X1103587Y1033132D02*
Y1042620D01*
X1103607Y1033132D02*
Y1042620D01*
X1103626Y1033132D02*
Y1042620D01*
X1103646Y1033132D02*
Y1042620D01*
X1103666Y1033132D02*
Y1042620D01*
X1103685Y1033132D02*
Y1042620D01*
X1103705Y1033132D02*
Y1042620D01*
X1103725Y1033132D02*
Y1042620D01*
X1103744Y1033132D02*
Y1042620D01*
X1103764Y1033132D02*
Y1042620D01*
X1103784Y1033132D02*
Y1042620D01*
X1103803Y1033132D02*
Y1042620D01*
X1103823Y1020612D02*
Y1030100D01*
X1097406*
Y1020612*
X1103823*
X1097406D02*
Y1030100D01*
X1097425Y1020612D02*
Y1030100D01*
X1097445Y1020612D02*
Y1030100D01*
X1097465Y1020612D02*
Y1030100D01*
X1097485Y1020612D02*
Y1030100D01*
X1097504Y1020612D02*
Y1030100D01*
X1097524Y1020612D02*
Y1030100D01*
X1097544Y1020612D02*
Y1030100D01*
X1097563Y1020612D02*
Y1030100D01*
X1097583Y1020612D02*
Y1030100D01*
X1097603Y1020612D02*
Y1030100D01*
X1097622Y1020612D02*
Y1030100D01*
X1097642Y1020612D02*
Y1030100D01*
X1097662Y1020612D02*
Y1030100D01*
X1097681Y1020612D02*
Y1030100D01*
X1097701Y1020612D02*
Y1030100D01*
X1097721Y1020612D02*
Y1030100D01*
X1097740Y1020612D02*
Y1030100D01*
X1097760Y1020612D02*
Y1030100D01*
X1097780Y1020612D02*
Y1030100D01*
X1097799Y1020612D02*
Y1030100D01*
X1097819Y1020612D02*
Y1030100D01*
X1097839Y1020612D02*
Y1030100D01*
X1097859Y1020612D02*
Y1030100D01*
X1097878Y1020612D02*
Y1030100D01*
X1097898Y1020612D02*
Y1030100D01*
X1097918Y1020612D02*
Y1030100D01*
X1097937Y1020612D02*
Y1030100D01*
X1097957Y1020612D02*
Y1030100D01*
X1097977Y1020612D02*
Y1030100D01*
X1097996Y1020612D02*
Y1030100D01*
X1098016Y1020612D02*
Y1030100D01*
X1098036Y1020612D02*
Y1030100D01*
X1098055Y1020612D02*
Y1030100D01*
X1098075Y1020612D02*
Y1030100D01*
X1098095Y1020612D02*
Y1030100D01*
X1098114Y1020612D02*
Y1030100D01*
X1098134Y1020612D02*
Y1030100D01*
X1098154Y1020612D02*
Y1030100D01*
X1098174Y1020612D02*
Y1030100D01*
X1098193Y1020612D02*
Y1030100D01*
X1098213Y1020612D02*
Y1030100D01*
X1098233Y1020612D02*
Y1030100D01*
X1098252Y1020612D02*
Y1030100D01*
X1098272Y1020612D02*
Y1030100D01*
X1098292Y1020612D02*
Y1030100D01*
X1098311Y1020612D02*
Y1030100D01*
X1098331Y1020612D02*
Y1030100D01*
X1098351Y1020612D02*
Y1030100D01*
X1098370Y1020612D02*
Y1030100D01*
X1098390Y1020612D02*
Y1030100D01*
X1098410Y1020612D02*
Y1030100D01*
X1098429Y1020612D02*
Y1030100D01*
X1098449Y1020612D02*
Y1030100D01*
X1098469Y1020612D02*
Y1030100D01*
X1098488Y1020612D02*
Y1030100D01*
X1098508Y1020612D02*
Y1030100D01*
X1098528Y1020612D02*
Y1030100D01*
X1098548Y1020612D02*
Y1030100D01*
X1098567Y1020612D02*
Y1030100D01*
X1098587Y1020612D02*
Y1030100D01*
X1098607Y1020612D02*
Y1030100D01*
X1098626Y1020612D02*
Y1030100D01*
X1098646Y1020612D02*
Y1030100D01*
X1098666Y1020612D02*
Y1030100D01*
X1098685Y1020612D02*
Y1030100D01*
X1098705Y1020612D02*
Y1030100D01*
X1098725Y1020612D02*
Y1030100D01*
X1098744Y1020612D02*
Y1030100D01*
X1098764Y1020612D02*
Y1030100D01*
X1098784Y1020612D02*
Y1030100D01*
X1098803Y1020612D02*
Y1030100D01*
X1098823Y1020612D02*
Y1030100D01*
X1098843Y1020612D02*
Y1030100D01*
X1098862Y1020612D02*
Y1030100D01*
X1098882Y1020612D02*
Y1030100D01*
X1098902Y1020612D02*
Y1030100D01*
X1098922Y1020612D02*
Y1030100D01*
X1098941Y1020612D02*
Y1030100D01*
X1098961Y1020612D02*
Y1030100D01*
X1098981Y1020612D02*
Y1030100D01*
X1099000Y1020612D02*
Y1030100D01*
X1099020Y1020612D02*
Y1030100D01*
X1099040Y1020612D02*
Y1030100D01*
X1099059Y1020612D02*
Y1030100D01*
X1099079Y1020612D02*
Y1030100D01*
X1099099Y1020612D02*
Y1030100D01*
X1099118Y1020612D02*
Y1030100D01*
X1099138Y1020612D02*
Y1030100D01*
X1099158Y1020612D02*
Y1030100D01*
X1099177Y1020612D02*
Y1030100D01*
X1099197Y1020612D02*
Y1030100D01*
X1099217Y1020612D02*
Y1030100D01*
X1099236Y1020612D02*
Y1030100D01*
X1099256Y1020612D02*
Y1030100D01*
X1099276Y1020612D02*
Y1030100D01*
X1099296Y1020612D02*
Y1030100D01*
X1099315Y1020612D02*
Y1030100D01*
X1099335Y1020612D02*
Y1030100D01*
X1099355Y1020612D02*
Y1030100D01*
X1099374Y1020612D02*
Y1030100D01*
X1099394Y1020612D02*
Y1030100D01*
X1099414Y1020612D02*
Y1030100D01*
X1099433Y1020612D02*
Y1030100D01*
X1099453Y1020612D02*
Y1030100D01*
X1099473Y1020612D02*
Y1030100D01*
X1099492Y1020612D02*
Y1030100D01*
X1099512Y1020612D02*
Y1030100D01*
X1099532Y1020612D02*
Y1030100D01*
X1099551Y1020612D02*
Y1030100D01*
X1099571Y1020612D02*
Y1030100D01*
X1099591Y1020612D02*
Y1030100D01*
X1099611Y1020612D02*
Y1030100D01*
X1099630Y1020612D02*
Y1030100D01*
X1099650Y1020612D02*
Y1030100D01*
X1099670Y1020612D02*
Y1030100D01*
X1099689Y1020612D02*
Y1030100D01*
X1099709Y1020612D02*
Y1030100D01*
X1099729Y1020612D02*
Y1030100D01*
X1099748Y1020612D02*
Y1030100D01*
X1099768Y1020612D02*
Y1030100D01*
X1099788Y1020612D02*
Y1030100D01*
X1099807Y1020612D02*
Y1030100D01*
X1099827Y1020612D02*
Y1030100D01*
X1099847Y1020612D02*
Y1030100D01*
X1099866Y1020612D02*
Y1030100D01*
X1099886Y1020612D02*
Y1030100D01*
X1099906Y1020612D02*
Y1030100D01*
X1099925Y1020612D02*
Y1030100D01*
X1099945Y1020612D02*
Y1030100D01*
X1099965Y1020612D02*
Y1030100D01*
X1099985Y1020612D02*
Y1030100D01*
X1100004Y1020612D02*
Y1030100D01*
X1100024Y1020612D02*
Y1030100D01*
X1100044Y1020612D02*
Y1030100D01*
X1100063Y1020612D02*
Y1030100D01*
X1100083Y1020612D02*
Y1030100D01*
X1100103Y1020612D02*
Y1030100D01*
X1100122Y1020612D02*
Y1030100D01*
X1100142Y1020612D02*
Y1030100D01*
X1100162Y1020612D02*
Y1030100D01*
X1100181Y1020612D02*
Y1030100D01*
X1100201Y1020612D02*
Y1030100D01*
X1100221Y1020612D02*
Y1030100D01*
X1100240Y1020612D02*
Y1030100D01*
X1100260Y1020612D02*
Y1030100D01*
X1100280Y1020612D02*
Y1030100D01*
X1100299Y1020612D02*
Y1030100D01*
X1100319Y1020612D02*
Y1030100D01*
X1100339Y1020612D02*
Y1030100D01*
X1100359Y1020612D02*
Y1030100D01*
X1100378Y1020612D02*
Y1030100D01*
X1100398Y1020612D02*
Y1030100D01*
X1100418Y1020612D02*
Y1030100D01*
X1100437Y1020612D02*
Y1030100D01*
X1100457Y1020612D02*
Y1030100D01*
X1100477Y1020612D02*
Y1030100D01*
X1100496Y1020612D02*
Y1030100D01*
X1100516Y1020612D02*
Y1030100D01*
X1100536Y1020612D02*
Y1030100D01*
X1100555Y1020612D02*
Y1030100D01*
X1100575Y1020612D02*
Y1030100D01*
X1100595Y1020612D02*
Y1030100D01*
X1100614Y1020612D02*
Y1030100D01*
X1100634Y1020612D02*
Y1030100D01*
X1100654Y1020612D02*
Y1030100D01*
X1100674Y1020612D02*
Y1030100D01*
X1100693Y1020612D02*
Y1030100D01*
X1100713Y1020612D02*
Y1030100D01*
X1100733Y1020612D02*
Y1030100D01*
X1100752Y1020612D02*
Y1030100D01*
X1100772Y1020612D02*
Y1030100D01*
X1100792Y1020612D02*
Y1030100D01*
X1100811Y1020612D02*
Y1030100D01*
X1100831Y1020612D02*
Y1030100D01*
X1100851Y1020612D02*
Y1030100D01*
X1100870Y1020612D02*
Y1030100D01*
X1100890Y1020612D02*
Y1030100D01*
X1100910Y1020612D02*
Y1030100D01*
X1100929Y1020612D02*
Y1030100D01*
X1100949Y1020612D02*
Y1030100D01*
X1100969Y1020612D02*
Y1030100D01*
X1100988Y1020612D02*
Y1030100D01*
X1101008Y1020612D02*
Y1030100D01*
X1101028Y1020612D02*
Y1030100D01*
X1101048Y1020612D02*
Y1030100D01*
X1101067Y1020612D02*
Y1030100D01*
X1101087Y1020612D02*
Y1030100D01*
X1101107Y1020612D02*
Y1030100D01*
X1101126Y1020612D02*
Y1030100D01*
X1101146Y1020612D02*
Y1030100D01*
X1101166Y1020612D02*
Y1030100D01*
X1101185Y1020612D02*
Y1030100D01*
X1101205Y1020612D02*
Y1030100D01*
X1101225Y1020612D02*
Y1030100D01*
X1101244Y1020612D02*
Y1030100D01*
X1101264Y1020612D02*
Y1030100D01*
X1101284Y1020612D02*
Y1030100D01*
X1101303Y1020612D02*
Y1030100D01*
X1101323Y1020612D02*
Y1030100D01*
X1101343Y1020612D02*
Y1030100D01*
X1101362Y1020612D02*
Y1030100D01*
X1101382Y1020612D02*
Y1030100D01*
X1101402Y1020612D02*
Y1030100D01*
X1101422Y1020612D02*
Y1030100D01*
X1101441Y1020612D02*
Y1030100D01*
X1101461Y1020612D02*
Y1030100D01*
X1101481Y1020612D02*
Y1030100D01*
X1101500Y1020612D02*
Y1030100D01*
X1101520Y1020612D02*
Y1030100D01*
X1101540Y1020612D02*
Y1030100D01*
X1101559Y1020612D02*
Y1030100D01*
X1101579Y1020612D02*
Y1030100D01*
X1101599Y1020612D02*
Y1030100D01*
X1101618Y1020612D02*
Y1030100D01*
X1101638Y1020612D02*
Y1030100D01*
X1101658Y1020612D02*
Y1030100D01*
X1101677Y1020612D02*
Y1030100D01*
X1101697Y1020612D02*
Y1030100D01*
X1101717Y1020612D02*
Y1030100D01*
X1101736Y1020612D02*
Y1030100D01*
X1101756Y1020612D02*
Y1030100D01*
X1101776Y1020612D02*
Y1030100D01*
X1101796Y1020612D02*
Y1030100D01*
X1101815Y1020612D02*
Y1030100D01*
X1101835Y1020612D02*
Y1030100D01*
X1101855Y1020612D02*
Y1030100D01*
X1101874Y1020612D02*
Y1030100D01*
X1101894Y1020612D02*
Y1030100D01*
X1101914Y1020612D02*
Y1030100D01*
X1101933Y1020612D02*
Y1030100D01*
X1101953Y1020612D02*
Y1030100D01*
X1101973Y1020612D02*
Y1030100D01*
X1101992Y1020612D02*
Y1030100D01*
X1102012Y1020612D02*
Y1030100D01*
X1102032Y1020612D02*
Y1030100D01*
X1102051Y1020612D02*
Y1030100D01*
X1102071Y1020612D02*
Y1030100D01*
X1102091Y1020612D02*
Y1030100D01*
X1102111Y1020612D02*
Y1030100D01*
X1102130Y1020612D02*
Y1030100D01*
X1102150Y1020612D02*
Y1030100D01*
X1102170Y1020612D02*
Y1030100D01*
X1102189Y1020612D02*
Y1030100D01*
X1102209Y1020612D02*
Y1030100D01*
X1102229Y1020612D02*
Y1030100D01*
X1102248Y1020612D02*
Y1030100D01*
X1102268Y1020612D02*
Y1030100D01*
X1102288Y1020612D02*
Y1030100D01*
X1102307Y1020612D02*
Y1030100D01*
X1102327Y1020612D02*
Y1030100D01*
X1102347Y1020612D02*
Y1030100D01*
X1102366Y1020612D02*
Y1030100D01*
X1102386Y1020612D02*
Y1030100D01*
X1102406Y1020612D02*
Y1030100D01*
X1102425Y1020612D02*
Y1030100D01*
X1102445Y1020612D02*
Y1030100D01*
X1102465Y1020612D02*
Y1030100D01*
X1102485Y1020612D02*
Y1030100D01*
X1102504Y1020612D02*
Y1030100D01*
X1102524Y1020612D02*
Y1030100D01*
X1102544Y1020612D02*
Y1030100D01*
X1102563Y1020612D02*
Y1030100D01*
X1102583Y1020612D02*
Y1030100D01*
X1102603Y1020612D02*
Y1030100D01*
X1102622Y1020612D02*
Y1030100D01*
X1102642Y1020612D02*
Y1030100D01*
X1102662Y1020612D02*
Y1030100D01*
X1102681Y1020612D02*
Y1030100D01*
X1102701Y1020612D02*
Y1030100D01*
X1102721Y1020612D02*
Y1030100D01*
X1102740Y1020612D02*
Y1030100D01*
X1102760Y1020612D02*
Y1030100D01*
X1102780Y1020612D02*
Y1030100D01*
X1102799Y1020612D02*
Y1030100D01*
X1102819Y1020612D02*
Y1030100D01*
X1102839Y1020612D02*
Y1030100D01*
X1102859Y1020612D02*
Y1030100D01*
X1102878Y1020612D02*
Y1030100D01*
X1102898Y1020612D02*
Y1030100D01*
X1102918Y1020612D02*
Y1030100D01*
X1102937Y1020612D02*
Y1030100D01*
X1102957Y1020612D02*
Y1030100D01*
X1102977Y1020612D02*
Y1030100D01*
X1102996Y1020612D02*
Y1030100D01*
X1103016Y1020612D02*
Y1030100D01*
X1103036Y1020612D02*
Y1030100D01*
X1103055Y1020612D02*
Y1030100D01*
X1103075Y1020612D02*
Y1030100D01*
X1103095Y1020612D02*
Y1030100D01*
X1103114Y1020612D02*
Y1030100D01*
X1103134Y1020612D02*
Y1030100D01*
X1103154Y1020612D02*
Y1030100D01*
X1103174Y1020612D02*
Y1030100D01*
X1103193Y1020612D02*
Y1030100D01*
X1103213Y1020612D02*
Y1030100D01*
X1103233Y1020612D02*
Y1030100D01*
X1103252Y1020612D02*
Y1030100D01*
X1103272Y1020612D02*
Y1030100D01*
X1103292Y1020612D02*
Y1030100D01*
X1103311Y1020612D02*
Y1030100D01*
X1103331Y1020612D02*
Y1030100D01*
X1103351Y1020612D02*
Y1030100D01*
X1103370Y1020612D02*
Y1030100D01*
X1103390Y1020612D02*
Y1030100D01*
X1103410Y1020612D02*
Y1030100D01*
X1103429Y1020612D02*
Y1030100D01*
X1103449Y1020612D02*
Y1030100D01*
X1103469Y1020612D02*
Y1030100D01*
X1103488Y1020612D02*
Y1030100D01*
X1103508Y1020612D02*
Y1030100D01*
X1103528Y1020612D02*
Y1030100D01*
X1103548Y1020612D02*
Y1030100D01*
X1103567Y1020612D02*
Y1030100D01*
X1103587Y1020612D02*
Y1030100D01*
X1103607Y1020612D02*
Y1030100D01*
X1103626Y1020612D02*
Y1030100D01*
X1103646Y1020612D02*
Y1030100D01*
X1103666Y1020612D02*
Y1030100D01*
X1103685Y1020612D02*
Y1030100D01*
X1103705Y1020612D02*
Y1030100D01*
X1103725Y1020612D02*
Y1030100D01*
X1103744Y1020612D02*
Y1030100D01*
X1103764Y1020612D02*
Y1030100D01*
X1103784Y1020612D02*
Y1030100D01*
X1103803Y1020612D02*
Y1030100D01*
G54D385*
X1452100Y1068160D03*
Y1070720D03*
Y1073280D03*
Y1075840D03*
Y1078400D03*
Y1080960D03*
Y1083520D03*
Y1086080D03*
Y1088640D03*
Y1091200D03*
Y1093760D03*
Y1096320D03*
Y1098880D03*
Y1101440D03*
X1424100D03*
Y1098880D03*
Y1096320D03*
Y1093760D03*
Y1091200D03*
Y1088640D03*
Y1086080D03*
Y1083520D03*
Y1080960D03*
Y1078400D03*
Y1075840D03*
Y1073280D03*
Y1070720D03*
Y1068160D03*
G54D386*
X1052638Y1013740D03*
Y1025552D03*
X1044961Y1050748D03*
Y1062560D03*
X1042087Y1069251D03*
Y1081063D03*
X1039252Y1087755D03*
Y1099567D03*
X1036299Y1106259D03*
Y1118071D03*
X1033425Y1124527D03*
Y1136339D03*
X1030551Y1142795D03*
Y1154607D03*
X1027717Y1161102D03*
Y1172914D03*
X1024843Y1179370D03*
Y1191182D03*
X1021969Y1197637D03*
Y1209449D03*
X1019685Y1216141D03*
Y1227953D03*
X1016850Y1234448D03*
Y1246260D03*
X1015197Y1252952D03*
Y1264764D03*
X1013465Y1289724D03*
Y1301536D03*
G54D387*
X1054410Y1019646D03*
X1046733Y1056654D03*
X1043859Y1075157D03*
X1041024Y1093661D03*
X1038071Y1112165D03*
X1035197Y1130433D03*
X1032323Y1148701D03*
X1029489Y1167008D03*
X1026615Y1185276D03*
X1023741Y1203543D03*
X1021457Y1222047D03*
X1018622Y1240354D03*
X1016969Y1258858D03*
X1015237Y1295630D03*
G54D393*
X1353760Y1173382D03*
X1357500D03*
X1361240D03*
Y1183618D03*
X1353760D03*
G54D396*
X1069350Y1123429D03*
X1075650D03*
Y1139571D03*
X1069350D03*
G54D397*
X1066890Y1131500D03*
G54D400*
X1474000Y1435252D03*
Y1416748D03*
Y1406252D03*
Y1387748D03*
G74*
X0Y0D02*
M02*
