  0
SECTION
  2
HEADER
  9
$ACADVER
  1
AC1015
  9
$ACADMAINTVER
 70
     6
  9
$DWGCODEPAGE
  3
ANSI_1252
  9
$INSBASE
 10
0.0
 20
0.0
 30
0.0
  9
$EXTMIN
 10
0.0
 20
0.0
 30
0.0
  9
$EXTMAX
 10
210.0
 20
297.0
 30
0.0
  9
$LIMMIN
 10
0.0
 20
0.0
  9
$LIMMAX
 10
210.0
 20
297.0
  9
$ORTHOMODE
 70
     0
  9
$REGENMODE
 70
     1
  9
$FILLMODE
 70
     1
  9
$QTEXTMODE
 70
     0
  9
$MIRRTEXT
 70
     1
  9
$LTSCALE
 40
1.0
  9
$ATTMODE
 70
     1
  9
$TEXTSIZE
 40
3.5
  9
$TRACEWID
 40
1.0
  9
$TEXTSTYLE
  7
Standard
  9
$CLAYER
  8
0
  9
$CELTYPE
  6
ByLayer
  9
$CECOLOR
 62
   256
  9
$CELTSCALE
 40
1.0
  9
$DISPSILH
 70
     0
  9
$DIMSCALE
 40
1.0
  9
$DIMASZ
 40
2.3114868164
  9
$DIMEXO
 40
1.0
  9
$DIMDLI
 40
3.75
  9
$DIMRND
 40
0.0
  9
$DIMDLE
 40
0.0
  9
$DIMEXE
 40
1.0
  9
$DIMTP
 40
0.0
  9
$DIMTM
 40
0.0
  9
$DIMTXT
 40
3.175
  9
$DIMCEN
 40
2.5
  9
$DIMTSZ
 40
0.0
  9
$DIMTOL
 70
     0
  9
$DIMLIM
 70
     0
  9
$DIMTIH
 70
     1
  9
$DIMTOH
 70
     1
  9
$DIMSE1
 70
     0
  9
$DIMSE2
 70
     0
  9
$DIMTAD
 70
     1
  9
$DIMZIN
 70
     0
  9
$DIMBLK
  1

  9
$DIMASO
 70
     1
  9
$DIMSHO
 70
     1
  9
$DIMPOST
  1

  9
$DIMAPOST
  1

  9
$DIMALT
 70
     0
  9
$DIMALTD
 70
     3
  9
$DIMALTF
 40
0.0393700787
  9
$DIMLFAC
 40
0.5
  9
$DIMTOFL
 70
     1
  9
$DIMTVP
 40
0.0
  9
$DIMTIX
 70
     0
  9
$DIMSOXD
 70
     0
  9
$DIMSAH
 70
     0
  9
$DIMBLK1
  1

  9
$DIMBLK2
  1

  9
$DIMSTYLE
  2
ISO-25
  9
$DIMCLRD
 70
     0
  9
$DIMCLRE
 70
     0
  9
$DIMCLRT
 70
     0
  9
$DIMTFAC
 40
1.0
  9
$DIMGAP
 40
1.524
  9
$DIMJUST
 70
     0
  9
$DIMSD1
 70
     0
  9
$DIMSD2
 70
     0
  9
$DIMTOLJ
 70
     0
  9
$DIMTZIN
 70
     0
  9
$DIMALTZ
 70
     0
  9
$DIMALTTZ
 70
     0
  9
$DIMUPT
 70
     0
  9
$DIMDEC
 70
     2
  9
$DIMTDEC
 70
     2
  9
$DIMALTU
 70
     2
  9
$DIMALTTD
 70
     3
  9
$DIMTXSTY
  7
Standard
  9
$DIMAUNIT
 70
     0
  9
$DIMADEC
 70
     2
  9
$DIMALTRND
 40
0.0
  9
$DIMAZIN
 70
     0
  9
$DIMDSEP
 70
    44
  9
$DIMATFIT
 70
     3
  9
$DIMFRAC
 70
     0
  9
$DIMLDRBLK
  1

  9
$DIMLUNIT
 70
     2
  9
$DIMLWD
 70
    -2
  9
$DIMLWE
 70
    -2
  9
$DIMTMOVE
 70
     0
  9
$LUNITS
 70
     2
  9
$LUPREC
 70
     2
  9
$SKETCHINC
 40
1.0
  9
$FILLETRAD
 40
10.0
  9
$AUNITS
 70
     0
  9
$AUPREC
 70
     2
  9
$MENU
  1
.
  9
$ELEVATION
 40
0.0
  9
$PELEVATION
 40
0.0
  9
$THICKNESS
 40
0.0
  9
$LIMCHECK
 70
     0
  9
$CHAMFERA
 40
10.0
  9
$CHAMFERB
 40
10.0
  9
$CHAMFERC
 40
20.0
  9
$CHAMFERD
 40
0.0
  9
$SKPOLY
 70
     0
  9
$TDCREATE
 40
2455846.641787651
  9
$TDUCREATE
 40
2455846.412620984
  9
$TDUPDATE
 40
2455846.641787662
  9
$TDUUPDATE
 40
2455846.412620995
  9
$TDINDWG
 40
0.0000000116
  9
$TDUSRTIMER
 40
0.0000000116
  9
$USRTIMER
 70
     1
  9
$ANGBASE
 50
0.0
  9
$ANGDIR
 70
     0
  9
$PDMODE
 70
     0
  9
$PDSIZE
 40
-1.0
  9
$PLINEWID
 40
0.0
  9
$SPLFRAME
 70
     0
  9
$SPLINETYPE
 70
     6
  9
$SPLINESEGS
 70
     8
  9
$HANDSEED
  5
26B
  9
$SURFTAB1
 70
     6
  9
$SURFTAB2
 70
     6
  9
$SURFTYPE
 70
     6
  9
$SURFU
 70
     6
  9
$SURFV
 70
     6
  9
$UCSBASE
  2

  9
$UCSNAME
  2

  9
$UCSORG
 10
0.0
 20
0.0
 30
0.0
  9
$UCSXDIR
 10
1.0
 20
0.0
 30
0.0
  9
$UCSYDIR
 10
0.0
 20
1.0
 30
0.0
  9
$UCSORTHOREF
  2

  9
$UCSORTHOVIEW
 70
     0
  9
$UCSORGTOP
 10
0.0
 20
0.0
 30
0.0
  9
$UCSORGBOTTOM
 10
0.0
 20
0.0
 30
0.0
  9
$UCSORGLEFT
 10
0.0
 20
0.0
 30
0.0
  9
$UCSORGRIGHT
 10
0.0
 20
0.0
 30
0.0
  9
$UCSORGFRONT
 10
0.0
 20
0.0
 30
0.0
  9
$UCSORGBACK
 10
0.0
 20
0.0
 30
0.0
  9
$PUCSBASE
  2

  9
$PUCSNAME
  2

  9
$PUCSORG
 10
0.0
 20
0.0
 30
0.0
  9
$PUCSXDIR
 10
1.0
 20
0.0
 30
0.0
  9
$PUCSYDIR
 10
0.0
 20
1.0
 30
0.0
  9
$PUCSORTHOREF
  2

  9
$PUCSORTHOVIEW
 70
     0
  9
$PUCSORGTOP
 10
0.0
 20
0.0
 30
0.0
  9
$PUCSORGBOTTOM
 10
0.0
 20
0.0
 30
0.0
  9
$PUCSORGLEFT
 10
0.0
 20
0.0
 30
0.0
  9
$PUCSORGRIGHT
 10
0.0
 20
0.0
 30
0.0
  9
$PUCSORGFRONT
 10
0.0
 20
0.0
 30
0.0
  9
$PUCSORGBACK
 10
0.0
 20
0.0
 30
0.0
  9
$USERI1
 70
     0
  9
$USERI2
 70
     0
  9
$USERI3
 70
     0
  9
$USERI4
 70
     0
  9
$USERI5
 70
     0
  9
$USERR1
 40
0.0
  9
$USERR2
 40
0.0
  9
$USERR3
 40
0.0
  9
$USERR4
 40
0.0
  9
$USERR5
 40
0.0
  9
$WORLDVIEW
 70
     1
  9
$SHADEDGE
 70
     3
  9
$SHADEDIF
 70
    70
  9
$TILEMODE
 70
     1
  9
$MAXACTVP
 70
    64
  9
$PINSBASE
 10
0.0
 20
0.0
 30
0.0
  9
$PLIMCHECK
 70
     0
  9
$PEXTMIN
 10
1.0000000000E+20
 20
1.0000000000E+20
 30
1.0000000000E+20
  9
$PEXTMAX
 10
-1.0000000000E+20
 20
-1.0000000000E+20
 30
-1.0000000000E+20
  9
$PLIMMIN
 10
0.0
 20
0.0
  9
$PLIMMAX
 10
420.0
 20
297.0
  9
$UNITMODE
 70
     0
  9
$VISRETAIN
 70
     1
  9
$PLINEGEN
 70
     0
  9
$PSLTSCALE
 70
     1
  9
$TREEDEPTH
 70
  3020
  9
$CMLSTYLE
  2
Standard
  9
$CMLJUST
 70
     0
  9
$CMLSCALE
 40
20.0
  9
$PROXYGRAPHICS
 70
     1
  9
$MEASUREMENT
 70
     1
  9
$CELWEIGHT
370
    -1
  9
$ENDCAPS
280
     0
  9
$JOINSTYLE
280
     0
  9
$LWDISPLAY
290
     1
  9
$INSUNITS
 70
     4
  9
$HYPERLINKBASE
  1

  9
$STYLESHEET
  1

  9
$XEDIT
290
     1
  9
$CEPSNTYPE
380
     0
  9
$PSTYLEMODE
290
     1
  9
$FINGERPRINTGUID
  2
{C78E4C62-3E8C-4DC0-8CD5-690A1C63CB6F}
  9
$VERSIONGUID
  2
{FAEB1C32-E019-11D5-929B-00C0DF256EC4}
  9
$EXTNAMES
290
     1
  9
$PSVPSCALE
 40
0.0
  9
$OLESTARTUP
290
     0
  0
ENDSEC
  0
SECTION
  2
CLASSES
  0
CLASS
  1
ACDBDICTIONARYWDFLT
  2
AcDbDictionaryWithDefault
  3
ObjectDBX Classes
 90
        0
280
     0
281
     0
  0
CLASS
  1
VISUALSTYLE
  2
AcDbVisualStyle
  3
ObjectDBX Classes
 90
     4095
280
     0
281
     0
  0
CLASS
  1
SCALE
  2
AcDbScale
  3
ObjectDBX Classes
 90
     1153
280
     0
281
     0
  0
CLASS
  1
DICTIONARYVAR
  2
AcDbDictionaryVar
  3
ObjectDBX Classes
 90
        0
280
     0
281
     0
  0
CLASS
  1
ACDBPLACEHOLDER
  2
AcDbPlaceHolder
  3
ObjectDBX Classes
 90
        0
280
     0
281
     0
  0
CLASS
  1
LAYOUT
  2
AcDbLayout
  3
ObjectDBX Classes
 90
        0
280
     0
281
     0
  0
ENDSEC
  0
SECTION
  2
TABLES
  0
TABLE
  2
VPORT
  5
8
330
0
100
AcDbSymbolTable
 70
     1
  0
VPORT
  5
29
330
8
100
AcDbSymbolTableRecord
100
AcDbViewportTableRecord
  2
*Active
 70
     0
 10
0.0
 20
0.0
 11
1.0
 21
1.0
 12
105.0
 22
148.5
 13
0.0
 23
0.0
 14
10.0
 24
10.0
 15
10.0
 25
10.0
 16
0.0
 26
0.0
 36
1.0
 17
0.0
 27
0.0
 37
0.0
 40
297.0
 41
0.7070707071
 42
50.0
 43
0.0
 44
0.0
 50
0.0
 51
0.0
 71
     0
 72
  2000
 73
     1
 74
     3
 75
     0
 76
     0
 77
     0
 78
     0
281
     0
 65
     1
110
0.0
120
0.0
130
0.0
111
1.0
121
0.0
131
0.0
112
0.0
122
1.0
132
0.0
 79
     0
146
0.0
  0
ENDTAB
  0
TABLE
  2
LTYPE
  5
5
330
0
100
AcDbSymbolTable
 70
     6
  0
LTYPE
  5
14
330
5
100
AcDbSymbolTableRecord
100
AcDbLinetypeTableRecord
  2
ByBlock
 70
     0
  3

 72
    65
 73
     0
 40
0.0
  0
LTYPE
  5
15
330
5
100
AcDbSymbolTableRecord
100
AcDbLinetypeTableRecord
  2
ByLayer
 70
     0
  3

 72
    65
 73
     0
 40
0.0
  0
LTYPE
  5
16
330
5
100
AcDbSymbolTableRecord
100
AcDbLinetypeTableRecord
  2
Continuous
 70
     0
  3
Solid line
 72
    65
 73
     0
 40
0.0
  0
LTYPE
  5
3B
330
5
100
AcDbSymbolTableRecord
100
AcDbLinetypeTableRecord
  2
HIDDEN
 70
     0
  3
Hidden __ __ __ __ __ __ __ __ __ __ __ __ __ __
 72
    65
 73
     2
 40
1.905
 49
1.27
 74
     0
 49
-0.635
 74
     0
  0
LTYPE
  5
3C
330
5
100
AcDbSymbolTableRecord
100
AcDbLinetypeTableRecord
  2
PHANTOM
 70
     0
  3
Phantom ______  __  __  ______  __  __  ______
 72
    65
 73
     6
 40
12.7
 49
6.35
 74
     0
 49
-1.27
 74
     0
 49
1.27
 74
     0
 49
-1.27
 74
     0
 49
1.27
 74
     0
 49
-1.27
 74
     0
  0
LTYPE
  5
3D
330
5
100
AcDbSymbolTableRecord
100
AcDbLinetypeTableRecord
  2
CENTER
 70
     0
  3
Center ____ _ ____ _ ____ _ ____ _ ____ _ ____
 72
    65
 73
     4
 40
10.16
 49
6.35
 74
     0
 49
-1.27
 74
     0
 49
1.27
 74
     0
 49
-1.27
 74
     0
  0
LTYPE
  5
3E
330
5
100
AcDbSymbolTableRecord
100
AcDbLinetypeTableRecord
  2
CENTERX2
 70
     0
  3
Center (2x) ________  __  ________  __  _____
 72
    65
 73
     4
 40
20.32
 49
12.7
 74
     0
 49
-2.54
 74
     0
 49
2.54
 74
     0
 49
-2.54
 74
     0
  0
LTYPE
  5
3F
330
5
100
AcDbSymbolTableRecord
100
AcDbLinetypeTableRecord
  2
DOT2
 70
     0
  3
Dot (.5x) ........................................
 72
    65
 73
     2
 40
0.635
 49
0.0
 74
     0
 49
-0.635
 74
     0
  0
ENDTAB
  0
TABLE
  2
LAYER
  5
2
330
0
100
AcDbSymbolTable
 70
     2
  0
LAYER
  5
10
330
2
100
AcDbSymbolTableRecord
100
AcDbLayerTableRecord
  2
0
 70
     0
 62
     7
  6
Continuous
370
    -3
390
F
  0
LAYER
  5
40
330
2
100
AcDbSymbolTableRecord
100
AcDbLayerTableRecord
  2
FORMAT
 70
     0
 62
     7
  6
Continuous
370
    -3
390
F
  0
ENDTAB
  0
TABLE
  2
STYLE
  5
3
330
0
100
AcDbSymbolTable
 70
     4
  0
STYLE
  5
11
330
3
100
AcDbSymbolTableRecord
100
AcDbTextStyleTableRecord
  2
Standard
 70
     0
 40
0.0
 41
1.0
 50
0.0
 71
     0
 42
2.5
  3
txt
  4

  0
STYLE
  5
64
330
3
100
AcDbSymbolTableRecord
100
AcDbTextStyleTableRecord
  2
SLDTEXTSTYLE0
 70
     0
 40
0.0
 41
0.605
 50
0.0
 71
     0
 42
0.2
  3
TXT
  4

  0
STYLE
  5
89
330
3
100
AcDbSymbolTableRecord
100
AcDbTextStyleTableRecord
  2
SLDTEXTSTYLE1
 70
     0
 40
0.0
 41
0.75
 50
0.0
 71
     0
 42
0.2
  3
TXT
  4

  0
STYLE
  5
8D
330
3
100
AcDbSymbolTableRecord
100
AcDbTextStyleTableRecord
  2
SLDTEXTSTYLE2
 70
     0
 40
0.0
 41
0.6875
 50
0.0
 71
     0
 42
0.2
  3
TXT
  4

  0
ENDTAB
  0
TABLE
  2
VIEW
  5
6
330
0
100
AcDbSymbolTable
 70
     0
  0
ENDTAB
  0
TABLE
  2
UCS
  5
7
330
0
100
AcDbSymbolTable
 70
     0
  0
ENDTAB
  0
TABLE
  2
APPID
  5
9
330
0
100
AcDbSymbolTable
 70
     1
  0
APPID
  5
12
330
9
100
AcDbSymbolTableRecord
100
AcDbRegAppTableRecord
  2
ACAD
 70
     0
  0
ENDTAB
  0
TABLE
  2
DIMSTYLE
  5
A
330
0
100
AcDbSymbolTable
 70
     4
100
AcDbDimStyleTable
  0
DIMSTYLE
105
27
330
A
100
AcDbSymbolTableRecord
100
AcDbDimStyleTableRecord
  2
ISO-25
 70
     0
 41
2.5
 42
0.625
 43
3.75
 44
1.25
 73
     0
 74
     0
 77
     1
 78
     8
140
2.5
141
2.5
143
0.0393700787
147
0.625
171
     3
172
     1
271
     2
272
     2
274
     3
278
    44
283
     0
284
     8
340
11
  0
DIMSTYLE
105
BD
102
{ACAD_REACTORS
330
BC
330
125
330
1C8
102
}
330
A
100
AcDbSymbolTableRecord
100
AcDbDimStyleTableRecord
  2
SLDDIMSTYLE0
 70
     0
 41
2.3114868164
 44
0.0
 45
0.000000001
 73
     0
 74
     0
 77
     2
 78
    12
140
2.3114868164
147
0.5778717041
173
     1
271
     2
272
     2
284
    12
340
64
  0
DIMSTYLE
105
CC
102
{ACAD_REACTORS
330
CB
330
D7
330
E1
330
119
330
131
330
13B
330
1BE
102
}
330
A
100
AcDbSymbolTableRecord
100
AcDbDimStyleTableRecord
  2
SLDDIMSTYLE1
 70
     0
 41
2.3114868164
 44
0.0
 45
0.000000001
 73
     0
 74
     0
 77
     2
 78
    12
140
2.3114868164
147
0.5778717041
173
     1
271
     2
272
     2
284
    12
340
64
  0
DIMSTYLE
105
EC
102
{ACAD_REACTORS
330
EB
330
145
102
}
330
A
100
AcDbSymbolTableRecord
100
AcDbDimStyleTableRecord
  2
SLDDIMSTYLE2
 70
     0
  3
<>
 41
2.3114868164
 44
0.0
 45
0.000000001
 73
     0
 74
     0
 77
     2
 78
    12
140
2.3114868164
147
0.5778717041
172
     1
173
     1
271
     2
272
     2
284
    12
340
64
  0
ENDTAB
  0
TABLE
  2
BLOCK_RECORD
  5
1
330
0
100
AcDbSymbolTable
 70
    18
  0
BLOCK_RECORD
  5
1F
330
1
100
AcDbSymbolTableRecord
100
AcDbBlockTableRecord
  2
*Model_Space
340
22
  0
BLOCK_RECORD
  5
1B
330
1
100
AcDbSymbolTableRecord
100
AcDbBlockTableRecord
  2
*Paper_Space
340
1E
  0
BLOCK_RECORD
  5
23
330
1
100
AcDbSymbolTableRecord
100
AcDbBlockTableRecord
  2
*Paper_Space0
340
26
  0
BLOCK_RECORD
  5
98
330
1
100
AcDbSymbolTableRecord
100
AcDbBlockTableRecord
  2
SW_NOTE_0
340
0
102
{BLKREFS
331
9E
102
}
  0
BLOCK_RECORD
  5
A0
330
1
100
AcDbSymbolTableRecord
100
AcDbBlockTableRecord
  2
SW_NOTE_1
340
0
102
{BLKREFS
331
A9
102
}
  0
BLOCK_RECORD
  5
BE
330
1
100
AcDbSymbolTableRecord
100
AcDbBlockTableRecord
  2
*D3
340
0
  0
BLOCK_RECORD
  5
CD
330
1
100
AcDbSymbolTableRecord
100
AcDbBlockTableRecord
  2
*D4
340
0
  0
BLOCK_RECORD
  5
D8
330
1
100
AcDbSymbolTableRecord
100
AcDbBlockTableRecord
  2
*D5
340
0
  0
BLOCK_RECORD
  5
E2
330
1
100
AcDbSymbolTableRecord
100
AcDbBlockTableRecord
  2
*D6
340
0
  0
BLOCK_RECORD
  5
ED
330
1
100
AcDbSymbolTableRecord
100
AcDbBlockTableRecord
  2
*D7
340
0
  0
BLOCK_RECORD
  5
F6
330
1
100
AcDbSymbolTableRecord
100
AcDbBlockTableRecord
  2
SW_CENTERMARKSYMBOL_0
340
0
102
{BLKREFS
331
101
102
}
  0
BLOCK_RECORD
  5
102
330
1
100
AcDbSymbolTableRecord
100
AcDbBlockTableRecord
  2
SW_CENTERMARKSYMBOL_1
340
0
102
{BLKREFS
331
10D
102
}
  0
BLOCK_RECORD
  5
11A
330
1
100
AcDbSymbolTableRecord
100
AcDbBlockTableRecord
  2
*D10
340
0
  0
BLOCK_RECORD
  5
126
330
1
100
AcDbSymbolTableRecord
100
AcDbBlockTableRecord
  2
*D11
340
0
  0
BLOCK_RECORD
  5
132
330
1
100
AcDbSymbolTableRecord
100
AcDbBlockTableRecord
  2
*D12
340
0
  0
BLOCK_RECORD
  5
13C
330
1
100
AcDbSymbolTableRecord
100
AcDbBlockTableRecord
  2
*D13
340
0
  0
BLOCK_RECORD
  5
146
330
1
100
AcDbSymbolTableRecord
100
AcDbBlockTableRecord
  2
*D14
340
0
  0
BLOCK_RECORD
  5
14F
330
1
100
AcDbSymbolTableRecord
100
AcDbBlockTableRecord
  2
SW_CENTERMARKSYMBOL_2
340
0
102
{BLKREFS
331
15A
102
}
  0
BLOCK_RECORD
  5
1BF
330
1
100
AcDbSymbolTableRecord
100
AcDbBlockTableRecord
  2
*D16
340
0
  0
BLOCK_RECORD
  5
1C9
330
1
100
AcDbSymbolTableRecord
100
AcDbBlockTableRecord
  2
*D17
340
0
  0
ENDTAB
  0
ENDSEC
  0
SECTION
  2
BLOCKS
  0
BLOCK
  5
20
330
1F
100
AcDbEntity
  8
0
100
AcDbBlockBegin
  2
*Model_Space
 70
     0
 10
0.0
 20
0.0
 30
0.0
  3
*Model_Space
  1

  0
ENDBLK
  5
21
330
1F
100
AcDbEntity
  8
0
100
AcDbBlockEnd
  0
BLOCK
  5
1C
330
1B
100
AcDbEntity
 67
     1
  8
0
100
AcDbBlockBegin
  2
*Paper_Space
 70
     0
 10
0.0
 20
0.0
 30
0.0
  3
*Paper_Space
  1

  0
ENDBLK
  5
1D
330
1B
100
AcDbEntity
 67
     1
  8
0
100
AcDbBlockEnd
  0
BLOCK
  5
24
330
23
100
AcDbEntity
  8
0
100
AcDbBlockBegin
  2
*Paper_Space0
 70
     0
 10
0.0
 20
0.0
 30
0.0
  3
*Paper_Space0
  1

  0
ENDBLK
  5
25
330
23
100
AcDbEntity
  8
0
100
AcDbBlockEnd
  0
BLOCK
  5
99
330
98
100
AcDbEntity
  8
0
100
AcDbBlockBegin
  2
SW_NOTE_0
 70
     0
 10
0.0
 20
0.0
 30
0.0
  3
SW_NOTE_0
  1

  0
MTEXT
  5
9B
330
98
100
AcDbEntity
  8
0
  6
Continuous
 62
     0
370
     0
100
AcDbMText
 10
0.0
 20
1.9336016097
 30
0.0
 40
1.5
 41
0.0
 71
     1
 72
     1
  1
DEBUR AND 
  7
SLDTEXTSTYLE1
 73
     1
 44
1.0
  0
MTEXT
  5
9C
330
98
100
AcDbEntity
  8
0
  6
Continuous
 62
     0
370
     0
100
AcDbMText
 10
0.0
 20
-0.5663983345
 30
0.0
 40
1.5
 41
0.0
 71
     1
 72
     1
  1
BREAK SHARP 
  7
SLDTEXTSTYLE1
 73
     1
 44
1.0
  0
MTEXT
  5
9D
330
98
100
AcDbEntity
  8
0
  6
Continuous
 62
     0
370
     0
100
AcDbMText
 10
0.0
 20
-3.0663982786
 30
0.0
 40
1.5
 41
0.0
 71
     1
 72
     1
  1
EDGES
  7
SLDTEXTSTYLE1
 73
     1
 44
1.0
  0
ENDBLK
  5
9A
330
98
100
AcDbEntity
  8
0
100
AcDbBlockEnd
  0
BLOCK
  5
A1
330
A0
100
AcDbEntity
  8
0
100
AcDbBlockBegin
  2
SW_NOTE_1
 70
     0
 10
0.0
 20
0.0
 30
0.0
  3
SW_NOTE_1
  1

  0
MTEXT
  5
A3
330
A0
100
AcDbEntity
  8
0
  6
Continuous
 62
     0
370
     0
100
AcDbMText
 10
0.0
 20
1.9336016097
 30
0.0
 40
1.5
 41
0.0
 71
     1
 72
     1
  1
UNLESS OTHERWISE SPECIFIED:
  7
SLDTEXTSTYLE1
 73
     1
 44
1.0
  0
MTEXT
  5
A4
330
A0
100
AcDbEntity
  8
0
  6
Continuous
 62
     0
370
     0
100
AcDbMText
 10
0.0
 20
-0.5663983345
 30
0.0
 40
1.5
 41
0.0
 71
     1
 72
     1
  1
DIMENSIONS ARE IN MILLIMETERS
  7
SLDTEXTSTYLE1
 73
     1
 44
1.0
  0
MTEXT
  5
A5
330
A0
100
AcDbEntity
  8
0
  6
Continuous
 62
     0
370
     0
100
AcDbMText
 10
0.0
 20
-3.0663982786
 30
0.0
 40
1.5
 41
0.0
 71
     1
 72
     1
  1
SURFACE FINISH:
  7
SLDTEXTSTYLE1
 73
     1
 44
1.0
  0
MTEXT
  5
A6
330
A0
100
AcDbEntity
  8
0
  6
Continuous
 62
     0
370
     0
100
AcDbMText
 10
0.0
 20
-5.5663982227
 30
0.0
 40
1.5
 41
0.0
 71
     1
 72
     1
  1
TOLERANCES:
  7
SLDTEXTSTYLE1
 73
     1
 44
1.0
  0
MTEXT
  5
A7
330
A0
100
AcDbEntity
  8
0
  6
Continuous
 62
     0
370
     0
100
AcDbMText
 10
0.0
 20
-8.0663981668
 30
0.0
 40
1.5
 41
0.0
 71
     1
 72
     1
  1
   LINEAR:
  7
SLDTEXTSTYLE1
 73
     1
 44
1.0
  0
MTEXT
  5
A8
330
A0
100
AcDbEntity
  8
0
  6
Continuous
 62
     0
370
     0
100
AcDbMText
 10
0.0
 20
-10.5663981109
 30
0.0
 40
1.5
 41
0.0
 71
     1
 72
     1
  1
   ANGULAR:
  7
SLDTEXTSTYLE1
 73
     1
 44
1.0
  0
ENDBLK
  5
A2
330
A0
100
AcDbEntity
  8
0
100
AcDbBlockEnd
  0
BLOCK
  5
BF
330
BE
100
AcDbEntity
  8
0
100
AcDbBlockBegin
  2
*D3
 70
     1
 10
0.0
 20
0.0
 30
0.0
  3
*D3
  1

  0
ARC
  5
C1
330
BE
100
AcDbEntity
  8
0
  6
Continuous
 62
     7
370
     0
100
AcDbCircle
 10
73.8580240599
 20
226.1127513699
 30
0.0
 40
3.966933152765322
100
AcDbArc
 50
153.4349488229
 51
206.5650511771
  0
ARC
  5
C2
330
BE
100
AcDbEntity
  8
0
  6
Continuous
 62
     7
370
     0
100
AcDbCircle
 10
73.4641418682
 20
226.1127513699
 30
0.0
 40
3.966933152765322
100
AcDbArc
 50
333.4349488229
 51
26.5650511771
  0
SOLID
  5
C3
330
BE
100
AcDbEntity
  8
0
  6
Continuous
 62
     7
370
     0
100
AcDbTrace
 10
68.8231332302
 20
224.3386849315
 30
0.0
 11
66.5116464138
 21
224.6942982879
 31
0.0
 12
66.5116464138
 22
223.9830715751
 32
0.0
 13
66.5116464138
 23
223.9830715751
 33
0.0
  0
SOLID
  5
C4
330
BE
100
AcDbEntity
  8
0
  6
Continuous
 62
     7
370
     0
100
AcDbTrace
 10
80.8231332302
 20
224.3386849315
 30
0.0
 11
83.1346200466
 21
223.9830715751
 31
0.0
 12
83.1346200466
 22
224.6942982879
 32
0.0
 13
83.1346200466
 23
224.6942982879
 33
0.0
  0
LINE
  5
C5
330
BE
100
AcDbEntity
  8
0
  6
Continuous
 62
     7
370
     0
100
AcDbLine
 10
68.8231332302
 20
209.3386849315
 30
0.0
 11
68.8231332302
 21
225.3386849315
 31
0.0
  0
LINE
  5
C6
330
BE
100
AcDbEntity
  8
0
  6
Continuous
 62
     7
370
     0
100
AcDbLine
 10
80.8231332302
 20
209.3386849315
 30
0.0
 11
80.8231332302
 21
225.3386849315
 31
0.0
  0
LINE
  5
C7
330
BE
100
AcDbEntity
  8
0
  6
Continuous
 62
     7
370
     0
100
AcDbLine
 10
68.8231332302
 20
224.3386849315
 30
0.0
 11
64.3779662756
 21
224.3386849315
 31
0.0
  0
LINE
  5
C8
330
BE
100
AcDbEntity
  8
0
  6
Continuous
 62
     7
370
     0
100
AcDbLine
 10
68.8231332302
 20
224.3386849315
 30
0.0
 11
80.8231332302
 21
224.3386849315
 31
0.0
  0
LINE
  5
C9
330
BE
100
AcDbEntity
  8
0
  6
Continuous
 62
     7
370
     0
100
AcDbLine
 10
80.8231332302
 20
224.3386849315
 30
0.0
 11
85.2683001849
 21
224.3386849315
 31
0.0
  0
MTEXT
  5
CA
330
BE
100
AcDbEntity
  8
0
  6
Continuous
 62
     7
370
     0
100
AcDbMText
 10
71.8973911832
 20
227.408277545
 30
0.0
 40
2.38125
 41
0.0
 71
     1
 72
     1
  1
12
  7
SLDTEXTSTYLE0
 73
     1
 44
1.0
  0
ENDBLK
  5
C0
330
BE
100
AcDbEntity
  8
0
100
AcDbBlockEnd
  0
BLOCK
  5
CE
330
CD
100
AcDbEntity
  8
0
100
AcDbBlockBegin
  2
*D4
 70
     1
 10
0.0
 20
0.0
 30
0.0
  3
*D4
  1

  0
SOLID
  5
D0
330
CD
100
AcDbEntity
  8
0
  6
Continuous
 62
     7
370
     0
100
AcDbTrace
 10
75.1731332302
 20
218.3386849315
 30
0.0
 11
72.8616464138
 21
218.6942982879
 31
0.0
 12
72.8616464138
 22
217.9830715751
 32
0.0
 13
72.8616464138
 23
217.9830715751
 33
0.0
  0
SOLID
  5
D1
330
CD
100
AcDbEntity
  8
0
  6
Continuous
 62
     7
370
     0
100
AcDbTrace
 10
68.8231332302
 20
218.3386849315
 30
0.0
 11
71.1346200466
 21
217.9830715751
 31
0.0
 12
71.1346200466
 22
218.6942982879
 32
0.0
 13
71.1346200466
 23
218.6942982879
 33
0.0
  0
LINE
  5
D2
330
CD
100
AcDbEntity
  8
0
  6
Continuous
 62
     7
370
     0
100
AcDbLine
 10
75.1731332302
 20
203.0886849315
 30
0.0
 11
75.1731332302
 21
219.3386849315
 31
0.0
  0
LINE
  5
D3
330
CD
100
AcDbEntity
  8
0
  6
Continuous
 62
     7
370
     0
100
AcDbLine
 10
68.8231332302
 20
209.3386849315
 30
0.0
 11
68.8231332302
 21
219.3386849315
 31
0.0
  0
LINE
  5
D4
330
CD
100
AcDbEntity
  8
0
  6
Continuous
 62
     7
370
     0
100
AcDbLine
 10
75.1731332302
 20
218.3386849315
 30
0.0
 11
68.8231332302
 21
218.3386849315
 31
0.0
  0
LINE
  5
D5
330
CD
100
AcDbEntity
  8
0
  6
Continuous
 62
     7
370
     0
100
AcDbLine
 10
68.8231332302
 20
218.3386849315
 30
0.0
 11
58.0921833859
 21
218.3386849315
 31
0.0
  0
MTEXT
  5
D6
330
CD
100
AcDbEntity
  8
0
  6
Continuous
 62
     7
370
     0
100
AcDbMText
 10
59.6796833859
 20
221.408277545
 30
0.0
 40
2.38125
 41
0.0
 71
     1
 72
     1
  1
6.35
  7
SLDTEXTSTYLE0
 73
     1
 44
1.0
  0
ENDBLK
  5
CF
330
CD
100
AcDbEntity
  8
0
100
AcDbBlockEnd
  0
BLOCK
  5
D9
330
D8
100
AcDbEntity
  8
0
100
AcDbBlockBegin
  2
*D5
 70
     1
 10
0.0
 20
0.0
 30
0.0
  3
*D5
  1

  0
SOLID
  5
DB
330
D8
100
AcDbEntity
  8
0
  6
Continuous
 62
     7
370
     0
100
AcDbTrace
 10
58.8231332302
 20
208.3386849315
 30
0.0
 11
58.4675198739
 21
206.0271981151
 31
0.0
 12
59.1787465866
 22
206.0271981151
 32
0.0
 13
59.1787465866
 23
206.0271981151
 33
0.0
  0
SOLID
  5
DC
330
D8
100
AcDbEntity
  8
0
  6
Continuous
 62
     7
370
     0
100
AcDbTrace
 10
58.8231332302
 20
198.3386849315
 30
0.0
 11
59.1787465866
 21
200.6501717479
 31
0.0
 12
58.4675198739
 22
200.6501717479
 32
0.0
 13
58.4675198739
 23
200.6501717479
 33
0.0
  0
LINE
  5
DD
330
D8
100
AcDbEntity
  8
0
  6
Continuous
 62
     7
370
     0
100
AcDbLine
 10
67.8231332302
 20
208.3386849315
 30
0.0
 11
57.8231332302
 21
208.3386849315
 31
0.0
  0
LINE
  5
DE
330
D8
100
AcDbEntity
  8
0
  6
Continuous
 62
     7
370
     0
100
AcDbLine
 10
70.4231332302
 20
198.3386849315
 30
0.0
 11
57.8231332302
 21
198.3386849315
 31
0.0
  0
LINE
  5
DF
330
D8
100
AcDbEntity
  8
0
  6
Continuous
 62
     7
370
     0
100
AcDbLine
 10
58.8231332302
 20
208.3386849315
 30
0.0
 11
58.8231332302
 21
198.3386849315
 31
0.0
  0
MTEXT
  5
E0
330
D8
100
AcDbEntity
  8
0
  6
Continuous
 62
     7
370
     0
100
AcDbMText
 10
55.7535406167
 20
201.5125682812
 30
0.0
 40
2.38125
 41
0.0
 71
     1
 72
     1
  1
10
  7
SLDTEXTSTYLE0
 11
-7.044195017643634E-15
 21
1.0
 31
0.0
 73
     1
 44
1.0
  0
ENDBLK
  5
DA
330
D8
100
AcDbEntity
  8
0
100
AcDbBlockEnd
  0
BLOCK
  5
E3
330
E2
100
AcDbEntity
  8
0
100
AcDbBlockBegin
  2
*D6
 70
     1
 10
0.0
 20
0.0
 30
0.0
  3
*D6
  1

  0
SOLID
  5
E5
330
E2
100
AcDbEntity
  8
0
  6
Continuous
 62
     7
370
     0
100
AcDbTrace
 10
49.4688424122
 20
208.3386849315
 30
0.0
 11
49.1132290558
 21
206.0271981151
 31
0.0
 12
49.8244557686
 22
206.0271981151
 32
0.0
 13
49.8244557686
 23
206.0271981151
 33
0.0
  0
SOLID
  5
E6
330
E2
100
AcDbEntity
  8
0
  6
Continuous
 62
     7
370
     0
100
AcDbTrace
 10
49.4688424122
 20
178.3386849315
 30
0.0
 11
49.8244557686
 21
180.6501717479
 31
0.0
 12
49.1132290558
 22
180.6501717479
 32
0.0
 13
49.1132290558
 23
180.6501717479
 33
0.0
  0
LINE
  5
E7
330
E2
100
AcDbEntity
  8
0
  6
Continuous
 62
     7
370
     0
100
AcDbLine
 10
67.8231332302
 20
208.3386849315
 30
0.0
 11
48.4688424122
 21
208.3386849315
 31
0.0
  0
LINE
  5
E8
330
E2
100
AcDbEntity
  8
0
  6
Continuous
 62
     7
370
     0
100
AcDbLine
 10
70.4231332302
 20
178.3386849315
 30
0.0
 11
48.4688424122
 21
178.3386849315
 31
0.0
  0
LINE
  5
E9
330
E2
100
AcDbEntity
  8
0
  6
Continuous
 62
     7
370
     0
100
AcDbLine
 10
49.4688424122
 20
208.3386849315
 30
0.0
 11
49.4688424122
 21
178.3386849315
 31
0.0
  0
MTEXT
  5
EA
330
E2
100
AcDbEntity
  8
0
  6
Continuous
 62
     7
370
     0
100
AcDbMText
 10
46.3992497986
 20
192.167823417
 30
0.0
 40
2.38125
 41
0.0
 71
     1
 72
     1
  1
30
  7
SLDTEXTSTYLE0
 11
-7.044195017643634E-15
 21
1.0
 31
0.0
 73
     1
 44
1.0
  0
ENDBLK
  5
E4
330
E2
100
AcDbEntity
  8
0
100
AcDbBlockEnd
  0
BLOCK
  5
EE
330
ED
100
AcDbEntity
  8
0
100
AcDbBlockBegin
  2
*D7
 70
     1
 10
0.0
 20
0.0
 30
0.0
  3
*D7
  1

  0
SOLID
  5
F0
330
ED
100
AcDbEntity
  8
0
  6
Continuous
 62
     7
370
     0
100
AcDbTrace
 10
76.4721713359
 20
199.0886849315
 30
0.0
 11
78.6517843176
 21
199.9364581392
 31
0.0
 12
78.2961709612
 22
200.5523985403
 32
0.0
 13
78.2961709612
 23
200.5523985403
 33
0.0
  0
LINE
  5
F1
330
ED
100
AcDbEntity
  8
0
  6
Continuous
 62
     7
370
     0
100
AcDbLine
 10
76.4721713359
 20
199.0886849315
 30
0.0
 11
104.4086759815
 21
215.2178334089
 31
0.0
  0
LINE
  5
F2
330
ED
100
AcDbEntity
  8
0
  6
Continuous
 62
     7
370
     0
100
AcDbLine
 10
76.4721713359
 20
199.0886849315
 30
0.0
 11
73.8740951245
 21
197.5886849315
 31
0.0
  0
MTEXT
  5
F3
330
ED
100
AcDbEntity
  8
0
  6
Continuous
 62
     7
370
     0
100
AcDbMText
 10
83.3277149746
 20
206.5844144247
 30
0.0
 40
2.38125
 41
0.0
 71
     1
 72
     1
  1
M
  7
SLDTEXTSTYLE0
 11
0.8660254037844387
 21
0.4999999999999998
 31
0.0
 73
     1
 44
1.0
  0
MTEXT
  5
F4
330
ED
100
AcDbEntity
  8
0
  6
Continuous
 62
     7
370
     0
100
AcDbMText
 10
85.6170208612
 20
207.9061457946
 30
0.0
 40
2.38125
 41
0.0
 71
     1
 72
     1
  1
3
  7
SLDTEXTSTYLE0
 11
0.8660254037844387
 21
0.4999999999999998
 31
0.0
 73
     1
 44
1.0
  0
MTEXT
  5
F5
330
ED
100
AcDbEntity
  8
0
  6
Continuous
 62
     7
370
     0
100
AcDbMText
 10
87.1444227478
 20
208.787991685
 30
0.0
 40
2.38125
 41
0.0
 71
     1
 72
     1
  1
x0.5, 5deep
  7
SLDTEXTSTYLE0
 11
0.8660254037844387
 21
0.4999999999999998
 31
0.0
 73
     1
 44
1.0
  0
ENDBLK
  5
EF
330
ED
100
AcDbEntity
  8
0
100
AcDbBlockEnd
  0
BLOCK
  5
F7
330
F6
100
AcDbEntity
  8
0
100
AcDbBlockBegin
  2
SW_CENTERMARKSYMBOL_0
 70
     0
 10
0.0
 20
0.0
 30
0.0
  3
SW_CENTERMARKSYMBOL_0
  1

  0
LINE
  5
F9
330
F6
100
AcDbEntity
  8
0
  6
Continuous
 62
     0
370
     0
100
AcDbLine
 10
0.0
 20
0.0
 30
0.0
 11
0.0
 21
2.5
 31
0.0
  0
LINE
  5
FA
330
F6
100
AcDbEntity
  8
0
  6
Continuous
 62
     0
370
     0
100
AcDbLine
 10
0.0
 20
0.0
 30
0.0
 11
-2.5
 21
0.0
 31
0.0
  0
LINE
  5
FB
330
F6
100
AcDbEntity
  8
0
  6
Continuous
 62
     0
370
     0
100
AcDbLine
 10
0.0
 20
0.0
 30
0.0
 11
0.0
 21
-2.5
 31
0.0
  0
LINE
  5
FC
330
F6
100
AcDbEntity
  8
0
  6
Continuous
 62
     0
370
     0
100
AcDbLine
 10
0.0
 20
0.0
 30
0.0
 11
2.5
 21
0.0
 31
0.0
  0
LINE
  5
FD
330
F6
100
AcDbEntity
  8
0
  6
Continuous
 62
     0
370
     0
100
AcDbLine
 10
0.0
 20
2.5
 30
0.0
 11
0.0
 21
3.75
 31
0.0
  0
LINE
  5
FE
330
F6
100
AcDbEntity
  8
0
  6
Continuous
 62
     0
370
     0
100
AcDbLine
 10
-2.5
 20
0.0
 30
0.0
 11
-3.75
 21
0.0
 31
0.0
  0
LINE
  5
FF
330
F6
100
AcDbEntity
  8
0
  6
Continuous
 62
     0
370
     0
100
AcDbLine
 10
0.0
 20
-2.5
 30
0.0
 11
0.0
 21
-3.75
 31
0.0
  0
LINE
  5
100
330
F6
100
AcDbEntity
  8
0
  6
Continuous
 62
     0
370
     0
100
AcDbLine
 10
2.5
 20
0.0
 30
0.0
 11
3.75
 21
0.0
 31
0.0
  0
ENDBLK
  5
F8
330
F6
100
AcDbEntity
  8
0
100
AcDbBlockEnd
  0
BLOCK
  5
103
330
102
100
AcDbEntity
  8
0
100
AcDbBlockBegin
  2
SW_CENTERMARKSYMBOL_1
 70
     0
 10
0.0
 20
0.0
 30
0.0
  3
SW_CENTERMARKSYMBOL_1
  1

  0
LINE
  5
105
330
102
100
AcDbEntity
  8
0
  6
Continuous
 62
     0
370
     0
100
AcDbLine
 10
0.0
 20
0.0
 30
0.0
 11
0.0
 21
2.5
 31
0.0
  0
LINE
  5
106
330
102
100
AcDbEntity
  8
0
  6
Continuous
 62
     0
370
     0
100
AcDbLine
 10
0.0
 20
0.0
 30
0.0
 11
-2.5
 21
0.0
 31
0.0
  0
LINE
  5
107
330
102
100
AcDbEntity
  8
0
  6
Continuous
 62
     0
370
     0
100
AcDbLine
 10
0.0
 20
0.0
 30
0.0
 11
0.0
 21
-2.5
 31
0.0
  0
LINE
  5
108
330
102
100
AcDbEntity
  8
0
  6
Continuous
 62
     0
370
     0
100
AcDbLine
 10
0.0
 20
0.0
 30
0.0
 11
2.5
 21
0.0
 31
0.0
  0
LINE
  5
109
330
102
100
AcDbEntity
  8
0
  6
Continuous
 62
     0
370
     0
100
AcDbLine
 10
0.0
 20
2.5
 30
0.0
 11
0.0
 21
3.75
 31
0.0
  0
LINE
  5
10A
330
102
100
AcDbEntity
  8
0
  6
Continuous
 62
     0
370
     0
100
AcDbLine
 10
-2.5
 20
0.0
 30
0.0
 11
-3.75
 21
0.0
 31
0.0
  0
LINE
  5
10B
330
102
100
AcDbEntity
  8
0
  6
Continuous
 62
     0
370
     0
100
AcDbLine
 10
0.0
 20
-2.5
 30
0.0
 11
0.0
 21
-3.75
 31
0.0
  0
LINE
  5
10C
330
102
100
AcDbEntity
  8
0
  6
Continuous
 62
     0
370
     0
100
AcDbLine
 10
2.5
 20
0.0
 30
0.0
 11
3.75
 21
0.0
 31
0.0
  0
ENDBLK
  5
104
330
102
100
AcDbEntity
  8
0
100
AcDbBlockEnd
  0
BLOCK
  5
11B
330
11A
100
AcDbEntity
  8
0
100
AcDbBlockBegin
  2
*D10
 70
     1
 10
0.0
 20
0.0
 30
0.0
  3
*D10
  1

  0
ARC
  5
11D
330
11A
100
AcDbEntity
  8
0
  6
Continuous
 62
     7
370
     0
100
AcDbCircle
 10
137.696156136
 20
226.1127513699
 30
0.0
 40
3.966933152765322
100
AcDbArc
 50
153.4349488229
 51
206.5650511771
  0
ARC
  5
11E
330
11A
100
AcDbEntity
  8
0
  6
Continuous
 62
     7
370
     0
100
AcDbCircle
 10
137.3022739442
 20
226.1127513699
 30
0.0
 40
3.966933152765348
100
AcDbArc
 50
333.4349488229
 51
26.5650511771
  0
SOLID
  5
11F
330
11A
100
AcDbEntity
  8
0
  6
Continuous
 62
     7
370
     0
100
AcDbTrace
 10
116.4096989458
 20
224.3386849315
 30
0.0
 11
118.7211857622
 21
223.9830715751
 31
0.0
 12
118.7211857622
 22
224.6942982879
 32
0.0
 13
118.7211857622
 23
224.6942982879
 33
0.0
  0
SOLID
  5
120
330
11A
100
AcDbEntity
  8
0
  6
Continuous
 62
     7
370
     0
100
AcDbTrace
 10
154.4096989458
 20
224.3386849315
 30
0.0
 11
152.0982121294
 21
224.6942982879
 31
0.0
 12
152.0982121294
 22
223.9830715751
 32
0.0
 13
152.0982121294
 23
223.9830715751
 33
0.0
  0
LINE
  5
121
330
11A
100
AcDbEntity
  8
0
  6
Continuous
 62
     7
370
     0
100
AcDbLine
 10
116.4096989458
 20
209.3386849315
 30
0.0
 11
116.4096989458
 21
225.3386849315
 31
0.0
  0
LINE
  5
122
330
11A
100
AcDbEntity
  8
0
  6
Continuous
 62
     7
370
     0
100
AcDbLine
 10
154.4096989458
 20
209.3386849315
 30
0.0
 11
154.4096989458
 21
225.3386849315
 31
0.0
  0
LINE
  5
123
330
11A
100
AcDbEntity
  8
0
  6
Continuous
 62
     7
370
     0
100
AcDbLine
 10
116.4096989458
 20
224.3386849315
 30
0.0
 11
154.4096989458
 21
224.3386849315
 31
0.0
  0
MTEXT
  5
124
330
11A
100
AcDbEntity
  8
0
  6
Continuous
 62
     7
370
     0
100
AcDbMText
 10
135.7355232593
 20
227.408277545
 30
0.0
 40
2.38125
 41
0.0
 71
     1
 72
     1
  1
38
  7
SLDTEXTSTYLE0
 73
     1
 44
1.0
  0
ENDBLK
  5
11C
330
11A
100
AcDbEntity
  8
0
100
AcDbBlockEnd
  0
BLOCK
  5
127
330
126
100
AcDbEntity
  8
0
100
AcDbBlockBegin
  2
*D11
 70
     1
 10
0.0
 20
0.0
 30
0.0
  3
*D11
  1

  0
SOLID
  5
129
330
126
100
AcDbEntity
  8
0
  6
Continuous
 62
     7
370
     0
100
AcDbTrace
 10
164.4096989458
 20
208.3386849315
 30
0.0
 11
164.7653123021
 21
210.6501717479
 31
0.0
 12
164.0540855894
 22
210.6501717479
 32
0.0
 13
164.0540855894
 23
210.6501717479
 33
0.0
  0
SOLID
  5
12A
330
126
100
AcDbEntity
  8
0
  6
Continuous
 62
     7
370
     0
100
AcDbTrace
 10
164.4096989458
 20
201.3386849315
 30
0.0
 11
164.0540855894
 21
199.0271981151
 31
0.0
 12
164.7653123021
 22
199.0271981151
 32
0.0
 13
164.7653123021
 23
199.0271981151
 33
0.0
  0
LINE
  5
12B
330
126
100
AcDbEntity
  8
0
  6
Continuous
 62
     7
370
     0
100
AcDbLine
 10
155.4096989458
 20
208.3386849315
 30
0.0
 11
165.4096989458
 21
208.3386849315
 31
0.0
  0
LINE
  5
12C
330
126
100
AcDbEntity
  8
0
  6
Continuous
 62
     7
370
     0
100
AcDbLine
 10
141.4096989458
 20
201.3386849315
 30
0.0
 11
165.4096989458
 21
201.3386849315
 31
0.0
  0
LINE
  5
12D
330
126
100
AcDbEntity
  8
0
  6
Continuous
 62
     7
370
     0
100
AcDbLine
 10
164.4096989458
 20
208.3386849315
 30
0.0
 11
164.4096989458
 21
212.7838518861
 31
0.0
  0
LINE
  5
12E
330
126
100
AcDbEntity
  8
0
  6
Continuous
 62
     7
370
     0
100
AcDbLine
 10
164.4096989458
 20
208.3386849315
 30
0.0
 11
164.4096989458
 21
201.3386849315
 31
0.0
  0
LINE
  5
12F
330
126
100
AcDbEntity
  8
0
  6
Continuous
 62
     7
370
     0
100
AcDbLine
 10
164.4096989458
 20
201.3386849315
 30
0.0
 11
164.4096989458
 21
196.8935179769
 31
0.0
  0
MTEXT
  5
130
330
126
100
AcDbEntity
  8
0
  6
Continuous
 62
     7
370
     0
100
AcDbMText
 10
161.3401063322
 20
203.7390640326
 30
0.0
 40
2.38125
 41
0.0
 71
     1
 72
     1
  1
7
  7
SLDTEXTSTYLE0
 11
-7.044195017643634E-15
 21
1.0
 31
0.0
 73
     1
 44
1.0
  0
ENDBLK
  5
128
330
126
100
AcDbEntity
  8
0
100
AcDbBlockEnd
  0
BLOCK
  5
133
330
132
100
AcDbEntity
  8
0
100
AcDbBlockBegin
  2
*D12
 70
     1
 10
0.0
 20
0.0
 30
0.0
  3
*D12
  1

  0
SOLID
  5
135
330
132
100
AcDbEntity
  8
0
  6
Continuous
 62
     7
370
     0
100
AcDbTrace
 10
136.6596989458
 20
216.1657446055
 30
0.0
 11
138.9711857622
 21
215.8101312492
 31
0.0
 12
138.9711857622
 22
216.5213579619
 32
0.0
 13
138.9711857622
 23
216.5213579619
 33
0.0
  0
SOLID
  5
136
330
132
100
AcDbEntity
  8
0
  6
Continuous
 62
     7
370
     0
100
AcDbTrace
 10
154.4096989458
 20
216.1657446055
 30
0.0
 11
152.0982121294
 21
216.5213579619
 31
0.0
 12
152.0982121294
 22
215.8101312492
 32
0.0
 13
152.0982121294
 23
215.8101312492
 33
0.0
  0
LINE
  5
137
330
132
100
AcDbEntity
  8
0
  6
Continuous
 62
     7
370
     0
100
AcDbLine
 10
136.6596989458
 20
206.0886849315
 30
0.0
 11
136.6596989458
 21
217.1657446055
 31
0.0
  0
LINE
  5
138
330
132
100
AcDbEntity
  8
0
  6
Continuous
 62
     7
370
     0
100
AcDbLine
 10
154.4096989458
 20
209.3386849315
 30
0.0
 11
154.4096989458
 21
217.1657446055
 31
0.0
  0
LINE
  5
139
330
132
100
AcDbEntity
  8
0
  6
Continuous
 62
     7
370
     0
100
AcDbLine
 10
136.6596989458
 20
216.1657446055
 30
0.0
 11
154.4096989458
 21
216.1657446055
 31
0.0
  0
MTEXT
  5
13A
330
132
100
AcDbEntity
  8
0
  6
Continuous
 62
     7
370
     0
100
AcDbMText
 10
140.0948977485
 20
219.2353372191
 30
0.0
 40
2.38125
 41
0.0
 71
     1
 72
     1
  1
17.75
  7
SLDTEXTSTYLE0
 73
     1
 44
1.0
  0
ENDBLK
  5
134
330
132
100
AcDbEntity
  8
0
100
AcDbBlockEnd
  0
BLOCK
  5
13D
330
13C
100
AcDbEntity
  8
0
100
AcDbBlockBegin
  2
*D13
 70
     1
 10
0.0
 20
0.0
 30
0.0
  3
*D13
  1

  0
SOLID
  5
13F
330
13C
100
AcDbEntity
  8
0
  6
Continuous
 62
     7
370
     0
100
AcDbTrace
 10
174.1410995087
 20
208.3386849315
 30
0.0
 11
173.7854861523
 21
206.0271981151
 31
0.0
 12
174.496712865
 22
206.0271981151
 32
0.0
 13
174.496712865
 23
206.0271981151
 33
0.0
  0
SOLID
  5
140
330
13C
100
AcDbEntity
  8
0
  6
Continuous
 62
     7
370
     0
100
AcDbTrace
 10
174.1410995087
 20
168.3386849315
 30
0.0
 11
174.496712865
 21
170.6501717479
 31
0.0
 12
173.7854861523
 22
170.6501717479
 32
0.0
 13
173.7854861523
 23
170.6501717479
 33
0.0
  0
LINE
  5
141
330
13C
100
AcDbEntity
  8
0
  6
Continuous
 62
     7
370
     0
100
AcDbLine
 10
155.4096989458
 20
208.3386849315
 30
0.0
 11
175.1410995087
 21
208.3386849315
 31
0.0
  0
LINE
  5
142
330
13C
100
AcDbEntity
  8
0
  6
Continuous
 62
     7
370
     0
100
AcDbLine
 10
155.4096989458
 20
168.3386849315
 30
0.0
 11
175.1410995087
 21
168.3386849315
 31
0.0
  0
LINE
  5
143
330
13C
100
AcDbEntity
  8
0
  6
Continuous
 62
     7
370
     0
100
AcDbLine
 10
174.1410995087
 20
208.3386849315
 30
0.0
 11
174.1410995087
 21
168.3386849315
 31
0.0
  0
MTEXT
  5
144
330
13C
100
AcDbEntity
  8
0
  6
Continuous
 62
     7
370
     0
100
AcDbMText
 10
171.0715068951
 20
191.0534345958
 30
0.0
 40
2.38125
 41
0.0
 71
     1
 72
     1
  1
40
  7
SLDTEXTSTYLE0
 11
-7.044195017643634E-15
 21
1.0
 31
0.0
 73
     1
 44
1.0
  0
ENDBLK
  5
13E
330
13C
100
AcDbEntity
  8
0
100
AcDbBlockEnd
  0
BLOCK
  5
147
330
146
100
AcDbEntity
  8
0
100
AcDbBlockBegin
  2
*D14
 70
     1
 10
0.0
 20
0.0
 30
0.0
  3
*D14
  1

  0
SOLID
  5
149
330
146
100
AcDbEntity
  8
0
  6
Continuous
 62
     7
370
     0
100
AcDbTrace
 10
135.3606608401
 20
200.5886849315
 30
0.0
 11
133.1810478584
 21
199.7409117238
 31
0.0
 12
133.5366612148
 22
199.1249713228
 32
0.0
 13
133.5366612148
 23
199.1249713228
 33
0.0
  0
LINE
  5
14A
330
146
100
AcDbEntity
  8
0
  6
Continuous
 62
     7
370
     0
100
AcDbLine
 10
135.3606608401
 20
200.5886849315
 30
0.0
 11
93.6232582319
 21
176.4915843004
 31
0.0
  0
LINE
  5
14B
330
146
100
AcDbEntity
  8
0
  6
Continuous
 62
     7
370
     0
100
AcDbLine
 10
135.3606608401
 20
200.5886849315
 30
0.0
 11
137.9587370515
 21
202.0886849315
 31
0.0
  0
MTEXT
  5
14C
330
146
100
AcDbEntity
  8
0
  6
Continuous
 62
     7
370
     0
100
AcDbMText
 10
93.4642600662
 20
179.9419772017
 30
0.0
 40
2.38125
 41
0.0
 71
     1
 72
     1
  1
M
  7
SLDTEXTSTYLE0
 11
0.8660254037844383
 21
0.5000000000000007
 31
0.0
 73
     1
 44
1.0
  0
MTEXT
  5
14D
330
146
100
AcDbEntity
  8
0
  6
Continuous
 62
     7
370
     0
100
AcDbMText
 10
95.7535659528
 20
181.2637085716
 30
0.0
 40
2.38125
 41
0.0
 71
     1
 72
     1
  1
3
  7
SLDTEXTSTYLE0
 11
0.8660254037844383
 21
0.5000000000000007
 31
0.0
 73
     1
 44
1.0
  0
MTEXT
  5
14E
330
146
100
AcDbEntity
  8
0
  6
Continuous
 62
     7
370
     0
100
AcDbMText
 10
97.2809678394
 20
182.145554462
 30
0.0
 40
2.38125
 41
0.0
 71
     1
 72
     1
  1
x0.5, 5deep
  7
SLDTEXTSTYLE0
 11
0.8660254037844383
 21
0.5000000000000007
 31
0.0
 73
     1
 44
1.0
  0
ENDBLK
  5
148
330
146
100
AcDbEntity
  8
0
100
AcDbBlockEnd
  0
BLOCK
  5
150
330
14F
100
AcDbEntity
  8
0
100
AcDbBlockBegin
  2
SW_CENTERMARKSYMBOL_2
 70
     0
 10
0.0
 20
0.0
 30
0.0
  3
SW_CENTERMARKSYMBOL_2
  1

  0
LINE
  5
152
330
14F
100
AcDbEntity
  8
0
  6
Continuous
 62
     0
370
     0
100
AcDbLine
 10
0.0
 20
0.0
 30
0.0
 11
0.0
 21
2.5
 31
0.0
  0
LINE
  5
153
330
14F
100
AcDbEntity
  8
0
  6
Continuous
 62
     0
370
     0
100
AcDbLine
 10
0.0
 20
0.0
 30
0.0
 11
-2.5
 21
0.0
 31
0.0
  0
LINE
  5
154
330
14F
100
AcDbEntity
  8
0
  6
Continuous
 62
     0
370
     0
100
AcDbLine
 10
0.0
 20
0.0
 30
0.0
 11
0.0
 21
-2.5
 31
0.0
  0
LINE
  5
155
330
14F
100
AcDbEntity
  8
0
  6
Continuous
 62
     0
370
     0
100
AcDbLine
 10
0.0
 20
0.0
 30
0.0
 11
2.5
 21
0.0
 31
0.0
  0
LINE
  5
156
330
14F
100
AcDbEntity
  8
0
  6
Continuous
 62
     0
370
     0
100
AcDbLine
 10
0.0
 20
2.5
 30
0.0
 11
0.0
 21
3.75
 31
0.0
  0
LINE
  5
157
330
14F
100
AcDbEntity
  8
0
  6
Continuous
 62
     0
370
     0
100
AcDbLine
 10
-2.5
 20
0.0
 30
0.0
 11
-3.75
 21
0.0
 31
0.0
  0
LINE
  5
158
330
14F
100
AcDbEntity
  8
0
  6
Continuous
 62
     0
370
     0
100
AcDbLine
 10
0.0
 20
-2.5
 30
0.0
 11
0.0
 21
-3.75
 31
0.0
  0
LINE
  5
159
330
14F
100
AcDbEntity
  8
0
  6
Continuous
 62
     0
370
     0
100
AcDbLine
 10
2.5
 20
0.0
 30
0.0
 11
3.75
 21
0.0
 31
0.0
  0
ENDBLK
  5
151
330
14F
100
AcDbEntity
  8
0
100
AcDbBlockEnd
  0
BLOCK
  5
1C0
330
1BF
100
AcDbEntity
  8
0
100
AcDbBlockBegin
  2
*D16
 70
     1
 10
0.0
 20
0.0
 30
0.0
  3
*D16
  1

  0
SOLID
  5
1C2
330
1BF
100
AcDbEntity
  8
0
  6
Continuous
 62
     7
370
     0
100
AcDbTrace
 10
116.4096989458
 20
116.8853527101
 30
0.0
 11
118.7211857622
 21
116.5297393538
 31
0.0
 12
118.7211857622
 22
117.2409660665
 32
0.0
 13
118.7211857622
 23
117.2409660665
 33
0.0
  0
SOLID
  5
1C3
330
1BF
100
AcDbEntity
  8
0
  6
Continuous
 62
     7
370
     0
100
AcDbTrace
 10
154.4096989458
 20
116.8853527101
 30
0.0
 11
152.0982121294
 21
117.2409660665
 31
0.0
 12
152.0982121294
 22
116.5297393538
 32
0.0
 13
152.0982121294
 23
116.5297393538
 33
0.0
  0
LINE
  5
1C4
330
1BF
100
AcDbEntity
  8
0
  6
Continuous
 62
     7
370
     0
100
AcDbLine
 10
116.4096989458
 20
125.7491662458
 30
0.0
 11
116.4096989458
 21
115.8853527101
 31
0.0
  0
LINE
  5
1C5
330
1BF
100
AcDbEntity
  8
0
  6
Continuous
 62
     7
370
     0
100
AcDbLine
 10
154.4096989458
 20
125.7491662458
 30
0.0
 11
154.4096989458
 21
115.8853527101
 31
0.0
  0
LINE
  5
1C6
330
1BF
100
AcDbEntity
  8
0
  6
Continuous
 62
     7
370
     0
100
AcDbLine
 10
116.4096989458
 20
116.8853527101
 30
0.0
 11
154.4096989458
 21
116.8853527101
 31
0.0
  0
MTEXT
  5
1C7
330
1BF
100
AcDbEntity
  8
0
  6
Continuous
 62
     7
370
     0
100
AcDbMText
 10
141.7202004997
 20
119.9549453237
 30
0.0
 40
2.38125
 41
0.0
 71
     1
 72
     1
  1
38
  7
SLDTEXTSTYLE0
 73
     1
 44
1.0
  0
ENDBLK
  5
1C1
330
1BF
100
AcDbEntity
  8
0
100
AcDbBlockEnd
  0
BLOCK
  5
1CA
330
1C9
100
AcDbEntity
  8
0
100
AcDbBlockBegin
  2
*D17
 70
     1
 10
0.0
 20
0.0
 30
0.0
  3
*D17
  1

  0
SOLID
  5
1CC
330
1C9
100
AcDbEntity
  8
0
  6
Continuous
 62
     7
370
     0
100
AcDbTrace
 10
164.7157634257
 20
126.7491662458
 30
0.0
 11
164.3601500693
 21
124.4376794294
 31
0.0
 12
165.071376782
 22
124.4376794294
 32
0.0
 13
165.071376782
 23
124.4376794294
 33
0.0
  0
SOLID
  5
1CD
330
1C9
100
AcDbEntity
  8
0
  6
Continuous
 62
     7
370
     0
100
AcDbTrace
 10
164.7157634257
 20
138.7491662458
 30
0.0
 11
165.071376782
 21
141.0606530622
 31
0.0
 12
164.3601500693
 22
141.0606530622
 32
0.0
 13
164.3601500693
 23
141.0606530622
 33
0.0
  0
LINE
  5
1CE
330
1C9
100
AcDbEntity
  8
0
  6
Continuous
 62
     7
370
     0
100
AcDbLine
 10
155.4096989458
 20
126.7491662458
 30
0.0
 11
165.7157634257
 21
126.7491662458
 31
0.0
  0
LINE
  5
1CF
330
1C9
100
AcDbEntity
  8
0
  6
Continuous
 62
     7
370
     0
100
AcDbLine
 10
154.8599009679
 20
138.7491662458
 30
0.0
 11
165.7157634257
 21
138.7491662458
 31
0.0
  0
LINE
  5
1D0
330
1C9
100
AcDbEntity
  8
0
  6
Continuous
 62
     7
370
     0
100
AcDbLine
 10
164.7157634257
 20
126.7491662458
 30
0.0
 11
164.7157634257
 21
122.3039992912
 31
0.0
  0
LINE
  5
1D1
330
1C9
100
AcDbEntity
  8
0
  6
Continuous
 62
     7
370
     0
100
AcDbLine
 10
164.7157634257
 20
126.7491662458
 30
0.0
 11
164.7157634257
 21
138.7491662458
 31
0.0
  0
LINE
  5
1D2
330
1C9
100
AcDbEntity
  8
0
  6
Continuous
 62
     7
370
     0
100
AcDbLine
 10
164.7157634257
 20
138.7491662458
 30
0.0
 11
164.7157634257
 21
143.1943332004
 31
0.0
  0
MTEXT
  5
1D3
330
1C9
100
AcDbEntity
  8
0
  6
Continuous
 62
     7
370
     0
100
AcDbMText
 10
161.6461708121
 20
131.8064346278
 30
0.0
 40
2.38125
 41
0.0
 71
     1
 72
     1
  1
12
  7
SLDTEXTSTYLE0
 11
6.123233995736766E-17
 21
1.0
 31
0.0
 73
     1
 44
1.0
  0
ENDBLK
  5
1CB
330
1C9
100
AcDbEntity
  8
0
100
AcDbBlockEnd
  0
ENDSEC
  0
SECTION
  2
ENTITIES
  0
LINE
  5
41
330
1F
100
AcDbEntity
  8
0
  6
Continuous
 62
     7
370
    40
100
AcDbLine
 10
10.0788435654
 20
5.2147801566
 30
0.0
 11
205.0788435654
 21
5.2147801566
 31
0.0
  0
LINE
  5
42
330
1F
100
AcDbEntity
  8
0
  6
Continuous
 62
     7
370
    40
100
AcDbLine
 10
0.0788435654
 20
0.2147801566
 30
0.0
 11
210.0788435654
 21
0.2147801566
 31
0.0
  0
LINE
  5
43
330
1F
100
AcDbEntity
  8
0
  6
Continuous
 62
     7
370
    40
100
AcDbLine
 10
0.0788435654
 20
0.2147801566
 30
0.0
 11
0.0788435654
 21
297.2147801566
 31
0.0
  0
LINE
  5
44
330
1F
100
AcDbEntity
  8
0
  6
Continuous
 62
     7
370
    40
100
AcDbLine
 10
0.0788435654
 20
297.2147801566
 30
0.0
 11
210.0788435654
 21
297.2147801566
 31
0.0
  0
LINE
  5
45
330
1F
100
AcDbEntity
  8
0
  6
Continuous
 62
     7
370
    40
100
AcDbLine
 10
210.0788435654
 20
0.2147801566
 30
0.0
 11
210.0788435654
 21
297.2147801566
 31
0.0
  0
LINE
  5
46
330
1F
100
AcDbEntity
  8
0
  6
Continuous
 62
     7
370
    40
100
AcDbLine
 10
10.0788435654
 20
292.2147801566
 30
0.0
 11
205.0788435654
 21
292.2147801566
 31
0.0
  0
LINE
  5
47
330
1F
100
AcDbEntity
  8
0
  6
Continuous
 62
     7
370
    40
100
AcDbLine
 10
205.0788435654
 20
5.2147801566
 30
0.0
 11
180.9883118484
 21
5.2147801566
 31
0.0
  0
LINE
  5
48
330
1F
100
AcDbEntity
  8
0
  6
Continuous
 62
     7
370
    40
100
AcDbLine
 10
10.0788435654
 20
5.2147801566
 30
0.0
 11
10.0788435654
 21
292.2147801566
 31
0.0
  0
LINE
  5
49
330
1F
100
AcDbEntity
  8
0
  6
Continuous
 62
     7
370
    40
100
AcDbLine
 10
10.1108209117
 20
9.3709272577
 30
0.0
 11
205.0788435654
 21
9.3709272577
 31
0.0
  0
LINE
  5
4A
330
1F
100
AcDbEntity
  8
0
  6
Continuous
 62
     7
370
    40
100
AcDbLine
 10
205.0788435654
 20
43.3709272577
 30
0.0
 11
10.1108209117
 21
43.3709272577
 31
0.0
  0
LINE
  5
4B
330
1F
100
AcDbEntity
  8
0
  6
Continuous
 62
     7
370
    40
100
AcDbLine
 10
10.1108209117
 20
60.3709272577
 30
0.0
 11
205.0788435654
 21
60.3709272577
 31
0.0
  0
LINE
  5
4C
330
1F
100
AcDbEntity
  8
0
  6
Continuous
 62
     7
370
    40
100
AcDbLine
 10
210.0788435654
 20
292.2147801566
 30
0.0
 11
210.0788435654
 21
297.2147801566
 31
0.0
  0
LINE
  5
4D
330
1F
100
AcDbEntity
  8
0
  6
Continuous
 62
     7
370
    40
100
AcDbLine
 10
37.1017733454
 20
43.3709272577
 30
0.0
 11
37.1017733454
 21
5.1209272577
 31
0.0
  0
LINE
  5
4E
330
1F
100
AcDbEntity
  8
0
  6
Continuous
 62
     7
370
    40
100
AcDbLine
 10
108.9108209117
 20
26.3709272577
 30
0.0
 11
10.1108209117
 21
26.3709272577
 31
0.0
  0
LINE
  5
4F
330
1F
100
AcDbEntity
  8
0
  6
Continuous
 62
     7
370
    40
100
AcDbLine
 10
108.9108209117
 20
30.6209272577
 30
0.0
 11
10.1108209117
 21
30.6209272577
 31
0.0
  0
LINE
  5
50
330
1F
100
AcDbEntity
  8
0
  6
Continuous
 62
     7
370
    40
100
AcDbLine
 10
108.9108209117
 20
34.8709272577
 30
0.0
 11
10.1108209117
 21
34.8709272577
 31
0.0
  0
LINE
  5
51
330
1F
100
AcDbEntity
  8
0
  6
Continuous
 62
     7
370
    40
100
AcDbLine
 10
108.9108209117
 20
39.1209272577
 30
0.0
 11
10.1108209117
 21
39.1209272577
 31
0.0
  0
LINE
  5
52
330
1F
100
AcDbEntity
  8
0
  6
Continuous
 62
     7
370
    40
100
AcDbLine
 10
64.7108209117
 20
5.1209272577
 30
0.0
 11
64.7108209117
 21
43.3709272577
 31
0.0
  0
LINE
  5
53
330
1F
100
AcDbEntity
  8
0
  6
Continuous
 62
     7
370
    40
100
AcDbLine
 10
10.1108209117
 20
60.3709272577
 30
0.0
 11
10.1108209117
 21
5.1209272577
 31
0.0
  0
LINE
  5
54
330
1F
100
AcDbEntity
  8
0
  6
Continuous
 62
     7
370
    40
100
AcDbLine
 10
17.9108209117
 20
43.3709272577
 30
0.0
 11
17.9108209117
 21
5.1209272577
 31
0.0
  0
LINE
  5
55
330
1F
100
AcDbEntity
  8
0
  6
Continuous
 62
     7
370
    40
100
AcDbLine
 10
43.9108209117
 20
43.3709272577
 30
0.0
 11
43.9108209117
 21
60.3709272577
 31
0.0
  0
LINE
  5
56
330
1F
100
AcDbEntity
  8
0
  6
Continuous
 62
     7
370
    40
100
AcDbLine
 10
54.5097470752
 20
43.3709272577
 30
0.0
 11
54.5097470752
 21
5.1209272577
 31
0.0
  0
LINE
  5
57
330
1F
100
AcDbEntity
  8
0
  6
Continuous
 62
     7
370
    40
100
AcDbLine
 10
75.1108209117
 20
26.3709272577
 30
0.0
 11
75.1108209117
 21
43.3709272577
 31
0.0
  0
LINE
  5
58
330
1F
100
AcDbEntity
  8
0
  6
Continuous
 62
     7
370
    40
100
AcDbLine
 10
64.7108209117
 20
13.6209272577
 30
0.0
 11
10.1108209117
 21
13.6209272577
 31
0.0
  0
LINE
  5
59
330
1F
100
AcDbEntity
  8
0
  6
Continuous
 62
     7
370
    40
100
AcDbLine
 10
90.7108209117
 20
60.3709272577
 30
0.0
 11
90.7108209117
 21
22.1209272577
 31
0.0
  0
LINE
  5
5A
330
1F
100
AcDbEntity
  8
0
  6
Continuous
 62
     7
370
    40
100
AcDbLine
 10
64.7108209117
 20
17.8708552577
 30
0.0
 11
10.1108209117
 21
17.8708552577
 31
0.0
  0
LINE
  5
5B
330
1F
100
AcDbEntity
  8
0
  6
Continuous
 62
     7
370
    40
100
AcDbLine
 10
64.7108209117
 20
22.1209272577
 30
0.0
 11
10.1108209117
 21
22.1209272577
 31
0.0
  0
LINE
  5
5C
330
1F
100
AcDbEntity
  8
0
  6
Continuous
 62
     7
370
    40
100
AcDbLine
 10
64.7108209117
 20
22.1209272577
 30
0.0
 11
205.0788435654
 21
22.1209272577
 31
0.0
  0
LINE
  5
5D
330
1F
100
AcDbEntity
  8
0
  6
Continuous
 62
     7
370
    40
100
AcDbLine
 10
108.9108209117
 20
60.3709272577
 30
0.0
 11
108.9108209117
 21
5.1209272577
 31
0.0
  0
LINE
  5
5E
330
1F
100
AcDbEntity
  8
0
  6
Continuous
 62
     7
370
    40
100
AcDbLine
 10
160.8788435654
 20
5.2147801566
 30
0.0
 11
160.8788435654
 21
9.4647801566
 31
0.0
  0
LINE
  5
5F
330
1F
100
AcDbEntity
  8
0
  6
Continuous
 62
     7
370
    40
100
AcDbLine
 10
168.6788435654
 20
54.0897801566
 30
0.0
 11
168.6788435654
 21
60.4647801566
 31
0.0
  0
LINE
  5
60
330
1F
100
AcDbEntity
  8
0
  6
Continuous
 62
     7
370
    40
100
AcDbLine
 10
192.0788435654
 20
9.4647801566
 30
0.0
 11
192.0788435654
 21
22.2147801566
 31
0.0
  0
LINE
  5
61
330
1F
100
AcDbEntity
  8
0
  6
Continuous
 62
     7
370
    40
100
AcDbLine
 10
205.0788435654
 20
53.9959272577
 30
0.0
 11
108.9108209117
 21
53.9959272577
 31
0.0
  0
LINE
  5
62
330
1F
100
AcDbEntity
  8
0
  6
Continuous
 62
     7
370
    40
100
AcDbLine
 10
205.0788435654
 20
13.7147801566
 30
0.0
 11
192.0788435654
 21
13.7147801566
 31
0.0
  0
LINE
  5
63
330
1F
100
AcDbEntity
  8
0
  6
Continuous
 62
     7
370
    40
100
AcDbLine
 10
205.0788435654
 20
5.2147801566
 30
0.0
 11
205.0788435654
 21
292.2147801566
 31
0.0
  0
MTEXT
  5
87
330
1F
100
AcDbEntity
  8
0
  6
Continuous
 62
     7
370
     0
100
AcDbMText
 10
154.716840998
 20
288.8548870988
 30
0.0
 40
3.0
 41
0.0
 71
     1
 72
     1
  1
ALL DIMENSIONS IN MM
  7
SLDTEXTSTYLE0
 73
     1
 44
1.0
  0
MTEXT
  5
88
330
1F
100
AcDbEntity
  8
0
  6
Continuous
 62
     7
370
     0
100
AcDbMText
 10
145.6686575342
 20
68.5452993784
 30
0.0
 40
2.5
 41
0.0
 71
     1
 72
     1
  1
NOTE : unspecified tolerence +/- 0.2
  7
SLDTEXTSTYLE0
 73
     1
 44
1.0
  0
MTEXT
  5
8A
330
1F
100
AcDbEntity
  8
0
  6
Continuous
 62
     7
370
     0
100
AcDbMText
 10
121.7407985079
 20
19.8465185664
 30
0.0
 40
6.35
 41
0.0
 71
     1
 72
     1
  1
Heat sink-3 (PCC) 
  7
SLDTEXTSTYLE1
 73
     1
 44
1.0
  0
MTEXT
  5
8B
330
1F
100
AcDbEntity
  8
0
  6
Continuous
 62
     7
370
     0
100
AcDbMText
 10
65.7286320398
 20
8.0702391613
 30
0.0
 40
1.4986
 41
0.0
 71
     1
 72
     1
  1
WEIGHT: 
  7
SLDTEXTSTYLE1
 73
     1
 44
1.0
  0
MTEXT
  5
8C
330
1F
100
AcDbEntity
  8
0
  6
Continuous
 62
     7
370
     0
100
AcDbMText
 10
195.9998284117
 20
19.5152246678
 30
0.0
 40
2.9104166667
 41
0.0
 71
     1
 72
     1
  1
A4
  7
SLDTEXTSTYLE1
 73
     1
 44
1.0
  0
MTEXT
  5
8E
330
1F
100
AcDbEntity
  8
0
  6
Continuous
 62
     7
370
     0
100
AcDbMText
 10
162.3571379932
 20
8.1148674312
 30
0.0
 40
1.5
 41
0.0
 71
     1
 72
     1
  1
SHEET 1 OF 1
  7
SLDTEXTSTYLE2
 73
     1
 44
1.0
  0
MTEXT
  5
8F
330
1F
100
AcDbEntity
  8
0
  6
Continuous
 62
     7
370
     0
100
AcDbMText
 10
110.1847870291
 20
8.0210145322
 30
0.0
 40
1.5
 41
0.0
 71
     1
 72
     1
  1
SCALE:2:1
  7
SLDTEXTSTYLE1
 73
     1
 44
1.0
  0
MTEXT
  5
90
330
1F
100
AcDbEntity
  8
0
  6
Continuous
 62
     7
370
     0
100
AcDbMText
 10
110.1847870291
 20
19.9895650847
 30
0.0
 40
1.5
 41
0.0
 71
     1
 72
     1
  1
DWG NO.
  7
SLDTEXTSTYLE1
 73
     1
 44
1.0
  0
MTEXT
  5
91
330
1F
100
AcDbEntity
  8
0
  6
Continuous
 62
     7
370
     0
100
AcDbMText
 10
110.0670078483
 20
41.3992615437
 30
0.0
 40
1.5
 41
0.0
 71
     1
 72
     1
  1
TITLE:
  7
SLDTEXTSTYLE1
 73
     1
 44
1.0
  0
MTEXT
  5
92
330
1F
100
AcDbEntity
  8
0
  6
Continuous
 62
     7
370
     0
100
AcDbMText
 10
171.2064252647
 20
57.5496888371
 30
0.0
 40
1.5
 41
0.0
 71
     1
 72
     1
  1
REVISION
  7
SLDTEXTSTYLE1
 73
     1
 44
1.0
  0
MTEXT
  5
93
330
1F
100
AcDbEntity
  8
0
  6
Continuous
 62
     7
370
     0
100
AcDbMText
 10
130.4934840882
 20
57.7477737317
 30
0.0
 40
1.5
 41
0.0
 71
     1
 72
     1
  1
DO NOT SCALE DRAWING
  7
SLDTEXTSTYLE1
 73
     1
 44
1.0
  0
MTEXT
  5
94
330
1F
100
AcDbEntity
  8
0
  6
Continuous
 62
     7
370
     0
100
AcDbMText
 10
65.7566832204
 20
21.1069835469
 30
0.0
 40
1.5
 41
0.0
 71
     1
 72
     1
  1
MATERIAL:
  7
SLDTEXTSTYLE1
 73
     1
 44
1.0
  0
MTEXT
  5
95
330
1F
100
AcDbEntity
  8
0
  6
Continuous
 62
     7
370
     0
100
AcDbMText
 10
57.3255228774
 20
41.6971064789
 30
0.0
 40
1.5
 41
0.0
 71
     1
 72
     1
  1
DATE
  7
SLDTEXTSTYLE1
 73
     1
 44
1.0
  0
MTEXT
  5
96
330
1F
100
AcDbEntity
  8
0
  6
Continuous
 62
     7
370
     0
100
AcDbMText
 10
40.1444084748
 20
41.6826836372
 30
0.0
 40
1.5
 41
0.0
 71
     1
 72
     1
  1
SIGNATURE
  7
SLDTEXTSTYLE1
 73
     1
 44
1.0
  0
MTEXT
  5
97
330
1F
100
AcDbEntity
  8
0
  6
Continuous
 62
     7
370
     0
100
AcDbMText
 10
24.4330601293
 20
41.6224098911
 30
0.0
 40
1.5
 41
0.0
 71
     1
 72
     1
  1
NAME
  7
SLDTEXTSTYLE1
 73
     1
 44
1.0
  0
INSERT
  5
9E
330
1F
100
AcDbEntity
  8
0
  6
Continuous
 62
     7
370
     0
100
AcDbBlockReference
  2
SW_NOTE_0
 10
91.4200365979
 20
57.1904169007
 30
0.0
  0
MTEXT
  5
9F
330
1F
100
AcDbEntity
  8
0
  6
Continuous
 62
     7
370
     0
100
AcDbMText
 10
44.4821130785
 20
59.0401992528
 30
0.0
 40
1.5
 41
0.0
 71
     1
 72
     1
  1
FINISH:
  7
SLDTEXTSTYLE1
 73
     1
 44
1.0
  0
INSERT
  5
A9
330
1F
100
AcDbEntity
  8
0
  6
Continuous
 62
     7
370
     0
100
AcDbBlockReference
  2
SW_NOTE_1
 10
10.7044896573
 20
57.108297132
 30
0.0
  0
MTEXT
  5
AA
330
1F
100
AcDbEntity
  8
0
  6
Continuous
 62
     7
370
     0
100
AcDbMText
 10
10.7798637738
 20
20.470576465
 30
0.0
 40
1.5
 41
0.0
 71
     1
 72
     1
  1
Q.A
  7
SLDTEXTSTYLE1
 73
     1
 44
1.0
  0
MTEXT
  5
AB
330
1F
100
AcDbEntity
  8
0
  6
Continuous
 62
     7
370
     0
100
AcDbMText
 10
10.5660074108
 20
24.8546319083
 30
0.0
 40
1.5
 41
0.0
 71
     1
 72
     1
  1
MFG
  7
SLDTEXTSTYLE1
 73
     1
 44
1.0
  0
MTEXT
  5
AC
330
1F
100
AcDbEntity
  8
0
  6
Continuous
 62
     7
370
     0
100
AcDbMText
 10
10.51254332
 20
29.1852232608
 30
0.0
 40
1.5
 41
0.0
 71
     1
 72
     1
  1
APPV'D
  7
SLDTEXTSTYLE1
 73
     1
 44
1.0
  0
MTEXT
  5
AD
330
1F
100
AcDbEntity
  8
0
  6
Continuous
 62
     7
370
     0
100
AcDbMText
 10
10.5212897793
 20
33.2753344177
 30
0.0
 40
1.5
 41
0.0
 71
     1
 72
     1
  1
CHK'D
  7
SLDTEXTSTYLE1
 73
     1
 44
1.0
  0
MTEXT
  5
AE
330
1F
100
AcDbEntity
  8
0
  6
Continuous
 62
     7
370
     0
100
AcDbMText
 10
10.3229701557
 20
37.5506421436
 30
0.0
 40
1.5
 41
0.0
 71
     1
 72
     1
  1
DRAWN
  7
SLDTEXTSTYLE1
 73
     1
 44
1.0
  0
LINE
  5
AF
330
1F
100
AcDbEntity
  8
0
  6
Continuous
 62
     7
370
    15
100
AcDbLine
 10
68.8231332302
 20
208.3386840374
 30
0.0
 11
80.3231332526
 21
208.3386840374
 31
0.0
  0
LINE
  5
B0
330
1F
100
AcDbEntity
  8
0
  6
Continuous
 62
     7
370
    15
100
AcDbLine
 10
80.3231332526
 20
168.3386849315
 30
0.0
 11
80.3231332526
 21
208.3386840374
 31
0.0
  0
LINE
  5
B1
330
1F
100
AcDbEntity
  8
0
  6
Continuous
 62
     7
370
    15
100
AcDbLine
 10
68.8231332302
 20
168.3386849315
 30
0.0
 11
80.3231332526
 21
168.3386849315
 31
0.0
  0
CIRCLE
  5
B2
330
1F
100
AcDbEntity
  8
0
  6
Continuous
 62
     7
370
    15
100
AcDbCircle
 10
75.1731332302
 20
178.3386849315
 30
0.0
 40
1.249999999999986
  0
CIRCLE
  5
B3
330
1F
100
AcDbEntity
  8
0
  6
Continuous
 62
     7
370
    15
100
AcDbCircle
 10
75.1731332302
 20
198.3386849315
 30
0.0
 40
1.249999999999986
  0
LINE
  5
B4
330
1F
100
AcDbEntity
  8
0
  6
Continuous
 62
     7
370
    15
100
AcDbLine
 10
68.8231332302
 20
208.3386840374
 30
0.0
 11
68.8231332302
 21
168.3386849315
 31
0.0
  0
LINE
  5
B5
330
1F
100
AcDbEntity
  8
0
  6
Continuous
 62
     7
370
    15
100
AcDbLine
 10
80.8231333345
 20
208.3386840374
 30
0.0
 11
80.8231333345
 21
168.3386849315
 31
0.0
  0
LINE
  5
B6
330
1F
100
AcDbEntity
  8
0
  6
Continuous
 62
     7
370
    15
100
AcDbLine
 10
80.3231332526
 20
208.3386840374
 30
0.0
 11
80.8231333345
 21
208.3386840374
 31
0.0
  0
LINE
  5
B7
330
1F
100
AcDbEntity
  8
0
  6
Continuous
 62
     7
370
    15
100
AcDbLine
 10
80.8231333345
 20
168.3386849315
 30
0.0
 11
80.3231332526
 21
168.3386849315
 31
0.0
  0
ELLIPSE
  5
B8
330
1F
100
AcDbEntity
  8
0
  6
Continuous
 62
     7
370
    15
100
AcDbEllipse
 10
75.1516047779
 20
178.3386849315
 30
0.0
 11
0.2468259366925736
 21
0.0
 31
0.0
210
0.0
220
0.0
230
1.0
 40
0.9961889699
 41
0.0
 42
6.283185307179586
  0
ELLIPSE
  5
B9
330
1F
100
AcDbEntity
  8
0
  6
Continuous
 62
     7
370
    15
100
AcDbEllipse
 10
75.1516047779
 20
198.3386849315
 30
0.0
 11
0.2468259366925878
 21
0.0
 31
0.0
210
0.0
220
0.0
230
1.0
 40
0.9961889699
 41
0.0
 42
6.283185307179586
  0
LINE
  5
BA
330
1F
100
AcDbEntity
  8
0
  6
Continuous
 62
   110
370
    15
100
AcDbLine
 10
74.2969653644
 20
199.2302170099
 30
0.0
 11
74.2969653644
 21
197.4471533747
 31
0.0
  0
LINE
  5
BB
330
1F
100
AcDbEntity
  8
0
  6
Continuous
 62
   110
370
    15
100
AcDbLine
 10
74.2969653644
 20
179.2302174569
 30
0.0
 11
74.2969653644
 21
177.4471528904
 31
0.0
  0
DIMENSION
  5
BC
330
1F
100
AcDbEntity
  8
0
  6
Continuous
 62
     7
370
     0
100
AcDbDimension
  2
*D3
 10
80.8231332302
 20
224.3386849315
 30
0.0
 11
73.6610829641
 21
224.3386849315
 31
0.0
 70
   160
  1
(<>)
 71
     2
 42
-1.0
  3
SLDDIMSTYLE0
100
AcDbAlignedDimension
 13
68.8231332302
 23
208.3386849315
 33
0.0
 14
80.8231332302
 24
208.3386849315
 34
0.0
100
AcDbRotatedDimension
  0
DIMENSION
  5
CB
330
1F
100
AcDbEntity
  8
0
  6
Continuous
 62
     7
370
     0
100
AcDbDimension
  2
*D4
 10
68.8231332302
 20
218.3386849315
 30
0.0
 11
62.7651065366
 21
218.3386849315
 31
0.0
 70
   160
 71
     2
 42
-1.0
  3
SLDDIMSTYLE1
100
AcDbAlignedDimension
 13
75.1731332302
 23
202.0886849315
 33
0.0
 14
68.8231332302
 24
208.3386849315
 34
0.0
100
AcDbRotatedDimension
  0
DIMENSION
  5
D7
330
1F
100
AcDbEntity
  8
0
  6
Continuous
 62
     7
370
     0
100
AcDbDimension
  2
*D5
 10
58.8231332302
 20
198.3386849315
 30
0.0
 11
58.8231332302
 21
203.276260062
 31
0.0
 70
   160
 71
     2
 42
-1.0
  3
SLDDIMSTYLE1
100
AcDbAlignedDimension
 13
68.8231332302
 23
208.3386849315
 33
0.0
 14
71.4231332302
 24
198.3386849315
 34
0.0
 50
90.0
100
AcDbRotatedDimension
  0
DIMENSION
  5
E1
330
1F
100
AcDbEntity
  8
0
  6
Continuous
 62
     7
370
     0
100
AcDbDimension
  2
*D6
 10
49.4688424122
 20
178.3386849315
 30
0.0
 11
49.4688424122
 21
193.9315151978
 31
0.0
 70
   160
 71
     2
 42
-1.0
  3
SLDDIMSTYLE1
100
AcDbAlignedDimension
 13
68.8231332302
 23
208.3386849315
 33
0.0
 14
71.4231332302
 24
178.3386849315
 34
0.0
 50
90.0
100
AcDbRotatedDimension
  0
DIMENSION
  5
EB
330
1F
100
AcDbEntity
  8
0
  6
Continuous
 62
     7
370
     0
100
AcDbDimension
  2
*D7
 10
73.8740951245
 20
197.5886849315
 30
0.0
 11
94.0090760259
 21
209.2136258015
 31
0.0
 70
   163
  1
M<>x0.5, 5deep
 71
     1
 42
-1.0
  3
SLDDIMSTYLE2
100
AcDbDiametricDimension
 15
76.4721713359
 25
199.0886849315
 35
0.0
 40
0.0
  0
INSERT
  5
101
330
1F
100
AcDbEntity
  8
0
  6
Continuous
 62
     7
370
     0
100
AcDbBlockReference
  2
SW_CENTERMARKSYMBOL_0
 10
75.1731332302
 20
178.3386849315
 30
0.0
  0
INSERT
  5
10D
330
1F
100
AcDbEntity
  8
0
  6
Continuous
 62
     7
370
     0
100
AcDbBlockReference
  2
SW_CENTERMARKSYMBOL_1
 10
75.1731332302
 20
198.3386849315
 30
0.0
  0
ARC
  5
10E
330
1F
100
AcDbEntity
  8
0
  6
Continuous
 62
     7
370
     0
100
AcDbCircle
 10
75.1731332302
 20
178.3386849315
 30
0.0
 40
1.500000000000011
100
AcDbArc
 50
255.0
 51
195.0
  0
ARC
  5
10F
330
1F
100
AcDbEntity
  8
0
  6
Continuous
 62
     7
370
     0
100
AcDbCircle
 10
75.1731332302
 20
198.3386849315
 30
0.0
 40
1.500000000000011
100
AcDbArc
 50
255.0
 51
195.0
  0
LINE
  5
110
330
1F
100
AcDbEntity
  8
0
  6
Continuous
 62
     7
370
    15
100
AcDbLine
 10
116.4096989458
 20
208.3386840374
 30
0.0
 11
116.4096989458
 21
168.3386849315
 31
0.0
  0
LINE
  5
111
330
1F
100
AcDbEntity
  8
0
  6
Continuous
 62
     7
370
    15
100
AcDbLine
 10
116.4096989458
 20
208.3386840374
 30
0.0
 11
154.4096977239
 21
208.3386840374
 31
0.0
  0
LINE
  5
112
330
1F
100
AcDbEntity
  8
0
  6
Continuous
 62
     7
370
    15
100
AcDbLine
 10
154.4096977239
 20
208.3386840374
 30
0.0
 11
154.4096977239
 21
168.3386849315
 31
0.0
  0
LINE
  5
113
330
1F
100
AcDbEntity
  8
0
  6
Continuous
 62
     7
370
    15
100
AcDbLine
 10
116.4096989458
 20
168.3386849315
 30
0.0
 11
154.4096977239
 21
168.3386849315
 31
0.0
  0
CIRCLE
  5
114
330
1F
100
AcDbEntity
  8
0
  6
Continuous
 62
     7
370
    15
100
AcDbCircle
 10
136.6596989458
 20
201.3386849315
 30
0.0
 40
1.25
  0
SPLINE
  5
115
330
1F
100
AcDbEntity
  8
0
  6
Continuous
 62
     7
370
    15
100
AcDbSpline
210
0.0
220
0.0
230
1.0
 70
     8
 71
     3
 72
    14
 73
    10
 74
     0
 42
0.00000001
 43
0.00000001
 40
0.0
 40
0.0
 40
0.0
 40
0.0
 40
0.25
 40
0.25
 40
0.5
 40
0.5
 40
0.75
 40
0.75
 40
1.0
 40
1.0
 40
1.0
 40
1.0
 10
137.7683622074349
 20
200.7613065700813
 30
0.0
 10
137.8144317452888
 20
200.849767807136
 30
0.0
 10
137.8417707807528
 20
200.9463318947297
 30
0.0
 10
137.8780487205003
 20
201.1410412329872
 30
0.0
 10
137.8861952579016
 20
201.2391439846442
 30
0.0
 10
137.886288501188
 20
201.4365997664182
 30
0.0
 10
137.8780094777656
 20
201.5365308248421
 30
0.0
 10
137.8418180932902
 20
201.7307924597049
 30
0.0
 10
137.8144614258506
 20
201.8275450642226
 30
0.0
 10
137.7683622074349
 20
201.9160632929324
 30
0.0
  0
SPLINE
  5
116
330
1F
100
AcDbEntity
  8
0
  6
Continuous
 62
     7
370
    15
100
AcDbSpline
210
0.0
220
0.0
230
1.0
 70
     8
 71
     3
 72
    10
 73
     6
 74
     0
 42
0.00000001
 43
0.00000001
 40
0.0
 40
0.0
 40
0.0
 40
0.0
 40
0.5
 40
0.5
 40
1.0
 40
1.0
 40
1.0
 40
1.0
 10
136.251720916735
 20
201.1231527532475
 30
0.0
 10
136.2507116615895
 20
201.1936763129106
 30
0.0
 10
136.2500934494915
 20
201.2651161714546
 30
0.0
 10
136.2500859638009
 20
201.4108755586576
 30
0.0
 10
136.2507097015438
 20
201.4835565883012
 30
0.0
 10
136.251720916735
 20
201.5542171097661
 30
0.0
  0
SPLINE
  5
117
330
1F
100
AcDbEntity
  8
0
  6
Continuous
 62
     7
370
    15
100
AcDbSpline
210
0.0
220
0.0
230
1.0
 70
     8
 71
     3
 72
    16
 73
    12
 74
     0
 42
0.00000001
 43
0.00000001
 40
0.0
 40
0.0
 40
0.0
 40
0.0
 40
0.1249999999999977
 40
0.1249999999999977
 40
0.2499999999999954
 40
0.2499999999999954
 40
0.499999999999997
 40
0.499999999999997
 40
0.7499999999999986
 40
0.7499999999999986
 40
1.0
 40
1.0
 40
1.0
 40
1.0
 10
136.7510356841123
 20
202.5853435055477
 30
0.0
 10
136.6947710314861
 20
202.5894657487678
 30
0.0
 10
136.6382698185729
 20
202.5720183535004
 30
0.0
 10
136.5459652893629
 20
202.5152639183186
 30
0.0
 10
136.5081323481225
 20
202.4773112242958
 30
0.0
 10
136.4116521309888
 20
202.3539090869144
 30
0.0
 10
136.3695786184616
 20
202.2604721161353
 30
0.0
 10
136.305395547981
 20
202.0666455522115
 30
0.0
 10
136.2849571582978
 20
201.9676765643765
 30
0.0
 10
136.2586421061961
 20
201.765701920051
 30
0.0
 10
136.2532742416565
 20
201.6627585457767
 30
0.0
 10
136.2517209167349
 20
201.5542171097661
 30
0.0
  0
SPLINE
  5
118
330
1F
100
AcDbEntity
  8
0
  6
Continuous
 62
     7
370
    15
100
AcDbSpline
210
0.0
220
0.0
230
1.0
 70
     8
 71
     3
 72
    16
 73
    12
 74
     0
 42
0.00000001
 43
0.00000001
 40
0.0
 40
0.0
 40
0.0
 40
0.0
 40
0.2499999999999989
 40
0.2499999999999989
 40
0.4999999999999978
 40
0.4999999999999978
 40
0.7499999999999967
 40
0.7499999999999967
 40
0.8749999999999983
 40
0.8749999999999983
 40
1.0
 40
1.0
 40
1.0
 40
1.0
 10
136.251720916735
 20
201.1231527532475
 30
0.0
 10
136.2532584719642
 20
201.0157132534997
 30
0.0
 10
136.2586556221357
 20
200.911329937887
 30
0.0
 10
136.285097117159
 20
200.7088547110925
 30
0.0
 10
136.3055739823331
 20
200.6101812446757
 30
0.0
 10
136.3694106907147
 20
200.4174090847837
 30
0.0
 10
136.4126711822375
 20
200.3220089595895
 30
0.0
 10
136.5081171293771
 20
200.2001528864032
 30
0.0
 10
136.5457425266042
 20
200.162260702159
 30
0.0
 10
136.6383325100966
 20
200.1052952043044
 30
0.0
 10
136.694760939727
 20
200.0879033748707
 30
0.0
 10
136.7510356841123
 20
200.092026357466
 30
0.0
  0
DIMENSION
  5
119
330
1F
100
AcDbEntity
  8
0
  6
Continuous
 62
     7
370
     0
100
AcDbDimension
  2
*D10
 10
154.4096989458
 20
224.3386849315
 30
0.0
 11
137.4992150401
 21
224.3386849315
 31
0.0
 70
   160
  1
(<>)
 71
     2
 42
-1.0
  3
SLDDIMSTYLE1
100
AcDbAlignedDimension
 13
116.4096989458
 23
208.3386849315
 33
0.0
 14
154.4096989458
 24
208.3386849315
 34
0.0
100
AcDbRotatedDimension
  0
DIMENSION
  5
125
330
1F
100
AcDbEntity
  8
0
  6
Continuous
 62
     7
370
     0
100
AcDbDimension
  2
*D11
 10
164.4096989458
 20
201.3386849315
 30
0.0
 11
164.4096989458
 21
204.620909923
 31
0.0
 70
   160
 71
     2
 42
-1.0
  3
SLDDIMSTYLE0
100
AcDbAlignedDimension
 13
154.4096989458
 23
208.3386849315
 33
0.0
 14
140.4096989458
 24
201.3386849315
 34
0.0
 50
90.0
100
AcDbRotatedDimension
  0
DIMENSION
  5
131
330
1F
100
AcDbEntity
  8
0
  6
Continuous
 62
     7
370
     0
100
AcDbDimension
  2
*D12
 10
154.4096989458
 20
216.1657446055
 30
0.0
 11
144.0621667896
 21
216.1657446055
 31
0.0
 70
   160
 71
     2
 42
-1.0
  3
SLDDIMSTYLE1
100
AcDbAlignedDimension
 13
136.6596989458
 23
205.0886849315
 33
0.0
 14
154.4096989458
 24
208.3386849315
 34
0.0
100
AcDbRotatedDimension
  0
DIMENSION
  5
13B
330
1F
100
AcDbEntity
  8
0
  6
Continuous
 62
     7
370
     0
100
AcDbDimension
  2
*D13
 10
174.1410995087
 20
168.3386849315
 30
0.0
 11
174.1410995087
 21
192.8171263766
 31
0.0
 70
   160
 71
     2
 42
-1.0
  3
SLDDIMSTYLE1
100
AcDbAlignedDimension
 13
154.4096989458
 23
208.3386849315
 33
0.0
 14
154.4096989458
 24
168.3386849315
 34
0.0
 50
90.0
100
AcDbRotatedDimension
  0
DIMENSION
  5
145
330
1F
100
AcDbEntity
  8
0
  6
Continuous
 62
     7
370
     0
100
AcDbDimension
  2
*D14
 10
137.9587370515
 20
202.0886849315
 30
0.0
 11
104.0490944977
 21
182.5109479015
 31
0.0
 70
   163
  1
M<>x0.5, 5deep
 71
     1
 42
-1.0
  3
SLDDIMSTYLE2
100
AcDbDiametricDimension
 15
135.3606608401
 25
200.5886849315
 35
0.0
 40
0.0
  0
INSERT
  5
15A
330
1F
100
AcDbEntity
  8
0
  6
Continuous
 62
     7
370
     0
100
AcDbBlockReference
  2
SW_CENTERMARKSYMBOL_2
 10
136.6596989458
 20
201.3386849315
 30
0.0
  0
ARC
  5
15B
330
1F
100
AcDbEntity
  8
0
  6
Continuous
 62
     7
370
     0
100
AcDbCircle
 10
136.6596989458
 20
201.3386849315
 30
0.0
 40
1.500000000000004
100
AcDbArc
 50
255.0
 51
195.0
  0
LINE
  5
15C
330
1F
100
AcDbEntity
  8
0
  6
Continuous
 62
     7
370
    15
100
AcDbLine
 10
137.8862415229
 20
131.7632607699
 30
0.0
 11
137.8832687413
 21
131.7650475123
 31
0.0
  0
LINE
  5
15D
330
1F
100
AcDbEntity
  8
0
  6
Continuous
 62
     7
370
    15
100
AcDbLine
 10
116.4096989458
 20
126.7491662458
 30
0.0
 11
154.4096977239
 21
126.7491662458
 31
0.0
  0
ARC
  5
15E
330
1F
100
AcDbEntity
  8
0
  6
Continuous
 62
     7
370
    15
100
AcDbCircle
 10
116.9096989458
 20
138.2491662458
 30
0.0
 40
0.5
100
AcDbArc
 50
90.0
 51
180.0
  0
ARC
  5
15F
330
1F
100
AcDbEntity
  8
0
  6
Continuous
 62
     7
370
    15
100
AcDbCircle
 10
116.9594969236
 20
138.2491662458
 30
0.0
 40
0.5000000000000077
100
AcDbArc
 50
6.0
 51
90.0
  0
ARC
  5
160
330
1F
100
AcDbEntity
  8
0
  6
Continuous
 62
     7
370
    15
100
AcDbCircle
 10
118.5956306148
 20
132.2491662458
 30
0.0
 40
0.5000000000000018
100
AcDbArc
 50
186.0
 51
270.0
  0
LINE
  5
161
330
1F
100
AcDbEntity
  8
0
  6
Continuous
 62
     7
370
    15
100
AcDbLine
 10
119.2683621564
 20
131.7491661341
 30
0.0
 11
118.5956306079
 21
131.7491661341
 31
0.0
  0
ARC
  5
162
330
1F
100
AcDbEntity
  8
0
  6
Continuous
 62
     7
370
    15
100
AcDbCircle
 10
119.2683622074
 20
132.2491662458
 30
0.0
 40
0.5
100
AcDbArc
 50
270.0
 51
357.0
  0
LINE
  5
163
330
1F
100
AcDbEntity
  8
0
  6
Continuous
 62
     7
370
    15
100
AcDbLine
 10
120.0848663946
 20
138.2753345699
 30
0.0
 11
119.7676770178
 21
132.22299838
 31
0.0
  0
ARC
  5
164
330
1F
100
AcDbEntity
  8
0
  6
Continuous
 62
     7
370
    15
100
AcDbCircle
 10
120.5841812291
 20
138.2491662458
 30
0.0
 40
0.5
100
AcDbArc
 50
90.0
 51
177.0
  0
LINE
  5
165
330
1F
100
AcDbEntity
  8
0
  6
Continuous
 62
     7
370
    15
100
AcDbLine
 10
120.6352165689
 20
138.7491663501
 30
0.0
 11
120.5841810231
 21
138.7491663501
 31
0.0
  0
ARC
  5
166
330
1F
100
AcDbEntity
  8
0
  6
Continuous
 62
     7
370
    15
100
AcDbCircle
 10
120.6352166624
 20
138.2491662458
 30
0.0
 40
0.5
100
AcDbArc
 50
3.0
 51
90.0
  0
LINE
  5
167
330
1F
100
AcDbEntity
  8
0
  6
Continuous
 62
     7
370
    15
100
AcDbLine
 10
121.4517210399
 20
132.22299838
 30
0.0
 11
121.1345311974
 21
138.2753345699
 31
0.0
  0
ARC
  5
168
330
1F
100
AcDbEntity
  8
0
  6
Continuous
 62
     7
370
    15
100
AcDbCircle
 10
121.9510356841
 20
132.2491662458
 30
0.0
 40
0.5
100
AcDbArc
 50
183.0
 51
270.0
  0
LINE
  5
169
330
1F
100
AcDbEntity
  8
0
  6
Continuous
 62
     7
370
    15
100
AcDbLine
 10
122.9683621575
 20
131.7491661341
 30
0.0
 11
121.9510356684
 21
131.7491661341
 31
0.0
  0
ARC
  5
16A
330
1F
100
AcDbEntity
  8
0
  6
Continuous
 62
     7
370
    15
100
AcDbCircle
 10
122.9683622074
 20
132.2491662458
 30
0.0
 40
0.5000000000000121
100
AcDbArc
 50
270.0
 51
357.0
  0
ARC
  5
16B
330
1F
100
AcDbEntity
  8
0
  6
Continuous
 62
     7
370
    15
100
AcDbCircle
 10
124.2841812291
 20
138.2491662458
 30
0.0
 40
0.5
100
AcDbArc
 50
90.0
 51
177.0
  0
ARC
  5
16C
330
1F
100
AcDbEntity
  8
0
  6
Continuous
 62
     7
370
    15
100
AcDbCircle
 10
124.3352166624
 20
138.2491662458
 30
0.0
 40
0.5
100
AcDbArc
 50
3.0
 51
90.0
  0
ARC
  5
16D
330
1F
100
AcDbEntity
  8
0
  6
Continuous
 62
     7
370
    15
100
AcDbCircle
 10
125.6510356841
 20
132.2491662458
 30
0.0
 40
0.5000000000000121
100
AcDbArc
 50
183.0
 51
270.0
  0
LINE
  5
16E
330
1F
100
AcDbEntity
  8
0
  6
Continuous
 62
     7
370
    15
100
AcDbLine
 10
126.6683623915
 20
131.7491661341
 30
0.0
 11
125.6510359024
 21
131.7491661341
 31
0.0
  0
ARC
  5
16F
330
1F
100
AcDbEntity
  8
0
  6
Continuous
 62
     7
370
    15
100
AcDbCircle
 10
126.6683622074
 20
132.2491662458
 30
0.0
 40
0.5000000000000121
100
AcDbArc
 50
270.0
 51
357.0
  0
ARC
  5
170
330
1F
100
AcDbEntity
  8
0
  6
Continuous
 62
     7
370
    15
100
AcDbCircle
 10
127.9841812291
 20
138.2491662458
 30
0.0
 40
0.5000000000000137
100
AcDbArc
 50
90.0
 51
177.0
  0
ARC
  5
171
330
1F
100
AcDbEntity
  8
0
  6
Continuous
 62
     7
370
    15
100
AcDbCircle
 10
128.0352166624
 20
138.2491662458
 30
0.0
 40
0.5
100
AcDbArc
 50
3.0
 51
90.0
  0
ARC
  5
172
330
1F
100
AcDbEntity
  8
0
  6
Continuous
 62
     7
370
    15
100
AcDbCircle
 10
129.3510356841
 20
132.2491662458
 30
0.0
 40
0.5
100
AcDbArc
 50
183.0
 51
270.0
  0
LINE
  5
173
330
1F
100
AcDbEntity
  8
0
  6
Continuous
 62
     7
370
    15
100
AcDbLine
 10
130.3683626254
 20
131.7491661341
 30
0.0
 11
129.3510361363
 21
131.7491661341
 31
0.0
  0
ARC
  5
174
330
1F
100
AcDbEntity
  8
0
  6
Continuous
 62
     7
370
    15
100
AcDbCircle
 10
130.3683622074
 20
132.2491662458
 30
0.0
 40
0.5
100
AcDbArc
 50
270.0
 51
357.0
  0
ARC
  5
175
330
1F
100
AcDbEntity
  8
0
  6
Continuous
 62
     7
370
    15
100
AcDbCircle
 10
131.6841812291
 20
138.2491662458
 30
0.0
 40
0.5
100
AcDbArc
 50
90.0
 51
177.0
  0
ARC
  5
176
330
1F
100
AcDbEntity
  8
0
  6
Continuous
 62
     7
370
    15
100
AcDbCircle
 10
131.7352166624
 20
138.2491662458
 30
0.0
 40
0.5
100
AcDbArc
 50
3.0
 51
90.0
  0
ARC
  5
177
330
1F
100
AcDbEntity
  8
0
  6
Continuous
 62
     7
370
    15
100
AcDbCircle
 10
133.0510356841
 20
132.2491662458
 30
0.0
 40
0.5
100
AcDbArc
 50
183.0
 51
270.0
  0
LINE
  5
178
330
1F
100
AcDbEntity
  8
0
  6
Continuous
 62
     7
370
    15
100
AcDbLine
 10
134.0683628594
 20
131.7491661341
 30
0.0
 11
133.0510363703
 21
131.7491661341
 31
0.0
  0
ARC
  5
179
330
1F
100
AcDbEntity
  8
0
  6
Continuous
 62
     7
370
    15
100
AcDbCircle
 10
134.0683622074
 20
132.2491662458
 30
0.0
 40
0.5000000000000263
100
AcDbArc
 50
270.0
 51
357.0
  0
ARC
  5
17A
330
1F
100
AcDbEntity
  8
0
  6
Continuous
 62
     7
370
    15
100
AcDbCircle
 10
135.3841812291
 20
138.2491662458
 30
0.0
 40
0.5
100
AcDbArc
 50
90.0
 51
177.0
  0
LINE
  5
17B
330
1F
100
AcDbEntity
  8
0
  6
Continuous
 62
     7
370
    15
100
AcDbLine
 10
136.2517201131
 20
132.22299838
 30
0.0
 11
135.9096993481
 21
138.7491663501
 31
0.0
  0
ARC
  5
17C
330
1F
100
AcDbEntity
  8
0
  6
Continuous
 62
     7
370
    15
100
AcDbCircle
 10
136.7510356841
 20
132.2491662458
 30
0.0
 40
0.5
100
AcDbArc
 50
183.0
 51
270.0
  0
LINE
  5
17D
330
1F
100
AcDbEntity
  8
0
  6
Continuous
 62
     7
370
    15
100
AcDbLine
 10
137.768362162
 20
131.7491661341
 30
0.0
 11
136.7510356729
 21
131.7491661341
 31
0.0
  0
ARC
  5
17E
330
1F
100
AcDbEntity
  8
0
  6
Continuous
 62
     7
370
    15
100
AcDbCircle
 10
137.7683622074
 20
132.2491662458
 30
0.0
 40
0.5000000000000263
100
AcDbArc
 50
270.0
 51
357.0
  0
LINE
  5
17F
330
1F
100
AcDbEntity
  8
0
  6
Continuous
 62
     7
370
    15
100
AcDbLine
 10
138.5848657017
 20
138.2753345699
 30
0.0
 11
138.2676777219
 21
132.22299838
 31
0.0
  0
ARC
  5
180
330
1F
100
AcDbEntity
  8
0
  6
Continuous
 62
     7
370
    15
100
AcDbCircle
 10
139.0841812291
 20
138.2491662458
 30
0.0
 40
0.5000000000000278
100
AcDbArc
 50
90.0
 51
177.0
  0
ARC
  5
181
330
1F
100
AcDbEntity
  8
0
  6
Continuous
 62
     7
370
    15
100
AcDbCircle
 10
139.1352166624
 20
138.2491662458
 30
0.0
 40
0.5
100
AcDbArc
 50
3.0
 51
90.0
  0
LINE
  5
182
330
1F
100
AcDbEntity
  8
0
  6
Continuous
 62
     7
370
    15
100
AcDbLine
 10
139.9517212783
 20
132.22299838
 30
0.0
 11
139.6345314359
 21
138.2753345699
 31
0.0
  0
ARC
  5
183
330
1F
100
AcDbEntity
  8
0
  6
Continuous
 62
     7
370
    15
100
AcDbCircle
 10
140.4510356841
 20
132.2491662458
 30
0.0
 40
0.5000000000000263
100
AcDbArc
 50
183.0
 51
270.0
  0
LINE
  5
184
330
1F
100
AcDbEntity
  8
0
  6
Continuous
 62
     7
370
    15
100
AcDbLine
 10
141.4683614646
 20
131.7491661341
 30
0.0
 11
140.4510349755
 21
131.7491661341
 31
0.0
  0
ARC
  5
185
330
1F
100
AcDbEntity
  8
0
  6
Continuous
 62
     7
370
    15
100
AcDbCircle
 10
141.4683622074
 20
132.2491662458
 30
0.0
 40
0.5
100
AcDbArc
 50
270.0
 51
357.0
  0
LINE
  5
186
330
1F
100
AcDbEntity
  8
0
  6
Continuous
 62
     7
370
    15
100
AcDbLine
 10
142.284866867
 20
138.2753345699
 30
0.0
 11
141.9676770245
 21
132.22299838
 31
0.0
  0
ARC
  5
187
330
1F
100
AcDbEntity
  8
0
  6
Continuous
 62
     7
370
    15
100
AcDbCircle
 10
142.7841812291
 20
138.2491662458
 30
0.0
 40
0.5
100
AcDbArc
 50
90.0
 51
177.0
  0
LINE
  5
188
330
1F
100
AcDbEntity
  8
0
  6
Continuous
 62
     7
370
    15
100
AcDbLine
 10
142.8352170413
 20
138.7491663501
 30
0.0
 11
142.7841805642
 21
138.7491663501
 31
0.0
  0
ARC
  5
189
330
1F
100
AcDbEntity
  8
0
  6
Continuous
 62
     7
370
    15
100
AcDbCircle
 10
142.8352166624
 20
138.2491662458
 30
0.0
 40
0.5
100
AcDbArc
 50
3.0
 51
90.0
  0
ARC
  5
18A
330
1F
100
AcDbEntity
  8
0
  6
Continuous
 62
     7
370
    15
100
AcDbCircle
 10
144.1510356841
 20
132.2491662458
 30
0.0
 40
0.5
100
AcDbArc
 50
183.0
 51
270.0
  0
LINE
  5
18B
330
1F
100
AcDbEntity
  8
0
  6
Continuous
 62
     7
370
    15
100
AcDbLine
 10
145.1683626299
 20
131.7491661341
 30
0.0
 11
144.1510361408
 21
131.7491661341
 31
0.0
  0
ARC
  5
18C
330
1F
100
AcDbEntity
  8
0
  6
Continuous
 62
     7
370
    15
100
AcDbCircle
 10
145.1683622074
 20
132.2491662458
 30
0.0
 40
0.5
100
AcDbArc
 50
270.0
 51
357.0
  0
LINE
  5
18D
330
1F
100
AcDbEntity
  8
0
  6
Continuous
 62
     7
370
    15
100
AcDbLine
 10
145.9848661696
 20
138.2753345699
 30
0.0
 11
145.6676763271
 21
132.22299838
 31
0.0
  0
ARC
  5
18E
330
1F
100
AcDbEntity
  8
0
  6
Continuous
 62
     7
370
    15
100
AcDbCircle
 10
146.4841812291
 20
138.2491662458
 30
0.0
 40
0.5
100
AcDbArc
 50
90.0
 51
177.0
  0
LINE
  5
18F
330
1F
100
AcDbEntity
  8
0
  6
Continuous
 62
     7
370
    15
100
AcDbLine
 10
146.5352163439
 20
138.7491663501
 30
0.0
 11
146.4841817294
 21
138.7491663501
 31
0.0
  0
ARC
  5
190
330
1F
100
AcDbEntity
  8
0
  6
Continuous
 62
     7
370
    15
100
AcDbCircle
 10
146.5352166624
 20
138.2491662458
 30
0.0
 40
0.5000000000000278
100
AcDbArc
 50
3.0
 51
90.0
  0
LINE
  5
191
330
1F
100
AcDbEntity
  8
0
  6
Continuous
 62
     7
370
    15
100
AcDbLine
 10
147.3517217462
 20
132.22299838
 30
0.0
 11
147.0345319038
 21
138.2753345699
 31
0.0
  0
ARC
  5
192
330
1F
100
AcDbEntity
  8
0
  6
Continuous
 62
     7
370
    15
100
AcDbCircle
 10
147.8510356841
 20
132.2491662458
 30
0.0
 40
0.5
100
AcDbArc
 50
183.0
 51
270.0
  0
LINE
  5
193
330
1F
100
AcDbEntity
  8
0
  6
Continuous
 62
     7
370
    15
100
AcDbLine
 10
148.8683619325
 20
131.7491661341
 30
0.0
 11
147.8510373061
 21
131.7491661341
 31
0.0
  0
ARC
  5
194
330
1F
100
AcDbEntity
  8
0
  6
Continuous
 62
     7
370
    15
100
AcDbCircle
 10
148.8683622074
 20
132.2491662458
 30
0.0
 40
0.5000000000000263
100
AcDbArc
 50
270.0
 51
357.0
  0
LINE
  5
195
330
1F
100
AcDbEntity
  8
0
  6
Continuous
 62
     7
370
    15
100
AcDbLine
 10
149.6848673349
 20
138.2753345699
 30
0.0
 11
149.3676774924
 21
132.22299838
 31
0.0
  0
ARC
  5
196
330
1F
100
AcDbEntity
  8
0
  6
Continuous
 62
     7
370
    15
100
AcDbCircle
 10
150.1841812291
 20
138.2491662458
 30
0.0
 40
0.5
100
AcDbArc
 50
90.0
 51
177.0
  0
LINE
  5
197
330
1F
100
AcDbEntity
  8
0
  6
Continuous
 62
     7
370
    15
100
AcDbLine
 10
150.2352156465
 20
138.7491663501
 30
0.0
 11
150.1841828947
 21
138.7491663501
 31
0.0
  0
ARC
  5
198
330
1F
100
AcDbEntity
  8
0
  6
Continuous
 62
     7
370
    15
100
AcDbCircle
 10
150.2352166624
 20
138.2491662458
 30
0.0
 40
0.5000000000000278
100
AcDbArc
 50
3.0
 51
90.0
  0
LINE
  5
199
330
1F
100
AcDbEntity
  8
0
  6
Continuous
 62
     7
370
    15
100
AcDbLine
 10
151.0517210488
 20
132.22299838
 30
0.0
 11
150.7345312064
 21
138.2753345699
 31
0.0
  0
ARC
  5
19A
330
1F
100
AcDbEntity
  8
0
  6
Continuous
 62
     7
370
    15
100
AcDbCircle
 10
151.5510356841
 20
132.2491662458
 30
0.0
 40
0.5
100
AcDbArc
 50
183.0
 51
270.0
  0
LINE
  5
19B
330
1F
100
AcDbEntity
  8
0
  6
Continuous
 62
     7
370
    15
100
AcDbLine
 10
152.2237681573
 20
131.7491661341
 30
0.0
 11
151.5510366087
 21
131.7491661341
 31
0.0
  0
ARC
  5
19C
330
1F
100
AcDbEntity
  8
0
  6
Continuous
 62
     7
370
    15
100
AcDbCircle
 10
152.2237672768
 20
132.2491662458
 30
0.0
 40
0.5000000000000018
100
AcDbArc
 50
270.0
 51
354.0
  0
ARC
  5
19D
330
1F
100
AcDbEntity
  8
0
  6
Continuous
 62
     7
370
    15
100
AcDbCircle
 10
153.8599009679
 20
138.2491662458
 30
0.0
 40
0.5000000000000077
100
AcDbArc
 50
90.0
 51
174.0
  0
ARC
  5
19E
330
1F
100
AcDbEntity
  8
0
  6
Continuous
 62
     7
370
    15
100
AcDbCircle
 10
153.9096989458
 20
138.2491662458
 30
0.0
 40
0.5
100
AcDbArc
 50
0.0
 51
90.0
  0
LINE
  5
19F
330
1F
100
AcDbEntity
  8
0
  6
Continuous
 62
     7
370
    15
100
AcDbLine
 10
118.098369662
 20
132.1969017901
 30
0.0
 11
117.4567579081
 21
138.3014302284
 31
0.0
  0
LINE
  5
1A0
330
1F
100
AcDbEntity
  8
0
  6
Continuous
 62
     7
370
    15
100
AcDbLine
 10
143.6517205809
 20
132.22299838
 30
0.0
 11
143.3345307385
 21
138.2753345699
 31
0.0
  0
LINE
  5
1A1
330
1F
100
AcDbEntity
  8
0
  6
Continuous
 62
     7
370
    15
100
AcDbLine
 10
153.3626415556
 20
138.3014302284
 30
0.0
 11
152.7210273569
 21
132.1969017901
 31
0.0
  0
LINE
  5
1A2
330
1F
100
AcDbEntity
  8
0
  6
Continuous
 62
     7
370
    15
100
AcDbLine
 10
153.9097004359
 20
138.7491663501
 30
0.0
 11
153.8599007552
 21
138.7491663501
 31
0.0
  0
LINE
  5
1A3
330
1F
100
AcDbEntity
  8
0
  6
Continuous
 62
     7
370
    15
100
AcDbLine
 10
154.4096977239
 20
126.7491662458
 30
0.0
 11
154.4096977239
 21
138.2491662682
 31
0.0
  0
LINE
  5
1A4
330
1F
100
AcDbEntity
  8
0
  6
Continuous
 62
     7
370
    15
100
AcDbLine
 10
139.135215876
 20
138.7491663501
 30
0.0
 11
139.0841812616
 21
138.7491663501
 31
0.0
  0
LINE
  5
1A5
330
1F
100
AcDbEntity
  8
0
  6
Continuous
 62
     7
370
    15
100
AcDbLine
 10
116.4096989458
 20
138.2491662682
 30
0.0
 11
116.4096989458
 21
126.7491662458
 31
0.0
  0
LINE
  5
1A6
330
1F
100
AcDbEntity
  8
0
  6
Continuous
 62
     7
370
    15
100
AcDbLine
 10
116.959496904
 20
138.7491663501
 30
0.0
 11
116.9096989695
 21
138.7491663501
 31
0.0
  0
LINE
  5
1A7
330
1F
100
AcDbEntity
  8
0
  6
Continuous
 62
     7
370
    15
100
AcDbLine
 10
135.9096993481
 20
138.7491663501
 30
0.0
 11
135.3841819589
 21
138.7491663501
 31
0.0
  0
LINE
  5
1A8
330
1F
100
AcDbEntity
  8
0
  6
Continuous
 62
     7
370
    15
100
AcDbLine
 10
134.8848663991
 20
138.2753345699
 30
0.0
 11
134.5676765566
 21
132.22299838
 31
0.0
  0
LINE
  5
1A9
330
1F
100
AcDbEntity
  8
0
  6
Continuous
 62
     7
370
    15
100
AcDbLine
 10
132.5517208104
 20
132.22299838
 30
0.0
 11
132.234530968
 21
138.2753345699
 31
0.0
  0
LINE
  5
1AA
330
1F
100
AcDbEntity
  8
0
  6
Continuous
 62
     7
370
    15
100
AcDbLine
 10
131.7352163394
 20
138.7491663501
 30
0.0
 11
131.6841807937
 21
138.7491663501
 31
0.0
  0
LINE
  5
1AB
330
1F
100
AcDbEntity
  8
0
  6
Continuous
 62
     7
370
    15
100
AcDbLine
 10
131.1848661651
 20
138.2753345699
 30
0.0
 11
130.867677254
 21
132.22299838
 31
0.0
  0
LINE
  5
1AC
330
1F
100
AcDbEntity
  8
0
  6
Continuous
 62
     7
370
    15
100
AcDbLine
 10
128.8517205765
 20
132.22299838
 30
0.0
 11
128.5345316653
 21
138.2753345699
 31
0.0
  0
LINE
  5
1AD
330
1F
100
AcDbEntity
  8
0
  6
Continuous
 62
     7
370
    15
100
AcDbLine
 10
128.0352170368
 20
138.7491663501
 30
0.0
 11
127.984181491
 21
138.7491663501
 31
0.0
  0
LINE
  5
1AE
330
1F
100
AcDbEntity
  8
0
  6
Continuous
 62
     7
370
    15
100
AcDbLine
 10
127.4848668625
 20
138.2753345699
 30
0.0
 11
127.16767702
 21
132.22299838
 31
0.0
  0
LINE
  5
1AF
330
1F
100
AcDbEntity
  8
0
  6
Continuous
 62
     7
370
    15
100
AcDbLine
 10
125.1517212739
 20
132.22299838
 30
0.0
 11
124.8345314314
 21
138.2753345699
 31
0.0
  0
LINE
  5
1B0
330
1F
100
AcDbEntity
  8
0
  6
Continuous
 62
     7
370
    15
100
AcDbLine
 10
124.3352168028
 20
138.7491663501
 30
0.0
 11
124.2841812571
 21
138.7491663501
 31
0.0
  0
LINE
  5
1B1
330
1F
100
AcDbEntity
  8
0
  6
Continuous
 62
     7
370
    15
100
AcDbLine
 10
123.7848666285
 20
138.2753345699
 30
0.0
 11
123.4676767861
 21
132.22299838
 31
0.0
  0
LINE
  5
1B2
330
1F
100
AcDbEntity
  8
0
  6
HIDDEN
 62
     7
370
     0
100
AcDbLine
 10
136.7510356729
 20
131.7491661341
 30
0.0
 11
135.4096983348
 21
131.7491661341
 31
0.0
  0
LINE
  5
1B3
330
1F
100
AcDbEntity
  8
0
  6
HIDDEN
 62
     7
370
     0
100
AcDbLine
 10
137.9096996759
 20
131.7491661341
 30
0.0
 11
137.768362162
 21
131.7491661341
 31
0.0
  0
LINE
  5
1B4
330
1F
100
AcDbEntity
  8
0
  6
HIDDEN
 62
     7
370
     0
100
AcDbLine
 10
136.2481680488
 20
132.2529688061
 30
0.0
 11
135.4096983348
 21
131.7491661341
 31
0.0
  0
LINE
  5
1B5
330
1F
100
AcDbEntity
  8
0
  6
HIDDEN
 62
     7
370
     0
100
AcDbLine
 10
137.9096996759
 20
126.7491662458
 30
0.0
 11
137.9096996759
 21
131.7491661341
 31
0.0
  0
LINE
  5
1B6
330
1F
100
AcDbEntity
  8
0
  6
HIDDEN
 62
     7
370
     0
100
AcDbLine
 10
135.4096983348
 20
131.7491661341
 30
0.0
 11
135.4096983348
 21
126.7491662458
 31
0.0
  0
LINE
  5
1B7
330
1F
100
AcDbEntity
  8
0
  6
HIDDEN
 62
     7
370
     0
100
AcDbLine
 10
137.9096996759
 20
131.7491661341
 30
0.0
 11
137.8862415229
 21
131.7632607699
 31
0.0
  0
LINE
  5
1B8
330
1F
100
AcDbEntity
  8
0
  6
HIDDEN
 62
     7
370
     0
100
AcDbLine
 10
150.9402938907
 20
134.349166374
 30
0.0
 11
149.4791046505
 21
134.349166374
 31
0.0
  0
LINE
  5
1B9
330
1F
100
AcDbEntity
  8
0
  6
HIDDEN
 62
     7
370
     0
100
AcDbLine
 10
149.1718911355
 20
131.8491664298
 30
0.0
 11
151.2475074058
 21
131.8491664298
 31
0.0
  0
LINE
  5
1BA
330
1F
100
AcDbEntity
  8
0
  6
HIDDEN
 62
     7
370
     0
100
AcDbLine
 10
154.4096977239
 20
134.349166374
 30
0.0
 11
152.947241885
 21
134.349166374
 31
0.0
  0
LINE
  5
1BB
330
1F
100
AcDbEntity
  8
0
  6
HIDDEN
 62
     7
370
     0
100
AcDbLine
 10
152.5318831926
 20
131.8491664298
 30
0.0
 11
154.4096977239
 21
131.8491664298
 31
0.0
  0
LINE
  5
1BC
330
1F
100
AcDbEntity
  8
0
  6
HIDDEN
 62
     7
370
     0
100
AcDbLine
 10
147.2939946478
 20
133.3244638101
 30
0.0
 11
147.1586231862
 21
133.0991661691
 31
0.0
  0
LINE
  5
1BD
330
1F
100
AcDbEntity
  8
0
  6
HIDDEN
 62
     7
370
     0
100
AcDbLine
 10
147.1586231862
 20
133.0991661691
 30
0.0
 11
147.3198667889
 21
132.8308120885
 31
0.0
  0
DIMENSION
  5
1BE
330
1F
100
AcDbEntity
  8
0
  6
Continuous
 62
     7
370
     0
100
AcDbDimension
  2
*D16
 10
154.4096989458
 20
116.8853527101
 30
0.0
 11
143.4838922805
 21
116.8853527101
 31
0.0
 70
   160
 71
     2
 42
-1.0
  3
SLDDIMSTYLE1
100
AcDbAlignedDimension
 13
116.4096989458
 23
126.7491662458
 33
0.0
 14
154.4096989458
 24
126.7491662458
 34
0.0
100
AcDbRotatedDimension
  0
DIMENSION
  5
1C8
330
1F
100
AcDbEntity
  8
0
  6
Continuous
 62
     7
370
     0
100
AcDbDimension
  2
*D17
 10
164.7157634257
 20
138.7491662458
 30
0.0
 11
164.7157634257
 21
133.5701264086
 31
0.0
 70
   160
 71
     2
 42
-1.0
  3
SLDDIMSTYLE0
100
AcDbAlignedDimension
 13
154.4096989458
 23
126.7491662458
 33
0.0
 14
153.8599009679
 24
138.7491662458
 34
0.0
 50
90.0
100
AcDbRotatedDimension
  0
LINE
  5
1D4
330
1F
100
AcDbEntity
  8
0
  6
HIDDEN
 62
     7
370
     0
100
AcDbLine
 10
135.1596989458
 20
126.7491662458
 30
0.0
 11
135.1596989458
 21
131.7491662458
 31
0.0
  0
LINE
  5
1D5
330
1F
100
AcDbEntity
  8
0
  6
HIDDEN
 62
     7
370
     0
100
AcDbLine
 10
138.1596989458
 20
126.7491662458
 30
0.0
 11
138.1596989458
 21
131.7491662458
 31
0.0
  0
LINE
  5
1D6
330
1F
100
AcDbEntity
  8
0
  6
HIDDEN
 62
     7
370
     0
100
AcDbLine
 10
138.1596989458
 20
131.7491662458
 30
0.0
 11
135.1596989458
 21
131.7491662458
 31
0.0
  0
LINE
  5
1D7
330
1F
100
AcDbEntity
  8
0
  6
HIDDEN
 62
     7
370
     0
100
AcDbLine
 10
154.4096989458
 20
131.5991662458
 30
0.0
 11
149.4096989458
 21
131.5991662458
 31
0.0
  0
LINE
  5
1D8
330
1F
100
AcDbEntity
  8
0
  6
HIDDEN
 62
     7
370
     0
100
AcDbLine
 10
154.4096989458
 20
134.5991662458
 30
0.0
 11
152.9735163694
 21
134.5991662458
 31
0.0
  0
LINE
  5
1D9
330
1F
100
AcDbEntity
  8
0
  6
HIDDEN
 62
     7
370
     0
100
AcDbLine
 10
150.9271912298
 20
134.5991662458
 30
0.0
 11
149.4922066617
 21
134.5991662458
 31
0.0
  0
LINE
  5
1DA
330
1F
100
AcDbEntity
  8
0
  6
HIDDEN
 62
     7
370
     0
100
AcDbLine
 10
149.4096989458
 20
131.5991662458
 30
0.0
 11
149.4096989458
 21
131.8491662458
 31
0.0
  0
LINE
  5
1DB
330
1F
100
AcDbEntity
  8
0
  6
HIDDEN
 62
     7
370
     0
100
AcDbLine
 10
154.4096989458
 20
131.5991662458
 30
0.0
 11
149.4096989458
 21
131.5991662458
 31
0.0
  0
LINE
  5
1DC
330
1F
100
AcDbEntity
  8
0
  6
HIDDEN
 62
     7
370
     0
100
AcDbLine
 10
154.4096989458
 20
134.5991662458
 30
0.0
 11
152.9735163694
 21
134.5991662458
 31
0.0
  0
LINE
  5
1DD
330
1F
100
AcDbEntity
  8
0
  6
HIDDEN
 62
     7
370
     0
100
AcDbLine
 10
150.9271912298
 20
134.5991662458
 30
0.0
 11
149.4922066617
 21
134.5991662458
 31
0.0
  0
LINE
  5
1DE
330
1F
100
AcDbEntity
  8
0
  6
HIDDEN
 62
     7
370
     0
100
AcDbLine
 10
149.4096989458
 20
131.5991662458
 30
0.0
 11
149.4096989458
 21
131.8491662458
 31
0.0
  0
LINE
  5
1DF
330
1F
100
AcDbEntity
  8
0
  6
CENTERX2
 62
     7
370
     0
100
AcDbLine
 10
145.158623172
 20
133.0991662458
 30
0.0
 11
156.4096989458
 21
133.0991662458
 31
0.0
  0
LINE
  5
1E0
330
1F
100
AcDbEntity
  8
0
  6
CENTERX2
 62
     7
370
     0
100
AcDbLine
 10
136.6596989458
 20
131.7491662458
 30
0.0
 11
136.6596989458
 21
133.7632605112
 31
0.0
  0
LINE
  5
1E1
330
1F
100
AcDbEntity
  8
0
  6
CENTERX2
 62
     7
370
     0
100
AcDbLine
 10
136.6596989458
 20
131.7491662458
 30
0.0
 11
136.6596989458
 21
124.7491662458
 31
0.0
  0
LINE
  5
1E2
330
1F
100
AcDbEntity
  8
0
  6
Continuous
 62
     7
370
    15
100
AcDbLine
 10
65.6760064045
 20
84.5924946918
 30
0.0
 11
65.6760064045
 21
117.2541264372
 31
0.0
  0
LINE
  5
1E3
330
1F
100
AcDbEntity
  8
0
  6
Continuous
 62
     7
370
    15
100
AcDbLine
 10
63.0777559268
 20
116.6814441939
 30
0.0
 11
63.0777559268
 21
118.754064511
 31
0.0
  0
LINE
  5
1E4
330
1F
100
AcDbEntity
  8
0
  6
Continuous
 62
     7
370
    15
100
AcDbLine
 10
60.4614600124
 20
118.0820314209
 30
0.0
 11
60.4614600124
 21
120.2644199935
 31
0.0
  0
LINE
  5
1E5
330
1F
100
AcDbEntity
  8
0
  6
Continuous
 62
     7
370
    15
100
AcDbLine
 10
57.8451640981
 20
119.5923869035
 30
0.0
 11
57.8451640981
 21
121.774775476
 31
0.0
  0
LINE
  5
1E6
330
1F
100
AcDbEntity
  8
0
  6
Continuous
 62
     7
370
    15
100
AcDbLine
 10
55.2288695008
 20
121.1027416257
 30
0.0
 11
55.2288695008
 21
123.2851301982
 31
0.0
  0
LINE
  5
1E7
330
1F
100
AcDbEntity
  8
0
  6
Continuous
 62
     7
370
    15
100
AcDbLine
 10
49.9962789892
 20
124.1234518304
 30
0.0
 11
49.9962789892
 21
126.305840403
 31
0.0
  0
LINE
  5
1E8
330
1F
100
AcDbEntity
  8
0
  6
Continuous
 62
     7
370
    15
100
AcDbLine
 10
47.3799843919
 20
125.6338065526
 30
0.0
 11
47.3799843919
 21
127.8161951252
 31
0.0
  0
LINE
  5
1E9
330
1F
100
AcDbEntity
  8
0
  6
Continuous
 62
     7
370
    15
100
AcDbLine
 10
44.7636891361
 20
127.144161655
 30
0.0
 11
44.7636891361
 21
129.3265502276
 31
0.0
  0
LINE
  5
1EA
330
1F
100
AcDbEntity
  8
0
  6
Continuous
 62
     7
370
    15
100
AcDbLine
 10
42.1473938802
 20
128.6545167573
 30
0.0
 11
42.1473938802
 21
130.8369053299
 31
0.0
  0
LINE
  5
1EB
330
1F
100
AcDbEntity
  8
0
  6
Continuous
 62
     7
370
    15
100
AcDbLine
 10
39.5482676206
 20
130.1737955541
 30
0.0
 11
39.5482676206
 21
132.3373489818
 31
0.0
  0
LINE
  5
1EC
330
1F
100
AcDbEntity
  8
0
  6
Continuous
 62
     7
370
    15
100
AcDbLine
 10
30.5277737978
 20
127.8674321099
 30
0.0
 11
30.5277737978
 21
95.2058003645
 31
0.0
  0
LINE
  5
1ED
330
1F
100
AcDbEntity
  8
0
  6
Continuous
 62
     7
370
    15
100
AcDbLine
 10
30.5277737978
 20
127.8674321099
 30
0.0
 11
57.3978306189
 21
112.3556784841
 31
0.0
  0
LINE
  5
1EE
330
1F
100
AcDbEntity
  8
0
  6
Continuous
 62
     7
370
    15
100
AcDbLine
 10
57.3978306189
 20
112.3556784841
 30
0.0
 11
57.3978306189
 21
79.6940467387
 31
0.0
  0
LINE
  5
1EF
330
1F
100
AcDbEntity
  8
0
  6
Continuous
 62
     7
370
    15
100
AcDbLine
 10
30.5277737978
 20
95.2058003645
 30
0.0
 11
57.3978306189
 21
79.6940467387
 31
0.0
  0
LWPOLYLINE
  5
1F0
330
1F
100
AcDbEntity
  8
0
  6
Continuous
 62
     7
370
    15
100
AcDbPolyline
 90
       36
 70
   128
 43
0.0
 10
45.7305701096
 20
113.3752595106
 10
45.7163653046
 20
113.5657092646
 10
45.6742092364
 20
113.7664363333
 10
45.6054545556
 20
113.9709898368
 10
45.5123139717
 20
114.1727995834
 10
45.3977785937
 20
114.365372261
 10
45.2655310027
 20
114.5425241311
 10
45.1198214449
 20
114.698558965
 10
44.9653321717
 20
114.8284619491
 10
44.8070312429
 20
114.9280540456
 10
44.6500039391
 20
114.994144069
 10
44.4992973455
 20
115.024597113
 10
44.3597570327
 20
115.0184410003
 10
44.2358676886
 20
114.9758731115
 10
44.1316095562
 20
114.8982580906
 10
44.0503346272
 20
114.7880928517
 10
43.9946546891
 20
114.6489191157
 10
43.9663609828
 20
114.4852085724
 10
43.9663609828
 20
114.3022229496
 10
43.9946546891
 20
114.1058451884
 10
44.0503346272
 20
113.9023847642
 10
44.1316095562
 20
113.6983814897
 10
44.2358676886
 20
113.5003925915
 10
44.3597570327
 20
113.3147851107
 10
44.4992973455
 20
113.147519182
 10
44.6500039391
 20
113.0039731387
 10
44.8070312429
 20
112.8887602544
 10
44.9653321717
 20
112.8055819888
 10
45.1198214449
 20
112.7571154548
 10
45.2655310027
 20
112.7449176141
 10
45.3977785937
 20
112.7693796657
 10
45.5123139717
 20
112.8297126108
 10
45.6054545556
 20
112.9239845282
 10
45.6742092364
 20
113.0491555669
 10
45.7163653046
 20
113.2012102753
 10
45.7305701096
 20
113.3752595106
  0
LINE
  5
1F1
330
1F
100
AcDbEntity
  8
0
  6
Continuous
 62
     7
370
    15
100
AcDbLine
 10
57.3978306189
 20
112.3556784841
 30
0.0
 11
65.5295586183
 21
117.0500251362
 31
0.0
  0
LINE
  5
1F2
330
1F
100
AcDbEntity
  8
0
  6
Continuous
 62
     7
370
    15
100
AcDbLine
 10
65.5295586183
 20
84.3883933908
 30
0.0
 11
65.5295586183
 21
117.0500251362
 31
0.0
  0
LINE
  5
1F3
330
1F
100
AcDbEntity
  8
0
  6
Continuous
 62
     7
370
    15
100
AcDbLine
 10
57.3978306189
 20
79.6940467387
 30
0.0
 11
65.5295586183
 21
84.3883933908
 31
0.0
  0
LWPOLYLINE
  5
1F4
330
1F
100
AcDbEntity
  8
0
  6
Continuous
 62
     7
370
    15
100
AcDbPolyline
 90
       36
 70
   128
 43
0.0
 10
62.7718422465
 20
90.9618055523
 10
62.7576377707
 20
91.1358542171
 10
62.7154813733
 20
91.2879094959
 10
62.6467273511
 20
91.4130824357
 10
62.5535861086
 20
91.5073516915
 10
62.4390510599
 20
91.5676863477
 10
62.3068034689
 20
91.5921476388
 10
62.1610935818
 20
91.5799488476
 10
62.0066052964
 20
91.5314821233
 10
61.8483033798
 20
91.4483063294
 10
61.691276076
 20
91.3330934451
 10
61.5405704703
 20
91.189547972
 10
61.4010298281
 20
91.0222810928
 10
61.2771398255
 20
90.8366717109
 10
61.1728820224
 20
90.6386837632
 10
61.0916070934
 20
90.4346812492
 10
61.0359278138
 20
90.2312212051
 10
61.007633449
 20
90.0348423033
 10
61.007633449
 20
89.8518566806
 10
61.0359278138
 20
89.6881465174
 10
61.0916070934
 20
89.5489716407
 10
61.1728820224
 20
89.4388071623
 10
61.2771398255
 20
89.3611927118
 10
61.4010298281
 20
89.3186236823
 10
61.5405704703
 20
89.3124677596
 10
61.691276076
 20
89.3429225148
 10
61.8483033798
 20
89.4090094963
 10
62.0066052964
 20
89.5086052049
 10
62.1610935818
 20
89.6385076188
 10
62.3068034689
 20
89.7945418823
 10
62.4390510599
 20
89.9716929919
 10
62.5535861086
 20
90.1642670004
 10
62.6467273511
 20
90.3660740853
 10
62.7154813733
 20
90.57062949
 10
62.7576377707
 20
90.7713567487
 10
62.7718422465
 20
90.9618055523
  0
LWPOLYLINE
  5
1F5
330
1F
100
AcDbEntity
  8
0
  6
Continuous
 62
     7
370
    15
100
AcDbPolyline
 90
       36
 70
   128
 43
0.0
 10
62.7718422465
 20
107.2926214249
 10
62.7576377707
 20
107.4666708503
 10
62.7154813733
 20
107.6187253686
 10
62.6467273511
 20
107.7438983084
 10
62.5535861086
 20
107.8381683247
 10
62.4390510599
 20
107.8985029808
 10
62.3068034689
 20
107.9229635115
 10
62.1610935818
 20
107.9107654807
 10
62.0066052964
 20
107.862297996
 10
61.8483033798
 20
107.7791222021
 10
61.691276076
 20
107.6639093178
 10
61.5405704703
 20
107.5203638447
 10
61.4010298281
 20
107.353097726
 10
61.2771398255
 20
107.1674883441
 10
61.1728820224
 20
106.9694996359
 10
61.0916070934
 20
106.7654978823
 10
61.0359278138
 20
106.5620378383
 10
61.007633449
 20
106.365658176
 10
61.007633449
 20
106.1826725532
 10
61.0359278138
 20
106.0189623901
 10
61.0916070934
 20
105.8797882739
 10
61.1728820224
 20
105.769623035
 10
61.2771398255
 20
105.692009345
 10
61.4010298281
 20
105.6494403154
 10
61.5405704703
 20
105.6432843928
 10
61.691276076
 20
105.6737383875
 10
61.8483033798
 20
105.739825369
 10
62.0066052964
 20
105.8394210776
 10
62.1610935818
 20
105.9693234915
 10
62.3068034689
 20
106.1253585154
 10
62.4390510599
 20
106.3025088646
 10
62.5535861086
 20
106.4950828731
 10
62.6467273511
 20
106.696889958
 10
62.7154813733
 20
106.9014461232
 10
62.7576377707
 20
107.1021733819
 10
62.7718422465
 20
107.2926214249
  0
LINE
  5
1F6
330
1F
100
AcDbEntity
  8
0
  6
Continuous
 62
     7
370
    15
100
AcDbLine
 10
38.6595017972
 20
132.561778762
 30
0.0
 11
30.5277737978
 21
127.8674321099
 31
0.0
  0
ARC
  5
1F7
330
1F
100
AcDbEntity
  8
0
  6
Continuous
 62
     7
370
    15
100
AcDbCircle
 10
39.0130552481
 20
131.8794230663
 30
0.0
 40
0.7685111177440141
100
AcDbArc
 50
62.6096773508
 51
117.3903264997
  0
LINE
  5
1F8
330
1F
100
AcDbEntity
  8
0
  6
Continuous
 62
     7
370
    15
100
AcDbLine
 10
39.4018211103
 20
132.5414510669
 30
0.0
 11
39.3666086532
 21
132.5617787858
 31
0.0
  0
LWPOLYLINE
  5
1F9
330
1F
100
AcDbEntity
  8
0
  6
Continuous
 62
     7
370
    15
100
AcDbPolyline
 90
        9
 70
   128
 43
0.0
 10
39.4368404905
 20
132.1556994074
 10
39.4876765045
 20
132.1996202172
 10
39.5237957774
 20
132.2481530077
 10
39.5439899213
 20
132.2996732901
 10
39.5475825285
 20
132.3524555219
 10
39.5344528386
 20
132.4047316766
 10
39.5050403064
 20
132.4547509541
 10
39.4603308142
 20
132.5008386835
 10
39.4018211103
 20
132.5414510669
  0
LINE
  5
1FA
330
1F
100
AcDbEntity
  8
0
  6
Continuous
 62
     7
370
    15
100
AcDbLine
 10
35.5739750579
 20
129.4018976191
 30
0.0
 11
39.4368404905
 21
132.1556994074
 31
0.0
  0
LWPOLYLINE
  5
1FB
330
1F
100
AcDbEntity
  8
0
  6
Continuous
 62
     7
370
    15
100
AcDbPolyline
 90
        9
 70
   128
 43
0.0
 10
35.6089947262
 20
129.0161461734
 10
35.5504850223
 20
129.0567585569
 10
35.5057756124
 20
129.1028462387
 10
35.4763633683
 20
129.1528657301
 10
35.4632333079
 20
129.2051417185
 10
35.4668255859
 20
129.2579237602
 10
35.4870197709
 20
129.3094440188
 10
35.5231397024
 20
129.3579771895
 10
35.5739750579
 20
129.4018976191
  0
LINE
  5
1FC
330
1F
100
AcDbEntity
  8
0
  6
Continuous
 62
     7
370
    15
100
AcDbLine
 10
36.0846877661
 20
128.7415344268
 30
0.0
 11
35.6089947262
 21
129.0161461734
 31
0.0
  0
ARC
  5
1FD
330
1F
100
AcDbEntity
  8
0
  6
Continuous
 62
     7
370
    15
100
AcDbCircle
 10
36.4392267096
 20
129.4295709425
 30
0.0
 40
0.7740104065625597
100
AcDbArc
 50
242.7383614918
 51
295.5295209334
  0
LINE
  5
1FE
330
1F
100
AcDbEntity
  8
0
  6
Continuous
 62
     7
370
    15
100
AcDbLine
 10
41.2767414059
 20
131.0722425101
 30
0.0
 11
36.7728066847
 21
128.7311323198
 31
0.0
  0
ARC
  5
1FF
330
1F
100
AcDbEntity
  8
0
  6
Continuous
 62
     7
370
    15
100
AcDbCircle
 10
41.6103210185
 20
130.3738030309
 30
0.0
 40
0.7740110232648468
100
AcDbArc
 50
62.738395962
 51
115.5294693964
  0
LINE
  5
200
330
1F
100
AcDbEntity
  8
0
  6
Continuous
 62
     7
370
    15
100
AcDbLine
 10
42.0009474111
 20
131.0410073913
 30
0.0
 11
41.9648598306
 21
131.0618403081
 31
0.0
  0
ARC
  5
201
330
1F
100
AcDbEntity
  8
0
  6
Continuous
 62
     7
370
    15
100
AcDbCircle
 10
41.9267633613
 20
130.8386125358
 30
0.0
 40
0.2155619419184121
100
AcDbArc
 50
295.3238318725
 51
69.8705335667
  0
LINE
  5
202
330
1F
100
AcDbEntity
  8
0
  6
Continuous
 62
     7
370
    15
100
AcDbLine
 10
37.9636056326
 20
128.0436987196
 30
0.0
 11
42.0189665059
 21
130.6437650803
 31
0.0
  0
ARC
  5
203
330
1F
100
AcDbEntity
  8
0
  6
Continuous
 62
     7
370
    15
100
AcDbCircle
 10
38.0558085748
 20
127.8488510966
 30
0.0
 40
0.2155620067454022
100
AcDbArc
 50
115.3237641855
 51
249.8705039822
  0
LINE
  5
204
330
1F
100
AcDbEntity
  8
0
  6
Continuous
 62
     7
370
    15
100
AcDbLine
 10
38.7009828572
 20
127.2311794194
 30
0.0
 11
37.9816243981
 21
127.6464562185
 31
0.0
  0
ARC
  5
205
330
1F
100
AcDbEntity
  8
0
  6
Continuous
 62
     7
370
    15
100
AcDbCircle
 10
39.055521619
 20
127.9192155664
 30
0.0
 40
0.7740099954373723
100
AcDbArc
 50
242.7383609534
 51
295.529536881
  0
LINE
  5
206
330
1F
100
AcDbEntity
  8
0
  6
Continuous
 62
     7
370
    15
100
AcDbLine
 10
43.8930366617
 20
129.5618874078
 30
0.0
 11
39.3891016113
 21
127.2207774075
 31
0.0
  0
ARC
  5
207
330
1F
100
AcDbEntity
  8
0
  6
Continuous
 62
     7
370
    15
100
AcDbCircle
 10
44.2266162789
 20
128.8634482327
 30
0.0
 40
0.7740107507400095
100
AcDbArc
 50
62.7383859497
 51
115.5294794086
  0
LINE
  5
208
330
1F
100
AcDbEntity
  8
0
  6
Continuous
 62
     7
370
    15
100
AcDbLine
 10
44.6172426669
 20
129.530652289
 30
0.0
 11
44.5811550864
 21
129.5514852057
 31
0.0
  0
ARC
  5
209
330
1F
100
AcDbEntity
  8
0
  6
Continuous
 62
     7
370
    15
100
AcDbCircle
 10
44.5430583179
 20
129.3282574198
 30
0.0
 40
0.2155620576131355
100
AcDbArc
 50
295.3239052899
 51
69.8704601493
  0
LINE
  5
20A
330
1F
100
AcDbEntity
  8
0
  6
Continuous
 62
     7
370
    15
100
AcDbLine
 10
40.5799008884
 20
126.5333436173
 30
0.0
 11
44.6352617618
 21
129.1334099779
 31
0.0
  0
ARC
  5
20B
330
1F
100
AcDbEntity
  8
0
  6
Continuous
 62
     7
370
    15
100
AcDbCircle
 10
40.6721032627
 20
126.3384959685
 30
0.0
 40
0.2155617871452759
100
AcDbArc
 50
115.3236248311
 51
249.8706433366
  0
LINE
  5
20C
330
1F
100
AcDbEntity
  8
0
  6
Continuous
 62
     7
370
    15
100
AcDbLine
 10
41.3172781131
 20
125.7208243171
 30
0.0
 11
40.5979196539
 21
126.1361011161
 31
0.0
  0
ARC
  5
20D
330
1F
100
AcDbEntity
  8
0
  6
Continuous
 62
     7
370
    15
100
AcDbCircle
 10
41.6718169075
 20
126.4088626311
 30
0.0
 40
0.7740119368519787
100
AcDbArc
 50
242.7384322789
 51
295.5294655555
  0
LINE
  5
20E
330
1F
100
AcDbEntity
  8
0
  6
Continuous
 62
     7
370
    15
100
AcDbLine
 10
46.5093319175
 20
128.0515323054
 30
0.0
 11
42.0053968671
 21
125.7104223051
 31
0.0
  0
ARC
  5
20F
330
1F
100
AcDbEntity
  8
0
  6
Continuous
 62
     7
370
    15
100
AcDbCircle
 10
46.8429115675
 20
127.3530952975
 30
0.0
 40
0.7740088093284894
100
AcDbArc
 50
62.7383146242
 51
115.5295507342
  0
LINE
  5
210
330
1F
100
AcDbEntity
  8
0
  6
Continuous
 62
     7
370
    15
100
AcDbLine
 10
47.2335379227
 20
128.0202971866
 30
0.0
 11
47.1974503422
 21
128.0411301034
 31
0.0
  0
ARC
  5
211
330
1F
100
AcDbEntity
  8
0
  6
Continuous
 62
     7
370
    15
100
AcDbCircle
 10
47.1593530364
 20
127.8179022931
 30
0.0
 40
0.2155622654294204
100
AcDbArc
 50
295.3240371648
 51
69.8703282744
  0
LINE
  5
212
330
1F
100
AcDbEntity
  8
0
  6
Continuous
 62
     7
370
    15
100
AcDbLine
 10
43.1961954857
 20
125.0229888951
 30
0.0
 11
47.2515570176
 21
127.6230548755
 31
0.0
  0
ARC
  5
213
330
1F
100
AcDbEntity
  8
0
  6
Continuous
 62
     7
370
    15
100
AcDbCircle
 10
43.2883991171
 20
124.8281412326
 30
0.0
 40
0.2155623372045813
100
AcDbArc
 50
115.3239252864
 51
249.8705274955
  0
LINE
  5
214
330
1F
100
AcDbEntity
  8
0
  6
Continuous
 62
     7
370
    15
100
AcDbLine
 10
43.9335733689
 20
124.2104692147
 30
0.0
 11
43.2142149098
 21
124.6257460137
 31
0.0
  0
ARC
  5
215
330
1F
100
AcDbEntity
  8
0
  6
Continuous
 62
     7
370
    15
100
AcDbCircle
 10
44.2881121633
 20
124.8985075288
 30
0.0
 40
0.7740119368517241
100
AcDbArc
 50
242.7384322789
 51
295.5294655555
  0
LINE
  5
216
330
1F
100
AcDbEntity
  8
0
  6
Continuous
 62
     7
370
    15
100
AcDbLine
 10
49.1256265148
 20
126.5411775832
 30
0.0
 11
44.6216921229
 21
124.2000672028
 31
0.0
  0
ARC
  5
217
330
1F
100
AcDbEntity
  8
0
  6
Continuous
 62
     7
370
    15
100
AcDbCircle
 10
49.4592060992
 20
125.842736241
 30
0.0
 40
0.7740126921617823
100
AcDbArc
 50
62.7384572753
 51
115.5294080831
  0
LINE
  5
218
330
1F
100
AcDbEntity
  8
0
  6
Continuous
 62
     7
370
    15
100
AcDbLine
 10
49.84983252
 20
126.5099424644
 30
0.0
 11
49.8137449395
 21
126.5307753812
 31
0.0
  0
ARC
  5
219
330
1F
100
AcDbEntity
  8
0
  6
Continuous
 62
     7
370
    15
100
AcDbCircle
 10
49.7756489721
 20
126.3075476316
 30
0.0
 40
0.2155617478242744
100
AcDbArc
 50
295.3237087039
 51
69.8706567353
  0
LINE
  5
21A
330
1F
100
AcDbEntity
  8
0
  6
Continuous
 62
     7
370
    15
100
AcDbLine
 10
45.8124907415
 20
123.5126337927
 30
0.0
 11
49.8678516148
 21
126.1127001533
 31
0.0
  0
ARC
  5
21B
330
1F
100
AcDbEntity
  8
0
  6
Continuous
 62
     7
370
    15
100
AcDbCircle
 10
45.9046943729
 20
123.3177861302
 30
0.0
 40
0.2155623372045563
100
AcDbArc
 50
115.3239252864
 51
249.8705274955
  0
LINE
  5
21C
330
1F
100
AcDbEntity
  8
0
  6
Continuous
 62
     7
370
    15
100
AcDbLine
 10
46.5498686247
 20
122.7001141123
 30
0.0
 11
45.8305101656
 21
123.1153909114
 31
0.0
  0
ARC
  5
21D
330
1F
100
AcDbEntity
  8
0
  6
Continuous
 62
     7
370
    15
100
AcDbCircle
 10
46.904406723
 20
123.3881530168
 30
0.0
 40
0.7740121428001189
100
AcDbArc
 50
242.7384981092
 51
295.5294613626
  0
LINE
  5
21E
330
1F
100
AcDbEntity
  8
0
  6
Continuous
 62
     7
370
    15
100
AcDbLine
 10
51.7419217706
 20
125.0308224808
 30
0.0
 11
47.2379867202
 21
122.6897124806
 31
0.0
  0
ARC
  5
21F
330
1F
100
AcDbEntity
  8
0
  6
Continuous
 62
     7
370
    15
100
AcDbCircle
 10
52.0755013174
 20
124.3323813489
 30
0.0
 40
0.7740124862175992
100
AcDbArc
 50
62.7383914452
 51
115.5294122759
  0
LINE
  5
220
330
1F
100
AcDbEntity
  8
0
  6
Continuous
 62
     7
370
    15
100
AcDbLine
 10
52.8016377634
 20
124.8059015689
 30
0.0
 11
52.4300408539
 21
125.0204198986
 31
0.0
  0
LINE
  5
221
330
1F
100
AcDbEntity
  8
0
  6
Continuous
 62
     7
370
    15
100
AcDbLine
 10
48.4287853387
 20
122.0022790705
 30
0.0
 11
52.8016377634
 21
124.8059015689
 31
0.0
  0
ARC
  5
222
330
1F
100
AcDbEntity
  8
0
  6
Continuous
 62
     7
370
    15
100
AcDbCircle
 10
48.5209889702
 20
121.807431408
 30
0.0
 40
0.2155623372045624
100
AcDbArc
 50
115.3239252864
 51
249.8705274955
  0
LINE
  5
223
330
1F
100
AcDbEntity
  8
0
  6
Continuous
 62
     7
370
    15
100
AcDbLine
 10
49.166163222
 20
121.1897593901
 30
0.0
 11
48.4468047628
 21
121.6050361892
 31
0.0
  0
ARC
  5
224
330
1F
100
AcDbEntity
  8
0
  6
Continuous
 62
     7
370
    15
100
AcDbCircle
 10
49.5207027126
 20
121.8777971138
 30
0.0
 40
0.7740117309095619
100
AcDbArc
 50
242.7383664488
 51
295.5294697484
  0
LINE
  5
225
330
1F
100
AcDbEntity
  8
0
  6
Continuous
 62
     7
370
    15
100
AcDbLine
 10
54.3582163679
 20
123.5204677586
 30
0.0
 11
49.8542826345
 21
121.179356998
 31
0.0
  0
ARC
  5
226
330
1F
100
AcDbEntity
  8
0
  6
Continuous
 62
     7
370
    15
100
AcDbCircle
 10
54.6917959147
 20
122.8220266267
 30
0.0
 40
0.7740124862177605
100
AcDbArc
 50
62.7383914452
 51
115.5294122759
  0
LINE
  5
227
330
1F
100
AcDbEntity
  8
0
  6
Continuous
 62
     7
370
    15
100
AcDbLine
 10
55.0824223731
 20
123.4892326398
 30
0.0
 11
55.0463354512
 21
123.5100651764
 31
0.0
  0
ARC
  5
228
330
1F
100
AcDbEntity
  8
0
  6
Continuous
 62
     7
370
    15
100
AcDbCircle
 10
55.0082380239
 20
123.2868374314
 30
0.0
 40
0.2155623762862222
100
AcDbArc
 50
295.324058911
 51
69.8704911424
  0
LINE
  5
229
330
1F
100
AcDbEntity
  8
0
  6
Continuous
 62
     7
370
    15
100
AcDbLine
 10
51.0450812531
 20
120.4919235879
 30
0.0
 11
55.1004421265
 21
123.0919899486
 31
0.0
  0
ARC
  5
22A
330
1F
100
AcDbEntity
  8
0
  6
Continuous
 62
     7
370
    15
100
AcDbCircle
 10
51.1372846418
 20
120.2970760559
 30
0.0
 40
0.2155621154920656
100
AcDbArc
 50
115.3238817941
 51
249.870201759
  0
LINE
  5
22B
330
1F
100
AcDbEntity
  8
0
  6
Continuous
 62
     7
370
    15
100
AcDbLine
 10
51.7824578192
 20
119.6794046679
 30
0.0
 11
51.0630993601
 21
120.094681467
 31
0.0
  0
ARC
  5
22C
330
1F
100
AcDbEntity
  8
0
  6
Continuous
 62
     7
370
    15
100
AcDbCircle
 10
52.1369973099
 20
120.3674423916
 30
0.0
 40
0.7740117309096194
100
AcDbArc
 50
242.7383664489
 51
295.5294697484
  0
LINE
  5
22D
330
1F
100
AcDbEntity
  8
0
  6
Continuous
 62
     7
370
    15
100
AcDbLine
 10
56.9745122822
 20
122.0101122761
 30
0.0
 11
52.4705772318
 21
119.6690022758
 31
0.0
  0
ARC
  5
22E
330
1F
100
AcDbEntity
  8
0
  6
Continuous
 62
     7
370
    15
100
AcDbCircle
 10
57.3080919043
 20
121.3116707237
 30
0.0
 40
0.7740128981123038
100
AcDbArc
 50
62.7385231056
 51
115.5294038901
  0
LINE
  5
22F
330
1F
100
AcDbEntity
  8
0
  6
Continuous
 62
     7
370
    15
100
AcDbLine
 10
57.6987182875
 20
121.9788771573
 30
0.0
 11
57.6626300484
 21
121.9997104542
 31
0.0
  0
ARC
  5
230
330
1F
100
AcDbEntity
  8
0
  6
Continuous
 62
     7
370
    15
100
AcDbCircle
 10
57.6245351353
 20
121.7764826818
 30
0.0
 40
0.2155612761680973
100
AcDbArc
 50
295.3234579996
 51
69.870722825
  0
LINE
  5
231
330
1F
100
AcDbEntity
  8
0
  6
Continuous
 62
     7
370
    15
100
AcDbLine
 10
53.6613758504
 20
118.9815688657
 30
0.0
 11
57.7167367237
 21
121.5816352264
 31
0.0
  0
ARC
  5
232
330
1F
100
AcDbEntity
  8
0
  6
Continuous
 62
     7
370
    15
100
AcDbCircle
 10
53.7535794818
 20
118.7867212033
 30
0.0
 40
0.2155623372045851
100
AcDbArc
 50
115.3239252864
 51
249.8705274955
  0
LINE
  5
233
330
1F
100
AcDbEntity
  8
0
  6
Continuous
 62
     7
370
    15
100
AcDbLine
 10
54.3987537336
 20
118.1690491854
 30
0.0
 11
53.6793952745
 21
118.5843259844
 31
0.0
  0
ARC
  5
234
330
1F
100
AcDbEntity
  8
0
  6
Continuous
 62
     7
370
    15
100
AcDbCircle
 10
54.7532917008
 20
118.8570794214
 30
0.0
 40
0.7740043771816423
100
AcDbArc
 50
242.7382128069
 51
295.5297466649
  0
LINE
  5
235
330
1F
100
AcDbEntity
  8
0
  6
Continuous
 62
     7
370
    15
100
AcDbLine
 10
59.5908068795
 20
120.4997575539
 30
0.0
 11
55.0868718291
 21
118.1586475536
 31
0.0
  0
ARC
  5
236
330
1F
100
AcDbEntity
  8
0
  6
Continuous
 62
     7
370
    15
100
AcDbCircle
 10
59.9243864263
 20
119.801316422
 30
0.0
 40
0.774012486217571
100
AcDbArc
 50
62.7383914452
 51
115.5294122759
  0
LINE
  5
237
330
1F
100
AcDbEntity
  8
0
  6
Continuous
 62
     7
370
    15
100
AcDbLine
 10
60.3150128847
 20
120.4685224351
 30
0.0
 11
60.2789259628
 21
120.4893549717
 31
0.0
  0
ARC
  5
238
330
1F
100
AcDbEntity
  8
0
  6
Continuous
 62
     7
370
    15
100
AcDbCircle
 10
60.2408285356
 20
120.2661272266
 30
0.0
 40
0.2155623762862233
100
AcDbArc
 50
295.324058911
 51
69.8704911424
  0
LINE
  5
239
330
1F
100
AcDbEntity
  8
0
  6
Continuous
 62
     7
370
    15
100
AcDbLine
 10
56.2776717647
 20
117.4712133832
 30
0.0
 11
60.3330326381
 21
120.0712797438
 31
0.0
  0
ARC
  5
23A
330
1F
100
AcDbEntity
  8
0
  6
Continuous
 62
     7
370
    15
100
AcDbCircle
 10
56.3698731248
 20
117.2763656177
 30
0.0
 40
0.2155614588121885
100
AcDbArc
 50
115.3233678701
 51
249.8710849118
  0
LINE
  5
23B
330
1F
100
AcDbEntity
  8
0
  6
Continuous
 62
     7
370
    15
100
AcDbLine
 10
57.0150483309
 20
116.6586944632
 30
0.0
 11
56.2956911888
 21
117.0739705019
 31
0.0
  0
ARC
  5
23C
330
1F
100
AcDbEntity
  8
0
  6
Continuous
 62
     7
370
    15
100
AcDbCircle
 10
57.369587884
 20
117.346736318
 30
0.0
 40
0.7740154318215294
100
AcDbArc
 50
242.7385024155
 51
295.5293337817
  0
LINE
  5
23D
330
1F
100
AcDbEntity
  8
0
  6
Continuous
 62
     7
370
    15
100
AcDbLine
 10
62.2071027939
 20
118.9894020713
 30
0.0
 11
57.7031677434
 21
116.6482920711
 31
0.0
  0
ARC
  5
23E
330
1F
100
AcDbEntity
  8
0
  6
Continuous
 62
     7
370
    15
100
AcDbCircle
 10
62.5406824031
 20
118.2909650706
 30
0.0
 40
0.7740087853511572
100
AcDbArc
 50
62.7382554791
 51
115.529548242
  0
LINE
  5
23F
330
1F
100
AcDbEntity
  8
0
  6
Continuous
 62
     7
370
    15
100
AcDbLine
 10
62.931307482
 20
118.9581677129
 30
0.0
 11
62.8952218771
 21
118.9789994891
 31
0.0
  0
ARC
  5
240
330
1F
100
AcDbEntity
  8
0
  6
Continuous
 62
     7
370
    15
100
AcDbCircle
 10
62.8571243295
 20
118.7557725587
 30
0.0
 40
0.2155619135110583
100
AcDbArc
 50
295.3237652434
 51
69.87078481
  0
LINE
  5
241
330
1F
100
AcDbEntity
  8
0
  6
Continuous
 62
     7
370
    15
100
AcDbLine
 10
58.893966362
 20
115.960858661
 30
0.0
 11
62.9493272354
 21
118.5609250216
 31
0.0
  0
ARC
  5
242
330
1F
100
AcDbEntity
  8
0
  6
Continuous
 62
     7
370
    15
100
AcDbCircle
 10
58.9861687968
 20
115.7660109442
 30
0.0
 40
0.2155618744324918
100
AcDbArc
 50
115.3236316195
 51
249.8708211624
  0
LINE
  5
243
330
1F
100
AcDbEntity
  8
0
  6
Continuous
 62
     7
370
    15
100
AcDbLine
 10
59.387678826
 20
115.289004033
 30
0.0
 11
58.9119857861
 21
115.5636157797
 31
0.0
  0
ARC
  5
244
330
1F
100
AcDbEntity
  8
0
  6
Continuous
 62
     7
370
    15
100
AcDbCircle
 10
59.7430394603
 20
115.981444643
 30
0.0
 40
0.7783027551553543
100
AcDbArc
 50
242.8330979628
 51
293.7011717391
  0
LINE
  5
245
330
1F
100
AcDbEntity
  8
0
  6
Continuous
 62
     7
370
    15
100
AcDbLine
 10
64.8261343021
 20
117.4987720714
 30
0.0
 11
60.0558910966
 21
115.2687883217
 31
0.0
  0
ARC
  5
246
330
1F
100
AcDbEntity
  8
0
  6
Continuous
 62
     7
370
    15
100
AcDbCircle
 10
65.138986307
 20
116.7861156311
 30
0.0
 40
0.7783030121919329
100
AcDbArc
 50
62.8331109185
 51
113.701193058
  0
LINE
  5
247
330
1F
100
AcDbEntity
  8
0
  6
Continuous
 62
     7
370
    15
100
AcDbLine
 10
65.5295605939
 20
117.4582281185
 30
0.0
 11
65.494346902
 21
117.4785565501
 31
0.0
  0
ARC
  5
248
330
1F
100
AcDbEntity
  8
0
  6
Continuous
 62
     7
370
    15
100
AcDbCircle
 10
65.4520983502
 20
117.2541270022
 30
0.0
 40
0.2183063555135594
100
AcDbArc
 50
290.7826395481
 51
69.2168058481
  0
ARC
  5
249
330
1F
100
AcDbEntity
  8
0
  6
Continuous
 62
     7
370
    15
100
AcDbCircle
 10
65.4257816938
 20
84.6174465531
 30
0.0
 40
0.2514657059269038
100
AcDbArc
 50
294.373814307
 51
354.3054152659
  0
ELLIPSE
  5
24A
330
1F
100
AcDbEntity
  8
0
  6
Continuous
 62
     7
370
    15
100
AcDbEllipse
 10
60.7609452284
 20
107.4329778669
 30
0.0
 11
0.7337440321806099
 21
1.016750437446319
 31
0.0
210
0.0
220
0.0
230
1.0
 40
0.6341455366
 41
4.282448217478143
 42
5.371161317979944
  0
LINE
  5
24B
330
1F
100
AcDbEntity
  8
0
  6
Continuous
 62
     7
370
    15
100
AcDbLine
 10
52.8016377634
 20
122.7113707951
 30
0.0
 11
52.8016377634
 21
124.8059015689
 31
0.0
  0
ELLIPSE
  5
24C
330
1F
100
AcDbEntity
  8
0
  6
Continuous
 62
     7
370
    15
100
AcDbEllipse
 10
60.7609452284
 20
91.1021616292
 30
0.0
 11
0.7337440321806099
 21
1.016750437446319
 31
0.0
210
0.0
220
0.0
230
1.0
 40
0.6341455366
 41
4.282448217470982
 42
5.371161317987554
  0
LINE
  5
24D
330
1F
100
AcDbEntity
  8
0
  6
Continuous
 62
   110
370
    15
100
AcDbLine
 10
58.893966362
 20
115.960858661
 30
0.0
 11
58.893966362
 21
115.5745800145
 31
0.0
  0
LINE
  5
24E
330
1F
100
AcDbEntity
  8
0
  6
Continuous
 62
   110
370
    15
100
AcDbLine
 10
62.9493272354
 20
116.6214070035
 30
0.0
 11
62.9493272354
 21
118.5609250216
 31
0.0
  0
LINE
  5
24F
330
1F
100
AcDbEntity
  8
0
  6
Continuous
 62
   110
370
    15
100
AcDbLine
 10
56.2776717647
 20
117.4712133832
 30
0.0
 11
56.2776717647
 21
117.0849347367
 31
0.0
  0
LINE
  5
250
330
1F
100
AcDbEntity
  8
0
  6
Continuous
 62
   110
370
    15
100
AcDbLine
 10
60.3330326381
 20
118.0152770619
 30
0.0
 11
60.3330326381
 21
120.0712797438
 31
0.0
  0
LINE
  5
251
330
1F
100
AcDbEntity
  8
0
  6
Continuous
 62
   110
370
    15
100
AcDbLine
 10
53.6613758504
 20
118.9815688657
 30
0.0
 11
53.6613758504
 21
118.5952902192
 31
0.0
  0
LINE
  5
252
330
1F
100
AcDbEntity
  8
0
  6
Continuous
 62
   110
370
    15
100
AcDbLine
 10
57.7167367237
 20
119.5256325445
 30
0.0
 11
57.7167367237
 21
121.5816352264
 31
0.0
  0
LINE
  5
253
330
1F
100
AcDbEntity
  8
0
  6
Continuous
 62
   110
370
    15
100
AcDbLine
 10
51.0450812531
 20
120.4919235879
 30
0.0
 11
51.0450812531
 21
120.1056449414
 31
0.0
  0
LINE
  5
254
330
1F
100
AcDbEntity
  8
0
  6
Continuous
 62
   110
370
    15
100
AcDbLine
 10
55.1004421265
 20
121.0359872667
 30
0.0
 11
55.1004421265
 21
123.0919899486
 31
0.0
  0
LINE
  5
255
330
1F
100
AcDbEntity
  8
0
  6
Continuous
 62
   110
370
    15
100
AcDbLine
 10
48.4287853387
 20
122.0022790705
 30
0.0
 11
48.4287853387
 21
121.616000424
 31
0.0
  0
LINE
  5
256
330
1F
100
AcDbEntity
  8
0
  6
Continuous
 62
   110
370
    15
100
AcDbLine
 10
45.8124907415
 20
123.5126337927
 30
0.0
 11
45.8124907415
 21
123.1263551462
 31
0.0
  0
LINE
  5
257
330
1F
100
AcDbEntity
  8
0
  6
Continuous
 62
   110
370
    15
100
AcDbLine
 10
49.8678516148
 20
124.0566974714
 30
0.0
 11
49.8678516148
 21
126.1127001533
 31
0.0
  0
LINE
  5
258
330
1F
100
AcDbEntity
  8
0
  6
Continuous
 62
   110
370
    15
100
AcDbLine
 10
43.1961954857
 20
125.0229888951
 30
0.0
 11
43.1961954857
 21
124.6367102485
 31
0.0
  0
LINE
  5
259
330
1F
100
AcDbEntity
  8
0
  6
Continuous
 62
   110
370
    15
100
AcDbLine
 10
47.2515570176
 20
125.5670521936
 30
0.0
 11
47.2515570176
 21
127.6230548755
 31
0.0
  0
LINE
  5
25A
330
1F
100
AcDbEntity
  8
0
  6
Continuous
 62
   110
370
    15
100
AcDbLine
 10
40.5799008884
 20
126.5333436173
 30
0.0
 11
40.5799008884
 21
126.1470649707
 31
0.0
  0
LINE
  5
25B
330
1F
100
AcDbEntity
  8
0
  6
Continuous
 62
   110
370
    15
100
AcDbLine
 10
44.6352617618
 20
127.077407296
 30
0.0
 11
44.6352617618
 21
129.1334099779
 31
0.0
  0
LINE
  5
25C
330
1F
100
AcDbEntity
  8
0
  6
Continuous
 62
   110
370
    15
100
AcDbLine
 10
37.9636056326
 20
128.0436987196
 30
0.0
 11
37.9636056326
 21
127.6574200731
 31
0.0
  0
LINE
  5
25D
330
1F
100
AcDbEntity
  8
0
  6
Continuous
 62
   110
370
    15
100
AcDbLine
 10
42.0189665059
 20
128.5877623984
 30
0.0
 11
42.0189665059
 21
130.6437650803
 31
0.0
  0
LINE
  5
25E
330
1F
100
AcDbEntity
  8
0
  6
Continuous
 62
   110
370
    15
100
AcDbLine
 10
35.5739750579
 20
129.4018976191
 30
0.0
 11
35.5739750579
 21
129.0386001612
 31
0.0
  0
LINE
  5
25F
330
1F
100
AcDbEntity
  8
0
  6
Continuous
 62
   110
370
    15
100
AcDbLine
 10
39.4368404905
 20
130.1158763339
 30
0.0
 11
39.4368404905
 21
132.1556994074
 31
0.0
  0
LWPOLYLINE
  5
260
330
1F
100
AcDbEntity
  8
0
  6
Continuous
 62
     7
370
     0
100
AcDbPolyline
 90
       17
 70
   128
 43
0.0
 10
62.9486197152
 20
91.0638561976
 10
62.8678817671
 20
90.5485322115
 10
62.6379595434
 20
90.01844358
 10
62.2938566185
 20
89.5542914923
 10
61.8879595434
 20
89.226738896
 10
61.4820624683
 20
89.0856527046
 10
61.1379595434
 20
89.1525120119
 10
60.9080373197
 20
89.4171380944
 10
60.8272993716
 20
89.8392440299
 10
60.9080373197
 20
90.3545680161
 10
61.1379595434
 20
90.8846566475
 10
61.4820624683
 20
91.3488087353
 10
61.8879595434
 20
91.6763613316
 10
62.2938566185
 20
91.817447523
 10
62.6379595434
 20
91.7505882156
 10
62.8678817671
 20
91.4859621331
 10
62.9486197152
 20
91.0638561976
  0
LWPOLYLINE
  5
261
330
1F
100
AcDbEntity
  8
0
  6
Continuous
 62
     7
370
     0
100
AcDbPolyline
 90
       17
 70
   128
 43
0.0
 10
62.9486197152
 20
107.3946724354
 10
62.8678817671
 20
106.8793484492
 10
62.6379595434
 20
106.3492598178
 10
62.2938566185
 20
105.88510773
 10
61.8879595434
 20
105.5575551337
 10
61.4820624683
 20
105.4164689423
 10
61.1379595434
 20
105.4833282496
 10
60.9080373197
 20
105.7479543321
 10
60.8272993716
 20
106.1700602676
 10
60.9080373197
 20
106.6853842538
 10
61.1379595434
 20
107.2154728852
 10
61.4820624683
 20
107.679624973
 10
61.8879595434
 20
108.0071775693
 10
62.2938566185
 20
108.1482637607
 10
62.6379595434
 20
108.0814044534
 10
62.8678817671
 20
107.8167783709
 10
62.9486197152
 20
107.3946724354
  0
LWPOLYLINE
  5
262
330
1F
100
AcDbEntity
  8
0
  6
Continuous
 62
     7
370
     0
100
AcDbPolyline
 90
       17
 70
   128
 43
0.0
 10
44.8466861168
 20
112.6607038067
 10
44.4407890417
 20
112.988256403
 10
44.0966861168
 20
113.4524084908
 10
43.8667638931
 20
113.9824971222
 10
43.786025945
 20
114.4978211084
 10
43.8667638931
 20
114.9199270439
 10
44.0966861168
 20
115.1845531264
 10
44.4407890417
 20
115.2514124337
 10
44.8466861168
 20
115.1103262424
 10
45.2525831919
 20
114.7827736461
 10
45.5966861168
 20
114.3186215583
 10
45.8266083405
 20
113.7885329269
 10
45.9073462886
 20
113.2732089407
 10
45.8266083405
 20
112.8511030052
 10
45.5966861168
 20
112.5864769227
 10
45.2525831919
 20
112.5196176154
 10
44.8466861168
 20
112.6607038067
  0
ENDSEC
  0
SECTION
  2
OBJECTS
  0
DICTIONARY
  5
C
330
0
100
AcDbDictionary
281
     1
  3
ACAD_GROUP
350
D
  3
ACAD_LAYOUT
350
1A
  3
ACAD_MLEADERSTYLE
350
265
  3
ACAD_MLINESTYLE
350
17
  3
ACAD_PLOTSETTINGS
350
19
  3
ACAD_PLOTSTYLENAME
350
E
  3
ACAD_SCALELIST
350
65
  3
ACAD_VISUALSTYLE
350
2A
  3
AcDbVariableDictionary
350
263
  0
DICTIONARY
  5
D
102
{ACAD_REACTORS
330
C
102
}
330
C
100
AcDbDictionary
281
     1
  0
DICTIONARY
  5
1A
102
{ACAD_REACTORS
330
C
102
}
330
C
100
AcDbDictionary
281
     1
  3
Layout1
350
1E
  3
Layout2
350
26
  3
Model
350
22
  0
DICTIONARY
  5
265
102
{ACAD_REACTORS
330
C
102
}
330
C
100
AcDbDictionary
281
     1
  0
DICTIONARY
  5
17
102
{ACAD_REACTORS
330
C
102
}
330
C
100
AcDbDictionary
281
     1
  3
Standard
350
18
  0
DICTIONARY
  5
19
102
{ACAD_REACTORS
330
C
102
}
330
C
100
AcDbDictionary
281
     1
  0
ACDBDICTIONARYWDFLT
  5
E
102
{ACAD_REACTORS
330
C
102
}
330
C
100
AcDbDictionary
281
     1
  3
Normal
350
F
100
AcDbDictionaryWithDefault
340
F
  0
DICTIONARY
  5
65
102
{ACAD_REACTORS
330
C
102
}
330
C
100
AcDbDictionary
281
     1
  3
A0
350
66
  3
A1
350
67
  3
A2
350
68
  3
A3
350
69
  3
A4
350
6A
  3
A5
350
6B
  3
A6
350
6C
  3
A7
350
6D
  3
A8
350
6E
  3
A9
350
6F
  3
B0
350
70
  3
B1
350
71
  3
B2
350
72
  3
B3
350
73
  3
B4
350
74
  3
B5
350
75
  3
B6
350
76
  3
B7
350
77
  3
B8
350
78
  3
B9
350
79
  3
C0
350
7A
  3
C1
350
7B
  3
C2
350
7C
  3
C3
350
7D
  3
C4
350
7E
  3
C5
350
7F
  3
C6
350
80
  3
C7
350
81
  3
C8
350
82
  3
C9
350
83
  3
D0
350
84
  3
D1
350
85
  3
D2
350
86
  0
DICTIONARY
  5
2A
102
{ACAD_REACTORS
330
C
102
}
330
C
100
AcDbDictionary
281
     1
  3
2dWireframe
350
2F
  3
3D Hidden
350
31
  3
3dWireframe
350
30
  3
Basic
350
32
  3
Brighten
350
36
  3
ColorChange
350
3A
  3
Conceptual
350
34
  3
Dim
350
35
  3
Facepattern
350
39
  3
Flat
350
2B
  3
FlatWithEdges
350
2C
  3
Gouraud
350
2D
  3
GouraudWithEdges
350
2E
  3
Linepattern
350
38
  3
Realistic
350
33
  3
Thicken
350
37
  0
DICTIONARY
  5
263
102
{ACAD_REACTORS
330
C
102
}
330
C
100
AcDbDictionary
281
     1
  3
CANNOSCALE
350
268
  3
DIMASSOC
350
269
  3
HIDETEXT
350
26A
  3
PSOLHEIGHT
350
267
  3
PSOLWIDTH
350
266
  0
LAYOUT
  5
1E
102
{ACAD_REACTORS
330
1A
102
}
330
1A
100
AcDbPlotSettings
  1

  2
none_device
  4

  6

 40
0.0
 41
0.0
 42
0.0
 43
0.0
 44
0.0
 45
0.0
 46
0.0
 47
0.0
 48
0.0
 49
0.0
140
0.0
141
0.0
142
1.0
143
1.0
 70
   688
 72
     0
 73
     0
 74
     5
  7

 75
    16
147
1.0
148
0.0
149
0.0
100
AcDbLayout
  1
Layout1
 70
     1
 71
     1
 10
0.0
 20
0.0
 11
420.0
 21
297.0
 12
0.0
 22
0.0
 32
0.0
 14
1.0000000000E+20
 24
1.0000000000E+20
 34
1.0000000000E+20
 15
-1.0000000000E+20
 25
-1.0000000000E+20
 35
-1.0000000000E+20
146
0.0
 13
0.0
 23
0.0
 33
0.0
 16
1.0
 26
0.0
 36
0.0
 17
0.0
 27
1.0
 37
0.0
 76
     0
330
1B
  0
LAYOUT
  5
26
102
{ACAD_REACTORS
330
1A
102
}
330
1A
100
AcDbPlotSettings
  1

  2
none_device
  4

  6

 40
0.0
 41
0.0
 42
0.0
 43
0.0
 44
0.0
 45
0.0
 46
0.0
 47
0.0
 48
0.0
 49
0.0
140
0.0
141
0.0
142
1.0
143
1.0
 70
   688
 72
     0
 73
     0
 74
     5
  7

 75
    16
147
1.0
148
0.0
149
0.0
100
AcDbLayout
  1
Layout2
 70
     1
 71
     2
 10
0.0
 20
0.0
 11
0.0
 21
0.0
 12
0.0
 22
0.0
 32
0.0
 14
0.0
 24
0.0
 34
0.0
 15
0.0
 25
0.0
 35
0.0
146
0.0
 13
0.0
 23
0.0
 33
0.0
 16
1.0
 26
0.0
 36
0.0
 17
0.0
 27
1.0
 37
0.0
 76
     0
330
23
  0
LAYOUT
  5
22
102
{ACAD_REACTORS
330
1A
102
}
330
1A
100
AcDbPlotSettings
  1

  2
none_device
  4

  6

 40
0.0
 41
0.0
 42
0.0
 43
0.0
 44
0.0
 45
0.0
 46
0.0
 47
0.0
 48
0.0
 49
0.0
140
0.0
141
0.0
142
1.0
143
1.0
 70
  1712
 72
     0
 73
     0
 74
     0
  7

 75
     0
147
1.0
148
0.0
149
0.0
100
AcDbLayout
  1
Model
 70
     1
 71
     0
 10
0.0
 20
0.0
 11
210.0
 21
297.0
 12
0.0
 22
0.0
 32
0.0
 14
0.0
 24
0.0
 34
0.0
 15
210.0
 25
297.0
 35
0.0
146
0.0
 13
0.0
 23
0.0
 33
0.0
 16
1.0
 26
0.0
 36
0.0
 17
0.0
 27
1.0
 37
0.0
 76
     0
330
1F
331
29
  0
MLINESTYLE
  5
18
102
{ACAD_REACTORS
330
17
102
}
330
17
100
AcDbMlineStyle
  2
Standard
 70
     0
  3

 62
   256
 51
90.0
 52
90.0
 71
     2
 49
0.5
 62
   256
  6
BYLAYER
 49
-0.5
 62
   256
  6
BYLAYER
  0
ACDBPLACEHOLDER
  5
F
102
{ACAD_REACTORS
330
E
102
}
330
E
  0
SCALE
  5
66
102
{ACAD_REACTORS
330
65
102
}
330
65
100
AcDbScale
 70
     0
300
1:1
140
1.0
141
1.0
290
     1
  0
SCALE
  5
67
102
{ACAD_REACTORS
330
65
102
}
330
65
100
AcDbScale
 70
     0
300
1:2
140
1.0
141
2.0
290
     0
  0
SCALE
  5
68
102
{ACAD_REACTORS
330
65
102
}
330
65
100
AcDbScale
 70
     0
300
1:4
140
1.0
141
4.0
290
     0
  0
SCALE
  5
69
102
{ACAD_REACTORS
330
65
102
}
330
65
100
AcDbScale
 70
     0
300
1:5
140
1.0
141
5.0
290
     0
  0
SCALE
  5
6A
102
{ACAD_REACTORS
330
65
102
}
330
65
100
AcDbScale
 70
     0
300
1:8
140
1.0
141
8.0
290
     0
  0
SCALE
  5
6B
102
{ACAD_REACTORS
330
65
102
}
330
65
100
AcDbScale
 70
     0
300
1:10
140
1.0
141
10.0
290
     0
  0
SCALE
  5
6C
102
{ACAD_REACTORS
330
65
102
}
330
65
100
AcDbScale
 70
     0
300
1:16
140
1.0
141
16.0
290
     0
  0
SCALE
  5
6D
102
{ACAD_REACTORS
330
65
102
}
330
65
100
AcDbScale
 70
     0
300
1:20
140
1.0
141
20.0
290
     0
  0
SCALE
  5
6E
102
{ACAD_REACTORS
330
65
102
}
330
65
100
AcDbScale
 70
     0
300
1:30
140
1.0
141
30.0
290
     0
  0
SCALE
  5
6F
102
{ACAD_REACTORS
330
65
102
}
330
65
100
AcDbScale
 70
     0
300
1:40
140
1.0
141
40.0
290
     0
  0
SCALE
  5
70
102
{ACAD_REACTORS
330
65
102
}
330
65
100
AcDbScale
 70
     0
300
1:50
140
1.0
141
50.0
290
     0
  0
SCALE
  5
71
102
{ACAD_REACTORS
330
65
102
}
330
65
100
AcDbScale
 70
     0
300
1:100
140
1.0
141
100.0
290
     0
  0
SCALE
  5
72
102
{ACAD_REACTORS
330
65
102
}
330
65
100
AcDbScale
 70
     0
300
2:1
140
2.0
141
1.0
290
     0
  0
SCALE
  5
73
102
{ACAD_REACTORS
330
65
102
}
330
65
100
AcDbScale
 70
     0
300
4:1
140
4.0
141
1.0
290
     0
  0
SCALE
  5
74
102
{ACAD_REACTORS
330
65
102
}
330
65
100
AcDbScale
 70
     0
300
8:1
140
8.0
141
1.0
290
     0
  0
SCALE
  5
75
102
{ACAD_REACTORS
330
65
102
}
330
65
100
AcDbScale
 70
     0
300
10:1
140
10.0
141
1.0
290
     0
  0
SCALE
  5
76
102
{ACAD_REACTORS
330
65
102
}
330
65
100
AcDbScale
 70
     0
300
100:1
140
100.0
141
1.0
290
     0
  0
SCALE
  5
77
102
{ACAD_REACTORS
330
65
102
}
330
65
100
AcDbScale
 70
     0
300
1/128" = 1'-0"
140
0.0078125
141
12.0
290
     0
  0
SCALE
  5
78
102
{ACAD_REACTORS
330
65
102
}
330
65
100
AcDbScale
 70
     0
300
1/64" = 1'-0"
140
0.015625
141
12.0
290
     0
  0
SCALE
  5
79
102
{ACAD_REACTORS
330
65
102
}
330
65
100
AcDbScale
 70
     0
300
1/32" = 1'-0"
140
0.03125
141
12.0
290
     0
  0
SCALE
  5
7A
102
{ACAD_REACTORS
330
65
102
}
330
65
100
AcDbScale
 70
     0
300
1/16" = 1'-0"
140
0.0625
141
12.0
290
     0
  0
SCALE
  5
7B
102
{ACAD_REACTORS
330
65
102
}
330
65
100
AcDbScale
 70
     0
300
3/32" = 1'-0"
140
0.09375
141
12.0
290
     0
  0
SCALE
  5
7C
102
{ACAD_REACTORS
330
65
102
}
330
65
100
AcDbScale
 70
     0
300
1/8" = 1'-0"
140
0.125
141
12.0
290
     0
  0
SCALE
  5
7D
102
{ACAD_REACTORS
330
65
102
}
330
65
100
AcDbScale
 70
     0
300
3/16" = 1'-0"
140
0.1875
141
12.0
290
     0
  0
SCALE
  5
7E
102
{ACAD_REACTORS
330
65
102
}
330
65
100
AcDbScale
 70
     0
300
1/4" = 1'-0"
140
0.25
141
12.0
290
     0
  0
SCALE
  5
7F
102
{ACAD_REACTORS
330
65
102
}
330
65
100
AcDbScale
 70
     0
300
3/8" = 1'-0"
140
0.375
141
12.0
290
     0
  0
SCALE
  5
80
102
{ACAD_REACTORS
330
65
102
}
330
65
100
AcDbScale
 70
     0
300
1/2" = 1'-0"
140
0.5
141
12.0
290
     0
  0
SCALE
  5
81
102
{ACAD_REACTORS
330
65
102
}
330
65
100
AcDbScale
 70
     0
300
3/4" = 1'-0"
140
0.75
141
12.0
290
     0
  0
SCALE
  5
82
102
{ACAD_REACTORS
330
65
102
}
330
65
100
AcDbScale
 70
     0
300
1" = 1'-0"
140
1.0
141
12.0
290
     0
  0
SCALE
  5
83
102
{ACAD_REACTORS
330
65
102
}
330
65
100
AcDbScale
 70
     0
300
1-1/2" = 1'-0"
140
1.5
141
12.0
290
     0
  0
SCALE
  5
84
102
{ACAD_REACTORS
330
65
102
}
330
65
100
AcDbScale
 70
     0
300
3" = 1'-0"
140
3.0
141
12.0
290
     0
  0
SCALE
  5
85
102
{ACAD_REACTORS
330
65
102
}
330
65
100
AcDbScale
 70
     0
300
6" = 1'-0"
140
6.0
141
12.0
290
     0
  0
SCALE
  5
86
102
{ACAD_REACTORS
330
65
102
}
330
65
100
AcDbScale
 70
     0
300
1'-0" = 1'-0"
140
12.0
141
12.0
290
     0
  0
VISUALSTYLE
  5
2F
102
{ACAD_REACTORS
330
2A
102
}
330
2A
100
AcDbVisualStyle
  2
2dWireframe
 70
     4
 71
     0
 72
     2
 73
     0
 90
        0
 40
-0.6
 41
-30.0
 62
     5
 63
     7
 74
     1
 91
        4
 64
     7
 65
   257
 75
     1
175
     1
 42
1.0
 92
        0
 66
   257
 43
1.0
 76
     1
 77
     6
 78
     2
 67
     7
 79
     5
170
     0
171
     0
290
     0
174
     0
 93
        1
 44
0.0
173
     0
291
     0
 45
0.0
1001
ACAD
1000
AcDbSavedByObjectVersion
1070
     0
  0
VISUALSTYLE
  5
31
102
{ACAD_REACTORS
330
2A
102
}
330
2A
100
AcDbVisualStyle
  2
3D Hidden
 70
     6
 71
     1
 72
     2
 73
     2
 90
        0
 40
-0.6
 41
-30.0
 62
     5
 63
     7
 74
     2
 91
        2
 64
     7
 65
   257
 75
     2
175
     1
 42
40.0
 92
        0
 66
   257
 43
1.0
 76
     1
 77
     6
 78
     2
 67
     7
 79
     3
170
     0
171
     0
290
     0
174
     0
 93
        1
 44
0.0
173
     0
291
     0
 45
0.0
1001
ACAD
1000
AcDbSavedByObjectVersion
1070
     0
  0
VISUALSTYLE
  5
30
102
{ACAD_REACTORS
330
2A
102
}
330
2A
100
AcDbVisualStyle
  2
3dWireframe
 70
     5
 71
     0
 72
     2
 73
     0
 90
        0
 40
-0.6
 41
-30.0
 62
     5
 63
     7
 74
     1
 91
        4
 64
     7
 65
   257
 75
     1
175
     1
 42
1.0
 92
        0
 66
   257
 43
1.0
 76
     1
 77
     6
 78
     2
 67
     7
 79
     5
170
     0
171
     0
290
     0
174
     0
 93
        1
 44
0.0
173
     0
291
     0
 45
0.0
1001
ACAD
1000
AcDbSavedByObjectVersion
1070
     0
  0
VISUALSTYLE
  5
32
102
{ACAD_REACTORS
330
2A
102
}
330
2A
100
AcDbVisualStyle
  2
Basic
 70
     7
 71
     1
 72
     0
 73
     1
 90
        0
 40
-0.6
 41
-30.0
 62
     5
 63
     7
 74
     0
 91
        4
 64
     7
 65
   257
 75
     1
175
     1
 42
1.0
 92
        8
 66
     7
 43
1.0
 76
     1
 77
     6
 78
     2
 67
     7
 79
     5
170
     0
171
     0
290
     0
174
     0
 93
        1
 44
0.0
173
     0
291
     1
 45
0.0
1001
ACAD
1000
AcDbSavedByObjectVersion
1070
     0
  0
VISUALSTYLE
  5
36
102
{ACAD_REACTORS
330
2A
102
}
330
2A
100
AcDbVisualStyle
  2
Brighten
 70
    12
 71
     2
 72
     2
 73
     0
 90
        0
 40
-0.6
 41
-30.0
 62
     5
 63
     7
 74
     1
 91
        4
 64
     7
 65
   257
 75
     1
175
     1
 42
1.0
 92
        8
 66
     7
 43
1.0
 76
     1
 77
     6
 78
     2
 67
     7
 79
     5
170
     0
171
     0
290
     0
174
     0
 93
        1
 44
50.0
173
     0
291
     1
 45
0.0
1001
ACAD
1000
AcDbSavedByObjectVersion
1070
     0
  0
VISUALSTYLE
  5
3A
102
{ACAD_REACTORS
330
2A
102
}
330
2A
100
AcDbVisualStyle
  2
ColorChange
 70
    16
 71
     2
 72
     2
 73
     3
 90
        0
 40
-0.6
 41
-30.0
 62
     5
 63
     8
 74
     1
 91
        4
 64
     7
 65
   257
 75
     1
175
     1
 42
1.0
 92
        8
 66
     8
 43
1.0
 76
     1
 77
     6
 78
     2
 67
     7
 79
     5
170
     0
171
     0
290
     0
174
     0
 93
        1
 44
0.0
173
     0
291
     1
 45
0.0
1001
ACAD
1000
AcDbSavedByObjectVersion
1070
     0
  0
VISUALSTYLE
  5
34
102
{ACAD_REACTORS
330
2A
102
}
330
2A
100
AcDbVisualStyle
  2
Conceptual
 70
     9
 71
     3
 72
     2
 73
     0
 90
        0
 40
-0.6
 41
-30.0
 62
     5
 63
     7
 74
     2
 91
        2
 64
     7
 65
   257
 75
     1
175
     1
 42
40.0
 92
        8
 66
     7
 43
1.0
 76
     1
 77
     6
 78
     2
 67
     7
 79
     3
170
     0
171
     0
290
     0
174
     0
 93
        1
 44
0.0
173
     0
291
     0
 45
0.0
1001
ACAD
1000
AcDbSavedByObjectVersion
1070
     0
  0
VISUALSTYLE
  5
35
102
{ACAD_REACTORS
330
2A
102
}
330
2A
100
AcDbVisualStyle
  2
Dim
 70
    11
 71
     2
 72
     2
 73
     0
 90
        0
 40
-0.6
 41
-30.0
 62
     5
 63
     7
 74
     1
 91
        4
 64
     7
 65
   257
 75
     1
175
     1
 42
1.0
 92
        8
 66
     7
 43
1.0
 76
     1
 77
     6
 78
     2
 67
     7
 79
     5
170
     0
171
     0
290
     0
174
     0
 93
        1
 44
-50.0
173
     0
291
     1
 45
0.0
1001
ACAD
1000
AcDbSavedByObjectVersion
1070
     0
  0
VISUALSTYLE
  5
39
102
{ACAD_REACTORS
330
2A
102
}
330
2A
100
AcDbVisualStyle
  2
Facepattern
 70
    15
 71
     2
 72
     2
 73
     0
 90
        0
 40
-0.6
 41
-30.0
 62
     5
 63
     7
 74
     1
 91
        4
 64
     7
 65
   257
 75
     1
175
     1
 42
1.0
 92
        8
 66
     7
 43
1.0
 76
     1
 77
     6
 78
     2
 67
     7
 79
     5
170
     0
171
     0
290
     0
174
     0
 93
        1
 44
0.0
173
     0
291
     1
 45
0.0
1001
ACAD
1000
AcDbSavedByObjectVersion
1070
     0
  0
VISUALSTYLE
  5
2B
102
{ACAD_REACTORS
330
2A
102
}
330
2A
100
AcDbVisualStyle
  2
Flat
 70
     0
 71
     2
 72
     1
 73
     1
 90
        2
 40
-0.6
 41
30.0
 62
     5
 63
     7
 74
     0
 91
        4
 64
     7
 65
   257
 75
     1
175
     1
 42
1.0
 92
        8
 66
     7
 43
1.0
 76
     1
 77
     6
 78
     2
 67
     7
 79
     5
170
     0
171
     0
290
     0
174
     0
 93
       13
 44
0.0
173
     0
291
     1
 45
0.0
1001
ACAD
1000
AcDbSavedByObjectVersion
1070
     0
  0
VISUALSTYLE
  5
2C
102
{ACAD_REACTORS
330
2A
102
}
330
2A
100
AcDbVisualStyle
  2
FlatWithEdges
 70
     1
 71
     2
 72
     1
 73
     1
 90
        2
 40
-0.6
 41
30.0
 62
     5
 63
     7
 74
     1
 91
        4
 64
     7
 65
   257
 75
     1
175
     1
 42
1.0
 92
        0
 66
   257
 43
1.0
 76
     1
 77
     6
 78
     2
 67
     7
 79
     5
170
     0
171
     0
290
     0
174
     0
 93
       13
 44
0.0
173
     0
291
     1
 45
0.0
1001
ACAD
1000
AcDbSavedByObjectVersion
1070
     0
  0
VISUALSTYLE
  5
2D
102
{ACAD_REACTORS
330
2A
102
}
330
2A
100
AcDbVisualStyle
  2
Gouraud
 70
     2
 71
     2
 72
     2
 73
     1
 90
        2
 40
-0.6
 41
30.0
 62
     5
 63
     7
 74
     0
 91
        4
 64
     7
 65
   257
 75
     1
175
     1
 42
1.0
 92
        0
 66
     7
 43
1.0
 76
     1
 77
     6
 78
     2
 67
     7
 79
     5
170
     0
171
     0
290
     0
174
     0
 93
       13
 44
0.0
173
     0
291
     1
 45
0.0
1001
ACAD
1000
AcDbSavedByObjectVersion
1070
     0
  0
VISUALSTYLE
  5
2E
102
{ACAD_REACTORS
330
2A
102
}
330
2A
100
AcDbVisualStyle
  2
GouraudWithEdges
 70
     3
 71
     2
 72
     2
 73
     1
 90
        2
 40
-0.6
 41
30.0
 62
     5
 63
     7
 74
     1
 91
        4
 64
     7
 65
   257
 75
     1
175
     1
 42
1.0
 92
        0
 66
   257
 43
1.0
 76
     1
 77
     6
 78
     2
 67
     7
 79
     5
170
     0
171
     0
290
     0
174
     0
 93
       13
 44
0.0
173
     0
291
     1
 45
0.0
1001
ACAD
1000
AcDbSavedByObjectVersion
1070
     0
  0
VISUALSTYLE
  5
38
102
{ACAD_REACTORS
330
2A
102
}
330
2A
100
AcDbVisualStyle
  2
Linepattern
 70
    14
 71
     2
 72
     2
 73
     0
 90
        0
 40
-0.6
 41
-30.0
 62
     5
 63
     7
 74
     1
 91
        4
 64
     7
 65
   257
 75
     7
175
     7
 42
1.0
 92
        8
 66
     7
 43
1.0
 76
     1
 77
     6
 78
     2
 67
     7
 79
     5
170
     0
171
     0
290
     0
174
     0
 93
        1
 44
0.0
173
     0
291
     1
 45
0.0
1001
ACAD
1000
AcDbSavedByObjectVersion
1070
     0
  0
VISUALSTYLE
  5
33
102
{ACAD_REACTORS
330
2A
102
}
330
2A
100
AcDbVisualStyle
  2
Realistic
 70
     8
 71
     2
 72
     2
 73
     0
 90
        0
 40
-0.6
 41
-30.0
 62
     5
 63
     7
 74
     1
 91
        0
 64
     7
 65
   257
 75
     1
175
     1
 42
1.0
 92
        8
 66
     8
 43
1.0
 76
     1
 77
     6
 78
     2
 67
     7
 79
     5
170
     0
171
     0
290
     0
174
     0
 93
       13
 44
0.0
173
     0
291
     0
 45
0.0
1001
ACAD
1000
AcDbSavedByObjectVersion
1070
     0
  0
VISUALSTYLE
  5
37
102
{ACAD_REACTORS
330
2A
102
}
330
2A
100
AcDbVisualStyle
  2
Thicken
 70
    13
 71
     2
 72
     2
 73
     0
 90
        0
 40
-0.6
 41
-30.0
 62
     5
 63
     7
 74
     1
 91
        4
 64
     7
 65
   257
 75
     1
175
     1
 42
1.0
 92
       12
 66
     7
 43
1.0
 76
     1
 77
     6
 78
     2
 67
     7
 79
     5
170
     0
171
     0
290
     0
174
     0
 93
        1
 44
0.0
173
     0
291
     1
 45
0.0
1001
ACAD
1000
AcDbSavedByObjectVersion
1070
     0
  0
DICTIONARYVAR
  5
268
102
{ACAD_REACTORS
330
263
102
}
330
263
100
DictionaryVariables
280
     0
  1
1:1
  0
DICTIONARYVAR
  5
269
102
{ACAD_REACTORS
330
263
102
}
330
263
100
DictionaryVariables
280
     0
  1
2
  0
DICTIONARYVAR
  5
26A
102
{ACAD_REACTORS
330
263
102
}
330
263
100
DictionaryVariables
280
     0
  1
1
  0
DICTIONARYVAR
  5
267
102
{ACAD_REACTORS
330
263
102
}
330
263
100
DictionaryVariables
280
     0
  1
80.000000
  0
DICTIONARYVAR
  5
266
102
{ACAD_REACTORS
330
263
102
}
330
263
100
DictionaryVariables
280
     0
  1
5.000000
  0
ENDSEC
  0
EOF
