  0
SECTION
  2
HEADER
  9
$ACADVER
  1
AC1015
  9
$ACADMAINTVER
 70
     6
  9
$DWGCODEPAGE
  3
ANSI_1252
  9
$INSBASE
 10
0.0
 20
0.0
 30
0.0
  9
$EXTMIN
 10
0.0
 20
0.0
 30
0.0
  9
$EXTMAX
 10
210.0
 20
297.0
 30
0.0
  9
$LIMMIN
 10
0.0
 20
0.0
  9
$LIMMAX
 10
210.0
 20
297.0
  9
$ORTHOMODE
 70
     0
  9
$REGENMODE
 70
     1
  9
$FILLMODE
 70
     1
  9
$QTEXTMODE
 70
     0
  9
$MIRRTEXT
 70
     1
  9
$LTSCALE
 40
1.0
  9
$ATTMODE
 70
     1
  9
$TEXTSIZE
 40
3.5
  9
$TRACEWID
 40
1.0
  9
$TEXTSTYLE
  7
Standard
  9
$CLAYER
  8
0
  9
$CELTYPE
  6
ByLayer
  9
$CECOLOR
 62
   256
  9
$CELTSCALE
 40
1.0
  9
$DISPSILH
 70
     0
  9
$DIMSCALE
 40
1.0
  9
$DIMASZ
 40
2.3114868164
  9
$DIMEXO
 40
1.0
  9
$DIMDLI
 40
3.75
  9
$DIMRND
 40
0.0
  9
$DIMDLE
 40
0.0
  9
$DIMEXE
 40
1.0
  9
$DIMTP
 40
0.0
  9
$DIMTM
 40
0.0
  9
$DIMTXT
 40
3.175
  9
$DIMCEN
 40
2.5
  9
$DIMTSZ
 40
0.0
  9
$DIMTOL
 70
     0
  9
$DIMLIM
 70
     0
  9
$DIMTIH
 70
     1
  9
$DIMTOH
 70
     1
  9
$DIMSE1
 70
     0
  9
$DIMSE2
 70
     0
  9
$DIMTAD
 70
     1
  9
$DIMZIN
 70
     0
  9
$DIMBLK
  1

  9
$DIMASO
 70
     1
  9
$DIMSHO
 70
     1
  9
$DIMPOST
  1

  9
$DIMAPOST
  1

  9
$DIMALT
 70
     0
  9
$DIMALTD
 70
     3
  9
$DIMALTF
 40
0.0393700787
  9
$DIMLFAC
 40
1.0
  9
$DIMTOFL
 70
     1
  9
$DIMTVP
 40
0.0
  9
$DIMTIX
 70
     0
  9
$DIMSOXD
 70
     0
  9
$DIMSAH
 70
     0
  9
$DIMBLK1
  1

  9
$DIMBLK2
  1

  9
$DIMSTYLE
  2
ISO-25
  9
$DIMCLRD
 70
     0
  9
$DIMCLRE
 70
     0
  9
$DIMCLRT
 70
     0
  9
$DIMTFAC
 40
1.0
  9
$DIMGAP
 40
1.524
  9
$DIMJUST
 70
     0
  9
$DIMSD1
 70
     0
  9
$DIMSD2
 70
     0
  9
$DIMTOLJ
 70
     0
  9
$DIMTZIN
 70
     0
  9
$DIMALTZ
 70
     0
  9
$DIMALTTZ
 70
     0
  9
$DIMUPT
 70
     0
  9
$DIMDEC
 70
     2
  9
$DIMTDEC
 70
     2
  9
$DIMALTU
 70
     2
  9
$DIMALTTD
 70
     3
  9
$DIMTXSTY
  7
Standard
  9
$DIMAUNIT
 70
     0
  9
$DIMADEC
 70
     2
  9
$DIMALTRND
 40
0.0
  9
$DIMAZIN
 70
     0
  9
$DIMDSEP
 70
    44
  9
$DIMATFIT
 70
     3
  9
$DIMFRAC
 70
     0
  9
$DIMLDRBLK
  1

  9
$DIMLUNIT
 70
     2
  9
$DIMLWD
 70
    -2
  9
$DIMLWE
 70
    -2
  9
$DIMTMOVE
 70
     0
  9
$LUNITS
 70
     2
  9
$LUPREC
 70
     2
  9
$SKETCHINC
 40
1.0
  9
$FILLETRAD
 40
10.0
  9
$AUNITS
 70
     0
  9
$AUPREC
 70
     2
  9
$MENU
  1
.
  9
$ELEVATION
 40
0.0
  9
$PELEVATION
 40
0.0
  9
$THICKNESS
 40
0.0
  9
$LIMCHECK
 70
     0
  9
$CHAMFERA
 40
10.0
  9
$CHAMFERB
 40
10.0
  9
$CHAMFERC
 40
20.0
  9
$CHAMFERD
 40
0.0
  9
$SKPOLY
 70
     0
  9
$TDCREATE
 40
2455846.641608044
  9
$TDUCREATE
 40
2455846.412441378
  9
$TDUPDATE
 40
2455846.641608056
  9
$TDUUPDATE
 40
2455846.412441389
  9
$TDINDWG
 40
0.0000000116
  9
$TDUSRTIMER
 40
0.0000000116
  9
$USRTIMER
 70
     1
  9
$ANGBASE
 50
0.0
  9
$ANGDIR
 70
     0
  9
$PDMODE
 70
     0
  9
$PDSIZE
 40
-1.0
  9
$PLINEWID
 40
0.0
  9
$SPLFRAME
 70
     0
  9
$SPLINETYPE
 70
     6
  9
$SPLINESEGS
 70
     8
  9
$HANDSEED
  5
2C3
  9
$SURFTAB1
 70
     6
  9
$SURFTAB2
 70
     6
  9
$SURFTYPE
 70
     6
  9
$SURFU
 70
     6
  9
$SURFV
 70
     6
  9
$UCSBASE
  2

  9
$UCSNAME
  2

  9
$UCSORG
 10
0.0
 20
0.0
 30
0.0
  9
$UCSXDIR
 10
1.0
 20
0.0
 30
0.0
  9
$UCSYDIR
 10
0.0
 20
1.0
 30
0.0
  9
$UCSORTHOREF
  2

  9
$UCSORTHOVIEW
 70
     0
  9
$UCSORGTOP
 10
0.0
 20
0.0
 30
0.0
  9
$UCSORGBOTTOM
 10
0.0
 20
0.0
 30
0.0
  9
$UCSORGLEFT
 10
0.0
 20
0.0
 30
0.0
  9
$UCSORGRIGHT
 10
0.0
 20
0.0
 30
0.0
  9
$UCSORGFRONT
 10
0.0
 20
0.0
 30
0.0
  9
$UCSORGBACK
 10
0.0
 20
0.0
 30
0.0
  9
$PUCSBASE
  2

  9
$PUCSNAME
  2

  9
$PUCSORG
 10
0.0
 20
0.0
 30
0.0
  9
$PUCSXDIR
 10
1.0
 20
0.0
 30
0.0
  9
$PUCSYDIR
 10
0.0
 20
1.0
 30
0.0
  9
$PUCSORTHOREF
  2

  9
$PUCSORTHOVIEW
 70
     0
  9
$PUCSORGTOP
 10
0.0
 20
0.0
 30
0.0
  9
$PUCSORGBOTTOM
 10
0.0
 20
0.0
 30
0.0
  9
$PUCSORGLEFT
 10
0.0
 20
0.0
 30
0.0
  9
$PUCSORGRIGHT
 10
0.0
 20
0.0
 30
0.0
  9
$PUCSORGFRONT
 10
0.0
 20
0.0
 30
0.0
  9
$PUCSORGBACK
 10
0.0
 20
0.0
 30
0.0
  9
$USERI1
 70
     0
  9
$USERI2
 70
     0
  9
$USERI3
 70
     0
  9
$USERI4
 70
     0
  9
$USERI5
 70
     0
  9
$USERR1
 40
0.0
  9
$USERR2
 40
0.0
  9
$USERR3
 40
0.0
  9
$USERR4
 40
0.0
  9
$USERR5
 40
0.0
  9
$WORLDVIEW
 70
     1
  9
$SHADEDGE
 70
     3
  9
$SHADEDIF
 70
    70
  9
$TILEMODE
 70
     1
  9
$MAXACTVP
 70
    64
  9
$PINSBASE
 10
0.0
 20
0.0
 30
0.0
  9
$PLIMCHECK
 70
     0
  9
$PEXTMIN
 10
1.0000000000E+20
 20
1.0000000000E+20
 30
1.0000000000E+20
  9
$PEXTMAX
 10
-1.0000000000E+20
 20
-1.0000000000E+20
 30
-1.0000000000E+20
  9
$PLIMMIN
 10
0.0
 20
0.0
  9
$PLIMMAX
 10
420.0
 20
297.0
  9
$UNITMODE
 70
     0
  9
$VISRETAIN
 70
     1
  9
$PLINEGEN
 70
     0
  9
$PSLTSCALE
 70
     1
  9
$TREEDEPTH
 70
  3020
  9
$CMLSTYLE
  2
Standard
  9
$CMLJUST
 70
     0
  9
$CMLSCALE
 40
20.0
  9
$PROXYGRAPHICS
 70
     1
  9
$MEASUREMENT
 70
     1
  9
$CELWEIGHT
370
    -1
  9
$ENDCAPS
280
     0
  9
$JOINSTYLE
280
     0
  9
$LWDISPLAY
290
     1
  9
$INSUNITS
 70
     4
  9
$HYPERLINKBASE
  1

  9
$STYLESHEET
  1

  9
$XEDIT
290
     1
  9
$CEPSNTYPE
380
     0
  9
$PSTYLEMODE
290
     1
  9
$FINGERPRINTGUID
  2
{7BCF66D7-0BB7-43B8-812F-03E2DBA877E6}
  9
$VERSIONGUID
  2
{FAEB1C32-E019-11D5-929B-00C0DF256EC4}
  9
$EXTNAMES
290
     1
  9
$PSVPSCALE
 40
0.0
  9
$OLESTARTUP
290
     0
  0
ENDSEC
  0
SECTION
  2
CLASSES
  0
CLASS
  1
ACDBDICTIONARYWDFLT
  2
AcDbDictionaryWithDefault
  3
ObjectDBX Classes
 90
        0
280
     0
281
     0
  0
CLASS
  1
VISUALSTYLE
  2
AcDbVisualStyle
  3
ObjectDBX Classes
 90
     4095
280
     0
281
     0
  0
CLASS
  1
SCALE
  2
AcDbScale
  3
ObjectDBX Classes
 90
     1153
280
     0
281
     0
  0
CLASS
  1
DICTIONARYVAR
  2
AcDbDictionaryVar
  3
ObjectDBX Classes
 90
        0
280
     0
281
     0
  0
CLASS
  1
ACDBPLACEHOLDER
  2
AcDbPlaceHolder
  3
ObjectDBX Classes
 90
        0
280
     0
281
     0
  0
CLASS
  1
LAYOUT
  2
AcDbLayout
  3
ObjectDBX Classes
 90
        0
280
     0
281
     0
  0
ENDSEC
  0
SECTION
  2
TABLES
  0
TABLE
  2
VPORT
  5
8
330
0
100
AcDbSymbolTable
 70
     1
  0
VPORT
  5
29
330
8
100
AcDbSymbolTableRecord
100
AcDbViewportTableRecord
  2
*Active
 70
     0
 10
0.0
 20
0.0
 11
1.0
 21
1.0
 12
105.0
 22
148.5
 13
0.0
 23
0.0
 14
10.0
 24
10.0
 15
10.0
 25
10.0
 16
0.0
 26
0.0
 36
1.0
 17
0.0
 27
0.0
 37
0.0
 40
297.0
 41
0.7070707071
 42
50.0
 43
0.0
 44
0.0
 50
0.0
 51
0.0
 71
     0
 72
  2000
 73
     1
 74
     3
 75
     0
 76
     0
 77
     0
 78
     0
281
     0
 65
     1
110
0.0
120
0.0
130
0.0
111
1.0
121
0.0
131
0.0
112
0.0
122
1.0
132
0.0
 79
     0
146
0.0
  0
ENDTAB
  0
TABLE
  2
LTYPE
  5
5
330
0
100
AcDbSymbolTable
 70
     6
  0
LTYPE
  5
14
330
5
100
AcDbSymbolTableRecord
100
AcDbLinetypeTableRecord
  2
ByBlock
 70
     0
  3

 72
    65
 73
     0
 40
0.0
  0
LTYPE
  5
15
330
5
100
AcDbSymbolTableRecord
100
AcDbLinetypeTableRecord
  2
ByLayer
 70
     0
  3

 72
    65
 73
     0
 40
0.0
  0
LTYPE
  5
16
330
5
100
AcDbSymbolTableRecord
100
AcDbLinetypeTableRecord
  2
Continuous
 70
     0
  3
Solid line
 72
    65
 73
     0
 40
0.0
  0
LTYPE
  5
3B
330
5
100
AcDbSymbolTableRecord
100
AcDbLinetypeTableRecord
  2
HIDDEN
 70
     0
  3
Hidden __ __ __ __ __ __ __ __ __ __ __ __ __ __
 72
    65
 73
     2
 40
1.905
 49
1.27
 74
     0
 49
-0.635
 74
     0
  0
LTYPE
  5
3C
330
5
100
AcDbSymbolTableRecord
100
AcDbLinetypeTableRecord
  2
PHANTOM
 70
     0
  3
Phantom ______  __  __  ______  __  __  ______
 72
    65
 73
     6
 40
12.7
 49
6.35
 74
     0
 49
-1.27
 74
     0
 49
1.27
 74
     0
 49
-1.27
 74
     0
 49
1.27
 74
     0
 49
-1.27
 74
     0
  0
LTYPE
  5
3D
330
5
100
AcDbSymbolTableRecord
100
AcDbLinetypeTableRecord
  2
CENTER
 70
     0
  3
Center ____ _ ____ _ ____ _ ____ _ ____ _ ____
 72
    65
 73
     4
 40
10.16
 49
6.35
 74
     0
 49
-1.27
 74
     0
 49
1.27
 74
     0
 49
-1.27
 74
     0
  0
LTYPE
  5
3E
330
5
100
AcDbSymbolTableRecord
100
AcDbLinetypeTableRecord
  2
CENTERX2
 70
     0
  3
Center (2x) ________  __  ________  __  _____
 72
    65
 73
     4
 40
20.32
 49
12.7
 74
     0
 49
-2.54
 74
     0
 49
2.54
 74
     0
 49
-2.54
 74
     0
  0
LTYPE
  5
3F
330
5
100
AcDbSymbolTableRecord
100
AcDbLinetypeTableRecord
  2
DOT2
 70
     0
  3
Dot (.5x) ........................................
 72
    65
 73
     2
 40
0.635
 49
0.0
 74
     0
 49
-0.635
 74
     0
  0
ENDTAB
  0
TABLE
  2
LAYER
  5
2
330
0
100
AcDbSymbolTable
 70
     2
  0
LAYER
  5
10
330
2
100
AcDbSymbolTableRecord
100
AcDbLayerTableRecord
  2
0
 70
     0
 62
     7
  6
Continuous
370
    -3
390
F
  0
LAYER
  5
40
330
2
100
AcDbSymbolTableRecord
100
AcDbLayerTableRecord
  2
FORMAT
 70
     0
 62
     7
  6
Continuous
370
    -3
390
F
  0
ENDTAB
  0
TABLE
  2
STYLE
  5
3
330
0
100
AcDbSymbolTable
 70
     4
  0
STYLE
  5
11
330
3
100
AcDbSymbolTableRecord
100
AcDbTextStyleTableRecord
  2
Standard
 70
     0
 40
0.0
 41
1.0
 50
0.0
 71
     0
 42
2.5
  3
txt
  4

  0
STYLE
  5
64
330
3
100
AcDbSymbolTableRecord
100
AcDbTextStyleTableRecord
  2
SLDTEXTSTYLE0
 70
     0
 40
0.0
 41
0.605
 50
0.0
 71
     0
 42
0.2
  3
TXT
  4

  0
STYLE
  5
89
330
3
100
AcDbSymbolTableRecord
100
AcDbTextStyleTableRecord
  2
SLDTEXTSTYLE1
 70
     0
 40
0.0
 41
0.75
 50
0.0
 71
     0
 42
0.2
  3
TXT
  4

  0
STYLE
  5
8D
330
3
100
AcDbSymbolTableRecord
100
AcDbTextStyleTableRecord
  2
SLDTEXTSTYLE2
 70
     0
 40
0.0
 41
0.6875
 50
0.0
 71
     0
 42
0.2
  3
TXT
  4

  0
ENDTAB
  0
TABLE
  2
VIEW
  5
6
330
0
100
AcDbSymbolTable
 70
     0
  0
ENDTAB
  0
TABLE
  2
UCS
  5
7
330
0
100
AcDbSymbolTable
 70
     0
  0
ENDTAB
  0
TABLE
  2
APPID
  5
9
330
0
100
AcDbSymbolTable
 70
     1
  0
APPID
  5
12
330
9
100
AcDbSymbolTableRecord
100
AcDbRegAppTableRecord
  2
ACAD
 70
     0
  0
ENDTAB
  0
TABLE
  2
DIMSTYLE
  5
A
330
0
100
AcDbSymbolTable
 70
     5
100
AcDbDimStyleTable
  0
DIMSTYLE
105
27
330
A
100
AcDbSymbolTableRecord
100
AcDbDimStyleTableRecord
  2
ISO-25
 70
     0
 41
2.5
 42
0.625
 43
3.75
 44
1.25
 73
     0
 74
     0
 77
     1
 78
     8
140
2.5
141
2.5
143
0.0393700787
147
0.625
171
     3
172
     1
271
     2
272
     2
274
     3
278
    44
283
     0
284
     8
340
11
  0
DIMSTYLE
105
BD
102
{ACAD_REACTORS
330
BC
330
128
330
215
102
}
330
A
100
AcDbSymbolTableRecord
100
AcDbDimStyleTableRecord
  2
SLDDIMSTYLE0
 70
     0
 41
2.3114868164
 44
0.0
 45
0.000000001
 73
     0
 74
     0
 77
     2
 78
    12
140
2.3114868164
147
0.5778717041
173
     1
271
     2
272
     2
284
    12
340
64
  0
DIMSTYLE
105
CC
102
{ACAD_REACTORS
330
CB
330
D6
330
E0
330
11E
330
134
330
13E
330
155
330
16A
330
20B
102
}
330
A
100
AcDbSymbolTableRecord
100
AcDbDimStyleTableRecord
  2
SLDDIMSTYLE1
 70
     0
 41
2.3114868164
 44
0.0
 45
0.000000001
 73
     0
 74
     0
 77
     2
 78
    12
140
2.3114868164
147
0.5778717041
173
     1
271
     2
272
     2
284
    12
340
64
  0
DIMSTYLE
105
EC
102
{ACAD_REACTORS
330
EB
330
176
102
}
330
A
100
AcDbSymbolTableRecord
100
AcDbDimStyleTableRecord
  2
SLDDIMSTYLE2
 70
     0
  3
<>
 41
2.3114868164
 44
0.0
 45
0.000000001
 73
     0
 74
     0
 77
     2
 78
    12
140
2.3114868164
147
0.5778717041
172
     1
173
     1
271
     2
272
     2
284
    12
340
64
  0
DIMSTYLE
105
149
102
{ACAD_REACTORS
330
148
330
15F
102
}
330
A
100
AcDbSymbolTableRecord
100
AcDbDimStyleTableRecord
  2
SLDDIMSTYLE3
 70
     0
 41
2.3114868164
 44
0.0
 45
0.000000001
 73
     0
 74
     0
 77
     2
 78
     4
140
2.3114868164
147
0.5778717041
173
     1
271
     2
272
     2
284
    12
340
64
  0
ENDTAB
  0
TABLE
  2
BLOCK_RECORD
  5
1
330
0
100
AcDbSymbolTable
 70
    24
  0
BLOCK_RECORD
  5
1F
330
1
100
AcDbSymbolTableRecord
100
AcDbBlockTableRecord
  2
*Model_Space
340
22
  0
BLOCK_RECORD
  5
1B
330
1
100
AcDbSymbolTableRecord
100
AcDbBlockTableRecord
  2
*Paper_Space
340
1E
  0
BLOCK_RECORD
  5
23
330
1
100
AcDbSymbolTableRecord
100
AcDbBlockTableRecord
  2
*Paper_Space0
340
26
  0
BLOCK_RECORD
  5
98
330
1
100
AcDbSymbolTableRecord
100
AcDbBlockTableRecord
  2
SW_NOTE_0
340
0
102
{BLKREFS
331
9E
102
}
  0
BLOCK_RECORD
  5
A0
330
1
100
AcDbSymbolTableRecord
100
AcDbBlockTableRecord
  2
SW_NOTE_1
340
0
102
{BLKREFS
331
A9
102
}
  0
BLOCK_RECORD
  5
BE
330
1
100
AcDbSymbolTableRecord
100
AcDbBlockTableRecord
  2
*D3
340
0
  0
BLOCK_RECORD
  5
CD
330
1
100
AcDbSymbolTableRecord
100
AcDbBlockTableRecord
  2
*D4
340
0
  0
BLOCK_RECORD
  5
D7
330
1
100
AcDbSymbolTableRecord
100
AcDbBlockTableRecord
  2
*D5
340
0
  0
BLOCK_RECORD
  5
E1
330
1
100
AcDbSymbolTableRecord
100
AcDbBlockTableRecord
  2
*D6
340
0
  0
BLOCK_RECORD
  5
ED
330
1
100
AcDbSymbolTableRecord
100
AcDbBlockTableRecord
  2
*D7
340
0
  0
BLOCK_RECORD
  5
F6
330
1
100
AcDbSymbolTableRecord
100
AcDbBlockTableRecord
  2
SW_CENTERMARKSYMBOL_0
340
0
102
{BLKREFS
331
101
102
}
  0
BLOCK_RECORD
  5
102
330
1
100
AcDbSymbolTableRecord
100
AcDbBlockTableRecord
  2
SW_CENTERMARKSYMBOL_1
340
0
102
{BLKREFS
331
10D
102
}
  0
BLOCK_RECORD
  5
11F
330
1
100
AcDbSymbolTableRecord
100
AcDbBlockTableRecord
  2
*D10
340
0
  0
BLOCK_RECORD
  5
129
330
1
100
AcDbSymbolTableRecord
100
AcDbBlockTableRecord
  2
*D11
340
0
  0
BLOCK_RECORD
  5
135
330
1
100
AcDbSymbolTableRecord
100
AcDbBlockTableRecord
  2
*D12
340
0
  0
BLOCK_RECORD
  5
13F
330
1
100
AcDbSymbolTableRecord
100
AcDbBlockTableRecord
  2
*D13
340
0
  0
BLOCK_RECORD
  5
14A
330
1
100
AcDbSymbolTableRecord
100
AcDbBlockTableRecord
  2
*D14
340
0
  0
BLOCK_RECORD
  5
156
330
1
100
AcDbSymbolTableRecord
100
AcDbBlockTableRecord
  2
*D15
340
0
  0
BLOCK_RECORD
  5
160
330
1
100
AcDbSymbolTableRecord
100
AcDbBlockTableRecord
  2
*D16
340
0
  0
BLOCK_RECORD
  5
16B
330
1
100
AcDbSymbolTableRecord
100
AcDbBlockTableRecord
  2
*D17
340
0
  0
BLOCK_RECORD
  5
177
330
1
100
AcDbSymbolTableRecord
100
AcDbBlockTableRecord
  2
*D18
340
0
  0
BLOCK_RECORD
  5
180
330
1
100
AcDbSymbolTableRecord
100
AcDbBlockTableRecord
  2
SW_CENTERMARKSYMBOL_2
340
0
102
{BLKREFS
331
18B
102
}
  0
BLOCK_RECORD
  5
18C
330
1
100
AcDbSymbolTableRecord
100
AcDbBlockTableRecord
  2
SW_CENTERMARKSYMBOL_3
340
0
102
{BLKREFS
331
197
102
}
  0
BLOCK_RECORD
  5
198
330
1
100
AcDbSymbolTableRecord
100
AcDbBlockTableRecord
  2
SW_CENTERMARKSYMBOL_4
340
0
102
{BLKREFS
331
1A3
102
}
  0
BLOCK_RECORD
  5
20C
330
1
100
AcDbSymbolTableRecord
100
AcDbBlockTableRecord
  2
*D22
340
0
  0
BLOCK_RECORD
  5
216
330
1
100
AcDbSymbolTableRecord
100
AcDbBlockTableRecord
  2
*D23
340
0
  0
ENDTAB
  0
ENDSEC
  0
SECTION
  2
BLOCKS
  0
BLOCK
  5
20
330
1F
100
AcDbEntity
  8
0
100
AcDbBlockBegin
  2
*Model_Space
 70
     0
 10
0.0
 20
0.0
 30
0.0
  3
*Model_Space
  1

  0
ENDBLK
  5
21
330
1F
100
AcDbEntity
  8
0
100
AcDbBlockEnd
  0
BLOCK
  5
1C
330
1B
100
AcDbEntity
 67
     1
  8
0
100
AcDbBlockBegin
  2
*Paper_Space
 70
     0
 10
0.0
 20
0.0
 30
0.0
  3
*Paper_Space
  1

  0
ENDBLK
  5
1D
330
1B
100
AcDbEntity
 67
     1
  8
0
100
AcDbBlockEnd
  0
BLOCK
  5
24
330
23
100
AcDbEntity
  8
0
100
AcDbBlockBegin
  2
*Paper_Space0
 70
     0
 10
0.0
 20
0.0
 30
0.0
  3
*Paper_Space0
  1

  0
ENDBLK
  5
25
330
23
100
AcDbEntity
  8
0
100
AcDbBlockEnd
  0
BLOCK
  5
99
330
98
100
AcDbEntity
  8
0
100
AcDbBlockBegin
  2
SW_NOTE_0
 70
     0
 10
0.0
 20
0.0
 30
0.0
  3
SW_NOTE_0
  1

  0
MTEXT
  5
9B
330
98
100
AcDbEntity
  8
0
  6
Continuous
 62
     0
370
     0
100
AcDbMText
 10
0.0
 20
1.9336016097
 30
0.0
 40
1.5
 41
0.0
 71
     1
 72
     1
  1
DEBUR AND 
  7
SLDTEXTSTYLE1
 73
     1
 44
1.0
  0
MTEXT
  5
9C
330
98
100
AcDbEntity
  8
0
  6
Continuous
 62
     0
370
     0
100
AcDbMText
 10
0.0
 20
-0.5663983345
 30
0.0
 40
1.5
 41
0.0
 71
     1
 72
     1
  1
BREAK SHARP 
  7
SLDTEXTSTYLE1
 73
     1
 44
1.0
  0
MTEXT
  5
9D
330
98
100
AcDbEntity
  8
0
  6
Continuous
 62
     0
370
     0
100
AcDbMText
 10
0.0
 20
-3.0663982786
 30
0.0
 40
1.5
 41
0.0
 71
     1
 72
     1
  1
EDGES
  7
SLDTEXTSTYLE1
 73
     1
 44
1.0
  0
ENDBLK
  5
9A
330
98
100
AcDbEntity
  8
0
100
AcDbBlockEnd
  0
BLOCK
  5
A1
330
A0
100
AcDbEntity
  8
0
100
AcDbBlockBegin
  2
SW_NOTE_1
 70
     0
 10
0.0
 20
0.0
 30
0.0
  3
SW_NOTE_1
  1

  0
MTEXT
  5
A3
330
A0
100
AcDbEntity
  8
0
  6
Continuous
 62
     0
370
     0
100
AcDbMText
 10
0.0
 20
1.9336016097
 30
0.0
 40
1.5
 41
0.0
 71
     1
 72
     1
  1
UNLESS OTHERWISE SPECIFIED:
  7
SLDTEXTSTYLE1
 73
     1
 44
1.0
  0
MTEXT
  5
A4
330
A0
100
AcDbEntity
  8
0
  6
Continuous
 62
     0
370
     0
100
AcDbMText
 10
0.0
 20
-0.5663983345
 30
0.0
 40
1.5
 41
0.0
 71
     1
 72
     1
  1
DIMENSIONS ARE IN MILLIMETERS
  7
SLDTEXTSTYLE1
 73
     1
 44
1.0
  0
MTEXT
  5
A5
330
A0
100
AcDbEntity
  8
0
  6
Continuous
 62
     0
370
     0
100
AcDbMText
 10
0.0
 20
-3.0663982786
 30
0.0
 40
1.5
 41
0.0
 71
     1
 72
     1
  1
SURFACE FINISH:
  7
SLDTEXTSTYLE1
 73
     1
 44
1.0
  0
MTEXT
  5
A6
330
A0
100
AcDbEntity
  8
0
  6
Continuous
 62
     0
370
     0
100
AcDbMText
 10
0.0
 20
-5.5663982227
 30
0.0
 40
1.5
 41
0.0
 71
     1
 72
     1
  1
TOLERANCES:
  7
SLDTEXTSTYLE1
 73
     1
 44
1.0
  0
MTEXT
  5
A7
330
A0
100
AcDbEntity
  8
0
  6
Continuous
 62
     0
370
     0
100
AcDbMText
 10
0.0
 20
-8.0663981668
 30
0.0
 40
1.5
 41
0.0
 71
     1
 72
     1
  1
   LINEAR:
  7
SLDTEXTSTYLE1
 73
     1
 44
1.0
  0
MTEXT
  5
A8
330
A0
100
AcDbEntity
  8
0
  6
Continuous
 62
     0
370
     0
100
AcDbMText
 10
0.0
 20
-10.5663981109
 30
0.0
 40
1.5
 41
0.0
 71
     1
 72
     1
  1
   ANGULAR:
  7
SLDTEXTSTYLE1
 73
     1
 44
1.0
  0
ENDBLK
  5
A2
330
A0
100
AcDbEntity
  8
0
100
AcDbBlockEnd
  0
BLOCK
  5
BF
330
BE
100
AcDbEntity
  8
0
100
AcDbBlockBegin
  2
*D3
 70
     1
 10
0.0
 20
0.0
 30
0.0
  3
*D3
  1

  0
ARC
  5
C1
330
BE
100
AcDbEntity
  8
0
  6
Continuous
 62
     7
370
     0
100
AcDbCircle
 10
57.3922817997
 20
261.4781656675
 30
0.0
 40
3.966933152765367
100
AcDbArc
 50
153.4349488229
 51
206.5650511771
  0
ARC
  5
C2
330
BE
100
AcDbEntity
  8
0
  6
Continuous
 62
     7
370
     0
100
AcDbCircle
 10
56.9983996079
 20
261.4781656675
 30
0.0
 40
3.966933152765379
100
AcDbArc
 50
333.4349488229
 51
26.5650511771
  0
SOLID
  5
C3
330
BE
100
AcDbEntity
  8
0
  6
Continuous
 62
     7
370
     0
100
AcDbTrace
 10
53.3700586009
 20
259.7040992291
 30
0.0
 11
51.0585717845
 21
260.0597125855
 31
0.0
 12
51.0585717845
 22
259.3484858727
 32
0.0
 13
51.0585717845
 23
259.3484858727
 33
0.0
  0
SOLID
  5
C4
330
BE
100
AcDbEntity
  8
0
  6
Continuous
 62
     7
370
     0
100
AcDbTrace
 10
65.3700586009
 20
259.7040992291
 30
0.0
 11
67.6815454173
 21
259.3484858727
 31
0.0
 12
67.6815454173
 22
260.0597125855
 32
0.0
 13
67.6815454173
 23
260.0597125855
 33
0.0
  0
LINE
  5
C5
330
BE
100
AcDbEntity
  8
0
  6
Continuous
 62
     7
370
     0
100
AcDbLine
 10
53.3700586009
 20
249.4033854284
 30
0.0
 11
53.3700586009
 21
260.7040992291
 31
0.0
  0
LINE
  5
C6
330
BE
100
AcDbEntity
  8
0
  6
Continuous
 62
     7
370
     0
100
AcDbLine
 10
65.3700586009
 20
249.4033854284
 30
0.0
 11
65.3700586009
 21
260.7040992291
 31
0.0
  0
LINE
  5
C7
330
BE
100
AcDbEntity
  8
0
  6
Continuous
 62
     7
370
     0
100
AcDbLine
 10
53.3700586009
 20
259.7040992291
 30
0.0
 11
48.9248916463
 21
259.7040992291
 31
0.0
  0
LINE
  5
C8
330
BE
100
AcDbEntity
  8
0
  6
Continuous
 62
     7
370
     0
100
AcDbLine
 10
53.3700586009
 20
259.7040992291
 30
0.0
 11
65.3700586009
 21
259.7040992291
 31
0.0
  0
LINE
  5
C9
330
BE
100
AcDbEntity
  8
0
  6
Continuous
 62
     7
370
     0
100
AcDbLine
 10
65.3700586009
 20
259.7040992291
 30
0.0
 11
69.8152255556
 21
259.7040992291
 31
0.0
  0
MTEXT
  5
CA
330
BE
100
AcDbEntity
  8
0
  6
Continuous
 62
     7
370
     0
100
AcDbMText
 10
55.431648923
 20
262.7736918426
 30
0.0
 40
2.38125
 41
0.0
 71
     1
 72
     1
  1
12
  7
SLDTEXTSTYLE0
 73
     1
 44
1.0
  0
ENDBLK
  5
C0
330
BE
100
AcDbEntity
  8
0
100
AcDbBlockEnd
  0
BLOCK
  5
CE
330
CD
100
AcDbEntity
  8
0
100
AcDbBlockBegin
  2
*D4
 70
     1
 10
0.0
 20
0.0
 30
0.0
  3
*D4
  1

  0
SOLID
  5
D0
330
CD
100
AcDbEntity
  8
0
  6
Continuous
 62
     7
370
     0
100
AcDbTrace
 10
44.4216046283
 20
248.4033854284
 30
0.0
 11
44.0659912719
 21
246.091898612
 31
0.0
 12
44.7772179847
 22
246.091898612
 32
0.0
 13
44.7772179847
 23
246.091898612
 33
0.0
  0
SOLID
  5
D1
330
CD
100
AcDbEntity
  8
0
  6
Continuous
 62
     7
370
     0
100
AcDbTrace
 10
44.4216046283
 20
238.4033854284
 30
0.0
 11
44.7772179847
 21
240.7148722448
 31
0.0
 12
44.0659912719
 22
240.7148722448
 32
0.0
 13
44.0659912719
 23
240.7148722448
 33
0.0
  0
LINE
  5
D2
330
CD
100
AcDbEntity
  8
0
  6
Continuous
 62
     7
370
     0
100
AcDbLine
 10
52.3700586009
 20
248.4033854284
 30
0.0
 11
43.4216046283
 21
248.4033854284
 31
0.0
  0
LINE
  5
D3
330
CD
100
AcDbEntity
  8
0
  6
Continuous
 62
     7
370
     0
100
AcDbLine
 10
54.9700586009
 20
238.4033854284
 30
0.0
 11
43.4216046283
 21
238.4033854284
 31
0.0
  0
LINE
  5
D4
330
CD
100
AcDbEntity
  8
0
  6
Continuous
 62
     7
370
     0
100
AcDbLine
 10
44.4216046283
 20
248.4033854284
 30
0.0
 11
44.4216046283
 21
238.4033854284
 31
0.0
  0
MTEXT
  5
D5
330
CD
100
AcDbEntity
  8
0
  6
Continuous
 62
     7
370
     0
100
AcDbMText
 10
41.3520120148
 20
241.9683919026
 30
0.0
 40
2.38125
 41
0.0
 71
     1
 72
     1
  1
10
  7
SLDTEXTSTYLE0
 11
-7.044195017643634E-15
 21
1.0
 31
0.0
 73
     1
 44
1.0
  0
ENDBLK
  5
CF
330
CD
100
AcDbEntity
  8
0
100
AcDbBlockEnd
  0
BLOCK
  5
D8
330
D7
100
AcDbEntity
  8
0
100
AcDbBlockBegin
  2
*D5
 70
     1
 10
0.0
 20
0.0
 30
0.0
  3
*D5
  1

  0
SOLID
  5
DA
330
D7
100
AcDbEntity
  8
0
  6
Continuous
 62
     7
370
     0
100
AcDbTrace
 10
35.6567017016
 20
248.4033854284
 30
0.0
 11
35.3010883452
 21
246.091898612
 31
0.0
 12
36.0123150579
 22
246.091898612
 32
0.0
 13
36.0123150579
 23
246.091898612
 33
0.0
  0
SOLID
  5
DB
330
D7
100
AcDbEntity
  8
0
  6
Continuous
 62
     7
370
     0
100
AcDbTrace
 10
35.6567017016
 20
174.5833854284
 30
0.0
 11
36.0123150579
 21
176.8948722448
 31
0.0
 12
35.3010883452
 22
176.8948722448
 32
0.0
 13
35.3010883452
 23
176.8948722448
 33
0.0
  0
LINE
  5
DC
330
D7
100
AcDbEntity
  8
0
  6
Continuous
 62
     7
370
     0
100
AcDbLine
 10
52.3700586009
 20
248.4033854284
 30
0.0
 11
34.6567017016
 21
248.4033854284
 31
0.0
  0
LINE
  5
DD
330
D7
100
AcDbEntity
  8
0
  6
Continuous
 62
     7
370
     0
100
AcDbLine
 10
54.9700586009
 20
174.5833854284
 30
0.0
 11
34.6567017016
 21
174.5833854284
 31
0.0
  0
LINE
  5
DE
330
D7
100
AcDbEntity
  8
0
  6
Continuous
 62
     7
370
     0
100
AcDbLine
 10
35.6567017016
 20
248.4033854284
 30
0.0
 11
35.6567017016
 21
174.5833854284
 31
0.0
  0
MTEXT
  5
DF
330
D7
100
AcDbEntity
  8
0
  6
Continuous
 62
     7
370
     0
100
AcDbMText
 10
32.587109088
 20
205.3364890327
 30
0.0
 40
2.38125
 41
0.0
 71
     1
 72
     1
  1
73.82
  7
SLDTEXTSTYLE0
 11
-7.044195017643634E-15
 21
1.0
 31
0.0
 73
     1
 44
1.0
  0
ENDBLK
  5
D9
330
D7
100
AcDbEntity
  8
0
100
AcDbBlockEnd
  0
BLOCK
  5
E2
330
E1
100
AcDbEntity
  8
0
100
AcDbBlockBegin
  2
*D6
 70
     1
 10
0.0
 20
0.0
 30
0.0
  3
*D6
  1

  0
SOLID
  5
E4
330
E1
100
AcDbEntity
  8
0
  6
Continuous
 62
     7
370
     0
100
AcDbTrace
 10
53.3700586009
 20
253.9812973864
 30
0.0
 11
55.6815454173
 21
253.6256840301
 31
0.0
 12
55.6815454173
 22
254.3369107428
 32
0.0
 13
55.6815454173
 23
254.3369107428
 33
0.0
  0
SOLID
  5
E5
330
E1
100
AcDbEntity
  8
0
  6
Continuous
 62
     7
370
     0
100
AcDbTrace
 10
59.7200586009
 20
253.9812973864
 30
0.0
 11
57.4085717845
 21
254.3369107428
 31
0.0
 12
57.4085717845
 22
253.6256840301
 32
0.0
 13
57.4085717845
 23
253.6256840301
 33
0.0
  0
LINE
  5
E6
330
E1
100
AcDbEntity
  8
0
  6
Continuous
 62
     7
370
     0
100
AcDbLine
 10
53.3700586009
 20
249.4033854284
 30
0.0
 11
53.3700586009
 21
254.9812973864
 31
0.0
  0
LINE
  5
E7
330
E1
100
AcDbEntity
  8
0
  6
Continuous
 62
     7
370
     0
100
AcDbLine
 10
59.7200586009
 20
243.1533854284
 30
0.0
 11
59.7200586009
 21
254.9812973864
 31
0.0
  0
LINE
  5
E8
330
E1
100
AcDbEntity
  8
0
  6
Continuous
 62
     7
370
     0
100
AcDbLine
 10
53.3700586009
 20
253.9812973864
 30
0.0
 11
42.7278386236
 21
253.9812973864
 31
0.0
  0
LINE
  5
E9
330
E1
100
AcDbEntity
  8
0
  6
Continuous
 62
     7
370
     0
100
AcDbLine
 10
53.3700586009
 20
253.9812973864
 30
0.0
 11
59.7200586009
 21
253.9812973864
 31
0.0
  0
MTEXT
  5
EA
330
E1
100
AcDbEntity
  8
0
  6
Continuous
 62
     7
370
     0
100
AcDbMText
 10
44.3153386236
 20
257.05089
 30
0.0
 40
2.38125
 41
0.0
 71
     1
 72
     1
  1
6.35
  7
SLDTEXTSTYLE0
 73
     1
 44
1.0
  0
ENDBLK
  5
E3
330
E1
100
AcDbEntity
  8
0
100
AcDbBlockEnd
  0
BLOCK
  5
EE
330
ED
100
AcDbEntity
  8
0
100
AcDbBlockBegin
  2
*D7
 70
     1
 10
0.0
 20
0.0
 30
0.0
  3
*D7
  1

  0
SOLID
  5
F0
330
ED
100
AcDbEntity
  8
0
  6
Continuous
 62
     7
370
     0
100
AcDbTrace
 10
61.1689473404
 20
238.791613996
 30
0.0
 11
63.4937116628
 21
239.0463746815
 31
0.0
 12
63.3096326441
 22
239.7333669317
 32
0.0
 13
63.3096326441
 23
239.7333669317
 33
0.0
  0
LINE
  5
F1
330
ED
100
AcDbEntity
  8
0
  6
Continuous
 62
     7
370
     0
100
AcDbLine
 10
61.1689473404
 20
238.791613996
 30
0.0
 11
93.4692336989
 21
247.4464496411
 31
0.0
  0
LINE
  5
F2
330
ED
100
AcDbEntity
  8
0
  6
Continuous
 62
     7
370
     0
100
AcDbLine
 10
61.1689473404
 20
238.791613996
 30
0.0
 11
58.2711698615
 21
238.0151568607
 31
0.0
  0
MTEXT
  5
F3
330
ED
100
AcDbEntity
  8
0
  6
Continuous
 62
     7
370
     0
100
AcDbMText
 10
70.8719443065
 20
244.563926712
 30
0.0
 40
2.38125
 41
0.0
 71
     1
 72
     1
  1
M
  7
SLDTEXTSTYLE0
 11
0.9659258262890681
 21
0.2588190451025215
 31
0.0
 73
     1
 44
1.0
  0
MTEXT
  5
F4
330
ED
100
AcDbEntity
  8
0
  6
Continuous
 62
     7
370
     0
100
AcDbMText
 10
73.4253332377
 20
245.248105214
 30
0.0
 40
2.38125
 41
0.0
 71
     1
 72
     1
  1
3
  7
SLDTEXTSTYLE0
 11
0.9659258262890681
 21
0.2588190451025215
 31
0.0
 73
     1
 44
1.0
  0
MTEXT
  5
F5
330
ED
100
AcDbEntity
  8
0
  6
Continuous
 62
     7
370
     0
100
AcDbMText
 10
75.1289286784
 20
245.7045822366
 30
0.0
 40
2.38125
 41
0.0
 71
     1
 72
     1
  1
x0.5, 5deep
  7
SLDTEXTSTYLE0
 11
0.9659258262890681
 21
0.2588190451025215
 31
0.0
 73
     1
 44
1.0
  0
ENDBLK
  5
EF
330
ED
100
AcDbEntity
  8
0
100
AcDbBlockEnd
  0
BLOCK
  5
F7
330
F6
100
AcDbEntity
  8
0
100
AcDbBlockBegin
  2
SW_CENTERMARKSYMBOL_0
 70
     0
 10
0.0
 20
0.0
 30
0.0
  3
SW_CENTERMARKSYMBOL_0
  1

  0
LINE
  5
F9
330
F6
100
AcDbEntity
  8
0
  6
Continuous
 62
     0
370
     0
100
AcDbLine
 10
0.0
 20
0.0
 30
0.0
 11
0.0
 21
2.5
 31
0.0
  0
LINE
  5
FA
330
F6
100
AcDbEntity
  8
0
  6
Continuous
 62
     0
370
     0
100
AcDbLine
 10
0.0
 20
0.0
 30
0.0
 11
-2.5
 21
0.0
 31
0.0
  0
LINE
  5
FB
330
F6
100
AcDbEntity
  8
0
  6
Continuous
 62
     0
370
     0
100
AcDbLine
 10
0.0
 20
0.0
 30
0.0
 11
0.0
 21
-2.5
 31
0.0
  0
LINE
  5
FC
330
F6
100
AcDbEntity
  8
0
  6
Continuous
 62
     0
370
     0
100
AcDbLine
 10
0.0
 20
0.0
 30
0.0
 11
2.5
 21
0.0
 31
0.0
  0
LINE
  5
FD
330
F6
100
AcDbEntity
  8
0
  6
Continuous
 62
     0
370
     0
100
AcDbLine
 10
0.0
 20
2.5
 30
0.0
 11
0.0
 21
3.75
 31
0.0
  0
LINE
  5
FE
330
F6
100
AcDbEntity
  8
0
  6
Continuous
 62
     0
370
     0
100
AcDbLine
 10
-2.5
 20
0.0
 30
0.0
 11
-3.75
 21
0.0
 31
0.0
  0
LINE
  5
FF
330
F6
100
AcDbEntity
  8
0
  6
Continuous
 62
     0
370
     0
100
AcDbLine
 10
0.0
 20
-2.5
 30
0.0
 11
0.0
 21
-3.75
 31
0.0
  0
LINE
  5
100
330
F6
100
AcDbEntity
  8
0
  6
Continuous
 62
     0
370
     0
100
AcDbLine
 10
2.5
 20
0.0
 30
0.0
 11
3.75
 21
0.0
 31
0.0
  0
ENDBLK
  5
F8
330
F6
100
AcDbEntity
  8
0
100
AcDbBlockEnd
  0
BLOCK
  5
103
330
102
100
AcDbEntity
  8
0
100
AcDbBlockBegin
  2
SW_CENTERMARKSYMBOL_1
 70
     0
 10
0.0
 20
0.0
 30
0.0
  3
SW_CENTERMARKSYMBOL_1
  1

  0
LINE
  5
105
330
102
100
AcDbEntity
  8
0
  6
Continuous
 62
     0
370
     0
100
AcDbLine
 10
0.0
 20
0.0
 30
0.0
 11
0.0
 21
2.5
 31
0.0
  0
LINE
  5
106
330
102
100
AcDbEntity
  8
0
  6
Continuous
 62
     0
370
     0
100
AcDbLine
 10
0.0
 20
0.0
 30
0.0
 11
-2.5
 21
0.0
 31
0.0
  0
LINE
  5
107
330
102
100
AcDbEntity
  8
0
  6
Continuous
 62
     0
370
     0
100
AcDbLine
 10
0.0
 20
0.0
 30
0.0
 11
0.0
 21
-2.5
 31
0.0
  0
LINE
  5
108
330
102
100
AcDbEntity
  8
0
  6
Continuous
 62
     0
370
     0
100
AcDbLine
 10
0.0
 20
0.0
 30
0.0
 11
2.5
 21
0.0
 31
0.0
  0
LINE
  5
109
330
102
100
AcDbEntity
  8
0
  6
Continuous
 62
     0
370
     0
100
AcDbLine
 10
0.0
 20
2.5
 30
0.0
 11
0.0
 21
3.75
 31
0.0
  0
LINE
  5
10A
330
102
100
AcDbEntity
  8
0
  6
Continuous
 62
     0
370
     0
100
AcDbLine
 10
-2.5
 20
0.0
 30
0.0
 11
-3.75
 21
0.0
 31
0.0
  0
LINE
  5
10B
330
102
100
AcDbEntity
  8
0
  6
Continuous
 62
     0
370
     0
100
AcDbLine
 10
0.0
 20
-2.5
 30
0.0
 11
0.0
 21
-3.75
 31
0.0
  0
LINE
  5
10C
330
102
100
AcDbEntity
  8
0
  6
Continuous
 62
     0
370
     0
100
AcDbLine
 10
2.5
 20
0.0
 30
0.0
 11
3.75
 21
0.0
 31
0.0
  0
ENDBLK
  5
104
330
102
100
AcDbEntity
  8
0
100
AcDbBlockEnd
  0
BLOCK
  5
120
330
11F
100
AcDbEntity
  8
0
100
AcDbBlockBegin
  2
*D10
 70
     1
 10
0.0
 20
0.0
 30
0.0
  3
*D10
  1

  0
SOLID
  5
122
330
11F
100
AcDbEntity
  8
0
  6
Continuous
 62
     7
370
     0
100
AcDbTrace
 10
190.6770340073
 20
248.4033854284
 30
0.0
 11
190.3214206509
 21
246.091898612
 31
0.0
 12
191.0326473637
 22
246.091898612
 32
0.0
 13
191.0326473637
 23
246.091898612
 33
0.0
  0
SOLID
  5
123
330
11F
100
AcDbEntity
  8
0
  6
Continuous
 62
     7
370
     0
100
AcDbTrace
 10
190.6770340073
 20
164.5833854284
 30
0.0
 11
191.0326473637
 21
166.8948722448
 31
0.0
 12
190.3214206509
 22
166.8948722448
 32
0.0
 13
190.3214206509
 23
166.8948722448
 33
0.0
  0
LINE
  5
124
330
11F
100
AcDbEntity
  8
0
  6
Continuous
 62
     7
370
     0
100
AcDbLine
 10
149.6468081045
 20
248.4033854284
 30
0.0
 11
191.6770340073
 21
248.4033854284
 31
0.0
  0
LINE
  5
125
330
11F
100
AcDbEntity
  8
0
  6
Continuous
 62
     7
370
     0
100
AcDbLine
 10
149.6468081045
 20
164.5833854284
 30
0.0
 11
191.6770340073
 21
164.5833854284
 31
0.0
  0
LINE
  5
126
330
11F
100
AcDbEntity
  8
0
  6
Continuous
 62
     7
370
     0
100
AcDbLine
 10
190.6770340073
 20
248.4033854284
 30
0.0
 11
190.6770340073
 21
164.5833854284
 31
0.0
  0
MTEXT
  5
127
330
11F
100
AcDbEntity
  8
0
  6
Continuous
 62
     7
370
     0
100
AcDbMText
 10
187.6074413938
 20
205.1887831936
 30
0.0
 40
2.38125
 41
0.0
 71
     1
 72
     1
  1
83.82
  7
SLDTEXTSTYLE0
 11
-7.044195017643634E-15
 21
1.0
 31
0.0
 73
     1
 44
1.0
  0
ENDBLK
  5
121
330
11F
100
AcDbEntity
  8
0
100
AcDbBlockEnd
  0
BLOCK
  5
12A
330
129
100
AcDbEntity
  8
0
100
AcDbBlockBegin
  2
*D11
 70
     1
 10
0.0
 20
0.0
 30
0.0
  3
*D11
  1

  0
SOLID
  5
12C
330
129
100
AcDbEntity
  8
0
  6
Continuous
 62
     7
370
     0
100
AcDbTrace
 10
164.6468081045
 20
248.4033854284
 30
0.0
 11
165.0024214609
 21
250.7148722448
 31
0.0
 12
164.2911947482
 22
250.7148722448
 32
0.0
 13
164.2911947482
 23
250.7148722448
 33
0.0
  0
SOLID
  5
12D
330
129
100
AcDbEntity
  8
0
  6
Continuous
 62
     7
370
     0
100
AcDbTrace
 10
164.6468081045
 20
231.2533854284
 30
0.0
 11
164.2911947482
 21
228.941898612
 31
0.0
 12
165.0024214609
 22
228.941898612
 32
0.0
 13
165.0024214609
 23
228.941898612
 33
0.0
  0
LINE
  5
12E
330
129
100
AcDbEntity
  8
0
  6
Continuous
 62
     7
370
     0
100
AcDbLine
 10
149.6468081045
 20
248.4033854284
 30
0.0
 11
165.6468081045
 21
248.4033854284
 31
0.0
  0
LINE
  5
12F
330
129
100
AcDbEntity
  8
0
  6
Continuous
 62
     7
370
     0
100
AcDbLine
 10
137.1968081045
 20
231.2533854284
 30
0.0
 11
165.6468081045
 21
231.2533854284
 31
0.0
  0
LINE
  5
130
330
129
100
AcDbEntity
  8
0
  6
Continuous
 62
     7
370
     0
100
AcDbLine
 10
164.6468081045
 20
248.4033854284
 30
0.0
 11
164.6468081045
 21
252.848552383
 31
0.0
  0
LINE
  5
131
330
129
100
AcDbEntity
  8
0
  6
Continuous
 62
     7
370
     0
100
AcDbLine
 10
164.6468081045
 20
248.4033854284
 30
0.0
 11
164.6468081045
 21
231.2533854284
 31
0.0
  0
LINE
  5
132
330
129
100
AcDbEntity
  8
0
  6
Continuous
 62
     7
370
     0
100
AcDbLine
 10
164.6468081045
 20
231.2533854284
 30
0.0
 11
164.6468081045
 21
226.8082184738
 31
0.0
  0
MTEXT
  5
133
330
129
100
AcDbEntity
  8
0
  6
Continuous
 62
     7
370
     0
100
AcDbMText
 10
161.577215491
 20
235.361756717
 30
0.0
 40
2.38125
 41
0.0
 71
     1
 72
     1
  1
17.15
  7
SLDTEXTSTYLE0
 11
-7.044195017643634E-15
 21
1.0
 31
0.0
 73
     1
 44
1.0
  0
ENDBLK
  5
12B
330
129
100
AcDbEntity
  8
0
100
AcDbBlockEnd
  0
BLOCK
  5
136
330
135
100
AcDbEntity
  8
0
100
AcDbBlockBegin
  2
*D12
 70
     1
 10
0.0
 20
0.0
 30
0.0
  3
*D12
  1

  0
SOLID
  5
138
330
135
100
AcDbEntity
  8
0
  6
Continuous
 62
     7
370
     0
100
AcDbTrace
 10
174.7072599101
 20
212.8433854284
 30
0.0
 11
175.0628732664
 21
215.1548722448
 31
0.0
 12
174.3516465537
 22
215.1548722448
 32
0.0
 13
174.3516465537
 23
215.1548722448
 33
0.0
  0
SOLID
  5
139
330
135
100
AcDbEntity
  8
0
  6
Continuous
 62
     7
370
     0
100
AcDbTrace
 10
174.7072599101
 20
248.4033854284
 30
0.0
 11
174.3516465537
 21
246.091898612
 31
0.0
 12
175.0628732664
 22
246.091898612
 32
0.0
 13
175.0628732664
 23
246.091898612
 33
0.0
  0
LINE
  5
13A
330
135
100
AcDbEntity
  8
0
  6
Continuous
 62
     7
370
     0
100
AcDbLine
 10
137.1968081045
 20
212.8433854284
 30
0.0
 11
175.7072599101
 21
212.8433854284
 31
0.0
  0
LINE
  5
13B
330
135
100
AcDbEntity
  8
0
  6
Continuous
 62
     7
370
     0
100
AcDbLine
 10
149.6468081045
 20
248.4033854284
 30
0.0
 11
175.7072599101
 21
248.4033854284
 31
0.0
  0
LINE
  5
13C
330
135
100
AcDbEntity
  8
0
  6
Continuous
 62
     7
370
     0
100
AcDbLine
 10
174.7072599101
 20
212.8433854284
 30
0.0
 11
174.7072599101
 21
248.4033854284
 31
0.0
  0
MTEXT
  5
13D
330
135
100
AcDbEntity
  8
0
  6
Continuous
 62
     7
370
     0
100
AcDbMText
 10
171.6376672965
 20
220.9471528073
 30
0.0
 40
2.38125
 41
0.0
 71
     1
 72
     1
  1
35.56
  7
SLDTEXTSTYLE0
 11
6.123233995736766E-17
 21
1.0
 31
0.0
 73
     1
 44
1.0
  0
ENDBLK
  5
137
330
135
100
AcDbEntity
  8
0
100
AcDbBlockEnd
  0
BLOCK
  5
140
330
13F
100
AcDbEntity
  8
0
100
AcDbBlockBegin
  2
*D13
 70
     1
 10
0.0
 20
0.0
 30
0.0
  3
*D13
  1

  0
SOLID
  5
142
330
13F
100
AcDbEntity
  8
0
  6
Continuous
 62
     7
370
     0
100
AcDbTrace
 10
182.6468081045
 20
195.0633854284
 30
0.0
 11
183.0024214609
 21
197.3748722448
 31
0.0
 12
182.2911947482
 22
197.3748722448
 32
0.0
 13
182.2911947482
 23
197.3748722448
 33
0.0
  0
SOLID
  5
143
330
13F
100
AcDbEntity
  8
0
  6
Continuous
 62
     7
370
     0
100
AcDbTrace
 10
182.6468081045
 20
248.4033854284
 30
0.0
 11
182.2911947482
 21
246.091898612
 31
0.0
 12
183.0024214609
 22
246.091898612
 32
0.0
 13
183.0024214609
 23
246.091898612
 33
0.0
  0
LINE
  5
144
330
13F
100
AcDbEntity
  8
0
  6
Continuous
 62
     7
370
     0
100
AcDbLine
 10
136.7568081045
 20
195.0633854284
 30
0.0
 11
183.6468081045
 21
195.0633854284
 31
0.0
  0
LINE
  5
145
330
13F
100
AcDbEntity
  8
0
  6
Continuous
 62
     7
370
     0
100
AcDbLine
 10
149.6468081045
 20
248.4033854284
 30
0.0
 11
183.6468081045
 21
248.4033854284
 31
0.0
  0
LINE
  5
146
330
13F
100
AcDbEntity
  8
0
  6
Continuous
 62
     7
370
     0
100
AcDbLine
 10
182.6468081045
 20
195.0633854284
 30
0.0
 11
182.6468081045
 21
248.4033854284
 31
0.0
  0
MTEXT
  5
147
330
13F
100
AcDbEntity
  8
0
  6
Continuous
 62
     7
370
     0
100
AcDbMText
 10
179.577215491
 20
212.4202040156
 30
0.0
 40
2.38125
 41
0.0
 71
     1
 72
     1
  1
53.34
  7
SLDTEXTSTYLE0
 11
6.123233995736766E-17
 21
1.0
 31
0.0
 73
     1
 44
1.0
  0
ENDBLK
  5
141
330
13F
100
AcDbEntity
  8
0
100
AcDbBlockEnd
  0
BLOCK
  5
14B
330
14A
100
AcDbEntity
  8
0
100
AcDbBlockBegin
  2
*D14
 70
     1
 10
0.0
 20
0.0
 30
0.0
  3
*D14
  1

  0
SOLID
  5
14D
330
14A
100
AcDbEntity
  8
0
  6
Continuous
 62
     7
370
     0
100
AcDbTrace
 10
132.4468081045
 20
255.1605777619
 30
0.0
 11
130.1353212881
 21
255.5161911183
 31
0.0
 12
130.1353212881
 22
254.8049644055
 32
0.0
 13
130.1353212881
 23
254.8049644055
 33
0.0
  0
SOLID
  5
14E
330
14A
100
AcDbEntity
  8
0
  6
Continuous
 62
     7
370
     0
100
AcDbTrace
 10
148.6468081045
 20
255.1605777619
 30
0.0
 11
150.9582949209
 21
254.8049644055
 31
0.0
 12
150.9582949209
 22
255.5161911183
 32
0.0
 13
150.9582949209
 23
255.5161911183
 33
0.0
  0
LINE
  5
14F
330
14A
100
AcDbEntity
  8
0
  6
Continuous
 62
     7
370
     0
100
AcDbLine
 10
132.4468081045
 20
236.0033854284
 30
0.0
 11
132.4468081045
 21
256.1605777619
 31
0.0
  0
LINE
  5
150
330
14A
100
AcDbEntity
  8
0
  6
Continuous
 62
     7
370
     0
100
AcDbLine
 10
148.6468081045
 20
249.4033854284
 30
0.0
 11
148.6468081045
 21
256.1605777619
 31
0.0
  0
LINE
  5
151
330
14A
100
AcDbEntity
  8
0
  6
Continuous
 62
     7
370
     0
100
AcDbLine
 10
132.4468081045
 20
255.1605777619
 30
0.0
 11
128.0016411499
 21
255.1605777619
 31
0.0
  0
LINE
  5
152
330
14A
100
AcDbEntity
  8
0
  6
Continuous
 62
     7
370
     0
100
AcDbLine
 10
132.4468081045
 20
255.1605777619
 30
0.0
 11
148.6468081045
 21
255.1605777619
 31
0.0
  0
LINE
  5
153
330
14A
100
AcDbEntity
  8
0
  6
Continuous
 62
     7
370
     0
100
AcDbLine
 10
148.6468081045
 20
255.1605777619
 30
0.0
 11
153.0919750592
 21
255.1605777619
 31
0.0
  0
MTEXT
  5
154
330
14A
100
AcDbEntity
  8
0
  6
Continuous
 62
     7
370
     0
100
AcDbMText
 10
136.8792672386
 20
258.2301703754
 30
0.0
 40
2.38125
 41
0.0
 71
     1
 72
     1
  1
16.20
  7
SLDTEXTSTYLE0
 73
     1
 44
1.0
  0
ENDBLK
  5
14C
330
14A
100
AcDbEntity
  8
0
100
AcDbBlockEnd
  0
BLOCK
  5
157
330
156
100
AcDbEntity
  8
0
100
AcDbBlockBegin
  2
*D15
 70
     1
 10
0.0
 20
0.0
 30
0.0
  3
*D15
  1

  0
SOLID
  5
159
330
156
100
AcDbEntity
  8
0
  6
Continuous
 62
     7
370
     0
100
AcDbTrace
 10
132.0068081045
 20
184.7279770871
 30
0.0
 11
134.3182949209
 21
184.3723637307
 31
0.0
 12
134.3182949209
 22
185.0835904434
 32
0.0
 13
134.3182949209
 23
185.0835904434
 33
0.0
  0
SOLID
  5
15A
330
156
100
AcDbEntity
  8
0
  6
Continuous
 62
     7
370
     0
100
AcDbTrace
 10
148.6468081045
 20
184.7279770871
 30
0.0
 11
146.3353212881
 21
185.0835904434
 31
0.0
 12
146.3353212881
 22
184.3723637307
 32
0.0
 13
146.3353212881
 23
184.3723637307
 33
0.0
  0
LINE
  5
15B
330
156
100
AcDbEntity
  8
0
  6
Continuous
 62
     7
370
     0
100
AcDbLine
 10
132.0068081045
 20
190.3133854284
 30
0.0
 11
132.0068081045
 21
183.7279770871
 31
0.0
  0
LINE
  5
15C
330
156
100
AcDbEntity
  8
0
  6
Continuous
 62
     7
370
     0
100
AcDbLine
 10
132.0068081045
 20
184.7279770871
 30
0.0
 11
148.6468081045
 21
184.7279770871
 31
0.0
  0
LINE
  5
15D
330
156
100
AcDbEntity
  8
0
  6
Continuous
 62
     7
370
     0
100
AcDbLine
 10
148.6468081045
 20
184.7279770871
 30
0.0
 11
163.8809288459
 21
184.7279770871
 31
0.0
  0
MTEXT
  5
15E
330
156
100
AcDbEntity
  8
0
  6
Continuous
 62
     7
370
     0
100
AcDbMText
 10
154.3588907637
 20
187.7975697006
 30
0.0
 40
2.38125
 41
0.0
 71
     1
 72
     1
  1
16.64
  7
SLDTEXTSTYLE0
 73
     1
 44
1.0
  0
ENDBLK
  5
158
330
156
100
AcDbEntity
  8
0
100
AcDbBlockEnd
  0
BLOCK
  5
161
330
160
100
AcDbEntity
  8
0
100
AcDbBlockBegin
  2
*D16
 70
     1
 10
0.0
 20
0.0
 30
0.0
  3
*D16
  1

  0
SOLID
  5
163
330
160
100
AcDbEntity
  8
0
  6
Continuous
 62
     7
370
     0
100
AcDbTrace
 10
132.4468081045
 20
220.1523681807
 30
0.0
 11
130.1353212881
 21
220.5079815371
 31
0.0
 12
130.1353212881
 22
219.7967548244
 32
0.0
 13
130.1353212881
 23
219.7967548244
 33
0.0
  0
SOLID
  5
164
330
160
100
AcDbEntity
  8
0
  6
Continuous
 62
     7
370
     0
100
AcDbTrace
 10
148.6468081045
 20
220.1523681807
 30
0.0
 11
150.9582949209
 21
219.7967548244
 31
0.0
 12
150.9582949209
 22
220.5079815371
 32
0.0
 13
150.9582949209
 23
220.5079815371
 33
0.0
  0
LINE
  5
165
330
160
100
AcDbEntity
  8
0
  6
Continuous
 62
     7
370
     0
100
AcDbLine
 10
132.4468081045
 20
217.5933854284
 30
0.0
 11
132.4468081045
 21
221.1523681807
 31
0.0
  0
LINE
  5
166
330
160
100
AcDbEntity
  8
0
  6
Continuous
 62
     7
370
     0
100
AcDbLine
 10
132.4468081045
 20
220.1523681807
 30
0.0
 11
128.0016411499
 21
220.1523681807
 31
0.0
  0
LINE
  5
167
330
160
100
AcDbEntity
  8
0
  6
Continuous
 62
     7
370
     0
100
AcDbLine
 10
132.4468081045
 20
220.1523681807
 30
0.0
 11
148.6468081045
 21
220.1523681807
 31
0.0
  0
LINE
  5
168
330
160
100
AcDbEntity
  8
0
  6
Continuous
 62
     7
370
     0
100
AcDbLine
 10
148.6468081045
 20
220.1523681807
 30
0.0
 11
153.0919750592
 21
220.1523681807
 31
0.0
  0
MTEXT
  5
169
330
160
100
AcDbEntity
  8
0
  6
Continuous
 62
     7
370
     0
100
AcDbMText
 10
138.2609286569
 20
223.2219607943
 30
0.0
 40
2.38125
 41
0.0
 71
     1
 72
     1
  1
16.20
  7
SLDTEXTSTYLE0
 73
     1
 44
1.0
  0
ENDBLK
  5
162
330
160
100
AcDbEntity
  8
0
100
AcDbBlockEnd
  0
BLOCK
  5
16C
330
16B
100
AcDbEntity
  8
0
100
AcDbBlockBegin
  2
*D17
 70
     1
 10
0.0
 20
0.0
 30
0.0
  3
*D17
  1

  0
ARC
  5
16E
330
16B
100
AcDbEntity
  8
0
  6
Continuous
 62
     7
370
     0
100
AcDbCircle
 10
132.5742547241
 20
264.4349430273
 30
0.0
 40
3.966933152765335
100
AcDbArc
 50
153.4349488229
 51
206.5650511771
  0
ARC
  5
16F
330
16B
100
AcDbEntity
  8
0
  6
Continuous
 62
     7
370
     0
100
AcDbCircle
 10
132.1803725323
 20
264.4349430273
 30
0.0
 40
3.96693315276536
100
AcDbArc
 50
333.4349488229
 51
26.5650511771
  0
SOLID
  5
170
330
16B
100
AcDbEntity
  8
0
  6
Continuous
 62
     7
370
     0
100
AcDbTrace
 10
110.6468081045
 20
262.6608765889
 30
0.0
 11
112.9582949209
 21
262.3052632326
 31
0.0
 12
112.9582949209
 22
263.0164899453
 32
0.0
 13
112.9582949209
 23
263.0164899453
 33
0.0
  0
SOLID
  5
171
330
16B
100
AcDbEntity
  8
0
  6
Continuous
 62
     7
370
     0
100
AcDbTrace
 10
148.6468081045
 20
262.6608765889
 30
0.0
 11
146.3353212881
 21
263.0164899453
 31
0.0
 12
146.3353212881
 22
262.3052632326
 32
0.0
 13
146.3353212881
 23
262.3052632326
 33
0.0
  0
LINE
  5
172
330
16B
100
AcDbEntity
  8
0
  6
Continuous
 62
     7
370
     0
100
AcDbLine
 10
110.6468081045
 20
249.4033854284
 30
0.0
 11
110.6468081045
 21
263.6608765889
 31
0.0
  0
LINE
  5
173
330
16B
100
AcDbEntity
  8
0
  6
Continuous
 62
     7
370
     0
100
AcDbLine
 10
148.6468081045
 20
249.4033854284
 30
0.0
 11
148.6468081045
 21
263.6608765889
 31
0.0
  0
LINE
  5
174
330
16B
100
AcDbEntity
  8
0
  6
Continuous
 62
     7
370
     0
100
AcDbLine
 10
110.6468081045
 20
262.6608765889
 30
0.0
 11
148.6468081045
 21
262.6608765889
 31
0.0
  0
MTEXT
  5
175
330
16B
100
AcDbEntity
  8
0
  6
Continuous
 62
     7
370
     0
100
AcDbMText
 10
130.6136218474
 20
265.7304692025
 30
0.0
 40
2.38125
 41
0.0
 71
     1
 72
     1
  1
38
  7
SLDTEXTSTYLE0
 73
     1
 44
1.0
  0
ENDBLK
  5
16D
330
16B
100
AcDbEntity
  8
0
100
AcDbBlockEnd
  0
BLOCK
  5
178
330
177
100
AcDbEntity
  8
0
100
AcDbBlockBegin
  2
*D18
 70
     1
 10
0.0
 20
0.0
 30
0.0
  3
*D18
  1

  0
SOLID
  5
17A
330
177
100
AcDbEntity
  8
0
  6
Continuous
 62
     7
370
     0
100
AcDbTrace
 10
131.0311918225
 20
230.7573707693
 30
0.0
 11
128.7321466153
 21
230.3286245774
 31
0.0
 12
128.9673325323
 22
229.6574085009
 32
0.0
 13
128.9673325323
 23
229.6574085009
 33
0.0
  0
LINE
  5
17B
330
177
100
AcDbEntity
  8
0
  6
Continuous
 62
     7
370
     0
100
AcDbLine
 10
131.0311918225
 20
230.7573707693
 30
0.0
 11
86.6211062124
 21
215.1966190642
 31
0.0
  0
LINE
  5
17C
330
177
100
AcDbEntity
  8
0
  6
Continuous
 62
     7
370
     0
100
AcDbLine
 10
131.0311918225
 20
230.7573707693
 30
0.0
 11
133.8624243866
 21
231.7494000875
 31
0.0
  0
MTEXT
  5
17D
330
177
100
AcDbEntity
  8
0
  6
Continuous
 62
     7
370
     0
100
AcDbMText
 10
87.1049660191
 20
218.6164578701
 30
0.0
 40
2.38125
 41
0.0
 71
     1
 72
     1
  1
M
  7
SLDTEXTSTYLE0
 11
0.9437441880229717
 21
0.3306764393978832
 31
0.0
 73
     1
 44
1.0
  0
MTEXT
  5
17E
330
177
100
AcDbEntity
  8
0
  6
Continuous
 62
     7
370
     0
100
AcDbMText
 10
89.5997186159
 20
219.4905887166
 30
0.0
 40
2.38125
 41
0.0
 71
     1
 72
     1
  1
3
  7
SLDTEXTSTYLE0
 11
0.9437441880229717
 21
0.3306764393978832
 31
0.0
 73
     1
 44
1.0
  0
MTEXT
  5
17F
330
177
100
AcDbEntity
  8
0
  6
Continuous
 62
     7
370
     0
100
AcDbMText
 10
91.2641924836
 20
220.0738000349
 30
0.0
 40
2.38125
 41
0.0
 71
     1
 72
     1
  1
x0.5, 5 deep
  7
SLDTEXTSTYLE0
 11
0.9437441880229717
 21
0.3306764393978832
 31
0.0
 73
     1
 44
1.0
  0
ENDBLK
  5
179
330
177
100
AcDbEntity
  8
0
100
AcDbBlockEnd
  0
BLOCK
  5
181
330
180
100
AcDbEntity
  8
0
100
AcDbBlockBegin
  2
SW_CENTERMARKSYMBOL_2
 70
     0
 10
0.0
 20
0.0
 30
0.0
  3
SW_CENTERMARKSYMBOL_2
  1

  0
LINE
  5
183
330
180
100
AcDbEntity
  8
0
  6
Continuous
 62
     0
370
     0
100
AcDbLine
 10
0.0
 20
0.0
 30
0.0
 11
0.0
 21
2.5
 31
0.0
  0
LINE
  5
184
330
180
100
AcDbEntity
  8
0
  6
Continuous
 62
     0
370
     0
100
AcDbLine
 10
0.0
 20
0.0
 30
0.0
 11
-2.5
 21
0.0
 31
0.0
  0
LINE
  5
185
330
180
100
AcDbEntity
  8
0
  6
Continuous
 62
     0
370
     0
100
AcDbLine
 10
0.0
 20
0.0
 30
0.0
 11
0.0
 21
-2.5
 31
0.0
  0
LINE
  5
186
330
180
100
AcDbEntity
  8
0
  6
Continuous
 62
     0
370
     0
100
AcDbLine
 10
0.0
 20
0.0
 30
0.0
 11
2.5
 21
0.0
 31
0.0
  0
LINE
  5
187
330
180
100
AcDbEntity
  8
0
  6
Continuous
 62
     0
370
     0
100
AcDbLine
 10
0.0
 20
2.5
 30
0.0
 11
0.0
 21
3.75
 31
0.0
  0
LINE
  5
188
330
180
100
AcDbEntity
  8
0
  6
Continuous
 62
     0
370
     0
100
AcDbLine
 10
-2.5
 20
0.0
 30
0.0
 11
-3.75
 21
0.0
 31
0.0
  0
LINE
  5
189
330
180
100
AcDbEntity
  8
0
  6
Continuous
 62
     0
370
     0
100
AcDbLine
 10
0.0
 20
-2.5
 30
0.0
 11
0.0
 21
-3.75
 31
0.0
  0
LINE
  5
18A
330
180
100
AcDbEntity
  8
0
  6
Continuous
 62
     0
370
     0
100
AcDbLine
 10
2.5
 20
0.0
 30
0.0
 11
3.75
 21
0.0
 31
0.0
  0
ENDBLK
  5
182
330
180
100
AcDbEntity
  8
0
100
AcDbBlockEnd
  0
BLOCK
  5
18D
330
18C
100
AcDbEntity
  8
0
100
AcDbBlockBegin
  2
SW_CENTERMARKSYMBOL_3
 70
     0
 10
0.0
 20
0.0
 30
0.0
  3
SW_CENTERMARKSYMBOL_3
  1

  0
LINE
  5
18F
330
18C
100
AcDbEntity
  8
0
  6
Continuous
 62
     0
370
     0
100
AcDbLine
 10
0.0
 20
0.0
 30
0.0
 11
0.0
 21
2.5
 31
0.0
  0
LINE
  5
190
330
18C
100
AcDbEntity
  8
0
  6
Continuous
 62
     0
370
     0
100
AcDbLine
 10
0.0
 20
0.0
 30
0.0
 11
-2.5
 21
0.0
 31
0.0
  0
LINE
  5
191
330
18C
100
AcDbEntity
  8
0
  6
Continuous
 62
     0
370
     0
100
AcDbLine
 10
0.0
 20
0.0
 30
0.0
 11
0.0
 21
-2.5
 31
0.0
  0
LINE
  5
192
330
18C
100
AcDbEntity
  8
0
  6
Continuous
 62
     0
370
     0
100
AcDbLine
 10
0.0
 20
0.0
 30
0.0
 11
2.5
 21
0.0
 31
0.0
  0
LINE
  5
193
330
18C
100
AcDbEntity
  8
0
  6
Continuous
 62
     0
370
     0
100
AcDbLine
 10
0.0
 20
2.5
 30
0.0
 11
0.0
 21
3.75
 31
0.0
  0
LINE
  5
194
330
18C
100
AcDbEntity
  8
0
  6
Continuous
 62
     0
370
     0
100
AcDbLine
 10
-2.5
 20
0.0
 30
0.0
 11
-3.75
 21
0.0
 31
0.0
  0
LINE
  5
195
330
18C
100
AcDbEntity
  8
0
  6
Continuous
 62
     0
370
     0
100
AcDbLine
 10
0.0
 20
-2.5
 30
0.0
 11
0.0
 21
-3.75
 31
0.0
  0
LINE
  5
196
330
18C
100
AcDbEntity
  8
0
  6
Continuous
 62
     0
370
     0
100
AcDbLine
 10
2.5
 20
0.0
 30
0.0
 11
3.75
 21
0.0
 31
0.0
  0
ENDBLK
  5
18E
330
18C
100
AcDbEntity
  8
0
100
AcDbBlockEnd
  0
BLOCK
  5
199
330
198
100
AcDbEntity
  8
0
100
AcDbBlockBegin
  2
SW_CENTERMARKSYMBOL_4
 70
     0
 10
0.0
 20
0.0
 30
0.0
  3
SW_CENTERMARKSYMBOL_4
  1

  0
LINE
  5
19B
330
198
100
AcDbEntity
  8
0
  6
Continuous
 62
     0
370
     0
100
AcDbLine
 10
0.0
 20
0.0
 30
0.0
 11
0.0
 21
2.5
 31
0.0
  0
LINE
  5
19C
330
198
100
AcDbEntity
  8
0
  6
Continuous
 62
     0
370
     0
100
AcDbLine
 10
0.0
 20
0.0
 30
0.0
 11
-2.5
 21
0.0
 31
0.0
  0
LINE
  5
19D
330
198
100
AcDbEntity
  8
0
  6
Continuous
 62
     0
370
     0
100
AcDbLine
 10
0.0
 20
0.0
 30
0.0
 11
0.0
 21
-2.5
 31
0.0
  0
LINE
  5
19E
330
198
100
AcDbEntity
  8
0
  6
Continuous
 62
     0
370
     0
100
AcDbLine
 10
0.0
 20
0.0
 30
0.0
 11
2.5
 21
0.0
 31
0.0
  0
LINE
  5
19F
330
198
100
AcDbEntity
  8
0
  6
Continuous
 62
     0
370
     0
100
AcDbLine
 10
0.0
 20
2.5
 30
0.0
 11
0.0
 21
3.75
 31
0.0
  0
LINE
  5
1A0
330
198
100
AcDbEntity
  8
0
  6
Continuous
 62
     0
370
     0
100
AcDbLine
 10
-2.5
 20
0.0
 30
0.0
 11
-3.75
 21
0.0
 31
0.0
  0
LINE
  5
1A1
330
198
100
AcDbEntity
  8
0
  6
Continuous
 62
     0
370
     0
100
AcDbLine
 10
0.0
 20
-2.5
 30
0.0
 11
0.0
 21
-3.75
 31
0.0
  0
LINE
  5
1A2
330
198
100
AcDbEntity
  8
0
  6
Continuous
 62
     0
370
     0
100
AcDbLine
 10
2.5
 20
0.0
 30
0.0
 11
3.75
 21
0.0
 31
0.0
  0
ENDBLK
  5
19A
330
198
100
AcDbEntity
  8
0
100
AcDbBlockEnd
  0
BLOCK
  5
20D
330
20C
100
AcDbEntity
  8
0
100
AcDbBlockBegin
  2
*D22
 70
     1
 10
0.0
 20
0.0
 30
0.0
  3
*D22
  1

  0
SOLID
  5
20F
330
20C
100
AcDbEntity
  8
0
  6
Continuous
 62
     7
370
     0
100
AcDbTrace
 10
110.6468081045
 20
92.0042402324
 30
0.0
 11
112.9582949209
 21
91.648626876
 31
0.0
 12
112.9582949209
 22
92.3598535888
 32
0.0
 13
112.9582949209
 23
92.3598535888
 33
0.0
  0
SOLID
  5
210
330
20C
100
AcDbEntity
  8
0
  6
Continuous
 62
     7
370
     0
100
AcDbTrace
 10
148.6468081045
 20
92.0042402324
 30
0.0
 11
146.3353212881
 21
92.3598535888
 31
0.0
 12
146.3353212881
 22
91.648626876
 32
0.0
 13
146.3353212881
 23
91.648626876
 33
0.0
  0
LINE
  5
211
330
20C
100
AcDbEntity
  8
0
  6
Continuous
 62
     7
370
     0
100
AcDbLine
 10
110.6468081045
 20
101.0042402324
 30
0.0
 11
110.6468081045
 21
91.0042402324
 31
0.0
  0
LINE
  5
212
330
20C
100
AcDbEntity
  8
0
  6
Continuous
 62
     7
370
     0
100
AcDbLine
 10
148.6468081045
 20
101.0042402324
 30
0.0
 11
148.6468081045
 21
91.0042402324
 31
0.0
  0
LINE
  5
213
330
20C
100
AcDbEntity
  8
0
  6
Continuous
 62
     7
370
     0
100
AcDbLine
 10
110.6468081045
 20
92.0042402324
 30
0.0
 11
148.6468081045
 21
92.0042402324
 31
0.0
  0
MTEXT
  5
214
330
20C
100
AcDbEntity
  8
0
  6
Continuous
 62
     7
370
     0
100
AcDbMText
 10
129.9674185752
 20
95.0738328459
 30
0.0
 40
2.38125
 41
0.0
 71
     1
 72
     1
  1
38
  7
SLDTEXTSTYLE0
 73
     1
 44
1.0
  0
ENDBLK
  5
20E
330
20C
100
AcDbEntity
  8
0
100
AcDbBlockEnd
  0
BLOCK
  5
217
330
216
100
AcDbEntity
  8
0
100
AcDbBlockBegin
  2
*D23
 70
     1
 10
0.0
 20
0.0
 30
0.0
  3
*D23
  1

  0
SOLID
  5
219
330
216
100
AcDbEntity
  8
0
  6
Continuous
 62
     7
370
     0
100
AcDbTrace
 10
158.6468081045
 20
102.0042402324
 30
0.0
 11
158.2911947482
 21
99.692753416
 31
0.0
 12
159.0024214609
 22
99.692753416
 32
0.0
 13
159.0024214609
 23
99.692753416
 33
0.0
  0
SOLID
  5
21A
330
216
100
AcDbEntity
  8
0
  6
Continuous
 62
     7
370
     0
100
AcDbTrace
 10
158.6468081045
 20
114.0042402324
 30
0.0
 11
159.0024214609
 21
116.3157270488
 31
0.0
 12
158.2911947482
 22
116.3157270488
 32
0.0
 13
158.2911947482
 23
116.3157270488
 33
0.0
  0
LINE
  5
21B
330
216
100
AcDbEntity
  8
0
  6
Continuous
 62
     7
370
     0
100
AcDbLine
 10
149.6468081045
 20
102.0042402324
 30
0.0
 11
159.6468081045
 21
102.0042402324
 31
0.0
  0
LINE
  5
21C
330
216
100
AcDbEntity
  8
0
  6
Continuous
 62
     7
370
     0
100
AcDbLine
 10
149.0970101267
 20
114.0042402324
 30
0.0
 11
159.6468081045
 21
114.0042402324
 31
0.0
  0
LINE
  5
21D
330
216
100
AcDbEntity
  8
0
  6
Continuous
 62
     7
370
     0
100
AcDbLine
 10
158.6468081045
 20
102.0042402324
 30
0.0
 11
158.6468081045
 21
97.5590732778
 31
0.0
  0
LINE
  5
21E
330
216
100
AcDbEntity
  8
0
  6
Continuous
 62
     7
370
     0
100
AcDbLine
 10
158.6468081045
 20
102.0042402324
 30
0.0
 11
158.6468081045
 21
114.0042402324
 31
0.0
  0
LINE
  5
21F
330
216
100
AcDbEntity
  8
0
  6
Continuous
 62
     7
370
     0
100
AcDbLine
 10
158.6468081045
 20
114.0042402324
 30
0.0
 11
158.6468081045
 21
118.449407187
 31
0.0
  0
MTEXT
  5
220
330
216
100
AcDbEntity
  8
0
  6
Continuous
 62
     7
370
     0
100
AcDbMText
 10
155.577215491
 20
106.8654184526
 30
0.0
 40
2.38125
 41
0.0
 71
     1
 72
     1
  1
12
  7
SLDTEXTSTYLE0
 11
6.123233995736766E-17
 21
1.0
 31
0.0
 73
     1
 44
1.0
  0
ENDBLK
  5
218
330
216
100
AcDbEntity
  8
0
100
AcDbBlockEnd
  0
ENDSEC
  0
SECTION
  2
ENTITIES
  0
LINE
  5
41
330
1F
100
AcDbEntity
  8
0
  6
Continuous
 62
     7
370
    40
100
AcDbLine
 10
10.0788435654
 20
5.2147801566
 30
0.0
 11
205.0788435654
 21
5.2147801566
 31
0.0
  0
LINE
  5
42
330
1F
100
AcDbEntity
  8
0
  6
Continuous
 62
     7
370
    40
100
AcDbLine
 10
0.0788435654
 20
0.2147801566
 30
0.0
 11
210.0788435654
 21
0.2147801566
 31
0.0
  0
LINE
  5
43
330
1F
100
AcDbEntity
  8
0
  6
Continuous
 62
     7
370
    40
100
AcDbLine
 10
0.0788435654
 20
0.2147801566
 30
0.0
 11
0.0788435654
 21
297.2147801566
 31
0.0
  0
LINE
  5
44
330
1F
100
AcDbEntity
  8
0
  6
Continuous
 62
     7
370
    40
100
AcDbLine
 10
0.0788435654
 20
297.2147801566
 30
0.0
 11
210.0788435654
 21
297.2147801566
 31
0.0
  0
LINE
  5
45
330
1F
100
AcDbEntity
  8
0
  6
Continuous
 62
     7
370
    40
100
AcDbLine
 10
210.0788435654
 20
0.2147801566
 30
0.0
 11
210.0788435654
 21
297.2147801566
 31
0.0
  0
LINE
  5
46
330
1F
100
AcDbEntity
  8
0
  6
Continuous
 62
     7
370
    40
100
AcDbLine
 10
10.0788435654
 20
292.2147801566
 30
0.0
 11
205.0788435654
 21
292.2147801566
 31
0.0
  0
LINE
  5
47
330
1F
100
AcDbEntity
  8
0
  6
Continuous
 62
     7
370
    40
100
AcDbLine
 10
205.0788435654
 20
5.2147801566
 30
0.0
 11
180.9883118484
 21
5.2147801566
 31
0.0
  0
LINE
  5
48
330
1F
100
AcDbEntity
  8
0
  6
Continuous
 62
     7
370
    40
100
AcDbLine
 10
10.0788435654
 20
5.2147801566
 30
0.0
 11
10.0788435654
 21
292.2147801566
 31
0.0
  0
LINE
  5
49
330
1F
100
AcDbEntity
  8
0
  6
Continuous
 62
     7
370
    40
100
AcDbLine
 10
10.1108209117
 20
9.3709272577
 30
0.0
 11
205.0788435654
 21
9.3709272577
 31
0.0
  0
LINE
  5
4A
330
1F
100
AcDbEntity
  8
0
  6
Continuous
 62
     7
370
    40
100
AcDbLine
 10
205.0788435654
 20
43.3709272577
 30
0.0
 11
10.1108209117
 21
43.3709272577
 31
0.0
  0
LINE
  5
4B
330
1F
100
AcDbEntity
  8
0
  6
Continuous
 62
     7
370
    40
100
AcDbLine
 10
10.1108209117
 20
60.3709272577
 30
0.0
 11
205.0788435654
 21
60.3709272577
 31
0.0
  0
LINE
  5
4C
330
1F
100
AcDbEntity
  8
0
  6
Continuous
 62
     7
370
    40
100
AcDbLine
 10
210.0788435654
 20
292.2147801566
 30
0.0
 11
210.0788435654
 21
297.2147801566
 31
0.0
  0
LINE
  5
4D
330
1F
100
AcDbEntity
  8
0
  6
Continuous
 62
     7
370
    40
100
AcDbLine
 10
37.1017733454
 20
43.3709272577
 30
0.0
 11
37.1017733454
 21
5.1209272577
 31
0.0
  0
LINE
  5
4E
330
1F
100
AcDbEntity
  8
0
  6
Continuous
 62
     7
370
    40
100
AcDbLine
 10
108.9108209117
 20
26.3709272577
 30
0.0
 11
10.1108209117
 21
26.3709272577
 31
0.0
  0
LINE
  5
4F
330
1F
100
AcDbEntity
  8
0
  6
Continuous
 62
     7
370
    40
100
AcDbLine
 10
108.9108209117
 20
30.6209272577
 30
0.0
 11
10.1108209117
 21
30.6209272577
 31
0.0
  0
LINE
  5
50
330
1F
100
AcDbEntity
  8
0
  6
Continuous
 62
     7
370
    40
100
AcDbLine
 10
108.9108209117
 20
34.8709272577
 30
0.0
 11
10.1108209117
 21
34.8709272577
 31
0.0
  0
LINE
  5
51
330
1F
100
AcDbEntity
  8
0
  6
Continuous
 62
     7
370
    40
100
AcDbLine
 10
108.9108209117
 20
39.1209272577
 30
0.0
 11
10.1108209117
 21
39.1209272577
 31
0.0
  0
LINE
  5
52
330
1F
100
AcDbEntity
  8
0
  6
Continuous
 62
     7
370
    40
100
AcDbLine
 10
64.7108209117
 20
5.1209272577
 30
0.0
 11
64.7108209117
 21
43.3709272577
 31
0.0
  0
LINE
  5
53
330
1F
100
AcDbEntity
  8
0
  6
Continuous
 62
     7
370
    40
100
AcDbLine
 10
10.1108209117
 20
60.3709272577
 30
0.0
 11
10.1108209117
 21
5.1209272577
 31
0.0
  0
LINE
  5
54
330
1F
100
AcDbEntity
  8
0
  6
Continuous
 62
     7
370
    40
100
AcDbLine
 10
17.9108209117
 20
43.3709272577
 30
0.0
 11
17.9108209117
 21
5.1209272577
 31
0.0
  0
LINE
  5
55
330
1F
100
AcDbEntity
  8
0
  6
Continuous
 62
     7
370
    40
100
AcDbLine
 10
43.9108209117
 20
43.3709272577
 30
0.0
 11
43.9108209117
 21
60.3709272577
 31
0.0
  0
LINE
  5
56
330
1F
100
AcDbEntity
  8
0
  6
Continuous
 62
     7
370
    40
100
AcDbLine
 10
54.5097470752
 20
43.3709272577
 30
0.0
 11
54.5097470752
 21
5.1209272577
 31
0.0
  0
LINE
  5
57
330
1F
100
AcDbEntity
  8
0
  6
Continuous
 62
     7
370
    40
100
AcDbLine
 10
75.1108209117
 20
26.3709272577
 30
0.0
 11
75.1108209117
 21
43.3709272577
 31
0.0
  0
LINE
  5
58
330
1F
100
AcDbEntity
  8
0
  6
Continuous
 62
     7
370
    40
100
AcDbLine
 10
64.7108209117
 20
13.6209272577
 30
0.0
 11
10.1108209117
 21
13.6209272577
 31
0.0
  0
LINE
  5
59
330
1F
100
AcDbEntity
  8
0
  6
Continuous
 62
     7
370
    40
100
AcDbLine
 10
90.7108209117
 20
60.3709272577
 30
0.0
 11
90.7108209117
 21
22.1209272577
 31
0.0
  0
LINE
  5
5A
330
1F
100
AcDbEntity
  8
0
  6
Continuous
 62
     7
370
    40
100
AcDbLine
 10
64.7108209117
 20
17.8708552577
 30
0.0
 11
10.1108209117
 21
17.8708552577
 31
0.0
  0
LINE
  5
5B
330
1F
100
AcDbEntity
  8
0
  6
Continuous
 62
     7
370
    40
100
AcDbLine
 10
64.7108209117
 20
22.1209272577
 30
0.0
 11
10.1108209117
 21
22.1209272577
 31
0.0
  0
LINE
  5
5C
330
1F
100
AcDbEntity
  8
0
  6
Continuous
 62
     7
370
    40
100
AcDbLine
 10
64.7108209117
 20
22.1209272577
 30
0.0
 11
205.0788435654
 21
22.1209272577
 31
0.0
  0
LINE
  5
5D
330
1F
100
AcDbEntity
  8
0
  6
Continuous
 62
     7
370
    40
100
AcDbLine
 10
108.9108209117
 20
60.3709272577
 30
0.0
 11
108.9108209117
 21
5.1209272577
 31
0.0
  0
LINE
  5
5E
330
1F
100
AcDbEntity
  8
0
  6
Continuous
 62
     7
370
    40
100
AcDbLine
 10
160.8788435654
 20
5.2147801566
 30
0.0
 11
160.8788435654
 21
9.4647801566
 31
0.0
  0
LINE
  5
5F
330
1F
100
AcDbEntity
  8
0
  6
Continuous
 62
     7
370
    40
100
AcDbLine
 10
168.6788435654
 20
54.0897801566
 30
0.0
 11
168.6788435654
 21
60.4647801566
 31
0.0
  0
LINE
  5
60
330
1F
100
AcDbEntity
  8
0
  6
Continuous
 62
     7
370
    40
100
AcDbLine
 10
192.0788435654
 20
9.4647801566
 30
0.0
 11
192.0788435654
 21
22.2147801566
 31
0.0
  0
LINE
  5
61
330
1F
100
AcDbEntity
  8
0
  6
Continuous
 62
     7
370
    40
100
AcDbLine
 10
205.0788435654
 20
53.9959272577
 30
0.0
 11
108.9108209117
 21
53.9959272577
 31
0.0
  0
LINE
  5
62
330
1F
100
AcDbEntity
  8
0
  6
Continuous
 62
     7
370
    40
100
AcDbLine
 10
205.0788435654
 20
13.7147801566
 30
0.0
 11
192.0788435654
 21
13.7147801566
 31
0.0
  0
LINE
  5
63
330
1F
100
AcDbEntity
  8
0
  6
Continuous
 62
     7
370
    40
100
AcDbLine
 10
205.0788435654
 20
5.2147801566
 30
0.0
 11
205.0788435654
 21
292.2147801566
 31
0.0
  0
MTEXT
  5
87
330
1F
100
AcDbEntity
  8
0
  6
Continuous
 62
     7
370
     0
100
AcDbMText
 10
153.1384109589
 20
287.3876141046
 30
0.0
 40
3.0
 41
0.0
 71
     1
 72
     1
  1
ALL DIMENSIONS IN MM
  7
SLDTEXTSTYLE0
 73
     1
 44
1.0
  0
MTEXT
  5
88
330
1F
100
AcDbEntity
  8
0
  6
Continuous
 62
     7
370
     0
100
AcDbMText
 10
144.8386849315
 20
67.7153267756
 30
0.0
 40
2.5
 41
0.0
 71
     1
 72
     1
  1
NOTE : unspecified tolerence +/- 0.2
  7
SLDTEXTSTYLE0
 73
     1
 44
1.0
  0
MTEXT
  5
8A
330
1F
100
AcDbEntity
  8
0
  6
Continuous
 62
     7
370
     0
100
AcDbMText
 10
121.7369391071
 20
19.8465185664
 30
0.0
 40
6.35
 41
0.0
 71
     1
 72
     1
  1
Heat sink-2 (PCC) 
  7
SLDTEXTSTYLE1
 73
     1
 44
1.0
  0
MTEXT
  5
8B
330
1F
100
AcDbEntity
  8
0
  6
Continuous
 62
     7
370
     0
100
AcDbMText
 10
65.7286320398
 20
8.0702391613
 30
0.0
 40
1.4986
 41
0.0
 71
     1
 72
     1
  1
WEIGHT: 
  7
SLDTEXTSTYLE1
 73
     1
 44
1.0
  0
MTEXT
  5
8C
330
1F
100
AcDbEntity
  8
0
  6
Continuous
 62
     7
370
     0
100
AcDbMText
 10
195.9998284117
 20
19.5152246678
 30
0.0
 40
2.9104166667
 41
0.0
 71
     1
 72
     1
  1
A4
  7
SLDTEXTSTYLE1
 73
     1
 44
1.0
  0
MTEXT
  5
8E
330
1F
100
AcDbEntity
  8
0
  6
Continuous
 62
     7
370
     0
100
AcDbMText
 10
162.3571379932
 20
8.1148674312
 30
0.0
 40
1.5
 41
0.0
 71
     1
 72
     1
  1
SHEET 1 OF 1
  7
SLDTEXTSTYLE2
 73
     1
 44
1.0
  0
MTEXT
  5
8F
330
1F
100
AcDbEntity
  8
0
  6
Continuous
 62
     7
370
     0
100
AcDbMText
 10
110.1847870291
 20
8.0210145322
 30
0.0
 40
1.5
 41
0.0
 71
     1
 72
     1
  1
SCALE:1:1
  7
SLDTEXTSTYLE1
 73
     1
 44
1.0
  0
MTEXT
  5
90
330
1F
100
AcDbEntity
  8
0
  6
Continuous
 62
     7
370
     0
100
AcDbMText
 10
110.1847870291
 20
19.9895650847
 30
0.0
 40
1.5
 41
0.0
 71
     1
 72
     1
  1
DWG NO.
  7
SLDTEXTSTYLE1
 73
     1
 44
1.0
  0
MTEXT
  5
91
330
1F
100
AcDbEntity
  8
0
  6
Continuous
 62
     7
370
     0
100
AcDbMText
 10
110.0670078483
 20
41.3992615437
 30
0.0
 40
1.5
 41
0.0
 71
     1
 72
     1
  1
TITLE:
  7
SLDTEXTSTYLE1
 73
     1
 44
1.0
  0
MTEXT
  5
92
330
1F
100
AcDbEntity
  8
0
  6
Continuous
 62
     7
370
     0
100
AcDbMText
 10
171.2064252647
 20
57.5496888371
 30
0.0
 40
1.5
 41
0.0
 71
     1
 72
     1
  1
REVISION
  7
SLDTEXTSTYLE1
 73
     1
 44
1.0
  0
MTEXT
  5
93
330
1F
100
AcDbEntity
  8
0
  6
Continuous
 62
     7
370
     0
100
AcDbMText
 10
130.4934840882
 20
57.7477737317
 30
0.0
 40
1.5
 41
0.0
 71
     1
 72
     1
  1
DO NOT SCALE DRAWING
  7
SLDTEXTSTYLE1
 73
     1
 44
1.0
  0
MTEXT
  5
94
330
1F
100
AcDbEntity
  8
0
  6
Continuous
 62
     7
370
     0
100
AcDbMText
 10
65.7566832204
 20
21.1069835469
 30
0.0
 40
1.5
 41
0.0
 71
     1
 72
     1
  1
MATERIAL:
  7
SLDTEXTSTYLE1
 73
     1
 44
1.0
  0
MTEXT
  5
95
330
1F
100
AcDbEntity
  8
0
  6
Continuous
 62
     7
370
     0
100
AcDbMText
 10
57.3255228774
 20
41.6971064789
 30
0.0
 40
1.5
 41
0.0
 71
     1
 72
     1
  1
DATE
  7
SLDTEXTSTYLE1
 73
     1
 44
1.0
  0
MTEXT
  5
96
330
1F
100
AcDbEntity
  8
0
  6
Continuous
 62
     7
370
     0
100
AcDbMText
 10
40.1444084748
 20
41.6826836372
 30
0.0
 40
1.5
 41
0.0
 71
     1
 72
     1
  1
SIGNATURE
  7
SLDTEXTSTYLE1
 73
     1
 44
1.0
  0
MTEXT
  5
97
330
1F
100
AcDbEntity
  8
0
  6
Continuous
 62
     7
370
     0
100
AcDbMText
 10
24.4330601293
 20
41.6224098911
 30
0.0
 40
1.5
 41
0.0
 71
     1
 72
     1
  1
NAME
  7
SLDTEXTSTYLE1
 73
     1
 44
1.0
  0
INSERT
  5
9E
330
1F
100
AcDbEntity
  8
0
  6
Continuous
 62
     7
370
     0
100
AcDbBlockReference
  2
SW_NOTE_0
 10
91.4200365979
 20
57.1904169007
 30
0.0
  0
MTEXT
  5
9F
330
1F
100
AcDbEntity
  8
0
  6
Continuous
 62
     7
370
     0
100
AcDbMText
 10
44.4821130785
 20
59.0401992528
 30
0.0
 40
1.5
 41
0.0
 71
     1
 72
     1
  1
FINISH:
  7
SLDTEXTSTYLE1
 73
     1
 44
1.0
  0
INSERT
  5
A9
330
1F
100
AcDbEntity
  8
0
  6
Continuous
 62
     7
370
     0
100
AcDbBlockReference
  2
SW_NOTE_1
 10
10.7044896573
 20
57.108297132
 30
0.0
  0
MTEXT
  5
AA
330
1F
100
AcDbEntity
  8
0
  6
Continuous
 62
     7
370
     0
100
AcDbMText
 10
10.7798637738
 20
20.470576465
 30
0.0
 40
1.5
 41
0.0
 71
     1
 72
     1
  1
Q.A
  7
SLDTEXTSTYLE1
 73
     1
 44
1.0
  0
MTEXT
  5
AB
330
1F
100
AcDbEntity
  8
0
  6
Continuous
 62
     7
370
     0
100
AcDbMText
 10
10.5660074108
 20
24.8546319083
 30
0.0
 40
1.5
 41
0.0
 71
     1
 72
     1
  1
MFG
  7
SLDTEXTSTYLE1
 73
     1
 44
1.0
  0
MTEXT
  5
AC
330
1F
100
AcDbEntity
  8
0
  6
Continuous
 62
     7
370
     0
100
AcDbMText
 10
10.51254332
 20
29.1852232608
 30
0.0
 40
1.5
 41
0.0
 71
     1
 72
     1
  1
APPV'D
  7
SLDTEXTSTYLE1
 73
     1
 44
1.0
  0
MTEXT
  5
AD
330
1F
100
AcDbEntity
  8
0
  6
Continuous
 62
     7
370
     0
100
AcDbMText
 10
10.5212897793
 20
33.2753344177
 30
0.0
 40
1.5
 41
0.0
 71
     1
 72
     1
  1
CHK'D
  7
SLDTEXTSTYLE1
 73
     1
 44
1.0
  0
MTEXT
  5
AE
330
1F
100
AcDbEntity
  8
0
  6
Continuous
 62
     7
370
     0
100
AcDbMText
 10
10.3229701557
 20
37.5506421436
 30
0.0
 40
1.5
 41
0.0
 71
     1
 72
     1
  1
DRAWN
  7
SLDTEXTSTYLE1
 73
     1
 44
1.0
  0
LINE
  5
AF
330
1F
100
AcDbEntity
  8
0
  6
Continuous
 62
     7
370
    15
100
AcDbLine
 10
53.3700586009
 20
248.4033857193
 30
0.0
 11
53.3700586009
 21
164.5833854284
 31
0.0
  0
LINE
  5
B0
330
1F
100
AcDbEntity
  8
0
  6
Continuous
 62
     7
370
    15
100
AcDbLine
 10
53.3700586009
 20
248.4033857193
 30
0.0
 11
64.8700586233
 21
248.4033857193
 31
0.0
  0
LINE
  5
B1
330
1F
100
AcDbEntity
  8
0
  6
Continuous
 62
     7
370
    15
100
AcDbLine
 10
64.8700586233
 20
164.5833854284
 30
0.0
 11
64.8700586233
 21
248.4033857193
 31
0.0
  0
LINE
  5
B2
330
1F
100
AcDbEntity
  8
0
  6
Continuous
 62
     7
370
    15
100
AcDbLine
 10
53.3700586009
 20
164.5833854284
 30
0.0
 11
64.8700586233
 21
164.5833854284
 31
0.0
  0
CIRCLE
  5
B3
330
1F
100
AcDbEntity
  8
0
  6
Continuous
 62
     7
370
    15
100
AcDbCircle
 10
59.7200586009
 20
174.5833854284
 30
0.0
 40
1.249999999999986
  0
CIRCLE
  5
B4
330
1F
100
AcDbEntity
  8
0
  6
Continuous
 62
     7
370
    15
100
AcDbCircle
 10
59.7200586009
 20
238.4033854284
 30
0.0
 40
1.249999999999986
  0
LINE
  5
B5
330
1F
100
AcDbEntity
  8
0
  6
Continuous
 62
     7
370
    15
100
AcDbLine
 10
65.3700587052
 20
248.4033857193
 30
0.0
 11
65.3700587052
 21
164.5833854284
 31
0.0
  0
LINE
  5
B6
330
1F
100
AcDbEntity
  8
0
  6
Continuous
 62
     7
370
    15
100
AcDbLine
 10
64.8700586233
 20
248.4033857193
 30
0.0
 11
65.3700587052
 21
248.4033857193
 31
0.0
  0
LINE
  5
B7
330
1F
100
AcDbEntity
  8
0
  6
Continuous
 62
     7
370
    15
100
AcDbLine
 10
65.3700587052
 20
164.5833854284
 30
0.0
 11
64.8700586233
 21
164.5833854284
 31
0.0
  0
ELLIPSE
  5
B8
330
1F
100
AcDbEntity
  8
0
  6
Continuous
 62
     7
370
    15
100
AcDbEllipse
 10
59.6985301486
 20
174.5833854284
 30
0.0
 11
0.2468259366925878
 21
0.0
 31
0.0
210
0.0
220
0.0
230
1.0
 40
0.9961889699
 41
0.0
 42
6.283185307179586
  0
ELLIPSE
  5
B9
330
1F
100
AcDbEntity
  8
0
  6
Continuous
 62
     7
370
    15
100
AcDbEllipse
 10
59.6985301486
 20
238.4033854284
 30
0.0
 11
0.2468259366925878
 21
0.0
 31
0.0
210
0.0
220
0.0
230
1.0
 40
0.9961889699
 41
0.0
 42
6.283185307179586
  0
LINE
  5
BA
330
1F
100
AcDbEntity
  8
0
  6
Continuous
 62
   110
370
    15
100
AcDbLine
 10
58.8438907351
 20
239.2949168291
 30
0.0
 11
58.8438907351
 21
237.5118513312
 31
0.0
  0
LINE
  5
BB
330
1F
100
AcDbEntity
  8
0
  6
Continuous
 62
   110
370
    15
100
AcDbLine
 10
58.8438907351
 20
175.4749179538
 30
0.0
 11
58.8438907351
 21
173.6918533873
 31
0.0
  0
DIMENSION
  5
BC
330
1F
100
AcDbEntity
  8
0
  6
Continuous
 62
     7
370
     0
100
AcDbDimension
  2
*D3
 10
65.3700586009
 20
259.7040992291
 30
0.0
 11
57.1953407038
 21
259.7040992291
 31
0.0
 70
   160
  1
(<>)
 71
     2
 42
-1.0
  3
SLDDIMSTYLE0
100
AcDbAlignedDimension
 13
53.3700586009
 23
248.4033854284
 33
0.0
 14
65.3700586009
 24
248.4033854284
 34
0.0
100
AcDbRotatedDimension
  0
DIMENSION
  5
CB
330
1F
100
AcDbEntity
  8
0
  6
Continuous
 62
     7
370
     0
100
AcDbDimension
  2
*D4
 10
44.4216046283
 20
238.4033854284
 30
0.0
 11
44.4216046283
 21
243.7320836834
 31
0.0
 70
   160
 71
     2
 42
-1.0
  3
SLDDIMSTYLE1
100
AcDbAlignedDimension
 13
53.3700586009
 23
248.4033854284
 33
0.0
 14
55.9700586009
 24
238.4033854284
 34
0.0
 50
90.0
100
AcDbRotatedDimension
  0
DIMENSION
  5
D6
330
1F
100
AcDbEntity
  8
0
  6
Continuous
 62
     7
370
     0
100
AcDbDimension
  2
*D5
 10
35.6567017016
 20
174.5833854284
 30
0.0
 11
35.6567017016
 21
209.3037580738
 31
0.0
 70
   160
 71
     2
 42
-1.0
  3
SLDDIMSTYLE1
100
AcDbAlignedDimension
 13
53.3700586009
 23
248.4033854284
 33
0.0
 14
55.9700586009
 24
174.5833854284
 34
0.0
 50
90.0
100
AcDbRotatedDimension
  0
DIMENSION
  5
E0
330
1F
100
AcDbEntity
  8
0
  6
Continuous
 62
     7
370
     0
100
AcDbDimension
  2
*D6
 10
59.7200586009
 20
253.9812973864
 30
0.0
 11
47.4007617742
 21
253.9812973864
 31
0.0
 70
   160
 71
     2
 42
-1.0
  3
SLDDIMSTYLE1
100
AcDbAlignedDimension
 13
53.3700586009
 23
248.4033854284
 33
0.0
 14
59.7200586009
 24
242.1533854284
 34
0.0
100
AcDbRotatedDimension
  0
DIMENSION
  5
EB
330
1F
100
AcDbEntity
  8
0
  6
Continuous
 62
     7
370
     0
100
AcDbDimension
  2
*D7
 10
58.2711698615
 20
238.0151568607
 30
0.0
 11
81.8664465831
 21
244.337499524
 31
0.0
 70
   163
  1
M<>x0.5, 5deep
 71
     1
 42
-1.0
  3
SLDDIMSTYLE2
100
AcDbDiametricDimension
 15
61.1689473404
 25
238.791613996
 35
0.0
 40
0.0
  0
INSERT
  5
101
330
1F
100
AcDbEntity
  8
0
  6
Continuous
 62
     7
370
     0
100
AcDbBlockReference
  2
SW_CENTERMARKSYMBOL_0
 10
59.7200586009
 20
174.5833854284
 30
0.0
  0
INSERT
  5
10D
330
1F
100
AcDbEntity
  8
0
  6
Continuous
 62
     7
370
     0
100
AcDbBlockReference
  2
SW_CENTERMARKSYMBOL_1
 10
59.7200586009
 20
238.4033854284
 30
0.0
  0
ARC
  5
10E
330
1F
100
AcDbEntity
  8
0
  6
Continuous
 62
     7
370
     0
100
AcDbCircle
 10
59.7200586009
 20
174.5833854284
 30
0.0
 40
1.500000000000011
100
AcDbArc
 50
255.0
 51
195.0
  0
ARC
  5
10F
330
1F
100
AcDbEntity
  8
0
  6
Continuous
 62
     7
370
     0
100
AcDbCircle
 10
59.7200586009
 20
238.4033854284
 30
0.0
 40
1.499999999999997
100
AcDbArc
 50
255.0
 51
195.0
  0
LINE
  5
110
330
1F
100
AcDbEntity
  8
0
  6
Continuous
 62
     7
370
    15
100
AcDbLine
 10
110.6468081045
 20
248.4033857193
 30
0.0
 11
148.6468068826
 21
248.4033857193
 31
0.0
  0
LINE
  5
111
330
1F
100
AcDbEntity
  8
0
  6
Continuous
 62
     7
370
    15
100
AcDbLine
 10
148.6468068826
 20
248.4033857193
 30
0.0
 11
148.6468068826
 21
164.5833854284
 31
0.0
  0
LINE
  5
112
330
1F
100
AcDbEntity
  8
0
  6
Continuous
 62
     7
370
    15
100
AcDbLine
 10
110.6468081045
 20
164.5833854284
 30
0.0
 11
148.6468068826
 21
164.5833854284
 31
0.0
  0
LINE
  5
113
330
1F
100
AcDbEntity
  8
0
  6
Continuous
 62
     7
370
    15
100
AcDbLine
 10
110.6468081045
 20
248.4033857193
 30
0.0
 11
110.6468081045
 21
164.5833854284
 31
0.0
  0
CIRCLE
  5
114
330
1F
100
AcDbEntity
  8
0
  6
Continuous
 62
     7
370
    15
100
AcDbCircle
 10
132.4468081045
 20
212.8433854284
 30
0.0
 40
1.25
  0
CIRCLE
  5
115
330
1F
100
AcDbEntity
  8
0
  6
Continuous
 62
     7
370
    15
100
AcDbCircle
 10
132.4468081045
 20
231.2533854284
 30
0.0
 40
1.25
  0
CIRCLE
  5
116
330
1F
100
AcDbEntity
  8
0
  6
Continuous
 62
     7
370
    15
100
AcDbCircle
 10
132.0068081045
 20
195.0633854284
 30
0.0
 40
1.25
  0
SPLINE
  5
117
330
1F
100
AcDbEntity
  8
0
  6
Continuous
 62
     7
370
    15
100
AcDbSpline
210
0.0
220
0.0
230
1.0
 70
     8
 71
     3
 72
    26
 73
    22
 74
     0
 42
0.00000001
 43
0.00000001
 40
0.0
 40
0.0
 40
0.0
 40
0.0
 40
0.0624999999999988
 40
0.0624999999999988
 40
0.1249999999999976
 40
0.1249999999999976
 40
0.2499999999999972
 40
0.2499999999999972
 40
0.3749999999999967
 40
0.3749999999999967
 40
0.4999999999999963
 40
0.4999999999999963
 40
0.6249999999999959
 40
0.6249999999999959
 40
0.7499999999999954
 40
0.7499999999999954
 40
0.8749999999999951
 40
0.8749999999999951
 40
0.9374999999999976
 40
0.9374999999999976
 40
1.0
 40
1.0
 40
1.0
 40
1.0
 10
132.0054713661957
 20
193.8133861431318
 30
0.0
 10
132.0698372542809
 20
193.8133173108122
 30
0.0
 10
132.1314639647222
 20
193.8407088926824
 30
0.0
 10
132.2293722816062
 20
193.9165672039652
 30
0.0
 10
132.2676526338904
 20
193.9633896400093
 30
0.0
 10
132.3655366778627
 20
194.1142395703805
 30
0.0
 10
132.4058856011307
 20
194.2241379273072
 30
0.0
 10
132.4651883685331
 20
194.4525553825211
 30
0.0
 10
132.4820942764862
 20
194.5689257631335
 30
0.0
 10
132.501164559309
 20
194.8098697842224
 30
0.0
 10
132.5032378588077
 20
194.9370210793798
 30
0.0
 10
132.5032374774124
 20
195.1897775652651
 30
0.0
 10
132.5011492212676
 20
195.3172373685272
 30
0.0
 10
132.482068495859
 20
195.5580280050368
 30
0.0
 10
132.4650543126203
 20
195.6749224133939
 30
0.0
 10
132.4056980248778
 20
195.9031637900333
 30
0.0
 10
132.3643575473502
 20
196.0146362332263
 30
0.0
 10
132.2674392513846
 20
196.1635643763981
 30
0.0
 10
132.2286536141608
 20
196.210883505573
 30
0.0
 10
132.1311900519037
 20
196.2861498921533
 30
0.0
 10
132.0700383540614
 20
196.3134537610098
 30
0.0
 10
132.0054713661957
 20
196.3133847136359
 30
0.0
  0
SPLINE
  5
118
330
1F
100
AcDbEntity
  8
0
  6
Continuous
 62
     7
370
    15
100
AcDbSpline
210
0.0
220
0.0
230
1.0
 70
     8
 71
     3
 72
    18
 73
    14
 74
     0
 42
0.00000001
 43
0.00000001
 40
0.0
 40
0.0
 40
0.0
 40
0.0
 40
0.2499999999999869
 40
0.2499999999999869
 40
0.374999999999989
 40
0.374999999999989
 40
0.4999999999999911
 40
0.4999999999999911
 40
0.6249999999999932
 40
0.6249999999999932
 40
0.7499999999999953
 40
0.7499999999999953
 40
1.0
 40
1.0
 40
1.0
 40
1.0
 10
132.504786133573
 20
213.3011394455068
 30
0.0
 10
132.507100051178
 20
213.2267777500314
 30
0.0
 10
132.509412167051
 20
213.1523958298022
 30
0.0
 10
132.5127976241204
 20
213.0398944396624
 30
0.0
 10
132.5139192086205
 20
213.0023190905525
 30
0.0
 10
132.5159948340764
 20
212.9254170208964
 30
0.0
 10
132.517124311993
 20
212.8856497781132
 30
0.0
 10
132.5170797099727
 20
212.7987569387893
 30
0.0
 10
132.5159390757717
 20
212.7591319222362
 30
0.0
 10
132.5138703543288
 20
212.6828059386193
 30
0.0
 10
132.5127550010183
 20
212.6454433323992
 30
0.0
 10
132.5093869866907
 20
212.5335724716436
 30
0.0
 10
132.5070874696399
 20
212.4595887775144
 30
0.0
 10
132.504786133573
 20
212.3856314112609
 30
0.0
  0
SPLINE
  5
119
330
1F
100
AcDbEntity
  8
0
  6
Continuous
 62
     7
370
    15
100
AcDbSpline
210
0.0
220
0.0
230
1.0
 70
     8
 71
     3
 72
    14
 73
    10
 74
     0
 42
0.00000001
 43
0.00000001
 40
0.0
 40
0.0
 40
0.0
 40
0.0
 40
0.1249999999999939
 40
0.1249999999999939
 40
0.2499999999999879
 40
0.2499999999999879
 40
0.4999999999999873
 40
0.4999999999999873
 40
1.0
 40
1.0
 40
1.0
 40
1.0
 10
132.0054713661951
 20
211.6738890053898
 30
0.0
 10
132.048986168936
 20
211.657467680165
 30
0.0
 10
132.0978054527296
 20
211.653689420346
 30
0.0
 10
132.1853924275031
 20
211.6736319547007
 30
0.0
 10
132.2241252034763
 20
211.6955173161444
 30
0.0
 10
132.3235057926847
 20
211.7764817038651
 30
0.0
 10
132.3679438247956
 20
211.8473394290214
 30
0.0
 10
132.4709569740751
 20
212.0662618950054
 30
0.0
 10
132.4998394768856
 20
212.2266621474367
 30
0.0
 10
132.504786133573
 20
212.3856314112609
 30
0.0
  0
SPLINE
  5
11A
330
1F
100
AcDbEntity
  8
0
  6
Continuous
 62
     7
370
    15
100
AcDbSpline
210
0.0
220
0.0
230
1.0
 70
     8
 71
     3
 72
    14
 73
    10
 74
     0
 42
0.00000001
 43
0.00000001
 40
0.0
 40
0.0
 40
0.0
 40
0.0
 40
0.5000000000000051
 40
0.5000000000000051
 40
0.7500000000000026
 40
0.7500000000000026
 40
0.8750000000000012
 40
0.8750000000000012
 40
1.0
 40
1.0
 40
1.0
 40
1.0
 10
132.504786133573
 20
213.3011394455068
 30
0.0
 10
132.4998383638939
 20
213.4601444772207
 30
0.0
 10
132.470899247491
 20
213.6206763958903
 30
0.0
 10
132.3679102462781
 20
213.8394803910034
 30
0.0
 10
132.3224286921813
 20
213.911346860327
 30
0.0
 10
132.2239603357789
 20
213.9912967853836
 30
0.0
 10
132.1851879133314
 20
214.0132472010994
 30
0.0
 10
132.0973912717558
 20
214.0331135704772
 30
0.0
 10
132.0490457980829
 20
214.0293256790498
 30
0.0
 10
132.0054713661957
 20
214.0128818513766
 30
0.0
  0
SPLINE
  5
11B
330
1F
100
AcDbEntity
  8
0
  6
Continuous
 62
     7
370
    15
100
AcDbSpline
210
0.0
220
0.0
230
1.0
 70
     8
 71
     3
 72
    18
 73
    14
 74
     0
 42
0.00000001
 43
0.00000001
 40
0.0
 40
0.0
 40
0.0
 40
0.0
 40
0.2500000000000095
 40
0.2500000000000095
 40
0.3750000000000137
 40
0.3750000000000137
 40
0.5000000000000179
 40
0.5000000000000179
 40
0.6250000000000221
 40
0.6250000000000221
 40
0.7500000000000263
 40
0.7500000000000263
 40
1.0
 40
1.0
 40
1.0
 40
1.0
 10
132.504786133573
 20
231.7111394455068
 30
0.0
 10
132.507100051178
 20
231.6367777500314
 30
0.0
 10
132.509412167051
 20
231.5623958298021
 30
0.0
 10
132.5127976241204
 20
231.4498944396624
 30
0.0
 10
132.5139192086205
 20
231.4123190905525
 30
0.0
 10
132.5159948340764
 20
231.3354170208964
 30
0.0
 10
132.517124311993
 20
231.2956497781132
 30
0.0
 10
132.5170797099727
 20
231.2087569387893
 30
0.0
 10
132.5159390757717
 20
231.1691319222361
 30
0.0
 10
132.5138703543288
 20
231.0928059386193
 30
0.0
 10
132.5127550010183
 20
231.0554433323992
 30
0.0
 10
132.5093869866907
 20
230.9435724716436
 30
0.0
 10
132.5070874696399
 20
230.8695887775144
 30
0.0
 10
132.504786133573
 20
230.7956314112609
 30
0.0
  0
SPLINE
  5
11C
330
1F
100
AcDbEntity
  8
0
  6
Continuous
 62
     7
370
    15
100
AcDbSpline
210
0.0
220
0.0
230
1.0
 70
     8
 71
     3
 72
    14
 73
    10
 74
     0
 42
0.00000001
 43
0.00000001
 40
0.0
 40
0.0
 40
0.0
 40
0.0
 40
0.1250000000000134
 40
0.1250000000000134
 40
0.2500000000000267
 40
0.2500000000000267
 40
0.5000000000000265
 40
0.5000000000000265
 40
1.0
 40
1.0
 40
1.0
 40
1.0
 10
132.0054713661951
 20
230.0838890053898
 30
0.0
 10
132.048986168936
 20
230.067467680165
 30
0.0
 10
132.0978054527296
 20
230.063689420346
 30
0.0
 10
132.1853924275031
 20
230.0836319547007
 30
0.0
 10
132.2241252034763
 20
230.1055173161444
 30
0.0
 10
132.3235057926847
 20
230.1864817038651
 30
0.0
 10
132.3679438247956
 20
230.2573394290214
 30
0.0
 10
132.4709569740751
 20
230.4762618950055
 30
0.0
 10
132.4998394768856
 20
230.6366621474367
 30
0.0
 10
132.504786133573
 20
230.7956314112609
 30
0.0
  0
SPLINE
  5
11D
330
1F
100
AcDbEntity
  8
0
  6
Continuous
 62
     7
370
    15
100
AcDbSpline
210
0.0
220
0.0
230
1.0
 70
     8
 71
     3
 72
    14
 73
    10
 74
     0
 42
0.00000001
 43
0.00000001
 40
0.0
 40
0.0
 40
0.0
 40
0.0
 40
0.5000000000000167
 40
0.5000000000000167
 40
0.7500000000000083
 40
0.7500000000000083
 40
0.8750000000000041
 40
0.8750000000000041
 40
1.0
 40
1.0
 40
1.0
 40
1.0
 10
132.504786133573
 20
231.7111394455068
 30
0.0
 10
132.4998383638939
 20
231.8701444772207
 30
0.0
 10
132.470899247491
 20
232.0306763958902
 30
0.0
 10
132.3679102462781
 20
232.2494803910034
 30
0.0
 10
132.3224286921813
 20
232.3213468603269
 30
0.0
 10
132.2239603357789
 20
232.4012967853836
 30
0.0
 10
132.1851879133314
 20
232.4232472010994
 30
0.0
 10
132.0973912717558
 20
232.4431135704772
 30
0.0
 10
132.0490457980829
 20
232.4393256790498
 30
0.0
 10
132.0054713661957
 20
232.4228818513766
 30
0.0
  0
DIMENSION
  5
11E
330
1F
100
AcDbEntity
  8
0
  6
Continuous
 62
     7
370
     0
100
AcDbDimension
  2
*D10
 10
190.6770340073
 20
164.5833854284
 30
0.0
 11
190.6770340073
 21
209.1560522347
 31
0.0
 70
   160
 71
     2
 42
-1.0
  3
SLDDIMSTYLE1
100
AcDbAlignedDimension
 13
148.6468081045
 23
248.4033854284
 33
0.0
 14
148.6468081045
 24
164.5833854284
 34
0.0
 50
90.0
100
AcDbRotatedDimension
  0
DIMENSION
  5
128
330
1F
100
AcDbEntity
  8
0
  6
Continuous
 62
     7
370
     0
100
AcDbDimension
  2
*D11
 10
164.6468081045
 20
231.2533854284
 30
0.0
 11
164.6468081045
 21
239.329025758
 31
0.0
 70
   160
 71
     2
 42
-1.0
  3
SLDDIMSTYLE0
100
AcDbAlignedDimension
 13
148.6468081045
 23
248.4033854284
 33
0.0
 14
136.1968081045
 24
231.2533854284
 34
0.0
 50
90.0
100
AcDbRotatedDimension
  0
DIMENSION
  5
134
330
1F
100
AcDbEntity
  8
0
  6
Continuous
 62
     7
370
     0
100
AcDbDimension
  2
*D12
 10
174.7072599101
 20
248.4033854284
 30
0.0
 11
174.7072599101
 21
224.9144218484
 31
0.0
 70
   160
 71
     2
 42
-1.0
  3
SLDDIMSTYLE1
100
AcDbAlignedDimension
 13
136.1968081045
 23
212.8433854284
 33
0.0
 14
148.6468081045
 24
248.4033854284
 34
0.0
 50
90.0
100
AcDbRotatedDimension
  0
DIMENSION
  5
13E
330
1F
100
AcDbEntity
  8
0
  6
Continuous
 62
     7
370
     0
100
AcDbDimension
  2
*D13
 10
182.6468081045
 20
248.4033854284
 30
0.0
 11
182.6468081045
 21
216.3874730567
 31
0.0
 70
   160
 71
     2
 42
-1.0
  3
SLDDIMSTYLE1
100
AcDbAlignedDimension
 13
135.7568081045
 23
195.0633854284
 33
0.0
 14
148.6468081045
 24
248.4033854284
 34
0.0
 50
90.0
100
AcDbRotatedDimension
  0
DIMENSION
  5
148
330
1F
100
AcDbEntity
  8
0
  6
Continuous
 62
     7
370
     0
100
AcDbDimension
  2
*D14
 10
148.6468081045
 20
255.1605777619
 30
0.0
 11
140.8465362797
 21
255.1605777619
 31
0.0
 70
   160
 71
     2
 42
-1.0
  3
SLDDIMSTYLE3
100
AcDbAlignedDimension
 13
132.4468081045
 23
235.0033854284
 33
0.0
 14
148.6468081045
 24
248.4033854284
 34
0.0
100
AcDbRotatedDimension
  0
DIMENSION
  5
155
330
1F
100
AcDbEntity
  8
0
  6
Continuous
 62
     7
370
     0
100
AcDbDimension
  2
*D15
 10
148.6468081045
 20
184.7279770871
 30
0.0
 11
158.3261598048
 21
184.7279770871
 31
0.0
 70
   160
 71
     2
 42
-1.0
  3
SLDDIMSTYLE1
100
AcDbAlignedDimension
 13
132.0068081045
 23
191.3133854284
 33
0.0
 14
148.6468081045
 24
164.5833854284
 34
0.0
100
AcDbRotatedDimension
  0
DIMENSION
  5
15F
330
1F
100
AcDbEntity
  8
0
  6
Continuous
 62
     7
370
     0
100
AcDbDimension
  2
*D16
 10
148.6468081045
 20
220.1523681807
 30
0.0
 11
142.228197698
 21
220.1523681807
 31
0.0
 70
   160
 71
     2
 42
-1.0
  3
SLDDIMSTYLE3
100
AcDbAlignedDimension
 13
132.4468081045
 23
216.5933854284
 33
0.0
 14
148.6468081045
 24
248.4033854284
 34
0.0
100
AcDbRotatedDimension
  0
DIMENSION
  5
16A
330
1F
100
AcDbEntity
  8
0
  6
Continuous
 62
     7
370
     0
100
AcDbDimension
  2
*D17
 10
148.6468081045
 20
262.6608765889
 30
0.0
 11
132.3773136282
 21
262.6608765889
 31
0.0
 70
   160
  1
(<>)
 71
     2
 42
-1.0
  3
SLDDIMSTYLE1
100
AcDbAlignedDimension
 13
110.6468081045
 23
248.4033854284
 33
0.0
 14
148.6468081045
 24
248.4033854284
 34
0.0
100
AcDbRotatedDimension
  0
DIMENSION
  5
176
330
1F
100
AcDbEntity
  8
0
  6
Continuous
 62
     7
370
     0
100
AcDbDimension
  2
*D18
 10
133.8624243866
 20
231.7494000875
 30
0.0
 11
98.3960029053
 21
219.322405578
 31
0.0
 70
   163
  1
M<>x0.5, 5 deep
 71
     1
 42
-1.0
  3
SLDDIMSTYLE2
100
AcDbDiametricDimension
 15
131.0311918225
 25
230.7573707693
 35
0.0
 40
0.0
  0
INSERT
  5
18B
330
1F
100
AcDbEntity
  8
0
  6
Continuous
 62
     7
370
     0
100
AcDbBlockReference
  2
SW_CENTERMARKSYMBOL_2
 10
132.4468081045
 20
212.8433854284
 30
0.0
  0
INSERT
  5
197
330
1F
100
AcDbEntity
  8
0
  6
Continuous
 62
     7
370
     0
100
AcDbBlockReference
  2
SW_CENTERMARKSYMBOL_3
 10
132.4468081045
 20
231.2533854284
 30
0.0
  0
INSERT
  5
1A3
330
1F
100
AcDbEntity
  8
0
  6
Continuous
 62
     7
370
     0
100
AcDbBlockReference
  2
SW_CENTERMARKSYMBOL_4
 10
132.0068081045
 20
195.0633854284
 30
0.0
  0
ARC
  5
1A4
330
1F
100
AcDbEntity
  8
0
  6
Continuous
 62
     7
370
     0
100
AcDbCircle
 10
132.4468081045
 20
212.8433854284
 30
0.0
 40
1.499999999999976
100
AcDbArc
 50
255.0
 51
195.0
  0
ARC
  5
1A5
330
1F
100
AcDbEntity
  8
0
  6
Continuous
 62
     7
370
     0
100
AcDbCircle
 10
132.4468081045
 20
231.2533854284
 30
0.0
 40
1.500000000000004
100
AcDbArc
 50
255.0
 51
195.0
  0
ARC
  5
1A6
330
1F
100
AcDbEntity
  8
0
  6
Continuous
 62
     7
370
     0
100
AcDbCircle
 10
132.0068081045
 20
195.0633854284
 30
0.0
 40
1.500000000000004
100
AcDbArc
 50
255.0
 51
195.0
  0
LINE
  5
1A7
330
1F
100
AcDbEntity
  8
0
  6
Continuous
 62
     7
370
    15
100
AcDbLine
 10
110.6468081045
 20
102.0042402324
 30
0.0
 11
148.6468068826
 21
102.0042402324
 31
0.0
  0
ARC
  5
1A8
330
1F
100
AcDbEntity
  8
0
  6
Continuous
 62
     7
370
    15
100
AcDbCircle
 10
111.1468081045
 20
113.5042402324
 30
0.0
 40
0.5
100
AcDbArc
 50
90.0
 51
180.0
  0
ARC
  5
1A9
330
1F
100
AcDbEntity
  8
0
  6
Continuous
 62
     7
370
    15
100
AcDbCircle
 10
111.1966060824
 20
113.5042402324
 30
0.0
 40
0.5000000000000048
100
AcDbArc
 50
6.0
 51
90.0
  0
ARC
  5
1AA
330
1F
100
AcDbEntity
  8
0
  6
Continuous
 62
     7
370
    15
100
AcDbCircle
 10
112.8327397735
 20
107.5042402324
 30
0.0
 40
0.5000000000000018
100
AcDbArc
 50
186.0
 51
270.0
  0
LINE
  5
1AB
330
1F
100
AcDbEntity
  8
0
  6
Continuous
 62
     7
370
    15
100
AcDbLine
 10
113.5054713152
 20
107.0042401206
 30
0.0
 11
112.8327397666
 21
107.0042401206
 31
0.0
  0
ARC
  5
1AC
330
1F
100
AcDbEntity
  8
0
  6
Continuous
 62
     7
370
    15
100
AcDbCircle
 10
113.5054713662
 20
107.5042402324
 30
0.0
 40
0.5
100
AcDbArc
 50
270.0
 51
357.0
  0
LINE
  5
1AD
330
1F
100
AcDbEntity
  8
0
  6
Continuous
 62
     7
370
    15
100
AcDbLine
 10
114.3219755534
 20
113.5304085564
 30
0.0
 11
114.0047861766
 21
107.4780723666
 31
0.0
  0
ARC
  5
1AE
330
1F
100
AcDbEntity
  8
0
  6
Continuous
 62
     7
370
    15
100
AcDbCircle
 10
114.8212903879
 20
113.5042402324
 30
0.0
 40
0.5
100
AcDbArc
 50
90.0
 51
177.0
  0
LINE
  5
1AF
330
1F
100
AcDbEntity
  8
0
  6
Continuous
 62
     7
370
    15
100
AcDbLine
 10
114.8723257277
 20
114.0042403367
 30
0.0
 11
114.8212901819
 21
114.0042403367
 31
0.0
  0
ARC
  5
1B0
330
1F
100
AcDbEntity
  8
0
  6
Continuous
 62
     7
370
    15
100
AcDbCircle
 10
114.8723258212
 20
113.5042402324
 30
0.0
 40
0.5
100
AcDbArc
 50
3.0
 51
90.0
  0
LINE
  5
1B1
330
1F
100
AcDbEntity
  8
0
  6
Continuous
 62
     7
370
    15
100
AcDbLine
 10
115.6888301987
 20
107.4780723666
 30
0.0
 11
115.3716403562
 21
113.5304085564
 31
0.0
  0
ARC
  5
1B2
330
1F
100
AcDbEntity
  8
0
  6
Continuous
 62
     7
370
    15
100
AcDbCircle
 10
116.1881448429
 20
107.5042402324
 30
0.0
 40
0.5
100
AcDbArc
 50
183.0
 51
270.0
  0
LINE
  5
1B3
330
1F
100
AcDbEntity
  8
0
  6
Continuous
 62
     7
370
    15
100
AcDbLine
 10
117.2054713163
 20
107.0042401206
 30
0.0
 11
116.1881448272
 21
107.0042401206
 31
0.0
  0
ARC
  5
1B4
330
1F
100
AcDbEntity
  8
0
  6
Continuous
 62
     7
370
    15
100
AcDbCircle
 10
117.2054713662
 20
107.5042402324
 30
0.0
 40
0.5
100
AcDbArc
 50
270.0
 51
357.0
  0
ARC
  5
1B5
330
1F
100
AcDbEntity
  8
0
  6
Continuous
 62
     7
370
    15
100
AcDbCircle
 10
118.5212903879
 20
113.5042402324
 30
0.0
 40
0.5000000000000121
100
AcDbArc
 50
90.0
 51
177.0
  0
ARC
  5
1B6
330
1F
100
AcDbEntity
  8
0
  6
Continuous
 62
     7
370
    15
100
AcDbCircle
 10
118.5723258212
 20
113.5042402324
 30
0.0
 40
0.5000000000000121
100
AcDbArc
 50
3.0
 51
90.0
  0
ARC
  5
1B7
330
1F
100
AcDbEntity
  8
0
  6
Continuous
 62
     7
370
    15
100
AcDbCircle
 10
119.8881448429
 20
107.5042402324
 30
0.0
 40
0.5
100
AcDbArc
 50
183.0
 51
270.0
  0
LINE
  5
1B8
330
1F
100
AcDbEntity
  8
0
  6
Continuous
 62
     7
370
    15
100
AcDbLine
 10
120.9054715502
 20
107.0042401206
 30
0.0
 11
119.8881450612
 21
107.0042401206
 31
0.0
  0
ARC
  5
1B9
330
1F
100
AcDbEntity
  8
0
  6
Continuous
 62
     7
370
    15
100
AcDbCircle
 10
120.9054713662
 20
107.5042402324
 30
0.0
 40
0.5
100
AcDbArc
 50
270.0
 51
357.0
  0
ARC
  5
1BA
330
1F
100
AcDbEntity
  8
0
  6
Continuous
 62
     7
370
    15
100
AcDbCircle
 10
122.2212903879
 20
113.5042402324
 30
0.0
 40
0.5
100
AcDbArc
 50
90.0
 51
177.0
  0
ARC
  5
1BB
330
1F
100
AcDbEntity
  8
0
  6
Continuous
 62
     7
370
    15
100
AcDbCircle
 10
122.2723258212
 20
113.5042402324
 30
0.0
 40
0.5
100
AcDbArc
 50
3.0
 51
90.0
  0
ARC
  5
1BC
330
1F
100
AcDbEntity
  8
0
  6
Continuous
 62
     7
370
    15
100
AcDbCircle
 10
123.5881448429
 20
107.5042402324
 30
0.0
 40
0.5
100
AcDbArc
 50
183.0
 51
270.0
  0
LINE
  5
1BD
330
1F
100
AcDbEntity
  8
0
  6
Continuous
 62
     7
370
    15
100
AcDbLine
 10
124.6054717842
 20
107.0042401206
 30
0.0
 11
123.5881452951
 21
107.0042401206
 31
0.0
  0
ARC
  5
1BE
330
1F
100
AcDbEntity
  8
0
  6
Continuous
 62
     7
370
    15
100
AcDbCircle
 10
124.6054713662
 20
107.5042402324
 30
0.0
 40
0.5
100
AcDbArc
 50
270.0
 51
357.0
  0
ARC
  5
1BF
330
1F
100
AcDbEntity
  8
0
  6
Continuous
 62
     7
370
    15
100
AcDbCircle
 10
125.9212903879
 20
113.5042402324
 30
0.0
 40
0.5
100
AcDbArc
 50
90.0
 51
177.0
  0
ARC
  5
1C0
330
1F
100
AcDbEntity
  8
0
  6
Continuous
 62
     7
370
    15
100
AcDbCircle
 10
125.9723258212
 20
113.5042402324
 30
0.0
 40
0.5
100
AcDbArc
 50
3.0
 51
90.0
  0
ARC
  5
1C1
330
1F
100
AcDbEntity
  8
0
  6
Continuous
 62
     7
370
    15
100
AcDbCircle
 10
127.2881448429
 20
107.5042402324
 30
0.0
 40
0.5
100
AcDbArc
 50
183.0
 51
270.0
  0
LINE
  5
1C2
330
1F
100
AcDbEntity
  8
0
  6
Continuous
 62
     7
370
    15
100
AcDbLine
 10
128.3054720181
 20
107.0042401206
 30
0.0
 11
127.2881455291
 21
107.0042401206
 31
0.0
  0
ARC
  5
1C3
330
1F
100
AcDbEntity
  8
0
  6
Continuous
 62
     7
370
    15
100
AcDbCircle
 10
128.3054713662
 20
107.5042402324
 30
0.0
 40
0.5000000000000263
100
AcDbArc
 50
270.0
 51
357.0
  0
ARC
  5
1C4
330
1F
100
AcDbEntity
  8
0
  6
Continuous
 62
     7
370
    15
100
AcDbCircle
 10
129.6212903879
 20
113.5042402324
 30
0.0
 40
0.5000000000000263
100
AcDbArc
 50
90.0
 51
177.0
  0
ARC
  5
1C5
330
1F
100
AcDbEntity
  8
0
  6
Continuous
 62
     7
370
    15
100
AcDbCircle
 10
130.9881448429
 20
107.5042402324
 30
0.0
 40
0.5000000000000263
100
AcDbArc
 50
183.0
 51
270.0
  0
LINE
  5
1C6
330
1F
100
AcDbEntity
  8
0
  6
Continuous
 62
     7
370
    15
100
AcDbLine
 10
132.0054713208
 20
107.0042401206
 30
0.0
 11
130.9881448317
 21
107.0042401206
 31
0.0
  0
ARC
  5
1C7
330
1F
100
AcDbEntity
  8
0
  6
Continuous
 62
     7
370
    15
100
AcDbCircle
 10
132.0054713662
 20
107.5042402324
 30
0.0
 40
0.5
100
AcDbArc
 50
270.0
 51
357.0
  0
LINE
  5
1C8
330
1F
100
AcDbEntity
  8
0
  6
Continuous
 62
     7
370
    15
100
AcDbLine
 10
132.8219748604
 20
113.5304085564
 30
0.0
 11
132.5047868806
 21
107.4780723666
 31
0.0
  0
ARC
  5
1C9
330
1F
100
AcDbEntity
  8
0
  6
Continuous
 62
     7
370
    15
100
AcDbCircle
 10
133.3212903879
 20
113.5042402324
 30
0.0
 40
0.5000000000000263
100
AcDbArc
 50
90.0
 51
177.0
  0
LINE
  5
1CA
330
1F
100
AcDbEntity
  8
0
  6
Continuous
 62
     7
370
    15
100
AcDbLine
 10
133.3723250348
 20
114.0042403367
 30
0.0
 11
133.3212904203
 21
114.0042403367
 31
0.0
  0
ARC
  5
1CB
330
1F
100
AcDbEntity
  8
0
  6
Continuous
 62
     7
370
    15
100
AcDbCircle
 10
133.3723258212
 20
113.5042402324
 30
0.0
 40
0.5
100
AcDbArc
 50
3.0
 51
90.0
  0
ARC
  5
1CC
330
1F
100
AcDbEntity
  8
0
  6
Continuous
 62
     7
370
    15
100
AcDbCircle
 10
134.6881448429
 20
107.5042402324
 30
0.0
 40
0.5000000000000263
100
AcDbArc
 50
183.0
 51
270.0
  0
LINE
  5
1CD
330
1F
100
AcDbEntity
  8
0
  6
Continuous
 62
     7
370
    15
100
AcDbLine
 10
135.7054706234
 20
107.0042401206
 30
0.0
 11
134.6881441343
 21
107.0042401206
 31
0.0
  0
ARC
  5
1CE
330
1F
100
AcDbEntity
  8
0
  6
Continuous
 62
     7
370
    15
100
AcDbCircle
 10
135.7054713662
 20
107.5042402324
 30
0.0
 40
0.5
100
AcDbArc
 50
270.0
 51
357.0
  0
LINE
  5
1CF
330
1F
100
AcDbEntity
  8
0
  6
Continuous
 62
     7
370
    15
100
AcDbLine
 10
136.5219760257
 20
113.5304085564
 30
0.0
 11
136.2047861833
 21
107.4780723666
 31
0.0
  0
ARC
  5
1D0
330
1F
100
AcDbEntity
  8
0
  6
Continuous
 62
     7
370
    15
100
AcDbCircle
 10
137.0212903879
 20
113.5042402324
 30
0.0
 40
0.5
100
AcDbArc
 50
90.0
 51
177.0
  0
LINE
  5
1D1
330
1F
100
AcDbEntity
  8
0
  6
Continuous
 62
     7
370
    15
100
AcDbLine
 10
137.0723262
 20
114.0042403367
 30
0.0
 11
137.0212897229
 21
114.0042403367
 31
0.0
  0
ARC
  5
1D2
330
1F
100
AcDbEntity
  8
0
  6
Continuous
 62
     7
370
    15
100
AcDbCircle
 10
137.0723258212
 20
113.5042402324
 30
0.0
 40
0.5
100
AcDbArc
 50
3.0
 51
90.0
  0
LINE
  5
1D3
330
1F
100
AcDbEntity
  8
0
  6
Continuous
 62
     7
370
    15
100
AcDbLine
 10
137.8888297397
 20
107.4780723666
 30
0.0
 11
137.5716398972
 21
113.5304085564
 31
0.0
  0
ARC
  5
1D4
330
1F
100
AcDbEntity
  8
0
  6
Continuous
 62
     7
370
    15
100
AcDbCircle
 10
138.3881448429
 20
107.5042402324
 30
0.0
 40
0.5
100
AcDbArc
 50
183.0
 51
270.0
  0
LINE
  5
1D5
330
1F
100
AcDbEntity
  8
0
  6
Continuous
 62
     7
370
    15
100
AcDbLine
 10
139.4054717887
 20
107.0042401206
 30
0.0
 11
138.3881452996
 21
107.0042401206
 31
0.0
  0
ARC
  5
1D6
330
1F
100
AcDbEntity
  8
0
  6
Continuous
 62
     7
370
    15
100
AcDbCircle
 10
139.4054713662
 20
107.5042402324
 30
0.0
 40
0.5000000000000263
100
AcDbArc
 50
270.0
 51
357.0
  0
LINE
  5
1D7
330
1F
100
AcDbEntity
  8
0
  6
Continuous
 62
     7
370
    15
100
AcDbLine
 10
140.2219753283
 20
113.5304085564
 30
0.0
 11
139.9047854859
 21
107.4780723666
 31
0.0
  0
ARC
  5
1D8
330
1F
100
AcDbEntity
  8
0
  6
Continuous
 62
     7
370
    15
100
AcDbCircle
 10
140.7212903879
 20
113.5042402324
 30
0.0
 40
0.5000000000000263
100
AcDbArc
 50
90.0
 51
177.0
  0
LINE
  5
1D9
330
1F
100
AcDbEntity
  8
0
  6
Continuous
 62
     7
370
    15
100
AcDbLine
 10
140.7723255027
 20
114.0042403367
 30
0.0
 11
140.7212908882
 21
114.0042403367
 31
0.0
  0
ARC
  5
1DA
330
1F
100
AcDbEntity
  8
0
  6
Continuous
 62
     7
370
    15
100
AcDbCircle
 10
140.7723258212
 20
113.5042402324
 30
0.0
 40
0.5000000000000263
100
AcDbArc
 50
3.0
 51
90.0
  0
LINE
  5
1DB
330
1F
100
AcDbEntity
  8
0
  6
Continuous
 62
     7
370
    15
100
AcDbLine
 10
141.588830905
 20
107.4780723666
 30
0.0
 11
141.2716410625
 21
113.5304085564
 31
0.0
  0
ARC
  5
1DC
330
1F
100
AcDbEntity
  8
0
  6
Continuous
 62
     7
370
    15
100
AcDbCircle
 10
142.0881448429
 20
107.5042402324
 30
0.0
 40
0.5000000000000263
100
AcDbArc
 50
183.0
 51
270.0
  0
LINE
  5
1DD
330
1F
100
AcDbEntity
  8
0
  6
Continuous
 62
     7
370
    15
100
AcDbLine
 10
143.1054710913
 20
107.0042401206
 30
0.0
 11
142.0881464648
 21
107.0042401206
 31
0.0
  0
ARC
  5
1DE
330
1F
100
AcDbEntity
  8
0
  6
Continuous
 62
     7
370
    15
100
AcDbCircle
 10
143.1054713662
 20
107.5042402324
 30
0.0
 40
0.5
100
AcDbArc
 50
270.0
 51
357.0
  0
LINE
  5
1DF
330
1F
100
AcDbEntity
  8
0
  6
Continuous
 62
     7
370
    15
100
AcDbLine
 10
143.9219764936
 20
113.5304085564
 30
0.0
 11
143.6047866512
 21
107.4780723666
 31
0.0
  0
ARC
  5
1E0
330
1F
100
AcDbEntity
  8
0
  6
Continuous
 62
     7
370
    15
100
AcDbCircle
 10
144.4212903879
 20
113.5042402324
 30
0.0
 40
0.5000000000000263
100
AcDbArc
 50
90.0
 51
177.0
  0
LINE
  5
1E1
330
1F
100
AcDbEntity
  8
0
  6
Continuous
 62
     7
370
    15
100
AcDbLine
 10
144.4723248053
 20
114.0042403367
 30
0.0
 11
144.4212920535
 21
114.0042403367
 31
0.0
  0
ARC
  5
1E2
330
1F
100
AcDbEntity
  8
0
  6
Continuous
 62
     7
370
    15
100
AcDbCircle
 10
144.4723258212
 20
113.5042402324
 30
0.0
 40
0.5
100
AcDbArc
 50
3.0
 51
90.0
  0
LINE
  5
1E3
330
1F
100
AcDbEntity
  8
0
  6
Continuous
 62
     7
370
    15
100
AcDbLine
 10
145.2888302076
 20
107.4780723666
 30
0.0
 11
144.9716403651
 21
113.5304085564
 31
0.0
  0
ARC
  5
1E4
330
1F
100
AcDbEntity
  8
0
  6
Continuous
 62
     7
370
    15
100
AcDbCircle
 10
145.7881448429
 20
107.5042402324
 30
0.0
 40
0.5000000000000263
100
AcDbArc
 50
183.0
 51
270.0
  0
LINE
  5
1E5
330
1F
100
AcDbEntity
  8
0
  6
Continuous
 62
     7
370
    15
100
AcDbLine
 10
146.460877316
 20
107.0042401206
 30
0.0
 11
145.7881457675
 21
107.0042401206
 31
0.0
  0
ARC
  5
1E6
330
1F
100
AcDbEntity
  8
0
  6
Continuous
 62
     7
370
    15
100
AcDbCircle
 10
146.4608764355
 20
107.5042402324
 30
0.0
 40
0.5000000000000301
100
AcDbArc
 50
270.0
 51
354.0
  0
ARC
  5
1E7
330
1F
100
AcDbEntity
  8
0
  6
Continuous
 62
     7
370
    15
100
AcDbCircle
 10
148.0970101267
 20
113.5042402324
 30
0.0
 40
0.5
100
AcDbArc
 50
90.0
 51
174.0
  0
LINE
  5
1E8
330
1F
100
AcDbEntity
  8
0
  6
Continuous
 62
     7
370
    15
100
AcDbLine
 10
112.3354788208
 20
107.4519757767
 30
0.0
 11
111.6938670668
 21
113.556504215
 31
0.0
  0
ARC
  5
1E9
330
1F
100
AcDbEntity
  8
0
  6
Continuous
 62
     7
370
    15
100
AcDbCircle
 10
148.1468081045
 20
113.5042402324
 30
0.0
 40
0.5000000000000284
100
AcDbArc
 50
0.0
 51
90.0
  0
LINE
  5
1EA
330
1F
100
AcDbEntity
  8
0
  6
Continuous
 62
     7
370
    15
100
AcDbLine
 10
147.5997507143
 20
113.556504215
 30
0.0
 11
146.9581365156
 21
107.4519757767
 31
0.0
  0
LINE
  5
1EB
330
1F
100
AcDbEntity
  8
0
  6
Continuous
 62
     7
370
    15
100
AcDbLine
 10
148.1468095947
 20
114.0042403367
 30
0.0
 11
148.0970099139
 21
114.0042403367
 31
0.0
  0
LINE
  5
1EC
330
1F
100
AcDbEntity
  8
0
  6
Continuous
 62
     7
370
    15
100
AcDbLine
 10
148.6468068826
 20
102.0042402324
 30
0.0
 11
148.6468068826
 21
113.5042402547
 31
0.0
  0
LINE
  5
1ED
330
1F
100
AcDbEntity
  8
0
  6
Continuous
 62
     7
370
    15
100
AcDbLine
 10
134.1888304371
 20
107.4780723666
 30
0.0
 11
133.8716405946
 21
113.5304085564
 31
0.0
  0
LINE
  5
1EE
330
1F
100
AcDbEntity
  8
0
  6
Continuous
 62
     7
370
    15
100
AcDbLine
 10
110.6468081045
 20
113.5042402547
 30
0.0
 11
110.6468081045
 21
102.0042402324
 31
0.0
  0
LINE
  5
1EF
330
1F
100
AcDbEntity
  8
0
  6
Continuous
 62
     7
370
    15
100
AcDbLine
 10
111.1966060628
 20
114.0042403367
 30
0.0
 11
111.1468081283
 21
114.0042403367
 31
0.0
  0
LINE
  5
1F0
330
1F
100
AcDbEntity
  8
0
  6
Continuous
 62
     7
370
    15
100
AcDbLine
 10
130.4888292718
 20
107.4780723666
 30
0.0
 11
130.1468085069
 21
114.0042403367
 31
0.0
  0
LINE
  5
1F1
330
1F
100
AcDbEntity
  8
0
  6
Continuous
 62
     7
370
    15
100
AcDbLine
 10
130.1468085069
 20
114.0042403367
 30
0.0
 11
129.6212911177
 21
114.0042403367
 31
0.0
  0
LINE
  5
1F2
330
1F
100
AcDbEntity
  8
0
  6
Continuous
 62
     7
370
    15
100
AcDbLine
 10
129.1219755578
 20
113.5304085564
 30
0.0
 11
128.8047857154
 21
107.4780723666
 31
0.0
  0
LINE
  5
1F3
330
1F
100
AcDbEntity
  8
0
  6
Continuous
 62
     7
370
    15
100
AcDbLine
 10
126.7888299692
 20
107.4780723666
 30
0.0
 11
126.4716401267
 21
113.5304085564
 31
0.0
  0
LINE
  5
1F4
330
1F
100
AcDbEntity
  8
0
  6
Continuous
 62
     7
370
    15
100
AcDbLine
 10
125.9723254982
 20
114.0042403367
 30
0.0
 11
125.9212899524
 21
114.0042403367
 31
0.0
  0
LINE
  5
1F5
330
1F
100
AcDbEntity
  8
0
  6
Continuous
 62
     7
370
    15
100
AcDbLine
 10
125.4219753239
 20
113.5304085564
 30
0.0
 11
125.1047864127
 21
107.4780723666
 31
0.0
  0
LINE
  5
1F6
330
1F
100
AcDbEntity
  8
0
  6
Continuous
 62
     7
370
    15
100
AcDbLine
 10
123.0888297352
 20
107.4780723666
 30
0.0
 11
122.7716408241
 21
113.5304085564
 31
0.0
  0
LINE
  5
1F7
330
1F
100
AcDbEntity
  8
0
  6
Continuous
 62
     7
370
    15
100
AcDbLine
 10
122.2723261956
 20
114.0042403367
 30
0.0
 11
122.2212906498
 21
114.0042403367
 31
0.0
  0
LINE
  5
1F8
330
1F
100
AcDbEntity
  8
0
  6
Continuous
 62
     7
370
    15
100
AcDbLine
 10
121.7219760212
 20
113.5304085564
 30
0.0
 11
121.4047861788
 21
107.4780723666
 31
0.0
  0
LINE
  5
1F9
330
1F
100
AcDbEntity
  8
0
  6
Continuous
 62
     7
370
    15
100
AcDbLine
 10
119.3888304326
 20
107.4780723666
 30
0.0
 11
119.0716405902
 21
113.5304085564
 31
0.0
  0
LINE
  5
1FA
330
1F
100
AcDbEntity
  8
0
  6
Continuous
 62
     7
370
    15
100
AcDbLine
 10
118.5723259616
 20
114.0042403367
 30
0.0
 11
118.5212904158
 21
114.0042403367
 31
0.0
  0
LINE
  5
1FB
330
1F
100
AcDbEntity
  8
0
  6
Continuous
 62
     7
370
    15
100
AcDbLine
 10
118.0219757873
 20
113.5304085564
 30
0.0
 11
117.7047859448
 21
107.4780723666
 31
0.0
  0
LINE
  5
1FC
330
1F
100
AcDbEntity
  8
0
  6
HIDDEN
 62
     7
370
     0
100
AcDbLine
 10
133.6968089956
 20
107.0042401206
 30
0.0
 11
132.0054713208
 21
107.0042401206
 31
0.0
  0
LINE
  5
1FD
330
1F
100
AcDbEntity
  8
0
  6
HIDDEN
 62
     7
370
     0
100
AcDbLine
 10
130.9881448317
 20
107.0042401206
 30
0.0
 11
130.7568080294
 21
107.0042401206
 31
0.0
  0
LINE
  5
1FE
330
1F
100
AcDbEntity
  8
0
  6
HIDDEN
 62
     7
370
     0
100
AcDbLine
 10
148.6468068826
 20
109.6042403605
 30
0.0
 11
147.1843510437
 21
109.6042403605
 31
0.0
  0
LINE
  5
1FF
330
1F
100
AcDbEntity
  8
0
  6
HIDDEN
 62
     7
370
     0
100
AcDbLine
 10
146.7689923513
 20
107.1042404164
 30
0.0
 11
148.6468068826
 21
107.1042404164
 31
0.0
  0
LINE
  5
200
330
1F
100
AcDbEntity
  8
0
  6
HIDDEN
 62
     7
370
     0
100
AcDbLine
 10
145.1774030495
 20
109.6042403605
 30
0.0
 11
143.7162138093
 21
109.6042403605
 31
0.0
  0
LINE
  5
201
330
1F
100
AcDbEntity
  8
0
  6
HIDDEN
 62
     7
370
     0
100
AcDbLine
 10
143.4090002942
 20
107.1042404164
 30
0.0
 11
145.4846165645
 21
107.1042404164
 31
0.0
  0
LINE
  5
202
330
1F
100
AcDbEntity
  8
0
  6
HIDDEN
 62
     7
370
     0
100
AcDbLine
 10
141.5311038065
 20
108.5795377967
 30
0.0
 11
141.395732345
 21
108.3542401557
 31
0.0
  0
LINE
  5
203
330
1F
100
AcDbEntity
  8
0
  6
HIDDEN
 62
     7
370
     0
100
AcDbLine
 10
141.395732345
 20
108.3542401557
 30
0.0
 11
141.5569759476
 21
108.085886075
 31
0.0
  0
LINE
  5
204
330
1F
100
AcDbEntity
  8
0
  6
HIDDEN
 62
     7
370
     0
100
AcDbLine
 10
133.6968089956
 20
102.0042402324
 30
0.0
 11
133.6968089956
 21
107.0042401206
 31
0.0
  0
LINE
  5
205
330
1F
100
AcDbEntity
  8
0
  6
HIDDEN
 62
     7
370
     0
100
AcDbLine
 10
131.1968076545
 20
107.0042401206
 30
0.0
 11
131.1968076545
 21
102.0042402324
 31
0.0
  0
LINE
  5
206
330
1F
100
AcDbEntity
  8
0
  6
HIDDEN
 62
     7
370
     0
100
AcDbLine
 10
133.6968089956
 20
107.0042401206
 30
0.0
 11
132.5174100268
 21
107.7128941779
 31
0.0
  0
LINE
  5
207
330
1F
100
AcDbEntity
  8
0
  6
HIDDEN
 62
     7
370
     0
100
AcDbLine
 10
133.2568075079
 20
107.0042401206
 30
0.0
 11
132.5099724847
 21
107.4529839334
 31
0.0
  0
LINE
  5
208
330
1F
100
AcDbEntity
  8
0
  6
HIDDEN
 62
     7
370
     0
100
AcDbLine
 10
133.2568075079
 20
102.0042402324
 30
0.0
 11
133.2568075079
 21
107.0042401206
 31
0.0
  0
LINE
  5
209
330
1F
100
AcDbEntity
  8
0
  6
HIDDEN
 62
     7
370
     0
100
AcDbLine
 10
130.7568080294
 20
107.0042401206
 30
0.0
 11
130.7568080294
 21
102.0042402324
 31
0.0
  0
LINE
  5
20A
330
1F
100
AcDbEntity
  8
0
  6
HIDDEN
 62
     7
370
     0
100
AcDbLine
 10
130.8163810092
 20
107.0400355038
 30
0.0
 11
130.7568080294
 21
107.0042401206
 31
0.0
  0
DIMENSION
  5
20B
330
1F
100
AcDbEntity
  8
0
  6
Continuous
 62
     7
370
     0
100
AcDbDimension
  2
*D22
 10
148.6468081045
 20
92.0042402324
 30
0.0
 11
131.731110356
 21
92.0042402324
 31
0.0
 70
   160
 71
     2
 42
-1.0
  3
SLDDIMSTYLE1
100
AcDbAlignedDimension
 13
110.6468081045
 23
102.0042402324
 33
0.0
 14
148.6468081045
 24
102.0042402324
 34
0.0
100
AcDbRotatedDimension
  0
DIMENSION
  5
215
330
1F
100
AcDbEntity
  8
0
  6
Continuous
 62
     7
370
     0
100
AcDbDimension
  2
*D23
 10
158.6468081045
 20
114.0042402324
 30
0.0
 11
158.6468081045
 21
108.6291102334
 31
0.0
 70
   160
 71
     2
 42
-1.0
  3
SLDDIMSTYLE0
100
AcDbAlignedDimension
 13
148.6468081045
 23
102.0042402324
 33
0.0
 14
148.0970101267
 24
114.0042402324
 34
0.0
 50
90.0
100
AcDbRotatedDimension
  0
LINE
  5
221
330
1F
100
AcDbEntity
  8
0
  6
HIDDEN
 62
     7
370
     0
100
AcDbLine
 10
148.6468081045
 20
106.8542402324
 30
0.0
 11
143.6468081045
 21
106.8542402324
 31
0.0
  0
LINE
  5
222
330
1F
100
AcDbEntity
  8
0
  6
HIDDEN
 62
     7
370
     0
100
AcDbLine
 10
148.6468081045
 20
109.8542402324
 30
0.0
 11
147.2106255282
 21
109.8542402324
 31
0.0
  0
LINE
  5
223
330
1F
100
AcDbEntity
  8
0
  6
HIDDEN
 62
     7
370
     0
100
AcDbLine
 10
145.1643003886
 20
109.8542402324
 30
0.0
 11
143.7293158205
 21
109.8542402324
 31
0.0
  0
LINE
  5
224
330
1F
100
AcDbEntity
  8
0
  6
HIDDEN
 62
     7
370
     0
100
AcDbLine
 10
143.6468081045
 20
106.8542402324
 30
0.0
 11
143.6468081045
 21
107.1042402324
 31
0.0
  0
LINE
  5
225
330
1F
100
AcDbEntity
  8
0
  6
HIDDEN
 62
     7
370
     0
100
AcDbLine
 10
148.6468081045
 20
106.8542402324
 30
0.0
 11
143.6468081045
 21
106.8542402324
 31
0.0
  0
LINE
  5
226
330
1F
100
AcDbEntity
  8
0
  6
HIDDEN
 62
     7
370
     0
100
AcDbLine
 10
148.6468081045
 20
109.8542402324
 30
0.0
 11
147.2106255282
 21
109.8542402324
 31
0.0
  0
LINE
  5
227
330
1F
100
AcDbEntity
  8
0
  6
HIDDEN
 62
     7
370
     0
100
AcDbLine
 10
145.1643003886
 20
109.8542402324
 30
0.0
 11
143.7293158205
 21
109.8542402324
 31
0.0
  0
LINE
  5
228
330
1F
100
AcDbEntity
  8
0
  6
HIDDEN
 62
     7
370
     0
100
AcDbLine
 10
143.6468081045
 20
106.8542402324
 30
0.0
 11
143.6468081045
 21
107.1042402324
 31
0.0
  0
LINE
  5
229
330
1F
100
AcDbEntity
  8
0
  6
HIDDEN
 62
     7
370
     0
100
AcDbLine
 10
130.9468081045
 20
102.0042402324
 30
0.0
 11
130.9468081045
 21
107.0042402324
 31
0.0
  0
LINE
  5
22A
330
1F
100
AcDbEntity
  8
0
  6
HIDDEN
 62
     7
370
     0
100
AcDbLine
 10
133.9468081045
 20
102.0042402324
 30
0.0
 11
133.9468081045
 21
107.0042402324
 31
0.0
  0
LINE
  5
22B
330
1F
100
AcDbEntity
  8
0
  6
HIDDEN
 62
     7
370
     0
100
AcDbLine
 10
133.9468081045
 20
107.0042402324
 30
0.0
 11
130.9468081045
 21
107.0042402324
 31
0.0
  0
LINE
  5
22C
330
1F
100
AcDbEntity
  8
0
  6
HIDDEN
 62
     7
370
     0
100
AcDbLine
 10
130.9468081045
 20
102.0042402324
 30
0.0
 11
130.9468081045
 21
107.0042402324
 31
0.0
  0
LINE
  5
22D
330
1F
100
AcDbEntity
  8
0
  6
HIDDEN
 62
     7
370
     0
100
AcDbLine
 10
133.9468081045
 20
102.0042402324
 30
0.0
 11
133.9468081045
 21
107.0042402324
 31
0.0
  0
LINE
  5
22E
330
1F
100
AcDbEntity
  8
0
  6
HIDDEN
 62
     7
370
     0
100
AcDbLine
 10
133.9468081045
 20
107.0042402324
 30
0.0
 11
130.9468081045
 21
107.0042402324
 31
0.0
  0
LINE
  5
22F
330
1F
100
AcDbEntity
  8
0
  6
HIDDEN
 62
     7
370
     0
100
AcDbLine
 10
130.5068081045
 20
102.0042402324
 30
0.0
 11
130.5068081045
 21
107.0042402324
 31
0.0
  0
LINE
  5
230
330
1F
100
AcDbEntity
  8
0
  6
HIDDEN
 62
     7
370
     0
100
AcDbLine
 10
133.5068081045
 20
102.0042402324
 30
0.0
 11
133.5068081045
 21
107.0042402324
 31
0.0
  0
LINE
  5
231
330
1F
100
AcDbEntity
  8
0
  6
HIDDEN
 62
     7
370
     0
100
AcDbLine
 10
133.5068081045
 20
107.0042402324
 30
0.0
 11
130.5068081045
 21
107.0042402324
 31
0.0
  0
LINE
  5
232
330
1F
100
AcDbEntity
  8
0
  6
CENTERX2
 62
     7
370
     0
100
AcDbLine
 10
139.3957323307
 20
108.3542402324
 30
0.0
 11
150.6468081045
 21
108.3542402324
 31
0.0
  0
LINE
  5
233
330
1F
100
AcDbEntity
  8
0
  6
CENTERX2
 62
     7
370
     0
100
AcDbLine
 10
132.4468081045
 20
110.2603032506
 30
0.0
 11
132.4468081045
 21
100.0042402324
 31
0.0
  0
LINE
  5
234
330
1F
100
AcDbEntity
  8
0
  6
CENTERX2
 62
     7
370
     0
100
AcDbLine
 10
132.0068081045
 20
107.0042402324
 30
0.0
 11
132.0068081045
 21
109.4570310312
 31
0.0
  0
LINE
  5
235
330
1F
100
AcDbEntity
  8
0
  6
CENTERX2
 62
     7
370
     0
100
AcDbLine
 10
132.0068081045
 20
107.0042402324
 30
0.0
 11
132.0068081045
 21
100.0042402324
 31
0.0
  0
LINE
  5
236
330
1F
100
AcDbEntity
  8
0
  6
Continuous
 62
     7
370
    15
100
AcDbLine
 10
56.029682352
 20
67.8454052865
 30
0.0
 11
56.029682352
 21
136.2878563763
 31
0.0
  0
LINE
  5
237
330
1F
100
AcDbEntity
  8
0
  6
Continuous
 62
     7
370
    15
100
AcDbLine
 10
53.4314318743
 20
135.715174133
 30
0.0
 11
53.4314318743
 21
137.78779445
 31
0.0
  0
LINE
  5
238
330
1F
100
AcDbEntity
  8
0
  6
Continuous
 62
     7
370
    15
100
AcDbLine
 10
50.8151359599
 20
137.11576136
 30
0.0
 11
50.8151359599
 21
139.2981499326
 31
0.0
  0
LINE
  5
239
330
1F
100
AcDbEntity
  8
0
  6
Continuous
 62
     7
370
    15
100
AcDbLine
 10
48.1988400456
 20
138.6261168425
 30
0.0
 11
48.1988400456
 21
140.8085054151
 31
0.0
  0
LINE
  5
23A
330
1F
100
AcDbEntity
  8
0
  6
Continuous
 62
     7
370
    15
100
AcDbLine
 10
45.5825454483
 20
140.1364715647
 30
0.0
 11
45.5825454483
 21
142.3188601373
 31
0.0
  0
LINE
  5
23B
330
1F
100
AcDbEntity
  8
0
  6
Continuous
 62
     7
370
    15
100
AcDbLine
 10
40.3499549366
 20
143.1571817695
 30
0.0
 11
40.3499549366
 21
145.3395703421
 31
0.0
  0
LINE
  5
23C
330
1F
100
AcDbEntity
  8
0
  6
Continuous
 62
     7
370
    15
100
AcDbLine
 10
37.7336603394
 20
144.6675364917
 30
0.0
 11
37.7336603394
 21
146.8499250643
 31
0.0
  0
LINE
  5
23D
330
1F
100
AcDbEntity
  8
0
  6
Continuous
 62
     7
370
    15
100
AcDbLine
 10
35.1173650836
 20
146.1778915941
 30
0.0
 11
35.1173650836
 21
148.3602801666
 31
0.0
  0
LINE
  5
23E
330
1F
100
AcDbEntity
  8
0
  6
Continuous
 62
     7
370
    15
100
AcDbLine
 10
32.5010698277
 20
147.6882466964
 30
0.0
 11
32.5010698277
 21
149.870635269
 31
0.0
  0
LINE
  5
23F
330
1F
100
AcDbEntity
  8
0
  6
Continuous
 62
     7
370
    15
100
AcDbLine
 10
29.9019435681
 20
149.2075254932
 30
0.0
 11
29.9019435681
 21
151.3710789208
 31
0.0
  0
LINE
  5
240
330
1F
100
AcDbEntity
  8
0
  6
Continuous
 62
     7
370
    15
100
AcDbLine
 10
47.7515065664
 20
131.3894084231
 30
0.0
 11
47.7515065664
 21
62.9469573334
 31
0.0
  0
LINE
  5
241
330
1F
100
AcDbEntity
  8
0
  6
Continuous
 62
     7
370
    15
100
AcDbLine
 10
47.7515065664
 20
131.3894084231
 30
0.0
 11
55.8832345658
 21
136.0837550752
 31
0.0
  0
LINE
  5
242
330
1F
100
AcDbEntity
  8
0
  6
Continuous
 62
     7
370
    15
100
AcDbLine
 10
55.8832345658
 20
67.6413039855
 30
0.0
 11
55.8832345658
 21
136.0837550752
 31
0.0
  0
LINE
  5
243
330
1F
100
AcDbEntity
  8
0
  6
Continuous
 62
     7
370
    15
100
AcDbLine
 10
47.7515065664
 20
62.9469573334
 30
0.0
 11
55.8832345658
 21
67.6413039855
 31
0.0
  0
LWPOLYLINE
  5
244
330
1F
100
AcDbEntity
  8
0
  6
Continuous
 62
     7
370
    15
100
AcDbPolyline
 90
       28
 70
   128
 43
0.0
 10
53.125518194
 20
74.2147161469
 10
53.1016930415
 20
74.436346737
 10
53.0315017458
 20
74.6185201176
 10
52.918728633
 20
74.7514170269
 10
52.769453386
 20
74.8278725735
 10
52.5917230892
 20
74.8437641035
 10
52.3951192362
 20
74.7982357673
 10
52.1902414299
 20
74.6937419148
 10
51.9881341204
 20
74.5359153992
 10
51.7996929266
 20
74.3332651579
 10
51.6350768852
 20
74.0967159983
 10
51.5031608713
 20
73.8390202403
 10
51.4110558486
 20
73.5740701133
 10
51.3637275719
 20
73.3161498764
 10
51.3637275719
 20
73.0791630233
 10
51.4110558486
 20
72.8758868515
 10
51.5031608713
 20
72.7172789201
 10
51.6350768852
 20
72.6118901498
 10
51.7996929266
 20
72.5654026259
 10
51.9881341204
 20
72.5803211956
 10
52.1902414299
 20
72.655843573
 10
52.3951192362
 20
72.7878966006
 10
52.5917230892
 20
72.9693614809
 10
52.769453386
 20
73.1904568041
 10
52.918728633
 20
73.439261122
 10
53.0315017458
 20
73.7023630959
 10
53.1016930415
 20
73.9655783819
 10
53.125518194
 20
74.2147161469
  0
LWPOLYLINE
  5
245
330
1F
100
AcDbEntity
  8
0
  6
Continuous
 62
     7
370
    15
100
AcDbPolyline
 90
       28
 70
   128
 43
0.0
 10
53.125518194
 20
126.326352885
 10
53.1016930415
 20
126.547983475
 10
53.0315017458
 20
126.7301568556
 10
52.918728633
 20
126.8630545253
 10
52.769453386
 20
126.9395093115
 10
52.5917230892
 20
126.955400081
 10
52.3951192362
 20
126.9098702239
 10
52.1902414299
 20
126.8053763715
 10
51.9881341204
 20
126.6475521372
 10
51.7996929266
 20
126.4449018959
 10
51.6350768852
 20
126.2083519758
 10
51.5031608713
 20
125.9506546969
 10
51.4110558486
 20
125.6857038094
 10
51.3637275719
 20
125.4277850934
 10
51.3637275719
 20
125.1908005217
 10
51.4110558486
 20
124.9875197872
 10
51.5031608713
 20
124.8289110954
 10
51.6350768852
 20
124.7235268878
 10
51.7996929266
 20
124.6770386035
 10
51.9881341204
 20
124.6919579336
 10
52.1902414299
 20
124.7674757482
 10
52.3951192362
 20
124.8995287758
 10
52.5917230892
 20
125.0809989794
 10
52.769453386
 20
125.3020927816
 10
52.918728633
 20
125.5508970995
 10
53.0315017458
 20
125.8139998339
 10
53.1016930415
 20
126.0772143594
 10
53.125518194
 20
126.326352885
  0
LINE
  5
246
330
1F
100
AcDbEntity
  8
0
  6
Continuous
 62
     7
370
    15
100
AcDbLine
 10
20.8814497453
 20
146.901162049
 30
0.0
 11
20.8814497453
 21
78.4587109592
 31
0.0
  0
LINE
  5
247
330
1F
100
AcDbEntity
  8
0
  6
Continuous
 62
     7
370
    15
100
AcDbLine
 10
20.8814497453
 20
146.901162049
 30
0.0
 11
47.7515065664
 21
131.3894084231
 31
0.0
  0
LINE
  5
248
330
1F
100
AcDbEntity
  8
0
  6
Continuous
 62
     7
370
    15
100
AcDbLine
 10
20.8814497453
 20
78.4587109592
 30
0.0
 11
47.7515065664
 21
62.9469573334
 31
0.0
  0
LWPOLYLINE
  5
249
330
1F
100
AcDbEntity
  8
0
  6
Continuous
 62
     7
370
    15
100
AcDbPolyline
 90
       28
 70
   128
 43
0.0
 10
37.1802616817
 20
108.4558663642
 10
37.1564355414
 20
108.70500546
 10
37.0862452336
 20
108.9682194153
 10
36.9734721208
 20
109.2313221496
 10
36.8241958859
 20
109.4801270378
 10
36.646466577
 20
109.7012202697
 10
36.4498620654
 20
109.8826878116
 10
36.2449849177
 20
110.0147404591
 10
36.0428762911
 20
110.0902620759
 10
35.8544364143
 20
110.1051806456
 10
35.6898200436
 20
110.0586925514
 10
35.5579043591
 20
109.9533051119
 10
35.4657990071
 20
109.7946966102
 10
35.4184707304
 20
109.5914189175
 10
35.4184707304
 20
109.3544343458
 10
35.4657990071
 20
109.0965125879
 10
35.5579043591
 20
108.8315615104
 10
35.6898200436
 20
108.5738674634
 10
35.8544364143
 20
108.3373173532
 10
36.0428762911
 20
108.1346678723
 10
36.2449849177
 20
107.9768398358
 10
36.4498620654
 20
107.8723463636
 10
36.646466577
 20
107.8268191681
 10
36.8241958859
 20
107.8427105078
 10
36.9734721208
 20
107.9191647238
 10
37.0862452336
 20
108.0520623936
 10
37.1564355414
 20
108.2342363444
 10
37.1802616817
 20
108.4558663642
  0
LWPOLYLINE
  5
24A
330
1F
100
AcDbEntity
  8
0
  6
Continuous
 62
     7
370
    15
100
AcDbPolyline
 90
       28
 70
   128
 43
0.0
 10
37.1802616817
 20
123.4883834868
 10
37.1564355414
 20
123.7375225826
 10
37.0862452336
 20
124.0007365379
 10
36.9734721208
 20
124.2638392722
 10
36.8241958859
 20
124.5126441604
 10
36.646466577
 20
124.7337373924
 10
36.4498620654
 20
124.9152018924
 10
36.2449849177
 20
125.0472545398
 10
36.0428762911
 20
125.1227791985
 10
35.8544364143
 20
125.1376977683
 10
35.6898200436
 20
125.091209674
 10
35.5579043591
 20
124.9858191927
 10
35.4657990071
 20
124.827210691
 10
35.4184707304
 20
124.6239360401
 10
35.4184707304
 20
124.3869514684
 10
35.4657990071
 20
124.1290266687
 10
35.5579043591
 20
123.8640816748
 10
35.6898200436
 20
123.606384586
 10
35.8544364143
 20
123.3698344758
 10
36.0428762911
 20
123.1671849949
 10
36.2449849177
 20
123.0093600003
 10
36.4498620654
 20
122.904866528
 10
36.646466577
 20
122.8593362907
 10
36.8241958859
 20
122.8752276305
 10
36.9734721208
 20
122.9516818464
 10
37.0862452336
 20
123.0845795162
 10
37.1564355414
 20
123.266753467
 10
37.1802616817
 20
123.4883834868
  0
LWPOLYLINE
  5
24B
330
1F
100
AcDbEntity
  8
0
  6
Continuous
 62
     7
370
    15
100
AcDbPolyline
 90
       28
 70
   128
 43
0.0
 10
36.869133646
 20
94.1173808399
 10
36.8453088228
 20
94.3665191754
 10
36.7751171979
 20
94.629733891
 10
36.6623440851
 20
94.8928351044
 10
36.5130691673
 20
95.1416422741
 10
36.3353385413
 20
95.3627362664
 10
36.1387353468
 20
95.5442000061
 10
35.933856882
 20
95.6762534139
 10
35.7317495725
 20
95.7517773122
 10
35.5433083786
 20
95.7666966423
 10
35.378693325
 20
95.7202077878
 10
35.2467763234
 20
95.6148195877
 10
35.1546722885
 20
95.4562103256
 10
35.1073440118
 20
95.2529341538
 10
35.1073440118
 20
95.0159480612
 10
35.1546722885
 20
94.7580278243
 10
35.2467763234
 20
94.493077507
 10
35.378693325
 20
94.2353811788
 10
35.5433083786
 20
93.9988333499
 10
35.7317495725
 20
93.7961831086
 10
35.933856882
 20
93.6383558325
 10
36.1387353468
 20
93.5338615999
 10
36.3353385413
 20
93.4883336438
 10
36.5130691673
 20
93.5042257442
 10
36.6623440851
 20
93.5806807205
 10
36.7751171979
 20
93.7135768693
 10
36.8453088228
 20
93.8957515807
 10
36.869133646
 20
94.1173808399
  0
LINE
  5
24C
330
1F
100
AcDbEntity
  8
0
  6
Continuous
 62
     7
370
    15
100
AcDbLine
 10
29.0131777447
 20
151.5955087011
 30
0.0
 11
20.8814497453
 21
146.901162049
 31
0.0
  0
ARC
  5
24D
330
1F
100
AcDbEntity
  8
0
  6
Continuous
 62
     7
370
    15
100
AcDbCircle
 10
29.3667311956
 20
150.9131530054
 30
0.0
 40
0.7685111177437245
100
AcDbArc
 50
62.6096773508
 51
117.3903264997
  0
LINE
  5
24E
330
1F
100
AcDbEntity
  8
0
  6
Continuous
 62
     7
370
    15
100
AcDbLine
 10
29.7554970578
 20
151.575181006
 30
0.0
 11
29.7202846007
 21
151.5955087249
 31
0.0
  0
LWPOLYLINE
  5
24F
330
1F
100
AcDbEntity
  8
0
  6
Continuous
 62
     7
370
    15
100
AcDbPolyline
 90
        9
 70
   128
 43
0.0
 10
29.790516438
 20
151.1894293465
 10
29.841352452
 20
151.2333501563
 10
29.8774717249
 20
151.2818829468
 10
29.8976658688
 20
151.3334032292
 10
29.901258476
 20
151.386185461
 10
29.8881287861
 20
151.4384616157
 10
29.8587162539
 20
151.4884808932
 10
29.8140067617
 20
151.5345686226
 10
29.7554970578
 20
151.575181006
  0
LINE
  5
250
330
1F
100
AcDbEntity
  8
0
  6
Continuous
 62
     7
370
    15
100
AcDbLine
 10
25.9276510054
 20
148.4356275582
 30
0.0
 11
29.790516438
 21
151.1894293465
 31
0.0
  0
LWPOLYLINE
  5
251
330
1F
100
AcDbEntity
  8
0
  6
Continuous
 62
     7
370
    15
100
AcDbPolyline
 90
        9
 70
   128
 43
0.0
 10
25.9626706737
 20
148.0498761125
 10
25.9041609698
 20
148.090488496
 10
25.8594515599
 20
148.1365761778
 10
25.8300393158
 20
148.1865956692
 10
25.8169092554
 20
148.2388716576
 10
25.8205015334
 20
148.2916536993
 10
25.8406957184
 20
148.3431739579
 10
25.8768156499
 20
148.3917071285
 10
25.9276510054
 20
148.4356275582
  0
LINE
  5
252
330
1F
100
AcDbEntity
  8
0
  6
Continuous
 62
     7
370
    15
100
AcDbLine
 10
26.4383637136
 20
147.7752643659
 30
0.0
 11
25.9626706737
 21
148.0498761125
 31
0.0
  0
ARC
  5
253
330
1F
100
AcDbEntity
  8
0
  6
Continuous
 62
     7
370
    15
100
AcDbCircle
 10
26.7929026571
 20
148.4633008816
 30
0.0
 40
0.774010406562588
100
AcDbArc
 50
242.7383614918
 51
295.5295209334
  0
LINE
  5
254
330
1F
100
AcDbEntity
  8
0
  6
Continuous
 62
     7
370
    15
100
AcDbLine
 10
31.6304173534
 20
150.1059724492
 30
0.0
 11
27.1264826322
 21
147.7648622589
 31
0.0
  0
ARC
  5
255
330
1F
100
AcDbEntity
  8
0
  6
Continuous
 62
     7
370
    15
100
AcDbCircle
 10
31.963996966
 20
149.40753297
 30
0.0
 40
0.7740110232651525
100
AcDbArc
 50
62.738395962
 51
115.5294693964
  0
LINE
  5
256
330
1F
100
AcDbEntity
  8
0
  6
Continuous
 62
     7
370
    15
100
AcDbLine
 10
32.3546233586
 20
150.0747373304
 30
0.0
 11
32.3185357781
 21
150.0955702472
 31
0.0
  0
ARC
  5
257
330
1F
100
AcDbEntity
  8
0
  6
Continuous
 62
     7
370
    15
100
AcDbCircle
 10
32.2804393088
 20
149.8723424749
 30
0.0
 40
0.215561941918415
100
AcDbArc
 50
295.3238318725
 51
69.8705335667
  0
LINE
  5
258
330
1F
100
AcDbEntity
  8
0
  6
Continuous
 62
     7
370
    15
100
AcDbLine
 10
28.3172815801
 20
147.0774286587
 30
0.0
 11
32.3726424534
 21
149.6774950193
 31
0.0
  0
ARC
  5
259
330
1F
100
AcDbEntity
  8
0
  6
Continuous
 62
     7
370
    15
100
AcDbCircle
 10
28.4094845223
 20
146.8825810357
 30
0.0
 40
0.2155620067453689
100
AcDbArc
 50
115.3237641855
 51
249.8705039822
  0
LINE
  5
25A
330
1F
100
AcDbEntity
  8
0
  6
Continuous
 62
     7
370
    15
100
AcDbLine
 10
29.0546588047
 20
146.2649093585
 30
0.0
 11
28.3353003456
 21
146.6801861576
 31
0.0
  0
ARC
  5
25B
330
1F
100
AcDbEntity
  8
0
  6
Continuous
 62
     7
370
    15
100
AcDbCircle
 10
29.4091975664
 20
146.9529455055
 30
0.0
 40
0.7740099954372688
100
AcDbArc
 50
242.7383609534
 51
295.529536881
  0
LINE
  5
25C
330
1F
100
AcDbEntity
  8
0
  6
Continuous
 62
     7
370
    15
100
AcDbLine
 10
34.2467126092
 20
148.5956173468
 30
0.0
 11
29.7427775588
 21
146.2545073466
 31
0.0
  0
ARC
  5
25D
330
1F
100
AcDbEntity
  8
0
  6
Continuous
 62
     7
370
    15
100
AcDbCircle
 10
34.5802922264
 20
147.8971781718
 30
0.0
 40
0.774010750740035
100
AcDbArc
 50
62.7383859497
 51
115.5294794086
  0
LINE
  5
25E
330
1F
100
AcDbEntity
  8
0
  6
Continuous
 62
     7
370
    15
100
AcDbLine
 10
34.9709186144
 20
148.564382228
 30
0.0
 11
34.9348310339
 21
148.5852151448
 31
0.0
  0
ARC
  5
25F
330
1F
100
AcDbEntity
  8
0
  6
Continuous
 62
     7
370
    15
100
AcDbCircle
 10
34.8967342654
 20
148.3619873589
 30
0.0
 40
0.2155620576131597
100
AcDbArc
 50
295.3239052899
 51
69.8704601493
  0
LINE
  5
260
330
1F
100
AcDbEntity
  8
0
  6
Continuous
 62
     7
370
    15
100
AcDbLine
 10
30.9335768359
 20
145.5670735563
 30
0.0
 11
34.9889377092
 21
148.167139917
 31
0.0
  0
ARC
  5
261
330
1F
100
AcDbEntity
  8
0
  6
Continuous
 62
     7
370
    15
100
AcDbCircle
 10
31.0257792102
 20
145.3722259075
 30
0.0
 40
0.2155617871453031
100
AcDbArc
 50
115.3236248311
 51
249.8706433366
  0
LINE
  5
262
330
1F
100
AcDbEntity
  8
0
  6
Continuous
 62
     7
370
    15
100
AcDbLine
 10
31.6709540606
 20
144.7545542562
 30
0.0
 11
30.9515956014
 21
145.1698310552
 31
0.0
  0
ARC
  5
263
330
1F
100
AcDbEntity
  8
0
  6
Continuous
 62
     7
370
    15
100
AcDbCircle
 10
32.025492855
 20
145.4425925702
 30
0.0
 40
0.7740119368516801
100
AcDbArc
 50
242.7384322789
 51
295.5294655555
  0
LINE
  5
264
330
1F
100
AcDbEntity
  8
0
  6
Continuous
 62
     7
370
    15
100
AcDbLine
 10
36.863007865
 20
147.0852622445
 30
0.0
 11
32.3590728146
 21
144.7441522442
 31
0.0
  0
ARC
  5
265
330
1F
100
AcDbEntity
  8
0
  6
Continuous
 62
     7
370
    15
100
AcDbCircle
 10
37.196587515
 20
146.3868252366
 30
0.0
 40
0.7740088093284102
100
AcDbArc
 50
62.7383146242
 51
115.5295507342
  0
LINE
  5
266
330
1F
100
AcDbEntity
  8
0
  6
Continuous
 62
     7
370
    15
100
AcDbLine
 10
37.5872138702
 20
147.0540271257
 30
0.0
 11
37.5511262897
 21
147.0748600425
 31
0.0
  0
ARC
  5
267
330
1F
100
AcDbEntity
  8
0
  6
Continuous
 62
     7
370
    15
100
AcDbCircle
 10
37.5130289839
 20
146.8516322322
 30
0.0
 40
0.2155622654294026
100
AcDbArc
 50
295.3240371648
 51
69.8703282744
  0
LINE
  5
268
330
1F
100
AcDbEntity
  8
0
  6
Continuous
 62
     7
370
    15
100
AcDbLine
 10
33.5498714332
 20
144.0567188341
 30
0.0
 11
37.6052329651
 21
146.6567848146
 31
0.0
  0
ARC
  5
269
330
1F
100
AcDbEntity
  8
0
  6
Continuous
 62
     7
370
    15
100
AcDbCircle
 10
33.6420750646
 20
143.8618711716
 30
0.0
 40
0.215562337204607
100
AcDbArc
 50
115.3239252864
 51
249.8705274955
  0
LINE
  5
26A
330
1F
100
AcDbEntity
  8
0
  6
Continuous
 62
     7
370
    15
100
AcDbLine
 10
34.2872493164
 20
143.2441991538
 30
0.0
 11
33.5678908573
 21
143.6594759528
 31
0.0
  0
ARC
  5
26B
330
1F
100
AcDbEntity
  8
0
  6
Continuous
 62
     7
370
    15
100
AcDbCircle
 10
34.6417881108
 20
143.9322374678
 30
0.0
 40
0.7740119368521008
100
AcDbArc
 50
242.7384322789
 51
295.5294655555
  0
LINE
  5
26C
330
1F
100
AcDbEntity
  8
0
  6
Continuous
 62
     7
370
    15
100
AcDbLine
 10
39.4793024623
 20
145.5749075223
 30
0.0
 11
34.9753680704
 21
143.2337971418
 31
0.0
  0
ARC
  5
26D
330
1F
100
AcDbEntity
  8
0
  6
Continuous
 62
     7
370
    15
100
AcDbCircle
 10
39.8128820467
 20
144.8764661801
 30
0.0
 40
0.7740126921619386
100
AcDbArc
 50
62.7384572753
 51
115.5294080831
  0
LINE
  5
26E
330
1F
100
AcDbEntity
  8
0
  6
Continuous
 62
     7
370
    15
100
AcDbLine
 10
40.2035084675
 20
145.5436724035
 30
0.0
 11
40.167420887
 21
145.5645053203
 31
0.0
  0
ARC
  5
26F
330
1F
100
AcDbEntity
  8
0
  6
Continuous
 62
     7
370
    15
100
AcDbCircle
 10
40.1293249196
 20
145.3412775707
 30
0.0
 40
0.2155617478243015
100
AcDbArc
 50
295.3237087039
 51
69.8706567353
  0
LINE
  5
270
330
1F
100
AcDbEntity
  8
0
  6
Continuous
 62
     7
370
    15
100
AcDbLine
 10
36.166166689
 20
142.5463637318
 30
0.0
 11
40.2215275623
 21
145.1464300924
 31
0.0
  0
ARC
  5
271
330
1F
100
AcDbEntity
  8
0
  6
Continuous
 62
     7
370
    15
100
AcDbCircle
 10
36.2583703204
 20
142.3515160693
 30
0.0
 40
0.2155623372045496
100
AcDbArc
 50
115.3239252864
 51
249.8705274955
  0
LINE
  5
272
330
1F
100
AcDbEntity
  8
0
  6
Continuous
 62
     7
370
    15
100
AcDbLine
 10
36.9035445722
 20
141.7338440514
 30
0.0
 11
36.1841861131
 21
142.1491208504
 31
0.0
  0
ARC
  5
273
330
1F
100
AcDbEntity
  8
0
  6
Continuous
 62
     7
370
    15
100
AcDbCircle
 10
37.2580826705
 20
142.4218829559
 30
0.0
 40
0.774012142800169
100
AcDbArc
 50
242.7384981092
 51
295.5294613626
  0
LINE
  5
274
330
1F
100
AcDbEntity
  8
0
  6
Continuous
 62
     7
370
    15
100
AcDbLine
 10
42.0955977181
 20
144.0645524199
 30
0.0
 11
37.5916626677
 21
141.7234424196
 31
0.0
  0
ARC
  5
275
330
1F
100
AcDbEntity
  8
0
  6
Continuous
 62
     7
370
    15
100
AcDbCircle
 10
42.4291772649
 20
143.366111288
 30
0.0
 40
0.774012486217631
100
AcDbArc
 50
62.7383914452
 51
115.5294122759
  0
LINE
  5
276
330
1F
100
AcDbEntity
  8
0
  6
Continuous
 62
     7
370
    15
100
AcDbLine
 10
43.1553137109
 20
143.839631508
 30
0.0
 11
42.7837168014
 21
144.0541498377
 31
0.0
  0
LINE
  5
277
330
1F
100
AcDbEntity
  8
0
  6
Continuous
 62
     7
370
    15
100
AcDbLine
 10
38.7824612862
 20
141.0360090096
 30
0.0
 11
43.1553137109
 21
143.839631508
 31
0.0
  0
ARC
  5
278
330
1F
100
AcDbEntity
  8
0
  6
Continuous
 62
     7
370
    15
100
AcDbCircle
 10
38.8746649176
 20
140.8411613471
 30
0.0
 40
0.2155623372045753
100
AcDbArc
 50
115.3239252864
 51
249.8705274955
  0
LINE
  5
279
330
1F
100
AcDbEntity
  8
0
  6
Continuous
 62
     7
370
    15
100
AcDbLine
 10
39.5198391695
 20
140.2234893292
 30
0.0
 11
38.8004807103
 21
140.6387661282
 31
0.0
  0
ARC
  5
27A
330
1F
100
AcDbEntity
  8
0
  6
Continuous
 62
     7
370
    15
100
AcDbCircle
 10
39.8743786601
 20
140.9115270528
 30
0.0
 40
0.7740117309096993
100
AcDbArc
 50
242.7383664489
 51
295.5294697484
  0
LINE
  5
27B
330
1F
100
AcDbEntity
  8
0
  6
Continuous
 62
     7
370
    15
100
AcDbLine
 10
44.7118923154
 20
142.5541976977
 30
0.0
 11
40.207958582
 21
140.2130869371
 31
0.0
  0
ARC
  5
27C
330
1F
100
AcDbEntity
  8
0
  6
Continuous
 62
     7
370
    15
100
AcDbCircle
 10
45.0454718622
 20
141.8557565658
 30
0.0
 40
0.7740124862176694
100
AcDbArc
 50
62.7383914452
 51
115.5294122759
  0
LINE
  5
27D
330
1F
100
AcDbEntity
  8
0
  6
Continuous
 62
     7
370
    15
100
AcDbLine
 10
45.4360983206
 20
142.5229625789
 30
0.0
 11
45.4000113986
 21
142.5437951155
 31
0.0
  0
ARC
  5
27E
330
1F
100
AcDbEntity
  8
0
  6
Continuous
 62
     7
370
    15
100
AcDbCircle
 10
45.3619139714
 20
142.3205673704
 30
0.0
 40
0.2155623762862524
100
AcDbArc
 50
295.324058911
 51
69.8704911424
  0
LINE
  5
27F
330
1F
100
AcDbEntity
  8
0
  6
Continuous
 62
     7
370
    15
100
AcDbLine
 10
41.3987572006
 20
139.525653527
 30
0.0
 11
45.454118074
 21
142.1257198877
 31
0.0
  0
ARC
  5
280
330
1F
100
AcDbEntity
  8
0
  6
Continuous
 62
     7
370
    15
100
AcDbCircle
 10
41.4909605893
 20
139.330805995
 30
0.0
 40
0.2155621154920658
100
AcDbArc
 50
115.3238817941
 51
249.870201759
  0
LINE
  5
281
330
1F
100
AcDbEntity
  8
0
  6
Continuous
 62
     7
370
    15
100
AcDbLine
 10
42.1361337667
 20
138.713134607
 30
0.0
 11
41.4167753076
 21
139.128411406
 31
0.0
  0
ARC
  5
282
330
1F
100
AcDbEntity
  8
0
  6
Continuous
 62
     7
370
    15
100
AcDbCircle
 10
42.4906732574
 20
139.4011723306
 30
0.0
 40
0.7740117309095712
100
AcDbArc
 50
242.7383664488
 51
295.5294697484
  0
LINE
  5
283
330
1F
100
AcDbEntity
  8
0
  6
Continuous
 62
     7
370
    15
100
AcDbLine
 10
47.3281882297
 20
141.0438422152
 30
0.0
 11
42.8242531793
 21
138.7027322149
 31
0.0
  0
ARC
  5
284
330
1F
100
AcDbEntity
  8
0
  6
Continuous
 62
     7
370
    15
100
AcDbCircle
 10
47.6617678518
 20
140.3454006627
 30
0.0
 40
0.7740128981124492
100
AcDbArc
 50
62.7385231056
 51
115.5294038901
  0
LINE
  5
285
330
1F
100
AcDbEntity
  8
0
  6
Continuous
 62
     7
370
    15
100
AcDbLine
 10
48.052394235
 20
141.0126070964
 30
0.0
 11
48.0163059959
 21
141.0334403933
 31
0.0
  0
ARC
  5
286
330
1F
100
AcDbEntity
  8
0
  6
Continuous
 62
     7
370
    15
100
AcDbCircle
 10
47.9782110828
 20
140.8102126208
 30
0.0
 40
0.2155612761681142
100
AcDbArc
 50
295.3234579996
 51
69.870722825
  0
LINE
  5
287
330
1F
100
AcDbEntity
  8
0
  6
Continuous
 62
     7
370
    15
100
AcDbLine
 10
44.0150517979
 20
138.0152988048
 30
0.0
 11
48.0704126712
 21
140.6153651655
 31
0.0
  0
ARC
  5
288
330
1F
100
AcDbEntity
  8
0
  6
Continuous
 62
     7
370
    15
100
AcDbCircle
 10
44.1072554293
 20
137.8204511423
 30
0.0
 40
0.2155623372045496
100
AcDbArc
 50
115.3239252864
 51
249.8705274955
  0
LINE
  5
289
330
1F
100
AcDbEntity
  8
0
  6
Continuous
 62
     7
370
    15
100
AcDbLine
 10
44.7524296811
 20
137.2027791245
 30
0.0
 11
44.033071222
 21
137.6180559235
 31
0.0
  0
ARC
  5
28A
330
1F
100
AcDbEntity
  8
0
  6
Continuous
 62
     7
370
    15
100
AcDbCircle
 10
45.1069676483
 20
137.8908093605
 30
0.0
 40
0.7740043771820173
100
AcDbArc
 50
242.7382128069
 51
295.5297466649
  0
LINE
  5
28B
330
1F
100
AcDbEntity
  8
0
  6
Continuous
 62
     7
370
    15
100
AcDbLine
 10
49.944482827
 20
139.533487493
 30
0.0
 11
45.4405477766
 21
137.1923774927
 31
0.0
  0
ARC
  5
28C
330
1F
100
AcDbEntity
  8
0
  6
Continuous
 62
     7
370
    15
100
AcDbCircle
 10
50.2780623738
 20
138.835046361
 30
0.0
 40
0.7740124862177727
100
AcDbArc
 50
62.7383914452
 51
115.5294122759
  0
LINE
  5
28D
330
1F
100
AcDbEntity
  8
0
  6
Continuous
 62
     7
370
    15
100
AcDbLine
 10
50.6686888322
 20
139.5022523742
 30
0.0
 11
50.6326019103
 21
139.5230849108
 31
0.0
  0
ARC
  5
28E
330
1F
100
AcDbEntity
  8
0
  6
Continuous
 62
     7
370
    15
100
AcDbCircle
 10
50.5945044831
 20
139.2998571657
 30
0.0
 40
0.2155623762862306
100
AcDbArc
 50
295.324058911
 51
69.8704911424
  0
LINE
  5
28F
330
1F
100
AcDbEntity
  8
0
  6
Continuous
 62
     7
370
    15
100
AcDbLine
 10
46.6313477122
 20
136.5049433223
 30
0.0
 11
50.6867085856
 21
139.1050096829
 31
0.0
  0
ARC
  5
290
330
1F
100
AcDbEntity
  8
0
  6
Continuous
 62
     7
370
    15
100
AcDbCircle
 10
46.7235490723
 20
136.3100955568
 30
0.0
 40
0.2155614588121689
100
AcDbArc
 50
115.3233678701
 51
249.8710849118
  0
LINE
  5
291
330
1F
100
AcDbEntity
  8
0
  6
Continuous
 62
     7
370
    15
100
AcDbLine
 10
47.3687242784
 20
135.6924244023
 30
0.0
 11
46.6493671363
 21
136.107700441
 31
0.0
  0
ARC
  5
292
330
1F
100
AcDbEntity
  8
0
  6
Continuous
 62
     7
370
    15
100
AcDbCircle
 10
47.7232638315
 20
136.3804662571
 30
0.0
 40
0.7740154318215954
100
AcDbArc
 50
242.7385024155
 51
295.5293337817
  0
LINE
  5
293
330
1F
100
AcDbEntity
  8
0
  6
Continuous
 62
     7
370
    15
100
AcDbLine
 10
52.5607787414
 20
138.0231320104
 30
0.0
 11
48.0568436909
 21
135.6820220102
 31
0.0
  0
ARC
  5
294
330
1F
100
AcDbEntity
  8
0
  6
Continuous
 62
     7
370
    15
100
AcDbCircle
 10
52.8943583506
 20
137.3246950096
 30
0.0
 40
0.7740087853513234
100
AcDbArc
 50
62.7382554791
 51
115.529548242
  0
LINE
  5
295
330
1F
100
AcDbEntity
  8
0
  6
Continuous
 62
     7
370
    15
100
AcDbLine
 10
53.2849834295
 20
137.991897652
 30
0.0
 11
53.2488978246
 21
138.0127294282
 31
0.0
  0
ARC
  5
296
330
1F
100
AcDbEntity
  8
0
  6
Continuous
 62
     7
370
    15
100
AcDbCircle
 10
53.210800277
 20
137.7895024978
 30
0.0
 40
0.2155619135110486
100
AcDbArc
 50
295.3237652434
 51
69.87078481
  0
LINE
  5
297
330
1F
100
AcDbEntity
  8
0
  6
Continuous
 62
     7
370
    15
100
AcDbLine
 10
49.2476423095
 20
134.9945886001
 30
0.0
 11
53.3030031829
 21
137.5946549607
 31
0.0
  0
ARC
  5
298
330
1F
100
AcDbEntity
  8
0
  6
Continuous
 62
     7
370
    15
100
AcDbCircle
 10
49.3398447443
 20
134.7997408833
 30
0.0
 40
0.2155618744324602
100
AcDbArc
 50
115.3236316195
 51
249.8708211624
  0
LINE
  5
299
330
1F
100
AcDbEntity
  8
0
  6
Continuous
 62
     7
370
    15
100
AcDbLine
 10
49.7413547735
 20
134.3227339721
 30
0.0
 11
49.2656617336
 21
134.5973457188
 31
0.0
  0
ARC
  5
29A
330
1F
100
AcDbEntity
  8
0
  6
Continuous
 62
     7
370
    15
100
AcDbCircle
 10
50.0967154077
 20
135.0151745821
 30
0.0
 40
0.7783027551554375
100
AcDbArc
 50
242.8330979628
 51
293.7011717391
  0
LINE
  5
29B
330
1F
100
AcDbEntity
  8
0
  6
Continuous
 62
     7
370
    15
100
AcDbLine
 10
55.1798102496
 20
136.5325020105
 30
0.0
 11
50.4095670441
 21
134.3025182608
 31
0.0
  0
ARC
  5
29C
330
1F
100
AcDbEntity
  8
0
  6
Continuous
 62
     7
370
    15
100
AcDbCircle
 10
55.4926622545
 20
135.8198455702
 30
0.0
 40
0.7783030121917961
100
AcDbArc
 50
62.8331109185
 51
113.701193058
  0
LINE
  5
29D
330
1F
100
AcDbEntity
  8
0
  6
Continuous
 62
     7
370
    15
100
AcDbLine
 10
55.8832365414
 20
136.4919580576
 30
0.0
 11
55.8480228495
 21
136.5122864892
 31
0.0
  0
ARC
  5
29E
330
1F
100
AcDbEntity
  8
0
  6
Continuous
 62
     7
370
    15
100
AcDbCircle
 10
55.8057742977
 20
136.2878569413
 30
0.0
 40
0.218306355513552
100
AcDbArc
 50
290.7826395481
 51
69.2168058481
  0
ARC
  5
29F
330
1F
100
AcDbEntity
  8
0
  6
Continuous
 62
     7
370
    15
100
AcDbCircle
 10
55.7794576413
 20
67.8703571478
 30
0.0
 40
0.2514657059268599
100
AcDbArc
 50
294.373814307
 51
354.3054152659
  0
ELLIPSE
  5
2A0
330
1F
100
AcDbEntity
  8
0
  6
Continuous
 62
     7
370
    15
100
AcDbEllipse
 10
51.1146211759
 20
126.4667068384
 30
0.0
 11
0.7337440321806028
 21
1.016750437446277
 31
0.0
210
0.0
220
0.0
230
0.9999999999999999
 40
0.6341455366
 41
4.282448217442484
 42
5.371161318017827
  0
LINE
  5
2A1
330
1F
100
AcDbEntity
  8
0
  6
Continuous
 62
     7
370
    15
100
AcDbLine
 10
43.1553137109
 20
141.7450976923
 30
0.0
 11
43.1553137109
 21
143.839631508
 31
0.0
  0
ELLIPSE
  5
2A2
330
1F
100
AcDbEntity
  8
0
  6
Continuous
 62
     7
370
    15
100
AcDbEllipse
 10
51.1146211759
 20
74.3550722239
 30
0.0
 11
0.7337440321806028
 21
1.016750437446319
 31
0.0
210
0.0
220
0.0
230
1.0
 40
0.6341455366
 41
4.282448217466915
 42
5.371161317991869
  0
LINE
  5
2A3
330
1F
100
AcDbEntity
  8
0
  6
Continuous
 62
   110
370
    15
100
AcDbLine
 10
49.2476423095
 20
134.9945886001
 30
0.0
 11
49.2476423095
 21
134.6083099536
 31
0.0
  0
LINE
  5
2A4
330
1F
100
AcDbEntity
  8
0
  6
Continuous
 62
   110
370
    15
100
AcDbLine
 10
53.3030031829
 20
135.6551339008
 30
0.0
 11
53.3030031829
 21
137.5946549607
 31
0.0
  0
LINE
  5
2A5
330
1F
100
AcDbEntity
  8
0
  6
Continuous
 62
   110
370
    15
100
AcDbLine
 10
46.6313477122
 20
136.5049433223
 30
0.0
 11
46.6313477122
 21
136.1186646758
 31
0.0
  0
LINE
  5
2A6
330
1F
100
AcDbEntity
  8
0
  6
Continuous
 62
   110
370
    15
100
AcDbLine
 10
50.6867085856
 20
137.0490039592
 30
0.0
 11
50.6867085856
 21
139.1050096829
 31
0.0
  0
LINE
  5
2A7
330
1F
100
AcDbEntity
  8
0
  6
Continuous
 62
   110
370
    15
100
AcDbLine
 10
44.0150517979
 20
138.0152988048
 30
0.0
 11
44.0150517979
 21
137.6290201583
 31
0.0
  0
LINE
  5
2A8
330
1F
100
AcDbEntity
  8
0
  6
Continuous
 62
   110
370
    15
100
AcDbLine
 10
48.0704126712
 20
138.5593594417
 30
0.0
 11
48.0704126712
 21
140.6153651655
 31
0.0
  0
LINE
  5
2A9
330
1F
100
AcDbEntity
  8
0
  6
Continuous
 62
   110
370
    15
100
AcDbLine
 10
41.3987572006
 20
139.525653527
 30
0.0
 11
41.3987572006
 21
139.1393748805
 31
0.0
  0
LINE
  5
2AA
330
1F
100
AcDbEntity
  8
0
  6
Continuous
 62
   110
370
    15
100
AcDbLine
 10
45.454118074
 20
140.0697141639
 30
0.0
 11
45.454118074
 21
142.1257198877
 31
0.0
  0
LINE
  5
2AB
330
1F
100
AcDbEntity
  8
0
  6
Continuous
 62
   110
370
    15
100
AcDbLine
 10
38.7824612862
 20
141.0360090096
 30
0.0
 11
38.7824612862
 21
140.6497303631
 31
0.0
  0
LINE
  5
2AC
330
1F
100
AcDbEntity
  8
0
  6
Continuous
 62
   110
370
    15
100
AcDbLine
 10
36.166166689
 20
142.5463637318
 30
0.0
 11
36.166166689
 21
142.1600850853
 31
0.0
  0
LINE
  5
2AD
330
1F
100
AcDbEntity
  8
0
  6
Continuous
 62
   110
370
    15
100
AcDbLine
 10
40.2215275623
 20
143.0904243686
 30
0.0
 11
40.2215275623
 21
145.1464300924
 31
0.0
  0
LINE
  5
2AE
330
1F
100
AcDbEntity
  8
0
  6
Continuous
 62
   110
370
    15
100
AcDbLine
 10
33.5498714332
 20
144.0567188341
 30
0.0
 11
33.5498714332
 21
143.6704401876
 31
0.0
  0
LINE
  5
2AF
330
1F
100
AcDbEntity
  8
0
  6
Continuous
 62
   110
370
    15
100
AcDbLine
 10
37.6052329651
 20
144.6007790908
 30
0.0
 11
37.6052329651
 21
146.6567848146
 31
0.0
  0
LINE
  5
2B0
330
1F
100
AcDbEntity
  8
0
  6
Continuous
 62
   110
370
    15
100
AcDbLine
 10
30.9335768359
 20
145.5670735563
 30
0.0
 11
30.9335768359
 21
145.1807949098
 31
0.0
  0
LINE
  5
2B1
330
1F
100
AcDbEntity
  8
0
  6
Continuous
 62
   110
370
    15
100
AcDbLine
 10
34.9889377092
 20
146.1111341932
 30
0.0
 11
34.9889377092
 21
148.167139917
 31
0.0
  0
LINE
  5
2B2
330
1F
100
AcDbEntity
  8
0
  6
Continuous
 62
   110
370
    15
100
AcDbLine
 10
28.3172815801
 20
147.0774286587
 30
0.0
 11
28.3172815801
 21
146.6911500122
 31
0.0
  0
LINE
  5
2B3
330
1F
100
AcDbEntity
  8
0
  6
Continuous
 62
   110
370
    15
100
AcDbLine
 10
32.3726424534
 20
147.6214892956
 30
0.0
 11
32.3726424534
 21
149.6774950193
 31
0.0
  0
LINE
  5
2B4
330
1F
100
AcDbEntity
  8
0
  6
Continuous
 62
   110
370
    15
100
AcDbLine
 10
25.9276510054
 20
148.4356275582
 30
0.0
 11
25.9276510054
 21
148.0723270584
 31
0.0
  0
LINE
  5
2B5
330
1F
100
AcDbEntity
  8
0
  6
Continuous
 62
   110
370
    15
100
AcDbLine
 10
29.790516438
 20
149.149606273
 30
0.0
 11
29.790516438
 21
151.1894293465
 31
0.0
  0
LWPOLYLINE
  5
2B6
330
1F
100
AcDbEntity
  8
0
  6
Continuous
 62
     7
370
     0
100
AcDbPolyline
 90
       17
 70
   128
 43
0.0
 10
53.3022956627
 20
74.3167667923
 10
53.2215577146
 20
73.8014428062
 10
52.9916354909
 20
73.2713541747
 10
52.647532566
 20
72.807202087
 10
52.2416354909
 20
72.4796494906
 10
51.8357384158
 20
72.3385632993
 10
51.4916354909
 20
72.4054226066
 10
51.2617132672
 20
72.6700486891
 10
51.1809753191
 20
73.0921546246
 10
51.2617132672
 20
73.6074786108
 10
51.4916354909
 20
74.1375672422
 10
51.8357384158
 20
74.60171933
 10
52.2416354909
 20
74.9292719263
 10
52.647532566
 20
75.0703581177
 10
52.9916354909
 20
75.0034988103
 10
53.2215577146
 20
74.7388727278
 10
53.3022956627
 20
74.3167667923
  0
LWPOLYLINE
  5
2B7
330
1F
100
AcDbEntity
  8
0
  6
Continuous
 62
     7
370
     0
100
AcDbPolyline
 90
       17
 70
   128
 43
0.0
 10
53.3022956627
 20
126.4284014069
 10
53.2215577146
 20
125.9130774207
 10
52.9916354909
 20
125.3829887893
 10
52.647532566
 20
124.9188367015
 10
52.2416354909
 20
124.5912841052
 10
51.8357384158
 20
124.4501979139
 10
51.4916354909
 20
124.5170572212
 10
51.2617132672
 20
124.7816833037
 10
51.1809753191
 20
125.2037892392
 10
51.2617132672
 20
125.7191132253
 10
51.4916354909
 20
126.2492018568
 10
51.8357384158
 20
126.7133539445
 10
52.2416354909
 20
127.0409065409
 10
52.647532566
 20
127.1819927322
 10
52.9916354909
 20
127.1151334249
 10
53.2215577146
 20
126.8505073424
 10
53.3022956627
 20
126.4284014069
  0
LWPOLYLINE
  5
2B8
330
1F
100
AcDbEntity
  8
0
  6
Continuous
 62
     7
370
     0
100
AcDbPolyline
 90
       17
 70
   128
 43
0.0
 10
36.2963775751
 20
107.7413109041
 10
35.8904805
 20
108.0688635004
 10
35.5463775751
 20
108.5330155882
 10
35.3164553515
 20
109.0631042196
 10
35.2357174034
 20
109.5784282058
 10
35.3164553515
 20
110.0005341413
 10
35.5463775751
 20
110.2651602238
 10
35.8904805
 20
110.3320195311
 10
36.2963775751
 20
110.1909333398
 10
36.7022746502
 20
109.8633807435
 10
37.0463775751
 20
109.3992286557
 10
37.2762997988
 20
108.8691400243
 10
37.3570377469
 20
108.3538160381
 10
37.2762997988
 20
107.9317101026
 10
37.0463775751
 20
107.6670840201
 10
36.7022746502
 20
107.6002247128
 10
36.2963775751
 20
107.7413109041
  0
LWPOLYLINE
  5
2B9
330
1F
100
AcDbEntity
  8
0
  6
Continuous
 62
     7
370
     0
100
AcDbPolyline
 90
       17
 70
   128
 43
0.0
 10
36.2963775751
 20
122.7738272509
 10
35.8904805
 20
123.1013798473
 10
35.5463775751
 20
123.565531935
 10
35.3164553515
 20
124.0956205664
 10
35.2357174034
 20
124.6109445526
 10
35.3164553515
 20
125.0330504881
 10
35.5463775751
 20
125.2976765706
 10
35.8904805
 20
125.3645358779
 10
36.2963775751
 20
125.2234496866
 10
36.7022746502
 20
124.8958970903
 10
37.0463775751
 20
124.4317450025
 10
37.2762997988
 20
123.9016563711
 10
37.3570377469
 20
123.3863323849
 10
37.2762997988
 20
122.9642264494
 10
37.0463775751
 20
122.6996003669
 10
36.7022746502
 20
122.6327410596
 10
36.2963775751
 20
122.7738272509
  0
LWPOLYLINE
  5
2BA
330
1F
100
AcDbEntity
  8
0
  6
Continuous
 62
     7
370
     0
100
AcDbPolyline
 90
       17
 70
   128
 43
0.0
 10
35.9852505914
 20
93.4028250534
 10
35.5793535163
 20
93.7303776497
 10
35.2352505914
 20
94.1945297375
 10
35.0053283678
 20
94.7246183689
 10
34.9245904196
 20
95.2399423551
 10
35.0053283678
 20
95.6620482906
 10
35.2352505914
 20
95.9266743731
 10
35.5793535163
 20
95.9935336804
 10
35.9852505914
 20
95.8524474891
 10
36.3911476665
 20
95.5248948927
 10
36.7352505914
 20
95.060742805
 10
36.9651728151
 20
94.5306541735
 10
37.0459107632
 20
94.0153301874
 10
36.9651728151
 20
93.5932242519
 10
36.7352505914
 20
93.3285981694
 10
36.3911476665
 20
93.2617388621
 10
35.9852505914
 20
93.4028250534
  0
ENDSEC
  0
SECTION
  2
OBJECTS
  0
DICTIONARY
  5
C
330
0
100
AcDbDictionary
281
     1
  3
ACAD_GROUP
350
D
  3
ACAD_LAYOUT
350
1A
  3
ACAD_MLEADERSTYLE
350
2BD
  3
ACAD_MLINESTYLE
350
17
  3
ACAD_PLOTSETTINGS
350
19
  3
ACAD_PLOTSTYLENAME
350
E
  3
ACAD_SCALELIST
350
65
  3
ACAD_VISUALSTYLE
350
2A
  3
AcDbVariableDictionary
350
2BB
  0
DICTIONARY
  5
D
102
{ACAD_REACTORS
330
C
102
}
330
C
100
AcDbDictionary
281
     1
  0
DICTIONARY
  5
1A
102
{ACAD_REACTORS
330
C
102
}
330
C
100
AcDbDictionary
281
     1
  3
Layout1
350
1E
  3
Layout2
350
26
  3
Model
350
22
  0
DICTIONARY
  5
2BD
102
{ACAD_REACTORS
330
C
102
}
330
C
100
AcDbDictionary
281
     1
  0
DICTIONARY
  5
17
102
{ACAD_REACTORS
330
C
102
}
330
C
100
AcDbDictionary
281
     1
  3
Standard
350
18
  0
DICTIONARY
  5
19
102
{ACAD_REACTORS
330
C
102
}
330
C
100
AcDbDictionary
281
     1
  0
ACDBDICTIONARYWDFLT
  5
E
102
{ACAD_REACTORS
330
C
102
}
330
C
100
AcDbDictionary
281
     1
  3
Normal
350
F
100
AcDbDictionaryWithDefault
340
F
  0
DICTIONARY
  5
65
102
{ACAD_REACTORS
330
C
102
}
330
C
100
AcDbDictionary
281
     1
  3
A0
350
66
  3
A1
350
67
  3
A2
350
68
  3
A3
350
69
  3
A4
350
6A
  3
A5
350
6B
  3
A6
350
6C
  3
A7
350
6D
  3
A8
350
6E
  3
A9
350
6F
  3
B0
350
70
  3
B1
350
71
  3
B2
350
72
  3
B3
350
73
  3
B4
350
74
  3
B5
350
75
  3
B6
350
76
  3
B7
350
77
  3
B8
350
78
  3
B9
350
79
  3
C0
350
7A
  3
C1
350
7B
  3
C2
350
7C
  3
C3
350
7D
  3
C4
350
7E
  3
C5
350
7F
  3
C6
350
80
  3
C7
350
81
  3
C8
350
82
  3
C9
350
83
  3
D0
350
84
  3
D1
350
85
  3
D2
350
86
  0
DICTIONARY
  5
2A
102
{ACAD_REACTORS
330
C
102
}
330
C
100
AcDbDictionary
281
     1
  3
2dWireframe
350
2F
  3
3D Hidden
350
31
  3
3dWireframe
350
30
  3
Basic
350
32
  3
Brighten
350
36
  3
ColorChange
350
3A
  3
Conceptual
350
34
  3
Dim
350
35
  3
Facepattern
350
39
  3
Flat
350
2B
  3
FlatWithEdges
350
2C
  3
Gouraud
350
2D
  3
GouraudWithEdges
350
2E
  3
Linepattern
350
38
  3
Realistic
350
33
  3
Thicken
350
37
  0
DICTIONARY
  5
2BB
102
{ACAD_REACTORS
330
C
102
}
330
C
100
AcDbDictionary
281
     1
  3
CANNOSCALE
350
2C0
  3
DIMASSOC
350
2C1
  3
HIDETEXT
350
2C2
  3
PSOLHEIGHT
350
2BF
  3
PSOLWIDTH
350
2BE
  0
LAYOUT
  5
1E
102
{ACAD_REACTORS
330
1A
102
}
330
1A
100
AcDbPlotSettings
  1

  2
none_device
  4

  6

 40
0.0
 41
0.0
 42
0.0
 43
0.0
 44
0.0
 45
0.0
 46
0.0
 47
0.0
 48
0.0
 49
0.0
140
0.0
141
0.0
142
1.0
143
1.0
 70
   688
 72
     0
 73
     0
 74
     5
  7

 75
    16
147
1.0
148
0.0
149
0.0
100
AcDbLayout
  1
Layout1
 70
     1
 71
     1
 10
0.0
 20
0.0
 11
420.0
 21
297.0
 12
0.0
 22
0.0
 32
0.0
 14
1.0000000000E+20
 24
1.0000000000E+20
 34
1.0000000000E+20
 15
-1.0000000000E+20
 25
-1.0000000000E+20
 35
-1.0000000000E+20
146
0.0
 13
0.0
 23
0.0
 33
0.0
 16
1.0
 26
0.0
 36
0.0
 17
0.0
 27
1.0
 37
0.0
 76
     0
330
1B
  0
LAYOUT
  5
26
102
{ACAD_REACTORS
330
1A
102
}
330
1A
100
AcDbPlotSettings
  1

  2
none_device
  4

  6

 40
0.0
 41
0.0
 42
0.0
 43
0.0
 44
0.0
 45
0.0
 46
0.0
 47
0.0
 48
0.0
 49
0.0
140
0.0
141
0.0
142
1.0
143
1.0
 70
   688
 72
     0
 73
     0
 74
     5
  7

 75
    16
147
1.0
148
0.0
149
0.0
100
AcDbLayout
  1
Layout2
 70
     1
 71
     2
 10
0.0
 20
0.0
 11
0.0
 21
0.0
 12
0.0
 22
0.0
 32
0.0
 14
0.0
 24
0.0
 34
0.0
 15
0.0
 25
0.0
 35
0.0
146
0.0
 13
0.0
 23
0.0
 33
0.0
 16
1.0
 26
0.0
 36
0.0
 17
0.0
 27
1.0
 37
0.0
 76
     0
330
23
  0
LAYOUT
  5
22
102
{ACAD_REACTORS
330
1A
102
}
330
1A
100
AcDbPlotSettings
  1

  2
none_device
  4

  6

 40
0.0
 41
0.0
 42
0.0
 43
0.0
 44
0.0
 45
0.0
 46
0.0
 47
0.0
 48
0.0
 49
0.0
140
0.0
141
0.0
142
1.0
143
1.0
 70
  1712
 72
     0
 73
     0
 74
     0
  7

 75
     0
147
1.0
148
0.0
149
0.0
100
AcDbLayout
  1
Model
 70
     1
 71
     0
 10
0.0
 20
0.0
 11
210.0
 21
297.0
 12
0.0
 22
0.0
 32
0.0
 14
0.0
 24
0.0
 34
0.0
 15
210.0
 25
297.0
 35
0.0
146
0.0
 13
0.0
 23
0.0
 33
0.0
 16
1.0
 26
0.0
 36
0.0
 17
0.0
 27
1.0
 37
0.0
 76
     0
330
1F
331
29
  0
MLINESTYLE
  5
18
102
{ACAD_REACTORS
330
17
102
}
330
17
100
AcDbMlineStyle
  2
Standard
 70
     0
  3

 62
   256
 51
90.0
 52
90.0
 71
     2
 49
0.5
 62
   256
  6
BYLAYER
 49
-0.5
 62
   256
  6
BYLAYER
  0
ACDBPLACEHOLDER
  5
F
102
{ACAD_REACTORS
330
E
102
}
330
E
  0
SCALE
  5
66
102
{ACAD_REACTORS
330
65
102
}
330
65
100
AcDbScale
 70
     0
300
1:1
140
1.0
141
1.0
290
     1
  0
SCALE
  5
67
102
{ACAD_REACTORS
330
65
102
}
330
65
100
AcDbScale
 70
     0
300
1:2
140
1.0
141
2.0
290
     0
  0
SCALE
  5
68
102
{ACAD_REACTORS
330
65
102
}
330
65
100
AcDbScale
 70
     0
300
1:4
140
1.0
141
4.0
290
     0
  0
SCALE
  5
69
102
{ACAD_REACTORS
330
65
102
}
330
65
100
AcDbScale
 70
     0
300
1:5
140
1.0
141
5.0
290
     0
  0
SCALE
  5
6A
102
{ACAD_REACTORS
330
65
102
}
330
65
100
AcDbScale
 70
     0
300
1:8
140
1.0
141
8.0
290
     0
  0
SCALE
  5
6B
102
{ACAD_REACTORS
330
65
102
}
330
65
100
AcDbScale
 70
     0
300
1:10
140
1.0
141
10.0
290
     0
  0
SCALE
  5
6C
102
{ACAD_REACTORS
330
65
102
}
330
65
100
AcDbScale
 70
     0
300
1:16
140
1.0
141
16.0
290
     0
  0
SCALE
  5
6D
102
{ACAD_REACTORS
330
65
102
}
330
65
100
AcDbScale
 70
     0
300
1:20
140
1.0
141
20.0
290
     0
  0
SCALE
  5
6E
102
{ACAD_REACTORS
330
65
102
}
330
65
100
AcDbScale
 70
     0
300
1:30
140
1.0
141
30.0
290
     0
  0
SCALE
  5
6F
102
{ACAD_REACTORS
330
65
102
}
330
65
100
AcDbScale
 70
     0
300
1:40
140
1.0
141
40.0
290
     0
  0
SCALE
  5
70
102
{ACAD_REACTORS
330
65
102
}
330
65
100
AcDbScale
 70
     0
300
1:50
140
1.0
141
50.0
290
     0
  0
SCALE
  5
71
102
{ACAD_REACTORS
330
65
102
}
330
65
100
AcDbScale
 70
     0
300
1:100
140
1.0
141
100.0
290
     0
  0
SCALE
  5
72
102
{ACAD_REACTORS
330
65
102
}
330
65
100
AcDbScale
 70
     0
300
2:1
140
2.0
141
1.0
290
     0
  0
SCALE
  5
73
102
{ACAD_REACTORS
330
65
102
}
330
65
100
AcDbScale
 70
     0
300
4:1
140
4.0
141
1.0
290
     0
  0
SCALE
  5
74
102
{ACAD_REACTORS
330
65
102
}
330
65
100
AcDbScale
 70
     0
300
8:1
140
8.0
141
1.0
290
     0
  0
SCALE
  5
75
102
{ACAD_REACTORS
330
65
102
}
330
65
100
AcDbScale
 70
     0
300
10:1
140
10.0
141
1.0
290
     0
  0
SCALE
  5
76
102
{ACAD_REACTORS
330
65
102
}
330
65
100
AcDbScale
 70
     0
300
100:1
140
100.0
141
1.0
290
     0
  0
SCALE
  5
77
102
{ACAD_REACTORS
330
65
102
}
330
65
100
AcDbScale
 70
     0
300
1/128" = 1'-0"
140
0.0078125
141
12.0
290
     0
  0
SCALE
  5
78
102
{ACAD_REACTORS
330
65
102
}
330
65
100
AcDbScale
 70
     0
300
1/64" = 1'-0"
140
0.015625
141
12.0
290
     0
  0
SCALE
  5
79
102
{ACAD_REACTORS
330
65
102
}
330
65
100
AcDbScale
 70
     0
300
1/32" = 1'-0"
140
0.03125
141
12.0
290
     0
  0
SCALE
  5
7A
102
{ACAD_REACTORS
330
65
102
}
330
65
100
AcDbScale
 70
     0
300
1/16" = 1'-0"
140
0.0625
141
12.0
290
     0
  0
SCALE
  5
7B
102
{ACAD_REACTORS
330
65
102
}
330
65
100
AcDbScale
 70
     0
300
3/32" = 1'-0"
140
0.09375
141
12.0
290
     0
  0
SCALE
  5
7C
102
{ACAD_REACTORS
330
65
102
}
330
65
100
AcDbScale
 70
     0
300
1/8" = 1'-0"
140
0.125
141
12.0
290
     0
  0
SCALE
  5
7D
102
{ACAD_REACTORS
330
65
102
}
330
65
100
AcDbScale
 70
     0
300
3/16" = 1'-0"
140
0.1875
141
12.0
290
     0
  0
SCALE
  5
7E
102
{ACAD_REACTORS
330
65
102
}
330
65
100
AcDbScale
 70
     0
300
1/4" = 1'-0"
140
0.25
141
12.0
290
     0
  0
SCALE
  5
7F
102
{ACAD_REACTORS
330
65
102
}
330
65
100
AcDbScale
 70
     0
300
3/8" = 1'-0"
140
0.375
141
12.0
290
     0
  0
SCALE
  5
80
102
{ACAD_REACTORS
330
65
102
}
330
65
100
AcDbScale
 70
     0
300
1/2" = 1'-0"
140
0.5
141
12.0
290
     0
  0
SCALE
  5
81
102
{ACAD_REACTORS
330
65
102
}
330
65
100
AcDbScale
 70
     0
300
3/4" = 1'-0"
140
0.75
141
12.0
290
     0
  0
SCALE
  5
82
102
{ACAD_REACTORS
330
65
102
}
330
65
100
AcDbScale
 70
     0
300
1" = 1'-0"
140
1.0
141
12.0
290
     0
  0
SCALE
  5
83
102
{ACAD_REACTORS
330
65
102
}
330
65
100
AcDbScale
 70
     0
300
1-1/2" = 1'-0"
140
1.5
141
12.0
290
     0
  0
SCALE
  5
84
102
{ACAD_REACTORS
330
65
102
}
330
65
100
AcDbScale
 70
     0
300
3" = 1'-0"
140
3.0
141
12.0
290
     0
  0
SCALE
  5
85
102
{ACAD_REACTORS
330
65
102
}
330
65
100
AcDbScale
 70
     0
300
6" = 1'-0"
140
6.0
141
12.0
290
     0
  0
SCALE
  5
86
102
{ACAD_REACTORS
330
65
102
}
330
65
100
AcDbScale
 70
     0
300
1'-0" = 1'-0"
140
12.0
141
12.0
290
     0
  0
VISUALSTYLE
  5
2F
102
{ACAD_REACTORS
330
2A
102
}
330
2A
100
AcDbVisualStyle
  2
2dWireframe
 70
     4
 71
     0
 72
     2
 73
     0
 90
        0
 40
-0.6
 41
-30.0
 62
     5
 63
     7
 74
     1
 91
        4
 64
     7
 65
   257
 75
     1
175
     1
 42
1.0
 92
        0
 66
   257
 43
1.0
 76
     1
 77
     6
 78
     2
 67
     7
 79
     5
170
     0
171
     0
290
     0
174
     0
 93
        1
 44
0.0
173
     0
291
     0
 45
0.0
1001
ACAD
1000
AcDbSavedByObjectVersion
1070
     0
  0
VISUALSTYLE
  5
31
102
{ACAD_REACTORS
330
2A
102
}
330
2A
100
AcDbVisualStyle
  2
3D Hidden
 70
     6
 71
     1
 72
     2
 73
     2
 90
        0
 40
-0.6
 41
-30.0
 62
     5
 63
     7
 74
     2
 91
        2
 64
     7
 65
   257
 75
     2
175
     1
 42
40.0
 92
        0
 66
   257
 43
1.0
 76
     1
 77
     6
 78
     2
 67
     7
 79
     3
170
     0
171
     0
290
     0
174
     0
 93
        1
 44
0.0
173
     0
291
     0
 45
0.0
1001
ACAD
1000
AcDbSavedByObjectVersion
1070
     0
  0
VISUALSTYLE
  5
30
102
{ACAD_REACTORS
330
2A
102
}
330
2A
100
AcDbVisualStyle
  2
3dWireframe
 70
     5
 71
     0
 72
     2
 73
     0
 90
        0
 40
-0.6
 41
-30.0
 62
     5
 63
     7
 74
     1
 91
        4
 64
     7
 65
   257
 75
     1
175
     1
 42
1.0
 92
        0
 66
   257
 43
1.0
 76
     1
 77
     6
 78
     2
 67
     7
 79
     5
170
     0
171
     0
290
     0
174
     0
 93
        1
 44
0.0
173
     0
291
     0
 45
0.0
1001
ACAD
1000
AcDbSavedByObjectVersion
1070
     0
  0
VISUALSTYLE
  5
32
102
{ACAD_REACTORS
330
2A
102
}
330
2A
100
AcDbVisualStyle
  2
Basic
 70
     7
 71
     1
 72
     0
 73
     1
 90
        0
 40
-0.6
 41
-30.0
 62
     5
 63
     7
 74
     0
 91
        4
 64
     7
 65
   257
 75
     1
175
     1
 42
1.0
 92
        8
 66
     7
 43
1.0
 76
     1
 77
     6
 78
     2
 67
     7
 79
     5
170
     0
171
     0
290
     0
174
     0
 93
        1
 44
0.0
173
     0
291
     1
 45
0.0
1001
ACAD
1000
AcDbSavedByObjectVersion
1070
     0
  0
VISUALSTYLE
  5
36
102
{ACAD_REACTORS
330
2A
102
}
330
2A
100
AcDbVisualStyle
  2
Brighten
 70
    12
 71
     2
 72
     2
 73
     0
 90
        0
 40
-0.6
 41
-30.0
 62
     5
 63
     7
 74
     1
 91
        4
 64
     7
 65
   257
 75
     1
175
     1
 42
1.0
 92
        8
 66
     7
 43
1.0
 76
     1
 77
     6
 78
     2
 67
     7
 79
     5
170
     0
171
     0
290
     0
174
     0
 93
        1
 44
50.0
173
     0
291
     1
 45
0.0
1001
ACAD
1000
AcDbSavedByObjectVersion
1070
     0
  0
VISUALSTYLE
  5
3A
102
{ACAD_REACTORS
330
2A
102
}
330
2A
100
AcDbVisualStyle
  2
ColorChange
 70
    16
 71
     2
 72
     2
 73
     3
 90
        0
 40
-0.6
 41
-30.0
 62
     5
 63
     8
 74
     1
 91
        4
 64
     7
 65
   257
 75
     1
175
     1
 42
1.0
 92
        8
 66
     8
 43
1.0
 76
     1
 77
     6
 78
     2
 67
     7
 79
     5
170
     0
171
     0
290
     0
174
     0
 93
        1
 44
0.0
173
     0
291
     1
 45
0.0
1001
ACAD
1000
AcDbSavedByObjectVersion
1070
     0
  0
VISUALSTYLE
  5
34
102
{ACAD_REACTORS
330
2A
102
}
330
2A
100
AcDbVisualStyle
  2
Conceptual
 70
     9
 71
     3
 72
     2
 73
     0
 90
        0
 40
-0.6
 41
-30.0
 62
     5
 63
     7
 74
     2
 91
        2
 64
     7
 65
   257
 75
     1
175
     1
 42
40.0
 92
        8
 66
     7
 43
1.0
 76
     1
 77
     6
 78
     2
 67
     7
 79
     3
170
     0
171
     0
290
     0
174
     0
 93
        1
 44
0.0
173
     0
291
     0
 45
0.0
1001
ACAD
1000
AcDbSavedByObjectVersion
1070
     0
  0
VISUALSTYLE
  5
35
102
{ACAD_REACTORS
330
2A
102
}
330
2A
100
AcDbVisualStyle
  2
Dim
 70
    11
 71
     2
 72
     2
 73
     0
 90
        0
 40
-0.6
 41
-30.0
 62
     5
 63
     7
 74
     1
 91
        4
 64
     7
 65
   257
 75
     1
175
     1
 42
1.0
 92
        8
 66
     7
 43
1.0
 76
     1
 77
     6
 78
     2
 67
     7
 79
     5
170
     0
171
     0
290
     0
174
     0
 93
        1
 44
-50.0
173
     0
291
     1
 45
0.0
1001
ACAD
1000
AcDbSavedByObjectVersion
1070
     0
  0
VISUALSTYLE
  5
39
102
{ACAD_REACTORS
330
2A
102
}
330
2A
100
AcDbVisualStyle
  2
Facepattern
 70
    15
 71
     2
 72
     2
 73
     0
 90
        0
 40
-0.6
 41
-30.0
 62
     5
 63
     7
 74
     1
 91
        4
 64
     7
 65
   257
 75
     1
175
     1
 42
1.0
 92
        8
 66
     7
 43
1.0
 76
     1
 77
     6
 78
     2
 67
     7
 79
     5
170
     0
171
     0
290
     0
174
     0
 93
        1
 44
0.0
173
     0
291
     1
 45
0.0
1001
ACAD
1000
AcDbSavedByObjectVersion
1070
     0
  0
VISUALSTYLE
  5
2B
102
{ACAD_REACTORS
330
2A
102
}
330
2A
100
AcDbVisualStyle
  2
Flat
 70
     0
 71
     2
 72
     1
 73
     1
 90
        2
 40
-0.6
 41
30.0
 62
     5
 63
     7
 74
     0
 91
        4
 64
     7
 65
   257
 75
     1
175
     1
 42
1.0
 92
        8
 66
     7
 43
1.0
 76
     1
 77
     6
 78
     2
 67
     7
 79
     5
170
     0
171
     0
290
     0
174
     0
 93
       13
 44
0.0
173
     0
291
     1
 45
0.0
1001
ACAD
1000
AcDbSavedByObjectVersion
1070
     0
  0
VISUALSTYLE
  5
2C
102
{ACAD_REACTORS
330
2A
102
}
330
2A
100
AcDbVisualStyle
  2
FlatWithEdges
 70
     1
 71
     2
 72
     1
 73
     1
 90
        2
 40
-0.6
 41
30.0
 62
     5
 63
     7
 74
     1
 91
        4
 64
     7
 65
   257
 75
     1
175
     1
 42
1.0
 92
        0
 66
   257
 43
1.0
 76
     1
 77
     6
 78
     2
 67
     7
 79
     5
170
     0
171
     0
290
     0
174
     0
 93
       13
 44
0.0
173
     0
291
     1
 45
0.0
1001
ACAD
1000
AcDbSavedByObjectVersion
1070
     0
  0
VISUALSTYLE
  5
2D
102
{ACAD_REACTORS
330
2A
102
}
330
2A
100
AcDbVisualStyle
  2
Gouraud
 70
     2
 71
     2
 72
     2
 73
     1
 90
        2
 40
-0.6
 41
30.0
 62
     5
 63
     7
 74
     0
 91
        4
 64
     7
 65
   257
 75
     1
175
     1
 42
1.0
 92
        0
 66
     7
 43
1.0
 76
     1
 77
     6
 78
     2
 67
     7
 79
     5
170
     0
171
     0
290
     0
174
     0
 93
       13
 44
0.0
173
     0
291
     1
 45
0.0
1001
ACAD
1000
AcDbSavedByObjectVersion
1070
     0
  0
VISUALSTYLE
  5
2E
102
{ACAD_REACTORS
330
2A
102
}
330
2A
100
AcDbVisualStyle
  2
GouraudWithEdges
 70
     3
 71
     2
 72
     2
 73
     1
 90
        2
 40
-0.6
 41
30.0
 62
     5
 63
     7
 74
     1
 91
        4
 64
     7
 65
   257
 75
     1
175
     1
 42
1.0
 92
        0
 66
   257
 43
1.0
 76
     1
 77
     6
 78
     2
 67
     7
 79
     5
170
     0
171
     0
290
     0
174
     0
 93
       13
 44
0.0
173
     0
291
     1
 45
0.0
1001
ACAD
1000
AcDbSavedByObjectVersion
1070
     0
  0
VISUALSTYLE
  5
38
102
{ACAD_REACTORS
330
2A
102
}
330
2A
100
AcDbVisualStyle
  2
Linepattern
 70
    14
 71
     2
 72
     2
 73
     0
 90
        0
 40
-0.6
 41
-30.0
 62
     5
 63
     7
 74
     1
 91
        4
 64
     7
 65
   257
 75
     7
175
     7
 42
1.0
 92
        8
 66
     7
 43
1.0
 76
     1
 77
     6
 78
     2
 67
     7
 79
     5
170
     0
171
     0
290
     0
174
     0
 93
        1
 44
0.0
173
     0
291
     1
 45
0.0
1001
ACAD
1000
AcDbSavedByObjectVersion
1070
     0
  0
VISUALSTYLE
  5
33
102
{ACAD_REACTORS
330
2A
102
}
330
2A
100
AcDbVisualStyle
  2
Realistic
 70
     8
 71
     2
 72
     2
 73
     0
 90
        0
 40
-0.6
 41
-30.0
 62
     5
 63
     7
 74
     1
 91
        0
 64
     7
 65
   257
 75
     1
175
     1
 42
1.0
 92
        8
 66
     8
 43
1.0
 76
     1
 77
     6
 78
     2
 67
     7
 79
     5
170
     0
171
     0
290
     0
174
     0
 93
       13
 44
0.0
173
     0
291
     0
 45
0.0
1001
ACAD
1000
AcDbSavedByObjectVersion
1070
     0
  0
VISUALSTYLE
  5
37
102
{ACAD_REACTORS
330
2A
102
}
330
2A
100
AcDbVisualStyle
  2
Thicken
 70
    13
 71
     2
 72
     2
 73
     0
 90
        0
 40
-0.6
 41
-30.0
 62
     5
 63
     7
 74
     1
 91
        4
 64
     7
 65
   257
 75
     1
175
     1
 42
1.0
 92
       12
 66
     7
 43
1.0
 76
     1
 77
     6
 78
     2
 67
     7
 79
     5
170
     0
171
     0
290
     0
174
     0
 93
        1
 44
0.0
173
     0
291
     1
 45
0.0
1001
ACAD
1000
AcDbSavedByObjectVersion
1070
     0
  0
DICTIONARYVAR
  5
2C0
102
{ACAD_REACTORS
330
2BB
102
}
330
2BB
100
DictionaryVariables
280
     0
  1
1:1
  0
DICTIONARYVAR
  5
2C1
102
{ACAD_REACTORS
330
2BB
102
}
330
2BB
100
DictionaryVariables
280
     0
  1
2
  0
DICTIONARYVAR
  5
2C2
102
{ACAD_REACTORS
330
2BB
102
}
330
2BB
100
DictionaryVariables
280
     0
  1
1
  0
DICTIONARYVAR
  5
2BF
102
{ACAD_REACTORS
330
2BB
102
}
330
2BB
100
DictionaryVariables
280
     0
  1
80.000000
  0
DICTIONARYVAR
  5
2BE
102
{ACAD_REACTORS
330
2BB
102
}
330
2BB
100
DictionaryVariables
280
     0
  1
5.000000
  0
ENDSEC
  0
EOF
